{
  "header": {
    "keySignatures": [
      {
        "key": "Db",
        "scale": "major",
        "ticks": 0
      },
      {
        "key": "Db",
        "scale": "major",
        "ticks": 0
      }
    ],
    "meta": [],
    "name": "Piano\u0000",
    "ppq": 480,
    "tempos": [
      {
        "bpm": 120,
        "ticks": 0
      },
      {
        "bpm": 120,
        "ticks": 94079
      }
    ],
    "timeSignatures": [
      {
        "ticks": 0,
        "timeSignature": [
          4,
          4
        ],
        "measures": 0
      }
    ]
  },
  "tracks": [
    {
      "channel": 0,
      "controlChanges": {
        "7": [
          {
            "number": 7,
            "ticks": 0,
            "time": 0,
            "value": 0.7874015748031497
          }
        ],
        "10": [
          {
            "number": 10,
            "ticks": 0,
            "time": 0,
            "value": 0.5039370078740157
          }
        ],
        "91": [
          {
            "number": 91,
            "ticks": 0,
            "time": 0,
            "value": 0
          }
        ],
        "93": [
          {
            "number": 93,
            "ticks": 0,
            "time": 0,
            "value": 0
          }
        ],
        "121": [
          {
            "number": 121,
            "ticks": 0,
            "time": 0,
            "value": 0
          }
        ]
      },
      "pitchBends": [],
      "instrument": {
        "family": "piano",
        "number": 0,
        "name": "acoustic grand piano"
      },
      "name": "Piano\u0000",
      "notes": [
        {
          "duration": 0.7114583333333333,
          "durationTicks": 683,
          "midi": 61,
          "name": "C#4",
          "ticks": 1920,
          "time": 2,
          "velocity": 0.6299212598425197
        },
        {
          "duration": 0.7114583333333333,
          "durationTicks": 683,
          "midi": 65,
          "name": "F4",
          "ticks": 1920,
          "time": 2,
          "velocity": 0.6299212598425197
        },
        {
          "duration": 0.7114583333333333,
          "durationTicks": 683,
          "midi": 70,
          "name": "A#4",
          "ticks": 1920,
          "time": 2,
          "velocity": 0.6299212598425197
        },
        {
          "duration": 0.7114583333333333,
          "durationTicks": 683,
          "midi": 73,
          "name": "C#5",
          "ticks": 1920,
          "time": 2,
          "velocity": 0.6299212598425197
        },
        {
          "duration": 0.7114583333333333,
          "durationTicks": 683,
          "midi": 63,
          "name": "D#4",
          "ticks": 2640,
          "time": 2.75,
          "velocity": 0.6299212598425197
        },
        {
          "duration": 0.7114583333333333,
          "durationTicks": 683,
          "midi": 68,
          "name": "G#4",
          "ticks": 2640,
          "time": 2.75,
          "velocity": 0.6299212598425197
        },
        {
          "duration": 0.7114583333333333,
          "durationTicks": 683,
          "midi": 72,
          "name": "C5",
          "ticks": 2640,
          "time": 2.75,
          "velocity": 0.6299212598425197
        },
        {
          "duration": 0.7114583333333333,
          "durationTicks": 683,
          "midi": 75,
          "name": "D#5",
          "ticks": 2640,
          "time": 2.75,
          "velocity": 0.6299212598425197
        },
        {
          "duration": 0.4739583333333335,
          "durationTicks": 455,
          "midi": 56,
          "name": "G#3",
          "ticks": 3360,
          "time": 3.5,
          "velocity": 0.6299212598425197
        },
        {
          "duration": 0.4739583333333335,
          "durationTicks": 455,
          "midi": 60,
          "name": "C4",
          "ticks": 3360,
          "time": 3.5,
          "velocity": 0.6299212598425197
        },
        {
          "duration": 0.4739583333333335,
          "durationTicks": 455,
          "midi": 63,
          "name": "D#4",
          "ticks": 3360,
          "time": 3.5,
          "velocity": 0.6299212598425197
        },
        {
          "duration": 0.4739583333333335,
          "durationTicks": 455,
          "midi": 68,
          "name": "G#4",
          "ticks": 3360,
          "time": 3.5,
          "velocity": 0.6299212598425197
        },
        {
          "duration": 0.7114583333333337,
          "durationTicks": 683,
          "midi": 63,
          "name": "D#4",
          "ticks": 3840,
          "time": 4,
          "velocity": 0.6299212598425197
        },
        {
          "duration": 0.7114583333333337,
          "durationTicks": 683,
          "midi": 68,
          "name": "G#4",
          "ticks": 3840,
          "time": 4,
          "velocity": 0.6299212598425197
        },
        {
          "duration": 0.7114583333333337,
          "durationTicks": 683,
          "midi": 72,
          "name": "C5",
          "ticks": 3840,
          "time": 4,
          "velocity": 0.6299212598425197
        },
        {
          "duration": 0.7114583333333337,
          "durationTicks": 683,
          "midi": 75,
          "name": "D#5",
          "ticks": 3840,
          "time": 4,
          "velocity": 0.6299212598425197
        },
        {
          "duration": 0.7114583333333337,
          "durationTicks": 683,
          "midi": 65,
          "name": "F4",
          "ticks": 4560,
          "time": 4.75,
          "velocity": 0.6299212598425197
        },
        {
          "duration": 0.7114583333333337,
          "durationTicks": 683,
          "midi": 70,
          "name": "A#4",
          "ticks": 4560,
          "time": 4.75,
          "velocity": 0.6299212598425197
        },
        {
          "duration": 0.7114583333333337,
          "durationTicks": 683,
          "midi": 73,
          "name": "C#5",
          "ticks": 4560,
          "time": 4.75,
          "velocity": 0.6299212598425197
        },
        {
          "duration": 0.7114583333333337,
          "durationTicks": 683,
          "midi": 77,
          "name": "F5",
          "ticks": 4560,
          "time": 4.75,
          "velocity": 0.6299212598425197
        },
        {
          "duration": 0.11770833333333375,
          "durationTicks": 113,
          "midi": 70,
          "name": "A#4",
          "ticks": 5280,
          "time": 5.5,
          "velocity": 0.6299212598425197
        },
        {
          "duration": 0.11770833333333375,
          "durationTicks": 113,
          "midi": 80,
          "name": "G#5",
          "ticks": 5280,
          "time": 5.5,
          "velocity": 0.6299212598425197
        },
        {
          "duration": 0.11770833333333375,
          "durationTicks": 113,
          "midi": 70,
          "name": "A#4",
          "ticks": 5400,
          "time": 5.625,
          "velocity": 0.6299212598425197
        },
        {
          "duration": 0.11770833333333375,
          "durationTicks": 113,
          "midi": 78,
          "name": "F#5",
          "ticks": 5400,
          "time": 5.625,
          "velocity": 0.6299212598425197
        },
        {
          "duration": 0.11770833333333375,
          "durationTicks": 113,
          "midi": 70,
          "name": "A#4",
          "ticks": 5520,
          "time": 5.75,
          "velocity": 0.6299212598425197
        },
        {
          "duration": 0.11770833333333375,
          "durationTicks": 113,
          "midi": 77,
          "name": "F5",
          "ticks": 5520,
          "time": 5.75,
          "velocity": 0.6299212598425197
        },
        {
          "duration": 0.11770833333333375,
          "durationTicks": 113,
          "midi": 73,
          "name": "C#5",
          "ticks": 5640,
          "time": 5.875,
          "velocity": 0.6299212598425197
        },
        {
          "duration": 0.11770833333333375,
          "durationTicks": 113,
          "midi": 75,
          "name": "D#5",
          "ticks": 5640,
          "time": 5.875,
          "velocity": 0.6299212598425197
        },
        {
          "duration": 0.7114583333333337,
          "durationTicks": 683,
          "midi": 61,
          "name": "C#4",
          "ticks": 5760,
          "time": 6,
          "velocity": 0.6299212598425197
        },
        {
          "duration": 0.7114583333333337,
          "durationTicks": 683,
          "midi": 65,
          "name": "F4",
          "ticks": 5760,
          "time": 6,
          "velocity": 0.6299212598425197
        },
        {
          "duration": 0.7114583333333337,
          "durationTicks": 683,
          "midi": 70,
          "name": "A#4",
          "ticks": 5760,
          "time": 6,
          "velocity": 0.6299212598425197
        },
        {
          "duration": 0.7114583333333337,
          "durationTicks": 683,
          "midi": 73,
          "name": "C#5",
          "ticks": 5760,
          "time": 6,
          "velocity": 0.6299212598425197
        },
        {
          "duration": 0.7114583333333337,
          "durationTicks": 683,
          "midi": 63,
          "name": "D#4",
          "ticks": 6480,
          "time": 6.75,
          "velocity": 0.6299212598425197
        },
        {
          "duration": 0.7114583333333337,
          "durationTicks": 683,
          "midi": 68,
          "name": "G#4",
          "ticks": 6480,
          "time": 6.75,
          "velocity": 0.6299212598425197
        },
        {
          "duration": 0.7114583333333337,
          "durationTicks": 683,
          "midi": 72,
          "name": "C5",
          "ticks": 6480,
          "time": 6.75,
          "velocity": 0.6299212598425197
        },
        {
          "duration": 0.7114583333333337,
          "durationTicks": 683,
          "midi": 75,
          "name": "D#5",
          "ticks": 6480,
          "time": 6.75,
          "velocity": 0.6299212598425197
        },
        {
          "duration": 0.47395833333333304,
          "durationTicks": 455,
          "midi": 56,
          "name": "G#3",
          "ticks": 7200,
          "time": 7.5,
          "velocity": 0.6299212598425197
        },
        {
          "duration": 0.47395833333333304,
          "durationTicks": 455,
          "midi": 60,
          "name": "C4",
          "ticks": 7200,
          "time": 7.5,
          "velocity": 0.6299212598425197
        },
        {
          "duration": 0.47395833333333304,
          "durationTicks": 455,
          "midi": 63,
          "name": "D#4",
          "ticks": 7200,
          "time": 7.5,
          "velocity": 0.6299212598425197
        },
        {
          "duration": 0.47395833333333304,
          "durationTicks": 455,
          "midi": 68,
          "name": "G#4",
          "ticks": 7200,
          "time": 7.5,
          "velocity": 0.6299212598425197
        },
        {
          "duration": 0.7114583333333329,
          "durationTicks": 683,
          "midi": 63,
          "name": "D#4",
          "ticks": 7680,
          "time": 8,
          "velocity": 0.6299212598425197
        },
        {
          "duration": 0.4739583333333339,
          "durationTicks": 455,
          "midi": 65,
          "name": "F4",
          "ticks": 8400,
          "time": 8.75,
          "velocity": 0.6299212598425197
        },
        {
          "duration": 0.11770833333333286,
          "durationTicks": 113,
          "midi": 68,
          "name": "G#4",
          "ticks": 8880,
          "time": 9.25,
          "velocity": 0.6299212598425197
        },
        {
          "duration": 0.11770833333333286,
          "durationTicks": 113,
          "midi": 68,
          "name": "G#4",
          "ticks": 9000,
          "time": 9.375,
          "velocity": 0.6299212598425197
        },
        {
          "duration": 0.11770833333333286,
          "durationTicks": 113,
          "midi": 70,
          "name": "A#4",
          "ticks": 9120,
          "time": 9.5,
          "velocity": 0.6299212598425197
        },
        {
          "duration": 0.35520833333333357,
          "durationTicks": 341,
          "midi": 73,
          "name": "C#5",
          "ticks": 9240,
          "time": 9.625,
          "velocity": 0.6299212598425197
        },
        {
          "duration": 0.7114583333333329,
          "durationTicks": 683,
          "midi": 61,
          "name": "C#4",
          "ticks": 9600,
          "time": 10,
          "velocity": 0.6299212598425197
        },
        {
          "duration": 0.7114583333333329,
          "durationTicks": 683,
          "midi": 65,
          "name": "F4",
          "ticks": 9600,
          "time": 10,
          "velocity": 0.6299212598425197
        },
        {
          "duration": 0.7114583333333329,
          "durationTicks": 683,
          "midi": 70,
          "name": "A#4",
          "ticks": 9600,
          "time": 10,
          "velocity": 0.6299212598425197
        },
        {
          "duration": 0.7114583333333329,
          "durationTicks": 683,
          "midi": 73,
          "name": "C#5",
          "ticks": 9600,
          "time": 10,
          "velocity": 0.6299212598425197
        },
        {
          "duration": 0.7114583333333329,
          "durationTicks": 683,
          "midi": 63,
          "name": "D#4",
          "ticks": 10320,
          "time": 10.75,
          "velocity": 0.6299212598425197
        },
        {
          "duration": 0.7114583333333329,
          "durationTicks": 683,
          "midi": 68,
          "name": "G#4",
          "ticks": 10320,
          "time": 10.75,
          "velocity": 0.6299212598425197
        },
        {
          "duration": 0.7114583333333329,
          "durationTicks": 683,
          "midi": 72,
          "name": "C5",
          "ticks": 10320,
          "time": 10.75,
          "velocity": 0.6299212598425197
        },
        {
          "duration": 0.7114583333333329,
          "durationTicks": 683,
          "midi": 75,
          "name": "D#5",
          "ticks": 10320,
          "time": 10.75,
          "velocity": 0.6299212598425197
        },
        {
          "duration": 0.4739583333333339,
          "durationTicks": 455,
          "midi": 56,
          "name": "G#3",
          "ticks": 11040,
          "time": 11.5,
          "velocity": 0.6299212598425197
        },
        {
          "duration": 0.4739583333333339,
          "durationTicks": 455,
          "midi": 60,
          "name": "C4",
          "ticks": 11040,
          "time": 11.5,
          "velocity": 0.6299212598425197
        },
        {
          "duration": 0.4739583333333339,
          "durationTicks": 455,
          "midi": 63,
          "name": "D#4",
          "ticks": 11040,
          "time": 11.5,
          "velocity": 0.6299212598425197
        },
        {
          "duration": 0.4739583333333339,
          "durationTicks": 455,
          "midi": 68,
          "name": "G#4",
          "ticks": 11040,
          "time": 11.5,
          "velocity": 0.6299212598425197
        },
        {
          "duration": 0.7114583333333329,
          "durationTicks": 683,
          "midi": 63,
          "name": "D#4",
          "ticks": 11520,
          "time": 12,
          "velocity": 0.6299212598425197
        },
        {
          "duration": 0.7114583333333329,
          "durationTicks": 683,
          "midi": 68,
          "name": "G#4",
          "ticks": 11520,
          "time": 12,
          "velocity": 0.6299212598425197
        },
        {
          "duration": 0.7114583333333329,
          "durationTicks": 683,
          "midi": 72,
          "name": "C5",
          "ticks": 11520,
          "time": 12,
          "velocity": 0.6299212598425197
        },
        {
          "duration": 0.7114583333333329,
          "durationTicks": 683,
          "midi": 75,
          "name": "D#5",
          "ticks": 11520,
          "time": 12,
          "velocity": 0.6299212598425197
        },
        {
          "duration": 0.7114583333333329,
          "durationTicks": 683,
          "midi": 65,
          "name": "F4",
          "ticks": 12240,
          "time": 12.75,
          "velocity": 0.6299212598425197
        },
        {
          "duration": 0.7114583333333329,
          "durationTicks": 683,
          "midi": 70,
          "name": "A#4",
          "ticks": 12240,
          "time": 12.75,
          "velocity": 0.6299212598425197
        },
        {
          "duration": 0.7114583333333329,
          "durationTicks": 683,
          "midi": 73,
          "name": "C#5",
          "ticks": 12240,
          "time": 12.75,
          "velocity": 0.6299212598425197
        },
        {
          "duration": 0.7114583333333329,
          "durationTicks": 683,
          "midi": 77,
          "name": "F5",
          "ticks": 12240,
          "time": 12.75,
          "velocity": 0.6299212598425197
        },
        {
          "duration": 0.11770833333333286,
          "durationTicks": 113,
          "midi": 70,
          "name": "A#4",
          "ticks": 12960,
          "time": 13.5,
          "velocity": 0.6299212598425197
        },
        {
          "duration": 0.11770833333333286,
          "durationTicks": 113,
          "midi": 80,
          "name": "G#5",
          "ticks": 12960,
          "time": 13.5,
          "velocity": 0.6299212598425197
        },
        {
          "duration": 0.11770833333333286,
          "durationTicks": 113,
          "midi": 70,
          "name": "A#4",
          "ticks": 13080,
          "time": 13.625,
          "velocity": 0.6299212598425197
        },
        {
          "duration": 0.11770833333333286,
          "durationTicks": 113,
          "midi": 78,
          "name": "F#5",
          "ticks": 13080,
          "time": 13.625,
          "velocity": 0.6299212598425197
        },
        {
          "duration": 0.11770833333333286,
          "durationTicks": 113,
          "midi": 70,
          "name": "A#4",
          "ticks": 13200,
          "time": 13.75,
          "velocity": 0.6299212598425197
        },
        {
          "duration": 0.11770833333333286,
          "durationTicks": 113,
          "midi": 77,
          "name": "F5",
          "ticks": 13200,
          "time": 13.75,
          "velocity": 0.6299212598425197
        },
        {
          "duration": 0.11770833333333286,
          "durationTicks": 113,
          "midi": 73,
          "name": "C#5",
          "ticks": 13320,
          "time": 13.875,
          "velocity": 0.6299212598425197
        },
        {
          "duration": 0.11770833333333286,
          "durationTicks": 113,
          "midi": 75,
          "name": "D#5",
          "ticks": 13320,
          "time": 13.875,
          "velocity": 0.6299212598425197
        },
        {
          "duration": 0.7114583333333329,
          "durationTicks": 683,
          "midi": 61,
          "name": "C#4",
          "ticks": 13440,
          "time": 14,
          "velocity": 0.6299212598425197
        },
        {
          "duration": 0.7114583333333329,
          "durationTicks": 683,
          "midi": 65,
          "name": "F4",
          "ticks": 13440,
          "time": 14,
          "velocity": 0.6299212598425197
        },
        {
          "duration": 0.7114583333333329,
          "durationTicks": 683,
          "midi": 70,
          "name": "A#4",
          "ticks": 13440,
          "time": 14,
          "velocity": 0.6299212598425197
        },
        {
          "duration": 0.7114583333333329,
          "durationTicks": 683,
          "midi": 73,
          "name": "C#5",
          "ticks": 13440,
          "time": 14,
          "velocity": 0.6299212598425197
        },
        {
          "duration": 0.7114583333333329,
          "durationTicks": 683,
          "midi": 63,
          "name": "D#4",
          "ticks": 14160,
          "time": 14.75,
          "velocity": 0.6299212598425197
        },
        {
          "duration": 0.7114583333333329,
          "durationTicks": 683,
          "midi": 68,
          "name": "G#4",
          "ticks": 14160,
          "time": 14.75,
          "velocity": 0.6299212598425197
        },
        {
          "duration": 0.7114583333333329,
          "durationTicks": 683,
          "midi": 72,
          "name": "C5",
          "ticks": 14160,
          "time": 14.75,
          "velocity": 0.6299212598425197
        },
        {
          "duration": 0.7114583333333329,
          "durationTicks": 683,
          "midi": 75,
          "name": "D#5",
          "ticks": 14160,
          "time": 14.75,
          "velocity": 0.6299212598425197
        },
        {
          "duration": 0.4739583333333339,
          "durationTicks": 455,
          "midi": 56,
          "name": "G#3",
          "ticks": 14880,
          "time": 15.5,
          "velocity": 0.6299212598425197
        },
        {
          "duration": 0.4739583333333339,
          "durationTicks": 455,
          "midi": 60,
          "name": "C4",
          "ticks": 14880,
          "time": 15.5,
          "velocity": 0.6299212598425197
        },
        {
          "duration": 0.4739583333333339,
          "durationTicks": 455,
          "midi": 63,
          "name": "D#4",
          "ticks": 14880,
          "time": 15.5,
          "velocity": 0.6299212598425197
        },
        {
          "duration": 0.4739583333333339,
          "durationTicks": 455,
          "midi": 68,
          "name": "G#4",
          "ticks": 14880,
          "time": 15.5,
          "velocity": 0.6299212598425197
        },
        {
          "duration": 0.7114583333333329,
          "durationTicks": 683,
          "midi": 63,
          "name": "D#4",
          "ticks": 15360,
          "time": 16,
          "velocity": 0.6299212598425197
        },
        {
          "duration": 0.47395833333333215,
          "durationTicks": 455,
          "midi": 65,
          "name": "F4",
          "ticks": 16080,
          "time": 16.75,
          "velocity": 0.6299212598425197
        },
        {
          "duration": 0.11770833333333286,
          "durationTicks": 113,
          "midi": 68,
          "name": "G#4",
          "ticks": 16560,
          "time": 17.25,
          "velocity": 0.6299212598425197
        },
        {
          "duration": 0.11770833333333286,
          "durationTicks": 113,
          "midi": 68,
          "name": "G#4",
          "ticks": 16680,
          "time": 17.375,
          "velocity": 0.6299212598425197
        },
        {
          "duration": 0.11770833333333286,
          "durationTicks": 113,
          "midi": 70,
          "name": "A#4",
          "ticks": 16800,
          "time": 17.5,
          "velocity": 0.6299212598425197
        },
        {
          "duration": 0.35520833333333357,
          "durationTicks": 341,
          "midi": 73,
          "name": "C#5",
          "ticks": 16920,
          "time": 17.625,
          "velocity": 0.6299212598425197
        },
        {
          "duration": 0.236458333333335,
          "durationTicks": 227,
          "midi": 70,
          "name": "A#4",
          "ticks": 17760,
          "time": 18.5,
          "velocity": 0.6299212598425197
        },
        {
          "duration": 0.236458333333335,
          "durationTicks": 227,
          "midi": 72,
          "name": "C5",
          "ticks": 18000,
          "time": 18.75,
          "velocity": 0.6299212598425197
        },
        {
          "duration": 0.236458333333335,
          "durationTicks": 227,
          "midi": 73,
          "name": "C#5",
          "ticks": 18240,
          "time": 19,
          "velocity": 0.6299212598425197
        },
        {
          "duration": 0.236458333333335,
          "durationTicks": 227,
          "midi": 73,
          "name": "C#5",
          "ticks": 18480,
          "time": 19.25,
          "velocity": 0.6299212598425197
        },
        {
          "duration": 0.236458333333335,
          "durationTicks": 227,
          "midi": 75,
          "name": "D#5",
          "ticks": 18720,
          "time": 19.5,
          "velocity": 0.6299212598425197
        },
        {
          "duration": 0.47395833333333215,
          "durationTicks": 455,
          "midi": 72,
          "name": "C5",
          "ticks": 18960,
          "time": 19.75,
          "velocity": 0.6299212598425197
        },
        {
          "duration": 0.11770833333333286,
          "durationTicks": 113,
          "midi": 70,
          "name": "A#4",
          "ticks": 19440,
          "time": 20.25,
          "velocity": 0.6299212598425197
        },
        {
          "duration": 1.0677083333333321,
          "durationTicks": 1025,
          "midi": 68,
          "name": "G#4",
          "ticks": 19560,
          "time": 20.375,
          "velocity": 0.6299212598425197
        },
        {
          "duration": 0.236458333333335,
          "durationTicks": 227,
          "midi": 70,
          "name": "A#4",
          "ticks": 21360,
          "time": 22.25,
          "velocity": 0.6299212598425197
        },
        {
          "duration": 0.236458333333335,
          "durationTicks": 227,
          "midi": 70,
          "name": "A#4",
          "ticks": 21600,
          "time": 22.5,
          "velocity": 0.6299212598425197
        },
        {
          "duration": 0.236458333333335,
          "durationTicks": 227,
          "midi": 72,
          "name": "C5",
          "ticks": 21840,
          "time": 22.75,
          "velocity": 0.6299212598425197
        },
        {
          "duration": 0.236458333333335,
          "durationTicks": 227,
          "midi": 73,
          "name": "C#5",
          "ticks": 22080,
          "time": 23,
          "velocity": 0.6299212598425197
        },
        {
          "duration": 0.47395833333333215,
          "durationTicks": 455,
          "midi": 70,
          "name": "A#4",
          "ticks": 22320,
          "time": 23.25,
          "velocity": 0.6299212598425197
        },
        {
          "duration": 0.236458333333335,
          "durationTicks": 227,
          "midi": 68,
          "name": "G#4",
          "ticks": 22800,
          "time": 23.75,
          "velocity": 0.6299212598425197
        },
        {
          "duration": 0.47395833333333215,
          "durationTicks": 455,
          "midi": 80,
          "name": "G#5",
          "ticks": 23040,
          "time": 24,
          "velocity": 0.6299212598425197
        },
        {
          "duration": 0.236458333333335,
          "durationTicks": 227,
          "midi": 80,
          "name": "G#5",
          "ticks": 23520,
          "time": 24.5,
          "velocity": 0.6299212598425197
        },
        {
          "duration": 0.35520833333333357,
          "durationTicks": 341,
          "midi": 75,
          "name": "D#5",
          "ticks": 23760,
          "time": 24.75,
          "velocity": 0.6299212598425197
        },
        {
          "duration": 0.11770833333333286,
          "durationTicks": 113,
          "midi": 77,
          "name": "F5",
          "ticks": 24120,
          "time": 25.125,
          "velocity": 0.6299212598425197
        },
        {
          "duration": 0.7114583333333329,
          "durationTicks": 683,
          "midi": 75,
          "name": "D#5",
          "ticks": 24240,
          "time": 25.25,
          "velocity": 0.6299212598425197
        },
        {
          "duration": 0.236458333333335,
          "durationTicks": 227,
          "midi": 70,
          "name": "A#4",
          "ticks": 25200,
          "time": 26.25,
          "velocity": 0.6299212598425197
        },
        {
          "duration": 0.236458333333335,
          "durationTicks": 227,
          "midi": 70,
          "name": "A#4",
          "ticks": 25440,
          "time": 26.5,
          "velocity": 0.6299212598425197
        },
        {
          "duration": 0.236458333333335,
          "durationTicks": 227,
          "midi": 72,
          "name": "C5",
          "ticks": 25680,
          "time": 26.75,
          "velocity": 0.6299212598425197
        },
        {
          "duration": 0.236458333333335,
          "durationTicks": 227,
          "midi": 73,
          "name": "C#5",
          "ticks": 25920,
          "time": 27,
          "velocity": 0.6299212598425197
        },
        {
          "duration": 0.236458333333335,
          "durationTicks": 227,
          "midi": 70,
          "name": "A#4",
          "ticks": 26160,
          "time": 27.25,
          "velocity": 0.6299212598425197
        },
        {
          "duration": 0.236458333333335,
          "durationTicks": 227,
          "midi": 73,
          "name": "C#5",
          "ticks": 26400,
          "time": 27.5,
          "velocity": 0.6299212598425197
        },
        {
          "duration": 0.47395833333333215,
          "durationTicks": 455,
          "midi": 75,
          "name": "D#5",
          "ticks": 26640,
          "time": 27.75,
          "velocity": 0.6299212598425197
        },
        {
          "duration": 0.236458333333335,
          "durationTicks": 227,
          "midi": 72,
          "name": "C5",
          "ticks": 27120,
          "time": 28.25,
          "velocity": 0.6299212598425197
        },
        {
          "duration": 0.236458333333335,
          "durationTicks": 227,
          "midi": 70,
          "name": "A#4",
          "ticks": 27360,
          "time": 28.5,
          "velocity": 0.6299212598425197
        },
        {
          "duration": 0.11770833333333286,
          "durationTicks": 113,
          "midi": 72,
          "name": "C5",
          "ticks": 27600,
          "time": 28.75,
          "velocity": 0.6299212598425197
        },
        {
          "duration": 0.11770833333333286,
          "durationTicks": 113,
          "midi": 70,
          "name": "A#4",
          "ticks": 27720,
          "time": 28.875,
          "velocity": 0.6299212598425197
        },
        {
          "duration": 0.47395833333333215,
          "durationTicks": 455,
          "midi": 68,
          "name": "G#4",
          "ticks": 27840,
          "time": 29,
          "velocity": 0.6299212598425197
        },
        {
          "duration": 0.236458333333335,
          "durationTicks": 227,
          "midi": 70,
          "name": "A#4",
          "ticks": 29040,
          "time": 30.25,
          "velocity": 0.6299212598425197
        },
        {
          "duration": 0.236458333333335,
          "durationTicks": 227,
          "midi": 70,
          "name": "A#4",
          "ticks": 29280,
          "time": 30.5,
          "velocity": 0.6299212598425197
        },
        {
          "duration": 0.236458333333335,
          "durationTicks": 227,
          "midi": 72,
          "name": "C5",
          "ticks": 29520,
          "time": 30.75,
          "velocity": 0.6299212598425197
        },
        {
          "duration": 0.236458333333335,
          "durationTicks": 227,
          "midi": 73,
          "name": "C#5",
          "ticks": 29760,
          "time": 31,
          "velocity": 0.6299212598425197
        },
        {
          "duration": 0.236458333333335,
          "durationTicks": 227,
          "midi": 70,
          "name": "A#4",
          "ticks": 30000,
          "time": 31.25,
          "velocity": 0.6299212598425197
        },
        {
          "duration": 0.47395833333333215,
          "durationTicks": 455,
          "midi": 68,
          "name": "G#4",
          "ticks": 30240,
          "time": 31.5,
          "velocity": 0.6299212598425197
        },
        {
          "duration": 0.23645833333333144,
          "durationTicks": 227,
          "midi": 75,
          "name": "D#5",
          "ticks": 30720,
          "time": 32,
          "velocity": 0.6299212598425197
        },
        {
          "duration": 0.23645833333333144,
          "durationTicks": 227,
          "midi": 75,
          "name": "D#5",
          "ticks": 30960,
          "time": 32.25,
          "velocity": 0.6299212598425197
        },
        {
          "duration": 0.23645833333333144,
          "durationTicks": 227,
          "midi": 75,
          "name": "D#5",
          "ticks": 31200,
          "time": 32.5,
          "velocity": 0.6299212598425197
        },
        {
          "duration": 0.23645833333333144,
          "durationTicks": 227,
          "midi": 77,
          "name": "F5",
          "ticks": 31440,
          "time": 32.75,
          "velocity": 0.6299212598425197
        },
        {
          "duration": 0.94895833333333,
          "durationTicks": 911,
          "midi": 75,
          "name": "D#5",
          "ticks": 31680,
          "time": 33,
          "velocity": 0.6299212598425197
        },
        {
          "duration": 0.94895833333333,
          "durationTicks": 911,
          "midi": 73,
          "name": "C#5",
          "ticks": 32640,
          "time": 34,
          "velocity": 0.6299212598425197
        },
        {
          "duration": 0.23645833333333144,
          "durationTicks": 227,
          "midi": 75,
          "name": "D#5",
          "ticks": 33840,
          "time": 35.25,
          "velocity": 0.6299212598425197
        },
        {
          "duration": 0.23645833333333144,
          "durationTicks": 227,
          "midi": 77,
          "name": "F5",
          "ticks": 34080,
          "time": 35.5,
          "velocity": 0.6299212598425197
        },
        {
          "duration": 0.23645833333333144,
          "durationTicks": 227,
          "midi": 73,
          "name": "C#5",
          "ticks": 34320,
          "time": 35.75,
          "velocity": 0.6299212598425197
        },
        {
          "duration": 0.23645833333333144,
          "durationTicks": 227,
          "midi": 75,
          "name": "D#5",
          "ticks": 34560,
          "time": 36,
          "velocity": 0.6299212598425197
        },
        {
          "duration": 0.23645833333333144,
          "durationTicks": 227,
          "midi": 75,
          "name": "D#5",
          "ticks": 34800,
          "time": 36.25,
          "velocity": 0.6299212598425197
        },
        {
          "duration": 0.23645833333333144,
          "durationTicks": 227,
          "midi": 75,
          "name": "D#5",
          "ticks": 35040,
          "time": 36.5,
          "velocity": 0.6299212598425197
        },
        {
          "duration": 0.23645833333333144,
          "durationTicks": 227,
          "midi": 77,
          "name": "F5",
          "ticks": 35280,
          "time": 36.75,
          "velocity": 0.6299212598425197
        },
        {
          "duration": 0.4739583333333357,
          "durationTicks": 455,
          "midi": 75,
          "name": "D#5",
          "ticks": 35520,
          "time": 37,
          "velocity": 0.6299212598425197
        },
        {
          "duration": 0.4739583333333357,
          "durationTicks": 455,
          "midi": 68,
          "name": "G#4",
          "ticks": 36000,
          "time": 37.5,
          "velocity": 0.6299212598425197
        },
        {
          "duration": 0.23645833333333144,
          "durationTicks": 227,
          "midi": 70,
          "name": "A#4",
          "ticks": 37440,
          "time": 39,
          "velocity": 0.6299212598425197
        },
        {
          "duration": 0.23645833333333144,
          "durationTicks": 227,
          "midi": 72,
          "name": "C5",
          "ticks": 37680,
          "time": 39.25,
          "velocity": 0.6299212598425197
        },
        {
          "duration": 0.23645833333333144,
          "durationTicks": 227,
          "midi": 73,
          "name": "C#5",
          "ticks": 37920,
          "time": 39.5,
          "velocity": 0.6299212598425197
        },
        {
          "duration": 0.4739583333333357,
          "durationTicks": 455,
          "midi": 70,
          "name": "A#4",
          "ticks": 38160,
          "time": 39.75,
          "velocity": 0.6299212598425197
        },
        {
          "duration": 0.23645833333333144,
          "durationTicks": 227,
          "midi": 75,
          "name": "D#5",
          "ticks": 38640,
          "time": 40.25,
          "velocity": 0.6614173228346457
        },
        {
          "duration": 0.23645833333333144,
          "durationTicks": 227,
          "midi": 77,
          "name": "F5",
          "ticks": 38880,
          "time": 40.5,
          "velocity": 0.6929133858267716
        },
        {
          "duration": 0.4739583333333357,
          "durationTicks": 455,
          "midi": 75,
          "name": "D#5",
          "ticks": 39120,
          "time": 40.75,
          "velocity": 0.7244094488188977
        },
        {
          "duration": 0.11770833333333286,
          "durationTicks": 113,
          "midi": 68,
          "name": "G#4",
          "ticks": 39840,
          "time": 41.5,
          "velocity": 0.8188976377952756
        },
        {
          "duration": 0.11770833333333286,
          "durationTicks": 113,
          "midi": 70,
          "name": "A#4",
          "ticks": 39960,
          "time": 41.625,
          "velocity": 0.8346456692913385
        },
        {
          "duration": 0.11770833333333286,
          "durationTicks": 113,
          "midi": 73,
          "name": "C#5",
          "ticks": 40080,
          "time": 41.75,
          "velocity": 0.8503937007874016
        },
        {
          "duration": 0.11770833333333286,
          "durationTicks": 113,
          "midi": 70,
          "name": "A#4",
          "ticks": 40200,
          "time": 41.875,
          "velocity": 0.8661417322834646
        },
        {
          "duration": 0.35520833333333,
          "durationTicks": 341,
          "midi": 65,
          "name": "F4",
          "ticks": 40320,
          "time": 42,
          "velocity": 0.8818897637795275
        },
        {
          "duration": 0.35520833333333,
          "durationTicks": 341,
          "midi": 70,
          "name": "A#4",
          "ticks": 40320,
          "time": 42,
          "velocity": 0.8818897637795275
        },
        {
          "duration": 0.35520833333333,
          "durationTicks": 341,
          "midi": 73,
          "name": "C#5",
          "ticks": 40320,
          "time": 42,
          "velocity": 0.8818897637795275
        },
        {
          "duration": 0.35520833333333,
          "durationTicks": 341,
          "midi": 77,
          "name": "F5",
          "ticks": 40320,
          "time": 42,
          "velocity": 0.8818897637795275
        },
        {
          "duration": 0.35520833333333,
          "durationTicks": 341,
          "midi": 65,
          "name": "F4",
          "ticks": 40680,
          "time": 42.375,
          "velocity": 0.8818897637795275
        },
        {
          "duration": 0.35520833333333,
          "durationTicks": 341,
          "midi": 70,
          "name": "A#4",
          "ticks": 40680,
          "time": 42.375,
          "velocity": 0.8818897637795275
        },
        {
          "duration": 0.35520833333333,
          "durationTicks": 341,
          "midi": 73,
          "name": "C#5",
          "ticks": 40680,
          "time": 42.375,
          "velocity": 0.8818897637795275
        },
        {
          "duration": 0.35520833333333,
          "durationTicks": 341,
          "midi": 77,
          "name": "F5",
          "ticks": 40680,
          "time": 42.375,
          "velocity": 0.8818897637795275
        },
        {
          "duration": 0.4739583333333357,
          "durationTicks": 455,
          "midi": 63,
          "name": "D#4",
          "ticks": 41040,
          "time": 42.75,
          "velocity": 0.8818897637795275
        },
        {
          "duration": 0.4739583333333357,
          "durationTicks": 455,
          "midi": 68,
          "name": "G#4",
          "ticks": 41040,
          "time": 42.75,
          "velocity": 0.8818897637795275
        },
        {
          "duration": 0.4739583333333357,
          "durationTicks": 455,
          "midi": 72,
          "name": "C5",
          "ticks": 41040,
          "time": 42.75,
          "velocity": 0.8818897637795275
        },
        {
          "duration": 0.4739583333333357,
          "durationTicks": 455,
          "midi": 75,
          "name": "D#5",
          "ticks": 41040,
          "time": 42.75,
          "velocity": 0.8818897637795275
        },
        {
          "duration": 0.11770833333333286,
          "durationTicks": 113,
          "midi": 68,
          "name": "G#4",
          "ticks": 41760,
          "time": 43.5,
          "velocity": 0.8818897637795275
        },
        {
          "duration": 0.11770833333333286,
          "durationTicks": 113,
          "midi": 70,
          "name": "A#4",
          "ticks": 41880,
          "time": 43.625,
          "velocity": 0.8818897637795275
        },
        {
          "duration": 0.11770833333333286,
          "durationTicks": 113,
          "midi": 73,
          "name": "C#5",
          "ticks": 42000,
          "time": 43.75,
          "velocity": 0.8818897637795275
        },
        {
          "duration": 0.11770833333333286,
          "durationTicks": 113,
          "midi": 70,
          "name": "A#4",
          "ticks": 42120,
          "time": 43.875,
          "velocity": 0.8818897637795275
        },
        {
          "duration": 0.35520833333333,
          "durationTicks": 341,
          "midi": 63,
          "name": "D#4",
          "ticks": 42240,
          "time": 44,
          "velocity": 0.8818897637795275
        },
        {
          "duration": 0.35520833333333,
          "durationTicks": 341,
          "midi": 68,
          "name": "G#4",
          "ticks": 42240,
          "time": 44,
          "velocity": 0.8818897637795275
        },
        {
          "duration": 0.35520833333333,
          "durationTicks": 341,
          "midi": 72,
          "name": "C5",
          "ticks": 42240,
          "time": 44,
          "velocity": 0.8818897637795275
        },
        {
          "duration": 0.35520833333333,
          "durationTicks": 341,
          "midi": 75,
          "name": "D#5",
          "ticks": 42240,
          "time": 44,
          "velocity": 0.8818897637795275
        },
        {
          "duration": 0.35520833333333,
          "durationTicks": 341,
          "midi": 63,
          "name": "D#4",
          "ticks": 42600,
          "time": 44.375,
          "velocity": 0.8818897637795275
        },
        {
          "duration": 0.35520833333333,
          "durationTicks": 341,
          "midi": 68,
          "name": "G#4",
          "ticks": 42600,
          "time": 44.375,
          "velocity": 0.8818897637795275
        },
        {
          "duration": 0.35520833333333,
          "durationTicks": 341,
          "midi": 72,
          "name": "C5",
          "ticks": 42600,
          "time": 44.375,
          "velocity": 0.8818897637795275
        },
        {
          "duration": 0.35520833333333,
          "durationTicks": 341,
          "midi": 75,
          "name": "D#5",
          "ticks": 42600,
          "time": 44.375,
          "velocity": 0.8818897637795275
        },
        {
          "duration": 0.35520833333333,
          "durationTicks": 341,
          "midi": 61,
          "name": "C#4",
          "ticks": 42960,
          "time": 44.75,
          "velocity": 0.8818897637795275
        },
        {
          "duration": 0.35520833333333,
          "durationTicks": 341,
          "midi": 65,
          "name": "F4",
          "ticks": 42960,
          "time": 44.75,
          "velocity": 0.8818897637795275
        },
        {
          "duration": 0.35520833333333,
          "durationTicks": 341,
          "midi": 70,
          "name": "A#4",
          "ticks": 42960,
          "time": 44.75,
          "velocity": 0.8818897637795275
        },
        {
          "duration": 0.35520833333333,
          "durationTicks": 341,
          "midi": 73,
          "name": "C#5",
          "ticks": 42960,
          "time": 44.75,
          "velocity": 0.8818897637795275
        },
        {
          "duration": 0.11770833333333286,
          "durationTicks": 113,
          "midi": 72,
          "name": "C5",
          "ticks": 43320,
          "time": 45.125,
          "velocity": 0.8818897637795275
        },
        {
          "duration": 0.23645833333333144,
          "durationTicks": 227,
          "midi": 70,
          "name": "A#4",
          "ticks": 43440,
          "time": 45.25,
          "velocity": 0.8818897637795275
        },
        {
          "duration": 0.11770833333333286,
          "durationTicks": 113,
          "midi": 68,
          "name": "G#4",
          "ticks": 43680,
          "time": 45.5,
          "velocity": 0.8818897637795275
        },
        {
          "duration": 0.11770833333333286,
          "durationTicks": 113,
          "midi": 70,
          "name": "A#4",
          "ticks": 43800,
          "time": 45.625,
          "velocity": 0.8818897637795275
        },
        {
          "duration": 0.11770833333333286,
          "durationTicks": 113,
          "midi": 73,
          "name": "C#5",
          "ticks": 43920,
          "time": 45.75,
          "velocity": 0.8818897637795275
        },
        {
          "duration": 0.11770833333333286,
          "durationTicks": 113,
          "midi": 70,
          "name": "A#4",
          "ticks": 44040,
          "time": 45.875,
          "velocity": 0.8818897637795275
        },
        {
          "duration": 0.4739583333333357,
          "durationTicks": 455,
          "midi": 61,
          "name": "C#4",
          "ticks": 44160,
          "time": 46,
          "velocity": 0.8818897637795275
        },
        {
          "duration": 0.4739583333333357,
          "durationTicks": 455,
          "midi": 65,
          "name": "F4",
          "ticks": 44160,
          "time": 46,
          "velocity": 0.8818897637795275
        },
        {
          "duration": 0.4739583333333357,
          "durationTicks": 455,
          "midi": 70,
          "name": "A#4",
          "ticks": 44160,
          "time": 46,
          "velocity": 0.8818897637795275
        },
        {
          "duration": 0.4739583333333357,
          "durationTicks": 455,
          "midi": 73,
          "name": "C#5",
          "ticks": 44160,
          "time": 46,
          "velocity": 0.8818897637795275
        },
        {
          "duration": 0.23645833333333144,
          "durationTicks": 227,
          "midi": 65,
          "name": "F4",
          "ticks": 44640,
          "time": 46.5,
          "velocity": 0.8818897637795275
        },
        {
          "duration": 0.23645833333333144,
          "durationTicks": 227,
          "midi": 70,
          "name": "A#4",
          "ticks": 44640,
          "time": 46.5,
          "velocity": 0.8818897637795275
        },
        {
          "duration": 0.23645833333333144,
          "durationTicks": 227,
          "midi": 75,
          "name": "D#5",
          "ticks": 44640,
          "time": 46.5,
          "velocity": 0.8818897637795275
        },
        {
          "duration": 0.05833333333333002,
          "durationTicks": 56,
          "midi": 70,
          "name": "A#4",
          "ticks": 44880,
          "time": 46.75,
          "velocity": 0.8818897637795275
        },
        {
          "duration": 0.2958333333333343,
          "durationTicks": 284,
          "midi": 60,
          "name": "C4",
          "ticks": 44940,
          "time": 46.8125,
          "velocity": 0.8818897637795275
        },
        {
          "duration": 0.2958333333333343,
          "durationTicks": 284,
          "midi": 63,
          "name": "D#4",
          "ticks": 44940,
          "time": 46.8125,
          "velocity": 0.8818897637795275
        },
        {
          "duration": 0.2958333333333343,
          "durationTicks": 284,
          "midi": 68,
          "name": "G#4",
          "ticks": 44940,
          "time": 46.8125,
          "velocity": 0.8818897637795275
        },
        {
          "duration": 0.2958333333333343,
          "durationTicks": 284,
          "midi": 72,
          "name": "C5",
          "ticks": 44940,
          "time": 46.8125,
          "velocity": 0.8818897637795275
        },
        {
          "duration": 0.11770833333333286,
          "durationTicks": 113,
          "midi": 70,
          "name": "A#4",
          "ticks": 45240,
          "time": 47.125,
          "velocity": 0.8818897637795275
        },
        {
          "duration": 0.4739583333333357,
          "durationTicks": 455,
          "midi": 68,
          "name": "G#4",
          "ticks": 45360,
          "time": 47.25,
          "velocity": 0.8818897637795275
        },
        {
          "duration": 0.23645833333333144,
          "durationTicks": 227,
          "midi": 68,
          "name": "G#4",
          "ticks": 45840,
          "time": 47.75,
          "velocity": 0.8818897637795275
        },
        {
          "duration": 0.4739583333333357,
          "durationTicks": 455,
          "midi": 63,
          "name": "D#4",
          "ticks": 46080,
          "time": 48,
          "velocity": 0.8818897637795275
        },
        {
          "duration": 0.4739583333333357,
          "durationTicks": 455,
          "midi": 68,
          "name": "G#4",
          "ticks": 46080,
          "time": 48,
          "velocity": 0.8818897637795275
        },
        {
          "duration": 0.4739583333333357,
          "durationTicks": 455,
          "midi": 72,
          "name": "C5",
          "ticks": 46080,
          "time": 48,
          "velocity": 0.8818897637795275
        },
        {
          "duration": 0.4739583333333357,
          "durationTicks": 455,
          "midi": 75,
          "name": "D#5",
          "ticks": 46080,
          "time": 48,
          "velocity": 0.8818897637795275
        },
        {
          "duration": 0.4739583333333357,
          "durationTicks": 455,
          "midi": 61,
          "name": "C#4",
          "ticks": 46560,
          "time": 48.5,
          "velocity": 0.8818897637795275
        },
        {
          "duration": 0.4739583333333357,
          "durationTicks": 455,
          "midi": 65,
          "name": "F4",
          "ticks": 46560,
          "time": 48.5,
          "velocity": 0.8818897637795275
        },
        {
          "duration": 0.4739583333333357,
          "durationTicks": 455,
          "midi": 70,
          "name": "A#4",
          "ticks": 46560,
          "time": 48.5,
          "velocity": 0.8818897637795275
        },
        {
          "duration": 0.4739583333333357,
          "durationTicks": 455,
          "midi": 73,
          "name": "C#5",
          "ticks": 46560,
          "time": 48.5,
          "velocity": 0.8818897637795275
        },
        {
          "duration": 0.11770833333333286,
          "durationTicks": 113,
          "midi": 68,
          "name": "G#4",
          "ticks": 47520,
          "time": 49.5,
          "velocity": 0.8818897637795275
        },
        {
          "duration": 0.11770833333333286,
          "durationTicks": 113,
          "midi": 70,
          "name": "A#4",
          "ticks": 47640,
          "time": 49.625,
          "velocity": 0.8818897637795275
        },
        {
          "duration": 0.11770833333333286,
          "durationTicks": 113,
          "midi": 73,
          "name": "C#5",
          "ticks": 47760,
          "time": 49.75,
          "velocity": 0.8818897637795275
        },
        {
          "duration": 0.11770833333333286,
          "durationTicks": 113,
          "midi": 70,
          "name": "A#4",
          "ticks": 47880,
          "time": 49.875,
          "velocity": 0.8818897637795275
        },
        {
          "duration": 0.35520833333333,
          "durationTicks": 341,
          "midi": 65,
          "name": "F4",
          "ticks": 48000,
          "time": 50,
          "velocity": 0.8818897637795275
        },
        {
          "duration": 0.35520833333333,
          "durationTicks": 341,
          "midi": 70,
          "name": "A#4",
          "ticks": 48000,
          "time": 50,
          "velocity": 0.8818897637795275
        },
        {
          "duration": 0.35520833333333,
          "durationTicks": 341,
          "midi": 73,
          "name": "C#5",
          "ticks": 48000,
          "time": 50,
          "velocity": 0.8818897637795275
        },
        {
          "duration": 0.35520833333333,
          "durationTicks": 341,
          "midi": 77,
          "name": "F5",
          "ticks": 48000,
          "time": 50,
          "velocity": 0.8818897637795275
        },
        {
          "duration": 0.35520833333333,
          "durationTicks": 341,
          "midi": 65,
          "name": "F4",
          "ticks": 48360,
          "time": 50.375,
          "velocity": 0.8818897637795275
        },
        {
          "duration": 0.35520833333333,
          "durationTicks": 341,
          "midi": 70,
          "name": "A#4",
          "ticks": 48360,
          "time": 50.375,
          "velocity": 0.8818897637795275
        },
        {
          "duration": 0.35520833333333,
          "durationTicks": 341,
          "midi": 73,
          "name": "C#5",
          "ticks": 48360,
          "time": 50.375,
          "velocity": 0.8818897637795275
        },
        {
          "duration": 0.35520833333333,
          "durationTicks": 341,
          "midi": 77,
          "name": "F5",
          "ticks": 48360,
          "time": 50.375,
          "velocity": 0.8818897637795275
        },
        {
          "duration": 0.4739583333333357,
          "durationTicks": 455,
          "midi": 63,
          "name": "D#4",
          "ticks": 48720,
          "time": 50.75,
          "velocity": 0.8818897637795275
        },
        {
          "duration": 0.4739583333333357,
          "durationTicks": 455,
          "midi": 68,
          "name": "G#4",
          "ticks": 48720,
          "time": 50.75,
          "velocity": 0.8818897637795275
        },
        {
          "duration": 0.4739583333333357,
          "durationTicks": 455,
          "midi": 72,
          "name": "C5",
          "ticks": 48720,
          "time": 50.75,
          "velocity": 0.8818897637795275
        },
        {
          "duration": 0.4739583333333357,
          "durationTicks": 455,
          "midi": 75,
          "name": "D#5",
          "ticks": 48720,
          "time": 50.75,
          "velocity": 0.8818897637795275
        },
        {
          "duration": 0.11770833333333286,
          "durationTicks": 113,
          "midi": 68,
          "name": "G#4",
          "ticks": 49440,
          "time": 51.5,
          "velocity": 0.8818897637795275
        },
        {
          "duration": 0.11770833333333286,
          "durationTicks": 113,
          "midi": 70,
          "name": "A#4",
          "ticks": 49560,
          "time": 51.625,
          "velocity": 0.8818897637795275
        },
        {
          "duration": 0.11770833333333286,
          "durationTicks": 113,
          "midi": 73,
          "name": "C#5",
          "ticks": 49680,
          "time": 51.75,
          "velocity": 0.8818897637795275
        },
        {
          "duration": 0.11770833333333286,
          "durationTicks": 113,
          "midi": 70,
          "name": "A#4",
          "ticks": 49800,
          "time": 51.875,
          "velocity": 0.8818897637795275
        },
        {
          "duration": 0.4739583333333357,
          "durationTicks": 455,
          "midi": 68,
          "name": "G#4",
          "ticks": 49920,
          "time": 52,
          "velocity": 0.8818897637795275
        },
        {
          "duration": 0.4739583333333357,
          "durationTicks": 455,
          "midi": 72,
          "name": "C5",
          "ticks": 49920,
          "time": 52,
          "velocity": 0.8818897637795275
        },
        {
          "duration": 0.4739583333333357,
          "durationTicks": 455,
          "midi": 77,
          "name": "F5",
          "ticks": 49920,
          "time": 52,
          "velocity": 0.8818897637795275
        },
        {
          "duration": 0.4739583333333357,
          "durationTicks": 455,
          "midi": 80,
          "name": "G#5",
          "ticks": 49920,
          "time": 52,
          "velocity": 0.8818897637795275
        },
        {
          "duration": 0.23645833333333144,
          "durationTicks": 227,
          "midi": 72,
          "name": "C5",
          "ticks": 50400,
          "time": 52.5,
          "velocity": 0.8818897637795275
        },
        {
          "duration": 0.35520833333333,
          "durationTicks": 341,
          "midi": 61,
          "name": "C#4",
          "ticks": 50640,
          "time": 52.75,
          "velocity": 0.8818897637795275
        },
        {
          "duration": 0.35520833333333,
          "durationTicks": 341,
          "midi": 65,
          "name": "F4",
          "ticks": 50640,
          "time": 52.75,
          "velocity": 0.8818897637795275
        },
        {
          "duration": 0.35520833333333,
          "durationTicks": 341,
          "midi": 70,
          "name": "A#4",
          "ticks": 50640,
          "time": 52.75,
          "velocity": 0.8818897637795275
        },
        {
          "duration": 0.35520833333333,
          "durationTicks": 341,
          "midi": 73,
          "name": "C#5",
          "ticks": 50640,
          "time": 52.75,
          "velocity": 0.8818897637795275
        },
        {
          "duration": 0.11770833333333286,
          "durationTicks": 113,
          "midi": 72,
          "name": "C5",
          "ticks": 51000,
          "time": 53.125,
          "velocity": 0.8818897637795275
        },
        {
          "duration": 0.23645833333333144,
          "durationTicks": 227,
          "midi": 70,
          "name": "A#4",
          "ticks": 51120,
          "time": 53.25,
          "velocity": 0.8818897637795275
        },
        {
          "duration": 0.11770833333333286,
          "durationTicks": 113,
          "midi": 68,
          "name": "G#4",
          "ticks": 51360,
          "time": 53.5,
          "velocity": 0.8818897637795275
        },
        {
          "duration": 0.11770833333333286,
          "durationTicks": 113,
          "midi": 70,
          "name": "A#4",
          "ticks": 51480,
          "time": 53.625,
          "velocity": 0.8818897637795275
        },
        {
          "duration": 0.11770833333333286,
          "durationTicks": 113,
          "midi": 73,
          "name": "C#5",
          "ticks": 51600,
          "time": 53.75,
          "velocity": 0.8818897637795275
        },
        {
          "duration": 0.11770833333333286,
          "durationTicks": 113,
          "midi": 70,
          "name": "A#4",
          "ticks": 51720,
          "time": 53.875,
          "velocity": 0.8818897637795275
        },
        {
          "duration": 0.4739583333333357,
          "durationTicks": 455,
          "midi": 61,
          "name": "C#4",
          "ticks": 51840,
          "time": 54,
          "velocity": 0.8818897637795275
        },
        {
          "duration": 0.4739583333333357,
          "durationTicks": 455,
          "midi": 65,
          "name": "F4",
          "ticks": 51840,
          "time": 54,
          "velocity": 0.8818897637795275
        },
        {
          "duration": 0.4739583333333357,
          "durationTicks": 455,
          "midi": 70,
          "name": "A#4",
          "ticks": 51840,
          "time": 54,
          "velocity": 0.8818897637795275
        },
        {
          "duration": 0.4739583333333357,
          "durationTicks": 455,
          "midi": 73,
          "name": "C#5",
          "ticks": 51840,
          "time": 54,
          "velocity": 0.8818897637795275
        },
        {
          "duration": 0.23645833333333144,
          "durationTicks": 227,
          "midi": 65,
          "name": "F4",
          "ticks": 52320,
          "time": 54.5,
          "velocity": 0.8818897637795275
        },
        {
          "duration": 0.23645833333333144,
          "durationTicks": 227,
          "midi": 70,
          "name": "A#4",
          "ticks": 52320,
          "time": 54.5,
          "velocity": 0.8818897637795275
        },
        {
          "duration": 0.23645833333333144,
          "durationTicks": 227,
          "midi": 75,
          "name": "D#5",
          "ticks": 52320,
          "time": 54.5,
          "velocity": 0.8818897637795275
        },
        {
          "duration": 0.05833333333333002,
          "durationTicks": 56,
          "midi": 70,
          "name": "A#4",
          "ticks": 52560,
          "time": 54.75,
          "velocity": 0.8818897637795275
        },
        {
          "duration": 0.2958333333333343,
          "durationTicks": 284,
          "midi": 60,
          "name": "C4",
          "ticks": 52620,
          "time": 54.8125,
          "velocity": 0.8818897637795275
        },
        {
          "duration": 0.2958333333333343,
          "durationTicks": 284,
          "midi": 63,
          "name": "D#4",
          "ticks": 52620,
          "time": 54.8125,
          "velocity": 0.8818897637795275
        },
        {
          "duration": 0.2958333333333343,
          "durationTicks": 284,
          "midi": 68,
          "name": "G#4",
          "ticks": 52620,
          "time": 54.8125,
          "velocity": 0.8818897637795275
        },
        {
          "duration": 0.2958333333333343,
          "durationTicks": 284,
          "midi": 72,
          "name": "C5",
          "ticks": 52620,
          "time": 54.8125,
          "velocity": 0.8818897637795275
        },
        {
          "duration": 0.11770833333333286,
          "durationTicks": 113,
          "midi": 70,
          "name": "A#4",
          "ticks": 52920,
          "time": 55.125,
          "velocity": 0.8818897637795275
        },
        {
          "duration": 0.4739583333333357,
          "durationTicks": 455,
          "midi": 68,
          "name": "G#4",
          "ticks": 53040,
          "time": 55.25,
          "velocity": 0.8818897637795275
        },
        {
          "duration": 0.23645833333333144,
          "durationTicks": 227,
          "midi": 68,
          "name": "G#4",
          "ticks": 53520,
          "time": 55.75,
          "velocity": 0.8818897637795275
        },
        {
          "duration": 0.4739583333333357,
          "durationTicks": 455,
          "midi": 63,
          "name": "D#4",
          "ticks": 53760,
          "time": 56,
          "velocity": 0.8818897637795275
        },
        {
          "duration": 0.4739583333333357,
          "durationTicks": 455,
          "midi": 68,
          "name": "G#4",
          "ticks": 53760,
          "time": 56,
          "velocity": 0.8818897637795275
        },
        {
          "duration": 0.4739583333333357,
          "durationTicks": 455,
          "midi": 72,
          "name": "C5",
          "ticks": 53760,
          "time": 56,
          "velocity": 0.8818897637795275
        },
        {
          "duration": 0.4739583333333357,
          "durationTicks": 455,
          "midi": 75,
          "name": "D#5",
          "ticks": 53760,
          "time": 56,
          "velocity": 0.8818897637795275
        },
        {
          "duration": 0.4739583333333357,
          "durationTicks": 455,
          "midi": 61,
          "name": "C#4",
          "ticks": 54240,
          "time": 56.5,
          "velocity": 0.8818897637795275
        },
        {
          "duration": 0.4739583333333357,
          "durationTicks": 455,
          "midi": 65,
          "name": "F4",
          "ticks": 54240,
          "time": 56.5,
          "velocity": 0.8818897637795275
        },
        {
          "duration": 0.4739583333333357,
          "durationTicks": 455,
          "midi": 70,
          "name": "A#4",
          "ticks": 54240,
          "time": 56.5,
          "velocity": 0.8818897637795275
        },
        {
          "duration": 0.4739583333333357,
          "durationTicks": 455,
          "midi": 73,
          "name": "C#5",
          "ticks": 54240,
          "time": 56.5,
          "velocity": 0.8818897637795275
        },
        {
          "duration": 0.23645833333333144,
          "durationTicks": 227,
          "midi": 70,
          "name": "A#4",
          "ticks": 55920,
          "time": 58.25,
          "velocity": 0.6299212598425197
        },
        {
          "duration": 0.23645833333333144,
          "durationTicks": 227,
          "midi": 73,
          "name": "C#5",
          "ticks": 56160,
          "time": 58.5,
          "velocity": 0.6299212598425197
        },
        {
          "duration": 0.23645833333333144,
          "durationTicks": 227,
          "midi": 70,
          "name": "A#4",
          "ticks": 56400,
          "time": 58.75,
          "velocity": 0.6299212598425197
        },
        {
          "duration": 0.23645833333333144,
          "durationTicks": 227,
          "midi": 73,
          "name": "C#5",
          "ticks": 56640,
          "time": 59,
          "velocity": 0.6299212598425197
        },
        {
          "duration": 0.94895833333333,
          "durationTicks": 911,
          "midi": 75,
          "name": "D#5",
          "ticks": 56880,
          "time": 59.25,
          "velocity": 0.6299212598425197
        },
        {
          "duration": 0.23645833333333144,
          "durationTicks": 227,
          "midi": 72,
          "name": "C5",
          "ticks": 57840,
          "time": 60.25,
          "velocity": 0.6299212598425197
        },
        {
          "duration": 0.23645833333333144,
          "durationTicks": 227,
          "midi": 70,
          "name": "A#4",
          "ticks": 58080,
          "time": 60.5,
          "velocity": 0.6299212598425197
        },
        {
          "duration": 0.11770833333333286,
          "durationTicks": 113,
          "midi": 72,
          "name": "C5",
          "ticks": 58320,
          "time": 60.75,
          "velocity": 0.6299212598425197
        },
        {
          "duration": 0.11770833333333286,
          "durationTicks": 113,
          "midi": 70,
          "name": "A#4",
          "ticks": 58440,
          "time": 60.875,
          "velocity": 0.6299212598425197
        },
        {
          "duration": 0.4739583333333357,
          "durationTicks": 455,
          "midi": 68,
          "name": "G#4",
          "ticks": 58560,
          "time": 61,
          "velocity": 0.6299212598425197
        },
        {
          "duration": 0.23645833333333144,
          "durationTicks": 227,
          "midi": 70,
          "name": "A#4",
          "ticks": 59760,
          "time": 62.25,
          "velocity": 0.6299212598425197
        },
        {
          "duration": 0.23645833333333144,
          "durationTicks": 227,
          "midi": 70,
          "name": "A#4",
          "ticks": 60000,
          "time": 62.5,
          "velocity": 0.6299212598425197
        },
        {
          "duration": 0.23645833333333144,
          "durationTicks": 227,
          "midi": 72,
          "name": "C5",
          "ticks": 60240,
          "time": 62.75,
          "velocity": 0.6299212598425197
        },
        {
          "duration": 0.23645833333333144,
          "durationTicks": 227,
          "midi": 73,
          "name": "C#5",
          "ticks": 60480,
          "time": 63,
          "velocity": 0.6299212598425197
        },
        {
          "duration": 0.23645833333333144,
          "durationTicks": 227,
          "midi": 70,
          "name": "A#4",
          "ticks": 60720,
          "time": 63.25,
          "velocity": 0.6299212598425197
        },
        {
          "duration": 0.4739583333333357,
          "durationTicks": 455,
          "midi": 68,
          "name": "G#4",
          "ticks": 60960,
          "time": 63.5,
          "velocity": 0.6299212598425197
        },
        {
          "duration": 0.23645833333333144,
          "durationTicks": 227,
          "midi": 80,
          "name": "G#5",
          "ticks": 61680,
          "time": 64.25,
          "velocity": 0.6299212598425197
        },
        {
          "duration": 0.23645833333333144,
          "durationTicks": 227,
          "midi": 80,
          "name": "G#5",
          "ticks": 61920,
          "time": 64.5,
          "velocity": 0.6299212598425197
        },
        {
          "duration": 0.4739583333333286,
          "durationTicks": 455,
          "midi": 75,
          "name": "D#5",
          "ticks": 62160,
          "time": 64.75,
          "velocity": 0.6299212598425197
        },
        {
          "duration": 0.23645833333333144,
          "durationTicks": 227,
          "midi": 77,
          "name": "F5",
          "ticks": 62640,
          "time": 65.25,
          "velocity": 0.6299212598425197
        },
        {
          "duration": 0.23645833333333144,
          "durationTicks": 227,
          "midi": 75,
          "name": "D#5",
          "ticks": 62880,
          "time": 65.5,
          "velocity": 0.6299212598425197
        },
        {
          "duration": 0.23645833333333144,
          "durationTicks": 227,
          "midi": 73,
          "name": "C#5",
          "ticks": 63120,
          "time": 65.75,
          "velocity": 0.6299212598425197
        },
        {
          "duration": 0.23645833333333144,
          "durationTicks": 227,
          "midi": 70,
          "name": "A#4",
          "ticks": 63600,
          "time": 66.25,
          "velocity": 0.6299212598425197
        },
        {
          "duration": 0.23645833333333144,
          "durationTicks": 227,
          "midi": 73,
          "name": "C#5",
          "ticks": 63840,
          "time": 66.5,
          "velocity": 0.6299212598425197
        },
        {
          "duration": 0.23645833333333144,
          "durationTicks": 227,
          "midi": 70,
          "name": "A#4",
          "ticks": 64080,
          "time": 66.75,
          "velocity": 0.6299212598425197
        },
        {
          "duration": 0.23645833333333144,
          "durationTicks": 227,
          "midi": 73,
          "name": "C#5",
          "ticks": 64320,
          "time": 67,
          "velocity": 0.6299212598425197
        },
        {
          "duration": 0.23645833333333144,
          "durationTicks": 227,
          "midi": 70,
          "name": "A#4",
          "ticks": 64560,
          "time": 67.25,
          "velocity": 0.6299212598425197
        },
        {
          "duration": 0.23645833333333144,
          "durationTicks": 227,
          "midi": 73,
          "name": "C#5",
          "ticks": 64800,
          "time": 67.5,
          "velocity": 0.6299212598425197
        },
        {
          "duration": 0.4739583333333286,
          "durationTicks": 455,
          "midi": 75,
          "name": "D#5",
          "ticks": 65040,
          "time": 67.75,
          "velocity": 0.6299212598425197
        },
        {
          "duration": 0.23645833333333144,
          "durationTicks": 227,
          "midi": 72,
          "name": "C5",
          "ticks": 65520,
          "time": 68.25,
          "velocity": 0.6299212598425197
        },
        {
          "duration": 0.23645833333333144,
          "durationTicks": 227,
          "midi": 70,
          "name": "A#4",
          "ticks": 65760,
          "time": 68.5,
          "velocity": 0.6299212598425197
        },
        {
          "duration": 0.11770833333333997,
          "durationTicks": 113,
          "midi": 72,
          "name": "C5",
          "ticks": 66000,
          "time": 68.75,
          "velocity": 0.6299212598425197
        },
        {
          "duration": 0.11770833333333997,
          "durationTicks": 113,
          "midi": 70,
          "name": "A#4",
          "ticks": 66120,
          "time": 68.875,
          "velocity": 0.6299212598425197
        },
        {
          "duration": 0.4739583333333286,
          "durationTicks": 455,
          "midi": 68,
          "name": "G#4",
          "ticks": 66240,
          "time": 69,
          "velocity": 0.6299212598425197
        },
        {
          "duration": 0.23645833333333144,
          "durationTicks": 227,
          "midi": 70,
          "name": "A#4",
          "ticks": 67440,
          "time": 70.25,
          "velocity": 0.6299212598425197
        },
        {
          "duration": 0.23645833333333144,
          "durationTicks": 227,
          "midi": 70,
          "name": "A#4",
          "ticks": 67680,
          "time": 70.5,
          "velocity": 0.6299212598425197
        },
        {
          "duration": 0.23645833333333144,
          "durationTicks": 227,
          "midi": 72,
          "name": "C5",
          "ticks": 67920,
          "time": 70.75,
          "velocity": 0.6299212598425197
        },
        {
          "duration": 0.23645833333333144,
          "durationTicks": 227,
          "midi": 73,
          "name": "C#5",
          "ticks": 68160,
          "time": 71,
          "velocity": 0.6299212598425197
        },
        {
          "duration": 0.23645833333333144,
          "durationTicks": 227,
          "midi": 70,
          "name": "A#4",
          "ticks": 68400,
          "time": 71.25,
          "velocity": 0.6299212598425197
        },
        {
          "duration": 0.4739583333333286,
          "durationTicks": 455,
          "midi": 68,
          "name": "G#4",
          "ticks": 68640,
          "time": 71.5,
          "velocity": 0.6299212598425197
        },
        {
          "duration": 0.23645833333333144,
          "durationTicks": 227,
          "midi": 75,
          "name": "D#5",
          "ticks": 69360,
          "time": 72.25,
          "velocity": 0.6299212598425197
        },
        {
          "duration": 0.23645833333333144,
          "durationTicks": 227,
          "midi": 77,
          "name": "F5",
          "ticks": 69600,
          "time": 72.5,
          "velocity": 0.6299212598425197
        },
        {
          "duration": 0.4739583333333286,
          "durationTicks": 455,
          "midi": 77,
          "name": "F5",
          "ticks": 69840,
          "time": 72.75,
          "velocity": 0.6299212598425197
        },
        {
          "duration": 0.4739583333333286,
          "durationTicks": 455,
          "midi": 75,
          "name": "D#5",
          "ticks": 70320,
          "time": 73.25,
          "velocity": 0.6299212598425197
        },
        {
          "duration": 0.9489583333333371,
          "durationTicks": 911,
          "midi": 73,
          "name": "C#5",
          "ticks": 71040,
          "time": 74,
          "velocity": 0.6299212598425197
        },
        {
          "duration": 0.23645833333333144,
          "durationTicks": 227,
          "midi": 75,
          "name": "D#5",
          "ticks": 72240,
          "time": 75.25,
          "velocity": 0.6299212598425197
        },
        {
          "duration": 0.23645833333333144,
          "durationTicks": 227,
          "midi": 77,
          "name": "F5",
          "ticks": 72480,
          "time": 75.5,
          "velocity": 0.6299212598425197
        },
        {
          "duration": 0.4739583333333286,
          "durationTicks": 455,
          "midi": 75,
          "name": "D#5",
          "ticks": 72720,
          "time": 75.75,
          "velocity": 0.6299212598425197
        },
        {
          "duration": 0.23645833333333144,
          "durationTicks": 227,
          "midi": 75,
          "name": "D#5",
          "ticks": 73200,
          "time": 76.25,
          "velocity": 0.6299212598425197
        },
        {
          "duration": 0.23645833333333144,
          "durationTicks": 227,
          "midi": 75,
          "name": "D#5",
          "ticks": 73440,
          "time": 76.5,
          "velocity": 0.6299212598425197
        },
        {
          "duration": 0.23645833333333144,
          "durationTicks": 227,
          "midi": 77,
          "name": "F5",
          "ticks": 73680,
          "time": 76.75,
          "velocity": 0.6299212598425197
        },
        {
          "duration": 0.4739583333333286,
          "durationTicks": 455,
          "midi": 75,
          "name": "D#5",
          "ticks": 73920,
          "time": 77,
          "velocity": 0.6299212598425197
        },
        {
          "duration": 0.4739583333333286,
          "durationTicks": 455,
          "midi": 68,
          "name": "G#4",
          "ticks": 74400,
          "time": 77.5,
          "velocity": 0.6299212598425197
        },
        {
          "duration": 0.23645833333333144,
          "durationTicks": 227,
          "midi": 68,
          "name": "G#4",
          "ticks": 75600,
          "time": 78.75,
          "velocity": 0.6299212598425197
        },
        {
          "duration": 0.23645833333333144,
          "durationTicks": 227,
          "midi": 70,
          "name": "A#4",
          "ticks": 75840,
          "time": 79,
          "velocity": 0.6299212598425197
        },
        {
          "duration": 0.23645833333333144,
          "durationTicks": 227,
          "midi": 72,
          "name": "C5",
          "ticks": 76080,
          "time": 79.25,
          "velocity": 0.6299212598425197
        },
        {
          "duration": 0.23645833333333144,
          "durationTicks": 227,
          "midi": 73,
          "name": "C#5",
          "ticks": 76320,
          "time": 79.5,
          "velocity": 0.6299212598425197
        },
        {
          "duration": 0.4739583333333286,
          "durationTicks": 455,
          "midi": 70,
          "name": "A#4",
          "ticks": 76560,
          "time": 79.75,
          "velocity": 0.6299212598425197
        },
        {
          "duration": 0.23645833333333144,
          "durationTicks": 227,
          "midi": 75,
          "name": "D#5",
          "ticks": 77040,
          "time": 80.25,
          "velocity": 0.6614173228346457
        },
        {
          "duration": 0.23645833333333144,
          "durationTicks": 227,
          "midi": 77,
          "name": "F5",
          "ticks": 77280,
          "time": 80.5,
          "velocity": 0.6929133858267716
        },
        {
          "duration": 0.4739583333333286,
          "durationTicks": 455,
          "midi": 75,
          "name": "D#5",
          "ticks": 77520,
          "time": 80.75,
          "velocity": 0.7244094488188977
        },
        {
          "duration": 0.11770833333333997,
          "durationTicks": 113,
          "midi": 68,
          "name": "G#4",
          "ticks": 78240,
          "time": 81.5,
          "velocity": 0.8188976377952756
        },
        {
          "duration": 0.11770833333333997,
          "durationTicks": 113,
          "midi": 70,
          "name": "A#4",
          "ticks": 78360,
          "time": 81.625,
          "velocity": 0.8346456692913385
        },
        {
          "duration": 0.11770833333333997,
          "durationTicks": 113,
          "midi": 73,
          "name": "C#5",
          "ticks": 78480,
          "time": 81.75,
          "velocity": 0.8503937007874016
        },
        {
          "duration": 0.11770833333333997,
          "durationTicks": 113,
          "midi": 70,
          "name": "A#4",
          "ticks": 78600,
          "time": 81.875,
          "velocity": 0.8661417322834646
        },
        {
          "duration": 0.3552083333333371,
          "durationTicks": 341,
          "midi": 65,
          "name": "F4",
          "ticks": 78720,
          "time": 82,
          "velocity": 0.8818897637795275
        },
        {
          "duration": 0.3552083333333371,
          "durationTicks": 341,
          "midi": 70,
          "name": "A#4",
          "ticks": 78720,
          "time": 82,
          "velocity": 0.8818897637795275
        },
        {
          "duration": 0.3552083333333371,
          "durationTicks": 341,
          "midi": 73,
          "name": "C#5",
          "ticks": 78720,
          "time": 82,
          "velocity": 0.8818897637795275
        },
        {
          "duration": 0.3552083333333371,
          "durationTicks": 341,
          "midi": 77,
          "name": "F5",
          "ticks": 78720,
          "time": 82,
          "velocity": 0.8818897637795275
        },
        {
          "duration": 0.3552083333333371,
          "durationTicks": 341,
          "midi": 65,
          "name": "F4",
          "ticks": 79080,
          "time": 82.375,
          "velocity": 0.8818897637795275
        },
        {
          "duration": 0.3552083333333371,
          "durationTicks": 341,
          "midi": 70,
          "name": "A#4",
          "ticks": 79080,
          "time": 82.375,
          "velocity": 0.8818897637795275
        },
        {
          "duration": 0.3552083333333371,
          "durationTicks": 341,
          "midi": 73,
          "name": "C#5",
          "ticks": 79080,
          "time": 82.375,
          "velocity": 0.8818897637795275
        },
        {
          "duration": 0.3552083333333371,
          "durationTicks": 341,
          "midi": 77,
          "name": "F5",
          "ticks": 79080,
          "time": 82.375,
          "velocity": 0.8818897637795275
        },
        {
          "duration": 0.4739583333333286,
          "durationTicks": 455,
          "midi": 63,
          "name": "D#4",
          "ticks": 79440,
          "time": 82.75,
          "velocity": 0.8818897637795275
        },
        {
          "duration": 0.4739583333333286,
          "durationTicks": 455,
          "midi": 68,
          "name": "G#4",
          "ticks": 79440,
          "time": 82.75,
          "velocity": 0.8818897637795275
        },
        {
          "duration": 0.4739583333333286,
          "durationTicks": 455,
          "midi": 72,
          "name": "C5",
          "ticks": 79440,
          "time": 82.75,
          "velocity": 0.8818897637795275
        },
        {
          "duration": 0.4739583333333286,
          "durationTicks": 455,
          "midi": 75,
          "name": "D#5",
          "ticks": 79440,
          "time": 82.75,
          "velocity": 0.8818897637795275
        },
        {
          "duration": 0.11770833333333997,
          "durationTicks": 113,
          "midi": 68,
          "name": "G#4",
          "ticks": 80160,
          "time": 83.5,
          "velocity": 0.8818897637795275
        },
        {
          "duration": 0.11770833333333997,
          "durationTicks": 113,
          "midi": 70,
          "name": "A#4",
          "ticks": 80280,
          "time": 83.625,
          "velocity": 0.8818897637795275
        },
        {
          "duration": 0.11770833333333997,
          "durationTicks": 113,
          "midi": 73,
          "name": "C#5",
          "ticks": 80400,
          "time": 83.75,
          "velocity": 0.8818897637795275
        },
        {
          "duration": 0.11770833333333997,
          "durationTicks": 113,
          "midi": 70,
          "name": "A#4",
          "ticks": 80520,
          "time": 83.875,
          "velocity": 0.8818897637795275
        },
        {
          "duration": 0.3552083333333371,
          "durationTicks": 341,
          "midi": 63,
          "name": "D#4",
          "ticks": 80640,
          "time": 84,
          "velocity": 0.8818897637795275
        },
        {
          "duration": 0.3552083333333371,
          "durationTicks": 341,
          "midi": 68,
          "name": "G#4",
          "ticks": 80640,
          "time": 84,
          "velocity": 0.8818897637795275
        },
        {
          "duration": 0.3552083333333371,
          "durationTicks": 341,
          "midi": 72,
          "name": "C5",
          "ticks": 80640,
          "time": 84,
          "velocity": 0.8818897637795275
        },
        {
          "duration": 0.3552083333333371,
          "durationTicks": 341,
          "midi": 75,
          "name": "D#5",
          "ticks": 80640,
          "time": 84,
          "velocity": 0.8818897637795275
        },
        {
          "duration": 0.3552083333333371,
          "durationTicks": 341,
          "midi": 63,
          "name": "D#4",
          "ticks": 81000,
          "time": 84.375,
          "velocity": 0.8818897637795275
        },
        {
          "duration": 0.3552083333333371,
          "durationTicks": 341,
          "midi": 68,
          "name": "G#4",
          "ticks": 81000,
          "time": 84.375,
          "velocity": 0.8818897637795275
        },
        {
          "duration": 0.3552083333333371,
          "durationTicks": 341,
          "midi": 72,
          "name": "C5",
          "ticks": 81000,
          "time": 84.375,
          "velocity": 0.8818897637795275
        },
        {
          "duration": 0.3552083333333371,
          "durationTicks": 341,
          "midi": 75,
          "name": "D#5",
          "ticks": 81000,
          "time": 84.375,
          "velocity": 0.8818897637795275
        },
        {
          "duration": 0.3552083333333371,
          "durationTicks": 341,
          "midi": 61,
          "name": "C#4",
          "ticks": 81360,
          "time": 84.75,
          "velocity": 0.8818897637795275
        },
        {
          "duration": 0.3552083333333371,
          "durationTicks": 341,
          "midi": 65,
          "name": "F4",
          "ticks": 81360,
          "time": 84.75,
          "velocity": 0.8818897637795275
        },
        {
          "duration": 0.3552083333333371,
          "durationTicks": 341,
          "midi": 70,
          "name": "A#4",
          "ticks": 81360,
          "time": 84.75,
          "velocity": 0.8818897637795275
        },
        {
          "duration": 0.3552083333333371,
          "durationTicks": 341,
          "midi": 73,
          "name": "C#5",
          "ticks": 81360,
          "time": 84.75,
          "velocity": 0.8818897637795275
        },
        {
          "duration": 0.11770833333333997,
          "durationTicks": 113,
          "midi": 72,
          "name": "C5",
          "ticks": 81720,
          "time": 85.125,
          "velocity": 0.8818897637795275
        },
        {
          "duration": 0.23645833333333144,
          "durationTicks": 227,
          "midi": 70,
          "name": "A#4",
          "ticks": 81840,
          "time": 85.25,
          "velocity": 0.8818897637795275
        },
        {
          "duration": 0.11770833333333997,
          "durationTicks": 113,
          "midi": 68,
          "name": "G#4",
          "ticks": 82080,
          "time": 85.5,
          "velocity": 0.8818897637795275
        },
        {
          "duration": 0.11770833333333997,
          "durationTicks": 113,
          "midi": 70,
          "name": "A#4",
          "ticks": 82200,
          "time": 85.625,
          "velocity": 0.8818897637795275
        },
        {
          "duration": 0.11770833333333997,
          "durationTicks": 113,
          "midi": 73,
          "name": "C#5",
          "ticks": 82320,
          "time": 85.75,
          "velocity": 0.8818897637795275
        },
        {
          "duration": 0.11770833333333997,
          "durationTicks": 113,
          "midi": 70,
          "name": "A#4",
          "ticks": 82440,
          "time": 85.875,
          "velocity": 0.8818897637795275
        },
        {
          "duration": 0.4739583333333286,
          "durationTicks": 455,
          "midi": 61,
          "name": "C#4",
          "ticks": 82560,
          "time": 86,
          "velocity": 0.8818897637795275
        },
        {
          "duration": 0.4739583333333286,
          "durationTicks": 455,
          "midi": 65,
          "name": "F4",
          "ticks": 82560,
          "time": 86,
          "velocity": 0.8818897637795275
        },
        {
          "duration": 0.4739583333333286,
          "durationTicks": 455,
          "midi": 70,
          "name": "A#4",
          "ticks": 82560,
          "time": 86,
          "velocity": 0.8818897637795275
        },
        {
          "duration": 0.4739583333333286,
          "durationTicks": 455,
          "midi": 73,
          "name": "C#5",
          "ticks": 82560,
          "time": 86,
          "velocity": 0.8818897637795275
        },
        {
          "duration": 0.23645833333333144,
          "durationTicks": 227,
          "midi": 65,
          "name": "F4",
          "ticks": 83040,
          "time": 86.5,
          "velocity": 0.8818897637795275
        },
        {
          "duration": 0.23645833333333144,
          "durationTicks": 227,
          "midi": 70,
          "name": "A#4",
          "ticks": 83040,
          "time": 86.5,
          "velocity": 0.8818897637795275
        },
        {
          "duration": 0.23645833333333144,
          "durationTicks": 227,
          "midi": 75,
          "name": "D#5",
          "ticks": 83040,
          "time": 86.5,
          "velocity": 0.8818897637795275
        },
        {
          "duration": 0.05833333333333712,
          "durationTicks": 56,
          "midi": 70,
          "name": "A#4",
          "ticks": 83280,
          "time": 86.75,
          "velocity": 0.8818897637795275
        },
        {
          "duration": 0.2958333333333343,
          "durationTicks": 284,
          "midi": 60,
          "name": "C4",
          "ticks": 83340,
          "time": 86.8125,
          "velocity": 0.8818897637795275
        },
        {
          "duration": 0.2958333333333343,
          "durationTicks": 284,
          "midi": 63,
          "name": "D#4",
          "ticks": 83340,
          "time": 86.8125,
          "velocity": 0.8818897637795275
        },
        {
          "duration": 0.2958333333333343,
          "durationTicks": 284,
          "midi": 68,
          "name": "G#4",
          "ticks": 83340,
          "time": 86.8125,
          "velocity": 0.8818897637795275
        },
        {
          "duration": 0.2958333333333343,
          "durationTicks": 284,
          "midi": 72,
          "name": "C5",
          "ticks": 83340,
          "time": 86.8125,
          "velocity": 0.8818897637795275
        },
        {
          "duration": 0.11770833333333997,
          "durationTicks": 113,
          "midi": 70,
          "name": "A#4",
          "ticks": 83640,
          "time": 87.125,
          "velocity": 0.8818897637795275
        },
        {
          "duration": 0.4739583333333286,
          "durationTicks": 455,
          "midi": 68,
          "name": "G#4",
          "ticks": 83760,
          "time": 87.25,
          "velocity": 0.8818897637795275
        },
        {
          "duration": 0.23645833333333144,
          "durationTicks": 227,
          "midi": 68,
          "name": "G#4",
          "ticks": 84240,
          "time": 87.75,
          "velocity": 0.8818897637795275
        },
        {
          "duration": 0.4739583333333286,
          "durationTicks": 455,
          "midi": 63,
          "name": "D#4",
          "ticks": 84480,
          "time": 88,
          "velocity": 0.8818897637795275
        },
        {
          "duration": 0.4739583333333286,
          "durationTicks": 455,
          "midi": 68,
          "name": "G#4",
          "ticks": 84480,
          "time": 88,
          "velocity": 0.8818897637795275
        },
        {
          "duration": 0.4739583333333286,
          "durationTicks": 455,
          "midi": 72,
          "name": "C5",
          "ticks": 84480,
          "time": 88,
          "velocity": 0.8818897637795275
        },
        {
          "duration": 0.4739583333333286,
          "durationTicks": 455,
          "midi": 75,
          "name": "D#5",
          "ticks": 84480,
          "time": 88,
          "velocity": 0.8818897637795275
        },
        {
          "duration": 0.4739583333333286,
          "durationTicks": 455,
          "midi": 61,
          "name": "C#4",
          "ticks": 84960,
          "time": 88.5,
          "velocity": 0.8818897637795275
        },
        {
          "duration": 0.4739583333333286,
          "durationTicks": 455,
          "midi": 65,
          "name": "F4",
          "ticks": 84960,
          "time": 88.5,
          "velocity": 0.8818897637795275
        },
        {
          "duration": 0.4739583333333286,
          "durationTicks": 455,
          "midi": 70,
          "name": "A#4",
          "ticks": 84960,
          "time": 88.5,
          "velocity": 0.8818897637795275
        },
        {
          "duration": 0.4739583333333286,
          "durationTicks": 455,
          "midi": 73,
          "name": "C#5",
          "ticks": 84960,
          "time": 88.5,
          "velocity": 0.8818897637795275
        },
        {
          "duration": 0.11770833333333997,
          "durationTicks": 113,
          "midi": 68,
          "name": "G#4",
          "ticks": 85920,
          "time": 89.5,
          "velocity": 0.8818897637795275
        },
        {
          "duration": 0.11770833333333997,
          "durationTicks": 113,
          "midi": 70,
          "name": "A#4",
          "ticks": 86040,
          "time": 89.625,
          "velocity": 0.8818897637795275
        },
        {
          "duration": 0.11770833333333997,
          "durationTicks": 113,
          "midi": 73,
          "name": "C#5",
          "ticks": 86160,
          "time": 89.75,
          "velocity": 0.8818897637795275
        },
        {
          "duration": 0.11770833333333997,
          "durationTicks": 113,
          "midi": 70,
          "name": "A#4",
          "ticks": 86280,
          "time": 89.875,
          "velocity": 0.8818897637795275
        },
        {
          "duration": 0.3552083333333371,
          "durationTicks": 341,
          "midi": 65,
          "name": "F4",
          "ticks": 86400,
          "time": 90,
          "velocity": 0.8818897637795275
        },
        {
          "duration": 0.3552083333333371,
          "durationTicks": 341,
          "midi": 70,
          "name": "A#4",
          "ticks": 86400,
          "time": 90,
          "velocity": 0.8818897637795275
        },
        {
          "duration": 0.3552083333333371,
          "durationTicks": 341,
          "midi": 73,
          "name": "C#5",
          "ticks": 86400,
          "time": 90,
          "velocity": 0.8818897637795275
        },
        {
          "duration": 0.3552083333333371,
          "durationTicks": 341,
          "midi": 77,
          "name": "F5",
          "ticks": 86400,
          "time": 90,
          "velocity": 0.8818897637795275
        },
        {
          "duration": 0.3552083333333371,
          "durationTicks": 341,
          "midi": 65,
          "name": "F4",
          "ticks": 86760,
          "time": 90.375,
          "velocity": 0.8818897637795275
        },
        {
          "duration": 0.3552083333333371,
          "durationTicks": 341,
          "midi": 70,
          "name": "A#4",
          "ticks": 86760,
          "time": 90.375,
          "velocity": 0.8818897637795275
        },
        {
          "duration": 0.3552083333333371,
          "durationTicks": 341,
          "midi": 73,
          "name": "C#5",
          "ticks": 86760,
          "time": 90.375,
          "velocity": 0.8818897637795275
        },
        {
          "duration": 0.3552083333333371,
          "durationTicks": 341,
          "midi": 77,
          "name": "F5",
          "ticks": 86760,
          "time": 90.375,
          "velocity": 0.8818897637795275
        },
        {
          "duration": 0.4739583333333286,
          "durationTicks": 455,
          "midi": 63,
          "name": "D#4",
          "ticks": 87120,
          "time": 90.75,
          "velocity": 0.8818897637795275
        },
        {
          "duration": 0.4739583333333286,
          "durationTicks": 455,
          "midi": 68,
          "name": "G#4",
          "ticks": 87120,
          "time": 90.75,
          "velocity": 0.8818897637795275
        },
        {
          "duration": 0.4739583333333286,
          "durationTicks": 455,
          "midi": 72,
          "name": "C5",
          "ticks": 87120,
          "time": 90.75,
          "velocity": 0.8818897637795275
        },
        {
          "duration": 0.4739583333333286,
          "durationTicks": 455,
          "midi": 75,
          "name": "D#5",
          "ticks": 87120,
          "time": 90.75,
          "velocity": 0.8818897637795275
        },
        {
          "duration": 0.11770833333333997,
          "durationTicks": 113,
          "midi": 68,
          "name": "G#4",
          "ticks": 87840,
          "time": 91.5,
          "velocity": 0.8818897637795275
        },
        {
          "duration": 0.11770833333333997,
          "durationTicks": 113,
          "midi": 70,
          "name": "A#4",
          "ticks": 87960,
          "time": 91.625,
          "velocity": 0.8818897637795275
        },
        {
          "duration": 0.11770833333333997,
          "durationTicks": 113,
          "midi": 73,
          "name": "C#5",
          "ticks": 88080,
          "time": 91.75,
          "velocity": 0.8818897637795275
        },
        {
          "duration": 0.11770833333333997,
          "durationTicks": 113,
          "midi": 70,
          "name": "A#4",
          "ticks": 88200,
          "time": 91.875,
          "velocity": 0.8818897637795275
        },
        {
          "duration": 0.4739583333333286,
          "durationTicks": 455,
          "midi": 68,
          "name": "G#4",
          "ticks": 88320,
          "time": 92,
          "velocity": 0.8818897637795275
        },
        {
          "duration": 0.4739583333333286,
          "durationTicks": 455,
          "midi": 72,
          "name": "C5",
          "ticks": 88320,
          "time": 92,
          "velocity": 0.8818897637795275
        },
        {
          "duration": 0.4739583333333286,
          "durationTicks": 455,
          "midi": 77,
          "name": "F5",
          "ticks": 88320,
          "time": 92,
          "velocity": 0.8818897637795275
        },
        {
          "duration": 0.4739583333333286,
          "durationTicks": 455,
          "midi": 80,
          "name": "G#5",
          "ticks": 88320,
          "time": 92,
          "velocity": 0.8818897637795275
        },
        {
          "duration": 0.23645833333333144,
          "durationTicks": 227,
          "midi": 72,
          "name": "C5",
          "ticks": 88800,
          "time": 92.5,
          "velocity": 0.8818897637795275
        },
        {
          "duration": 0.3552083333333371,
          "durationTicks": 341,
          "midi": 61,
          "name": "C#4",
          "ticks": 89040,
          "time": 92.75,
          "velocity": 0.8818897637795275
        },
        {
          "duration": 0.3552083333333371,
          "durationTicks": 341,
          "midi": 65,
          "name": "F4",
          "ticks": 89040,
          "time": 92.75,
          "velocity": 0.8818897637795275
        },
        {
          "duration": 0.3552083333333371,
          "durationTicks": 341,
          "midi": 70,
          "name": "A#4",
          "ticks": 89040,
          "time": 92.75,
          "velocity": 0.8818897637795275
        },
        {
          "duration": 0.3552083333333371,
          "durationTicks": 341,
          "midi": 73,
          "name": "C#5",
          "ticks": 89040,
          "time": 92.75,
          "velocity": 0.8818897637795275
        },
        {
          "duration": 0.11770833333333997,
          "durationTicks": 113,
          "midi": 72,
          "name": "C5",
          "ticks": 89400,
          "time": 93.125,
          "velocity": 0.8818897637795275
        },
        {
          "duration": 0.23645833333333144,
          "durationTicks": 227,
          "midi": 70,
          "name": "A#4",
          "ticks": 89520,
          "time": 93.25,
          "velocity": 0.8818897637795275
        },
        {
          "duration": 0.11770833333333997,
          "durationTicks": 113,
          "midi": 68,
          "name": "G#4",
          "ticks": 89760,
          "time": 93.5,
          "velocity": 0.8818897637795275
        },
        {
          "duration": 0.11770833333333997,
          "durationTicks": 113,
          "midi": 70,
          "name": "A#4",
          "ticks": 89880,
          "time": 93.625,
          "velocity": 0.8818897637795275
        },
        {
          "duration": 0.11770833333333997,
          "durationTicks": 113,
          "midi": 73,
          "name": "C#5",
          "ticks": 90000,
          "time": 93.75,
          "velocity": 0.8818897637795275
        },
        {
          "duration": 0.11770833333333997,
          "durationTicks": 113,
          "midi": 70,
          "name": "A#4",
          "ticks": 90120,
          "time": 93.875,
          "velocity": 0.8818897637795275
        },
        {
          "duration": 0.4739583333333286,
          "durationTicks": 455,
          "midi": 61,
          "name": "C#4",
          "ticks": 90240,
          "time": 94,
          "velocity": 0.8818897637795275
        },
        {
          "duration": 0.4739583333333286,
          "durationTicks": 455,
          "midi": 65,
          "name": "F4",
          "ticks": 90240,
          "time": 94,
          "velocity": 0.8818897637795275
        },
        {
          "duration": 0.4739583333333286,
          "durationTicks": 455,
          "midi": 70,
          "name": "A#4",
          "ticks": 90240,
          "time": 94,
          "velocity": 0.8818897637795275
        },
        {
          "duration": 0.4739583333333286,
          "durationTicks": 455,
          "midi": 73,
          "name": "C#5",
          "ticks": 90240,
          "time": 94,
          "velocity": 0.8818897637795275
        },
        {
          "duration": 0.23645833333333144,
          "durationTicks": 227,
          "midi": 65,
          "name": "F4",
          "ticks": 90720,
          "time": 94.5,
          "velocity": 0.8818897637795275
        },
        {
          "duration": 0.23645833333333144,
          "durationTicks": 227,
          "midi": 70,
          "name": "A#4",
          "ticks": 90720,
          "time": 94.5,
          "velocity": 0.8818897637795275
        },
        {
          "duration": 0.23645833333333144,
          "durationTicks": 227,
          "midi": 75,
          "name": "D#5",
          "ticks": 90720,
          "time": 94.5,
          "velocity": 0.8818897637795275
        },
        {
          "duration": 0.05833333333333712,
          "durationTicks": 56,
          "midi": 70,
          "name": "A#4",
          "ticks": 90960,
          "time": 94.75,
          "velocity": 0.8818897637795275
        },
        {
          "duration": 0.2958333333333343,
          "durationTicks": 284,
          "midi": 60,
          "name": "C4",
          "ticks": 91020,
          "time": 94.8125,
          "velocity": 0.8818897637795275
        },
        {
          "duration": 0.2958333333333343,
          "durationTicks": 284,
          "midi": 63,
          "name": "D#4",
          "ticks": 91020,
          "time": 94.8125,
          "velocity": 0.8818897637795275
        },
        {
          "duration": 0.2958333333333343,
          "durationTicks": 284,
          "midi": 68,
          "name": "G#4",
          "ticks": 91020,
          "time": 94.8125,
          "velocity": 0.8818897637795275
        },
        {
          "duration": 0.2958333333333343,
          "durationTicks": 284,
          "midi": 72,
          "name": "C5",
          "ticks": 91020,
          "time": 94.8125,
          "velocity": 0.8818897637795275
        },
        {
          "duration": 0.11770833333333997,
          "durationTicks": 113,
          "midi": 70,
          "name": "A#4",
          "ticks": 91320,
          "time": 95.125,
          "velocity": 0.8818897637795275
        },
        {
          "duration": 0.4739583333333286,
          "durationTicks": 455,
          "midi": 68,
          "name": "G#4",
          "ticks": 91440,
          "time": 95.25,
          "velocity": 0.8818897637795275
        },
        {
          "duration": 0.23645833333333144,
          "durationTicks": 227,
          "midi": 68,
          "name": "G#4",
          "ticks": 91920,
          "time": 95.75,
          "velocity": 0.8818897637795275
        },
        {
          "duration": 0.4739583333333286,
          "durationTicks": 455,
          "midi": 63,
          "name": "D#4",
          "ticks": 92160,
          "time": 96,
          "velocity": 0.8818897637795275
        },
        {
          "duration": 0.4739583333333286,
          "durationTicks": 455,
          "midi": 68,
          "name": "G#4",
          "ticks": 92160,
          "time": 96,
          "velocity": 0.8818897637795275
        },
        {
          "duration": 0.4739583333333286,
          "durationTicks": 455,
          "midi": 72,
          "name": "C5",
          "ticks": 92160,
          "time": 96,
          "velocity": 0.8818897637795275
        },
        {
          "duration": 0.4739583333333286,
          "durationTicks": 455,
          "midi": 75,
          "name": "D#5",
          "ticks": 92160,
          "time": 96,
          "velocity": 0.8818897637795275
        },
        {
          "duration": 0.4739583333333286,
          "durationTicks": 455,
          "midi": 61,
          "name": "C#4",
          "ticks": 92640,
          "time": 96.5,
          "velocity": 0.8818897637795275
        },
        {
          "duration": 0.4739583333333286,
          "durationTicks": 455,
          "midi": 65,
          "name": "F4",
          "ticks": 92640,
          "time": 96.5,
          "velocity": 0.8818897637795275
        },
        {
          "duration": 0.4739583333333286,
          "durationTicks": 455,
          "midi": 70,
          "name": "A#4",
          "ticks": 92640,
          "time": 96.5,
          "velocity": 0.8818897637795275
        },
        {
          "duration": 0.4739583333333286,
          "durationTicks": 455,
          "midi": 73,
          "name": "C#5",
          "ticks": 92640,
          "time": 96.5,
          "velocity": 0.8818897637795275
        },
        {
          "duration": 0.11770833333333997,
          "durationTicks": 113,
          "midi": 68,
          "name": "G#4",
          "ticks": 93600,
          "time": 97.5,
          "velocity": 0.8818897637795275
        },
        {
          "duration": 0.11770833333333997,
          "durationTicks": 113,
          "midi": 70,
          "name": "A#4",
          "ticks": 93720,
          "time": 97.625,
          "velocity": 0.8818897637795275
        },
        {
          "duration": 0.11770833333333997,
          "durationTicks": 113,
          "midi": 73,
          "name": "C#5",
          "ticks": 93840,
          "time": 97.75,
          "velocity": 0.8818897637795275
        },
        {
          "duration": 0.11770833333333997,
          "durationTicks": 113,
          "midi": 70,
          "name": "A#4",
          "ticks": 93960,
          "time": 97.875,
          "velocity": 0.8818897637795275
        },
        {
          "duration": 0.3552083333333371,
          "durationTicks": 341,
          "midi": 65,
          "name": "F4",
          "ticks": 94080,
          "time": 98,
          "velocity": 0.8818897637795275
        },
        {
          "duration": 0.3552083333333371,
          "durationTicks": 341,
          "midi": 70,
          "name": "A#4",
          "ticks": 94080,
          "time": 98,
          "velocity": 0.8818897637795275
        },
        {
          "duration": 0.3552083333333371,
          "durationTicks": 341,
          "midi": 73,
          "name": "C#5",
          "ticks": 94080,
          "time": 98,
          "velocity": 0.8818897637795275
        },
        {
          "duration": 0.3552083333333371,
          "durationTicks": 341,
          "midi": 77,
          "name": "F5",
          "ticks": 94080,
          "time": 98,
          "velocity": 0.8818897637795275
        },
        {
          "duration": 0.3552083333333371,
          "durationTicks": 341,
          "midi": 65,
          "name": "F4",
          "ticks": 94440,
          "time": 98.375,
          "velocity": 0.8818897637795275
        },
        {
          "duration": 0.3552083333333371,
          "durationTicks": 341,
          "midi": 70,
          "name": "A#4",
          "ticks": 94440,
          "time": 98.375,
          "velocity": 0.8818897637795275
        },
        {
          "duration": 0.3552083333333371,
          "durationTicks": 341,
          "midi": 73,
          "name": "C#5",
          "ticks": 94440,
          "time": 98.375,
          "velocity": 0.8818897637795275
        },
        {
          "duration": 0.3552083333333371,
          "durationTicks": 341,
          "midi": 77,
          "name": "F5",
          "ticks": 94440,
          "time": 98.375,
          "velocity": 0.8818897637795275
        },
        {
          "duration": 0.4739583333333286,
          "durationTicks": 455,
          "midi": 63,
          "name": "D#4",
          "ticks": 94800,
          "time": 98.75,
          "velocity": 0.8818897637795275
        },
        {
          "duration": 0.4739583333333286,
          "durationTicks": 455,
          "midi": 68,
          "name": "G#4",
          "ticks": 94800,
          "time": 98.75,
          "velocity": 0.8818897637795275
        },
        {
          "duration": 0.4739583333333286,
          "durationTicks": 455,
          "midi": 72,
          "name": "C5",
          "ticks": 94800,
          "time": 98.75,
          "velocity": 0.8818897637795275
        },
        {
          "duration": 0.4739583333333286,
          "durationTicks": 455,
          "midi": 75,
          "name": "D#5",
          "ticks": 94800,
          "time": 98.75,
          "velocity": 0.8818897637795275
        },
        {
          "duration": 0.11770833333333997,
          "durationTicks": 113,
          "midi": 68,
          "name": "G#4",
          "ticks": 95520,
          "time": 99.5,
          "velocity": 0.8818897637795275
        },
        {
          "duration": 0.11770833333333997,
          "durationTicks": 113,
          "midi": 70,
          "name": "A#4",
          "ticks": 95640,
          "time": 99.625,
          "velocity": 0.8818897637795275
        },
        {
          "duration": 0.11770833333333997,
          "durationTicks": 113,
          "midi": 73,
          "name": "C#5",
          "ticks": 95760,
          "time": 99.75,
          "velocity": 0.8818897637795275
        },
        {
          "duration": 0.11770833333333997,
          "durationTicks": 113,
          "midi": 70,
          "name": "A#4",
          "ticks": 95880,
          "time": 99.875,
          "velocity": 0.8818897637795275
        },
        {
          "duration": 0.3552083333333371,
          "durationTicks": 341,
          "midi": 63,
          "name": "D#4",
          "ticks": 96000,
          "time": 100,
          "velocity": 0.8818897637795275
        },
        {
          "duration": 0.3552083333333371,
          "durationTicks": 341,
          "midi": 68,
          "name": "G#4",
          "ticks": 96000,
          "time": 100,
          "velocity": 0.8818897637795275
        },
        {
          "duration": 0.3552083333333371,
          "durationTicks": 341,
          "midi": 72,
          "name": "C5",
          "ticks": 96000,
          "time": 100,
          "velocity": 0.8818897637795275
        },
        {
          "duration": 0.3552083333333371,
          "durationTicks": 341,
          "midi": 75,
          "name": "D#5",
          "ticks": 96000,
          "time": 100,
          "velocity": 0.8818897637795275
        },
        {
          "duration": 0.3552083333333371,
          "durationTicks": 341,
          "midi": 63,
          "name": "D#4",
          "ticks": 96360,
          "time": 100.375,
          "velocity": 0.8818897637795275
        },
        {
          "duration": 0.3552083333333371,
          "durationTicks": 341,
          "midi": 68,
          "name": "G#4",
          "ticks": 96360,
          "time": 100.375,
          "velocity": 0.8818897637795275
        },
        {
          "duration": 0.3552083333333371,
          "durationTicks": 341,
          "midi": 72,
          "name": "C5",
          "ticks": 96360,
          "time": 100.375,
          "velocity": 0.8818897637795275
        },
        {
          "duration": 0.3552083333333371,
          "durationTicks": 341,
          "midi": 75,
          "name": "D#5",
          "ticks": 96360,
          "time": 100.375,
          "velocity": 0.8818897637795275
        },
        {
          "duration": 0.3552083333333371,
          "durationTicks": 341,
          "midi": 61,
          "name": "C#4",
          "ticks": 96720,
          "time": 100.75,
          "velocity": 0.8818897637795275
        },
        {
          "duration": 0.3552083333333371,
          "durationTicks": 341,
          "midi": 65,
          "name": "F4",
          "ticks": 96720,
          "time": 100.75,
          "velocity": 0.8818897637795275
        },
        {
          "duration": 0.3552083333333371,
          "durationTicks": 341,
          "midi": 70,
          "name": "A#4",
          "ticks": 96720,
          "time": 100.75,
          "velocity": 0.8818897637795275
        },
        {
          "duration": 0.3552083333333371,
          "durationTicks": 341,
          "midi": 73,
          "name": "C#5",
          "ticks": 96720,
          "time": 100.75,
          "velocity": 0.8818897637795275
        },
        {
          "duration": 0.11770833333333997,
          "durationTicks": 113,
          "midi": 72,
          "name": "C5",
          "ticks": 97080,
          "time": 101.125,
          "velocity": 0.8818897637795275
        },
        {
          "duration": 0.23645833333333144,
          "durationTicks": 227,
          "midi": 70,
          "name": "A#4",
          "ticks": 97200,
          "time": 101.25,
          "velocity": 0.8818897637795275
        },
        {
          "duration": 0.11770833333333997,
          "durationTicks": 113,
          "midi": 68,
          "name": "G#4",
          "ticks": 97440,
          "time": 101.5,
          "velocity": 0.8818897637795275
        },
        {
          "duration": 0.11770833333333997,
          "durationTicks": 113,
          "midi": 70,
          "name": "A#4",
          "ticks": 97560,
          "time": 101.625,
          "velocity": 0.8818897637795275
        },
        {
          "duration": 0.11770833333333997,
          "durationTicks": 113,
          "midi": 73,
          "name": "C#5",
          "ticks": 97680,
          "time": 101.75,
          "velocity": 0.8818897637795275
        },
        {
          "duration": 0.11770833333333997,
          "durationTicks": 113,
          "midi": 70,
          "name": "A#4",
          "ticks": 97800,
          "time": 101.875,
          "velocity": 0.8818897637795275
        },
        {
          "duration": 0.4739583333333286,
          "durationTicks": 455,
          "midi": 61,
          "name": "C#4",
          "ticks": 97920,
          "time": 102,
          "velocity": 0.8818897637795275
        },
        {
          "duration": 0.4739583333333286,
          "durationTicks": 455,
          "midi": 65,
          "name": "F4",
          "ticks": 97920,
          "time": 102,
          "velocity": 0.8818897637795275
        },
        {
          "duration": 0.4739583333333286,
          "durationTicks": 455,
          "midi": 70,
          "name": "A#4",
          "ticks": 97920,
          "time": 102,
          "velocity": 0.8818897637795275
        },
        {
          "duration": 0.4739583333333286,
          "durationTicks": 455,
          "midi": 73,
          "name": "C#5",
          "ticks": 97920,
          "time": 102,
          "velocity": 0.8818897637795275
        },
        {
          "duration": 0.23645833333333144,
          "durationTicks": 227,
          "midi": 65,
          "name": "F4",
          "ticks": 98400,
          "time": 102.5,
          "velocity": 0.8818897637795275
        },
        {
          "duration": 0.23645833333333144,
          "durationTicks": 227,
          "midi": 70,
          "name": "A#4",
          "ticks": 98400,
          "time": 102.5,
          "velocity": 0.8818897637795275
        },
        {
          "duration": 0.23645833333333144,
          "durationTicks": 227,
          "midi": 75,
          "name": "D#5",
          "ticks": 98400,
          "time": 102.5,
          "velocity": 0.8818897637795275
        },
        {
          "duration": 0.05833333333333712,
          "durationTicks": 56,
          "midi": 70,
          "name": "A#4",
          "ticks": 98640,
          "time": 102.75,
          "velocity": 0.8818897637795275
        },
        {
          "duration": 0.2958333333333343,
          "durationTicks": 284,
          "midi": 60,
          "name": "C4",
          "ticks": 98700,
          "time": 102.8125,
          "velocity": 0.8818897637795275
        },
        {
          "duration": 0.2958333333333343,
          "durationTicks": 284,
          "midi": 63,
          "name": "D#4",
          "ticks": 98700,
          "time": 102.8125,
          "velocity": 0.8818897637795275
        },
        {
          "duration": 0.2958333333333343,
          "durationTicks": 284,
          "midi": 68,
          "name": "G#4",
          "ticks": 98700,
          "time": 102.8125,
          "velocity": 0.8818897637795275
        },
        {
          "duration": 0.2958333333333343,
          "durationTicks": 284,
          "midi": 72,
          "name": "C5",
          "ticks": 98700,
          "time": 102.8125,
          "velocity": 0.8818897637795275
        },
        {
          "duration": 0.11770833333333997,
          "durationTicks": 113,
          "midi": 70,
          "name": "A#4",
          "ticks": 99000,
          "time": 103.125,
          "velocity": 0.8818897637795275
        },
        {
          "duration": 0.4739583333333286,
          "durationTicks": 455,
          "midi": 68,
          "name": "G#4",
          "ticks": 99120,
          "time": 103.25,
          "velocity": 0.8818897637795275
        },
        {
          "duration": 0.23645833333333144,
          "durationTicks": 227,
          "midi": 68,
          "name": "G#4",
          "ticks": 99600,
          "time": 103.75,
          "velocity": 0.8818897637795275
        },
        {
          "duration": 0.4739583333333286,
          "durationTicks": 455,
          "midi": 63,
          "name": "D#4",
          "ticks": 99840,
          "time": 104,
          "velocity": 0.8818897637795275
        },
        {
          "duration": 0.4739583333333286,
          "durationTicks": 455,
          "midi": 68,
          "name": "G#4",
          "ticks": 99840,
          "time": 104,
          "velocity": 0.8818897637795275
        },
        {
          "duration": 0.4739583333333286,
          "durationTicks": 455,
          "midi": 72,
          "name": "C5",
          "ticks": 99840,
          "time": 104,
          "velocity": 0.8818897637795275
        },
        {
          "duration": 0.4739583333333286,
          "durationTicks": 455,
          "midi": 75,
          "name": "D#5",
          "ticks": 99840,
          "time": 104,
          "velocity": 0.8818897637795275
        },
        {
          "duration": 0.4739583333333286,
          "durationTicks": 455,
          "midi": 61,
          "name": "C#4",
          "ticks": 100320,
          "time": 104.5,
          "velocity": 0.8818897637795275
        },
        {
          "duration": 0.4739583333333286,
          "durationTicks": 455,
          "midi": 65,
          "name": "F4",
          "ticks": 100320,
          "time": 104.5,
          "velocity": 0.8818897637795275
        },
        {
          "duration": 0.4739583333333286,
          "durationTicks": 455,
          "midi": 70,
          "name": "A#4",
          "ticks": 100320,
          "time": 104.5,
          "velocity": 0.8818897637795275
        },
        {
          "duration": 0.4739583333333286,
          "durationTicks": 455,
          "midi": 73,
          "name": "C#5",
          "ticks": 100320,
          "time": 104.5,
          "velocity": 0.8818897637795275
        },
        {
          "duration": 0.11770833333333997,
          "durationTicks": 113,
          "midi": 68,
          "name": "G#4",
          "ticks": 101280,
          "time": 105.5,
          "velocity": 0.8818897637795275
        },
        {
          "duration": 0.11770833333333997,
          "durationTicks": 113,
          "midi": 70,
          "name": "A#4",
          "ticks": 101400,
          "time": 105.625,
          "velocity": 0.8818897637795275
        },
        {
          "duration": 0.11770833333333997,
          "durationTicks": 113,
          "midi": 73,
          "name": "C#5",
          "ticks": 101520,
          "time": 105.75,
          "velocity": 0.8818897637795275
        },
        {
          "duration": 0.11770833333333997,
          "durationTicks": 113,
          "midi": 70,
          "name": "A#4",
          "ticks": 101640,
          "time": 105.875,
          "velocity": 0.8818897637795275
        },
        {
          "duration": 0.3552083333333371,
          "durationTicks": 341,
          "midi": 65,
          "name": "F4",
          "ticks": 101760,
          "time": 106,
          "velocity": 0.8818897637795275
        },
        {
          "duration": 0.3552083333333371,
          "durationTicks": 341,
          "midi": 70,
          "name": "A#4",
          "ticks": 101760,
          "time": 106,
          "velocity": 0.8818897637795275
        },
        {
          "duration": 0.3552083333333371,
          "durationTicks": 341,
          "midi": 73,
          "name": "C#5",
          "ticks": 101760,
          "time": 106,
          "velocity": 0.8818897637795275
        },
        {
          "duration": 0.3552083333333371,
          "durationTicks": 341,
          "midi": 77,
          "name": "F5",
          "ticks": 101760,
          "time": 106,
          "velocity": 0.8818897637795275
        },
        {
          "duration": 0.3552083333333371,
          "durationTicks": 341,
          "midi": 65,
          "name": "F4",
          "ticks": 102120,
          "time": 106.375,
          "velocity": 0.8818897637795275
        },
        {
          "duration": 0.3552083333333371,
          "durationTicks": 341,
          "midi": 70,
          "name": "A#4",
          "ticks": 102120,
          "time": 106.375,
          "velocity": 0.8818897637795275
        },
        {
          "duration": 0.3552083333333371,
          "durationTicks": 341,
          "midi": 73,
          "name": "C#5",
          "ticks": 102120,
          "time": 106.375,
          "velocity": 0.8818897637795275
        },
        {
          "duration": 0.3552083333333371,
          "durationTicks": 341,
          "midi": 77,
          "name": "F5",
          "ticks": 102120,
          "time": 106.375,
          "velocity": 0.8818897637795275
        },
        {
          "duration": 0.4739583333333286,
          "durationTicks": 455,
          "midi": 63,
          "name": "D#4",
          "ticks": 102480,
          "time": 106.75,
          "velocity": 0.8818897637795275
        },
        {
          "duration": 0.4739583333333286,
          "durationTicks": 455,
          "midi": 68,
          "name": "G#4",
          "ticks": 102480,
          "time": 106.75,
          "velocity": 0.8818897637795275
        },
        {
          "duration": 0.4739583333333286,
          "durationTicks": 455,
          "midi": 72,
          "name": "C5",
          "ticks": 102480,
          "time": 106.75,
          "velocity": 0.8818897637795275
        },
        {
          "duration": 0.4739583333333286,
          "durationTicks": 455,
          "midi": 75,
          "name": "D#5",
          "ticks": 102480,
          "time": 106.75,
          "velocity": 0.8818897637795275
        },
        {
          "duration": 0.11770833333333997,
          "durationTicks": 113,
          "midi": 68,
          "name": "G#4",
          "ticks": 103200,
          "time": 107.5,
          "velocity": 0.8818897637795275
        },
        {
          "duration": 0.11770833333333997,
          "durationTicks": 113,
          "midi": 70,
          "name": "A#4",
          "ticks": 103320,
          "time": 107.625,
          "velocity": 0.8818897637795275
        },
        {
          "duration": 0.11770833333333997,
          "durationTicks": 113,
          "midi": 73,
          "name": "C#5",
          "ticks": 103440,
          "time": 107.75,
          "velocity": 0.8818897637795275
        },
        {
          "duration": 0.11770833333333997,
          "durationTicks": 113,
          "midi": 70,
          "name": "A#4",
          "ticks": 103560,
          "time": 107.875,
          "velocity": 0.8818897637795275
        },
        {
          "duration": 0.4739583333333286,
          "durationTicks": 455,
          "midi": 68,
          "name": "G#4",
          "ticks": 103680,
          "time": 108,
          "velocity": 0.8818897637795275
        },
        {
          "duration": 0.4739583333333286,
          "durationTicks": 455,
          "midi": 72,
          "name": "C5",
          "ticks": 103680,
          "time": 108,
          "velocity": 0.8818897637795275
        },
        {
          "duration": 0.4739583333333286,
          "durationTicks": 455,
          "midi": 77,
          "name": "F5",
          "ticks": 103680,
          "time": 108,
          "velocity": 0.8818897637795275
        },
        {
          "duration": 0.4739583333333286,
          "durationTicks": 455,
          "midi": 80,
          "name": "G#5",
          "ticks": 103680,
          "time": 108,
          "velocity": 0.8818897637795275
        },
        {
          "duration": 0.23645833333333144,
          "durationTicks": 227,
          "midi": 72,
          "name": "C5",
          "ticks": 104160,
          "time": 108.5,
          "velocity": 0.8818897637795275
        },
        {
          "duration": 0.3552083333333371,
          "durationTicks": 341,
          "midi": 61,
          "name": "C#4",
          "ticks": 104400,
          "time": 108.75,
          "velocity": 0.8818897637795275
        },
        {
          "duration": 0.3552083333333371,
          "durationTicks": 341,
          "midi": 65,
          "name": "F4",
          "ticks": 104400,
          "time": 108.75,
          "velocity": 0.8818897637795275
        },
        {
          "duration": 0.3552083333333371,
          "durationTicks": 341,
          "midi": 70,
          "name": "A#4",
          "ticks": 104400,
          "time": 108.75,
          "velocity": 0.8818897637795275
        },
        {
          "duration": 0.3552083333333371,
          "durationTicks": 341,
          "midi": 73,
          "name": "C#5",
          "ticks": 104400,
          "time": 108.75,
          "velocity": 0.8818897637795275
        },
        {
          "duration": 0.11770833333333997,
          "durationTicks": 113,
          "midi": 72,
          "name": "C5",
          "ticks": 104760,
          "time": 109.125,
          "velocity": 0.8818897637795275
        },
        {
          "duration": 0.23645833333333144,
          "durationTicks": 227,
          "midi": 70,
          "name": "A#4",
          "ticks": 104880,
          "time": 109.25,
          "velocity": 0.8818897637795275
        },
        {
          "duration": 0.11770833333333997,
          "durationTicks": 113,
          "midi": 68,
          "name": "G#4",
          "ticks": 105120,
          "time": 109.5,
          "velocity": 0.8818897637795275
        },
        {
          "duration": 0.11770833333333997,
          "durationTicks": 113,
          "midi": 70,
          "name": "A#4",
          "ticks": 105240,
          "time": 109.625,
          "velocity": 0.8818897637795275
        },
        {
          "duration": 0.11770833333333997,
          "durationTicks": 113,
          "midi": 73,
          "name": "C#5",
          "ticks": 105360,
          "time": 109.75,
          "velocity": 0.8818897637795275
        },
        {
          "duration": 0.11770833333333997,
          "durationTicks": 113,
          "midi": 70,
          "name": "A#4",
          "ticks": 105480,
          "time": 109.875,
          "velocity": 0.8818897637795275
        },
        {
          "duration": 0.4739583333333286,
          "durationTicks": 455,
          "midi": 61,
          "name": "C#4",
          "ticks": 105600,
          "time": 110,
          "velocity": 0.8818897637795275
        },
        {
          "duration": 0.4739583333333286,
          "durationTicks": 455,
          "midi": 65,
          "name": "F4",
          "ticks": 105600,
          "time": 110,
          "velocity": 0.8818897637795275
        },
        {
          "duration": 0.4739583333333286,
          "durationTicks": 455,
          "midi": 70,
          "name": "A#4",
          "ticks": 105600,
          "time": 110,
          "velocity": 0.8818897637795275
        },
        {
          "duration": 0.4739583333333286,
          "durationTicks": 455,
          "midi": 73,
          "name": "C#5",
          "ticks": 105600,
          "time": 110,
          "velocity": 0.8818897637795275
        },
        {
          "duration": 0.23645833333333144,
          "durationTicks": 227,
          "midi": 65,
          "name": "F4",
          "ticks": 106080,
          "time": 110.5,
          "velocity": 0.8818897637795275
        },
        {
          "duration": 0.23645833333333144,
          "durationTicks": 227,
          "midi": 70,
          "name": "A#4",
          "ticks": 106080,
          "time": 110.5,
          "velocity": 0.8818897637795275
        },
        {
          "duration": 0.23645833333333144,
          "durationTicks": 227,
          "midi": 75,
          "name": "D#5",
          "ticks": 106080,
          "time": 110.5,
          "velocity": 0.8818897637795275
        },
        {
          "duration": 0.05833333333333712,
          "durationTicks": 56,
          "midi": 70,
          "name": "A#4",
          "ticks": 106320,
          "time": 110.75,
          "velocity": 0.8818897637795275
        },
        {
          "duration": 0.2958333333333343,
          "durationTicks": 284,
          "midi": 60,
          "name": "C4",
          "ticks": 106380,
          "time": 110.8125,
          "velocity": 0.8818897637795275
        },
        {
          "duration": 0.2958333333333343,
          "durationTicks": 284,
          "midi": 63,
          "name": "D#4",
          "ticks": 106380,
          "time": 110.8125,
          "velocity": 0.8818897637795275
        },
        {
          "duration": 0.2958333333333343,
          "durationTicks": 284,
          "midi": 68,
          "name": "G#4",
          "ticks": 106380,
          "time": 110.8125,
          "velocity": 0.8818897637795275
        },
        {
          "duration": 0.2958333333333343,
          "durationTicks": 284,
          "midi": 72,
          "name": "C5",
          "ticks": 106380,
          "time": 110.8125,
          "velocity": 0.8818897637795275
        },
        {
          "duration": 0.11770833333333997,
          "durationTicks": 113,
          "midi": 70,
          "name": "A#4",
          "ticks": 106680,
          "time": 111.125,
          "velocity": 0.8818897637795275
        },
        {
          "duration": 0.4739583333333286,
          "durationTicks": 455,
          "midi": 68,
          "name": "G#4",
          "ticks": 106800,
          "time": 111.25,
          "velocity": 0.8818897637795275
        },
        {
          "duration": 0.23645833333333144,
          "durationTicks": 227,
          "midi": 68,
          "name": "G#4",
          "ticks": 107280,
          "time": 111.75,
          "velocity": 0.8818897637795275
        },
        {
          "duration": 0.4739583333333286,
          "durationTicks": 455,
          "midi": 63,
          "name": "D#4",
          "ticks": 107520,
          "time": 112,
          "velocity": 0.8818897637795275
        },
        {
          "duration": 0.4739583333333286,
          "durationTicks": 455,
          "midi": 68,
          "name": "G#4",
          "ticks": 107520,
          "time": 112,
          "velocity": 0.8818897637795275
        },
        {
          "duration": 0.4739583333333286,
          "durationTicks": 455,
          "midi": 72,
          "name": "C5",
          "ticks": 107520,
          "time": 112,
          "velocity": 0.8818897637795275
        },
        {
          "duration": 0.4739583333333286,
          "durationTicks": 455,
          "midi": 75,
          "name": "D#5",
          "ticks": 107520,
          "time": 112,
          "velocity": 0.8818897637795275
        },
        {
          "duration": 0.4739583333333286,
          "durationTicks": 455,
          "midi": 61,
          "name": "C#4",
          "ticks": 108000,
          "time": 112.5,
          "velocity": 0.8818897637795275
        },
        {
          "duration": 0.4739583333333286,
          "durationTicks": 455,
          "midi": 65,
          "name": "F4",
          "ticks": 108000,
          "time": 112.5,
          "velocity": 0.8818897637795275
        },
        {
          "duration": 0.4739583333333286,
          "durationTicks": 455,
          "midi": 70,
          "name": "A#4",
          "ticks": 108000,
          "time": 112.5,
          "velocity": 0.8818897637795275
        },
        {
          "duration": 0.4739583333333286,
          "durationTicks": 455,
          "midi": 73,
          "name": "C#5",
          "ticks": 108000,
          "time": 112.5,
          "velocity": 0.8818897637795275
        },
        {
          "duration": 1.8989583333333258,
          "durationTicks": 1823,
          "midi": 68,
          "name": "G#4",
          "ticks": 109440,
          "time": 114,
          "velocity": 0.6299212598425197
        },
        {
          "duration": 1.8989583333333258,
          "durationTicks": 1823,
          "midi": 80,
          "name": "G#5",
          "ticks": 109440,
          "time": 114,
          "velocity": 0.6299212598425197
        },
        {
          "duration": 0.3552083333333371,
          "durationTicks": 341,
          "midi": 65,
          "name": "F4",
          "ticks": 111360,
          "time": 116,
          "velocity": 0.6299212598425197
        },
        {
          "duration": 0.3552083333333371,
          "durationTicks": 341,
          "midi": 70,
          "name": "A#4",
          "ticks": 111360,
          "time": 116,
          "velocity": 0.6299212598425197
        },
        {
          "duration": 0.3552083333333371,
          "durationTicks": 341,
          "midi": 77,
          "name": "F5",
          "ticks": 111360,
          "time": 116,
          "velocity": 0.6299212598425197
        },
        {
          "duration": 0.3552083333333371,
          "durationTicks": 341,
          "midi": 65,
          "name": "F4",
          "ticks": 111720,
          "time": 116.375,
          "velocity": 0.6299212598425197
        },
        {
          "duration": 0.3552083333333371,
          "durationTicks": 341,
          "midi": 70,
          "name": "A#4",
          "ticks": 111720,
          "time": 116.375,
          "velocity": 0.6299212598425197
        },
        {
          "duration": 0.3552083333333371,
          "durationTicks": 341,
          "midi": 77,
          "name": "F5",
          "ticks": 111720,
          "time": 116.375,
          "velocity": 0.6299212598425197
        },
        {
          "duration": 0.4739583333333428,
          "durationTicks": 455,
          "midi": 63,
          "name": "D#4",
          "ticks": 112080,
          "time": 116.75,
          "velocity": 0.6299212598425197
        },
        {
          "duration": 0.4739583333333428,
          "durationTicks": 455,
          "midi": 70,
          "name": "A#4",
          "ticks": 112080,
          "time": 116.75,
          "velocity": 0.6299212598425197
        },
        {
          "duration": 0.4739583333333428,
          "durationTicks": 455,
          "midi": 75,
          "name": "D#5",
          "ticks": 112080,
          "time": 116.75,
          "velocity": 0.6299212598425197
        },
        {
          "duration": 0.4739583333333428,
          "durationTicks": 455,
          "midi": 68,
          "name": "G#4",
          "ticks": 112800,
          "time": 117.5,
          "velocity": 0.6299212598425197
        },
        {
          "duration": 1.8989583333333258,
          "durationTicks": 1823,
          "midi": 68,
          "name": "G#4",
          "ticks": 113280,
          "time": 118,
          "velocity": 0.6299212598425197
        },
        {
          "duration": 1.8989583333333258,
          "durationTicks": 1823,
          "midi": 80,
          "name": "G#5",
          "ticks": 113280,
          "time": 118,
          "velocity": 0.6299212598425197
        },
        {
          "duration": 0.3552083333333371,
          "durationTicks": 341,
          "midi": 65,
          "name": "F4",
          "ticks": 115200,
          "time": 120,
          "velocity": 0.6299212598425197
        },
        {
          "duration": 0.3552083333333371,
          "durationTicks": 341,
          "midi": 70,
          "name": "A#4",
          "ticks": 115200,
          "time": 120,
          "velocity": 0.6299212598425197
        },
        {
          "duration": 0.3552083333333371,
          "durationTicks": 341,
          "midi": 77,
          "name": "F5",
          "ticks": 115200,
          "time": 120,
          "velocity": 0.6299212598425197
        },
        {
          "duration": 0.3552083333333371,
          "durationTicks": 341,
          "midi": 65,
          "name": "F4",
          "ticks": 115560,
          "time": 120.375,
          "velocity": 0.6299212598425197
        },
        {
          "duration": 0.3552083333333371,
          "durationTicks": 341,
          "midi": 70,
          "name": "A#4",
          "ticks": 115560,
          "time": 120.375,
          "velocity": 0.6299212598425197
        },
        {
          "duration": 0.3552083333333371,
          "durationTicks": 341,
          "midi": 77,
          "name": "F5",
          "ticks": 115560,
          "time": 120.375,
          "velocity": 0.6299212598425197
        },
        {
          "duration": 0.4739583333333428,
          "durationTicks": 455,
          "midi": 63,
          "name": "D#4",
          "ticks": 115920,
          "time": 120.75,
          "velocity": 0.6299212598425197
        },
        {
          "duration": 0.4739583333333428,
          "durationTicks": 455,
          "midi": 70,
          "name": "A#4",
          "ticks": 115920,
          "time": 120.75,
          "velocity": 0.6299212598425197
        },
        {
          "duration": 0.4739583333333428,
          "durationTicks": 455,
          "midi": 75,
          "name": "D#5",
          "ticks": 115920,
          "time": 120.75,
          "velocity": 0.6299212598425197
        },
        {
          "duration": 0.4739583333333428,
          "durationTicks": 455,
          "midi": 68,
          "name": "G#4",
          "ticks": 116640,
          "time": 121.5,
          "velocity": 0.6299212598425197
        },
        {
          "duration": 0.23645833333333144,
          "durationTicks": 227,
          "midi": 68,
          "name": "G#4",
          "ticks": 117120,
          "time": 122,
          "velocity": 0.6299212598425197
        },
        {
          "duration": 0.23645833333333144,
          "durationTicks": 227,
          "midi": 80,
          "name": "G#5",
          "ticks": 117120,
          "time": 122,
          "velocity": 0.6299212598425197
        },
        {
          "duration": 0.11770833333332575,
          "durationTicks": 113,
          "midi": 68,
          "name": "G#4",
          "ticks": 117360,
          "time": 122.25,
          "velocity": 0.6299212598425197
        },
        {
          "duration": 0.11770833333332575,
          "durationTicks": 113,
          "midi": 70,
          "name": "A#4",
          "ticks": 117480,
          "time": 122.375,
          "velocity": 0.6299212598425197
        },
        {
          "duration": 0.11770833333332575,
          "durationTicks": 113,
          "midi": 73,
          "name": "C#5",
          "ticks": 117600,
          "time": 122.5,
          "velocity": 0.6299212598425197
        },
        {
          "duration": 0.11770833333332575,
          "durationTicks": 113,
          "midi": 70,
          "name": "A#4",
          "ticks": 117720,
          "time": 122.625,
          "velocity": 0.6299212598425197
        },
        {
          "duration": 0.23645833333333144,
          "durationTicks": 227,
          "midi": 77,
          "name": "F5",
          "ticks": 117840,
          "time": 122.75,
          "velocity": 0.6299212598425197
        },
        {
          "duration": 0.11770833333332575,
          "durationTicks": 113,
          "midi": 68,
          "name": "G#4",
          "ticks": 118080,
          "time": 123,
          "velocity": 0.6299212598425197
        },
        {
          "duration": 0.11770833333332575,
          "durationTicks": 113,
          "midi": 70,
          "name": "A#4",
          "ticks": 118200,
          "time": 123.125,
          "velocity": 0.6299212598425197
        },
        {
          "duration": 0.11770833333332575,
          "durationTicks": 113,
          "midi": 73,
          "name": "C#5",
          "ticks": 118320,
          "time": 123.25,
          "velocity": 0.6299212598425197
        },
        {
          "duration": 0.11770833333332575,
          "durationTicks": 113,
          "midi": 70,
          "name": "A#4",
          "ticks": 118440,
          "time": 123.375,
          "velocity": 0.6299212598425197
        },
        {
          "duration": 0.23645833333333144,
          "durationTicks": 227,
          "midi": 77,
          "name": "F5",
          "ticks": 118560,
          "time": 123.5,
          "velocity": 0.6299212598425197
        },
        {
          "duration": 0.23645833333333144,
          "durationTicks": 227,
          "midi": 68,
          "name": "G#4",
          "ticks": 118800,
          "time": 123.75,
          "velocity": 0.6299212598425197
        },
        {
          "duration": 0.3552083333333371,
          "durationTicks": 341,
          "midi": 65,
          "name": "F4",
          "ticks": 119040,
          "time": 124,
          "velocity": 0.6299212598425197
        },
        {
          "duration": 0.3552083333333371,
          "durationTicks": 341,
          "midi": 70,
          "name": "A#4",
          "ticks": 119040,
          "time": 124,
          "velocity": 0.6299212598425197
        },
        {
          "duration": 0.3552083333333371,
          "durationTicks": 341,
          "midi": 77,
          "name": "F5",
          "ticks": 119040,
          "time": 124,
          "velocity": 0.6299212598425197
        },
        {
          "duration": 0.3552083333333371,
          "durationTicks": 341,
          "midi": 65,
          "name": "F4",
          "ticks": 119400,
          "time": 124.375,
          "velocity": 0.6299212598425197
        },
        {
          "duration": 0.3552083333333371,
          "durationTicks": 341,
          "midi": 70,
          "name": "A#4",
          "ticks": 119400,
          "time": 124.375,
          "velocity": 0.6299212598425197
        },
        {
          "duration": 0.3552083333333371,
          "durationTicks": 341,
          "midi": 77,
          "name": "F5",
          "ticks": 119400,
          "time": 124.375,
          "velocity": 0.6299212598425197
        },
        {
          "duration": 0.4739583333333428,
          "durationTicks": 455,
          "midi": 63,
          "name": "D#4",
          "ticks": 119760,
          "time": 124.75,
          "velocity": 0.6299212598425197
        },
        {
          "duration": 0.4739583333333428,
          "durationTicks": 455,
          "midi": 70,
          "name": "A#4",
          "ticks": 119760,
          "time": 124.75,
          "velocity": 0.6299212598425197
        },
        {
          "duration": 0.4739583333333428,
          "durationTicks": 455,
          "midi": 75,
          "name": "D#5",
          "ticks": 119760,
          "time": 124.75,
          "velocity": 0.6299212598425197
        },
        {
          "duration": 0.4739583333333428,
          "durationTicks": 455,
          "midi": 68,
          "name": "G#4",
          "ticks": 120480,
          "time": 125.5,
          "velocity": 0.6299212598425197
        },
        {
          "duration": 0.23645833333333144,
          "durationTicks": 227,
          "midi": 68,
          "name": "G#4",
          "ticks": 120960,
          "time": 126,
          "velocity": 0.6299212598425197
        },
        {
          "duration": 0.23645833333333144,
          "durationTicks": 227,
          "midi": 80,
          "name": "G#5",
          "ticks": 120960,
          "time": 126,
          "velocity": 0.6299212598425197
        },
        {
          "duration": 0.11770833333332575,
          "durationTicks": 113,
          "midi": 68,
          "name": "G#4",
          "ticks": 121200,
          "time": 126.25,
          "velocity": 0.6299212598425197
        },
        {
          "duration": 0.11770833333332575,
          "durationTicks": 113,
          "midi": 70,
          "name": "A#4",
          "ticks": 121320,
          "time": 126.375,
          "velocity": 0.6299212598425197
        },
        {
          "duration": 0.11770833333332575,
          "durationTicks": 113,
          "midi": 73,
          "name": "C#5",
          "ticks": 121440,
          "time": 126.5,
          "velocity": 0.6299212598425197
        },
        {
          "duration": 0.11770833333332575,
          "durationTicks": 113,
          "midi": 70,
          "name": "A#4",
          "ticks": 121560,
          "time": 126.625,
          "velocity": 0.6299212598425197
        },
        {
          "duration": 0.23645833333333144,
          "durationTicks": 227,
          "midi": 77,
          "name": "F5",
          "ticks": 121680,
          "time": 126.75,
          "velocity": 0.6299212598425197
        },
        {
          "duration": 0.11770833333332575,
          "durationTicks": 113,
          "midi": 68,
          "name": "G#4",
          "ticks": 121920,
          "time": 127,
          "velocity": 0.6299212598425197
        },
        {
          "duration": 0.11770833333332575,
          "durationTicks": 113,
          "midi": 70,
          "name": "A#4",
          "ticks": 122040,
          "time": 127.125,
          "velocity": 0.6299212598425197
        },
        {
          "duration": 0.11770833333332575,
          "durationTicks": 113,
          "midi": 73,
          "name": "C#5",
          "ticks": 122160,
          "time": 127.25,
          "velocity": 0.6299212598425197
        },
        {
          "duration": 0.11770833333332575,
          "durationTicks": 113,
          "midi": 70,
          "name": "A#4",
          "ticks": 122280,
          "time": 127.375,
          "velocity": 0.6299212598425197
        },
        {
          "duration": 0.23645833333333144,
          "durationTicks": 227,
          "midi": 77,
          "name": "F5",
          "ticks": 122400,
          "time": 127.5,
          "velocity": 0.6299212598425197
        },
        {
          "duration": 0.23645833333333144,
          "durationTicks": 227,
          "midi": 68,
          "name": "G#4",
          "ticks": 122640,
          "time": 127.75,
          "velocity": 0.6299212598425197
        },
        {
          "duration": 0.3552083333333371,
          "durationTicks": 341,
          "midi": 65,
          "name": "F4",
          "ticks": 122880,
          "time": 128,
          "velocity": 0.6299212598425197
        },
        {
          "duration": 0.3552083333333371,
          "durationTicks": 341,
          "midi": 70,
          "name": "A#4",
          "ticks": 122880,
          "time": 128,
          "velocity": 0.6299212598425197
        },
        {
          "duration": 0.3552083333333371,
          "durationTicks": 341,
          "midi": 77,
          "name": "F5",
          "ticks": 122880,
          "time": 128,
          "velocity": 0.6299212598425197
        },
        {
          "duration": 0.3552083333333371,
          "durationTicks": 341,
          "midi": 65,
          "name": "F4",
          "ticks": 123240,
          "time": 128.375,
          "velocity": 0.6299212598425197
        },
        {
          "duration": 0.3552083333333371,
          "durationTicks": 341,
          "midi": 70,
          "name": "A#4",
          "ticks": 123240,
          "time": 128.375,
          "velocity": 0.6299212598425197
        },
        {
          "duration": 0.3552083333333371,
          "durationTicks": 341,
          "midi": 77,
          "name": "F5",
          "ticks": 123240,
          "time": 128.375,
          "velocity": 0.6299212598425197
        },
        {
          "duration": 0.4739583333333428,
          "durationTicks": 455,
          "midi": 63,
          "name": "D#4",
          "ticks": 123600,
          "time": 128.75,
          "velocity": 0.6299212598425197
        },
        {
          "duration": 0.4739583333333428,
          "durationTicks": 455,
          "midi": 70,
          "name": "A#4",
          "ticks": 123600,
          "time": 128.75,
          "velocity": 0.6299212598425197
        },
        {
          "duration": 0.4739583333333428,
          "durationTicks": 455,
          "midi": 75,
          "name": "D#5",
          "ticks": 123600,
          "time": 128.75,
          "velocity": 0.6299212598425197
        },
        {
          "duration": 0.23645833333333144,
          "durationTicks": 227,
          "midi": 70,
          "name": "A#4",
          "ticks": 125040,
          "time": 130.25,
          "velocity": 0.6299212598425197
        },
        {
          "duration": 0.23645833333333144,
          "durationTicks": 227,
          "midi": 73,
          "name": "C#5",
          "ticks": 125280,
          "time": 130.5,
          "velocity": 0.6299212598425197
        },
        {
          "duration": 0.23645833333333144,
          "durationTicks": 227,
          "midi": 70,
          "name": "A#4",
          "ticks": 125520,
          "time": 130.75,
          "velocity": 0.6299212598425197
        },
        {
          "duration": 0.23645833333333144,
          "durationTicks": 227,
          "midi": 73,
          "name": "C#5",
          "ticks": 125760,
          "time": 131,
          "velocity": 0.6299212598425197
        },
        {
          "duration": 0.9489583333333371,
          "durationTicks": 911,
          "midi": 75,
          "name": "D#5",
          "ticks": 126000,
          "time": 131.25,
          "velocity": 0.6299212598425197
        },
        {
          "duration": 0.23645833333333144,
          "durationTicks": 227,
          "midi": 72,
          "name": "C5",
          "ticks": 126960,
          "time": 132.25,
          "velocity": 0.6299212598425197
        },
        {
          "duration": 0.23645833333333144,
          "durationTicks": 227,
          "midi": 70,
          "name": "A#4",
          "ticks": 127200,
          "time": 132.5,
          "velocity": 0.6299212598425197
        },
        {
          "duration": 0.11770833333332575,
          "durationTicks": 113,
          "midi": 72,
          "name": "C5",
          "ticks": 127440,
          "time": 132.75,
          "velocity": 0.6299212598425197
        },
        {
          "duration": 0.11770833333332575,
          "durationTicks": 113,
          "midi": 70,
          "name": "A#4",
          "ticks": 127560,
          "time": 132.875,
          "velocity": 0.6299212598425197
        },
        {
          "duration": 0.4739583333333428,
          "durationTicks": 455,
          "midi": 68,
          "name": "G#4",
          "ticks": 127680,
          "time": 133,
          "velocity": 0.6299212598425197
        },
        {
          "duration": 0.23645833333333144,
          "durationTicks": 227,
          "midi": 70,
          "name": "A#4",
          "ticks": 128880,
          "time": 134.25,
          "velocity": 0.6299212598425197
        },
        {
          "duration": 0.23645833333333144,
          "durationTicks": 227,
          "midi": 70,
          "name": "A#4",
          "ticks": 129120,
          "time": 134.5,
          "velocity": 0.6299212598425197
        },
        {
          "duration": 0.23645833333333144,
          "durationTicks": 227,
          "midi": 72,
          "name": "C5",
          "ticks": 129360,
          "time": 134.75,
          "velocity": 0.6299212598425197
        },
        {
          "duration": 0.23645833333333144,
          "durationTicks": 227,
          "midi": 73,
          "name": "C#5",
          "ticks": 129600,
          "time": 135,
          "velocity": 0.6299212598425197
        },
        {
          "duration": 0.23645833333333144,
          "durationTicks": 227,
          "midi": 70,
          "name": "A#4",
          "ticks": 129840,
          "time": 135.25,
          "velocity": 0.6299212598425197
        },
        {
          "duration": 0.4739583333333428,
          "durationTicks": 455,
          "midi": 68,
          "name": "G#4",
          "ticks": 130080,
          "time": 135.5,
          "velocity": 0.6299212598425197
        },
        {
          "duration": 0.23645833333333144,
          "durationTicks": 227,
          "midi": 80,
          "name": "G#5",
          "ticks": 130800,
          "time": 136.25,
          "velocity": 0.6299212598425197
        },
        {
          "duration": 0.23645833333333144,
          "durationTicks": 227,
          "midi": 80,
          "name": "G#5",
          "ticks": 131040,
          "time": 136.5,
          "velocity": 0.6299212598425197
        },
        {
          "duration": 0.4739583333333428,
          "durationTicks": 455,
          "midi": 75,
          "name": "D#5",
          "ticks": 131280,
          "time": 136.75,
          "velocity": 0.6299212598425197
        },
        {
          "duration": 0.23645833333333144,
          "durationTicks": 227,
          "midi": 77,
          "name": "F5",
          "ticks": 131760,
          "time": 137.25,
          "velocity": 0.6299212598425197
        },
        {
          "duration": 0.23645833333333144,
          "durationTicks": 227,
          "midi": 75,
          "name": "D#5",
          "ticks": 132000,
          "time": 137.5,
          "velocity": 0.6299212598425197
        },
        {
          "duration": 0.23645833333333144,
          "durationTicks": 227,
          "midi": 73,
          "name": "C#5",
          "ticks": 132240,
          "time": 137.75,
          "velocity": 0.6299212598425197
        },
        {
          "duration": 0.23645833333333144,
          "durationTicks": 227,
          "midi": 70,
          "name": "A#4",
          "ticks": 132720,
          "time": 138.25,
          "velocity": 0.6299212598425197
        },
        {
          "duration": 0.23645833333333144,
          "durationTicks": 227,
          "midi": 73,
          "name": "C#5",
          "ticks": 132960,
          "time": 138.5,
          "velocity": 0.6299212598425197
        },
        {
          "duration": 0.23645833333333144,
          "durationTicks": 227,
          "midi": 70,
          "name": "A#4",
          "ticks": 133200,
          "time": 138.75,
          "velocity": 0.6299212598425197
        },
        {
          "duration": 0.23645833333333144,
          "durationTicks": 227,
          "midi": 73,
          "name": "C#5",
          "ticks": 133440,
          "time": 139,
          "velocity": 0.6299212598425197
        },
        {
          "duration": 0.23645833333333144,
          "durationTicks": 227,
          "midi": 70,
          "name": "A#4",
          "ticks": 133680,
          "time": 139.25,
          "velocity": 0.6299212598425197
        },
        {
          "duration": 0.23645833333333144,
          "durationTicks": 227,
          "midi": 73,
          "name": "C#5",
          "ticks": 133920,
          "time": 139.5,
          "velocity": 0.6299212598425197
        },
        {
          "duration": 0.4739583333333428,
          "durationTicks": 455,
          "midi": 75,
          "name": "D#5",
          "ticks": 134160,
          "time": 139.75,
          "velocity": 0.6299212598425197
        },
        {
          "duration": 0.23645833333333144,
          "durationTicks": 227,
          "midi": 72,
          "name": "C5",
          "ticks": 134640,
          "time": 140.25,
          "velocity": 0.6299212598425197
        },
        {
          "duration": 0.23645833333333144,
          "durationTicks": 227,
          "midi": 70,
          "name": "A#4",
          "ticks": 134880,
          "time": 140.5,
          "velocity": 0.6299212598425197
        },
        {
          "duration": 0.11770833333332575,
          "durationTicks": 113,
          "midi": 72,
          "name": "C5",
          "ticks": 135120,
          "time": 140.75,
          "velocity": 0.6299212598425197
        },
        {
          "duration": 0.11770833333332575,
          "durationTicks": 113,
          "midi": 70,
          "name": "A#4",
          "ticks": 135240,
          "time": 140.875,
          "velocity": 0.6299212598425197
        },
        {
          "duration": 0.4739583333333428,
          "durationTicks": 455,
          "midi": 68,
          "name": "G#4",
          "ticks": 135360,
          "time": 141,
          "velocity": 0.6299212598425197
        },
        {
          "duration": 0.23645833333333144,
          "durationTicks": 227,
          "midi": 70,
          "name": "A#4",
          "ticks": 136560,
          "time": 142.25,
          "velocity": 0.6299212598425197
        },
        {
          "duration": 0.23645833333333144,
          "durationTicks": 227,
          "midi": 70,
          "name": "A#4",
          "ticks": 136800,
          "time": 142.5,
          "velocity": 0.6299212598425197
        },
        {
          "duration": 0.23645833333333144,
          "durationTicks": 227,
          "midi": 72,
          "name": "C5",
          "ticks": 137040,
          "time": 142.75,
          "velocity": 0.6299212598425197
        },
        {
          "duration": 0.23645833333333144,
          "durationTicks": 227,
          "midi": 73,
          "name": "C#5",
          "ticks": 137280,
          "time": 143,
          "velocity": 0.6299212598425197
        },
        {
          "duration": 0.23645833333333144,
          "durationTicks": 227,
          "midi": 70,
          "name": "A#4",
          "ticks": 137520,
          "time": 143.25,
          "velocity": 0.6299212598425197
        },
        {
          "duration": 0.4739583333333428,
          "durationTicks": 455,
          "midi": 68,
          "name": "G#4",
          "ticks": 137760,
          "time": 143.5,
          "velocity": 0.6299212598425197
        },
        {
          "duration": 0.23645833333333144,
          "durationTicks": 227,
          "midi": 75,
          "name": "D#5",
          "ticks": 138480,
          "time": 144.25,
          "velocity": 0.6299212598425197
        },
        {
          "duration": 0.23645833333333144,
          "durationTicks": 227,
          "midi": 77,
          "name": "F5",
          "ticks": 138720,
          "time": 144.5,
          "velocity": 0.6299212598425197
        },
        {
          "duration": 0.4739583333333428,
          "durationTicks": 455,
          "midi": 77,
          "name": "F5",
          "ticks": 138960,
          "time": 144.75,
          "velocity": 0.6299212598425197
        },
        {
          "duration": 0.4739583333333428,
          "durationTicks": 455,
          "midi": 75,
          "name": "D#5",
          "ticks": 139440,
          "time": 145.25,
          "velocity": 0.6299212598425197
        },
        {
          "duration": 0.9489583333333371,
          "durationTicks": 911,
          "midi": 73,
          "name": "C#5",
          "ticks": 140160,
          "time": 146,
          "velocity": 0.6299212598425197
        },
        {
          "duration": 0.23645833333333144,
          "durationTicks": 227,
          "midi": 75,
          "name": "D#5",
          "ticks": 141360,
          "time": 147.25,
          "velocity": 0.6299212598425197
        },
        {
          "duration": 0.23645833333333144,
          "durationTicks": 227,
          "midi": 77,
          "name": "F5",
          "ticks": 141600,
          "time": 147.5,
          "velocity": 0.6299212598425197
        },
        {
          "duration": 0.23645833333333144,
          "durationTicks": 227,
          "midi": 73,
          "name": "C#5",
          "ticks": 141840,
          "time": 147.75,
          "velocity": 0.6299212598425197
        },
        {
          "duration": 0.23645833333333144,
          "durationTicks": 227,
          "midi": 75,
          "name": "D#5",
          "ticks": 142080,
          "time": 148,
          "velocity": 0.6299212598425197
        },
        {
          "duration": 0.23645833333333144,
          "durationTicks": 227,
          "midi": 75,
          "name": "D#5",
          "ticks": 142320,
          "time": 148.25,
          "velocity": 0.6299212598425197
        },
        {
          "duration": 0.23645833333333144,
          "durationTicks": 227,
          "midi": 75,
          "name": "D#5",
          "ticks": 142560,
          "time": 148.5,
          "velocity": 0.6299212598425197
        },
        {
          "duration": 0.23645833333333144,
          "durationTicks": 227,
          "midi": 77,
          "name": "F5",
          "ticks": 142800,
          "time": 148.75,
          "velocity": 0.6299212598425197
        },
        {
          "duration": 0.4739583333333428,
          "durationTicks": 455,
          "midi": 75,
          "name": "D#5",
          "ticks": 143040,
          "time": 149,
          "velocity": 0.6299212598425197
        },
        {
          "duration": 0.4739583333333428,
          "durationTicks": 455,
          "midi": 68,
          "name": "G#4",
          "ticks": 143520,
          "time": 149.5,
          "velocity": 0.6299212598425197
        },
        {
          "duration": 0.23645833333333144,
          "durationTicks": 227,
          "midi": 70,
          "name": "A#4",
          "ticks": 144960,
          "time": 151,
          "velocity": 0.6299212598425197
        },
        {
          "duration": 0.23645833333333144,
          "durationTicks": 227,
          "midi": 72,
          "name": "C5",
          "ticks": 145200,
          "time": 151.25,
          "velocity": 0.6299212598425197
        },
        {
          "duration": 0.23645833333333144,
          "durationTicks": 227,
          "midi": 73,
          "name": "C#5",
          "ticks": 145440,
          "time": 151.5,
          "velocity": 0.6299212598425197
        },
        {
          "duration": 0.4739583333333428,
          "durationTicks": 455,
          "midi": 70,
          "name": "A#4",
          "ticks": 145680,
          "time": 151.75,
          "velocity": 0.6299212598425197
        },
        {
          "duration": 0.23645833333333144,
          "durationTicks": 227,
          "midi": 75,
          "name": "D#5",
          "ticks": 146160,
          "time": 152.25,
          "velocity": 0.6614173228346457
        },
        {
          "duration": 0.23645833333333144,
          "durationTicks": 227,
          "midi": 77,
          "name": "F5",
          "ticks": 146400,
          "time": 152.5,
          "velocity": 0.6929133858267716
        },
        {
          "duration": 0.4739583333333428,
          "durationTicks": 455,
          "midi": 75,
          "name": "D#5",
          "ticks": 146640,
          "time": 152.75,
          "velocity": 0.7244094488188977
        },
        {
          "duration": 0.11770833333332575,
          "durationTicks": 113,
          "midi": 68,
          "name": "G#4",
          "ticks": 147360,
          "time": 153.5,
          "velocity": 0.8188976377952756
        },
        {
          "duration": 0.11770833333332575,
          "durationTicks": 113,
          "midi": 70,
          "name": "A#4",
          "ticks": 147480,
          "time": 153.625,
          "velocity": 0.8346456692913385
        },
        {
          "duration": 0.11770833333332575,
          "durationTicks": 113,
          "midi": 73,
          "name": "C#5",
          "ticks": 147600,
          "time": 153.75,
          "velocity": 0.8503937007874016
        },
        {
          "duration": 0.11770833333332575,
          "durationTicks": 113,
          "midi": 70,
          "name": "A#4",
          "ticks": 147720,
          "time": 153.875,
          "velocity": 0.8661417322834646
        },
        {
          "duration": 0.3552083333333371,
          "durationTicks": 341,
          "midi": 65,
          "name": "F4",
          "ticks": 147840,
          "time": 154,
          "velocity": 0.8818897637795275
        },
        {
          "duration": 0.3552083333333371,
          "durationTicks": 341,
          "midi": 70,
          "name": "A#4",
          "ticks": 147840,
          "time": 154,
          "velocity": 0.8818897637795275
        },
        {
          "duration": 0.3552083333333371,
          "durationTicks": 341,
          "midi": 73,
          "name": "C#5",
          "ticks": 147840,
          "time": 154,
          "velocity": 0.8818897637795275
        },
        {
          "duration": 0.3552083333333371,
          "durationTicks": 341,
          "midi": 77,
          "name": "F5",
          "ticks": 147840,
          "time": 154,
          "velocity": 0.8818897637795275
        },
        {
          "duration": 0.3552083333333371,
          "durationTicks": 341,
          "midi": 65,
          "name": "F4",
          "ticks": 148200,
          "time": 154.375,
          "velocity": 0.8818897637795275
        },
        {
          "duration": 0.3552083333333371,
          "durationTicks": 341,
          "midi": 70,
          "name": "A#4",
          "ticks": 148200,
          "time": 154.375,
          "velocity": 0.8818897637795275
        },
        {
          "duration": 0.3552083333333371,
          "durationTicks": 341,
          "midi": 73,
          "name": "C#5",
          "ticks": 148200,
          "time": 154.375,
          "velocity": 0.8818897637795275
        },
        {
          "duration": 0.3552083333333371,
          "durationTicks": 341,
          "midi": 77,
          "name": "F5",
          "ticks": 148200,
          "time": 154.375,
          "velocity": 0.8818897637795275
        },
        {
          "duration": 0.4739583333333428,
          "durationTicks": 455,
          "midi": 63,
          "name": "D#4",
          "ticks": 148560,
          "time": 154.75,
          "velocity": 0.8818897637795275
        },
        {
          "duration": 0.4739583333333428,
          "durationTicks": 455,
          "midi": 68,
          "name": "G#4",
          "ticks": 148560,
          "time": 154.75,
          "velocity": 0.8818897637795275
        },
        {
          "duration": 0.4739583333333428,
          "durationTicks": 455,
          "midi": 72,
          "name": "C5",
          "ticks": 148560,
          "time": 154.75,
          "velocity": 0.8818897637795275
        },
        {
          "duration": 0.4739583333333428,
          "durationTicks": 455,
          "midi": 75,
          "name": "D#5",
          "ticks": 148560,
          "time": 154.75,
          "velocity": 0.8818897637795275
        },
        {
          "duration": 0.11770833333332575,
          "durationTicks": 113,
          "midi": 68,
          "name": "G#4",
          "ticks": 149280,
          "time": 155.5,
          "velocity": 0.8818897637795275
        },
        {
          "duration": 0.11770833333332575,
          "durationTicks": 113,
          "midi": 70,
          "name": "A#4",
          "ticks": 149400,
          "time": 155.625,
          "velocity": 0.8818897637795275
        },
        {
          "duration": 0.11770833333332575,
          "durationTicks": 113,
          "midi": 73,
          "name": "C#5",
          "ticks": 149520,
          "time": 155.75,
          "velocity": 0.8818897637795275
        },
        {
          "duration": 0.11770833333332575,
          "durationTicks": 113,
          "midi": 70,
          "name": "A#4",
          "ticks": 149640,
          "time": 155.875,
          "velocity": 0.8818897637795275
        },
        {
          "duration": 0.3552083333333371,
          "durationTicks": 341,
          "midi": 63,
          "name": "D#4",
          "ticks": 149760,
          "time": 156,
          "velocity": 0.8818897637795275
        },
        {
          "duration": 0.3552083333333371,
          "durationTicks": 341,
          "midi": 68,
          "name": "G#4",
          "ticks": 149760,
          "time": 156,
          "velocity": 0.8818897637795275
        },
        {
          "duration": 0.3552083333333371,
          "durationTicks": 341,
          "midi": 72,
          "name": "C5",
          "ticks": 149760,
          "time": 156,
          "velocity": 0.8818897637795275
        },
        {
          "duration": 0.3552083333333371,
          "durationTicks": 341,
          "midi": 75,
          "name": "D#5",
          "ticks": 149760,
          "time": 156,
          "velocity": 0.8818897637795275
        },
        {
          "duration": 0.3552083333333371,
          "durationTicks": 341,
          "midi": 63,
          "name": "D#4",
          "ticks": 150120,
          "time": 156.375,
          "velocity": 0.8818897637795275
        },
        {
          "duration": 0.3552083333333371,
          "durationTicks": 341,
          "midi": 68,
          "name": "G#4",
          "ticks": 150120,
          "time": 156.375,
          "velocity": 0.8818897637795275
        },
        {
          "duration": 0.3552083333333371,
          "durationTicks": 341,
          "midi": 72,
          "name": "C5",
          "ticks": 150120,
          "time": 156.375,
          "velocity": 0.8818897637795275
        },
        {
          "duration": 0.3552083333333371,
          "durationTicks": 341,
          "midi": 75,
          "name": "D#5",
          "ticks": 150120,
          "time": 156.375,
          "velocity": 0.8818897637795275
        },
        {
          "duration": 0.3552083333333371,
          "durationTicks": 341,
          "midi": 61,
          "name": "C#4",
          "ticks": 150480,
          "time": 156.75,
          "velocity": 0.8818897637795275
        },
        {
          "duration": 0.3552083333333371,
          "durationTicks": 341,
          "midi": 65,
          "name": "F4",
          "ticks": 150480,
          "time": 156.75,
          "velocity": 0.8818897637795275
        },
        {
          "duration": 0.3552083333333371,
          "durationTicks": 341,
          "midi": 70,
          "name": "A#4",
          "ticks": 150480,
          "time": 156.75,
          "velocity": 0.8818897637795275
        },
        {
          "duration": 0.3552083333333371,
          "durationTicks": 341,
          "midi": 73,
          "name": "C#5",
          "ticks": 150480,
          "time": 156.75,
          "velocity": 0.8818897637795275
        },
        {
          "duration": 0.11770833333332575,
          "durationTicks": 113,
          "midi": 72,
          "name": "C5",
          "ticks": 150840,
          "time": 157.125,
          "velocity": 0.8818897637795275
        },
        {
          "duration": 0.23645833333333144,
          "durationTicks": 227,
          "midi": 70,
          "name": "A#4",
          "ticks": 150960,
          "time": 157.25,
          "velocity": 0.8818897637795275
        },
        {
          "duration": 0.11770833333332575,
          "durationTicks": 113,
          "midi": 68,
          "name": "G#4",
          "ticks": 151200,
          "time": 157.5,
          "velocity": 0.8818897637795275
        },
        {
          "duration": 0.11770833333332575,
          "durationTicks": 113,
          "midi": 70,
          "name": "A#4",
          "ticks": 151320,
          "time": 157.625,
          "velocity": 0.8818897637795275
        },
        {
          "duration": 0.11770833333332575,
          "durationTicks": 113,
          "midi": 73,
          "name": "C#5",
          "ticks": 151440,
          "time": 157.75,
          "velocity": 0.8818897637795275
        },
        {
          "duration": 0.11770833333332575,
          "durationTicks": 113,
          "midi": 70,
          "name": "A#4",
          "ticks": 151560,
          "time": 157.875,
          "velocity": 0.8818897637795275
        },
        {
          "duration": 0.4739583333333428,
          "durationTicks": 455,
          "midi": 61,
          "name": "C#4",
          "ticks": 151680,
          "time": 158,
          "velocity": 0.8818897637795275
        },
        {
          "duration": 0.4739583333333428,
          "durationTicks": 455,
          "midi": 65,
          "name": "F4",
          "ticks": 151680,
          "time": 158,
          "velocity": 0.8818897637795275
        },
        {
          "duration": 0.4739583333333428,
          "durationTicks": 455,
          "midi": 70,
          "name": "A#4",
          "ticks": 151680,
          "time": 158,
          "velocity": 0.8818897637795275
        },
        {
          "duration": 0.4739583333333428,
          "durationTicks": 455,
          "midi": 73,
          "name": "C#5",
          "ticks": 151680,
          "time": 158,
          "velocity": 0.8818897637795275
        },
        {
          "duration": 0.23645833333333144,
          "durationTicks": 227,
          "midi": 65,
          "name": "F4",
          "ticks": 152160,
          "time": 158.5,
          "velocity": 0.8818897637795275
        },
        {
          "duration": 0.23645833333333144,
          "durationTicks": 227,
          "midi": 70,
          "name": "A#4",
          "ticks": 152160,
          "time": 158.5,
          "velocity": 0.8818897637795275
        },
        {
          "duration": 0.23645833333333144,
          "durationTicks": 227,
          "midi": 75,
          "name": "D#5",
          "ticks": 152160,
          "time": 158.5,
          "velocity": 0.8818897637795275
        },
        {
          "duration": 0.05833333333333712,
          "durationTicks": 56,
          "midi": 70,
          "name": "A#4",
          "ticks": 152400,
          "time": 158.75,
          "velocity": 0.8818897637795275
        },
        {
          "duration": 0.2958333333333485,
          "durationTicks": 284,
          "midi": 60,
          "name": "C4",
          "ticks": 152460,
          "time": 158.8125,
          "velocity": 0.8818897637795275
        },
        {
          "duration": 0.2958333333333485,
          "durationTicks": 284,
          "midi": 63,
          "name": "D#4",
          "ticks": 152460,
          "time": 158.8125,
          "velocity": 0.8818897637795275
        },
        {
          "duration": 0.2958333333333485,
          "durationTicks": 284,
          "midi": 68,
          "name": "G#4",
          "ticks": 152460,
          "time": 158.8125,
          "velocity": 0.8818897637795275
        },
        {
          "duration": 0.2958333333333485,
          "durationTicks": 284,
          "midi": 72,
          "name": "C5",
          "ticks": 152460,
          "time": 158.8125,
          "velocity": 0.8818897637795275
        },
        {
          "duration": 0.11770833333332575,
          "durationTicks": 113,
          "midi": 70,
          "name": "A#4",
          "ticks": 152760,
          "time": 159.125,
          "velocity": 0.8818897637795275
        },
        {
          "duration": 0.4739583333333428,
          "durationTicks": 455,
          "midi": 68,
          "name": "G#4",
          "ticks": 152880,
          "time": 159.25,
          "velocity": 0.8818897637795275
        },
        {
          "duration": 0.23645833333333144,
          "durationTicks": 227,
          "midi": 68,
          "name": "G#4",
          "ticks": 153360,
          "time": 159.75,
          "velocity": 0.8818897637795275
        },
        {
          "duration": 0.4739583333333428,
          "durationTicks": 455,
          "midi": 63,
          "name": "D#4",
          "ticks": 153600,
          "time": 160,
          "velocity": 0.8818897637795275
        },
        {
          "duration": 0.4739583333333428,
          "durationTicks": 455,
          "midi": 68,
          "name": "G#4",
          "ticks": 153600,
          "time": 160,
          "velocity": 0.8818897637795275
        },
        {
          "duration": 0.4739583333333428,
          "durationTicks": 455,
          "midi": 72,
          "name": "C5",
          "ticks": 153600,
          "time": 160,
          "velocity": 0.8818897637795275
        },
        {
          "duration": 0.4739583333333428,
          "durationTicks": 455,
          "midi": 75,
          "name": "D#5",
          "ticks": 153600,
          "time": 160,
          "velocity": 0.8818897637795275
        },
        {
          "duration": 0.4739583333333428,
          "durationTicks": 455,
          "midi": 61,
          "name": "C#4",
          "ticks": 154080,
          "time": 160.5,
          "velocity": 0.8818897637795275
        },
        {
          "duration": 0.4739583333333428,
          "durationTicks": 455,
          "midi": 65,
          "name": "F4",
          "ticks": 154080,
          "time": 160.5,
          "velocity": 0.8818897637795275
        },
        {
          "duration": 0.4739583333333428,
          "durationTicks": 455,
          "midi": 70,
          "name": "A#4",
          "ticks": 154080,
          "time": 160.5,
          "velocity": 0.8818897637795275
        },
        {
          "duration": 0.4739583333333428,
          "durationTicks": 455,
          "midi": 73,
          "name": "C#5",
          "ticks": 154080,
          "time": 160.5,
          "velocity": 0.8818897637795275
        },
        {
          "duration": 0.11770833333332575,
          "durationTicks": 113,
          "midi": 68,
          "name": "G#4",
          "ticks": 155040,
          "time": 161.5,
          "velocity": 0.8818897637795275
        },
        {
          "duration": 0.11770833333332575,
          "durationTicks": 113,
          "midi": 70,
          "name": "A#4",
          "ticks": 155160,
          "time": 161.625,
          "velocity": 0.8818897637795275
        },
        {
          "duration": 0.11770833333332575,
          "durationTicks": 113,
          "midi": 73,
          "name": "C#5",
          "ticks": 155280,
          "time": 161.75,
          "velocity": 0.8818897637795275
        },
        {
          "duration": 0.11770833333332575,
          "durationTicks": 113,
          "midi": 70,
          "name": "A#4",
          "ticks": 155400,
          "time": 161.875,
          "velocity": 0.8818897637795275
        },
        {
          "duration": 0.3552083333333371,
          "durationTicks": 341,
          "midi": 65,
          "name": "F4",
          "ticks": 155520,
          "time": 162,
          "velocity": 0.8818897637795275
        },
        {
          "duration": 0.3552083333333371,
          "durationTicks": 341,
          "midi": 70,
          "name": "A#4",
          "ticks": 155520,
          "time": 162,
          "velocity": 0.8818897637795275
        },
        {
          "duration": 0.3552083333333371,
          "durationTicks": 341,
          "midi": 73,
          "name": "C#5",
          "ticks": 155520,
          "time": 162,
          "velocity": 0.8818897637795275
        },
        {
          "duration": 0.3552083333333371,
          "durationTicks": 341,
          "midi": 77,
          "name": "F5",
          "ticks": 155520,
          "time": 162,
          "velocity": 0.8818897637795275
        },
        {
          "duration": 0.3552083333333371,
          "durationTicks": 341,
          "midi": 65,
          "name": "F4",
          "ticks": 155880,
          "time": 162.375,
          "velocity": 0.8818897637795275
        },
        {
          "duration": 0.3552083333333371,
          "durationTicks": 341,
          "midi": 70,
          "name": "A#4",
          "ticks": 155880,
          "time": 162.375,
          "velocity": 0.8818897637795275
        },
        {
          "duration": 0.3552083333333371,
          "durationTicks": 341,
          "midi": 73,
          "name": "C#5",
          "ticks": 155880,
          "time": 162.375,
          "velocity": 0.8818897637795275
        },
        {
          "duration": 0.3552083333333371,
          "durationTicks": 341,
          "midi": 77,
          "name": "F5",
          "ticks": 155880,
          "time": 162.375,
          "velocity": 0.8818897637795275
        },
        {
          "duration": 0.4739583333333144,
          "durationTicks": 455,
          "midi": 63,
          "name": "D#4",
          "ticks": 156240,
          "time": 162.75,
          "velocity": 0.8818897637795275
        },
        {
          "duration": 0.4739583333333144,
          "durationTicks": 455,
          "midi": 68,
          "name": "G#4",
          "ticks": 156240,
          "time": 162.75,
          "velocity": 0.8818897637795275
        },
        {
          "duration": 0.4739583333333144,
          "durationTicks": 455,
          "midi": 72,
          "name": "C5",
          "ticks": 156240,
          "time": 162.75,
          "velocity": 0.8818897637795275
        },
        {
          "duration": 0.4739583333333144,
          "durationTicks": 455,
          "midi": 75,
          "name": "D#5",
          "ticks": 156240,
          "time": 162.75,
          "velocity": 0.8818897637795275
        },
        {
          "duration": 0.11770833333332575,
          "durationTicks": 113,
          "midi": 68,
          "name": "G#4",
          "ticks": 156960,
          "time": 163.5,
          "velocity": 0.8818897637795275
        },
        {
          "duration": 0.11770833333332575,
          "durationTicks": 113,
          "midi": 70,
          "name": "A#4",
          "ticks": 157080,
          "time": 163.625,
          "velocity": 0.8818897637795275
        },
        {
          "duration": 0.11770833333332575,
          "durationTicks": 113,
          "midi": 73,
          "name": "C#5",
          "ticks": 157200,
          "time": 163.75,
          "velocity": 0.8818897637795275
        },
        {
          "duration": 0.11770833333332575,
          "durationTicks": 113,
          "midi": 70,
          "name": "A#4",
          "ticks": 157320,
          "time": 163.875,
          "velocity": 0.8818897637795275
        },
        {
          "duration": 0.4739583333333144,
          "durationTicks": 455,
          "midi": 68,
          "name": "G#4",
          "ticks": 157440,
          "time": 164,
          "velocity": 0.8818897637795275
        },
        {
          "duration": 0.4739583333333144,
          "durationTicks": 455,
          "midi": 72,
          "name": "C5",
          "ticks": 157440,
          "time": 164,
          "velocity": 0.8818897637795275
        },
        {
          "duration": 0.4739583333333144,
          "durationTicks": 455,
          "midi": 77,
          "name": "F5",
          "ticks": 157440,
          "time": 164,
          "velocity": 0.8818897637795275
        },
        {
          "duration": 0.4739583333333144,
          "durationTicks": 455,
          "midi": 80,
          "name": "G#5",
          "ticks": 157440,
          "time": 164,
          "velocity": 0.8818897637795275
        },
        {
          "duration": 0.23645833333333144,
          "durationTicks": 227,
          "midi": 72,
          "name": "C5",
          "ticks": 157920,
          "time": 164.5,
          "velocity": 0.8818897637795275
        },
        {
          "duration": 0.3552083333333371,
          "durationTicks": 341,
          "midi": 61,
          "name": "C#4",
          "ticks": 158160,
          "time": 164.75,
          "velocity": 0.8818897637795275
        },
        {
          "duration": 0.3552083333333371,
          "durationTicks": 341,
          "midi": 65,
          "name": "F4",
          "ticks": 158160,
          "time": 164.75,
          "velocity": 0.8818897637795275
        },
        {
          "duration": 0.3552083333333371,
          "durationTicks": 341,
          "midi": 70,
          "name": "A#4",
          "ticks": 158160,
          "time": 164.75,
          "velocity": 0.8818897637795275
        },
        {
          "duration": 0.3552083333333371,
          "durationTicks": 341,
          "midi": 73,
          "name": "C#5",
          "ticks": 158160,
          "time": 164.75,
          "velocity": 0.8818897637795275
        },
        {
          "duration": 0.11770833333332575,
          "durationTicks": 113,
          "midi": 72,
          "name": "C5",
          "ticks": 158520,
          "time": 165.125,
          "velocity": 0.8818897637795275
        },
        {
          "duration": 0.23645833333333144,
          "durationTicks": 227,
          "midi": 70,
          "name": "A#4",
          "ticks": 158640,
          "time": 165.25,
          "velocity": 0.8818897637795275
        },
        {
          "duration": 0.11770833333332575,
          "durationTicks": 113,
          "midi": 68,
          "name": "G#4",
          "ticks": 158880,
          "time": 165.5,
          "velocity": 0.8818897637795275
        },
        {
          "duration": 0.11770833333332575,
          "durationTicks": 113,
          "midi": 70,
          "name": "A#4",
          "ticks": 159000,
          "time": 165.625,
          "velocity": 0.8818897637795275
        },
        {
          "duration": 0.11770833333332575,
          "durationTicks": 113,
          "midi": 73,
          "name": "C#5",
          "ticks": 159120,
          "time": 165.75,
          "velocity": 0.8818897637795275
        },
        {
          "duration": 0.11770833333332575,
          "durationTicks": 113,
          "midi": 70,
          "name": "A#4",
          "ticks": 159240,
          "time": 165.875,
          "velocity": 0.8818897637795275
        },
        {
          "duration": 0.4739583333333144,
          "durationTicks": 455,
          "midi": 61,
          "name": "C#4",
          "ticks": 159360,
          "time": 166,
          "velocity": 0.8818897637795275
        },
        {
          "duration": 0.4739583333333144,
          "durationTicks": 455,
          "midi": 65,
          "name": "F4",
          "ticks": 159360,
          "time": 166,
          "velocity": 0.8818897637795275
        },
        {
          "duration": 0.4739583333333144,
          "durationTicks": 455,
          "midi": 70,
          "name": "A#4",
          "ticks": 159360,
          "time": 166,
          "velocity": 0.8818897637795275
        },
        {
          "duration": 0.4739583333333144,
          "durationTicks": 455,
          "midi": 73,
          "name": "C#5",
          "ticks": 159360,
          "time": 166,
          "velocity": 0.8818897637795275
        },
        {
          "duration": 0.23645833333333144,
          "durationTicks": 227,
          "midi": 65,
          "name": "F4",
          "ticks": 159840,
          "time": 166.5,
          "velocity": 0.8818897637795275
        },
        {
          "duration": 0.23645833333333144,
          "durationTicks": 227,
          "midi": 70,
          "name": "A#4",
          "ticks": 159840,
          "time": 166.5,
          "velocity": 0.8818897637795275
        },
        {
          "duration": 0.23645833333333144,
          "durationTicks": 227,
          "midi": 75,
          "name": "D#5",
          "ticks": 159840,
          "time": 166.5,
          "velocity": 0.8818897637795275
        },
        {
          "duration": 0.05833333333333712,
          "durationTicks": 56,
          "midi": 70,
          "name": "A#4",
          "ticks": 160080,
          "time": 166.75,
          "velocity": 0.8818897637795275
        },
        {
          "duration": 0.2958333333333485,
          "durationTicks": 284,
          "midi": 60,
          "name": "C4",
          "ticks": 160140,
          "time": 166.8125,
          "velocity": 0.8818897637795275
        },
        {
          "duration": 0.2958333333333485,
          "durationTicks": 284,
          "midi": 63,
          "name": "D#4",
          "ticks": 160140,
          "time": 166.8125,
          "velocity": 0.8818897637795275
        },
        {
          "duration": 0.2958333333333485,
          "durationTicks": 284,
          "midi": 68,
          "name": "G#4",
          "ticks": 160140,
          "time": 166.8125,
          "velocity": 0.8818897637795275
        },
        {
          "duration": 0.2958333333333485,
          "durationTicks": 284,
          "midi": 72,
          "name": "C5",
          "ticks": 160140,
          "time": 166.8125,
          "velocity": 0.8818897637795275
        },
        {
          "duration": 0.11770833333332575,
          "durationTicks": 113,
          "midi": 70,
          "name": "A#4",
          "ticks": 160440,
          "time": 167.125,
          "velocity": 0.8818897637795275
        },
        {
          "duration": 0.4739583333333144,
          "durationTicks": 455,
          "midi": 68,
          "name": "G#4",
          "ticks": 160560,
          "time": 167.25,
          "velocity": 0.8818897637795275
        },
        {
          "duration": 0.23645833333333144,
          "durationTicks": 227,
          "midi": 68,
          "name": "G#4",
          "ticks": 161040,
          "time": 167.75,
          "velocity": 0.8818897637795275
        },
        {
          "duration": 0.4739583333333144,
          "durationTicks": 455,
          "midi": 63,
          "name": "D#4",
          "ticks": 161280,
          "time": 168,
          "velocity": 0.8818897637795275
        },
        {
          "duration": 0.4739583333333144,
          "durationTicks": 455,
          "midi": 68,
          "name": "G#4",
          "ticks": 161280,
          "time": 168,
          "velocity": 0.8818897637795275
        },
        {
          "duration": 0.4739583333333144,
          "durationTicks": 455,
          "midi": 72,
          "name": "C5",
          "ticks": 161280,
          "time": 168,
          "velocity": 0.8818897637795275
        },
        {
          "duration": 0.4739583333333144,
          "durationTicks": 455,
          "midi": 75,
          "name": "D#5",
          "ticks": 161280,
          "time": 168,
          "velocity": 0.8818897637795275
        },
        {
          "duration": 0.4739583333333144,
          "durationTicks": 455,
          "midi": 61,
          "name": "C#4",
          "ticks": 161760,
          "time": 168.5,
          "velocity": 0.8818897637795275
        },
        {
          "duration": 0.4739583333333144,
          "durationTicks": 455,
          "midi": 65,
          "name": "F4",
          "ticks": 161760,
          "time": 168.5,
          "velocity": 0.8818897637795275
        },
        {
          "duration": 0.4739583333333144,
          "durationTicks": 455,
          "midi": 70,
          "name": "A#4",
          "ticks": 161760,
          "time": 168.5,
          "velocity": 0.8818897637795275
        },
        {
          "duration": 0.4739583333333144,
          "durationTicks": 455,
          "midi": 73,
          "name": "C#5",
          "ticks": 161760,
          "time": 168.5,
          "velocity": 0.8818897637795275
        },
        {
          "duration": 0.11770833333332575,
          "durationTicks": 113,
          "midi": 68,
          "name": "G#4",
          "ticks": 162720,
          "time": 169.5,
          "velocity": 0.8818897637795275
        },
        {
          "duration": 0.11770833333332575,
          "durationTicks": 113,
          "midi": 70,
          "name": "A#4",
          "ticks": 162840,
          "time": 169.625,
          "velocity": 0.8818897637795275
        },
        {
          "duration": 0.11770833333332575,
          "durationTicks": 113,
          "midi": 73,
          "name": "C#5",
          "ticks": 162960,
          "time": 169.75,
          "velocity": 0.8818897637795275
        },
        {
          "duration": 0.11770833333332575,
          "durationTicks": 113,
          "midi": 70,
          "name": "A#4",
          "ticks": 163080,
          "time": 169.875,
          "velocity": 0.8818897637795275
        },
        {
          "duration": 0.3552083333333371,
          "durationTicks": 341,
          "midi": 65,
          "name": "F4",
          "ticks": 163200,
          "time": 170,
          "velocity": 0.8818897637795275
        },
        {
          "duration": 0.3552083333333371,
          "durationTicks": 341,
          "midi": 70,
          "name": "A#4",
          "ticks": 163200,
          "time": 170,
          "velocity": 0.8818897637795275
        },
        {
          "duration": 0.3552083333333371,
          "durationTicks": 341,
          "midi": 73,
          "name": "C#5",
          "ticks": 163200,
          "time": 170,
          "velocity": 0.8818897637795275
        },
        {
          "duration": 0.3552083333333371,
          "durationTicks": 341,
          "midi": 77,
          "name": "F5",
          "ticks": 163200,
          "time": 170,
          "velocity": 0.8818897637795275
        },
        {
          "duration": 0.3552083333333371,
          "durationTicks": 341,
          "midi": 65,
          "name": "F4",
          "ticks": 163560,
          "time": 170.375,
          "velocity": 0.8818897637795275
        },
        {
          "duration": 0.3552083333333371,
          "durationTicks": 341,
          "midi": 70,
          "name": "A#4",
          "ticks": 163560,
          "time": 170.375,
          "velocity": 0.8818897637795275
        },
        {
          "duration": 0.3552083333333371,
          "durationTicks": 341,
          "midi": 73,
          "name": "C#5",
          "ticks": 163560,
          "time": 170.375,
          "velocity": 0.8818897637795275
        },
        {
          "duration": 0.3552083333333371,
          "durationTicks": 341,
          "midi": 77,
          "name": "F5",
          "ticks": 163560,
          "time": 170.375,
          "velocity": 0.8818897637795275
        },
        {
          "duration": 0.4739583333333144,
          "durationTicks": 455,
          "midi": 63,
          "name": "D#4",
          "ticks": 163920,
          "time": 170.75,
          "velocity": 0.8818897637795275
        },
        {
          "duration": 0.4739583333333144,
          "durationTicks": 455,
          "midi": 68,
          "name": "G#4",
          "ticks": 163920,
          "time": 170.75,
          "velocity": 0.8818897637795275
        },
        {
          "duration": 0.4739583333333144,
          "durationTicks": 455,
          "midi": 72,
          "name": "C5",
          "ticks": 163920,
          "time": 170.75,
          "velocity": 0.8818897637795275
        },
        {
          "duration": 0.4739583333333144,
          "durationTicks": 455,
          "midi": 75,
          "name": "D#5",
          "ticks": 163920,
          "time": 170.75,
          "velocity": 0.8818897637795275
        },
        {
          "duration": 0.11770833333332575,
          "durationTicks": 113,
          "midi": 68,
          "name": "G#4",
          "ticks": 164640,
          "time": 171.5,
          "velocity": 0.8818897637795275
        },
        {
          "duration": 0.11770833333332575,
          "durationTicks": 113,
          "midi": 70,
          "name": "A#4",
          "ticks": 164760,
          "time": 171.625,
          "velocity": 0.8818897637795275
        },
        {
          "duration": 0.11770833333332575,
          "durationTicks": 113,
          "midi": 73,
          "name": "C#5",
          "ticks": 164880,
          "time": 171.75,
          "velocity": 0.8818897637795275
        },
        {
          "duration": 0.11770833333332575,
          "durationTicks": 113,
          "midi": 70,
          "name": "A#4",
          "ticks": 165000,
          "time": 171.875,
          "velocity": 0.8818897637795275
        },
        {
          "duration": 0.3552083333333371,
          "durationTicks": 341,
          "midi": 63,
          "name": "D#4",
          "ticks": 165120,
          "time": 172,
          "velocity": 0.8818897637795275
        },
        {
          "duration": 0.3552083333333371,
          "durationTicks": 341,
          "midi": 68,
          "name": "G#4",
          "ticks": 165120,
          "time": 172,
          "velocity": 0.8818897637795275
        },
        {
          "duration": 0.3552083333333371,
          "durationTicks": 341,
          "midi": 72,
          "name": "C5",
          "ticks": 165120,
          "time": 172,
          "velocity": 0.8818897637795275
        },
        {
          "duration": 0.3552083333333371,
          "durationTicks": 341,
          "midi": 75,
          "name": "D#5",
          "ticks": 165120,
          "time": 172,
          "velocity": 0.8818897637795275
        },
        {
          "duration": 0.3552083333333371,
          "durationTicks": 341,
          "midi": 63,
          "name": "D#4",
          "ticks": 165480,
          "time": 172.375,
          "velocity": 0.8818897637795275
        },
        {
          "duration": 0.3552083333333371,
          "durationTicks": 341,
          "midi": 68,
          "name": "G#4",
          "ticks": 165480,
          "time": 172.375,
          "velocity": 0.8818897637795275
        },
        {
          "duration": 0.3552083333333371,
          "durationTicks": 341,
          "midi": 72,
          "name": "C5",
          "ticks": 165480,
          "time": 172.375,
          "velocity": 0.8818897637795275
        },
        {
          "duration": 0.3552083333333371,
          "durationTicks": 341,
          "midi": 75,
          "name": "D#5",
          "ticks": 165480,
          "time": 172.375,
          "velocity": 0.8818897637795275
        },
        {
          "duration": 0.3552083333333371,
          "durationTicks": 341,
          "midi": 61,
          "name": "C#4",
          "ticks": 165840,
          "time": 172.75,
          "velocity": 0.8818897637795275
        },
        {
          "duration": 0.3552083333333371,
          "durationTicks": 341,
          "midi": 65,
          "name": "F4",
          "ticks": 165840,
          "time": 172.75,
          "velocity": 0.8818897637795275
        },
        {
          "duration": 0.3552083333333371,
          "durationTicks": 341,
          "midi": 70,
          "name": "A#4",
          "ticks": 165840,
          "time": 172.75,
          "velocity": 0.8818897637795275
        },
        {
          "duration": 0.3552083333333371,
          "durationTicks": 341,
          "midi": 73,
          "name": "C#5",
          "ticks": 165840,
          "time": 172.75,
          "velocity": 0.8818897637795275
        },
        {
          "duration": 0.11770833333332575,
          "durationTicks": 113,
          "midi": 72,
          "name": "C5",
          "ticks": 166200,
          "time": 173.125,
          "velocity": 0.8818897637795275
        },
        {
          "duration": 0.23645833333333144,
          "durationTicks": 227,
          "midi": 70,
          "name": "A#4",
          "ticks": 166320,
          "time": 173.25,
          "velocity": 0.8818897637795275
        },
        {
          "duration": 0.11770833333332575,
          "durationTicks": 113,
          "midi": 68,
          "name": "G#4",
          "ticks": 166560,
          "time": 173.5,
          "velocity": 0.8818897637795275
        },
        {
          "duration": 0.11770833333332575,
          "durationTicks": 113,
          "midi": 70,
          "name": "A#4",
          "ticks": 166680,
          "time": 173.625,
          "velocity": 0.8818897637795275
        },
        {
          "duration": 0.11770833333332575,
          "durationTicks": 113,
          "midi": 73,
          "name": "C#5",
          "ticks": 166800,
          "time": 173.75,
          "velocity": 0.8818897637795275
        },
        {
          "duration": 0.11770833333332575,
          "durationTicks": 113,
          "midi": 70,
          "name": "A#4",
          "ticks": 166920,
          "time": 173.875,
          "velocity": 0.8818897637795275
        },
        {
          "duration": 0.4739583333333144,
          "durationTicks": 455,
          "midi": 61,
          "name": "C#4",
          "ticks": 167040,
          "time": 174,
          "velocity": 0.8818897637795275
        },
        {
          "duration": 0.4739583333333144,
          "durationTicks": 455,
          "midi": 65,
          "name": "F4",
          "ticks": 167040,
          "time": 174,
          "velocity": 0.8818897637795275
        },
        {
          "duration": 0.4739583333333144,
          "durationTicks": 455,
          "midi": 70,
          "name": "A#4",
          "ticks": 167040,
          "time": 174,
          "velocity": 0.8818897637795275
        },
        {
          "duration": 0.4739583333333144,
          "durationTicks": 455,
          "midi": 73,
          "name": "C#5",
          "ticks": 167040,
          "time": 174,
          "velocity": 0.8818897637795275
        },
        {
          "duration": 0.23645833333333144,
          "durationTicks": 227,
          "midi": 65,
          "name": "F4",
          "ticks": 167520,
          "time": 174.5,
          "velocity": 0.8818897637795275
        },
        {
          "duration": 0.23645833333333144,
          "durationTicks": 227,
          "midi": 70,
          "name": "A#4",
          "ticks": 167520,
          "time": 174.5,
          "velocity": 0.8818897637795275
        },
        {
          "duration": 0.23645833333333144,
          "durationTicks": 227,
          "midi": 75,
          "name": "D#5",
          "ticks": 167520,
          "time": 174.5,
          "velocity": 0.8818897637795275
        },
        {
          "duration": 0.05833333333333712,
          "durationTicks": 56,
          "midi": 70,
          "name": "A#4",
          "ticks": 167760,
          "time": 174.75,
          "velocity": 0.8818897637795275
        },
        {
          "duration": 0.2958333333333485,
          "durationTicks": 284,
          "midi": 60,
          "name": "C4",
          "ticks": 167820,
          "time": 174.8125,
          "velocity": 0.8818897637795275
        },
        {
          "duration": 0.2958333333333485,
          "durationTicks": 284,
          "midi": 63,
          "name": "D#4",
          "ticks": 167820,
          "time": 174.8125,
          "velocity": 0.8818897637795275
        },
        {
          "duration": 0.2958333333333485,
          "durationTicks": 284,
          "midi": 68,
          "name": "G#4",
          "ticks": 167820,
          "time": 174.8125,
          "velocity": 0.8818897637795275
        },
        {
          "duration": 0.2958333333333485,
          "durationTicks": 284,
          "midi": 72,
          "name": "C5",
          "ticks": 167820,
          "time": 174.8125,
          "velocity": 0.8818897637795275
        },
        {
          "duration": 0.11770833333332575,
          "durationTicks": 113,
          "midi": 70,
          "name": "A#4",
          "ticks": 168120,
          "time": 175.125,
          "velocity": 0.8818897637795275
        },
        {
          "duration": 0.4739583333333144,
          "durationTicks": 455,
          "midi": 68,
          "name": "G#4",
          "ticks": 168240,
          "time": 175.25,
          "velocity": 0.8818897637795275
        },
        {
          "duration": 0.23645833333333144,
          "durationTicks": 227,
          "midi": 68,
          "name": "G#4",
          "ticks": 168720,
          "time": 175.75,
          "velocity": 0.8818897637795275
        },
        {
          "duration": 0.4739583333333144,
          "durationTicks": 455,
          "midi": 63,
          "name": "D#4",
          "ticks": 168960,
          "time": 176,
          "velocity": 0.8818897637795275
        },
        {
          "duration": 0.4739583333333144,
          "durationTicks": 455,
          "midi": 68,
          "name": "G#4",
          "ticks": 168960,
          "time": 176,
          "velocity": 0.8818897637795275
        },
        {
          "duration": 0.4739583333333144,
          "durationTicks": 455,
          "midi": 72,
          "name": "C5",
          "ticks": 168960,
          "time": 176,
          "velocity": 0.8818897637795275
        },
        {
          "duration": 0.4739583333333144,
          "durationTicks": 455,
          "midi": 75,
          "name": "D#5",
          "ticks": 168960,
          "time": 176,
          "velocity": 0.8818897637795275
        },
        {
          "duration": 0.4739583333333144,
          "durationTicks": 455,
          "midi": 61,
          "name": "C#4",
          "ticks": 169440,
          "time": 176.5,
          "velocity": 0.8818897637795275
        },
        {
          "duration": 0.4739583333333144,
          "durationTicks": 455,
          "midi": 65,
          "name": "F4",
          "ticks": 169440,
          "time": 176.5,
          "velocity": 0.8818897637795275
        },
        {
          "duration": 0.4739583333333144,
          "durationTicks": 455,
          "midi": 70,
          "name": "A#4",
          "ticks": 169440,
          "time": 176.5,
          "velocity": 0.8818897637795275
        },
        {
          "duration": 0.4739583333333144,
          "durationTicks": 455,
          "midi": 73,
          "name": "C#5",
          "ticks": 169440,
          "time": 176.5,
          "velocity": 0.8818897637795275
        },
        {
          "duration": 0.11770833333332575,
          "durationTicks": 113,
          "midi": 68,
          "name": "G#4",
          "ticks": 170400,
          "time": 177.5,
          "velocity": 0.8818897637795275
        },
        {
          "duration": 0.11770833333332575,
          "durationTicks": 113,
          "midi": 70,
          "name": "A#4",
          "ticks": 170520,
          "time": 177.625,
          "velocity": 0.8818897637795275
        },
        {
          "duration": 0.11770833333332575,
          "durationTicks": 113,
          "midi": 73,
          "name": "C#5",
          "ticks": 170640,
          "time": 177.75,
          "velocity": 0.8818897637795275
        },
        {
          "duration": 0.11770833333332575,
          "durationTicks": 113,
          "midi": 70,
          "name": "A#4",
          "ticks": 170760,
          "time": 177.875,
          "velocity": 0.8818897637795275
        },
        {
          "duration": 0.3552083333333371,
          "durationTicks": 341,
          "midi": 65,
          "name": "F4",
          "ticks": 170880,
          "time": 178,
          "velocity": 0.8818897637795275
        },
        {
          "duration": 0.3552083333333371,
          "durationTicks": 341,
          "midi": 70,
          "name": "A#4",
          "ticks": 170880,
          "time": 178,
          "velocity": 0.8818897637795275
        },
        {
          "duration": 0.3552083333333371,
          "durationTicks": 341,
          "midi": 73,
          "name": "C#5",
          "ticks": 170880,
          "time": 178,
          "velocity": 0.8818897637795275
        },
        {
          "duration": 0.3552083333333371,
          "durationTicks": 341,
          "midi": 77,
          "name": "F5",
          "ticks": 170880,
          "time": 178,
          "velocity": 0.8818897637795275
        },
        {
          "duration": 0.3552083333333371,
          "durationTicks": 341,
          "midi": 65,
          "name": "F4",
          "ticks": 171240,
          "time": 178.375,
          "velocity": 0.8818897637795275
        },
        {
          "duration": 0.3552083333333371,
          "durationTicks": 341,
          "midi": 70,
          "name": "A#4",
          "ticks": 171240,
          "time": 178.375,
          "velocity": 0.8818897637795275
        },
        {
          "duration": 0.3552083333333371,
          "durationTicks": 341,
          "midi": 73,
          "name": "C#5",
          "ticks": 171240,
          "time": 178.375,
          "velocity": 0.8818897637795275
        },
        {
          "duration": 0.3552083333333371,
          "durationTicks": 341,
          "midi": 77,
          "name": "F5",
          "ticks": 171240,
          "time": 178.375,
          "velocity": 0.8818897637795275
        },
        {
          "duration": 0.4739583333333144,
          "durationTicks": 455,
          "midi": 63,
          "name": "D#4",
          "ticks": 171600,
          "time": 178.75,
          "velocity": 0.8818897637795275
        },
        {
          "duration": 0.4739583333333144,
          "durationTicks": 455,
          "midi": 68,
          "name": "G#4",
          "ticks": 171600,
          "time": 178.75,
          "velocity": 0.8818897637795275
        },
        {
          "duration": 0.4739583333333144,
          "durationTicks": 455,
          "midi": 72,
          "name": "C5",
          "ticks": 171600,
          "time": 178.75,
          "velocity": 0.8818897637795275
        },
        {
          "duration": 0.4739583333333144,
          "durationTicks": 455,
          "midi": 75,
          "name": "D#5",
          "ticks": 171600,
          "time": 178.75,
          "velocity": 0.8818897637795275
        },
        {
          "duration": 0.11770833333332575,
          "durationTicks": 113,
          "midi": 68,
          "name": "G#4",
          "ticks": 172320,
          "time": 179.5,
          "velocity": 0.8818897637795275
        },
        {
          "duration": 0.11770833333332575,
          "durationTicks": 113,
          "midi": 70,
          "name": "A#4",
          "ticks": 172440,
          "time": 179.625,
          "velocity": 0.8818897637795275
        },
        {
          "duration": 0.11770833333332575,
          "durationTicks": 113,
          "midi": 73,
          "name": "C#5",
          "ticks": 172560,
          "time": 179.75,
          "velocity": 0.8818897637795275
        },
        {
          "duration": 0.11770833333332575,
          "durationTicks": 113,
          "midi": 70,
          "name": "A#4",
          "ticks": 172680,
          "time": 179.875,
          "velocity": 0.8818897637795275
        },
        {
          "duration": 0.4739583333333144,
          "durationTicks": 455,
          "midi": 68,
          "name": "G#4",
          "ticks": 172800,
          "time": 180,
          "velocity": 0.8818897637795275
        },
        {
          "duration": 0.4739583333333144,
          "durationTicks": 455,
          "midi": 72,
          "name": "C5",
          "ticks": 172800,
          "time": 180,
          "velocity": 0.8818897637795275
        },
        {
          "duration": 0.4739583333333144,
          "durationTicks": 455,
          "midi": 77,
          "name": "F5",
          "ticks": 172800,
          "time": 180,
          "velocity": 0.8818897637795275
        },
        {
          "duration": 0.4739583333333144,
          "durationTicks": 455,
          "midi": 80,
          "name": "G#5",
          "ticks": 172800,
          "time": 180,
          "velocity": 0.8818897637795275
        },
        {
          "duration": 0.23645833333333144,
          "durationTicks": 227,
          "midi": 72,
          "name": "C5",
          "ticks": 173280,
          "time": 180.5,
          "velocity": 0.8818897637795275
        },
        {
          "duration": 0.3552083333333371,
          "durationTicks": 341,
          "midi": 61,
          "name": "C#4",
          "ticks": 173520,
          "time": 180.75,
          "velocity": 0.8818897637795275
        },
        {
          "duration": 0.3552083333333371,
          "durationTicks": 341,
          "midi": 65,
          "name": "F4",
          "ticks": 173520,
          "time": 180.75,
          "velocity": 0.8818897637795275
        },
        {
          "duration": 0.3552083333333371,
          "durationTicks": 341,
          "midi": 70,
          "name": "A#4",
          "ticks": 173520,
          "time": 180.75,
          "velocity": 0.8818897637795275
        },
        {
          "duration": 0.3552083333333371,
          "durationTicks": 341,
          "midi": 73,
          "name": "C#5",
          "ticks": 173520,
          "time": 180.75,
          "velocity": 0.8818897637795275
        },
        {
          "duration": 0.11770833333332575,
          "durationTicks": 113,
          "midi": 72,
          "name": "C5",
          "ticks": 173880,
          "time": 181.125,
          "velocity": 0.8818897637795275
        },
        {
          "duration": 0.23645833333333144,
          "durationTicks": 227,
          "midi": 70,
          "name": "A#4",
          "ticks": 174000,
          "time": 181.25,
          "velocity": 0.8818897637795275
        },
        {
          "duration": 0.11770833333332575,
          "durationTicks": 113,
          "midi": 68,
          "name": "G#4",
          "ticks": 174240,
          "time": 181.5,
          "velocity": 0.8818897637795275
        },
        {
          "duration": 0.11770833333332575,
          "durationTicks": 113,
          "midi": 70,
          "name": "A#4",
          "ticks": 174360,
          "time": 181.625,
          "velocity": 0.8818897637795275
        },
        {
          "duration": 0.11770833333332575,
          "durationTicks": 113,
          "midi": 73,
          "name": "C#5",
          "ticks": 174480,
          "time": 181.75,
          "velocity": 0.8818897637795275
        },
        {
          "duration": 0.11770833333332575,
          "durationTicks": 113,
          "midi": 70,
          "name": "A#4",
          "ticks": 174600,
          "time": 181.875,
          "velocity": 0.8818897637795275
        },
        {
          "duration": 0.4739583333333144,
          "durationTicks": 455,
          "midi": 61,
          "name": "C#4",
          "ticks": 174720,
          "time": 182,
          "velocity": 0.8818897637795275
        },
        {
          "duration": 0.4739583333333144,
          "durationTicks": 455,
          "midi": 65,
          "name": "F4",
          "ticks": 174720,
          "time": 182,
          "velocity": 0.8818897637795275
        },
        {
          "duration": 0.4739583333333144,
          "durationTicks": 455,
          "midi": 70,
          "name": "A#4",
          "ticks": 174720,
          "time": 182,
          "velocity": 0.8818897637795275
        },
        {
          "duration": 0.4739583333333144,
          "durationTicks": 455,
          "midi": 73,
          "name": "C#5",
          "ticks": 174720,
          "time": 182,
          "velocity": 0.8818897637795275
        },
        {
          "duration": 0.23645833333333144,
          "durationTicks": 227,
          "midi": 65,
          "name": "F4",
          "ticks": 175200,
          "time": 182.5,
          "velocity": 0.8818897637795275
        },
        {
          "duration": 0.23645833333333144,
          "durationTicks": 227,
          "midi": 70,
          "name": "A#4",
          "ticks": 175200,
          "time": 182.5,
          "velocity": 0.8818897637795275
        },
        {
          "duration": 0.23645833333333144,
          "durationTicks": 227,
          "midi": 75,
          "name": "D#5",
          "ticks": 175200,
          "time": 182.5,
          "velocity": 0.8818897637795275
        },
        {
          "duration": 0.05833333333333712,
          "durationTicks": 56,
          "midi": 70,
          "name": "A#4",
          "ticks": 175440,
          "time": 182.75,
          "velocity": 0.8818897637795275
        },
        {
          "duration": 0.2958333333333485,
          "durationTicks": 284,
          "midi": 60,
          "name": "C4",
          "ticks": 175500,
          "time": 182.8125,
          "velocity": 0.8818897637795275
        },
        {
          "duration": 0.2958333333333485,
          "durationTicks": 284,
          "midi": 63,
          "name": "D#4",
          "ticks": 175500,
          "time": 182.8125,
          "velocity": 0.8818897637795275
        },
        {
          "duration": 0.2958333333333485,
          "durationTicks": 284,
          "midi": 68,
          "name": "G#4",
          "ticks": 175500,
          "time": 182.8125,
          "velocity": 0.8818897637795275
        },
        {
          "duration": 0.2958333333333485,
          "durationTicks": 284,
          "midi": 72,
          "name": "C5",
          "ticks": 175500,
          "time": 182.8125,
          "velocity": 0.8818897637795275
        },
        {
          "duration": 0.11770833333332575,
          "durationTicks": 113,
          "midi": 70,
          "name": "A#4",
          "ticks": 175800,
          "time": 183.125,
          "velocity": 0.8818897637795275
        },
        {
          "duration": 0.4739583333333144,
          "durationTicks": 455,
          "midi": 68,
          "name": "G#4",
          "ticks": 175920,
          "time": 183.25,
          "velocity": 0.8818897637795275
        },
        {
          "duration": 0.23645833333333144,
          "durationTicks": 227,
          "midi": 68,
          "name": "G#4",
          "ticks": 176400,
          "time": 183.75,
          "velocity": 0.8818897637795275
        },
        {
          "duration": 0.4739583333333144,
          "durationTicks": 455,
          "midi": 63,
          "name": "D#4",
          "ticks": 176640,
          "time": 184,
          "velocity": 0.8818897637795275
        },
        {
          "duration": 0.4739583333333144,
          "durationTicks": 455,
          "midi": 68,
          "name": "G#4",
          "ticks": 176640,
          "time": 184,
          "velocity": 0.8818897637795275
        },
        {
          "duration": 0.4739583333333144,
          "durationTicks": 455,
          "midi": 72,
          "name": "C5",
          "ticks": 176640,
          "time": 184,
          "velocity": 0.8818897637795275
        },
        {
          "duration": 0.4739583333333144,
          "durationTicks": 455,
          "midi": 75,
          "name": "D#5",
          "ticks": 176640,
          "time": 184,
          "velocity": 0.8818897637795275
        },
        {
          "duration": 0.4739583333333144,
          "durationTicks": 455,
          "midi": 61,
          "name": "C#4",
          "ticks": 177120,
          "time": 184.5,
          "velocity": 0.8818897637795275
        },
        {
          "duration": 0.4739583333333144,
          "durationTicks": 455,
          "midi": 65,
          "name": "F4",
          "ticks": 177120,
          "time": 184.5,
          "velocity": 0.8818897637795275
        },
        {
          "duration": 0.4739583333333144,
          "durationTicks": 455,
          "midi": 70,
          "name": "A#4",
          "ticks": 177120,
          "time": 184.5,
          "velocity": 0.8818897637795275
        },
        {
          "duration": 0.4739583333333144,
          "durationTicks": 455,
          "midi": 73,
          "name": "C#5",
          "ticks": 177120,
          "time": 184.5,
          "velocity": 0.8818897637795275
        },
        {
          "duration": 0.11770833333332575,
          "durationTicks": 113,
          "midi": 68,
          "name": "G#4",
          "ticks": 178080,
          "time": 185.5,
          "velocity": 0.8818897637795275
        },
        {
          "duration": 0.11770833333332575,
          "durationTicks": 113,
          "midi": 70,
          "name": "A#4",
          "ticks": 178200,
          "time": 185.625,
          "velocity": 0.8818897637795275
        },
        {
          "duration": 0.11770833333332575,
          "durationTicks": 113,
          "midi": 73,
          "name": "C#5",
          "ticks": 178320,
          "time": 185.75,
          "velocity": 0.8818897637795275
        },
        {
          "duration": 0.11770833333332575,
          "durationTicks": 113,
          "midi": 70,
          "name": "A#4",
          "ticks": 178440,
          "time": 185.875,
          "velocity": 0.8818897637795275
        },
        {
          "duration": 0.3552083333333371,
          "durationTicks": 341,
          "midi": 65,
          "name": "F4",
          "ticks": 178560,
          "time": 186,
          "velocity": 0.8818897637795275
        },
        {
          "duration": 0.3552083333333371,
          "durationTicks": 341,
          "midi": 70,
          "name": "A#4",
          "ticks": 178560,
          "time": 186,
          "velocity": 0.8818897637795275
        },
        {
          "duration": 0.3552083333333371,
          "durationTicks": 341,
          "midi": 73,
          "name": "C#5",
          "ticks": 178560,
          "time": 186,
          "velocity": 0.8818897637795275
        },
        {
          "duration": 0.3552083333333371,
          "durationTicks": 341,
          "midi": 77,
          "name": "F5",
          "ticks": 178560,
          "time": 186,
          "velocity": 0.8818897637795275
        },
        {
          "duration": 0.3552083333333371,
          "durationTicks": 341,
          "midi": 65,
          "name": "F4",
          "ticks": 178920,
          "time": 186.375,
          "velocity": 0.8818897637795275
        },
        {
          "duration": 0.3552083333333371,
          "durationTicks": 341,
          "midi": 70,
          "name": "A#4",
          "ticks": 178920,
          "time": 186.375,
          "velocity": 0.8818897637795275
        },
        {
          "duration": 0.3552083333333371,
          "durationTicks": 341,
          "midi": 73,
          "name": "C#5",
          "ticks": 178920,
          "time": 186.375,
          "velocity": 0.8818897637795275
        },
        {
          "duration": 0.3552083333333371,
          "durationTicks": 341,
          "midi": 77,
          "name": "F5",
          "ticks": 178920,
          "time": 186.375,
          "velocity": 0.8818897637795275
        },
        {
          "duration": 0.4739583333333144,
          "durationTicks": 455,
          "midi": 63,
          "name": "D#4",
          "ticks": 179280,
          "time": 186.75,
          "velocity": 0.8818897637795275
        },
        {
          "duration": 0.4739583333333144,
          "durationTicks": 455,
          "midi": 68,
          "name": "G#4",
          "ticks": 179280,
          "time": 186.75,
          "velocity": 0.8818897637795275
        },
        {
          "duration": 0.4739583333333144,
          "durationTicks": 455,
          "midi": 72,
          "name": "C5",
          "ticks": 179280,
          "time": 186.75,
          "velocity": 0.8818897637795275
        },
        {
          "duration": 0.4739583333333144,
          "durationTicks": 455,
          "midi": 75,
          "name": "D#5",
          "ticks": 179280,
          "time": 186.75,
          "velocity": 0.8818897637795275
        },
        {
          "duration": 0.11770833333332575,
          "durationTicks": 113,
          "midi": 68,
          "name": "G#4",
          "ticks": 180000,
          "time": 187.5,
          "velocity": 0.8818897637795275
        },
        {
          "duration": 0.11770833333332575,
          "durationTicks": 113,
          "midi": 70,
          "name": "A#4",
          "ticks": 180120,
          "time": 187.625,
          "velocity": 0.8818897637795275
        },
        {
          "duration": 0.11770833333332575,
          "durationTicks": 113,
          "midi": 73,
          "name": "C#5",
          "ticks": 180240,
          "time": 187.75,
          "velocity": 0.8818897637795275
        },
        {
          "duration": 0.11770833333332575,
          "durationTicks": 113,
          "midi": 70,
          "name": "A#4",
          "ticks": 180360,
          "time": 187.875,
          "velocity": 0.8818897637795275
        },
        {
          "duration": 0.3552083333333371,
          "durationTicks": 341,
          "midi": 63,
          "name": "D#4",
          "ticks": 180480,
          "time": 188,
          "velocity": 0.8818897637795275
        },
        {
          "duration": 0.3552083333333371,
          "durationTicks": 341,
          "midi": 68,
          "name": "G#4",
          "ticks": 180480,
          "time": 188,
          "velocity": 0.8818897637795275
        },
        {
          "duration": 0.3552083333333371,
          "durationTicks": 341,
          "midi": 72,
          "name": "C5",
          "ticks": 180480,
          "time": 188,
          "velocity": 0.8818897637795275
        },
        {
          "duration": 0.3552083333333371,
          "durationTicks": 341,
          "midi": 75,
          "name": "D#5",
          "ticks": 180480,
          "time": 188,
          "velocity": 0.8818897637795275
        },
        {
          "duration": 0.3552083333333371,
          "durationTicks": 341,
          "midi": 63,
          "name": "D#4",
          "ticks": 180840,
          "time": 188.375,
          "velocity": 0.8818897637795275
        },
        {
          "duration": 0.3552083333333371,
          "durationTicks": 341,
          "midi": 68,
          "name": "G#4",
          "ticks": 180840,
          "time": 188.375,
          "velocity": 0.8818897637795275
        },
        {
          "duration": 0.3552083333333371,
          "durationTicks": 341,
          "midi": 72,
          "name": "C5",
          "ticks": 180840,
          "time": 188.375,
          "velocity": 0.8818897637795275
        },
        {
          "duration": 0.3552083333333371,
          "durationTicks": 341,
          "midi": 75,
          "name": "D#5",
          "ticks": 180840,
          "time": 188.375,
          "velocity": 0.8818897637795275
        },
        {
          "duration": 0.3552083333333371,
          "durationTicks": 341,
          "midi": 61,
          "name": "C#4",
          "ticks": 181200,
          "time": 188.75,
          "velocity": 0.8818897637795275
        },
        {
          "duration": 0.3552083333333371,
          "durationTicks": 341,
          "midi": 65,
          "name": "F4",
          "ticks": 181200,
          "time": 188.75,
          "velocity": 0.8818897637795275
        },
        {
          "duration": 0.3552083333333371,
          "durationTicks": 341,
          "midi": 70,
          "name": "A#4",
          "ticks": 181200,
          "time": 188.75,
          "velocity": 0.8818897637795275
        },
        {
          "duration": 0.3552083333333371,
          "durationTicks": 341,
          "midi": 73,
          "name": "C#5",
          "ticks": 181200,
          "time": 188.75,
          "velocity": 0.8818897637795275
        },
        {
          "duration": 0.11770833333332575,
          "durationTicks": 113,
          "midi": 72,
          "name": "C5",
          "ticks": 181560,
          "time": 189.125,
          "velocity": 0.8818897637795275
        },
        {
          "duration": 0.23645833333333144,
          "durationTicks": 227,
          "midi": 70,
          "name": "A#4",
          "ticks": 181680,
          "time": 189.25,
          "velocity": 0.8818897637795275
        },
        {
          "duration": 0.11770833333332575,
          "durationTicks": 113,
          "midi": 68,
          "name": "G#4",
          "ticks": 181920,
          "time": 189.5,
          "velocity": 0.8818897637795275
        },
        {
          "duration": 0.11770833333332575,
          "durationTicks": 113,
          "midi": 70,
          "name": "A#4",
          "ticks": 182040,
          "time": 189.625,
          "velocity": 0.8818897637795275
        },
        {
          "duration": 0.11770833333332575,
          "durationTicks": 113,
          "midi": 73,
          "name": "C#5",
          "ticks": 182160,
          "time": 189.75,
          "velocity": 0.8818897637795275
        },
        {
          "duration": 0.11770833333332575,
          "durationTicks": 113,
          "midi": 70,
          "name": "A#4",
          "ticks": 182280,
          "time": 189.875,
          "velocity": 0.8818897637795275
        },
        {
          "duration": 0.4739583333333144,
          "durationTicks": 455,
          "midi": 61,
          "name": "C#4",
          "ticks": 182400,
          "time": 190,
          "velocity": 0.8818897637795275
        },
        {
          "duration": 0.4739583333333144,
          "durationTicks": 455,
          "midi": 65,
          "name": "F4",
          "ticks": 182400,
          "time": 190,
          "velocity": 0.8818897637795275
        },
        {
          "duration": 0.4739583333333144,
          "durationTicks": 455,
          "midi": 70,
          "name": "A#4",
          "ticks": 182400,
          "time": 190,
          "velocity": 0.8818897637795275
        },
        {
          "duration": 0.4739583333333144,
          "durationTicks": 455,
          "midi": 73,
          "name": "C#5",
          "ticks": 182400,
          "time": 190,
          "velocity": 0.8818897637795275
        },
        {
          "duration": 0.23645833333333144,
          "durationTicks": 227,
          "midi": 65,
          "name": "F4",
          "ticks": 182880,
          "time": 190.5,
          "velocity": 0.8818897637795275
        },
        {
          "duration": 0.23645833333333144,
          "durationTicks": 227,
          "midi": 70,
          "name": "A#4",
          "ticks": 182880,
          "time": 190.5,
          "velocity": 0.8818897637795275
        },
        {
          "duration": 0.23645833333333144,
          "durationTicks": 227,
          "midi": 75,
          "name": "D#5",
          "ticks": 182880,
          "time": 190.5,
          "velocity": 0.8818897637795275
        },
        {
          "duration": 0.05833333333333712,
          "durationTicks": 56,
          "midi": 70,
          "name": "A#4",
          "ticks": 183120,
          "time": 190.75,
          "velocity": 0.8818897637795275
        },
        {
          "duration": 0.2958333333333485,
          "durationTicks": 284,
          "midi": 60,
          "name": "C4",
          "ticks": 183180,
          "time": 190.8125,
          "velocity": 0.8818897637795275
        },
        {
          "duration": 0.2958333333333485,
          "durationTicks": 284,
          "midi": 63,
          "name": "D#4",
          "ticks": 183180,
          "time": 190.8125,
          "velocity": 0.8818897637795275
        },
        {
          "duration": 0.2958333333333485,
          "durationTicks": 284,
          "midi": 68,
          "name": "G#4",
          "ticks": 183180,
          "time": 190.8125,
          "velocity": 0.8818897637795275
        },
        {
          "duration": 0.2958333333333485,
          "durationTicks": 284,
          "midi": 72,
          "name": "C5",
          "ticks": 183180,
          "time": 190.8125,
          "velocity": 0.8818897637795275
        },
        {
          "duration": 0.11770833333332575,
          "durationTicks": 113,
          "midi": 70,
          "name": "A#4",
          "ticks": 183480,
          "time": 191.125,
          "velocity": 0.8818897637795275
        },
        {
          "duration": 0.4739583333333144,
          "durationTicks": 455,
          "midi": 68,
          "name": "G#4",
          "ticks": 183600,
          "time": 191.25,
          "velocity": 0.8818897637795275
        },
        {
          "duration": 0.23645833333333144,
          "durationTicks": 227,
          "midi": 68,
          "name": "G#4",
          "ticks": 184080,
          "time": 191.75,
          "velocity": 0.8818897637795275
        },
        {
          "duration": 0.4739583333333144,
          "durationTicks": 455,
          "midi": 63,
          "name": "D#4",
          "ticks": 184320,
          "time": 192,
          "velocity": 0.8818897637795275
        },
        {
          "duration": 0.4739583333333144,
          "durationTicks": 455,
          "midi": 68,
          "name": "G#4",
          "ticks": 184320,
          "time": 192,
          "velocity": 0.8818897637795275
        },
        {
          "duration": 0.4739583333333144,
          "durationTicks": 455,
          "midi": 72,
          "name": "C5",
          "ticks": 184320,
          "time": 192,
          "velocity": 0.8818897637795275
        },
        {
          "duration": 0.4739583333333144,
          "durationTicks": 455,
          "midi": 75,
          "name": "D#5",
          "ticks": 184320,
          "time": 192,
          "velocity": 0.8818897637795275
        },
        {
          "duration": 0.4739583333333144,
          "durationTicks": 455,
          "midi": 61,
          "name": "C#4",
          "ticks": 184800,
          "time": 192.5,
          "velocity": 0.8818897637795275
        },
        {
          "duration": 0.4739583333333144,
          "durationTicks": 455,
          "midi": 65,
          "name": "F4",
          "ticks": 184800,
          "time": 192.5,
          "velocity": 0.8818897637795275
        },
        {
          "duration": 0.4739583333333144,
          "durationTicks": 455,
          "midi": 70,
          "name": "A#4",
          "ticks": 184800,
          "time": 192.5,
          "velocity": 0.8818897637795275
        },
        {
          "duration": 0.4739583333333144,
          "durationTicks": 455,
          "midi": 73,
          "name": "C#5",
          "ticks": 184800,
          "time": 192.5,
          "velocity": 0.8818897637795275
        },
        {
          "duration": 0.11770833333332575,
          "durationTicks": 113,
          "midi": 68,
          "name": "G#4",
          "ticks": 185760,
          "time": 193.5,
          "velocity": 0.8818897637795275
        },
        {
          "duration": 0.11770833333332575,
          "durationTicks": 113,
          "midi": 70,
          "name": "A#4",
          "ticks": 185880,
          "time": 193.625,
          "velocity": 0.8818897637795275
        },
        {
          "duration": 0.11770833333332575,
          "durationTicks": 113,
          "midi": 73,
          "name": "C#5",
          "ticks": 186000,
          "time": 193.75,
          "velocity": 0.8818897637795275
        },
        {
          "duration": 0.11770833333332575,
          "durationTicks": 113,
          "midi": 70,
          "name": "A#4",
          "ticks": 186120,
          "time": 193.875,
          "velocity": 0.8818897637795275
        },
        {
          "duration": 0.3552083333333371,
          "durationTicks": 341,
          "midi": 65,
          "name": "F4",
          "ticks": 186240,
          "time": 194,
          "velocity": 0.8818897637795275
        },
        {
          "duration": 0.3552083333333371,
          "durationTicks": 341,
          "midi": 70,
          "name": "A#4",
          "ticks": 186240,
          "time": 194,
          "velocity": 0.8818897637795275
        },
        {
          "duration": 0.3552083333333371,
          "durationTicks": 341,
          "midi": 73,
          "name": "C#5",
          "ticks": 186240,
          "time": 194,
          "velocity": 0.8818897637795275
        },
        {
          "duration": 0.3552083333333371,
          "durationTicks": 341,
          "midi": 77,
          "name": "F5",
          "ticks": 186240,
          "time": 194,
          "velocity": 0.8818897637795275
        },
        {
          "duration": 0.3552083333333371,
          "durationTicks": 341,
          "midi": 65,
          "name": "F4",
          "ticks": 186600,
          "time": 194.375,
          "velocity": 0.8818897637795275
        },
        {
          "duration": 0.3552083333333371,
          "durationTicks": 341,
          "midi": 70,
          "name": "A#4",
          "ticks": 186600,
          "time": 194.375,
          "velocity": 0.8818897637795275
        },
        {
          "duration": 0.3552083333333371,
          "durationTicks": 341,
          "midi": 73,
          "name": "C#5",
          "ticks": 186600,
          "time": 194.375,
          "velocity": 0.8818897637795275
        },
        {
          "duration": 0.3552083333333371,
          "durationTicks": 341,
          "midi": 77,
          "name": "F5",
          "ticks": 186600,
          "time": 194.375,
          "velocity": 0.8818897637795275
        },
        {
          "duration": 0.4739583333333144,
          "durationTicks": 455,
          "midi": 63,
          "name": "D#4",
          "ticks": 186960,
          "time": 194.75,
          "velocity": 0.8818897637795275
        },
        {
          "duration": 0.4739583333333144,
          "durationTicks": 455,
          "midi": 68,
          "name": "G#4",
          "ticks": 186960,
          "time": 194.75,
          "velocity": 0.8818897637795275
        },
        {
          "duration": 0.4739583333333144,
          "durationTicks": 455,
          "midi": 72,
          "name": "C5",
          "ticks": 186960,
          "time": 194.75,
          "velocity": 0.8818897637795275
        },
        {
          "duration": 0.4739583333333144,
          "durationTicks": 455,
          "midi": 75,
          "name": "D#5",
          "ticks": 186960,
          "time": 194.75,
          "velocity": 0.8818897637795275
        },
        {
          "duration": 0.11770833333332575,
          "durationTicks": 113,
          "midi": 68,
          "name": "G#4",
          "ticks": 187680,
          "time": 195.5,
          "velocity": 0.8818897637795275
        },
        {
          "duration": 0.11770833333332575,
          "durationTicks": 113,
          "midi": 70,
          "name": "A#4",
          "ticks": 187800,
          "time": 195.625,
          "velocity": 0.8818897637795275
        },
        {
          "duration": 0.11770833333332575,
          "durationTicks": 113,
          "midi": 73,
          "name": "C#5",
          "ticks": 187920,
          "time": 195.75,
          "velocity": 0.8818897637795275
        },
        {
          "duration": 0.11770833333332575,
          "durationTicks": 113,
          "midi": 70,
          "name": "A#4",
          "ticks": 188040,
          "time": 195.875,
          "velocity": 0.8818897637795275
        },
        {
          "duration": 0.4739583333333144,
          "durationTicks": 455,
          "midi": 68,
          "name": "G#4",
          "ticks": 188160,
          "time": 196,
          "velocity": 0.8818897637795275
        },
        {
          "duration": 0.4739583333333144,
          "durationTicks": 455,
          "midi": 72,
          "name": "C5",
          "ticks": 188160,
          "time": 196,
          "velocity": 0.8818897637795275
        },
        {
          "duration": 0.4739583333333144,
          "durationTicks": 455,
          "midi": 77,
          "name": "F5",
          "ticks": 188160,
          "time": 196,
          "velocity": 0.8818897637795275
        },
        {
          "duration": 0.4739583333333144,
          "durationTicks": 455,
          "midi": 80,
          "name": "G#5",
          "ticks": 188160,
          "time": 196,
          "velocity": 0.8818897637795275
        },
        {
          "duration": 0.23645833333333144,
          "durationTicks": 227,
          "midi": 72,
          "name": "C5",
          "ticks": 188640,
          "time": 196.5,
          "velocity": 0.8818897637795275
        },
        {
          "duration": 0.3552083333333371,
          "durationTicks": 341,
          "midi": 61,
          "name": "C#4",
          "ticks": 188880,
          "time": 196.75,
          "velocity": 0.8818897637795275
        },
        {
          "duration": 0.3552083333333371,
          "durationTicks": 341,
          "midi": 65,
          "name": "F4",
          "ticks": 188880,
          "time": 196.75,
          "velocity": 0.8818897637795275
        },
        {
          "duration": 0.3552083333333371,
          "durationTicks": 341,
          "midi": 70,
          "name": "A#4",
          "ticks": 188880,
          "time": 196.75,
          "velocity": 0.8818897637795275
        },
        {
          "duration": 0.3552083333333371,
          "durationTicks": 341,
          "midi": 73,
          "name": "C#5",
          "ticks": 188880,
          "time": 196.75,
          "velocity": 0.8818897637795275
        },
        {
          "duration": 0.11770833333332575,
          "durationTicks": 113,
          "midi": 72,
          "name": "C5",
          "ticks": 189240,
          "time": 197.125,
          "velocity": 0.8818897637795275
        },
        {
          "duration": 0.23645833333333144,
          "durationTicks": 227,
          "midi": 70,
          "name": "A#4",
          "ticks": 189360,
          "time": 197.25,
          "velocity": 0.8818897637795275
        },
        {
          "duration": 0.11770833333332575,
          "durationTicks": 113,
          "midi": 68,
          "name": "G#4",
          "ticks": 189600,
          "time": 197.5,
          "velocity": 0.8818897637795275
        },
        {
          "duration": 0.11770833333332575,
          "durationTicks": 113,
          "midi": 70,
          "name": "A#4",
          "ticks": 189720,
          "time": 197.625,
          "velocity": 0.8818897637795275
        },
        {
          "duration": 0.11770833333332575,
          "durationTicks": 113,
          "midi": 73,
          "name": "C#5",
          "ticks": 189840,
          "time": 197.75,
          "velocity": 0.8818897637795275
        },
        {
          "duration": 0.11770833333332575,
          "durationTicks": 113,
          "midi": 70,
          "name": "A#4",
          "ticks": 189960,
          "time": 197.875,
          "velocity": 0.8818897637795275
        },
        {
          "duration": 0.4739583333333144,
          "durationTicks": 455,
          "midi": 61,
          "name": "C#4",
          "ticks": 190080,
          "time": 198,
          "velocity": 0.8818897637795275
        },
        {
          "duration": 0.4739583333333144,
          "durationTicks": 455,
          "midi": 65,
          "name": "F4",
          "ticks": 190080,
          "time": 198,
          "velocity": 0.8818897637795275
        },
        {
          "duration": 0.4739583333333144,
          "durationTicks": 455,
          "midi": 70,
          "name": "A#4",
          "ticks": 190080,
          "time": 198,
          "velocity": 0.8818897637795275
        },
        {
          "duration": 0.4739583333333144,
          "durationTicks": 455,
          "midi": 73,
          "name": "C#5",
          "ticks": 190080,
          "time": 198,
          "velocity": 0.8818897637795275
        },
        {
          "duration": 0.23645833333333144,
          "durationTicks": 227,
          "midi": 65,
          "name": "F4",
          "ticks": 190560,
          "time": 198.5,
          "velocity": 0.8818897637795275
        },
        {
          "duration": 0.23645833333333144,
          "durationTicks": 227,
          "midi": 70,
          "name": "A#4",
          "ticks": 190560,
          "time": 198.5,
          "velocity": 0.8818897637795275
        },
        {
          "duration": 0.23645833333333144,
          "durationTicks": 227,
          "midi": 75,
          "name": "D#5",
          "ticks": 190560,
          "time": 198.5,
          "velocity": 0.8818897637795275
        },
        {
          "duration": 0.05833333333333712,
          "durationTicks": 56,
          "midi": 70,
          "name": "A#4",
          "ticks": 190800,
          "time": 198.75,
          "velocity": 0.8818897637795275
        },
        {
          "duration": 0.2958333333333485,
          "durationTicks": 284,
          "midi": 60,
          "name": "C4",
          "ticks": 190860,
          "time": 198.8125,
          "velocity": 0.8818897637795275
        },
        {
          "duration": 0.2958333333333485,
          "durationTicks": 284,
          "midi": 63,
          "name": "D#4",
          "ticks": 190860,
          "time": 198.8125,
          "velocity": 0.8818897637795275
        },
        {
          "duration": 0.2958333333333485,
          "durationTicks": 284,
          "midi": 68,
          "name": "G#4",
          "ticks": 190860,
          "time": 198.8125,
          "velocity": 0.8818897637795275
        },
        {
          "duration": 0.2958333333333485,
          "durationTicks": 284,
          "midi": 72,
          "name": "C5",
          "ticks": 190860,
          "time": 198.8125,
          "velocity": 0.8818897637795275
        },
        {
          "duration": 0.11770833333332575,
          "durationTicks": 113,
          "midi": 70,
          "name": "A#4",
          "ticks": 191160,
          "time": 199.125,
          "velocity": 0.8818897637795275
        },
        {
          "duration": 0.4739583333333144,
          "durationTicks": 455,
          "midi": 68,
          "name": "G#4",
          "ticks": 191280,
          "time": 199.25,
          "velocity": 0.8818897637795275
        },
        {
          "duration": 0.23645833333333144,
          "durationTicks": 227,
          "midi": 68,
          "name": "G#4",
          "ticks": 191760,
          "time": 199.75,
          "velocity": 0.8818897637795275
        },
        {
          "duration": 0.4739583333333144,
          "durationTicks": 455,
          "midi": 63,
          "name": "D#4",
          "ticks": 192000,
          "time": 200,
          "velocity": 0.8818897637795275
        },
        {
          "duration": 0.4739583333333144,
          "durationTicks": 455,
          "midi": 68,
          "name": "G#4",
          "ticks": 192000,
          "time": 200,
          "velocity": 0.8818897637795275
        },
        {
          "duration": 0.4739583333333144,
          "durationTicks": 455,
          "midi": 72,
          "name": "C5",
          "ticks": 192000,
          "time": 200,
          "velocity": 0.8818897637795275
        },
        {
          "duration": 0.4739583333333144,
          "durationTicks": 455,
          "midi": 75,
          "name": "D#5",
          "ticks": 192000,
          "time": 200,
          "velocity": 0.8818897637795275
        },
        {
          "duration": 0.4739583333333144,
          "durationTicks": 455,
          "midi": 61,
          "name": "C#4",
          "ticks": 192480,
          "time": 200.5,
          "velocity": 0.8818897637795275
        },
        {
          "duration": 0.4739583333333144,
          "durationTicks": 455,
          "midi": 65,
          "name": "F4",
          "ticks": 192480,
          "time": 200.5,
          "velocity": 0.8818897637795275
        },
        {
          "duration": 0.4739583333333144,
          "durationTicks": 455,
          "midi": 70,
          "name": "A#4",
          "ticks": 192480,
          "time": 200.5,
          "velocity": 0.8818897637795275
        },
        {
          "duration": 0.4739583333333144,
          "durationTicks": 455,
          "midi": 73,
          "name": "C#5",
          "ticks": 192480,
          "time": 200.5,
          "velocity": 0.8818897637795275
        }
      ],
      "endOfTrackTicks": 192936
    },
    {
      "channel": 0,
      "controlChanges": {
        "64": [
          {
            "number": 64,
            "ticks": 1922,
            "time": 2.002083333333333,
            "value": 1
          },
          {
            "number": 64,
            "ticks": 2641,
            "time": 2.7510416666666666,
            "value": 0
          },
          {
            "number": 64,
            "ticks": 2642,
            "time": 2.752083333333333,
            "value": 1
          },
          {
            "number": 64,
            "ticks": 3841,
            "time": 4.001041666666667,
            "value": 0
          },
          {
            "number": 64,
            "ticks": 3842,
            "time": 4.002083333333333,
            "value": 1
          },
          {
            "number": 64,
            "ticks": 4561,
            "time": 4.751041666666667,
            "value": 0
          },
          {
            "number": 64,
            "ticks": 4562,
            "time": 4.752083333333333,
            "value": 1
          },
          {
            "number": 64,
            "ticks": 5761,
            "time": 6.001041666666667,
            "value": 0
          },
          {
            "number": 64,
            "ticks": 5762,
            "time": 6.002083333333333,
            "value": 1
          },
          {
            "number": 64,
            "ticks": 6481,
            "time": 6.751041666666667,
            "value": 0
          },
          {
            "number": 64,
            "ticks": 6482,
            "time": 6.752083333333333,
            "value": 1
          },
          {
            "number": 64,
            "ticks": 7681,
            "time": 8.001041666666667,
            "value": 0
          },
          {
            "number": 64,
            "ticks": 7682,
            "time": 8.002083333333333,
            "value": 1
          },
          {
            "number": 64,
            "ticks": 8401,
            "time": 8.751041666666667,
            "value": 0
          },
          {
            "number": 64,
            "ticks": 8402,
            "time": 8.752083333333333,
            "value": 1
          },
          {
            "number": 64,
            "ticks": 9601,
            "time": 10.001041666666667,
            "value": 0
          },
          {
            "number": 64,
            "ticks": 9602,
            "time": 10.002083333333333,
            "value": 1
          },
          {
            "number": 64,
            "ticks": 10321,
            "time": 10.751041666666667,
            "value": 0
          },
          {
            "number": 64,
            "ticks": 10322,
            "time": 10.752083333333333,
            "value": 1
          },
          {
            "number": 64,
            "ticks": 11521,
            "time": 12.001041666666667,
            "value": 0
          },
          {
            "number": 64,
            "ticks": 11522,
            "time": 12.002083333333333,
            "value": 1
          },
          {
            "number": 64,
            "ticks": 12241,
            "time": 12.751041666666667,
            "value": 0
          },
          {
            "number": 64,
            "ticks": 12242,
            "time": 12.752083333333333,
            "value": 1
          },
          {
            "number": 64,
            "ticks": 13441,
            "time": 14.001041666666667,
            "value": 0
          },
          {
            "number": 64,
            "ticks": 13442,
            "time": 14.002083333333333,
            "value": 1
          },
          {
            "number": 64,
            "ticks": 14161,
            "time": 14.751041666666667,
            "value": 0
          },
          {
            "number": 64,
            "ticks": 14162,
            "time": 14.752083333333333,
            "value": 1
          },
          {
            "number": 64,
            "ticks": 15361,
            "time": 16.001041666666666,
            "value": 0
          },
          {
            "number": 64,
            "ticks": 15362,
            "time": 16.002083333333335,
            "value": 1
          },
          {
            "number": 64,
            "ticks": 16081,
            "time": 16.751041666666666,
            "value": 0
          },
          {
            "number": 64,
            "ticks": 16082,
            "time": 16.752083333333335,
            "value": 1
          },
          {
            "number": 64,
            "ticks": 17281,
            "time": 18.001041666666666,
            "value": 0
          },
          {
            "number": 64,
            "ticks": 17282,
            "time": 18.002083333333335,
            "value": 1
          },
          {
            "number": 64,
            "ticks": 19201,
            "time": 20.001041666666666,
            "value": 0
          },
          {
            "number": 64,
            "ticks": 19202,
            "time": 20.002083333333335,
            "value": 1
          },
          {
            "number": 64,
            "ticks": 21121,
            "time": 22.001041666666666,
            "value": 0
          },
          {
            "number": 64,
            "ticks": 21122,
            "time": 22.002083333333335,
            "value": 1
          },
          {
            "number": 64,
            "ticks": 23041,
            "time": 24.001041666666666,
            "value": 0
          },
          {
            "number": 64,
            "ticks": 23042,
            "time": 24.002083333333335,
            "value": 1
          },
          {
            "number": 64,
            "ticks": 24961,
            "time": 26.001041666666666,
            "value": 0
          },
          {
            "number": 64,
            "ticks": 24962,
            "time": 26.002083333333335,
            "value": 1
          },
          {
            "number": 64,
            "ticks": 26881,
            "time": 28.001041666666666,
            "value": 0
          },
          {
            "number": 64,
            "ticks": 26882,
            "time": 28.002083333333335,
            "value": 1
          },
          {
            "number": 64,
            "ticks": 28801,
            "time": 30.001041666666666,
            "value": 0
          },
          {
            "number": 64,
            "ticks": 28802,
            "time": 30.002083333333335,
            "value": 1
          },
          {
            "number": 64,
            "ticks": 30721,
            "time": 32.001041666666666,
            "value": 0
          },
          {
            "number": 64,
            "ticks": 30722,
            "time": 32.00208333333333,
            "value": 1
          },
          {
            "number": 64,
            "ticks": 32641,
            "time": 34.001041666666666,
            "value": 0
          },
          {
            "number": 64,
            "ticks": 32642,
            "time": 34.00208333333333,
            "value": 1
          },
          {
            "number": 64,
            "ticks": 34561,
            "time": 36.001041666666666,
            "value": 0
          },
          {
            "number": 64,
            "ticks": 34562,
            "time": 36.00208333333333,
            "value": 1
          },
          {
            "number": 64,
            "ticks": 36481,
            "time": 38.001041666666666,
            "value": 0
          },
          {
            "number": 64,
            "ticks": 36482,
            "time": 38.00208333333333,
            "value": 1
          },
          {
            "number": 64,
            "ticks": 38401,
            "time": 40.001041666666666,
            "value": 0
          },
          {
            "number": 64,
            "ticks": 38402,
            "time": 40.00208333333333,
            "value": 1
          },
          {
            "number": 64,
            "ticks": 40321,
            "time": 42.001041666666666,
            "value": 0
          },
          {
            "number": 64,
            "ticks": 40322,
            "time": 42.00208333333333,
            "value": 1
          },
          {
            "number": 64,
            "ticks": 41041,
            "time": 42.751041666666666,
            "value": 0
          },
          {
            "number": 64,
            "ticks": 41042,
            "time": 42.75208333333333,
            "value": 1
          },
          {
            "number": 64,
            "ticks": 42241,
            "time": 44.001041666666666,
            "value": 0
          },
          {
            "number": 64,
            "ticks": 42242,
            "time": 44.00208333333333,
            "value": 1
          },
          {
            "number": 64,
            "ticks": 42961,
            "time": 44.751041666666666,
            "value": 0
          },
          {
            "number": 64,
            "ticks": 42962,
            "time": 44.75208333333333,
            "value": 1
          },
          {
            "number": 64,
            "ticks": 44161,
            "time": 46.001041666666666,
            "value": 0
          },
          {
            "number": 64,
            "ticks": 44162,
            "time": 46.00208333333333,
            "value": 1
          },
          {
            "number": 64,
            "ticks": 44881,
            "time": 46.751041666666666,
            "value": 0
          },
          {
            "number": 64,
            "ticks": 44882,
            "time": 46.75208333333333,
            "value": 1
          },
          {
            "number": 64,
            "ticks": 46081,
            "time": 48.001041666666666,
            "value": 0
          },
          {
            "number": 64,
            "ticks": 46082,
            "time": 48.00208333333333,
            "value": 1
          },
          {
            "number": 64,
            "ticks": 46561,
            "time": 48.501041666666666,
            "value": 0
          },
          {
            "number": 64,
            "ticks": 46562,
            "time": 48.50208333333333,
            "value": 1
          },
          {
            "number": 64,
            "ticks": 48001,
            "time": 50.001041666666666,
            "value": 0
          },
          {
            "number": 64,
            "ticks": 48002,
            "time": 50.00208333333333,
            "value": 1
          },
          {
            "number": 64,
            "ticks": 48721,
            "time": 50.751041666666666,
            "value": 0
          },
          {
            "number": 64,
            "ticks": 48722,
            "time": 50.75208333333333,
            "value": 1
          },
          {
            "number": 64,
            "ticks": 49921,
            "time": 52.001041666666666,
            "value": 0
          },
          {
            "number": 64,
            "ticks": 49922,
            "time": 52.00208333333333,
            "value": 1
          },
          {
            "number": 64,
            "ticks": 50641,
            "time": 52.751041666666666,
            "value": 0
          },
          {
            "number": 64,
            "ticks": 50642,
            "time": 52.75208333333333,
            "value": 1
          },
          {
            "number": 64,
            "ticks": 51841,
            "time": 54.001041666666666,
            "value": 0
          },
          {
            "number": 64,
            "ticks": 51842,
            "time": 54.00208333333333,
            "value": 1
          },
          {
            "number": 64,
            "ticks": 52561,
            "time": 54.751041666666666,
            "value": 0
          },
          {
            "number": 64,
            "ticks": 52562,
            "time": 54.75208333333333,
            "value": 1
          },
          {
            "number": 64,
            "ticks": 53761,
            "time": 56.001041666666666,
            "value": 0
          },
          {
            "number": 64,
            "ticks": 53762,
            "time": 56.00208333333333,
            "value": 1
          },
          {
            "number": 64,
            "ticks": 54241,
            "time": 56.501041666666666,
            "value": 0
          },
          {
            "number": 64,
            "ticks": 54242,
            "time": 56.50208333333333,
            "value": 1
          },
          {
            "number": 64,
            "ticks": 55681,
            "time": 58.001041666666666,
            "value": 0
          },
          {
            "number": 64,
            "ticks": 55682,
            "time": 58.00208333333333,
            "value": 1
          },
          {
            "number": 64,
            "ticks": 57601,
            "time": 60.001041666666666,
            "value": 0
          },
          {
            "number": 64,
            "ticks": 57602,
            "time": 60.00208333333333,
            "value": 1
          },
          {
            "number": 64,
            "ticks": 59521,
            "time": 62.001041666666666,
            "value": 0
          },
          {
            "number": 64,
            "ticks": 59522,
            "time": 62.00208333333333,
            "value": 1
          },
          {
            "number": 64,
            "ticks": 61441,
            "time": 64.00104166666667,
            "value": 0
          },
          {
            "number": 64,
            "ticks": 61442,
            "time": 64.00208333333333,
            "value": 1
          },
          {
            "number": 64,
            "ticks": 63361,
            "time": 66.00104166666667,
            "value": 0
          },
          {
            "number": 64,
            "ticks": 63362,
            "time": 66.00208333333333,
            "value": 1
          },
          {
            "number": 64,
            "ticks": 65281,
            "time": 68.00104166666667,
            "value": 0
          },
          {
            "number": 64,
            "ticks": 65282,
            "time": 68.00208333333333,
            "value": 1
          },
          {
            "number": 64,
            "ticks": 67201,
            "time": 70.00104166666667,
            "value": 0
          },
          {
            "number": 64,
            "ticks": 67202,
            "time": 70.00208333333333,
            "value": 1
          },
          {
            "number": 64,
            "ticks": 69121,
            "time": 72.00104166666667,
            "value": 0
          },
          {
            "number": 64,
            "ticks": 69122,
            "time": 72.00208333333333,
            "value": 1
          },
          {
            "number": 64,
            "ticks": 71041,
            "time": 74.00104166666667,
            "value": 0
          },
          {
            "number": 64,
            "ticks": 71042,
            "time": 74.00208333333333,
            "value": 1
          },
          {
            "number": 64,
            "ticks": 72961,
            "time": 76.00104166666667,
            "value": 0
          },
          {
            "number": 64,
            "ticks": 72962,
            "time": 76.00208333333333,
            "value": 1
          },
          {
            "number": 64,
            "ticks": 74881,
            "time": 78.00104166666667,
            "value": 0
          },
          {
            "number": 64,
            "ticks": 74882,
            "time": 78.00208333333333,
            "value": 1
          },
          {
            "number": 64,
            "ticks": 76801,
            "time": 80.00104166666667,
            "value": 0
          },
          {
            "number": 64,
            "ticks": 76802,
            "time": 80.00208333333333,
            "value": 1
          },
          {
            "number": 64,
            "ticks": 78721,
            "time": 82.00104166666667,
            "value": 0
          },
          {
            "number": 64,
            "ticks": 78722,
            "time": 82.00208333333333,
            "value": 1
          },
          {
            "number": 64,
            "ticks": 79441,
            "time": 82.75104166666667,
            "value": 0
          },
          {
            "number": 64,
            "ticks": 79442,
            "time": 82.75208333333333,
            "value": 1
          },
          {
            "number": 64,
            "ticks": 80641,
            "time": 84.00104166666667,
            "value": 0
          },
          {
            "number": 64,
            "ticks": 80642,
            "time": 84.00208333333333,
            "value": 1
          },
          {
            "number": 64,
            "ticks": 81361,
            "time": 84.75104166666667,
            "value": 0
          },
          {
            "number": 64,
            "ticks": 81362,
            "time": 84.75208333333333,
            "value": 1
          },
          {
            "number": 64,
            "ticks": 82561,
            "time": 86.00104166666667,
            "value": 0
          },
          {
            "number": 64,
            "ticks": 82562,
            "time": 86.00208333333333,
            "value": 1
          },
          {
            "number": 64,
            "ticks": 83281,
            "time": 86.75104166666667,
            "value": 0
          },
          {
            "number": 64,
            "ticks": 83282,
            "time": 86.75208333333333,
            "value": 1
          },
          {
            "number": 64,
            "ticks": 84481,
            "time": 88.00104166666667,
            "value": 0
          },
          {
            "number": 64,
            "ticks": 84482,
            "time": 88.00208333333333,
            "value": 1
          },
          {
            "number": 64,
            "ticks": 84961,
            "time": 88.50104166666667,
            "value": 0
          },
          {
            "number": 64,
            "ticks": 84962,
            "time": 88.50208333333333,
            "value": 1
          },
          {
            "number": 64,
            "ticks": 86401,
            "time": 90.00104166666667,
            "value": 0
          },
          {
            "number": 64,
            "ticks": 86402,
            "time": 90.00208333333333,
            "value": 1
          },
          {
            "number": 64,
            "ticks": 87121,
            "time": 90.75104166666667,
            "value": 0
          },
          {
            "number": 64,
            "ticks": 87122,
            "time": 90.75208333333333,
            "value": 1
          },
          {
            "number": 64,
            "ticks": 88321,
            "time": 92.00104166666667,
            "value": 0
          },
          {
            "number": 64,
            "ticks": 88322,
            "time": 92.00208333333333,
            "value": 1
          },
          {
            "number": 64,
            "ticks": 89041,
            "time": 92.75104166666667,
            "value": 0
          },
          {
            "number": 64,
            "ticks": 89042,
            "time": 92.75208333333333,
            "value": 1
          },
          {
            "number": 64,
            "ticks": 90241,
            "time": 94.00104166666667,
            "value": 0
          },
          {
            "number": 64,
            "ticks": 90242,
            "time": 94.00208333333333,
            "value": 1
          },
          {
            "number": 64,
            "ticks": 90961,
            "time": 94.75104166666667,
            "value": 0
          },
          {
            "number": 64,
            "ticks": 90962,
            "time": 94.75208333333333,
            "value": 1
          },
          {
            "number": 64,
            "ticks": 92161,
            "time": 96.00104166666667,
            "value": 0
          },
          {
            "number": 64,
            "ticks": 92162,
            "time": 96.00208333333333,
            "value": 1
          },
          {
            "number": 64,
            "ticks": 92641,
            "time": 96.50104166666667,
            "value": 0
          },
          {
            "number": 64,
            "ticks": 92642,
            "time": 96.50208333333333,
            "value": 1
          },
          {
            "number": 64,
            "ticks": 94081,
            "time": 98.00104166666667,
            "value": 0
          },
          {
            "number": 64,
            "ticks": 94082,
            "time": 98.00208333333333,
            "value": 1
          },
          {
            "number": 64,
            "ticks": 94801,
            "time": 98.75104166666667,
            "value": 0
          },
          {
            "number": 64,
            "ticks": 94802,
            "time": 98.75208333333333,
            "value": 1
          },
          {
            "number": 64,
            "ticks": 96001,
            "time": 100.00104166666667,
            "value": 0
          },
          {
            "number": 64,
            "ticks": 96002,
            "time": 100.00208333333333,
            "value": 1
          },
          {
            "number": 64,
            "ticks": 96721,
            "time": 100.75104166666667,
            "value": 0
          },
          {
            "number": 64,
            "ticks": 96722,
            "time": 100.75208333333333,
            "value": 1
          },
          {
            "number": 64,
            "ticks": 97921,
            "time": 102.00104166666667,
            "value": 0
          },
          {
            "number": 64,
            "ticks": 97922,
            "time": 102.00208333333333,
            "value": 1
          },
          {
            "number": 64,
            "ticks": 98641,
            "time": 102.75104166666667,
            "value": 0
          },
          {
            "number": 64,
            "ticks": 98642,
            "time": 102.75208333333333,
            "value": 1
          },
          {
            "number": 64,
            "ticks": 99841,
            "time": 104.00104166666667,
            "value": 0
          },
          {
            "number": 64,
            "ticks": 99842,
            "time": 104.00208333333333,
            "value": 1
          },
          {
            "number": 64,
            "ticks": 100321,
            "time": 104.50104166666667,
            "value": 0
          },
          {
            "number": 64,
            "ticks": 100322,
            "time": 104.50208333333333,
            "value": 1
          },
          {
            "number": 64,
            "ticks": 101761,
            "time": 106.00104166666667,
            "value": 0
          },
          {
            "number": 64,
            "ticks": 101762,
            "time": 106.00208333333333,
            "value": 1
          },
          {
            "number": 64,
            "ticks": 102481,
            "time": 106.75104166666667,
            "value": 0
          },
          {
            "number": 64,
            "ticks": 102482,
            "time": 106.75208333333333,
            "value": 1
          },
          {
            "number": 64,
            "ticks": 103681,
            "time": 108.00104166666667,
            "value": 0
          },
          {
            "number": 64,
            "ticks": 103682,
            "time": 108.00208333333333,
            "value": 1
          },
          {
            "number": 64,
            "ticks": 104401,
            "time": 108.75104166666667,
            "value": 0
          },
          {
            "number": 64,
            "ticks": 104402,
            "time": 108.75208333333333,
            "value": 1
          },
          {
            "number": 64,
            "ticks": 105601,
            "time": 110.00104166666667,
            "value": 0
          },
          {
            "number": 64,
            "ticks": 105602,
            "time": 110.00208333333333,
            "value": 1
          },
          {
            "number": 64,
            "ticks": 106321,
            "time": 110.75104166666667,
            "value": 0
          },
          {
            "number": 64,
            "ticks": 106322,
            "time": 110.75208333333333,
            "value": 1
          },
          {
            "number": 64,
            "ticks": 107521,
            "time": 112.00104166666667,
            "value": 0
          },
          {
            "number": 64,
            "ticks": 107522,
            "time": 112.00208333333333,
            "value": 1
          },
          {
            "number": 64,
            "ticks": 108001,
            "time": 112.50104166666667,
            "value": 0
          },
          {
            "number": 64,
            "ticks": 108002,
            "time": 112.50208333333333,
            "value": 1
          },
          {
            "number": 64,
            "ticks": 109441,
            "time": 114.00104166666667,
            "value": 0
          },
          {
            "number": 64,
            "ticks": 109442,
            "time": 114.00208333333333,
            "value": 1
          },
          {
            "number": 64,
            "ticks": 111361,
            "time": 116.00104166666667,
            "value": 0
          },
          {
            "number": 64,
            "ticks": 111362,
            "time": 116.00208333333333,
            "value": 1
          },
          {
            "number": 64,
            "ticks": 113281,
            "time": 118.00104166666667,
            "value": 0
          },
          {
            "number": 64,
            "ticks": 113282,
            "time": 118.00208333333333,
            "value": 1
          },
          {
            "number": 64,
            "ticks": 115201,
            "time": 120.00104166666667,
            "value": 0
          },
          {
            "number": 64,
            "ticks": 115202,
            "time": 120.00208333333333,
            "value": 1
          },
          {
            "number": 64,
            "ticks": 117121,
            "time": 122.00104166666667,
            "value": 0
          },
          {
            "number": 64,
            "ticks": 117122,
            "time": 122.00208333333333,
            "value": 1
          },
          {
            "number": 64,
            "ticks": 119041,
            "time": 124.00104166666667,
            "value": 0
          },
          {
            "number": 64,
            "ticks": 119042,
            "time": 124.00208333333333,
            "value": 1
          },
          {
            "number": 64,
            "ticks": 120961,
            "time": 126.00104166666667,
            "value": 0
          },
          {
            "number": 64,
            "ticks": 120962,
            "time": 126.00208333333333,
            "value": 1
          },
          {
            "number": 64,
            "ticks": 122881,
            "time": 128.00104166666668,
            "value": 0
          },
          {
            "number": 64,
            "ticks": 122882,
            "time": 128.00208333333333,
            "value": 1
          },
          {
            "number": 64,
            "ticks": 124801,
            "time": 130.00104166666665,
            "value": 0
          },
          {
            "number": 64,
            "ticks": 124802,
            "time": 130.00208333333333,
            "value": 1
          },
          {
            "number": 64,
            "ticks": 126721,
            "time": 132.00104166666665,
            "value": 0
          },
          {
            "number": 64,
            "ticks": 126722,
            "time": 132.00208333333333,
            "value": 1
          },
          {
            "number": 64,
            "ticks": 128641,
            "time": 134.00104166666665,
            "value": 0
          },
          {
            "number": 64,
            "ticks": 128642,
            "time": 134.00208333333333,
            "value": 1
          },
          {
            "number": 64,
            "ticks": 130561,
            "time": 136.00104166666665,
            "value": 0
          },
          {
            "number": 64,
            "ticks": 130562,
            "time": 136.00208333333333,
            "value": 1
          },
          {
            "number": 64,
            "ticks": 132481,
            "time": 138.00104166666665,
            "value": 0
          },
          {
            "number": 64,
            "ticks": 132482,
            "time": 138.00208333333333,
            "value": 1
          },
          {
            "number": 64,
            "ticks": 134401,
            "time": 140.00104166666665,
            "value": 0
          },
          {
            "number": 64,
            "ticks": 134402,
            "time": 140.00208333333333,
            "value": 1
          },
          {
            "number": 64,
            "ticks": 136321,
            "time": 142.00104166666665,
            "value": 0
          },
          {
            "number": 64,
            "ticks": 136322,
            "time": 142.00208333333333,
            "value": 1
          },
          {
            "number": 64,
            "ticks": 138241,
            "time": 144.00104166666665,
            "value": 0
          },
          {
            "number": 64,
            "ticks": 138242,
            "time": 144.00208333333333,
            "value": 1
          },
          {
            "number": 64,
            "ticks": 140161,
            "time": 146.00104166666665,
            "value": 0
          },
          {
            "number": 64,
            "ticks": 140162,
            "time": 146.00208333333333,
            "value": 1
          },
          {
            "number": 64,
            "ticks": 142081,
            "time": 148.00104166666665,
            "value": 0
          },
          {
            "number": 64,
            "ticks": 142082,
            "time": 148.00208333333333,
            "value": 1
          },
          {
            "number": 64,
            "ticks": 144001,
            "time": 150.00104166666665,
            "value": 0
          },
          {
            "number": 64,
            "ticks": 144002,
            "time": 150.00208333333333,
            "value": 1
          },
          {
            "number": 64,
            "ticks": 145921,
            "time": 152.00104166666665,
            "value": 0
          },
          {
            "number": 64,
            "ticks": 145922,
            "time": 152.00208333333333,
            "value": 1
          },
          {
            "number": 64,
            "ticks": 147841,
            "time": 154.00104166666665,
            "value": 0
          },
          {
            "number": 64,
            "ticks": 147842,
            "time": 154.00208333333333,
            "value": 1
          },
          {
            "number": 64,
            "ticks": 148561,
            "time": 154.75104166666665,
            "value": 0
          },
          {
            "number": 64,
            "ticks": 148562,
            "time": 154.75208333333333,
            "value": 1
          },
          {
            "number": 64,
            "ticks": 149761,
            "time": 156.00104166666665,
            "value": 0
          },
          {
            "number": 64,
            "ticks": 149762,
            "time": 156.00208333333333,
            "value": 1
          },
          {
            "number": 64,
            "ticks": 150481,
            "time": 156.75104166666665,
            "value": 0
          },
          {
            "number": 64,
            "ticks": 150482,
            "time": 156.75208333333333,
            "value": 1
          },
          {
            "number": 64,
            "ticks": 151681,
            "time": 158.00104166666665,
            "value": 0
          },
          {
            "number": 64,
            "ticks": 151682,
            "time": 158.00208333333333,
            "value": 1
          },
          {
            "number": 64,
            "ticks": 152401,
            "time": 158.75104166666665,
            "value": 0
          },
          {
            "number": 64,
            "ticks": 152402,
            "time": 158.75208333333333,
            "value": 1
          },
          {
            "number": 64,
            "ticks": 153601,
            "time": 160.00104166666665,
            "value": 0
          },
          {
            "number": 64,
            "ticks": 153602,
            "time": 160.00208333333333,
            "value": 1
          },
          {
            "number": 64,
            "ticks": 154081,
            "time": 160.50104166666665,
            "value": 0
          },
          {
            "number": 64,
            "ticks": 154082,
            "time": 160.50208333333333,
            "value": 1
          },
          {
            "number": 64,
            "ticks": 155521,
            "time": 162.00104166666665,
            "value": 0
          },
          {
            "number": 64,
            "ticks": 155522,
            "time": 162.00208333333333,
            "value": 1
          },
          {
            "number": 64,
            "ticks": 156241,
            "time": 162.75104166666665,
            "value": 0
          },
          {
            "number": 64,
            "ticks": 156242,
            "time": 162.75208333333333,
            "value": 1
          },
          {
            "number": 64,
            "ticks": 157441,
            "time": 164.00104166666665,
            "value": 0
          },
          {
            "number": 64,
            "ticks": 157442,
            "time": 164.00208333333333,
            "value": 1
          },
          {
            "number": 64,
            "ticks": 158161,
            "time": 164.75104166666665,
            "value": 0
          },
          {
            "number": 64,
            "ticks": 158162,
            "time": 164.75208333333333,
            "value": 1
          },
          {
            "number": 64,
            "ticks": 159361,
            "time": 166.00104166666665,
            "value": 0
          },
          {
            "number": 64,
            "ticks": 159362,
            "time": 166.00208333333333,
            "value": 1
          },
          {
            "number": 64,
            "ticks": 160081,
            "time": 166.75104166666665,
            "value": 0
          },
          {
            "number": 64,
            "ticks": 160082,
            "time": 166.75208333333333,
            "value": 1
          },
          {
            "number": 64,
            "ticks": 161281,
            "time": 168.00104166666665,
            "value": 0
          },
          {
            "number": 64,
            "ticks": 161282,
            "time": 168.00208333333333,
            "value": 1
          },
          {
            "number": 64,
            "ticks": 161761,
            "time": 168.50104166666665,
            "value": 0
          },
          {
            "number": 64,
            "ticks": 161762,
            "time": 168.50208333333333,
            "value": 1
          },
          {
            "number": 64,
            "ticks": 163201,
            "time": 170.00104166666665,
            "value": 0
          },
          {
            "number": 64,
            "ticks": 163202,
            "time": 170.00208333333333,
            "value": 1
          },
          {
            "number": 64,
            "ticks": 163921,
            "time": 170.75104166666665,
            "value": 0
          },
          {
            "number": 64,
            "ticks": 163922,
            "time": 170.75208333333333,
            "value": 1
          },
          {
            "number": 64,
            "ticks": 165121,
            "time": 172.00104166666665,
            "value": 0
          },
          {
            "number": 64,
            "ticks": 165122,
            "time": 172.00208333333333,
            "value": 1
          },
          {
            "number": 64,
            "ticks": 165841,
            "time": 172.75104166666665,
            "value": 0
          },
          {
            "number": 64,
            "ticks": 165842,
            "time": 172.75208333333333,
            "value": 1
          },
          {
            "number": 64,
            "ticks": 167041,
            "time": 174.00104166666665,
            "value": 0
          },
          {
            "number": 64,
            "ticks": 167042,
            "time": 174.00208333333333,
            "value": 1
          },
          {
            "number": 64,
            "ticks": 167761,
            "time": 174.75104166666665,
            "value": 0
          },
          {
            "number": 64,
            "ticks": 167762,
            "time": 174.75208333333333,
            "value": 1
          },
          {
            "number": 64,
            "ticks": 168961,
            "time": 176.00104166666665,
            "value": 0
          },
          {
            "number": 64,
            "ticks": 168962,
            "time": 176.00208333333333,
            "value": 1
          },
          {
            "number": 64,
            "ticks": 169441,
            "time": 176.50104166666665,
            "value": 0
          },
          {
            "number": 64,
            "ticks": 169442,
            "time": 176.50208333333333,
            "value": 1
          },
          {
            "number": 64,
            "ticks": 170881,
            "time": 178.00104166666665,
            "value": 0
          },
          {
            "number": 64,
            "ticks": 170882,
            "time": 178.00208333333333,
            "value": 1
          },
          {
            "number": 64,
            "ticks": 171601,
            "time": 178.75104166666665,
            "value": 0
          },
          {
            "number": 64,
            "ticks": 171602,
            "time": 178.75208333333333,
            "value": 1
          },
          {
            "number": 64,
            "ticks": 172801,
            "time": 180.00104166666665,
            "value": 0
          },
          {
            "number": 64,
            "ticks": 172802,
            "time": 180.00208333333333,
            "value": 1
          },
          {
            "number": 64,
            "ticks": 173521,
            "time": 180.75104166666665,
            "value": 0
          },
          {
            "number": 64,
            "ticks": 173522,
            "time": 180.75208333333333,
            "value": 1
          },
          {
            "number": 64,
            "ticks": 174721,
            "time": 182.00104166666665,
            "value": 0
          },
          {
            "number": 64,
            "ticks": 174722,
            "time": 182.00208333333333,
            "value": 1
          },
          {
            "number": 64,
            "ticks": 175441,
            "time": 182.75104166666665,
            "value": 0
          },
          {
            "number": 64,
            "ticks": 175442,
            "time": 182.75208333333333,
            "value": 1
          },
          {
            "number": 64,
            "ticks": 176641,
            "time": 184.00104166666665,
            "value": 0
          },
          {
            "number": 64,
            "ticks": 176642,
            "time": 184.00208333333333,
            "value": 1
          },
          {
            "number": 64,
            "ticks": 177121,
            "time": 184.50104166666665,
            "value": 0
          },
          {
            "number": 64,
            "ticks": 177122,
            "time": 184.50208333333333,
            "value": 1
          },
          {
            "number": 64,
            "ticks": 178561,
            "time": 186.00104166666665,
            "value": 0
          },
          {
            "number": 64,
            "ticks": 178562,
            "time": 186.00208333333333,
            "value": 1
          },
          {
            "number": 64,
            "ticks": 179281,
            "time": 186.75104166666665,
            "value": 0
          },
          {
            "number": 64,
            "ticks": 179282,
            "time": 186.75208333333333,
            "value": 1
          },
          {
            "number": 64,
            "ticks": 180481,
            "time": 188.00104166666665,
            "value": 0
          },
          {
            "number": 64,
            "ticks": 180482,
            "time": 188.00208333333333,
            "value": 1
          },
          {
            "number": 64,
            "ticks": 181201,
            "time": 188.75104166666665,
            "value": 0
          },
          {
            "number": 64,
            "ticks": 181202,
            "time": 188.75208333333333,
            "value": 1
          },
          {
            "number": 64,
            "ticks": 182401,
            "time": 190.00104166666665,
            "value": 0
          },
          {
            "number": 64,
            "ticks": 182402,
            "time": 190.00208333333333,
            "value": 1
          },
          {
            "number": 64,
            "ticks": 183121,
            "time": 190.75104166666665,
            "value": 0
          },
          {
            "number": 64,
            "ticks": 183122,
            "time": 190.75208333333333,
            "value": 1
          },
          {
            "number": 64,
            "ticks": 184321,
            "time": 192.00104166666665,
            "value": 0
          },
          {
            "number": 64,
            "ticks": 184322,
            "time": 192.00208333333333,
            "value": 1
          },
          {
            "number": 64,
            "ticks": 184801,
            "time": 192.50104166666665,
            "value": 0
          },
          {
            "number": 64,
            "ticks": 184802,
            "time": 192.50208333333333,
            "value": 1
          },
          {
            "number": 64,
            "ticks": 186241,
            "time": 194.00104166666665,
            "value": 0
          },
          {
            "number": 64,
            "ticks": 186242,
            "time": 194.00208333333333,
            "value": 1
          },
          {
            "number": 64,
            "ticks": 186961,
            "time": 194.75104166666665,
            "value": 0
          },
          {
            "number": 64,
            "ticks": 186962,
            "time": 194.75208333333333,
            "value": 1
          },
          {
            "number": 64,
            "ticks": 188161,
            "time": 196.00104166666665,
            "value": 0
          },
          {
            "number": 64,
            "ticks": 188162,
            "time": 196.00208333333333,
            "value": 1
          },
          {
            "number": 64,
            "ticks": 188881,
            "time": 196.75104166666665,
            "value": 0
          },
          {
            "number": 64,
            "ticks": 188882,
            "time": 196.75208333333333,
            "value": 1
          },
          {
            "number": 64,
            "ticks": 190081,
            "time": 198.00104166666665,
            "value": 0
          },
          {
            "number": 64,
            "ticks": 190082,
            "time": 198.00208333333333,
            "value": 1
          },
          {
            "number": 64,
            "ticks": 190801,
            "time": 198.75104166666665,
            "value": 0
          },
          {
            "number": 64,
            "ticks": 190802,
            "time": 198.75208333333333,
            "value": 1
          },
          {
            "number": 64,
            "ticks": 192001,
            "time": 200.00104166666665,
            "value": 0
          },
          {
            "number": 64,
            "ticks": 192002,
            "time": 200.00208333333333,
            "value": 1
          },
          {
            "number": 64,
            "ticks": 192481,
            "time": 200.50104166666665,
            "value": 0
          },
          {
            "number": 64,
            "ticks": 192482,
            "time": 200.50208333333333,
            "value": 1
          },
          {
            "number": 64,
            "ticks": 193920,
            "time": 202,
            "value": 0
          }
        ]
      },
      "pitchBends": [],
      "instrument": {
        "family": "piano",
        "number": 0,
        "name": "acoustic grand piano"
      },
      "name": "Piano\u0000",
      "notes": [
        {
          "duration": 0.1177083333333333,
          "durationTicks": 113,
          "midi": 34,
          "name": "A#1",
          "ticks": 840,
          "time": 0.875,
          "velocity": 0.6299212598425197
        },
        {
          "duration": 0.23645833333333344,
          "durationTicks": 227,
          "midi": 34,
          "name": "A#1",
          "ticks": 960,
          "time": 1,
          "velocity": 0.6299212598425197
        },
        {
          "duration": 0.1177083333333333,
          "durationTicks": 113,
          "midi": 34,
          "name": "A#1",
          "ticks": 1200,
          "time": 1.25,
          "velocity": 0.6299212598425197
        },
        {
          "duration": 0.23645833333333344,
          "durationTicks": 227,
          "midi": 34,
          "name": "A#1",
          "ticks": 1320,
          "time": 1.375,
          "velocity": 0.6299212598425197
        },
        {
          "duration": 0.1177083333333333,
          "durationTicks": 113,
          "midi": 34,
          "name": "A#1",
          "ticks": 1560,
          "time": 1.625,
          "velocity": 0.6299212598425197
        },
        {
          "duration": 0.1177083333333333,
          "durationTicks": 113,
          "midi": 34,
          "name": "A#1",
          "ticks": 1680,
          "time": 1.75,
          "velocity": 0.6299212598425197
        },
        {
          "duration": 0.1177083333333333,
          "durationTicks": 113,
          "midi": 34,
          "name": "A#1",
          "ticks": 1800,
          "time": 1.875,
          "velocity": 0.6299212598425197
        },
        {
          "duration": 0.23645833333333321,
          "durationTicks": 227,
          "midi": 34,
          "name": "A#1",
          "ticks": 1920,
          "time": 2,
          "velocity": 0.6299212598425197
        },
        {
          "duration": 0.23645833333333321,
          "durationTicks": 227,
          "midi": 46,
          "name": "A#2",
          "ticks": 1920,
          "time": 2,
          "velocity": 0.6299212598425197
        },
        {
          "duration": 0.1177083333333333,
          "durationTicks": 113,
          "midi": 37,
          "name": "C#2",
          "ticks": 2160,
          "time": 2.25,
          "velocity": 0.6299212598425197
        },
        {
          "duration": 0.1177083333333333,
          "durationTicks": 113,
          "midi": 41,
          "name": "F2",
          "ticks": 2280,
          "time": 2.375,
          "velocity": 0.6299212598425197
        },
        {
          "duration": 0.23645833333333321,
          "durationTicks": 227,
          "midi": 41,
          "name": "F2",
          "ticks": 2400,
          "time": 2.5,
          "velocity": 0.6299212598425197
        },
        {
          "duration": 0.23645833333333321,
          "durationTicks": 227,
          "midi": 46,
          "name": "A#2",
          "ticks": 2400,
          "time": 2.5,
          "velocity": 0.6299212598425197
        },
        {
          "duration": 0.23645833333333321,
          "durationTicks": 227,
          "midi": 32,
          "name": "G#1",
          "ticks": 2640,
          "time": 2.75,
          "velocity": 0.6299212598425197
        },
        {
          "duration": 0.23645833333333321,
          "durationTicks": 227,
          "midi": 44,
          "name": "G#2",
          "ticks": 2640,
          "time": 2.75,
          "velocity": 0.6299212598425197
        },
        {
          "duration": 0.1177083333333333,
          "durationTicks": 113,
          "midi": 48,
          "name": "C3",
          "ticks": 2880,
          "time": 3,
          "velocity": 0.6299212598425197
        },
        {
          "duration": 0.1177083333333333,
          "durationTicks": 113,
          "midi": 51,
          "name": "D#3",
          "ticks": 3000,
          "time": 3.125,
          "velocity": 0.6299212598425197
        },
        {
          "duration": 0.23645833333333321,
          "durationTicks": 227,
          "midi": 56,
          "name": "G#3",
          "ticks": 3120,
          "time": 3.25,
          "velocity": 0.6299212598425197
        },
        {
          "duration": 0.1177083333333333,
          "durationTicks": 113,
          "midi": 51,
          "name": "D#3",
          "ticks": 3360,
          "time": 3.5,
          "velocity": 0.6299212598425197
        },
        {
          "duration": 0.1177083333333333,
          "durationTicks": 113,
          "midi": 48,
          "name": "C3",
          "ticks": 3480,
          "time": 3.625,
          "velocity": 0.6299212598425197
        },
        {
          "duration": 0.23645833333333321,
          "durationTicks": 227,
          "midi": 44,
          "name": "G#2",
          "ticks": 3600,
          "time": 3.75,
          "velocity": 0.6299212598425197
        },
        {
          "duration": 0.23645833333333321,
          "durationTicks": 227,
          "midi": 41,
          "name": "F2",
          "ticks": 3840,
          "time": 4,
          "velocity": 0.6299212598425197
        },
        {
          "duration": 0.23645833333333321,
          "durationTicks": 227,
          "midi": 53,
          "name": "F3",
          "ticks": 3840,
          "time": 4,
          "velocity": 0.6299212598425197
        },
        {
          "duration": 0.11770833333333375,
          "durationTicks": 113,
          "midi": 44,
          "name": "G#2",
          "ticks": 4080,
          "time": 4.25,
          "velocity": 0.6299212598425197
        },
        {
          "duration": 0.11770833333333375,
          "durationTicks": 113,
          "midi": 48,
          "name": "C3",
          "ticks": 4200,
          "time": 4.375,
          "velocity": 0.6299212598425197
        },
        {
          "duration": 0.23645833333333321,
          "durationTicks": 227,
          "midi": 51,
          "name": "D#3",
          "ticks": 4320,
          "time": 4.5,
          "velocity": 0.6299212598425197
        },
        {
          "duration": 0.23645833333333321,
          "durationTicks": 227,
          "midi": 53,
          "name": "F3",
          "ticks": 4320,
          "time": 4.5,
          "velocity": 0.6299212598425197
        },
        {
          "duration": 0.23645833333333321,
          "durationTicks": 227,
          "midi": 34,
          "name": "A#1",
          "ticks": 4560,
          "time": 4.75,
          "velocity": 0.6299212598425197
        },
        {
          "duration": 0.23645833333333321,
          "durationTicks": 227,
          "midi": 46,
          "name": "A#2",
          "ticks": 4560,
          "time": 4.75,
          "velocity": 0.6299212598425197
        },
        {
          "duration": 0.11770833333333375,
          "durationTicks": 113,
          "midi": 49,
          "name": "C#3",
          "ticks": 4800,
          "time": 5,
          "velocity": 0.6299212598425197
        },
        {
          "duration": 0.11770833333333375,
          "durationTicks": 113,
          "midi": 53,
          "name": "F3",
          "ticks": 4920,
          "time": 5.125,
          "velocity": 0.6299212598425197
        },
        {
          "duration": 0.23645833333333321,
          "durationTicks": 227,
          "midi": 58,
          "name": "A#3",
          "ticks": 5040,
          "time": 5.25,
          "velocity": 0.6299212598425197
        },
        {
          "duration": 0.11770833333333375,
          "durationTicks": 113,
          "midi": 56,
          "name": "G#3",
          "ticks": 5280,
          "time": 5.5,
          "velocity": 0.6299212598425197
        },
        {
          "duration": 0.11770833333333375,
          "durationTicks": 113,
          "midi": 54,
          "name": "F#3",
          "ticks": 5400,
          "time": 5.625,
          "velocity": 0.6299212598425197
        },
        {
          "duration": 0.23645833333333321,
          "durationTicks": 227,
          "midi": 51,
          "name": "D#3",
          "ticks": 5520,
          "time": 5.75,
          "velocity": 0.6299212598425197
        },
        {
          "duration": 0.23645833333333321,
          "durationTicks": 227,
          "midi": 34,
          "name": "A#1",
          "ticks": 5760,
          "time": 6,
          "velocity": 0.6299212598425197
        },
        {
          "duration": 0.23645833333333321,
          "durationTicks": 227,
          "midi": 46,
          "name": "A#2",
          "ticks": 5760,
          "time": 6,
          "velocity": 0.6299212598425197
        },
        {
          "duration": 0.11770833333333375,
          "durationTicks": 113,
          "midi": 37,
          "name": "C#2",
          "ticks": 6000,
          "time": 6.25,
          "velocity": 0.6299212598425197
        },
        {
          "duration": 0.11770833333333375,
          "durationTicks": 113,
          "midi": 41,
          "name": "F2",
          "ticks": 6120,
          "time": 6.375,
          "velocity": 0.6299212598425197
        },
        {
          "duration": 0.23645833333333321,
          "durationTicks": 227,
          "midi": 41,
          "name": "F2",
          "ticks": 6240,
          "time": 6.5,
          "velocity": 0.6299212598425197
        },
        {
          "duration": 0.23645833333333321,
          "durationTicks": 227,
          "midi": 46,
          "name": "A#2",
          "ticks": 6240,
          "time": 6.5,
          "velocity": 0.6299212598425197
        },
        {
          "duration": 0.23645833333333321,
          "durationTicks": 227,
          "midi": 32,
          "name": "G#1",
          "ticks": 6480,
          "time": 6.75,
          "velocity": 0.6299212598425197
        },
        {
          "duration": 0.23645833333333321,
          "durationTicks": 227,
          "midi": 44,
          "name": "G#2",
          "ticks": 6480,
          "time": 6.75,
          "velocity": 0.6299212598425197
        },
        {
          "duration": 0.11770833333333375,
          "durationTicks": 113,
          "midi": 48,
          "name": "C3",
          "ticks": 6720,
          "time": 7,
          "velocity": 0.6299212598425197
        },
        {
          "duration": 0.11770833333333375,
          "durationTicks": 113,
          "midi": 51,
          "name": "D#3",
          "ticks": 6840,
          "time": 7.125,
          "velocity": 0.6299212598425197
        },
        {
          "duration": 0.23645833333333321,
          "durationTicks": 227,
          "midi": 56,
          "name": "G#3",
          "ticks": 6960,
          "time": 7.25,
          "velocity": 0.6299212598425197
        },
        {
          "duration": 0.11770833333333375,
          "durationTicks": 113,
          "midi": 51,
          "name": "D#3",
          "ticks": 7200,
          "time": 7.5,
          "velocity": 0.6299212598425197
        },
        {
          "duration": 0.11770833333333375,
          "durationTicks": 113,
          "midi": 48,
          "name": "C3",
          "ticks": 7320,
          "time": 7.625,
          "velocity": 0.6299212598425197
        },
        {
          "duration": 0.23645833333333321,
          "durationTicks": 227,
          "midi": 44,
          "name": "G#2",
          "ticks": 7440,
          "time": 7.75,
          "velocity": 0.6299212598425197
        },
        {
          "duration": 0.23645833333333321,
          "durationTicks": 227,
          "midi": 41,
          "name": "F2",
          "ticks": 7680,
          "time": 8,
          "velocity": 0.6299212598425197
        },
        {
          "duration": 0.23645833333333321,
          "durationTicks": 227,
          "midi": 51,
          "name": "D#3",
          "ticks": 7680,
          "time": 8,
          "velocity": 0.6299212598425197
        },
        {
          "duration": 0.11770833333333286,
          "durationTicks": 113,
          "midi": 44,
          "name": "G#2",
          "ticks": 7920,
          "time": 8.25,
          "velocity": 0.6299212598425197
        },
        {
          "duration": 0.11770833333333286,
          "durationTicks": 113,
          "midi": 48,
          "name": "C3",
          "ticks": 8040,
          "time": 8.375,
          "velocity": 0.6299212598425197
        },
        {
          "duration": 0.23645833333333321,
          "durationTicks": 227,
          "midi": 48,
          "name": "C3",
          "ticks": 8160,
          "time": 8.5,
          "velocity": 0.6299212598425197
        },
        {
          "duration": 0.23645833333333321,
          "durationTicks": 227,
          "midi": 53,
          "name": "F3",
          "ticks": 8160,
          "time": 8.5,
          "velocity": 0.6299212598425197
        },
        {
          "duration": 0.23645833333333321,
          "durationTicks": 227,
          "midi": 37,
          "name": "C#2",
          "ticks": 8400,
          "time": 8.75,
          "velocity": 0.6299212598425197
        },
        {
          "duration": 0.23645833333333321,
          "durationTicks": 227,
          "midi": 49,
          "name": "C#3",
          "ticks": 8400,
          "time": 8.75,
          "velocity": 0.6299212598425197
        },
        {
          "duration": 0.11770833333333286,
          "durationTicks": 113,
          "midi": 53,
          "name": "F3",
          "ticks": 8640,
          "time": 9,
          "velocity": 0.6299212598425197
        },
        {
          "duration": 0.11770833333333286,
          "durationTicks": 113,
          "midi": 56,
          "name": "G#3",
          "ticks": 8760,
          "time": 9.125,
          "velocity": 0.6299212598425197
        },
        {
          "duration": 0.23645833333333321,
          "durationTicks": 227,
          "midi": 61,
          "name": "C#4",
          "ticks": 8880,
          "time": 9.25,
          "velocity": 0.6299212598425197
        },
        {
          "duration": 0.11770833333333286,
          "durationTicks": 113,
          "midi": 56,
          "name": "G#3",
          "ticks": 9120,
          "time": 9.5,
          "velocity": 0.6299212598425197
        },
        {
          "duration": 0.11770833333333286,
          "durationTicks": 113,
          "midi": 53,
          "name": "F3",
          "ticks": 9240,
          "time": 9.625,
          "velocity": 0.6299212598425197
        },
        {
          "duration": 0.23645833333333321,
          "durationTicks": 227,
          "midi": 49,
          "name": "C#3",
          "ticks": 9360,
          "time": 9.75,
          "velocity": 0.6299212598425197
        },
        {
          "duration": 0.23645833333333321,
          "durationTicks": 227,
          "midi": 34,
          "name": "A#1",
          "ticks": 9600,
          "time": 10,
          "velocity": 0.6299212598425197
        },
        {
          "duration": 0.23645833333333321,
          "durationTicks": 227,
          "midi": 46,
          "name": "A#2",
          "ticks": 9600,
          "time": 10,
          "velocity": 0.6299212598425197
        },
        {
          "duration": 0.11770833333333286,
          "durationTicks": 113,
          "midi": 37,
          "name": "C#2",
          "ticks": 9840,
          "time": 10.25,
          "velocity": 0.6299212598425197
        },
        {
          "duration": 0.11770833333333286,
          "durationTicks": 113,
          "midi": 41,
          "name": "F2",
          "ticks": 9960,
          "time": 10.375,
          "velocity": 0.6299212598425197
        },
        {
          "duration": 0.23645833333333321,
          "durationTicks": 227,
          "midi": 41,
          "name": "F2",
          "ticks": 10080,
          "time": 10.5,
          "velocity": 0.6299212598425197
        },
        {
          "duration": 0.23645833333333321,
          "durationTicks": 227,
          "midi": 46,
          "name": "A#2",
          "ticks": 10080,
          "time": 10.5,
          "velocity": 0.6299212598425197
        },
        {
          "duration": 0.23645833333333321,
          "durationTicks": 227,
          "midi": 32,
          "name": "G#1",
          "ticks": 10320,
          "time": 10.75,
          "velocity": 0.6299212598425197
        },
        {
          "duration": 0.23645833333333321,
          "durationTicks": 227,
          "midi": 44,
          "name": "G#2",
          "ticks": 10320,
          "time": 10.75,
          "velocity": 0.6299212598425197
        },
        {
          "duration": 0.11770833333333286,
          "durationTicks": 113,
          "midi": 48,
          "name": "C3",
          "ticks": 10560,
          "time": 11,
          "velocity": 0.6299212598425197
        },
        {
          "duration": 0.11770833333333286,
          "durationTicks": 113,
          "midi": 51,
          "name": "D#3",
          "ticks": 10680,
          "time": 11.125,
          "velocity": 0.6299212598425197
        },
        {
          "duration": 0.23645833333333321,
          "durationTicks": 227,
          "midi": 56,
          "name": "G#3",
          "ticks": 10800,
          "time": 11.25,
          "velocity": 0.6299212598425197
        },
        {
          "duration": 0.11770833333333286,
          "durationTicks": 113,
          "midi": 51,
          "name": "D#3",
          "ticks": 11040,
          "time": 11.5,
          "velocity": 0.6299212598425197
        },
        {
          "duration": 0.11770833333333286,
          "durationTicks": 113,
          "midi": 48,
          "name": "C3",
          "ticks": 11160,
          "time": 11.625,
          "velocity": 0.6299212598425197
        },
        {
          "duration": 0.23645833333333321,
          "durationTicks": 227,
          "midi": 44,
          "name": "G#2",
          "ticks": 11280,
          "time": 11.75,
          "velocity": 0.6299212598425197
        },
        {
          "duration": 0.23645833333333321,
          "durationTicks": 227,
          "midi": 41,
          "name": "F2",
          "ticks": 11520,
          "time": 12,
          "velocity": 0.6299212598425197
        },
        {
          "duration": 0.23645833333333321,
          "durationTicks": 227,
          "midi": 53,
          "name": "F3",
          "ticks": 11520,
          "time": 12,
          "velocity": 0.6299212598425197
        },
        {
          "duration": 0.11770833333333286,
          "durationTicks": 113,
          "midi": 44,
          "name": "G#2",
          "ticks": 11760,
          "time": 12.25,
          "velocity": 0.6299212598425197
        },
        {
          "duration": 0.11770833333333286,
          "durationTicks": 113,
          "midi": 48,
          "name": "C3",
          "ticks": 11880,
          "time": 12.375,
          "velocity": 0.6299212598425197
        },
        {
          "duration": 0.23645833333333321,
          "durationTicks": 227,
          "midi": 51,
          "name": "D#3",
          "ticks": 12000,
          "time": 12.5,
          "velocity": 0.6299212598425197
        },
        {
          "duration": 0.23645833333333321,
          "durationTicks": 227,
          "midi": 53,
          "name": "F3",
          "ticks": 12000,
          "time": 12.5,
          "velocity": 0.6299212598425197
        },
        {
          "duration": 0.23645833333333321,
          "durationTicks": 227,
          "midi": 34,
          "name": "A#1",
          "ticks": 12240,
          "time": 12.75,
          "velocity": 0.6299212598425197
        },
        {
          "duration": 0.23645833333333321,
          "durationTicks": 227,
          "midi": 46,
          "name": "A#2",
          "ticks": 12240,
          "time": 12.75,
          "velocity": 0.6299212598425197
        },
        {
          "duration": 0.11770833333333286,
          "durationTicks": 113,
          "midi": 49,
          "name": "C#3",
          "ticks": 12480,
          "time": 13,
          "velocity": 0.6299212598425197
        },
        {
          "duration": 0.11770833333333286,
          "durationTicks": 113,
          "midi": 53,
          "name": "F3",
          "ticks": 12600,
          "time": 13.125,
          "velocity": 0.6299212598425197
        },
        {
          "duration": 0.23645833333333321,
          "durationTicks": 227,
          "midi": 58,
          "name": "A#3",
          "ticks": 12720,
          "time": 13.25,
          "velocity": 0.6299212598425197
        },
        {
          "duration": 0.11770833333333286,
          "durationTicks": 113,
          "midi": 56,
          "name": "G#3",
          "ticks": 12960,
          "time": 13.5,
          "velocity": 0.6299212598425197
        },
        {
          "duration": 0.11770833333333286,
          "durationTicks": 113,
          "midi": 54,
          "name": "F#3",
          "ticks": 13080,
          "time": 13.625,
          "velocity": 0.6299212598425197
        },
        {
          "duration": 0.23645833333333321,
          "durationTicks": 227,
          "midi": 51,
          "name": "D#3",
          "ticks": 13200,
          "time": 13.75,
          "velocity": 0.6299212598425197
        },
        {
          "duration": 0.23645833333333321,
          "durationTicks": 227,
          "midi": 34,
          "name": "A#1",
          "ticks": 13440,
          "time": 14,
          "velocity": 0.6299212598425197
        },
        {
          "duration": 0.23645833333333321,
          "durationTicks": 227,
          "midi": 46,
          "name": "A#2",
          "ticks": 13440,
          "time": 14,
          "velocity": 0.6299212598425197
        },
        {
          "duration": 0.11770833333333286,
          "durationTicks": 113,
          "midi": 37,
          "name": "C#2",
          "ticks": 13680,
          "time": 14.25,
          "velocity": 0.6299212598425197
        },
        {
          "duration": 0.11770833333333286,
          "durationTicks": 113,
          "midi": 41,
          "name": "F2",
          "ticks": 13800,
          "time": 14.375,
          "velocity": 0.6299212598425197
        },
        {
          "duration": 0.23645833333333321,
          "durationTicks": 227,
          "midi": 41,
          "name": "F2",
          "ticks": 13920,
          "time": 14.5,
          "velocity": 0.6299212598425197
        },
        {
          "duration": 0.23645833333333321,
          "durationTicks": 227,
          "midi": 46,
          "name": "A#2",
          "ticks": 13920,
          "time": 14.5,
          "velocity": 0.6299212598425197
        },
        {
          "duration": 0.23645833333333321,
          "durationTicks": 227,
          "midi": 32,
          "name": "G#1",
          "ticks": 14160,
          "time": 14.75,
          "velocity": 0.6299212598425197
        },
        {
          "duration": 0.23645833333333321,
          "durationTicks": 227,
          "midi": 44,
          "name": "G#2",
          "ticks": 14160,
          "time": 14.75,
          "velocity": 0.6299212598425197
        },
        {
          "duration": 0.11770833333333286,
          "durationTicks": 113,
          "midi": 48,
          "name": "C3",
          "ticks": 14400,
          "time": 15,
          "velocity": 0.6299212598425197
        },
        {
          "duration": 0.11770833333333286,
          "durationTicks": 113,
          "midi": 51,
          "name": "D#3",
          "ticks": 14520,
          "time": 15.125,
          "velocity": 0.6299212598425197
        },
        {
          "duration": 0.23645833333333321,
          "durationTicks": 227,
          "midi": 56,
          "name": "G#3",
          "ticks": 14640,
          "time": 15.25,
          "velocity": 0.6299212598425197
        },
        {
          "duration": 0.11770833333333286,
          "durationTicks": 113,
          "midi": 51,
          "name": "D#3",
          "ticks": 14880,
          "time": 15.5,
          "velocity": 0.6299212598425197
        },
        {
          "duration": 0.11770833333333286,
          "durationTicks": 113,
          "midi": 48,
          "name": "C3",
          "ticks": 15000,
          "time": 15.625,
          "velocity": 0.6299212598425197
        },
        {
          "duration": 0.23645833333333321,
          "durationTicks": 227,
          "midi": 44,
          "name": "G#2",
          "ticks": 15120,
          "time": 15.75,
          "velocity": 0.6299212598425197
        },
        {
          "duration": 0.236458333333335,
          "durationTicks": 227,
          "midi": 41,
          "name": "F2",
          "ticks": 15360,
          "time": 16,
          "velocity": 0.6299212598425197
        },
        {
          "duration": 0.236458333333335,
          "durationTicks": 227,
          "midi": 51,
          "name": "D#3",
          "ticks": 15360,
          "time": 16,
          "velocity": 0.6299212598425197
        },
        {
          "duration": 0.11770833333333286,
          "durationTicks": 113,
          "midi": 44,
          "name": "G#2",
          "ticks": 15600,
          "time": 16.25,
          "velocity": 0.6299212598425197
        },
        {
          "duration": 0.11770833333333286,
          "durationTicks": 113,
          "midi": 48,
          "name": "C3",
          "ticks": 15720,
          "time": 16.375,
          "velocity": 0.6299212598425197
        },
        {
          "duration": 0.236458333333335,
          "durationTicks": 227,
          "midi": 48,
          "name": "C3",
          "ticks": 15840,
          "time": 16.5,
          "velocity": 0.6299212598425197
        },
        {
          "duration": 0.236458333333335,
          "durationTicks": 227,
          "midi": 53,
          "name": "F3",
          "ticks": 15840,
          "time": 16.5,
          "velocity": 0.6299212598425197
        },
        {
          "duration": 0.236458333333335,
          "durationTicks": 227,
          "midi": 37,
          "name": "C#2",
          "ticks": 16080,
          "time": 16.75,
          "velocity": 0.6299212598425197
        },
        {
          "duration": 0.236458333333335,
          "durationTicks": 227,
          "midi": 49,
          "name": "C#3",
          "ticks": 16080,
          "time": 16.75,
          "velocity": 0.6299212598425197
        },
        {
          "duration": 0.11770833333333286,
          "durationTicks": 113,
          "midi": 53,
          "name": "F3",
          "ticks": 16320,
          "time": 17,
          "velocity": 0.6299212598425197
        },
        {
          "duration": 0.11770833333333286,
          "durationTicks": 113,
          "midi": 56,
          "name": "G#3",
          "ticks": 16440,
          "time": 17.125,
          "velocity": 0.6299212598425197
        },
        {
          "duration": 0.236458333333335,
          "durationTicks": 227,
          "midi": 61,
          "name": "C#4",
          "ticks": 16560,
          "time": 17.25,
          "velocity": 0.6299212598425197
        },
        {
          "duration": 0.11770833333333286,
          "durationTicks": 113,
          "midi": 56,
          "name": "G#3",
          "ticks": 16800,
          "time": 17.5,
          "velocity": 0.6299212598425197
        },
        {
          "duration": 0.11770833333333286,
          "durationTicks": 113,
          "midi": 53,
          "name": "F3",
          "ticks": 16920,
          "time": 17.625,
          "velocity": 0.6299212598425197
        },
        {
          "duration": 0.236458333333335,
          "durationTicks": 227,
          "midi": 49,
          "name": "C#3",
          "ticks": 17040,
          "time": 17.75,
          "velocity": 0.6299212598425197
        },
        {
          "duration": 0.236458333333335,
          "durationTicks": 227,
          "midi": 34,
          "name": "A#1",
          "ticks": 17280,
          "time": 18,
          "velocity": 0.6299212598425197
        },
        {
          "duration": 0.236458333333335,
          "durationTicks": 227,
          "midi": 46,
          "name": "A#2",
          "ticks": 17280,
          "time": 18,
          "velocity": 0.6299212598425197
        },
        {
          "duration": 0.11770833333333286,
          "durationTicks": 113,
          "midi": 37,
          "name": "C#2",
          "ticks": 17520,
          "time": 18.25,
          "velocity": 0.6299212598425197
        },
        {
          "duration": 0.11770833333333286,
          "durationTicks": 113,
          "midi": 41,
          "name": "F2",
          "ticks": 17640,
          "time": 18.375,
          "velocity": 0.6299212598425197
        },
        {
          "duration": 0.236458333333335,
          "durationTicks": 227,
          "midi": 41,
          "name": "F2",
          "ticks": 17760,
          "time": 18.5,
          "velocity": 0.6299212598425197
        },
        {
          "duration": 0.236458333333335,
          "durationTicks": 227,
          "midi": 46,
          "name": "A#2",
          "ticks": 17760,
          "time": 18.5,
          "velocity": 0.6299212598425197
        },
        {
          "duration": 0.236458333333335,
          "durationTicks": 227,
          "midi": 34,
          "name": "A#1",
          "ticks": 18000,
          "time": 18.75,
          "velocity": 0.6299212598425197
        },
        {
          "duration": 0.236458333333335,
          "durationTicks": 227,
          "midi": 46,
          "name": "A#2",
          "ticks": 18000,
          "time": 18.75,
          "velocity": 0.6299212598425197
        },
        {
          "duration": 0.11770833333333286,
          "durationTicks": 113,
          "midi": 49,
          "name": "C#3",
          "ticks": 18240,
          "time": 19,
          "velocity": 0.6299212598425197
        },
        {
          "duration": 0.11770833333333286,
          "durationTicks": 113,
          "midi": 53,
          "name": "F3",
          "ticks": 18360,
          "time": 19.125,
          "velocity": 0.6299212598425197
        },
        {
          "duration": 0.236458333333335,
          "durationTicks": 227,
          "midi": 58,
          "name": "A#3",
          "ticks": 18480,
          "time": 19.25,
          "velocity": 0.6299212598425197
        },
        {
          "duration": 0.11770833333333286,
          "durationTicks": 113,
          "midi": 53,
          "name": "F3",
          "ticks": 18720,
          "time": 19.5,
          "velocity": 0.6299212598425197
        },
        {
          "duration": 0.11770833333333286,
          "durationTicks": 113,
          "midi": 49,
          "name": "C#3",
          "ticks": 18840,
          "time": 19.625,
          "velocity": 0.6299212598425197
        },
        {
          "duration": 0.236458333333335,
          "durationTicks": 227,
          "midi": 46,
          "name": "A#2",
          "ticks": 18960,
          "time": 19.75,
          "velocity": 0.6299212598425197
        },
        {
          "duration": 0.236458333333335,
          "durationTicks": 227,
          "midi": 32,
          "name": "G#1",
          "ticks": 19200,
          "time": 20,
          "velocity": 0.6299212598425197
        },
        {
          "duration": 0.236458333333335,
          "durationTicks": 227,
          "midi": 44,
          "name": "G#2",
          "ticks": 19200,
          "time": 20,
          "velocity": 0.6299212598425197
        },
        {
          "duration": 0.11770833333333286,
          "durationTicks": 113,
          "midi": 36,
          "name": "C2",
          "ticks": 19440,
          "time": 20.25,
          "velocity": 0.6299212598425197
        },
        {
          "duration": 0.11770833333333286,
          "durationTicks": 113,
          "midi": 39,
          "name": "D#2",
          "ticks": 19560,
          "time": 20.375,
          "velocity": 0.6299212598425197
        },
        {
          "duration": 0.236458333333335,
          "durationTicks": 227,
          "midi": 39,
          "name": "D#2",
          "ticks": 19680,
          "time": 20.5,
          "velocity": 0.6299212598425197
        },
        {
          "duration": 0.236458333333335,
          "durationTicks": 227,
          "midi": 44,
          "name": "G#2",
          "ticks": 19680,
          "time": 20.5,
          "velocity": 0.6299212598425197
        },
        {
          "duration": 0.236458333333335,
          "durationTicks": 227,
          "midi": 32,
          "name": "G#1",
          "ticks": 19920,
          "time": 20.75,
          "velocity": 0.6299212598425197
        },
        {
          "duration": 0.236458333333335,
          "durationTicks": 227,
          "midi": 44,
          "name": "G#2",
          "ticks": 19920,
          "time": 20.75,
          "velocity": 0.6299212598425197
        },
        {
          "duration": 0.11770833333333286,
          "durationTicks": 113,
          "midi": 48,
          "name": "C3",
          "ticks": 20160,
          "time": 21,
          "velocity": 0.6299212598425197
        },
        {
          "duration": 0.11770833333333286,
          "durationTicks": 113,
          "midi": 51,
          "name": "D#3",
          "ticks": 20280,
          "time": 21.125,
          "velocity": 0.6299212598425197
        },
        {
          "duration": 0.236458333333335,
          "durationTicks": 227,
          "midi": 56,
          "name": "G#3",
          "ticks": 20400,
          "time": 21.25,
          "velocity": 0.6299212598425197
        },
        {
          "duration": 0.11770833333333286,
          "durationTicks": 113,
          "midi": 51,
          "name": "D#3",
          "ticks": 20640,
          "time": 21.5,
          "velocity": 0.6299212598425197
        },
        {
          "duration": 0.11770833333333286,
          "durationTicks": 113,
          "midi": 48,
          "name": "C3",
          "ticks": 20760,
          "time": 21.625,
          "velocity": 0.6299212598425197
        },
        {
          "duration": 0.236458333333335,
          "durationTicks": 227,
          "midi": 44,
          "name": "G#2",
          "ticks": 20880,
          "time": 21.75,
          "velocity": 0.6299212598425197
        },
        {
          "duration": 0.236458333333335,
          "durationTicks": 227,
          "midi": 30,
          "name": "F#1",
          "ticks": 21120,
          "time": 22,
          "velocity": 0.6299212598425197
        },
        {
          "duration": 0.236458333333335,
          "durationTicks": 227,
          "midi": 42,
          "name": "F#2",
          "ticks": 21120,
          "time": 22,
          "velocity": 0.6299212598425197
        },
        {
          "duration": 0.11770833333333286,
          "durationTicks": 113,
          "midi": 34,
          "name": "A#1",
          "ticks": 21360,
          "time": 22.25,
          "velocity": 0.6299212598425197
        },
        {
          "duration": 0.11770833333333286,
          "durationTicks": 113,
          "midi": 37,
          "name": "C#2",
          "ticks": 21480,
          "time": 22.375,
          "velocity": 0.6299212598425197
        },
        {
          "duration": 0.236458333333335,
          "durationTicks": 227,
          "midi": 37,
          "name": "C#2",
          "ticks": 21600,
          "time": 22.5,
          "velocity": 0.6299212598425197
        },
        {
          "duration": 0.236458333333335,
          "durationTicks": 227,
          "midi": 42,
          "name": "F#2",
          "ticks": 21600,
          "time": 22.5,
          "velocity": 0.6299212598425197
        },
        {
          "duration": 0.236458333333335,
          "durationTicks": 227,
          "midi": 30,
          "name": "F#1",
          "ticks": 21840,
          "time": 22.75,
          "velocity": 0.6299212598425197
        },
        {
          "duration": 0.236458333333335,
          "durationTicks": 227,
          "midi": 42,
          "name": "F#2",
          "ticks": 21840,
          "time": 22.75,
          "velocity": 0.6299212598425197
        },
        {
          "duration": 0.11770833333333286,
          "durationTicks": 113,
          "midi": 46,
          "name": "A#2",
          "ticks": 22080,
          "time": 23,
          "velocity": 0.6299212598425197
        },
        {
          "duration": 0.11770833333333286,
          "durationTicks": 113,
          "midi": 49,
          "name": "C#3",
          "ticks": 22200,
          "time": 23.125,
          "velocity": 0.6299212598425197
        },
        {
          "duration": 0.236458333333335,
          "durationTicks": 227,
          "midi": 54,
          "name": "F#3",
          "ticks": 22320,
          "time": 23.25,
          "velocity": 0.6299212598425197
        },
        {
          "duration": 0.11770833333333286,
          "durationTicks": 113,
          "midi": 49,
          "name": "C#3",
          "ticks": 22560,
          "time": 23.5,
          "velocity": 0.6299212598425197
        },
        {
          "duration": 0.11770833333333286,
          "durationTicks": 113,
          "midi": 46,
          "name": "A#2",
          "ticks": 22680,
          "time": 23.625,
          "velocity": 0.6299212598425197
        },
        {
          "duration": 0.236458333333335,
          "durationTicks": 227,
          "midi": 42,
          "name": "F#2",
          "ticks": 22800,
          "time": 23.75,
          "velocity": 0.6299212598425197
        },
        {
          "duration": 0.236458333333335,
          "durationTicks": 227,
          "midi": 32,
          "name": "G#1",
          "ticks": 23040,
          "time": 24,
          "velocity": 0.6299212598425197
        },
        {
          "duration": 0.236458333333335,
          "durationTicks": 227,
          "midi": 44,
          "name": "G#2",
          "ticks": 23040,
          "time": 24,
          "velocity": 0.6299212598425197
        },
        {
          "duration": 0.11770833333333286,
          "durationTicks": 113,
          "midi": 36,
          "name": "C2",
          "ticks": 23280,
          "time": 24.25,
          "velocity": 0.6299212598425197
        },
        {
          "duration": 0.11770833333333286,
          "durationTicks": 113,
          "midi": 39,
          "name": "D#2",
          "ticks": 23400,
          "time": 24.375,
          "velocity": 0.6299212598425197
        },
        {
          "duration": 0.236458333333335,
          "durationTicks": 227,
          "midi": 39,
          "name": "D#2",
          "ticks": 23520,
          "time": 24.5,
          "velocity": 0.6299212598425197
        },
        {
          "duration": 0.236458333333335,
          "durationTicks": 227,
          "midi": 44,
          "name": "G#2",
          "ticks": 23520,
          "time": 24.5,
          "velocity": 0.6299212598425197
        },
        {
          "duration": 0.236458333333335,
          "durationTicks": 227,
          "midi": 32,
          "name": "G#1",
          "ticks": 23760,
          "time": 24.75,
          "velocity": 0.6299212598425197
        },
        {
          "duration": 0.236458333333335,
          "durationTicks": 227,
          "midi": 44,
          "name": "G#2",
          "ticks": 23760,
          "time": 24.75,
          "velocity": 0.6299212598425197
        },
        {
          "duration": 0.11770833333333286,
          "durationTicks": 113,
          "midi": 48,
          "name": "C3",
          "ticks": 24000,
          "time": 25,
          "velocity": 0.6299212598425197
        },
        {
          "duration": 0.11770833333333286,
          "durationTicks": 113,
          "midi": 51,
          "name": "D#3",
          "ticks": 24120,
          "time": 25.125,
          "velocity": 0.6299212598425197
        },
        {
          "duration": 0.236458333333335,
          "durationTicks": 227,
          "midi": 56,
          "name": "G#3",
          "ticks": 24240,
          "time": 25.25,
          "velocity": 0.6299212598425197
        },
        {
          "duration": 0.11770833333333286,
          "durationTicks": 113,
          "midi": 51,
          "name": "D#3",
          "ticks": 24480,
          "time": 25.5,
          "velocity": 0.6299212598425197
        },
        {
          "duration": 0.11770833333333286,
          "durationTicks": 113,
          "midi": 48,
          "name": "C3",
          "ticks": 24600,
          "time": 25.625,
          "velocity": 0.6299212598425197
        },
        {
          "duration": 0.236458333333335,
          "durationTicks": 227,
          "midi": 44,
          "name": "G#2",
          "ticks": 24720,
          "time": 25.75,
          "velocity": 0.6299212598425197
        },
        {
          "duration": 0.236458333333335,
          "durationTicks": 227,
          "midi": 34,
          "name": "A#1",
          "ticks": 24960,
          "time": 26,
          "velocity": 0.6299212598425197
        },
        {
          "duration": 0.236458333333335,
          "durationTicks": 227,
          "midi": 46,
          "name": "A#2",
          "ticks": 24960,
          "time": 26,
          "velocity": 0.6299212598425197
        },
        {
          "duration": 0.11770833333333286,
          "durationTicks": 113,
          "midi": 37,
          "name": "C#2",
          "ticks": 25200,
          "time": 26.25,
          "velocity": 0.6299212598425197
        },
        {
          "duration": 0.11770833333333286,
          "durationTicks": 113,
          "midi": 41,
          "name": "F2",
          "ticks": 25320,
          "time": 26.375,
          "velocity": 0.6299212598425197
        },
        {
          "duration": 0.236458333333335,
          "durationTicks": 227,
          "midi": 41,
          "name": "F2",
          "ticks": 25440,
          "time": 26.5,
          "velocity": 0.6299212598425197
        },
        {
          "duration": 0.236458333333335,
          "durationTicks": 227,
          "midi": 46,
          "name": "A#2",
          "ticks": 25440,
          "time": 26.5,
          "velocity": 0.6299212598425197
        },
        {
          "duration": 0.236458333333335,
          "durationTicks": 227,
          "midi": 34,
          "name": "A#1",
          "ticks": 25680,
          "time": 26.75,
          "velocity": 0.6299212598425197
        },
        {
          "duration": 0.236458333333335,
          "durationTicks": 227,
          "midi": 46,
          "name": "A#2",
          "ticks": 25680,
          "time": 26.75,
          "velocity": 0.6299212598425197
        },
        {
          "duration": 0.11770833333333286,
          "durationTicks": 113,
          "midi": 49,
          "name": "C#3",
          "ticks": 25920,
          "time": 27,
          "velocity": 0.6299212598425197
        },
        {
          "duration": 0.11770833333333286,
          "durationTicks": 113,
          "midi": 53,
          "name": "F3",
          "ticks": 26040,
          "time": 27.125,
          "velocity": 0.6299212598425197
        },
        {
          "duration": 0.236458333333335,
          "durationTicks": 227,
          "midi": 58,
          "name": "A#3",
          "ticks": 26160,
          "time": 27.25,
          "velocity": 0.6299212598425197
        },
        {
          "duration": 0.11770833333333286,
          "durationTicks": 113,
          "midi": 53,
          "name": "F3",
          "ticks": 26400,
          "time": 27.5,
          "velocity": 0.6299212598425197
        },
        {
          "duration": 0.11770833333333286,
          "durationTicks": 113,
          "midi": 49,
          "name": "C#3",
          "ticks": 26520,
          "time": 27.625,
          "velocity": 0.6299212598425197
        },
        {
          "duration": 0.236458333333335,
          "durationTicks": 227,
          "midi": 46,
          "name": "A#2",
          "ticks": 26640,
          "time": 27.75,
          "velocity": 0.6299212598425197
        },
        {
          "duration": 0.236458333333335,
          "durationTicks": 227,
          "midi": 32,
          "name": "G#1",
          "ticks": 26880,
          "time": 28,
          "velocity": 0.6299212598425197
        },
        {
          "duration": 0.236458333333335,
          "durationTicks": 227,
          "midi": 44,
          "name": "G#2",
          "ticks": 26880,
          "time": 28,
          "velocity": 0.6299212598425197
        },
        {
          "duration": 0.11770833333333286,
          "durationTicks": 113,
          "midi": 36,
          "name": "C2",
          "ticks": 27120,
          "time": 28.25,
          "velocity": 0.6299212598425197
        },
        {
          "duration": 0.11770833333333286,
          "durationTicks": 113,
          "midi": 39,
          "name": "D#2",
          "ticks": 27240,
          "time": 28.375,
          "velocity": 0.6299212598425197
        },
        {
          "duration": 0.236458333333335,
          "durationTicks": 227,
          "midi": 39,
          "name": "D#2",
          "ticks": 27360,
          "time": 28.5,
          "velocity": 0.6299212598425197
        },
        {
          "duration": 0.236458333333335,
          "durationTicks": 227,
          "midi": 44,
          "name": "G#2",
          "ticks": 27360,
          "time": 28.5,
          "velocity": 0.6299212598425197
        },
        {
          "duration": 0.236458333333335,
          "durationTicks": 227,
          "midi": 32,
          "name": "G#1",
          "ticks": 27600,
          "time": 28.75,
          "velocity": 0.6299212598425197
        },
        {
          "duration": 0.236458333333335,
          "durationTicks": 227,
          "midi": 44,
          "name": "G#2",
          "ticks": 27600,
          "time": 28.75,
          "velocity": 0.6299212598425197
        },
        {
          "duration": 0.11770833333333286,
          "durationTicks": 113,
          "midi": 48,
          "name": "C3",
          "ticks": 27840,
          "time": 29,
          "velocity": 0.6299212598425197
        },
        {
          "duration": 0.11770833333333286,
          "durationTicks": 113,
          "midi": 51,
          "name": "D#3",
          "ticks": 27960,
          "time": 29.125,
          "velocity": 0.6299212598425197
        },
        {
          "duration": 0.236458333333335,
          "durationTicks": 227,
          "midi": 56,
          "name": "G#3",
          "ticks": 28080,
          "time": 29.25,
          "velocity": 0.6299212598425197
        },
        {
          "duration": 0.11770833333333286,
          "durationTicks": 113,
          "midi": 51,
          "name": "D#3",
          "ticks": 28320,
          "time": 29.5,
          "velocity": 0.6299212598425197
        },
        {
          "duration": 0.11770833333333286,
          "durationTicks": 113,
          "midi": 48,
          "name": "C3",
          "ticks": 28440,
          "time": 29.625,
          "velocity": 0.6299212598425197
        },
        {
          "duration": 0.236458333333335,
          "durationTicks": 227,
          "midi": 44,
          "name": "G#2",
          "ticks": 28560,
          "time": 29.75,
          "velocity": 0.6299212598425197
        },
        {
          "duration": 0.236458333333335,
          "durationTicks": 227,
          "midi": 30,
          "name": "F#1",
          "ticks": 28800,
          "time": 30,
          "velocity": 0.6299212598425197
        },
        {
          "duration": 0.236458333333335,
          "durationTicks": 227,
          "midi": 42,
          "name": "F#2",
          "ticks": 28800,
          "time": 30,
          "velocity": 0.6299212598425197
        },
        {
          "duration": 0.11770833333333286,
          "durationTicks": 113,
          "midi": 34,
          "name": "A#1",
          "ticks": 29040,
          "time": 30.25,
          "velocity": 0.6299212598425197
        },
        {
          "duration": 0.11770833333333286,
          "durationTicks": 113,
          "midi": 37,
          "name": "C#2",
          "ticks": 29160,
          "time": 30.375,
          "velocity": 0.6299212598425197
        },
        {
          "duration": 0.236458333333335,
          "durationTicks": 227,
          "midi": 37,
          "name": "C#2",
          "ticks": 29280,
          "time": 30.5,
          "velocity": 0.6299212598425197
        },
        {
          "duration": 0.236458333333335,
          "durationTicks": 227,
          "midi": 42,
          "name": "F#2",
          "ticks": 29280,
          "time": 30.5,
          "velocity": 0.6299212598425197
        },
        {
          "duration": 0.236458333333335,
          "durationTicks": 227,
          "midi": 30,
          "name": "F#1",
          "ticks": 29520,
          "time": 30.75,
          "velocity": 0.6299212598425197
        },
        {
          "duration": 0.236458333333335,
          "durationTicks": 227,
          "midi": 42,
          "name": "F#2",
          "ticks": 29520,
          "time": 30.75,
          "velocity": 0.6299212598425197
        },
        {
          "duration": 0.11770833333333286,
          "durationTicks": 113,
          "midi": 46,
          "name": "A#2",
          "ticks": 29760,
          "time": 31,
          "velocity": 0.6299212598425197
        },
        {
          "duration": 0.11770833333333286,
          "durationTicks": 113,
          "midi": 49,
          "name": "C#3",
          "ticks": 29880,
          "time": 31.125,
          "velocity": 0.6299212598425197
        },
        {
          "duration": 0.236458333333335,
          "durationTicks": 227,
          "midi": 54,
          "name": "F#3",
          "ticks": 30000,
          "time": 31.25,
          "velocity": 0.6299212598425197
        },
        {
          "duration": 0.11770833333333286,
          "durationTicks": 113,
          "midi": 49,
          "name": "C#3",
          "ticks": 30240,
          "time": 31.5,
          "velocity": 0.6299212598425197
        },
        {
          "duration": 0.11770833333333286,
          "durationTicks": 113,
          "midi": 46,
          "name": "A#2",
          "ticks": 30360,
          "time": 31.625,
          "velocity": 0.6299212598425197
        },
        {
          "duration": 0.236458333333335,
          "durationTicks": 227,
          "midi": 42,
          "name": "F#2",
          "ticks": 30480,
          "time": 31.75,
          "velocity": 0.6299212598425197
        },
        {
          "duration": 0.23645833333333144,
          "durationTicks": 227,
          "midi": 32,
          "name": "G#1",
          "ticks": 30720,
          "time": 32,
          "velocity": 0.6299212598425197
        },
        {
          "duration": 0.23645833333333144,
          "durationTicks": 227,
          "midi": 44,
          "name": "G#2",
          "ticks": 30720,
          "time": 32,
          "velocity": 0.6299212598425197
        },
        {
          "duration": 0.11770833333333286,
          "durationTicks": 113,
          "midi": 36,
          "name": "C2",
          "ticks": 30960,
          "time": 32.25,
          "velocity": 0.6299212598425197
        },
        {
          "duration": 0.11770833333333286,
          "durationTicks": 113,
          "midi": 39,
          "name": "D#2",
          "ticks": 31080,
          "time": 32.375,
          "velocity": 0.6299212598425197
        },
        {
          "duration": 0.23645833333333144,
          "durationTicks": 227,
          "midi": 39,
          "name": "D#2",
          "ticks": 31200,
          "time": 32.5,
          "velocity": 0.6299212598425197
        },
        {
          "duration": 0.23645833333333144,
          "durationTicks": 227,
          "midi": 44,
          "name": "G#2",
          "ticks": 31200,
          "time": 32.5,
          "velocity": 0.6299212598425197
        },
        {
          "duration": 0.23645833333333144,
          "durationTicks": 227,
          "midi": 32,
          "name": "G#1",
          "ticks": 31440,
          "time": 32.75,
          "velocity": 0.6299212598425197
        },
        {
          "duration": 0.23645833333333144,
          "durationTicks": 227,
          "midi": 44,
          "name": "G#2",
          "ticks": 31440,
          "time": 32.75,
          "velocity": 0.6299212598425197
        },
        {
          "duration": 0.11770833333333286,
          "durationTicks": 113,
          "midi": 48,
          "name": "C3",
          "ticks": 31680,
          "time": 33,
          "velocity": 0.6299212598425197
        },
        {
          "duration": 0.11770833333333286,
          "durationTicks": 113,
          "midi": 51,
          "name": "D#3",
          "ticks": 31800,
          "time": 33.125,
          "velocity": 0.6299212598425197
        },
        {
          "duration": 0.23645833333333144,
          "durationTicks": 227,
          "midi": 56,
          "name": "G#3",
          "ticks": 31920,
          "time": 33.25,
          "velocity": 0.6299212598425197
        },
        {
          "duration": 0.11770833333333286,
          "durationTicks": 113,
          "midi": 51,
          "name": "D#3",
          "ticks": 32160,
          "time": 33.5,
          "velocity": 0.6299212598425197
        },
        {
          "duration": 0.11770833333333286,
          "durationTicks": 113,
          "midi": 48,
          "name": "C3",
          "ticks": 32280,
          "time": 33.625,
          "velocity": 0.6299212598425197
        },
        {
          "duration": 0.23645833333333144,
          "durationTicks": 227,
          "midi": 44,
          "name": "G#2",
          "ticks": 32400,
          "time": 33.75,
          "velocity": 0.6299212598425197
        },
        {
          "duration": 0.23645833333333144,
          "durationTicks": 227,
          "midi": 34,
          "name": "A#1",
          "ticks": 32640,
          "time": 34,
          "velocity": 0.6299212598425197
        },
        {
          "duration": 0.23645833333333144,
          "durationTicks": 227,
          "midi": 46,
          "name": "A#2",
          "ticks": 32640,
          "time": 34,
          "velocity": 0.6299212598425197
        },
        {
          "duration": 0.11770833333333286,
          "durationTicks": 113,
          "midi": 37,
          "name": "C#2",
          "ticks": 32880,
          "time": 34.25,
          "velocity": 0.6299212598425197
        },
        {
          "duration": 0.11770833333333286,
          "durationTicks": 113,
          "midi": 41,
          "name": "F2",
          "ticks": 33000,
          "time": 34.375,
          "velocity": 0.6299212598425197
        },
        {
          "duration": 0.23645833333333144,
          "durationTicks": 227,
          "midi": 41,
          "name": "F2",
          "ticks": 33120,
          "time": 34.5,
          "velocity": 0.6299212598425197
        },
        {
          "duration": 0.23645833333333144,
          "durationTicks": 227,
          "midi": 46,
          "name": "A#2",
          "ticks": 33120,
          "time": 34.5,
          "velocity": 0.6299212598425197
        },
        {
          "duration": 0.23645833333333144,
          "durationTicks": 227,
          "midi": 34,
          "name": "A#1",
          "ticks": 33360,
          "time": 34.75,
          "velocity": 0.6299212598425197
        },
        {
          "duration": 0.23645833333333144,
          "durationTicks": 227,
          "midi": 46,
          "name": "A#2",
          "ticks": 33360,
          "time": 34.75,
          "velocity": 0.6299212598425197
        },
        {
          "duration": 0.11770833333333286,
          "durationTicks": 113,
          "midi": 49,
          "name": "C#3",
          "ticks": 33600,
          "time": 35,
          "velocity": 0.6299212598425197
        },
        {
          "duration": 0.11770833333333286,
          "durationTicks": 113,
          "midi": 53,
          "name": "F3",
          "ticks": 33720,
          "time": 35.125,
          "velocity": 0.6299212598425197
        },
        {
          "duration": 0.23645833333333144,
          "durationTicks": 227,
          "midi": 58,
          "name": "A#3",
          "ticks": 33840,
          "time": 35.25,
          "velocity": 0.6299212598425197
        },
        {
          "duration": 0.11770833333333286,
          "durationTicks": 113,
          "midi": 53,
          "name": "F3",
          "ticks": 34080,
          "time": 35.5,
          "velocity": 0.6299212598425197
        },
        {
          "duration": 0.11770833333333286,
          "durationTicks": 113,
          "midi": 49,
          "name": "C#3",
          "ticks": 34200,
          "time": 35.625,
          "velocity": 0.6299212598425197
        },
        {
          "duration": 0.23645833333333144,
          "durationTicks": 227,
          "midi": 46,
          "name": "A#2",
          "ticks": 34320,
          "time": 35.75,
          "velocity": 0.6299212598425197
        },
        {
          "duration": 0.23645833333333144,
          "durationTicks": 227,
          "midi": 32,
          "name": "G#1",
          "ticks": 34560,
          "time": 36,
          "velocity": 0.6299212598425197
        },
        {
          "duration": 0.23645833333333144,
          "durationTicks": 227,
          "midi": 44,
          "name": "G#2",
          "ticks": 34560,
          "time": 36,
          "velocity": 0.6299212598425197
        },
        {
          "duration": 0.11770833333333286,
          "durationTicks": 113,
          "midi": 36,
          "name": "C2",
          "ticks": 34800,
          "time": 36.25,
          "velocity": 0.6299212598425197
        },
        {
          "duration": 0.11770833333333286,
          "durationTicks": 113,
          "midi": 39,
          "name": "D#2",
          "ticks": 34920,
          "time": 36.375,
          "velocity": 0.6299212598425197
        },
        {
          "duration": 0.23645833333333144,
          "durationTicks": 227,
          "midi": 39,
          "name": "D#2",
          "ticks": 35040,
          "time": 36.5,
          "velocity": 0.6299212598425197
        },
        {
          "duration": 0.23645833333333144,
          "durationTicks": 227,
          "midi": 44,
          "name": "G#2",
          "ticks": 35040,
          "time": 36.5,
          "velocity": 0.6299212598425197
        },
        {
          "duration": 0.23645833333333144,
          "durationTicks": 227,
          "midi": 32,
          "name": "G#1",
          "ticks": 35280,
          "time": 36.75,
          "velocity": 0.6299212598425197
        },
        {
          "duration": 0.23645833333333144,
          "durationTicks": 227,
          "midi": 44,
          "name": "G#2",
          "ticks": 35280,
          "time": 36.75,
          "velocity": 0.6299212598425197
        },
        {
          "duration": 0.11770833333333286,
          "durationTicks": 113,
          "midi": 48,
          "name": "C3",
          "ticks": 35520,
          "time": 37,
          "velocity": 0.6299212598425197
        },
        {
          "duration": 0.11770833333333286,
          "durationTicks": 113,
          "midi": 51,
          "name": "D#3",
          "ticks": 35640,
          "time": 37.125,
          "velocity": 0.6299212598425197
        },
        {
          "duration": 0.23645833333333144,
          "durationTicks": 227,
          "midi": 56,
          "name": "G#3",
          "ticks": 35760,
          "time": 37.25,
          "velocity": 0.6299212598425197
        },
        {
          "duration": 0.11770833333333286,
          "durationTicks": 113,
          "midi": 51,
          "name": "D#3",
          "ticks": 36000,
          "time": 37.5,
          "velocity": 0.6299212598425197
        },
        {
          "duration": 0.11770833333333286,
          "durationTicks": 113,
          "midi": 48,
          "name": "C3",
          "ticks": 36120,
          "time": 37.625,
          "velocity": 0.6299212598425197
        },
        {
          "duration": 0.23645833333333144,
          "durationTicks": 227,
          "midi": 44,
          "name": "G#2",
          "ticks": 36240,
          "time": 37.75,
          "velocity": 0.6299212598425197
        },
        {
          "duration": 0.23645833333333144,
          "durationTicks": 227,
          "midi": 30,
          "name": "F#1",
          "ticks": 36480,
          "time": 38,
          "velocity": 0.6299212598425197
        },
        {
          "duration": 0.23645833333333144,
          "durationTicks": 227,
          "midi": 42,
          "name": "F#2",
          "ticks": 36480,
          "time": 38,
          "velocity": 0.6299212598425197
        },
        {
          "duration": 0.11770833333333286,
          "durationTicks": 113,
          "midi": 34,
          "name": "A#1",
          "ticks": 36720,
          "time": 38.25,
          "velocity": 0.6299212598425197
        },
        {
          "duration": 0.11770833333333286,
          "durationTicks": 113,
          "midi": 37,
          "name": "C#2",
          "ticks": 36840,
          "time": 38.375,
          "velocity": 0.6299212598425197
        },
        {
          "duration": 0.23645833333333144,
          "durationTicks": 227,
          "midi": 37,
          "name": "C#2",
          "ticks": 36960,
          "time": 38.5,
          "velocity": 0.6299212598425197
        },
        {
          "duration": 0.23645833333333144,
          "durationTicks": 227,
          "midi": 42,
          "name": "F#2",
          "ticks": 36960,
          "time": 38.5,
          "velocity": 0.6299212598425197
        },
        {
          "duration": 0.23645833333333144,
          "durationTicks": 227,
          "midi": 30,
          "name": "F#1",
          "ticks": 37200,
          "time": 38.75,
          "velocity": 0.6299212598425197
        },
        {
          "duration": 0.23645833333333144,
          "durationTicks": 227,
          "midi": 42,
          "name": "F#2",
          "ticks": 37200,
          "time": 38.75,
          "velocity": 0.6299212598425197
        },
        {
          "duration": 0.11770833333333286,
          "durationTicks": 113,
          "midi": 46,
          "name": "A#2",
          "ticks": 37440,
          "time": 39,
          "velocity": 0.6299212598425197
        },
        {
          "duration": 0.11770833333333286,
          "durationTicks": 113,
          "midi": 49,
          "name": "C#3",
          "ticks": 37560,
          "time": 39.125,
          "velocity": 0.6299212598425197
        },
        {
          "duration": 0.23645833333333144,
          "durationTicks": 227,
          "midi": 54,
          "name": "F#3",
          "ticks": 37680,
          "time": 39.25,
          "velocity": 0.6299212598425197
        },
        {
          "duration": 0.11770833333333286,
          "durationTicks": 113,
          "midi": 49,
          "name": "C#3",
          "ticks": 37920,
          "time": 39.5,
          "velocity": 0.6299212598425197
        },
        {
          "duration": 0.11770833333333286,
          "durationTicks": 113,
          "midi": 46,
          "name": "A#2",
          "ticks": 38040,
          "time": 39.625,
          "velocity": 0.6299212598425197
        },
        {
          "duration": 0.23645833333333144,
          "durationTicks": 227,
          "midi": 42,
          "name": "F#2",
          "ticks": 38160,
          "time": 39.75,
          "velocity": 0.6299212598425197
        },
        {
          "duration": 0.23645833333333144,
          "durationTicks": 227,
          "midi": 32,
          "name": "G#1",
          "ticks": 38400,
          "time": 40,
          "velocity": 0.6299212598425197
        },
        {
          "duration": 0.23645833333333144,
          "durationTicks": 227,
          "midi": 44,
          "name": "G#2",
          "ticks": 38400,
          "time": 40,
          "velocity": 0.6299212598425197
        },
        {
          "duration": 0.11770833333333286,
          "durationTicks": 113,
          "midi": 36,
          "name": "C2",
          "ticks": 38640,
          "time": 40.25,
          "velocity": 0.6614173228346457
        },
        {
          "duration": 0.11770833333333286,
          "durationTicks": 113,
          "midi": 39,
          "name": "D#2",
          "ticks": 38760,
          "time": 40.375,
          "velocity": 0.6771653543307087
        },
        {
          "duration": 0.23645833333333144,
          "durationTicks": 227,
          "midi": 39,
          "name": "D#2",
          "ticks": 38880,
          "time": 40.5,
          "velocity": 0.6929133858267716
        },
        {
          "duration": 0.23645833333333144,
          "durationTicks": 227,
          "midi": 44,
          "name": "G#2",
          "ticks": 38880,
          "time": 40.5,
          "velocity": 0.6929133858267716
        },
        {
          "duration": 0.23645833333333144,
          "durationTicks": 227,
          "midi": 32,
          "name": "G#1",
          "ticks": 39120,
          "time": 40.75,
          "velocity": 0.7244094488188977
        },
        {
          "duration": 0.23645833333333144,
          "durationTicks": 227,
          "midi": 44,
          "name": "G#2",
          "ticks": 39120,
          "time": 40.75,
          "velocity": 0.7244094488188977
        },
        {
          "duration": 0.12395833333333428,
          "durationTicks": 119,
          "midi": 32,
          "name": "G#1",
          "ticks": 39360,
          "time": 41,
          "velocity": 1
        },
        {
          "duration": 0.12395833333333428,
          "durationTicks": 119,
          "midi": 44,
          "name": "G#2",
          "ticks": 39360,
          "time": 41,
          "velocity": 1
        },
        {
          "duration": 0.24895833333333428,
          "durationTicks": 239,
          "midi": 32,
          "name": "G#1",
          "ticks": 39480,
          "time": 41.125,
          "velocity": 1
        },
        {
          "duration": 0.24895833333333428,
          "durationTicks": 239,
          "midi": 44,
          "name": "G#2",
          "ticks": 39480,
          "time": 41.125,
          "velocity": 1
        },
        {
          "duration": 0.12395833333333428,
          "durationTicks": 119,
          "midi": 32,
          "name": "G#1",
          "ticks": 39720,
          "time": 41.375,
          "velocity": 1
        },
        {
          "duration": 0.12395833333333428,
          "durationTicks": 119,
          "midi": 44,
          "name": "G#2",
          "ticks": 39720,
          "time": 41.375,
          "velocity": 1
        },
        {
          "duration": 0.24895833333333428,
          "durationTicks": 239,
          "midi": 34,
          "name": "A#1",
          "ticks": 39840,
          "time": 41.5,
          "velocity": 1
        },
        {
          "duration": 0.24895833333333428,
          "durationTicks": 239,
          "midi": 46,
          "name": "A#2",
          "ticks": 39840,
          "time": 41.5,
          "velocity": 1
        },
        {
          "duration": 0.12395833333333428,
          "durationTicks": 119,
          "midi": 34,
          "name": "A#1",
          "ticks": 40080,
          "time": 41.75,
          "velocity": 1
        },
        {
          "duration": 0.12395833333333428,
          "durationTicks": 119,
          "midi": 46,
          "name": "A#2",
          "ticks": 40080,
          "time": 41.75,
          "velocity": 1
        },
        {
          "duration": 0.11770833333333286,
          "durationTicks": 113,
          "midi": 34,
          "name": "A#1",
          "ticks": 40200,
          "time": 41.875,
          "velocity": 0.8661417322834646
        },
        {
          "duration": 0.11770833333333286,
          "durationTicks": 113,
          "midi": 46,
          "name": "A#2",
          "ticks": 40200,
          "time": 41.875,
          "velocity": 0.8661417322834646
        },
        {
          "duration": 0.23645833333333144,
          "durationTicks": 227,
          "midi": 34,
          "name": "A#1",
          "ticks": 40320,
          "time": 42,
          "velocity": 0.8818897637795275
        },
        {
          "duration": 0.23645833333333144,
          "durationTicks": 227,
          "midi": 46,
          "name": "A#2",
          "ticks": 40320,
          "time": 42,
          "velocity": 0.8818897637795275
        },
        {
          "duration": 0.11770833333333286,
          "durationTicks": 113,
          "midi": 37,
          "name": "C#2",
          "ticks": 40560,
          "time": 42.25,
          "velocity": 0.8818897637795275
        },
        {
          "duration": 0.11770833333333286,
          "durationTicks": 113,
          "midi": 41,
          "name": "F2",
          "ticks": 40680,
          "time": 42.375,
          "velocity": 0.8818897637795275
        },
        {
          "duration": 0.23645833333333144,
          "durationTicks": 227,
          "midi": 41,
          "name": "F2",
          "ticks": 40800,
          "time": 42.5,
          "velocity": 0.8818897637795275
        },
        {
          "duration": 0.23645833333333144,
          "durationTicks": 227,
          "midi": 46,
          "name": "A#2",
          "ticks": 40800,
          "time": 42.5,
          "velocity": 0.8818897637795275
        },
        {
          "duration": 0.23645833333333144,
          "durationTicks": 227,
          "midi": 32,
          "name": "G#1",
          "ticks": 41040,
          "time": 42.75,
          "velocity": 0.8818897637795275
        },
        {
          "duration": 0.23645833333333144,
          "durationTicks": 227,
          "midi": 44,
          "name": "G#2",
          "ticks": 41040,
          "time": 42.75,
          "velocity": 0.8818897637795275
        },
        {
          "duration": 0.11770833333333286,
          "durationTicks": 113,
          "midi": 48,
          "name": "C3",
          "ticks": 41280,
          "time": 43,
          "velocity": 0.8818897637795275
        },
        {
          "duration": 0.11770833333333286,
          "durationTicks": 113,
          "midi": 51,
          "name": "D#3",
          "ticks": 41400,
          "time": 43.125,
          "velocity": 0.8818897637795275
        },
        {
          "duration": 0.23645833333333144,
          "durationTicks": 227,
          "midi": 56,
          "name": "G#3",
          "ticks": 41520,
          "time": 43.25,
          "velocity": 0.8818897637795275
        },
        {
          "duration": 0.11770833333333286,
          "durationTicks": 113,
          "midi": 51,
          "name": "D#3",
          "ticks": 41760,
          "time": 43.5,
          "velocity": 0.8818897637795275
        },
        {
          "duration": 0.11770833333333286,
          "durationTicks": 113,
          "midi": 48,
          "name": "C3",
          "ticks": 41880,
          "time": 43.625,
          "velocity": 0.8818897637795275
        },
        {
          "duration": 0.23645833333333144,
          "durationTicks": 227,
          "midi": 44,
          "name": "G#2",
          "ticks": 42000,
          "time": 43.75,
          "velocity": 0.8818897637795275
        },
        {
          "duration": 0.23645833333333144,
          "durationTicks": 227,
          "midi": 41,
          "name": "F2",
          "ticks": 42240,
          "time": 44,
          "velocity": 0.8818897637795275
        },
        {
          "duration": 0.23645833333333144,
          "durationTicks": 227,
          "midi": 53,
          "name": "F3",
          "ticks": 42240,
          "time": 44,
          "velocity": 0.8818897637795275
        },
        {
          "duration": 0.11770833333333286,
          "durationTicks": 113,
          "midi": 44,
          "name": "G#2",
          "ticks": 42480,
          "time": 44.25,
          "velocity": 0.8818897637795275
        },
        {
          "duration": 0.11770833333333286,
          "durationTicks": 113,
          "midi": 48,
          "name": "C3",
          "ticks": 42600,
          "time": 44.375,
          "velocity": 0.8818897637795275
        },
        {
          "duration": 0.23645833333333144,
          "durationTicks": 227,
          "midi": 51,
          "name": "D#3",
          "ticks": 42720,
          "time": 44.5,
          "velocity": 0.8818897637795275
        },
        {
          "duration": 0.23645833333333144,
          "durationTicks": 227,
          "midi": 53,
          "name": "F3",
          "ticks": 42720,
          "time": 44.5,
          "velocity": 0.8818897637795275
        },
        {
          "duration": 0.23645833333333144,
          "durationTicks": 227,
          "midi": 34,
          "name": "A#1",
          "ticks": 42960,
          "time": 44.75,
          "velocity": 0.8818897637795275
        },
        {
          "duration": 0.23645833333333144,
          "durationTicks": 227,
          "midi": 46,
          "name": "A#2",
          "ticks": 42960,
          "time": 44.75,
          "velocity": 0.8818897637795275
        },
        {
          "duration": 0.11770833333333286,
          "durationTicks": 113,
          "midi": 49,
          "name": "C#3",
          "ticks": 43200,
          "time": 45,
          "velocity": 0.8818897637795275
        },
        {
          "duration": 0.11770833333333286,
          "durationTicks": 113,
          "midi": 53,
          "name": "F3",
          "ticks": 43320,
          "time": 45.125,
          "velocity": 0.8818897637795275
        },
        {
          "duration": 0.23645833333333144,
          "durationTicks": 227,
          "midi": 58,
          "name": "A#3",
          "ticks": 43440,
          "time": 45.25,
          "velocity": 0.8818897637795275
        },
        {
          "duration": 0.11770833333333286,
          "durationTicks": 113,
          "midi": 56,
          "name": "G#3",
          "ticks": 43680,
          "time": 45.5,
          "velocity": 0.8818897637795275
        },
        {
          "duration": 0.11770833333333286,
          "durationTicks": 113,
          "midi": 54,
          "name": "F#3",
          "ticks": 43800,
          "time": 45.625,
          "velocity": 0.8818897637795275
        },
        {
          "duration": 0.23645833333333144,
          "durationTicks": 227,
          "midi": 51,
          "name": "D#3",
          "ticks": 43920,
          "time": 45.75,
          "velocity": 0.8818897637795275
        },
        {
          "duration": 0.23645833333333144,
          "durationTicks": 227,
          "midi": 34,
          "name": "A#1",
          "ticks": 44160,
          "time": 46,
          "velocity": 0.8818897637795275
        },
        {
          "duration": 0.23645833333333144,
          "durationTicks": 227,
          "midi": 46,
          "name": "A#2",
          "ticks": 44160,
          "time": 46,
          "velocity": 0.8818897637795275
        },
        {
          "duration": 0.11770833333333286,
          "durationTicks": 113,
          "midi": 37,
          "name": "C#2",
          "ticks": 44400,
          "time": 46.25,
          "velocity": 0.8818897637795275
        },
        {
          "duration": 0.11770833333333286,
          "durationTicks": 113,
          "midi": 41,
          "name": "F2",
          "ticks": 44520,
          "time": 46.375,
          "velocity": 0.8818897637795275
        },
        {
          "duration": 0.23645833333333144,
          "durationTicks": 227,
          "midi": 41,
          "name": "F2",
          "ticks": 44640,
          "time": 46.5,
          "velocity": 0.8818897637795275
        },
        {
          "duration": 0.23645833333333144,
          "durationTicks": 227,
          "midi": 46,
          "name": "A#2",
          "ticks": 44640,
          "time": 46.5,
          "velocity": 0.8818897637795275
        },
        {
          "duration": 0.23645833333333144,
          "durationTicks": 227,
          "midi": 32,
          "name": "G#1",
          "ticks": 44880,
          "time": 46.75,
          "velocity": 0.8818897637795275
        },
        {
          "duration": 0.23645833333333144,
          "durationTicks": 227,
          "midi": 44,
          "name": "G#2",
          "ticks": 44880,
          "time": 46.75,
          "velocity": 0.8818897637795275
        },
        {
          "duration": 0.11770833333333286,
          "durationTicks": 113,
          "midi": 48,
          "name": "C3",
          "ticks": 45120,
          "time": 47,
          "velocity": 0.8818897637795275
        },
        {
          "duration": 0.11770833333333286,
          "durationTicks": 113,
          "midi": 51,
          "name": "D#3",
          "ticks": 45240,
          "time": 47.125,
          "velocity": 0.8818897637795275
        },
        {
          "duration": 0.23645833333333144,
          "durationTicks": 227,
          "midi": 56,
          "name": "G#3",
          "ticks": 45360,
          "time": 47.25,
          "velocity": 0.8818897637795275
        },
        {
          "duration": 0.11770833333333286,
          "durationTicks": 113,
          "midi": 51,
          "name": "D#3",
          "ticks": 45600,
          "time": 47.5,
          "velocity": 0.8818897637795275
        },
        {
          "duration": 0.11770833333333286,
          "durationTicks": 113,
          "midi": 48,
          "name": "C3",
          "ticks": 45720,
          "time": 47.625,
          "velocity": 0.8818897637795275
        },
        {
          "duration": 0.23645833333333144,
          "durationTicks": 227,
          "midi": 44,
          "name": "G#2",
          "ticks": 45840,
          "time": 47.75,
          "velocity": 0.8818897637795275
        },
        {
          "duration": 0.23645833333333144,
          "durationTicks": 227,
          "midi": 41,
          "name": "F2",
          "ticks": 46080,
          "time": 48,
          "velocity": 0.8818897637795275
        },
        {
          "duration": 0.23645833333333144,
          "durationTicks": 227,
          "midi": 53,
          "name": "F3",
          "ticks": 46080,
          "time": 48,
          "velocity": 0.8818897637795275
        },
        {
          "duration": 0.11770833333333286,
          "durationTicks": 113,
          "midi": 44,
          "name": "G#2",
          "ticks": 46320,
          "time": 48.25,
          "velocity": 0.8818897637795275
        },
        {
          "duration": 0.11770833333333286,
          "durationTicks": 113,
          "midi": 48,
          "name": "C3",
          "ticks": 46440,
          "time": 48.375,
          "velocity": 0.8818897637795275
        },
        {
          "duration": 0.23645833333333144,
          "durationTicks": 227,
          "midi": 34,
          "name": "A#1",
          "ticks": 46560,
          "time": 48.5,
          "velocity": 0.8818897637795275
        },
        {
          "duration": 0.23645833333333144,
          "durationTicks": 227,
          "midi": 46,
          "name": "A#2",
          "ticks": 46560,
          "time": 48.5,
          "velocity": 0.8818897637795275
        },
        {
          "duration": 0.11770833333333286,
          "durationTicks": 113,
          "midi": 37,
          "name": "C#2",
          "ticks": 46800,
          "time": 48.75,
          "velocity": 0.8818897637795275
        },
        {
          "duration": 0.11770833333333286,
          "durationTicks": 113,
          "midi": 41,
          "name": "F2",
          "ticks": 46920,
          "time": 48.875,
          "velocity": 0.8818897637795275
        },
        {
          "duration": 0.12395833333333428,
          "durationTicks": 119,
          "midi": 34,
          "name": "A#1",
          "ticks": 47040,
          "time": 49,
          "velocity": 1
        },
        {
          "duration": 0.12395833333333428,
          "durationTicks": 119,
          "midi": 46,
          "name": "A#2",
          "ticks": 47040,
          "time": 49,
          "velocity": 1
        },
        {
          "duration": 0.24895833333333428,
          "durationTicks": 239,
          "midi": 34,
          "name": "A#1",
          "ticks": 47160,
          "time": 49.125,
          "velocity": 1
        },
        {
          "duration": 0.24895833333333428,
          "durationTicks": 239,
          "midi": 46,
          "name": "A#2",
          "ticks": 47160,
          "time": 49.125,
          "velocity": 1
        },
        {
          "duration": 0.12395833333333428,
          "durationTicks": 119,
          "midi": 34,
          "name": "A#1",
          "ticks": 47400,
          "time": 49.375,
          "velocity": 1
        },
        {
          "duration": 0.12395833333333428,
          "durationTicks": 119,
          "midi": 46,
          "name": "A#2",
          "ticks": 47400,
          "time": 49.375,
          "velocity": 1
        },
        {
          "duration": 0.24895833333333428,
          "durationTicks": 239,
          "midi": 34,
          "name": "A#1",
          "ticks": 47520,
          "time": 49.5,
          "velocity": 1
        },
        {
          "duration": 0.24895833333333428,
          "durationTicks": 239,
          "midi": 46,
          "name": "A#2",
          "ticks": 47520,
          "time": 49.5,
          "velocity": 1
        },
        {
          "duration": 0.12395833333333428,
          "durationTicks": 119,
          "midi": 34,
          "name": "A#1",
          "ticks": 47760,
          "time": 49.75,
          "velocity": 1
        },
        {
          "duration": 0.12395833333333428,
          "durationTicks": 119,
          "midi": 46,
          "name": "A#2",
          "ticks": 47760,
          "time": 49.75,
          "velocity": 1
        },
        {
          "duration": 0.11770833333333286,
          "durationTicks": 113,
          "midi": 34,
          "name": "A#1",
          "ticks": 47880,
          "time": 49.875,
          "velocity": 0.8818897637795275
        },
        {
          "duration": 0.11770833333333286,
          "durationTicks": 113,
          "midi": 46,
          "name": "A#2",
          "ticks": 47880,
          "time": 49.875,
          "velocity": 0.8818897637795275
        },
        {
          "duration": 0.23645833333333144,
          "durationTicks": 227,
          "midi": 34,
          "name": "A#1",
          "ticks": 48000,
          "time": 50,
          "velocity": 0.8818897637795275
        },
        {
          "duration": 0.23645833333333144,
          "durationTicks": 227,
          "midi": 46,
          "name": "A#2",
          "ticks": 48000,
          "time": 50,
          "velocity": 0.8818897637795275
        },
        {
          "duration": 0.11770833333333286,
          "durationTicks": 113,
          "midi": 37,
          "name": "C#2",
          "ticks": 48240,
          "time": 50.25,
          "velocity": 0.8818897637795275
        },
        {
          "duration": 0.11770833333333286,
          "durationTicks": 113,
          "midi": 41,
          "name": "F2",
          "ticks": 48360,
          "time": 50.375,
          "velocity": 0.8818897637795275
        },
        {
          "duration": 0.23645833333333144,
          "durationTicks": 227,
          "midi": 41,
          "name": "F2",
          "ticks": 48480,
          "time": 50.5,
          "velocity": 0.8818897637795275
        },
        {
          "duration": 0.23645833333333144,
          "durationTicks": 227,
          "midi": 46,
          "name": "A#2",
          "ticks": 48480,
          "time": 50.5,
          "velocity": 0.8818897637795275
        },
        {
          "duration": 0.23645833333333144,
          "durationTicks": 227,
          "midi": 32,
          "name": "G#1",
          "ticks": 48720,
          "time": 50.75,
          "velocity": 0.8818897637795275
        },
        {
          "duration": 0.23645833333333144,
          "durationTicks": 227,
          "midi": 44,
          "name": "G#2",
          "ticks": 48720,
          "time": 50.75,
          "velocity": 0.8818897637795275
        },
        {
          "duration": 0.11770833333333286,
          "durationTicks": 113,
          "midi": 48,
          "name": "C3",
          "ticks": 48960,
          "time": 51,
          "velocity": 0.8818897637795275
        },
        {
          "duration": 0.11770833333333286,
          "durationTicks": 113,
          "midi": 51,
          "name": "D#3",
          "ticks": 49080,
          "time": 51.125,
          "velocity": 0.8818897637795275
        },
        {
          "duration": 0.23645833333333144,
          "durationTicks": 227,
          "midi": 56,
          "name": "G#3",
          "ticks": 49200,
          "time": 51.25,
          "velocity": 0.8818897637795275
        },
        {
          "duration": 0.11770833333333286,
          "durationTicks": 113,
          "midi": 51,
          "name": "D#3",
          "ticks": 49440,
          "time": 51.5,
          "velocity": 0.8818897637795275
        },
        {
          "duration": 0.11770833333333286,
          "durationTicks": 113,
          "midi": 48,
          "name": "C3",
          "ticks": 49560,
          "time": 51.625,
          "velocity": 0.8818897637795275
        },
        {
          "duration": 0.23645833333333144,
          "durationTicks": 227,
          "midi": 44,
          "name": "G#2",
          "ticks": 49680,
          "time": 51.75,
          "velocity": 0.8818897637795275
        },
        {
          "duration": 0.23645833333333144,
          "durationTicks": 227,
          "midi": 41,
          "name": "F2",
          "ticks": 49920,
          "time": 52,
          "velocity": 0.8818897637795275
        },
        {
          "duration": 0.23645833333333144,
          "durationTicks": 227,
          "midi": 53,
          "name": "F3",
          "ticks": 49920,
          "time": 52,
          "velocity": 0.8818897637795275
        },
        {
          "duration": 0.11770833333333286,
          "durationTicks": 113,
          "midi": 44,
          "name": "G#2",
          "ticks": 50160,
          "time": 52.25,
          "velocity": 0.8818897637795275
        },
        {
          "duration": 0.11770833333333286,
          "durationTicks": 113,
          "midi": 48,
          "name": "C3",
          "ticks": 50280,
          "time": 52.375,
          "velocity": 0.8818897637795275
        },
        {
          "duration": 0.23645833333333144,
          "durationTicks": 227,
          "midi": 51,
          "name": "D#3",
          "ticks": 50400,
          "time": 52.5,
          "velocity": 0.8818897637795275
        },
        {
          "duration": 0.23645833333333144,
          "durationTicks": 227,
          "midi": 53,
          "name": "F3",
          "ticks": 50400,
          "time": 52.5,
          "velocity": 0.8818897637795275
        },
        {
          "duration": 0.23645833333333144,
          "durationTicks": 227,
          "midi": 34,
          "name": "A#1",
          "ticks": 50640,
          "time": 52.75,
          "velocity": 0.8818897637795275
        },
        {
          "duration": 0.23645833333333144,
          "durationTicks": 227,
          "midi": 46,
          "name": "A#2",
          "ticks": 50640,
          "time": 52.75,
          "velocity": 0.8818897637795275
        },
        {
          "duration": 0.11770833333333286,
          "durationTicks": 113,
          "midi": 49,
          "name": "C#3",
          "ticks": 50880,
          "time": 53,
          "velocity": 0.8818897637795275
        },
        {
          "duration": 0.11770833333333286,
          "durationTicks": 113,
          "midi": 53,
          "name": "F3",
          "ticks": 51000,
          "time": 53.125,
          "velocity": 0.8818897637795275
        },
        {
          "duration": 0.23645833333333144,
          "durationTicks": 227,
          "midi": 58,
          "name": "A#3",
          "ticks": 51120,
          "time": 53.25,
          "velocity": 0.8818897637795275
        },
        {
          "duration": 0.11770833333333286,
          "durationTicks": 113,
          "midi": 56,
          "name": "G#3",
          "ticks": 51360,
          "time": 53.5,
          "velocity": 0.8818897637795275
        },
        {
          "duration": 0.11770833333333286,
          "durationTicks": 113,
          "midi": 54,
          "name": "F#3",
          "ticks": 51480,
          "time": 53.625,
          "velocity": 0.8818897637795275
        },
        {
          "duration": 0.23645833333333144,
          "durationTicks": 227,
          "midi": 51,
          "name": "D#3",
          "ticks": 51600,
          "time": 53.75,
          "velocity": 0.8818897637795275
        },
        {
          "duration": 0.23645833333333144,
          "durationTicks": 227,
          "midi": 34,
          "name": "A#1",
          "ticks": 51840,
          "time": 54,
          "velocity": 0.8818897637795275
        },
        {
          "duration": 0.23645833333333144,
          "durationTicks": 227,
          "midi": 46,
          "name": "A#2",
          "ticks": 51840,
          "time": 54,
          "velocity": 0.8818897637795275
        },
        {
          "duration": 0.11770833333333286,
          "durationTicks": 113,
          "midi": 37,
          "name": "C#2",
          "ticks": 52080,
          "time": 54.25,
          "velocity": 0.8818897637795275
        },
        {
          "duration": 0.11770833333333286,
          "durationTicks": 113,
          "midi": 41,
          "name": "F2",
          "ticks": 52200,
          "time": 54.375,
          "velocity": 0.8818897637795275
        },
        {
          "duration": 0.23645833333333144,
          "durationTicks": 227,
          "midi": 41,
          "name": "F2",
          "ticks": 52320,
          "time": 54.5,
          "velocity": 0.8818897637795275
        },
        {
          "duration": 0.23645833333333144,
          "durationTicks": 227,
          "midi": 46,
          "name": "A#2",
          "ticks": 52320,
          "time": 54.5,
          "velocity": 0.8818897637795275
        },
        {
          "duration": 0.23645833333333144,
          "durationTicks": 227,
          "midi": 32,
          "name": "G#1",
          "ticks": 52560,
          "time": 54.75,
          "velocity": 0.8818897637795275
        },
        {
          "duration": 0.23645833333333144,
          "durationTicks": 227,
          "midi": 44,
          "name": "G#2",
          "ticks": 52560,
          "time": 54.75,
          "velocity": 0.8818897637795275
        },
        {
          "duration": 0.11770833333333286,
          "durationTicks": 113,
          "midi": 48,
          "name": "C3",
          "ticks": 52800,
          "time": 55,
          "velocity": 0.8818897637795275
        },
        {
          "duration": 0.11770833333333286,
          "durationTicks": 113,
          "midi": 51,
          "name": "D#3",
          "ticks": 52920,
          "time": 55.125,
          "velocity": 0.8818897637795275
        },
        {
          "duration": 0.23645833333333144,
          "durationTicks": 227,
          "midi": 56,
          "name": "G#3",
          "ticks": 53040,
          "time": 55.25,
          "velocity": 0.8818897637795275
        },
        {
          "duration": 0.11770833333333286,
          "durationTicks": 113,
          "midi": 51,
          "name": "D#3",
          "ticks": 53280,
          "time": 55.5,
          "velocity": 0.8818897637795275
        },
        {
          "duration": 0.11770833333333286,
          "durationTicks": 113,
          "midi": 48,
          "name": "C3",
          "ticks": 53400,
          "time": 55.625,
          "velocity": 0.8818897637795275
        },
        {
          "duration": 0.23645833333333144,
          "durationTicks": 227,
          "midi": 44,
          "name": "G#2",
          "ticks": 53520,
          "time": 55.75,
          "velocity": 0.8818897637795275
        },
        {
          "duration": 0.23645833333333144,
          "durationTicks": 227,
          "midi": 41,
          "name": "F2",
          "ticks": 53760,
          "time": 56,
          "velocity": 0.8818897637795275
        },
        {
          "duration": 0.23645833333333144,
          "durationTicks": 227,
          "midi": 53,
          "name": "F3",
          "ticks": 53760,
          "time": 56,
          "velocity": 0.8818897637795275
        },
        {
          "duration": 0.11770833333333286,
          "durationTicks": 113,
          "midi": 44,
          "name": "G#2",
          "ticks": 54000,
          "time": 56.25,
          "velocity": 0.8818897637795275
        },
        {
          "duration": 0.11770833333333286,
          "durationTicks": 113,
          "midi": 48,
          "name": "C3",
          "ticks": 54120,
          "time": 56.375,
          "velocity": 0.8818897637795275
        },
        {
          "duration": 0.23645833333333144,
          "durationTicks": 227,
          "midi": 34,
          "name": "A#1",
          "ticks": 54240,
          "time": 56.5,
          "velocity": 0.8818897637795275
        },
        {
          "duration": 0.23645833333333144,
          "durationTicks": 227,
          "midi": 46,
          "name": "A#2",
          "ticks": 54240,
          "time": 56.5,
          "velocity": 0.8818897637795275
        },
        {
          "duration": 0.11770833333333286,
          "durationTicks": 113,
          "midi": 37,
          "name": "C#2",
          "ticks": 54480,
          "time": 56.75,
          "velocity": 0.8818897637795275
        },
        {
          "duration": 0.11770833333333286,
          "durationTicks": 113,
          "midi": 41,
          "name": "F2",
          "ticks": 54600,
          "time": 56.875,
          "velocity": 0.8818897637795275
        },
        {
          "duration": 0.12395833333333428,
          "durationTicks": 119,
          "midi": 34,
          "name": "A#1",
          "ticks": 54720,
          "time": 57,
          "velocity": 1
        },
        {
          "duration": 0.12395833333333428,
          "durationTicks": 119,
          "midi": 46,
          "name": "A#2",
          "ticks": 54720,
          "time": 57,
          "velocity": 1
        },
        {
          "duration": 0.24895833333333428,
          "durationTicks": 239,
          "midi": 34,
          "name": "A#1",
          "ticks": 54840,
          "time": 57.125,
          "velocity": 1
        },
        {
          "duration": 0.24895833333333428,
          "durationTicks": 239,
          "midi": 46,
          "name": "A#2",
          "ticks": 54840,
          "time": 57.125,
          "velocity": 1
        },
        {
          "duration": 0.12395833333333428,
          "durationTicks": 119,
          "midi": 34,
          "name": "A#1",
          "ticks": 55080,
          "time": 57.375,
          "velocity": 1
        },
        {
          "duration": 0.12395833333333428,
          "durationTicks": 119,
          "midi": 46,
          "name": "A#2",
          "ticks": 55080,
          "time": 57.375,
          "velocity": 1
        },
        {
          "duration": 0.4989583333333343,
          "durationTicks": 479,
          "midi": 34,
          "name": "A#1",
          "ticks": 55200,
          "time": 57.5,
          "velocity": 1
        },
        {
          "duration": 0.4989583333333343,
          "durationTicks": 479,
          "midi": 46,
          "name": "A#2",
          "ticks": 55200,
          "time": 57.5,
          "velocity": 1
        },
        {
          "duration": 0.23645833333333144,
          "durationTicks": 227,
          "midi": 34,
          "name": "A#1",
          "ticks": 55680,
          "time": 58,
          "velocity": 0.6299212598425197
        },
        {
          "duration": 0.23645833333333144,
          "durationTicks": 227,
          "midi": 46,
          "name": "A#2",
          "ticks": 55680,
          "time": 58,
          "velocity": 0.6299212598425197
        },
        {
          "duration": 0.11770833333333286,
          "durationTicks": 113,
          "midi": 37,
          "name": "C#2",
          "ticks": 55920,
          "time": 58.25,
          "velocity": 0.6299212598425197
        },
        {
          "duration": 0.11770833333333286,
          "durationTicks": 113,
          "midi": 41,
          "name": "F2",
          "ticks": 56040,
          "time": 58.375,
          "velocity": 0.6299212598425197
        },
        {
          "duration": 0.23645833333333144,
          "durationTicks": 227,
          "midi": 41,
          "name": "F2",
          "ticks": 56160,
          "time": 58.5,
          "velocity": 0.6299212598425197
        },
        {
          "duration": 0.23645833333333144,
          "durationTicks": 227,
          "midi": 46,
          "name": "A#2",
          "ticks": 56160,
          "time": 58.5,
          "velocity": 0.6299212598425197
        },
        {
          "duration": 0.23645833333333144,
          "durationTicks": 227,
          "midi": 34,
          "name": "A#1",
          "ticks": 56400,
          "time": 58.75,
          "velocity": 0.6299212598425197
        },
        {
          "duration": 0.23645833333333144,
          "durationTicks": 227,
          "midi": 46,
          "name": "A#2",
          "ticks": 56400,
          "time": 58.75,
          "velocity": 0.6299212598425197
        },
        {
          "duration": 0.11770833333333286,
          "durationTicks": 113,
          "midi": 49,
          "name": "C#3",
          "ticks": 56640,
          "time": 59,
          "velocity": 0.6299212598425197
        },
        {
          "duration": 0.11770833333333286,
          "durationTicks": 113,
          "midi": 53,
          "name": "F3",
          "ticks": 56760,
          "time": 59.125,
          "velocity": 0.6299212598425197
        },
        {
          "duration": 0.23645833333333144,
          "durationTicks": 227,
          "midi": 58,
          "name": "A#3",
          "ticks": 56880,
          "time": 59.25,
          "velocity": 0.6299212598425197
        },
        {
          "duration": 0.11770833333333286,
          "durationTicks": 113,
          "midi": 53,
          "name": "F3",
          "ticks": 57120,
          "time": 59.5,
          "velocity": 0.6299212598425197
        },
        {
          "duration": 0.11770833333333286,
          "durationTicks": 113,
          "midi": 49,
          "name": "C#3",
          "ticks": 57240,
          "time": 59.625,
          "velocity": 0.6299212598425197
        },
        {
          "duration": 0.23645833333333144,
          "durationTicks": 227,
          "midi": 46,
          "name": "A#2",
          "ticks": 57360,
          "time": 59.75,
          "velocity": 0.6299212598425197
        },
        {
          "duration": 0.23645833333333144,
          "durationTicks": 227,
          "midi": 32,
          "name": "G#1",
          "ticks": 57600,
          "time": 60,
          "velocity": 0.6299212598425197
        },
        {
          "duration": 0.23645833333333144,
          "durationTicks": 227,
          "midi": 44,
          "name": "G#2",
          "ticks": 57600,
          "time": 60,
          "velocity": 0.6299212598425197
        },
        {
          "duration": 0.11770833333333286,
          "durationTicks": 113,
          "midi": 36,
          "name": "C2",
          "ticks": 57840,
          "time": 60.25,
          "velocity": 0.6299212598425197
        },
        {
          "duration": 0.11770833333333286,
          "durationTicks": 113,
          "midi": 39,
          "name": "D#2",
          "ticks": 57960,
          "time": 60.375,
          "velocity": 0.6299212598425197
        },
        {
          "duration": 0.23645833333333144,
          "durationTicks": 227,
          "midi": 39,
          "name": "D#2",
          "ticks": 58080,
          "time": 60.5,
          "velocity": 0.6299212598425197
        },
        {
          "duration": 0.23645833333333144,
          "durationTicks": 227,
          "midi": 44,
          "name": "G#2",
          "ticks": 58080,
          "time": 60.5,
          "velocity": 0.6299212598425197
        },
        {
          "duration": 0.23645833333333144,
          "durationTicks": 227,
          "midi": 32,
          "name": "G#1",
          "ticks": 58320,
          "time": 60.75,
          "velocity": 0.6299212598425197
        },
        {
          "duration": 0.23645833333333144,
          "durationTicks": 227,
          "midi": 44,
          "name": "G#2",
          "ticks": 58320,
          "time": 60.75,
          "velocity": 0.6299212598425197
        },
        {
          "duration": 0.11770833333333286,
          "durationTicks": 113,
          "midi": 48,
          "name": "C3",
          "ticks": 58560,
          "time": 61,
          "velocity": 0.6299212598425197
        },
        {
          "duration": 0.11770833333333286,
          "durationTicks": 113,
          "midi": 51,
          "name": "D#3",
          "ticks": 58680,
          "time": 61.125,
          "velocity": 0.6299212598425197
        },
        {
          "duration": 0.23645833333333144,
          "durationTicks": 227,
          "midi": 56,
          "name": "G#3",
          "ticks": 58800,
          "time": 61.25,
          "velocity": 0.6299212598425197
        },
        {
          "duration": 0.11770833333333286,
          "durationTicks": 113,
          "midi": 51,
          "name": "D#3",
          "ticks": 59040,
          "time": 61.5,
          "velocity": 0.6299212598425197
        },
        {
          "duration": 0.11770833333333286,
          "durationTicks": 113,
          "midi": 48,
          "name": "C3",
          "ticks": 59160,
          "time": 61.625,
          "velocity": 0.6299212598425197
        },
        {
          "duration": 0.23645833333333144,
          "durationTicks": 227,
          "midi": 44,
          "name": "G#2",
          "ticks": 59280,
          "time": 61.75,
          "velocity": 0.6299212598425197
        },
        {
          "duration": 0.23645833333333144,
          "durationTicks": 227,
          "midi": 30,
          "name": "F#1",
          "ticks": 59520,
          "time": 62,
          "velocity": 0.6299212598425197
        },
        {
          "duration": 0.23645833333333144,
          "durationTicks": 227,
          "midi": 42,
          "name": "F#2",
          "ticks": 59520,
          "time": 62,
          "velocity": 0.6299212598425197
        },
        {
          "duration": 0.11770833333333286,
          "durationTicks": 113,
          "midi": 34,
          "name": "A#1",
          "ticks": 59760,
          "time": 62.25,
          "velocity": 0.6299212598425197
        },
        {
          "duration": 0.11770833333333286,
          "durationTicks": 113,
          "midi": 37,
          "name": "C#2",
          "ticks": 59880,
          "time": 62.375,
          "velocity": 0.6299212598425197
        },
        {
          "duration": 0.23645833333333144,
          "durationTicks": 227,
          "midi": 37,
          "name": "C#2",
          "ticks": 60000,
          "time": 62.5,
          "velocity": 0.6299212598425197
        },
        {
          "duration": 0.23645833333333144,
          "durationTicks": 227,
          "midi": 42,
          "name": "F#2",
          "ticks": 60000,
          "time": 62.5,
          "velocity": 0.6299212598425197
        },
        {
          "duration": 0.23645833333333144,
          "durationTicks": 227,
          "midi": 30,
          "name": "F#1",
          "ticks": 60240,
          "time": 62.75,
          "velocity": 0.6299212598425197
        },
        {
          "duration": 0.23645833333333144,
          "durationTicks": 227,
          "midi": 42,
          "name": "F#2",
          "ticks": 60240,
          "time": 62.75,
          "velocity": 0.6299212598425197
        },
        {
          "duration": 0.11770833333333286,
          "durationTicks": 113,
          "midi": 46,
          "name": "A#2",
          "ticks": 60480,
          "time": 63,
          "velocity": 0.6299212598425197
        },
        {
          "duration": 0.11770833333333286,
          "durationTicks": 113,
          "midi": 49,
          "name": "C#3",
          "ticks": 60600,
          "time": 63.125,
          "velocity": 0.6299212598425197
        },
        {
          "duration": 0.23645833333333144,
          "durationTicks": 227,
          "midi": 54,
          "name": "F#3",
          "ticks": 60720,
          "time": 63.25,
          "velocity": 0.6299212598425197
        },
        {
          "duration": 0.11770833333333286,
          "durationTicks": 113,
          "midi": 49,
          "name": "C#3",
          "ticks": 60960,
          "time": 63.5,
          "velocity": 0.6299212598425197
        },
        {
          "duration": 0.11770833333333286,
          "durationTicks": 113,
          "midi": 46,
          "name": "A#2",
          "ticks": 61080,
          "time": 63.625,
          "velocity": 0.6299212598425197
        },
        {
          "duration": 0.23645833333333144,
          "durationTicks": 227,
          "midi": 42,
          "name": "F#2",
          "ticks": 61200,
          "time": 63.75,
          "velocity": 0.6299212598425197
        },
        {
          "duration": 0.23645833333333144,
          "durationTicks": 227,
          "midi": 32,
          "name": "G#1",
          "ticks": 61440,
          "time": 64,
          "velocity": 0.6299212598425197
        },
        {
          "duration": 0.23645833333333144,
          "durationTicks": 227,
          "midi": 44,
          "name": "G#2",
          "ticks": 61440,
          "time": 64,
          "velocity": 0.6299212598425197
        },
        {
          "duration": 0.11770833333333997,
          "durationTicks": 113,
          "midi": 36,
          "name": "C2",
          "ticks": 61680,
          "time": 64.25,
          "velocity": 0.6299212598425197
        },
        {
          "duration": 0.11770833333333997,
          "durationTicks": 113,
          "midi": 39,
          "name": "D#2",
          "ticks": 61800,
          "time": 64.375,
          "velocity": 0.6299212598425197
        },
        {
          "duration": 0.23645833333333144,
          "durationTicks": 227,
          "midi": 39,
          "name": "D#2",
          "ticks": 61920,
          "time": 64.5,
          "velocity": 0.6299212598425197
        },
        {
          "duration": 0.23645833333333144,
          "durationTicks": 227,
          "midi": 44,
          "name": "G#2",
          "ticks": 61920,
          "time": 64.5,
          "velocity": 0.6299212598425197
        },
        {
          "duration": 0.23645833333333144,
          "durationTicks": 227,
          "midi": 32,
          "name": "G#1",
          "ticks": 62160,
          "time": 64.75,
          "velocity": 0.6299212598425197
        },
        {
          "duration": 0.23645833333333144,
          "durationTicks": 227,
          "midi": 44,
          "name": "G#2",
          "ticks": 62160,
          "time": 64.75,
          "velocity": 0.6299212598425197
        },
        {
          "duration": 0.11770833333333997,
          "durationTicks": 113,
          "midi": 48,
          "name": "C3",
          "ticks": 62400,
          "time": 65,
          "velocity": 0.6299212598425197
        },
        {
          "duration": 0.11770833333333997,
          "durationTicks": 113,
          "midi": 51,
          "name": "D#3",
          "ticks": 62520,
          "time": 65.125,
          "velocity": 0.6299212598425197
        },
        {
          "duration": 0.23645833333333144,
          "durationTicks": 227,
          "midi": 56,
          "name": "G#3",
          "ticks": 62640,
          "time": 65.25,
          "velocity": 0.6299212598425197
        },
        {
          "duration": 0.11770833333333997,
          "durationTicks": 113,
          "midi": 51,
          "name": "D#3",
          "ticks": 62880,
          "time": 65.5,
          "velocity": 0.6299212598425197
        },
        {
          "duration": 0.11770833333333997,
          "durationTicks": 113,
          "midi": 48,
          "name": "C3",
          "ticks": 63000,
          "time": 65.625,
          "velocity": 0.6299212598425197
        },
        {
          "duration": 0.23645833333333144,
          "durationTicks": 227,
          "midi": 44,
          "name": "G#2",
          "ticks": 63120,
          "time": 65.75,
          "velocity": 0.6299212598425197
        },
        {
          "duration": 0.23645833333333144,
          "durationTicks": 227,
          "midi": 34,
          "name": "A#1",
          "ticks": 63360,
          "time": 66,
          "velocity": 0.6299212598425197
        },
        {
          "duration": 0.23645833333333144,
          "durationTicks": 227,
          "midi": 46,
          "name": "A#2",
          "ticks": 63360,
          "time": 66,
          "velocity": 0.6299212598425197
        },
        {
          "duration": 0.11770833333333997,
          "durationTicks": 113,
          "midi": 37,
          "name": "C#2",
          "ticks": 63600,
          "time": 66.25,
          "velocity": 0.6299212598425197
        },
        {
          "duration": 0.11770833333333997,
          "durationTicks": 113,
          "midi": 41,
          "name": "F2",
          "ticks": 63720,
          "time": 66.375,
          "velocity": 0.6299212598425197
        },
        {
          "duration": 0.23645833333333144,
          "durationTicks": 227,
          "midi": 41,
          "name": "F2",
          "ticks": 63840,
          "time": 66.5,
          "velocity": 0.6299212598425197
        },
        {
          "duration": 0.23645833333333144,
          "durationTicks": 227,
          "midi": 46,
          "name": "A#2",
          "ticks": 63840,
          "time": 66.5,
          "velocity": 0.6299212598425197
        },
        {
          "duration": 0.23645833333333144,
          "durationTicks": 227,
          "midi": 34,
          "name": "A#1",
          "ticks": 64080,
          "time": 66.75,
          "velocity": 0.6299212598425197
        },
        {
          "duration": 0.23645833333333144,
          "durationTicks": 227,
          "midi": 46,
          "name": "A#2",
          "ticks": 64080,
          "time": 66.75,
          "velocity": 0.6299212598425197
        },
        {
          "duration": 0.11770833333333997,
          "durationTicks": 113,
          "midi": 49,
          "name": "C#3",
          "ticks": 64320,
          "time": 67,
          "velocity": 0.6299212598425197
        },
        {
          "duration": 0.11770833333333997,
          "durationTicks": 113,
          "midi": 53,
          "name": "F3",
          "ticks": 64440,
          "time": 67.125,
          "velocity": 0.6299212598425197
        },
        {
          "duration": 0.23645833333333144,
          "durationTicks": 227,
          "midi": 58,
          "name": "A#3",
          "ticks": 64560,
          "time": 67.25,
          "velocity": 0.6299212598425197
        },
        {
          "duration": 0.11770833333333997,
          "durationTicks": 113,
          "midi": 53,
          "name": "F3",
          "ticks": 64800,
          "time": 67.5,
          "velocity": 0.6299212598425197
        },
        {
          "duration": 0.11770833333333997,
          "durationTicks": 113,
          "midi": 49,
          "name": "C#3",
          "ticks": 64920,
          "time": 67.625,
          "velocity": 0.6299212598425197
        },
        {
          "duration": 0.23645833333333144,
          "durationTicks": 227,
          "midi": 46,
          "name": "A#2",
          "ticks": 65040,
          "time": 67.75,
          "velocity": 0.6299212598425197
        },
        {
          "duration": 0.23645833333333144,
          "durationTicks": 227,
          "midi": 32,
          "name": "G#1",
          "ticks": 65280,
          "time": 68,
          "velocity": 0.6299212598425197
        },
        {
          "duration": 0.23645833333333144,
          "durationTicks": 227,
          "midi": 44,
          "name": "G#2",
          "ticks": 65280,
          "time": 68,
          "velocity": 0.6299212598425197
        },
        {
          "duration": 0.11770833333333997,
          "durationTicks": 113,
          "midi": 36,
          "name": "C2",
          "ticks": 65520,
          "time": 68.25,
          "velocity": 0.6299212598425197
        },
        {
          "duration": 0.11770833333333997,
          "durationTicks": 113,
          "midi": 39,
          "name": "D#2",
          "ticks": 65640,
          "time": 68.375,
          "velocity": 0.6299212598425197
        },
        {
          "duration": 0.23645833333333144,
          "durationTicks": 227,
          "midi": 39,
          "name": "D#2",
          "ticks": 65760,
          "time": 68.5,
          "velocity": 0.6299212598425197
        },
        {
          "duration": 0.23645833333333144,
          "durationTicks": 227,
          "midi": 44,
          "name": "G#2",
          "ticks": 65760,
          "time": 68.5,
          "velocity": 0.6299212598425197
        },
        {
          "duration": 0.23645833333333144,
          "durationTicks": 227,
          "midi": 32,
          "name": "G#1",
          "ticks": 66000,
          "time": 68.75,
          "velocity": 0.6299212598425197
        },
        {
          "duration": 0.23645833333333144,
          "durationTicks": 227,
          "midi": 44,
          "name": "G#2",
          "ticks": 66000,
          "time": 68.75,
          "velocity": 0.6299212598425197
        },
        {
          "duration": 0.11770833333333997,
          "durationTicks": 113,
          "midi": 48,
          "name": "C3",
          "ticks": 66240,
          "time": 69,
          "velocity": 0.6299212598425197
        },
        {
          "duration": 0.11770833333333997,
          "durationTicks": 113,
          "midi": 51,
          "name": "D#3",
          "ticks": 66360,
          "time": 69.125,
          "velocity": 0.6299212598425197
        },
        {
          "duration": 0.23645833333333144,
          "durationTicks": 227,
          "midi": 56,
          "name": "G#3",
          "ticks": 66480,
          "time": 69.25,
          "velocity": 0.6299212598425197
        },
        {
          "duration": 0.11770833333333997,
          "durationTicks": 113,
          "midi": 51,
          "name": "D#3",
          "ticks": 66720,
          "time": 69.5,
          "velocity": 0.6299212598425197
        },
        {
          "duration": 0.11770833333333997,
          "durationTicks": 113,
          "midi": 48,
          "name": "C3",
          "ticks": 66840,
          "time": 69.625,
          "velocity": 0.6299212598425197
        },
        {
          "duration": 0.23645833333333144,
          "durationTicks": 227,
          "midi": 44,
          "name": "G#2",
          "ticks": 66960,
          "time": 69.75,
          "velocity": 0.6299212598425197
        },
        {
          "duration": 0.23645833333333144,
          "durationTicks": 227,
          "midi": 30,
          "name": "F#1",
          "ticks": 67200,
          "time": 70,
          "velocity": 0.6299212598425197
        },
        {
          "duration": 0.23645833333333144,
          "durationTicks": 227,
          "midi": 42,
          "name": "F#2",
          "ticks": 67200,
          "time": 70,
          "velocity": 0.6299212598425197
        },
        {
          "duration": 0.11770833333333997,
          "durationTicks": 113,
          "midi": 34,
          "name": "A#1",
          "ticks": 67440,
          "time": 70.25,
          "velocity": 0.6299212598425197
        },
        {
          "duration": 0.11770833333333997,
          "durationTicks": 113,
          "midi": 37,
          "name": "C#2",
          "ticks": 67560,
          "time": 70.375,
          "velocity": 0.6299212598425197
        },
        {
          "duration": 0.23645833333333144,
          "durationTicks": 227,
          "midi": 37,
          "name": "C#2",
          "ticks": 67680,
          "time": 70.5,
          "velocity": 0.6299212598425197
        },
        {
          "duration": 0.23645833333333144,
          "durationTicks": 227,
          "midi": 42,
          "name": "F#2",
          "ticks": 67680,
          "time": 70.5,
          "velocity": 0.6299212598425197
        },
        {
          "duration": 0.23645833333333144,
          "durationTicks": 227,
          "midi": 30,
          "name": "F#1",
          "ticks": 67920,
          "time": 70.75,
          "velocity": 0.6299212598425197
        },
        {
          "duration": 0.23645833333333144,
          "durationTicks": 227,
          "midi": 42,
          "name": "F#2",
          "ticks": 67920,
          "time": 70.75,
          "velocity": 0.6299212598425197
        },
        {
          "duration": 0.11770833333333997,
          "durationTicks": 113,
          "midi": 46,
          "name": "A#2",
          "ticks": 68160,
          "time": 71,
          "velocity": 0.6299212598425197
        },
        {
          "duration": 0.11770833333333997,
          "durationTicks": 113,
          "midi": 49,
          "name": "C#3",
          "ticks": 68280,
          "time": 71.125,
          "velocity": 0.6299212598425197
        },
        {
          "duration": 0.23645833333333144,
          "durationTicks": 227,
          "midi": 54,
          "name": "F#3",
          "ticks": 68400,
          "time": 71.25,
          "velocity": 0.6299212598425197
        },
        {
          "duration": 0.11770833333333997,
          "durationTicks": 113,
          "midi": 49,
          "name": "C#3",
          "ticks": 68640,
          "time": 71.5,
          "velocity": 0.6299212598425197
        },
        {
          "duration": 0.11770833333333997,
          "durationTicks": 113,
          "midi": 46,
          "name": "A#2",
          "ticks": 68760,
          "time": 71.625,
          "velocity": 0.6299212598425197
        },
        {
          "duration": 0.23645833333333144,
          "durationTicks": 227,
          "midi": 42,
          "name": "F#2",
          "ticks": 68880,
          "time": 71.75,
          "velocity": 0.6299212598425197
        },
        {
          "duration": 0.23645833333333144,
          "durationTicks": 227,
          "midi": 32,
          "name": "G#1",
          "ticks": 69120,
          "time": 72,
          "velocity": 0.6299212598425197
        },
        {
          "duration": 0.23645833333333144,
          "durationTicks": 227,
          "midi": 44,
          "name": "G#2",
          "ticks": 69120,
          "time": 72,
          "velocity": 0.6299212598425197
        },
        {
          "duration": 0.11770833333333997,
          "durationTicks": 113,
          "midi": 36,
          "name": "C2",
          "ticks": 69360,
          "time": 72.25,
          "velocity": 0.6299212598425197
        },
        {
          "duration": 0.11770833333333997,
          "durationTicks": 113,
          "midi": 39,
          "name": "D#2",
          "ticks": 69480,
          "time": 72.375,
          "velocity": 0.6299212598425197
        },
        {
          "duration": 0.23645833333333144,
          "durationTicks": 227,
          "midi": 39,
          "name": "D#2",
          "ticks": 69600,
          "time": 72.5,
          "velocity": 0.6299212598425197
        },
        {
          "duration": 0.23645833333333144,
          "durationTicks": 227,
          "midi": 44,
          "name": "G#2",
          "ticks": 69600,
          "time": 72.5,
          "velocity": 0.6299212598425197
        },
        {
          "duration": 0.23645833333333144,
          "durationTicks": 227,
          "midi": 32,
          "name": "G#1",
          "ticks": 69840,
          "time": 72.75,
          "velocity": 0.6299212598425197
        },
        {
          "duration": 0.23645833333333144,
          "durationTicks": 227,
          "midi": 44,
          "name": "G#2",
          "ticks": 69840,
          "time": 72.75,
          "velocity": 0.6299212598425197
        },
        {
          "duration": 0.11770833333333997,
          "durationTicks": 113,
          "midi": 48,
          "name": "C3",
          "ticks": 70080,
          "time": 73,
          "velocity": 0.6299212598425197
        },
        {
          "duration": 0.11770833333333997,
          "durationTicks": 113,
          "midi": 51,
          "name": "D#3",
          "ticks": 70200,
          "time": 73.125,
          "velocity": 0.6299212598425197
        },
        {
          "duration": 0.23645833333333144,
          "durationTicks": 227,
          "midi": 56,
          "name": "G#3",
          "ticks": 70320,
          "time": 73.25,
          "velocity": 0.6299212598425197
        },
        {
          "duration": 0.11770833333333997,
          "durationTicks": 113,
          "midi": 51,
          "name": "D#3",
          "ticks": 70560,
          "time": 73.5,
          "velocity": 0.6299212598425197
        },
        {
          "duration": 0.11770833333333997,
          "durationTicks": 113,
          "midi": 48,
          "name": "C3",
          "ticks": 70680,
          "time": 73.625,
          "velocity": 0.6299212598425197
        },
        {
          "duration": 0.23645833333333144,
          "durationTicks": 227,
          "midi": 44,
          "name": "G#2",
          "ticks": 70800,
          "time": 73.75,
          "velocity": 0.6299212598425197
        },
        {
          "duration": 0.23645833333333144,
          "durationTicks": 227,
          "midi": 34,
          "name": "A#1",
          "ticks": 71040,
          "time": 74,
          "velocity": 0.6299212598425197
        },
        {
          "duration": 0.23645833333333144,
          "durationTicks": 227,
          "midi": 46,
          "name": "A#2",
          "ticks": 71040,
          "time": 74,
          "velocity": 0.6299212598425197
        },
        {
          "duration": 0.11770833333333997,
          "durationTicks": 113,
          "midi": 37,
          "name": "C#2",
          "ticks": 71280,
          "time": 74.25,
          "velocity": 0.6299212598425197
        },
        {
          "duration": 0.11770833333333997,
          "durationTicks": 113,
          "midi": 41,
          "name": "F2",
          "ticks": 71400,
          "time": 74.375,
          "velocity": 0.6299212598425197
        },
        {
          "duration": 0.23645833333333144,
          "durationTicks": 227,
          "midi": 41,
          "name": "F2",
          "ticks": 71520,
          "time": 74.5,
          "velocity": 0.6299212598425197
        },
        {
          "duration": 0.23645833333333144,
          "durationTicks": 227,
          "midi": 46,
          "name": "A#2",
          "ticks": 71520,
          "time": 74.5,
          "velocity": 0.6299212598425197
        },
        {
          "duration": 0.23645833333333144,
          "durationTicks": 227,
          "midi": 34,
          "name": "A#1",
          "ticks": 71760,
          "time": 74.75,
          "velocity": 0.6299212598425197
        },
        {
          "duration": 0.23645833333333144,
          "durationTicks": 227,
          "midi": 46,
          "name": "A#2",
          "ticks": 71760,
          "time": 74.75,
          "velocity": 0.6299212598425197
        },
        {
          "duration": 0.11770833333333997,
          "durationTicks": 113,
          "midi": 49,
          "name": "C#3",
          "ticks": 72000,
          "time": 75,
          "velocity": 0.6299212598425197
        },
        {
          "duration": 0.11770833333333997,
          "durationTicks": 113,
          "midi": 53,
          "name": "F3",
          "ticks": 72120,
          "time": 75.125,
          "velocity": 0.6299212598425197
        },
        {
          "duration": 0.23645833333333144,
          "durationTicks": 227,
          "midi": 58,
          "name": "A#3",
          "ticks": 72240,
          "time": 75.25,
          "velocity": 0.6299212598425197
        },
        {
          "duration": 0.11770833333333997,
          "durationTicks": 113,
          "midi": 53,
          "name": "F3",
          "ticks": 72480,
          "time": 75.5,
          "velocity": 0.6299212598425197
        },
        {
          "duration": 0.11770833333333997,
          "durationTicks": 113,
          "midi": 49,
          "name": "C#3",
          "ticks": 72600,
          "time": 75.625,
          "velocity": 0.6299212598425197
        },
        {
          "duration": 0.23645833333333144,
          "durationTicks": 227,
          "midi": 46,
          "name": "A#2",
          "ticks": 72720,
          "time": 75.75,
          "velocity": 0.6299212598425197
        },
        {
          "duration": 0.23645833333333144,
          "durationTicks": 227,
          "midi": 32,
          "name": "G#1",
          "ticks": 72960,
          "time": 76,
          "velocity": 0.6299212598425197
        },
        {
          "duration": 0.23645833333333144,
          "durationTicks": 227,
          "midi": 44,
          "name": "G#2",
          "ticks": 72960,
          "time": 76,
          "velocity": 0.6299212598425197
        },
        {
          "duration": 0.11770833333333997,
          "durationTicks": 113,
          "midi": 36,
          "name": "C2",
          "ticks": 73200,
          "time": 76.25,
          "velocity": 0.6299212598425197
        },
        {
          "duration": 0.11770833333333997,
          "durationTicks": 113,
          "midi": 39,
          "name": "D#2",
          "ticks": 73320,
          "time": 76.375,
          "velocity": 0.6299212598425197
        },
        {
          "duration": 0.23645833333333144,
          "durationTicks": 227,
          "midi": 39,
          "name": "D#2",
          "ticks": 73440,
          "time": 76.5,
          "velocity": 0.6299212598425197
        },
        {
          "duration": 0.23645833333333144,
          "durationTicks": 227,
          "midi": 44,
          "name": "G#2",
          "ticks": 73440,
          "time": 76.5,
          "velocity": 0.6299212598425197
        },
        {
          "duration": 0.23645833333333144,
          "durationTicks": 227,
          "midi": 32,
          "name": "G#1",
          "ticks": 73680,
          "time": 76.75,
          "velocity": 0.6299212598425197
        },
        {
          "duration": 0.23645833333333144,
          "durationTicks": 227,
          "midi": 44,
          "name": "G#2",
          "ticks": 73680,
          "time": 76.75,
          "velocity": 0.6299212598425197
        },
        {
          "duration": 0.11770833333333997,
          "durationTicks": 113,
          "midi": 48,
          "name": "C3",
          "ticks": 73920,
          "time": 77,
          "velocity": 0.6299212598425197
        },
        {
          "duration": 0.11770833333333997,
          "durationTicks": 113,
          "midi": 51,
          "name": "D#3",
          "ticks": 74040,
          "time": 77.125,
          "velocity": 0.6299212598425197
        },
        {
          "duration": 0.23645833333333144,
          "durationTicks": 227,
          "midi": 56,
          "name": "G#3",
          "ticks": 74160,
          "time": 77.25,
          "velocity": 0.6299212598425197
        },
        {
          "duration": 0.11770833333333997,
          "durationTicks": 113,
          "midi": 51,
          "name": "D#3",
          "ticks": 74400,
          "time": 77.5,
          "velocity": 0.6299212598425197
        },
        {
          "duration": 0.11770833333333997,
          "durationTicks": 113,
          "midi": 48,
          "name": "C3",
          "ticks": 74520,
          "time": 77.625,
          "velocity": 0.6299212598425197
        },
        {
          "duration": 0.23645833333333144,
          "durationTicks": 227,
          "midi": 44,
          "name": "G#2",
          "ticks": 74640,
          "time": 77.75,
          "velocity": 0.6299212598425197
        },
        {
          "duration": 0.23645833333333144,
          "durationTicks": 227,
          "midi": 30,
          "name": "F#1",
          "ticks": 74880,
          "time": 78,
          "velocity": 0.6299212598425197
        },
        {
          "duration": 0.23645833333333144,
          "durationTicks": 227,
          "midi": 42,
          "name": "F#2",
          "ticks": 74880,
          "time": 78,
          "velocity": 0.6299212598425197
        },
        {
          "duration": 0.11770833333333997,
          "durationTicks": 113,
          "midi": 34,
          "name": "A#1",
          "ticks": 75120,
          "time": 78.25,
          "velocity": 0.6299212598425197
        },
        {
          "duration": 0.11770833333333997,
          "durationTicks": 113,
          "midi": 37,
          "name": "C#2",
          "ticks": 75240,
          "time": 78.375,
          "velocity": 0.6299212598425197
        },
        {
          "duration": 0.23645833333333144,
          "durationTicks": 227,
          "midi": 37,
          "name": "C#2",
          "ticks": 75360,
          "time": 78.5,
          "velocity": 0.6299212598425197
        },
        {
          "duration": 0.23645833333333144,
          "durationTicks": 227,
          "midi": 42,
          "name": "F#2",
          "ticks": 75360,
          "time": 78.5,
          "velocity": 0.6299212598425197
        },
        {
          "duration": 0.23645833333333144,
          "durationTicks": 227,
          "midi": 30,
          "name": "F#1",
          "ticks": 75600,
          "time": 78.75,
          "velocity": 0.6299212598425197
        },
        {
          "duration": 0.23645833333333144,
          "durationTicks": 227,
          "midi": 42,
          "name": "F#2",
          "ticks": 75600,
          "time": 78.75,
          "velocity": 0.6299212598425197
        },
        {
          "duration": 0.11770833333333997,
          "durationTicks": 113,
          "midi": 46,
          "name": "A#2",
          "ticks": 75840,
          "time": 79,
          "velocity": 0.6299212598425197
        },
        {
          "duration": 0.11770833333333997,
          "durationTicks": 113,
          "midi": 49,
          "name": "C#3",
          "ticks": 75960,
          "time": 79.125,
          "velocity": 0.6299212598425197
        },
        {
          "duration": 0.23645833333333144,
          "durationTicks": 227,
          "midi": 54,
          "name": "F#3",
          "ticks": 76080,
          "time": 79.25,
          "velocity": 0.6299212598425197
        },
        {
          "duration": 0.11770833333333997,
          "durationTicks": 113,
          "midi": 49,
          "name": "C#3",
          "ticks": 76320,
          "time": 79.5,
          "velocity": 0.6299212598425197
        },
        {
          "duration": 0.11770833333333997,
          "durationTicks": 113,
          "midi": 46,
          "name": "A#2",
          "ticks": 76440,
          "time": 79.625,
          "velocity": 0.6299212598425197
        },
        {
          "duration": 0.23645833333333144,
          "durationTicks": 227,
          "midi": 42,
          "name": "F#2",
          "ticks": 76560,
          "time": 79.75,
          "velocity": 0.6299212598425197
        },
        {
          "duration": 0.23645833333333144,
          "durationTicks": 227,
          "midi": 32,
          "name": "G#1",
          "ticks": 76800,
          "time": 80,
          "velocity": 0.6299212598425197
        },
        {
          "duration": 0.23645833333333144,
          "durationTicks": 227,
          "midi": 44,
          "name": "G#2",
          "ticks": 76800,
          "time": 80,
          "velocity": 0.6299212598425197
        },
        {
          "duration": 0.11770833333333997,
          "durationTicks": 113,
          "midi": 36,
          "name": "C2",
          "ticks": 77040,
          "time": 80.25,
          "velocity": 0.6614173228346457
        },
        {
          "duration": 0.11770833333333997,
          "durationTicks": 113,
          "midi": 39,
          "name": "D#2",
          "ticks": 77160,
          "time": 80.375,
          "velocity": 0.6771653543307087
        },
        {
          "duration": 0.23645833333333144,
          "durationTicks": 227,
          "midi": 39,
          "name": "D#2",
          "ticks": 77280,
          "time": 80.5,
          "velocity": 0.6929133858267716
        },
        {
          "duration": 0.23645833333333144,
          "durationTicks": 227,
          "midi": 44,
          "name": "G#2",
          "ticks": 77280,
          "time": 80.5,
          "velocity": 0.6929133858267716
        },
        {
          "duration": 0.23645833333333144,
          "durationTicks": 227,
          "midi": 32,
          "name": "G#1",
          "ticks": 77520,
          "time": 80.75,
          "velocity": 0.7244094488188977
        },
        {
          "duration": 0.23645833333333144,
          "durationTicks": 227,
          "midi": 44,
          "name": "G#2",
          "ticks": 77520,
          "time": 80.75,
          "velocity": 0.7244094488188977
        },
        {
          "duration": 0.12395833333333428,
          "durationTicks": 119,
          "midi": 32,
          "name": "G#1",
          "ticks": 77760,
          "time": 81,
          "velocity": 1
        },
        {
          "duration": 0.12395833333333428,
          "durationTicks": 119,
          "midi": 44,
          "name": "G#2",
          "ticks": 77760,
          "time": 81,
          "velocity": 1
        },
        {
          "duration": 0.24895833333333428,
          "durationTicks": 239,
          "midi": 32,
          "name": "G#1",
          "ticks": 77880,
          "time": 81.125,
          "velocity": 1
        },
        {
          "duration": 0.24895833333333428,
          "durationTicks": 239,
          "midi": 44,
          "name": "G#2",
          "ticks": 77880,
          "time": 81.125,
          "velocity": 1
        },
        {
          "duration": 0.12395833333333428,
          "durationTicks": 119,
          "midi": 32,
          "name": "G#1",
          "ticks": 78120,
          "time": 81.375,
          "velocity": 1
        },
        {
          "duration": 0.12395833333333428,
          "durationTicks": 119,
          "midi": 44,
          "name": "G#2",
          "ticks": 78120,
          "time": 81.375,
          "velocity": 1
        },
        {
          "duration": 0.24895833333333428,
          "durationTicks": 239,
          "midi": 34,
          "name": "A#1",
          "ticks": 78240,
          "time": 81.5,
          "velocity": 1
        },
        {
          "duration": 0.24895833333333428,
          "durationTicks": 239,
          "midi": 46,
          "name": "A#2",
          "ticks": 78240,
          "time": 81.5,
          "velocity": 1
        },
        {
          "duration": 0.12395833333333428,
          "durationTicks": 119,
          "midi": 34,
          "name": "A#1",
          "ticks": 78480,
          "time": 81.75,
          "velocity": 1
        },
        {
          "duration": 0.12395833333333428,
          "durationTicks": 119,
          "midi": 46,
          "name": "A#2",
          "ticks": 78480,
          "time": 81.75,
          "velocity": 1
        },
        {
          "duration": 0.11770833333333997,
          "durationTicks": 113,
          "midi": 34,
          "name": "A#1",
          "ticks": 78600,
          "time": 81.875,
          "velocity": 0.8661417322834646
        },
        {
          "duration": 0.11770833333333997,
          "durationTicks": 113,
          "midi": 46,
          "name": "A#2",
          "ticks": 78600,
          "time": 81.875,
          "velocity": 0.8661417322834646
        },
        {
          "duration": 0.23645833333333144,
          "durationTicks": 227,
          "midi": 34,
          "name": "A#1",
          "ticks": 78720,
          "time": 82,
          "velocity": 0.8818897637795275
        },
        {
          "duration": 0.23645833333333144,
          "durationTicks": 227,
          "midi": 46,
          "name": "A#2",
          "ticks": 78720,
          "time": 82,
          "velocity": 0.8818897637795275
        },
        {
          "duration": 0.11770833333333997,
          "durationTicks": 113,
          "midi": 37,
          "name": "C#2",
          "ticks": 78960,
          "time": 82.25,
          "velocity": 0.8818897637795275
        },
        {
          "duration": 0.11770833333333997,
          "durationTicks": 113,
          "midi": 41,
          "name": "F2",
          "ticks": 79080,
          "time": 82.375,
          "velocity": 0.8818897637795275
        },
        {
          "duration": 0.23645833333333144,
          "durationTicks": 227,
          "midi": 41,
          "name": "F2",
          "ticks": 79200,
          "time": 82.5,
          "velocity": 0.8818897637795275
        },
        {
          "duration": 0.23645833333333144,
          "durationTicks": 227,
          "midi": 46,
          "name": "A#2",
          "ticks": 79200,
          "time": 82.5,
          "velocity": 0.8818897637795275
        },
        {
          "duration": 0.23645833333333144,
          "durationTicks": 227,
          "midi": 32,
          "name": "G#1",
          "ticks": 79440,
          "time": 82.75,
          "velocity": 0.8818897637795275
        },
        {
          "duration": 0.23645833333333144,
          "durationTicks": 227,
          "midi": 44,
          "name": "G#2",
          "ticks": 79440,
          "time": 82.75,
          "velocity": 0.8818897637795275
        },
        {
          "duration": 0.11770833333333997,
          "durationTicks": 113,
          "midi": 48,
          "name": "C3",
          "ticks": 79680,
          "time": 83,
          "velocity": 0.8818897637795275
        },
        {
          "duration": 0.11770833333333997,
          "durationTicks": 113,
          "midi": 51,
          "name": "D#3",
          "ticks": 79800,
          "time": 83.125,
          "velocity": 0.8818897637795275
        },
        {
          "duration": 0.23645833333333144,
          "durationTicks": 227,
          "midi": 56,
          "name": "G#3",
          "ticks": 79920,
          "time": 83.25,
          "velocity": 0.8818897637795275
        },
        {
          "duration": 0.11770833333333997,
          "durationTicks": 113,
          "midi": 51,
          "name": "D#3",
          "ticks": 80160,
          "time": 83.5,
          "velocity": 0.8818897637795275
        },
        {
          "duration": 0.11770833333333997,
          "durationTicks": 113,
          "midi": 48,
          "name": "C3",
          "ticks": 80280,
          "time": 83.625,
          "velocity": 0.8818897637795275
        },
        {
          "duration": 0.23645833333333144,
          "durationTicks": 227,
          "midi": 44,
          "name": "G#2",
          "ticks": 80400,
          "time": 83.75,
          "velocity": 0.8818897637795275
        },
        {
          "duration": 0.23645833333333144,
          "durationTicks": 227,
          "midi": 41,
          "name": "F2",
          "ticks": 80640,
          "time": 84,
          "velocity": 0.8818897637795275
        },
        {
          "duration": 0.23645833333333144,
          "durationTicks": 227,
          "midi": 53,
          "name": "F3",
          "ticks": 80640,
          "time": 84,
          "velocity": 0.8818897637795275
        },
        {
          "duration": 0.11770833333333997,
          "durationTicks": 113,
          "midi": 44,
          "name": "G#2",
          "ticks": 80880,
          "time": 84.25,
          "velocity": 0.8818897637795275
        },
        {
          "duration": 0.11770833333333997,
          "durationTicks": 113,
          "midi": 48,
          "name": "C3",
          "ticks": 81000,
          "time": 84.375,
          "velocity": 0.8818897637795275
        },
        {
          "duration": 0.23645833333333144,
          "durationTicks": 227,
          "midi": 51,
          "name": "D#3",
          "ticks": 81120,
          "time": 84.5,
          "velocity": 0.8818897637795275
        },
        {
          "duration": 0.23645833333333144,
          "durationTicks": 227,
          "midi": 53,
          "name": "F3",
          "ticks": 81120,
          "time": 84.5,
          "velocity": 0.8818897637795275
        },
        {
          "duration": 0.23645833333333144,
          "durationTicks": 227,
          "midi": 34,
          "name": "A#1",
          "ticks": 81360,
          "time": 84.75,
          "velocity": 0.8818897637795275
        },
        {
          "duration": 0.23645833333333144,
          "durationTicks": 227,
          "midi": 46,
          "name": "A#2",
          "ticks": 81360,
          "time": 84.75,
          "velocity": 0.8818897637795275
        },
        {
          "duration": 0.11770833333333997,
          "durationTicks": 113,
          "midi": 49,
          "name": "C#3",
          "ticks": 81600,
          "time": 85,
          "velocity": 0.8818897637795275
        },
        {
          "duration": 0.11770833333333997,
          "durationTicks": 113,
          "midi": 53,
          "name": "F3",
          "ticks": 81720,
          "time": 85.125,
          "velocity": 0.8818897637795275
        },
        {
          "duration": 0.23645833333333144,
          "durationTicks": 227,
          "midi": 58,
          "name": "A#3",
          "ticks": 81840,
          "time": 85.25,
          "velocity": 0.8818897637795275
        },
        {
          "duration": 0.11770833333333997,
          "durationTicks": 113,
          "midi": 56,
          "name": "G#3",
          "ticks": 82080,
          "time": 85.5,
          "velocity": 0.8818897637795275
        },
        {
          "duration": 0.11770833333333997,
          "durationTicks": 113,
          "midi": 54,
          "name": "F#3",
          "ticks": 82200,
          "time": 85.625,
          "velocity": 0.8818897637795275
        },
        {
          "duration": 0.23645833333333144,
          "durationTicks": 227,
          "midi": 51,
          "name": "D#3",
          "ticks": 82320,
          "time": 85.75,
          "velocity": 0.8818897637795275
        },
        {
          "duration": 0.23645833333333144,
          "durationTicks": 227,
          "midi": 34,
          "name": "A#1",
          "ticks": 82560,
          "time": 86,
          "velocity": 0.8818897637795275
        },
        {
          "duration": 0.23645833333333144,
          "durationTicks": 227,
          "midi": 46,
          "name": "A#2",
          "ticks": 82560,
          "time": 86,
          "velocity": 0.8818897637795275
        },
        {
          "duration": 0.11770833333333997,
          "durationTicks": 113,
          "midi": 37,
          "name": "C#2",
          "ticks": 82800,
          "time": 86.25,
          "velocity": 0.8818897637795275
        },
        {
          "duration": 0.11770833333333997,
          "durationTicks": 113,
          "midi": 41,
          "name": "F2",
          "ticks": 82920,
          "time": 86.375,
          "velocity": 0.8818897637795275
        },
        {
          "duration": 0.23645833333333144,
          "durationTicks": 227,
          "midi": 41,
          "name": "F2",
          "ticks": 83040,
          "time": 86.5,
          "velocity": 0.8818897637795275
        },
        {
          "duration": 0.23645833333333144,
          "durationTicks": 227,
          "midi": 46,
          "name": "A#2",
          "ticks": 83040,
          "time": 86.5,
          "velocity": 0.8818897637795275
        },
        {
          "duration": 0.23645833333333144,
          "durationTicks": 227,
          "midi": 32,
          "name": "G#1",
          "ticks": 83280,
          "time": 86.75,
          "velocity": 0.8818897637795275
        },
        {
          "duration": 0.23645833333333144,
          "durationTicks": 227,
          "midi": 44,
          "name": "G#2",
          "ticks": 83280,
          "time": 86.75,
          "velocity": 0.8818897637795275
        },
        {
          "duration": 0.11770833333333997,
          "durationTicks": 113,
          "midi": 48,
          "name": "C3",
          "ticks": 83520,
          "time": 87,
          "velocity": 0.8818897637795275
        },
        {
          "duration": 0.11770833333333997,
          "durationTicks": 113,
          "midi": 51,
          "name": "D#3",
          "ticks": 83640,
          "time": 87.125,
          "velocity": 0.8818897637795275
        },
        {
          "duration": 0.23645833333333144,
          "durationTicks": 227,
          "midi": 56,
          "name": "G#3",
          "ticks": 83760,
          "time": 87.25,
          "velocity": 0.8818897637795275
        },
        {
          "duration": 0.11770833333333997,
          "durationTicks": 113,
          "midi": 51,
          "name": "D#3",
          "ticks": 84000,
          "time": 87.5,
          "velocity": 0.8818897637795275
        },
        {
          "duration": 0.11770833333333997,
          "durationTicks": 113,
          "midi": 48,
          "name": "C3",
          "ticks": 84120,
          "time": 87.625,
          "velocity": 0.8818897637795275
        },
        {
          "duration": 0.23645833333333144,
          "durationTicks": 227,
          "midi": 44,
          "name": "G#2",
          "ticks": 84240,
          "time": 87.75,
          "velocity": 0.8818897637795275
        },
        {
          "duration": 0.23645833333333144,
          "durationTicks": 227,
          "midi": 41,
          "name": "F2",
          "ticks": 84480,
          "time": 88,
          "velocity": 0.8818897637795275
        },
        {
          "duration": 0.23645833333333144,
          "durationTicks": 227,
          "midi": 53,
          "name": "F3",
          "ticks": 84480,
          "time": 88,
          "velocity": 0.8818897637795275
        },
        {
          "duration": 0.11770833333333997,
          "durationTicks": 113,
          "midi": 44,
          "name": "G#2",
          "ticks": 84720,
          "time": 88.25,
          "velocity": 0.8818897637795275
        },
        {
          "duration": 0.11770833333333997,
          "durationTicks": 113,
          "midi": 48,
          "name": "C3",
          "ticks": 84840,
          "time": 88.375,
          "velocity": 0.8818897637795275
        },
        {
          "duration": 0.23645833333333144,
          "durationTicks": 227,
          "midi": 34,
          "name": "A#1",
          "ticks": 84960,
          "time": 88.5,
          "velocity": 0.8818897637795275
        },
        {
          "duration": 0.23645833333333144,
          "durationTicks": 227,
          "midi": 46,
          "name": "A#2",
          "ticks": 84960,
          "time": 88.5,
          "velocity": 0.8818897637795275
        },
        {
          "duration": 0.11770833333333997,
          "durationTicks": 113,
          "midi": 37,
          "name": "C#2",
          "ticks": 85200,
          "time": 88.75,
          "velocity": 0.8818897637795275
        },
        {
          "duration": 0.11770833333333997,
          "durationTicks": 113,
          "midi": 41,
          "name": "F2",
          "ticks": 85320,
          "time": 88.875,
          "velocity": 0.8818897637795275
        },
        {
          "duration": 0.12395833333333428,
          "durationTicks": 119,
          "midi": 34,
          "name": "A#1",
          "ticks": 85440,
          "time": 89,
          "velocity": 1
        },
        {
          "duration": 0.12395833333333428,
          "durationTicks": 119,
          "midi": 46,
          "name": "A#2",
          "ticks": 85440,
          "time": 89,
          "velocity": 1
        },
        {
          "duration": 0.24895833333333428,
          "durationTicks": 239,
          "midi": 34,
          "name": "A#1",
          "ticks": 85560,
          "time": 89.125,
          "velocity": 1
        },
        {
          "duration": 0.24895833333333428,
          "durationTicks": 239,
          "midi": 46,
          "name": "A#2",
          "ticks": 85560,
          "time": 89.125,
          "velocity": 1
        },
        {
          "duration": 0.12395833333333428,
          "durationTicks": 119,
          "midi": 34,
          "name": "A#1",
          "ticks": 85800,
          "time": 89.375,
          "velocity": 1
        },
        {
          "duration": 0.12395833333333428,
          "durationTicks": 119,
          "midi": 46,
          "name": "A#2",
          "ticks": 85800,
          "time": 89.375,
          "velocity": 1
        },
        {
          "duration": 0.24895833333333428,
          "durationTicks": 239,
          "midi": 34,
          "name": "A#1",
          "ticks": 85920,
          "time": 89.5,
          "velocity": 1
        },
        {
          "duration": 0.24895833333333428,
          "durationTicks": 239,
          "midi": 46,
          "name": "A#2",
          "ticks": 85920,
          "time": 89.5,
          "velocity": 1
        },
        {
          "duration": 0.12395833333333428,
          "durationTicks": 119,
          "midi": 34,
          "name": "A#1",
          "ticks": 86160,
          "time": 89.75,
          "velocity": 1
        },
        {
          "duration": 0.12395833333333428,
          "durationTicks": 119,
          "midi": 46,
          "name": "A#2",
          "ticks": 86160,
          "time": 89.75,
          "velocity": 1
        },
        {
          "duration": 0.11770833333333997,
          "durationTicks": 113,
          "midi": 34,
          "name": "A#1",
          "ticks": 86280,
          "time": 89.875,
          "velocity": 0.8818897637795275
        },
        {
          "duration": 0.11770833333333997,
          "durationTicks": 113,
          "midi": 46,
          "name": "A#2",
          "ticks": 86280,
          "time": 89.875,
          "velocity": 0.8818897637795275
        },
        {
          "duration": 0.23645833333333144,
          "durationTicks": 227,
          "midi": 34,
          "name": "A#1",
          "ticks": 86400,
          "time": 90,
          "velocity": 0.8818897637795275
        },
        {
          "duration": 0.23645833333333144,
          "durationTicks": 227,
          "midi": 46,
          "name": "A#2",
          "ticks": 86400,
          "time": 90,
          "velocity": 0.8818897637795275
        },
        {
          "duration": 0.11770833333333997,
          "durationTicks": 113,
          "midi": 37,
          "name": "C#2",
          "ticks": 86640,
          "time": 90.25,
          "velocity": 0.8818897637795275
        },
        {
          "duration": 0.11770833333333997,
          "durationTicks": 113,
          "midi": 41,
          "name": "F2",
          "ticks": 86760,
          "time": 90.375,
          "velocity": 0.8818897637795275
        },
        {
          "duration": 0.23645833333333144,
          "durationTicks": 227,
          "midi": 41,
          "name": "F2",
          "ticks": 86880,
          "time": 90.5,
          "velocity": 0.8818897637795275
        },
        {
          "duration": 0.23645833333333144,
          "durationTicks": 227,
          "midi": 46,
          "name": "A#2",
          "ticks": 86880,
          "time": 90.5,
          "velocity": 0.8818897637795275
        },
        {
          "duration": 0.23645833333333144,
          "durationTicks": 227,
          "midi": 32,
          "name": "G#1",
          "ticks": 87120,
          "time": 90.75,
          "velocity": 0.8818897637795275
        },
        {
          "duration": 0.23645833333333144,
          "durationTicks": 227,
          "midi": 44,
          "name": "G#2",
          "ticks": 87120,
          "time": 90.75,
          "velocity": 0.8818897637795275
        },
        {
          "duration": 0.11770833333333997,
          "durationTicks": 113,
          "midi": 48,
          "name": "C3",
          "ticks": 87360,
          "time": 91,
          "velocity": 0.8818897637795275
        },
        {
          "duration": 0.11770833333333997,
          "durationTicks": 113,
          "midi": 51,
          "name": "D#3",
          "ticks": 87480,
          "time": 91.125,
          "velocity": 0.8818897637795275
        },
        {
          "duration": 0.23645833333333144,
          "durationTicks": 227,
          "midi": 56,
          "name": "G#3",
          "ticks": 87600,
          "time": 91.25,
          "velocity": 0.8818897637795275
        },
        {
          "duration": 0.11770833333333997,
          "durationTicks": 113,
          "midi": 51,
          "name": "D#3",
          "ticks": 87840,
          "time": 91.5,
          "velocity": 0.8818897637795275
        },
        {
          "duration": 0.11770833333333997,
          "durationTicks": 113,
          "midi": 48,
          "name": "C3",
          "ticks": 87960,
          "time": 91.625,
          "velocity": 0.8818897637795275
        },
        {
          "duration": 0.23645833333333144,
          "durationTicks": 227,
          "midi": 44,
          "name": "G#2",
          "ticks": 88080,
          "time": 91.75,
          "velocity": 0.8818897637795275
        },
        {
          "duration": 0.23645833333333144,
          "durationTicks": 227,
          "midi": 41,
          "name": "F2",
          "ticks": 88320,
          "time": 92,
          "velocity": 0.8818897637795275
        },
        {
          "duration": 0.23645833333333144,
          "durationTicks": 227,
          "midi": 53,
          "name": "F3",
          "ticks": 88320,
          "time": 92,
          "velocity": 0.8818897637795275
        },
        {
          "duration": 0.11770833333333997,
          "durationTicks": 113,
          "midi": 44,
          "name": "G#2",
          "ticks": 88560,
          "time": 92.25,
          "velocity": 0.8818897637795275
        },
        {
          "duration": 0.11770833333333997,
          "durationTicks": 113,
          "midi": 48,
          "name": "C3",
          "ticks": 88680,
          "time": 92.375,
          "velocity": 0.8818897637795275
        },
        {
          "duration": 0.23645833333333144,
          "durationTicks": 227,
          "midi": 51,
          "name": "D#3",
          "ticks": 88800,
          "time": 92.5,
          "velocity": 0.8818897637795275
        },
        {
          "duration": 0.23645833333333144,
          "durationTicks": 227,
          "midi": 53,
          "name": "F3",
          "ticks": 88800,
          "time": 92.5,
          "velocity": 0.8818897637795275
        },
        {
          "duration": 0.23645833333333144,
          "durationTicks": 227,
          "midi": 34,
          "name": "A#1",
          "ticks": 89040,
          "time": 92.75,
          "velocity": 0.8818897637795275
        },
        {
          "duration": 0.23645833333333144,
          "durationTicks": 227,
          "midi": 46,
          "name": "A#2",
          "ticks": 89040,
          "time": 92.75,
          "velocity": 0.8818897637795275
        },
        {
          "duration": 0.11770833333333997,
          "durationTicks": 113,
          "midi": 49,
          "name": "C#3",
          "ticks": 89280,
          "time": 93,
          "velocity": 0.8818897637795275
        },
        {
          "duration": 0.11770833333333997,
          "durationTicks": 113,
          "midi": 53,
          "name": "F3",
          "ticks": 89400,
          "time": 93.125,
          "velocity": 0.8818897637795275
        },
        {
          "duration": 0.23645833333333144,
          "durationTicks": 227,
          "midi": 58,
          "name": "A#3",
          "ticks": 89520,
          "time": 93.25,
          "velocity": 0.8818897637795275
        },
        {
          "duration": 0.11770833333333997,
          "durationTicks": 113,
          "midi": 56,
          "name": "G#3",
          "ticks": 89760,
          "time": 93.5,
          "velocity": 0.8818897637795275
        },
        {
          "duration": 0.11770833333333997,
          "durationTicks": 113,
          "midi": 54,
          "name": "F#3",
          "ticks": 89880,
          "time": 93.625,
          "velocity": 0.8818897637795275
        },
        {
          "duration": 0.23645833333333144,
          "durationTicks": 227,
          "midi": 51,
          "name": "D#3",
          "ticks": 90000,
          "time": 93.75,
          "velocity": 0.8818897637795275
        },
        {
          "duration": 0.23645833333333144,
          "durationTicks": 227,
          "midi": 34,
          "name": "A#1",
          "ticks": 90240,
          "time": 94,
          "velocity": 0.8818897637795275
        },
        {
          "duration": 0.23645833333333144,
          "durationTicks": 227,
          "midi": 46,
          "name": "A#2",
          "ticks": 90240,
          "time": 94,
          "velocity": 0.8818897637795275
        },
        {
          "duration": 0.11770833333333997,
          "durationTicks": 113,
          "midi": 37,
          "name": "C#2",
          "ticks": 90480,
          "time": 94.25,
          "velocity": 0.8818897637795275
        },
        {
          "duration": 0.11770833333333997,
          "durationTicks": 113,
          "midi": 41,
          "name": "F2",
          "ticks": 90600,
          "time": 94.375,
          "velocity": 0.8818897637795275
        },
        {
          "duration": 0.23645833333333144,
          "durationTicks": 227,
          "midi": 41,
          "name": "F2",
          "ticks": 90720,
          "time": 94.5,
          "velocity": 0.8818897637795275
        },
        {
          "duration": 0.23645833333333144,
          "durationTicks": 227,
          "midi": 46,
          "name": "A#2",
          "ticks": 90720,
          "time": 94.5,
          "velocity": 0.8818897637795275
        },
        {
          "duration": 0.23645833333333144,
          "durationTicks": 227,
          "midi": 32,
          "name": "G#1",
          "ticks": 90960,
          "time": 94.75,
          "velocity": 0.8818897637795275
        },
        {
          "duration": 0.23645833333333144,
          "durationTicks": 227,
          "midi": 44,
          "name": "G#2",
          "ticks": 90960,
          "time": 94.75,
          "velocity": 0.8818897637795275
        },
        {
          "duration": 0.11770833333333997,
          "durationTicks": 113,
          "midi": 48,
          "name": "C3",
          "ticks": 91200,
          "time": 95,
          "velocity": 0.8818897637795275
        },
        {
          "duration": 0.11770833333333997,
          "durationTicks": 113,
          "midi": 51,
          "name": "D#3",
          "ticks": 91320,
          "time": 95.125,
          "velocity": 0.8818897637795275
        },
        {
          "duration": 0.23645833333333144,
          "durationTicks": 227,
          "midi": 56,
          "name": "G#3",
          "ticks": 91440,
          "time": 95.25,
          "velocity": 0.8818897637795275
        },
        {
          "duration": 0.11770833333333997,
          "durationTicks": 113,
          "midi": 51,
          "name": "D#3",
          "ticks": 91680,
          "time": 95.5,
          "velocity": 0.8818897637795275
        },
        {
          "duration": 0.11770833333333997,
          "durationTicks": 113,
          "midi": 48,
          "name": "C3",
          "ticks": 91800,
          "time": 95.625,
          "velocity": 0.8818897637795275
        },
        {
          "duration": 0.23645833333333144,
          "durationTicks": 227,
          "midi": 44,
          "name": "G#2",
          "ticks": 91920,
          "time": 95.75,
          "velocity": 0.8818897637795275
        },
        {
          "duration": 0.23645833333333144,
          "durationTicks": 227,
          "midi": 41,
          "name": "F2",
          "ticks": 92160,
          "time": 96,
          "velocity": 0.8818897637795275
        },
        {
          "duration": 0.23645833333333144,
          "durationTicks": 227,
          "midi": 53,
          "name": "F3",
          "ticks": 92160,
          "time": 96,
          "velocity": 0.8818897637795275
        },
        {
          "duration": 0.11770833333333997,
          "durationTicks": 113,
          "midi": 44,
          "name": "G#2",
          "ticks": 92400,
          "time": 96.25,
          "velocity": 0.8818897637795275
        },
        {
          "duration": 0.11770833333333997,
          "durationTicks": 113,
          "midi": 48,
          "name": "C3",
          "ticks": 92520,
          "time": 96.375,
          "velocity": 0.8818897637795275
        },
        {
          "duration": 0.23645833333333144,
          "durationTicks": 227,
          "midi": 34,
          "name": "A#1",
          "ticks": 92640,
          "time": 96.5,
          "velocity": 0.8818897637795275
        },
        {
          "duration": 0.23645833333333144,
          "durationTicks": 227,
          "midi": 46,
          "name": "A#2",
          "ticks": 92640,
          "time": 96.5,
          "velocity": 0.8818897637795275
        },
        {
          "duration": 0.11770833333333997,
          "durationTicks": 113,
          "midi": 37,
          "name": "C#2",
          "ticks": 92880,
          "time": 96.75,
          "velocity": 0.8818897637795275
        },
        {
          "duration": 0.11770833333333997,
          "durationTicks": 113,
          "midi": 41,
          "name": "F2",
          "ticks": 93000,
          "time": 96.875,
          "velocity": 0.8818897637795275
        },
        {
          "duration": 0.12395833333333428,
          "durationTicks": 119,
          "midi": 34,
          "name": "A#1",
          "ticks": 93120,
          "time": 97,
          "velocity": 1
        },
        {
          "duration": 0.12395833333333428,
          "durationTicks": 119,
          "midi": 46,
          "name": "A#2",
          "ticks": 93120,
          "time": 97,
          "velocity": 1
        },
        {
          "duration": 0.24895833333333428,
          "durationTicks": 239,
          "midi": 34,
          "name": "A#1",
          "ticks": 93240,
          "time": 97.125,
          "velocity": 1
        },
        {
          "duration": 0.24895833333333428,
          "durationTicks": 239,
          "midi": 46,
          "name": "A#2",
          "ticks": 93240,
          "time": 97.125,
          "velocity": 1
        },
        {
          "duration": 0.12395833333333428,
          "durationTicks": 119,
          "midi": 34,
          "name": "A#1",
          "ticks": 93480,
          "time": 97.375,
          "velocity": 1
        },
        {
          "duration": 0.12395833333333428,
          "durationTicks": 119,
          "midi": 46,
          "name": "A#2",
          "ticks": 93480,
          "time": 97.375,
          "velocity": 1
        },
        {
          "duration": 0.24895833333333428,
          "durationTicks": 239,
          "midi": 34,
          "name": "A#1",
          "ticks": 93600,
          "time": 97.5,
          "velocity": 1
        },
        {
          "duration": 0.24895833333333428,
          "durationTicks": 239,
          "midi": 46,
          "name": "A#2",
          "ticks": 93600,
          "time": 97.5,
          "velocity": 1
        },
        {
          "duration": 0.12395833333333428,
          "durationTicks": 119,
          "midi": 34,
          "name": "A#1",
          "ticks": 93840,
          "time": 97.75,
          "velocity": 1
        },
        {
          "duration": 0.12395833333333428,
          "durationTicks": 119,
          "midi": 46,
          "name": "A#2",
          "ticks": 93840,
          "time": 97.75,
          "velocity": 1
        },
        {
          "duration": 0.11770833333333997,
          "durationTicks": 113,
          "midi": 34,
          "name": "A#1",
          "ticks": 93960,
          "time": 97.875,
          "velocity": 0.8818897637795275
        },
        {
          "duration": 0.11770833333333997,
          "durationTicks": 113,
          "midi": 46,
          "name": "A#2",
          "ticks": 93960,
          "time": 97.875,
          "velocity": 0.8818897637795275
        },
        {
          "duration": 0.23645833333333144,
          "durationTicks": 227,
          "midi": 34,
          "name": "A#1",
          "ticks": 94080,
          "time": 98,
          "velocity": 0.8818897637795275
        },
        {
          "duration": 0.23645833333333144,
          "durationTicks": 227,
          "midi": 46,
          "name": "A#2",
          "ticks": 94080,
          "time": 98,
          "velocity": 0.8818897637795275
        },
        {
          "duration": 0.11770833333333997,
          "durationTicks": 113,
          "midi": 37,
          "name": "C#2",
          "ticks": 94320,
          "time": 98.25,
          "velocity": 0.8818897637795275
        },
        {
          "duration": 0.11770833333333997,
          "durationTicks": 113,
          "midi": 41,
          "name": "F2",
          "ticks": 94440,
          "time": 98.375,
          "velocity": 0.8818897637795275
        },
        {
          "duration": 0.23645833333333144,
          "durationTicks": 227,
          "midi": 41,
          "name": "F2",
          "ticks": 94560,
          "time": 98.5,
          "velocity": 0.8818897637795275
        },
        {
          "duration": 0.23645833333333144,
          "durationTicks": 227,
          "midi": 46,
          "name": "A#2",
          "ticks": 94560,
          "time": 98.5,
          "velocity": 0.8818897637795275
        },
        {
          "duration": 0.23645833333333144,
          "durationTicks": 227,
          "midi": 32,
          "name": "G#1",
          "ticks": 94800,
          "time": 98.75,
          "velocity": 0.8818897637795275
        },
        {
          "duration": 0.23645833333333144,
          "durationTicks": 227,
          "midi": 44,
          "name": "G#2",
          "ticks": 94800,
          "time": 98.75,
          "velocity": 0.8818897637795275
        },
        {
          "duration": 0.11770833333333997,
          "durationTicks": 113,
          "midi": 48,
          "name": "C3",
          "ticks": 95040,
          "time": 99,
          "velocity": 0.8818897637795275
        },
        {
          "duration": 0.11770833333333997,
          "durationTicks": 113,
          "midi": 51,
          "name": "D#3",
          "ticks": 95160,
          "time": 99.125,
          "velocity": 0.8818897637795275
        },
        {
          "duration": 0.23645833333333144,
          "durationTicks": 227,
          "midi": 56,
          "name": "G#3",
          "ticks": 95280,
          "time": 99.25,
          "velocity": 0.8818897637795275
        },
        {
          "duration": 0.11770833333333997,
          "durationTicks": 113,
          "midi": 51,
          "name": "D#3",
          "ticks": 95520,
          "time": 99.5,
          "velocity": 0.8818897637795275
        },
        {
          "duration": 0.11770833333333997,
          "durationTicks": 113,
          "midi": 48,
          "name": "C3",
          "ticks": 95640,
          "time": 99.625,
          "velocity": 0.8818897637795275
        },
        {
          "duration": 0.23645833333333144,
          "durationTicks": 227,
          "midi": 44,
          "name": "G#2",
          "ticks": 95760,
          "time": 99.75,
          "velocity": 0.8818897637795275
        },
        {
          "duration": 0.23645833333333144,
          "durationTicks": 227,
          "midi": 41,
          "name": "F2",
          "ticks": 96000,
          "time": 100,
          "velocity": 0.8818897637795275
        },
        {
          "duration": 0.23645833333333144,
          "durationTicks": 227,
          "midi": 53,
          "name": "F3",
          "ticks": 96000,
          "time": 100,
          "velocity": 0.8818897637795275
        },
        {
          "duration": 0.11770833333333997,
          "durationTicks": 113,
          "midi": 44,
          "name": "G#2",
          "ticks": 96240,
          "time": 100.25,
          "velocity": 0.8818897637795275
        },
        {
          "duration": 0.11770833333333997,
          "durationTicks": 113,
          "midi": 48,
          "name": "C3",
          "ticks": 96360,
          "time": 100.375,
          "velocity": 0.8818897637795275
        },
        {
          "duration": 0.23645833333333144,
          "durationTicks": 227,
          "midi": 51,
          "name": "D#3",
          "ticks": 96480,
          "time": 100.5,
          "velocity": 0.8818897637795275
        },
        {
          "duration": 0.23645833333333144,
          "durationTicks": 227,
          "midi": 53,
          "name": "F3",
          "ticks": 96480,
          "time": 100.5,
          "velocity": 0.8818897637795275
        },
        {
          "duration": 0.23645833333333144,
          "durationTicks": 227,
          "midi": 34,
          "name": "A#1",
          "ticks": 96720,
          "time": 100.75,
          "velocity": 0.8818897637795275
        },
        {
          "duration": 0.23645833333333144,
          "durationTicks": 227,
          "midi": 46,
          "name": "A#2",
          "ticks": 96720,
          "time": 100.75,
          "velocity": 0.8818897637795275
        },
        {
          "duration": 0.11770833333333997,
          "durationTicks": 113,
          "midi": 49,
          "name": "C#3",
          "ticks": 96960,
          "time": 101,
          "velocity": 0.8818897637795275
        },
        {
          "duration": 0.11770833333333997,
          "durationTicks": 113,
          "midi": 53,
          "name": "F3",
          "ticks": 97080,
          "time": 101.125,
          "velocity": 0.8818897637795275
        },
        {
          "duration": 0.23645833333333144,
          "durationTicks": 227,
          "midi": 58,
          "name": "A#3",
          "ticks": 97200,
          "time": 101.25,
          "velocity": 0.8818897637795275
        },
        {
          "duration": 0.11770833333333997,
          "durationTicks": 113,
          "midi": 56,
          "name": "G#3",
          "ticks": 97440,
          "time": 101.5,
          "velocity": 0.8818897637795275
        },
        {
          "duration": 0.11770833333333997,
          "durationTicks": 113,
          "midi": 54,
          "name": "F#3",
          "ticks": 97560,
          "time": 101.625,
          "velocity": 0.8818897637795275
        },
        {
          "duration": 0.23645833333333144,
          "durationTicks": 227,
          "midi": 51,
          "name": "D#3",
          "ticks": 97680,
          "time": 101.75,
          "velocity": 0.8818897637795275
        },
        {
          "duration": 0.23645833333333144,
          "durationTicks": 227,
          "midi": 34,
          "name": "A#1",
          "ticks": 97920,
          "time": 102,
          "velocity": 0.8818897637795275
        },
        {
          "duration": 0.23645833333333144,
          "durationTicks": 227,
          "midi": 46,
          "name": "A#2",
          "ticks": 97920,
          "time": 102,
          "velocity": 0.8818897637795275
        },
        {
          "duration": 0.11770833333333997,
          "durationTicks": 113,
          "midi": 37,
          "name": "C#2",
          "ticks": 98160,
          "time": 102.25,
          "velocity": 0.8818897637795275
        },
        {
          "duration": 0.11770833333333997,
          "durationTicks": 113,
          "midi": 41,
          "name": "F2",
          "ticks": 98280,
          "time": 102.375,
          "velocity": 0.8818897637795275
        },
        {
          "duration": 0.23645833333333144,
          "durationTicks": 227,
          "midi": 41,
          "name": "F2",
          "ticks": 98400,
          "time": 102.5,
          "velocity": 0.8818897637795275
        },
        {
          "duration": 0.23645833333333144,
          "durationTicks": 227,
          "midi": 46,
          "name": "A#2",
          "ticks": 98400,
          "time": 102.5,
          "velocity": 0.8818897637795275
        },
        {
          "duration": 0.23645833333333144,
          "durationTicks": 227,
          "midi": 32,
          "name": "G#1",
          "ticks": 98640,
          "time": 102.75,
          "velocity": 0.8818897637795275
        },
        {
          "duration": 0.23645833333333144,
          "durationTicks": 227,
          "midi": 44,
          "name": "G#2",
          "ticks": 98640,
          "time": 102.75,
          "velocity": 0.8818897637795275
        },
        {
          "duration": 0.11770833333333997,
          "durationTicks": 113,
          "midi": 48,
          "name": "C3",
          "ticks": 98880,
          "time": 103,
          "velocity": 0.8818897637795275
        },
        {
          "duration": 0.11770833333333997,
          "durationTicks": 113,
          "midi": 51,
          "name": "D#3",
          "ticks": 99000,
          "time": 103.125,
          "velocity": 0.8818897637795275
        },
        {
          "duration": 0.23645833333333144,
          "durationTicks": 227,
          "midi": 56,
          "name": "G#3",
          "ticks": 99120,
          "time": 103.25,
          "velocity": 0.8818897637795275
        },
        {
          "duration": 0.11770833333333997,
          "durationTicks": 113,
          "midi": 51,
          "name": "D#3",
          "ticks": 99360,
          "time": 103.5,
          "velocity": 0.8818897637795275
        },
        {
          "duration": 0.11770833333333997,
          "durationTicks": 113,
          "midi": 48,
          "name": "C3",
          "ticks": 99480,
          "time": 103.625,
          "velocity": 0.8818897637795275
        },
        {
          "duration": 0.23645833333333144,
          "durationTicks": 227,
          "midi": 44,
          "name": "G#2",
          "ticks": 99600,
          "time": 103.75,
          "velocity": 0.8818897637795275
        },
        {
          "duration": 0.23645833333333144,
          "durationTicks": 227,
          "midi": 41,
          "name": "F2",
          "ticks": 99840,
          "time": 104,
          "velocity": 0.8818897637795275
        },
        {
          "duration": 0.23645833333333144,
          "durationTicks": 227,
          "midi": 53,
          "name": "F3",
          "ticks": 99840,
          "time": 104,
          "velocity": 0.8818897637795275
        },
        {
          "duration": 0.11770833333333997,
          "durationTicks": 113,
          "midi": 44,
          "name": "G#2",
          "ticks": 100080,
          "time": 104.25,
          "velocity": 0.8818897637795275
        },
        {
          "duration": 0.11770833333333997,
          "durationTicks": 113,
          "midi": 48,
          "name": "C3",
          "ticks": 100200,
          "time": 104.375,
          "velocity": 0.8818897637795275
        },
        {
          "duration": 0.23645833333333144,
          "durationTicks": 227,
          "midi": 34,
          "name": "A#1",
          "ticks": 100320,
          "time": 104.5,
          "velocity": 0.8818897637795275
        },
        {
          "duration": 0.23645833333333144,
          "durationTicks": 227,
          "midi": 46,
          "name": "A#2",
          "ticks": 100320,
          "time": 104.5,
          "velocity": 0.8818897637795275
        },
        {
          "duration": 0.11770833333333997,
          "durationTicks": 113,
          "midi": 37,
          "name": "C#2",
          "ticks": 100560,
          "time": 104.75,
          "velocity": 0.8818897637795275
        },
        {
          "duration": 0.11770833333333997,
          "durationTicks": 113,
          "midi": 41,
          "name": "F2",
          "ticks": 100680,
          "time": 104.875,
          "velocity": 0.8818897637795275
        },
        {
          "duration": 0.12395833333333428,
          "durationTicks": 119,
          "midi": 34,
          "name": "A#1",
          "ticks": 100800,
          "time": 105,
          "velocity": 1
        },
        {
          "duration": 0.12395833333333428,
          "durationTicks": 119,
          "midi": 46,
          "name": "A#2",
          "ticks": 100800,
          "time": 105,
          "velocity": 1
        },
        {
          "duration": 0.24895833333333428,
          "durationTicks": 239,
          "midi": 34,
          "name": "A#1",
          "ticks": 100920,
          "time": 105.125,
          "velocity": 1
        },
        {
          "duration": 0.24895833333333428,
          "durationTicks": 239,
          "midi": 46,
          "name": "A#2",
          "ticks": 100920,
          "time": 105.125,
          "velocity": 1
        },
        {
          "duration": 0.12395833333333428,
          "durationTicks": 119,
          "midi": 34,
          "name": "A#1",
          "ticks": 101160,
          "time": 105.375,
          "velocity": 1
        },
        {
          "duration": 0.12395833333333428,
          "durationTicks": 119,
          "midi": 46,
          "name": "A#2",
          "ticks": 101160,
          "time": 105.375,
          "velocity": 1
        },
        {
          "duration": 0.24895833333333428,
          "durationTicks": 239,
          "midi": 34,
          "name": "A#1",
          "ticks": 101280,
          "time": 105.5,
          "velocity": 1
        },
        {
          "duration": 0.24895833333333428,
          "durationTicks": 239,
          "midi": 46,
          "name": "A#2",
          "ticks": 101280,
          "time": 105.5,
          "velocity": 1
        },
        {
          "duration": 0.12395833333333428,
          "durationTicks": 119,
          "midi": 34,
          "name": "A#1",
          "ticks": 101520,
          "time": 105.75,
          "velocity": 1
        },
        {
          "duration": 0.12395833333333428,
          "durationTicks": 119,
          "midi": 46,
          "name": "A#2",
          "ticks": 101520,
          "time": 105.75,
          "velocity": 1
        },
        {
          "duration": 0.11770833333333997,
          "durationTicks": 113,
          "midi": 34,
          "name": "A#1",
          "ticks": 101640,
          "time": 105.875,
          "velocity": 0.8818897637795275
        },
        {
          "duration": 0.11770833333333997,
          "durationTicks": 113,
          "midi": 46,
          "name": "A#2",
          "ticks": 101640,
          "time": 105.875,
          "velocity": 0.8818897637795275
        },
        {
          "duration": 0.23645833333333144,
          "durationTicks": 227,
          "midi": 34,
          "name": "A#1",
          "ticks": 101760,
          "time": 106,
          "velocity": 0.8818897637795275
        },
        {
          "duration": 0.23645833333333144,
          "durationTicks": 227,
          "midi": 46,
          "name": "A#2",
          "ticks": 101760,
          "time": 106,
          "velocity": 0.8818897637795275
        },
        {
          "duration": 0.11770833333333997,
          "durationTicks": 113,
          "midi": 37,
          "name": "C#2",
          "ticks": 102000,
          "time": 106.25,
          "velocity": 0.8818897637795275
        },
        {
          "duration": 0.11770833333333997,
          "durationTicks": 113,
          "midi": 41,
          "name": "F2",
          "ticks": 102120,
          "time": 106.375,
          "velocity": 0.8818897637795275
        },
        {
          "duration": 0.23645833333333144,
          "durationTicks": 227,
          "midi": 41,
          "name": "F2",
          "ticks": 102240,
          "time": 106.5,
          "velocity": 0.8818897637795275
        },
        {
          "duration": 0.23645833333333144,
          "durationTicks": 227,
          "midi": 46,
          "name": "A#2",
          "ticks": 102240,
          "time": 106.5,
          "velocity": 0.8818897637795275
        },
        {
          "duration": 0.23645833333333144,
          "durationTicks": 227,
          "midi": 32,
          "name": "G#1",
          "ticks": 102480,
          "time": 106.75,
          "velocity": 0.8818897637795275
        },
        {
          "duration": 0.23645833333333144,
          "durationTicks": 227,
          "midi": 44,
          "name": "G#2",
          "ticks": 102480,
          "time": 106.75,
          "velocity": 0.8818897637795275
        },
        {
          "duration": 0.11770833333333997,
          "durationTicks": 113,
          "midi": 48,
          "name": "C3",
          "ticks": 102720,
          "time": 107,
          "velocity": 0.8818897637795275
        },
        {
          "duration": 0.11770833333333997,
          "durationTicks": 113,
          "midi": 51,
          "name": "D#3",
          "ticks": 102840,
          "time": 107.125,
          "velocity": 0.8818897637795275
        },
        {
          "duration": 0.23645833333333144,
          "durationTicks": 227,
          "midi": 56,
          "name": "G#3",
          "ticks": 102960,
          "time": 107.25,
          "velocity": 0.8818897637795275
        },
        {
          "duration": 0.11770833333333997,
          "durationTicks": 113,
          "midi": 51,
          "name": "D#3",
          "ticks": 103200,
          "time": 107.5,
          "velocity": 0.8818897637795275
        },
        {
          "duration": 0.11770833333333997,
          "durationTicks": 113,
          "midi": 48,
          "name": "C3",
          "ticks": 103320,
          "time": 107.625,
          "velocity": 0.8818897637795275
        },
        {
          "duration": 0.23645833333333144,
          "durationTicks": 227,
          "midi": 44,
          "name": "G#2",
          "ticks": 103440,
          "time": 107.75,
          "velocity": 0.8818897637795275
        },
        {
          "duration": 0.23645833333333144,
          "durationTicks": 227,
          "midi": 41,
          "name": "F2",
          "ticks": 103680,
          "time": 108,
          "velocity": 0.8818897637795275
        },
        {
          "duration": 0.23645833333333144,
          "durationTicks": 227,
          "midi": 53,
          "name": "F3",
          "ticks": 103680,
          "time": 108,
          "velocity": 0.8818897637795275
        },
        {
          "duration": 0.11770833333333997,
          "durationTicks": 113,
          "midi": 44,
          "name": "G#2",
          "ticks": 103920,
          "time": 108.25,
          "velocity": 0.8818897637795275
        },
        {
          "duration": 0.11770833333333997,
          "durationTicks": 113,
          "midi": 48,
          "name": "C3",
          "ticks": 104040,
          "time": 108.375,
          "velocity": 0.8818897637795275
        },
        {
          "duration": 0.23645833333333144,
          "durationTicks": 227,
          "midi": 51,
          "name": "D#3",
          "ticks": 104160,
          "time": 108.5,
          "velocity": 0.8818897637795275
        },
        {
          "duration": 0.23645833333333144,
          "durationTicks": 227,
          "midi": 53,
          "name": "F3",
          "ticks": 104160,
          "time": 108.5,
          "velocity": 0.8818897637795275
        },
        {
          "duration": 0.23645833333333144,
          "durationTicks": 227,
          "midi": 34,
          "name": "A#1",
          "ticks": 104400,
          "time": 108.75,
          "velocity": 0.8818897637795275
        },
        {
          "duration": 0.23645833333333144,
          "durationTicks": 227,
          "midi": 46,
          "name": "A#2",
          "ticks": 104400,
          "time": 108.75,
          "velocity": 0.8818897637795275
        },
        {
          "duration": 0.11770833333333997,
          "durationTicks": 113,
          "midi": 49,
          "name": "C#3",
          "ticks": 104640,
          "time": 109,
          "velocity": 0.8818897637795275
        },
        {
          "duration": 0.11770833333333997,
          "durationTicks": 113,
          "midi": 53,
          "name": "F3",
          "ticks": 104760,
          "time": 109.125,
          "velocity": 0.8818897637795275
        },
        {
          "duration": 0.23645833333333144,
          "durationTicks": 227,
          "midi": 58,
          "name": "A#3",
          "ticks": 104880,
          "time": 109.25,
          "velocity": 0.8818897637795275
        },
        {
          "duration": 0.11770833333333997,
          "durationTicks": 113,
          "midi": 56,
          "name": "G#3",
          "ticks": 105120,
          "time": 109.5,
          "velocity": 0.8818897637795275
        },
        {
          "duration": 0.11770833333333997,
          "durationTicks": 113,
          "midi": 54,
          "name": "F#3",
          "ticks": 105240,
          "time": 109.625,
          "velocity": 0.8818897637795275
        },
        {
          "duration": 0.23645833333333144,
          "durationTicks": 227,
          "midi": 51,
          "name": "D#3",
          "ticks": 105360,
          "time": 109.75,
          "velocity": 0.8818897637795275
        },
        {
          "duration": 0.23645833333333144,
          "durationTicks": 227,
          "midi": 34,
          "name": "A#1",
          "ticks": 105600,
          "time": 110,
          "velocity": 0.8818897637795275
        },
        {
          "duration": 0.23645833333333144,
          "durationTicks": 227,
          "midi": 46,
          "name": "A#2",
          "ticks": 105600,
          "time": 110,
          "velocity": 0.8818897637795275
        },
        {
          "duration": 0.11770833333333997,
          "durationTicks": 113,
          "midi": 37,
          "name": "C#2",
          "ticks": 105840,
          "time": 110.25,
          "velocity": 0.8818897637795275
        },
        {
          "duration": 0.11770833333333997,
          "durationTicks": 113,
          "midi": 41,
          "name": "F2",
          "ticks": 105960,
          "time": 110.375,
          "velocity": 0.8818897637795275
        },
        {
          "duration": 0.23645833333333144,
          "durationTicks": 227,
          "midi": 41,
          "name": "F2",
          "ticks": 106080,
          "time": 110.5,
          "velocity": 0.8818897637795275
        },
        {
          "duration": 0.23645833333333144,
          "durationTicks": 227,
          "midi": 46,
          "name": "A#2",
          "ticks": 106080,
          "time": 110.5,
          "velocity": 0.8818897637795275
        },
        {
          "duration": 0.23645833333333144,
          "durationTicks": 227,
          "midi": 32,
          "name": "G#1",
          "ticks": 106320,
          "time": 110.75,
          "velocity": 0.8818897637795275
        },
        {
          "duration": 0.23645833333333144,
          "durationTicks": 227,
          "midi": 44,
          "name": "G#2",
          "ticks": 106320,
          "time": 110.75,
          "velocity": 0.8818897637795275
        },
        {
          "duration": 0.11770833333333997,
          "durationTicks": 113,
          "midi": 48,
          "name": "C3",
          "ticks": 106560,
          "time": 111,
          "velocity": 0.8818897637795275
        },
        {
          "duration": 0.11770833333333997,
          "durationTicks": 113,
          "midi": 51,
          "name": "D#3",
          "ticks": 106680,
          "time": 111.125,
          "velocity": 0.8818897637795275
        },
        {
          "duration": 0.23645833333333144,
          "durationTicks": 227,
          "midi": 56,
          "name": "G#3",
          "ticks": 106800,
          "time": 111.25,
          "velocity": 0.8818897637795275
        },
        {
          "duration": 0.11770833333333997,
          "durationTicks": 113,
          "midi": 51,
          "name": "D#3",
          "ticks": 107040,
          "time": 111.5,
          "velocity": 0.8818897637795275
        },
        {
          "duration": 0.11770833333333997,
          "durationTicks": 113,
          "midi": 48,
          "name": "C3",
          "ticks": 107160,
          "time": 111.625,
          "velocity": 0.8818897637795275
        },
        {
          "duration": 0.23645833333333144,
          "durationTicks": 227,
          "midi": 44,
          "name": "G#2",
          "ticks": 107280,
          "time": 111.75,
          "velocity": 0.8818897637795275
        },
        {
          "duration": 0.23645833333333144,
          "durationTicks": 227,
          "midi": 41,
          "name": "F2",
          "ticks": 107520,
          "time": 112,
          "velocity": 0.8818897637795275
        },
        {
          "duration": 0.23645833333333144,
          "durationTicks": 227,
          "midi": 53,
          "name": "F3",
          "ticks": 107520,
          "time": 112,
          "velocity": 0.8818897637795275
        },
        {
          "duration": 0.11770833333333997,
          "durationTicks": 113,
          "midi": 44,
          "name": "G#2",
          "ticks": 107760,
          "time": 112.25,
          "velocity": 0.8818897637795275
        },
        {
          "duration": 0.11770833333333997,
          "durationTicks": 113,
          "midi": 48,
          "name": "C3",
          "ticks": 107880,
          "time": 112.375,
          "velocity": 0.8818897637795275
        },
        {
          "duration": 0.23645833333333144,
          "durationTicks": 227,
          "midi": 34,
          "name": "A#1",
          "ticks": 108000,
          "time": 112.5,
          "velocity": 0.8818897637795275
        },
        {
          "duration": 0.23645833333333144,
          "durationTicks": 227,
          "midi": 46,
          "name": "A#2",
          "ticks": 108000,
          "time": 112.5,
          "velocity": 0.8818897637795275
        },
        {
          "duration": 0.11770833333333997,
          "durationTicks": 113,
          "midi": 37,
          "name": "C#2",
          "ticks": 108240,
          "time": 112.75,
          "velocity": 0.8818897637795275
        },
        {
          "duration": 0.11770833333333997,
          "durationTicks": 113,
          "midi": 41,
          "name": "F2",
          "ticks": 108360,
          "time": 112.875,
          "velocity": 0.8818897637795275
        },
        {
          "duration": 0.12395833333333428,
          "durationTicks": 119,
          "midi": 34,
          "name": "A#1",
          "ticks": 108480,
          "time": 113,
          "velocity": 1
        },
        {
          "duration": 0.12395833333333428,
          "durationTicks": 119,
          "midi": 46,
          "name": "A#2",
          "ticks": 108480,
          "time": 113,
          "velocity": 1
        },
        {
          "duration": 0.24895833333333428,
          "durationTicks": 239,
          "midi": 34,
          "name": "A#1",
          "ticks": 108600,
          "time": 113.125,
          "velocity": 1
        },
        {
          "duration": 0.24895833333333428,
          "durationTicks": 239,
          "midi": 46,
          "name": "A#2",
          "ticks": 108600,
          "time": 113.125,
          "velocity": 1
        },
        {
          "duration": 0.12395833333333428,
          "durationTicks": 119,
          "midi": 34,
          "name": "A#1",
          "ticks": 108840,
          "time": 113.375,
          "velocity": 1
        },
        {
          "duration": 0.12395833333333428,
          "durationTicks": 119,
          "midi": 46,
          "name": "A#2",
          "ticks": 108840,
          "time": 113.375,
          "velocity": 1
        },
        {
          "duration": 0.23645833333333144,
          "durationTicks": 227,
          "midi": 34,
          "name": "A#1",
          "ticks": 108960,
          "time": 113.5,
          "velocity": 0.8818897637795275
        },
        {
          "duration": 0.23645833333333144,
          "durationTicks": 227,
          "midi": 46,
          "name": "A#2",
          "ticks": 108960,
          "time": 113.5,
          "velocity": 0.8818897637795275
        },
        {
          "duration": 0.23645833333333144,
          "durationTicks": 227,
          "midi": 34,
          "name": "A#1",
          "ticks": 109200,
          "time": 113.75,
          "velocity": 0.8818897637795275
        },
        {
          "duration": 0.23645833333333144,
          "durationTicks": 227,
          "midi": 46,
          "name": "A#2",
          "ticks": 109200,
          "time": 113.75,
          "velocity": 0.8818897637795275
        },
        {
          "duration": 0.23645833333333144,
          "durationTicks": 227,
          "midi": 34,
          "name": "A#1",
          "ticks": 109440,
          "time": 114,
          "velocity": 0.6299212598425197
        },
        {
          "duration": 0.23645833333333144,
          "durationTicks": 227,
          "midi": 46,
          "name": "A#2",
          "ticks": 109440,
          "time": 114,
          "velocity": 0.6299212598425197
        },
        {
          "duration": 0.11770833333332575,
          "durationTicks": 113,
          "midi": 37,
          "name": "C#2",
          "ticks": 109680,
          "time": 114.25,
          "velocity": 0.6299212598425197
        },
        {
          "duration": 0.11770833333332575,
          "durationTicks": 113,
          "midi": 41,
          "name": "F2",
          "ticks": 109800,
          "time": 114.375,
          "velocity": 0.6299212598425197
        },
        {
          "duration": 0.23645833333333144,
          "durationTicks": 227,
          "midi": 41,
          "name": "F2",
          "ticks": 109920,
          "time": 114.5,
          "velocity": 0.6299212598425197
        },
        {
          "duration": 0.23645833333333144,
          "durationTicks": 227,
          "midi": 46,
          "name": "A#2",
          "ticks": 109920,
          "time": 114.5,
          "velocity": 0.6299212598425197
        },
        {
          "duration": 0.23645833333333144,
          "durationTicks": 227,
          "midi": 34,
          "name": "A#1",
          "ticks": 110160,
          "time": 114.75,
          "velocity": 0.6299212598425197
        },
        {
          "duration": 0.23645833333333144,
          "durationTicks": 227,
          "midi": 46,
          "name": "A#2",
          "ticks": 110160,
          "time": 114.75,
          "velocity": 0.6299212598425197
        },
        {
          "duration": 0.11770833333332575,
          "durationTicks": 113,
          "midi": 49,
          "name": "C#3",
          "ticks": 110400,
          "time": 115,
          "velocity": 0.6299212598425197
        },
        {
          "duration": 0.11770833333332575,
          "durationTicks": 113,
          "midi": 53,
          "name": "F3",
          "ticks": 110520,
          "time": 115.125,
          "velocity": 0.6299212598425197
        },
        {
          "duration": 0.23645833333333144,
          "durationTicks": 227,
          "midi": 58,
          "name": "A#3",
          "ticks": 110640,
          "time": 115.25,
          "velocity": 0.6299212598425197
        },
        {
          "duration": 0.11770833333332575,
          "durationTicks": 113,
          "midi": 53,
          "name": "F3",
          "ticks": 110880,
          "time": 115.5,
          "velocity": 0.6299212598425197
        },
        {
          "duration": 0.11770833333332575,
          "durationTicks": 113,
          "midi": 49,
          "name": "C#3",
          "ticks": 111000,
          "time": 115.625,
          "velocity": 0.6299212598425197
        },
        {
          "duration": 0.23645833333333144,
          "durationTicks": 227,
          "midi": 46,
          "name": "A#2",
          "ticks": 111120,
          "time": 115.75,
          "velocity": 0.6299212598425197
        },
        {
          "duration": 0.23645833333333144,
          "durationTicks": 227,
          "midi": 34,
          "name": "A#1",
          "ticks": 111360,
          "time": 116,
          "velocity": 0.6299212598425197
        },
        {
          "duration": 0.23645833333333144,
          "durationTicks": 227,
          "midi": 46,
          "name": "A#2",
          "ticks": 111360,
          "time": 116,
          "velocity": 0.6299212598425197
        },
        {
          "duration": 0.11770833333332575,
          "durationTicks": 113,
          "midi": 37,
          "name": "C#2",
          "ticks": 111600,
          "time": 116.25,
          "velocity": 0.6299212598425197
        },
        {
          "duration": 0.11770833333332575,
          "durationTicks": 113,
          "midi": 41,
          "name": "F2",
          "ticks": 111720,
          "time": 116.375,
          "velocity": 0.6299212598425197
        },
        {
          "duration": 0.23645833333333144,
          "durationTicks": 227,
          "midi": 41,
          "name": "F2",
          "ticks": 111840,
          "time": 116.5,
          "velocity": 0.6299212598425197
        },
        {
          "duration": 0.23645833333333144,
          "durationTicks": 227,
          "midi": 46,
          "name": "A#2",
          "ticks": 111840,
          "time": 116.5,
          "velocity": 0.6299212598425197
        },
        {
          "duration": 0.23645833333333144,
          "durationTicks": 227,
          "midi": 34,
          "name": "A#1",
          "ticks": 112080,
          "time": 116.75,
          "velocity": 0.6299212598425197
        },
        {
          "duration": 0.23645833333333144,
          "durationTicks": 227,
          "midi": 46,
          "name": "A#2",
          "ticks": 112080,
          "time": 116.75,
          "velocity": 0.6299212598425197
        },
        {
          "duration": 0.11770833333332575,
          "durationTicks": 113,
          "midi": 49,
          "name": "C#3",
          "ticks": 112320,
          "time": 117,
          "velocity": 0.6299212598425197
        },
        {
          "duration": 0.11770833333332575,
          "durationTicks": 113,
          "midi": 53,
          "name": "F3",
          "ticks": 112440,
          "time": 117.125,
          "velocity": 0.6299212598425197
        },
        {
          "duration": 0.23645833333333144,
          "durationTicks": 227,
          "midi": 58,
          "name": "A#3",
          "ticks": 112560,
          "time": 117.25,
          "velocity": 0.6299212598425197
        },
        {
          "duration": 0.11770833333332575,
          "durationTicks": 113,
          "midi": 53,
          "name": "F3",
          "ticks": 112800,
          "time": 117.5,
          "velocity": 0.6299212598425197
        },
        {
          "duration": 0.11770833333332575,
          "durationTicks": 113,
          "midi": 49,
          "name": "C#3",
          "ticks": 112920,
          "time": 117.625,
          "velocity": 0.6299212598425197
        },
        {
          "duration": 0.23645833333333144,
          "durationTicks": 227,
          "midi": 46,
          "name": "A#2",
          "ticks": 113040,
          "time": 117.75,
          "velocity": 0.6299212598425197
        },
        {
          "duration": 0.23645833333333144,
          "durationTicks": 227,
          "midi": 34,
          "name": "A#1",
          "ticks": 113280,
          "time": 118,
          "velocity": 0.6299212598425197
        },
        {
          "duration": 0.23645833333333144,
          "durationTicks": 227,
          "midi": 46,
          "name": "A#2",
          "ticks": 113280,
          "time": 118,
          "velocity": 0.6299212598425197
        },
        {
          "duration": 0.11770833333332575,
          "durationTicks": 113,
          "midi": 37,
          "name": "C#2",
          "ticks": 113520,
          "time": 118.25,
          "velocity": 0.6299212598425197
        },
        {
          "duration": 0.11770833333332575,
          "durationTicks": 113,
          "midi": 41,
          "name": "F2",
          "ticks": 113640,
          "time": 118.375,
          "velocity": 0.6299212598425197
        },
        {
          "duration": 0.23645833333333144,
          "durationTicks": 227,
          "midi": 41,
          "name": "F2",
          "ticks": 113760,
          "time": 118.5,
          "velocity": 0.6299212598425197
        },
        {
          "duration": 0.23645833333333144,
          "durationTicks": 227,
          "midi": 46,
          "name": "A#2",
          "ticks": 113760,
          "time": 118.5,
          "velocity": 0.6299212598425197
        },
        {
          "duration": 0.23645833333333144,
          "durationTicks": 227,
          "midi": 34,
          "name": "A#1",
          "ticks": 114000,
          "time": 118.75,
          "velocity": 0.6299212598425197
        },
        {
          "duration": 0.23645833333333144,
          "durationTicks": 227,
          "midi": 46,
          "name": "A#2",
          "ticks": 114000,
          "time": 118.75,
          "velocity": 0.6299212598425197
        },
        {
          "duration": 0.11770833333332575,
          "durationTicks": 113,
          "midi": 49,
          "name": "C#3",
          "ticks": 114240,
          "time": 119,
          "velocity": 0.6299212598425197
        },
        {
          "duration": 0.11770833333332575,
          "durationTicks": 113,
          "midi": 53,
          "name": "F3",
          "ticks": 114360,
          "time": 119.125,
          "velocity": 0.6299212598425197
        },
        {
          "duration": 0.23645833333333144,
          "durationTicks": 227,
          "midi": 58,
          "name": "A#3",
          "ticks": 114480,
          "time": 119.25,
          "velocity": 0.6299212598425197
        },
        {
          "duration": 0.11770833333332575,
          "durationTicks": 113,
          "midi": 53,
          "name": "F3",
          "ticks": 114720,
          "time": 119.5,
          "velocity": 0.6299212598425197
        },
        {
          "duration": 0.11770833333332575,
          "durationTicks": 113,
          "midi": 49,
          "name": "C#3",
          "ticks": 114840,
          "time": 119.625,
          "velocity": 0.6299212598425197
        },
        {
          "duration": 0.23645833333333144,
          "durationTicks": 227,
          "midi": 46,
          "name": "A#2",
          "ticks": 114960,
          "time": 119.75,
          "velocity": 0.6299212598425197
        },
        {
          "duration": 0.23645833333333144,
          "durationTicks": 227,
          "midi": 34,
          "name": "A#1",
          "ticks": 115200,
          "time": 120,
          "velocity": 0.6299212598425197
        },
        {
          "duration": 0.23645833333333144,
          "durationTicks": 227,
          "midi": 46,
          "name": "A#2",
          "ticks": 115200,
          "time": 120,
          "velocity": 0.6299212598425197
        },
        {
          "duration": 0.11770833333332575,
          "durationTicks": 113,
          "midi": 37,
          "name": "C#2",
          "ticks": 115440,
          "time": 120.25,
          "velocity": 0.6299212598425197
        },
        {
          "duration": 0.11770833333332575,
          "durationTicks": 113,
          "midi": 41,
          "name": "F2",
          "ticks": 115560,
          "time": 120.375,
          "velocity": 0.6299212598425197
        },
        {
          "duration": 0.23645833333333144,
          "durationTicks": 227,
          "midi": 41,
          "name": "F2",
          "ticks": 115680,
          "time": 120.5,
          "velocity": 0.6299212598425197
        },
        {
          "duration": 0.23645833333333144,
          "durationTicks": 227,
          "midi": 46,
          "name": "A#2",
          "ticks": 115680,
          "time": 120.5,
          "velocity": 0.6299212598425197
        },
        {
          "duration": 0.23645833333333144,
          "durationTicks": 227,
          "midi": 34,
          "name": "A#1",
          "ticks": 115920,
          "time": 120.75,
          "velocity": 0.6299212598425197
        },
        {
          "duration": 0.23645833333333144,
          "durationTicks": 227,
          "midi": 46,
          "name": "A#2",
          "ticks": 115920,
          "time": 120.75,
          "velocity": 0.6299212598425197
        },
        {
          "duration": 0.11770833333332575,
          "durationTicks": 113,
          "midi": 49,
          "name": "C#3",
          "ticks": 116160,
          "time": 121,
          "velocity": 0.6299212598425197
        },
        {
          "duration": 0.11770833333332575,
          "durationTicks": 113,
          "midi": 53,
          "name": "F3",
          "ticks": 116280,
          "time": 121.125,
          "velocity": 0.6299212598425197
        },
        {
          "duration": 0.23645833333333144,
          "durationTicks": 227,
          "midi": 58,
          "name": "A#3",
          "ticks": 116400,
          "time": 121.25,
          "velocity": 0.6299212598425197
        },
        {
          "duration": 0.11770833333332575,
          "durationTicks": 113,
          "midi": 53,
          "name": "F3",
          "ticks": 116640,
          "time": 121.5,
          "velocity": 0.6299212598425197
        },
        {
          "duration": 0.11770833333332575,
          "durationTicks": 113,
          "midi": 49,
          "name": "C#3",
          "ticks": 116760,
          "time": 121.625,
          "velocity": 0.6299212598425197
        },
        {
          "duration": 0.23645833333333144,
          "durationTicks": 227,
          "midi": 46,
          "name": "A#2",
          "ticks": 116880,
          "time": 121.75,
          "velocity": 0.6299212598425197
        },
        {
          "duration": 0.23645833333333144,
          "durationTicks": 227,
          "midi": 34,
          "name": "A#1",
          "ticks": 117120,
          "time": 122,
          "velocity": 0.6299212598425197
        },
        {
          "duration": 0.23645833333333144,
          "durationTicks": 227,
          "midi": 46,
          "name": "A#2",
          "ticks": 117120,
          "time": 122,
          "velocity": 0.6299212598425197
        },
        {
          "duration": 0.11770833333332575,
          "durationTicks": 113,
          "midi": 37,
          "name": "C#2",
          "ticks": 117360,
          "time": 122.25,
          "velocity": 0.6299212598425197
        },
        {
          "duration": 0.11770833333332575,
          "durationTicks": 113,
          "midi": 41,
          "name": "F2",
          "ticks": 117480,
          "time": 122.375,
          "velocity": 0.6299212598425197
        },
        {
          "duration": 0.23645833333333144,
          "durationTicks": 227,
          "midi": 41,
          "name": "F2",
          "ticks": 117600,
          "time": 122.5,
          "velocity": 0.6299212598425197
        },
        {
          "duration": 0.23645833333333144,
          "durationTicks": 227,
          "midi": 46,
          "name": "A#2",
          "ticks": 117600,
          "time": 122.5,
          "velocity": 0.6299212598425197
        },
        {
          "duration": 0.23645833333333144,
          "durationTicks": 227,
          "midi": 34,
          "name": "A#1",
          "ticks": 117840,
          "time": 122.75,
          "velocity": 0.6299212598425197
        },
        {
          "duration": 0.23645833333333144,
          "durationTicks": 227,
          "midi": 46,
          "name": "A#2",
          "ticks": 117840,
          "time": 122.75,
          "velocity": 0.6299212598425197
        },
        {
          "duration": 0.11770833333332575,
          "durationTicks": 113,
          "midi": 49,
          "name": "C#3",
          "ticks": 118080,
          "time": 123,
          "velocity": 0.6299212598425197
        },
        {
          "duration": 0.11770833333332575,
          "durationTicks": 113,
          "midi": 53,
          "name": "F3",
          "ticks": 118200,
          "time": 123.125,
          "velocity": 0.6299212598425197
        },
        {
          "duration": 0.23645833333333144,
          "durationTicks": 227,
          "midi": 58,
          "name": "A#3",
          "ticks": 118320,
          "time": 123.25,
          "velocity": 0.6299212598425197
        },
        {
          "duration": 0.11770833333332575,
          "durationTicks": 113,
          "midi": 53,
          "name": "F3",
          "ticks": 118560,
          "time": 123.5,
          "velocity": 0.6299212598425197
        },
        {
          "duration": 0.11770833333332575,
          "durationTicks": 113,
          "midi": 49,
          "name": "C#3",
          "ticks": 118680,
          "time": 123.625,
          "velocity": 0.6299212598425197
        },
        {
          "duration": 0.23645833333333144,
          "durationTicks": 227,
          "midi": 46,
          "name": "A#2",
          "ticks": 118800,
          "time": 123.75,
          "velocity": 0.6299212598425197
        },
        {
          "duration": 0.23645833333333144,
          "durationTicks": 227,
          "midi": 34,
          "name": "A#1",
          "ticks": 119040,
          "time": 124,
          "velocity": 0.6299212598425197
        },
        {
          "duration": 0.23645833333333144,
          "durationTicks": 227,
          "midi": 46,
          "name": "A#2",
          "ticks": 119040,
          "time": 124,
          "velocity": 0.6299212598425197
        },
        {
          "duration": 0.11770833333332575,
          "durationTicks": 113,
          "midi": 37,
          "name": "C#2",
          "ticks": 119280,
          "time": 124.25,
          "velocity": 0.6299212598425197
        },
        {
          "duration": 0.11770833333332575,
          "durationTicks": 113,
          "midi": 41,
          "name": "F2",
          "ticks": 119400,
          "time": 124.375,
          "velocity": 0.6299212598425197
        },
        {
          "duration": 0.23645833333333144,
          "durationTicks": 227,
          "midi": 41,
          "name": "F2",
          "ticks": 119520,
          "time": 124.5,
          "velocity": 0.6299212598425197
        },
        {
          "duration": 0.23645833333333144,
          "durationTicks": 227,
          "midi": 46,
          "name": "A#2",
          "ticks": 119520,
          "time": 124.5,
          "velocity": 0.6299212598425197
        },
        {
          "duration": 0.23645833333333144,
          "durationTicks": 227,
          "midi": 34,
          "name": "A#1",
          "ticks": 119760,
          "time": 124.75,
          "velocity": 0.6299212598425197
        },
        {
          "duration": 0.23645833333333144,
          "durationTicks": 227,
          "midi": 46,
          "name": "A#2",
          "ticks": 119760,
          "time": 124.75,
          "velocity": 0.6299212598425197
        },
        {
          "duration": 0.11770833333332575,
          "durationTicks": 113,
          "midi": 49,
          "name": "C#3",
          "ticks": 120000,
          "time": 125,
          "velocity": 0.6299212598425197
        },
        {
          "duration": 0.11770833333332575,
          "durationTicks": 113,
          "midi": 53,
          "name": "F3",
          "ticks": 120120,
          "time": 125.125,
          "velocity": 0.6299212598425197
        },
        {
          "duration": 0.23645833333333144,
          "durationTicks": 227,
          "midi": 58,
          "name": "A#3",
          "ticks": 120240,
          "time": 125.25,
          "velocity": 0.6299212598425197
        },
        {
          "duration": 0.11770833333332575,
          "durationTicks": 113,
          "midi": 53,
          "name": "F3",
          "ticks": 120480,
          "time": 125.5,
          "velocity": 0.6299212598425197
        },
        {
          "duration": 0.11770833333332575,
          "durationTicks": 113,
          "midi": 49,
          "name": "C#3",
          "ticks": 120600,
          "time": 125.625,
          "velocity": 0.6299212598425197
        },
        {
          "duration": 0.23645833333333144,
          "durationTicks": 227,
          "midi": 46,
          "name": "A#2",
          "ticks": 120720,
          "time": 125.75,
          "velocity": 0.6299212598425197
        },
        {
          "duration": 0.23645833333333144,
          "durationTicks": 227,
          "midi": 34,
          "name": "A#1",
          "ticks": 120960,
          "time": 126,
          "velocity": 0.6299212598425197
        },
        {
          "duration": 0.23645833333333144,
          "durationTicks": 227,
          "midi": 46,
          "name": "A#2",
          "ticks": 120960,
          "time": 126,
          "velocity": 0.6299212598425197
        },
        {
          "duration": 0.11770833333332575,
          "durationTicks": 113,
          "midi": 37,
          "name": "C#2",
          "ticks": 121200,
          "time": 126.25,
          "velocity": 0.6299212598425197
        },
        {
          "duration": 0.11770833333332575,
          "durationTicks": 113,
          "midi": 41,
          "name": "F2",
          "ticks": 121320,
          "time": 126.375,
          "velocity": 0.6299212598425197
        },
        {
          "duration": 0.23645833333333144,
          "durationTicks": 227,
          "midi": 41,
          "name": "F2",
          "ticks": 121440,
          "time": 126.5,
          "velocity": 0.6299212598425197
        },
        {
          "duration": 0.23645833333333144,
          "durationTicks": 227,
          "midi": 46,
          "name": "A#2",
          "ticks": 121440,
          "time": 126.5,
          "velocity": 0.6299212598425197
        },
        {
          "duration": 0.23645833333333144,
          "durationTicks": 227,
          "midi": 34,
          "name": "A#1",
          "ticks": 121680,
          "time": 126.75,
          "velocity": 0.6299212598425197
        },
        {
          "duration": 0.23645833333333144,
          "durationTicks": 227,
          "midi": 46,
          "name": "A#2",
          "ticks": 121680,
          "time": 126.75,
          "velocity": 0.6299212598425197
        },
        {
          "duration": 0.11770833333332575,
          "durationTicks": 113,
          "midi": 49,
          "name": "C#3",
          "ticks": 121920,
          "time": 127,
          "velocity": 0.6299212598425197
        },
        {
          "duration": 0.11770833333332575,
          "durationTicks": 113,
          "midi": 53,
          "name": "F3",
          "ticks": 122040,
          "time": 127.125,
          "velocity": 0.6299212598425197
        },
        {
          "duration": 0.23645833333333144,
          "durationTicks": 227,
          "midi": 58,
          "name": "A#3",
          "ticks": 122160,
          "time": 127.25,
          "velocity": 0.6299212598425197
        },
        {
          "duration": 0.11770833333332575,
          "durationTicks": 113,
          "midi": 53,
          "name": "F3",
          "ticks": 122400,
          "time": 127.5,
          "velocity": 0.6299212598425197
        },
        {
          "duration": 0.11770833333332575,
          "durationTicks": 113,
          "midi": 49,
          "name": "C#3",
          "ticks": 122520,
          "time": 127.625,
          "velocity": 0.6299212598425197
        },
        {
          "duration": 0.23645833333333144,
          "durationTicks": 227,
          "midi": 46,
          "name": "A#2",
          "ticks": 122640,
          "time": 127.75,
          "velocity": 0.6299212598425197
        },
        {
          "duration": 0.23645833333333144,
          "durationTicks": 227,
          "midi": 34,
          "name": "A#1",
          "ticks": 122880,
          "time": 128,
          "velocity": 0.6299212598425197
        },
        {
          "duration": 0.23645833333333144,
          "durationTicks": 227,
          "midi": 46,
          "name": "A#2",
          "ticks": 122880,
          "time": 128,
          "velocity": 0.6299212598425197
        },
        {
          "duration": 0.11770833333332575,
          "durationTicks": 113,
          "midi": 37,
          "name": "C#2",
          "ticks": 123120,
          "time": 128.25,
          "velocity": 0.6299212598425197
        },
        {
          "duration": 0.11770833333332575,
          "durationTicks": 113,
          "midi": 41,
          "name": "F2",
          "ticks": 123240,
          "time": 128.375,
          "velocity": 0.6299212598425197
        },
        {
          "duration": 0.23645833333333144,
          "durationTicks": 227,
          "midi": 41,
          "name": "F2",
          "ticks": 123360,
          "time": 128.5,
          "velocity": 0.6299212598425197
        },
        {
          "duration": 0.23645833333333144,
          "durationTicks": 227,
          "midi": 46,
          "name": "A#2",
          "ticks": 123360,
          "time": 128.5,
          "velocity": 0.6299212598425197
        },
        {
          "duration": 0.23645833333333144,
          "durationTicks": 227,
          "midi": 34,
          "name": "A#1",
          "ticks": 123600,
          "time": 128.75,
          "velocity": 0.6299212598425197
        },
        {
          "duration": 0.23645833333333144,
          "durationTicks": 227,
          "midi": 46,
          "name": "A#2",
          "ticks": 123600,
          "time": 128.75,
          "velocity": 0.6299212598425197
        },
        {
          "duration": 0.12395833333334849,
          "durationTicks": 119,
          "midi": 34,
          "name": "A#1",
          "ticks": 123840,
          "time": 129,
          "velocity": 0.9448818897637795
        },
        {
          "duration": 0.12395833333334849,
          "durationTicks": 119,
          "midi": 46,
          "name": "A#2",
          "ticks": 123840,
          "time": 129,
          "velocity": 0.9448818897637795
        },
        {
          "duration": 0.2489583333333485,
          "durationTicks": 239,
          "midi": 34,
          "name": "A#1",
          "ticks": 123960,
          "time": 129.125,
          "velocity": 0.9448818897637795
        },
        {
          "duration": 0.2489583333333485,
          "durationTicks": 239,
          "midi": 46,
          "name": "A#2",
          "ticks": 123960,
          "time": 129.125,
          "velocity": 0.9448818897637795
        },
        {
          "duration": 0.12395833333334849,
          "durationTicks": 119,
          "midi": 34,
          "name": "A#1",
          "ticks": 124200,
          "time": 129.375,
          "velocity": 0.9448818897637795
        },
        {
          "duration": 0.12395833333334849,
          "durationTicks": 119,
          "midi": 46,
          "name": "A#2",
          "ticks": 124200,
          "time": 129.375,
          "velocity": 0.9448818897637795
        },
        {
          "duration": 0.23645833333333144,
          "durationTicks": 227,
          "midi": 34,
          "name": "A#1",
          "ticks": 124320,
          "time": 129.5,
          "velocity": 0.6299212598425197
        },
        {
          "duration": 0.23645833333333144,
          "durationTicks": 227,
          "midi": 46,
          "name": "A#2",
          "ticks": 124320,
          "time": 129.5,
          "velocity": 0.6299212598425197
        },
        {
          "duration": 0.23645833333333144,
          "durationTicks": 227,
          "midi": 34,
          "name": "A#1",
          "ticks": 124560,
          "time": 129.75,
          "velocity": 0.6299212598425197
        },
        {
          "duration": 0.23645833333333144,
          "durationTicks": 227,
          "midi": 46,
          "name": "A#2",
          "ticks": 124560,
          "time": 129.75,
          "velocity": 0.6299212598425197
        },
        {
          "duration": 0.23645833333333144,
          "durationTicks": 227,
          "midi": 34,
          "name": "A#1",
          "ticks": 124800,
          "time": 130,
          "velocity": 0.6299212598425197
        },
        {
          "duration": 0.23645833333333144,
          "durationTicks": 227,
          "midi": 46,
          "name": "A#2",
          "ticks": 124800,
          "time": 130,
          "velocity": 0.6299212598425197
        },
        {
          "duration": 0.11770833333332575,
          "durationTicks": 113,
          "midi": 37,
          "name": "C#2",
          "ticks": 125040,
          "time": 130.25,
          "velocity": 0.6299212598425197
        },
        {
          "duration": 0.11770833333332575,
          "durationTicks": 113,
          "midi": 41,
          "name": "F2",
          "ticks": 125160,
          "time": 130.375,
          "velocity": 0.6299212598425197
        },
        {
          "duration": 0.23645833333333144,
          "durationTicks": 227,
          "midi": 41,
          "name": "F2",
          "ticks": 125280,
          "time": 130.5,
          "velocity": 0.6299212598425197
        },
        {
          "duration": 0.23645833333333144,
          "durationTicks": 227,
          "midi": 46,
          "name": "A#2",
          "ticks": 125280,
          "time": 130.5,
          "velocity": 0.6299212598425197
        },
        {
          "duration": 0.23645833333333144,
          "durationTicks": 227,
          "midi": 34,
          "name": "A#1",
          "ticks": 125520,
          "time": 130.75,
          "velocity": 0.6299212598425197
        },
        {
          "duration": 0.23645833333333144,
          "durationTicks": 227,
          "midi": 46,
          "name": "A#2",
          "ticks": 125520,
          "time": 130.75,
          "velocity": 0.6299212598425197
        },
        {
          "duration": 0.11770833333332575,
          "durationTicks": 113,
          "midi": 49,
          "name": "C#3",
          "ticks": 125760,
          "time": 131,
          "velocity": 0.6299212598425197
        },
        {
          "duration": 0.11770833333332575,
          "durationTicks": 113,
          "midi": 53,
          "name": "F3",
          "ticks": 125880,
          "time": 131.125,
          "velocity": 0.6299212598425197
        },
        {
          "duration": 0.23645833333333144,
          "durationTicks": 227,
          "midi": 58,
          "name": "A#3",
          "ticks": 126000,
          "time": 131.25,
          "velocity": 0.6299212598425197
        },
        {
          "duration": 0.11770833333332575,
          "durationTicks": 113,
          "midi": 53,
          "name": "F3",
          "ticks": 126240,
          "time": 131.5,
          "velocity": 0.6299212598425197
        },
        {
          "duration": 0.11770833333332575,
          "durationTicks": 113,
          "midi": 49,
          "name": "C#3",
          "ticks": 126360,
          "time": 131.625,
          "velocity": 0.6299212598425197
        },
        {
          "duration": 0.23645833333333144,
          "durationTicks": 227,
          "midi": 46,
          "name": "A#2",
          "ticks": 126480,
          "time": 131.75,
          "velocity": 0.6299212598425197
        },
        {
          "duration": 0.23645833333333144,
          "durationTicks": 227,
          "midi": 32,
          "name": "G#1",
          "ticks": 126720,
          "time": 132,
          "velocity": 0.6299212598425197
        },
        {
          "duration": 0.23645833333333144,
          "durationTicks": 227,
          "midi": 44,
          "name": "G#2",
          "ticks": 126720,
          "time": 132,
          "velocity": 0.6299212598425197
        },
        {
          "duration": 0.11770833333332575,
          "durationTicks": 113,
          "midi": 36,
          "name": "C2",
          "ticks": 126960,
          "time": 132.25,
          "velocity": 0.6299212598425197
        },
        {
          "duration": 0.11770833333332575,
          "durationTicks": 113,
          "midi": 39,
          "name": "D#2",
          "ticks": 127080,
          "time": 132.375,
          "velocity": 0.6299212598425197
        },
        {
          "duration": 0.23645833333333144,
          "durationTicks": 227,
          "midi": 39,
          "name": "D#2",
          "ticks": 127200,
          "time": 132.5,
          "velocity": 0.6299212598425197
        },
        {
          "duration": 0.23645833333333144,
          "durationTicks": 227,
          "midi": 44,
          "name": "G#2",
          "ticks": 127200,
          "time": 132.5,
          "velocity": 0.6299212598425197
        },
        {
          "duration": 0.23645833333333144,
          "durationTicks": 227,
          "midi": 32,
          "name": "G#1",
          "ticks": 127440,
          "time": 132.75,
          "velocity": 0.6299212598425197
        },
        {
          "duration": 0.23645833333333144,
          "durationTicks": 227,
          "midi": 44,
          "name": "G#2",
          "ticks": 127440,
          "time": 132.75,
          "velocity": 0.6299212598425197
        },
        {
          "duration": 0.11770833333332575,
          "durationTicks": 113,
          "midi": 48,
          "name": "C3",
          "ticks": 127680,
          "time": 133,
          "velocity": 0.6299212598425197
        },
        {
          "duration": 0.11770833333332575,
          "durationTicks": 113,
          "midi": 51,
          "name": "D#3",
          "ticks": 127800,
          "time": 133.125,
          "velocity": 0.6299212598425197
        },
        {
          "duration": 0.23645833333333144,
          "durationTicks": 227,
          "midi": 56,
          "name": "G#3",
          "ticks": 127920,
          "time": 133.25,
          "velocity": 0.6299212598425197
        },
        {
          "duration": 0.11770833333332575,
          "durationTicks": 113,
          "midi": 51,
          "name": "D#3",
          "ticks": 128160,
          "time": 133.5,
          "velocity": 0.6299212598425197
        },
        {
          "duration": 0.11770833333332575,
          "durationTicks": 113,
          "midi": 48,
          "name": "C3",
          "ticks": 128280,
          "time": 133.625,
          "velocity": 0.6299212598425197
        },
        {
          "duration": 0.23645833333333144,
          "durationTicks": 227,
          "midi": 44,
          "name": "G#2",
          "ticks": 128400,
          "time": 133.75,
          "velocity": 0.6299212598425197
        },
        {
          "duration": 0.23645833333333144,
          "durationTicks": 227,
          "midi": 30,
          "name": "F#1",
          "ticks": 128640,
          "time": 134,
          "velocity": 0.6299212598425197
        },
        {
          "duration": 0.23645833333333144,
          "durationTicks": 227,
          "midi": 42,
          "name": "F#2",
          "ticks": 128640,
          "time": 134,
          "velocity": 0.6299212598425197
        },
        {
          "duration": 0.11770833333332575,
          "durationTicks": 113,
          "midi": 34,
          "name": "A#1",
          "ticks": 128880,
          "time": 134.25,
          "velocity": 0.6299212598425197
        },
        {
          "duration": 0.11770833333332575,
          "durationTicks": 113,
          "midi": 37,
          "name": "C#2",
          "ticks": 129000,
          "time": 134.375,
          "velocity": 0.6299212598425197
        },
        {
          "duration": 0.23645833333333144,
          "durationTicks": 227,
          "midi": 37,
          "name": "C#2",
          "ticks": 129120,
          "time": 134.5,
          "velocity": 0.6299212598425197
        },
        {
          "duration": 0.23645833333333144,
          "durationTicks": 227,
          "midi": 42,
          "name": "F#2",
          "ticks": 129120,
          "time": 134.5,
          "velocity": 0.6299212598425197
        },
        {
          "duration": 0.23645833333333144,
          "durationTicks": 227,
          "midi": 30,
          "name": "F#1",
          "ticks": 129360,
          "time": 134.75,
          "velocity": 0.6299212598425197
        },
        {
          "duration": 0.23645833333333144,
          "durationTicks": 227,
          "midi": 42,
          "name": "F#2",
          "ticks": 129360,
          "time": 134.75,
          "velocity": 0.6299212598425197
        },
        {
          "duration": 0.11770833333332575,
          "durationTicks": 113,
          "midi": 46,
          "name": "A#2",
          "ticks": 129600,
          "time": 135,
          "velocity": 0.6299212598425197
        },
        {
          "duration": 0.11770833333332575,
          "durationTicks": 113,
          "midi": 49,
          "name": "C#3",
          "ticks": 129720,
          "time": 135.125,
          "velocity": 0.6299212598425197
        },
        {
          "duration": 0.23645833333333144,
          "durationTicks": 227,
          "midi": 54,
          "name": "F#3",
          "ticks": 129840,
          "time": 135.25,
          "velocity": 0.6299212598425197
        },
        {
          "duration": 0.11770833333332575,
          "durationTicks": 113,
          "midi": 49,
          "name": "C#3",
          "ticks": 130080,
          "time": 135.5,
          "velocity": 0.6299212598425197
        },
        {
          "duration": 0.11770833333332575,
          "durationTicks": 113,
          "midi": 46,
          "name": "A#2",
          "ticks": 130200,
          "time": 135.625,
          "velocity": 0.6299212598425197
        },
        {
          "duration": 0.23645833333333144,
          "durationTicks": 227,
          "midi": 42,
          "name": "F#2",
          "ticks": 130320,
          "time": 135.75,
          "velocity": 0.6299212598425197
        },
        {
          "duration": 0.23645833333333144,
          "durationTicks": 227,
          "midi": 32,
          "name": "G#1",
          "ticks": 130560,
          "time": 136,
          "velocity": 0.6299212598425197
        },
        {
          "duration": 0.23645833333333144,
          "durationTicks": 227,
          "midi": 44,
          "name": "G#2",
          "ticks": 130560,
          "time": 136,
          "velocity": 0.6299212598425197
        },
        {
          "duration": 0.11770833333332575,
          "durationTicks": 113,
          "midi": 36,
          "name": "C2",
          "ticks": 130800,
          "time": 136.25,
          "velocity": 0.6299212598425197
        },
        {
          "duration": 0.11770833333332575,
          "durationTicks": 113,
          "midi": 39,
          "name": "D#2",
          "ticks": 130920,
          "time": 136.375,
          "velocity": 0.6299212598425197
        },
        {
          "duration": 0.23645833333333144,
          "durationTicks": 227,
          "midi": 39,
          "name": "D#2",
          "ticks": 131040,
          "time": 136.5,
          "velocity": 0.6299212598425197
        },
        {
          "duration": 0.23645833333333144,
          "durationTicks": 227,
          "midi": 44,
          "name": "G#2",
          "ticks": 131040,
          "time": 136.5,
          "velocity": 0.6299212598425197
        },
        {
          "duration": 0.23645833333333144,
          "durationTicks": 227,
          "midi": 32,
          "name": "G#1",
          "ticks": 131280,
          "time": 136.75,
          "velocity": 0.6299212598425197
        },
        {
          "duration": 0.23645833333333144,
          "durationTicks": 227,
          "midi": 44,
          "name": "G#2",
          "ticks": 131280,
          "time": 136.75,
          "velocity": 0.6299212598425197
        },
        {
          "duration": 0.11770833333332575,
          "durationTicks": 113,
          "midi": 48,
          "name": "C3",
          "ticks": 131520,
          "time": 137,
          "velocity": 0.6299212598425197
        },
        {
          "duration": 0.11770833333332575,
          "durationTicks": 113,
          "midi": 51,
          "name": "D#3",
          "ticks": 131640,
          "time": 137.125,
          "velocity": 0.6299212598425197
        },
        {
          "duration": 0.23645833333333144,
          "durationTicks": 227,
          "midi": 56,
          "name": "G#3",
          "ticks": 131760,
          "time": 137.25,
          "velocity": 0.6299212598425197
        },
        {
          "duration": 0.11770833333332575,
          "durationTicks": 113,
          "midi": 51,
          "name": "D#3",
          "ticks": 132000,
          "time": 137.5,
          "velocity": 0.6299212598425197
        },
        {
          "duration": 0.11770833333332575,
          "durationTicks": 113,
          "midi": 48,
          "name": "C3",
          "ticks": 132120,
          "time": 137.625,
          "velocity": 0.6299212598425197
        },
        {
          "duration": 0.23645833333333144,
          "durationTicks": 227,
          "midi": 44,
          "name": "G#2",
          "ticks": 132240,
          "time": 137.75,
          "velocity": 0.6299212598425197
        },
        {
          "duration": 0.23645833333333144,
          "durationTicks": 227,
          "midi": 34,
          "name": "A#1",
          "ticks": 132480,
          "time": 138,
          "velocity": 0.6299212598425197
        },
        {
          "duration": 0.23645833333333144,
          "durationTicks": 227,
          "midi": 46,
          "name": "A#2",
          "ticks": 132480,
          "time": 138,
          "velocity": 0.6299212598425197
        },
        {
          "duration": 0.11770833333332575,
          "durationTicks": 113,
          "midi": 37,
          "name": "C#2",
          "ticks": 132720,
          "time": 138.25,
          "velocity": 0.6299212598425197
        },
        {
          "duration": 0.11770833333332575,
          "durationTicks": 113,
          "midi": 41,
          "name": "F2",
          "ticks": 132840,
          "time": 138.375,
          "velocity": 0.6299212598425197
        },
        {
          "duration": 0.23645833333333144,
          "durationTicks": 227,
          "midi": 41,
          "name": "F2",
          "ticks": 132960,
          "time": 138.5,
          "velocity": 0.6299212598425197
        },
        {
          "duration": 0.23645833333333144,
          "durationTicks": 227,
          "midi": 46,
          "name": "A#2",
          "ticks": 132960,
          "time": 138.5,
          "velocity": 0.6299212598425197
        },
        {
          "duration": 0.23645833333333144,
          "durationTicks": 227,
          "midi": 34,
          "name": "A#1",
          "ticks": 133200,
          "time": 138.75,
          "velocity": 0.6299212598425197
        },
        {
          "duration": 0.23645833333333144,
          "durationTicks": 227,
          "midi": 46,
          "name": "A#2",
          "ticks": 133200,
          "time": 138.75,
          "velocity": 0.6299212598425197
        },
        {
          "duration": 0.11770833333332575,
          "durationTicks": 113,
          "midi": 49,
          "name": "C#3",
          "ticks": 133440,
          "time": 139,
          "velocity": 0.6299212598425197
        },
        {
          "duration": 0.11770833333332575,
          "durationTicks": 113,
          "midi": 53,
          "name": "F3",
          "ticks": 133560,
          "time": 139.125,
          "velocity": 0.6299212598425197
        },
        {
          "duration": 0.23645833333333144,
          "durationTicks": 227,
          "midi": 58,
          "name": "A#3",
          "ticks": 133680,
          "time": 139.25,
          "velocity": 0.6299212598425197
        },
        {
          "duration": 0.11770833333332575,
          "durationTicks": 113,
          "midi": 53,
          "name": "F3",
          "ticks": 133920,
          "time": 139.5,
          "velocity": 0.6299212598425197
        },
        {
          "duration": 0.11770833333332575,
          "durationTicks": 113,
          "midi": 49,
          "name": "C#3",
          "ticks": 134040,
          "time": 139.625,
          "velocity": 0.6299212598425197
        },
        {
          "duration": 0.23645833333333144,
          "durationTicks": 227,
          "midi": 46,
          "name": "A#2",
          "ticks": 134160,
          "time": 139.75,
          "velocity": 0.6299212598425197
        },
        {
          "duration": 0.23645833333333144,
          "durationTicks": 227,
          "midi": 32,
          "name": "G#1",
          "ticks": 134400,
          "time": 140,
          "velocity": 0.6299212598425197
        },
        {
          "duration": 0.23645833333333144,
          "durationTicks": 227,
          "midi": 44,
          "name": "G#2",
          "ticks": 134400,
          "time": 140,
          "velocity": 0.6299212598425197
        },
        {
          "duration": 0.11770833333332575,
          "durationTicks": 113,
          "midi": 36,
          "name": "C2",
          "ticks": 134640,
          "time": 140.25,
          "velocity": 0.6299212598425197
        },
        {
          "duration": 0.11770833333332575,
          "durationTicks": 113,
          "midi": 39,
          "name": "D#2",
          "ticks": 134760,
          "time": 140.375,
          "velocity": 0.6299212598425197
        },
        {
          "duration": 0.23645833333333144,
          "durationTicks": 227,
          "midi": 39,
          "name": "D#2",
          "ticks": 134880,
          "time": 140.5,
          "velocity": 0.6299212598425197
        },
        {
          "duration": 0.23645833333333144,
          "durationTicks": 227,
          "midi": 44,
          "name": "G#2",
          "ticks": 134880,
          "time": 140.5,
          "velocity": 0.6299212598425197
        },
        {
          "duration": 0.23645833333333144,
          "durationTicks": 227,
          "midi": 32,
          "name": "G#1",
          "ticks": 135120,
          "time": 140.75,
          "velocity": 0.6299212598425197
        },
        {
          "duration": 0.23645833333333144,
          "durationTicks": 227,
          "midi": 44,
          "name": "G#2",
          "ticks": 135120,
          "time": 140.75,
          "velocity": 0.6299212598425197
        },
        {
          "duration": 0.11770833333332575,
          "durationTicks": 113,
          "midi": 48,
          "name": "C3",
          "ticks": 135360,
          "time": 141,
          "velocity": 0.6299212598425197
        },
        {
          "duration": 0.11770833333332575,
          "durationTicks": 113,
          "midi": 51,
          "name": "D#3",
          "ticks": 135480,
          "time": 141.125,
          "velocity": 0.6299212598425197
        },
        {
          "duration": 0.23645833333333144,
          "durationTicks": 227,
          "midi": 56,
          "name": "G#3",
          "ticks": 135600,
          "time": 141.25,
          "velocity": 0.6299212598425197
        },
        {
          "duration": 0.11770833333332575,
          "durationTicks": 113,
          "midi": 51,
          "name": "D#3",
          "ticks": 135840,
          "time": 141.5,
          "velocity": 0.6299212598425197
        },
        {
          "duration": 0.11770833333332575,
          "durationTicks": 113,
          "midi": 48,
          "name": "C3",
          "ticks": 135960,
          "time": 141.625,
          "velocity": 0.6299212598425197
        },
        {
          "duration": 0.23645833333333144,
          "durationTicks": 227,
          "midi": 44,
          "name": "G#2",
          "ticks": 136080,
          "time": 141.75,
          "velocity": 0.6299212598425197
        },
        {
          "duration": 0.23645833333333144,
          "durationTicks": 227,
          "midi": 30,
          "name": "F#1",
          "ticks": 136320,
          "time": 142,
          "velocity": 0.6299212598425197
        },
        {
          "duration": 0.23645833333333144,
          "durationTicks": 227,
          "midi": 42,
          "name": "F#2",
          "ticks": 136320,
          "time": 142,
          "velocity": 0.6299212598425197
        },
        {
          "duration": 0.11770833333332575,
          "durationTicks": 113,
          "midi": 34,
          "name": "A#1",
          "ticks": 136560,
          "time": 142.25,
          "velocity": 0.6299212598425197
        },
        {
          "duration": 0.11770833333332575,
          "durationTicks": 113,
          "midi": 37,
          "name": "C#2",
          "ticks": 136680,
          "time": 142.375,
          "velocity": 0.6299212598425197
        },
        {
          "duration": 0.23645833333333144,
          "durationTicks": 227,
          "midi": 37,
          "name": "C#2",
          "ticks": 136800,
          "time": 142.5,
          "velocity": 0.6299212598425197
        },
        {
          "duration": 0.23645833333333144,
          "durationTicks": 227,
          "midi": 42,
          "name": "F#2",
          "ticks": 136800,
          "time": 142.5,
          "velocity": 0.6299212598425197
        },
        {
          "duration": 0.23645833333333144,
          "durationTicks": 227,
          "midi": 30,
          "name": "F#1",
          "ticks": 137040,
          "time": 142.75,
          "velocity": 0.6299212598425197
        },
        {
          "duration": 0.23645833333333144,
          "durationTicks": 227,
          "midi": 42,
          "name": "F#2",
          "ticks": 137040,
          "time": 142.75,
          "velocity": 0.6299212598425197
        },
        {
          "duration": 0.11770833333332575,
          "durationTicks": 113,
          "midi": 46,
          "name": "A#2",
          "ticks": 137280,
          "time": 143,
          "velocity": 0.6299212598425197
        },
        {
          "duration": 0.11770833333332575,
          "durationTicks": 113,
          "midi": 49,
          "name": "C#3",
          "ticks": 137400,
          "time": 143.125,
          "velocity": 0.6299212598425197
        },
        {
          "duration": 0.23645833333333144,
          "durationTicks": 227,
          "midi": 54,
          "name": "F#3",
          "ticks": 137520,
          "time": 143.25,
          "velocity": 0.6299212598425197
        },
        {
          "duration": 0.11770833333332575,
          "durationTicks": 113,
          "midi": 49,
          "name": "C#3",
          "ticks": 137760,
          "time": 143.5,
          "velocity": 0.6299212598425197
        },
        {
          "duration": 0.11770833333332575,
          "durationTicks": 113,
          "midi": 46,
          "name": "A#2",
          "ticks": 137880,
          "time": 143.625,
          "velocity": 0.6299212598425197
        },
        {
          "duration": 0.23645833333333144,
          "durationTicks": 227,
          "midi": 42,
          "name": "F#2",
          "ticks": 138000,
          "time": 143.75,
          "velocity": 0.6299212598425197
        },
        {
          "duration": 0.23645833333333144,
          "durationTicks": 227,
          "midi": 32,
          "name": "G#1",
          "ticks": 138240,
          "time": 144,
          "velocity": 0.6299212598425197
        },
        {
          "duration": 0.23645833333333144,
          "durationTicks": 227,
          "midi": 44,
          "name": "G#2",
          "ticks": 138240,
          "time": 144,
          "velocity": 0.6299212598425197
        },
        {
          "duration": 0.11770833333332575,
          "durationTicks": 113,
          "midi": 36,
          "name": "C2",
          "ticks": 138480,
          "time": 144.25,
          "velocity": 0.6299212598425197
        },
        {
          "duration": 0.11770833333332575,
          "durationTicks": 113,
          "midi": 39,
          "name": "D#2",
          "ticks": 138600,
          "time": 144.375,
          "velocity": 0.6299212598425197
        },
        {
          "duration": 0.23645833333333144,
          "durationTicks": 227,
          "midi": 39,
          "name": "D#2",
          "ticks": 138720,
          "time": 144.5,
          "velocity": 0.6299212598425197
        },
        {
          "duration": 0.23645833333333144,
          "durationTicks": 227,
          "midi": 44,
          "name": "G#2",
          "ticks": 138720,
          "time": 144.5,
          "velocity": 0.6299212598425197
        },
        {
          "duration": 0.23645833333333144,
          "durationTicks": 227,
          "midi": 32,
          "name": "G#1",
          "ticks": 138960,
          "time": 144.75,
          "velocity": 0.6299212598425197
        },
        {
          "duration": 0.23645833333333144,
          "durationTicks": 227,
          "midi": 44,
          "name": "G#2",
          "ticks": 138960,
          "time": 144.75,
          "velocity": 0.6299212598425197
        },
        {
          "duration": 0.11770833333332575,
          "durationTicks": 113,
          "midi": 48,
          "name": "C3",
          "ticks": 139200,
          "time": 145,
          "velocity": 0.6299212598425197
        },
        {
          "duration": 0.11770833333332575,
          "durationTicks": 113,
          "midi": 51,
          "name": "D#3",
          "ticks": 139320,
          "time": 145.125,
          "velocity": 0.6299212598425197
        },
        {
          "duration": 0.23645833333333144,
          "durationTicks": 227,
          "midi": 56,
          "name": "G#3",
          "ticks": 139440,
          "time": 145.25,
          "velocity": 0.6299212598425197
        },
        {
          "duration": 0.11770833333332575,
          "durationTicks": 113,
          "midi": 51,
          "name": "D#3",
          "ticks": 139680,
          "time": 145.5,
          "velocity": 0.6299212598425197
        },
        {
          "duration": 0.11770833333332575,
          "durationTicks": 113,
          "midi": 48,
          "name": "C3",
          "ticks": 139800,
          "time": 145.625,
          "velocity": 0.6299212598425197
        },
        {
          "duration": 0.23645833333333144,
          "durationTicks": 227,
          "midi": 44,
          "name": "G#2",
          "ticks": 139920,
          "time": 145.75,
          "velocity": 0.6299212598425197
        },
        {
          "duration": 0.23645833333333144,
          "durationTicks": 227,
          "midi": 34,
          "name": "A#1",
          "ticks": 140160,
          "time": 146,
          "velocity": 0.6299212598425197
        },
        {
          "duration": 0.23645833333333144,
          "durationTicks": 227,
          "midi": 46,
          "name": "A#2",
          "ticks": 140160,
          "time": 146,
          "velocity": 0.6299212598425197
        },
        {
          "duration": 0.11770833333332575,
          "durationTicks": 113,
          "midi": 37,
          "name": "C#2",
          "ticks": 140400,
          "time": 146.25,
          "velocity": 0.6299212598425197
        },
        {
          "duration": 0.11770833333332575,
          "durationTicks": 113,
          "midi": 41,
          "name": "F2",
          "ticks": 140520,
          "time": 146.375,
          "velocity": 0.6299212598425197
        },
        {
          "duration": 0.23645833333333144,
          "durationTicks": 227,
          "midi": 41,
          "name": "F2",
          "ticks": 140640,
          "time": 146.5,
          "velocity": 0.6299212598425197
        },
        {
          "duration": 0.23645833333333144,
          "durationTicks": 227,
          "midi": 46,
          "name": "A#2",
          "ticks": 140640,
          "time": 146.5,
          "velocity": 0.6299212598425197
        },
        {
          "duration": 0.23645833333333144,
          "durationTicks": 227,
          "midi": 34,
          "name": "A#1",
          "ticks": 140880,
          "time": 146.75,
          "velocity": 0.6299212598425197
        },
        {
          "duration": 0.23645833333333144,
          "durationTicks": 227,
          "midi": 46,
          "name": "A#2",
          "ticks": 140880,
          "time": 146.75,
          "velocity": 0.6299212598425197
        },
        {
          "duration": 0.11770833333332575,
          "durationTicks": 113,
          "midi": 49,
          "name": "C#3",
          "ticks": 141120,
          "time": 147,
          "velocity": 0.6299212598425197
        },
        {
          "duration": 0.11770833333332575,
          "durationTicks": 113,
          "midi": 53,
          "name": "F3",
          "ticks": 141240,
          "time": 147.125,
          "velocity": 0.6299212598425197
        },
        {
          "duration": 0.23645833333333144,
          "durationTicks": 227,
          "midi": 58,
          "name": "A#3",
          "ticks": 141360,
          "time": 147.25,
          "velocity": 0.6299212598425197
        },
        {
          "duration": 0.11770833333332575,
          "durationTicks": 113,
          "midi": 53,
          "name": "F3",
          "ticks": 141600,
          "time": 147.5,
          "velocity": 0.6299212598425197
        },
        {
          "duration": 0.11770833333332575,
          "durationTicks": 113,
          "midi": 49,
          "name": "C#3",
          "ticks": 141720,
          "time": 147.625,
          "velocity": 0.6299212598425197
        },
        {
          "duration": 0.23645833333333144,
          "durationTicks": 227,
          "midi": 46,
          "name": "A#2",
          "ticks": 141840,
          "time": 147.75,
          "velocity": 0.6299212598425197
        },
        {
          "duration": 0.23645833333333144,
          "durationTicks": 227,
          "midi": 32,
          "name": "G#1",
          "ticks": 142080,
          "time": 148,
          "velocity": 0.6299212598425197
        },
        {
          "duration": 0.23645833333333144,
          "durationTicks": 227,
          "midi": 44,
          "name": "G#2",
          "ticks": 142080,
          "time": 148,
          "velocity": 0.6299212598425197
        },
        {
          "duration": 0.11770833333332575,
          "durationTicks": 113,
          "midi": 36,
          "name": "C2",
          "ticks": 142320,
          "time": 148.25,
          "velocity": 0.6299212598425197
        },
        {
          "duration": 0.11770833333332575,
          "durationTicks": 113,
          "midi": 39,
          "name": "D#2",
          "ticks": 142440,
          "time": 148.375,
          "velocity": 0.6299212598425197
        },
        {
          "duration": 0.23645833333333144,
          "durationTicks": 227,
          "midi": 39,
          "name": "D#2",
          "ticks": 142560,
          "time": 148.5,
          "velocity": 0.6299212598425197
        },
        {
          "duration": 0.23645833333333144,
          "durationTicks": 227,
          "midi": 44,
          "name": "G#2",
          "ticks": 142560,
          "time": 148.5,
          "velocity": 0.6299212598425197
        },
        {
          "duration": 0.23645833333333144,
          "durationTicks": 227,
          "midi": 32,
          "name": "G#1",
          "ticks": 142800,
          "time": 148.75,
          "velocity": 0.6299212598425197
        },
        {
          "duration": 0.23645833333333144,
          "durationTicks": 227,
          "midi": 44,
          "name": "G#2",
          "ticks": 142800,
          "time": 148.75,
          "velocity": 0.6299212598425197
        },
        {
          "duration": 0.11770833333332575,
          "durationTicks": 113,
          "midi": 48,
          "name": "C3",
          "ticks": 143040,
          "time": 149,
          "velocity": 0.6299212598425197
        },
        {
          "duration": 0.11770833333332575,
          "durationTicks": 113,
          "midi": 51,
          "name": "D#3",
          "ticks": 143160,
          "time": 149.125,
          "velocity": 0.6299212598425197
        },
        {
          "duration": 0.23645833333333144,
          "durationTicks": 227,
          "midi": 56,
          "name": "G#3",
          "ticks": 143280,
          "time": 149.25,
          "velocity": 0.6299212598425197
        },
        {
          "duration": 0.11770833333332575,
          "durationTicks": 113,
          "midi": 51,
          "name": "D#3",
          "ticks": 143520,
          "time": 149.5,
          "velocity": 0.6299212598425197
        },
        {
          "duration": 0.11770833333332575,
          "durationTicks": 113,
          "midi": 48,
          "name": "C3",
          "ticks": 143640,
          "time": 149.625,
          "velocity": 0.6299212598425197
        },
        {
          "duration": 0.23645833333333144,
          "durationTicks": 227,
          "midi": 44,
          "name": "G#2",
          "ticks": 143760,
          "time": 149.75,
          "velocity": 0.6299212598425197
        },
        {
          "duration": 0.23645833333333144,
          "durationTicks": 227,
          "midi": 30,
          "name": "F#1",
          "ticks": 144000,
          "time": 150,
          "velocity": 0.6299212598425197
        },
        {
          "duration": 0.23645833333333144,
          "durationTicks": 227,
          "midi": 42,
          "name": "F#2",
          "ticks": 144000,
          "time": 150,
          "velocity": 0.6299212598425197
        },
        {
          "duration": 0.11770833333332575,
          "durationTicks": 113,
          "midi": 34,
          "name": "A#1",
          "ticks": 144240,
          "time": 150.25,
          "velocity": 0.6299212598425197
        },
        {
          "duration": 0.11770833333332575,
          "durationTicks": 113,
          "midi": 37,
          "name": "C#2",
          "ticks": 144360,
          "time": 150.375,
          "velocity": 0.6299212598425197
        },
        {
          "duration": 0.23645833333333144,
          "durationTicks": 227,
          "midi": 37,
          "name": "C#2",
          "ticks": 144480,
          "time": 150.5,
          "velocity": 0.6299212598425197
        },
        {
          "duration": 0.23645833333333144,
          "durationTicks": 227,
          "midi": 42,
          "name": "F#2",
          "ticks": 144480,
          "time": 150.5,
          "velocity": 0.6299212598425197
        },
        {
          "duration": 0.23645833333333144,
          "durationTicks": 227,
          "midi": 30,
          "name": "F#1",
          "ticks": 144720,
          "time": 150.75,
          "velocity": 0.6299212598425197
        },
        {
          "duration": 0.23645833333333144,
          "durationTicks": 227,
          "midi": 42,
          "name": "F#2",
          "ticks": 144720,
          "time": 150.75,
          "velocity": 0.6299212598425197
        },
        {
          "duration": 0.11770833333332575,
          "durationTicks": 113,
          "midi": 46,
          "name": "A#2",
          "ticks": 144960,
          "time": 151,
          "velocity": 0.6299212598425197
        },
        {
          "duration": 0.11770833333332575,
          "durationTicks": 113,
          "midi": 49,
          "name": "C#3",
          "ticks": 145080,
          "time": 151.125,
          "velocity": 0.6299212598425197
        },
        {
          "duration": 0.23645833333333144,
          "durationTicks": 227,
          "midi": 54,
          "name": "F#3",
          "ticks": 145200,
          "time": 151.25,
          "velocity": 0.6299212598425197
        },
        {
          "duration": 0.11770833333332575,
          "durationTicks": 113,
          "midi": 49,
          "name": "C#3",
          "ticks": 145440,
          "time": 151.5,
          "velocity": 0.6299212598425197
        },
        {
          "duration": 0.11770833333332575,
          "durationTicks": 113,
          "midi": 46,
          "name": "A#2",
          "ticks": 145560,
          "time": 151.625,
          "velocity": 0.6299212598425197
        },
        {
          "duration": 0.23645833333333144,
          "durationTicks": 227,
          "midi": 42,
          "name": "F#2",
          "ticks": 145680,
          "time": 151.75,
          "velocity": 0.6299212598425197
        },
        {
          "duration": 0.23645833333333144,
          "durationTicks": 227,
          "midi": 32,
          "name": "G#1",
          "ticks": 145920,
          "time": 152,
          "velocity": 0.6299212598425197
        },
        {
          "duration": 0.23645833333333144,
          "durationTicks": 227,
          "midi": 44,
          "name": "G#2",
          "ticks": 145920,
          "time": 152,
          "velocity": 0.6299212598425197
        },
        {
          "duration": 0.11770833333332575,
          "durationTicks": 113,
          "midi": 36,
          "name": "C2",
          "ticks": 146160,
          "time": 152.25,
          "velocity": 0.6614173228346457
        },
        {
          "duration": 0.11770833333332575,
          "durationTicks": 113,
          "midi": 39,
          "name": "D#2",
          "ticks": 146280,
          "time": 152.375,
          "velocity": 0.6771653543307087
        },
        {
          "duration": 0.23645833333333144,
          "durationTicks": 227,
          "midi": 39,
          "name": "D#2",
          "ticks": 146400,
          "time": 152.5,
          "velocity": 0.6929133858267716
        },
        {
          "duration": 0.23645833333333144,
          "durationTicks": 227,
          "midi": 44,
          "name": "G#2",
          "ticks": 146400,
          "time": 152.5,
          "velocity": 0.6929133858267716
        },
        {
          "duration": 0.23645833333333144,
          "durationTicks": 227,
          "midi": 32,
          "name": "G#1",
          "ticks": 146640,
          "time": 152.75,
          "velocity": 0.7244094488188977
        },
        {
          "duration": 0.23645833333333144,
          "durationTicks": 227,
          "midi": 44,
          "name": "G#2",
          "ticks": 146640,
          "time": 152.75,
          "velocity": 0.7244094488188977
        },
        {
          "duration": 0.12395833333334849,
          "durationTicks": 119,
          "midi": 32,
          "name": "G#1",
          "ticks": 146880,
          "time": 153,
          "velocity": 1
        },
        {
          "duration": 0.12395833333334849,
          "durationTicks": 119,
          "midi": 44,
          "name": "G#2",
          "ticks": 146880,
          "time": 153,
          "velocity": 1
        },
        {
          "duration": 0.2489583333333485,
          "durationTicks": 239,
          "midi": 32,
          "name": "G#1",
          "ticks": 147000,
          "time": 153.125,
          "velocity": 1
        },
        {
          "duration": 0.2489583333333485,
          "durationTicks": 239,
          "midi": 44,
          "name": "G#2",
          "ticks": 147000,
          "time": 153.125,
          "velocity": 1
        },
        {
          "duration": 0.12395833333334849,
          "durationTicks": 119,
          "midi": 32,
          "name": "G#1",
          "ticks": 147240,
          "time": 153.375,
          "velocity": 1
        },
        {
          "duration": 0.12395833333334849,
          "durationTicks": 119,
          "midi": 44,
          "name": "G#2",
          "ticks": 147240,
          "time": 153.375,
          "velocity": 1
        },
        {
          "duration": 0.2489583333333485,
          "durationTicks": 239,
          "midi": 34,
          "name": "A#1",
          "ticks": 147360,
          "time": 153.5,
          "velocity": 1
        },
        {
          "duration": 0.2489583333333485,
          "durationTicks": 239,
          "midi": 46,
          "name": "A#2",
          "ticks": 147360,
          "time": 153.5,
          "velocity": 1
        },
        {
          "duration": 0.12395833333334849,
          "durationTicks": 119,
          "midi": 34,
          "name": "A#1",
          "ticks": 147600,
          "time": 153.75,
          "velocity": 1
        },
        {
          "duration": 0.12395833333334849,
          "durationTicks": 119,
          "midi": 46,
          "name": "A#2",
          "ticks": 147600,
          "time": 153.75,
          "velocity": 1
        },
        {
          "duration": 0.11770833333332575,
          "durationTicks": 113,
          "midi": 34,
          "name": "A#1",
          "ticks": 147720,
          "time": 153.875,
          "velocity": 0.8661417322834646
        },
        {
          "duration": 0.11770833333332575,
          "durationTicks": 113,
          "midi": 46,
          "name": "A#2",
          "ticks": 147720,
          "time": 153.875,
          "velocity": 0.8661417322834646
        },
        {
          "duration": 0.23645833333333144,
          "durationTicks": 227,
          "midi": 34,
          "name": "A#1",
          "ticks": 147840,
          "time": 154,
          "velocity": 0.8818897637795275
        },
        {
          "duration": 0.23645833333333144,
          "durationTicks": 227,
          "midi": 46,
          "name": "A#2",
          "ticks": 147840,
          "time": 154,
          "velocity": 0.8818897637795275
        },
        {
          "duration": 0.11770833333332575,
          "durationTicks": 113,
          "midi": 37,
          "name": "C#2",
          "ticks": 148080,
          "time": 154.25,
          "velocity": 0.8818897637795275
        },
        {
          "duration": 0.11770833333332575,
          "durationTicks": 113,
          "midi": 41,
          "name": "F2",
          "ticks": 148200,
          "time": 154.375,
          "velocity": 0.8818897637795275
        },
        {
          "duration": 0.23645833333333144,
          "durationTicks": 227,
          "midi": 41,
          "name": "F2",
          "ticks": 148320,
          "time": 154.5,
          "velocity": 0.8818897637795275
        },
        {
          "duration": 0.23645833333333144,
          "durationTicks": 227,
          "midi": 46,
          "name": "A#2",
          "ticks": 148320,
          "time": 154.5,
          "velocity": 0.8818897637795275
        },
        {
          "duration": 0.23645833333333144,
          "durationTicks": 227,
          "midi": 32,
          "name": "G#1",
          "ticks": 148560,
          "time": 154.75,
          "velocity": 0.8818897637795275
        },
        {
          "duration": 0.23645833333333144,
          "durationTicks": 227,
          "midi": 44,
          "name": "G#2",
          "ticks": 148560,
          "time": 154.75,
          "velocity": 0.8818897637795275
        },
        {
          "duration": 0.11770833333332575,
          "durationTicks": 113,
          "midi": 48,
          "name": "C3",
          "ticks": 148800,
          "time": 155,
          "velocity": 0.8818897637795275
        },
        {
          "duration": 0.11770833333332575,
          "durationTicks": 113,
          "midi": 51,
          "name": "D#3",
          "ticks": 148920,
          "time": 155.125,
          "velocity": 0.8818897637795275
        },
        {
          "duration": 0.23645833333333144,
          "durationTicks": 227,
          "midi": 56,
          "name": "G#3",
          "ticks": 149040,
          "time": 155.25,
          "velocity": 0.8818897637795275
        },
        {
          "duration": 0.11770833333332575,
          "durationTicks": 113,
          "midi": 51,
          "name": "D#3",
          "ticks": 149280,
          "time": 155.5,
          "velocity": 0.8818897637795275
        },
        {
          "duration": 0.11770833333332575,
          "durationTicks": 113,
          "midi": 48,
          "name": "C3",
          "ticks": 149400,
          "time": 155.625,
          "velocity": 0.8818897637795275
        },
        {
          "duration": 0.23645833333333144,
          "durationTicks": 227,
          "midi": 44,
          "name": "G#2",
          "ticks": 149520,
          "time": 155.75,
          "velocity": 0.8818897637795275
        },
        {
          "duration": 0.23645833333333144,
          "durationTicks": 227,
          "midi": 41,
          "name": "F2",
          "ticks": 149760,
          "time": 156,
          "velocity": 0.8818897637795275
        },
        {
          "duration": 0.23645833333333144,
          "durationTicks": 227,
          "midi": 53,
          "name": "F3",
          "ticks": 149760,
          "time": 156,
          "velocity": 0.8818897637795275
        },
        {
          "duration": 0.11770833333332575,
          "durationTicks": 113,
          "midi": 44,
          "name": "G#2",
          "ticks": 150000,
          "time": 156.25,
          "velocity": 0.8818897637795275
        },
        {
          "duration": 0.11770833333332575,
          "durationTicks": 113,
          "midi": 48,
          "name": "C3",
          "ticks": 150120,
          "time": 156.375,
          "velocity": 0.8818897637795275
        },
        {
          "duration": 0.23645833333333144,
          "durationTicks": 227,
          "midi": 51,
          "name": "D#3",
          "ticks": 150240,
          "time": 156.5,
          "velocity": 0.8818897637795275
        },
        {
          "duration": 0.23645833333333144,
          "durationTicks": 227,
          "midi": 53,
          "name": "F3",
          "ticks": 150240,
          "time": 156.5,
          "velocity": 0.8818897637795275
        },
        {
          "duration": 0.23645833333333144,
          "durationTicks": 227,
          "midi": 34,
          "name": "A#1",
          "ticks": 150480,
          "time": 156.75,
          "velocity": 0.8818897637795275
        },
        {
          "duration": 0.23645833333333144,
          "durationTicks": 227,
          "midi": 46,
          "name": "A#2",
          "ticks": 150480,
          "time": 156.75,
          "velocity": 0.8818897637795275
        },
        {
          "duration": 0.11770833333332575,
          "durationTicks": 113,
          "midi": 49,
          "name": "C#3",
          "ticks": 150720,
          "time": 157,
          "velocity": 0.8818897637795275
        },
        {
          "duration": 0.11770833333332575,
          "durationTicks": 113,
          "midi": 53,
          "name": "F3",
          "ticks": 150840,
          "time": 157.125,
          "velocity": 0.8818897637795275
        },
        {
          "duration": 0.23645833333333144,
          "durationTicks": 227,
          "midi": 58,
          "name": "A#3",
          "ticks": 150960,
          "time": 157.25,
          "velocity": 0.8818897637795275
        },
        {
          "duration": 0.11770833333332575,
          "durationTicks": 113,
          "midi": 56,
          "name": "G#3",
          "ticks": 151200,
          "time": 157.5,
          "velocity": 0.8818897637795275
        },
        {
          "duration": 0.11770833333332575,
          "durationTicks": 113,
          "midi": 54,
          "name": "F#3",
          "ticks": 151320,
          "time": 157.625,
          "velocity": 0.8818897637795275
        },
        {
          "duration": 0.23645833333333144,
          "durationTicks": 227,
          "midi": 51,
          "name": "D#3",
          "ticks": 151440,
          "time": 157.75,
          "velocity": 0.8818897637795275
        },
        {
          "duration": 0.23645833333333144,
          "durationTicks": 227,
          "midi": 34,
          "name": "A#1",
          "ticks": 151680,
          "time": 158,
          "velocity": 0.8818897637795275
        },
        {
          "duration": 0.23645833333333144,
          "durationTicks": 227,
          "midi": 46,
          "name": "A#2",
          "ticks": 151680,
          "time": 158,
          "velocity": 0.8818897637795275
        },
        {
          "duration": 0.11770833333332575,
          "durationTicks": 113,
          "midi": 37,
          "name": "C#2",
          "ticks": 151920,
          "time": 158.25,
          "velocity": 0.8818897637795275
        },
        {
          "duration": 0.11770833333332575,
          "durationTicks": 113,
          "midi": 41,
          "name": "F2",
          "ticks": 152040,
          "time": 158.375,
          "velocity": 0.8818897637795275
        },
        {
          "duration": 0.23645833333333144,
          "durationTicks": 227,
          "midi": 41,
          "name": "F2",
          "ticks": 152160,
          "time": 158.5,
          "velocity": 0.8818897637795275
        },
        {
          "duration": 0.23645833333333144,
          "durationTicks": 227,
          "midi": 46,
          "name": "A#2",
          "ticks": 152160,
          "time": 158.5,
          "velocity": 0.8818897637795275
        },
        {
          "duration": 0.23645833333333144,
          "durationTicks": 227,
          "midi": 32,
          "name": "G#1",
          "ticks": 152400,
          "time": 158.75,
          "velocity": 0.8818897637795275
        },
        {
          "duration": 0.23645833333333144,
          "durationTicks": 227,
          "midi": 44,
          "name": "G#2",
          "ticks": 152400,
          "time": 158.75,
          "velocity": 0.8818897637795275
        },
        {
          "duration": 0.11770833333332575,
          "durationTicks": 113,
          "midi": 48,
          "name": "C3",
          "ticks": 152640,
          "time": 159,
          "velocity": 0.8818897637795275
        },
        {
          "duration": 0.11770833333332575,
          "durationTicks": 113,
          "midi": 51,
          "name": "D#3",
          "ticks": 152760,
          "time": 159.125,
          "velocity": 0.8818897637795275
        },
        {
          "duration": 0.23645833333333144,
          "durationTicks": 227,
          "midi": 56,
          "name": "G#3",
          "ticks": 152880,
          "time": 159.25,
          "velocity": 0.8818897637795275
        },
        {
          "duration": 0.11770833333332575,
          "durationTicks": 113,
          "midi": 51,
          "name": "D#3",
          "ticks": 153120,
          "time": 159.5,
          "velocity": 0.8818897637795275
        },
        {
          "duration": 0.11770833333332575,
          "durationTicks": 113,
          "midi": 48,
          "name": "C3",
          "ticks": 153240,
          "time": 159.625,
          "velocity": 0.8818897637795275
        },
        {
          "duration": 0.23645833333333144,
          "durationTicks": 227,
          "midi": 44,
          "name": "G#2",
          "ticks": 153360,
          "time": 159.75,
          "velocity": 0.8818897637795275
        },
        {
          "duration": 0.23645833333333144,
          "durationTicks": 227,
          "midi": 41,
          "name": "F2",
          "ticks": 153600,
          "time": 160,
          "velocity": 0.8818897637795275
        },
        {
          "duration": 0.23645833333333144,
          "durationTicks": 227,
          "midi": 53,
          "name": "F3",
          "ticks": 153600,
          "time": 160,
          "velocity": 0.8818897637795275
        },
        {
          "duration": 0.11770833333332575,
          "durationTicks": 113,
          "midi": 44,
          "name": "G#2",
          "ticks": 153840,
          "time": 160.25,
          "velocity": 0.8818897637795275
        },
        {
          "duration": 0.11770833333332575,
          "durationTicks": 113,
          "midi": 48,
          "name": "C3",
          "ticks": 153960,
          "time": 160.375,
          "velocity": 0.8818897637795275
        },
        {
          "duration": 0.23645833333333144,
          "durationTicks": 227,
          "midi": 34,
          "name": "A#1",
          "ticks": 154080,
          "time": 160.5,
          "velocity": 0.8818897637795275
        },
        {
          "duration": 0.23645833333333144,
          "durationTicks": 227,
          "midi": 46,
          "name": "A#2",
          "ticks": 154080,
          "time": 160.5,
          "velocity": 0.8818897637795275
        },
        {
          "duration": 0.11770833333332575,
          "durationTicks": 113,
          "midi": 37,
          "name": "C#2",
          "ticks": 154320,
          "time": 160.75,
          "velocity": 0.8818897637795275
        },
        {
          "duration": 0.11770833333332575,
          "durationTicks": 113,
          "midi": 41,
          "name": "F2",
          "ticks": 154440,
          "time": 160.875,
          "velocity": 0.8818897637795275
        },
        {
          "duration": 0.12395833333334849,
          "durationTicks": 119,
          "midi": 34,
          "name": "A#1",
          "ticks": 154560,
          "time": 161,
          "velocity": 1
        },
        {
          "duration": 0.12395833333334849,
          "durationTicks": 119,
          "midi": 46,
          "name": "A#2",
          "ticks": 154560,
          "time": 161,
          "velocity": 1
        },
        {
          "duration": 0.2489583333333485,
          "durationTicks": 239,
          "midi": 34,
          "name": "A#1",
          "ticks": 154680,
          "time": 161.125,
          "velocity": 1
        },
        {
          "duration": 0.2489583333333485,
          "durationTicks": 239,
          "midi": 46,
          "name": "A#2",
          "ticks": 154680,
          "time": 161.125,
          "velocity": 1
        },
        {
          "duration": 0.12395833333334849,
          "durationTicks": 119,
          "midi": 34,
          "name": "A#1",
          "ticks": 154920,
          "time": 161.375,
          "velocity": 1
        },
        {
          "duration": 0.12395833333334849,
          "durationTicks": 119,
          "midi": 46,
          "name": "A#2",
          "ticks": 154920,
          "time": 161.375,
          "velocity": 1
        },
        {
          "duration": 0.2489583333333485,
          "durationTicks": 239,
          "midi": 34,
          "name": "A#1",
          "ticks": 155040,
          "time": 161.5,
          "velocity": 1
        },
        {
          "duration": 0.2489583333333485,
          "durationTicks": 239,
          "midi": 46,
          "name": "A#2",
          "ticks": 155040,
          "time": 161.5,
          "velocity": 1
        },
        {
          "duration": 0.12395833333334849,
          "durationTicks": 119,
          "midi": 34,
          "name": "A#1",
          "ticks": 155280,
          "time": 161.75,
          "velocity": 1
        },
        {
          "duration": 0.12395833333334849,
          "durationTicks": 119,
          "midi": 46,
          "name": "A#2",
          "ticks": 155280,
          "time": 161.75,
          "velocity": 1
        },
        {
          "duration": 0.11770833333332575,
          "durationTicks": 113,
          "midi": 34,
          "name": "A#1",
          "ticks": 155400,
          "time": 161.875,
          "velocity": 0.8818897637795275
        },
        {
          "duration": 0.11770833333332575,
          "durationTicks": 113,
          "midi": 46,
          "name": "A#2",
          "ticks": 155400,
          "time": 161.875,
          "velocity": 0.8818897637795275
        },
        {
          "duration": 0.23645833333333144,
          "durationTicks": 227,
          "midi": 34,
          "name": "A#1",
          "ticks": 155520,
          "time": 162,
          "velocity": 0.8818897637795275
        },
        {
          "duration": 0.23645833333333144,
          "durationTicks": 227,
          "midi": 46,
          "name": "A#2",
          "ticks": 155520,
          "time": 162,
          "velocity": 0.8818897637795275
        },
        {
          "duration": 0.11770833333332575,
          "durationTicks": 113,
          "midi": 37,
          "name": "C#2",
          "ticks": 155760,
          "time": 162.25,
          "velocity": 0.8818897637795275
        },
        {
          "duration": 0.11770833333332575,
          "durationTicks": 113,
          "midi": 41,
          "name": "F2",
          "ticks": 155880,
          "time": 162.375,
          "velocity": 0.8818897637795275
        },
        {
          "duration": 0.23645833333333144,
          "durationTicks": 227,
          "midi": 41,
          "name": "F2",
          "ticks": 156000,
          "time": 162.5,
          "velocity": 0.8818897637795275
        },
        {
          "duration": 0.23645833333333144,
          "durationTicks": 227,
          "midi": 46,
          "name": "A#2",
          "ticks": 156000,
          "time": 162.5,
          "velocity": 0.8818897637795275
        },
        {
          "duration": 0.23645833333333144,
          "durationTicks": 227,
          "midi": 32,
          "name": "G#1",
          "ticks": 156240,
          "time": 162.75,
          "velocity": 0.8818897637795275
        },
        {
          "duration": 0.23645833333333144,
          "durationTicks": 227,
          "midi": 44,
          "name": "G#2",
          "ticks": 156240,
          "time": 162.75,
          "velocity": 0.8818897637795275
        },
        {
          "duration": 0.11770833333332575,
          "durationTicks": 113,
          "midi": 48,
          "name": "C3",
          "ticks": 156480,
          "time": 163,
          "velocity": 0.8818897637795275
        },
        {
          "duration": 0.11770833333332575,
          "durationTicks": 113,
          "midi": 51,
          "name": "D#3",
          "ticks": 156600,
          "time": 163.125,
          "velocity": 0.8818897637795275
        },
        {
          "duration": 0.23645833333333144,
          "durationTicks": 227,
          "midi": 56,
          "name": "G#3",
          "ticks": 156720,
          "time": 163.25,
          "velocity": 0.8818897637795275
        },
        {
          "duration": 0.11770833333332575,
          "durationTicks": 113,
          "midi": 51,
          "name": "D#3",
          "ticks": 156960,
          "time": 163.5,
          "velocity": 0.8818897637795275
        },
        {
          "duration": 0.11770833333332575,
          "durationTicks": 113,
          "midi": 48,
          "name": "C3",
          "ticks": 157080,
          "time": 163.625,
          "velocity": 0.8818897637795275
        },
        {
          "duration": 0.23645833333333144,
          "durationTicks": 227,
          "midi": 44,
          "name": "G#2",
          "ticks": 157200,
          "time": 163.75,
          "velocity": 0.8818897637795275
        },
        {
          "duration": 0.23645833333333144,
          "durationTicks": 227,
          "midi": 41,
          "name": "F2",
          "ticks": 157440,
          "time": 164,
          "velocity": 0.8818897637795275
        },
        {
          "duration": 0.23645833333333144,
          "durationTicks": 227,
          "midi": 53,
          "name": "F3",
          "ticks": 157440,
          "time": 164,
          "velocity": 0.8818897637795275
        },
        {
          "duration": 0.11770833333332575,
          "durationTicks": 113,
          "midi": 44,
          "name": "G#2",
          "ticks": 157680,
          "time": 164.25,
          "velocity": 0.8818897637795275
        },
        {
          "duration": 0.11770833333332575,
          "durationTicks": 113,
          "midi": 48,
          "name": "C3",
          "ticks": 157800,
          "time": 164.375,
          "velocity": 0.8818897637795275
        },
        {
          "duration": 0.23645833333333144,
          "durationTicks": 227,
          "midi": 51,
          "name": "D#3",
          "ticks": 157920,
          "time": 164.5,
          "velocity": 0.8818897637795275
        },
        {
          "duration": 0.23645833333333144,
          "durationTicks": 227,
          "midi": 53,
          "name": "F3",
          "ticks": 157920,
          "time": 164.5,
          "velocity": 0.8818897637795275
        },
        {
          "duration": 0.23645833333333144,
          "durationTicks": 227,
          "midi": 34,
          "name": "A#1",
          "ticks": 158160,
          "time": 164.75,
          "velocity": 0.8818897637795275
        },
        {
          "duration": 0.23645833333333144,
          "durationTicks": 227,
          "midi": 46,
          "name": "A#2",
          "ticks": 158160,
          "time": 164.75,
          "velocity": 0.8818897637795275
        },
        {
          "duration": 0.11770833333332575,
          "durationTicks": 113,
          "midi": 49,
          "name": "C#3",
          "ticks": 158400,
          "time": 165,
          "velocity": 0.8818897637795275
        },
        {
          "duration": 0.11770833333332575,
          "durationTicks": 113,
          "midi": 53,
          "name": "F3",
          "ticks": 158520,
          "time": 165.125,
          "velocity": 0.8818897637795275
        },
        {
          "duration": 0.23645833333333144,
          "durationTicks": 227,
          "midi": 58,
          "name": "A#3",
          "ticks": 158640,
          "time": 165.25,
          "velocity": 0.8818897637795275
        },
        {
          "duration": 0.11770833333332575,
          "durationTicks": 113,
          "midi": 56,
          "name": "G#3",
          "ticks": 158880,
          "time": 165.5,
          "velocity": 0.8818897637795275
        },
        {
          "duration": 0.11770833333332575,
          "durationTicks": 113,
          "midi": 54,
          "name": "F#3",
          "ticks": 159000,
          "time": 165.625,
          "velocity": 0.8818897637795275
        },
        {
          "duration": 0.23645833333333144,
          "durationTicks": 227,
          "midi": 51,
          "name": "D#3",
          "ticks": 159120,
          "time": 165.75,
          "velocity": 0.8818897637795275
        },
        {
          "duration": 0.23645833333333144,
          "durationTicks": 227,
          "midi": 34,
          "name": "A#1",
          "ticks": 159360,
          "time": 166,
          "velocity": 0.8818897637795275
        },
        {
          "duration": 0.23645833333333144,
          "durationTicks": 227,
          "midi": 46,
          "name": "A#2",
          "ticks": 159360,
          "time": 166,
          "velocity": 0.8818897637795275
        },
        {
          "duration": 0.11770833333332575,
          "durationTicks": 113,
          "midi": 37,
          "name": "C#2",
          "ticks": 159600,
          "time": 166.25,
          "velocity": 0.8818897637795275
        },
        {
          "duration": 0.11770833333332575,
          "durationTicks": 113,
          "midi": 41,
          "name": "F2",
          "ticks": 159720,
          "time": 166.375,
          "velocity": 0.8818897637795275
        },
        {
          "duration": 0.23645833333333144,
          "durationTicks": 227,
          "midi": 41,
          "name": "F2",
          "ticks": 159840,
          "time": 166.5,
          "velocity": 0.8818897637795275
        },
        {
          "duration": 0.23645833333333144,
          "durationTicks": 227,
          "midi": 46,
          "name": "A#2",
          "ticks": 159840,
          "time": 166.5,
          "velocity": 0.8818897637795275
        },
        {
          "duration": 0.23645833333333144,
          "durationTicks": 227,
          "midi": 32,
          "name": "G#1",
          "ticks": 160080,
          "time": 166.75,
          "velocity": 0.8818897637795275
        },
        {
          "duration": 0.23645833333333144,
          "durationTicks": 227,
          "midi": 44,
          "name": "G#2",
          "ticks": 160080,
          "time": 166.75,
          "velocity": 0.8818897637795275
        },
        {
          "duration": 0.11770833333332575,
          "durationTicks": 113,
          "midi": 48,
          "name": "C3",
          "ticks": 160320,
          "time": 167,
          "velocity": 0.8818897637795275
        },
        {
          "duration": 0.11770833333332575,
          "durationTicks": 113,
          "midi": 51,
          "name": "D#3",
          "ticks": 160440,
          "time": 167.125,
          "velocity": 0.8818897637795275
        },
        {
          "duration": 0.23645833333333144,
          "durationTicks": 227,
          "midi": 56,
          "name": "G#3",
          "ticks": 160560,
          "time": 167.25,
          "velocity": 0.8818897637795275
        },
        {
          "duration": 0.11770833333332575,
          "durationTicks": 113,
          "midi": 51,
          "name": "D#3",
          "ticks": 160800,
          "time": 167.5,
          "velocity": 0.8818897637795275
        },
        {
          "duration": 0.11770833333332575,
          "durationTicks": 113,
          "midi": 48,
          "name": "C3",
          "ticks": 160920,
          "time": 167.625,
          "velocity": 0.8818897637795275
        },
        {
          "duration": 0.23645833333333144,
          "durationTicks": 227,
          "midi": 44,
          "name": "G#2",
          "ticks": 161040,
          "time": 167.75,
          "velocity": 0.8818897637795275
        },
        {
          "duration": 0.23645833333333144,
          "durationTicks": 227,
          "midi": 41,
          "name": "F2",
          "ticks": 161280,
          "time": 168,
          "velocity": 0.8818897637795275
        },
        {
          "duration": 0.23645833333333144,
          "durationTicks": 227,
          "midi": 53,
          "name": "F3",
          "ticks": 161280,
          "time": 168,
          "velocity": 0.8818897637795275
        },
        {
          "duration": 0.11770833333332575,
          "durationTicks": 113,
          "midi": 44,
          "name": "G#2",
          "ticks": 161520,
          "time": 168.25,
          "velocity": 0.8818897637795275
        },
        {
          "duration": 0.11770833333332575,
          "durationTicks": 113,
          "midi": 48,
          "name": "C3",
          "ticks": 161640,
          "time": 168.375,
          "velocity": 0.8818897637795275
        },
        {
          "duration": 0.23645833333333144,
          "durationTicks": 227,
          "midi": 34,
          "name": "A#1",
          "ticks": 161760,
          "time": 168.5,
          "velocity": 0.8818897637795275
        },
        {
          "duration": 0.23645833333333144,
          "durationTicks": 227,
          "midi": 46,
          "name": "A#2",
          "ticks": 161760,
          "time": 168.5,
          "velocity": 0.8818897637795275
        },
        {
          "duration": 0.11770833333332575,
          "durationTicks": 113,
          "midi": 37,
          "name": "C#2",
          "ticks": 162000,
          "time": 168.75,
          "velocity": 0.8818897637795275
        },
        {
          "duration": 0.11770833333332575,
          "durationTicks": 113,
          "midi": 41,
          "name": "F2",
          "ticks": 162120,
          "time": 168.875,
          "velocity": 0.8818897637795275
        },
        {
          "duration": 0.12395833333334849,
          "durationTicks": 119,
          "midi": 34,
          "name": "A#1",
          "ticks": 162240,
          "time": 169,
          "velocity": 1
        },
        {
          "duration": 0.12395833333334849,
          "durationTicks": 119,
          "midi": 46,
          "name": "A#2",
          "ticks": 162240,
          "time": 169,
          "velocity": 1
        },
        {
          "duration": 0.2489583333333485,
          "durationTicks": 239,
          "midi": 34,
          "name": "A#1",
          "ticks": 162360,
          "time": 169.125,
          "velocity": 1
        },
        {
          "duration": 0.2489583333333485,
          "durationTicks": 239,
          "midi": 46,
          "name": "A#2",
          "ticks": 162360,
          "time": 169.125,
          "velocity": 1
        },
        {
          "duration": 0.12395833333334849,
          "durationTicks": 119,
          "midi": 34,
          "name": "A#1",
          "ticks": 162600,
          "time": 169.375,
          "velocity": 1
        },
        {
          "duration": 0.12395833333334849,
          "durationTicks": 119,
          "midi": 46,
          "name": "A#2",
          "ticks": 162600,
          "time": 169.375,
          "velocity": 1
        },
        {
          "duration": 0.2489583333333485,
          "durationTicks": 239,
          "midi": 34,
          "name": "A#1",
          "ticks": 162720,
          "time": 169.5,
          "velocity": 1
        },
        {
          "duration": 0.2489583333333485,
          "durationTicks": 239,
          "midi": 46,
          "name": "A#2",
          "ticks": 162720,
          "time": 169.5,
          "velocity": 1
        },
        {
          "duration": 0.12395833333334849,
          "durationTicks": 119,
          "midi": 34,
          "name": "A#1",
          "ticks": 162960,
          "time": 169.75,
          "velocity": 1
        },
        {
          "duration": 0.12395833333334849,
          "durationTicks": 119,
          "midi": 46,
          "name": "A#2",
          "ticks": 162960,
          "time": 169.75,
          "velocity": 1
        },
        {
          "duration": 0.11770833333332575,
          "durationTicks": 113,
          "midi": 34,
          "name": "A#1",
          "ticks": 163080,
          "time": 169.875,
          "velocity": 0.8818897637795275
        },
        {
          "duration": 0.11770833333332575,
          "durationTicks": 113,
          "midi": 46,
          "name": "A#2",
          "ticks": 163080,
          "time": 169.875,
          "velocity": 0.8818897637795275
        },
        {
          "duration": 0.23645833333333144,
          "durationTicks": 227,
          "midi": 34,
          "name": "A#1",
          "ticks": 163200,
          "time": 170,
          "velocity": 0.8818897637795275
        },
        {
          "duration": 0.23645833333333144,
          "durationTicks": 227,
          "midi": 46,
          "name": "A#2",
          "ticks": 163200,
          "time": 170,
          "velocity": 0.8818897637795275
        },
        {
          "duration": 0.11770833333332575,
          "durationTicks": 113,
          "midi": 37,
          "name": "C#2",
          "ticks": 163440,
          "time": 170.25,
          "velocity": 0.8818897637795275
        },
        {
          "duration": 0.11770833333332575,
          "durationTicks": 113,
          "midi": 41,
          "name": "F2",
          "ticks": 163560,
          "time": 170.375,
          "velocity": 0.8818897637795275
        },
        {
          "duration": 0.23645833333333144,
          "durationTicks": 227,
          "midi": 41,
          "name": "F2",
          "ticks": 163680,
          "time": 170.5,
          "velocity": 0.8818897637795275
        },
        {
          "duration": 0.23645833333333144,
          "durationTicks": 227,
          "midi": 46,
          "name": "A#2",
          "ticks": 163680,
          "time": 170.5,
          "velocity": 0.8818897637795275
        },
        {
          "duration": 0.23645833333333144,
          "durationTicks": 227,
          "midi": 32,
          "name": "G#1",
          "ticks": 163920,
          "time": 170.75,
          "velocity": 0.8818897637795275
        },
        {
          "duration": 0.23645833333333144,
          "durationTicks": 227,
          "midi": 44,
          "name": "G#2",
          "ticks": 163920,
          "time": 170.75,
          "velocity": 0.8818897637795275
        },
        {
          "duration": 0.11770833333332575,
          "durationTicks": 113,
          "midi": 48,
          "name": "C3",
          "ticks": 164160,
          "time": 171,
          "velocity": 0.8818897637795275
        },
        {
          "duration": 0.11770833333332575,
          "durationTicks": 113,
          "midi": 51,
          "name": "D#3",
          "ticks": 164280,
          "time": 171.125,
          "velocity": 0.8818897637795275
        },
        {
          "duration": 0.23645833333333144,
          "durationTicks": 227,
          "midi": 56,
          "name": "G#3",
          "ticks": 164400,
          "time": 171.25,
          "velocity": 0.8818897637795275
        },
        {
          "duration": 0.11770833333332575,
          "durationTicks": 113,
          "midi": 51,
          "name": "D#3",
          "ticks": 164640,
          "time": 171.5,
          "velocity": 0.8818897637795275
        },
        {
          "duration": 0.11770833333332575,
          "durationTicks": 113,
          "midi": 48,
          "name": "C3",
          "ticks": 164760,
          "time": 171.625,
          "velocity": 0.8818897637795275
        },
        {
          "duration": 0.23645833333333144,
          "durationTicks": 227,
          "midi": 44,
          "name": "G#2",
          "ticks": 164880,
          "time": 171.75,
          "velocity": 0.8818897637795275
        },
        {
          "duration": 0.23645833333333144,
          "durationTicks": 227,
          "midi": 41,
          "name": "F2",
          "ticks": 165120,
          "time": 172,
          "velocity": 0.8818897637795275
        },
        {
          "duration": 0.23645833333333144,
          "durationTicks": 227,
          "midi": 53,
          "name": "F3",
          "ticks": 165120,
          "time": 172,
          "velocity": 0.8818897637795275
        },
        {
          "duration": 0.11770833333332575,
          "durationTicks": 113,
          "midi": 44,
          "name": "G#2",
          "ticks": 165360,
          "time": 172.25,
          "velocity": 0.8818897637795275
        },
        {
          "duration": 0.11770833333332575,
          "durationTicks": 113,
          "midi": 48,
          "name": "C3",
          "ticks": 165480,
          "time": 172.375,
          "velocity": 0.8818897637795275
        },
        {
          "duration": 0.23645833333333144,
          "durationTicks": 227,
          "midi": 51,
          "name": "D#3",
          "ticks": 165600,
          "time": 172.5,
          "velocity": 0.8818897637795275
        },
        {
          "duration": 0.23645833333333144,
          "durationTicks": 227,
          "midi": 53,
          "name": "F3",
          "ticks": 165600,
          "time": 172.5,
          "velocity": 0.8818897637795275
        },
        {
          "duration": 0.23645833333333144,
          "durationTicks": 227,
          "midi": 34,
          "name": "A#1",
          "ticks": 165840,
          "time": 172.75,
          "velocity": 0.8818897637795275
        },
        {
          "duration": 0.23645833333333144,
          "durationTicks": 227,
          "midi": 46,
          "name": "A#2",
          "ticks": 165840,
          "time": 172.75,
          "velocity": 0.8818897637795275
        },
        {
          "duration": 0.11770833333332575,
          "durationTicks": 113,
          "midi": 49,
          "name": "C#3",
          "ticks": 166080,
          "time": 173,
          "velocity": 0.8818897637795275
        },
        {
          "duration": 0.11770833333332575,
          "durationTicks": 113,
          "midi": 53,
          "name": "F3",
          "ticks": 166200,
          "time": 173.125,
          "velocity": 0.8818897637795275
        },
        {
          "duration": 0.23645833333333144,
          "durationTicks": 227,
          "midi": 58,
          "name": "A#3",
          "ticks": 166320,
          "time": 173.25,
          "velocity": 0.8818897637795275
        },
        {
          "duration": 0.11770833333332575,
          "durationTicks": 113,
          "midi": 56,
          "name": "G#3",
          "ticks": 166560,
          "time": 173.5,
          "velocity": 0.8818897637795275
        },
        {
          "duration": 0.11770833333332575,
          "durationTicks": 113,
          "midi": 54,
          "name": "F#3",
          "ticks": 166680,
          "time": 173.625,
          "velocity": 0.8818897637795275
        },
        {
          "duration": 0.23645833333333144,
          "durationTicks": 227,
          "midi": 51,
          "name": "D#3",
          "ticks": 166800,
          "time": 173.75,
          "velocity": 0.8818897637795275
        },
        {
          "duration": 0.23645833333333144,
          "durationTicks": 227,
          "midi": 34,
          "name": "A#1",
          "ticks": 167040,
          "time": 174,
          "velocity": 0.8818897637795275
        },
        {
          "duration": 0.23645833333333144,
          "durationTicks": 227,
          "midi": 46,
          "name": "A#2",
          "ticks": 167040,
          "time": 174,
          "velocity": 0.8818897637795275
        },
        {
          "duration": 0.11770833333332575,
          "durationTicks": 113,
          "midi": 37,
          "name": "C#2",
          "ticks": 167280,
          "time": 174.25,
          "velocity": 0.8818897637795275
        },
        {
          "duration": 0.11770833333332575,
          "durationTicks": 113,
          "midi": 41,
          "name": "F2",
          "ticks": 167400,
          "time": 174.375,
          "velocity": 0.8818897637795275
        },
        {
          "duration": 0.23645833333333144,
          "durationTicks": 227,
          "midi": 41,
          "name": "F2",
          "ticks": 167520,
          "time": 174.5,
          "velocity": 0.8818897637795275
        },
        {
          "duration": 0.23645833333333144,
          "durationTicks": 227,
          "midi": 46,
          "name": "A#2",
          "ticks": 167520,
          "time": 174.5,
          "velocity": 0.8818897637795275
        },
        {
          "duration": 0.23645833333333144,
          "durationTicks": 227,
          "midi": 32,
          "name": "G#1",
          "ticks": 167760,
          "time": 174.75,
          "velocity": 0.8818897637795275
        },
        {
          "duration": 0.23645833333333144,
          "durationTicks": 227,
          "midi": 44,
          "name": "G#2",
          "ticks": 167760,
          "time": 174.75,
          "velocity": 0.8818897637795275
        },
        {
          "duration": 0.11770833333332575,
          "durationTicks": 113,
          "midi": 48,
          "name": "C3",
          "ticks": 168000,
          "time": 175,
          "velocity": 0.8818897637795275
        },
        {
          "duration": 0.11770833333332575,
          "durationTicks": 113,
          "midi": 51,
          "name": "D#3",
          "ticks": 168120,
          "time": 175.125,
          "velocity": 0.8818897637795275
        },
        {
          "duration": 0.23645833333333144,
          "durationTicks": 227,
          "midi": 56,
          "name": "G#3",
          "ticks": 168240,
          "time": 175.25,
          "velocity": 0.8818897637795275
        },
        {
          "duration": 0.11770833333332575,
          "durationTicks": 113,
          "midi": 51,
          "name": "D#3",
          "ticks": 168480,
          "time": 175.5,
          "velocity": 0.8818897637795275
        },
        {
          "duration": 0.11770833333332575,
          "durationTicks": 113,
          "midi": 48,
          "name": "C3",
          "ticks": 168600,
          "time": 175.625,
          "velocity": 0.8818897637795275
        },
        {
          "duration": 0.23645833333333144,
          "durationTicks": 227,
          "midi": 44,
          "name": "G#2",
          "ticks": 168720,
          "time": 175.75,
          "velocity": 0.8818897637795275
        },
        {
          "duration": 0.23645833333333144,
          "durationTicks": 227,
          "midi": 41,
          "name": "F2",
          "ticks": 168960,
          "time": 176,
          "velocity": 0.8818897637795275
        },
        {
          "duration": 0.23645833333333144,
          "durationTicks": 227,
          "midi": 53,
          "name": "F3",
          "ticks": 168960,
          "time": 176,
          "velocity": 0.8818897637795275
        },
        {
          "duration": 0.11770833333332575,
          "durationTicks": 113,
          "midi": 44,
          "name": "G#2",
          "ticks": 169200,
          "time": 176.25,
          "velocity": 0.8818897637795275
        },
        {
          "duration": 0.11770833333332575,
          "durationTicks": 113,
          "midi": 48,
          "name": "C3",
          "ticks": 169320,
          "time": 176.375,
          "velocity": 0.8818897637795275
        },
        {
          "duration": 0.23645833333333144,
          "durationTicks": 227,
          "midi": 34,
          "name": "A#1",
          "ticks": 169440,
          "time": 176.5,
          "velocity": 0.8818897637795275
        },
        {
          "duration": 0.23645833333333144,
          "durationTicks": 227,
          "midi": 46,
          "name": "A#2",
          "ticks": 169440,
          "time": 176.5,
          "velocity": 0.8818897637795275
        },
        {
          "duration": 0.11770833333332575,
          "durationTicks": 113,
          "midi": 37,
          "name": "C#2",
          "ticks": 169680,
          "time": 176.75,
          "velocity": 0.8818897637795275
        },
        {
          "duration": 0.11770833333332575,
          "durationTicks": 113,
          "midi": 41,
          "name": "F2",
          "ticks": 169800,
          "time": 176.875,
          "velocity": 0.8818897637795275
        },
        {
          "duration": 0.12395833333334849,
          "durationTicks": 119,
          "midi": 34,
          "name": "A#1",
          "ticks": 169920,
          "time": 177,
          "velocity": 1
        },
        {
          "duration": 0.12395833333334849,
          "durationTicks": 119,
          "midi": 46,
          "name": "A#2",
          "ticks": 169920,
          "time": 177,
          "velocity": 1
        },
        {
          "duration": 0.2489583333333485,
          "durationTicks": 239,
          "midi": 34,
          "name": "A#1",
          "ticks": 170040,
          "time": 177.125,
          "velocity": 1
        },
        {
          "duration": 0.2489583333333485,
          "durationTicks": 239,
          "midi": 46,
          "name": "A#2",
          "ticks": 170040,
          "time": 177.125,
          "velocity": 1
        },
        {
          "duration": 0.12395833333334849,
          "durationTicks": 119,
          "midi": 34,
          "name": "A#1",
          "ticks": 170280,
          "time": 177.375,
          "velocity": 1
        },
        {
          "duration": 0.12395833333334849,
          "durationTicks": 119,
          "midi": 46,
          "name": "A#2",
          "ticks": 170280,
          "time": 177.375,
          "velocity": 1
        },
        {
          "duration": 0.2489583333333485,
          "durationTicks": 239,
          "midi": 34,
          "name": "A#1",
          "ticks": 170400,
          "time": 177.5,
          "velocity": 1
        },
        {
          "duration": 0.2489583333333485,
          "durationTicks": 239,
          "midi": 46,
          "name": "A#2",
          "ticks": 170400,
          "time": 177.5,
          "velocity": 1
        },
        {
          "duration": 0.12395833333334849,
          "durationTicks": 119,
          "midi": 34,
          "name": "A#1",
          "ticks": 170640,
          "time": 177.75,
          "velocity": 1
        },
        {
          "duration": 0.12395833333334849,
          "durationTicks": 119,
          "midi": 46,
          "name": "A#2",
          "ticks": 170640,
          "time": 177.75,
          "velocity": 1
        },
        {
          "duration": 0.11770833333332575,
          "durationTicks": 113,
          "midi": 34,
          "name": "A#1",
          "ticks": 170760,
          "time": 177.875,
          "velocity": 0.8818897637795275
        },
        {
          "duration": 0.11770833333332575,
          "durationTicks": 113,
          "midi": 46,
          "name": "A#2",
          "ticks": 170760,
          "time": 177.875,
          "velocity": 0.8818897637795275
        },
        {
          "duration": 0.23645833333333144,
          "durationTicks": 227,
          "midi": 34,
          "name": "A#1",
          "ticks": 170880,
          "time": 178,
          "velocity": 0.8818897637795275
        },
        {
          "duration": 0.23645833333333144,
          "durationTicks": 227,
          "midi": 46,
          "name": "A#2",
          "ticks": 170880,
          "time": 178,
          "velocity": 0.8818897637795275
        },
        {
          "duration": 0.11770833333332575,
          "durationTicks": 113,
          "midi": 37,
          "name": "C#2",
          "ticks": 171120,
          "time": 178.25,
          "velocity": 0.8818897637795275
        },
        {
          "duration": 0.11770833333332575,
          "durationTicks": 113,
          "midi": 41,
          "name": "F2",
          "ticks": 171240,
          "time": 178.375,
          "velocity": 0.8818897637795275
        },
        {
          "duration": 0.23645833333333144,
          "durationTicks": 227,
          "midi": 41,
          "name": "F2",
          "ticks": 171360,
          "time": 178.5,
          "velocity": 0.8818897637795275
        },
        {
          "duration": 0.23645833333333144,
          "durationTicks": 227,
          "midi": 46,
          "name": "A#2",
          "ticks": 171360,
          "time": 178.5,
          "velocity": 0.8818897637795275
        },
        {
          "duration": 0.23645833333333144,
          "durationTicks": 227,
          "midi": 32,
          "name": "G#1",
          "ticks": 171600,
          "time": 178.75,
          "velocity": 0.8818897637795275
        },
        {
          "duration": 0.23645833333333144,
          "durationTicks": 227,
          "midi": 44,
          "name": "G#2",
          "ticks": 171600,
          "time": 178.75,
          "velocity": 0.8818897637795275
        },
        {
          "duration": 0.11770833333332575,
          "durationTicks": 113,
          "midi": 48,
          "name": "C3",
          "ticks": 171840,
          "time": 179,
          "velocity": 0.8818897637795275
        },
        {
          "duration": 0.11770833333332575,
          "durationTicks": 113,
          "midi": 51,
          "name": "D#3",
          "ticks": 171960,
          "time": 179.125,
          "velocity": 0.8818897637795275
        },
        {
          "duration": 0.23645833333333144,
          "durationTicks": 227,
          "midi": 56,
          "name": "G#3",
          "ticks": 172080,
          "time": 179.25,
          "velocity": 0.8818897637795275
        },
        {
          "duration": 0.11770833333332575,
          "durationTicks": 113,
          "midi": 51,
          "name": "D#3",
          "ticks": 172320,
          "time": 179.5,
          "velocity": 0.8818897637795275
        },
        {
          "duration": 0.11770833333332575,
          "durationTicks": 113,
          "midi": 48,
          "name": "C3",
          "ticks": 172440,
          "time": 179.625,
          "velocity": 0.8818897637795275
        },
        {
          "duration": 0.23645833333333144,
          "durationTicks": 227,
          "midi": 44,
          "name": "G#2",
          "ticks": 172560,
          "time": 179.75,
          "velocity": 0.8818897637795275
        },
        {
          "duration": 0.23645833333333144,
          "durationTicks": 227,
          "midi": 41,
          "name": "F2",
          "ticks": 172800,
          "time": 180,
          "velocity": 0.8818897637795275
        },
        {
          "duration": 0.23645833333333144,
          "durationTicks": 227,
          "midi": 53,
          "name": "F3",
          "ticks": 172800,
          "time": 180,
          "velocity": 0.8818897637795275
        },
        {
          "duration": 0.11770833333332575,
          "durationTicks": 113,
          "midi": 44,
          "name": "G#2",
          "ticks": 173040,
          "time": 180.25,
          "velocity": 0.8818897637795275
        },
        {
          "duration": 0.11770833333332575,
          "durationTicks": 113,
          "midi": 48,
          "name": "C3",
          "ticks": 173160,
          "time": 180.375,
          "velocity": 0.8818897637795275
        },
        {
          "duration": 0.23645833333333144,
          "durationTicks": 227,
          "midi": 51,
          "name": "D#3",
          "ticks": 173280,
          "time": 180.5,
          "velocity": 0.8818897637795275
        },
        {
          "duration": 0.23645833333333144,
          "durationTicks": 227,
          "midi": 53,
          "name": "F3",
          "ticks": 173280,
          "time": 180.5,
          "velocity": 0.8818897637795275
        },
        {
          "duration": 0.23645833333333144,
          "durationTicks": 227,
          "midi": 34,
          "name": "A#1",
          "ticks": 173520,
          "time": 180.75,
          "velocity": 0.8818897637795275
        },
        {
          "duration": 0.23645833333333144,
          "durationTicks": 227,
          "midi": 46,
          "name": "A#2",
          "ticks": 173520,
          "time": 180.75,
          "velocity": 0.8818897637795275
        },
        {
          "duration": 0.11770833333332575,
          "durationTicks": 113,
          "midi": 49,
          "name": "C#3",
          "ticks": 173760,
          "time": 181,
          "velocity": 0.8818897637795275
        },
        {
          "duration": 0.11770833333332575,
          "durationTicks": 113,
          "midi": 53,
          "name": "F3",
          "ticks": 173880,
          "time": 181.125,
          "velocity": 0.8818897637795275
        },
        {
          "duration": 0.23645833333333144,
          "durationTicks": 227,
          "midi": 58,
          "name": "A#3",
          "ticks": 174000,
          "time": 181.25,
          "velocity": 0.8818897637795275
        },
        {
          "duration": 0.11770833333332575,
          "durationTicks": 113,
          "midi": 56,
          "name": "G#3",
          "ticks": 174240,
          "time": 181.5,
          "velocity": 0.8818897637795275
        },
        {
          "duration": 0.11770833333332575,
          "durationTicks": 113,
          "midi": 54,
          "name": "F#3",
          "ticks": 174360,
          "time": 181.625,
          "velocity": 0.8818897637795275
        },
        {
          "duration": 0.23645833333333144,
          "durationTicks": 227,
          "midi": 51,
          "name": "D#3",
          "ticks": 174480,
          "time": 181.75,
          "velocity": 0.8818897637795275
        },
        {
          "duration": 0.23645833333333144,
          "durationTicks": 227,
          "midi": 34,
          "name": "A#1",
          "ticks": 174720,
          "time": 182,
          "velocity": 0.8818897637795275
        },
        {
          "duration": 0.23645833333333144,
          "durationTicks": 227,
          "midi": 46,
          "name": "A#2",
          "ticks": 174720,
          "time": 182,
          "velocity": 0.8818897637795275
        },
        {
          "duration": 0.11770833333332575,
          "durationTicks": 113,
          "midi": 37,
          "name": "C#2",
          "ticks": 174960,
          "time": 182.25,
          "velocity": 0.8818897637795275
        },
        {
          "duration": 0.11770833333332575,
          "durationTicks": 113,
          "midi": 41,
          "name": "F2",
          "ticks": 175080,
          "time": 182.375,
          "velocity": 0.8818897637795275
        },
        {
          "duration": 0.23645833333333144,
          "durationTicks": 227,
          "midi": 41,
          "name": "F2",
          "ticks": 175200,
          "time": 182.5,
          "velocity": 0.8818897637795275
        },
        {
          "duration": 0.23645833333333144,
          "durationTicks": 227,
          "midi": 46,
          "name": "A#2",
          "ticks": 175200,
          "time": 182.5,
          "velocity": 0.8818897637795275
        },
        {
          "duration": 0.23645833333333144,
          "durationTicks": 227,
          "midi": 32,
          "name": "G#1",
          "ticks": 175440,
          "time": 182.75,
          "velocity": 0.8818897637795275
        },
        {
          "duration": 0.23645833333333144,
          "durationTicks": 227,
          "midi": 44,
          "name": "G#2",
          "ticks": 175440,
          "time": 182.75,
          "velocity": 0.8818897637795275
        },
        {
          "duration": 0.11770833333332575,
          "durationTicks": 113,
          "midi": 48,
          "name": "C3",
          "ticks": 175680,
          "time": 183,
          "velocity": 0.8818897637795275
        },
        {
          "duration": 0.11770833333332575,
          "durationTicks": 113,
          "midi": 51,
          "name": "D#3",
          "ticks": 175800,
          "time": 183.125,
          "velocity": 0.8818897637795275
        },
        {
          "duration": 0.23645833333333144,
          "durationTicks": 227,
          "midi": 56,
          "name": "G#3",
          "ticks": 175920,
          "time": 183.25,
          "velocity": 0.8818897637795275
        },
        {
          "duration": 0.11770833333332575,
          "durationTicks": 113,
          "midi": 51,
          "name": "D#3",
          "ticks": 176160,
          "time": 183.5,
          "velocity": 0.8818897637795275
        },
        {
          "duration": 0.11770833333332575,
          "durationTicks": 113,
          "midi": 48,
          "name": "C3",
          "ticks": 176280,
          "time": 183.625,
          "velocity": 0.8818897637795275
        },
        {
          "duration": 0.23645833333333144,
          "durationTicks": 227,
          "midi": 44,
          "name": "G#2",
          "ticks": 176400,
          "time": 183.75,
          "velocity": 0.8818897637795275
        },
        {
          "duration": 0.23645833333333144,
          "durationTicks": 227,
          "midi": 41,
          "name": "F2",
          "ticks": 176640,
          "time": 184,
          "velocity": 0.8818897637795275
        },
        {
          "duration": 0.23645833333333144,
          "durationTicks": 227,
          "midi": 53,
          "name": "F3",
          "ticks": 176640,
          "time": 184,
          "velocity": 0.8818897637795275
        },
        {
          "duration": 0.11770833333332575,
          "durationTicks": 113,
          "midi": 44,
          "name": "G#2",
          "ticks": 176880,
          "time": 184.25,
          "velocity": 0.8818897637795275
        },
        {
          "duration": 0.11770833333332575,
          "durationTicks": 113,
          "midi": 48,
          "name": "C3",
          "ticks": 177000,
          "time": 184.375,
          "velocity": 0.8818897637795275
        },
        {
          "duration": 0.23645833333333144,
          "durationTicks": 227,
          "midi": 34,
          "name": "A#1",
          "ticks": 177120,
          "time": 184.5,
          "velocity": 0.8818897637795275
        },
        {
          "duration": 0.23645833333333144,
          "durationTicks": 227,
          "midi": 46,
          "name": "A#2",
          "ticks": 177120,
          "time": 184.5,
          "velocity": 0.8818897637795275
        },
        {
          "duration": 0.11770833333332575,
          "durationTicks": 113,
          "midi": 37,
          "name": "C#2",
          "ticks": 177360,
          "time": 184.75,
          "velocity": 0.8818897637795275
        },
        {
          "duration": 0.11770833333332575,
          "durationTicks": 113,
          "midi": 41,
          "name": "F2",
          "ticks": 177480,
          "time": 184.875,
          "velocity": 0.8818897637795275
        },
        {
          "duration": 0.12395833333334849,
          "durationTicks": 119,
          "midi": 34,
          "name": "A#1",
          "ticks": 177600,
          "time": 185,
          "velocity": 1
        },
        {
          "duration": 0.12395833333334849,
          "durationTicks": 119,
          "midi": 46,
          "name": "A#2",
          "ticks": 177600,
          "time": 185,
          "velocity": 1
        },
        {
          "duration": 0.2489583333333485,
          "durationTicks": 239,
          "midi": 34,
          "name": "A#1",
          "ticks": 177720,
          "time": 185.125,
          "velocity": 1
        },
        {
          "duration": 0.2489583333333485,
          "durationTicks": 239,
          "midi": 46,
          "name": "A#2",
          "ticks": 177720,
          "time": 185.125,
          "velocity": 1
        },
        {
          "duration": 0.12395833333334849,
          "durationTicks": 119,
          "midi": 34,
          "name": "A#1",
          "ticks": 177960,
          "time": 185.375,
          "velocity": 1
        },
        {
          "duration": 0.12395833333334849,
          "durationTicks": 119,
          "midi": 46,
          "name": "A#2",
          "ticks": 177960,
          "time": 185.375,
          "velocity": 1
        },
        {
          "duration": 0.2489583333333485,
          "durationTicks": 239,
          "midi": 34,
          "name": "A#1",
          "ticks": 178080,
          "time": 185.5,
          "velocity": 1
        },
        {
          "duration": 0.2489583333333485,
          "durationTicks": 239,
          "midi": 46,
          "name": "A#2",
          "ticks": 178080,
          "time": 185.5,
          "velocity": 1
        },
        {
          "duration": 0.12395833333334849,
          "durationTicks": 119,
          "midi": 34,
          "name": "A#1",
          "ticks": 178320,
          "time": 185.75,
          "velocity": 1
        },
        {
          "duration": 0.12395833333334849,
          "durationTicks": 119,
          "midi": 46,
          "name": "A#2",
          "ticks": 178320,
          "time": 185.75,
          "velocity": 1
        },
        {
          "duration": 0.11770833333332575,
          "durationTicks": 113,
          "midi": 34,
          "name": "A#1",
          "ticks": 178440,
          "time": 185.875,
          "velocity": 0.8818897637795275
        },
        {
          "duration": 0.11770833333332575,
          "durationTicks": 113,
          "midi": 46,
          "name": "A#2",
          "ticks": 178440,
          "time": 185.875,
          "velocity": 0.8818897637795275
        },
        {
          "duration": 0.23645833333333144,
          "durationTicks": 227,
          "midi": 34,
          "name": "A#1",
          "ticks": 178560,
          "time": 186,
          "velocity": 0.8818897637795275
        },
        {
          "duration": 0.23645833333333144,
          "durationTicks": 227,
          "midi": 46,
          "name": "A#2",
          "ticks": 178560,
          "time": 186,
          "velocity": 0.8818897637795275
        },
        {
          "duration": 0.11770833333332575,
          "durationTicks": 113,
          "midi": 37,
          "name": "C#2",
          "ticks": 178800,
          "time": 186.25,
          "velocity": 0.8818897637795275
        },
        {
          "duration": 0.11770833333332575,
          "durationTicks": 113,
          "midi": 41,
          "name": "F2",
          "ticks": 178920,
          "time": 186.375,
          "velocity": 0.8818897637795275
        },
        {
          "duration": 0.23645833333333144,
          "durationTicks": 227,
          "midi": 41,
          "name": "F2",
          "ticks": 179040,
          "time": 186.5,
          "velocity": 0.8818897637795275
        },
        {
          "duration": 0.23645833333333144,
          "durationTicks": 227,
          "midi": 46,
          "name": "A#2",
          "ticks": 179040,
          "time": 186.5,
          "velocity": 0.8818897637795275
        },
        {
          "duration": 0.23645833333333144,
          "durationTicks": 227,
          "midi": 32,
          "name": "G#1",
          "ticks": 179280,
          "time": 186.75,
          "velocity": 0.8818897637795275
        },
        {
          "duration": 0.23645833333333144,
          "durationTicks": 227,
          "midi": 44,
          "name": "G#2",
          "ticks": 179280,
          "time": 186.75,
          "velocity": 0.8818897637795275
        },
        {
          "duration": 0.11770833333332575,
          "durationTicks": 113,
          "midi": 48,
          "name": "C3",
          "ticks": 179520,
          "time": 187,
          "velocity": 0.8818897637795275
        },
        {
          "duration": 0.11770833333332575,
          "durationTicks": 113,
          "midi": 51,
          "name": "D#3",
          "ticks": 179640,
          "time": 187.125,
          "velocity": 0.8818897637795275
        },
        {
          "duration": 0.23645833333333144,
          "durationTicks": 227,
          "midi": 56,
          "name": "G#3",
          "ticks": 179760,
          "time": 187.25,
          "velocity": 0.8818897637795275
        },
        {
          "duration": 0.11770833333332575,
          "durationTicks": 113,
          "midi": 51,
          "name": "D#3",
          "ticks": 180000,
          "time": 187.5,
          "velocity": 0.8818897637795275
        },
        {
          "duration": 0.11770833333332575,
          "durationTicks": 113,
          "midi": 48,
          "name": "C3",
          "ticks": 180120,
          "time": 187.625,
          "velocity": 0.8818897637795275
        },
        {
          "duration": 0.23645833333333144,
          "durationTicks": 227,
          "midi": 44,
          "name": "G#2",
          "ticks": 180240,
          "time": 187.75,
          "velocity": 0.8818897637795275
        },
        {
          "duration": 0.23645833333333144,
          "durationTicks": 227,
          "midi": 41,
          "name": "F2",
          "ticks": 180480,
          "time": 188,
          "velocity": 0.8818897637795275
        },
        {
          "duration": 0.23645833333333144,
          "durationTicks": 227,
          "midi": 53,
          "name": "F3",
          "ticks": 180480,
          "time": 188,
          "velocity": 0.8818897637795275
        },
        {
          "duration": 0.11770833333332575,
          "durationTicks": 113,
          "midi": 44,
          "name": "G#2",
          "ticks": 180720,
          "time": 188.25,
          "velocity": 0.8818897637795275
        },
        {
          "duration": 0.11770833333332575,
          "durationTicks": 113,
          "midi": 48,
          "name": "C3",
          "ticks": 180840,
          "time": 188.375,
          "velocity": 0.8818897637795275
        },
        {
          "duration": 0.23645833333333144,
          "durationTicks": 227,
          "midi": 51,
          "name": "D#3",
          "ticks": 180960,
          "time": 188.5,
          "velocity": 0.8818897637795275
        },
        {
          "duration": 0.23645833333333144,
          "durationTicks": 227,
          "midi": 53,
          "name": "F3",
          "ticks": 180960,
          "time": 188.5,
          "velocity": 0.8818897637795275
        },
        {
          "duration": 0.23645833333333144,
          "durationTicks": 227,
          "midi": 34,
          "name": "A#1",
          "ticks": 181200,
          "time": 188.75,
          "velocity": 0.8818897637795275
        },
        {
          "duration": 0.23645833333333144,
          "durationTicks": 227,
          "midi": 46,
          "name": "A#2",
          "ticks": 181200,
          "time": 188.75,
          "velocity": 0.8818897637795275
        },
        {
          "duration": 0.11770833333332575,
          "durationTicks": 113,
          "midi": 49,
          "name": "C#3",
          "ticks": 181440,
          "time": 189,
          "velocity": 0.8818897637795275
        },
        {
          "duration": 0.11770833333332575,
          "durationTicks": 113,
          "midi": 53,
          "name": "F3",
          "ticks": 181560,
          "time": 189.125,
          "velocity": 0.8818897637795275
        },
        {
          "duration": 0.23645833333333144,
          "durationTicks": 227,
          "midi": 58,
          "name": "A#3",
          "ticks": 181680,
          "time": 189.25,
          "velocity": 0.8818897637795275
        },
        {
          "duration": 0.11770833333332575,
          "durationTicks": 113,
          "midi": 56,
          "name": "G#3",
          "ticks": 181920,
          "time": 189.5,
          "velocity": 0.8818897637795275
        },
        {
          "duration": 0.11770833333332575,
          "durationTicks": 113,
          "midi": 54,
          "name": "F#3",
          "ticks": 182040,
          "time": 189.625,
          "velocity": 0.8818897637795275
        },
        {
          "duration": 0.23645833333333144,
          "durationTicks": 227,
          "midi": 51,
          "name": "D#3",
          "ticks": 182160,
          "time": 189.75,
          "velocity": 0.8818897637795275
        },
        {
          "duration": 0.23645833333333144,
          "durationTicks": 227,
          "midi": 34,
          "name": "A#1",
          "ticks": 182400,
          "time": 190,
          "velocity": 0.8818897637795275
        },
        {
          "duration": 0.23645833333333144,
          "durationTicks": 227,
          "midi": 46,
          "name": "A#2",
          "ticks": 182400,
          "time": 190,
          "velocity": 0.8818897637795275
        },
        {
          "duration": 0.11770833333332575,
          "durationTicks": 113,
          "midi": 37,
          "name": "C#2",
          "ticks": 182640,
          "time": 190.25,
          "velocity": 0.8818897637795275
        },
        {
          "duration": 0.11770833333332575,
          "durationTicks": 113,
          "midi": 41,
          "name": "F2",
          "ticks": 182760,
          "time": 190.375,
          "velocity": 0.8818897637795275
        },
        {
          "duration": 0.23645833333333144,
          "durationTicks": 227,
          "midi": 41,
          "name": "F2",
          "ticks": 182880,
          "time": 190.5,
          "velocity": 0.8818897637795275
        },
        {
          "duration": 0.23645833333333144,
          "durationTicks": 227,
          "midi": 46,
          "name": "A#2",
          "ticks": 182880,
          "time": 190.5,
          "velocity": 0.8818897637795275
        },
        {
          "duration": 0.23645833333333144,
          "durationTicks": 227,
          "midi": 32,
          "name": "G#1",
          "ticks": 183120,
          "time": 190.75,
          "velocity": 0.8818897637795275
        },
        {
          "duration": 0.23645833333333144,
          "durationTicks": 227,
          "midi": 44,
          "name": "G#2",
          "ticks": 183120,
          "time": 190.75,
          "velocity": 0.8818897637795275
        },
        {
          "duration": 0.11770833333332575,
          "durationTicks": 113,
          "midi": 48,
          "name": "C3",
          "ticks": 183360,
          "time": 191,
          "velocity": 0.8818897637795275
        },
        {
          "duration": 0.11770833333332575,
          "durationTicks": 113,
          "midi": 51,
          "name": "D#3",
          "ticks": 183480,
          "time": 191.125,
          "velocity": 0.8818897637795275
        },
        {
          "duration": 0.23645833333333144,
          "durationTicks": 227,
          "midi": 56,
          "name": "G#3",
          "ticks": 183600,
          "time": 191.25,
          "velocity": 0.8818897637795275
        },
        {
          "duration": 0.11770833333332575,
          "durationTicks": 113,
          "midi": 51,
          "name": "D#3",
          "ticks": 183840,
          "time": 191.5,
          "velocity": 0.8818897637795275
        },
        {
          "duration": 0.11770833333332575,
          "durationTicks": 113,
          "midi": 48,
          "name": "C3",
          "ticks": 183960,
          "time": 191.625,
          "velocity": 0.8818897637795275
        },
        {
          "duration": 0.23645833333333144,
          "durationTicks": 227,
          "midi": 44,
          "name": "G#2",
          "ticks": 184080,
          "time": 191.75,
          "velocity": 0.8818897637795275
        },
        {
          "duration": 0.23645833333333144,
          "durationTicks": 227,
          "midi": 41,
          "name": "F2",
          "ticks": 184320,
          "time": 192,
          "velocity": 0.8818897637795275
        },
        {
          "duration": 0.23645833333333144,
          "durationTicks": 227,
          "midi": 53,
          "name": "F3",
          "ticks": 184320,
          "time": 192,
          "velocity": 0.8818897637795275
        },
        {
          "duration": 0.11770833333332575,
          "durationTicks": 113,
          "midi": 44,
          "name": "G#2",
          "ticks": 184560,
          "time": 192.25,
          "velocity": 0.8818897637795275
        },
        {
          "duration": 0.11770833333332575,
          "durationTicks": 113,
          "midi": 48,
          "name": "C3",
          "ticks": 184680,
          "time": 192.375,
          "velocity": 0.8818897637795275
        },
        {
          "duration": 0.23645833333333144,
          "durationTicks": 227,
          "midi": 34,
          "name": "A#1",
          "ticks": 184800,
          "time": 192.5,
          "velocity": 0.8818897637795275
        },
        {
          "duration": 0.23645833333333144,
          "durationTicks": 227,
          "midi": 46,
          "name": "A#2",
          "ticks": 184800,
          "time": 192.5,
          "velocity": 0.8818897637795275
        },
        {
          "duration": 0.11770833333332575,
          "durationTicks": 113,
          "midi": 37,
          "name": "C#2",
          "ticks": 185040,
          "time": 192.75,
          "velocity": 0.8818897637795275
        },
        {
          "duration": 0.11770833333332575,
          "durationTicks": 113,
          "midi": 41,
          "name": "F2",
          "ticks": 185160,
          "time": 192.875,
          "velocity": 0.8818897637795275
        },
        {
          "duration": 0.11770833333332575,
          "durationTicks": 113,
          "midi": 34,
          "name": "A#1",
          "ticks": 185280,
          "time": 193,
          "velocity": 0.8818897637795275
        },
        {
          "duration": 0.11770833333332575,
          "durationTicks": 113,
          "midi": 46,
          "name": "A#2",
          "ticks": 185280,
          "time": 193,
          "velocity": 0.8818897637795275
        },
        {
          "duration": 0.23645833333333144,
          "durationTicks": 227,
          "midi": 34,
          "name": "A#1",
          "ticks": 185400,
          "time": 193.125,
          "velocity": 0.8818897637795275
        },
        {
          "duration": 0.23645833333333144,
          "durationTicks": 227,
          "midi": 46,
          "name": "A#2",
          "ticks": 185400,
          "time": 193.125,
          "velocity": 0.8818897637795275
        },
        {
          "duration": 0.11770833333332575,
          "durationTicks": 113,
          "midi": 34,
          "name": "A#1",
          "ticks": 185640,
          "time": 193.375,
          "velocity": 0.8818897637795275
        },
        {
          "duration": 0.11770833333332575,
          "durationTicks": 113,
          "midi": 46,
          "name": "A#2",
          "ticks": 185640,
          "time": 193.375,
          "velocity": 0.8818897637795275
        },
        {
          "duration": 0.23645833333333144,
          "durationTicks": 227,
          "midi": 34,
          "name": "A#1",
          "ticks": 185760,
          "time": 193.5,
          "velocity": 0.8818897637795275
        },
        {
          "duration": 0.23645833333333144,
          "durationTicks": 227,
          "midi": 46,
          "name": "A#2",
          "ticks": 185760,
          "time": 193.5,
          "velocity": 0.8818897637795275
        },
        {
          "duration": 0.11770833333332575,
          "durationTicks": 113,
          "midi": 34,
          "name": "A#1",
          "ticks": 186000,
          "time": 193.75,
          "velocity": 0.8818897637795275
        },
        {
          "duration": 0.11770833333332575,
          "durationTicks": 113,
          "midi": 46,
          "name": "A#2",
          "ticks": 186000,
          "time": 193.75,
          "velocity": 0.8818897637795275
        },
        {
          "duration": 0.11770833333332575,
          "durationTicks": 113,
          "midi": 34,
          "name": "A#1",
          "ticks": 186120,
          "time": 193.875,
          "velocity": 0.8818897637795275
        },
        {
          "duration": 0.11770833333332575,
          "durationTicks": 113,
          "midi": 46,
          "name": "A#2",
          "ticks": 186120,
          "time": 193.875,
          "velocity": 0.8818897637795275
        },
        {
          "duration": 0.23645833333333144,
          "durationTicks": 227,
          "midi": 34,
          "name": "A#1",
          "ticks": 186240,
          "time": 194,
          "velocity": 0.8818897637795275
        },
        {
          "duration": 0.23645833333333144,
          "durationTicks": 227,
          "midi": 46,
          "name": "A#2",
          "ticks": 186240,
          "time": 194,
          "velocity": 0.8818897637795275
        },
        {
          "duration": 0.11770833333332575,
          "durationTicks": 113,
          "midi": 37,
          "name": "C#2",
          "ticks": 186480,
          "time": 194.25,
          "velocity": 0.8818897637795275
        },
        {
          "duration": 0.11770833333332575,
          "durationTicks": 113,
          "midi": 41,
          "name": "F2",
          "ticks": 186600,
          "time": 194.375,
          "velocity": 0.8818897637795275
        },
        {
          "duration": 0.23645833333333144,
          "durationTicks": 227,
          "midi": 41,
          "name": "F2",
          "ticks": 186720,
          "time": 194.5,
          "velocity": 0.8818897637795275
        },
        {
          "duration": 0.23645833333333144,
          "durationTicks": 227,
          "midi": 46,
          "name": "A#2",
          "ticks": 186720,
          "time": 194.5,
          "velocity": 0.8818897637795275
        },
        {
          "duration": 0.23645833333333144,
          "durationTicks": 227,
          "midi": 32,
          "name": "G#1",
          "ticks": 186960,
          "time": 194.75,
          "velocity": 0.8818897637795275
        },
        {
          "duration": 0.23645833333333144,
          "durationTicks": 227,
          "midi": 44,
          "name": "G#2",
          "ticks": 186960,
          "time": 194.75,
          "velocity": 0.8818897637795275
        },
        {
          "duration": 0.11770833333332575,
          "durationTicks": 113,
          "midi": 48,
          "name": "C3",
          "ticks": 187200,
          "time": 195,
          "velocity": 0.8818897637795275
        },
        {
          "duration": 0.11770833333332575,
          "durationTicks": 113,
          "midi": 51,
          "name": "D#3",
          "ticks": 187320,
          "time": 195.125,
          "velocity": 0.8818897637795275
        },
        {
          "duration": 0.23645833333333144,
          "durationTicks": 227,
          "midi": 56,
          "name": "G#3",
          "ticks": 187440,
          "time": 195.25,
          "velocity": 0.8818897637795275
        },
        {
          "duration": 0.11770833333332575,
          "durationTicks": 113,
          "midi": 51,
          "name": "D#3",
          "ticks": 187680,
          "time": 195.5,
          "velocity": 0.8818897637795275
        },
        {
          "duration": 0.11770833333332575,
          "durationTicks": 113,
          "midi": 48,
          "name": "C3",
          "ticks": 187800,
          "time": 195.625,
          "velocity": 0.8818897637795275
        },
        {
          "duration": 0.23645833333333144,
          "durationTicks": 227,
          "midi": 44,
          "name": "G#2",
          "ticks": 187920,
          "time": 195.75,
          "velocity": 0.8818897637795275
        },
        {
          "duration": 0.23645833333333144,
          "durationTicks": 227,
          "midi": 41,
          "name": "F2",
          "ticks": 188160,
          "time": 196,
          "velocity": 0.8818897637795275
        },
        {
          "duration": 0.23645833333333144,
          "durationTicks": 227,
          "midi": 53,
          "name": "F3",
          "ticks": 188160,
          "time": 196,
          "velocity": 0.8818897637795275
        },
        {
          "duration": 0.11770833333332575,
          "durationTicks": 113,
          "midi": 44,
          "name": "G#2",
          "ticks": 188400,
          "time": 196.25,
          "velocity": 0.8818897637795275
        },
        {
          "duration": 0.11770833333332575,
          "durationTicks": 113,
          "midi": 48,
          "name": "C3",
          "ticks": 188520,
          "time": 196.375,
          "velocity": 0.8818897637795275
        },
        {
          "duration": 0.23645833333333144,
          "durationTicks": 227,
          "midi": 51,
          "name": "D#3",
          "ticks": 188640,
          "time": 196.5,
          "velocity": 0.8818897637795275
        },
        {
          "duration": 0.23645833333333144,
          "durationTicks": 227,
          "midi": 53,
          "name": "F3",
          "ticks": 188640,
          "time": 196.5,
          "velocity": 0.8818897637795275
        },
        {
          "duration": 0.23645833333333144,
          "durationTicks": 227,
          "midi": 34,
          "name": "A#1",
          "ticks": 188880,
          "time": 196.75,
          "velocity": 0.8818897637795275
        },
        {
          "duration": 0.23645833333333144,
          "durationTicks": 227,
          "midi": 46,
          "name": "A#2",
          "ticks": 188880,
          "time": 196.75,
          "velocity": 0.8818897637795275
        },
        {
          "duration": 0.11770833333332575,
          "durationTicks": 113,
          "midi": 49,
          "name": "C#3",
          "ticks": 189120,
          "time": 197,
          "velocity": 0.8818897637795275
        },
        {
          "duration": 0.11770833333332575,
          "durationTicks": 113,
          "midi": 53,
          "name": "F3",
          "ticks": 189240,
          "time": 197.125,
          "velocity": 0.8818897637795275
        },
        {
          "duration": 0.23645833333333144,
          "durationTicks": 227,
          "midi": 58,
          "name": "A#3",
          "ticks": 189360,
          "time": 197.25,
          "velocity": 0.8818897637795275
        },
        {
          "duration": 0.11770833333332575,
          "durationTicks": 113,
          "midi": 56,
          "name": "G#3",
          "ticks": 189600,
          "time": 197.5,
          "velocity": 0.8818897637795275
        },
        {
          "duration": 0.11770833333332575,
          "durationTicks": 113,
          "midi": 54,
          "name": "F#3",
          "ticks": 189720,
          "time": 197.625,
          "velocity": 0.8818897637795275
        },
        {
          "duration": 0.23645833333333144,
          "durationTicks": 227,
          "midi": 51,
          "name": "D#3",
          "ticks": 189840,
          "time": 197.75,
          "velocity": 0.8818897637795275
        },
        {
          "duration": 0.23645833333333144,
          "durationTicks": 227,
          "midi": 34,
          "name": "A#1",
          "ticks": 190080,
          "time": 198,
          "velocity": 0.8818897637795275
        },
        {
          "duration": 0.23645833333333144,
          "durationTicks": 227,
          "midi": 46,
          "name": "A#2",
          "ticks": 190080,
          "time": 198,
          "velocity": 0.8818897637795275
        },
        {
          "duration": 0.11770833333332575,
          "durationTicks": 113,
          "midi": 37,
          "name": "C#2",
          "ticks": 190320,
          "time": 198.25,
          "velocity": 0.8818897637795275
        },
        {
          "duration": 0.11770833333332575,
          "durationTicks": 113,
          "midi": 41,
          "name": "F2",
          "ticks": 190440,
          "time": 198.375,
          "velocity": 0.8818897637795275
        },
        {
          "duration": 0.23645833333333144,
          "durationTicks": 227,
          "midi": 41,
          "name": "F2",
          "ticks": 190560,
          "time": 198.5,
          "velocity": 0.8818897637795275
        },
        {
          "duration": 0.23645833333333144,
          "durationTicks": 227,
          "midi": 46,
          "name": "A#2",
          "ticks": 190560,
          "time": 198.5,
          "velocity": 0.8818897637795275
        },
        {
          "duration": 0.23645833333333144,
          "durationTicks": 227,
          "midi": 32,
          "name": "G#1",
          "ticks": 190800,
          "time": 198.75,
          "velocity": 0.8818897637795275
        },
        {
          "duration": 0.23645833333333144,
          "durationTicks": 227,
          "midi": 44,
          "name": "G#2",
          "ticks": 190800,
          "time": 198.75,
          "velocity": 0.8818897637795275
        },
        {
          "duration": 0.11770833333332575,
          "durationTicks": 113,
          "midi": 48,
          "name": "C3",
          "ticks": 191040,
          "time": 199,
          "velocity": 0.8818897637795275
        },
        {
          "duration": 0.11770833333332575,
          "durationTicks": 113,
          "midi": 51,
          "name": "D#3",
          "ticks": 191160,
          "time": 199.125,
          "velocity": 0.8818897637795275
        },
        {
          "duration": 0.23645833333333144,
          "durationTicks": 227,
          "midi": 56,
          "name": "G#3",
          "ticks": 191280,
          "time": 199.25,
          "velocity": 0.8818897637795275
        },
        {
          "duration": 0.11770833333332575,
          "durationTicks": 113,
          "midi": 51,
          "name": "D#3",
          "ticks": 191520,
          "time": 199.5,
          "velocity": 0.8818897637795275
        },
        {
          "duration": 0.11770833333332575,
          "durationTicks": 113,
          "midi": 48,
          "name": "C3",
          "ticks": 191640,
          "time": 199.625,
          "velocity": 0.8818897637795275
        },
        {
          "duration": 0.23645833333333144,
          "durationTicks": 227,
          "midi": 44,
          "name": "G#2",
          "ticks": 191760,
          "time": 199.75,
          "velocity": 0.8818897637795275
        },
        {
          "duration": 0.23645833333333144,
          "durationTicks": 227,
          "midi": 41,
          "name": "F2",
          "ticks": 192000,
          "time": 200,
          "velocity": 0.8818897637795275
        },
        {
          "duration": 0.23645833333333144,
          "durationTicks": 227,
          "midi": 53,
          "name": "F3",
          "ticks": 192000,
          "time": 200,
          "velocity": 0.8818897637795275
        },
        {
          "duration": 0.11770833333332575,
          "durationTicks": 113,
          "midi": 44,
          "name": "G#2",
          "ticks": 192240,
          "time": 200.25,
          "velocity": 0.8818897637795275
        },
        {
          "duration": 0.11770833333332575,
          "durationTicks": 113,
          "midi": 48,
          "name": "C3",
          "ticks": 192360,
          "time": 200.375,
          "velocity": 0.8818897637795275
        },
        {
          "duration": 0.23645833333333144,
          "durationTicks": 227,
          "midi": 34,
          "name": "A#1",
          "ticks": 192480,
          "time": 200.5,
          "velocity": 0.8818897637795275
        },
        {
          "duration": 0.23645833333333144,
          "durationTicks": 227,
          "midi": 46,
          "name": "A#2",
          "ticks": 192480,
          "time": 200.5,
          "velocity": 0.8818897637795275
        },
        {
          "duration": 0.11770833333332575,
          "durationTicks": 113,
          "midi": 37,
          "name": "C#2",
          "ticks": 192720,
          "time": 200.75,
          "velocity": 0.8818897637795275
        },
        {
          "duration": 0.11770833333332575,
          "durationTicks": 113,
          "midi": 41,
          "name": "F2",
          "ticks": 192840,
          "time": 200.875,
          "velocity": 0.8818897637795275
        },
        {
          "duration": 0.9489583333333371,
          "durationTicks": 911,
          "midi": 34,
          "name": "A#1",
          "ticks": 192960,
          "time": 201,
          "velocity": 0.8818897637795275
        },
        {
          "duration": 0.9489583333333371,
          "durationTicks": 911,
          "midi": 46,
          "name": "A#2",
          "ticks": 192960,
          "time": 201,
          "velocity": 0.8818897637795275
        }
      ],
      "endOfTrackTicks": 193921
    }
  ]
}
