{
  "header": {
    "keySignatures": [
      {
        "key": "C",
        "scale": "major",
        "ticks": 0
      }
    ],
    "meta": [],
    "name": "Track 0",
    "ppq": 960,
    "tempos": [
      {
        "bpm": 150,
        "ticks": 0
      }
    ],
    "timeSignatures": []
  },
  "tracks": [
    {
      "channel": 9,
      "controlChanges": {
        "7": [
          {
            "number": 7,
            "ticks": 0,
            "time": 0,
            "value": 1
          },
          {
            "number": 7,
            "ticks": 11520,
            "time": 4.800000000000001,
            "value": 1
          }
        ]
      },
      "pitchBends": [],
      "instrument": {
        "family": "drums",
        "number": 0,
        "name": "standard kit"
      },
      "name": "Investigation ~ Cornered",
      "notes": [
        {
          "duration": 0.1,
          "durationTicks": 240,
          "midi": 46,
          "name": "A#2",
          "ticks": 0,
          "time": 0,
          "velocity": 0.007874015748031496
        },
        {
          "duration": 0.10000000000000003,
          "durationTicks": 240,
          "midi": 46,
          "name": "A#2",
          "ticks": 480,
          "time": 0.2,
          "velocity": 0.33858267716535434
        },
        {
          "duration": 0.09999999999999998,
          "durationTicks": 240,
          "midi": 46,
          "name": "A#2",
          "ticks": 960,
          "time": 0.4,
          "velocity": 0.007874015748031496
        },
        {
          "duration": 0.09999999999999998,
          "durationTicks": 240,
          "midi": 46,
          "name": "A#2",
          "ticks": 1440,
          "time": 0.6000000000000001,
          "velocity": 0.33858267716535434
        },
        {
          "duration": 0.09999999999999998,
          "durationTicks": 240,
          "midi": 46,
          "name": "A#2",
          "ticks": 1920,
          "time": 0.8,
          "velocity": 0.007874015748031496
        },
        {
          "duration": 0.10000000000000009,
          "durationTicks": 240,
          "midi": 46,
          "name": "A#2",
          "ticks": 2400,
          "time": 1,
          "velocity": 0.33858267716535434
        },
        {
          "duration": 0.09999999999999987,
          "durationTicks": 240,
          "midi": 46,
          "name": "A#2",
          "ticks": 2880,
          "time": 1.2000000000000002,
          "velocity": 0.007874015748031496
        },
        {
          "duration": 0.09999999999999987,
          "durationTicks": 240,
          "midi": 46,
          "name": "A#2",
          "ticks": 3360,
          "time": 1.4000000000000001,
          "velocity": 0.33858267716535434
        },
        {
          "duration": 0.10000000000000009,
          "durationTicks": 240,
          "midi": 46,
          "name": "A#2",
          "ticks": 3840,
          "time": 1.6,
          "velocity": 0.007874015748031496
        },
        {
          "duration": 0.10000000000000009,
          "durationTicks": 240,
          "midi": 46,
          "name": "A#2",
          "ticks": 4320,
          "time": 1.8,
          "velocity": 0.33858267716535434
        },
        {
          "duration": 0.10000000000000009,
          "durationTicks": 240,
          "midi": 46,
          "name": "A#2",
          "ticks": 4800,
          "time": 2,
          "velocity": 0.007874015748031496
        },
        {
          "duration": 0.10000000000000009,
          "durationTicks": 240,
          "midi": 46,
          "name": "A#2",
          "ticks": 5280,
          "time": 2.2,
          "velocity": 0.33858267716535434
        },
        {
          "duration": 0.09999999999999964,
          "durationTicks": 240,
          "midi": 46,
          "name": "A#2",
          "ticks": 5760,
          "time": 2.4000000000000004,
          "velocity": 0.007874015748031496
        },
        {
          "duration": 0.10000000000000009,
          "durationTicks": 240,
          "midi": 46,
          "name": "A#2",
          "ticks": 6240,
          "time": 2.6,
          "velocity": 0.33858267716535434
        },
        {
          "duration": 0.10000000000000009,
          "durationTicks": 240,
          "midi": 46,
          "name": "A#2",
          "ticks": 6720,
          "time": 2.8000000000000003,
          "velocity": 0.007874015748031496
        },
        {
          "duration": 0.10000000000000009,
          "durationTicks": 240,
          "midi": 35,
          "name": "B1",
          "ticks": 7200,
          "time": 3,
          "velocity": 1
        },
        {
          "duration": 0.10000000000000009,
          "durationTicks": 240,
          "midi": 46,
          "name": "A#2",
          "ticks": 7200,
          "time": 3,
          "velocity": 0.33858267716535434
        },
        {
          "duration": 0.10000000000000009,
          "durationTicks": 240,
          "midi": 35,
          "name": "B1",
          "ticks": 7440,
          "time": 3.1,
          "velocity": 1
        },
        {
          "duration": 0.10000000000000009,
          "durationTicks": 240,
          "midi": 35,
          "name": "B1",
          "ticks": 7680,
          "time": 3.2,
          "velocity": 1
        },
        {
          "duration": 0.10000000000000009,
          "durationTicks": 240,
          "midi": 46,
          "name": "A#2",
          "ticks": 7680,
          "time": 3.2,
          "velocity": 0.007874015748031496
        },
        {
          "duration": 0.09999999999999964,
          "durationTicks": 240,
          "midi": 46,
          "name": "A#2",
          "ticks": 8160,
          "time": 3.4000000000000004,
          "velocity": 0.33858267716535434
        },
        {
          "duration": 0.10000000000000009,
          "durationTicks": 240,
          "midi": 35,
          "name": "B1",
          "ticks": 8640,
          "time": 3.6,
          "velocity": 1
        },
        {
          "duration": 0.10000000000000009,
          "durationTicks": 240,
          "midi": 46,
          "name": "A#2",
          "ticks": 8640,
          "time": 3.6,
          "velocity": 0.007874015748031496
        },
        {
          "duration": 0.10000000000000009,
          "durationTicks": 240,
          "midi": 46,
          "name": "A#2",
          "ticks": 9120,
          "time": 3.8000000000000003,
          "velocity": 0.33858267716535434
        },
        {
          "duration": 0.10000000000000053,
          "durationTicks": 240,
          "midi": 35,
          "name": "B1",
          "ticks": 9600,
          "time": 4,
          "velocity": 1
        },
        {
          "duration": 0.10000000000000053,
          "durationTicks": 240,
          "midi": 46,
          "name": "A#2",
          "ticks": 9600,
          "time": 4,
          "velocity": 0.007874015748031496
        },
        {
          "duration": 0.09999999999999964,
          "durationTicks": 240,
          "midi": 46,
          "name": "A#2",
          "ticks": 10080,
          "time": 4.2,
          "velocity": 0.33858267716535434
        },
        {
          "duration": 0.09999999999999964,
          "durationTicks": 240,
          "midi": 35,
          "name": "B1",
          "ticks": 10560,
          "time": 4.4,
          "velocity": 1
        },
        {
          "duration": 0.09999999999999964,
          "durationTicks": 240,
          "midi": 46,
          "name": "A#2",
          "ticks": 10560,
          "time": 4.4,
          "velocity": 0.007874015748031496
        },
        {
          "duration": 0.09999999999999964,
          "durationTicks": 240,
          "midi": 46,
          "name": "A#2",
          "ticks": 11040,
          "time": 4.6000000000000005,
          "velocity": 0.33858267716535434
        },
        {
          "duration": 0.09999999999999964,
          "durationTicks": 240,
          "midi": 35,
          "name": "B1",
          "ticks": 11520,
          "time": 4.800000000000001,
          "velocity": 1
        },
        {
          "duration": 0.09999999999999964,
          "durationTicks": 240,
          "midi": 46,
          "name": "A#2",
          "ticks": 11520,
          "time": 4.800000000000001,
          "velocity": 0.007874015748031496
        },
        {
          "duration": 0.10000000000000053,
          "durationTicks": 240,
          "midi": 46,
          "name": "A#2",
          "ticks": 12000,
          "time": 5,
          "velocity": 0.33858267716535434
        },
        {
          "duration": 0.10000000000000053,
          "durationTicks": 240,
          "midi": 35,
          "name": "B1",
          "ticks": 12480,
          "time": 5.2,
          "velocity": 1
        },
        {
          "duration": 0.10000000000000053,
          "durationTicks": 240,
          "midi": 46,
          "name": "A#2",
          "ticks": 12480,
          "time": 5.2,
          "velocity": 0.007874015748031496
        },
        {
          "duration": 0.09999999999999964,
          "durationTicks": 240,
          "midi": 46,
          "name": "A#2",
          "ticks": 12960,
          "time": 5.4,
          "velocity": 0.33858267716535434
        },
        {
          "duration": 0.09999999999999964,
          "durationTicks": 240,
          "midi": 35,
          "name": "B1",
          "ticks": 13440,
          "time": 5.6000000000000005,
          "velocity": 1
        },
        {
          "duration": 0.09999999999999964,
          "durationTicks": 240,
          "midi": 40,
          "name": "E2",
          "ticks": 13440,
          "time": 5.6000000000000005,
          "velocity": 0.6692913385826772
        },
        {
          "duration": 0.09999999999999964,
          "durationTicks": 240,
          "midi": 46,
          "name": "A#2",
          "ticks": 13440,
          "time": 5.6000000000000005,
          "velocity": 0.007874015748031496
        },
        {
          "duration": 0.10000000000000053,
          "durationTicks": 240,
          "midi": 40,
          "name": "E2",
          "ticks": 13680,
          "time": 5.7,
          "velocity": 0.6692913385826772
        },
        {
          "duration": 0.09999999999999964,
          "durationTicks": 240,
          "midi": 40,
          "name": "E2",
          "ticks": 13920,
          "time": 5.800000000000001,
          "velocity": 0.6692913385826772
        },
        {
          "duration": 0.09999999999999964,
          "durationTicks": 240,
          "midi": 46,
          "name": "A#2",
          "ticks": 13920,
          "time": 5.800000000000001,
          "velocity": 0.33858267716535434
        },
        {
          "duration": 0.09999999999999964,
          "durationTicks": 240,
          "midi": 40,
          "name": "E2",
          "ticks": 14160,
          "time": 5.9,
          "velocity": 0.6692913385826772
        },
        {
          "duration": 0.10000000000000053,
          "durationTicks": 240,
          "midi": 35,
          "name": "B1",
          "ticks": 14400,
          "time": 6,
          "velocity": 1
        },
        {
          "duration": 0.10000000000000053,
          "durationTicks": 240,
          "midi": 40,
          "name": "E2",
          "ticks": 14400,
          "time": 6,
          "velocity": 0.6692913385826772
        },
        {
          "duration": 0.10000000000000053,
          "durationTicks": 240,
          "midi": 46,
          "name": "A#2",
          "ticks": 14400,
          "time": 6,
          "velocity": 0.007874015748031496
        },
        {
          "duration": 0.09999999999999964,
          "durationTicks": 240,
          "midi": 40,
          "name": "E2",
          "ticks": 14640,
          "time": 6.1000000000000005,
          "velocity": 0.6692913385826772
        },
        {
          "duration": 0.10000000000000053,
          "durationTicks": 240,
          "midi": 40,
          "name": "E2",
          "ticks": 14880,
          "time": 6.2,
          "velocity": 0.6692913385826772
        },
        {
          "duration": 0.10000000000000053,
          "durationTicks": 240,
          "midi": 46,
          "name": "A#2",
          "ticks": 14880,
          "time": 6.2,
          "velocity": 0.33858267716535434
        },
        {
          "duration": 0.09999999999999964,
          "durationTicks": 240,
          "midi": 40,
          "name": "E2",
          "ticks": 15120,
          "time": 6.300000000000001,
          "velocity": 0.6692913385826772
        },
        {
          "duration": 0.09999999999999964,
          "durationTicks": 240,
          "midi": 35,
          "name": "B1",
          "ticks": 15360,
          "time": 6.4,
          "velocity": 1
        },
        {
          "duration": 0.09999999999999964,
          "durationTicks": 240,
          "midi": 46,
          "name": "A#2",
          "ticks": 15360,
          "time": 6.4,
          "velocity": 0.007874015748031496
        },
        {
          "duration": 0.09999999999999964,
          "durationTicks": 240,
          "midi": 46,
          "name": "A#2",
          "ticks": 15840,
          "time": 6.6000000000000005,
          "velocity": 0.33858267716535434
        },
        {
          "duration": 0.09999999999999964,
          "durationTicks": 240,
          "midi": 35,
          "name": "B1",
          "ticks": 16320,
          "time": 6.800000000000001,
          "velocity": 1
        },
        {
          "duration": 0.09999999999999964,
          "durationTicks": 240,
          "midi": 46,
          "name": "A#2",
          "ticks": 16320,
          "time": 6.800000000000001,
          "velocity": 0.007874015748031496
        },
        {
          "duration": 0.09999999999999964,
          "durationTicks": 240,
          "midi": 40,
          "name": "E2",
          "ticks": 16320,
          "time": 6.800000000000001,
          "velocity": 0.6692913385826772
        },
        {
          "duration": 0.10000000000000053,
          "durationTicks": 240,
          "midi": 46,
          "name": "A#2",
          "ticks": 16800,
          "time": 7,
          "velocity": 0.33858267716535434
        },
        {
          "duration": 0.10000000000000053,
          "durationTicks": 240,
          "midi": 35,
          "name": "B1",
          "ticks": 17280,
          "time": 7.2,
          "velocity": 1
        },
        {
          "duration": 0.10000000000000053,
          "durationTicks": 240,
          "midi": 46,
          "name": "A#2",
          "ticks": 17280,
          "time": 7.2,
          "velocity": 0.007874015748031496
        },
        {
          "duration": 0.09999999999999964,
          "durationTicks": 240,
          "midi": 46,
          "name": "A#2",
          "ticks": 17760,
          "time": 7.4,
          "velocity": 0.33858267716535434
        },
        {
          "duration": 0.09999999999999964,
          "durationTicks": 240,
          "midi": 35,
          "name": "B1",
          "ticks": 18240,
          "time": 7.6000000000000005,
          "velocity": 1
        },
        {
          "duration": 0.09999999999999964,
          "durationTicks": 240,
          "midi": 46,
          "name": "A#2",
          "ticks": 18240,
          "time": 7.6000000000000005,
          "velocity": 0.007874015748031496
        },
        {
          "duration": 0.09999999999999964,
          "durationTicks": 240,
          "midi": 46,
          "name": "A#2",
          "ticks": 18720,
          "time": 7.800000000000001,
          "velocity": 0.33858267716535434
        },
        {
          "duration": 0.09999999999999964,
          "durationTicks": 240,
          "midi": 35,
          "name": "B1",
          "ticks": 19200,
          "time": 8,
          "velocity": 1
        },
        {
          "duration": 0.09999999999999964,
          "durationTicks": 240,
          "midi": 46,
          "name": "A#2",
          "ticks": 19200,
          "time": 8,
          "velocity": 0.007874015748031496
        },
        {
          "duration": 0.09999999999999964,
          "durationTicks": 240,
          "midi": 46,
          "name": "A#2",
          "ticks": 19680,
          "time": 8.200000000000001,
          "velocity": 0.33858267716535434
        },
        {
          "duration": 0.09999999999999964,
          "durationTicks": 240,
          "midi": 35,
          "name": "B1",
          "ticks": 20160,
          "time": 8.4,
          "velocity": 1
        },
        {
          "duration": 0.09999999999999964,
          "durationTicks": 240,
          "midi": 46,
          "name": "A#2",
          "ticks": 20160,
          "time": 8.4,
          "velocity": 0.007874015748031496
        },
        {
          "duration": 0.09999999999999964,
          "durationTicks": 240,
          "midi": 40,
          "name": "E2",
          "ticks": 20160,
          "time": 8.4,
          "velocity": 0.6692913385826772
        },
        {
          "duration": 0.10000000000000142,
          "durationTicks": 240,
          "midi": 46,
          "name": "A#2",
          "ticks": 20640,
          "time": 8.6,
          "velocity": 0.33858267716535434
        },
        {
          "duration": 0.09999999999999964,
          "durationTicks": 240,
          "midi": 35,
          "name": "B1",
          "ticks": 21120,
          "time": 8.8,
          "velocity": 1
        },
        {
          "duration": 0.09999999999999964,
          "durationTicks": 240,
          "midi": 46,
          "name": "A#2",
          "ticks": 21120,
          "time": 8.8,
          "velocity": 0.007874015748031496
        },
        {
          "duration": 0.09999999999999964,
          "durationTicks": 240,
          "midi": 46,
          "name": "A#2",
          "ticks": 21600,
          "time": 9,
          "velocity": 0.33858267716535434
        },
        {
          "duration": 0.09999999999999964,
          "durationTicks": 240,
          "midi": 35,
          "name": "B1",
          "ticks": 22080,
          "time": 9.200000000000001,
          "velocity": 1
        },
        {
          "duration": 0.09999999999999964,
          "durationTicks": 240,
          "midi": 46,
          "name": "A#2",
          "ticks": 22080,
          "time": 9.200000000000001,
          "velocity": 0.007874015748031496
        },
        {
          "duration": 0.09999999999999964,
          "durationTicks": 240,
          "midi": 46,
          "name": "A#2",
          "ticks": 22560,
          "time": 9.4,
          "velocity": 0.33858267716535434
        },
        {
          "duration": 0.09999999999999964,
          "durationTicks": 240,
          "midi": 40,
          "name": "E2",
          "ticks": 22560,
          "time": 9.4,
          "velocity": 0.6692913385826772
        },
        {
          "duration": 0.09999999999999964,
          "durationTicks": 240,
          "midi": 35,
          "name": "B1",
          "ticks": 23040,
          "time": 9.600000000000001,
          "velocity": 1
        },
        {
          "duration": 0.09999999999999964,
          "durationTicks": 240,
          "midi": 46,
          "name": "A#2",
          "ticks": 23040,
          "time": 9.600000000000001,
          "velocity": 0.007874015748031496
        },
        {
          "duration": 0.09999999999999964,
          "durationTicks": 240,
          "midi": 46,
          "name": "A#2",
          "ticks": 23520,
          "time": 9.8,
          "velocity": 0.33858267716535434
        },
        {
          "duration": 0.10000000000000142,
          "durationTicks": 240,
          "midi": 35,
          "name": "B1",
          "ticks": 24000,
          "time": 10,
          "velocity": 1
        },
        {
          "duration": 0.10000000000000142,
          "durationTicks": 240,
          "midi": 46,
          "name": "A#2",
          "ticks": 24000,
          "time": 10,
          "velocity": 0.007874015748031496
        },
        {
          "duration": 0.10000000000000142,
          "durationTicks": 240,
          "midi": 40,
          "name": "E2",
          "ticks": 24000,
          "time": 10,
          "velocity": 0.6692913385826772
        },
        {
          "duration": 0.09999999999999964,
          "durationTicks": 240,
          "midi": 46,
          "name": "A#2",
          "ticks": 24480,
          "time": 10.200000000000001,
          "velocity": 0.33858267716535434
        },
        {
          "duration": 0.09999999999999964,
          "durationTicks": 240,
          "midi": 35,
          "name": "B1",
          "ticks": 24960,
          "time": 10.4,
          "velocity": 1
        },
        {
          "duration": 0.09999999999999964,
          "durationTicks": 240,
          "midi": 46,
          "name": "A#2",
          "ticks": 24960,
          "time": 10.4,
          "velocity": 0.007874015748031496
        },
        {
          "duration": 0.09999999999999964,
          "durationTicks": 240,
          "midi": 46,
          "name": "A#2",
          "ticks": 25440,
          "time": 10.600000000000001,
          "velocity": 0.33858267716535434
        },
        {
          "duration": 0.09999999999999964,
          "durationTicks": 240,
          "midi": 35,
          "name": "B1",
          "ticks": 25920,
          "time": 10.8,
          "velocity": 1
        },
        {
          "duration": 0.09999999999999964,
          "durationTicks": 240,
          "midi": 46,
          "name": "A#2",
          "ticks": 25920,
          "time": 10.8,
          "velocity": 0.007874015748031496
        },
        {
          "duration": 0.10000000000000142,
          "durationTicks": 240,
          "midi": 46,
          "name": "A#2",
          "ticks": 26400,
          "time": 11,
          "velocity": 0.33858267716535434
        },
        {
          "duration": 0.09999999999999964,
          "durationTicks": 240,
          "midi": 35,
          "name": "B1",
          "ticks": 26880,
          "time": 11.200000000000001,
          "velocity": 1
        },
        {
          "duration": 0.09999999999999964,
          "durationTicks": 240,
          "midi": 46,
          "name": "A#2",
          "ticks": 26880,
          "time": 11.200000000000001,
          "velocity": 0.007874015748031496
        },
        {
          "duration": 0.09999999999999964,
          "durationTicks": 240,
          "midi": 46,
          "name": "A#2",
          "ticks": 27360,
          "time": 11.4,
          "velocity": 0.33858267716535434
        },
        {
          "duration": 0.09999999999999964,
          "durationTicks": 240,
          "midi": 35,
          "name": "B1",
          "ticks": 27840,
          "time": 11.600000000000001,
          "velocity": 1
        },
        {
          "duration": 0.09999999999999964,
          "durationTicks": 240,
          "midi": 46,
          "name": "A#2",
          "ticks": 27840,
          "time": 11.600000000000001,
          "velocity": 0.007874015748031496
        },
        {
          "duration": 0.09999999999999964,
          "durationTicks": 240,
          "midi": 40,
          "name": "E2",
          "ticks": 27840,
          "time": 11.600000000000001,
          "velocity": 0.6692913385826772
        },
        {
          "duration": 0.09999999999999964,
          "durationTicks": 240,
          "midi": 46,
          "name": "A#2",
          "ticks": 28320,
          "time": 11.8,
          "velocity": 0.33858267716535434
        },
        {
          "duration": 0.10000000000000142,
          "durationTicks": 240,
          "midi": 35,
          "name": "B1",
          "ticks": 28800,
          "time": 12,
          "velocity": 1
        },
        {
          "duration": 0.10000000000000142,
          "durationTicks": 240,
          "midi": 46,
          "name": "A#2",
          "ticks": 28800,
          "time": 12,
          "velocity": 0.007874015748031496
        },
        {
          "duration": 0.09999999999999964,
          "durationTicks": 240,
          "midi": 35,
          "name": "B1",
          "ticks": 29280,
          "time": 12.200000000000001,
          "velocity": 1
        },
        {
          "duration": 0.09999999999999964,
          "durationTicks": 240,
          "midi": 46,
          "name": "A#2",
          "ticks": 29280,
          "time": 12.200000000000001,
          "velocity": 0.33858267716535434
        },
        {
          "duration": 0.09999999999999964,
          "durationTicks": 240,
          "midi": 35,
          "name": "B1",
          "ticks": 29760,
          "time": 12.4,
          "velocity": 1
        },
        {
          "duration": 0.09999999999999964,
          "durationTicks": 240,
          "midi": 46,
          "name": "A#2",
          "ticks": 29760,
          "time": 12.4,
          "velocity": 0.007874015748031496
        },
        {
          "duration": 0.09999999999999964,
          "durationTicks": 240,
          "midi": 46,
          "name": "A#2",
          "ticks": 30240,
          "time": 12.600000000000001,
          "velocity": 0.33858267716535434
        },
        {
          "duration": 0.09999999999999964,
          "durationTicks": 240,
          "midi": 40,
          "name": "E2",
          "ticks": 30240,
          "time": 12.600000000000001,
          "velocity": 0.6692913385826772
        },
        {
          "duration": 0.09999999999999964,
          "durationTicks": 240,
          "midi": 35,
          "name": "B1",
          "ticks": 30720,
          "time": 12.8,
          "velocity": 1
        },
        {
          "duration": 0.09999999999999964,
          "durationTicks": 240,
          "midi": 46,
          "name": "A#2",
          "ticks": 30720,
          "time": 12.8,
          "velocity": 0.007874015748031496
        },
        {
          "duration": 0.10000000000000142,
          "durationTicks": 240,
          "midi": 46,
          "name": "A#2",
          "ticks": 31200,
          "time": 13,
          "velocity": 0.33858267716535434
        },
        {
          "duration": 0.09999999999999964,
          "durationTicks": 240,
          "midi": 35,
          "name": "B1",
          "ticks": 31680,
          "time": 13.200000000000001,
          "velocity": 1
        },
        {
          "duration": 0.09999999999999964,
          "durationTicks": 240,
          "midi": 46,
          "name": "A#2",
          "ticks": 31680,
          "time": 13.200000000000001,
          "velocity": 0.007874015748031496
        },
        {
          "duration": 0.09999999999999964,
          "durationTicks": 240,
          "midi": 40,
          "name": "E2",
          "ticks": 31680,
          "time": 13.200000000000001,
          "velocity": 0.6692913385826772
        },
        {
          "duration": 0.09999999999999964,
          "durationTicks": 240,
          "midi": 46,
          "name": "A#2",
          "ticks": 32160,
          "time": 13.4,
          "velocity": 0.33858267716535434
        },
        {
          "duration": 0.09999999999999964,
          "durationTicks": 240,
          "midi": 35,
          "name": "B1",
          "ticks": 32640,
          "time": 13.600000000000001,
          "velocity": 1
        },
        {
          "duration": 0.09999999999999964,
          "durationTicks": 240,
          "midi": 46,
          "name": "A#2",
          "ticks": 32640,
          "time": 13.600000000000001,
          "velocity": 0.007874015748031496
        },
        {
          "duration": 0.09999999999999964,
          "durationTicks": 240,
          "midi": 46,
          "name": "A#2",
          "ticks": 33120,
          "time": 13.8,
          "velocity": 0.33858267716535434
        },
        {
          "duration": 0.10000000000000142,
          "durationTicks": 240,
          "midi": 35,
          "name": "B1",
          "ticks": 33600,
          "time": 14,
          "velocity": 1
        },
        {
          "duration": 0.10000000000000142,
          "durationTicks": 240,
          "midi": 46,
          "name": "A#2",
          "ticks": 33600,
          "time": 14,
          "velocity": 0.007874015748031496
        },
        {
          "duration": 0.09999999999999964,
          "durationTicks": 240,
          "midi": 46,
          "name": "A#2",
          "ticks": 34080,
          "time": 14.200000000000001,
          "velocity": 0.33858267716535434
        },
        {
          "duration": 0.09999999999999964,
          "durationTicks": 240,
          "midi": 35,
          "name": "B1",
          "ticks": 34560,
          "time": 14.4,
          "velocity": 1
        },
        {
          "duration": 0.09999999999999964,
          "durationTicks": 240,
          "midi": 46,
          "name": "A#2",
          "ticks": 34560,
          "time": 14.4,
          "velocity": 0.007874015748031496
        },
        {
          "duration": 0.09999999999999964,
          "durationTicks": 240,
          "midi": 46,
          "name": "A#2",
          "ticks": 35040,
          "time": 14.600000000000001,
          "velocity": 0.33858267716535434
        },
        {
          "duration": 0.09999999999999964,
          "durationTicks": 240,
          "midi": 35,
          "name": "B1",
          "ticks": 35520,
          "time": 14.8,
          "velocity": 1
        },
        {
          "duration": 0.09999999999999964,
          "durationTicks": 240,
          "midi": 46,
          "name": "A#2",
          "ticks": 35520,
          "time": 14.8,
          "velocity": 0.007874015748031496
        },
        {
          "duration": 0.09999999999999964,
          "durationTicks": 240,
          "midi": 40,
          "name": "E2",
          "ticks": 35520,
          "time": 14.8,
          "velocity": 0.6692913385826772
        },
        {
          "duration": 0.10000000000000142,
          "durationTicks": 240,
          "midi": 46,
          "name": "A#2",
          "ticks": 36000,
          "time": 15,
          "velocity": 0.33858267716535434
        },
        {
          "duration": 0.09999999999999964,
          "durationTicks": 240,
          "midi": 35,
          "name": "B1",
          "ticks": 36480,
          "time": 15.200000000000001,
          "velocity": 1
        },
        {
          "duration": 0.09999999999999964,
          "durationTicks": 240,
          "midi": 46,
          "name": "A#2",
          "ticks": 36480,
          "time": 15.200000000000001,
          "velocity": 0.007874015748031496
        },
        {
          "duration": 0.09999999999999964,
          "durationTicks": 240,
          "midi": 46,
          "name": "A#2",
          "ticks": 36960,
          "time": 15.4,
          "velocity": 0.33858267716535434
        },
        {
          "duration": 0.09999999999999964,
          "durationTicks": 240,
          "midi": 35,
          "name": "B1",
          "ticks": 37440,
          "time": 15.600000000000001,
          "velocity": 1
        },
        {
          "duration": 0.09999999999999964,
          "durationTicks": 240,
          "midi": 46,
          "name": "A#2",
          "ticks": 37440,
          "time": 15.600000000000001,
          "velocity": 0.007874015748031496
        },
        {
          "duration": 0.09999999999999964,
          "durationTicks": 240,
          "midi": 35,
          "name": "B1",
          "ticks": 37920,
          "time": 15.8,
          "velocity": 1
        },
        {
          "duration": 0.09999999999999964,
          "durationTicks": 240,
          "midi": 46,
          "name": "A#2",
          "ticks": 37920,
          "time": 15.8,
          "velocity": 0.33858267716535434
        },
        {
          "duration": 0.10000000000000142,
          "durationTicks": 240,
          "midi": 46,
          "name": "A#2",
          "ticks": 38400,
          "time": 16,
          "velocity": 0.007874015748031496
        },
        {
          "duration": 0.10000000000000142,
          "durationTicks": 240,
          "midi": 35,
          "name": "B1",
          "ticks": 38400,
          "time": 16,
          "velocity": 1
        },
        {
          "duration": 0.10000000000000142,
          "durationTicks": 240,
          "midi": 46,
          "name": "A#2",
          "ticks": 38880,
          "time": 16.2,
          "velocity": 0.33858267716535434
        },
        {
          "duration": 0.09999999999999787,
          "durationTicks": 240,
          "midi": 46,
          "name": "A#2",
          "ticks": 39360,
          "time": 16.400000000000002,
          "velocity": 0.007874015748031496
        },
        {
          "duration": 0.09999999999999787,
          "durationTicks": 240,
          "midi": 35,
          "name": "B1",
          "ticks": 39360,
          "time": 16.400000000000002,
          "velocity": 1
        },
        {
          "duration": 0.09999999999999787,
          "durationTicks": 240,
          "midi": 40,
          "name": "E2",
          "ticks": 39360,
          "time": 16.400000000000002,
          "velocity": 0.6692913385826772
        },
        {
          "duration": 0.09999999999999787,
          "durationTicks": 240,
          "midi": 46,
          "name": "A#2",
          "ticks": 39840,
          "time": 16.6,
          "velocity": 0.33858267716535434
        },
        {
          "duration": 0.10000000000000142,
          "durationTicks": 240,
          "midi": 46,
          "name": "A#2",
          "ticks": 40320,
          "time": 16.8,
          "velocity": 0.007874015748031496
        },
        {
          "duration": 0.10000000000000142,
          "durationTicks": 240,
          "midi": 35,
          "name": "B1",
          "ticks": 40320,
          "time": 16.8,
          "velocity": 1
        },
        {
          "duration": 0.10000000000000142,
          "durationTicks": 240,
          "midi": 46,
          "name": "A#2",
          "ticks": 40800,
          "time": 17,
          "velocity": 0.33858267716535434
        },
        {
          "duration": 0.10000000000000142,
          "durationTicks": 240,
          "midi": 46,
          "name": "A#2",
          "ticks": 41280,
          "time": 17.2,
          "velocity": 0.007874015748031496
        },
        {
          "duration": 0.10000000000000142,
          "durationTicks": 240,
          "midi": 35,
          "name": "B1",
          "ticks": 41280,
          "time": 17.2,
          "velocity": 1
        },
        {
          "duration": 0.09999999999999787,
          "durationTicks": 240,
          "midi": 46,
          "name": "A#2",
          "ticks": 41760,
          "time": 17.400000000000002,
          "velocity": 0.33858267716535434
        },
        {
          "duration": 0.09999999999999787,
          "durationTicks": 240,
          "midi": 46,
          "name": "A#2",
          "ticks": 42240,
          "time": 17.6,
          "velocity": 0.007874015748031496
        },
        {
          "duration": 0.09999999999999787,
          "durationTicks": 240,
          "midi": 35,
          "name": "B1",
          "ticks": 42240,
          "time": 17.6,
          "velocity": 1
        },
        {
          "duration": 0.10000000000000142,
          "durationTicks": 240,
          "midi": 46,
          "name": "A#2",
          "ticks": 42720,
          "time": 17.8,
          "velocity": 0.33858267716535434
        },
        {
          "duration": 0.10000000000000142,
          "durationTicks": 240,
          "midi": 46,
          "name": "A#2",
          "ticks": 43200,
          "time": 18,
          "velocity": 0.007874015748031496
        },
        {
          "duration": 0.10000000000000142,
          "durationTicks": 240,
          "midi": 35,
          "name": "B1",
          "ticks": 43200,
          "time": 18,
          "velocity": 1
        },
        {
          "duration": 0.10000000000000142,
          "durationTicks": 240,
          "midi": 40,
          "name": "E2",
          "ticks": 43200,
          "time": 18,
          "velocity": 0.6692913385826772
        },
        {
          "duration": 0.10000000000000142,
          "durationTicks": 240,
          "midi": 46,
          "name": "A#2",
          "ticks": 43680,
          "time": 18.2,
          "velocity": 0.33858267716535434
        },
        {
          "duration": 0.09999999999999787,
          "durationTicks": 240,
          "midi": 46,
          "name": "A#2",
          "ticks": 44160,
          "time": 18.400000000000002,
          "velocity": 0.007874015748031496
        },
        {
          "duration": 0.09999999999999787,
          "durationTicks": 240,
          "midi": 35,
          "name": "B1",
          "ticks": 44160,
          "time": 18.400000000000002,
          "velocity": 1
        },
        {
          "duration": 0.09999999999999787,
          "durationTicks": 240,
          "midi": 46,
          "name": "A#2",
          "ticks": 44640,
          "time": 18.6,
          "velocity": 0.33858267716535434
        },
        {
          "duration": 0.09999999999999787,
          "durationTicks": 240,
          "midi": 35,
          "name": "B1",
          "ticks": 44640,
          "time": 18.6,
          "velocity": 1
        },
        {
          "duration": 0.10000000000000142,
          "durationTicks": 240,
          "midi": 46,
          "name": "A#2",
          "ticks": 45120,
          "time": 18.8,
          "velocity": 0.007874015748031496
        },
        {
          "duration": 0.10000000000000142,
          "durationTicks": 240,
          "midi": 35,
          "name": "B1",
          "ticks": 45120,
          "time": 18.8,
          "velocity": 1
        },
        {
          "duration": 0.10000000000000142,
          "durationTicks": 240,
          "midi": 46,
          "name": "A#2",
          "ticks": 45600,
          "time": 19,
          "velocity": 0.33858267716535434
        },
        {
          "duration": 0.10000000000000142,
          "durationTicks": 240,
          "midi": 40,
          "name": "E2",
          "ticks": 45600,
          "time": 19,
          "velocity": 0.6692913385826772
        },
        {
          "duration": 0.09999999999999787,
          "durationTicks": 240,
          "midi": 46,
          "name": "A#2",
          "ticks": 46080,
          "time": 19.200000000000003,
          "velocity": 0.007874015748031496
        },
        {
          "duration": 0.09999999999999787,
          "durationTicks": 240,
          "midi": 35,
          "name": "B1",
          "ticks": 46080,
          "time": 19.200000000000003,
          "velocity": 1
        },
        {
          "duration": 0.09999999999999787,
          "durationTicks": 240,
          "midi": 46,
          "name": "A#2",
          "ticks": 46560,
          "time": 19.400000000000002,
          "velocity": 0.33858267716535434
        },
        {
          "duration": 0.10000000000000142,
          "durationTicks": 240,
          "midi": 46,
          "name": "A#2",
          "ticks": 47040,
          "time": 19.6,
          "velocity": 0.007874015748031496
        },
        {
          "duration": 0.10000000000000142,
          "durationTicks": 240,
          "midi": 35,
          "name": "B1",
          "ticks": 47040,
          "time": 19.6,
          "velocity": 1
        },
        {
          "duration": 0.10000000000000142,
          "durationTicks": 240,
          "midi": 40,
          "name": "E2",
          "ticks": 47040,
          "time": 19.6,
          "velocity": 0.6692913385826772
        },
        {
          "duration": 0.10000000000000142,
          "durationTicks": 240,
          "midi": 46,
          "name": "A#2",
          "ticks": 47520,
          "time": 19.8,
          "velocity": 0.33858267716535434
        },
        {
          "duration": 0.10000000000000142,
          "durationTicks": 240,
          "midi": 46,
          "name": "A#2",
          "ticks": 48000,
          "time": 20,
          "velocity": 0.007874015748031496
        },
        {
          "duration": 0.10000000000000142,
          "durationTicks": 240,
          "midi": 35,
          "name": "B1",
          "ticks": 48000,
          "time": 20,
          "velocity": 1
        },
        {
          "duration": 0.09999999999999787,
          "durationTicks": 240,
          "midi": 46,
          "name": "A#2",
          "ticks": 48480,
          "time": 20.200000000000003,
          "velocity": 0.33858267716535434
        },
        {
          "duration": 0.09999999999999787,
          "durationTicks": 240,
          "midi": 46,
          "name": "A#2",
          "ticks": 48960,
          "time": 20.400000000000002,
          "velocity": 0.007874015748031496
        },
        {
          "duration": 0.09999999999999787,
          "durationTicks": 240,
          "midi": 35,
          "name": "B1",
          "ticks": 48960,
          "time": 20.400000000000002,
          "velocity": 1
        },
        {
          "duration": 0.10000000000000142,
          "durationTicks": 240,
          "midi": 46,
          "name": "A#2",
          "ticks": 49440,
          "time": 20.6,
          "velocity": 0.33858267716535434
        },
        {
          "duration": 0.10000000000000142,
          "durationTicks": 240,
          "midi": 40,
          "name": "E2",
          "ticks": 49440,
          "time": 20.6,
          "velocity": 0.6692913385826772
        },
        {
          "duration": 0.10000000000000142,
          "durationTicks": 240,
          "midi": 46,
          "name": "A#2",
          "ticks": 49920,
          "time": 20.8,
          "velocity": 0.007874015748031496
        },
        {
          "duration": 0.10000000000000142,
          "durationTicks": 240,
          "midi": 35,
          "name": "B1",
          "ticks": 49920,
          "time": 20.8,
          "velocity": 1
        },
        {
          "duration": 0.10000000000000142,
          "durationTicks": 240,
          "midi": 46,
          "name": "A#2",
          "ticks": 50400,
          "time": 21,
          "velocity": 0.33858267716535434
        },
        {
          "duration": 0.10000000000000142,
          "durationTicks": 240,
          "midi": 35,
          "name": "B1",
          "ticks": 50400,
          "time": 21,
          "velocity": 1
        },
        {
          "duration": 0.09999999999999787,
          "durationTicks": 240,
          "midi": 46,
          "name": "A#2",
          "ticks": 50880,
          "time": 21.200000000000003,
          "velocity": 0.007874015748031496
        },
        {
          "duration": 0.09999999999999787,
          "durationTicks": 240,
          "midi": 40,
          "name": "E2",
          "ticks": 50880,
          "time": 21.200000000000003,
          "velocity": 0.6692913385826772
        },
        {
          "duration": 0.09999999999999787,
          "durationTicks": 240,
          "midi": 46,
          "name": "A#2",
          "ticks": 51360,
          "time": 21.400000000000002,
          "velocity": 0.33858267716535434
        },
        {
          "duration": 0.09999999999999787,
          "durationTicks": 240,
          "midi": 35,
          "name": "B1",
          "ticks": 51360,
          "time": 21.400000000000002,
          "velocity": 1
        },
        {
          "duration": 0.10000000000000142,
          "durationTicks": 240,
          "midi": 40,
          "name": "E2",
          "ticks": 51600,
          "time": 21.5,
          "velocity": 0.6692913385826772
        },
        {
          "duration": 0.10000000000000142,
          "durationTicks": 240,
          "midi": 46,
          "name": "A#2",
          "ticks": 51840,
          "time": 21.6,
          "velocity": 0.007874015748031496
        },
        {
          "duration": 0.10000000000000142,
          "durationTicks": 240,
          "midi": 35,
          "name": "B1",
          "ticks": 51840,
          "time": 21.6,
          "velocity": 1
        },
        {
          "duration": 0.09999999999999787,
          "durationTicks": 240,
          "midi": 40,
          "name": "E2",
          "ticks": 52080,
          "time": 21.700000000000003,
          "velocity": 0.6692913385826772
        },
        {
          "duration": 0.10000000000000142,
          "durationTicks": 240,
          "midi": 46,
          "name": "A#2",
          "ticks": 52320,
          "time": 21.8,
          "velocity": 0.33858267716535434
        },
        {
          "duration": 0.10000000000000142,
          "durationTicks": 240,
          "midi": 35,
          "name": "B1",
          "ticks": 52320,
          "time": 21.8,
          "velocity": 1
        },
        {
          "duration": 0.10000000000000142,
          "durationTicks": 240,
          "midi": 46,
          "name": "A#2",
          "ticks": 52800,
          "time": 22,
          "velocity": 0.007874015748031496
        },
        {
          "duration": 0.10000000000000142,
          "durationTicks": 240,
          "midi": 40,
          "name": "E2",
          "ticks": 52800,
          "time": 22,
          "velocity": 0.6692913385826772
        },
        {
          "duration": 0.09999999999999787,
          "durationTicks": 240,
          "midi": 46,
          "name": "A#2",
          "ticks": 53280,
          "time": 22.200000000000003,
          "velocity": 0.33858267716535434
        },
        {
          "duration": 0.09999999999999787,
          "durationTicks": 240,
          "midi": 35,
          "name": "B1",
          "ticks": 53280,
          "time": 22.200000000000003,
          "velocity": 1
        },
        {
          "duration": 0.09999999999999787,
          "durationTicks": 240,
          "midi": 46,
          "name": "A#2",
          "ticks": 53760,
          "time": 22.400000000000002,
          "velocity": 0.007874015748031496
        },
        {
          "duration": 0.09999999999999787,
          "durationTicks": 240,
          "midi": 35,
          "name": "B1",
          "ticks": 53760,
          "time": 22.400000000000002,
          "velocity": 1
        },
        {
          "duration": 0.10000000000000142,
          "durationTicks": 240,
          "midi": 46,
          "name": "A#2",
          "ticks": 54240,
          "time": 22.6,
          "velocity": 0.33858267716535434
        },
        {
          "duration": 0.10000000000000142,
          "durationTicks": 240,
          "midi": 35,
          "name": "B1",
          "ticks": 54240,
          "time": 22.6,
          "velocity": 1
        },
        {
          "duration": 0.10000000000000142,
          "durationTicks": 240,
          "midi": 46,
          "name": "A#2",
          "ticks": 54720,
          "time": 22.8,
          "velocity": 0.007874015748031496
        },
        {
          "duration": 0.10000000000000142,
          "durationTicks": 240,
          "midi": 40,
          "name": "E2",
          "ticks": 54720,
          "time": 22.8,
          "velocity": 0.6692913385826772
        },
        {
          "duration": 0.10000000000000142,
          "durationTicks": 240,
          "midi": 46,
          "name": "A#2",
          "ticks": 55200,
          "time": 23,
          "velocity": 0.33858267716535434
        },
        {
          "duration": 0.10000000000000142,
          "durationTicks": 240,
          "midi": 35,
          "name": "B1",
          "ticks": 55200,
          "time": 23,
          "velocity": 1
        },
        {
          "duration": 0.10000000000000142,
          "durationTicks": 240,
          "midi": 40,
          "name": "E2",
          "ticks": 55440,
          "time": 23.1,
          "velocity": 0.6692913385826772
        },
        {
          "duration": 0.09999999999999787,
          "durationTicks": 240,
          "midi": 46,
          "name": "A#2",
          "ticks": 55680,
          "time": 23.200000000000003,
          "velocity": 0.007874015748031496
        },
        {
          "duration": 0.09999999999999787,
          "durationTicks": 240,
          "midi": 35,
          "name": "B1",
          "ticks": 55680,
          "time": 23.200000000000003,
          "velocity": 1
        },
        {
          "duration": 0.09999999999999787,
          "durationTicks": 240,
          "midi": 46,
          "name": "A#2",
          "ticks": 56160,
          "time": 23.400000000000002,
          "velocity": 0.33858267716535434
        },
        {
          "duration": 0.09999999999999787,
          "durationTicks": 240,
          "midi": 35,
          "name": "B1",
          "ticks": 56160,
          "time": 23.400000000000002,
          "velocity": 1
        },
        {
          "duration": 0.10000000000000142,
          "durationTicks": 240,
          "midi": 46,
          "name": "A#2",
          "ticks": 56640,
          "time": 23.6,
          "velocity": 0.007874015748031496
        },
        {
          "duration": 0.10000000000000142,
          "durationTicks": 240,
          "midi": 40,
          "name": "E2",
          "ticks": 56640,
          "time": 23.6,
          "velocity": 0.6692913385826772
        },
        {
          "duration": 0.10000000000000142,
          "durationTicks": 240,
          "midi": 46,
          "name": "A#2",
          "ticks": 57120,
          "time": 23.8,
          "velocity": 0.33858267716535434
        },
        {
          "duration": 0.10000000000000142,
          "durationTicks": 240,
          "midi": 40,
          "name": "E2",
          "ticks": 57120,
          "time": 23.8,
          "velocity": 0.6692913385826772
        },
        {
          "duration": 0.10000000000000142,
          "durationTicks": 240,
          "midi": 46,
          "name": "A#2",
          "ticks": 57600,
          "time": 24,
          "velocity": 0.007874015748031496
        },
        {
          "duration": 0.10000000000000142,
          "durationTicks": 240,
          "midi": 35,
          "name": "B1",
          "ticks": 57600,
          "time": 24,
          "velocity": 1
        },
        {
          "duration": 0.09999999999999787,
          "durationTicks": 240,
          "midi": 46,
          "name": "A#2",
          "ticks": 58080,
          "time": 24.200000000000003,
          "velocity": 0.33858267716535434
        },
        {
          "duration": 0.09999999999999787,
          "durationTicks": 240,
          "midi": 46,
          "name": "A#2",
          "ticks": 58560,
          "time": 24.400000000000002,
          "velocity": 0.007874015748031496
        },
        {
          "duration": 0.09999999999999787,
          "durationTicks": 240,
          "midi": 35,
          "name": "B1",
          "ticks": 58560,
          "time": 24.400000000000002,
          "velocity": 1
        },
        {
          "duration": 0.09999999999999787,
          "durationTicks": 240,
          "midi": 40,
          "name": "E2",
          "ticks": 58560,
          "time": 24.400000000000002,
          "velocity": 0.6692913385826772
        },
        {
          "duration": 0.10000000000000142,
          "durationTicks": 240,
          "midi": 46,
          "name": "A#2",
          "ticks": 59040,
          "time": 24.6,
          "velocity": 0.33858267716535434
        },
        {
          "duration": 0.10000000000000142,
          "durationTicks": 240,
          "midi": 35,
          "name": "B1",
          "ticks": 59520,
          "time": 24.8,
          "velocity": 1
        },
        {
          "duration": 0.10000000000000142,
          "durationTicks": 240,
          "midi": 46,
          "name": "A#2",
          "ticks": 59520,
          "time": 24.8,
          "velocity": 0.007874015748031496
        },
        {
          "duration": 0.10000000000000142,
          "durationTicks": 240,
          "midi": 35,
          "name": "B1",
          "ticks": 60000,
          "time": 25,
          "velocity": 1
        },
        {
          "duration": 0.10000000000000142,
          "durationTicks": 240,
          "midi": 46,
          "name": "A#2",
          "ticks": 60000,
          "time": 25,
          "velocity": 0.33858267716535434
        },
        {
          "duration": 0.09999999999999787,
          "durationTicks": 240,
          "midi": 35,
          "name": "B1",
          "ticks": 60480,
          "time": 25.200000000000003,
          "velocity": 1
        },
        {
          "duration": 0.09999999999999787,
          "durationTicks": 240,
          "midi": 46,
          "name": "A#2",
          "ticks": 60480,
          "time": 25.200000000000003,
          "velocity": 0.007874015748031496
        },
        {
          "duration": 0.09999999999999787,
          "durationTicks": 240,
          "midi": 40,
          "name": "E2",
          "ticks": 60960,
          "time": 25.400000000000002,
          "velocity": 0.6692913385826772
        },
        {
          "duration": 0.09999999999999787,
          "durationTicks": 240,
          "midi": 46,
          "name": "A#2",
          "ticks": 60960,
          "time": 25.400000000000002,
          "velocity": 0.33858267716535434
        },
        {
          "duration": 0.05000000000000071,
          "durationTicks": 120,
          "midi": 35,
          "name": "B1",
          "ticks": 61440,
          "time": 25.6,
          "velocity": 1
        },
        {
          "duration": 0.10000000000000142,
          "durationTicks": 240,
          "midi": 46,
          "name": "A#2",
          "ticks": 61440,
          "time": 25.6,
          "velocity": 0.007874015748031496
        },
        {
          "duration": 0.10000000000000142,
          "durationTicks": 240,
          "midi": 46,
          "name": "A#2",
          "ticks": 61920,
          "time": 25.8,
          "velocity": 0.33858267716535434
        },
        {
          "duration": 0.10000000000000142,
          "durationTicks": 240,
          "midi": 35,
          "name": "B1",
          "ticks": 62400,
          "time": 26,
          "velocity": 1
        },
        {
          "duration": 0.10000000000000142,
          "durationTicks": 240,
          "midi": 40,
          "name": "E2",
          "ticks": 62400,
          "time": 26,
          "velocity": 0.6692913385826772
        },
        {
          "duration": 0.10000000000000142,
          "durationTicks": 240,
          "midi": 46,
          "name": "A#2",
          "ticks": 62400,
          "time": 26,
          "velocity": 0.007874015748031496
        },
        {
          "duration": 0.09999999999999787,
          "durationTicks": 240,
          "midi": 46,
          "name": "A#2",
          "ticks": 62880,
          "time": 26.200000000000003,
          "velocity": 0.33858267716535434
        },
        {
          "duration": 0.09999999999999787,
          "durationTicks": 240,
          "midi": 35,
          "name": "B1",
          "ticks": 63360,
          "time": 26.400000000000002,
          "velocity": 1
        },
        {
          "duration": 0.09999999999999787,
          "durationTicks": 240,
          "midi": 46,
          "name": "A#2",
          "ticks": 63360,
          "time": 26.400000000000002,
          "velocity": 0.007874015748031496
        },
        {
          "duration": 0.10000000000000142,
          "durationTicks": 240,
          "midi": 46,
          "name": "A#2",
          "ticks": 63840,
          "time": 26.6,
          "velocity": 0.33858267716535434
        },
        {
          "duration": 0.10000000000000142,
          "durationTicks": 240,
          "midi": 35,
          "name": "B1",
          "ticks": 64320,
          "time": 26.8,
          "velocity": 1
        },
        {
          "duration": 0.10000000000000142,
          "durationTicks": 240,
          "midi": 40,
          "name": "E2",
          "ticks": 64320,
          "time": 26.8,
          "velocity": 0.6692913385826772
        },
        {
          "duration": 0.10000000000000142,
          "durationTicks": 240,
          "midi": 46,
          "name": "A#2",
          "ticks": 64320,
          "time": 26.8,
          "velocity": 0.007874015748031496
        },
        {
          "duration": 0.10000000000000142,
          "durationTicks": 240,
          "midi": 46,
          "name": "A#2",
          "ticks": 64800,
          "time": 27,
          "velocity": 0.33858267716535434
        },
        {
          "duration": 0.09999999999999787,
          "durationTicks": 240,
          "midi": 46,
          "name": "A#2",
          "ticks": 65280,
          "time": 27.200000000000003,
          "velocity": 0.007874015748031496
        },
        {
          "duration": 0.09999999999999787,
          "durationTicks": 240,
          "midi": 35,
          "name": "B1",
          "ticks": 65280,
          "time": 27.200000000000003,
          "velocity": 1
        },
        {
          "duration": 0.09999999999999787,
          "durationTicks": 240,
          "midi": 46,
          "name": "A#2",
          "ticks": 65760,
          "time": 27.400000000000002,
          "velocity": 0.33858267716535434
        },
        {
          "duration": 0.10000000000000142,
          "durationTicks": 240,
          "midi": 46,
          "name": "A#2",
          "ticks": 66240,
          "time": 27.6,
          "velocity": 0.007874015748031496
        },
        {
          "duration": 0.10000000000000142,
          "durationTicks": 240,
          "midi": 35,
          "name": "B1",
          "ticks": 66240,
          "time": 27.6,
          "velocity": 1
        },
        {
          "duration": 0.10000000000000142,
          "durationTicks": 240,
          "midi": 40,
          "name": "E2",
          "ticks": 66240,
          "time": 27.6,
          "velocity": 0.6692913385826772
        },
        {
          "duration": 0.10000000000000142,
          "durationTicks": 240,
          "midi": 46,
          "name": "A#2",
          "ticks": 66720,
          "time": 27.8,
          "velocity": 0.33858267716535434
        },
        {
          "duration": 0.10000000000000142,
          "durationTicks": 240,
          "midi": 46,
          "name": "A#2",
          "ticks": 67200,
          "time": 28,
          "velocity": 0.007874015748031496
        },
        {
          "duration": 0.10000000000000142,
          "durationTicks": 240,
          "midi": 35,
          "name": "B1",
          "ticks": 67200,
          "time": 28,
          "velocity": 1
        },
        {
          "duration": 0.10000000000000142,
          "durationTicks": 240,
          "midi": 40,
          "name": "E2",
          "ticks": 67440,
          "time": 28.1,
          "velocity": 0.6692913385826772
        },
        {
          "duration": 0.09999999999999787,
          "durationTicks": 240,
          "midi": 46,
          "name": "A#2",
          "ticks": 67680,
          "time": 28.200000000000003,
          "velocity": 0.33858267716535434
        },
        {
          "duration": 0.09999999999999787,
          "durationTicks": 240,
          "midi": 46,
          "name": "A#2",
          "ticks": 68160,
          "time": 28.400000000000002,
          "velocity": 0.007874015748031496
        },
        {
          "duration": 0.09999999999999787,
          "durationTicks": 240,
          "midi": 35,
          "name": "B1",
          "ticks": 68160,
          "time": 28.400000000000002,
          "velocity": 1
        },
        {
          "duration": 0.09999999999999787,
          "durationTicks": 240,
          "midi": 40,
          "name": "E2",
          "ticks": 68160,
          "time": 28.400000000000002,
          "velocity": 0.6692913385826772
        },
        {
          "duration": 0.10000000000000142,
          "durationTicks": 240,
          "midi": 46,
          "name": "A#2",
          "ticks": 68640,
          "time": 28.6,
          "velocity": 0.33858267716535434
        },
        {
          "duration": 0.10000000000000142,
          "durationTicks": 240,
          "midi": 35,
          "name": "B1",
          "ticks": 68640,
          "time": 28.6,
          "velocity": 1
        },
        {
          "duration": 0.10000000000000142,
          "durationTicks": 240,
          "midi": 35,
          "name": "B1",
          "ticks": 69120,
          "time": 28.8,
          "velocity": 1
        },
        {
          "duration": 0.10000000000000142,
          "durationTicks": 240,
          "midi": 46,
          "name": "A#2",
          "ticks": 69120,
          "time": 28.8,
          "velocity": 0.007874015748031496
        },
        {
          "duration": 0.10000000000000142,
          "durationTicks": 240,
          "midi": 46,
          "name": "A#2",
          "ticks": 69600,
          "time": 29,
          "velocity": 0.33858267716535434
        },
        {
          "duration": 0.09999999999999787,
          "durationTicks": 240,
          "midi": 35,
          "name": "B1",
          "ticks": 70080,
          "time": 29.200000000000003,
          "velocity": 1
        },
        {
          "duration": 0.09999999999999787,
          "durationTicks": 240,
          "midi": 46,
          "name": "A#2",
          "ticks": 70080,
          "time": 29.200000000000003,
          "velocity": 0.007874015748031496
        },
        {
          "duration": 0.09999999999999787,
          "durationTicks": 240,
          "midi": 40,
          "name": "E2",
          "ticks": 70080,
          "time": 29.200000000000003,
          "velocity": 0.6692913385826772
        },
        {
          "duration": 0.09999999999999787,
          "durationTicks": 240,
          "midi": 46,
          "name": "A#2",
          "ticks": 70560,
          "time": 29.400000000000002,
          "velocity": 0.33858267716535434
        },
        {
          "duration": 0.10000000000000142,
          "durationTicks": 240,
          "midi": 35,
          "name": "B1",
          "ticks": 71040,
          "time": 29.6,
          "velocity": 1
        },
        {
          "duration": 0.10000000000000142,
          "durationTicks": 240,
          "midi": 46,
          "name": "A#2",
          "ticks": 71040,
          "time": 29.6,
          "velocity": 0.007874015748031496
        },
        {
          "duration": 0.10000000000000142,
          "durationTicks": 240,
          "midi": 46,
          "name": "A#2",
          "ticks": 71520,
          "time": 29.8,
          "velocity": 0.33858267716535434
        },
        {
          "duration": 0.10000000000000142,
          "durationTicks": 240,
          "midi": 35,
          "name": "B1",
          "ticks": 72000,
          "time": 30,
          "velocity": 1
        },
        {
          "duration": 0.10000000000000142,
          "durationTicks": 240,
          "midi": 46,
          "name": "A#2",
          "ticks": 72000,
          "time": 30,
          "velocity": 0.007874015748031496
        },
        {
          "duration": 0.10000000000000142,
          "durationTicks": 240,
          "midi": 40,
          "name": "E2",
          "ticks": 72000,
          "time": 30,
          "velocity": 0.6692913385826772
        },
        {
          "duration": 0.09999999999999787,
          "durationTicks": 240,
          "midi": 46,
          "name": "A#2",
          "ticks": 72480,
          "time": 30.200000000000003,
          "velocity": 0.33858267716535434
        },
        {
          "duration": 0.09999999999999787,
          "durationTicks": 240,
          "midi": 46,
          "name": "A#2",
          "ticks": 72960,
          "time": 30.400000000000002,
          "velocity": 0.007874015748031496
        },
        {
          "duration": 0.09999999999999787,
          "durationTicks": 240,
          "midi": 35,
          "name": "B1",
          "ticks": 72960,
          "time": 30.400000000000002,
          "velocity": 1
        },
        {
          "duration": 0.10000000000000142,
          "durationTicks": 240,
          "midi": 46,
          "name": "A#2",
          "ticks": 73440,
          "time": 30.6,
          "velocity": 0.33858267716535434
        },
        {
          "duration": 0.10000000000000142,
          "durationTicks": 240,
          "midi": 40,
          "name": "E2",
          "ticks": 73440,
          "time": 30.6,
          "velocity": 0.6692913385826772
        },
        {
          "duration": 0.10000000000000142,
          "durationTicks": 240,
          "midi": 46,
          "name": "A#2",
          "ticks": 73920,
          "time": 30.8,
          "velocity": 0.007874015748031496
        },
        {
          "duration": 0.10000000000000142,
          "durationTicks": 240,
          "midi": 35,
          "name": "B1",
          "ticks": 73920,
          "time": 30.8,
          "velocity": 1
        },
        {
          "duration": 0.10000000000000142,
          "durationTicks": 240,
          "midi": 40,
          "name": "E2",
          "ticks": 73920,
          "time": 30.8,
          "velocity": 0.6692913385826772
        },
        {
          "duration": 0.10000000000000142,
          "durationTicks": 240,
          "midi": 46,
          "name": "A#2",
          "ticks": 74400,
          "time": 31,
          "velocity": 0.33858267716535434
        },
        {
          "duration": 0.10000000000000142,
          "durationTicks": 240,
          "midi": 40,
          "name": "E2",
          "ticks": 74640,
          "time": 31.1,
          "velocity": 0.6692913385826772
        },
        {
          "duration": 0.09999999999999787,
          "durationTicks": 240,
          "midi": 46,
          "name": "A#2",
          "ticks": 74880,
          "time": 31.200000000000003,
          "velocity": 0.007874015748031496
        },
        {
          "duration": 0.09999999999999787,
          "durationTicks": 240,
          "midi": 35,
          "name": "B1",
          "ticks": 74880,
          "time": 31.200000000000003,
          "velocity": 1
        },
        {
          "duration": 0.10000000000000142,
          "durationTicks": 240,
          "midi": 40,
          "name": "E2",
          "ticks": 75120,
          "time": 31.3,
          "velocity": 0.6692913385826772
        },
        {
          "duration": 0.09999999999999787,
          "durationTicks": 240,
          "midi": 46,
          "name": "A#2",
          "ticks": 75360,
          "time": 31.400000000000002,
          "velocity": 0.33858267716535434
        },
        {
          "duration": 0.09999999999999787,
          "durationTicks": 240,
          "midi": 35,
          "name": "B1",
          "ticks": 75360,
          "time": 31.400000000000002,
          "velocity": 1
        },
        {
          "duration": 0.10000000000000142,
          "durationTicks": 240,
          "midi": 46,
          "name": "A#2",
          "ticks": 75840,
          "time": 31.6,
          "velocity": 0.007874015748031496
        },
        {
          "duration": 0.10000000000000142,
          "durationTicks": 240,
          "midi": 35,
          "name": "B1",
          "ticks": 75840,
          "time": 31.6,
          "velocity": 1
        },
        {
          "duration": 0.10000000000000142,
          "durationTicks": 240,
          "midi": 40,
          "name": "E2",
          "ticks": 75840,
          "time": 31.6,
          "velocity": 0.6692913385826772
        },
        {
          "duration": 0.10000000000000142,
          "durationTicks": 240,
          "midi": 46,
          "name": "A#2",
          "ticks": 76320,
          "time": 31.8,
          "velocity": 0.33858267716535434
        },
        {
          "duration": 0.10000000000000142,
          "durationTicks": 240,
          "midi": 35,
          "name": "B1",
          "ticks": 76320,
          "time": 31.8,
          "velocity": 1
        },
        {
          "duration": 0.10000000000000142,
          "durationTicks": 240,
          "midi": 46,
          "name": "A#2",
          "ticks": 76800,
          "time": 32,
          "velocity": 0.007874015748031496
        },
        {
          "duration": 0.10000000000000142,
          "durationTicks": 240,
          "midi": 35,
          "name": "B1",
          "ticks": 76800,
          "time": 32,
          "velocity": 1
        },
        {
          "duration": 0.10000000000000142,
          "durationTicks": 240,
          "midi": 46,
          "name": "A#2",
          "ticks": 77280,
          "time": 32.2,
          "velocity": 0.33858267716535434
        },
        {
          "duration": 0.10000000000000142,
          "durationTicks": 240,
          "midi": 46,
          "name": "A#2",
          "ticks": 77760,
          "time": 32.4,
          "velocity": 0.007874015748031496
        },
        {
          "duration": 0.10000000000000142,
          "durationTicks": 240,
          "midi": 40,
          "name": "E2",
          "ticks": 77760,
          "time": 32.4,
          "velocity": 0.6692913385826772
        },
        {
          "duration": 0.10000000000000142,
          "durationTicks": 240,
          "midi": 35,
          "name": "B1",
          "ticks": 77760,
          "time": 32.4,
          "velocity": 1
        },
        {
          "duration": 0.10000000000000142,
          "durationTicks": 240,
          "midi": 46,
          "name": "A#2",
          "ticks": 78240,
          "time": 32.6,
          "velocity": 0.33858267716535434
        },
        {
          "duration": 0.09999999999999432,
          "durationTicks": 240,
          "midi": 46,
          "name": "A#2",
          "ticks": 78720,
          "time": 32.800000000000004,
          "velocity": 0.007874015748031496
        },
        {
          "duration": 0.09999999999999432,
          "durationTicks": 240,
          "midi": 35,
          "name": "B1",
          "ticks": 78720,
          "time": 32.800000000000004,
          "velocity": 1
        },
        {
          "duration": 0.10000000000000142,
          "durationTicks": 240,
          "midi": 46,
          "name": "A#2",
          "ticks": 79200,
          "time": 33,
          "velocity": 0.33858267716535434
        },
        {
          "duration": 0.10000000000000142,
          "durationTicks": 240,
          "midi": 46,
          "name": "A#2",
          "ticks": 79680,
          "time": 33.2,
          "velocity": 0.007874015748031496
        },
        {
          "duration": 0.10000000000000142,
          "durationTicks": 240,
          "midi": 40,
          "name": "E2",
          "ticks": 79680,
          "time": 33.2,
          "velocity": 0.6692913385826772
        },
        {
          "duration": 0.10000000000000142,
          "durationTicks": 240,
          "midi": 35,
          "name": "B1",
          "ticks": 79680,
          "time": 33.2,
          "velocity": 1
        },
        {
          "duration": 0.10000000000000142,
          "durationTicks": 240,
          "midi": 46,
          "name": "A#2",
          "ticks": 80160,
          "time": 33.4,
          "velocity": 0.33858267716535434
        },
        {
          "duration": 0.10000000000000142,
          "durationTicks": 240,
          "midi": 35,
          "name": "B1",
          "ticks": 80640,
          "time": 33.6,
          "velocity": 1
        },
        {
          "duration": 0.10000000000000142,
          "durationTicks": 240,
          "midi": 46,
          "name": "A#2",
          "ticks": 80640,
          "time": 33.6,
          "velocity": 0.007874015748031496
        },
        {
          "duration": 0.09999999999999432,
          "durationTicks": 240,
          "midi": 46,
          "name": "A#2",
          "ticks": 81120,
          "time": 33.800000000000004,
          "velocity": 0.33858267716535434
        },
        {
          "duration": 0.10000000000000142,
          "durationTicks": 240,
          "midi": 35,
          "name": "B1",
          "ticks": 81600,
          "time": 34,
          "velocity": 1
        },
        {
          "duration": 0.10000000000000142,
          "durationTicks": 240,
          "midi": 46,
          "name": "A#2",
          "ticks": 81600,
          "time": 34,
          "velocity": 0.007874015748031496
        },
        {
          "duration": 0.10000000000000142,
          "durationTicks": 240,
          "midi": 40,
          "name": "E2",
          "ticks": 81600,
          "time": 34,
          "velocity": 0.6692913385826772
        },
        {
          "duration": 0.10000000000000142,
          "durationTicks": 240,
          "midi": 46,
          "name": "A#2",
          "ticks": 82080,
          "time": 34.2,
          "velocity": 0.33858267716535434
        },
        {
          "duration": 0.10000000000000142,
          "durationTicks": 240,
          "midi": 35,
          "name": "B1",
          "ticks": 82560,
          "time": 34.4,
          "velocity": 1
        },
        {
          "duration": 0.10000000000000142,
          "durationTicks": 240,
          "midi": 46,
          "name": "A#2",
          "ticks": 82560,
          "time": 34.4,
          "velocity": 0.007874015748031496
        },
        {
          "duration": 0.10000000000000142,
          "durationTicks": 240,
          "midi": 46,
          "name": "A#2",
          "ticks": 83040,
          "time": 34.6,
          "velocity": 0.33858267716535434
        },
        {
          "duration": 0.10000000000000142,
          "durationTicks": 240,
          "midi": 40,
          "name": "E2",
          "ticks": 83280,
          "time": 34.7,
          "velocity": 0.6692913385826772
        },
        {
          "duration": 0.09999999999999432,
          "durationTicks": 240,
          "midi": 35,
          "name": "B1",
          "ticks": 83520,
          "time": 34.800000000000004,
          "velocity": 1
        },
        {
          "duration": 0.09999999999999432,
          "durationTicks": 240,
          "midi": 46,
          "name": "A#2",
          "ticks": 83520,
          "time": 34.800000000000004,
          "velocity": 0.007874015748031496
        },
        {
          "duration": 0.09999999999999432,
          "durationTicks": 240,
          "midi": 40,
          "name": "E2",
          "ticks": 83520,
          "time": 34.800000000000004,
          "velocity": 0.6692913385826772
        },
        {
          "duration": 0.10000000000000142,
          "durationTicks": 240,
          "midi": 35,
          "name": "B1",
          "ticks": 84000,
          "time": 35,
          "velocity": 1
        },
        {
          "duration": 0.10000000000000142,
          "durationTicks": 240,
          "midi": 46,
          "name": "A#2",
          "ticks": 84000,
          "time": 35,
          "velocity": 0.33858267716535434
        },
        {
          "duration": 0.10000000000000142,
          "durationTicks": 240,
          "midi": 40,
          "name": "E2",
          "ticks": 84000,
          "time": 35,
          "velocity": 0.6692913385826772
        },
        {
          "duration": 0.10000000000000142,
          "durationTicks": 240,
          "midi": 46,
          "name": "A#2",
          "ticks": 84480,
          "time": 35.2,
          "velocity": 0.007874015748031496
        },
        {
          "duration": 0.10000000000000142,
          "durationTicks": 240,
          "midi": 35,
          "name": "B1",
          "ticks": 84480,
          "time": 35.2,
          "velocity": 1
        },
        {
          "duration": 0.10000000000000142,
          "durationTicks": 240,
          "midi": 46,
          "name": "A#2",
          "ticks": 84960,
          "time": 35.4,
          "velocity": 0.33858267716535434
        },
        {
          "duration": 0.10000000000000142,
          "durationTicks": 240,
          "midi": 46,
          "name": "A#2",
          "ticks": 85440,
          "time": 35.6,
          "velocity": 0.007874015748031496
        },
        {
          "duration": 0.10000000000000142,
          "durationTicks": 240,
          "midi": 40,
          "name": "E2",
          "ticks": 85440,
          "time": 35.6,
          "velocity": 0.6692913385826772
        },
        {
          "duration": 0.10000000000000142,
          "durationTicks": 240,
          "midi": 35,
          "name": "B1",
          "ticks": 85440,
          "time": 35.6,
          "velocity": 1
        },
        {
          "duration": 0.09999999999999432,
          "durationTicks": 240,
          "midi": 46,
          "name": "A#2",
          "ticks": 85920,
          "time": 35.800000000000004,
          "velocity": 0.33858267716535434
        },
        {
          "duration": 0.10000000000000142,
          "durationTicks": 240,
          "midi": 46,
          "name": "A#2",
          "ticks": 86400,
          "time": 36,
          "velocity": 0.007874015748031496
        },
        {
          "duration": 0.10000000000000142,
          "durationTicks": 240,
          "midi": 35,
          "name": "B1",
          "ticks": 86400,
          "time": 36,
          "velocity": 1
        },
        {
          "duration": 0.10000000000000142,
          "durationTicks": 240,
          "midi": 46,
          "name": "A#2",
          "ticks": 86880,
          "time": 36.2,
          "velocity": 0.33858267716535434
        },
        {
          "duration": 0.10000000000000142,
          "durationTicks": 240,
          "midi": 46,
          "name": "A#2",
          "ticks": 87360,
          "time": 36.4,
          "velocity": 0.007874015748031496
        },
        {
          "duration": 0.10000000000000142,
          "durationTicks": 240,
          "midi": 40,
          "name": "E2",
          "ticks": 87360,
          "time": 36.4,
          "velocity": 0.6692913385826772
        },
        {
          "duration": 0.10000000000000142,
          "durationTicks": 240,
          "midi": 35,
          "name": "B1",
          "ticks": 87360,
          "time": 36.4,
          "velocity": 1
        },
        {
          "duration": 0.10000000000000142,
          "durationTicks": 240,
          "midi": 46,
          "name": "A#2",
          "ticks": 87840,
          "time": 36.6,
          "velocity": 0.33858267716535434
        },
        {
          "duration": 0.09999999999999432,
          "durationTicks": 240,
          "midi": 35,
          "name": "B1",
          "ticks": 88320,
          "time": 36.800000000000004,
          "velocity": 1
        },
        {
          "duration": 0.09999999999999432,
          "durationTicks": 240,
          "midi": 46,
          "name": "A#2",
          "ticks": 88320,
          "time": 36.800000000000004,
          "velocity": 0.007874015748031496
        },
        {
          "duration": 0.10000000000000142,
          "durationTicks": 240,
          "midi": 46,
          "name": "A#2",
          "ticks": 88800,
          "time": 37,
          "velocity": 0.33858267716535434
        },
        {
          "duration": 0.10000000000000142,
          "durationTicks": 240,
          "midi": 35,
          "name": "B1",
          "ticks": 89280,
          "time": 37.2,
          "velocity": 1
        },
        {
          "duration": 0.10000000000000142,
          "durationTicks": 240,
          "midi": 46,
          "name": "A#2",
          "ticks": 89280,
          "time": 37.2,
          "velocity": 0.007874015748031496
        },
        {
          "duration": 0.10000000000000142,
          "durationTicks": 240,
          "midi": 40,
          "name": "E2",
          "ticks": 89280,
          "time": 37.2,
          "velocity": 0.6692913385826772
        },
        {
          "duration": 0.10000000000000142,
          "durationTicks": 240,
          "midi": 46,
          "name": "A#2",
          "ticks": 89760,
          "time": 37.4,
          "velocity": 0.33858267716535434
        },
        {
          "duration": 0.10000000000000142,
          "durationTicks": 240,
          "midi": 35,
          "name": "B1",
          "ticks": 90240,
          "time": 37.6,
          "velocity": 1
        },
        {
          "duration": 0.10000000000000142,
          "durationTicks": 240,
          "midi": 46,
          "name": "A#2",
          "ticks": 90240,
          "time": 37.6,
          "velocity": 0.007874015748031496
        },
        {
          "duration": 0.09999999999999432,
          "durationTicks": 240,
          "midi": 35,
          "name": "B1",
          "ticks": 90720,
          "time": 37.800000000000004,
          "velocity": 1
        },
        {
          "duration": 0.09999999999999432,
          "durationTicks": 240,
          "midi": 46,
          "name": "A#2",
          "ticks": 90720,
          "time": 37.800000000000004,
          "velocity": 0.33858267716535434
        },
        {
          "duration": 0.10000000000000142,
          "durationTicks": 240,
          "midi": 35,
          "name": "B1",
          "ticks": 91200,
          "time": 38,
          "velocity": 1
        },
        {
          "duration": 0.10000000000000142,
          "durationTicks": 240,
          "midi": 40,
          "name": "E2",
          "ticks": 91200,
          "time": 38,
          "velocity": 0.6692913385826772
        },
        {
          "duration": 0.10000000000000142,
          "durationTicks": 240,
          "midi": 46,
          "name": "A#2",
          "ticks": 91200,
          "time": 38,
          "velocity": 0.007874015748031496
        },
        {
          "duration": 0.10000000000000142,
          "durationTicks": 240,
          "midi": 35,
          "name": "B1",
          "ticks": 91680,
          "time": 38.2,
          "velocity": 1
        },
        {
          "duration": 0.10000000000000142,
          "durationTicks": 240,
          "midi": 46,
          "name": "A#2",
          "ticks": 91680,
          "time": 38.2,
          "velocity": 0.33858267716535434
        },
        {
          "duration": 0.09999999999999432,
          "durationTicks": 240,
          "midi": 35,
          "name": "B1",
          "ticks": 92160,
          "time": 38.400000000000006,
          "velocity": 1
        },
        {
          "duration": 0.09999999999999432,
          "durationTicks": 240,
          "midi": 46,
          "name": "A#2",
          "ticks": 92160,
          "time": 38.400000000000006,
          "velocity": 0.007874015748031496
        },
        {
          "duration": 0.10000000000000142,
          "durationTicks": 240,
          "midi": 46,
          "name": "A#2",
          "ticks": 92640,
          "time": 38.6,
          "velocity": 0.33858267716535434
        },
        {
          "duration": 0.10000000000000142,
          "durationTicks": 240,
          "midi": 35,
          "name": "B1",
          "ticks": 93120,
          "time": 38.800000000000004,
          "velocity": 1
        },
        {
          "duration": 0.10000000000000142,
          "durationTicks": 240,
          "midi": 40,
          "name": "E2",
          "ticks": 93120,
          "time": 38.800000000000004,
          "velocity": 0.6692913385826772
        },
        {
          "duration": 0.10000000000000142,
          "durationTicks": 240,
          "midi": 46,
          "name": "A#2",
          "ticks": 93120,
          "time": 38.800000000000004,
          "velocity": 0.007874015748031496
        },
        {
          "duration": 0.10000000000000142,
          "durationTicks": 240,
          "midi": 46,
          "name": "A#2",
          "ticks": 93600,
          "time": 39,
          "velocity": 0.33858267716535434
        },
        {
          "duration": 0.10000000000000142,
          "durationTicks": 240,
          "midi": 46,
          "name": "A#2",
          "ticks": 94080,
          "time": 39.2,
          "velocity": 0.007874015748031496
        },
        {
          "duration": 0.10000000000000142,
          "durationTicks": 240,
          "midi": 35,
          "name": "B1",
          "ticks": 94080,
          "time": 39.2,
          "velocity": 1
        },
        {
          "duration": 0.09999999999999432,
          "durationTicks": 240,
          "midi": 46,
          "name": "A#2",
          "ticks": 94560,
          "time": 39.400000000000006,
          "velocity": 0.33858267716535434
        },
        {
          "duration": 0.10000000000000142,
          "durationTicks": 240,
          "midi": 46,
          "name": "A#2",
          "ticks": 95040,
          "time": 39.6,
          "velocity": 0.007874015748031496
        },
        {
          "duration": 0.10000000000000142,
          "durationTicks": 240,
          "midi": 35,
          "name": "B1",
          "ticks": 95040,
          "time": 39.6,
          "velocity": 1
        },
        {
          "duration": 0.10000000000000142,
          "durationTicks": 240,
          "midi": 40,
          "name": "E2",
          "ticks": 95040,
          "time": 39.6,
          "velocity": 0.6692913385826772
        },
        {
          "duration": 0.10000000000000142,
          "durationTicks": 240,
          "midi": 46,
          "name": "A#2",
          "ticks": 95520,
          "time": 39.800000000000004,
          "velocity": 0.33858267716535434
        },
        {
          "duration": 0.10000000000000142,
          "durationTicks": 240,
          "midi": 46,
          "name": "A#2",
          "ticks": 96000,
          "time": 40,
          "velocity": 0.007874015748031496
        },
        {
          "duration": 0.10000000000000142,
          "durationTicks": 240,
          "midi": 35,
          "name": "B1",
          "ticks": 96000,
          "time": 40,
          "velocity": 1
        },
        {
          "duration": 0.10000000000000142,
          "durationTicks": 240,
          "midi": 46,
          "name": "A#2",
          "ticks": 96480,
          "time": 40.2,
          "velocity": 0.33858267716535434
        },
        {
          "duration": 0.09999999999999432,
          "durationTicks": 240,
          "midi": 46,
          "name": "A#2",
          "ticks": 96960,
          "time": 40.400000000000006,
          "velocity": 0.007874015748031496
        },
        {
          "duration": 0.09999999999999432,
          "durationTicks": 240,
          "midi": 35,
          "name": "B1",
          "ticks": 96960,
          "time": 40.400000000000006,
          "velocity": 1
        },
        {
          "duration": 0.09999999999999432,
          "durationTicks": 240,
          "midi": 40,
          "name": "E2",
          "ticks": 96960,
          "time": 40.400000000000006,
          "velocity": 0.6692913385826772
        },
        {
          "duration": 0.10000000000000142,
          "durationTicks": 240,
          "midi": 46,
          "name": "A#2",
          "ticks": 97440,
          "time": 40.6,
          "velocity": 0.33858267716535434
        },
        {
          "duration": 0.10000000000000142,
          "durationTicks": 240,
          "midi": 46,
          "name": "A#2",
          "ticks": 97920,
          "time": 40.800000000000004,
          "velocity": 0.007874015748031496
        },
        {
          "duration": 0.10000000000000142,
          "durationTicks": 240,
          "midi": 35,
          "name": "B1",
          "ticks": 97920,
          "time": 40.800000000000004,
          "velocity": 1
        },
        {
          "duration": 0.09999999999999432,
          "durationTicks": 240,
          "midi": 40,
          "name": "E2",
          "ticks": 98160,
          "time": 40.900000000000006,
          "velocity": 0.6692913385826772
        },
        {
          "duration": 0.10000000000000142,
          "durationTicks": 240,
          "midi": 46,
          "name": "A#2",
          "ticks": 98400,
          "time": 41,
          "velocity": 0.33858267716535434
        },
        {
          "duration": 0.10000000000000142,
          "durationTicks": 240,
          "midi": 46,
          "name": "A#2",
          "ticks": 98880,
          "time": 41.2,
          "velocity": 0.007874015748031496
        },
        {
          "duration": 0.10000000000000142,
          "durationTicks": 240,
          "midi": 35,
          "name": "B1",
          "ticks": 98880,
          "time": 41.2,
          "velocity": 1
        },
        {
          "duration": 0.10000000000000142,
          "durationTicks": 240,
          "midi": 40,
          "name": "E2",
          "ticks": 98880,
          "time": 41.2,
          "velocity": 0.6692913385826772
        },
        {
          "duration": 0.09999999999999432,
          "durationTicks": 240,
          "midi": 46,
          "name": "A#2",
          "ticks": 99360,
          "time": 41.400000000000006,
          "velocity": 0.33858267716535434
        },
        {
          "duration": 0.09999999999999432,
          "durationTicks": 240,
          "midi": 35,
          "name": "B1",
          "ticks": 99360,
          "time": 41.400000000000006,
          "velocity": 1
        },
        {
          "duration": 0.10000000000000142,
          "durationTicks": 240,
          "midi": 46,
          "name": "A#2",
          "ticks": 99840,
          "time": 41.6,
          "velocity": 0.007874015748031496
        },
        {
          "duration": 0.10000000000000142,
          "durationTicks": 240,
          "midi": 35,
          "name": "B1",
          "ticks": 99840,
          "time": 41.6,
          "velocity": 1
        },
        {
          "duration": 0.10000000000000142,
          "durationTicks": 240,
          "midi": 46,
          "name": "A#2",
          "ticks": 100320,
          "time": 41.800000000000004,
          "velocity": 0.33858267716535434
        },
        {
          "duration": 0.10000000000000142,
          "durationTicks": 240,
          "midi": 40,
          "name": "E2",
          "ticks": 100800,
          "time": 42,
          "velocity": 0.6692913385826772
        },
        {
          "duration": 0.10000000000000142,
          "durationTicks": 240,
          "midi": 46,
          "name": "A#2",
          "ticks": 100800,
          "time": 42,
          "velocity": 0.007874015748031496
        },
        {
          "duration": 0.10000000000000142,
          "durationTicks": 240,
          "midi": 35,
          "name": "B1",
          "ticks": 100800,
          "time": 42,
          "velocity": 1
        },
        {
          "duration": 0.10000000000000142,
          "durationTicks": 240,
          "midi": 46,
          "name": "A#2",
          "ticks": 101280,
          "time": 42.2,
          "velocity": 0.33858267716535434
        },
        {
          "duration": 0.09999999999999432,
          "durationTicks": 240,
          "midi": 46,
          "name": "A#2",
          "ticks": 101760,
          "time": 42.400000000000006,
          "velocity": 0.007874015748031496
        },
        {
          "duration": 0.09999999999999432,
          "durationTicks": 240,
          "midi": 35,
          "name": "B1",
          "ticks": 101760,
          "time": 42.400000000000006,
          "velocity": 1
        },
        {
          "duration": 0.10000000000000142,
          "durationTicks": 240,
          "midi": 46,
          "name": "A#2",
          "ticks": 102240,
          "time": 42.6,
          "velocity": 0.33858267716535434
        },
        {
          "duration": 0.10000000000000142,
          "durationTicks": 240,
          "midi": 40,
          "name": "E2",
          "ticks": 102720,
          "time": 42.800000000000004,
          "velocity": 0.6692913385826772
        },
        {
          "duration": 0.10000000000000142,
          "durationTicks": 240,
          "midi": 46,
          "name": "A#2",
          "ticks": 102720,
          "time": 42.800000000000004,
          "velocity": 0.007874015748031496
        },
        {
          "duration": 0.10000000000000142,
          "durationTicks": 240,
          "midi": 35,
          "name": "B1",
          "ticks": 102720,
          "time": 42.800000000000004,
          "velocity": 1
        },
        {
          "duration": 0.10000000000000142,
          "durationTicks": 240,
          "midi": 46,
          "name": "A#2",
          "ticks": 103200,
          "time": 43,
          "velocity": 0.33858267716535434
        },
        {
          "duration": 0.10000000000000142,
          "durationTicks": 240,
          "midi": 35,
          "name": "B1",
          "ticks": 103680,
          "time": 43.2,
          "velocity": 1
        },
        {
          "duration": 0.10000000000000142,
          "durationTicks": 240,
          "midi": 46,
          "name": "A#2",
          "ticks": 103680,
          "time": 43.2,
          "velocity": 0.007874015748031496
        },
        {
          "duration": 0.09999999999999432,
          "durationTicks": 240,
          "midi": 40,
          "name": "E2",
          "ticks": 104160,
          "time": 43.400000000000006,
          "velocity": 0.6692913385826772
        },
        {
          "duration": 0.09999999999999432,
          "durationTicks": 240,
          "midi": 46,
          "name": "A#2",
          "ticks": 104160,
          "time": 43.400000000000006,
          "velocity": 0.33858267716535434
        },
        {
          "duration": 0.10000000000000142,
          "durationTicks": 240,
          "midi": 35,
          "name": "B1",
          "ticks": 104640,
          "time": 43.6,
          "velocity": 1
        },
        {
          "duration": 0.10000000000000142,
          "durationTicks": 240,
          "midi": 40,
          "name": "E2",
          "ticks": 104640,
          "time": 43.6,
          "velocity": 0.6692913385826772
        },
        {
          "duration": 0.10000000000000142,
          "durationTicks": 240,
          "midi": 46,
          "name": "A#2",
          "ticks": 104640,
          "time": 43.6,
          "velocity": 0.007874015748031496
        },
        {
          "duration": 0.10000000000000142,
          "durationTicks": 240,
          "midi": 46,
          "name": "A#2",
          "ticks": 105120,
          "time": 43.800000000000004,
          "velocity": 0.33858267716535434
        },
        {
          "duration": 0.10000000000000142,
          "durationTicks": 240,
          "midi": 35,
          "name": "B1",
          "ticks": 105600,
          "time": 44,
          "velocity": 1
        },
        {
          "duration": 0.10000000000000142,
          "durationTicks": 240,
          "midi": 46,
          "name": "A#2",
          "ticks": 105600,
          "time": 44,
          "velocity": 0.007874015748031496
        },
        {
          "duration": 0.10000000000000142,
          "durationTicks": 240,
          "midi": 40,
          "name": "E2",
          "ticks": 105840,
          "time": 44.1,
          "velocity": 0.6692913385826772
        },
        {
          "duration": 0.10000000000000142,
          "durationTicks": 240,
          "midi": 35,
          "name": "B1",
          "ticks": 106080,
          "time": 44.2,
          "velocity": 1
        },
        {
          "duration": 0.10000000000000142,
          "durationTicks": 240,
          "midi": 46,
          "name": "A#2",
          "ticks": 106080,
          "time": 44.2,
          "velocity": 0.33858267716535434
        },
        {
          "duration": 0.10000000000000142,
          "durationTicks": 240,
          "midi": 40,
          "name": "E2",
          "ticks": 106320,
          "time": 44.300000000000004,
          "velocity": 0.6692913385826772
        },
        {
          "duration": 0.09999999999999432,
          "durationTicks": 240,
          "midi": 35,
          "name": "B1",
          "ticks": 106560,
          "time": 44.400000000000006,
          "velocity": 1
        },
        {
          "duration": 0.09999999999999432,
          "durationTicks": 240,
          "midi": 46,
          "name": "A#2",
          "ticks": 106560,
          "time": 44.400000000000006,
          "velocity": 0.007874015748031496
        },
        {
          "duration": 0.10000000000000142,
          "durationTicks": 240,
          "midi": 35,
          "name": "B1",
          "ticks": 107040,
          "time": 44.6,
          "velocity": 1
        },
        {
          "duration": 0.10000000000000142,
          "durationTicks": 240,
          "midi": 40,
          "name": "E2",
          "ticks": 107040,
          "time": 44.6,
          "velocity": 0.6692913385826772
        },
        {
          "duration": 0.10000000000000142,
          "durationTicks": 240,
          "midi": 46,
          "name": "A#2",
          "ticks": 107040,
          "time": 44.6,
          "velocity": 0.33858267716535434
        },
        {
          "duration": 0.10000000000000142,
          "durationTicks": 240,
          "midi": 35,
          "name": "B1",
          "ticks": 107520,
          "time": 44.800000000000004,
          "velocity": 1
        },
        {
          "duration": 0.10000000000000142,
          "durationTicks": 240,
          "midi": 46,
          "name": "A#2",
          "ticks": 107520,
          "time": 44.800000000000004,
          "velocity": 0.007874015748031496
        },
        {
          "duration": 0.10000000000000142,
          "durationTicks": 240,
          "midi": 46,
          "name": "A#2",
          "ticks": 108000,
          "time": 45,
          "velocity": 0.33858267716535434
        },
        {
          "duration": 0.10000000000000142,
          "durationTicks": 240,
          "midi": 35,
          "name": "B1",
          "ticks": 108480,
          "time": 45.2,
          "velocity": 1
        },
        {
          "duration": 0.10000000000000142,
          "durationTicks": 240,
          "midi": 46,
          "name": "A#2",
          "ticks": 108480,
          "time": 45.2,
          "velocity": 0.007874015748031496
        },
        {
          "duration": 0.10000000000000142,
          "durationTicks": 240,
          "midi": 40,
          "name": "E2",
          "ticks": 108480,
          "time": 45.2,
          "velocity": 0.6692913385826772
        },
        {
          "duration": 0.09999999999999432,
          "durationTicks": 240,
          "midi": 46,
          "name": "A#2",
          "ticks": 108960,
          "time": 45.400000000000006,
          "velocity": 0.33858267716535434
        },
        {
          "duration": 0.10000000000000142,
          "durationTicks": 240,
          "midi": 35,
          "name": "B1",
          "ticks": 109440,
          "time": 45.6,
          "velocity": 1
        },
        {
          "duration": 0.10000000000000142,
          "durationTicks": 240,
          "midi": 46,
          "name": "A#2",
          "ticks": 109440,
          "time": 45.6,
          "velocity": 0.007874015748031496
        },
        {
          "duration": 0.10000000000000142,
          "durationTicks": 240,
          "midi": 46,
          "name": "A#2",
          "ticks": 109920,
          "time": 45.800000000000004,
          "velocity": 0.33858267716535434
        },
        {
          "duration": 0.10000000000000142,
          "durationTicks": 240,
          "midi": 35,
          "name": "B1",
          "ticks": 110400,
          "time": 46,
          "velocity": 1
        },
        {
          "duration": 0.10000000000000142,
          "durationTicks": 240,
          "midi": 46,
          "name": "A#2",
          "ticks": 110400,
          "time": 46,
          "velocity": 0.007874015748031496
        },
        {
          "duration": 0.10000000000000142,
          "durationTicks": 240,
          "midi": 46,
          "name": "A#2",
          "ticks": 110880,
          "time": 46.2,
          "velocity": 0.33858267716535434
        },
        {
          "duration": 0.09999999999999432,
          "durationTicks": 240,
          "midi": 35,
          "name": "B1",
          "ticks": 111360,
          "time": 46.400000000000006,
          "velocity": 1
        },
        {
          "duration": 0.09999999999999432,
          "durationTicks": 240,
          "midi": 46,
          "name": "A#2",
          "ticks": 111360,
          "time": 46.400000000000006,
          "velocity": 0.007874015748031496
        },
        {
          "duration": 0.10000000000000142,
          "durationTicks": 240,
          "midi": 46,
          "name": "A#2",
          "ticks": 111840,
          "time": 46.6,
          "velocity": 0.33858267716535434
        },
        {
          "duration": 0.10000000000000142,
          "durationTicks": 240,
          "midi": 35,
          "name": "B1",
          "ticks": 112320,
          "time": 46.800000000000004,
          "velocity": 1
        },
        {
          "duration": 0.10000000000000142,
          "durationTicks": 240,
          "midi": 46,
          "name": "A#2",
          "ticks": 112320,
          "time": 46.800000000000004,
          "velocity": 0.007874015748031496
        },
        {
          "duration": 0.10000000000000142,
          "durationTicks": 240,
          "midi": 40,
          "name": "E2",
          "ticks": 112320,
          "time": 46.800000000000004,
          "velocity": 0.6692913385826772
        },
        {
          "duration": 0.10000000000000142,
          "durationTicks": 240,
          "midi": 46,
          "name": "A#2",
          "ticks": 112800,
          "time": 47,
          "velocity": 0.33858267716535434
        },
        {
          "duration": 0.10000000000000142,
          "durationTicks": 240,
          "midi": 35,
          "name": "B1",
          "ticks": 113280,
          "time": 47.2,
          "velocity": 1
        },
        {
          "duration": 0.10000000000000142,
          "durationTicks": 240,
          "midi": 46,
          "name": "A#2",
          "ticks": 113280,
          "time": 47.2,
          "velocity": 0.007874015748031496
        },
        {
          "duration": 0.09999999999999432,
          "durationTicks": 240,
          "midi": 46,
          "name": "A#2",
          "ticks": 113760,
          "time": 47.400000000000006,
          "velocity": 0.33858267716535434
        },
        {
          "duration": 0.10000000000000142,
          "durationTicks": 240,
          "midi": 35,
          "name": "B1",
          "ticks": 114240,
          "time": 47.6,
          "velocity": 1
        },
        {
          "duration": 0.10000000000000142,
          "durationTicks": 240,
          "midi": 46,
          "name": "A#2",
          "ticks": 114240,
          "time": 47.6,
          "velocity": 0.007874015748031496
        },
        {
          "duration": 0.10000000000000142,
          "durationTicks": 240,
          "midi": 46,
          "name": "A#2",
          "ticks": 114720,
          "time": 47.800000000000004,
          "velocity": 0.33858267716535434
        },
        {
          "duration": 0.10000000000000142,
          "durationTicks": 240,
          "midi": 40,
          "name": "E2",
          "ticks": 114720,
          "time": 47.800000000000004,
          "velocity": 0.6692913385826772
        },
        {
          "duration": 0.10000000000000142,
          "durationTicks": 240,
          "midi": 35,
          "name": "B1",
          "ticks": 115200,
          "time": 48,
          "velocity": 1
        },
        {
          "duration": 0.10000000000000142,
          "durationTicks": 240,
          "midi": 46,
          "name": "A#2",
          "ticks": 115200,
          "time": 48,
          "velocity": 0.007874015748031496
        },
        {
          "duration": 0.10000000000000142,
          "durationTicks": 240,
          "midi": 46,
          "name": "A#2",
          "ticks": 115680,
          "time": 48.2,
          "velocity": 0.33858267716535434
        },
        {
          "duration": 0.09999999999999432,
          "durationTicks": 240,
          "midi": 35,
          "name": "B1",
          "ticks": 116160,
          "time": 48.400000000000006,
          "velocity": 1
        },
        {
          "duration": 0.09999999999999432,
          "durationTicks": 240,
          "midi": 46,
          "name": "A#2",
          "ticks": 116160,
          "time": 48.400000000000006,
          "velocity": 0.007874015748031496
        },
        {
          "duration": 0.09999999999999432,
          "durationTicks": 240,
          "midi": 40,
          "name": "E2",
          "ticks": 116160,
          "time": 48.400000000000006,
          "velocity": 0.6692913385826772
        },
        {
          "duration": 0.10000000000000142,
          "durationTicks": 240,
          "midi": 46,
          "name": "A#2",
          "ticks": 116640,
          "time": 48.6,
          "velocity": 0.33858267716535434
        },
        {
          "duration": 0.10000000000000142,
          "durationTicks": 240,
          "midi": 35,
          "name": "B1",
          "ticks": 117120,
          "time": 48.800000000000004,
          "velocity": 1
        },
        {
          "duration": 0.10000000000000142,
          "durationTicks": 240,
          "midi": 46,
          "name": "A#2",
          "ticks": 117120,
          "time": 48.800000000000004,
          "velocity": 0.007874015748031496
        },
        {
          "duration": 0.10000000000000142,
          "durationTicks": 240,
          "midi": 46,
          "name": "A#2",
          "ticks": 117600,
          "time": 49,
          "velocity": 0.33858267716535434
        },
        {
          "duration": 0.10000000000000142,
          "durationTicks": 240,
          "midi": 35,
          "name": "B1",
          "ticks": 118080,
          "time": 49.2,
          "velocity": 1
        },
        {
          "duration": 0.10000000000000142,
          "durationTicks": 240,
          "midi": 46,
          "name": "A#2",
          "ticks": 118080,
          "time": 49.2,
          "velocity": 0.007874015748031496
        },
        {
          "duration": 0.09999999999999432,
          "durationTicks": 240,
          "midi": 46,
          "name": "A#2",
          "ticks": 118560,
          "time": 49.400000000000006,
          "velocity": 0.33858267716535434
        },
        {
          "duration": 0.10000000000000142,
          "durationTicks": 240,
          "midi": 35,
          "name": "B1",
          "ticks": 119040,
          "time": 49.6,
          "velocity": 1
        },
        {
          "duration": 0.10000000000000142,
          "durationTicks": 240,
          "midi": 46,
          "name": "A#2",
          "ticks": 119040,
          "time": 49.6,
          "velocity": 0.007874015748031496
        },
        {
          "duration": 0.10000000000000142,
          "durationTicks": 240,
          "midi": 46,
          "name": "A#2",
          "ticks": 119520,
          "time": 49.800000000000004,
          "velocity": 0.33858267716535434
        },
        {
          "duration": 0.10000000000000142,
          "durationTicks": 240,
          "midi": 35,
          "name": "B1",
          "ticks": 120000,
          "time": 50,
          "velocity": 1
        },
        {
          "duration": 0.10000000000000142,
          "durationTicks": 240,
          "midi": 46,
          "name": "A#2",
          "ticks": 120000,
          "time": 50,
          "velocity": 0.007874015748031496
        },
        {
          "duration": 0.10000000000000142,
          "durationTicks": 240,
          "midi": 40,
          "name": "E2",
          "ticks": 120000,
          "time": 50,
          "velocity": 0.6692913385826772
        },
        {
          "duration": 0.10000000000000142,
          "durationTicks": 240,
          "midi": 46,
          "name": "A#2",
          "ticks": 120480,
          "time": 50.2,
          "velocity": 0.33858267716535434
        },
        {
          "duration": 0.09999999999999432,
          "durationTicks": 240,
          "midi": 35,
          "name": "B1",
          "ticks": 120960,
          "time": 50.400000000000006,
          "velocity": 1
        },
        {
          "duration": 0.09999999999999432,
          "durationTicks": 240,
          "midi": 46,
          "name": "A#2",
          "ticks": 120960,
          "time": 50.400000000000006,
          "velocity": 0.007874015748031496
        },
        {
          "duration": 0.10000000000000142,
          "durationTicks": 240,
          "midi": 35,
          "name": "B1",
          "ticks": 121440,
          "time": 50.6,
          "velocity": 1
        },
        {
          "duration": 0.10000000000000142,
          "durationTicks": 240,
          "midi": 46,
          "name": "A#2",
          "ticks": 121440,
          "time": 50.6,
          "velocity": 0.33858267716535434
        },
        {
          "duration": 0.10000000000000142,
          "durationTicks": 240,
          "midi": 35,
          "name": "B1",
          "ticks": 121920,
          "time": 50.800000000000004,
          "velocity": 1
        },
        {
          "duration": 0.10000000000000142,
          "durationTicks": 240,
          "midi": 46,
          "name": "A#2",
          "ticks": 121920,
          "time": 50.800000000000004,
          "velocity": 0.007874015748031496
        },
        {
          "duration": 0.10000000000000142,
          "durationTicks": 240,
          "midi": 46,
          "name": "A#2",
          "ticks": 122400,
          "time": 51,
          "velocity": 0.33858267716535434
        },
        {
          "duration": 0.10000000000000142,
          "durationTicks": 240,
          "midi": 40,
          "name": "E2",
          "ticks": 122400,
          "time": 51,
          "velocity": 0.6692913385826772
        },
        {
          "duration": 0.10000000000000142,
          "durationTicks": 240,
          "midi": 35,
          "name": "B1",
          "ticks": 122880,
          "time": 51.2,
          "velocity": 1
        },
        {
          "duration": 0.10000000000000142,
          "durationTicks": 240,
          "midi": 46,
          "name": "A#2",
          "ticks": 122880,
          "time": 51.2,
          "velocity": 0.007874015748031496
        },
        {
          "duration": 0.09999999999999432,
          "durationTicks": 240,
          "midi": 46,
          "name": "A#2",
          "ticks": 123360,
          "time": 51.400000000000006,
          "velocity": 0.33858267716535434
        },
        {
          "duration": 0.10000000000000142,
          "durationTicks": 240,
          "midi": 35,
          "name": "B1",
          "ticks": 123840,
          "time": 51.6,
          "velocity": 1
        },
        {
          "duration": 0.10000000000000142,
          "durationTicks": 240,
          "midi": 46,
          "name": "A#2",
          "ticks": 123840,
          "time": 51.6,
          "velocity": 0.007874015748031496
        },
        {
          "duration": 0.10000000000000142,
          "durationTicks": 240,
          "midi": 40,
          "name": "E2",
          "ticks": 123840,
          "time": 51.6,
          "velocity": 0.6692913385826772
        },
        {
          "duration": 0.10000000000000142,
          "durationTicks": 240,
          "midi": 46,
          "name": "A#2",
          "ticks": 124320,
          "time": 51.800000000000004,
          "velocity": 0.33858267716535434
        },
        {
          "duration": 0.10000000000000142,
          "durationTicks": 240,
          "midi": 35,
          "name": "B1",
          "ticks": 124800,
          "time": 52,
          "velocity": 1
        },
        {
          "duration": 0.10000000000000142,
          "durationTicks": 240,
          "midi": 46,
          "name": "A#2",
          "ticks": 124800,
          "time": 52,
          "velocity": 0.007874015748031496
        },
        {
          "duration": 0.10000000000000142,
          "durationTicks": 240,
          "midi": 46,
          "name": "A#2",
          "ticks": 125280,
          "time": 52.2,
          "velocity": 0.33858267716535434
        },
        {
          "duration": 0.09999999999999432,
          "durationTicks": 240,
          "midi": 35,
          "name": "B1",
          "ticks": 125760,
          "time": 52.400000000000006,
          "velocity": 1
        },
        {
          "duration": 0.09999999999999432,
          "durationTicks": 240,
          "midi": 46,
          "name": "A#2",
          "ticks": 125760,
          "time": 52.400000000000006,
          "velocity": 0.007874015748031496
        },
        {
          "duration": 0.10000000000000142,
          "durationTicks": 240,
          "midi": 46,
          "name": "A#2",
          "ticks": 126240,
          "time": 52.6,
          "velocity": 0.33858267716535434
        },
        {
          "duration": 0.10000000000000142,
          "durationTicks": 240,
          "midi": 35,
          "name": "B1",
          "ticks": 126720,
          "time": 52.800000000000004,
          "velocity": 1
        },
        {
          "duration": 0.10000000000000142,
          "durationTicks": 240,
          "midi": 46,
          "name": "A#2",
          "ticks": 126720,
          "time": 52.800000000000004,
          "velocity": 0.007874015748031496
        },
        {
          "duration": 0.10000000000000142,
          "durationTicks": 240,
          "midi": 46,
          "name": "A#2",
          "ticks": 127200,
          "time": 53,
          "velocity": 0.33858267716535434
        },
        {
          "duration": 0.10000000000000142,
          "durationTicks": 240,
          "midi": 35,
          "name": "B1",
          "ticks": 127680,
          "time": 53.2,
          "velocity": 1
        },
        {
          "duration": 0.10000000000000142,
          "durationTicks": 240,
          "midi": 46,
          "name": "A#2",
          "ticks": 127680,
          "time": 53.2,
          "velocity": 0.007874015748031496
        },
        {
          "duration": 0.10000000000000142,
          "durationTicks": 240,
          "midi": 40,
          "name": "E2",
          "ticks": 127680,
          "time": 53.2,
          "velocity": 0.6692913385826772
        },
        {
          "duration": 0.09999999999999432,
          "durationTicks": 240,
          "midi": 46,
          "name": "A#2",
          "ticks": 128160,
          "time": 53.400000000000006,
          "velocity": 0.33858267716535434
        },
        {
          "duration": 0.10000000000000142,
          "durationTicks": 240,
          "midi": 35,
          "name": "B1",
          "ticks": 128640,
          "time": 53.6,
          "velocity": 1
        },
        {
          "duration": 0.10000000000000142,
          "durationTicks": 240,
          "midi": 46,
          "name": "A#2",
          "ticks": 128640,
          "time": 53.6,
          "velocity": 0.007874015748031496
        },
        {
          "duration": 0.10000000000000142,
          "durationTicks": 240,
          "midi": 46,
          "name": "A#2",
          "ticks": 129120,
          "time": 53.800000000000004,
          "velocity": 0.33858267716535434
        },
        {
          "duration": 0.10000000000000142,
          "durationTicks": 240,
          "midi": 35,
          "name": "B1",
          "ticks": 129600,
          "time": 54,
          "velocity": 1
        },
        {
          "duration": 0.10000000000000142,
          "durationTicks": 240,
          "midi": 46,
          "name": "A#2",
          "ticks": 129600,
          "time": 54,
          "velocity": 0.007874015748031496
        },
        {
          "duration": 0.10000000000000142,
          "durationTicks": 240,
          "midi": 35,
          "name": "B1",
          "ticks": 130080,
          "time": 54.2,
          "velocity": 1
        },
        {
          "duration": 0.10000000000000142,
          "durationTicks": 240,
          "midi": 46,
          "name": "A#2",
          "ticks": 130080,
          "time": 54.2,
          "velocity": 0.33858267716535434
        },
        {
          "duration": 0.09999999999999432,
          "durationTicks": 240,
          "midi": 46,
          "name": "A#2",
          "ticks": 130560,
          "time": 54.400000000000006,
          "velocity": 0.007874015748031496
        },
        {
          "duration": 0.09999999999999432,
          "durationTicks": 240,
          "midi": 35,
          "name": "B1",
          "ticks": 130560,
          "time": 54.400000000000006,
          "velocity": 1
        },
        {
          "duration": 0.10000000000000142,
          "durationTicks": 240,
          "midi": 46,
          "name": "A#2",
          "ticks": 131040,
          "time": 54.6,
          "velocity": 0.33858267716535434
        },
        {
          "duration": 0.10000000000000142,
          "durationTicks": 240,
          "midi": 46,
          "name": "A#2",
          "ticks": 131520,
          "time": 54.800000000000004,
          "velocity": 0.007874015748031496
        },
        {
          "duration": 0.10000000000000142,
          "durationTicks": 240,
          "midi": 35,
          "name": "B1",
          "ticks": 131520,
          "time": 54.800000000000004,
          "velocity": 1
        },
        {
          "duration": 0.10000000000000142,
          "durationTicks": 240,
          "midi": 40,
          "name": "E2",
          "ticks": 131520,
          "time": 54.800000000000004,
          "velocity": 0.6692913385826772
        },
        {
          "duration": 0.10000000000000142,
          "durationTicks": 240,
          "midi": 46,
          "name": "A#2",
          "ticks": 132000,
          "time": 55,
          "velocity": 0.33858267716535434
        },
        {
          "duration": 0.10000000000000142,
          "durationTicks": 240,
          "midi": 46,
          "name": "A#2",
          "ticks": 132480,
          "time": 55.2,
          "velocity": 0.007874015748031496
        },
        {
          "duration": 0.10000000000000142,
          "durationTicks": 240,
          "midi": 35,
          "name": "B1",
          "ticks": 132480,
          "time": 55.2,
          "velocity": 1
        },
        {
          "duration": 0.09999999999999432,
          "durationTicks": 240,
          "midi": 46,
          "name": "A#2",
          "ticks": 132960,
          "time": 55.400000000000006,
          "velocity": 0.33858267716535434
        },
        {
          "duration": 0.10000000000000142,
          "durationTicks": 240,
          "midi": 46,
          "name": "A#2",
          "ticks": 133440,
          "time": 55.6,
          "velocity": 0.007874015748031496
        },
        {
          "duration": 0.10000000000000142,
          "durationTicks": 240,
          "midi": 35,
          "name": "B1",
          "ticks": 133440,
          "time": 55.6,
          "velocity": 1
        },
        {
          "duration": 0.10000000000000142,
          "durationTicks": 240,
          "midi": 46,
          "name": "A#2",
          "ticks": 133920,
          "time": 55.800000000000004,
          "velocity": 0.33858267716535434
        },
        {
          "duration": 0.10000000000000142,
          "durationTicks": 240,
          "midi": 46,
          "name": "A#2",
          "ticks": 134400,
          "time": 56,
          "velocity": 0.007874015748031496
        },
        {
          "duration": 0.10000000000000142,
          "durationTicks": 240,
          "midi": 35,
          "name": "B1",
          "ticks": 134400,
          "time": 56,
          "velocity": 1
        },
        {
          "duration": 0.10000000000000142,
          "durationTicks": 240,
          "midi": 46,
          "name": "A#2",
          "ticks": 134880,
          "time": 56.2,
          "velocity": 0.33858267716535434
        },
        {
          "duration": 0.09999999999999432,
          "durationTicks": 240,
          "midi": 46,
          "name": "A#2",
          "ticks": 135360,
          "time": 56.400000000000006,
          "velocity": 0.007874015748031496
        },
        {
          "duration": 0.09999999999999432,
          "durationTicks": 240,
          "midi": 35,
          "name": "B1",
          "ticks": 135360,
          "time": 56.400000000000006,
          "velocity": 1
        },
        {
          "duration": 0.09999999999999432,
          "durationTicks": 240,
          "midi": 40,
          "name": "E2",
          "ticks": 135360,
          "time": 56.400000000000006,
          "velocity": 0.6692913385826772
        },
        {
          "duration": 0.10000000000000142,
          "durationTicks": 240,
          "midi": 46,
          "name": "A#2",
          "ticks": 135840,
          "time": 56.6,
          "velocity": 0.33858267716535434
        },
        {
          "duration": 0.10000000000000142,
          "durationTicks": 240,
          "midi": 46,
          "name": "A#2",
          "ticks": 136320,
          "time": 56.800000000000004,
          "velocity": 0.007874015748031496
        },
        {
          "duration": 0.10000000000000142,
          "durationTicks": 240,
          "midi": 35,
          "name": "B1",
          "ticks": 136320,
          "time": 56.800000000000004,
          "velocity": 1
        },
        {
          "duration": 0.10000000000000142,
          "durationTicks": 240,
          "midi": 46,
          "name": "A#2",
          "ticks": 136800,
          "time": 57,
          "velocity": 0.33858267716535434
        },
        {
          "duration": 0.10000000000000142,
          "durationTicks": 240,
          "midi": 35,
          "name": "B1",
          "ticks": 136800,
          "time": 57,
          "velocity": 1
        },
        {
          "duration": 0.10000000000000142,
          "durationTicks": 240,
          "midi": 46,
          "name": "A#2",
          "ticks": 137280,
          "time": 57.2,
          "velocity": 0.007874015748031496
        },
        {
          "duration": 0.10000000000000142,
          "durationTicks": 240,
          "midi": 35,
          "name": "B1",
          "ticks": 137280,
          "time": 57.2,
          "velocity": 1
        },
        {
          "duration": 0.09999999999999432,
          "durationTicks": 240,
          "midi": 46,
          "name": "A#2",
          "ticks": 137760,
          "time": 57.400000000000006,
          "velocity": 0.33858267716535434
        },
        {
          "duration": 0.09999999999999432,
          "durationTicks": 240,
          "midi": 40,
          "name": "E2",
          "ticks": 137760,
          "time": 57.400000000000006,
          "velocity": 0.6692913385826772
        },
        {
          "duration": 0.10000000000000142,
          "durationTicks": 240,
          "midi": 46,
          "name": "A#2",
          "ticks": 138240,
          "time": 57.6,
          "velocity": 0.007874015748031496
        },
        {
          "duration": 0.10000000000000142,
          "durationTicks": 240,
          "midi": 35,
          "name": "B1",
          "ticks": 138240,
          "time": 57.6,
          "velocity": 1
        },
        {
          "duration": 0.10000000000000142,
          "durationTicks": 240,
          "midi": 46,
          "name": "A#2",
          "ticks": 138720,
          "time": 57.800000000000004,
          "velocity": 0.33858267716535434
        },
        {
          "duration": 0.10000000000000142,
          "durationTicks": 240,
          "midi": 46,
          "name": "A#2",
          "ticks": 139200,
          "time": 58,
          "velocity": 0.007874015748031496
        },
        {
          "duration": 0.10000000000000142,
          "durationTicks": 240,
          "midi": 35,
          "name": "B1",
          "ticks": 139200,
          "time": 58,
          "velocity": 1
        },
        {
          "duration": 0.10000000000000142,
          "durationTicks": 240,
          "midi": 40,
          "name": "E2",
          "ticks": 139200,
          "time": 58,
          "velocity": 0.6692913385826772
        },
        {
          "duration": 0.10000000000000142,
          "durationTicks": 240,
          "midi": 46,
          "name": "A#2",
          "ticks": 139680,
          "time": 58.2,
          "velocity": 0.33858267716535434
        },
        {
          "duration": 0.09999999999999432,
          "durationTicks": 240,
          "midi": 46,
          "name": "A#2",
          "ticks": 140160,
          "time": 58.400000000000006,
          "velocity": 0.007874015748031496
        },
        {
          "duration": 0.09999999999999432,
          "durationTicks": 240,
          "midi": 35,
          "name": "B1",
          "ticks": 140160,
          "time": 58.400000000000006,
          "velocity": 1
        },
        {
          "duration": 0.10000000000000142,
          "durationTicks": 240,
          "midi": 46,
          "name": "A#2",
          "ticks": 140640,
          "time": 58.6,
          "velocity": 0.33858267716535434
        },
        {
          "duration": 0.10000000000000142,
          "durationTicks": 240,
          "midi": 46,
          "name": "A#2",
          "ticks": 141120,
          "time": 58.800000000000004,
          "velocity": 0.007874015748031496
        },
        {
          "duration": 0.10000000000000142,
          "durationTicks": 240,
          "midi": 35,
          "name": "B1",
          "ticks": 141120,
          "time": 58.800000000000004,
          "velocity": 1
        },
        {
          "duration": 0.10000000000000142,
          "durationTicks": 240,
          "midi": 46,
          "name": "A#2",
          "ticks": 141600,
          "time": 59,
          "velocity": 0.33858267716535434
        },
        {
          "duration": 0.10000000000000142,
          "durationTicks": 240,
          "midi": 40,
          "name": "E2",
          "ticks": 141600,
          "time": 59,
          "velocity": 0.6692913385826772
        },
        {
          "duration": 0.10000000000000142,
          "durationTicks": 240,
          "midi": 46,
          "name": "A#2",
          "ticks": 142080,
          "time": 59.2,
          "velocity": 0.007874015748031496
        },
        {
          "duration": 0.10000000000000142,
          "durationTicks": 240,
          "midi": 35,
          "name": "B1",
          "ticks": 142080,
          "time": 59.2,
          "velocity": 1
        },
        {
          "duration": 0.09999999999999432,
          "durationTicks": 240,
          "midi": 46,
          "name": "A#2",
          "ticks": 142560,
          "time": 59.400000000000006,
          "velocity": 0.33858267716535434
        },
        {
          "duration": 0.09999999999999432,
          "durationTicks": 240,
          "midi": 35,
          "name": "B1",
          "ticks": 142560,
          "time": 59.400000000000006,
          "velocity": 1
        },
        {
          "duration": 0.10000000000000142,
          "durationTicks": 240,
          "midi": 46,
          "name": "A#2",
          "ticks": 143040,
          "time": 59.6,
          "velocity": 0.007874015748031496
        },
        {
          "duration": 0.10000000000000142,
          "durationTicks": 240,
          "midi": 40,
          "name": "E2",
          "ticks": 143040,
          "time": 59.6,
          "velocity": 0.6692913385826772
        },
        {
          "duration": 0.10000000000000142,
          "durationTicks": 240,
          "midi": 46,
          "name": "A#2",
          "ticks": 143520,
          "time": 59.800000000000004,
          "velocity": 0.33858267716535434
        },
        {
          "duration": 0.10000000000000142,
          "durationTicks": 240,
          "midi": 35,
          "name": "B1",
          "ticks": 143520,
          "time": 59.800000000000004,
          "velocity": 1
        },
        {
          "duration": 0.09999999999999432,
          "durationTicks": 240,
          "midi": 40,
          "name": "E2",
          "ticks": 143760,
          "time": 59.900000000000006,
          "velocity": 0.6692913385826772
        },
        {
          "duration": 0.10000000000000142,
          "durationTicks": 240,
          "midi": 46,
          "name": "A#2",
          "ticks": 144000,
          "time": 60,
          "velocity": 0.007874015748031496
        },
        {
          "duration": 0.10000000000000142,
          "durationTicks": 240,
          "midi": 35,
          "name": "B1",
          "ticks": 144000,
          "time": 60,
          "velocity": 1
        },
        {
          "duration": 0.10000000000000142,
          "durationTicks": 240,
          "midi": 40,
          "name": "E2",
          "ticks": 144240,
          "time": 60.1,
          "velocity": 0.6692913385826772
        },
        {
          "duration": 0.10000000000000142,
          "durationTicks": 240,
          "midi": 46,
          "name": "A#2",
          "ticks": 144480,
          "time": 60.2,
          "velocity": 0.33858267716535434
        },
        {
          "duration": 0.10000000000000142,
          "durationTicks": 240,
          "midi": 35,
          "name": "B1",
          "ticks": 144480,
          "time": 60.2,
          "velocity": 1
        },
        {
          "duration": 0.09999999999999432,
          "durationTicks": 240,
          "midi": 46,
          "name": "A#2",
          "ticks": 144960,
          "time": 60.400000000000006,
          "velocity": 0.007874015748031496
        },
        {
          "duration": 0.09999999999999432,
          "durationTicks": 240,
          "midi": 40,
          "name": "E2",
          "ticks": 144960,
          "time": 60.400000000000006,
          "velocity": 0.6692913385826772
        },
        {
          "duration": 0.10000000000000142,
          "durationTicks": 240,
          "midi": 46,
          "name": "A#2",
          "ticks": 145440,
          "time": 60.6,
          "velocity": 0.33858267716535434
        },
        {
          "duration": 0.10000000000000142,
          "durationTicks": 240,
          "midi": 35,
          "name": "B1",
          "ticks": 145440,
          "time": 60.6,
          "velocity": 1
        },
        {
          "duration": 0.10000000000000142,
          "durationTicks": 240,
          "midi": 46,
          "name": "A#2",
          "ticks": 145920,
          "time": 60.800000000000004,
          "velocity": 0.007874015748031496
        },
        {
          "duration": 0.10000000000000142,
          "durationTicks": 240,
          "midi": 35,
          "name": "B1",
          "ticks": 145920,
          "time": 60.800000000000004,
          "velocity": 1
        },
        {
          "duration": 0.10000000000000142,
          "durationTicks": 240,
          "midi": 46,
          "name": "A#2",
          "ticks": 146400,
          "time": 61,
          "velocity": 0.33858267716535434
        },
        {
          "duration": 0.10000000000000142,
          "durationTicks": 240,
          "midi": 35,
          "name": "B1",
          "ticks": 146400,
          "time": 61,
          "velocity": 1
        },
        {
          "duration": 0.10000000000000142,
          "durationTicks": 240,
          "midi": 46,
          "name": "A#2",
          "ticks": 146880,
          "time": 61.2,
          "velocity": 0.007874015748031496
        },
        {
          "duration": 0.10000000000000142,
          "durationTicks": 240,
          "midi": 40,
          "name": "E2",
          "ticks": 146880,
          "time": 61.2,
          "velocity": 0.6692913385826772
        },
        {
          "duration": 0.09999999999999432,
          "durationTicks": 240,
          "midi": 46,
          "name": "A#2",
          "ticks": 147360,
          "time": 61.400000000000006,
          "velocity": 0.33858267716535434
        },
        {
          "duration": 0.09999999999999432,
          "durationTicks": 240,
          "midi": 35,
          "name": "B1",
          "ticks": 147360,
          "time": 61.400000000000006,
          "velocity": 1
        },
        {
          "duration": 0.10000000000000142,
          "durationTicks": 240,
          "midi": 40,
          "name": "E2",
          "ticks": 147600,
          "time": 61.5,
          "velocity": 0.6692913385826772
        },
        {
          "duration": 0.10000000000000142,
          "durationTicks": 240,
          "midi": 46,
          "name": "A#2",
          "ticks": 147840,
          "time": 61.6,
          "velocity": 0.007874015748031496
        },
        {
          "duration": 0.10000000000000142,
          "durationTicks": 240,
          "midi": 35,
          "name": "B1",
          "ticks": 147840,
          "time": 61.6,
          "velocity": 1
        },
        {
          "duration": 0.10000000000000142,
          "durationTicks": 240,
          "midi": 46,
          "name": "A#2",
          "ticks": 148320,
          "time": 61.800000000000004,
          "velocity": 0.33858267716535434
        },
        {
          "duration": 0.10000000000000142,
          "durationTicks": 240,
          "midi": 35,
          "name": "B1",
          "ticks": 148320,
          "time": 61.800000000000004,
          "velocity": 1
        },
        {
          "duration": 0.10000000000000142,
          "durationTicks": 240,
          "midi": 46,
          "name": "A#2",
          "ticks": 148800,
          "time": 62,
          "velocity": 0.007874015748031496
        },
        {
          "duration": 0.10000000000000142,
          "durationTicks": 240,
          "midi": 40,
          "name": "E2",
          "ticks": 148800,
          "time": 62,
          "velocity": 0.6692913385826772
        },
        {
          "duration": 0.10000000000000142,
          "durationTicks": 240,
          "midi": 46,
          "name": "A#2",
          "ticks": 149280,
          "time": 62.2,
          "velocity": 0.33858267716535434
        },
        {
          "duration": 0.10000000000000142,
          "durationTicks": 240,
          "midi": 40,
          "name": "E2",
          "ticks": 149280,
          "time": 62.2,
          "velocity": 0.6692913385826772
        },
        {
          "duration": 0.09999999999999432,
          "durationTicks": 240,
          "midi": 46,
          "name": "A#2",
          "ticks": 149760,
          "time": 62.400000000000006,
          "velocity": 0.007874015748031496
        },
        {
          "duration": 0.09999999999999432,
          "durationTicks": 240,
          "midi": 35,
          "name": "B1",
          "ticks": 149760,
          "time": 62.400000000000006,
          "velocity": 1
        },
        {
          "duration": 0.10000000000000142,
          "durationTicks": 240,
          "midi": 46,
          "name": "A#2",
          "ticks": 150240,
          "time": 62.6,
          "velocity": 0.33858267716535434
        },
        {
          "duration": 0.10000000000000142,
          "durationTicks": 240,
          "midi": 46,
          "name": "A#2",
          "ticks": 150720,
          "time": 62.800000000000004,
          "velocity": 0.007874015748031496
        },
        {
          "duration": 0.10000000000000142,
          "durationTicks": 240,
          "midi": 35,
          "name": "B1",
          "ticks": 150720,
          "time": 62.800000000000004,
          "velocity": 1
        },
        {
          "duration": 0.10000000000000142,
          "durationTicks": 240,
          "midi": 40,
          "name": "E2",
          "ticks": 150720,
          "time": 62.800000000000004,
          "velocity": 0.6692913385826772
        },
        {
          "duration": 0.10000000000000142,
          "durationTicks": 240,
          "midi": 46,
          "name": "A#2",
          "ticks": 151200,
          "time": 63,
          "velocity": 0.33858267716535434
        },
        {
          "duration": 0.10000000000000142,
          "durationTicks": 240,
          "midi": 35,
          "name": "B1",
          "ticks": 151680,
          "time": 63.2,
          "velocity": 1
        },
        {
          "duration": 0.10000000000000142,
          "durationTicks": 240,
          "midi": 46,
          "name": "A#2",
          "ticks": 151680,
          "time": 63.2,
          "velocity": 0.007874015748031496
        },
        {
          "duration": 0.09999999999999432,
          "durationTicks": 240,
          "midi": 35,
          "name": "B1",
          "ticks": 152160,
          "time": 63.400000000000006,
          "velocity": 1
        },
        {
          "duration": 0.09999999999999432,
          "durationTicks": 240,
          "midi": 46,
          "name": "A#2",
          "ticks": 152160,
          "time": 63.400000000000006,
          "velocity": 0.33858267716535434
        },
        {
          "duration": 0.10000000000000142,
          "durationTicks": 240,
          "midi": 35,
          "name": "B1",
          "ticks": 152640,
          "time": 63.6,
          "velocity": 1
        },
        {
          "duration": 0.10000000000000142,
          "durationTicks": 240,
          "midi": 46,
          "name": "A#2",
          "ticks": 152640,
          "time": 63.6,
          "velocity": 0.007874015748031496
        },
        {
          "duration": 0.10000000000000142,
          "durationTicks": 240,
          "midi": 40,
          "name": "E2",
          "ticks": 153120,
          "time": 63.800000000000004,
          "velocity": 0.6692913385826772
        },
        {
          "duration": 0.10000000000000142,
          "durationTicks": 240,
          "midi": 46,
          "name": "A#2",
          "ticks": 153120,
          "time": 63.800000000000004,
          "velocity": 0.33858267716535434
        },
        {
          "duration": 0.04999999999999716,
          "durationTicks": 120,
          "midi": 35,
          "name": "B1",
          "ticks": 153600,
          "time": 64,
          "velocity": 1
        },
        {
          "duration": 0.10000000000000853,
          "durationTicks": 240,
          "midi": 46,
          "name": "A#2",
          "ticks": 153600,
          "time": 64,
          "velocity": 0.007874015748031496
        },
        {
          "duration": 0.09999999999999432,
          "durationTicks": 240,
          "midi": 46,
          "name": "A#2",
          "ticks": 154080,
          "time": 64.2,
          "velocity": 0.33858267716535434
        },
        {
          "duration": 0.09999999999999432,
          "durationTicks": 240,
          "midi": 35,
          "name": "B1",
          "ticks": 154560,
          "time": 64.4,
          "velocity": 1
        },
        {
          "duration": 0.09999999999999432,
          "durationTicks": 240,
          "midi": 40,
          "name": "E2",
          "ticks": 154560,
          "time": 64.4,
          "velocity": 0.6692913385826772
        },
        {
          "duration": 0.09999999999999432,
          "durationTicks": 240,
          "midi": 46,
          "name": "A#2",
          "ticks": 154560,
          "time": 64.4,
          "velocity": 0.007874015748031496
        },
        {
          "duration": 0.09999999999999432,
          "durationTicks": 240,
          "midi": 46,
          "name": "A#2",
          "ticks": 155040,
          "time": 64.60000000000001,
          "velocity": 0.33858267716535434
        },
        {
          "duration": 0.10000000000000853,
          "durationTicks": 240,
          "midi": 35,
          "name": "B1",
          "ticks": 155520,
          "time": 64.8,
          "velocity": 1
        },
        {
          "duration": 0.10000000000000853,
          "durationTicks": 240,
          "midi": 46,
          "name": "A#2",
          "ticks": 155520,
          "time": 64.8,
          "velocity": 0.007874015748031496
        },
        {
          "duration": 0.10000000000000853,
          "durationTicks": 240,
          "midi": 46,
          "name": "A#2",
          "ticks": 156000,
          "time": 65,
          "velocity": 0.33858267716535434
        },
        {
          "duration": 0.09999999999999432,
          "durationTicks": 240,
          "midi": 35,
          "name": "B1",
          "ticks": 156480,
          "time": 65.2,
          "velocity": 1
        },
        {
          "duration": 0.09999999999999432,
          "durationTicks": 240,
          "midi": 40,
          "name": "E2",
          "ticks": 156480,
          "time": 65.2,
          "velocity": 0.6692913385826772
        },
        {
          "duration": 0.09999999999999432,
          "durationTicks": 240,
          "midi": 46,
          "name": "A#2",
          "ticks": 156480,
          "time": 65.2,
          "velocity": 0.007874015748031496
        },
        {
          "duration": 0.09999999999999432,
          "durationTicks": 240,
          "midi": 46,
          "name": "A#2",
          "ticks": 156960,
          "time": 65.4,
          "velocity": 0.33858267716535434
        },
        {
          "duration": 0.09999999999999432,
          "durationTicks": 240,
          "midi": 46,
          "name": "A#2",
          "ticks": 157440,
          "time": 65.60000000000001,
          "velocity": 0.007874015748031496
        },
        {
          "duration": 0.09999999999999432,
          "durationTicks": 240,
          "midi": 35,
          "name": "B1",
          "ticks": 157440,
          "time": 65.60000000000001,
          "velocity": 1
        },
        {
          "duration": 0.10000000000000853,
          "durationTicks": 240,
          "midi": 46,
          "name": "A#2",
          "ticks": 157920,
          "time": 65.8,
          "velocity": 0.33858267716535434
        },
        {
          "duration": 0.10000000000000853,
          "durationTicks": 240,
          "midi": 46,
          "name": "A#2",
          "ticks": 158400,
          "time": 66,
          "velocity": 0.007874015748031496
        },
        {
          "duration": 0.10000000000000853,
          "durationTicks": 240,
          "midi": 35,
          "name": "B1",
          "ticks": 158400,
          "time": 66,
          "velocity": 1
        },
        {
          "duration": 0.10000000000000853,
          "durationTicks": 240,
          "midi": 40,
          "name": "E2",
          "ticks": 158400,
          "time": 66,
          "velocity": 0.6692913385826772
        },
        {
          "duration": 0.09999999999999432,
          "durationTicks": 240,
          "midi": 46,
          "name": "A#2",
          "ticks": 158880,
          "time": 66.2,
          "velocity": 0.33858267716535434
        },
        {
          "duration": 0.09999999999999432,
          "durationTicks": 240,
          "midi": 46,
          "name": "A#2",
          "ticks": 159360,
          "time": 66.4,
          "velocity": 0.007874015748031496
        },
        {
          "duration": 0.09999999999999432,
          "durationTicks": 240,
          "midi": 35,
          "name": "B1",
          "ticks": 159360,
          "time": 66.4,
          "velocity": 1
        },
        {
          "duration": 0.10000000000000853,
          "durationTicks": 240,
          "midi": 40,
          "name": "E2",
          "ticks": 159600,
          "time": 66.5,
          "velocity": 0.6692913385826772
        },
        {
          "duration": 0.09999999999999432,
          "durationTicks": 240,
          "midi": 46,
          "name": "A#2",
          "ticks": 159840,
          "time": 66.60000000000001,
          "velocity": 0.33858267716535434
        },
        {
          "duration": 0.10000000000000853,
          "durationTicks": 240,
          "midi": 46,
          "name": "A#2",
          "ticks": 160320,
          "time": 66.8,
          "velocity": 0.007874015748031496
        },
        {
          "duration": 0.10000000000000853,
          "durationTicks": 240,
          "midi": 35,
          "name": "B1",
          "ticks": 160320,
          "time": 66.8,
          "velocity": 1
        },
        {
          "duration": 0.10000000000000853,
          "durationTicks": 240,
          "midi": 40,
          "name": "E2",
          "ticks": 160320,
          "time": 66.8,
          "velocity": 0.6692913385826772
        },
        {
          "duration": 0.10000000000000853,
          "durationTicks": 240,
          "midi": 46,
          "name": "A#2",
          "ticks": 160800,
          "time": 67,
          "velocity": 0.33858267716535434
        },
        {
          "duration": 0.10000000000000853,
          "durationTicks": 240,
          "midi": 35,
          "name": "B1",
          "ticks": 160800,
          "time": 67,
          "velocity": 1
        },
        {
          "duration": 0.09999999999999432,
          "durationTicks": 240,
          "midi": 35,
          "name": "B1",
          "ticks": 161280,
          "time": 67.2,
          "velocity": 1
        },
        {
          "duration": 0.09999999999999432,
          "durationTicks": 240,
          "midi": 46,
          "name": "A#2",
          "ticks": 161280,
          "time": 67.2,
          "velocity": 0.007874015748031496
        },
        {
          "duration": 0.09999999999999432,
          "durationTicks": 240,
          "midi": 46,
          "name": "A#2",
          "ticks": 161760,
          "time": 67.4,
          "velocity": 0.33858267716535434
        },
        {
          "duration": 0.09999999999999432,
          "durationTicks": 240,
          "midi": 35,
          "name": "B1",
          "ticks": 162240,
          "time": 67.60000000000001,
          "velocity": 1
        },
        {
          "duration": 0.09999999999999432,
          "durationTicks": 240,
          "midi": 46,
          "name": "A#2",
          "ticks": 162240,
          "time": 67.60000000000001,
          "velocity": 0.007874015748031496
        },
        {
          "duration": 0.09999999999999432,
          "durationTicks": 240,
          "midi": 40,
          "name": "E2",
          "ticks": 162240,
          "time": 67.60000000000001,
          "velocity": 0.6692913385826772
        },
        {
          "duration": 0.10000000000000853,
          "durationTicks": 240,
          "midi": 46,
          "name": "A#2",
          "ticks": 162720,
          "time": 67.8,
          "velocity": 0.33858267716535434
        },
        {
          "duration": 0.10000000000000853,
          "durationTicks": 240,
          "midi": 35,
          "name": "B1",
          "ticks": 163200,
          "time": 68,
          "velocity": 1
        },
        {
          "duration": 0.10000000000000853,
          "durationTicks": 240,
          "midi": 46,
          "name": "A#2",
          "ticks": 163200,
          "time": 68,
          "velocity": 0.007874015748031496
        },
        {
          "duration": 0.09999999999999432,
          "durationTicks": 240,
          "midi": 46,
          "name": "A#2",
          "ticks": 163680,
          "time": 68.2,
          "velocity": 0.33858267716535434
        },
        {
          "duration": 0.09999999999999432,
          "durationTicks": 240,
          "midi": 35,
          "name": "B1",
          "ticks": 164160,
          "time": 68.4,
          "velocity": 1
        },
        {
          "duration": 0.09999999999999432,
          "durationTicks": 240,
          "midi": 46,
          "name": "A#2",
          "ticks": 164160,
          "time": 68.4,
          "velocity": 0.007874015748031496
        },
        {
          "duration": 0.09999999999999432,
          "durationTicks": 240,
          "midi": 40,
          "name": "E2",
          "ticks": 164160,
          "time": 68.4,
          "velocity": 0.6692913385826772
        },
        {
          "duration": 0.09999999999999432,
          "durationTicks": 240,
          "midi": 46,
          "name": "A#2",
          "ticks": 164640,
          "time": 68.60000000000001,
          "velocity": 0.33858267716535434
        },
        {
          "duration": 0.10000000000000853,
          "durationTicks": 240,
          "midi": 46,
          "name": "A#2",
          "ticks": 165120,
          "time": 68.8,
          "velocity": 0.007874015748031496
        },
        {
          "duration": 0.10000000000000853,
          "durationTicks": 240,
          "midi": 35,
          "name": "B1",
          "ticks": 165120,
          "time": 68.8,
          "velocity": 1
        },
        {
          "duration": 0.10000000000000853,
          "durationTicks": 240,
          "midi": 46,
          "name": "A#2",
          "ticks": 165600,
          "time": 69,
          "velocity": 0.33858267716535434
        },
        {
          "duration": 0.10000000000000853,
          "durationTicks": 240,
          "midi": 40,
          "name": "E2",
          "ticks": 165600,
          "time": 69,
          "velocity": 0.6692913385826772
        },
        {
          "duration": 0.09999999999999432,
          "durationTicks": 240,
          "midi": 46,
          "name": "A#2",
          "ticks": 166080,
          "time": 69.2,
          "velocity": 0.007874015748031496
        },
        {
          "duration": 0.09999999999999432,
          "durationTicks": 240,
          "midi": 35,
          "name": "B1",
          "ticks": 166080,
          "time": 69.2,
          "velocity": 1
        },
        {
          "duration": 0.09999999999999432,
          "durationTicks": 240,
          "midi": 40,
          "name": "E2",
          "ticks": 166080,
          "time": 69.2,
          "velocity": 0.6692913385826772
        },
        {
          "duration": 0.09999999999999432,
          "durationTicks": 240,
          "midi": 46,
          "name": "A#2",
          "ticks": 166560,
          "time": 69.4,
          "velocity": 0.33858267716535434
        },
        {
          "duration": 0.10000000000000853,
          "durationTicks": 240,
          "midi": 40,
          "name": "E2",
          "ticks": 166800,
          "time": 69.5,
          "velocity": 0.6692913385826772
        },
        {
          "duration": 0.09999999999999432,
          "durationTicks": 240,
          "midi": 46,
          "name": "A#2",
          "ticks": 167040,
          "time": 69.60000000000001,
          "velocity": 0.007874015748031496
        },
        {
          "duration": 0.09999999999999432,
          "durationTicks": 240,
          "midi": 35,
          "name": "B1",
          "ticks": 167040,
          "time": 69.60000000000001,
          "velocity": 1
        },
        {
          "duration": 0.09999999999999432,
          "durationTicks": 240,
          "midi": 40,
          "name": "E2",
          "ticks": 167280,
          "time": 69.7,
          "velocity": 0.6692913385826772
        },
        {
          "duration": 0.10000000000000853,
          "durationTicks": 240,
          "midi": 46,
          "name": "A#2",
          "ticks": 167520,
          "time": 69.8,
          "velocity": 0.33858267716535434
        },
        {
          "duration": 0.10000000000000853,
          "durationTicks": 240,
          "midi": 35,
          "name": "B1",
          "ticks": 167520,
          "time": 69.8,
          "velocity": 1
        },
        {
          "duration": 0.10000000000000853,
          "durationTicks": 240,
          "midi": 46,
          "name": "A#2",
          "ticks": 168000,
          "time": 70,
          "velocity": 0.007874015748031496
        },
        {
          "duration": 0.10000000000000853,
          "durationTicks": 240,
          "midi": 35,
          "name": "B1",
          "ticks": 168000,
          "time": 70,
          "velocity": 1
        },
        {
          "duration": 0.10000000000000853,
          "durationTicks": 240,
          "midi": 40,
          "name": "E2",
          "ticks": 168000,
          "time": 70,
          "velocity": 0.6692913385826772
        },
        {
          "duration": 0.09999999999999432,
          "durationTicks": 240,
          "midi": 46,
          "name": "A#2",
          "ticks": 168480,
          "time": 70.2,
          "velocity": 0.33858267716535434
        },
        {
          "duration": 0.09999999999999432,
          "durationTicks": 240,
          "midi": 35,
          "name": "B1",
          "ticks": 168480,
          "time": 70.2,
          "velocity": 1
        },
        {
          "duration": 0.09999999999999432,
          "durationTicks": 240,
          "midi": 46,
          "name": "A#2",
          "ticks": 168960,
          "time": 70.4,
          "velocity": 0.007874015748031496
        },
        {
          "duration": 0.09999999999999432,
          "durationTicks": 240,
          "midi": 35,
          "name": "B1",
          "ticks": 168960,
          "time": 70.4,
          "velocity": 1
        },
        {
          "duration": 0.09999999999999432,
          "durationTicks": 240,
          "midi": 46,
          "name": "A#2",
          "ticks": 169440,
          "time": 70.60000000000001,
          "velocity": 0.33858267716535434
        },
        {
          "duration": 0.10000000000000853,
          "durationTicks": 240,
          "midi": 46,
          "name": "A#2",
          "ticks": 169920,
          "time": 70.8,
          "velocity": 0.007874015748031496
        },
        {
          "duration": 0.10000000000000853,
          "durationTicks": 240,
          "midi": 40,
          "name": "E2",
          "ticks": 169920,
          "time": 70.8,
          "velocity": 0.6692913385826772
        },
        {
          "duration": 0.10000000000000853,
          "durationTicks": 240,
          "midi": 35,
          "name": "B1",
          "ticks": 169920,
          "time": 70.8,
          "velocity": 1
        },
        {
          "duration": 0.10000000000000853,
          "durationTicks": 240,
          "midi": 46,
          "name": "A#2",
          "ticks": 170400,
          "time": 71,
          "velocity": 0.33858267716535434
        },
        {
          "duration": 0.09999999999999432,
          "durationTicks": 240,
          "midi": 46,
          "name": "A#2",
          "ticks": 170880,
          "time": 71.2,
          "velocity": 0.007874015748031496
        },
        {
          "duration": 0.09999999999999432,
          "durationTicks": 240,
          "midi": 35,
          "name": "B1",
          "ticks": 170880,
          "time": 71.2,
          "velocity": 1
        },
        {
          "duration": 0.09999999999999432,
          "durationTicks": 240,
          "midi": 46,
          "name": "A#2",
          "ticks": 171360,
          "time": 71.4,
          "velocity": 0.33858267716535434
        },
        {
          "duration": 0.09999999999999432,
          "durationTicks": 240,
          "midi": 46,
          "name": "A#2",
          "ticks": 171840,
          "time": 71.60000000000001,
          "velocity": 0.007874015748031496
        },
        {
          "duration": 0.09999999999999432,
          "durationTicks": 240,
          "midi": 40,
          "name": "E2",
          "ticks": 171840,
          "time": 71.60000000000001,
          "velocity": 0.6692913385826772
        },
        {
          "duration": 0.09999999999999432,
          "durationTicks": 240,
          "midi": 35,
          "name": "B1",
          "ticks": 171840,
          "time": 71.60000000000001,
          "velocity": 1
        },
        {
          "duration": 0.10000000000000853,
          "durationTicks": 240,
          "midi": 46,
          "name": "A#2",
          "ticks": 172320,
          "time": 71.8,
          "velocity": 0.33858267716535434
        },
        {
          "duration": 0.10000000000000853,
          "durationTicks": 240,
          "midi": 35,
          "name": "B1",
          "ticks": 172800,
          "time": 72,
          "velocity": 1
        },
        {
          "duration": 0.10000000000000853,
          "durationTicks": 240,
          "midi": 46,
          "name": "A#2",
          "ticks": 172800,
          "time": 72,
          "velocity": 0.007874015748031496
        },
        {
          "duration": 0.09999999999999432,
          "durationTicks": 240,
          "midi": 46,
          "name": "A#2",
          "ticks": 173280,
          "time": 72.2,
          "velocity": 0.33858267716535434
        },
        {
          "duration": 0.09999999999999432,
          "durationTicks": 240,
          "midi": 35,
          "name": "B1",
          "ticks": 173760,
          "time": 72.4,
          "velocity": 1
        },
        {
          "duration": 0.09999999999999432,
          "durationTicks": 240,
          "midi": 46,
          "name": "A#2",
          "ticks": 173760,
          "time": 72.4,
          "velocity": 0.007874015748031496
        },
        {
          "duration": 0.09999999999999432,
          "durationTicks": 240,
          "midi": 40,
          "name": "E2",
          "ticks": 173760,
          "time": 72.4,
          "velocity": 0.6692913385826772
        },
        {
          "duration": 0.09999999999999432,
          "durationTicks": 240,
          "midi": 46,
          "name": "A#2",
          "ticks": 174240,
          "time": 72.60000000000001,
          "velocity": 0.33858267716535434
        },
        {
          "duration": 0.10000000000000853,
          "durationTicks": 240,
          "midi": 35,
          "name": "B1",
          "ticks": 174720,
          "time": 72.8,
          "velocity": 1
        },
        {
          "duration": 0.10000000000000853,
          "durationTicks": 240,
          "midi": 46,
          "name": "A#2",
          "ticks": 174720,
          "time": 72.8,
          "velocity": 0.007874015748031496
        },
        {
          "duration": 0.10000000000000853,
          "durationTicks": 240,
          "midi": 46,
          "name": "A#2",
          "ticks": 175200,
          "time": 73,
          "velocity": 0.33858267716535434
        },
        {
          "duration": 0.09999999999999432,
          "durationTicks": 240,
          "midi": 40,
          "name": "E2",
          "ticks": 175440,
          "time": 73.10000000000001,
          "velocity": 0.6692913385826772
        },
        {
          "duration": 0.09999999999999432,
          "durationTicks": 240,
          "midi": 35,
          "name": "B1",
          "ticks": 175680,
          "time": 73.2,
          "velocity": 1
        },
        {
          "duration": 0.09999999999999432,
          "durationTicks": 240,
          "midi": 46,
          "name": "A#2",
          "ticks": 175680,
          "time": 73.2,
          "velocity": 0.007874015748031496
        },
        {
          "duration": 0.09999999999999432,
          "durationTicks": 240,
          "midi": 40,
          "name": "E2",
          "ticks": 175680,
          "time": 73.2,
          "velocity": 0.6692913385826772
        },
        {
          "duration": 0.09999999999999432,
          "durationTicks": 240,
          "midi": 35,
          "name": "B1",
          "ticks": 176160,
          "time": 73.4,
          "velocity": 1
        },
        {
          "duration": 0.09999999999999432,
          "durationTicks": 240,
          "midi": 46,
          "name": "A#2",
          "ticks": 176160,
          "time": 73.4,
          "velocity": 0.33858267716535434
        },
        {
          "duration": 0.09999999999999432,
          "durationTicks": 240,
          "midi": 40,
          "name": "E2",
          "ticks": 176160,
          "time": 73.4,
          "velocity": 0.6692913385826772
        },
        {
          "duration": 0.09999999999999432,
          "durationTicks": 240,
          "midi": 46,
          "name": "A#2",
          "ticks": 176640,
          "time": 73.60000000000001,
          "velocity": 0.007874015748031496
        },
        {
          "duration": 0.09999999999999432,
          "durationTicks": 240,
          "midi": 35,
          "name": "B1",
          "ticks": 176640,
          "time": 73.60000000000001,
          "velocity": 1
        },
        {
          "duration": 0.10000000000000853,
          "durationTicks": 240,
          "midi": 46,
          "name": "A#2",
          "ticks": 177120,
          "time": 73.8,
          "velocity": 0.33858267716535434
        },
        {
          "duration": 0.10000000000000853,
          "durationTicks": 240,
          "midi": 46,
          "name": "A#2",
          "ticks": 177600,
          "time": 74,
          "velocity": 0.007874015748031496
        },
        {
          "duration": 0.10000000000000853,
          "durationTicks": 240,
          "midi": 40,
          "name": "E2",
          "ticks": 177600,
          "time": 74,
          "velocity": 0.6692913385826772
        },
        {
          "duration": 0.10000000000000853,
          "durationTicks": 240,
          "midi": 35,
          "name": "B1",
          "ticks": 177600,
          "time": 74,
          "velocity": 1
        },
        {
          "duration": 0.09999999999999432,
          "durationTicks": 240,
          "midi": 46,
          "name": "A#2",
          "ticks": 178080,
          "time": 74.2,
          "velocity": 0.33858267716535434
        },
        {
          "duration": 0.09999999999999432,
          "durationTicks": 240,
          "midi": 46,
          "name": "A#2",
          "ticks": 178560,
          "time": 74.4,
          "velocity": 0.007874015748031496
        },
        {
          "duration": 0.09999999999999432,
          "durationTicks": 240,
          "midi": 35,
          "name": "B1",
          "ticks": 178560,
          "time": 74.4,
          "velocity": 1
        },
        {
          "duration": 0.09999999999999432,
          "durationTicks": 240,
          "midi": 46,
          "name": "A#2",
          "ticks": 179040,
          "time": 74.60000000000001,
          "velocity": 0.33858267716535434
        },
        {
          "duration": 0.10000000000000853,
          "durationTicks": 240,
          "midi": 46,
          "name": "A#2",
          "ticks": 179520,
          "time": 74.8,
          "velocity": 0.007874015748031496
        },
        {
          "duration": 0.10000000000000853,
          "durationTicks": 240,
          "midi": 40,
          "name": "E2",
          "ticks": 179520,
          "time": 74.8,
          "velocity": 0.6692913385826772
        },
        {
          "duration": 0.10000000000000853,
          "durationTicks": 240,
          "midi": 35,
          "name": "B1",
          "ticks": 179520,
          "time": 74.8,
          "velocity": 1
        },
        {
          "duration": 0.10000000000000853,
          "durationTicks": 240,
          "midi": 46,
          "name": "A#2",
          "ticks": 180000,
          "time": 75,
          "velocity": 0.33858267716535434
        },
        {
          "duration": 0.09999999999999432,
          "durationTicks": 240,
          "midi": 35,
          "name": "B1",
          "ticks": 180480,
          "time": 75.2,
          "velocity": 1
        },
        {
          "duration": 0.09999999999999432,
          "durationTicks": 240,
          "midi": 46,
          "name": "A#2",
          "ticks": 180480,
          "time": 75.2,
          "velocity": 0.007874015748031496
        },
        {
          "duration": 0.09999999999999432,
          "durationTicks": 240,
          "midi": 46,
          "name": "A#2",
          "ticks": 180960,
          "time": 75.4,
          "velocity": 0.33858267716535434
        },
        {
          "duration": 0.09999999999999432,
          "durationTicks": 240,
          "midi": 35,
          "name": "B1",
          "ticks": 181440,
          "time": 75.60000000000001,
          "velocity": 1
        },
        {
          "duration": 0.09999999999999432,
          "durationTicks": 240,
          "midi": 46,
          "name": "A#2",
          "ticks": 181440,
          "time": 75.60000000000001,
          "velocity": 0.007874015748031496
        },
        {
          "duration": 0.09999999999999432,
          "durationTicks": 240,
          "midi": 40,
          "name": "E2",
          "ticks": 181440,
          "time": 75.60000000000001,
          "velocity": 0.6692913385826772
        },
        {
          "duration": 0.10000000000000853,
          "durationTicks": 240,
          "midi": 46,
          "name": "A#2",
          "ticks": 181920,
          "time": 75.8,
          "velocity": 0.33858267716535434
        },
        {
          "duration": 0.10000000000000853,
          "durationTicks": 240,
          "midi": 35,
          "name": "B1",
          "ticks": 182400,
          "time": 76,
          "velocity": 1
        },
        {
          "duration": 0.10000000000000853,
          "durationTicks": 240,
          "midi": 46,
          "name": "A#2",
          "ticks": 182400,
          "time": 76,
          "velocity": 0.007874015748031496
        },
        {
          "duration": 0.09999999999999432,
          "durationTicks": 240,
          "midi": 35,
          "name": "B1",
          "ticks": 182880,
          "time": 76.2,
          "velocity": 1
        },
        {
          "duration": 0.09999999999999432,
          "durationTicks": 240,
          "midi": 46,
          "name": "A#2",
          "ticks": 182880,
          "time": 76.2,
          "velocity": 0.33858267716535434
        },
        {
          "duration": 0.09999999999999432,
          "durationTicks": 240,
          "midi": 35,
          "name": "B1",
          "ticks": 183360,
          "time": 76.4,
          "velocity": 1
        },
        {
          "duration": 0.09999999999999432,
          "durationTicks": 240,
          "midi": 40,
          "name": "E2",
          "ticks": 183360,
          "time": 76.4,
          "velocity": 0.6692913385826772
        },
        {
          "duration": 0.09999999999999432,
          "durationTicks": 240,
          "midi": 46,
          "name": "A#2",
          "ticks": 183360,
          "time": 76.4,
          "velocity": 0.007874015748031496
        },
        {
          "duration": 0.09999999999999432,
          "durationTicks": 240,
          "midi": 35,
          "name": "B1",
          "ticks": 183840,
          "time": 76.60000000000001,
          "velocity": 1
        },
        {
          "duration": 0.09999999999999432,
          "durationTicks": 240,
          "midi": 46,
          "name": "A#2",
          "ticks": 183840,
          "time": 76.60000000000001,
          "velocity": 0.33858267716535434
        },
        {
          "duration": 0.09999999999999432,
          "durationTicks": 240,
          "midi": 35,
          "name": "B1",
          "ticks": 184320,
          "time": 76.80000000000001,
          "velocity": 1
        },
        {
          "duration": 0.09999999999999432,
          "durationTicks": 240,
          "midi": 46,
          "name": "A#2",
          "ticks": 184320,
          "time": 76.80000000000001,
          "velocity": 0.007874015748031496
        },
        {
          "duration": 0.10000000000000853,
          "durationTicks": 240,
          "midi": 46,
          "name": "A#2",
          "ticks": 184800,
          "time": 77,
          "velocity": 0.33858267716535434
        },
        {
          "duration": 0.10000000000000853,
          "durationTicks": 240,
          "midi": 35,
          "name": "B1",
          "ticks": 185280,
          "time": 77.2,
          "velocity": 1
        },
        {
          "duration": 0.10000000000000853,
          "durationTicks": 240,
          "midi": 40,
          "name": "E2",
          "ticks": 185280,
          "time": 77.2,
          "velocity": 0.6692913385826772
        },
        {
          "duration": 0.10000000000000853,
          "durationTicks": 240,
          "midi": 46,
          "name": "A#2",
          "ticks": 185280,
          "time": 77.2,
          "velocity": 0.007874015748031496
        },
        {
          "duration": 0.09999999999999432,
          "durationTicks": 240,
          "midi": 46,
          "name": "A#2",
          "ticks": 185760,
          "time": 77.4,
          "velocity": 0.33858267716535434
        },
        {
          "duration": 0.09999999999999432,
          "durationTicks": 240,
          "midi": 46,
          "name": "A#2",
          "ticks": 186240,
          "time": 77.60000000000001,
          "velocity": 0.007874015748031496
        },
        {
          "duration": 0.09999999999999432,
          "durationTicks": 240,
          "midi": 35,
          "name": "B1",
          "ticks": 186240,
          "time": 77.60000000000001,
          "velocity": 1
        },
        {
          "duration": 0.09999999999999432,
          "durationTicks": 240,
          "midi": 46,
          "name": "A#2",
          "ticks": 186720,
          "time": 77.80000000000001,
          "velocity": 0.33858267716535434
        },
        {
          "duration": 0.10000000000000853,
          "durationTicks": 240,
          "midi": 46,
          "name": "A#2",
          "ticks": 187200,
          "time": 78,
          "velocity": 0.007874015748031496
        },
        {
          "duration": 0.10000000000000853,
          "durationTicks": 240,
          "midi": 35,
          "name": "B1",
          "ticks": 187200,
          "time": 78,
          "velocity": 1
        },
        {
          "duration": 0.10000000000000853,
          "durationTicks": 240,
          "midi": 40,
          "name": "E2",
          "ticks": 187200,
          "time": 78,
          "velocity": 0.6692913385826772
        },
        {
          "duration": 0.10000000000000853,
          "durationTicks": 240,
          "midi": 46,
          "name": "A#2",
          "ticks": 187680,
          "time": 78.2,
          "velocity": 0.33858267716535434
        },
        {
          "duration": 0.09999999999999432,
          "durationTicks": 240,
          "midi": 46,
          "name": "A#2",
          "ticks": 188160,
          "time": 78.4,
          "velocity": 0.007874015748031496
        },
        {
          "duration": 0.09999999999999432,
          "durationTicks": 240,
          "midi": 35,
          "name": "B1",
          "ticks": 188160,
          "time": 78.4,
          "velocity": 1
        },
        {
          "duration": 0.09999999999999432,
          "durationTicks": 240,
          "midi": 46,
          "name": "A#2",
          "ticks": 188640,
          "time": 78.60000000000001,
          "velocity": 0.33858267716535434
        },
        {
          "duration": 0.09999999999999432,
          "durationTicks": 240,
          "midi": 46,
          "name": "A#2",
          "ticks": 189120,
          "time": 78.80000000000001,
          "velocity": 0.007874015748031496
        },
        {
          "duration": 0.09999999999999432,
          "durationTicks": 240,
          "midi": 35,
          "name": "B1",
          "ticks": 189120,
          "time": 78.80000000000001,
          "velocity": 1
        },
        {
          "duration": 0.09999999999999432,
          "durationTicks": 240,
          "midi": 40,
          "name": "E2",
          "ticks": 189120,
          "time": 78.80000000000001,
          "velocity": 0.6692913385826772
        },
        {
          "duration": 0.10000000000000853,
          "durationTicks": 240,
          "midi": 46,
          "name": "A#2",
          "ticks": 189600,
          "time": 79,
          "velocity": 0.33858267716535434
        },
        {
          "duration": 0.10000000000000853,
          "durationTicks": 240,
          "midi": 46,
          "name": "A#2",
          "ticks": 190080,
          "time": 79.2,
          "velocity": 0.007874015748031496
        },
        {
          "duration": 0.10000000000000853,
          "durationTicks": 240,
          "midi": 35,
          "name": "B1",
          "ticks": 190080,
          "time": 79.2,
          "velocity": 1
        },
        {
          "duration": 0.09999999999999432,
          "durationTicks": 240,
          "midi": 40,
          "name": "E2",
          "ticks": 190320,
          "time": 79.30000000000001,
          "velocity": 0.6692913385826772
        },
        {
          "duration": 0.09999999999999432,
          "durationTicks": 240,
          "midi": 46,
          "name": "A#2",
          "ticks": 190560,
          "time": 79.4,
          "velocity": 0.33858267716535434
        },
        {
          "duration": 0.09999999999999432,
          "durationTicks": 240,
          "midi": 46,
          "name": "A#2",
          "ticks": 191040,
          "time": 79.60000000000001,
          "velocity": 0.007874015748031496
        },
        {
          "duration": 0.09999999999999432,
          "durationTicks": 240,
          "midi": 35,
          "name": "B1",
          "ticks": 191040,
          "time": 79.60000000000001,
          "velocity": 1
        },
        {
          "duration": 0.09999999999999432,
          "durationTicks": 240,
          "midi": 40,
          "name": "E2",
          "ticks": 191040,
          "time": 79.60000000000001,
          "velocity": 0.6692913385826772
        },
        {
          "duration": 0.09999999999999432,
          "durationTicks": 240,
          "midi": 46,
          "name": "A#2",
          "ticks": 191520,
          "time": 79.80000000000001,
          "velocity": 0.33858267716535434
        },
        {
          "duration": 0.09999999999999432,
          "durationTicks": 240,
          "midi": 35,
          "name": "B1",
          "ticks": 191520,
          "time": 79.80000000000001,
          "velocity": 1
        },
        {
          "duration": 0.10000000000000853,
          "durationTicks": 240,
          "midi": 46,
          "name": "A#2",
          "ticks": 192000,
          "time": 80,
          "velocity": 0.007874015748031496
        },
        {
          "duration": 0.10000000000000853,
          "durationTicks": 240,
          "midi": 35,
          "name": "B1",
          "ticks": 192000,
          "time": 80,
          "velocity": 1
        },
        {
          "duration": 0.10000000000000853,
          "durationTicks": 240,
          "midi": 46,
          "name": "A#2",
          "ticks": 192480,
          "time": 80.2,
          "velocity": 0.33858267716535434
        },
        {
          "duration": 0.09999999999999432,
          "durationTicks": 240,
          "midi": 40,
          "name": "E2",
          "ticks": 192960,
          "time": 80.4,
          "velocity": 0.6692913385826772
        },
        {
          "duration": 0.09999999999999432,
          "durationTicks": 240,
          "midi": 46,
          "name": "A#2",
          "ticks": 192960,
          "time": 80.4,
          "velocity": 0.007874015748031496
        },
        {
          "duration": 0.09999999999999432,
          "durationTicks": 240,
          "midi": 35,
          "name": "B1",
          "ticks": 192960,
          "time": 80.4,
          "velocity": 1
        },
        {
          "duration": 0.09999999999999432,
          "durationTicks": 240,
          "midi": 46,
          "name": "A#2",
          "ticks": 193440,
          "time": 80.60000000000001,
          "velocity": 0.33858267716535434
        },
        {
          "duration": 0.09999999999999432,
          "durationTicks": 240,
          "midi": 46,
          "name": "A#2",
          "ticks": 193920,
          "time": 80.80000000000001,
          "velocity": 0.007874015748031496
        },
        {
          "duration": 0.09999999999999432,
          "durationTicks": 240,
          "midi": 35,
          "name": "B1",
          "ticks": 193920,
          "time": 80.80000000000001,
          "velocity": 1
        },
        {
          "duration": 0.10000000000000853,
          "durationTicks": 240,
          "midi": 46,
          "name": "A#2",
          "ticks": 194400,
          "time": 81,
          "velocity": 0.33858267716535434
        },
        {
          "duration": 0.10000000000000853,
          "durationTicks": 240,
          "midi": 40,
          "name": "E2",
          "ticks": 194880,
          "time": 81.2,
          "velocity": 0.6692913385826772
        },
        {
          "duration": 0.10000000000000853,
          "durationTicks": 240,
          "midi": 46,
          "name": "A#2",
          "ticks": 194880,
          "time": 81.2,
          "velocity": 0.007874015748031496
        },
        {
          "duration": 0.10000000000000853,
          "durationTicks": 240,
          "midi": 35,
          "name": "B1",
          "ticks": 194880,
          "time": 81.2,
          "velocity": 1
        },
        {
          "duration": 0.09999999999999432,
          "durationTicks": 240,
          "midi": 46,
          "name": "A#2",
          "ticks": 195360,
          "time": 81.4,
          "velocity": 0.33858267716535434
        },
        {
          "duration": 0.09999999999999432,
          "durationTicks": 240,
          "midi": 35,
          "name": "B1",
          "ticks": 195840,
          "time": 81.60000000000001,
          "velocity": 1
        },
        {
          "duration": 0.09999999999999432,
          "durationTicks": 240,
          "midi": 46,
          "name": "A#2",
          "ticks": 195840,
          "time": 81.60000000000001,
          "velocity": 0.007874015748031496
        },
        {
          "duration": 0.09999999999999432,
          "durationTicks": 240,
          "midi": 40,
          "name": "E2",
          "ticks": 196320,
          "time": 81.80000000000001,
          "velocity": 0.6692913385826772
        },
        {
          "duration": 0.09999999999999432,
          "durationTicks": 240,
          "midi": 46,
          "name": "A#2",
          "ticks": 196320,
          "time": 81.80000000000001,
          "velocity": 0.33858267716535434
        },
        {
          "duration": 0.10000000000000853,
          "durationTicks": 240,
          "midi": 35,
          "name": "B1",
          "ticks": 196800,
          "time": 82,
          "velocity": 1
        },
        {
          "duration": 0.10000000000000853,
          "durationTicks": 240,
          "midi": 40,
          "name": "E2",
          "ticks": 196800,
          "time": 82,
          "velocity": 0.6692913385826772
        },
        {
          "duration": 0.10000000000000853,
          "durationTicks": 240,
          "midi": 46,
          "name": "A#2",
          "ticks": 196800,
          "time": 82,
          "velocity": 0.007874015748031496
        },
        {
          "duration": 0.10000000000000853,
          "durationTicks": 240,
          "midi": 46,
          "name": "A#2",
          "ticks": 197280,
          "time": 82.2,
          "velocity": 0.33858267716535434
        },
        {
          "duration": 0.09999999999999432,
          "durationTicks": 240,
          "midi": 35,
          "name": "B1",
          "ticks": 197760,
          "time": 82.4,
          "velocity": 1
        },
        {
          "duration": 0.09999999999999432,
          "durationTicks": 240,
          "midi": 46,
          "name": "A#2",
          "ticks": 197760,
          "time": 82.4,
          "velocity": 0.007874015748031496
        },
        {
          "duration": 0.10000000000000853,
          "durationTicks": 240,
          "midi": 40,
          "name": "E2",
          "ticks": 198000,
          "time": 82.5,
          "velocity": 0.6692913385826772
        },
        {
          "duration": 0.09999999999999432,
          "durationTicks": 240,
          "midi": 35,
          "name": "B1",
          "ticks": 198240,
          "time": 82.60000000000001,
          "velocity": 1
        },
        {
          "duration": 0.09999999999999432,
          "durationTicks": 240,
          "midi": 46,
          "name": "A#2",
          "ticks": 198240,
          "time": 82.60000000000001,
          "velocity": 0.33858267716535434
        },
        {
          "duration": 0.10000000000000853,
          "durationTicks": 240,
          "midi": 40,
          "name": "E2",
          "ticks": 198480,
          "time": 82.7,
          "velocity": 0.6692913385826772
        },
        {
          "duration": 0.09999999999999432,
          "durationTicks": 240,
          "midi": 35,
          "name": "B1",
          "ticks": 198720,
          "time": 82.80000000000001,
          "velocity": 1
        },
        {
          "duration": 0.09999999999999432,
          "durationTicks": 240,
          "midi": 46,
          "name": "A#2",
          "ticks": 198720,
          "time": 82.80000000000001,
          "velocity": 0.007874015748031496
        },
        {
          "duration": 0.10000000000000853,
          "durationTicks": 240,
          "midi": 35,
          "name": "B1",
          "ticks": 199200,
          "time": 83,
          "velocity": 1
        },
        {
          "duration": 0.10000000000000853,
          "durationTicks": 240,
          "midi": 40,
          "name": "E2",
          "ticks": 199200,
          "time": 83,
          "velocity": 0.6692913385826772
        },
        {
          "duration": 0.10000000000000853,
          "durationTicks": 240,
          "midi": 46,
          "name": "A#2",
          "ticks": 199200,
          "time": 83,
          "velocity": 0.33858267716535434
        }
      ],
      "endOfTrackTicks": 199440
    },
    {
      "channel": 0,
      "controlChanges": {
        "7": [
          {
            "number": 7,
            "ticks": 0,
            "time": 0,
            "value": 0.7480314960629921
          }
        ]
      },
      "pitchBends": [],
      "instrument": {
        "family": "piano",
        "number": 0,
        "name": "acoustic grand piano"
      },
      "name": "Phoenix Wright: Ace Attoruney",
      "notes": [],
      "endOfTrackTicks": 187440
    },
    {
      "channel": 1,
      "controlChanges": {},
      "pitchBends": [],
      "instrument": {
        "family": "synth lead",
        "number": 80,
        "name": "lead 1 (square)"
      },
      "name": "",
      "notes": [
        {
          "duration": 0.7999999999999998,
          "durationTicks": 1920,
          "midi": 79,
          "name": "G5",
          "ticks": 13440,
          "time": 5.6000000000000005,
          "velocity": 1
        },
        {
          "duration": 1.4000000000000004,
          "durationTicks": 3360,
          "midi": 84,
          "name": "C6",
          "ticks": 15360,
          "time": 6.4,
          "velocity": 1
        },
        {
          "duration": 0.09999999999999964,
          "durationTicks": 240,
          "midi": 82,
          "name": "A#5",
          "ticks": 18720,
          "time": 7.800000000000001,
          "velocity": 1
        },
        {
          "duration": 0.09999999999999964,
          "durationTicks": 240,
          "midi": 84,
          "name": "C6",
          "ticks": 18960,
          "time": 7.9,
          "velocity": 1
        },
        {
          "duration": 1.4000000000000004,
          "durationTicks": 3360,
          "midi": 77,
          "name": "F5",
          "ticks": 19200,
          "time": 8,
          "velocity": 1
        },
        {
          "duration": 0.09999999999999964,
          "durationTicks": 240,
          "midi": 77,
          "name": "F5",
          "ticks": 22560,
          "time": 9.4,
          "velocity": 1
        },
        {
          "duration": 0.10000000000000142,
          "durationTicks": 240,
          "midi": 80,
          "name": "G#5",
          "ticks": 22800,
          "time": 9.5,
          "velocity": 1
        },
        {
          "duration": 1.5999999999999996,
          "durationTicks": 3840,
          "midi": 82,
          "name": "A#5",
          "ticks": 23040,
          "time": 9.600000000000001,
          "velocity": 1
        },
        {
          "duration": 0.7999999999999989,
          "durationTicks": 1920,
          "midi": 79,
          "name": "G5",
          "ticks": 26880,
          "time": 11.200000000000001,
          "velocity": 1
        },
        {
          "duration": 0.8000000000000007,
          "durationTicks": 1920,
          "midi": 75,
          "name": "D#5",
          "ticks": 28800,
          "time": 12,
          "velocity": 1
        },
        {
          "duration": 1.1999999999999993,
          "durationTicks": 2880,
          "midi": 77,
          "name": "F5",
          "ticks": 30720,
          "time": 12.8,
          "velocity": 1
        },
        {
          "duration": 0.40000000000000036,
          "durationTicks": 960,
          "midi": 84,
          "name": "C6",
          "ticks": 33600,
          "time": 14,
          "velocity": 1
        },
        {
          "duration": 0.7000000000000011,
          "durationTicks": 1680,
          "midi": 85,
          "name": "C#6",
          "ticks": 34560,
          "time": 14.4,
          "velocity": 1
        },
        {
          "duration": 0.40000000000000036,
          "durationTicks": 960,
          "midi": 84,
          "name": "C6",
          "ticks": 36480,
          "time": 15.200000000000001,
          "velocity": 1
        },
        {
          "duration": 0.3999999999999986,
          "durationTicks": 960,
          "midi": 80,
          "name": "G#5",
          "ticks": 37440,
          "time": 15.600000000000001,
          "velocity": 1
        },
        {
          "duration": 0.8000000000000007,
          "durationTicks": 1920,
          "midi": 82,
          "name": "A#5",
          "ticks": 38400,
          "time": 16,
          "velocity": 1
        },
        {
          "duration": 0.8000000000000007,
          "durationTicks": 1920,
          "midi": 87,
          "name": "D#6",
          "ticks": 40320,
          "time": 16.8,
          "velocity": 1
        },
        {
          "duration": 0.8000000000000007,
          "durationTicks": 1920,
          "midi": 84,
          "name": "C6",
          "ticks": 42240,
          "time": 17.6,
          "velocity": 1
        },
        {
          "duration": 0.3999999999999986,
          "durationTicks": 960,
          "midi": 82,
          "name": "A#5",
          "ticks": 44160,
          "time": 18.400000000000002,
          "velocity": 1
        },
        {
          "duration": 0.40000000000000213,
          "durationTicks": 960,
          "midi": 80,
          "name": "G#5",
          "ticks": 45120,
          "time": 18.8,
          "velocity": 1
        },
        {
          "duration": 0.7999999999999972,
          "durationTicks": 1920,
          "midi": 79,
          "name": "G5",
          "ticks": 46080,
          "time": 19.200000000000003,
          "velocity": 1
        },
        {
          "duration": 0.8000000000000007,
          "durationTicks": 1920,
          "midi": 80,
          "name": "G#5",
          "ticks": 48000,
          "time": 20,
          "velocity": 1
        },
        {
          "duration": 0.1999999999999993,
          "durationTicks": 480,
          "midi": 77,
          "name": "F5",
          "ticks": 49920,
          "time": 20.8,
          "velocity": 1
        },
        {
          "duration": 0.05000000000000071,
          "durationTicks": 120,
          "midi": 77,
          "name": "F5",
          "ticks": 50400,
          "time": 21,
          "velocity": 0.5039370078740157
        },
        {
          "duration": 0.05000000000000071,
          "durationTicks": 120,
          "midi": 77,
          "name": "F5",
          "ticks": 50640,
          "time": 21.1,
          "velocity": 0.5039370078740157
        },
        {
          "duration": 0.04999999999999716,
          "durationTicks": 120,
          "midi": 77,
          "name": "F5",
          "ticks": 50880,
          "time": 21.200000000000003,
          "velocity": 0.7401574803149606
        },
        {
          "duration": 0.1999999999999993,
          "durationTicks": 480,
          "midi": 77,
          "name": "F5",
          "ticks": 51360,
          "time": 21.400000000000002,
          "velocity": 0.7401574803149606
        },
        {
          "duration": 0.05000000000000071,
          "durationTicks": 120,
          "midi": 77,
          "name": "F5",
          "ticks": 51840,
          "time": 21.6,
          "velocity": 0.5039370078740157
        },
        {
          "duration": 0.04999999999999716,
          "durationTicks": 120,
          "midi": 77,
          "name": "F5",
          "ticks": 52080,
          "time": 21.700000000000003,
          "velocity": 0.5039370078740157
        },
        {
          "duration": 0.05000000000000071,
          "durationTicks": 120,
          "midi": 77,
          "name": "F5",
          "ticks": 52320,
          "time": 21.8,
          "velocity": 0.5039370078740157
        },
        {
          "duration": 0.20000000000000284,
          "durationTicks": 480,
          "midi": 77,
          "name": "F5",
          "ticks": 52800,
          "time": 22,
          "velocity": 0.25196850393700787
        },
        {
          "duration": 0.1999999999999993,
          "durationTicks": 480,
          "midi": 75,
          "name": "D#5",
          "ticks": 53280,
          "time": 22.200000000000003,
          "velocity": 0.25196850393700787
        },
        {
          "duration": 0.8000000000000007,
          "durationTicks": 1920,
          "midi": 84,
          "name": "C6",
          "ticks": 61440,
          "time": 25.6,
          "velocity": 1
        },
        {
          "duration": 0.5999999999999979,
          "durationTicks": 1440,
          "midi": 87,
          "name": "D#6",
          "ticks": 63360,
          "time": 26.400000000000002,
          "velocity": 1
        },
        {
          "duration": 0.10000000000000142,
          "durationTicks": 240,
          "midi": 80,
          "name": "G#5",
          "ticks": 64800,
          "time": 27,
          "velocity": 1
        },
        {
          "duration": 0.10000000000000142,
          "durationTicks": 240,
          "midi": 82,
          "name": "A#5",
          "ticks": 65040,
          "time": 27.1,
          "velocity": 1
        },
        {
          "duration": 1.3999999999999986,
          "durationTicks": 3360,
          "midi": 80,
          "name": "G#5",
          "ticks": 65280,
          "time": 27.200000000000003,
          "velocity": 1
        },
        {
          "duration": 0.10000000000000142,
          "durationTicks": 240,
          "midi": 82,
          "name": "A#5",
          "ticks": 68640,
          "time": 28.6,
          "velocity": 1
        },
        {
          "duration": 0.09999999999999787,
          "durationTicks": 240,
          "midi": 84,
          "name": "C6",
          "ticks": 68880,
          "time": 28.700000000000003,
          "velocity": 1
        },
        {
          "duration": 1.6000000000000014,
          "durationTicks": 3840,
          "midi": 82,
          "name": "A#5",
          "ticks": 69120,
          "time": 28.8,
          "velocity": 1
        },
        {
          "duration": 0.6999999999999993,
          "durationTicks": 1680,
          "midi": 79,
          "name": "G5",
          "ticks": 72960,
          "time": 30.400000000000002,
          "velocity": 1
        },
        {
          "duration": 0.7999999999999972,
          "durationTicks": 1920,
          "midi": 75,
          "name": "D#5",
          "ticks": 74880,
          "time": 31.200000000000003,
          "velocity": 1
        },
        {
          "duration": 0.8000000000000043,
          "durationTicks": 1920,
          "midi": 77,
          "name": "F5",
          "ticks": 76800,
          "time": 32,
          "velocity": 1
        },
        {
          "duration": 0.7999999999999972,
          "durationTicks": 1920,
          "midi": 72,
          "name": "C5",
          "ticks": 78720,
          "time": 32.800000000000004,
          "velocity": 1
        },
        {
          "duration": 0.7999999999999972,
          "durationTicks": 1920,
          "midi": 73,
          "name": "C#5",
          "ticks": 80640,
          "time": 33.6,
          "velocity": 1
        },
        {
          "duration": 0.4000000000000057,
          "durationTicks": 960,
          "midi": 75,
          "name": "D#5",
          "ticks": 82560,
          "time": 34.4,
          "velocity": 1
        },
        {
          "duration": 0.3999999999999986,
          "durationTicks": 960,
          "midi": 79,
          "name": "G5",
          "ticks": 83520,
          "time": 34.800000000000004,
          "velocity": 1
        },
        {
          "duration": 0.7999999999999972,
          "durationTicks": 1920,
          "midi": 80,
          "name": "G#5",
          "ticks": 84480,
          "time": 35.2,
          "velocity": 1
        },
        {
          "duration": 0.8000000000000043,
          "durationTicks": 1920,
          "midi": 77,
          "name": "F5",
          "ticks": 86400,
          "time": 36,
          "velocity": 1
        },
        {
          "duration": 0.7999999999999972,
          "durationTicks": 1920,
          "midi": 82,
          "name": "A#5",
          "ticks": 88320,
          "time": 36.800000000000004,
          "velocity": 1
        },
        {
          "duration": 0.3999999999999986,
          "durationTicks": 960,
          "midi": 79,
          "name": "G5",
          "ticks": 90240,
          "time": 37.6,
          "velocity": 1
        },
        {
          "duration": 0.4000000000000057,
          "durationTicks": 960,
          "midi": 75,
          "name": "D#5",
          "ticks": 91200,
          "time": 38,
          "velocity": 1
        },
        {
          "duration": 0.10000000000000142,
          "durationTicks": 240,
          "midi": 70,
          "name": "A#4",
          "ticks": 92640,
          "time": 38.6,
          "velocity": 1
        },
        {
          "duration": 0.10000000000000142,
          "durationTicks": 240,
          "midi": 72,
          "name": "C5",
          "ticks": 92880,
          "time": 38.7,
          "velocity": 1
        },
        {
          "duration": 0.09999999999999432,
          "durationTicks": 240,
          "midi": 70,
          "name": "A#4",
          "ticks": 93360,
          "time": 38.900000000000006,
          "velocity": 0.7401574803149606
        },
        {
          "duration": 0.10000000000000142,
          "durationTicks": 240,
          "midi": 72,
          "name": "C5",
          "ticks": 93600,
          "time": 39,
          "velocity": 0.7401574803149606
        },
        {
          "duration": 0.10000000000000142,
          "durationTicks": 240,
          "midi": 70,
          "name": "A#4",
          "ticks": 94080,
          "time": 39.2,
          "velocity": 0.5039370078740157
        },
        {
          "duration": 0.10000000000000142,
          "durationTicks": 240,
          "midi": 72,
          "name": "C5",
          "ticks": 94320,
          "time": 39.300000000000004,
          "velocity": 0.5039370078740157
        },
        {
          "duration": 0.10000000000000142,
          "durationTicks": 240,
          "midi": 70,
          "name": "A#4",
          "ticks": 94800,
          "time": 39.5,
          "velocity": 0.25196850393700787
        },
        {
          "duration": 0.10000000000000142,
          "durationTicks": 240,
          "midi": 72,
          "name": "C5",
          "ticks": 95040,
          "time": 39.6,
          "velocity": 0.25196850393700787
        },
        {
          "duration": 1.3999999999999986,
          "durationTicks": 3360,
          "midi": 84,
          "name": "C6",
          "ticks": 107520,
          "time": 44.800000000000004,
          "velocity": 1
        },
        {
          "duration": 0.10000000000000142,
          "durationTicks": 240,
          "midi": 82,
          "name": "A#5",
          "ticks": 110880,
          "time": 46.2,
          "velocity": 1
        },
        {
          "duration": 0.10000000000000142,
          "durationTicks": 240,
          "midi": 84,
          "name": "C6",
          "ticks": 111120,
          "time": 46.300000000000004,
          "velocity": 1
        },
        {
          "duration": 1.3999999999999986,
          "durationTicks": 3360,
          "midi": 77,
          "name": "F5",
          "ticks": 111360,
          "time": 46.400000000000006,
          "velocity": 1
        },
        {
          "duration": 0.10000000000000142,
          "durationTicks": 240,
          "midi": 77,
          "name": "F5",
          "ticks": 114720,
          "time": 47.800000000000004,
          "velocity": 1
        },
        {
          "duration": 0.09999999999999432,
          "durationTicks": 240,
          "midi": 80,
          "name": "G#5",
          "ticks": 114960,
          "time": 47.900000000000006,
          "velocity": 1
        },
        {
          "duration": 1.6000000000000014,
          "durationTicks": 3840,
          "midi": 82,
          "name": "A#5",
          "ticks": 115200,
          "time": 48,
          "velocity": 1
        },
        {
          "duration": 0.8000000000000043,
          "durationTicks": 1920,
          "midi": 79,
          "name": "G5",
          "ticks": 119040,
          "time": 49.6,
          "velocity": 1
        },
        {
          "duration": 0.7999999999999972,
          "durationTicks": 1920,
          "midi": 75,
          "name": "D#5",
          "ticks": 120960,
          "time": 50.400000000000006,
          "velocity": 1
        },
        {
          "duration": 1.2000000000000028,
          "durationTicks": 2880,
          "midi": 77,
          "name": "F5",
          "ticks": 122880,
          "time": 51.2,
          "velocity": 1
        },
        {
          "duration": 0.3999999999999986,
          "durationTicks": 960,
          "midi": 84,
          "name": "C6",
          "ticks": 125760,
          "time": 52.400000000000006,
          "velocity": 1
        },
        {
          "duration": 0.6999999999999957,
          "durationTicks": 1680,
          "midi": 85,
          "name": "C#6",
          "ticks": 126720,
          "time": 52.800000000000004,
          "velocity": 1
        },
        {
          "duration": 0.3999999999999986,
          "durationTicks": 960,
          "midi": 84,
          "name": "C6",
          "ticks": 128640,
          "time": 53.6,
          "velocity": 1
        },
        {
          "duration": 0.4000000000000057,
          "durationTicks": 960,
          "midi": 80,
          "name": "G#5",
          "ticks": 129600,
          "time": 54,
          "velocity": 1
        },
        {
          "duration": 0.7999999999999972,
          "durationTicks": 1920,
          "midi": 82,
          "name": "A#5",
          "ticks": 130560,
          "time": 54.400000000000006,
          "velocity": 1
        },
        {
          "duration": 0.7999999999999972,
          "durationTicks": 1920,
          "midi": 87,
          "name": "D#6",
          "ticks": 132480,
          "time": 55.2,
          "velocity": 1
        },
        {
          "duration": 0.8000000000000043,
          "durationTicks": 1920,
          "midi": 84,
          "name": "C6",
          "ticks": 134400,
          "time": 56,
          "velocity": 1
        },
        {
          "duration": 0.3999999999999986,
          "durationTicks": 960,
          "midi": 82,
          "name": "A#5",
          "ticks": 136320,
          "time": 56.800000000000004,
          "velocity": 1
        },
        {
          "duration": 0.3999999999999986,
          "durationTicks": 960,
          "midi": 80,
          "name": "G#5",
          "ticks": 137280,
          "time": 57.2,
          "velocity": 1
        },
        {
          "duration": 0.8000000000000043,
          "durationTicks": 1920,
          "midi": 79,
          "name": "G5",
          "ticks": 138240,
          "time": 57.6,
          "velocity": 1
        },
        {
          "duration": 0.7999999999999972,
          "durationTicks": 1920,
          "midi": 80,
          "name": "G#5",
          "ticks": 140160,
          "time": 58.400000000000006,
          "velocity": 1
        },
        {
          "duration": 0.20000000000000284,
          "durationTicks": 480,
          "midi": 77,
          "name": "F5",
          "ticks": 142080,
          "time": 59.2,
          "velocity": 1
        },
        {
          "duration": 0.04999999999999716,
          "durationTicks": 120,
          "midi": 77,
          "name": "F5",
          "ticks": 142560,
          "time": 59.400000000000006,
          "velocity": 0.5039370078740157
        },
        {
          "duration": 0.05000000000000426,
          "durationTicks": 120,
          "midi": 77,
          "name": "F5",
          "ticks": 142800,
          "time": 59.5,
          "velocity": 0.5039370078740157
        },
        {
          "duration": 0.05000000000000426,
          "durationTicks": 120,
          "midi": 77,
          "name": "F5",
          "ticks": 143040,
          "time": 59.6,
          "velocity": 0.7401574803149606
        },
        {
          "duration": 0.19999999999999574,
          "durationTicks": 480,
          "midi": 77,
          "name": "F5",
          "ticks": 143520,
          "time": 59.800000000000004,
          "velocity": 0.7401574803149606
        },
        {
          "duration": 0.05000000000000426,
          "durationTicks": 120,
          "midi": 77,
          "name": "F5",
          "ticks": 144000,
          "time": 60,
          "velocity": 0.5039370078740157
        },
        {
          "duration": 0.05000000000000426,
          "durationTicks": 120,
          "midi": 77,
          "name": "F5",
          "ticks": 144240,
          "time": 60.1,
          "velocity": 0.5039370078740157
        },
        {
          "duration": 0.04999999999999716,
          "durationTicks": 120,
          "midi": 77,
          "name": "F5",
          "ticks": 144480,
          "time": 60.2,
          "velocity": 0.5039370078740157
        },
        {
          "duration": 0.19999999999999574,
          "durationTicks": 480,
          "midi": 77,
          "name": "F5",
          "ticks": 144960,
          "time": 60.400000000000006,
          "velocity": 0.25196850393700787
        },
        {
          "duration": 0.20000000000000284,
          "durationTicks": 480,
          "midi": 75,
          "name": "D#5",
          "ticks": 145440,
          "time": 60.6,
          "velocity": 0.25196850393700787
        },
        {
          "duration": 0.7999999999999972,
          "durationTicks": 1920,
          "midi": 84,
          "name": "C6",
          "ticks": 153600,
          "time": 64,
          "velocity": 1
        },
        {
          "duration": 0.6000000000000085,
          "durationTicks": 1440,
          "midi": 87,
          "name": "D#6",
          "ticks": 155520,
          "time": 64.8,
          "velocity": 1
        },
        {
          "duration": 0.09999999999999432,
          "durationTicks": 240,
          "midi": 80,
          "name": "G#5",
          "ticks": 156960,
          "time": 65.4,
          "velocity": 1
        },
        {
          "duration": 0.10000000000000853,
          "durationTicks": 240,
          "midi": 82,
          "name": "A#5",
          "ticks": 157200,
          "time": 65.5,
          "velocity": 1
        },
        {
          "duration": 1.3999999999999915,
          "durationTicks": 3360,
          "midi": 80,
          "name": "G#5",
          "ticks": 157440,
          "time": 65.60000000000001,
          "velocity": 1
        },
        {
          "duration": 0.10000000000000853,
          "durationTicks": 240,
          "midi": 82,
          "name": "A#5",
          "ticks": 160800,
          "time": 67,
          "velocity": 1
        },
        {
          "duration": 0.09999999999999432,
          "durationTicks": 240,
          "midi": 84,
          "name": "C6",
          "ticks": 161040,
          "time": 67.10000000000001,
          "velocity": 1
        },
        {
          "duration": 1.5999999999999943,
          "durationTicks": 3840,
          "midi": 82,
          "name": "A#5",
          "ticks": 161280,
          "time": 67.2,
          "velocity": 1
        },
        {
          "duration": 0.7000000000000028,
          "durationTicks": 1680,
          "midi": 79,
          "name": "G5",
          "ticks": 165120,
          "time": 68.8,
          "velocity": 1
        },
        {
          "duration": 0.7999999999999972,
          "durationTicks": 1920,
          "midi": 75,
          "name": "D#5",
          "ticks": 167040,
          "time": 69.60000000000001,
          "velocity": 1
        },
        {
          "duration": 0.7999999999999972,
          "durationTicks": 1920,
          "midi": 77,
          "name": "F5",
          "ticks": 168960,
          "time": 70.4,
          "velocity": 1
        },
        {
          "duration": 0.7999999999999972,
          "durationTicks": 1920,
          "midi": 72,
          "name": "C5",
          "ticks": 170880,
          "time": 71.2,
          "velocity": 1
        },
        {
          "duration": 0.7999999999999972,
          "durationTicks": 1920,
          "midi": 73,
          "name": "C#5",
          "ticks": 172800,
          "time": 72,
          "velocity": 1
        },
        {
          "duration": 0.4000000000000057,
          "durationTicks": 960,
          "midi": 75,
          "name": "D#5",
          "ticks": 174720,
          "time": 72.8,
          "velocity": 1
        },
        {
          "duration": 0.4000000000000057,
          "durationTicks": 960,
          "midi": 79,
          "name": "G5",
          "ticks": 175680,
          "time": 73.2,
          "velocity": 1
        },
        {
          "duration": 0.7999999999999972,
          "durationTicks": 1920,
          "midi": 80,
          "name": "G#5",
          "ticks": 176640,
          "time": 73.60000000000001,
          "velocity": 1
        },
        {
          "duration": 0.7999999999999972,
          "durationTicks": 1920,
          "midi": 77,
          "name": "F5",
          "ticks": 178560,
          "time": 74.4,
          "velocity": 1
        },
        {
          "duration": 0.7999999999999972,
          "durationTicks": 1920,
          "midi": 82,
          "name": "A#5",
          "ticks": 180480,
          "time": 75.2,
          "velocity": 1
        },
        {
          "duration": 0.4000000000000057,
          "durationTicks": 960,
          "midi": 79,
          "name": "G5",
          "ticks": 182400,
          "time": 76,
          "velocity": 1
        },
        {
          "duration": 0.4000000000000057,
          "durationTicks": 960,
          "midi": 75,
          "name": "D#5",
          "ticks": 183360,
          "time": 76.4,
          "velocity": 1
        },
        {
          "duration": 0.10000000000000853,
          "durationTicks": 240,
          "midi": 70,
          "name": "A#4",
          "ticks": 184800,
          "time": 77,
          "velocity": 1
        },
        {
          "duration": 0.09999999999999432,
          "durationTicks": 240,
          "midi": 72,
          "name": "C5",
          "ticks": 185040,
          "time": 77.10000000000001,
          "velocity": 1
        },
        {
          "duration": 0.09999999999999432,
          "durationTicks": 240,
          "midi": 70,
          "name": "A#4",
          "ticks": 185520,
          "time": 77.30000000000001,
          "velocity": 0.7401574803149606
        },
        {
          "duration": 0.09999999999999432,
          "durationTicks": 240,
          "midi": 72,
          "name": "C5",
          "ticks": 185760,
          "time": 77.4,
          "velocity": 0.7401574803149606
        },
        {
          "duration": 0.09999999999999432,
          "durationTicks": 240,
          "midi": 70,
          "name": "A#4",
          "ticks": 186240,
          "time": 77.60000000000001,
          "velocity": 0.5039370078740157
        },
        {
          "duration": 0.10000000000000853,
          "durationTicks": 240,
          "midi": 72,
          "name": "C5",
          "ticks": 186480,
          "time": 77.7,
          "velocity": 0.5039370078740157
        },
        {
          "duration": 0.09999999999999432,
          "durationTicks": 240,
          "midi": 70,
          "name": "A#4",
          "ticks": 186960,
          "time": 77.9,
          "velocity": 0.25196850393700787
        },
        {
          "duration": 0.10000000000000853,
          "durationTicks": 240,
          "midi": 72,
          "name": "C5",
          "ticks": 187200,
          "time": 78,
          "velocity": 0.25196850393700787
        }
      ]
    },
    {
      "channel": 0,
      "controlChanges": {
        "7": [
          {
            "number": 7,
            "ticks": 0,
            "time": 0,
            "value": 0.6692913385826772
          }
        ]
      },
      "pitchBends": [],
      "instrument": {
        "family": "piano",
        "number": 0,
        "name": "acoustic grand piano"
      },
      "name": "Sequenced @ 2006 by Three-Headed-Monkey",
      "notes": [],
      "endOfTrackTicks": 186720
    },
    {
      "channel": 3,
      "controlChanges": {},
      "pitchBends": [],
      "instrument": {
        "family": "brass",
        "number": 62,
        "name": "synthbrass 1"
      },
      "name": "",
      "notes": [
        {
          "duration": 0.7999999999999998,
          "durationTicks": 1920,
          "midi": 60,
          "name": "C4",
          "ticks": 13440,
          "time": 5.6000000000000005,
          "velocity": 1
        },
        {
          "duration": 1.5999999999999996,
          "durationTicks": 3840,
          "midi": 65,
          "name": "F4",
          "ticks": 15360,
          "time": 6.4,
          "velocity": 1
        },
        {
          "duration": 0.8000000000000007,
          "durationTicks": 1920,
          "midi": 60,
          "name": "C4",
          "ticks": 19200,
          "time": 8,
          "velocity": 1
        },
        {
          "duration": 0.09999999999999964,
          "durationTicks": 240,
          "midi": 65,
          "name": "F4",
          "ticks": 21120,
          "time": 8.8,
          "velocity": 1
        },
        {
          "duration": 0.09999999999999964,
          "durationTicks": 240,
          "midi": 64,
          "name": "E4",
          "ticks": 21360,
          "time": 8.9,
          "velocity": 1
        },
        {
          "duration": 0.09999999999999964,
          "durationTicks": 240,
          "midi": 65,
          "name": "F4",
          "ticks": 21600,
          "time": 9,
          "velocity": 1
        },
        {
          "duration": 0.10000000000000142,
          "durationTicks": 240,
          "midi": 72,
          "name": "C5",
          "ticks": 21840,
          "time": 9.1,
          "velocity": 1
        },
        {
          "duration": 0.09999999999999964,
          "durationTicks": 240,
          "midi": 56,
          "name": "G#3",
          "ticks": 22080,
          "time": 9.200000000000001,
          "velocity": 1
        },
        {
          "duration": 0.09999999999999964,
          "durationTicks": 240,
          "midi": 60,
          "name": "C4",
          "ticks": 22320,
          "time": 9.3,
          "velocity": 1
        },
        {
          "duration": 0.09999999999999964,
          "durationTicks": 240,
          "midi": 63,
          "name": "D#4",
          "ticks": 22560,
          "time": 9.4,
          "velocity": 1
        },
        {
          "duration": 0.10000000000000142,
          "durationTicks": 240,
          "midi": 65,
          "name": "F4",
          "ticks": 22800,
          "time": 9.5,
          "velocity": 1
        },
        {
          "duration": 0.1999999999999993,
          "durationTicks": 480,
          "midi": 61,
          "name": "C#4",
          "ticks": 23520,
          "time": 9.8,
          "velocity": 1
        },
        {
          "duration": 0.20000000000000107,
          "durationTicks": 480,
          "midi": 65,
          "name": "F4",
          "ticks": 24000,
          "time": 10,
          "velocity": 1
        },
        {
          "duration": 0.1999999999999993,
          "durationTicks": 480,
          "midi": 70,
          "name": "A#4",
          "ticks": 24480,
          "time": 10.200000000000001,
          "velocity": 1
        },
        {
          "duration": 0.20000000000000107,
          "durationTicks": 480,
          "midi": 68,
          "name": "G#4",
          "ticks": 24960,
          "time": 10.4,
          "velocity": 1
        },
        {
          "duration": 0.1999999999999993,
          "durationTicks": 480,
          "midi": 61,
          "name": "C#4",
          "ticks": 25440,
          "time": 10.600000000000001,
          "velocity": 1
        },
        {
          "duration": 0.1999999999999993,
          "durationTicks": 480,
          "midi": 65,
          "name": "F4",
          "ticks": 25920,
          "time": 10.8,
          "velocity": 1
        },
        {
          "duration": 0.20000000000000107,
          "durationTicks": 480,
          "midi": 68,
          "name": "G#4",
          "ticks": 26400,
          "time": 11,
          "velocity": 1
        },
        {
          "duration": 0.1999999999999993,
          "durationTicks": 480,
          "midi": 67,
          "name": "G4",
          "ticks": 26880,
          "time": 11.200000000000001,
          "velocity": 1
        },
        {
          "duration": 0.20000000000000107,
          "durationTicks": 480,
          "midi": 58,
          "name": "A#3",
          "ticks": 27360,
          "time": 11.4,
          "velocity": 1
        },
        {
          "duration": 0.1999999999999993,
          "durationTicks": 480,
          "midi": 63,
          "name": "D#4",
          "ticks": 27840,
          "time": 11.600000000000001,
          "velocity": 1
        },
        {
          "duration": 0.1999999999999993,
          "durationTicks": 480,
          "midi": 67,
          "name": "G4",
          "ticks": 28320,
          "time": 11.8,
          "velocity": 1
        },
        {
          "duration": 0.20000000000000107,
          "durationTicks": 480,
          "midi": 63,
          "name": "D#4",
          "ticks": 28800,
          "time": 12,
          "velocity": 1
        },
        {
          "duration": 0.1999999999999993,
          "durationTicks": 480,
          "midi": 51,
          "name": "D#3",
          "ticks": 29280,
          "time": 12.200000000000001,
          "velocity": 1
        },
        {
          "duration": 0.20000000000000107,
          "durationTicks": 480,
          "midi": 58,
          "name": "A#3",
          "ticks": 29760,
          "time": 12.4,
          "velocity": 1
        },
        {
          "duration": 0.1999999999999993,
          "durationTicks": 480,
          "midi": 63,
          "name": "D#4",
          "ticks": 30240,
          "time": 12.600000000000001,
          "velocity": 1
        },
        {
          "duration": 0.09999999999999964,
          "durationTicks": 240,
          "midi": 65,
          "name": "F4",
          "ticks": 30720,
          "time": 12.8,
          "velocity": 1
        },
        {
          "duration": 0.09999999999999964,
          "durationTicks": 240,
          "midi": 53,
          "name": "F3",
          "ticks": 30960,
          "time": 12.9,
          "velocity": 1
        },
        {
          "duration": 0.10000000000000142,
          "durationTicks": 240,
          "midi": 56,
          "name": "G#3",
          "ticks": 31200,
          "time": 13,
          "velocity": 1
        },
        {
          "duration": 0.09999999999999964,
          "durationTicks": 240,
          "midi": 60,
          "name": "C4",
          "ticks": 31440,
          "time": 13.100000000000001,
          "velocity": 1
        },
        {
          "duration": 0.09999999999999964,
          "durationTicks": 240,
          "midi": 67,
          "name": "G4",
          "ticks": 31680,
          "time": 13.200000000000001,
          "velocity": 1
        },
        {
          "duration": 0.09999999999999964,
          "durationTicks": 240,
          "midi": 56,
          "name": "G#3",
          "ticks": 31920,
          "time": 13.3,
          "velocity": 1
        },
        {
          "duration": 0.09999999999999964,
          "durationTicks": 240,
          "midi": 60,
          "name": "C4",
          "ticks": 32160,
          "time": 13.4,
          "velocity": 1
        },
        {
          "duration": 0.10000000000000142,
          "durationTicks": 240,
          "midi": 67,
          "name": "G4",
          "ticks": 32400,
          "time": 13.5,
          "velocity": 1
        },
        {
          "duration": 0.09999999999999964,
          "durationTicks": 240,
          "midi": 68,
          "name": "G#4",
          "ticks": 32640,
          "time": 13.600000000000001,
          "velocity": 1
        },
        {
          "duration": 0.09999999999999964,
          "durationTicks": 240,
          "midi": 60,
          "name": "C4",
          "ticks": 32880,
          "time": 13.700000000000001,
          "velocity": 1
        },
        {
          "duration": 0.09999999999999964,
          "durationTicks": 240,
          "midi": 65,
          "name": "F4",
          "ticks": 33120,
          "time": 13.8,
          "velocity": 1
        },
        {
          "duration": 0.09999999999999964,
          "durationTicks": 240,
          "midi": 68,
          "name": "G#4",
          "ticks": 33360,
          "time": 13.9,
          "velocity": 1
        },
        {
          "duration": 0.10000000000000142,
          "durationTicks": 240,
          "midi": 72,
          "name": "C5",
          "ticks": 33600,
          "time": 14,
          "velocity": 1
        },
        {
          "duration": 0.1999999999999993,
          "durationTicks": 480,
          "midi": 60,
          "name": "C4",
          "ticks": 34080,
          "time": 14.200000000000001,
          "velocity": 1
        },
        {
          "duration": 0.1999999999999993,
          "durationTicks": 480,
          "midi": 65,
          "name": "F4",
          "ticks": 35040,
          "time": 14.600000000000001,
          "velocity": 1
        },
        {
          "duration": 0.1999999999999993,
          "durationTicks": 480,
          "midi": 68,
          "name": "G#4",
          "ticks": 35520,
          "time": 14.8,
          "velocity": 1
        },
        {
          "duration": 0.20000000000000107,
          "durationTicks": 480,
          "midi": 73,
          "name": "C#5",
          "ticks": 36000,
          "time": 15,
          "velocity": 1
        },
        {
          "duration": 0.09999999999999964,
          "durationTicks": 240,
          "midi": 60,
          "name": "C4",
          "ticks": 36720,
          "time": 15.3,
          "velocity": 1
        },
        {
          "duration": 0.09999999999999964,
          "durationTicks": 240,
          "midi": 67,
          "name": "G4",
          "ticks": 36960,
          "time": 15.4,
          "velocity": 1
        },
        {
          "duration": 0.10000000000000142,
          "durationTicks": 240,
          "midi": 72,
          "name": "C5",
          "ticks": 37200,
          "time": 15.5,
          "velocity": 1
        },
        {
          "duration": 0.09999999999999964,
          "durationTicks": 240,
          "midi": 56,
          "name": "G#3",
          "ticks": 37680,
          "time": 15.700000000000001,
          "velocity": 1
        },
        {
          "duration": 0.09999999999999964,
          "durationTicks": 240,
          "midi": 60,
          "name": "C4",
          "ticks": 37920,
          "time": 15.8,
          "velocity": 1
        },
        {
          "duration": 0.09999999999999964,
          "durationTicks": 240,
          "midi": 65,
          "name": "F4",
          "ticks": 38160,
          "time": 15.9,
          "velocity": 1
        },
        {
          "duration": 0.10000000000000142,
          "durationTicks": 240,
          "midi": 70,
          "name": "A#4",
          "ticks": 38400,
          "time": 16,
          "velocity": 1
        },
        {
          "duration": 0.20000000000000284,
          "durationTicks": 480,
          "midi": 58,
          "name": "A#3",
          "ticks": 38880,
          "time": 16.2,
          "velocity": 1
        },
        {
          "duration": 0.1999999999999993,
          "durationTicks": 480,
          "midi": 63,
          "name": "D#4",
          "ticks": 39360,
          "time": 16.400000000000002,
          "velocity": 1
        },
        {
          "duration": 0.1999999999999993,
          "durationTicks": 480,
          "midi": 70,
          "name": "A#4",
          "ticks": 39840,
          "time": 16.6,
          "velocity": 1
        },
        {
          "duration": 0.1999999999999993,
          "durationTicks": 480,
          "midi": 63,
          "name": "D#4",
          "ticks": 40800,
          "time": 17,
          "velocity": 1
        },
        {
          "duration": 0.20000000000000284,
          "durationTicks": 480,
          "midi": 70,
          "name": "A#4",
          "ticks": 41280,
          "time": 17.2,
          "velocity": 1
        },
        {
          "duration": 0.1999999999999993,
          "durationTicks": 480,
          "midi": 75,
          "name": "D#5",
          "ticks": 41760,
          "time": 17.400000000000002,
          "velocity": 1
        },
        {
          "duration": 0.1999999999999993,
          "durationTicks": 480,
          "midi": 60,
          "name": "C4",
          "ticks": 42720,
          "time": 17.8,
          "velocity": 1
        },
        {
          "duration": 0.1999999999999993,
          "durationTicks": 480,
          "midi": 65,
          "name": "F4",
          "ticks": 43200,
          "time": 18,
          "velocity": 1
        },
        {
          "duration": 0.20000000000000284,
          "durationTicks": 480,
          "midi": 72,
          "name": "C5",
          "ticks": 43680,
          "time": 18.2,
          "velocity": 1
        },
        {
          "duration": 0.1999999999999993,
          "durationTicks": 480,
          "midi": 60,
          "name": "C4",
          "ticks": 44640,
          "time": 18.6,
          "velocity": 1
        },
        {
          "duration": 0.20000000000000284,
          "durationTicks": 480,
          "midi": 60,
          "name": "C4",
          "ticks": 45600,
          "time": 19,
          "velocity": 1
        },
        {
          "duration": 0.1999999999999993,
          "durationTicks": 480,
          "midi": 55,
          "name": "G3",
          "ticks": 46560,
          "time": 19.400000000000002,
          "velocity": 1
        },
        {
          "duration": 0.1999999999999993,
          "durationTicks": 480,
          "midi": 63,
          "name": "D#4",
          "ticks": 47040,
          "time": 19.6,
          "velocity": 1
        },
        {
          "duration": 0.1999999999999993,
          "durationTicks": 480,
          "midi": 67,
          "name": "G4",
          "ticks": 47520,
          "time": 19.8,
          "velocity": 1
        },
        {
          "duration": 0.1999999999999993,
          "durationTicks": 480,
          "midi": 56,
          "name": "G#3",
          "ticks": 48480,
          "time": 20.200000000000003,
          "velocity": 1
        },
        {
          "duration": 0.1999999999999993,
          "durationTicks": 480,
          "midi": 63,
          "name": "D#4",
          "ticks": 48960,
          "time": 20.400000000000002,
          "velocity": 1
        },
        {
          "duration": 0.1999999999999993,
          "durationTicks": 480,
          "midi": 68,
          "name": "G#4",
          "ticks": 49440,
          "time": 20.6,
          "velocity": 1
        },
        {
          "duration": 0.8000000000000007,
          "durationTicks": 1920,
          "midi": 65,
          "name": "F4",
          "ticks": 61440,
          "time": 25.6,
          "velocity": 1
        },
        {
          "duration": 0.8000000000000007,
          "durationTicks": 1920,
          "midi": 68,
          "name": "G#4",
          "ticks": 63360,
          "time": 26.400000000000002,
          "velocity": 1
        },
        {
          "duration": 1.5999999999999979,
          "durationTicks": 3840,
          "midi": 60,
          "name": "C4",
          "ticks": 65280,
          "time": 27.200000000000003,
          "velocity": 1
        },
        {
          "duration": 1.6000000000000014,
          "durationTicks": 3840,
          "midi": 63,
          "name": "D#4",
          "ticks": 69120,
          "time": 28.8,
          "velocity": 1
        },
        {
          "duration": 0.1999999999999993,
          "durationTicks": 480,
          "midi": 60,
          "name": "C4",
          "ticks": 72960,
          "time": 30.400000000000002,
          "velocity": 1
        },
        {
          "duration": 0.1999999999999993,
          "durationTicks": 480,
          "midi": 58,
          "name": "A#3",
          "ticks": 73440,
          "time": 30.6,
          "velocity": 1
        },
        {
          "duration": 0.1999999999999993,
          "durationTicks": 480,
          "midi": 63,
          "name": "D#4",
          "ticks": 73920,
          "time": 30.8,
          "velocity": 1
        },
        {
          "duration": 0.20000000000000284,
          "durationTicks": 480,
          "midi": 67,
          "name": "G4",
          "ticks": 74400,
          "time": 31,
          "velocity": 1
        },
        {
          "duration": 0.1999999999999993,
          "durationTicks": 480,
          "midi": 58,
          "name": "A#3",
          "ticks": 74880,
          "time": 31.200000000000003,
          "velocity": 1
        },
        {
          "duration": 0.1999999999999993,
          "durationTicks": 480,
          "midi": 51,
          "name": "D#3",
          "ticks": 75360,
          "time": 31.400000000000002,
          "velocity": 1
        },
        {
          "duration": 0.1999999999999993,
          "durationTicks": 480,
          "midi": 55,
          "name": "G3",
          "ticks": 75840,
          "time": 31.6,
          "velocity": 1
        },
        {
          "duration": 0.1999999999999993,
          "durationTicks": 480,
          "midi": 58,
          "name": "A#3",
          "ticks": 76320,
          "time": 31.8,
          "velocity": 1
        },
        {
          "duration": 0.19999999999999574,
          "durationTicks": 480,
          "midi": 56,
          "name": "G#3",
          "ticks": 77280,
          "time": 32.2,
          "velocity": 1
        },
        {
          "duration": 0.20000000000000284,
          "durationTicks": 480,
          "midi": 60,
          "name": "C4",
          "ticks": 77760,
          "time": 32.4,
          "velocity": 1
        },
        {
          "duration": 0.20000000000000284,
          "durationTicks": 480,
          "midi": 65,
          "name": "F4",
          "ticks": 78240,
          "time": 32.6,
          "velocity": 1
        },
        {
          "duration": 0.19999999999999574,
          "durationTicks": 480,
          "midi": 60,
          "name": "C4",
          "ticks": 78720,
          "time": 32.800000000000004,
          "velocity": 1
        },
        {
          "duration": 0.20000000000000284,
          "durationTicks": 480,
          "midi": 53,
          "name": "F3",
          "ticks": 79200,
          "time": 33,
          "velocity": 1
        },
        {
          "duration": 0.19999999999999574,
          "durationTicks": 480,
          "midi": 56,
          "name": "G#3",
          "ticks": 79680,
          "time": 33.2,
          "velocity": 1
        },
        {
          "duration": 0.20000000000000284,
          "durationTicks": 480,
          "midi": 60,
          "name": "C4",
          "ticks": 80160,
          "time": 33.4,
          "velocity": 1
        },
        {
          "duration": 0.20000000000000284,
          "durationTicks": 480,
          "midi": 61,
          "name": "C#4",
          "ticks": 80640,
          "time": 33.6,
          "velocity": 1
        },
        {
          "duration": 0.19999999999999574,
          "durationTicks": 480,
          "midi": 53,
          "name": "F3",
          "ticks": 81120,
          "time": 33.800000000000004,
          "velocity": 1
        },
        {
          "duration": 0.20000000000000284,
          "durationTicks": 480,
          "midi": 56,
          "name": "G#3",
          "ticks": 81600,
          "time": 34,
          "velocity": 1
        },
        {
          "duration": 0.19999999999999574,
          "durationTicks": 480,
          "midi": 61,
          "name": "C#4",
          "ticks": 82080,
          "time": 34.2,
          "velocity": 1
        },
        {
          "duration": 0.4000000000000057,
          "durationTicks": 960,
          "midi": 56,
          "name": "G#3",
          "ticks": 82560,
          "time": 34.4,
          "velocity": 1
        },
        {
          "duration": 0.20000000000000284,
          "durationTicks": 480,
          "midi": 58,
          "name": "A#3",
          "ticks": 84000,
          "time": 35,
          "velocity": 1
        },
        {
          "duration": 0.19999999999999574,
          "durationTicks": 480,
          "midi": 56,
          "name": "G#3",
          "ticks": 84480,
          "time": 35.2,
          "velocity": 1
        },
        {
          "duration": 0.20000000000000284,
          "durationTicks": 480,
          "midi": 60,
          "name": "C4",
          "ticks": 84960,
          "time": 35.4,
          "velocity": 1
        },
        {
          "duration": 0.20000000000000284,
          "durationTicks": 480,
          "midi": 63,
          "name": "D#4",
          "ticks": 85440,
          "time": 35.6,
          "velocity": 1
        },
        {
          "duration": 0.19999999999999574,
          "durationTicks": 480,
          "midi": 68,
          "name": "G#4",
          "ticks": 85920,
          "time": 35.800000000000004,
          "velocity": 1
        },
        {
          "duration": 0.19999999999999574,
          "durationTicks": 480,
          "midi": 56,
          "name": "G#3",
          "ticks": 86880,
          "time": 36.2,
          "velocity": 1
        },
        {
          "duration": 0.20000000000000284,
          "durationTicks": 480,
          "midi": 60,
          "name": "C4",
          "ticks": 87360,
          "time": 36.4,
          "velocity": 1
        },
        {
          "duration": 0.20000000000000284,
          "durationTicks": 480,
          "midi": 65,
          "name": "F4",
          "ticks": 87840,
          "time": 36.6,
          "velocity": 1
        },
        {
          "duration": 0.20000000000000284,
          "durationTicks": 480,
          "midi": 61,
          "name": "C#4",
          "ticks": 88800,
          "time": 37,
          "velocity": 1
        },
        {
          "duration": 0.19999999999999574,
          "durationTicks": 480,
          "midi": 65,
          "name": "F4",
          "ticks": 89280,
          "time": 37.2,
          "velocity": 1
        },
        {
          "duration": 0.20000000000000284,
          "durationTicks": 480,
          "midi": 70,
          "name": "A#4",
          "ticks": 89760,
          "time": 37.4,
          "velocity": 1
        },
        {
          "duration": 0.19999999999999574,
          "durationTicks": 480,
          "midi": 58,
          "name": "A#3",
          "ticks": 90720,
          "time": 37.800000000000004,
          "velocity": 1
        },
        {
          "duration": 0.20000000000000284,
          "durationTicks": 480,
          "midi": 58,
          "name": "A#3",
          "ticks": 91680,
          "time": 38.2,
          "velocity": 1
        },
        {
          "duration": 0.10000000000000142,
          "durationTicks": 240,
          "midi": 58,
          "name": "A#3",
          "ticks": 92640,
          "time": 38.6,
          "velocity": 0.7401574803149606
        },
        {
          "duration": 0.10000000000000142,
          "durationTicks": 240,
          "midi": 60,
          "name": "C4",
          "ticks": 92880,
          "time": 38.7,
          "velocity": 0.7401574803149606
        },
        {
          "duration": 0.09999999999999432,
          "durationTicks": 240,
          "midi": 58,
          "name": "A#3",
          "ticks": 93360,
          "time": 38.900000000000006,
          "velocity": 0.5039370078740157
        },
        {
          "duration": 0.10000000000000142,
          "durationTicks": 240,
          "midi": 60,
          "name": "C4",
          "ticks": 93600,
          "time": 39,
          "velocity": 0.5039370078740157
        },
        {
          "duration": 0.10000000000000142,
          "durationTicks": 240,
          "midi": 58,
          "name": "A#3",
          "ticks": 94080,
          "time": 39.2,
          "velocity": 0.25196850393700787
        },
        {
          "duration": 0.10000000000000142,
          "durationTicks": 240,
          "midi": 60,
          "name": "C4",
          "ticks": 94320,
          "time": 39.300000000000004,
          "velocity": 0.25196850393700787
        },
        {
          "duration": 1.6000000000000014,
          "durationTicks": 3840,
          "midi": 65,
          "name": "F4",
          "ticks": 107520,
          "time": 44.800000000000004,
          "velocity": 1
        },
        {
          "duration": 0.7999999999999972,
          "durationTicks": 1920,
          "midi": 60,
          "name": "C4",
          "ticks": 111360,
          "time": 46.400000000000006,
          "velocity": 1
        },
        {
          "duration": 0.10000000000000142,
          "durationTicks": 240,
          "midi": 65,
          "name": "F4",
          "ticks": 113280,
          "time": 47.2,
          "velocity": 1
        },
        {
          "duration": 0.10000000000000142,
          "durationTicks": 240,
          "midi": 64,
          "name": "E4",
          "ticks": 113520,
          "time": 47.300000000000004,
          "velocity": 1
        },
        {
          "duration": 0.09999999999999432,
          "durationTicks": 240,
          "midi": 65,
          "name": "F4",
          "ticks": 113760,
          "time": 47.400000000000006,
          "velocity": 1
        },
        {
          "duration": 0.10000000000000142,
          "durationTicks": 240,
          "midi": 72,
          "name": "C5",
          "ticks": 114000,
          "time": 47.5,
          "velocity": 1
        },
        {
          "duration": 0.10000000000000142,
          "durationTicks": 240,
          "midi": 56,
          "name": "G#3",
          "ticks": 114240,
          "time": 47.6,
          "velocity": 1
        },
        {
          "duration": 0.10000000000000142,
          "durationTicks": 240,
          "midi": 60,
          "name": "C4",
          "ticks": 114480,
          "time": 47.7,
          "velocity": 1
        },
        {
          "duration": 0.10000000000000142,
          "durationTicks": 240,
          "midi": 63,
          "name": "D#4",
          "ticks": 114720,
          "time": 47.800000000000004,
          "velocity": 1
        },
        {
          "duration": 0.09999999999999432,
          "durationTicks": 240,
          "midi": 65,
          "name": "F4",
          "ticks": 114960,
          "time": 47.900000000000006,
          "velocity": 1
        },
        {
          "duration": 0.20000000000000284,
          "durationTicks": 480,
          "midi": 61,
          "name": "C#4",
          "ticks": 115680,
          "time": 48.2,
          "velocity": 1
        },
        {
          "duration": 0.19999999999999574,
          "durationTicks": 480,
          "midi": 65,
          "name": "F4",
          "ticks": 116160,
          "time": 48.400000000000006,
          "velocity": 1
        },
        {
          "duration": 0.20000000000000284,
          "durationTicks": 480,
          "midi": 70,
          "name": "A#4",
          "ticks": 116640,
          "time": 48.6,
          "velocity": 1
        },
        {
          "duration": 0.19999999999999574,
          "durationTicks": 480,
          "midi": 68,
          "name": "G#4",
          "ticks": 117120,
          "time": 48.800000000000004,
          "velocity": 1
        },
        {
          "duration": 0.20000000000000284,
          "durationTicks": 480,
          "midi": 61,
          "name": "C#4",
          "ticks": 117600,
          "time": 49,
          "velocity": 1
        },
        {
          "duration": 0.20000000000000284,
          "durationTicks": 480,
          "midi": 65,
          "name": "F4",
          "ticks": 118080,
          "time": 49.2,
          "velocity": 1
        },
        {
          "duration": 0.19999999999999574,
          "durationTicks": 480,
          "midi": 68,
          "name": "G#4",
          "ticks": 118560,
          "time": 49.400000000000006,
          "velocity": 1
        },
        {
          "duration": 0.20000000000000284,
          "durationTicks": 480,
          "midi": 67,
          "name": "G4",
          "ticks": 119040,
          "time": 49.6,
          "velocity": 1
        },
        {
          "duration": 0.19999999999999574,
          "durationTicks": 480,
          "midi": 58,
          "name": "A#3",
          "ticks": 119520,
          "time": 49.800000000000004,
          "velocity": 1
        },
        {
          "duration": 0.20000000000000284,
          "durationTicks": 480,
          "midi": 63,
          "name": "D#4",
          "ticks": 120000,
          "time": 50,
          "velocity": 1
        },
        {
          "duration": 0.20000000000000284,
          "durationTicks": 480,
          "midi": 67,
          "name": "G4",
          "ticks": 120480,
          "time": 50.2,
          "velocity": 1
        },
        {
          "duration": 0.19999999999999574,
          "durationTicks": 480,
          "midi": 63,
          "name": "D#4",
          "ticks": 120960,
          "time": 50.400000000000006,
          "velocity": 1
        },
        {
          "duration": 0.20000000000000284,
          "durationTicks": 480,
          "midi": 51,
          "name": "D#3",
          "ticks": 121440,
          "time": 50.6,
          "velocity": 1
        },
        {
          "duration": 0.19999999999999574,
          "durationTicks": 480,
          "midi": 58,
          "name": "A#3",
          "ticks": 121920,
          "time": 50.800000000000004,
          "velocity": 1
        },
        {
          "duration": 0.20000000000000284,
          "durationTicks": 480,
          "midi": 63,
          "name": "D#4",
          "ticks": 122400,
          "time": 51,
          "velocity": 1
        },
        {
          "duration": 0.10000000000000142,
          "durationTicks": 240,
          "midi": 65,
          "name": "F4",
          "ticks": 122880,
          "time": 51.2,
          "velocity": 1
        },
        {
          "duration": 0.10000000000000142,
          "durationTicks": 240,
          "midi": 53,
          "name": "F3",
          "ticks": 123120,
          "time": 51.300000000000004,
          "velocity": 1
        },
        {
          "duration": 0.09999999999999432,
          "durationTicks": 240,
          "midi": 56,
          "name": "G#3",
          "ticks": 123360,
          "time": 51.400000000000006,
          "velocity": 1
        },
        {
          "duration": 0.10000000000000142,
          "durationTicks": 240,
          "midi": 60,
          "name": "C4",
          "ticks": 123600,
          "time": 51.5,
          "velocity": 1
        },
        {
          "duration": 0.10000000000000142,
          "durationTicks": 240,
          "midi": 67,
          "name": "G4",
          "ticks": 123840,
          "time": 51.6,
          "velocity": 1
        },
        {
          "duration": 0.10000000000000142,
          "durationTicks": 240,
          "midi": 56,
          "name": "G#3",
          "ticks": 124080,
          "time": 51.7,
          "velocity": 1
        },
        {
          "duration": 0.10000000000000142,
          "durationTicks": 240,
          "midi": 60,
          "name": "C4",
          "ticks": 124320,
          "time": 51.800000000000004,
          "velocity": 1
        },
        {
          "duration": 0.09999999999999432,
          "durationTicks": 240,
          "midi": 67,
          "name": "G4",
          "ticks": 124560,
          "time": 51.900000000000006,
          "velocity": 1
        },
        {
          "duration": 0.10000000000000142,
          "durationTicks": 240,
          "midi": 68,
          "name": "G#4",
          "ticks": 124800,
          "time": 52,
          "velocity": 1
        },
        {
          "duration": 0.10000000000000142,
          "durationTicks": 240,
          "midi": 60,
          "name": "C4",
          "ticks": 125040,
          "time": 52.1,
          "velocity": 1
        },
        {
          "duration": 0.10000000000000142,
          "durationTicks": 240,
          "midi": 65,
          "name": "F4",
          "ticks": 125280,
          "time": 52.2,
          "velocity": 1
        },
        {
          "duration": 0.10000000000000142,
          "durationTicks": 240,
          "midi": 68,
          "name": "G#4",
          "ticks": 125520,
          "time": 52.300000000000004,
          "velocity": 1
        },
        {
          "duration": 0.09999999999999432,
          "durationTicks": 240,
          "midi": 72,
          "name": "C5",
          "ticks": 125760,
          "time": 52.400000000000006,
          "velocity": 1
        },
        {
          "duration": 0.20000000000000284,
          "durationTicks": 480,
          "midi": 60,
          "name": "C4",
          "ticks": 126240,
          "time": 52.6,
          "velocity": 1
        },
        {
          "duration": 0.20000000000000284,
          "durationTicks": 480,
          "midi": 65,
          "name": "F4",
          "ticks": 127200,
          "time": 53,
          "velocity": 1
        },
        {
          "duration": 0.20000000000000284,
          "durationTicks": 480,
          "midi": 68,
          "name": "G#4",
          "ticks": 127680,
          "time": 53.2,
          "velocity": 1
        },
        {
          "duration": 0.19999999999999574,
          "durationTicks": 480,
          "midi": 73,
          "name": "C#5",
          "ticks": 128160,
          "time": 53.400000000000006,
          "velocity": 1
        },
        {
          "duration": 0.10000000000000142,
          "durationTicks": 240,
          "midi": 60,
          "name": "C4",
          "ticks": 128880,
          "time": 53.7,
          "velocity": 1
        },
        {
          "duration": 0.10000000000000142,
          "durationTicks": 240,
          "midi": 67,
          "name": "G4",
          "ticks": 129120,
          "time": 53.800000000000004,
          "velocity": 1
        },
        {
          "duration": 0.09999999999999432,
          "durationTicks": 240,
          "midi": 72,
          "name": "C5",
          "ticks": 129360,
          "time": 53.900000000000006,
          "velocity": 1
        },
        {
          "duration": 0.10000000000000142,
          "durationTicks": 240,
          "midi": 56,
          "name": "G#3",
          "ticks": 129840,
          "time": 54.1,
          "velocity": 1
        },
        {
          "duration": 0.10000000000000142,
          "durationTicks": 240,
          "midi": 60,
          "name": "C4",
          "ticks": 130080,
          "time": 54.2,
          "velocity": 1
        },
        {
          "duration": 0.10000000000000142,
          "durationTicks": 240,
          "midi": 65,
          "name": "F4",
          "ticks": 130320,
          "time": 54.300000000000004,
          "velocity": 1
        },
        {
          "duration": 0.09999999999999432,
          "durationTicks": 240,
          "midi": 70,
          "name": "A#4",
          "ticks": 130560,
          "time": 54.400000000000006,
          "velocity": 1
        },
        {
          "duration": 0.20000000000000284,
          "durationTicks": 480,
          "midi": 58,
          "name": "A#3",
          "ticks": 131040,
          "time": 54.6,
          "velocity": 1
        },
        {
          "duration": 0.19999999999999574,
          "durationTicks": 480,
          "midi": 63,
          "name": "D#4",
          "ticks": 131520,
          "time": 54.800000000000004,
          "velocity": 1
        },
        {
          "duration": 0.20000000000000284,
          "durationTicks": 480,
          "midi": 70,
          "name": "A#4",
          "ticks": 132000,
          "time": 55,
          "velocity": 1
        },
        {
          "duration": 0.19999999999999574,
          "durationTicks": 480,
          "midi": 63,
          "name": "D#4",
          "ticks": 132960,
          "time": 55.400000000000006,
          "velocity": 1
        },
        {
          "duration": 0.20000000000000284,
          "durationTicks": 480,
          "midi": 70,
          "name": "A#4",
          "ticks": 133440,
          "time": 55.6,
          "velocity": 1
        },
        {
          "duration": 0.19999999999999574,
          "durationTicks": 480,
          "midi": 75,
          "name": "D#5",
          "ticks": 133920,
          "time": 55.800000000000004,
          "velocity": 1
        },
        {
          "duration": 0.20000000000000284,
          "durationTicks": 480,
          "midi": 60,
          "name": "C4",
          "ticks": 134880,
          "time": 56.2,
          "velocity": 1
        },
        {
          "duration": 0.19999999999999574,
          "durationTicks": 480,
          "midi": 65,
          "name": "F4",
          "ticks": 135360,
          "time": 56.400000000000006,
          "velocity": 1
        },
        {
          "duration": 0.20000000000000284,
          "durationTicks": 480,
          "midi": 72,
          "name": "C5",
          "ticks": 135840,
          "time": 56.6,
          "velocity": 1
        },
        {
          "duration": 0.20000000000000284,
          "durationTicks": 480,
          "midi": 60,
          "name": "C4",
          "ticks": 136800,
          "time": 57,
          "velocity": 1
        },
        {
          "duration": 0.19999999999999574,
          "durationTicks": 480,
          "midi": 60,
          "name": "C4",
          "ticks": 137760,
          "time": 57.400000000000006,
          "velocity": 1
        },
        {
          "duration": 0.19999999999999574,
          "durationTicks": 480,
          "midi": 55,
          "name": "G3",
          "ticks": 138720,
          "time": 57.800000000000004,
          "velocity": 1
        },
        {
          "duration": 0.20000000000000284,
          "durationTicks": 480,
          "midi": 63,
          "name": "D#4",
          "ticks": 139200,
          "time": 58,
          "velocity": 1
        },
        {
          "duration": 0.20000000000000284,
          "durationTicks": 480,
          "midi": 67,
          "name": "G4",
          "ticks": 139680,
          "time": 58.2,
          "velocity": 1
        },
        {
          "duration": 0.20000000000000284,
          "durationTicks": 480,
          "midi": 56,
          "name": "G#3",
          "ticks": 140640,
          "time": 58.6,
          "velocity": 1
        },
        {
          "duration": 0.19999999999999574,
          "durationTicks": 480,
          "midi": 63,
          "name": "D#4",
          "ticks": 141120,
          "time": 58.800000000000004,
          "velocity": 1
        },
        {
          "duration": 0.20000000000000284,
          "durationTicks": 480,
          "midi": 68,
          "name": "G#4",
          "ticks": 141600,
          "time": 59,
          "velocity": 1
        },
        {
          "duration": 0.7999999999999972,
          "durationTicks": 1920,
          "midi": 65,
          "name": "F4",
          "ticks": 153600,
          "time": 64,
          "velocity": 1
        },
        {
          "duration": 0.8000000000000114,
          "durationTicks": 1920,
          "midi": 68,
          "name": "G#4",
          "ticks": 155520,
          "time": 64.8,
          "velocity": 1
        },
        {
          "duration": 1.5999999999999943,
          "durationTicks": 3840,
          "midi": 60,
          "name": "C4",
          "ticks": 157440,
          "time": 65.60000000000001,
          "velocity": 1
        },
        {
          "duration": 1.5999999999999943,
          "durationTicks": 3840,
          "midi": 63,
          "name": "D#4",
          "ticks": 161280,
          "time": 67.2,
          "velocity": 1
        },
        {
          "duration": 0.20000000000000284,
          "durationTicks": 480,
          "midi": 60,
          "name": "C4",
          "ticks": 165120,
          "time": 68.8,
          "velocity": 1
        },
        {
          "duration": 0.20000000000000284,
          "durationTicks": 480,
          "midi": 58,
          "name": "A#3",
          "ticks": 165600,
          "time": 69,
          "velocity": 1
        },
        {
          "duration": 0.20000000000000284,
          "durationTicks": 480,
          "midi": 63,
          "name": "D#4",
          "ticks": 166080,
          "time": 69.2,
          "velocity": 1
        },
        {
          "duration": 0.20000000000000284,
          "durationTicks": 480,
          "midi": 67,
          "name": "G4",
          "ticks": 166560,
          "time": 69.4,
          "velocity": 1
        },
        {
          "duration": 0.19999999999998863,
          "durationTicks": 480,
          "midi": 58,
          "name": "A#3",
          "ticks": 167040,
          "time": 69.60000000000001,
          "velocity": 1
        },
        {
          "duration": 0.20000000000000284,
          "durationTicks": 480,
          "midi": 51,
          "name": "D#3",
          "ticks": 167520,
          "time": 69.8,
          "velocity": 1
        },
        {
          "duration": 0.20000000000000284,
          "durationTicks": 480,
          "midi": 55,
          "name": "G3",
          "ticks": 168000,
          "time": 70,
          "velocity": 1
        },
        {
          "duration": 0.20000000000000284,
          "durationTicks": 480,
          "midi": 58,
          "name": "A#3",
          "ticks": 168480,
          "time": 70.2,
          "velocity": 1
        },
        {
          "duration": 0.19999999999998863,
          "durationTicks": 480,
          "midi": 56,
          "name": "G#3",
          "ticks": 169440,
          "time": 70.60000000000001,
          "velocity": 1
        },
        {
          "duration": 0.20000000000000284,
          "durationTicks": 480,
          "midi": 60,
          "name": "C4",
          "ticks": 169920,
          "time": 70.8,
          "velocity": 1
        },
        {
          "duration": 0.20000000000000284,
          "durationTicks": 480,
          "midi": 65,
          "name": "F4",
          "ticks": 170400,
          "time": 71,
          "velocity": 1
        },
        {
          "duration": 0.20000000000000284,
          "durationTicks": 480,
          "midi": 60,
          "name": "C4",
          "ticks": 170880,
          "time": 71.2,
          "velocity": 1
        },
        {
          "duration": 0.20000000000000284,
          "durationTicks": 480,
          "midi": 53,
          "name": "F3",
          "ticks": 171360,
          "time": 71.4,
          "velocity": 1
        },
        {
          "duration": 0.19999999999998863,
          "durationTicks": 480,
          "midi": 56,
          "name": "G#3",
          "ticks": 171840,
          "time": 71.60000000000001,
          "velocity": 1
        },
        {
          "duration": 0.20000000000000284,
          "durationTicks": 480,
          "midi": 60,
          "name": "C4",
          "ticks": 172320,
          "time": 71.8,
          "velocity": 1
        },
        {
          "duration": 0.20000000000000284,
          "durationTicks": 480,
          "midi": 61,
          "name": "C#4",
          "ticks": 172800,
          "time": 72,
          "velocity": 1
        },
        {
          "duration": 0.20000000000000284,
          "durationTicks": 480,
          "midi": 53,
          "name": "F3",
          "ticks": 173280,
          "time": 72.2,
          "velocity": 1
        },
        {
          "duration": 0.20000000000000284,
          "durationTicks": 480,
          "midi": 56,
          "name": "G#3",
          "ticks": 173760,
          "time": 72.4,
          "velocity": 1
        },
        {
          "duration": 0.19999999999998863,
          "durationTicks": 480,
          "midi": 61,
          "name": "C#4",
          "ticks": 174240,
          "time": 72.60000000000001,
          "velocity": 1
        },
        {
          "duration": 0.4000000000000057,
          "durationTicks": 960,
          "midi": 56,
          "name": "G#3",
          "ticks": 174720,
          "time": 72.8,
          "velocity": 1
        },
        {
          "duration": 0.20000000000000284,
          "durationTicks": 480,
          "midi": 58,
          "name": "A#3",
          "ticks": 176160,
          "time": 73.4,
          "velocity": 1
        },
        {
          "duration": 0.19999999999998863,
          "durationTicks": 480,
          "midi": 56,
          "name": "G#3",
          "ticks": 176640,
          "time": 73.60000000000001,
          "velocity": 1
        },
        {
          "duration": 0.20000000000000284,
          "durationTicks": 480,
          "midi": 60,
          "name": "C4",
          "ticks": 177120,
          "time": 73.8,
          "velocity": 1
        },
        {
          "duration": 0.20000000000000284,
          "durationTicks": 480,
          "midi": 63,
          "name": "D#4",
          "ticks": 177600,
          "time": 74,
          "velocity": 1
        },
        {
          "duration": 0.20000000000000284,
          "durationTicks": 480,
          "midi": 68,
          "name": "G#4",
          "ticks": 178080,
          "time": 74.2,
          "velocity": 1
        },
        {
          "duration": 0.19999999999998863,
          "durationTicks": 480,
          "midi": 56,
          "name": "G#3",
          "ticks": 179040,
          "time": 74.60000000000001,
          "velocity": 1
        },
        {
          "duration": 0.20000000000000284,
          "durationTicks": 480,
          "midi": 60,
          "name": "C4",
          "ticks": 179520,
          "time": 74.8,
          "velocity": 1
        },
        {
          "duration": 0.20000000000000284,
          "durationTicks": 480,
          "midi": 65,
          "name": "F4",
          "ticks": 180000,
          "time": 75,
          "velocity": 1
        },
        {
          "duration": 0.20000000000000284,
          "durationTicks": 480,
          "midi": 61,
          "name": "C#4",
          "ticks": 180960,
          "time": 75.4,
          "velocity": 1
        },
        {
          "duration": 0.19999999999998863,
          "durationTicks": 480,
          "midi": 65,
          "name": "F4",
          "ticks": 181440,
          "time": 75.60000000000001,
          "velocity": 1
        },
        {
          "duration": 0.20000000000000284,
          "durationTicks": 480,
          "midi": 70,
          "name": "A#4",
          "ticks": 181920,
          "time": 75.8,
          "velocity": 1
        },
        {
          "duration": 0.20000000000000284,
          "durationTicks": 480,
          "midi": 58,
          "name": "A#3",
          "ticks": 182880,
          "time": 76.2,
          "velocity": 1
        },
        {
          "duration": 0.20000000000000284,
          "durationTicks": 480,
          "midi": 58,
          "name": "A#3",
          "ticks": 183840,
          "time": 76.60000000000001,
          "velocity": 1
        },
        {
          "duration": 0.10000000000000853,
          "durationTicks": 240,
          "midi": 58,
          "name": "A#3",
          "ticks": 184800,
          "time": 77,
          "velocity": 0.7401574803149606
        },
        {
          "duration": 0.09999999999999432,
          "durationTicks": 240,
          "midi": 60,
          "name": "C4",
          "ticks": 185040,
          "time": 77.10000000000001,
          "velocity": 0.7401574803149606
        },
        {
          "duration": 0.09999999999999432,
          "durationTicks": 240,
          "midi": 58,
          "name": "A#3",
          "ticks": 185520,
          "time": 77.30000000000001,
          "velocity": 0.5039370078740157
        },
        {
          "duration": 0.09999999999999432,
          "durationTicks": 240,
          "midi": 60,
          "name": "C4",
          "ticks": 185760,
          "time": 77.4,
          "velocity": 0.5039370078740157
        },
        {
          "duration": 0.09999999999999432,
          "durationTicks": 240,
          "midi": 58,
          "name": "A#3",
          "ticks": 186240,
          "time": 77.60000000000001,
          "velocity": 0.25196850393700787
        },
        {
          "duration": 0.10000000000000853,
          "durationTicks": 240,
          "midi": 60,
          "name": "C4",
          "ticks": 186480,
          "time": 77.7,
          "velocity": 0.25196850393700787
        }
      ]
    },
    {
      "channel": 0,
      "controlChanges": {
        "7": [
          {
            "number": 7,
            "ticks": 0,
            "time": 0,
            "value": 0.4015748031496063
          }
        ],
        "10": [
          {
            "number": 10,
            "ticks": 0,
            "time": 0,
            "value": 1
          }
        ]
      },
      "pitchBends": [],
      "instrument": {
        "family": "piano",
        "number": 0,
        "name": "acoustic grand piano"
      },
      "name": "Email: three_headed_monkey7265389410@hotmail.com",
      "notes": [],
      "endOfTrackTicks": 199440
    },
    {
      "channel": 2,
      "controlChanges": {},
      "pitchBends": [],
      "instrument": {
        "family": "piano",
        "number": 3,
        "name": "honky-tonk piano"
      },
      "name": "",
      "notes": [
        {
          "duration": 0.1,
          "durationTicks": 240,
          "midi": 72,
          "name": "C5",
          "ticks": 0,
          "time": 0,
          "velocity": 1
        },
        {
          "duration": 0.1,
          "durationTicks": 240,
          "midi": 65,
          "name": "F4",
          "ticks": 0,
          "time": 0,
          "velocity": 1
        },
        {
          "duration": 0.1,
          "durationTicks": 240,
          "midi": 77,
          "name": "F5",
          "ticks": 0,
          "time": 0,
          "velocity": 1
        },
        {
          "duration": 0.10000000000000003,
          "durationTicks": 240,
          "midi": 65,
          "name": "F4",
          "ticks": 480,
          "time": 0.2,
          "velocity": 0.7401574803149606
        },
        {
          "duration": 0.10000000000000003,
          "durationTicks": 240,
          "midi": 72,
          "name": "C5",
          "ticks": 480,
          "time": 0.2,
          "velocity": 0.7401574803149606
        },
        {
          "duration": 0.10000000000000003,
          "durationTicks": 240,
          "midi": 77,
          "name": "F5",
          "ticks": 480,
          "time": 0.2,
          "velocity": 0.7401574803149606
        },
        {
          "duration": 0.09999999999999998,
          "durationTicks": 240,
          "midi": 72,
          "name": "C5",
          "ticks": 720,
          "time": 0.30000000000000004,
          "velocity": 1
        },
        {
          "duration": 0.09999999999999998,
          "durationTicks": 240,
          "midi": 65,
          "name": "F4",
          "ticks": 720,
          "time": 0.30000000000000004,
          "velocity": 1
        },
        {
          "duration": 0.09999999999999998,
          "durationTicks": 240,
          "midi": 77,
          "name": "F5",
          "ticks": 720,
          "time": 0.30000000000000004,
          "velocity": 1
        },
        {
          "duration": 0.10000000000000009,
          "durationTicks": 240,
          "midi": 65,
          "name": "F4",
          "ticks": 1200,
          "time": 0.5,
          "velocity": 0.7401574803149606
        },
        {
          "duration": 0.10000000000000009,
          "durationTicks": 240,
          "midi": 72,
          "name": "C5",
          "ticks": 1200,
          "time": 0.5,
          "velocity": 0.7401574803149606
        },
        {
          "duration": 0.10000000000000009,
          "durationTicks": 240,
          "midi": 77,
          "name": "F5",
          "ticks": 1200,
          "time": 0.5,
          "velocity": 0.7401574803149606
        },
        {
          "duration": 0.09999999999999998,
          "durationTicks": 240,
          "midi": 72,
          "name": "C5",
          "ticks": 1440,
          "time": 0.6000000000000001,
          "velocity": 1
        },
        {
          "duration": 0.09999999999999998,
          "durationTicks": 240,
          "midi": 65,
          "name": "F4",
          "ticks": 1440,
          "time": 0.6000000000000001,
          "velocity": 1
        },
        {
          "duration": 0.09999999999999998,
          "durationTicks": 240,
          "midi": 77,
          "name": "F5",
          "ticks": 1440,
          "time": 0.6000000000000001,
          "velocity": 1
        },
        {
          "duration": 0.09999999999999998,
          "durationTicks": 240,
          "midi": 65,
          "name": "F4",
          "ticks": 1920,
          "time": 0.8,
          "velocity": 0.7401574803149606
        },
        {
          "duration": 0.09999999999999998,
          "durationTicks": 240,
          "midi": 72,
          "name": "C5",
          "ticks": 1920,
          "time": 0.8,
          "velocity": 0.7401574803149606
        },
        {
          "duration": 0.09999999999999998,
          "durationTicks": 240,
          "midi": 77,
          "name": "F5",
          "ticks": 1920,
          "time": 0.8,
          "velocity": 0.7401574803149606
        },
        {
          "duration": 0.09999999999999998,
          "durationTicks": 240,
          "midi": 72,
          "name": "C5",
          "ticks": 2160,
          "time": 0.9,
          "velocity": 1
        },
        {
          "duration": 0.09999999999999998,
          "durationTicks": 240,
          "midi": 65,
          "name": "F4",
          "ticks": 2160,
          "time": 0.9,
          "velocity": 1
        },
        {
          "duration": 0.09999999999999998,
          "durationTicks": 240,
          "midi": 77,
          "name": "F5",
          "ticks": 2160,
          "time": 0.9,
          "velocity": 1
        },
        {
          "duration": 0.10000000000000009,
          "durationTicks": 240,
          "midi": 65,
          "name": "F4",
          "ticks": 2640,
          "time": 1.1,
          "velocity": 0.7401574803149606
        },
        {
          "duration": 0.10000000000000009,
          "durationTicks": 240,
          "midi": 72,
          "name": "C5",
          "ticks": 2640,
          "time": 1.1,
          "velocity": 0.7401574803149606
        },
        {
          "duration": 0.10000000000000009,
          "durationTicks": 240,
          "midi": 77,
          "name": "F5",
          "ticks": 2640,
          "time": 1.1,
          "velocity": 0.7401574803149606
        },
        {
          "duration": 0.09999999999999987,
          "durationTicks": 240,
          "midi": 72,
          "name": "C5",
          "ticks": 2880,
          "time": 1.2000000000000002,
          "velocity": 1
        },
        {
          "duration": 0.09999999999999987,
          "durationTicks": 240,
          "midi": 65,
          "name": "F4",
          "ticks": 2880,
          "time": 1.2000000000000002,
          "velocity": 1
        },
        {
          "duration": 0.09999999999999987,
          "durationTicks": 240,
          "midi": 77,
          "name": "F5",
          "ticks": 2880,
          "time": 1.2000000000000002,
          "velocity": 1
        },
        {
          "duration": 0.09999999999999987,
          "durationTicks": 240,
          "midi": 73,
          "name": "C#5",
          "ticks": 3360,
          "time": 1.4000000000000001,
          "velocity": 1
        },
        {
          "duration": 0.09999999999999987,
          "durationTicks": 240,
          "midi": 66,
          "name": "F#4",
          "ticks": 3360,
          "time": 1.4000000000000001,
          "velocity": 1
        },
        {
          "duration": 0.09999999999999987,
          "durationTicks": 240,
          "midi": 78,
          "name": "F#5",
          "ticks": 3360,
          "time": 1.4000000000000001,
          "velocity": 1
        },
        {
          "duration": 0.10000000000000009,
          "durationTicks": 240,
          "midi": 77,
          "name": "F5",
          "ticks": 3840,
          "time": 1.6,
          "velocity": 1
        },
        {
          "duration": 0.10000000000000009,
          "durationTicks": 240,
          "midi": 65,
          "name": "F4",
          "ticks": 3840,
          "time": 1.6,
          "velocity": 1
        },
        {
          "duration": 0.10000000000000009,
          "durationTicks": 240,
          "midi": 72,
          "name": "C5",
          "ticks": 3840,
          "time": 1.6,
          "velocity": 1
        },
        {
          "duration": 0.10000000000000009,
          "durationTicks": 240,
          "midi": 65,
          "name": "F4",
          "ticks": 4320,
          "time": 1.8,
          "velocity": 0.7401574803149606
        },
        {
          "duration": 0.10000000000000009,
          "durationTicks": 240,
          "midi": 72,
          "name": "C5",
          "ticks": 4320,
          "time": 1.8,
          "velocity": 0.7401574803149606
        },
        {
          "duration": 0.10000000000000009,
          "durationTicks": 240,
          "midi": 77,
          "name": "F5",
          "ticks": 4320,
          "time": 1.8,
          "velocity": 0.7401574803149606
        },
        {
          "duration": 0.09999999999999987,
          "durationTicks": 240,
          "midi": 77,
          "name": "F5",
          "ticks": 4560,
          "time": 1.9000000000000001,
          "velocity": 1
        },
        {
          "duration": 0.09999999999999987,
          "durationTicks": 240,
          "midi": 65,
          "name": "F4",
          "ticks": 4560,
          "time": 1.9000000000000001,
          "velocity": 1
        },
        {
          "duration": 0.09999999999999987,
          "durationTicks": 240,
          "midi": 72,
          "name": "C5",
          "ticks": 4560,
          "time": 1.9000000000000001,
          "velocity": 1
        },
        {
          "duration": 0.10000000000000009,
          "durationTicks": 240,
          "midi": 65,
          "name": "F4",
          "ticks": 5040,
          "time": 2.1,
          "velocity": 0.7401574803149606
        },
        {
          "duration": 0.10000000000000009,
          "durationTicks": 240,
          "midi": 72,
          "name": "C5",
          "ticks": 5040,
          "time": 2.1,
          "velocity": 0.7401574803149606
        },
        {
          "duration": 0.10000000000000009,
          "durationTicks": 240,
          "midi": 77,
          "name": "F5",
          "ticks": 5040,
          "time": 2.1,
          "velocity": 0.7401574803149606
        },
        {
          "duration": 0.10000000000000009,
          "durationTicks": 240,
          "midi": 77,
          "name": "F5",
          "ticks": 5280,
          "time": 2.2,
          "velocity": 1
        },
        {
          "duration": 0.10000000000000009,
          "durationTicks": 240,
          "midi": 65,
          "name": "F4",
          "ticks": 5280,
          "time": 2.2,
          "velocity": 1
        },
        {
          "duration": 0.10000000000000009,
          "durationTicks": 240,
          "midi": 72,
          "name": "C5",
          "ticks": 5280,
          "time": 2.2,
          "velocity": 1
        },
        {
          "duration": 0.09999999999999964,
          "durationTicks": 240,
          "midi": 65,
          "name": "F4",
          "ticks": 5760,
          "time": 2.4000000000000004,
          "velocity": 0.7401574803149606
        },
        {
          "duration": 0.09999999999999964,
          "durationTicks": 240,
          "midi": 72,
          "name": "C5",
          "ticks": 5760,
          "time": 2.4000000000000004,
          "velocity": 0.7401574803149606
        },
        {
          "duration": 0.09999999999999964,
          "durationTicks": 240,
          "midi": 77,
          "name": "F5",
          "ticks": 5760,
          "time": 2.4000000000000004,
          "velocity": 0.7401574803149606
        },
        {
          "duration": 0.10000000000000009,
          "durationTicks": 240,
          "midi": 77,
          "name": "F5",
          "ticks": 6000,
          "time": 2.5,
          "velocity": 1
        },
        {
          "duration": 0.10000000000000009,
          "durationTicks": 240,
          "midi": 65,
          "name": "F4",
          "ticks": 6000,
          "time": 2.5,
          "velocity": 1
        },
        {
          "duration": 0.10000000000000009,
          "durationTicks": 240,
          "midi": 72,
          "name": "C5",
          "ticks": 6000,
          "time": 2.5,
          "velocity": 1
        },
        {
          "duration": 0.10000000000000009,
          "durationTicks": 240,
          "midi": 65,
          "name": "F4",
          "ticks": 6480,
          "time": 2.7,
          "velocity": 0.7401574803149606
        },
        {
          "duration": 0.10000000000000009,
          "durationTicks": 240,
          "midi": 72,
          "name": "C5",
          "ticks": 6480,
          "time": 2.7,
          "velocity": 0.7401574803149606
        },
        {
          "duration": 0.10000000000000009,
          "durationTicks": 240,
          "midi": 77,
          "name": "F5",
          "ticks": 6480,
          "time": 2.7,
          "velocity": 0.7401574803149606
        },
        {
          "duration": 0.10000000000000009,
          "durationTicks": 240,
          "midi": 77,
          "name": "F5",
          "ticks": 6720,
          "time": 2.8000000000000003,
          "velocity": 1
        },
        {
          "duration": 0.10000000000000009,
          "durationTicks": 240,
          "midi": 65,
          "name": "F4",
          "ticks": 6720,
          "time": 2.8000000000000003,
          "velocity": 1
        },
        {
          "duration": 0.10000000000000009,
          "durationTicks": 240,
          "midi": 72,
          "name": "C5",
          "ticks": 6720,
          "time": 2.8000000000000003,
          "velocity": 1
        },
        {
          "duration": 0.10000000000000009,
          "durationTicks": 240,
          "midi": 75,
          "name": "D#5",
          "ticks": 7200,
          "time": 3,
          "velocity": 1
        },
        {
          "duration": 0.10000000000000009,
          "durationTicks": 240,
          "midi": 63,
          "name": "D#4",
          "ticks": 7200,
          "time": 3,
          "velocity": 1
        },
        {
          "duration": 0.10000000000000009,
          "durationTicks": 240,
          "midi": 70,
          "name": "A#4",
          "ticks": 7200,
          "time": 3,
          "velocity": 1
        },
        {
          "duration": 0.10000000000000009,
          "durationTicks": 240,
          "midi": 72,
          "name": "C5",
          "ticks": 7680,
          "time": 3.2,
          "velocity": 1
        },
        {
          "duration": 0.10000000000000009,
          "durationTicks": 240,
          "midi": 65,
          "name": "F4",
          "ticks": 7680,
          "time": 3.2,
          "velocity": 1
        },
        {
          "duration": 0.10000000000000009,
          "durationTicks": 240,
          "midi": 77,
          "name": "F5",
          "ticks": 7680,
          "time": 3.2,
          "velocity": 1
        },
        {
          "duration": 0.09999999999999964,
          "durationTicks": 240,
          "midi": 65,
          "name": "F4",
          "ticks": 8160,
          "time": 3.4000000000000004,
          "velocity": 0.7401574803149606
        },
        {
          "duration": 0.09999999999999964,
          "durationTicks": 240,
          "midi": 72,
          "name": "C5",
          "ticks": 8160,
          "time": 3.4000000000000004,
          "velocity": 0.7401574803149606
        },
        {
          "duration": 0.09999999999999964,
          "durationTicks": 240,
          "midi": 77,
          "name": "F5",
          "ticks": 8160,
          "time": 3.4000000000000004,
          "velocity": 0.7401574803149606
        },
        {
          "duration": 0.10000000000000009,
          "durationTicks": 240,
          "midi": 72,
          "name": "C5",
          "ticks": 8400,
          "time": 3.5,
          "velocity": 1
        },
        {
          "duration": 0.10000000000000009,
          "durationTicks": 240,
          "midi": 65,
          "name": "F4",
          "ticks": 8400,
          "time": 3.5,
          "velocity": 1
        },
        {
          "duration": 0.10000000000000009,
          "durationTicks": 240,
          "midi": 77,
          "name": "F5",
          "ticks": 8400,
          "time": 3.5,
          "velocity": 1
        },
        {
          "duration": 0.10000000000000009,
          "durationTicks": 240,
          "midi": 65,
          "name": "F4",
          "ticks": 8880,
          "time": 3.7,
          "velocity": 0.7401574803149606
        },
        {
          "duration": 0.10000000000000009,
          "durationTicks": 240,
          "midi": 72,
          "name": "C5",
          "ticks": 8880,
          "time": 3.7,
          "velocity": 0.7401574803149606
        },
        {
          "duration": 0.10000000000000009,
          "durationTicks": 240,
          "midi": 77,
          "name": "F5",
          "ticks": 8880,
          "time": 3.7,
          "velocity": 0.7401574803149606
        },
        {
          "duration": 0.10000000000000009,
          "durationTicks": 240,
          "midi": 72,
          "name": "C5",
          "ticks": 9120,
          "time": 3.8000000000000003,
          "velocity": 1
        },
        {
          "duration": 0.10000000000000009,
          "durationTicks": 240,
          "midi": 65,
          "name": "F4",
          "ticks": 9120,
          "time": 3.8000000000000003,
          "velocity": 1
        },
        {
          "duration": 0.10000000000000009,
          "durationTicks": 240,
          "midi": 77,
          "name": "F5",
          "ticks": 9120,
          "time": 3.8000000000000003,
          "velocity": 1
        },
        {
          "duration": 0.10000000000000053,
          "durationTicks": 240,
          "midi": 65,
          "name": "F4",
          "ticks": 9600,
          "time": 4,
          "velocity": 0.7401574803149606
        },
        {
          "duration": 0.10000000000000053,
          "durationTicks": 240,
          "midi": 72,
          "name": "C5",
          "ticks": 9600,
          "time": 4,
          "velocity": 0.7401574803149606
        },
        {
          "duration": 0.10000000000000053,
          "durationTicks": 240,
          "midi": 77,
          "name": "F5",
          "ticks": 9600,
          "time": 4,
          "velocity": 0.7401574803149606
        },
        {
          "duration": 0.09999999999999964,
          "durationTicks": 240,
          "midi": 72,
          "name": "C5",
          "ticks": 9840,
          "time": 4.1000000000000005,
          "velocity": 1
        },
        {
          "duration": 0.09999999999999964,
          "durationTicks": 240,
          "midi": 65,
          "name": "F4",
          "ticks": 9840,
          "time": 4.1000000000000005,
          "velocity": 1
        },
        {
          "duration": 0.09999999999999964,
          "durationTicks": 240,
          "midi": 77,
          "name": "F5",
          "ticks": 9840,
          "time": 4.1000000000000005,
          "velocity": 1
        },
        {
          "duration": 0.10000000000000053,
          "durationTicks": 240,
          "midi": 65,
          "name": "F4",
          "ticks": 10320,
          "time": 4.3,
          "velocity": 0.7401574803149606
        },
        {
          "duration": 0.10000000000000053,
          "durationTicks": 240,
          "midi": 72,
          "name": "C5",
          "ticks": 10320,
          "time": 4.3,
          "velocity": 0.7401574803149606
        },
        {
          "duration": 0.10000000000000053,
          "durationTicks": 240,
          "midi": 77,
          "name": "F5",
          "ticks": 10320,
          "time": 4.3,
          "velocity": 0.7401574803149606
        },
        {
          "duration": 0.09999999999999964,
          "durationTicks": 240,
          "midi": 72,
          "name": "C5",
          "ticks": 10560,
          "time": 4.4,
          "velocity": 1
        },
        {
          "duration": 0.09999999999999964,
          "durationTicks": 240,
          "midi": 65,
          "name": "F4",
          "ticks": 10560,
          "time": 4.4,
          "velocity": 1
        },
        {
          "duration": 0.09999999999999964,
          "durationTicks": 240,
          "midi": 77,
          "name": "F5",
          "ticks": 10560,
          "time": 4.4,
          "velocity": 1
        },
        {
          "duration": 0.09999999999999964,
          "durationTicks": 240,
          "midi": 73,
          "name": "C#5",
          "ticks": 11040,
          "time": 4.6000000000000005,
          "velocity": 1
        },
        {
          "duration": 0.09999999999999964,
          "durationTicks": 240,
          "midi": 66,
          "name": "F#4",
          "ticks": 11040,
          "time": 4.6000000000000005,
          "velocity": 1
        },
        {
          "duration": 0.09999999999999964,
          "durationTicks": 240,
          "midi": 78,
          "name": "F#5",
          "ticks": 11040,
          "time": 4.6000000000000005,
          "velocity": 1
        },
        {
          "duration": 0.09999999999999964,
          "durationTicks": 240,
          "midi": 77,
          "name": "F5",
          "ticks": 11520,
          "time": 4.800000000000001,
          "velocity": 1
        },
        {
          "duration": 0.09999999999999964,
          "durationTicks": 240,
          "midi": 65,
          "name": "F4",
          "ticks": 11520,
          "time": 4.800000000000001,
          "velocity": 1
        },
        {
          "duration": 0.09999999999999964,
          "durationTicks": 240,
          "midi": 72,
          "name": "C5",
          "ticks": 11520,
          "time": 4.800000000000001,
          "velocity": 1
        },
        {
          "duration": 0.10000000000000053,
          "durationTicks": 240,
          "midi": 65,
          "name": "F4",
          "ticks": 12000,
          "time": 5,
          "velocity": 0.7401574803149606
        },
        {
          "duration": 0.10000000000000053,
          "durationTicks": 240,
          "midi": 72,
          "name": "C5",
          "ticks": 12000,
          "time": 5,
          "velocity": 0.7401574803149606
        },
        {
          "duration": 0.10000000000000053,
          "durationTicks": 240,
          "midi": 77,
          "name": "F5",
          "ticks": 12000,
          "time": 5,
          "velocity": 0.7401574803149606
        },
        {
          "duration": 0.09999999999999964,
          "durationTicks": 240,
          "midi": 77,
          "name": "F5",
          "ticks": 12240,
          "time": 5.1000000000000005,
          "velocity": 1
        },
        {
          "duration": 0.09999999999999964,
          "durationTicks": 240,
          "midi": 65,
          "name": "F4",
          "ticks": 12240,
          "time": 5.1000000000000005,
          "velocity": 1
        },
        {
          "duration": 0.09999999999999964,
          "durationTicks": 240,
          "midi": 72,
          "name": "C5",
          "ticks": 12240,
          "time": 5.1000000000000005,
          "velocity": 1
        },
        {
          "duration": 0.09999999999999964,
          "durationTicks": 240,
          "midi": 65,
          "name": "F4",
          "ticks": 12720,
          "time": 5.300000000000001,
          "velocity": 0.7401574803149606
        },
        {
          "duration": 0.09999999999999964,
          "durationTicks": 240,
          "midi": 72,
          "name": "C5",
          "ticks": 12720,
          "time": 5.300000000000001,
          "velocity": 0.7401574803149606
        },
        {
          "duration": 0.09999999999999964,
          "durationTicks": 240,
          "midi": 77,
          "name": "F5",
          "ticks": 12720,
          "time": 5.300000000000001,
          "velocity": 0.7401574803149606
        },
        {
          "duration": 0.09999999999999964,
          "durationTicks": 240,
          "midi": 77,
          "name": "F5",
          "ticks": 12960,
          "time": 5.4,
          "velocity": 1
        },
        {
          "duration": 0.09999999999999964,
          "durationTicks": 240,
          "midi": 65,
          "name": "F4",
          "ticks": 12960,
          "time": 5.4,
          "velocity": 1
        },
        {
          "duration": 0.09999999999999964,
          "durationTicks": 240,
          "midi": 72,
          "name": "C5",
          "ticks": 12960,
          "time": 5.4,
          "velocity": 1
        },
        {
          "duration": 0.09999999999999964,
          "durationTicks": 240,
          "midi": 65,
          "name": "F4",
          "ticks": 13440,
          "time": 5.6000000000000005,
          "velocity": 0.7401574803149606
        },
        {
          "duration": 0.09999999999999964,
          "durationTicks": 240,
          "midi": 72,
          "name": "C5",
          "ticks": 13440,
          "time": 5.6000000000000005,
          "velocity": 0.7401574803149606
        },
        {
          "duration": 0.09999999999999964,
          "durationTicks": 240,
          "midi": 77,
          "name": "F5",
          "ticks": 13440,
          "time": 5.6000000000000005,
          "velocity": 0.7401574803149606
        },
        {
          "duration": 0.7999999999999998,
          "durationTicks": 1920,
          "midi": 67,
          "name": "G4",
          "ticks": 13440,
          "time": 5.6000000000000005,
          "velocity": 1
        },
        {
          "duration": 0.10000000000000053,
          "durationTicks": 240,
          "midi": 77,
          "name": "F5",
          "ticks": 13680,
          "time": 5.7,
          "velocity": 1
        },
        {
          "duration": 0.10000000000000053,
          "durationTicks": 240,
          "midi": 65,
          "name": "F4",
          "ticks": 13680,
          "time": 5.7,
          "velocity": 1
        },
        {
          "duration": 0.10000000000000053,
          "durationTicks": 240,
          "midi": 72,
          "name": "C5",
          "ticks": 13680,
          "time": 5.7,
          "velocity": 1
        },
        {
          "duration": 0.09999999999999964,
          "durationTicks": 240,
          "midi": 65,
          "name": "F4",
          "ticks": 14160,
          "time": 5.9,
          "velocity": 0.7401574803149606
        },
        {
          "duration": 0.09999999999999964,
          "durationTicks": 240,
          "midi": 72,
          "name": "C5",
          "ticks": 14160,
          "time": 5.9,
          "velocity": 0.7401574803149606
        },
        {
          "duration": 0.09999999999999964,
          "durationTicks": 240,
          "midi": 77,
          "name": "F5",
          "ticks": 14160,
          "time": 5.9,
          "velocity": 0.7401574803149606
        },
        {
          "duration": 0.10000000000000053,
          "durationTicks": 240,
          "midi": 77,
          "name": "F5",
          "ticks": 14400,
          "time": 6,
          "velocity": 1
        },
        {
          "duration": 0.10000000000000053,
          "durationTicks": 240,
          "midi": 65,
          "name": "F4",
          "ticks": 14400,
          "time": 6,
          "velocity": 1
        },
        {
          "duration": 0.10000000000000053,
          "durationTicks": 240,
          "midi": 72,
          "name": "C5",
          "ticks": 14400,
          "time": 6,
          "velocity": 1
        },
        {
          "duration": 0.10000000000000053,
          "durationTicks": 240,
          "midi": 75,
          "name": "D#5",
          "ticks": 14880,
          "time": 6.2,
          "velocity": 1
        },
        {
          "duration": 0.10000000000000053,
          "durationTicks": 240,
          "midi": 63,
          "name": "D#4",
          "ticks": 14880,
          "time": 6.2,
          "velocity": 1
        },
        {
          "duration": 0.10000000000000053,
          "durationTicks": 240,
          "midi": 70,
          "name": "A#4",
          "ticks": 14880,
          "time": 6.2,
          "velocity": 1
        },
        {
          "duration": 0.09999999999999964,
          "durationTicks": 240,
          "midi": 72,
          "name": "C5",
          "ticks": 15360,
          "time": 6.4,
          "velocity": 1
        },
        {
          "duration": 0.09999999999999964,
          "durationTicks": 240,
          "midi": 65,
          "name": "F4",
          "ticks": 15360,
          "time": 6.4,
          "velocity": 1
        },
        {
          "duration": 0.09999999999999964,
          "durationTicks": 240,
          "midi": 77,
          "name": "F5",
          "ticks": 15360,
          "time": 6.4,
          "velocity": 1
        },
        {
          "duration": 0.09999999999999964,
          "durationTicks": 240,
          "midi": 68,
          "name": "G#4",
          "ticks": 15360,
          "time": 6.4,
          "velocity": 1
        },
        {
          "duration": 0.09999999999999964,
          "durationTicks": 240,
          "midi": 65,
          "name": "F4",
          "ticks": 15840,
          "time": 6.6000000000000005,
          "velocity": 0.7401574803149606
        },
        {
          "duration": 0.09999999999999964,
          "durationTicks": 240,
          "midi": 72,
          "name": "C5",
          "ticks": 15840,
          "time": 6.6000000000000005,
          "velocity": 0.7401574803149606
        },
        {
          "duration": 0.09999999999999964,
          "durationTicks": 240,
          "midi": 77,
          "name": "F5",
          "ticks": 15840,
          "time": 6.6000000000000005,
          "velocity": 0.7401574803149606
        },
        {
          "duration": 0.10000000000000053,
          "durationTicks": 240,
          "midi": 72,
          "name": "C5",
          "ticks": 16080,
          "time": 6.7,
          "velocity": 1
        },
        {
          "duration": 0.10000000000000053,
          "durationTicks": 240,
          "midi": 65,
          "name": "F4",
          "ticks": 16080,
          "time": 6.7,
          "velocity": 1
        },
        {
          "duration": 0.10000000000000053,
          "durationTicks": 240,
          "midi": 77,
          "name": "F5",
          "ticks": 16080,
          "time": 6.7,
          "velocity": 1
        },
        {
          "duration": 0.10000000000000053,
          "durationTicks": 240,
          "midi": 67,
          "name": "G4",
          "ticks": 16080,
          "time": 6.7,
          "velocity": 1
        },
        {
          "duration": 0.09999999999999964,
          "durationTicks": 240,
          "midi": 65,
          "name": "F4",
          "ticks": 16560,
          "time": 6.9,
          "velocity": 0.7401574803149606
        },
        {
          "duration": 0.09999999999999964,
          "durationTicks": 240,
          "midi": 72,
          "name": "C5",
          "ticks": 16560,
          "time": 6.9,
          "velocity": 0.7401574803149606
        },
        {
          "duration": 0.09999999999999964,
          "durationTicks": 240,
          "midi": 77,
          "name": "F5",
          "ticks": 16560,
          "time": 6.9,
          "velocity": 0.7401574803149606
        },
        {
          "duration": 0.10000000000000053,
          "durationTicks": 240,
          "midi": 72,
          "name": "C5",
          "ticks": 16800,
          "time": 7,
          "velocity": 1
        },
        {
          "duration": 0.10000000000000053,
          "durationTicks": 240,
          "midi": 65,
          "name": "F4",
          "ticks": 16800,
          "time": 7,
          "velocity": 1
        },
        {
          "duration": 0.10000000000000053,
          "durationTicks": 240,
          "midi": 77,
          "name": "F5",
          "ticks": 16800,
          "time": 7,
          "velocity": 1
        },
        {
          "duration": 0.10000000000000053,
          "durationTicks": 240,
          "midi": 68,
          "name": "G#4",
          "ticks": 16800,
          "time": 7,
          "velocity": 1
        },
        {
          "duration": 0.10000000000000053,
          "durationTicks": 240,
          "midi": 65,
          "name": "F4",
          "ticks": 17280,
          "time": 7.2,
          "velocity": 0.7401574803149606
        },
        {
          "duration": 0.10000000000000053,
          "durationTicks": 240,
          "midi": 72,
          "name": "C5",
          "ticks": 17280,
          "time": 7.2,
          "velocity": 0.7401574803149606
        },
        {
          "duration": 0.10000000000000053,
          "durationTicks": 240,
          "midi": 77,
          "name": "F5",
          "ticks": 17280,
          "time": 7.2,
          "velocity": 0.7401574803149606
        },
        {
          "duration": 0.09999999999999964,
          "durationTicks": 240,
          "midi": 72,
          "name": "C5",
          "ticks": 17520,
          "time": 7.300000000000001,
          "velocity": 1
        },
        {
          "duration": 0.09999999999999964,
          "durationTicks": 240,
          "midi": 65,
          "name": "F4",
          "ticks": 17520,
          "time": 7.300000000000001,
          "velocity": 1
        },
        {
          "duration": 0.09999999999999964,
          "durationTicks": 240,
          "midi": 77,
          "name": "F5",
          "ticks": 17520,
          "time": 7.300000000000001,
          "velocity": 1
        },
        {
          "duration": 0.09999999999999964,
          "durationTicks": 240,
          "midi": 68,
          "name": "G#4",
          "ticks": 17520,
          "time": 7.300000000000001,
          "velocity": 1
        },
        {
          "duration": 0.10000000000000053,
          "durationTicks": 240,
          "midi": 65,
          "name": "F4",
          "ticks": 18000,
          "time": 7.5,
          "velocity": 0.7401574803149606
        },
        {
          "duration": 0.10000000000000053,
          "durationTicks": 240,
          "midi": 72,
          "name": "C5",
          "ticks": 18000,
          "time": 7.5,
          "velocity": 0.7401574803149606
        },
        {
          "duration": 0.10000000000000053,
          "durationTicks": 240,
          "midi": 77,
          "name": "F5",
          "ticks": 18000,
          "time": 7.5,
          "velocity": 0.7401574803149606
        },
        {
          "duration": 0.09999999999999964,
          "durationTicks": 240,
          "midi": 72,
          "name": "C5",
          "ticks": 18240,
          "time": 7.6000000000000005,
          "velocity": 1
        },
        {
          "duration": 0.09999999999999964,
          "durationTicks": 240,
          "midi": 65,
          "name": "F4",
          "ticks": 18240,
          "time": 7.6000000000000005,
          "velocity": 1
        },
        {
          "duration": 0.09999999999999964,
          "durationTicks": 240,
          "midi": 77,
          "name": "F5",
          "ticks": 18240,
          "time": 7.6000000000000005,
          "velocity": 1
        },
        {
          "duration": 0.09999999999999964,
          "durationTicks": 240,
          "midi": 68,
          "name": "G#4",
          "ticks": 18240,
          "time": 7.6000000000000005,
          "velocity": 1
        },
        {
          "duration": 0.09999999999999964,
          "durationTicks": 240,
          "midi": 73,
          "name": "C#5",
          "ticks": 18720,
          "time": 7.800000000000001,
          "velocity": 1
        },
        {
          "duration": 0.09999999999999964,
          "durationTicks": 240,
          "midi": 66,
          "name": "F#4",
          "ticks": 18720,
          "time": 7.800000000000001,
          "velocity": 1
        },
        {
          "duration": 0.09999999999999964,
          "durationTicks": 240,
          "midi": 78,
          "name": "F#5",
          "ticks": 18720,
          "time": 7.800000000000001,
          "velocity": 1
        },
        {
          "duration": 0.09999999999999964,
          "durationTicks": 240,
          "midi": 67,
          "name": "G4",
          "ticks": 18720,
          "time": 7.800000000000001,
          "velocity": 1
        },
        {
          "duration": 0.09999999999999964,
          "durationTicks": 240,
          "midi": 77,
          "name": "F5",
          "ticks": 19200,
          "time": 8,
          "velocity": 1
        },
        {
          "duration": 0.09999999999999964,
          "durationTicks": 240,
          "midi": 65,
          "name": "F4",
          "ticks": 19200,
          "time": 8,
          "velocity": 1
        },
        {
          "duration": 0.09999999999999964,
          "durationTicks": 240,
          "midi": 72,
          "name": "C5",
          "ticks": 19200,
          "time": 8,
          "velocity": 1
        },
        {
          "duration": 0.09999999999999964,
          "durationTicks": 240,
          "midi": 68,
          "name": "G#4",
          "ticks": 19200,
          "time": 8,
          "velocity": 1
        },
        {
          "duration": 0.09999999999999964,
          "durationTicks": 240,
          "midi": 65,
          "name": "F4",
          "ticks": 19680,
          "time": 8.200000000000001,
          "velocity": 0.7401574803149606
        },
        {
          "duration": 0.09999999999999964,
          "durationTicks": 240,
          "midi": 72,
          "name": "C5",
          "ticks": 19680,
          "time": 8.200000000000001,
          "velocity": 0.7401574803149606
        },
        {
          "duration": 0.09999999999999964,
          "durationTicks": 240,
          "midi": 77,
          "name": "F5",
          "ticks": 19680,
          "time": 8.200000000000001,
          "velocity": 0.7401574803149606
        },
        {
          "duration": 0.09999999999999964,
          "durationTicks": 240,
          "midi": 77,
          "name": "F5",
          "ticks": 19920,
          "time": 8.3,
          "velocity": 1
        },
        {
          "duration": 0.09999999999999964,
          "durationTicks": 240,
          "midi": 65,
          "name": "F4",
          "ticks": 19920,
          "time": 8.3,
          "velocity": 1
        },
        {
          "duration": 0.09999999999999964,
          "durationTicks": 240,
          "midi": 72,
          "name": "C5",
          "ticks": 19920,
          "time": 8.3,
          "velocity": 1
        },
        {
          "duration": 0.09999999999999964,
          "durationTicks": 240,
          "midi": 67,
          "name": "G4",
          "ticks": 19920,
          "time": 8.3,
          "velocity": 1
        },
        {
          "duration": 0.09999999999999964,
          "durationTicks": 240,
          "midi": 65,
          "name": "F4",
          "ticks": 20400,
          "time": 8.5,
          "velocity": 0.7401574803149606
        },
        {
          "duration": 0.09999999999999964,
          "durationTicks": 240,
          "midi": 72,
          "name": "C5",
          "ticks": 20400,
          "time": 8.5,
          "velocity": 0.7401574803149606
        },
        {
          "duration": 0.09999999999999964,
          "durationTicks": 240,
          "midi": 77,
          "name": "F5",
          "ticks": 20400,
          "time": 8.5,
          "velocity": 0.7401574803149606
        },
        {
          "duration": 0.10000000000000142,
          "durationTicks": 240,
          "midi": 77,
          "name": "F5",
          "ticks": 20640,
          "time": 8.6,
          "velocity": 1
        },
        {
          "duration": 0.10000000000000142,
          "durationTicks": 240,
          "midi": 65,
          "name": "F4",
          "ticks": 20640,
          "time": 8.6,
          "velocity": 1
        },
        {
          "duration": 0.10000000000000142,
          "durationTicks": 240,
          "midi": 72,
          "name": "C5",
          "ticks": 20640,
          "time": 8.6,
          "velocity": 1
        },
        {
          "duration": 0.10000000000000142,
          "durationTicks": 240,
          "midi": 68,
          "name": "G#4",
          "ticks": 20640,
          "time": 8.6,
          "velocity": 1
        },
        {
          "duration": 0.09999999999999964,
          "durationTicks": 240,
          "midi": 65,
          "name": "F4",
          "ticks": 21120,
          "time": 8.8,
          "velocity": 0.7401574803149606
        },
        {
          "duration": 0.09999999999999964,
          "durationTicks": 240,
          "midi": 72,
          "name": "C5",
          "ticks": 21120,
          "time": 8.8,
          "velocity": 0.7401574803149606
        },
        {
          "duration": 0.09999999999999964,
          "durationTicks": 240,
          "midi": 77,
          "name": "F5",
          "ticks": 21120,
          "time": 8.8,
          "velocity": 0.7401574803149606
        },
        {
          "duration": 0.09999999999999964,
          "durationTicks": 240,
          "midi": 77,
          "name": "F5",
          "ticks": 21360,
          "time": 8.9,
          "velocity": 1
        },
        {
          "duration": 0.09999999999999964,
          "durationTicks": 240,
          "midi": 65,
          "name": "F4",
          "ticks": 21360,
          "time": 8.9,
          "velocity": 1
        },
        {
          "duration": 0.09999999999999964,
          "durationTicks": 240,
          "midi": 72,
          "name": "C5",
          "ticks": 21360,
          "time": 8.9,
          "velocity": 1
        },
        {
          "duration": 0.09999999999999964,
          "durationTicks": 240,
          "midi": 68,
          "name": "G#4",
          "ticks": 21360,
          "time": 8.9,
          "velocity": 1
        },
        {
          "duration": 0.10000000000000142,
          "durationTicks": 240,
          "midi": 65,
          "name": "F4",
          "ticks": 21840,
          "time": 9.1,
          "velocity": 0.7401574803149606
        },
        {
          "duration": 0.10000000000000142,
          "durationTicks": 240,
          "midi": 72,
          "name": "C5",
          "ticks": 21840,
          "time": 9.1,
          "velocity": 0.7401574803149606
        },
        {
          "duration": 0.10000000000000142,
          "durationTicks": 240,
          "midi": 77,
          "name": "F5",
          "ticks": 21840,
          "time": 9.1,
          "velocity": 0.7401574803149606
        },
        {
          "duration": 0.09999999999999964,
          "durationTicks": 240,
          "midi": 77,
          "name": "F5",
          "ticks": 22080,
          "time": 9.200000000000001,
          "velocity": 1
        },
        {
          "duration": 0.09999999999999964,
          "durationTicks": 240,
          "midi": 65,
          "name": "F4",
          "ticks": 22080,
          "time": 9.200000000000001,
          "velocity": 1
        },
        {
          "duration": 0.09999999999999964,
          "durationTicks": 240,
          "midi": 72,
          "name": "C5",
          "ticks": 22080,
          "time": 9.200000000000001,
          "velocity": 1
        },
        {
          "duration": 0.09999999999999964,
          "durationTicks": 240,
          "midi": 68,
          "name": "G#4",
          "ticks": 22080,
          "time": 9.200000000000001,
          "velocity": 1
        },
        {
          "duration": 0.09999999999999964,
          "durationTicks": 240,
          "midi": 75,
          "name": "D#5",
          "ticks": 22560,
          "time": 9.4,
          "velocity": 1
        },
        {
          "duration": 0.09999999999999964,
          "durationTicks": 240,
          "midi": 63,
          "name": "D#4",
          "ticks": 22560,
          "time": 9.4,
          "velocity": 1
        },
        {
          "duration": 0.09999999999999964,
          "durationTicks": 240,
          "midi": 70,
          "name": "A#4",
          "ticks": 22560,
          "time": 9.4,
          "velocity": 1
        },
        {
          "duration": 0.09999999999999964,
          "durationTicks": 240,
          "midi": 67,
          "name": "G4",
          "ticks": 22560,
          "time": 9.4,
          "velocity": 1
        },
        {
          "duration": 0.09999999999999964,
          "durationTicks": 240,
          "midi": 72,
          "name": "C5",
          "ticks": 23040,
          "time": 9.600000000000001,
          "velocity": 1
        },
        {
          "duration": 0.09999999999999964,
          "durationTicks": 240,
          "midi": 65,
          "name": "F4",
          "ticks": 23040,
          "time": 9.600000000000001,
          "velocity": 1
        },
        {
          "duration": 0.09999999999999964,
          "durationTicks": 240,
          "midi": 77,
          "name": "F5",
          "ticks": 23040,
          "time": 9.600000000000001,
          "velocity": 1
        },
        {
          "duration": 0.09999999999999964,
          "durationTicks": 240,
          "midi": 68,
          "name": "G#4",
          "ticks": 23040,
          "time": 9.600000000000001,
          "velocity": 1
        },
        {
          "duration": 0.09999999999999964,
          "durationTicks": 240,
          "midi": 65,
          "name": "F4",
          "ticks": 23520,
          "time": 9.8,
          "velocity": 0.7401574803149606
        },
        {
          "duration": 0.09999999999999964,
          "durationTicks": 240,
          "midi": 72,
          "name": "C5",
          "ticks": 23520,
          "time": 9.8,
          "velocity": 0.7401574803149606
        },
        {
          "duration": 0.09999999999999964,
          "durationTicks": 240,
          "midi": 77,
          "name": "F5",
          "ticks": 23520,
          "time": 9.8,
          "velocity": 0.7401574803149606
        },
        {
          "duration": 0.09999999999999964,
          "durationTicks": 240,
          "midi": 72,
          "name": "C5",
          "ticks": 23760,
          "time": 9.9,
          "velocity": 1
        },
        {
          "duration": 0.09999999999999964,
          "durationTicks": 240,
          "midi": 65,
          "name": "F4",
          "ticks": 23760,
          "time": 9.9,
          "velocity": 1
        },
        {
          "duration": 0.09999999999999964,
          "durationTicks": 240,
          "midi": 77,
          "name": "F5",
          "ticks": 23760,
          "time": 9.9,
          "velocity": 1
        },
        {
          "duration": 0.09999999999999964,
          "durationTicks": 240,
          "midi": 67,
          "name": "G4",
          "ticks": 23760,
          "time": 9.9,
          "velocity": 1
        },
        {
          "duration": 0.09999999999999964,
          "durationTicks": 240,
          "midi": 65,
          "name": "F4",
          "ticks": 24240,
          "time": 10.100000000000001,
          "velocity": 0.7401574803149606
        },
        {
          "duration": 0.09999999999999964,
          "durationTicks": 240,
          "midi": 72,
          "name": "C5",
          "ticks": 24240,
          "time": 10.100000000000001,
          "velocity": 0.7401574803149606
        },
        {
          "duration": 0.09999999999999964,
          "durationTicks": 240,
          "midi": 77,
          "name": "F5",
          "ticks": 24240,
          "time": 10.100000000000001,
          "velocity": 0.7401574803149606
        },
        {
          "duration": 0.09999999999999964,
          "durationTicks": 240,
          "midi": 72,
          "name": "C5",
          "ticks": 24480,
          "time": 10.200000000000001,
          "velocity": 1
        },
        {
          "duration": 0.09999999999999964,
          "durationTicks": 240,
          "midi": 65,
          "name": "F4",
          "ticks": 24480,
          "time": 10.200000000000001,
          "velocity": 1
        },
        {
          "duration": 0.09999999999999964,
          "durationTicks": 240,
          "midi": 77,
          "name": "F5",
          "ticks": 24480,
          "time": 10.200000000000001,
          "velocity": 1
        },
        {
          "duration": 0.09999999999999964,
          "durationTicks": 240,
          "midi": 68,
          "name": "G#4",
          "ticks": 24480,
          "time": 10.200000000000001,
          "velocity": 1
        },
        {
          "duration": 0.09999999999999964,
          "durationTicks": 240,
          "midi": 65,
          "name": "F4",
          "ticks": 24960,
          "time": 10.4,
          "velocity": 0.7401574803149606
        },
        {
          "duration": 0.09999999999999964,
          "durationTicks": 240,
          "midi": 72,
          "name": "C5",
          "ticks": 24960,
          "time": 10.4,
          "velocity": 0.7401574803149606
        },
        {
          "duration": 0.09999999999999964,
          "durationTicks": 240,
          "midi": 77,
          "name": "F5",
          "ticks": 24960,
          "time": 10.4,
          "velocity": 0.7401574803149606
        },
        {
          "duration": 0.10000000000000142,
          "durationTicks": 240,
          "midi": 72,
          "name": "C5",
          "ticks": 25200,
          "time": 10.5,
          "velocity": 1
        },
        {
          "duration": 0.10000000000000142,
          "durationTicks": 240,
          "midi": 65,
          "name": "F4",
          "ticks": 25200,
          "time": 10.5,
          "velocity": 1
        },
        {
          "duration": 0.10000000000000142,
          "durationTicks": 240,
          "midi": 77,
          "name": "F5",
          "ticks": 25200,
          "time": 10.5,
          "velocity": 1
        },
        {
          "duration": 0.10000000000000142,
          "durationTicks": 240,
          "midi": 68,
          "name": "G#4",
          "ticks": 25200,
          "time": 10.5,
          "velocity": 1
        },
        {
          "duration": 0.09999999999999964,
          "durationTicks": 240,
          "midi": 65,
          "name": "F4",
          "ticks": 25680,
          "time": 10.700000000000001,
          "velocity": 0.7401574803149606
        },
        {
          "duration": 0.09999999999999964,
          "durationTicks": 240,
          "midi": 72,
          "name": "C5",
          "ticks": 25680,
          "time": 10.700000000000001,
          "velocity": 0.7401574803149606
        },
        {
          "duration": 0.09999999999999964,
          "durationTicks": 240,
          "midi": 77,
          "name": "F5",
          "ticks": 25680,
          "time": 10.700000000000001,
          "velocity": 0.7401574803149606
        },
        {
          "duration": 0.09999999999999964,
          "durationTicks": 240,
          "midi": 72,
          "name": "C5",
          "ticks": 25920,
          "time": 10.8,
          "velocity": 1
        },
        {
          "duration": 0.09999999999999964,
          "durationTicks": 240,
          "midi": 65,
          "name": "F4",
          "ticks": 25920,
          "time": 10.8,
          "velocity": 1
        },
        {
          "duration": 0.09999999999999964,
          "durationTicks": 240,
          "midi": 77,
          "name": "F5",
          "ticks": 25920,
          "time": 10.8,
          "velocity": 1
        },
        {
          "duration": 0.09999999999999964,
          "durationTicks": 240,
          "midi": 68,
          "name": "G#4",
          "ticks": 25920,
          "time": 10.8,
          "velocity": 1
        },
        {
          "duration": 0.10000000000000142,
          "durationTicks": 240,
          "midi": 73,
          "name": "C#5",
          "ticks": 26400,
          "time": 11,
          "velocity": 1
        },
        {
          "duration": 0.10000000000000142,
          "durationTicks": 240,
          "midi": 66,
          "name": "F#4",
          "ticks": 26400,
          "time": 11,
          "velocity": 1
        },
        {
          "duration": 0.10000000000000142,
          "durationTicks": 240,
          "midi": 78,
          "name": "F#5",
          "ticks": 26400,
          "time": 11,
          "velocity": 1
        },
        {
          "duration": 0.10000000000000142,
          "durationTicks": 240,
          "midi": 67,
          "name": "G4",
          "ticks": 26400,
          "time": 11,
          "velocity": 1
        },
        {
          "duration": 0.09999999999999964,
          "durationTicks": 240,
          "midi": 77,
          "name": "F5",
          "ticks": 26880,
          "time": 11.200000000000001,
          "velocity": 1
        },
        {
          "duration": 0.09999999999999964,
          "durationTicks": 240,
          "midi": 65,
          "name": "F4",
          "ticks": 26880,
          "time": 11.200000000000001,
          "velocity": 1
        },
        {
          "duration": 0.09999999999999964,
          "durationTicks": 240,
          "midi": 72,
          "name": "C5",
          "ticks": 26880,
          "time": 11.200000000000001,
          "velocity": 1
        },
        {
          "duration": 0.09999999999999964,
          "durationTicks": 240,
          "midi": 70,
          "name": "A#4",
          "ticks": 26880,
          "time": 11.200000000000001,
          "velocity": 1
        },
        {
          "duration": 0.09999999999999964,
          "durationTicks": 240,
          "midi": 65,
          "name": "F4",
          "ticks": 27360,
          "time": 11.4,
          "velocity": 0.7401574803149606
        },
        {
          "duration": 0.09999999999999964,
          "durationTicks": 240,
          "midi": 72,
          "name": "C5",
          "ticks": 27360,
          "time": 11.4,
          "velocity": 0.7401574803149606
        },
        {
          "duration": 0.09999999999999964,
          "durationTicks": 240,
          "midi": 77,
          "name": "F5",
          "ticks": 27360,
          "time": 11.4,
          "velocity": 0.7401574803149606
        },
        {
          "duration": 0.10000000000000142,
          "durationTicks": 240,
          "midi": 77,
          "name": "F5",
          "ticks": 27600,
          "time": 11.5,
          "velocity": 1
        },
        {
          "duration": 0.10000000000000142,
          "durationTicks": 240,
          "midi": 65,
          "name": "F4",
          "ticks": 27600,
          "time": 11.5,
          "velocity": 1
        },
        {
          "duration": 0.10000000000000142,
          "durationTicks": 240,
          "midi": 72,
          "name": "C5",
          "ticks": 27600,
          "time": 11.5,
          "velocity": 1
        },
        {
          "duration": 0.10000000000000142,
          "durationTicks": 240,
          "midi": 70,
          "name": "A#4",
          "ticks": 27600,
          "time": 11.5,
          "velocity": 1
        },
        {
          "duration": 0.09999999999999964,
          "durationTicks": 240,
          "midi": 65,
          "name": "F4",
          "ticks": 28080,
          "time": 11.700000000000001,
          "velocity": 0.7401574803149606
        },
        {
          "duration": 0.09999999999999964,
          "durationTicks": 240,
          "midi": 72,
          "name": "C5",
          "ticks": 28080,
          "time": 11.700000000000001,
          "velocity": 0.7401574803149606
        },
        {
          "duration": 0.09999999999999964,
          "durationTicks": 240,
          "midi": 77,
          "name": "F5",
          "ticks": 28080,
          "time": 11.700000000000001,
          "velocity": 0.7401574803149606
        },
        {
          "duration": 0.09999999999999964,
          "durationTicks": 240,
          "midi": 77,
          "name": "F5",
          "ticks": 28320,
          "time": 11.8,
          "velocity": 1
        },
        {
          "duration": 0.09999999999999964,
          "durationTicks": 240,
          "midi": 65,
          "name": "F4",
          "ticks": 28320,
          "time": 11.8,
          "velocity": 1
        },
        {
          "duration": 0.09999999999999964,
          "durationTicks": 240,
          "midi": 72,
          "name": "C5",
          "ticks": 28320,
          "time": 11.8,
          "velocity": 1
        },
        {
          "duration": 0.09999999999999964,
          "durationTicks": 240,
          "midi": 70,
          "name": "A#4",
          "ticks": 28320,
          "time": 11.8,
          "velocity": 1
        },
        {
          "duration": 0.10000000000000142,
          "durationTicks": 240,
          "midi": 65,
          "name": "F4",
          "ticks": 28800,
          "time": 12,
          "velocity": 0.7401574803149606
        },
        {
          "duration": 0.10000000000000142,
          "durationTicks": 240,
          "midi": 72,
          "name": "C5",
          "ticks": 28800,
          "time": 12,
          "velocity": 0.7401574803149606
        },
        {
          "duration": 0.10000000000000142,
          "durationTicks": 240,
          "midi": 77,
          "name": "F5",
          "ticks": 28800,
          "time": 12,
          "velocity": 0.7401574803149606
        },
        {
          "duration": 0.09999999999999964,
          "durationTicks": 240,
          "midi": 77,
          "name": "F5",
          "ticks": 29040,
          "time": 12.100000000000001,
          "velocity": 1
        },
        {
          "duration": 0.09999999999999964,
          "durationTicks": 240,
          "midi": 65,
          "name": "F4",
          "ticks": 29040,
          "time": 12.100000000000001,
          "velocity": 1
        },
        {
          "duration": 0.09999999999999964,
          "durationTicks": 240,
          "midi": 72,
          "name": "C5",
          "ticks": 29040,
          "time": 12.100000000000001,
          "velocity": 1
        },
        {
          "duration": 0.09999999999999964,
          "durationTicks": 240,
          "midi": 70,
          "name": "A#4",
          "ticks": 29040,
          "time": 12.100000000000001,
          "velocity": 1
        },
        {
          "duration": 0.09999999999999964,
          "durationTicks": 240,
          "midi": 65,
          "name": "F4",
          "ticks": 29520,
          "time": 12.3,
          "velocity": 0.7401574803149606
        },
        {
          "duration": 0.09999999999999964,
          "durationTicks": 240,
          "midi": 72,
          "name": "C5",
          "ticks": 29520,
          "time": 12.3,
          "velocity": 0.7401574803149606
        },
        {
          "duration": 0.09999999999999964,
          "durationTicks": 240,
          "midi": 77,
          "name": "F5",
          "ticks": 29520,
          "time": 12.3,
          "velocity": 0.7401574803149606
        },
        {
          "duration": 0.09999999999999964,
          "durationTicks": 240,
          "midi": 77,
          "name": "F5",
          "ticks": 29760,
          "time": 12.4,
          "velocity": 1
        },
        {
          "duration": 0.09999999999999964,
          "durationTicks": 240,
          "midi": 65,
          "name": "F4",
          "ticks": 29760,
          "time": 12.4,
          "velocity": 1
        },
        {
          "duration": 0.09999999999999964,
          "durationTicks": 240,
          "midi": 72,
          "name": "C5",
          "ticks": 29760,
          "time": 12.4,
          "velocity": 1
        },
        {
          "duration": 0.09999999999999964,
          "durationTicks": 240,
          "midi": 70,
          "name": "A#4",
          "ticks": 29760,
          "time": 12.4,
          "velocity": 1
        },
        {
          "duration": 0.09999999999999964,
          "durationTicks": 240,
          "midi": 75,
          "name": "D#5",
          "ticks": 30240,
          "time": 12.600000000000001,
          "velocity": 1
        },
        {
          "duration": 0.09999999999999964,
          "durationTicks": 240,
          "midi": 63,
          "name": "D#4",
          "ticks": 30240,
          "time": 12.600000000000001,
          "velocity": 1
        },
        {
          "duration": 0.09999999999999964,
          "durationTicks": 240,
          "midi": 70,
          "name": "A#4",
          "ticks": 30240,
          "time": 12.600000000000001,
          "velocity": 1
        },
        {
          "duration": 0.09999999999999964,
          "durationTicks": 240,
          "midi": 72,
          "name": "C5",
          "ticks": 30720,
          "time": 12.8,
          "velocity": 1
        },
        {
          "duration": 0.09999999999999964,
          "durationTicks": 240,
          "midi": 65,
          "name": "F4",
          "ticks": 30720,
          "time": 12.8,
          "velocity": 1
        },
        {
          "duration": 0.09999999999999964,
          "durationTicks": 240,
          "midi": 77,
          "name": "F5",
          "ticks": 30720,
          "time": 12.8,
          "velocity": 1
        },
        {
          "duration": 0.09999999999999964,
          "durationTicks": 240,
          "midi": 68,
          "name": "G#4",
          "ticks": 30720,
          "time": 12.8,
          "velocity": 1
        },
        {
          "duration": 0.10000000000000142,
          "durationTicks": 240,
          "midi": 65,
          "name": "F4",
          "ticks": 31200,
          "time": 13,
          "velocity": 0.7401574803149606
        },
        {
          "duration": 0.10000000000000142,
          "durationTicks": 240,
          "midi": 72,
          "name": "C5",
          "ticks": 31200,
          "time": 13,
          "velocity": 0.7401574803149606
        },
        {
          "duration": 0.10000000000000142,
          "durationTicks": 240,
          "midi": 77,
          "name": "F5",
          "ticks": 31200,
          "time": 13,
          "velocity": 0.7401574803149606
        },
        {
          "duration": 0.09999999999999964,
          "durationTicks": 240,
          "midi": 72,
          "name": "C5",
          "ticks": 31440,
          "time": 13.100000000000001,
          "velocity": 1
        },
        {
          "duration": 0.09999999999999964,
          "durationTicks": 240,
          "midi": 65,
          "name": "F4",
          "ticks": 31440,
          "time": 13.100000000000001,
          "velocity": 1
        },
        {
          "duration": 0.09999999999999964,
          "durationTicks": 240,
          "midi": 77,
          "name": "F5",
          "ticks": 31440,
          "time": 13.100000000000001,
          "velocity": 1
        },
        {
          "duration": 0.09999999999999964,
          "durationTicks": 240,
          "midi": 67,
          "name": "G4",
          "ticks": 31440,
          "time": 13.100000000000001,
          "velocity": 1
        },
        {
          "duration": 0.09999999999999964,
          "durationTicks": 240,
          "midi": 65,
          "name": "F4",
          "ticks": 31920,
          "time": 13.3,
          "velocity": 0.7401574803149606
        },
        {
          "duration": 0.09999999999999964,
          "durationTicks": 240,
          "midi": 72,
          "name": "C5",
          "ticks": 31920,
          "time": 13.3,
          "velocity": 0.7401574803149606
        },
        {
          "duration": 0.09999999999999964,
          "durationTicks": 240,
          "midi": 77,
          "name": "F5",
          "ticks": 31920,
          "time": 13.3,
          "velocity": 0.7401574803149606
        },
        {
          "duration": 0.09999999999999964,
          "durationTicks": 240,
          "midi": 72,
          "name": "C5",
          "ticks": 32160,
          "time": 13.4,
          "velocity": 1
        },
        {
          "duration": 0.09999999999999964,
          "durationTicks": 240,
          "midi": 65,
          "name": "F4",
          "ticks": 32160,
          "time": 13.4,
          "velocity": 1
        },
        {
          "duration": 0.09999999999999964,
          "durationTicks": 240,
          "midi": 77,
          "name": "F5",
          "ticks": 32160,
          "time": 13.4,
          "velocity": 1
        },
        {
          "duration": 0.09999999999999964,
          "durationTicks": 240,
          "midi": 68,
          "name": "G#4",
          "ticks": 32160,
          "time": 13.4,
          "velocity": 1
        },
        {
          "duration": 0.09999999999999964,
          "durationTicks": 240,
          "midi": 65,
          "name": "F4",
          "ticks": 32640,
          "time": 13.600000000000001,
          "velocity": 0.7401574803149606
        },
        {
          "duration": 0.09999999999999964,
          "durationTicks": 240,
          "midi": 72,
          "name": "C5",
          "ticks": 32640,
          "time": 13.600000000000001,
          "velocity": 0.7401574803149606
        },
        {
          "duration": 0.09999999999999964,
          "durationTicks": 240,
          "midi": 77,
          "name": "F5",
          "ticks": 32640,
          "time": 13.600000000000001,
          "velocity": 0.7401574803149606
        },
        {
          "duration": 0.09999999999999964,
          "durationTicks": 240,
          "midi": 72,
          "name": "C5",
          "ticks": 32880,
          "time": 13.700000000000001,
          "velocity": 1
        },
        {
          "duration": 0.09999999999999964,
          "durationTicks": 240,
          "midi": 65,
          "name": "F4",
          "ticks": 32880,
          "time": 13.700000000000001,
          "velocity": 1
        },
        {
          "duration": 0.09999999999999964,
          "durationTicks": 240,
          "midi": 77,
          "name": "F5",
          "ticks": 32880,
          "time": 13.700000000000001,
          "velocity": 1
        },
        {
          "duration": 0.09999999999999964,
          "durationTicks": 240,
          "midi": 68,
          "name": "G#4",
          "ticks": 32880,
          "time": 13.700000000000001,
          "velocity": 1
        },
        {
          "duration": 0.09999999999999964,
          "durationTicks": 240,
          "midi": 65,
          "name": "F4",
          "ticks": 33360,
          "time": 13.9,
          "velocity": 0.7401574803149606
        },
        {
          "duration": 0.09999999999999964,
          "durationTicks": 240,
          "midi": 72,
          "name": "C5",
          "ticks": 33360,
          "time": 13.9,
          "velocity": 0.7401574803149606
        },
        {
          "duration": 0.09999999999999964,
          "durationTicks": 240,
          "midi": 77,
          "name": "F5",
          "ticks": 33360,
          "time": 13.9,
          "velocity": 0.7401574803149606
        },
        {
          "duration": 0.10000000000000142,
          "durationTicks": 240,
          "midi": 72,
          "name": "C5",
          "ticks": 33600,
          "time": 14,
          "velocity": 1
        },
        {
          "duration": 0.10000000000000142,
          "durationTicks": 240,
          "midi": 65,
          "name": "F4",
          "ticks": 33600,
          "time": 14,
          "velocity": 1
        },
        {
          "duration": 0.10000000000000142,
          "durationTicks": 240,
          "midi": 77,
          "name": "F5",
          "ticks": 33600,
          "time": 14,
          "velocity": 1
        },
        {
          "duration": 0.10000000000000142,
          "durationTicks": 240,
          "midi": 68,
          "name": "G#4",
          "ticks": 33600,
          "time": 14,
          "velocity": 1
        },
        {
          "duration": 0.09999999999999964,
          "durationTicks": 240,
          "midi": 73,
          "name": "C#5",
          "ticks": 34080,
          "time": 14.200000000000001,
          "velocity": 1
        },
        {
          "duration": 0.09999999999999964,
          "durationTicks": 240,
          "midi": 66,
          "name": "F#4",
          "ticks": 34080,
          "time": 14.200000000000001,
          "velocity": 1
        },
        {
          "duration": 0.09999999999999964,
          "durationTicks": 240,
          "midi": 78,
          "name": "F#5",
          "ticks": 34080,
          "time": 14.200000000000001,
          "velocity": 1
        },
        {
          "duration": 0.09999999999999964,
          "durationTicks": 240,
          "midi": 67,
          "name": "G4",
          "ticks": 34080,
          "time": 14.200000000000001,
          "velocity": 1
        },
        {
          "duration": 0.09999999999999964,
          "durationTicks": 240,
          "midi": 77,
          "name": "F5",
          "ticks": 34560,
          "time": 14.4,
          "velocity": 1
        },
        {
          "duration": 0.09999999999999964,
          "durationTicks": 240,
          "midi": 65,
          "name": "F4",
          "ticks": 34560,
          "time": 14.4,
          "velocity": 1
        },
        {
          "duration": 0.09999999999999964,
          "durationTicks": 240,
          "midi": 72,
          "name": "C5",
          "ticks": 34560,
          "time": 14.4,
          "velocity": 1
        },
        {
          "duration": 0.09999999999999964,
          "durationTicks": 240,
          "midi": 68,
          "name": "G#4",
          "ticks": 34560,
          "time": 14.4,
          "velocity": 1
        },
        {
          "duration": 0.09999999999999964,
          "durationTicks": 240,
          "midi": 65,
          "name": "F4",
          "ticks": 35040,
          "time": 14.600000000000001,
          "velocity": 0.7401574803149606
        },
        {
          "duration": 0.09999999999999964,
          "durationTicks": 240,
          "midi": 72,
          "name": "C5",
          "ticks": 35040,
          "time": 14.600000000000001,
          "velocity": 0.7401574803149606
        },
        {
          "duration": 0.09999999999999964,
          "durationTicks": 240,
          "midi": 77,
          "name": "F5",
          "ticks": 35040,
          "time": 14.600000000000001,
          "velocity": 0.7401574803149606
        },
        {
          "duration": 0.09999999999999964,
          "durationTicks": 240,
          "midi": 77,
          "name": "F5",
          "ticks": 35280,
          "time": 14.700000000000001,
          "velocity": 1
        },
        {
          "duration": 0.09999999999999964,
          "durationTicks": 240,
          "midi": 65,
          "name": "F4",
          "ticks": 35280,
          "time": 14.700000000000001,
          "velocity": 1
        },
        {
          "duration": 0.09999999999999964,
          "durationTicks": 240,
          "midi": 72,
          "name": "C5",
          "ticks": 35280,
          "time": 14.700000000000001,
          "velocity": 1
        },
        {
          "duration": 0.09999999999999964,
          "durationTicks": 240,
          "midi": 67,
          "name": "G4",
          "ticks": 35280,
          "time": 14.700000000000001,
          "velocity": 1
        },
        {
          "duration": 0.09999999999999964,
          "durationTicks": 240,
          "midi": 65,
          "name": "F4",
          "ticks": 35760,
          "time": 14.9,
          "velocity": 0.7401574803149606
        },
        {
          "duration": 0.09999999999999964,
          "durationTicks": 240,
          "midi": 72,
          "name": "C5",
          "ticks": 35760,
          "time": 14.9,
          "velocity": 0.7401574803149606
        },
        {
          "duration": 0.09999999999999964,
          "durationTicks": 240,
          "midi": 77,
          "name": "F5",
          "ticks": 35760,
          "time": 14.9,
          "velocity": 0.7401574803149606
        },
        {
          "duration": 0.10000000000000142,
          "durationTicks": 240,
          "midi": 77,
          "name": "F5",
          "ticks": 36000,
          "time": 15,
          "velocity": 1
        },
        {
          "duration": 0.10000000000000142,
          "durationTicks": 240,
          "midi": 65,
          "name": "F4",
          "ticks": 36000,
          "time": 15,
          "velocity": 1
        },
        {
          "duration": 0.10000000000000142,
          "durationTicks": 240,
          "midi": 72,
          "name": "C5",
          "ticks": 36000,
          "time": 15,
          "velocity": 1
        },
        {
          "duration": 0.10000000000000142,
          "durationTicks": 240,
          "midi": 68,
          "name": "G#4",
          "ticks": 36000,
          "time": 15,
          "velocity": 1
        },
        {
          "duration": 0.09999999999999964,
          "durationTicks": 240,
          "midi": 65,
          "name": "F4",
          "ticks": 36480,
          "time": 15.200000000000001,
          "velocity": 0.7401574803149606
        },
        {
          "duration": 0.09999999999999964,
          "durationTicks": 240,
          "midi": 72,
          "name": "C5",
          "ticks": 36480,
          "time": 15.200000000000001,
          "velocity": 0.7401574803149606
        },
        {
          "duration": 0.09999999999999964,
          "durationTicks": 240,
          "midi": 77,
          "name": "F5",
          "ticks": 36480,
          "time": 15.200000000000001,
          "velocity": 0.7401574803149606
        },
        {
          "duration": 0.09999999999999964,
          "durationTicks": 240,
          "midi": 77,
          "name": "F5",
          "ticks": 36720,
          "time": 15.3,
          "velocity": 1
        },
        {
          "duration": 0.09999999999999964,
          "durationTicks": 240,
          "midi": 65,
          "name": "F4",
          "ticks": 36720,
          "time": 15.3,
          "velocity": 1
        },
        {
          "duration": 0.09999999999999964,
          "durationTicks": 240,
          "midi": 72,
          "name": "C5",
          "ticks": 36720,
          "time": 15.3,
          "velocity": 1
        },
        {
          "duration": 0.09999999999999964,
          "durationTicks": 240,
          "midi": 68,
          "name": "G#4",
          "ticks": 36720,
          "time": 15.3,
          "velocity": 1
        },
        {
          "duration": 0.10000000000000142,
          "durationTicks": 240,
          "midi": 65,
          "name": "F4",
          "ticks": 37200,
          "time": 15.5,
          "velocity": 0.7401574803149606
        },
        {
          "duration": 0.10000000000000142,
          "durationTicks": 240,
          "midi": 72,
          "name": "C5",
          "ticks": 37200,
          "time": 15.5,
          "velocity": 0.7401574803149606
        },
        {
          "duration": 0.10000000000000142,
          "durationTicks": 240,
          "midi": 77,
          "name": "F5",
          "ticks": 37200,
          "time": 15.5,
          "velocity": 0.7401574803149606
        },
        {
          "duration": 0.09999999999999964,
          "durationTicks": 240,
          "midi": 77,
          "name": "F5",
          "ticks": 37440,
          "time": 15.600000000000001,
          "velocity": 1
        },
        {
          "duration": 0.09999999999999964,
          "durationTicks": 240,
          "midi": 65,
          "name": "F4",
          "ticks": 37440,
          "time": 15.600000000000001,
          "velocity": 1
        },
        {
          "duration": 0.09999999999999964,
          "durationTicks": 240,
          "midi": 72,
          "name": "C5",
          "ticks": 37440,
          "time": 15.600000000000001,
          "velocity": 1
        },
        {
          "duration": 0.09999999999999964,
          "durationTicks": 240,
          "midi": 68,
          "name": "G#4",
          "ticks": 37440,
          "time": 15.600000000000001,
          "velocity": 1
        },
        {
          "duration": 0.09999999999999964,
          "durationTicks": 240,
          "midi": 75,
          "name": "D#5",
          "ticks": 37920,
          "time": 15.8,
          "velocity": 1
        },
        {
          "duration": 0.09999999999999964,
          "durationTicks": 240,
          "midi": 63,
          "name": "D#4",
          "ticks": 37920,
          "time": 15.8,
          "velocity": 1
        },
        {
          "duration": 0.09999999999999964,
          "durationTicks": 240,
          "midi": 70,
          "name": "A#4",
          "ticks": 37920,
          "time": 15.8,
          "velocity": 1
        },
        {
          "duration": 0.09999999999999964,
          "durationTicks": 240,
          "midi": 67,
          "name": "G4",
          "ticks": 37920,
          "time": 15.8,
          "velocity": 1
        },
        {
          "duration": 0.10000000000000142,
          "durationTicks": 240,
          "midi": 72,
          "name": "C5",
          "ticks": 38400,
          "time": 16,
          "velocity": 1
        },
        {
          "duration": 0.10000000000000142,
          "durationTicks": 240,
          "midi": 65,
          "name": "F4",
          "ticks": 38400,
          "time": 16,
          "velocity": 1
        },
        {
          "duration": 0.10000000000000142,
          "durationTicks": 240,
          "midi": 77,
          "name": "F5",
          "ticks": 38400,
          "time": 16,
          "velocity": 1
        },
        {
          "duration": 0.10000000000000142,
          "durationTicks": 240,
          "midi": 68,
          "name": "G#4",
          "ticks": 38400,
          "time": 16,
          "velocity": 1
        },
        {
          "duration": 0.10000000000000142,
          "durationTicks": 240,
          "midi": 65,
          "name": "F4",
          "ticks": 38880,
          "time": 16.2,
          "velocity": 0.7401574803149606
        },
        {
          "duration": 0.10000000000000142,
          "durationTicks": 240,
          "midi": 72,
          "name": "C5",
          "ticks": 38880,
          "time": 16.2,
          "velocity": 0.7401574803149606
        },
        {
          "duration": 0.10000000000000142,
          "durationTicks": 240,
          "midi": 77,
          "name": "F5",
          "ticks": 38880,
          "time": 16.2,
          "velocity": 0.7401574803149606
        },
        {
          "duration": 0.10000000000000142,
          "durationTicks": 240,
          "midi": 72,
          "name": "C5",
          "ticks": 39120,
          "time": 16.3,
          "velocity": 1
        },
        {
          "duration": 0.10000000000000142,
          "durationTicks": 240,
          "midi": 65,
          "name": "F4",
          "ticks": 39120,
          "time": 16.3,
          "velocity": 1
        },
        {
          "duration": 0.10000000000000142,
          "durationTicks": 240,
          "midi": 77,
          "name": "F5",
          "ticks": 39120,
          "time": 16.3,
          "velocity": 1
        },
        {
          "duration": 0.10000000000000142,
          "durationTicks": 240,
          "midi": 67,
          "name": "G4",
          "ticks": 39120,
          "time": 16.3,
          "velocity": 1
        },
        {
          "duration": 0.10000000000000142,
          "durationTicks": 240,
          "midi": 65,
          "name": "F4",
          "ticks": 39600,
          "time": 16.5,
          "velocity": 0.7401574803149606
        },
        {
          "duration": 0.10000000000000142,
          "durationTicks": 240,
          "midi": 72,
          "name": "C5",
          "ticks": 39600,
          "time": 16.5,
          "velocity": 0.7401574803149606
        },
        {
          "duration": 0.10000000000000142,
          "durationTicks": 240,
          "midi": 77,
          "name": "F5",
          "ticks": 39600,
          "time": 16.5,
          "velocity": 0.7401574803149606
        },
        {
          "duration": 0.09999999999999787,
          "durationTicks": 240,
          "midi": 72,
          "name": "C5",
          "ticks": 39840,
          "time": 16.6,
          "velocity": 1
        },
        {
          "duration": 0.09999999999999787,
          "durationTicks": 240,
          "midi": 65,
          "name": "F4",
          "ticks": 39840,
          "time": 16.6,
          "velocity": 1
        },
        {
          "duration": 0.09999999999999787,
          "durationTicks": 240,
          "midi": 77,
          "name": "F5",
          "ticks": 39840,
          "time": 16.6,
          "velocity": 1
        },
        {
          "duration": 0.09999999999999787,
          "durationTicks": 240,
          "midi": 68,
          "name": "G#4",
          "ticks": 39840,
          "time": 16.6,
          "velocity": 1
        },
        {
          "duration": 0.10000000000000142,
          "durationTicks": 240,
          "midi": 65,
          "name": "F4",
          "ticks": 40320,
          "time": 16.8,
          "velocity": 0.7401574803149606
        },
        {
          "duration": 0.10000000000000142,
          "durationTicks": 240,
          "midi": 72,
          "name": "C5",
          "ticks": 40320,
          "time": 16.8,
          "velocity": 0.7401574803149606
        },
        {
          "duration": 0.10000000000000142,
          "durationTicks": 240,
          "midi": 77,
          "name": "F5",
          "ticks": 40320,
          "time": 16.8,
          "velocity": 0.7401574803149606
        },
        {
          "duration": 0.09999999999999787,
          "durationTicks": 240,
          "midi": 72,
          "name": "C5",
          "ticks": 40560,
          "time": 16.900000000000002,
          "velocity": 1
        },
        {
          "duration": 0.09999999999999787,
          "durationTicks": 240,
          "midi": 65,
          "name": "F4",
          "ticks": 40560,
          "time": 16.900000000000002,
          "velocity": 1
        },
        {
          "duration": 0.09999999999999787,
          "durationTicks": 240,
          "midi": 77,
          "name": "F5",
          "ticks": 40560,
          "time": 16.900000000000002,
          "velocity": 1
        },
        {
          "duration": 0.09999999999999787,
          "durationTicks": 240,
          "midi": 68,
          "name": "G#4",
          "ticks": 40560,
          "time": 16.900000000000002,
          "velocity": 1
        },
        {
          "duration": 0.09999999999999787,
          "durationTicks": 240,
          "midi": 65,
          "name": "F4",
          "ticks": 41040,
          "time": 17.1,
          "velocity": 0.7401574803149606
        },
        {
          "duration": 0.09999999999999787,
          "durationTicks": 240,
          "midi": 72,
          "name": "C5",
          "ticks": 41040,
          "time": 17.1,
          "velocity": 0.7401574803149606
        },
        {
          "duration": 0.09999999999999787,
          "durationTicks": 240,
          "midi": 77,
          "name": "F5",
          "ticks": 41040,
          "time": 17.1,
          "velocity": 0.7401574803149606
        },
        {
          "duration": 0.10000000000000142,
          "durationTicks": 240,
          "midi": 72,
          "name": "C5",
          "ticks": 41280,
          "time": 17.2,
          "velocity": 1
        },
        {
          "duration": 0.10000000000000142,
          "durationTicks": 240,
          "midi": 65,
          "name": "F4",
          "ticks": 41280,
          "time": 17.2,
          "velocity": 1
        },
        {
          "duration": 0.10000000000000142,
          "durationTicks": 240,
          "midi": 77,
          "name": "F5",
          "ticks": 41280,
          "time": 17.2,
          "velocity": 1
        },
        {
          "duration": 0.10000000000000142,
          "durationTicks": 240,
          "midi": 68,
          "name": "G#4",
          "ticks": 41280,
          "time": 17.2,
          "velocity": 1
        },
        {
          "duration": 0.09999999999999787,
          "durationTicks": 240,
          "midi": 73,
          "name": "C#5",
          "ticks": 41760,
          "time": 17.400000000000002,
          "velocity": 1
        },
        {
          "duration": 0.09999999999999787,
          "durationTicks": 240,
          "midi": 66,
          "name": "F#4",
          "ticks": 41760,
          "time": 17.400000000000002,
          "velocity": 1
        },
        {
          "duration": 0.09999999999999787,
          "durationTicks": 240,
          "midi": 78,
          "name": "F#5",
          "ticks": 41760,
          "time": 17.400000000000002,
          "velocity": 1
        },
        {
          "duration": 0.09999999999999787,
          "durationTicks": 240,
          "midi": 67,
          "name": "G4",
          "ticks": 41760,
          "time": 17.400000000000002,
          "velocity": 1
        },
        {
          "duration": 0.09999999999999787,
          "durationTicks": 240,
          "midi": 77,
          "name": "F5",
          "ticks": 42240,
          "time": 17.6,
          "velocity": 1
        },
        {
          "duration": 0.09999999999999787,
          "durationTicks": 240,
          "midi": 65,
          "name": "F4",
          "ticks": 42240,
          "time": 17.6,
          "velocity": 1
        },
        {
          "duration": 0.09999999999999787,
          "durationTicks": 240,
          "midi": 72,
          "name": "C5",
          "ticks": 42240,
          "time": 17.6,
          "velocity": 1
        },
        {
          "duration": 0.09999999999999787,
          "durationTicks": 240,
          "midi": 70,
          "name": "A#4",
          "ticks": 42240,
          "time": 17.6,
          "velocity": 1
        },
        {
          "duration": 0.10000000000000142,
          "durationTicks": 240,
          "midi": 65,
          "name": "F4",
          "ticks": 42720,
          "time": 17.8,
          "velocity": 0.7401574803149606
        },
        {
          "duration": 0.10000000000000142,
          "durationTicks": 240,
          "midi": 72,
          "name": "C5",
          "ticks": 42720,
          "time": 17.8,
          "velocity": 0.7401574803149606
        },
        {
          "duration": 0.10000000000000142,
          "durationTicks": 240,
          "midi": 77,
          "name": "F5",
          "ticks": 42720,
          "time": 17.8,
          "velocity": 0.7401574803149606
        },
        {
          "duration": 0.09999999999999787,
          "durationTicks": 240,
          "midi": 77,
          "name": "F5",
          "ticks": 42960,
          "time": 17.900000000000002,
          "velocity": 1
        },
        {
          "duration": 0.09999999999999787,
          "durationTicks": 240,
          "midi": 65,
          "name": "F4",
          "ticks": 42960,
          "time": 17.900000000000002,
          "velocity": 1
        },
        {
          "duration": 0.09999999999999787,
          "durationTicks": 240,
          "midi": 72,
          "name": "C5",
          "ticks": 42960,
          "time": 17.900000000000002,
          "velocity": 1
        },
        {
          "duration": 0.09999999999999787,
          "durationTicks": 240,
          "midi": 70,
          "name": "A#4",
          "ticks": 42960,
          "time": 17.900000000000002,
          "velocity": 1
        },
        {
          "duration": 0.09999999999999787,
          "durationTicks": 240,
          "midi": 65,
          "name": "F4",
          "ticks": 43440,
          "time": 18.1,
          "velocity": 0.7401574803149606
        },
        {
          "duration": 0.09999999999999787,
          "durationTicks": 240,
          "midi": 72,
          "name": "C5",
          "ticks": 43440,
          "time": 18.1,
          "velocity": 0.7401574803149606
        },
        {
          "duration": 0.09999999999999787,
          "durationTicks": 240,
          "midi": 77,
          "name": "F5",
          "ticks": 43440,
          "time": 18.1,
          "velocity": 0.7401574803149606
        },
        {
          "duration": 0.10000000000000142,
          "durationTicks": 240,
          "midi": 77,
          "name": "F5",
          "ticks": 43680,
          "time": 18.2,
          "velocity": 1
        },
        {
          "duration": 0.10000000000000142,
          "durationTicks": 240,
          "midi": 65,
          "name": "F4",
          "ticks": 43680,
          "time": 18.2,
          "velocity": 1
        },
        {
          "duration": 0.10000000000000142,
          "durationTicks": 240,
          "midi": 72,
          "name": "C5",
          "ticks": 43680,
          "time": 18.2,
          "velocity": 1
        },
        {
          "duration": 0.10000000000000142,
          "durationTicks": 240,
          "midi": 70,
          "name": "A#4",
          "ticks": 43680,
          "time": 18.2,
          "velocity": 1
        },
        {
          "duration": 0.09999999999999787,
          "durationTicks": 240,
          "midi": 65,
          "name": "F4",
          "ticks": 44160,
          "time": 18.400000000000002,
          "velocity": 0.7401574803149606
        },
        {
          "duration": 0.09999999999999787,
          "durationTicks": 240,
          "midi": 72,
          "name": "C5",
          "ticks": 44160,
          "time": 18.400000000000002,
          "velocity": 0.7401574803149606
        },
        {
          "duration": 0.09999999999999787,
          "durationTicks": 240,
          "midi": 77,
          "name": "F5",
          "ticks": 44160,
          "time": 18.400000000000002,
          "velocity": 0.7401574803149606
        },
        {
          "duration": 0.10000000000000142,
          "durationTicks": 240,
          "midi": 77,
          "name": "F5",
          "ticks": 44400,
          "time": 18.5,
          "velocity": 1
        },
        {
          "duration": 0.10000000000000142,
          "durationTicks": 240,
          "midi": 65,
          "name": "F4",
          "ticks": 44400,
          "time": 18.5,
          "velocity": 1
        },
        {
          "duration": 0.10000000000000142,
          "durationTicks": 240,
          "midi": 72,
          "name": "C5",
          "ticks": 44400,
          "time": 18.5,
          "velocity": 1
        },
        {
          "duration": 0.10000000000000142,
          "durationTicks": 240,
          "midi": 70,
          "name": "A#4",
          "ticks": 44400,
          "time": 18.5,
          "velocity": 1
        },
        {
          "duration": 0.10000000000000142,
          "durationTicks": 240,
          "midi": 65,
          "name": "F4",
          "ticks": 44880,
          "time": 18.7,
          "velocity": 0.7401574803149606
        },
        {
          "duration": 0.10000000000000142,
          "durationTicks": 240,
          "midi": 72,
          "name": "C5",
          "ticks": 44880,
          "time": 18.7,
          "velocity": 0.7401574803149606
        },
        {
          "duration": 0.10000000000000142,
          "durationTicks": 240,
          "midi": 77,
          "name": "F5",
          "ticks": 44880,
          "time": 18.7,
          "velocity": 0.7401574803149606
        },
        {
          "duration": 0.10000000000000142,
          "durationTicks": 240,
          "midi": 77,
          "name": "F5",
          "ticks": 45120,
          "time": 18.8,
          "velocity": 1
        },
        {
          "duration": 0.10000000000000142,
          "durationTicks": 240,
          "midi": 65,
          "name": "F4",
          "ticks": 45120,
          "time": 18.8,
          "velocity": 1
        },
        {
          "duration": 0.10000000000000142,
          "durationTicks": 240,
          "midi": 72,
          "name": "C5",
          "ticks": 45120,
          "time": 18.8,
          "velocity": 1
        },
        {
          "duration": 0.10000000000000142,
          "durationTicks": 240,
          "midi": 70,
          "name": "A#4",
          "ticks": 45120,
          "time": 18.8,
          "velocity": 1
        },
        {
          "duration": 0.10000000000000142,
          "durationTicks": 240,
          "midi": 75,
          "name": "D#5",
          "ticks": 45600,
          "time": 19,
          "velocity": 1
        },
        {
          "duration": 0.10000000000000142,
          "durationTicks": 240,
          "midi": 63,
          "name": "D#4",
          "ticks": 45600,
          "time": 19,
          "velocity": 1
        },
        {
          "duration": 0.10000000000000142,
          "durationTicks": 240,
          "midi": 70,
          "name": "A#4",
          "ticks": 45600,
          "time": 19,
          "velocity": 1
        },
        {
          "duration": 0.09999999999999787,
          "durationTicks": 240,
          "midi": 72,
          "name": "C5",
          "ticks": 46080,
          "time": 19.200000000000003,
          "velocity": 1
        },
        {
          "duration": 0.09999999999999787,
          "durationTicks": 240,
          "midi": 65,
          "name": "F4",
          "ticks": 46080,
          "time": 19.200000000000003,
          "velocity": 1
        },
        {
          "duration": 0.09999999999999787,
          "durationTicks": 240,
          "midi": 77,
          "name": "F5",
          "ticks": 46080,
          "time": 19.200000000000003,
          "velocity": 1
        },
        {
          "duration": 0.09999999999999787,
          "durationTicks": 240,
          "midi": 68,
          "name": "G#4",
          "ticks": 46080,
          "time": 19.200000000000003,
          "velocity": 1
        },
        {
          "duration": 0.09999999999999787,
          "durationTicks": 240,
          "midi": 65,
          "name": "F4",
          "ticks": 46560,
          "time": 19.400000000000002,
          "velocity": 0.7401574803149606
        },
        {
          "duration": 0.09999999999999787,
          "durationTicks": 240,
          "midi": 72,
          "name": "C5",
          "ticks": 46560,
          "time": 19.400000000000002,
          "velocity": 0.7401574803149606
        },
        {
          "duration": 0.09999999999999787,
          "durationTicks": 240,
          "midi": 77,
          "name": "F5",
          "ticks": 46560,
          "time": 19.400000000000002,
          "velocity": 0.7401574803149606
        },
        {
          "duration": 0.10000000000000142,
          "durationTicks": 240,
          "midi": 72,
          "name": "C5",
          "ticks": 46800,
          "time": 19.5,
          "velocity": 1
        },
        {
          "duration": 0.10000000000000142,
          "durationTicks": 240,
          "midi": 65,
          "name": "F4",
          "ticks": 46800,
          "time": 19.5,
          "velocity": 1
        },
        {
          "duration": 0.10000000000000142,
          "durationTicks": 240,
          "midi": 77,
          "name": "F5",
          "ticks": 46800,
          "time": 19.5,
          "velocity": 1
        },
        {
          "duration": 0.10000000000000142,
          "durationTicks": 240,
          "midi": 67,
          "name": "G4",
          "ticks": 46800,
          "time": 19.5,
          "velocity": 1
        },
        {
          "duration": 0.09999999999999787,
          "durationTicks": 240,
          "midi": 65,
          "name": "F4",
          "ticks": 47280,
          "time": 19.700000000000003,
          "velocity": 0.7401574803149606
        },
        {
          "duration": 0.09999999999999787,
          "durationTicks": 240,
          "midi": 72,
          "name": "C5",
          "ticks": 47280,
          "time": 19.700000000000003,
          "velocity": 0.7401574803149606
        },
        {
          "duration": 0.09999999999999787,
          "durationTicks": 240,
          "midi": 77,
          "name": "F5",
          "ticks": 47280,
          "time": 19.700000000000003,
          "velocity": 0.7401574803149606
        },
        {
          "duration": 0.10000000000000142,
          "durationTicks": 240,
          "midi": 72,
          "name": "C5",
          "ticks": 47520,
          "time": 19.8,
          "velocity": 1
        },
        {
          "duration": 0.10000000000000142,
          "durationTicks": 240,
          "midi": 65,
          "name": "F4",
          "ticks": 47520,
          "time": 19.8,
          "velocity": 1
        },
        {
          "duration": 0.10000000000000142,
          "durationTicks": 240,
          "midi": 77,
          "name": "F5",
          "ticks": 47520,
          "time": 19.8,
          "velocity": 1
        },
        {
          "duration": 0.10000000000000142,
          "durationTicks": 240,
          "midi": 68,
          "name": "G#4",
          "ticks": 47520,
          "time": 19.8,
          "velocity": 1
        },
        {
          "duration": 0.10000000000000142,
          "durationTicks": 240,
          "midi": 65,
          "name": "F4",
          "ticks": 48000,
          "time": 20,
          "velocity": 0.7401574803149606
        },
        {
          "duration": 0.10000000000000142,
          "durationTicks": 240,
          "midi": 72,
          "name": "C5",
          "ticks": 48000,
          "time": 20,
          "velocity": 0.7401574803149606
        },
        {
          "duration": 0.10000000000000142,
          "durationTicks": 240,
          "midi": 77,
          "name": "F5",
          "ticks": 48000,
          "time": 20,
          "velocity": 0.7401574803149606
        },
        {
          "duration": 0.10000000000000142,
          "durationTicks": 240,
          "midi": 72,
          "name": "C5",
          "ticks": 48240,
          "time": 20.1,
          "velocity": 1
        },
        {
          "duration": 0.10000000000000142,
          "durationTicks": 240,
          "midi": 65,
          "name": "F4",
          "ticks": 48240,
          "time": 20.1,
          "velocity": 1
        },
        {
          "duration": 0.10000000000000142,
          "durationTicks": 240,
          "midi": 77,
          "name": "F5",
          "ticks": 48240,
          "time": 20.1,
          "velocity": 1
        },
        {
          "duration": 0.10000000000000142,
          "durationTicks": 240,
          "midi": 68,
          "name": "G#4",
          "ticks": 48240,
          "time": 20.1,
          "velocity": 1
        },
        {
          "duration": 0.10000000000000142,
          "durationTicks": 240,
          "midi": 65,
          "name": "F4",
          "ticks": 48720,
          "time": 20.3,
          "velocity": 0.7401574803149606
        },
        {
          "duration": 0.10000000000000142,
          "durationTicks": 240,
          "midi": 72,
          "name": "C5",
          "ticks": 48720,
          "time": 20.3,
          "velocity": 0.7401574803149606
        },
        {
          "duration": 0.10000000000000142,
          "durationTicks": 240,
          "midi": 77,
          "name": "F5",
          "ticks": 48720,
          "time": 20.3,
          "velocity": 0.7401574803149606
        },
        {
          "duration": 0.09999999999999787,
          "durationTicks": 240,
          "midi": 72,
          "name": "C5",
          "ticks": 48960,
          "time": 20.400000000000002,
          "velocity": 1
        },
        {
          "duration": 0.09999999999999787,
          "durationTicks": 240,
          "midi": 65,
          "name": "F4",
          "ticks": 48960,
          "time": 20.400000000000002,
          "velocity": 1
        },
        {
          "duration": 0.09999999999999787,
          "durationTicks": 240,
          "midi": 77,
          "name": "F5",
          "ticks": 48960,
          "time": 20.400000000000002,
          "velocity": 1
        },
        {
          "duration": 0.09999999999999787,
          "durationTicks": 240,
          "midi": 68,
          "name": "G#4",
          "ticks": 48960,
          "time": 20.400000000000002,
          "velocity": 1
        },
        {
          "duration": 0.10000000000000142,
          "durationTicks": 240,
          "midi": 73,
          "name": "C#5",
          "ticks": 49440,
          "time": 20.6,
          "velocity": 1
        },
        {
          "duration": 0.10000000000000142,
          "durationTicks": 240,
          "midi": 66,
          "name": "F#4",
          "ticks": 49440,
          "time": 20.6,
          "velocity": 1
        },
        {
          "duration": 0.10000000000000142,
          "durationTicks": 240,
          "midi": 78,
          "name": "F#5",
          "ticks": 49440,
          "time": 20.6,
          "velocity": 1
        },
        {
          "duration": 0.10000000000000142,
          "durationTicks": 240,
          "midi": 67,
          "name": "G4",
          "ticks": 49440,
          "time": 20.6,
          "velocity": 1
        },
        {
          "duration": 0.10000000000000142,
          "durationTicks": 240,
          "midi": 77,
          "name": "F5",
          "ticks": 49920,
          "time": 20.8,
          "velocity": 1
        },
        {
          "duration": 0.10000000000000142,
          "durationTicks": 240,
          "midi": 65,
          "name": "F4",
          "ticks": 49920,
          "time": 20.8,
          "velocity": 1
        },
        {
          "duration": 0.10000000000000142,
          "durationTicks": 240,
          "midi": 72,
          "name": "C5",
          "ticks": 49920,
          "time": 20.8,
          "velocity": 1
        },
        {
          "duration": 0.10000000000000142,
          "durationTicks": 240,
          "midi": 68,
          "name": "G#4",
          "ticks": 49920,
          "time": 20.8,
          "velocity": 1
        },
        {
          "duration": 0.10000000000000142,
          "durationTicks": 240,
          "midi": 65,
          "name": "F4",
          "ticks": 50400,
          "time": 21,
          "velocity": 0.7401574803149606
        },
        {
          "duration": 0.10000000000000142,
          "durationTicks": 240,
          "midi": 72,
          "name": "C5",
          "ticks": 50400,
          "time": 21,
          "velocity": 0.7401574803149606
        },
        {
          "duration": 0.10000000000000142,
          "durationTicks": 240,
          "midi": 77,
          "name": "F5",
          "ticks": 50400,
          "time": 21,
          "velocity": 0.7401574803149606
        },
        {
          "duration": 0.10000000000000142,
          "durationTicks": 240,
          "midi": 77,
          "name": "F5",
          "ticks": 50640,
          "time": 21.1,
          "velocity": 1
        },
        {
          "duration": 0.10000000000000142,
          "durationTicks": 240,
          "midi": 65,
          "name": "F4",
          "ticks": 50640,
          "time": 21.1,
          "velocity": 1
        },
        {
          "duration": 0.10000000000000142,
          "durationTicks": 240,
          "midi": 72,
          "name": "C5",
          "ticks": 50640,
          "time": 21.1,
          "velocity": 1
        },
        {
          "duration": 0.10000000000000142,
          "durationTicks": 240,
          "midi": 67,
          "name": "G4",
          "ticks": 50640,
          "time": 21.1,
          "velocity": 1
        },
        {
          "duration": 0.10000000000000142,
          "durationTicks": 240,
          "midi": 65,
          "name": "F4",
          "ticks": 51120,
          "time": 21.3,
          "velocity": 0.7401574803149606
        },
        {
          "duration": 0.10000000000000142,
          "durationTicks": 240,
          "midi": 72,
          "name": "C5",
          "ticks": 51120,
          "time": 21.3,
          "velocity": 0.7401574803149606
        },
        {
          "duration": 0.10000000000000142,
          "durationTicks": 240,
          "midi": 77,
          "name": "F5",
          "ticks": 51120,
          "time": 21.3,
          "velocity": 0.7401574803149606
        },
        {
          "duration": 0.09999999999999787,
          "durationTicks": 240,
          "midi": 77,
          "name": "F5",
          "ticks": 51360,
          "time": 21.400000000000002,
          "velocity": 1
        },
        {
          "duration": 0.09999999999999787,
          "durationTicks": 240,
          "midi": 65,
          "name": "F4",
          "ticks": 51360,
          "time": 21.400000000000002,
          "velocity": 1
        },
        {
          "duration": 0.09999999999999787,
          "durationTicks": 240,
          "midi": 72,
          "name": "C5",
          "ticks": 51360,
          "time": 21.400000000000002,
          "velocity": 1
        },
        {
          "duration": 0.09999999999999787,
          "durationTicks": 240,
          "midi": 68,
          "name": "G#4",
          "ticks": 51360,
          "time": 21.400000000000002,
          "velocity": 1
        },
        {
          "duration": 0.10000000000000142,
          "durationTicks": 240,
          "midi": 65,
          "name": "F4",
          "ticks": 51840,
          "time": 21.6,
          "velocity": 0.7401574803149606
        },
        {
          "duration": 0.10000000000000142,
          "durationTicks": 240,
          "midi": 72,
          "name": "C5",
          "ticks": 51840,
          "time": 21.6,
          "velocity": 0.7401574803149606
        },
        {
          "duration": 0.10000000000000142,
          "durationTicks": 240,
          "midi": 77,
          "name": "F5",
          "ticks": 51840,
          "time": 21.6,
          "velocity": 0.7401574803149606
        },
        {
          "duration": 0.09999999999999787,
          "durationTicks": 240,
          "midi": 77,
          "name": "F5",
          "ticks": 52080,
          "time": 21.700000000000003,
          "velocity": 1
        },
        {
          "duration": 0.09999999999999787,
          "durationTicks": 240,
          "midi": 65,
          "name": "F4",
          "ticks": 52080,
          "time": 21.700000000000003,
          "velocity": 1
        },
        {
          "duration": 0.09999999999999787,
          "durationTicks": 240,
          "midi": 72,
          "name": "C5",
          "ticks": 52080,
          "time": 21.700000000000003,
          "velocity": 1
        },
        {
          "duration": 0.09999999999999787,
          "durationTicks": 240,
          "midi": 68,
          "name": "G#4",
          "ticks": 52080,
          "time": 21.700000000000003,
          "velocity": 1
        },
        {
          "duration": 0.09999999999999787,
          "durationTicks": 240,
          "midi": 65,
          "name": "F4",
          "ticks": 52560,
          "time": 21.900000000000002,
          "velocity": 0.7401574803149606
        },
        {
          "duration": 0.09999999999999787,
          "durationTicks": 240,
          "midi": 72,
          "name": "C5",
          "ticks": 52560,
          "time": 21.900000000000002,
          "velocity": 0.7401574803149606
        },
        {
          "duration": 0.09999999999999787,
          "durationTicks": 240,
          "midi": 77,
          "name": "F5",
          "ticks": 52560,
          "time": 21.900000000000002,
          "velocity": 0.7401574803149606
        },
        {
          "duration": 0.10000000000000142,
          "durationTicks": 240,
          "midi": 77,
          "name": "F5",
          "ticks": 52800,
          "time": 22,
          "velocity": 1
        },
        {
          "duration": 0.10000000000000142,
          "durationTicks": 240,
          "midi": 65,
          "name": "F4",
          "ticks": 52800,
          "time": 22,
          "velocity": 1
        },
        {
          "duration": 0.10000000000000142,
          "durationTicks": 240,
          "midi": 72,
          "name": "C5",
          "ticks": 52800,
          "time": 22,
          "velocity": 1
        },
        {
          "duration": 0.10000000000000142,
          "durationTicks": 240,
          "midi": 68,
          "name": "G#4",
          "ticks": 52800,
          "time": 22,
          "velocity": 1
        },
        {
          "duration": 0.09999999999999787,
          "durationTicks": 240,
          "midi": 75,
          "name": "D#5",
          "ticks": 53280,
          "time": 22.200000000000003,
          "velocity": 1
        },
        {
          "duration": 0.09999999999999787,
          "durationTicks": 240,
          "midi": 63,
          "name": "D#4",
          "ticks": 53280,
          "time": 22.200000000000003,
          "velocity": 1
        },
        {
          "duration": 0.09999999999999787,
          "durationTicks": 240,
          "midi": 70,
          "name": "A#4",
          "ticks": 53280,
          "time": 22.200000000000003,
          "velocity": 1
        },
        {
          "duration": 0.09999999999999787,
          "durationTicks": 240,
          "midi": 67,
          "name": "G4",
          "ticks": 53280,
          "time": 22.200000000000003,
          "velocity": 1
        },
        {
          "duration": 0.09999999999999787,
          "durationTicks": 240,
          "midi": 72,
          "name": "C5",
          "ticks": 53760,
          "time": 22.400000000000002,
          "velocity": 1
        },
        {
          "duration": 0.09999999999999787,
          "durationTicks": 240,
          "midi": 65,
          "name": "F4",
          "ticks": 53760,
          "time": 22.400000000000002,
          "velocity": 1
        },
        {
          "duration": 0.09999999999999787,
          "durationTicks": 240,
          "midi": 77,
          "name": "F5",
          "ticks": 53760,
          "time": 22.400000000000002,
          "velocity": 1
        },
        {
          "duration": 0.09999999999999787,
          "durationTicks": 240,
          "midi": 68,
          "name": "G#4",
          "ticks": 53760,
          "time": 22.400000000000002,
          "velocity": 1
        },
        {
          "duration": 0.10000000000000142,
          "durationTicks": 240,
          "midi": 65,
          "name": "F4",
          "ticks": 54240,
          "time": 22.6,
          "velocity": 0.7401574803149606
        },
        {
          "duration": 0.10000000000000142,
          "durationTicks": 240,
          "midi": 72,
          "name": "C5",
          "ticks": 54240,
          "time": 22.6,
          "velocity": 0.7401574803149606
        },
        {
          "duration": 0.10000000000000142,
          "durationTicks": 240,
          "midi": 77,
          "name": "F5",
          "ticks": 54240,
          "time": 22.6,
          "velocity": 0.7401574803149606
        },
        {
          "duration": 0.09999999999999787,
          "durationTicks": 240,
          "midi": 72,
          "name": "C5",
          "ticks": 54480,
          "time": 22.700000000000003,
          "velocity": 1
        },
        {
          "duration": 0.09999999999999787,
          "durationTicks": 240,
          "midi": 65,
          "name": "F4",
          "ticks": 54480,
          "time": 22.700000000000003,
          "velocity": 1
        },
        {
          "duration": 0.09999999999999787,
          "durationTicks": 240,
          "midi": 77,
          "name": "F5",
          "ticks": 54480,
          "time": 22.700000000000003,
          "velocity": 1
        },
        {
          "duration": 0.09999999999999787,
          "durationTicks": 240,
          "midi": 67,
          "name": "G4",
          "ticks": 54480,
          "time": 22.700000000000003,
          "velocity": 1
        },
        {
          "duration": 0.09999999999999787,
          "durationTicks": 240,
          "midi": 65,
          "name": "F4",
          "ticks": 54960,
          "time": 22.900000000000002,
          "velocity": 0.7401574803149606
        },
        {
          "duration": 0.09999999999999787,
          "durationTicks": 240,
          "midi": 72,
          "name": "C5",
          "ticks": 54960,
          "time": 22.900000000000002,
          "velocity": 0.7401574803149606
        },
        {
          "duration": 0.09999999999999787,
          "durationTicks": 240,
          "midi": 77,
          "name": "F5",
          "ticks": 54960,
          "time": 22.900000000000002,
          "velocity": 0.7401574803149606
        },
        {
          "duration": 0.10000000000000142,
          "durationTicks": 240,
          "midi": 72,
          "name": "C5",
          "ticks": 55200,
          "time": 23,
          "velocity": 1
        },
        {
          "duration": 0.10000000000000142,
          "durationTicks": 240,
          "midi": 65,
          "name": "F4",
          "ticks": 55200,
          "time": 23,
          "velocity": 1
        },
        {
          "duration": 0.10000000000000142,
          "durationTicks": 240,
          "midi": 77,
          "name": "F5",
          "ticks": 55200,
          "time": 23,
          "velocity": 1
        },
        {
          "duration": 0.10000000000000142,
          "durationTicks": 240,
          "midi": 68,
          "name": "G#4",
          "ticks": 55200,
          "time": 23,
          "velocity": 1
        },
        {
          "duration": 0.09999999999999787,
          "durationTicks": 240,
          "midi": 65,
          "name": "F4",
          "ticks": 55680,
          "time": 23.200000000000003,
          "velocity": 0.7401574803149606
        },
        {
          "duration": 0.09999999999999787,
          "durationTicks": 240,
          "midi": 72,
          "name": "C5",
          "ticks": 55680,
          "time": 23.200000000000003,
          "velocity": 0.7401574803149606
        },
        {
          "duration": 0.09999999999999787,
          "durationTicks": 240,
          "midi": 77,
          "name": "F5",
          "ticks": 55680,
          "time": 23.200000000000003,
          "velocity": 0.7401574803149606
        },
        {
          "duration": 0.10000000000000142,
          "durationTicks": 240,
          "midi": 72,
          "name": "C5",
          "ticks": 55920,
          "time": 23.3,
          "velocity": 1
        },
        {
          "duration": 0.10000000000000142,
          "durationTicks": 240,
          "midi": 65,
          "name": "F4",
          "ticks": 55920,
          "time": 23.3,
          "velocity": 1
        },
        {
          "duration": 0.10000000000000142,
          "durationTicks": 240,
          "midi": 77,
          "name": "F5",
          "ticks": 55920,
          "time": 23.3,
          "velocity": 1
        },
        {
          "duration": 0.10000000000000142,
          "durationTicks": 240,
          "midi": 68,
          "name": "G#4",
          "ticks": 55920,
          "time": 23.3,
          "velocity": 1
        },
        {
          "duration": 0.10000000000000142,
          "durationTicks": 240,
          "midi": 65,
          "name": "F4",
          "ticks": 56400,
          "time": 23.5,
          "velocity": 0.7401574803149606
        },
        {
          "duration": 0.10000000000000142,
          "durationTicks": 240,
          "midi": 72,
          "name": "C5",
          "ticks": 56400,
          "time": 23.5,
          "velocity": 0.7401574803149606
        },
        {
          "duration": 0.10000000000000142,
          "durationTicks": 240,
          "midi": 77,
          "name": "F5",
          "ticks": 56400,
          "time": 23.5,
          "velocity": 0.7401574803149606
        },
        {
          "duration": 0.10000000000000142,
          "durationTicks": 240,
          "midi": 72,
          "name": "C5",
          "ticks": 56640,
          "time": 23.6,
          "velocity": 1
        },
        {
          "duration": 0.10000000000000142,
          "durationTicks": 240,
          "midi": 65,
          "name": "F4",
          "ticks": 56640,
          "time": 23.6,
          "velocity": 1
        },
        {
          "duration": 0.10000000000000142,
          "durationTicks": 240,
          "midi": 77,
          "name": "F5",
          "ticks": 56640,
          "time": 23.6,
          "velocity": 1
        },
        {
          "duration": 0.10000000000000142,
          "durationTicks": 240,
          "midi": 68,
          "name": "G#4",
          "ticks": 56640,
          "time": 23.6,
          "velocity": 1
        },
        {
          "duration": 0.10000000000000142,
          "durationTicks": 240,
          "midi": 73,
          "name": "C#5",
          "ticks": 57120,
          "time": 23.8,
          "velocity": 1
        },
        {
          "duration": 0.10000000000000142,
          "durationTicks": 240,
          "midi": 66,
          "name": "F#4",
          "ticks": 57120,
          "time": 23.8,
          "velocity": 1
        },
        {
          "duration": 0.10000000000000142,
          "durationTicks": 240,
          "midi": 78,
          "name": "F#5",
          "ticks": 57120,
          "time": 23.8,
          "velocity": 1
        },
        {
          "duration": 0.10000000000000142,
          "durationTicks": 240,
          "midi": 67,
          "name": "G4",
          "ticks": 57120,
          "time": 23.8,
          "velocity": 1
        },
        {
          "duration": 0.10000000000000142,
          "durationTicks": 240,
          "midi": 77,
          "name": "F5",
          "ticks": 57600,
          "time": 24,
          "velocity": 1
        },
        {
          "duration": 0.10000000000000142,
          "durationTicks": 240,
          "midi": 65,
          "name": "F4",
          "ticks": 57600,
          "time": 24,
          "velocity": 1
        },
        {
          "duration": 0.10000000000000142,
          "durationTicks": 240,
          "midi": 72,
          "name": "C5",
          "ticks": 57600,
          "time": 24,
          "velocity": 1
        },
        {
          "duration": 0.10000000000000142,
          "durationTicks": 240,
          "midi": 70,
          "name": "A#4",
          "ticks": 57600,
          "time": 24,
          "velocity": 1
        },
        {
          "duration": 0.09999999999999787,
          "durationTicks": 240,
          "midi": 65,
          "name": "F4",
          "ticks": 58080,
          "time": 24.200000000000003,
          "velocity": 0.7401574803149606
        },
        {
          "duration": 0.09999999999999787,
          "durationTicks": 240,
          "midi": 72,
          "name": "C5",
          "ticks": 58080,
          "time": 24.200000000000003,
          "velocity": 0.7401574803149606
        },
        {
          "duration": 0.09999999999999787,
          "durationTicks": 240,
          "midi": 77,
          "name": "F5",
          "ticks": 58080,
          "time": 24.200000000000003,
          "velocity": 0.7401574803149606
        },
        {
          "duration": 0.10000000000000142,
          "durationTicks": 240,
          "midi": 77,
          "name": "F5",
          "ticks": 58320,
          "time": 24.3,
          "velocity": 1
        },
        {
          "duration": 0.10000000000000142,
          "durationTicks": 240,
          "midi": 65,
          "name": "F4",
          "ticks": 58320,
          "time": 24.3,
          "velocity": 1
        },
        {
          "duration": 0.10000000000000142,
          "durationTicks": 240,
          "midi": 72,
          "name": "C5",
          "ticks": 58320,
          "time": 24.3,
          "velocity": 1
        },
        {
          "duration": 0.10000000000000142,
          "durationTicks": 240,
          "midi": 70,
          "name": "A#4",
          "ticks": 58320,
          "time": 24.3,
          "velocity": 1
        },
        {
          "duration": 0.10000000000000142,
          "durationTicks": 240,
          "midi": 65,
          "name": "F4",
          "ticks": 58800,
          "time": 24.5,
          "velocity": 0.7401574803149606
        },
        {
          "duration": 0.10000000000000142,
          "durationTicks": 240,
          "midi": 72,
          "name": "C5",
          "ticks": 58800,
          "time": 24.5,
          "velocity": 0.7401574803149606
        },
        {
          "duration": 0.10000000000000142,
          "durationTicks": 240,
          "midi": 77,
          "name": "F5",
          "ticks": 58800,
          "time": 24.5,
          "velocity": 0.7401574803149606
        },
        {
          "duration": 0.10000000000000142,
          "durationTicks": 240,
          "midi": 77,
          "name": "F5",
          "ticks": 59040,
          "time": 24.6,
          "velocity": 1
        },
        {
          "duration": 0.10000000000000142,
          "durationTicks": 240,
          "midi": 65,
          "name": "F4",
          "ticks": 59040,
          "time": 24.6,
          "velocity": 1
        },
        {
          "duration": 0.10000000000000142,
          "durationTicks": 240,
          "midi": 72,
          "name": "C5",
          "ticks": 59040,
          "time": 24.6,
          "velocity": 1
        },
        {
          "duration": 0.10000000000000142,
          "durationTicks": 240,
          "midi": 70,
          "name": "A#4",
          "ticks": 59040,
          "time": 24.6,
          "velocity": 1
        },
        {
          "duration": 0.10000000000000142,
          "durationTicks": 240,
          "midi": 65,
          "name": "F4",
          "ticks": 59520,
          "time": 24.8,
          "velocity": 0.7401574803149606
        },
        {
          "duration": 0.10000000000000142,
          "durationTicks": 240,
          "midi": 72,
          "name": "C5",
          "ticks": 59520,
          "time": 24.8,
          "velocity": 0.7401574803149606
        },
        {
          "duration": 0.10000000000000142,
          "durationTicks": 240,
          "midi": 77,
          "name": "F5",
          "ticks": 59520,
          "time": 24.8,
          "velocity": 0.7401574803149606
        },
        {
          "duration": 0.09999999999999787,
          "durationTicks": 240,
          "midi": 77,
          "name": "F5",
          "ticks": 59760,
          "time": 24.900000000000002,
          "velocity": 1
        },
        {
          "duration": 0.09999999999999787,
          "durationTicks": 240,
          "midi": 65,
          "name": "F4",
          "ticks": 59760,
          "time": 24.900000000000002,
          "velocity": 1
        },
        {
          "duration": 0.09999999999999787,
          "durationTicks": 240,
          "midi": 72,
          "name": "C5",
          "ticks": 59760,
          "time": 24.900000000000002,
          "velocity": 1
        },
        {
          "duration": 0.09999999999999787,
          "durationTicks": 240,
          "midi": 70,
          "name": "A#4",
          "ticks": 59760,
          "time": 24.900000000000002,
          "velocity": 1
        },
        {
          "duration": 0.10000000000000142,
          "durationTicks": 240,
          "midi": 65,
          "name": "F4",
          "ticks": 60240,
          "time": 25.1,
          "velocity": 0.7401574803149606
        },
        {
          "duration": 0.10000000000000142,
          "durationTicks": 240,
          "midi": 72,
          "name": "C5",
          "ticks": 60240,
          "time": 25.1,
          "velocity": 0.7401574803149606
        },
        {
          "duration": 0.10000000000000142,
          "durationTicks": 240,
          "midi": 77,
          "name": "F5",
          "ticks": 60240,
          "time": 25.1,
          "velocity": 0.7401574803149606
        },
        {
          "duration": 0.09999999999999787,
          "durationTicks": 240,
          "midi": 77,
          "name": "F5",
          "ticks": 60480,
          "time": 25.200000000000003,
          "velocity": 1
        },
        {
          "duration": 0.09999999999999787,
          "durationTicks": 240,
          "midi": 65,
          "name": "F4",
          "ticks": 60480,
          "time": 25.200000000000003,
          "velocity": 1
        },
        {
          "duration": 0.09999999999999787,
          "durationTicks": 240,
          "midi": 72,
          "name": "C5",
          "ticks": 60480,
          "time": 25.200000000000003,
          "velocity": 1
        },
        {
          "duration": 0.09999999999999787,
          "durationTicks": 240,
          "midi": 70,
          "name": "A#4",
          "ticks": 60480,
          "time": 25.200000000000003,
          "velocity": 1
        },
        {
          "duration": 0.09999999999999787,
          "durationTicks": 240,
          "midi": 75,
          "name": "D#5",
          "ticks": 60960,
          "time": 25.400000000000002,
          "velocity": 1
        },
        {
          "duration": 0.09999999999999787,
          "durationTicks": 240,
          "midi": 63,
          "name": "D#4",
          "ticks": 60960,
          "time": 25.400000000000002,
          "velocity": 1
        },
        {
          "duration": 0.09999999999999787,
          "durationTicks": 240,
          "midi": 70,
          "name": "A#4",
          "ticks": 60960,
          "time": 25.400000000000002,
          "velocity": 1
        },
        {
          "duration": 0.10000000000000142,
          "durationTicks": 240,
          "midi": 72,
          "name": "C5",
          "ticks": 61440,
          "time": 25.6,
          "velocity": 1
        },
        {
          "duration": 0.10000000000000142,
          "durationTicks": 240,
          "midi": 65,
          "name": "F4",
          "ticks": 61440,
          "time": 25.6,
          "velocity": 1
        },
        {
          "duration": 0.10000000000000142,
          "durationTicks": 240,
          "midi": 77,
          "name": "F5",
          "ticks": 61440,
          "time": 25.6,
          "velocity": 1
        },
        {
          "duration": 0.10000000000000142,
          "durationTicks": 240,
          "midi": 68,
          "name": "G#4",
          "ticks": 61440,
          "time": 25.6,
          "velocity": 1
        },
        {
          "duration": 0.10000000000000142,
          "durationTicks": 240,
          "midi": 65,
          "name": "F4",
          "ticks": 61920,
          "time": 25.8,
          "velocity": 0.7401574803149606
        },
        {
          "duration": 0.10000000000000142,
          "durationTicks": 240,
          "midi": 72,
          "name": "C5",
          "ticks": 61920,
          "time": 25.8,
          "velocity": 0.7401574803149606
        },
        {
          "duration": 0.10000000000000142,
          "durationTicks": 240,
          "midi": 77,
          "name": "F5",
          "ticks": 61920,
          "time": 25.8,
          "velocity": 0.7401574803149606
        },
        {
          "duration": 0.09999999999999787,
          "durationTicks": 240,
          "midi": 72,
          "name": "C5",
          "ticks": 62160,
          "time": 25.900000000000002,
          "velocity": 1
        },
        {
          "duration": 0.09999999999999787,
          "durationTicks": 240,
          "midi": 65,
          "name": "F4",
          "ticks": 62160,
          "time": 25.900000000000002,
          "velocity": 1
        },
        {
          "duration": 0.09999999999999787,
          "durationTicks": 240,
          "midi": 77,
          "name": "F5",
          "ticks": 62160,
          "time": 25.900000000000002,
          "velocity": 1
        },
        {
          "duration": 0.09999999999999787,
          "durationTicks": 240,
          "midi": 67,
          "name": "G4",
          "ticks": 62160,
          "time": 25.900000000000002,
          "velocity": 1
        },
        {
          "duration": 0.10000000000000142,
          "durationTicks": 240,
          "midi": 65,
          "name": "F4",
          "ticks": 62640,
          "time": 26.1,
          "velocity": 0.7401574803149606
        },
        {
          "duration": 0.10000000000000142,
          "durationTicks": 240,
          "midi": 72,
          "name": "C5",
          "ticks": 62640,
          "time": 26.1,
          "velocity": 0.7401574803149606
        },
        {
          "duration": 0.10000000000000142,
          "durationTicks": 240,
          "midi": 77,
          "name": "F5",
          "ticks": 62640,
          "time": 26.1,
          "velocity": 0.7401574803149606
        },
        {
          "duration": 0.09999999999999787,
          "durationTicks": 240,
          "midi": 72,
          "name": "C5",
          "ticks": 62880,
          "time": 26.200000000000003,
          "velocity": 1
        },
        {
          "duration": 0.09999999999999787,
          "durationTicks": 240,
          "midi": 65,
          "name": "F4",
          "ticks": 62880,
          "time": 26.200000000000003,
          "velocity": 1
        },
        {
          "duration": 0.09999999999999787,
          "durationTicks": 240,
          "midi": 77,
          "name": "F5",
          "ticks": 62880,
          "time": 26.200000000000003,
          "velocity": 1
        },
        {
          "duration": 0.09999999999999787,
          "durationTicks": 240,
          "midi": 68,
          "name": "G#4",
          "ticks": 62880,
          "time": 26.200000000000003,
          "velocity": 1
        },
        {
          "duration": 0.09999999999999787,
          "durationTicks": 240,
          "midi": 65,
          "name": "F4",
          "ticks": 63360,
          "time": 26.400000000000002,
          "velocity": 0.7401574803149606
        },
        {
          "duration": 0.09999999999999787,
          "durationTicks": 240,
          "midi": 72,
          "name": "C5",
          "ticks": 63360,
          "time": 26.400000000000002,
          "velocity": 0.7401574803149606
        },
        {
          "duration": 0.09999999999999787,
          "durationTicks": 240,
          "midi": 77,
          "name": "F5",
          "ticks": 63360,
          "time": 26.400000000000002,
          "velocity": 0.7401574803149606
        },
        {
          "duration": 0.10000000000000142,
          "durationTicks": 240,
          "midi": 72,
          "name": "C5",
          "ticks": 63600,
          "time": 26.5,
          "velocity": 1
        },
        {
          "duration": 0.10000000000000142,
          "durationTicks": 240,
          "midi": 65,
          "name": "F4",
          "ticks": 63600,
          "time": 26.5,
          "velocity": 1
        },
        {
          "duration": 0.10000000000000142,
          "durationTicks": 240,
          "midi": 77,
          "name": "F5",
          "ticks": 63600,
          "time": 26.5,
          "velocity": 1
        },
        {
          "duration": 0.10000000000000142,
          "durationTicks": 240,
          "midi": 68,
          "name": "G#4",
          "ticks": 63600,
          "time": 26.5,
          "velocity": 1
        },
        {
          "duration": 0.09999999999999787,
          "durationTicks": 240,
          "midi": 65,
          "name": "F4",
          "ticks": 64080,
          "time": 26.700000000000003,
          "velocity": 0.7401574803149606
        },
        {
          "duration": 0.09999999999999787,
          "durationTicks": 240,
          "midi": 72,
          "name": "C5",
          "ticks": 64080,
          "time": 26.700000000000003,
          "velocity": 0.7401574803149606
        },
        {
          "duration": 0.09999999999999787,
          "durationTicks": 240,
          "midi": 77,
          "name": "F5",
          "ticks": 64080,
          "time": 26.700000000000003,
          "velocity": 0.7401574803149606
        },
        {
          "duration": 0.10000000000000142,
          "durationTicks": 240,
          "midi": 72,
          "name": "C5",
          "ticks": 64320,
          "time": 26.8,
          "velocity": 1
        },
        {
          "duration": 0.10000000000000142,
          "durationTicks": 240,
          "midi": 65,
          "name": "F4",
          "ticks": 64320,
          "time": 26.8,
          "velocity": 1
        },
        {
          "duration": 0.10000000000000142,
          "durationTicks": 240,
          "midi": 77,
          "name": "F5",
          "ticks": 64320,
          "time": 26.8,
          "velocity": 1
        },
        {
          "duration": 0.10000000000000142,
          "durationTicks": 240,
          "midi": 68,
          "name": "G#4",
          "ticks": 64320,
          "time": 26.8,
          "velocity": 1
        },
        {
          "duration": 0.10000000000000142,
          "durationTicks": 240,
          "midi": 73,
          "name": "C#5",
          "ticks": 64800,
          "time": 27,
          "velocity": 1
        },
        {
          "duration": 0.10000000000000142,
          "durationTicks": 240,
          "midi": 66,
          "name": "F#4",
          "ticks": 64800,
          "time": 27,
          "velocity": 1
        },
        {
          "duration": 0.10000000000000142,
          "durationTicks": 240,
          "midi": 78,
          "name": "F#5",
          "ticks": 64800,
          "time": 27,
          "velocity": 1
        },
        {
          "duration": 0.10000000000000142,
          "durationTicks": 240,
          "midi": 67,
          "name": "G4",
          "ticks": 64800,
          "time": 27,
          "velocity": 1
        },
        {
          "duration": 0.09999999999999787,
          "durationTicks": 240,
          "midi": 77,
          "name": "F5",
          "ticks": 65280,
          "time": 27.200000000000003,
          "velocity": 1
        },
        {
          "duration": 0.09999999999999787,
          "durationTicks": 240,
          "midi": 65,
          "name": "F4",
          "ticks": 65280,
          "time": 27.200000000000003,
          "velocity": 1
        },
        {
          "duration": 0.09999999999999787,
          "durationTicks": 240,
          "midi": 72,
          "name": "C5",
          "ticks": 65280,
          "time": 27.200000000000003,
          "velocity": 1
        },
        {
          "duration": 0.09999999999999787,
          "durationTicks": 240,
          "midi": 68,
          "name": "G#4",
          "ticks": 65280,
          "time": 27.200000000000003,
          "velocity": 1
        },
        {
          "duration": 0.09999999999999787,
          "durationTicks": 240,
          "midi": 65,
          "name": "F4",
          "ticks": 65760,
          "time": 27.400000000000002,
          "velocity": 0.7401574803149606
        },
        {
          "duration": 0.09999999999999787,
          "durationTicks": 240,
          "midi": 72,
          "name": "C5",
          "ticks": 65760,
          "time": 27.400000000000002,
          "velocity": 0.7401574803149606
        },
        {
          "duration": 0.09999999999999787,
          "durationTicks": 240,
          "midi": 77,
          "name": "F5",
          "ticks": 65760,
          "time": 27.400000000000002,
          "velocity": 0.7401574803149606
        },
        {
          "duration": 0.10000000000000142,
          "durationTicks": 240,
          "midi": 77,
          "name": "F5",
          "ticks": 66000,
          "time": 27.5,
          "velocity": 1
        },
        {
          "duration": 0.10000000000000142,
          "durationTicks": 240,
          "midi": 65,
          "name": "F4",
          "ticks": 66000,
          "time": 27.5,
          "velocity": 1
        },
        {
          "duration": 0.10000000000000142,
          "durationTicks": 240,
          "midi": 72,
          "name": "C5",
          "ticks": 66000,
          "time": 27.5,
          "velocity": 1
        },
        {
          "duration": 0.10000000000000142,
          "durationTicks": 240,
          "midi": 67,
          "name": "G4",
          "ticks": 66000,
          "time": 27.5,
          "velocity": 1
        },
        {
          "duration": 0.09999999999999787,
          "durationTicks": 240,
          "midi": 65,
          "name": "F4",
          "ticks": 66480,
          "time": 27.700000000000003,
          "velocity": 0.7401574803149606
        },
        {
          "duration": 0.09999999999999787,
          "durationTicks": 240,
          "midi": 72,
          "name": "C5",
          "ticks": 66480,
          "time": 27.700000000000003,
          "velocity": 0.7401574803149606
        },
        {
          "duration": 0.09999999999999787,
          "durationTicks": 240,
          "midi": 77,
          "name": "F5",
          "ticks": 66480,
          "time": 27.700000000000003,
          "velocity": 0.7401574803149606
        },
        {
          "duration": 0.10000000000000142,
          "durationTicks": 240,
          "midi": 77,
          "name": "F5",
          "ticks": 66720,
          "time": 27.8,
          "velocity": 1
        },
        {
          "duration": 0.10000000000000142,
          "durationTicks": 240,
          "midi": 65,
          "name": "F4",
          "ticks": 66720,
          "time": 27.8,
          "velocity": 1
        },
        {
          "duration": 0.10000000000000142,
          "durationTicks": 240,
          "midi": 72,
          "name": "C5",
          "ticks": 66720,
          "time": 27.8,
          "velocity": 1
        },
        {
          "duration": 0.10000000000000142,
          "durationTicks": 240,
          "midi": 68,
          "name": "G#4",
          "ticks": 66720,
          "time": 27.8,
          "velocity": 1
        },
        {
          "duration": 0.10000000000000142,
          "durationTicks": 240,
          "midi": 65,
          "name": "F4",
          "ticks": 67200,
          "time": 28,
          "velocity": 0.7401574803149606
        },
        {
          "duration": 0.10000000000000142,
          "durationTicks": 240,
          "midi": 72,
          "name": "C5",
          "ticks": 67200,
          "time": 28,
          "velocity": 0.7401574803149606
        },
        {
          "duration": 0.10000000000000142,
          "durationTicks": 240,
          "midi": 77,
          "name": "F5",
          "ticks": 67200,
          "time": 28,
          "velocity": 0.7401574803149606
        },
        {
          "duration": 0.10000000000000142,
          "durationTicks": 240,
          "midi": 77,
          "name": "F5",
          "ticks": 67440,
          "time": 28.1,
          "velocity": 1
        },
        {
          "duration": 0.10000000000000142,
          "durationTicks": 240,
          "midi": 65,
          "name": "F4",
          "ticks": 67440,
          "time": 28.1,
          "velocity": 1
        },
        {
          "duration": 0.10000000000000142,
          "durationTicks": 240,
          "midi": 72,
          "name": "C5",
          "ticks": 67440,
          "time": 28.1,
          "velocity": 1
        },
        {
          "duration": 0.10000000000000142,
          "durationTicks": 240,
          "midi": 68,
          "name": "G#4",
          "ticks": 67440,
          "time": 28.1,
          "velocity": 1
        },
        {
          "duration": 0.10000000000000142,
          "durationTicks": 240,
          "midi": 65,
          "name": "F4",
          "ticks": 67920,
          "time": 28.3,
          "velocity": 0.7401574803149606
        },
        {
          "duration": 0.10000000000000142,
          "durationTicks": 240,
          "midi": 72,
          "name": "C5",
          "ticks": 67920,
          "time": 28.3,
          "velocity": 0.7401574803149606
        },
        {
          "duration": 0.10000000000000142,
          "durationTicks": 240,
          "midi": 77,
          "name": "F5",
          "ticks": 67920,
          "time": 28.3,
          "velocity": 0.7401574803149606
        },
        {
          "duration": 0.09999999999999787,
          "durationTicks": 240,
          "midi": 77,
          "name": "F5",
          "ticks": 68160,
          "time": 28.400000000000002,
          "velocity": 1
        },
        {
          "duration": 0.09999999999999787,
          "durationTicks": 240,
          "midi": 65,
          "name": "F4",
          "ticks": 68160,
          "time": 28.400000000000002,
          "velocity": 1
        },
        {
          "duration": 0.09999999999999787,
          "durationTicks": 240,
          "midi": 72,
          "name": "C5",
          "ticks": 68160,
          "time": 28.400000000000002,
          "velocity": 1
        },
        {
          "duration": 0.09999999999999787,
          "durationTicks": 240,
          "midi": 68,
          "name": "G#4",
          "ticks": 68160,
          "time": 28.400000000000002,
          "velocity": 1
        },
        {
          "duration": 0.10000000000000142,
          "durationTicks": 240,
          "midi": 75,
          "name": "D#5",
          "ticks": 68640,
          "time": 28.6,
          "velocity": 1
        },
        {
          "duration": 0.10000000000000142,
          "durationTicks": 240,
          "midi": 63,
          "name": "D#4",
          "ticks": 68640,
          "time": 28.6,
          "velocity": 1
        },
        {
          "duration": 0.10000000000000142,
          "durationTicks": 240,
          "midi": 70,
          "name": "A#4",
          "ticks": 68640,
          "time": 28.6,
          "velocity": 1
        },
        {
          "duration": 0.10000000000000142,
          "durationTicks": 240,
          "midi": 67,
          "name": "G4",
          "ticks": 68640,
          "time": 28.6,
          "velocity": 1
        },
        {
          "duration": 0.10000000000000142,
          "durationTicks": 240,
          "midi": 72,
          "name": "C5",
          "ticks": 69120,
          "time": 28.8,
          "velocity": 1
        },
        {
          "duration": 0.10000000000000142,
          "durationTicks": 240,
          "midi": 65,
          "name": "F4",
          "ticks": 69120,
          "time": 28.8,
          "velocity": 1
        },
        {
          "duration": 0.10000000000000142,
          "durationTicks": 240,
          "midi": 77,
          "name": "F5",
          "ticks": 69120,
          "time": 28.8,
          "velocity": 1
        },
        {
          "duration": 0.10000000000000142,
          "durationTicks": 240,
          "midi": 68,
          "name": "G#4",
          "ticks": 69120,
          "time": 28.8,
          "velocity": 1
        },
        {
          "duration": 0.10000000000000142,
          "durationTicks": 240,
          "midi": 65,
          "name": "F4",
          "ticks": 69600,
          "time": 29,
          "velocity": 0.7401574803149606
        },
        {
          "duration": 0.10000000000000142,
          "durationTicks": 240,
          "midi": 72,
          "name": "C5",
          "ticks": 69600,
          "time": 29,
          "velocity": 0.7401574803149606
        },
        {
          "duration": 0.10000000000000142,
          "durationTicks": 240,
          "midi": 77,
          "name": "F5",
          "ticks": 69600,
          "time": 29,
          "velocity": 0.7401574803149606
        },
        {
          "duration": 0.10000000000000142,
          "durationTicks": 240,
          "midi": 72,
          "name": "C5",
          "ticks": 69840,
          "time": 29.1,
          "velocity": 1
        },
        {
          "duration": 0.10000000000000142,
          "durationTicks": 240,
          "midi": 65,
          "name": "F4",
          "ticks": 69840,
          "time": 29.1,
          "velocity": 1
        },
        {
          "duration": 0.10000000000000142,
          "durationTicks": 240,
          "midi": 77,
          "name": "F5",
          "ticks": 69840,
          "time": 29.1,
          "velocity": 1
        },
        {
          "duration": 0.10000000000000142,
          "durationTicks": 240,
          "midi": 67,
          "name": "G4",
          "ticks": 69840,
          "time": 29.1,
          "velocity": 1
        },
        {
          "duration": 0.10000000000000142,
          "durationTicks": 240,
          "midi": 65,
          "name": "F4",
          "ticks": 70320,
          "time": 29.3,
          "velocity": 0.7401574803149606
        },
        {
          "duration": 0.10000000000000142,
          "durationTicks": 240,
          "midi": 72,
          "name": "C5",
          "ticks": 70320,
          "time": 29.3,
          "velocity": 0.7401574803149606
        },
        {
          "duration": 0.10000000000000142,
          "durationTicks": 240,
          "midi": 77,
          "name": "F5",
          "ticks": 70320,
          "time": 29.3,
          "velocity": 0.7401574803149606
        },
        {
          "duration": 0.09999999999999787,
          "durationTicks": 240,
          "midi": 72,
          "name": "C5",
          "ticks": 70560,
          "time": 29.400000000000002,
          "velocity": 1
        },
        {
          "duration": 0.09999999999999787,
          "durationTicks": 240,
          "midi": 65,
          "name": "F4",
          "ticks": 70560,
          "time": 29.400000000000002,
          "velocity": 1
        },
        {
          "duration": 0.09999999999999787,
          "durationTicks": 240,
          "midi": 77,
          "name": "F5",
          "ticks": 70560,
          "time": 29.400000000000002,
          "velocity": 1
        },
        {
          "duration": 0.09999999999999787,
          "durationTicks": 240,
          "midi": 68,
          "name": "G#4",
          "ticks": 70560,
          "time": 29.400000000000002,
          "velocity": 1
        },
        {
          "duration": 0.10000000000000142,
          "durationTicks": 240,
          "midi": 65,
          "name": "F4",
          "ticks": 71040,
          "time": 29.6,
          "velocity": 0.7401574803149606
        },
        {
          "duration": 0.10000000000000142,
          "durationTicks": 240,
          "midi": 72,
          "name": "C5",
          "ticks": 71040,
          "time": 29.6,
          "velocity": 0.7401574803149606
        },
        {
          "duration": 0.10000000000000142,
          "durationTicks": 240,
          "midi": 77,
          "name": "F5",
          "ticks": 71040,
          "time": 29.6,
          "velocity": 0.7401574803149606
        },
        {
          "duration": 0.09999999999999787,
          "durationTicks": 240,
          "midi": 72,
          "name": "C5",
          "ticks": 71280,
          "time": 29.700000000000003,
          "velocity": 1
        },
        {
          "duration": 0.09999999999999787,
          "durationTicks": 240,
          "midi": 65,
          "name": "F4",
          "ticks": 71280,
          "time": 29.700000000000003,
          "velocity": 1
        },
        {
          "duration": 0.09999999999999787,
          "durationTicks": 240,
          "midi": 77,
          "name": "F5",
          "ticks": 71280,
          "time": 29.700000000000003,
          "velocity": 1
        },
        {
          "duration": 0.09999999999999787,
          "durationTicks": 240,
          "midi": 68,
          "name": "G#4",
          "ticks": 71280,
          "time": 29.700000000000003,
          "velocity": 1
        },
        {
          "duration": 0.09999999999999787,
          "durationTicks": 240,
          "midi": 65,
          "name": "F4",
          "ticks": 71760,
          "time": 29.900000000000002,
          "velocity": 0.7401574803149606
        },
        {
          "duration": 0.09999999999999787,
          "durationTicks": 240,
          "midi": 72,
          "name": "C5",
          "ticks": 71760,
          "time": 29.900000000000002,
          "velocity": 0.7401574803149606
        },
        {
          "duration": 0.09999999999999787,
          "durationTicks": 240,
          "midi": 77,
          "name": "F5",
          "ticks": 71760,
          "time": 29.900000000000002,
          "velocity": 0.7401574803149606
        },
        {
          "duration": 0.10000000000000142,
          "durationTicks": 240,
          "midi": 72,
          "name": "C5",
          "ticks": 72000,
          "time": 30,
          "velocity": 1
        },
        {
          "duration": 0.10000000000000142,
          "durationTicks": 240,
          "midi": 65,
          "name": "F4",
          "ticks": 72000,
          "time": 30,
          "velocity": 1
        },
        {
          "duration": 0.10000000000000142,
          "durationTicks": 240,
          "midi": 77,
          "name": "F5",
          "ticks": 72000,
          "time": 30,
          "velocity": 1
        },
        {
          "duration": 0.10000000000000142,
          "durationTicks": 240,
          "midi": 68,
          "name": "G#4",
          "ticks": 72000,
          "time": 30,
          "velocity": 1
        },
        {
          "duration": 0.09999999999999787,
          "durationTicks": 240,
          "midi": 73,
          "name": "C#5",
          "ticks": 72480,
          "time": 30.200000000000003,
          "velocity": 1
        },
        {
          "duration": 0.09999999999999787,
          "durationTicks": 240,
          "midi": 66,
          "name": "F#4",
          "ticks": 72480,
          "time": 30.200000000000003,
          "velocity": 1
        },
        {
          "duration": 0.09999999999999787,
          "durationTicks": 240,
          "midi": 78,
          "name": "F#5",
          "ticks": 72480,
          "time": 30.200000000000003,
          "velocity": 1
        },
        {
          "duration": 0.09999999999999787,
          "durationTicks": 240,
          "midi": 67,
          "name": "G4",
          "ticks": 72480,
          "time": 30.200000000000003,
          "velocity": 1
        },
        {
          "duration": 0.09999999999999787,
          "durationTicks": 240,
          "midi": 77,
          "name": "F5",
          "ticks": 72960,
          "time": 30.400000000000002,
          "velocity": 1
        },
        {
          "duration": 0.09999999999999787,
          "durationTicks": 240,
          "midi": 65,
          "name": "F4",
          "ticks": 72960,
          "time": 30.400000000000002,
          "velocity": 1
        },
        {
          "duration": 0.09999999999999787,
          "durationTicks": 240,
          "midi": 72,
          "name": "C5",
          "ticks": 72960,
          "time": 30.400000000000002,
          "velocity": 1
        },
        {
          "duration": 0.09999999999999787,
          "durationTicks": 240,
          "midi": 70,
          "name": "A#4",
          "ticks": 72960,
          "time": 30.400000000000002,
          "velocity": 1
        },
        {
          "duration": 0.10000000000000142,
          "durationTicks": 240,
          "midi": 65,
          "name": "F4",
          "ticks": 73440,
          "time": 30.6,
          "velocity": 0.7401574803149606
        },
        {
          "duration": 0.10000000000000142,
          "durationTicks": 240,
          "midi": 72,
          "name": "C5",
          "ticks": 73440,
          "time": 30.6,
          "velocity": 0.7401574803149606
        },
        {
          "duration": 0.10000000000000142,
          "durationTicks": 240,
          "midi": 77,
          "name": "F5",
          "ticks": 73440,
          "time": 30.6,
          "velocity": 0.7401574803149606
        },
        {
          "duration": 0.09999999999999787,
          "durationTicks": 240,
          "midi": 77,
          "name": "F5",
          "ticks": 73680,
          "time": 30.700000000000003,
          "velocity": 1
        },
        {
          "duration": 0.09999999999999787,
          "durationTicks": 240,
          "midi": 65,
          "name": "F4",
          "ticks": 73680,
          "time": 30.700000000000003,
          "velocity": 1
        },
        {
          "duration": 0.09999999999999787,
          "durationTicks": 240,
          "midi": 72,
          "name": "C5",
          "ticks": 73680,
          "time": 30.700000000000003,
          "velocity": 1
        },
        {
          "duration": 0.09999999999999787,
          "durationTicks": 240,
          "midi": 70,
          "name": "A#4",
          "ticks": 73680,
          "time": 30.700000000000003,
          "velocity": 1
        },
        {
          "duration": 0.09999999999999787,
          "durationTicks": 240,
          "midi": 65,
          "name": "F4",
          "ticks": 74160,
          "time": 30.900000000000002,
          "velocity": 0.7401574803149606
        },
        {
          "duration": 0.09999999999999787,
          "durationTicks": 240,
          "midi": 72,
          "name": "C5",
          "ticks": 74160,
          "time": 30.900000000000002,
          "velocity": 0.7401574803149606
        },
        {
          "duration": 0.09999999999999787,
          "durationTicks": 240,
          "midi": 77,
          "name": "F5",
          "ticks": 74160,
          "time": 30.900000000000002,
          "velocity": 0.7401574803149606
        },
        {
          "duration": 0.10000000000000142,
          "durationTicks": 240,
          "midi": 77,
          "name": "F5",
          "ticks": 74400,
          "time": 31,
          "velocity": 1
        },
        {
          "duration": 0.10000000000000142,
          "durationTicks": 240,
          "midi": 65,
          "name": "F4",
          "ticks": 74400,
          "time": 31,
          "velocity": 1
        },
        {
          "duration": 0.10000000000000142,
          "durationTicks": 240,
          "midi": 72,
          "name": "C5",
          "ticks": 74400,
          "time": 31,
          "velocity": 1
        },
        {
          "duration": 0.10000000000000142,
          "durationTicks": 240,
          "midi": 70,
          "name": "A#4",
          "ticks": 74400,
          "time": 31,
          "velocity": 1
        },
        {
          "duration": 0.09999999999999787,
          "durationTicks": 240,
          "midi": 65,
          "name": "F4",
          "ticks": 74880,
          "time": 31.200000000000003,
          "velocity": 0.7401574803149606
        },
        {
          "duration": 0.09999999999999787,
          "durationTicks": 240,
          "midi": 72,
          "name": "C5",
          "ticks": 74880,
          "time": 31.200000000000003,
          "velocity": 0.7401574803149606
        },
        {
          "duration": 0.09999999999999787,
          "durationTicks": 240,
          "midi": 77,
          "name": "F5",
          "ticks": 74880,
          "time": 31.200000000000003,
          "velocity": 0.7401574803149606
        },
        {
          "duration": 0.10000000000000142,
          "durationTicks": 240,
          "midi": 77,
          "name": "F5",
          "ticks": 75120,
          "time": 31.3,
          "velocity": 1
        },
        {
          "duration": 0.10000000000000142,
          "durationTicks": 240,
          "midi": 65,
          "name": "F4",
          "ticks": 75120,
          "time": 31.3,
          "velocity": 1
        },
        {
          "duration": 0.10000000000000142,
          "durationTicks": 240,
          "midi": 72,
          "name": "C5",
          "ticks": 75120,
          "time": 31.3,
          "velocity": 1
        },
        {
          "duration": 0.10000000000000142,
          "durationTicks": 240,
          "midi": 70,
          "name": "A#4",
          "ticks": 75120,
          "time": 31.3,
          "velocity": 1
        },
        {
          "duration": 0.10000000000000142,
          "durationTicks": 240,
          "midi": 65,
          "name": "F4",
          "ticks": 75600,
          "time": 31.5,
          "velocity": 0.7401574803149606
        },
        {
          "duration": 0.10000000000000142,
          "durationTicks": 240,
          "midi": 72,
          "name": "C5",
          "ticks": 75600,
          "time": 31.5,
          "velocity": 0.7401574803149606
        },
        {
          "duration": 0.10000000000000142,
          "durationTicks": 240,
          "midi": 77,
          "name": "F5",
          "ticks": 75600,
          "time": 31.5,
          "velocity": 0.7401574803149606
        },
        {
          "duration": 0.10000000000000142,
          "durationTicks": 240,
          "midi": 77,
          "name": "F5",
          "ticks": 75840,
          "time": 31.6,
          "velocity": 1
        },
        {
          "duration": 0.10000000000000142,
          "durationTicks": 240,
          "midi": 65,
          "name": "F4",
          "ticks": 75840,
          "time": 31.6,
          "velocity": 1
        },
        {
          "duration": 0.10000000000000142,
          "durationTicks": 240,
          "midi": 72,
          "name": "C5",
          "ticks": 75840,
          "time": 31.6,
          "velocity": 1
        },
        {
          "duration": 0.10000000000000142,
          "durationTicks": 240,
          "midi": 70,
          "name": "A#4",
          "ticks": 75840,
          "time": 31.6,
          "velocity": 1
        },
        {
          "duration": 0.10000000000000142,
          "durationTicks": 240,
          "midi": 75,
          "name": "D#5",
          "ticks": 76320,
          "time": 31.8,
          "velocity": 1
        },
        {
          "duration": 0.10000000000000142,
          "durationTicks": 240,
          "midi": 63,
          "name": "D#4",
          "ticks": 76320,
          "time": 31.8,
          "velocity": 1
        },
        {
          "duration": 0.10000000000000142,
          "durationTicks": 240,
          "midi": 70,
          "name": "A#4",
          "ticks": 76320,
          "time": 31.8,
          "velocity": 1
        },
        {
          "duration": 0.10000000000000142,
          "durationTicks": 240,
          "midi": 72,
          "name": "C5",
          "ticks": 76800,
          "time": 32,
          "velocity": 1
        },
        {
          "duration": 0.10000000000000142,
          "durationTicks": 240,
          "midi": 65,
          "name": "F4",
          "ticks": 76800,
          "time": 32,
          "velocity": 1
        },
        {
          "duration": 0.10000000000000142,
          "durationTicks": 240,
          "midi": 77,
          "name": "F5",
          "ticks": 76800,
          "time": 32,
          "velocity": 1
        },
        {
          "duration": 0.10000000000000142,
          "durationTicks": 240,
          "midi": 68,
          "name": "G#4",
          "ticks": 76800,
          "time": 32,
          "velocity": 1
        },
        {
          "duration": 0.10000000000000142,
          "durationTicks": 240,
          "midi": 65,
          "name": "F4",
          "ticks": 77280,
          "time": 32.2,
          "velocity": 0.7401574803149606
        },
        {
          "duration": 0.10000000000000142,
          "durationTicks": 240,
          "midi": 72,
          "name": "C5",
          "ticks": 77280,
          "time": 32.2,
          "velocity": 0.7401574803149606
        },
        {
          "duration": 0.10000000000000142,
          "durationTicks": 240,
          "midi": 77,
          "name": "F5",
          "ticks": 77280,
          "time": 32.2,
          "velocity": 0.7401574803149606
        },
        {
          "duration": 0.09999999999999432,
          "durationTicks": 240,
          "midi": 72,
          "name": "C5",
          "ticks": 77520,
          "time": 32.300000000000004,
          "velocity": 1
        },
        {
          "duration": 0.09999999999999432,
          "durationTicks": 240,
          "midi": 65,
          "name": "F4",
          "ticks": 77520,
          "time": 32.300000000000004,
          "velocity": 1
        },
        {
          "duration": 0.09999999999999432,
          "durationTicks": 240,
          "midi": 77,
          "name": "F5",
          "ticks": 77520,
          "time": 32.300000000000004,
          "velocity": 1
        },
        {
          "duration": 0.09999999999999432,
          "durationTicks": 240,
          "midi": 67,
          "name": "G4",
          "ticks": 77520,
          "time": 32.300000000000004,
          "velocity": 1
        },
        {
          "duration": 0.10000000000000142,
          "durationTicks": 240,
          "midi": 65,
          "name": "F4",
          "ticks": 78000,
          "time": 32.5,
          "velocity": 0.7401574803149606
        },
        {
          "duration": 0.10000000000000142,
          "durationTicks": 240,
          "midi": 72,
          "name": "C5",
          "ticks": 78000,
          "time": 32.5,
          "velocity": 0.7401574803149606
        },
        {
          "duration": 0.10000000000000142,
          "durationTicks": 240,
          "midi": 77,
          "name": "F5",
          "ticks": 78000,
          "time": 32.5,
          "velocity": 0.7401574803149606
        },
        {
          "duration": 0.10000000000000142,
          "durationTicks": 240,
          "midi": 72,
          "name": "C5",
          "ticks": 78240,
          "time": 32.6,
          "velocity": 1
        },
        {
          "duration": 0.10000000000000142,
          "durationTicks": 240,
          "midi": 65,
          "name": "F4",
          "ticks": 78240,
          "time": 32.6,
          "velocity": 1
        },
        {
          "duration": 0.10000000000000142,
          "durationTicks": 240,
          "midi": 77,
          "name": "F5",
          "ticks": 78240,
          "time": 32.6,
          "velocity": 1
        },
        {
          "duration": 0.10000000000000142,
          "durationTicks": 240,
          "midi": 68,
          "name": "G#4",
          "ticks": 78240,
          "time": 32.6,
          "velocity": 1
        },
        {
          "duration": 0.09999999999999432,
          "durationTicks": 240,
          "midi": 65,
          "name": "F4",
          "ticks": 78720,
          "time": 32.800000000000004,
          "velocity": 0.7401574803149606
        },
        {
          "duration": 0.09999999999999432,
          "durationTicks": 240,
          "midi": 72,
          "name": "C5",
          "ticks": 78720,
          "time": 32.800000000000004,
          "velocity": 0.7401574803149606
        },
        {
          "duration": 0.09999999999999432,
          "durationTicks": 240,
          "midi": 77,
          "name": "F5",
          "ticks": 78720,
          "time": 32.800000000000004,
          "velocity": 0.7401574803149606
        },
        {
          "duration": 0.10000000000000142,
          "durationTicks": 240,
          "midi": 72,
          "name": "C5",
          "ticks": 78960,
          "time": 32.9,
          "velocity": 1
        },
        {
          "duration": 0.10000000000000142,
          "durationTicks": 240,
          "midi": 65,
          "name": "F4",
          "ticks": 78960,
          "time": 32.9,
          "velocity": 1
        },
        {
          "duration": 0.10000000000000142,
          "durationTicks": 240,
          "midi": 77,
          "name": "F5",
          "ticks": 78960,
          "time": 32.9,
          "velocity": 1
        },
        {
          "duration": 0.10000000000000142,
          "durationTicks": 240,
          "midi": 68,
          "name": "G#4",
          "ticks": 78960,
          "time": 32.9,
          "velocity": 1
        },
        {
          "duration": 0.10000000000000142,
          "durationTicks": 240,
          "midi": 65,
          "name": "F4",
          "ticks": 79440,
          "time": 33.1,
          "velocity": 0.7401574803149606
        },
        {
          "duration": 0.10000000000000142,
          "durationTicks": 240,
          "midi": 72,
          "name": "C5",
          "ticks": 79440,
          "time": 33.1,
          "velocity": 0.7401574803149606
        },
        {
          "duration": 0.10000000000000142,
          "durationTicks": 240,
          "midi": 77,
          "name": "F5",
          "ticks": 79440,
          "time": 33.1,
          "velocity": 0.7401574803149606
        },
        {
          "duration": 0.10000000000000142,
          "durationTicks": 240,
          "midi": 72,
          "name": "C5",
          "ticks": 79680,
          "time": 33.2,
          "velocity": 1
        },
        {
          "duration": 0.10000000000000142,
          "durationTicks": 240,
          "midi": 65,
          "name": "F4",
          "ticks": 79680,
          "time": 33.2,
          "velocity": 1
        },
        {
          "duration": 0.10000000000000142,
          "durationTicks": 240,
          "midi": 77,
          "name": "F5",
          "ticks": 79680,
          "time": 33.2,
          "velocity": 1
        },
        {
          "duration": 0.10000000000000142,
          "durationTicks": 240,
          "midi": 68,
          "name": "G#4",
          "ticks": 79680,
          "time": 33.2,
          "velocity": 1
        },
        {
          "duration": 0.10000000000000142,
          "durationTicks": 240,
          "midi": 73,
          "name": "C#5",
          "ticks": 80160,
          "time": 33.4,
          "velocity": 1
        },
        {
          "duration": 0.10000000000000142,
          "durationTicks": 240,
          "midi": 66,
          "name": "F#4",
          "ticks": 80160,
          "time": 33.4,
          "velocity": 1
        },
        {
          "duration": 0.10000000000000142,
          "durationTicks": 240,
          "midi": 78,
          "name": "F#5",
          "ticks": 80160,
          "time": 33.4,
          "velocity": 1
        },
        {
          "duration": 0.10000000000000142,
          "durationTicks": 240,
          "midi": 67,
          "name": "G4",
          "ticks": 80160,
          "time": 33.4,
          "velocity": 1
        },
        {
          "duration": 0.10000000000000142,
          "durationTicks": 240,
          "midi": 77,
          "name": "F5",
          "ticks": 80640,
          "time": 33.6,
          "velocity": 1
        },
        {
          "duration": 0.10000000000000142,
          "durationTicks": 240,
          "midi": 65,
          "name": "F4",
          "ticks": 80640,
          "time": 33.6,
          "velocity": 1
        },
        {
          "duration": 0.10000000000000142,
          "durationTicks": 240,
          "midi": 72,
          "name": "C5",
          "ticks": 80640,
          "time": 33.6,
          "velocity": 1
        },
        {
          "duration": 0.10000000000000142,
          "durationTicks": 240,
          "midi": 68,
          "name": "G#4",
          "ticks": 80640,
          "time": 33.6,
          "velocity": 1
        },
        {
          "duration": 0.09999999999999432,
          "durationTicks": 240,
          "midi": 65,
          "name": "F4",
          "ticks": 81120,
          "time": 33.800000000000004,
          "velocity": 0.7401574803149606
        },
        {
          "duration": 0.09999999999999432,
          "durationTicks": 240,
          "midi": 72,
          "name": "C5",
          "ticks": 81120,
          "time": 33.800000000000004,
          "velocity": 0.7401574803149606
        },
        {
          "duration": 0.09999999999999432,
          "durationTicks": 240,
          "midi": 77,
          "name": "F5",
          "ticks": 81120,
          "time": 33.800000000000004,
          "velocity": 0.7401574803149606
        },
        {
          "duration": 0.10000000000000142,
          "durationTicks": 240,
          "midi": 77,
          "name": "F5",
          "ticks": 81360,
          "time": 33.9,
          "velocity": 1
        },
        {
          "duration": 0.10000000000000142,
          "durationTicks": 240,
          "midi": 65,
          "name": "F4",
          "ticks": 81360,
          "time": 33.9,
          "velocity": 1
        },
        {
          "duration": 0.10000000000000142,
          "durationTicks": 240,
          "midi": 72,
          "name": "C5",
          "ticks": 81360,
          "time": 33.9,
          "velocity": 1
        },
        {
          "duration": 0.10000000000000142,
          "durationTicks": 240,
          "midi": 67,
          "name": "G4",
          "ticks": 81360,
          "time": 33.9,
          "velocity": 1
        },
        {
          "duration": 0.10000000000000142,
          "durationTicks": 240,
          "midi": 65,
          "name": "F4",
          "ticks": 81840,
          "time": 34.1,
          "velocity": 0.7401574803149606
        },
        {
          "duration": 0.10000000000000142,
          "durationTicks": 240,
          "midi": 72,
          "name": "C5",
          "ticks": 81840,
          "time": 34.1,
          "velocity": 0.7401574803149606
        },
        {
          "duration": 0.10000000000000142,
          "durationTicks": 240,
          "midi": 77,
          "name": "F5",
          "ticks": 81840,
          "time": 34.1,
          "velocity": 0.7401574803149606
        },
        {
          "duration": 0.10000000000000142,
          "durationTicks": 240,
          "midi": 77,
          "name": "F5",
          "ticks": 82080,
          "time": 34.2,
          "velocity": 1
        },
        {
          "duration": 0.10000000000000142,
          "durationTicks": 240,
          "midi": 65,
          "name": "F4",
          "ticks": 82080,
          "time": 34.2,
          "velocity": 1
        },
        {
          "duration": 0.10000000000000142,
          "durationTicks": 240,
          "midi": 72,
          "name": "C5",
          "ticks": 82080,
          "time": 34.2,
          "velocity": 1
        },
        {
          "duration": 0.10000000000000142,
          "durationTicks": 240,
          "midi": 68,
          "name": "G#4",
          "ticks": 82080,
          "time": 34.2,
          "velocity": 1
        },
        {
          "duration": 0.10000000000000142,
          "durationTicks": 240,
          "midi": 65,
          "name": "F4",
          "ticks": 82560,
          "time": 34.4,
          "velocity": 0.7401574803149606
        },
        {
          "duration": 0.10000000000000142,
          "durationTicks": 240,
          "midi": 72,
          "name": "C5",
          "ticks": 82560,
          "time": 34.4,
          "velocity": 0.7401574803149606
        },
        {
          "duration": 0.10000000000000142,
          "durationTicks": 240,
          "midi": 77,
          "name": "F5",
          "ticks": 82560,
          "time": 34.4,
          "velocity": 0.7401574803149606
        },
        {
          "duration": 0.10000000000000142,
          "durationTicks": 240,
          "midi": 77,
          "name": "F5",
          "ticks": 82800,
          "time": 34.5,
          "velocity": 1
        },
        {
          "duration": 0.10000000000000142,
          "durationTicks": 240,
          "midi": 65,
          "name": "F4",
          "ticks": 82800,
          "time": 34.5,
          "velocity": 1
        },
        {
          "duration": 0.10000000000000142,
          "durationTicks": 240,
          "midi": 72,
          "name": "C5",
          "ticks": 82800,
          "time": 34.5,
          "velocity": 1
        },
        {
          "duration": 0.10000000000000142,
          "durationTicks": 240,
          "midi": 68,
          "name": "G#4",
          "ticks": 82800,
          "time": 34.5,
          "velocity": 1
        },
        {
          "duration": 0.10000000000000142,
          "durationTicks": 240,
          "midi": 65,
          "name": "F4",
          "ticks": 83280,
          "time": 34.7,
          "velocity": 0.7401574803149606
        },
        {
          "duration": 0.10000000000000142,
          "durationTicks": 240,
          "midi": 72,
          "name": "C5",
          "ticks": 83280,
          "time": 34.7,
          "velocity": 0.7401574803149606
        },
        {
          "duration": 0.10000000000000142,
          "durationTicks": 240,
          "midi": 77,
          "name": "F5",
          "ticks": 83280,
          "time": 34.7,
          "velocity": 0.7401574803149606
        },
        {
          "duration": 0.09999999999999432,
          "durationTicks": 240,
          "midi": 77,
          "name": "F5",
          "ticks": 83520,
          "time": 34.800000000000004,
          "velocity": 1
        },
        {
          "duration": 0.09999999999999432,
          "durationTicks": 240,
          "midi": 65,
          "name": "F4",
          "ticks": 83520,
          "time": 34.800000000000004,
          "velocity": 1
        },
        {
          "duration": 0.09999999999999432,
          "durationTicks": 240,
          "midi": 72,
          "name": "C5",
          "ticks": 83520,
          "time": 34.800000000000004,
          "velocity": 1
        },
        {
          "duration": 0.09999999999999432,
          "durationTicks": 240,
          "midi": 68,
          "name": "G#4",
          "ticks": 83520,
          "time": 34.800000000000004,
          "velocity": 1
        },
        {
          "duration": 0.10000000000000142,
          "durationTicks": 240,
          "midi": 75,
          "name": "D#5",
          "ticks": 84000,
          "time": 35,
          "velocity": 1
        },
        {
          "duration": 0.10000000000000142,
          "durationTicks": 240,
          "midi": 63,
          "name": "D#4",
          "ticks": 84000,
          "time": 35,
          "velocity": 1
        },
        {
          "duration": 0.10000000000000142,
          "durationTicks": 240,
          "midi": 70,
          "name": "A#4",
          "ticks": 84000,
          "time": 35,
          "velocity": 1
        },
        {
          "duration": 0.10000000000000142,
          "durationTicks": 240,
          "midi": 67,
          "name": "G4",
          "ticks": 84000,
          "time": 35,
          "velocity": 1
        },
        {
          "duration": 0.10000000000000142,
          "durationTicks": 240,
          "midi": 72,
          "name": "C5",
          "ticks": 84480,
          "time": 35.2,
          "velocity": 1
        },
        {
          "duration": 0.10000000000000142,
          "durationTicks": 240,
          "midi": 65,
          "name": "F4",
          "ticks": 84480,
          "time": 35.2,
          "velocity": 1
        },
        {
          "duration": 0.10000000000000142,
          "durationTicks": 240,
          "midi": 77,
          "name": "F5",
          "ticks": 84480,
          "time": 35.2,
          "velocity": 1
        },
        {
          "duration": 0.10000000000000142,
          "durationTicks": 240,
          "midi": 68,
          "name": "G#4",
          "ticks": 84480,
          "time": 35.2,
          "velocity": 1
        },
        {
          "duration": 0.10000000000000142,
          "durationTicks": 240,
          "midi": 65,
          "name": "F4",
          "ticks": 84960,
          "time": 35.4,
          "velocity": 0.7401574803149606
        },
        {
          "duration": 0.10000000000000142,
          "durationTicks": 240,
          "midi": 72,
          "name": "C5",
          "ticks": 84960,
          "time": 35.4,
          "velocity": 0.7401574803149606
        },
        {
          "duration": 0.10000000000000142,
          "durationTicks": 240,
          "midi": 77,
          "name": "F5",
          "ticks": 84960,
          "time": 35.4,
          "velocity": 0.7401574803149606
        },
        {
          "duration": 0.10000000000000142,
          "durationTicks": 240,
          "midi": 72,
          "name": "C5",
          "ticks": 85200,
          "time": 35.5,
          "velocity": 1
        },
        {
          "duration": 0.10000000000000142,
          "durationTicks": 240,
          "midi": 65,
          "name": "F4",
          "ticks": 85200,
          "time": 35.5,
          "velocity": 1
        },
        {
          "duration": 0.10000000000000142,
          "durationTicks": 240,
          "midi": 77,
          "name": "F5",
          "ticks": 85200,
          "time": 35.5,
          "velocity": 1
        },
        {
          "duration": 0.10000000000000142,
          "durationTicks": 240,
          "midi": 67,
          "name": "G4",
          "ticks": 85200,
          "time": 35.5,
          "velocity": 1
        },
        {
          "duration": 0.10000000000000142,
          "durationTicks": 240,
          "midi": 65,
          "name": "F4",
          "ticks": 85680,
          "time": 35.7,
          "velocity": 0.7401574803149606
        },
        {
          "duration": 0.10000000000000142,
          "durationTicks": 240,
          "midi": 72,
          "name": "C5",
          "ticks": 85680,
          "time": 35.7,
          "velocity": 0.7401574803149606
        },
        {
          "duration": 0.10000000000000142,
          "durationTicks": 240,
          "midi": 77,
          "name": "F5",
          "ticks": 85680,
          "time": 35.7,
          "velocity": 0.7401574803149606
        },
        {
          "duration": 0.09999999999999432,
          "durationTicks": 240,
          "midi": 72,
          "name": "C5",
          "ticks": 85920,
          "time": 35.800000000000004,
          "velocity": 1
        },
        {
          "duration": 0.09999999999999432,
          "durationTicks": 240,
          "midi": 65,
          "name": "F4",
          "ticks": 85920,
          "time": 35.800000000000004,
          "velocity": 1
        },
        {
          "duration": 0.09999999999999432,
          "durationTicks": 240,
          "midi": 77,
          "name": "F5",
          "ticks": 85920,
          "time": 35.800000000000004,
          "velocity": 1
        },
        {
          "duration": 0.09999999999999432,
          "durationTicks": 240,
          "midi": 68,
          "name": "G#4",
          "ticks": 85920,
          "time": 35.800000000000004,
          "velocity": 1
        },
        {
          "duration": 0.10000000000000142,
          "durationTicks": 240,
          "midi": 65,
          "name": "F4",
          "ticks": 86400,
          "time": 36,
          "velocity": 0.7401574803149606
        },
        {
          "duration": 0.10000000000000142,
          "durationTicks": 240,
          "midi": 72,
          "name": "C5",
          "ticks": 86400,
          "time": 36,
          "velocity": 0.7401574803149606
        },
        {
          "duration": 0.10000000000000142,
          "durationTicks": 240,
          "midi": 77,
          "name": "F5",
          "ticks": 86400,
          "time": 36,
          "velocity": 0.7401574803149606
        },
        {
          "duration": 0.10000000000000142,
          "durationTicks": 240,
          "midi": 72,
          "name": "C5",
          "ticks": 86640,
          "time": 36.1,
          "velocity": 1
        },
        {
          "duration": 0.10000000000000142,
          "durationTicks": 240,
          "midi": 65,
          "name": "F4",
          "ticks": 86640,
          "time": 36.1,
          "velocity": 1
        },
        {
          "duration": 0.10000000000000142,
          "durationTicks": 240,
          "midi": 77,
          "name": "F5",
          "ticks": 86640,
          "time": 36.1,
          "velocity": 1
        },
        {
          "duration": 0.10000000000000142,
          "durationTicks": 240,
          "midi": 68,
          "name": "G#4",
          "ticks": 86640,
          "time": 36.1,
          "velocity": 1
        },
        {
          "duration": 0.09999999999999432,
          "durationTicks": 240,
          "midi": 65,
          "name": "F4",
          "ticks": 87120,
          "time": 36.300000000000004,
          "velocity": 0.7401574803149606
        },
        {
          "duration": 0.09999999999999432,
          "durationTicks": 240,
          "midi": 72,
          "name": "C5",
          "ticks": 87120,
          "time": 36.300000000000004,
          "velocity": 0.7401574803149606
        },
        {
          "duration": 0.09999999999999432,
          "durationTicks": 240,
          "midi": 77,
          "name": "F5",
          "ticks": 87120,
          "time": 36.300000000000004,
          "velocity": 0.7401574803149606
        },
        {
          "duration": 0.10000000000000142,
          "durationTicks": 240,
          "midi": 72,
          "name": "C5",
          "ticks": 87360,
          "time": 36.4,
          "velocity": 1
        },
        {
          "duration": 0.10000000000000142,
          "durationTicks": 240,
          "midi": 65,
          "name": "F4",
          "ticks": 87360,
          "time": 36.4,
          "velocity": 1
        },
        {
          "duration": 0.10000000000000142,
          "durationTicks": 240,
          "midi": 77,
          "name": "F5",
          "ticks": 87360,
          "time": 36.4,
          "velocity": 1
        },
        {
          "duration": 0.10000000000000142,
          "durationTicks": 240,
          "midi": 68,
          "name": "G#4",
          "ticks": 87360,
          "time": 36.4,
          "velocity": 1
        },
        {
          "duration": 0.10000000000000142,
          "durationTicks": 240,
          "midi": 73,
          "name": "C#5",
          "ticks": 87840,
          "time": 36.6,
          "velocity": 1
        },
        {
          "duration": 0.10000000000000142,
          "durationTicks": 240,
          "midi": 66,
          "name": "F#4",
          "ticks": 87840,
          "time": 36.6,
          "velocity": 1
        },
        {
          "duration": 0.10000000000000142,
          "durationTicks": 240,
          "midi": 78,
          "name": "F#5",
          "ticks": 87840,
          "time": 36.6,
          "velocity": 1
        },
        {
          "duration": 0.10000000000000142,
          "durationTicks": 240,
          "midi": 67,
          "name": "G4",
          "ticks": 87840,
          "time": 36.6,
          "velocity": 1
        },
        {
          "duration": 0.09999999999999432,
          "durationTicks": 240,
          "midi": 77,
          "name": "F5",
          "ticks": 88320,
          "time": 36.800000000000004,
          "velocity": 1
        },
        {
          "duration": 0.09999999999999432,
          "durationTicks": 240,
          "midi": 65,
          "name": "F4",
          "ticks": 88320,
          "time": 36.800000000000004,
          "velocity": 1
        },
        {
          "duration": 0.09999999999999432,
          "durationTicks": 240,
          "midi": 72,
          "name": "C5",
          "ticks": 88320,
          "time": 36.800000000000004,
          "velocity": 1
        },
        {
          "duration": 0.09999999999999432,
          "durationTicks": 240,
          "midi": 70,
          "name": "A#4",
          "ticks": 88320,
          "time": 36.800000000000004,
          "velocity": 1
        },
        {
          "duration": 0.10000000000000142,
          "durationTicks": 240,
          "midi": 65,
          "name": "F4",
          "ticks": 88800,
          "time": 37,
          "velocity": 0.7401574803149606
        },
        {
          "duration": 0.10000000000000142,
          "durationTicks": 240,
          "midi": 72,
          "name": "C5",
          "ticks": 88800,
          "time": 37,
          "velocity": 0.7401574803149606
        },
        {
          "duration": 0.10000000000000142,
          "durationTicks": 240,
          "midi": 77,
          "name": "F5",
          "ticks": 88800,
          "time": 37,
          "velocity": 0.7401574803149606
        },
        {
          "duration": 0.10000000000000142,
          "durationTicks": 240,
          "midi": 77,
          "name": "F5",
          "ticks": 89040,
          "time": 37.1,
          "velocity": 1
        },
        {
          "duration": 0.10000000000000142,
          "durationTicks": 240,
          "midi": 65,
          "name": "F4",
          "ticks": 89040,
          "time": 37.1,
          "velocity": 1
        },
        {
          "duration": 0.10000000000000142,
          "durationTicks": 240,
          "midi": 72,
          "name": "C5",
          "ticks": 89040,
          "time": 37.1,
          "velocity": 1
        },
        {
          "duration": 0.10000000000000142,
          "durationTicks": 240,
          "midi": 70,
          "name": "A#4",
          "ticks": 89040,
          "time": 37.1,
          "velocity": 1
        },
        {
          "duration": 0.09999999999999432,
          "durationTicks": 240,
          "midi": 65,
          "name": "F4",
          "ticks": 89520,
          "time": 37.300000000000004,
          "velocity": 0.7401574803149606
        },
        {
          "duration": 0.09999999999999432,
          "durationTicks": 240,
          "midi": 72,
          "name": "C5",
          "ticks": 89520,
          "time": 37.300000000000004,
          "velocity": 0.7401574803149606
        },
        {
          "duration": 0.09999999999999432,
          "durationTicks": 240,
          "midi": 77,
          "name": "F5",
          "ticks": 89520,
          "time": 37.300000000000004,
          "velocity": 0.7401574803149606
        },
        {
          "duration": 0.10000000000000142,
          "durationTicks": 240,
          "midi": 77,
          "name": "F5",
          "ticks": 89760,
          "time": 37.4,
          "velocity": 1
        },
        {
          "duration": 0.10000000000000142,
          "durationTicks": 240,
          "midi": 65,
          "name": "F4",
          "ticks": 89760,
          "time": 37.4,
          "velocity": 1
        },
        {
          "duration": 0.10000000000000142,
          "durationTicks": 240,
          "midi": 72,
          "name": "C5",
          "ticks": 89760,
          "time": 37.4,
          "velocity": 1
        },
        {
          "duration": 0.10000000000000142,
          "durationTicks": 240,
          "midi": 70,
          "name": "A#4",
          "ticks": 89760,
          "time": 37.4,
          "velocity": 1
        },
        {
          "duration": 0.10000000000000142,
          "durationTicks": 240,
          "midi": 65,
          "name": "F4",
          "ticks": 90240,
          "time": 37.6,
          "velocity": 0.7401574803149606
        },
        {
          "duration": 0.10000000000000142,
          "durationTicks": 240,
          "midi": 72,
          "name": "C5",
          "ticks": 90240,
          "time": 37.6,
          "velocity": 0.7401574803149606
        },
        {
          "duration": 0.10000000000000142,
          "durationTicks": 240,
          "midi": 77,
          "name": "F5",
          "ticks": 90240,
          "time": 37.6,
          "velocity": 0.7401574803149606
        },
        {
          "duration": 0.10000000000000142,
          "durationTicks": 240,
          "midi": 77,
          "name": "F5",
          "ticks": 90480,
          "time": 37.7,
          "velocity": 1
        },
        {
          "duration": 0.10000000000000142,
          "durationTicks": 240,
          "midi": 65,
          "name": "F4",
          "ticks": 90480,
          "time": 37.7,
          "velocity": 1
        },
        {
          "duration": 0.10000000000000142,
          "durationTicks": 240,
          "midi": 72,
          "name": "C5",
          "ticks": 90480,
          "time": 37.7,
          "velocity": 1
        },
        {
          "duration": 0.10000000000000142,
          "durationTicks": 240,
          "midi": 70,
          "name": "A#4",
          "ticks": 90480,
          "time": 37.7,
          "velocity": 1
        },
        {
          "duration": 0.10000000000000142,
          "durationTicks": 240,
          "midi": 65,
          "name": "F4",
          "ticks": 90960,
          "time": 37.9,
          "velocity": 0.7401574803149606
        },
        {
          "duration": 0.10000000000000142,
          "durationTicks": 240,
          "midi": 72,
          "name": "C5",
          "ticks": 90960,
          "time": 37.9,
          "velocity": 0.7401574803149606
        },
        {
          "duration": 0.10000000000000142,
          "durationTicks": 240,
          "midi": 77,
          "name": "F5",
          "ticks": 90960,
          "time": 37.9,
          "velocity": 0.7401574803149606
        },
        {
          "duration": 0.10000000000000142,
          "durationTicks": 240,
          "midi": 77,
          "name": "F5",
          "ticks": 91200,
          "time": 38,
          "velocity": 1
        },
        {
          "duration": 0.10000000000000142,
          "durationTicks": 240,
          "midi": 65,
          "name": "F4",
          "ticks": 91200,
          "time": 38,
          "velocity": 1
        },
        {
          "duration": 0.10000000000000142,
          "durationTicks": 240,
          "midi": 72,
          "name": "C5",
          "ticks": 91200,
          "time": 38,
          "velocity": 1
        },
        {
          "duration": 0.10000000000000142,
          "durationTicks": 240,
          "midi": 70,
          "name": "A#4",
          "ticks": 91200,
          "time": 38,
          "velocity": 1
        },
        {
          "duration": 0.10000000000000142,
          "durationTicks": 240,
          "midi": 75,
          "name": "D#5",
          "ticks": 91680,
          "time": 38.2,
          "velocity": 1
        },
        {
          "duration": 0.10000000000000142,
          "durationTicks": 240,
          "midi": 63,
          "name": "D#4",
          "ticks": 91680,
          "time": 38.2,
          "velocity": 1
        },
        {
          "duration": 0.10000000000000142,
          "durationTicks": 240,
          "midi": 70,
          "name": "A#4",
          "ticks": 91680,
          "time": 38.2,
          "velocity": 1
        },
        {
          "duration": 0.09999999999999432,
          "durationTicks": 240,
          "midi": 72,
          "name": "C5",
          "ticks": 92160,
          "time": 38.400000000000006,
          "velocity": 1
        },
        {
          "duration": 0.09999999999999432,
          "durationTicks": 240,
          "midi": 65,
          "name": "F4",
          "ticks": 92160,
          "time": 38.400000000000006,
          "velocity": 1
        },
        {
          "duration": 0.09999999999999432,
          "durationTicks": 240,
          "midi": 77,
          "name": "F5",
          "ticks": 92160,
          "time": 38.400000000000006,
          "velocity": 1
        },
        {
          "duration": 0.09999999999999432,
          "durationTicks": 240,
          "midi": 68,
          "name": "G#4",
          "ticks": 92160,
          "time": 38.400000000000006,
          "velocity": 1
        },
        {
          "duration": 0.10000000000000142,
          "durationTicks": 240,
          "midi": 65,
          "name": "F4",
          "ticks": 92640,
          "time": 38.6,
          "velocity": 0.7401574803149606
        },
        {
          "duration": 0.10000000000000142,
          "durationTicks": 240,
          "midi": 72,
          "name": "C5",
          "ticks": 92640,
          "time": 38.6,
          "velocity": 0.7401574803149606
        },
        {
          "duration": 0.10000000000000142,
          "durationTicks": 240,
          "midi": 77,
          "name": "F5",
          "ticks": 92640,
          "time": 38.6,
          "velocity": 0.7401574803149606
        },
        {
          "duration": 0.10000000000000142,
          "durationTicks": 240,
          "midi": 72,
          "name": "C5",
          "ticks": 92880,
          "time": 38.7,
          "velocity": 1
        },
        {
          "duration": 0.10000000000000142,
          "durationTicks": 240,
          "midi": 65,
          "name": "F4",
          "ticks": 92880,
          "time": 38.7,
          "velocity": 1
        },
        {
          "duration": 0.10000000000000142,
          "durationTicks": 240,
          "midi": 77,
          "name": "F5",
          "ticks": 92880,
          "time": 38.7,
          "velocity": 1
        },
        {
          "duration": 0.10000000000000142,
          "durationTicks": 240,
          "midi": 67,
          "name": "G4",
          "ticks": 92880,
          "time": 38.7,
          "velocity": 1
        },
        {
          "duration": 0.09999999999999432,
          "durationTicks": 240,
          "midi": 65,
          "name": "F4",
          "ticks": 93360,
          "time": 38.900000000000006,
          "velocity": 0.7401574803149606
        },
        {
          "duration": 0.09999999999999432,
          "durationTicks": 240,
          "midi": 72,
          "name": "C5",
          "ticks": 93360,
          "time": 38.900000000000006,
          "velocity": 0.7401574803149606
        },
        {
          "duration": 0.09999999999999432,
          "durationTicks": 240,
          "midi": 77,
          "name": "F5",
          "ticks": 93360,
          "time": 38.900000000000006,
          "velocity": 0.7401574803149606
        },
        {
          "duration": 0.10000000000000142,
          "durationTicks": 240,
          "midi": 72,
          "name": "C5",
          "ticks": 93600,
          "time": 39,
          "velocity": 1
        },
        {
          "duration": 0.10000000000000142,
          "durationTicks": 240,
          "midi": 65,
          "name": "F4",
          "ticks": 93600,
          "time": 39,
          "velocity": 1
        },
        {
          "duration": 0.10000000000000142,
          "durationTicks": 240,
          "midi": 77,
          "name": "F5",
          "ticks": 93600,
          "time": 39,
          "velocity": 1
        },
        {
          "duration": 0.10000000000000142,
          "durationTicks": 240,
          "midi": 68,
          "name": "G#4",
          "ticks": 93600,
          "time": 39,
          "velocity": 1
        },
        {
          "duration": 0.10000000000000142,
          "durationTicks": 240,
          "midi": 65,
          "name": "F4",
          "ticks": 94080,
          "time": 39.2,
          "velocity": 0.7401574803149606
        },
        {
          "duration": 0.10000000000000142,
          "durationTicks": 240,
          "midi": 72,
          "name": "C5",
          "ticks": 94080,
          "time": 39.2,
          "velocity": 0.7401574803149606
        },
        {
          "duration": 0.10000000000000142,
          "durationTicks": 240,
          "midi": 77,
          "name": "F5",
          "ticks": 94080,
          "time": 39.2,
          "velocity": 0.7401574803149606
        },
        {
          "duration": 0.10000000000000142,
          "durationTicks": 240,
          "midi": 72,
          "name": "C5",
          "ticks": 94320,
          "time": 39.300000000000004,
          "velocity": 1
        },
        {
          "duration": 0.10000000000000142,
          "durationTicks": 240,
          "midi": 65,
          "name": "F4",
          "ticks": 94320,
          "time": 39.300000000000004,
          "velocity": 1
        },
        {
          "duration": 0.10000000000000142,
          "durationTicks": 240,
          "midi": 77,
          "name": "F5",
          "ticks": 94320,
          "time": 39.300000000000004,
          "velocity": 1
        },
        {
          "duration": 0.10000000000000142,
          "durationTicks": 240,
          "midi": 68,
          "name": "G#4",
          "ticks": 94320,
          "time": 39.300000000000004,
          "velocity": 1
        },
        {
          "duration": 0.10000000000000142,
          "durationTicks": 240,
          "midi": 65,
          "name": "F4",
          "ticks": 94800,
          "time": 39.5,
          "velocity": 0.7401574803149606
        },
        {
          "duration": 0.10000000000000142,
          "durationTicks": 240,
          "midi": 72,
          "name": "C5",
          "ticks": 94800,
          "time": 39.5,
          "velocity": 0.7401574803149606
        },
        {
          "duration": 0.10000000000000142,
          "durationTicks": 240,
          "midi": 77,
          "name": "F5",
          "ticks": 94800,
          "time": 39.5,
          "velocity": 0.7401574803149606
        },
        {
          "duration": 0.10000000000000142,
          "durationTicks": 240,
          "midi": 72,
          "name": "C5",
          "ticks": 95040,
          "time": 39.6,
          "velocity": 1
        },
        {
          "duration": 0.10000000000000142,
          "durationTicks": 240,
          "midi": 65,
          "name": "F4",
          "ticks": 95040,
          "time": 39.6,
          "velocity": 1
        },
        {
          "duration": 0.10000000000000142,
          "durationTicks": 240,
          "midi": 77,
          "name": "F5",
          "ticks": 95040,
          "time": 39.6,
          "velocity": 1
        },
        {
          "duration": 0.10000000000000142,
          "durationTicks": 240,
          "midi": 68,
          "name": "G#4",
          "ticks": 95040,
          "time": 39.6,
          "velocity": 1
        },
        {
          "duration": 0.10000000000000142,
          "durationTicks": 240,
          "midi": 73,
          "name": "C#5",
          "ticks": 95520,
          "time": 39.800000000000004,
          "velocity": 1
        },
        {
          "duration": 0.10000000000000142,
          "durationTicks": 240,
          "midi": 66,
          "name": "F#4",
          "ticks": 95520,
          "time": 39.800000000000004,
          "velocity": 1
        },
        {
          "duration": 0.10000000000000142,
          "durationTicks": 240,
          "midi": 78,
          "name": "F#5",
          "ticks": 95520,
          "time": 39.800000000000004,
          "velocity": 1
        },
        {
          "duration": 0.10000000000000142,
          "durationTicks": 240,
          "midi": 67,
          "name": "G4",
          "ticks": 95520,
          "time": 39.800000000000004,
          "velocity": 1
        },
        {
          "duration": 0.10000000000000142,
          "durationTicks": 240,
          "midi": 77,
          "name": "F5",
          "ticks": 96000,
          "time": 40,
          "velocity": 1
        },
        {
          "duration": 0.10000000000000142,
          "durationTicks": 240,
          "midi": 65,
          "name": "F4",
          "ticks": 96000,
          "time": 40,
          "velocity": 1
        },
        {
          "duration": 0.10000000000000142,
          "durationTicks": 240,
          "midi": 72,
          "name": "C5",
          "ticks": 96000,
          "time": 40,
          "velocity": 1
        },
        {
          "duration": 0.10000000000000142,
          "durationTicks": 240,
          "midi": 70,
          "name": "A#4",
          "ticks": 96000,
          "time": 40,
          "velocity": 1
        },
        {
          "duration": 0.10000000000000142,
          "durationTicks": 240,
          "midi": 65,
          "name": "F4",
          "ticks": 96480,
          "time": 40.2,
          "velocity": 0.7401574803149606
        },
        {
          "duration": 0.10000000000000142,
          "durationTicks": 240,
          "midi": 72,
          "name": "C5",
          "ticks": 96480,
          "time": 40.2,
          "velocity": 0.7401574803149606
        },
        {
          "duration": 0.10000000000000142,
          "durationTicks": 240,
          "midi": 77,
          "name": "F5",
          "ticks": 96480,
          "time": 40.2,
          "velocity": 0.7401574803149606
        },
        {
          "duration": 0.10000000000000142,
          "durationTicks": 240,
          "midi": 77,
          "name": "F5",
          "ticks": 96720,
          "time": 40.300000000000004,
          "velocity": 1
        },
        {
          "duration": 0.10000000000000142,
          "durationTicks": 240,
          "midi": 65,
          "name": "F4",
          "ticks": 96720,
          "time": 40.300000000000004,
          "velocity": 1
        },
        {
          "duration": 0.10000000000000142,
          "durationTicks": 240,
          "midi": 72,
          "name": "C5",
          "ticks": 96720,
          "time": 40.300000000000004,
          "velocity": 1
        },
        {
          "duration": 0.10000000000000142,
          "durationTicks": 240,
          "midi": 70,
          "name": "A#4",
          "ticks": 96720,
          "time": 40.300000000000004,
          "velocity": 1
        },
        {
          "duration": 0.10000000000000142,
          "durationTicks": 240,
          "midi": 65,
          "name": "F4",
          "ticks": 97200,
          "time": 40.5,
          "velocity": 0.7401574803149606
        },
        {
          "duration": 0.10000000000000142,
          "durationTicks": 240,
          "midi": 72,
          "name": "C5",
          "ticks": 97200,
          "time": 40.5,
          "velocity": 0.7401574803149606
        },
        {
          "duration": 0.10000000000000142,
          "durationTicks": 240,
          "midi": 77,
          "name": "F5",
          "ticks": 97200,
          "time": 40.5,
          "velocity": 0.7401574803149606
        },
        {
          "duration": 0.10000000000000142,
          "durationTicks": 240,
          "midi": 77,
          "name": "F5",
          "ticks": 97440,
          "time": 40.6,
          "velocity": 1
        },
        {
          "duration": 0.10000000000000142,
          "durationTicks": 240,
          "midi": 65,
          "name": "F4",
          "ticks": 97440,
          "time": 40.6,
          "velocity": 1
        },
        {
          "duration": 0.10000000000000142,
          "durationTicks": 240,
          "midi": 72,
          "name": "C5",
          "ticks": 97440,
          "time": 40.6,
          "velocity": 1
        },
        {
          "duration": 0.10000000000000142,
          "durationTicks": 240,
          "midi": 70,
          "name": "A#4",
          "ticks": 97440,
          "time": 40.6,
          "velocity": 1
        },
        {
          "duration": 0.10000000000000142,
          "durationTicks": 240,
          "midi": 65,
          "name": "F4",
          "ticks": 97920,
          "time": 40.800000000000004,
          "velocity": 0.7401574803149606
        },
        {
          "duration": 0.10000000000000142,
          "durationTicks": 240,
          "midi": 72,
          "name": "C5",
          "ticks": 97920,
          "time": 40.800000000000004,
          "velocity": 0.7401574803149606
        },
        {
          "duration": 0.10000000000000142,
          "durationTicks": 240,
          "midi": 77,
          "name": "F5",
          "ticks": 97920,
          "time": 40.800000000000004,
          "velocity": 0.7401574803149606
        },
        {
          "duration": 0.09999999999999432,
          "durationTicks": 240,
          "midi": 77,
          "name": "F5",
          "ticks": 98160,
          "time": 40.900000000000006,
          "velocity": 1
        },
        {
          "duration": 0.09999999999999432,
          "durationTicks": 240,
          "midi": 65,
          "name": "F4",
          "ticks": 98160,
          "time": 40.900000000000006,
          "velocity": 1
        },
        {
          "duration": 0.09999999999999432,
          "durationTicks": 240,
          "midi": 72,
          "name": "C5",
          "ticks": 98160,
          "time": 40.900000000000006,
          "velocity": 1
        },
        {
          "duration": 0.09999999999999432,
          "durationTicks": 240,
          "midi": 70,
          "name": "A#4",
          "ticks": 98160,
          "time": 40.900000000000006,
          "velocity": 1
        },
        {
          "duration": 0.10000000000000142,
          "durationTicks": 240,
          "midi": 65,
          "name": "F4",
          "ticks": 98640,
          "time": 41.1,
          "velocity": 0.7401574803149606
        },
        {
          "duration": 0.10000000000000142,
          "durationTicks": 240,
          "midi": 72,
          "name": "C5",
          "ticks": 98640,
          "time": 41.1,
          "velocity": 0.7401574803149606
        },
        {
          "duration": 0.10000000000000142,
          "durationTicks": 240,
          "midi": 77,
          "name": "F5",
          "ticks": 98640,
          "time": 41.1,
          "velocity": 0.7401574803149606
        },
        {
          "duration": 0.10000000000000142,
          "durationTicks": 240,
          "midi": 77,
          "name": "F5",
          "ticks": 98880,
          "time": 41.2,
          "velocity": 1
        },
        {
          "duration": 0.10000000000000142,
          "durationTicks": 240,
          "midi": 65,
          "name": "F4",
          "ticks": 98880,
          "time": 41.2,
          "velocity": 1
        },
        {
          "duration": 0.10000000000000142,
          "durationTicks": 240,
          "midi": 72,
          "name": "C5",
          "ticks": 98880,
          "time": 41.2,
          "velocity": 1
        },
        {
          "duration": 0.10000000000000142,
          "durationTicks": 240,
          "midi": 70,
          "name": "A#4",
          "ticks": 98880,
          "time": 41.2,
          "velocity": 1
        },
        {
          "duration": 0.09999999999999432,
          "durationTicks": 240,
          "midi": 75,
          "name": "D#5",
          "ticks": 99360,
          "time": 41.400000000000006,
          "velocity": 1
        },
        {
          "duration": 0.09999999999999432,
          "durationTicks": 240,
          "midi": 63,
          "name": "D#4",
          "ticks": 99360,
          "time": 41.400000000000006,
          "velocity": 1
        },
        {
          "duration": 0.09999999999999432,
          "durationTicks": 240,
          "midi": 70,
          "name": "A#4",
          "ticks": 99360,
          "time": 41.400000000000006,
          "velocity": 1
        },
        {
          "duration": 0.10000000000000142,
          "durationTicks": 240,
          "midi": 72,
          "name": "C5",
          "ticks": 99840,
          "time": 41.6,
          "velocity": 1
        },
        {
          "duration": 0.10000000000000142,
          "durationTicks": 240,
          "midi": 65,
          "name": "F4",
          "ticks": 99840,
          "time": 41.6,
          "velocity": 1
        },
        {
          "duration": 0.10000000000000142,
          "durationTicks": 240,
          "midi": 77,
          "name": "F5",
          "ticks": 99840,
          "time": 41.6,
          "velocity": 1
        },
        {
          "duration": 0.10000000000000142,
          "durationTicks": 240,
          "midi": 65,
          "name": "F4",
          "ticks": 100320,
          "time": 41.800000000000004,
          "velocity": 0.7401574803149606
        },
        {
          "duration": 0.10000000000000142,
          "durationTicks": 240,
          "midi": 72,
          "name": "C5",
          "ticks": 100320,
          "time": 41.800000000000004,
          "velocity": 0.7401574803149606
        },
        {
          "duration": 0.10000000000000142,
          "durationTicks": 240,
          "midi": 77,
          "name": "F5",
          "ticks": 100320,
          "time": 41.800000000000004,
          "velocity": 0.7401574803149606
        },
        {
          "duration": 0.09999999999999432,
          "durationTicks": 240,
          "midi": 72,
          "name": "C5",
          "ticks": 100560,
          "time": 41.900000000000006,
          "velocity": 1
        },
        {
          "duration": 0.09999999999999432,
          "durationTicks": 240,
          "midi": 65,
          "name": "F4",
          "ticks": 100560,
          "time": 41.900000000000006,
          "velocity": 1
        },
        {
          "duration": 0.09999999999999432,
          "durationTicks": 240,
          "midi": 77,
          "name": "F5",
          "ticks": 100560,
          "time": 41.900000000000006,
          "velocity": 1
        },
        {
          "duration": 0.10000000000000142,
          "durationTicks": 240,
          "midi": 65,
          "name": "F4",
          "ticks": 101040,
          "time": 42.1,
          "velocity": 0.7401574803149606
        },
        {
          "duration": 0.10000000000000142,
          "durationTicks": 240,
          "midi": 72,
          "name": "C5",
          "ticks": 101040,
          "time": 42.1,
          "velocity": 0.7401574803149606
        },
        {
          "duration": 0.10000000000000142,
          "durationTicks": 240,
          "midi": 77,
          "name": "F5",
          "ticks": 101040,
          "time": 42.1,
          "velocity": 0.7401574803149606
        },
        {
          "duration": 0.10000000000000142,
          "durationTicks": 240,
          "midi": 72,
          "name": "C5",
          "ticks": 101280,
          "time": 42.2,
          "velocity": 1
        },
        {
          "duration": 0.10000000000000142,
          "durationTicks": 240,
          "midi": 65,
          "name": "F4",
          "ticks": 101280,
          "time": 42.2,
          "velocity": 1
        },
        {
          "duration": 0.10000000000000142,
          "durationTicks": 240,
          "midi": 77,
          "name": "F5",
          "ticks": 101280,
          "time": 42.2,
          "velocity": 1
        },
        {
          "duration": 0.09999999999999432,
          "durationTicks": 240,
          "midi": 65,
          "name": "F4",
          "ticks": 101760,
          "time": 42.400000000000006,
          "velocity": 0.7401574803149606
        },
        {
          "duration": 0.09999999999999432,
          "durationTicks": 240,
          "midi": 72,
          "name": "C5",
          "ticks": 101760,
          "time": 42.400000000000006,
          "velocity": 0.7401574803149606
        },
        {
          "duration": 0.09999999999999432,
          "durationTicks": 240,
          "midi": 77,
          "name": "F5",
          "ticks": 101760,
          "time": 42.400000000000006,
          "velocity": 0.7401574803149606
        },
        {
          "duration": 0.10000000000000142,
          "durationTicks": 240,
          "midi": 72,
          "name": "C5",
          "ticks": 102000,
          "time": 42.5,
          "velocity": 1
        },
        {
          "duration": 0.10000000000000142,
          "durationTicks": 240,
          "midi": 65,
          "name": "F4",
          "ticks": 102000,
          "time": 42.5,
          "velocity": 1
        },
        {
          "duration": 0.10000000000000142,
          "durationTicks": 240,
          "midi": 77,
          "name": "F5",
          "ticks": 102000,
          "time": 42.5,
          "velocity": 1
        },
        {
          "duration": 0.10000000000000142,
          "durationTicks": 240,
          "midi": 65,
          "name": "F4",
          "ticks": 102480,
          "time": 42.7,
          "velocity": 0.7401574803149606
        },
        {
          "duration": 0.10000000000000142,
          "durationTicks": 240,
          "midi": 72,
          "name": "C5",
          "ticks": 102480,
          "time": 42.7,
          "velocity": 0.7401574803149606
        },
        {
          "duration": 0.10000000000000142,
          "durationTicks": 240,
          "midi": 77,
          "name": "F5",
          "ticks": 102480,
          "time": 42.7,
          "velocity": 0.7401574803149606
        },
        {
          "duration": 0.10000000000000142,
          "durationTicks": 240,
          "midi": 72,
          "name": "C5",
          "ticks": 102720,
          "time": 42.800000000000004,
          "velocity": 1
        },
        {
          "duration": 0.10000000000000142,
          "durationTicks": 240,
          "midi": 65,
          "name": "F4",
          "ticks": 102720,
          "time": 42.800000000000004,
          "velocity": 1
        },
        {
          "duration": 0.10000000000000142,
          "durationTicks": 240,
          "midi": 77,
          "name": "F5",
          "ticks": 102720,
          "time": 42.800000000000004,
          "velocity": 1
        },
        {
          "duration": 0.10000000000000142,
          "durationTicks": 240,
          "midi": 73,
          "name": "C#5",
          "ticks": 103200,
          "time": 43,
          "velocity": 1
        },
        {
          "duration": 0.10000000000000142,
          "durationTicks": 240,
          "midi": 66,
          "name": "F#4",
          "ticks": 103200,
          "time": 43,
          "velocity": 1
        },
        {
          "duration": 0.10000000000000142,
          "durationTicks": 240,
          "midi": 78,
          "name": "F#5",
          "ticks": 103200,
          "time": 43,
          "velocity": 1
        },
        {
          "duration": 0.10000000000000142,
          "durationTicks": 240,
          "midi": 72,
          "name": "C5",
          "ticks": 103200,
          "time": 43,
          "velocity": 1
        },
        {
          "duration": 0.10000000000000142,
          "durationTicks": 240,
          "midi": 77,
          "name": "F5",
          "ticks": 103680,
          "time": 43.2,
          "velocity": 1
        },
        {
          "duration": 0.10000000000000142,
          "durationTicks": 240,
          "midi": 65,
          "name": "F4",
          "ticks": 103680,
          "time": 43.2,
          "velocity": 1
        },
        {
          "duration": 0.10000000000000142,
          "durationTicks": 240,
          "midi": 72,
          "name": "C5",
          "ticks": 103680,
          "time": 43.2,
          "velocity": 1
        },
        {
          "duration": 0.10000000000000142,
          "durationTicks": 240,
          "midi": 75,
          "name": "D#5",
          "ticks": 103680,
          "time": 43.2,
          "velocity": 1
        },
        {
          "duration": 0.09999999999999432,
          "durationTicks": 240,
          "midi": 65,
          "name": "F4",
          "ticks": 104160,
          "time": 43.400000000000006,
          "velocity": 0.7401574803149606
        },
        {
          "duration": 0.09999999999999432,
          "durationTicks": 240,
          "midi": 72,
          "name": "C5",
          "ticks": 104160,
          "time": 43.400000000000006,
          "velocity": 0.7401574803149606
        },
        {
          "duration": 0.09999999999999432,
          "durationTicks": 240,
          "midi": 77,
          "name": "F5",
          "ticks": 104160,
          "time": 43.400000000000006,
          "velocity": 0.7401574803149606
        },
        {
          "duration": 0.10000000000000142,
          "durationTicks": 240,
          "midi": 77,
          "name": "F5",
          "ticks": 104400,
          "time": 43.5,
          "velocity": 1
        },
        {
          "duration": 0.10000000000000142,
          "durationTicks": 240,
          "midi": 65,
          "name": "F4",
          "ticks": 104400,
          "time": 43.5,
          "velocity": 1
        },
        {
          "duration": 0.10000000000000142,
          "durationTicks": 240,
          "midi": 72,
          "name": "C5",
          "ticks": 104400,
          "time": 43.5,
          "velocity": 1
        },
        {
          "duration": 0.10000000000000142,
          "durationTicks": 240,
          "midi": 75,
          "name": "D#5",
          "ticks": 104400,
          "time": 43.5,
          "velocity": 1
        },
        {
          "duration": 0.10000000000000142,
          "durationTicks": 240,
          "midi": 65,
          "name": "F4",
          "ticks": 104880,
          "time": 43.7,
          "velocity": 0.7401574803149606
        },
        {
          "duration": 0.10000000000000142,
          "durationTicks": 240,
          "midi": 72,
          "name": "C5",
          "ticks": 104880,
          "time": 43.7,
          "velocity": 0.7401574803149606
        },
        {
          "duration": 0.10000000000000142,
          "durationTicks": 240,
          "midi": 77,
          "name": "F5",
          "ticks": 104880,
          "time": 43.7,
          "velocity": 0.7401574803149606
        },
        {
          "duration": 0.10000000000000142,
          "durationTicks": 240,
          "midi": 77,
          "name": "F5",
          "ticks": 105120,
          "time": 43.800000000000004,
          "velocity": 1
        },
        {
          "duration": 0.10000000000000142,
          "durationTicks": 240,
          "midi": 65,
          "name": "F4",
          "ticks": 105120,
          "time": 43.800000000000004,
          "velocity": 1
        },
        {
          "duration": 0.10000000000000142,
          "durationTicks": 240,
          "midi": 72,
          "name": "C5",
          "ticks": 105120,
          "time": 43.800000000000004,
          "velocity": 1
        },
        {
          "duration": 0.10000000000000142,
          "durationTicks": 240,
          "midi": 75,
          "name": "D#5",
          "ticks": 105120,
          "time": 43.800000000000004,
          "velocity": 1
        },
        {
          "duration": 0.10000000000000142,
          "durationTicks": 240,
          "midi": 65,
          "name": "F4",
          "ticks": 105600,
          "time": 44,
          "velocity": 0.7401574803149606
        },
        {
          "duration": 0.10000000000000142,
          "durationTicks": 240,
          "midi": 72,
          "name": "C5",
          "ticks": 105600,
          "time": 44,
          "velocity": 0.7401574803149606
        },
        {
          "duration": 0.10000000000000142,
          "durationTicks": 240,
          "midi": 77,
          "name": "F5",
          "ticks": 105600,
          "time": 44,
          "velocity": 0.7401574803149606
        },
        {
          "duration": 0.10000000000000142,
          "durationTicks": 240,
          "midi": 77,
          "name": "F5",
          "ticks": 105840,
          "time": 44.1,
          "velocity": 1
        },
        {
          "duration": 0.10000000000000142,
          "durationTicks": 240,
          "midi": 65,
          "name": "F4",
          "ticks": 105840,
          "time": 44.1,
          "velocity": 1
        },
        {
          "duration": 0.10000000000000142,
          "durationTicks": 240,
          "midi": 72,
          "name": "C5",
          "ticks": 105840,
          "time": 44.1,
          "velocity": 1
        },
        {
          "duration": 0.10000000000000142,
          "durationTicks": 240,
          "midi": 75,
          "name": "D#5",
          "ticks": 105840,
          "time": 44.1,
          "velocity": 1
        },
        {
          "duration": 0.10000000000000142,
          "durationTicks": 240,
          "midi": 65,
          "name": "F4",
          "ticks": 106320,
          "time": 44.300000000000004,
          "velocity": 0.7401574803149606
        },
        {
          "duration": 0.10000000000000142,
          "durationTicks": 240,
          "midi": 72,
          "name": "C5",
          "ticks": 106320,
          "time": 44.300000000000004,
          "velocity": 0.7401574803149606
        },
        {
          "duration": 0.10000000000000142,
          "durationTicks": 240,
          "midi": 77,
          "name": "F5",
          "ticks": 106320,
          "time": 44.300000000000004,
          "velocity": 0.7401574803149606
        },
        {
          "duration": 0.09999999999999432,
          "durationTicks": 240,
          "midi": 77,
          "name": "F5",
          "ticks": 106560,
          "time": 44.400000000000006,
          "velocity": 1
        },
        {
          "duration": 0.09999999999999432,
          "durationTicks": 240,
          "midi": 65,
          "name": "F4",
          "ticks": 106560,
          "time": 44.400000000000006,
          "velocity": 1
        },
        {
          "duration": 0.09999999999999432,
          "durationTicks": 240,
          "midi": 72,
          "name": "C5",
          "ticks": 106560,
          "time": 44.400000000000006,
          "velocity": 1
        },
        {
          "duration": 0.09999999999999432,
          "durationTicks": 240,
          "midi": 75,
          "name": "D#5",
          "ticks": 106560,
          "time": 44.400000000000006,
          "velocity": 1
        },
        {
          "duration": 0.10000000000000142,
          "durationTicks": 240,
          "midi": 75,
          "name": "D#5",
          "ticks": 107040,
          "time": 44.6,
          "velocity": 1
        },
        {
          "duration": 0.10000000000000142,
          "durationTicks": 240,
          "midi": 63,
          "name": "D#4",
          "ticks": 107040,
          "time": 44.6,
          "velocity": 1
        },
        {
          "duration": 0.10000000000000142,
          "durationTicks": 240,
          "midi": 70,
          "name": "A#4",
          "ticks": 107040,
          "time": 44.6,
          "velocity": 1
        },
        {
          "duration": 0.10000000000000142,
          "durationTicks": 240,
          "midi": 72,
          "name": "C5",
          "ticks": 107520,
          "time": 44.800000000000004,
          "velocity": 1
        },
        {
          "duration": 0.10000000000000142,
          "durationTicks": 240,
          "midi": 65,
          "name": "F4",
          "ticks": 107520,
          "time": 44.800000000000004,
          "velocity": 1
        },
        {
          "duration": 0.10000000000000142,
          "durationTicks": 240,
          "midi": 77,
          "name": "F5",
          "ticks": 107520,
          "time": 44.800000000000004,
          "velocity": 1
        },
        {
          "duration": 0.10000000000000142,
          "durationTicks": 240,
          "midi": 68,
          "name": "G#4",
          "ticks": 107520,
          "time": 44.800000000000004,
          "velocity": 1
        },
        {
          "duration": 0.10000000000000142,
          "durationTicks": 240,
          "midi": 65,
          "name": "F4",
          "ticks": 108000,
          "time": 45,
          "velocity": 0.7401574803149606
        },
        {
          "duration": 0.10000000000000142,
          "durationTicks": 240,
          "midi": 72,
          "name": "C5",
          "ticks": 108000,
          "time": 45,
          "velocity": 0.7401574803149606
        },
        {
          "duration": 0.10000000000000142,
          "durationTicks": 240,
          "midi": 77,
          "name": "F5",
          "ticks": 108000,
          "time": 45,
          "velocity": 0.7401574803149606
        },
        {
          "duration": 0.10000000000000142,
          "durationTicks": 240,
          "midi": 72,
          "name": "C5",
          "ticks": 108240,
          "time": 45.1,
          "velocity": 1
        },
        {
          "duration": 0.10000000000000142,
          "durationTicks": 240,
          "midi": 65,
          "name": "F4",
          "ticks": 108240,
          "time": 45.1,
          "velocity": 1
        },
        {
          "duration": 0.10000000000000142,
          "durationTicks": 240,
          "midi": 77,
          "name": "F5",
          "ticks": 108240,
          "time": 45.1,
          "velocity": 1
        },
        {
          "duration": 0.10000000000000142,
          "durationTicks": 240,
          "midi": 67,
          "name": "G4",
          "ticks": 108240,
          "time": 45.1,
          "velocity": 1
        },
        {
          "duration": 0.10000000000000142,
          "durationTicks": 240,
          "midi": 65,
          "name": "F4",
          "ticks": 108720,
          "time": 45.300000000000004,
          "velocity": 0.7401574803149606
        },
        {
          "duration": 0.10000000000000142,
          "durationTicks": 240,
          "midi": 72,
          "name": "C5",
          "ticks": 108720,
          "time": 45.300000000000004,
          "velocity": 0.7401574803149606
        },
        {
          "duration": 0.10000000000000142,
          "durationTicks": 240,
          "midi": 77,
          "name": "F5",
          "ticks": 108720,
          "time": 45.300000000000004,
          "velocity": 0.7401574803149606
        },
        {
          "duration": 0.09999999999999432,
          "durationTicks": 240,
          "midi": 72,
          "name": "C5",
          "ticks": 108960,
          "time": 45.400000000000006,
          "velocity": 1
        },
        {
          "duration": 0.09999999999999432,
          "durationTicks": 240,
          "midi": 65,
          "name": "F4",
          "ticks": 108960,
          "time": 45.400000000000006,
          "velocity": 1
        },
        {
          "duration": 0.09999999999999432,
          "durationTicks": 240,
          "midi": 77,
          "name": "F5",
          "ticks": 108960,
          "time": 45.400000000000006,
          "velocity": 1
        },
        {
          "duration": 0.09999999999999432,
          "durationTicks": 240,
          "midi": 68,
          "name": "G#4",
          "ticks": 108960,
          "time": 45.400000000000006,
          "velocity": 1
        },
        {
          "duration": 0.10000000000000142,
          "durationTicks": 240,
          "midi": 65,
          "name": "F4",
          "ticks": 109440,
          "time": 45.6,
          "velocity": 0.7401574803149606
        },
        {
          "duration": 0.10000000000000142,
          "durationTicks": 240,
          "midi": 72,
          "name": "C5",
          "ticks": 109440,
          "time": 45.6,
          "velocity": 0.7401574803149606
        },
        {
          "duration": 0.10000000000000142,
          "durationTicks": 240,
          "midi": 77,
          "name": "F5",
          "ticks": 109440,
          "time": 45.6,
          "velocity": 0.7401574803149606
        },
        {
          "duration": 0.10000000000000142,
          "durationTicks": 240,
          "midi": 72,
          "name": "C5",
          "ticks": 109680,
          "time": 45.7,
          "velocity": 1
        },
        {
          "duration": 0.10000000000000142,
          "durationTicks": 240,
          "midi": 65,
          "name": "F4",
          "ticks": 109680,
          "time": 45.7,
          "velocity": 1
        },
        {
          "duration": 0.10000000000000142,
          "durationTicks": 240,
          "midi": 77,
          "name": "F5",
          "ticks": 109680,
          "time": 45.7,
          "velocity": 1
        },
        {
          "duration": 0.10000000000000142,
          "durationTicks": 240,
          "midi": 68,
          "name": "G#4",
          "ticks": 109680,
          "time": 45.7,
          "velocity": 1
        },
        {
          "duration": 0.09999999999999432,
          "durationTicks": 240,
          "midi": 65,
          "name": "F4",
          "ticks": 110160,
          "time": 45.900000000000006,
          "velocity": 0.7401574803149606
        },
        {
          "duration": 0.09999999999999432,
          "durationTicks": 240,
          "midi": 72,
          "name": "C5",
          "ticks": 110160,
          "time": 45.900000000000006,
          "velocity": 0.7401574803149606
        },
        {
          "duration": 0.09999999999999432,
          "durationTicks": 240,
          "midi": 77,
          "name": "F5",
          "ticks": 110160,
          "time": 45.900000000000006,
          "velocity": 0.7401574803149606
        },
        {
          "duration": 0.10000000000000142,
          "durationTicks": 240,
          "midi": 72,
          "name": "C5",
          "ticks": 110400,
          "time": 46,
          "velocity": 1
        },
        {
          "duration": 0.10000000000000142,
          "durationTicks": 240,
          "midi": 65,
          "name": "F4",
          "ticks": 110400,
          "time": 46,
          "velocity": 1
        },
        {
          "duration": 0.10000000000000142,
          "durationTicks": 240,
          "midi": 77,
          "name": "F5",
          "ticks": 110400,
          "time": 46,
          "velocity": 1
        },
        {
          "duration": 0.10000000000000142,
          "durationTicks": 240,
          "midi": 68,
          "name": "G#4",
          "ticks": 110400,
          "time": 46,
          "velocity": 1
        },
        {
          "duration": 0.10000000000000142,
          "durationTicks": 240,
          "midi": 73,
          "name": "C#5",
          "ticks": 110880,
          "time": 46.2,
          "velocity": 1
        },
        {
          "duration": 0.10000000000000142,
          "durationTicks": 240,
          "midi": 66,
          "name": "F#4",
          "ticks": 110880,
          "time": 46.2,
          "velocity": 1
        },
        {
          "duration": 0.10000000000000142,
          "durationTicks": 240,
          "midi": 78,
          "name": "F#5",
          "ticks": 110880,
          "time": 46.2,
          "velocity": 1
        },
        {
          "duration": 0.10000000000000142,
          "durationTicks": 240,
          "midi": 67,
          "name": "G4",
          "ticks": 110880,
          "time": 46.2,
          "velocity": 1
        },
        {
          "duration": 0.09999999999999432,
          "durationTicks": 240,
          "midi": 77,
          "name": "F5",
          "ticks": 111360,
          "time": 46.400000000000006,
          "velocity": 1
        },
        {
          "duration": 0.09999999999999432,
          "durationTicks": 240,
          "midi": 65,
          "name": "F4",
          "ticks": 111360,
          "time": 46.400000000000006,
          "velocity": 1
        },
        {
          "duration": 0.09999999999999432,
          "durationTicks": 240,
          "midi": 72,
          "name": "C5",
          "ticks": 111360,
          "time": 46.400000000000006,
          "velocity": 1
        },
        {
          "duration": 0.09999999999999432,
          "durationTicks": 240,
          "midi": 68,
          "name": "G#4",
          "ticks": 111360,
          "time": 46.400000000000006,
          "velocity": 1
        },
        {
          "duration": 0.10000000000000142,
          "durationTicks": 240,
          "midi": 65,
          "name": "F4",
          "ticks": 111840,
          "time": 46.6,
          "velocity": 0.7401574803149606
        },
        {
          "duration": 0.10000000000000142,
          "durationTicks": 240,
          "midi": 72,
          "name": "C5",
          "ticks": 111840,
          "time": 46.6,
          "velocity": 0.7401574803149606
        },
        {
          "duration": 0.10000000000000142,
          "durationTicks": 240,
          "midi": 77,
          "name": "F5",
          "ticks": 111840,
          "time": 46.6,
          "velocity": 0.7401574803149606
        },
        {
          "duration": 0.10000000000000142,
          "durationTicks": 240,
          "midi": 77,
          "name": "F5",
          "ticks": 112080,
          "time": 46.7,
          "velocity": 1
        },
        {
          "duration": 0.10000000000000142,
          "durationTicks": 240,
          "midi": 65,
          "name": "F4",
          "ticks": 112080,
          "time": 46.7,
          "velocity": 1
        },
        {
          "duration": 0.10000000000000142,
          "durationTicks": 240,
          "midi": 72,
          "name": "C5",
          "ticks": 112080,
          "time": 46.7,
          "velocity": 1
        },
        {
          "duration": 0.10000000000000142,
          "durationTicks": 240,
          "midi": 67,
          "name": "G4",
          "ticks": 112080,
          "time": 46.7,
          "velocity": 1
        },
        {
          "duration": 0.09999999999999432,
          "durationTicks": 240,
          "midi": 65,
          "name": "F4",
          "ticks": 112560,
          "time": 46.900000000000006,
          "velocity": 0.7401574803149606
        },
        {
          "duration": 0.09999999999999432,
          "durationTicks": 240,
          "midi": 72,
          "name": "C5",
          "ticks": 112560,
          "time": 46.900000000000006,
          "velocity": 0.7401574803149606
        },
        {
          "duration": 0.09999999999999432,
          "durationTicks": 240,
          "midi": 77,
          "name": "F5",
          "ticks": 112560,
          "time": 46.900000000000006,
          "velocity": 0.7401574803149606
        },
        {
          "duration": 0.10000000000000142,
          "durationTicks": 240,
          "midi": 77,
          "name": "F5",
          "ticks": 112800,
          "time": 47,
          "velocity": 1
        },
        {
          "duration": 0.10000000000000142,
          "durationTicks": 240,
          "midi": 65,
          "name": "F4",
          "ticks": 112800,
          "time": 47,
          "velocity": 1
        },
        {
          "duration": 0.10000000000000142,
          "durationTicks": 240,
          "midi": 72,
          "name": "C5",
          "ticks": 112800,
          "time": 47,
          "velocity": 1
        },
        {
          "duration": 0.10000000000000142,
          "durationTicks": 240,
          "midi": 68,
          "name": "G#4",
          "ticks": 112800,
          "time": 47,
          "velocity": 1
        },
        {
          "duration": 0.10000000000000142,
          "durationTicks": 240,
          "midi": 65,
          "name": "F4",
          "ticks": 113280,
          "time": 47.2,
          "velocity": 0.7401574803149606
        },
        {
          "duration": 0.10000000000000142,
          "durationTicks": 240,
          "midi": 72,
          "name": "C5",
          "ticks": 113280,
          "time": 47.2,
          "velocity": 0.7401574803149606
        },
        {
          "duration": 0.10000000000000142,
          "durationTicks": 240,
          "midi": 77,
          "name": "F5",
          "ticks": 113280,
          "time": 47.2,
          "velocity": 0.7401574803149606
        },
        {
          "duration": 0.10000000000000142,
          "durationTicks": 240,
          "midi": 77,
          "name": "F5",
          "ticks": 113520,
          "time": 47.300000000000004,
          "velocity": 1
        },
        {
          "duration": 0.10000000000000142,
          "durationTicks": 240,
          "midi": 65,
          "name": "F4",
          "ticks": 113520,
          "time": 47.300000000000004,
          "velocity": 1
        },
        {
          "duration": 0.10000000000000142,
          "durationTicks": 240,
          "midi": 72,
          "name": "C5",
          "ticks": 113520,
          "time": 47.300000000000004,
          "velocity": 1
        },
        {
          "duration": 0.10000000000000142,
          "durationTicks": 240,
          "midi": 68,
          "name": "G#4",
          "ticks": 113520,
          "time": 47.300000000000004,
          "velocity": 1
        },
        {
          "duration": 0.10000000000000142,
          "durationTicks": 240,
          "midi": 65,
          "name": "F4",
          "ticks": 114000,
          "time": 47.5,
          "velocity": 0.7401574803149606
        },
        {
          "duration": 0.10000000000000142,
          "durationTicks": 240,
          "midi": 72,
          "name": "C5",
          "ticks": 114000,
          "time": 47.5,
          "velocity": 0.7401574803149606
        },
        {
          "duration": 0.10000000000000142,
          "durationTicks": 240,
          "midi": 77,
          "name": "F5",
          "ticks": 114000,
          "time": 47.5,
          "velocity": 0.7401574803149606
        },
        {
          "duration": 0.10000000000000142,
          "durationTicks": 240,
          "midi": 77,
          "name": "F5",
          "ticks": 114240,
          "time": 47.6,
          "velocity": 1
        },
        {
          "duration": 0.10000000000000142,
          "durationTicks": 240,
          "midi": 65,
          "name": "F4",
          "ticks": 114240,
          "time": 47.6,
          "velocity": 1
        },
        {
          "duration": 0.10000000000000142,
          "durationTicks": 240,
          "midi": 72,
          "name": "C5",
          "ticks": 114240,
          "time": 47.6,
          "velocity": 1
        },
        {
          "duration": 0.10000000000000142,
          "durationTicks": 240,
          "midi": 68,
          "name": "G#4",
          "ticks": 114240,
          "time": 47.6,
          "velocity": 1
        },
        {
          "duration": 0.10000000000000142,
          "durationTicks": 240,
          "midi": 75,
          "name": "D#5",
          "ticks": 114720,
          "time": 47.800000000000004,
          "velocity": 1
        },
        {
          "duration": 0.10000000000000142,
          "durationTicks": 240,
          "midi": 63,
          "name": "D#4",
          "ticks": 114720,
          "time": 47.800000000000004,
          "velocity": 1
        },
        {
          "duration": 0.10000000000000142,
          "durationTicks": 240,
          "midi": 70,
          "name": "A#4",
          "ticks": 114720,
          "time": 47.800000000000004,
          "velocity": 1
        },
        {
          "duration": 0.10000000000000142,
          "durationTicks": 240,
          "midi": 67,
          "name": "G4",
          "ticks": 114720,
          "time": 47.800000000000004,
          "velocity": 1
        },
        {
          "duration": 0.10000000000000142,
          "durationTicks": 240,
          "midi": 72,
          "name": "C5",
          "ticks": 115200,
          "time": 48,
          "velocity": 1
        },
        {
          "duration": 0.10000000000000142,
          "durationTicks": 240,
          "midi": 65,
          "name": "F4",
          "ticks": 115200,
          "time": 48,
          "velocity": 1
        },
        {
          "duration": 0.10000000000000142,
          "durationTicks": 240,
          "midi": 77,
          "name": "F5",
          "ticks": 115200,
          "time": 48,
          "velocity": 1
        },
        {
          "duration": 0.10000000000000142,
          "durationTicks": 240,
          "midi": 68,
          "name": "G#4",
          "ticks": 115200,
          "time": 48,
          "velocity": 1
        },
        {
          "duration": 0.10000000000000142,
          "durationTicks": 240,
          "midi": 65,
          "name": "F4",
          "ticks": 115680,
          "time": 48.2,
          "velocity": 0.7401574803149606
        },
        {
          "duration": 0.10000000000000142,
          "durationTicks": 240,
          "midi": 72,
          "name": "C5",
          "ticks": 115680,
          "time": 48.2,
          "velocity": 0.7401574803149606
        },
        {
          "duration": 0.10000000000000142,
          "durationTicks": 240,
          "midi": 77,
          "name": "F5",
          "ticks": 115680,
          "time": 48.2,
          "velocity": 0.7401574803149606
        },
        {
          "duration": 0.10000000000000142,
          "durationTicks": 240,
          "midi": 72,
          "name": "C5",
          "ticks": 115920,
          "time": 48.300000000000004,
          "velocity": 1
        },
        {
          "duration": 0.10000000000000142,
          "durationTicks": 240,
          "midi": 65,
          "name": "F4",
          "ticks": 115920,
          "time": 48.300000000000004,
          "velocity": 1
        },
        {
          "duration": 0.10000000000000142,
          "durationTicks": 240,
          "midi": 77,
          "name": "F5",
          "ticks": 115920,
          "time": 48.300000000000004,
          "velocity": 1
        },
        {
          "duration": 0.10000000000000142,
          "durationTicks": 240,
          "midi": 67,
          "name": "G4",
          "ticks": 115920,
          "time": 48.300000000000004,
          "velocity": 1
        },
        {
          "duration": 0.10000000000000142,
          "durationTicks": 240,
          "midi": 65,
          "name": "F4",
          "ticks": 116400,
          "time": 48.5,
          "velocity": 0.7401574803149606
        },
        {
          "duration": 0.10000000000000142,
          "durationTicks": 240,
          "midi": 72,
          "name": "C5",
          "ticks": 116400,
          "time": 48.5,
          "velocity": 0.7401574803149606
        },
        {
          "duration": 0.10000000000000142,
          "durationTicks": 240,
          "midi": 77,
          "name": "F5",
          "ticks": 116400,
          "time": 48.5,
          "velocity": 0.7401574803149606
        },
        {
          "duration": 0.10000000000000142,
          "durationTicks": 240,
          "midi": 72,
          "name": "C5",
          "ticks": 116640,
          "time": 48.6,
          "velocity": 1
        },
        {
          "duration": 0.10000000000000142,
          "durationTicks": 240,
          "midi": 65,
          "name": "F4",
          "ticks": 116640,
          "time": 48.6,
          "velocity": 1
        },
        {
          "duration": 0.10000000000000142,
          "durationTicks": 240,
          "midi": 77,
          "name": "F5",
          "ticks": 116640,
          "time": 48.6,
          "velocity": 1
        },
        {
          "duration": 0.10000000000000142,
          "durationTicks": 240,
          "midi": 68,
          "name": "G#4",
          "ticks": 116640,
          "time": 48.6,
          "velocity": 1
        },
        {
          "duration": 0.10000000000000142,
          "durationTicks": 240,
          "midi": 65,
          "name": "F4",
          "ticks": 117120,
          "time": 48.800000000000004,
          "velocity": 0.7401574803149606
        },
        {
          "duration": 0.10000000000000142,
          "durationTicks": 240,
          "midi": 72,
          "name": "C5",
          "ticks": 117120,
          "time": 48.800000000000004,
          "velocity": 0.7401574803149606
        },
        {
          "duration": 0.10000000000000142,
          "durationTicks": 240,
          "midi": 77,
          "name": "F5",
          "ticks": 117120,
          "time": 48.800000000000004,
          "velocity": 0.7401574803149606
        },
        {
          "duration": 0.09999999999999432,
          "durationTicks": 240,
          "midi": 72,
          "name": "C5",
          "ticks": 117360,
          "time": 48.900000000000006,
          "velocity": 1
        },
        {
          "duration": 0.09999999999999432,
          "durationTicks": 240,
          "midi": 65,
          "name": "F4",
          "ticks": 117360,
          "time": 48.900000000000006,
          "velocity": 1
        },
        {
          "duration": 0.09999999999999432,
          "durationTicks": 240,
          "midi": 77,
          "name": "F5",
          "ticks": 117360,
          "time": 48.900000000000006,
          "velocity": 1
        },
        {
          "duration": 0.09999999999999432,
          "durationTicks": 240,
          "midi": 68,
          "name": "G#4",
          "ticks": 117360,
          "time": 48.900000000000006,
          "velocity": 1
        },
        {
          "duration": 0.10000000000000142,
          "durationTicks": 240,
          "midi": 65,
          "name": "F4",
          "ticks": 117840,
          "time": 49.1,
          "velocity": 0.7401574803149606
        },
        {
          "duration": 0.10000000000000142,
          "durationTicks": 240,
          "midi": 72,
          "name": "C5",
          "ticks": 117840,
          "time": 49.1,
          "velocity": 0.7401574803149606
        },
        {
          "duration": 0.10000000000000142,
          "durationTicks": 240,
          "midi": 77,
          "name": "F5",
          "ticks": 117840,
          "time": 49.1,
          "velocity": 0.7401574803149606
        },
        {
          "duration": 0.10000000000000142,
          "durationTicks": 240,
          "midi": 72,
          "name": "C5",
          "ticks": 118080,
          "time": 49.2,
          "velocity": 1
        },
        {
          "duration": 0.10000000000000142,
          "durationTicks": 240,
          "midi": 65,
          "name": "F4",
          "ticks": 118080,
          "time": 49.2,
          "velocity": 1
        },
        {
          "duration": 0.10000000000000142,
          "durationTicks": 240,
          "midi": 77,
          "name": "F5",
          "ticks": 118080,
          "time": 49.2,
          "velocity": 1
        },
        {
          "duration": 0.10000000000000142,
          "durationTicks": 240,
          "midi": 68,
          "name": "G#4",
          "ticks": 118080,
          "time": 49.2,
          "velocity": 1
        },
        {
          "duration": 0.09999999999999432,
          "durationTicks": 240,
          "midi": 73,
          "name": "C#5",
          "ticks": 118560,
          "time": 49.400000000000006,
          "velocity": 1
        },
        {
          "duration": 0.09999999999999432,
          "durationTicks": 240,
          "midi": 66,
          "name": "F#4",
          "ticks": 118560,
          "time": 49.400000000000006,
          "velocity": 1
        },
        {
          "duration": 0.09999999999999432,
          "durationTicks": 240,
          "midi": 78,
          "name": "F#5",
          "ticks": 118560,
          "time": 49.400000000000006,
          "velocity": 1
        },
        {
          "duration": 0.09999999999999432,
          "durationTicks": 240,
          "midi": 67,
          "name": "G4",
          "ticks": 118560,
          "time": 49.400000000000006,
          "velocity": 1
        },
        {
          "duration": 0.10000000000000142,
          "durationTicks": 240,
          "midi": 77,
          "name": "F5",
          "ticks": 119040,
          "time": 49.6,
          "velocity": 1
        },
        {
          "duration": 0.10000000000000142,
          "durationTicks": 240,
          "midi": 65,
          "name": "F4",
          "ticks": 119040,
          "time": 49.6,
          "velocity": 1
        },
        {
          "duration": 0.10000000000000142,
          "durationTicks": 240,
          "midi": 72,
          "name": "C5",
          "ticks": 119040,
          "time": 49.6,
          "velocity": 1
        },
        {
          "duration": 0.10000000000000142,
          "durationTicks": 240,
          "midi": 70,
          "name": "A#4",
          "ticks": 119040,
          "time": 49.6,
          "velocity": 1
        },
        {
          "duration": 0.10000000000000142,
          "durationTicks": 240,
          "midi": 65,
          "name": "F4",
          "ticks": 119520,
          "time": 49.800000000000004,
          "velocity": 0.7401574803149606
        },
        {
          "duration": 0.10000000000000142,
          "durationTicks": 240,
          "midi": 72,
          "name": "C5",
          "ticks": 119520,
          "time": 49.800000000000004,
          "velocity": 0.7401574803149606
        },
        {
          "duration": 0.10000000000000142,
          "durationTicks": 240,
          "midi": 77,
          "name": "F5",
          "ticks": 119520,
          "time": 49.800000000000004,
          "velocity": 0.7401574803149606
        },
        {
          "duration": 0.09999999999999432,
          "durationTicks": 240,
          "midi": 77,
          "name": "F5",
          "ticks": 119760,
          "time": 49.900000000000006,
          "velocity": 1
        },
        {
          "duration": 0.09999999999999432,
          "durationTicks": 240,
          "midi": 65,
          "name": "F4",
          "ticks": 119760,
          "time": 49.900000000000006,
          "velocity": 1
        },
        {
          "duration": 0.09999999999999432,
          "durationTicks": 240,
          "midi": 72,
          "name": "C5",
          "ticks": 119760,
          "time": 49.900000000000006,
          "velocity": 1
        },
        {
          "duration": 0.09999999999999432,
          "durationTicks": 240,
          "midi": 70,
          "name": "A#4",
          "ticks": 119760,
          "time": 49.900000000000006,
          "velocity": 1
        },
        {
          "duration": 0.10000000000000142,
          "durationTicks": 240,
          "midi": 65,
          "name": "F4",
          "ticks": 120240,
          "time": 50.1,
          "velocity": 0.7401574803149606
        },
        {
          "duration": 0.10000000000000142,
          "durationTicks": 240,
          "midi": 72,
          "name": "C5",
          "ticks": 120240,
          "time": 50.1,
          "velocity": 0.7401574803149606
        },
        {
          "duration": 0.10000000000000142,
          "durationTicks": 240,
          "midi": 77,
          "name": "F5",
          "ticks": 120240,
          "time": 50.1,
          "velocity": 0.7401574803149606
        },
        {
          "duration": 0.10000000000000142,
          "durationTicks": 240,
          "midi": 77,
          "name": "F5",
          "ticks": 120480,
          "time": 50.2,
          "velocity": 1
        },
        {
          "duration": 0.10000000000000142,
          "durationTicks": 240,
          "midi": 65,
          "name": "F4",
          "ticks": 120480,
          "time": 50.2,
          "velocity": 1
        },
        {
          "duration": 0.10000000000000142,
          "durationTicks": 240,
          "midi": 72,
          "name": "C5",
          "ticks": 120480,
          "time": 50.2,
          "velocity": 1
        },
        {
          "duration": 0.10000000000000142,
          "durationTicks": 240,
          "midi": 70,
          "name": "A#4",
          "ticks": 120480,
          "time": 50.2,
          "velocity": 1
        },
        {
          "duration": 0.09999999999999432,
          "durationTicks": 240,
          "midi": 65,
          "name": "F4",
          "ticks": 120960,
          "time": 50.400000000000006,
          "velocity": 0.7401574803149606
        },
        {
          "duration": 0.09999999999999432,
          "durationTicks": 240,
          "midi": 72,
          "name": "C5",
          "ticks": 120960,
          "time": 50.400000000000006,
          "velocity": 0.7401574803149606
        },
        {
          "duration": 0.09999999999999432,
          "durationTicks": 240,
          "midi": 77,
          "name": "F5",
          "ticks": 120960,
          "time": 50.400000000000006,
          "velocity": 0.7401574803149606
        },
        {
          "duration": 0.10000000000000142,
          "durationTicks": 240,
          "midi": 77,
          "name": "F5",
          "ticks": 121200,
          "time": 50.5,
          "velocity": 1
        },
        {
          "duration": 0.10000000000000142,
          "durationTicks": 240,
          "midi": 65,
          "name": "F4",
          "ticks": 121200,
          "time": 50.5,
          "velocity": 1
        },
        {
          "duration": 0.10000000000000142,
          "durationTicks": 240,
          "midi": 72,
          "name": "C5",
          "ticks": 121200,
          "time": 50.5,
          "velocity": 1
        },
        {
          "duration": 0.10000000000000142,
          "durationTicks": 240,
          "midi": 70,
          "name": "A#4",
          "ticks": 121200,
          "time": 50.5,
          "velocity": 1
        },
        {
          "duration": 0.10000000000000142,
          "durationTicks": 240,
          "midi": 65,
          "name": "F4",
          "ticks": 121680,
          "time": 50.7,
          "velocity": 0.7401574803149606
        },
        {
          "duration": 0.10000000000000142,
          "durationTicks": 240,
          "midi": 72,
          "name": "C5",
          "ticks": 121680,
          "time": 50.7,
          "velocity": 0.7401574803149606
        },
        {
          "duration": 0.10000000000000142,
          "durationTicks": 240,
          "midi": 77,
          "name": "F5",
          "ticks": 121680,
          "time": 50.7,
          "velocity": 0.7401574803149606
        },
        {
          "duration": 0.10000000000000142,
          "durationTicks": 240,
          "midi": 77,
          "name": "F5",
          "ticks": 121920,
          "time": 50.800000000000004,
          "velocity": 1
        },
        {
          "duration": 0.10000000000000142,
          "durationTicks": 240,
          "midi": 65,
          "name": "F4",
          "ticks": 121920,
          "time": 50.800000000000004,
          "velocity": 1
        },
        {
          "duration": 0.10000000000000142,
          "durationTicks": 240,
          "midi": 72,
          "name": "C5",
          "ticks": 121920,
          "time": 50.800000000000004,
          "velocity": 1
        },
        {
          "duration": 0.10000000000000142,
          "durationTicks": 240,
          "midi": 70,
          "name": "A#4",
          "ticks": 121920,
          "time": 50.800000000000004,
          "velocity": 1
        },
        {
          "duration": 0.10000000000000142,
          "durationTicks": 240,
          "midi": 75,
          "name": "D#5",
          "ticks": 122400,
          "time": 51,
          "velocity": 1
        },
        {
          "duration": 0.10000000000000142,
          "durationTicks": 240,
          "midi": 63,
          "name": "D#4",
          "ticks": 122400,
          "time": 51,
          "velocity": 1
        },
        {
          "duration": 0.10000000000000142,
          "durationTicks": 240,
          "midi": 70,
          "name": "A#4",
          "ticks": 122400,
          "time": 51,
          "velocity": 1
        },
        {
          "duration": 0.10000000000000142,
          "durationTicks": 240,
          "midi": 72,
          "name": "C5",
          "ticks": 122880,
          "time": 51.2,
          "velocity": 1
        },
        {
          "duration": 0.10000000000000142,
          "durationTicks": 240,
          "midi": 65,
          "name": "F4",
          "ticks": 122880,
          "time": 51.2,
          "velocity": 1
        },
        {
          "duration": 0.10000000000000142,
          "durationTicks": 240,
          "midi": 77,
          "name": "F5",
          "ticks": 122880,
          "time": 51.2,
          "velocity": 1
        },
        {
          "duration": 0.10000000000000142,
          "durationTicks": 240,
          "midi": 68,
          "name": "G#4",
          "ticks": 122880,
          "time": 51.2,
          "velocity": 1
        },
        {
          "duration": 0.09999999999999432,
          "durationTicks": 240,
          "midi": 65,
          "name": "F4",
          "ticks": 123360,
          "time": 51.400000000000006,
          "velocity": 0.7401574803149606
        },
        {
          "duration": 0.09999999999999432,
          "durationTicks": 240,
          "midi": 72,
          "name": "C5",
          "ticks": 123360,
          "time": 51.400000000000006,
          "velocity": 0.7401574803149606
        },
        {
          "duration": 0.09999999999999432,
          "durationTicks": 240,
          "midi": 77,
          "name": "F5",
          "ticks": 123360,
          "time": 51.400000000000006,
          "velocity": 0.7401574803149606
        },
        {
          "duration": 0.10000000000000142,
          "durationTicks": 240,
          "midi": 72,
          "name": "C5",
          "ticks": 123600,
          "time": 51.5,
          "velocity": 1
        },
        {
          "duration": 0.10000000000000142,
          "durationTicks": 240,
          "midi": 65,
          "name": "F4",
          "ticks": 123600,
          "time": 51.5,
          "velocity": 1
        },
        {
          "duration": 0.10000000000000142,
          "durationTicks": 240,
          "midi": 77,
          "name": "F5",
          "ticks": 123600,
          "time": 51.5,
          "velocity": 1
        },
        {
          "duration": 0.10000000000000142,
          "durationTicks": 240,
          "midi": 67,
          "name": "G4",
          "ticks": 123600,
          "time": 51.5,
          "velocity": 1
        },
        {
          "duration": 0.10000000000000142,
          "durationTicks": 240,
          "midi": 65,
          "name": "F4",
          "ticks": 124080,
          "time": 51.7,
          "velocity": 0.7401574803149606
        },
        {
          "duration": 0.10000000000000142,
          "durationTicks": 240,
          "midi": 72,
          "name": "C5",
          "ticks": 124080,
          "time": 51.7,
          "velocity": 0.7401574803149606
        },
        {
          "duration": 0.10000000000000142,
          "durationTicks": 240,
          "midi": 77,
          "name": "F5",
          "ticks": 124080,
          "time": 51.7,
          "velocity": 0.7401574803149606
        },
        {
          "duration": 0.10000000000000142,
          "durationTicks": 240,
          "midi": 72,
          "name": "C5",
          "ticks": 124320,
          "time": 51.800000000000004,
          "velocity": 1
        },
        {
          "duration": 0.10000000000000142,
          "durationTicks": 240,
          "midi": 65,
          "name": "F4",
          "ticks": 124320,
          "time": 51.800000000000004,
          "velocity": 1
        },
        {
          "duration": 0.10000000000000142,
          "durationTicks": 240,
          "midi": 77,
          "name": "F5",
          "ticks": 124320,
          "time": 51.800000000000004,
          "velocity": 1
        },
        {
          "duration": 0.10000000000000142,
          "durationTicks": 240,
          "midi": 68,
          "name": "G#4",
          "ticks": 124320,
          "time": 51.800000000000004,
          "velocity": 1
        },
        {
          "duration": 0.10000000000000142,
          "durationTicks": 240,
          "midi": 65,
          "name": "F4",
          "ticks": 124800,
          "time": 52,
          "velocity": 0.7401574803149606
        },
        {
          "duration": 0.10000000000000142,
          "durationTicks": 240,
          "midi": 72,
          "name": "C5",
          "ticks": 124800,
          "time": 52,
          "velocity": 0.7401574803149606
        },
        {
          "duration": 0.10000000000000142,
          "durationTicks": 240,
          "midi": 77,
          "name": "F5",
          "ticks": 124800,
          "time": 52,
          "velocity": 0.7401574803149606
        },
        {
          "duration": 0.10000000000000142,
          "durationTicks": 240,
          "midi": 72,
          "name": "C5",
          "ticks": 125040,
          "time": 52.1,
          "velocity": 1
        },
        {
          "duration": 0.10000000000000142,
          "durationTicks": 240,
          "midi": 65,
          "name": "F4",
          "ticks": 125040,
          "time": 52.1,
          "velocity": 1
        },
        {
          "duration": 0.10000000000000142,
          "durationTicks": 240,
          "midi": 77,
          "name": "F5",
          "ticks": 125040,
          "time": 52.1,
          "velocity": 1
        },
        {
          "duration": 0.10000000000000142,
          "durationTicks": 240,
          "midi": 68,
          "name": "G#4",
          "ticks": 125040,
          "time": 52.1,
          "velocity": 1
        },
        {
          "duration": 0.10000000000000142,
          "durationTicks": 240,
          "midi": 65,
          "name": "F4",
          "ticks": 125520,
          "time": 52.300000000000004,
          "velocity": 0.7401574803149606
        },
        {
          "duration": 0.10000000000000142,
          "durationTicks": 240,
          "midi": 72,
          "name": "C5",
          "ticks": 125520,
          "time": 52.300000000000004,
          "velocity": 0.7401574803149606
        },
        {
          "duration": 0.10000000000000142,
          "durationTicks": 240,
          "midi": 77,
          "name": "F5",
          "ticks": 125520,
          "time": 52.300000000000004,
          "velocity": 0.7401574803149606
        },
        {
          "duration": 0.09999999999999432,
          "durationTicks": 240,
          "midi": 72,
          "name": "C5",
          "ticks": 125760,
          "time": 52.400000000000006,
          "velocity": 1
        },
        {
          "duration": 0.09999999999999432,
          "durationTicks": 240,
          "midi": 65,
          "name": "F4",
          "ticks": 125760,
          "time": 52.400000000000006,
          "velocity": 1
        },
        {
          "duration": 0.09999999999999432,
          "durationTicks": 240,
          "midi": 77,
          "name": "F5",
          "ticks": 125760,
          "time": 52.400000000000006,
          "velocity": 1
        },
        {
          "duration": 0.09999999999999432,
          "durationTicks": 240,
          "midi": 68,
          "name": "G#4",
          "ticks": 125760,
          "time": 52.400000000000006,
          "velocity": 1
        },
        {
          "duration": 0.10000000000000142,
          "durationTicks": 240,
          "midi": 73,
          "name": "C#5",
          "ticks": 126240,
          "time": 52.6,
          "velocity": 1
        },
        {
          "duration": 0.10000000000000142,
          "durationTicks": 240,
          "midi": 66,
          "name": "F#4",
          "ticks": 126240,
          "time": 52.6,
          "velocity": 1
        },
        {
          "duration": 0.10000000000000142,
          "durationTicks": 240,
          "midi": 78,
          "name": "F#5",
          "ticks": 126240,
          "time": 52.6,
          "velocity": 1
        },
        {
          "duration": 0.10000000000000142,
          "durationTicks": 240,
          "midi": 67,
          "name": "G4",
          "ticks": 126240,
          "time": 52.6,
          "velocity": 1
        },
        {
          "duration": 0.10000000000000142,
          "durationTicks": 240,
          "midi": 77,
          "name": "F5",
          "ticks": 126720,
          "time": 52.800000000000004,
          "velocity": 1
        },
        {
          "duration": 0.10000000000000142,
          "durationTicks": 240,
          "midi": 65,
          "name": "F4",
          "ticks": 126720,
          "time": 52.800000000000004,
          "velocity": 1
        },
        {
          "duration": 0.10000000000000142,
          "durationTicks": 240,
          "midi": 72,
          "name": "C5",
          "ticks": 126720,
          "time": 52.800000000000004,
          "velocity": 1
        },
        {
          "duration": 0.10000000000000142,
          "durationTicks": 240,
          "midi": 68,
          "name": "G#4",
          "ticks": 126720,
          "time": 52.800000000000004,
          "velocity": 1
        },
        {
          "duration": 0.10000000000000142,
          "durationTicks": 240,
          "midi": 65,
          "name": "F4",
          "ticks": 127200,
          "time": 53,
          "velocity": 0.7401574803149606
        },
        {
          "duration": 0.10000000000000142,
          "durationTicks": 240,
          "midi": 72,
          "name": "C5",
          "ticks": 127200,
          "time": 53,
          "velocity": 0.7401574803149606
        },
        {
          "duration": 0.10000000000000142,
          "durationTicks": 240,
          "midi": 77,
          "name": "F5",
          "ticks": 127200,
          "time": 53,
          "velocity": 0.7401574803149606
        },
        {
          "duration": 0.10000000000000142,
          "durationTicks": 240,
          "midi": 77,
          "name": "F5",
          "ticks": 127440,
          "time": 53.1,
          "velocity": 1
        },
        {
          "duration": 0.10000000000000142,
          "durationTicks": 240,
          "midi": 65,
          "name": "F4",
          "ticks": 127440,
          "time": 53.1,
          "velocity": 1
        },
        {
          "duration": 0.10000000000000142,
          "durationTicks": 240,
          "midi": 72,
          "name": "C5",
          "ticks": 127440,
          "time": 53.1,
          "velocity": 1
        },
        {
          "duration": 0.10000000000000142,
          "durationTicks": 240,
          "midi": 67,
          "name": "G4",
          "ticks": 127440,
          "time": 53.1,
          "velocity": 1
        },
        {
          "duration": 0.10000000000000142,
          "durationTicks": 240,
          "midi": 65,
          "name": "F4",
          "ticks": 127920,
          "time": 53.300000000000004,
          "velocity": 0.7401574803149606
        },
        {
          "duration": 0.10000000000000142,
          "durationTicks": 240,
          "midi": 72,
          "name": "C5",
          "ticks": 127920,
          "time": 53.300000000000004,
          "velocity": 0.7401574803149606
        },
        {
          "duration": 0.10000000000000142,
          "durationTicks": 240,
          "midi": 77,
          "name": "F5",
          "ticks": 127920,
          "time": 53.300000000000004,
          "velocity": 0.7401574803149606
        },
        {
          "duration": 0.09999999999999432,
          "durationTicks": 240,
          "midi": 77,
          "name": "F5",
          "ticks": 128160,
          "time": 53.400000000000006,
          "velocity": 1
        },
        {
          "duration": 0.09999999999999432,
          "durationTicks": 240,
          "midi": 65,
          "name": "F4",
          "ticks": 128160,
          "time": 53.400000000000006,
          "velocity": 1
        },
        {
          "duration": 0.09999999999999432,
          "durationTicks": 240,
          "midi": 72,
          "name": "C5",
          "ticks": 128160,
          "time": 53.400000000000006,
          "velocity": 1
        },
        {
          "duration": 0.09999999999999432,
          "durationTicks": 240,
          "midi": 68,
          "name": "G#4",
          "ticks": 128160,
          "time": 53.400000000000006,
          "velocity": 1
        },
        {
          "duration": 0.10000000000000142,
          "durationTicks": 240,
          "midi": 65,
          "name": "F4",
          "ticks": 128640,
          "time": 53.6,
          "velocity": 0.7401574803149606
        },
        {
          "duration": 0.10000000000000142,
          "durationTicks": 240,
          "midi": 72,
          "name": "C5",
          "ticks": 128640,
          "time": 53.6,
          "velocity": 0.7401574803149606
        },
        {
          "duration": 0.10000000000000142,
          "durationTicks": 240,
          "midi": 77,
          "name": "F5",
          "ticks": 128640,
          "time": 53.6,
          "velocity": 0.7401574803149606
        },
        {
          "duration": 0.10000000000000142,
          "durationTicks": 240,
          "midi": 77,
          "name": "F5",
          "ticks": 128880,
          "time": 53.7,
          "velocity": 1
        },
        {
          "duration": 0.10000000000000142,
          "durationTicks": 240,
          "midi": 65,
          "name": "F4",
          "ticks": 128880,
          "time": 53.7,
          "velocity": 1
        },
        {
          "duration": 0.10000000000000142,
          "durationTicks": 240,
          "midi": 72,
          "name": "C5",
          "ticks": 128880,
          "time": 53.7,
          "velocity": 1
        },
        {
          "duration": 0.10000000000000142,
          "durationTicks": 240,
          "midi": 68,
          "name": "G#4",
          "ticks": 128880,
          "time": 53.7,
          "velocity": 1
        },
        {
          "duration": 0.09999999999999432,
          "durationTicks": 240,
          "midi": 65,
          "name": "F4",
          "ticks": 129360,
          "time": 53.900000000000006,
          "velocity": 0.7401574803149606
        },
        {
          "duration": 0.09999999999999432,
          "durationTicks": 240,
          "midi": 72,
          "name": "C5",
          "ticks": 129360,
          "time": 53.900000000000006,
          "velocity": 0.7401574803149606
        },
        {
          "duration": 0.09999999999999432,
          "durationTicks": 240,
          "midi": 77,
          "name": "F5",
          "ticks": 129360,
          "time": 53.900000000000006,
          "velocity": 0.7401574803149606
        },
        {
          "duration": 0.10000000000000142,
          "durationTicks": 240,
          "midi": 77,
          "name": "F5",
          "ticks": 129600,
          "time": 54,
          "velocity": 1
        },
        {
          "duration": 0.10000000000000142,
          "durationTicks": 240,
          "midi": 65,
          "name": "F4",
          "ticks": 129600,
          "time": 54,
          "velocity": 1
        },
        {
          "duration": 0.10000000000000142,
          "durationTicks": 240,
          "midi": 72,
          "name": "C5",
          "ticks": 129600,
          "time": 54,
          "velocity": 1
        },
        {
          "duration": 0.10000000000000142,
          "durationTicks": 240,
          "midi": 68,
          "name": "G#4",
          "ticks": 129600,
          "time": 54,
          "velocity": 1
        },
        {
          "duration": 0.10000000000000142,
          "durationTicks": 240,
          "midi": 75,
          "name": "D#5",
          "ticks": 130080,
          "time": 54.2,
          "velocity": 1
        },
        {
          "duration": 0.10000000000000142,
          "durationTicks": 240,
          "midi": 63,
          "name": "D#4",
          "ticks": 130080,
          "time": 54.2,
          "velocity": 1
        },
        {
          "duration": 0.10000000000000142,
          "durationTicks": 240,
          "midi": 70,
          "name": "A#4",
          "ticks": 130080,
          "time": 54.2,
          "velocity": 1
        },
        {
          "duration": 0.10000000000000142,
          "durationTicks": 240,
          "midi": 67,
          "name": "G4",
          "ticks": 130080,
          "time": 54.2,
          "velocity": 1
        },
        {
          "duration": 0.09999999999999432,
          "durationTicks": 240,
          "midi": 72,
          "name": "C5",
          "ticks": 130560,
          "time": 54.400000000000006,
          "velocity": 1
        },
        {
          "duration": 0.09999999999999432,
          "durationTicks": 240,
          "midi": 65,
          "name": "F4",
          "ticks": 130560,
          "time": 54.400000000000006,
          "velocity": 1
        },
        {
          "duration": 0.09999999999999432,
          "durationTicks": 240,
          "midi": 77,
          "name": "F5",
          "ticks": 130560,
          "time": 54.400000000000006,
          "velocity": 1
        },
        {
          "duration": 0.09999999999999432,
          "durationTicks": 240,
          "midi": 68,
          "name": "G#4",
          "ticks": 130560,
          "time": 54.400000000000006,
          "velocity": 1
        },
        {
          "duration": 0.10000000000000142,
          "durationTicks": 240,
          "midi": 65,
          "name": "F4",
          "ticks": 131040,
          "time": 54.6,
          "velocity": 0.7401574803149606
        },
        {
          "duration": 0.10000000000000142,
          "durationTicks": 240,
          "midi": 72,
          "name": "C5",
          "ticks": 131040,
          "time": 54.6,
          "velocity": 0.7401574803149606
        },
        {
          "duration": 0.10000000000000142,
          "durationTicks": 240,
          "midi": 77,
          "name": "F5",
          "ticks": 131040,
          "time": 54.6,
          "velocity": 0.7401574803149606
        },
        {
          "duration": 0.10000000000000142,
          "durationTicks": 240,
          "midi": 72,
          "name": "C5",
          "ticks": 131280,
          "time": 54.7,
          "velocity": 1
        },
        {
          "duration": 0.10000000000000142,
          "durationTicks": 240,
          "midi": 65,
          "name": "F4",
          "ticks": 131280,
          "time": 54.7,
          "velocity": 1
        },
        {
          "duration": 0.10000000000000142,
          "durationTicks": 240,
          "midi": 77,
          "name": "F5",
          "ticks": 131280,
          "time": 54.7,
          "velocity": 1
        },
        {
          "duration": 0.10000000000000142,
          "durationTicks": 240,
          "midi": 67,
          "name": "G4",
          "ticks": 131280,
          "time": 54.7,
          "velocity": 1
        },
        {
          "duration": 0.09999999999999432,
          "durationTicks": 240,
          "midi": 65,
          "name": "F4",
          "ticks": 131760,
          "time": 54.900000000000006,
          "velocity": 0.7401574803149606
        },
        {
          "duration": 0.09999999999999432,
          "durationTicks": 240,
          "midi": 72,
          "name": "C5",
          "ticks": 131760,
          "time": 54.900000000000006,
          "velocity": 0.7401574803149606
        },
        {
          "duration": 0.09999999999999432,
          "durationTicks": 240,
          "midi": 77,
          "name": "F5",
          "ticks": 131760,
          "time": 54.900000000000006,
          "velocity": 0.7401574803149606
        },
        {
          "duration": 0.10000000000000142,
          "durationTicks": 240,
          "midi": 72,
          "name": "C5",
          "ticks": 132000,
          "time": 55,
          "velocity": 1
        },
        {
          "duration": 0.10000000000000142,
          "durationTicks": 240,
          "midi": 65,
          "name": "F4",
          "ticks": 132000,
          "time": 55,
          "velocity": 1
        },
        {
          "duration": 0.10000000000000142,
          "durationTicks": 240,
          "midi": 77,
          "name": "F5",
          "ticks": 132000,
          "time": 55,
          "velocity": 1
        },
        {
          "duration": 0.10000000000000142,
          "durationTicks": 240,
          "midi": 68,
          "name": "G#4",
          "ticks": 132000,
          "time": 55,
          "velocity": 1
        },
        {
          "duration": 0.10000000000000142,
          "durationTicks": 240,
          "midi": 65,
          "name": "F4",
          "ticks": 132480,
          "time": 55.2,
          "velocity": 0.7401574803149606
        },
        {
          "duration": 0.10000000000000142,
          "durationTicks": 240,
          "midi": 72,
          "name": "C5",
          "ticks": 132480,
          "time": 55.2,
          "velocity": 0.7401574803149606
        },
        {
          "duration": 0.10000000000000142,
          "durationTicks": 240,
          "midi": 77,
          "name": "F5",
          "ticks": 132480,
          "time": 55.2,
          "velocity": 0.7401574803149606
        },
        {
          "duration": 0.10000000000000142,
          "durationTicks": 240,
          "midi": 72,
          "name": "C5",
          "ticks": 132720,
          "time": 55.300000000000004,
          "velocity": 1
        },
        {
          "duration": 0.10000000000000142,
          "durationTicks": 240,
          "midi": 65,
          "name": "F4",
          "ticks": 132720,
          "time": 55.300000000000004,
          "velocity": 1
        },
        {
          "duration": 0.10000000000000142,
          "durationTicks": 240,
          "midi": 77,
          "name": "F5",
          "ticks": 132720,
          "time": 55.300000000000004,
          "velocity": 1
        },
        {
          "duration": 0.10000000000000142,
          "durationTicks": 240,
          "midi": 68,
          "name": "G#4",
          "ticks": 132720,
          "time": 55.300000000000004,
          "velocity": 1
        },
        {
          "duration": 0.10000000000000142,
          "durationTicks": 240,
          "midi": 65,
          "name": "F4",
          "ticks": 133200,
          "time": 55.5,
          "velocity": 0.7401574803149606
        },
        {
          "duration": 0.10000000000000142,
          "durationTicks": 240,
          "midi": 72,
          "name": "C5",
          "ticks": 133200,
          "time": 55.5,
          "velocity": 0.7401574803149606
        },
        {
          "duration": 0.10000000000000142,
          "durationTicks": 240,
          "midi": 77,
          "name": "F5",
          "ticks": 133200,
          "time": 55.5,
          "velocity": 0.7401574803149606
        },
        {
          "duration": 0.10000000000000142,
          "durationTicks": 240,
          "midi": 72,
          "name": "C5",
          "ticks": 133440,
          "time": 55.6,
          "velocity": 1
        },
        {
          "duration": 0.10000000000000142,
          "durationTicks": 240,
          "midi": 65,
          "name": "F4",
          "ticks": 133440,
          "time": 55.6,
          "velocity": 1
        },
        {
          "duration": 0.10000000000000142,
          "durationTicks": 240,
          "midi": 77,
          "name": "F5",
          "ticks": 133440,
          "time": 55.6,
          "velocity": 1
        },
        {
          "duration": 0.10000000000000142,
          "durationTicks": 240,
          "midi": 68,
          "name": "G#4",
          "ticks": 133440,
          "time": 55.6,
          "velocity": 1
        },
        {
          "duration": 0.10000000000000142,
          "durationTicks": 240,
          "midi": 73,
          "name": "C#5",
          "ticks": 133920,
          "time": 55.800000000000004,
          "velocity": 1
        },
        {
          "duration": 0.10000000000000142,
          "durationTicks": 240,
          "midi": 66,
          "name": "F#4",
          "ticks": 133920,
          "time": 55.800000000000004,
          "velocity": 1
        },
        {
          "duration": 0.10000000000000142,
          "durationTicks": 240,
          "midi": 78,
          "name": "F#5",
          "ticks": 133920,
          "time": 55.800000000000004,
          "velocity": 1
        },
        {
          "duration": 0.10000000000000142,
          "durationTicks": 240,
          "midi": 67,
          "name": "G4",
          "ticks": 133920,
          "time": 55.800000000000004,
          "velocity": 1
        },
        {
          "duration": 0.10000000000000142,
          "durationTicks": 240,
          "midi": 77,
          "name": "F5",
          "ticks": 134400,
          "time": 56,
          "velocity": 1
        },
        {
          "duration": 0.10000000000000142,
          "durationTicks": 240,
          "midi": 65,
          "name": "F4",
          "ticks": 134400,
          "time": 56,
          "velocity": 1
        },
        {
          "duration": 0.10000000000000142,
          "durationTicks": 240,
          "midi": 72,
          "name": "C5",
          "ticks": 134400,
          "time": 56,
          "velocity": 1
        },
        {
          "duration": 0.10000000000000142,
          "durationTicks": 240,
          "midi": 70,
          "name": "A#4",
          "ticks": 134400,
          "time": 56,
          "velocity": 1
        },
        {
          "duration": 0.10000000000000142,
          "durationTicks": 240,
          "midi": 65,
          "name": "F4",
          "ticks": 134880,
          "time": 56.2,
          "velocity": 0.7401574803149606
        },
        {
          "duration": 0.10000000000000142,
          "durationTicks": 240,
          "midi": 72,
          "name": "C5",
          "ticks": 134880,
          "time": 56.2,
          "velocity": 0.7401574803149606
        },
        {
          "duration": 0.10000000000000142,
          "durationTicks": 240,
          "midi": 77,
          "name": "F5",
          "ticks": 134880,
          "time": 56.2,
          "velocity": 0.7401574803149606
        },
        {
          "duration": 0.10000000000000142,
          "durationTicks": 240,
          "midi": 77,
          "name": "F5",
          "ticks": 135120,
          "time": 56.300000000000004,
          "velocity": 1
        },
        {
          "duration": 0.10000000000000142,
          "durationTicks": 240,
          "midi": 65,
          "name": "F4",
          "ticks": 135120,
          "time": 56.300000000000004,
          "velocity": 1
        },
        {
          "duration": 0.10000000000000142,
          "durationTicks": 240,
          "midi": 72,
          "name": "C5",
          "ticks": 135120,
          "time": 56.300000000000004,
          "velocity": 1
        },
        {
          "duration": 0.10000000000000142,
          "durationTicks": 240,
          "midi": 70,
          "name": "A#4",
          "ticks": 135120,
          "time": 56.300000000000004,
          "velocity": 1
        },
        {
          "duration": 0.10000000000000142,
          "durationTicks": 240,
          "midi": 65,
          "name": "F4",
          "ticks": 135600,
          "time": 56.5,
          "velocity": 0.7401574803149606
        },
        {
          "duration": 0.10000000000000142,
          "durationTicks": 240,
          "midi": 72,
          "name": "C5",
          "ticks": 135600,
          "time": 56.5,
          "velocity": 0.7401574803149606
        },
        {
          "duration": 0.10000000000000142,
          "durationTicks": 240,
          "midi": 77,
          "name": "F5",
          "ticks": 135600,
          "time": 56.5,
          "velocity": 0.7401574803149606
        },
        {
          "duration": 0.10000000000000142,
          "durationTicks": 240,
          "midi": 77,
          "name": "F5",
          "ticks": 135840,
          "time": 56.6,
          "velocity": 1
        },
        {
          "duration": 0.10000000000000142,
          "durationTicks": 240,
          "midi": 65,
          "name": "F4",
          "ticks": 135840,
          "time": 56.6,
          "velocity": 1
        },
        {
          "duration": 0.10000000000000142,
          "durationTicks": 240,
          "midi": 72,
          "name": "C5",
          "ticks": 135840,
          "time": 56.6,
          "velocity": 1
        },
        {
          "duration": 0.10000000000000142,
          "durationTicks": 240,
          "midi": 70,
          "name": "A#4",
          "ticks": 135840,
          "time": 56.6,
          "velocity": 1
        },
        {
          "duration": 0.10000000000000142,
          "durationTicks": 240,
          "midi": 65,
          "name": "F4",
          "ticks": 136320,
          "time": 56.800000000000004,
          "velocity": 0.7401574803149606
        },
        {
          "duration": 0.10000000000000142,
          "durationTicks": 240,
          "midi": 72,
          "name": "C5",
          "ticks": 136320,
          "time": 56.800000000000004,
          "velocity": 0.7401574803149606
        },
        {
          "duration": 0.10000000000000142,
          "durationTicks": 240,
          "midi": 77,
          "name": "F5",
          "ticks": 136320,
          "time": 56.800000000000004,
          "velocity": 0.7401574803149606
        },
        {
          "duration": 0.09999999999999432,
          "durationTicks": 240,
          "midi": 77,
          "name": "F5",
          "ticks": 136560,
          "time": 56.900000000000006,
          "velocity": 1
        },
        {
          "duration": 0.09999999999999432,
          "durationTicks": 240,
          "midi": 65,
          "name": "F4",
          "ticks": 136560,
          "time": 56.900000000000006,
          "velocity": 1
        },
        {
          "duration": 0.09999999999999432,
          "durationTicks": 240,
          "midi": 72,
          "name": "C5",
          "ticks": 136560,
          "time": 56.900000000000006,
          "velocity": 1
        },
        {
          "duration": 0.09999999999999432,
          "durationTicks": 240,
          "midi": 70,
          "name": "A#4",
          "ticks": 136560,
          "time": 56.900000000000006,
          "velocity": 1
        },
        {
          "duration": 0.10000000000000142,
          "durationTicks": 240,
          "midi": 65,
          "name": "F4",
          "ticks": 137040,
          "time": 57.1,
          "velocity": 0.7401574803149606
        },
        {
          "duration": 0.10000000000000142,
          "durationTicks": 240,
          "midi": 72,
          "name": "C5",
          "ticks": 137040,
          "time": 57.1,
          "velocity": 0.7401574803149606
        },
        {
          "duration": 0.10000000000000142,
          "durationTicks": 240,
          "midi": 77,
          "name": "F5",
          "ticks": 137040,
          "time": 57.1,
          "velocity": 0.7401574803149606
        },
        {
          "duration": 0.10000000000000142,
          "durationTicks": 240,
          "midi": 77,
          "name": "F5",
          "ticks": 137280,
          "time": 57.2,
          "velocity": 1
        },
        {
          "duration": 0.10000000000000142,
          "durationTicks": 240,
          "midi": 65,
          "name": "F4",
          "ticks": 137280,
          "time": 57.2,
          "velocity": 1
        },
        {
          "duration": 0.10000000000000142,
          "durationTicks": 240,
          "midi": 72,
          "name": "C5",
          "ticks": 137280,
          "time": 57.2,
          "velocity": 1
        },
        {
          "duration": 0.10000000000000142,
          "durationTicks": 240,
          "midi": 70,
          "name": "A#4",
          "ticks": 137280,
          "time": 57.2,
          "velocity": 1
        },
        {
          "duration": 0.09999999999999432,
          "durationTicks": 240,
          "midi": 75,
          "name": "D#5",
          "ticks": 137760,
          "time": 57.400000000000006,
          "velocity": 1
        },
        {
          "duration": 0.09999999999999432,
          "durationTicks": 240,
          "midi": 63,
          "name": "D#4",
          "ticks": 137760,
          "time": 57.400000000000006,
          "velocity": 1
        },
        {
          "duration": 0.09999999999999432,
          "durationTicks": 240,
          "midi": 70,
          "name": "A#4",
          "ticks": 137760,
          "time": 57.400000000000006,
          "velocity": 1
        },
        {
          "duration": 0.10000000000000142,
          "durationTicks": 240,
          "midi": 72,
          "name": "C5",
          "ticks": 138240,
          "time": 57.6,
          "velocity": 1
        },
        {
          "duration": 0.10000000000000142,
          "durationTicks": 240,
          "midi": 65,
          "name": "F4",
          "ticks": 138240,
          "time": 57.6,
          "velocity": 1
        },
        {
          "duration": 0.10000000000000142,
          "durationTicks": 240,
          "midi": 77,
          "name": "F5",
          "ticks": 138240,
          "time": 57.6,
          "velocity": 1
        },
        {
          "duration": 0.10000000000000142,
          "durationTicks": 240,
          "midi": 68,
          "name": "G#4",
          "ticks": 138240,
          "time": 57.6,
          "velocity": 1
        },
        {
          "duration": 0.10000000000000142,
          "durationTicks": 240,
          "midi": 65,
          "name": "F4",
          "ticks": 138720,
          "time": 57.800000000000004,
          "velocity": 0.7401574803149606
        },
        {
          "duration": 0.10000000000000142,
          "durationTicks": 240,
          "midi": 72,
          "name": "C5",
          "ticks": 138720,
          "time": 57.800000000000004,
          "velocity": 0.7401574803149606
        },
        {
          "duration": 0.10000000000000142,
          "durationTicks": 240,
          "midi": 77,
          "name": "F5",
          "ticks": 138720,
          "time": 57.800000000000004,
          "velocity": 0.7401574803149606
        },
        {
          "duration": 0.09999999999999432,
          "durationTicks": 240,
          "midi": 72,
          "name": "C5",
          "ticks": 138960,
          "time": 57.900000000000006,
          "velocity": 1
        },
        {
          "duration": 0.09999999999999432,
          "durationTicks": 240,
          "midi": 65,
          "name": "F4",
          "ticks": 138960,
          "time": 57.900000000000006,
          "velocity": 1
        },
        {
          "duration": 0.09999999999999432,
          "durationTicks": 240,
          "midi": 77,
          "name": "F5",
          "ticks": 138960,
          "time": 57.900000000000006,
          "velocity": 1
        },
        {
          "duration": 0.09999999999999432,
          "durationTicks": 240,
          "midi": 67,
          "name": "G4",
          "ticks": 138960,
          "time": 57.900000000000006,
          "velocity": 1
        },
        {
          "duration": 0.10000000000000142,
          "durationTicks": 240,
          "midi": 65,
          "name": "F4",
          "ticks": 139440,
          "time": 58.1,
          "velocity": 0.7401574803149606
        },
        {
          "duration": 0.10000000000000142,
          "durationTicks": 240,
          "midi": 72,
          "name": "C5",
          "ticks": 139440,
          "time": 58.1,
          "velocity": 0.7401574803149606
        },
        {
          "duration": 0.10000000000000142,
          "durationTicks": 240,
          "midi": 77,
          "name": "F5",
          "ticks": 139440,
          "time": 58.1,
          "velocity": 0.7401574803149606
        },
        {
          "duration": 0.10000000000000142,
          "durationTicks": 240,
          "midi": 72,
          "name": "C5",
          "ticks": 139680,
          "time": 58.2,
          "velocity": 1
        },
        {
          "duration": 0.10000000000000142,
          "durationTicks": 240,
          "midi": 65,
          "name": "F4",
          "ticks": 139680,
          "time": 58.2,
          "velocity": 1
        },
        {
          "duration": 0.10000000000000142,
          "durationTicks": 240,
          "midi": 77,
          "name": "F5",
          "ticks": 139680,
          "time": 58.2,
          "velocity": 1
        },
        {
          "duration": 0.10000000000000142,
          "durationTicks": 240,
          "midi": 68,
          "name": "G#4",
          "ticks": 139680,
          "time": 58.2,
          "velocity": 1
        },
        {
          "duration": 0.09999999999999432,
          "durationTicks": 240,
          "midi": 65,
          "name": "F4",
          "ticks": 140160,
          "time": 58.400000000000006,
          "velocity": 0.7401574803149606
        },
        {
          "duration": 0.09999999999999432,
          "durationTicks": 240,
          "midi": 72,
          "name": "C5",
          "ticks": 140160,
          "time": 58.400000000000006,
          "velocity": 0.7401574803149606
        },
        {
          "duration": 0.09999999999999432,
          "durationTicks": 240,
          "midi": 77,
          "name": "F5",
          "ticks": 140160,
          "time": 58.400000000000006,
          "velocity": 0.7401574803149606
        },
        {
          "duration": 0.10000000000000142,
          "durationTicks": 240,
          "midi": 72,
          "name": "C5",
          "ticks": 140400,
          "time": 58.5,
          "velocity": 1
        },
        {
          "duration": 0.10000000000000142,
          "durationTicks": 240,
          "midi": 65,
          "name": "F4",
          "ticks": 140400,
          "time": 58.5,
          "velocity": 1
        },
        {
          "duration": 0.10000000000000142,
          "durationTicks": 240,
          "midi": 77,
          "name": "F5",
          "ticks": 140400,
          "time": 58.5,
          "velocity": 1
        },
        {
          "duration": 0.10000000000000142,
          "durationTicks": 240,
          "midi": 68,
          "name": "G#4",
          "ticks": 140400,
          "time": 58.5,
          "velocity": 1
        },
        {
          "duration": 0.10000000000000142,
          "durationTicks": 240,
          "midi": 65,
          "name": "F4",
          "ticks": 140880,
          "time": 58.7,
          "velocity": 0.7401574803149606
        },
        {
          "duration": 0.10000000000000142,
          "durationTicks": 240,
          "midi": 72,
          "name": "C5",
          "ticks": 140880,
          "time": 58.7,
          "velocity": 0.7401574803149606
        },
        {
          "duration": 0.10000000000000142,
          "durationTicks": 240,
          "midi": 77,
          "name": "F5",
          "ticks": 140880,
          "time": 58.7,
          "velocity": 0.7401574803149606
        },
        {
          "duration": 0.10000000000000142,
          "durationTicks": 240,
          "midi": 72,
          "name": "C5",
          "ticks": 141120,
          "time": 58.800000000000004,
          "velocity": 1
        },
        {
          "duration": 0.10000000000000142,
          "durationTicks": 240,
          "midi": 65,
          "name": "F4",
          "ticks": 141120,
          "time": 58.800000000000004,
          "velocity": 1
        },
        {
          "duration": 0.10000000000000142,
          "durationTicks": 240,
          "midi": 77,
          "name": "F5",
          "ticks": 141120,
          "time": 58.800000000000004,
          "velocity": 1
        },
        {
          "duration": 0.10000000000000142,
          "durationTicks": 240,
          "midi": 68,
          "name": "G#4",
          "ticks": 141120,
          "time": 58.800000000000004,
          "velocity": 1
        },
        {
          "duration": 0.10000000000000142,
          "durationTicks": 240,
          "midi": 73,
          "name": "C#5",
          "ticks": 141600,
          "time": 59,
          "velocity": 1
        },
        {
          "duration": 0.10000000000000142,
          "durationTicks": 240,
          "midi": 66,
          "name": "F#4",
          "ticks": 141600,
          "time": 59,
          "velocity": 1
        },
        {
          "duration": 0.10000000000000142,
          "durationTicks": 240,
          "midi": 78,
          "name": "F#5",
          "ticks": 141600,
          "time": 59,
          "velocity": 1
        },
        {
          "duration": 0.10000000000000142,
          "durationTicks": 240,
          "midi": 67,
          "name": "G4",
          "ticks": 141600,
          "time": 59,
          "velocity": 1
        },
        {
          "duration": 0.10000000000000142,
          "durationTicks": 240,
          "midi": 77,
          "name": "F5",
          "ticks": 142080,
          "time": 59.2,
          "velocity": 1
        },
        {
          "duration": 0.10000000000000142,
          "durationTicks": 240,
          "midi": 65,
          "name": "F4",
          "ticks": 142080,
          "time": 59.2,
          "velocity": 1
        },
        {
          "duration": 0.10000000000000142,
          "durationTicks": 240,
          "midi": 72,
          "name": "C5",
          "ticks": 142080,
          "time": 59.2,
          "velocity": 1
        },
        {
          "duration": 0.10000000000000142,
          "durationTicks": 240,
          "midi": 68,
          "name": "G#4",
          "ticks": 142080,
          "time": 59.2,
          "velocity": 1
        },
        {
          "duration": 0.09999999999999432,
          "durationTicks": 240,
          "midi": 65,
          "name": "F4",
          "ticks": 142560,
          "time": 59.400000000000006,
          "velocity": 0.7401574803149606
        },
        {
          "duration": 0.09999999999999432,
          "durationTicks": 240,
          "midi": 72,
          "name": "C5",
          "ticks": 142560,
          "time": 59.400000000000006,
          "velocity": 0.7401574803149606
        },
        {
          "duration": 0.09999999999999432,
          "durationTicks": 240,
          "midi": 77,
          "name": "F5",
          "ticks": 142560,
          "time": 59.400000000000006,
          "velocity": 0.7401574803149606
        },
        {
          "duration": 0.10000000000000142,
          "durationTicks": 240,
          "midi": 77,
          "name": "F5",
          "ticks": 142800,
          "time": 59.5,
          "velocity": 1
        },
        {
          "duration": 0.10000000000000142,
          "durationTicks": 240,
          "midi": 65,
          "name": "F4",
          "ticks": 142800,
          "time": 59.5,
          "velocity": 1
        },
        {
          "duration": 0.10000000000000142,
          "durationTicks": 240,
          "midi": 72,
          "name": "C5",
          "ticks": 142800,
          "time": 59.5,
          "velocity": 1
        },
        {
          "duration": 0.10000000000000142,
          "durationTicks": 240,
          "midi": 67,
          "name": "G4",
          "ticks": 142800,
          "time": 59.5,
          "velocity": 1
        },
        {
          "duration": 0.10000000000000142,
          "durationTicks": 240,
          "midi": 65,
          "name": "F4",
          "ticks": 143280,
          "time": 59.7,
          "velocity": 0.7401574803149606
        },
        {
          "duration": 0.10000000000000142,
          "durationTicks": 240,
          "midi": 72,
          "name": "C5",
          "ticks": 143280,
          "time": 59.7,
          "velocity": 0.7401574803149606
        },
        {
          "duration": 0.10000000000000142,
          "durationTicks": 240,
          "midi": 77,
          "name": "F5",
          "ticks": 143280,
          "time": 59.7,
          "velocity": 0.7401574803149606
        },
        {
          "duration": 0.10000000000000142,
          "durationTicks": 240,
          "midi": 77,
          "name": "F5",
          "ticks": 143520,
          "time": 59.800000000000004,
          "velocity": 1
        },
        {
          "duration": 0.10000000000000142,
          "durationTicks": 240,
          "midi": 65,
          "name": "F4",
          "ticks": 143520,
          "time": 59.800000000000004,
          "velocity": 1
        },
        {
          "duration": 0.10000000000000142,
          "durationTicks": 240,
          "midi": 72,
          "name": "C5",
          "ticks": 143520,
          "time": 59.800000000000004,
          "velocity": 1
        },
        {
          "duration": 0.10000000000000142,
          "durationTicks": 240,
          "midi": 68,
          "name": "G#4",
          "ticks": 143520,
          "time": 59.800000000000004,
          "velocity": 1
        },
        {
          "duration": 0.10000000000000142,
          "durationTicks": 240,
          "midi": 65,
          "name": "F4",
          "ticks": 144000,
          "time": 60,
          "velocity": 0.7401574803149606
        },
        {
          "duration": 0.10000000000000142,
          "durationTicks": 240,
          "midi": 72,
          "name": "C5",
          "ticks": 144000,
          "time": 60,
          "velocity": 0.7401574803149606
        },
        {
          "duration": 0.10000000000000142,
          "durationTicks": 240,
          "midi": 77,
          "name": "F5",
          "ticks": 144000,
          "time": 60,
          "velocity": 0.7401574803149606
        },
        {
          "duration": 0.10000000000000142,
          "durationTicks": 240,
          "midi": 77,
          "name": "F5",
          "ticks": 144240,
          "time": 60.1,
          "velocity": 1
        },
        {
          "duration": 0.10000000000000142,
          "durationTicks": 240,
          "midi": 65,
          "name": "F4",
          "ticks": 144240,
          "time": 60.1,
          "velocity": 1
        },
        {
          "duration": 0.10000000000000142,
          "durationTicks": 240,
          "midi": 72,
          "name": "C5",
          "ticks": 144240,
          "time": 60.1,
          "velocity": 1
        },
        {
          "duration": 0.10000000000000142,
          "durationTicks": 240,
          "midi": 68,
          "name": "G#4",
          "ticks": 144240,
          "time": 60.1,
          "velocity": 1
        },
        {
          "duration": 0.10000000000000142,
          "durationTicks": 240,
          "midi": 65,
          "name": "F4",
          "ticks": 144720,
          "time": 60.300000000000004,
          "velocity": 0.7401574803149606
        },
        {
          "duration": 0.10000000000000142,
          "durationTicks": 240,
          "midi": 72,
          "name": "C5",
          "ticks": 144720,
          "time": 60.300000000000004,
          "velocity": 0.7401574803149606
        },
        {
          "duration": 0.10000000000000142,
          "durationTicks": 240,
          "midi": 77,
          "name": "F5",
          "ticks": 144720,
          "time": 60.300000000000004,
          "velocity": 0.7401574803149606
        },
        {
          "duration": 0.09999999999999432,
          "durationTicks": 240,
          "midi": 77,
          "name": "F5",
          "ticks": 144960,
          "time": 60.400000000000006,
          "velocity": 1
        },
        {
          "duration": 0.09999999999999432,
          "durationTicks": 240,
          "midi": 65,
          "name": "F4",
          "ticks": 144960,
          "time": 60.400000000000006,
          "velocity": 1
        },
        {
          "duration": 0.09999999999999432,
          "durationTicks": 240,
          "midi": 72,
          "name": "C5",
          "ticks": 144960,
          "time": 60.400000000000006,
          "velocity": 1
        },
        {
          "duration": 0.09999999999999432,
          "durationTicks": 240,
          "midi": 68,
          "name": "G#4",
          "ticks": 144960,
          "time": 60.400000000000006,
          "velocity": 1
        },
        {
          "duration": 0.10000000000000142,
          "durationTicks": 240,
          "midi": 75,
          "name": "D#5",
          "ticks": 145440,
          "time": 60.6,
          "velocity": 1
        },
        {
          "duration": 0.10000000000000142,
          "durationTicks": 240,
          "midi": 63,
          "name": "D#4",
          "ticks": 145440,
          "time": 60.6,
          "velocity": 1
        },
        {
          "duration": 0.10000000000000142,
          "durationTicks": 240,
          "midi": 70,
          "name": "A#4",
          "ticks": 145440,
          "time": 60.6,
          "velocity": 1
        },
        {
          "duration": 0.10000000000000142,
          "durationTicks": 240,
          "midi": 67,
          "name": "G4",
          "ticks": 145440,
          "time": 60.6,
          "velocity": 1
        },
        {
          "duration": 0.10000000000000142,
          "durationTicks": 240,
          "midi": 72,
          "name": "C5",
          "ticks": 145920,
          "time": 60.800000000000004,
          "velocity": 1
        },
        {
          "duration": 0.10000000000000142,
          "durationTicks": 240,
          "midi": 65,
          "name": "F4",
          "ticks": 145920,
          "time": 60.800000000000004,
          "velocity": 1
        },
        {
          "duration": 0.10000000000000142,
          "durationTicks": 240,
          "midi": 77,
          "name": "F5",
          "ticks": 145920,
          "time": 60.800000000000004,
          "velocity": 1
        },
        {
          "duration": 0.10000000000000142,
          "durationTicks": 240,
          "midi": 68,
          "name": "G#4",
          "ticks": 145920,
          "time": 60.800000000000004,
          "velocity": 1
        },
        {
          "duration": 0.10000000000000142,
          "durationTicks": 240,
          "midi": 65,
          "name": "F4",
          "ticks": 146400,
          "time": 61,
          "velocity": 0.7401574803149606
        },
        {
          "duration": 0.10000000000000142,
          "durationTicks": 240,
          "midi": 72,
          "name": "C5",
          "ticks": 146400,
          "time": 61,
          "velocity": 0.7401574803149606
        },
        {
          "duration": 0.10000000000000142,
          "durationTicks": 240,
          "midi": 77,
          "name": "F5",
          "ticks": 146400,
          "time": 61,
          "velocity": 0.7401574803149606
        },
        {
          "duration": 0.10000000000000142,
          "durationTicks": 240,
          "midi": 72,
          "name": "C5",
          "ticks": 146640,
          "time": 61.1,
          "velocity": 1
        },
        {
          "duration": 0.10000000000000142,
          "durationTicks": 240,
          "midi": 65,
          "name": "F4",
          "ticks": 146640,
          "time": 61.1,
          "velocity": 1
        },
        {
          "duration": 0.10000000000000142,
          "durationTicks": 240,
          "midi": 77,
          "name": "F5",
          "ticks": 146640,
          "time": 61.1,
          "velocity": 1
        },
        {
          "duration": 0.10000000000000142,
          "durationTicks": 240,
          "midi": 67,
          "name": "G4",
          "ticks": 146640,
          "time": 61.1,
          "velocity": 1
        },
        {
          "duration": 0.10000000000000142,
          "durationTicks": 240,
          "midi": 65,
          "name": "F4",
          "ticks": 147120,
          "time": 61.300000000000004,
          "velocity": 0.7401574803149606
        },
        {
          "duration": 0.10000000000000142,
          "durationTicks": 240,
          "midi": 72,
          "name": "C5",
          "ticks": 147120,
          "time": 61.300000000000004,
          "velocity": 0.7401574803149606
        },
        {
          "duration": 0.10000000000000142,
          "durationTicks": 240,
          "midi": 77,
          "name": "F5",
          "ticks": 147120,
          "time": 61.300000000000004,
          "velocity": 0.7401574803149606
        },
        {
          "duration": 0.09999999999999432,
          "durationTicks": 240,
          "midi": 72,
          "name": "C5",
          "ticks": 147360,
          "time": 61.400000000000006,
          "velocity": 1
        },
        {
          "duration": 0.09999999999999432,
          "durationTicks": 240,
          "midi": 65,
          "name": "F4",
          "ticks": 147360,
          "time": 61.400000000000006,
          "velocity": 1
        },
        {
          "duration": 0.09999999999999432,
          "durationTicks": 240,
          "midi": 77,
          "name": "F5",
          "ticks": 147360,
          "time": 61.400000000000006,
          "velocity": 1
        },
        {
          "duration": 0.09999999999999432,
          "durationTicks": 240,
          "midi": 68,
          "name": "G#4",
          "ticks": 147360,
          "time": 61.400000000000006,
          "velocity": 1
        },
        {
          "duration": 0.10000000000000142,
          "durationTicks": 240,
          "midi": 65,
          "name": "F4",
          "ticks": 147840,
          "time": 61.6,
          "velocity": 0.7401574803149606
        },
        {
          "duration": 0.10000000000000142,
          "durationTicks": 240,
          "midi": 72,
          "name": "C5",
          "ticks": 147840,
          "time": 61.6,
          "velocity": 0.7401574803149606
        },
        {
          "duration": 0.10000000000000142,
          "durationTicks": 240,
          "midi": 77,
          "name": "F5",
          "ticks": 147840,
          "time": 61.6,
          "velocity": 0.7401574803149606
        },
        {
          "duration": 0.10000000000000142,
          "durationTicks": 240,
          "midi": 72,
          "name": "C5",
          "ticks": 148080,
          "time": 61.7,
          "velocity": 1
        },
        {
          "duration": 0.10000000000000142,
          "durationTicks": 240,
          "midi": 65,
          "name": "F4",
          "ticks": 148080,
          "time": 61.7,
          "velocity": 1
        },
        {
          "duration": 0.10000000000000142,
          "durationTicks": 240,
          "midi": 77,
          "name": "F5",
          "ticks": 148080,
          "time": 61.7,
          "velocity": 1
        },
        {
          "duration": 0.10000000000000142,
          "durationTicks": 240,
          "midi": 68,
          "name": "G#4",
          "ticks": 148080,
          "time": 61.7,
          "velocity": 1
        },
        {
          "duration": 0.09999999999999432,
          "durationTicks": 240,
          "midi": 65,
          "name": "F4",
          "ticks": 148560,
          "time": 61.900000000000006,
          "velocity": 0.7401574803149606
        },
        {
          "duration": 0.09999999999999432,
          "durationTicks": 240,
          "midi": 72,
          "name": "C5",
          "ticks": 148560,
          "time": 61.900000000000006,
          "velocity": 0.7401574803149606
        },
        {
          "duration": 0.09999999999999432,
          "durationTicks": 240,
          "midi": 77,
          "name": "F5",
          "ticks": 148560,
          "time": 61.900000000000006,
          "velocity": 0.7401574803149606
        },
        {
          "duration": 0.10000000000000142,
          "durationTicks": 240,
          "midi": 72,
          "name": "C5",
          "ticks": 148800,
          "time": 62,
          "velocity": 1
        },
        {
          "duration": 0.10000000000000142,
          "durationTicks": 240,
          "midi": 65,
          "name": "F4",
          "ticks": 148800,
          "time": 62,
          "velocity": 1
        },
        {
          "duration": 0.10000000000000142,
          "durationTicks": 240,
          "midi": 77,
          "name": "F5",
          "ticks": 148800,
          "time": 62,
          "velocity": 1
        },
        {
          "duration": 0.10000000000000142,
          "durationTicks": 240,
          "midi": 68,
          "name": "G#4",
          "ticks": 148800,
          "time": 62,
          "velocity": 1
        },
        {
          "duration": 0.10000000000000142,
          "durationTicks": 240,
          "midi": 73,
          "name": "C#5",
          "ticks": 149280,
          "time": 62.2,
          "velocity": 1
        },
        {
          "duration": 0.10000000000000142,
          "durationTicks": 240,
          "midi": 66,
          "name": "F#4",
          "ticks": 149280,
          "time": 62.2,
          "velocity": 1
        },
        {
          "duration": 0.10000000000000142,
          "durationTicks": 240,
          "midi": 78,
          "name": "F#5",
          "ticks": 149280,
          "time": 62.2,
          "velocity": 1
        },
        {
          "duration": 0.10000000000000142,
          "durationTicks": 240,
          "midi": 67,
          "name": "G4",
          "ticks": 149280,
          "time": 62.2,
          "velocity": 1
        },
        {
          "duration": 0.09999999999999432,
          "durationTicks": 240,
          "midi": 77,
          "name": "F5",
          "ticks": 149760,
          "time": 62.400000000000006,
          "velocity": 1
        },
        {
          "duration": 0.09999999999999432,
          "durationTicks": 240,
          "midi": 65,
          "name": "F4",
          "ticks": 149760,
          "time": 62.400000000000006,
          "velocity": 1
        },
        {
          "duration": 0.09999999999999432,
          "durationTicks": 240,
          "midi": 72,
          "name": "C5",
          "ticks": 149760,
          "time": 62.400000000000006,
          "velocity": 1
        },
        {
          "duration": 0.09999999999999432,
          "durationTicks": 240,
          "midi": 70,
          "name": "A#4",
          "ticks": 149760,
          "time": 62.400000000000006,
          "velocity": 1
        },
        {
          "duration": 0.10000000000000142,
          "durationTicks": 240,
          "midi": 65,
          "name": "F4",
          "ticks": 150240,
          "time": 62.6,
          "velocity": 0.7401574803149606
        },
        {
          "duration": 0.10000000000000142,
          "durationTicks": 240,
          "midi": 72,
          "name": "C5",
          "ticks": 150240,
          "time": 62.6,
          "velocity": 0.7401574803149606
        },
        {
          "duration": 0.10000000000000142,
          "durationTicks": 240,
          "midi": 77,
          "name": "F5",
          "ticks": 150240,
          "time": 62.6,
          "velocity": 0.7401574803149606
        },
        {
          "duration": 0.10000000000000142,
          "durationTicks": 240,
          "midi": 77,
          "name": "F5",
          "ticks": 150480,
          "time": 62.7,
          "velocity": 1
        },
        {
          "duration": 0.10000000000000142,
          "durationTicks": 240,
          "midi": 65,
          "name": "F4",
          "ticks": 150480,
          "time": 62.7,
          "velocity": 1
        },
        {
          "duration": 0.10000000000000142,
          "durationTicks": 240,
          "midi": 72,
          "name": "C5",
          "ticks": 150480,
          "time": 62.7,
          "velocity": 1
        },
        {
          "duration": 0.10000000000000142,
          "durationTicks": 240,
          "midi": 70,
          "name": "A#4",
          "ticks": 150480,
          "time": 62.7,
          "velocity": 1
        },
        {
          "duration": 0.09999999999999432,
          "durationTicks": 240,
          "midi": 65,
          "name": "F4",
          "ticks": 150960,
          "time": 62.900000000000006,
          "velocity": 0.7401574803149606
        },
        {
          "duration": 0.09999999999999432,
          "durationTicks": 240,
          "midi": 72,
          "name": "C5",
          "ticks": 150960,
          "time": 62.900000000000006,
          "velocity": 0.7401574803149606
        },
        {
          "duration": 0.09999999999999432,
          "durationTicks": 240,
          "midi": 77,
          "name": "F5",
          "ticks": 150960,
          "time": 62.900000000000006,
          "velocity": 0.7401574803149606
        },
        {
          "duration": 0.10000000000000142,
          "durationTicks": 240,
          "midi": 77,
          "name": "F5",
          "ticks": 151200,
          "time": 63,
          "velocity": 1
        },
        {
          "duration": 0.10000000000000142,
          "durationTicks": 240,
          "midi": 65,
          "name": "F4",
          "ticks": 151200,
          "time": 63,
          "velocity": 1
        },
        {
          "duration": 0.10000000000000142,
          "durationTicks": 240,
          "midi": 72,
          "name": "C5",
          "ticks": 151200,
          "time": 63,
          "velocity": 1
        },
        {
          "duration": 0.10000000000000142,
          "durationTicks": 240,
          "midi": 70,
          "name": "A#4",
          "ticks": 151200,
          "time": 63,
          "velocity": 1
        },
        {
          "duration": 0.10000000000000142,
          "durationTicks": 240,
          "midi": 65,
          "name": "F4",
          "ticks": 151680,
          "time": 63.2,
          "velocity": 0.7401574803149606
        },
        {
          "duration": 0.10000000000000142,
          "durationTicks": 240,
          "midi": 72,
          "name": "C5",
          "ticks": 151680,
          "time": 63.2,
          "velocity": 0.7401574803149606
        },
        {
          "duration": 0.10000000000000142,
          "durationTicks": 240,
          "midi": 77,
          "name": "F5",
          "ticks": 151680,
          "time": 63.2,
          "velocity": 0.7401574803149606
        },
        {
          "duration": 0.10000000000000142,
          "durationTicks": 240,
          "midi": 77,
          "name": "F5",
          "ticks": 151920,
          "time": 63.300000000000004,
          "velocity": 1
        },
        {
          "duration": 0.10000000000000142,
          "durationTicks": 240,
          "midi": 65,
          "name": "F4",
          "ticks": 151920,
          "time": 63.300000000000004,
          "velocity": 1
        },
        {
          "duration": 0.10000000000000142,
          "durationTicks": 240,
          "midi": 72,
          "name": "C5",
          "ticks": 151920,
          "time": 63.300000000000004,
          "velocity": 1
        },
        {
          "duration": 0.10000000000000142,
          "durationTicks": 240,
          "midi": 70,
          "name": "A#4",
          "ticks": 151920,
          "time": 63.300000000000004,
          "velocity": 1
        },
        {
          "duration": 0.10000000000000142,
          "durationTicks": 240,
          "midi": 65,
          "name": "F4",
          "ticks": 152400,
          "time": 63.5,
          "velocity": 0.7401574803149606
        },
        {
          "duration": 0.10000000000000142,
          "durationTicks": 240,
          "midi": 72,
          "name": "C5",
          "ticks": 152400,
          "time": 63.5,
          "velocity": 0.7401574803149606
        },
        {
          "duration": 0.10000000000000142,
          "durationTicks": 240,
          "midi": 77,
          "name": "F5",
          "ticks": 152400,
          "time": 63.5,
          "velocity": 0.7401574803149606
        },
        {
          "duration": 0.10000000000000142,
          "durationTicks": 240,
          "midi": 77,
          "name": "F5",
          "ticks": 152640,
          "time": 63.6,
          "velocity": 1
        },
        {
          "duration": 0.10000000000000142,
          "durationTicks": 240,
          "midi": 65,
          "name": "F4",
          "ticks": 152640,
          "time": 63.6,
          "velocity": 1
        },
        {
          "duration": 0.10000000000000142,
          "durationTicks": 240,
          "midi": 72,
          "name": "C5",
          "ticks": 152640,
          "time": 63.6,
          "velocity": 1
        },
        {
          "duration": 0.10000000000000142,
          "durationTicks": 240,
          "midi": 70,
          "name": "A#4",
          "ticks": 152640,
          "time": 63.6,
          "velocity": 1
        },
        {
          "duration": 0.10000000000000142,
          "durationTicks": 240,
          "midi": 75,
          "name": "D#5",
          "ticks": 153120,
          "time": 63.800000000000004,
          "velocity": 1
        },
        {
          "duration": 0.10000000000000142,
          "durationTicks": 240,
          "midi": 63,
          "name": "D#4",
          "ticks": 153120,
          "time": 63.800000000000004,
          "velocity": 1
        },
        {
          "duration": 0.10000000000000142,
          "durationTicks": 240,
          "midi": 70,
          "name": "A#4",
          "ticks": 153120,
          "time": 63.800000000000004,
          "velocity": 1
        },
        {
          "duration": 0.10000000000000853,
          "durationTicks": 240,
          "midi": 72,
          "name": "C5",
          "ticks": 153600,
          "time": 64,
          "velocity": 1
        },
        {
          "duration": 0.10000000000000853,
          "durationTicks": 240,
          "midi": 65,
          "name": "F4",
          "ticks": 153600,
          "time": 64,
          "velocity": 1
        },
        {
          "duration": 0.10000000000000853,
          "durationTicks": 240,
          "midi": 77,
          "name": "F5",
          "ticks": 153600,
          "time": 64,
          "velocity": 1
        },
        {
          "duration": 0.10000000000000853,
          "durationTicks": 240,
          "midi": 68,
          "name": "G#4",
          "ticks": 153600,
          "time": 64,
          "velocity": 1
        },
        {
          "duration": 0.09999999999999432,
          "durationTicks": 240,
          "midi": 65,
          "name": "F4",
          "ticks": 154080,
          "time": 64.2,
          "velocity": 0.7401574803149606
        },
        {
          "duration": 0.09999999999999432,
          "durationTicks": 240,
          "midi": 72,
          "name": "C5",
          "ticks": 154080,
          "time": 64.2,
          "velocity": 0.7401574803149606
        },
        {
          "duration": 0.09999999999999432,
          "durationTicks": 240,
          "midi": 77,
          "name": "F5",
          "ticks": 154080,
          "time": 64.2,
          "velocity": 0.7401574803149606
        },
        {
          "duration": 0.10000000000000853,
          "durationTicks": 240,
          "midi": 72,
          "name": "C5",
          "ticks": 154320,
          "time": 64.3,
          "velocity": 1
        },
        {
          "duration": 0.10000000000000853,
          "durationTicks": 240,
          "midi": 65,
          "name": "F4",
          "ticks": 154320,
          "time": 64.3,
          "velocity": 1
        },
        {
          "duration": 0.10000000000000853,
          "durationTicks": 240,
          "midi": 77,
          "name": "F5",
          "ticks": 154320,
          "time": 64.3,
          "velocity": 1
        },
        {
          "duration": 0.10000000000000853,
          "durationTicks": 240,
          "midi": 67,
          "name": "G4",
          "ticks": 154320,
          "time": 64.3,
          "velocity": 1
        },
        {
          "duration": 0.10000000000000853,
          "durationTicks": 240,
          "midi": 65,
          "name": "F4",
          "ticks": 154800,
          "time": 64.5,
          "velocity": 0.7401574803149606
        },
        {
          "duration": 0.10000000000000853,
          "durationTicks": 240,
          "midi": 72,
          "name": "C5",
          "ticks": 154800,
          "time": 64.5,
          "velocity": 0.7401574803149606
        },
        {
          "duration": 0.10000000000000853,
          "durationTicks": 240,
          "midi": 77,
          "name": "F5",
          "ticks": 154800,
          "time": 64.5,
          "velocity": 0.7401574803149606
        },
        {
          "duration": 0.09999999999999432,
          "durationTicks": 240,
          "midi": 72,
          "name": "C5",
          "ticks": 155040,
          "time": 64.60000000000001,
          "velocity": 1
        },
        {
          "duration": 0.09999999999999432,
          "durationTicks": 240,
          "midi": 65,
          "name": "F4",
          "ticks": 155040,
          "time": 64.60000000000001,
          "velocity": 1
        },
        {
          "duration": 0.09999999999999432,
          "durationTicks": 240,
          "midi": 77,
          "name": "F5",
          "ticks": 155040,
          "time": 64.60000000000001,
          "velocity": 1
        },
        {
          "duration": 0.09999999999999432,
          "durationTicks": 240,
          "midi": 68,
          "name": "G#4",
          "ticks": 155040,
          "time": 64.60000000000001,
          "velocity": 1
        },
        {
          "duration": 0.10000000000000853,
          "durationTicks": 240,
          "midi": 65,
          "name": "F4",
          "ticks": 155520,
          "time": 64.8,
          "velocity": 0.7401574803149606
        },
        {
          "duration": 0.10000000000000853,
          "durationTicks": 240,
          "midi": 72,
          "name": "C5",
          "ticks": 155520,
          "time": 64.8,
          "velocity": 0.7401574803149606
        },
        {
          "duration": 0.10000000000000853,
          "durationTicks": 240,
          "midi": 77,
          "name": "F5",
          "ticks": 155520,
          "time": 64.8,
          "velocity": 0.7401574803149606
        },
        {
          "duration": 0.09999999999999432,
          "durationTicks": 240,
          "midi": 72,
          "name": "C5",
          "ticks": 155760,
          "time": 64.9,
          "velocity": 1
        },
        {
          "duration": 0.09999999999999432,
          "durationTicks": 240,
          "midi": 65,
          "name": "F4",
          "ticks": 155760,
          "time": 64.9,
          "velocity": 1
        },
        {
          "duration": 0.09999999999999432,
          "durationTicks": 240,
          "midi": 77,
          "name": "F5",
          "ticks": 155760,
          "time": 64.9,
          "velocity": 1
        },
        {
          "duration": 0.09999999999999432,
          "durationTicks": 240,
          "midi": 68,
          "name": "G#4",
          "ticks": 155760,
          "time": 64.9,
          "velocity": 1
        },
        {
          "duration": 0.09999999999999432,
          "durationTicks": 240,
          "midi": 65,
          "name": "F4",
          "ticks": 156240,
          "time": 65.10000000000001,
          "velocity": 0.7401574803149606
        },
        {
          "duration": 0.09999999999999432,
          "durationTicks": 240,
          "midi": 72,
          "name": "C5",
          "ticks": 156240,
          "time": 65.10000000000001,
          "velocity": 0.7401574803149606
        },
        {
          "duration": 0.09999999999999432,
          "durationTicks": 240,
          "midi": 77,
          "name": "F5",
          "ticks": 156240,
          "time": 65.10000000000001,
          "velocity": 0.7401574803149606
        },
        {
          "duration": 0.09999999999999432,
          "durationTicks": 240,
          "midi": 72,
          "name": "C5",
          "ticks": 156480,
          "time": 65.2,
          "velocity": 1
        },
        {
          "duration": 0.09999999999999432,
          "durationTicks": 240,
          "midi": 65,
          "name": "F4",
          "ticks": 156480,
          "time": 65.2,
          "velocity": 1
        },
        {
          "duration": 0.09999999999999432,
          "durationTicks": 240,
          "midi": 77,
          "name": "F5",
          "ticks": 156480,
          "time": 65.2,
          "velocity": 1
        },
        {
          "duration": 0.09999999999999432,
          "durationTicks": 240,
          "midi": 68,
          "name": "G#4",
          "ticks": 156480,
          "time": 65.2,
          "velocity": 1
        },
        {
          "duration": 0.09999999999999432,
          "durationTicks": 240,
          "midi": 73,
          "name": "C#5",
          "ticks": 156960,
          "time": 65.4,
          "velocity": 1
        },
        {
          "duration": 0.09999999999999432,
          "durationTicks": 240,
          "midi": 66,
          "name": "F#4",
          "ticks": 156960,
          "time": 65.4,
          "velocity": 1
        },
        {
          "duration": 0.09999999999999432,
          "durationTicks": 240,
          "midi": 78,
          "name": "F#5",
          "ticks": 156960,
          "time": 65.4,
          "velocity": 1
        },
        {
          "duration": 0.09999999999999432,
          "durationTicks": 240,
          "midi": 67,
          "name": "G4",
          "ticks": 156960,
          "time": 65.4,
          "velocity": 1
        },
        {
          "duration": 0.09999999999999432,
          "durationTicks": 240,
          "midi": 77,
          "name": "F5",
          "ticks": 157440,
          "time": 65.60000000000001,
          "velocity": 1
        },
        {
          "duration": 0.09999999999999432,
          "durationTicks": 240,
          "midi": 65,
          "name": "F4",
          "ticks": 157440,
          "time": 65.60000000000001,
          "velocity": 1
        },
        {
          "duration": 0.09999999999999432,
          "durationTicks": 240,
          "midi": 72,
          "name": "C5",
          "ticks": 157440,
          "time": 65.60000000000001,
          "velocity": 1
        },
        {
          "duration": 0.09999999999999432,
          "durationTicks": 240,
          "midi": 68,
          "name": "G#4",
          "ticks": 157440,
          "time": 65.60000000000001,
          "velocity": 1
        },
        {
          "duration": 0.10000000000000853,
          "durationTicks": 240,
          "midi": 65,
          "name": "F4",
          "ticks": 157920,
          "time": 65.8,
          "velocity": 0.7401574803149606
        },
        {
          "duration": 0.10000000000000853,
          "durationTicks": 240,
          "midi": 72,
          "name": "C5",
          "ticks": 157920,
          "time": 65.8,
          "velocity": 0.7401574803149606
        },
        {
          "duration": 0.10000000000000853,
          "durationTicks": 240,
          "midi": 77,
          "name": "F5",
          "ticks": 157920,
          "time": 65.8,
          "velocity": 0.7401574803149606
        },
        {
          "duration": 0.09999999999999432,
          "durationTicks": 240,
          "midi": 77,
          "name": "F5",
          "ticks": 158160,
          "time": 65.9,
          "velocity": 1
        },
        {
          "duration": 0.09999999999999432,
          "durationTicks": 240,
          "midi": 65,
          "name": "F4",
          "ticks": 158160,
          "time": 65.9,
          "velocity": 1
        },
        {
          "duration": 0.09999999999999432,
          "durationTicks": 240,
          "midi": 72,
          "name": "C5",
          "ticks": 158160,
          "time": 65.9,
          "velocity": 1
        },
        {
          "duration": 0.09999999999999432,
          "durationTicks": 240,
          "midi": 67,
          "name": "G4",
          "ticks": 158160,
          "time": 65.9,
          "velocity": 1
        },
        {
          "duration": 0.09999999999999432,
          "durationTicks": 240,
          "midi": 65,
          "name": "F4",
          "ticks": 158640,
          "time": 66.10000000000001,
          "velocity": 0.7401574803149606
        },
        {
          "duration": 0.09999999999999432,
          "durationTicks": 240,
          "midi": 72,
          "name": "C5",
          "ticks": 158640,
          "time": 66.10000000000001,
          "velocity": 0.7401574803149606
        },
        {
          "duration": 0.09999999999999432,
          "durationTicks": 240,
          "midi": 77,
          "name": "F5",
          "ticks": 158640,
          "time": 66.10000000000001,
          "velocity": 0.7401574803149606
        },
        {
          "duration": 0.09999999999999432,
          "durationTicks": 240,
          "midi": 77,
          "name": "F5",
          "ticks": 158880,
          "time": 66.2,
          "velocity": 1
        },
        {
          "duration": 0.09999999999999432,
          "durationTicks": 240,
          "midi": 65,
          "name": "F4",
          "ticks": 158880,
          "time": 66.2,
          "velocity": 1
        },
        {
          "duration": 0.09999999999999432,
          "durationTicks": 240,
          "midi": 72,
          "name": "C5",
          "ticks": 158880,
          "time": 66.2,
          "velocity": 1
        },
        {
          "duration": 0.09999999999999432,
          "durationTicks": 240,
          "midi": 68,
          "name": "G#4",
          "ticks": 158880,
          "time": 66.2,
          "velocity": 1
        },
        {
          "duration": 0.09999999999999432,
          "durationTicks": 240,
          "midi": 65,
          "name": "F4",
          "ticks": 159360,
          "time": 66.4,
          "velocity": 0.7401574803149606
        },
        {
          "duration": 0.09999999999999432,
          "durationTicks": 240,
          "midi": 72,
          "name": "C5",
          "ticks": 159360,
          "time": 66.4,
          "velocity": 0.7401574803149606
        },
        {
          "duration": 0.09999999999999432,
          "durationTicks": 240,
          "midi": 77,
          "name": "F5",
          "ticks": 159360,
          "time": 66.4,
          "velocity": 0.7401574803149606
        },
        {
          "duration": 0.10000000000000853,
          "durationTicks": 240,
          "midi": 77,
          "name": "F5",
          "ticks": 159600,
          "time": 66.5,
          "velocity": 1
        },
        {
          "duration": 0.10000000000000853,
          "durationTicks": 240,
          "midi": 65,
          "name": "F4",
          "ticks": 159600,
          "time": 66.5,
          "velocity": 1
        },
        {
          "duration": 0.10000000000000853,
          "durationTicks": 240,
          "midi": 72,
          "name": "C5",
          "ticks": 159600,
          "time": 66.5,
          "velocity": 1
        },
        {
          "duration": 0.10000000000000853,
          "durationTicks": 240,
          "midi": 68,
          "name": "G#4",
          "ticks": 159600,
          "time": 66.5,
          "velocity": 1
        },
        {
          "duration": 0.09999999999999432,
          "durationTicks": 240,
          "midi": 65,
          "name": "F4",
          "ticks": 160080,
          "time": 66.7,
          "velocity": 0.7401574803149606
        },
        {
          "duration": 0.09999999999999432,
          "durationTicks": 240,
          "midi": 72,
          "name": "C5",
          "ticks": 160080,
          "time": 66.7,
          "velocity": 0.7401574803149606
        },
        {
          "duration": 0.09999999999999432,
          "durationTicks": 240,
          "midi": 77,
          "name": "F5",
          "ticks": 160080,
          "time": 66.7,
          "velocity": 0.7401574803149606
        },
        {
          "duration": 0.10000000000000853,
          "durationTicks": 240,
          "midi": 77,
          "name": "F5",
          "ticks": 160320,
          "time": 66.8,
          "velocity": 1
        },
        {
          "duration": 0.10000000000000853,
          "durationTicks": 240,
          "midi": 65,
          "name": "F4",
          "ticks": 160320,
          "time": 66.8,
          "velocity": 1
        },
        {
          "duration": 0.10000000000000853,
          "durationTicks": 240,
          "midi": 72,
          "name": "C5",
          "ticks": 160320,
          "time": 66.8,
          "velocity": 1
        },
        {
          "duration": 0.10000000000000853,
          "durationTicks": 240,
          "midi": 68,
          "name": "G#4",
          "ticks": 160320,
          "time": 66.8,
          "velocity": 1
        },
        {
          "duration": 0.10000000000000853,
          "durationTicks": 240,
          "midi": 75,
          "name": "D#5",
          "ticks": 160800,
          "time": 67,
          "velocity": 1
        },
        {
          "duration": 0.10000000000000853,
          "durationTicks": 240,
          "midi": 63,
          "name": "D#4",
          "ticks": 160800,
          "time": 67,
          "velocity": 1
        },
        {
          "duration": 0.10000000000000853,
          "durationTicks": 240,
          "midi": 70,
          "name": "A#4",
          "ticks": 160800,
          "time": 67,
          "velocity": 1
        },
        {
          "duration": 0.10000000000000853,
          "durationTicks": 240,
          "midi": 67,
          "name": "G4",
          "ticks": 160800,
          "time": 67,
          "velocity": 1
        },
        {
          "duration": 0.09999999999999432,
          "durationTicks": 240,
          "midi": 72,
          "name": "C5",
          "ticks": 161280,
          "time": 67.2,
          "velocity": 1
        },
        {
          "duration": 0.09999999999999432,
          "durationTicks": 240,
          "midi": 65,
          "name": "F4",
          "ticks": 161280,
          "time": 67.2,
          "velocity": 1
        },
        {
          "duration": 0.09999999999999432,
          "durationTicks": 240,
          "midi": 77,
          "name": "F5",
          "ticks": 161280,
          "time": 67.2,
          "velocity": 1
        },
        {
          "duration": 0.09999999999999432,
          "durationTicks": 240,
          "midi": 68,
          "name": "G#4",
          "ticks": 161280,
          "time": 67.2,
          "velocity": 1
        },
        {
          "duration": 0.09999999999999432,
          "durationTicks": 240,
          "midi": 65,
          "name": "F4",
          "ticks": 161760,
          "time": 67.4,
          "velocity": 0.7401574803149606
        },
        {
          "duration": 0.09999999999999432,
          "durationTicks": 240,
          "midi": 72,
          "name": "C5",
          "ticks": 161760,
          "time": 67.4,
          "velocity": 0.7401574803149606
        },
        {
          "duration": 0.09999999999999432,
          "durationTicks": 240,
          "midi": 77,
          "name": "F5",
          "ticks": 161760,
          "time": 67.4,
          "velocity": 0.7401574803149606
        },
        {
          "duration": 0.10000000000000853,
          "durationTicks": 240,
          "midi": 72,
          "name": "C5",
          "ticks": 162000,
          "time": 67.5,
          "velocity": 1
        },
        {
          "duration": 0.10000000000000853,
          "durationTicks": 240,
          "midi": 65,
          "name": "F4",
          "ticks": 162000,
          "time": 67.5,
          "velocity": 1
        },
        {
          "duration": 0.10000000000000853,
          "durationTicks": 240,
          "midi": 77,
          "name": "F5",
          "ticks": 162000,
          "time": 67.5,
          "velocity": 1
        },
        {
          "duration": 0.10000000000000853,
          "durationTicks": 240,
          "midi": 67,
          "name": "G4",
          "ticks": 162000,
          "time": 67.5,
          "velocity": 1
        },
        {
          "duration": 0.09999999999999432,
          "durationTicks": 240,
          "midi": 65,
          "name": "F4",
          "ticks": 162480,
          "time": 67.7,
          "velocity": 0.7401574803149606
        },
        {
          "duration": 0.09999999999999432,
          "durationTicks": 240,
          "midi": 72,
          "name": "C5",
          "ticks": 162480,
          "time": 67.7,
          "velocity": 0.7401574803149606
        },
        {
          "duration": 0.09999999999999432,
          "durationTicks": 240,
          "midi": 77,
          "name": "F5",
          "ticks": 162480,
          "time": 67.7,
          "velocity": 0.7401574803149606
        },
        {
          "duration": 0.10000000000000853,
          "durationTicks": 240,
          "midi": 72,
          "name": "C5",
          "ticks": 162720,
          "time": 67.8,
          "velocity": 1
        },
        {
          "duration": 0.10000000000000853,
          "durationTicks": 240,
          "midi": 65,
          "name": "F4",
          "ticks": 162720,
          "time": 67.8,
          "velocity": 1
        },
        {
          "duration": 0.10000000000000853,
          "durationTicks": 240,
          "midi": 77,
          "name": "F5",
          "ticks": 162720,
          "time": 67.8,
          "velocity": 1
        },
        {
          "duration": 0.10000000000000853,
          "durationTicks": 240,
          "midi": 68,
          "name": "G#4",
          "ticks": 162720,
          "time": 67.8,
          "velocity": 1
        },
        {
          "duration": 0.10000000000000853,
          "durationTicks": 240,
          "midi": 65,
          "name": "F4",
          "ticks": 163200,
          "time": 68,
          "velocity": 0.7401574803149606
        },
        {
          "duration": 0.10000000000000853,
          "durationTicks": 240,
          "midi": 72,
          "name": "C5",
          "ticks": 163200,
          "time": 68,
          "velocity": 0.7401574803149606
        },
        {
          "duration": 0.10000000000000853,
          "durationTicks": 240,
          "midi": 77,
          "name": "F5",
          "ticks": 163200,
          "time": 68,
          "velocity": 0.7401574803149606
        },
        {
          "duration": 0.09999999999999432,
          "durationTicks": 240,
          "midi": 72,
          "name": "C5",
          "ticks": 163440,
          "time": 68.10000000000001,
          "velocity": 1
        },
        {
          "duration": 0.09999999999999432,
          "durationTicks": 240,
          "midi": 65,
          "name": "F4",
          "ticks": 163440,
          "time": 68.10000000000001,
          "velocity": 1
        },
        {
          "duration": 0.09999999999999432,
          "durationTicks": 240,
          "midi": 77,
          "name": "F5",
          "ticks": 163440,
          "time": 68.10000000000001,
          "velocity": 1
        },
        {
          "duration": 0.09999999999999432,
          "durationTicks": 240,
          "midi": 68,
          "name": "G#4",
          "ticks": 163440,
          "time": 68.10000000000001,
          "velocity": 1
        },
        {
          "duration": 0.10000000000000853,
          "durationTicks": 240,
          "midi": 65,
          "name": "F4",
          "ticks": 163920,
          "time": 68.3,
          "velocity": 0.7401574803149606
        },
        {
          "duration": 0.10000000000000853,
          "durationTicks": 240,
          "midi": 72,
          "name": "C5",
          "ticks": 163920,
          "time": 68.3,
          "velocity": 0.7401574803149606
        },
        {
          "duration": 0.10000000000000853,
          "durationTicks": 240,
          "midi": 77,
          "name": "F5",
          "ticks": 163920,
          "time": 68.3,
          "velocity": 0.7401574803149606
        },
        {
          "duration": 0.09999999999999432,
          "durationTicks": 240,
          "midi": 72,
          "name": "C5",
          "ticks": 164160,
          "time": 68.4,
          "velocity": 1
        },
        {
          "duration": 0.09999999999999432,
          "durationTicks": 240,
          "midi": 65,
          "name": "F4",
          "ticks": 164160,
          "time": 68.4,
          "velocity": 1
        },
        {
          "duration": 0.09999999999999432,
          "durationTicks": 240,
          "midi": 77,
          "name": "F5",
          "ticks": 164160,
          "time": 68.4,
          "velocity": 1
        },
        {
          "duration": 0.09999999999999432,
          "durationTicks": 240,
          "midi": 68,
          "name": "G#4",
          "ticks": 164160,
          "time": 68.4,
          "velocity": 1
        },
        {
          "duration": 0.09999999999999432,
          "durationTicks": 240,
          "midi": 73,
          "name": "C#5",
          "ticks": 164640,
          "time": 68.60000000000001,
          "velocity": 1
        },
        {
          "duration": 0.09999999999999432,
          "durationTicks": 240,
          "midi": 66,
          "name": "F#4",
          "ticks": 164640,
          "time": 68.60000000000001,
          "velocity": 1
        },
        {
          "duration": 0.09999999999999432,
          "durationTicks": 240,
          "midi": 78,
          "name": "F#5",
          "ticks": 164640,
          "time": 68.60000000000001,
          "velocity": 1
        },
        {
          "duration": 0.09999999999999432,
          "durationTicks": 240,
          "midi": 67,
          "name": "G4",
          "ticks": 164640,
          "time": 68.60000000000001,
          "velocity": 1
        },
        {
          "duration": 0.10000000000000853,
          "durationTicks": 240,
          "midi": 77,
          "name": "F5",
          "ticks": 165120,
          "time": 68.8,
          "velocity": 1
        },
        {
          "duration": 0.10000000000000853,
          "durationTicks": 240,
          "midi": 65,
          "name": "F4",
          "ticks": 165120,
          "time": 68.8,
          "velocity": 1
        },
        {
          "duration": 0.10000000000000853,
          "durationTicks": 240,
          "midi": 72,
          "name": "C5",
          "ticks": 165120,
          "time": 68.8,
          "velocity": 1
        },
        {
          "duration": 0.10000000000000853,
          "durationTicks": 240,
          "midi": 70,
          "name": "A#4",
          "ticks": 165120,
          "time": 68.8,
          "velocity": 1
        },
        {
          "duration": 0.10000000000000853,
          "durationTicks": 240,
          "midi": 65,
          "name": "F4",
          "ticks": 165600,
          "time": 69,
          "velocity": 0.7401574803149606
        },
        {
          "duration": 0.10000000000000853,
          "durationTicks": 240,
          "midi": 72,
          "name": "C5",
          "ticks": 165600,
          "time": 69,
          "velocity": 0.7401574803149606
        },
        {
          "duration": 0.10000000000000853,
          "durationTicks": 240,
          "midi": 77,
          "name": "F5",
          "ticks": 165600,
          "time": 69,
          "velocity": 0.7401574803149606
        },
        {
          "duration": 0.09999999999999432,
          "durationTicks": 240,
          "midi": 77,
          "name": "F5",
          "ticks": 165840,
          "time": 69.10000000000001,
          "velocity": 1
        },
        {
          "duration": 0.09999999999999432,
          "durationTicks": 240,
          "midi": 65,
          "name": "F4",
          "ticks": 165840,
          "time": 69.10000000000001,
          "velocity": 1
        },
        {
          "duration": 0.09999999999999432,
          "durationTicks": 240,
          "midi": 72,
          "name": "C5",
          "ticks": 165840,
          "time": 69.10000000000001,
          "velocity": 1
        },
        {
          "duration": 0.09999999999999432,
          "durationTicks": 240,
          "midi": 70,
          "name": "A#4",
          "ticks": 165840,
          "time": 69.10000000000001,
          "velocity": 1
        },
        {
          "duration": 0.10000000000000853,
          "durationTicks": 240,
          "midi": 65,
          "name": "F4",
          "ticks": 166320,
          "time": 69.3,
          "velocity": 0.7401574803149606
        },
        {
          "duration": 0.10000000000000853,
          "durationTicks": 240,
          "midi": 72,
          "name": "C5",
          "ticks": 166320,
          "time": 69.3,
          "velocity": 0.7401574803149606
        },
        {
          "duration": 0.10000000000000853,
          "durationTicks": 240,
          "midi": 77,
          "name": "F5",
          "ticks": 166320,
          "time": 69.3,
          "velocity": 0.7401574803149606
        },
        {
          "duration": 0.09999999999999432,
          "durationTicks": 240,
          "midi": 77,
          "name": "F5",
          "ticks": 166560,
          "time": 69.4,
          "velocity": 1
        },
        {
          "duration": 0.09999999999999432,
          "durationTicks": 240,
          "midi": 65,
          "name": "F4",
          "ticks": 166560,
          "time": 69.4,
          "velocity": 1
        },
        {
          "duration": 0.09999999999999432,
          "durationTicks": 240,
          "midi": 72,
          "name": "C5",
          "ticks": 166560,
          "time": 69.4,
          "velocity": 1
        },
        {
          "duration": 0.09999999999999432,
          "durationTicks": 240,
          "midi": 70,
          "name": "A#4",
          "ticks": 166560,
          "time": 69.4,
          "velocity": 1
        },
        {
          "duration": 0.09999999999999432,
          "durationTicks": 240,
          "midi": 65,
          "name": "F4",
          "ticks": 167040,
          "time": 69.60000000000001,
          "velocity": 0.7401574803149606
        },
        {
          "duration": 0.09999999999999432,
          "durationTicks": 240,
          "midi": 72,
          "name": "C5",
          "ticks": 167040,
          "time": 69.60000000000001,
          "velocity": 0.7401574803149606
        },
        {
          "duration": 0.09999999999999432,
          "durationTicks": 240,
          "midi": 77,
          "name": "F5",
          "ticks": 167040,
          "time": 69.60000000000001,
          "velocity": 0.7401574803149606
        },
        {
          "duration": 0.09999999999999432,
          "durationTicks": 240,
          "midi": 77,
          "name": "F5",
          "ticks": 167280,
          "time": 69.7,
          "velocity": 1
        },
        {
          "duration": 0.09999999999999432,
          "durationTicks": 240,
          "midi": 65,
          "name": "F4",
          "ticks": 167280,
          "time": 69.7,
          "velocity": 1
        },
        {
          "duration": 0.09999999999999432,
          "durationTicks": 240,
          "midi": 72,
          "name": "C5",
          "ticks": 167280,
          "time": 69.7,
          "velocity": 1
        },
        {
          "duration": 0.09999999999999432,
          "durationTicks": 240,
          "midi": 70,
          "name": "A#4",
          "ticks": 167280,
          "time": 69.7,
          "velocity": 1
        },
        {
          "duration": 0.09999999999999432,
          "durationTicks": 240,
          "midi": 65,
          "name": "F4",
          "ticks": 167760,
          "time": 69.9,
          "velocity": 0.7401574803149606
        },
        {
          "duration": 0.09999999999999432,
          "durationTicks": 240,
          "midi": 72,
          "name": "C5",
          "ticks": 167760,
          "time": 69.9,
          "velocity": 0.7401574803149606
        },
        {
          "duration": 0.09999999999999432,
          "durationTicks": 240,
          "midi": 77,
          "name": "F5",
          "ticks": 167760,
          "time": 69.9,
          "velocity": 0.7401574803149606
        },
        {
          "duration": 0.10000000000000853,
          "durationTicks": 240,
          "midi": 77,
          "name": "F5",
          "ticks": 168000,
          "time": 70,
          "velocity": 1
        },
        {
          "duration": 0.10000000000000853,
          "durationTicks": 240,
          "midi": 65,
          "name": "F4",
          "ticks": 168000,
          "time": 70,
          "velocity": 1
        },
        {
          "duration": 0.10000000000000853,
          "durationTicks": 240,
          "midi": 72,
          "name": "C5",
          "ticks": 168000,
          "time": 70,
          "velocity": 1
        },
        {
          "duration": 0.10000000000000853,
          "durationTicks": 240,
          "midi": 70,
          "name": "A#4",
          "ticks": 168000,
          "time": 70,
          "velocity": 1
        },
        {
          "duration": 0.09999999999999432,
          "durationTicks": 240,
          "midi": 75,
          "name": "D#5",
          "ticks": 168480,
          "time": 70.2,
          "velocity": 1
        },
        {
          "duration": 0.09999999999999432,
          "durationTicks": 240,
          "midi": 63,
          "name": "D#4",
          "ticks": 168480,
          "time": 70.2,
          "velocity": 1
        },
        {
          "duration": 0.09999999999999432,
          "durationTicks": 240,
          "midi": 70,
          "name": "A#4",
          "ticks": 168480,
          "time": 70.2,
          "velocity": 1
        },
        {
          "duration": 0.09999999999999432,
          "durationTicks": 240,
          "midi": 72,
          "name": "C5",
          "ticks": 168960,
          "time": 70.4,
          "velocity": 1
        },
        {
          "duration": 0.09999999999999432,
          "durationTicks": 240,
          "midi": 65,
          "name": "F4",
          "ticks": 168960,
          "time": 70.4,
          "velocity": 1
        },
        {
          "duration": 0.09999999999999432,
          "durationTicks": 240,
          "midi": 77,
          "name": "F5",
          "ticks": 168960,
          "time": 70.4,
          "velocity": 1
        },
        {
          "duration": 0.09999999999999432,
          "durationTicks": 240,
          "midi": 68,
          "name": "G#4",
          "ticks": 168960,
          "time": 70.4,
          "velocity": 1
        },
        {
          "duration": 0.09999999999999432,
          "durationTicks": 240,
          "midi": 65,
          "name": "F4",
          "ticks": 169440,
          "time": 70.60000000000001,
          "velocity": 0.7401574803149606
        },
        {
          "duration": 0.09999999999999432,
          "durationTicks": 240,
          "midi": 72,
          "name": "C5",
          "ticks": 169440,
          "time": 70.60000000000001,
          "velocity": 0.7401574803149606
        },
        {
          "duration": 0.09999999999999432,
          "durationTicks": 240,
          "midi": 77,
          "name": "F5",
          "ticks": 169440,
          "time": 70.60000000000001,
          "velocity": 0.7401574803149606
        },
        {
          "duration": 0.09999999999999432,
          "durationTicks": 240,
          "midi": 72,
          "name": "C5",
          "ticks": 169680,
          "time": 70.7,
          "velocity": 1
        },
        {
          "duration": 0.09999999999999432,
          "durationTicks": 240,
          "midi": 65,
          "name": "F4",
          "ticks": 169680,
          "time": 70.7,
          "velocity": 1
        },
        {
          "duration": 0.09999999999999432,
          "durationTicks": 240,
          "midi": 77,
          "name": "F5",
          "ticks": 169680,
          "time": 70.7,
          "velocity": 1
        },
        {
          "duration": 0.09999999999999432,
          "durationTicks": 240,
          "midi": 67,
          "name": "G4",
          "ticks": 169680,
          "time": 70.7,
          "velocity": 1
        },
        {
          "duration": 0.09999999999999432,
          "durationTicks": 240,
          "midi": 65,
          "name": "F4",
          "ticks": 170160,
          "time": 70.9,
          "velocity": 0.7401574803149606
        },
        {
          "duration": 0.09999999999999432,
          "durationTicks": 240,
          "midi": 72,
          "name": "C5",
          "ticks": 170160,
          "time": 70.9,
          "velocity": 0.7401574803149606
        },
        {
          "duration": 0.09999999999999432,
          "durationTicks": 240,
          "midi": 77,
          "name": "F5",
          "ticks": 170160,
          "time": 70.9,
          "velocity": 0.7401574803149606
        },
        {
          "duration": 0.10000000000000853,
          "durationTicks": 240,
          "midi": 72,
          "name": "C5",
          "ticks": 170400,
          "time": 71,
          "velocity": 1
        },
        {
          "duration": 0.10000000000000853,
          "durationTicks": 240,
          "midi": 65,
          "name": "F4",
          "ticks": 170400,
          "time": 71,
          "velocity": 1
        },
        {
          "duration": 0.10000000000000853,
          "durationTicks": 240,
          "midi": 77,
          "name": "F5",
          "ticks": 170400,
          "time": 71,
          "velocity": 1
        },
        {
          "duration": 0.10000000000000853,
          "durationTicks": 240,
          "midi": 68,
          "name": "G#4",
          "ticks": 170400,
          "time": 71,
          "velocity": 1
        },
        {
          "duration": 0.09999999999999432,
          "durationTicks": 240,
          "midi": 65,
          "name": "F4",
          "ticks": 170880,
          "time": 71.2,
          "velocity": 0.7401574803149606
        },
        {
          "duration": 0.09999999999999432,
          "durationTicks": 240,
          "midi": 72,
          "name": "C5",
          "ticks": 170880,
          "time": 71.2,
          "velocity": 0.7401574803149606
        },
        {
          "duration": 0.09999999999999432,
          "durationTicks": 240,
          "midi": 77,
          "name": "F5",
          "ticks": 170880,
          "time": 71.2,
          "velocity": 0.7401574803149606
        },
        {
          "duration": 0.10000000000000853,
          "durationTicks": 240,
          "midi": 72,
          "name": "C5",
          "ticks": 171120,
          "time": 71.3,
          "velocity": 1
        },
        {
          "duration": 0.10000000000000853,
          "durationTicks": 240,
          "midi": 65,
          "name": "F4",
          "ticks": 171120,
          "time": 71.3,
          "velocity": 1
        },
        {
          "duration": 0.10000000000000853,
          "durationTicks": 240,
          "midi": 77,
          "name": "F5",
          "ticks": 171120,
          "time": 71.3,
          "velocity": 1
        },
        {
          "duration": 0.10000000000000853,
          "durationTicks": 240,
          "midi": 68,
          "name": "G#4",
          "ticks": 171120,
          "time": 71.3,
          "velocity": 1
        },
        {
          "duration": 0.10000000000000853,
          "durationTicks": 240,
          "midi": 65,
          "name": "F4",
          "ticks": 171600,
          "time": 71.5,
          "velocity": 0.7401574803149606
        },
        {
          "duration": 0.10000000000000853,
          "durationTicks": 240,
          "midi": 72,
          "name": "C5",
          "ticks": 171600,
          "time": 71.5,
          "velocity": 0.7401574803149606
        },
        {
          "duration": 0.10000000000000853,
          "durationTicks": 240,
          "midi": 77,
          "name": "F5",
          "ticks": 171600,
          "time": 71.5,
          "velocity": 0.7401574803149606
        },
        {
          "duration": 0.09999999999999432,
          "durationTicks": 240,
          "midi": 72,
          "name": "C5",
          "ticks": 171840,
          "time": 71.60000000000001,
          "velocity": 1
        },
        {
          "duration": 0.09999999999999432,
          "durationTicks": 240,
          "midi": 65,
          "name": "F4",
          "ticks": 171840,
          "time": 71.60000000000001,
          "velocity": 1
        },
        {
          "duration": 0.09999999999999432,
          "durationTicks": 240,
          "midi": 77,
          "name": "F5",
          "ticks": 171840,
          "time": 71.60000000000001,
          "velocity": 1
        },
        {
          "duration": 0.09999999999999432,
          "durationTicks": 240,
          "midi": 68,
          "name": "G#4",
          "ticks": 171840,
          "time": 71.60000000000001,
          "velocity": 1
        },
        {
          "duration": 0.10000000000000853,
          "durationTicks": 240,
          "midi": 73,
          "name": "C#5",
          "ticks": 172320,
          "time": 71.8,
          "velocity": 1
        },
        {
          "duration": 0.10000000000000853,
          "durationTicks": 240,
          "midi": 66,
          "name": "F#4",
          "ticks": 172320,
          "time": 71.8,
          "velocity": 1
        },
        {
          "duration": 0.10000000000000853,
          "durationTicks": 240,
          "midi": 78,
          "name": "F#5",
          "ticks": 172320,
          "time": 71.8,
          "velocity": 1
        },
        {
          "duration": 0.10000000000000853,
          "durationTicks": 240,
          "midi": 67,
          "name": "G4",
          "ticks": 172320,
          "time": 71.8,
          "velocity": 1
        },
        {
          "duration": 0.10000000000000853,
          "durationTicks": 240,
          "midi": 77,
          "name": "F5",
          "ticks": 172800,
          "time": 72,
          "velocity": 1
        },
        {
          "duration": 0.10000000000000853,
          "durationTicks": 240,
          "midi": 65,
          "name": "F4",
          "ticks": 172800,
          "time": 72,
          "velocity": 1
        },
        {
          "duration": 0.10000000000000853,
          "durationTicks": 240,
          "midi": 72,
          "name": "C5",
          "ticks": 172800,
          "time": 72,
          "velocity": 1
        },
        {
          "duration": 0.10000000000000853,
          "durationTicks": 240,
          "midi": 68,
          "name": "G#4",
          "ticks": 172800,
          "time": 72,
          "velocity": 1
        },
        {
          "duration": 0.09999999999999432,
          "durationTicks": 240,
          "midi": 65,
          "name": "F4",
          "ticks": 173280,
          "time": 72.2,
          "velocity": 0.7401574803149606
        },
        {
          "duration": 0.09999999999999432,
          "durationTicks": 240,
          "midi": 72,
          "name": "C5",
          "ticks": 173280,
          "time": 72.2,
          "velocity": 0.7401574803149606
        },
        {
          "duration": 0.09999999999999432,
          "durationTicks": 240,
          "midi": 77,
          "name": "F5",
          "ticks": 173280,
          "time": 72.2,
          "velocity": 0.7401574803149606
        },
        {
          "duration": 0.10000000000000853,
          "durationTicks": 240,
          "midi": 77,
          "name": "F5",
          "ticks": 173520,
          "time": 72.3,
          "velocity": 1
        },
        {
          "duration": 0.10000000000000853,
          "durationTicks": 240,
          "midi": 65,
          "name": "F4",
          "ticks": 173520,
          "time": 72.3,
          "velocity": 1
        },
        {
          "duration": 0.10000000000000853,
          "durationTicks": 240,
          "midi": 72,
          "name": "C5",
          "ticks": 173520,
          "time": 72.3,
          "velocity": 1
        },
        {
          "duration": 0.10000000000000853,
          "durationTicks": 240,
          "midi": 67,
          "name": "G4",
          "ticks": 173520,
          "time": 72.3,
          "velocity": 1
        },
        {
          "duration": 0.10000000000000853,
          "durationTicks": 240,
          "midi": 65,
          "name": "F4",
          "ticks": 174000,
          "time": 72.5,
          "velocity": 0.7401574803149606
        },
        {
          "duration": 0.10000000000000853,
          "durationTicks": 240,
          "midi": 72,
          "name": "C5",
          "ticks": 174000,
          "time": 72.5,
          "velocity": 0.7401574803149606
        },
        {
          "duration": 0.10000000000000853,
          "durationTicks": 240,
          "midi": 77,
          "name": "F5",
          "ticks": 174000,
          "time": 72.5,
          "velocity": 0.7401574803149606
        },
        {
          "duration": 0.09999999999999432,
          "durationTicks": 240,
          "midi": 77,
          "name": "F5",
          "ticks": 174240,
          "time": 72.60000000000001,
          "velocity": 1
        },
        {
          "duration": 0.09999999999999432,
          "durationTicks": 240,
          "midi": 65,
          "name": "F4",
          "ticks": 174240,
          "time": 72.60000000000001,
          "velocity": 1
        },
        {
          "duration": 0.09999999999999432,
          "durationTicks": 240,
          "midi": 72,
          "name": "C5",
          "ticks": 174240,
          "time": 72.60000000000001,
          "velocity": 1
        },
        {
          "duration": 0.09999999999999432,
          "durationTicks": 240,
          "midi": 68,
          "name": "G#4",
          "ticks": 174240,
          "time": 72.60000000000001,
          "velocity": 1
        },
        {
          "duration": 0.10000000000000853,
          "durationTicks": 240,
          "midi": 65,
          "name": "F4",
          "ticks": 174720,
          "time": 72.8,
          "velocity": 0.7401574803149606
        },
        {
          "duration": 0.10000000000000853,
          "durationTicks": 240,
          "midi": 72,
          "name": "C5",
          "ticks": 174720,
          "time": 72.8,
          "velocity": 0.7401574803149606
        },
        {
          "duration": 0.10000000000000853,
          "durationTicks": 240,
          "midi": 77,
          "name": "F5",
          "ticks": 174720,
          "time": 72.8,
          "velocity": 0.7401574803149606
        },
        {
          "duration": 0.09999999999999432,
          "durationTicks": 240,
          "midi": 77,
          "name": "F5",
          "ticks": 174960,
          "time": 72.9,
          "velocity": 1
        },
        {
          "duration": 0.09999999999999432,
          "durationTicks": 240,
          "midi": 65,
          "name": "F4",
          "ticks": 174960,
          "time": 72.9,
          "velocity": 1
        },
        {
          "duration": 0.09999999999999432,
          "durationTicks": 240,
          "midi": 72,
          "name": "C5",
          "ticks": 174960,
          "time": 72.9,
          "velocity": 1
        },
        {
          "duration": 0.09999999999999432,
          "durationTicks": 240,
          "midi": 68,
          "name": "G#4",
          "ticks": 174960,
          "time": 72.9,
          "velocity": 1
        },
        {
          "duration": 0.09999999999999432,
          "durationTicks": 240,
          "midi": 65,
          "name": "F4",
          "ticks": 175440,
          "time": 73.10000000000001,
          "velocity": 0.7401574803149606
        },
        {
          "duration": 0.09999999999999432,
          "durationTicks": 240,
          "midi": 72,
          "name": "C5",
          "ticks": 175440,
          "time": 73.10000000000001,
          "velocity": 0.7401574803149606
        },
        {
          "duration": 0.09999999999999432,
          "durationTicks": 240,
          "midi": 77,
          "name": "F5",
          "ticks": 175440,
          "time": 73.10000000000001,
          "velocity": 0.7401574803149606
        },
        {
          "duration": 0.09999999999999432,
          "durationTicks": 240,
          "midi": 77,
          "name": "F5",
          "ticks": 175680,
          "time": 73.2,
          "velocity": 1
        },
        {
          "duration": 0.09999999999999432,
          "durationTicks": 240,
          "midi": 65,
          "name": "F4",
          "ticks": 175680,
          "time": 73.2,
          "velocity": 1
        },
        {
          "duration": 0.09999999999999432,
          "durationTicks": 240,
          "midi": 72,
          "name": "C5",
          "ticks": 175680,
          "time": 73.2,
          "velocity": 1
        },
        {
          "duration": 0.09999999999999432,
          "durationTicks": 240,
          "midi": 68,
          "name": "G#4",
          "ticks": 175680,
          "time": 73.2,
          "velocity": 1
        },
        {
          "duration": 0.09999999999999432,
          "durationTicks": 240,
          "midi": 75,
          "name": "D#5",
          "ticks": 176160,
          "time": 73.4,
          "velocity": 1
        },
        {
          "duration": 0.09999999999999432,
          "durationTicks": 240,
          "midi": 63,
          "name": "D#4",
          "ticks": 176160,
          "time": 73.4,
          "velocity": 1
        },
        {
          "duration": 0.09999999999999432,
          "durationTicks": 240,
          "midi": 70,
          "name": "A#4",
          "ticks": 176160,
          "time": 73.4,
          "velocity": 1
        },
        {
          "duration": 0.09999999999999432,
          "durationTicks": 240,
          "midi": 67,
          "name": "G4",
          "ticks": 176160,
          "time": 73.4,
          "velocity": 1
        },
        {
          "duration": 0.09999999999999432,
          "durationTicks": 240,
          "midi": 72,
          "name": "C5",
          "ticks": 176640,
          "time": 73.60000000000001,
          "velocity": 1
        },
        {
          "duration": 0.09999999999999432,
          "durationTicks": 240,
          "midi": 65,
          "name": "F4",
          "ticks": 176640,
          "time": 73.60000000000001,
          "velocity": 1
        },
        {
          "duration": 0.09999999999999432,
          "durationTicks": 240,
          "midi": 77,
          "name": "F5",
          "ticks": 176640,
          "time": 73.60000000000001,
          "velocity": 1
        },
        {
          "duration": 0.09999999999999432,
          "durationTicks": 240,
          "midi": 68,
          "name": "G#4",
          "ticks": 176640,
          "time": 73.60000000000001,
          "velocity": 1
        },
        {
          "duration": 0.10000000000000853,
          "durationTicks": 240,
          "midi": 65,
          "name": "F4",
          "ticks": 177120,
          "time": 73.8,
          "velocity": 0.7401574803149606
        },
        {
          "duration": 0.10000000000000853,
          "durationTicks": 240,
          "midi": 72,
          "name": "C5",
          "ticks": 177120,
          "time": 73.8,
          "velocity": 0.7401574803149606
        },
        {
          "duration": 0.10000000000000853,
          "durationTicks": 240,
          "midi": 77,
          "name": "F5",
          "ticks": 177120,
          "time": 73.8,
          "velocity": 0.7401574803149606
        },
        {
          "duration": 0.09999999999999432,
          "durationTicks": 240,
          "midi": 72,
          "name": "C5",
          "ticks": 177360,
          "time": 73.9,
          "velocity": 1
        },
        {
          "duration": 0.09999999999999432,
          "durationTicks": 240,
          "midi": 65,
          "name": "F4",
          "ticks": 177360,
          "time": 73.9,
          "velocity": 1
        },
        {
          "duration": 0.09999999999999432,
          "durationTicks": 240,
          "midi": 77,
          "name": "F5",
          "ticks": 177360,
          "time": 73.9,
          "velocity": 1
        },
        {
          "duration": 0.09999999999999432,
          "durationTicks": 240,
          "midi": 67,
          "name": "G4",
          "ticks": 177360,
          "time": 73.9,
          "velocity": 1
        },
        {
          "duration": 0.09999999999999432,
          "durationTicks": 240,
          "midi": 65,
          "name": "F4",
          "ticks": 177840,
          "time": 74.10000000000001,
          "velocity": 0.7401574803149606
        },
        {
          "duration": 0.09999999999999432,
          "durationTicks": 240,
          "midi": 72,
          "name": "C5",
          "ticks": 177840,
          "time": 74.10000000000001,
          "velocity": 0.7401574803149606
        },
        {
          "duration": 0.09999999999999432,
          "durationTicks": 240,
          "midi": 77,
          "name": "F5",
          "ticks": 177840,
          "time": 74.10000000000001,
          "velocity": 0.7401574803149606
        },
        {
          "duration": 0.09999999999999432,
          "durationTicks": 240,
          "midi": 72,
          "name": "C5",
          "ticks": 178080,
          "time": 74.2,
          "velocity": 1
        },
        {
          "duration": 0.09999999999999432,
          "durationTicks": 240,
          "midi": 65,
          "name": "F4",
          "ticks": 178080,
          "time": 74.2,
          "velocity": 1
        },
        {
          "duration": 0.09999999999999432,
          "durationTicks": 240,
          "midi": 77,
          "name": "F5",
          "ticks": 178080,
          "time": 74.2,
          "velocity": 1
        },
        {
          "duration": 0.09999999999999432,
          "durationTicks": 240,
          "midi": 68,
          "name": "G#4",
          "ticks": 178080,
          "time": 74.2,
          "velocity": 1
        },
        {
          "duration": 0.09999999999999432,
          "durationTicks": 240,
          "midi": 65,
          "name": "F4",
          "ticks": 178560,
          "time": 74.4,
          "velocity": 0.7401574803149606
        },
        {
          "duration": 0.09999999999999432,
          "durationTicks": 240,
          "midi": 72,
          "name": "C5",
          "ticks": 178560,
          "time": 74.4,
          "velocity": 0.7401574803149606
        },
        {
          "duration": 0.09999999999999432,
          "durationTicks": 240,
          "midi": 77,
          "name": "F5",
          "ticks": 178560,
          "time": 74.4,
          "velocity": 0.7401574803149606
        },
        {
          "duration": 0.10000000000000853,
          "durationTicks": 240,
          "midi": 72,
          "name": "C5",
          "ticks": 178800,
          "time": 74.5,
          "velocity": 1
        },
        {
          "duration": 0.10000000000000853,
          "durationTicks": 240,
          "midi": 65,
          "name": "F4",
          "ticks": 178800,
          "time": 74.5,
          "velocity": 1
        },
        {
          "duration": 0.10000000000000853,
          "durationTicks": 240,
          "midi": 77,
          "name": "F5",
          "ticks": 178800,
          "time": 74.5,
          "velocity": 1
        },
        {
          "duration": 0.10000000000000853,
          "durationTicks": 240,
          "midi": 68,
          "name": "G#4",
          "ticks": 178800,
          "time": 74.5,
          "velocity": 1
        },
        {
          "duration": 0.09999999999999432,
          "durationTicks": 240,
          "midi": 65,
          "name": "F4",
          "ticks": 179280,
          "time": 74.7,
          "velocity": 0.7401574803149606
        },
        {
          "duration": 0.09999999999999432,
          "durationTicks": 240,
          "midi": 72,
          "name": "C5",
          "ticks": 179280,
          "time": 74.7,
          "velocity": 0.7401574803149606
        },
        {
          "duration": 0.09999999999999432,
          "durationTicks": 240,
          "midi": 77,
          "name": "F5",
          "ticks": 179280,
          "time": 74.7,
          "velocity": 0.7401574803149606
        },
        {
          "duration": 0.10000000000000853,
          "durationTicks": 240,
          "midi": 72,
          "name": "C5",
          "ticks": 179520,
          "time": 74.8,
          "velocity": 1
        },
        {
          "duration": 0.10000000000000853,
          "durationTicks": 240,
          "midi": 65,
          "name": "F4",
          "ticks": 179520,
          "time": 74.8,
          "velocity": 1
        },
        {
          "duration": 0.10000000000000853,
          "durationTicks": 240,
          "midi": 77,
          "name": "F5",
          "ticks": 179520,
          "time": 74.8,
          "velocity": 1
        },
        {
          "duration": 0.10000000000000853,
          "durationTicks": 240,
          "midi": 68,
          "name": "G#4",
          "ticks": 179520,
          "time": 74.8,
          "velocity": 1
        },
        {
          "duration": 0.10000000000000853,
          "durationTicks": 240,
          "midi": 73,
          "name": "C#5",
          "ticks": 180000,
          "time": 75,
          "velocity": 1
        },
        {
          "duration": 0.10000000000000853,
          "durationTicks": 240,
          "midi": 66,
          "name": "F#4",
          "ticks": 180000,
          "time": 75,
          "velocity": 1
        },
        {
          "duration": 0.10000000000000853,
          "durationTicks": 240,
          "midi": 78,
          "name": "F#5",
          "ticks": 180000,
          "time": 75,
          "velocity": 1
        },
        {
          "duration": 0.10000000000000853,
          "durationTicks": 240,
          "midi": 67,
          "name": "G4",
          "ticks": 180000,
          "time": 75,
          "velocity": 1
        },
        {
          "duration": 0.09999999999999432,
          "durationTicks": 240,
          "midi": 77,
          "name": "F5",
          "ticks": 180480,
          "time": 75.2,
          "velocity": 1
        },
        {
          "duration": 0.09999999999999432,
          "durationTicks": 240,
          "midi": 65,
          "name": "F4",
          "ticks": 180480,
          "time": 75.2,
          "velocity": 1
        },
        {
          "duration": 0.09999999999999432,
          "durationTicks": 240,
          "midi": 72,
          "name": "C5",
          "ticks": 180480,
          "time": 75.2,
          "velocity": 1
        },
        {
          "duration": 0.09999999999999432,
          "durationTicks": 240,
          "midi": 70,
          "name": "A#4",
          "ticks": 180480,
          "time": 75.2,
          "velocity": 1
        },
        {
          "duration": 0.09999999999999432,
          "durationTicks": 240,
          "midi": 65,
          "name": "F4",
          "ticks": 180960,
          "time": 75.4,
          "velocity": 0.7401574803149606
        },
        {
          "duration": 0.09999999999999432,
          "durationTicks": 240,
          "midi": 72,
          "name": "C5",
          "ticks": 180960,
          "time": 75.4,
          "velocity": 0.7401574803149606
        },
        {
          "duration": 0.09999999999999432,
          "durationTicks": 240,
          "midi": 77,
          "name": "F5",
          "ticks": 180960,
          "time": 75.4,
          "velocity": 0.7401574803149606
        },
        {
          "duration": 0.10000000000000853,
          "durationTicks": 240,
          "midi": 77,
          "name": "F5",
          "ticks": 181200,
          "time": 75.5,
          "velocity": 1
        },
        {
          "duration": 0.10000000000000853,
          "durationTicks": 240,
          "midi": 65,
          "name": "F4",
          "ticks": 181200,
          "time": 75.5,
          "velocity": 1
        },
        {
          "duration": 0.10000000000000853,
          "durationTicks": 240,
          "midi": 72,
          "name": "C5",
          "ticks": 181200,
          "time": 75.5,
          "velocity": 1
        },
        {
          "duration": 0.10000000000000853,
          "durationTicks": 240,
          "midi": 70,
          "name": "A#4",
          "ticks": 181200,
          "time": 75.5,
          "velocity": 1
        },
        {
          "duration": 0.09999999999999432,
          "durationTicks": 240,
          "midi": 65,
          "name": "F4",
          "ticks": 181680,
          "time": 75.7,
          "velocity": 0.7401574803149606
        },
        {
          "duration": 0.09999999999999432,
          "durationTicks": 240,
          "midi": 72,
          "name": "C5",
          "ticks": 181680,
          "time": 75.7,
          "velocity": 0.7401574803149606
        },
        {
          "duration": 0.09999999999999432,
          "durationTicks": 240,
          "midi": 77,
          "name": "F5",
          "ticks": 181680,
          "time": 75.7,
          "velocity": 0.7401574803149606
        },
        {
          "duration": 0.10000000000000853,
          "durationTicks": 240,
          "midi": 77,
          "name": "F5",
          "ticks": 181920,
          "time": 75.8,
          "velocity": 1
        },
        {
          "duration": 0.10000000000000853,
          "durationTicks": 240,
          "midi": 65,
          "name": "F4",
          "ticks": 181920,
          "time": 75.8,
          "velocity": 1
        },
        {
          "duration": 0.10000000000000853,
          "durationTicks": 240,
          "midi": 72,
          "name": "C5",
          "ticks": 181920,
          "time": 75.8,
          "velocity": 1
        },
        {
          "duration": 0.10000000000000853,
          "durationTicks": 240,
          "midi": 70,
          "name": "A#4",
          "ticks": 181920,
          "time": 75.8,
          "velocity": 1
        },
        {
          "duration": 0.10000000000000853,
          "durationTicks": 240,
          "midi": 65,
          "name": "F4",
          "ticks": 182400,
          "time": 76,
          "velocity": 0.7401574803149606
        },
        {
          "duration": 0.10000000000000853,
          "durationTicks": 240,
          "midi": 72,
          "name": "C5",
          "ticks": 182400,
          "time": 76,
          "velocity": 0.7401574803149606
        },
        {
          "duration": 0.10000000000000853,
          "durationTicks": 240,
          "midi": 77,
          "name": "F5",
          "ticks": 182400,
          "time": 76,
          "velocity": 0.7401574803149606
        },
        {
          "duration": 0.09999999999999432,
          "durationTicks": 240,
          "midi": 77,
          "name": "F5",
          "ticks": 182640,
          "time": 76.10000000000001,
          "velocity": 1
        },
        {
          "duration": 0.09999999999999432,
          "durationTicks": 240,
          "midi": 65,
          "name": "F4",
          "ticks": 182640,
          "time": 76.10000000000001,
          "velocity": 1
        },
        {
          "duration": 0.09999999999999432,
          "durationTicks": 240,
          "midi": 72,
          "name": "C5",
          "ticks": 182640,
          "time": 76.10000000000001,
          "velocity": 1
        },
        {
          "duration": 0.09999999999999432,
          "durationTicks": 240,
          "midi": 70,
          "name": "A#4",
          "ticks": 182640,
          "time": 76.10000000000001,
          "velocity": 1
        },
        {
          "duration": 0.10000000000000853,
          "durationTicks": 240,
          "midi": 65,
          "name": "F4",
          "ticks": 183120,
          "time": 76.3,
          "velocity": 0.7401574803149606
        },
        {
          "duration": 0.10000000000000853,
          "durationTicks": 240,
          "midi": 72,
          "name": "C5",
          "ticks": 183120,
          "time": 76.3,
          "velocity": 0.7401574803149606
        },
        {
          "duration": 0.10000000000000853,
          "durationTicks": 240,
          "midi": 77,
          "name": "F5",
          "ticks": 183120,
          "time": 76.3,
          "velocity": 0.7401574803149606
        },
        {
          "duration": 0.09999999999999432,
          "durationTicks": 240,
          "midi": 77,
          "name": "F5",
          "ticks": 183360,
          "time": 76.4,
          "velocity": 1
        },
        {
          "duration": 0.09999999999999432,
          "durationTicks": 240,
          "midi": 65,
          "name": "F4",
          "ticks": 183360,
          "time": 76.4,
          "velocity": 1
        },
        {
          "duration": 0.09999999999999432,
          "durationTicks": 240,
          "midi": 72,
          "name": "C5",
          "ticks": 183360,
          "time": 76.4,
          "velocity": 1
        },
        {
          "duration": 0.09999999999999432,
          "durationTicks": 240,
          "midi": 70,
          "name": "A#4",
          "ticks": 183360,
          "time": 76.4,
          "velocity": 1
        },
        {
          "duration": 0.09999999999999432,
          "durationTicks": 240,
          "midi": 75,
          "name": "D#5",
          "ticks": 183840,
          "time": 76.60000000000001,
          "velocity": 1
        },
        {
          "duration": 0.09999999999999432,
          "durationTicks": 240,
          "midi": 63,
          "name": "D#4",
          "ticks": 183840,
          "time": 76.60000000000001,
          "velocity": 1
        },
        {
          "duration": 0.09999999999999432,
          "durationTicks": 240,
          "midi": 70,
          "name": "A#4",
          "ticks": 183840,
          "time": 76.60000000000001,
          "velocity": 1
        },
        {
          "duration": 0.09999999999999432,
          "durationTicks": 240,
          "midi": 72,
          "name": "C5",
          "ticks": 184320,
          "time": 76.80000000000001,
          "velocity": 1
        },
        {
          "duration": 0.09999999999999432,
          "durationTicks": 240,
          "midi": 65,
          "name": "F4",
          "ticks": 184320,
          "time": 76.80000000000001,
          "velocity": 1
        },
        {
          "duration": 0.09999999999999432,
          "durationTicks": 240,
          "midi": 77,
          "name": "F5",
          "ticks": 184320,
          "time": 76.80000000000001,
          "velocity": 1
        },
        {
          "duration": 0.09999999999999432,
          "durationTicks": 240,
          "midi": 68,
          "name": "G#4",
          "ticks": 184320,
          "time": 76.80000000000001,
          "velocity": 1
        },
        {
          "duration": 0.10000000000000853,
          "durationTicks": 240,
          "midi": 65,
          "name": "F4",
          "ticks": 184800,
          "time": 77,
          "velocity": 0.7401574803149606
        },
        {
          "duration": 0.10000000000000853,
          "durationTicks": 240,
          "midi": 72,
          "name": "C5",
          "ticks": 184800,
          "time": 77,
          "velocity": 0.7401574803149606
        },
        {
          "duration": 0.10000000000000853,
          "durationTicks": 240,
          "midi": 77,
          "name": "F5",
          "ticks": 184800,
          "time": 77,
          "velocity": 0.7401574803149606
        },
        {
          "duration": 0.09999999999999432,
          "durationTicks": 240,
          "midi": 72,
          "name": "C5",
          "ticks": 185040,
          "time": 77.10000000000001,
          "velocity": 1
        },
        {
          "duration": 0.09999999999999432,
          "durationTicks": 240,
          "midi": 65,
          "name": "F4",
          "ticks": 185040,
          "time": 77.10000000000001,
          "velocity": 1
        },
        {
          "duration": 0.09999999999999432,
          "durationTicks": 240,
          "midi": 77,
          "name": "F5",
          "ticks": 185040,
          "time": 77.10000000000001,
          "velocity": 1
        },
        {
          "duration": 0.09999999999999432,
          "durationTicks": 240,
          "midi": 67,
          "name": "G4",
          "ticks": 185040,
          "time": 77.10000000000001,
          "velocity": 1
        },
        {
          "duration": 0.09999999999999432,
          "durationTicks": 240,
          "midi": 65,
          "name": "F4",
          "ticks": 185520,
          "time": 77.30000000000001,
          "velocity": 0.7401574803149606
        },
        {
          "duration": 0.09999999999999432,
          "durationTicks": 240,
          "midi": 72,
          "name": "C5",
          "ticks": 185520,
          "time": 77.30000000000001,
          "velocity": 0.7401574803149606
        },
        {
          "duration": 0.09999999999999432,
          "durationTicks": 240,
          "midi": 77,
          "name": "F5",
          "ticks": 185520,
          "time": 77.30000000000001,
          "velocity": 0.7401574803149606
        },
        {
          "duration": 0.09999999999999432,
          "durationTicks": 240,
          "midi": 72,
          "name": "C5",
          "ticks": 185760,
          "time": 77.4,
          "velocity": 1
        },
        {
          "duration": 0.09999999999999432,
          "durationTicks": 240,
          "midi": 65,
          "name": "F4",
          "ticks": 185760,
          "time": 77.4,
          "velocity": 1
        },
        {
          "duration": 0.09999999999999432,
          "durationTicks": 240,
          "midi": 77,
          "name": "F5",
          "ticks": 185760,
          "time": 77.4,
          "velocity": 1
        },
        {
          "duration": 0.09999999999999432,
          "durationTicks": 240,
          "midi": 68,
          "name": "G#4",
          "ticks": 185760,
          "time": 77.4,
          "velocity": 1
        },
        {
          "duration": 0.09999999999999432,
          "durationTicks": 240,
          "midi": 65,
          "name": "F4",
          "ticks": 186240,
          "time": 77.60000000000001,
          "velocity": 0.7401574803149606
        },
        {
          "duration": 0.09999999999999432,
          "durationTicks": 240,
          "midi": 72,
          "name": "C5",
          "ticks": 186240,
          "time": 77.60000000000001,
          "velocity": 0.7401574803149606
        },
        {
          "duration": 0.09999999999999432,
          "durationTicks": 240,
          "midi": 77,
          "name": "F5",
          "ticks": 186240,
          "time": 77.60000000000001,
          "velocity": 0.7401574803149606
        },
        {
          "duration": 0.10000000000000853,
          "durationTicks": 240,
          "midi": 72,
          "name": "C5",
          "ticks": 186480,
          "time": 77.7,
          "velocity": 1
        },
        {
          "duration": 0.10000000000000853,
          "durationTicks": 240,
          "midi": 65,
          "name": "F4",
          "ticks": 186480,
          "time": 77.7,
          "velocity": 1
        },
        {
          "duration": 0.10000000000000853,
          "durationTicks": 240,
          "midi": 77,
          "name": "F5",
          "ticks": 186480,
          "time": 77.7,
          "velocity": 1
        },
        {
          "duration": 0.10000000000000853,
          "durationTicks": 240,
          "midi": 68,
          "name": "G#4",
          "ticks": 186480,
          "time": 77.7,
          "velocity": 1
        },
        {
          "duration": 0.09999999999999432,
          "durationTicks": 240,
          "midi": 65,
          "name": "F4",
          "ticks": 186960,
          "time": 77.9,
          "velocity": 0.7401574803149606
        },
        {
          "duration": 0.09999999999999432,
          "durationTicks": 240,
          "midi": 72,
          "name": "C5",
          "ticks": 186960,
          "time": 77.9,
          "velocity": 0.7401574803149606
        },
        {
          "duration": 0.09999999999999432,
          "durationTicks": 240,
          "midi": 77,
          "name": "F5",
          "ticks": 186960,
          "time": 77.9,
          "velocity": 0.7401574803149606
        },
        {
          "duration": 0.10000000000000853,
          "durationTicks": 240,
          "midi": 72,
          "name": "C5",
          "ticks": 187200,
          "time": 78,
          "velocity": 1
        },
        {
          "duration": 0.10000000000000853,
          "durationTicks": 240,
          "midi": 65,
          "name": "F4",
          "ticks": 187200,
          "time": 78,
          "velocity": 1
        },
        {
          "duration": 0.10000000000000853,
          "durationTicks": 240,
          "midi": 77,
          "name": "F5",
          "ticks": 187200,
          "time": 78,
          "velocity": 1
        },
        {
          "duration": 0.10000000000000853,
          "durationTicks": 240,
          "midi": 68,
          "name": "G#4",
          "ticks": 187200,
          "time": 78,
          "velocity": 1
        },
        {
          "duration": 0.10000000000000853,
          "durationTicks": 240,
          "midi": 73,
          "name": "C#5",
          "ticks": 187680,
          "time": 78.2,
          "velocity": 1
        },
        {
          "duration": 0.10000000000000853,
          "durationTicks": 240,
          "midi": 66,
          "name": "F#4",
          "ticks": 187680,
          "time": 78.2,
          "velocity": 1
        },
        {
          "duration": 0.10000000000000853,
          "durationTicks": 240,
          "midi": 78,
          "name": "F#5",
          "ticks": 187680,
          "time": 78.2,
          "velocity": 1
        },
        {
          "duration": 0.10000000000000853,
          "durationTicks": 240,
          "midi": 67,
          "name": "G4",
          "ticks": 187680,
          "time": 78.2,
          "velocity": 1
        },
        {
          "duration": 0.09999999999999432,
          "durationTicks": 240,
          "midi": 77,
          "name": "F5",
          "ticks": 188160,
          "time": 78.4,
          "velocity": 1
        },
        {
          "duration": 0.09999999999999432,
          "durationTicks": 240,
          "midi": 65,
          "name": "F4",
          "ticks": 188160,
          "time": 78.4,
          "velocity": 1
        },
        {
          "duration": 0.09999999999999432,
          "durationTicks": 240,
          "midi": 72,
          "name": "C5",
          "ticks": 188160,
          "time": 78.4,
          "velocity": 1
        },
        {
          "duration": 0.09999999999999432,
          "durationTicks": 240,
          "midi": 70,
          "name": "A#4",
          "ticks": 188160,
          "time": 78.4,
          "velocity": 1
        },
        {
          "duration": 0.09999999999999432,
          "durationTicks": 240,
          "midi": 65,
          "name": "F4",
          "ticks": 188640,
          "time": 78.60000000000001,
          "velocity": 0.7401574803149606
        },
        {
          "duration": 0.09999999999999432,
          "durationTicks": 240,
          "midi": 72,
          "name": "C5",
          "ticks": 188640,
          "time": 78.60000000000001,
          "velocity": 0.7401574803149606
        },
        {
          "duration": 0.09999999999999432,
          "durationTicks": 240,
          "midi": 77,
          "name": "F5",
          "ticks": 188640,
          "time": 78.60000000000001,
          "velocity": 0.7401574803149606
        },
        {
          "duration": 0.10000000000000853,
          "durationTicks": 240,
          "midi": 77,
          "name": "F5",
          "ticks": 188880,
          "time": 78.7,
          "velocity": 1
        },
        {
          "duration": 0.10000000000000853,
          "durationTicks": 240,
          "midi": 65,
          "name": "F4",
          "ticks": 188880,
          "time": 78.7,
          "velocity": 1
        },
        {
          "duration": 0.10000000000000853,
          "durationTicks": 240,
          "midi": 72,
          "name": "C5",
          "ticks": 188880,
          "time": 78.7,
          "velocity": 1
        },
        {
          "duration": 0.10000000000000853,
          "durationTicks": 240,
          "midi": 70,
          "name": "A#4",
          "ticks": 188880,
          "time": 78.7,
          "velocity": 1
        },
        {
          "duration": 0.09999999999999432,
          "durationTicks": 240,
          "midi": 65,
          "name": "F4",
          "ticks": 189360,
          "time": 78.9,
          "velocity": 0.7401574803149606
        },
        {
          "duration": 0.09999999999999432,
          "durationTicks": 240,
          "midi": 72,
          "name": "C5",
          "ticks": 189360,
          "time": 78.9,
          "velocity": 0.7401574803149606
        },
        {
          "duration": 0.09999999999999432,
          "durationTicks": 240,
          "midi": 77,
          "name": "F5",
          "ticks": 189360,
          "time": 78.9,
          "velocity": 0.7401574803149606
        },
        {
          "duration": 0.10000000000000853,
          "durationTicks": 240,
          "midi": 77,
          "name": "F5",
          "ticks": 189600,
          "time": 79,
          "velocity": 1
        },
        {
          "duration": 0.10000000000000853,
          "durationTicks": 240,
          "midi": 65,
          "name": "F4",
          "ticks": 189600,
          "time": 79,
          "velocity": 1
        },
        {
          "duration": 0.10000000000000853,
          "durationTicks": 240,
          "midi": 72,
          "name": "C5",
          "ticks": 189600,
          "time": 79,
          "velocity": 1
        },
        {
          "duration": 0.10000000000000853,
          "durationTicks": 240,
          "midi": 70,
          "name": "A#4",
          "ticks": 189600,
          "time": 79,
          "velocity": 1
        },
        {
          "duration": 0.10000000000000853,
          "durationTicks": 240,
          "midi": 65,
          "name": "F4",
          "ticks": 190080,
          "time": 79.2,
          "velocity": 0.7401574803149606
        },
        {
          "duration": 0.10000000000000853,
          "durationTicks": 240,
          "midi": 72,
          "name": "C5",
          "ticks": 190080,
          "time": 79.2,
          "velocity": 0.7401574803149606
        },
        {
          "duration": 0.10000000000000853,
          "durationTicks": 240,
          "midi": 77,
          "name": "F5",
          "ticks": 190080,
          "time": 79.2,
          "velocity": 0.7401574803149606
        },
        {
          "duration": 0.09999999999999432,
          "durationTicks": 240,
          "midi": 77,
          "name": "F5",
          "ticks": 190320,
          "time": 79.30000000000001,
          "velocity": 1
        },
        {
          "duration": 0.09999999999999432,
          "durationTicks": 240,
          "midi": 65,
          "name": "F4",
          "ticks": 190320,
          "time": 79.30000000000001,
          "velocity": 1
        },
        {
          "duration": 0.09999999999999432,
          "durationTicks": 240,
          "midi": 72,
          "name": "C5",
          "ticks": 190320,
          "time": 79.30000000000001,
          "velocity": 1
        },
        {
          "duration": 0.09999999999999432,
          "durationTicks": 240,
          "midi": 70,
          "name": "A#4",
          "ticks": 190320,
          "time": 79.30000000000001,
          "velocity": 1
        },
        {
          "duration": 0.10000000000000853,
          "durationTicks": 240,
          "midi": 65,
          "name": "F4",
          "ticks": 190800,
          "time": 79.5,
          "velocity": 0.7401574803149606
        },
        {
          "duration": 0.10000000000000853,
          "durationTicks": 240,
          "midi": 72,
          "name": "C5",
          "ticks": 190800,
          "time": 79.5,
          "velocity": 0.7401574803149606
        },
        {
          "duration": 0.10000000000000853,
          "durationTicks": 240,
          "midi": 77,
          "name": "F5",
          "ticks": 190800,
          "time": 79.5,
          "velocity": 0.7401574803149606
        },
        {
          "duration": 0.09999999999999432,
          "durationTicks": 240,
          "midi": 77,
          "name": "F5",
          "ticks": 191040,
          "time": 79.60000000000001,
          "velocity": 1
        },
        {
          "duration": 0.09999999999999432,
          "durationTicks": 240,
          "midi": 65,
          "name": "F4",
          "ticks": 191040,
          "time": 79.60000000000001,
          "velocity": 1
        },
        {
          "duration": 0.09999999999999432,
          "durationTicks": 240,
          "midi": 72,
          "name": "C5",
          "ticks": 191040,
          "time": 79.60000000000001,
          "velocity": 1
        },
        {
          "duration": 0.09999999999999432,
          "durationTicks": 240,
          "midi": 70,
          "name": "A#4",
          "ticks": 191040,
          "time": 79.60000000000001,
          "velocity": 1
        },
        {
          "duration": 0.09999999999999432,
          "durationTicks": 240,
          "midi": 75,
          "name": "D#5",
          "ticks": 191520,
          "time": 79.80000000000001,
          "velocity": 1
        },
        {
          "duration": 0.09999999999999432,
          "durationTicks": 240,
          "midi": 63,
          "name": "D#4",
          "ticks": 191520,
          "time": 79.80000000000001,
          "velocity": 1
        },
        {
          "duration": 0.09999999999999432,
          "durationTicks": 240,
          "midi": 70,
          "name": "A#4",
          "ticks": 191520,
          "time": 79.80000000000001,
          "velocity": 1
        },
        {
          "duration": 0.10000000000000853,
          "durationTicks": 240,
          "midi": 72,
          "name": "C5",
          "ticks": 192000,
          "time": 80,
          "velocity": 1
        },
        {
          "duration": 0.10000000000000853,
          "durationTicks": 240,
          "midi": 65,
          "name": "F4",
          "ticks": 192000,
          "time": 80,
          "velocity": 1
        },
        {
          "duration": 0.10000000000000853,
          "durationTicks": 240,
          "midi": 77,
          "name": "F5",
          "ticks": 192000,
          "time": 80,
          "velocity": 1
        },
        {
          "duration": 0.10000000000000853,
          "durationTicks": 240,
          "midi": 65,
          "name": "F4",
          "ticks": 192480,
          "time": 80.2,
          "velocity": 0.7401574803149606
        },
        {
          "duration": 0.10000000000000853,
          "durationTicks": 240,
          "midi": 72,
          "name": "C5",
          "ticks": 192480,
          "time": 80.2,
          "velocity": 0.7401574803149606
        },
        {
          "duration": 0.10000000000000853,
          "durationTicks": 240,
          "midi": 77,
          "name": "F5",
          "ticks": 192480,
          "time": 80.2,
          "velocity": 0.7401574803149606
        },
        {
          "duration": 0.09999999999999432,
          "durationTicks": 240,
          "midi": 72,
          "name": "C5",
          "ticks": 192720,
          "time": 80.30000000000001,
          "velocity": 1
        },
        {
          "duration": 0.09999999999999432,
          "durationTicks": 240,
          "midi": 65,
          "name": "F4",
          "ticks": 192720,
          "time": 80.30000000000001,
          "velocity": 1
        },
        {
          "duration": 0.09999999999999432,
          "durationTicks": 240,
          "midi": 77,
          "name": "F5",
          "ticks": 192720,
          "time": 80.30000000000001,
          "velocity": 1
        },
        {
          "duration": 0.10000000000000853,
          "durationTicks": 240,
          "midi": 65,
          "name": "F4",
          "ticks": 193200,
          "time": 80.5,
          "velocity": 0.7401574803149606
        },
        {
          "duration": 0.10000000000000853,
          "durationTicks": 240,
          "midi": 72,
          "name": "C5",
          "ticks": 193200,
          "time": 80.5,
          "velocity": 0.7401574803149606
        },
        {
          "duration": 0.10000000000000853,
          "durationTicks": 240,
          "midi": 77,
          "name": "F5",
          "ticks": 193200,
          "time": 80.5,
          "velocity": 0.7401574803149606
        },
        {
          "duration": 0.09999999999999432,
          "durationTicks": 240,
          "midi": 72,
          "name": "C5",
          "ticks": 193440,
          "time": 80.60000000000001,
          "velocity": 1
        },
        {
          "duration": 0.09999999999999432,
          "durationTicks": 240,
          "midi": 65,
          "name": "F4",
          "ticks": 193440,
          "time": 80.60000000000001,
          "velocity": 1
        },
        {
          "duration": 0.09999999999999432,
          "durationTicks": 240,
          "midi": 77,
          "name": "F5",
          "ticks": 193440,
          "time": 80.60000000000001,
          "velocity": 1
        },
        {
          "duration": 0.09999999999999432,
          "durationTicks": 240,
          "midi": 65,
          "name": "F4",
          "ticks": 193920,
          "time": 80.80000000000001,
          "velocity": 0.7401574803149606
        },
        {
          "duration": 0.09999999999999432,
          "durationTicks": 240,
          "midi": 72,
          "name": "C5",
          "ticks": 193920,
          "time": 80.80000000000001,
          "velocity": 0.7401574803149606
        },
        {
          "duration": 0.09999999999999432,
          "durationTicks": 240,
          "midi": 77,
          "name": "F5",
          "ticks": 193920,
          "time": 80.80000000000001,
          "velocity": 0.7401574803149606
        },
        {
          "duration": 0.09999999999999432,
          "durationTicks": 240,
          "midi": 72,
          "name": "C5",
          "ticks": 194160,
          "time": 80.9,
          "velocity": 1
        },
        {
          "duration": 0.09999999999999432,
          "durationTicks": 240,
          "midi": 65,
          "name": "F4",
          "ticks": 194160,
          "time": 80.9,
          "velocity": 1
        },
        {
          "duration": 0.09999999999999432,
          "durationTicks": 240,
          "midi": 77,
          "name": "F5",
          "ticks": 194160,
          "time": 80.9,
          "velocity": 1
        },
        {
          "duration": 0.09999999999999432,
          "durationTicks": 240,
          "midi": 65,
          "name": "F4",
          "ticks": 194640,
          "time": 81.10000000000001,
          "velocity": 0.7401574803149606
        },
        {
          "duration": 0.09999999999999432,
          "durationTicks": 240,
          "midi": 72,
          "name": "C5",
          "ticks": 194640,
          "time": 81.10000000000001,
          "velocity": 0.7401574803149606
        },
        {
          "duration": 0.09999999999999432,
          "durationTicks": 240,
          "midi": 77,
          "name": "F5",
          "ticks": 194640,
          "time": 81.10000000000001,
          "velocity": 0.7401574803149606
        },
        {
          "duration": 0.10000000000000853,
          "durationTicks": 240,
          "midi": 72,
          "name": "C5",
          "ticks": 194880,
          "time": 81.2,
          "velocity": 1
        },
        {
          "duration": 0.10000000000000853,
          "durationTicks": 240,
          "midi": 65,
          "name": "F4",
          "ticks": 194880,
          "time": 81.2,
          "velocity": 1
        },
        {
          "duration": 0.10000000000000853,
          "durationTicks": 240,
          "midi": 77,
          "name": "F5",
          "ticks": 194880,
          "time": 81.2,
          "velocity": 1
        },
        {
          "duration": 0.09999999999999432,
          "durationTicks": 240,
          "midi": 73,
          "name": "C#5",
          "ticks": 195360,
          "time": 81.4,
          "velocity": 1
        },
        {
          "duration": 0.09999999999999432,
          "durationTicks": 240,
          "midi": 66,
          "name": "F#4",
          "ticks": 195360,
          "time": 81.4,
          "velocity": 1
        },
        {
          "duration": 0.09999999999999432,
          "durationTicks": 240,
          "midi": 78,
          "name": "F#5",
          "ticks": 195360,
          "time": 81.4,
          "velocity": 1
        },
        {
          "duration": 0.09999999999999432,
          "durationTicks": 240,
          "midi": 72,
          "name": "C5",
          "ticks": 195360,
          "time": 81.4,
          "velocity": 1
        },
        {
          "duration": 0.09999999999999432,
          "durationTicks": 240,
          "midi": 77,
          "name": "F5",
          "ticks": 195840,
          "time": 81.60000000000001,
          "velocity": 1
        },
        {
          "duration": 0.09999999999999432,
          "durationTicks": 240,
          "midi": 65,
          "name": "F4",
          "ticks": 195840,
          "time": 81.60000000000001,
          "velocity": 1
        },
        {
          "duration": 0.09999999999999432,
          "durationTicks": 240,
          "midi": 72,
          "name": "C5",
          "ticks": 195840,
          "time": 81.60000000000001,
          "velocity": 1
        },
        {
          "duration": 0.09999999999999432,
          "durationTicks": 240,
          "midi": 75,
          "name": "D#5",
          "ticks": 195840,
          "time": 81.60000000000001,
          "velocity": 1
        },
        {
          "duration": 0.09999999999999432,
          "durationTicks": 240,
          "midi": 65,
          "name": "F4",
          "ticks": 196320,
          "time": 81.80000000000001,
          "velocity": 0.7401574803149606
        },
        {
          "duration": 0.09999999999999432,
          "durationTicks": 240,
          "midi": 72,
          "name": "C5",
          "ticks": 196320,
          "time": 81.80000000000001,
          "velocity": 0.7401574803149606
        },
        {
          "duration": 0.09999999999999432,
          "durationTicks": 240,
          "midi": 77,
          "name": "F5",
          "ticks": 196320,
          "time": 81.80000000000001,
          "velocity": 0.7401574803149606
        },
        {
          "duration": 0.09999999999999432,
          "durationTicks": 240,
          "midi": 77,
          "name": "F5",
          "ticks": 196560,
          "time": 81.9,
          "velocity": 1
        },
        {
          "duration": 0.09999999999999432,
          "durationTicks": 240,
          "midi": 65,
          "name": "F4",
          "ticks": 196560,
          "time": 81.9,
          "velocity": 1
        },
        {
          "duration": 0.09999999999999432,
          "durationTicks": 240,
          "midi": 72,
          "name": "C5",
          "ticks": 196560,
          "time": 81.9,
          "velocity": 1
        },
        {
          "duration": 0.09999999999999432,
          "durationTicks": 240,
          "midi": 75,
          "name": "D#5",
          "ticks": 196560,
          "time": 81.9,
          "velocity": 1
        },
        {
          "duration": 0.09999999999999432,
          "durationTicks": 240,
          "midi": 65,
          "name": "F4",
          "ticks": 197040,
          "time": 82.10000000000001,
          "velocity": 0.7401574803149606
        },
        {
          "duration": 0.09999999999999432,
          "durationTicks": 240,
          "midi": 72,
          "name": "C5",
          "ticks": 197040,
          "time": 82.10000000000001,
          "velocity": 0.7401574803149606
        },
        {
          "duration": 0.09999999999999432,
          "durationTicks": 240,
          "midi": 77,
          "name": "F5",
          "ticks": 197040,
          "time": 82.10000000000001,
          "velocity": 0.7401574803149606
        },
        {
          "duration": 0.10000000000000853,
          "durationTicks": 240,
          "midi": 77,
          "name": "F5",
          "ticks": 197280,
          "time": 82.2,
          "velocity": 1
        },
        {
          "duration": 0.10000000000000853,
          "durationTicks": 240,
          "midi": 65,
          "name": "F4",
          "ticks": 197280,
          "time": 82.2,
          "velocity": 1
        },
        {
          "duration": 0.10000000000000853,
          "durationTicks": 240,
          "midi": 72,
          "name": "C5",
          "ticks": 197280,
          "time": 82.2,
          "velocity": 1
        },
        {
          "duration": 0.10000000000000853,
          "durationTicks": 240,
          "midi": 75,
          "name": "D#5",
          "ticks": 197280,
          "time": 82.2,
          "velocity": 1
        },
        {
          "duration": 0.09999999999999432,
          "durationTicks": 240,
          "midi": 65,
          "name": "F4",
          "ticks": 197760,
          "time": 82.4,
          "velocity": 0.7401574803149606
        },
        {
          "duration": 0.09999999999999432,
          "durationTicks": 240,
          "midi": 72,
          "name": "C5",
          "ticks": 197760,
          "time": 82.4,
          "velocity": 0.7401574803149606
        },
        {
          "duration": 0.09999999999999432,
          "durationTicks": 240,
          "midi": 77,
          "name": "F5",
          "ticks": 197760,
          "time": 82.4,
          "velocity": 0.7401574803149606
        },
        {
          "duration": 0.10000000000000853,
          "durationTicks": 240,
          "midi": 77,
          "name": "F5",
          "ticks": 198000,
          "time": 82.5,
          "velocity": 1
        },
        {
          "duration": 0.10000000000000853,
          "durationTicks": 240,
          "midi": 65,
          "name": "F4",
          "ticks": 198000,
          "time": 82.5,
          "velocity": 1
        },
        {
          "duration": 0.10000000000000853,
          "durationTicks": 240,
          "midi": 72,
          "name": "C5",
          "ticks": 198000,
          "time": 82.5,
          "velocity": 1
        },
        {
          "duration": 0.10000000000000853,
          "durationTicks": 240,
          "midi": 75,
          "name": "D#5",
          "ticks": 198000,
          "time": 82.5,
          "velocity": 1
        },
        {
          "duration": 0.10000000000000853,
          "durationTicks": 240,
          "midi": 65,
          "name": "F4",
          "ticks": 198480,
          "time": 82.7,
          "velocity": 0.7401574803149606
        },
        {
          "duration": 0.10000000000000853,
          "durationTicks": 240,
          "midi": 72,
          "name": "C5",
          "ticks": 198480,
          "time": 82.7,
          "velocity": 0.7401574803149606
        },
        {
          "duration": 0.10000000000000853,
          "durationTicks": 240,
          "midi": 77,
          "name": "F5",
          "ticks": 198480,
          "time": 82.7,
          "velocity": 0.7401574803149606
        },
        {
          "duration": 0.09999999999999432,
          "durationTicks": 240,
          "midi": 77,
          "name": "F5",
          "ticks": 198720,
          "time": 82.80000000000001,
          "velocity": 1
        },
        {
          "duration": 0.09999999999999432,
          "durationTicks": 240,
          "midi": 65,
          "name": "F4",
          "ticks": 198720,
          "time": 82.80000000000001,
          "velocity": 1
        },
        {
          "duration": 0.09999999999999432,
          "durationTicks": 240,
          "midi": 72,
          "name": "C5",
          "ticks": 198720,
          "time": 82.80000000000001,
          "velocity": 1
        },
        {
          "duration": 0.09999999999999432,
          "durationTicks": 240,
          "midi": 75,
          "name": "D#5",
          "ticks": 198720,
          "time": 82.80000000000001,
          "velocity": 1
        },
        {
          "duration": 0.10000000000000853,
          "durationTicks": 240,
          "midi": 75,
          "name": "D#5",
          "ticks": 199200,
          "time": 83,
          "velocity": 1
        },
        {
          "duration": 0.10000000000000853,
          "durationTicks": 240,
          "midi": 63,
          "name": "D#4",
          "ticks": 199200,
          "time": 83,
          "velocity": 1
        },
        {
          "duration": 0.10000000000000853,
          "durationTicks": 240,
          "midi": 70,
          "name": "A#4",
          "ticks": 199200,
          "time": 83,
          "velocity": 1
        }
      ]
    },
    {
      "channel": 0,
      "controlChanges": {
        "7": [
          {
            "number": 7,
            "ticks": 0,
            "time": 0,
            "value": 0.7480314960629921
          }
        ]
      },
      "pitchBends": [],
      "instrument": {
        "family": "piano",
        "number": 0,
        "name": "acoustic grand piano"
      },
      "name": "Version 1.0",
      "notes": [],
      "endOfTrackTicks": 199680
    },
    {
      "channel": 6,
      "controlChanges": {},
      "pitchBends": [],
      "instrument": {
        "family": "brass",
        "number": 62,
        "name": "synthbrass 1"
      },
      "name": "",
      "notes": [
        {
          "duration": 0.15000000000000002,
          "durationTicks": 360,
          "midi": 41,
          "name": "F2",
          "ticks": 0,
          "time": 0,
          "velocity": 1
        },
        {
          "duration": 0.10000000000000003,
          "durationTicks": 240,
          "midi": 41,
          "name": "F2",
          "ticks": 480,
          "time": 0.2,
          "velocity": 1
        },
        {
          "duration": 0.14999999999999997,
          "durationTicks": 360,
          "midi": 41,
          "name": "F2",
          "ticks": 720,
          "time": 0.30000000000000004,
          "velocity": 1
        },
        {
          "duration": 0.10000000000000009,
          "durationTicks": 240,
          "midi": 41,
          "name": "F2",
          "ticks": 1200,
          "time": 0.5,
          "velocity": 1
        },
        {
          "duration": 0.1499999999999999,
          "durationTicks": 360,
          "midi": 41,
          "name": "F2",
          "ticks": 1440,
          "time": 0.6000000000000001,
          "velocity": 1
        },
        {
          "duration": 0.09999999999999998,
          "durationTicks": 240,
          "midi": 41,
          "name": "F2",
          "ticks": 1920,
          "time": 0.8,
          "velocity": 1
        },
        {
          "duration": 0.15000000000000002,
          "durationTicks": 360,
          "midi": 41,
          "name": "F2",
          "ticks": 2160,
          "time": 0.9,
          "velocity": 1
        },
        {
          "duration": 0.10000000000000009,
          "durationTicks": 240,
          "midi": 41,
          "name": "F2",
          "ticks": 2640,
          "time": 1.1,
          "velocity": 1
        },
        {
          "duration": 0.1499999999999999,
          "durationTicks": 360,
          "midi": 41,
          "name": "F2",
          "ticks": 2880,
          "time": 1.2000000000000002,
          "velocity": 1
        },
        {
          "duration": 0.1499999999999999,
          "durationTicks": 360,
          "midi": 42,
          "name": "F#2",
          "ticks": 3360,
          "time": 1.4000000000000001,
          "velocity": 1
        },
        {
          "duration": 0.1499999999999999,
          "durationTicks": 360,
          "midi": 41,
          "name": "F2",
          "ticks": 3840,
          "time": 1.6,
          "velocity": 1
        },
        {
          "duration": 0.10000000000000009,
          "durationTicks": 240,
          "midi": 41,
          "name": "F2",
          "ticks": 4320,
          "time": 1.8,
          "velocity": 1
        },
        {
          "duration": 0.15000000000000013,
          "durationTicks": 360,
          "midi": 41,
          "name": "F2",
          "ticks": 4560,
          "time": 1.9000000000000001,
          "velocity": 1
        },
        {
          "duration": 0.10000000000000009,
          "durationTicks": 240,
          "midi": 41,
          "name": "F2",
          "ticks": 5040,
          "time": 2.1,
          "velocity": 1
        },
        {
          "duration": 0.1499999999999999,
          "durationTicks": 360,
          "midi": 41,
          "name": "F2",
          "ticks": 5280,
          "time": 2.2,
          "velocity": 1
        },
        {
          "duration": 0.09999999999999964,
          "durationTicks": 240,
          "midi": 41,
          "name": "F2",
          "ticks": 5760,
          "time": 2.4000000000000004,
          "velocity": 1
        },
        {
          "duration": 0.15000000000000036,
          "durationTicks": 360,
          "midi": 41,
          "name": "F2",
          "ticks": 6000,
          "time": 2.5,
          "velocity": 1
        },
        {
          "duration": 0.10000000000000009,
          "durationTicks": 240,
          "midi": 41,
          "name": "F2",
          "ticks": 6480,
          "time": 2.7,
          "velocity": 1
        },
        {
          "duration": 0.1499999999999999,
          "durationTicks": 360,
          "midi": 41,
          "name": "F2",
          "ticks": 6720,
          "time": 2.8000000000000003,
          "velocity": 1
        },
        {
          "duration": 0.15000000000000036,
          "durationTicks": 360,
          "midi": 39,
          "name": "D#2",
          "ticks": 7200,
          "time": 3,
          "velocity": 1
        },
        {
          "duration": 0.1499999999999999,
          "durationTicks": 360,
          "midi": 41,
          "name": "F2",
          "ticks": 7680,
          "time": 3.2,
          "velocity": 1
        },
        {
          "duration": 0.09999999999999964,
          "durationTicks": 240,
          "midi": 41,
          "name": "F2",
          "ticks": 8160,
          "time": 3.4000000000000004,
          "velocity": 1
        },
        {
          "duration": 0.15000000000000036,
          "durationTicks": 360,
          "midi": 41,
          "name": "F2",
          "ticks": 8400,
          "time": 3.5,
          "velocity": 1
        },
        {
          "duration": 0.10000000000000009,
          "durationTicks": 240,
          "midi": 41,
          "name": "F2",
          "ticks": 8880,
          "time": 3.7,
          "velocity": 1
        },
        {
          "duration": 0.1499999999999999,
          "durationTicks": 360,
          "midi": 41,
          "name": "F2",
          "ticks": 9120,
          "time": 3.8000000000000003,
          "velocity": 1
        },
        {
          "duration": 0.10000000000000053,
          "durationTicks": 240,
          "midi": 41,
          "name": "F2",
          "ticks": 9600,
          "time": 4,
          "velocity": 1
        },
        {
          "duration": 0.14999999999999947,
          "durationTicks": 360,
          "midi": 41,
          "name": "F2",
          "ticks": 9840,
          "time": 4.1000000000000005,
          "velocity": 1
        },
        {
          "duration": 0.10000000000000053,
          "durationTicks": 240,
          "midi": 41,
          "name": "F2",
          "ticks": 10320,
          "time": 4.3,
          "velocity": 1
        },
        {
          "duration": 0.14999999999999947,
          "durationTicks": 360,
          "midi": 41,
          "name": "F2",
          "ticks": 10560,
          "time": 4.4,
          "velocity": 1
        },
        {
          "duration": 0.14999999999999947,
          "durationTicks": 360,
          "midi": 42,
          "name": "F#2",
          "ticks": 11040,
          "time": 4.6000000000000005,
          "velocity": 1
        },
        {
          "duration": 0.14999999999999947,
          "durationTicks": 360,
          "midi": 41,
          "name": "F2",
          "ticks": 11520,
          "time": 4.800000000000001,
          "velocity": 1
        },
        {
          "duration": 0.10000000000000053,
          "durationTicks": 240,
          "midi": 41,
          "name": "F2",
          "ticks": 12000,
          "time": 5,
          "velocity": 1
        },
        {
          "duration": 0.14999999999999947,
          "durationTicks": 360,
          "midi": 41,
          "name": "F2",
          "ticks": 12240,
          "time": 5.1000000000000005,
          "velocity": 1
        },
        {
          "duration": 0.09999999999999964,
          "durationTicks": 240,
          "midi": 41,
          "name": "F2",
          "ticks": 12720,
          "time": 5.300000000000001,
          "velocity": 1
        },
        {
          "duration": 0.15000000000000036,
          "durationTicks": 360,
          "midi": 41,
          "name": "F2",
          "ticks": 12960,
          "time": 5.4,
          "velocity": 1
        },
        {
          "duration": 0.09999999999999964,
          "durationTicks": 240,
          "midi": 41,
          "name": "F2",
          "ticks": 13440,
          "time": 5.6000000000000005,
          "velocity": 1
        },
        {
          "duration": 0.15000000000000036,
          "durationTicks": 360,
          "midi": 41,
          "name": "F2",
          "ticks": 13680,
          "time": 5.7,
          "velocity": 1
        },
        {
          "duration": 0.09999999999999964,
          "durationTicks": 240,
          "midi": 41,
          "name": "F2",
          "ticks": 14160,
          "time": 5.9,
          "velocity": 1
        },
        {
          "duration": 0.15000000000000036,
          "durationTicks": 360,
          "midi": 41,
          "name": "F2",
          "ticks": 14400,
          "time": 6,
          "velocity": 1
        },
        {
          "duration": 0.15000000000000036,
          "durationTicks": 360,
          "midi": 39,
          "name": "D#2",
          "ticks": 14880,
          "time": 6.2,
          "velocity": 1
        },
        {
          "duration": 0.15000000000000036,
          "durationTicks": 360,
          "midi": 41,
          "name": "F2",
          "ticks": 15360,
          "time": 6.4,
          "velocity": 1
        },
        {
          "duration": 0.09999999999999964,
          "durationTicks": 240,
          "midi": 41,
          "name": "F2",
          "ticks": 15840,
          "time": 6.6000000000000005,
          "velocity": 1
        },
        {
          "duration": 0.15000000000000036,
          "durationTicks": 360,
          "midi": 41,
          "name": "F2",
          "ticks": 16080,
          "time": 6.7,
          "velocity": 1
        },
        {
          "duration": 0.09999999999999964,
          "durationTicks": 240,
          "midi": 41,
          "name": "F2",
          "ticks": 16560,
          "time": 6.9,
          "velocity": 1
        },
        {
          "duration": 0.15000000000000036,
          "durationTicks": 360,
          "midi": 41,
          "name": "F2",
          "ticks": 16800,
          "time": 7,
          "velocity": 1
        },
        {
          "duration": 0.10000000000000053,
          "durationTicks": 240,
          "midi": 41,
          "name": "F2",
          "ticks": 17280,
          "time": 7.2,
          "velocity": 1
        },
        {
          "duration": 0.14999999999999947,
          "durationTicks": 360,
          "midi": 41,
          "name": "F2",
          "ticks": 17520,
          "time": 7.300000000000001,
          "velocity": 1
        },
        {
          "duration": 0.10000000000000053,
          "durationTicks": 240,
          "midi": 41,
          "name": "F2",
          "ticks": 18000,
          "time": 7.5,
          "velocity": 1
        },
        {
          "duration": 0.14999999999999947,
          "durationTicks": 360,
          "midi": 41,
          "name": "F2",
          "ticks": 18240,
          "time": 7.6000000000000005,
          "velocity": 1
        },
        {
          "duration": 0.14999999999999947,
          "durationTicks": 360,
          "midi": 41,
          "name": "F2",
          "ticks": 18720,
          "time": 7.800000000000001,
          "velocity": 1
        },
        {
          "duration": 0.15000000000000036,
          "durationTicks": 360,
          "midi": 44,
          "name": "G#2",
          "ticks": 19200,
          "time": 8,
          "velocity": 1
        },
        {
          "duration": 0.09999999999999964,
          "durationTicks": 240,
          "midi": 44,
          "name": "G#2",
          "ticks": 19680,
          "time": 8.200000000000001,
          "velocity": 1
        },
        {
          "duration": 0.15000000000000036,
          "durationTicks": 360,
          "midi": 44,
          "name": "G#2",
          "ticks": 19920,
          "time": 8.3,
          "velocity": 1
        },
        {
          "duration": 0.09999999999999964,
          "durationTicks": 240,
          "midi": 44,
          "name": "G#2",
          "ticks": 20400,
          "time": 8.5,
          "velocity": 1
        },
        {
          "duration": 0.15000000000000036,
          "durationTicks": 360,
          "midi": 44,
          "name": "G#2",
          "ticks": 20640,
          "time": 8.6,
          "velocity": 1
        },
        {
          "duration": 0.09999999999999964,
          "durationTicks": 240,
          "midi": 44,
          "name": "G#2",
          "ticks": 21120,
          "time": 8.8,
          "velocity": 1
        },
        {
          "duration": 0.15000000000000036,
          "durationTicks": 360,
          "midi": 44,
          "name": "G#2",
          "ticks": 21360,
          "time": 8.9,
          "velocity": 1
        },
        {
          "duration": 0.10000000000000142,
          "durationTicks": 240,
          "midi": 44,
          "name": "G#2",
          "ticks": 21840,
          "time": 9.1,
          "velocity": 1
        },
        {
          "duration": 0.14999999999999858,
          "durationTicks": 360,
          "midi": 44,
          "name": "G#2",
          "ticks": 22080,
          "time": 9.200000000000001,
          "velocity": 1
        },
        {
          "duration": 0.15000000000000036,
          "durationTicks": 360,
          "midi": 44,
          "name": "G#2",
          "ticks": 22560,
          "time": 9.4,
          "velocity": 1
        },
        {
          "duration": 0.14999999999999858,
          "durationTicks": 360,
          "midi": 37,
          "name": "C#2",
          "ticks": 23040,
          "time": 9.600000000000001,
          "velocity": 1
        },
        {
          "duration": 0.09999999999999964,
          "durationTicks": 240,
          "midi": 37,
          "name": "C#2",
          "ticks": 23520,
          "time": 9.8,
          "velocity": 1
        },
        {
          "duration": 0.15000000000000036,
          "durationTicks": 360,
          "midi": 37,
          "name": "C#2",
          "ticks": 23760,
          "time": 9.9,
          "velocity": 1
        },
        {
          "duration": 0.09999999999999964,
          "durationTicks": 240,
          "midi": 37,
          "name": "C#2",
          "ticks": 24240,
          "time": 10.100000000000001,
          "velocity": 1
        },
        {
          "duration": 0.15000000000000036,
          "durationTicks": 360,
          "midi": 37,
          "name": "C#2",
          "ticks": 24480,
          "time": 10.200000000000001,
          "velocity": 1
        },
        {
          "duration": 0.09999999999999964,
          "durationTicks": 240,
          "midi": 37,
          "name": "C#2",
          "ticks": 24960,
          "time": 10.4,
          "velocity": 1
        },
        {
          "duration": 0.15000000000000036,
          "durationTicks": 360,
          "midi": 37,
          "name": "C#2",
          "ticks": 25200,
          "time": 10.5,
          "velocity": 1
        },
        {
          "duration": 0.09999999999999964,
          "durationTicks": 240,
          "midi": 37,
          "name": "C#2",
          "ticks": 25680,
          "time": 10.700000000000001,
          "velocity": 1
        },
        {
          "duration": 0.15000000000000036,
          "durationTicks": 360,
          "midi": 37,
          "name": "C#2",
          "ticks": 25920,
          "time": 10.8,
          "velocity": 1
        },
        {
          "duration": 0.15000000000000036,
          "durationTicks": 360,
          "midi": 37,
          "name": "C#2",
          "ticks": 26400,
          "time": 11,
          "velocity": 1
        },
        {
          "duration": 0.15000000000000036,
          "durationTicks": 360,
          "midi": 39,
          "name": "D#2",
          "ticks": 26880,
          "time": 11.200000000000001,
          "velocity": 1
        },
        {
          "duration": 0.09999999999999964,
          "durationTicks": 240,
          "midi": 39,
          "name": "D#2",
          "ticks": 27360,
          "time": 11.4,
          "velocity": 1
        },
        {
          "duration": 0.15000000000000036,
          "durationTicks": 360,
          "midi": 39,
          "name": "D#2",
          "ticks": 27600,
          "time": 11.5,
          "velocity": 1
        },
        {
          "duration": 0.09999999999999964,
          "durationTicks": 240,
          "midi": 39,
          "name": "D#2",
          "ticks": 28080,
          "time": 11.700000000000001,
          "velocity": 1
        },
        {
          "duration": 0.15000000000000036,
          "durationTicks": 360,
          "midi": 39,
          "name": "D#2",
          "ticks": 28320,
          "time": 11.8,
          "velocity": 1
        },
        {
          "duration": 0.10000000000000142,
          "durationTicks": 240,
          "midi": 39,
          "name": "D#2",
          "ticks": 28800,
          "time": 12,
          "velocity": 1
        },
        {
          "duration": 0.14999999999999858,
          "durationTicks": 360,
          "midi": 39,
          "name": "D#2",
          "ticks": 29040,
          "time": 12.100000000000001,
          "velocity": 1
        },
        {
          "duration": 0.09999999999999964,
          "durationTicks": 240,
          "midi": 39,
          "name": "D#2",
          "ticks": 29520,
          "time": 12.3,
          "velocity": 1
        },
        {
          "duration": 0.15000000000000036,
          "durationTicks": 360,
          "midi": 39,
          "name": "D#2",
          "ticks": 29760,
          "time": 12.4,
          "velocity": 1
        },
        {
          "duration": 0.14999999999999858,
          "durationTicks": 360,
          "midi": 39,
          "name": "D#2",
          "ticks": 30240,
          "time": 12.600000000000001,
          "velocity": 1
        },
        {
          "duration": 0.15000000000000036,
          "durationTicks": 360,
          "midi": 41,
          "name": "F2",
          "ticks": 30720,
          "time": 12.8,
          "velocity": 1
        },
        {
          "duration": 0.10000000000000142,
          "durationTicks": 240,
          "midi": 41,
          "name": "F2",
          "ticks": 31200,
          "time": 13,
          "velocity": 1
        },
        {
          "duration": 0.14999999999999858,
          "durationTicks": 360,
          "midi": 41,
          "name": "F2",
          "ticks": 31440,
          "time": 13.100000000000001,
          "velocity": 1
        },
        {
          "duration": 0.09999999999999964,
          "durationTicks": 240,
          "midi": 41,
          "name": "F2",
          "ticks": 31920,
          "time": 13.3,
          "velocity": 1
        },
        {
          "duration": 0.15000000000000036,
          "durationTicks": 360,
          "midi": 41,
          "name": "F2",
          "ticks": 32160,
          "time": 13.4,
          "velocity": 1
        },
        {
          "duration": 0.09999999999999964,
          "durationTicks": 240,
          "midi": 41,
          "name": "F2",
          "ticks": 32640,
          "time": 13.600000000000001,
          "velocity": 1
        },
        {
          "duration": 0.15000000000000036,
          "durationTicks": 360,
          "midi": 41,
          "name": "F2",
          "ticks": 32880,
          "time": 13.700000000000001,
          "velocity": 1
        },
        {
          "duration": 0.09999999999999964,
          "durationTicks": 240,
          "midi": 41,
          "name": "F2",
          "ticks": 33360,
          "time": 13.9,
          "velocity": 1
        },
        {
          "duration": 0.15000000000000036,
          "durationTicks": 360,
          "midi": 41,
          "name": "F2",
          "ticks": 33600,
          "time": 14,
          "velocity": 1
        },
        {
          "duration": 0.15000000000000036,
          "durationTicks": 360,
          "midi": 41,
          "name": "F2",
          "ticks": 34080,
          "time": 14.200000000000001,
          "velocity": 1
        },
        {
          "duration": 0.15000000000000036,
          "durationTicks": 360,
          "midi": 44,
          "name": "G#2",
          "ticks": 34560,
          "time": 14.4,
          "velocity": 1
        },
        {
          "duration": 0.09999999999999964,
          "durationTicks": 240,
          "midi": 44,
          "name": "G#2",
          "ticks": 35040,
          "time": 14.600000000000001,
          "velocity": 1
        },
        {
          "duration": 0.15000000000000036,
          "durationTicks": 360,
          "midi": 44,
          "name": "G#2",
          "ticks": 35280,
          "time": 14.700000000000001,
          "velocity": 1
        },
        {
          "duration": 0.09999999999999964,
          "durationTicks": 240,
          "midi": 44,
          "name": "G#2",
          "ticks": 35760,
          "time": 14.9,
          "velocity": 1
        },
        {
          "duration": 0.15000000000000036,
          "durationTicks": 360,
          "midi": 44,
          "name": "G#2",
          "ticks": 36000,
          "time": 15,
          "velocity": 1
        },
        {
          "duration": 0.09999999999999964,
          "durationTicks": 240,
          "midi": 44,
          "name": "G#2",
          "ticks": 36480,
          "time": 15.200000000000001,
          "velocity": 1
        },
        {
          "duration": 0.15000000000000036,
          "durationTicks": 360,
          "midi": 44,
          "name": "G#2",
          "ticks": 36720,
          "time": 15.3,
          "velocity": 1
        },
        {
          "duration": 0.10000000000000142,
          "durationTicks": 240,
          "midi": 44,
          "name": "G#2",
          "ticks": 37200,
          "time": 15.5,
          "velocity": 1
        },
        {
          "duration": 0.14999999999999858,
          "durationTicks": 360,
          "midi": 44,
          "name": "G#2",
          "ticks": 37440,
          "time": 15.600000000000001,
          "velocity": 1
        },
        {
          "duration": 0.15000000000000036,
          "durationTicks": 360,
          "midi": 44,
          "name": "G#2",
          "ticks": 37920,
          "time": 15.8,
          "velocity": 1
        },
        {
          "duration": 0.15000000000000213,
          "durationTicks": 360,
          "midi": 37,
          "name": "C#2",
          "ticks": 38400,
          "time": 16,
          "velocity": 1
        },
        {
          "duration": 0.10000000000000142,
          "durationTicks": 240,
          "midi": 37,
          "name": "C#2",
          "ticks": 38880,
          "time": 16.2,
          "velocity": 1
        },
        {
          "duration": 0.14999999999999858,
          "durationTicks": 360,
          "midi": 37,
          "name": "C#2",
          "ticks": 39120,
          "time": 16.3,
          "velocity": 1
        },
        {
          "duration": 0.10000000000000142,
          "durationTicks": 240,
          "midi": 37,
          "name": "C#2",
          "ticks": 39600,
          "time": 16.5,
          "velocity": 1
        },
        {
          "duration": 0.14999999999999858,
          "durationTicks": 360,
          "midi": 37,
          "name": "C#2",
          "ticks": 39840,
          "time": 16.6,
          "velocity": 1
        },
        {
          "duration": 0.10000000000000142,
          "durationTicks": 240,
          "midi": 37,
          "name": "C#2",
          "ticks": 40320,
          "time": 16.8,
          "velocity": 1
        },
        {
          "duration": 0.14999999999999858,
          "durationTicks": 360,
          "midi": 37,
          "name": "C#2",
          "ticks": 40560,
          "time": 16.900000000000002,
          "velocity": 1
        },
        {
          "duration": 0.09999999999999787,
          "durationTicks": 240,
          "midi": 37,
          "name": "C#2",
          "ticks": 41040,
          "time": 17.1,
          "velocity": 1
        },
        {
          "duration": 0.15000000000000213,
          "durationTicks": 360,
          "midi": 37,
          "name": "C#2",
          "ticks": 41280,
          "time": 17.2,
          "velocity": 1
        },
        {
          "duration": 0.14999999999999858,
          "durationTicks": 360,
          "midi": 37,
          "name": "C#2",
          "ticks": 41760,
          "time": 17.400000000000002,
          "velocity": 1
        },
        {
          "duration": 0.14999999999999858,
          "durationTicks": 360,
          "midi": 39,
          "name": "D#2",
          "ticks": 42240,
          "time": 17.6,
          "velocity": 1
        },
        {
          "duration": 0.10000000000000142,
          "durationTicks": 240,
          "midi": 39,
          "name": "D#2",
          "ticks": 42720,
          "time": 17.8,
          "velocity": 1
        },
        {
          "duration": 0.14999999999999858,
          "durationTicks": 360,
          "midi": 39,
          "name": "D#2",
          "ticks": 42960,
          "time": 17.900000000000002,
          "velocity": 1
        },
        {
          "duration": 0.09999999999999787,
          "durationTicks": 240,
          "midi": 39,
          "name": "D#2",
          "ticks": 43440,
          "time": 18.1,
          "velocity": 1
        },
        {
          "duration": 0.15000000000000213,
          "durationTicks": 360,
          "midi": 39,
          "name": "D#2",
          "ticks": 43680,
          "time": 18.2,
          "velocity": 1
        },
        {
          "duration": 0.09999999999999787,
          "durationTicks": 240,
          "midi": 39,
          "name": "D#2",
          "ticks": 44160,
          "time": 18.400000000000002,
          "velocity": 1
        },
        {
          "duration": 0.15000000000000213,
          "durationTicks": 360,
          "midi": 39,
          "name": "D#2",
          "ticks": 44400,
          "time": 18.5,
          "velocity": 1
        },
        {
          "duration": 0.10000000000000142,
          "durationTicks": 240,
          "midi": 39,
          "name": "D#2",
          "ticks": 44880,
          "time": 18.7,
          "velocity": 1
        },
        {
          "duration": 0.14999999999999858,
          "durationTicks": 360,
          "midi": 39,
          "name": "D#2",
          "ticks": 45120,
          "time": 18.8,
          "velocity": 1
        },
        {
          "duration": 0.15000000000000213,
          "durationTicks": 360,
          "midi": 39,
          "name": "D#2",
          "ticks": 45600,
          "time": 19,
          "velocity": 1
        },
        {
          "duration": 0.14999999999999858,
          "durationTicks": 360,
          "midi": 41,
          "name": "F2",
          "ticks": 46080,
          "time": 19.200000000000003,
          "velocity": 1
        },
        {
          "duration": 0.09999999999999787,
          "durationTicks": 240,
          "midi": 41,
          "name": "F2",
          "ticks": 46560,
          "time": 19.400000000000002,
          "velocity": 1
        },
        {
          "duration": 0.15000000000000213,
          "durationTicks": 360,
          "midi": 41,
          "name": "F2",
          "ticks": 46800,
          "time": 19.5,
          "velocity": 1
        },
        {
          "duration": 0.09999999999999787,
          "durationTicks": 240,
          "midi": 41,
          "name": "F2",
          "ticks": 47280,
          "time": 19.700000000000003,
          "velocity": 1
        },
        {
          "duration": 0.15000000000000213,
          "durationTicks": 360,
          "midi": 41,
          "name": "F2",
          "ticks": 47520,
          "time": 19.8,
          "velocity": 1
        },
        {
          "duration": 0.10000000000000142,
          "durationTicks": 240,
          "midi": 41,
          "name": "F2",
          "ticks": 48000,
          "time": 20,
          "velocity": 1
        },
        {
          "duration": 0.14999999999999858,
          "durationTicks": 360,
          "midi": 41,
          "name": "F2",
          "ticks": 48240,
          "time": 20.1,
          "velocity": 1
        },
        {
          "duration": 0.10000000000000142,
          "durationTicks": 240,
          "midi": 41,
          "name": "F2",
          "ticks": 48720,
          "time": 20.3,
          "velocity": 1
        },
        {
          "duration": 0.14999999999999858,
          "durationTicks": 360,
          "midi": 41,
          "name": "F2",
          "ticks": 48960,
          "time": 20.400000000000002,
          "velocity": 1
        },
        {
          "duration": 0.14999999999999858,
          "durationTicks": 360,
          "midi": 41,
          "name": "F2",
          "ticks": 49440,
          "time": 20.6,
          "velocity": 1
        },
        {
          "duration": 0.15000000000000213,
          "durationTicks": 360,
          "midi": 36,
          "name": "C2",
          "ticks": 49920,
          "time": 20.8,
          "velocity": 1
        },
        {
          "duration": 0.10000000000000142,
          "durationTicks": 240,
          "midi": 36,
          "name": "C2",
          "ticks": 50400,
          "time": 21,
          "velocity": 1
        },
        {
          "duration": 0.14999999999999858,
          "durationTicks": 360,
          "midi": 36,
          "name": "C2",
          "ticks": 50640,
          "time": 21.1,
          "velocity": 1
        },
        {
          "duration": 0.10000000000000142,
          "durationTicks": 240,
          "midi": 36,
          "name": "C2",
          "ticks": 51120,
          "time": 21.3,
          "velocity": 1
        },
        {
          "duration": 0.14999999999999858,
          "durationTicks": 360,
          "midi": 36,
          "name": "C2",
          "ticks": 51360,
          "time": 21.400000000000002,
          "velocity": 1
        },
        {
          "duration": 0.10000000000000142,
          "durationTicks": 240,
          "midi": 36,
          "name": "C2",
          "ticks": 51840,
          "time": 21.6,
          "velocity": 1
        },
        {
          "duration": 0.14999999999999858,
          "durationTicks": 360,
          "midi": 36,
          "name": "C2",
          "ticks": 52080,
          "time": 21.700000000000003,
          "velocity": 1
        },
        {
          "duration": 0.09999999999999787,
          "durationTicks": 240,
          "midi": 36,
          "name": "C2",
          "ticks": 52560,
          "time": 21.900000000000002,
          "velocity": 1
        },
        {
          "duration": 0.15000000000000213,
          "durationTicks": 360,
          "midi": 36,
          "name": "C2",
          "ticks": 52800,
          "time": 22,
          "velocity": 1
        },
        {
          "duration": 0.14999999999999858,
          "durationTicks": 360,
          "midi": 36,
          "name": "C2",
          "ticks": 53280,
          "time": 22.200000000000003,
          "velocity": 1
        },
        {
          "duration": 0.14999999999999858,
          "durationTicks": 360,
          "midi": 37,
          "name": "C#2",
          "ticks": 53760,
          "time": 22.400000000000002,
          "velocity": 1
        },
        {
          "duration": 0.10000000000000142,
          "durationTicks": 240,
          "midi": 37,
          "name": "C#2",
          "ticks": 54240,
          "time": 22.6,
          "velocity": 1
        },
        {
          "duration": 0.14999999999999858,
          "durationTicks": 360,
          "midi": 37,
          "name": "C#2",
          "ticks": 54480,
          "time": 22.700000000000003,
          "velocity": 1
        },
        {
          "duration": 0.09999999999999787,
          "durationTicks": 240,
          "midi": 37,
          "name": "C#2",
          "ticks": 54960,
          "time": 22.900000000000002,
          "velocity": 1
        },
        {
          "duration": 0.15000000000000213,
          "durationTicks": 360,
          "midi": 37,
          "name": "C#2",
          "ticks": 55200,
          "time": 23,
          "velocity": 1
        },
        {
          "duration": 0.09999999999999787,
          "durationTicks": 240,
          "midi": 37,
          "name": "C#2",
          "ticks": 55680,
          "time": 23.200000000000003,
          "velocity": 1
        },
        {
          "duration": 0.15000000000000213,
          "durationTicks": 360,
          "midi": 37,
          "name": "C#2",
          "ticks": 55920,
          "time": 23.3,
          "velocity": 1
        },
        {
          "duration": 0.10000000000000142,
          "durationTicks": 240,
          "midi": 37,
          "name": "C#2",
          "ticks": 56400,
          "time": 23.5,
          "velocity": 1
        },
        {
          "duration": 0.14999999999999858,
          "durationTicks": 360,
          "midi": 37,
          "name": "C#2",
          "ticks": 56640,
          "time": 23.6,
          "velocity": 1
        },
        {
          "duration": 0.15000000000000213,
          "durationTicks": 360,
          "midi": 37,
          "name": "C#2",
          "ticks": 57120,
          "time": 23.8,
          "velocity": 1
        },
        {
          "duration": 0.15000000000000213,
          "durationTicks": 360,
          "midi": 39,
          "name": "D#2",
          "ticks": 57600,
          "time": 24,
          "velocity": 1
        },
        {
          "duration": 0.09999999999999787,
          "durationTicks": 240,
          "midi": 39,
          "name": "D#2",
          "ticks": 58080,
          "time": 24.200000000000003,
          "velocity": 1
        },
        {
          "duration": 0.15000000000000213,
          "durationTicks": 360,
          "midi": 39,
          "name": "D#2",
          "ticks": 58320,
          "time": 24.3,
          "velocity": 1
        },
        {
          "duration": 0.10000000000000142,
          "durationTicks": 240,
          "midi": 39,
          "name": "D#2",
          "ticks": 58800,
          "time": 24.5,
          "velocity": 1
        },
        {
          "duration": 0.14999999999999858,
          "durationTicks": 360,
          "midi": 39,
          "name": "D#2",
          "ticks": 59040,
          "time": 24.6,
          "velocity": 1
        },
        {
          "duration": 0.10000000000000142,
          "durationTicks": 240,
          "midi": 39,
          "name": "D#2",
          "ticks": 59520,
          "time": 24.8,
          "velocity": 1
        },
        {
          "duration": 0.14999999999999858,
          "durationTicks": 360,
          "midi": 39,
          "name": "D#2",
          "ticks": 59760,
          "time": 24.900000000000002,
          "velocity": 1
        },
        {
          "duration": 0.10000000000000142,
          "durationTicks": 240,
          "midi": 39,
          "name": "D#2",
          "ticks": 60240,
          "time": 25.1,
          "velocity": 1
        },
        {
          "duration": 0.14999999999999858,
          "durationTicks": 360,
          "midi": 39,
          "name": "D#2",
          "ticks": 60480,
          "time": 25.200000000000003,
          "velocity": 1
        },
        {
          "duration": 0.14999999999999858,
          "durationTicks": 360,
          "midi": 39,
          "name": "D#2",
          "ticks": 60960,
          "time": 25.400000000000002,
          "velocity": 1
        },
        {
          "duration": 0.14999999999999858,
          "durationTicks": 360,
          "midi": 41,
          "name": "F2",
          "ticks": 61440,
          "time": 25.6,
          "velocity": 1
        },
        {
          "duration": 0.10000000000000142,
          "durationTicks": 240,
          "midi": 41,
          "name": "F2",
          "ticks": 61920,
          "time": 25.8,
          "velocity": 1
        },
        {
          "duration": 0.14999999999999858,
          "durationTicks": 360,
          "midi": 41,
          "name": "F2",
          "ticks": 62160,
          "time": 25.900000000000002,
          "velocity": 1
        },
        {
          "duration": 0.10000000000000142,
          "durationTicks": 240,
          "midi": 41,
          "name": "F2",
          "ticks": 62640,
          "time": 26.1,
          "velocity": 1
        },
        {
          "duration": 0.14999999999999858,
          "durationTicks": 360,
          "midi": 41,
          "name": "F2",
          "ticks": 62880,
          "time": 26.200000000000003,
          "velocity": 1
        },
        {
          "duration": 0.09999999999999787,
          "durationTicks": 240,
          "midi": 41,
          "name": "F2",
          "ticks": 63360,
          "time": 26.400000000000002,
          "velocity": 1
        },
        {
          "duration": 0.15000000000000213,
          "durationTicks": 360,
          "midi": 41,
          "name": "F2",
          "ticks": 63600,
          "time": 26.5,
          "velocity": 1
        },
        {
          "duration": 0.09999999999999787,
          "durationTicks": 240,
          "midi": 41,
          "name": "F2",
          "ticks": 64080,
          "time": 26.700000000000003,
          "velocity": 1
        },
        {
          "duration": 0.15000000000000213,
          "durationTicks": 360,
          "midi": 41,
          "name": "F2",
          "ticks": 64320,
          "time": 26.8,
          "velocity": 1
        },
        {
          "duration": 0.15000000000000213,
          "durationTicks": 360,
          "midi": 41,
          "name": "F2",
          "ticks": 64800,
          "time": 27,
          "velocity": 1
        },
        {
          "duration": 0.14999999999999858,
          "durationTicks": 360,
          "midi": 44,
          "name": "G#2",
          "ticks": 65280,
          "time": 27.200000000000003,
          "velocity": 1
        },
        {
          "duration": 0.09999999999999787,
          "durationTicks": 240,
          "midi": 44,
          "name": "G#2",
          "ticks": 65760,
          "time": 27.400000000000002,
          "velocity": 1
        },
        {
          "duration": 0.15000000000000213,
          "durationTicks": 360,
          "midi": 44,
          "name": "G#2",
          "ticks": 66000,
          "time": 27.5,
          "velocity": 1
        },
        {
          "duration": 0.09999999999999787,
          "durationTicks": 240,
          "midi": 44,
          "name": "G#2",
          "ticks": 66480,
          "time": 27.700000000000003,
          "velocity": 1
        },
        {
          "duration": 0.15000000000000213,
          "durationTicks": 360,
          "midi": 44,
          "name": "G#2",
          "ticks": 66720,
          "time": 27.8,
          "velocity": 1
        },
        {
          "duration": 0.10000000000000142,
          "durationTicks": 240,
          "midi": 44,
          "name": "G#2",
          "ticks": 67200,
          "time": 28,
          "velocity": 1
        },
        {
          "duration": 0.14999999999999858,
          "durationTicks": 360,
          "midi": 44,
          "name": "G#2",
          "ticks": 67440,
          "time": 28.1,
          "velocity": 1
        },
        {
          "duration": 0.10000000000000142,
          "durationTicks": 240,
          "midi": 44,
          "name": "G#2",
          "ticks": 67920,
          "time": 28.3,
          "velocity": 1
        },
        {
          "duration": 0.14999999999999858,
          "durationTicks": 360,
          "midi": 44,
          "name": "G#2",
          "ticks": 68160,
          "time": 28.400000000000002,
          "velocity": 1
        },
        {
          "duration": 0.14999999999999858,
          "durationTicks": 360,
          "midi": 44,
          "name": "G#2",
          "ticks": 68640,
          "time": 28.6,
          "velocity": 1
        },
        {
          "duration": 0.15000000000000213,
          "durationTicks": 360,
          "midi": 37,
          "name": "C#2",
          "ticks": 69120,
          "time": 28.8,
          "velocity": 1
        },
        {
          "duration": 0.10000000000000142,
          "durationTicks": 240,
          "midi": 37,
          "name": "C#2",
          "ticks": 69600,
          "time": 29,
          "velocity": 1
        },
        {
          "duration": 0.14999999999999858,
          "durationTicks": 360,
          "midi": 37,
          "name": "C#2",
          "ticks": 69840,
          "time": 29.1,
          "velocity": 1
        },
        {
          "duration": 0.10000000000000142,
          "durationTicks": 240,
          "midi": 37,
          "name": "C#2",
          "ticks": 70320,
          "time": 29.3,
          "velocity": 1
        },
        {
          "duration": 0.14999999999999858,
          "durationTicks": 360,
          "midi": 37,
          "name": "C#2",
          "ticks": 70560,
          "time": 29.400000000000002,
          "velocity": 1
        },
        {
          "duration": 0.10000000000000142,
          "durationTicks": 240,
          "midi": 37,
          "name": "C#2",
          "ticks": 71040,
          "time": 29.6,
          "velocity": 1
        },
        {
          "duration": 0.14999999999999858,
          "durationTicks": 360,
          "midi": 37,
          "name": "C#2",
          "ticks": 71280,
          "time": 29.700000000000003,
          "velocity": 1
        },
        {
          "duration": 0.09999999999999787,
          "durationTicks": 240,
          "midi": 37,
          "name": "C#2",
          "ticks": 71760,
          "time": 29.900000000000002,
          "velocity": 1
        },
        {
          "duration": 0.15000000000000213,
          "durationTicks": 360,
          "midi": 37,
          "name": "C#2",
          "ticks": 72000,
          "time": 30,
          "velocity": 1
        },
        {
          "duration": 0.14999999999999858,
          "durationTicks": 360,
          "midi": 37,
          "name": "C#2",
          "ticks": 72480,
          "time": 30.200000000000003,
          "velocity": 1
        },
        {
          "duration": 0.14999999999999858,
          "durationTicks": 360,
          "midi": 39,
          "name": "D#2",
          "ticks": 72960,
          "time": 30.400000000000002,
          "velocity": 1
        },
        {
          "duration": 0.10000000000000142,
          "durationTicks": 240,
          "midi": 39,
          "name": "D#2",
          "ticks": 73440,
          "time": 30.6,
          "velocity": 1
        },
        {
          "duration": 0.14999999999999858,
          "durationTicks": 360,
          "midi": 39,
          "name": "D#2",
          "ticks": 73680,
          "time": 30.700000000000003,
          "velocity": 1
        },
        {
          "duration": 0.09999999999999787,
          "durationTicks": 240,
          "midi": 39,
          "name": "D#2",
          "ticks": 74160,
          "time": 30.900000000000002,
          "velocity": 1
        },
        {
          "duration": 0.15000000000000213,
          "durationTicks": 360,
          "midi": 39,
          "name": "D#2",
          "ticks": 74400,
          "time": 31,
          "velocity": 1
        },
        {
          "duration": 0.09999999999999787,
          "durationTicks": 240,
          "midi": 39,
          "name": "D#2",
          "ticks": 74880,
          "time": 31.200000000000003,
          "velocity": 1
        },
        {
          "duration": 0.15000000000000213,
          "durationTicks": 360,
          "midi": 39,
          "name": "D#2",
          "ticks": 75120,
          "time": 31.3,
          "velocity": 1
        },
        {
          "duration": 0.10000000000000142,
          "durationTicks": 240,
          "midi": 39,
          "name": "D#2",
          "ticks": 75600,
          "time": 31.5,
          "velocity": 1
        },
        {
          "duration": 0.14999999999999858,
          "durationTicks": 360,
          "midi": 39,
          "name": "D#2",
          "ticks": 75840,
          "time": 31.6,
          "velocity": 1
        },
        {
          "duration": 0.15000000000000213,
          "durationTicks": 360,
          "midi": 39,
          "name": "D#2",
          "ticks": 76320,
          "time": 31.8,
          "velocity": 1
        },
        {
          "duration": 0.14999999999999858,
          "durationTicks": 360,
          "midi": 41,
          "name": "F2",
          "ticks": 76800,
          "time": 32,
          "velocity": 1
        },
        {
          "duration": 0.10000000000000142,
          "durationTicks": 240,
          "midi": 41,
          "name": "F2",
          "ticks": 77280,
          "time": 32.2,
          "velocity": 1
        },
        {
          "duration": 0.14999999999999858,
          "durationTicks": 360,
          "midi": 41,
          "name": "F2",
          "ticks": 77520,
          "time": 32.300000000000004,
          "velocity": 1
        },
        {
          "duration": 0.10000000000000142,
          "durationTicks": 240,
          "midi": 41,
          "name": "F2",
          "ticks": 78000,
          "time": 32.5,
          "velocity": 1
        },
        {
          "duration": 0.14999999999999858,
          "durationTicks": 360,
          "midi": 41,
          "name": "F2",
          "ticks": 78240,
          "time": 32.6,
          "velocity": 1
        },
        {
          "duration": 0.09999999999999432,
          "durationTicks": 240,
          "midi": 41,
          "name": "F2",
          "ticks": 78720,
          "time": 32.800000000000004,
          "velocity": 1
        },
        {
          "duration": 0.15000000000000568,
          "durationTicks": 360,
          "midi": 41,
          "name": "F2",
          "ticks": 78960,
          "time": 32.9,
          "velocity": 1
        },
        {
          "duration": 0.10000000000000142,
          "durationTicks": 240,
          "midi": 41,
          "name": "F2",
          "ticks": 79440,
          "time": 33.1,
          "velocity": 1
        },
        {
          "duration": 0.14999999999999858,
          "durationTicks": 360,
          "midi": 41,
          "name": "F2",
          "ticks": 79680,
          "time": 33.2,
          "velocity": 1
        },
        {
          "duration": 0.15000000000000568,
          "durationTicks": 360,
          "midi": 41,
          "name": "F2",
          "ticks": 80160,
          "time": 33.4,
          "velocity": 1
        },
        {
          "duration": 0.14999999999999858,
          "durationTicks": 360,
          "midi": 44,
          "name": "G#2",
          "ticks": 80640,
          "time": 33.6,
          "velocity": 1
        },
        {
          "duration": 0.09999999999999432,
          "durationTicks": 240,
          "midi": 44,
          "name": "G#2",
          "ticks": 81120,
          "time": 33.800000000000004,
          "velocity": 1
        },
        {
          "duration": 0.15000000000000568,
          "durationTicks": 360,
          "midi": 44,
          "name": "G#2",
          "ticks": 81360,
          "time": 33.9,
          "velocity": 1
        },
        {
          "duration": 0.10000000000000142,
          "durationTicks": 240,
          "midi": 44,
          "name": "G#2",
          "ticks": 81840,
          "time": 34.1,
          "velocity": 1
        },
        {
          "duration": 0.14999999999999858,
          "durationTicks": 360,
          "midi": 44,
          "name": "G#2",
          "ticks": 82080,
          "time": 34.2,
          "velocity": 1
        },
        {
          "duration": 0.10000000000000142,
          "durationTicks": 240,
          "midi": 44,
          "name": "G#2",
          "ticks": 82560,
          "time": 34.4,
          "velocity": 1
        },
        {
          "duration": 0.14999999999999858,
          "durationTicks": 360,
          "midi": 44,
          "name": "G#2",
          "ticks": 82800,
          "time": 34.5,
          "velocity": 1
        },
        {
          "duration": 0.10000000000000142,
          "durationTicks": 240,
          "midi": 44,
          "name": "G#2",
          "ticks": 83280,
          "time": 34.7,
          "velocity": 1
        },
        {
          "duration": 0.14999999999999858,
          "durationTicks": 360,
          "midi": 44,
          "name": "G#2",
          "ticks": 83520,
          "time": 34.800000000000004,
          "velocity": 1
        },
        {
          "duration": 0.14999999999999858,
          "durationTicks": 360,
          "midi": 44,
          "name": "G#2",
          "ticks": 84000,
          "time": 35,
          "velocity": 1
        },
        {
          "duration": 0.14999999999999858,
          "durationTicks": 360,
          "midi": 37,
          "name": "C#2",
          "ticks": 84480,
          "time": 35.2,
          "velocity": 1
        },
        {
          "duration": 0.10000000000000142,
          "durationTicks": 240,
          "midi": 37,
          "name": "C#2",
          "ticks": 84960,
          "time": 35.4,
          "velocity": 1
        },
        {
          "duration": 0.14999999999999858,
          "durationTicks": 360,
          "midi": 37,
          "name": "C#2",
          "ticks": 85200,
          "time": 35.5,
          "velocity": 1
        },
        {
          "duration": 0.10000000000000142,
          "durationTicks": 240,
          "midi": 37,
          "name": "C#2",
          "ticks": 85680,
          "time": 35.7,
          "velocity": 1
        },
        {
          "duration": 0.14999999999999858,
          "durationTicks": 360,
          "midi": 37,
          "name": "C#2",
          "ticks": 85920,
          "time": 35.800000000000004,
          "velocity": 1
        },
        {
          "duration": 0.10000000000000142,
          "durationTicks": 240,
          "midi": 37,
          "name": "C#2",
          "ticks": 86400,
          "time": 36,
          "velocity": 1
        },
        {
          "duration": 0.14999999999999858,
          "durationTicks": 360,
          "midi": 37,
          "name": "C#2",
          "ticks": 86640,
          "time": 36.1,
          "velocity": 1
        },
        {
          "duration": 0.09999999999999432,
          "durationTicks": 240,
          "midi": 37,
          "name": "C#2",
          "ticks": 87120,
          "time": 36.300000000000004,
          "velocity": 1
        },
        {
          "duration": 0.15000000000000568,
          "durationTicks": 360,
          "midi": 37,
          "name": "C#2",
          "ticks": 87360,
          "time": 36.4,
          "velocity": 1
        },
        {
          "duration": 0.14999999999999858,
          "durationTicks": 360,
          "midi": 37,
          "name": "C#2",
          "ticks": 87840,
          "time": 36.6,
          "velocity": 1
        },
        {
          "duration": 0.14999999999999858,
          "durationTicks": 360,
          "midi": 39,
          "name": "D#2",
          "ticks": 88320,
          "time": 36.800000000000004,
          "velocity": 1
        },
        {
          "duration": 0.10000000000000142,
          "durationTicks": 240,
          "midi": 39,
          "name": "D#2",
          "ticks": 88800,
          "time": 37,
          "velocity": 1
        },
        {
          "duration": 0.14999999999999858,
          "durationTicks": 360,
          "midi": 39,
          "name": "D#2",
          "ticks": 89040,
          "time": 37.1,
          "velocity": 1
        },
        {
          "duration": 0.09999999999999432,
          "durationTicks": 240,
          "midi": 39,
          "name": "D#2",
          "ticks": 89520,
          "time": 37.300000000000004,
          "velocity": 1
        },
        {
          "duration": 0.15000000000000568,
          "durationTicks": 360,
          "midi": 39,
          "name": "D#2",
          "ticks": 89760,
          "time": 37.4,
          "velocity": 1
        },
        {
          "duration": 0.10000000000000142,
          "durationTicks": 240,
          "midi": 39,
          "name": "D#2",
          "ticks": 90240,
          "time": 37.6,
          "velocity": 1
        },
        {
          "duration": 0.14999999999999858,
          "durationTicks": 360,
          "midi": 39,
          "name": "D#2",
          "ticks": 90480,
          "time": 37.7,
          "velocity": 1
        },
        {
          "duration": 0.10000000000000142,
          "durationTicks": 240,
          "midi": 39,
          "name": "D#2",
          "ticks": 90960,
          "time": 37.9,
          "velocity": 1
        },
        {
          "duration": 0.14999999999999858,
          "durationTicks": 360,
          "midi": 39,
          "name": "D#2",
          "ticks": 91200,
          "time": 38,
          "velocity": 1
        },
        {
          "duration": 0.14999999999999858,
          "durationTicks": 360,
          "midi": 39,
          "name": "D#2",
          "ticks": 91680,
          "time": 38.2,
          "velocity": 1
        },
        {
          "duration": 0.14999999999999858,
          "durationTicks": 360,
          "midi": 41,
          "name": "F2",
          "ticks": 92160,
          "time": 38.400000000000006,
          "velocity": 1
        },
        {
          "duration": 0.10000000000000142,
          "durationTicks": 240,
          "midi": 41,
          "name": "F2",
          "ticks": 92640,
          "time": 38.6,
          "velocity": 1
        },
        {
          "duration": 0.14999999999999858,
          "durationTicks": 360,
          "midi": 41,
          "name": "F2",
          "ticks": 92880,
          "time": 38.7,
          "velocity": 1
        },
        {
          "duration": 0.09999999999999432,
          "durationTicks": 240,
          "midi": 41,
          "name": "F2",
          "ticks": 93360,
          "time": 38.900000000000006,
          "velocity": 1
        },
        {
          "duration": 0.15000000000000568,
          "durationTicks": 360,
          "midi": 41,
          "name": "F2",
          "ticks": 93600,
          "time": 39,
          "velocity": 1
        },
        {
          "duration": 0.10000000000000142,
          "durationTicks": 240,
          "midi": 41,
          "name": "F2",
          "ticks": 94080,
          "time": 39.2,
          "velocity": 1
        },
        {
          "duration": 0.14999999999999858,
          "durationTicks": 360,
          "midi": 41,
          "name": "F2",
          "ticks": 94320,
          "time": 39.300000000000004,
          "velocity": 1
        },
        {
          "duration": 0.10000000000000142,
          "durationTicks": 240,
          "midi": 41,
          "name": "F2",
          "ticks": 94800,
          "time": 39.5,
          "velocity": 1
        },
        {
          "duration": 0.14999999999999858,
          "durationTicks": 360,
          "midi": 41,
          "name": "F2",
          "ticks": 95040,
          "time": 39.6,
          "velocity": 1
        },
        {
          "duration": 0.14999999999999858,
          "durationTicks": 360,
          "midi": 41,
          "name": "F2",
          "ticks": 95520,
          "time": 39.800000000000004,
          "velocity": 1
        },
        {
          "duration": 0.15000000000000568,
          "durationTicks": 360,
          "midi": 36,
          "name": "C2",
          "ticks": 96000,
          "time": 40,
          "velocity": 1
        },
        {
          "duration": 0.10000000000000142,
          "durationTicks": 240,
          "midi": 36,
          "name": "C2",
          "ticks": 96480,
          "time": 40.2,
          "velocity": 1
        },
        {
          "duration": 0.14999999999999858,
          "durationTicks": 360,
          "midi": 36,
          "name": "C2",
          "ticks": 96720,
          "time": 40.300000000000004,
          "velocity": 1
        },
        {
          "duration": 0.10000000000000142,
          "durationTicks": 240,
          "midi": 36,
          "name": "C2",
          "ticks": 97200,
          "time": 40.5,
          "velocity": 1
        },
        {
          "duration": 0.14999999999999858,
          "durationTicks": 360,
          "midi": 36,
          "name": "C2",
          "ticks": 97440,
          "time": 40.6,
          "velocity": 1
        },
        {
          "duration": 0.10000000000000142,
          "durationTicks": 240,
          "midi": 36,
          "name": "C2",
          "ticks": 97920,
          "time": 40.800000000000004,
          "velocity": 1
        },
        {
          "duration": 0.14999999999999858,
          "durationTicks": 360,
          "midi": 36,
          "name": "C2",
          "ticks": 98160,
          "time": 40.900000000000006,
          "velocity": 1
        },
        {
          "duration": 0.10000000000000142,
          "durationTicks": 240,
          "midi": 36,
          "name": "C2",
          "ticks": 98640,
          "time": 41.1,
          "velocity": 1
        },
        {
          "duration": 0.14999999999999858,
          "durationTicks": 360,
          "midi": 36,
          "name": "C2",
          "ticks": 98880,
          "time": 41.2,
          "velocity": 1
        },
        {
          "duration": 0.14999999999999858,
          "durationTicks": 360,
          "midi": 36,
          "name": "C2",
          "ticks": 99360,
          "time": 41.400000000000006,
          "velocity": 1
        },
        {
          "duration": 0.14999999999999858,
          "durationTicks": 360,
          "midi": 37,
          "name": "C#2",
          "ticks": 99840,
          "time": 41.6,
          "velocity": 1
        },
        {
          "duration": 0.10000000000000142,
          "durationTicks": 240,
          "midi": 37,
          "name": "C#2",
          "ticks": 100320,
          "time": 41.800000000000004,
          "velocity": 1
        },
        {
          "duration": 0.14999999999999858,
          "durationTicks": 360,
          "midi": 37,
          "name": "C#2",
          "ticks": 100560,
          "time": 41.900000000000006,
          "velocity": 1
        },
        {
          "duration": 0.10000000000000142,
          "durationTicks": 240,
          "midi": 37,
          "name": "C#2",
          "ticks": 101040,
          "time": 42.1,
          "velocity": 1
        },
        {
          "duration": 0.14999999999999858,
          "durationTicks": 360,
          "midi": 37,
          "name": "C#2",
          "ticks": 101280,
          "time": 42.2,
          "velocity": 1
        },
        {
          "duration": 0.09999999999999432,
          "durationTicks": 240,
          "midi": 37,
          "name": "C#2",
          "ticks": 101760,
          "time": 42.400000000000006,
          "velocity": 1
        },
        {
          "duration": 0.15000000000000568,
          "durationTicks": 360,
          "midi": 37,
          "name": "C#2",
          "ticks": 102000,
          "time": 42.5,
          "velocity": 1
        },
        {
          "duration": 0.10000000000000142,
          "durationTicks": 240,
          "midi": 37,
          "name": "C#2",
          "ticks": 102480,
          "time": 42.7,
          "velocity": 1
        },
        {
          "duration": 0.14999999999999858,
          "durationTicks": 360,
          "midi": 37,
          "name": "C#2",
          "ticks": 102720,
          "time": 42.800000000000004,
          "velocity": 1
        },
        {
          "duration": 0.15000000000000568,
          "durationTicks": 360,
          "midi": 37,
          "name": "C#2",
          "ticks": 103200,
          "time": 43,
          "velocity": 1
        },
        {
          "duration": 0.14999999999999858,
          "durationTicks": 360,
          "midi": 39,
          "name": "D#2",
          "ticks": 103680,
          "time": 43.2,
          "velocity": 1
        },
        {
          "duration": 0.09999999999999432,
          "durationTicks": 240,
          "midi": 39,
          "name": "D#2",
          "ticks": 104160,
          "time": 43.400000000000006,
          "velocity": 1
        },
        {
          "duration": 0.15000000000000568,
          "durationTicks": 360,
          "midi": 39,
          "name": "D#2",
          "ticks": 104400,
          "time": 43.5,
          "velocity": 1
        },
        {
          "duration": 0.10000000000000142,
          "durationTicks": 240,
          "midi": 39,
          "name": "D#2",
          "ticks": 104880,
          "time": 43.7,
          "velocity": 1
        },
        {
          "duration": 0.14999999999999858,
          "durationTicks": 360,
          "midi": 39,
          "name": "D#2",
          "ticks": 105120,
          "time": 43.800000000000004,
          "velocity": 1
        },
        {
          "duration": 0.10000000000000142,
          "durationTicks": 240,
          "midi": 39,
          "name": "D#2",
          "ticks": 105600,
          "time": 44,
          "velocity": 1
        },
        {
          "duration": 0.14999999999999858,
          "durationTicks": 360,
          "midi": 39,
          "name": "D#2",
          "ticks": 105840,
          "time": 44.1,
          "velocity": 1
        },
        {
          "duration": 0.10000000000000142,
          "durationTicks": 240,
          "midi": 39,
          "name": "D#2",
          "ticks": 106320,
          "time": 44.300000000000004,
          "velocity": 1
        },
        {
          "duration": 0.14999999999999858,
          "durationTicks": 360,
          "midi": 39,
          "name": "D#2",
          "ticks": 106560,
          "time": 44.400000000000006,
          "velocity": 1
        },
        {
          "duration": 0.14999999999999858,
          "durationTicks": 360,
          "midi": 39,
          "name": "D#2",
          "ticks": 107040,
          "time": 44.6,
          "velocity": 1
        },
        {
          "duration": 0.14999999999999858,
          "durationTicks": 360,
          "midi": 41,
          "name": "F2",
          "ticks": 107520,
          "time": 44.800000000000004,
          "velocity": 1
        },
        {
          "duration": 0.10000000000000142,
          "durationTicks": 240,
          "midi": 41,
          "name": "F2",
          "ticks": 108000,
          "time": 45,
          "velocity": 1
        },
        {
          "duration": 0.14999999999999858,
          "durationTicks": 360,
          "midi": 41,
          "name": "F2",
          "ticks": 108240,
          "time": 45.1,
          "velocity": 1
        },
        {
          "duration": 0.10000000000000142,
          "durationTicks": 240,
          "midi": 41,
          "name": "F2",
          "ticks": 108720,
          "time": 45.300000000000004,
          "velocity": 1
        },
        {
          "duration": 0.14999999999999858,
          "durationTicks": 360,
          "midi": 41,
          "name": "F2",
          "ticks": 108960,
          "time": 45.400000000000006,
          "velocity": 1
        },
        {
          "duration": 0.10000000000000142,
          "durationTicks": 240,
          "midi": 41,
          "name": "F2",
          "ticks": 109440,
          "time": 45.6,
          "velocity": 1
        },
        {
          "duration": 0.14999999999999858,
          "durationTicks": 360,
          "midi": 41,
          "name": "F2",
          "ticks": 109680,
          "time": 45.7,
          "velocity": 1
        },
        {
          "duration": 0.09999999999999432,
          "durationTicks": 240,
          "midi": 41,
          "name": "F2",
          "ticks": 110160,
          "time": 45.900000000000006,
          "velocity": 1
        },
        {
          "duration": 0.15000000000000568,
          "durationTicks": 360,
          "midi": 41,
          "name": "F2",
          "ticks": 110400,
          "time": 46,
          "velocity": 1
        },
        {
          "duration": 0.14999999999999858,
          "durationTicks": 360,
          "midi": 41,
          "name": "F2",
          "ticks": 110880,
          "time": 46.2,
          "velocity": 1
        },
        {
          "duration": 0.14999999999999858,
          "durationTicks": 360,
          "midi": 44,
          "name": "G#2",
          "ticks": 111360,
          "time": 46.400000000000006,
          "velocity": 1
        },
        {
          "duration": 0.10000000000000142,
          "durationTicks": 240,
          "midi": 44,
          "name": "G#2",
          "ticks": 111840,
          "time": 46.6,
          "velocity": 1
        },
        {
          "duration": 0.14999999999999858,
          "durationTicks": 360,
          "midi": 44,
          "name": "G#2",
          "ticks": 112080,
          "time": 46.7,
          "velocity": 1
        },
        {
          "duration": 0.09999999999999432,
          "durationTicks": 240,
          "midi": 44,
          "name": "G#2",
          "ticks": 112560,
          "time": 46.900000000000006,
          "velocity": 1
        },
        {
          "duration": 0.15000000000000568,
          "durationTicks": 360,
          "midi": 44,
          "name": "G#2",
          "ticks": 112800,
          "time": 47,
          "velocity": 1
        },
        {
          "duration": 0.10000000000000142,
          "durationTicks": 240,
          "midi": 44,
          "name": "G#2",
          "ticks": 113280,
          "time": 47.2,
          "velocity": 1
        },
        {
          "duration": 0.14999999999999858,
          "durationTicks": 360,
          "midi": 44,
          "name": "G#2",
          "ticks": 113520,
          "time": 47.300000000000004,
          "velocity": 1
        },
        {
          "duration": 0.10000000000000142,
          "durationTicks": 240,
          "midi": 44,
          "name": "G#2",
          "ticks": 114000,
          "time": 47.5,
          "velocity": 1
        },
        {
          "duration": 0.14999999999999858,
          "durationTicks": 360,
          "midi": 44,
          "name": "G#2",
          "ticks": 114240,
          "time": 47.6,
          "velocity": 1
        },
        {
          "duration": 0.14999999999999858,
          "durationTicks": 360,
          "midi": 44,
          "name": "G#2",
          "ticks": 114720,
          "time": 47.800000000000004,
          "velocity": 1
        },
        {
          "duration": 0.15000000000000568,
          "durationTicks": 360,
          "midi": 37,
          "name": "C#2",
          "ticks": 115200,
          "time": 48,
          "velocity": 1
        },
        {
          "duration": 0.10000000000000142,
          "durationTicks": 240,
          "midi": 37,
          "name": "C#2",
          "ticks": 115680,
          "time": 48.2,
          "velocity": 1
        },
        {
          "duration": 0.14999999999999858,
          "durationTicks": 360,
          "midi": 37,
          "name": "C#2",
          "ticks": 115920,
          "time": 48.300000000000004,
          "velocity": 1
        },
        {
          "duration": 0.10000000000000142,
          "durationTicks": 240,
          "midi": 37,
          "name": "C#2",
          "ticks": 116400,
          "time": 48.5,
          "velocity": 1
        },
        {
          "duration": 0.14999999999999858,
          "durationTicks": 360,
          "midi": 37,
          "name": "C#2",
          "ticks": 116640,
          "time": 48.6,
          "velocity": 1
        },
        {
          "duration": 0.10000000000000142,
          "durationTicks": 240,
          "midi": 37,
          "name": "C#2",
          "ticks": 117120,
          "time": 48.800000000000004,
          "velocity": 1
        },
        {
          "duration": 0.14999999999999858,
          "durationTicks": 360,
          "midi": 37,
          "name": "C#2",
          "ticks": 117360,
          "time": 48.900000000000006,
          "velocity": 1
        },
        {
          "duration": 0.10000000000000142,
          "durationTicks": 240,
          "midi": 37,
          "name": "C#2",
          "ticks": 117840,
          "time": 49.1,
          "velocity": 1
        },
        {
          "duration": 0.14999999999999858,
          "durationTicks": 360,
          "midi": 37,
          "name": "C#2",
          "ticks": 118080,
          "time": 49.2,
          "velocity": 1
        },
        {
          "duration": 0.14999999999999858,
          "durationTicks": 360,
          "midi": 37,
          "name": "C#2",
          "ticks": 118560,
          "time": 49.400000000000006,
          "velocity": 1
        },
        {
          "duration": 0.14999999999999858,
          "durationTicks": 360,
          "midi": 39,
          "name": "D#2",
          "ticks": 119040,
          "time": 49.6,
          "velocity": 1
        },
        {
          "duration": 0.10000000000000142,
          "durationTicks": 240,
          "midi": 39,
          "name": "D#2",
          "ticks": 119520,
          "time": 49.800000000000004,
          "velocity": 1
        },
        {
          "duration": 0.14999999999999858,
          "durationTicks": 360,
          "midi": 39,
          "name": "D#2",
          "ticks": 119760,
          "time": 49.900000000000006,
          "velocity": 1
        },
        {
          "duration": 0.10000000000000142,
          "durationTicks": 240,
          "midi": 39,
          "name": "D#2",
          "ticks": 120240,
          "time": 50.1,
          "velocity": 1
        },
        {
          "duration": 0.14999999999999858,
          "durationTicks": 360,
          "midi": 39,
          "name": "D#2",
          "ticks": 120480,
          "time": 50.2,
          "velocity": 1
        },
        {
          "duration": 0.09999999999999432,
          "durationTicks": 240,
          "midi": 39,
          "name": "D#2",
          "ticks": 120960,
          "time": 50.400000000000006,
          "velocity": 1
        },
        {
          "duration": 0.15000000000000568,
          "durationTicks": 360,
          "midi": 39,
          "name": "D#2",
          "ticks": 121200,
          "time": 50.5,
          "velocity": 1
        },
        {
          "duration": 0.10000000000000142,
          "durationTicks": 240,
          "midi": 39,
          "name": "D#2",
          "ticks": 121680,
          "time": 50.7,
          "velocity": 1
        },
        {
          "duration": 0.14999999999999858,
          "durationTicks": 360,
          "midi": 39,
          "name": "D#2",
          "ticks": 121920,
          "time": 50.800000000000004,
          "velocity": 1
        },
        {
          "duration": 0.15000000000000568,
          "durationTicks": 360,
          "midi": 39,
          "name": "D#2",
          "ticks": 122400,
          "time": 51,
          "velocity": 1
        },
        {
          "duration": 0.14999999999999858,
          "durationTicks": 360,
          "midi": 41,
          "name": "F2",
          "ticks": 122880,
          "time": 51.2,
          "velocity": 1
        },
        {
          "duration": 0.09999999999999432,
          "durationTicks": 240,
          "midi": 41,
          "name": "F2",
          "ticks": 123360,
          "time": 51.400000000000006,
          "velocity": 1
        },
        {
          "duration": 0.15000000000000568,
          "durationTicks": 360,
          "midi": 41,
          "name": "F2",
          "ticks": 123600,
          "time": 51.5,
          "velocity": 1
        },
        {
          "duration": 0.10000000000000142,
          "durationTicks": 240,
          "midi": 41,
          "name": "F2",
          "ticks": 124080,
          "time": 51.7,
          "velocity": 1
        },
        {
          "duration": 0.14999999999999858,
          "durationTicks": 360,
          "midi": 41,
          "name": "F2",
          "ticks": 124320,
          "time": 51.800000000000004,
          "velocity": 1
        },
        {
          "duration": 0.10000000000000142,
          "durationTicks": 240,
          "midi": 41,
          "name": "F2",
          "ticks": 124800,
          "time": 52,
          "velocity": 1
        },
        {
          "duration": 0.14999999999999858,
          "durationTicks": 360,
          "midi": 41,
          "name": "F2",
          "ticks": 125040,
          "time": 52.1,
          "velocity": 1
        },
        {
          "duration": 0.10000000000000142,
          "durationTicks": 240,
          "midi": 41,
          "name": "F2",
          "ticks": 125520,
          "time": 52.300000000000004,
          "velocity": 1
        },
        {
          "duration": 0.14999999999999858,
          "durationTicks": 360,
          "midi": 41,
          "name": "F2",
          "ticks": 125760,
          "time": 52.400000000000006,
          "velocity": 1
        },
        {
          "duration": 0.14999999999999858,
          "durationTicks": 360,
          "midi": 41,
          "name": "F2",
          "ticks": 126240,
          "time": 52.6,
          "velocity": 1
        },
        {
          "duration": 0.14999999999999858,
          "durationTicks": 360,
          "midi": 44,
          "name": "G#2",
          "ticks": 126720,
          "time": 52.800000000000004,
          "velocity": 1
        },
        {
          "duration": 0.10000000000000142,
          "durationTicks": 240,
          "midi": 44,
          "name": "G#2",
          "ticks": 127200,
          "time": 53,
          "velocity": 1
        },
        {
          "duration": 0.14999999999999858,
          "durationTicks": 360,
          "midi": 44,
          "name": "G#2",
          "ticks": 127440,
          "time": 53.1,
          "velocity": 1
        },
        {
          "duration": 0.10000000000000142,
          "durationTicks": 240,
          "midi": 44,
          "name": "G#2",
          "ticks": 127920,
          "time": 53.300000000000004,
          "velocity": 1
        },
        {
          "duration": 0.14999999999999858,
          "durationTicks": 360,
          "midi": 44,
          "name": "G#2",
          "ticks": 128160,
          "time": 53.400000000000006,
          "velocity": 1
        },
        {
          "duration": 0.10000000000000142,
          "durationTicks": 240,
          "midi": 44,
          "name": "G#2",
          "ticks": 128640,
          "time": 53.6,
          "velocity": 1
        },
        {
          "duration": 0.14999999999999858,
          "durationTicks": 360,
          "midi": 44,
          "name": "G#2",
          "ticks": 128880,
          "time": 53.7,
          "velocity": 1
        },
        {
          "duration": 0.09999999999999432,
          "durationTicks": 240,
          "midi": 44,
          "name": "G#2",
          "ticks": 129360,
          "time": 53.900000000000006,
          "velocity": 1
        },
        {
          "duration": 0.15000000000000568,
          "durationTicks": 360,
          "midi": 44,
          "name": "G#2",
          "ticks": 129600,
          "time": 54,
          "velocity": 1
        },
        {
          "duration": 0.14999999999999858,
          "durationTicks": 360,
          "midi": 44,
          "name": "G#2",
          "ticks": 130080,
          "time": 54.2,
          "velocity": 1
        },
        {
          "duration": 0.14999999999999858,
          "durationTicks": 360,
          "midi": 37,
          "name": "C#2",
          "ticks": 130560,
          "time": 54.400000000000006,
          "velocity": 1
        },
        {
          "duration": 0.10000000000000142,
          "durationTicks": 240,
          "midi": 37,
          "name": "C#2",
          "ticks": 131040,
          "time": 54.6,
          "velocity": 1
        },
        {
          "duration": 0.14999999999999858,
          "durationTicks": 360,
          "midi": 37,
          "name": "C#2",
          "ticks": 131280,
          "time": 54.7,
          "velocity": 1
        },
        {
          "duration": 0.09999999999999432,
          "durationTicks": 240,
          "midi": 37,
          "name": "C#2",
          "ticks": 131760,
          "time": 54.900000000000006,
          "velocity": 1
        },
        {
          "duration": 0.15000000000000568,
          "durationTicks": 360,
          "midi": 37,
          "name": "C#2",
          "ticks": 132000,
          "time": 55,
          "velocity": 1
        },
        {
          "duration": 0.10000000000000142,
          "durationTicks": 240,
          "midi": 37,
          "name": "C#2",
          "ticks": 132480,
          "time": 55.2,
          "velocity": 1
        },
        {
          "duration": 0.14999999999999858,
          "durationTicks": 360,
          "midi": 37,
          "name": "C#2",
          "ticks": 132720,
          "time": 55.300000000000004,
          "velocity": 1
        },
        {
          "duration": 0.10000000000000142,
          "durationTicks": 240,
          "midi": 37,
          "name": "C#2",
          "ticks": 133200,
          "time": 55.5,
          "velocity": 1
        },
        {
          "duration": 0.14999999999999858,
          "durationTicks": 360,
          "midi": 37,
          "name": "C#2",
          "ticks": 133440,
          "time": 55.6,
          "velocity": 1
        },
        {
          "duration": 0.14999999999999858,
          "durationTicks": 360,
          "midi": 37,
          "name": "C#2",
          "ticks": 133920,
          "time": 55.800000000000004,
          "velocity": 1
        },
        {
          "duration": 0.15000000000000568,
          "durationTicks": 360,
          "midi": 39,
          "name": "D#2",
          "ticks": 134400,
          "time": 56,
          "velocity": 1
        },
        {
          "duration": 0.10000000000000142,
          "durationTicks": 240,
          "midi": 39,
          "name": "D#2",
          "ticks": 134880,
          "time": 56.2,
          "velocity": 1
        },
        {
          "duration": 0.14999999999999858,
          "durationTicks": 360,
          "midi": 39,
          "name": "D#2",
          "ticks": 135120,
          "time": 56.300000000000004,
          "velocity": 1
        },
        {
          "duration": 0.10000000000000142,
          "durationTicks": 240,
          "midi": 39,
          "name": "D#2",
          "ticks": 135600,
          "time": 56.5,
          "velocity": 1
        },
        {
          "duration": 0.14999999999999858,
          "durationTicks": 360,
          "midi": 39,
          "name": "D#2",
          "ticks": 135840,
          "time": 56.6,
          "velocity": 1
        },
        {
          "duration": 0.10000000000000142,
          "durationTicks": 240,
          "midi": 39,
          "name": "D#2",
          "ticks": 136320,
          "time": 56.800000000000004,
          "velocity": 1
        },
        {
          "duration": 0.14999999999999858,
          "durationTicks": 360,
          "midi": 39,
          "name": "D#2",
          "ticks": 136560,
          "time": 56.900000000000006,
          "velocity": 1
        },
        {
          "duration": 0.10000000000000142,
          "durationTicks": 240,
          "midi": 39,
          "name": "D#2",
          "ticks": 137040,
          "time": 57.1,
          "velocity": 1
        },
        {
          "duration": 0.14999999999999858,
          "durationTicks": 360,
          "midi": 39,
          "name": "D#2",
          "ticks": 137280,
          "time": 57.2,
          "velocity": 1
        },
        {
          "duration": 0.14999999999999858,
          "durationTicks": 360,
          "midi": 39,
          "name": "D#2",
          "ticks": 137760,
          "time": 57.400000000000006,
          "velocity": 1
        },
        {
          "duration": 0.14999999999999858,
          "durationTicks": 360,
          "midi": 41,
          "name": "F2",
          "ticks": 138240,
          "time": 57.6,
          "velocity": 1
        },
        {
          "duration": 0.10000000000000142,
          "durationTicks": 240,
          "midi": 41,
          "name": "F2",
          "ticks": 138720,
          "time": 57.800000000000004,
          "velocity": 1
        },
        {
          "duration": 0.14999999999999858,
          "durationTicks": 360,
          "midi": 41,
          "name": "F2",
          "ticks": 138960,
          "time": 57.900000000000006,
          "velocity": 1
        },
        {
          "duration": 0.10000000000000142,
          "durationTicks": 240,
          "midi": 41,
          "name": "F2",
          "ticks": 139440,
          "time": 58.1,
          "velocity": 1
        },
        {
          "duration": 0.14999999999999858,
          "durationTicks": 360,
          "midi": 41,
          "name": "F2",
          "ticks": 139680,
          "time": 58.2,
          "velocity": 1
        },
        {
          "duration": 0.09999999999999432,
          "durationTicks": 240,
          "midi": 41,
          "name": "F2",
          "ticks": 140160,
          "time": 58.400000000000006,
          "velocity": 1
        },
        {
          "duration": 0.15000000000000568,
          "durationTicks": 360,
          "midi": 41,
          "name": "F2",
          "ticks": 140400,
          "time": 58.5,
          "velocity": 1
        },
        {
          "duration": 0.10000000000000142,
          "durationTicks": 240,
          "midi": 41,
          "name": "F2",
          "ticks": 140880,
          "time": 58.7,
          "velocity": 1
        },
        {
          "duration": 0.14999999999999858,
          "durationTicks": 360,
          "midi": 41,
          "name": "F2",
          "ticks": 141120,
          "time": 58.800000000000004,
          "velocity": 1
        },
        {
          "duration": 0.15000000000000568,
          "durationTicks": 360,
          "midi": 41,
          "name": "F2",
          "ticks": 141600,
          "time": 59,
          "velocity": 1
        },
        {
          "duration": 0.14999999999999858,
          "durationTicks": 360,
          "midi": 36,
          "name": "C2",
          "ticks": 142080,
          "time": 59.2,
          "velocity": 1
        },
        {
          "duration": 0.09999999999999432,
          "durationTicks": 240,
          "midi": 36,
          "name": "C2",
          "ticks": 142560,
          "time": 59.400000000000006,
          "velocity": 1
        },
        {
          "duration": 0.15000000000000568,
          "durationTicks": 360,
          "midi": 36,
          "name": "C2",
          "ticks": 142800,
          "time": 59.5,
          "velocity": 1
        },
        {
          "duration": 0.10000000000000142,
          "durationTicks": 240,
          "midi": 36,
          "name": "C2",
          "ticks": 143280,
          "time": 59.7,
          "velocity": 1
        },
        {
          "duration": 0.14999999999999858,
          "durationTicks": 360,
          "midi": 36,
          "name": "C2",
          "ticks": 143520,
          "time": 59.800000000000004,
          "velocity": 1
        },
        {
          "duration": 0.10000000000000142,
          "durationTicks": 240,
          "midi": 36,
          "name": "C2",
          "ticks": 144000,
          "time": 60,
          "velocity": 1
        },
        {
          "duration": 0.14999999999999858,
          "durationTicks": 360,
          "midi": 36,
          "name": "C2",
          "ticks": 144240,
          "time": 60.1,
          "velocity": 1
        },
        {
          "duration": 0.10000000000000142,
          "durationTicks": 240,
          "midi": 36,
          "name": "C2",
          "ticks": 144720,
          "time": 60.300000000000004,
          "velocity": 1
        },
        {
          "duration": 0.14999999999999858,
          "durationTicks": 360,
          "midi": 36,
          "name": "C2",
          "ticks": 144960,
          "time": 60.400000000000006,
          "velocity": 1
        },
        {
          "duration": 0.14999999999999858,
          "durationTicks": 360,
          "midi": 36,
          "name": "C2",
          "ticks": 145440,
          "time": 60.6,
          "velocity": 1
        },
        {
          "duration": 0.14999999999999858,
          "durationTicks": 360,
          "midi": 37,
          "name": "C#2",
          "ticks": 145920,
          "time": 60.800000000000004,
          "velocity": 1
        },
        {
          "duration": 0.10000000000000142,
          "durationTicks": 240,
          "midi": 37,
          "name": "C#2",
          "ticks": 146400,
          "time": 61,
          "velocity": 1
        },
        {
          "duration": 0.14999999999999858,
          "durationTicks": 360,
          "midi": 37,
          "name": "C#2",
          "ticks": 146640,
          "time": 61.1,
          "velocity": 1
        },
        {
          "duration": 0.10000000000000142,
          "durationTicks": 240,
          "midi": 37,
          "name": "C#2",
          "ticks": 147120,
          "time": 61.300000000000004,
          "velocity": 1
        },
        {
          "duration": 0.14999999999999858,
          "durationTicks": 360,
          "midi": 37,
          "name": "C#2",
          "ticks": 147360,
          "time": 61.400000000000006,
          "velocity": 1
        },
        {
          "duration": 0.10000000000000142,
          "durationTicks": 240,
          "midi": 37,
          "name": "C#2",
          "ticks": 147840,
          "time": 61.6,
          "velocity": 1
        },
        {
          "duration": 0.14999999999999858,
          "durationTicks": 360,
          "midi": 37,
          "name": "C#2",
          "ticks": 148080,
          "time": 61.7,
          "velocity": 1
        },
        {
          "duration": 0.09999999999999432,
          "durationTicks": 240,
          "midi": 37,
          "name": "C#2",
          "ticks": 148560,
          "time": 61.900000000000006,
          "velocity": 1
        },
        {
          "duration": 0.15000000000000568,
          "durationTicks": 360,
          "midi": 37,
          "name": "C#2",
          "ticks": 148800,
          "time": 62,
          "velocity": 1
        },
        {
          "duration": 0.14999999999999858,
          "durationTicks": 360,
          "midi": 37,
          "name": "C#2",
          "ticks": 149280,
          "time": 62.2,
          "velocity": 1
        },
        {
          "duration": 0.14999999999999858,
          "durationTicks": 360,
          "midi": 39,
          "name": "D#2",
          "ticks": 149760,
          "time": 62.400000000000006,
          "velocity": 1
        },
        {
          "duration": 0.10000000000000142,
          "durationTicks": 240,
          "midi": 39,
          "name": "D#2",
          "ticks": 150240,
          "time": 62.6,
          "velocity": 1
        },
        {
          "duration": 0.14999999999999858,
          "durationTicks": 360,
          "midi": 39,
          "name": "D#2",
          "ticks": 150480,
          "time": 62.7,
          "velocity": 1
        },
        {
          "duration": 0.09999999999999432,
          "durationTicks": 240,
          "midi": 39,
          "name": "D#2",
          "ticks": 150960,
          "time": 62.900000000000006,
          "velocity": 1
        },
        {
          "duration": 0.15000000000000568,
          "durationTicks": 360,
          "midi": 39,
          "name": "D#2",
          "ticks": 151200,
          "time": 63,
          "velocity": 1
        },
        {
          "duration": 0.10000000000000142,
          "durationTicks": 240,
          "midi": 39,
          "name": "D#2",
          "ticks": 151680,
          "time": 63.2,
          "velocity": 1
        },
        {
          "duration": 0.14999999999999858,
          "durationTicks": 360,
          "midi": 39,
          "name": "D#2",
          "ticks": 151920,
          "time": 63.300000000000004,
          "velocity": 1
        },
        {
          "duration": 0.10000000000000142,
          "durationTicks": 240,
          "midi": 39,
          "name": "D#2",
          "ticks": 152400,
          "time": 63.5,
          "velocity": 1
        },
        {
          "duration": 0.14999999999999858,
          "durationTicks": 360,
          "midi": 39,
          "name": "D#2",
          "ticks": 152640,
          "time": 63.6,
          "velocity": 1
        },
        {
          "duration": 0.14999999999999858,
          "durationTicks": 360,
          "midi": 39,
          "name": "D#2",
          "ticks": 153120,
          "time": 63.800000000000004,
          "velocity": 1
        },
        {
          "duration": 0.15000000000000568,
          "durationTicks": 360,
          "midi": 41,
          "name": "F2",
          "ticks": 153600,
          "time": 64,
          "velocity": 1
        },
        {
          "duration": 0.09999999999999432,
          "durationTicks": 240,
          "midi": 41,
          "name": "F2",
          "ticks": 154080,
          "time": 64.2,
          "velocity": 1
        },
        {
          "duration": 0.15000000000000568,
          "durationTicks": 360,
          "midi": 41,
          "name": "F2",
          "ticks": 154320,
          "time": 64.3,
          "velocity": 1
        },
        {
          "duration": 0.10000000000000853,
          "durationTicks": 240,
          "midi": 41,
          "name": "F2",
          "ticks": 154800,
          "time": 64.5,
          "velocity": 1
        },
        {
          "duration": 0.14999999999999147,
          "durationTicks": 360,
          "midi": 41,
          "name": "F2",
          "ticks": 155040,
          "time": 64.60000000000001,
          "velocity": 1
        },
        {
          "duration": 0.10000000000000853,
          "durationTicks": 240,
          "midi": 41,
          "name": "F2",
          "ticks": 155520,
          "time": 64.8,
          "velocity": 1
        },
        {
          "duration": 0.14999999999999147,
          "durationTicks": 360,
          "midi": 41,
          "name": "F2",
          "ticks": 155760,
          "time": 64.9,
          "velocity": 1
        },
        {
          "duration": 0.09999999999999432,
          "durationTicks": 240,
          "midi": 41,
          "name": "F2",
          "ticks": 156240,
          "time": 65.10000000000001,
          "velocity": 1
        },
        {
          "duration": 0.15000000000000568,
          "durationTicks": 360,
          "midi": 41,
          "name": "F2",
          "ticks": 156480,
          "time": 65.2,
          "velocity": 1
        },
        {
          "duration": 0.14999999999999147,
          "durationTicks": 360,
          "midi": 41,
          "name": "F2",
          "ticks": 156960,
          "time": 65.4,
          "velocity": 1
        },
        {
          "duration": 0.14999999999999147,
          "durationTicks": 360,
          "midi": 44,
          "name": "G#2",
          "ticks": 157440,
          "time": 65.60000000000001,
          "velocity": 1
        },
        {
          "duration": 0.10000000000000853,
          "durationTicks": 240,
          "midi": 44,
          "name": "G#2",
          "ticks": 157920,
          "time": 65.8,
          "velocity": 1
        },
        {
          "duration": 0.14999999999999147,
          "durationTicks": 360,
          "midi": 44,
          "name": "G#2",
          "ticks": 158160,
          "time": 65.9,
          "velocity": 1
        },
        {
          "duration": 0.09999999999999432,
          "durationTicks": 240,
          "midi": 44,
          "name": "G#2",
          "ticks": 158640,
          "time": 66.10000000000001,
          "velocity": 1
        },
        {
          "duration": 0.15000000000000568,
          "durationTicks": 360,
          "midi": 44,
          "name": "G#2",
          "ticks": 158880,
          "time": 66.2,
          "velocity": 1
        },
        {
          "duration": 0.09999999999999432,
          "durationTicks": 240,
          "midi": 44,
          "name": "G#2",
          "ticks": 159360,
          "time": 66.4,
          "velocity": 1
        },
        {
          "duration": 0.15000000000000568,
          "durationTicks": 360,
          "midi": 44,
          "name": "G#2",
          "ticks": 159600,
          "time": 66.5,
          "velocity": 1
        },
        {
          "duration": 0.09999999999999432,
          "durationTicks": 240,
          "midi": 44,
          "name": "G#2",
          "ticks": 160080,
          "time": 66.7,
          "velocity": 1
        },
        {
          "duration": 0.15000000000000568,
          "durationTicks": 360,
          "midi": 44,
          "name": "G#2",
          "ticks": 160320,
          "time": 66.8,
          "velocity": 1
        },
        {
          "duration": 0.15000000000000568,
          "durationTicks": 360,
          "midi": 44,
          "name": "G#2",
          "ticks": 160800,
          "time": 67,
          "velocity": 1
        },
        {
          "duration": 0.15000000000000568,
          "durationTicks": 360,
          "midi": 37,
          "name": "C#2",
          "ticks": 161280,
          "time": 67.2,
          "velocity": 1
        },
        {
          "duration": 0.09999999999999432,
          "durationTicks": 240,
          "midi": 37,
          "name": "C#2",
          "ticks": 161760,
          "time": 67.4,
          "velocity": 1
        },
        {
          "duration": 0.15000000000000568,
          "durationTicks": 360,
          "midi": 37,
          "name": "C#2",
          "ticks": 162000,
          "time": 67.5,
          "velocity": 1
        },
        {
          "duration": 0.09999999999999432,
          "durationTicks": 240,
          "midi": 37,
          "name": "C#2",
          "ticks": 162480,
          "time": 67.7,
          "velocity": 1
        },
        {
          "duration": 0.15000000000000568,
          "durationTicks": 360,
          "midi": 37,
          "name": "C#2",
          "ticks": 162720,
          "time": 67.8,
          "velocity": 1
        },
        {
          "duration": 0.10000000000000853,
          "durationTicks": 240,
          "midi": 37,
          "name": "C#2",
          "ticks": 163200,
          "time": 68,
          "velocity": 1
        },
        {
          "duration": 0.14999999999999147,
          "durationTicks": 360,
          "midi": 37,
          "name": "C#2",
          "ticks": 163440,
          "time": 68.10000000000001,
          "velocity": 1
        },
        {
          "duration": 0.10000000000000853,
          "durationTicks": 240,
          "midi": 37,
          "name": "C#2",
          "ticks": 163920,
          "time": 68.3,
          "velocity": 1
        },
        {
          "duration": 0.14999999999999147,
          "durationTicks": 360,
          "midi": 37,
          "name": "C#2",
          "ticks": 164160,
          "time": 68.4,
          "velocity": 1
        },
        {
          "duration": 0.14999999999999147,
          "durationTicks": 360,
          "midi": 37,
          "name": "C#2",
          "ticks": 164640,
          "time": 68.60000000000001,
          "velocity": 1
        },
        {
          "duration": 0.15000000000000568,
          "durationTicks": 360,
          "midi": 39,
          "name": "D#2",
          "ticks": 165120,
          "time": 68.8,
          "velocity": 1
        },
        {
          "duration": 0.10000000000000853,
          "durationTicks": 240,
          "midi": 39,
          "name": "D#2",
          "ticks": 165600,
          "time": 69,
          "velocity": 1
        },
        {
          "duration": 0.14999999999999147,
          "durationTicks": 360,
          "midi": 39,
          "name": "D#2",
          "ticks": 165840,
          "time": 69.10000000000001,
          "velocity": 1
        },
        {
          "duration": 0.10000000000000853,
          "durationTicks": 240,
          "midi": 39,
          "name": "D#2",
          "ticks": 166320,
          "time": 69.3,
          "velocity": 1
        },
        {
          "duration": 0.14999999999999147,
          "durationTicks": 360,
          "midi": 39,
          "name": "D#2",
          "ticks": 166560,
          "time": 69.4,
          "velocity": 1
        },
        {
          "duration": 0.09999999999999432,
          "durationTicks": 240,
          "midi": 39,
          "name": "D#2",
          "ticks": 167040,
          "time": 69.60000000000001,
          "velocity": 1
        },
        {
          "duration": 0.15000000000000568,
          "durationTicks": 360,
          "midi": 39,
          "name": "D#2",
          "ticks": 167280,
          "time": 69.7,
          "velocity": 1
        },
        {
          "duration": 0.09999999999999432,
          "durationTicks": 240,
          "midi": 39,
          "name": "D#2",
          "ticks": 167760,
          "time": 69.9,
          "velocity": 1
        },
        {
          "duration": 0.15000000000000568,
          "durationTicks": 360,
          "midi": 39,
          "name": "D#2",
          "ticks": 168000,
          "time": 70,
          "velocity": 1
        },
        {
          "duration": 0.15000000000000568,
          "durationTicks": 360,
          "midi": 39,
          "name": "D#2",
          "ticks": 168480,
          "time": 70.2,
          "velocity": 1
        },
        {
          "duration": 0.14999999999999147,
          "durationTicks": 360,
          "midi": 41,
          "name": "F2",
          "ticks": 168960,
          "time": 70.4,
          "velocity": 1
        },
        {
          "duration": 0.09999999999999432,
          "durationTicks": 240,
          "midi": 41,
          "name": "F2",
          "ticks": 169440,
          "time": 70.60000000000001,
          "velocity": 1
        },
        {
          "duration": 0.15000000000000568,
          "durationTicks": 360,
          "midi": 41,
          "name": "F2",
          "ticks": 169680,
          "time": 70.7,
          "velocity": 1
        },
        {
          "duration": 0.09999999999999432,
          "durationTicks": 240,
          "midi": 41,
          "name": "F2",
          "ticks": 170160,
          "time": 70.9,
          "velocity": 1
        },
        {
          "duration": 0.15000000000000568,
          "durationTicks": 360,
          "midi": 41,
          "name": "F2",
          "ticks": 170400,
          "time": 71,
          "velocity": 1
        },
        {
          "duration": 0.09999999999999432,
          "durationTicks": 240,
          "midi": 41,
          "name": "F2",
          "ticks": 170880,
          "time": 71.2,
          "velocity": 1
        },
        {
          "duration": 0.15000000000000568,
          "durationTicks": 360,
          "midi": 41,
          "name": "F2",
          "ticks": 171120,
          "time": 71.3,
          "velocity": 1
        },
        {
          "duration": 0.10000000000000853,
          "durationTicks": 240,
          "midi": 41,
          "name": "F2",
          "ticks": 171600,
          "time": 71.5,
          "velocity": 1
        },
        {
          "duration": 0.14999999999999147,
          "durationTicks": 360,
          "midi": 41,
          "name": "F2",
          "ticks": 171840,
          "time": 71.60000000000001,
          "velocity": 1
        },
        {
          "duration": 0.15000000000000568,
          "durationTicks": 360,
          "midi": 41,
          "name": "F2",
          "ticks": 172320,
          "time": 71.8,
          "velocity": 1
        },
        {
          "duration": 0.15000000000000568,
          "durationTicks": 360,
          "midi": 44,
          "name": "G#2",
          "ticks": 172800,
          "time": 72,
          "velocity": 1
        },
        {
          "duration": 0.09999999999999432,
          "durationTicks": 240,
          "midi": 44,
          "name": "G#2",
          "ticks": 173280,
          "time": 72.2,
          "velocity": 1
        },
        {
          "duration": 0.15000000000000568,
          "durationTicks": 360,
          "midi": 44,
          "name": "G#2",
          "ticks": 173520,
          "time": 72.3,
          "velocity": 1
        },
        {
          "duration": 0.10000000000000853,
          "durationTicks": 240,
          "midi": 44,
          "name": "G#2",
          "ticks": 174000,
          "time": 72.5,
          "velocity": 1
        },
        {
          "duration": 0.14999999999999147,
          "durationTicks": 360,
          "midi": 44,
          "name": "G#2",
          "ticks": 174240,
          "time": 72.60000000000001,
          "velocity": 1
        },
        {
          "duration": 0.10000000000000853,
          "durationTicks": 240,
          "midi": 44,
          "name": "G#2",
          "ticks": 174720,
          "time": 72.8,
          "velocity": 1
        },
        {
          "duration": 0.14999999999999147,
          "durationTicks": 360,
          "midi": 44,
          "name": "G#2",
          "ticks": 174960,
          "time": 72.9,
          "velocity": 1
        },
        {
          "duration": 0.09999999999999432,
          "durationTicks": 240,
          "midi": 44,
          "name": "G#2",
          "ticks": 175440,
          "time": 73.10000000000001,
          "velocity": 1
        },
        {
          "duration": 0.15000000000000568,
          "durationTicks": 360,
          "midi": 44,
          "name": "G#2",
          "ticks": 175680,
          "time": 73.2,
          "velocity": 1
        },
        {
          "duration": 0.14999999999999147,
          "durationTicks": 360,
          "midi": 44,
          "name": "G#2",
          "ticks": 176160,
          "time": 73.4,
          "velocity": 1
        },
        {
          "duration": 0.14999999999999147,
          "durationTicks": 360,
          "midi": 37,
          "name": "C#2",
          "ticks": 176640,
          "time": 73.60000000000001,
          "velocity": 1
        },
        {
          "duration": 0.10000000000000853,
          "durationTicks": 240,
          "midi": 37,
          "name": "C#2",
          "ticks": 177120,
          "time": 73.8,
          "velocity": 1
        },
        {
          "duration": 0.14999999999999147,
          "durationTicks": 360,
          "midi": 37,
          "name": "C#2",
          "ticks": 177360,
          "time": 73.9,
          "velocity": 1
        },
        {
          "duration": 0.09999999999999432,
          "durationTicks": 240,
          "midi": 37,
          "name": "C#2",
          "ticks": 177840,
          "time": 74.10000000000001,
          "velocity": 1
        },
        {
          "duration": 0.15000000000000568,
          "durationTicks": 360,
          "midi": 37,
          "name": "C#2",
          "ticks": 178080,
          "time": 74.2,
          "velocity": 1
        },
        {
          "duration": 0.09999999999999432,
          "durationTicks": 240,
          "midi": 37,
          "name": "C#2",
          "ticks": 178560,
          "time": 74.4,
          "velocity": 1
        },
        {
          "duration": 0.15000000000000568,
          "durationTicks": 360,
          "midi": 37,
          "name": "C#2",
          "ticks": 178800,
          "time": 74.5,
          "velocity": 1
        },
        {
          "duration": 0.09999999999999432,
          "durationTicks": 240,
          "midi": 37,
          "name": "C#2",
          "ticks": 179280,
          "time": 74.7,
          "velocity": 1
        },
        {
          "duration": 0.15000000000000568,
          "durationTicks": 360,
          "midi": 37,
          "name": "C#2",
          "ticks": 179520,
          "time": 74.8,
          "velocity": 1
        },
        {
          "duration": 0.15000000000000568,
          "durationTicks": 360,
          "midi": 37,
          "name": "C#2",
          "ticks": 180000,
          "time": 75,
          "velocity": 1
        },
        {
          "duration": 0.15000000000000568,
          "durationTicks": 360,
          "midi": 39,
          "name": "D#2",
          "ticks": 180480,
          "time": 75.2,
          "velocity": 1
        },
        {
          "duration": 0.09999999999999432,
          "durationTicks": 240,
          "midi": 39,
          "name": "D#2",
          "ticks": 180960,
          "time": 75.4,
          "velocity": 1
        },
        {
          "duration": 0.15000000000000568,
          "durationTicks": 360,
          "midi": 39,
          "name": "D#2",
          "ticks": 181200,
          "time": 75.5,
          "velocity": 1
        },
        {
          "duration": 0.09999999999999432,
          "durationTicks": 240,
          "midi": 39,
          "name": "D#2",
          "ticks": 181680,
          "time": 75.7,
          "velocity": 1
        },
        {
          "duration": 0.15000000000000568,
          "durationTicks": 360,
          "midi": 39,
          "name": "D#2",
          "ticks": 181920,
          "time": 75.8,
          "velocity": 1
        },
        {
          "duration": 0.10000000000000853,
          "durationTicks": 240,
          "midi": 39,
          "name": "D#2",
          "ticks": 182400,
          "time": 76,
          "velocity": 1
        },
        {
          "duration": 0.14999999999999147,
          "durationTicks": 360,
          "midi": 39,
          "name": "D#2",
          "ticks": 182640,
          "time": 76.10000000000001,
          "velocity": 1
        },
        {
          "duration": 0.10000000000000853,
          "durationTicks": 240,
          "midi": 39,
          "name": "D#2",
          "ticks": 183120,
          "time": 76.3,
          "velocity": 1
        },
        {
          "duration": 0.14999999999999147,
          "durationTicks": 360,
          "midi": 39,
          "name": "D#2",
          "ticks": 183360,
          "time": 76.4,
          "velocity": 1
        },
        {
          "duration": 0.14999999999999147,
          "durationTicks": 360,
          "midi": 39,
          "name": "D#2",
          "ticks": 183840,
          "time": 76.60000000000001,
          "velocity": 1
        },
        {
          "duration": 0.14999999999999147,
          "durationTicks": 360,
          "midi": 41,
          "name": "F2",
          "ticks": 184320,
          "time": 76.80000000000001,
          "velocity": 1
        },
        {
          "duration": 0.10000000000000853,
          "durationTicks": 240,
          "midi": 41,
          "name": "F2",
          "ticks": 184800,
          "time": 77,
          "velocity": 1
        },
        {
          "duration": 0.14999999999999147,
          "durationTicks": 360,
          "midi": 41,
          "name": "F2",
          "ticks": 185040,
          "time": 77.10000000000001,
          "velocity": 1
        },
        {
          "duration": 0.09999999999999432,
          "durationTicks": 240,
          "midi": 41,
          "name": "F2",
          "ticks": 185520,
          "time": 77.30000000000001,
          "velocity": 1
        },
        {
          "duration": 0.15000000000000568,
          "durationTicks": 360,
          "midi": 41,
          "name": "F2",
          "ticks": 185760,
          "time": 77.4,
          "velocity": 1
        },
        {
          "duration": 0.09999999999999432,
          "durationTicks": 240,
          "midi": 41,
          "name": "F2",
          "ticks": 186240,
          "time": 77.60000000000001,
          "velocity": 1
        },
        {
          "duration": 0.15000000000000568,
          "durationTicks": 360,
          "midi": 41,
          "name": "F2",
          "ticks": 186480,
          "time": 77.7,
          "velocity": 1
        },
        {
          "duration": 0.09999999999999432,
          "durationTicks": 240,
          "midi": 41,
          "name": "F2",
          "ticks": 186960,
          "time": 77.9,
          "velocity": 1
        },
        {
          "duration": 0.15000000000000568,
          "durationTicks": 360,
          "midi": 41,
          "name": "F2",
          "ticks": 187200,
          "time": 78,
          "velocity": 1
        },
        {
          "duration": 0.15000000000000568,
          "durationTicks": 360,
          "midi": 41,
          "name": "F2",
          "ticks": 187680,
          "time": 78.2,
          "velocity": 1
        },
        {
          "duration": 0.15000000000000568,
          "durationTicks": 360,
          "midi": 36,
          "name": "C2",
          "ticks": 188160,
          "time": 78.4,
          "velocity": 1
        },
        {
          "duration": 0.09999999999999432,
          "durationTicks": 240,
          "midi": 36,
          "name": "C2",
          "ticks": 188640,
          "time": 78.60000000000001,
          "velocity": 1
        },
        {
          "duration": 0.15000000000000568,
          "durationTicks": 360,
          "midi": 36,
          "name": "C2",
          "ticks": 188880,
          "time": 78.7,
          "velocity": 1
        },
        {
          "duration": 0.09999999999999432,
          "durationTicks": 240,
          "midi": 36,
          "name": "C2",
          "ticks": 189360,
          "time": 78.9,
          "velocity": 1
        },
        {
          "duration": 0.15000000000000568,
          "durationTicks": 360,
          "midi": 36,
          "name": "C2",
          "ticks": 189600,
          "time": 79,
          "velocity": 1
        },
        {
          "duration": 0.10000000000000853,
          "durationTicks": 240,
          "midi": 36,
          "name": "C2",
          "ticks": 190080,
          "time": 79.2,
          "velocity": 1
        },
        {
          "duration": 0.14999999999999147,
          "durationTicks": 360,
          "midi": 36,
          "name": "C2",
          "ticks": 190320,
          "time": 79.30000000000001,
          "velocity": 1
        },
        {
          "duration": 0.10000000000000853,
          "durationTicks": 240,
          "midi": 36,
          "name": "C2",
          "ticks": 190800,
          "time": 79.5,
          "velocity": 1
        },
        {
          "duration": 0.14999999999999147,
          "durationTicks": 360,
          "midi": 36,
          "name": "C2",
          "ticks": 191040,
          "time": 79.60000000000001,
          "velocity": 1
        },
        {
          "duration": 0.14999999999999147,
          "durationTicks": 360,
          "midi": 36,
          "name": "C2",
          "ticks": 191520,
          "time": 79.80000000000001,
          "velocity": 1
        },
        {
          "duration": 0.15000000000000568,
          "durationTicks": 360,
          "midi": 37,
          "name": "C#2",
          "ticks": 192000,
          "time": 80,
          "velocity": 1
        },
        {
          "duration": 0.10000000000000853,
          "durationTicks": 240,
          "midi": 37,
          "name": "C#2",
          "ticks": 192480,
          "time": 80.2,
          "velocity": 1
        },
        {
          "duration": 0.14999999999999147,
          "durationTicks": 360,
          "midi": 37,
          "name": "C#2",
          "ticks": 192720,
          "time": 80.30000000000001,
          "velocity": 1
        },
        {
          "duration": 0.10000000000000853,
          "durationTicks": 240,
          "midi": 37,
          "name": "C#2",
          "ticks": 193200,
          "time": 80.5,
          "velocity": 1
        },
        {
          "duration": 0.14999999999999147,
          "durationTicks": 360,
          "midi": 37,
          "name": "C#2",
          "ticks": 193440,
          "time": 80.60000000000001,
          "velocity": 1
        },
        {
          "duration": 0.09999999999999432,
          "durationTicks": 240,
          "midi": 37,
          "name": "C#2",
          "ticks": 193920,
          "time": 80.80000000000001,
          "velocity": 1
        },
        {
          "duration": 0.15000000000000568,
          "durationTicks": 360,
          "midi": 37,
          "name": "C#2",
          "ticks": 194160,
          "time": 80.9,
          "velocity": 1
        },
        {
          "duration": 0.09999999999999432,
          "durationTicks": 240,
          "midi": 37,
          "name": "C#2",
          "ticks": 194640,
          "time": 81.10000000000001,
          "velocity": 1
        },
        {
          "duration": 0.15000000000000568,
          "durationTicks": 360,
          "midi": 37,
          "name": "C#2",
          "ticks": 194880,
          "time": 81.2,
          "velocity": 1
        },
        {
          "duration": 0.15000000000000568,
          "durationTicks": 360,
          "midi": 37,
          "name": "C#2",
          "ticks": 195360,
          "time": 81.4,
          "velocity": 1
        },
        {
          "duration": 0.14999999999999147,
          "durationTicks": 360,
          "midi": 39,
          "name": "D#2",
          "ticks": 195840,
          "time": 81.60000000000001,
          "velocity": 1
        },
        {
          "duration": 0.09999999999999432,
          "durationTicks": 240,
          "midi": 39,
          "name": "D#2",
          "ticks": 196320,
          "time": 81.80000000000001,
          "velocity": 1
        },
        {
          "duration": 0.15000000000000568,
          "durationTicks": 360,
          "midi": 39,
          "name": "D#2",
          "ticks": 196560,
          "time": 81.9,
          "velocity": 1
        },
        {
          "duration": 0.09999999999999432,
          "durationTicks": 240,
          "midi": 39,
          "name": "D#2",
          "ticks": 197040,
          "time": 82.10000000000001,
          "velocity": 1
        },
        {
          "duration": 0.15000000000000568,
          "durationTicks": 360,
          "midi": 39,
          "name": "D#2",
          "ticks": 197280,
          "time": 82.2,
          "velocity": 1
        },
        {
          "duration": 0.09999999999999432,
          "durationTicks": 240,
          "midi": 39,
          "name": "D#2",
          "ticks": 197760,
          "time": 82.4,
          "velocity": 1
        },
        {
          "duration": 0.15000000000000568,
          "durationTicks": 360,
          "midi": 39,
          "name": "D#2",
          "ticks": 198000,
          "time": 82.5,
          "velocity": 1
        },
        {
          "duration": 0.10000000000000853,
          "durationTicks": 240,
          "midi": 39,
          "name": "D#2",
          "ticks": 198480,
          "time": 82.7,
          "velocity": 1
        },
        {
          "duration": 0.14999999999999147,
          "durationTicks": 360,
          "midi": 39,
          "name": "D#2",
          "ticks": 198720,
          "time": 82.80000000000001,
          "velocity": 1
        },
        {
          "duration": 0.15000000000000568,
          "durationTicks": 360,
          "midi": 39,
          "name": "D#2",
          "ticks": 199200,
          "time": 83,
          "velocity": 1
        }
      ]
    },
    {
      "channel": 0,
      "controlChanges": {
        "7": [
          {
            "number": 7,
            "ticks": 0,
            "time": 0,
            "value": 0.4015748031496063
          }
        ],
        "10": [
          {
            "number": 10,
            "ticks": 0,
            "time": 0,
            "value": 0
          }
        ]
      },
      "pitchBends": [],
      "instrument": {
        "family": "piano",
        "number": 0,
        "name": "acoustic grand piano"
      },
      "name": "Sugimori Masakazu",
      "notes": [],
      "endOfTrackTicks": 199470
    },
    {
      "channel": 10,
      "controlChanges": {},
      "pitchBends": [],
      "instrument": {
        "family": "piano",
        "number": 3,
        "name": "honky-tonk piano"
      },
      "name": "",
      "notes": [
        {
          "duration": 0.1,
          "durationTicks": 240,
          "midi": 72,
          "name": "C5",
          "ticks": 30,
          "time": 0.0125,
          "velocity": 1
        },
        {
          "duration": 0.1,
          "durationTicks": 240,
          "midi": 65,
          "name": "F4",
          "ticks": 30,
          "time": 0.0125,
          "velocity": 1
        },
        {
          "duration": 0.1,
          "durationTicks": 240,
          "midi": 77,
          "name": "F5",
          "ticks": 30,
          "time": 0.0125,
          "velocity": 1
        },
        {
          "duration": 0.09999999999999998,
          "durationTicks": 240,
          "midi": 65,
          "name": "F4",
          "ticks": 510,
          "time": 0.21250000000000002,
          "velocity": 0.7401574803149606
        },
        {
          "duration": 0.09999999999999998,
          "durationTicks": 240,
          "midi": 72,
          "name": "C5",
          "ticks": 510,
          "time": 0.21250000000000002,
          "velocity": 0.7401574803149606
        },
        {
          "duration": 0.09999999999999998,
          "durationTicks": 240,
          "midi": 77,
          "name": "F5",
          "ticks": 510,
          "time": 0.21250000000000002,
          "velocity": 0.7401574803149606
        },
        {
          "duration": 0.10000000000000003,
          "durationTicks": 240,
          "midi": 72,
          "name": "C5",
          "ticks": 750,
          "time": 0.3125,
          "velocity": 1
        },
        {
          "duration": 0.10000000000000003,
          "durationTicks": 240,
          "midi": 65,
          "name": "F4",
          "ticks": 750,
          "time": 0.3125,
          "velocity": 1
        },
        {
          "duration": 0.10000000000000003,
          "durationTicks": 240,
          "midi": 77,
          "name": "F5",
          "ticks": 750,
          "time": 0.3125,
          "velocity": 1
        },
        {
          "duration": 0.09999999999999998,
          "durationTicks": 240,
          "midi": 65,
          "name": "F4",
          "ticks": 1230,
          "time": 0.5125000000000001,
          "velocity": 0.7401574803149606
        },
        {
          "duration": 0.09999999999999998,
          "durationTicks": 240,
          "midi": 72,
          "name": "C5",
          "ticks": 1230,
          "time": 0.5125000000000001,
          "velocity": 0.7401574803149606
        },
        {
          "duration": 0.09999999999999998,
          "durationTicks": 240,
          "midi": 77,
          "name": "F5",
          "ticks": 1230,
          "time": 0.5125000000000001,
          "velocity": 0.7401574803149606
        },
        {
          "duration": 0.09999999999999998,
          "durationTicks": 240,
          "midi": 72,
          "name": "C5",
          "ticks": 1470,
          "time": 0.6125,
          "velocity": 1
        },
        {
          "duration": 0.09999999999999998,
          "durationTicks": 240,
          "midi": 65,
          "name": "F4",
          "ticks": 1470,
          "time": 0.6125,
          "velocity": 1
        },
        {
          "duration": 0.09999999999999998,
          "durationTicks": 240,
          "midi": 77,
          "name": "F5",
          "ticks": 1470,
          "time": 0.6125,
          "velocity": 1
        },
        {
          "duration": 0.10000000000000009,
          "durationTicks": 240,
          "midi": 65,
          "name": "F4",
          "ticks": 1950,
          "time": 0.8125,
          "velocity": 0.7401574803149606
        },
        {
          "duration": 0.10000000000000009,
          "durationTicks": 240,
          "midi": 72,
          "name": "C5",
          "ticks": 1950,
          "time": 0.8125,
          "velocity": 0.7401574803149606
        },
        {
          "duration": 0.10000000000000009,
          "durationTicks": 240,
          "midi": 77,
          "name": "F5",
          "ticks": 1950,
          "time": 0.8125,
          "velocity": 0.7401574803149606
        },
        {
          "duration": 0.09999999999999987,
          "durationTicks": 240,
          "midi": 72,
          "name": "C5",
          "ticks": 2190,
          "time": 0.9125000000000001,
          "velocity": 1
        },
        {
          "duration": 0.09999999999999987,
          "durationTicks": 240,
          "midi": 65,
          "name": "F4",
          "ticks": 2190,
          "time": 0.9125000000000001,
          "velocity": 1
        },
        {
          "duration": 0.09999999999999987,
          "durationTicks": 240,
          "midi": 77,
          "name": "F5",
          "ticks": 2190,
          "time": 0.9125000000000001,
          "velocity": 1
        },
        {
          "duration": 0.10000000000000009,
          "durationTicks": 240,
          "midi": 65,
          "name": "F4",
          "ticks": 2670,
          "time": 1.1125,
          "velocity": 0.7401574803149606
        },
        {
          "duration": 0.10000000000000009,
          "durationTicks": 240,
          "midi": 72,
          "name": "C5",
          "ticks": 2670,
          "time": 1.1125,
          "velocity": 0.7401574803149606
        },
        {
          "duration": 0.10000000000000009,
          "durationTicks": 240,
          "midi": 77,
          "name": "F5",
          "ticks": 2670,
          "time": 1.1125,
          "velocity": 0.7401574803149606
        },
        {
          "duration": 0.09999999999999987,
          "durationTicks": 240,
          "midi": 72,
          "name": "C5",
          "ticks": 2910,
          "time": 1.2125000000000001,
          "velocity": 1
        },
        {
          "duration": 0.09999999999999987,
          "durationTicks": 240,
          "midi": 65,
          "name": "F4",
          "ticks": 2910,
          "time": 1.2125000000000001,
          "velocity": 1
        },
        {
          "duration": 0.09999999999999987,
          "durationTicks": 240,
          "midi": 77,
          "name": "F5",
          "ticks": 2910,
          "time": 1.2125000000000001,
          "velocity": 1
        },
        {
          "duration": 0.10000000000000009,
          "durationTicks": 240,
          "midi": 73,
          "name": "C#5",
          "ticks": 3390,
          "time": 1.4125,
          "velocity": 1
        },
        {
          "duration": 0.10000000000000009,
          "durationTicks": 240,
          "midi": 66,
          "name": "F#4",
          "ticks": 3390,
          "time": 1.4125,
          "velocity": 1
        },
        {
          "duration": 0.10000000000000009,
          "durationTicks": 240,
          "midi": 78,
          "name": "F#5",
          "ticks": 3390,
          "time": 1.4125,
          "velocity": 1
        },
        {
          "duration": 0.10000000000000009,
          "durationTicks": 240,
          "midi": 77,
          "name": "F5",
          "ticks": 3870,
          "time": 1.6125,
          "velocity": 1
        },
        {
          "duration": 0.10000000000000009,
          "durationTicks": 240,
          "midi": 65,
          "name": "F4",
          "ticks": 3870,
          "time": 1.6125,
          "velocity": 1
        },
        {
          "duration": 0.10000000000000009,
          "durationTicks": 240,
          "midi": 72,
          "name": "C5",
          "ticks": 3870,
          "time": 1.6125,
          "velocity": 1
        },
        {
          "duration": 0.10000000000000009,
          "durationTicks": 240,
          "midi": 65,
          "name": "F4",
          "ticks": 4350,
          "time": 1.8125,
          "velocity": 0.7401574803149606
        },
        {
          "duration": 0.10000000000000009,
          "durationTicks": 240,
          "midi": 72,
          "name": "C5",
          "ticks": 4350,
          "time": 1.8125,
          "velocity": 0.7401574803149606
        },
        {
          "duration": 0.10000000000000009,
          "durationTicks": 240,
          "midi": 77,
          "name": "F5",
          "ticks": 4350,
          "time": 1.8125,
          "velocity": 0.7401574803149606
        },
        {
          "duration": 0.10000000000000009,
          "durationTicks": 240,
          "midi": 77,
          "name": "F5",
          "ticks": 4590,
          "time": 1.9125,
          "velocity": 1
        },
        {
          "duration": 0.10000000000000009,
          "durationTicks": 240,
          "midi": 65,
          "name": "F4",
          "ticks": 4590,
          "time": 1.9125,
          "velocity": 1
        },
        {
          "duration": 0.10000000000000009,
          "durationTicks": 240,
          "midi": 72,
          "name": "C5",
          "ticks": 4590,
          "time": 1.9125,
          "velocity": 1
        },
        {
          "duration": 0.09999999999999964,
          "durationTicks": 240,
          "midi": 65,
          "name": "F4",
          "ticks": 5070,
          "time": 2.1125000000000003,
          "velocity": 0.7401574803149606
        },
        {
          "duration": 0.09999999999999964,
          "durationTicks": 240,
          "midi": 72,
          "name": "C5",
          "ticks": 5070,
          "time": 2.1125000000000003,
          "velocity": 0.7401574803149606
        },
        {
          "duration": 0.09999999999999964,
          "durationTicks": 240,
          "midi": 77,
          "name": "F5",
          "ticks": 5070,
          "time": 2.1125000000000003,
          "velocity": 0.7401574803149606
        },
        {
          "duration": 0.10000000000000009,
          "durationTicks": 240,
          "midi": 77,
          "name": "F5",
          "ticks": 5310,
          "time": 2.2125,
          "velocity": 1
        },
        {
          "duration": 0.10000000000000009,
          "durationTicks": 240,
          "midi": 65,
          "name": "F4",
          "ticks": 5310,
          "time": 2.2125,
          "velocity": 1
        },
        {
          "duration": 0.10000000000000009,
          "durationTicks": 240,
          "midi": 72,
          "name": "C5",
          "ticks": 5310,
          "time": 2.2125,
          "velocity": 1
        },
        {
          "duration": 0.10000000000000009,
          "durationTicks": 240,
          "midi": 65,
          "name": "F4",
          "ticks": 5790,
          "time": 2.4125,
          "velocity": 0.7401574803149606
        },
        {
          "duration": 0.10000000000000009,
          "durationTicks": 240,
          "midi": 72,
          "name": "C5",
          "ticks": 5790,
          "time": 2.4125,
          "velocity": 0.7401574803149606
        },
        {
          "duration": 0.10000000000000009,
          "durationTicks": 240,
          "midi": 77,
          "name": "F5",
          "ticks": 5790,
          "time": 2.4125,
          "velocity": 0.7401574803149606
        },
        {
          "duration": 0.10000000000000009,
          "durationTicks": 240,
          "midi": 77,
          "name": "F5",
          "ticks": 6030,
          "time": 2.5125,
          "velocity": 1
        },
        {
          "duration": 0.10000000000000009,
          "durationTicks": 240,
          "midi": 65,
          "name": "F4",
          "ticks": 6030,
          "time": 2.5125,
          "velocity": 1
        },
        {
          "duration": 0.10000000000000009,
          "durationTicks": 240,
          "midi": 72,
          "name": "C5",
          "ticks": 6030,
          "time": 2.5125,
          "velocity": 1
        },
        {
          "duration": 0.09999999999999964,
          "durationTicks": 240,
          "midi": 65,
          "name": "F4",
          "ticks": 6510,
          "time": 2.7125000000000004,
          "velocity": 0.7401574803149606
        },
        {
          "duration": 0.09999999999999964,
          "durationTicks": 240,
          "midi": 72,
          "name": "C5",
          "ticks": 6510,
          "time": 2.7125000000000004,
          "velocity": 0.7401574803149606
        },
        {
          "duration": 0.09999999999999964,
          "durationTicks": 240,
          "midi": 77,
          "name": "F5",
          "ticks": 6510,
          "time": 2.7125000000000004,
          "velocity": 0.7401574803149606
        },
        {
          "duration": 0.10000000000000009,
          "durationTicks": 240,
          "midi": 77,
          "name": "F5",
          "ticks": 6750,
          "time": 2.8125,
          "velocity": 1
        },
        {
          "duration": 0.10000000000000009,
          "durationTicks": 240,
          "midi": 65,
          "name": "F4",
          "ticks": 6750,
          "time": 2.8125,
          "velocity": 1
        },
        {
          "duration": 0.10000000000000009,
          "durationTicks": 240,
          "midi": 72,
          "name": "C5",
          "ticks": 6750,
          "time": 2.8125,
          "velocity": 1
        },
        {
          "duration": 0.10000000000000009,
          "durationTicks": 240,
          "midi": 75,
          "name": "D#5",
          "ticks": 7230,
          "time": 3.0125,
          "velocity": 1
        },
        {
          "duration": 0.10000000000000009,
          "durationTicks": 240,
          "midi": 63,
          "name": "D#4",
          "ticks": 7230,
          "time": 3.0125,
          "velocity": 1
        },
        {
          "duration": 0.10000000000000009,
          "durationTicks": 240,
          "midi": 70,
          "name": "A#4",
          "ticks": 7230,
          "time": 3.0125,
          "velocity": 1
        },
        {
          "duration": 0.09999999999999964,
          "durationTicks": 240,
          "midi": 72,
          "name": "C5",
          "ticks": 7710,
          "time": 3.2125000000000004,
          "velocity": 1
        },
        {
          "duration": 0.09999999999999964,
          "durationTicks": 240,
          "midi": 65,
          "name": "F4",
          "ticks": 7710,
          "time": 3.2125000000000004,
          "velocity": 1
        },
        {
          "duration": 0.09999999999999964,
          "durationTicks": 240,
          "midi": 77,
          "name": "F5",
          "ticks": 7710,
          "time": 3.2125000000000004,
          "velocity": 1
        },
        {
          "duration": 0.10000000000000009,
          "durationTicks": 240,
          "midi": 65,
          "name": "F4",
          "ticks": 8190,
          "time": 3.4125,
          "velocity": 0.7401574803149606
        },
        {
          "duration": 0.10000000000000009,
          "durationTicks": 240,
          "midi": 72,
          "name": "C5",
          "ticks": 8190,
          "time": 3.4125,
          "velocity": 0.7401574803149606
        },
        {
          "duration": 0.10000000000000009,
          "durationTicks": 240,
          "midi": 77,
          "name": "F5",
          "ticks": 8190,
          "time": 3.4125,
          "velocity": 0.7401574803149606
        },
        {
          "duration": 0.10000000000000009,
          "durationTicks": 240,
          "midi": 72,
          "name": "C5",
          "ticks": 8430,
          "time": 3.5125,
          "velocity": 1
        },
        {
          "duration": 0.10000000000000009,
          "durationTicks": 240,
          "midi": 65,
          "name": "F4",
          "ticks": 8430,
          "time": 3.5125,
          "velocity": 1
        },
        {
          "duration": 0.10000000000000009,
          "durationTicks": 240,
          "midi": 77,
          "name": "F5",
          "ticks": 8430,
          "time": 3.5125,
          "velocity": 1
        },
        {
          "duration": 0.09999999999999964,
          "durationTicks": 240,
          "midi": 65,
          "name": "F4",
          "ticks": 8910,
          "time": 3.7125000000000004,
          "velocity": 0.7401574803149606
        },
        {
          "duration": 0.09999999999999964,
          "durationTicks": 240,
          "midi": 72,
          "name": "C5",
          "ticks": 8910,
          "time": 3.7125000000000004,
          "velocity": 0.7401574803149606
        },
        {
          "duration": 0.09999999999999964,
          "durationTicks": 240,
          "midi": 77,
          "name": "F5",
          "ticks": 8910,
          "time": 3.7125000000000004,
          "velocity": 0.7401574803149606
        },
        {
          "duration": 0.10000000000000009,
          "durationTicks": 240,
          "midi": 72,
          "name": "C5",
          "ticks": 9150,
          "time": 3.8125,
          "velocity": 1
        },
        {
          "duration": 0.10000000000000009,
          "durationTicks": 240,
          "midi": 65,
          "name": "F4",
          "ticks": 9150,
          "time": 3.8125,
          "velocity": 1
        },
        {
          "duration": 0.10000000000000009,
          "durationTicks": 240,
          "midi": 77,
          "name": "F5",
          "ticks": 9150,
          "time": 3.8125,
          "velocity": 1
        },
        {
          "duration": 0.09999999999999964,
          "durationTicks": 240,
          "midi": 65,
          "name": "F4",
          "ticks": 9630,
          "time": 4.0125,
          "velocity": 0.7401574803149606
        },
        {
          "duration": 0.09999999999999964,
          "durationTicks": 240,
          "midi": 72,
          "name": "C5",
          "ticks": 9630,
          "time": 4.0125,
          "velocity": 0.7401574803149606
        },
        {
          "duration": 0.09999999999999964,
          "durationTicks": 240,
          "midi": 77,
          "name": "F5",
          "ticks": 9630,
          "time": 4.0125,
          "velocity": 0.7401574803149606
        },
        {
          "duration": 0.10000000000000053,
          "durationTicks": 240,
          "midi": 72,
          "name": "C5",
          "ticks": 9870,
          "time": 4.1125,
          "velocity": 1
        },
        {
          "duration": 0.10000000000000053,
          "durationTicks": 240,
          "midi": 65,
          "name": "F4",
          "ticks": 9870,
          "time": 4.1125,
          "velocity": 1
        },
        {
          "duration": 0.10000000000000053,
          "durationTicks": 240,
          "midi": 77,
          "name": "F5",
          "ticks": 9870,
          "time": 4.1125,
          "velocity": 1
        },
        {
          "duration": 0.10000000000000053,
          "durationTicks": 240,
          "midi": 65,
          "name": "F4",
          "ticks": 10350,
          "time": 4.3125,
          "velocity": 0.7401574803149606
        },
        {
          "duration": 0.10000000000000053,
          "durationTicks": 240,
          "midi": 72,
          "name": "C5",
          "ticks": 10350,
          "time": 4.3125,
          "velocity": 0.7401574803149606
        },
        {
          "duration": 0.10000000000000053,
          "durationTicks": 240,
          "midi": 77,
          "name": "F5",
          "ticks": 10350,
          "time": 4.3125,
          "velocity": 0.7401574803149606
        },
        {
          "duration": 0.09999999999999964,
          "durationTicks": 240,
          "midi": 72,
          "name": "C5",
          "ticks": 10590,
          "time": 4.4125000000000005,
          "velocity": 1
        },
        {
          "duration": 0.09999999999999964,
          "durationTicks": 240,
          "midi": 65,
          "name": "F4",
          "ticks": 10590,
          "time": 4.4125000000000005,
          "velocity": 1
        },
        {
          "duration": 0.09999999999999964,
          "durationTicks": 240,
          "midi": 77,
          "name": "F5",
          "ticks": 10590,
          "time": 4.4125000000000005,
          "velocity": 1
        },
        {
          "duration": 0.10000000000000053,
          "durationTicks": 240,
          "midi": 73,
          "name": "C#5",
          "ticks": 11070,
          "time": 4.6125,
          "velocity": 1
        },
        {
          "duration": 0.10000000000000053,
          "durationTicks": 240,
          "midi": 66,
          "name": "F#4",
          "ticks": 11070,
          "time": 4.6125,
          "velocity": 1
        },
        {
          "duration": 0.10000000000000053,
          "durationTicks": 240,
          "midi": 78,
          "name": "F#5",
          "ticks": 11070,
          "time": 4.6125,
          "velocity": 1
        },
        {
          "duration": 0.10000000000000053,
          "durationTicks": 240,
          "midi": 77,
          "name": "F5",
          "ticks": 11550,
          "time": 4.8125,
          "velocity": 1
        },
        {
          "duration": 0.10000000000000053,
          "durationTicks": 240,
          "midi": 65,
          "name": "F4",
          "ticks": 11550,
          "time": 4.8125,
          "velocity": 1
        },
        {
          "duration": 0.10000000000000053,
          "durationTicks": 240,
          "midi": 72,
          "name": "C5",
          "ticks": 11550,
          "time": 4.8125,
          "velocity": 1
        },
        {
          "duration": 0.10000000000000053,
          "durationTicks": 240,
          "midi": 65,
          "name": "F4",
          "ticks": 12030,
          "time": 5.0125,
          "velocity": 0.7401574803149606
        },
        {
          "duration": 0.10000000000000053,
          "durationTicks": 240,
          "midi": 72,
          "name": "C5",
          "ticks": 12030,
          "time": 5.0125,
          "velocity": 0.7401574803149606
        },
        {
          "duration": 0.10000000000000053,
          "durationTicks": 240,
          "midi": 77,
          "name": "F5",
          "ticks": 12030,
          "time": 5.0125,
          "velocity": 0.7401574803149606
        },
        {
          "duration": 0.09999999999999964,
          "durationTicks": 240,
          "midi": 77,
          "name": "F5",
          "ticks": 12270,
          "time": 5.112500000000001,
          "velocity": 1
        },
        {
          "duration": 0.09999999999999964,
          "durationTicks": 240,
          "midi": 65,
          "name": "F4",
          "ticks": 12270,
          "time": 5.112500000000001,
          "velocity": 1
        },
        {
          "duration": 0.09999999999999964,
          "durationTicks": 240,
          "midi": 72,
          "name": "C5",
          "ticks": 12270,
          "time": 5.112500000000001,
          "velocity": 1
        },
        {
          "duration": 0.10000000000000053,
          "durationTicks": 240,
          "midi": 65,
          "name": "F4",
          "ticks": 12750,
          "time": 5.3125,
          "velocity": 0.7401574803149606
        },
        {
          "duration": 0.10000000000000053,
          "durationTicks": 240,
          "midi": 72,
          "name": "C5",
          "ticks": 12750,
          "time": 5.3125,
          "velocity": 0.7401574803149606
        },
        {
          "duration": 0.10000000000000053,
          "durationTicks": 240,
          "midi": 77,
          "name": "F5",
          "ticks": 12750,
          "time": 5.3125,
          "velocity": 0.7401574803149606
        },
        {
          "duration": 0.09999999999999964,
          "durationTicks": 240,
          "midi": 77,
          "name": "F5",
          "ticks": 12990,
          "time": 5.4125000000000005,
          "velocity": 1
        },
        {
          "duration": 0.09999999999999964,
          "durationTicks": 240,
          "midi": 65,
          "name": "F4",
          "ticks": 12990,
          "time": 5.4125000000000005,
          "velocity": 1
        },
        {
          "duration": 0.09999999999999964,
          "durationTicks": 240,
          "midi": 72,
          "name": "C5",
          "ticks": 12990,
          "time": 5.4125000000000005,
          "velocity": 1
        },
        {
          "duration": 0.09999999999999964,
          "durationTicks": 240,
          "midi": 65,
          "name": "F4",
          "ticks": 13470,
          "time": 5.612500000000001,
          "velocity": 0.7401574803149606
        },
        {
          "duration": 0.09999999999999964,
          "durationTicks": 240,
          "midi": 72,
          "name": "C5",
          "ticks": 13470,
          "time": 5.612500000000001,
          "velocity": 0.7401574803149606
        },
        {
          "duration": 0.09999999999999964,
          "durationTicks": 240,
          "midi": 77,
          "name": "F5",
          "ticks": 13470,
          "time": 5.612500000000001,
          "velocity": 0.7401574803149606
        },
        {
          "duration": 0.09999999999999964,
          "durationTicks": 240,
          "midi": 77,
          "name": "F5",
          "ticks": 13710,
          "time": 5.7125,
          "velocity": 1
        },
        {
          "duration": 0.09999999999999964,
          "durationTicks": 240,
          "midi": 65,
          "name": "F4",
          "ticks": 13710,
          "time": 5.7125,
          "velocity": 1
        },
        {
          "duration": 0.09999999999999964,
          "durationTicks": 240,
          "midi": 72,
          "name": "C5",
          "ticks": 13710,
          "time": 5.7125,
          "velocity": 1
        },
        {
          "duration": 0.09999999999999964,
          "durationTicks": 240,
          "midi": 65,
          "name": "F4",
          "ticks": 14190,
          "time": 5.9125000000000005,
          "velocity": 0.7401574803149606
        },
        {
          "duration": 0.09999999999999964,
          "durationTicks": 240,
          "midi": 72,
          "name": "C5",
          "ticks": 14190,
          "time": 5.9125000000000005,
          "velocity": 0.7401574803149606
        },
        {
          "duration": 0.09999999999999964,
          "durationTicks": 240,
          "midi": 77,
          "name": "F5",
          "ticks": 14190,
          "time": 5.9125000000000005,
          "velocity": 0.7401574803149606
        },
        {
          "duration": 0.10000000000000053,
          "durationTicks": 240,
          "midi": 77,
          "name": "F5",
          "ticks": 14430,
          "time": 6.0125,
          "velocity": 1
        },
        {
          "duration": 0.10000000000000053,
          "durationTicks": 240,
          "midi": 65,
          "name": "F4",
          "ticks": 14430,
          "time": 6.0125,
          "velocity": 1
        },
        {
          "duration": 0.10000000000000053,
          "durationTicks": 240,
          "midi": 72,
          "name": "C5",
          "ticks": 14430,
          "time": 6.0125,
          "velocity": 1
        },
        {
          "duration": 0.09999999999999964,
          "durationTicks": 240,
          "midi": 75,
          "name": "D#5",
          "ticks": 14910,
          "time": 6.2125,
          "velocity": 1
        },
        {
          "duration": 0.09999999999999964,
          "durationTicks": 240,
          "midi": 63,
          "name": "D#4",
          "ticks": 14910,
          "time": 6.2125,
          "velocity": 1
        },
        {
          "duration": 0.09999999999999964,
          "durationTicks": 240,
          "midi": 70,
          "name": "A#4",
          "ticks": 14910,
          "time": 6.2125,
          "velocity": 1
        },
        {
          "duration": 0.09999999999999964,
          "durationTicks": 240,
          "midi": 72,
          "name": "C5",
          "ticks": 15390,
          "time": 6.4125000000000005,
          "velocity": 1
        },
        {
          "duration": 0.09999999999999964,
          "durationTicks": 240,
          "midi": 65,
          "name": "F4",
          "ticks": 15390,
          "time": 6.4125000000000005,
          "velocity": 1
        },
        {
          "duration": 0.09999999999999964,
          "durationTicks": 240,
          "midi": 77,
          "name": "F5",
          "ticks": 15390,
          "time": 6.4125000000000005,
          "velocity": 1
        },
        {
          "duration": 0.09999999999999964,
          "durationTicks": 240,
          "midi": 65,
          "name": "F4",
          "ticks": 15870,
          "time": 6.612500000000001,
          "velocity": 0.7401574803149606
        },
        {
          "duration": 0.09999999999999964,
          "durationTicks": 240,
          "midi": 72,
          "name": "C5",
          "ticks": 15870,
          "time": 6.612500000000001,
          "velocity": 0.7401574803149606
        },
        {
          "duration": 0.09999999999999964,
          "durationTicks": 240,
          "midi": 77,
          "name": "F5",
          "ticks": 15870,
          "time": 6.612500000000001,
          "velocity": 0.7401574803149606
        },
        {
          "duration": 0.09999999999999964,
          "durationTicks": 240,
          "midi": 72,
          "name": "C5",
          "ticks": 16110,
          "time": 6.7125,
          "velocity": 1
        },
        {
          "duration": 0.09999999999999964,
          "durationTicks": 240,
          "midi": 65,
          "name": "F4",
          "ticks": 16110,
          "time": 6.7125,
          "velocity": 1
        },
        {
          "duration": 0.09999999999999964,
          "durationTicks": 240,
          "midi": 77,
          "name": "F5",
          "ticks": 16110,
          "time": 6.7125,
          "velocity": 1
        },
        {
          "duration": 0.09999999999999964,
          "durationTicks": 240,
          "midi": 65,
          "name": "F4",
          "ticks": 16590,
          "time": 6.9125000000000005,
          "velocity": 0.7401574803149606
        },
        {
          "duration": 0.09999999999999964,
          "durationTicks": 240,
          "midi": 72,
          "name": "C5",
          "ticks": 16590,
          "time": 6.9125000000000005,
          "velocity": 0.7401574803149606
        },
        {
          "duration": 0.09999999999999964,
          "durationTicks": 240,
          "midi": 77,
          "name": "F5",
          "ticks": 16590,
          "time": 6.9125000000000005,
          "velocity": 0.7401574803149606
        },
        {
          "duration": 0.10000000000000053,
          "durationTicks": 240,
          "midi": 72,
          "name": "C5",
          "ticks": 16830,
          "time": 7.0125,
          "velocity": 1
        },
        {
          "duration": 0.10000000000000053,
          "durationTicks": 240,
          "midi": 65,
          "name": "F4",
          "ticks": 16830,
          "time": 7.0125,
          "velocity": 1
        },
        {
          "duration": 0.10000000000000053,
          "durationTicks": 240,
          "midi": 77,
          "name": "F5",
          "ticks": 16830,
          "time": 7.0125,
          "velocity": 1
        },
        {
          "duration": 0.09999999999999964,
          "durationTicks": 240,
          "midi": 65,
          "name": "F4",
          "ticks": 17310,
          "time": 7.2125,
          "velocity": 0.7401574803149606
        },
        {
          "duration": 0.09999999999999964,
          "durationTicks": 240,
          "midi": 72,
          "name": "C5",
          "ticks": 17310,
          "time": 7.2125,
          "velocity": 0.7401574803149606
        },
        {
          "duration": 0.09999999999999964,
          "durationTicks": 240,
          "midi": 77,
          "name": "F5",
          "ticks": 17310,
          "time": 7.2125,
          "velocity": 0.7401574803149606
        },
        {
          "duration": 0.10000000000000053,
          "durationTicks": 240,
          "midi": 72,
          "name": "C5",
          "ticks": 17550,
          "time": 7.3125,
          "velocity": 1
        },
        {
          "duration": 0.10000000000000053,
          "durationTicks": 240,
          "midi": 65,
          "name": "F4",
          "ticks": 17550,
          "time": 7.3125,
          "velocity": 1
        },
        {
          "duration": 0.10000000000000053,
          "durationTicks": 240,
          "midi": 77,
          "name": "F5",
          "ticks": 17550,
          "time": 7.3125,
          "velocity": 1
        },
        {
          "duration": 0.10000000000000053,
          "durationTicks": 240,
          "midi": 65,
          "name": "F4",
          "ticks": 18030,
          "time": 7.5125,
          "velocity": 0.7401574803149606
        },
        {
          "duration": 0.10000000000000053,
          "durationTicks": 240,
          "midi": 72,
          "name": "C5",
          "ticks": 18030,
          "time": 7.5125,
          "velocity": 0.7401574803149606
        },
        {
          "duration": 0.10000000000000053,
          "durationTicks": 240,
          "midi": 77,
          "name": "F5",
          "ticks": 18030,
          "time": 7.5125,
          "velocity": 0.7401574803149606
        },
        {
          "duration": 0.09999999999999964,
          "durationTicks": 240,
          "midi": 72,
          "name": "C5",
          "ticks": 18270,
          "time": 7.612500000000001,
          "velocity": 1
        },
        {
          "duration": 0.09999999999999964,
          "durationTicks": 240,
          "midi": 65,
          "name": "F4",
          "ticks": 18270,
          "time": 7.612500000000001,
          "velocity": 1
        },
        {
          "duration": 0.09999999999999964,
          "durationTicks": 240,
          "midi": 77,
          "name": "F5",
          "ticks": 18270,
          "time": 7.612500000000001,
          "velocity": 1
        },
        {
          "duration": 0.10000000000000053,
          "durationTicks": 240,
          "midi": 73,
          "name": "C#5",
          "ticks": 18750,
          "time": 7.8125,
          "velocity": 1
        },
        {
          "duration": 0.10000000000000053,
          "durationTicks": 240,
          "midi": 66,
          "name": "F#4",
          "ticks": 18750,
          "time": 7.8125,
          "velocity": 1
        },
        {
          "duration": 0.10000000000000053,
          "durationTicks": 240,
          "midi": 78,
          "name": "F#5",
          "ticks": 18750,
          "time": 7.8125,
          "velocity": 1
        },
        {
          "duration": 0.09999999999999964,
          "durationTicks": 240,
          "midi": 77,
          "name": "F5",
          "ticks": 19230,
          "time": 8.012500000000001,
          "velocity": 1
        },
        {
          "duration": 0.09999999999999964,
          "durationTicks": 240,
          "midi": 65,
          "name": "F4",
          "ticks": 19230,
          "time": 8.012500000000001,
          "velocity": 1
        },
        {
          "duration": 0.09999999999999964,
          "durationTicks": 240,
          "midi": 72,
          "name": "C5",
          "ticks": 19230,
          "time": 8.012500000000001,
          "velocity": 1
        },
        {
          "duration": 0.09999999999999964,
          "durationTicks": 240,
          "midi": 65,
          "name": "F4",
          "ticks": 19710,
          "time": 8.2125,
          "velocity": 0.7401574803149606
        },
        {
          "duration": 0.09999999999999964,
          "durationTicks": 240,
          "midi": 72,
          "name": "C5",
          "ticks": 19710,
          "time": 8.2125,
          "velocity": 0.7401574803149606
        },
        {
          "duration": 0.09999999999999964,
          "durationTicks": 240,
          "midi": 77,
          "name": "F5",
          "ticks": 19710,
          "time": 8.2125,
          "velocity": 0.7401574803149606
        },
        {
          "duration": 0.09999999999999964,
          "durationTicks": 240,
          "midi": 77,
          "name": "F5",
          "ticks": 19950,
          "time": 8.3125,
          "velocity": 1
        },
        {
          "duration": 0.09999999999999964,
          "durationTicks": 240,
          "midi": 65,
          "name": "F4",
          "ticks": 19950,
          "time": 8.3125,
          "velocity": 1
        },
        {
          "duration": 0.09999999999999964,
          "durationTicks": 240,
          "midi": 72,
          "name": "C5",
          "ticks": 19950,
          "time": 8.3125,
          "velocity": 1
        },
        {
          "duration": 0.09999999999999964,
          "durationTicks": 240,
          "midi": 65,
          "name": "F4",
          "ticks": 20430,
          "time": 8.512500000000001,
          "velocity": 0.7401574803149606
        },
        {
          "duration": 0.09999999999999964,
          "durationTicks": 240,
          "midi": 72,
          "name": "C5",
          "ticks": 20430,
          "time": 8.512500000000001,
          "velocity": 0.7401574803149606
        },
        {
          "duration": 0.09999999999999964,
          "durationTicks": 240,
          "midi": 77,
          "name": "F5",
          "ticks": 20430,
          "time": 8.512500000000001,
          "velocity": 0.7401574803149606
        },
        {
          "duration": 0.09999999999999964,
          "durationTicks": 240,
          "midi": 77,
          "name": "F5",
          "ticks": 20670,
          "time": 8.6125,
          "velocity": 1
        },
        {
          "duration": 0.09999999999999964,
          "durationTicks": 240,
          "midi": 65,
          "name": "F4",
          "ticks": 20670,
          "time": 8.6125,
          "velocity": 1
        },
        {
          "duration": 0.09999999999999964,
          "durationTicks": 240,
          "midi": 72,
          "name": "C5",
          "ticks": 20670,
          "time": 8.6125,
          "velocity": 1
        },
        {
          "duration": 0.09999999999999964,
          "durationTicks": 240,
          "midi": 65,
          "name": "F4",
          "ticks": 21150,
          "time": 8.8125,
          "velocity": 0.7401574803149606
        },
        {
          "duration": 0.09999999999999964,
          "durationTicks": 240,
          "midi": 72,
          "name": "C5",
          "ticks": 21150,
          "time": 8.8125,
          "velocity": 0.7401574803149606
        },
        {
          "duration": 0.09999999999999964,
          "durationTicks": 240,
          "midi": 77,
          "name": "F5",
          "ticks": 21150,
          "time": 8.8125,
          "velocity": 0.7401574803149606
        },
        {
          "duration": 0.10000000000000142,
          "durationTicks": 240,
          "midi": 77,
          "name": "F5",
          "ticks": 21390,
          "time": 8.9125,
          "velocity": 1
        },
        {
          "duration": 0.10000000000000142,
          "durationTicks": 240,
          "midi": 65,
          "name": "F4",
          "ticks": 21390,
          "time": 8.9125,
          "velocity": 1
        },
        {
          "duration": 0.10000000000000142,
          "durationTicks": 240,
          "midi": 72,
          "name": "C5",
          "ticks": 21390,
          "time": 8.9125,
          "velocity": 1
        },
        {
          "duration": 0.09999999999999964,
          "durationTicks": 240,
          "midi": 65,
          "name": "F4",
          "ticks": 21870,
          "time": 9.1125,
          "velocity": 0.7401574803149606
        },
        {
          "duration": 0.09999999999999964,
          "durationTicks": 240,
          "midi": 72,
          "name": "C5",
          "ticks": 21870,
          "time": 9.1125,
          "velocity": 0.7401574803149606
        },
        {
          "duration": 0.09999999999999964,
          "durationTicks": 240,
          "midi": 77,
          "name": "F5",
          "ticks": 21870,
          "time": 9.1125,
          "velocity": 0.7401574803149606
        },
        {
          "duration": 0.09999999999999964,
          "durationTicks": 240,
          "midi": 77,
          "name": "F5",
          "ticks": 22110,
          "time": 9.2125,
          "velocity": 1
        },
        {
          "duration": 0.09999999999999964,
          "durationTicks": 240,
          "midi": 65,
          "name": "F4",
          "ticks": 22110,
          "time": 9.2125,
          "velocity": 1
        },
        {
          "duration": 0.09999999999999964,
          "durationTicks": 240,
          "midi": 72,
          "name": "C5",
          "ticks": 22110,
          "time": 9.2125,
          "velocity": 1
        },
        {
          "duration": 0.10000000000000142,
          "durationTicks": 240,
          "midi": 75,
          "name": "D#5",
          "ticks": 22590,
          "time": 9.4125,
          "velocity": 1
        },
        {
          "duration": 0.10000000000000142,
          "durationTicks": 240,
          "midi": 63,
          "name": "D#4",
          "ticks": 22590,
          "time": 9.4125,
          "velocity": 1
        },
        {
          "duration": 0.10000000000000142,
          "durationTicks": 240,
          "midi": 70,
          "name": "A#4",
          "ticks": 22590,
          "time": 9.4125,
          "velocity": 1
        },
        {
          "duration": 0.09999999999999964,
          "durationTicks": 240,
          "midi": 72,
          "name": "C5",
          "ticks": 23070,
          "time": 9.6125,
          "velocity": 1
        },
        {
          "duration": 0.09999999999999964,
          "durationTicks": 240,
          "midi": 65,
          "name": "F4",
          "ticks": 23070,
          "time": 9.6125,
          "velocity": 1
        },
        {
          "duration": 0.09999999999999964,
          "durationTicks": 240,
          "midi": 77,
          "name": "F5",
          "ticks": 23070,
          "time": 9.6125,
          "velocity": 1
        },
        {
          "duration": 0.10000000000000142,
          "durationTicks": 240,
          "midi": 65,
          "name": "F4",
          "ticks": 23550,
          "time": 9.8125,
          "velocity": 0.7401574803149606
        },
        {
          "duration": 0.10000000000000142,
          "durationTicks": 240,
          "midi": 72,
          "name": "C5",
          "ticks": 23550,
          "time": 9.8125,
          "velocity": 0.7401574803149606
        },
        {
          "duration": 0.10000000000000142,
          "durationTicks": 240,
          "midi": 77,
          "name": "F5",
          "ticks": 23550,
          "time": 9.8125,
          "velocity": 0.7401574803149606
        },
        {
          "duration": 0.09999999999999964,
          "durationTicks": 240,
          "midi": 72,
          "name": "C5",
          "ticks": 23790,
          "time": 9.912500000000001,
          "velocity": 1
        },
        {
          "duration": 0.09999999999999964,
          "durationTicks": 240,
          "midi": 65,
          "name": "F4",
          "ticks": 23790,
          "time": 9.912500000000001,
          "velocity": 1
        },
        {
          "duration": 0.09999999999999964,
          "durationTicks": 240,
          "midi": 77,
          "name": "F5",
          "ticks": 23790,
          "time": 9.912500000000001,
          "velocity": 1
        },
        {
          "duration": 0.09999999999999964,
          "durationTicks": 240,
          "midi": 65,
          "name": "F4",
          "ticks": 24270,
          "time": 10.1125,
          "velocity": 0.7401574803149606
        },
        {
          "duration": 0.09999999999999964,
          "durationTicks": 240,
          "midi": 72,
          "name": "C5",
          "ticks": 24270,
          "time": 10.1125,
          "velocity": 0.7401574803149606
        },
        {
          "duration": 0.09999999999999964,
          "durationTicks": 240,
          "midi": 77,
          "name": "F5",
          "ticks": 24270,
          "time": 10.1125,
          "velocity": 0.7401574803149606
        },
        {
          "duration": 0.09999999999999964,
          "durationTicks": 240,
          "midi": 72,
          "name": "C5",
          "ticks": 24510,
          "time": 10.2125,
          "velocity": 1
        },
        {
          "duration": 0.09999999999999964,
          "durationTicks": 240,
          "midi": 65,
          "name": "F4",
          "ticks": 24510,
          "time": 10.2125,
          "velocity": 1
        },
        {
          "duration": 0.09999999999999964,
          "durationTicks": 240,
          "midi": 77,
          "name": "F5",
          "ticks": 24510,
          "time": 10.2125,
          "velocity": 1
        },
        {
          "duration": 0.09999999999999964,
          "durationTicks": 240,
          "midi": 65,
          "name": "F4",
          "ticks": 24990,
          "time": 10.412500000000001,
          "velocity": 0.7401574803149606
        },
        {
          "duration": 0.09999999999999964,
          "durationTicks": 240,
          "midi": 72,
          "name": "C5",
          "ticks": 24990,
          "time": 10.412500000000001,
          "velocity": 0.7401574803149606
        },
        {
          "duration": 0.09999999999999964,
          "durationTicks": 240,
          "midi": 77,
          "name": "F5",
          "ticks": 24990,
          "time": 10.412500000000001,
          "velocity": 0.7401574803149606
        },
        {
          "duration": 0.09999999999999964,
          "durationTicks": 240,
          "midi": 72,
          "name": "C5",
          "ticks": 25230,
          "time": 10.512500000000001,
          "velocity": 1
        },
        {
          "duration": 0.09999999999999964,
          "durationTicks": 240,
          "midi": 65,
          "name": "F4",
          "ticks": 25230,
          "time": 10.512500000000001,
          "velocity": 1
        },
        {
          "duration": 0.09999999999999964,
          "durationTicks": 240,
          "midi": 77,
          "name": "F5",
          "ticks": 25230,
          "time": 10.512500000000001,
          "velocity": 1
        },
        {
          "duration": 0.09999999999999964,
          "durationTicks": 240,
          "midi": 65,
          "name": "F4",
          "ticks": 25710,
          "time": 10.7125,
          "velocity": 0.7401574803149606
        },
        {
          "duration": 0.09999999999999964,
          "durationTicks": 240,
          "midi": 72,
          "name": "C5",
          "ticks": 25710,
          "time": 10.7125,
          "velocity": 0.7401574803149606
        },
        {
          "duration": 0.09999999999999964,
          "durationTicks": 240,
          "midi": 77,
          "name": "F5",
          "ticks": 25710,
          "time": 10.7125,
          "velocity": 0.7401574803149606
        },
        {
          "duration": 0.10000000000000142,
          "durationTicks": 240,
          "midi": 72,
          "name": "C5",
          "ticks": 25950,
          "time": 10.8125,
          "velocity": 1
        },
        {
          "duration": 0.10000000000000142,
          "durationTicks": 240,
          "midi": 65,
          "name": "F4",
          "ticks": 25950,
          "time": 10.8125,
          "velocity": 1
        },
        {
          "duration": 0.10000000000000142,
          "durationTicks": 240,
          "midi": 77,
          "name": "F5",
          "ticks": 25950,
          "time": 10.8125,
          "velocity": 1
        },
        {
          "duration": 0.09999999999999964,
          "durationTicks": 240,
          "midi": 73,
          "name": "C#5",
          "ticks": 26430,
          "time": 11.012500000000001,
          "velocity": 1
        },
        {
          "duration": 0.09999999999999964,
          "durationTicks": 240,
          "midi": 66,
          "name": "F#4",
          "ticks": 26430,
          "time": 11.012500000000001,
          "velocity": 1
        },
        {
          "duration": 0.09999999999999964,
          "durationTicks": 240,
          "midi": 78,
          "name": "F#5",
          "ticks": 26430,
          "time": 11.012500000000001,
          "velocity": 1
        },
        {
          "duration": 0.09999999999999964,
          "durationTicks": 240,
          "midi": 77,
          "name": "F5",
          "ticks": 26910,
          "time": 11.2125,
          "velocity": 1
        },
        {
          "duration": 0.09999999999999964,
          "durationTicks": 240,
          "midi": 65,
          "name": "F4",
          "ticks": 26910,
          "time": 11.2125,
          "velocity": 1
        },
        {
          "duration": 0.09999999999999964,
          "durationTicks": 240,
          "midi": 72,
          "name": "C5",
          "ticks": 26910,
          "time": 11.2125,
          "velocity": 1
        },
        {
          "duration": 0.09999999999999964,
          "durationTicks": 240,
          "midi": 65,
          "name": "F4",
          "ticks": 27390,
          "time": 11.412500000000001,
          "velocity": 0.7401574803149606
        },
        {
          "duration": 0.09999999999999964,
          "durationTicks": 240,
          "midi": 72,
          "name": "C5",
          "ticks": 27390,
          "time": 11.412500000000001,
          "velocity": 0.7401574803149606
        },
        {
          "duration": 0.09999999999999964,
          "durationTicks": 240,
          "midi": 77,
          "name": "F5",
          "ticks": 27390,
          "time": 11.412500000000001,
          "velocity": 0.7401574803149606
        },
        {
          "duration": 0.09999999999999964,
          "durationTicks": 240,
          "midi": 77,
          "name": "F5",
          "ticks": 27630,
          "time": 11.512500000000001,
          "velocity": 1
        },
        {
          "duration": 0.09999999999999964,
          "durationTicks": 240,
          "midi": 65,
          "name": "F4",
          "ticks": 27630,
          "time": 11.512500000000001,
          "velocity": 1
        },
        {
          "duration": 0.09999999999999964,
          "durationTicks": 240,
          "midi": 72,
          "name": "C5",
          "ticks": 27630,
          "time": 11.512500000000001,
          "velocity": 1
        },
        {
          "duration": 0.09999999999999964,
          "durationTicks": 240,
          "midi": 65,
          "name": "F4",
          "ticks": 28110,
          "time": 11.7125,
          "velocity": 0.7401574803149606
        },
        {
          "duration": 0.09999999999999964,
          "durationTicks": 240,
          "midi": 72,
          "name": "C5",
          "ticks": 28110,
          "time": 11.7125,
          "velocity": 0.7401574803149606
        },
        {
          "duration": 0.09999999999999964,
          "durationTicks": 240,
          "midi": 77,
          "name": "F5",
          "ticks": 28110,
          "time": 11.7125,
          "velocity": 0.7401574803149606
        },
        {
          "duration": 0.10000000000000142,
          "durationTicks": 240,
          "midi": 77,
          "name": "F5",
          "ticks": 28350,
          "time": 11.8125,
          "velocity": 1
        },
        {
          "duration": 0.10000000000000142,
          "durationTicks": 240,
          "midi": 65,
          "name": "F4",
          "ticks": 28350,
          "time": 11.8125,
          "velocity": 1
        },
        {
          "duration": 0.10000000000000142,
          "durationTicks": 240,
          "midi": 72,
          "name": "C5",
          "ticks": 28350,
          "time": 11.8125,
          "velocity": 1
        },
        {
          "duration": 0.09999999999999964,
          "durationTicks": 240,
          "midi": 65,
          "name": "F4",
          "ticks": 28830,
          "time": 12.012500000000001,
          "velocity": 0.7401574803149606
        },
        {
          "duration": 0.09999999999999964,
          "durationTicks": 240,
          "midi": 72,
          "name": "C5",
          "ticks": 28830,
          "time": 12.012500000000001,
          "velocity": 0.7401574803149606
        },
        {
          "duration": 0.09999999999999964,
          "durationTicks": 240,
          "midi": 77,
          "name": "F5",
          "ticks": 28830,
          "time": 12.012500000000001,
          "velocity": 0.7401574803149606
        },
        {
          "duration": 0.09999999999999964,
          "durationTicks": 240,
          "midi": 77,
          "name": "F5",
          "ticks": 29070,
          "time": 12.1125,
          "velocity": 1
        },
        {
          "duration": 0.09999999999999964,
          "durationTicks": 240,
          "midi": 65,
          "name": "F4",
          "ticks": 29070,
          "time": 12.1125,
          "velocity": 1
        },
        {
          "duration": 0.09999999999999964,
          "durationTicks": 240,
          "midi": 72,
          "name": "C5",
          "ticks": 29070,
          "time": 12.1125,
          "velocity": 1
        },
        {
          "duration": 0.10000000000000142,
          "durationTicks": 240,
          "midi": 65,
          "name": "F4",
          "ticks": 29550,
          "time": 12.3125,
          "velocity": 0.7401574803149606
        },
        {
          "duration": 0.10000000000000142,
          "durationTicks": 240,
          "midi": 72,
          "name": "C5",
          "ticks": 29550,
          "time": 12.3125,
          "velocity": 0.7401574803149606
        },
        {
          "duration": 0.10000000000000142,
          "durationTicks": 240,
          "midi": 77,
          "name": "F5",
          "ticks": 29550,
          "time": 12.3125,
          "velocity": 0.7401574803149606
        },
        {
          "duration": 0.09999999999999964,
          "durationTicks": 240,
          "midi": 77,
          "name": "F5",
          "ticks": 29790,
          "time": 12.412500000000001,
          "velocity": 1
        },
        {
          "duration": 0.09999999999999964,
          "durationTicks": 240,
          "midi": 65,
          "name": "F4",
          "ticks": 29790,
          "time": 12.412500000000001,
          "velocity": 1
        },
        {
          "duration": 0.09999999999999964,
          "durationTicks": 240,
          "midi": 72,
          "name": "C5",
          "ticks": 29790,
          "time": 12.412500000000001,
          "velocity": 1
        },
        {
          "duration": 0.09999999999999964,
          "durationTicks": 240,
          "midi": 75,
          "name": "D#5",
          "ticks": 30270,
          "time": 12.6125,
          "velocity": 1
        },
        {
          "duration": 0.09999999999999964,
          "durationTicks": 240,
          "midi": 63,
          "name": "D#4",
          "ticks": 30270,
          "time": 12.6125,
          "velocity": 1
        },
        {
          "duration": 0.09999999999999964,
          "durationTicks": 240,
          "midi": 70,
          "name": "A#4",
          "ticks": 30270,
          "time": 12.6125,
          "velocity": 1
        },
        {
          "duration": 0.10000000000000142,
          "durationTicks": 240,
          "midi": 72,
          "name": "C5",
          "ticks": 30750,
          "time": 12.8125,
          "velocity": 1
        },
        {
          "duration": 0.10000000000000142,
          "durationTicks": 240,
          "midi": 65,
          "name": "F4",
          "ticks": 30750,
          "time": 12.8125,
          "velocity": 1
        },
        {
          "duration": 0.10000000000000142,
          "durationTicks": 240,
          "midi": 77,
          "name": "F5",
          "ticks": 30750,
          "time": 12.8125,
          "velocity": 1
        },
        {
          "duration": 0.09999999999999964,
          "durationTicks": 240,
          "midi": 65,
          "name": "F4",
          "ticks": 31230,
          "time": 13.012500000000001,
          "velocity": 0.7401574803149606
        },
        {
          "duration": 0.09999999999999964,
          "durationTicks": 240,
          "midi": 72,
          "name": "C5",
          "ticks": 31230,
          "time": 13.012500000000001,
          "velocity": 0.7401574803149606
        },
        {
          "duration": 0.09999999999999964,
          "durationTicks": 240,
          "midi": 77,
          "name": "F5",
          "ticks": 31230,
          "time": 13.012500000000001,
          "velocity": 0.7401574803149606
        },
        {
          "duration": 0.09999999999999964,
          "durationTicks": 240,
          "midi": 72,
          "name": "C5",
          "ticks": 31470,
          "time": 13.1125,
          "velocity": 1
        },
        {
          "duration": 0.09999999999999964,
          "durationTicks": 240,
          "midi": 65,
          "name": "F4",
          "ticks": 31470,
          "time": 13.1125,
          "velocity": 1
        },
        {
          "duration": 0.09999999999999964,
          "durationTicks": 240,
          "midi": 77,
          "name": "F5",
          "ticks": 31470,
          "time": 13.1125,
          "velocity": 1
        },
        {
          "duration": 0.10000000000000142,
          "durationTicks": 240,
          "midi": 65,
          "name": "F4",
          "ticks": 31950,
          "time": 13.3125,
          "velocity": 0.7401574803149606
        },
        {
          "duration": 0.10000000000000142,
          "durationTicks": 240,
          "midi": 72,
          "name": "C5",
          "ticks": 31950,
          "time": 13.3125,
          "velocity": 0.7401574803149606
        },
        {
          "duration": 0.10000000000000142,
          "durationTicks": 240,
          "midi": 77,
          "name": "F5",
          "ticks": 31950,
          "time": 13.3125,
          "velocity": 0.7401574803149606
        },
        {
          "duration": 0.09999999999999964,
          "durationTicks": 240,
          "midi": 72,
          "name": "C5",
          "ticks": 32190,
          "time": 13.412500000000001,
          "velocity": 1
        },
        {
          "duration": 0.09999999999999964,
          "durationTicks": 240,
          "midi": 65,
          "name": "F4",
          "ticks": 32190,
          "time": 13.412500000000001,
          "velocity": 1
        },
        {
          "duration": 0.09999999999999964,
          "durationTicks": 240,
          "midi": 77,
          "name": "F5",
          "ticks": 32190,
          "time": 13.412500000000001,
          "velocity": 1
        },
        {
          "duration": 0.09999999999999964,
          "durationTicks": 240,
          "midi": 65,
          "name": "F4",
          "ticks": 32670,
          "time": 13.6125,
          "velocity": 0.7401574803149606
        },
        {
          "duration": 0.09999999999999964,
          "durationTicks": 240,
          "midi": 72,
          "name": "C5",
          "ticks": 32670,
          "time": 13.6125,
          "velocity": 0.7401574803149606
        },
        {
          "duration": 0.09999999999999964,
          "durationTicks": 240,
          "midi": 77,
          "name": "F5",
          "ticks": 32670,
          "time": 13.6125,
          "velocity": 0.7401574803149606
        },
        {
          "duration": 0.09999999999999964,
          "durationTicks": 240,
          "midi": 72,
          "name": "C5",
          "ticks": 32910,
          "time": 13.7125,
          "velocity": 1
        },
        {
          "duration": 0.09999999999999964,
          "durationTicks": 240,
          "midi": 65,
          "name": "F4",
          "ticks": 32910,
          "time": 13.7125,
          "velocity": 1
        },
        {
          "duration": 0.09999999999999964,
          "durationTicks": 240,
          "midi": 77,
          "name": "F5",
          "ticks": 32910,
          "time": 13.7125,
          "velocity": 1
        },
        {
          "duration": 0.09999999999999964,
          "durationTicks": 240,
          "midi": 65,
          "name": "F4",
          "ticks": 33390,
          "time": 13.912500000000001,
          "velocity": 0.7401574803149606
        },
        {
          "duration": 0.09999999999999964,
          "durationTicks": 240,
          "midi": 72,
          "name": "C5",
          "ticks": 33390,
          "time": 13.912500000000001,
          "velocity": 0.7401574803149606
        },
        {
          "duration": 0.09999999999999964,
          "durationTicks": 240,
          "midi": 77,
          "name": "F5",
          "ticks": 33390,
          "time": 13.912500000000001,
          "velocity": 0.7401574803149606
        },
        {
          "duration": 0.09999999999999964,
          "durationTicks": 240,
          "midi": 72,
          "name": "C5",
          "ticks": 33630,
          "time": 14.012500000000001,
          "velocity": 1
        },
        {
          "duration": 0.09999999999999964,
          "durationTicks": 240,
          "midi": 65,
          "name": "F4",
          "ticks": 33630,
          "time": 14.012500000000001,
          "velocity": 1
        },
        {
          "duration": 0.09999999999999964,
          "durationTicks": 240,
          "midi": 77,
          "name": "F5",
          "ticks": 33630,
          "time": 14.012500000000001,
          "velocity": 1
        },
        {
          "duration": 0.09999999999999964,
          "durationTicks": 240,
          "midi": 73,
          "name": "C#5",
          "ticks": 34110,
          "time": 14.2125,
          "velocity": 1
        },
        {
          "duration": 0.09999999999999964,
          "durationTicks": 240,
          "midi": 66,
          "name": "F#4",
          "ticks": 34110,
          "time": 14.2125,
          "velocity": 1
        },
        {
          "duration": 0.09999999999999964,
          "durationTicks": 240,
          "midi": 78,
          "name": "F#5",
          "ticks": 34110,
          "time": 14.2125,
          "velocity": 1
        },
        {
          "duration": 0.09999999999999964,
          "durationTicks": 240,
          "midi": 77,
          "name": "F5",
          "ticks": 34590,
          "time": 14.412500000000001,
          "velocity": 1
        },
        {
          "duration": 0.09999999999999964,
          "durationTicks": 240,
          "midi": 65,
          "name": "F4",
          "ticks": 34590,
          "time": 14.412500000000001,
          "velocity": 1
        },
        {
          "duration": 0.09999999999999964,
          "durationTicks": 240,
          "midi": 72,
          "name": "C5",
          "ticks": 34590,
          "time": 14.412500000000001,
          "velocity": 1
        },
        {
          "duration": 0.09999999999999964,
          "durationTicks": 240,
          "midi": 65,
          "name": "F4",
          "ticks": 35070,
          "time": 14.6125,
          "velocity": 0.7401574803149606
        },
        {
          "duration": 0.09999999999999964,
          "durationTicks": 240,
          "midi": 72,
          "name": "C5",
          "ticks": 35070,
          "time": 14.6125,
          "velocity": 0.7401574803149606
        },
        {
          "duration": 0.09999999999999964,
          "durationTicks": 240,
          "midi": 77,
          "name": "F5",
          "ticks": 35070,
          "time": 14.6125,
          "velocity": 0.7401574803149606
        },
        {
          "duration": 0.09999999999999964,
          "durationTicks": 240,
          "midi": 77,
          "name": "F5",
          "ticks": 35310,
          "time": 14.7125,
          "velocity": 1
        },
        {
          "duration": 0.09999999999999964,
          "durationTicks": 240,
          "midi": 65,
          "name": "F4",
          "ticks": 35310,
          "time": 14.7125,
          "velocity": 1
        },
        {
          "duration": 0.09999999999999964,
          "durationTicks": 240,
          "midi": 72,
          "name": "C5",
          "ticks": 35310,
          "time": 14.7125,
          "velocity": 1
        },
        {
          "duration": 0.09999999999999964,
          "durationTicks": 240,
          "midi": 65,
          "name": "F4",
          "ticks": 35790,
          "time": 14.912500000000001,
          "velocity": 0.7401574803149606
        },
        {
          "duration": 0.09999999999999964,
          "durationTicks": 240,
          "midi": 72,
          "name": "C5",
          "ticks": 35790,
          "time": 14.912500000000001,
          "velocity": 0.7401574803149606
        },
        {
          "duration": 0.09999999999999964,
          "durationTicks": 240,
          "midi": 77,
          "name": "F5",
          "ticks": 35790,
          "time": 14.912500000000001,
          "velocity": 0.7401574803149606
        },
        {
          "duration": 0.09999999999999964,
          "durationTicks": 240,
          "midi": 77,
          "name": "F5",
          "ticks": 36030,
          "time": 15.012500000000001,
          "velocity": 1
        },
        {
          "duration": 0.09999999999999964,
          "durationTicks": 240,
          "midi": 65,
          "name": "F4",
          "ticks": 36030,
          "time": 15.012500000000001,
          "velocity": 1
        },
        {
          "duration": 0.09999999999999964,
          "durationTicks": 240,
          "midi": 72,
          "name": "C5",
          "ticks": 36030,
          "time": 15.012500000000001,
          "velocity": 1
        },
        {
          "duration": 0.09999999999999964,
          "durationTicks": 240,
          "midi": 65,
          "name": "F4",
          "ticks": 36510,
          "time": 15.2125,
          "velocity": 0.7401574803149606
        },
        {
          "duration": 0.09999999999999964,
          "durationTicks": 240,
          "midi": 72,
          "name": "C5",
          "ticks": 36510,
          "time": 15.2125,
          "velocity": 0.7401574803149606
        },
        {
          "duration": 0.09999999999999964,
          "durationTicks": 240,
          "midi": 77,
          "name": "F5",
          "ticks": 36510,
          "time": 15.2125,
          "velocity": 0.7401574803149606
        },
        {
          "duration": 0.10000000000000142,
          "durationTicks": 240,
          "midi": 77,
          "name": "F5",
          "ticks": 36750,
          "time": 15.3125,
          "velocity": 1
        },
        {
          "duration": 0.10000000000000142,
          "durationTicks": 240,
          "midi": 65,
          "name": "F4",
          "ticks": 36750,
          "time": 15.3125,
          "velocity": 1
        },
        {
          "duration": 0.10000000000000142,
          "durationTicks": 240,
          "midi": 72,
          "name": "C5",
          "ticks": 36750,
          "time": 15.3125,
          "velocity": 1
        },
        {
          "duration": 0.09999999999999964,
          "durationTicks": 240,
          "midi": 65,
          "name": "F4",
          "ticks": 37230,
          "time": 15.512500000000001,
          "velocity": 0.7401574803149606
        },
        {
          "duration": 0.09999999999999964,
          "durationTicks": 240,
          "midi": 72,
          "name": "C5",
          "ticks": 37230,
          "time": 15.512500000000001,
          "velocity": 0.7401574803149606
        },
        {
          "duration": 0.09999999999999964,
          "durationTicks": 240,
          "midi": 77,
          "name": "F5",
          "ticks": 37230,
          "time": 15.512500000000001,
          "velocity": 0.7401574803149606
        },
        {
          "duration": 0.09999999999999964,
          "durationTicks": 240,
          "midi": 77,
          "name": "F5",
          "ticks": 37470,
          "time": 15.6125,
          "velocity": 1
        },
        {
          "duration": 0.09999999999999964,
          "durationTicks": 240,
          "midi": 65,
          "name": "F4",
          "ticks": 37470,
          "time": 15.6125,
          "velocity": 1
        },
        {
          "duration": 0.09999999999999964,
          "durationTicks": 240,
          "midi": 72,
          "name": "C5",
          "ticks": 37470,
          "time": 15.6125,
          "velocity": 1
        },
        {
          "duration": 0.10000000000000142,
          "durationTicks": 240,
          "midi": 75,
          "name": "D#5",
          "ticks": 37950,
          "time": 15.8125,
          "velocity": 1
        },
        {
          "duration": 0.10000000000000142,
          "durationTicks": 240,
          "midi": 63,
          "name": "D#4",
          "ticks": 37950,
          "time": 15.8125,
          "velocity": 1
        },
        {
          "duration": 0.10000000000000142,
          "durationTicks": 240,
          "midi": 70,
          "name": "A#4",
          "ticks": 37950,
          "time": 15.8125,
          "velocity": 1
        },
        {
          "duration": 0.10000000000000142,
          "durationTicks": 240,
          "midi": 72,
          "name": "C5",
          "ticks": 38430,
          "time": 16.0125,
          "velocity": 1
        },
        {
          "duration": 0.10000000000000142,
          "durationTicks": 240,
          "midi": 65,
          "name": "F4",
          "ticks": 38430,
          "time": 16.0125,
          "velocity": 1
        },
        {
          "duration": 0.10000000000000142,
          "durationTicks": 240,
          "midi": 77,
          "name": "F5",
          "ticks": 38430,
          "time": 16.0125,
          "velocity": 1
        },
        {
          "duration": 0.09999999999999787,
          "durationTicks": 240,
          "midi": 65,
          "name": "F4",
          "ticks": 38910,
          "time": 16.212500000000002,
          "velocity": 0.7401574803149606
        },
        {
          "duration": 0.09999999999999787,
          "durationTicks": 240,
          "midi": 72,
          "name": "C5",
          "ticks": 38910,
          "time": 16.212500000000002,
          "velocity": 0.7401574803149606
        },
        {
          "duration": 0.09999999999999787,
          "durationTicks": 240,
          "midi": 77,
          "name": "F5",
          "ticks": 38910,
          "time": 16.212500000000002,
          "velocity": 0.7401574803149606
        },
        {
          "duration": 0.10000000000000142,
          "durationTicks": 240,
          "midi": 72,
          "name": "C5",
          "ticks": 39150,
          "time": 16.3125,
          "velocity": 1
        },
        {
          "duration": 0.10000000000000142,
          "durationTicks": 240,
          "midi": 65,
          "name": "F4",
          "ticks": 39150,
          "time": 16.3125,
          "velocity": 1
        },
        {
          "duration": 0.10000000000000142,
          "durationTicks": 240,
          "midi": 77,
          "name": "F5",
          "ticks": 39150,
          "time": 16.3125,
          "velocity": 1
        },
        {
          "duration": 0.10000000000000142,
          "durationTicks": 240,
          "midi": 65,
          "name": "F4",
          "ticks": 39630,
          "time": 16.5125,
          "velocity": 0.7401574803149606
        },
        {
          "duration": 0.10000000000000142,
          "durationTicks": 240,
          "midi": 72,
          "name": "C5",
          "ticks": 39630,
          "time": 16.5125,
          "velocity": 0.7401574803149606
        },
        {
          "duration": 0.10000000000000142,
          "durationTicks": 240,
          "midi": 77,
          "name": "F5",
          "ticks": 39630,
          "time": 16.5125,
          "velocity": 0.7401574803149606
        },
        {
          "duration": 0.10000000000000142,
          "durationTicks": 240,
          "midi": 72,
          "name": "C5",
          "ticks": 39870,
          "time": 16.6125,
          "velocity": 1
        },
        {
          "duration": 0.10000000000000142,
          "durationTicks": 240,
          "midi": 65,
          "name": "F4",
          "ticks": 39870,
          "time": 16.6125,
          "velocity": 1
        },
        {
          "duration": 0.10000000000000142,
          "durationTicks": 240,
          "midi": 77,
          "name": "F5",
          "ticks": 39870,
          "time": 16.6125,
          "velocity": 1
        },
        {
          "duration": 0.10000000000000142,
          "durationTicks": 240,
          "midi": 65,
          "name": "F4",
          "ticks": 40350,
          "time": 16.8125,
          "velocity": 0.7401574803149606
        },
        {
          "duration": 0.10000000000000142,
          "durationTicks": 240,
          "midi": 72,
          "name": "C5",
          "ticks": 40350,
          "time": 16.8125,
          "velocity": 0.7401574803149606
        },
        {
          "duration": 0.10000000000000142,
          "durationTicks": 240,
          "midi": 77,
          "name": "F5",
          "ticks": 40350,
          "time": 16.8125,
          "velocity": 0.7401574803149606
        },
        {
          "duration": 0.09999999999999787,
          "durationTicks": 240,
          "midi": 72,
          "name": "C5",
          "ticks": 40590,
          "time": 16.9125,
          "velocity": 1
        },
        {
          "duration": 0.09999999999999787,
          "durationTicks": 240,
          "midi": 65,
          "name": "F4",
          "ticks": 40590,
          "time": 16.9125,
          "velocity": 1
        },
        {
          "duration": 0.09999999999999787,
          "durationTicks": 240,
          "midi": 77,
          "name": "F5",
          "ticks": 40590,
          "time": 16.9125,
          "velocity": 1
        },
        {
          "duration": 0.10000000000000142,
          "durationTicks": 240,
          "midi": 65,
          "name": "F4",
          "ticks": 41070,
          "time": 17.1125,
          "velocity": 0.7401574803149606
        },
        {
          "duration": 0.10000000000000142,
          "durationTicks": 240,
          "midi": 72,
          "name": "C5",
          "ticks": 41070,
          "time": 17.1125,
          "velocity": 0.7401574803149606
        },
        {
          "duration": 0.10000000000000142,
          "durationTicks": 240,
          "midi": 77,
          "name": "F5",
          "ticks": 41070,
          "time": 17.1125,
          "velocity": 0.7401574803149606
        },
        {
          "duration": 0.09999999999999787,
          "durationTicks": 240,
          "midi": 72,
          "name": "C5",
          "ticks": 41310,
          "time": 17.212500000000002,
          "velocity": 1
        },
        {
          "duration": 0.09999999999999787,
          "durationTicks": 240,
          "midi": 65,
          "name": "F4",
          "ticks": 41310,
          "time": 17.212500000000002,
          "velocity": 1
        },
        {
          "duration": 0.09999999999999787,
          "durationTicks": 240,
          "midi": 77,
          "name": "F5",
          "ticks": 41310,
          "time": 17.212500000000002,
          "velocity": 1
        },
        {
          "duration": 0.09999999999999787,
          "durationTicks": 240,
          "midi": 73,
          "name": "C#5",
          "ticks": 41790,
          "time": 17.4125,
          "velocity": 1
        },
        {
          "duration": 0.09999999999999787,
          "durationTicks": 240,
          "midi": 66,
          "name": "F#4",
          "ticks": 41790,
          "time": 17.4125,
          "velocity": 1
        },
        {
          "duration": 0.09999999999999787,
          "durationTicks": 240,
          "midi": 78,
          "name": "F#5",
          "ticks": 41790,
          "time": 17.4125,
          "velocity": 1
        },
        {
          "duration": 0.10000000000000142,
          "durationTicks": 240,
          "midi": 77,
          "name": "F5",
          "ticks": 42270,
          "time": 17.6125,
          "velocity": 1
        },
        {
          "duration": 0.10000000000000142,
          "durationTicks": 240,
          "midi": 65,
          "name": "F4",
          "ticks": 42270,
          "time": 17.6125,
          "velocity": 1
        },
        {
          "duration": 0.10000000000000142,
          "durationTicks": 240,
          "midi": 72,
          "name": "C5",
          "ticks": 42270,
          "time": 17.6125,
          "velocity": 1
        },
        {
          "duration": 0.10000000000000142,
          "durationTicks": 240,
          "midi": 65,
          "name": "F4",
          "ticks": 42750,
          "time": 17.8125,
          "velocity": 0.7401574803149606
        },
        {
          "duration": 0.10000000000000142,
          "durationTicks": 240,
          "midi": 72,
          "name": "C5",
          "ticks": 42750,
          "time": 17.8125,
          "velocity": 0.7401574803149606
        },
        {
          "duration": 0.10000000000000142,
          "durationTicks": 240,
          "midi": 77,
          "name": "F5",
          "ticks": 42750,
          "time": 17.8125,
          "velocity": 0.7401574803149606
        },
        {
          "duration": 0.09999999999999787,
          "durationTicks": 240,
          "midi": 77,
          "name": "F5",
          "ticks": 42990,
          "time": 17.9125,
          "velocity": 1
        },
        {
          "duration": 0.09999999999999787,
          "durationTicks": 240,
          "midi": 65,
          "name": "F4",
          "ticks": 42990,
          "time": 17.9125,
          "velocity": 1
        },
        {
          "duration": 0.09999999999999787,
          "durationTicks": 240,
          "midi": 72,
          "name": "C5",
          "ticks": 42990,
          "time": 17.9125,
          "velocity": 1
        },
        {
          "duration": 0.10000000000000142,
          "durationTicks": 240,
          "midi": 65,
          "name": "F4",
          "ticks": 43470,
          "time": 18.1125,
          "velocity": 0.7401574803149606
        },
        {
          "duration": 0.10000000000000142,
          "durationTicks": 240,
          "midi": 72,
          "name": "C5",
          "ticks": 43470,
          "time": 18.1125,
          "velocity": 0.7401574803149606
        },
        {
          "duration": 0.10000000000000142,
          "durationTicks": 240,
          "midi": 77,
          "name": "F5",
          "ticks": 43470,
          "time": 18.1125,
          "velocity": 0.7401574803149606
        },
        {
          "duration": 0.09999999999999787,
          "durationTicks": 240,
          "midi": 77,
          "name": "F5",
          "ticks": 43710,
          "time": 18.212500000000002,
          "velocity": 1
        },
        {
          "duration": 0.09999999999999787,
          "durationTicks": 240,
          "midi": 65,
          "name": "F4",
          "ticks": 43710,
          "time": 18.212500000000002,
          "velocity": 1
        },
        {
          "duration": 0.09999999999999787,
          "durationTicks": 240,
          "midi": 72,
          "name": "C5",
          "ticks": 43710,
          "time": 18.212500000000002,
          "velocity": 1
        },
        {
          "duration": 0.09999999999999787,
          "durationTicks": 240,
          "midi": 65,
          "name": "F4",
          "ticks": 44190,
          "time": 18.4125,
          "velocity": 0.7401574803149606
        },
        {
          "duration": 0.09999999999999787,
          "durationTicks": 240,
          "midi": 72,
          "name": "C5",
          "ticks": 44190,
          "time": 18.4125,
          "velocity": 0.7401574803149606
        },
        {
          "duration": 0.09999999999999787,
          "durationTicks": 240,
          "midi": 77,
          "name": "F5",
          "ticks": 44190,
          "time": 18.4125,
          "velocity": 0.7401574803149606
        },
        {
          "duration": 0.10000000000000142,
          "durationTicks": 240,
          "midi": 77,
          "name": "F5",
          "ticks": 44430,
          "time": 18.5125,
          "velocity": 1
        },
        {
          "duration": 0.10000000000000142,
          "durationTicks": 240,
          "midi": 65,
          "name": "F4",
          "ticks": 44430,
          "time": 18.5125,
          "velocity": 1
        },
        {
          "duration": 0.10000000000000142,
          "durationTicks": 240,
          "midi": 72,
          "name": "C5",
          "ticks": 44430,
          "time": 18.5125,
          "velocity": 1
        },
        {
          "duration": 0.09999999999999787,
          "durationTicks": 240,
          "midi": 65,
          "name": "F4",
          "ticks": 44910,
          "time": 18.712500000000002,
          "velocity": 0.7401574803149606
        },
        {
          "duration": 0.09999999999999787,
          "durationTicks": 240,
          "midi": 72,
          "name": "C5",
          "ticks": 44910,
          "time": 18.712500000000002,
          "velocity": 0.7401574803149606
        },
        {
          "duration": 0.09999999999999787,
          "durationTicks": 240,
          "midi": 77,
          "name": "F5",
          "ticks": 44910,
          "time": 18.712500000000002,
          "velocity": 0.7401574803149606
        },
        {
          "duration": 0.10000000000000142,
          "durationTicks": 240,
          "midi": 77,
          "name": "F5",
          "ticks": 45150,
          "time": 18.8125,
          "velocity": 1
        },
        {
          "duration": 0.10000000000000142,
          "durationTicks": 240,
          "midi": 65,
          "name": "F4",
          "ticks": 45150,
          "time": 18.8125,
          "velocity": 1
        },
        {
          "duration": 0.10000000000000142,
          "durationTicks": 240,
          "midi": 72,
          "name": "C5",
          "ticks": 45150,
          "time": 18.8125,
          "velocity": 1
        },
        {
          "duration": 0.10000000000000142,
          "durationTicks": 240,
          "midi": 75,
          "name": "D#5",
          "ticks": 45630,
          "time": 19.0125,
          "velocity": 1
        },
        {
          "duration": 0.10000000000000142,
          "durationTicks": 240,
          "midi": 63,
          "name": "D#4",
          "ticks": 45630,
          "time": 19.0125,
          "velocity": 1
        },
        {
          "duration": 0.10000000000000142,
          "durationTicks": 240,
          "midi": 70,
          "name": "A#4",
          "ticks": 45630,
          "time": 19.0125,
          "velocity": 1
        },
        {
          "duration": 0.09999999999999787,
          "durationTicks": 240,
          "midi": 72,
          "name": "C5",
          "ticks": 46110,
          "time": 19.212500000000002,
          "velocity": 1
        },
        {
          "duration": 0.09999999999999787,
          "durationTicks": 240,
          "midi": 65,
          "name": "F4",
          "ticks": 46110,
          "time": 19.212500000000002,
          "velocity": 1
        },
        {
          "duration": 0.09999999999999787,
          "durationTicks": 240,
          "midi": 77,
          "name": "F5",
          "ticks": 46110,
          "time": 19.212500000000002,
          "velocity": 1
        },
        {
          "duration": 0.10000000000000142,
          "durationTicks": 240,
          "midi": 65,
          "name": "F4",
          "ticks": 46590,
          "time": 19.4125,
          "velocity": 0.7401574803149606
        },
        {
          "duration": 0.10000000000000142,
          "durationTicks": 240,
          "midi": 72,
          "name": "C5",
          "ticks": 46590,
          "time": 19.4125,
          "velocity": 0.7401574803149606
        },
        {
          "duration": 0.10000000000000142,
          "durationTicks": 240,
          "midi": 77,
          "name": "F5",
          "ticks": 46590,
          "time": 19.4125,
          "velocity": 0.7401574803149606
        },
        {
          "duration": 0.09999999999999787,
          "durationTicks": 240,
          "midi": 72,
          "name": "C5",
          "ticks": 46830,
          "time": 19.512500000000003,
          "velocity": 1
        },
        {
          "duration": 0.09999999999999787,
          "durationTicks": 240,
          "midi": 65,
          "name": "F4",
          "ticks": 46830,
          "time": 19.512500000000003,
          "velocity": 1
        },
        {
          "duration": 0.09999999999999787,
          "durationTicks": 240,
          "midi": 77,
          "name": "F5",
          "ticks": 46830,
          "time": 19.512500000000003,
          "velocity": 1
        },
        {
          "duration": 0.09999999999999787,
          "durationTicks": 240,
          "midi": 65,
          "name": "F4",
          "ticks": 47310,
          "time": 19.712500000000002,
          "velocity": 0.7401574803149606
        },
        {
          "duration": 0.09999999999999787,
          "durationTicks": 240,
          "midi": 72,
          "name": "C5",
          "ticks": 47310,
          "time": 19.712500000000002,
          "velocity": 0.7401574803149606
        },
        {
          "duration": 0.09999999999999787,
          "durationTicks": 240,
          "midi": 77,
          "name": "F5",
          "ticks": 47310,
          "time": 19.712500000000002,
          "velocity": 0.7401574803149606
        },
        {
          "duration": 0.10000000000000142,
          "durationTicks": 240,
          "midi": 72,
          "name": "C5",
          "ticks": 47550,
          "time": 19.8125,
          "velocity": 1
        },
        {
          "duration": 0.10000000000000142,
          "durationTicks": 240,
          "midi": 65,
          "name": "F4",
          "ticks": 47550,
          "time": 19.8125,
          "velocity": 1
        },
        {
          "duration": 0.10000000000000142,
          "durationTicks": 240,
          "midi": 77,
          "name": "F5",
          "ticks": 47550,
          "time": 19.8125,
          "velocity": 1
        },
        {
          "duration": 0.09999999999999787,
          "durationTicks": 240,
          "midi": 65,
          "name": "F4",
          "ticks": 48030,
          "time": 20.012500000000003,
          "velocity": 0.7401574803149606
        },
        {
          "duration": 0.09999999999999787,
          "durationTicks": 240,
          "midi": 72,
          "name": "C5",
          "ticks": 48030,
          "time": 20.012500000000003,
          "velocity": 0.7401574803149606
        },
        {
          "duration": 0.09999999999999787,
          "durationTicks": 240,
          "midi": 77,
          "name": "F5",
          "ticks": 48030,
          "time": 20.012500000000003,
          "velocity": 0.7401574803149606
        },
        {
          "duration": 0.10000000000000142,
          "durationTicks": 240,
          "midi": 72,
          "name": "C5",
          "ticks": 48270,
          "time": 20.1125,
          "velocity": 1
        },
        {
          "duration": 0.10000000000000142,
          "durationTicks": 240,
          "midi": 65,
          "name": "F4",
          "ticks": 48270,
          "time": 20.1125,
          "velocity": 1
        },
        {
          "duration": 0.10000000000000142,
          "durationTicks": 240,
          "midi": 77,
          "name": "F5",
          "ticks": 48270,
          "time": 20.1125,
          "velocity": 1
        },
        {
          "duration": 0.10000000000000142,
          "durationTicks": 240,
          "midi": 65,
          "name": "F4",
          "ticks": 48750,
          "time": 20.3125,
          "velocity": 0.7401574803149606
        },
        {
          "duration": 0.10000000000000142,
          "durationTicks": 240,
          "midi": 72,
          "name": "C5",
          "ticks": 48750,
          "time": 20.3125,
          "velocity": 0.7401574803149606
        },
        {
          "duration": 0.10000000000000142,
          "durationTicks": 240,
          "midi": 77,
          "name": "F5",
          "ticks": 48750,
          "time": 20.3125,
          "velocity": 0.7401574803149606
        },
        {
          "duration": 0.10000000000000142,
          "durationTicks": 240,
          "midi": 72,
          "name": "C5",
          "ticks": 48990,
          "time": 20.4125,
          "velocity": 1
        },
        {
          "duration": 0.10000000000000142,
          "durationTicks": 240,
          "midi": 65,
          "name": "F4",
          "ticks": 48990,
          "time": 20.4125,
          "velocity": 1
        },
        {
          "duration": 0.10000000000000142,
          "durationTicks": 240,
          "midi": 77,
          "name": "F5",
          "ticks": 48990,
          "time": 20.4125,
          "velocity": 1
        },
        {
          "duration": 0.10000000000000142,
          "durationTicks": 240,
          "midi": 73,
          "name": "C#5",
          "ticks": 49470,
          "time": 20.6125,
          "velocity": 1
        },
        {
          "duration": 0.10000000000000142,
          "durationTicks": 240,
          "midi": 66,
          "name": "F#4",
          "ticks": 49470,
          "time": 20.6125,
          "velocity": 1
        },
        {
          "duration": 0.10000000000000142,
          "durationTicks": 240,
          "midi": 78,
          "name": "F#5",
          "ticks": 49470,
          "time": 20.6125,
          "velocity": 1
        },
        {
          "duration": 0.10000000000000142,
          "durationTicks": 240,
          "midi": 77,
          "name": "F5",
          "ticks": 49950,
          "time": 20.8125,
          "velocity": 1
        },
        {
          "duration": 0.10000000000000142,
          "durationTicks": 240,
          "midi": 65,
          "name": "F4",
          "ticks": 49950,
          "time": 20.8125,
          "velocity": 1
        },
        {
          "duration": 0.10000000000000142,
          "durationTicks": 240,
          "midi": 72,
          "name": "C5",
          "ticks": 49950,
          "time": 20.8125,
          "velocity": 1
        },
        {
          "duration": 0.09999999999999787,
          "durationTicks": 240,
          "midi": 65,
          "name": "F4",
          "ticks": 50430,
          "time": 21.012500000000003,
          "velocity": 0.7401574803149606
        },
        {
          "duration": 0.09999999999999787,
          "durationTicks": 240,
          "midi": 72,
          "name": "C5",
          "ticks": 50430,
          "time": 21.012500000000003,
          "velocity": 0.7401574803149606
        },
        {
          "duration": 0.09999999999999787,
          "durationTicks": 240,
          "midi": 77,
          "name": "F5",
          "ticks": 50430,
          "time": 21.012500000000003,
          "velocity": 0.7401574803149606
        },
        {
          "duration": 0.10000000000000142,
          "durationTicks": 240,
          "midi": 77,
          "name": "F5",
          "ticks": 50670,
          "time": 21.1125,
          "velocity": 1
        },
        {
          "duration": 0.10000000000000142,
          "durationTicks": 240,
          "midi": 65,
          "name": "F4",
          "ticks": 50670,
          "time": 21.1125,
          "velocity": 1
        },
        {
          "duration": 0.10000000000000142,
          "durationTicks": 240,
          "midi": 72,
          "name": "C5",
          "ticks": 50670,
          "time": 21.1125,
          "velocity": 1
        },
        {
          "duration": 0.10000000000000142,
          "durationTicks": 240,
          "midi": 65,
          "name": "F4",
          "ticks": 51150,
          "time": 21.3125,
          "velocity": 0.7401574803149606
        },
        {
          "duration": 0.10000000000000142,
          "durationTicks": 240,
          "midi": 72,
          "name": "C5",
          "ticks": 51150,
          "time": 21.3125,
          "velocity": 0.7401574803149606
        },
        {
          "duration": 0.10000000000000142,
          "durationTicks": 240,
          "midi": 77,
          "name": "F5",
          "ticks": 51150,
          "time": 21.3125,
          "velocity": 0.7401574803149606
        },
        {
          "duration": 0.10000000000000142,
          "durationTicks": 240,
          "midi": 77,
          "name": "F5",
          "ticks": 51390,
          "time": 21.4125,
          "velocity": 1
        },
        {
          "duration": 0.10000000000000142,
          "durationTicks": 240,
          "midi": 65,
          "name": "F4",
          "ticks": 51390,
          "time": 21.4125,
          "velocity": 1
        },
        {
          "duration": 0.10000000000000142,
          "durationTicks": 240,
          "midi": 72,
          "name": "C5",
          "ticks": 51390,
          "time": 21.4125,
          "velocity": 1
        },
        {
          "duration": 0.10000000000000142,
          "durationTicks": 240,
          "midi": 65,
          "name": "F4",
          "ticks": 51870,
          "time": 21.6125,
          "velocity": 0.7401574803149606
        },
        {
          "duration": 0.10000000000000142,
          "durationTicks": 240,
          "midi": 72,
          "name": "C5",
          "ticks": 51870,
          "time": 21.6125,
          "velocity": 0.7401574803149606
        },
        {
          "duration": 0.10000000000000142,
          "durationTicks": 240,
          "midi": 77,
          "name": "F5",
          "ticks": 51870,
          "time": 21.6125,
          "velocity": 0.7401574803149606
        },
        {
          "duration": 0.09999999999999787,
          "durationTicks": 240,
          "midi": 77,
          "name": "F5",
          "ticks": 52110,
          "time": 21.712500000000002,
          "velocity": 1
        },
        {
          "duration": 0.09999999999999787,
          "durationTicks": 240,
          "midi": 65,
          "name": "F4",
          "ticks": 52110,
          "time": 21.712500000000002,
          "velocity": 1
        },
        {
          "duration": 0.09999999999999787,
          "durationTicks": 240,
          "midi": 72,
          "name": "C5",
          "ticks": 52110,
          "time": 21.712500000000002,
          "velocity": 1
        },
        {
          "duration": 0.10000000000000142,
          "durationTicks": 240,
          "midi": 65,
          "name": "F4",
          "ticks": 52590,
          "time": 21.9125,
          "velocity": 0.7401574803149606
        },
        {
          "duration": 0.10000000000000142,
          "durationTicks": 240,
          "midi": 72,
          "name": "C5",
          "ticks": 52590,
          "time": 21.9125,
          "velocity": 0.7401574803149606
        },
        {
          "duration": 0.10000000000000142,
          "durationTicks": 240,
          "midi": 77,
          "name": "F5",
          "ticks": 52590,
          "time": 21.9125,
          "velocity": 0.7401574803149606
        },
        {
          "duration": 0.09999999999999787,
          "durationTicks": 240,
          "midi": 77,
          "name": "F5",
          "ticks": 52830,
          "time": 22.012500000000003,
          "velocity": 1
        },
        {
          "duration": 0.09999999999999787,
          "durationTicks": 240,
          "midi": 65,
          "name": "F4",
          "ticks": 52830,
          "time": 22.012500000000003,
          "velocity": 1
        },
        {
          "duration": 0.09999999999999787,
          "durationTicks": 240,
          "midi": 72,
          "name": "C5",
          "ticks": 52830,
          "time": 22.012500000000003,
          "velocity": 1
        },
        {
          "duration": 0.09999999999999787,
          "durationTicks": 240,
          "midi": 75,
          "name": "D#5",
          "ticks": 53310,
          "time": 22.212500000000002,
          "velocity": 1
        },
        {
          "duration": 0.09999999999999787,
          "durationTicks": 240,
          "midi": 63,
          "name": "D#4",
          "ticks": 53310,
          "time": 22.212500000000002,
          "velocity": 1
        },
        {
          "duration": 0.09999999999999787,
          "durationTicks": 240,
          "midi": 70,
          "name": "A#4",
          "ticks": 53310,
          "time": 22.212500000000002,
          "velocity": 1
        },
        {
          "duration": 0.10000000000000142,
          "durationTicks": 240,
          "midi": 72,
          "name": "C5",
          "ticks": 53790,
          "time": 22.4125,
          "velocity": 1
        },
        {
          "duration": 0.10000000000000142,
          "durationTicks": 240,
          "midi": 65,
          "name": "F4",
          "ticks": 53790,
          "time": 22.4125,
          "velocity": 1
        },
        {
          "duration": 0.10000000000000142,
          "durationTicks": 240,
          "midi": 77,
          "name": "F5",
          "ticks": 53790,
          "time": 22.4125,
          "velocity": 1
        },
        {
          "duration": 0.10000000000000142,
          "durationTicks": 240,
          "midi": 65,
          "name": "F4",
          "ticks": 54270,
          "time": 22.6125,
          "velocity": 0.7401574803149606
        },
        {
          "duration": 0.10000000000000142,
          "durationTicks": 240,
          "midi": 72,
          "name": "C5",
          "ticks": 54270,
          "time": 22.6125,
          "velocity": 0.7401574803149606
        },
        {
          "duration": 0.10000000000000142,
          "durationTicks": 240,
          "midi": 77,
          "name": "F5",
          "ticks": 54270,
          "time": 22.6125,
          "velocity": 0.7401574803149606
        },
        {
          "duration": 0.09999999999999787,
          "durationTicks": 240,
          "midi": 72,
          "name": "C5",
          "ticks": 54510,
          "time": 22.712500000000002,
          "velocity": 1
        },
        {
          "duration": 0.09999999999999787,
          "durationTicks": 240,
          "midi": 65,
          "name": "F4",
          "ticks": 54510,
          "time": 22.712500000000002,
          "velocity": 1
        },
        {
          "duration": 0.09999999999999787,
          "durationTicks": 240,
          "midi": 77,
          "name": "F5",
          "ticks": 54510,
          "time": 22.712500000000002,
          "velocity": 1
        },
        {
          "duration": 0.10000000000000142,
          "durationTicks": 240,
          "midi": 65,
          "name": "F4",
          "ticks": 54990,
          "time": 22.9125,
          "velocity": 0.7401574803149606
        },
        {
          "duration": 0.10000000000000142,
          "durationTicks": 240,
          "midi": 72,
          "name": "C5",
          "ticks": 54990,
          "time": 22.9125,
          "velocity": 0.7401574803149606
        },
        {
          "duration": 0.10000000000000142,
          "durationTicks": 240,
          "midi": 77,
          "name": "F5",
          "ticks": 54990,
          "time": 22.9125,
          "velocity": 0.7401574803149606
        },
        {
          "duration": 0.09999999999999787,
          "durationTicks": 240,
          "midi": 72,
          "name": "C5",
          "ticks": 55230,
          "time": 23.012500000000003,
          "velocity": 1
        },
        {
          "duration": 0.09999999999999787,
          "durationTicks": 240,
          "midi": 65,
          "name": "F4",
          "ticks": 55230,
          "time": 23.012500000000003,
          "velocity": 1
        },
        {
          "duration": 0.09999999999999787,
          "durationTicks": 240,
          "midi": 77,
          "name": "F5",
          "ticks": 55230,
          "time": 23.012500000000003,
          "velocity": 1
        },
        {
          "duration": 0.09999999999999787,
          "durationTicks": 240,
          "midi": 65,
          "name": "F4",
          "ticks": 55710,
          "time": 23.212500000000002,
          "velocity": 0.7401574803149606
        },
        {
          "duration": 0.09999999999999787,
          "durationTicks": 240,
          "midi": 72,
          "name": "C5",
          "ticks": 55710,
          "time": 23.212500000000002,
          "velocity": 0.7401574803149606
        },
        {
          "duration": 0.09999999999999787,
          "durationTicks": 240,
          "midi": 77,
          "name": "F5",
          "ticks": 55710,
          "time": 23.212500000000002,
          "velocity": 0.7401574803149606
        },
        {
          "duration": 0.10000000000000142,
          "durationTicks": 240,
          "midi": 72,
          "name": "C5",
          "ticks": 55950,
          "time": 23.3125,
          "velocity": 1
        },
        {
          "duration": 0.10000000000000142,
          "durationTicks": 240,
          "midi": 65,
          "name": "F4",
          "ticks": 55950,
          "time": 23.3125,
          "velocity": 1
        },
        {
          "duration": 0.10000000000000142,
          "durationTicks": 240,
          "midi": 77,
          "name": "F5",
          "ticks": 55950,
          "time": 23.3125,
          "velocity": 1
        },
        {
          "duration": 0.09999999999999787,
          "durationTicks": 240,
          "midi": 65,
          "name": "F4",
          "ticks": 56430,
          "time": 23.512500000000003,
          "velocity": 0.7401574803149606
        },
        {
          "duration": 0.09999999999999787,
          "durationTicks": 240,
          "midi": 72,
          "name": "C5",
          "ticks": 56430,
          "time": 23.512500000000003,
          "velocity": 0.7401574803149606
        },
        {
          "duration": 0.09999999999999787,
          "durationTicks": 240,
          "midi": 77,
          "name": "F5",
          "ticks": 56430,
          "time": 23.512500000000003,
          "velocity": 0.7401574803149606
        },
        {
          "duration": 0.10000000000000142,
          "durationTicks": 240,
          "midi": 72,
          "name": "C5",
          "ticks": 56670,
          "time": 23.6125,
          "velocity": 1
        },
        {
          "duration": 0.10000000000000142,
          "durationTicks": 240,
          "midi": 65,
          "name": "F4",
          "ticks": 56670,
          "time": 23.6125,
          "velocity": 1
        },
        {
          "duration": 0.10000000000000142,
          "durationTicks": 240,
          "midi": 77,
          "name": "F5",
          "ticks": 56670,
          "time": 23.6125,
          "velocity": 1
        },
        {
          "duration": 0.10000000000000142,
          "durationTicks": 240,
          "midi": 73,
          "name": "C#5",
          "ticks": 57150,
          "time": 23.8125,
          "velocity": 1
        },
        {
          "duration": 0.10000000000000142,
          "durationTicks": 240,
          "midi": 66,
          "name": "F#4",
          "ticks": 57150,
          "time": 23.8125,
          "velocity": 1
        },
        {
          "duration": 0.10000000000000142,
          "durationTicks": 240,
          "midi": 78,
          "name": "F#5",
          "ticks": 57150,
          "time": 23.8125,
          "velocity": 1
        },
        {
          "duration": 0.09999999999999787,
          "durationTicks": 240,
          "midi": 77,
          "name": "F5",
          "ticks": 57630,
          "time": 24.012500000000003,
          "velocity": 1
        },
        {
          "duration": 0.09999999999999787,
          "durationTicks": 240,
          "midi": 65,
          "name": "F4",
          "ticks": 57630,
          "time": 24.012500000000003,
          "velocity": 1
        },
        {
          "duration": 0.09999999999999787,
          "durationTicks": 240,
          "midi": 72,
          "name": "C5",
          "ticks": 57630,
          "time": 24.012500000000003,
          "velocity": 1
        },
        {
          "duration": 0.09999999999999787,
          "durationTicks": 240,
          "midi": 65,
          "name": "F4",
          "ticks": 58110,
          "time": 24.212500000000002,
          "velocity": 0.7401574803149606
        },
        {
          "duration": 0.09999999999999787,
          "durationTicks": 240,
          "midi": 72,
          "name": "C5",
          "ticks": 58110,
          "time": 24.212500000000002,
          "velocity": 0.7401574803149606
        },
        {
          "duration": 0.09999999999999787,
          "durationTicks": 240,
          "midi": 77,
          "name": "F5",
          "ticks": 58110,
          "time": 24.212500000000002,
          "velocity": 0.7401574803149606
        },
        {
          "duration": 0.10000000000000142,
          "durationTicks": 240,
          "midi": 77,
          "name": "F5",
          "ticks": 58350,
          "time": 24.3125,
          "velocity": 1
        },
        {
          "duration": 0.10000000000000142,
          "durationTicks": 240,
          "midi": 65,
          "name": "F4",
          "ticks": 58350,
          "time": 24.3125,
          "velocity": 1
        },
        {
          "duration": 0.10000000000000142,
          "durationTicks": 240,
          "midi": 72,
          "name": "C5",
          "ticks": 58350,
          "time": 24.3125,
          "velocity": 1
        },
        {
          "duration": 0.09999999999999787,
          "durationTicks": 240,
          "midi": 65,
          "name": "F4",
          "ticks": 58830,
          "time": 24.512500000000003,
          "velocity": 0.7401574803149606
        },
        {
          "duration": 0.09999999999999787,
          "durationTicks": 240,
          "midi": 72,
          "name": "C5",
          "ticks": 58830,
          "time": 24.512500000000003,
          "velocity": 0.7401574803149606
        },
        {
          "duration": 0.09999999999999787,
          "durationTicks": 240,
          "midi": 77,
          "name": "F5",
          "ticks": 58830,
          "time": 24.512500000000003,
          "velocity": 0.7401574803149606
        },
        {
          "duration": 0.10000000000000142,
          "durationTicks": 240,
          "midi": 77,
          "name": "F5",
          "ticks": 59070,
          "time": 24.6125,
          "velocity": 1
        },
        {
          "duration": 0.10000000000000142,
          "durationTicks": 240,
          "midi": 65,
          "name": "F4",
          "ticks": 59070,
          "time": 24.6125,
          "velocity": 1
        },
        {
          "duration": 0.10000000000000142,
          "durationTicks": 240,
          "midi": 72,
          "name": "C5",
          "ticks": 59070,
          "time": 24.6125,
          "velocity": 1
        },
        {
          "duration": 0.10000000000000142,
          "durationTicks": 240,
          "midi": 65,
          "name": "F4",
          "ticks": 59550,
          "time": 24.8125,
          "velocity": 0.7401574803149606
        },
        {
          "duration": 0.10000000000000142,
          "durationTicks": 240,
          "midi": 72,
          "name": "C5",
          "ticks": 59550,
          "time": 24.8125,
          "velocity": 0.7401574803149606
        },
        {
          "duration": 0.10000000000000142,
          "durationTicks": 240,
          "midi": 77,
          "name": "F5",
          "ticks": 59550,
          "time": 24.8125,
          "velocity": 0.7401574803149606
        },
        {
          "duration": 0.10000000000000142,
          "durationTicks": 240,
          "midi": 77,
          "name": "F5",
          "ticks": 59790,
          "time": 24.9125,
          "velocity": 1
        },
        {
          "duration": 0.10000000000000142,
          "durationTicks": 240,
          "midi": 65,
          "name": "F4",
          "ticks": 59790,
          "time": 24.9125,
          "velocity": 1
        },
        {
          "duration": 0.10000000000000142,
          "durationTicks": 240,
          "midi": 72,
          "name": "C5",
          "ticks": 59790,
          "time": 24.9125,
          "velocity": 1
        },
        {
          "duration": 0.10000000000000142,
          "durationTicks": 240,
          "midi": 65,
          "name": "F4",
          "ticks": 60270,
          "time": 25.1125,
          "velocity": 0.7401574803149606
        },
        {
          "duration": 0.10000000000000142,
          "durationTicks": 240,
          "midi": 72,
          "name": "C5",
          "ticks": 60270,
          "time": 25.1125,
          "velocity": 0.7401574803149606
        },
        {
          "duration": 0.10000000000000142,
          "durationTicks": 240,
          "midi": 77,
          "name": "F5",
          "ticks": 60270,
          "time": 25.1125,
          "velocity": 0.7401574803149606
        },
        {
          "duration": 0.09999999999999787,
          "durationTicks": 240,
          "midi": 77,
          "name": "F5",
          "ticks": 60510,
          "time": 25.212500000000002,
          "velocity": 1
        },
        {
          "duration": 0.09999999999999787,
          "durationTicks": 240,
          "midi": 65,
          "name": "F4",
          "ticks": 60510,
          "time": 25.212500000000002,
          "velocity": 1
        },
        {
          "duration": 0.09999999999999787,
          "durationTicks": 240,
          "midi": 72,
          "name": "C5",
          "ticks": 60510,
          "time": 25.212500000000002,
          "velocity": 1
        },
        {
          "duration": 0.10000000000000142,
          "durationTicks": 240,
          "midi": 75,
          "name": "D#5",
          "ticks": 60990,
          "time": 25.4125,
          "velocity": 1
        },
        {
          "duration": 0.10000000000000142,
          "durationTicks": 240,
          "midi": 63,
          "name": "D#4",
          "ticks": 60990,
          "time": 25.4125,
          "velocity": 1
        },
        {
          "duration": 0.10000000000000142,
          "durationTicks": 240,
          "midi": 70,
          "name": "A#4",
          "ticks": 60990,
          "time": 25.4125,
          "velocity": 1
        },
        {
          "duration": 0.10000000000000142,
          "durationTicks": 240,
          "midi": 72,
          "name": "C5",
          "ticks": 61470,
          "time": 25.6125,
          "velocity": 1
        },
        {
          "duration": 0.10000000000000142,
          "durationTicks": 240,
          "midi": 65,
          "name": "F4",
          "ticks": 61470,
          "time": 25.6125,
          "velocity": 1
        },
        {
          "duration": 0.10000000000000142,
          "durationTicks": 240,
          "midi": 77,
          "name": "F5",
          "ticks": 61470,
          "time": 25.6125,
          "velocity": 1
        },
        {
          "duration": 0.10000000000000142,
          "durationTicks": 240,
          "midi": 65,
          "name": "F4",
          "ticks": 61950,
          "time": 25.8125,
          "velocity": 0.7401574803149606
        },
        {
          "duration": 0.10000000000000142,
          "durationTicks": 240,
          "midi": 72,
          "name": "C5",
          "ticks": 61950,
          "time": 25.8125,
          "velocity": 0.7401574803149606
        },
        {
          "duration": 0.10000000000000142,
          "durationTicks": 240,
          "midi": 77,
          "name": "F5",
          "ticks": 61950,
          "time": 25.8125,
          "velocity": 0.7401574803149606
        },
        {
          "duration": 0.10000000000000142,
          "durationTicks": 240,
          "midi": 72,
          "name": "C5",
          "ticks": 62190,
          "time": 25.9125,
          "velocity": 1
        },
        {
          "duration": 0.10000000000000142,
          "durationTicks": 240,
          "midi": 65,
          "name": "F4",
          "ticks": 62190,
          "time": 25.9125,
          "velocity": 1
        },
        {
          "duration": 0.10000000000000142,
          "durationTicks": 240,
          "midi": 77,
          "name": "F5",
          "ticks": 62190,
          "time": 25.9125,
          "velocity": 1
        },
        {
          "duration": 0.10000000000000142,
          "durationTicks": 240,
          "midi": 65,
          "name": "F4",
          "ticks": 62670,
          "time": 26.1125,
          "velocity": 0.7401574803149606
        },
        {
          "duration": 0.10000000000000142,
          "durationTicks": 240,
          "midi": 72,
          "name": "C5",
          "ticks": 62670,
          "time": 26.1125,
          "velocity": 0.7401574803149606
        },
        {
          "duration": 0.10000000000000142,
          "durationTicks": 240,
          "midi": 77,
          "name": "F5",
          "ticks": 62670,
          "time": 26.1125,
          "velocity": 0.7401574803149606
        },
        {
          "duration": 0.09999999999999787,
          "durationTicks": 240,
          "midi": 72,
          "name": "C5",
          "ticks": 62910,
          "time": 26.212500000000002,
          "velocity": 1
        },
        {
          "duration": 0.09999999999999787,
          "durationTicks": 240,
          "midi": 65,
          "name": "F4",
          "ticks": 62910,
          "time": 26.212500000000002,
          "velocity": 1
        },
        {
          "duration": 0.09999999999999787,
          "durationTicks": 240,
          "midi": 77,
          "name": "F5",
          "ticks": 62910,
          "time": 26.212500000000002,
          "velocity": 1
        },
        {
          "duration": 0.10000000000000142,
          "durationTicks": 240,
          "midi": 65,
          "name": "F4",
          "ticks": 63390,
          "time": 26.4125,
          "velocity": 0.7401574803149606
        },
        {
          "duration": 0.10000000000000142,
          "durationTicks": 240,
          "midi": 72,
          "name": "C5",
          "ticks": 63390,
          "time": 26.4125,
          "velocity": 0.7401574803149606
        },
        {
          "duration": 0.10000000000000142,
          "durationTicks": 240,
          "midi": 77,
          "name": "F5",
          "ticks": 63390,
          "time": 26.4125,
          "velocity": 0.7401574803149606
        },
        {
          "duration": 0.09999999999999787,
          "durationTicks": 240,
          "midi": 72,
          "name": "C5",
          "ticks": 63630,
          "time": 26.512500000000003,
          "velocity": 1
        },
        {
          "duration": 0.09999999999999787,
          "durationTicks": 240,
          "midi": 65,
          "name": "F4",
          "ticks": 63630,
          "time": 26.512500000000003,
          "velocity": 1
        },
        {
          "duration": 0.09999999999999787,
          "durationTicks": 240,
          "midi": 77,
          "name": "F5",
          "ticks": 63630,
          "time": 26.512500000000003,
          "velocity": 1
        },
        {
          "duration": 0.09999999999999787,
          "durationTicks": 240,
          "midi": 65,
          "name": "F4",
          "ticks": 64110,
          "time": 26.712500000000002,
          "velocity": 0.7401574803149606
        },
        {
          "duration": 0.09999999999999787,
          "durationTicks": 240,
          "midi": 72,
          "name": "C5",
          "ticks": 64110,
          "time": 26.712500000000002,
          "velocity": 0.7401574803149606
        },
        {
          "duration": 0.09999999999999787,
          "durationTicks": 240,
          "midi": 77,
          "name": "F5",
          "ticks": 64110,
          "time": 26.712500000000002,
          "velocity": 0.7401574803149606
        },
        {
          "duration": 0.10000000000000142,
          "durationTicks": 240,
          "midi": 72,
          "name": "C5",
          "ticks": 64350,
          "time": 26.8125,
          "velocity": 1
        },
        {
          "duration": 0.10000000000000142,
          "durationTicks": 240,
          "midi": 65,
          "name": "F4",
          "ticks": 64350,
          "time": 26.8125,
          "velocity": 1
        },
        {
          "duration": 0.10000000000000142,
          "durationTicks": 240,
          "midi": 77,
          "name": "F5",
          "ticks": 64350,
          "time": 26.8125,
          "velocity": 1
        },
        {
          "duration": 0.09999999999999787,
          "durationTicks": 240,
          "midi": 73,
          "name": "C#5",
          "ticks": 64830,
          "time": 27.012500000000003,
          "velocity": 1
        },
        {
          "duration": 0.09999999999999787,
          "durationTicks": 240,
          "midi": 66,
          "name": "F#4",
          "ticks": 64830,
          "time": 27.012500000000003,
          "velocity": 1
        },
        {
          "duration": 0.09999999999999787,
          "durationTicks": 240,
          "midi": 78,
          "name": "F#5",
          "ticks": 64830,
          "time": 27.012500000000003,
          "velocity": 1
        },
        {
          "duration": 0.09999999999999787,
          "durationTicks": 240,
          "midi": 77,
          "name": "F5",
          "ticks": 65310,
          "time": 27.212500000000002,
          "velocity": 1
        },
        {
          "duration": 0.09999999999999787,
          "durationTicks": 240,
          "midi": 65,
          "name": "F4",
          "ticks": 65310,
          "time": 27.212500000000002,
          "velocity": 1
        },
        {
          "duration": 0.09999999999999787,
          "durationTicks": 240,
          "midi": 72,
          "name": "C5",
          "ticks": 65310,
          "time": 27.212500000000002,
          "velocity": 1
        },
        {
          "duration": 0.10000000000000142,
          "durationTicks": 240,
          "midi": 65,
          "name": "F4",
          "ticks": 65790,
          "time": 27.4125,
          "velocity": 0.7401574803149606
        },
        {
          "duration": 0.10000000000000142,
          "durationTicks": 240,
          "midi": 72,
          "name": "C5",
          "ticks": 65790,
          "time": 27.4125,
          "velocity": 0.7401574803149606
        },
        {
          "duration": 0.10000000000000142,
          "durationTicks": 240,
          "midi": 77,
          "name": "F5",
          "ticks": 65790,
          "time": 27.4125,
          "velocity": 0.7401574803149606
        },
        {
          "duration": 0.09999999999999787,
          "durationTicks": 240,
          "midi": 77,
          "name": "F5",
          "ticks": 66030,
          "time": 27.512500000000003,
          "velocity": 1
        },
        {
          "duration": 0.09999999999999787,
          "durationTicks": 240,
          "midi": 65,
          "name": "F4",
          "ticks": 66030,
          "time": 27.512500000000003,
          "velocity": 1
        },
        {
          "duration": 0.09999999999999787,
          "durationTicks": 240,
          "midi": 72,
          "name": "C5",
          "ticks": 66030,
          "time": 27.512500000000003,
          "velocity": 1
        },
        {
          "duration": 0.09999999999999787,
          "durationTicks": 240,
          "midi": 65,
          "name": "F4",
          "ticks": 66510,
          "time": 27.712500000000002,
          "velocity": 0.7401574803149606
        },
        {
          "duration": 0.09999999999999787,
          "durationTicks": 240,
          "midi": 72,
          "name": "C5",
          "ticks": 66510,
          "time": 27.712500000000002,
          "velocity": 0.7401574803149606
        },
        {
          "duration": 0.09999999999999787,
          "durationTicks": 240,
          "midi": 77,
          "name": "F5",
          "ticks": 66510,
          "time": 27.712500000000002,
          "velocity": 0.7401574803149606
        },
        {
          "duration": 0.10000000000000142,
          "durationTicks": 240,
          "midi": 77,
          "name": "F5",
          "ticks": 66750,
          "time": 27.8125,
          "velocity": 1
        },
        {
          "duration": 0.10000000000000142,
          "durationTicks": 240,
          "midi": 65,
          "name": "F4",
          "ticks": 66750,
          "time": 27.8125,
          "velocity": 1
        },
        {
          "duration": 0.10000000000000142,
          "durationTicks": 240,
          "midi": 72,
          "name": "C5",
          "ticks": 66750,
          "time": 27.8125,
          "velocity": 1
        },
        {
          "duration": 0.09999999999999787,
          "durationTicks": 240,
          "midi": 65,
          "name": "F4",
          "ticks": 67230,
          "time": 28.012500000000003,
          "velocity": 0.7401574803149606
        },
        {
          "duration": 0.09999999999999787,
          "durationTicks": 240,
          "midi": 72,
          "name": "C5",
          "ticks": 67230,
          "time": 28.012500000000003,
          "velocity": 0.7401574803149606
        },
        {
          "duration": 0.09999999999999787,
          "durationTicks": 240,
          "midi": 77,
          "name": "F5",
          "ticks": 67230,
          "time": 28.012500000000003,
          "velocity": 0.7401574803149606
        },
        {
          "duration": 0.10000000000000142,
          "durationTicks": 240,
          "midi": 77,
          "name": "F5",
          "ticks": 67470,
          "time": 28.1125,
          "velocity": 1
        },
        {
          "duration": 0.10000000000000142,
          "durationTicks": 240,
          "midi": 65,
          "name": "F4",
          "ticks": 67470,
          "time": 28.1125,
          "velocity": 1
        },
        {
          "duration": 0.10000000000000142,
          "durationTicks": 240,
          "midi": 72,
          "name": "C5",
          "ticks": 67470,
          "time": 28.1125,
          "velocity": 1
        },
        {
          "duration": 0.10000000000000142,
          "durationTicks": 240,
          "midi": 65,
          "name": "F4",
          "ticks": 67950,
          "time": 28.3125,
          "velocity": 0.7401574803149606
        },
        {
          "duration": 0.10000000000000142,
          "durationTicks": 240,
          "midi": 72,
          "name": "C5",
          "ticks": 67950,
          "time": 28.3125,
          "velocity": 0.7401574803149606
        },
        {
          "duration": 0.10000000000000142,
          "durationTicks": 240,
          "midi": 77,
          "name": "F5",
          "ticks": 67950,
          "time": 28.3125,
          "velocity": 0.7401574803149606
        },
        {
          "duration": 0.10000000000000142,
          "durationTicks": 240,
          "midi": 77,
          "name": "F5",
          "ticks": 68190,
          "time": 28.4125,
          "velocity": 1
        },
        {
          "duration": 0.10000000000000142,
          "durationTicks": 240,
          "midi": 65,
          "name": "F4",
          "ticks": 68190,
          "time": 28.4125,
          "velocity": 1
        },
        {
          "duration": 0.10000000000000142,
          "durationTicks": 240,
          "midi": 72,
          "name": "C5",
          "ticks": 68190,
          "time": 28.4125,
          "velocity": 1
        },
        {
          "duration": 0.10000000000000142,
          "durationTicks": 240,
          "midi": 75,
          "name": "D#5",
          "ticks": 68670,
          "time": 28.6125,
          "velocity": 1
        },
        {
          "duration": 0.10000000000000142,
          "durationTicks": 240,
          "midi": 63,
          "name": "D#4",
          "ticks": 68670,
          "time": 28.6125,
          "velocity": 1
        },
        {
          "duration": 0.10000000000000142,
          "durationTicks": 240,
          "midi": 70,
          "name": "A#4",
          "ticks": 68670,
          "time": 28.6125,
          "velocity": 1
        },
        {
          "duration": 0.10000000000000142,
          "durationTicks": 240,
          "midi": 72,
          "name": "C5",
          "ticks": 69150,
          "time": 28.8125,
          "velocity": 1
        },
        {
          "duration": 0.10000000000000142,
          "durationTicks": 240,
          "midi": 65,
          "name": "F4",
          "ticks": 69150,
          "time": 28.8125,
          "velocity": 1
        },
        {
          "duration": 0.10000000000000142,
          "durationTicks": 240,
          "midi": 77,
          "name": "F5",
          "ticks": 69150,
          "time": 28.8125,
          "velocity": 1
        },
        {
          "duration": 0.09999999999999787,
          "durationTicks": 240,
          "midi": 65,
          "name": "F4",
          "ticks": 69630,
          "time": 29.012500000000003,
          "velocity": 0.7401574803149606
        },
        {
          "duration": 0.09999999999999787,
          "durationTicks": 240,
          "midi": 72,
          "name": "C5",
          "ticks": 69630,
          "time": 29.012500000000003,
          "velocity": 0.7401574803149606
        },
        {
          "duration": 0.09999999999999787,
          "durationTicks": 240,
          "midi": 77,
          "name": "F5",
          "ticks": 69630,
          "time": 29.012500000000003,
          "velocity": 0.7401574803149606
        },
        {
          "duration": 0.10000000000000142,
          "durationTicks": 240,
          "midi": 72,
          "name": "C5",
          "ticks": 69870,
          "time": 29.1125,
          "velocity": 1
        },
        {
          "duration": 0.10000000000000142,
          "durationTicks": 240,
          "midi": 65,
          "name": "F4",
          "ticks": 69870,
          "time": 29.1125,
          "velocity": 1
        },
        {
          "duration": 0.10000000000000142,
          "durationTicks": 240,
          "midi": 77,
          "name": "F5",
          "ticks": 69870,
          "time": 29.1125,
          "velocity": 1
        },
        {
          "duration": 0.10000000000000142,
          "durationTicks": 240,
          "midi": 65,
          "name": "F4",
          "ticks": 70350,
          "time": 29.3125,
          "velocity": 0.7401574803149606
        },
        {
          "duration": 0.10000000000000142,
          "durationTicks": 240,
          "midi": 72,
          "name": "C5",
          "ticks": 70350,
          "time": 29.3125,
          "velocity": 0.7401574803149606
        },
        {
          "duration": 0.10000000000000142,
          "durationTicks": 240,
          "midi": 77,
          "name": "F5",
          "ticks": 70350,
          "time": 29.3125,
          "velocity": 0.7401574803149606
        },
        {
          "duration": 0.10000000000000142,
          "durationTicks": 240,
          "midi": 72,
          "name": "C5",
          "ticks": 70590,
          "time": 29.4125,
          "velocity": 1
        },
        {
          "duration": 0.10000000000000142,
          "durationTicks": 240,
          "midi": 65,
          "name": "F4",
          "ticks": 70590,
          "time": 29.4125,
          "velocity": 1
        },
        {
          "duration": 0.10000000000000142,
          "durationTicks": 240,
          "midi": 77,
          "name": "F5",
          "ticks": 70590,
          "time": 29.4125,
          "velocity": 1
        },
        {
          "duration": 0.10000000000000142,
          "durationTicks": 240,
          "midi": 65,
          "name": "F4",
          "ticks": 71070,
          "time": 29.6125,
          "velocity": 0.7401574803149606
        },
        {
          "duration": 0.10000000000000142,
          "durationTicks": 240,
          "midi": 72,
          "name": "C5",
          "ticks": 71070,
          "time": 29.6125,
          "velocity": 0.7401574803149606
        },
        {
          "duration": 0.10000000000000142,
          "durationTicks": 240,
          "midi": 77,
          "name": "F5",
          "ticks": 71070,
          "time": 29.6125,
          "velocity": 0.7401574803149606
        },
        {
          "duration": 0.09999999999999787,
          "durationTicks": 240,
          "midi": 72,
          "name": "C5",
          "ticks": 71310,
          "time": 29.712500000000002,
          "velocity": 1
        },
        {
          "duration": 0.09999999999999787,
          "durationTicks": 240,
          "midi": 65,
          "name": "F4",
          "ticks": 71310,
          "time": 29.712500000000002,
          "velocity": 1
        },
        {
          "duration": 0.09999999999999787,
          "durationTicks": 240,
          "midi": 77,
          "name": "F5",
          "ticks": 71310,
          "time": 29.712500000000002,
          "velocity": 1
        },
        {
          "duration": 0.10000000000000142,
          "durationTicks": 240,
          "midi": 65,
          "name": "F4",
          "ticks": 71790,
          "time": 29.9125,
          "velocity": 0.7401574803149606
        },
        {
          "duration": 0.10000000000000142,
          "durationTicks": 240,
          "midi": 72,
          "name": "C5",
          "ticks": 71790,
          "time": 29.9125,
          "velocity": 0.7401574803149606
        },
        {
          "duration": 0.10000000000000142,
          "durationTicks": 240,
          "midi": 77,
          "name": "F5",
          "ticks": 71790,
          "time": 29.9125,
          "velocity": 0.7401574803149606
        },
        {
          "duration": 0.09999999999999787,
          "durationTicks": 240,
          "midi": 72,
          "name": "C5",
          "ticks": 72030,
          "time": 30.012500000000003,
          "velocity": 1
        },
        {
          "duration": 0.09999999999999787,
          "durationTicks": 240,
          "midi": 65,
          "name": "F4",
          "ticks": 72030,
          "time": 30.012500000000003,
          "velocity": 1
        },
        {
          "duration": 0.09999999999999787,
          "durationTicks": 240,
          "midi": 77,
          "name": "F5",
          "ticks": 72030,
          "time": 30.012500000000003,
          "velocity": 1
        },
        {
          "duration": 0.09999999999999787,
          "durationTicks": 240,
          "midi": 73,
          "name": "C#5",
          "ticks": 72510,
          "time": 30.212500000000002,
          "velocity": 1
        },
        {
          "duration": 0.09999999999999787,
          "durationTicks": 240,
          "midi": 66,
          "name": "F#4",
          "ticks": 72510,
          "time": 30.212500000000002,
          "velocity": 1
        },
        {
          "duration": 0.09999999999999787,
          "durationTicks": 240,
          "midi": 78,
          "name": "F#5",
          "ticks": 72510,
          "time": 30.212500000000002,
          "velocity": 1
        },
        {
          "duration": 0.10000000000000142,
          "durationTicks": 240,
          "midi": 77,
          "name": "F5",
          "ticks": 72990,
          "time": 30.4125,
          "velocity": 1
        },
        {
          "duration": 0.10000000000000142,
          "durationTicks": 240,
          "midi": 65,
          "name": "F4",
          "ticks": 72990,
          "time": 30.4125,
          "velocity": 1
        },
        {
          "duration": 0.10000000000000142,
          "durationTicks": 240,
          "midi": 72,
          "name": "C5",
          "ticks": 72990,
          "time": 30.4125,
          "velocity": 1
        },
        {
          "duration": 0.10000000000000142,
          "durationTicks": 240,
          "midi": 65,
          "name": "F4",
          "ticks": 73470,
          "time": 30.6125,
          "velocity": 0.7401574803149606
        },
        {
          "duration": 0.10000000000000142,
          "durationTicks": 240,
          "midi": 72,
          "name": "C5",
          "ticks": 73470,
          "time": 30.6125,
          "velocity": 0.7401574803149606
        },
        {
          "duration": 0.10000000000000142,
          "durationTicks": 240,
          "midi": 77,
          "name": "F5",
          "ticks": 73470,
          "time": 30.6125,
          "velocity": 0.7401574803149606
        },
        {
          "duration": 0.09999999999999787,
          "durationTicks": 240,
          "midi": 77,
          "name": "F5",
          "ticks": 73710,
          "time": 30.712500000000002,
          "velocity": 1
        },
        {
          "duration": 0.09999999999999787,
          "durationTicks": 240,
          "midi": 65,
          "name": "F4",
          "ticks": 73710,
          "time": 30.712500000000002,
          "velocity": 1
        },
        {
          "duration": 0.09999999999999787,
          "durationTicks": 240,
          "midi": 72,
          "name": "C5",
          "ticks": 73710,
          "time": 30.712500000000002,
          "velocity": 1
        },
        {
          "duration": 0.10000000000000142,
          "durationTicks": 240,
          "midi": 65,
          "name": "F4",
          "ticks": 74190,
          "time": 30.9125,
          "velocity": 0.7401574803149606
        },
        {
          "duration": 0.10000000000000142,
          "durationTicks": 240,
          "midi": 72,
          "name": "C5",
          "ticks": 74190,
          "time": 30.9125,
          "velocity": 0.7401574803149606
        },
        {
          "duration": 0.10000000000000142,
          "durationTicks": 240,
          "midi": 77,
          "name": "F5",
          "ticks": 74190,
          "time": 30.9125,
          "velocity": 0.7401574803149606
        },
        {
          "duration": 0.09999999999999787,
          "durationTicks": 240,
          "midi": 77,
          "name": "F5",
          "ticks": 74430,
          "time": 31.012500000000003,
          "velocity": 1
        },
        {
          "duration": 0.09999999999999787,
          "durationTicks": 240,
          "midi": 65,
          "name": "F4",
          "ticks": 74430,
          "time": 31.012500000000003,
          "velocity": 1
        },
        {
          "duration": 0.09999999999999787,
          "durationTicks": 240,
          "midi": 72,
          "name": "C5",
          "ticks": 74430,
          "time": 31.012500000000003,
          "velocity": 1
        },
        {
          "duration": 0.09999999999999787,
          "durationTicks": 240,
          "midi": 65,
          "name": "F4",
          "ticks": 74910,
          "time": 31.212500000000002,
          "velocity": 0.7401574803149606
        },
        {
          "duration": 0.09999999999999787,
          "durationTicks": 240,
          "midi": 72,
          "name": "C5",
          "ticks": 74910,
          "time": 31.212500000000002,
          "velocity": 0.7401574803149606
        },
        {
          "duration": 0.09999999999999787,
          "durationTicks": 240,
          "midi": 77,
          "name": "F5",
          "ticks": 74910,
          "time": 31.212500000000002,
          "velocity": 0.7401574803149606
        },
        {
          "duration": 0.10000000000000142,
          "durationTicks": 240,
          "midi": 77,
          "name": "F5",
          "ticks": 75150,
          "time": 31.3125,
          "velocity": 1
        },
        {
          "duration": 0.10000000000000142,
          "durationTicks": 240,
          "midi": 65,
          "name": "F4",
          "ticks": 75150,
          "time": 31.3125,
          "velocity": 1
        },
        {
          "duration": 0.10000000000000142,
          "durationTicks": 240,
          "midi": 72,
          "name": "C5",
          "ticks": 75150,
          "time": 31.3125,
          "velocity": 1
        },
        {
          "duration": 0.09999999999999787,
          "durationTicks": 240,
          "midi": 65,
          "name": "F4",
          "ticks": 75630,
          "time": 31.512500000000003,
          "velocity": 0.7401574803149606
        },
        {
          "duration": 0.09999999999999787,
          "durationTicks": 240,
          "midi": 72,
          "name": "C5",
          "ticks": 75630,
          "time": 31.512500000000003,
          "velocity": 0.7401574803149606
        },
        {
          "duration": 0.09999999999999787,
          "durationTicks": 240,
          "midi": 77,
          "name": "F5",
          "ticks": 75630,
          "time": 31.512500000000003,
          "velocity": 0.7401574803149606
        },
        {
          "duration": 0.10000000000000142,
          "durationTicks": 240,
          "midi": 77,
          "name": "F5",
          "ticks": 75870,
          "time": 31.6125,
          "velocity": 1
        },
        {
          "duration": 0.10000000000000142,
          "durationTicks": 240,
          "midi": 65,
          "name": "F4",
          "ticks": 75870,
          "time": 31.6125,
          "velocity": 1
        },
        {
          "duration": 0.10000000000000142,
          "durationTicks": 240,
          "midi": 72,
          "name": "C5",
          "ticks": 75870,
          "time": 31.6125,
          "velocity": 1
        },
        {
          "duration": 0.10000000000000142,
          "durationTicks": 240,
          "midi": 75,
          "name": "D#5",
          "ticks": 76350,
          "time": 31.8125,
          "velocity": 1
        },
        {
          "duration": 0.10000000000000142,
          "durationTicks": 240,
          "midi": 63,
          "name": "D#4",
          "ticks": 76350,
          "time": 31.8125,
          "velocity": 1
        },
        {
          "duration": 0.10000000000000142,
          "durationTicks": 240,
          "midi": 70,
          "name": "A#4",
          "ticks": 76350,
          "time": 31.8125,
          "velocity": 1
        },
        {
          "duration": 0.10000000000000142,
          "durationTicks": 240,
          "midi": 72,
          "name": "C5",
          "ticks": 76830,
          "time": 32.0125,
          "velocity": 1
        },
        {
          "duration": 0.10000000000000142,
          "durationTicks": 240,
          "midi": 65,
          "name": "F4",
          "ticks": 76830,
          "time": 32.0125,
          "velocity": 1
        },
        {
          "duration": 0.10000000000000142,
          "durationTicks": 240,
          "midi": 77,
          "name": "F5",
          "ticks": 76830,
          "time": 32.0125,
          "velocity": 1
        },
        {
          "duration": 0.10000000000000142,
          "durationTicks": 240,
          "midi": 65,
          "name": "F4",
          "ticks": 77310,
          "time": 32.2125,
          "velocity": 0.7401574803149606
        },
        {
          "duration": 0.10000000000000142,
          "durationTicks": 240,
          "midi": 72,
          "name": "C5",
          "ticks": 77310,
          "time": 32.2125,
          "velocity": 0.7401574803149606
        },
        {
          "duration": 0.10000000000000142,
          "durationTicks": 240,
          "midi": 77,
          "name": "F5",
          "ticks": 77310,
          "time": 32.2125,
          "velocity": 0.7401574803149606
        },
        {
          "duration": 0.10000000000000142,
          "durationTicks": 240,
          "midi": 72,
          "name": "C5",
          "ticks": 77550,
          "time": 32.3125,
          "velocity": 1
        },
        {
          "duration": 0.10000000000000142,
          "durationTicks": 240,
          "midi": 65,
          "name": "F4",
          "ticks": 77550,
          "time": 32.3125,
          "velocity": 1
        },
        {
          "duration": 0.10000000000000142,
          "durationTicks": 240,
          "midi": 77,
          "name": "F5",
          "ticks": 77550,
          "time": 32.3125,
          "velocity": 1
        },
        {
          "duration": 0.10000000000000142,
          "durationTicks": 240,
          "midi": 65,
          "name": "F4",
          "ticks": 78030,
          "time": 32.5125,
          "velocity": 0.7401574803149606
        },
        {
          "duration": 0.10000000000000142,
          "durationTicks": 240,
          "midi": 72,
          "name": "C5",
          "ticks": 78030,
          "time": 32.5125,
          "velocity": 0.7401574803149606
        },
        {
          "duration": 0.10000000000000142,
          "durationTicks": 240,
          "midi": 77,
          "name": "F5",
          "ticks": 78030,
          "time": 32.5125,
          "velocity": 0.7401574803149606
        },
        {
          "duration": 0.09999999999999432,
          "durationTicks": 240,
          "midi": 72,
          "name": "C5",
          "ticks": 78270,
          "time": 32.612500000000004,
          "velocity": 1
        },
        {
          "duration": 0.09999999999999432,
          "durationTicks": 240,
          "midi": 65,
          "name": "F4",
          "ticks": 78270,
          "time": 32.612500000000004,
          "velocity": 1
        },
        {
          "duration": 0.09999999999999432,
          "durationTicks": 240,
          "midi": 77,
          "name": "F5",
          "ticks": 78270,
          "time": 32.612500000000004,
          "velocity": 1
        },
        {
          "duration": 0.10000000000000142,
          "durationTicks": 240,
          "midi": 65,
          "name": "F4",
          "ticks": 78750,
          "time": 32.8125,
          "velocity": 0.7401574803149606
        },
        {
          "duration": 0.10000000000000142,
          "durationTicks": 240,
          "midi": 72,
          "name": "C5",
          "ticks": 78750,
          "time": 32.8125,
          "velocity": 0.7401574803149606
        },
        {
          "duration": 0.10000000000000142,
          "durationTicks": 240,
          "midi": 77,
          "name": "F5",
          "ticks": 78750,
          "time": 32.8125,
          "velocity": 0.7401574803149606
        },
        {
          "duration": 0.10000000000000142,
          "durationTicks": 240,
          "midi": 72,
          "name": "C5",
          "ticks": 78990,
          "time": 32.9125,
          "velocity": 1
        },
        {
          "duration": 0.10000000000000142,
          "durationTicks": 240,
          "midi": 65,
          "name": "F4",
          "ticks": 78990,
          "time": 32.9125,
          "velocity": 1
        },
        {
          "duration": 0.10000000000000142,
          "durationTicks": 240,
          "midi": 77,
          "name": "F5",
          "ticks": 78990,
          "time": 32.9125,
          "velocity": 1
        },
        {
          "duration": 0.09999999999999432,
          "durationTicks": 240,
          "midi": 65,
          "name": "F4",
          "ticks": 79470,
          "time": 33.112500000000004,
          "velocity": 0.7401574803149606
        },
        {
          "duration": 0.09999999999999432,
          "durationTicks": 240,
          "midi": 72,
          "name": "C5",
          "ticks": 79470,
          "time": 33.112500000000004,
          "velocity": 0.7401574803149606
        },
        {
          "duration": 0.09999999999999432,
          "durationTicks": 240,
          "midi": 77,
          "name": "F5",
          "ticks": 79470,
          "time": 33.112500000000004,
          "velocity": 0.7401574803149606
        },
        {
          "duration": 0.10000000000000142,
          "durationTicks": 240,
          "midi": 72,
          "name": "C5",
          "ticks": 79710,
          "time": 33.2125,
          "velocity": 1
        },
        {
          "duration": 0.10000000000000142,
          "durationTicks": 240,
          "midi": 65,
          "name": "F4",
          "ticks": 79710,
          "time": 33.2125,
          "velocity": 1
        },
        {
          "duration": 0.10000000000000142,
          "durationTicks": 240,
          "midi": 77,
          "name": "F5",
          "ticks": 79710,
          "time": 33.2125,
          "velocity": 1
        },
        {
          "duration": 0.10000000000000142,
          "durationTicks": 240,
          "midi": 73,
          "name": "C#5",
          "ticks": 80190,
          "time": 33.4125,
          "velocity": 1
        },
        {
          "duration": 0.10000000000000142,
          "durationTicks": 240,
          "midi": 66,
          "name": "F#4",
          "ticks": 80190,
          "time": 33.4125,
          "velocity": 1
        },
        {
          "duration": 0.10000000000000142,
          "durationTicks": 240,
          "midi": 78,
          "name": "F#5",
          "ticks": 80190,
          "time": 33.4125,
          "velocity": 1
        },
        {
          "duration": 0.09999999999999432,
          "durationTicks": 240,
          "midi": 77,
          "name": "F5",
          "ticks": 80670,
          "time": 33.612500000000004,
          "velocity": 1
        },
        {
          "duration": 0.09999999999999432,
          "durationTicks": 240,
          "midi": 65,
          "name": "F4",
          "ticks": 80670,
          "time": 33.612500000000004,
          "velocity": 1
        },
        {
          "duration": 0.09999999999999432,
          "durationTicks": 240,
          "midi": 72,
          "name": "C5",
          "ticks": 80670,
          "time": 33.612500000000004,
          "velocity": 1
        },
        {
          "duration": 0.10000000000000142,
          "durationTicks": 240,
          "midi": 65,
          "name": "F4",
          "ticks": 81150,
          "time": 33.8125,
          "velocity": 0.7401574803149606
        },
        {
          "duration": 0.10000000000000142,
          "durationTicks": 240,
          "midi": 72,
          "name": "C5",
          "ticks": 81150,
          "time": 33.8125,
          "velocity": 0.7401574803149606
        },
        {
          "duration": 0.10000000000000142,
          "durationTicks": 240,
          "midi": 77,
          "name": "F5",
          "ticks": 81150,
          "time": 33.8125,
          "velocity": 0.7401574803149606
        },
        {
          "duration": 0.10000000000000142,
          "durationTicks": 240,
          "midi": 77,
          "name": "F5",
          "ticks": 81390,
          "time": 33.9125,
          "velocity": 1
        },
        {
          "duration": 0.10000000000000142,
          "durationTicks": 240,
          "midi": 65,
          "name": "F4",
          "ticks": 81390,
          "time": 33.9125,
          "velocity": 1
        },
        {
          "duration": 0.10000000000000142,
          "durationTicks": 240,
          "midi": 72,
          "name": "C5",
          "ticks": 81390,
          "time": 33.9125,
          "velocity": 1
        },
        {
          "duration": 0.09999999999999432,
          "durationTicks": 240,
          "midi": 65,
          "name": "F4",
          "ticks": 81870,
          "time": 34.112500000000004,
          "velocity": 0.7401574803149606
        },
        {
          "duration": 0.09999999999999432,
          "durationTicks": 240,
          "midi": 72,
          "name": "C5",
          "ticks": 81870,
          "time": 34.112500000000004,
          "velocity": 0.7401574803149606
        },
        {
          "duration": 0.09999999999999432,
          "durationTicks": 240,
          "midi": 77,
          "name": "F5",
          "ticks": 81870,
          "time": 34.112500000000004,
          "velocity": 0.7401574803149606
        },
        {
          "duration": 0.10000000000000142,
          "durationTicks": 240,
          "midi": 77,
          "name": "F5",
          "ticks": 82110,
          "time": 34.2125,
          "velocity": 1
        },
        {
          "duration": 0.10000000000000142,
          "durationTicks": 240,
          "midi": 65,
          "name": "F4",
          "ticks": 82110,
          "time": 34.2125,
          "velocity": 1
        },
        {
          "duration": 0.10000000000000142,
          "durationTicks": 240,
          "midi": 72,
          "name": "C5",
          "ticks": 82110,
          "time": 34.2125,
          "velocity": 1
        },
        {
          "duration": 0.10000000000000142,
          "durationTicks": 240,
          "midi": 65,
          "name": "F4",
          "ticks": 82590,
          "time": 34.4125,
          "velocity": 0.7401574803149606
        },
        {
          "duration": 0.10000000000000142,
          "durationTicks": 240,
          "midi": 72,
          "name": "C5",
          "ticks": 82590,
          "time": 34.4125,
          "velocity": 0.7401574803149606
        },
        {
          "duration": 0.10000000000000142,
          "durationTicks": 240,
          "midi": 77,
          "name": "F5",
          "ticks": 82590,
          "time": 34.4125,
          "velocity": 0.7401574803149606
        },
        {
          "duration": 0.10000000000000142,
          "durationTicks": 240,
          "midi": 77,
          "name": "F5",
          "ticks": 82830,
          "time": 34.5125,
          "velocity": 1
        },
        {
          "duration": 0.10000000000000142,
          "durationTicks": 240,
          "midi": 65,
          "name": "F4",
          "ticks": 82830,
          "time": 34.5125,
          "velocity": 1
        },
        {
          "duration": 0.10000000000000142,
          "durationTicks": 240,
          "midi": 72,
          "name": "C5",
          "ticks": 82830,
          "time": 34.5125,
          "velocity": 1
        },
        {
          "duration": 0.10000000000000142,
          "durationTicks": 240,
          "midi": 65,
          "name": "F4",
          "ticks": 83310,
          "time": 34.7125,
          "velocity": 0.7401574803149606
        },
        {
          "duration": 0.10000000000000142,
          "durationTicks": 240,
          "midi": 72,
          "name": "C5",
          "ticks": 83310,
          "time": 34.7125,
          "velocity": 0.7401574803149606
        },
        {
          "duration": 0.10000000000000142,
          "durationTicks": 240,
          "midi": 77,
          "name": "F5",
          "ticks": 83310,
          "time": 34.7125,
          "velocity": 0.7401574803149606
        },
        {
          "duration": 0.10000000000000142,
          "durationTicks": 240,
          "midi": 77,
          "name": "F5",
          "ticks": 83550,
          "time": 34.8125,
          "velocity": 1
        },
        {
          "duration": 0.10000000000000142,
          "durationTicks": 240,
          "midi": 65,
          "name": "F4",
          "ticks": 83550,
          "time": 34.8125,
          "velocity": 1
        },
        {
          "duration": 0.10000000000000142,
          "durationTicks": 240,
          "midi": 72,
          "name": "C5",
          "ticks": 83550,
          "time": 34.8125,
          "velocity": 1
        },
        {
          "duration": 0.10000000000000142,
          "durationTicks": 240,
          "midi": 75,
          "name": "D#5",
          "ticks": 84030,
          "time": 35.0125,
          "velocity": 1
        },
        {
          "duration": 0.10000000000000142,
          "durationTicks": 240,
          "midi": 63,
          "name": "D#4",
          "ticks": 84030,
          "time": 35.0125,
          "velocity": 1
        },
        {
          "duration": 0.10000000000000142,
          "durationTicks": 240,
          "midi": 70,
          "name": "A#4",
          "ticks": 84030,
          "time": 35.0125,
          "velocity": 1
        },
        {
          "duration": 0.10000000000000142,
          "durationTicks": 240,
          "midi": 72,
          "name": "C5",
          "ticks": 84510,
          "time": 35.2125,
          "velocity": 1
        },
        {
          "duration": 0.10000000000000142,
          "durationTicks": 240,
          "midi": 65,
          "name": "F4",
          "ticks": 84510,
          "time": 35.2125,
          "velocity": 1
        },
        {
          "duration": 0.10000000000000142,
          "durationTicks": 240,
          "midi": 77,
          "name": "F5",
          "ticks": 84510,
          "time": 35.2125,
          "velocity": 1
        },
        {
          "duration": 0.10000000000000142,
          "durationTicks": 240,
          "midi": 65,
          "name": "F4",
          "ticks": 84990,
          "time": 35.4125,
          "velocity": 0.7401574803149606
        },
        {
          "duration": 0.10000000000000142,
          "durationTicks": 240,
          "midi": 72,
          "name": "C5",
          "ticks": 84990,
          "time": 35.4125,
          "velocity": 0.7401574803149606
        },
        {
          "duration": 0.10000000000000142,
          "durationTicks": 240,
          "midi": 77,
          "name": "F5",
          "ticks": 84990,
          "time": 35.4125,
          "velocity": 0.7401574803149606
        },
        {
          "duration": 0.10000000000000142,
          "durationTicks": 240,
          "midi": 72,
          "name": "C5",
          "ticks": 85230,
          "time": 35.5125,
          "velocity": 1
        },
        {
          "duration": 0.10000000000000142,
          "durationTicks": 240,
          "midi": 65,
          "name": "F4",
          "ticks": 85230,
          "time": 35.5125,
          "velocity": 1
        },
        {
          "duration": 0.10000000000000142,
          "durationTicks": 240,
          "midi": 77,
          "name": "F5",
          "ticks": 85230,
          "time": 35.5125,
          "velocity": 1
        },
        {
          "duration": 0.10000000000000142,
          "durationTicks": 240,
          "midi": 65,
          "name": "F4",
          "ticks": 85710,
          "time": 35.7125,
          "velocity": 0.7401574803149606
        },
        {
          "duration": 0.10000000000000142,
          "durationTicks": 240,
          "midi": 72,
          "name": "C5",
          "ticks": 85710,
          "time": 35.7125,
          "velocity": 0.7401574803149606
        },
        {
          "duration": 0.10000000000000142,
          "durationTicks": 240,
          "midi": 77,
          "name": "F5",
          "ticks": 85710,
          "time": 35.7125,
          "velocity": 0.7401574803149606
        },
        {
          "duration": 0.10000000000000142,
          "durationTicks": 240,
          "midi": 72,
          "name": "C5",
          "ticks": 85950,
          "time": 35.8125,
          "velocity": 1
        },
        {
          "duration": 0.10000000000000142,
          "durationTicks": 240,
          "midi": 65,
          "name": "F4",
          "ticks": 85950,
          "time": 35.8125,
          "velocity": 1
        },
        {
          "duration": 0.10000000000000142,
          "durationTicks": 240,
          "midi": 77,
          "name": "F5",
          "ticks": 85950,
          "time": 35.8125,
          "velocity": 1
        },
        {
          "duration": 0.10000000000000142,
          "durationTicks": 240,
          "midi": 65,
          "name": "F4",
          "ticks": 86430,
          "time": 36.0125,
          "velocity": 0.7401574803149606
        },
        {
          "duration": 0.10000000000000142,
          "durationTicks": 240,
          "midi": 72,
          "name": "C5",
          "ticks": 86430,
          "time": 36.0125,
          "velocity": 0.7401574803149606
        },
        {
          "duration": 0.10000000000000142,
          "durationTicks": 240,
          "midi": 77,
          "name": "F5",
          "ticks": 86430,
          "time": 36.0125,
          "velocity": 0.7401574803149606
        },
        {
          "duration": 0.09999999999999432,
          "durationTicks": 240,
          "midi": 72,
          "name": "C5",
          "ticks": 86670,
          "time": 36.112500000000004,
          "velocity": 1
        },
        {
          "duration": 0.09999999999999432,
          "durationTicks": 240,
          "midi": 65,
          "name": "F4",
          "ticks": 86670,
          "time": 36.112500000000004,
          "velocity": 1
        },
        {
          "duration": 0.09999999999999432,
          "durationTicks": 240,
          "midi": 77,
          "name": "F5",
          "ticks": 86670,
          "time": 36.112500000000004,
          "velocity": 1
        },
        {
          "duration": 0.10000000000000142,
          "durationTicks": 240,
          "midi": 65,
          "name": "F4",
          "ticks": 87150,
          "time": 36.3125,
          "velocity": 0.7401574803149606
        },
        {
          "duration": 0.10000000000000142,
          "durationTicks": 240,
          "midi": 72,
          "name": "C5",
          "ticks": 87150,
          "time": 36.3125,
          "velocity": 0.7401574803149606
        },
        {
          "duration": 0.10000000000000142,
          "durationTicks": 240,
          "midi": 77,
          "name": "F5",
          "ticks": 87150,
          "time": 36.3125,
          "velocity": 0.7401574803149606
        },
        {
          "duration": 0.10000000000000142,
          "durationTicks": 240,
          "midi": 72,
          "name": "C5",
          "ticks": 87390,
          "time": 36.4125,
          "velocity": 1
        },
        {
          "duration": 0.10000000000000142,
          "durationTicks": 240,
          "midi": 65,
          "name": "F4",
          "ticks": 87390,
          "time": 36.4125,
          "velocity": 1
        },
        {
          "duration": 0.10000000000000142,
          "durationTicks": 240,
          "midi": 77,
          "name": "F5",
          "ticks": 87390,
          "time": 36.4125,
          "velocity": 1
        },
        {
          "duration": 0.09999999999999432,
          "durationTicks": 240,
          "midi": 73,
          "name": "C#5",
          "ticks": 87870,
          "time": 36.612500000000004,
          "velocity": 1
        },
        {
          "duration": 0.09999999999999432,
          "durationTicks": 240,
          "midi": 66,
          "name": "F#4",
          "ticks": 87870,
          "time": 36.612500000000004,
          "velocity": 1
        },
        {
          "duration": 0.09999999999999432,
          "durationTicks": 240,
          "midi": 78,
          "name": "F#5",
          "ticks": 87870,
          "time": 36.612500000000004,
          "velocity": 1
        },
        {
          "duration": 0.10000000000000142,
          "durationTicks": 240,
          "midi": 77,
          "name": "F5",
          "ticks": 88350,
          "time": 36.8125,
          "velocity": 1
        },
        {
          "duration": 0.10000000000000142,
          "durationTicks": 240,
          "midi": 65,
          "name": "F4",
          "ticks": 88350,
          "time": 36.8125,
          "velocity": 1
        },
        {
          "duration": 0.10000000000000142,
          "durationTicks": 240,
          "midi": 72,
          "name": "C5",
          "ticks": 88350,
          "time": 36.8125,
          "velocity": 1
        },
        {
          "duration": 0.10000000000000142,
          "durationTicks": 240,
          "midi": 65,
          "name": "F4",
          "ticks": 88830,
          "time": 37.0125,
          "velocity": 0.7401574803149606
        },
        {
          "duration": 0.10000000000000142,
          "durationTicks": 240,
          "midi": 72,
          "name": "C5",
          "ticks": 88830,
          "time": 37.0125,
          "velocity": 0.7401574803149606
        },
        {
          "duration": 0.10000000000000142,
          "durationTicks": 240,
          "midi": 77,
          "name": "F5",
          "ticks": 88830,
          "time": 37.0125,
          "velocity": 0.7401574803149606
        },
        {
          "duration": 0.09999999999999432,
          "durationTicks": 240,
          "midi": 77,
          "name": "F5",
          "ticks": 89070,
          "time": 37.112500000000004,
          "velocity": 1
        },
        {
          "duration": 0.09999999999999432,
          "durationTicks": 240,
          "midi": 65,
          "name": "F4",
          "ticks": 89070,
          "time": 37.112500000000004,
          "velocity": 1
        },
        {
          "duration": 0.09999999999999432,
          "durationTicks": 240,
          "midi": 72,
          "name": "C5",
          "ticks": 89070,
          "time": 37.112500000000004,
          "velocity": 1
        },
        {
          "duration": 0.10000000000000142,
          "durationTicks": 240,
          "midi": 65,
          "name": "F4",
          "ticks": 89550,
          "time": 37.3125,
          "velocity": 0.7401574803149606
        },
        {
          "duration": 0.10000000000000142,
          "durationTicks": 240,
          "midi": 72,
          "name": "C5",
          "ticks": 89550,
          "time": 37.3125,
          "velocity": 0.7401574803149606
        },
        {
          "duration": 0.10000000000000142,
          "durationTicks": 240,
          "midi": 77,
          "name": "F5",
          "ticks": 89550,
          "time": 37.3125,
          "velocity": 0.7401574803149606
        },
        {
          "duration": 0.10000000000000142,
          "durationTicks": 240,
          "midi": 77,
          "name": "F5",
          "ticks": 89790,
          "time": 37.4125,
          "velocity": 1
        },
        {
          "duration": 0.10000000000000142,
          "durationTicks": 240,
          "midi": 65,
          "name": "F4",
          "ticks": 89790,
          "time": 37.4125,
          "velocity": 1
        },
        {
          "duration": 0.10000000000000142,
          "durationTicks": 240,
          "midi": 72,
          "name": "C5",
          "ticks": 89790,
          "time": 37.4125,
          "velocity": 1
        },
        {
          "duration": 0.09999999999999432,
          "durationTicks": 240,
          "midi": 65,
          "name": "F4",
          "ticks": 90270,
          "time": 37.612500000000004,
          "velocity": 0.7401574803149606
        },
        {
          "duration": 0.09999999999999432,
          "durationTicks": 240,
          "midi": 72,
          "name": "C5",
          "ticks": 90270,
          "time": 37.612500000000004,
          "velocity": 0.7401574803149606
        },
        {
          "duration": 0.09999999999999432,
          "durationTicks": 240,
          "midi": 77,
          "name": "F5",
          "ticks": 90270,
          "time": 37.612500000000004,
          "velocity": 0.7401574803149606
        },
        {
          "duration": 0.10000000000000142,
          "durationTicks": 240,
          "midi": 77,
          "name": "F5",
          "ticks": 90510,
          "time": 37.7125,
          "velocity": 1
        },
        {
          "duration": 0.10000000000000142,
          "durationTicks": 240,
          "midi": 65,
          "name": "F4",
          "ticks": 90510,
          "time": 37.7125,
          "velocity": 1
        },
        {
          "duration": 0.10000000000000142,
          "durationTicks": 240,
          "midi": 72,
          "name": "C5",
          "ticks": 90510,
          "time": 37.7125,
          "velocity": 1
        },
        {
          "duration": 0.10000000000000142,
          "durationTicks": 240,
          "midi": 65,
          "name": "F4",
          "ticks": 90990,
          "time": 37.9125,
          "velocity": 0.7401574803149606
        },
        {
          "duration": 0.10000000000000142,
          "durationTicks": 240,
          "midi": 72,
          "name": "C5",
          "ticks": 90990,
          "time": 37.9125,
          "velocity": 0.7401574803149606
        },
        {
          "duration": 0.10000000000000142,
          "durationTicks": 240,
          "midi": 77,
          "name": "F5",
          "ticks": 90990,
          "time": 37.9125,
          "velocity": 0.7401574803149606
        },
        {
          "duration": 0.10000000000000142,
          "durationTicks": 240,
          "midi": 77,
          "name": "F5",
          "ticks": 91230,
          "time": 38.0125,
          "velocity": 1
        },
        {
          "duration": 0.10000000000000142,
          "durationTicks": 240,
          "midi": 65,
          "name": "F4",
          "ticks": 91230,
          "time": 38.0125,
          "velocity": 1
        },
        {
          "duration": 0.10000000000000142,
          "durationTicks": 240,
          "midi": 72,
          "name": "C5",
          "ticks": 91230,
          "time": 38.0125,
          "velocity": 1
        },
        {
          "duration": 0.10000000000000142,
          "durationTicks": 240,
          "midi": 75,
          "name": "D#5",
          "ticks": 91710,
          "time": 38.2125,
          "velocity": 1
        },
        {
          "duration": 0.10000000000000142,
          "durationTicks": 240,
          "midi": 63,
          "name": "D#4",
          "ticks": 91710,
          "time": 38.2125,
          "velocity": 1
        },
        {
          "duration": 0.10000000000000142,
          "durationTicks": 240,
          "midi": 70,
          "name": "A#4",
          "ticks": 91710,
          "time": 38.2125,
          "velocity": 1
        },
        {
          "duration": 0.10000000000000142,
          "durationTicks": 240,
          "midi": 72,
          "name": "C5",
          "ticks": 92190,
          "time": 38.4125,
          "velocity": 1
        },
        {
          "duration": 0.10000000000000142,
          "durationTicks": 240,
          "midi": 65,
          "name": "F4",
          "ticks": 92190,
          "time": 38.4125,
          "velocity": 1
        },
        {
          "duration": 0.10000000000000142,
          "durationTicks": 240,
          "midi": 77,
          "name": "F5",
          "ticks": 92190,
          "time": 38.4125,
          "velocity": 1
        },
        {
          "duration": 0.10000000000000142,
          "durationTicks": 240,
          "midi": 65,
          "name": "F4",
          "ticks": 92670,
          "time": 38.612500000000004,
          "velocity": 0.7401574803149606
        },
        {
          "duration": 0.10000000000000142,
          "durationTicks": 240,
          "midi": 72,
          "name": "C5",
          "ticks": 92670,
          "time": 38.612500000000004,
          "velocity": 0.7401574803149606
        },
        {
          "duration": 0.10000000000000142,
          "durationTicks": 240,
          "midi": 77,
          "name": "F5",
          "ticks": 92670,
          "time": 38.612500000000004,
          "velocity": 0.7401574803149606
        },
        {
          "duration": 0.09999999999999432,
          "durationTicks": 240,
          "midi": 72,
          "name": "C5",
          "ticks": 92910,
          "time": 38.712500000000006,
          "velocity": 1
        },
        {
          "duration": 0.09999999999999432,
          "durationTicks": 240,
          "midi": 65,
          "name": "F4",
          "ticks": 92910,
          "time": 38.712500000000006,
          "velocity": 1
        },
        {
          "duration": 0.09999999999999432,
          "durationTicks": 240,
          "midi": 77,
          "name": "F5",
          "ticks": 92910,
          "time": 38.712500000000006,
          "velocity": 1
        },
        {
          "duration": 0.10000000000000142,
          "durationTicks": 240,
          "midi": 65,
          "name": "F4",
          "ticks": 93390,
          "time": 38.9125,
          "velocity": 0.7401574803149606
        },
        {
          "duration": 0.10000000000000142,
          "durationTicks": 240,
          "midi": 72,
          "name": "C5",
          "ticks": 93390,
          "time": 38.9125,
          "velocity": 0.7401574803149606
        },
        {
          "duration": 0.10000000000000142,
          "durationTicks": 240,
          "midi": 77,
          "name": "F5",
          "ticks": 93390,
          "time": 38.9125,
          "velocity": 0.7401574803149606
        },
        {
          "duration": 0.10000000000000142,
          "durationTicks": 240,
          "midi": 72,
          "name": "C5",
          "ticks": 93630,
          "time": 39.0125,
          "velocity": 1
        },
        {
          "duration": 0.10000000000000142,
          "durationTicks": 240,
          "midi": 65,
          "name": "F4",
          "ticks": 93630,
          "time": 39.0125,
          "velocity": 1
        },
        {
          "duration": 0.10000000000000142,
          "durationTicks": 240,
          "midi": 77,
          "name": "F5",
          "ticks": 93630,
          "time": 39.0125,
          "velocity": 1
        },
        {
          "duration": 0.09999999999999432,
          "durationTicks": 240,
          "midi": 65,
          "name": "F4",
          "ticks": 94110,
          "time": 39.212500000000006,
          "velocity": 0.7401574803149606
        },
        {
          "duration": 0.09999999999999432,
          "durationTicks": 240,
          "midi": 72,
          "name": "C5",
          "ticks": 94110,
          "time": 39.212500000000006,
          "velocity": 0.7401574803149606
        },
        {
          "duration": 0.09999999999999432,
          "durationTicks": 240,
          "midi": 77,
          "name": "F5",
          "ticks": 94110,
          "time": 39.212500000000006,
          "velocity": 0.7401574803149606
        },
        {
          "duration": 0.10000000000000142,
          "durationTicks": 240,
          "midi": 72,
          "name": "C5",
          "ticks": 94350,
          "time": 39.3125,
          "velocity": 1
        },
        {
          "duration": 0.10000000000000142,
          "durationTicks": 240,
          "midi": 65,
          "name": "F4",
          "ticks": 94350,
          "time": 39.3125,
          "velocity": 1
        },
        {
          "duration": 0.10000000000000142,
          "durationTicks": 240,
          "midi": 77,
          "name": "F5",
          "ticks": 94350,
          "time": 39.3125,
          "velocity": 1
        },
        {
          "duration": 0.10000000000000142,
          "durationTicks": 240,
          "midi": 65,
          "name": "F4",
          "ticks": 94830,
          "time": 39.5125,
          "velocity": 0.7401574803149606
        },
        {
          "duration": 0.10000000000000142,
          "durationTicks": 240,
          "midi": 72,
          "name": "C5",
          "ticks": 94830,
          "time": 39.5125,
          "velocity": 0.7401574803149606
        },
        {
          "duration": 0.10000000000000142,
          "durationTicks": 240,
          "midi": 77,
          "name": "F5",
          "ticks": 94830,
          "time": 39.5125,
          "velocity": 0.7401574803149606
        },
        {
          "duration": 0.10000000000000142,
          "durationTicks": 240,
          "midi": 72,
          "name": "C5",
          "ticks": 95070,
          "time": 39.612500000000004,
          "velocity": 1
        },
        {
          "duration": 0.10000000000000142,
          "durationTicks": 240,
          "midi": 65,
          "name": "F4",
          "ticks": 95070,
          "time": 39.612500000000004,
          "velocity": 1
        },
        {
          "duration": 0.10000000000000142,
          "durationTicks": 240,
          "midi": 77,
          "name": "F5",
          "ticks": 95070,
          "time": 39.612500000000004,
          "velocity": 1
        },
        {
          "duration": 0.10000000000000142,
          "durationTicks": 240,
          "midi": 73,
          "name": "C#5",
          "ticks": 95550,
          "time": 39.8125,
          "velocity": 1
        },
        {
          "duration": 0.10000000000000142,
          "durationTicks": 240,
          "midi": 66,
          "name": "F#4",
          "ticks": 95550,
          "time": 39.8125,
          "velocity": 1
        },
        {
          "duration": 0.10000000000000142,
          "durationTicks": 240,
          "midi": 78,
          "name": "F#5",
          "ticks": 95550,
          "time": 39.8125,
          "velocity": 1
        },
        {
          "duration": 0.10000000000000142,
          "durationTicks": 240,
          "midi": 77,
          "name": "F5",
          "ticks": 96030,
          "time": 40.0125,
          "velocity": 1
        },
        {
          "duration": 0.10000000000000142,
          "durationTicks": 240,
          "midi": 65,
          "name": "F4",
          "ticks": 96030,
          "time": 40.0125,
          "velocity": 1
        },
        {
          "duration": 0.10000000000000142,
          "durationTicks": 240,
          "midi": 72,
          "name": "C5",
          "ticks": 96030,
          "time": 40.0125,
          "velocity": 1
        },
        {
          "duration": 0.09999999999999432,
          "durationTicks": 240,
          "midi": 65,
          "name": "F4",
          "ticks": 96510,
          "time": 40.212500000000006,
          "velocity": 0.7401574803149606
        },
        {
          "duration": 0.09999999999999432,
          "durationTicks": 240,
          "midi": 72,
          "name": "C5",
          "ticks": 96510,
          "time": 40.212500000000006,
          "velocity": 0.7401574803149606
        },
        {
          "duration": 0.09999999999999432,
          "durationTicks": 240,
          "midi": 77,
          "name": "F5",
          "ticks": 96510,
          "time": 40.212500000000006,
          "velocity": 0.7401574803149606
        },
        {
          "duration": 0.10000000000000142,
          "durationTicks": 240,
          "midi": 77,
          "name": "F5",
          "ticks": 96750,
          "time": 40.3125,
          "velocity": 1
        },
        {
          "duration": 0.10000000000000142,
          "durationTicks": 240,
          "midi": 65,
          "name": "F4",
          "ticks": 96750,
          "time": 40.3125,
          "velocity": 1
        },
        {
          "duration": 0.10000000000000142,
          "durationTicks": 240,
          "midi": 72,
          "name": "C5",
          "ticks": 96750,
          "time": 40.3125,
          "velocity": 1
        },
        {
          "duration": 0.10000000000000142,
          "durationTicks": 240,
          "midi": 65,
          "name": "F4",
          "ticks": 97230,
          "time": 40.5125,
          "velocity": 0.7401574803149606
        },
        {
          "duration": 0.10000000000000142,
          "durationTicks": 240,
          "midi": 72,
          "name": "C5",
          "ticks": 97230,
          "time": 40.5125,
          "velocity": 0.7401574803149606
        },
        {
          "duration": 0.10000000000000142,
          "durationTicks": 240,
          "midi": 77,
          "name": "F5",
          "ticks": 97230,
          "time": 40.5125,
          "velocity": 0.7401574803149606
        },
        {
          "duration": 0.10000000000000142,
          "durationTicks": 240,
          "midi": 77,
          "name": "F5",
          "ticks": 97470,
          "time": 40.612500000000004,
          "velocity": 1
        },
        {
          "duration": 0.10000000000000142,
          "durationTicks": 240,
          "midi": 65,
          "name": "F4",
          "ticks": 97470,
          "time": 40.612500000000004,
          "velocity": 1
        },
        {
          "duration": 0.10000000000000142,
          "durationTicks": 240,
          "midi": 72,
          "name": "C5",
          "ticks": 97470,
          "time": 40.612500000000004,
          "velocity": 1
        },
        {
          "duration": 0.10000000000000142,
          "durationTicks": 240,
          "midi": 65,
          "name": "F4",
          "ticks": 97950,
          "time": 40.8125,
          "velocity": 0.7401574803149606
        },
        {
          "duration": 0.10000000000000142,
          "durationTicks": 240,
          "midi": 72,
          "name": "C5",
          "ticks": 97950,
          "time": 40.8125,
          "velocity": 0.7401574803149606
        },
        {
          "duration": 0.10000000000000142,
          "durationTicks": 240,
          "midi": 77,
          "name": "F5",
          "ticks": 97950,
          "time": 40.8125,
          "velocity": 0.7401574803149606
        },
        {
          "duration": 0.10000000000000142,
          "durationTicks": 240,
          "midi": 77,
          "name": "F5",
          "ticks": 98190,
          "time": 40.9125,
          "velocity": 1
        },
        {
          "duration": 0.10000000000000142,
          "durationTicks": 240,
          "midi": 65,
          "name": "F4",
          "ticks": 98190,
          "time": 40.9125,
          "velocity": 1
        },
        {
          "duration": 0.10000000000000142,
          "durationTicks": 240,
          "midi": 72,
          "name": "C5",
          "ticks": 98190,
          "time": 40.9125,
          "velocity": 1
        },
        {
          "duration": 0.10000000000000142,
          "durationTicks": 240,
          "midi": 65,
          "name": "F4",
          "ticks": 98670,
          "time": 41.112500000000004,
          "velocity": 0.7401574803149606
        },
        {
          "duration": 0.10000000000000142,
          "durationTicks": 240,
          "midi": 72,
          "name": "C5",
          "ticks": 98670,
          "time": 41.112500000000004,
          "velocity": 0.7401574803149606
        },
        {
          "duration": 0.10000000000000142,
          "durationTicks": 240,
          "midi": 77,
          "name": "F5",
          "ticks": 98670,
          "time": 41.112500000000004,
          "velocity": 0.7401574803149606
        },
        {
          "duration": 0.09999999999999432,
          "durationTicks": 240,
          "midi": 77,
          "name": "F5",
          "ticks": 98910,
          "time": 41.212500000000006,
          "velocity": 1
        },
        {
          "duration": 0.09999999999999432,
          "durationTicks": 240,
          "midi": 65,
          "name": "F4",
          "ticks": 98910,
          "time": 41.212500000000006,
          "velocity": 1
        },
        {
          "duration": 0.09999999999999432,
          "durationTicks": 240,
          "midi": 72,
          "name": "C5",
          "ticks": 98910,
          "time": 41.212500000000006,
          "velocity": 1
        },
        {
          "duration": 0.10000000000000142,
          "durationTicks": 240,
          "midi": 75,
          "name": "D#5",
          "ticks": 99390,
          "time": 41.4125,
          "velocity": 1
        },
        {
          "duration": 0.10000000000000142,
          "durationTicks": 240,
          "midi": 63,
          "name": "D#4",
          "ticks": 99390,
          "time": 41.4125,
          "velocity": 1
        },
        {
          "duration": 0.10000000000000142,
          "durationTicks": 240,
          "midi": 70,
          "name": "A#4",
          "ticks": 99390,
          "time": 41.4125,
          "velocity": 1
        },
        {
          "duration": 0.10000000000000142,
          "durationTicks": 240,
          "midi": 72,
          "name": "C5",
          "ticks": 99870,
          "time": 41.612500000000004,
          "velocity": 1
        },
        {
          "duration": 0.10000000000000142,
          "durationTicks": 240,
          "midi": 65,
          "name": "F4",
          "ticks": 99870,
          "time": 41.612500000000004,
          "velocity": 1
        },
        {
          "duration": 0.10000000000000142,
          "durationTicks": 240,
          "midi": 77,
          "name": "F5",
          "ticks": 99870,
          "time": 41.612500000000004,
          "velocity": 1
        },
        {
          "duration": 0.10000000000000142,
          "durationTicks": 240,
          "midi": 65,
          "name": "F4",
          "ticks": 100350,
          "time": 41.8125,
          "velocity": 0.7401574803149606
        },
        {
          "duration": 0.10000000000000142,
          "durationTicks": 240,
          "midi": 72,
          "name": "C5",
          "ticks": 100350,
          "time": 41.8125,
          "velocity": 0.7401574803149606
        },
        {
          "duration": 0.10000000000000142,
          "durationTicks": 240,
          "midi": 77,
          "name": "F5",
          "ticks": 100350,
          "time": 41.8125,
          "velocity": 0.7401574803149606
        },
        {
          "duration": 0.10000000000000142,
          "durationTicks": 240,
          "midi": 72,
          "name": "C5",
          "ticks": 100590,
          "time": 41.9125,
          "velocity": 1
        },
        {
          "duration": 0.10000000000000142,
          "durationTicks": 240,
          "midi": 65,
          "name": "F4",
          "ticks": 100590,
          "time": 41.9125,
          "velocity": 1
        },
        {
          "duration": 0.10000000000000142,
          "durationTicks": 240,
          "midi": 77,
          "name": "F5",
          "ticks": 100590,
          "time": 41.9125,
          "velocity": 1
        },
        {
          "duration": 0.10000000000000142,
          "durationTicks": 240,
          "midi": 65,
          "name": "F4",
          "ticks": 101070,
          "time": 42.112500000000004,
          "velocity": 0.7401574803149606
        },
        {
          "duration": 0.10000000000000142,
          "durationTicks": 240,
          "midi": 72,
          "name": "C5",
          "ticks": 101070,
          "time": 42.112500000000004,
          "velocity": 0.7401574803149606
        },
        {
          "duration": 0.10000000000000142,
          "durationTicks": 240,
          "midi": 77,
          "name": "F5",
          "ticks": 101070,
          "time": 42.112500000000004,
          "velocity": 0.7401574803149606
        },
        {
          "duration": 0.09999999999999432,
          "durationTicks": 240,
          "midi": 72,
          "name": "C5",
          "ticks": 101310,
          "time": 42.212500000000006,
          "velocity": 1
        },
        {
          "duration": 0.09999999999999432,
          "durationTicks": 240,
          "midi": 65,
          "name": "F4",
          "ticks": 101310,
          "time": 42.212500000000006,
          "velocity": 1
        },
        {
          "duration": 0.09999999999999432,
          "durationTicks": 240,
          "midi": 77,
          "name": "F5",
          "ticks": 101310,
          "time": 42.212500000000006,
          "velocity": 1
        },
        {
          "duration": 0.10000000000000142,
          "durationTicks": 240,
          "midi": 65,
          "name": "F4",
          "ticks": 101790,
          "time": 42.4125,
          "velocity": 0.7401574803149606
        },
        {
          "duration": 0.10000000000000142,
          "durationTicks": 240,
          "midi": 72,
          "name": "C5",
          "ticks": 101790,
          "time": 42.4125,
          "velocity": 0.7401574803149606
        },
        {
          "duration": 0.10000000000000142,
          "durationTicks": 240,
          "midi": 77,
          "name": "F5",
          "ticks": 101790,
          "time": 42.4125,
          "velocity": 0.7401574803149606
        },
        {
          "duration": 0.10000000000000142,
          "durationTicks": 240,
          "midi": 72,
          "name": "C5",
          "ticks": 102030,
          "time": 42.5125,
          "velocity": 1
        },
        {
          "duration": 0.10000000000000142,
          "durationTicks": 240,
          "midi": 65,
          "name": "F4",
          "ticks": 102030,
          "time": 42.5125,
          "velocity": 1
        },
        {
          "duration": 0.10000000000000142,
          "durationTicks": 240,
          "midi": 77,
          "name": "F5",
          "ticks": 102030,
          "time": 42.5125,
          "velocity": 1
        },
        {
          "duration": 0.09999999999999432,
          "durationTicks": 240,
          "midi": 65,
          "name": "F4",
          "ticks": 102510,
          "time": 42.712500000000006,
          "velocity": 0.7401574803149606
        },
        {
          "duration": 0.09999999999999432,
          "durationTicks": 240,
          "midi": 72,
          "name": "C5",
          "ticks": 102510,
          "time": 42.712500000000006,
          "velocity": 0.7401574803149606
        },
        {
          "duration": 0.09999999999999432,
          "durationTicks": 240,
          "midi": 77,
          "name": "F5",
          "ticks": 102510,
          "time": 42.712500000000006,
          "velocity": 0.7401574803149606
        },
        {
          "duration": 0.10000000000000142,
          "durationTicks": 240,
          "midi": 72,
          "name": "C5",
          "ticks": 102750,
          "time": 42.8125,
          "velocity": 1
        },
        {
          "duration": 0.10000000000000142,
          "durationTicks": 240,
          "midi": 65,
          "name": "F4",
          "ticks": 102750,
          "time": 42.8125,
          "velocity": 1
        },
        {
          "duration": 0.10000000000000142,
          "durationTicks": 240,
          "midi": 77,
          "name": "F5",
          "ticks": 102750,
          "time": 42.8125,
          "velocity": 1
        },
        {
          "duration": 0.10000000000000142,
          "durationTicks": 240,
          "midi": 73,
          "name": "C#5",
          "ticks": 103230,
          "time": 43.0125,
          "velocity": 1
        },
        {
          "duration": 0.10000000000000142,
          "durationTicks": 240,
          "midi": 66,
          "name": "F#4",
          "ticks": 103230,
          "time": 43.0125,
          "velocity": 1
        },
        {
          "duration": 0.10000000000000142,
          "durationTicks": 240,
          "midi": 78,
          "name": "F#5",
          "ticks": 103230,
          "time": 43.0125,
          "velocity": 1
        },
        {
          "duration": 0.09999999999999432,
          "durationTicks": 240,
          "midi": 77,
          "name": "F5",
          "ticks": 103710,
          "time": 43.212500000000006,
          "velocity": 1
        },
        {
          "duration": 0.09999999999999432,
          "durationTicks": 240,
          "midi": 65,
          "name": "F4",
          "ticks": 103710,
          "time": 43.212500000000006,
          "velocity": 1
        },
        {
          "duration": 0.09999999999999432,
          "durationTicks": 240,
          "midi": 72,
          "name": "C5",
          "ticks": 103710,
          "time": 43.212500000000006,
          "velocity": 1
        },
        {
          "duration": 0.10000000000000142,
          "durationTicks": 240,
          "midi": 65,
          "name": "F4",
          "ticks": 104190,
          "time": 43.4125,
          "velocity": 0.7401574803149606
        },
        {
          "duration": 0.10000000000000142,
          "durationTicks": 240,
          "midi": 72,
          "name": "C5",
          "ticks": 104190,
          "time": 43.4125,
          "velocity": 0.7401574803149606
        },
        {
          "duration": 0.10000000000000142,
          "durationTicks": 240,
          "midi": 77,
          "name": "F5",
          "ticks": 104190,
          "time": 43.4125,
          "velocity": 0.7401574803149606
        },
        {
          "duration": 0.10000000000000142,
          "durationTicks": 240,
          "midi": 77,
          "name": "F5",
          "ticks": 104430,
          "time": 43.5125,
          "velocity": 1
        },
        {
          "duration": 0.10000000000000142,
          "durationTicks": 240,
          "midi": 65,
          "name": "F4",
          "ticks": 104430,
          "time": 43.5125,
          "velocity": 1
        },
        {
          "duration": 0.10000000000000142,
          "durationTicks": 240,
          "midi": 72,
          "name": "C5",
          "ticks": 104430,
          "time": 43.5125,
          "velocity": 1
        },
        {
          "duration": 0.09999999999999432,
          "durationTicks": 240,
          "midi": 65,
          "name": "F4",
          "ticks": 104910,
          "time": 43.712500000000006,
          "velocity": 0.7401574803149606
        },
        {
          "duration": 0.09999999999999432,
          "durationTicks": 240,
          "midi": 72,
          "name": "C5",
          "ticks": 104910,
          "time": 43.712500000000006,
          "velocity": 0.7401574803149606
        },
        {
          "duration": 0.09999999999999432,
          "durationTicks": 240,
          "midi": 77,
          "name": "F5",
          "ticks": 104910,
          "time": 43.712500000000006,
          "velocity": 0.7401574803149606
        },
        {
          "duration": 0.10000000000000142,
          "durationTicks": 240,
          "midi": 77,
          "name": "F5",
          "ticks": 105150,
          "time": 43.8125,
          "velocity": 1
        },
        {
          "duration": 0.10000000000000142,
          "durationTicks": 240,
          "midi": 65,
          "name": "F4",
          "ticks": 105150,
          "time": 43.8125,
          "velocity": 1
        },
        {
          "duration": 0.10000000000000142,
          "durationTicks": 240,
          "midi": 72,
          "name": "C5",
          "ticks": 105150,
          "time": 43.8125,
          "velocity": 1
        },
        {
          "duration": 0.10000000000000142,
          "durationTicks": 240,
          "midi": 65,
          "name": "F4",
          "ticks": 105630,
          "time": 44.0125,
          "velocity": 0.7401574803149606
        },
        {
          "duration": 0.10000000000000142,
          "durationTicks": 240,
          "midi": 72,
          "name": "C5",
          "ticks": 105630,
          "time": 44.0125,
          "velocity": 0.7401574803149606
        },
        {
          "duration": 0.10000000000000142,
          "durationTicks": 240,
          "midi": 77,
          "name": "F5",
          "ticks": 105630,
          "time": 44.0125,
          "velocity": 0.7401574803149606
        },
        {
          "duration": 0.10000000000000142,
          "durationTicks": 240,
          "midi": 77,
          "name": "F5",
          "ticks": 105870,
          "time": 44.112500000000004,
          "velocity": 1
        },
        {
          "duration": 0.10000000000000142,
          "durationTicks": 240,
          "midi": 65,
          "name": "F4",
          "ticks": 105870,
          "time": 44.112500000000004,
          "velocity": 1
        },
        {
          "duration": 0.10000000000000142,
          "durationTicks": 240,
          "midi": 72,
          "name": "C5",
          "ticks": 105870,
          "time": 44.112500000000004,
          "velocity": 1
        },
        {
          "duration": 0.10000000000000142,
          "durationTicks": 240,
          "midi": 65,
          "name": "F4",
          "ticks": 106350,
          "time": 44.3125,
          "velocity": 0.7401574803149606
        },
        {
          "duration": 0.10000000000000142,
          "durationTicks": 240,
          "midi": 72,
          "name": "C5",
          "ticks": 106350,
          "time": 44.3125,
          "velocity": 0.7401574803149606
        },
        {
          "duration": 0.10000000000000142,
          "durationTicks": 240,
          "midi": 77,
          "name": "F5",
          "ticks": 106350,
          "time": 44.3125,
          "velocity": 0.7401574803149606
        },
        {
          "duration": 0.10000000000000142,
          "durationTicks": 240,
          "midi": 77,
          "name": "F5",
          "ticks": 106590,
          "time": 44.4125,
          "velocity": 1
        },
        {
          "duration": 0.10000000000000142,
          "durationTicks": 240,
          "midi": 65,
          "name": "F4",
          "ticks": 106590,
          "time": 44.4125,
          "velocity": 1
        },
        {
          "duration": 0.10000000000000142,
          "durationTicks": 240,
          "midi": 72,
          "name": "C5",
          "ticks": 106590,
          "time": 44.4125,
          "velocity": 1
        },
        {
          "duration": 0.10000000000000142,
          "durationTicks": 240,
          "midi": 75,
          "name": "D#5",
          "ticks": 107070,
          "time": 44.612500000000004,
          "velocity": 1
        },
        {
          "duration": 0.10000000000000142,
          "durationTicks": 240,
          "midi": 63,
          "name": "D#4",
          "ticks": 107070,
          "time": 44.612500000000004,
          "velocity": 1
        },
        {
          "duration": 0.10000000000000142,
          "durationTicks": 240,
          "midi": 70,
          "name": "A#4",
          "ticks": 107070,
          "time": 44.612500000000004,
          "velocity": 1
        },
        {
          "duration": 0.10000000000000142,
          "durationTicks": 240,
          "midi": 72,
          "name": "C5",
          "ticks": 107550,
          "time": 44.8125,
          "velocity": 1
        },
        {
          "duration": 0.10000000000000142,
          "durationTicks": 240,
          "midi": 65,
          "name": "F4",
          "ticks": 107550,
          "time": 44.8125,
          "velocity": 1
        },
        {
          "duration": 0.10000000000000142,
          "durationTicks": 240,
          "midi": 77,
          "name": "F5",
          "ticks": 107550,
          "time": 44.8125,
          "velocity": 1
        },
        {
          "duration": 0.10000000000000142,
          "durationTicks": 240,
          "midi": 65,
          "name": "F4",
          "ticks": 108030,
          "time": 45.0125,
          "velocity": 0.7401574803149606
        },
        {
          "duration": 0.10000000000000142,
          "durationTicks": 240,
          "midi": 72,
          "name": "C5",
          "ticks": 108030,
          "time": 45.0125,
          "velocity": 0.7401574803149606
        },
        {
          "duration": 0.10000000000000142,
          "durationTicks": 240,
          "midi": 77,
          "name": "F5",
          "ticks": 108030,
          "time": 45.0125,
          "velocity": 0.7401574803149606
        },
        {
          "duration": 0.10000000000000142,
          "durationTicks": 240,
          "midi": 72,
          "name": "C5",
          "ticks": 108270,
          "time": 45.112500000000004,
          "velocity": 1
        },
        {
          "duration": 0.10000000000000142,
          "durationTicks": 240,
          "midi": 65,
          "name": "F4",
          "ticks": 108270,
          "time": 45.112500000000004,
          "velocity": 1
        },
        {
          "duration": 0.10000000000000142,
          "durationTicks": 240,
          "midi": 77,
          "name": "F5",
          "ticks": 108270,
          "time": 45.112500000000004,
          "velocity": 1
        },
        {
          "duration": 0.10000000000000142,
          "durationTicks": 240,
          "midi": 65,
          "name": "F4",
          "ticks": 108750,
          "time": 45.3125,
          "velocity": 0.7401574803149606
        },
        {
          "duration": 0.10000000000000142,
          "durationTicks": 240,
          "midi": 72,
          "name": "C5",
          "ticks": 108750,
          "time": 45.3125,
          "velocity": 0.7401574803149606
        },
        {
          "duration": 0.10000000000000142,
          "durationTicks": 240,
          "midi": 77,
          "name": "F5",
          "ticks": 108750,
          "time": 45.3125,
          "velocity": 0.7401574803149606
        },
        {
          "duration": 0.10000000000000142,
          "durationTicks": 240,
          "midi": 72,
          "name": "C5",
          "ticks": 108990,
          "time": 45.4125,
          "velocity": 1
        },
        {
          "duration": 0.10000000000000142,
          "durationTicks": 240,
          "midi": 65,
          "name": "F4",
          "ticks": 108990,
          "time": 45.4125,
          "velocity": 1
        },
        {
          "duration": 0.10000000000000142,
          "durationTicks": 240,
          "midi": 77,
          "name": "F5",
          "ticks": 108990,
          "time": 45.4125,
          "velocity": 1
        },
        {
          "duration": 0.10000000000000142,
          "durationTicks": 240,
          "midi": 65,
          "name": "F4",
          "ticks": 109470,
          "time": 45.612500000000004,
          "velocity": 0.7401574803149606
        },
        {
          "duration": 0.10000000000000142,
          "durationTicks": 240,
          "midi": 72,
          "name": "C5",
          "ticks": 109470,
          "time": 45.612500000000004,
          "velocity": 0.7401574803149606
        },
        {
          "duration": 0.10000000000000142,
          "durationTicks": 240,
          "midi": 77,
          "name": "F5",
          "ticks": 109470,
          "time": 45.612500000000004,
          "velocity": 0.7401574803149606
        },
        {
          "duration": 0.09999999999999432,
          "durationTicks": 240,
          "midi": 72,
          "name": "C5",
          "ticks": 109710,
          "time": 45.712500000000006,
          "velocity": 1
        },
        {
          "duration": 0.09999999999999432,
          "durationTicks": 240,
          "midi": 65,
          "name": "F4",
          "ticks": 109710,
          "time": 45.712500000000006,
          "velocity": 1
        },
        {
          "duration": 0.09999999999999432,
          "durationTicks": 240,
          "midi": 77,
          "name": "F5",
          "ticks": 109710,
          "time": 45.712500000000006,
          "velocity": 1
        },
        {
          "duration": 0.10000000000000142,
          "durationTicks": 240,
          "midi": 65,
          "name": "F4",
          "ticks": 110190,
          "time": 45.9125,
          "velocity": 0.7401574803149606
        },
        {
          "duration": 0.10000000000000142,
          "durationTicks": 240,
          "midi": 72,
          "name": "C5",
          "ticks": 110190,
          "time": 45.9125,
          "velocity": 0.7401574803149606
        },
        {
          "duration": 0.10000000000000142,
          "durationTicks": 240,
          "midi": 77,
          "name": "F5",
          "ticks": 110190,
          "time": 45.9125,
          "velocity": 0.7401574803149606
        },
        {
          "duration": 0.10000000000000142,
          "durationTicks": 240,
          "midi": 72,
          "name": "C5",
          "ticks": 110430,
          "time": 46.0125,
          "velocity": 1
        },
        {
          "duration": 0.10000000000000142,
          "durationTicks": 240,
          "midi": 65,
          "name": "F4",
          "ticks": 110430,
          "time": 46.0125,
          "velocity": 1
        },
        {
          "duration": 0.10000000000000142,
          "durationTicks": 240,
          "midi": 77,
          "name": "F5",
          "ticks": 110430,
          "time": 46.0125,
          "velocity": 1
        },
        {
          "duration": 0.09999999999999432,
          "durationTicks": 240,
          "midi": 73,
          "name": "C#5",
          "ticks": 110910,
          "time": 46.212500000000006,
          "velocity": 1
        },
        {
          "duration": 0.09999999999999432,
          "durationTicks": 240,
          "midi": 66,
          "name": "F#4",
          "ticks": 110910,
          "time": 46.212500000000006,
          "velocity": 1
        },
        {
          "duration": 0.09999999999999432,
          "durationTicks": 240,
          "midi": 78,
          "name": "F#5",
          "ticks": 110910,
          "time": 46.212500000000006,
          "velocity": 1
        },
        {
          "duration": 0.10000000000000142,
          "durationTicks": 240,
          "midi": 77,
          "name": "F5",
          "ticks": 111390,
          "time": 46.4125,
          "velocity": 1
        },
        {
          "duration": 0.10000000000000142,
          "durationTicks": 240,
          "midi": 65,
          "name": "F4",
          "ticks": 111390,
          "time": 46.4125,
          "velocity": 1
        },
        {
          "duration": 0.10000000000000142,
          "durationTicks": 240,
          "midi": 72,
          "name": "C5",
          "ticks": 111390,
          "time": 46.4125,
          "velocity": 1
        },
        {
          "duration": 0.10000000000000142,
          "durationTicks": 240,
          "midi": 65,
          "name": "F4",
          "ticks": 111870,
          "time": 46.612500000000004,
          "velocity": 0.7401574803149606
        },
        {
          "duration": 0.10000000000000142,
          "durationTicks": 240,
          "midi": 72,
          "name": "C5",
          "ticks": 111870,
          "time": 46.612500000000004,
          "velocity": 0.7401574803149606
        },
        {
          "duration": 0.10000000000000142,
          "durationTicks": 240,
          "midi": 77,
          "name": "F5",
          "ticks": 111870,
          "time": 46.612500000000004,
          "velocity": 0.7401574803149606
        },
        {
          "duration": 0.09999999999999432,
          "durationTicks": 240,
          "midi": 77,
          "name": "F5",
          "ticks": 112110,
          "time": 46.712500000000006,
          "velocity": 1
        },
        {
          "duration": 0.09999999999999432,
          "durationTicks": 240,
          "midi": 65,
          "name": "F4",
          "ticks": 112110,
          "time": 46.712500000000006,
          "velocity": 1
        },
        {
          "duration": 0.09999999999999432,
          "durationTicks": 240,
          "midi": 72,
          "name": "C5",
          "ticks": 112110,
          "time": 46.712500000000006,
          "velocity": 1
        },
        {
          "duration": 0.10000000000000142,
          "durationTicks": 240,
          "midi": 65,
          "name": "F4",
          "ticks": 112590,
          "time": 46.9125,
          "velocity": 0.7401574803149606
        },
        {
          "duration": 0.10000000000000142,
          "durationTicks": 240,
          "midi": 72,
          "name": "C5",
          "ticks": 112590,
          "time": 46.9125,
          "velocity": 0.7401574803149606
        },
        {
          "duration": 0.10000000000000142,
          "durationTicks": 240,
          "midi": 77,
          "name": "F5",
          "ticks": 112590,
          "time": 46.9125,
          "velocity": 0.7401574803149606
        },
        {
          "duration": 0.10000000000000142,
          "durationTicks": 240,
          "midi": 77,
          "name": "F5",
          "ticks": 112830,
          "time": 47.0125,
          "velocity": 1
        },
        {
          "duration": 0.10000000000000142,
          "durationTicks": 240,
          "midi": 65,
          "name": "F4",
          "ticks": 112830,
          "time": 47.0125,
          "velocity": 1
        },
        {
          "duration": 0.10000000000000142,
          "durationTicks": 240,
          "midi": 72,
          "name": "C5",
          "ticks": 112830,
          "time": 47.0125,
          "velocity": 1
        },
        {
          "duration": 0.09999999999999432,
          "durationTicks": 240,
          "midi": 65,
          "name": "F4",
          "ticks": 113310,
          "time": 47.212500000000006,
          "velocity": 0.7401574803149606
        },
        {
          "duration": 0.09999999999999432,
          "durationTicks": 240,
          "midi": 72,
          "name": "C5",
          "ticks": 113310,
          "time": 47.212500000000006,
          "velocity": 0.7401574803149606
        },
        {
          "duration": 0.09999999999999432,
          "durationTicks": 240,
          "midi": 77,
          "name": "F5",
          "ticks": 113310,
          "time": 47.212500000000006,
          "velocity": 0.7401574803149606
        },
        {
          "duration": 0.10000000000000142,
          "durationTicks": 240,
          "midi": 77,
          "name": "F5",
          "ticks": 113550,
          "time": 47.3125,
          "velocity": 1
        },
        {
          "duration": 0.10000000000000142,
          "durationTicks": 240,
          "midi": 65,
          "name": "F4",
          "ticks": 113550,
          "time": 47.3125,
          "velocity": 1
        },
        {
          "duration": 0.10000000000000142,
          "durationTicks": 240,
          "midi": 72,
          "name": "C5",
          "ticks": 113550,
          "time": 47.3125,
          "velocity": 1
        },
        {
          "duration": 0.10000000000000142,
          "durationTicks": 240,
          "midi": 65,
          "name": "F4",
          "ticks": 114030,
          "time": 47.5125,
          "velocity": 0.7401574803149606
        },
        {
          "duration": 0.10000000000000142,
          "durationTicks": 240,
          "midi": 72,
          "name": "C5",
          "ticks": 114030,
          "time": 47.5125,
          "velocity": 0.7401574803149606
        },
        {
          "duration": 0.10000000000000142,
          "durationTicks": 240,
          "midi": 77,
          "name": "F5",
          "ticks": 114030,
          "time": 47.5125,
          "velocity": 0.7401574803149606
        },
        {
          "duration": 0.10000000000000142,
          "durationTicks": 240,
          "midi": 77,
          "name": "F5",
          "ticks": 114270,
          "time": 47.612500000000004,
          "velocity": 1
        },
        {
          "duration": 0.10000000000000142,
          "durationTicks": 240,
          "midi": 65,
          "name": "F4",
          "ticks": 114270,
          "time": 47.612500000000004,
          "velocity": 1
        },
        {
          "duration": 0.10000000000000142,
          "durationTicks": 240,
          "midi": 72,
          "name": "C5",
          "ticks": 114270,
          "time": 47.612500000000004,
          "velocity": 1
        },
        {
          "duration": 0.10000000000000142,
          "durationTicks": 240,
          "midi": 75,
          "name": "D#5",
          "ticks": 114750,
          "time": 47.8125,
          "velocity": 1
        },
        {
          "duration": 0.10000000000000142,
          "durationTicks": 240,
          "midi": 63,
          "name": "D#4",
          "ticks": 114750,
          "time": 47.8125,
          "velocity": 1
        },
        {
          "duration": 0.10000000000000142,
          "durationTicks": 240,
          "midi": 70,
          "name": "A#4",
          "ticks": 114750,
          "time": 47.8125,
          "velocity": 1
        },
        {
          "duration": 0.10000000000000142,
          "durationTicks": 240,
          "midi": 72,
          "name": "C5",
          "ticks": 115230,
          "time": 48.0125,
          "velocity": 1
        },
        {
          "duration": 0.10000000000000142,
          "durationTicks": 240,
          "midi": 65,
          "name": "F4",
          "ticks": 115230,
          "time": 48.0125,
          "velocity": 1
        },
        {
          "duration": 0.10000000000000142,
          "durationTicks": 240,
          "midi": 77,
          "name": "F5",
          "ticks": 115230,
          "time": 48.0125,
          "velocity": 1
        },
        {
          "duration": 0.09999999999999432,
          "durationTicks": 240,
          "midi": 65,
          "name": "F4",
          "ticks": 115710,
          "time": 48.212500000000006,
          "velocity": 0.7401574803149606
        },
        {
          "duration": 0.09999999999999432,
          "durationTicks": 240,
          "midi": 72,
          "name": "C5",
          "ticks": 115710,
          "time": 48.212500000000006,
          "velocity": 0.7401574803149606
        },
        {
          "duration": 0.09999999999999432,
          "durationTicks": 240,
          "midi": 77,
          "name": "F5",
          "ticks": 115710,
          "time": 48.212500000000006,
          "velocity": 0.7401574803149606
        },
        {
          "duration": 0.10000000000000142,
          "durationTicks": 240,
          "midi": 72,
          "name": "C5",
          "ticks": 115950,
          "time": 48.3125,
          "velocity": 1
        },
        {
          "duration": 0.10000000000000142,
          "durationTicks": 240,
          "midi": 65,
          "name": "F4",
          "ticks": 115950,
          "time": 48.3125,
          "velocity": 1
        },
        {
          "duration": 0.10000000000000142,
          "durationTicks": 240,
          "midi": 77,
          "name": "F5",
          "ticks": 115950,
          "time": 48.3125,
          "velocity": 1
        },
        {
          "duration": 0.10000000000000142,
          "durationTicks": 240,
          "midi": 65,
          "name": "F4",
          "ticks": 116430,
          "time": 48.5125,
          "velocity": 0.7401574803149606
        },
        {
          "duration": 0.10000000000000142,
          "durationTicks": 240,
          "midi": 72,
          "name": "C5",
          "ticks": 116430,
          "time": 48.5125,
          "velocity": 0.7401574803149606
        },
        {
          "duration": 0.10000000000000142,
          "durationTicks": 240,
          "midi": 77,
          "name": "F5",
          "ticks": 116430,
          "time": 48.5125,
          "velocity": 0.7401574803149606
        },
        {
          "duration": 0.10000000000000142,
          "durationTicks": 240,
          "midi": 72,
          "name": "C5",
          "ticks": 116670,
          "time": 48.612500000000004,
          "velocity": 1
        },
        {
          "duration": 0.10000000000000142,
          "durationTicks": 240,
          "midi": 65,
          "name": "F4",
          "ticks": 116670,
          "time": 48.612500000000004,
          "velocity": 1
        },
        {
          "duration": 0.10000000000000142,
          "durationTicks": 240,
          "midi": 77,
          "name": "F5",
          "ticks": 116670,
          "time": 48.612500000000004,
          "velocity": 1
        },
        {
          "duration": 0.10000000000000142,
          "durationTicks": 240,
          "midi": 65,
          "name": "F4",
          "ticks": 117150,
          "time": 48.8125,
          "velocity": 0.7401574803149606
        },
        {
          "duration": 0.10000000000000142,
          "durationTicks": 240,
          "midi": 72,
          "name": "C5",
          "ticks": 117150,
          "time": 48.8125,
          "velocity": 0.7401574803149606
        },
        {
          "duration": 0.10000000000000142,
          "durationTicks": 240,
          "midi": 77,
          "name": "F5",
          "ticks": 117150,
          "time": 48.8125,
          "velocity": 0.7401574803149606
        },
        {
          "duration": 0.10000000000000142,
          "durationTicks": 240,
          "midi": 72,
          "name": "C5",
          "ticks": 117390,
          "time": 48.9125,
          "velocity": 1
        },
        {
          "duration": 0.10000000000000142,
          "durationTicks": 240,
          "midi": 65,
          "name": "F4",
          "ticks": 117390,
          "time": 48.9125,
          "velocity": 1
        },
        {
          "duration": 0.10000000000000142,
          "durationTicks": 240,
          "midi": 77,
          "name": "F5",
          "ticks": 117390,
          "time": 48.9125,
          "velocity": 1
        },
        {
          "duration": 0.10000000000000142,
          "durationTicks": 240,
          "midi": 65,
          "name": "F4",
          "ticks": 117870,
          "time": 49.112500000000004,
          "velocity": 0.7401574803149606
        },
        {
          "duration": 0.10000000000000142,
          "durationTicks": 240,
          "midi": 72,
          "name": "C5",
          "ticks": 117870,
          "time": 49.112500000000004,
          "velocity": 0.7401574803149606
        },
        {
          "duration": 0.10000000000000142,
          "durationTicks": 240,
          "midi": 77,
          "name": "F5",
          "ticks": 117870,
          "time": 49.112500000000004,
          "velocity": 0.7401574803149606
        },
        {
          "duration": 0.09999999999999432,
          "durationTicks": 240,
          "midi": 72,
          "name": "C5",
          "ticks": 118110,
          "time": 49.212500000000006,
          "velocity": 1
        },
        {
          "duration": 0.09999999999999432,
          "durationTicks": 240,
          "midi": 65,
          "name": "F4",
          "ticks": 118110,
          "time": 49.212500000000006,
          "velocity": 1
        },
        {
          "duration": 0.09999999999999432,
          "durationTicks": 240,
          "midi": 77,
          "name": "F5",
          "ticks": 118110,
          "time": 49.212500000000006,
          "velocity": 1
        },
        {
          "duration": 0.10000000000000142,
          "durationTicks": 240,
          "midi": 73,
          "name": "C#5",
          "ticks": 118590,
          "time": 49.4125,
          "velocity": 1
        },
        {
          "duration": 0.10000000000000142,
          "durationTicks": 240,
          "midi": 66,
          "name": "F#4",
          "ticks": 118590,
          "time": 49.4125,
          "velocity": 1
        },
        {
          "duration": 0.10000000000000142,
          "durationTicks": 240,
          "midi": 78,
          "name": "F#5",
          "ticks": 118590,
          "time": 49.4125,
          "velocity": 1
        },
        {
          "duration": 0.10000000000000142,
          "durationTicks": 240,
          "midi": 77,
          "name": "F5",
          "ticks": 119070,
          "time": 49.612500000000004,
          "velocity": 1
        },
        {
          "duration": 0.10000000000000142,
          "durationTicks": 240,
          "midi": 65,
          "name": "F4",
          "ticks": 119070,
          "time": 49.612500000000004,
          "velocity": 1
        },
        {
          "duration": 0.10000000000000142,
          "durationTicks": 240,
          "midi": 72,
          "name": "C5",
          "ticks": 119070,
          "time": 49.612500000000004,
          "velocity": 1
        },
        {
          "duration": 0.10000000000000142,
          "durationTicks": 240,
          "midi": 65,
          "name": "F4",
          "ticks": 119550,
          "time": 49.8125,
          "velocity": 0.7401574803149606
        },
        {
          "duration": 0.10000000000000142,
          "durationTicks": 240,
          "midi": 72,
          "name": "C5",
          "ticks": 119550,
          "time": 49.8125,
          "velocity": 0.7401574803149606
        },
        {
          "duration": 0.10000000000000142,
          "durationTicks": 240,
          "midi": 77,
          "name": "F5",
          "ticks": 119550,
          "time": 49.8125,
          "velocity": 0.7401574803149606
        },
        {
          "duration": 0.10000000000000142,
          "durationTicks": 240,
          "midi": 77,
          "name": "F5",
          "ticks": 119790,
          "time": 49.9125,
          "velocity": 1
        },
        {
          "duration": 0.10000000000000142,
          "durationTicks": 240,
          "midi": 65,
          "name": "F4",
          "ticks": 119790,
          "time": 49.9125,
          "velocity": 1
        },
        {
          "duration": 0.10000000000000142,
          "durationTicks": 240,
          "midi": 72,
          "name": "C5",
          "ticks": 119790,
          "time": 49.9125,
          "velocity": 1
        },
        {
          "duration": 0.10000000000000142,
          "durationTicks": 240,
          "midi": 65,
          "name": "F4",
          "ticks": 120270,
          "time": 50.112500000000004,
          "velocity": 0.7401574803149606
        },
        {
          "duration": 0.10000000000000142,
          "durationTicks": 240,
          "midi": 72,
          "name": "C5",
          "ticks": 120270,
          "time": 50.112500000000004,
          "velocity": 0.7401574803149606
        },
        {
          "duration": 0.10000000000000142,
          "durationTicks": 240,
          "midi": 77,
          "name": "F5",
          "ticks": 120270,
          "time": 50.112500000000004,
          "velocity": 0.7401574803149606
        },
        {
          "duration": 0.09999999999999432,
          "durationTicks": 240,
          "midi": 77,
          "name": "F5",
          "ticks": 120510,
          "time": 50.212500000000006,
          "velocity": 1
        },
        {
          "duration": 0.09999999999999432,
          "durationTicks": 240,
          "midi": 65,
          "name": "F4",
          "ticks": 120510,
          "time": 50.212500000000006,
          "velocity": 1
        },
        {
          "duration": 0.09999999999999432,
          "durationTicks": 240,
          "midi": 72,
          "name": "C5",
          "ticks": 120510,
          "time": 50.212500000000006,
          "velocity": 1
        },
        {
          "duration": 0.10000000000000142,
          "durationTicks": 240,
          "midi": 65,
          "name": "F4",
          "ticks": 120990,
          "time": 50.4125,
          "velocity": 0.7401574803149606
        },
        {
          "duration": 0.10000000000000142,
          "durationTicks": 240,
          "midi": 72,
          "name": "C5",
          "ticks": 120990,
          "time": 50.4125,
          "velocity": 0.7401574803149606
        },
        {
          "duration": 0.10000000000000142,
          "durationTicks": 240,
          "midi": 77,
          "name": "F5",
          "ticks": 120990,
          "time": 50.4125,
          "velocity": 0.7401574803149606
        },
        {
          "duration": 0.10000000000000142,
          "durationTicks": 240,
          "midi": 77,
          "name": "F5",
          "ticks": 121230,
          "time": 50.5125,
          "velocity": 1
        },
        {
          "duration": 0.10000000000000142,
          "durationTicks": 240,
          "midi": 65,
          "name": "F4",
          "ticks": 121230,
          "time": 50.5125,
          "velocity": 1
        },
        {
          "duration": 0.10000000000000142,
          "durationTicks": 240,
          "midi": 72,
          "name": "C5",
          "ticks": 121230,
          "time": 50.5125,
          "velocity": 1
        },
        {
          "duration": 0.09999999999999432,
          "durationTicks": 240,
          "midi": 65,
          "name": "F4",
          "ticks": 121710,
          "time": 50.712500000000006,
          "velocity": 0.7401574803149606
        },
        {
          "duration": 0.09999999999999432,
          "durationTicks": 240,
          "midi": 72,
          "name": "C5",
          "ticks": 121710,
          "time": 50.712500000000006,
          "velocity": 0.7401574803149606
        },
        {
          "duration": 0.09999999999999432,
          "durationTicks": 240,
          "midi": 77,
          "name": "F5",
          "ticks": 121710,
          "time": 50.712500000000006,
          "velocity": 0.7401574803149606
        },
        {
          "duration": 0.10000000000000142,
          "durationTicks": 240,
          "midi": 77,
          "name": "F5",
          "ticks": 121950,
          "time": 50.8125,
          "velocity": 1
        },
        {
          "duration": 0.10000000000000142,
          "durationTicks": 240,
          "midi": 65,
          "name": "F4",
          "ticks": 121950,
          "time": 50.8125,
          "velocity": 1
        },
        {
          "duration": 0.10000000000000142,
          "durationTicks": 240,
          "midi": 72,
          "name": "C5",
          "ticks": 121950,
          "time": 50.8125,
          "velocity": 1
        },
        {
          "duration": 0.10000000000000142,
          "durationTicks": 240,
          "midi": 75,
          "name": "D#5",
          "ticks": 122430,
          "time": 51.0125,
          "velocity": 1
        },
        {
          "duration": 0.10000000000000142,
          "durationTicks": 240,
          "midi": 63,
          "name": "D#4",
          "ticks": 122430,
          "time": 51.0125,
          "velocity": 1
        },
        {
          "duration": 0.10000000000000142,
          "durationTicks": 240,
          "midi": 70,
          "name": "A#4",
          "ticks": 122430,
          "time": 51.0125,
          "velocity": 1
        },
        {
          "duration": 0.09999999999999432,
          "durationTicks": 240,
          "midi": 72,
          "name": "C5",
          "ticks": 122910,
          "time": 51.212500000000006,
          "velocity": 1
        },
        {
          "duration": 0.09999999999999432,
          "durationTicks": 240,
          "midi": 65,
          "name": "F4",
          "ticks": 122910,
          "time": 51.212500000000006,
          "velocity": 1
        },
        {
          "duration": 0.09999999999999432,
          "durationTicks": 240,
          "midi": 77,
          "name": "F5",
          "ticks": 122910,
          "time": 51.212500000000006,
          "velocity": 1
        },
        {
          "duration": 0.10000000000000142,
          "durationTicks": 240,
          "midi": 65,
          "name": "F4",
          "ticks": 123390,
          "time": 51.4125,
          "velocity": 0.7401574803149606
        },
        {
          "duration": 0.10000000000000142,
          "durationTicks": 240,
          "midi": 72,
          "name": "C5",
          "ticks": 123390,
          "time": 51.4125,
          "velocity": 0.7401574803149606
        },
        {
          "duration": 0.10000000000000142,
          "durationTicks": 240,
          "midi": 77,
          "name": "F5",
          "ticks": 123390,
          "time": 51.4125,
          "velocity": 0.7401574803149606
        },
        {
          "duration": 0.10000000000000142,
          "durationTicks": 240,
          "midi": 72,
          "name": "C5",
          "ticks": 123630,
          "time": 51.5125,
          "velocity": 1
        },
        {
          "duration": 0.10000000000000142,
          "durationTicks": 240,
          "midi": 65,
          "name": "F4",
          "ticks": 123630,
          "time": 51.5125,
          "velocity": 1
        },
        {
          "duration": 0.10000000000000142,
          "durationTicks": 240,
          "midi": 77,
          "name": "F5",
          "ticks": 123630,
          "time": 51.5125,
          "velocity": 1
        },
        {
          "duration": 0.09999999999999432,
          "durationTicks": 240,
          "midi": 65,
          "name": "F4",
          "ticks": 124110,
          "time": 51.712500000000006,
          "velocity": 0.7401574803149606
        },
        {
          "duration": 0.09999999999999432,
          "durationTicks": 240,
          "midi": 72,
          "name": "C5",
          "ticks": 124110,
          "time": 51.712500000000006,
          "velocity": 0.7401574803149606
        },
        {
          "duration": 0.09999999999999432,
          "durationTicks": 240,
          "midi": 77,
          "name": "F5",
          "ticks": 124110,
          "time": 51.712500000000006,
          "velocity": 0.7401574803149606
        },
        {
          "duration": 0.10000000000000142,
          "durationTicks": 240,
          "midi": 72,
          "name": "C5",
          "ticks": 124350,
          "time": 51.8125,
          "velocity": 1
        },
        {
          "duration": 0.10000000000000142,
          "durationTicks": 240,
          "midi": 65,
          "name": "F4",
          "ticks": 124350,
          "time": 51.8125,
          "velocity": 1
        },
        {
          "duration": 0.10000000000000142,
          "durationTicks": 240,
          "midi": 77,
          "name": "F5",
          "ticks": 124350,
          "time": 51.8125,
          "velocity": 1
        },
        {
          "duration": 0.10000000000000142,
          "durationTicks": 240,
          "midi": 65,
          "name": "F4",
          "ticks": 124830,
          "time": 52.0125,
          "velocity": 0.7401574803149606
        },
        {
          "duration": 0.10000000000000142,
          "durationTicks": 240,
          "midi": 72,
          "name": "C5",
          "ticks": 124830,
          "time": 52.0125,
          "velocity": 0.7401574803149606
        },
        {
          "duration": 0.10000000000000142,
          "durationTicks": 240,
          "midi": 77,
          "name": "F5",
          "ticks": 124830,
          "time": 52.0125,
          "velocity": 0.7401574803149606
        },
        {
          "duration": 0.10000000000000142,
          "durationTicks": 240,
          "midi": 72,
          "name": "C5",
          "ticks": 125070,
          "time": 52.112500000000004,
          "velocity": 1
        },
        {
          "duration": 0.10000000000000142,
          "durationTicks": 240,
          "midi": 65,
          "name": "F4",
          "ticks": 125070,
          "time": 52.112500000000004,
          "velocity": 1
        },
        {
          "duration": 0.10000000000000142,
          "durationTicks": 240,
          "midi": 77,
          "name": "F5",
          "ticks": 125070,
          "time": 52.112500000000004,
          "velocity": 1
        },
        {
          "duration": 0.10000000000000142,
          "durationTicks": 240,
          "midi": 65,
          "name": "F4",
          "ticks": 125550,
          "time": 52.3125,
          "velocity": 0.7401574803149606
        },
        {
          "duration": 0.10000000000000142,
          "durationTicks": 240,
          "midi": 72,
          "name": "C5",
          "ticks": 125550,
          "time": 52.3125,
          "velocity": 0.7401574803149606
        },
        {
          "duration": 0.10000000000000142,
          "durationTicks": 240,
          "midi": 77,
          "name": "F5",
          "ticks": 125550,
          "time": 52.3125,
          "velocity": 0.7401574803149606
        },
        {
          "duration": 0.10000000000000142,
          "durationTicks": 240,
          "midi": 72,
          "name": "C5",
          "ticks": 125790,
          "time": 52.4125,
          "velocity": 1
        },
        {
          "duration": 0.10000000000000142,
          "durationTicks": 240,
          "midi": 65,
          "name": "F4",
          "ticks": 125790,
          "time": 52.4125,
          "velocity": 1
        },
        {
          "duration": 0.10000000000000142,
          "durationTicks": 240,
          "midi": 77,
          "name": "F5",
          "ticks": 125790,
          "time": 52.4125,
          "velocity": 1
        },
        {
          "duration": 0.10000000000000142,
          "durationTicks": 240,
          "midi": 73,
          "name": "C#5",
          "ticks": 126270,
          "time": 52.612500000000004,
          "velocity": 1
        },
        {
          "duration": 0.10000000000000142,
          "durationTicks": 240,
          "midi": 66,
          "name": "F#4",
          "ticks": 126270,
          "time": 52.612500000000004,
          "velocity": 1
        },
        {
          "duration": 0.10000000000000142,
          "durationTicks": 240,
          "midi": 78,
          "name": "F#5",
          "ticks": 126270,
          "time": 52.612500000000004,
          "velocity": 1
        },
        {
          "duration": 0.10000000000000142,
          "durationTicks": 240,
          "midi": 77,
          "name": "F5",
          "ticks": 126750,
          "time": 52.8125,
          "velocity": 1
        },
        {
          "duration": 0.10000000000000142,
          "durationTicks": 240,
          "midi": 65,
          "name": "F4",
          "ticks": 126750,
          "time": 52.8125,
          "velocity": 1
        },
        {
          "duration": 0.10000000000000142,
          "durationTicks": 240,
          "midi": 72,
          "name": "C5",
          "ticks": 126750,
          "time": 52.8125,
          "velocity": 1
        },
        {
          "duration": 0.10000000000000142,
          "durationTicks": 240,
          "midi": 65,
          "name": "F4",
          "ticks": 127230,
          "time": 53.0125,
          "velocity": 0.7401574803149606
        },
        {
          "duration": 0.10000000000000142,
          "durationTicks": 240,
          "midi": 72,
          "name": "C5",
          "ticks": 127230,
          "time": 53.0125,
          "velocity": 0.7401574803149606
        },
        {
          "duration": 0.10000000000000142,
          "durationTicks": 240,
          "midi": 77,
          "name": "F5",
          "ticks": 127230,
          "time": 53.0125,
          "velocity": 0.7401574803149606
        },
        {
          "duration": 0.10000000000000142,
          "durationTicks": 240,
          "midi": 77,
          "name": "F5",
          "ticks": 127470,
          "time": 53.112500000000004,
          "velocity": 1
        },
        {
          "duration": 0.10000000000000142,
          "durationTicks": 240,
          "midi": 65,
          "name": "F4",
          "ticks": 127470,
          "time": 53.112500000000004,
          "velocity": 1
        },
        {
          "duration": 0.10000000000000142,
          "durationTicks": 240,
          "midi": 72,
          "name": "C5",
          "ticks": 127470,
          "time": 53.112500000000004,
          "velocity": 1
        },
        {
          "duration": 0.10000000000000142,
          "durationTicks": 240,
          "midi": 65,
          "name": "F4",
          "ticks": 127950,
          "time": 53.3125,
          "velocity": 0.7401574803149606
        },
        {
          "duration": 0.10000000000000142,
          "durationTicks": 240,
          "midi": 72,
          "name": "C5",
          "ticks": 127950,
          "time": 53.3125,
          "velocity": 0.7401574803149606
        },
        {
          "duration": 0.10000000000000142,
          "durationTicks": 240,
          "midi": 77,
          "name": "F5",
          "ticks": 127950,
          "time": 53.3125,
          "velocity": 0.7401574803149606
        },
        {
          "duration": 0.10000000000000142,
          "durationTicks": 240,
          "midi": 77,
          "name": "F5",
          "ticks": 128190,
          "time": 53.4125,
          "velocity": 1
        },
        {
          "duration": 0.10000000000000142,
          "durationTicks": 240,
          "midi": 65,
          "name": "F4",
          "ticks": 128190,
          "time": 53.4125,
          "velocity": 1
        },
        {
          "duration": 0.10000000000000142,
          "durationTicks": 240,
          "midi": 72,
          "name": "C5",
          "ticks": 128190,
          "time": 53.4125,
          "velocity": 1
        },
        {
          "duration": 0.10000000000000142,
          "durationTicks": 240,
          "midi": 65,
          "name": "F4",
          "ticks": 128670,
          "time": 53.612500000000004,
          "velocity": 0.7401574803149606
        },
        {
          "duration": 0.10000000000000142,
          "durationTicks": 240,
          "midi": 72,
          "name": "C5",
          "ticks": 128670,
          "time": 53.612500000000004,
          "velocity": 0.7401574803149606
        },
        {
          "duration": 0.10000000000000142,
          "durationTicks": 240,
          "midi": 77,
          "name": "F5",
          "ticks": 128670,
          "time": 53.612500000000004,
          "velocity": 0.7401574803149606
        },
        {
          "duration": 0.09999999999999432,
          "durationTicks": 240,
          "midi": 77,
          "name": "F5",
          "ticks": 128910,
          "time": 53.712500000000006,
          "velocity": 1
        },
        {
          "duration": 0.09999999999999432,
          "durationTicks": 240,
          "midi": 65,
          "name": "F4",
          "ticks": 128910,
          "time": 53.712500000000006,
          "velocity": 1
        },
        {
          "duration": 0.09999999999999432,
          "durationTicks": 240,
          "midi": 72,
          "name": "C5",
          "ticks": 128910,
          "time": 53.712500000000006,
          "velocity": 1
        },
        {
          "duration": 0.10000000000000142,
          "durationTicks": 240,
          "midi": 65,
          "name": "F4",
          "ticks": 129390,
          "time": 53.9125,
          "velocity": 0.7401574803149606
        },
        {
          "duration": 0.10000000000000142,
          "durationTicks": 240,
          "midi": 72,
          "name": "C5",
          "ticks": 129390,
          "time": 53.9125,
          "velocity": 0.7401574803149606
        },
        {
          "duration": 0.10000000000000142,
          "durationTicks": 240,
          "midi": 77,
          "name": "F5",
          "ticks": 129390,
          "time": 53.9125,
          "velocity": 0.7401574803149606
        },
        {
          "duration": 0.10000000000000142,
          "durationTicks": 240,
          "midi": 77,
          "name": "F5",
          "ticks": 129630,
          "time": 54.0125,
          "velocity": 1
        },
        {
          "duration": 0.10000000000000142,
          "durationTicks": 240,
          "midi": 65,
          "name": "F4",
          "ticks": 129630,
          "time": 54.0125,
          "velocity": 1
        },
        {
          "duration": 0.10000000000000142,
          "durationTicks": 240,
          "midi": 72,
          "name": "C5",
          "ticks": 129630,
          "time": 54.0125,
          "velocity": 1
        },
        {
          "duration": 0.09999999999999432,
          "durationTicks": 240,
          "midi": 75,
          "name": "D#5",
          "ticks": 130110,
          "time": 54.212500000000006,
          "velocity": 1
        },
        {
          "duration": 0.09999999999999432,
          "durationTicks": 240,
          "midi": 63,
          "name": "D#4",
          "ticks": 130110,
          "time": 54.212500000000006,
          "velocity": 1
        },
        {
          "duration": 0.09999999999999432,
          "durationTicks": 240,
          "midi": 70,
          "name": "A#4",
          "ticks": 130110,
          "time": 54.212500000000006,
          "velocity": 1
        },
        {
          "duration": 0.10000000000000142,
          "durationTicks": 240,
          "midi": 72,
          "name": "C5",
          "ticks": 130590,
          "time": 54.4125,
          "velocity": 1
        },
        {
          "duration": 0.10000000000000142,
          "durationTicks": 240,
          "midi": 65,
          "name": "F4",
          "ticks": 130590,
          "time": 54.4125,
          "velocity": 1
        },
        {
          "duration": 0.10000000000000142,
          "durationTicks": 240,
          "midi": 77,
          "name": "F5",
          "ticks": 130590,
          "time": 54.4125,
          "velocity": 1
        },
        {
          "duration": 0.10000000000000142,
          "durationTicks": 240,
          "midi": 65,
          "name": "F4",
          "ticks": 131070,
          "time": 54.612500000000004,
          "velocity": 0.7401574803149606
        },
        {
          "duration": 0.10000000000000142,
          "durationTicks": 240,
          "midi": 72,
          "name": "C5",
          "ticks": 131070,
          "time": 54.612500000000004,
          "velocity": 0.7401574803149606
        },
        {
          "duration": 0.10000000000000142,
          "durationTicks": 240,
          "midi": 77,
          "name": "F5",
          "ticks": 131070,
          "time": 54.612500000000004,
          "velocity": 0.7401574803149606
        },
        {
          "duration": 0.09999999999999432,
          "durationTicks": 240,
          "midi": 72,
          "name": "C5",
          "ticks": 131310,
          "time": 54.712500000000006,
          "velocity": 1
        },
        {
          "duration": 0.09999999999999432,
          "durationTicks": 240,
          "midi": 65,
          "name": "F4",
          "ticks": 131310,
          "time": 54.712500000000006,
          "velocity": 1
        },
        {
          "duration": 0.09999999999999432,
          "durationTicks": 240,
          "midi": 77,
          "name": "F5",
          "ticks": 131310,
          "time": 54.712500000000006,
          "velocity": 1
        },
        {
          "duration": 0.10000000000000142,
          "durationTicks": 240,
          "midi": 65,
          "name": "F4",
          "ticks": 131790,
          "time": 54.9125,
          "velocity": 0.7401574803149606
        },
        {
          "duration": 0.10000000000000142,
          "durationTicks": 240,
          "midi": 72,
          "name": "C5",
          "ticks": 131790,
          "time": 54.9125,
          "velocity": 0.7401574803149606
        },
        {
          "duration": 0.10000000000000142,
          "durationTicks": 240,
          "midi": 77,
          "name": "F5",
          "ticks": 131790,
          "time": 54.9125,
          "velocity": 0.7401574803149606
        },
        {
          "duration": 0.10000000000000142,
          "durationTicks": 240,
          "midi": 72,
          "name": "C5",
          "ticks": 132030,
          "time": 55.0125,
          "velocity": 1
        },
        {
          "duration": 0.10000000000000142,
          "durationTicks": 240,
          "midi": 65,
          "name": "F4",
          "ticks": 132030,
          "time": 55.0125,
          "velocity": 1
        },
        {
          "duration": 0.10000000000000142,
          "durationTicks": 240,
          "midi": 77,
          "name": "F5",
          "ticks": 132030,
          "time": 55.0125,
          "velocity": 1
        },
        {
          "duration": 0.09999999999999432,
          "durationTicks": 240,
          "midi": 65,
          "name": "F4",
          "ticks": 132510,
          "time": 55.212500000000006,
          "velocity": 0.7401574803149606
        },
        {
          "duration": 0.09999999999999432,
          "durationTicks": 240,
          "midi": 72,
          "name": "C5",
          "ticks": 132510,
          "time": 55.212500000000006,
          "velocity": 0.7401574803149606
        },
        {
          "duration": 0.09999999999999432,
          "durationTicks": 240,
          "midi": 77,
          "name": "F5",
          "ticks": 132510,
          "time": 55.212500000000006,
          "velocity": 0.7401574803149606
        },
        {
          "duration": 0.10000000000000142,
          "durationTicks": 240,
          "midi": 72,
          "name": "C5",
          "ticks": 132750,
          "time": 55.3125,
          "velocity": 1
        },
        {
          "duration": 0.10000000000000142,
          "durationTicks": 240,
          "midi": 65,
          "name": "F4",
          "ticks": 132750,
          "time": 55.3125,
          "velocity": 1
        },
        {
          "duration": 0.10000000000000142,
          "durationTicks": 240,
          "midi": 77,
          "name": "F5",
          "ticks": 132750,
          "time": 55.3125,
          "velocity": 1
        },
        {
          "duration": 0.10000000000000142,
          "durationTicks": 240,
          "midi": 65,
          "name": "F4",
          "ticks": 133230,
          "time": 55.5125,
          "velocity": 0.7401574803149606
        },
        {
          "duration": 0.10000000000000142,
          "durationTicks": 240,
          "midi": 72,
          "name": "C5",
          "ticks": 133230,
          "time": 55.5125,
          "velocity": 0.7401574803149606
        },
        {
          "duration": 0.10000000000000142,
          "durationTicks": 240,
          "midi": 77,
          "name": "F5",
          "ticks": 133230,
          "time": 55.5125,
          "velocity": 0.7401574803149606
        },
        {
          "duration": 0.10000000000000142,
          "durationTicks": 240,
          "midi": 72,
          "name": "C5",
          "ticks": 133470,
          "time": 55.612500000000004,
          "velocity": 1
        },
        {
          "duration": 0.10000000000000142,
          "durationTicks": 240,
          "midi": 65,
          "name": "F4",
          "ticks": 133470,
          "time": 55.612500000000004,
          "velocity": 1
        },
        {
          "duration": 0.10000000000000142,
          "durationTicks": 240,
          "midi": 77,
          "name": "F5",
          "ticks": 133470,
          "time": 55.612500000000004,
          "velocity": 1
        },
        {
          "duration": 0.10000000000000142,
          "durationTicks": 240,
          "midi": 73,
          "name": "C#5",
          "ticks": 133950,
          "time": 55.8125,
          "velocity": 1
        },
        {
          "duration": 0.10000000000000142,
          "durationTicks": 240,
          "midi": 66,
          "name": "F#4",
          "ticks": 133950,
          "time": 55.8125,
          "velocity": 1
        },
        {
          "duration": 0.10000000000000142,
          "durationTicks": 240,
          "midi": 78,
          "name": "F#5",
          "ticks": 133950,
          "time": 55.8125,
          "velocity": 1
        },
        {
          "duration": 0.10000000000000142,
          "durationTicks": 240,
          "midi": 77,
          "name": "F5",
          "ticks": 134430,
          "time": 56.0125,
          "velocity": 1
        },
        {
          "duration": 0.10000000000000142,
          "durationTicks": 240,
          "midi": 65,
          "name": "F4",
          "ticks": 134430,
          "time": 56.0125,
          "velocity": 1
        },
        {
          "duration": 0.10000000000000142,
          "durationTicks": 240,
          "midi": 72,
          "name": "C5",
          "ticks": 134430,
          "time": 56.0125,
          "velocity": 1
        },
        {
          "duration": 0.09999999999999432,
          "durationTicks": 240,
          "midi": 65,
          "name": "F4",
          "ticks": 134910,
          "time": 56.212500000000006,
          "velocity": 0.7401574803149606
        },
        {
          "duration": 0.09999999999999432,
          "durationTicks": 240,
          "midi": 72,
          "name": "C5",
          "ticks": 134910,
          "time": 56.212500000000006,
          "velocity": 0.7401574803149606
        },
        {
          "duration": 0.09999999999999432,
          "durationTicks": 240,
          "midi": 77,
          "name": "F5",
          "ticks": 134910,
          "time": 56.212500000000006,
          "velocity": 0.7401574803149606
        },
        {
          "duration": 0.10000000000000142,
          "durationTicks": 240,
          "midi": 77,
          "name": "F5",
          "ticks": 135150,
          "time": 56.3125,
          "velocity": 1
        },
        {
          "duration": 0.10000000000000142,
          "durationTicks": 240,
          "midi": 65,
          "name": "F4",
          "ticks": 135150,
          "time": 56.3125,
          "velocity": 1
        },
        {
          "duration": 0.10000000000000142,
          "durationTicks": 240,
          "midi": 72,
          "name": "C5",
          "ticks": 135150,
          "time": 56.3125,
          "velocity": 1
        },
        {
          "duration": 0.10000000000000142,
          "durationTicks": 240,
          "midi": 65,
          "name": "F4",
          "ticks": 135630,
          "time": 56.5125,
          "velocity": 0.7401574803149606
        },
        {
          "duration": 0.10000000000000142,
          "durationTicks": 240,
          "midi": 72,
          "name": "C5",
          "ticks": 135630,
          "time": 56.5125,
          "velocity": 0.7401574803149606
        },
        {
          "duration": 0.10000000000000142,
          "durationTicks": 240,
          "midi": 77,
          "name": "F5",
          "ticks": 135630,
          "time": 56.5125,
          "velocity": 0.7401574803149606
        },
        {
          "duration": 0.10000000000000142,
          "durationTicks": 240,
          "midi": 77,
          "name": "F5",
          "ticks": 135870,
          "time": 56.612500000000004,
          "velocity": 1
        },
        {
          "duration": 0.10000000000000142,
          "durationTicks": 240,
          "midi": 65,
          "name": "F4",
          "ticks": 135870,
          "time": 56.612500000000004,
          "velocity": 1
        },
        {
          "duration": 0.10000000000000142,
          "durationTicks": 240,
          "midi": 72,
          "name": "C5",
          "ticks": 135870,
          "time": 56.612500000000004,
          "velocity": 1
        },
        {
          "duration": 0.10000000000000142,
          "durationTicks": 240,
          "midi": 65,
          "name": "F4",
          "ticks": 136350,
          "time": 56.8125,
          "velocity": 0.7401574803149606
        },
        {
          "duration": 0.10000000000000142,
          "durationTicks": 240,
          "midi": 72,
          "name": "C5",
          "ticks": 136350,
          "time": 56.8125,
          "velocity": 0.7401574803149606
        },
        {
          "duration": 0.10000000000000142,
          "durationTicks": 240,
          "midi": 77,
          "name": "F5",
          "ticks": 136350,
          "time": 56.8125,
          "velocity": 0.7401574803149606
        },
        {
          "duration": 0.10000000000000142,
          "durationTicks": 240,
          "midi": 77,
          "name": "F5",
          "ticks": 136590,
          "time": 56.9125,
          "velocity": 1
        },
        {
          "duration": 0.10000000000000142,
          "durationTicks": 240,
          "midi": 65,
          "name": "F4",
          "ticks": 136590,
          "time": 56.9125,
          "velocity": 1
        },
        {
          "duration": 0.10000000000000142,
          "durationTicks": 240,
          "midi": 72,
          "name": "C5",
          "ticks": 136590,
          "time": 56.9125,
          "velocity": 1
        },
        {
          "duration": 0.10000000000000142,
          "durationTicks": 240,
          "midi": 65,
          "name": "F4",
          "ticks": 137070,
          "time": 57.112500000000004,
          "velocity": 0.7401574803149606
        },
        {
          "duration": 0.10000000000000142,
          "durationTicks": 240,
          "midi": 72,
          "name": "C5",
          "ticks": 137070,
          "time": 57.112500000000004,
          "velocity": 0.7401574803149606
        },
        {
          "duration": 0.10000000000000142,
          "durationTicks": 240,
          "midi": 77,
          "name": "F5",
          "ticks": 137070,
          "time": 57.112500000000004,
          "velocity": 0.7401574803149606
        },
        {
          "duration": 0.09999999999999432,
          "durationTicks": 240,
          "midi": 77,
          "name": "F5",
          "ticks": 137310,
          "time": 57.212500000000006,
          "velocity": 1
        },
        {
          "duration": 0.09999999999999432,
          "durationTicks": 240,
          "midi": 65,
          "name": "F4",
          "ticks": 137310,
          "time": 57.212500000000006,
          "velocity": 1
        },
        {
          "duration": 0.09999999999999432,
          "durationTicks": 240,
          "midi": 72,
          "name": "C5",
          "ticks": 137310,
          "time": 57.212500000000006,
          "velocity": 1
        },
        {
          "duration": 0.10000000000000142,
          "durationTicks": 240,
          "midi": 75,
          "name": "D#5",
          "ticks": 137790,
          "time": 57.4125,
          "velocity": 1
        },
        {
          "duration": 0.10000000000000142,
          "durationTicks": 240,
          "midi": 63,
          "name": "D#4",
          "ticks": 137790,
          "time": 57.4125,
          "velocity": 1
        },
        {
          "duration": 0.10000000000000142,
          "durationTicks": 240,
          "midi": 70,
          "name": "A#4",
          "ticks": 137790,
          "time": 57.4125,
          "velocity": 1
        },
        {
          "duration": 0.10000000000000142,
          "durationTicks": 240,
          "midi": 72,
          "name": "C5",
          "ticks": 138270,
          "time": 57.612500000000004,
          "velocity": 1
        },
        {
          "duration": 0.10000000000000142,
          "durationTicks": 240,
          "midi": 65,
          "name": "F4",
          "ticks": 138270,
          "time": 57.612500000000004,
          "velocity": 1
        },
        {
          "duration": 0.10000000000000142,
          "durationTicks": 240,
          "midi": 77,
          "name": "F5",
          "ticks": 138270,
          "time": 57.612500000000004,
          "velocity": 1
        },
        {
          "duration": 0.10000000000000142,
          "durationTicks": 240,
          "midi": 65,
          "name": "F4",
          "ticks": 138750,
          "time": 57.8125,
          "velocity": 0.7401574803149606
        },
        {
          "duration": 0.10000000000000142,
          "durationTicks": 240,
          "midi": 72,
          "name": "C5",
          "ticks": 138750,
          "time": 57.8125,
          "velocity": 0.7401574803149606
        },
        {
          "duration": 0.10000000000000142,
          "durationTicks": 240,
          "midi": 77,
          "name": "F5",
          "ticks": 138750,
          "time": 57.8125,
          "velocity": 0.7401574803149606
        },
        {
          "duration": 0.10000000000000142,
          "durationTicks": 240,
          "midi": 72,
          "name": "C5",
          "ticks": 138990,
          "time": 57.9125,
          "velocity": 1
        },
        {
          "duration": 0.10000000000000142,
          "durationTicks": 240,
          "midi": 65,
          "name": "F4",
          "ticks": 138990,
          "time": 57.9125,
          "velocity": 1
        },
        {
          "duration": 0.10000000000000142,
          "durationTicks": 240,
          "midi": 77,
          "name": "F5",
          "ticks": 138990,
          "time": 57.9125,
          "velocity": 1
        },
        {
          "duration": 0.10000000000000142,
          "durationTicks": 240,
          "midi": 65,
          "name": "F4",
          "ticks": 139470,
          "time": 58.112500000000004,
          "velocity": 0.7401574803149606
        },
        {
          "duration": 0.10000000000000142,
          "durationTicks": 240,
          "midi": 72,
          "name": "C5",
          "ticks": 139470,
          "time": 58.112500000000004,
          "velocity": 0.7401574803149606
        },
        {
          "duration": 0.10000000000000142,
          "durationTicks": 240,
          "midi": 77,
          "name": "F5",
          "ticks": 139470,
          "time": 58.112500000000004,
          "velocity": 0.7401574803149606
        },
        {
          "duration": 0.09999999999999432,
          "durationTicks": 240,
          "midi": 72,
          "name": "C5",
          "ticks": 139710,
          "time": 58.212500000000006,
          "velocity": 1
        },
        {
          "duration": 0.09999999999999432,
          "durationTicks": 240,
          "midi": 65,
          "name": "F4",
          "ticks": 139710,
          "time": 58.212500000000006,
          "velocity": 1
        },
        {
          "duration": 0.09999999999999432,
          "durationTicks": 240,
          "midi": 77,
          "name": "F5",
          "ticks": 139710,
          "time": 58.212500000000006,
          "velocity": 1
        },
        {
          "duration": 0.10000000000000142,
          "durationTicks": 240,
          "midi": 65,
          "name": "F4",
          "ticks": 140190,
          "time": 58.4125,
          "velocity": 0.7401574803149606
        },
        {
          "duration": 0.10000000000000142,
          "durationTicks": 240,
          "midi": 72,
          "name": "C5",
          "ticks": 140190,
          "time": 58.4125,
          "velocity": 0.7401574803149606
        },
        {
          "duration": 0.10000000000000142,
          "durationTicks": 240,
          "midi": 77,
          "name": "F5",
          "ticks": 140190,
          "time": 58.4125,
          "velocity": 0.7401574803149606
        },
        {
          "duration": 0.10000000000000142,
          "durationTicks": 240,
          "midi": 72,
          "name": "C5",
          "ticks": 140430,
          "time": 58.5125,
          "velocity": 1
        },
        {
          "duration": 0.10000000000000142,
          "durationTicks": 240,
          "midi": 65,
          "name": "F4",
          "ticks": 140430,
          "time": 58.5125,
          "velocity": 1
        },
        {
          "duration": 0.10000000000000142,
          "durationTicks": 240,
          "midi": 77,
          "name": "F5",
          "ticks": 140430,
          "time": 58.5125,
          "velocity": 1
        },
        {
          "duration": 0.09999999999999432,
          "durationTicks": 240,
          "midi": 65,
          "name": "F4",
          "ticks": 140910,
          "time": 58.712500000000006,
          "velocity": 0.7401574803149606
        },
        {
          "duration": 0.09999999999999432,
          "durationTicks": 240,
          "midi": 72,
          "name": "C5",
          "ticks": 140910,
          "time": 58.712500000000006,
          "velocity": 0.7401574803149606
        },
        {
          "duration": 0.09999999999999432,
          "durationTicks": 240,
          "midi": 77,
          "name": "F5",
          "ticks": 140910,
          "time": 58.712500000000006,
          "velocity": 0.7401574803149606
        },
        {
          "duration": 0.10000000000000142,
          "durationTicks": 240,
          "midi": 72,
          "name": "C5",
          "ticks": 141150,
          "time": 58.8125,
          "velocity": 1
        },
        {
          "duration": 0.10000000000000142,
          "durationTicks": 240,
          "midi": 65,
          "name": "F4",
          "ticks": 141150,
          "time": 58.8125,
          "velocity": 1
        },
        {
          "duration": 0.10000000000000142,
          "durationTicks": 240,
          "midi": 77,
          "name": "F5",
          "ticks": 141150,
          "time": 58.8125,
          "velocity": 1
        },
        {
          "duration": 0.10000000000000142,
          "durationTicks": 240,
          "midi": 73,
          "name": "C#5",
          "ticks": 141630,
          "time": 59.0125,
          "velocity": 1
        },
        {
          "duration": 0.10000000000000142,
          "durationTicks": 240,
          "midi": 66,
          "name": "F#4",
          "ticks": 141630,
          "time": 59.0125,
          "velocity": 1
        },
        {
          "duration": 0.10000000000000142,
          "durationTicks": 240,
          "midi": 78,
          "name": "F#5",
          "ticks": 141630,
          "time": 59.0125,
          "velocity": 1
        },
        {
          "duration": 0.09999999999999432,
          "durationTicks": 240,
          "midi": 77,
          "name": "F5",
          "ticks": 142110,
          "time": 59.212500000000006,
          "velocity": 1
        },
        {
          "duration": 0.09999999999999432,
          "durationTicks": 240,
          "midi": 65,
          "name": "F4",
          "ticks": 142110,
          "time": 59.212500000000006,
          "velocity": 1
        },
        {
          "duration": 0.09999999999999432,
          "durationTicks": 240,
          "midi": 72,
          "name": "C5",
          "ticks": 142110,
          "time": 59.212500000000006,
          "velocity": 1
        },
        {
          "duration": 0.10000000000000142,
          "durationTicks": 240,
          "midi": 65,
          "name": "F4",
          "ticks": 142590,
          "time": 59.4125,
          "velocity": 0.7401574803149606
        },
        {
          "duration": 0.10000000000000142,
          "durationTicks": 240,
          "midi": 72,
          "name": "C5",
          "ticks": 142590,
          "time": 59.4125,
          "velocity": 0.7401574803149606
        },
        {
          "duration": 0.10000000000000142,
          "durationTicks": 240,
          "midi": 77,
          "name": "F5",
          "ticks": 142590,
          "time": 59.4125,
          "velocity": 0.7401574803149606
        },
        {
          "duration": 0.10000000000000142,
          "durationTicks": 240,
          "midi": 77,
          "name": "F5",
          "ticks": 142830,
          "time": 59.5125,
          "velocity": 1
        },
        {
          "duration": 0.10000000000000142,
          "durationTicks": 240,
          "midi": 65,
          "name": "F4",
          "ticks": 142830,
          "time": 59.5125,
          "velocity": 1
        },
        {
          "duration": 0.10000000000000142,
          "durationTicks": 240,
          "midi": 72,
          "name": "C5",
          "ticks": 142830,
          "time": 59.5125,
          "velocity": 1
        },
        {
          "duration": 0.09999999999999432,
          "durationTicks": 240,
          "midi": 65,
          "name": "F4",
          "ticks": 143310,
          "time": 59.712500000000006,
          "velocity": 0.7401574803149606
        },
        {
          "duration": 0.09999999999999432,
          "durationTicks": 240,
          "midi": 72,
          "name": "C5",
          "ticks": 143310,
          "time": 59.712500000000006,
          "velocity": 0.7401574803149606
        },
        {
          "duration": 0.09999999999999432,
          "durationTicks": 240,
          "midi": 77,
          "name": "F5",
          "ticks": 143310,
          "time": 59.712500000000006,
          "velocity": 0.7401574803149606
        },
        {
          "duration": 0.10000000000000142,
          "durationTicks": 240,
          "midi": 77,
          "name": "F5",
          "ticks": 143550,
          "time": 59.8125,
          "velocity": 1
        },
        {
          "duration": 0.10000000000000142,
          "durationTicks": 240,
          "midi": 65,
          "name": "F4",
          "ticks": 143550,
          "time": 59.8125,
          "velocity": 1
        },
        {
          "duration": 0.10000000000000142,
          "durationTicks": 240,
          "midi": 72,
          "name": "C5",
          "ticks": 143550,
          "time": 59.8125,
          "velocity": 1
        },
        {
          "duration": 0.10000000000000142,
          "durationTicks": 240,
          "midi": 65,
          "name": "F4",
          "ticks": 144030,
          "time": 60.0125,
          "velocity": 0.7401574803149606
        },
        {
          "duration": 0.10000000000000142,
          "durationTicks": 240,
          "midi": 72,
          "name": "C5",
          "ticks": 144030,
          "time": 60.0125,
          "velocity": 0.7401574803149606
        },
        {
          "duration": 0.10000000000000142,
          "durationTicks": 240,
          "midi": 77,
          "name": "F5",
          "ticks": 144030,
          "time": 60.0125,
          "velocity": 0.7401574803149606
        },
        {
          "duration": 0.10000000000000142,
          "durationTicks": 240,
          "midi": 77,
          "name": "F5",
          "ticks": 144270,
          "time": 60.112500000000004,
          "velocity": 1
        },
        {
          "duration": 0.10000000000000142,
          "durationTicks": 240,
          "midi": 65,
          "name": "F4",
          "ticks": 144270,
          "time": 60.112500000000004,
          "velocity": 1
        },
        {
          "duration": 0.10000000000000142,
          "durationTicks": 240,
          "midi": 72,
          "name": "C5",
          "ticks": 144270,
          "time": 60.112500000000004,
          "velocity": 1
        },
        {
          "duration": 0.10000000000000142,
          "durationTicks": 240,
          "midi": 65,
          "name": "F4",
          "ticks": 144750,
          "time": 60.3125,
          "velocity": 0.7401574803149606
        },
        {
          "duration": 0.10000000000000142,
          "durationTicks": 240,
          "midi": 72,
          "name": "C5",
          "ticks": 144750,
          "time": 60.3125,
          "velocity": 0.7401574803149606
        },
        {
          "duration": 0.10000000000000142,
          "durationTicks": 240,
          "midi": 77,
          "name": "F5",
          "ticks": 144750,
          "time": 60.3125,
          "velocity": 0.7401574803149606
        },
        {
          "duration": 0.10000000000000142,
          "durationTicks": 240,
          "midi": 77,
          "name": "F5",
          "ticks": 144990,
          "time": 60.4125,
          "velocity": 1
        },
        {
          "duration": 0.10000000000000142,
          "durationTicks": 240,
          "midi": 65,
          "name": "F4",
          "ticks": 144990,
          "time": 60.4125,
          "velocity": 1
        },
        {
          "duration": 0.10000000000000142,
          "durationTicks": 240,
          "midi": 72,
          "name": "C5",
          "ticks": 144990,
          "time": 60.4125,
          "velocity": 1
        },
        {
          "duration": 0.10000000000000142,
          "durationTicks": 240,
          "midi": 75,
          "name": "D#5",
          "ticks": 145470,
          "time": 60.612500000000004,
          "velocity": 1
        },
        {
          "duration": 0.10000000000000142,
          "durationTicks": 240,
          "midi": 63,
          "name": "D#4",
          "ticks": 145470,
          "time": 60.612500000000004,
          "velocity": 1
        },
        {
          "duration": 0.10000000000000142,
          "durationTicks": 240,
          "midi": 70,
          "name": "A#4",
          "ticks": 145470,
          "time": 60.612500000000004,
          "velocity": 1
        },
        {
          "duration": 0.10000000000000142,
          "durationTicks": 240,
          "midi": 72,
          "name": "C5",
          "ticks": 145950,
          "time": 60.8125,
          "velocity": 1
        },
        {
          "duration": 0.10000000000000142,
          "durationTicks": 240,
          "midi": 65,
          "name": "F4",
          "ticks": 145950,
          "time": 60.8125,
          "velocity": 1
        },
        {
          "duration": 0.10000000000000142,
          "durationTicks": 240,
          "midi": 77,
          "name": "F5",
          "ticks": 145950,
          "time": 60.8125,
          "velocity": 1
        },
        {
          "duration": 0.10000000000000142,
          "durationTicks": 240,
          "midi": 65,
          "name": "F4",
          "ticks": 146430,
          "time": 61.0125,
          "velocity": 0.7401574803149606
        },
        {
          "duration": 0.10000000000000142,
          "durationTicks": 240,
          "midi": 72,
          "name": "C5",
          "ticks": 146430,
          "time": 61.0125,
          "velocity": 0.7401574803149606
        },
        {
          "duration": 0.10000000000000142,
          "durationTicks": 240,
          "midi": 77,
          "name": "F5",
          "ticks": 146430,
          "time": 61.0125,
          "velocity": 0.7401574803149606
        },
        {
          "duration": 0.10000000000000142,
          "durationTicks": 240,
          "midi": 72,
          "name": "C5",
          "ticks": 146670,
          "time": 61.112500000000004,
          "velocity": 1
        },
        {
          "duration": 0.10000000000000142,
          "durationTicks": 240,
          "midi": 65,
          "name": "F4",
          "ticks": 146670,
          "time": 61.112500000000004,
          "velocity": 1
        },
        {
          "duration": 0.10000000000000142,
          "durationTicks": 240,
          "midi": 77,
          "name": "F5",
          "ticks": 146670,
          "time": 61.112500000000004,
          "velocity": 1
        },
        {
          "duration": 0.10000000000000142,
          "durationTicks": 240,
          "midi": 65,
          "name": "F4",
          "ticks": 147150,
          "time": 61.3125,
          "velocity": 0.7401574803149606
        },
        {
          "duration": 0.10000000000000142,
          "durationTicks": 240,
          "midi": 72,
          "name": "C5",
          "ticks": 147150,
          "time": 61.3125,
          "velocity": 0.7401574803149606
        },
        {
          "duration": 0.10000000000000142,
          "durationTicks": 240,
          "midi": 77,
          "name": "F5",
          "ticks": 147150,
          "time": 61.3125,
          "velocity": 0.7401574803149606
        },
        {
          "duration": 0.10000000000000142,
          "durationTicks": 240,
          "midi": 72,
          "name": "C5",
          "ticks": 147390,
          "time": 61.4125,
          "velocity": 1
        },
        {
          "duration": 0.10000000000000142,
          "durationTicks": 240,
          "midi": 65,
          "name": "F4",
          "ticks": 147390,
          "time": 61.4125,
          "velocity": 1
        },
        {
          "duration": 0.10000000000000142,
          "durationTicks": 240,
          "midi": 77,
          "name": "F5",
          "ticks": 147390,
          "time": 61.4125,
          "velocity": 1
        },
        {
          "duration": 0.10000000000000142,
          "durationTicks": 240,
          "midi": 65,
          "name": "F4",
          "ticks": 147870,
          "time": 61.612500000000004,
          "velocity": 0.7401574803149606
        },
        {
          "duration": 0.10000000000000142,
          "durationTicks": 240,
          "midi": 72,
          "name": "C5",
          "ticks": 147870,
          "time": 61.612500000000004,
          "velocity": 0.7401574803149606
        },
        {
          "duration": 0.10000000000000142,
          "durationTicks": 240,
          "midi": 77,
          "name": "F5",
          "ticks": 147870,
          "time": 61.612500000000004,
          "velocity": 0.7401574803149606
        },
        {
          "duration": 0.09999999999999432,
          "durationTicks": 240,
          "midi": 72,
          "name": "C5",
          "ticks": 148110,
          "time": 61.712500000000006,
          "velocity": 1
        },
        {
          "duration": 0.09999999999999432,
          "durationTicks": 240,
          "midi": 65,
          "name": "F4",
          "ticks": 148110,
          "time": 61.712500000000006,
          "velocity": 1
        },
        {
          "duration": 0.09999999999999432,
          "durationTicks": 240,
          "midi": 77,
          "name": "F5",
          "ticks": 148110,
          "time": 61.712500000000006,
          "velocity": 1
        },
        {
          "duration": 0.10000000000000142,
          "durationTicks": 240,
          "midi": 65,
          "name": "F4",
          "ticks": 148590,
          "time": 61.9125,
          "velocity": 0.7401574803149606
        },
        {
          "duration": 0.10000000000000142,
          "durationTicks": 240,
          "midi": 72,
          "name": "C5",
          "ticks": 148590,
          "time": 61.9125,
          "velocity": 0.7401574803149606
        },
        {
          "duration": 0.10000000000000142,
          "durationTicks": 240,
          "midi": 77,
          "name": "F5",
          "ticks": 148590,
          "time": 61.9125,
          "velocity": 0.7401574803149606
        },
        {
          "duration": 0.10000000000000142,
          "durationTicks": 240,
          "midi": 72,
          "name": "C5",
          "ticks": 148830,
          "time": 62.0125,
          "velocity": 1
        },
        {
          "duration": 0.10000000000000142,
          "durationTicks": 240,
          "midi": 65,
          "name": "F4",
          "ticks": 148830,
          "time": 62.0125,
          "velocity": 1
        },
        {
          "duration": 0.10000000000000142,
          "durationTicks": 240,
          "midi": 77,
          "name": "F5",
          "ticks": 148830,
          "time": 62.0125,
          "velocity": 1
        },
        {
          "duration": 0.09999999999999432,
          "durationTicks": 240,
          "midi": 73,
          "name": "C#5",
          "ticks": 149310,
          "time": 62.212500000000006,
          "velocity": 1
        },
        {
          "duration": 0.09999999999999432,
          "durationTicks": 240,
          "midi": 66,
          "name": "F#4",
          "ticks": 149310,
          "time": 62.212500000000006,
          "velocity": 1
        },
        {
          "duration": 0.09999999999999432,
          "durationTicks": 240,
          "midi": 78,
          "name": "F#5",
          "ticks": 149310,
          "time": 62.212500000000006,
          "velocity": 1
        },
        {
          "duration": 0.10000000000000142,
          "durationTicks": 240,
          "midi": 77,
          "name": "F5",
          "ticks": 149790,
          "time": 62.4125,
          "velocity": 1
        },
        {
          "duration": 0.10000000000000142,
          "durationTicks": 240,
          "midi": 65,
          "name": "F4",
          "ticks": 149790,
          "time": 62.4125,
          "velocity": 1
        },
        {
          "duration": 0.10000000000000142,
          "durationTicks": 240,
          "midi": 72,
          "name": "C5",
          "ticks": 149790,
          "time": 62.4125,
          "velocity": 1
        },
        {
          "duration": 0.10000000000000142,
          "durationTicks": 240,
          "midi": 65,
          "name": "F4",
          "ticks": 150270,
          "time": 62.612500000000004,
          "velocity": 0.7401574803149606
        },
        {
          "duration": 0.10000000000000142,
          "durationTicks": 240,
          "midi": 72,
          "name": "C5",
          "ticks": 150270,
          "time": 62.612500000000004,
          "velocity": 0.7401574803149606
        },
        {
          "duration": 0.10000000000000142,
          "durationTicks": 240,
          "midi": 77,
          "name": "F5",
          "ticks": 150270,
          "time": 62.612500000000004,
          "velocity": 0.7401574803149606
        },
        {
          "duration": 0.09999999999999432,
          "durationTicks": 240,
          "midi": 77,
          "name": "F5",
          "ticks": 150510,
          "time": 62.712500000000006,
          "velocity": 1
        },
        {
          "duration": 0.09999999999999432,
          "durationTicks": 240,
          "midi": 65,
          "name": "F4",
          "ticks": 150510,
          "time": 62.712500000000006,
          "velocity": 1
        },
        {
          "duration": 0.09999999999999432,
          "durationTicks": 240,
          "midi": 72,
          "name": "C5",
          "ticks": 150510,
          "time": 62.712500000000006,
          "velocity": 1
        },
        {
          "duration": 0.10000000000000142,
          "durationTicks": 240,
          "midi": 65,
          "name": "F4",
          "ticks": 150990,
          "time": 62.9125,
          "velocity": 0.7401574803149606
        },
        {
          "duration": 0.10000000000000142,
          "durationTicks": 240,
          "midi": 72,
          "name": "C5",
          "ticks": 150990,
          "time": 62.9125,
          "velocity": 0.7401574803149606
        },
        {
          "duration": 0.10000000000000142,
          "durationTicks": 240,
          "midi": 77,
          "name": "F5",
          "ticks": 150990,
          "time": 62.9125,
          "velocity": 0.7401574803149606
        },
        {
          "duration": 0.10000000000000142,
          "durationTicks": 240,
          "midi": 77,
          "name": "F5",
          "ticks": 151230,
          "time": 63.0125,
          "velocity": 1
        },
        {
          "duration": 0.10000000000000142,
          "durationTicks": 240,
          "midi": 65,
          "name": "F4",
          "ticks": 151230,
          "time": 63.0125,
          "velocity": 1
        },
        {
          "duration": 0.10000000000000142,
          "durationTicks": 240,
          "midi": 72,
          "name": "C5",
          "ticks": 151230,
          "time": 63.0125,
          "velocity": 1
        },
        {
          "duration": 0.09999999999999432,
          "durationTicks": 240,
          "midi": 65,
          "name": "F4",
          "ticks": 151710,
          "time": 63.212500000000006,
          "velocity": 0.7401574803149606
        },
        {
          "duration": 0.09999999999999432,
          "durationTicks": 240,
          "midi": 72,
          "name": "C5",
          "ticks": 151710,
          "time": 63.212500000000006,
          "velocity": 0.7401574803149606
        },
        {
          "duration": 0.09999999999999432,
          "durationTicks": 240,
          "midi": 77,
          "name": "F5",
          "ticks": 151710,
          "time": 63.212500000000006,
          "velocity": 0.7401574803149606
        },
        {
          "duration": 0.10000000000000142,
          "durationTicks": 240,
          "midi": 77,
          "name": "F5",
          "ticks": 151950,
          "time": 63.3125,
          "velocity": 1
        },
        {
          "duration": 0.10000000000000142,
          "durationTicks": 240,
          "midi": 65,
          "name": "F4",
          "ticks": 151950,
          "time": 63.3125,
          "velocity": 1
        },
        {
          "duration": 0.10000000000000142,
          "durationTicks": 240,
          "midi": 72,
          "name": "C5",
          "ticks": 151950,
          "time": 63.3125,
          "velocity": 1
        },
        {
          "duration": 0.10000000000000142,
          "durationTicks": 240,
          "midi": 65,
          "name": "F4",
          "ticks": 152430,
          "time": 63.5125,
          "velocity": 0.7401574803149606
        },
        {
          "duration": 0.10000000000000142,
          "durationTicks": 240,
          "midi": 72,
          "name": "C5",
          "ticks": 152430,
          "time": 63.5125,
          "velocity": 0.7401574803149606
        },
        {
          "duration": 0.10000000000000142,
          "durationTicks": 240,
          "midi": 77,
          "name": "F5",
          "ticks": 152430,
          "time": 63.5125,
          "velocity": 0.7401574803149606
        },
        {
          "duration": 0.10000000000000142,
          "durationTicks": 240,
          "midi": 77,
          "name": "F5",
          "ticks": 152670,
          "time": 63.612500000000004,
          "velocity": 1
        },
        {
          "duration": 0.10000000000000142,
          "durationTicks": 240,
          "midi": 65,
          "name": "F4",
          "ticks": 152670,
          "time": 63.612500000000004,
          "velocity": 1
        },
        {
          "duration": 0.10000000000000142,
          "durationTicks": 240,
          "midi": 72,
          "name": "C5",
          "ticks": 152670,
          "time": 63.612500000000004,
          "velocity": 1
        },
        {
          "duration": 0.10000000000000142,
          "durationTicks": 240,
          "midi": 75,
          "name": "D#5",
          "ticks": 153150,
          "time": 63.8125,
          "velocity": 1
        },
        {
          "duration": 0.10000000000000142,
          "durationTicks": 240,
          "midi": 63,
          "name": "D#4",
          "ticks": 153150,
          "time": 63.8125,
          "velocity": 1
        },
        {
          "duration": 0.10000000000000142,
          "durationTicks": 240,
          "midi": 70,
          "name": "A#4",
          "ticks": 153150,
          "time": 63.8125,
          "velocity": 1
        },
        {
          "duration": 0.09999999999999432,
          "durationTicks": 240,
          "midi": 72,
          "name": "C5",
          "ticks": 153630,
          "time": 64.0125,
          "velocity": 1
        },
        {
          "duration": 0.09999999999999432,
          "durationTicks": 240,
          "midi": 65,
          "name": "F4",
          "ticks": 153630,
          "time": 64.0125,
          "velocity": 1
        },
        {
          "duration": 0.09999999999999432,
          "durationTicks": 240,
          "midi": 77,
          "name": "F5",
          "ticks": 153630,
          "time": 64.0125,
          "velocity": 1
        },
        {
          "duration": 0.09999999999999432,
          "durationTicks": 240,
          "midi": 65,
          "name": "F4",
          "ticks": 154110,
          "time": 64.2125,
          "velocity": 0.7401574803149606
        },
        {
          "duration": 0.09999999999999432,
          "durationTicks": 240,
          "midi": 72,
          "name": "C5",
          "ticks": 154110,
          "time": 64.2125,
          "velocity": 0.7401574803149606
        },
        {
          "duration": 0.09999999999999432,
          "durationTicks": 240,
          "midi": 77,
          "name": "F5",
          "ticks": 154110,
          "time": 64.2125,
          "velocity": 0.7401574803149606
        },
        {
          "duration": 0.10000000000000853,
          "durationTicks": 240,
          "midi": 72,
          "name": "C5",
          "ticks": 154350,
          "time": 64.3125,
          "velocity": 1
        },
        {
          "duration": 0.10000000000000853,
          "durationTicks": 240,
          "midi": 65,
          "name": "F4",
          "ticks": 154350,
          "time": 64.3125,
          "velocity": 1
        },
        {
          "duration": 0.10000000000000853,
          "durationTicks": 240,
          "midi": 77,
          "name": "F5",
          "ticks": 154350,
          "time": 64.3125,
          "velocity": 1
        },
        {
          "duration": 0.09999999999999432,
          "durationTicks": 240,
          "midi": 65,
          "name": "F4",
          "ticks": 154830,
          "time": 64.5125,
          "velocity": 0.7401574803149606
        },
        {
          "duration": 0.09999999999999432,
          "durationTicks": 240,
          "midi": 72,
          "name": "C5",
          "ticks": 154830,
          "time": 64.5125,
          "velocity": 0.7401574803149606
        },
        {
          "duration": 0.09999999999999432,
          "durationTicks": 240,
          "midi": 77,
          "name": "F5",
          "ticks": 154830,
          "time": 64.5125,
          "velocity": 0.7401574803149606
        },
        {
          "duration": 0.10000000000000853,
          "durationTicks": 240,
          "midi": 72,
          "name": "C5",
          "ticks": 155070,
          "time": 64.6125,
          "velocity": 1
        },
        {
          "duration": 0.10000000000000853,
          "durationTicks": 240,
          "midi": 65,
          "name": "F4",
          "ticks": 155070,
          "time": 64.6125,
          "velocity": 1
        },
        {
          "duration": 0.10000000000000853,
          "durationTicks": 240,
          "midi": 77,
          "name": "F5",
          "ticks": 155070,
          "time": 64.6125,
          "velocity": 1
        },
        {
          "duration": 0.10000000000000853,
          "durationTicks": 240,
          "midi": 65,
          "name": "F4",
          "ticks": 155550,
          "time": 64.8125,
          "velocity": 0.7401574803149606
        },
        {
          "duration": 0.10000000000000853,
          "durationTicks": 240,
          "midi": 72,
          "name": "C5",
          "ticks": 155550,
          "time": 64.8125,
          "velocity": 0.7401574803149606
        },
        {
          "duration": 0.10000000000000853,
          "durationTicks": 240,
          "midi": 77,
          "name": "F5",
          "ticks": 155550,
          "time": 64.8125,
          "velocity": 0.7401574803149606
        },
        {
          "duration": 0.09999999999999432,
          "durationTicks": 240,
          "midi": 72,
          "name": "C5",
          "ticks": 155790,
          "time": 64.91250000000001,
          "velocity": 1
        },
        {
          "duration": 0.09999999999999432,
          "durationTicks": 240,
          "midi": 65,
          "name": "F4",
          "ticks": 155790,
          "time": 64.91250000000001,
          "velocity": 1
        },
        {
          "duration": 0.09999999999999432,
          "durationTicks": 240,
          "midi": 77,
          "name": "F5",
          "ticks": 155790,
          "time": 64.91250000000001,
          "velocity": 1
        },
        {
          "duration": 0.10000000000000853,
          "durationTicks": 240,
          "midi": 65,
          "name": "F4",
          "ticks": 156270,
          "time": 65.1125,
          "velocity": 0.7401574803149606
        },
        {
          "duration": 0.10000000000000853,
          "durationTicks": 240,
          "midi": 72,
          "name": "C5",
          "ticks": 156270,
          "time": 65.1125,
          "velocity": 0.7401574803149606
        },
        {
          "duration": 0.10000000000000853,
          "durationTicks": 240,
          "midi": 77,
          "name": "F5",
          "ticks": 156270,
          "time": 65.1125,
          "velocity": 0.7401574803149606
        },
        {
          "duration": 0.09999999999999432,
          "durationTicks": 240,
          "midi": 72,
          "name": "C5",
          "ticks": 156510,
          "time": 65.2125,
          "velocity": 1
        },
        {
          "duration": 0.09999999999999432,
          "durationTicks": 240,
          "midi": 65,
          "name": "F4",
          "ticks": 156510,
          "time": 65.2125,
          "velocity": 1
        },
        {
          "duration": 0.09999999999999432,
          "durationTicks": 240,
          "midi": 77,
          "name": "F5",
          "ticks": 156510,
          "time": 65.2125,
          "velocity": 1
        },
        {
          "duration": 0.09999999999999432,
          "durationTicks": 240,
          "midi": 73,
          "name": "C#5",
          "ticks": 156990,
          "time": 65.41250000000001,
          "velocity": 1
        },
        {
          "duration": 0.09999999999999432,
          "durationTicks": 240,
          "midi": 66,
          "name": "F#4",
          "ticks": 156990,
          "time": 65.41250000000001,
          "velocity": 1
        },
        {
          "duration": 0.09999999999999432,
          "durationTicks": 240,
          "midi": 78,
          "name": "F#5",
          "ticks": 156990,
          "time": 65.41250000000001,
          "velocity": 1
        },
        {
          "duration": 0.10000000000000853,
          "durationTicks": 240,
          "midi": 77,
          "name": "F5",
          "ticks": 157470,
          "time": 65.6125,
          "velocity": 1
        },
        {
          "duration": 0.10000000000000853,
          "durationTicks": 240,
          "midi": 65,
          "name": "F4",
          "ticks": 157470,
          "time": 65.6125,
          "velocity": 1
        },
        {
          "duration": 0.10000000000000853,
          "durationTicks": 240,
          "midi": 72,
          "name": "C5",
          "ticks": 157470,
          "time": 65.6125,
          "velocity": 1
        },
        {
          "duration": 0.10000000000000853,
          "durationTicks": 240,
          "midi": 65,
          "name": "F4",
          "ticks": 157950,
          "time": 65.8125,
          "velocity": 0.7401574803149606
        },
        {
          "duration": 0.10000000000000853,
          "durationTicks": 240,
          "midi": 72,
          "name": "C5",
          "ticks": 157950,
          "time": 65.8125,
          "velocity": 0.7401574803149606
        },
        {
          "duration": 0.10000000000000853,
          "durationTicks": 240,
          "midi": 77,
          "name": "F5",
          "ticks": 157950,
          "time": 65.8125,
          "velocity": 0.7401574803149606
        },
        {
          "duration": 0.09999999999999432,
          "durationTicks": 240,
          "midi": 77,
          "name": "F5",
          "ticks": 158190,
          "time": 65.91250000000001,
          "velocity": 1
        },
        {
          "duration": 0.09999999999999432,
          "durationTicks": 240,
          "midi": 65,
          "name": "F4",
          "ticks": 158190,
          "time": 65.91250000000001,
          "velocity": 1
        },
        {
          "duration": 0.09999999999999432,
          "durationTicks": 240,
          "midi": 72,
          "name": "C5",
          "ticks": 158190,
          "time": 65.91250000000001,
          "velocity": 1
        },
        {
          "duration": 0.10000000000000853,
          "durationTicks": 240,
          "midi": 65,
          "name": "F4",
          "ticks": 158670,
          "time": 66.1125,
          "velocity": 0.7401574803149606
        },
        {
          "duration": 0.10000000000000853,
          "durationTicks": 240,
          "midi": 72,
          "name": "C5",
          "ticks": 158670,
          "time": 66.1125,
          "velocity": 0.7401574803149606
        },
        {
          "duration": 0.10000000000000853,
          "durationTicks": 240,
          "midi": 77,
          "name": "F5",
          "ticks": 158670,
          "time": 66.1125,
          "velocity": 0.7401574803149606
        },
        {
          "duration": 0.09999999999999432,
          "durationTicks": 240,
          "midi": 77,
          "name": "F5",
          "ticks": 158910,
          "time": 66.2125,
          "velocity": 1
        },
        {
          "duration": 0.09999999999999432,
          "durationTicks": 240,
          "midi": 65,
          "name": "F4",
          "ticks": 158910,
          "time": 66.2125,
          "velocity": 1
        },
        {
          "duration": 0.09999999999999432,
          "durationTicks": 240,
          "midi": 72,
          "name": "C5",
          "ticks": 158910,
          "time": 66.2125,
          "velocity": 1
        },
        {
          "duration": 0.09999999999999432,
          "durationTicks": 240,
          "midi": 65,
          "name": "F4",
          "ticks": 159390,
          "time": 66.41250000000001,
          "velocity": 0.7401574803149606
        },
        {
          "duration": 0.09999999999999432,
          "durationTicks": 240,
          "midi": 72,
          "name": "C5",
          "ticks": 159390,
          "time": 66.41250000000001,
          "velocity": 0.7401574803149606
        },
        {
          "duration": 0.09999999999999432,
          "durationTicks": 240,
          "midi": 77,
          "name": "F5",
          "ticks": 159390,
          "time": 66.41250000000001,
          "velocity": 0.7401574803149606
        },
        {
          "duration": 0.09999999999999432,
          "durationTicks": 240,
          "midi": 77,
          "name": "F5",
          "ticks": 159630,
          "time": 66.5125,
          "velocity": 1
        },
        {
          "duration": 0.09999999999999432,
          "durationTicks": 240,
          "midi": 65,
          "name": "F4",
          "ticks": 159630,
          "time": 66.5125,
          "velocity": 1
        },
        {
          "duration": 0.09999999999999432,
          "durationTicks": 240,
          "midi": 72,
          "name": "C5",
          "ticks": 159630,
          "time": 66.5125,
          "velocity": 1
        },
        {
          "duration": 0.09999999999999432,
          "durationTicks": 240,
          "midi": 65,
          "name": "F4",
          "ticks": 160110,
          "time": 66.7125,
          "velocity": 0.7401574803149606
        },
        {
          "duration": 0.09999999999999432,
          "durationTicks": 240,
          "midi": 72,
          "name": "C5",
          "ticks": 160110,
          "time": 66.7125,
          "velocity": 0.7401574803149606
        },
        {
          "duration": 0.09999999999999432,
          "durationTicks": 240,
          "midi": 77,
          "name": "F5",
          "ticks": 160110,
          "time": 66.7125,
          "velocity": 0.7401574803149606
        },
        {
          "duration": 0.10000000000000853,
          "durationTicks": 240,
          "midi": 77,
          "name": "F5",
          "ticks": 160350,
          "time": 66.8125,
          "velocity": 1
        },
        {
          "duration": 0.10000000000000853,
          "durationTicks": 240,
          "midi": 65,
          "name": "F4",
          "ticks": 160350,
          "time": 66.8125,
          "velocity": 1
        },
        {
          "duration": 0.10000000000000853,
          "durationTicks": 240,
          "midi": 72,
          "name": "C5",
          "ticks": 160350,
          "time": 66.8125,
          "velocity": 1
        },
        {
          "duration": 0.09999999999999432,
          "durationTicks": 240,
          "midi": 75,
          "name": "D#5",
          "ticks": 160830,
          "time": 67.0125,
          "velocity": 1
        },
        {
          "duration": 0.09999999999999432,
          "durationTicks": 240,
          "midi": 63,
          "name": "D#4",
          "ticks": 160830,
          "time": 67.0125,
          "velocity": 1
        },
        {
          "duration": 0.09999999999999432,
          "durationTicks": 240,
          "midi": 70,
          "name": "A#4",
          "ticks": 160830,
          "time": 67.0125,
          "velocity": 1
        },
        {
          "duration": 0.09999999999999432,
          "durationTicks": 240,
          "midi": 72,
          "name": "C5",
          "ticks": 161310,
          "time": 67.2125,
          "velocity": 1
        },
        {
          "duration": 0.09999999999999432,
          "durationTicks": 240,
          "midi": 65,
          "name": "F4",
          "ticks": 161310,
          "time": 67.2125,
          "velocity": 1
        },
        {
          "duration": 0.09999999999999432,
          "durationTicks": 240,
          "midi": 77,
          "name": "F5",
          "ticks": 161310,
          "time": 67.2125,
          "velocity": 1
        },
        {
          "duration": 0.09999999999999432,
          "durationTicks": 240,
          "midi": 65,
          "name": "F4",
          "ticks": 161790,
          "time": 67.41250000000001,
          "velocity": 0.7401574803149606
        },
        {
          "duration": 0.09999999999999432,
          "durationTicks": 240,
          "midi": 72,
          "name": "C5",
          "ticks": 161790,
          "time": 67.41250000000001,
          "velocity": 0.7401574803149606
        },
        {
          "duration": 0.09999999999999432,
          "durationTicks": 240,
          "midi": 77,
          "name": "F5",
          "ticks": 161790,
          "time": 67.41250000000001,
          "velocity": 0.7401574803149606
        },
        {
          "duration": 0.09999999999999432,
          "durationTicks": 240,
          "midi": 72,
          "name": "C5",
          "ticks": 162030,
          "time": 67.5125,
          "velocity": 1
        },
        {
          "duration": 0.09999999999999432,
          "durationTicks": 240,
          "midi": 65,
          "name": "F4",
          "ticks": 162030,
          "time": 67.5125,
          "velocity": 1
        },
        {
          "duration": 0.09999999999999432,
          "durationTicks": 240,
          "midi": 77,
          "name": "F5",
          "ticks": 162030,
          "time": 67.5125,
          "velocity": 1
        },
        {
          "duration": 0.09999999999999432,
          "durationTicks": 240,
          "midi": 65,
          "name": "F4",
          "ticks": 162510,
          "time": 67.7125,
          "velocity": 0.7401574803149606
        },
        {
          "duration": 0.09999999999999432,
          "durationTicks": 240,
          "midi": 72,
          "name": "C5",
          "ticks": 162510,
          "time": 67.7125,
          "velocity": 0.7401574803149606
        },
        {
          "duration": 0.09999999999999432,
          "durationTicks": 240,
          "midi": 77,
          "name": "F5",
          "ticks": 162510,
          "time": 67.7125,
          "velocity": 0.7401574803149606
        },
        {
          "duration": 0.10000000000000853,
          "durationTicks": 240,
          "midi": 72,
          "name": "C5",
          "ticks": 162750,
          "time": 67.8125,
          "velocity": 1
        },
        {
          "duration": 0.10000000000000853,
          "durationTicks": 240,
          "midi": 65,
          "name": "F4",
          "ticks": 162750,
          "time": 67.8125,
          "velocity": 1
        },
        {
          "duration": 0.10000000000000853,
          "durationTicks": 240,
          "midi": 77,
          "name": "F5",
          "ticks": 162750,
          "time": 67.8125,
          "velocity": 1
        },
        {
          "duration": 0.09999999999999432,
          "durationTicks": 240,
          "midi": 65,
          "name": "F4",
          "ticks": 163230,
          "time": 68.0125,
          "velocity": 0.7401574803149606
        },
        {
          "duration": 0.09999999999999432,
          "durationTicks": 240,
          "midi": 72,
          "name": "C5",
          "ticks": 163230,
          "time": 68.0125,
          "velocity": 0.7401574803149606
        },
        {
          "duration": 0.09999999999999432,
          "durationTicks": 240,
          "midi": 77,
          "name": "F5",
          "ticks": 163230,
          "time": 68.0125,
          "velocity": 0.7401574803149606
        },
        {
          "duration": 0.10000000000000853,
          "durationTicks": 240,
          "midi": 72,
          "name": "C5",
          "ticks": 163470,
          "time": 68.1125,
          "velocity": 1
        },
        {
          "duration": 0.10000000000000853,
          "durationTicks": 240,
          "midi": 65,
          "name": "F4",
          "ticks": 163470,
          "time": 68.1125,
          "velocity": 1
        },
        {
          "duration": 0.10000000000000853,
          "durationTicks": 240,
          "midi": 77,
          "name": "F5",
          "ticks": 163470,
          "time": 68.1125,
          "velocity": 1
        },
        {
          "duration": 0.10000000000000853,
          "durationTicks": 240,
          "midi": 65,
          "name": "F4",
          "ticks": 163950,
          "time": 68.3125,
          "velocity": 0.7401574803149606
        },
        {
          "duration": 0.10000000000000853,
          "durationTicks": 240,
          "midi": 72,
          "name": "C5",
          "ticks": 163950,
          "time": 68.3125,
          "velocity": 0.7401574803149606
        },
        {
          "duration": 0.10000000000000853,
          "durationTicks": 240,
          "midi": 77,
          "name": "F5",
          "ticks": 163950,
          "time": 68.3125,
          "velocity": 0.7401574803149606
        },
        {
          "duration": 0.09999999999999432,
          "durationTicks": 240,
          "midi": 72,
          "name": "C5",
          "ticks": 164190,
          "time": 68.41250000000001,
          "velocity": 1
        },
        {
          "duration": 0.09999999999999432,
          "durationTicks": 240,
          "midi": 65,
          "name": "F4",
          "ticks": 164190,
          "time": 68.41250000000001,
          "velocity": 1
        },
        {
          "duration": 0.09999999999999432,
          "durationTicks": 240,
          "midi": 77,
          "name": "F5",
          "ticks": 164190,
          "time": 68.41250000000001,
          "velocity": 1
        },
        {
          "duration": 0.10000000000000853,
          "durationTicks": 240,
          "midi": 73,
          "name": "C#5",
          "ticks": 164670,
          "time": 68.6125,
          "velocity": 1
        },
        {
          "duration": 0.10000000000000853,
          "durationTicks": 240,
          "midi": 66,
          "name": "F#4",
          "ticks": 164670,
          "time": 68.6125,
          "velocity": 1
        },
        {
          "duration": 0.10000000000000853,
          "durationTicks": 240,
          "midi": 78,
          "name": "F#5",
          "ticks": 164670,
          "time": 68.6125,
          "velocity": 1
        },
        {
          "duration": 0.10000000000000853,
          "durationTicks": 240,
          "midi": 77,
          "name": "F5",
          "ticks": 165150,
          "time": 68.8125,
          "velocity": 1
        },
        {
          "duration": 0.10000000000000853,
          "durationTicks": 240,
          "midi": 65,
          "name": "F4",
          "ticks": 165150,
          "time": 68.8125,
          "velocity": 1
        },
        {
          "duration": 0.10000000000000853,
          "durationTicks": 240,
          "midi": 72,
          "name": "C5",
          "ticks": 165150,
          "time": 68.8125,
          "velocity": 1
        },
        {
          "duration": 0.09999999999999432,
          "durationTicks": 240,
          "midi": 65,
          "name": "F4",
          "ticks": 165630,
          "time": 69.0125,
          "velocity": 0.7401574803149606
        },
        {
          "duration": 0.09999999999999432,
          "durationTicks": 240,
          "midi": 72,
          "name": "C5",
          "ticks": 165630,
          "time": 69.0125,
          "velocity": 0.7401574803149606
        },
        {
          "duration": 0.09999999999999432,
          "durationTicks": 240,
          "midi": 77,
          "name": "F5",
          "ticks": 165630,
          "time": 69.0125,
          "velocity": 0.7401574803149606
        },
        {
          "duration": 0.10000000000000853,
          "durationTicks": 240,
          "midi": 77,
          "name": "F5",
          "ticks": 165870,
          "time": 69.1125,
          "velocity": 1
        },
        {
          "duration": 0.10000000000000853,
          "durationTicks": 240,
          "midi": 65,
          "name": "F4",
          "ticks": 165870,
          "time": 69.1125,
          "velocity": 1
        },
        {
          "duration": 0.10000000000000853,
          "durationTicks": 240,
          "midi": 72,
          "name": "C5",
          "ticks": 165870,
          "time": 69.1125,
          "velocity": 1
        },
        {
          "duration": 0.10000000000000853,
          "durationTicks": 240,
          "midi": 65,
          "name": "F4",
          "ticks": 166350,
          "time": 69.3125,
          "velocity": 0.7401574803149606
        },
        {
          "duration": 0.10000000000000853,
          "durationTicks": 240,
          "midi": 72,
          "name": "C5",
          "ticks": 166350,
          "time": 69.3125,
          "velocity": 0.7401574803149606
        },
        {
          "duration": 0.10000000000000853,
          "durationTicks": 240,
          "midi": 77,
          "name": "F5",
          "ticks": 166350,
          "time": 69.3125,
          "velocity": 0.7401574803149606
        },
        {
          "duration": 0.09999999999999432,
          "durationTicks": 240,
          "midi": 77,
          "name": "F5",
          "ticks": 166590,
          "time": 69.41250000000001,
          "velocity": 1
        },
        {
          "duration": 0.09999999999999432,
          "durationTicks": 240,
          "midi": 65,
          "name": "F4",
          "ticks": 166590,
          "time": 69.41250000000001,
          "velocity": 1
        },
        {
          "duration": 0.09999999999999432,
          "durationTicks": 240,
          "midi": 72,
          "name": "C5",
          "ticks": 166590,
          "time": 69.41250000000001,
          "velocity": 1
        },
        {
          "duration": 0.10000000000000853,
          "durationTicks": 240,
          "midi": 65,
          "name": "F4",
          "ticks": 167070,
          "time": 69.6125,
          "velocity": 0.7401574803149606
        },
        {
          "duration": 0.10000000000000853,
          "durationTicks": 240,
          "midi": 72,
          "name": "C5",
          "ticks": 167070,
          "time": 69.6125,
          "velocity": 0.7401574803149606
        },
        {
          "duration": 0.10000000000000853,
          "durationTicks": 240,
          "midi": 77,
          "name": "F5",
          "ticks": 167070,
          "time": 69.6125,
          "velocity": 0.7401574803149606
        },
        {
          "duration": 0.09999999999999432,
          "durationTicks": 240,
          "midi": 77,
          "name": "F5",
          "ticks": 167310,
          "time": 69.7125,
          "velocity": 1
        },
        {
          "duration": 0.09999999999999432,
          "durationTicks": 240,
          "midi": 65,
          "name": "F4",
          "ticks": 167310,
          "time": 69.7125,
          "velocity": 1
        },
        {
          "duration": 0.09999999999999432,
          "durationTicks": 240,
          "midi": 72,
          "name": "C5",
          "ticks": 167310,
          "time": 69.7125,
          "velocity": 1
        },
        {
          "duration": 0.09999999999999432,
          "durationTicks": 240,
          "midi": 65,
          "name": "F4",
          "ticks": 167790,
          "time": 69.91250000000001,
          "velocity": 0.7401574803149606
        },
        {
          "duration": 0.09999999999999432,
          "durationTicks": 240,
          "midi": 72,
          "name": "C5",
          "ticks": 167790,
          "time": 69.91250000000001,
          "velocity": 0.7401574803149606
        },
        {
          "duration": 0.09999999999999432,
          "durationTicks": 240,
          "midi": 77,
          "name": "F5",
          "ticks": 167790,
          "time": 69.91250000000001,
          "velocity": 0.7401574803149606
        },
        {
          "duration": 0.09999999999999432,
          "durationTicks": 240,
          "midi": 77,
          "name": "F5",
          "ticks": 168030,
          "time": 70.0125,
          "velocity": 1
        },
        {
          "duration": 0.09999999999999432,
          "durationTicks": 240,
          "midi": 65,
          "name": "F4",
          "ticks": 168030,
          "time": 70.0125,
          "velocity": 1
        },
        {
          "duration": 0.09999999999999432,
          "durationTicks": 240,
          "midi": 72,
          "name": "C5",
          "ticks": 168030,
          "time": 70.0125,
          "velocity": 1
        },
        {
          "duration": 0.09999999999999432,
          "durationTicks": 240,
          "midi": 75,
          "name": "D#5",
          "ticks": 168510,
          "time": 70.2125,
          "velocity": 1
        },
        {
          "duration": 0.09999999999999432,
          "durationTicks": 240,
          "midi": 63,
          "name": "D#4",
          "ticks": 168510,
          "time": 70.2125,
          "velocity": 1
        },
        {
          "duration": 0.09999999999999432,
          "durationTicks": 240,
          "midi": 70,
          "name": "A#4",
          "ticks": 168510,
          "time": 70.2125,
          "velocity": 1
        },
        {
          "duration": 0.09999999999999432,
          "durationTicks": 240,
          "midi": 72,
          "name": "C5",
          "ticks": 168990,
          "time": 70.41250000000001,
          "velocity": 1
        },
        {
          "duration": 0.09999999999999432,
          "durationTicks": 240,
          "midi": 65,
          "name": "F4",
          "ticks": 168990,
          "time": 70.41250000000001,
          "velocity": 1
        },
        {
          "duration": 0.09999999999999432,
          "durationTicks": 240,
          "midi": 77,
          "name": "F5",
          "ticks": 168990,
          "time": 70.41250000000001,
          "velocity": 1
        },
        {
          "duration": 0.10000000000000853,
          "durationTicks": 240,
          "midi": 65,
          "name": "F4",
          "ticks": 169470,
          "time": 70.6125,
          "velocity": 0.7401574803149606
        },
        {
          "duration": 0.10000000000000853,
          "durationTicks": 240,
          "midi": 72,
          "name": "C5",
          "ticks": 169470,
          "time": 70.6125,
          "velocity": 0.7401574803149606
        },
        {
          "duration": 0.10000000000000853,
          "durationTicks": 240,
          "midi": 77,
          "name": "F5",
          "ticks": 169470,
          "time": 70.6125,
          "velocity": 0.7401574803149606
        },
        {
          "duration": 0.09999999999999432,
          "durationTicks": 240,
          "midi": 72,
          "name": "C5",
          "ticks": 169710,
          "time": 70.7125,
          "velocity": 1
        },
        {
          "duration": 0.09999999999999432,
          "durationTicks": 240,
          "midi": 65,
          "name": "F4",
          "ticks": 169710,
          "time": 70.7125,
          "velocity": 1
        },
        {
          "duration": 0.09999999999999432,
          "durationTicks": 240,
          "midi": 77,
          "name": "F5",
          "ticks": 169710,
          "time": 70.7125,
          "velocity": 1
        },
        {
          "duration": 0.09999999999999432,
          "durationTicks": 240,
          "midi": 65,
          "name": "F4",
          "ticks": 170190,
          "time": 70.91250000000001,
          "velocity": 0.7401574803149606
        },
        {
          "duration": 0.09999999999999432,
          "durationTicks": 240,
          "midi": 72,
          "name": "C5",
          "ticks": 170190,
          "time": 70.91250000000001,
          "velocity": 0.7401574803149606
        },
        {
          "duration": 0.09999999999999432,
          "durationTicks": 240,
          "midi": 77,
          "name": "F5",
          "ticks": 170190,
          "time": 70.91250000000001,
          "velocity": 0.7401574803149606
        },
        {
          "duration": 0.09999999999999432,
          "durationTicks": 240,
          "midi": 72,
          "name": "C5",
          "ticks": 170430,
          "time": 71.0125,
          "velocity": 1
        },
        {
          "duration": 0.09999999999999432,
          "durationTicks": 240,
          "midi": 65,
          "name": "F4",
          "ticks": 170430,
          "time": 71.0125,
          "velocity": 1
        },
        {
          "duration": 0.09999999999999432,
          "durationTicks": 240,
          "midi": 77,
          "name": "F5",
          "ticks": 170430,
          "time": 71.0125,
          "velocity": 1
        },
        {
          "duration": 0.09999999999999432,
          "durationTicks": 240,
          "midi": 65,
          "name": "F4",
          "ticks": 170910,
          "time": 71.2125,
          "velocity": 0.7401574803149606
        },
        {
          "duration": 0.09999999999999432,
          "durationTicks": 240,
          "midi": 72,
          "name": "C5",
          "ticks": 170910,
          "time": 71.2125,
          "velocity": 0.7401574803149606
        },
        {
          "duration": 0.09999999999999432,
          "durationTicks": 240,
          "midi": 77,
          "name": "F5",
          "ticks": 170910,
          "time": 71.2125,
          "velocity": 0.7401574803149606
        },
        {
          "duration": 0.10000000000000853,
          "durationTicks": 240,
          "midi": 72,
          "name": "C5",
          "ticks": 171150,
          "time": 71.3125,
          "velocity": 1
        },
        {
          "duration": 0.10000000000000853,
          "durationTicks": 240,
          "midi": 65,
          "name": "F4",
          "ticks": 171150,
          "time": 71.3125,
          "velocity": 1
        },
        {
          "duration": 0.10000000000000853,
          "durationTicks": 240,
          "midi": 77,
          "name": "F5",
          "ticks": 171150,
          "time": 71.3125,
          "velocity": 1
        },
        {
          "duration": 0.09999999999999432,
          "durationTicks": 240,
          "midi": 65,
          "name": "F4",
          "ticks": 171630,
          "time": 71.5125,
          "velocity": 0.7401574803149606
        },
        {
          "duration": 0.09999999999999432,
          "durationTicks": 240,
          "midi": 72,
          "name": "C5",
          "ticks": 171630,
          "time": 71.5125,
          "velocity": 0.7401574803149606
        },
        {
          "duration": 0.09999999999999432,
          "durationTicks": 240,
          "midi": 77,
          "name": "F5",
          "ticks": 171630,
          "time": 71.5125,
          "velocity": 0.7401574803149606
        },
        {
          "duration": 0.10000000000000853,
          "durationTicks": 240,
          "midi": 72,
          "name": "C5",
          "ticks": 171870,
          "time": 71.6125,
          "velocity": 1
        },
        {
          "duration": 0.10000000000000853,
          "durationTicks": 240,
          "midi": 65,
          "name": "F4",
          "ticks": 171870,
          "time": 71.6125,
          "velocity": 1
        },
        {
          "duration": 0.10000000000000853,
          "durationTicks": 240,
          "midi": 77,
          "name": "F5",
          "ticks": 171870,
          "time": 71.6125,
          "velocity": 1
        },
        {
          "duration": 0.10000000000000853,
          "durationTicks": 240,
          "midi": 73,
          "name": "C#5",
          "ticks": 172350,
          "time": 71.8125,
          "velocity": 1
        },
        {
          "duration": 0.10000000000000853,
          "durationTicks": 240,
          "midi": 66,
          "name": "F#4",
          "ticks": 172350,
          "time": 71.8125,
          "velocity": 1
        },
        {
          "duration": 0.10000000000000853,
          "durationTicks": 240,
          "midi": 78,
          "name": "F#5",
          "ticks": 172350,
          "time": 71.8125,
          "velocity": 1
        },
        {
          "duration": 0.09999999999999432,
          "durationTicks": 240,
          "midi": 77,
          "name": "F5",
          "ticks": 172830,
          "time": 72.0125,
          "velocity": 1
        },
        {
          "duration": 0.09999999999999432,
          "durationTicks": 240,
          "midi": 65,
          "name": "F4",
          "ticks": 172830,
          "time": 72.0125,
          "velocity": 1
        },
        {
          "duration": 0.09999999999999432,
          "durationTicks": 240,
          "midi": 72,
          "name": "C5",
          "ticks": 172830,
          "time": 72.0125,
          "velocity": 1
        },
        {
          "duration": 0.09999999999999432,
          "durationTicks": 240,
          "midi": 65,
          "name": "F4",
          "ticks": 173310,
          "time": 72.2125,
          "velocity": 0.7401574803149606
        },
        {
          "duration": 0.09999999999999432,
          "durationTicks": 240,
          "midi": 72,
          "name": "C5",
          "ticks": 173310,
          "time": 72.2125,
          "velocity": 0.7401574803149606
        },
        {
          "duration": 0.09999999999999432,
          "durationTicks": 240,
          "midi": 77,
          "name": "F5",
          "ticks": 173310,
          "time": 72.2125,
          "velocity": 0.7401574803149606
        },
        {
          "duration": 0.10000000000000853,
          "durationTicks": 240,
          "midi": 77,
          "name": "F5",
          "ticks": 173550,
          "time": 72.3125,
          "velocity": 1
        },
        {
          "duration": 0.10000000000000853,
          "durationTicks": 240,
          "midi": 65,
          "name": "F4",
          "ticks": 173550,
          "time": 72.3125,
          "velocity": 1
        },
        {
          "duration": 0.10000000000000853,
          "durationTicks": 240,
          "midi": 72,
          "name": "C5",
          "ticks": 173550,
          "time": 72.3125,
          "velocity": 1
        },
        {
          "duration": 0.09999999999999432,
          "durationTicks": 240,
          "midi": 65,
          "name": "F4",
          "ticks": 174030,
          "time": 72.5125,
          "velocity": 0.7401574803149606
        },
        {
          "duration": 0.09999999999999432,
          "durationTicks": 240,
          "midi": 72,
          "name": "C5",
          "ticks": 174030,
          "time": 72.5125,
          "velocity": 0.7401574803149606
        },
        {
          "duration": 0.09999999999999432,
          "durationTicks": 240,
          "midi": 77,
          "name": "F5",
          "ticks": 174030,
          "time": 72.5125,
          "velocity": 0.7401574803149606
        },
        {
          "duration": 0.10000000000000853,
          "durationTicks": 240,
          "midi": 77,
          "name": "F5",
          "ticks": 174270,
          "time": 72.6125,
          "velocity": 1
        },
        {
          "duration": 0.10000000000000853,
          "durationTicks": 240,
          "midi": 65,
          "name": "F4",
          "ticks": 174270,
          "time": 72.6125,
          "velocity": 1
        },
        {
          "duration": 0.10000000000000853,
          "durationTicks": 240,
          "midi": 72,
          "name": "C5",
          "ticks": 174270,
          "time": 72.6125,
          "velocity": 1
        },
        {
          "duration": 0.10000000000000853,
          "durationTicks": 240,
          "midi": 65,
          "name": "F4",
          "ticks": 174750,
          "time": 72.8125,
          "velocity": 0.7401574803149606
        },
        {
          "duration": 0.10000000000000853,
          "durationTicks": 240,
          "midi": 72,
          "name": "C5",
          "ticks": 174750,
          "time": 72.8125,
          "velocity": 0.7401574803149606
        },
        {
          "duration": 0.10000000000000853,
          "durationTicks": 240,
          "midi": 77,
          "name": "F5",
          "ticks": 174750,
          "time": 72.8125,
          "velocity": 0.7401574803149606
        },
        {
          "duration": 0.09999999999999432,
          "durationTicks": 240,
          "midi": 77,
          "name": "F5",
          "ticks": 174990,
          "time": 72.91250000000001,
          "velocity": 1
        },
        {
          "duration": 0.09999999999999432,
          "durationTicks": 240,
          "midi": 65,
          "name": "F4",
          "ticks": 174990,
          "time": 72.91250000000001,
          "velocity": 1
        },
        {
          "duration": 0.09999999999999432,
          "durationTicks": 240,
          "midi": 72,
          "name": "C5",
          "ticks": 174990,
          "time": 72.91250000000001,
          "velocity": 1
        },
        {
          "duration": 0.10000000000000853,
          "durationTicks": 240,
          "midi": 65,
          "name": "F4",
          "ticks": 175470,
          "time": 73.1125,
          "velocity": 0.7401574803149606
        },
        {
          "duration": 0.10000000000000853,
          "durationTicks": 240,
          "midi": 72,
          "name": "C5",
          "ticks": 175470,
          "time": 73.1125,
          "velocity": 0.7401574803149606
        },
        {
          "duration": 0.10000000000000853,
          "durationTicks": 240,
          "midi": 77,
          "name": "F5",
          "ticks": 175470,
          "time": 73.1125,
          "velocity": 0.7401574803149606
        },
        {
          "duration": 0.09999999999999432,
          "durationTicks": 240,
          "midi": 77,
          "name": "F5",
          "ticks": 175710,
          "time": 73.2125,
          "velocity": 1
        },
        {
          "duration": 0.09999999999999432,
          "durationTicks": 240,
          "midi": 65,
          "name": "F4",
          "ticks": 175710,
          "time": 73.2125,
          "velocity": 1
        },
        {
          "duration": 0.09999999999999432,
          "durationTicks": 240,
          "midi": 72,
          "name": "C5",
          "ticks": 175710,
          "time": 73.2125,
          "velocity": 1
        },
        {
          "duration": 0.09999999999999432,
          "durationTicks": 240,
          "midi": 75,
          "name": "D#5",
          "ticks": 176190,
          "time": 73.41250000000001,
          "velocity": 1
        },
        {
          "duration": 0.09999999999999432,
          "durationTicks": 240,
          "midi": 63,
          "name": "D#4",
          "ticks": 176190,
          "time": 73.41250000000001,
          "velocity": 1
        },
        {
          "duration": 0.09999999999999432,
          "durationTicks": 240,
          "midi": 70,
          "name": "A#4",
          "ticks": 176190,
          "time": 73.41250000000001,
          "velocity": 1
        },
        {
          "duration": 0.10000000000000853,
          "durationTicks": 240,
          "midi": 72,
          "name": "C5",
          "ticks": 176670,
          "time": 73.6125,
          "velocity": 1
        },
        {
          "duration": 0.10000000000000853,
          "durationTicks": 240,
          "midi": 65,
          "name": "F4",
          "ticks": 176670,
          "time": 73.6125,
          "velocity": 1
        },
        {
          "duration": 0.10000000000000853,
          "durationTicks": 240,
          "midi": 77,
          "name": "F5",
          "ticks": 176670,
          "time": 73.6125,
          "velocity": 1
        },
        {
          "duration": 0.10000000000000853,
          "durationTicks": 240,
          "midi": 65,
          "name": "F4",
          "ticks": 177150,
          "time": 73.8125,
          "velocity": 0.7401574803149606
        },
        {
          "duration": 0.10000000000000853,
          "durationTicks": 240,
          "midi": 72,
          "name": "C5",
          "ticks": 177150,
          "time": 73.8125,
          "velocity": 0.7401574803149606
        },
        {
          "duration": 0.10000000000000853,
          "durationTicks": 240,
          "midi": 77,
          "name": "F5",
          "ticks": 177150,
          "time": 73.8125,
          "velocity": 0.7401574803149606
        },
        {
          "duration": 0.09999999999999432,
          "durationTicks": 240,
          "midi": 72,
          "name": "C5",
          "ticks": 177390,
          "time": 73.91250000000001,
          "velocity": 1
        },
        {
          "duration": 0.09999999999999432,
          "durationTicks": 240,
          "midi": 65,
          "name": "F4",
          "ticks": 177390,
          "time": 73.91250000000001,
          "velocity": 1
        },
        {
          "duration": 0.09999999999999432,
          "durationTicks": 240,
          "midi": 77,
          "name": "F5",
          "ticks": 177390,
          "time": 73.91250000000001,
          "velocity": 1
        },
        {
          "duration": 0.10000000000000853,
          "durationTicks": 240,
          "midi": 65,
          "name": "F4",
          "ticks": 177870,
          "time": 74.1125,
          "velocity": 0.7401574803149606
        },
        {
          "duration": 0.10000000000000853,
          "durationTicks": 240,
          "midi": 72,
          "name": "C5",
          "ticks": 177870,
          "time": 74.1125,
          "velocity": 0.7401574803149606
        },
        {
          "duration": 0.10000000000000853,
          "durationTicks": 240,
          "midi": 77,
          "name": "F5",
          "ticks": 177870,
          "time": 74.1125,
          "velocity": 0.7401574803149606
        },
        {
          "duration": 0.09999999999999432,
          "durationTicks": 240,
          "midi": 72,
          "name": "C5",
          "ticks": 178110,
          "time": 74.2125,
          "velocity": 1
        },
        {
          "duration": 0.09999999999999432,
          "durationTicks": 240,
          "midi": 65,
          "name": "F4",
          "ticks": 178110,
          "time": 74.2125,
          "velocity": 1
        },
        {
          "duration": 0.09999999999999432,
          "durationTicks": 240,
          "midi": 77,
          "name": "F5",
          "ticks": 178110,
          "time": 74.2125,
          "velocity": 1
        },
        {
          "duration": 0.09999999999999432,
          "durationTicks": 240,
          "midi": 65,
          "name": "F4",
          "ticks": 178590,
          "time": 74.41250000000001,
          "velocity": 0.7401574803149606
        },
        {
          "duration": 0.09999999999999432,
          "durationTicks": 240,
          "midi": 72,
          "name": "C5",
          "ticks": 178590,
          "time": 74.41250000000001,
          "velocity": 0.7401574803149606
        },
        {
          "duration": 0.09999999999999432,
          "durationTicks": 240,
          "midi": 77,
          "name": "F5",
          "ticks": 178590,
          "time": 74.41250000000001,
          "velocity": 0.7401574803149606
        },
        {
          "duration": 0.09999999999999432,
          "durationTicks": 240,
          "midi": 72,
          "name": "C5",
          "ticks": 178830,
          "time": 74.5125,
          "velocity": 1
        },
        {
          "duration": 0.09999999999999432,
          "durationTicks": 240,
          "midi": 65,
          "name": "F4",
          "ticks": 178830,
          "time": 74.5125,
          "velocity": 1
        },
        {
          "duration": 0.09999999999999432,
          "durationTicks": 240,
          "midi": 77,
          "name": "F5",
          "ticks": 178830,
          "time": 74.5125,
          "velocity": 1
        },
        {
          "duration": 0.09999999999999432,
          "durationTicks": 240,
          "midi": 65,
          "name": "F4",
          "ticks": 179310,
          "time": 74.7125,
          "velocity": 0.7401574803149606
        },
        {
          "duration": 0.09999999999999432,
          "durationTicks": 240,
          "midi": 72,
          "name": "C5",
          "ticks": 179310,
          "time": 74.7125,
          "velocity": 0.7401574803149606
        },
        {
          "duration": 0.09999999999999432,
          "durationTicks": 240,
          "midi": 77,
          "name": "F5",
          "ticks": 179310,
          "time": 74.7125,
          "velocity": 0.7401574803149606
        },
        {
          "duration": 0.10000000000000853,
          "durationTicks": 240,
          "midi": 72,
          "name": "C5",
          "ticks": 179550,
          "time": 74.8125,
          "velocity": 1
        },
        {
          "duration": 0.10000000000000853,
          "durationTicks": 240,
          "midi": 65,
          "name": "F4",
          "ticks": 179550,
          "time": 74.8125,
          "velocity": 1
        },
        {
          "duration": 0.10000000000000853,
          "durationTicks": 240,
          "midi": 77,
          "name": "F5",
          "ticks": 179550,
          "time": 74.8125,
          "velocity": 1
        },
        {
          "duration": 0.09999999999999432,
          "durationTicks": 240,
          "midi": 73,
          "name": "C#5",
          "ticks": 180030,
          "time": 75.0125,
          "velocity": 1
        },
        {
          "duration": 0.09999999999999432,
          "durationTicks": 240,
          "midi": 66,
          "name": "F#4",
          "ticks": 180030,
          "time": 75.0125,
          "velocity": 1
        },
        {
          "duration": 0.09999999999999432,
          "durationTicks": 240,
          "midi": 78,
          "name": "F#5",
          "ticks": 180030,
          "time": 75.0125,
          "velocity": 1
        },
        {
          "duration": 0.09999999999999432,
          "durationTicks": 240,
          "midi": 77,
          "name": "F5",
          "ticks": 180510,
          "time": 75.2125,
          "velocity": 1
        },
        {
          "duration": 0.09999999999999432,
          "durationTicks": 240,
          "midi": 65,
          "name": "F4",
          "ticks": 180510,
          "time": 75.2125,
          "velocity": 1
        },
        {
          "duration": 0.09999999999999432,
          "durationTicks": 240,
          "midi": 72,
          "name": "C5",
          "ticks": 180510,
          "time": 75.2125,
          "velocity": 1
        },
        {
          "duration": 0.09999999999999432,
          "durationTicks": 240,
          "midi": 65,
          "name": "F4",
          "ticks": 180990,
          "time": 75.41250000000001,
          "velocity": 0.7401574803149606
        },
        {
          "duration": 0.09999999999999432,
          "durationTicks": 240,
          "midi": 72,
          "name": "C5",
          "ticks": 180990,
          "time": 75.41250000000001,
          "velocity": 0.7401574803149606
        },
        {
          "duration": 0.09999999999999432,
          "durationTicks": 240,
          "midi": 77,
          "name": "F5",
          "ticks": 180990,
          "time": 75.41250000000001,
          "velocity": 0.7401574803149606
        },
        {
          "duration": 0.09999999999999432,
          "durationTicks": 240,
          "midi": 77,
          "name": "F5",
          "ticks": 181230,
          "time": 75.5125,
          "velocity": 1
        },
        {
          "duration": 0.09999999999999432,
          "durationTicks": 240,
          "midi": 65,
          "name": "F4",
          "ticks": 181230,
          "time": 75.5125,
          "velocity": 1
        },
        {
          "duration": 0.09999999999999432,
          "durationTicks": 240,
          "midi": 72,
          "name": "C5",
          "ticks": 181230,
          "time": 75.5125,
          "velocity": 1
        },
        {
          "duration": 0.09999999999999432,
          "durationTicks": 240,
          "midi": 65,
          "name": "F4",
          "ticks": 181710,
          "time": 75.7125,
          "velocity": 0.7401574803149606
        },
        {
          "duration": 0.09999999999999432,
          "durationTicks": 240,
          "midi": 72,
          "name": "C5",
          "ticks": 181710,
          "time": 75.7125,
          "velocity": 0.7401574803149606
        },
        {
          "duration": 0.09999999999999432,
          "durationTicks": 240,
          "midi": 77,
          "name": "F5",
          "ticks": 181710,
          "time": 75.7125,
          "velocity": 0.7401574803149606
        },
        {
          "duration": 0.10000000000000853,
          "durationTicks": 240,
          "midi": 77,
          "name": "F5",
          "ticks": 181950,
          "time": 75.8125,
          "velocity": 1
        },
        {
          "duration": 0.10000000000000853,
          "durationTicks": 240,
          "midi": 65,
          "name": "F4",
          "ticks": 181950,
          "time": 75.8125,
          "velocity": 1
        },
        {
          "duration": 0.10000000000000853,
          "durationTicks": 240,
          "midi": 72,
          "name": "C5",
          "ticks": 181950,
          "time": 75.8125,
          "velocity": 1
        },
        {
          "duration": 0.09999999999999432,
          "durationTicks": 240,
          "midi": 65,
          "name": "F4",
          "ticks": 182430,
          "time": 76.0125,
          "velocity": 0.7401574803149606
        },
        {
          "duration": 0.09999999999999432,
          "durationTicks": 240,
          "midi": 72,
          "name": "C5",
          "ticks": 182430,
          "time": 76.0125,
          "velocity": 0.7401574803149606
        },
        {
          "duration": 0.09999999999999432,
          "durationTicks": 240,
          "midi": 77,
          "name": "F5",
          "ticks": 182430,
          "time": 76.0125,
          "velocity": 0.7401574803149606
        },
        {
          "duration": 0.10000000000000853,
          "durationTicks": 240,
          "midi": 77,
          "name": "F5",
          "ticks": 182670,
          "time": 76.1125,
          "velocity": 1
        },
        {
          "duration": 0.10000000000000853,
          "durationTicks": 240,
          "midi": 65,
          "name": "F4",
          "ticks": 182670,
          "time": 76.1125,
          "velocity": 1
        },
        {
          "duration": 0.10000000000000853,
          "durationTicks": 240,
          "midi": 72,
          "name": "C5",
          "ticks": 182670,
          "time": 76.1125,
          "velocity": 1
        },
        {
          "duration": 0.10000000000000853,
          "durationTicks": 240,
          "midi": 65,
          "name": "F4",
          "ticks": 183150,
          "time": 76.3125,
          "velocity": 0.7401574803149606
        },
        {
          "duration": 0.10000000000000853,
          "durationTicks": 240,
          "midi": 72,
          "name": "C5",
          "ticks": 183150,
          "time": 76.3125,
          "velocity": 0.7401574803149606
        },
        {
          "duration": 0.10000000000000853,
          "durationTicks": 240,
          "midi": 77,
          "name": "F5",
          "ticks": 183150,
          "time": 76.3125,
          "velocity": 0.7401574803149606
        },
        {
          "duration": 0.09999999999999432,
          "durationTicks": 240,
          "midi": 77,
          "name": "F5",
          "ticks": 183390,
          "time": 76.41250000000001,
          "velocity": 1
        },
        {
          "duration": 0.09999999999999432,
          "durationTicks": 240,
          "midi": 65,
          "name": "F4",
          "ticks": 183390,
          "time": 76.41250000000001,
          "velocity": 1
        },
        {
          "duration": 0.09999999999999432,
          "durationTicks": 240,
          "midi": 72,
          "name": "C5",
          "ticks": 183390,
          "time": 76.41250000000001,
          "velocity": 1
        },
        {
          "duration": 0.10000000000000853,
          "durationTicks": 240,
          "midi": 75,
          "name": "D#5",
          "ticks": 183870,
          "time": 76.6125,
          "velocity": 1
        },
        {
          "duration": 0.10000000000000853,
          "durationTicks": 240,
          "midi": 63,
          "name": "D#4",
          "ticks": 183870,
          "time": 76.6125,
          "velocity": 1
        },
        {
          "duration": 0.10000000000000853,
          "durationTicks": 240,
          "midi": 70,
          "name": "A#4",
          "ticks": 183870,
          "time": 76.6125,
          "velocity": 1
        },
        {
          "duration": 0.10000000000000853,
          "durationTicks": 240,
          "midi": 72,
          "name": "C5",
          "ticks": 184350,
          "time": 76.8125,
          "velocity": 1
        },
        {
          "duration": 0.10000000000000853,
          "durationTicks": 240,
          "midi": 65,
          "name": "F4",
          "ticks": 184350,
          "time": 76.8125,
          "velocity": 1
        },
        {
          "duration": 0.10000000000000853,
          "durationTicks": 240,
          "midi": 77,
          "name": "F5",
          "ticks": 184350,
          "time": 76.8125,
          "velocity": 1
        },
        {
          "duration": 0.10000000000000853,
          "durationTicks": 240,
          "midi": 65,
          "name": "F4",
          "ticks": 184830,
          "time": 77.0125,
          "velocity": 0.7401574803149606
        },
        {
          "duration": 0.10000000000000853,
          "durationTicks": 240,
          "midi": 72,
          "name": "C5",
          "ticks": 184830,
          "time": 77.0125,
          "velocity": 0.7401574803149606
        },
        {
          "duration": 0.10000000000000853,
          "durationTicks": 240,
          "midi": 77,
          "name": "F5",
          "ticks": 184830,
          "time": 77.0125,
          "velocity": 0.7401574803149606
        },
        {
          "duration": 0.09999999999999432,
          "durationTicks": 240,
          "midi": 72,
          "name": "C5",
          "ticks": 185070,
          "time": 77.11250000000001,
          "velocity": 1
        },
        {
          "duration": 0.09999999999999432,
          "durationTicks": 240,
          "midi": 65,
          "name": "F4",
          "ticks": 185070,
          "time": 77.11250000000001,
          "velocity": 1
        },
        {
          "duration": 0.09999999999999432,
          "durationTicks": 240,
          "midi": 77,
          "name": "F5",
          "ticks": 185070,
          "time": 77.11250000000001,
          "velocity": 1
        },
        {
          "duration": 0.10000000000000853,
          "durationTicks": 240,
          "midi": 65,
          "name": "F4",
          "ticks": 185550,
          "time": 77.3125,
          "velocity": 0.7401574803149606
        },
        {
          "duration": 0.10000000000000853,
          "durationTicks": 240,
          "midi": 72,
          "name": "C5",
          "ticks": 185550,
          "time": 77.3125,
          "velocity": 0.7401574803149606
        },
        {
          "duration": 0.10000000000000853,
          "durationTicks": 240,
          "midi": 77,
          "name": "F5",
          "ticks": 185550,
          "time": 77.3125,
          "velocity": 0.7401574803149606
        },
        {
          "duration": 0.09999999999999432,
          "durationTicks": 240,
          "midi": 72,
          "name": "C5",
          "ticks": 185790,
          "time": 77.41250000000001,
          "velocity": 1
        },
        {
          "duration": 0.09999999999999432,
          "durationTicks": 240,
          "midi": 65,
          "name": "F4",
          "ticks": 185790,
          "time": 77.41250000000001,
          "velocity": 1
        },
        {
          "duration": 0.09999999999999432,
          "durationTicks": 240,
          "midi": 77,
          "name": "F5",
          "ticks": 185790,
          "time": 77.41250000000001,
          "velocity": 1
        },
        {
          "duration": 0.09999999999999432,
          "durationTicks": 240,
          "midi": 65,
          "name": "F4",
          "ticks": 186270,
          "time": 77.61250000000001,
          "velocity": 0.7401574803149606
        },
        {
          "duration": 0.09999999999999432,
          "durationTicks": 240,
          "midi": 72,
          "name": "C5",
          "ticks": 186270,
          "time": 77.61250000000001,
          "velocity": 0.7401574803149606
        },
        {
          "duration": 0.09999999999999432,
          "durationTicks": 240,
          "midi": 77,
          "name": "F5",
          "ticks": 186270,
          "time": 77.61250000000001,
          "velocity": 0.7401574803149606
        },
        {
          "duration": 0.09999999999999432,
          "durationTicks": 240,
          "midi": 72,
          "name": "C5",
          "ticks": 186510,
          "time": 77.7125,
          "velocity": 1
        },
        {
          "duration": 0.09999999999999432,
          "durationTicks": 240,
          "midi": 65,
          "name": "F4",
          "ticks": 186510,
          "time": 77.7125,
          "velocity": 1
        },
        {
          "duration": 0.09999999999999432,
          "durationTicks": 240,
          "midi": 77,
          "name": "F5",
          "ticks": 186510,
          "time": 77.7125,
          "velocity": 1
        },
        {
          "duration": 0.09999999999999432,
          "durationTicks": 240,
          "midi": 65,
          "name": "F4",
          "ticks": 186990,
          "time": 77.91250000000001,
          "velocity": 0.7401574803149606
        },
        {
          "duration": 0.09999999999999432,
          "durationTicks": 240,
          "midi": 72,
          "name": "C5",
          "ticks": 186990,
          "time": 77.91250000000001,
          "velocity": 0.7401574803149606
        },
        {
          "duration": 0.09999999999999432,
          "durationTicks": 240,
          "midi": 77,
          "name": "F5",
          "ticks": 186990,
          "time": 77.91250000000001,
          "velocity": 0.7401574803149606
        },
        {
          "duration": 0.10000000000000853,
          "durationTicks": 240,
          "midi": 72,
          "name": "C5",
          "ticks": 187230,
          "time": 78.0125,
          "velocity": 1
        },
        {
          "duration": 0.10000000000000853,
          "durationTicks": 240,
          "midi": 65,
          "name": "F4",
          "ticks": 187230,
          "time": 78.0125,
          "velocity": 1
        },
        {
          "duration": 0.10000000000000853,
          "durationTicks": 240,
          "midi": 77,
          "name": "F5",
          "ticks": 187230,
          "time": 78.0125,
          "velocity": 1
        },
        {
          "duration": 0.09999999999999432,
          "durationTicks": 240,
          "midi": 73,
          "name": "C#5",
          "ticks": 187710,
          "time": 78.2125,
          "velocity": 1
        },
        {
          "duration": 0.09999999999999432,
          "durationTicks": 240,
          "midi": 66,
          "name": "F#4",
          "ticks": 187710,
          "time": 78.2125,
          "velocity": 1
        },
        {
          "duration": 0.09999999999999432,
          "durationTicks": 240,
          "midi": 78,
          "name": "F#5",
          "ticks": 187710,
          "time": 78.2125,
          "velocity": 1
        },
        {
          "duration": 0.09999999999999432,
          "durationTicks": 240,
          "midi": 77,
          "name": "F5",
          "ticks": 188190,
          "time": 78.41250000000001,
          "velocity": 1
        },
        {
          "duration": 0.09999999999999432,
          "durationTicks": 240,
          "midi": 65,
          "name": "F4",
          "ticks": 188190,
          "time": 78.41250000000001,
          "velocity": 1
        },
        {
          "duration": 0.09999999999999432,
          "durationTicks": 240,
          "midi": 72,
          "name": "C5",
          "ticks": 188190,
          "time": 78.41250000000001,
          "velocity": 1
        },
        {
          "duration": 0.09999999999999432,
          "durationTicks": 240,
          "midi": 65,
          "name": "F4",
          "ticks": 188670,
          "time": 78.61250000000001,
          "velocity": 0.7401574803149606
        },
        {
          "duration": 0.09999999999999432,
          "durationTicks": 240,
          "midi": 72,
          "name": "C5",
          "ticks": 188670,
          "time": 78.61250000000001,
          "velocity": 0.7401574803149606
        },
        {
          "duration": 0.09999999999999432,
          "durationTicks": 240,
          "midi": 77,
          "name": "F5",
          "ticks": 188670,
          "time": 78.61250000000001,
          "velocity": 0.7401574803149606
        },
        {
          "duration": 0.09999999999999432,
          "durationTicks": 240,
          "midi": 77,
          "name": "F5",
          "ticks": 188910,
          "time": 78.7125,
          "velocity": 1
        },
        {
          "duration": 0.09999999999999432,
          "durationTicks": 240,
          "midi": 65,
          "name": "F4",
          "ticks": 188910,
          "time": 78.7125,
          "velocity": 1
        },
        {
          "duration": 0.09999999999999432,
          "durationTicks": 240,
          "midi": 72,
          "name": "C5",
          "ticks": 188910,
          "time": 78.7125,
          "velocity": 1
        },
        {
          "duration": 0.09999999999999432,
          "durationTicks": 240,
          "midi": 65,
          "name": "F4",
          "ticks": 189390,
          "time": 78.91250000000001,
          "velocity": 0.7401574803149606
        },
        {
          "duration": 0.09999999999999432,
          "durationTicks": 240,
          "midi": 72,
          "name": "C5",
          "ticks": 189390,
          "time": 78.91250000000001,
          "velocity": 0.7401574803149606
        },
        {
          "duration": 0.09999999999999432,
          "durationTicks": 240,
          "midi": 77,
          "name": "F5",
          "ticks": 189390,
          "time": 78.91250000000001,
          "velocity": 0.7401574803149606
        },
        {
          "duration": 0.10000000000000853,
          "durationTicks": 240,
          "midi": 77,
          "name": "F5",
          "ticks": 189630,
          "time": 79.0125,
          "velocity": 1
        },
        {
          "duration": 0.10000000000000853,
          "durationTicks": 240,
          "midi": 65,
          "name": "F4",
          "ticks": 189630,
          "time": 79.0125,
          "velocity": 1
        },
        {
          "duration": 0.10000000000000853,
          "durationTicks": 240,
          "midi": 72,
          "name": "C5",
          "ticks": 189630,
          "time": 79.0125,
          "velocity": 1
        },
        {
          "duration": 0.09999999999999432,
          "durationTicks": 240,
          "midi": 65,
          "name": "F4",
          "ticks": 190110,
          "time": 79.2125,
          "velocity": 0.7401574803149606
        },
        {
          "duration": 0.09999999999999432,
          "durationTicks": 240,
          "midi": 72,
          "name": "C5",
          "ticks": 190110,
          "time": 79.2125,
          "velocity": 0.7401574803149606
        },
        {
          "duration": 0.09999999999999432,
          "durationTicks": 240,
          "midi": 77,
          "name": "F5",
          "ticks": 190110,
          "time": 79.2125,
          "velocity": 0.7401574803149606
        },
        {
          "duration": 0.10000000000000853,
          "durationTicks": 240,
          "midi": 77,
          "name": "F5",
          "ticks": 190350,
          "time": 79.3125,
          "velocity": 1
        },
        {
          "duration": 0.10000000000000853,
          "durationTicks": 240,
          "midi": 65,
          "name": "F4",
          "ticks": 190350,
          "time": 79.3125,
          "velocity": 1
        },
        {
          "duration": 0.10000000000000853,
          "durationTicks": 240,
          "midi": 72,
          "name": "C5",
          "ticks": 190350,
          "time": 79.3125,
          "velocity": 1
        },
        {
          "duration": 0.10000000000000853,
          "durationTicks": 240,
          "midi": 65,
          "name": "F4",
          "ticks": 190830,
          "time": 79.5125,
          "velocity": 0.7401574803149606
        },
        {
          "duration": 0.10000000000000853,
          "durationTicks": 240,
          "midi": 72,
          "name": "C5",
          "ticks": 190830,
          "time": 79.5125,
          "velocity": 0.7401574803149606
        },
        {
          "duration": 0.10000000000000853,
          "durationTicks": 240,
          "midi": 77,
          "name": "F5",
          "ticks": 190830,
          "time": 79.5125,
          "velocity": 0.7401574803149606
        },
        {
          "duration": 0.09999999999999432,
          "durationTicks": 240,
          "midi": 77,
          "name": "F5",
          "ticks": 191070,
          "time": 79.61250000000001,
          "velocity": 1
        },
        {
          "duration": 0.09999999999999432,
          "durationTicks": 240,
          "midi": 65,
          "name": "F4",
          "ticks": 191070,
          "time": 79.61250000000001,
          "velocity": 1
        },
        {
          "duration": 0.09999999999999432,
          "durationTicks": 240,
          "midi": 72,
          "name": "C5",
          "ticks": 191070,
          "time": 79.61250000000001,
          "velocity": 1
        },
        {
          "duration": 0.10000000000000853,
          "durationTicks": 240,
          "midi": 75,
          "name": "D#5",
          "ticks": 191550,
          "time": 79.8125,
          "velocity": 1
        },
        {
          "duration": 0.10000000000000853,
          "durationTicks": 240,
          "midi": 63,
          "name": "D#4",
          "ticks": 191550,
          "time": 79.8125,
          "velocity": 1
        },
        {
          "duration": 0.10000000000000853,
          "durationTicks": 240,
          "midi": 70,
          "name": "A#4",
          "ticks": 191550,
          "time": 79.8125,
          "velocity": 1
        },
        {
          "duration": 0.10000000000000853,
          "durationTicks": 240,
          "midi": 72,
          "name": "C5",
          "ticks": 192030,
          "time": 80.0125,
          "velocity": 1
        },
        {
          "duration": 0.10000000000000853,
          "durationTicks": 240,
          "midi": 65,
          "name": "F4",
          "ticks": 192030,
          "time": 80.0125,
          "velocity": 1
        },
        {
          "duration": 0.10000000000000853,
          "durationTicks": 240,
          "midi": 77,
          "name": "F5",
          "ticks": 192030,
          "time": 80.0125,
          "velocity": 1
        },
        {
          "duration": 0.09999999999999432,
          "durationTicks": 240,
          "midi": 65,
          "name": "F4",
          "ticks": 192510,
          "time": 80.2125,
          "velocity": 0.7401574803149606
        },
        {
          "duration": 0.09999999999999432,
          "durationTicks": 240,
          "midi": 72,
          "name": "C5",
          "ticks": 192510,
          "time": 80.2125,
          "velocity": 0.7401574803149606
        },
        {
          "duration": 0.09999999999999432,
          "durationTicks": 240,
          "midi": 77,
          "name": "F5",
          "ticks": 192510,
          "time": 80.2125,
          "velocity": 0.7401574803149606
        },
        {
          "duration": 0.10000000000000853,
          "durationTicks": 240,
          "midi": 72,
          "name": "C5",
          "ticks": 192750,
          "time": 80.3125,
          "velocity": 1
        },
        {
          "duration": 0.10000000000000853,
          "durationTicks": 240,
          "midi": 65,
          "name": "F4",
          "ticks": 192750,
          "time": 80.3125,
          "velocity": 1
        },
        {
          "duration": 0.10000000000000853,
          "durationTicks": 240,
          "midi": 77,
          "name": "F5",
          "ticks": 192750,
          "time": 80.3125,
          "velocity": 1
        },
        {
          "duration": 0.10000000000000853,
          "durationTicks": 240,
          "midi": 65,
          "name": "F4",
          "ticks": 193230,
          "time": 80.5125,
          "velocity": 0.7401574803149606
        },
        {
          "duration": 0.10000000000000853,
          "durationTicks": 240,
          "midi": 72,
          "name": "C5",
          "ticks": 193230,
          "time": 80.5125,
          "velocity": 0.7401574803149606
        },
        {
          "duration": 0.10000000000000853,
          "durationTicks": 240,
          "midi": 77,
          "name": "F5",
          "ticks": 193230,
          "time": 80.5125,
          "velocity": 0.7401574803149606
        },
        {
          "duration": 0.09999999999999432,
          "durationTicks": 240,
          "midi": 72,
          "name": "C5",
          "ticks": 193470,
          "time": 80.61250000000001,
          "velocity": 1
        },
        {
          "duration": 0.09999999999999432,
          "durationTicks": 240,
          "midi": 65,
          "name": "F4",
          "ticks": 193470,
          "time": 80.61250000000001,
          "velocity": 1
        },
        {
          "duration": 0.09999999999999432,
          "durationTicks": 240,
          "midi": 77,
          "name": "F5",
          "ticks": 193470,
          "time": 80.61250000000001,
          "velocity": 1
        },
        {
          "duration": 0.10000000000000853,
          "durationTicks": 240,
          "midi": 65,
          "name": "F4",
          "ticks": 193950,
          "time": 80.8125,
          "velocity": 0.7401574803149606
        },
        {
          "duration": 0.10000000000000853,
          "durationTicks": 240,
          "midi": 72,
          "name": "C5",
          "ticks": 193950,
          "time": 80.8125,
          "velocity": 0.7401574803149606
        },
        {
          "duration": 0.10000000000000853,
          "durationTicks": 240,
          "midi": 77,
          "name": "F5",
          "ticks": 193950,
          "time": 80.8125,
          "velocity": 0.7401574803149606
        },
        {
          "duration": 0.09999999999999432,
          "durationTicks": 240,
          "midi": 72,
          "name": "C5",
          "ticks": 194190,
          "time": 80.91250000000001,
          "velocity": 1
        },
        {
          "duration": 0.09999999999999432,
          "durationTicks": 240,
          "midi": 65,
          "name": "F4",
          "ticks": 194190,
          "time": 80.91250000000001,
          "velocity": 1
        },
        {
          "duration": 0.09999999999999432,
          "durationTicks": 240,
          "midi": 77,
          "name": "F5",
          "ticks": 194190,
          "time": 80.91250000000001,
          "velocity": 1
        },
        {
          "duration": 0.09999999999999432,
          "durationTicks": 240,
          "midi": 65,
          "name": "F4",
          "ticks": 194670,
          "time": 81.11250000000001,
          "velocity": 0.7401574803149606
        },
        {
          "duration": 0.09999999999999432,
          "durationTicks": 240,
          "midi": 72,
          "name": "C5",
          "ticks": 194670,
          "time": 81.11250000000001,
          "velocity": 0.7401574803149606
        },
        {
          "duration": 0.09999999999999432,
          "durationTicks": 240,
          "midi": 77,
          "name": "F5",
          "ticks": 194670,
          "time": 81.11250000000001,
          "velocity": 0.7401574803149606
        },
        {
          "duration": 0.09999999999999432,
          "durationTicks": 240,
          "midi": 72,
          "name": "C5",
          "ticks": 194910,
          "time": 81.2125,
          "velocity": 1
        },
        {
          "duration": 0.09999999999999432,
          "durationTicks": 240,
          "midi": 65,
          "name": "F4",
          "ticks": 194910,
          "time": 81.2125,
          "velocity": 1
        },
        {
          "duration": 0.09999999999999432,
          "durationTicks": 240,
          "midi": 77,
          "name": "F5",
          "ticks": 194910,
          "time": 81.2125,
          "velocity": 1
        },
        {
          "duration": 0.09999999999999432,
          "durationTicks": 240,
          "midi": 73,
          "name": "C#5",
          "ticks": 195390,
          "time": 81.41250000000001,
          "velocity": 1
        },
        {
          "duration": 0.09999999999999432,
          "durationTicks": 240,
          "midi": 66,
          "name": "F#4",
          "ticks": 195390,
          "time": 81.41250000000001,
          "velocity": 1
        },
        {
          "duration": 0.09999999999999432,
          "durationTicks": 240,
          "midi": 78,
          "name": "F#5",
          "ticks": 195390,
          "time": 81.41250000000001,
          "velocity": 1
        },
        {
          "duration": 0.09999999999999432,
          "durationTicks": 240,
          "midi": 77,
          "name": "F5",
          "ticks": 195870,
          "time": 81.61250000000001,
          "velocity": 1
        },
        {
          "duration": 0.09999999999999432,
          "durationTicks": 240,
          "midi": 65,
          "name": "F4",
          "ticks": 195870,
          "time": 81.61250000000001,
          "velocity": 1
        },
        {
          "duration": 0.09999999999999432,
          "durationTicks": 240,
          "midi": 72,
          "name": "C5",
          "ticks": 195870,
          "time": 81.61250000000001,
          "velocity": 1
        },
        {
          "duration": 0.10000000000000853,
          "durationTicks": 240,
          "midi": 65,
          "name": "F4",
          "ticks": 196350,
          "time": 81.8125,
          "velocity": 0.7401574803149606
        },
        {
          "duration": 0.10000000000000853,
          "durationTicks": 240,
          "midi": 72,
          "name": "C5",
          "ticks": 196350,
          "time": 81.8125,
          "velocity": 0.7401574803149606
        },
        {
          "duration": 0.10000000000000853,
          "durationTicks": 240,
          "midi": 77,
          "name": "F5",
          "ticks": 196350,
          "time": 81.8125,
          "velocity": 0.7401574803149606
        },
        {
          "duration": 0.09999999999999432,
          "durationTicks": 240,
          "midi": 77,
          "name": "F5",
          "ticks": 196590,
          "time": 81.91250000000001,
          "velocity": 1
        },
        {
          "duration": 0.09999999999999432,
          "durationTicks": 240,
          "midi": 65,
          "name": "F4",
          "ticks": 196590,
          "time": 81.91250000000001,
          "velocity": 1
        },
        {
          "duration": 0.09999999999999432,
          "durationTicks": 240,
          "midi": 72,
          "name": "C5",
          "ticks": 196590,
          "time": 81.91250000000001,
          "velocity": 1
        },
        {
          "duration": 0.09999999999999432,
          "durationTicks": 240,
          "midi": 65,
          "name": "F4",
          "ticks": 197070,
          "time": 82.11250000000001,
          "velocity": 0.7401574803149606
        },
        {
          "duration": 0.09999999999999432,
          "durationTicks": 240,
          "midi": 72,
          "name": "C5",
          "ticks": 197070,
          "time": 82.11250000000001,
          "velocity": 0.7401574803149606
        },
        {
          "duration": 0.09999999999999432,
          "durationTicks": 240,
          "midi": 77,
          "name": "F5",
          "ticks": 197070,
          "time": 82.11250000000001,
          "velocity": 0.7401574803149606
        },
        {
          "duration": 0.09999999999999432,
          "durationTicks": 240,
          "midi": 77,
          "name": "F5",
          "ticks": 197310,
          "time": 82.2125,
          "velocity": 1
        },
        {
          "duration": 0.09999999999999432,
          "durationTicks": 240,
          "midi": 65,
          "name": "F4",
          "ticks": 197310,
          "time": 82.2125,
          "velocity": 1
        },
        {
          "duration": 0.09999999999999432,
          "durationTicks": 240,
          "midi": 72,
          "name": "C5",
          "ticks": 197310,
          "time": 82.2125,
          "velocity": 1
        },
        {
          "duration": 0.09999999999999432,
          "durationTicks": 240,
          "midi": 65,
          "name": "F4",
          "ticks": 197790,
          "time": 82.41250000000001,
          "velocity": 0.7401574803149606
        },
        {
          "duration": 0.09999999999999432,
          "durationTicks": 240,
          "midi": 72,
          "name": "C5",
          "ticks": 197790,
          "time": 82.41250000000001,
          "velocity": 0.7401574803149606
        },
        {
          "duration": 0.09999999999999432,
          "durationTicks": 240,
          "midi": 77,
          "name": "F5",
          "ticks": 197790,
          "time": 82.41250000000001,
          "velocity": 0.7401574803149606
        },
        {
          "duration": 0.10000000000000853,
          "durationTicks": 240,
          "midi": 77,
          "name": "F5",
          "ticks": 198030,
          "time": 82.5125,
          "velocity": 1
        },
        {
          "duration": 0.10000000000000853,
          "durationTicks": 240,
          "midi": 65,
          "name": "F4",
          "ticks": 198030,
          "time": 82.5125,
          "velocity": 1
        },
        {
          "duration": 0.10000000000000853,
          "durationTicks": 240,
          "midi": 72,
          "name": "C5",
          "ticks": 198030,
          "time": 82.5125,
          "velocity": 1
        },
        {
          "duration": 0.09999999999999432,
          "durationTicks": 240,
          "midi": 65,
          "name": "F4",
          "ticks": 198510,
          "time": 82.7125,
          "velocity": 0.7401574803149606
        },
        {
          "duration": 0.09999999999999432,
          "durationTicks": 240,
          "midi": 72,
          "name": "C5",
          "ticks": 198510,
          "time": 82.7125,
          "velocity": 0.7401574803149606
        },
        {
          "duration": 0.09999999999999432,
          "durationTicks": 240,
          "midi": 77,
          "name": "F5",
          "ticks": 198510,
          "time": 82.7125,
          "velocity": 0.7401574803149606
        },
        {
          "duration": 0.10000000000000853,
          "durationTicks": 240,
          "midi": 77,
          "name": "F5",
          "ticks": 198750,
          "time": 82.8125,
          "velocity": 1
        },
        {
          "duration": 0.10000000000000853,
          "durationTicks": 240,
          "midi": 65,
          "name": "F4",
          "ticks": 198750,
          "time": 82.8125,
          "velocity": 1
        },
        {
          "duration": 0.10000000000000853,
          "durationTicks": 240,
          "midi": 72,
          "name": "C5",
          "ticks": 198750,
          "time": 82.8125,
          "velocity": 1
        },
        {
          "duration": 0.10000000000000853,
          "durationTicks": 240,
          "midi": 75,
          "name": "D#5",
          "ticks": 199230,
          "time": 83.0125,
          "velocity": 1
        },
        {
          "duration": 0.10000000000000853,
          "durationTicks": 240,
          "midi": 63,
          "name": "D#4",
          "ticks": 199230,
          "time": 83.0125,
          "velocity": 1
        },
        {
          "duration": 0.10000000000000853,
          "durationTicks": 240,
          "midi": 70,
          "name": "A#4",
          "ticks": 199230,
          "time": 83.0125,
          "velocity": 1
        }
      ]
    }
  ]
}
