{
  "header": {
    "keySignatures": [],
    "meta": [],
    "name": "",
    "ppq": 384,
    "tempos": [
      {
        "bpm": 220.00022000022,
        "ticks": 0
      }
    ],
    "timeSignatures": [
      {
        "ticks": 0,
        "timeSignature": [
          1,
          4
        ],
        "measures": 0
      }
    ]
  },
  "tracks": [
    {
      "channel": 0,
      "controlChanges": {},
      "pitchBends": [],
      "instrument": {
        "family": "piano",
        "number": 0,
        "name": "acoustic grand piano"
      },
      "name": "Grand Piano",
      "notes": [
        {
          "duration": 0.1534089375,
          "durationTicks": 216,
          "midi": 64,
          "name": "E4",
          "ticks": 0,
          "time": 0,
          "velocity": 0.30708661417322836
        },
        {
          "duration": 0.1534089375,
          "durationTicks": 216,
          "midi": 64,
          "name": "E4",
          "ticks": 0,
          "time": 0,
          "velocity": 0.30708661417322836
        },
        {
          "duration": 0.15340893749999998,
          "durationTicks": 216,
          "midi": 64,
          "name": "E4",
          "ticks": 24,
          "time": 0.0170454375,
          "velocity": 0.30708661417322836
        },
        {
          "duration": 0.15340893750000006,
          "durationTicks": 216,
          "midi": 64,
          "name": "E4",
          "ticks": 1968,
          "time": 1.397725875,
          "velocity": 0.30708661417322836
        },
        {
          "duration": 0.15340893750000006,
          "durationTicks": 216,
          "midi": 64,
          "name": "E4",
          "ticks": 1968,
          "time": 1.397725875,
          "velocity": 0.30708661417322836
        },
        {
          "duration": 0.15340893750000006,
          "durationTicks": 216,
          "midi": 64,
          "name": "E4",
          "ticks": 1992,
          "time": 1.4147713124999999,
          "velocity": 0.30708661417322836
        },
        {
          "duration": 0.15340893750000006,
          "durationTicks": 216,
          "midi": 64,
          "name": "E4",
          "ticks": 3648,
          "time": 2.5909065,
          "velocity": 0.30708661417322836
        },
        {
          "duration": 0.15340893750000006,
          "durationTicks": 216,
          "midi": 64,
          "name": "E4",
          "ticks": 3648,
          "time": 2.5909065,
          "velocity": 0.30708661417322836
        },
        {
          "duration": 0.15340893750000006,
          "durationTicks": 216,
          "midi": 64,
          "name": "E4",
          "ticks": 3672,
          "time": 2.6079519374999998,
          "velocity": 0.30708661417322836
        },
        {
          "duration": 0.15340893750000006,
          "durationTicks": 216,
          "midi": 64,
          "name": "E4",
          "ticks": 4464,
          "time": 3.170451375,
          "velocity": 0.30708661417322836
        },
        {
          "duration": 0.15340893750000006,
          "durationTicks": 216,
          "midi": 64,
          "name": "E4",
          "ticks": 4464,
          "time": 3.170451375,
          "velocity": 0.30708661417322836
        },
        {
          "duration": 0.15340893750000006,
          "durationTicks": 216,
          "midi": 64,
          "name": "E4",
          "ticks": 4488,
          "time": 3.1874968125,
          "velocity": 0.30708661417322836
        },
        {
          "duration": 0.15340893750000006,
          "durationTicks": 216,
          "midi": 64,
          "name": "E4",
          "ticks": 5184,
          "time": 3.6818144999999998,
          "velocity": 0.30708661417322836
        },
        {
          "duration": 0.15340893750000006,
          "durationTicks": 216,
          "midi": 64,
          "name": "E4",
          "ticks": 5184,
          "time": 3.6818144999999998,
          "velocity": 0.30708661417322836
        },
        {
          "duration": 0.15340893750000006,
          "durationTicks": 216,
          "midi": 64,
          "name": "E4",
          "ticks": 5208,
          "time": 3.6988599375,
          "velocity": 0.30708661417322836
        },
        {
          "duration": 0.15340893749999962,
          "durationTicks": 216,
          "midi": 64,
          "name": "E4",
          "ticks": 5472,
          "time": 3.88635975,
          "velocity": 0.30708661417322836
        },
        {
          "duration": 0.15340893749999962,
          "durationTicks": 216,
          "midi": 64,
          "name": "E4",
          "ticks": 5472,
          "time": 3.88635975,
          "velocity": 0.30708661417322836
        },
        {
          "duration": 0.15340893750000006,
          "durationTicks": 216,
          "midi": 64,
          "name": "E4",
          "ticks": 5496,
          "time": 3.9034051874999998,
          "velocity": 0.30708661417322836
        },
        {
          "duration": 0.15340893750000006,
          "durationTicks": 216,
          "midi": 64,
          "name": "E4",
          "ticks": 5760,
          "time": 4.090905,
          "velocity": 0.30708661417322836
        },
        {
          "duration": 0.15340893750000006,
          "durationTicks": 216,
          "midi": 64,
          "name": "E4",
          "ticks": 5760,
          "time": 4.090905,
          "velocity": 0.30708661417322836
        },
        {
          "duration": 0.15340893750000006,
          "durationTicks": 216,
          "midi": 64,
          "name": "E4",
          "ticks": 5784,
          "time": 4.1079504374999996,
          "velocity": 0.30708661417322836
        },
        {
          "duration": 0.15340893750000006,
          "durationTicks": 216,
          "midi": 64,
          "name": "E4",
          "ticks": 6048,
          "time": 4.29545025,
          "velocity": 0.30708661417322836
        },
        {
          "duration": 0.15340893750000006,
          "durationTicks": 216,
          "midi": 64,
          "name": "E4",
          "ticks": 6048,
          "time": 4.29545025,
          "velocity": 0.30708661417322836
        },
        {
          "duration": 0.15340893750000006,
          "durationTicks": 216,
          "midi": 64,
          "name": "E4",
          "ticks": 6072,
          "time": 4.3124956875,
          "velocity": 0.30708661417322836
        },
        {
          "duration": 0.15340893750000006,
          "durationTicks": 216,
          "midi": 64,
          "name": "E4",
          "ticks": 6240,
          "time": 4.43181375,
          "velocity": 0.30708661417322836
        },
        {
          "duration": 0.15340893750000006,
          "durationTicks": 216,
          "midi": 64,
          "name": "E4",
          "ticks": 6240,
          "time": 4.43181375,
          "velocity": 0.30708661417322836
        },
        {
          "duration": 0.15340893750000006,
          "durationTicks": 216,
          "midi": 64,
          "name": "E4",
          "ticks": 6264,
          "time": 4.4488591875,
          "velocity": 0.30708661417322836
        },
        {
          "duration": 0.15340893750000006,
          "durationTicks": 216,
          "midi": 64,
          "name": "E4",
          "ticks": 6432,
          "time": 4.56817725,
          "velocity": 0.30708661417322836
        },
        {
          "duration": 0.15340893750000006,
          "durationTicks": 216,
          "midi": 64,
          "name": "E4",
          "ticks": 6432,
          "time": 4.56817725,
          "velocity": 0.30708661417322836
        },
        {
          "duration": 0.15340893750000006,
          "durationTicks": 216,
          "midi": 64,
          "name": "E4",
          "ticks": 6456,
          "time": 4.5852226875,
          "velocity": 0.30708661417322836
        },
        {
          "duration": 0.15340893750000006,
          "durationTicks": 216,
          "midi": 64,
          "name": "E4",
          "ticks": 6624,
          "time": 4.70454075,
          "velocity": 0.30708661417322836
        },
        {
          "duration": 0.15340893750000006,
          "durationTicks": 216,
          "midi": 64,
          "name": "E4",
          "ticks": 6624,
          "time": 4.70454075,
          "velocity": 0.30708661417322836
        },
        {
          "duration": 0.15340893750000006,
          "durationTicks": 216,
          "midi": 64,
          "name": "E4",
          "ticks": 6648,
          "time": 4.7215861875,
          "velocity": 0.30708661417322836
        },
        {
          "duration": 0.15340893749999918,
          "durationTicks": 216,
          "midi": 64,
          "name": "E4",
          "ticks": 6816,
          "time": 4.84090425,
          "velocity": 0.30708661417322836
        },
        {
          "duration": 0.15340893749999918,
          "durationTicks": 216,
          "midi": 64,
          "name": "E4",
          "ticks": 6816,
          "time": 4.84090425,
          "velocity": 0.30708661417322836
        },
        {
          "duration": 0.15340893750000006,
          "durationTicks": 216,
          "midi": 64,
          "name": "E4",
          "ticks": 6840,
          "time": 4.8579496875,
          "velocity": 0.30708661417322836
        },
        {
          "duration": 0.15340893750000006,
          "durationTicks": 216,
          "midi": 64,
          "name": "E4",
          "ticks": 6960,
          "time": 4.943176875,
          "velocity": 0.30708661417322836
        },
        {
          "duration": 0.15340893750000006,
          "durationTicks": 216,
          "midi": 64,
          "name": "E4",
          "ticks": 6960,
          "time": 4.943176875,
          "velocity": 0.30708661417322836
        },
        {
          "duration": 0.15340893750000006,
          "durationTicks": 216,
          "midi": 64,
          "name": "E4",
          "ticks": 6984,
          "time": 4.9602223125,
          "velocity": 0.30708661417322836
        },
        {
          "duration": 0.15340893750000006,
          "durationTicks": 216,
          "midi": 64,
          "name": "E4",
          "ticks": 7104,
          "time": 5.0454495,
          "velocity": 0.30708661417322836
        },
        {
          "duration": 0.15340893750000006,
          "durationTicks": 216,
          "midi": 64,
          "name": "E4",
          "ticks": 7104,
          "time": 5.0454495,
          "velocity": 0.30708661417322836
        },
        {
          "duration": 0.15340893749999918,
          "durationTicks": 216,
          "midi": 64,
          "name": "E4",
          "ticks": 7128,
          "time": 5.0624949375,
          "velocity": 0.30708661417322836
        },
        {
          "duration": 0.15340893750000006,
          "durationTicks": 216,
          "midi": 64,
          "name": "E4",
          "ticks": 7248,
          "time": 5.147722125,
          "velocity": 0.30708661417322836
        },
        {
          "duration": 0.15340893750000006,
          "durationTicks": 216,
          "midi": 64,
          "name": "E4",
          "ticks": 7248,
          "time": 5.147722125,
          "velocity": 0.30708661417322836
        },
        {
          "duration": 0.15340893750000006,
          "durationTicks": 216,
          "midi": 64,
          "name": "E4",
          "ticks": 7272,
          "time": 5.1647675625,
          "velocity": 0.30708661417322836
        },
        {
          "duration": 0.15340893750000006,
          "durationTicks": 216,
          "midi": 64,
          "name": "E4",
          "ticks": 7392,
          "time": 5.24999475,
          "velocity": 0.30708661417322836
        },
        {
          "duration": 0.15340893750000006,
          "durationTicks": 216,
          "midi": 64,
          "name": "E4",
          "ticks": 7392,
          "time": 5.24999475,
          "velocity": 0.30708661417322836
        },
        {
          "duration": 0.15340893750000006,
          "durationTicks": 216,
          "midi": 64,
          "name": "E4",
          "ticks": 7416,
          "time": 5.2670401875,
          "velocity": 0.30708661417322836
        },
        {
          "duration": 0.15340893750000006,
          "durationTicks": 216,
          "midi": 64,
          "name": "E4",
          "ticks": 7536,
          "time": 5.352267375,
          "velocity": 0.30708661417322836
        },
        {
          "duration": 0.15340893750000006,
          "durationTicks": 216,
          "midi": 64,
          "name": "E4",
          "ticks": 7536,
          "time": 5.352267375,
          "velocity": 0.30708661417322836
        },
        {
          "duration": 0.15340893750000006,
          "durationTicks": 216,
          "midi": 64,
          "name": "E4",
          "ticks": 7560,
          "time": 5.3693128125,
          "velocity": 0.30708661417322836
        },
        {
          "duration": 0.08522718750000013,
          "durationTicks": 120,
          "midi": 64,
          "name": "E4",
          "ticks": 7776,
          "time": 5.52272175,
          "velocity": 0.30708661417322836
        },
        {
          "duration": 0.08522718750000013,
          "durationTicks": 120,
          "midi": 64,
          "name": "E4",
          "ticks": 7776,
          "time": 5.52272175,
          "velocity": 0.30708661417322836
        },
        {
          "duration": 0.08522718750000013,
          "durationTicks": 120,
          "midi": 64,
          "name": "E4",
          "ticks": 7800,
          "time": 5.5397671875,
          "velocity": 0.30708661417322836
        },
        {
          "duration": 0.08522718750000013,
          "durationTicks": 120,
          "midi": 64,
          "name": "E4",
          "ticks": 7872,
          "time": 5.5909035,
          "velocity": 0.30708661417322836
        },
        {
          "duration": 0.08522718750000013,
          "durationTicks": 120,
          "midi": 64,
          "name": "E4",
          "ticks": 7872,
          "time": 5.5909035,
          "velocity": 0.30708661417322836
        },
        {
          "duration": 0.08522718750000013,
          "durationTicks": 120,
          "midi": 64,
          "name": "E4",
          "ticks": 7896,
          "time": 5.6079489375,
          "velocity": 0.30708661417322836
        },
        {
          "duration": 0.08522718750000013,
          "durationTicks": 120,
          "midi": 64,
          "name": "E4",
          "ticks": 7968,
          "time": 5.6590852499999995,
          "velocity": 0.30708661417322836
        },
        {
          "duration": 0.08522718750000013,
          "durationTicks": 120,
          "midi": 64,
          "name": "E4",
          "ticks": 7968,
          "time": 5.6590852499999995,
          "velocity": 0.30708661417322836
        },
        {
          "duration": 0.08522718750000013,
          "durationTicks": 120,
          "midi": 64,
          "name": "E4",
          "ticks": 7992,
          "time": 5.6761306875,
          "velocity": 0.30708661417322836
        },
        {
          "duration": 0.08522718749999925,
          "durationTicks": 120,
          "midi": 64,
          "name": "E4",
          "ticks": 8064,
          "time": 5.727267,
          "velocity": 0.30708661417322836
        },
        {
          "duration": 0.08522718749999925,
          "durationTicks": 120,
          "midi": 64,
          "name": "E4",
          "ticks": 8064,
          "time": 5.727267,
          "velocity": 0.30708661417322836
        },
        {
          "duration": 0.08522718750000013,
          "durationTicks": 120,
          "midi": 64,
          "name": "E4",
          "ticks": 8088,
          "time": 5.7443124375,
          "velocity": 0.30708661417322836
        },
        {
          "duration": 0.08522718749999925,
          "durationTicks": 120,
          "midi": 64,
          "name": "E4",
          "ticks": 8160,
          "time": 5.79544875,
          "velocity": 0.30708661417322836
        },
        {
          "duration": 0.08522718749999925,
          "durationTicks": 120,
          "midi": 64,
          "name": "E4",
          "ticks": 8160,
          "time": 5.79544875,
          "velocity": 0.30708661417322836
        },
        {
          "duration": 0.08522718750000013,
          "durationTicks": 120,
          "midi": 64,
          "name": "E4",
          "ticks": 8184,
          "time": 5.8124941875,
          "velocity": 0.30708661417322836
        },
        {
          "duration": 0.08522718750000013,
          "durationTicks": 120,
          "midi": 64,
          "name": "E4",
          "ticks": 8208,
          "time": 5.829539625,
          "velocity": 0.30708661417322836
        },
        {
          "duration": 0.08522718750000013,
          "durationTicks": 120,
          "midi": 64,
          "name": "E4",
          "ticks": 8208,
          "time": 5.829539625,
          "velocity": 0.30708661417322836
        },
        {
          "duration": 0.08522718750000013,
          "durationTicks": 120,
          "midi": 64,
          "name": "E4",
          "ticks": 8232,
          "time": 5.8465850625,
          "velocity": 0.30708661417322836
        },
        {
          "duration": 0.08522718750000013,
          "durationTicks": 120,
          "midi": 64,
          "name": "E4",
          "ticks": 8256,
          "time": 5.8636305,
          "velocity": 0.30708661417322836
        },
        {
          "duration": 0.08522718750000013,
          "durationTicks": 120,
          "midi": 64,
          "name": "E4",
          "ticks": 8256,
          "time": 5.8636305,
          "velocity": 0.30708661417322836
        },
        {
          "duration": 0.08522718750000013,
          "durationTicks": 120,
          "midi": 64,
          "name": "E4",
          "ticks": 8280,
          "time": 5.8806759374999995,
          "velocity": 0.30708661417322836
        },
        {
          "duration": 0.08522718750000013,
          "durationTicks": 120,
          "midi": 64,
          "name": "E4",
          "ticks": 8304,
          "time": 5.897721375,
          "velocity": 0.30708661417322836
        },
        {
          "duration": 0.08522718750000013,
          "durationTicks": 120,
          "midi": 64,
          "name": "E4",
          "ticks": 8304,
          "time": 5.897721375,
          "velocity": 0.30708661417322836
        },
        {
          "duration": 0.08522718750000013,
          "durationTicks": 120,
          "midi": 64,
          "name": "E4",
          "ticks": 8328,
          "time": 5.9147668125,
          "velocity": 0.30708661417322836
        },
        {
          "duration": 0.08522718750000013,
          "durationTicks": 120,
          "midi": 64,
          "name": "E4",
          "ticks": 8352,
          "time": 5.93181225,
          "velocity": 0.30708661417322836
        },
        {
          "duration": 0.08522718750000013,
          "durationTicks": 120,
          "midi": 64,
          "name": "E4",
          "ticks": 8352,
          "time": 5.93181225,
          "velocity": 0.30708661417322836
        },
        {
          "duration": 0.08522718749999925,
          "durationTicks": 120,
          "midi": 64,
          "name": "E4",
          "ticks": 8376,
          "time": 5.9488576875,
          "velocity": 0.30708661417322836
        },
        {
          "duration": 0.08522718750000013,
          "durationTicks": 120,
          "midi": 64,
          "name": "E4",
          "ticks": 8400,
          "time": 5.965903125,
          "velocity": 0.30708661417322836
        },
        {
          "duration": 0.08522718750000013,
          "durationTicks": 120,
          "midi": 64,
          "name": "E4",
          "ticks": 8400,
          "time": 5.965903125,
          "velocity": 0.30708661417322836
        },
        {
          "duration": 0.08522718750000013,
          "durationTicks": 120,
          "midi": 64,
          "name": "E4",
          "ticks": 8424,
          "time": 5.9829485625,
          "velocity": 0.30708661417322836
        },
        {
          "duration": 0.08522718750000013,
          "durationTicks": 120,
          "midi": 64,
          "name": "E4",
          "ticks": 8448,
          "time": 5.999994,
          "velocity": 0.30708661417322836
        },
        {
          "duration": 0.08522718750000013,
          "durationTicks": 120,
          "midi": 64,
          "name": "E4",
          "ticks": 8448,
          "time": 5.999994,
          "velocity": 0.30708661417322836
        },
        {
          "duration": 0.08522718749999925,
          "durationTicks": 120,
          "midi": 64,
          "name": "E4",
          "ticks": 8472,
          "time": 6.0170394375,
          "velocity": 0.30708661417322836
        },
        {
          "duration": 0.08522718750000013,
          "durationTicks": 120,
          "midi": 64,
          "name": "E4",
          "ticks": 8496,
          "time": 6.034084875,
          "velocity": 0.30708661417322836
        },
        {
          "duration": 0.08522718750000013,
          "durationTicks": 120,
          "midi": 64,
          "name": "E4",
          "ticks": 8496,
          "time": 6.034084875,
          "velocity": 0.30708661417322836
        },
        {
          "duration": 0.08522718750000013,
          "durationTicks": 120,
          "midi": 64,
          "name": "E4",
          "ticks": 8496,
          "time": 6.034084875,
          "velocity": 0.30708661417322836
        },
        {
          "duration": 0.08522718750000013,
          "durationTicks": 120,
          "midi": 64,
          "name": "E4",
          "ticks": 8496,
          "time": 6.034084875,
          "velocity": 0.30708661417322836
        },
        {
          "duration": 0.08522718750000013,
          "durationTicks": 120,
          "midi": 64,
          "name": "E4",
          "ticks": 8520,
          "time": 6.0511303125,
          "velocity": 0.30708661417322836
        },
        {
          "duration": 0.08522718750000013,
          "durationTicks": 120,
          "midi": 64,
          "name": "E4",
          "ticks": 8520,
          "time": 6.0511303125,
          "velocity": 0.30708661417322836
        },
        {
          "duration": 0.08522718750000013,
          "durationTicks": 120,
          "midi": 64,
          "name": "E4",
          "ticks": 8544,
          "time": 6.06817575,
          "velocity": 0.30708661417322836
        },
        {
          "duration": 0.08522718750000013,
          "durationTicks": 120,
          "midi": 64,
          "name": "E4",
          "ticks": 8544,
          "time": 6.06817575,
          "velocity": 0.30708661417322836
        },
        {
          "duration": 0.08522718750000013,
          "durationTicks": 120,
          "midi": 64,
          "name": "E4",
          "ticks": 8544,
          "time": 6.06817575,
          "velocity": 0.30708661417322836
        },
        {
          "duration": 0.08522718750000013,
          "durationTicks": 120,
          "midi": 76,
          "name": "E5",
          "ticks": 8544,
          "time": 6.06817575,
          "velocity": 0.30708661417322836
        },
        {
          "duration": 0.08522718750000013,
          "durationTicks": 120,
          "midi": 52,
          "name": "E3",
          "ticks": 8544,
          "time": 6.06817575,
          "velocity": 0.30708661417322836
        },
        {
          "duration": 0.08522718750000013,
          "durationTicks": 120,
          "midi": 64,
          "name": "E4",
          "ticks": 8544,
          "time": 6.06817575,
          "velocity": 0.30708661417322836
        },
        {
          "duration": 0.08522718750000013,
          "durationTicks": 120,
          "midi": 52,
          "name": "E3",
          "ticks": 8544,
          "time": 6.06817575,
          "velocity": 0.30708661417322836
        },
        {
          "duration": 0.08522718750000013,
          "durationTicks": 120,
          "midi": 76,
          "name": "E5",
          "ticks": 8544,
          "time": 6.06817575,
          "velocity": 0.30708661417322836
        },
        {
          "duration": 0.08522718750000013,
          "durationTicks": 120,
          "midi": 64,
          "name": "E4",
          "ticks": 8568,
          "time": 6.0852211875,
          "velocity": 0.30708661417322836
        },
        {
          "duration": 0.08522718750000013,
          "durationTicks": 120,
          "midi": 76,
          "name": "E5",
          "ticks": 8568,
          "time": 6.0852211875,
          "velocity": 0.30708661417322836
        },
        {
          "duration": 0.08522718750000013,
          "durationTicks": 120,
          "midi": 64,
          "name": "E4",
          "ticks": 8568,
          "time": 6.0852211875,
          "velocity": 0.30708661417322836
        },
        {
          "duration": 0.08522718750000013,
          "durationTicks": 120,
          "midi": 52,
          "name": "E3",
          "ticks": 8568,
          "time": 6.0852211875,
          "velocity": 0.30708661417322836
        },
        {
          "duration": 0.08522718750000013,
          "durationTicks": 120,
          "midi": 64,
          "name": "E4",
          "ticks": 8592,
          "time": 6.1022666249999995,
          "velocity": 0.30708661417322836
        },
        {
          "duration": 0.08522718750000013,
          "durationTicks": 120,
          "midi": 76,
          "name": "E5",
          "ticks": 8592,
          "time": 6.1022666249999995,
          "velocity": 0.30708661417322836
        },
        {
          "duration": 0.08522718750000013,
          "durationTicks": 120,
          "midi": 52,
          "name": "E3",
          "ticks": 8592,
          "time": 6.1022666249999995,
          "velocity": 0.30708661417322836
        },
        {
          "duration": 0.08522718750000013,
          "durationTicks": 120,
          "midi": 64,
          "name": "E4",
          "ticks": 8592,
          "time": 6.1022666249999995,
          "velocity": 0.30708661417322836
        },
        {
          "duration": 0.08522718750000013,
          "durationTicks": 120,
          "midi": 76,
          "name": "E5",
          "ticks": 8592,
          "time": 6.1022666249999995,
          "velocity": 0.30708661417322836
        },
        {
          "duration": 0.08522718750000013,
          "durationTicks": 120,
          "midi": 52,
          "name": "E3",
          "ticks": 8592,
          "time": 6.1022666249999995,
          "velocity": 0.30708661417322836
        },
        {
          "duration": 0.08522718750000013,
          "durationTicks": 120,
          "midi": 52,
          "name": "E3",
          "ticks": 8616,
          "time": 6.1193120625,
          "velocity": 0.30708661417322836
        },
        {
          "duration": 0.08522718750000013,
          "durationTicks": 120,
          "midi": 76,
          "name": "E5",
          "ticks": 8616,
          "time": 6.1193120625,
          "velocity": 0.30708661417322836
        },
        {
          "duration": 0.08522718750000013,
          "durationTicks": 120,
          "midi": 64,
          "name": "E4",
          "ticks": 8616,
          "time": 6.1193120625,
          "velocity": 0.30708661417322836
        },
        {
          "duration": 0.08522718750000013,
          "durationTicks": 120,
          "midi": 64,
          "name": "E4",
          "ticks": 8640,
          "time": 6.1363575,
          "velocity": 0.30708661417322836
        },
        {
          "duration": 0.08522718750000013,
          "durationTicks": 120,
          "midi": 52,
          "name": "E3",
          "ticks": 8640,
          "time": 6.1363575,
          "velocity": 0.30708661417322836
        },
        {
          "duration": 0.08522718750000013,
          "durationTicks": 120,
          "midi": 52,
          "name": "E3",
          "ticks": 8640,
          "time": 6.1363575,
          "velocity": 0.30708661417322836
        },
        {
          "duration": 0.08522718750000013,
          "durationTicks": 120,
          "midi": 76,
          "name": "E5",
          "ticks": 8640,
          "time": 6.1363575,
          "velocity": 0.30708661417322836
        },
        {
          "duration": 0.08522718750000013,
          "durationTicks": 120,
          "midi": 64,
          "name": "E4",
          "ticks": 8640,
          "time": 6.1363575,
          "velocity": 0.30708661417322836
        },
        {
          "duration": 0.08522718750000013,
          "durationTicks": 120,
          "midi": 76,
          "name": "E5",
          "ticks": 8640,
          "time": 6.1363575,
          "velocity": 0.30708661417322836
        },
        {
          "duration": 0.08522718750000013,
          "durationTicks": 120,
          "midi": 76,
          "name": "E5",
          "ticks": 8664,
          "time": 6.1534029375,
          "velocity": 0.30708661417322836
        },
        {
          "duration": 0.08522718750000013,
          "durationTicks": 120,
          "midi": 64,
          "name": "E4",
          "ticks": 8664,
          "time": 6.1534029375,
          "velocity": 0.30708661417322836
        },
        {
          "duration": 0.08522718750000013,
          "durationTicks": 120,
          "midi": 52,
          "name": "E3",
          "ticks": 8664,
          "time": 6.1534029375,
          "velocity": 0.30708661417322836
        },
        {
          "duration": 0.08522718749999925,
          "durationTicks": 120,
          "midi": 52,
          "name": "E3",
          "ticks": 8688,
          "time": 6.170448375,
          "velocity": 0.30708661417322836
        },
        {
          "duration": 0.08522718749999925,
          "durationTicks": 120,
          "midi": 76,
          "name": "E5",
          "ticks": 8688,
          "time": 6.170448375,
          "velocity": 0.30708661417322836
        },
        {
          "duration": 0.08522718749999925,
          "durationTicks": 120,
          "midi": 52,
          "name": "E3",
          "ticks": 8688,
          "time": 6.170448375,
          "velocity": 0.30708661417322836
        },
        {
          "duration": 0.08522718749999925,
          "durationTicks": 120,
          "midi": 64,
          "name": "E4",
          "ticks": 8688,
          "time": 6.170448375,
          "velocity": 0.30708661417322836
        },
        {
          "duration": 0.08522718749999925,
          "durationTicks": 120,
          "midi": 64,
          "name": "E4",
          "ticks": 8688,
          "time": 6.170448375,
          "velocity": 0.30708661417322836
        },
        {
          "duration": 0.08522718749999925,
          "durationTicks": 120,
          "midi": 76,
          "name": "E5",
          "ticks": 8688,
          "time": 6.170448375,
          "velocity": 0.30708661417322836
        },
        {
          "duration": 0.08522718750000013,
          "durationTicks": 120,
          "midi": 52,
          "name": "E3",
          "ticks": 8712,
          "time": 6.1874938125,
          "velocity": 0.30708661417322836
        },
        {
          "duration": 0.08522718750000013,
          "durationTicks": 120,
          "midi": 64,
          "name": "E4",
          "ticks": 8712,
          "time": 6.1874938125,
          "velocity": 0.30708661417322836
        },
        {
          "duration": 0.08522718750000013,
          "durationTicks": 120,
          "midi": 76,
          "name": "E5",
          "ticks": 8712,
          "time": 6.1874938125,
          "velocity": 0.30708661417322836
        },
        {
          "duration": 0.08522718750000013,
          "durationTicks": 120,
          "midi": 76,
          "name": "E5",
          "ticks": 8736,
          "time": 6.20453925,
          "velocity": 0.30708661417322836
        },
        {
          "duration": 0.08522718750000013,
          "durationTicks": 120,
          "midi": 64,
          "name": "E4",
          "ticks": 8736,
          "time": 6.20453925,
          "velocity": 0.30708661417322836
        },
        {
          "duration": 0.08522718750000013,
          "durationTicks": 120,
          "midi": 52,
          "name": "E3",
          "ticks": 8736,
          "time": 6.20453925,
          "velocity": 0.30708661417322836
        },
        {
          "duration": 0.08522718750000013,
          "durationTicks": 120,
          "midi": 52,
          "name": "E3",
          "ticks": 8736,
          "time": 6.20453925,
          "velocity": 0.30708661417322836
        },
        {
          "duration": 0.08522718750000013,
          "durationTicks": 120,
          "midi": 64,
          "name": "E4",
          "ticks": 8736,
          "time": 6.20453925,
          "velocity": 0.30708661417322836
        },
        {
          "duration": 0.08522718750000013,
          "durationTicks": 120,
          "midi": 76,
          "name": "E5",
          "ticks": 8736,
          "time": 6.20453925,
          "velocity": 0.30708661417322836
        },
        {
          "duration": 0.08522718750000013,
          "durationTicks": 120,
          "midi": 76,
          "name": "E5",
          "ticks": 8760,
          "time": 6.2215846875,
          "velocity": 0.30708661417322836
        },
        {
          "duration": 0.08522718750000013,
          "durationTicks": 120,
          "midi": 64,
          "name": "E4",
          "ticks": 8760,
          "time": 6.2215846875,
          "velocity": 0.30708661417322836
        },
        {
          "duration": 0.08522718750000013,
          "durationTicks": 120,
          "midi": 52,
          "name": "E3",
          "ticks": 8760,
          "time": 6.2215846875,
          "velocity": 0.30708661417322836
        },
        {
          "duration": 0.08522718749999925,
          "durationTicks": 120,
          "midi": 76,
          "name": "E5",
          "ticks": 8784,
          "time": 6.238630125,
          "velocity": 0.30708661417322836
        },
        {
          "duration": 0.08522718749999925,
          "durationTicks": 120,
          "midi": 64,
          "name": "E4",
          "ticks": 8784,
          "time": 6.238630125,
          "velocity": 0.30708661417322836
        },
        {
          "duration": 0.08522718749999925,
          "durationTicks": 120,
          "midi": 52,
          "name": "E3",
          "ticks": 8784,
          "time": 6.238630125,
          "velocity": 0.30708661417322836
        },
        {
          "duration": 0.08522718749999925,
          "durationTicks": 120,
          "midi": 76,
          "name": "E5",
          "ticks": 8784,
          "time": 6.238630125,
          "velocity": 0.30708661417322836
        },
        {
          "duration": 0.08522718749999925,
          "durationTicks": 120,
          "midi": 64,
          "name": "E4",
          "ticks": 8784,
          "time": 6.238630125,
          "velocity": 0.30708661417322836
        },
        {
          "duration": 0.08522718749999925,
          "durationTicks": 120,
          "midi": 52,
          "name": "E3",
          "ticks": 8784,
          "time": 6.238630125,
          "velocity": 0.30708661417322836
        },
        {
          "duration": 0.08522718750000013,
          "durationTicks": 120,
          "midi": 76,
          "name": "E5",
          "ticks": 8808,
          "time": 6.2556755625,
          "velocity": 0.30708661417322836
        },
        {
          "duration": 0.08522718750000013,
          "durationTicks": 120,
          "midi": 64,
          "name": "E4",
          "ticks": 8808,
          "time": 6.2556755625,
          "velocity": 0.30708661417322836
        },
        {
          "duration": 0.08522718750000013,
          "durationTicks": 120,
          "midi": 52,
          "name": "E3",
          "ticks": 8808,
          "time": 6.2556755625,
          "velocity": 0.30708661417322836
        },
        {
          "duration": 0.08522718750000013,
          "durationTicks": 120,
          "midi": 76,
          "name": "E5",
          "ticks": 8832,
          "time": 6.272721,
          "velocity": 0.30708661417322836
        },
        {
          "duration": 0.08522718750000013,
          "durationTicks": 120,
          "midi": 52,
          "name": "E3",
          "ticks": 8832,
          "time": 6.272721,
          "velocity": 0.30708661417322836
        },
        {
          "duration": 0.08522718750000013,
          "durationTicks": 120,
          "midi": 64,
          "name": "E4",
          "ticks": 8832,
          "time": 6.272721,
          "velocity": 0.30708661417322836
        },
        {
          "duration": 0.08522718750000013,
          "durationTicks": 120,
          "midi": 76,
          "name": "E5",
          "ticks": 8832,
          "time": 6.272721,
          "velocity": 0.30708661417322836
        },
        {
          "duration": 0.08522718750000013,
          "durationTicks": 120,
          "midi": 52,
          "name": "E3",
          "ticks": 8832,
          "time": 6.272721,
          "velocity": 0.30708661417322836
        },
        {
          "duration": 0.08522718750000013,
          "durationTicks": 120,
          "midi": 64,
          "name": "E4",
          "ticks": 8832,
          "time": 6.272721,
          "velocity": 0.30708661417322836
        },
        {
          "duration": 0.08522718750000013,
          "durationTicks": 120,
          "midi": 76,
          "name": "E5",
          "ticks": 8856,
          "time": 6.2897664375,
          "velocity": 0.30708661417322836
        },
        {
          "duration": 0.08522718750000013,
          "durationTicks": 120,
          "midi": 52,
          "name": "E3",
          "ticks": 8856,
          "time": 6.2897664375,
          "velocity": 0.30708661417322836
        },
        {
          "duration": 0.08522718750000013,
          "durationTicks": 120,
          "midi": 64,
          "name": "E4",
          "ticks": 8856,
          "time": 6.2897664375,
          "velocity": 0.30708661417322836
        },
        {
          "duration": 0.08522718750000013,
          "durationTicks": 120,
          "midi": 76,
          "name": "E5",
          "ticks": 8880,
          "time": 6.306811875,
          "velocity": 0.30708661417322836
        },
        {
          "duration": 0.08522718750000013,
          "durationTicks": 120,
          "midi": 52,
          "name": "E3",
          "ticks": 8880,
          "time": 6.306811875,
          "velocity": 0.30708661417322836
        },
        {
          "duration": 0.08522718750000013,
          "durationTicks": 120,
          "midi": 52,
          "name": "E3",
          "ticks": 8880,
          "time": 6.306811875,
          "velocity": 0.30708661417322836
        },
        {
          "duration": 0.08522718750000013,
          "durationTicks": 120,
          "midi": 64,
          "name": "E4",
          "ticks": 8880,
          "time": 6.306811875,
          "velocity": 0.30708661417322836
        },
        {
          "duration": 0.08522718750000013,
          "durationTicks": 120,
          "midi": 64,
          "name": "E4",
          "ticks": 8880,
          "time": 6.306811875,
          "velocity": 0.30708661417322836
        },
        {
          "duration": 0.08522718750000013,
          "durationTicks": 120,
          "midi": 76,
          "name": "E5",
          "ticks": 8880,
          "time": 6.306811875,
          "velocity": 0.30708661417322836
        },
        {
          "duration": 0.08522718750000013,
          "durationTicks": 120,
          "midi": 76,
          "name": "E5",
          "ticks": 8904,
          "time": 6.3238573124999995,
          "velocity": 0.30708661417322836
        },
        {
          "duration": 0.08522718750000013,
          "durationTicks": 120,
          "midi": 52,
          "name": "E3",
          "ticks": 8904,
          "time": 6.3238573124999995,
          "velocity": 0.30708661417322836
        },
        {
          "duration": 0.08522718750000013,
          "durationTicks": 120,
          "midi": 64,
          "name": "E4",
          "ticks": 8904,
          "time": 6.3238573124999995,
          "velocity": 0.30708661417322836
        },
        {
          "duration": 0.08522718750000013,
          "durationTicks": 120,
          "midi": 64,
          "name": "E4",
          "ticks": 8928,
          "time": 6.34090275,
          "velocity": 0.30708661417322836
        },
        {
          "duration": 0.08522718750000013,
          "durationTicks": 120,
          "midi": 76,
          "name": "E5",
          "ticks": 8928,
          "time": 6.34090275,
          "velocity": 0.30708661417322836
        },
        {
          "duration": 0.08522718750000013,
          "durationTicks": 120,
          "midi": 52,
          "name": "E3",
          "ticks": 8928,
          "time": 6.34090275,
          "velocity": 0.30708661417322836
        },
        {
          "duration": 0.08522718750000013,
          "durationTicks": 120,
          "midi": 76,
          "name": "E5",
          "ticks": 8928,
          "time": 6.34090275,
          "velocity": 0.30708661417322836
        },
        {
          "duration": 0.08522718750000013,
          "durationTicks": 120,
          "midi": 52,
          "name": "E3",
          "ticks": 8928,
          "time": 6.34090275,
          "velocity": 0.30708661417322836
        },
        {
          "duration": 0.08522718750000013,
          "durationTicks": 120,
          "midi": 64,
          "name": "E4",
          "ticks": 8928,
          "time": 6.34090275,
          "velocity": 0.30708661417322836
        },
        {
          "duration": 0.08522718750000013,
          "durationTicks": 120,
          "midi": 64,
          "name": "E4",
          "ticks": 8952,
          "time": 6.3579481875,
          "velocity": 0.30708661417322836
        },
        {
          "duration": 0.08522718750000013,
          "durationTicks": 120,
          "midi": 76,
          "name": "E5",
          "ticks": 8952,
          "time": 6.3579481875,
          "velocity": 0.30708661417322836
        },
        {
          "duration": 0.08522718750000013,
          "durationTicks": 120,
          "midi": 52,
          "name": "E3",
          "ticks": 8952,
          "time": 6.3579481875,
          "velocity": 0.30708661417322836
        },
        {
          "duration": 0.08522718750000013,
          "durationTicks": 120,
          "midi": 52,
          "name": "E3",
          "ticks": 8976,
          "time": 6.374993625,
          "velocity": 0.30708661417322836
        },
        {
          "duration": 0.08522718750000013,
          "durationTicks": 120,
          "midi": 64,
          "name": "E4",
          "ticks": 8976,
          "time": 6.374993625,
          "velocity": 0.30708661417322836
        },
        {
          "duration": 0.08522718750000013,
          "durationTicks": 120,
          "midi": 64,
          "name": "E4",
          "ticks": 8976,
          "time": 6.374993625,
          "velocity": 0.30708661417322836
        },
        {
          "duration": 0.08522718750000013,
          "durationTicks": 120,
          "midi": 52,
          "name": "E3",
          "ticks": 8976,
          "time": 6.374993625,
          "velocity": 0.30708661417322836
        },
        {
          "duration": 0.08522718750000013,
          "durationTicks": 120,
          "midi": 76,
          "name": "E5",
          "ticks": 8976,
          "time": 6.374993625,
          "velocity": 0.30708661417322836
        },
        {
          "duration": 0.08522718750000013,
          "durationTicks": 120,
          "midi": 76,
          "name": "E5",
          "ticks": 8976,
          "time": 6.374993625,
          "velocity": 0.30708661417322836
        },
        {
          "duration": 0.08522718749999925,
          "durationTicks": 120,
          "midi": 76,
          "name": "E5",
          "ticks": 9000,
          "time": 6.3920390625,
          "velocity": 0.30708661417322836
        },
        {
          "duration": 0.08522718749999925,
          "durationTicks": 120,
          "midi": 64,
          "name": "E4",
          "ticks": 9000,
          "time": 6.3920390625,
          "velocity": 0.30708661417322836
        },
        {
          "duration": 0.08522718749999925,
          "durationTicks": 120,
          "midi": 52,
          "name": "E3",
          "ticks": 9000,
          "time": 6.3920390625,
          "velocity": 0.30708661417322836
        },
        {
          "duration": 0.08522718750000013,
          "durationTicks": 120,
          "midi": 76,
          "name": "E5",
          "ticks": 9024,
          "time": 6.4090845,
          "velocity": 0.30708661417322836
        },
        {
          "duration": 0.08522718750000013,
          "durationTicks": 120,
          "midi": 76,
          "name": "E5",
          "ticks": 9024,
          "time": 6.4090845,
          "velocity": 0.30708661417322836
        },
        {
          "duration": 0.08522718750000013,
          "durationTicks": 120,
          "midi": 64,
          "name": "E4",
          "ticks": 9024,
          "time": 6.4090845,
          "velocity": 0.30708661417322836
        },
        {
          "duration": 0.08522718750000013,
          "durationTicks": 120,
          "midi": 76,
          "name": "E5",
          "ticks": 9024,
          "time": 6.4090845,
          "velocity": 0.30708661417322836
        },
        {
          "duration": 0.08522718750000013,
          "durationTicks": 120,
          "midi": 88,
          "name": "E6",
          "ticks": 9024,
          "time": 6.4090845,
          "velocity": 0.30708661417322836
        },
        {
          "duration": 0.08522718750000013,
          "durationTicks": 120,
          "midi": 76,
          "name": "E5",
          "ticks": 9024,
          "time": 6.4090845,
          "velocity": 0.30708661417322836
        },
        {
          "duration": 0.08522718750000013,
          "durationTicks": 120,
          "midi": 52,
          "name": "E3",
          "ticks": 9024,
          "time": 6.4090845,
          "velocity": 0.30708661417322836
        },
        {
          "duration": 0.08522718750000013,
          "durationTicks": 120,
          "midi": 52,
          "name": "E3",
          "ticks": 9024,
          "time": 6.4090845,
          "velocity": 0.30708661417322836
        },
        {
          "duration": 0.08522718750000013,
          "durationTicks": 120,
          "midi": 64,
          "name": "E4",
          "ticks": 9024,
          "time": 6.4090845,
          "velocity": 0.30708661417322836
        },
        {
          "duration": 0.08522718750000013,
          "durationTicks": 120,
          "midi": 88,
          "name": "E6",
          "ticks": 9024,
          "time": 6.4090845,
          "velocity": 0.30708661417322836
        },
        {
          "duration": 0.08522718750000013,
          "durationTicks": 120,
          "midi": 76,
          "name": "E5",
          "ticks": 9048,
          "time": 6.4261299375,
          "velocity": 0.30708661417322836
        },
        {
          "duration": 0.08522718750000013,
          "durationTicks": 120,
          "midi": 52,
          "name": "E3",
          "ticks": 9048,
          "time": 6.4261299375,
          "velocity": 0.30708661417322836
        },
        {
          "duration": 0.08522718750000013,
          "durationTicks": 120,
          "midi": 76,
          "name": "E5",
          "ticks": 9048,
          "time": 6.4261299375,
          "velocity": 0.30708661417322836
        },
        {
          "duration": 0.08522718750000013,
          "durationTicks": 120,
          "midi": 88,
          "name": "E6",
          "ticks": 9048,
          "time": 6.4261299375,
          "velocity": 0.30708661417322836
        },
        {
          "duration": 0.08522718750000013,
          "durationTicks": 120,
          "midi": 64,
          "name": "E4",
          "ticks": 9048,
          "time": 6.4261299375,
          "velocity": 0.30708661417322836
        },
        {
          "duration": 0.08522718750000013,
          "durationTicks": 120,
          "midi": 76,
          "name": "E5",
          "ticks": 9072,
          "time": 6.443175375,
          "velocity": 0.30708661417322836
        },
        {
          "duration": 0.08522718750000013,
          "durationTicks": 120,
          "midi": 88,
          "name": "E6",
          "ticks": 9072,
          "time": 6.443175375,
          "velocity": 0.30708661417322836
        },
        {
          "duration": 0.08522718750000013,
          "durationTicks": 120,
          "midi": 52,
          "name": "E3",
          "ticks": 9072,
          "time": 6.443175375,
          "velocity": 0.30708661417322836
        },
        {
          "duration": 0.08522718750000013,
          "durationTicks": 120,
          "midi": 76,
          "name": "E5",
          "ticks": 9072,
          "time": 6.443175375,
          "velocity": 0.30708661417322836
        },
        {
          "duration": 0.08522718750000013,
          "durationTicks": 120,
          "midi": 52,
          "name": "E3",
          "ticks": 9072,
          "time": 6.443175375,
          "velocity": 0.30708661417322836
        },
        {
          "duration": 0.08522718750000013,
          "durationTicks": 120,
          "midi": 76,
          "name": "E5",
          "ticks": 9072,
          "time": 6.443175375,
          "velocity": 0.30708661417322836
        },
        {
          "duration": 0.08522718750000013,
          "durationTicks": 120,
          "midi": 64,
          "name": "E4",
          "ticks": 9072,
          "time": 6.443175375,
          "velocity": 0.30708661417322836
        },
        {
          "duration": 0.08522718750000013,
          "durationTicks": 120,
          "midi": 64,
          "name": "E4",
          "ticks": 9072,
          "time": 6.443175375,
          "velocity": 0.30708661417322836
        },
        {
          "duration": 0.08522718750000013,
          "durationTicks": 120,
          "midi": 88,
          "name": "E6",
          "ticks": 9072,
          "time": 6.443175375,
          "velocity": 0.30708661417322836
        },
        {
          "duration": 0.08522718750000013,
          "durationTicks": 120,
          "midi": 76,
          "name": "E5",
          "ticks": 9072,
          "time": 6.443175375,
          "velocity": 0.30708661417322836
        },
        {
          "duration": 0.08522718750000013,
          "durationTicks": 120,
          "midi": 52,
          "name": "E3",
          "ticks": 9096,
          "time": 6.4602208125,
          "velocity": 0.30708661417322836
        },
        {
          "duration": 0.08522718750000013,
          "durationTicks": 120,
          "midi": 88,
          "name": "E6",
          "ticks": 9096,
          "time": 6.4602208125,
          "velocity": 0.30708661417322836
        },
        {
          "duration": 0.08522718750000013,
          "durationTicks": 120,
          "midi": 76,
          "name": "E5",
          "ticks": 9096,
          "time": 6.4602208125,
          "velocity": 0.30708661417322836
        },
        {
          "duration": 0.08522718750000013,
          "durationTicks": 120,
          "midi": 76,
          "name": "E5",
          "ticks": 9096,
          "time": 6.4602208125,
          "velocity": 0.30708661417322836
        },
        {
          "duration": 0.08522718750000013,
          "durationTicks": 120,
          "midi": 64,
          "name": "E4",
          "ticks": 9096,
          "time": 6.4602208125,
          "velocity": 0.30708661417322836
        },
        {
          "duration": 0.08522718750000013,
          "durationTicks": 120,
          "midi": 76,
          "name": "E5",
          "ticks": 9120,
          "time": 6.47726625,
          "velocity": 0.30708661417322836
        },
        {
          "duration": 0.08522718750000013,
          "durationTicks": 120,
          "midi": 64,
          "name": "E4",
          "ticks": 9120,
          "time": 6.47726625,
          "velocity": 0.30708661417322836
        },
        {
          "duration": 0.08522718750000013,
          "durationTicks": 120,
          "midi": 76,
          "name": "E5",
          "ticks": 9120,
          "time": 6.47726625,
          "velocity": 0.30708661417322836
        },
        {
          "duration": 0.08522718750000013,
          "durationTicks": 120,
          "midi": 52,
          "name": "E3",
          "ticks": 9120,
          "time": 6.47726625,
          "velocity": 0.30708661417322836
        },
        {
          "duration": 0.08522718750000013,
          "durationTicks": 120,
          "midi": 64,
          "name": "E4",
          "ticks": 9120,
          "time": 6.47726625,
          "velocity": 0.30708661417322836
        },
        {
          "duration": 0.08522718750000013,
          "durationTicks": 120,
          "midi": 76,
          "name": "E5",
          "ticks": 9120,
          "time": 6.47726625,
          "velocity": 0.30708661417322836
        },
        {
          "duration": 0.08522718750000013,
          "durationTicks": 120,
          "midi": 52,
          "name": "E3",
          "ticks": 9120,
          "time": 6.47726625,
          "velocity": 0.30708661417322836
        },
        {
          "duration": 0.08522718750000013,
          "durationTicks": 120,
          "midi": 76,
          "name": "E5",
          "ticks": 9120,
          "time": 6.47726625,
          "velocity": 0.30708661417322836
        },
        {
          "duration": 0.08522718750000013,
          "durationTicks": 120,
          "midi": 88,
          "name": "E6",
          "ticks": 9120,
          "time": 6.47726625,
          "velocity": 0.30708661417322836
        },
        {
          "duration": 0.08522718750000013,
          "durationTicks": 120,
          "midi": 88,
          "name": "E6",
          "ticks": 9120,
          "time": 6.47726625,
          "velocity": 0.30708661417322836
        },
        {
          "duration": 0.08522718750000013,
          "durationTicks": 120,
          "midi": 88,
          "name": "E6",
          "ticks": 9144,
          "time": 6.4943116875,
          "velocity": 0.30708661417322836
        },
        {
          "duration": 0.08522718750000013,
          "durationTicks": 120,
          "midi": 76,
          "name": "E5",
          "ticks": 9144,
          "time": 6.4943116875,
          "velocity": 0.30708661417322836
        },
        {
          "duration": 0.08522718750000013,
          "durationTicks": 120,
          "midi": 76,
          "name": "E5",
          "ticks": 9144,
          "time": 6.4943116875,
          "velocity": 0.30708661417322836
        },
        {
          "duration": 0.08522718750000013,
          "durationTicks": 120,
          "midi": 52,
          "name": "E3",
          "ticks": 9144,
          "time": 6.4943116875,
          "velocity": 0.30708661417322836
        },
        {
          "duration": 0.08522718750000013,
          "durationTicks": 120,
          "midi": 64,
          "name": "E4",
          "ticks": 9144,
          "time": 6.4943116875,
          "velocity": 0.30708661417322836
        },
        {
          "duration": 0.06818174999999993,
          "durationTicks": 96,
          "midi": 64,
          "name": "E4",
          "ticks": 9168,
          "time": 6.511357125,
          "velocity": 0.30708661417322836
        },
        {
          "duration": 0.06818174999999993,
          "durationTicks": 96,
          "midi": 76,
          "name": "E5",
          "ticks": 9168,
          "time": 6.511357125,
          "velocity": 0.30708661417322836
        },
        {
          "duration": 0.06818174999999993,
          "durationTicks": 96,
          "midi": 52,
          "name": "E3",
          "ticks": 9168,
          "time": 6.511357125,
          "velocity": 0.30708661417322836
        },
        {
          "duration": 0.06818174999999993,
          "durationTicks": 96,
          "midi": 64,
          "name": "E4",
          "ticks": 9168,
          "time": 6.511357125,
          "velocity": 0.30708661417322836
        },
        {
          "duration": 0.06818174999999993,
          "durationTicks": 96,
          "midi": 52,
          "name": "E3",
          "ticks": 9168,
          "time": 6.511357125,
          "velocity": 0.30708661417322836
        },
        {
          "duration": 0.06818174999999993,
          "durationTicks": 96,
          "midi": 88,
          "name": "E6",
          "ticks": 9168,
          "time": 6.511357125,
          "velocity": 0.30708661417322836
        },
        {
          "duration": 0.06818174999999993,
          "durationTicks": 96,
          "midi": 76,
          "name": "E5",
          "ticks": 9168,
          "time": 6.511357125,
          "velocity": 0.30708661417322836
        },
        {
          "duration": 0.08522718750000013,
          "durationTicks": 120,
          "midi": 76,
          "name": "E5",
          "ticks": 9168,
          "time": 6.511357125,
          "velocity": 0.30708661417322836
        },
        {
          "duration": 0.08522718750000013,
          "durationTicks": 120,
          "midi": 76,
          "name": "E5",
          "ticks": 9168,
          "time": 6.511357125,
          "velocity": 0.30708661417322836
        },
        {
          "duration": 0.06818174999999993,
          "durationTicks": 96,
          "midi": 88,
          "name": "E6",
          "ticks": 9168,
          "time": 6.511357125,
          "velocity": 0.30708661417322836
        },
        {
          "duration": 0.06818174999999993,
          "durationTicks": 96,
          "midi": 52,
          "name": "E3",
          "ticks": 9192,
          "time": 6.5284025625,
          "velocity": 0.30708661417322836
        },
        {
          "duration": 0.06818174999999993,
          "durationTicks": 96,
          "midi": 76,
          "name": "E5",
          "ticks": 9192,
          "time": 6.5284025625,
          "velocity": 0.30708661417322836
        },
        {
          "duration": 0.06818174999999993,
          "durationTicks": 96,
          "midi": 64,
          "name": "E4",
          "ticks": 9192,
          "time": 6.5284025625,
          "velocity": 0.30708661417322836
        },
        {
          "duration": 0.06818174999999993,
          "durationTicks": 96,
          "midi": 76,
          "name": "E5",
          "ticks": 9192,
          "time": 6.5284025625,
          "velocity": 0.30708661417322836
        },
        {
          "duration": 0.06818174999999993,
          "durationTicks": 96,
          "midi": 88,
          "name": "E6",
          "ticks": 9192,
          "time": 6.5284025625,
          "velocity": 0.30708661417322836
        },
        {
          "duration": 0.03409087500000041,
          "durationTicks": 48,
          "midi": 52,
          "name": "E3",
          "ticks": 9240,
          "time": 6.5624934375,
          "velocity": 0.30708661417322836
        },
        {
          "duration": 0.03409087500000041,
          "durationTicks": 48,
          "midi": 88,
          "name": "E6",
          "ticks": 9240,
          "time": 6.5624934375,
          "velocity": 0.30708661417322836
        },
        {
          "duration": 0.03409087500000041,
          "durationTicks": 48,
          "midi": 76,
          "name": "E5",
          "ticks": 9240,
          "time": 6.5624934375,
          "velocity": 0.30708661417322836
        },
        {
          "duration": 0.03409087500000041,
          "durationTicks": 48,
          "midi": 64,
          "name": "E4",
          "ticks": 9240,
          "time": 6.5624934375,
          "velocity": 0.30708661417322836
        },
        {
          "duration": 0.03409087500000041,
          "durationTicks": 48,
          "midi": 88,
          "name": "E6",
          "ticks": 9240,
          "time": 6.5624934375,
          "velocity": 0.30708661417322836
        },
        {
          "duration": 0.03409087500000041,
          "durationTicks": 48,
          "midi": 52,
          "name": "E3",
          "ticks": 9240,
          "time": 6.5624934375,
          "velocity": 0.30708661417322836
        },
        {
          "duration": 0.051136312500000614,
          "durationTicks": 72,
          "midi": 76,
          "name": "E5",
          "ticks": 9240,
          "time": 6.5624934375,
          "velocity": 0.30708661417322836
        },
        {
          "duration": 0.03409087500000041,
          "durationTicks": 48,
          "midi": 64,
          "name": "E4",
          "ticks": 9240,
          "time": 6.5624934375,
          "velocity": 0.30708661417322836
        },
        {
          "duration": 0.03409087500000041,
          "durationTicks": 48,
          "midi": 64,
          "name": "E4",
          "ticks": 9264,
          "time": 6.579538875,
          "velocity": 0.30708661417322836
        },
        {
          "duration": 0.03409087500000041,
          "durationTicks": 48,
          "midi": 88,
          "name": "E6",
          "ticks": 9264,
          "time": 6.579538875,
          "velocity": 0.30708661417322836
        },
        {
          "duration": 0.03409087500000041,
          "durationTicks": 48,
          "midi": 52,
          "name": "E3",
          "ticks": 9264,
          "time": 6.579538875,
          "velocity": 0.30708661417322836
        },
        {
          "duration": 0.03409087500000041,
          "durationTicks": 48,
          "midi": 76,
          "name": "E5",
          "ticks": 9264,
          "time": 6.579538875,
          "velocity": 0.30708661417322836
        },
        {
          "duration": 0.017045437500000205,
          "durationTicks": 24,
          "midi": 64,
          "name": "E4",
          "ticks": 9288,
          "time": 6.5965843125,
          "velocity": 0.30708661417322836
        },
        {
          "duration": 0.017045437500000205,
          "durationTicks": 24,
          "midi": 76,
          "name": "E5",
          "ticks": 9288,
          "time": 6.5965843125,
          "velocity": 0.30708661417322836
        },
        {
          "duration": 0.017045437500000205,
          "durationTicks": 24,
          "midi": 64,
          "name": "E4",
          "ticks": 9288,
          "time": 6.5965843125,
          "velocity": 0.30708661417322836
        },
        {
          "duration": 0.017045437500000205,
          "durationTicks": 24,
          "midi": 52,
          "name": "E3",
          "ticks": 9288,
          "time": 6.5965843125,
          "velocity": 0.30708661417322836
        },
        {
          "duration": 0.017045437500000205,
          "durationTicks": 24,
          "midi": 52,
          "name": "E3",
          "ticks": 9288,
          "time": 6.5965843125,
          "velocity": 0.30708661417322836
        },
        {
          "duration": 0.017045437500000205,
          "durationTicks": 24,
          "midi": 76,
          "name": "E5",
          "ticks": 9288,
          "time": 6.5965843125,
          "velocity": 0.30708661417322836
        },
        {
          "duration": 0.017045437500000205,
          "durationTicks": 24,
          "midi": 64,
          "name": "E4",
          "ticks": 9288,
          "time": 6.5965843125,
          "velocity": 0.30708661417322836
        },
        {
          "duration": 0.017045437500000205,
          "durationTicks": 24,
          "midi": 88,
          "name": "E6",
          "ticks": 9288,
          "time": 6.5965843125,
          "velocity": 0.30708661417322836
        },
        {
          "duration": 0.017045437500000205,
          "durationTicks": 24,
          "midi": 64,
          "name": "E4",
          "ticks": 9288,
          "time": 6.5965843125,
          "velocity": 0.30708661417322836
        },
        {
          "duration": 0.017045437500000205,
          "durationTicks": 24,
          "midi": 52,
          "name": "E3",
          "ticks": 9288,
          "time": 6.5965843125,
          "velocity": 0.30708661417322836
        },
        {
          "duration": 0.017045437500000205,
          "durationTicks": 24,
          "midi": 76,
          "name": "E5",
          "ticks": 9288,
          "time": 6.5965843125,
          "velocity": 0.30708661417322836
        },
        {
          "duration": 0.017045437500000205,
          "durationTicks": 24,
          "midi": 88,
          "name": "E6",
          "ticks": 9288,
          "time": 6.5965843125,
          "velocity": 0.30708661417322836
        },
        {
          "duration": 0.017045437500000205,
          "durationTicks": 24,
          "midi": 88,
          "name": "E6",
          "ticks": 9288,
          "time": 6.5965843125,
          "velocity": 0.30708661417322836
        },
        {
          "duration": 0.017045437500000205,
          "durationTicks": 24,
          "midi": 76,
          "name": "E5",
          "ticks": 9288,
          "time": 6.5965843125,
          "velocity": 0.30708661417322836
        },
        {
          "duration": 0.017045437500000205,
          "durationTicks": 24,
          "midi": 88,
          "name": "E6",
          "ticks": 9288,
          "time": 6.5965843125,
          "velocity": 0.30708661417322836
        },
        {
          "duration": 0.017045437500000205,
          "durationTicks": 24,
          "midi": 52,
          "name": "E3",
          "ticks": 9288,
          "time": 6.5965843125,
          "velocity": 0.30708661417322836
        },
        {
          "duration": 0.017045437499999316,
          "durationTicks": 24,
          "midi": 64,
          "name": "E4",
          "ticks": 9312,
          "time": 6.61362975,
          "velocity": 0.30708661417322836
        },
        {
          "duration": 0.017045437499999316,
          "durationTicks": 24,
          "midi": 64,
          "name": "E4",
          "ticks": 9312,
          "time": 6.61362975,
          "velocity": 0.30708661417322836
        },
        {
          "duration": 0.017045437499999316,
          "durationTicks": 24,
          "midi": 76,
          "name": "E5",
          "ticks": 9312,
          "time": 6.61362975,
          "velocity": 0.30708661417322836
        },
        {
          "duration": 0.017045437499999316,
          "durationTicks": 24,
          "midi": 52,
          "name": "E3",
          "ticks": 9312,
          "time": 6.61362975,
          "velocity": 0.30708661417322836
        },
        {
          "duration": 0.017045437499999316,
          "durationTicks": 24,
          "midi": 88,
          "name": "E6",
          "ticks": 9312,
          "time": 6.61362975,
          "velocity": 0.30708661417322836
        },
        {
          "duration": 0.017045437499999316,
          "durationTicks": 24,
          "midi": 52,
          "name": "E3",
          "ticks": 9312,
          "time": 6.61362975,
          "velocity": 0.30708661417322836
        },
        {
          "duration": 0.017045437499999316,
          "durationTicks": 24,
          "midi": 76,
          "name": "E5",
          "ticks": 9312,
          "time": 6.61362975,
          "velocity": 0.30708661417322836
        },
        {
          "duration": 0.017045437499999316,
          "durationTicks": 24,
          "midi": 88,
          "name": "E6",
          "ticks": 9312,
          "time": 6.61362975,
          "velocity": 0.30708661417322836
        },
        {
          "duration": 0.017045437500000205,
          "durationTicks": 24,
          "midi": 64,
          "name": "E4",
          "ticks": 9336,
          "time": 6.6306751875,
          "velocity": 0.30708661417322836
        },
        {
          "duration": 0.017045437500000205,
          "durationTicks": 24,
          "midi": 64,
          "name": "E4",
          "ticks": 9336,
          "time": 6.6306751875,
          "velocity": 0.30708661417322836
        },
        {
          "duration": 0.017045437500000205,
          "durationTicks": 24,
          "midi": 88,
          "name": "E6",
          "ticks": 9336,
          "time": 6.6306751875,
          "velocity": 0.30708661417322836
        },
        {
          "duration": 0.017045437500000205,
          "durationTicks": 24,
          "midi": 52,
          "name": "E3",
          "ticks": 9336,
          "time": 6.6306751875,
          "velocity": 0.30708661417322836
        },
        {
          "duration": 0.017045437500000205,
          "durationTicks": 24,
          "midi": 52,
          "name": "E3",
          "ticks": 9336,
          "time": 6.6306751875,
          "velocity": 0.30708661417322836
        },
        {
          "duration": 0.017045437500000205,
          "durationTicks": 24,
          "midi": 76,
          "name": "E5",
          "ticks": 9336,
          "time": 6.6306751875,
          "velocity": 0.30708661417322836
        },
        {
          "duration": 0.017045437500000205,
          "durationTicks": 24,
          "midi": 76,
          "name": "E5",
          "ticks": 9336,
          "time": 6.6306751875,
          "velocity": 0.30708661417322836
        },
        {
          "duration": 0.017045437500000205,
          "durationTicks": 24,
          "midi": 88,
          "name": "E6",
          "ticks": 9336,
          "time": 6.6306751875,
          "velocity": 0.30708661417322836
        },
        {
          "duration": 0.017045437500000205,
          "durationTicks": 24,
          "midi": 52,
          "name": "E3",
          "ticks": 9360,
          "time": 6.647720625,
          "velocity": 0.30708661417322836
        },
        {
          "duration": 0.017045437500000205,
          "durationTicks": 24,
          "midi": 76,
          "name": "E5",
          "ticks": 9360,
          "time": 6.647720625,
          "velocity": 0.30708661417322836
        },
        {
          "duration": 0.017045437500000205,
          "durationTicks": 24,
          "midi": 88,
          "name": "E6",
          "ticks": 9360,
          "time": 6.647720625,
          "velocity": 0.30708661417322836
        },
        {
          "duration": 0.017045437500000205,
          "durationTicks": 24,
          "midi": 64,
          "name": "E4",
          "ticks": 9360,
          "time": 6.647720625,
          "velocity": 0.30708661417322836
        },
        {
          "duration": 0.017045437500000205,
          "durationTicks": 24,
          "midi": 52,
          "name": "E3",
          "ticks": 9360,
          "time": 6.647720625,
          "velocity": 0.30708661417322836
        },
        {
          "duration": 0.017045437500000205,
          "durationTicks": 24,
          "midi": 76,
          "name": "E5",
          "ticks": 9360,
          "time": 6.647720625,
          "velocity": 0.30708661417322836
        },
        {
          "duration": 0.017045437500000205,
          "durationTicks": 24,
          "midi": 88,
          "name": "E6",
          "ticks": 9360,
          "time": 6.647720625,
          "velocity": 0.30708661417322836
        },
        {
          "duration": 0.017045437500000205,
          "durationTicks": 24,
          "midi": 64,
          "name": "E4",
          "ticks": 9360,
          "time": 6.647720625,
          "velocity": 0.30708661417322836
        },
        {
          "duration": 0.017045437500000205,
          "durationTicks": 24,
          "midi": 88,
          "name": "E6",
          "ticks": 9360,
          "time": 6.647720625,
          "velocity": 0.30708661417322836
        },
        {
          "duration": 0.017045437500000205,
          "durationTicks": 24,
          "midi": 76,
          "name": "E5",
          "ticks": 9360,
          "time": 6.647720625,
          "velocity": 0.30708661417322836
        },
        {
          "duration": 0.017045437500000205,
          "durationTicks": 24,
          "midi": 64,
          "name": "E4",
          "ticks": 9360,
          "time": 6.647720625,
          "velocity": 0.30708661417322836
        },
        {
          "duration": 0.017045437500000205,
          "durationTicks": 24,
          "midi": 52,
          "name": "E3",
          "ticks": 9360,
          "time": 6.647720625,
          "velocity": 0.30708661417322836
        },
        {
          "duration": 0.017045437500000205,
          "durationTicks": 24,
          "midi": 76,
          "name": "E5",
          "ticks": 9384,
          "time": 6.6647660625,
          "velocity": 0.30708661417322836
        },
        {
          "duration": 0.017045437500000205,
          "durationTicks": 24,
          "midi": 76,
          "name": "E5",
          "ticks": 9384,
          "time": 6.6647660625,
          "velocity": 0.30708661417322836
        },
        {
          "duration": 0.017045437500000205,
          "durationTicks": 24,
          "midi": 52,
          "name": "E3",
          "ticks": 9384,
          "time": 6.6647660625,
          "velocity": 0.30708661417322836
        },
        {
          "duration": 0.017045437500000205,
          "durationTicks": 24,
          "midi": 64,
          "name": "E4",
          "ticks": 9384,
          "time": 6.6647660625,
          "velocity": 0.30708661417322836
        },
        {
          "duration": 0.017045437500000205,
          "durationTicks": 24,
          "midi": 88,
          "name": "E6",
          "ticks": 9384,
          "time": 6.6647660625,
          "velocity": 0.30708661417322836
        },
        {
          "duration": 0.017045437500000205,
          "durationTicks": 24,
          "midi": 88,
          "name": "E6",
          "ticks": 9384,
          "time": 6.6647660625,
          "velocity": 0.30708661417322836
        },
        {
          "duration": 0.017045437500000205,
          "durationTicks": 24,
          "midi": 52,
          "name": "E3",
          "ticks": 9384,
          "time": 6.6647660625,
          "velocity": 0.30708661417322836
        },
        {
          "duration": 0.017045437500000205,
          "durationTicks": 24,
          "midi": 76,
          "name": "E5",
          "ticks": 9384,
          "time": 6.6647660625,
          "velocity": 0.30708661417322836
        },
        {
          "duration": 0.017045437500000205,
          "durationTicks": 24,
          "midi": 64,
          "name": "E4",
          "ticks": 9384,
          "time": 6.6647660625,
          "velocity": 0.30708661417322836
        },
        {
          "duration": 0.017045437500000205,
          "durationTicks": 24,
          "midi": 52,
          "name": "E3",
          "ticks": 9384,
          "time": 6.6647660625,
          "velocity": 0.30708661417322836
        },
        {
          "duration": 0.017045437500000205,
          "durationTicks": 24,
          "midi": 64,
          "name": "E4",
          "ticks": 9384,
          "time": 6.6647660625,
          "velocity": 0.30708661417322836
        },
        {
          "duration": 0.017045437500000205,
          "durationTicks": 24,
          "midi": 88,
          "name": "E6",
          "ticks": 9384,
          "time": 6.6647660625,
          "velocity": 0.30708661417322836
        },
        {
          "duration": 0.017045437499999316,
          "durationTicks": 24,
          "midi": 64,
          "name": "E4",
          "ticks": 9408,
          "time": 6.6818115,
          "velocity": 0.30708661417322836
        },
        {
          "duration": 0.017045437499999316,
          "durationTicks": 24,
          "midi": 76,
          "name": "E5",
          "ticks": 9408,
          "time": 6.6818115,
          "velocity": 0.30708661417322836
        },
        {
          "duration": 0.017045437499999316,
          "durationTicks": 24,
          "midi": 52,
          "name": "E3",
          "ticks": 9408,
          "time": 6.6818115,
          "velocity": 0.30708661417322836
        },
        {
          "duration": 0.017045437499999316,
          "durationTicks": 24,
          "midi": 76,
          "name": "E5",
          "ticks": 9408,
          "time": 6.6818115,
          "velocity": 0.30708661417322836
        },
        {
          "duration": 0.017045437499999316,
          "durationTicks": 24,
          "midi": 76,
          "name": "E5",
          "ticks": 9408,
          "time": 6.6818115,
          "velocity": 0.30708661417322836
        },
        {
          "duration": 0.017045437499999316,
          "durationTicks": 24,
          "midi": 64,
          "name": "E4",
          "ticks": 9408,
          "time": 6.6818115,
          "velocity": 0.30708661417322836
        },
        {
          "duration": 0.017045437499999316,
          "durationTicks": 24,
          "midi": 88,
          "name": "E6",
          "ticks": 9408,
          "time": 6.6818115,
          "velocity": 0.30708661417322836
        },
        {
          "duration": 0.017045437499999316,
          "durationTicks": 24,
          "midi": 52,
          "name": "E3",
          "ticks": 9408,
          "time": 6.6818115,
          "velocity": 0.30708661417322836
        },
        {
          "duration": 0.017045437499999316,
          "durationTicks": 24,
          "midi": 52,
          "name": "E3",
          "ticks": 9408,
          "time": 6.6818115,
          "velocity": 0.30708661417322836
        },
        {
          "duration": 0.017045437499999316,
          "durationTicks": 24,
          "midi": 88,
          "name": "E6",
          "ticks": 9408,
          "time": 6.6818115,
          "velocity": 0.30708661417322836
        },
        {
          "duration": 0.017045437499999316,
          "durationTicks": 24,
          "midi": 64,
          "name": "E4",
          "ticks": 9408,
          "time": 6.6818115,
          "velocity": 0.30708661417322836
        },
        {
          "duration": 0.017045437499999316,
          "durationTicks": 24,
          "midi": 88,
          "name": "E6",
          "ticks": 9408,
          "time": 6.6818115,
          "velocity": 0.30708661417322836
        },
        {
          "duration": 0.017045437500000205,
          "durationTicks": 24,
          "midi": 52,
          "name": "E3",
          "ticks": 9432,
          "time": 6.6988569374999996,
          "velocity": 0.30708661417322836
        },
        {
          "duration": 0.017045437500000205,
          "durationTicks": 24,
          "midi": 88,
          "name": "E6",
          "ticks": 9432,
          "time": 6.6988569374999996,
          "velocity": 0.30708661417322836
        },
        {
          "duration": 0.017045437500000205,
          "durationTicks": 24,
          "midi": 76,
          "name": "E5",
          "ticks": 9432,
          "time": 6.6988569374999996,
          "velocity": 0.30708661417322836
        },
        {
          "duration": 0.017045437500000205,
          "durationTicks": 24,
          "midi": 64,
          "name": "E4",
          "ticks": 9432,
          "time": 6.6988569374999996,
          "velocity": 0.30708661417322836
        },
        {
          "duration": 0.017045437500000205,
          "durationTicks": 24,
          "midi": 64,
          "name": "E4",
          "ticks": 9432,
          "time": 6.6988569374999996,
          "velocity": 0.30708661417322836
        },
        {
          "duration": 0.017045437500000205,
          "durationTicks": 24,
          "midi": 88,
          "name": "E6",
          "ticks": 9432,
          "time": 6.6988569374999996,
          "velocity": 0.30708661417322836
        },
        {
          "duration": 0.017045437500000205,
          "durationTicks": 24,
          "midi": 52,
          "name": "E3",
          "ticks": 9432,
          "time": 6.6988569374999996,
          "velocity": 0.30708661417322836
        },
        {
          "duration": 0.017045437500000205,
          "durationTicks": 24,
          "midi": 76,
          "name": "E5",
          "ticks": 9432,
          "time": 6.6988569374999996,
          "velocity": 0.30708661417322836
        },
        {
          "duration": 0.017045437500000205,
          "durationTicks": 24,
          "midi": 52,
          "name": "E3",
          "ticks": 9432,
          "time": 6.6988569374999996,
          "velocity": 0.30708661417322836
        },
        {
          "duration": 0.017045437500000205,
          "durationTicks": 24,
          "midi": 64,
          "name": "E4",
          "ticks": 9432,
          "time": 6.6988569374999996,
          "velocity": 0.30708661417322836
        },
        {
          "duration": 0.017045437500000205,
          "durationTicks": 24,
          "midi": 88,
          "name": "E6",
          "ticks": 9432,
          "time": 6.6988569374999996,
          "velocity": 0.30708661417322836
        },
        {
          "duration": 0.017045437500000205,
          "durationTicks": 24,
          "midi": 76,
          "name": "E5",
          "ticks": 9432,
          "time": 6.6988569374999996,
          "velocity": 0.30708661417322836
        },
        {
          "duration": 0.017045437500000205,
          "durationTicks": 24,
          "midi": 88,
          "name": "E6",
          "ticks": 9456,
          "time": 6.715902375,
          "velocity": 0.30708661417322836
        },
        {
          "duration": 0.017045437500000205,
          "durationTicks": 24,
          "midi": 52,
          "name": "E3",
          "ticks": 9456,
          "time": 6.715902375,
          "velocity": 0.30708661417322836
        },
        {
          "duration": 0.017045437500000205,
          "durationTicks": 24,
          "midi": 88,
          "name": "E6",
          "ticks": 9456,
          "time": 6.715902375,
          "velocity": 0.30708661417322836
        },
        {
          "duration": 0.017045437500000205,
          "durationTicks": 24,
          "midi": 88,
          "name": "E6",
          "ticks": 9456,
          "time": 6.715902375,
          "velocity": 0.30708661417322836
        },
        {
          "duration": 0.017045437500000205,
          "durationTicks": 24,
          "midi": 76,
          "name": "E5",
          "ticks": 9456,
          "time": 6.715902375,
          "velocity": 0.30708661417322836
        },
        {
          "duration": 0.017045437500000205,
          "durationTicks": 24,
          "midi": 64,
          "name": "E4",
          "ticks": 9456,
          "time": 6.715902375,
          "velocity": 0.30708661417322836
        },
        {
          "duration": 0.017045437500000205,
          "durationTicks": 24,
          "midi": 76,
          "name": "E5",
          "ticks": 9456,
          "time": 6.715902375,
          "velocity": 0.30708661417322836
        },
        {
          "duration": 0.017045437500000205,
          "durationTicks": 24,
          "midi": 64,
          "name": "E4",
          "ticks": 9456,
          "time": 6.715902375,
          "velocity": 0.30708661417322836
        },
        {
          "duration": 0.017045437500000205,
          "durationTicks": 24,
          "midi": 76,
          "name": "E5",
          "ticks": 9456,
          "time": 6.715902375,
          "velocity": 0.30708661417322836
        },
        {
          "duration": 0.017045437500000205,
          "durationTicks": 24,
          "midi": 64,
          "name": "E4",
          "ticks": 9456,
          "time": 6.715902375,
          "velocity": 0.30708661417322836
        },
        {
          "duration": 0.017045437500000205,
          "durationTicks": 24,
          "midi": 52,
          "name": "E3",
          "ticks": 9456,
          "time": 6.715902375,
          "velocity": 0.30708661417322836
        },
        {
          "duration": 0.017045437500000205,
          "durationTicks": 24,
          "midi": 52,
          "name": "E3",
          "ticks": 9456,
          "time": 6.715902375,
          "velocity": 0.30708661417322836
        },
        {
          "duration": 0.017045437500000205,
          "durationTicks": 24,
          "midi": 64,
          "name": "E4",
          "ticks": 9480,
          "time": 6.7329478125,
          "velocity": 0.30708661417322836
        },
        {
          "duration": 0.017045437500000205,
          "durationTicks": 24,
          "midi": 52,
          "name": "E3",
          "ticks": 9480,
          "time": 6.7329478125,
          "velocity": 0.30708661417322836
        },
        {
          "duration": 0.017045437500000205,
          "durationTicks": 24,
          "midi": 88,
          "name": "E6",
          "ticks": 9480,
          "time": 6.7329478125,
          "velocity": 0.30708661417322836
        },
        {
          "duration": 0.017045437500000205,
          "durationTicks": 24,
          "midi": 88,
          "name": "E6",
          "ticks": 9480,
          "time": 6.7329478125,
          "velocity": 0.30708661417322836
        },
        {
          "duration": 0.017045437500000205,
          "durationTicks": 24,
          "midi": 76,
          "name": "E5",
          "ticks": 9480,
          "time": 6.7329478125,
          "velocity": 0.30708661417322836
        },
        {
          "duration": 0.017045437500000205,
          "durationTicks": 24,
          "midi": 52,
          "name": "E3",
          "ticks": 9480,
          "time": 6.7329478125,
          "velocity": 0.30708661417322836
        },
        {
          "duration": 0.017045437500000205,
          "durationTicks": 24,
          "midi": 76,
          "name": "E5",
          "ticks": 9480,
          "time": 6.7329478125,
          "velocity": 0.30708661417322836
        },
        {
          "duration": 0.017045437500000205,
          "durationTicks": 24,
          "midi": 88,
          "name": "E6",
          "ticks": 9480,
          "time": 6.7329478125,
          "velocity": 0.30708661417322836
        },
        {
          "duration": 0.017045437500000205,
          "durationTicks": 24,
          "midi": 64,
          "name": "E4",
          "ticks": 9480,
          "time": 6.7329478125,
          "velocity": 0.30708661417322836
        },
        {
          "duration": 0.017045437500000205,
          "durationTicks": 24,
          "midi": 52,
          "name": "E3",
          "ticks": 9480,
          "time": 6.7329478125,
          "velocity": 0.30708661417322836
        },
        {
          "duration": 0.017045437500000205,
          "durationTicks": 24,
          "midi": 76,
          "name": "E5",
          "ticks": 9480,
          "time": 6.7329478125,
          "velocity": 0.30708661417322836
        },
        {
          "duration": 0.017045437500000205,
          "durationTicks": 24,
          "midi": 64,
          "name": "E4",
          "ticks": 9480,
          "time": 6.7329478125,
          "velocity": 0.30708661417322836
        },
        {
          "duration": 0.017045437500000205,
          "durationTicks": 24,
          "midi": 64,
          "name": "E4",
          "ticks": 9504,
          "time": 6.74999325,
          "velocity": 0.30708661417322836
        },
        {
          "duration": 0.017045437500000205,
          "durationTicks": 24,
          "midi": 88,
          "name": "E6",
          "ticks": 9504,
          "time": 6.74999325,
          "velocity": 0.30708661417322836
        },
        {
          "duration": 0.017045437500000205,
          "durationTicks": 24,
          "midi": 52,
          "name": "E3",
          "ticks": 9504,
          "time": 6.74999325,
          "velocity": 0.30708661417322836
        },
        {
          "duration": 0.017045437500000205,
          "durationTicks": 24,
          "midi": 76,
          "name": "E5",
          "ticks": 9504,
          "time": 6.74999325,
          "velocity": 0.30708661417322836
        },
        {
          "duration": 0.017045437500000205,
          "durationTicks": 24,
          "midi": 52,
          "name": "E3",
          "ticks": 9504,
          "time": 6.74999325,
          "velocity": 0.30708661417322836
        },
        {
          "duration": 0.017045437500000205,
          "durationTicks": 24,
          "midi": 64,
          "name": "E4",
          "ticks": 9504,
          "time": 6.74999325,
          "velocity": 0.30708661417322836
        },
        {
          "duration": 0.017045437500000205,
          "durationTicks": 24,
          "midi": 76,
          "name": "E5",
          "ticks": 9504,
          "time": 6.74999325,
          "velocity": 0.30708661417322836
        },
        {
          "duration": 0.017045437500000205,
          "durationTicks": 24,
          "midi": 88,
          "name": "E6",
          "ticks": 9504,
          "time": 6.74999325,
          "velocity": 0.30708661417322836
        },
        {
          "duration": 0.017045437500000205,
          "durationTicks": 24,
          "midi": 52,
          "name": "E3",
          "ticks": 9504,
          "time": 6.74999325,
          "velocity": 0.30708661417322836
        },
        {
          "duration": 0.017045437500000205,
          "durationTicks": 24,
          "midi": 64,
          "name": "E4",
          "ticks": 9504,
          "time": 6.74999325,
          "velocity": 0.30708661417322836
        },
        {
          "duration": 0.017045437500000205,
          "durationTicks": 24,
          "midi": 88,
          "name": "E6",
          "ticks": 9504,
          "time": 6.74999325,
          "velocity": 0.30708661417322836
        },
        {
          "duration": 0.017045437500000205,
          "durationTicks": 24,
          "midi": 76,
          "name": "E5",
          "ticks": 9504,
          "time": 6.74999325,
          "velocity": 0.30708661417322836
        },
        {
          "duration": 0.017045437499999316,
          "durationTicks": 24,
          "midi": 76,
          "name": "E5",
          "ticks": 9528,
          "time": 6.7670386875,
          "velocity": 0.30708661417322836
        },
        {
          "duration": 0.017045437499999316,
          "durationTicks": 24,
          "midi": 52,
          "name": "E3",
          "ticks": 9528,
          "time": 6.7670386875,
          "velocity": 0.30708661417322836
        },
        {
          "duration": 0.017045437499999316,
          "durationTicks": 24,
          "midi": 76,
          "name": "E5",
          "ticks": 9528,
          "time": 6.7670386875,
          "velocity": 0.30708661417322836
        },
        {
          "duration": 0.017045437499999316,
          "durationTicks": 24,
          "midi": 76,
          "name": "E5",
          "ticks": 9528,
          "time": 6.7670386875,
          "velocity": 0.30708661417322836
        },
        {
          "duration": 0.017045437499999316,
          "durationTicks": 24,
          "midi": 88,
          "name": "E6",
          "ticks": 9528,
          "time": 6.7670386875,
          "velocity": 0.30708661417322836
        },
        {
          "duration": 0.017045437499999316,
          "durationTicks": 24,
          "midi": 64,
          "name": "E4",
          "ticks": 9528,
          "time": 6.7670386875,
          "velocity": 0.30708661417322836
        },
        {
          "duration": 0.017045437499999316,
          "durationTicks": 24,
          "midi": 64,
          "name": "E4",
          "ticks": 9528,
          "time": 6.7670386875,
          "velocity": 0.30708661417322836
        },
        {
          "duration": 0.017045437499999316,
          "durationTicks": 24,
          "midi": 52,
          "name": "E3",
          "ticks": 9528,
          "time": 6.7670386875,
          "velocity": 0.30708661417322836
        },
        {
          "duration": 0.017045437499999316,
          "durationTicks": 24,
          "midi": 52,
          "name": "E3",
          "ticks": 9528,
          "time": 6.7670386875,
          "velocity": 0.30708661417322836
        },
        {
          "duration": 0.017045437499999316,
          "durationTicks": 24,
          "midi": 64,
          "name": "E4",
          "ticks": 9528,
          "time": 6.7670386875,
          "velocity": 0.30708661417322836
        },
        {
          "duration": 0.017045437499999316,
          "durationTicks": 24,
          "midi": 88,
          "name": "E6",
          "ticks": 9528,
          "time": 6.7670386875,
          "velocity": 0.30708661417322836
        },
        {
          "duration": 0.017045437499999316,
          "durationTicks": 24,
          "midi": 88,
          "name": "E6",
          "ticks": 9528,
          "time": 6.7670386875,
          "velocity": 0.30708661417322836
        },
        {
          "duration": 0.017045437500000205,
          "durationTicks": 24,
          "midi": 76,
          "name": "E5",
          "ticks": 9552,
          "time": 6.784084125,
          "velocity": 0.30708661417322836
        },
        {
          "duration": 0.017045437500000205,
          "durationTicks": 24,
          "midi": 52,
          "name": "E3",
          "ticks": 9552,
          "time": 6.784084125,
          "velocity": 0.30708661417322836
        },
        {
          "duration": 0.017045437500000205,
          "durationTicks": 24,
          "midi": 52,
          "name": "E3",
          "ticks": 9552,
          "time": 6.784084125,
          "velocity": 0.30708661417322836
        },
        {
          "duration": 0.017045437500000205,
          "durationTicks": 24,
          "midi": 88,
          "name": "E6",
          "ticks": 9552,
          "time": 6.784084125,
          "velocity": 0.30708661417322836
        },
        {
          "duration": 0.017045437500000205,
          "durationTicks": 24,
          "midi": 88,
          "name": "E6",
          "ticks": 9552,
          "time": 6.784084125,
          "velocity": 0.30708661417322836
        },
        {
          "duration": 0.017045437500000205,
          "durationTicks": 24,
          "midi": 64,
          "name": "E4",
          "ticks": 9552,
          "time": 6.784084125,
          "velocity": 0.30708661417322836
        },
        {
          "duration": 0.017045437500000205,
          "durationTicks": 24,
          "midi": 64,
          "name": "E4",
          "ticks": 9552,
          "time": 6.784084125,
          "velocity": 0.30708661417322836
        },
        {
          "duration": 0.017045437500000205,
          "durationTicks": 24,
          "midi": 64,
          "name": "E4",
          "ticks": 9552,
          "time": 6.784084125,
          "velocity": 0.30708661417322836
        },
        {
          "duration": 0.017045437500000205,
          "durationTicks": 24,
          "midi": 88,
          "name": "E6",
          "ticks": 9552,
          "time": 6.784084125,
          "velocity": 0.30708661417322836
        },
        {
          "duration": 0.017045437500000205,
          "durationTicks": 24,
          "midi": 76,
          "name": "E5",
          "ticks": 9552,
          "time": 6.784084125,
          "velocity": 0.30708661417322836
        },
        {
          "duration": 0.017045437500000205,
          "durationTicks": 24,
          "midi": 76,
          "name": "E5",
          "ticks": 9552,
          "time": 6.784084125,
          "velocity": 0.30708661417322836
        },
        {
          "duration": 0.017045437500000205,
          "durationTicks": 24,
          "midi": 52,
          "name": "E3",
          "ticks": 9552,
          "time": 6.784084125,
          "velocity": 0.30708661417322836
        },
        {
          "duration": 0.017045437500000205,
          "durationTicks": 24,
          "midi": 88,
          "name": "E6",
          "ticks": 9576,
          "time": 6.8011295625,
          "velocity": 0.30708661417322836
        },
        {
          "duration": 0.017045437500000205,
          "durationTicks": 24,
          "midi": 52,
          "name": "E3",
          "ticks": 9576,
          "time": 6.8011295625,
          "velocity": 0.30708661417322836
        },
        {
          "duration": 0.017045437500000205,
          "durationTicks": 24,
          "midi": 88,
          "name": "E6",
          "ticks": 9576,
          "time": 6.8011295625,
          "velocity": 0.30708661417322836
        },
        {
          "duration": 0.017045437500000205,
          "durationTicks": 24,
          "midi": 64,
          "name": "E4",
          "ticks": 9576,
          "time": 6.8011295625,
          "velocity": 0.30708661417322836
        },
        {
          "duration": 0.017045437500000205,
          "durationTicks": 24,
          "midi": 76,
          "name": "E5",
          "ticks": 9576,
          "time": 6.8011295625,
          "velocity": 0.30708661417322836
        },
        {
          "duration": 0.017045437500000205,
          "durationTicks": 24,
          "midi": 52,
          "name": "E3",
          "ticks": 9576,
          "time": 6.8011295625,
          "velocity": 0.30708661417322836
        },
        {
          "duration": 0.017045437500000205,
          "durationTicks": 24,
          "midi": 64,
          "name": "E4",
          "ticks": 9576,
          "time": 6.8011295625,
          "velocity": 0.30708661417322836
        },
        {
          "duration": 0.017045437500000205,
          "durationTicks": 24,
          "midi": 64,
          "name": "E4",
          "ticks": 9576,
          "time": 6.8011295625,
          "velocity": 0.30708661417322836
        },
        {
          "duration": 0.017045437500000205,
          "durationTicks": 24,
          "midi": 52,
          "name": "E3",
          "ticks": 9576,
          "time": 6.8011295625,
          "velocity": 0.30708661417322836
        },
        {
          "duration": 0.017045437500000205,
          "durationTicks": 24,
          "midi": 88,
          "name": "E6",
          "ticks": 9576,
          "time": 6.8011295625,
          "velocity": 0.30708661417322836
        },
        {
          "duration": 0.017045437500000205,
          "durationTicks": 24,
          "midi": 76,
          "name": "E5",
          "ticks": 9576,
          "time": 6.8011295625,
          "velocity": 0.30708661417322836
        },
        {
          "duration": 0.017045437500000205,
          "durationTicks": 24,
          "midi": 76,
          "name": "E5",
          "ticks": 9576,
          "time": 6.8011295625,
          "velocity": 0.30708661417322836
        },
        {
          "duration": 0.017045437500000205,
          "durationTicks": 24,
          "midi": 64,
          "name": "E4",
          "ticks": 9600,
          "time": 6.818175,
          "velocity": 0.30708661417322836
        },
        {
          "duration": 0.017045437500000205,
          "durationTicks": 24,
          "midi": 40,
          "name": "E2",
          "ticks": 9600,
          "time": 6.818175,
          "velocity": 0.30708661417322836
        },
        {
          "duration": 0.017045437500000205,
          "durationTicks": 24,
          "midi": 40,
          "name": "E2",
          "ticks": 9600,
          "time": 6.818175,
          "velocity": 0.30708661417322836
        },
        {
          "duration": 0.017045437500000205,
          "durationTicks": 24,
          "midi": 76,
          "name": "E5",
          "ticks": 9600,
          "time": 6.818175,
          "velocity": 0.30708661417322836
        },
        {
          "duration": 0.017045437500000205,
          "durationTicks": 24,
          "midi": 76,
          "name": "E5",
          "ticks": 9600,
          "time": 6.818175,
          "velocity": 0.30708661417322836
        },
        {
          "duration": 0.017045437500000205,
          "durationTicks": 24,
          "midi": 76,
          "name": "E5",
          "ticks": 9600,
          "time": 6.818175,
          "velocity": 0.30708661417322836
        },
        {
          "duration": 0.017045437500000205,
          "durationTicks": 24,
          "midi": 64,
          "name": "E4",
          "ticks": 9600,
          "time": 6.818175,
          "velocity": 0.30708661417322836
        },
        {
          "duration": 0.017045437500000205,
          "durationTicks": 24,
          "midi": 52,
          "name": "E3",
          "ticks": 9600,
          "time": 6.818175,
          "velocity": 0.30708661417322836
        },
        {
          "duration": 0.017045437500000205,
          "durationTicks": 24,
          "midi": 88,
          "name": "E6",
          "ticks": 9600,
          "time": 6.818175,
          "velocity": 0.30708661417322836
        },
        {
          "duration": 0.017045437500000205,
          "durationTicks": 24,
          "midi": 88,
          "name": "E6",
          "ticks": 9600,
          "time": 6.818175,
          "velocity": 0.30708661417322836
        },
        {
          "duration": 0.017045437500000205,
          "durationTicks": 24,
          "midi": 52,
          "name": "E3",
          "ticks": 9600,
          "time": 6.818175,
          "velocity": 0.30708661417322836
        },
        {
          "duration": 0.017045437500000205,
          "durationTicks": 24,
          "midi": 88,
          "name": "E6",
          "ticks": 9600,
          "time": 6.818175,
          "velocity": 0.30708661417322836
        },
        {
          "duration": 0.017045437500000205,
          "durationTicks": 24,
          "midi": 64,
          "name": "E4",
          "ticks": 9600,
          "time": 6.818175,
          "velocity": 0.30708661417322836
        },
        {
          "duration": 0.017045437500000205,
          "durationTicks": 24,
          "midi": 52,
          "name": "E3",
          "ticks": 9600,
          "time": 6.818175,
          "velocity": 0.30708661417322836
        },
        {
          "duration": 0.017045437499999316,
          "durationTicks": 24,
          "midi": 88,
          "name": "E6",
          "ticks": 9624,
          "time": 6.8352204375,
          "velocity": 0.30708661417322836
        },
        {
          "duration": 0.017045437499999316,
          "durationTicks": 24,
          "midi": 40,
          "name": "E2",
          "ticks": 9624,
          "time": 6.8352204375,
          "velocity": 0.30708661417322836
        },
        {
          "duration": 0.017045437499999316,
          "durationTicks": 24,
          "midi": 52,
          "name": "E3",
          "ticks": 9624,
          "time": 6.8352204375,
          "velocity": 0.30708661417322836
        },
        {
          "duration": 0.017045437499999316,
          "durationTicks": 24,
          "midi": 76,
          "name": "E5",
          "ticks": 9624,
          "time": 6.8352204375,
          "velocity": 0.30708661417322836
        },
        {
          "duration": 0.017045437499999316,
          "durationTicks": 24,
          "midi": 64,
          "name": "E4",
          "ticks": 9624,
          "time": 6.8352204375,
          "velocity": 0.30708661417322836
        },
        {
          "duration": 0.017045437499999316,
          "durationTicks": 24,
          "midi": 64,
          "name": "E4",
          "ticks": 9624,
          "time": 6.8352204375,
          "velocity": 0.30708661417322836
        },
        {
          "duration": 0.017045437499999316,
          "durationTicks": 24,
          "midi": 88,
          "name": "E6",
          "ticks": 9624,
          "time": 6.8352204375,
          "velocity": 0.30708661417322836
        },
        {
          "duration": 0.017045437499999316,
          "durationTicks": 24,
          "midi": 40,
          "name": "E2",
          "ticks": 9624,
          "time": 6.8352204375,
          "velocity": 0.30708661417322836
        },
        {
          "duration": 0.017045437499999316,
          "durationTicks": 24,
          "midi": 52,
          "name": "E3",
          "ticks": 9624,
          "time": 6.8352204375,
          "velocity": 0.30708661417322836
        },
        {
          "duration": 0.017045437499999316,
          "durationTicks": 24,
          "midi": 76,
          "name": "E5",
          "ticks": 9624,
          "time": 6.8352204375,
          "velocity": 0.30708661417322836
        },
        {
          "duration": 0.017045437499999316,
          "durationTicks": 24,
          "midi": 64,
          "name": "E4",
          "ticks": 9624,
          "time": 6.8352204375,
          "velocity": 0.30708661417322836
        },
        {
          "duration": 0.017045437499999316,
          "durationTicks": 24,
          "midi": 40,
          "name": "E2",
          "ticks": 9624,
          "time": 6.8352204375,
          "velocity": 0.30708661417322836
        },
        {
          "duration": 0.017045437499999316,
          "durationTicks": 24,
          "midi": 88,
          "name": "E6",
          "ticks": 9624,
          "time": 6.8352204375,
          "velocity": 0.30708661417322836
        },
        {
          "duration": 0.017045437499999316,
          "durationTicks": 24,
          "midi": 76,
          "name": "E5",
          "ticks": 9624,
          "time": 6.8352204375,
          "velocity": 0.30708661417322836
        },
        {
          "duration": 0.017045437499999316,
          "durationTicks": 24,
          "midi": 52,
          "name": "E3",
          "ticks": 9624,
          "time": 6.8352204375,
          "velocity": 0.30708661417322836
        },
        {
          "duration": 0.017045437500000205,
          "durationTicks": 24,
          "midi": 64,
          "name": "E4",
          "ticks": 9648,
          "time": 6.852265875,
          "velocity": 0.30708661417322836
        },
        {
          "duration": 0.017045437500000205,
          "durationTicks": 24,
          "midi": 64,
          "name": "E4",
          "ticks": 9648,
          "time": 6.852265875,
          "velocity": 0.30708661417322836
        },
        {
          "duration": 0.017045437500000205,
          "durationTicks": 24,
          "midi": 76,
          "name": "E5",
          "ticks": 9648,
          "time": 6.852265875,
          "velocity": 0.30708661417322836
        },
        {
          "duration": 0.017045437500000205,
          "durationTicks": 24,
          "midi": 40,
          "name": "E2",
          "ticks": 9648,
          "time": 6.852265875,
          "velocity": 0.30708661417322836
        },
        {
          "duration": 0.017045437500000205,
          "durationTicks": 24,
          "midi": 52,
          "name": "E3",
          "ticks": 9648,
          "time": 6.852265875,
          "velocity": 0.30708661417322836
        },
        {
          "duration": 0.017045437500000205,
          "durationTicks": 24,
          "midi": 52,
          "name": "E3",
          "ticks": 9648,
          "time": 6.852265875,
          "velocity": 0.30708661417322836
        },
        {
          "duration": 0.017045437500000205,
          "durationTicks": 24,
          "midi": 88,
          "name": "E6",
          "ticks": 9648,
          "time": 6.852265875,
          "velocity": 0.30708661417322836
        },
        {
          "duration": 0.017045437500000205,
          "durationTicks": 24,
          "midi": 88,
          "name": "E6",
          "ticks": 9648,
          "time": 6.852265875,
          "velocity": 0.30708661417322836
        },
        {
          "duration": 0.017045437500000205,
          "durationTicks": 24,
          "midi": 76,
          "name": "E5",
          "ticks": 9648,
          "time": 6.852265875,
          "velocity": 0.30708661417322836
        },
        {
          "duration": 0.017045437500000205,
          "durationTicks": 24,
          "midi": 40,
          "name": "E2",
          "ticks": 9648,
          "time": 6.852265875,
          "velocity": 0.30708661417322836
        },
        {
          "duration": 0.017045437500000205,
          "durationTicks": 24,
          "midi": 40,
          "name": "E2",
          "ticks": 9648,
          "time": 6.852265875,
          "velocity": 0.30708661417322836
        },
        {
          "duration": 0.017045437500000205,
          "durationTicks": 24,
          "midi": 52,
          "name": "E3",
          "ticks": 9648,
          "time": 6.852265875,
          "velocity": 0.30708661417322836
        },
        {
          "duration": 0.017045437500000205,
          "durationTicks": 24,
          "midi": 64,
          "name": "E4",
          "ticks": 9648,
          "time": 6.852265875,
          "velocity": 0.30708661417322836
        },
        {
          "duration": 0.017045437500000205,
          "durationTicks": 24,
          "midi": 88,
          "name": "E6",
          "ticks": 9648,
          "time": 6.852265875,
          "velocity": 0.30708661417322836
        },
        {
          "duration": 0.017045437500000205,
          "durationTicks": 24,
          "midi": 76,
          "name": "E5",
          "ticks": 9648,
          "time": 6.852265875,
          "velocity": 0.30708661417322836
        },
        {
          "duration": 0.017045437500000205,
          "durationTicks": 24,
          "midi": 52,
          "name": "E3",
          "ticks": 9672,
          "time": 6.8693113125,
          "velocity": 0.30708661417322836
        },
        {
          "duration": 0.017045437500000205,
          "durationTicks": 24,
          "midi": 40,
          "name": "E2",
          "ticks": 9672,
          "time": 6.8693113125,
          "velocity": 0.30708661417322836
        },
        {
          "duration": 0.017045437500000205,
          "durationTicks": 24,
          "midi": 52,
          "name": "E3",
          "ticks": 9672,
          "time": 6.8693113125,
          "velocity": 0.30708661417322836
        },
        {
          "duration": 0.017045437500000205,
          "durationTicks": 24,
          "midi": 64,
          "name": "E4",
          "ticks": 9672,
          "time": 6.8693113125,
          "velocity": 0.30708661417322836
        },
        {
          "duration": 0.017045437500000205,
          "durationTicks": 24,
          "midi": 76,
          "name": "E5",
          "ticks": 9672,
          "time": 6.8693113125,
          "velocity": 0.30708661417322836
        },
        {
          "duration": 0.017045437500000205,
          "durationTicks": 24,
          "midi": 40,
          "name": "E2",
          "ticks": 9672,
          "time": 6.8693113125,
          "velocity": 0.30708661417322836
        },
        {
          "duration": 0.017045437500000205,
          "durationTicks": 24,
          "midi": 88,
          "name": "E6",
          "ticks": 9672,
          "time": 6.8693113125,
          "velocity": 0.30708661417322836
        },
        {
          "duration": 0.017045437500000205,
          "durationTicks": 24,
          "midi": 64,
          "name": "E4",
          "ticks": 9672,
          "time": 6.8693113125,
          "velocity": 0.30708661417322836
        },
        {
          "duration": 0.017045437500000205,
          "durationTicks": 24,
          "midi": 76,
          "name": "E5",
          "ticks": 9672,
          "time": 6.8693113125,
          "velocity": 0.30708661417322836
        },
        {
          "duration": 0.017045437500000205,
          "durationTicks": 24,
          "midi": 52,
          "name": "E3",
          "ticks": 9672,
          "time": 6.8693113125,
          "velocity": 0.30708661417322836
        },
        {
          "duration": 0.017045437500000205,
          "durationTicks": 24,
          "midi": 76,
          "name": "E5",
          "ticks": 9672,
          "time": 6.8693113125,
          "velocity": 0.30708661417322836
        },
        {
          "duration": 0.017045437500000205,
          "durationTicks": 24,
          "midi": 40,
          "name": "E2",
          "ticks": 9672,
          "time": 6.8693113125,
          "velocity": 0.30708661417322836
        },
        {
          "duration": 0.017045437500000205,
          "durationTicks": 24,
          "midi": 88,
          "name": "E6",
          "ticks": 9672,
          "time": 6.8693113125,
          "velocity": 0.30708661417322836
        },
        {
          "duration": 0.017045437500000205,
          "durationTicks": 24,
          "midi": 88,
          "name": "E6",
          "ticks": 9672,
          "time": 6.8693113125,
          "velocity": 0.30708661417322836
        },
        {
          "duration": 0.017045437500000205,
          "durationTicks": 24,
          "midi": 64,
          "name": "E4",
          "ticks": 9672,
          "time": 6.8693113125,
          "velocity": 0.30708661417322836
        },
        {
          "duration": 0.017045437500000205,
          "durationTicks": 24,
          "midi": 88,
          "name": "E6",
          "ticks": 9696,
          "time": 6.88635675,
          "velocity": 0.30708661417322836
        },
        {
          "duration": 0.017045437500000205,
          "durationTicks": 24,
          "midi": 52,
          "name": "E3",
          "ticks": 9696,
          "time": 6.88635675,
          "velocity": 0.30708661417322836
        },
        {
          "duration": 0.017045437500000205,
          "durationTicks": 24,
          "midi": 64,
          "name": "E4",
          "ticks": 9696,
          "time": 6.88635675,
          "velocity": 0.30708661417322836
        },
        {
          "duration": 0.017045437500000205,
          "durationTicks": 24,
          "midi": 76,
          "name": "E5",
          "ticks": 9696,
          "time": 6.88635675,
          "velocity": 0.30708661417322836
        },
        {
          "duration": 0.017045437500000205,
          "durationTicks": 24,
          "midi": 64,
          "name": "E4",
          "ticks": 9696,
          "time": 6.88635675,
          "velocity": 0.30708661417322836
        },
        {
          "duration": 0.017045437500000205,
          "durationTicks": 24,
          "midi": 40,
          "name": "E2",
          "ticks": 9696,
          "time": 6.88635675,
          "velocity": 0.30708661417322836
        },
        {
          "duration": 0.017045437500000205,
          "durationTicks": 24,
          "midi": 88,
          "name": "E6",
          "ticks": 9696,
          "time": 6.88635675,
          "velocity": 0.30708661417322836
        },
        {
          "duration": 0.017045437500000205,
          "durationTicks": 24,
          "midi": 76,
          "name": "E5",
          "ticks": 9696,
          "time": 6.88635675,
          "velocity": 0.30708661417322836
        },
        {
          "duration": 0.017045437500000205,
          "durationTicks": 24,
          "midi": 40,
          "name": "E2",
          "ticks": 9696,
          "time": 6.88635675,
          "velocity": 0.30708661417322836
        },
        {
          "duration": 0.017045437500000205,
          "durationTicks": 24,
          "midi": 40,
          "name": "E2",
          "ticks": 9696,
          "time": 6.88635675,
          "velocity": 0.30708661417322836
        },
        {
          "duration": 0.017045437500000205,
          "durationTicks": 24,
          "midi": 52,
          "name": "E3",
          "ticks": 9696,
          "time": 6.88635675,
          "velocity": 0.30708661417322836
        },
        {
          "duration": 0.017045437500000205,
          "durationTicks": 24,
          "midi": 76,
          "name": "E5",
          "ticks": 9696,
          "time": 6.88635675,
          "velocity": 0.30708661417322836
        },
        {
          "duration": 0.017045437500000205,
          "durationTicks": 24,
          "midi": 52,
          "name": "E3",
          "ticks": 9696,
          "time": 6.88635675,
          "velocity": 0.30708661417322836
        },
        {
          "duration": 0.017045437500000205,
          "durationTicks": 24,
          "midi": 88,
          "name": "E6",
          "ticks": 9696,
          "time": 6.88635675,
          "velocity": 0.30708661417322836
        },
        {
          "duration": 0.017045437500000205,
          "durationTicks": 24,
          "midi": 64,
          "name": "E4",
          "ticks": 9696,
          "time": 6.88635675,
          "velocity": 0.30708661417322836
        },
        {
          "duration": 0.017045437499999316,
          "durationTicks": 24,
          "midi": 64,
          "name": "E4",
          "ticks": 9720,
          "time": 6.9034021875,
          "velocity": 0.30708661417322836
        },
        {
          "duration": 0.017045437499999316,
          "durationTicks": 24,
          "midi": 64,
          "name": "E4",
          "ticks": 9720,
          "time": 6.9034021875,
          "velocity": 0.30708661417322836
        },
        {
          "duration": 0.017045437499999316,
          "durationTicks": 24,
          "midi": 52,
          "name": "E3",
          "ticks": 9720,
          "time": 6.9034021875,
          "velocity": 0.30708661417322836
        },
        {
          "duration": 0.017045437499999316,
          "durationTicks": 24,
          "midi": 76,
          "name": "E5",
          "ticks": 9720,
          "time": 6.9034021875,
          "velocity": 0.30708661417322836
        },
        {
          "duration": 0.017045437499999316,
          "durationTicks": 24,
          "midi": 88,
          "name": "E6",
          "ticks": 9720,
          "time": 6.9034021875,
          "velocity": 0.30708661417322836
        },
        {
          "duration": 0.017045437499999316,
          "durationTicks": 24,
          "midi": 76,
          "name": "E5",
          "ticks": 9720,
          "time": 6.9034021875,
          "velocity": 0.30708661417322836
        },
        {
          "duration": 0.017045437499999316,
          "durationTicks": 24,
          "midi": 40,
          "name": "E2",
          "ticks": 9720,
          "time": 6.9034021875,
          "velocity": 0.30708661417322836
        },
        {
          "duration": 0.017045437499999316,
          "durationTicks": 24,
          "midi": 52,
          "name": "E3",
          "ticks": 9720,
          "time": 6.9034021875,
          "velocity": 0.30708661417322836
        },
        {
          "duration": 0.017045437499999316,
          "durationTicks": 24,
          "midi": 40,
          "name": "E2",
          "ticks": 9720,
          "time": 6.9034021875,
          "velocity": 0.30708661417322836
        },
        {
          "duration": 0.017045437499999316,
          "durationTicks": 24,
          "midi": 76,
          "name": "E5",
          "ticks": 9720,
          "time": 6.9034021875,
          "velocity": 0.30708661417322836
        },
        {
          "duration": 0.017045437499999316,
          "durationTicks": 24,
          "midi": 88,
          "name": "E6",
          "ticks": 9720,
          "time": 6.9034021875,
          "velocity": 0.30708661417322836
        },
        {
          "duration": 0.017045437499999316,
          "durationTicks": 24,
          "midi": 64,
          "name": "E4",
          "ticks": 9720,
          "time": 6.9034021875,
          "velocity": 0.30708661417322836
        },
        {
          "duration": 0.017045437499999316,
          "durationTicks": 24,
          "midi": 40,
          "name": "E2",
          "ticks": 9720,
          "time": 6.9034021875,
          "velocity": 0.30708661417322836
        },
        {
          "duration": 0.017045437499999316,
          "durationTicks": 24,
          "midi": 88,
          "name": "E6",
          "ticks": 9720,
          "time": 6.9034021875,
          "velocity": 0.30708661417322836
        },
        {
          "duration": 0.017045437499999316,
          "durationTicks": 24,
          "midi": 52,
          "name": "E3",
          "ticks": 9720,
          "time": 6.9034021875,
          "velocity": 0.30708661417322836
        },
        {
          "duration": 0.017045437500000205,
          "durationTicks": 24,
          "midi": 52,
          "name": "E3",
          "ticks": 9744,
          "time": 6.9204476249999995,
          "velocity": 0.30708661417322836
        },
        {
          "duration": 0.017045437500000205,
          "durationTicks": 24,
          "midi": 52,
          "name": "E3",
          "ticks": 9744,
          "time": 6.9204476249999995,
          "velocity": 0.30708661417322836
        },
        {
          "duration": 0.017045437500000205,
          "durationTicks": 24,
          "midi": 76,
          "name": "E5",
          "ticks": 9744,
          "time": 6.9204476249999995,
          "velocity": 0.30708661417322836
        },
        {
          "duration": 0.017045437500000205,
          "durationTicks": 24,
          "midi": 88,
          "name": "E6",
          "ticks": 9744,
          "time": 6.9204476249999995,
          "velocity": 0.30708661417322836
        },
        {
          "duration": 0.017045437500000205,
          "durationTicks": 24,
          "midi": 64,
          "name": "E4",
          "ticks": 9744,
          "time": 6.9204476249999995,
          "velocity": 0.30708661417322836
        },
        {
          "duration": 0.017045437500000205,
          "durationTicks": 24,
          "midi": 76,
          "name": "E5",
          "ticks": 9744,
          "time": 6.9204476249999995,
          "velocity": 0.30708661417322836
        },
        {
          "duration": 0.017045437500000205,
          "durationTicks": 24,
          "midi": 40,
          "name": "E2",
          "ticks": 9744,
          "time": 6.9204476249999995,
          "velocity": 0.30708661417322836
        },
        {
          "duration": 0.017045437500000205,
          "durationTicks": 24,
          "midi": 40,
          "name": "E2",
          "ticks": 9744,
          "time": 6.9204476249999995,
          "velocity": 0.30708661417322836
        },
        {
          "duration": 0.017045437500000205,
          "durationTicks": 24,
          "midi": 76,
          "name": "E5",
          "ticks": 9744,
          "time": 6.9204476249999995,
          "velocity": 0.30708661417322836
        },
        {
          "duration": 0.017045437500000205,
          "durationTicks": 24,
          "midi": 52,
          "name": "E3",
          "ticks": 9744,
          "time": 6.9204476249999995,
          "velocity": 0.30708661417322836
        },
        {
          "duration": 0.017045437500000205,
          "durationTicks": 24,
          "midi": 40,
          "name": "E2",
          "ticks": 9744,
          "time": 6.9204476249999995,
          "velocity": 0.30708661417322836
        },
        {
          "duration": 0.017045437500000205,
          "durationTicks": 24,
          "midi": 64,
          "name": "E4",
          "ticks": 9744,
          "time": 6.9204476249999995,
          "velocity": 0.30708661417322836
        },
        {
          "duration": 0.017045437500000205,
          "durationTicks": 24,
          "midi": 88,
          "name": "E6",
          "ticks": 9744,
          "time": 6.9204476249999995,
          "velocity": 0.30708661417322836
        },
        {
          "duration": 0.017045437500000205,
          "durationTicks": 24,
          "midi": 64,
          "name": "E4",
          "ticks": 9744,
          "time": 6.9204476249999995,
          "velocity": 0.30708661417322836
        },
        {
          "duration": 0.017045437500000205,
          "durationTicks": 24,
          "midi": 88,
          "name": "E6",
          "ticks": 9744,
          "time": 6.9204476249999995,
          "velocity": 0.30708661417322836
        },
        {
          "duration": 0.017045437500000205,
          "durationTicks": 24,
          "midi": 88,
          "name": "E6",
          "ticks": 9768,
          "time": 6.9374930625,
          "velocity": 0.30708661417322836
        },
        {
          "duration": 0.017045437500000205,
          "durationTicks": 24,
          "midi": 40,
          "name": "E2",
          "ticks": 9768,
          "time": 6.9374930625,
          "velocity": 0.30708661417322836
        },
        {
          "duration": 0.017045437500000205,
          "durationTicks": 24,
          "midi": 64,
          "name": "E4",
          "ticks": 9768,
          "time": 6.9374930625,
          "velocity": 0.30708661417322836
        },
        {
          "duration": 0.017045437500000205,
          "durationTicks": 24,
          "midi": 64,
          "name": "E4",
          "ticks": 9768,
          "time": 6.9374930625,
          "velocity": 0.30708661417322836
        },
        {
          "duration": 0.017045437500000205,
          "durationTicks": 24,
          "midi": 88,
          "name": "E6",
          "ticks": 9768,
          "time": 6.9374930625,
          "velocity": 0.30708661417322836
        },
        {
          "duration": 0.017045437500000205,
          "durationTicks": 24,
          "midi": 76,
          "name": "E5",
          "ticks": 9768,
          "time": 6.9374930625,
          "velocity": 0.30708661417322836
        },
        {
          "duration": 0.017045437500000205,
          "durationTicks": 24,
          "midi": 64,
          "name": "E4",
          "ticks": 9768,
          "time": 6.9374930625,
          "velocity": 0.30708661417322836
        },
        {
          "duration": 0.017045437500000205,
          "durationTicks": 24,
          "midi": 52,
          "name": "E3",
          "ticks": 9768,
          "time": 6.9374930625,
          "velocity": 0.30708661417322836
        },
        {
          "duration": 0.017045437500000205,
          "durationTicks": 24,
          "midi": 76,
          "name": "E5",
          "ticks": 9768,
          "time": 6.9374930625,
          "velocity": 0.30708661417322836
        },
        {
          "duration": 0.017045437500000205,
          "durationTicks": 24,
          "midi": 76,
          "name": "E5",
          "ticks": 9768,
          "time": 6.9374930625,
          "velocity": 0.30708661417322836
        },
        {
          "duration": 0.017045437500000205,
          "durationTicks": 24,
          "midi": 40,
          "name": "E2",
          "ticks": 9768,
          "time": 6.9374930625,
          "velocity": 0.30708661417322836
        },
        {
          "duration": 0.017045437500000205,
          "durationTicks": 24,
          "midi": 88,
          "name": "E6",
          "ticks": 9768,
          "time": 6.9374930625,
          "velocity": 0.30708661417322836
        },
        {
          "duration": 0.017045437500000205,
          "durationTicks": 24,
          "midi": 52,
          "name": "E3",
          "ticks": 9768,
          "time": 6.9374930625,
          "velocity": 0.30708661417322836
        },
        {
          "duration": 0.017045437500000205,
          "durationTicks": 24,
          "midi": 52,
          "name": "E3",
          "ticks": 9768,
          "time": 6.9374930625,
          "velocity": 0.30708661417322836
        },
        {
          "duration": 0.017045437500000205,
          "durationTicks": 24,
          "midi": 40,
          "name": "E2",
          "ticks": 9768,
          "time": 6.9374930625,
          "velocity": 0.30708661417322836
        },
        {
          "duration": 0.017045437500000205,
          "durationTicks": 24,
          "midi": 52,
          "name": "E3",
          "ticks": 9792,
          "time": 6.9545385,
          "velocity": 0.30708661417322836
        },
        {
          "duration": 0.017045437500000205,
          "durationTicks": 24,
          "midi": 64,
          "name": "E4",
          "ticks": 9792,
          "time": 6.9545385,
          "velocity": 0.30708661417322836
        },
        {
          "duration": 0.017045437500000205,
          "durationTicks": 24,
          "midi": 76,
          "name": "E5",
          "ticks": 9792,
          "time": 6.9545385,
          "velocity": 0.30708661417322836
        },
        {
          "duration": 0.017045437500000205,
          "durationTicks": 24,
          "midi": 52,
          "name": "E3",
          "ticks": 9792,
          "time": 6.9545385,
          "velocity": 0.30708661417322836
        },
        {
          "duration": 0.017045437500000205,
          "durationTicks": 24,
          "midi": 52,
          "name": "E3",
          "ticks": 9792,
          "time": 6.9545385,
          "velocity": 0.30708661417322836
        },
        {
          "duration": 0.017045437500000205,
          "durationTicks": 24,
          "midi": 64,
          "name": "E4",
          "ticks": 9792,
          "time": 6.9545385,
          "velocity": 0.30708661417322836
        },
        {
          "duration": 0.017045437500000205,
          "durationTicks": 24,
          "midi": 88,
          "name": "E6",
          "ticks": 9792,
          "time": 6.9545385,
          "velocity": 0.30708661417322836
        },
        {
          "duration": 0.017045437500000205,
          "durationTicks": 24,
          "midi": 76,
          "name": "E5",
          "ticks": 9792,
          "time": 6.9545385,
          "velocity": 0.30708661417322836
        },
        {
          "duration": 0.017045437500000205,
          "durationTicks": 24,
          "midi": 64,
          "name": "E4",
          "ticks": 9792,
          "time": 6.9545385,
          "velocity": 0.30708661417322836
        },
        {
          "duration": 0.017045437500000205,
          "durationTicks": 24,
          "midi": 40,
          "name": "E2",
          "ticks": 9792,
          "time": 6.9545385,
          "velocity": 0.30708661417322836
        },
        {
          "duration": 0.017045437500000205,
          "durationTicks": 24,
          "midi": 88,
          "name": "E6",
          "ticks": 9792,
          "time": 6.9545385,
          "velocity": 0.30708661417322836
        },
        {
          "duration": 0.017045437500000205,
          "durationTicks": 24,
          "midi": 40,
          "name": "E2",
          "ticks": 9792,
          "time": 6.9545385,
          "velocity": 0.30708661417322836
        },
        {
          "duration": 0.017045437500000205,
          "durationTicks": 24,
          "midi": 40,
          "name": "E2",
          "ticks": 9792,
          "time": 6.9545385,
          "velocity": 0.30708661417322836
        },
        {
          "duration": 0.017045437500000205,
          "durationTicks": 24,
          "midi": 76,
          "name": "E5",
          "ticks": 9792,
          "time": 6.9545385,
          "velocity": 0.30708661417322836
        },
        {
          "duration": 0.017045437500000205,
          "durationTicks": 24,
          "midi": 88,
          "name": "E6",
          "ticks": 9792,
          "time": 6.9545385,
          "velocity": 0.30708661417322836
        },
        {
          "duration": 0.017045437500000205,
          "durationTicks": 24,
          "midi": 40,
          "name": "E2",
          "ticks": 9816,
          "time": 6.9715839375,
          "velocity": 0.30708661417322836
        },
        {
          "duration": 0.017045437500000205,
          "durationTicks": 24,
          "midi": 52,
          "name": "E3",
          "ticks": 9816,
          "time": 6.9715839375,
          "velocity": 0.30708661417322836
        },
        {
          "duration": 0.017045437500000205,
          "durationTicks": 24,
          "midi": 64,
          "name": "E4",
          "ticks": 9816,
          "time": 6.9715839375,
          "velocity": 0.30708661417322836
        },
        {
          "duration": 0.017045437500000205,
          "durationTicks": 24,
          "midi": 76,
          "name": "E5",
          "ticks": 9816,
          "time": 6.9715839375,
          "velocity": 0.30708661417322836
        },
        {
          "duration": 0.017045437500000205,
          "durationTicks": 24,
          "midi": 88,
          "name": "E6",
          "ticks": 9816,
          "time": 6.9715839375,
          "velocity": 0.30708661417322836
        },
        {
          "duration": 0.017045437500000205,
          "durationTicks": 24,
          "midi": 52,
          "name": "E3",
          "ticks": 9816,
          "time": 6.9715839375,
          "velocity": 0.30708661417322836
        },
        {
          "duration": 0.017045437500000205,
          "durationTicks": 24,
          "midi": 76,
          "name": "E5",
          "ticks": 9816,
          "time": 6.9715839375,
          "velocity": 0.30708661417322836
        },
        {
          "duration": 0.017045437500000205,
          "durationTicks": 24,
          "midi": 88,
          "name": "E6",
          "ticks": 9816,
          "time": 6.9715839375,
          "velocity": 0.30708661417322836
        },
        {
          "duration": 0.017045437500000205,
          "durationTicks": 24,
          "midi": 40,
          "name": "E2",
          "ticks": 9816,
          "time": 6.9715839375,
          "velocity": 0.30708661417322836
        },
        {
          "duration": 0.017045437500000205,
          "durationTicks": 24,
          "midi": 64,
          "name": "E4",
          "ticks": 9816,
          "time": 6.9715839375,
          "velocity": 0.30708661417322836
        },
        {
          "duration": 0.017045437500000205,
          "durationTicks": 24,
          "midi": 88,
          "name": "E6",
          "ticks": 9816,
          "time": 6.9715839375,
          "velocity": 0.30708661417322836
        },
        {
          "duration": 0.017045437500000205,
          "durationTicks": 24,
          "midi": 52,
          "name": "E3",
          "ticks": 9816,
          "time": 6.9715839375,
          "velocity": 0.30708661417322836
        },
        {
          "duration": 0.017045437500000205,
          "durationTicks": 24,
          "midi": 64,
          "name": "E4",
          "ticks": 9816,
          "time": 6.9715839375,
          "velocity": 0.30708661417322836
        },
        {
          "duration": 0.017045437500000205,
          "durationTicks": 24,
          "midi": 40,
          "name": "E2",
          "ticks": 9816,
          "time": 6.9715839375,
          "velocity": 0.30708661417322836
        },
        {
          "duration": 0.017045437500000205,
          "durationTicks": 24,
          "midi": 76,
          "name": "E5",
          "ticks": 9816,
          "time": 6.9715839375,
          "velocity": 0.30708661417322836
        },
        {
          "duration": 0.017045437499999316,
          "durationTicks": 24,
          "midi": 40,
          "name": "E2",
          "ticks": 9840,
          "time": 6.988629375,
          "velocity": 0.30708661417322836
        },
        {
          "duration": 0.017045437499999316,
          "durationTicks": 24,
          "midi": 88,
          "name": "E6",
          "ticks": 9840,
          "time": 6.988629375,
          "velocity": 0.30708661417322836
        },
        {
          "duration": 0.017045437499999316,
          "durationTicks": 24,
          "midi": 40,
          "name": "E2",
          "ticks": 9840,
          "time": 6.988629375,
          "velocity": 0.30708661417322836
        },
        {
          "duration": 0.017045437499999316,
          "durationTicks": 24,
          "midi": 52,
          "name": "E3",
          "ticks": 9840,
          "time": 6.988629375,
          "velocity": 0.30708661417322836
        },
        {
          "duration": 0.017045437499999316,
          "durationTicks": 24,
          "midi": 76,
          "name": "E5",
          "ticks": 9840,
          "time": 6.988629375,
          "velocity": 0.30708661417322836
        },
        {
          "duration": 0.017045437499999316,
          "durationTicks": 24,
          "midi": 52,
          "name": "E3",
          "ticks": 9840,
          "time": 6.988629375,
          "velocity": 0.30708661417322836
        },
        {
          "duration": 0.017045437499999316,
          "durationTicks": 24,
          "midi": 52,
          "name": "E3",
          "ticks": 9840,
          "time": 6.988629375,
          "velocity": 0.30708661417322836
        },
        {
          "duration": 0.017045437499999316,
          "durationTicks": 24,
          "midi": 88,
          "name": "E6",
          "ticks": 9840,
          "time": 6.988629375,
          "velocity": 0.30708661417322836
        },
        {
          "duration": 0.017045437499999316,
          "durationTicks": 24,
          "midi": 76,
          "name": "E5",
          "ticks": 9840,
          "time": 6.988629375,
          "velocity": 0.30708661417322836
        },
        {
          "duration": 0.017045437499999316,
          "durationTicks": 24,
          "midi": 40,
          "name": "E2",
          "ticks": 9840,
          "time": 6.988629375,
          "velocity": 0.30708661417322836
        },
        {
          "duration": 0.017045437499999316,
          "durationTicks": 24,
          "midi": 64,
          "name": "E4",
          "ticks": 9840,
          "time": 6.988629375,
          "velocity": 0.30708661417322836
        },
        {
          "duration": 0.017045437499999316,
          "durationTicks": 24,
          "midi": 64,
          "name": "E4",
          "ticks": 9840,
          "time": 6.988629375,
          "velocity": 0.30708661417322836
        },
        {
          "duration": 0.017045437499999316,
          "durationTicks": 24,
          "midi": 88,
          "name": "E6",
          "ticks": 9840,
          "time": 6.988629375,
          "velocity": 0.30708661417322836
        },
        {
          "duration": 0.017045437499999316,
          "durationTicks": 24,
          "midi": 76,
          "name": "E5",
          "ticks": 9840,
          "time": 6.988629375,
          "velocity": 0.30708661417322836
        },
        {
          "duration": 0.017045437499999316,
          "durationTicks": 24,
          "midi": 64,
          "name": "E4",
          "ticks": 9840,
          "time": 6.988629375,
          "velocity": 0.30708661417322836
        },
        {
          "duration": 0.017045437500000205,
          "durationTicks": 24,
          "midi": 88,
          "name": "E6",
          "ticks": 9864,
          "time": 7.0056748125,
          "velocity": 0.30708661417322836
        },
        {
          "duration": 0.017045437500000205,
          "durationTicks": 24,
          "midi": 76,
          "name": "E5",
          "ticks": 9864,
          "time": 7.0056748125,
          "velocity": 0.30708661417322836
        },
        {
          "duration": 0.017045437500000205,
          "durationTicks": 24,
          "midi": 40,
          "name": "E2",
          "ticks": 9864,
          "time": 7.0056748125,
          "velocity": 0.30708661417322836
        },
        {
          "duration": 0.017045437500000205,
          "durationTicks": 24,
          "midi": 40,
          "name": "E2",
          "ticks": 9864,
          "time": 7.0056748125,
          "velocity": 0.30708661417322836
        },
        {
          "duration": 0.017045437500000205,
          "durationTicks": 24,
          "midi": 88,
          "name": "E6",
          "ticks": 9864,
          "time": 7.0056748125,
          "velocity": 0.30708661417322836
        },
        {
          "duration": 0.017045437500000205,
          "durationTicks": 24,
          "midi": 76,
          "name": "E5",
          "ticks": 9864,
          "time": 7.0056748125,
          "velocity": 0.30708661417322836
        },
        {
          "duration": 0.017045437500000205,
          "durationTicks": 24,
          "midi": 88,
          "name": "E6",
          "ticks": 9864,
          "time": 7.0056748125,
          "velocity": 0.30708661417322836
        },
        {
          "duration": 0.017045437500000205,
          "durationTicks": 24,
          "midi": 52,
          "name": "E3",
          "ticks": 9864,
          "time": 7.0056748125,
          "velocity": 0.30708661417322836
        },
        {
          "duration": 0.017045437500000205,
          "durationTicks": 24,
          "midi": 64,
          "name": "E4",
          "ticks": 9864,
          "time": 7.0056748125,
          "velocity": 0.30708661417322836
        },
        {
          "duration": 0.017045437500000205,
          "durationTicks": 24,
          "midi": 64,
          "name": "E4",
          "ticks": 9864,
          "time": 7.0056748125,
          "velocity": 0.30708661417322836
        },
        {
          "duration": 0.017045437500000205,
          "durationTicks": 24,
          "midi": 52,
          "name": "E3",
          "ticks": 9864,
          "time": 7.0056748125,
          "velocity": 0.30708661417322836
        },
        {
          "duration": 0.017045437500000205,
          "durationTicks": 24,
          "midi": 76,
          "name": "E5",
          "ticks": 9864,
          "time": 7.0056748125,
          "velocity": 0.30708661417322836
        },
        {
          "duration": 0.017045437500000205,
          "durationTicks": 24,
          "midi": 64,
          "name": "E4",
          "ticks": 9864,
          "time": 7.0056748125,
          "velocity": 0.30708661417322836
        },
        {
          "duration": 0.017045437500000205,
          "durationTicks": 24,
          "midi": 52,
          "name": "E3",
          "ticks": 9864,
          "time": 7.0056748125,
          "velocity": 0.30708661417322836
        },
        {
          "duration": 0.017045437500000205,
          "durationTicks": 24,
          "midi": 40,
          "name": "E2",
          "ticks": 9864,
          "time": 7.0056748125,
          "velocity": 0.30708661417322836
        },
        {
          "duration": 0.017045437500000205,
          "durationTicks": 24,
          "midi": 52,
          "name": "E3",
          "ticks": 9888,
          "time": 7.02272025,
          "velocity": 0.30708661417322836
        },
        {
          "duration": 0.017045437500000205,
          "durationTicks": 24,
          "midi": 88,
          "name": "E6",
          "ticks": 9888,
          "time": 7.02272025,
          "velocity": 0.30708661417322836
        },
        {
          "duration": 0.017045437500000205,
          "durationTicks": 24,
          "midi": 76,
          "name": "E5",
          "ticks": 9888,
          "time": 7.02272025,
          "velocity": 0.30708661417322836
        },
        {
          "duration": 0.017045437500000205,
          "durationTicks": 24,
          "midi": 28,
          "name": "E1",
          "ticks": 9888,
          "time": 7.02272025,
          "velocity": 0.30708661417322836
        },
        {
          "duration": 0.017045437500000205,
          "durationTicks": 24,
          "midi": 76,
          "name": "E5",
          "ticks": 9888,
          "time": 7.02272025,
          "velocity": 0.30708661417322836
        },
        {
          "duration": 0.017045437500000205,
          "durationTicks": 24,
          "midi": 28,
          "name": "E1",
          "ticks": 9888,
          "time": 7.02272025,
          "velocity": 0.30708661417322836
        },
        {
          "duration": 0.017045437500000205,
          "durationTicks": 24,
          "midi": 52,
          "name": "E3",
          "ticks": 9888,
          "time": 7.02272025,
          "velocity": 0.30708661417322836
        },
        {
          "duration": 0.017045437500000205,
          "durationTicks": 24,
          "midi": 40,
          "name": "E2",
          "ticks": 9888,
          "time": 7.02272025,
          "velocity": 0.30708661417322836
        },
        {
          "duration": 0.017045437500000205,
          "durationTicks": 24,
          "midi": 52,
          "name": "E3",
          "ticks": 9888,
          "time": 7.02272025,
          "velocity": 0.30708661417322836
        },
        {
          "duration": 0.017045437500000205,
          "durationTicks": 24,
          "midi": 76,
          "name": "E5",
          "ticks": 9888,
          "time": 7.02272025,
          "velocity": 0.30708661417322836
        },
        {
          "duration": 0.017045437500000205,
          "durationTicks": 24,
          "midi": 64,
          "name": "E4",
          "ticks": 9888,
          "time": 7.02272025,
          "velocity": 0.30708661417322836
        },
        {
          "duration": 0.017045437500000205,
          "durationTicks": 24,
          "midi": 40,
          "name": "E2",
          "ticks": 9888,
          "time": 7.02272025,
          "velocity": 0.30708661417322836
        },
        {
          "duration": 0.017045437500000205,
          "durationTicks": 24,
          "midi": 64,
          "name": "E4",
          "ticks": 9888,
          "time": 7.02272025,
          "velocity": 0.30708661417322836
        },
        {
          "duration": 0.03409087500000041,
          "durationTicks": 48,
          "midi": 76,
          "name": "E5",
          "ticks": 9888,
          "time": 7.02272025,
          "velocity": 0.30708661417322836
        },
        {
          "duration": 0.017045437500000205,
          "durationTicks": 24,
          "midi": 88,
          "name": "E6",
          "ticks": 9888,
          "time": 7.02272025,
          "velocity": 0.30708661417322836
        },
        {
          "duration": 0.017045437500000205,
          "durationTicks": 24,
          "midi": 88,
          "name": "E6",
          "ticks": 9888,
          "time": 7.02272025,
          "velocity": 0.30708661417322836
        },
        {
          "duration": 0.017045437500000205,
          "durationTicks": 24,
          "midi": 40,
          "name": "E2",
          "ticks": 9888,
          "time": 7.02272025,
          "velocity": 0.30708661417322836
        },
        {
          "duration": 0.03409087500000041,
          "durationTicks": 48,
          "midi": 88,
          "name": "E6",
          "ticks": 9888,
          "time": 7.02272025,
          "velocity": 0.30708661417322836
        },
        {
          "duration": 0.08522718750000013,
          "durationTicks": 120,
          "midi": 76,
          "name": "E5",
          "ticks": 9888,
          "time": 7.02272025,
          "velocity": 0.30708661417322836
        },
        {
          "duration": 0.017045437500000205,
          "durationTicks": 24,
          "midi": 64,
          "name": "E4",
          "ticks": 9888,
          "time": 7.02272025,
          "velocity": 0.30708661417322836
        },
        {
          "duration": 0.08522718750000013,
          "durationTicks": 120,
          "midi": 76,
          "name": "E5",
          "ticks": 9888,
          "time": 7.02272025,
          "velocity": 0.30708661417322836
        },
        {
          "duration": 0.03409087500000041,
          "durationTicks": 48,
          "midi": 28,
          "name": "E1",
          "ticks": 9888,
          "time": 7.02272025,
          "velocity": 0.30708661417322836
        },
        {
          "duration": 0.03409087500000041,
          "durationTicks": 48,
          "midi": 52,
          "name": "E3",
          "ticks": 9888,
          "time": 7.02272025,
          "velocity": 0.30708661417322836
        },
        {
          "duration": 0.08522718750000013,
          "durationTicks": 120,
          "midi": 76,
          "name": "E5",
          "ticks": 9888,
          "time": 7.02272025,
          "velocity": 0.30708661417322836
        },
        {
          "duration": 0.03409087500000041,
          "durationTicks": 48,
          "midi": 40,
          "name": "E2",
          "ticks": 9888,
          "time": 7.02272025,
          "velocity": 0.30708661417322836
        },
        {
          "duration": 0.08522718750000013,
          "durationTicks": 120,
          "midi": 40,
          "name": "E2",
          "ticks": 9888,
          "time": 7.02272025,
          "velocity": 0.30708661417322836
        },
        {
          "duration": 0.08522718750000013,
          "durationTicks": 120,
          "midi": 76,
          "name": "E5",
          "ticks": 9888,
          "time": 7.02272025,
          "velocity": 0.30708661417322836
        },
        {
          "duration": 0.03409087500000041,
          "durationTicks": 48,
          "midi": 64,
          "name": "E4",
          "ticks": 9888,
          "time": 7.02272025,
          "velocity": 0.30708661417322836
        },
        {
          "duration": 0.08522718750000013,
          "durationTicks": 120,
          "midi": 88,
          "name": "E6",
          "ticks": 9888,
          "time": 7.02272025,
          "velocity": 0.30708661417322836
        },
        {
          "duration": 0.08522718750000013,
          "durationTicks": 120,
          "midi": 64,
          "name": "E4",
          "ticks": 9888,
          "time": 7.02272025,
          "velocity": 0.30708661417322836
        },
        {
          "duration": 0.08522718750000013,
          "durationTicks": 120,
          "midi": 28,
          "name": "E1",
          "ticks": 9888,
          "time": 7.02272025,
          "velocity": 0.30708661417322836
        },
        {
          "duration": 0.08522718750000013,
          "durationTicks": 120,
          "midi": 40,
          "name": "E2",
          "ticks": 9888,
          "time": 7.02272025,
          "velocity": 0.30708661417322836
        },
        {
          "duration": 0.08522718750000013,
          "durationTicks": 120,
          "midi": 64,
          "name": "E4",
          "ticks": 9888,
          "time": 7.02272025,
          "velocity": 0.30708661417322836
        },
        {
          "duration": 0.08522718750000013,
          "durationTicks": 120,
          "midi": 28,
          "name": "E1",
          "ticks": 9888,
          "time": 7.02272025,
          "velocity": 0.30708661417322836
        },
        {
          "duration": 0.08522718750000013,
          "durationTicks": 120,
          "midi": 28,
          "name": "E1",
          "ticks": 9888,
          "time": 7.02272025,
          "velocity": 0.30708661417322836
        },
        {
          "duration": 0.08522718750000013,
          "durationTicks": 120,
          "midi": 52,
          "name": "E3",
          "ticks": 9888,
          "time": 7.02272025,
          "velocity": 0.30708661417322836
        },
        {
          "duration": 0.08522718750000013,
          "durationTicks": 120,
          "midi": 76,
          "name": "E5",
          "ticks": 9888,
          "time": 7.02272025,
          "velocity": 0.30708661417322836
        },
        {
          "duration": 0.08522718750000013,
          "durationTicks": 120,
          "midi": 40,
          "name": "E2",
          "ticks": 9888,
          "time": 7.02272025,
          "velocity": 0.30708661417322836
        },
        {
          "duration": 0.08522718750000013,
          "durationTicks": 120,
          "midi": 40,
          "name": "E2",
          "ticks": 9888,
          "time": 7.02272025,
          "velocity": 0.30708661417322836
        },
        {
          "duration": 0.08522718750000013,
          "durationTicks": 120,
          "midi": 88,
          "name": "E6",
          "ticks": 9888,
          "time": 7.02272025,
          "velocity": 0.30708661417322836
        },
        {
          "duration": 0.08522718750000013,
          "durationTicks": 120,
          "midi": 40,
          "name": "E2",
          "ticks": 9888,
          "time": 7.02272025,
          "velocity": 0.30708661417322836
        },
        {
          "duration": 0.08522718750000013,
          "durationTicks": 120,
          "midi": 88,
          "name": "E6",
          "ticks": 9888,
          "time": 7.02272025,
          "velocity": 0.30708661417322836
        },
        {
          "duration": 0.08522718750000013,
          "durationTicks": 120,
          "midi": 40,
          "name": "E2",
          "ticks": 9888,
          "time": 7.02272025,
          "velocity": 0.30708661417322836
        },
        {
          "duration": 0.08522718750000013,
          "durationTicks": 120,
          "midi": 64,
          "name": "E4",
          "ticks": 9888,
          "time": 7.02272025,
          "velocity": 0.30708661417322836
        },
        {
          "duration": 0.08522718750000013,
          "durationTicks": 120,
          "midi": 76,
          "name": "E5",
          "ticks": 9888,
          "time": 7.02272025,
          "velocity": 0.30708661417322836
        },
        {
          "duration": 0.08522718750000013,
          "durationTicks": 120,
          "midi": 52,
          "name": "E3",
          "ticks": 9888,
          "time": 7.02272025,
          "velocity": 0.30708661417322836
        },
        {
          "duration": 0.08522718750000013,
          "durationTicks": 120,
          "midi": 52,
          "name": "E3",
          "ticks": 9888,
          "time": 7.02272025,
          "velocity": 0.30708661417322836
        },
        {
          "duration": 0.08522718750000013,
          "durationTicks": 120,
          "midi": 52,
          "name": "E3",
          "ticks": 9888,
          "time": 7.02272025,
          "velocity": 0.30708661417322836
        },
        {
          "duration": 0.08522718750000013,
          "durationTicks": 120,
          "midi": 52,
          "name": "E3",
          "ticks": 9888,
          "time": 7.02272025,
          "velocity": 0.30708661417322836
        },
        {
          "duration": 0.08522718750000013,
          "durationTicks": 120,
          "midi": 64,
          "name": "E4",
          "ticks": 9888,
          "time": 7.02272025,
          "velocity": 0.30708661417322836
        },
        {
          "duration": 0.08522718750000013,
          "durationTicks": 120,
          "midi": 64,
          "name": "E4",
          "ticks": 9888,
          "time": 7.02272025,
          "velocity": 0.30708661417322836
        },
        {
          "duration": 0.08522718750000013,
          "durationTicks": 120,
          "midi": 88,
          "name": "E6",
          "ticks": 9888,
          "time": 7.02272025,
          "velocity": 0.30708661417322836
        },
        {
          "duration": 0.08522718750000013,
          "durationTicks": 120,
          "midi": 88,
          "name": "E6",
          "ticks": 9888,
          "time": 7.02272025,
          "velocity": 0.30708661417322836
        },
        {
          "duration": 0.08522718750000013,
          "durationTicks": 120,
          "midi": 28,
          "name": "E1",
          "ticks": 9888,
          "time": 7.02272025,
          "velocity": 0.30708661417322836
        },
        {
          "duration": 0.08522718750000013,
          "durationTicks": 120,
          "midi": 64,
          "name": "E4",
          "ticks": 9888,
          "time": 7.02272025,
          "velocity": 0.30708661417322836
        },
        {
          "duration": 0.08522718750000013,
          "durationTicks": 120,
          "midi": 28,
          "name": "E1",
          "ticks": 9888,
          "time": 7.02272025,
          "velocity": 0.30708661417322836
        },
        {
          "duration": 0.08522718750000013,
          "durationTicks": 120,
          "midi": 88,
          "name": "E6",
          "ticks": 9888,
          "time": 7.02272025,
          "velocity": 0.30708661417322836
        },
        {
          "duration": 0.08522718750000013,
          "durationTicks": 120,
          "midi": 88,
          "name": "E6",
          "ticks": 9888,
          "time": 7.02272025,
          "velocity": 0.30708661417322836
        },
        {
          "duration": 0.08522718750000013,
          "durationTicks": 120,
          "midi": 76,
          "name": "E5",
          "ticks": 9888,
          "time": 7.02272025,
          "velocity": 0.30708661417322836
        },
        {
          "duration": 0.08522718750000013,
          "durationTicks": 120,
          "midi": 76,
          "name": "E5",
          "ticks": 9888,
          "time": 7.02272025,
          "velocity": 0.30708661417322836
        },
        {
          "duration": 0.08522718750000013,
          "durationTicks": 120,
          "midi": 28,
          "name": "E1",
          "ticks": 9888,
          "time": 7.02272025,
          "velocity": 0.30708661417322836
        },
        {
          "duration": 0.08522718750000013,
          "durationTicks": 120,
          "midi": 64,
          "name": "E4",
          "ticks": 9888,
          "time": 7.02272025,
          "velocity": 0.30708661417322836
        },
        {
          "duration": 0.08522718750000013,
          "durationTicks": 120,
          "midi": 28,
          "name": "E1",
          "ticks": 9888,
          "time": 7.02272025,
          "velocity": 0.30708661417322836
        },
        {
          "duration": 0.08522718750000013,
          "durationTicks": 120,
          "midi": 28,
          "name": "E1",
          "ticks": 9888,
          "time": 7.02272025,
          "velocity": 0.30708661417322836
        },
        {
          "duration": 0.08522718750000013,
          "durationTicks": 120,
          "midi": 52,
          "name": "E3",
          "ticks": 9888,
          "time": 7.02272025,
          "velocity": 0.30708661417322836
        },
        {
          "duration": 0.08522718750000013,
          "durationTicks": 120,
          "midi": 64,
          "name": "E4",
          "ticks": 9888,
          "time": 7.02272025,
          "velocity": 0.30708661417322836
        },
        {
          "duration": 0.08522718750000013,
          "durationTicks": 120,
          "midi": 52,
          "name": "E3",
          "ticks": 9888,
          "time": 7.02272025,
          "velocity": 0.30708661417322836
        },
        {
          "duration": 0.08522718750000013,
          "durationTicks": 120,
          "midi": 40,
          "name": "E2",
          "ticks": 9888,
          "time": 7.02272025,
          "velocity": 0.30708661417322836
        },
        {
          "duration": 0.08522718750000013,
          "durationTicks": 120,
          "midi": 52,
          "name": "E3",
          "ticks": 9888,
          "time": 7.02272025,
          "velocity": 0.30708661417322836
        },
        {
          "duration": 0.08522718750000013,
          "durationTicks": 120,
          "midi": 40,
          "name": "E2",
          "ticks": 9888,
          "time": 7.02272025,
          "velocity": 0.30708661417322836
        },
        {
          "duration": 0.10227262500000034,
          "durationTicks": 144,
          "midi": 76,
          "name": "E5",
          "ticks": 9888,
          "time": 7.02272025,
          "velocity": 0.30708661417322836
        },
        {
          "duration": 0.10227262500000034,
          "durationTicks": 144,
          "midi": 64,
          "name": "E4",
          "ticks": 9888,
          "time": 7.02272025,
          "velocity": 0.30708661417322836
        },
        {
          "duration": 0.08522718750000013,
          "durationTicks": 120,
          "midi": 88,
          "name": "E6",
          "ticks": 9888,
          "time": 7.02272025,
          "velocity": 0.30708661417322836
        },
        {
          "duration": 0.10227262500000034,
          "durationTicks": 144,
          "midi": 52,
          "name": "E3",
          "ticks": 9888,
          "time": 7.02272025,
          "velocity": 0.30708661417322836
        },
        {
          "duration": 0.10227262500000034,
          "durationTicks": 144,
          "midi": 40,
          "name": "E2",
          "ticks": 9888,
          "time": 7.02272025,
          "velocity": 0.30708661417322836
        },
        {
          "duration": 0.10227262500000034,
          "durationTicks": 144,
          "midi": 28,
          "name": "E1",
          "ticks": 9888,
          "time": 7.02272025,
          "velocity": 0.30708661417322836
        },
        {
          "duration": 0.10227262500000034,
          "durationTicks": 144,
          "midi": 88,
          "name": "E6",
          "ticks": 9888,
          "time": 7.02272025,
          "velocity": 0.30708661417322836
        },
        {
          "duration": 0.08522718750000013,
          "durationTicks": 120,
          "midi": 64,
          "name": "E4",
          "ticks": 9912,
          "time": 7.0397656875,
          "velocity": 0.30708661417322836
        },
        {
          "duration": 0.08522718750000013,
          "durationTicks": 120,
          "midi": 88,
          "name": "E6",
          "ticks": 9912,
          "time": 7.0397656875,
          "velocity": 0.30708661417322836
        },
        {
          "duration": 0.08522718750000013,
          "durationTicks": 120,
          "midi": 52,
          "name": "E3",
          "ticks": 9912,
          "time": 7.0397656875,
          "velocity": 0.30708661417322836
        },
        {
          "duration": 0.08522718750000013,
          "durationTicks": 120,
          "midi": 88,
          "name": "E6",
          "ticks": 9912,
          "time": 7.0397656875,
          "velocity": 0.30708661417322836
        },
        {
          "duration": 0.08522718750000013,
          "durationTicks": 120,
          "midi": 28,
          "name": "E1",
          "ticks": 9912,
          "time": 7.0397656875,
          "velocity": 0.30708661417322836
        },
        {
          "duration": 0.08522718750000013,
          "durationTicks": 120,
          "midi": 28,
          "name": "E1",
          "ticks": 9912,
          "time": 7.0397656875,
          "velocity": 0.30708661417322836
        },
        {
          "duration": 0.08522718750000013,
          "durationTicks": 120,
          "midi": 76,
          "name": "E5",
          "ticks": 9912,
          "time": 7.0397656875,
          "velocity": 0.30708661417322836
        },
        {
          "duration": 0.08522718750000013,
          "durationTicks": 120,
          "midi": 76,
          "name": "E5",
          "ticks": 9912,
          "time": 7.0397656875,
          "velocity": 0.30708661417322836
        },
        {
          "duration": 0.08522718750000013,
          "durationTicks": 120,
          "midi": 88,
          "name": "E6",
          "ticks": 9912,
          "time": 7.0397656875,
          "velocity": 0.30708661417322836
        },
        {
          "duration": 0.08522718750000013,
          "durationTicks": 120,
          "midi": 52,
          "name": "E3",
          "ticks": 9912,
          "time": 7.0397656875,
          "velocity": 0.30708661417322836
        },
        {
          "duration": 0.13636349999999986,
          "durationTicks": 192,
          "midi": 88,
          "name": "E6",
          "ticks": 9912,
          "time": 7.0397656875,
          "velocity": 0.30708661417322836
        },
        {
          "duration": 0.08522718750000013,
          "durationTicks": 120,
          "midi": 52,
          "name": "E3",
          "ticks": 9912,
          "time": 7.0397656875,
          "velocity": 0.30708661417322836
        },
        {
          "duration": 0.13636349999999986,
          "durationTicks": 192,
          "midi": 88,
          "name": "E6",
          "ticks": 9912,
          "time": 7.0397656875,
          "velocity": 0.30708661417322836
        },
        {
          "duration": 0.08522718750000013,
          "durationTicks": 120,
          "midi": 40,
          "name": "E2",
          "ticks": 9912,
          "time": 7.0397656875,
          "velocity": 0.30708661417322836
        },
        {
          "duration": 0.08522718750000013,
          "durationTicks": 120,
          "midi": 40,
          "name": "E2",
          "ticks": 9912,
          "time": 7.0397656875,
          "velocity": 0.30708661417322836
        },
        {
          "duration": 0.13636349999999986,
          "durationTicks": 192,
          "midi": 52,
          "name": "E3",
          "ticks": 9912,
          "time": 7.0397656875,
          "velocity": 0.30708661417322836
        },
        {
          "duration": 0.08522718750000013,
          "durationTicks": 120,
          "midi": 28,
          "name": "E1",
          "ticks": 9912,
          "time": 7.0397656875,
          "velocity": 0.30708661417322836
        },
        {
          "duration": 0.13636349999999986,
          "durationTicks": 192,
          "midi": 28,
          "name": "E1",
          "ticks": 9912,
          "time": 7.0397656875,
          "velocity": 0.30708661417322836
        },
        {
          "duration": 0.08522718750000013,
          "durationTicks": 120,
          "midi": 40,
          "name": "E2",
          "ticks": 9912,
          "time": 7.0397656875,
          "velocity": 0.30708661417322836
        },
        {
          "duration": 0.08522718750000013,
          "durationTicks": 120,
          "midi": 76,
          "name": "E5",
          "ticks": 9912,
          "time": 7.0397656875,
          "velocity": 0.30708661417322836
        },
        {
          "duration": 0.08522718750000013,
          "durationTicks": 120,
          "midi": 64,
          "name": "E4",
          "ticks": 9912,
          "time": 7.0397656875,
          "velocity": 0.30708661417322836
        },
        {
          "duration": 0.15340893750000006,
          "durationTicks": 216,
          "midi": 88,
          "name": "E6",
          "ticks": 9912,
          "time": 7.0397656875,
          "velocity": 0.30708661417322836
        },
        {
          "duration": 0.08522718750000013,
          "durationTicks": 120,
          "midi": 64,
          "name": "E4",
          "ticks": 9912,
          "time": 7.0397656875,
          "velocity": 0.30708661417322836
        },
        {
          "duration": 0.13636349999999986,
          "durationTicks": 192,
          "midi": 64,
          "name": "E4",
          "ticks": 9912,
          "time": 7.0397656875,
          "velocity": 0.30708661417322836
        },
        {
          "duration": 0.13636349999999986,
          "durationTicks": 192,
          "midi": 40,
          "name": "E2",
          "ticks": 9912,
          "time": 7.0397656875,
          "velocity": 0.30708661417322836
        },
        {
          "duration": 0.13636349999999986,
          "durationTicks": 192,
          "midi": 76,
          "name": "E5",
          "ticks": 9912,
          "time": 7.0397656875,
          "velocity": 0.30708661417322836
        },
        {
          "duration": 0.13636349999999986,
          "durationTicks": 192,
          "midi": 52,
          "name": "E3",
          "ticks": 9912,
          "time": 7.0397656875,
          "velocity": 0.30708661417322836
        },
        {
          "duration": 0.13636349999999986,
          "durationTicks": 192,
          "midi": 64,
          "name": "E4",
          "ticks": 9912,
          "time": 7.0397656875,
          "velocity": 0.30708661417322836
        },
        {
          "duration": 0.13636349999999986,
          "durationTicks": 192,
          "midi": 76,
          "name": "E5",
          "ticks": 9912,
          "time": 7.0397656875,
          "velocity": 0.30708661417322836
        },
        {
          "duration": 0.15340893750000006,
          "durationTicks": 216,
          "midi": 76,
          "name": "E5",
          "ticks": 9912,
          "time": 7.0397656875,
          "velocity": 0.30708661417322836
        },
        {
          "duration": 0.13636349999999986,
          "durationTicks": 192,
          "midi": 28,
          "name": "E1",
          "ticks": 9912,
          "time": 7.0397656875,
          "velocity": 0.30708661417322836
        },
        {
          "duration": 0.13636349999999986,
          "durationTicks": 192,
          "midi": 40,
          "name": "E2",
          "ticks": 9912,
          "time": 7.0397656875,
          "velocity": 0.30708661417322836
        },
        {
          "duration": 0.15340893750000006,
          "durationTicks": 216,
          "midi": 52,
          "name": "E3",
          "ticks": 9912,
          "time": 7.0397656875,
          "velocity": 0.30708661417322836
        },
        {
          "duration": 0.15340893750000006,
          "durationTicks": 216,
          "midi": 40,
          "name": "E2",
          "ticks": 9912,
          "time": 7.0397656875,
          "velocity": 0.30708661417322836
        },
        {
          "duration": 0.15340893750000006,
          "durationTicks": 216,
          "midi": 28,
          "name": "E1",
          "ticks": 9912,
          "time": 7.0397656875,
          "velocity": 0.30708661417322836
        },
        {
          "duration": 0.15340893750000006,
          "durationTicks": 216,
          "midi": 64,
          "name": "E4",
          "ticks": 9912,
          "time": 7.0397656875,
          "velocity": 0.30708661417322836
        },
        {
          "duration": 0.9034081875000002,
          "durationTicks": 1272,
          "midi": 33,
          "name": "A1",
          "ticks": 9984,
          "time": 7.090902,
          "velocity": 0.30708661417322836
        },
        {
          "duration": 0.9034081875000002,
          "durationTicks": 1272,
          "midi": 33,
          "name": "A1",
          "ticks": 9984,
          "time": 7.090902,
          "velocity": 0.30708661417322836
        },
        {
          "duration": 0.9034081875000002,
          "durationTicks": 1272,
          "midi": 45,
          "name": "A2",
          "ticks": 9984,
          "time": 7.090902,
          "velocity": 0.30708661417322836
        },
        {
          "duration": 0.9034081875000002,
          "durationTicks": 1272,
          "midi": 45,
          "name": "A2",
          "ticks": 9984,
          "time": 7.090902,
          "velocity": 0.30708661417322836
        },
        {
          "duration": 0.9034081875000002,
          "durationTicks": 1272,
          "midi": 33,
          "name": "A1",
          "ticks": 10008,
          "time": 7.1079474375,
          "velocity": 0.30708661417322836
        },
        {
          "duration": 0.9034081875000002,
          "durationTicks": 1272,
          "midi": 45,
          "name": "A2",
          "ticks": 10008,
          "time": 7.1079474375,
          "velocity": 0.30708661417322836
        },
        {
          "duration": 0.15340893749999918,
          "durationTicks": 216,
          "midi": 48,
          "name": "C3",
          "ticks": 11136,
          "time": 7.909083,
          "velocity": 0.30708661417322836
        },
        {
          "duration": 0.15340893749999918,
          "durationTicks": 216,
          "midi": 48,
          "name": "C3",
          "ticks": 11136,
          "time": 7.909083,
          "velocity": 0.30708661417322836
        },
        {
          "duration": 0.15340893749999918,
          "durationTicks": 216,
          "midi": 52,
          "name": "E3",
          "ticks": 11136,
          "time": 7.909083,
          "velocity": 0.30708661417322836
        },
        {
          "duration": 0.15340893749999918,
          "durationTicks": 216,
          "midi": 52,
          "name": "E3",
          "ticks": 11136,
          "time": 7.909083,
          "velocity": 0.30708661417322836
        },
        {
          "duration": 0.15340893749999918,
          "durationTicks": 216,
          "midi": 52,
          "name": "E3",
          "ticks": 11160,
          "time": 7.9261284375,
          "velocity": 0.30708661417322836
        },
        {
          "duration": 0.15340893749999918,
          "durationTicks": 216,
          "midi": 48,
          "name": "C3",
          "ticks": 11160,
          "time": 7.9261284375,
          "velocity": 0.30708661417322836
        },
        {
          "duration": 0.15340893750000006,
          "durationTicks": 216,
          "midi": 40,
          "name": "E2",
          "ticks": 12288,
          "time": 8.727264,
          "velocity": 0.30708661417322836
        },
        {
          "duration": 0.15340893750000006,
          "durationTicks": 216,
          "midi": 40,
          "name": "E2",
          "ticks": 12288,
          "time": 8.727264,
          "velocity": 0.30708661417322836
        },
        {
          "duration": 0.15340893750000006,
          "durationTicks": 216,
          "midi": 40,
          "name": "E2",
          "ticks": 12312,
          "time": 8.7443094375,
          "velocity": 0.30708661417322836
        },
        {
          "duration": 0.15340893750000006,
          "durationTicks": 216,
          "midi": 48,
          "name": "C3",
          "ticks": 13440,
          "time": 9.545444999999999,
          "velocity": 0.30708661417322836
        },
        {
          "duration": 0.15340893750000006,
          "durationTicks": 216,
          "midi": 52,
          "name": "E3",
          "ticks": 13440,
          "time": 9.545444999999999,
          "velocity": 0.30708661417322836
        },
        {
          "duration": 0.15340893750000006,
          "durationTicks": 216,
          "midi": 48,
          "name": "C3",
          "ticks": 13440,
          "time": 9.545444999999999,
          "velocity": 0.30708661417322836
        },
        {
          "duration": 0.15340893750000006,
          "durationTicks": 216,
          "midi": 52,
          "name": "E3",
          "ticks": 13440,
          "time": 9.545444999999999,
          "velocity": 0.30708661417322836
        },
        {
          "duration": 0.15340893750000006,
          "durationTicks": 216,
          "midi": 52,
          "name": "E3",
          "ticks": 13464,
          "time": 9.5624904375,
          "velocity": 0.30708661417322836
        },
        {
          "duration": 0.15340893750000006,
          "durationTicks": 216,
          "midi": 48,
          "name": "C3",
          "ticks": 13464,
          "time": 9.5624904375,
          "velocity": 0.30708661417322836
        },
        {
          "duration": 0.2897724374999999,
          "durationTicks": 408,
          "midi": 40,
          "name": "E2",
          "ticks": 14304,
          "time": 10.15908075,
          "velocity": 0.30708661417322836
        },
        {
          "duration": 0.2897724374999999,
          "durationTicks": 408,
          "midi": 28,
          "name": "E1",
          "ticks": 14304,
          "time": 10.15908075,
          "velocity": 0.30708661417322836
        },
        {
          "duration": 0.2897724374999999,
          "durationTicks": 408,
          "midi": 40,
          "name": "E2",
          "ticks": 14304,
          "time": 10.15908075,
          "velocity": 0.30708661417322836
        },
        {
          "duration": 0.2897724374999999,
          "durationTicks": 408,
          "midi": 28,
          "name": "E1",
          "ticks": 14304,
          "time": 10.15908075,
          "velocity": 0.30708661417322836
        },
        {
          "duration": 0.2897724374999999,
          "durationTicks": 408,
          "midi": 28,
          "name": "E1",
          "ticks": 14328,
          "time": 10.1761261875,
          "velocity": 0.30708661417322836
        },
        {
          "duration": 0.2897724374999999,
          "durationTicks": 408,
          "midi": 40,
          "name": "E2",
          "ticks": 14328,
          "time": 10.1761261875,
          "velocity": 0.30708661417322836
        },
        {
          "duration": 0.2897724374999999,
          "durationTicks": 408,
          "midi": 30,
          "name": "F#1",
          "ticks": 14400,
          "time": 10.2272625,
          "velocity": 0.30708661417322836
        },
        {
          "duration": 0.2897724374999999,
          "durationTicks": 408,
          "midi": 30,
          "name": "F#1",
          "ticks": 14400,
          "time": 10.2272625,
          "velocity": 0.30708661417322836
        },
        {
          "duration": 0.2897724374999999,
          "durationTicks": 408,
          "midi": 42,
          "name": "F#2",
          "ticks": 14400,
          "time": 10.2272625,
          "velocity": 0.30708661417322836
        },
        {
          "duration": 0.2897724374999999,
          "durationTicks": 408,
          "midi": 42,
          "name": "F#2",
          "ticks": 14400,
          "time": 10.2272625,
          "velocity": 0.30708661417322836
        },
        {
          "duration": 0.2897724374999999,
          "durationTicks": 408,
          "midi": 30,
          "name": "F#1",
          "ticks": 14424,
          "time": 10.2443079375,
          "velocity": 0.30708661417322836
        },
        {
          "duration": 0.2897724374999999,
          "durationTicks": 408,
          "midi": 42,
          "name": "F#2",
          "ticks": 14424,
          "time": 10.2443079375,
          "velocity": 0.30708661417322836
        },
        {
          "duration": 0.2897724374999999,
          "durationTicks": 408,
          "midi": 32,
          "name": "G#1",
          "ticks": 14496,
          "time": 10.29544425,
          "velocity": 0.30708661417322836
        },
        {
          "duration": 0.2897724374999999,
          "durationTicks": 408,
          "midi": 44,
          "name": "G#2",
          "ticks": 14496,
          "time": 10.29544425,
          "velocity": 0.30708661417322836
        },
        {
          "duration": 0.2897724374999999,
          "durationTicks": 408,
          "midi": 44,
          "name": "G#2",
          "ticks": 14496,
          "time": 10.29544425,
          "velocity": 0.30708661417322836
        },
        {
          "duration": 0.2897724374999999,
          "durationTicks": 408,
          "midi": 32,
          "name": "G#1",
          "ticks": 14496,
          "time": 10.29544425,
          "velocity": 0.30708661417322836
        },
        {
          "duration": 0.2897724374999999,
          "durationTicks": 408,
          "midi": 32,
          "name": "G#1",
          "ticks": 14520,
          "time": 10.3124896875,
          "velocity": 0.30708661417322836
        },
        {
          "duration": 0.2897724374999999,
          "durationTicks": 408,
          "midi": 44,
          "name": "G#2",
          "ticks": 14520,
          "time": 10.3124896875,
          "velocity": 0.30708661417322836
        },
        {
          "duration": 0.6306811875000005,
          "durationTicks": 888,
          "midi": 33,
          "name": "A1",
          "ticks": 14592,
          "time": 10.363626,
          "velocity": 0.30708661417322836
        },
        {
          "duration": 0.6306811875000005,
          "durationTicks": 888,
          "midi": 33,
          "name": "A1",
          "ticks": 14592,
          "time": 10.363626,
          "velocity": 0.30708661417322836
        },
        {
          "duration": 0.6306811875000005,
          "durationTicks": 888,
          "midi": 45,
          "name": "A2",
          "ticks": 14592,
          "time": 10.363626,
          "velocity": 0.30708661417322836
        },
        {
          "duration": 0.6306811875000005,
          "durationTicks": 888,
          "midi": 45,
          "name": "A2",
          "ticks": 14592,
          "time": 10.363626,
          "velocity": 0.30708661417322836
        },
        {
          "duration": 0.6306811875000005,
          "durationTicks": 888,
          "midi": 33,
          "name": "A1",
          "ticks": 14616,
          "time": 10.3806714375,
          "velocity": 0.30708661417322836
        },
        {
          "duration": 0.6306811875000005,
          "durationTicks": 888,
          "midi": 45,
          "name": "A2",
          "ticks": 14616,
          "time": 10.3806714375,
          "velocity": 0.30708661417322836
        },
        {
          "duration": 0.15340893750000006,
          "durationTicks": 216,
          "midi": 52,
          "name": "E3",
          "ticks": 15648,
          "time": 11.11362525,
          "velocity": 0.30708661417322836
        },
        {
          "duration": 0.15340893750000006,
          "durationTicks": 216,
          "midi": 48,
          "name": "C3",
          "ticks": 15648,
          "time": 11.11362525,
          "velocity": 0.30708661417322836
        },
        {
          "duration": 0.15340893750000006,
          "durationTicks": 216,
          "midi": 48,
          "name": "C3",
          "ticks": 15648,
          "time": 11.11362525,
          "velocity": 0.30708661417322836
        },
        {
          "duration": 0.15340893750000006,
          "durationTicks": 216,
          "midi": 52,
          "name": "E3",
          "ticks": 15648,
          "time": 11.11362525,
          "velocity": 0.30708661417322836
        },
        {
          "duration": 0.15340893750000006,
          "durationTicks": 216,
          "midi": 48,
          "name": "C3",
          "ticks": 15672,
          "time": 11.1306706875,
          "velocity": 0.30708661417322836
        },
        {
          "duration": 0.15340893750000006,
          "durationTicks": 216,
          "midi": 52,
          "name": "E3",
          "ticks": 15672,
          "time": 11.1306706875,
          "velocity": 0.30708661417322836
        },
        {
          "duration": 0.15340893750000006,
          "durationTicks": 216,
          "midi": 40,
          "name": "E2",
          "ticks": 16608,
          "time": 11.79544275,
          "velocity": 0.30708661417322836
        },
        {
          "duration": 0.15340893750000006,
          "durationTicks": 216,
          "midi": 40,
          "name": "E2",
          "ticks": 16608,
          "time": 11.79544275,
          "velocity": 0.30708661417322836
        },
        {
          "duration": 0.15340893750000006,
          "durationTicks": 216,
          "midi": 40,
          "name": "E2",
          "ticks": 16632,
          "time": 11.8124881875,
          "velocity": 0.30708661417322836
        },
        {
          "duration": 0.15340893750000006,
          "durationTicks": 216,
          "midi": 52,
          "name": "E3",
          "ticks": 17664,
          "time": 12.545442,
          "velocity": 0.30708661417322836
        },
        {
          "duration": 0.15340893750000006,
          "durationTicks": 216,
          "midi": 48,
          "name": "C3",
          "ticks": 17664,
          "time": 12.545442,
          "velocity": 0.30708661417322836
        },
        {
          "duration": 0.15340893750000006,
          "durationTicks": 216,
          "midi": 52,
          "name": "E3",
          "ticks": 17664,
          "time": 12.545442,
          "velocity": 0.30708661417322836
        },
        {
          "duration": 0.15340893750000006,
          "durationTicks": 216,
          "midi": 48,
          "name": "C3",
          "ticks": 17664,
          "time": 12.545442,
          "velocity": 0.30708661417322836
        },
        {
          "duration": 0.15340893750000006,
          "durationTicks": 216,
          "midi": 52,
          "name": "E3",
          "ticks": 17688,
          "time": 12.5624874375,
          "velocity": 0.30708661417322836
        },
        {
          "duration": 0.15340893750000006,
          "durationTicks": 216,
          "midi": 48,
          "name": "C3",
          "ticks": 17688,
          "time": 12.5624874375,
          "velocity": 0.30708661417322836
        },
        {
          "duration": 0.15340893750000006,
          "durationTicks": 216,
          "midi": 64,
          "name": "E4",
          "ticks": 18624,
          "time": 13.2272595,
          "velocity": 0.30708661417322836
        },
        {
          "duration": 0.6306811874999987,
          "durationTicks": 888,
          "midi": 45,
          "name": "A2",
          "ticks": 18624,
          "time": 13.2272595,
          "velocity": 0.30708661417322836
        },
        {
          "duration": 0.6306811874999987,
          "durationTicks": 888,
          "midi": 45,
          "name": "A2",
          "ticks": 18624,
          "time": 13.2272595,
          "velocity": 0.30708661417322836
        },
        {
          "duration": 0.15340893750000006,
          "durationTicks": 216,
          "midi": 64,
          "name": "E4",
          "ticks": 18624,
          "time": 13.2272595,
          "velocity": 0.30708661417322836
        },
        {
          "duration": 0.6306811875000005,
          "durationTicks": 888,
          "midi": 45,
          "name": "A2",
          "ticks": 18648,
          "time": 13.244304937499999,
          "velocity": 0.30708661417322836
        },
        {
          "duration": 0.15340893750000006,
          "durationTicks": 216,
          "midi": 64,
          "name": "E4",
          "ticks": 18648,
          "time": 13.244304937499999,
          "velocity": 0.30708661417322836
        },
        {
          "duration": 0.15340893750000006,
          "durationTicks": 216,
          "midi": 64,
          "name": "E4",
          "ticks": 19008,
          "time": 13.4999865,
          "velocity": 0.30708661417322836
        },
        {
          "duration": 0.15340893750000006,
          "durationTicks": 216,
          "midi": 64,
          "name": "E4",
          "ticks": 19008,
          "time": 13.4999865,
          "velocity": 0.30708661417322836
        },
        {
          "duration": 0.15340893750000006,
          "durationTicks": 216,
          "midi": 64,
          "name": "E4",
          "ticks": 19032,
          "time": 13.5170319375,
          "velocity": 0.30708661417322836
        },
        {
          "duration": 0.15340893750000006,
          "durationTicks": 216,
          "midi": 52,
          "name": "E3",
          "ticks": 19392,
          "time": 13.7727135,
          "velocity": 0.30708661417322836
        },
        {
          "duration": 0.15340893750000006,
          "durationTicks": 216,
          "midi": 52,
          "name": "E3",
          "ticks": 19392,
          "time": 13.7727135,
          "velocity": 0.30708661417322836
        },
        {
          "duration": 0.15340893750000006,
          "durationTicks": 216,
          "midi": 64,
          "name": "E4",
          "ticks": 19392,
          "time": 13.7727135,
          "velocity": 0.30708661417322836
        },
        {
          "duration": 0.15340893750000006,
          "durationTicks": 216,
          "midi": 48,
          "name": "C3",
          "ticks": 19392,
          "time": 13.7727135,
          "velocity": 0.30708661417322836
        },
        {
          "duration": 0.15340893750000006,
          "durationTicks": 216,
          "midi": 64,
          "name": "E4",
          "ticks": 19392,
          "time": 13.7727135,
          "velocity": 0.30708661417322836
        },
        {
          "duration": 0.15340893750000006,
          "durationTicks": 216,
          "midi": 48,
          "name": "C3",
          "ticks": 19392,
          "time": 13.7727135,
          "velocity": 0.30708661417322836
        },
        {
          "duration": 0.15340893750000006,
          "durationTicks": 216,
          "midi": 48,
          "name": "C3",
          "ticks": 19416,
          "time": 13.7897589375,
          "velocity": 0.30708661417322836
        },
        {
          "duration": 0.15340893750000006,
          "durationTicks": 216,
          "midi": 52,
          "name": "E3",
          "ticks": 19416,
          "time": 13.7897589375,
          "velocity": 0.30708661417322836
        },
        {
          "duration": 0.15340893750000006,
          "durationTicks": 216,
          "midi": 64,
          "name": "E4",
          "ticks": 19416,
          "time": 13.7897589375,
          "velocity": 0.30708661417322836
        },
        {
          "duration": 0.15340893750000006,
          "durationTicks": 216,
          "midi": 64,
          "name": "E4",
          "ticks": 19728,
          "time": 14.011349625,
          "velocity": 0.30708661417322836
        },
        {
          "duration": 0.15340893750000006,
          "durationTicks": 216,
          "midi": 64,
          "name": "E4",
          "ticks": 19728,
          "time": 14.011349625,
          "velocity": 0.30708661417322836
        },
        {
          "duration": 0.15340893750000006,
          "durationTicks": 216,
          "midi": 64,
          "name": "E4",
          "ticks": 19752,
          "time": 14.0283950625,
          "velocity": 0.30708661417322836
        },
        {
          "duration": 0.15340893750000006,
          "durationTicks": 216,
          "midi": 64,
          "name": "E4",
          "ticks": 20064,
          "time": 14.24998575,
          "velocity": 0.30708661417322836
        },
        {
          "duration": 0.15340893750000006,
          "durationTicks": 216,
          "midi": 40,
          "name": "E2",
          "ticks": 20064,
          "time": 14.24998575,
          "velocity": 0.30708661417322836
        },
        {
          "duration": 0.15340893750000006,
          "durationTicks": 216,
          "midi": 40,
          "name": "E2",
          "ticks": 20064,
          "time": 14.24998575,
          "velocity": 0.30708661417322836
        },
        {
          "duration": 0.15340893750000006,
          "durationTicks": 216,
          "midi": 64,
          "name": "E4",
          "ticks": 20064,
          "time": 14.24998575,
          "velocity": 0.30708661417322836
        },
        {
          "duration": 0.15340893750000006,
          "durationTicks": 216,
          "midi": 64,
          "name": "E4",
          "ticks": 20088,
          "time": 14.2670311875,
          "velocity": 0.30708661417322836
        },
        {
          "duration": 0.15340893750000006,
          "durationTicks": 216,
          "midi": 40,
          "name": "E2",
          "ticks": 20088,
          "time": 14.2670311875,
          "velocity": 0.30708661417322836
        },
        {
          "duration": 0.15340893750000006,
          "durationTicks": 216,
          "midi": 64,
          "name": "E4",
          "ticks": 20400,
          "time": 14.488621875,
          "velocity": 0.30708661417322836
        },
        {
          "duration": 0.15340893750000006,
          "durationTicks": 216,
          "midi": 64,
          "name": "E4",
          "ticks": 20400,
          "time": 14.488621875,
          "velocity": 0.30708661417322836
        },
        {
          "duration": 0.15340893750000006,
          "durationTicks": 216,
          "midi": 64,
          "name": "E4",
          "ticks": 20424,
          "time": 14.5056673125,
          "velocity": 0.30708661417322836
        },
        {
          "duration": 0.15340893750000006,
          "durationTicks": 216,
          "midi": 64,
          "name": "E4",
          "ticks": 20736,
          "time": 14.727257999999999,
          "velocity": 0.30708661417322836
        },
        {
          "duration": 0.15340893750000006,
          "durationTicks": 216,
          "midi": 52,
          "name": "E3",
          "ticks": 20736,
          "time": 14.727257999999999,
          "velocity": 0.30708661417322836
        },
        {
          "duration": 0.15340893750000006,
          "durationTicks": 216,
          "midi": 52,
          "name": "E3",
          "ticks": 20736,
          "time": 14.727257999999999,
          "velocity": 0.30708661417322836
        },
        {
          "duration": 0.15340893750000006,
          "durationTicks": 216,
          "midi": 48,
          "name": "C3",
          "ticks": 20736,
          "time": 14.727257999999999,
          "velocity": 0.30708661417322836
        },
        {
          "duration": 0.15340893750000006,
          "durationTicks": 216,
          "midi": 64,
          "name": "E4",
          "ticks": 20736,
          "time": 14.727257999999999,
          "velocity": 0.30708661417322836
        },
        {
          "duration": 0.15340893750000006,
          "durationTicks": 216,
          "midi": 48,
          "name": "C3",
          "ticks": 20736,
          "time": 14.727257999999999,
          "velocity": 0.30708661417322836
        },
        {
          "duration": 0.15340893750000006,
          "durationTicks": 216,
          "midi": 52,
          "name": "E3",
          "ticks": 20760,
          "time": 14.7443034375,
          "velocity": 0.30708661417322836
        },
        {
          "duration": 0.15340893750000006,
          "durationTicks": 216,
          "midi": 48,
          "name": "C3",
          "ticks": 20760,
          "time": 14.7443034375,
          "velocity": 0.30708661417322836
        },
        {
          "duration": 0.15340893750000006,
          "durationTicks": 216,
          "midi": 64,
          "name": "E4",
          "ticks": 20760,
          "time": 14.7443034375,
          "velocity": 0.30708661417322836
        },
        {
          "duration": 0.15340893750000006,
          "durationTicks": 216,
          "midi": 64,
          "name": "E4",
          "ticks": 21072,
          "time": 14.965894125,
          "velocity": 0.30708661417322836
        },
        {
          "duration": 0.15340893750000006,
          "durationTicks": 216,
          "midi": 64,
          "name": "E4",
          "ticks": 21072,
          "time": 14.965894125,
          "velocity": 0.30708661417322836
        },
        {
          "duration": 0.15340893750000006,
          "durationTicks": 216,
          "midi": 64,
          "name": "E4",
          "ticks": 21096,
          "time": 14.9829395625,
          "velocity": 0.30708661417322836
        },
        {
          "duration": 0.15340893750000006,
          "durationTicks": 216,
          "midi": 64,
          "name": "E4",
          "ticks": 21408,
          "time": 15.20453025,
          "velocity": 0.30708661417322836
        },
        {
          "duration": 0.15340893750000006,
          "durationTicks": 216,
          "midi": 45,
          "name": "A2",
          "ticks": 21408,
          "time": 15.20453025,
          "velocity": 0.30708661417322836
        },
        {
          "duration": 0.15340893750000006,
          "durationTicks": 216,
          "midi": 45,
          "name": "A2",
          "ticks": 21408,
          "time": 15.20453025,
          "velocity": 0.30708661417322836
        },
        {
          "duration": 0.15340893750000006,
          "durationTicks": 216,
          "midi": 64,
          "name": "E4",
          "ticks": 21408,
          "time": 15.20453025,
          "velocity": 0.30708661417322836
        },
        {
          "duration": 0.15340893750000006,
          "durationTicks": 216,
          "midi": 45,
          "name": "A2",
          "ticks": 21432,
          "time": 15.2215756875,
          "velocity": 0.30708661417322836
        },
        {
          "duration": 0.15340893750000006,
          "durationTicks": 216,
          "midi": 64,
          "name": "E4",
          "ticks": 21432,
          "time": 15.2215756875,
          "velocity": 0.30708661417322836
        },
        {
          "duration": 0.15340893750000006,
          "durationTicks": 216,
          "midi": 64,
          "name": "E4",
          "ticks": 21744,
          "time": 15.443166375,
          "velocity": 0.30708661417322836
        },
        {
          "duration": 0.15340893750000006,
          "durationTicks": 216,
          "midi": 64,
          "name": "E4",
          "ticks": 21744,
          "time": 15.443166375,
          "velocity": 0.30708661417322836
        },
        {
          "duration": 0.15340893750000006,
          "durationTicks": 216,
          "midi": 64,
          "name": "E4",
          "ticks": 21768,
          "time": 15.460211812499999,
          "velocity": 0.30708661417322836
        },
        {
          "duration": 0.15340893750000006,
          "durationTicks": 216,
          "midi": 64,
          "name": "E4",
          "ticks": 22080,
          "time": 15.6818025,
          "velocity": 0.30708661417322836
        },
        {
          "duration": 0.15340893750000006,
          "durationTicks": 216,
          "midi": 64,
          "name": "E4",
          "ticks": 22080,
          "time": 15.6818025,
          "velocity": 0.30708661417322836
        },
        {
          "duration": 0.15340893750000006,
          "durationTicks": 216,
          "midi": 52,
          "name": "E3",
          "ticks": 22080,
          "time": 15.6818025,
          "velocity": 0.30708661417322836
        },
        {
          "duration": 0.15340893750000006,
          "durationTicks": 216,
          "midi": 48,
          "name": "C3",
          "ticks": 22080,
          "time": 15.6818025,
          "velocity": 0.30708661417322836
        },
        {
          "duration": 0.15340893750000006,
          "durationTicks": 216,
          "midi": 48,
          "name": "C3",
          "ticks": 22080,
          "time": 15.6818025,
          "velocity": 0.30708661417322836
        },
        {
          "duration": 0.15340893750000006,
          "durationTicks": 216,
          "midi": 52,
          "name": "E3",
          "ticks": 22080,
          "time": 15.6818025,
          "velocity": 0.30708661417322836
        },
        {
          "duration": 0.15340893750000006,
          "durationTicks": 216,
          "midi": 52,
          "name": "E3",
          "ticks": 22104,
          "time": 15.6988479375,
          "velocity": 0.30708661417322836
        },
        {
          "duration": 0.15340893750000006,
          "durationTicks": 216,
          "midi": 48,
          "name": "C3",
          "ticks": 22104,
          "time": 15.6988479375,
          "velocity": 0.30708661417322836
        },
        {
          "duration": 0.15340893750000006,
          "durationTicks": 216,
          "midi": 64,
          "name": "E4",
          "ticks": 22104,
          "time": 15.6988479375,
          "velocity": 0.30708661417322836
        },
        {
          "duration": 0.1534089374999983,
          "durationTicks": 216,
          "midi": 64,
          "name": "E4",
          "ticks": 22368,
          "time": 15.88634775,
          "velocity": 0.30708661417322836
        },
        {
          "duration": 0.1534089374999983,
          "durationTicks": 216,
          "midi": 64,
          "name": "E4",
          "ticks": 22368,
          "time": 15.88634775,
          "velocity": 0.30708661417322836
        },
        {
          "duration": 0.15340893750000184,
          "durationTicks": 216,
          "midi": 64,
          "name": "E4",
          "ticks": 22392,
          "time": 15.903393187499999,
          "velocity": 0.30708661417322836
        },
        {
          "duration": 0.15340893750000006,
          "durationTicks": 216,
          "midi": 64,
          "name": "E4",
          "ticks": 22656,
          "time": 16.090893,
          "velocity": 0.30708661417322836
        },
        {
          "duration": 0.15340893750000006,
          "durationTicks": 216,
          "midi": 64,
          "name": "E4",
          "ticks": 22656,
          "time": 16.090893,
          "velocity": 0.30708661417322836
        },
        {
          "duration": 0.15340893750000006,
          "durationTicks": 216,
          "midi": 40,
          "name": "E2",
          "ticks": 22656,
          "time": 16.090893,
          "velocity": 0.30708661417322836
        },
        {
          "duration": 0.15340893750000006,
          "durationTicks": 216,
          "midi": 40,
          "name": "E2",
          "ticks": 22656,
          "time": 16.090893,
          "velocity": 0.30708661417322836
        },
        {
          "duration": 0.15340893750000006,
          "durationTicks": 216,
          "midi": 40,
          "name": "E2",
          "ticks": 22680,
          "time": 16.1079384375,
          "velocity": 0.30708661417322836
        },
        {
          "duration": 0.15340893750000006,
          "durationTicks": 216,
          "midi": 64,
          "name": "E4",
          "ticks": 22680,
          "time": 16.1079384375,
          "velocity": 0.30708661417322836
        },
        {
          "duration": 0.15340893750000006,
          "durationTicks": 216,
          "midi": 64,
          "name": "E4",
          "ticks": 22944,
          "time": 16.29543825,
          "velocity": 0.30708661417322836
        },
        {
          "duration": 0.15340893750000006,
          "durationTicks": 216,
          "midi": 64,
          "name": "E4",
          "ticks": 22944,
          "time": 16.29543825,
          "velocity": 0.30708661417322836
        },
        {
          "duration": 0.15340893750000006,
          "durationTicks": 216,
          "midi": 64,
          "name": "E4",
          "ticks": 22968,
          "time": 16.3124836875,
          "velocity": 0.30708661417322836
        },
        {
          "duration": 0.15340893750000006,
          "durationTicks": 216,
          "midi": 64,
          "name": "E4",
          "ticks": 23232,
          "time": 16.4999835,
          "velocity": 0.30708661417322836
        },
        {
          "duration": 0.15340893750000006,
          "durationTicks": 216,
          "midi": 52,
          "name": "E3",
          "ticks": 23232,
          "time": 16.4999835,
          "velocity": 0.30708661417322836
        },
        {
          "duration": 0.15340893750000006,
          "durationTicks": 216,
          "midi": 52,
          "name": "E3",
          "ticks": 23232,
          "time": 16.4999835,
          "velocity": 0.30708661417322836
        },
        {
          "duration": 0.15340893750000006,
          "durationTicks": 216,
          "midi": 64,
          "name": "E4",
          "ticks": 23232,
          "time": 16.4999835,
          "velocity": 0.30708661417322836
        },
        {
          "duration": 0.15340893750000006,
          "durationTicks": 216,
          "midi": 48,
          "name": "C3",
          "ticks": 23232,
          "time": 16.4999835,
          "velocity": 0.30708661417322836
        },
        {
          "duration": 0.15340893750000006,
          "durationTicks": 216,
          "midi": 48,
          "name": "C3",
          "ticks": 23232,
          "time": 16.4999835,
          "velocity": 0.30708661417322836
        },
        {
          "duration": 0.15340893750000006,
          "durationTicks": 216,
          "midi": 48,
          "name": "C3",
          "ticks": 23256,
          "time": 16.5170289375,
          "velocity": 0.30708661417322836
        },
        {
          "duration": 0.15340893750000006,
          "durationTicks": 216,
          "midi": 64,
          "name": "E4",
          "ticks": 23256,
          "time": 16.5170289375,
          "velocity": 0.30708661417322836
        },
        {
          "duration": 0.15340893750000006,
          "durationTicks": 216,
          "midi": 52,
          "name": "E3",
          "ticks": 23256,
          "time": 16.5170289375,
          "velocity": 0.30708661417322836
        },
        {
          "duration": 0.15340893750000006,
          "durationTicks": 216,
          "midi": 64,
          "name": "E4",
          "ticks": 23520,
          "time": 16.70452875,
          "velocity": 0.30708661417322836
        },
        {
          "duration": 0.15340893750000006,
          "durationTicks": 216,
          "midi": 64,
          "name": "E4",
          "ticks": 23520,
          "time": 16.70452875,
          "velocity": 0.30708661417322836
        },
        {
          "duration": 0.15340893750000006,
          "durationTicks": 216,
          "midi": 64,
          "name": "E4",
          "ticks": 23544,
          "time": 16.7215741875,
          "velocity": 0.30708661417322836
        },
        {
          "duration": 0.6306811874999987,
          "durationTicks": 888,
          "midi": 45,
          "name": "A2",
          "ticks": 23808,
          "time": 16.909074,
          "velocity": 0.30708661417322836
        },
        {
          "duration": 0.15340893750000006,
          "durationTicks": 216,
          "midi": 64,
          "name": "E4",
          "ticks": 23808,
          "time": 16.909074,
          "velocity": 0.30708661417322836
        },
        {
          "duration": 0.6306811874999987,
          "durationTicks": 888,
          "midi": 45,
          "name": "A2",
          "ticks": 23808,
          "time": 16.909074,
          "velocity": 0.30708661417322836
        },
        {
          "duration": 0.15340893750000006,
          "durationTicks": 216,
          "midi": 64,
          "name": "E4",
          "ticks": 23808,
          "time": 16.909074,
          "velocity": 0.30708661417322836
        },
        {
          "duration": 0.6306811875000022,
          "durationTicks": 888,
          "midi": 45,
          "name": "A2",
          "ticks": 23832,
          "time": 16.9261194375,
          "velocity": 0.30708661417322836
        },
        {
          "duration": 0.15340893750000006,
          "durationTicks": 216,
          "midi": 64,
          "name": "E4",
          "ticks": 23832,
          "time": 16.9261194375,
          "velocity": 0.30708661417322836
        },
        {
          "duration": 0.15340893750000006,
          "durationTicks": 216,
          "midi": 64,
          "name": "E4",
          "ticks": 24096,
          "time": 17.11361925,
          "velocity": 0.30708661417322836
        },
        {
          "duration": 0.15340893750000006,
          "durationTicks": 216,
          "midi": 64,
          "name": "E4",
          "ticks": 24096,
          "time": 17.11361925,
          "velocity": 0.30708661417322836
        },
        {
          "duration": 0.15340893750000006,
          "durationTicks": 216,
          "midi": 64,
          "name": "E4",
          "ticks": 24120,
          "time": 17.1306646875,
          "velocity": 0.30708661417322836
        },
        {
          "duration": 0.15340893750000006,
          "durationTicks": 216,
          "midi": 48,
          "name": "C3",
          "ticks": 24384,
          "time": 17.318164499999998,
          "velocity": 0.30708661417322836
        },
        {
          "duration": 0.15340893750000006,
          "durationTicks": 216,
          "midi": 52,
          "name": "E3",
          "ticks": 24384,
          "time": 17.318164499999998,
          "velocity": 0.30708661417322836
        },
        {
          "duration": 0.15340893750000006,
          "durationTicks": 216,
          "midi": 64,
          "name": "E4",
          "ticks": 24384,
          "time": 17.318164499999998,
          "velocity": 0.30708661417322836
        },
        {
          "duration": 0.15340893750000006,
          "durationTicks": 216,
          "midi": 52,
          "name": "E3",
          "ticks": 24384,
          "time": 17.318164499999998,
          "velocity": 0.30708661417322836
        },
        {
          "duration": 0.15340893750000006,
          "durationTicks": 216,
          "midi": 48,
          "name": "C3",
          "ticks": 24384,
          "time": 17.318164499999998,
          "velocity": 0.30708661417322836
        },
        {
          "duration": 0.15340893750000006,
          "durationTicks": 216,
          "midi": 64,
          "name": "E4",
          "ticks": 24384,
          "time": 17.318164499999998,
          "velocity": 0.30708661417322836
        },
        {
          "duration": 0.15340893750000006,
          "durationTicks": 216,
          "midi": 52,
          "name": "E3",
          "ticks": 24408,
          "time": 17.3352099375,
          "velocity": 0.30708661417322836
        },
        {
          "duration": 0.15340893750000006,
          "durationTicks": 216,
          "midi": 48,
          "name": "C3",
          "ticks": 24408,
          "time": 17.3352099375,
          "velocity": 0.30708661417322836
        },
        {
          "duration": 0.15340893750000006,
          "durationTicks": 216,
          "midi": 64,
          "name": "E4",
          "ticks": 24408,
          "time": 17.3352099375,
          "velocity": 0.30708661417322836
        },
        {
          "duration": 0.15340893750000006,
          "durationTicks": 216,
          "midi": 64,
          "name": "E4",
          "ticks": 24672,
          "time": 17.52270975,
          "velocity": 0.30708661417322836
        },
        {
          "duration": 0.15340893750000006,
          "durationTicks": 216,
          "midi": 64,
          "name": "E4",
          "ticks": 24672,
          "time": 17.52270975,
          "velocity": 0.30708661417322836
        },
        {
          "duration": 0.15340893750000006,
          "durationTicks": 216,
          "midi": 64,
          "name": "E4",
          "ticks": 24696,
          "time": 17.5397551875,
          "velocity": 0.30708661417322836
        },
        {
          "duration": 0.15340893750000006,
          "durationTicks": 216,
          "midi": 40,
          "name": "E2",
          "ticks": 24960,
          "time": 17.727255,
          "velocity": 0.30708661417322836
        },
        {
          "duration": 0.15340893750000006,
          "durationTicks": 216,
          "midi": 40,
          "name": "E2",
          "ticks": 24960,
          "time": 17.727255,
          "velocity": 0.30708661417322836
        },
        {
          "duration": 0.15340893750000006,
          "durationTicks": 216,
          "midi": 64,
          "name": "E4",
          "ticks": 24960,
          "time": 17.727255,
          "velocity": 0.30708661417322836
        },
        {
          "duration": 0.15340893750000006,
          "durationTicks": 216,
          "midi": 64,
          "name": "E4",
          "ticks": 24960,
          "time": 17.727255,
          "velocity": 0.30708661417322836
        },
        {
          "duration": 0.15340893750000006,
          "durationTicks": 216,
          "midi": 40,
          "name": "E2",
          "ticks": 24984,
          "time": 17.7443004375,
          "velocity": 0.30708661417322836
        },
        {
          "duration": 0.15340893750000006,
          "durationTicks": 216,
          "midi": 64,
          "name": "E4",
          "ticks": 24984,
          "time": 17.7443004375,
          "velocity": 0.30708661417322836
        },
        {
          "duration": 0.15340893750000006,
          "durationTicks": 216,
          "midi": 65,
          "name": "F4",
          "ticks": 25248,
          "time": 17.93180025,
          "velocity": 0.30708661417322836
        },
        {
          "duration": 0.15340893750000006,
          "durationTicks": 216,
          "midi": 65,
          "name": "F4",
          "ticks": 25248,
          "time": 17.93180025,
          "velocity": 0.30708661417322836
        },
        {
          "duration": 0.15340893750000006,
          "durationTicks": 216,
          "midi": 65,
          "name": "F4",
          "ticks": 25272,
          "time": 17.9488456875,
          "velocity": 0.30708661417322836
        },
        {
          "duration": 0.15340893750000006,
          "durationTicks": 216,
          "midi": 52,
          "name": "E3",
          "ticks": 25536,
          "time": 18.1363455,
          "velocity": 0.30708661417322836
        },
        {
          "duration": 0.15340893750000006,
          "durationTicks": 216,
          "midi": 64,
          "name": "E4",
          "ticks": 25536,
          "time": 18.1363455,
          "velocity": 0.30708661417322836
        },
        {
          "duration": 0.15340893750000006,
          "durationTicks": 216,
          "midi": 48,
          "name": "C3",
          "ticks": 25536,
          "time": 18.1363455,
          "velocity": 0.30708661417322836
        },
        {
          "duration": 0.15340893750000006,
          "durationTicks": 216,
          "midi": 64,
          "name": "E4",
          "ticks": 25536,
          "time": 18.1363455,
          "velocity": 0.30708661417322836
        },
        {
          "duration": 0.15340893750000006,
          "durationTicks": 216,
          "midi": 48,
          "name": "C3",
          "ticks": 25536,
          "time": 18.1363455,
          "velocity": 0.30708661417322836
        },
        {
          "duration": 0.15340893750000006,
          "durationTicks": 216,
          "midi": 52,
          "name": "E3",
          "ticks": 25536,
          "time": 18.1363455,
          "velocity": 0.30708661417322836
        },
        {
          "duration": 0.15340893750000006,
          "durationTicks": 216,
          "midi": 52,
          "name": "E3",
          "ticks": 25560,
          "time": 18.1533909375,
          "velocity": 0.30708661417322836
        },
        {
          "duration": 0.15340893750000006,
          "durationTicks": 216,
          "midi": 64,
          "name": "E4",
          "ticks": 25560,
          "time": 18.1533909375,
          "velocity": 0.30708661417322836
        },
        {
          "duration": 0.15340893750000006,
          "durationTicks": 216,
          "midi": 48,
          "name": "C3",
          "ticks": 25560,
          "time": 18.1533909375,
          "velocity": 0.30708661417322836
        },
        {
          "duration": 0.15340893750000006,
          "durationTicks": 216,
          "midi": 63,
          "name": "D#4",
          "ticks": 25824,
          "time": 18.34089075,
          "velocity": 0.30708661417322836
        },
        {
          "duration": 0.15340893750000006,
          "durationTicks": 216,
          "midi": 63,
          "name": "D#4",
          "ticks": 25824,
          "time": 18.34089075,
          "velocity": 0.30708661417322836
        },
        {
          "duration": 0.15340893750000006,
          "durationTicks": 216,
          "midi": 63,
          "name": "D#4",
          "ticks": 25848,
          "time": 18.3579361875,
          "velocity": 0.30708661417322836
        },
        {
          "duration": 0.15340893750000006,
          "durationTicks": 216,
          "midi": 45,
          "name": "A2",
          "ticks": 26112,
          "time": 18.545436,
          "velocity": 0.30708661417322836
        },
        {
          "duration": 0.15340893750000006,
          "durationTicks": 216,
          "midi": 64,
          "name": "E4",
          "ticks": 26112,
          "time": 18.545436,
          "velocity": 0.30708661417322836
        },
        {
          "duration": 0.15340893750000006,
          "durationTicks": 216,
          "midi": 45,
          "name": "A2",
          "ticks": 26112,
          "time": 18.545436,
          "velocity": 0.30708661417322836
        },
        {
          "duration": 0.15340893750000006,
          "durationTicks": 216,
          "midi": 64,
          "name": "E4",
          "ticks": 26112,
          "time": 18.545436,
          "velocity": 0.30708661417322836
        },
        {
          "duration": 0.15340893750000006,
          "durationTicks": 216,
          "midi": 45,
          "name": "A2",
          "ticks": 26136,
          "time": 18.5624814375,
          "velocity": 0.30708661417322836
        },
        {
          "duration": 0.15340893750000006,
          "durationTicks": 216,
          "midi": 64,
          "name": "E4",
          "ticks": 26136,
          "time": 18.5624814375,
          "velocity": 0.30708661417322836
        },
        {
          "duration": 0.15340893750000006,
          "durationTicks": 216,
          "midi": 52,
          "name": "E3",
          "ticks": 26688,
          "time": 18.9545265,
          "velocity": 0.30708661417322836
        },
        {
          "duration": 0.15340893750000006,
          "durationTicks": 216,
          "midi": 69,
          "name": "A4",
          "ticks": 26688,
          "time": 18.9545265,
          "velocity": 0.30708661417322836
        },
        {
          "duration": 0.15340893750000006,
          "durationTicks": 216,
          "midi": 48,
          "name": "C3",
          "ticks": 26688,
          "time": 18.9545265,
          "velocity": 0.30708661417322836
        },
        {
          "duration": 0.15340893750000006,
          "durationTicks": 216,
          "midi": 48,
          "name": "C3",
          "ticks": 26688,
          "time": 18.9545265,
          "velocity": 0.30708661417322836
        },
        {
          "duration": 0.15340893750000006,
          "durationTicks": 216,
          "midi": 69,
          "name": "A4",
          "ticks": 26688,
          "time": 18.9545265,
          "velocity": 0.30708661417322836
        },
        {
          "duration": 0.15340893750000006,
          "durationTicks": 216,
          "midi": 52,
          "name": "E3",
          "ticks": 26688,
          "time": 18.9545265,
          "velocity": 0.30708661417322836
        },
        {
          "duration": 0.15340893750000006,
          "durationTicks": 216,
          "midi": 52,
          "name": "E3",
          "ticks": 26712,
          "time": 18.9715719375,
          "velocity": 0.30708661417322836
        },
        {
          "duration": 0.15340893750000006,
          "durationTicks": 216,
          "midi": 69,
          "name": "A4",
          "ticks": 26712,
          "time": 18.9715719375,
          "velocity": 0.30708661417322836
        },
        {
          "duration": 0.15340893750000006,
          "durationTicks": 216,
          "midi": 48,
          "name": "C3",
          "ticks": 26712,
          "time": 18.9715719375,
          "velocity": 0.30708661417322836
        },
        {
          "duration": 0.15340893750000006,
          "durationTicks": 216,
          "midi": 72,
          "name": "C5",
          "ticks": 27264,
          "time": 19.363617,
          "velocity": 0.30708661417322836
        },
        {
          "duration": 0.15340893750000006,
          "durationTicks": 216,
          "midi": 72,
          "name": "C5",
          "ticks": 27264,
          "time": 19.363617,
          "velocity": 0.30708661417322836
        },
        {
          "duration": 0.15340893750000006,
          "durationTicks": 216,
          "midi": 40,
          "name": "E2",
          "ticks": 27264,
          "time": 19.363617,
          "velocity": 0.30708661417322836
        },
        {
          "duration": 0.15340893750000006,
          "durationTicks": 216,
          "midi": 40,
          "name": "E2",
          "ticks": 27264,
          "time": 19.363617,
          "velocity": 0.30708661417322836
        },
        {
          "duration": 0.15340893750000006,
          "durationTicks": 216,
          "midi": 40,
          "name": "E2",
          "ticks": 27288,
          "time": 19.3806624375,
          "velocity": 0.30708661417322836
        },
        {
          "duration": 0.15340893750000006,
          "durationTicks": 216,
          "midi": 72,
          "name": "C5",
          "ticks": 27288,
          "time": 19.3806624375,
          "velocity": 0.30708661417322836
        },
        {
          "duration": 0.15340893750000006,
          "durationTicks": 216,
          "midi": 52,
          "name": "E3",
          "ticks": 27840,
          "time": 19.7727075,
          "velocity": 0.30708661417322836
        },
        {
          "duration": 0.15340893750000006,
          "durationTicks": 216,
          "midi": 48,
          "name": "C3",
          "ticks": 27840,
          "time": 19.7727075,
          "velocity": 0.30708661417322836
        },
        {
          "duration": 0.15340893750000006,
          "durationTicks": 216,
          "midi": 52,
          "name": "E3",
          "ticks": 27840,
          "time": 19.7727075,
          "velocity": 0.30708661417322836
        },
        {
          "duration": 0.15340893750000006,
          "durationTicks": 216,
          "midi": 48,
          "name": "C3",
          "ticks": 27840,
          "time": 19.7727075,
          "velocity": 0.30708661417322836
        },
        {
          "duration": 0.15340893750000006,
          "durationTicks": 216,
          "midi": 52,
          "name": "E3",
          "ticks": 27864,
          "time": 19.7897529375,
          "velocity": 0.30708661417322836
        },
        {
          "duration": 0.15340893750000006,
          "durationTicks": 216,
          "midi": 48,
          "name": "C3",
          "ticks": 27864,
          "time": 19.7897529375,
          "velocity": 0.30708661417322836
        },
        {
          "duration": 0.15340893750000006,
          "durationTicks": 216,
          "midi": 74,
          "name": "D5",
          "ticks": 28416,
          "time": 20.181798,
          "velocity": 0.30708661417322836
        },
        {
          "duration": 0.15340893750000006,
          "durationTicks": 216,
          "midi": 74,
          "name": "D5",
          "ticks": 28416,
          "time": 20.181798,
          "velocity": 0.30708661417322836
        },
        {
          "duration": 0.15340893750000006,
          "durationTicks": 216,
          "midi": 44,
          "name": "G#2",
          "ticks": 28416,
          "time": 20.181798,
          "velocity": 0.30708661417322836
        },
        {
          "duration": 0.15340893750000006,
          "durationTicks": 216,
          "midi": 44,
          "name": "G#2",
          "ticks": 28416,
          "time": 20.181798,
          "velocity": 0.30708661417322836
        },
        {
          "duration": 0.15340893750000006,
          "durationTicks": 216,
          "midi": 44,
          "name": "G#2",
          "ticks": 28440,
          "time": 20.1988434375,
          "velocity": 0.30708661417322836
        },
        {
          "duration": 0.15340893750000006,
          "durationTicks": 216,
          "midi": 74,
          "name": "D5",
          "ticks": 28440,
          "time": 20.1988434375,
          "velocity": 0.30708661417322836
        },
        {
          "duration": 0.15340893750000006,
          "durationTicks": 216,
          "midi": 74,
          "name": "D5",
          "ticks": 28656,
          "time": 20.352252375,
          "velocity": 0.30708661417322836
        },
        {
          "duration": 0.15340893750000006,
          "durationTicks": 216,
          "midi": 74,
          "name": "D5",
          "ticks": 28656,
          "time": 20.352252375,
          "velocity": 0.30708661417322836
        },
        {
          "duration": 0.15340893750000006,
          "durationTicks": 216,
          "midi": 74,
          "name": "D5",
          "ticks": 28680,
          "time": 20.3692978125,
          "velocity": 0.30708661417322836
        },
        {
          "duration": 0.15340893750000006,
          "durationTicks": 216,
          "midi": 52,
          "name": "E3",
          "ticks": 28896,
          "time": 20.52270675,
          "velocity": 0.30708661417322836
        },
        {
          "duration": 0.15340893750000006,
          "durationTicks": 216,
          "midi": 74,
          "name": "D5",
          "ticks": 28896,
          "time": 20.52270675,
          "velocity": 0.30708661417322836
        },
        {
          "duration": 0.15340893750000006,
          "durationTicks": 216,
          "midi": 52,
          "name": "E3",
          "ticks": 28896,
          "time": 20.52270675,
          "velocity": 0.30708661417322836
        },
        {
          "duration": 0.15340893750000006,
          "durationTicks": 216,
          "midi": 50,
          "name": "D3",
          "ticks": 28896,
          "time": 20.52270675,
          "velocity": 0.30708661417322836
        },
        {
          "duration": 0.15340893750000006,
          "durationTicks": 216,
          "midi": 74,
          "name": "D5",
          "ticks": 28896,
          "time": 20.52270675,
          "velocity": 0.30708661417322836
        },
        {
          "duration": 0.15340893750000006,
          "durationTicks": 216,
          "midi": 50,
          "name": "D3",
          "ticks": 28896,
          "time": 20.52270675,
          "velocity": 0.30708661417322836
        },
        {
          "duration": 0.15340893750000006,
          "durationTicks": 216,
          "midi": 74,
          "name": "D5",
          "ticks": 28920,
          "time": 20.5397521875,
          "velocity": 0.30708661417322836
        },
        {
          "duration": 0.15340893750000006,
          "durationTicks": 216,
          "midi": 52,
          "name": "E3",
          "ticks": 28920,
          "time": 20.5397521875,
          "velocity": 0.30708661417322836
        },
        {
          "duration": 0.15340893750000006,
          "durationTicks": 216,
          "midi": 50,
          "name": "D3",
          "ticks": 28920,
          "time": 20.5397521875,
          "velocity": 0.30708661417322836
        },
        {
          "duration": 0.15340893750000006,
          "durationTicks": 216,
          "midi": 74,
          "name": "D5",
          "ticks": 29136,
          "time": 20.693161125,
          "velocity": 0.30708661417322836
        },
        {
          "duration": 0.15340893750000006,
          "durationTicks": 216,
          "midi": 74,
          "name": "D5",
          "ticks": 29136,
          "time": 20.693161125,
          "velocity": 0.30708661417322836
        },
        {
          "duration": 0.15340893750000006,
          "durationTicks": 216,
          "midi": 74,
          "name": "D5",
          "ticks": 29160,
          "time": 20.710206562499998,
          "velocity": 0.30708661417322836
        },
        {
          "duration": 0.15340893750000006,
          "durationTicks": 216,
          "midi": 40,
          "name": "E2",
          "ticks": 29376,
          "time": 20.863615499999998,
          "velocity": 0.30708661417322836
        },
        {
          "duration": 0.15340893750000006,
          "durationTicks": 216,
          "midi": 74,
          "name": "D5",
          "ticks": 29376,
          "time": 20.863615499999998,
          "velocity": 0.30708661417322836
        },
        {
          "duration": 0.15340893750000006,
          "durationTicks": 216,
          "midi": 40,
          "name": "E2",
          "ticks": 29376,
          "time": 20.863615499999998,
          "velocity": 0.30708661417322836
        },
        {
          "duration": 0.15340893750000006,
          "durationTicks": 216,
          "midi": 74,
          "name": "D5",
          "ticks": 29376,
          "time": 20.863615499999998,
          "velocity": 0.30708661417322836
        },
        {
          "duration": 0.15340893750000006,
          "durationTicks": 216,
          "midi": 74,
          "name": "D5",
          "ticks": 29400,
          "time": 20.8806609375,
          "velocity": 0.30708661417322836
        },
        {
          "duration": 0.15340893750000006,
          "durationTicks": 216,
          "midi": 40,
          "name": "E2",
          "ticks": 29400,
          "time": 20.8806609375,
          "velocity": 0.30708661417322836
        },
        {
          "duration": 0.15340893750000006,
          "durationTicks": 216,
          "midi": 72,
          "name": "C5",
          "ticks": 29616,
          "time": 21.034069875,
          "velocity": 0.30708661417322836
        },
        {
          "duration": 0.15340893750000006,
          "durationTicks": 216,
          "midi": 72,
          "name": "C5",
          "ticks": 29616,
          "time": 21.034069875,
          "velocity": 0.30708661417322836
        },
        {
          "duration": 0.15340893750000006,
          "durationTicks": 216,
          "midi": 72,
          "name": "C5",
          "ticks": 29640,
          "time": 21.0511153125,
          "velocity": 0.30708661417322836
        },
        {
          "duration": 0.15340893750000006,
          "durationTicks": 216,
          "midi": 50,
          "name": "D3",
          "ticks": 29856,
          "time": 21.20452425,
          "velocity": 0.30708661417322836
        },
        {
          "duration": 0.15340893750000006,
          "durationTicks": 216,
          "midi": 71,
          "name": "B4",
          "ticks": 29856,
          "time": 21.20452425,
          "velocity": 0.30708661417322836
        },
        {
          "duration": 0.15340893750000006,
          "durationTicks": 216,
          "midi": 52,
          "name": "E3",
          "ticks": 29856,
          "time": 21.20452425,
          "velocity": 0.30708661417322836
        },
        {
          "duration": 0.15340893750000006,
          "durationTicks": 216,
          "midi": 50,
          "name": "D3",
          "ticks": 29856,
          "time": 21.20452425,
          "velocity": 0.30708661417322836
        },
        {
          "duration": 0.15340893750000006,
          "durationTicks": 216,
          "midi": 71,
          "name": "B4",
          "ticks": 29856,
          "time": 21.20452425,
          "velocity": 0.30708661417322836
        },
        {
          "duration": 0.15340893750000006,
          "durationTicks": 216,
          "midi": 52,
          "name": "E3",
          "ticks": 29856,
          "time": 21.20452425,
          "velocity": 0.30708661417322836
        },
        {
          "duration": 0.15340893750000006,
          "durationTicks": 216,
          "midi": 52,
          "name": "E3",
          "ticks": 29880,
          "time": 21.2215696875,
          "velocity": 0.30708661417322836
        },
        {
          "duration": 0.15340893750000006,
          "durationTicks": 216,
          "midi": 71,
          "name": "B4",
          "ticks": 29880,
          "time": 21.2215696875,
          "velocity": 0.30708661417322836
        },
        {
          "duration": 0.15340893750000006,
          "durationTicks": 216,
          "midi": 50,
          "name": "D3",
          "ticks": 29880,
          "time": 21.2215696875,
          "velocity": 0.30708661417322836
        },
        {
          "duration": 0.15340893750000006,
          "durationTicks": 216,
          "midi": 74,
          "name": "D5",
          "ticks": 30096,
          "time": 21.374978625,
          "velocity": 0.30708661417322836
        },
        {
          "duration": 0.15340893750000006,
          "durationTicks": 216,
          "midi": 74,
          "name": "D5",
          "ticks": 30096,
          "time": 21.374978625,
          "velocity": 0.30708661417322836
        },
        {
          "duration": 0.15340893750000006,
          "durationTicks": 216,
          "midi": 74,
          "name": "D5",
          "ticks": 30120,
          "time": 21.3920240625,
          "velocity": 0.30708661417322836
        },
        {
          "duration": 0.15340893750000006,
          "durationTicks": 216,
          "midi": 45,
          "name": "A2",
          "ticks": 30336,
          "time": 21.545433,
          "velocity": 0.30708661417322836
        },
        {
          "duration": 0.15340893750000006,
          "durationTicks": 216,
          "midi": 72,
          "name": "C5",
          "ticks": 30336,
          "time": 21.545433,
          "velocity": 0.30708661417322836
        },
        {
          "duration": 0.15340893750000006,
          "durationTicks": 216,
          "midi": 72,
          "name": "C5",
          "ticks": 30336,
          "time": 21.545433,
          "velocity": 0.30708661417322836
        },
        {
          "duration": 0.15340893750000006,
          "durationTicks": 216,
          "midi": 45,
          "name": "A2",
          "ticks": 30336,
          "time": 21.545433,
          "velocity": 0.30708661417322836
        },
        {
          "duration": 0.15340893750000006,
          "durationTicks": 216,
          "midi": 72,
          "name": "C5",
          "ticks": 30360,
          "time": 21.5624784375,
          "velocity": 0.30708661417322836
        },
        {
          "duration": 0.15340893750000006,
          "durationTicks": 216,
          "midi": 45,
          "name": "A2",
          "ticks": 30360,
          "time": 21.5624784375,
          "velocity": 0.30708661417322836
        },
        {
          "duration": 0.15340893750000006,
          "durationTicks": 216,
          "midi": 72,
          "name": "C5",
          "ticks": 30576,
          "time": 21.715887375,
          "velocity": 0.30708661417322836
        },
        {
          "duration": 0.15340893750000006,
          "durationTicks": 216,
          "midi": 72,
          "name": "C5",
          "ticks": 30576,
          "time": 21.715887375,
          "velocity": 0.30708661417322836
        },
        {
          "duration": 0.15340893750000006,
          "durationTicks": 216,
          "midi": 72,
          "name": "C5",
          "ticks": 30600,
          "time": 21.7329328125,
          "velocity": 0.30708661417322836
        },
        {
          "duration": 0.15340893750000006,
          "durationTicks": 216,
          "midi": 52,
          "name": "E3",
          "ticks": 30768,
          "time": 21.852250875,
          "velocity": 0.30708661417322836
        },
        {
          "duration": 0.15340893750000006,
          "durationTicks": 216,
          "midi": 48,
          "name": "C3",
          "ticks": 30768,
          "time": 21.852250875,
          "velocity": 0.30708661417322836
        },
        {
          "duration": 0.15340893750000006,
          "durationTicks": 216,
          "midi": 52,
          "name": "E3",
          "ticks": 30768,
          "time": 21.852250875,
          "velocity": 0.30708661417322836
        },
        {
          "duration": 0.15340893750000006,
          "durationTicks": 216,
          "midi": 72,
          "name": "C5",
          "ticks": 30768,
          "time": 21.852250875,
          "velocity": 0.30708661417322836
        },
        {
          "duration": 0.15340893750000006,
          "durationTicks": 216,
          "midi": 72,
          "name": "C5",
          "ticks": 30768,
          "time": 21.852250875,
          "velocity": 0.30708661417322836
        },
        {
          "duration": 0.15340893750000006,
          "durationTicks": 216,
          "midi": 48,
          "name": "C3",
          "ticks": 30768,
          "time": 21.852250875,
          "velocity": 0.30708661417322836
        },
        {
          "duration": 0.15340893750000006,
          "durationTicks": 216,
          "midi": 72,
          "name": "C5",
          "ticks": 30792,
          "time": 21.8692963125,
          "velocity": 0.30708661417322836
        },
        {
          "duration": 0.15340893750000006,
          "durationTicks": 216,
          "midi": 48,
          "name": "C3",
          "ticks": 30792,
          "time": 21.8692963125,
          "velocity": 0.30708661417322836
        },
        {
          "duration": 0.15340893750000006,
          "durationTicks": 216,
          "midi": 52,
          "name": "E3",
          "ticks": 30792,
          "time": 21.8692963125,
          "velocity": 0.30708661417322836
        },
        {
          "duration": 0.15340893750000006,
          "durationTicks": 216,
          "midi": 72,
          "name": "C5",
          "ticks": 31008,
          "time": 22.02270525,
          "velocity": 0.30708661417322836
        },
        {
          "duration": 0.15340893750000006,
          "durationTicks": 216,
          "midi": 72,
          "name": "C5",
          "ticks": 31008,
          "time": 22.02270525,
          "velocity": 0.30708661417322836
        },
        {
          "duration": 0.15340893750000006,
          "durationTicks": 216,
          "midi": 72,
          "name": "C5",
          "ticks": 31032,
          "time": 22.0397506875,
          "velocity": 0.30708661417322836
        },
        {
          "duration": 0.15340893750000006,
          "durationTicks": 216,
          "midi": 40,
          "name": "E2",
          "ticks": 31200,
          "time": 22.15906875,
          "velocity": 0.30708661417322836
        },
        {
          "duration": 0.15340893750000006,
          "durationTicks": 216,
          "midi": 72,
          "name": "C5",
          "ticks": 31200,
          "time": 22.15906875,
          "velocity": 0.30708661417322836
        },
        {
          "duration": 0.15340893750000006,
          "durationTicks": 216,
          "midi": 40,
          "name": "E2",
          "ticks": 31200,
          "time": 22.15906875,
          "velocity": 0.30708661417322836
        },
        {
          "duration": 0.15340893750000006,
          "durationTicks": 216,
          "midi": 72,
          "name": "C5",
          "ticks": 31200,
          "time": 22.15906875,
          "velocity": 0.30708661417322836
        },
        {
          "duration": 0.15340893750000006,
          "durationTicks": 216,
          "midi": 72,
          "name": "C5",
          "ticks": 31224,
          "time": 22.1761141875,
          "velocity": 0.30708661417322836
        },
        {
          "duration": 0.15340893750000006,
          "durationTicks": 216,
          "midi": 40,
          "name": "E2",
          "ticks": 31224,
          "time": 22.1761141875,
          "velocity": 0.30708661417322836
        },
        {
          "duration": 0.15340893750000006,
          "durationTicks": 216,
          "midi": 71,
          "name": "B4",
          "ticks": 31440,
          "time": 22.329523125,
          "velocity": 0.30708661417322836
        },
        {
          "duration": 0.15340893750000006,
          "durationTicks": 216,
          "midi": 71,
          "name": "B4",
          "ticks": 31440,
          "time": 22.329523125,
          "velocity": 0.30708661417322836
        },
        {
          "duration": 0.15340893750000006,
          "durationTicks": 216,
          "midi": 71,
          "name": "B4",
          "ticks": 31464,
          "time": 22.3465685625,
          "velocity": 0.30708661417322836
        },
        {
          "duration": 0.15340893750000006,
          "durationTicks": 216,
          "midi": 52,
          "name": "E3",
          "ticks": 31632,
          "time": 22.465886625,
          "velocity": 0.30708661417322836
        },
        {
          "duration": 0.15340893750000006,
          "durationTicks": 216,
          "midi": 69,
          "name": "A4",
          "ticks": 31632,
          "time": 22.465886625,
          "velocity": 0.30708661417322836
        },
        {
          "duration": 0.15340893750000006,
          "durationTicks": 216,
          "midi": 52,
          "name": "E3",
          "ticks": 31632,
          "time": 22.465886625,
          "velocity": 0.30708661417322836
        },
        {
          "duration": 0.15340893750000006,
          "durationTicks": 216,
          "midi": 69,
          "name": "A4",
          "ticks": 31632,
          "time": 22.465886625,
          "velocity": 0.30708661417322836
        },
        {
          "duration": 0.15340893750000006,
          "durationTicks": 216,
          "midi": 48,
          "name": "C3",
          "ticks": 31632,
          "time": 22.465886625,
          "velocity": 0.30708661417322836
        },
        {
          "duration": 0.15340893750000006,
          "durationTicks": 216,
          "midi": 48,
          "name": "C3",
          "ticks": 31632,
          "time": 22.465886625,
          "velocity": 0.30708661417322836
        },
        {
          "duration": 0.1534089374999965,
          "durationTicks": 216,
          "midi": 52,
          "name": "E3",
          "ticks": 31656,
          "time": 22.4829320625,
          "velocity": 0.30708661417322836
        },
        {
          "duration": 0.1534089374999965,
          "durationTicks": 216,
          "midi": 48,
          "name": "C3",
          "ticks": 31656,
          "time": 22.4829320625,
          "velocity": 0.30708661417322836
        },
        {
          "duration": 0.1534089374999965,
          "durationTicks": 216,
          "midi": 69,
          "name": "A4",
          "ticks": 31656,
          "time": 22.4829320625,
          "velocity": 0.30708661417322836
        },
        {
          "duration": 0.15340893750000006,
          "durationTicks": 216,
          "midi": 72,
          "name": "C5",
          "ticks": 31824,
          "time": 22.602250125,
          "velocity": 0.30708661417322836
        },
        {
          "duration": 0.15340893750000006,
          "durationTicks": 216,
          "midi": 72,
          "name": "C5",
          "ticks": 31824,
          "time": 22.602250125,
          "velocity": 0.30708661417322836
        },
        {
          "duration": 0.15340893750000006,
          "durationTicks": 216,
          "midi": 72,
          "name": "C5",
          "ticks": 31848,
          "time": 22.6192955625,
          "velocity": 0.30708661417322836
        },
        {
          "duration": 0.15340893750000006,
          "durationTicks": 216,
          "midi": 71,
          "name": "B4",
          "ticks": 32016,
          "time": 22.738613625,
          "velocity": 0.30708661417322836
        },
        {
          "duration": 0.15340893750000006,
          "durationTicks": 216,
          "midi": 47,
          "name": "B2",
          "ticks": 32016,
          "time": 22.738613625,
          "velocity": 0.30708661417322836
        },
        {
          "duration": 0.15340893750000006,
          "durationTicks": 216,
          "midi": 47,
          "name": "B2",
          "ticks": 32016,
          "time": 22.738613625,
          "velocity": 0.30708661417322836
        },
        {
          "duration": 0.15340893750000006,
          "durationTicks": 216,
          "midi": 71,
          "name": "B4",
          "ticks": 32016,
          "time": 22.738613625,
          "velocity": 0.30708661417322836
        },
        {
          "duration": 0.15340893750000006,
          "durationTicks": 216,
          "midi": 47,
          "name": "B2",
          "ticks": 32040,
          "time": 22.7556590625,
          "velocity": 0.30708661417322836
        },
        {
          "duration": 0.15340893750000006,
          "durationTicks": 216,
          "midi": 71,
          "name": "B4",
          "ticks": 32040,
          "time": 22.7556590625,
          "velocity": 0.30708661417322836
        },
        {
          "duration": 0.15340893750000006,
          "durationTicks": 216,
          "midi": 71,
          "name": "B4",
          "ticks": 32208,
          "time": 22.874977125,
          "velocity": 0.30708661417322836
        },
        {
          "duration": 0.15340893750000006,
          "durationTicks": 216,
          "midi": 71,
          "name": "B4",
          "ticks": 32208,
          "time": 22.874977125,
          "velocity": 0.30708661417322836
        },
        {
          "duration": 0.15340893750000006,
          "durationTicks": 216,
          "midi": 71,
          "name": "B4",
          "ticks": 32232,
          "time": 22.8920225625,
          "velocity": 0.30708661417322836
        },
        {
          "duration": 0.15340893750000006,
          "durationTicks": 216,
          "midi": 51,
          "name": "D#3",
          "ticks": 32400,
          "time": 23.011340625,
          "velocity": 0.30708661417322836
        },
        {
          "duration": 0.15340893750000006,
          "durationTicks": 216,
          "midi": 59,
          "name": "B3",
          "ticks": 32400,
          "time": 23.011340625,
          "velocity": 0.30708661417322836
        },
        {
          "duration": 0.15340893750000006,
          "durationTicks": 216,
          "midi": 51,
          "name": "D#3",
          "ticks": 32400,
          "time": 23.011340625,
          "velocity": 0.30708661417322836
        },
        {
          "duration": 0.15340893750000006,
          "durationTicks": 216,
          "midi": 71,
          "name": "B4",
          "ticks": 32400,
          "time": 23.011340625,
          "velocity": 0.30708661417322836
        },
        {
          "duration": 0.15340893750000006,
          "durationTicks": 216,
          "midi": 59,
          "name": "B3",
          "ticks": 32400,
          "time": 23.011340625,
          "velocity": 0.30708661417322836
        },
        {
          "duration": 0.15340893750000006,
          "durationTicks": 216,
          "midi": 71,
          "name": "B4",
          "ticks": 32400,
          "time": 23.011340625,
          "velocity": 0.30708661417322836
        },
        {
          "duration": 0.15340893750000006,
          "durationTicks": 216,
          "midi": 51,
          "name": "D#3",
          "ticks": 32424,
          "time": 23.0283860625,
          "velocity": 0.30708661417322836
        },
        {
          "duration": 0.15340893750000006,
          "durationTicks": 216,
          "midi": 71,
          "name": "B4",
          "ticks": 32424,
          "time": 23.0283860625,
          "velocity": 0.30708661417322836
        },
        {
          "duration": 0.15340893750000006,
          "durationTicks": 216,
          "midi": 59,
          "name": "B3",
          "ticks": 32424,
          "time": 23.0283860625,
          "velocity": 0.30708661417322836
        },
        {
          "duration": 0.15340893750000006,
          "durationTicks": 216,
          "midi": 71,
          "name": "B4",
          "ticks": 32592,
          "time": 23.147704125,
          "velocity": 0.30708661417322836
        },
        {
          "duration": 0.15340893750000006,
          "durationTicks": 216,
          "midi": 71,
          "name": "B4",
          "ticks": 32592,
          "time": 23.147704125,
          "velocity": 0.30708661417322836
        },
        {
          "duration": 0.15340893750000006,
          "durationTicks": 216,
          "midi": 71,
          "name": "B4",
          "ticks": 32616,
          "time": 23.1647495625,
          "velocity": 0.30708661417322836
        },
        {
          "duration": 0.15340893750000006,
          "durationTicks": 216,
          "midi": 42,
          "name": "F#2",
          "ticks": 32784,
          "time": 23.284067625,
          "velocity": 0.30708661417322836
        },
        {
          "duration": 0.15340893750000006,
          "durationTicks": 216,
          "midi": 66,
          "name": "F#4",
          "ticks": 32784,
          "time": 23.284067625,
          "velocity": 0.30708661417322836
        },
        {
          "duration": 0.15340893750000006,
          "durationTicks": 216,
          "midi": 66,
          "name": "F#4",
          "ticks": 32784,
          "time": 23.284067625,
          "velocity": 0.30708661417322836
        },
        {
          "duration": 0.15340893750000006,
          "durationTicks": 216,
          "midi": 42,
          "name": "F#2",
          "ticks": 32784,
          "time": 23.284067625,
          "velocity": 0.30708661417322836
        },
        {
          "duration": 0.15340893750000006,
          "durationTicks": 216,
          "midi": 42,
          "name": "F#2",
          "ticks": 32808,
          "time": 23.3011130625,
          "velocity": 0.30708661417322836
        },
        {
          "duration": 0.15340893750000006,
          "durationTicks": 216,
          "midi": 66,
          "name": "F#4",
          "ticks": 32808,
          "time": 23.3011130625,
          "velocity": 0.30708661417322836
        },
        {
          "duration": 0.15340893750000006,
          "durationTicks": 216,
          "midi": 59,
          "name": "B3",
          "ticks": 33168,
          "time": 23.556794625,
          "velocity": 0.30708661417322836
        },
        {
          "duration": 0.15340893750000006,
          "durationTicks": 216,
          "midi": 71,
          "name": "B4",
          "ticks": 33168,
          "time": 23.556794625,
          "velocity": 0.30708661417322836
        },
        {
          "duration": 0.15340893750000006,
          "durationTicks": 216,
          "midi": 71,
          "name": "B4",
          "ticks": 33168,
          "time": 23.556794625,
          "velocity": 0.30708661417322836
        },
        {
          "duration": 0.15340893750000006,
          "durationTicks": 216,
          "midi": 59,
          "name": "B3",
          "ticks": 33168,
          "time": 23.556794625,
          "velocity": 0.30708661417322836
        },
        {
          "duration": 0.15340893750000006,
          "durationTicks": 216,
          "midi": 51,
          "name": "D#3",
          "ticks": 33168,
          "time": 23.556794625,
          "velocity": 0.30708661417322836
        },
        {
          "duration": 0.15340893750000006,
          "durationTicks": 216,
          "midi": 51,
          "name": "D#3",
          "ticks": 33168,
          "time": 23.556794625,
          "velocity": 0.30708661417322836
        },
        {
          "duration": 0.15340893750000006,
          "durationTicks": 216,
          "midi": 59,
          "name": "B3",
          "ticks": 33192,
          "time": 23.5738400625,
          "velocity": 0.30708661417322836
        },
        {
          "duration": 0.15340893750000006,
          "durationTicks": 216,
          "midi": 71,
          "name": "B4",
          "ticks": 33192,
          "time": 23.5738400625,
          "velocity": 0.30708661417322836
        },
        {
          "duration": 0.15340893750000006,
          "durationTicks": 216,
          "midi": 51,
          "name": "D#3",
          "ticks": 33192,
          "time": 23.5738400625,
          "velocity": 0.30708661417322836
        },
        {
          "duration": 0.15340893750000006,
          "durationTicks": 216,
          "midi": 56,
          "name": "G#3",
          "ticks": 33552,
          "time": 23.829521624999998,
          "velocity": 0.30708661417322836
        },
        {
          "duration": 0.15340893750000006,
          "durationTicks": 216,
          "midi": 68,
          "name": "G#4",
          "ticks": 33552,
          "time": 23.829521624999998,
          "velocity": 0.30708661417322836
        },
        {
          "duration": 0.15340893750000006,
          "durationTicks": 216,
          "midi": 47,
          "name": "B2",
          "ticks": 33552,
          "time": 23.829521624999998,
          "velocity": 0.30708661417322836
        },
        {
          "duration": 0.15340893750000006,
          "durationTicks": 216,
          "midi": 52,
          "name": "E3",
          "ticks": 33552,
          "time": 23.829521624999998,
          "velocity": 0.30708661417322836
        },
        {
          "duration": 0.15340893750000006,
          "durationTicks": 216,
          "midi": 47,
          "name": "B2",
          "ticks": 33552,
          "time": 23.829521624999998,
          "velocity": 0.30708661417322836
        },
        {
          "duration": 0.15340893750000006,
          "durationTicks": 216,
          "midi": 56,
          "name": "G#3",
          "ticks": 33552,
          "time": 23.829521624999998,
          "velocity": 0.30708661417322836
        },
        {
          "duration": 0.15340893750000006,
          "durationTicks": 216,
          "midi": 52,
          "name": "E3",
          "ticks": 33552,
          "time": 23.829521624999998,
          "velocity": 0.30708661417322836
        },
        {
          "duration": 0.15340893750000006,
          "durationTicks": 216,
          "midi": 68,
          "name": "G#4",
          "ticks": 33552,
          "time": 23.829521624999998,
          "velocity": 0.30708661417322836
        },
        {
          "duration": 0.15340893750000006,
          "durationTicks": 216,
          "midi": 56,
          "name": "G#3",
          "ticks": 33576,
          "time": 23.8465670625,
          "velocity": 0.30708661417322836
        },
        {
          "duration": 0.15340893750000006,
          "durationTicks": 216,
          "midi": 52,
          "name": "E3",
          "ticks": 33576,
          "time": 23.8465670625,
          "velocity": 0.30708661417322836
        },
        {
          "duration": 0.15340893750000006,
          "durationTicks": 216,
          "midi": 68,
          "name": "G#4",
          "ticks": 33576,
          "time": 23.8465670625,
          "velocity": 0.30708661417322836
        },
        {
          "duration": 0.15340893750000006,
          "durationTicks": 216,
          "midi": 47,
          "name": "B2",
          "ticks": 33576,
          "time": 23.8465670625,
          "velocity": 0.30708661417322836
        },
        {
          "duration": 0.5624994374999979,
          "durationTicks": 792,
          "midi": 52,
          "name": "E3",
          "ticks": 34272,
          "time": 24.34088475,
          "velocity": 0.30708661417322836
        },
        {
          "duration": 0.5624994374999979,
          "durationTicks": 792,
          "midi": 28,
          "name": "E1",
          "ticks": 34272,
          "time": 24.34088475,
          "velocity": 0.30708661417322836
        },
        {
          "duration": 0.5624994374999979,
          "durationTicks": 792,
          "midi": 52,
          "name": "E3",
          "ticks": 34272,
          "time": 24.34088475,
          "velocity": 0.30708661417322836
        },
        {
          "duration": 0.5624994374999979,
          "durationTicks": 792,
          "midi": 40,
          "name": "E2",
          "ticks": 34272,
          "time": 24.34088475,
          "velocity": 0.30708661417322836
        },
        {
          "duration": 0.5624994374999979,
          "durationTicks": 792,
          "midi": 40,
          "name": "E2",
          "ticks": 34272,
          "time": 24.34088475,
          "velocity": 0.30708661417322836
        },
        {
          "duration": 0.5624994374999979,
          "durationTicks": 792,
          "midi": 28,
          "name": "E1",
          "ticks": 34272,
          "time": 24.34088475,
          "velocity": 0.30708661417322836
        },
        {
          "duration": 0.5624994375000014,
          "durationTicks": 792,
          "midi": 52,
          "name": "E3",
          "ticks": 34296,
          "time": 24.3579301875,
          "velocity": 0.30708661417322836
        },
        {
          "duration": 0.5624994375000014,
          "durationTicks": 792,
          "midi": 28,
          "name": "E1",
          "ticks": 34296,
          "time": 24.3579301875,
          "velocity": 0.30708661417322836
        },
        {
          "duration": 0.5624994375000014,
          "durationTicks": 792,
          "midi": 40,
          "name": "E2",
          "ticks": 34296,
          "time": 24.3579301875,
          "velocity": 0.30708661417322836
        },
        {
          "duration": 0.22159068750000088,
          "durationTicks": 312,
          "midi": 54,
          "name": "F#3",
          "ticks": 34848,
          "time": 24.74997525,
          "velocity": 0.30708661417322836
        },
        {
          "duration": 0.22159068750000088,
          "durationTicks": 312,
          "midi": 42,
          "name": "F#2",
          "ticks": 34848,
          "time": 24.74997525,
          "velocity": 0.30708661417322836
        },
        {
          "duration": 0.22159068750000088,
          "durationTicks": 312,
          "midi": 42,
          "name": "F#2",
          "ticks": 34848,
          "time": 24.74997525,
          "velocity": 0.30708661417322836
        },
        {
          "duration": 0.22159068750000088,
          "durationTicks": 312,
          "midi": 30,
          "name": "F#1",
          "ticks": 34848,
          "time": 24.74997525,
          "velocity": 0.30708661417322836
        },
        {
          "duration": 0.22159068750000088,
          "durationTicks": 312,
          "midi": 30,
          "name": "F#1",
          "ticks": 34848,
          "time": 24.74997525,
          "velocity": 0.30708661417322836
        },
        {
          "duration": 0.22159068750000088,
          "durationTicks": 312,
          "midi": 54,
          "name": "F#3",
          "ticks": 34848,
          "time": 24.74997525,
          "velocity": 0.30708661417322836
        },
        {
          "duration": 0.22159068750000088,
          "durationTicks": 312,
          "midi": 42,
          "name": "F#2",
          "ticks": 34872,
          "time": 24.7670206875,
          "velocity": 0.30708661417322836
        },
        {
          "duration": 0.22159068750000088,
          "durationTicks": 312,
          "midi": 54,
          "name": "F#3",
          "ticks": 34872,
          "time": 24.7670206875,
          "velocity": 0.30708661417322836
        },
        {
          "duration": 0.22159068750000088,
          "durationTicks": 312,
          "midi": 30,
          "name": "F#1",
          "ticks": 34872,
          "time": 24.7670206875,
          "velocity": 0.30708661417322836
        },
        {
          "duration": 0.22159068750000088,
          "durationTicks": 312,
          "midi": 32,
          "name": "G#1",
          "ticks": 34944,
          "time": 24.818157,
          "velocity": 0.30708661417322836
        },
        {
          "duration": 0.22159068750000088,
          "durationTicks": 312,
          "midi": 44,
          "name": "G#2",
          "ticks": 34944,
          "time": 24.818157,
          "velocity": 0.30708661417322836
        },
        {
          "duration": 0.22159068750000088,
          "durationTicks": 312,
          "midi": 44,
          "name": "G#2",
          "ticks": 34944,
          "time": 24.818157,
          "velocity": 0.30708661417322836
        },
        {
          "duration": 0.22159068750000088,
          "durationTicks": 312,
          "midi": 32,
          "name": "G#1",
          "ticks": 34944,
          "time": 24.818157,
          "velocity": 0.30708661417322836
        },
        {
          "duration": 0.22159068750000088,
          "durationTicks": 312,
          "midi": 56,
          "name": "G#3",
          "ticks": 34944,
          "time": 24.818157,
          "velocity": 0.30708661417322836
        },
        {
          "duration": 0.22159068750000088,
          "durationTicks": 312,
          "midi": 56,
          "name": "G#3",
          "ticks": 34944,
          "time": 24.818157,
          "velocity": 0.30708661417322836
        },
        {
          "duration": 0.22159068749999733,
          "durationTicks": 312,
          "midi": 44,
          "name": "G#2",
          "ticks": 34968,
          "time": 24.8352024375,
          "velocity": 0.30708661417322836
        },
        {
          "duration": 0.22159068749999733,
          "durationTicks": 312,
          "midi": 32,
          "name": "G#1",
          "ticks": 34968,
          "time": 24.8352024375,
          "velocity": 0.30708661417322836
        },
        {
          "duration": 0.22159068749999733,
          "durationTicks": 312,
          "midi": 56,
          "name": "G#3",
          "ticks": 34968,
          "time": 24.8352024375,
          "velocity": 0.30708661417322836
        },
        {
          "duration": 0.4261359374999998,
          "durationTicks": 600,
          "midi": 45,
          "name": "A2",
          "ticks": 35040,
          "time": 24.88633875,
          "velocity": 0.30708661417322836
        },
        {
          "duration": 0.15340893750000006,
          "durationTicks": 216,
          "midi": 64,
          "name": "E4",
          "ticks": 35040,
          "time": 24.88633875,
          "velocity": 0.30708661417322836
        },
        {
          "duration": 0.15340893750000006,
          "durationTicks": 216,
          "midi": 64,
          "name": "E4",
          "ticks": 35040,
          "time": 24.88633875,
          "velocity": 0.30708661417322836
        },
        {
          "duration": 0.4261359374999998,
          "durationTicks": 600,
          "midi": 45,
          "name": "A2",
          "ticks": 35040,
          "time": 24.88633875,
          "velocity": 0.30708661417322836
        },
        {
          "duration": 0.15340893750000006,
          "durationTicks": 216,
          "midi": 64,
          "name": "E4",
          "ticks": 35064,
          "time": 24.9033841875,
          "velocity": 0.30708661417322836
        },
        {
          "duration": 0.4261359374999998,
          "durationTicks": 600,
          "midi": 45,
          "name": "A2",
          "ticks": 35064,
          "time": 24.9033841875,
          "velocity": 0.30708661417322836
        },
        {
          "duration": 0.15340893750000006,
          "durationTicks": 216,
          "midi": 64,
          "name": "E4",
          "ticks": 35232,
          "time": 25.02270225,
          "velocity": 0.30708661417322836
        },
        {
          "duration": 0.15340893750000006,
          "durationTicks": 216,
          "midi": 64,
          "name": "E4",
          "ticks": 35232,
          "time": 25.02270225,
          "velocity": 0.30708661417322836
        },
        {
          "duration": 0.15340893750000006,
          "durationTicks": 216,
          "midi": 64,
          "name": "E4",
          "ticks": 35256,
          "time": 25.0397476875,
          "velocity": 0.30708661417322836
        },
        {
          "duration": 0.15340893750000006,
          "durationTicks": 216,
          "midi": 52,
          "name": "E3",
          "ticks": 35424,
          "time": 25.15906575,
          "velocity": 0.30708661417322836
        },
        {
          "duration": 0.15340893750000006,
          "durationTicks": 216,
          "midi": 48,
          "name": "C3",
          "ticks": 35424,
          "time": 25.15906575,
          "velocity": 0.30708661417322836
        },
        {
          "duration": 0.15340893750000006,
          "durationTicks": 216,
          "midi": 64,
          "name": "E4",
          "ticks": 35424,
          "time": 25.15906575,
          "velocity": 0.30708661417322836
        },
        {
          "duration": 0.15340893750000006,
          "durationTicks": 216,
          "midi": 48,
          "name": "C3",
          "ticks": 35424,
          "time": 25.15906575,
          "velocity": 0.30708661417322836
        },
        {
          "duration": 0.15340893750000006,
          "durationTicks": 216,
          "midi": 64,
          "name": "E4",
          "ticks": 35424,
          "time": 25.15906575,
          "velocity": 0.30708661417322836
        },
        {
          "duration": 0.15340893750000006,
          "durationTicks": 216,
          "midi": 52,
          "name": "E3",
          "ticks": 35424,
          "time": 25.15906575,
          "velocity": 0.30708661417322836
        },
        {
          "duration": 0.15340893750000006,
          "durationTicks": 216,
          "midi": 52,
          "name": "E3",
          "ticks": 35448,
          "time": 25.1761111875,
          "velocity": 0.30708661417322836
        },
        {
          "duration": 0.15340893750000006,
          "durationTicks": 216,
          "midi": 48,
          "name": "C3",
          "ticks": 35448,
          "time": 25.1761111875,
          "velocity": 0.30708661417322836
        },
        {
          "duration": 0.15340893750000006,
          "durationTicks": 216,
          "midi": 64,
          "name": "E4",
          "ticks": 35448,
          "time": 25.1761111875,
          "velocity": 0.30708661417322836
        },
        {
          "duration": 0.15340893750000006,
          "durationTicks": 216,
          "midi": 64,
          "name": "E4",
          "ticks": 35616,
          "time": 25.295429249999998,
          "velocity": 0.30708661417322836
        },
        {
          "duration": 0.15340893750000006,
          "durationTicks": 216,
          "midi": 64,
          "name": "E4",
          "ticks": 35616,
          "time": 25.295429249999998,
          "velocity": 0.30708661417322836
        },
        {
          "duration": 0.15340893750000006,
          "durationTicks": 216,
          "midi": 64,
          "name": "E4",
          "ticks": 35640,
          "time": 25.3124746875,
          "velocity": 0.30708661417322836
        },
        {
          "duration": 0.15340893750000006,
          "durationTicks": 216,
          "midi": 40,
          "name": "E2",
          "ticks": 35808,
          "time": 25.43179275,
          "velocity": 0.30708661417322836
        },
        {
          "duration": 0.15340893750000006,
          "durationTicks": 216,
          "midi": 64,
          "name": "E4",
          "ticks": 35808,
          "time": 25.43179275,
          "velocity": 0.30708661417322836
        },
        {
          "duration": 0.15340893750000006,
          "durationTicks": 216,
          "midi": 40,
          "name": "E2",
          "ticks": 35808,
          "time": 25.43179275,
          "velocity": 0.30708661417322836
        },
        {
          "duration": 0.15340893750000006,
          "durationTicks": 216,
          "midi": 64,
          "name": "E4",
          "ticks": 35808,
          "time": 25.43179275,
          "velocity": 0.30708661417322836
        },
        {
          "duration": 0.15340893750000006,
          "durationTicks": 216,
          "midi": 40,
          "name": "E2",
          "ticks": 35832,
          "time": 25.448838187499998,
          "velocity": 0.30708661417322836
        },
        {
          "duration": 0.15340893750000006,
          "durationTicks": 216,
          "midi": 64,
          "name": "E4",
          "ticks": 35832,
          "time": 25.448838187499998,
          "velocity": 0.30708661417322836
        },
        {
          "duration": 0.15340893750000006,
          "durationTicks": 216,
          "midi": 64,
          "name": "E4",
          "ticks": 36000,
          "time": 25.56815625,
          "velocity": 0.30708661417322836
        },
        {
          "duration": 0.15340893750000006,
          "durationTicks": 216,
          "midi": 64,
          "name": "E4",
          "ticks": 36000,
          "time": 25.56815625,
          "velocity": 0.30708661417322836
        },
        {
          "duration": 0.15340893750000006,
          "durationTicks": 216,
          "midi": 64,
          "name": "E4",
          "ticks": 36024,
          "time": 25.5852016875,
          "velocity": 0.30708661417322836
        },
        {
          "duration": 0.15340893750000006,
          "durationTicks": 216,
          "midi": 52,
          "name": "E3",
          "ticks": 36192,
          "time": 25.70451975,
          "velocity": 0.30708661417322836
        },
        {
          "duration": 0.15340893750000006,
          "durationTicks": 216,
          "midi": 64,
          "name": "E4",
          "ticks": 36192,
          "time": 25.70451975,
          "velocity": 0.30708661417322836
        },
        {
          "duration": 0.15340893750000006,
          "durationTicks": 216,
          "midi": 64,
          "name": "E4",
          "ticks": 36192,
          "time": 25.70451975,
          "velocity": 0.30708661417322836
        },
        {
          "duration": 0.15340893750000006,
          "durationTicks": 216,
          "midi": 48,
          "name": "C3",
          "ticks": 36192,
          "time": 25.70451975,
          "velocity": 0.30708661417322836
        },
        {
          "duration": 0.15340893750000006,
          "durationTicks": 216,
          "midi": 48,
          "name": "C3",
          "ticks": 36192,
          "time": 25.70451975,
          "velocity": 0.30708661417322836
        },
        {
          "duration": 0.15340893750000006,
          "durationTicks": 216,
          "midi": 52,
          "name": "E3",
          "ticks": 36192,
          "time": 25.70451975,
          "velocity": 0.30708661417322836
        },
        {
          "duration": 0.15340893750000006,
          "durationTicks": 216,
          "midi": 48,
          "name": "C3",
          "ticks": 36216,
          "time": 25.7215651875,
          "velocity": 0.30708661417322836
        },
        {
          "duration": 0.15340893750000006,
          "durationTicks": 216,
          "midi": 64,
          "name": "E4",
          "ticks": 36216,
          "time": 25.7215651875,
          "velocity": 0.30708661417322836
        },
        {
          "duration": 0.15340893750000006,
          "durationTicks": 216,
          "midi": 52,
          "name": "E3",
          "ticks": 36216,
          "time": 25.7215651875,
          "velocity": 0.30708661417322836
        },
        {
          "duration": 0.15340893750000006,
          "durationTicks": 216,
          "midi": 64,
          "name": "E4",
          "ticks": 36384,
          "time": 25.84088325,
          "velocity": 0.30708661417322836
        },
        {
          "duration": 0.15340893750000006,
          "durationTicks": 216,
          "midi": 64,
          "name": "E4",
          "ticks": 36384,
          "time": 25.84088325,
          "velocity": 0.30708661417322836
        },
        {
          "duration": 0.15340893750000006,
          "durationTicks": 216,
          "midi": 64,
          "name": "E4",
          "ticks": 36408,
          "time": 25.8579286875,
          "velocity": 0.30708661417322836
        },
        {
          "duration": 0.2897724375000017,
          "durationTicks": 408,
          "midi": 45,
          "name": "A2",
          "ticks": 36576,
          "time": 25.97724675,
          "velocity": 0.30708661417322836
        },
        {
          "duration": 0.2897724375000017,
          "durationTicks": 408,
          "midi": 45,
          "name": "A2",
          "ticks": 36576,
          "time": 25.97724675,
          "velocity": 0.30708661417322836
        },
        {
          "duration": 0.15340893750000006,
          "durationTicks": 216,
          "midi": 64,
          "name": "E4",
          "ticks": 36576,
          "time": 25.97724675,
          "velocity": 0.30708661417322836
        },
        {
          "duration": 0.15340893750000006,
          "durationTicks": 216,
          "midi": 64,
          "name": "E4",
          "ticks": 36576,
          "time": 25.97724675,
          "velocity": 0.30708661417322836
        },
        {
          "duration": 0.15340893750000006,
          "durationTicks": 216,
          "midi": 64,
          "name": "E4",
          "ticks": 36600,
          "time": 25.9942921875,
          "velocity": 0.30708661417322836
        },
        {
          "duration": 0.28977243749999815,
          "durationTicks": 408,
          "midi": 45,
          "name": "A2",
          "ticks": 36600,
          "time": 25.9942921875,
          "velocity": 0.30708661417322836
        },
        {
          "duration": 0.15340893750000006,
          "durationTicks": 216,
          "midi": 64,
          "name": "E4",
          "ticks": 36768,
          "time": 26.11361025,
          "velocity": 0.30708661417322836
        },
        {
          "duration": 0.15340893750000006,
          "durationTicks": 216,
          "midi": 64,
          "name": "E4",
          "ticks": 36768,
          "time": 26.11361025,
          "velocity": 0.30708661417322836
        },
        {
          "duration": 0.15340893750000006,
          "durationTicks": 216,
          "midi": 64,
          "name": "E4",
          "ticks": 36792,
          "time": 26.1306556875,
          "velocity": 0.30708661417322836
        },
        {
          "duration": 0.15340893750000006,
          "durationTicks": 216,
          "midi": 52,
          "name": "E3",
          "ticks": 36960,
          "time": 26.24997375,
          "velocity": 0.30708661417322836
        },
        {
          "duration": 0.15340893750000006,
          "durationTicks": 216,
          "midi": 64,
          "name": "E4",
          "ticks": 36960,
          "time": 26.24997375,
          "velocity": 0.30708661417322836
        },
        {
          "duration": 0.15340893750000006,
          "durationTicks": 216,
          "midi": 48,
          "name": "C3",
          "ticks": 36960,
          "time": 26.24997375,
          "velocity": 0.30708661417322836
        },
        {
          "duration": 0.15340893750000006,
          "durationTicks": 216,
          "midi": 48,
          "name": "C3",
          "ticks": 36960,
          "time": 26.24997375,
          "velocity": 0.30708661417322836
        },
        {
          "duration": 0.15340893750000006,
          "durationTicks": 216,
          "midi": 64,
          "name": "E4",
          "ticks": 36960,
          "time": 26.24997375,
          "velocity": 0.30708661417322836
        },
        {
          "duration": 0.15340893750000006,
          "durationTicks": 216,
          "midi": 52,
          "name": "E3",
          "ticks": 36960,
          "time": 26.24997375,
          "velocity": 0.30708661417322836
        },
        {
          "duration": 0.15340893750000006,
          "durationTicks": 216,
          "midi": 52,
          "name": "E3",
          "ticks": 36984,
          "time": 26.2670191875,
          "velocity": 0.30708661417322836
        },
        {
          "duration": 0.15340893750000006,
          "durationTicks": 216,
          "midi": 48,
          "name": "C3",
          "ticks": 36984,
          "time": 26.2670191875,
          "velocity": 0.30708661417322836
        },
        {
          "duration": 0.15340893750000006,
          "durationTicks": 216,
          "midi": 64,
          "name": "E4",
          "ticks": 36984,
          "time": 26.2670191875,
          "velocity": 0.30708661417322836
        },
        {
          "duration": 0.15340893750000006,
          "durationTicks": 216,
          "midi": 64,
          "name": "E4",
          "ticks": 37152,
          "time": 26.38633725,
          "velocity": 0.30708661417322836
        },
        {
          "duration": 0.15340893750000006,
          "durationTicks": 216,
          "midi": 64,
          "name": "E4",
          "ticks": 37152,
          "time": 26.38633725,
          "velocity": 0.30708661417322836
        },
        {
          "duration": 0.15340893750000006,
          "durationTicks": 216,
          "midi": 64,
          "name": "E4",
          "ticks": 37176,
          "time": 26.4033826875,
          "velocity": 0.30708661417322836
        },
        {
          "duration": 0.15340893750000006,
          "durationTicks": 216,
          "midi": 40,
          "name": "E2",
          "ticks": 37344,
          "time": 26.52270075,
          "velocity": 0.30708661417322836
        },
        {
          "duration": 0.15340893750000006,
          "durationTicks": 216,
          "midi": 64,
          "name": "E4",
          "ticks": 37344,
          "time": 26.52270075,
          "velocity": 0.30708661417322836
        },
        {
          "duration": 0.15340893750000006,
          "durationTicks": 216,
          "midi": 40,
          "name": "E2",
          "ticks": 37344,
          "time": 26.52270075,
          "velocity": 0.30708661417322836
        },
        {
          "duration": 0.15340893750000006,
          "durationTicks": 216,
          "midi": 64,
          "name": "E4",
          "ticks": 37344,
          "time": 26.52270075,
          "velocity": 0.30708661417322836
        },
        {
          "duration": 0.15340893750000006,
          "durationTicks": 216,
          "midi": 40,
          "name": "E2",
          "ticks": 37368,
          "time": 26.5397461875,
          "velocity": 0.30708661417322836
        },
        {
          "duration": 0.15340893750000006,
          "durationTicks": 216,
          "midi": 64,
          "name": "E4",
          "ticks": 37368,
          "time": 26.5397461875,
          "velocity": 0.30708661417322836
        },
        {
          "duration": 0.15340893750000006,
          "durationTicks": 216,
          "midi": 64,
          "name": "E4",
          "ticks": 37536,
          "time": 26.65906425,
          "velocity": 0.30708661417322836
        },
        {
          "duration": 0.15340893750000006,
          "durationTicks": 216,
          "midi": 64,
          "name": "E4",
          "ticks": 37536,
          "time": 26.65906425,
          "velocity": 0.30708661417322836
        },
        {
          "duration": 0.15340893750000006,
          "durationTicks": 216,
          "midi": 64,
          "name": "E4",
          "ticks": 37560,
          "time": 26.6761096875,
          "velocity": 0.30708661417322836
        },
        {
          "duration": 0.15340893750000006,
          "durationTicks": 216,
          "midi": 52,
          "name": "E3",
          "ticks": 37728,
          "time": 26.795427749999998,
          "velocity": 0.30708661417322836
        },
        {
          "duration": 0.15340893750000006,
          "durationTicks": 216,
          "midi": 64,
          "name": "E4",
          "ticks": 37728,
          "time": 26.795427749999998,
          "velocity": 0.30708661417322836
        },
        {
          "duration": 0.15340893750000006,
          "durationTicks": 216,
          "midi": 52,
          "name": "E3",
          "ticks": 37728,
          "time": 26.795427749999998,
          "velocity": 0.30708661417322836
        },
        {
          "duration": 0.15340893750000006,
          "durationTicks": 216,
          "midi": 48,
          "name": "C3",
          "ticks": 37728,
          "time": 26.795427749999998,
          "velocity": 0.30708661417322836
        },
        {
          "duration": 0.15340893750000006,
          "durationTicks": 216,
          "midi": 64,
          "name": "E4",
          "ticks": 37728,
          "time": 26.795427749999998,
          "velocity": 0.30708661417322836
        },
        {
          "duration": 0.15340893750000006,
          "durationTicks": 216,
          "midi": 48,
          "name": "C3",
          "ticks": 37728,
          "time": 26.795427749999998,
          "velocity": 0.30708661417322836
        },
        {
          "duration": 0.15340893750000006,
          "durationTicks": 216,
          "midi": 64,
          "name": "E4",
          "ticks": 37752,
          "time": 26.8124731875,
          "velocity": 0.30708661417322836
        },
        {
          "duration": 0.15340893750000006,
          "durationTicks": 216,
          "midi": 48,
          "name": "C3",
          "ticks": 37752,
          "time": 26.8124731875,
          "velocity": 0.30708661417322836
        },
        {
          "duration": 0.15340893750000006,
          "durationTicks": 216,
          "midi": 52,
          "name": "E3",
          "ticks": 37752,
          "time": 26.8124731875,
          "velocity": 0.30708661417322836
        },
        {
          "duration": 0.15340893750000006,
          "durationTicks": 216,
          "midi": 64,
          "name": "E4",
          "ticks": 37920,
          "time": 26.93179125,
          "velocity": 0.30708661417322836
        },
        {
          "duration": 0.15340893750000006,
          "durationTicks": 216,
          "midi": 64,
          "name": "E4",
          "ticks": 37920,
          "time": 26.93179125,
          "velocity": 0.30708661417322836
        },
        {
          "duration": 0.15340893750000006,
          "durationTicks": 216,
          "midi": 64,
          "name": "E4",
          "ticks": 37944,
          "time": 26.9488366875,
          "velocity": 0.30708661417322836
        },
        {
          "duration": 0.28977243749999815,
          "durationTicks": 408,
          "midi": 45,
          "name": "A2",
          "ticks": 38064,
          "time": 27.034063875,
          "velocity": 0.30708661417322836
        },
        {
          "duration": 0.28977243749999815,
          "durationTicks": 408,
          "midi": 45,
          "name": "A2",
          "ticks": 38064,
          "time": 27.034063875,
          "velocity": 0.30708661417322836
        },
        {
          "duration": 0.15340893750000006,
          "durationTicks": 216,
          "midi": 64,
          "name": "E4",
          "ticks": 38064,
          "time": 27.034063875,
          "velocity": 0.30708661417322836
        },
        {
          "duration": 0.15340893750000006,
          "durationTicks": 216,
          "midi": 64,
          "name": "E4",
          "ticks": 38064,
          "time": 27.034063875,
          "velocity": 0.30708661417322836
        },
        {
          "duration": 0.2897724375000017,
          "durationTicks": 408,
          "midi": 45,
          "name": "A2",
          "ticks": 38088,
          "time": 27.0511093125,
          "velocity": 0.30708661417322836
        },
        {
          "duration": 0.15340893750000006,
          "durationTicks": 216,
          "midi": 64,
          "name": "E4",
          "ticks": 38088,
          "time": 27.0511093125,
          "velocity": 0.30708661417322836
        },
        {
          "duration": 0.15340893750000006,
          "durationTicks": 216,
          "midi": 65,
          "name": "F4",
          "ticks": 38256,
          "time": 27.170427375,
          "velocity": 0.30708661417322836
        },
        {
          "duration": 0.15340893750000006,
          "durationTicks": 216,
          "midi": 65,
          "name": "F4",
          "ticks": 38256,
          "time": 27.170427375,
          "velocity": 0.30708661417322836
        },
        {
          "duration": 0.15340893750000006,
          "durationTicks": 216,
          "midi": 65,
          "name": "F4",
          "ticks": 38280,
          "time": 27.1874728125,
          "velocity": 0.30708661417322836
        },
        {
          "duration": 0.15340893750000006,
          "durationTicks": 216,
          "midi": 48,
          "name": "C3",
          "ticks": 38448,
          "time": 27.306790875,
          "velocity": 0.30708661417322836
        },
        {
          "duration": 0.15340893750000006,
          "durationTicks": 216,
          "midi": 48,
          "name": "C3",
          "ticks": 38448,
          "time": 27.306790875,
          "velocity": 0.30708661417322836
        },
        {
          "duration": 0.15340893750000006,
          "durationTicks": 216,
          "midi": 64,
          "name": "E4",
          "ticks": 38448,
          "time": 27.306790875,
          "velocity": 0.30708661417322836
        },
        {
          "duration": 0.15340893750000006,
          "durationTicks": 216,
          "midi": 64,
          "name": "E4",
          "ticks": 38448,
          "time": 27.306790875,
          "velocity": 0.30708661417322836
        },
        {
          "duration": 0.15340893750000006,
          "durationTicks": 216,
          "midi": 52,
          "name": "E3",
          "ticks": 38448,
          "time": 27.306790875,
          "velocity": 0.30708661417322836
        },
        {
          "duration": 0.15340893750000006,
          "durationTicks": 216,
          "midi": 52,
          "name": "E3",
          "ticks": 38448,
          "time": 27.306790875,
          "velocity": 0.30708661417322836
        },
        {
          "duration": 0.15340893750000006,
          "durationTicks": 216,
          "midi": 52,
          "name": "E3",
          "ticks": 38472,
          "time": 27.3238363125,
          "velocity": 0.30708661417322836
        },
        {
          "duration": 0.15340893750000006,
          "durationTicks": 216,
          "midi": 48,
          "name": "C3",
          "ticks": 38472,
          "time": 27.3238363125,
          "velocity": 0.30708661417322836
        },
        {
          "duration": 0.15340893750000006,
          "durationTicks": 216,
          "midi": 64,
          "name": "E4",
          "ticks": 38472,
          "time": 27.3238363125,
          "velocity": 0.30708661417322836
        },
        {
          "duration": 0.15340893750000006,
          "durationTicks": 216,
          "midi": 63,
          "name": "D#4",
          "ticks": 38592,
          "time": 27.4090635,
          "velocity": 0.30708661417322836
        },
        {
          "duration": 0.15340893750000006,
          "durationTicks": 216,
          "midi": 63,
          "name": "D#4",
          "ticks": 38592,
          "time": 27.4090635,
          "velocity": 0.30708661417322836
        },
        {
          "duration": 0.15340893750000006,
          "durationTicks": 216,
          "midi": 63,
          "name": "D#4",
          "ticks": 38616,
          "time": 27.4261089375,
          "velocity": 0.30708661417322836
        },
        {
          "duration": 0.15340893750000006,
          "durationTicks": 216,
          "midi": 40,
          "name": "E2",
          "ticks": 38784,
          "time": 27.545427,
          "velocity": 0.30708661417322836
        },
        {
          "duration": 0.28977243749999815,
          "durationTicks": 408,
          "midi": 64,
          "name": "E4",
          "ticks": 38784,
          "time": 27.545427,
          "velocity": 0.30708661417322836
        },
        {
          "duration": 0.28977243749999815,
          "durationTicks": 408,
          "midi": 64,
          "name": "E4",
          "ticks": 38784,
          "time": 27.545427,
          "velocity": 0.30708661417322836
        },
        {
          "duration": 0.15340893750000006,
          "durationTicks": 216,
          "midi": 40,
          "name": "E2",
          "ticks": 38784,
          "time": 27.545427,
          "velocity": 0.30708661417322836
        },
        {
          "duration": 0.2897724375000017,
          "durationTicks": 408,
          "midi": 64,
          "name": "E4",
          "ticks": 38808,
          "time": 27.5624724375,
          "velocity": 0.30708661417322836
        },
        {
          "duration": 0.15340893750000006,
          "durationTicks": 216,
          "midi": 40,
          "name": "E2",
          "ticks": 38808,
          "time": 27.5624724375,
          "velocity": 0.30708661417322836
        },
        {
          "duration": 0.15340893750000006,
          "durationTicks": 216,
          "midi": 52,
          "name": "E3",
          "ticks": 39120,
          "time": 27.784063125,
          "velocity": 0.30708661417322836
        },
        {
          "duration": 0.15340893750000006,
          "durationTicks": 216,
          "midi": 48,
          "name": "C3",
          "ticks": 39120,
          "time": 27.784063125,
          "velocity": 0.30708661417322836
        },
        {
          "duration": 0.15340893750000006,
          "durationTicks": 216,
          "midi": 69,
          "name": "A4",
          "ticks": 39120,
          "time": 27.784063125,
          "velocity": 0.30708661417322836
        },
        {
          "duration": 0.15340893750000006,
          "durationTicks": 216,
          "midi": 69,
          "name": "A4",
          "ticks": 39120,
          "time": 27.784063125,
          "velocity": 0.30708661417322836
        },
        {
          "duration": 0.15340893750000006,
          "durationTicks": 216,
          "midi": 48,
          "name": "C3",
          "ticks": 39120,
          "time": 27.784063125,
          "velocity": 0.30708661417322836
        },
        {
          "duration": 0.15340893750000006,
          "durationTicks": 216,
          "midi": 52,
          "name": "E3",
          "ticks": 39120,
          "time": 27.784063125,
          "velocity": 0.30708661417322836
        },
        {
          "duration": 0.15340893750000006,
          "durationTicks": 216,
          "midi": 69,
          "name": "A4",
          "ticks": 39144,
          "time": 27.8011085625,
          "velocity": 0.30708661417322836
        },
        {
          "duration": 0.15340893750000006,
          "durationTicks": 216,
          "midi": 48,
          "name": "C3",
          "ticks": 39144,
          "time": 27.8011085625,
          "velocity": 0.30708661417322836
        },
        {
          "duration": 0.15340893750000006,
          "durationTicks": 216,
          "midi": 52,
          "name": "E3",
          "ticks": 39144,
          "time": 27.8011085625,
          "velocity": 0.30708661417322836
        },
        {
          "duration": 0.15340893750000006,
          "durationTicks": 216,
          "midi": 72,
          "name": "C5",
          "ticks": 39312,
          "time": 27.920426625,
          "velocity": 0.30708661417322836
        },
        {
          "duration": 0.15340893750000006,
          "durationTicks": 216,
          "midi": 72,
          "name": "C5",
          "ticks": 39312,
          "time": 27.920426625,
          "velocity": 0.30708661417322836
        },
        {
          "duration": 0.15340893750000006,
          "durationTicks": 216,
          "midi": 72,
          "name": "C5",
          "ticks": 39336,
          "time": 27.9374720625,
          "velocity": 0.30708661417322836
        },
        {
          "duration": 0.15340893750000006,
          "durationTicks": 216,
          "midi": 76,
          "name": "E5",
          "ticks": 39456,
          "time": 28.02269925,
          "velocity": 0.30708661417322836
        },
        {
          "duration": 0.15340893750000006,
          "durationTicks": 216,
          "midi": 76,
          "name": "E5",
          "ticks": 39456,
          "time": 28.02269925,
          "velocity": 0.30708661417322836
        },
        {
          "duration": 0.2897724375000017,
          "durationTicks": 408,
          "midi": 45,
          "name": "A2",
          "ticks": 39456,
          "time": 28.02269925,
          "velocity": 0.30708661417322836
        },
        {
          "duration": 0.2897724375000017,
          "durationTicks": 408,
          "midi": 45,
          "name": "A2",
          "ticks": 39456,
          "time": 28.02269925,
          "velocity": 0.30708661417322836
        },
        {
          "duration": 0.28977243749999815,
          "durationTicks": 408,
          "midi": 45,
          "name": "A2",
          "ticks": 39480,
          "time": 28.0397446875,
          "velocity": 0.30708661417322836
        },
        {
          "duration": 0.15340893750000006,
          "durationTicks": 216,
          "midi": 76,
          "name": "E5",
          "ticks": 39480,
          "time": 28.0397446875,
          "velocity": 0.30708661417322836
        },
        {
          "duration": 0.15340893750000006,
          "durationTicks": 216,
          "midi": 81,
          "name": "A5",
          "ticks": 39792,
          "time": 28.261335374999998,
          "velocity": 0.30708661417322836
        },
        {
          "duration": 0.15340893750000006,
          "durationTicks": 216,
          "midi": 48,
          "name": "C3",
          "ticks": 39792,
          "time": 28.261335374999998,
          "velocity": 0.30708661417322836
        },
        {
          "duration": 0.15340893750000006,
          "durationTicks": 216,
          "midi": 52,
          "name": "E3",
          "ticks": 39792,
          "time": 28.261335374999998,
          "velocity": 0.30708661417322836
        },
        {
          "duration": 0.15340893750000006,
          "durationTicks": 216,
          "midi": 48,
          "name": "C3",
          "ticks": 39792,
          "time": 28.261335374999998,
          "velocity": 0.30708661417322836
        },
        {
          "duration": 0.15340893750000006,
          "durationTicks": 216,
          "midi": 52,
          "name": "E3",
          "ticks": 39792,
          "time": 28.261335374999998,
          "velocity": 0.30708661417322836
        },
        {
          "duration": 0.15340893750000006,
          "durationTicks": 216,
          "midi": 81,
          "name": "A5",
          "ticks": 39792,
          "time": 28.261335374999998,
          "velocity": 0.30708661417322836
        },
        {
          "duration": 0.15340893750000006,
          "durationTicks": 216,
          "midi": 52,
          "name": "E3",
          "ticks": 39816,
          "time": 28.2783808125,
          "velocity": 0.30708661417322836
        },
        {
          "duration": 0.15340893750000006,
          "durationTicks": 216,
          "midi": 81,
          "name": "A5",
          "ticks": 39816,
          "time": 28.2783808125,
          "velocity": 0.30708661417322836
        },
        {
          "duration": 0.15340893750000006,
          "durationTicks": 216,
          "midi": 48,
          "name": "C3",
          "ticks": 39816,
          "time": 28.2783808125,
          "velocity": 0.30708661417322836
        },
        {
          "duration": 0.15340893750000006,
          "durationTicks": 216,
          "midi": 40,
          "name": "E2",
          "ticks": 40128,
          "time": 28.4999715,
          "velocity": 0.30708661417322836
        },
        {
          "duration": 0.15340893750000006,
          "durationTicks": 216,
          "midi": 84,
          "name": "C6",
          "ticks": 40128,
          "time": 28.4999715,
          "velocity": 0.30708661417322836
        },
        {
          "duration": 0.15340893750000006,
          "durationTicks": 216,
          "midi": 40,
          "name": "E2",
          "ticks": 40128,
          "time": 28.4999715,
          "velocity": 0.30708661417322836
        },
        {
          "duration": 0.15340893750000006,
          "durationTicks": 216,
          "midi": 84,
          "name": "C6",
          "ticks": 40128,
          "time": 28.4999715,
          "velocity": 0.30708661417322836
        },
        {
          "duration": 0.15340893750000006,
          "durationTicks": 216,
          "midi": 40,
          "name": "E2",
          "ticks": 40152,
          "time": 28.5170169375,
          "velocity": 0.30708661417322836
        },
        {
          "duration": 0.15340893750000006,
          "durationTicks": 216,
          "midi": 84,
          "name": "C6",
          "ticks": 40152,
          "time": 28.5170169375,
          "velocity": 0.30708661417322836
        },
        {
          "duration": 0.15340893750000006,
          "durationTicks": 216,
          "midi": 48,
          "name": "C3",
          "ticks": 40464,
          "time": 28.738607625,
          "velocity": 0.30708661417322836
        },
        {
          "duration": 0.15340893750000006,
          "durationTicks": 216,
          "midi": 52,
          "name": "E3",
          "ticks": 40464,
          "time": 28.738607625,
          "velocity": 0.30708661417322836
        },
        {
          "duration": 0.15340893750000006,
          "durationTicks": 216,
          "midi": 48,
          "name": "C3",
          "ticks": 40464,
          "time": 28.738607625,
          "velocity": 0.30708661417322836
        },
        {
          "duration": 0.15340893750000006,
          "durationTicks": 216,
          "midi": 52,
          "name": "E3",
          "ticks": 40464,
          "time": 28.738607625,
          "velocity": 0.30708661417322836
        },
        {
          "duration": 0.15340893750000006,
          "durationTicks": 216,
          "midi": 48,
          "name": "C3",
          "ticks": 40488,
          "time": 28.7556530625,
          "velocity": 0.30708661417322836
        },
        {
          "duration": 0.15340893750000006,
          "durationTicks": 216,
          "midi": 52,
          "name": "E3",
          "ticks": 40488,
          "time": 28.7556530625,
          "velocity": 0.30708661417322836
        },
        {
          "duration": 0.15340893750000006,
          "durationTicks": 216,
          "midi": 86,
          "name": "D6",
          "ticks": 40800,
          "time": 28.97724375,
          "velocity": 0.30708661417322836
        },
        {
          "duration": 0.22159068750000088,
          "durationTicks": 312,
          "midi": 50,
          "name": "D3",
          "ticks": 40800,
          "time": 28.97724375,
          "velocity": 0.30708661417322836
        },
        {
          "duration": 0.22159068750000088,
          "durationTicks": 312,
          "midi": 50,
          "name": "D3",
          "ticks": 40800,
          "time": 28.97724375,
          "velocity": 0.30708661417322836
        },
        {
          "duration": 0.15340893750000006,
          "durationTicks": 216,
          "midi": 86,
          "name": "D6",
          "ticks": 40800,
          "time": 28.97724375,
          "velocity": 0.30708661417322836
        },
        {
          "duration": 0.15340893750000006,
          "durationTicks": 216,
          "midi": 86,
          "name": "D6",
          "ticks": 40824,
          "time": 28.994289187499998,
          "velocity": 0.30708661417322836
        },
        {
          "duration": 0.22159068750000088,
          "durationTicks": 312,
          "midi": 50,
          "name": "D3",
          "ticks": 40824,
          "time": 28.994289187499998,
          "velocity": 0.30708661417322836
        },
        {
          "duration": 0.15340893750000006,
          "durationTicks": 216,
          "midi": 84,
          "name": "C6",
          "ticks": 40944,
          "time": 29.079516375,
          "velocity": 0.30708661417322836
        },
        {
          "duration": 0.15340893750000006,
          "durationTicks": 216,
          "midi": 84,
          "name": "C6",
          "ticks": 40944,
          "time": 29.079516375,
          "velocity": 0.30708661417322836
        },
        {
          "duration": 0.15340893750000006,
          "durationTicks": 216,
          "midi": 84,
          "name": "C6",
          "ticks": 40968,
          "time": 29.0965618125,
          "velocity": 0.30708661417322836
        },
        {
          "duration": 0.15340893750000006,
          "durationTicks": 216,
          "midi": 53,
          "name": "F3",
          "ticks": 41136,
          "time": 29.215879875,
          "velocity": 0.30708661417322836
        },
        {
          "duration": 0.15340893750000006,
          "durationTicks": 216,
          "midi": 83,
          "name": "B5",
          "ticks": 41136,
          "time": 29.215879875,
          "velocity": 0.30708661417322836
        },
        {
          "duration": 0.15340893750000006,
          "durationTicks": 216,
          "midi": 83,
          "name": "B5",
          "ticks": 41136,
          "time": 29.215879875,
          "velocity": 0.30708661417322836
        },
        {
          "duration": 0.15340893750000006,
          "durationTicks": 216,
          "midi": 59,
          "name": "B3",
          "ticks": 41136,
          "time": 29.215879875,
          "velocity": 0.30708661417322836
        },
        {
          "duration": 0.15340893750000006,
          "durationTicks": 216,
          "midi": 59,
          "name": "B3",
          "ticks": 41136,
          "time": 29.215879875,
          "velocity": 0.30708661417322836
        },
        {
          "duration": 0.15340893750000006,
          "durationTicks": 216,
          "midi": 53,
          "name": "F3",
          "ticks": 41136,
          "time": 29.215879875,
          "velocity": 0.30708661417322836
        },
        {
          "duration": 0.15340893750000006,
          "durationTicks": 216,
          "midi": 59,
          "name": "B3",
          "ticks": 41160,
          "time": 29.2329253125,
          "velocity": 0.30708661417322836
        },
        {
          "duration": 0.15340893750000006,
          "durationTicks": 216,
          "midi": 83,
          "name": "B5",
          "ticks": 41160,
          "time": 29.2329253125,
          "velocity": 0.30708661417322836
        },
        {
          "duration": 0.15340893750000006,
          "durationTicks": 216,
          "midi": 53,
          "name": "F3",
          "ticks": 41160,
          "time": 29.2329253125,
          "velocity": 0.30708661417322836
        },
        {
          "duration": 0.15340893750000006,
          "durationTicks": 216,
          "midi": 86,
          "name": "D6",
          "ticks": 41280,
          "time": 29.3181525,
          "velocity": 0.30708661417322836
        },
        {
          "duration": 0.15340893750000006,
          "durationTicks": 216,
          "midi": 86,
          "name": "D6",
          "ticks": 41280,
          "time": 29.3181525,
          "velocity": 0.30708661417322836
        },
        {
          "duration": 0.15340893750000006,
          "durationTicks": 216,
          "midi": 86,
          "name": "D6",
          "ticks": 41304,
          "time": 29.3351979375,
          "velocity": 0.30708661417322836
        },
        {
          "duration": 0.15340893750000006,
          "durationTicks": 216,
          "midi": 84,
          "name": "C6",
          "ticks": 41424,
          "time": 29.420425125,
          "velocity": 0.30708661417322836
        },
        {
          "duration": 0.22159068749999733,
          "durationTicks": 312,
          "midi": 48,
          "name": "C3",
          "ticks": 41424,
          "time": 29.420425125,
          "velocity": 0.30708661417322836
        },
        {
          "duration": 0.15340893750000006,
          "durationTicks": 216,
          "midi": 84,
          "name": "C6",
          "ticks": 41424,
          "time": 29.420425125,
          "velocity": 0.30708661417322836
        },
        {
          "duration": 0.22159068749999733,
          "durationTicks": 312,
          "midi": 48,
          "name": "C3",
          "ticks": 41424,
          "time": 29.420425125,
          "velocity": 0.30708661417322836
        },
        {
          "duration": 0.15340893750000006,
          "durationTicks": 216,
          "midi": 84,
          "name": "C6",
          "ticks": 41448,
          "time": 29.4374705625,
          "velocity": 0.30708661417322836
        },
        {
          "duration": 0.22159068750000088,
          "durationTicks": 312,
          "midi": 48,
          "name": "C3",
          "ticks": 41448,
          "time": 29.4374705625,
          "velocity": 0.30708661417322836
        },
        {
          "duration": 0.15340893750000006,
          "durationTicks": 216,
          "midi": 83,
          "name": "B5",
          "ticks": 41568,
          "time": 29.52269775,
          "velocity": 0.30708661417322836
        },
        {
          "duration": 0.15340893750000006,
          "durationTicks": 216,
          "midi": 83,
          "name": "B5",
          "ticks": 41568,
          "time": 29.52269775,
          "velocity": 0.30708661417322836
        },
        {
          "duration": 0.15340893750000006,
          "durationTicks": 216,
          "midi": 83,
          "name": "B5",
          "ticks": 41592,
          "time": 29.5397431875,
          "velocity": 0.30708661417322836
        },
        {
          "duration": 0.15340893750000006,
          "durationTicks": 216,
          "midi": 81,
          "name": "A5",
          "ticks": 41712,
          "time": 29.624970375,
          "velocity": 0.30708661417322836
        },
        {
          "duration": 0.15340893750000006,
          "durationTicks": 216,
          "midi": 60,
          "name": "C4",
          "ticks": 41712,
          "time": 29.624970375,
          "velocity": 0.30708661417322836
        },
        {
          "duration": 0.15340893750000006,
          "durationTicks": 216,
          "midi": 52,
          "name": "E3",
          "ticks": 41712,
          "time": 29.624970375,
          "velocity": 0.30708661417322836
        },
        {
          "duration": 0.15340893750000006,
          "durationTicks": 216,
          "midi": 60,
          "name": "C4",
          "ticks": 41712,
          "time": 29.624970375,
          "velocity": 0.30708661417322836
        },
        {
          "duration": 0.15340893750000006,
          "durationTicks": 216,
          "midi": 81,
          "name": "A5",
          "ticks": 41712,
          "time": 29.624970375,
          "velocity": 0.30708661417322836
        },
        {
          "duration": 0.15340893750000006,
          "durationTicks": 216,
          "midi": 52,
          "name": "E3",
          "ticks": 41712,
          "time": 29.624970375,
          "velocity": 0.30708661417322836
        },
        {
          "duration": 0.15340893750000006,
          "durationTicks": 216,
          "midi": 60,
          "name": "C4",
          "ticks": 41736,
          "time": 29.6420158125,
          "velocity": 0.30708661417322836
        },
        {
          "duration": 0.15340893750000006,
          "durationTicks": 216,
          "midi": 52,
          "name": "E3",
          "ticks": 41736,
          "time": 29.6420158125,
          "velocity": 0.30708661417322836
        },
        {
          "duration": 0.15340893750000006,
          "durationTicks": 216,
          "midi": 81,
          "name": "A5",
          "ticks": 41736,
          "time": 29.6420158125,
          "velocity": 0.30708661417322836
        },
        {
          "duration": 0.1534089374999965,
          "durationTicks": 216,
          "midi": 84,
          "name": "C6",
          "ticks": 41856,
          "time": 29.727243,
          "velocity": 0.30708661417322836
        },
        {
          "duration": 0.1534089374999965,
          "durationTicks": 216,
          "midi": 84,
          "name": "C6",
          "ticks": 41856,
          "time": 29.727243,
          "velocity": 0.30708661417322836
        },
        {
          "duration": 0.15340893750000006,
          "durationTicks": 216,
          "midi": 84,
          "name": "C6",
          "ticks": 41880,
          "time": 29.7442884375,
          "velocity": 0.30708661417322836
        },
        {
          "duration": 0.22159068750000088,
          "durationTicks": 312,
          "midi": 47,
          "name": "B2",
          "ticks": 42000,
          "time": 29.829515625,
          "velocity": 0.30708661417322836
        },
        {
          "duration": 0.15340893750000006,
          "durationTicks": 216,
          "midi": 83,
          "name": "B5",
          "ticks": 42000,
          "time": 29.829515625,
          "velocity": 0.30708661417322836
        },
        {
          "duration": 0.15340893750000006,
          "durationTicks": 216,
          "midi": 83,
          "name": "B5",
          "ticks": 42000,
          "time": 29.829515625,
          "velocity": 0.30708661417322836
        },
        {
          "duration": 0.22159068750000088,
          "durationTicks": 312,
          "midi": 47,
          "name": "B2",
          "ticks": 42000,
          "time": 29.829515625,
          "velocity": 0.30708661417322836
        },
        {
          "duration": 0.15340893750000006,
          "durationTicks": 216,
          "midi": 83,
          "name": "B5",
          "ticks": 42024,
          "time": 29.8465610625,
          "velocity": 0.30708661417322836
        },
        {
          "duration": 0.22159068749999733,
          "durationTicks": 312,
          "midi": 47,
          "name": "B2",
          "ticks": 42024,
          "time": 29.8465610625,
          "velocity": 0.30708661417322836
        },
        {
          "duration": 0.15340893750000006,
          "durationTicks": 216,
          "midi": 81,
          "name": "A5",
          "ticks": 42144,
          "time": 29.93178825,
          "velocity": 0.30708661417322836
        },
        {
          "duration": 0.15340893750000006,
          "durationTicks": 216,
          "midi": 81,
          "name": "A5",
          "ticks": 42144,
          "time": 29.93178825,
          "velocity": 0.30708661417322836
        },
        {
          "duration": 0.15340893750000006,
          "durationTicks": 216,
          "midi": 81,
          "name": "A5",
          "ticks": 42168,
          "time": 29.9488336875,
          "velocity": 0.30708661417322836
        },
        {
          "duration": 0.15340893750000006,
          "durationTicks": 216,
          "midi": 50,
          "name": "D3",
          "ticks": 42288,
          "time": 30.034060874999998,
          "velocity": 0.30708661417322836
        },
        {
          "duration": 0.15340893750000006,
          "durationTicks": 216,
          "midi": 50,
          "name": "D3",
          "ticks": 42288,
          "time": 30.034060874999998,
          "velocity": 0.30708661417322836
        },
        {
          "duration": 0.15340893750000006,
          "durationTicks": 216,
          "midi": 80,
          "name": "G#5",
          "ticks": 42288,
          "time": 30.034060874999998,
          "velocity": 0.30708661417322836
        },
        {
          "duration": 0.15340893750000006,
          "durationTicks": 216,
          "midi": 80,
          "name": "G#5",
          "ticks": 42288,
          "time": 30.034060874999998,
          "velocity": 0.30708661417322836
        },
        {
          "duration": 0.15340893750000006,
          "durationTicks": 216,
          "midi": 56,
          "name": "G#3",
          "ticks": 42288,
          "time": 30.034060874999998,
          "velocity": 0.30708661417322836
        },
        {
          "duration": 0.15340893750000006,
          "durationTicks": 216,
          "midi": 56,
          "name": "G#3",
          "ticks": 42288,
          "time": 30.034060874999998,
          "velocity": 0.30708661417322836
        },
        {
          "duration": 0.15340893750000006,
          "durationTicks": 216,
          "midi": 50,
          "name": "D3",
          "ticks": 42312,
          "time": 30.0511063125,
          "velocity": 0.30708661417322836
        },
        {
          "duration": 0.15340893750000006,
          "durationTicks": 216,
          "midi": 80,
          "name": "G#5",
          "ticks": 42312,
          "time": 30.0511063125,
          "velocity": 0.30708661417322836
        },
        {
          "duration": 0.15340893750000006,
          "durationTicks": 216,
          "midi": 56,
          "name": "G#3",
          "ticks": 42312,
          "time": 30.0511063125,
          "velocity": 0.30708661417322836
        },
        {
          "duration": 0.15340893750000006,
          "durationTicks": 216,
          "midi": 83,
          "name": "B5",
          "ticks": 42432,
          "time": 30.1363335,
          "velocity": 0.30708661417322836
        },
        {
          "duration": 0.15340893750000006,
          "durationTicks": 216,
          "midi": 83,
          "name": "B5",
          "ticks": 42432,
          "time": 30.1363335,
          "velocity": 0.30708661417322836
        },
        {
          "duration": 0.15340893750000006,
          "durationTicks": 216,
          "midi": 83,
          "name": "B5",
          "ticks": 42456,
          "time": 30.1533789375,
          "velocity": 0.30708661417322836
        },
        {
          "duration": 0.15340893750000006,
          "durationTicks": 216,
          "midi": 81,
          "name": "A5",
          "ticks": 42576,
          "time": 30.238606125,
          "velocity": 0.30708661417322836
        },
        {
          "duration": 0.22159068750000088,
          "durationTicks": 312,
          "midi": 45,
          "name": "A2",
          "ticks": 42576,
          "time": 30.238606125,
          "velocity": 0.30708661417322836
        },
        {
          "duration": 0.22159068750000088,
          "durationTicks": 312,
          "midi": 45,
          "name": "A2",
          "ticks": 42576,
          "time": 30.238606125,
          "velocity": 0.30708661417322836
        },
        {
          "duration": 0.15340893750000006,
          "durationTicks": 216,
          "midi": 81,
          "name": "A5",
          "ticks": 42576,
          "time": 30.238606125,
          "velocity": 0.30708661417322836
        },
        {
          "duration": 0.22159068750000088,
          "durationTicks": 312,
          "midi": 45,
          "name": "A2",
          "ticks": 42600,
          "time": 30.2556515625,
          "velocity": 0.30708661417322836
        },
        {
          "duration": 0.15340893750000006,
          "durationTicks": 216,
          "midi": 81,
          "name": "A5",
          "ticks": 42600,
          "time": 30.2556515625,
          "velocity": 0.30708661417322836
        },
        {
          "duration": 0.15340893750000006,
          "durationTicks": 216,
          "midi": 76,
          "name": "E5",
          "ticks": 42720,
          "time": 30.340878749999998,
          "velocity": 0.30708661417322836
        },
        {
          "duration": 0.15340893750000006,
          "durationTicks": 216,
          "midi": 76,
          "name": "E5",
          "ticks": 42720,
          "time": 30.340878749999998,
          "velocity": 0.30708661417322836
        },
        {
          "duration": 0.15340893750000006,
          "durationTicks": 216,
          "midi": 76,
          "name": "E5",
          "ticks": 42744,
          "time": 30.3579241875,
          "velocity": 0.30708661417322836
        },
        {
          "duration": 0.15340893750000006,
          "durationTicks": 216,
          "midi": 72,
          "name": "C5",
          "ticks": 42864,
          "time": 30.443151375,
          "velocity": 0.30708661417322836
        },
        {
          "duration": 0.15340893750000006,
          "durationTicks": 216,
          "midi": 72,
          "name": "C5",
          "ticks": 42864,
          "time": 30.443151375,
          "velocity": 0.30708661417322836
        },
        {
          "duration": 0.15340893750000006,
          "durationTicks": 216,
          "midi": 57,
          "name": "A3",
          "ticks": 42864,
          "time": 30.443151375,
          "velocity": 0.30708661417322836
        },
        {
          "duration": 0.15340893750000006,
          "durationTicks": 216,
          "midi": 48,
          "name": "C3",
          "ticks": 42864,
          "time": 30.443151375,
          "velocity": 0.30708661417322836
        },
        {
          "duration": 0.15340893750000006,
          "durationTicks": 216,
          "midi": 48,
          "name": "C3",
          "ticks": 42864,
          "time": 30.443151375,
          "velocity": 0.30708661417322836
        },
        {
          "duration": 0.15340893750000006,
          "durationTicks": 216,
          "midi": 57,
          "name": "A3",
          "ticks": 42864,
          "time": 30.443151375,
          "velocity": 0.30708661417322836
        },
        {
          "duration": 0.15340893750000006,
          "durationTicks": 216,
          "midi": 48,
          "name": "C3",
          "ticks": 42888,
          "time": 30.4601968125,
          "velocity": 0.30708661417322836
        },
        {
          "duration": 0.15340893750000006,
          "durationTicks": 216,
          "midi": 57,
          "name": "A3",
          "ticks": 42888,
          "time": 30.4601968125,
          "velocity": 0.30708661417322836
        },
        {
          "duration": 0.15340893750000006,
          "durationTicks": 216,
          "midi": 72,
          "name": "C5",
          "ticks": 42888,
          "time": 30.4601968125,
          "velocity": 0.30708661417322836
        },
        {
          "duration": 0.15340893750000006,
          "durationTicks": 216,
          "midi": 69,
          "name": "A4",
          "ticks": 43008,
          "time": 30.545424,
          "velocity": 0.30708661417322836
        },
        {
          "duration": 0.15340893750000006,
          "durationTicks": 216,
          "midi": 69,
          "name": "A4",
          "ticks": 43008,
          "time": 30.545424,
          "velocity": 0.30708661417322836
        },
        {
          "duration": 0.15340893750000006,
          "durationTicks": 216,
          "midi": 69,
          "name": "A4",
          "ticks": 43032,
          "time": 30.5624694375,
          "velocity": 0.30708661417322836
        },
        {
          "duration": 0.22159068750000088,
          "durationTicks": 312,
          "midi": 40,
          "name": "E2",
          "ticks": 43152,
          "time": 30.647696625,
          "velocity": 0.30708661417322836
        },
        {
          "duration": 0.15340893750000006,
          "durationTicks": 216,
          "midi": 52,
          "name": "E3",
          "ticks": 43152,
          "time": 30.647696625,
          "velocity": 0.30708661417322836
        },
        {
          "duration": 0.15340893750000006,
          "durationTicks": 216,
          "midi": 77,
          "name": "F5",
          "ticks": 43152,
          "time": 30.647696625,
          "velocity": 0.30708661417322836
        },
        {
          "duration": 0.15340893750000006,
          "durationTicks": 216,
          "midi": 77,
          "name": "F5",
          "ticks": 43152,
          "time": 30.647696625,
          "velocity": 0.30708661417322836
        },
        {
          "duration": 0.15340893750000006,
          "durationTicks": 216,
          "midi": 52,
          "name": "E3",
          "ticks": 43152,
          "time": 30.647696625,
          "velocity": 0.30708661417322836
        },
        {
          "duration": 0.22159068750000088,
          "durationTicks": 312,
          "midi": 40,
          "name": "E2",
          "ticks": 43152,
          "time": 30.647696625,
          "velocity": 0.30708661417322836
        },
        {
          "duration": 0.22159068750000088,
          "durationTicks": 312,
          "midi": 40,
          "name": "E2",
          "ticks": 43176,
          "time": 30.6647420625,
          "velocity": 0.30708661417322836
        },
        {
          "duration": 0.15340893750000006,
          "durationTicks": 216,
          "midi": 77,
          "name": "F5",
          "ticks": 43176,
          "time": 30.6647420625,
          "velocity": 0.30708661417322836
        },
        {
          "duration": 0.15340893750000006,
          "durationTicks": 216,
          "midi": 52,
          "name": "E3",
          "ticks": 43176,
          "time": 30.6647420625,
          "velocity": 0.30708661417322836
        },
        {
          "duration": 0.15340893750000006,
          "durationTicks": 216,
          "midi": 76,
          "name": "E5",
          "ticks": 43296,
          "time": 30.74996925,
          "velocity": 0.30708661417322836
        },
        {
          "duration": 0.15340893750000006,
          "durationTicks": 216,
          "midi": 76,
          "name": "E5",
          "ticks": 43296,
          "time": 30.74996925,
          "velocity": 0.30708661417322836
        },
        {
          "duration": 0.1534089374999965,
          "durationTicks": 216,
          "midi": 76,
          "name": "E5",
          "ticks": 43320,
          "time": 30.7670146875,
          "velocity": 0.30708661417322836
        },
        {
          "duration": 0.15340893750000006,
          "durationTicks": 216,
          "midi": 74,
          "name": "D5",
          "ticks": 43440,
          "time": 30.852241875,
          "velocity": 0.30708661417322836
        },
        {
          "duration": 0.15340893750000006,
          "durationTicks": 216,
          "midi": 54,
          "name": "F#3",
          "ticks": 43440,
          "time": 30.852241875,
          "velocity": 0.30708661417322836
        },
        {
          "duration": 0.15340893750000006,
          "durationTicks": 216,
          "midi": 74,
          "name": "D5",
          "ticks": 43440,
          "time": 30.852241875,
          "velocity": 0.30708661417322836
        },
        {
          "duration": 0.15340893750000006,
          "durationTicks": 216,
          "midi": 42,
          "name": "F#2",
          "ticks": 43440,
          "time": 30.852241875,
          "velocity": 0.30708661417322836
        },
        {
          "duration": 0.15340893750000006,
          "durationTicks": 216,
          "midi": 42,
          "name": "F#2",
          "ticks": 43440,
          "time": 30.852241875,
          "velocity": 0.30708661417322836
        },
        {
          "duration": 0.15340893750000006,
          "durationTicks": 216,
          "midi": 54,
          "name": "F#3",
          "ticks": 43440,
          "time": 30.852241875,
          "velocity": 0.30708661417322836
        },
        {
          "duration": 0.15340893750000006,
          "durationTicks": 216,
          "midi": 74,
          "name": "D5",
          "ticks": 43464,
          "time": 30.8692873125,
          "velocity": 0.30708661417322836
        },
        {
          "duration": 0.15340893750000006,
          "durationTicks": 216,
          "midi": 54,
          "name": "F#3",
          "ticks": 43464,
          "time": 30.8692873125,
          "velocity": 0.30708661417322836
        },
        {
          "duration": 0.15340893750000006,
          "durationTicks": 216,
          "midi": 42,
          "name": "F#2",
          "ticks": 43464,
          "time": 30.8692873125,
          "velocity": 0.30708661417322836
        },
        {
          "duration": 0.15340893750000006,
          "durationTicks": 216,
          "midi": 72,
          "name": "C5",
          "ticks": 43584,
          "time": 30.9545145,
          "velocity": 0.30708661417322836
        },
        {
          "duration": 0.15340893750000006,
          "durationTicks": 216,
          "midi": 72,
          "name": "C5",
          "ticks": 43584,
          "time": 30.9545145,
          "velocity": 0.30708661417322836
        },
        {
          "duration": 0.15340893750000006,
          "durationTicks": 216,
          "midi": 72,
          "name": "C5",
          "ticks": 43608,
          "time": 30.9715599375,
          "velocity": 0.30708661417322836
        },
        {
          "duration": 0.15340893750000006,
          "durationTicks": 216,
          "midi": 71,
          "name": "B4",
          "ticks": 43728,
          "time": 31.056787125,
          "velocity": 0.30708661417322836
        },
        {
          "duration": 0.15340893750000006,
          "durationTicks": 216,
          "midi": 44,
          "name": "G#2",
          "ticks": 43728,
          "time": 31.056787125,
          "velocity": 0.30708661417322836
        },
        {
          "duration": 0.15340893750000006,
          "durationTicks": 216,
          "midi": 44,
          "name": "G#2",
          "ticks": 43728,
          "time": 31.056787125,
          "velocity": 0.30708661417322836
        },
        {
          "duration": 0.15340893750000006,
          "durationTicks": 216,
          "midi": 56,
          "name": "G#3",
          "ticks": 43728,
          "time": 31.056787125,
          "velocity": 0.30708661417322836
        },
        {
          "duration": 0.15340893750000006,
          "durationTicks": 216,
          "midi": 56,
          "name": "G#3",
          "ticks": 43728,
          "time": 31.056787125,
          "velocity": 0.30708661417322836
        },
        {
          "duration": 0.15340893750000006,
          "durationTicks": 216,
          "midi": 71,
          "name": "B4",
          "ticks": 43728,
          "time": 31.056787125,
          "velocity": 0.30708661417322836
        },
        {
          "duration": 0.15340893750000006,
          "durationTicks": 216,
          "midi": 56,
          "name": "G#3",
          "ticks": 43752,
          "time": 31.073832562499998,
          "velocity": 0.30708661417322836
        },
        {
          "duration": 0.15340893750000006,
          "durationTicks": 216,
          "midi": 71,
          "name": "B4",
          "ticks": 43752,
          "time": 31.073832562499998,
          "velocity": 0.30708661417322836
        },
        {
          "duration": 0.15340893750000006,
          "durationTicks": 216,
          "midi": 44,
          "name": "G#2",
          "ticks": 43752,
          "time": 31.073832562499998,
          "velocity": 0.30708661417322836
        },
        {
          "duration": 0.15340893750000006,
          "durationTicks": 216,
          "midi": 69,
          "name": "A4",
          "ticks": 43872,
          "time": 31.15905975,
          "velocity": 0.30708661417322836
        },
        {
          "duration": 0.15340893750000006,
          "durationTicks": 216,
          "midi": 69,
          "name": "A4",
          "ticks": 43872,
          "time": 31.15905975,
          "velocity": 0.30708661417322836
        },
        {
          "duration": 0.15340893750000006,
          "durationTicks": 216,
          "midi": 69,
          "name": "A4",
          "ticks": 43896,
          "time": 31.1761051875,
          "velocity": 0.30708661417322836
        },
        {
          "duration": 0.15340893750000006,
          "durationTicks": 216,
          "midi": 52,
          "name": "E3",
          "ticks": 44016,
          "time": 31.261332375,
          "velocity": 0.30708661417322836
        },
        {
          "duration": 0.15340893750000006,
          "durationTicks": 216,
          "midi": 68,
          "name": "G#4",
          "ticks": 44016,
          "time": 31.261332375,
          "velocity": 0.30708661417322836
        },
        {
          "duration": 0.15340893750000006,
          "durationTicks": 216,
          "midi": 40,
          "name": "E2",
          "ticks": 44016,
          "time": 31.261332375,
          "velocity": 0.30708661417322836
        },
        {
          "duration": 0.15340893750000006,
          "durationTicks": 216,
          "midi": 52,
          "name": "E3",
          "ticks": 44016,
          "time": 31.261332375,
          "velocity": 0.30708661417322836
        },
        {
          "duration": 0.15340893750000006,
          "durationTicks": 216,
          "midi": 40,
          "name": "E2",
          "ticks": 44016,
          "time": 31.261332375,
          "velocity": 0.30708661417322836
        },
        {
          "duration": 0.15340893750000006,
          "durationTicks": 216,
          "midi": 68,
          "name": "G#4",
          "ticks": 44016,
          "time": 31.261332375,
          "velocity": 0.30708661417322836
        },
        {
          "duration": 0.15340893750000006,
          "durationTicks": 216,
          "midi": 40,
          "name": "E2",
          "ticks": 44040,
          "time": 31.2783778125,
          "velocity": 0.30708661417322836
        },
        {
          "duration": 0.15340893750000006,
          "durationTicks": 216,
          "midi": 68,
          "name": "G#4",
          "ticks": 44040,
          "time": 31.2783778125,
          "velocity": 0.30708661417322836
        },
        {
          "duration": 0.15340893750000006,
          "durationTicks": 216,
          "midi": 52,
          "name": "E3",
          "ticks": 44040,
          "time": 31.2783778125,
          "velocity": 0.30708661417322836
        },
        {
          "duration": 0.15340893750000006,
          "durationTicks": 216,
          "midi": 71,
          "name": "B4",
          "ticks": 44160,
          "time": 31.363605,
          "velocity": 0.30708661417322836
        },
        {
          "duration": 0.15340893750000006,
          "durationTicks": 216,
          "midi": 71,
          "name": "B4",
          "ticks": 44160,
          "time": 31.363605,
          "velocity": 0.30708661417322836
        },
        {
          "duration": 0.15340893750000006,
          "durationTicks": 216,
          "midi": 71,
          "name": "B4",
          "ticks": 44184,
          "time": 31.380650437499998,
          "velocity": 0.30708661417322836
        },
        {
          "duration": 0.15340893750000006,
          "durationTicks": 216,
          "midi": 45,
          "name": "A2",
          "ticks": 44304,
          "time": 31.465877625,
          "velocity": 0.30708661417322836
        },
        {
          "duration": 0.15340893750000006,
          "durationTicks": 216,
          "midi": 45,
          "name": "A2",
          "ticks": 44304,
          "time": 31.465877625,
          "velocity": 0.30708661417322836
        },
        {
          "duration": 0.15340893750000006,
          "durationTicks": 216,
          "midi": 57,
          "name": "A3",
          "ticks": 44304,
          "time": 31.465877625,
          "velocity": 0.30708661417322836
        },
        {
          "duration": 0.15340893750000006,
          "durationTicks": 216,
          "midi": 57,
          "name": "A3",
          "ticks": 44304,
          "time": 31.465877625,
          "velocity": 0.30708661417322836
        },
        {
          "duration": 0.15340893750000006,
          "durationTicks": 216,
          "midi": 69,
          "name": "A4",
          "ticks": 44304,
          "time": 31.465877625,
          "velocity": 0.30708661417322836
        },
        {
          "duration": 0.15340893750000006,
          "durationTicks": 216,
          "midi": 69,
          "name": "A4",
          "ticks": 44304,
          "time": 31.465877625,
          "velocity": 0.30708661417322836
        },
        {
          "duration": 0.15340893750000006,
          "durationTicks": 216,
          "midi": 69,
          "name": "A4",
          "ticks": 44328,
          "time": 31.4829230625,
          "velocity": 0.30708661417322836
        },
        {
          "duration": 0.15340893750000006,
          "durationTicks": 216,
          "midi": 45,
          "name": "A2",
          "ticks": 44328,
          "time": 31.4829230625,
          "velocity": 0.30708661417322836
        },
        {
          "duration": 0.15340893750000006,
          "durationTicks": 216,
          "midi": 57,
          "name": "A3",
          "ticks": 44328,
          "time": 31.4829230625,
          "velocity": 0.30708661417322836
        },
        {
          "duration": 0.4943176875000006,
          "durationTicks": 696,
          "midi": 40,
          "name": "E2",
          "ticks": 44928,
          "time": 31.909059,
          "velocity": 0.30708661417322836
        },
        {
          "duration": 0.4943176875000006,
          "durationTicks": 696,
          "midi": 28,
          "name": "E1",
          "ticks": 44928,
          "time": 31.909059,
          "velocity": 0.30708661417322836
        },
        {
          "duration": 0.4943176875000006,
          "durationTicks": 696,
          "midi": 40,
          "name": "E2",
          "ticks": 44928,
          "time": 31.909059,
          "velocity": 0.30708661417322836
        },
        {
          "duration": 0.4943176875000006,
          "durationTicks": 696,
          "midi": 28,
          "name": "E1",
          "ticks": 44928,
          "time": 31.909059,
          "velocity": 0.30708661417322836
        },
        {
          "duration": 0.4943176875000006,
          "durationTicks": 696,
          "midi": 40,
          "name": "E2",
          "ticks": 44952,
          "time": 31.9261044375,
          "velocity": 0.30708661417322836
        },
        {
          "duration": 0.4943176875000006,
          "durationTicks": 696,
          "midi": 28,
          "name": "E1",
          "ticks": 44952,
          "time": 31.9261044375,
          "velocity": 0.30708661417322836
        },
        {
          "duration": 0.4943176875000006,
          "durationTicks": 696,
          "midi": 30,
          "name": "F#1",
          "ticks": 45456,
          "time": 32.284058625,
          "velocity": 0.30708661417322836
        },
        {
          "duration": 0.4943176875000006,
          "durationTicks": 696,
          "midi": 30,
          "name": "F#1",
          "ticks": 45456,
          "time": 32.284058625,
          "velocity": 0.30708661417322836
        },
        {
          "duration": 0.4943176875000006,
          "durationTicks": 696,
          "midi": 42,
          "name": "F#2",
          "ticks": 45456,
          "time": 32.284058625,
          "velocity": 0.30708661417322836
        },
        {
          "duration": 0.4943176875000006,
          "durationTicks": 696,
          "midi": 42,
          "name": "F#2",
          "ticks": 45456,
          "time": 32.284058625,
          "velocity": 0.30708661417322836
        },
        {
          "duration": 0.4943176875000006,
          "durationTicks": 696,
          "midi": 30,
          "name": "F#1",
          "ticks": 45480,
          "time": 32.3011040625,
          "velocity": 0.30708661417322836
        },
        {
          "duration": 0.4943176875000006,
          "durationTicks": 696,
          "midi": 42,
          "name": "F#2",
          "ticks": 45480,
          "time": 32.3011040625,
          "velocity": 0.30708661417322836
        },
        {
          "duration": 0.4943176875000006,
          "durationTicks": 696,
          "midi": 32,
          "name": "G#1",
          "ticks": 45552,
          "time": 32.352240375,
          "velocity": 0.30708661417322836
        },
        {
          "duration": 0.4943176875000006,
          "durationTicks": 696,
          "midi": 32,
          "name": "G#1",
          "ticks": 45552,
          "time": 32.352240375,
          "velocity": 0.30708661417322836
        },
        {
          "duration": 0.4943176875000006,
          "durationTicks": 696,
          "midi": 44,
          "name": "G#2",
          "ticks": 45552,
          "time": 32.352240375,
          "velocity": 0.30708661417322836
        },
        {
          "duration": 0.4943176875000006,
          "durationTicks": 696,
          "midi": 44,
          "name": "G#2",
          "ticks": 45552,
          "time": 32.352240375,
          "velocity": 0.30708661417322836
        },
        {
          "duration": 0.4943176874999935,
          "durationTicks": 696,
          "midi": 44,
          "name": "G#2",
          "ticks": 45576,
          "time": 32.3692858125,
          "velocity": 0.30708661417322836
        },
        {
          "duration": 0.4943176874999935,
          "durationTicks": 696,
          "midi": 32,
          "name": "G#1",
          "ticks": 45576,
          "time": 32.3692858125,
          "velocity": 0.30708661417322836
        },
        {
          "duration": 0.1534089374999965,
          "durationTicks": 216,
          "midi": 45,
          "name": "A2",
          "ticks": 45648,
          "time": 32.420422125,
          "velocity": 0.30708661417322836
        },
        {
          "duration": 0.1534089374999965,
          "durationTicks": 216,
          "midi": 64,
          "name": "E4",
          "ticks": 45648,
          "time": 32.420422125,
          "velocity": 0.30708661417322836
        },
        {
          "duration": 0.1534089374999965,
          "durationTicks": 216,
          "midi": 64,
          "name": "E4",
          "ticks": 45648,
          "time": 32.420422125,
          "velocity": 0.30708661417322836
        },
        {
          "duration": 0.1534089374999965,
          "durationTicks": 216,
          "midi": 45,
          "name": "A2",
          "ticks": 45648,
          "time": 32.420422125,
          "velocity": 0.30708661417322836
        },
        {
          "duration": 0.15340893750000362,
          "durationTicks": 216,
          "midi": 45,
          "name": "A2",
          "ticks": 45672,
          "time": 32.4374675625,
          "velocity": 0.30708661417322836
        },
        {
          "duration": 0.15340893750000362,
          "durationTicks": 216,
          "midi": 64,
          "name": "E4",
          "ticks": 45672,
          "time": 32.4374675625,
          "velocity": 0.30708661417322836
        },
        {
          "duration": 0.15340893750000362,
          "durationTicks": 216,
          "midi": 64,
          "name": "E4",
          "ticks": 45792,
          "time": 32.52269475,
          "velocity": 0.30708661417322836
        },
        {
          "duration": 0.15340893750000362,
          "durationTicks": 216,
          "midi": 64,
          "name": "E4",
          "ticks": 45792,
          "time": 32.52269475,
          "velocity": 0.30708661417322836
        },
        {
          "duration": 0.1534089374999965,
          "durationTicks": 216,
          "midi": 64,
          "name": "E4",
          "ticks": 45816,
          "time": 32.5397401875,
          "velocity": 0.30708661417322836
        },
        {
          "duration": 0.15340893750000362,
          "durationTicks": 216,
          "midi": 52,
          "name": "E3",
          "ticks": 45936,
          "time": 32.624967375,
          "velocity": 0.30708661417322836
        },
        {
          "duration": 0.15340893750000362,
          "durationTicks": 216,
          "midi": 64,
          "name": "E4",
          "ticks": 45936,
          "time": 32.624967375,
          "velocity": 0.30708661417322836
        },
        {
          "duration": 0.15340893750000362,
          "durationTicks": 216,
          "midi": 64,
          "name": "E4",
          "ticks": 45936,
          "time": 32.624967375,
          "velocity": 0.30708661417322836
        },
        {
          "duration": 0.15340893750000362,
          "durationTicks": 216,
          "midi": 48,
          "name": "C3",
          "ticks": 45936,
          "time": 32.624967375,
          "velocity": 0.30708661417322836
        },
        {
          "duration": 0.15340893750000362,
          "durationTicks": 216,
          "midi": 48,
          "name": "C3",
          "ticks": 45936,
          "time": 32.624967375,
          "velocity": 0.30708661417322836
        },
        {
          "duration": 0.15340893750000362,
          "durationTicks": 216,
          "midi": 52,
          "name": "E3",
          "ticks": 45936,
          "time": 32.624967375,
          "velocity": 0.30708661417322836
        },
        {
          "duration": 0.15340893750000362,
          "durationTicks": 216,
          "midi": 64,
          "name": "E4",
          "ticks": 45960,
          "time": 32.6420128125,
          "velocity": 0.30708661417322836
        },
        {
          "duration": 0.15340893750000362,
          "durationTicks": 216,
          "midi": 52,
          "name": "E3",
          "ticks": 45960,
          "time": 32.6420128125,
          "velocity": 0.30708661417322836
        },
        {
          "duration": 0.15340893750000362,
          "durationTicks": 216,
          "midi": 48,
          "name": "C3",
          "ticks": 45960,
          "time": 32.6420128125,
          "velocity": 0.30708661417322836
        },
        {
          "duration": 0.1534089374999965,
          "durationTicks": 216,
          "midi": 64,
          "name": "E4",
          "ticks": 46080,
          "time": 32.72724,
          "velocity": 0.30708661417322836
        },
        {
          "duration": 0.1534089374999965,
          "durationTicks": 216,
          "midi": 64,
          "name": "E4",
          "ticks": 46080,
          "time": 32.72724,
          "velocity": 0.30708661417322836
        },
        {
          "duration": 0.15340893750000362,
          "durationTicks": 216,
          "midi": 64,
          "name": "E4",
          "ticks": 46104,
          "time": 32.7442854375,
          "velocity": 0.30708661417322836
        },
        {
          "duration": 0.15340893750000362,
          "durationTicks": 216,
          "midi": 40,
          "name": "E2",
          "ticks": 46224,
          "time": 32.829512625,
          "velocity": 0.30708661417322836
        },
        {
          "duration": 0.15340893750000362,
          "durationTicks": 216,
          "midi": 64,
          "name": "E4",
          "ticks": 46224,
          "time": 32.829512625,
          "velocity": 0.30708661417322836
        },
        {
          "duration": 0.15340893750000362,
          "durationTicks": 216,
          "midi": 40,
          "name": "E2",
          "ticks": 46224,
          "time": 32.829512625,
          "velocity": 0.30708661417322836
        },
        {
          "duration": 0.15340893750000362,
          "durationTicks": 216,
          "midi": 64,
          "name": "E4",
          "ticks": 46224,
          "time": 32.829512625,
          "velocity": 0.30708661417322836
        },
        {
          "duration": 0.1534089374999965,
          "durationTicks": 216,
          "midi": 40,
          "name": "E2",
          "ticks": 46248,
          "time": 32.8465580625,
          "velocity": 0.30708661417322836
        },
        {
          "duration": 0.1534089374999965,
          "durationTicks": 216,
          "midi": 64,
          "name": "E4",
          "ticks": 46248,
          "time": 32.8465580625,
          "velocity": 0.30708661417322836
        },
        {
          "duration": 0.15340893750000362,
          "durationTicks": 216,
          "midi": 64,
          "name": "E4",
          "ticks": 46368,
          "time": 32.93178525,
          "velocity": 0.30708661417322836
        },
        {
          "duration": 0.15340893750000362,
          "durationTicks": 216,
          "midi": 64,
          "name": "E4",
          "ticks": 46368,
          "time": 32.93178525,
          "velocity": 0.30708661417322836
        },
        {
          "duration": 0.15340893750000362,
          "durationTicks": 216,
          "midi": 64,
          "name": "E4",
          "ticks": 46392,
          "time": 32.9488306875,
          "velocity": 0.30708661417322836
        },
        {
          "duration": 0.1534089374999965,
          "durationTicks": 216,
          "midi": 64,
          "name": "E4",
          "ticks": 46512,
          "time": 33.034057875,
          "velocity": 0.30708661417322836
        },
        {
          "duration": 0.1534089374999965,
          "durationTicks": 216,
          "midi": 64,
          "name": "E4",
          "ticks": 46512,
          "time": 33.034057875,
          "velocity": 0.30708661417322836
        },
        {
          "duration": 0.1534089374999965,
          "durationTicks": 216,
          "midi": 48,
          "name": "C3",
          "ticks": 46512,
          "time": 33.034057875,
          "velocity": 0.30708661417322836
        },
        {
          "duration": 0.1534089374999965,
          "durationTicks": 216,
          "midi": 52,
          "name": "E3",
          "ticks": 46512,
          "time": 33.034057875,
          "velocity": 0.30708661417322836
        },
        {
          "duration": 0.1534089374999965,
          "durationTicks": 216,
          "midi": 48,
          "name": "C3",
          "ticks": 46512,
          "time": 33.034057875,
          "velocity": 0.30708661417322836
        },
        {
          "duration": 0.1534089374999965,
          "durationTicks": 216,
          "midi": 52,
          "name": "E3",
          "ticks": 46512,
          "time": 33.034057875,
          "velocity": 0.30708661417322836
        },
        {
          "duration": 0.15340893750000362,
          "durationTicks": 216,
          "midi": 52,
          "name": "E3",
          "ticks": 46536,
          "time": 33.0511033125,
          "velocity": 0.30708661417322836
        },
        {
          "duration": 0.15340893750000362,
          "durationTicks": 216,
          "midi": 48,
          "name": "C3",
          "ticks": 46536,
          "time": 33.0511033125,
          "velocity": 0.30708661417322836
        },
        {
          "duration": 0.15340893750000362,
          "durationTicks": 216,
          "midi": 64,
          "name": "E4",
          "ticks": 46536,
          "time": 33.0511033125,
          "velocity": 0.30708661417322836
        },
        {
          "duration": 0.1534089374999965,
          "durationTicks": 216,
          "midi": 64,
          "name": "E4",
          "ticks": 46656,
          "time": 33.1363305,
          "velocity": 0.30708661417322836
        },
        {
          "duration": 0.1534089374999965,
          "durationTicks": 216,
          "midi": 64,
          "name": "E4",
          "ticks": 46656,
          "time": 33.1363305,
          "velocity": 0.30708661417322836
        },
        {
          "duration": 0.1534089374999965,
          "durationTicks": 216,
          "midi": 64,
          "name": "E4",
          "ticks": 46680,
          "time": 33.1533759375,
          "velocity": 0.30708661417322836
        },
        {
          "duration": 0.15340893750000362,
          "durationTicks": 216,
          "midi": 45,
          "name": "A2",
          "ticks": 46800,
          "time": 33.238603125,
          "velocity": 0.30708661417322836
        },
        {
          "duration": 0.15340893750000362,
          "durationTicks": 216,
          "midi": 45,
          "name": "A2",
          "ticks": 46800,
          "time": 33.238603125,
          "velocity": 0.30708661417322836
        },
        {
          "duration": 0.15340893750000362,
          "durationTicks": 216,
          "midi": 64,
          "name": "E4",
          "ticks": 46800,
          "time": 33.238603125,
          "velocity": 0.30708661417322836
        },
        {
          "duration": 0.15340893750000362,
          "durationTicks": 216,
          "midi": 64,
          "name": "E4",
          "ticks": 46800,
          "time": 33.238603125,
          "velocity": 0.30708661417322836
        },
        {
          "duration": 0.15340893750000362,
          "durationTicks": 216,
          "midi": 45,
          "name": "A2",
          "ticks": 46824,
          "time": 33.2556485625,
          "velocity": 0.30708661417322836
        },
        {
          "duration": 0.15340893750000362,
          "durationTicks": 216,
          "midi": 64,
          "name": "E4",
          "ticks": 46824,
          "time": 33.2556485625,
          "velocity": 0.30708661417322836
        },
        {
          "duration": 0.1534089374999965,
          "durationTicks": 216,
          "midi": 64,
          "name": "E4",
          "ticks": 46944,
          "time": 33.34087575,
          "velocity": 0.30708661417322836
        },
        {
          "duration": 0.1534089374999965,
          "durationTicks": 216,
          "midi": 64,
          "name": "E4",
          "ticks": 46944,
          "time": 33.34087575,
          "velocity": 0.30708661417322836
        },
        {
          "duration": 0.15340893750000362,
          "durationTicks": 216,
          "midi": 64,
          "name": "E4",
          "ticks": 46968,
          "time": 33.3579211875,
          "velocity": 0.30708661417322836
        },
        {
          "duration": 0.1534089374999965,
          "durationTicks": 216,
          "midi": 52,
          "name": "E3",
          "ticks": 47088,
          "time": 33.443148375,
          "velocity": 0.30708661417322836
        },
        {
          "duration": 0.1534089374999965,
          "durationTicks": 216,
          "midi": 64,
          "name": "E4",
          "ticks": 47088,
          "time": 33.443148375,
          "velocity": 0.30708661417322836
        },
        {
          "duration": 0.1534089374999965,
          "durationTicks": 216,
          "midi": 64,
          "name": "E4",
          "ticks": 47088,
          "time": 33.443148375,
          "velocity": 0.30708661417322836
        },
        {
          "duration": 0.1534089374999965,
          "durationTicks": 216,
          "midi": 48,
          "name": "C3",
          "ticks": 47088,
          "time": 33.443148375,
          "velocity": 0.30708661417322836
        },
        {
          "duration": 0.1534089374999965,
          "durationTicks": 216,
          "midi": 52,
          "name": "E3",
          "ticks": 47088,
          "time": 33.443148375,
          "velocity": 0.30708661417322836
        },
        {
          "duration": 0.1534089374999965,
          "durationTicks": 216,
          "midi": 48,
          "name": "C3",
          "ticks": 47088,
          "time": 33.443148375,
          "velocity": 0.30708661417322836
        },
        {
          "duration": 0.1534089374999965,
          "durationTicks": 216,
          "midi": 52,
          "name": "E3",
          "ticks": 47112,
          "time": 33.4601938125,
          "velocity": 0.30708661417322836
        },
        {
          "duration": 0.1534089374999965,
          "durationTicks": 216,
          "midi": 48,
          "name": "C3",
          "ticks": 47112,
          "time": 33.4601938125,
          "velocity": 0.30708661417322836
        },
        {
          "duration": 0.1534089374999965,
          "durationTicks": 216,
          "midi": 64,
          "name": "E4",
          "ticks": 47112,
          "time": 33.4601938125,
          "velocity": 0.30708661417322836
        },
        {
          "duration": 0.15340893750000362,
          "durationTicks": 216,
          "midi": 64,
          "name": "E4",
          "ticks": 47232,
          "time": 33.545421,
          "velocity": 0.30708661417322836
        },
        {
          "duration": 0.15340893750000362,
          "durationTicks": 216,
          "midi": 64,
          "name": "E4",
          "ticks": 47232,
          "time": 33.545421,
          "velocity": 0.30708661417322836
        },
        {
          "duration": 0.15340893750000362,
          "durationTicks": 216,
          "midi": 64,
          "name": "E4",
          "ticks": 47256,
          "time": 33.5624664375,
          "velocity": 0.30708661417322836
        },
        {
          "duration": 0.1534089374999965,
          "durationTicks": 216,
          "midi": 40,
          "name": "E2",
          "ticks": 47376,
          "time": 33.647693625,
          "velocity": 0.30708661417322836
        },
        {
          "duration": 0.1534089374999965,
          "durationTicks": 216,
          "midi": 64,
          "name": "E4",
          "ticks": 47376,
          "time": 33.647693625,
          "velocity": 0.30708661417322836
        },
        {
          "duration": 0.1534089374999965,
          "durationTicks": 216,
          "midi": 64,
          "name": "E4",
          "ticks": 47376,
          "time": 33.647693625,
          "velocity": 0.30708661417322836
        },
        {
          "duration": 0.1534089374999965,
          "durationTicks": 216,
          "midi": 40,
          "name": "E2",
          "ticks": 47376,
          "time": 33.647693625,
          "velocity": 0.30708661417322836
        },
        {
          "duration": 0.15340893750000362,
          "durationTicks": 216,
          "midi": 40,
          "name": "E2",
          "ticks": 47400,
          "time": 33.6647390625,
          "velocity": 0.30708661417322836
        },
        {
          "duration": 0.15340893750000362,
          "durationTicks": 216,
          "midi": 64,
          "name": "E4",
          "ticks": 47400,
          "time": 33.6647390625,
          "velocity": 0.30708661417322836
        },
        {
          "duration": 0.1534089374999965,
          "durationTicks": 216,
          "midi": 64,
          "name": "E4",
          "ticks": 47520,
          "time": 33.74996625,
          "velocity": 0.30708661417322836
        },
        {
          "duration": 0.1534089374999965,
          "durationTicks": 216,
          "midi": 64,
          "name": "E4",
          "ticks": 47520,
          "time": 33.74996625,
          "velocity": 0.30708661417322836
        },
        {
          "duration": 0.1534089374999965,
          "durationTicks": 216,
          "midi": 64,
          "name": "E4",
          "ticks": 47544,
          "time": 33.7670116875,
          "velocity": 0.30708661417322836
        },
        {
          "duration": 0.15340893750000362,
          "durationTicks": 216,
          "midi": 64,
          "name": "E4",
          "ticks": 47664,
          "time": 33.852238875,
          "velocity": 0.30708661417322836
        },
        {
          "duration": 0.15340893750000362,
          "durationTicks": 216,
          "midi": 52,
          "name": "E3",
          "ticks": 47664,
          "time": 33.852238875,
          "velocity": 0.30708661417322836
        },
        {
          "duration": 0.15340893750000362,
          "durationTicks": 216,
          "midi": 48,
          "name": "C3",
          "ticks": 47664,
          "time": 33.852238875,
          "velocity": 0.30708661417322836
        },
        {
          "duration": 0.15340893750000362,
          "durationTicks": 216,
          "midi": 48,
          "name": "C3",
          "ticks": 47664,
          "time": 33.852238875,
          "velocity": 0.30708661417322836
        },
        {
          "duration": 0.15340893750000362,
          "durationTicks": 216,
          "midi": 64,
          "name": "E4",
          "ticks": 47664,
          "time": 33.852238875,
          "velocity": 0.30708661417322836
        },
        {
          "duration": 0.15340893750000362,
          "durationTicks": 216,
          "midi": 52,
          "name": "E3",
          "ticks": 47664,
          "time": 33.852238875,
          "velocity": 0.30708661417322836
        },
        {
          "duration": 0.1534089374999965,
          "durationTicks": 216,
          "midi": 52,
          "name": "E3",
          "ticks": 47688,
          "time": 33.8692843125,
          "velocity": 0.30708661417322836
        },
        {
          "duration": 0.1534089374999965,
          "durationTicks": 216,
          "midi": 64,
          "name": "E4",
          "ticks": 47688,
          "time": 33.8692843125,
          "velocity": 0.30708661417322836
        },
        {
          "duration": 0.1534089374999965,
          "durationTicks": 216,
          "midi": 48,
          "name": "C3",
          "ticks": 47688,
          "time": 33.8692843125,
          "velocity": 0.30708661417322836
        },
        {
          "duration": 0.1534089374999965,
          "durationTicks": 216,
          "midi": 64,
          "name": "E4",
          "ticks": 47808,
          "time": 33.9545115,
          "velocity": 0.30708661417322836
        },
        {
          "duration": 0.1534089374999965,
          "durationTicks": 216,
          "midi": 64,
          "name": "E4",
          "ticks": 47808,
          "time": 33.9545115,
          "velocity": 0.30708661417322836
        },
        {
          "duration": 0.15340893750000362,
          "durationTicks": 216,
          "midi": 64,
          "name": "E4",
          "ticks": 47832,
          "time": 33.9715569375,
          "velocity": 0.30708661417322836
        },
        {
          "duration": 0.1534089374999965,
          "durationTicks": 216,
          "midi": 45,
          "name": "A2",
          "ticks": 47952,
          "time": 34.056784125,
          "velocity": 0.30708661417322836
        },
        {
          "duration": 0.1534089374999965,
          "durationTicks": 216,
          "midi": 64,
          "name": "E4",
          "ticks": 47952,
          "time": 34.056784125,
          "velocity": 0.30708661417322836
        },
        {
          "duration": 0.1534089374999965,
          "durationTicks": 216,
          "midi": 45,
          "name": "A2",
          "ticks": 47952,
          "time": 34.056784125,
          "velocity": 0.30708661417322836
        },
        {
          "duration": 0.1534089374999965,
          "durationTicks": 216,
          "midi": 64,
          "name": "E4",
          "ticks": 47952,
          "time": 34.056784125,
          "velocity": 0.30708661417322836
        },
        {
          "duration": 0.1534089374999965,
          "durationTicks": 216,
          "midi": 64,
          "name": "E4",
          "ticks": 47976,
          "time": 34.0738295625,
          "velocity": 0.30708661417322836
        },
        {
          "duration": 0.1534089374999965,
          "durationTicks": 216,
          "midi": 45,
          "name": "A2",
          "ticks": 47976,
          "time": 34.0738295625,
          "velocity": 0.30708661417322836
        },
        {
          "duration": 0.15340893750000362,
          "durationTicks": 216,
          "midi": 64,
          "name": "E4",
          "ticks": 48096,
          "time": 34.15905675,
          "velocity": 0.30708661417322836
        },
        {
          "duration": 0.15340893750000362,
          "durationTicks": 216,
          "midi": 64,
          "name": "E4",
          "ticks": 48096,
          "time": 34.15905675,
          "velocity": 0.30708661417322836
        },
        {
          "duration": 0.1534089374999965,
          "durationTicks": 216,
          "midi": 64,
          "name": "E4",
          "ticks": 48120,
          "time": 34.1761021875,
          "velocity": 0.30708661417322836
        },
        {
          "duration": 0.1534089374999965,
          "durationTicks": 216,
          "midi": 64,
          "name": "E4",
          "ticks": 48240,
          "time": 34.261329375,
          "velocity": 0.30708661417322836
        },
        {
          "duration": 0.1534089374999965,
          "durationTicks": 216,
          "midi": 48,
          "name": "C3",
          "ticks": 48240,
          "time": 34.261329375,
          "velocity": 0.30708661417322836
        },
        {
          "duration": 0.1534089374999965,
          "durationTicks": 216,
          "midi": 64,
          "name": "E4",
          "ticks": 48240,
          "time": 34.261329375,
          "velocity": 0.30708661417322836
        },
        {
          "duration": 0.1534089374999965,
          "durationTicks": 216,
          "midi": 52,
          "name": "E3",
          "ticks": 48240,
          "time": 34.261329375,
          "velocity": 0.30708661417322836
        },
        {
          "duration": 0.1534089374999965,
          "durationTicks": 216,
          "midi": 48,
          "name": "C3",
          "ticks": 48240,
          "time": 34.261329375,
          "velocity": 0.30708661417322836
        },
        {
          "duration": 0.1534089374999965,
          "durationTicks": 216,
          "midi": 52,
          "name": "E3",
          "ticks": 48240,
          "time": 34.261329375,
          "velocity": 0.30708661417322836
        },
        {
          "duration": 0.15340893750000362,
          "durationTicks": 216,
          "midi": 48,
          "name": "C3",
          "ticks": 48264,
          "time": 34.2783748125,
          "velocity": 0.30708661417322836
        },
        {
          "duration": 0.15340893750000362,
          "durationTicks": 216,
          "midi": 64,
          "name": "E4",
          "ticks": 48264,
          "time": 34.2783748125,
          "velocity": 0.30708661417322836
        },
        {
          "duration": 0.15340893750000362,
          "durationTicks": 216,
          "midi": 52,
          "name": "E3",
          "ticks": 48264,
          "time": 34.2783748125,
          "velocity": 0.30708661417322836
        },
        {
          "duration": 0.1534089374999965,
          "durationTicks": 216,
          "midi": 64,
          "name": "E4",
          "ticks": 48384,
          "time": 34.363602,
          "velocity": 0.30708661417322836
        },
        {
          "duration": 0.1534089374999965,
          "durationTicks": 216,
          "midi": 64,
          "name": "E4",
          "ticks": 48384,
          "time": 34.363602,
          "velocity": 0.30708661417322836
        },
        {
          "duration": 0.1534089374999965,
          "durationTicks": 216,
          "midi": 64,
          "name": "E4",
          "ticks": 48408,
          "time": 34.3806474375,
          "velocity": 0.30708661417322836
        },
        {
          "duration": 0.15340893750000362,
          "durationTicks": 216,
          "midi": 40,
          "name": "E2",
          "ticks": 48528,
          "time": 34.465874625,
          "velocity": 0.30708661417322836
        },
        {
          "duration": 0.15340893750000362,
          "durationTicks": 216,
          "midi": 64,
          "name": "E4",
          "ticks": 48528,
          "time": 34.465874625,
          "velocity": 0.30708661417322836
        },
        {
          "duration": 0.15340893750000362,
          "durationTicks": 216,
          "midi": 40,
          "name": "E2",
          "ticks": 48528,
          "time": 34.465874625,
          "velocity": 0.30708661417322836
        },
        {
          "duration": 0.15340893750000362,
          "durationTicks": 216,
          "midi": 64,
          "name": "E4",
          "ticks": 48528,
          "time": 34.465874625,
          "velocity": 0.30708661417322836
        },
        {
          "duration": 0.1534089374999965,
          "durationTicks": 216,
          "midi": 40,
          "name": "E2",
          "ticks": 48552,
          "time": 34.4829200625,
          "velocity": 0.30708661417322836
        },
        {
          "duration": 0.1534089374999965,
          "durationTicks": 216,
          "midi": 64,
          "name": "E4",
          "ticks": 48552,
          "time": 34.4829200625,
          "velocity": 0.30708661417322836
        },
        {
          "duration": 0.1534089374999965,
          "durationTicks": 216,
          "midi": 65,
          "name": "F4",
          "ticks": 48672,
          "time": 34.56814725,
          "velocity": 0.30708661417322836
        },
        {
          "duration": 0.1534089374999965,
          "durationTicks": 216,
          "midi": 65,
          "name": "F4",
          "ticks": 48672,
          "time": 34.56814725,
          "velocity": 0.30708661417322836
        },
        {
          "duration": 0.15340893750000362,
          "durationTicks": 216,
          "midi": 65,
          "name": "F4",
          "ticks": 48696,
          "time": 34.5851926875,
          "velocity": 0.30708661417322836
        },
        {
          "duration": 0.1534089374999965,
          "durationTicks": 216,
          "midi": 48,
          "name": "C3",
          "ticks": 48816,
          "time": 34.670419875,
          "velocity": 0.30708661417322836
        },
        {
          "duration": 0.1534089374999965,
          "durationTicks": 216,
          "midi": 52,
          "name": "E3",
          "ticks": 48816,
          "time": 34.670419875,
          "velocity": 0.30708661417322836
        },
        {
          "duration": 0.1534089374999965,
          "durationTicks": 216,
          "midi": 52,
          "name": "E3",
          "ticks": 48816,
          "time": 34.670419875,
          "velocity": 0.30708661417322836
        },
        {
          "duration": 0.1534089374999965,
          "durationTicks": 216,
          "midi": 64,
          "name": "E4",
          "ticks": 48816,
          "time": 34.670419875,
          "velocity": 0.30708661417322836
        },
        {
          "duration": 0.1534089374999965,
          "durationTicks": 216,
          "midi": 48,
          "name": "C3",
          "ticks": 48816,
          "time": 34.670419875,
          "velocity": 0.30708661417322836
        },
        {
          "duration": 0.1534089374999965,
          "durationTicks": 216,
          "midi": 64,
          "name": "E4",
          "ticks": 48816,
          "time": 34.670419875,
          "velocity": 0.30708661417322836
        },
        {
          "duration": 0.1534089374999965,
          "durationTicks": 216,
          "midi": 48,
          "name": "C3",
          "ticks": 48840,
          "time": 34.6874653125,
          "velocity": 0.30708661417322836
        },
        {
          "duration": 0.1534089374999965,
          "durationTicks": 216,
          "midi": 64,
          "name": "E4",
          "ticks": 48840,
          "time": 34.6874653125,
          "velocity": 0.30708661417322836
        },
        {
          "duration": 0.1534089374999965,
          "durationTicks": 216,
          "midi": 52,
          "name": "E3",
          "ticks": 48840,
          "time": 34.6874653125,
          "velocity": 0.30708661417322836
        },
        {
          "duration": 0.15340893750000362,
          "durationTicks": 216,
          "midi": 63,
          "name": "D#4",
          "ticks": 48960,
          "time": 34.7726925,
          "velocity": 0.30708661417322836
        },
        {
          "duration": 0.15340893750000362,
          "durationTicks": 216,
          "midi": 63,
          "name": "D#4",
          "ticks": 48960,
          "time": 34.7726925,
          "velocity": 0.30708661417322836
        },
        {
          "duration": 0.1534089374999965,
          "durationTicks": 216,
          "midi": 63,
          "name": "D#4",
          "ticks": 48984,
          "time": 34.7897379375,
          "velocity": 0.30708661417322836
        },
        {
          "duration": 0.22159068749999733,
          "durationTicks": 312,
          "midi": 45,
          "name": "A2",
          "ticks": 49104,
          "time": 34.874965125,
          "velocity": 0.30708661417322836
        },
        {
          "duration": 0.1534089374999965,
          "durationTicks": 216,
          "midi": 64,
          "name": "E4",
          "ticks": 49104,
          "time": 34.874965125,
          "velocity": 0.30708661417322836
        },
        {
          "duration": 0.1534089374999965,
          "durationTicks": 216,
          "midi": 64,
          "name": "E4",
          "ticks": 49104,
          "time": 34.874965125,
          "velocity": 0.30708661417322836
        },
        {
          "duration": 0.22159068749999733,
          "durationTicks": 312,
          "midi": 45,
          "name": "A2",
          "ticks": 49104,
          "time": 34.874965125,
          "velocity": 0.30708661417322836
        },
        {
          "duration": 0.15340893750000362,
          "durationTicks": 216,
          "midi": 64,
          "name": "E4",
          "ticks": 49128,
          "time": 34.8920105625,
          "velocity": 0.30708661417322836
        },
        {
          "duration": 0.22159068750000444,
          "durationTicks": 312,
          "midi": 45,
          "name": "A2",
          "ticks": 49128,
          "time": 34.8920105625,
          "velocity": 0.30708661417322836
        },
        {
          "duration": 0.15340893750000362,
          "durationTicks": 216,
          "midi": 69,
          "name": "A4",
          "ticks": 49392,
          "time": 35.079510375,
          "velocity": 0.30708661417322836
        },
        {
          "duration": 0.15340893750000362,
          "durationTicks": 216,
          "midi": 52,
          "name": "E3",
          "ticks": 49392,
          "time": 35.079510375,
          "velocity": 0.30708661417322836
        },
        {
          "duration": 0.15340893750000362,
          "durationTicks": 216,
          "midi": 52,
          "name": "E3",
          "ticks": 49392,
          "time": 35.079510375,
          "velocity": 0.30708661417322836
        },
        {
          "duration": 0.15340893750000362,
          "durationTicks": 216,
          "midi": 48,
          "name": "C3",
          "ticks": 49392,
          "time": 35.079510375,
          "velocity": 0.30708661417322836
        },
        {
          "duration": 0.15340893750000362,
          "durationTicks": 216,
          "midi": 48,
          "name": "C3",
          "ticks": 49392,
          "time": 35.079510375,
          "velocity": 0.30708661417322836
        },
        {
          "duration": 0.15340893750000362,
          "durationTicks": 216,
          "midi": 69,
          "name": "A4",
          "ticks": 49392,
          "time": 35.079510375,
          "velocity": 0.30708661417322836
        },
        {
          "duration": 0.1534089374999965,
          "durationTicks": 216,
          "midi": 69,
          "name": "A4",
          "ticks": 49416,
          "time": 35.0965558125,
          "velocity": 0.30708661417322836
        },
        {
          "duration": 0.1534089374999965,
          "durationTicks": 216,
          "midi": 52,
          "name": "E3",
          "ticks": 49416,
          "time": 35.0965558125,
          "velocity": 0.30708661417322836
        },
        {
          "duration": 0.1534089374999965,
          "durationTicks": 216,
          "midi": 48,
          "name": "C3",
          "ticks": 49416,
          "time": 35.0965558125,
          "velocity": 0.30708661417322836
        },
        {
          "duration": 0.1534089374999965,
          "durationTicks": 216,
          "midi": 40,
          "name": "E2",
          "ticks": 49680,
          "time": 35.284055625,
          "velocity": 0.30708661417322836
        },
        {
          "duration": 0.1534089374999965,
          "durationTicks": 216,
          "midi": 72,
          "name": "C5",
          "ticks": 49680,
          "time": 35.284055625,
          "velocity": 0.30708661417322836
        },
        {
          "duration": 0.1534089374999965,
          "durationTicks": 216,
          "midi": 72,
          "name": "C5",
          "ticks": 49680,
          "time": 35.284055625,
          "velocity": 0.30708661417322836
        },
        {
          "duration": 0.1534089374999965,
          "durationTicks": 216,
          "midi": 40,
          "name": "E2",
          "ticks": 49680,
          "time": 35.284055625,
          "velocity": 0.30708661417322836
        },
        {
          "duration": 0.1534089374999965,
          "durationTicks": 216,
          "midi": 72,
          "name": "C5",
          "ticks": 49704,
          "time": 35.3011010625,
          "velocity": 0.30708661417322836
        },
        {
          "duration": 0.1534089374999965,
          "durationTicks": 216,
          "midi": 40,
          "name": "E2",
          "ticks": 49704,
          "time": 35.3011010625,
          "velocity": 0.30708661417322836
        },
        {
          "duration": 0.1534089374999965,
          "durationTicks": 216,
          "midi": 48,
          "name": "C3",
          "ticks": 49968,
          "time": 35.488600875,
          "velocity": 0.30708661417322836
        },
        {
          "duration": 0.1534089374999965,
          "durationTicks": 216,
          "midi": 52,
          "name": "E3",
          "ticks": 49968,
          "time": 35.488600875,
          "velocity": 0.30708661417322836
        },
        {
          "duration": 0.1534089374999965,
          "durationTicks": 216,
          "midi": 52,
          "name": "E3",
          "ticks": 49968,
          "time": 35.488600875,
          "velocity": 0.30708661417322836
        },
        {
          "duration": 0.1534089374999965,
          "durationTicks": 216,
          "midi": 48,
          "name": "C3",
          "ticks": 49968,
          "time": 35.488600875,
          "velocity": 0.30708661417322836
        },
        {
          "duration": 0.15340893750000362,
          "durationTicks": 216,
          "midi": 52,
          "name": "E3",
          "ticks": 49992,
          "time": 35.5056463125,
          "velocity": 0.30708661417322836
        },
        {
          "duration": 0.15340893750000362,
          "durationTicks": 216,
          "midi": 48,
          "name": "C3",
          "ticks": 49992,
          "time": 35.5056463125,
          "velocity": 0.30708661417322836
        },
        {
          "duration": 0.15340893750000362,
          "durationTicks": 216,
          "midi": 44,
          "name": "G#2",
          "ticks": 50256,
          "time": 35.693146125,
          "velocity": 0.30708661417322836
        },
        {
          "duration": 0.15340893750000362,
          "durationTicks": 216,
          "midi": 74,
          "name": "D5",
          "ticks": 50256,
          "time": 35.693146125,
          "velocity": 0.30708661417322836
        },
        {
          "duration": 0.15340893750000362,
          "durationTicks": 216,
          "midi": 74,
          "name": "D5",
          "ticks": 50256,
          "time": 35.693146125,
          "velocity": 0.30708661417322836
        },
        {
          "duration": 0.15340893750000362,
          "durationTicks": 216,
          "midi": 44,
          "name": "G#2",
          "ticks": 50256,
          "time": 35.693146125,
          "velocity": 0.30708661417322836
        },
        {
          "duration": 0.1534089374999965,
          "durationTicks": 216,
          "midi": 44,
          "name": "G#2",
          "ticks": 50280,
          "time": 35.7101915625,
          "velocity": 0.30708661417322836
        },
        {
          "duration": 0.1534089374999965,
          "durationTicks": 216,
          "midi": 74,
          "name": "D5",
          "ticks": 50280,
          "time": 35.7101915625,
          "velocity": 0.30708661417322836
        },
        {
          "duration": 0.1534089374999965,
          "durationTicks": 216,
          "midi": 74,
          "name": "D5",
          "ticks": 50400,
          "time": 35.79541875,
          "velocity": 0.30708661417322836
        },
        {
          "duration": 0.1534089374999965,
          "durationTicks": 216,
          "midi": 74,
          "name": "D5",
          "ticks": 50400,
          "time": 35.79541875,
          "velocity": 0.30708661417322836
        },
        {
          "duration": 0.15340893750000362,
          "durationTicks": 216,
          "midi": 74,
          "name": "D5",
          "ticks": 50424,
          "time": 35.8124641875,
          "velocity": 0.30708661417322836
        },
        {
          "duration": 0.1534089374999965,
          "durationTicks": 216,
          "midi": 50,
          "name": "D3",
          "ticks": 50544,
          "time": 35.897691375,
          "velocity": 0.30708661417322836
        },
        {
          "duration": 0.1534089374999965,
          "durationTicks": 216,
          "midi": 74,
          "name": "D5",
          "ticks": 50544,
          "time": 35.897691375,
          "velocity": 0.30708661417322836
        },
        {
          "duration": 0.1534089374999965,
          "durationTicks": 216,
          "midi": 50,
          "name": "D3",
          "ticks": 50544,
          "time": 35.897691375,
          "velocity": 0.30708661417322836
        },
        {
          "duration": 0.1534089374999965,
          "durationTicks": 216,
          "midi": 52,
          "name": "E3",
          "ticks": 50544,
          "time": 35.897691375,
          "velocity": 0.30708661417322836
        },
        {
          "duration": 0.1534089374999965,
          "durationTicks": 216,
          "midi": 74,
          "name": "D5",
          "ticks": 50544,
          "time": 35.897691375,
          "velocity": 0.30708661417322836
        },
        {
          "duration": 0.1534089374999965,
          "durationTicks": 216,
          "midi": 52,
          "name": "E3",
          "ticks": 50544,
          "time": 35.897691375,
          "velocity": 0.30708661417322836
        },
        {
          "duration": 0.1534089374999965,
          "durationTicks": 216,
          "midi": 52,
          "name": "E3",
          "ticks": 50568,
          "time": 35.9147368125,
          "velocity": 0.30708661417322836
        },
        {
          "duration": 0.1534089374999965,
          "durationTicks": 216,
          "midi": 50,
          "name": "D3",
          "ticks": 50568,
          "time": 35.9147368125,
          "velocity": 0.30708661417322836
        },
        {
          "duration": 0.1534089374999965,
          "durationTicks": 216,
          "midi": 74,
          "name": "D5",
          "ticks": 50568,
          "time": 35.9147368125,
          "velocity": 0.30708661417322836
        },
        {
          "duration": 0.15340893750000362,
          "durationTicks": 216,
          "midi": 74,
          "name": "D5",
          "ticks": 50688,
          "time": 35.999964,
          "velocity": 0.30708661417322836
        },
        {
          "duration": 0.15340893750000362,
          "durationTicks": 216,
          "midi": 74,
          "name": "D5",
          "ticks": 50688,
          "time": 35.999964,
          "velocity": 0.30708661417322836
        },
        {
          "duration": 0.1534089374999965,
          "durationTicks": 216,
          "midi": 74,
          "name": "D5",
          "ticks": 50712,
          "time": 36.0170094375,
          "velocity": 0.30708661417322836
        },
        {
          "duration": 0.15340893750000362,
          "durationTicks": 216,
          "midi": 74,
          "name": "D5",
          "ticks": 50832,
          "time": 36.102236624999996,
          "velocity": 0.30708661417322836
        },
        {
          "duration": 0.15340893750000362,
          "durationTicks": 216,
          "midi": 40,
          "name": "E2",
          "ticks": 50832,
          "time": 36.102236624999996,
          "velocity": 0.30708661417322836
        },
        {
          "duration": 0.15340893750000362,
          "durationTicks": 216,
          "midi": 40,
          "name": "E2",
          "ticks": 50832,
          "time": 36.102236624999996,
          "velocity": 0.30708661417322836
        },
        {
          "duration": 0.15340893750000362,
          "durationTicks": 216,
          "midi": 74,
          "name": "D5",
          "ticks": 50832,
          "time": 36.102236624999996,
          "velocity": 0.30708661417322836
        },
        {
          "duration": 0.15340893750000362,
          "durationTicks": 216,
          "midi": 40,
          "name": "E2",
          "ticks": 50856,
          "time": 36.1192820625,
          "velocity": 0.30708661417322836
        },
        {
          "duration": 0.15340893750000362,
          "durationTicks": 216,
          "midi": 74,
          "name": "D5",
          "ticks": 50856,
          "time": 36.1192820625,
          "velocity": 0.30708661417322836
        },
        {
          "duration": 0.1534089374999965,
          "durationTicks": 216,
          "midi": 72,
          "name": "C5",
          "ticks": 50976,
          "time": 36.20450925,
          "velocity": 0.30708661417322836
        },
        {
          "duration": 0.1534089374999965,
          "durationTicks": 216,
          "midi": 72,
          "name": "C5",
          "ticks": 50976,
          "time": 36.20450925,
          "velocity": 0.30708661417322836
        },
        {
          "duration": 0.1534089374999965,
          "durationTicks": 216,
          "midi": 72,
          "name": "C5",
          "ticks": 51000,
          "time": 36.2215546875,
          "velocity": 0.30708661417322836
        },
        {
          "duration": 0.15340893750000362,
          "durationTicks": 216,
          "midi": 71,
          "name": "B4",
          "ticks": 51120,
          "time": 36.306781875,
          "velocity": 0.30708661417322836
        },
        {
          "duration": 0.15340893750000362,
          "durationTicks": 216,
          "midi": 50,
          "name": "D3",
          "ticks": 51120,
          "time": 36.306781875,
          "velocity": 0.30708661417322836
        },
        {
          "duration": 0.15340893750000362,
          "durationTicks": 216,
          "midi": 71,
          "name": "B4",
          "ticks": 51120,
          "time": 36.306781875,
          "velocity": 0.30708661417322836
        },
        {
          "duration": 0.15340893750000362,
          "durationTicks": 216,
          "midi": 52,
          "name": "E3",
          "ticks": 51120,
          "time": 36.306781875,
          "velocity": 0.30708661417322836
        },
        {
          "duration": 0.15340893750000362,
          "durationTicks": 216,
          "midi": 52,
          "name": "E3",
          "ticks": 51120,
          "time": 36.306781875,
          "velocity": 0.30708661417322836
        },
        {
          "duration": 0.15340893750000362,
          "durationTicks": 216,
          "midi": 50,
          "name": "D3",
          "ticks": 51120,
          "time": 36.306781875,
          "velocity": 0.30708661417322836
        },
        {
          "duration": 0.1534089374999965,
          "durationTicks": 216,
          "midi": 71,
          "name": "B4",
          "ticks": 51144,
          "time": 36.3238273125,
          "velocity": 0.30708661417322836
        },
        {
          "duration": 0.1534089374999965,
          "durationTicks": 216,
          "midi": 52,
          "name": "E3",
          "ticks": 51144,
          "time": 36.3238273125,
          "velocity": 0.30708661417322836
        },
        {
          "duration": 0.1534089374999965,
          "durationTicks": 216,
          "midi": 50,
          "name": "D3",
          "ticks": 51144,
          "time": 36.3238273125,
          "velocity": 0.30708661417322836
        },
        {
          "duration": 0.15340893750000362,
          "durationTicks": 216,
          "midi": 74,
          "name": "D5",
          "ticks": 51264,
          "time": 36.409054499999996,
          "velocity": 0.30708661417322836
        },
        {
          "duration": 0.15340893750000362,
          "durationTicks": 216,
          "midi": 74,
          "name": "D5",
          "ticks": 51264,
          "time": 36.409054499999996,
          "velocity": 0.30708661417322836
        },
        {
          "duration": 0.15340893750000362,
          "durationTicks": 216,
          "midi": 74,
          "name": "D5",
          "ticks": 51288,
          "time": 36.4260999375,
          "velocity": 0.30708661417322836
        },
        {
          "duration": 0.1534089374999965,
          "durationTicks": 216,
          "midi": 45,
          "name": "A2",
          "ticks": 51408,
          "time": 36.511327125,
          "velocity": 0.30708661417322836
        },
        {
          "duration": 0.1534089374999965,
          "durationTicks": 216,
          "midi": 72,
          "name": "C5",
          "ticks": 51408,
          "time": 36.511327125,
          "velocity": 0.30708661417322836
        },
        {
          "duration": 0.1534089374999965,
          "durationTicks": 216,
          "midi": 72,
          "name": "C5",
          "ticks": 51408,
          "time": 36.511327125,
          "velocity": 0.30708661417322836
        },
        {
          "duration": 0.1534089374999965,
          "durationTicks": 216,
          "midi": 45,
          "name": "A2",
          "ticks": 51408,
          "time": 36.511327125,
          "velocity": 0.30708661417322836
        },
        {
          "duration": 0.1534089374999965,
          "durationTicks": 216,
          "midi": 45,
          "name": "A2",
          "ticks": 51432,
          "time": 36.5283725625,
          "velocity": 0.30708661417322836
        },
        {
          "duration": 0.1534089374999965,
          "durationTicks": 216,
          "midi": 72,
          "name": "C5",
          "ticks": 51432,
          "time": 36.5283725625,
          "velocity": 0.30708661417322836
        },
        {
          "duration": 0.15340893750000362,
          "durationTicks": 216,
          "midi": 72,
          "name": "C5",
          "ticks": 51552,
          "time": 36.61359975,
          "velocity": 0.30708661417322836
        },
        {
          "duration": 0.15340893750000362,
          "durationTicks": 216,
          "midi": 72,
          "name": "C5",
          "ticks": 51552,
          "time": 36.61359975,
          "velocity": 0.30708661417322836
        },
        {
          "duration": 0.1534089374999965,
          "durationTicks": 216,
          "midi": 72,
          "name": "C5",
          "ticks": 51576,
          "time": 36.6306451875,
          "velocity": 0.30708661417322836
        },
        {
          "duration": 0.15340893750000362,
          "durationTicks": 216,
          "midi": 48,
          "name": "C3",
          "ticks": 51696,
          "time": 36.715872375,
          "velocity": 0.30708661417322836
        },
        {
          "duration": 0.15340893750000362,
          "durationTicks": 216,
          "midi": 72,
          "name": "C5",
          "ticks": 51696,
          "time": 36.715872375,
          "velocity": 0.30708661417322836
        },
        {
          "duration": 0.15340893750000362,
          "durationTicks": 216,
          "midi": 72,
          "name": "C5",
          "ticks": 51696,
          "time": 36.715872375,
          "velocity": 0.30708661417322836
        },
        {
          "duration": 0.15340893750000362,
          "durationTicks": 216,
          "midi": 48,
          "name": "C3",
          "ticks": 51696,
          "time": 36.715872375,
          "velocity": 0.30708661417322836
        },
        {
          "duration": 0.15340893750000362,
          "durationTicks": 216,
          "midi": 52,
          "name": "E3",
          "ticks": 51696,
          "time": 36.715872375,
          "velocity": 0.30708661417322836
        },
        {
          "duration": 0.15340893750000362,
          "durationTicks": 216,
          "midi": 52,
          "name": "E3",
          "ticks": 51696,
          "time": 36.715872375,
          "velocity": 0.30708661417322836
        },
        {
          "duration": 0.15340893750000362,
          "durationTicks": 216,
          "midi": 48,
          "name": "C3",
          "ticks": 51720,
          "time": 36.7329178125,
          "velocity": 0.30708661417322836
        },
        {
          "duration": 0.15340893750000362,
          "durationTicks": 216,
          "midi": 72,
          "name": "C5",
          "ticks": 51720,
          "time": 36.7329178125,
          "velocity": 0.30708661417322836
        },
        {
          "duration": 0.15340893750000362,
          "durationTicks": 216,
          "midi": 52,
          "name": "E3",
          "ticks": 51720,
          "time": 36.7329178125,
          "velocity": 0.30708661417322836
        },
        {
          "duration": 0.1534089374999965,
          "durationTicks": 216,
          "midi": 72,
          "name": "C5",
          "ticks": 51840,
          "time": 36.818145,
          "velocity": 0.30708661417322836
        },
        {
          "duration": 0.1534089374999965,
          "durationTicks": 216,
          "midi": 72,
          "name": "C5",
          "ticks": 51840,
          "time": 36.818145,
          "velocity": 0.30708661417322836
        },
        {
          "duration": 0.15340893750000362,
          "durationTicks": 216,
          "midi": 72,
          "name": "C5",
          "ticks": 51864,
          "time": 36.835190437499996,
          "velocity": 0.30708661417322836
        },
        {
          "duration": 0.15340893750000362,
          "durationTicks": 216,
          "midi": 72,
          "name": "C5",
          "ticks": 51984,
          "time": 36.920417625,
          "velocity": 0.30708661417322836
        },
        {
          "duration": 0.15340893750000362,
          "durationTicks": 216,
          "midi": 72,
          "name": "C5",
          "ticks": 51984,
          "time": 36.920417625,
          "velocity": 0.30708661417322836
        },
        {
          "duration": 0.15340893750000362,
          "durationTicks": 216,
          "midi": 40,
          "name": "E2",
          "ticks": 51984,
          "time": 36.920417625,
          "velocity": 0.30708661417322836
        },
        {
          "duration": 0.15340893750000362,
          "durationTicks": 216,
          "midi": 40,
          "name": "E2",
          "ticks": 51984,
          "time": 36.920417625,
          "velocity": 0.30708661417322836
        },
        {
          "duration": 0.1534089374999965,
          "durationTicks": 216,
          "midi": 40,
          "name": "E2",
          "ticks": 52008,
          "time": 36.9374630625,
          "velocity": 0.30708661417322836
        },
        {
          "duration": 0.1534089374999965,
          "durationTicks": 216,
          "midi": 72,
          "name": "C5",
          "ticks": 52008,
          "time": 36.9374630625,
          "velocity": 0.30708661417322836
        },
        {
          "duration": 0.15340893750000362,
          "durationTicks": 216,
          "midi": 71,
          "name": "B4",
          "ticks": 52128,
          "time": 37.02269025,
          "velocity": 0.30708661417322836
        },
        {
          "duration": 0.15340893750000362,
          "durationTicks": 216,
          "midi": 71,
          "name": "B4",
          "ticks": 52128,
          "time": 37.02269025,
          "velocity": 0.30708661417322836
        },
        {
          "duration": 0.15340893750000362,
          "durationTicks": 216,
          "midi": 71,
          "name": "B4",
          "ticks": 52152,
          "time": 37.0397356875,
          "velocity": 0.30708661417322836
        },
        {
          "duration": 0.1534089374999965,
          "durationTicks": 216,
          "midi": 69,
          "name": "A4",
          "ticks": 52272,
          "time": 37.124962875,
          "velocity": 0.30708661417322836
        },
        {
          "duration": 0.1534089374999965,
          "durationTicks": 216,
          "midi": 48,
          "name": "C3",
          "ticks": 52272,
          "time": 37.124962875,
          "velocity": 0.30708661417322836
        },
        {
          "duration": 0.1534089374999965,
          "durationTicks": 216,
          "midi": 52,
          "name": "E3",
          "ticks": 52272,
          "time": 37.124962875,
          "velocity": 0.30708661417322836
        },
        {
          "duration": 0.1534089374999965,
          "durationTicks": 216,
          "midi": 69,
          "name": "A4",
          "ticks": 52272,
          "time": 37.124962875,
          "velocity": 0.30708661417322836
        },
        {
          "duration": 0.1534089374999965,
          "durationTicks": 216,
          "midi": 52,
          "name": "E3",
          "ticks": 52272,
          "time": 37.124962875,
          "velocity": 0.30708661417322836
        },
        {
          "duration": 0.1534089374999965,
          "durationTicks": 216,
          "midi": 48,
          "name": "C3",
          "ticks": 52272,
          "time": 37.124962875,
          "velocity": 0.30708661417322836
        },
        {
          "duration": 0.15340893750000362,
          "durationTicks": 216,
          "midi": 69,
          "name": "A4",
          "ticks": 52296,
          "time": 37.142008312499996,
          "velocity": 0.30708661417322836
        },
        {
          "duration": 0.15340893750000362,
          "durationTicks": 216,
          "midi": 48,
          "name": "C3",
          "ticks": 52296,
          "time": 37.142008312499996,
          "velocity": 0.30708661417322836
        },
        {
          "duration": 0.15340893750000362,
          "durationTicks": 216,
          "midi": 52,
          "name": "E3",
          "ticks": 52296,
          "time": 37.142008312499996,
          "velocity": 0.30708661417322836
        },
        {
          "duration": 0.15340893750000362,
          "durationTicks": 216,
          "midi": 72,
          "name": "C5",
          "ticks": 52416,
          "time": 37.2272355,
          "velocity": 0.30708661417322836
        },
        {
          "duration": 0.15340893750000362,
          "durationTicks": 216,
          "midi": 72,
          "name": "C5",
          "ticks": 52416,
          "time": 37.2272355,
          "velocity": 0.30708661417322836
        },
        {
          "duration": 0.1534089374999965,
          "durationTicks": 216,
          "midi": 72,
          "name": "C5",
          "ticks": 52440,
          "time": 37.2442809375,
          "velocity": 0.30708661417322836
        },
        {
          "duration": 0.15340893750000362,
          "durationTicks": 216,
          "midi": 47,
          "name": "B2",
          "ticks": 52560,
          "time": 37.329508125,
          "velocity": 0.30708661417322836
        },
        {
          "duration": 0.15340893750000362,
          "durationTicks": 216,
          "midi": 47,
          "name": "B2",
          "ticks": 52560,
          "time": 37.329508125,
          "velocity": 0.30708661417322836
        },
        {
          "duration": 0.15340893750000362,
          "durationTicks": 216,
          "midi": 71,
          "name": "B4",
          "ticks": 52560,
          "time": 37.329508125,
          "velocity": 0.30708661417322836
        },
        {
          "duration": 0.15340893750000362,
          "durationTicks": 216,
          "midi": 71,
          "name": "B4",
          "ticks": 52560,
          "time": 37.329508125,
          "velocity": 0.30708661417322836
        },
        {
          "duration": 0.15340893750000362,
          "durationTicks": 216,
          "midi": 71,
          "name": "B4",
          "ticks": 52584,
          "time": 37.3465535625,
          "velocity": 0.30708661417322836
        },
        {
          "duration": 0.15340893750000362,
          "durationTicks": 216,
          "midi": 47,
          "name": "B2",
          "ticks": 52584,
          "time": 37.3465535625,
          "velocity": 0.30708661417322836
        },
        {
          "duration": 0.1534089374999965,
          "durationTicks": 216,
          "midi": 71,
          "name": "B4",
          "ticks": 52704,
          "time": 37.43178075,
          "velocity": 0.30708661417322836
        },
        {
          "duration": 0.1534089374999965,
          "durationTicks": 216,
          "midi": 71,
          "name": "B4",
          "ticks": 52704,
          "time": 37.43178075,
          "velocity": 0.30708661417322836
        },
        {
          "duration": 0.15340893750000362,
          "durationTicks": 216,
          "midi": 71,
          "name": "B4",
          "ticks": 52728,
          "time": 37.448826187499996,
          "velocity": 0.30708661417322836
        },
        {
          "duration": 0.15340893750000362,
          "durationTicks": 216,
          "midi": 71,
          "name": "B4",
          "ticks": 52848,
          "time": 37.534053375,
          "velocity": 0.30708661417322836
        },
        {
          "duration": 0.15340893750000362,
          "durationTicks": 216,
          "midi": 51,
          "name": "D#3",
          "ticks": 52848,
          "time": 37.534053375,
          "velocity": 0.30708661417322836
        },
        {
          "duration": 0.15340893750000362,
          "durationTicks": 216,
          "midi": 59,
          "name": "B3",
          "ticks": 52848,
          "time": 37.534053375,
          "velocity": 0.30708661417322836
        },
        {
          "duration": 0.15340893750000362,
          "durationTicks": 216,
          "midi": 59,
          "name": "B3",
          "ticks": 52848,
          "time": 37.534053375,
          "velocity": 0.30708661417322836
        },
        {
          "duration": 0.15340893750000362,
          "durationTicks": 216,
          "midi": 51,
          "name": "D#3",
          "ticks": 52848,
          "time": 37.534053375,
          "velocity": 0.30708661417322836
        },
        {
          "duration": 0.15340893750000362,
          "durationTicks": 216,
          "midi": 71,
          "name": "B4",
          "ticks": 52848,
          "time": 37.534053375,
          "velocity": 0.30708661417322836
        },
        {
          "duration": 0.1534089374999965,
          "durationTicks": 216,
          "midi": 51,
          "name": "D#3",
          "ticks": 52872,
          "time": 37.5510988125,
          "velocity": 0.30708661417322836
        },
        {
          "duration": 0.1534089374999965,
          "durationTicks": 216,
          "midi": 59,
          "name": "B3",
          "ticks": 52872,
          "time": 37.5510988125,
          "velocity": 0.30708661417322836
        },
        {
          "duration": 0.1534089374999965,
          "durationTicks": 216,
          "midi": 71,
          "name": "B4",
          "ticks": 52872,
          "time": 37.5510988125,
          "velocity": 0.30708661417322836
        },
        {
          "duration": 0.15340893750000362,
          "durationTicks": 216,
          "midi": 71,
          "name": "B4",
          "ticks": 52992,
          "time": 37.636326,
          "velocity": 0.30708661417322836
        },
        {
          "duration": 0.15340893750000362,
          "durationTicks": 216,
          "midi": 71,
          "name": "B4",
          "ticks": 52992,
          "time": 37.636326,
          "velocity": 0.30708661417322836
        },
        {
          "duration": 0.15340893750000362,
          "durationTicks": 216,
          "midi": 71,
          "name": "B4",
          "ticks": 53016,
          "time": 37.6533714375,
          "velocity": 0.30708661417322836
        },
        {
          "duration": 0.1534089374999965,
          "durationTicks": 216,
          "midi": 66,
          "name": "F#4",
          "ticks": 53136,
          "time": 37.738598625,
          "velocity": 0.30708661417322836
        },
        {
          "duration": 0.1534089374999965,
          "durationTicks": 216,
          "midi": 42,
          "name": "F#2",
          "ticks": 53136,
          "time": 37.738598625,
          "velocity": 0.30708661417322836
        },
        {
          "duration": 0.1534089374999965,
          "durationTicks": 216,
          "midi": 42,
          "name": "F#2",
          "ticks": 53136,
          "time": 37.738598625,
          "velocity": 0.30708661417322836
        },
        {
          "duration": 0.1534089374999965,
          "durationTicks": 216,
          "midi": 66,
          "name": "F#4",
          "ticks": 53136,
          "time": 37.738598625,
          "velocity": 0.30708661417322836
        },
        {
          "duration": 0.15340893750000362,
          "durationTicks": 216,
          "midi": 42,
          "name": "F#2",
          "ticks": 53160,
          "time": 37.7556440625,
          "velocity": 0.30708661417322836
        },
        {
          "duration": 0.15340893750000362,
          "durationTicks": 216,
          "midi": 66,
          "name": "F#4",
          "ticks": 53160,
          "time": 37.7556440625,
          "velocity": 0.30708661417322836
        },
        {
          "duration": 0.15340893750000362,
          "durationTicks": 216,
          "midi": 51,
          "name": "D#3",
          "ticks": 53424,
          "time": 37.943143875,
          "velocity": 0.30708661417322836
        },
        {
          "duration": 0.15340893750000362,
          "durationTicks": 216,
          "midi": 59,
          "name": "B3",
          "ticks": 53424,
          "time": 37.943143875,
          "velocity": 0.30708661417322836
        },
        {
          "duration": 0.15340893750000362,
          "durationTicks": 216,
          "midi": 59,
          "name": "B3",
          "ticks": 53424,
          "time": 37.943143875,
          "velocity": 0.30708661417322836
        },
        {
          "duration": 0.15340893750000362,
          "durationTicks": 216,
          "midi": 71,
          "name": "B4",
          "ticks": 53424,
          "time": 37.943143875,
          "velocity": 0.30708661417322836
        },
        {
          "duration": 0.15340893750000362,
          "durationTicks": 216,
          "midi": 71,
          "name": "B4",
          "ticks": 53424,
          "time": 37.943143875,
          "velocity": 0.30708661417322836
        },
        {
          "duration": 0.15340893750000362,
          "durationTicks": 216,
          "midi": 51,
          "name": "D#3",
          "ticks": 53424,
          "time": 37.943143875,
          "velocity": 0.30708661417322836
        },
        {
          "duration": 0.15340893750000362,
          "durationTicks": 216,
          "midi": 51,
          "name": "D#3",
          "ticks": 53448,
          "time": 37.9601893125,
          "velocity": 0.30708661417322836
        },
        {
          "duration": 0.15340893750000362,
          "durationTicks": 216,
          "midi": 59,
          "name": "B3",
          "ticks": 53448,
          "time": 37.9601893125,
          "velocity": 0.30708661417322836
        },
        {
          "duration": 0.15340893750000362,
          "durationTicks": 216,
          "midi": 71,
          "name": "B4",
          "ticks": 53448,
          "time": 37.9601893125,
          "velocity": 0.30708661417322836
        },
        {
          "duration": 0.15340893750000362,
          "durationTicks": 216,
          "midi": 52,
          "name": "E3",
          "ticks": 53712,
          "time": 38.147689125,
          "velocity": 0.30708661417322836
        },
        {
          "duration": 0.15340893750000362,
          "durationTicks": 216,
          "midi": 56,
          "name": "G#3",
          "ticks": 53712,
          "time": 38.147689125,
          "velocity": 0.30708661417322836
        },
        {
          "duration": 0.15340893750000362,
          "durationTicks": 216,
          "midi": 52,
          "name": "E3",
          "ticks": 53712,
          "time": 38.147689125,
          "velocity": 0.30708661417322836
        },
        {
          "duration": 0.15340893750000362,
          "durationTicks": 216,
          "midi": 47,
          "name": "B2",
          "ticks": 53712,
          "time": 38.147689125,
          "velocity": 0.30708661417322836
        },
        {
          "duration": 0.15340893750000362,
          "durationTicks": 216,
          "midi": 56,
          "name": "G#3",
          "ticks": 53712,
          "time": 38.147689125,
          "velocity": 0.30708661417322836
        },
        {
          "duration": 0.15340893750000362,
          "durationTicks": 216,
          "midi": 47,
          "name": "B2",
          "ticks": 53712,
          "time": 38.147689125,
          "velocity": 0.30708661417322836
        },
        {
          "duration": 0.15340893750000362,
          "durationTicks": 216,
          "midi": 68,
          "name": "G#4",
          "ticks": 53712,
          "time": 38.147689125,
          "velocity": 0.30708661417322836
        },
        {
          "duration": 0.15340893750000362,
          "durationTicks": 216,
          "midi": 68,
          "name": "G#4",
          "ticks": 53712,
          "time": 38.147689125,
          "velocity": 0.30708661417322836
        },
        {
          "duration": 0.1534089374999965,
          "durationTicks": 216,
          "midi": 47,
          "name": "B2",
          "ticks": 53736,
          "time": 38.1647345625,
          "velocity": 0.30708661417322836
        },
        {
          "duration": 0.1534089374999965,
          "durationTicks": 216,
          "midi": 52,
          "name": "E3",
          "ticks": 53736,
          "time": 38.1647345625,
          "velocity": 0.30708661417322836
        },
        {
          "duration": 0.1534089374999965,
          "durationTicks": 216,
          "midi": 56,
          "name": "G#3",
          "ticks": 53736,
          "time": 38.1647345625,
          "velocity": 0.30708661417322836
        },
        {
          "duration": 0.1534089374999965,
          "durationTicks": 216,
          "midi": 68,
          "name": "G#4",
          "ticks": 53736,
          "time": 38.1647345625,
          "velocity": 0.30708661417322836
        },
        {
          "duration": 0.35795418749999897,
          "durationTicks": 504,
          "midi": 40,
          "name": "E2",
          "ticks": 54288,
          "time": 38.556779625,
          "velocity": 0.30708661417322836
        },
        {
          "duration": 0.35795418749999897,
          "durationTicks": 504,
          "midi": 40,
          "name": "E2",
          "ticks": 54288,
          "time": 38.556779625,
          "velocity": 0.30708661417322836
        },
        {
          "duration": 0.4261359374999998,
          "durationTicks": 600,
          "midi": 28,
          "name": "E1",
          "ticks": 54288,
          "time": 38.556779625,
          "velocity": 0.30708661417322836
        },
        {
          "duration": 0.35795418749999897,
          "durationTicks": 504,
          "midi": 52,
          "name": "E3",
          "ticks": 54288,
          "time": 38.556779625,
          "velocity": 0.30708661417322836
        },
        {
          "duration": 0.35795418749999897,
          "durationTicks": 504,
          "midi": 52,
          "name": "E3",
          "ticks": 54288,
          "time": 38.556779625,
          "velocity": 0.30708661417322836
        },
        {
          "duration": 0.4261359374999998,
          "durationTicks": 600,
          "midi": 28,
          "name": "E1",
          "ticks": 54288,
          "time": 38.556779625,
          "velocity": 0.30708661417322836
        },
        {
          "duration": 0.35795418749999897,
          "durationTicks": 504,
          "midi": 40,
          "name": "E2",
          "ticks": 54312,
          "time": 38.5738250625,
          "velocity": 0.30708661417322836
        },
        {
          "duration": 0.4261359374999998,
          "durationTicks": 600,
          "midi": 28,
          "name": "E1",
          "ticks": 54312,
          "time": 38.5738250625,
          "velocity": 0.30708661417322836
        },
        {
          "duration": 0.35795418749999897,
          "durationTicks": 504,
          "midi": 52,
          "name": "E3",
          "ticks": 54312,
          "time": 38.5738250625,
          "velocity": 0.30708661417322836
        },
        {
          "duration": 0.1534089374999965,
          "durationTicks": 216,
          "midi": 42,
          "name": "F#2",
          "ticks": 54672,
          "time": 38.829506625,
          "velocity": 0.30708661417322836
        },
        {
          "duration": 0.1534089374999965,
          "durationTicks": 216,
          "midi": 54,
          "name": "F#3",
          "ticks": 54672,
          "time": 38.829506625,
          "velocity": 0.30708661417322836
        },
        {
          "duration": 0.1534089374999965,
          "durationTicks": 216,
          "midi": 42,
          "name": "F#2",
          "ticks": 54672,
          "time": 38.829506625,
          "velocity": 0.30708661417322836
        },
        {
          "duration": 0.1534089374999965,
          "durationTicks": 216,
          "midi": 54,
          "name": "F#3",
          "ticks": 54672,
          "time": 38.829506625,
          "velocity": 0.30708661417322836
        },
        {
          "duration": 0.1534089374999965,
          "durationTicks": 216,
          "midi": 54,
          "name": "F#3",
          "ticks": 54696,
          "time": 38.8465520625,
          "velocity": 0.30708661417322836
        },
        {
          "duration": 0.1534089374999965,
          "durationTicks": 216,
          "midi": 42,
          "name": "F#2",
          "ticks": 54696,
          "time": 38.8465520625,
          "velocity": 0.30708661417322836
        },
        {
          "duration": 0.1534089374999965,
          "durationTicks": 216,
          "midi": 56,
          "name": "G#3",
          "ticks": 54768,
          "time": 38.897688375,
          "velocity": 0.30708661417322836
        },
        {
          "duration": 0.1534089374999965,
          "durationTicks": 216,
          "midi": 56,
          "name": "G#3",
          "ticks": 54768,
          "time": 38.897688375,
          "velocity": 0.30708661417322836
        },
        {
          "duration": 0.1534089374999965,
          "durationTicks": 216,
          "midi": 44,
          "name": "G#2",
          "ticks": 54768,
          "time": 38.897688375,
          "velocity": 0.30708661417322836
        },
        {
          "duration": 0.28977243749999815,
          "durationTicks": 408,
          "midi": 32,
          "name": "G#1",
          "ticks": 54768,
          "time": 38.897688375,
          "velocity": 0.30708661417322836
        },
        {
          "duration": 0.1534089374999965,
          "durationTicks": 216,
          "midi": 44,
          "name": "G#2",
          "ticks": 54768,
          "time": 38.897688375,
          "velocity": 0.30708661417322836
        },
        {
          "duration": 0.28977243749999815,
          "durationTicks": 408,
          "midi": 32,
          "name": "G#1",
          "ticks": 54768,
          "time": 38.897688375,
          "velocity": 0.30708661417322836
        },
        {
          "duration": 0.28977243750000525,
          "durationTicks": 408,
          "midi": 32,
          "name": "G#1",
          "ticks": 54792,
          "time": 38.914733812499996,
          "velocity": 0.30708661417322836
        },
        {
          "duration": 0.15340893750000362,
          "durationTicks": 216,
          "midi": 56,
          "name": "G#3",
          "ticks": 54792,
          "time": 38.914733812499996,
          "velocity": 0.30708661417322836
        },
        {
          "duration": 0.15340893750000362,
          "durationTicks": 216,
          "midi": 44,
          "name": "G#2",
          "ticks": 54792,
          "time": 38.914733812499996,
          "velocity": 0.30708661417322836
        },
        {
          "duration": 0.1534089374999965,
          "durationTicks": 216,
          "midi": 45,
          "name": "A2",
          "ticks": 54864,
          "time": 38.965870125,
          "velocity": 0.30708661417322836
        },
        {
          "duration": 0.1534089374999965,
          "durationTicks": 216,
          "midi": 64,
          "name": "E4",
          "ticks": 54864,
          "time": 38.965870125,
          "velocity": 0.30708661417322836
        },
        {
          "duration": 0.1534089374999965,
          "durationTicks": 216,
          "midi": 45,
          "name": "A2",
          "ticks": 54864,
          "time": 38.965870125,
          "velocity": 0.30708661417322836
        },
        {
          "duration": 0.1534089374999965,
          "durationTicks": 216,
          "midi": 64,
          "name": "E4",
          "ticks": 54864,
          "time": 38.965870125,
          "velocity": 0.30708661417322836
        },
        {
          "duration": 0.15340893750000362,
          "durationTicks": 216,
          "midi": 64,
          "name": "E4",
          "ticks": 54888,
          "time": 38.9829155625,
          "velocity": 0.30708661417322836
        },
        {
          "duration": 0.15340893750000362,
          "durationTicks": 216,
          "midi": 45,
          "name": "A2",
          "ticks": 54888,
          "time": 38.9829155625,
          "velocity": 0.30708661417322836
        },
        {
          "duration": 0.1534089374999965,
          "durationTicks": 216,
          "midi": 64,
          "name": "E4",
          "ticks": 55008,
          "time": 39.06814275,
          "velocity": 0.30708661417322836
        },
        {
          "duration": 0.1534089374999965,
          "durationTicks": 216,
          "midi": 64,
          "name": "E4",
          "ticks": 55008,
          "time": 39.06814275,
          "velocity": 0.30708661417322836
        },
        {
          "duration": 0.1534089374999965,
          "durationTicks": 216,
          "midi": 64,
          "name": "E4",
          "ticks": 55032,
          "time": 39.0851881875,
          "velocity": 0.30708661417322836
        },
        {
          "duration": 0.15340893750000362,
          "durationTicks": 216,
          "midi": 48,
          "name": "C3",
          "ticks": 55152,
          "time": 39.170415375,
          "velocity": 0.30708661417322836
        },
        {
          "duration": 0.15340893750000362,
          "durationTicks": 216,
          "midi": 64,
          "name": "E4",
          "ticks": 55152,
          "time": 39.170415375,
          "velocity": 0.30708661417322836
        },
        {
          "duration": 0.15340893750000362,
          "durationTicks": 216,
          "midi": 52,
          "name": "E3",
          "ticks": 55152,
          "time": 39.170415375,
          "velocity": 0.30708661417322836
        },
        {
          "duration": 0.15340893750000362,
          "durationTicks": 216,
          "midi": 52,
          "name": "E3",
          "ticks": 55152,
          "time": 39.170415375,
          "velocity": 0.30708661417322836
        },
        {
          "duration": 0.15340893750000362,
          "durationTicks": 216,
          "midi": 48,
          "name": "C3",
          "ticks": 55152,
          "time": 39.170415375,
          "velocity": 0.30708661417322836
        },
        {
          "duration": 0.15340893750000362,
          "durationTicks": 216,
          "midi": 64,
          "name": "E4",
          "ticks": 55152,
          "time": 39.170415375,
          "velocity": 0.30708661417322836
        },
        {
          "duration": 0.15340893750000362,
          "durationTicks": 216,
          "midi": 52,
          "name": "E3",
          "ticks": 55176,
          "time": 39.1874608125,
          "velocity": 0.30708661417322836
        },
        {
          "duration": 0.15340893750000362,
          "durationTicks": 216,
          "midi": 48,
          "name": "C3",
          "ticks": 55176,
          "time": 39.1874608125,
          "velocity": 0.30708661417322836
        },
        {
          "duration": 0.15340893750000362,
          "durationTicks": 216,
          "midi": 64,
          "name": "E4",
          "ticks": 55176,
          "time": 39.1874608125,
          "velocity": 0.30708661417322836
        },
        {
          "duration": 0.1534089374999965,
          "durationTicks": 216,
          "midi": 64,
          "name": "E4",
          "ticks": 55296,
          "time": 39.272688,
          "velocity": 0.30708661417322836
        },
        {
          "duration": 0.1534089374999965,
          "durationTicks": 216,
          "midi": 64,
          "name": "E4",
          "ticks": 55296,
          "time": 39.272688,
          "velocity": 0.30708661417322836
        },
        {
          "duration": 0.15340893750000362,
          "durationTicks": 216,
          "midi": 64,
          "name": "E4",
          "ticks": 55320,
          "time": 39.2897334375,
          "velocity": 0.30708661417322836
        },
        {
          "duration": 0.1534089374999965,
          "durationTicks": 216,
          "midi": 40,
          "name": "E2",
          "ticks": 55440,
          "time": 39.374960625,
          "velocity": 0.30708661417322836
        },
        {
          "duration": 0.1534089374999965,
          "durationTicks": 216,
          "midi": 64,
          "name": "E4",
          "ticks": 55440,
          "time": 39.374960625,
          "velocity": 0.30708661417322836
        },
        {
          "duration": 0.1534089374999965,
          "durationTicks": 216,
          "midi": 40,
          "name": "E2",
          "ticks": 55440,
          "time": 39.374960625,
          "velocity": 0.30708661417322836
        },
        {
          "duration": 0.1534089374999965,
          "durationTicks": 216,
          "midi": 64,
          "name": "E4",
          "ticks": 55440,
          "time": 39.374960625,
          "velocity": 0.30708661417322836
        },
        {
          "duration": 0.1534089374999965,
          "durationTicks": 216,
          "midi": 40,
          "name": "E2",
          "ticks": 55464,
          "time": 39.3920060625,
          "velocity": 0.30708661417322836
        },
        {
          "duration": 0.1534089374999965,
          "durationTicks": 216,
          "midi": 64,
          "name": "E4",
          "ticks": 55464,
          "time": 39.3920060625,
          "velocity": 0.30708661417322836
        },
        {
          "duration": 0.15340893750000362,
          "durationTicks": 216,
          "midi": 64,
          "name": "E4",
          "ticks": 55584,
          "time": 39.47723325,
          "velocity": 0.30708661417322836
        },
        {
          "duration": 0.15340893750000362,
          "durationTicks": 216,
          "midi": 64,
          "name": "E4",
          "ticks": 55584,
          "time": 39.47723325,
          "velocity": 0.30708661417322836
        },
        {
          "duration": 0.1534089374999965,
          "durationTicks": 216,
          "midi": 64,
          "name": "E4",
          "ticks": 55608,
          "time": 39.4942786875,
          "velocity": 0.30708661417322836
        },
        {
          "duration": 0.1534089374999965,
          "durationTicks": 216,
          "midi": 48,
          "name": "C3",
          "ticks": 55728,
          "time": 39.579505875,
          "velocity": 0.30708661417322836
        },
        {
          "duration": 0.1534089374999965,
          "durationTicks": 216,
          "midi": 48,
          "name": "C3",
          "ticks": 55728,
          "time": 39.579505875,
          "velocity": 0.30708661417322836
        },
        {
          "duration": 0.1534089374999965,
          "durationTicks": 216,
          "midi": 64,
          "name": "E4",
          "ticks": 55728,
          "time": 39.579505875,
          "velocity": 0.30708661417322836
        },
        {
          "duration": 0.1534089374999965,
          "durationTicks": 216,
          "midi": 52,
          "name": "E3",
          "ticks": 55728,
          "time": 39.579505875,
          "velocity": 0.30708661417322836
        },
        {
          "duration": 0.1534089374999965,
          "durationTicks": 216,
          "midi": 52,
          "name": "E3",
          "ticks": 55728,
          "time": 39.579505875,
          "velocity": 0.30708661417322836
        },
        {
          "duration": 0.1534089374999965,
          "durationTicks": 216,
          "midi": 64,
          "name": "E4",
          "ticks": 55728,
          "time": 39.579505875,
          "velocity": 0.30708661417322836
        },
        {
          "duration": 0.15340893750000362,
          "durationTicks": 216,
          "midi": 64,
          "name": "E4",
          "ticks": 55752,
          "time": 39.5965513125,
          "velocity": 0.30708661417322836
        },
        {
          "duration": 0.15340893750000362,
          "durationTicks": 216,
          "midi": 52,
          "name": "E3",
          "ticks": 55752,
          "time": 39.5965513125,
          "velocity": 0.30708661417322836
        },
        {
          "duration": 0.15340893750000362,
          "durationTicks": 216,
          "midi": 48,
          "name": "C3",
          "ticks": 55752,
          "time": 39.5965513125,
          "velocity": 0.30708661417322836
        },
        {
          "duration": 0.1534089374999965,
          "durationTicks": 216,
          "midi": 64,
          "name": "E4",
          "ticks": 55872,
          "time": 39.6817785,
          "velocity": 0.30708661417322836
        },
        {
          "duration": 0.1534089374999965,
          "durationTicks": 216,
          "midi": 64,
          "name": "E4",
          "ticks": 55872,
          "time": 39.6817785,
          "velocity": 0.30708661417322836
        },
        {
          "duration": 0.1534089374999965,
          "durationTicks": 216,
          "midi": 64,
          "name": "E4",
          "ticks": 55896,
          "time": 39.6988239375,
          "velocity": 0.30708661417322836
        },
        {
          "duration": 0.15340893750000362,
          "durationTicks": 216,
          "midi": 64,
          "name": "E4",
          "ticks": 56016,
          "time": 39.784051125,
          "velocity": 0.30708661417322836
        },
        {
          "duration": 0.15340893750000362,
          "durationTicks": 216,
          "midi": 64,
          "name": "E4",
          "ticks": 56016,
          "time": 39.784051125,
          "velocity": 0.30708661417322836
        },
        {
          "duration": 0.28977243750000525,
          "durationTicks": 408,
          "midi": 45,
          "name": "A2",
          "ticks": 56016,
          "time": 39.784051125,
          "velocity": 0.30708661417322836
        },
        {
          "duration": 0.28977243750000525,
          "durationTicks": 408,
          "midi": 45,
          "name": "A2",
          "ticks": 56016,
          "time": 39.784051125,
          "velocity": 0.30708661417322836
        },
        {
          "duration": 0.28977243749999815,
          "durationTicks": 408,
          "midi": 45,
          "name": "A2",
          "ticks": 56040,
          "time": 39.8010965625,
          "velocity": 0.30708661417322836
        },
        {
          "duration": 0.1534089374999965,
          "durationTicks": 216,
          "midi": 64,
          "name": "E4",
          "ticks": 56040,
          "time": 39.8010965625,
          "velocity": 0.30708661417322836
        },
        {
          "duration": 0.1534089374999965,
          "durationTicks": 216,
          "midi": 64,
          "name": "E4",
          "ticks": 56160,
          "time": 39.88632375,
          "velocity": 0.30708661417322836
        },
        {
          "duration": 0.1534089374999965,
          "durationTicks": 216,
          "midi": 64,
          "name": "E4",
          "ticks": 56160,
          "time": 39.88632375,
          "velocity": 0.30708661417322836
        },
        {
          "duration": 0.15340893750000362,
          "durationTicks": 216,
          "midi": 64,
          "name": "E4",
          "ticks": 56184,
          "time": 39.9033691875,
          "velocity": 0.30708661417322836
        },
        {
          "duration": 0.1534089374999965,
          "durationTicks": 216,
          "midi": 64,
          "name": "E4",
          "ticks": 56304,
          "time": 39.988596375,
          "velocity": 0.30708661417322836
        },
        {
          "duration": 0.1534089374999965,
          "durationTicks": 216,
          "midi": 48,
          "name": "C3",
          "ticks": 56304,
          "time": 39.988596375,
          "velocity": 0.30708661417322836
        },
        {
          "duration": 0.1534089374999965,
          "durationTicks": 216,
          "midi": 64,
          "name": "E4",
          "ticks": 56304,
          "time": 39.988596375,
          "velocity": 0.30708661417322836
        },
        {
          "duration": 0.1534089374999965,
          "durationTicks": 216,
          "midi": 52,
          "name": "E3",
          "ticks": 56304,
          "time": 39.988596375,
          "velocity": 0.30708661417322836
        },
        {
          "duration": 0.1534089374999965,
          "durationTicks": 216,
          "midi": 52,
          "name": "E3",
          "ticks": 56304,
          "time": 39.988596375,
          "velocity": 0.30708661417322836
        },
        {
          "duration": 0.1534089374999965,
          "durationTicks": 216,
          "midi": 48,
          "name": "C3",
          "ticks": 56304,
          "time": 39.988596375,
          "velocity": 0.30708661417322836
        },
        {
          "duration": 0.1534089374999965,
          "durationTicks": 216,
          "midi": 52,
          "name": "E3",
          "ticks": 56328,
          "time": 40.0056418125,
          "velocity": 0.30708661417322836
        },
        {
          "duration": 0.1534089374999965,
          "durationTicks": 216,
          "midi": 48,
          "name": "C3",
          "ticks": 56328,
          "time": 40.0056418125,
          "velocity": 0.30708661417322836
        },
        {
          "duration": 0.1534089374999965,
          "durationTicks": 216,
          "midi": 64,
          "name": "E4",
          "ticks": 56328,
          "time": 40.0056418125,
          "velocity": 0.30708661417322836
        },
        {
          "duration": 0.15340893750000362,
          "durationTicks": 216,
          "midi": 64,
          "name": "E4",
          "ticks": 56448,
          "time": 40.090869,
          "velocity": 0.30708661417322836
        },
        {
          "duration": 0.15340893750000362,
          "durationTicks": 216,
          "midi": 64,
          "name": "E4",
          "ticks": 56448,
          "time": 40.090869,
          "velocity": 0.30708661417322836
        },
        {
          "duration": 0.1534089374999965,
          "durationTicks": 216,
          "midi": 64,
          "name": "E4",
          "ticks": 56472,
          "time": 40.1079144375,
          "velocity": 0.30708661417322836
        },
        {
          "duration": 0.1534089374999965,
          "durationTicks": 216,
          "midi": 64,
          "name": "E4",
          "ticks": 56592,
          "time": 40.193141625,
          "velocity": 0.30708661417322836
        },
        {
          "duration": 0.1534089374999965,
          "durationTicks": 216,
          "midi": 40,
          "name": "E2",
          "ticks": 56592,
          "time": 40.193141625,
          "velocity": 0.30708661417322836
        },
        {
          "duration": 0.1534089374999965,
          "durationTicks": 216,
          "midi": 40,
          "name": "E2",
          "ticks": 56592,
          "time": 40.193141625,
          "velocity": 0.30708661417322836
        },
        {
          "duration": 0.1534089374999965,
          "durationTicks": 216,
          "midi": 64,
          "name": "E4",
          "ticks": 56592,
          "time": 40.193141625,
          "velocity": 0.30708661417322836
        },
        {
          "duration": 0.15340893750000362,
          "durationTicks": 216,
          "midi": 64,
          "name": "E4",
          "ticks": 56616,
          "time": 40.2101870625,
          "velocity": 0.30708661417322836
        },
        {
          "duration": 0.15340893750000362,
          "durationTicks": 216,
          "midi": 40,
          "name": "E2",
          "ticks": 56616,
          "time": 40.2101870625,
          "velocity": 0.30708661417322836
        },
        {
          "duration": 0.1534089374999965,
          "durationTicks": 216,
          "midi": 64,
          "name": "E4",
          "ticks": 56736,
          "time": 40.29541425,
          "velocity": 0.30708661417322836
        },
        {
          "duration": 0.1534089374999965,
          "durationTicks": 216,
          "midi": 64,
          "name": "E4",
          "ticks": 56736,
          "time": 40.29541425,
          "velocity": 0.30708661417322836
        },
        {
          "duration": 0.1534089374999965,
          "durationTicks": 216,
          "midi": 64,
          "name": "E4",
          "ticks": 56760,
          "time": 40.3124596875,
          "velocity": 0.30708661417322836
        },
        {
          "duration": 0.15340893750000362,
          "durationTicks": 216,
          "midi": 48,
          "name": "C3",
          "ticks": 56880,
          "time": 40.397686875,
          "velocity": 0.30708661417322836
        },
        {
          "duration": 0.15340893750000362,
          "durationTicks": 216,
          "midi": 52,
          "name": "E3",
          "ticks": 56880,
          "time": 40.397686875,
          "velocity": 0.30708661417322836
        },
        {
          "duration": 0.15340893750000362,
          "durationTicks": 216,
          "midi": 48,
          "name": "C3",
          "ticks": 56880,
          "time": 40.397686875,
          "velocity": 0.30708661417322836
        },
        {
          "duration": 0.15340893750000362,
          "durationTicks": 216,
          "midi": 52,
          "name": "E3",
          "ticks": 56880,
          "time": 40.397686875,
          "velocity": 0.30708661417322836
        },
        {
          "duration": 0.15340893750000362,
          "durationTicks": 216,
          "midi": 64,
          "name": "E4",
          "ticks": 56880,
          "time": 40.397686875,
          "velocity": 0.30708661417322836
        },
        {
          "duration": 0.15340893750000362,
          "durationTicks": 216,
          "midi": 64,
          "name": "E4",
          "ticks": 56880,
          "time": 40.397686875,
          "velocity": 0.30708661417322836
        },
        {
          "duration": 0.1534089374999965,
          "durationTicks": 216,
          "midi": 64,
          "name": "E4",
          "ticks": 56904,
          "time": 40.4147323125,
          "velocity": 0.30708661417322836
        },
        {
          "duration": 0.1534089374999965,
          "durationTicks": 216,
          "midi": 52,
          "name": "E3",
          "ticks": 56904,
          "time": 40.4147323125,
          "velocity": 0.30708661417322836
        },
        {
          "duration": 0.1534089374999965,
          "durationTicks": 216,
          "midi": 48,
          "name": "C3",
          "ticks": 56904,
          "time": 40.4147323125,
          "velocity": 0.30708661417322836
        },
        {
          "duration": 0.1534089374999965,
          "durationTicks": 216,
          "midi": 64,
          "name": "E4",
          "ticks": 57024,
          "time": 40.4999595,
          "velocity": 0.30708661417322836
        },
        {
          "duration": 0.1534089374999965,
          "durationTicks": 216,
          "midi": 64,
          "name": "E4",
          "ticks": 57024,
          "time": 40.4999595,
          "velocity": 0.30708661417322836
        },
        {
          "duration": 0.15340893750000362,
          "durationTicks": 216,
          "midi": 64,
          "name": "E4",
          "ticks": 57048,
          "time": 40.5170049375,
          "velocity": 0.30708661417322836
        },
        {
          "duration": 0.1534089374999965,
          "durationTicks": 216,
          "midi": 64,
          "name": "E4",
          "ticks": 57168,
          "time": 40.602232125,
          "velocity": 0.30708661417322836
        },
        {
          "duration": 0.28977243749999815,
          "durationTicks": 408,
          "midi": 45,
          "name": "A2",
          "ticks": 57168,
          "time": 40.602232125,
          "velocity": 0.30708661417322836
        },
        {
          "duration": 0.1534089374999965,
          "durationTicks": 216,
          "midi": 64,
          "name": "E4",
          "ticks": 57168,
          "time": 40.602232125,
          "velocity": 0.30708661417322836
        },
        {
          "duration": 0.28977243749999815,
          "durationTicks": 408,
          "midi": 45,
          "name": "A2",
          "ticks": 57168,
          "time": 40.602232125,
          "velocity": 0.30708661417322836
        },
        {
          "duration": 0.28977243749999815,
          "durationTicks": 408,
          "midi": 45,
          "name": "A2",
          "ticks": 57192,
          "time": 40.6192775625,
          "velocity": 0.30708661417322836
        },
        {
          "duration": 0.1534089374999965,
          "durationTicks": 216,
          "midi": 64,
          "name": "E4",
          "ticks": 57192,
          "time": 40.6192775625,
          "velocity": 0.30708661417322836
        },
        {
          "duration": 0.5624994375000014,
          "durationTicks": 792,
          "midi": 28,
          "name": "E1",
          "ticks": 57264,
          "time": 40.670413875,
          "velocity": 0.30708661417322836
        },
        {
          "duration": 0.5624994375000014,
          "durationTicks": 792,
          "midi": 28,
          "name": "E1",
          "ticks": 57264,
          "time": 40.670413875,
          "velocity": 0.30708661417322836
        },
        {
          "duration": 0.5624994375000014,
          "durationTicks": 792,
          "midi": 28,
          "name": "E1",
          "ticks": 57288,
          "time": 40.687459312499996,
          "velocity": 0.30708661417322836
        },
        {
          "duration": 0.15340893750000362,
          "durationTicks": 216,
          "midi": 65,
          "name": "F4",
          "ticks": 57312,
          "time": 40.70450475,
          "velocity": 0.30708661417322836
        },
        {
          "duration": 0.15340893750000362,
          "durationTicks": 216,
          "midi": 65,
          "name": "F4",
          "ticks": 57312,
          "time": 40.70450475,
          "velocity": 0.30708661417322836
        },
        {
          "duration": 0.1534089374999965,
          "durationTicks": 216,
          "midi": 65,
          "name": "F4",
          "ticks": 57336,
          "time": 40.7215501875,
          "velocity": 0.30708661417322836
        },
        {
          "duration": 0.1534089374999965,
          "durationTicks": 216,
          "midi": 64,
          "name": "E4",
          "ticks": 57456,
          "time": 40.806777375,
          "velocity": 0.30708661417322836
        },
        {
          "duration": 0.1534089374999965,
          "durationTicks": 216,
          "midi": 48,
          "name": "C3",
          "ticks": 57456,
          "time": 40.806777375,
          "velocity": 0.30708661417322836
        },
        {
          "duration": 0.1534089374999965,
          "durationTicks": 216,
          "midi": 52,
          "name": "E3",
          "ticks": 57456,
          "time": 40.806777375,
          "velocity": 0.30708661417322836
        },
        {
          "duration": 0.1534089374999965,
          "durationTicks": 216,
          "midi": 52,
          "name": "E3",
          "ticks": 57456,
          "time": 40.806777375,
          "velocity": 0.30708661417322836
        },
        {
          "duration": 0.1534089374999965,
          "durationTicks": 216,
          "midi": 64,
          "name": "E4",
          "ticks": 57456,
          "time": 40.806777375,
          "velocity": 0.30708661417322836
        },
        {
          "duration": 0.1534089374999965,
          "durationTicks": 216,
          "midi": 48,
          "name": "C3",
          "ticks": 57456,
          "time": 40.806777375,
          "velocity": 0.30708661417322836
        },
        {
          "duration": 0.15340893750000362,
          "durationTicks": 216,
          "midi": 52,
          "name": "E3",
          "ticks": 57480,
          "time": 40.8238228125,
          "velocity": 0.30708661417322836
        },
        {
          "duration": 0.15340893750000362,
          "durationTicks": 216,
          "midi": 64,
          "name": "E4",
          "ticks": 57480,
          "time": 40.8238228125,
          "velocity": 0.30708661417322836
        },
        {
          "duration": 0.15340893750000362,
          "durationTicks": 216,
          "midi": 48,
          "name": "C3",
          "ticks": 57480,
          "time": 40.8238228125,
          "velocity": 0.30708661417322836
        },
        {
          "duration": 0.1534089374999965,
          "durationTicks": 216,
          "midi": 63,
          "name": "D#4",
          "ticks": 57600,
          "time": 40.90905,
          "velocity": 0.30708661417322836
        },
        {
          "duration": 0.1534089374999965,
          "durationTicks": 216,
          "midi": 63,
          "name": "D#4",
          "ticks": 57600,
          "time": 40.90905,
          "velocity": 0.30708661417322836
        },
        {
          "duration": 0.1534089374999965,
          "durationTicks": 216,
          "midi": 63,
          "name": "D#4",
          "ticks": 57624,
          "time": 40.9260954375,
          "velocity": 0.30708661417322836
        },
        {
          "duration": 0.15340893750000362,
          "durationTicks": 216,
          "midi": 40,
          "name": "E2",
          "ticks": 57744,
          "time": 41.011322625,
          "velocity": 0.30708661417322836
        },
        {
          "duration": 0.22159068750000444,
          "durationTicks": 312,
          "midi": 64,
          "name": "E4",
          "ticks": 57744,
          "time": 41.011322625,
          "velocity": 0.30708661417322836
        },
        {
          "duration": 0.22159068750000444,
          "durationTicks": 312,
          "midi": 64,
          "name": "E4",
          "ticks": 57744,
          "time": 41.011322625,
          "velocity": 0.30708661417322836
        },
        {
          "duration": 0.15340893750000362,
          "durationTicks": 216,
          "midi": 40,
          "name": "E2",
          "ticks": 57744,
          "time": 41.011322625,
          "velocity": 0.30708661417322836
        },
        {
          "duration": 0.1534089374999965,
          "durationTicks": 216,
          "midi": 40,
          "name": "E2",
          "ticks": 57768,
          "time": 41.0283680625,
          "velocity": 0.30708661417322836
        },
        {
          "duration": 0.22159068749999733,
          "durationTicks": 312,
          "midi": 64,
          "name": "E4",
          "ticks": 57768,
          "time": 41.0283680625,
          "velocity": 0.30708661417322836
        },
        {
          "duration": 0.28977243749999815,
          "durationTicks": 408,
          "midi": 30,
          "name": "F#1",
          "ticks": 57840,
          "time": 41.079504375,
          "velocity": 0.30708661417322836
        },
        {
          "duration": 0.28977243749999815,
          "durationTicks": 408,
          "midi": 30,
          "name": "F#1",
          "ticks": 57840,
          "time": 41.079504375,
          "velocity": 0.30708661417322836
        },
        {
          "duration": 0.28977243749999815,
          "durationTicks": 408,
          "midi": 30,
          "name": "F#1",
          "ticks": 57864,
          "time": 41.0965498125,
          "velocity": 0.30708661417322836
        },
        {
          "duration": 0.1534089374999965,
          "durationTicks": 216,
          "midi": 69,
          "name": "A4",
          "ticks": 58032,
          "time": 41.215867875,
          "velocity": 0.30708661417322836
        },
        {
          "duration": 0.1534089374999965,
          "durationTicks": 216,
          "midi": 48,
          "name": "C3",
          "ticks": 58032,
          "time": 41.215867875,
          "velocity": 0.30708661417322836
        },
        {
          "duration": 0.1534089374999965,
          "durationTicks": 216,
          "midi": 52,
          "name": "E3",
          "ticks": 58032,
          "time": 41.215867875,
          "velocity": 0.30708661417322836
        },
        {
          "duration": 0.1534089374999965,
          "durationTicks": 216,
          "midi": 52,
          "name": "E3",
          "ticks": 58032,
          "time": 41.215867875,
          "velocity": 0.30708661417322836
        },
        {
          "duration": 0.1534089374999965,
          "durationTicks": 216,
          "midi": 69,
          "name": "A4",
          "ticks": 58032,
          "time": 41.215867875,
          "velocity": 0.30708661417322836
        },
        {
          "duration": 0.1534089374999965,
          "durationTicks": 216,
          "midi": 48,
          "name": "C3",
          "ticks": 58032,
          "time": 41.215867875,
          "velocity": 0.30708661417322836
        },
        {
          "duration": 0.1534089374999965,
          "durationTicks": 216,
          "midi": 48,
          "name": "C3",
          "ticks": 58056,
          "time": 41.2329133125,
          "velocity": 0.30708661417322836
        },
        {
          "duration": 0.1534089374999965,
          "durationTicks": 216,
          "midi": 52,
          "name": "E3",
          "ticks": 58056,
          "time": 41.2329133125,
          "velocity": 0.30708661417322836
        },
        {
          "duration": 0.1534089374999965,
          "durationTicks": 216,
          "midi": 69,
          "name": "A4",
          "ticks": 58056,
          "time": 41.2329133125,
          "velocity": 0.30708661417322836
        },
        {
          "duration": 0.15340893750000362,
          "durationTicks": 216,
          "midi": 72,
          "name": "C5",
          "ticks": 58176,
          "time": 41.3181405,
          "velocity": 0.30708661417322836
        },
        {
          "duration": 0.15340893750000362,
          "durationTicks": 216,
          "midi": 72,
          "name": "C5",
          "ticks": 58176,
          "time": 41.3181405,
          "velocity": 0.30708661417322836
        },
        {
          "duration": 0.1534089374999965,
          "durationTicks": 216,
          "midi": 72,
          "name": "C5",
          "ticks": 58200,
          "time": 41.3351859375,
          "velocity": 0.30708661417322836
        },
        {
          "duration": 0.28977243750000525,
          "durationTicks": 408,
          "midi": 45,
          "name": "A2",
          "ticks": 58320,
          "time": 41.420413124999996,
          "velocity": 0.30708661417322836
        },
        {
          "duration": 0.22159068750000444,
          "durationTicks": 312,
          "midi": 76,
          "name": "E5",
          "ticks": 58320,
          "time": 41.420413124999996,
          "velocity": 0.30708661417322836
        },
        {
          "duration": 0.28977243750000525,
          "durationTicks": 408,
          "midi": 45,
          "name": "A2",
          "ticks": 58320,
          "time": 41.420413124999996,
          "velocity": 0.30708661417322836
        },
        {
          "duration": 0.22159068750000444,
          "durationTicks": 312,
          "midi": 76,
          "name": "E5",
          "ticks": 58320,
          "time": 41.420413124999996,
          "velocity": 0.30708661417322836
        },
        {
          "duration": 0.22159068750000444,
          "durationTicks": 312,
          "midi": 76,
          "name": "E5",
          "ticks": 58344,
          "time": 41.4374585625,
          "velocity": 0.30708661417322836
        },
        {
          "duration": 0.28977243749999815,
          "durationTicks": 408,
          "midi": 45,
          "name": "A2",
          "ticks": 58344,
          "time": 41.4374585625,
          "velocity": 0.30708661417322836
        },
        {
          "duration": 0.15340893750000362,
          "durationTicks": 216,
          "midi": 52,
          "name": "E3",
          "ticks": 58608,
          "time": 41.624958375,
          "velocity": 0.30708661417322836
        },
        {
          "duration": 0.15340893750000362,
          "durationTicks": 216,
          "midi": 48,
          "name": "C3",
          "ticks": 58608,
          "time": 41.624958375,
          "velocity": 0.30708661417322836
        },
        {
          "duration": 0.15340893750000362,
          "durationTicks": 216,
          "midi": 48,
          "name": "C3",
          "ticks": 58608,
          "time": 41.624958375,
          "velocity": 0.30708661417322836
        },
        {
          "duration": 0.22159068750000444,
          "durationTicks": 312,
          "midi": 81,
          "name": "A5",
          "ticks": 58608,
          "time": 41.624958375,
          "velocity": 0.30708661417322836
        },
        {
          "duration": 0.22159068750000444,
          "durationTicks": 312,
          "midi": 81,
          "name": "A5",
          "ticks": 58608,
          "time": 41.624958375,
          "velocity": 0.30708661417322836
        },
        {
          "duration": 0.15340893750000362,
          "durationTicks": 216,
          "midi": 52,
          "name": "E3",
          "ticks": 58608,
          "time": 41.624958375,
          "velocity": 0.30708661417322836
        },
        {
          "duration": 0.1534089374999965,
          "durationTicks": 216,
          "midi": 48,
          "name": "C3",
          "ticks": 58632,
          "time": 41.6420038125,
          "velocity": 0.30708661417322836
        },
        {
          "duration": 0.1534089374999965,
          "durationTicks": 216,
          "midi": 52,
          "name": "E3",
          "ticks": 58632,
          "time": 41.6420038125,
          "velocity": 0.30708661417322836
        },
        {
          "duration": 0.22159068749999733,
          "durationTicks": 312,
          "midi": 81,
          "name": "A5",
          "ticks": 58632,
          "time": 41.6420038125,
          "velocity": 0.30708661417322836
        },
        {
          "duration": 0.4261359374999998,
          "durationTicks": 600,
          "midi": 84,
          "name": "C6",
          "ticks": 58896,
          "time": 41.829503625,
          "velocity": 0.30708661417322836
        },
        {
          "duration": 0.1534089374999965,
          "durationTicks": 216,
          "midi": 40,
          "name": "E2",
          "ticks": 58896,
          "time": 41.829503625,
          "velocity": 0.30708661417322836
        },
        {
          "duration": 0.1534089374999965,
          "durationTicks": 216,
          "midi": 40,
          "name": "E2",
          "ticks": 58896,
          "time": 41.829503625,
          "velocity": 0.30708661417322836
        },
        {
          "duration": 0.4261359374999998,
          "durationTicks": 600,
          "midi": 84,
          "name": "C6",
          "ticks": 58896,
          "time": 41.829503625,
          "velocity": 0.30708661417322836
        },
        {
          "duration": 0.4261359374999998,
          "durationTicks": 600,
          "midi": 84,
          "name": "C6",
          "ticks": 58920,
          "time": 41.8465490625,
          "velocity": 0.30708661417322836
        },
        {
          "duration": 0.1534089374999965,
          "durationTicks": 216,
          "midi": 40,
          "name": "E2",
          "ticks": 58920,
          "time": 41.8465490625,
          "velocity": 0.30708661417322836
        },
        {
          "duration": 0.15340893750000362,
          "durationTicks": 216,
          "midi": 52,
          "name": "E3",
          "ticks": 59184,
          "time": 42.034048874999996,
          "velocity": 0.30708661417322836
        },
        {
          "duration": 0.15340893750000362,
          "durationTicks": 216,
          "midi": 48,
          "name": "C3",
          "ticks": 59184,
          "time": 42.034048874999996,
          "velocity": 0.30708661417322836
        },
        {
          "duration": 0.15340893750000362,
          "durationTicks": 216,
          "midi": 48,
          "name": "C3",
          "ticks": 59184,
          "time": 42.034048874999996,
          "velocity": 0.30708661417322836
        },
        {
          "duration": 0.15340893750000362,
          "durationTicks": 216,
          "midi": 52,
          "name": "E3",
          "ticks": 59184,
          "time": 42.034048874999996,
          "velocity": 0.30708661417322836
        },
        {
          "duration": 0.15340893750000362,
          "durationTicks": 216,
          "midi": 52,
          "name": "E3",
          "ticks": 59208,
          "time": 42.0510943125,
          "velocity": 0.30708661417322836
        },
        {
          "duration": 0.15340893750000362,
          "durationTicks": 216,
          "midi": 48,
          "name": "C3",
          "ticks": 59208,
          "time": 42.0510943125,
          "velocity": 0.30708661417322836
        },
        {
          "duration": 0.15340893750000362,
          "durationTicks": 216,
          "midi": 86,
          "name": "D6",
          "ticks": 59472,
          "time": 42.238594125,
          "velocity": 0.30708661417322836
        },
        {
          "duration": 0.15340893750000362,
          "durationTicks": 216,
          "midi": 86,
          "name": "D6",
          "ticks": 59472,
          "time": 42.238594125,
          "velocity": 0.30708661417322836
        },
        {
          "duration": 0.22159068749999733,
          "durationTicks": 312,
          "midi": 50,
          "name": "D3",
          "ticks": 59472,
          "time": 42.238594125,
          "velocity": 0.30708661417322836
        },
        {
          "duration": 0.22159068749999733,
          "durationTicks": 312,
          "midi": 50,
          "name": "D3",
          "ticks": 59472,
          "time": 42.238594125,
          "velocity": 0.30708661417322836
        },
        {
          "duration": 0.22159068749999733,
          "durationTicks": 312,
          "midi": 50,
          "name": "D3",
          "ticks": 59496,
          "time": 42.2556395625,
          "velocity": 0.30708661417322836
        },
        {
          "duration": 0.1534089374999965,
          "durationTicks": 216,
          "midi": 86,
          "name": "D6",
          "ticks": 59496,
          "time": 42.2556395625,
          "velocity": 0.30708661417322836
        },
        {
          "duration": 0.15340893750000362,
          "durationTicks": 216,
          "midi": 84,
          "name": "C6",
          "ticks": 59616,
          "time": 42.340866749999996,
          "velocity": 0.30708661417322836
        },
        {
          "duration": 0.15340893750000362,
          "durationTicks": 216,
          "midi": 84,
          "name": "C6",
          "ticks": 59616,
          "time": 42.340866749999996,
          "velocity": 0.30708661417322836
        },
        {
          "duration": 0.15340893750000362,
          "durationTicks": 216,
          "midi": 84,
          "name": "C6",
          "ticks": 59640,
          "time": 42.3579121875,
          "velocity": 0.30708661417322836
        },
        {
          "duration": 0.1534089374999965,
          "durationTicks": 216,
          "midi": 59,
          "name": "B3",
          "ticks": 59760,
          "time": 42.443139375,
          "velocity": 0.30708661417322836
        },
        {
          "duration": 0.1534089374999965,
          "durationTicks": 216,
          "midi": 53,
          "name": "F3",
          "ticks": 59760,
          "time": 42.443139375,
          "velocity": 0.30708661417322836
        },
        {
          "duration": 0.1534089374999965,
          "durationTicks": 216,
          "midi": 59,
          "name": "B3",
          "ticks": 59760,
          "time": 42.443139375,
          "velocity": 0.30708661417322836
        },
        {
          "duration": 0.1534089374999965,
          "durationTicks": 216,
          "midi": 83,
          "name": "B5",
          "ticks": 59760,
          "time": 42.443139375,
          "velocity": 0.30708661417322836
        },
        {
          "duration": 0.1534089374999965,
          "durationTicks": 216,
          "midi": 83,
          "name": "B5",
          "ticks": 59760,
          "time": 42.443139375,
          "velocity": 0.30708661417322836
        },
        {
          "duration": 0.1534089374999965,
          "durationTicks": 216,
          "midi": 53,
          "name": "F3",
          "ticks": 59760,
          "time": 42.443139375,
          "velocity": 0.30708661417322836
        },
        {
          "duration": 0.15340893750000362,
          "durationTicks": 216,
          "midi": 83,
          "name": "B5",
          "ticks": 59784,
          "time": 42.460184812499996,
          "velocity": 0.30708661417322836
        },
        {
          "duration": 0.15340893750000362,
          "durationTicks": 216,
          "midi": 59,
          "name": "B3",
          "ticks": 59784,
          "time": 42.460184812499996,
          "velocity": 0.30708661417322836
        },
        {
          "duration": 0.15340893750000362,
          "durationTicks": 216,
          "midi": 53,
          "name": "F3",
          "ticks": 59784,
          "time": 42.460184812499996,
          "velocity": 0.30708661417322836
        },
        {
          "duration": 0.15340893750000362,
          "durationTicks": 216,
          "midi": 86,
          "name": "D6",
          "ticks": 59904,
          "time": 42.545412,
          "velocity": 0.30708661417322836
        },
        {
          "duration": 0.15340893750000362,
          "durationTicks": 216,
          "midi": 86,
          "name": "D6",
          "ticks": 59904,
          "time": 42.545412,
          "velocity": 0.30708661417322836
        },
        {
          "duration": 0.1534089374999965,
          "durationTicks": 216,
          "midi": 86,
          "name": "D6",
          "ticks": 59928,
          "time": 42.5624574375,
          "velocity": 0.30708661417322836
        },
        {
          "duration": 0.15340893750000362,
          "durationTicks": 216,
          "midi": 84,
          "name": "C6",
          "ticks": 60048,
          "time": 42.647684625,
          "velocity": 0.30708661417322836
        },
        {
          "duration": 0.22159068750000444,
          "durationTicks": 312,
          "midi": 48,
          "name": "C3",
          "ticks": 60048,
          "time": 42.647684625,
          "velocity": 0.30708661417322836
        },
        {
          "duration": 0.15340893750000362,
          "durationTicks": 216,
          "midi": 84,
          "name": "C6",
          "ticks": 60048,
          "time": 42.647684625,
          "velocity": 0.30708661417322836
        },
        {
          "duration": 0.22159068750000444,
          "durationTicks": 312,
          "midi": 48,
          "name": "C3",
          "ticks": 60048,
          "time": 42.647684625,
          "velocity": 0.30708661417322836
        },
        {
          "duration": 0.15340893750000362,
          "durationTicks": 216,
          "midi": 84,
          "name": "C6",
          "ticks": 60072,
          "time": 42.6647300625,
          "velocity": 0.30708661417322836
        },
        {
          "duration": 0.22159068750000444,
          "durationTicks": 312,
          "midi": 48,
          "name": "C3",
          "ticks": 60072,
          "time": 42.6647300625,
          "velocity": 0.30708661417322836
        },
        {
          "duration": 0.1534089374999965,
          "durationTicks": 216,
          "midi": 83,
          "name": "B5",
          "ticks": 60192,
          "time": 42.74995725,
          "velocity": 0.30708661417322836
        },
        {
          "duration": 0.1534089374999965,
          "durationTicks": 216,
          "midi": 83,
          "name": "B5",
          "ticks": 60192,
          "time": 42.74995725,
          "velocity": 0.30708661417322836
        },
        {
          "duration": 0.15340893750000362,
          "durationTicks": 216,
          "midi": 83,
          "name": "B5",
          "ticks": 60216,
          "time": 42.767002687499996,
          "velocity": 0.30708661417322836
        },
        {
          "duration": 0.15340893750000362,
          "durationTicks": 216,
          "midi": 60,
          "name": "C4",
          "ticks": 60336,
          "time": 42.852229875,
          "velocity": 0.30708661417322836
        },
        {
          "duration": 0.15340893750000362,
          "durationTicks": 216,
          "midi": 81,
          "name": "A5",
          "ticks": 60336,
          "time": 42.852229875,
          "velocity": 0.30708661417322836
        },
        {
          "duration": 0.15340893750000362,
          "durationTicks": 216,
          "midi": 52,
          "name": "E3",
          "ticks": 60336,
          "time": 42.852229875,
          "velocity": 0.30708661417322836
        },
        {
          "duration": 0.15340893750000362,
          "durationTicks": 216,
          "midi": 60,
          "name": "C4",
          "ticks": 60336,
          "time": 42.852229875,
          "velocity": 0.30708661417322836
        },
        {
          "duration": 0.15340893750000362,
          "durationTicks": 216,
          "midi": 52,
          "name": "E3",
          "ticks": 60336,
          "time": 42.852229875,
          "velocity": 0.30708661417322836
        },
        {
          "duration": 0.15340893750000362,
          "durationTicks": 216,
          "midi": 81,
          "name": "A5",
          "ticks": 60336,
          "time": 42.852229875,
          "velocity": 0.30708661417322836
        },
        {
          "duration": 0.1534089374999965,
          "durationTicks": 216,
          "midi": 81,
          "name": "A5",
          "ticks": 60360,
          "time": 42.8692753125,
          "velocity": 0.30708661417322836
        },
        {
          "duration": 0.1534089374999965,
          "durationTicks": 216,
          "midi": 52,
          "name": "E3",
          "ticks": 60360,
          "time": 42.8692753125,
          "velocity": 0.30708661417322836
        },
        {
          "duration": 0.1534089374999965,
          "durationTicks": 216,
          "midi": 60,
          "name": "C4",
          "ticks": 60360,
          "time": 42.8692753125,
          "velocity": 0.30708661417322836
        },
        {
          "duration": 0.15340893750000362,
          "durationTicks": 216,
          "midi": 84,
          "name": "C6",
          "ticks": 60480,
          "time": 42.9545025,
          "velocity": 0.30708661417322836
        },
        {
          "duration": 0.15340893750000362,
          "durationTicks": 216,
          "midi": 84,
          "name": "C6",
          "ticks": 60480,
          "time": 42.9545025,
          "velocity": 0.30708661417322836
        },
        {
          "duration": 0.15340893750000362,
          "durationTicks": 216,
          "midi": 84,
          "name": "C6",
          "ticks": 60504,
          "time": 42.9715479375,
          "velocity": 0.30708661417322836
        },
        {
          "duration": 0.1534089374999965,
          "durationTicks": 216,
          "midi": 83,
          "name": "B5",
          "ticks": 60624,
          "time": 43.056775125,
          "velocity": 0.30708661417322836
        },
        {
          "duration": 0.22159068749999733,
          "durationTicks": 312,
          "midi": 47,
          "name": "B2",
          "ticks": 60624,
          "time": 43.056775125,
          "velocity": 0.30708661417322836
        },
        {
          "duration": 0.22159068749999733,
          "durationTicks": 312,
          "midi": 47,
          "name": "B2",
          "ticks": 60624,
          "time": 43.056775125,
          "velocity": 0.30708661417322836
        },
        {
          "duration": 0.1534089374999965,
          "durationTicks": 216,
          "midi": 83,
          "name": "B5",
          "ticks": 60624,
          "time": 43.056775125,
          "velocity": 0.30708661417322836
        },
        {
          "duration": 0.15340893750000362,
          "durationTicks": 216,
          "midi": 83,
          "name": "B5",
          "ticks": 60648,
          "time": 43.073820562499996,
          "velocity": 0.30708661417322836
        },
        {
          "duration": 0.22159068750000444,
          "durationTicks": 312,
          "midi": 47,
          "name": "B2",
          "ticks": 60648,
          "time": 43.073820562499996,
          "velocity": 0.30708661417322836
        },
        {
          "duration": 0.15340893750000362,
          "durationTicks": 216,
          "midi": 81,
          "name": "A5",
          "ticks": 60768,
          "time": 43.15904775,
          "velocity": 0.30708661417322836
        },
        {
          "duration": 0.15340893750000362,
          "durationTicks": 216,
          "midi": 81,
          "name": "A5",
          "ticks": 60768,
          "time": 43.15904775,
          "velocity": 0.30708661417322836
        },
        {
          "duration": 0.1534089374999965,
          "durationTicks": 216,
          "midi": 81,
          "name": "A5",
          "ticks": 60792,
          "time": 43.1760931875,
          "velocity": 0.30708661417322836
        },
        {
          "duration": 0.15340893750000362,
          "durationTicks": 216,
          "midi": 50,
          "name": "D3",
          "ticks": 60912,
          "time": 43.261320375,
          "velocity": 0.30708661417322836
        },
        {
          "duration": 0.15340893750000362,
          "durationTicks": 216,
          "midi": 56,
          "name": "G#3",
          "ticks": 60912,
          "time": 43.261320375,
          "velocity": 0.30708661417322836
        },
        {
          "duration": 0.15340893750000362,
          "durationTicks": 216,
          "midi": 56,
          "name": "G#3",
          "ticks": 60912,
          "time": 43.261320375,
          "velocity": 0.30708661417322836
        },
        {
          "duration": 0.15340893750000362,
          "durationTicks": 216,
          "midi": 80,
          "name": "G#5",
          "ticks": 60912,
          "time": 43.261320375,
          "velocity": 0.30708661417322836
        },
        {
          "duration": 0.15340893750000362,
          "durationTicks": 216,
          "midi": 50,
          "name": "D3",
          "ticks": 60912,
          "time": 43.261320375,
          "velocity": 0.30708661417322836
        },
        {
          "duration": 0.15340893750000362,
          "durationTicks": 216,
          "midi": 80,
          "name": "G#5",
          "ticks": 60912,
          "time": 43.261320375,
          "velocity": 0.30708661417322836
        },
        {
          "duration": 0.15340893750000362,
          "durationTicks": 216,
          "midi": 80,
          "name": "G#5",
          "ticks": 60936,
          "time": 43.2783658125,
          "velocity": 0.30708661417322836
        },
        {
          "duration": 0.15340893750000362,
          "durationTicks": 216,
          "midi": 50,
          "name": "D3",
          "ticks": 60936,
          "time": 43.2783658125,
          "velocity": 0.30708661417322836
        },
        {
          "duration": 0.15340893750000362,
          "durationTicks": 216,
          "midi": 56,
          "name": "G#3",
          "ticks": 60936,
          "time": 43.2783658125,
          "velocity": 0.30708661417322836
        },
        {
          "duration": 0.1534089374999965,
          "durationTicks": 216,
          "midi": 83,
          "name": "B5",
          "ticks": 61056,
          "time": 43.363593,
          "velocity": 0.30708661417322836
        },
        {
          "duration": 0.1534089374999965,
          "durationTicks": 216,
          "midi": 83,
          "name": "B5",
          "ticks": 61056,
          "time": 43.363593,
          "velocity": 0.30708661417322836
        },
        {
          "duration": 0.15340893750000362,
          "durationTicks": 216,
          "midi": 83,
          "name": "B5",
          "ticks": 61080,
          "time": 43.3806384375,
          "velocity": 0.30708661417322836
        },
        {
          "duration": 0.22159068749999733,
          "durationTicks": 312,
          "midi": 45,
          "name": "A2",
          "ticks": 61200,
          "time": 43.465865625,
          "velocity": 0.30708661417322836
        },
        {
          "duration": 0.22159068749999733,
          "durationTicks": 312,
          "midi": 45,
          "name": "A2",
          "ticks": 61200,
          "time": 43.465865625,
          "velocity": 0.30708661417322836
        },
        {
          "duration": 0.15340893750000362,
          "durationTicks": 216,
          "midi": 81,
          "name": "A5",
          "ticks": 61200,
          "time": 43.465865625,
          "velocity": 0.30708661417322836
        },
        {
          "duration": 0.15340893750000362,
          "durationTicks": 216,
          "midi": 81,
          "name": "A5",
          "ticks": 61200,
          "time": 43.465865625,
          "velocity": 0.30708661417322836
        },
        {
          "duration": 0.1534089374999965,
          "durationTicks": 216,
          "midi": 81,
          "name": "A5",
          "ticks": 61224,
          "time": 43.4829110625,
          "velocity": 0.30708661417322836
        },
        {
          "duration": 0.22159068749999733,
          "durationTicks": 312,
          "midi": 45,
          "name": "A2",
          "ticks": 61224,
          "time": 43.4829110625,
          "velocity": 0.30708661417322836
        },
        {
          "duration": 0.15340893750000362,
          "durationTicks": 216,
          "midi": 76,
          "name": "E5",
          "ticks": 61344,
          "time": 43.56813825,
          "velocity": 0.30708661417322836
        },
        {
          "duration": 0.15340893750000362,
          "durationTicks": 216,
          "midi": 76,
          "name": "E5",
          "ticks": 61344,
          "time": 43.56813825,
          "velocity": 0.30708661417322836
        },
        {
          "duration": 0.15340893750000362,
          "durationTicks": 216,
          "midi": 76,
          "name": "E5",
          "ticks": 61368,
          "time": 43.5851836875,
          "velocity": 0.30708661417322836
        },
        {
          "duration": 0.1534089374999965,
          "durationTicks": 216,
          "midi": 72,
          "name": "C5",
          "ticks": 61488,
          "time": 43.670410875,
          "velocity": 0.30708661417322836
        },
        {
          "duration": 0.1534089374999965,
          "durationTicks": 216,
          "midi": 48,
          "name": "C3",
          "ticks": 61488,
          "time": 43.670410875,
          "velocity": 0.30708661417322836
        },
        {
          "duration": 0.1534089374999965,
          "durationTicks": 216,
          "midi": 57,
          "name": "A3",
          "ticks": 61488,
          "time": 43.670410875,
          "velocity": 0.30708661417322836
        },
        {
          "duration": 0.1534089374999965,
          "durationTicks": 216,
          "midi": 72,
          "name": "C5",
          "ticks": 61488,
          "time": 43.670410875,
          "velocity": 0.30708661417322836
        },
        {
          "duration": 0.1534089374999965,
          "durationTicks": 216,
          "midi": 48,
          "name": "C3",
          "ticks": 61488,
          "time": 43.670410875,
          "velocity": 0.30708661417322836
        },
        {
          "duration": 0.1534089374999965,
          "durationTicks": 216,
          "midi": 57,
          "name": "A3",
          "ticks": 61488,
          "time": 43.670410875,
          "velocity": 0.30708661417322836
        },
        {
          "duration": 0.15340893750000362,
          "durationTicks": 216,
          "midi": 48,
          "name": "C3",
          "ticks": 61512,
          "time": 43.6874563125,
          "velocity": 0.30708661417322836
        },
        {
          "duration": 0.15340893750000362,
          "durationTicks": 216,
          "midi": 72,
          "name": "C5",
          "ticks": 61512,
          "time": 43.6874563125,
          "velocity": 0.30708661417322836
        },
        {
          "duration": 0.15340893750000362,
          "durationTicks": 216,
          "midi": 57,
          "name": "A3",
          "ticks": 61512,
          "time": 43.6874563125,
          "velocity": 0.30708661417322836
        },
        {
          "duration": 0.15340893750000362,
          "durationTicks": 216,
          "midi": 69,
          "name": "A4",
          "ticks": 61632,
          "time": 43.7726835,
          "velocity": 0.30708661417322836
        },
        {
          "duration": 0.15340893750000362,
          "durationTicks": 216,
          "midi": 69,
          "name": "A4",
          "ticks": 61632,
          "time": 43.7726835,
          "velocity": 0.30708661417322836
        },
        {
          "duration": 0.1534089374999965,
          "durationTicks": 216,
          "midi": 69,
          "name": "A4",
          "ticks": 61656,
          "time": 43.7897289375,
          "velocity": 0.30708661417322836
        },
        {
          "duration": 0.15340893750000362,
          "durationTicks": 216,
          "midi": 52,
          "name": "E3",
          "ticks": 61776,
          "time": 43.874956125,
          "velocity": 0.30708661417322836
        },
        {
          "duration": 0.15340893750000362,
          "durationTicks": 216,
          "midi": 77,
          "name": "F5",
          "ticks": 61776,
          "time": 43.874956125,
          "velocity": 0.30708661417322836
        },
        {
          "duration": 0.15340893750000362,
          "durationTicks": 216,
          "midi": 40,
          "name": "E2",
          "ticks": 61776,
          "time": 43.874956125,
          "velocity": 0.30708661417322836
        },
        {
          "duration": 0.15340893750000362,
          "durationTicks": 216,
          "midi": 40,
          "name": "E2",
          "ticks": 61776,
          "time": 43.874956125,
          "velocity": 0.30708661417322836
        },
        {
          "duration": 0.15340893750000362,
          "durationTicks": 216,
          "midi": 77,
          "name": "F5",
          "ticks": 61776,
          "time": 43.874956125,
          "velocity": 0.30708661417322836
        },
        {
          "duration": 0.15340893750000362,
          "durationTicks": 216,
          "midi": 52,
          "name": "E3",
          "ticks": 61776,
          "time": 43.874956125,
          "velocity": 0.30708661417322836
        },
        {
          "duration": 0.15340893750000362,
          "durationTicks": 216,
          "midi": 52,
          "name": "E3",
          "ticks": 61800,
          "time": 43.8920015625,
          "velocity": 0.30708661417322836
        },
        {
          "duration": 0.15340893750000362,
          "durationTicks": 216,
          "midi": 40,
          "name": "E2",
          "ticks": 61800,
          "time": 43.8920015625,
          "velocity": 0.30708661417322836
        },
        {
          "duration": 0.15340893750000362,
          "durationTicks": 216,
          "midi": 77,
          "name": "F5",
          "ticks": 61800,
          "time": 43.8920015625,
          "velocity": 0.30708661417322836
        },
        {
          "duration": 0.1534089374999965,
          "durationTicks": 216,
          "midi": 76,
          "name": "E5",
          "ticks": 61920,
          "time": 43.97722875,
          "velocity": 0.30708661417322836
        },
        {
          "duration": 0.1534089374999965,
          "durationTicks": 216,
          "midi": 76,
          "name": "E5",
          "ticks": 61920,
          "time": 43.97722875,
          "velocity": 0.30708661417322836
        },
        {
          "duration": 0.15340893750000362,
          "durationTicks": 216,
          "midi": 76,
          "name": "E5",
          "ticks": 61944,
          "time": 43.9942741875,
          "velocity": 0.30708661417322836
        },
        {
          "duration": 0.1534089374999965,
          "durationTicks": 216,
          "midi": 74,
          "name": "D5",
          "ticks": 62064,
          "time": 44.079501375,
          "velocity": 0.30708661417322836
        },
        {
          "duration": 0.1534089374999965,
          "durationTicks": 216,
          "midi": 54,
          "name": "F#3",
          "ticks": 62064,
          "time": 44.079501375,
          "velocity": 0.30708661417322836
        },
        {
          "duration": 0.1534089374999965,
          "durationTicks": 216,
          "midi": 42,
          "name": "F#2",
          "ticks": 62064,
          "time": 44.079501375,
          "velocity": 0.30708661417322836
        },
        {
          "duration": 0.1534089374999965,
          "durationTicks": 216,
          "midi": 54,
          "name": "F#3",
          "ticks": 62064,
          "time": 44.079501375,
          "velocity": 0.30708661417322836
        },
        {
          "duration": 0.1534089374999965,
          "durationTicks": 216,
          "midi": 74,
          "name": "D5",
          "ticks": 62064,
          "time": 44.079501375,
          "velocity": 0.30708661417322836
        },
        {
          "duration": 0.1534089374999965,
          "durationTicks": 216,
          "midi": 42,
          "name": "F#2",
          "ticks": 62064,
          "time": 44.079501375,
          "velocity": 0.30708661417322836
        },
        {
          "duration": 0.1534089374999965,
          "durationTicks": 216,
          "midi": 42,
          "name": "F#2",
          "ticks": 62088,
          "time": 44.0965468125,
          "velocity": 0.30708661417322836
        },
        {
          "duration": 0.1534089374999965,
          "durationTicks": 216,
          "midi": 54,
          "name": "F#3",
          "ticks": 62088,
          "time": 44.0965468125,
          "velocity": 0.30708661417322836
        },
        {
          "duration": 0.1534089374999965,
          "durationTicks": 216,
          "midi": 74,
          "name": "D5",
          "ticks": 62088,
          "time": 44.0965468125,
          "velocity": 0.30708661417322836
        },
        {
          "duration": 0.15340893750000362,
          "durationTicks": 216,
          "midi": 72,
          "name": "C5",
          "ticks": 62208,
          "time": 44.181774,
          "velocity": 0.30708661417322836
        },
        {
          "duration": 0.15340893750000362,
          "durationTicks": 216,
          "midi": 72,
          "name": "C5",
          "ticks": 62208,
          "time": 44.181774,
          "velocity": 0.30708661417322836
        },
        {
          "duration": 0.15340893750000362,
          "durationTicks": 216,
          "midi": 72,
          "name": "C5",
          "ticks": 62232,
          "time": 44.1988194375,
          "velocity": 0.30708661417322836
        },
        {
          "duration": 0.1534089374999965,
          "durationTicks": 216,
          "midi": 44,
          "name": "G#2",
          "ticks": 62352,
          "time": 44.284046625,
          "velocity": 0.30708661417322836
        },
        {
          "duration": 0.1534089374999965,
          "durationTicks": 216,
          "midi": 71,
          "name": "B4",
          "ticks": 62352,
          "time": 44.284046625,
          "velocity": 0.30708661417322836
        },
        {
          "duration": 0.1534089374999965,
          "durationTicks": 216,
          "midi": 44,
          "name": "G#2",
          "ticks": 62352,
          "time": 44.284046625,
          "velocity": 0.30708661417322836
        },
        {
          "duration": 0.1534089374999965,
          "durationTicks": 216,
          "midi": 71,
          "name": "B4",
          "ticks": 62352,
          "time": 44.284046625,
          "velocity": 0.30708661417322836
        },
        {
          "duration": 0.1534089374999965,
          "durationTicks": 216,
          "midi": 56,
          "name": "G#3",
          "ticks": 62352,
          "time": 44.284046625,
          "velocity": 0.30708661417322836
        },
        {
          "duration": 0.1534089374999965,
          "durationTicks": 216,
          "midi": 56,
          "name": "G#3",
          "ticks": 62352,
          "time": 44.284046625,
          "velocity": 0.30708661417322836
        },
        {
          "duration": 0.15340893750000362,
          "durationTicks": 216,
          "midi": 71,
          "name": "B4",
          "ticks": 62376,
          "time": 44.3010920625,
          "velocity": 0.30708661417322836
        },
        {
          "duration": 0.15340893750000362,
          "durationTicks": 216,
          "midi": 44,
          "name": "G#2",
          "ticks": 62376,
          "time": 44.3010920625,
          "velocity": 0.30708661417322836
        },
        {
          "duration": 0.15340893750000362,
          "durationTicks": 216,
          "midi": 56,
          "name": "G#3",
          "ticks": 62376,
          "time": 44.3010920625,
          "velocity": 0.30708661417322836
        },
        {
          "duration": 0.1534089374999965,
          "durationTicks": 216,
          "midi": 69,
          "name": "A4",
          "ticks": 62496,
          "time": 44.38631925,
          "velocity": 0.30708661417322836
        },
        {
          "duration": 0.1534089374999965,
          "durationTicks": 216,
          "midi": 69,
          "name": "A4",
          "ticks": 62496,
          "time": 44.38631925,
          "velocity": 0.30708661417322836
        },
        {
          "duration": 0.1534089374999965,
          "durationTicks": 216,
          "midi": 69,
          "name": "A4",
          "ticks": 62520,
          "time": 44.4033646875,
          "velocity": 0.30708661417322836
        },
        {
          "duration": 0.15340893750000362,
          "durationTicks": 216,
          "midi": 40,
          "name": "E2",
          "ticks": 62640,
          "time": 44.488591875,
          "velocity": 0.30708661417322836
        },
        {
          "duration": 0.15340893750000362,
          "durationTicks": 216,
          "midi": 68,
          "name": "G#4",
          "ticks": 62640,
          "time": 44.488591875,
          "velocity": 0.30708661417322836
        },
        {
          "duration": 0.15340893750000362,
          "durationTicks": 216,
          "midi": 52,
          "name": "E3",
          "ticks": 62640,
          "time": 44.488591875,
          "velocity": 0.30708661417322836
        },
        {
          "duration": 0.15340893750000362,
          "durationTicks": 216,
          "midi": 68,
          "name": "G#4",
          "ticks": 62640,
          "time": 44.488591875,
          "velocity": 0.30708661417322836
        },
        {
          "duration": 0.15340893750000362,
          "durationTicks": 216,
          "midi": 52,
          "name": "E3",
          "ticks": 62640,
          "time": 44.488591875,
          "velocity": 0.30708661417322836
        },
        {
          "duration": 0.15340893750000362,
          "durationTicks": 216,
          "midi": 40,
          "name": "E2",
          "ticks": 62640,
          "time": 44.488591875,
          "velocity": 0.30708661417322836
        },
        {
          "duration": 0.15340893750000362,
          "durationTicks": 216,
          "midi": 68,
          "name": "G#4",
          "ticks": 62664,
          "time": 44.5056373125,
          "velocity": 0.30708661417322836
        },
        {
          "duration": 0.15340893750000362,
          "durationTicks": 216,
          "midi": 40,
          "name": "E2",
          "ticks": 62664,
          "time": 44.5056373125,
          "velocity": 0.30708661417322836
        },
        {
          "duration": 0.15340893750000362,
          "durationTicks": 216,
          "midi": 52,
          "name": "E3",
          "ticks": 62664,
          "time": 44.5056373125,
          "velocity": 0.30708661417322836
        },
        {
          "duration": 0.1534089374999965,
          "durationTicks": 216,
          "midi": 71,
          "name": "B4",
          "ticks": 62784,
          "time": 44.5908645,
          "velocity": 0.30708661417322836
        },
        {
          "duration": 0.1534089374999965,
          "durationTicks": 216,
          "midi": 71,
          "name": "B4",
          "ticks": 62784,
          "time": 44.5908645,
          "velocity": 0.30708661417322836
        },
        {
          "duration": 0.15340893750000362,
          "durationTicks": 216,
          "midi": 71,
          "name": "B4",
          "ticks": 62808,
          "time": 44.6079099375,
          "velocity": 0.30708661417322836
        },
        {
          "duration": 0.1534089374999965,
          "durationTicks": 216,
          "midi": 45,
          "name": "A2",
          "ticks": 62928,
          "time": 44.693137125,
          "velocity": 0.30708661417322836
        },
        {
          "duration": 0.1534089374999965,
          "durationTicks": 216,
          "midi": 69,
          "name": "A4",
          "ticks": 62928,
          "time": 44.693137125,
          "velocity": 0.30708661417322836
        },
        {
          "duration": 0.1534089374999965,
          "durationTicks": 216,
          "midi": 45,
          "name": "A2",
          "ticks": 62928,
          "time": 44.693137125,
          "velocity": 0.30708661417322836
        },
        {
          "duration": 0.1534089374999965,
          "durationTicks": 216,
          "midi": 57,
          "name": "A3",
          "ticks": 62928,
          "time": 44.693137125,
          "velocity": 0.30708661417322836
        },
        {
          "duration": 0.1534089374999965,
          "durationTicks": 216,
          "midi": 69,
          "name": "A4",
          "ticks": 62928,
          "time": 44.693137125,
          "velocity": 0.30708661417322836
        },
        {
          "duration": 0.1534089374999965,
          "durationTicks": 216,
          "midi": 57,
          "name": "A3",
          "ticks": 62928,
          "time": 44.693137125,
          "velocity": 0.30708661417322836
        },
        {
          "duration": 0.1534089374999965,
          "durationTicks": 216,
          "midi": 57,
          "name": "A3",
          "ticks": 62952,
          "time": 44.7101825625,
          "velocity": 0.30708661417322836
        },
        {
          "duration": 0.1534089374999965,
          "durationTicks": 216,
          "midi": 45,
          "name": "A2",
          "ticks": 62952,
          "time": 44.7101825625,
          "velocity": 0.30708661417322836
        },
        {
          "duration": 0.1534089374999965,
          "durationTicks": 216,
          "midi": 69,
          "name": "A4",
          "ticks": 62952,
          "time": 44.7101825625,
          "velocity": 0.30708661417322836
        },
        {
          "duration": 0.4943176875000006,
          "durationTicks": 696,
          "midi": 33,
          "name": "A1",
          "ticks": 63504,
          "time": 45.102227625,
          "velocity": 0.30708661417322836
        },
        {
          "duration": 0.4943176875000006,
          "durationTicks": 696,
          "midi": 33,
          "name": "A1",
          "ticks": 63504,
          "time": 45.102227625,
          "velocity": 0.30708661417322836
        },
        {
          "duration": 0.4943176875000006,
          "durationTicks": 696,
          "midi": 45,
          "name": "A2",
          "ticks": 63504,
          "time": 45.102227625,
          "velocity": 0.30708661417322836
        },
        {
          "duration": 0.4943176875000006,
          "durationTicks": 696,
          "midi": 45,
          "name": "A2",
          "ticks": 63504,
          "time": 45.102227625,
          "velocity": 0.30708661417322836
        },
        {
          "duration": 0.4943176875000006,
          "durationTicks": 696,
          "midi": 33,
          "name": "A1",
          "ticks": 63528,
          "time": 45.1192730625,
          "velocity": 0.30708661417322836
        },
        {
          "duration": 0.4943176875000006,
          "durationTicks": 696,
          "midi": 45,
          "name": "A2",
          "ticks": 63528,
          "time": 45.1192730625,
          "velocity": 0.30708661417322836
        },
        {
          "duration": 0.28977243749999815,
          "durationTicks": 408,
          "midi": 35,
          "name": "B1",
          "ticks": 63888,
          "time": 45.374954625,
          "velocity": 0.30708661417322836
        },
        {
          "duration": 0.28977243749999815,
          "durationTicks": 408,
          "midi": 47,
          "name": "B2",
          "ticks": 63888,
          "time": 45.374954625,
          "velocity": 0.30708661417322836
        },
        {
          "duration": 0.28977243749999815,
          "durationTicks": 408,
          "midi": 35,
          "name": "B1",
          "ticks": 63888,
          "time": 45.374954625,
          "velocity": 0.30708661417322836
        },
        {
          "duration": 0.28977243749999815,
          "durationTicks": 408,
          "midi": 47,
          "name": "B2",
          "ticks": 63888,
          "time": 45.374954625,
          "velocity": 0.30708661417322836
        },
        {
          "duration": 0.28977243749999815,
          "durationTicks": 408,
          "midi": 47,
          "name": "B2",
          "ticks": 63912,
          "time": 45.3920000625,
          "velocity": 0.30708661417322836
        },
        {
          "duration": 0.28977243749999815,
          "durationTicks": 408,
          "midi": 35,
          "name": "B1",
          "ticks": 63912,
          "time": 45.3920000625,
          "velocity": 0.30708661417322836
        },
        {
          "duration": 0.28977243750000525,
          "durationTicks": 408,
          "midi": 49,
          "name": "C#3",
          "ticks": 63936,
          "time": 45.4090455,
          "velocity": 0.30708661417322836
        },
        {
          "duration": 0.28977243750000525,
          "durationTicks": 408,
          "midi": 37,
          "name": "C#2",
          "ticks": 63936,
          "time": 45.4090455,
          "velocity": 0.30708661417322836
        },
        {
          "duration": 0.28977243750000525,
          "durationTicks": 408,
          "midi": 37,
          "name": "C#2",
          "ticks": 63936,
          "time": 45.4090455,
          "velocity": 0.30708661417322836
        },
        {
          "duration": 0.28977243750000525,
          "durationTicks": 408,
          "midi": 49,
          "name": "C#3",
          "ticks": 63936,
          "time": 45.4090455,
          "velocity": 0.30708661417322836
        },
        {
          "duration": 0.28977243749999815,
          "durationTicks": 408,
          "midi": 49,
          "name": "C#3",
          "ticks": 63960,
          "time": 45.4260909375,
          "velocity": 0.30708661417322836
        },
        {
          "duration": 0.28977243749999815,
          "durationTicks": 408,
          "midi": 37,
          "name": "C#2",
          "ticks": 63960,
          "time": 45.4260909375,
          "velocity": 0.30708661417322836
        },
        {
          "duration": 0.35795418749999897,
          "durationTicks": 504,
          "midi": 74,
          "name": "D5",
          "ticks": 64032,
          "time": 45.47722725,
          "velocity": 0.30708661417322836
        },
        {
          "duration": 0.15340893750000362,
          "durationTicks": 216,
          "midi": 38,
          "name": "D2",
          "ticks": 64032,
          "time": 45.47722725,
          "velocity": 0.30708661417322836
        },
        {
          "duration": 0.35795418749999897,
          "durationTicks": 504,
          "midi": 74,
          "name": "D5",
          "ticks": 64032,
          "time": 45.47722725,
          "velocity": 0.30708661417322836
        },
        {
          "duration": 0.15340893750000362,
          "durationTicks": 216,
          "midi": 38,
          "name": "D2",
          "ticks": 64032,
          "time": 45.47722725,
          "velocity": 0.30708661417322836
        },
        {
          "duration": 0.28977243749999815,
          "durationTicks": 408,
          "midi": 50,
          "name": "D3",
          "ticks": 64032,
          "time": 45.47722725,
          "velocity": 0.30708661417322836
        },
        {
          "duration": 0.28977243749999815,
          "durationTicks": 408,
          "midi": 50,
          "name": "D3",
          "ticks": 64032,
          "time": 45.47722725,
          "velocity": 0.30708661417322836
        },
        {
          "duration": 0.28977243749999815,
          "durationTicks": 408,
          "midi": 50,
          "name": "D3",
          "ticks": 64056,
          "time": 45.4942726875,
          "velocity": 0.30708661417322836
        },
        {
          "duration": 0.1534089374999965,
          "durationTicks": 216,
          "midi": 38,
          "name": "D2",
          "ticks": 64056,
          "time": 45.4942726875,
          "velocity": 0.30708661417322836
        },
        {
          "duration": 0.35795418749999897,
          "durationTicks": 504,
          "midi": 74,
          "name": "D5",
          "ticks": 64056,
          "time": 45.4942726875,
          "velocity": 0.30708661417322836
        },
        {
          "duration": 0.15340893750000362,
          "durationTicks": 216,
          "midi": 57,
          "name": "A3",
          "ticks": 64272,
          "time": 45.647681625,
          "velocity": 0.30708661417322836
        },
        {
          "duration": 0.15340893750000362,
          "durationTicks": 216,
          "midi": 57,
          "name": "A3",
          "ticks": 64272,
          "time": 45.647681625,
          "velocity": 0.30708661417322836
        },
        {
          "duration": 0.15340893750000362,
          "durationTicks": 216,
          "midi": 53,
          "name": "F3",
          "ticks": 64272,
          "time": 45.647681625,
          "velocity": 0.30708661417322836
        },
        {
          "duration": 0.15340893750000362,
          "durationTicks": 216,
          "midi": 53,
          "name": "F3",
          "ticks": 64272,
          "time": 45.647681625,
          "velocity": 0.30708661417322836
        },
        {
          "duration": 0.15340893750000362,
          "durationTicks": 216,
          "midi": 57,
          "name": "A3",
          "ticks": 64296,
          "time": 45.6647270625,
          "velocity": 0.30708661417322836
        },
        {
          "duration": 0.15340893750000362,
          "durationTicks": 216,
          "midi": 53,
          "name": "F3",
          "ticks": 64296,
          "time": 45.6647270625,
          "velocity": 0.30708661417322836
        },
        {
          "duration": 0.15340893750000362,
          "durationTicks": 216,
          "midi": 73,
          "name": "C#5",
          "ticks": 64464,
          "time": 45.784045125,
          "velocity": 0.30708661417322836
        },
        {
          "duration": 0.15340893750000362,
          "durationTicks": 216,
          "midi": 73,
          "name": "C#5",
          "ticks": 64464,
          "time": 45.784045125,
          "velocity": 0.30708661417322836
        },
        {
          "duration": 0.1534089374999965,
          "durationTicks": 216,
          "midi": 73,
          "name": "C#5",
          "ticks": 64488,
          "time": 45.8010905625,
          "velocity": 0.30708661417322836
        },
        {
          "duration": 0.1534089374999965,
          "durationTicks": 216,
          "midi": 74,
          "name": "D5",
          "ticks": 64560,
          "time": 45.852226875,
          "velocity": 0.30708661417322836
        },
        {
          "duration": 0.28977243749999815,
          "durationTicks": 408,
          "midi": 45,
          "name": "A2",
          "ticks": 64560,
          "time": 45.852226875,
          "velocity": 0.30708661417322836
        },
        {
          "duration": 0.28977243749999815,
          "durationTicks": 408,
          "midi": 45,
          "name": "A2",
          "ticks": 64560,
          "time": 45.852226875,
          "velocity": 0.30708661417322836
        },
        {
          "duration": 0.1534089374999965,
          "durationTicks": 216,
          "midi": 74,
          "name": "D5",
          "ticks": 64560,
          "time": 45.852226875,
          "velocity": 0.30708661417322836
        },
        {
          "duration": 0.28977243749999815,
          "durationTicks": 408,
          "midi": 45,
          "name": "A2",
          "ticks": 64584,
          "time": 45.8692723125,
          "velocity": 0.30708661417322836
        },
        {
          "duration": 0.1534089374999965,
          "durationTicks": 216,
          "midi": 74,
          "name": "D5",
          "ticks": 64584,
          "time": 45.8692723125,
          "velocity": 0.30708661417322836
        },
        {
          "duration": 0.1534089374999965,
          "durationTicks": 216,
          "midi": 57,
          "name": "A3",
          "ticks": 64848,
          "time": 46.056772125,
          "velocity": 0.30708661417322836
        },
        {
          "duration": 0.1534089374999965,
          "durationTicks": 216,
          "midi": 76,
          "name": "E5",
          "ticks": 64848,
          "time": 46.056772125,
          "velocity": 0.30708661417322836
        },
        {
          "duration": 0.1534089374999965,
          "durationTicks": 216,
          "midi": 57,
          "name": "A3",
          "ticks": 64848,
          "time": 46.056772125,
          "velocity": 0.30708661417322836
        },
        {
          "duration": 0.1534089374999965,
          "durationTicks": 216,
          "midi": 76,
          "name": "E5",
          "ticks": 64848,
          "time": 46.056772125,
          "velocity": 0.30708661417322836
        },
        {
          "duration": 0.1534089374999965,
          "durationTicks": 216,
          "midi": 53,
          "name": "F3",
          "ticks": 64848,
          "time": 46.056772125,
          "velocity": 0.30708661417322836
        },
        {
          "duration": 0.1534089374999965,
          "durationTicks": 216,
          "midi": 53,
          "name": "F3",
          "ticks": 64848,
          "time": 46.056772125,
          "velocity": 0.30708661417322836
        },
        {
          "duration": 0.15340893750000362,
          "durationTicks": 216,
          "midi": 57,
          "name": "A3",
          "ticks": 64872,
          "time": 46.0738175625,
          "velocity": 0.30708661417322836
        },
        {
          "duration": 0.15340893750000362,
          "durationTicks": 216,
          "midi": 53,
          "name": "F3",
          "ticks": 64872,
          "time": 46.0738175625,
          "velocity": 0.30708661417322836
        },
        {
          "duration": 0.15340893750000362,
          "durationTicks": 216,
          "midi": 76,
          "name": "E5",
          "ticks": 64872,
          "time": 46.0738175625,
          "velocity": 0.30708661417322836
        },
        {
          "duration": 0.28977243750000525,
          "durationTicks": 408,
          "midi": 50,
          "name": "D3",
          "ticks": 65136,
          "time": 46.261317375,
          "velocity": 0.30708661417322836
        },
        {
          "duration": 0.28977243750000525,
          "durationTicks": 408,
          "midi": 50,
          "name": "D3",
          "ticks": 65136,
          "time": 46.261317375,
          "velocity": 0.30708661417322836
        },
        {
          "duration": 0.15340893750000362,
          "durationTicks": 216,
          "midi": 77,
          "name": "F5",
          "ticks": 65136,
          "time": 46.261317375,
          "velocity": 0.30708661417322836
        },
        {
          "duration": 0.15340893750000362,
          "durationTicks": 216,
          "midi": 77,
          "name": "F5",
          "ticks": 65136,
          "time": 46.261317375,
          "velocity": 0.30708661417322836
        },
        {
          "duration": 0.28977243749999815,
          "durationTicks": 408,
          "midi": 50,
          "name": "D3",
          "ticks": 65160,
          "time": 46.2783628125,
          "velocity": 0.30708661417322836
        },
        {
          "duration": 0.15340893750000362,
          "durationTicks": 216,
          "midi": 77,
          "name": "F5",
          "ticks": 65160,
          "time": 46.2783628125,
          "velocity": 0.30708661417322836
        },
        {
          "duration": 0.1534089374999965,
          "durationTicks": 216,
          "midi": 76,
          "name": "E5",
          "ticks": 65424,
          "time": 46.465862625,
          "velocity": 0.30708661417322836
        },
        {
          "duration": 0.1534089374999965,
          "durationTicks": 216,
          "midi": 53,
          "name": "F3",
          "ticks": 65424,
          "time": 46.465862625,
          "velocity": 0.30708661417322836
        },
        {
          "duration": 0.1534089374999965,
          "durationTicks": 216,
          "midi": 76,
          "name": "E5",
          "ticks": 65424,
          "time": 46.465862625,
          "velocity": 0.30708661417322836
        },
        {
          "duration": 0.1534089374999965,
          "durationTicks": 216,
          "midi": 53,
          "name": "F3",
          "ticks": 65424,
          "time": 46.465862625,
          "velocity": 0.30708661417322836
        },
        {
          "duration": 0.1534089374999965,
          "durationTicks": 216,
          "midi": 57,
          "name": "A3",
          "ticks": 65424,
          "time": 46.465862625,
          "velocity": 0.30708661417322836
        },
        {
          "duration": 0.1534089374999965,
          "durationTicks": 216,
          "midi": 57,
          "name": "A3",
          "ticks": 65424,
          "time": 46.465862625,
          "velocity": 0.30708661417322836
        },
        {
          "duration": 0.1534089374999965,
          "durationTicks": 216,
          "midi": 57,
          "name": "A3",
          "ticks": 65448,
          "time": 46.4829080625,
          "velocity": 0.30708661417322836
        },
        {
          "duration": 0.1534089374999965,
          "durationTicks": 216,
          "midi": 76,
          "name": "E5",
          "ticks": 65448,
          "time": 46.4829080625,
          "velocity": 0.30708661417322836
        },
        {
          "duration": 0.1534089374999965,
          "durationTicks": 216,
          "midi": 53,
          "name": "F3",
          "ticks": 65448,
          "time": 46.4829080625,
          "velocity": 0.30708661417322836
        },
        {
          "duration": 0.1534089374999965,
          "durationTicks": 216,
          "midi": 74,
          "name": "D5",
          "ticks": 65712,
          "time": 46.670407875,
          "velocity": 0.30708661417322836
        },
        {
          "duration": 0.28977243749999815,
          "durationTicks": 408,
          "midi": 45,
          "name": "A2",
          "ticks": 65712,
          "time": 46.670407875,
          "velocity": 0.30708661417322836
        },
        {
          "duration": 0.1534089374999965,
          "durationTicks": 216,
          "midi": 74,
          "name": "D5",
          "ticks": 65712,
          "time": 46.670407875,
          "velocity": 0.30708661417322836
        },
        {
          "duration": 0.28977243749999815,
          "durationTicks": 408,
          "midi": 45,
          "name": "A2",
          "ticks": 65712,
          "time": 46.670407875,
          "velocity": 0.30708661417322836
        },
        {
          "duration": 0.28977243750000525,
          "durationTicks": 408,
          "midi": 45,
          "name": "A2",
          "ticks": 65736,
          "time": 46.6874533125,
          "velocity": 0.30708661417322836
        },
        {
          "duration": 0.15340893750000362,
          "durationTicks": 216,
          "midi": 74,
          "name": "D5",
          "ticks": 65736,
          "time": 46.6874533125,
          "velocity": 0.30708661417322836
        },
        {
          "duration": 0.15340893750000362,
          "durationTicks": 216,
          "midi": 57,
          "name": "A3",
          "ticks": 66000,
          "time": 46.874953125,
          "velocity": 0.30708661417322836
        },
        {
          "duration": 0.15340893750000362,
          "durationTicks": 216,
          "midi": 57,
          "name": "A3",
          "ticks": 66000,
          "time": 46.874953125,
          "velocity": 0.30708661417322836
        },
        {
          "duration": 0.15340893750000362,
          "durationTicks": 216,
          "midi": 53,
          "name": "F3",
          "ticks": 66000,
          "time": 46.874953125,
          "velocity": 0.30708661417322836
        },
        {
          "duration": 0.15340893750000362,
          "durationTicks": 216,
          "midi": 77,
          "name": "F5",
          "ticks": 66000,
          "time": 46.874953125,
          "velocity": 0.30708661417322836
        },
        {
          "duration": 0.15340893750000362,
          "durationTicks": 216,
          "midi": 77,
          "name": "F5",
          "ticks": 66000,
          "time": 46.874953125,
          "velocity": 0.30708661417322836
        },
        {
          "duration": 0.15340893750000362,
          "durationTicks": 216,
          "midi": 53,
          "name": "F3",
          "ticks": 66000,
          "time": 46.874953125,
          "velocity": 0.30708661417322836
        },
        {
          "duration": 0.1534089374999965,
          "durationTicks": 216,
          "midi": 57,
          "name": "A3",
          "ticks": 66024,
          "time": 46.8919985625,
          "velocity": 0.30708661417322836
        },
        {
          "duration": 0.1534089374999965,
          "durationTicks": 216,
          "midi": 53,
          "name": "F3",
          "ticks": 66024,
          "time": 46.8919985625,
          "velocity": 0.30708661417322836
        },
        {
          "duration": 0.1534089374999965,
          "durationTicks": 216,
          "midi": 77,
          "name": "F5",
          "ticks": 66024,
          "time": 46.8919985625,
          "velocity": 0.30708661417322836
        },
        {
          "duration": 0.28977243749999815,
          "durationTicks": 408,
          "midi": 48,
          "name": "C3",
          "ticks": 66288,
          "time": 47.079498375,
          "velocity": 0.30708661417322836
        },
        {
          "duration": 0.28977243749999815,
          "durationTicks": 408,
          "midi": 48,
          "name": "C3",
          "ticks": 66288,
          "time": 47.079498375,
          "velocity": 0.30708661417322836
        },
        {
          "duration": 0.35795418749999897,
          "durationTicks": 504,
          "midi": 76,
          "name": "E5",
          "ticks": 66288,
          "time": 47.079498375,
          "velocity": 0.30708661417322836
        },
        {
          "duration": 0.35795418749999897,
          "durationTicks": 504,
          "midi": 76,
          "name": "E5",
          "ticks": 66288,
          "time": 47.079498375,
          "velocity": 0.30708661417322836
        },
        {
          "duration": 0.28977243749999815,
          "durationTicks": 408,
          "midi": 48,
          "name": "C3",
          "ticks": 66312,
          "time": 47.0965438125,
          "velocity": 0.30708661417322836
        },
        {
          "duration": 0.35795418749999897,
          "durationTicks": 504,
          "midi": 76,
          "name": "E5",
          "ticks": 66312,
          "time": 47.0965438125,
          "velocity": 0.30708661417322836
        },
        {
          "duration": 0.1534089374999965,
          "durationTicks": 216,
          "midi": 57,
          "name": "A3",
          "ticks": 66576,
          "time": 47.284043625,
          "velocity": 0.30708661417322836
        },
        {
          "duration": 0.1534089374999965,
          "durationTicks": 216,
          "midi": 57,
          "name": "A3",
          "ticks": 66576,
          "time": 47.284043625,
          "velocity": 0.30708661417322836
        },
        {
          "duration": 0.1534089374999965,
          "durationTicks": 216,
          "midi": 52,
          "name": "E3",
          "ticks": 66576,
          "time": 47.284043625,
          "velocity": 0.30708661417322836
        },
        {
          "duration": 0.1534089374999965,
          "durationTicks": 216,
          "midi": 52,
          "name": "E3",
          "ticks": 66576,
          "time": 47.284043625,
          "velocity": 0.30708661417322836
        },
        {
          "duration": 0.15340893750000362,
          "durationTicks": 216,
          "midi": 57,
          "name": "A3",
          "ticks": 66600,
          "time": 47.3010890625,
          "velocity": 0.30708661417322836
        },
        {
          "duration": 0.15340893750000362,
          "durationTicks": 216,
          "midi": 52,
          "name": "E3",
          "ticks": 66600,
          "time": 47.3010890625,
          "velocity": 0.30708661417322836
        },
        {
          "duration": 0.1534089374999965,
          "durationTicks": 216,
          "midi": 74,
          "name": "D5",
          "ticks": 66720,
          "time": 47.38631625,
          "velocity": 0.30708661417322836
        },
        {
          "duration": 0.1534089374999965,
          "durationTicks": 216,
          "midi": 74,
          "name": "D5",
          "ticks": 66720,
          "time": 47.38631625,
          "velocity": 0.30708661417322836
        },
        {
          "duration": 0.1534089374999965,
          "durationTicks": 216,
          "midi": 74,
          "name": "D5",
          "ticks": 66744,
          "time": 47.4033616875,
          "velocity": 0.30708661417322836
        },
        {
          "duration": 0.1534089374999965,
          "durationTicks": 216,
          "midi": 45,
          "name": "A2",
          "ticks": 66816,
          "time": 47.454498,
          "velocity": 0.30708661417322836
        },
        {
          "duration": 0.1534089374999965,
          "durationTicks": 216,
          "midi": 72,
          "name": "C5",
          "ticks": 66816,
          "time": 47.454498,
          "velocity": 0.30708661417322836
        },
        {
          "duration": 0.1534089374999965,
          "durationTicks": 216,
          "midi": 45,
          "name": "A2",
          "ticks": 66816,
          "time": 47.454498,
          "velocity": 0.30708661417322836
        },
        {
          "duration": 0.1534089374999965,
          "durationTicks": 216,
          "midi": 72,
          "name": "C5",
          "ticks": 66816,
          "time": 47.454498,
          "velocity": 0.30708661417322836
        },
        {
          "duration": 0.1534089374999965,
          "durationTicks": 216,
          "midi": 45,
          "name": "A2",
          "ticks": 66840,
          "time": 47.4715434375,
          "velocity": 0.30708661417322836
        },
        {
          "duration": 0.1534089374999965,
          "durationTicks": 216,
          "midi": 72,
          "name": "C5",
          "ticks": 66840,
          "time": 47.4715434375,
          "velocity": 0.30708661417322836
        },
        {
          "duration": 0.15340893750000362,
          "durationTicks": 216,
          "midi": 57,
          "name": "A3",
          "ticks": 67104,
          "time": 47.659043249999996,
          "velocity": 0.30708661417322836
        },
        {
          "duration": 0.15340893750000362,
          "durationTicks": 216,
          "midi": 52,
          "name": "E3",
          "ticks": 67104,
          "time": 47.659043249999996,
          "velocity": 0.30708661417322836
        },
        {
          "duration": 0.15340893750000362,
          "durationTicks": 216,
          "midi": 74,
          "name": "D5",
          "ticks": 67104,
          "time": 47.659043249999996,
          "velocity": 0.30708661417322836
        },
        {
          "duration": 0.15340893750000362,
          "durationTicks": 216,
          "midi": 52,
          "name": "E3",
          "ticks": 67104,
          "time": 47.659043249999996,
          "velocity": 0.30708661417322836
        },
        {
          "duration": 0.15340893750000362,
          "durationTicks": 216,
          "midi": 74,
          "name": "D5",
          "ticks": 67104,
          "time": 47.659043249999996,
          "velocity": 0.30708661417322836
        },
        {
          "duration": 0.15340893750000362,
          "durationTicks": 216,
          "midi": 57,
          "name": "A3",
          "ticks": 67104,
          "time": 47.659043249999996,
          "velocity": 0.30708661417322836
        },
        {
          "duration": 0.15340893750000362,
          "durationTicks": 216,
          "midi": 74,
          "name": "D5",
          "ticks": 67128,
          "time": 47.6760886875,
          "velocity": 0.30708661417322836
        },
        {
          "duration": 0.15340893750000362,
          "durationTicks": 216,
          "midi": 52,
          "name": "E3",
          "ticks": 67128,
          "time": 47.6760886875,
          "velocity": 0.30708661417322836
        },
        {
          "duration": 0.15340893750000362,
          "durationTicks": 216,
          "midi": 57,
          "name": "A3",
          "ticks": 67128,
          "time": 47.6760886875,
          "velocity": 0.30708661417322836
        },
        {
          "duration": 0.6306811875000022,
          "durationTicks": 888,
          "midi": 76,
          "name": "E5",
          "ticks": 67392,
          "time": 47.8635885,
          "velocity": 0.30708661417322836
        },
        {
          "duration": 0.6306811875000022,
          "durationTicks": 888,
          "midi": 76,
          "name": "E5",
          "ticks": 67392,
          "time": 47.8635885,
          "velocity": 0.30708661417322836
        },
        {
          "duration": 0.28977243749999815,
          "durationTicks": 408,
          "midi": 48,
          "name": "C3",
          "ticks": 67392,
          "time": 47.8635885,
          "velocity": 0.30708661417322836
        },
        {
          "duration": 0.28977243749999815,
          "durationTicks": 408,
          "midi": 48,
          "name": "C3",
          "ticks": 67392,
          "time": 47.8635885,
          "velocity": 0.30708661417322836
        },
        {
          "duration": 0.28977243749999815,
          "durationTicks": 408,
          "midi": 48,
          "name": "C3",
          "ticks": 67416,
          "time": 47.8806339375,
          "velocity": 0.30708661417322836
        },
        {
          "duration": 0.6306811875000022,
          "durationTicks": 888,
          "midi": 76,
          "name": "E5",
          "ticks": 67416,
          "time": 47.8806339375,
          "velocity": 0.30708661417322836
        },
        {
          "duration": 0.1534089374999965,
          "durationTicks": 216,
          "midi": 57,
          "name": "A3",
          "ticks": 67680,
          "time": 48.06813375,
          "velocity": 0.30708661417322836
        },
        {
          "duration": 0.1534089374999965,
          "durationTicks": 216,
          "midi": 52,
          "name": "E3",
          "ticks": 67680,
          "time": 48.06813375,
          "velocity": 0.30708661417322836
        },
        {
          "duration": 0.1534089374999965,
          "durationTicks": 216,
          "midi": 52,
          "name": "E3",
          "ticks": 67680,
          "time": 48.06813375,
          "velocity": 0.30708661417322836
        },
        {
          "duration": 0.1534089374999965,
          "durationTicks": 216,
          "midi": 57,
          "name": "A3",
          "ticks": 67680,
          "time": 48.06813375,
          "velocity": 0.30708661417322836
        },
        {
          "duration": 0.15340893750000362,
          "durationTicks": 216,
          "midi": 57,
          "name": "A3",
          "ticks": 67704,
          "time": 48.085179187499996,
          "velocity": 0.30708661417322836
        },
        {
          "duration": 0.15340893750000362,
          "durationTicks": 216,
          "midi": 52,
          "name": "E3",
          "ticks": 67704,
          "time": 48.085179187499996,
          "velocity": 0.30708661417322836
        },
        {
          "duration": 0.15340893750000362,
          "durationTicks": 216,
          "midi": 45,
          "name": "A2",
          "ticks": 67968,
          "time": 48.272679,
          "velocity": 0.30708661417322836
        },
        {
          "duration": 0.15340893750000362,
          "durationTicks": 216,
          "midi": 45,
          "name": "A2",
          "ticks": 67968,
          "time": 48.272679,
          "velocity": 0.30708661417322836
        },
        {
          "duration": 0.15340893750000362,
          "durationTicks": 216,
          "midi": 45,
          "name": "A2",
          "ticks": 67992,
          "time": 48.2897244375,
          "velocity": 0.30708661417322836
        },
        {
          "duration": 0.15340893750000362,
          "durationTicks": 216,
          "midi": 72,
          "name": "C5",
          "ticks": 68256,
          "time": 48.47722425,
          "velocity": 0.30708661417322836
        },
        {
          "duration": 0.15340893750000362,
          "durationTicks": 216,
          "midi": 57,
          "name": "A3",
          "ticks": 68256,
          "time": 48.47722425,
          "velocity": 0.30708661417322836
        },
        {
          "duration": 0.15340893750000362,
          "durationTicks": 216,
          "midi": 57,
          "name": "A3",
          "ticks": 68256,
          "time": 48.47722425,
          "velocity": 0.30708661417322836
        },
        {
          "duration": 0.15340893750000362,
          "durationTicks": 216,
          "midi": 52,
          "name": "E3",
          "ticks": 68256,
          "time": 48.47722425,
          "velocity": 0.30708661417322836
        },
        {
          "duration": 0.15340893750000362,
          "durationTicks": 216,
          "midi": 52,
          "name": "E3",
          "ticks": 68256,
          "time": 48.47722425,
          "velocity": 0.30708661417322836
        },
        {
          "duration": 0.15340893750000362,
          "durationTicks": 216,
          "midi": 72,
          "name": "C5",
          "ticks": 68256,
          "time": 48.47722425,
          "velocity": 0.30708661417322836
        },
        {
          "duration": 0.1534089374999965,
          "durationTicks": 216,
          "midi": 72,
          "name": "C5",
          "ticks": 68280,
          "time": 48.4942696875,
          "velocity": 0.30708661417322836
        },
        {
          "duration": 0.1534089374999965,
          "durationTicks": 216,
          "midi": 57,
          "name": "A3",
          "ticks": 68280,
          "time": 48.4942696875,
          "velocity": 0.30708661417322836
        },
        {
          "duration": 0.1534089374999965,
          "durationTicks": 216,
          "midi": 52,
          "name": "E3",
          "ticks": 68280,
          "time": 48.4942696875,
          "velocity": 0.30708661417322836
        },
        {
          "duration": 0.28977243749999815,
          "durationTicks": 408,
          "midi": 47,
          "name": "B2",
          "ticks": 68544,
          "time": 48.6817695,
          "velocity": 0.30708661417322836
        },
        {
          "duration": 0.35795418749999897,
          "durationTicks": 504,
          "midi": 71,
          "name": "B4",
          "ticks": 68544,
          "time": 48.6817695,
          "velocity": 0.30708661417322836
        },
        {
          "duration": 0.35795418749999897,
          "durationTicks": 504,
          "midi": 71,
          "name": "B4",
          "ticks": 68544,
          "time": 48.6817695,
          "velocity": 0.30708661417322836
        },
        {
          "duration": 0.28977243749999815,
          "durationTicks": 408,
          "midi": 47,
          "name": "B2",
          "ticks": 68544,
          "time": 48.6817695,
          "velocity": 0.30708661417322836
        },
        {
          "duration": 0.35795418750000607,
          "durationTicks": 504,
          "midi": 71,
          "name": "B4",
          "ticks": 68568,
          "time": 48.698814937499996,
          "velocity": 0.30708661417322836
        },
        {
          "duration": 0.28977243750000525,
          "durationTicks": 408,
          "midi": 47,
          "name": "B2",
          "ticks": 68568,
          "time": 48.698814937499996,
          "velocity": 0.30708661417322836
        },
        {
          "duration": 0.15340893750000362,
          "durationTicks": 216,
          "midi": 56,
          "name": "G#3",
          "ticks": 68832,
          "time": 48.88631475,
          "velocity": 0.30708661417322836
        },
        {
          "duration": 0.15340893750000362,
          "durationTicks": 216,
          "midi": 56,
          "name": "G#3",
          "ticks": 68832,
          "time": 48.88631475,
          "velocity": 0.30708661417322836
        },
        {
          "duration": 0.15340893750000362,
          "durationTicks": 216,
          "midi": 50,
          "name": "D3",
          "ticks": 68832,
          "time": 48.88631475,
          "velocity": 0.30708661417322836
        },
        {
          "duration": 0.15340893750000362,
          "durationTicks": 216,
          "midi": 50,
          "name": "D3",
          "ticks": 68832,
          "time": 48.88631475,
          "velocity": 0.30708661417322836
        },
        {
          "duration": 0.15340893750000362,
          "durationTicks": 216,
          "midi": 56,
          "name": "G#3",
          "ticks": 68856,
          "time": 48.9033601875,
          "velocity": 0.30708661417322836
        },
        {
          "duration": 0.15340893750000362,
          "durationTicks": 216,
          "midi": 50,
          "name": "D3",
          "ticks": 68856,
          "time": 48.9033601875,
          "velocity": 0.30708661417322836
        },
        {
          "duration": 0.15340893750000362,
          "durationTicks": 216,
          "midi": 70,
          "name": "A#4",
          "ticks": 69024,
          "time": 49.02267825,
          "velocity": 0.30708661417322836
        },
        {
          "duration": 0.15340893750000362,
          "durationTicks": 216,
          "midi": 70,
          "name": "A#4",
          "ticks": 69024,
          "time": 49.02267825,
          "velocity": 0.30708661417322836
        },
        {
          "duration": 0.1534089374999965,
          "durationTicks": 216,
          "midi": 70,
          "name": "A#4",
          "ticks": 69048,
          "time": 49.0397236875,
          "velocity": 0.30708661417322836
        },
        {
          "duration": 0.15340893750000362,
          "durationTicks": 216,
          "midi": 40,
          "name": "E2",
          "ticks": 69120,
          "time": 49.09086,
          "velocity": 0.30708661417322836
        },
        {
          "duration": 0.15340893750000362,
          "durationTicks": 216,
          "midi": 71,
          "name": "B4",
          "ticks": 69120,
          "time": 49.09086,
          "velocity": 0.30708661417322836
        },
        {
          "duration": 0.15340893750000362,
          "durationTicks": 216,
          "midi": 71,
          "name": "B4",
          "ticks": 69120,
          "time": 49.09086,
          "velocity": 0.30708661417322836
        },
        {
          "duration": 0.15340893750000362,
          "durationTicks": 216,
          "midi": 40,
          "name": "E2",
          "ticks": 69120,
          "time": 49.09086,
          "velocity": 0.30708661417322836
        },
        {
          "duration": 0.1534089374999965,
          "durationTicks": 216,
          "midi": 71,
          "name": "B4",
          "ticks": 69144,
          "time": 49.1079054375,
          "velocity": 0.30708661417322836
        },
        {
          "duration": 0.1534089374999965,
          "durationTicks": 216,
          "midi": 40,
          "name": "E2",
          "ticks": 69144,
          "time": 49.1079054375,
          "velocity": 0.30708661417322836
        },
        {
          "duration": 0.1534089374999965,
          "durationTicks": 216,
          "midi": 72,
          "name": "C5",
          "ticks": 69408,
          "time": 49.29540525,
          "velocity": 0.30708661417322836
        },
        {
          "duration": 0.1534089374999965,
          "durationTicks": 216,
          "midi": 50,
          "name": "D3",
          "ticks": 69408,
          "time": 49.29540525,
          "velocity": 0.30708661417322836
        },
        {
          "duration": 0.1534089374999965,
          "durationTicks": 216,
          "midi": 56,
          "name": "G#3",
          "ticks": 69408,
          "time": 49.29540525,
          "velocity": 0.30708661417322836
        },
        {
          "duration": 0.1534089374999965,
          "durationTicks": 216,
          "midi": 72,
          "name": "C5",
          "ticks": 69408,
          "time": 49.29540525,
          "velocity": 0.30708661417322836
        },
        {
          "duration": 0.1534089374999965,
          "durationTicks": 216,
          "midi": 56,
          "name": "G#3",
          "ticks": 69408,
          "time": 49.29540525,
          "velocity": 0.30708661417322836
        },
        {
          "duration": 0.1534089374999965,
          "durationTicks": 216,
          "midi": 50,
          "name": "D3",
          "ticks": 69408,
          "time": 49.29540525,
          "velocity": 0.30708661417322836
        },
        {
          "duration": 0.15340893750000362,
          "durationTicks": 216,
          "midi": 50,
          "name": "D3",
          "ticks": 69432,
          "time": 49.3124506875,
          "velocity": 0.30708661417322836
        },
        {
          "duration": 0.15340893750000362,
          "durationTicks": 216,
          "midi": 56,
          "name": "G#3",
          "ticks": 69432,
          "time": 49.3124506875,
          "velocity": 0.30708661417322836
        },
        {
          "duration": 0.15340893750000362,
          "durationTicks": 216,
          "midi": 72,
          "name": "C5",
          "ticks": 69432,
          "time": 49.3124506875,
          "velocity": 0.30708661417322836
        },
        {
          "duration": 0.15340893750000362,
          "durationTicks": 216,
          "midi": 74,
          "name": "D5",
          "ticks": 69696,
          "time": 49.4999505,
          "velocity": 0.30708661417322836
        },
        {
          "duration": 0.22159068750000444,
          "durationTicks": 312,
          "midi": 47,
          "name": "B2",
          "ticks": 69696,
          "time": 49.4999505,
          "velocity": 0.30708661417322836
        },
        {
          "duration": 0.22159068750000444,
          "durationTicks": 312,
          "midi": 47,
          "name": "B2",
          "ticks": 69696,
          "time": 49.4999505,
          "velocity": 0.30708661417322836
        },
        {
          "duration": 0.15340893750000362,
          "durationTicks": 216,
          "midi": 74,
          "name": "D5",
          "ticks": 69696,
          "time": 49.4999505,
          "velocity": 0.30708661417322836
        },
        {
          "duration": 0.15340893750000362,
          "durationTicks": 216,
          "midi": 74,
          "name": "D5",
          "ticks": 69720,
          "time": 49.5169959375,
          "velocity": 0.30708661417322836
        },
        {
          "duration": 0.22159068749999733,
          "durationTicks": 312,
          "midi": 47,
          "name": "B2",
          "ticks": 69720,
          "time": 49.5169959375,
          "velocity": 0.30708661417322836
        },
        {
          "duration": 0.1534089374999965,
          "durationTicks": 216,
          "midi": 50,
          "name": "D3",
          "ticks": 69984,
          "time": 49.70449575,
          "velocity": 0.30708661417322836
        },
        {
          "duration": 0.1534089374999965,
          "durationTicks": 216,
          "midi": 72,
          "name": "C5",
          "ticks": 69984,
          "time": 49.70449575,
          "velocity": 0.30708661417322836
        },
        {
          "duration": 0.1534089374999965,
          "durationTicks": 216,
          "midi": 72,
          "name": "C5",
          "ticks": 69984,
          "time": 49.70449575,
          "velocity": 0.30708661417322836
        },
        {
          "duration": 0.1534089374999965,
          "durationTicks": 216,
          "midi": 50,
          "name": "D3",
          "ticks": 69984,
          "time": 49.70449575,
          "velocity": 0.30708661417322836
        },
        {
          "duration": 0.1534089374999965,
          "durationTicks": 216,
          "midi": 56,
          "name": "G#3",
          "ticks": 69984,
          "time": 49.70449575,
          "velocity": 0.30708661417322836
        },
        {
          "duration": 0.1534089374999965,
          "durationTicks": 216,
          "midi": 56,
          "name": "G#3",
          "ticks": 69984,
          "time": 49.70449575,
          "velocity": 0.30708661417322836
        },
        {
          "duration": 0.1534089374999965,
          "durationTicks": 216,
          "midi": 72,
          "name": "C5",
          "ticks": 70008,
          "time": 49.7215411875,
          "velocity": 0.30708661417322836
        },
        {
          "duration": 0.1534089374999965,
          "durationTicks": 216,
          "midi": 50,
          "name": "D3",
          "ticks": 70008,
          "time": 49.7215411875,
          "velocity": 0.30708661417322836
        },
        {
          "duration": 0.1534089374999965,
          "durationTicks": 216,
          "midi": 56,
          "name": "G#3",
          "ticks": 70008,
          "time": 49.7215411875,
          "velocity": 0.30708661417322836
        },
        {
          "duration": 0.1534089374999965,
          "durationTicks": 216,
          "midi": 71,
          "name": "B4",
          "ticks": 70272,
          "time": 49.909041,
          "velocity": 0.30708661417322836
        },
        {
          "duration": 0.1534089374999965,
          "durationTicks": 216,
          "midi": 40,
          "name": "E2",
          "ticks": 70272,
          "time": 49.909041,
          "velocity": 0.30708661417322836
        },
        {
          "duration": 0.1534089374999965,
          "durationTicks": 216,
          "midi": 71,
          "name": "B4",
          "ticks": 70272,
          "time": 49.909041,
          "velocity": 0.30708661417322836
        },
        {
          "duration": 0.1534089374999965,
          "durationTicks": 216,
          "midi": 40,
          "name": "E2",
          "ticks": 70272,
          "time": 49.909041,
          "velocity": 0.30708661417322836
        },
        {
          "duration": 0.15340893750000362,
          "durationTicks": 216,
          "midi": 71,
          "name": "B4",
          "ticks": 70296,
          "time": 49.9260864375,
          "velocity": 0.30708661417322836
        },
        {
          "duration": 0.15340893750000362,
          "durationTicks": 216,
          "midi": 40,
          "name": "E2",
          "ticks": 70296,
          "time": 49.9260864375,
          "velocity": 0.30708661417322836
        },
        {
          "duration": 0.15340893750000362,
          "durationTicks": 216,
          "midi": 50,
          "name": "D3",
          "ticks": 70560,
          "time": 50.11358625,
          "velocity": 0.30708661417322836
        },
        {
          "duration": 0.15340893750000362,
          "durationTicks": 216,
          "midi": 56,
          "name": "G#3",
          "ticks": 70560,
          "time": 50.11358625,
          "velocity": 0.30708661417322836
        },
        {
          "duration": 0.15340893750000362,
          "durationTicks": 216,
          "midi": 74,
          "name": "D5",
          "ticks": 70560,
          "time": 50.11358625,
          "velocity": 0.30708661417322836
        },
        {
          "duration": 0.15340893750000362,
          "durationTicks": 216,
          "midi": 74,
          "name": "D5",
          "ticks": 70560,
          "time": 50.11358625,
          "velocity": 0.30708661417322836
        },
        {
          "duration": 0.15340893750000362,
          "durationTicks": 216,
          "midi": 56,
          "name": "G#3",
          "ticks": 70560,
          "time": 50.11358625,
          "velocity": 0.30708661417322836
        },
        {
          "duration": 0.15340893750000362,
          "durationTicks": 216,
          "midi": 50,
          "name": "D3",
          "ticks": 70560,
          "time": 50.11358625,
          "velocity": 0.30708661417322836
        },
        {
          "duration": 0.15340893750000362,
          "durationTicks": 216,
          "midi": 50,
          "name": "D3",
          "ticks": 70584,
          "time": 50.1306316875,
          "velocity": 0.30708661417322836
        },
        {
          "duration": 0.15340893750000362,
          "durationTicks": 216,
          "midi": 74,
          "name": "D5",
          "ticks": 70584,
          "time": 50.1306316875,
          "velocity": 0.30708661417322836
        },
        {
          "duration": 0.15340893750000362,
          "durationTicks": 216,
          "midi": 56,
          "name": "G#3",
          "ticks": 70584,
          "time": 50.1306316875,
          "velocity": 0.30708661417322836
        },
        {
          "duration": 0.1534089374999965,
          "durationTicks": 216,
          "midi": 72,
          "name": "C5",
          "ticks": 70848,
          "time": 50.3181315,
          "velocity": 0.30708661417322836
        },
        {
          "duration": 0.1534089374999965,
          "durationTicks": 216,
          "midi": 48,
          "name": "C3",
          "ticks": 70848,
          "time": 50.3181315,
          "velocity": 0.30708661417322836
        },
        {
          "duration": 0.1534089374999965,
          "durationTicks": 216,
          "midi": 36,
          "name": "C2",
          "ticks": 70848,
          "time": 50.3181315,
          "velocity": 0.30708661417322836
        },
        {
          "duration": 0.1534089374999965,
          "durationTicks": 216,
          "midi": 48,
          "name": "C3",
          "ticks": 70848,
          "time": 50.3181315,
          "velocity": 0.30708661417322836
        },
        {
          "duration": 0.1534089374999965,
          "durationTicks": 216,
          "midi": 72,
          "name": "C5",
          "ticks": 70848,
          "time": 50.3181315,
          "velocity": 0.30708661417322836
        },
        {
          "duration": 0.1534089374999965,
          "durationTicks": 216,
          "midi": 36,
          "name": "C2",
          "ticks": 70848,
          "time": 50.3181315,
          "velocity": 0.30708661417322836
        },
        {
          "duration": 0.1534089374999965,
          "durationTicks": 216,
          "midi": 48,
          "name": "C3",
          "ticks": 70872,
          "time": 50.3351769375,
          "velocity": 0.30708661417322836
        },
        {
          "duration": 0.1534089374999965,
          "durationTicks": 216,
          "midi": 72,
          "name": "C5",
          "ticks": 70872,
          "time": 50.3351769375,
          "velocity": 0.30708661417322836
        },
        {
          "duration": 0.1534089374999965,
          "durationTicks": 216,
          "midi": 36,
          "name": "C2",
          "ticks": 70872,
          "time": 50.3351769375,
          "velocity": 0.30708661417322836
        },
        {
          "duration": 0.1534089374999965,
          "durationTicks": 216,
          "midi": 33,
          "name": "A1",
          "ticks": 71136,
          "time": 50.52267675,
          "velocity": 0.30708661417322836
        },
        {
          "duration": 0.1534089374999965,
          "durationTicks": 216,
          "midi": 45,
          "name": "A2",
          "ticks": 71136,
          "time": 50.52267675,
          "velocity": 0.30708661417322836
        },
        {
          "duration": 0.1534089374999965,
          "durationTicks": 216,
          "midi": 33,
          "name": "A1",
          "ticks": 71136,
          "time": 50.52267675,
          "velocity": 0.30708661417322836
        },
        {
          "duration": 0.1534089374999965,
          "durationTicks": 216,
          "midi": 69,
          "name": "A4",
          "ticks": 71136,
          "time": 50.52267675,
          "velocity": 0.30708661417322836
        },
        {
          "duration": 0.1534089374999965,
          "durationTicks": 216,
          "midi": 69,
          "name": "A4",
          "ticks": 71136,
          "time": 50.52267675,
          "velocity": 0.30708661417322836
        },
        {
          "duration": 0.1534089374999965,
          "durationTicks": 216,
          "midi": 45,
          "name": "A2",
          "ticks": 71136,
          "time": 50.52267675,
          "velocity": 0.30708661417322836
        },
        {
          "duration": 0.15340893750000362,
          "durationTicks": 216,
          "midi": 69,
          "name": "A4",
          "ticks": 71160,
          "time": 50.5397221875,
          "velocity": 0.30708661417322836
        },
        {
          "duration": 0.15340893750000362,
          "durationTicks": 216,
          "midi": 33,
          "name": "A1",
          "ticks": 71160,
          "time": 50.5397221875,
          "velocity": 0.30708661417322836
        },
        {
          "duration": 0.15340893750000362,
          "durationTicks": 216,
          "midi": 45,
          "name": "A2",
          "ticks": 71160,
          "time": 50.5397221875,
          "velocity": 0.30708661417322836
        },
        {
          "duration": 0.15340893750000362,
          "durationTicks": 216,
          "midi": 36,
          "name": "C2",
          "ticks": 71424,
          "time": 50.727222,
          "velocity": 0.30708661417322836
        },
        {
          "duration": 0.15340893750000362,
          "durationTicks": 216,
          "midi": 72,
          "name": "C5",
          "ticks": 71424,
          "time": 50.727222,
          "velocity": 0.30708661417322836
        },
        {
          "duration": 0.15340893750000362,
          "durationTicks": 216,
          "midi": 36,
          "name": "C2",
          "ticks": 71424,
          "time": 50.727222,
          "velocity": 0.30708661417322836
        },
        {
          "duration": 0.15340893750000362,
          "durationTicks": 216,
          "midi": 48,
          "name": "C3",
          "ticks": 71424,
          "time": 50.727222,
          "velocity": 0.30708661417322836
        },
        {
          "duration": 0.15340893750000362,
          "durationTicks": 216,
          "midi": 48,
          "name": "C3",
          "ticks": 71424,
          "time": 50.727222,
          "velocity": 0.30708661417322836
        },
        {
          "duration": 0.15340893750000362,
          "durationTicks": 216,
          "midi": 72,
          "name": "C5",
          "ticks": 71424,
          "time": 50.727222,
          "velocity": 0.30708661417322836
        },
        {
          "duration": 0.1534089374999965,
          "durationTicks": 216,
          "midi": 36,
          "name": "C2",
          "ticks": 71448,
          "time": 50.7442674375,
          "velocity": 0.30708661417322836
        },
        {
          "duration": 0.1534089374999965,
          "durationTicks": 216,
          "midi": 48,
          "name": "C3",
          "ticks": 71448,
          "time": 50.7442674375,
          "velocity": 0.30708661417322836
        },
        {
          "duration": 0.1534089374999965,
          "durationTicks": 216,
          "midi": 72,
          "name": "C5",
          "ticks": 71448,
          "time": 50.7442674375,
          "velocity": 0.30708661417322836
        },
        {
          "duration": 0.1534089374999965,
          "durationTicks": 216,
          "midi": 52,
          "name": "E3",
          "ticks": 71712,
          "time": 50.93176725,
          "velocity": 0.30708661417322836
        },
        {
          "duration": 0.1534089374999965,
          "durationTicks": 216,
          "midi": 76,
          "name": "E5",
          "ticks": 71712,
          "time": 50.93176725,
          "velocity": 0.30708661417322836
        },
        {
          "duration": 0.1534089374999965,
          "durationTicks": 216,
          "midi": 52,
          "name": "E3",
          "ticks": 71712,
          "time": 50.93176725,
          "velocity": 0.30708661417322836
        },
        {
          "duration": 0.1534089374999965,
          "durationTicks": 216,
          "midi": 76,
          "name": "E5",
          "ticks": 71712,
          "time": 50.93176725,
          "velocity": 0.30708661417322836
        },
        {
          "duration": 0.1534089374999965,
          "durationTicks": 216,
          "midi": 40,
          "name": "E2",
          "ticks": 71712,
          "time": 50.93176725,
          "velocity": 0.30708661417322836
        },
        {
          "duration": 0.1534089374999965,
          "durationTicks": 216,
          "midi": 40,
          "name": "E2",
          "ticks": 71712,
          "time": 50.93176725,
          "velocity": 0.30708661417322836
        },
        {
          "duration": 0.1534089374999965,
          "durationTicks": 216,
          "midi": 76,
          "name": "E5",
          "ticks": 71736,
          "time": 50.9488126875,
          "velocity": 0.30708661417322836
        },
        {
          "duration": 0.1534089374999965,
          "durationTicks": 216,
          "midi": 52,
          "name": "E3",
          "ticks": 71736,
          "time": 50.9488126875,
          "velocity": 0.30708661417322836
        },
        {
          "duration": 0.1534089374999965,
          "durationTicks": 216,
          "midi": 40,
          "name": "E2",
          "ticks": 71736,
          "time": 50.9488126875,
          "velocity": 0.30708661417322836
        },
        {
          "duration": 0.1534089374999965,
          "durationTicks": 216,
          "midi": 57,
          "name": "A3",
          "ticks": 72000,
          "time": 51.1363125,
          "velocity": 0.30708661417322836
        },
        {
          "duration": 0.1534089374999965,
          "durationTicks": 216,
          "midi": 45,
          "name": "A2",
          "ticks": 72000,
          "time": 51.1363125,
          "velocity": 0.30708661417322836
        },
        {
          "duration": 0.1534089374999965,
          "durationTicks": 216,
          "midi": 81,
          "name": "A5",
          "ticks": 72000,
          "time": 51.1363125,
          "velocity": 0.30708661417322836
        },
        {
          "duration": 0.1534089374999965,
          "durationTicks": 216,
          "midi": 45,
          "name": "A2",
          "ticks": 72000,
          "time": 51.1363125,
          "velocity": 0.30708661417322836
        },
        {
          "duration": 0.1534089374999965,
          "durationTicks": 216,
          "midi": 81,
          "name": "A5",
          "ticks": 72000,
          "time": 51.1363125,
          "velocity": 0.30708661417322836
        },
        {
          "duration": 0.1534089374999965,
          "durationTicks": 216,
          "midi": 57,
          "name": "A3",
          "ticks": 72000,
          "time": 51.1363125,
          "velocity": 0.30708661417322836
        },
        {
          "duration": 0.15340893750000362,
          "durationTicks": 216,
          "midi": 81,
          "name": "A5",
          "ticks": 72024,
          "time": 51.1533579375,
          "velocity": 0.30708661417322836
        },
        {
          "duration": 0.15340893750000362,
          "durationTicks": 216,
          "midi": 45,
          "name": "A2",
          "ticks": 72024,
          "time": 51.1533579375,
          "velocity": 0.30708661417322836
        },
        {
          "duration": 0.15340893750000362,
          "durationTicks": 216,
          "midi": 57,
          "name": "A3",
          "ticks": 72024,
          "time": 51.1533579375,
          "velocity": 0.30708661417322836
        },
        {
          "duration": 0.15340893750000362,
          "durationTicks": 216,
          "midi": 76,
          "name": "E5",
          "ticks": 72288,
          "time": 51.34085775,
          "velocity": 0.30708661417322836
        },
        {
          "duration": 0.15340893750000362,
          "durationTicks": 216,
          "midi": 76,
          "name": "E5",
          "ticks": 72288,
          "time": 51.34085775,
          "velocity": 0.30708661417322836
        },
        {
          "duration": 0.1534089374999965,
          "durationTicks": 216,
          "midi": 76,
          "name": "E5",
          "ticks": 72312,
          "time": 51.3579031875,
          "velocity": 0.30708661417322836
        },
        {
          "duration": 0.1534089374999965,
          "durationTicks": 216,
          "midi": 72,
          "name": "C5",
          "ticks": 72576,
          "time": 51.545403,
          "velocity": 0.30708661417322836
        },
        {
          "duration": 0.6306811875000022,
          "durationTicks": 888,
          "midi": 33,
          "name": "A1",
          "ticks": 72576,
          "time": 51.545403,
          "velocity": 0.30708661417322836
        },
        {
          "duration": 0.6306811875000022,
          "durationTicks": 888,
          "midi": 45,
          "name": "A2",
          "ticks": 72576,
          "time": 51.545403,
          "velocity": 0.30708661417322836
        },
        {
          "duration": 0.1534089374999965,
          "durationTicks": 216,
          "midi": 72,
          "name": "C5",
          "ticks": 72576,
          "time": 51.545403,
          "velocity": 0.30708661417322836
        },
        {
          "duration": 0.6306811875000022,
          "durationTicks": 888,
          "midi": 45,
          "name": "A2",
          "ticks": 72576,
          "time": 51.545403,
          "velocity": 0.30708661417322836
        },
        {
          "duration": 0.6306811875000022,
          "durationTicks": 888,
          "midi": 33,
          "name": "A1",
          "ticks": 72576,
          "time": 51.545403,
          "velocity": 0.30708661417322836
        },
        {
          "duration": 0.6306811874999951,
          "durationTicks": 888,
          "midi": 33,
          "name": "A1",
          "ticks": 72600,
          "time": 51.5624484375,
          "velocity": 0.30708661417322836
        },
        {
          "duration": 0.6306811874999951,
          "durationTicks": 888,
          "midi": 45,
          "name": "A2",
          "ticks": 72600,
          "time": 51.5624484375,
          "velocity": 0.30708661417322836
        },
        {
          "duration": 0.1534089374999965,
          "durationTicks": 216,
          "midi": 72,
          "name": "C5",
          "ticks": 72600,
          "time": 51.5624484375,
          "velocity": 0.30708661417322836
        },
        {
          "duration": 0.1534089374999965,
          "durationTicks": 216,
          "midi": 69,
          "name": "A4",
          "ticks": 72864,
          "time": 51.74994825,
          "velocity": 0.30708661417322836
        },
        {
          "duration": 0.1534089374999965,
          "durationTicks": 216,
          "midi": 69,
          "name": "A4",
          "ticks": 72864,
          "time": 51.74994825,
          "velocity": 0.30708661417322836
        },
        {
          "duration": 0.15340893750000362,
          "durationTicks": 216,
          "midi": 69,
          "name": "A4",
          "ticks": 72888,
          "time": 51.7669936875,
          "velocity": 0.30708661417322836
        },
        {
          "duration": 0.28977243749999815,
          "durationTicks": 408,
          "midi": 47,
          "name": "B2",
          "ticks": 73008,
          "time": 51.852220875,
          "velocity": 0.30708661417322836
        },
        {
          "duration": 0.28977243749999815,
          "durationTicks": 408,
          "midi": 35,
          "name": "B1",
          "ticks": 73008,
          "time": 51.852220875,
          "velocity": 0.30708661417322836
        },
        {
          "duration": 0.28977243749999815,
          "durationTicks": 408,
          "midi": 47,
          "name": "B2",
          "ticks": 73008,
          "time": 51.852220875,
          "velocity": 0.30708661417322836
        },
        {
          "duration": 0.28977243749999815,
          "durationTicks": 408,
          "midi": 35,
          "name": "B1",
          "ticks": 73008,
          "time": 51.852220875,
          "velocity": 0.30708661417322836
        },
        {
          "duration": 0.28977243749999815,
          "durationTicks": 408,
          "midi": 47,
          "name": "B2",
          "ticks": 73032,
          "time": 51.8692663125,
          "velocity": 0.30708661417322836
        },
        {
          "duration": 0.28977243749999815,
          "durationTicks": 408,
          "midi": 35,
          "name": "B1",
          "ticks": 73032,
          "time": 51.8692663125,
          "velocity": 0.30708661417322836
        },
        {
          "duration": 0.28977243749999815,
          "durationTicks": 408,
          "midi": 37,
          "name": "C#2",
          "ticks": 73104,
          "time": 51.920402625,
          "velocity": 0.30708661417322836
        },
        {
          "duration": 0.28977243749999815,
          "durationTicks": 408,
          "midi": 37,
          "name": "C#2",
          "ticks": 73104,
          "time": 51.920402625,
          "velocity": 0.30708661417322836
        },
        {
          "duration": 0.28977243749999815,
          "durationTicks": 408,
          "midi": 49,
          "name": "C#3",
          "ticks": 73104,
          "time": 51.920402625,
          "velocity": 0.30708661417322836
        },
        {
          "duration": 0.28977243749999815,
          "durationTicks": 408,
          "midi": 49,
          "name": "C#3",
          "ticks": 73104,
          "time": 51.920402625,
          "velocity": 0.30708661417322836
        },
        {
          "duration": 0.28977243750000525,
          "durationTicks": 408,
          "midi": 49,
          "name": "C#3",
          "ticks": 73128,
          "time": 51.937448062499996,
          "velocity": 0.30708661417322836
        },
        {
          "duration": 0.28977243750000525,
          "durationTicks": 408,
          "midi": 37,
          "name": "C#2",
          "ticks": 73128,
          "time": 51.937448062499996,
          "velocity": 0.30708661417322836
        },
        {
          "duration": 0.35795418749999897,
          "durationTicks": 504,
          "midi": 74,
          "name": "D5",
          "ticks": 73152,
          "time": 51.9544935,
          "velocity": 0.30708661417322836
        },
        {
          "duration": 0.35795418749999897,
          "durationTicks": 504,
          "midi": 74,
          "name": "D5",
          "ticks": 73152,
          "time": 51.9544935,
          "velocity": 0.30708661417322836
        },
        {
          "duration": 0.22159068750000444,
          "durationTicks": 312,
          "midi": 50,
          "name": "D3",
          "ticks": 73152,
          "time": 51.9544935,
          "velocity": 0.30708661417322836
        },
        {
          "duration": 0.22159068750000444,
          "durationTicks": 312,
          "midi": 50,
          "name": "D3",
          "ticks": 73152,
          "time": 51.9544935,
          "velocity": 0.30708661417322836
        },
        {
          "duration": 0.35795418749999897,
          "durationTicks": 504,
          "midi": 74,
          "name": "D5",
          "ticks": 73176,
          "time": 51.9715389375,
          "velocity": 0.30708661417322836
        },
        {
          "duration": 0.22159068749999733,
          "durationTicks": 312,
          "midi": 50,
          "name": "D3",
          "ticks": 73176,
          "time": 51.9715389375,
          "velocity": 0.30708661417322836
        },
        {
          "duration": 0.1534089374999965,
          "durationTicks": 216,
          "midi": 57,
          "name": "A3",
          "ticks": 73440,
          "time": 52.15903875,
          "velocity": 0.30708661417322836
        },
        {
          "duration": 0.1534089374999965,
          "durationTicks": 216,
          "midi": 57,
          "name": "A3",
          "ticks": 73440,
          "time": 52.15903875,
          "velocity": 0.30708661417322836
        },
        {
          "duration": 0.1534089374999965,
          "durationTicks": 216,
          "midi": 53,
          "name": "F3",
          "ticks": 73440,
          "time": 52.15903875,
          "velocity": 0.30708661417322836
        },
        {
          "duration": 0.1534089374999965,
          "durationTicks": 216,
          "midi": 53,
          "name": "F3",
          "ticks": 73440,
          "time": 52.15903875,
          "velocity": 0.30708661417322836
        },
        {
          "duration": 0.1534089374999965,
          "durationTicks": 216,
          "midi": 53,
          "name": "F3",
          "ticks": 73464,
          "time": 52.1760841875,
          "velocity": 0.30708661417322836
        },
        {
          "duration": 0.1534089374999965,
          "durationTicks": 216,
          "midi": 57,
          "name": "A3",
          "ticks": 73464,
          "time": 52.1760841875,
          "velocity": 0.30708661417322836
        },
        {
          "duration": 0.1534089374999965,
          "durationTicks": 216,
          "midi": 73,
          "name": "C#5",
          "ticks": 73632,
          "time": 52.29540225,
          "velocity": 0.30708661417322836
        },
        {
          "duration": 0.1534089374999965,
          "durationTicks": 216,
          "midi": 73,
          "name": "C#5",
          "ticks": 73632,
          "time": 52.29540225,
          "velocity": 0.30708661417322836
        },
        {
          "duration": 0.15340893750000362,
          "durationTicks": 216,
          "midi": 73,
          "name": "C#5",
          "ticks": 73656,
          "time": 52.3124476875,
          "velocity": 0.30708661417322836
        },
        {
          "duration": 0.1534089374999965,
          "durationTicks": 216,
          "midi": 74,
          "name": "D5",
          "ticks": 73728,
          "time": 52.363584,
          "velocity": 0.30708661417322836
        },
        {
          "duration": 0.22159068749999733,
          "durationTicks": 312,
          "midi": 45,
          "name": "A2",
          "ticks": 73728,
          "time": 52.363584,
          "velocity": 0.30708661417322836
        },
        {
          "duration": 0.1534089374999965,
          "durationTicks": 216,
          "midi": 74,
          "name": "D5",
          "ticks": 73728,
          "time": 52.363584,
          "velocity": 0.30708661417322836
        },
        {
          "duration": 0.22159068749999733,
          "durationTicks": 312,
          "midi": 45,
          "name": "A2",
          "ticks": 73728,
          "time": 52.363584,
          "velocity": 0.30708661417322836
        },
        {
          "duration": 0.15340893750000362,
          "durationTicks": 216,
          "midi": 74,
          "name": "D5",
          "ticks": 73752,
          "time": 52.3806294375,
          "velocity": 0.30708661417322836
        },
        {
          "duration": 0.22159068750000444,
          "durationTicks": 312,
          "midi": 45,
          "name": "A2",
          "ticks": 73752,
          "time": 52.3806294375,
          "velocity": 0.30708661417322836
        },
        {
          "duration": 0.15340893750000362,
          "durationTicks": 216,
          "midi": 53,
          "name": "F3",
          "ticks": 74016,
          "time": 52.56812925,
          "velocity": 0.30708661417322836
        },
        {
          "duration": 0.15340893750000362,
          "durationTicks": 216,
          "midi": 76,
          "name": "E5",
          "ticks": 74016,
          "time": 52.56812925,
          "velocity": 0.30708661417322836
        },
        {
          "duration": 0.15340893750000362,
          "durationTicks": 216,
          "midi": 57,
          "name": "A3",
          "ticks": 74016,
          "time": 52.56812925,
          "velocity": 0.30708661417322836
        },
        {
          "duration": 0.15340893750000362,
          "durationTicks": 216,
          "midi": 76,
          "name": "E5",
          "ticks": 74016,
          "time": 52.56812925,
          "velocity": 0.30708661417322836
        },
        {
          "duration": 0.15340893750000362,
          "durationTicks": 216,
          "midi": 53,
          "name": "F3",
          "ticks": 74016,
          "time": 52.56812925,
          "velocity": 0.30708661417322836
        },
        {
          "duration": 0.15340893750000362,
          "durationTicks": 216,
          "midi": 57,
          "name": "A3",
          "ticks": 74016,
          "time": 52.56812925,
          "velocity": 0.30708661417322836
        },
        {
          "duration": 0.1534089374999965,
          "durationTicks": 216,
          "midi": 53,
          "name": "F3",
          "ticks": 74040,
          "time": 52.5851746875,
          "velocity": 0.30708661417322836
        },
        {
          "duration": 0.1534089374999965,
          "durationTicks": 216,
          "midi": 57,
          "name": "A3",
          "ticks": 74040,
          "time": 52.5851746875,
          "velocity": 0.30708661417322836
        },
        {
          "duration": 0.1534089374999965,
          "durationTicks": 216,
          "midi": 76,
          "name": "E5",
          "ticks": 74040,
          "time": 52.5851746875,
          "velocity": 0.30708661417322836
        },
        {
          "duration": 0.1534089374999965,
          "durationTicks": 216,
          "midi": 77,
          "name": "F5",
          "ticks": 74304,
          "time": 52.7726745,
          "velocity": 0.30708661417322836
        },
        {
          "duration": 0.22159068749999733,
          "durationTicks": 312,
          "midi": 50,
          "name": "D3",
          "ticks": 74304,
          "time": 52.7726745,
          "velocity": 0.30708661417322836
        },
        {
          "duration": 0.22159068749999733,
          "durationTicks": 312,
          "midi": 50,
          "name": "D3",
          "ticks": 74304,
          "time": 52.7726745,
          "velocity": 0.30708661417322836
        },
        {
          "duration": 0.1534089374999965,
          "durationTicks": 216,
          "midi": 77,
          "name": "F5",
          "ticks": 74304,
          "time": 52.7726745,
          "velocity": 0.30708661417322836
        },
        {
          "duration": 0.1534089374999965,
          "durationTicks": 216,
          "midi": 77,
          "name": "F5",
          "ticks": 74328,
          "time": 52.7897199375,
          "velocity": 0.30708661417322836
        },
        {
          "duration": 0.22159068749999733,
          "durationTicks": 312,
          "midi": 50,
          "name": "D3",
          "ticks": 74328,
          "time": 52.7897199375,
          "velocity": 0.30708661417322836
        },
        {
          "duration": 0.15340893750000362,
          "durationTicks": 216,
          "midi": 57,
          "name": "A3",
          "ticks": 74592,
          "time": 52.977219749999996,
          "velocity": 0.30708661417322836
        },
        {
          "duration": 0.15340893750000362,
          "durationTicks": 216,
          "midi": 57,
          "name": "A3",
          "ticks": 74592,
          "time": 52.977219749999996,
          "velocity": 0.30708661417322836
        },
        {
          "duration": 0.15340893750000362,
          "durationTicks": 216,
          "midi": 76,
          "name": "E5",
          "ticks": 74592,
          "time": 52.977219749999996,
          "velocity": 0.30708661417322836
        },
        {
          "duration": 0.15340893750000362,
          "durationTicks": 216,
          "midi": 53,
          "name": "F3",
          "ticks": 74592,
          "time": 52.977219749999996,
          "velocity": 0.30708661417322836
        },
        {
          "duration": 0.15340893750000362,
          "durationTicks": 216,
          "midi": 76,
          "name": "E5",
          "ticks": 74592,
          "time": 52.977219749999996,
          "velocity": 0.30708661417322836
        },
        {
          "duration": 0.15340893750000362,
          "durationTicks": 216,
          "midi": 53,
          "name": "F3",
          "ticks": 74592,
          "time": 52.977219749999996,
          "velocity": 0.30708661417322836
        },
        {
          "duration": 0.15340893750000362,
          "durationTicks": 216,
          "midi": 53,
          "name": "F3",
          "ticks": 74616,
          "time": 52.9942651875,
          "velocity": 0.30708661417322836
        },
        {
          "duration": 0.15340893750000362,
          "durationTicks": 216,
          "midi": 57,
          "name": "A3",
          "ticks": 74616,
          "time": 52.9942651875,
          "velocity": 0.30708661417322836
        },
        {
          "duration": 0.15340893750000362,
          "durationTicks": 216,
          "midi": 76,
          "name": "E5",
          "ticks": 74616,
          "time": 52.9942651875,
          "velocity": 0.30708661417322836
        },
        {
          "duration": 0.15340893750000362,
          "durationTicks": 216,
          "midi": 74,
          "name": "D5",
          "ticks": 74880,
          "time": 53.181765,
          "velocity": 0.30708661417322836
        },
        {
          "duration": 0.15340893750000362,
          "durationTicks": 216,
          "midi": 74,
          "name": "D5",
          "ticks": 74880,
          "time": 53.181765,
          "velocity": 0.30708661417322836
        },
        {
          "duration": 0.22159068749999733,
          "durationTicks": 312,
          "midi": 45,
          "name": "A2",
          "ticks": 74880,
          "time": 53.181765,
          "velocity": 0.30708661417322836
        },
        {
          "duration": 0.22159068749999733,
          "durationTicks": 312,
          "midi": 45,
          "name": "A2",
          "ticks": 74880,
          "time": 53.181765,
          "velocity": 0.30708661417322836
        },
        {
          "duration": 0.22159068749999733,
          "durationTicks": 312,
          "midi": 45,
          "name": "A2",
          "ticks": 74904,
          "time": 53.1988104375,
          "velocity": 0.30708661417322836
        },
        {
          "duration": 0.1534089374999965,
          "durationTicks": 216,
          "midi": 74,
          "name": "D5",
          "ticks": 74904,
          "time": 53.1988104375,
          "velocity": 0.30708661417322836
        },
        {
          "duration": 0.1534089374999965,
          "durationTicks": 216,
          "midi": 57,
          "name": "A3",
          "ticks": 75168,
          "time": 53.38631025,
          "velocity": 0.30708661417322836
        },
        {
          "duration": 0.1534089374999965,
          "durationTicks": 216,
          "midi": 53,
          "name": "F3",
          "ticks": 75168,
          "time": 53.38631025,
          "velocity": 0.30708661417322836
        },
        {
          "duration": 0.1534089374999965,
          "durationTicks": 216,
          "midi": 77,
          "name": "F5",
          "ticks": 75168,
          "time": 53.38631025,
          "velocity": 0.30708661417322836
        },
        {
          "duration": 0.1534089374999965,
          "durationTicks": 216,
          "midi": 53,
          "name": "F3",
          "ticks": 75168,
          "time": 53.38631025,
          "velocity": 0.30708661417322836
        },
        {
          "duration": 0.1534089374999965,
          "durationTicks": 216,
          "midi": 77,
          "name": "F5",
          "ticks": 75168,
          "time": 53.38631025,
          "velocity": 0.30708661417322836
        },
        {
          "duration": 0.1534089374999965,
          "durationTicks": 216,
          "midi": 57,
          "name": "A3",
          "ticks": 75168,
          "time": 53.38631025,
          "velocity": 0.30708661417322836
        },
        {
          "duration": 0.15340893750000362,
          "durationTicks": 216,
          "midi": 53,
          "name": "F3",
          "ticks": 75192,
          "time": 53.403355687499996,
          "velocity": 0.30708661417322836
        },
        {
          "duration": 0.15340893750000362,
          "durationTicks": 216,
          "midi": 77,
          "name": "F5",
          "ticks": 75192,
          "time": 53.403355687499996,
          "velocity": 0.30708661417322836
        },
        {
          "duration": 0.15340893750000362,
          "durationTicks": 216,
          "midi": 57,
          "name": "A3",
          "ticks": 75192,
          "time": 53.403355687499996,
          "velocity": 0.30708661417322836
        },
        {
          "duration": 0.22159068750000444,
          "durationTicks": 312,
          "midi": 48,
          "name": "C3",
          "ticks": 75456,
          "time": 53.590855499999996,
          "velocity": 0.30708661417322836
        },
        {
          "duration": 0.35795418750000607,
          "durationTicks": 504,
          "midi": 76,
          "name": "E5",
          "ticks": 75456,
          "time": 53.590855499999996,
          "velocity": 0.30708661417322836
        },
        {
          "duration": 0.35795418750000607,
          "durationTicks": 504,
          "midi": 76,
          "name": "E5",
          "ticks": 75456,
          "time": 53.590855499999996,
          "velocity": 0.30708661417322836
        },
        {
          "duration": 0.22159068750000444,
          "durationTicks": 312,
          "midi": 48,
          "name": "C3",
          "ticks": 75456,
          "time": 53.590855499999996,
          "velocity": 0.30708661417322836
        },
        {
          "duration": 0.22159068750000444,
          "durationTicks": 312,
          "midi": 48,
          "name": "C3",
          "ticks": 75480,
          "time": 53.6079009375,
          "velocity": 0.30708661417322836
        },
        {
          "duration": 0.35795418749999897,
          "durationTicks": 504,
          "midi": 76,
          "name": "E5",
          "ticks": 75480,
          "time": 53.6079009375,
          "velocity": 0.30708661417322836
        },
        {
          "duration": 0.15340893750000362,
          "durationTicks": 216,
          "midi": 57,
          "name": "A3",
          "ticks": 75744,
          "time": 53.79540075,
          "velocity": 0.30708661417322836
        },
        {
          "duration": 0.15340893750000362,
          "durationTicks": 216,
          "midi": 52,
          "name": "E3",
          "ticks": 75744,
          "time": 53.79540075,
          "velocity": 0.30708661417322836
        },
        {
          "duration": 0.15340893750000362,
          "durationTicks": 216,
          "midi": 57,
          "name": "A3",
          "ticks": 75744,
          "time": 53.79540075,
          "velocity": 0.30708661417322836
        },
        {
          "duration": 0.15340893750000362,
          "durationTicks": 216,
          "midi": 52,
          "name": "E3",
          "ticks": 75744,
          "time": 53.79540075,
          "velocity": 0.30708661417322836
        },
        {
          "duration": 0.1534089374999965,
          "durationTicks": 216,
          "midi": 57,
          "name": "A3",
          "ticks": 75768,
          "time": 53.8124461875,
          "velocity": 0.30708661417322836
        },
        {
          "duration": 0.1534089374999965,
          "durationTicks": 216,
          "midi": 52,
          "name": "E3",
          "ticks": 75768,
          "time": 53.8124461875,
          "velocity": 0.30708661417322836
        },
        {
          "duration": 0.1534089374999965,
          "durationTicks": 216,
          "midi": 74,
          "name": "D5",
          "ticks": 75936,
          "time": 53.93176425,
          "velocity": 0.30708661417322836
        },
        {
          "duration": 0.1534089374999965,
          "durationTicks": 216,
          "midi": 74,
          "name": "D5",
          "ticks": 75936,
          "time": 53.93176425,
          "velocity": 0.30708661417322836
        },
        {
          "duration": 0.1534089374999965,
          "durationTicks": 216,
          "midi": 74,
          "name": "D5",
          "ticks": 75960,
          "time": 53.9488096875,
          "velocity": 0.30708661417322836
        },
        {
          "duration": 0.1534089374999965,
          "durationTicks": 216,
          "midi": 72,
          "name": "C5",
          "ticks": 76032,
          "time": 53.999946,
          "velocity": 0.30708661417322836
        },
        {
          "duration": 0.1534089374999965,
          "durationTicks": 216,
          "midi": 45,
          "name": "A2",
          "ticks": 76032,
          "time": 53.999946,
          "velocity": 0.30708661417322836
        },
        {
          "duration": 0.1534089374999965,
          "durationTicks": 216,
          "midi": 72,
          "name": "C5",
          "ticks": 76032,
          "time": 53.999946,
          "velocity": 0.30708661417322836
        },
        {
          "duration": 0.1534089374999965,
          "durationTicks": 216,
          "midi": 45,
          "name": "A2",
          "ticks": 76032,
          "time": 53.999946,
          "velocity": 0.30708661417322836
        },
        {
          "duration": 0.15340893750000362,
          "durationTicks": 216,
          "midi": 72,
          "name": "C5",
          "ticks": 76056,
          "time": 54.016991437499996,
          "velocity": 0.30708661417322836
        },
        {
          "duration": 0.15340893750000362,
          "durationTicks": 216,
          "midi": 45,
          "name": "A2",
          "ticks": 76056,
          "time": 54.016991437499996,
          "velocity": 0.30708661417322836
        },
        {
          "duration": 0.15340893750000362,
          "durationTicks": 216,
          "midi": 52,
          "name": "E3",
          "ticks": 76320,
          "time": 54.20449125,
          "velocity": 0.30708661417322836
        },
        {
          "duration": 0.15340893750000362,
          "durationTicks": 216,
          "midi": 57,
          "name": "A3",
          "ticks": 76320,
          "time": 54.20449125,
          "velocity": 0.30708661417322836
        },
        {
          "duration": 0.15340893750000362,
          "durationTicks": 216,
          "midi": 74,
          "name": "D5",
          "ticks": 76320,
          "time": 54.20449125,
          "velocity": 0.30708661417322836
        },
        {
          "duration": 0.15340893750000362,
          "durationTicks": 216,
          "midi": 52,
          "name": "E3",
          "ticks": 76320,
          "time": 54.20449125,
          "velocity": 0.30708661417322836
        },
        {
          "duration": 0.15340893750000362,
          "durationTicks": 216,
          "midi": 74,
          "name": "D5",
          "ticks": 76320,
          "time": 54.20449125,
          "velocity": 0.30708661417322836
        },
        {
          "duration": 0.15340893750000362,
          "durationTicks": 216,
          "midi": 57,
          "name": "A3",
          "ticks": 76320,
          "time": 54.20449125,
          "velocity": 0.30708661417322836
        },
        {
          "duration": 0.15340893750000362,
          "durationTicks": 216,
          "midi": 74,
          "name": "D5",
          "ticks": 76344,
          "time": 54.2215366875,
          "velocity": 0.30708661417322836
        },
        {
          "duration": 0.15340893750000362,
          "durationTicks": 216,
          "midi": 52,
          "name": "E3",
          "ticks": 76344,
          "time": 54.2215366875,
          "velocity": 0.30708661417322836
        },
        {
          "duration": 0.15340893750000362,
          "durationTicks": 216,
          "midi": 57,
          "name": "A3",
          "ticks": 76344,
          "time": 54.2215366875,
          "velocity": 0.30708661417322836
        },
        {
          "duration": 0.4261359374999998,
          "durationTicks": 600,
          "midi": 76,
          "name": "E5",
          "ticks": 76608,
          "time": 54.4090365,
          "velocity": 0.30708661417322836
        },
        {
          "duration": 0.22159068749999733,
          "durationTicks": 312,
          "midi": 48,
          "name": "C3",
          "ticks": 76608,
          "time": 54.4090365,
          "velocity": 0.30708661417322836
        },
        {
          "duration": 0.4261359374999998,
          "durationTicks": 600,
          "midi": 76,
          "name": "E5",
          "ticks": 76608,
          "time": 54.4090365,
          "velocity": 0.30708661417322836
        },
        {
          "duration": 0.22159068749999733,
          "durationTicks": 312,
          "midi": 48,
          "name": "C3",
          "ticks": 76608,
          "time": 54.4090365,
          "velocity": 0.30708661417322836
        },
        {
          "duration": 0.22159068749999733,
          "durationTicks": 312,
          "midi": 48,
          "name": "C3",
          "ticks": 76632,
          "time": 54.4260819375,
          "velocity": 0.30708661417322836
        },
        {
          "duration": 0.4261359374999998,
          "durationTicks": 600,
          "midi": 76,
          "name": "E5",
          "ticks": 76632,
          "time": 54.4260819375,
          "velocity": 0.30708661417322836
        },
        {
          "duration": 0.1534089374999965,
          "durationTicks": 216,
          "midi": 52,
          "name": "E3",
          "ticks": 76896,
          "time": 54.61358175,
          "velocity": 0.30708661417322836
        },
        {
          "duration": 0.1534089374999965,
          "durationTicks": 216,
          "midi": 57,
          "name": "A3",
          "ticks": 76896,
          "time": 54.61358175,
          "velocity": 0.30708661417322836
        },
        {
          "duration": 0.1534089374999965,
          "durationTicks": 216,
          "midi": 52,
          "name": "E3",
          "ticks": 76896,
          "time": 54.61358175,
          "velocity": 0.30708661417322836
        },
        {
          "duration": 0.1534089374999965,
          "durationTicks": 216,
          "midi": 57,
          "name": "A3",
          "ticks": 76896,
          "time": 54.61358175,
          "velocity": 0.30708661417322836
        },
        {
          "duration": 0.15340893750000362,
          "durationTicks": 216,
          "midi": 52,
          "name": "E3",
          "ticks": 76920,
          "time": 54.6306271875,
          "velocity": 0.30708661417322836
        },
        {
          "duration": 0.15340893750000362,
          "durationTicks": 216,
          "midi": 57,
          "name": "A3",
          "ticks": 76920,
          "time": 54.6306271875,
          "velocity": 0.30708661417322836
        },
        {
          "duration": 0.6306811875000022,
          "durationTicks": 888,
          "midi": 81,
          "name": "A5",
          "ticks": 77184,
          "time": 54.818127,
          "velocity": 0.30708661417322836
        },
        {
          "duration": 0.15340893750000362,
          "durationTicks": 216,
          "midi": 45,
          "name": "A2",
          "ticks": 77184,
          "time": 54.818127,
          "velocity": 0.30708661417322836
        },
        {
          "duration": 0.15340893750000362,
          "durationTicks": 216,
          "midi": 45,
          "name": "A2",
          "ticks": 77184,
          "time": 54.818127,
          "velocity": 0.30708661417322836
        },
        {
          "duration": 0.6306811875000022,
          "durationTicks": 888,
          "midi": 81,
          "name": "A5",
          "ticks": 77184,
          "time": 54.818127,
          "velocity": 0.30708661417322836
        },
        {
          "duration": 0.15340893750000362,
          "durationTicks": 216,
          "midi": 45,
          "name": "A2",
          "ticks": 77208,
          "time": 54.8351724375,
          "velocity": 0.30708661417322836
        },
        {
          "duration": 0.6306811875000022,
          "durationTicks": 888,
          "midi": 81,
          "name": "A5",
          "ticks": 77208,
          "time": 54.8351724375,
          "velocity": 0.30708661417322836
        },
        {
          "duration": 0.1534089374999965,
          "durationTicks": 216,
          "midi": 52,
          "name": "E3",
          "ticks": 77472,
          "time": 55.02267225,
          "velocity": 0.30708661417322836
        },
        {
          "duration": 0.1534089374999965,
          "durationTicks": 216,
          "midi": 57,
          "name": "A3",
          "ticks": 77472,
          "time": 55.02267225,
          "velocity": 0.30708661417322836
        },
        {
          "duration": 0.1534089374999965,
          "durationTicks": 216,
          "midi": 57,
          "name": "A3",
          "ticks": 77472,
          "time": 55.02267225,
          "velocity": 0.30708661417322836
        },
        {
          "duration": 0.1534089374999965,
          "durationTicks": 216,
          "midi": 52,
          "name": "E3",
          "ticks": 77472,
          "time": 55.02267225,
          "velocity": 0.30708661417322836
        },
        {
          "duration": 0.1534089374999965,
          "durationTicks": 216,
          "midi": 52,
          "name": "E3",
          "ticks": 77496,
          "time": 55.0397176875,
          "velocity": 0.30708661417322836
        },
        {
          "duration": 0.1534089374999965,
          "durationTicks": 216,
          "midi": 57,
          "name": "A3",
          "ticks": 77496,
          "time": 55.0397176875,
          "velocity": 0.30708661417322836
        },
        {
          "duration": 0.22159068749999733,
          "durationTicks": 312,
          "midi": 47,
          "name": "B2",
          "ticks": 77760,
          "time": 55.2272175,
          "velocity": 0.30708661417322836
        },
        {
          "duration": 0.22159068749999733,
          "durationTicks": 312,
          "midi": 47,
          "name": "B2",
          "ticks": 77760,
          "time": 55.2272175,
          "velocity": 0.30708661417322836
        },
        {
          "duration": 0.22159068750000444,
          "durationTicks": 312,
          "midi": 47,
          "name": "B2",
          "ticks": 77784,
          "time": 55.2442629375,
          "velocity": 0.30708661417322836
        },
        {
          "duration": 0.15340893750000362,
          "durationTicks": 216,
          "midi": 53,
          "name": "F3",
          "ticks": 78048,
          "time": 55.43176275,
          "velocity": 0.30708661417322836
        },
        {
          "duration": 0.4261359374999998,
          "durationTicks": 600,
          "midi": 74,
          "name": "D5",
          "ticks": 78048,
          "time": 55.43176275,
          "velocity": 0.30708661417322836
        },
        {
          "duration": 0.15340893750000362,
          "durationTicks": 216,
          "midi": 57,
          "name": "A3",
          "ticks": 78048,
          "time": 55.43176275,
          "velocity": 0.30708661417322836
        },
        {
          "duration": 0.4261359374999998,
          "durationTicks": 600,
          "midi": 74,
          "name": "D5",
          "ticks": 78048,
          "time": 55.43176275,
          "velocity": 0.30708661417322836
        },
        {
          "duration": 0.15340893750000362,
          "durationTicks": 216,
          "midi": 57,
          "name": "A3",
          "ticks": 78048,
          "time": 55.43176275,
          "velocity": 0.30708661417322836
        },
        {
          "duration": 0.15340893750000362,
          "durationTicks": 216,
          "midi": 53,
          "name": "F3",
          "ticks": 78048,
          "time": 55.43176275,
          "velocity": 0.30708661417322836
        },
        {
          "duration": 0.4261359374999998,
          "durationTicks": 600,
          "midi": 74,
          "name": "D5",
          "ticks": 78072,
          "time": 55.4488081875,
          "velocity": 0.30708661417322836
        },
        {
          "duration": 0.15340893750000362,
          "durationTicks": 216,
          "midi": 57,
          "name": "A3",
          "ticks": 78072,
          "time": 55.4488081875,
          "velocity": 0.30708661417322836
        },
        {
          "duration": 0.15340893750000362,
          "durationTicks": 216,
          "midi": 53,
          "name": "F3",
          "ticks": 78072,
          "time": 55.4488081875,
          "velocity": 0.30708661417322836
        },
        {
          "duration": 0.1534089374999965,
          "durationTicks": 216,
          "midi": 50,
          "name": "D3",
          "ticks": 78336,
          "time": 55.636308,
          "velocity": 0.30708661417322836
        },
        {
          "duration": 0.1534089374999965,
          "durationTicks": 216,
          "midi": 50,
          "name": "D3",
          "ticks": 78336,
          "time": 55.636308,
          "velocity": 0.30708661417322836
        },
        {
          "duration": 0.1534089374999965,
          "durationTicks": 216,
          "midi": 50,
          "name": "D3",
          "ticks": 78360,
          "time": 55.6533534375,
          "velocity": 0.30708661417322836
        },
        {
          "duration": 0.1534089374999965,
          "durationTicks": 216,
          "midi": 77,
          "name": "F5",
          "ticks": 78624,
          "time": 55.84085325,
          "velocity": 0.30708661417322836
        },
        {
          "duration": 0.1534089374999965,
          "durationTicks": 216,
          "midi": 53,
          "name": "F3",
          "ticks": 78624,
          "time": 55.84085325,
          "velocity": 0.30708661417322836
        },
        {
          "duration": 0.1534089374999965,
          "durationTicks": 216,
          "midi": 57,
          "name": "A3",
          "ticks": 78624,
          "time": 55.84085325,
          "velocity": 0.30708661417322836
        },
        {
          "duration": 0.1534089374999965,
          "durationTicks": 216,
          "midi": 57,
          "name": "A3",
          "ticks": 78624,
          "time": 55.84085325,
          "velocity": 0.30708661417322836
        },
        {
          "duration": 0.1534089374999965,
          "durationTicks": 216,
          "midi": 77,
          "name": "F5",
          "ticks": 78624,
          "time": 55.84085325,
          "velocity": 0.30708661417322836
        },
        {
          "duration": 0.1534089374999965,
          "durationTicks": 216,
          "midi": 53,
          "name": "F3",
          "ticks": 78624,
          "time": 55.84085325,
          "velocity": 0.30708661417322836
        },
        {
          "duration": 0.15340893750000362,
          "durationTicks": 216,
          "midi": 53,
          "name": "F3",
          "ticks": 78648,
          "time": 55.8578986875,
          "velocity": 0.30708661417322836
        },
        {
          "duration": 0.15340893750000362,
          "durationTicks": 216,
          "midi": 57,
          "name": "A3",
          "ticks": 78648,
          "time": 55.8578986875,
          "velocity": 0.30708661417322836
        },
        {
          "duration": 0.15340893750000362,
          "durationTicks": 216,
          "midi": 77,
          "name": "F5",
          "ticks": 78648,
          "time": 55.8578986875,
          "velocity": 0.30708661417322836
        },
        {
          "duration": 0.15340893750000362,
          "durationTicks": 216,
          "midi": 40,
          "name": "E2",
          "ticks": 78912,
          "time": 56.0453985,
          "velocity": 0.30708661417322836
        },
        {
          "duration": 0.15340893750000362,
          "durationTicks": 216,
          "midi": 56,
          "name": "G#3",
          "ticks": 78912,
          "time": 56.0453985,
          "velocity": 0.30708661417322836
        },
        {
          "duration": 0.15340893750000362,
          "durationTicks": 216,
          "midi": 52,
          "name": "E3",
          "ticks": 78912,
          "time": 56.0453985,
          "velocity": 0.30708661417322836
        },
        {
          "duration": 0.15340893750000362,
          "durationTicks": 216,
          "midi": 56,
          "name": "G#3",
          "ticks": 78912,
          "time": 56.0453985,
          "velocity": 0.30708661417322836
        },
        {
          "duration": 0.15340893750000362,
          "durationTicks": 216,
          "midi": 76,
          "name": "E5",
          "ticks": 78912,
          "time": 56.0453985,
          "velocity": 0.30708661417322836
        },
        {
          "duration": 0.15340893750000362,
          "durationTicks": 216,
          "midi": 52,
          "name": "E3",
          "ticks": 78912,
          "time": 56.0453985,
          "velocity": 0.30708661417322836
        },
        {
          "duration": 0.15340893750000362,
          "durationTicks": 216,
          "midi": 40,
          "name": "E2",
          "ticks": 78912,
          "time": 56.0453985,
          "velocity": 0.30708661417322836
        },
        {
          "duration": 0.15340893750000362,
          "durationTicks": 216,
          "midi": 76,
          "name": "E5",
          "ticks": 78912,
          "time": 56.0453985,
          "velocity": 0.30708661417322836
        },
        {
          "duration": 0.1534089374999965,
          "durationTicks": 216,
          "midi": 40,
          "name": "E2",
          "ticks": 78936,
          "time": 56.0624439375,
          "velocity": 0.30708661417322836
        },
        {
          "duration": 0.1534089374999965,
          "durationTicks": 216,
          "midi": 52,
          "name": "E3",
          "ticks": 78936,
          "time": 56.0624439375,
          "velocity": 0.30708661417322836
        },
        {
          "duration": 0.1534089374999965,
          "durationTicks": 216,
          "midi": 56,
          "name": "G#3",
          "ticks": 78936,
          "time": 56.0624439375,
          "velocity": 0.30708661417322836
        },
        {
          "duration": 0.1534089374999965,
          "durationTicks": 216,
          "midi": 76,
          "name": "E5",
          "ticks": 78936,
          "time": 56.0624439375,
          "velocity": 0.30708661417322836
        },
        {
          "duration": 0.1534089374999965,
          "durationTicks": 216,
          "midi": 48,
          "name": "C3",
          "ticks": 79200,
          "time": 56.24994375,
          "velocity": 0.30708661417322836
        },
        {
          "duration": 0.1534089374999965,
          "durationTicks": 216,
          "midi": 36,
          "name": "C2",
          "ticks": 79200,
          "time": 56.24994375,
          "velocity": 0.30708661417322836
        },
        {
          "duration": 0.1534089374999965,
          "durationTicks": 216,
          "midi": 48,
          "name": "C3",
          "ticks": 79200,
          "time": 56.24994375,
          "velocity": 0.30708661417322836
        },
        {
          "duration": 0.1534089374999965,
          "durationTicks": 216,
          "midi": 72,
          "name": "C5",
          "ticks": 79200,
          "time": 56.24994375,
          "velocity": 0.30708661417322836
        },
        {
          "duration": 0.1534089374999965,
          "durationTicks": 216,
          "midi": 72,
          "name": "C5",
          "ticks": 79200,
          "time": 56.24994375,
          "velocity": 0.30708661417322836
        },
        {
          "duration": 0.1534089374999965,
          "durationTicks": 216,
          "midi": 36,
          "name": "C2",
          "ticks": 79200,
          "time": 56.24994375,
          "velocity": 0.30708661417322836
        },
        {
          "duration": 0.1534089374999965,
          "durationTicks": 216,
          "midi": 36,
          "name": "C2",
          "ticks": 79224,
          "time": 56.2669891875,
          "velocity": 0.30708661417322836
        },
        {
          "duration": 0.1534089374999965,
          "durationTicks": 216,
          "midi": 72,
          "name": "C5",
          "ticks": 79224,
          "time": 56.2669891875,
          "velocity": 0.30708661417322836
        },
        {
          "duration": 0.1534089374999965,
          "durationTicks": 216,
          "midi": 48,
          "name": "C3",
          "ticks": 79224,
          "time": 56.2669891875,
          "velocity": 0.30708661417322836
        },
        {
          "duration": 0.1534089374999965,
          "durationTicks": 216,
          "midi": 38,
          "name": "D2",
          "ticks": 79488,
          "time": 56.454489,
          "velocity": 0.30708661417322836
        },
        {
          "duration": 0.1534089374999965,
          "durationTicks": 216,
          "midi": 50,
          "name": "D3",
          "ticks": 79488,
          "time": 56.454489,
          "velocity": 0.30708661417322836
        },
        {
          "duration": 0.1534089374999965,
          "durationTicks": 216,
          "midi": 38,
          "name": "D2",
          "ticks": 79488,
          "time": 56.454489,
          "velocity": 0.30708661417322836
        },
        {
          "duration": 0.1534089374999965,
          "durationTicks": 216,
          "midi": 74,
          "name": "D5",
          "ticks": 79488,
          "time": 56.454489,
          "velocity": 0.30708661417322836
        },
        {
          "duration": 0.1534089374999965,
          "durationTicks": 216,
          "midi": 50,
          "name": "D3",
          "ticks": 79488,
          "time": 56.454489,
          "velocity": 0.30708661417322836
        },
        {
          "duration": 0.1534089374999965,
          "durationTicks": 216,
          "midi": 74,
          "name": "D5",
          "ticks": 79488,
          "time": 56.454489,
          "velocity": 0.30708661417322836
        },
        {
          "duration": 0.15340893750000362,
          "durationTicks": 216,
          "midi": 38,
          "name": "D2",
          "ticks": 79512,
          "time": 56.4715344375,
          "velocity": 0.30708661417322836
        },
        {
          "duration": 0.15340893750000362,
          "durationTicks": 216,
          "midi": 50,
          "name": "D3",
          "ticks": 79512,
          "time": 56.4715344375,
          "velocity": 0.30708661417322836
        },
        {
          "duration": 0.15340893750000362,
          "durationTicks": 216,
          "midi": 74,
          "name": "D5",
          "ticks": 79512,
          "time": 56.4715344375,
          "velocity": 0.30708661417322836
        },
        {
          "duration": 0.15340893750000362,
          "durationTicks": 216,
          "midi": 71,
          "name": "B4",
          "ticks": 79776,
          "time": 56.65903425,
          "velocity": 0.30708661417322836
        },
        {
          "duration": 0.15340893750000362,
          "durationTicks": 216,
          "midi": 35,
          "name": "B1",
          "ticks": 79776,
          "time": 56.65903425,
          "velocity": 0.30708661417322836
        },
        {
          "duration": 0.15340893750000362,
          "durationTicks": 216,
          "midi": 47,
          "name": "B2",
          "ticks": 79776,
          "time": 56.65903425,
          "velocity": 0.30708661417322836
        },
        {
          "duration": 0.15340893750000362,
          "durationTicks": 216,
          "midi": 35,
          "name": "B1",
          "ticks": 79776,
          "time": 56.65903425,
          "velocity": 0.30708661417322836
        },
        {
          "duration": 0.15340893750000362,
          "durationTicks": 216,
          "midi": 71,
          "name": "B4",
          "ticks": 79776,
          "time": 56.65903425,
          "velocity": 0.30708661417322836
        },
        {
          "duration": 0.15340893750000362,
          "durationTicks": 216,
          "midi": 47,
          "name": "B2",
          "ticks": 79776,
          "time": 56.65903425,
          "velocity": 0.30708661417322836
        },
        {
          "duration": 0.1534089374999965,
          "durationTicks": 216,
          "midi": 35,
          "name": "B1",
          "ticks": 79800,
          "time": 56.6760796875,
          "velocity": 0.30708661417322836
        },
        {
          "duration": 0.1534089374999965,
          "durationTicks": 216,
          "midi": 47,
          "name": "B2",
          "ticks": 79800,
          "time": 56.6760796875,
          "velocity": 0.30708661417322836
        },
        {
          "duration": 0.1534089374999965,
          "durationTicks": 216,
          "midi": 71,
          "name": "B4",
          "ticks": 79800,
          "time": 56.6760796875,
          "velocity": 0.30708661417322836
        },
        {
          "duration": 0.22159068749999733,
          "durationTicks": 312,
          "midi": 45,
          "name": "A2",
          "ticks": 80064,
          "time": 56.8635795,
          "velocity": 0.30708661417322836
        },
        {
          "duration": 0.22159068749999733,
          "durationTicks": 312,
          "midi": 69,
          "name": "A4",
          "ticks": 80064,
          "time": 56.8635795,
          "velocity": 0.30708661417322836
        },
        {
          "duration": 0.22159068749999733,
          "durationTicks": 312,
          "midi": 45,
          "name": "A2",
          "ticks": 80064,
          "time": 56.8635795,
          "velocity": 0.30708661417322836
        },
        {
          "duration": 0.22159068749999733,
          "durationTicks": 312,
          "midi": 33,
          "name": "A1",
          "ticks": 80064,
          "time": 56.8635795,
          "velocity": 0.30708661417322836
        },
        {
          "duration": 0.22159068749999733,
          "durationTicks": 312,
          "midi": 33,
          "name": "A1",
          "ticks": 80064,
          "time": 56.8635795,
          "velocity": 0.30708661417322836
        },
        {
          "duration": 0.22159068749999733,
          "durationTicks": 312,
          "midi": 69,
          "name": "A4",
          "ticks": 80064,
          "time": 56.8635795,
          "velocity": 0.30708661417322836
        },
        {
          "duration": 0.22159068749999733,
          "durationTicks": 312,
          "midi": 45,
          "name": "A2",
          "ticks": 80088,
          "time": 56.8806249375,
          "velocity": 0.30708661417322836
        },
        {
          "duration": 0.22159068749999733,
          "durationTicks": 312,
          "midi": 69,
          "name": "A4",
          "ticks": 80088,
          "time": 56.8806249375,
          "velocity": 0.30708661417322836
        },
        {
          "duration": 0.22159068749999733,
          "durationTicks": 312,
          "midi": 33,
          "name": "A1",
          "ticks": 80088,
          "time": 56.8806249375,
          "velocity": 0.30708661417322836
        },
        {
          "duration": 0.15340893750000362,
          "durationTicks": 216,
          "midi": 40,
          "name": "E2",
          "ticks": 80880,
          "time": 57.443124375,
          "velocity": 0.30708661417322836
        },
        {
          "duration": 0.15340893750000362,
          "durationTicks": 216,
          "midi": 56,
          "name": "G#3",
          "ticks": 80880,
          "time": 57.443124375,
          "velocity": 0.30708661417322836
        },
        {
          "duration": 0.15340893750000362,
          "durationTicks": 216,
          "midi": 40,
          "name": "E2",
          "ticks": 80880,
          "time": 57.443124375,
          "velocity": 0.30708661417322836
        },
        {
          "duration": 0.15340893750000362,
          "durationTicks": 216,
          "midi": 52,
          "name": "E3",
          "ticks": 80880,
          "time": 57.443124375,
          "velocity": 0.30708661417322836
        },
        {
          "duration": 0.15340893750000362,
          "durationTicks": 216,
          "midi": 59,
          "name": "B3",
          "ticks": 80880,
          "time": 57.443124375,
          "velocity": 0.30708661417322836
        },
        {
          "duration": 0.15340893750000362,
          "durationTicks": 216,
          "midi": 76,
          "name": "E5",
          "ticks": 80880,
          "time": 57.443124375,
          "velocity": 0.30708661417322836
        },
        {
          "duration": 0.15340893750000362,
          "durationTicks": 216,
          "midi": 76,
          "name": "E5",
          "ticks": 80880,
          "time": 57.443124375,
          "velocity": 0.30708661417322836
        },
        {
          "duration": 0.15340893750000362,
          "durationTicks": 216,
          "midi": 59,
          "name": "B3",
          "ticks": 80880,
          "time": 57.443124375,
          "velocity": 0.30708661417322836
        },
        {
          "duration": 0.15340893750000362,
          "durationTicks": 216,
          "midi": 52,
          "name": "E3",
          "ticks": 80880,
          "time": 57.443124375,
          "velocity": 0.30708661417322836
        },
        {
          "duration": 0.15340893750000362,
          "durationTicks": 216,
          "midi": 28,
          "name": "E1",
          "ticks": 80880,
          "time": 57.443124375,
          "velocity": 0.30708661417322836
        },
        {
          "duration": 0.15340893750000362,
          "durationTicks": 216,
          "midi": 28,
          "name": "E1",
          "ticks": 80880,
          "time": 57.443124375,
          "velocity": 0.30708661417322836
        },
        {
          "duration": 0.15340893750000362,
          "durationTicks": 216,
          "midi": 56,
          "name": "G#3",
          "ticks": 80880,
          "time": 57.443124375,
          "velocity": 0.30708661417322836
        },
        {
          "duration": 0.15340893750000362,
          "durationTicks": 216,
          "midi": 52,
          "name": "E3",
          "ticks": 80904,
          "time": 57.4601698125,
          "velocity": 0.30708661417322836
        },
        {
          "duration": 0.15340893750000362,
          "durationTicks": 216,
          "midi": 59,
          "name": "B3",
          "ticks": 80904,
          "time": 57.4601698125,
          "velocity": 0.30708661417322836
        },
        {
          "duration": 0.15340893750000362,
          "durationTicks": 216,
          "midi": 40,
          "name": "E2",
          "ticks": 80904,
          "time": 57.4601698125,
          "velocity": 0.30708661417322836
        },
        {
          "duration": 0.15340893750000362,
          "durationTicks": 216,
          "midi": 76,
          "name": "E5",
          "ticks": 80904,
          "time": 57.4601698125,
          "velocity": 0.30708661417322836
        },
        {
          "duration": 0.15340893750000362,
          "durationTicks": 216,
          "midi": 56,
          "name": "G#3",
          "ticks": 80904,
          "time": 57.4601698125,
          "velocity": 0.30708661417322836
        },
        {
          "duration": 0.15340893750000362,
          "durationTicks": 216,
          "midi": 28,
          "name": "E1",
          "ticks": 80904,
          "time": 57.4601698125,
          "velocity": 0.30708661417322836
        },
        {
          "duration": 0.15340893750000362,
          "durationTicks": 216,
          "midi": 52,
          "name": "E3",
          "ticks": 81168,
          "time": 57.647669625,
          "velocity": 0.30708661417322836
        },
        {
          "duration": 0.15340893750000362,
          "durationTicks": 216,
          "midi": 52,
          "name": "E3",
          "ticks": 81168,
          "time": 57.647669625,
          "velocity": 0.30708661417322836
        },
        {
          "duration": 0.15340893750000362,
          "durationTicks": 216,
          "midi": 57,
          "name": "A3",
          "ticks": 81168,
          "time": 57.647669625,
          "velocity": 0.30708661417322836
        },
        {
          "duration": 0.15340893750000362,
          "durationTicks": 216,
          "midi": 33,
          "name": "A1",
          "ticks": 81168,
          "time": 57.647669625,
          "velocity": 0.30708661417322836
        },
        {
          "duration": 0.15340893750000362,
          "durationTicks": 216,
          "midi": 60,
          "name": "C4",
          "ticks": 81168,
          "time": 57.647669625,
          "velocity": 0.30708661417322836
        },
        {
          "duration": 0.15340893750000362,
          "durationTicks": 216,
          "midi": 60,
          "name": "C4",
          "ticks": 81168,
          "time": 57.647669625,
          "velocity": 0.30708661417322836
        },
        {
          "duration": 0.15340893750000362,
          "durationTicks": 216,
          "midi": 81,
          "name": "A5",
          "ticks": 81168,
          "time": 57.647669625,
          "velocity": 0.30708661417322836
        },
        {
          "duration": 0.15340893750000362,
          "durationTicks": 216,
          "midi": 57,
          "name": "A3",
          "ticks": 81168,
          "time": 57.647669625,
          "velocity": 0.30708661417322836
        },
        {
          "duration": 0.15340893750000362,
          "durationTicks": 216,
          "midi": 33,
          "name": "A1",
          "ticks": 81168,
          "time": 57.647669625,
          "velocity": 0.30708661417322836
        },
        {
          "duration": 0.15340893750000362,
          "durationTicks": 216,
          "midi": 81,
          "name": "A5",
          "ticks": 81168,
          "time": 57.647669625,
          "velocity": 0.30708661417322836
        },
        {
          "duration": 0.1534089374999965,
          "durationTicks": 216,
          "midi": 45,
          "name": "A2",
          "ticks": 81192,
          "time": 57.6647150625,
          "velocity": 0.30708661417322836
        },
        {
          "duration": 0.1534089374999965,
          "durationTicks": 216,
          "midi": 45,
          "name": "A2",
          "ticks": 81192,
          "time": 57.6647150625,
          "velocity": 0.30708661417322836
        },
        {
          "duration": 0.1534089374999965,
          "durationTicks": 216,
          "midi": 57,
          "name": "A3",
          "ticks": 81192,
          "time": 57.6647150625,
          "velocity": 0.30708661417322836
        },
        {
          "duration": 0.1534089374999965,
          "durationTicks": 216,
          "midi": 45,
          "name": "A2",
          "ticks": 81192,
          "time": 57.6647150625,
          "velocity": 0.30708661417322836
        },
        {
          "duration": 0.1534089374999965,
          "durationTicks": 216,
          "midi": 81,
          "name": "A5",
          "ticks": 81192,
          "time": 57.6647150625,
          "velocity": 0.30708661417322836
        },
        {
          "duration": 0.1534089374999965,
          "durationTicks": 216,
          "midi": 52,
          "name": "E3",
          "ticks": 81192,
          "time": 57.6647150625,
          "velocity": 0.30708661417322836
        },
        {
          "duration": 0.1534089374999965,
          "durationTicks": 216,
          "midi": 33,
          "name": "A1",
          "ticks": 81192,
          "time": 57.6647150625,
          "velocity": 0.30708661417322836
        },
        {
          "duration": 0.1534089374999965,
          "durationTicks": 216,
          "midi": 60,
          "name": "C4",
          "ticks": 81192,
          "time": 57.6647150625,
          "velocity": 0.30708661417322836
        },
        {
          "duration": 0.5624994375000014,
          "durationTicks": 792,
          "midi": 40,
          "name": "E2",
          "ticks": 81792,
          "time": 58.090851,
          "velocity": 0.30708661417322836
        },
        {
          "duration": 0.5624994375000014,
          "durationTicks": 792,
          "midi": 40,
          "name": "E2",
          "ticks": 81792,
          "time": 58.090851,
          "velocity": 0.30708661417322836
        },
        {
          "duration": 0.5624994374999943,
          "durationTicks": 792,
          "midi": 40,
          "name": "E2",
          "ticks": 81816,
          "time": 58.1078964375,
          "velocity": 0.30708661417322836
        },
        {
          "duration": 0.15340893750000362,
          "durationTicks": 216,
          "midi": 42,
          "name": "F#2",
          "ticks": 82272,
          "time": 58.43175975,
          "velocity": 0.30708661417322836
        },
        {
          "duration": 0.15340893750000362,
          "durationTicks": 216,
          "midi": 42,
          "name": "F#2",
          "ticks": 82272,
          "time": 58.43175975,
          "velocity": 0.30708661417322836
        },
        {
          "duration": 0.5624994375000014,
          "durationTicks": 792,
          "midi": 28,
          "name": "E1",
          "ticks": 82272,
          "time": 58.43175975,
          "velocity": 0.30708661417322836
        },
        {
          "duration": 0.5624994375000014,
          "durationTicks": 792,
          "midi": 28,
          "name": "E1",
          "ticks": 82272,
          "time": 58.43175975,
          "velocity": 0.30708661417322836
        },
        {
          "duration": 0.1534089374999965,
          "durationTicks": 216,
          "midi": 42,
          "name": "F#2",
          "ticks": 82296,
          "time": 58.4488051875,
          "velocity": 0.30708661417322836
        },
        {
          "duration": 0.5624994375000014,
          "durationTicks": 792,
          "midi": 28,
          "name": "E1",
          "ticks": 82296,
          "time": 58.4488051875,
          "velocity": 0.30708661417322836
        },
        {
          "duration": 0.1534089374999965,
          "durationTicks": 216,
          "midi": 44,
          "name": "G#2",
          "ticks": 82320,
          "time": 58.465850625,
          "velocity": 0.30708661417322836
        },
        {
          "duration": 0.1534089374999965,
          "durationTicks": 216,
          "midi": 44,
          "name": "G#2",
          "ticks": 82320,
          "time": 58.465850625,
          "velocity": 0.30708661417322836
        },
        {
          "duration": 0.15340893750000362,
          "durationTicks": 216,
          "midi": 44,
          "name": "G#2",
          "ticks": 82344,
          "time": 58.4828960625,
          "velocity": 0.30708661417322836
        },
        {
          "duration": 0.15340893750000362,
          "durationTicks": 216,
          "midi": 64,
          "name": "E4",
          "ticks": 82368,
          "time": 58.4999415,
          "velocity": 0.30708661417322836
        },
        {
          "duration": 0.15340893750000362,
          "durationTicks": 216,
          "midi": 64,
          "name": "E4",
          "ticks": 82368,
          "time": 58.4999415,
          "velocity": 0.30708661417322836
        },
        {
          "duration": 0.15340893750000362,
          "durationTicks": 216,
          "midi": 45,
          "name": "A2",
          "ticks": 82368,
          "time": 58.4999415,
          "velocity": 0.30708661417322836
        },
        {
          "duration": 0.15340893750000362,
          "durationTicks": 216,
          "midi": 76,
          "name": "E5",
          "ticks": 82368,
          "time": 58.4999415,
          "velocity": 0.30708661417322836
        },
        {
          "duration": 0.15340893750000362,
          "durationTicks": 216,
          "midi": 76,
          "name": "E5",
          "ticks": 82368,
          "time": 58.4999415,
          "velocity": 0.30708661417322836
        },
        {
          "duration": 0.15340893750000362,
          "durationTicks": 216,
          "midi": 45,
          "name": "A2",
          "ticks": 82368,
          "time": 58.4999415,
          "velocity": 0.30708661417322836
        },
        {
          "duration": 0.1534089374999965,
          "durationTicks": 216,
          "midi": 64,
          "name": "E4",
          "ticks": 82392,
          "time": 58.5169869375,
          "velocity": 0.30708661417322836
        },
        {
          "duration": 0.1534089374999965,
          "durationTicks": 216,
          "midi": 76,
          "name": "E5",
          "ticks": 82392,
          "time": 58.5169869375,
          "velocity": 0.30708661417322836
        },
        {
          "duration": 0.1534089374999965,
          "durationTicks": 216,
          "midi": 45,
          "name": "A2",
          "ticks": 82392,
          "time": 58.5169869375,
          "velocity": 0.30708661417322836
        },
        {
          "duration": 0.15340893750000362,
          "durationTicks": 216,
          "midi": 76,
          "name": "E5",
          "ticks": 82512,
          "time": 58.602214124999996,
          "velocity": 0.30708661417322836
        },
        {
          "duration": 0.15340893750000362,
          "durationTicks": 216,
          "midi": 76,
          "name": "E5",
          "ticks": 82512,
          "time": 58.602214124999996,
          "velocity": 0.30708661417322836
        },
        {
          "duration": 0.15340893750000362,
          "durationTicks": 216,
          "midi": 64,
          "name": "E4",
          "ticks": 82512,
          "time": 58.602214124999996,
          "velocity": 0.30708661417322836
        },
        {
          "duration": 0.15340893750000362,
          "durationTicks": 216,
          "midi": 64,
          "name": "E4",
          "ticks": 82512,
          "time": 58.602214124999996,
          "velocity": 0.30708661417322836
        },
        {
          "duration": 0.15340893750000362,
          "durationTicks": 216,
          "midi": 64,
          "name": "E4",
          "ticks": 82536,
          "time": 58.6192595625,
          "velocity": 0.30708661417322836
        },
        {
          "duration": 0.15340893750000362,
          "durationTicks": 216,
          "midi": 76,
          "name": "E5",
          "ticks": 82536,
          "time": 58.6192595625,
          "velocity": 0.30708661417322836
        },
        {
          "duration": 0.1534089374999965,
          "durationTicks": 216,
          "midi": 52,
          "name": "E3",
          "ticks": 82656,
          "time": 58.70448675,
          "velocity": 0.30708661417322836
        },
        {
          "duration": 0.1534089374999965,
          "durationTicks": 216,
          "midi": 76,
          "name": "E5",
          "ticks": 82656,
          "time": 58.70448675,
          "velocity": 0.30708661417322836
        },
        {
          "duration": 0.1534089374999965,
          "durationTicks": 216,
          "midi": 48,
          "name": "C3",
          "ticks": 82656,
          "time": 58.70448675,
          "velocity": 0.30708661417322836
        },
        {
          "duration": 0.1534089374999965,
          "durationTicks": 216,
          "midi": 52,
          "name": "E3",
          "ticks": 82656,
          "time": 58.70448675,
          "velocity": 0.30708661417322836
        },
        {
          "duration": 0.1534089374999965,
          "durationTicks": 216,
          "midi": 76,
          "name": "E5",
          "ticks": 82656,
          "time": 58.70448675,
          "velocity": 0.30708661417322836
        },
        {
          "duration": 0.1534089374999965,
          "durationTicks": 216,
          "midi": 64,
          "name": "E4",
          "ticks": 82656,
          "time": 58.70448675,
          "velocity": 0.30708661417322836
        },
        {
          "duration": 0.1534089374999965,
          "durationTicks": 216,
          "midi": 48,
          "name": "C3",
          "ticks": 82656,
          "time": 58.70448675,
          "velocity": 0.30708661417322836
        },
        {
          "duration": 0.1534089374999965,
          "durationTicks": 216,
          "midi": 64,
          "name": "E4",
          "ticks": 82656,
          "time": 58.70448675,
          "velocity": 0.30708661417322836
        },
        {
          "duration": 0.1534089374999965,
          "durationTicks": 216,
          "midi": 52,
          "name": "E3",
          "ticks": 82680,
          "time": 58.7215321875,
          "velocity": 0.30708661417322836
        },
        {
          "duration": 0.1534089374999965,
          "durationTicks": 216,
          "midi": 76,
          "name": "E5",
          "ticks": 82680,
          "time": 58.7215321875,
          "velocity": 0.30708661417322836
        },
        {
          "duration": 0.1534089374999965,
          "durationTicks": 216,
          "midi": 48,
          "name": "C3",
          "ticks": 82680,
          "time": 58.7215321875,
          "velocity": 0.30708661417322836
        },
        {
          "duration": 0.1534089374999965,
          "durationTicks": 216,
          "midi": 64,
          "name": "E4",
          "ticks": 82680,
          "time": 58.7215321875,
          "velocity": 0.30708661417322836
        },
        {
          "duration": 0.15340893750000362,
          "durationTicks": 216,
          "midi": 76,
          "name": "E5",
          "ticks": 82800,
          "time": 58.806759375,
          "velocity": 0.30708661417322836
        },
        {
          "duration": 0.15340893750000362,
          "durationTicks": 216,
          "midi": 76,
          "name": "E5",
          "ticks": 82800,
          "time": 58.806759375,
          "velocity": 0.30708661417322836
        },
        {
          "duration": 0.15340893750000362,
          "durationTicks": 216,
          "midi": 64,
          "name": "E4",
          "ticks": 82800,
          "time": 58.806759375,
          "velocity": 0.30708661417322836
        },
        {
          "duration": 0.15340893750000362,
          "durationTicks": 216,
          "midi": 64,
          "name": "E4",
          "ticks": 82800,
          "time": 58.806759375,
          "velocity": 0.30708661417322836
        },
        {
          "duration": 0.1534089374999965,
          "durationTicks": 216,
          "midi": 64,
          "name": "E4",
          "ticks": 82824,
          "time": 58.8238048125,
          "velocity": 0.30708661417322836
        },
        {
          "duration": 0.1534089374999965,
          "durationTicks": 216,
          "midi": 76,
          "name": "E5",
          "ticks": 82824,
          "time": 58.8238048125,
          "velocity": 0.30708661417322836
        },
        {
          "duration": 0.1534089374999965,
          "durationTicks": 216,
          "midi": 30,
          "name": "F#1",
          "ticks": 82848,
          "time": 58.84085025,
          "velocity": 0.30708661417322836
        },
        {
          "duration": 0.1534089374999965,
          "durationTicks": 216,
          "midi": 30,
          "name": "F#1",
          "ticks": 82848,
          "time": 58.84085025,
          "velocity": 0.30708661417322836
        },
        {
          "duration": 0.15340893750000362,
          "durationTicks": 216,
          "midi": 30,
          "name": "F#1",
          "ticks": 82872,
          "time": 58.8578956875,
          "velocity": 0.30708661417322836
        },
        {
          "duration": 0.15340893750000362,
          "durationTicks": 216,
          "midi": 40,
          "name": "E2",
          "ticks": 82944,
          "time": 58.909031999999996,
          "velocity": 0.30708661417322836
        },
        {
          "duration": 0.15340893750000362,
          "durationTicks": 216,
          "midi": 32,
          "name": "G#1",
          "ticks": 82944,
          "time": 58.909031999999996,
          "velocity": 0.30708661417322836
        },
        {
          "duration": 0.15340893750000362,
          "durationTicks": 216,
          "midi": 76,
          "name": "E5",
          "ticks": 82944,
          "time": 58.909031999999996,
          "velocity": 0.30708661417322836
        },
        {
          "duration": 0.15340893750000362,
          "durationTicks": 216,
          "midi": 64,
          "name": "E4",
          "ticks": 82944,
          "time": 58.909031999999996,
          "velocity": 0.30708661417322836
        },
        {
          "duration": 0.15340893750000362,
          "durationTicks": 216,
          "midi": 64,
          "name": "E4",
          "ticks": 82944,
          "time": 58.909031999999996,
          "velocity": 0.30708661417322836
        },
        {
          "duration": 0.15340893750000362,
          "durationTicks": 216,
          "midi": 76,
          "name": "E5",
          "ticks": 82944,
          "time": 58.909031999999996,
          "velocity": 0.30708661417322836
        },
        {
          "duration": 0.15340893750000362,
          "durationTicks": 216,
          "midi": 40,
          "name": "E2",
          "ticks": 82944,
          "time": 58.909031999999996,
          "velocity": 0.30708661417322836
        },
        {
          "duration": 0.15340893750000362,
          "durationTicks": 216,
          "midi": 32,
          "name": "G#1",
          "ticks": 82944,
          "time": 58.909031999999996,
          "velocity": 0.30708661417322836
        },
        {
          "duration": 0.15340893750000362,
          "durationTicks": 216,
          "midi": 64,
          "name": "E4",
          "ticks": 82968,
          "time": 58.9260774375,
          "velocity": 0.30708661417322836
        },
        {
          "duration": 0.15340893750000362,
          "durationTicks": 216,
          "midi": 32,
          "name": "G#1",
          "ticks": 82968,
          "time": 58.9260774375,
          "velocity": 0.30708661417322836
        },
        {
          "duration": 0.15340893750000362,
          "durationTicks": 216,
          "midi": 40,
          "name": "E2",
          "ticks": 82968,
          "time": 58.9260774375,
          "velocity": 0.30708661417322836
        },
        {
          "duration": 0.15340893750000362,
          "durationTicks": 216,
          "midi": 76,
          "name": "E5",
          "ticks": 82968,
          "time": 58.9260774375,
          "velocity": 0.30708661417322836
        },
        {
          "duration": 0.1534089374999965,
          "durationTicks": 216,
          "midi": 64,
          "name": "E4",
          "ticks": 83088,
          "time": 59.011304625,
          "velocity": 0.30708661417322836
        },
        {
          "duration": 0.1534089374999965,
          "durationTicks": 216,
          "midi": 64,
          "name": "E4",
          "ticks": 83088,
          "time": 59.011304625,
          "velocity": 0.30708661417322836
        },
        {
          "duration": 0.1534089374999965,
          "durationTicks": 216,
          "midi": 76,
          "name": "E5",
          "ticks": 83088,
          "time": 59.011304625,
          "velocity": 0.30708661417322836
        },
        {
          "duration": 0.1534089374999965,
          "durationTicks": 216,
          "midi": 76,
          "name": "E5",
          "ticks": 83088,
          "time": 59.011304625,
          "velocity": 0.30708661417322836
        },
        {
          "duration": 0.15340893750000362,
          "durationTicks": 216,
          "midi": 64,
          "name": "E4",
          "ticks": 83112,
          "time": 59.028350062499996,
          "velocity": 0.30708661417322836
        },
        {
          "duration": 0.15340893750000362,
          "durationTicks": 216,
          "midi": 76,
          "name": "E5",
          "ticks": 83112,
          "time": 59.028350062499996,
          "velocity": 0.30708661417322836
        },
        {
          "duration": 0.15340893750000362,
          "durationTicks": 216,
          "midi": 48,
          "name": "C3",
          "ticks": 83232,
          "time": 59.11357725,
          "velocity": 0.30708661417322836
        },
        {
          "duration": 0.15340893750000362,
          "durationTicks": 216,
          "midi": 76,
          "name": "E5",
          "ticks": 83232,
          "time": 59.11357725,
          "velocity": 0.30708661417322836
        },
        {
          "duration": 0.15340893750000362,
          "durationTicks": 216,
          "midi": 64,
          "name": "E4",
          "ticks": 83232,
          "time": 59.11357725,
          "velocity": 0.30708661417322836
        },
        {
          "duration": 0.15340893750000362,
          "durationTicks": 216,
          "midi": 64,
          "name": "E4",
          "ticks": 83232,
          "time": 59.11357725,
          "velocity": 0.30708661417322836
        },
        {
          "duration": 0.15340893750000362,
          "durationTicks": 216,
          "midi": 48,
          "name": "C3",
          "ticks": 83232,
          "time": 59.11357725,
          "velocity": 0.30708661417322836
        },
        {
          "duration": 0.15340893750000362,
          "durationTicks": 216,
          "midi": 76,
          "name": "E5",
          "ticks": 83232,
          "time": 59.11357725,
          "velocity": 0.30708661417322836
        },
        {
          "duration": 0.15340893750000362,
          "durationTicks": 216,
          "midi": 52,
          "name": "E3",
          "ticks": 83232,
          "time": 59.11357725,
          "velocity": 0.30708661417322836
        },
        {
          "duration": 0.15340893750000362,
          "durationTicks": 216,
          "midi": 52,
          "name": "E3",
          "ticks": 83232,
          "time": 59.11357725,
          "velocity": 0.30708661417322836
        },
        {
          "duration": 0.1534089374999965,
          "durationTicks": 216,
          "midi": 64,
          "name": "E4",
          "ticks": 83256,
          "time": 59.1306226875,
          "velocity": 0.30708661417322836
        },
        {
          "duration": 0.1534089374999965,
          "durationTicks": 216,
          "midi": 76,
          "name": "E5",
          "ticks": 83256,
          "time": 59.1306226875,
          "velocity": 0.30708661417322836
        },
        {
          "duration": 0.1534089374999965,
          "durationTicks": 216,
          "midi": 52,
          "name": "E3",
          "ticks": 83256,
          "time": 59.1306226875,
          "velocity": 0.30708661417322836
        },
        {
          "duration": 0.1534089374999965,
          "durationTicks": 216,
          "midi": 48,
          "name": "C3",
          "ticks": 83256,
          "time": 59.1306226875,
          "velocity": 0.30708661417322836
        },
        {
          "duration": 0.15340893750000362,
          "durationTicks": 216,
          "midi": 64,
          "name": "E4",
          "ticks": 83376,
          "time": 59.215849874999996,
          "velocity": 0.30708661417322836
        },
        {
          "duration": 0.15340893750000362,
          "durationTicks": 216,
          "midi": 76,
          "name": "E5",
          "ticks": 83376,
          "time": 59.215849874999996,
          "velocity": 0.30708661417322836
        },
        {
          "duration": 0.15340893750000362,
          "durationTicks": 216,
          "midi": 76,
          "name": "E5",
          "ticks": 83376,
          "time": 59.215849874999996,
          "velocity": 0.30708661417322836
        },
        {
          "duration": 0.15340893750000362,
          "durationTicks": 216,
          "midi": 64,
          "name": "E4",
          "ticks": 83376,
          "time": 59.215849874999996,
          "velocity": 0.30708661417322836
        },
        {
          "duration": 0.15340893750000362,
          "durationTicks": 216,
          "midi": 76,
          "name": "E5",
          "ticks": 83400,
          "time": 59.2328953125,
          "velocity": 0.30708661417322836
        },
        {
          "duration": 0.15340893750000362,
          "durationTicks": 216,
          "midi": 64,
          "name": "E4",
          "ticks": 83400,
          "time": 59.2328953125,
          "velocity": 0.30708661417322836
        },
        {
          "duration": 0.1534089374999965,
          "durationTicks": 216,
          "midi": 76,
          "name": "E5",
          "ticks": 83520,
          "time": 59.3181225,
          "velocity": 0.30708661417322836
        },
        {
          "duration": 0.1534089374999965,
          "durationTicks": 216,
          "midi": 45,
          "name": "A2",
          "ticks": 83520,
          "time": 59.3181225,
          "velocity": 0.30708661417322836
        },
        {
          "duration": 0.1534089374999965,
          "durationTicks": 216,
          "midi": 76,
          "name": "E5",
          "ticks": 83520,
          "time": 59.3181225,
          "velocity": 0.30708661417322836
        },
        {
          "duration": 0.1534089374999965,
          "durationTicks": 216,
          "midi": 45,
          "name": "A2",
          "ticks": 83520,
          "time": 59.3181225,
          "velocity": 0.30708661417322836
        },
        {
          "duration": 0.1534089374999965,
          "durationTicks": 216,
          "midi": 64,
          "name": "E4",
          "ticks": 83520,
          "time": 59.3181225,
          "velocity": 0.30708661417322836
        },
        {
          "duration": 0.1534089374999965,
          "durationTicks": 216,
          "midi": 64,
          "name": "E4",
          "ticks": 83520,
          "time": 59.3181225,
          "velocity": 0.30708661417322836
        },
        {
          "duration": 0.15340893750000362,
          "durationTicks": 216,
          "midi": 76,
          "name": "E5",
          "ticks": 83544,
          "time": 59.335167937499996,
          "velocity": 0.30708661417322836
        },
        {
          "duration": 0.15340893750000362,
          "durationTicks": 216,
          "midi": 64,
          "name": "E4",
          "ticks": 83544,
          "time": 59.335167937499996,
          "velocity": 0.30708661417322836
        },
        {
          "duration": 0.15340893750000362,
          "durationTicks": 216,
          "midi": 45,
          "name": "A2",
          "ticks": 83544,
          "time": 59.335167937499996,
          "velocity": 0.30708661417322836
        },
        {
          "duration": 0.15340893750000362,
          "durationTicks": 216,
          "midi": 76,
          "name": "E5",
          "ticks": 83664,
          "time": 59.420395125,
          "velocity": 0.30708661417322836
        },
        {
          "duration": 0.15340893750000362,
          "durationTicks": 216,
          "midi": 64,
          "name": "E4",
          "ticks": 83664,
          "time": 59.420395125,
          "velocity": 0.30708661417322836
        },
        {
          "duration": 0.15340893750000362,
          "durationTicks": 216,
          "midi": 64,
          "name": "E4",
          "ticks": 83664,
          "time": 59.420395125,
          "velocity": 0.30708661417322836
        },
        {
          "duration": 0.15340893750000362,
          "durationTicks": 216,
          "midi": 76,
          "name": "E5",
          "ticks": 83664,
          "time": 59.420395125,
          "velocity": 0.30708661417322836
        },
        {
          "duration": 0.1534089374999965,
          "durationTicks": 216,
          "midi": 76,
          "name": "E5",
          "ticks": 83688,
          "time": 59.4374405625,
          "velocity": 0.30708661417322836
        },
        {
          "duration": 0.1534089374999965,
          "durationTicks": 216,
          "midi": 64,
          "name": "E4",
          "ticks": 83688,
          "time": 59.4374405625,
          "velocity": 0.30708661417322836
        },
        {
          "duration": 0.15340893750000362,
          "durationTicks": 216,
          "midi": 64,
          "name": "E4",
          "ticks": 83808,
          "time": 59.52266775,
          "velocity": 0.30708661417322836
        },
        {
          "duration": 0.15340893750000362,
          "durationTicks": 216,
          "midi": 76,
          "name": "E5",
          "ticks": 83808,
          "time": 59.52266775,
          "velocity": 0.30708661417322836
        },
        {
          "duration": 0.15340893750000362,
          "durationTicks": 216,
          "midi": 52,
          "name": "E3",
          "ticks": 83808,
          "time": 59.52266775,
          "velocity": 0.30708661417322836
        },
        {
          "duration": 0.15340893750000362,
          "durationTicks": 216,
          "midi": 48,
          "name": "C3",
          "ticks": 83808,
          "time": 59.52266775,
          "velocity": 0.30708661417322836
        },
        {
          "duration": 0.15340893750000362,
          "durationTicks": 216,
          "midi": 64,
          "name": "E4",
          "ticks": 83808,
          "time": 59.52266775,
          "velocity": 0.30708661417322836
        },
        {
          "duration": 0.15340893750000362,
          "durationTicks": 216,
          "midi": 76,
          "name": "E5",
          "ticks": 83808,
          "time": 59.52266775,
          "velocity": 0.30708661417322836
        },
        {
          "duration": 0.15340893750000362,
          "durationTicks": 216,
          "midi": 48,
          "name": "C3",
          "ticks": 83808,
          "time": 59.52266775,
          "velocity": 0.30708661417322836
        },
        {
          "duration": 0.15340893750000362,
          "durationTicks": 216,
          "midi": 52,
          "name": "E3",
          "ticks": 83808,
          "time": 59.52266775,
          "velocity": 0.30708661417322836
        },
        {
          "duration": 0.15340893750000362,
          "durationTicks": 216,
          "midi": 48,
          "name": "C3",
          "ticks": 83832,
          "time": 59.5397131875,
          "velocity": 0.30708661417322836
        },
        {
          "duration": 0.15340893750000362,
          "durationTicks": 216,
          "midi": 76,
          "name": "E5",
          "ticks": 83832,
          "time": 59.5397131875,
          "velocity": 0.30708661417322836
        },
        {
          "duration": 0.15340893750000362,
          "durationTicks": 216,
          "midi": 64,
          "name": "E4",
          "ticks": 83832,
          "time": 59.5397131875,
          "velocity": 0.30708661417322836
        },
        {
          "duration": 0.15340893750000362,
          "durationTicks": 216,
          "midi": 52,
          "name": "E3",
          "ticks": 83832,
          "time": 59.5397131875,
          "velocity": 0.30708661417322836
        },
        {
          "duration": 0.1534089374999965,
          "durationTicks": 216,
          "midi": 76,
          "name": "E5",
          "ticks": 83952,
          "time": 59.624940375,
          "velocity": 0.30708661417322836
        },
        {
          "duration": 0.1534089374999965,
          "durationTicks": 216,
          "midi": 64,
          "name": "E4",
          "ticks": 83952,
          "time": 59.624940375,
          "velocity": 0.30708661417322836
        },
        {
          "duration": 0.1534089374999965,
          "durationTicks": 216,
          "midi": 76,
          "name": "E5",
          "ticks": 83952,
          "time": 59.624940375,
          "velocity": 0.30708661417322836
        },
        {
          "duration": 0.1534089374999965,
          "durationTicks": 216,
          "midi": 64,
          "name": "E4",
          "ticks": 83952,
          "time": 59.624940375,
          "velocity": 0.30708661417322836
        },
        {
          "duration": 0.15340893750000362,
          "durationTicks": 216,
          "midi": 64,
          "name": "E4",
          "ticks": 83976,
          "time": 59.641985812499996,
          "velocity": 0.30708661417322836
        },
        {
          "duration": 0.15340893750000362,
          "durationTicks": 216,
          "midi": 76,
          "name": "E5",
          "ticks": 83976,
          "time": 59.641985812499996,
          "velocity": 0.30708661417322836
        },
        {
          "duration": 0.15340893750000362,
          "durationTicks": 216,
          "midi": 64,
          "name": "E4",
          "ticks": 84096,
          "time": 59.727213,
          "velocity": 0.30708661417322836
        },
        {
          "duration": 0.15340893750000362,
          "durationTicks": 216,
          "midi": 40,
          "name": "E2",
          "ticks": 84096,
          "time": 59.727213,
          "velocity": 0.30708661417322836
        },
        {
          "duration": 0.15340893750000362,
          "durationTicks": 216,
          "midi": 76,
          "name": "E5",
          "ticks": 84096,
          "time": 59.727213,
          "velocity": 0.30708661417322836
        },
        {
          "duration": 0.15340893750000362,
          "durationTicks": 216,
          "midi": 64,
          "name": "E4",
          "ticks": 84096,
          "time": 59.727213,
          "velocity": 0.30708661417322836
        },
        {
          "duration": 0.15340893750000362,
          "durationTicks": 216,
          "midi": 40,
          "name": "E2",
          "ticks": 84096,
          "time": 59.727213,
          "velocity": 0.30708661417322836
        },
        {
          "duration": 0.15340893750000362,
          "durationTicks": 216,
          "midi": 76,
          "name": "E5",
          "ticks": 84096,
          "time": 59.727213,
          "velocity": 0.30708661417322836
        },
        {
          "duration": 0.1534089374999965,
          "durationTicks": 216,
          "midi": 40,
          "name": "E2",
          "ticks": 84120,
          "time": 59.7442584375,
          "velocity": 0.30708661417322836
        },
        {
          "duration": 0.1534089374999965,
          "durationTicks": 216,
          "midi": 64,
          "name": "E4",
          "ticks": 84120,
          "time": 59.7442584375,
          "velocity": 0.30708661417322836
        },
        {
          "duration": 0.1534089374999965,
          "durationTicks": 216,
          "midi": 76,
          "name": "E5",
          "ticks": 84120,
          "time": 59.7442584375,
          "velocity": 0.30708661417322836
        },
        {
          "duration": 0.15340893750000362,
          "durationTicks": 216,
          "midi": 64,
          "name": "E4",
          "ticks": 84240,
          "time": 59.829485625,
          "velocity": 0.30708661417322836
        },
        {
          "duration": 0.15340893750000362,
          "durationTicks": 216,
          "midi": 64,
          "name": "E4",
          "ticks": 84240,
          "time": 59.829485625,
          "velocity": 0.30708661417322836
        },
        {
          "duration": 0.15340893750000362,
          "durationTicks": 216,
          "midi": 76,
          "name": "E5",
          "ticks": 84240,
          "time": 59.829485625,
          "velocity": 0.30708661417322836
        },
        {
          "duration": 0.15340893750000362,
          "durationTicks": 216,
          "midi": 76,
          "name": "E5",
          "ticks": 84240,
          "time": 59.829485625,
          "velocity": 0.30708661417322836
        },
        {
          "duration": 0.15340893750000362,
          "durationTicks": 216,
          "midi": 76,
          "name": "E5",
          "ticks": 84264,
          "time": 59.8465310625,
          "velocity": 0.30708661417322836
        },
        {
          "duration": 0.15340893750000362,
          "durationTicks": 216,
          "midi": 64,
          "name": "E4",
          "ticks": 84264,
          "time": 59.8465310625,
          "velocity": 0.30708661417322836
        },
        {
          "duration": 0.1534089374999965,
          "durationTicks": 216,
          "midi": 64,
          "name": "E4",
          "ticks": 84384,
          "time": 59.93175825,
          "velocity": 0.30708661417322836
        },
        {
          "duration": 0.1534089374999965,
          "durationTicks": 216,
          "midi": 76,
          "name": "E5",
          "ticks": 84384,
          "time": 59.93175825,
          "velocity": 0.30708661417322836
        },
        {
          "duration": 0.1534089374999965,
          "durationTicks": 216,
          "midi": 76,
          "name": "E5",
          "ticks": 84384,
          "time": 59.93175825,
          "velocity": 0.30708661417322836
        },
        {
          "duration": 0.1534089374999965,
          "durationTicks": 216,
          "midi": 52,
          "name": "E3",
          "ticks": 84384,
          "time": 59.93175825,
          "velocity": 0.30708661417322836
        },
        {
          "duration": 0.1534089374999965,
          "durationTicks": 216,
          "midi": 64,
          "name": "E4",
          "ticks": 84384,
          "time": 59.93175825,
          "velocity": 0.30708661417322836
        },
        {
          "duration": 0.1534089374999965,
          "durationTicks": 216,
          "midi": 48,
          "name": "C3",
          "ticks": 84384,
          "time": 59.93175825,
          "velocity": 0.30708661417322836
        },
        {
          "duration": 0.1534089374999965,
          "durationTicks": 216,
          "midi": 48,
          "name": "C3",
          "ticks": 84384,
          "time": 59.93175825,
          "velocity": 0.30708661417322836
        },
        {
          "duration": 0.1534089374999965,
          "durationTicks": 216,
          "midi": 52,
          "name": "E3",
          "ticks": 84384,
          "time": 59.93175825,
          "velocity": 0.30708661417322836
        },
        {
          "duration": 0.15340893750000362,
          "durationTicks": 216,
          "midi": 52,
          "name": "E3",
          "ticks": 84408,
          "time": 59.948803687499996,
          "velocity": 0.30708661417322836
        },
        {
          "duration": 0.15340893750000362,
          "durationTicks": 216,
          "midi": 48,
          "name": "C3",
          "ticks": 84408,
          "time": 59.948803687499996,
          "velocity": 0.30708661417322836
        },
        {
          "duration": 0.15340893750000362,
          "durationTicks": 216,
          "midi": 76,
          "name": "E5",
          "ticks": 84408,
          "time": 59.948803687499996,
          "velocity": 0.30708661417322836
        },
        {
          "duration": 0.15340893750000362,
          "durationTicks": 216,
          "midi": 64,
          "name": "E4",
          "ticks": 84408,
          "time": 59.948803687499996,
          "velocity": 0.30708661417322836
        },
        {
          "duration": 0.15340893750000362,
          "durationTicks": 216,
          "midi": 76,
          "name": "E5",
          "ticks": 84528,
          "time": 60.034030875,
          "velocity": 0.30708661417322836
        },
        {
          "duration": 0.15340893750000362,
          "durationTicks": 216,
          "midi": 64,
          "name": "E4",
          "ticks": 84528,
          "time": 60.034030875,
          "velocity": 0.30708661417322836
        },
        {
          "duration": 0.15340893750000362,
          "durationTicks": 216,
          "midi": 76,
          "name": "E5",
          "ticks": 84528,
          "time": 60.034030875,
          "velocity": 0.30708661417322836
        },
        {
          "duration": 0.15340893750000362,
          "durationTicks": 216,
          "midi": 64,
          "name": "E4",
          "ticks": 84528,
          "time": 60.034030875,
          "velocity": 0.30708661417322836
        },
        {
          "duration": 0.1534089374999965,
          "durationTicks": 216,
          "midi": 64,
          "name": "E4",
          "ticks": 84552,
          "time": 60.0510763125,
          "velocity": 0.30708661417322836
        },
        {
          "duration": 0.1534089374999965,
          "durationTicks": 216,
          "midi": 76,
          "name": "E5",
          "ticks": 84552,
          "time": 60.0510763125,
          "velocity": 0.30708661417322836
        },
        {
          "duration": 0.15340893750000362,
          "durationTicks": 216,
          "midi": 64,
          "name": "E4",
          "ticks": 84672,
          "time": 60.1363035,
          "velocity": 0.30708661417322836
        },
        {
          "duration": 0.15340893750000362,
          "durationTicks": 216,
          "midi": 45,
          "name": "A2",
          "ticks": 84672,
          "time": 60.1363035,
          "velocity": 0.30708661417322836
        },
        {
          "duration": 0.15340893750000362,
          "durationTicks": 216,
          "midi": 64,
          "name": "E4",
          "ticks": 84672,
          "time": 60.1363035,
          "velocity": 0.30708661417322836
        },
        {
          "duration": 0.15340893750000362,
          "durationTicks": 216,
          "midi": 76,
          "name": "E5",
          "ticks": 84672,
          "time": 60.1363035,
          "velocity": 0.30708661417322836
        },
        {
          "duration": 0.15340893750000362,
          "durationTicks": 216,
          "midi": 76,
          "name": "E5",
          "ticks": 84672,
          "time": 60.1363035,
          "velocity": 0.30708661417322836
        },
        {
          "duration": 0.15340893750000362,
          "durationTicks": 216,
          "midi": 45,
          "name": "A2",
          "ticks": 84672,
          "time": 60.1363035,
          "velocity": 0.30708661417322836
        },
        {
          "duration": 0.15340893750000362,
          "durationTicks": 216,
          "midi": 76,
          "name": "E5",
          "ticks": 84696,
          "time": 60.1533489375,
          "velocity": 0.30708661417322836
        },
        {
          "duration": 0.15340893750000362,
          "durationTicks": 216,
          "midi": 45,
          "name": "A2",
          "ticks": 84696,
          "time": 60.1533489375,
          "velocity": 0.30708661417322836
        },
        {
          "duration": 0.15340893750000362,
          "durationTicks": 216,
          "midi": 64,
          "name": "E4",
          "ticks": 84696,
          "time": 60.1533489375,
          "velocity": 0.30708661417322836
        },
        {
          "duration": 0.1534089374999965,
          "durationTicks": 216,
          "midi": 76,
          "name": "E5",
          "ticks": 84816,
          "time": 60.238576125,
          "velocity": 0.30708661417322836
        },
        {
          "duration": 0.1534089374999965,
          "durationTicks": 216,
          "midi": 64,
          "name": "E4",
          "ticks": 84816,
          "time": 60.238576125,
          "velocity": 0.30708661417322836
        },
        {
          "duration": 0.1534089374999965,
          "durationTicks": 216,
          "midi": 64,
          "name": "E4",
          "ticks": 84816,
          "time": 60.238576125,
          "velocity": 0.30708661417322836
        },
        {
          "duration": 0.1534089374999965,
          "durationTicks": 216,
          "midi": 76,
          "name": "E5",
          "ticks": 84816,
          "time": 60.238576125,
          "velocity": 0.30708661417322836
        },
        {
          "duration": 0.15340893750000362,
          "durationTicks": 216,
          "midi": 64,
          "name": "E4",
          "ticks": 84840,
          "time": 60.2556215625,
          "velocity": 0.30708661417322836
        },
        {
          "duration": 0.15340893750000362,
          "durationTicks": 216,
          "midi": 76,
          "name": "E5",
          "ticks": 84840,
          "time": 60.2556215625,
          "velocity": 0.30708661417322836
        },
        {
          "duration": 0.15340893750000362,
          "durationTicks": 216,
          "midi": 76,
          "name": "E5",
          "ticks": 84960,
          "time": 60.34084875,
          "velocity": 0.30708661417322836
        },
        {
          "duration": 0.15340893750000362,
          "durationTicks": 216,
          "midi": 64,
          "name": "E4",
          "ticks": 84960,
          "time": 60.34084875,
          "velocity": 0.30708661417322836
        },
        {
          "duration": 0.15340893750000362,
          "durationTicks": 216,
          "midi": 76,
          "name": "E5",
          "ticks": 84960,
          "time": 60.34084875,
          "velocity": 0.30708661417322836
        },
        {
          "duration": 0.15340893750000362,
          "durationTicks": 216,
          "midi": 52,
          "name": "E3",
          "ticks": 84960,
          "time": 60.34084875,
          "velocity": 0.30708661417322836
        },
        {
          "duration": 0.15340893750000362,
          "durationTicks": 216,
          "midi": 52,
          "name": "E3",
          "ticks": 84960,
          "time": 60.34084875,
          "velocity": 0.30708661417322836
        },
        {
          "duration": 0.15340893750000362,
          "durationTicks": 216,
          "midi": 48,
          "name": "C3",
          "ticks": 84960,
          "time": 60.34084875,
          "velocity": 0.30708661417322836
        },
        {
          "duration": 0.15340893750000362,
          "durationTicks": 216,
          "midi": 48,
          "name": "C3",
          "ticks": 84960,
          "time": 60.34084875,
          "velocity": 0.30708661417322836
        },
        {
          "duration": 0.15340893750000362,
          "durationTicks": 216,
          "midi": 64,
          "name": "E4",
          "ticks": 84960,
          "time": 60.34084875,
          "velocity": 0.30708661417322836
        },
        {
          "duration": 0.1534089374999965,
          "durationTicks": 216,
          "midi": 76,
          "name": "E5",
          "ticks": 84984,
          "time": 60.3578941875,
          "velocity": 0.30708661417322836
        },
        {
          "duration": 0.1534089374999965,
          "durationTicks": 216,
          "midi": 52,
          "name": "E3",
          "ticks": 84984,
          "time": 60.3578941875,
          "velocity": 0.30708661417322836
        },
        {
          "duration": 0.1534089374999965,
          "durationTicks": 216,
          "midi": 48,
          "name": "C3",
          "ticks": 84984,
          "time": 60.3578941875,
          "velocity": 0.30708661417322836
        },
        {
          "duration": 0.1534089374999965,
          "durationTicks": 216,
          "midi": 64,
          "name": "E4",
          "ticks": 84984,
          "time": 60.3578941875,
          "velocity": 0.30708661417322836
        },
        {
          "duration": 0.15340893750000362,
          "durationTicks": 216,
          "midi": 76,
          "name": "E5",
          "ticks": 85104,
          "time": 60.443121375,
          "velocity": 0.30708661417322836
        },
        {
          "duration": 0.15340893750000362,
          "durationTicks": 216,
          "midi": 64,
          "name": "E4",
          "ticks": 85104,
          "time": 60.443121375,
          "velocity": 0.30708661417322836
        },
        {
          "duration": 0.15340893750000362,
          "durationTicks": 216,
          "midi": 76,
          "name": "E5",
          "ticks": 85104,
          "time": 60.443121375,
          "velocity": 0.30708661417322836
        },
        {
          "duration": 0.15340893750000362,
          "durationTicks": 216,
          "midi": 64,
          "name": "E4",
          "ticks": 85104,
          "time": 60.443121375,
          "velocity": 0.30708661417322836
        },
        {
          "duration": 0.15340893750000362,
          "durationTicks": 216,
          "midi": 76,
          "name": "E5",
          "ticks": 85128,
          "time": 60.4601668125,
          "velocity": 0.30708661417322836
        },
        {
          "duration": 0.15340893750000362,
          "durationTicks": 216,
          "midi": 64,
          "name": "E4",
          "ticks": 85128,
          "time": 60.4601668125,
          "velocity": 0.30708661417322836
        },
        {
          "duration": 0.1534089374999965,
          "durationTicks": 216,
          "midi": 76,
          "name": "E5",
          "ticks": 85248,
          "time": 60.545394,
          "velocity": 0.30708661417322836
        },
        {
          "duration": 0.1534089374999965,
          "durationTicks": 216,
          "midi": 64,
          "name": "E4",
          "ticks": 85248,
          "time": 60.545394,
          "velocity": 0.30708661417322836
        },
        {
          "duration": 0.1534089374999965,
          "durationTicks": 216,
          "midi": 76,
          "name": "E5",
          "ticks": 85248,
          "time": 60.545394,
          "velocity": 0.30708661417322836
        },
        {
          "duration": 0.1534089374999965,
          "durationTicks": 216,
          "midi": 64,
          "name": "E4",
          "ticks": 85248,
          "time": 60.545394,
          "velocity": 0.30708661417322836
        },
        {
          "duration": 0.1534089374999965,
          "durationTicks": 216,
          "midi": 40,
          "name": "E2",
          "ticks": 85248,
          "time": 60.545394,
          "velocity": 0.30708661417322836
        },
        {
          "duration": 0.1534089374999965,
          "durationTicks": 216,
          "midi": 40,
          "name": "E2",
          "ticks": 85248,
          "time": 60.545394,
          "velocity": 0.30708661417322836
        },
        {
          "duration": 0.15340893750000362,
          "durationTicks": 216,
          "midi": 64,
          "name": "E4",
          "ticks": 85272,
          "time": 60.5624394375,
          "velocity": 0.30708661417322836
        },
        {
          "duration": 0.15340893750000362,
          "durationTicks": 216,
          "midi": 40,
          "name": "E2",
          "ticks": 85272,
          "time": 60.5624394375,
          "velocity": 0.30708661417322836
        },
        {
          "duration": 0.15340893750000362,
          "durationTicks": 216,
          "midi": 76,
          "name": "E5",
          "ticks": 85272,
          "time": 60.5624394375,
          "velocity": 0.30708661417322836
        },
        {
          "duration": 0.1534089374999965,
          "durationTicks": 216,
          "midi": 65,
          "name": "F4",
          "ticks": 85392,
          "time": 60.647666625,
          "velocity": 0.30708661417322836
        },
        {
          "duration": 0.1534089374999965,
          "durationTicks": 216,
          "midi": 77,
          "name": "F5",
          "ticks": 85392,
          "time": 60.647666625,
          "velocity": 0.30708661417322836
        },
        {
          "duration": 0.1534089374999965,
          "durationTicks": 216,
          "midi": 77,
          "name": "F5",
          "ticks": 85392,
          "time": 60.647666625,
          "velocity": 0.30708661417322836
        },
        {
          "duration": 0.1534089374999965,
          "durationTicks": 216,
          "midi": 65,
          "name": "F4",
          "ticks": 85392,
          "time": 60.647666625,
          "velocity": 0.30708661417322836
        },
        {
          "duration": 0.1534089374999965,
          "durationTicks": 216,
          "midi": 77,
          "name": "F5",
          "ticks": 85416,
          "time": 60.6647120625,
          "velocity": 0.30708661417322836
        },
        {
          "duration": 0.1534089374999965,
          "durationTicks": 216,
          "midi": 65,
          "name": "F4",
          "ticks": 85416,
          "time": 60.6647120625,
          "velocity": 0.30708661417322836
        },
        {
          "duration": 0.15340893750000362,
          "durationTicks": 216,
          "midi": 64,
          "name": "E4",
          "ticks": 85536,
          "time": 60.74993925,
          "velocity": 0.30708661417322836
        },
        {
          "duration": 0.15340893750000362,
          "durationTicks": 216,
          "midi": 76,
          "name": "E5",
          "ticks": 85536,
          "time": 60.74993925,
          "velocity": 0.30708661417322836
        },
        {
          "duration": 0.15340893750000362,
          "durationTicks": 216,
          "midi": 52,
          "name": "E3",
          "ticks": 85536,
          "time": 60.74993925,
          "velocity": 0.30708661417322836
        },
        {
          "duration": 0.15340893750000362,
          "durationTicks": 216,
          "midi": 52,
          "name": "E3",
          "ticks": 85536,
          "time": 60.74993925,
          "velocity": 0.30708661417322836
        },
        {
          "duration": 0.15340893750000362,
          "durationTicks": 216,
          "midi": 48,
          "name": "C3",
          "ticks": 85536,
          "time": 60.74993925,
          "velocity": 0.30708661417322836
        },
        {
          "duration": 0.15340893750000362,
          "durationTicks": 216,
          "midi": 48,
          "name": "C3",
          "ticks": 85536,
          "time": 60.74993925,
          "velocity": 0.30708661417322836
        },
        {
          "duration": 0.15340893750000362,
          "durationTicks": 216,
          "midi": 64,
          "name": "E4",
          "ticks": 85536,
          "time": 60.74993925,
          "velocity": 0.30708661417322836
        },
        {
          "duration": 0.15340893750000362,
          "durationTicks": 216,
          "midi": 76,
          "name": "E5",
          "ticks": 85536,
          "time": 60.74993925,
          "velocity": 0.30708661417322836
        },
        {
          "duration": 0.15340893750000362,
          "durationTicks": 216,
          "midi": 52,
          "name": "E3",
          "ticks": 85560,
          "time": 60.7669846875,
          "velocity": 0.30708661417322836
        },
        {
          "duration": 0.15340893750000362,
          "durationTicks": 216,
          "midi": 48,
          "name": "C3",
          "ticks": 85560,
          "time": 60.7669846875,
          "velocity": 0.30708661417322836
        },
        {
          "duration": 0.15340893750000362,
          "durationTicks": 216,
          "midi": 64,
          "name": "E4",
          "ticks": 85560,
          "time": 60.7669846875,
          "velocity": 0.30708661417322836
        },
        {
          "duration": 0.15340893750000362,
          "durationTicks": 216,
          "midi": 76,
          "name": "E5",
          "ticks": 85560,
          "time": 60.7669846875,
          "velocity": 0.30708661417322836
        },
        {
          "duration": 0.1534089374999965,
          "durationTicks": 216,
          "midi": 75,
          "name": "D#5",
          "ticks": 85680,
          "time": 60.852211875,
          "velocity": 0.30708661417322836
        },
        {
          "duration": 0.1534089374999965,
          "durationTicks": 216,
          "midi": 63,
          "name": "D#4",
          "ticks": 85680,
          "time": 60.852211875,
          "velocity": 0.30708661417322836
        },
        {
          "duration": 0.1534089374999965,
          "durationTicks": 216,
          "midi": 75,
          "name": "D#5",
          "ticks": 85680,
          "time": 60.852211875,
          "velocity": 0.30708661417322836
        },
        {
          "duration": 0.1534089374999965,
          "durationTicks": 216,
          "midi": 63,
          "name": "D#4",
          "ticks": 85680,
          "time": 60.852211875,
          "velocity": 0.30708661417322836
        },
        {
          "duration": 0.15340893750000362,
          "durationTicks": 216,
          "midi": 75,
          "name": "D#5",
          "ticks": 85704,
          "time": 60.8692573125,
          "velocity": 0.30708661417322836
        },
        {
          "duration": 0.15340893750000362,
          "durationTicks": 216,
          "midi": 63,
          "name": "D#4",
          "ticks": 85704,
          "time": 60.8692573125,
          "velocity": 0.30708661417322836
        },
        {
          "duration": 0.1534089374999965,
          "durationTicks": 216,
          "midi": 76,
          "name": "E5",
          "ticks": 85824,
          "time": 60.9544845,
          "velocity": 0.30708661417322836
        },
        {
          "duration": 0.1534089374999965,
          "durationTicks": 216,
          "midi": 76,
          "name": "E5",
          "ticks": 85824,
          "time": 60.9544845,
          "velocity": 0.30708661417322836
        },
        {
          "duration": 0.1534089374999965,
          "durationTicks": 216,
          "midi": 64,
          "name": "E4",
          "ticks": 85824,
          "time": 60.9544845,
          "velocity": 0.30708661417322836
        },
        {
          "duration": 0.1534089374999965,
          "durationTicks": 216,
          "midi": 64,
          "name": "E4",
          "ticks": 85824,
          "time": 60.9544845,
          "velocity": 0.30708661417322836
        },
        {
          "duration": 0.1534089374999965,
          "durationTicks": 216,
          "midi": 76,
          "name": "E5",
          "ticks": 85848,
          "time": 60.9715299375,
          "velocity": 0.30708661417322836
        },
        {
          "duration": 0.1534089374999965,
          "durationTicks": 216,
          "midi": 64,
          "name": "E4",
          "ticks": 85848,
          "time": 60.9715299375,
          "velocity": 0.30708661417322836
        },
        {
          "duration": 0.22159068750000444,
          "durationTicks": 312,
          "midi": 45,
          "name": "A2",
          "ticks": 85872,
          "time": 60.988575374999996,
          "velocity": 0.30708661417322836
        },
        {
          "duration": 0.22159068750000444,
          "durationTicks": 312,
          "midi": 45,
          "name": "A2",
          "ticks": 85872,
          "time": 60.988575374999996,
          "velocity": 0.30708661417322836
        },
        {
          "duration": 0.22159068750000444,
          "durationTicks": 312,
          "midi": 45,
          "name": "A2",
          "ticks": 85896,
          "time": 61.0056208125,
          "velocity": 0.30708661417322836
        },
        {
          "duration": 0.1534089374999965,
          "durationTicks": 216,
          "midi": 52,
          "name": "E3",
          "ticks": 86112,
          "time": 61.15902975,
          "velocity": 0.30708661417322836
        },
        {
          "duration": 0.1534089374999965,
          "durationTicks": 216,
          "midi": 52,
          "name": "E3",
          "ticks": 86112,
          "time": 61.15902975,
          "velocity": 0.30708661417322836
        },
        {
          "duration": 0.1534089374999965,
          "durationTicks": 216,
          "midi": 48,
          "name": "C3",
          "ticks": 86112,
          "time": 61.15902975,
          "velocity": 0.30708661417322836
        },
        {
          "duration": 0.1534089374999965,
          "durationTicks": 216,
          "midi": 69,
          "name": "A4",
          "ticks": 86112,
          "time": 61.15902975,
          "velocity": 0.30708661417322836
        },
        {
          "duration": 0.1534089374999965,
          "durationTicks": 216,
          "midi": 69,
          "name": "A4",
          "ticks": 86112,
          "time": 61.15902975,
          "velocity": 0.30708661417322836
        },
        {
          "duration": 0.1534089374999965,
          "durationTicks": 216,
          "midi": 48,
          "name": "C3",
          "ticks": 86112,
          "time": 61.15902975,
          "velocity": 0.30708661417322836
        },
        {
          "duration": 0.1534089374999965,
          "durationTicks": 216,
          "midi": 81,
          "name": "A5",
          "ticks": 86112,
          "time": 61.15902975,
          "velocity": 0.30708661417322836
        },
        {
          "duration": 0.1534089374999965,
          "durationTicks": 216,
          "midi": 81,
          "name": "A5",
          "ticks": 86112,
          "time": 61.15902975,
          "velocity": 0.30708661417322836
        },
        {
          "duration": 0.15340893750000362,
          "durationTicks": 216,
          "midi": 81,
          "name": "A5",
          "ticks": 86136,
          "time": 61.1760751875,
          "velocity": 0.30708661417322836
        },
        {
          "duration": 0.15340893750000362,
          "durationTicks": 216,
          "midi": 48,
          "name": "C3",
          "ticks": 86136,
          "time": 61.1760751875,
          "velocity": 0.30708661417322836
        },
        {
          "duration": 0.15340893750000362,
          "durationTicks": 216,
          "midi": 69,
          "name": "A4",
          "ticks": 86136,
          "time": 61.1760751875,
          "velocity": 0.30708661417322836
        },
        {
          "duration": 0.15340893750000362,
          "durationTicks": 216,
          "midi": 52,
          "name": "E3",
          "ticks": 86136,
          "time": 61.1760751875,
          "velocity": 0.30708661417322836
        },
        {
          "duration": 0.4261359374999998,
          "durationTicks": 600,
          "midi": 72,
          "name": "C5",
          "ticks": 86400,
          "time": 61.363575,
          "velocity": 0.30708661417322836
        },
        {
          "duration": 0.15340893750000362,
          "durationTicks": 216,
          "midi": 40,
          "name": "E2",
          "ticks": 86400,
          "time": 61.363575,
          "velocity": 0.30708661417322836
        },
        {
          "duration": 0.15340893750000362,
          "durationTicks": 216,
          "midi": 40,
          "name": "E2",
          "ticks": 86400,
          "time": 61.363575,
          "velocity": 0.30708661417322836
        },
        {
          "duration": 0.4261359374999998,
          "durationTicks": 600,
          "midi": 72,
          "name": "C5",
          "ticks": 86400,
          "time": 61.363575,
          "velocity": 0.30708661417322836
        },
        {
          "duration": 0.4261359374999998,
          "durationTicks": 600,
          "midi": 84,
          "name": "C6",
          "ticks": 86400,
          "time": 61.363575,
          "velocity": 0.30708661417322836
        },
        {
          "duration": 0.4261359374999998,
          "durationTicks": 600,
          "midi": 84,
          "name": "C6",
          "ticks": 86400,
          "time": 61.363575,
          "velocity": 0.30708661417322836
        },
        {
          "duration": 0.4261359374999998,
          "durationTicks": 600,
          "midi": 72,
          "name": "C5",
          "ticks": 86424,
          "time": 61.3806204375,
          "velocity": 0.30708661417322836
        },
        {
          "duration": 0.15340893750000362,
          "durationTicks": 216,
          "midi": 40,
          "name": "E2",
          "ticks": 86424,
          "time": 61.3806204375,
          "velocity": 0.30708661417322836
        },
        {
          "duration": 0.4261359374999998,
          "durationTicks": 600,
          "midi": 84,
          "name": "C6",
          "ticks": 86424,
          "time": 61.3806204375,
          "velocity": 0.30708661417322836
        },
        {
          "duration": 0.1534089374999965,
          "durationTicks": 216,
          "midi": 52,
          "name": "E3",
          "ticks": 86688,
          "time": 61.56812025,
          "velocity": 0.30708661417322836
        },
        {
          "duration": 0.1534089374999965,
          "durationTicks": 216,
          "midi": 48,
          "name": "C3",
          "ticks": 86688,
          "time": 61.56812025,
          "velocity": 0.30708661417322836
        },
        {
          "duration": 0.1534089374999965,
          "durationTicks": 216,
          "midi": 52,
          "name": "E3",
          "ticks": 86688,
          "time": 61.56812025,
          "velocity": 0.30708661417322836
        },
        {
          "duration": 0.1534089374999965,
          "durationTicks": 216,
          "midi": 48,
          "name": "C3",
          "ticks": 86688,
          "time": 61.56812025,
          "velocity": 0.30708661417322836
        },
        {
          "duration": 0.1534089374999965,
          "durationTicks": 216,
          "midi": 48,
          "name": "C3",
          "ticks": 86712,
          "time": 61.5851656875,
          "velocity": 0.30708661417322836
        },
        {
          "duration": 0.1534089374999965,
          "durationTicks": 216,
          "midi": 52,
          "name": "E3",
          "ticks": 86712,
          "time": 61.5851656875,
          "velocity": 0.30708661417322836
        },
        {
          "duration": 0.1534089374999965,
          "durationTicks": 216,
          "midi": 74,
          "name": "D5",
          "ticks": 86976,
          "time": 61.7726655,
          "velocity": 0.30708661417322836
        },
        {
          "duration": 0.1534089374999965,
          "durationTicks": 216,
          "midi": 86,
          "name": "D6",
          "ticks": 86976,
          "time": 61.7726655,
          "velocity": 0.30708661417322836
        },
        {
          "duration": 0.1534089374999965,
          "durationTicks": 216,
          "midi": 44,
          "name": "G#2",
          "ticks": 86976,
          "time": 61.7726655,
          "velocity": 0.30708661417322836
        },
        {
          "duration": 0.1534089374999965,
          "durationTicks": 216,
          "midi": 86,
          "name": "D6",
          "ticks": 86976,
          "time": 61.7726655,
          "velocity": 0.30708661417322836
        },
        {
          "duration": 0.1534089374999965,
          "durationTicks": 216,
          "midi": 44,
          "name": "G#2",
          "ticks": 86976,
          "time": 61.7726655,
          "velocity": 0.30708661417322836
        },
        {
          "duration": 0.1534089374999965,
          "durationTicks": 216,
          "midi": 74,
          "name": "D5",
          "ticks": 86976,
          "time": 61.7726655,
          "velocity": 0.30708661417322836
        },
        {
          "duration": 0.15340893750000362,
          "durationTicks": 216,
          "midi": 86,
          "name": "D6",
          "ticks": 87000,
          "time": 61.7897109375,
          "velocity": 0.30708661417322836
        },
        {
          "duration": 0.15340893750000362,
          "durationTicks": 216,
          "midi": 44,
          "name": "G#2",
          "ticks": 87000,
          "time": 61.7897109375,
          "velocity": 0.30708661417322836
        },
        {
          "duration": 0.15340893750000362,
          "durationTicks": 216,
          "midi": 74,
          "name": "D5",
          "ticks": 87000,
          "time": 61.7897109375,
          "velocity": 0.30708661417322836
        },
        {
          "duration": 0.1534089374999965,
          "durationTicks": 216,
          "midi": 74,
          "name": "D5",
          "ticks": 87120,
          "time": 61.874938125,
          "velocity": 0.30708661417322836
        },
        {
          "duration": 0.1534089374999965,
          "durationTicks": 216,
          "midi": 86,
          "name": "D6",
          "ticks": 87120,
          "time": 61.874938125,
          "velocity": 0.30708661417322836
        },
        {
          "duration": 0.1534089374999965,
          "durationTicks": 216,
          "midi": 86,
          "name": "D6",
          "ticks": 87120,
          "time": 61.874938125,
          "velocity": 0.30708661417322836
        },
        {
          "duration": 0.1534089374999965,
          "durationTicks": 216,
          "midi": 74,
          "name": "D5",
          "ticks": 87120,
          "time": 61.874938125,
          "velocity": 0.30708661417322836
        },
        {
          "duration": 0.1534089374999965,
          "durationTicks": 216,
          "midi": 86,
          "name": "D6",
          "ticks": 87144,
          "time": 61.8919835625,
          "velocity": 0.30708661417322836
        },
        {
          "duration": 0.1534089374999965,
          "durationTicks": 216,
          "midi": 74,
          "name": "D5",
          "ticks": 87144,
          "time": 61.8919835625,
          "velocity": 0.30708661417322836
        },
        {
          "duration": 0.15340893750000362,
          "durationTicks": 216,
          "midi": 50,
          "name": "D3",
          "ticks": 87264,
          "time": 61.97721075,
          "velocity": 0.30708661417322836
        },
        {
          "duration": 0.15340893750000362,
          "durationTicks": 216,
          "midi": 74,
          "name": "D5",
          "ticks": 87264,
          "time": 61.97721075,
          "velocity": 0.30708661417322836
        },
        {
          "duration": 0.15340893750000362,
          "durationTicks": 216,
          "midi": 74,
          "name": "D5",
          "ticks": 87264,
          "time": 61.97721075,
          "velocity": 0.30708661417322836
        },
        {
          "duration": 0.15340893750000362,
          "durationTicks": 216,
          "midi": 86,
          "name": "D6",
          "ticks": 87264,
          "time": 61.97721075,
          "velocity": 0.30708661417322836
        },
        {
          "duration": 0.15340893750000362,
          "durationTicks": 216,
          "midi": 86,
          "name": "D6",
          "ticks": 87264,
          "time": 61.97721075,
          "velocity": 0.30708661417322836
        },
        {
          "duration": 0.15340893750000362,
          "durationTicks": 216,
          "midi": 52,
          "name": "E3",
          "ticks": 87264,
          "time": 61.97721075,
          "velocity": 0.30708661417322836
        },
        {
          "duration": 0.15340893750000362,
          "durationTicks": 216,
          "midi": 50,
          "name": "D3",
          "ticks": 87264,
          "time": 61.97721075,
          "velocity": 0.30708661417322836
        },
        {
          "duration": 0.15340893750000362,
          "durationTicks": 216,
          "midi": 52,
          "name": "E3",
          "ticks": 87264,
          "time": 61.97721075,
          "velocity": 0.30708661417322836
        },
        {
          "duration": 0.1534089374999965,
          "durationTicks": 216,
          "midi": 50,
          "name": "D3",
          "ticks": 87288,
          "time": 61.9942561875,
          "velocity": 0.30708661417322836
        },
        {
          "duration": 0.1534089374999965,
          "durationTicks": 216,
          "midi": 86,
          "name": "D6",
          "ticks": 87288,
          "time": 61.9942561875,
          "velocity": 0.30708661417322836
        },
        {
          "duration": 0.1534089374999965,
          "durationTicks": 216,
          "midi": 52,
          "name": "E3",
          "ticks": 87288,
          "time": 61.9942561875,
          "velocity": 0.30708661417322836
        },
        {
          "duration": 0.1534089374999965,
          "durationTicks": 216,
          "midi": 74,
          "name": "D5",
          "ticks": 87288,
          "time": 61.9942561875,
          "velocity": 0.30708661417322836
        },
        {
          "duration": 0.1534089374999965,
          "durationTicks": 216,
          "midi": 86,
          "name": "D6",
          "ticks": 87408,
          "time": 62.079483375,
          "velocity": 0.30708661417322836
        },
        {
          "duration": 0.1534089374999965,
          "durationTicks": 216,
          "midi": 86,
          "name": "D6",
          "ticks": 87408,
          "time": 62.079483375,
          "velocity": 0.30708661417322836
        },
        {
          "duration": 0.1534089374999965,
          "durationTicks": 216,
          "midi": 74,
          "name": "D5",
          "ticks": 87408,
          "time": 62.079483375,
          "velocity": 0.30708661417322836
        },
        {
          "duration": 0.1534089374999965,
          "durationTicks": 216,
          "midi": 74,
          "name": "D5",
          "ticks": 87408,
          "time": 62.079483375,
          "velocity": 0.30708661417322836
        },
        {
          "duration": 0.15340893750000362,
          "durationTicks": 216,
          "midi": 74,
          "name": "D5",
          "ticks": 87432,
          "time": 62.0965288125,
          "velocity": 0.30708661417322836
        },
        {
          "duration": 0.15340893750000362,
          "durationTicks": 216,
          "midi": 86,
          "name": "D6",
          "ticks": 87432,
          "time": 62.0965288125,
          "velocity": 0.30708661417322836
        },
        {
          "duration": 0.1534089374999965,
          "durationTicks": 216,
          "midi": 86,
          "name": "D6",
          "ticks": 87552,
          "time": 62.181756,
          "velocity": 0.30708661417322836
        },
        {
          "duration": 0.1534089374999965,
          "durationTicks": 216,
          "midi": 74,
          "name": "D5",
          "ticks": 87552,
          "time": 62.181756,
          "velocity": 0.30708661417322836
        },
        {
          "duration": 0.1534089374999965,
          "durationTicks": 216,
          "midi": 74,
          "name": "D5",
          "ticks": 87552,
          "time": 62.181756,
          "velocity": 0.30708661417322836
        },
        {
          "duration": 0.1534089374999965,
          "durationTicks": 216,
          "midi": 40,
          "name": "E2",
          "ticks": 87552,
          "time": 62.181756,
          "velocity": 0.30708661417322836
        },
        {
          "duration": 0.1534089374999965,
          "durationTicks": 216,
          "midi": 40,
          "name": "E2",
          "ticks": 87552,
          "time": 62.181756,
          "velocity": 0.30708661417322836
        },
        {
          "duration": 0.1534089374999965,
          "durationTicks": 216,
          "midi": 86,
          "name": "D6",
          "ticks": 87552,
          "time": 62.181756,
          "velocity": 0.30708661417322836
        },
        {
          "duration": 0.1534089374999965,
          "durationTicks": 216,
          "midi": 86,
          "name": "D6",
          "ticks": 87576,
          "time": 62.1988014375,
          "velocity": 0.30708661417322836
        },
        {
          "duration": 0.1534089374999965,
          "durationTicks": 216,
          "midi": 40,
          "name": "E2",
          "ticks": 87576,
          "time": 62.1988014375,
          "velocity": 0.30708661417322836
        },
        {
          "duration": 0.1534089374999965,
          "durationTicks": 216,
          "midi": 74,
          "name": "D5",
          "ticks": 87576,
          "time": 62.1988014375,
          "velocity": 0.30708661417322836
        },
        {
          "duration": 0.15340893750000362,
          "durationTicks": 216,
          "midi": 72,
          "name": "C5",
          "ticks": 87696,
          "time": 62.284028625,
          "velocity": 0.30708661417322836
        },
        {
          "duration": 0.15340893750000362,
          "durationTicks": 216,
          "midi": 84,
          "name": "C6",
          "ticks": 87696,
          "time": 62.284028625,
          "velocity": 0.30708661417322836
        },
        {
          "duration": 0.15340893750000362,
          "durationTicks": 216,
          "midi": 84,
          "name": "C6",
          "ticks": 87696,
          "time": 62.284028625,
          "velocity": 0.30708661417322836
        },
        {
          "duration": 0.15340893750000362,
          "durationTicks": 216,
          "midi": 72,
          "name": "C5",
          "ticks": 87696,
          "time": 62.284028625,
          "velocity": 0.30708661417322836
        },
        {
          "duration": 0.1534089374999965,
          "durationTicks": 216,
          "midi": 84,
          "name": "C6",
          "ticks": 87720,
          "time": 62.3010740625,
          "velocity": 0.30708661417322836
        },
        {
          "duration": 0.1534089374999965,
          "durationTicks": 216,
          "midi": 72,
          "name": "C5",
          "ticks": 87720,
          "time": 62.3010740625,
          "velocity": 0.30708661417322836
        },
        {
          "duration": 0.1534089374999965,
          "durationTicks": 216,
          "midi": 71,
          "name": "B4",
          "ticks": 87840,
          "time": 62.38630125,
          "velocity": 0.30708661417322836
        },
        {
          "duration": 0.1534089374999965,
          "durationTicks": 216,
          "midi": 83,
          "name": "B5",
          "ticks": 87840,
          "time": 62.38630125,
          "velocity": 0.30708661417322836
        },
        {
          "duration": 0.1534089374999965,
          "durationTicks": 216,
          "midi": 71,
          "name": "B4",
          "ticks": 87840,
          "time": 62.38630125,
          "velocity": 0.30708661417322836
        },
        {
          "duration": 0.1534089374999965,
          "durationTicks": 216,
          "midi": 52,
          "name": "E3",
          "ticks": 87840,
          "time": 62.38630125,
          "velocity": 0.30708661417322836
        },
        {
          "duration": 0.1534089374999965,
          "durationTicks": 216,
          "midi": 52,
          "name": "E3",
          "ticks": 87840,
          "time": 62.38630125,
          "velocity": 0.30708661417322836
        },
        {
          "duration": 0.1534089374999965,
          "durationTicks": 216,
          "midi": 50,
          "name": "D3",
          "ticks": 87840,
          "time": 62.38630125,
          "velocity": 0.30708661417322836
        },
        {
          "duration": 0.1534089374999965,
          "durationTicks": 216,
          "midi": 50,
          "name": "D3",
          "ticks": 87840,
          "time": 62.38630125,
          "velocity": 0.30708661417322836
        },
        {
          "duration": 0.1534089374999965,
          "durationTicks": 216,
          "midi": 83,
          "name": "B5",
          "ticks": 87840,
          "time": 62.38630125,
          "velocity": 0.30708661417322836
        },
        {
          "duration": 0.15340893750000362,
          "durationTicks": 216,
          "midi": 83,
          "name": "B5",
          "ticks": 87864,
          "time": 62.4033466875,
          "velocity": 0.30708661417322836
        },
        {
          "duration": 0.15340893750000362,
          "durationTicks": 216,
          "midi": 50,
          "name": "D3",
          "ticks": 87864,
          "time": 62.4033466875,
          "velocity": 0.30708661417322836
        },
        {
          "duration": 0.15340893750000362,
          "durationTicks": 216,
          "midi": 52,
          "name": "E3",
          "ticks": 87864,
          "time": 62.4033466875,
          "velocity": 0.30708661417322836
        },
        {
          "duration": 0.15340893750000362,
          "durationTicks": 216,
          "midi": 71,
          "name": "B4",
          "ticks": 87864,
          "time": 62.4033466875,
          "velocity": 0.30708661417322836
        },
        {
          "duration": 0.1534089374999965,
          "durationTicks": 216,
          "midi": 74,
          "name": "D5",
          "ticks": 87984,
          "time": 62.488573875,
          "velocity": 0.30708661417322836
        },
        {
          "duration": 0.1534089374999965,
          "durationTicks": 216,
          "midi": 74,
          "name": "D5",
          "ticks": 87984,
          "time": 62.488573875,
          "velocity": 0.30708661417322836
        },
        {
          "duration": 0.1534089374999965,
          "durationTicks": 216,
          "midi": 86,
          "name": "D6",
          "ticks": 87984,
          "time": 62.488573875,
          "velocity": 0.30708661417322836
        },
        {
          "duration": 0.1534089374999965,
          "durationTicks": 216,
          "midi": 86,
          "name": "D6",
          "ticks": 87984,
          "time": 62.488573875,
          "velocity": 0.30708661417322836
        },
        {
          "duration": 0.1534089374999965,
          "durationTicks": 216,
          "midi": 74,
          "name": "D5",
          "ticks": 88008,
          "time": 62.5056193125,
          "velocity": 0.30708661417322836
        },
        {
          "duration": 0.1534089374999965,
          "durationTicks": 216,
          "midi": 86,
          "name": "D6",
          "ticks": 88008,
          "time": 62.5056193125,
          "velocity": 0.30708661417322836
        },
        {
          "duration": 0.15340893750000362,
          "durationTicks": 216,
          "midi": 84,
          "name": "C6",
          "ticks": 88128,
          "time": 62.5908465,
          "velocity": 0.30708661417322836
        },
        {
          "duration": 0.15340893750000362,
          "durationTicks": 216,
          "midi": 45,
          "name": "A2",
          "ticks": 88128,
          "time": 62.5908465,
          "velocity": 0.30708661417322836
        },
        {
          "duration": 0.15340893750000362,
          "durationTicks": 216,
          "midi": 72,
          "name": "C5",
          "ticks": 88128,
          "time": 62.5908465,
          "velocity": 0.30708661417322836
        },
        {
          "duration": 0.15340893750000362,
          "durationTicks": 216,
          "midi": 84,
          "name": "C6",
          "ticks": 88128,
          "time": 62.5908465,
          "velocity": 0.30708661417322836
        },
        {
          "duration": 0.15340893750000362,
          "durationTicks": 216,
          "midi": 45,
          "name": "A2",
          "ticks": 88128,
          "time": 62.5908465,
          "velocity": 0.30708661417322836
        },
        {
          "duration": 0.15340893750000362,
          "durationTicks": 216,
          "midi": 72,
          "name": "C5",
          "ticks": 88128,
          "time": 62.5908465,
          "velocity": 0.30708661417322836
        },
        {
          "duration": 0.1534089374999965,
          "durationTicks": 216,
          "midi": 72,
          "name": "C5",
          "ticks": 88152,
          "time": 62.6078919375,
          "velocity": 0.30708661417322836
        },
        {
          "duration": 0.1534089374999965,
          "durationTicks": 216,
          "midi": 45,
          "name": "A2",
          "ticks": 88152,
          "time": 62.6078919375,
          "velocity": 0.30708661417322836
        },
        {
          "duration": 0.1534089374999965,
          "durationTicks": 216,
          "midi": 84,
          "name": "C6",
          "ticks": 88152,
          "time": 62.6078919375,
          "velocity": 0.30708661417322836
        },
        {
          "duration": 0.1534089374999965,
          "durationTicks": 216,
          "midi": 84,
          "name": "C6",
          "ticks": 88272,
          "time": 62.693119125,
          "velocity": 0.30708661417322836
        },
        {
          "duration": 0.1534089374999965,
          "durationTicks": 216,
          "midi": 84,
          "name": "C6",
          "ticks": 88272,
          "time": 62.693119125,
          "velocity": 0.30708661417322836
        },
        {
          "duration": 0.1534089374999965,
          "durationTicks": 216,
          "midi": 72,
          "name": "C5",
          "ticks": 88272,
          "time": 62.693119125,
          "velocity": 0.30708661417322836
        },
        {
          "duration": 0.1534089374999965,
          "durationTicks": 216,
          "midi": 72,
          "name": "C5",
          "ticks": 88272,
          "time": 62.693119125,
          "velocity": 0.30708661417322836
        },
        {
          "duration": 0.15340893750000362,
          "durationTicks": 216,
          "midi": 72,
          "name": "C5",
          "ticks": 88296,
          "time": 62.7101645625,
          "velocity": 0.30708661417322836
        },
        {
          "duration": 0.15340893750000362,
          "durationTicks": 216,
          "midi": 84,
          "name": "C6",
          "ticks": 88296,
          "time": 62.7101645625,
          "velocity": 0.30708661417322836
        },
        {
          "duration": 0.1534089374999965,
          "durationTicks": 216,
          "midi": 52,
          "name": "E3",
          "ticks": 88416,
          "time": 62.79539175,
          "velocity": 0.30708661417322836
        },
        {
          "duration": 0.1534089374999965,
          "durationTicks": 216,
          "midi": 72,
          "name": "C5",
          "ticks": 88416,
          "time": 62.79539175,
          "velocity": 0.30708661417322836
        },
        {
          "duration": 0.1534089374999965,
          "durationTicks": 216,
          "midi": 72,
          "name": "C5",
          "ticks": 88416,
          "time": 62.79539175,
          "velocity": 0.30708661417322836
        },
        {
          "duration": 0.1534089374999965,
          "durationTicks": 216,
          "midi": 84,
          "name": "C6",
          "ticks": 88416,
          "time": 62.79539175,
          "velocity": 0.30708661417322836
        },
        {
          "duration": 0.1534089374999965,
          "durationTicks": 216,
          "midi": 52,
          "name": "E3",
          "ticks": 88416,
          "time": 62.79539175,
          "velocity": 0.30708661417322836
        },
        {
          "duration": 0.1534089374999965,
          "durationTicks": 216,
          "midi": 48,
          "name": "C3",
          "ticks": 88416,
          "time": 62.79539175,
          "velocity": 0.30708661417322836
        },
        {
          "duration": 0.1534089374999965,
          "durationTicks": 216,
          "midi": 84,
          "name": "C6",
          "ticks": 88416,
          "time": 62.79539175,
          "velocity": 0.30708661417322836
        },
        {
          "duration": 0.1534089374999965,
          "durationTicks": 216,
          "midi": 48,
          "name": "C3",
          "ticks": 88416,
          "time": 62.79539175,
          "velocity": 0.30708661417322836
        },
        {
          "duration": 0.1534089374999965,
          "durationTicks": 216,
          "midi": 48,
          "name": "C3",
          "ticks": 88440,
          "time": 62.8124371875,
          "velocity": 0.30708661417322836
        },
        {
          "duration": 0.1534089374999965,
          "durationTicks": 216,
          "midi": 72,
          "name": "C5",
          "ticks": 88440,
          "time": 62.8124371875,
          "velocity": 0.30708661417322836
        },
        {
          "duration": 0.1534089374999965,
          "durationTicks": 216,
          "midi": 52,
          "name": "E3",
          "ticks": 88440,
          "time": 62.8124371875,
          "velocity": 0.30708661417322836
        },
        {
          "duration": 0.1534089374999965,
          "durationTicks": 216,
          "midi": 84,
          "name": "C6",
          "ticks": 88440,
          "time": 62.8124371875,
          "velocity": 0.30708661417322836
        },
        {
          "duration": 0.15340893750000362,
          "durationTicks": 216,
          "midi": 84,
          "name": "C6",
          "ticks": 88560,
          "time": 62.897664375,
          "velocity": 0.30708661417322836
        },
        {
          "duration": 0.15340893750000362,
          "durationTicks": 216,
          "midi": 72,
          "name": "C5",
          "ticks": 88560,
          "time": 62.897664375,
          "velocity": 0.30708661417322836
        },
        {
          "duration": 0.15340893750000362,
          "durationTicks": 216,
          "midi": 72,
          "name": "C5",
          "ticks": 88560,
          "time": 62.897664375,
          "velocity": 0.30708661417322836
        },
        {
          "duration": 0.15340893750000362,
          "durationTicks": 216,
          "midi": 84,
          "name": "C6",
          "ticks": 88560,
          "time": 62.897664375,
          "velocity": 0.30708661417322836
        },
        {
          "duration": 0.1534089374999965,
          "durationTicks": 216,
          "midi": 72,
          "name": "C5",
          "ticks": 88584,
          "time": 62.9147098125,
          "velocity": 0.30708661417322836
        },
        {
          "duration": 0.1534089374999965,
          "durationTicks": 216,
          "midi": 84,
          "name": "C6",
          "ticks": 88584,
          "time": 62.9147098125,
          "velocity": 0.30708661417322836
        },
        {
          "duration": 0.1534089374999965,
          "durationTicks": 216,
          "midi": 40,
          "name": "E2",
          "ticks": 88704,
          "time": 62.999937,
          "velocity": 0.30708661417322836
        },
        {
          "duration": 0.1534089374999965,
          "durationTicks": 216,
          "midi": 40,
          "name": "E2",
          "ticks": 88704,
          "time": 62.999937,
          "velocity": 0.30708661417322836
        },
        {
          "duration": 0.1534089374999965,
          "durationTicks": 216,
          "midi": 72,
          "name": "C5",
          "ticks": 88704,
          "time": 62.999937,
          "velocity": 0.30708661417322836
        },
        {
          "duration": 0.1534089374999965,
          "durationTicks": 216,
          "midi": 84,
          "name": "C6",
          "ticks": 88704,
          "time": 62.999937,
          "velocity": 0.30708661417322836
        },
        {
          "duration": 0.1534089374999965,
          "durationTicks": 216,
          "midi": 84,
          "name": "C6",
          "ticks": 88704,
          "time": 62.999937,
          "velocity": 0.30708661417322836
        },
        {
          "duration": 0.1534089374999965,
          "durationTicks": 216,
          "midi": 72,
          "name": "C5",
          "ticks": 88704,
          "time": 62.999937,
          "velocity": 0.30708661417322836
        },
        {
          "duration": 0.15340893750000362,
          "durationTicks": 216,
          "midi": 40,
          "name": "E2",
          "ticks": 88728,
          "time": 63.0169824375,
          "velocity": 0.30708661417322836
        },
        {
          "duration": 0.15340893750000362,
          "durationTicks": 216,
          "midi": 84,
          "name": "C6",
          "ticks": 88728,
          "time": 63.0169824375,
          "velocity": 0.30708661417322836
        },
        {
          "duration": 0.15340893750000362,
          "durationTicks": 216,
          "midi": 72,
          "name": "C5",
          "ticks": 88728,
          "time": 63.0169824375,
          "velocity": 0.30708661417322836
        },
        {
          "duration": 0.1534089374999965,
          "durationTicks": 216,
          "midi": 71,
          "name": "B4",
          "ticks": 88848,
          "time": 63.102209625,
          "velocity": 0.30708661417322836
        },
        {
          "duration": 0.1534089374999965,
          "durationTicks": 216,
          "midi": 71,
          "name": "B4",
          "ticks": 88848,
          "time": 63.102209625,
          "velocity": 0.30708661417322836
        },
        {
          "duration": 0.1534089374999965,
          "durationTicks": 216,
          "midi": 83,
          "name": "B5",
          "ticks": 88848,
          "time": 63.102209625,
          "velocity": 0.30708661417322836
        },
        {
          "duration": 0.1534089374999965,
          "durationTicks": 216,
          "midi": 83,
          "name": "B5",
          "ticks": 88848,
          "time": 63.102209625,
          "velocity": 0.30708661417322836
        },
        {
          "duration": 0.1534089374999965,
          "durationTicks": 216,
          "midi": 71,
          "name": "B4",
          "ticks": 88872,
          "time": 63.1192550625,
          "velocity": 0.30708661417322836
        },
        {
          "duration": 0.1534089374999965,
          "durationTicks": 216,
          "midi": 83,
          "name": "B5",
          "ticks": 88872,
          "time": 63.1192550625,
          "velocity": 0.30708661417322836
        },
        {
          "duration": 0.15340893750000362,
          "durationTicks": 216,
          "midi": 52,
          "name": "E3",
          "ticks": 88992,
          "time": 63.20448225,
          "velocity": 0.30708661417322836
        },
        {
          "duration": 0.15340893750000362,
          "durationTicks": 216,
          "midi": 48,
          "name": "C3",
          "ticks": 88992,
          "time": 63.20448225,
          "velocity": 0.30708661417322836
        },
        {
          "duration": 0.15340893750000362,
          "durationTicks": 216,
          "midi": 69,
          "name": "A4",
          "ticks": 88992,
          "time": 63.20448225,
          "velocity": 0.30708661417322836
        },
        {
          "duration": 0.15340893750000362,
          "durationTicks": 216,
          "midi": 52,
          "name": "E3",
          "ticks": 88992,
          "time": 63.20448225,
          "velocity": 0.30708661417322836
        },
        {
          "duration": 0.15340893750000362,
          "durationTicks": 216,
          "midi": 48,
          "name": "C3",
          "ticks": 88992,
          "time": 63.20448225,
          "velocity": 0.30708661417322836
        },
        {
          "duration": 0.15340893750000362,
          "durationTicks": 216,
          "midi": 69,
          "name": "A4",
          "ticks": 88992,
          "time": 63.20448225,
          "velocity": 0.30708661417322836
        },
        {
          "duration": 0.15340893750000362,
          "durationTicks": 216,
          "midi": 81,
          "name": "A5",
          "ticks": 88992,
          "time": 63.20448225,
          "velocity": 0.30708661417322836
        },
        {
          "duration": 0.15340893750000362,
          "durationTicks": 216,
          "midi": 81,
          "name": "A5",
          "ticks": 88992,
          "time": 63.20448225,
          "velocity": 0.30708661417322836
        },
        {
          "duration": 0.1534089374999965,
          "durationTicks": 216,
          "midi": 48,
          "name": "C3",
          "ticks": 89016,
          "time": 63.2215276875,
          "velocity": 0.30708661417322836
        },
        {
          "duration": 0.1534089374999965,
          "durationTicks": 216,
          "midi": 81,
          "name": "A5",
          "ticks": 89016,
          "time": 63.2215276875,
          "velocity": 0.30708661417322836
        },
        {
          "duration": 0.1534089374999965,
          "durationTicks": 216,
          "midi": 52,
          "name": "E3",
          "ticks": 89016,
          "time": 63.2215276875,
          "velocity": 0.30708661417322836
        },
        {
          "duration": 0.1534089374999965,
          "durationTicks": 216,
          "midi": 69,
          "name": "A4",
          "ticks": 89016,
          "time": 63.2215276875,
          "velocity": 0.30708661417322836
        },
        {
          "duration": 0.1534089374999965,
          "durationTicks": 216,
          "midi": 72,
          "name": "C5",
          "ticks": 89136,
          "time": 63.306754875,
          "velocity": 0.30708661417322836
        },
        {
          "duration": 0.1534089374999965,
          "durationTicks": 216,
          "midi": 72,
          "name": "C5",
          "ticks": 89136,
          "time": 63.306754875,
          "velocity": 0.30708661417322836
        },
        {
          "duration": 0.1534089374999965,
          "durationTicks": 216,
          "midi": 84,
          "name": "C6",
          "ticks": 89136,
          "time": 63.306754875,
          "velocity": 0.30708661417322836
        },
        {
          "duration": 0.1534089374999965,
          "durationTicks": 216,
          "midi": 84,
          "name": "C6",
          "ticks": 89136,
          "time": 63.306754875,
          "velocity": 0.30708661417322836
        },
        {
          "duration": 0.15340893750000362,
          "durationTicks": 216,
          "midi": 84,
          "name": "C6",
          "ticks": 89160,
          "time": 63.3238003125,
          "velocity": 0.30708661417322836
        },
        {
          "duration": 0.15340893750000362,
          "durationTicks": 216,
          "midi": 72,
          "name": "C5",
          "ticks": 89160,
          "time": 63.3238003125,
          "velocity": 0.30708661417322836
        },
        {
          "duration": 0.1534089374999965,
          "durationTicks": 216,
          "midi": 83,
          "name": "B5",
          "ticks": 89280,
          "time": 63.4090275,
          "velocity": 0.30708661417322836
        },
        {
          "duration": 0.1534089374999965,
          "durationTicks": 216,
          "midi": 47,
          "name": "B2",
          "ticks": 89280,
          "time": 63.4090275,
          "velocity": 0.30708661417322836
        },
        {
          "duration": 0.1534089374999965,
          "durationTicks": 216,
          "midi": 71,
          "name": "B4",
          "ticks": 89280,
          "time": 63.4090275,
          "velocity": 0.30708661417322836
        },
        {
          "duration": 0.1534089374999965,
          "durationTicks": 216,
          "midi": 71,
          "name": "B4",
          "ticks": 89280,
          "time": 63.4090275,
          "velocity": 0.30708661417322836
        },
        {
          "duration": 0.1534089374999965,
          "durationTicks": 216,
          "midi": 83,
          "name": "B5",
          "ticks": 89280,
          "time": 63.4090275,
          "velocity": 0.30708661417322836
        },
        {
          "duration": 0.1534089374999965,
          "durationTicks": 216,
          "midi": 47,
          "name": "B2",
          "ticks": 89280,
          "time": 63.4090275,
          "velocity": 0.30708661417322836
        },
        {
          "duration": 0.1534089374999965,
          "durationTicks": 216,
          "midi": 83,
          "name": "B5",
          "ticks": 89304,
          "time": 63.4260729375,
          "velocity": 0.30708661417322836
        },
        {
          "duration": 0.1534089374999965,
          "durationTicks": 216,
          "midi": 47,
          "name": "B2",
          "ticks": 89304,
          "time": 63.4260729375,
          "velocity": 0.30708661417322836
        },
        {
          "duration": 0.1534089374999965,
          "durationTicks": 216,
          "midi": 71,
          "name": "B4",
          "ticks": 89304,
          "time": 63.4260729375,
          "velocity": 0.30708661417322836
        },
        {
          "duration": 0.15340893750000362,
          "durationTicks": 216,
          "midi": 83,
          "name": "B5",
          "ticks": 89424,
          "time": 63.511300125,
          "velocity": 0.30708661417322836
        },
        {
          "duration": 0.15340893750000362,
          "durationTicks": 216,
          "midi": 71,
          "name": "B4",
          "ticks": 89424,
          "time": 63.511300125,
          "velocity": 0.30708661417322836
        },
        {
          "duration": 0.15340893750000362,
          "durationTicks": 216,
          "midi": 83,
          "name": "B5",
          "ticks": 89424,
          "time": 63.511300125,
          "velocity": 0.30708661417322836
        },
        {
          "duration": 0.15340893750000362,
          "durationTicks": 216,
          "midi": 71,
          "name": "B4",
          "ticks": 89424,
          "time": 63.511300125,
          "velocity": 0.30708661417322836
        },
        {
          "duration": 0.1534089374999965,
          "durationTicks": 216,
          "midi": 71,
          "name": "B4",
          "ticks": 89448,
          "time": 63.5283455625,
          "velocity": 0.30708661417322836
        },
        {
          "duration": 0.1534089374999965,
          "durationTicks": 216,
          "midi": 83,
          "name": "B5",
          "ticks": 89448,
          "time": 63.5283455625,
          "velocity": 0.30708661417322836
        },
        {
          "duration": 0.15340893750000362,
          "durationTicks": 216,
          "midi": 51,
          "name": "D#3",
          "ticks": 89568,
          "time": 63.613572749999996,
          "velocity": 0.30708661417322836
        },
        {
          "duration": 0.15340893750000362,
          "durationTicks": 216,
          "midi": 83,
          "name": "B5",
          "ticks": 89568,
          "time": 63.613572749999996,
          "velocity": 0.30708661417322836
        },
        {
          "duration": 0.15340893750000362,
          "durationTicks": 216,
          "midi": 83,
          "name": "B5",
          "ticks": 89568,
          "time": 63.613572749999996,
          "velocity": 0.30708661417322836
        },
        {
          "duration": 0.15340893750000362,
          "durationTicks": 216,
          "midi": 51,
          "name": "D#3",
          "ticks": 89568,
          "time": 63.613572749999996,
          "velocity": 0.30708661417322836
        },
        {
          "duration": 0.15340893750000362,
          "durationTicks": 216,
          "midi": 59,
          "name": "B3",
          "ticks": 89568,
          "time": 63.613572749999996,
          "velocity": 0.30708661417322836
        },
        {
          "duration": 0.15340893750000362,
          "durationTicks": 216,
          "midi": 71,
          "name": "B4",
          "ticks": 89568,
          "time": 63.613572749999996,
          "velocity": 0.30708661417322836
        },
        {
          "duration": 0.15340893750000362,
          "durationTicks": 216,
          "midi": 59,
          "name": "B3",
          "ticks": 89568,
          "time": 63.613572749999996,
          "velocity": 0.30708661417322836
        },
        {
          "duration": 0.15340893750000362,
          "durationTicks": 216,
          "midi": 71,
          "name": "B4",
          "ticks": 89568,
          "time": 63.613572749999996,
          "velocity": 0.30708661417322836
        },
        {
          "duration": 0.15340893750000362,
          "durationTicks": 216,
          "midi": 83,
          "name": "B5",
          "ticks": 89592,
          "time": 63.6306181875,
          "velocity": 0.30708661417322836
        },
        {
          "duration": 0.15340893750000362,
          "durationTicks": 216,
          "midi": 59,
          "name": "B3",
          "ticks": 89592,
          "time": 63.6306181875,
          "velocity": 0.30708661417322836
        },
        {
          "duration": 0.15340893750000362,
          "durationTicks": 216,
          "midi": 51,
          "name": "D#3",
          "ticks": 89592,
          "time": 63.6306181875,
          "velocity": 0.30708661417322836
        },
        {
          "duration": 0.15340893750000362,
          "durationTicks": 216,
          "midi": 71,
          "name": "B4",
          "ticks": 89592,
          "time": 63.6306181875,
          "velocity": 0.30708661417322836
        },
        {
          "duration": 0.1534089374999965,
          "durationTicks": 216,
          "midi": 71,
          "name": "B4",
          "ticks": 89712,
          "time": 63.715845375,
          "velocity": 0.30708661417322836
        },
        {
          "duration": 0.1534089374999965,
          "durationTicks": 216,
          "midi": 83,
          "name": "B5",
          "ticks": 89712,
          "time": 63.715845375,
          "velocity": 0.30708661417322836
        },
        {
          "duration": 0.1534089374999965,
          "durationTicks": 216,
          "midi": 83,
          "name": "B5",
          "ticks": 89712,
          "time": 63.715845375,
          "velocity": 0.30708661417322836
        },
        {
          "duration": 0.1534089374999965,
          "durationTicks": 216,
          "midi": 71,
          "name": "B4",
          "ticks": 89712,
          "time": 63.715845375,
          "velocity": 0.30708661417322836
        },
        {
          "duration": 0.1534089374999965,
          "durationTicks": 216,
          "midi": 71,
          "name": "B4",
          "ticks": 89736,
          "time": 63.7328908125,
          "velocity": 0.30708661417322836
        },
        {
          "duration": 0.1534089374999965,
          "durationTicks": 216,
          "midi": 83,
          "name": "B5",
          "ticks": 89736,
          "time": 63.7328908125,
          "velocity": 0.30708661417322836
        },
        {
          "duration": 0.15340893750000362,
          "durationTicks": 216,
          "midi": 78,
          "name": "F#5",
          "ticks": 89856,
          "time": 63.818118,
          "velocity": 0.30708661417322836
        },
        {
          "duration": 0.15340893750000362,
          "durationTicks": 216,
          "midi": 42,
          "name": "F#2",
          "ticks": 89856,
          "time": 63.818118,
          "velocity": 0.30708661417322836
        },
        {
          "duration": 0.15340893750000362,
          "durationTicks": 216,
          "midi": 42,
          "name": "F#2",
          "ticks": 89856,
          "time": 63.818118,
          "velocity": 0.30708661417322836
        },
        {
          "duration": 0.15340893750000362,
          "durationTicks": 216,
          "midi": 66,
          "name": "F#4",
          "ticks": 89856,
          "time": 63.818118,
          "velocity": 0.30708661417322836
        },
        {
          "duration": 0.15340893750000362,
          "durationTicks": 216,
          "midi": 78,
          "name": "F#5",
          "ticks": 89856,
          "time": 63.818118,
          "velocity": 0.30708661417322836
        },
        {
          "duration": 0.15340893750000362,
          "durationTicks": 216,
          "midi": 66,
          "name": "F#4",
          "ticks": 89856,
          "time": 63.818118,
          "velocity": 0.30708661417322836
        },
        {
          "duration": 0.1534089374999965,
          "durationTicks": 216,
          "midi": 42,
          "name": "F#2",
          "ticks": 89880,
          "time": 63.8351634375,
          "velocity": 0.30708661417322836
        },
        {
          "duration": 0.1534089374999965,
          "durationTicks": 216,
          "midi": 66,
          "name": "F#4",
          "ticks": 89880,
          "time": 63.8351634375,
          "velocity": 0.30708661417322836
        },
        {
          "duration": 0.1534089374999965,
          "durationTicks": 216,
          "midi": 78,
          "name": "F#5",
          "ticks": 89880,
          "time": 63.8351634375,
          "velocity": 0.30708661417322836
        },
        {
          "duration": 0.15340893750000362,
          "durationTicks": 216,
          "midi": 59,
          "name": "B3",
          "ticks": 90144,
          "time": 64.02266325,
          "velocity": 0.30708661417322836
        },
        {
          "duration": 0.15340893750000362,
          "durationTicks": 216,
          "midi": 83,
          "name": "B5",
          "ticks": 90144,
          "time": 64.02266325,
          "velocity": 0.30708661417322836
        },
        {
          "duration": 0.15340893750000362,
          "durationTicks": 216,
          "midi": 71,
          "name": "B4",
          "ticks": 90144,
          "time": 64.02266325,
          "velocity": 0.30708661417322836
        },
        {
          "duration": 0.15340893750000362,
          "durationTicks": 216,
          "midi": 83,
          "name": "B5",
          "ticks": 90144,
          "time": 64.02266325,
          "velocity": 0.30708661417322836
        },
        {
          "duration": 0.15340893750000362,
          "durationTicks": 216,
          "midi": 51,
          "name": "D#3",
          "ticks": 90144,
          "time": 64.02266325,
          "velocity": 0.30708661417322836
        },
        {
          "duration": 0.15340893750000362,
          "durationTicks": 216,
          "midi": 71,
          "name": "B4",
          "ticks": 90144,
          "time": 64.02266325,
          "velocity": 0.30708661417322836
        },
        {
          "duration": 0.15340893750000362,
          "durationTicks": 216,
          "midi": 51,
          "name": "D#3",
          "ticks": 90144,
          "time": 64.02266325,
          "velocity": 0.30708661417322836
        },
        {
          "duration": 0.15340893750000362,
          "durationTicks": 216,
          "midi": 59,
          "name": "B3",
          "ticks": 90144,
          "time": 64.02266325,
          "velocity": 0.30708661417322836
        },
        {
          "duration": 0.15340893750000362,
          "durationTicks": 216,
          "midi": 71,
          "name": "B4",
          "ticks": 90168,
          "time": 64.0397086875,
          "velocity": 0.30708661417322836
        },
        {
          "duration": 0.15340893750000362,
          "durationTicks": 216,
          "midi": 83,
          "name": "B5",
          "ticks": 90168,
          "time": 64.0397086875,
          "velocity": 0.30708661417322836
        },
        {
          "duration": 0.15340893750000362,
          "durationTicks": 216,
          "midi": 51,
          "name": "D#3",
          "ticks": 90168,
          "time": 64.0397086875,
          "velocity": 0.30708661417322836
        },
        {
          "duration": 0.15340893750000362,
          "durationTicks": 216,
          "midi": 59,
          "name": "B3",
          "ticks": 90168,
          "time": 64.0397086875,
          "velocity": 0.30708661417322836
        },
        {
          "duration": 0.1534089374999894,
          "durationTicks": 216,
          "midi": 52,
          "name": "E3",
          "ticks": 90432,
          "time": 64.2272085,
          "velocity": 0.30708661417322836
        },
        {
          "duration": 0.1534089374999894,
          "durationTicks": 216,
          "midi": 47,
          "name": "B2",
          "ticks": 90432,
          "time": 64.2272085,
          "velocity": 0.30708661417322836
        },
        {
          "duration": 0.1534089374999894,
          "durationTicks": 216,
          "midi": 80,
          "name": "G#5",
          "ticks": 90432,
          "time": 64.2272085,
          "velocity": 0.30708661417322836
        },
        {
          "duration": 0.1534089374999894,
          "durationTicks": 216,
          "midi": 68,
          "name": "G#4",
          "ticks": 90432,
          "time": 64.2272085,
          "velocity": 0.30708661417322836
        },
        {
          "duration": 0.1534089374999894,
          "durationTicks": 216,
          "midi": 80,
          "name": "G#5",
          "ticks": 90432,
          "time": 64.2272085,
          "velocity": 0.30708661417322836
        },
        {
          "duration": 0.1534089374999894,
          "durationTicks": 216,
          "midi": 56,
          "name": "G#3",
          "ticks": 90432,
          "time": 64.2272085,
          "velocity": 0.30708661417322836
        },
        {
          "duration": 0.1534089374999894,
          "durationTicks": 216,
          "midi": 52,
          "name": "E3",
          "ticks": 90432,
          "time": 64.2272085,
          "velocity": 0.30708661417322836
        },
        {
          "duration": 0.1534089374999894,
          "durationTicks": 216,
          "midi": 68,
          "name": "G#4",
          "ticks": 90432,
          "time": 64.2272085,
          "velocity": 0.30708661417322836
        },
        {
          "duration": 0.1534089374999894,
          "durationTicks": 216,
          "midi": 47,
          "name": "B2",
          "ticks": 90432,
          "time": 64.2272085,
          "velocity": 0.30708661417322836
        },
        {
          "duration": 0.1534089374999894,
          "durationTicks": 216,
          "midi": 56,
          "name": "G#3",
          "ticks": 90432,
          "time": 64.2272085,
          "velocity": 0.30708661417322836
        },
        {
          "duration": 0.1534089374999894,
          "durationTicks": 216,
          "midi": 47,
          "name": "B2",
          "ticks": 90456,
          "time": 64.2442539375,
          "velocity": 0.30708661417322836
        },
        {
          "duration": 0.1534089374999894,
          "durationTicks": 216,
          "midi": 80,
          "name": "G#5",
          "ticks": 90456,
          "time": 64.2442539375,
          "velocity": 0.30708661417322836
        },
        {
          "duration": 0.1534089374999894,
          "durationTicks": 216,
          "midi": 68,
          "name": "G#4",
          "ticks": 90456,
          "time": 64.2442539375,
          "velocity": 0.30708661417322836
        },
        {
          "duration": 0.1534089374999894,
          "durationTicks": 216,
          "midi": 56,
          "name": "G#3",
          "ticks": 90456,
          "time": 64.2442539375,
          "velocity": 0.30708661417322836
        },
        {
          "duration": 0.1534089374999894,
          "durationTicks": 216,
          "midi": 52,
          "name": "E3",
          "ticks": 90456,
          "time": 64.2442539375,
          "velocity": 0.30708661417322836
        },
        {
          "duration": 0.5624994375000085,
          "durationTicks": 792,
          "midi": 28,
          "name": "E1",
          "ticks": 90672,
          "time": 64.397662875,
          "velocity": 0.30708661417322836
        },
        {
          "duration": 0.5624994375000085,
          "durationTicks": 792,
          "midi": 28,
          "name": "E1",
          "ticks": 90672,
          "time": 64.397662875,
          "velocity": 0.30708661417322836
        },
        {
          "duration": 0.5624994375000085,
          "durationTicks": 792,
          "midi": 28,
          "name": "E1",
          "ticks": 90696,
          "time": 64.4147083125,
          "velocity": 0.30708661417322836
        },
        {
          "duration": 0.5624994375000085,
          "durationTicks": 792,
          "midi": 40,
          "name": "E2",
          "ticks": 91008,
          "time": 64.636299,
          "velocity": 0.30708661417322836
        },
        {
          "duration": 0.5624994375000085,
          "durationTicks": 792,
          "midi": 40,
          "name": "E2",
          "ticks": 91008,
          "time": 64.636299,
          "velocity": 0.30708661417322836
        },
        {
          "duration": 0.5624994375000085,
          "durationTicks": 792,
          "midi": 52,
          "name": "E3",
          "ticks": 91008,
          "time": 64.636299,
          "velocity": 0.30708661417322836
        },
        {
          "duration": 0.5624994375000085,
          "durationTicks": 792,
          "midi": 52,
          "name": "E3",
          "ticks": 91008,
          "time": 64.636299,
          "velocity": 0.30708661417322836
        },
        {
          "duration": 0.5624994375000085,
          "durationTicks": 792,
          "midi": 52,
          "name": "E3",
          "ticks": 91032,
          "time": 64.6533444375,
          "velocity": 0.30708661417322836
        },
        {
          "duration": 0.5624994375000085,
          "durationTicks": 792,
          "midi": 40,
          "name": "E2",
          "ticks": 91032,
          "time": 64.6533444375,
          "velocity": 0.30708661417322836
        },
        {
          "duration": 0.28977243750000525,
          "durationTicks": 408,
          "midi": 30,
          "name": "F#1",
          "ticks": 91248,
          "time": 64.806753375,
          "velocity": 0.30708661417322836
        },
        {
          "duration": 0.28977243750000525,
          "durationTicks": 408,
          "midi": 30,
          "name": "F#1",
          "ticks": 91248,
          "time": 64.806753375,
          "velocity": 0.30708661417322836
        },
        {
          "duration": 0.28977243749999104,
          "durationTicks": 408,
          "midi": 30,
          "name": "F#1",
          "ticks": 91272,
          "time": 64.8237988125,
          "velocity": 0.30708661417322836
        },
        {
          "duration": 0.28977243750000525,
          "durationTicks": 408,
          "midi": 32,
          "name": "G#1",
          "ticks": 91344,
          "time": 64.874935125,
          "velocity": 0.30708661417322836
        },
        {
          "duration": 0.28977243750000525,
          "durationTicks": 408,
          "midi": 32,
          "name": "G#1",
          "ticks": 91344,
          "time": 64.874935125,
          "velocity": 0.30708661417322836
        },
        {
          "duration": 0.28977243750000525,
          "durationTicks": 408,
          "midi": 32,
          "name": "G#1",
          "ticks": 91368,
          "time": 64.8919805625,
          "velocity": 0.30708661417322836
        },
        {
          "duration": 0.28977243749999104,
          "durationTicks": 408,
          "midi": 42,
          "name": "F#2",
          "ticks": 91488,
          "time": 64.97720775,
          "velocity": 0.30708661417322836
        },
        {
          "duration": 0.28977243749999104,
          "durationTicks": 408,
          "midi": 54,
          "name": "F#3",
          "ticks": 91488,
          "time": 64.97720775,
          "velocity": 0.30708661417322836
        },
        {
          "duration": 0.28977243749999104,
          "durationTicks": 408,
          "midi": 54,
          "name": "F#3",
          "ticks": 91488,
          "time": 64.97720775,
          "velocity": 0.30708661417322836
        },
        {
          "duration": 0.28977243749999104,
          "durationTicks": 408,
          "midi": 42,
          "name": "F#2",
          "ticks": 91488,
          "time": 64.97720775,
          "velocity": 0.30708661417322836
        },
        {
          "duration": 0.28977243750000525,
          "durationTicks": 408,
          "midi": 42,
          "name": "F#2",
          "ticks": 91512,
          "time": 64.9942531875,
          "velocity": 0.30708661417322836
        },
        {
          "duration": 0.28977243750000525,
          "durationTicks": 408,
          "midi": 54,
          "name": "F#3",
          "ticks": 91512,
          "time": 64.9942531875,
          "velocity": 0.30708661417322836
        },
        {
          "duration": 0.28977243750000525,
          "durationTicks": 408,
          "midi": 56,
          "name": "G#3",
          "ticks": 91536,
          "time": 65.011298625,
          "velocity": 0.30708661417322836
        },
        {
          "duration": 0.28977243750000525,
          "durationTicks": 408,
          "midi": 44,
          "name": "G#2",
          "ticks": 91536,
          "time": 65.011298625,
          "velocity": 0.30708661417322836
        },
        {
          "duration": 0.28977243750000525,
          "durationTicks": 408,
          "midi": 56,
          "name": "G#3",
          "ticks": 91536,
          "time": 65.011298625,
          "velocity": 0.30708661417322836
        },
        {
          "duration": 0.28977243750000525,
          "durationTicks": 408,
          "midi": 44,
          "name": "G#2",
          "ticks": 91536,
          "time": 65.011298625,
          "velocity": 0.30708661417322836
        },
        {
          "duration": 0.28977243750000525,
          "durationTicks": 408,
          "midi": 44,
          "name": "G#2",
          "ticks": 91560,
          "time": 65.0283440625,
          "velocity": 0.30708661417322836
        },
        {
          "duration": 0.28977243750000525,
          "durationTicks": 408,
          "midi": 56,
          "name": "G#3",
          "ticks": 91560,
          "time": 65.0283440625,
          "velocity": 0.30708661417322836
        },
        {
          "duration": 0.15340893750000362,
          "durationTicks": 216,
          "midi": 76,
          "name": "E5",
          "ticks": 91584,
          "time": 65.0453895,
          "velocity": 0.30708661417322836
        },
        {
          "duration": 0.28977243750000525,
          "durationTicks": 408,
          "midi": 45,
          "name": "A2",
          "ticks": 91584,
          "time": 65.0453895,
          "velocity": 0.30708661417322836
        },
        {
          "duration": 0.15340893750000362,
          "durationTicks": 216,
          "midi": 64,
          "name": "E4",
          "ticks": 91584,
          "time": 65.0453895,
          "velocity": 0.30708661417322836
        },
        {
          "duration": 0.28977243750000525,
          "durationTicks": 408,
          "midi": 45,
          "name": "A2",
          "ticks": 91584,
          "time": 65.0453895,
          "velocity": 0.30708661417322836
        },
        {
          "duration": 0.15340893750000362,
          "durationTicks": 216,
          "midi": 76,
          "name": "E5",
          "ticks": 91584,
          "time": 65.0453895,
          "velocity": 0.30708661417322836
        },
        {
          "duration": 0.15340893750000362,
          "durationTicks": 216,
          "midi": 64,
          "name": "E4",
          "ticks": 91584,
          "time": 65.0453895,
          "velocity": 0.30708661417322836
        },
        {
          "duration": 0.28977243750000525,
          "durationTicks": 408,
          "midi": 45,
          "name": "A2",
          "ticks": 91608,
          "time": 65.0624349375,
          "velocity": 0.30708661417322836
        },
        {
          "duration": 0.15340893750000362,
          "durationTicks": 216,
          "midi": 76,
          "name": "E5",
          "ticks": 91608,
          "time": 65.0624349375,
          "velocity": 0.30708661417322836
        },
        {
          "duration": 0.15340893750000362,
          "durationTicks": 216,
          "midi": 64,
          "name": "E4",
          "ticks": 91608,
          "time": 65.0624349375,
          "velocity": 0.30708661417322836
        },
        {
          "duration": 0.15340893750000362,
          "durationTicks": 216,
          "midi": 64,
          "name": "E4",
          "ticks": 91728,
          "time": 65.147662125,
          "velocity": 0.30708661417322836
        },
        {
          "duration": 0.15340893750000362,
          "durationTicks": 216,
          "midi": 76,
          "name": "E5",
          "ticks": 91728,
          "time": 65.147662125,
          "velocity": 0.30708661417322836
        },
        {
          "duration": 0.15340893750000362,
          "durationTicks": 216,
          "midi": 64,
          "name": "E4",
          "ticks": 91728,
          "time": 65.147662125,
          "velocity": 0.30708661417322836
        },
        {
          "duration": 0.15340893750000362,
          "durationTicks": 216,
          "midi": 76,
          "name": "E5",
          "ticks": 91728,
          "time": 65.147662125,
          "velocity": 0.30708661417322836
        },
        {
          "duration": 0.15340893750000362,
          "durationTicks": 216,
          "midi": 64,
          "name": "E4",
          "ticks": 91752,
          "time": 65.1647075625,
          "velocity": 0.30708661417322836
        },
        {
          "duration": 0.15340893750000362,
          "durationTicks": 216,
          "midi": 76,
          "name": "E5",
          "ticks": 91752,
          "time": 65.1647075625,
          "velocity": 0.30708661417322836
        },
        {
          "duration": 0.15340893750000362,
          "durationTicks": 216,
          "midi": 48,
          "name": "C3",
          "ticks": 91872,
          "time": 65.24993475,
          "velocity": 0.30708661417322836
        },
        {
          "duration": 0.15340893750000362,
          "durationTicks": 216,
          "midi": 52,
          "name": "E3",
          "ticks": 91872,
          "time": 65.24993475,
          "velocity": 0.30708661417322836
        },
        {
          "duration": 0.15340893750000362,
          "durationTicks": 216,
          "midi": 76,
          "name": "E5",
          "ticks": 91872,
          "time": 65.24993475,
          "velocity": 0.30708661417322836
        },
        {
          "duration": 0.15340893750000362,
          "durationTicks": 216,
          "midi": 52,
          "name": "E3",
          "ticks": 91872,
          "time": 65.24993475,
          "velocity": 0.30708661417322836
        },
        {
          "duration": 0.15340893750000362,
          "durationTicks": 216,
          "midi": 76,
          "name": "E5",
          "ticks": 91872,
          "time": 65.24993475,
          "velocity": 0.30708661417322836
        },
        {
          "duration": 0.15340893750000362,
          "durationTicks": 216,
          "midi": 48,
          "name": "C3",
          "ticks": 91872,
          "time": 65.24993475,
          "velocity": 0.30708661417322836
        },
        {
          "duration": 0.15340893750000362,
          "durationTicks": 216,
          "midi": 64,
          "name": "E4",
          "ticks": 91872,
          "time": 65.24993475,
          "velocity": 0.30708661417322836
        },
        {
          "duration": 0.15340893750000362,
          "durationTicks": 216,
          "midi": 64,
          "name": "E4",
          "ticks": 91872,
          "time": 65.24993475,
          "velocity": 0.30708661417322836
        },
        {
          "duration": 0.15340893750000362,
          "durationTicks": 216,
          "midi": 48,
          "name": "C3",
          "ticks": 91896,
          "time": 65.2669801875,
          "velocity": 0.30708661417322836
        },
        {
          "duration": 0.15340893750000362,
          "durationTicks": 216,
          "midi": 64,
          "name": "E4",
          "ticks": 91896,
          "time": 65.2669801875,
          "velocity": 0.30708661417322836
        },
        {
          "duration": 0.15340893750000362,
          "durationTicks": 216,
          "midi": 52,
          "name": "E3",
          "ticks": 91896,
          "time": 65.2669801875,
          "velocity": 0.30708661417322836
        },
        {
          "duration": 0.15340893750000362,
          "durationTicks": 216,
          "midi": 76,
          "name": "E5",
          "ticks": 91896,
          "time": 65.2669801875,
          "velocity": 0.30708661417322836
        },
        {
          "duration": 0.1534089374999894,
          "durationTicks": 216,
          "midi": 76,
          "name": "E5",
          "ticks": 92016,
          "time": 65.352207375,
          "velocity": 0.30708661417322836
        },
        {
          "duration": 0.1534089374999894,
          "durationTicks": 216,
          "midi": 64,
          "name": "E4",
          "ticks": 92016,
          "time": 65.352207375,
          "velocity": 0.30708661417322836
        },
        {
          "duration": 0.1534089374999894,
          "durationTicks": 216,
          "midi": 64,
          "name": "E4",
          "ticks": 92016,
          "time": 65.352207375,
          "velocity": 0.30708661417322836
        },
        {
          "duration": 0.1534089374999894,
          "durationTicks": 216,
          "midi": 76,
          "name": "E5",
          "ticks": 92016,
          "time": 65.352207375,
          "velocity": 0.30708661417322836
        },
        {
          "duration": 0.15340893750000362,
          "durationTicks": 216,
          "midi": 64,
          "name": "E4",
          "ticks": 92040,
          "time": 65.3692528125,
          "velocity": 0.30708661417322836
        },
        {
          "duration": 0.15340893750000362,
          "durationTicks": 216,
          "midi": 76,
          "name": "E5",
          "ticks": 92040,
          "time": 65.3692528125,
          "velocity": 0.30708661417322836
        },
        {
          "duration": 0.1534089374999894,
          "durationTicks": 216,
          "midi": 64,
          "name": "E4",
          "ticks": 92160,
          "time": 65.45448,
          "velocity": 0.30708661417322836
        },
        {
          "duration": 0.1534089374999894,
          "durationTicks": 216,
          "midi": 40,
          "name": "E2",
          "ticks": 92160,
          "time": 65.45448,
          "velocity": 0.30708661417322836
        },
        {
          "duration": 0.1534089374999894,
          "durationTicks": 216,
          "midi": 64,
          "name": "E4",
          "ticks": 92160,
          "time": 65.45448,
          "velocity": 0.30708661417322836
        },
        {
          "duration": 0.1534089374999894,
          "durationTicks": 216,
          "midi": 40,
          "name": "E2",
          "ticks": 92160,
          "time": 65.45448,
          "velocity": 0.30708661417322836
        },
        {
          "duration": 0.1534089374999894,
          "durationTicks": 216,
          "midi": 76,
          "name": "E5",
          "ticks": 92160,
          "time": 65.45448,
          "velocity": 0.30708661417322836
        },
        {
          "duration": 0.1534089374999894,
          "durationTicks": 216,
          "midi": 76,
          "name": "E5",
          "ticks": 92160,
          "time": 65.45448,
          "velocity": 0.30708661417322836
        },
        {
          "duration": 0.1534089374999894,
          "durationTicks": 216,
          "midi": 76,
          "name": "E5",
          "ticks": 92184,
          "time": 65.4715254375,
          "velocity": 0.30708661417322836
        },
        {
          "duration": 0.1534089374999894,
          "durationTicks": 216,
          "midi": 40,
          "name": "E2",
          "ticks": 92184,
          "time": 65.4715254375,
          "velocity": 0.30708661417322836
        },
        {
          "duration": 0.1534089374999894,
          "durationTicks": 216,
          "midi": 64,
          "name": "E4",
          "ticks": 92184,
          "time": 65.4715254375,
          "velocity": 0.30708661417322836
        },
        {
          "duration": 0.15340893750000362,
          "durationTicks": 216,
          "midi": 64,
          "name": "E4",
          "ticks": 92304,
          "time": 65.556752625,
          "velocity": 0.30708661417322836
        },
        {
          "duration": 0.15340893750000362,
          "durationTicks": 216,
          "midi": 64,
          "name": "E4",
          "ticks": 92304,
          "time": 65.556752625,
          "velocity": 0.30708661417322836
        },
        {
          "duration": 0.15340893750000362,
          "durationTicks": 216,
          "midi": 76,
          "name": "E5",
          "ticks": 92304,
          "time": 65.556752625,
          "velocity": 0.30708661417322836
        },
        {
          "duration": 0.15340893750000362,
          "durationTicks": 216,
          "midi": 76,
          "name": "E5",
          "ticks": 92304,
          "time": 65.556752625,
          "velocity": 0.30708661417322836
        },
        {
          "duration": 0.1534089374999894,
          "durationTicks": 216,
          "midi": 64,
          "name": "E4",
          "ticks": 92328,
          "time": 65.5737980625,
          "velocity": 0.30708661417322836
        },
        {
          "duration": 0.1534089374999894,
          "durationTicks": 216,
          "midi": 76,
          "name": "E5",
          "ticks": 92328,
          "time": 65.5737980625,
          "velocity": 0.30708661417322836
        },
        {
          "duration": 0.15340893750000362,
          "durationTicks": 216,
          "midi": 52,
          "name": "E3",
          "ticks": 92448,
          "time": 65.65902525,
          "velocity": 0.30708661417322836
        },
        {
          "duration": 0.15340893750000362,
          "durationTicks": 216,
          "midi": 52,
          "name": "E3",
          "ticks": 92448,
          "time": 65.65902525,
          "velocity": 0.30708661417322836
        },
        {
          "duration": 0.15340893750000362,
          "durationTicks": 216,
          "midi": 48,
          "name": "C3",
          "ticks": 92448,
          "time": 65.65902525,
          "velocity": 0.30708661417322836
        },
        {
          "duration": 0.15340893750000362,
          "durationTicks": 216,
          "midi": 64,
          "name": "E4",
          "ticks": 92448,
          "time": 65.65902525,
          "velocity": 0.30708661417322836
        },
        {
          "duration": 0.15340893750000362,
          "durationTicks": 216,
          "midi": 64,
          "name": "E4",
          "ticks": 92448,
          "time": 65.65902525,
          "velocity": 0.30708661417322836
        },
        {
          "duration": 0.15340893750000362,
          "durationTicks": 216,
          "midi": 76,
          "name": "E5",
          "ticks": 92448,
          "time": 65.65902525,
          "velocity": 0.30708661417322836
        },
        {
          "duration": 0.15340893750000362,
          "durationTicks": 216,
          "midi": 48,
          "name": "C3",
          "ticks": 92448,
          "time": 65.65902525,
          "velocity": 0.30708661417322836
        },
        {
          "duration": 0.15340893750000362,
          "durationTicks": 216,
          "midi": 76,
          "name": "E5",
          "ticks": 92448,
          "time": 65.65902525,
          "velocity": 0.30708661417322836
        },
        {
          "duration": 0.15340893750000362,
          "durationTicks": 216,
          "midi": 52,
          "name": "E3",
          "ticks": 92472,
          "time": 65.6760706875,
          "velocity": 0.30708661417322836
        },
        {
          "duration": 0.15340893750000362,
          "durationTicks": 216,
          "midi": 64,
          "name": "E4",
          "ticks": 92472,
          "time": 65.6760706875,
          "velocity": 0.30708661417322836
        },
        {
          "duration": 0.15340893750000362,
          "durationTicks": 216,
          "midi": 48,
          "name": "C3",
          "ticks": 92472,
          "time": 65.6760706875,
          "velocity": 0.30708661417322836
        },
        {
          "duration": 0.15340893750000362,
          "durationTicks": 216,
          "midi": 76,
          "name": "E5",
          "ticks": 92472,
          "time": 65.6760706875,
          "velocity": 0.30708661417322836
        },
        {
          "duration": 0.15340893750000362,
          "durationTicks": 216,
          "midi": 76,
          "name": "E5",
          "ticks": 92592,
          "time": 65.761297875,
          "velocity": 0.30708661417322836
        },
        {
          "duration": 0.15340893750000362,
          "durationTicks": 216,
          "midi": 76,
          "name": "E5",
          "ticks": 92592,
          "time": 65.761297875,
          "velocity": 0.30708661417322836
        },
        {
          "duration": 0.15340893750000362,
          "durationTicks": 216,
          "midi": 64,
          "name": "E4",
          "ticks": 92592,
          "time": 65.761297875,
          "velocity": 0.30708661417322836
        },
        {
          "duration": 0.15340893750000362,
          "durationTicks": 216,
          "midi": 64,
          "name": "E4",
          "ticks": 92592,
          "time": 65.761297875,
          "velocity": 0.30708661417322836
        },
        {
          "duration": 0.15340893750000362,
          "durationTicks": 216,
          "midi": 76,
          "name": "E5",
          "ticks": 92616,
          "time": 65.7783433125,
          "velocity": 0.30708661417322836
        },
        {
          "duration": 0.15340893750000362,
          "durationTicks": 216,
          "midi": 64,
          "name": "E4",
          "ticks": 92616,
          "time": 65.7783433125,
          "velocity": 0.30708661417322836
        },
        {
          "duration": 0.15340893750000362,
          "durationTicks": 216,
          "midi": 64,
          "name": "E4",
          "ticks": 92736,
          "time": 65.8635705,
          "velocity": 0.30708661417322836
        },
        {
          "duration": 0.28977243750000525,
          "durationTicks": 408,
          "midi": 45,
          "name": "A2",
          "ticks": 92736,
          "time": 65.8635705,
          "velocity": 0.30708661417322836
        },
        {
          "duration": 0.15340893750000362,
          "durationTicks": 216,
          "midi": 76,
          "name": "E5",
          "ticks": 92736,
          "time": 65.8635705,
          "velocity": 0.30708661417322836
        },
        {
          "duration": 0.15340893750000362,
          "durationTicks": 216,
          "midi": 64,
          "name": "E4",
          "ticks": 92736,
          "time": 65.8635705,
          "velocity": 0.30708661417322836
        },
        {
          "duration": 0.15340893750000362,
          "durationTicks": 216,
          "midi": 76,
          "name": "E5",
          "ticks": 92736,
          "time": 65.8635705,
          "velocity": 0.30708661417322836
        },
        {
          "duration": 0.28977243750000525,
          "durationTicks": 408,
          "midi": 45,
          "name": "A2",
          "ticks": 92736,
          "time": 65.8635705,
          "velocity": 0.30708661417322836
        },
        {
          "duration": 0.15340893750000362,
          "durationTicks": 216,
          "midi": 76,
          "name": "E5",
          "ticks": 92760,
          "time": 65.8806159375,
          "velocity": 0.30708661417322836
        },
        {
          "duration": 0.28977243750000525,
          "durationTicks": 408,
          "midi": 45,
          "name": "A2",
          "ticks": 92760,
          "time": 65.8806159375,
          "velocity": 0.30708661417322836
        },
        {
          "duration": 0.15340893750000362,
          "durationTicks": 216,
          "midi": 64,
          "name": "E4",
          "ticks": 92760,
          "time": 65.8806159375,
          "velocity": 0.30708661417322836
        },
        {
          "duration": 0.1534089374999894,
          "durationTicks": 216,
          "midi": 64,
          "name": "E4",
          "ticks": 92880,
          "time": 65.965843125,
          "velocity": 0.30708661417322836
        },
        {
          "duration": 0.1534089374999894,
          "durationTicks": 216,
          "midi": 64,
          "name": "E4",
          "ticks": 92880,
          "time": 65.965843125,
          "velocity": 0.30708661417322836
        },
        {
          "duration": 0.1534089374999894,
          "durationTicks": 216,
          "midi": 76,
          "name": "E5",
          "ticks": 92880,
          "time": 65.965843125,
          "velocity": 0.30708661417322836
        },
        {
          "duration": 0.1534089374999894,
          "durationTicks": 216,
          "midi": 76,
          "name": "E5",
          "ticks": 92880,
          "time": 65.965843125,
          "velocity": 0.30708661417322836
        },
        {
          "duration": 0.15340893750000362,
          "durationTicks": 216,
          "midi": 76,
          "name": "E5",
          "ticks": 92904,
          "time": 65.9828885625,
          "velocity": 0.30708661417322836
        },
        {
          "duration": 0.15340893750000362,
          "durationTicks": 216,
          "midi": 64,
          "name": "E4",
          "ticks": 92904,
          "time": 65.9828885625,
          "velocity": 0.30708661417322836
        },
        {
          "duration": 0.1534089374999894,
          "durationTicks": 216,
          "midi": 52,
          "name": "E3",
          "ticks": 93024,
          "time": 66.06811575,
          "velocity": 0.30708661417322836
        },
        {
          "duration": 0.1534089374999894,
          "durationTicks": 216,
          "midi": 76,
          "name": "E5",
          "ticks": 93024,
          "time": 66.06811575,
          "velocity": 0.30708661417322836
        },
        {
          "duration": 0.1534089374999894,
          "durationTicks": 216,
          "midi": 48,
          "name": "C3",
          "ticks": 93024,
          "time": 66.06811575,
          "velocity": 0.30708661417322836
        },
        {
          "duration": 0.1534089374999894,
          "durationTicks": 216,
          "midi": 64,
          "name": "E4",
          "ticks": 93024,
          "time": 66.06811575,
          "velocity": 0.30708661417322836
        },
        {
          "duration": 0.1534089374999894,
          "durationTicks": 216,
          "midi": 64,
          "name": "E4",
          "ticks": 93024,
          "time": 66.06811575,
          "velocity": 0.30708661417322836
        },
        {
          "duration": 0.1534089374999894,
          "durationTicks": 216,
          "midi": 48,
          "name": "C3",
          "ticks": 93024,
          "time": 66.06811575,
          "velocity": 0.30708661417322836
        },
        {
          "duration": 0.1534089374999894,
          "durationTicks": 216,
          "midi": 52,
          "name": "E3",
          "ticks": 93024,
          "time": 66.06811575,
          "velocity": 0.30708661417322836
        },
        {
          "duration": 0.1534089374999894,
          "durationTicks": 216,
          "midi": 76,
          "name": "E5",
          "ticks": 93024,
          "time": 66.06811575,
          "velocity": 0.30708661417322836
        },
        {
          "duration": 0.1534089374999894,
          "durationTicks": 216,
          "midi": 64,
          "name": "E4",
          "ticks": 93048,
          "time": 66.0851611875,
          "velocity": 0.30708661417322836
        },
        {
          "duration": 0.1534089374999894,
          "durationTicks": 216,
          "midi": 76,
          "name": "E5",
          "ticks": 93048,
          "time": 66.0851611875,
          "velocity": 0.30708661417322836
        },
        {
          "duration": 0.1534089374999894,
          "durationTicks": 216,
          "midi": 48,
          "name": "C3",
          "ticks": 93048,
          "time": 66.0851611875,
          "velocity": 0.30708661417322836
        },
        {
          "duration": 0.1534089374999894,
          "durationTicks": 216,
          "midi": 52,
          "name": "E3",
          "ticks": 93048,
          "time": 66.0851611875,
          "velocity": 0.30708661417322836
        },
        {
          "duration": 0.15340893750000362,
          "durationTicks": 216,
          "midi": 76,
          "name": "E5",
          "ticks": 93168,
          "time": 66.170388375,
          "velocity": 0.30708661417322836
        },
        {
          "duration": 0.15340893750000362,
          "durationTicks": 216,
          "midi": 64,
          "name": "E4",
          "ticks": 93168,
          "time": 66.170388375,
          "velocity": 0.30708661417322836
        },
        {
          "duration": 0.15340893750000362,
          "durationTicks": 216,
          "midi": 76,
          "name": "E5",
          "ticks": 93168,
          "time": 66.170388375,
          "velocity": 0.30708661417322836
        },
        {
          "duration": 0.15340893750000362,
          "durationTicks": 216,
          "midi": 64,
          "name": "E4",
          "ticks": 93168,
          "time": 66.170388375,
          "velocity": 0.30708661417322836
        },
        {
          "duration": 0.1534089374999894,
          "durationTicks": 216,
          "midi": 64,
          "name": "E4",
          "ticks": 93192,
          "time": 66.1874338125,
          "velocity": 0.30708661417322836
        },
        {
          "duration": 0.1534089374999894,
          "durationTicks": 216,
          "midi": 76,
          "name": "E5",
          "ticks": 93192,
          "time": 66.1874338125,
          "velocity": 0.30708661417322836
        },
        {
          "duration": 0.15340893750000362,
          "durationTicks": 216,
          "midi": 76,
          "name": "E5",
          "ticks": 93312,
          "time": 66.272661,
          "velocity": 0.30708661417322836
        },
        {
          "duration": 0.15340893750000362,
          "durationTicks": 216,
          "midi": 76,
          "name": "E5",
          "ticks": 93312,
          "time": 66.272661,
          "velocity": 0.30708661417322836
        },
        {
          "duration": 0.15340893750000362,
          "durationTicks": 216,
          "midi": 40,
          "name": "E2",
          "ticks": 93312,
          "time": 66.272661,
          "velocity": 0.30708661417322836
        },
        {
          "duration": 0.15340893750000362,
          "durationTicks": 216,
          "midi": 40,
          "name": "E2",
          "ticks": 93312,
          "time": 66.272661,
          "velocity": 0.30708661417322836
        },
        {
          "duration": 0.15340893750000362,
          "durationTicks": 216,
          "midi": 64,
          "name": "E4",
          "ticks": 93312,
          "time": 66.272661,
          "velocity": 0.30708661417322836
        },
        {
          "duration": 0.15340893750000362,
          "durationTicks": 216,
          "midi": 64,
          "name": "E4",
          "ticks": 93312,
          "time": 66.272661,
          "velocity": 0.30708661417322836
        },
        {
          "duration": 0.15340893750000362,
          "durationTicks": 216,
          "midi": 76,
          "name": "E5",
          "ticks": 93336,
          "time": 66.2897064375,
          "velocity": 0.30708661417322836
        },
        {
          "duration": 0.15340893750000362,
          "durationTicks": 216,
          "midi": 64,
          "name": "E4",
          "ticks": 93336,
          "time": 66.2897064375,
          "velocity": 0.30708661417322836
        },
        {
          "duration": 0.15340893750000362,
          "durationTicks": 216,
          "midi": 40,
          "name": "E2",
          "ticks": 93336,
          "time": 66.2897064375,
          "velocity": 0.30708661417322836
        },
        {
          "duration": 0.15340893750000362,
          "durationTicks": 216,
          "midi": 64,
          "name": "E4",
          "ticks": 93456,
          "time": 66.374933625,
          "velocity": 0.30708661417322836
        },
        {
          "duration": 0.15340893750000362,
          "durationTicks": 216,
          "midi": 64,
          "name": "E4",
          "ticks": 93456,
          "time": 66.374933625,
          "velocity": 0.30708661417322836
        },
        {
          "duration": 0.15340893750000362,
          "durationTicks": 216,
          "midi": 76,
          "name": "E5",
          "ticks": 93456,
          "time": 66.374933625,
          "velocity": 0.30708661417322836
        },
        {
          "duration": 0.15340893750000362,
          "durationTicks": 216,
          "midi": 76,
          "name": "E5",
          "ticks": 93456,
          "time": 66.374933625,
          "velocity": 0.30708661417322836
        },
        {
          "duration": 0.15340893750000362,
          "durationTicks": 216,
          "midi": 76,
          "name": "E5",
          "ticks": 93480,
          "time": 66.3919790625,
          "velocity": 0.30708661417322836
        },
        {
          "duration": 0.15340893750000362,
          "durationTicks": 216,
          "midi": 64,
          "name": "E4",
          "ticks": 93480,
          "time": 66.3919790625,
          "velocity": 0.30708661417322836
        },
        {
          "duration": 0.15340893750000362,
          "durationTicks": 216,
          "midi": 64,
          "name": "E4",
          "ticks": 93600,
          "time": 66.47720625,
          "velocity": 0.30708661417322836
        },
        {
          "duration": 0.15340893750000362,
          "durationTicks": 216,
          "midi": 76,
          "name": "E5",
          "ticks": 93600,
          "time": 66.47720625,
          "velocity": 0.30708661417322836
        },
        {
          "duration": 0.15340893750000362,
          "durationTicks": 216,
          "midi": 76,
          "name": "E5",
          "ticks": 93600,
          "time": 66.47720625,
          "velocity": 0.30708661417322836
        },
        {
          "duration": 0.15340893750000362,
          "durationTicks": 216,
          "midi": 48,
          "name": "C3",
          "ticks": 93600,
          "time": 66.47720625,
          "velocity": 0.30708661417322836
        },
        {
          "duration": 0.15340893750000362,
          "durationTicks": 216,
          "midi": 52,
          "name": "E3",
          "ticks": 93600,
          "time": 66.47720625,
          "velocity": 0.30708661417322836
        },
        {
          "duration": 0.15340893750000362,
          "durationTicks": 216,
          "midi": 64,
          "name": "E4",
          "ticks": 93600,
          "time": 66.47720625,
          "velocity": 0.30708661417322836
        },
        {
          "duration": 0.15340893750000362,
          "durationTicks": 216,
          "midi": 48,
          "name": "C3",
          "ticks": 93600,
          "time": 66.47720625,
          "velocity": 0.30708661417322836
        },
        {
          "duration": 0.15340893750000362,
          "durationTicks": 216,
          "midi": 52,
          "name": "E3",
          "ticks": 93600,
          "time": 66.47720625,
          "velocity": 0.30708661417322836
        },
        {
          "duration": 0.15340893750000362,
          "durationTicks": 216,
          "midi": 76,
          "name": "E5",
          "ticks": 93624,
          "time": 66.4942516875,
          "velocity": 0.30708661417322836
        },
        {
          "duration": 0.15340893750000362,
          "durationTicks": 216,
          "midi": 64,
          "name": "E4",
          "ticks": 93624,
          "time": 66.4942516875,
          "velocity": 0.30708661417322836
        },
        {
          "duration": 0.15340893750000362,
          "durationTicks": 216,
          "midi": 48,
          "name": "C3",
          "ticks": 93624,
          "time": 66.4942516875,
          "velocity": 0.30708661417322836
        },
        {
          "duration": 0.15340893750000362,
          "durationTicks": 216,
          "midi": 52,
          "name": "E3",
          "ticks": 93624,
          "time": 66.4942516875,
          "velocity": 0.30708661417322836
        },
        {
          "duration": 0.15340893750000362,
          "durationTicks": 216,
          "midi": 64,
          "name": "E4",
          "ticks": 93744,
          "time": 66.57947887499999,
          "velocity": 0.30708661417322836
        },
        {
          "duration": 0.15340893750000362,
          "durationTicks": 216,
          "midi": 76,
          "name": "E5",
          "ticks": 93744,
          "time": 66.57947887499999,
          "velocity": 0.30708661417322836
        },
        {
          "duration": 0.15340893750000362,
          "durationTicks": 216,
          "midi": 76,
          "name": "E5",
          "ticks": 93744,
          "time": 66.57947887499999,
          "velocity": 0.30708661417322836
        },
        {
          "duration": 0.15340893750000362,
          "durationTicks": 216,
          "midi": 64,
          "name": "E4",
          "ticks": 93744,
          "time": 66.57947887499999,
          "velocity": 0.30708661417322836
        },
        {
          "duration": 0.15340893750000362,
          "durationTicks": 216,
          "midi": 76,
          "name": "E5",
          "ticks": 93768,
          "time": 66.5965243125,
          "velocity": 0.30708661417322836
        },
        {
          "duration": 0.15340893750000362,
          "durationTicks": 216,
          "midi": 64,
          "name": "E4",
          "ticks": 93768,
          "time": 66.5965243125,
          "velocity": 0.30708661417322836
        },
        {
          "duration": 0.28977243749999104,
          "durationTicks": 408,
          "midi": 45,
          "name": "A2",
          "ticks": 93888,
          "time": 66.6817515,
          "velocity": 0.30708661417322836
        },
        {
          "duration": 0.1534089374999894,
          "durationTicks": 216,
          "midi": 64,
          "name": "E4",
          "ticks": 93888,
          "time": 66.6817515,
          "velocity": 0.30708661417322836
        },
        {
          "duration": 0.1534089374999894,
          "durationTicks": 216,
          "midi": 64,
          "name": "E4",
          "ticks": 93888,
          "time": 66.6817515,
          "velocity": 0.30708661417322836
        },
        {
          "duration": 0.28977243749999104,
          "durationTicks": 408,
          "midi": 45,
          "name": "A2",
          "ticks": 93888,
          "time": 66.6817515,
          "velocity": 0.30708661417322836
        },
        {
          "duration": 0.1534089374999894,
          "durationTicks": 216,
          "midi": 76,
          "name": "E5",
          "ticks": 93888,
          "time": 66.6817515,
          "velocity": 0.30708661417322836
        },
        {
          "duration": 0.1534089374999894,
          "durationTicks": 216,
          "midi": 76,
          "name": "E5",
          "ticks": 93888,
          "time": 66.6817515,
          "velocity": 0.30708661417322836
        },
        {
          "duration": 0.28977243749999104,
          "durationTicks": 408,
          "midi": 45,
          "name": "A2",
          "ticks": 93912,
          "time": 66.6987969375,
          "velocity": 0.30708661417322836
        },
        {
          "duration": 0.1534089374999894,
          "durationTicks": 216,
          "midi": 64,
          "name": "E4",
          "ticks": 93912,
          "time": 66.6987969375,
          "velocity": 0.30708661417322836
        },
        {
          "duration": 0.1534089374999894,
          "durationTicks": 216,
          "midi": 76,
          "name": "E5",
          "ticks": 93912,
          "time": 66.6987969375,
          "velocity": 0.30708661417322836
        },
        {
          "duration": 0.15340893750000362,
          "durationTicks": 216,
          "midi": 65,
          "name": "F4",
          "ticks": 94032,
          "time": 66.784024125,
          "velocity": 0.30708661417322836
        },
        {
          "duration": 0.15340893750000362,
          "durationTicks": 216,
          "midi": 65,
          "name": "F4",
          "ticks": 94032,
          "time": 66.784024125,
          "velocity": 0.30708661417322836
        },
        {
          "duration": 0.15340893750000362,
          "durationTicks": 216,
          "midi": 77,
          "name": "F5",
          "ticks": 94032,
          "time": 66.784024125,
          "velocity": 0.30708661417322836
        },
        {
          "duration": 0.15340893750000362,
          "durationTicks": 216,
          "midi": 77,
          "name": "F5",
          "ticks": 94032,
          "time": 66.784024125,
          "velocity": 0.30708661417322836
        },
        {
          "duration": 0.1534089374999894,
          "durationTicks": 216,
          "midi": 77,
          "name": "F5",
          "ticks": 94056,
          "time": 66.8010695625,
          "velocity": 0.30708661417322836
        },
        {
          "duration": 0.1534089374999894,
          "durationTicks": 216,
          "midi": 65,
          "name": "F4",
          "ticks": 94056,
          "time": 66.8010695625,
          "velocity": 0.30708661417322836
        },
        {
          "duration": 0.15340893750000362,
          "durationTicks": 216,
          "midi": 76,
          "name": "E5",
          "ticks": 94176,
          "time": 66.88629675,
          "velocity": 0.30708661417322836
        },
        {
          "duration": 0.15340893750000362,
          "durationTicks": 216,
          "midi": 52,
          "name": "E3",
          "ticks": 94176,
          "time": 66.88629675,
          "velocity": 0.30708661417322836
        },
        {
          "duration": 0.15340893750000362,
          "durationTicks": 216,
          "midi": 76,
          "name": "E5",
          "ticks": 94176,
          "time": 66.88629675,
          "velocity": 0.30708661417322836
        },
        {
          "duration": 0.15340893750000362,
          "durationTicks": 216,
          "midi": 48,
          "name": "C3",
          "ticks": 94176,
          "time": 66.88629675,
          "velocity": 0.30708661417322836
        },
        {
          "duration": 0.15340893750000362,
          "durationTicks": 216,
          "midi": 52,
          "name": "E3",
          "ticks": 94176,
          "time": 66.88629675,
          "velocity": 0.30708661417322836
        },
        {
          "duration": 0.15340893750000362,
          "durationTicks": 216,
          "midi": 64,
          "name": "E4",
          "ticks": 94176,
          "time": 66.88629675,
          "velocity": 0.30708661417322836
        },
        {
          "duration": 0.15340893750000362,
          "durationTicks": 216,
          "midi": 48,
          "name": "C3",
          "ticks": 94176,
          "time": 66.88629675,
          "velocity": 0.30708661417322836
        },
        {
          "duration": 0.15340893750000362,
          "durationTicks": 216,
          "midi": 64,
          "name": "E4",
          "ticks": 94176,
          "time": 66.88629675,
          "velocity": 0.30708661417322836
        },
        {
          "duration": 0.15340893750000362,
          "durationTicks": 216,
          "midi": 76,
          "name": "E5",
          "ticks": 94200,
          "time": 66.9033421875,
          "velocity": 0.30708661417322836
        },
        {
          "duration": 0.15340893750000362,
          "durationTicks": 216,
          "midi": 64,
          "name": "E4",
          "ticks": 94200,
          "time": 66.9033421875,
          "velocity": 0.30708661417322836
        },
        {
          "duration": 0.15340893750000362,
          "durationTicks": 216,
          "midi": 48,
          "name": "C3",
          "ticks": 94200,
          "time": 66.9033421875,
          "velocity": 0.30708661417322836
        },
        {
          "duration": 0.15340893750000362,
          "durationTicks": 216,
          "midi": 52,
          "name": "E3",
          "ticks": 94200,
          "time": 66.9033421875,
          "velocity": 0.30708661417322836
        },
        {
          "duration": 0.15340893750000362,
          "durationTicks": 216,
          "midi": 75,
          "name": "D#5",
          "ticks": 94320,
          "time": 66.988569375,
          "velocity": 0.30708661417322836
        },
        {
          "duration": 0.15340893750000362,
          "durationTicks": 216,
          "midi": 63,
          "name": "D#4",
          "ticks": 94320,
          "time": 66.988569375,
          "velocity": 0.30708661417322836
        },
        {
          "duration": 0.15340893750000362,
          "durationTicks": 216,
          "midi": 75,
          "name": "D#5",
          "ticks": 94320,
          "time": 66.988569375,
          "velocity": 0.30708661417322836
        },
        {
          "duration": 0.15340893750000362,
          "durationTicks": 216,
          "midi": 63,
          "name": "D#4",
          "ticks": 94320,
          "time": 66.988569375,
          "velocity": 0.30708661417322836
        },
        {
          "duration": 0.15340893750000362,
          "durationTicks": 216,
          "midi": 75,
          "name": "D#5",
          "ticks": 94344,
          "time": 67.0056148125,
          "velocity": 0.30708661417322836
        },
        {
          "duration": 0.15340893750000362,
          "durationTicks": 216,
          "midi": 63,
          "name": "D#4",
          "ticks": 94344,
          "time": 67.0056148125,
          "velocity": 0.30708661417322836
        },
        {
          "duration": 0.28977243750000525,
          "durationTicks": 408,
          "midi": 64,
          "name": "E4",
          "ticks": 94464,
          "time": 67.090842,
          "velocity": 0.30708661417322836
        },
        {
          "duration": 0.28977243750000525,
          "durationTicks": 408,
          "midi": 76,
          "name": "E5",
          "ticks": 94464,
          "time": 67.090842,
          "velocity": 0.30708661417322836
        },
        {
          "duration": 0.15340893750000362,
          "durationTicks": 216,
          "midi": 40,
          "name": "E2",
          "ticks": 94464,
          "time": 67.090842,
          "velocity": 0.30708661417322836
        },
        {
          "duration": 0.28977243750000525,
          "durationTicks": 408,
          "midi": 64,
          "name": "E4",
          "ticks": 94464,
          "time": 67.090842,
          "velocity": 0.30708661417322836
        },
        {
          "duration": 0.28977243750000525,
          "durationTicks": 408,
          "midi": 76,
          "name": "E5",
          "ticks": 94464,
          "time": 67.090842,
          "velocity": 0.30708661417322836
        },
        {
          "duration": 0.15340893750000362,
          "durationTicks": 216,
          "midi": 40,
          "name": "E2",
          "ticks": 94464,
          "time": 67.090842,
          "velocity": 0.30708661417322836
        },
        {
          "duration": 0.28977243750000525,
          "durationTicks": 408,
          "midi": 64,
          "name": "E4",
          "ticks": 94488,
          "time": 67.1078874375,
          "velocity": 0.30708661417322836
        },
        {
          "duration": 0.28977243750000525,
          "durationTicks": 408,
          "midi": 76,
          "name": "E5",
          "ticks": 94488,
          "time": 67.1078874375,
          "velocity": 0.30708661417322836
        },
        {
          "duration": 0.15340893750000362,
          "durationTicks": 216,
          "midi": 40,
          "name": "E2",
          "ticks": 94488,
          "time": 67.1078874375,
          "velocity": 0.30708661417322836
        },
        {
          "duration": 0.1534089374999894,
          "durationTicks": 216,
          "midi": 48,
          "name": "C3",
          "ticks": 94752,
          "time": 67.29538725,
          "velocity": 0.30708661417322836
        },
        {
          "duration": 0.1534089374999894,
          "durationTicks": 216,
          "midi": 81,
          "name": "A5",
          "ticks": 94752,
          "time": 67.29538725,
          "velocity": 0.30708661417322836
        },
        {
          "duration": 0.1534089374999894,
          "durationTicks": 216,
          "midi": 69,
          "name": "A4",
          "ticks": 94752,
          "time": 67.29538725,
          "velocity": 0.30708661417322836
        },
        {
          "duration": 0.1534089374999894,
          "durationTicks": 216,
          "midi": 69,
          "name": "A4",
          "ticks": 94752,
          "time": 67.29538725,
          "velocity": 0.30708661417322836
        },
        {
          "duration": 0.1534089374999894,
          "durationTicks": 216,
          "midi": 81,
          "name": "A5",
          "ticks": 94752,
          "time": 67.29538725,
          "velocity": 0.30708661417322836
        },
        {
          "duration": 0.1534089374999894,
          "durationTicks": 216,
          "midi": 52,
          "name": "E3",
          "ticks": 94752,
          "time": 67.29538725,
          "velocity": 0.30708661417322836
        },
        {
          "duration": 0.1534089374999894,
          "durationTicks": 216,
          "midi": 48,
          "name": "C3",
          "ticks": 94752,
          "time": 67.29538725,
          "velocity": 0.30708661417322836
        },
        {
          "duration": 0.1534089374999894,
          "durationTicks": 216,
          "midi": 52,
          "name": "E3",
          "ticks": 94752,
          "time": 67.29538725,
          "velocity": 0.30708661417322836
        },
        {
          "duration": 0.15340893750000362,
          "durationTicks": 216,
          "midi": 48,
          "name": "C3",
          "ticks": 94776,
          "time": 67.31243268749999,
          "velocity": 0.30708661417322836
        },
        {
          "duration": 0.15340893750000362,
          "durationTicks": 216,
          "midi": 52,
          "name": "E3",
          "ticks": 94776,
          "time": 67.31243268749999,
          "velocity": 0.30708661417322836
        },
        {
          "duration": 0.15340893750000362,
          "durationTicks": 216,
          "midi": 69,
          "name": "A4",
          "ticks": 94776,
          "time": 67.31243268749999,
          "velocity": 0.30708661417322836
        },
        {
          "duration": 0.15340893750000362,
          "durationTicks": 216,
          "midi": 81,
          "name": "A5",
          "ticks": 94776,
          "time": 67.31243268749999,
          "velocity": 0.30708661417322836
        },
        {
          "duration": 0.15340893750000362,
          "durationTicks": 216,
          "midi": 72,
          "name": "C5",
          "ticks": 94896,
          "time": 67.397659875,
          "velocity": 0.30708661417322836
        },
        {
          "duration": 0.15340893750000362,
          "durationTicks": 216,
          "midi": 84,
          "name": "C6",
          "ticks": 94896,
          "time": 67.397659875,
          "velocity": 0.30708661417322836
        },
        {
          "duration": 0.15340893750000362,
          "durationTicks": 216,
          "midi": 72,
          "name": "C5",
          "ticks": 94896,
          "time": 67.397659875,
          "velocity": 0.30708661417322836
        },
        {
          "duration": 0.15340893750000362,
          "durationTicks": 216,
          "midi": 84,
          "name": "C6",
          "ticks": 94896,
          "time": 67.397659875,
          "velocity": 0.30708661417322836
        },
        {
          "duration": 0.1534089374999894,
          "durationTicks": 216,
          "midi": 84,
          "name": "C6",
          "ticks": 94920,
          "time": 67.4147053125,
          "velocity": 0.30708661417322836
        },
        {
          "duration": 0.1534089374999894,
          "durationTicks": 216,
          "midi": 72,
          "name": "C5",
          "ticks": 94920,
          "time": 67.4147053125,
          "velocity": 0.30708661417322836
        },
        {
          "duration": 0.28977243750000525,
          "durationTicks": 408,
          "midi": 88,
          "name": "E6",
          "ticks": 95040,
          "time": 67.4999325,
          "velocity": 0.30708661417322836
        },
        {
          "duration": 0.28977243750000525,
          "durationTicks": 408,
          "midi": 88,
          "name": "E6",
          "ticks": 95040,
          "time": 67.4999325,
          "velocity": 0.30708661417322836
        },
        {
          "duration": 0.28977243750000525,
          "durationTicks": 408,
          "midi": 45,
          "name": "A2",
          "ticks": 95040,
          "time": 67.4999325,
          "velocity": 0.30708661417322836
        },
        {
          "duration": 0.28977243750000525,
          "durationTicks": 408,
          "midi": 45,
          "name": "A2",
          "ticks": 95040,
          "time": 67.4999325,
          "velocity": 0.30708661417322836
        },
        {
          "duration": 0.28977243750000525,
          "durationTicks": 408,
          "midi": 76,
          "name": "E5",
          "ticks": 95040,
          "time": 67.4999325,
          "velocity": 0.30708661417322836
        },
        {
          "duration": 0.28977243750000525,
          "durationTicks": 408,
          "midi": 76,
          "name": "E5",
          "ticks": 95040,
          "time": 67.4999325,
          "velocity": 0.30708661417322836
        },
        {
          "duration": 0.28977243749999104,
          "durationTicks": 408,
          "midi": 45,
          "name": "A2",
          "ticks": 95064,
          "time": 67.5169779375,
          "velocity": 0.30708661417322836
        },
        {
          "duration": 0.28977243749999104,
          "durationTicks": 408,
          "midi": 88,
          "name": "E6",
          "ticks": 95064,
          "time": 67.5169779375,
          "velocity": 0.30708661417322836
        },
        {
          "duration": 0.28977243749999104,
          "durationTicks": 408,
          "midi": 76,
          "name": "E5",
          "ticks": 95064,
          "time": 67.5169779375,
          "velocity": 0.30708661417322836
        },
        {
          "duration": 0.15340893750000362,
          "durationTicks": 216,
          "midi": 48,
          "name": "C3",
          "ticks": 95328,
          "time": 67.70447775,
          "velocity": 0.30708661417322836
        },
        {
          "duration": 0.28977243750000525,
          "durationTicks": 408,
          "midi": 93,
          "name": "A6",
          "ticks": 95328,
          "time": 67.70447775,
          "velocity": 0.30708661417322836
        },
        {
          "duration": 0.15340893750000362,
          "durationTicks": 216,
          "midi": 52,
          "name": "E3",
          "ticks": 95328,
          "time": 67.70447775,
          "velocity": 0.30708661417322836
        },
        {
          "duration": 0.28977243750000525,
          "durationTicks": 408,
          "midi": 93,
          "name": "A6",
          "ticks": 95328,
          "time": 67.70447775,
          "velocity": 0.30708661417322836
        },
        {
          "duration": 0.15340893750000362,
          "durationTicks": 216,
          "midi": 52,
          "name": "E3",
          "ticks": 95328,
          "time": 67.70447775,
          "velocity": 0.30708661417322836
        },
        {
          "duration": 0.28977243750000525,
          "durationTicks": 408,
          "midi": 81,
          "name": "A5",
          "ticks": 95328,
          "time": 67.70447775,
          "velocity": 0.30708661417322836
        },
        {
          "duration": 0.28977243750000525,
          "durationTicks": 408,
          "midi": 81,
          "name": "A5",
          "ticks": 95328,
          "time": 67.70447775,
          "velocity": 0.30708661417322836
        },
        {
          "duration": 0.15340893750000362,
          "durationTicks": 216,
          "midi": 48,
          "name": "C3",
          "ticks": 95328,
          "time": 67.70447775,
          "velocity": 0.30708661417322836
        },
        {
          "duration": 0.15340893750000362,
          "durationTicks": 216,
          "midi": 52,
          "name": "E3",
          "ticks": 95352,
          "time": 67.7215231875,
          "velocity": 0.30708661417322836
        },
        {
          "duration": 0.28977243750000525,
          "durationTicks": 408,
          "midi": 93,
          "name": "A6",
          "ticks": 95352,
          "time": 67.7215231875,
          "velocity": 0.30708661417322836
        },
        {
          "duration": 0.28977243750000525,
          "durationTicks": 408,
          "midi": 81,
          "name": "A5",
          "ticks": 95352,
          "time": 67.7215231875,
          "velocity": 0.30708661417322836
        },
        {
          "duration": 0.15340893750000362,
          "durationTicks": 216,
          "midi": 48,
          "name": "C3",
          "ticks": 95352,
          "time": 67.7215231875,
          "velocity": 0.30708661417322836
        },
        {
          "duration": 0.1534089374999894,
          "durationTicks": 216,
          "midi": 40,
          "name": "E2",
          "ticks": 95616,
          "time": 67.909023,
          "velocity": 0.30708661417322836
        },
        {
          "duration": 0.5624994374999943,
          "durationTicks": 792,
          "midi": 84,
          "name": "C6",
          "ticks": 95616,
          "time": 67.909023,
          "velocity": 0.30708661417322836
        },
        {
          "duration": 0.5624994374999943,
          "durationTicks": 792,
          "midi": 84,
          "name": "C6",
          "ticks": 95616,
          "time": 67.909023,
          "velocity": 0.30708661417322836
        },
        {
          "duration": 0.1534089374999894,
          "durationTicks": 216,
          "midi": 40,
          "name": "E2",
          "ticks": 95616,
          "time": 67.909023,
          "velocity": 0.30708661417322836
        },
        {
          "duration": 0.5624994375000085,
          "durationTicks": 792,
          "midi": 84,
          "name": "C6",
          "ticks": 95640,
          "time": 67.92606843749999,
          "velocity": 0.30708661417322836
        },
        {
          "duration": 0.15340893750000362,
          "durationTicks": 216,
          "midi": 40,
          "name": "E2",
          "ticks": 95640,
          "time": 67.92606843749999,
          "velocity": 0.30708661417322836
        },
        {
          "duration": 0.15340893750000362,
          "durationTicks": 216,
          "midi": 52,
          "name": "E3",
          "ticks": 95904,
          "time": 68.11356825,
          "velocity": 0.30708661417322836
        },
        {
          "duration": 0.15340893750000362,
          "durationTicks": 216,
          "midi": 48,
          "name": "C3",
          "ticks": 95904,
          "time": 68.11356825,
          "velocity": 0.30708661417322836
        },
        {
          "duration": 0.15340893750000362,
          "durationTicks": 216,
          "midi": 48,
          "name": "C3",
          "ticks": 95904,
          "time": 68.11356825,
          "velocity": 0.30708661417322836
        },
        {
          "duration": 0.15340893750000362,
          "durationTicks": 216,
          "midi": 52,
          "name": "E3",
          "ticks": 95904,
          "time": 68.11356825,
          "velocity": 0.30708661417322836
        },
        {
          "duration": 0.15340893750000362,
          "durationTicks": 216,
          "midi": 48,
          "name": "C3",
          "ticks": 95928,
          "time": 68.1306136875,
          "velocity": 0.30708661417322836
        },
        {
          "duration": 0.15340893750000362,
          "durationTicks": 216,
          "midi": 52,
          "name": "E3",
          "ticks": 95928,
          "time": 68.1306136875,
          "velocity": 0.30708661417322836
        },
        {
          "duration": 0.22159068749999733,
          "durationTicks": 312,
          "midi": 38,
          "name": "D2",
          "ticks": 96192,
          "time": 68.3181135,
          "velocity": 0.30708661417322836
        },
        {
          "duration": 0.22159068749999733,
          "durationTicks": 312,
          "midi": 38,
          "name": "D2",
          "ticks": 96192,
          "time": 68.3181135,
          "velocity": 0.30708661417322836
        },
        {
          "duration": 0.22159068749999733,
          "durationTicks": 312,
          "midi": 50,
          "name": "D3",
          "ticks": 96192,
          "time": 68.3181135,
          "velocity": 0.30708661417322836
        },
        {
          "duration": 0.15340893750000362,
          "durationTicks": 216,
          "midi": 86,
          "name": "D6",
          "ticks": 96192,
          "time": 68.3181135,
          "velocity": 0.30708661417322836
        },
        {
          "duration": 0.15340893750000362,
          "durationTicks": 216,
          "midi": 86,
          "name": "D6",
          "ticks": 96192,
          "time": 68.3181135,
          "velocity": 0.30708661417322836
        },
        {
          "duration": 0.22159068749999733,
          "durationTicks": 312,
          "midi": 50,
          "name": "D3",
          "ticks": 96192,
          "time": 68.3181135,
          "velocity": 0.30708661417322836
        },
        {
          "duration": 0.15340893750000362,
          "durationTicks": 216,
          "midi": 77,
          "name": "F5",
          "ticks": 96192,
          "time": 68.3181135,
          "velocity": 0.30708661417322836
        },
        {
          "duration": 0.15340893750000362,
          "durationTicks": 216,
          "midi": 77,
          "name": "F5",
          "ticks": 96192,
          "time": 68.3181135,
          "velocity": 0.30708661417322836
        },
        {
          "duration": 0.22159068749999733,
          "durationTicks": 312,
          "midi": 50,
          "name": "D3",
          "ticks": 96216,
          "time": 68.3351589375,
          "velocity": 0.30708661417322836
        },
        {
          "duration": 0.15340893750000362,
          "durationTicks": 216,
          "midi": 86,
          "name": "D6",
          "ticks": 96216,
          "time": 68.3351589375,
          "velocity": 0.30708661417322836
        },
        {
          "duration": 0.15340893750000362,
          "durationTicks": 216,
          "midi": 77,
          "name": "F5",
          "ticks": 96216,
          "time": 68.3351589375,
          "velocity": 0.30708661417322836
        },
        {
          "duration": 0.22159068749999733,
          "durationTicks": 312,
          "midi": 38,
          "name": "D2",
          "ticks": 96216,
          "time": 68.3351589375,
          "velocity": 0.30708661417322836
        },
        {
          "duration": 0.15340893750000362,
          "durationTicks": 216,
          "midi": 84,
          "name": "C6",
          "ticks": 96336,
          "time": 68.420386125,
          "velocity": 0.30708661417322836
        },
        {
          "duration": 0.15340893750000362,
          "durationTicks": 216,
          "midi": 84,
          "name": "C6",
          "ticks": 96336,
          "time": 68.420386125,
          "velocity": 0.30708661417322836
        },
        {
          "duration": 0.15340893750000362,
          "durationTicks": 216,
          "midi": 76,
          "name": "E5",
          "ticks": 96336,
          "time": 68.420386125,
          "velocity": 0.30708661417322836
        },
        {
          "duration": 0.15340893750000362,
          "durationTicks": 216,
          "midi": 76,
          "name": "E5",
          "ticks": 96336,
          "time": 68.420386125,
          "velocity": 0.30708661417322836
        },
        {
          "duration": 0.15340893750000362,
          "durationTicks": 216,
          "midi": 84,
          "name": "C6",
          "ticks": 96360,
          "time": 68.4374315625,
          "velocity": 0.30708661417322836
        },
        {
          "duration": 0.15340893750000362,
          "durationTicks": 216,
          "midi": 76,
          "name": "E5",
          "ticks": 96360,
          "time": 68.4374315625,
          "velocity": 0.30708661417322836
        },
        {
          "duration": 0.1534089374999894,
          "durationTicks": 216,
          "midi": 59,
          "name": "B3",
          "ticks": 96480,
          "time": 68.52265875,
          "velocity": 0.30708661417322836
        },
        {
          "duration": 0.1534089374999894,
          "durationTicks": 216,
          "midi": 53,
          "name": "F3",
          "ticks": 96480,
          "time": 68.52265875,
          "velocity": 0.30708661417322836
        },
        {
          "duration": 0.1534089374999894,
          "durationTicks": 216,
          "midi": 59,
          "name": "B3",
          "ticks": 96480,
          "time": 68.52265875,
          "velocity": 0.30708661417322836
        },
        {
          "duration": 0.1534089374999894,
          "durationTicks": 216,
          "midi": 83,
          "name": "B5",
          "ticks": 96480,
          "time": 68.52265875,
          "velocity": 0.30708661417322836
        },
        {
          "duration": 0.1534089374999894,
          "durationTicks": 216,
          "midi": 74,
          "name": "D5",
          "ticks": 96480,
          "time": 68.52265875,
          "velocity": 0.30708661417322836
        },
        {
          "duration": 0.1534089374999894,
          "durationTicks": 216,
          "midi": 95,
          "name": "B6",
          "ticks": 96480,
          "time": 68.52265875,
          "velocity": 0.30708661417322836
        },
        {
          "duration": 0.1534089374999894,
          "durationTicks": 216,
          "midi": 86,
          "name": "D6",
          "ticks": 96480,
          "time": 68.52265875,
          "velocity": 0.30708661417322836
        },
        {
          "duration": 0.1534089374999894,
          "durationTicks": 216,
          "midi": 95,
          "name": "B6",
          "ticks": 96480,
          "time": 68.52265875,
          "velocity": 0.30708661417322836
        },
        {
          "duration": 0.1534089374999894,
          "durationTicks": 216,
          "midi": 86,
          "name": "D6",
          "ticks": 96480,
          "time": 68.52265875,
          "velocity": 0.30708661417322836
        },
        {
          "duration": 0.1534089374999894,
          "durationTicks": 216,
          "midi": 74,
          "name": "D5",
          "ticks": 96480,
          "time": 68.52265875,
          "velocity": 0.30708661417322836
        },
        {
          "duration": 0.1534089374999894,
          "durationTicks": 216,
          "midi": 83,
          "name": "B5",
          "ticks": 96480,
          "time": 68.52265875,
          "velocity": 0.30708661417322836
        },
        {
          "duration": 0.1534089374999894,
          "durationTicks": 216,
          "midi": 53,
          "name": "F3",
          "ticks": 96480,
          "time": 68.52265875,
          "velocity": 0.30708661417322836
        },
        {
          "duration": 0.15340893750000362,
          "durationTicks": 216,
          "midi": 86,
          "name": "D6",
          "ticks": 96504,
          "time": 68.53970418749999,
          "velocity": 0.30708661417322836
        },
        {
          "duration": 0.15340893750000362,
          "durationTicks": 216,
          "midi": 83,
          "name": "B5",
          "ticks": 96504,
          "time": 68.53970418749999,
          "velocity": 0.30708661417322836
        },
        {
          "duration": 0.15340893750000362,
          "durationTicks": 216,
          "midi": 59,
          "name": "B3",
          "ticks": 96504,
          "time": 68.53970418749999,
          "velocity": 0.30708661417322836
        },
        {
          "duration": 0.15340893750000362,
          "durationTicks": 216,
          "midi": 95,
          "name": "B6",
          "ticks": 96504,
          "time": 68.53970418749999,
          "velocity": 0.30708661417322836
        },
        {
          "duration": 0.15340893750000362,
          "durationTicks": 216,
          "midi": 74,
          "name": "D5",
          "ticks": 96504,
          "time": 68.53970418749999,
          "velocity": 0.30708661417322836
        },
        {
          "duration": 0.15340893750000362,
          "durationTicks": 216,
          "midi": 53,
          "name": "F3",
          "ticks": 96504,
          "time": 68.53970418749999,
          "velocity": 0.30708661417322836
        },
        {
          "duration": 0.15340893750000362,
          "durationTicks": 216,
          "midi": 77,
          "name": "F5",
          "ticks": 96624,
          "time": 68.624931375,
          "velocity": 0.30708661417322836
        },
        {
          "duration": 0.15340893750000362,
          "durationTicks": 216,
          "midi": 77,
          "name": "F5",
          "ticks": 96624,
          "time": 68.624931375,
          "velocity": 0.30708661417322836
        },
        {
          "duration": 0.15340893750000362,
          "durationTicks": 216,
          "midi": 86,
          "name": "D6",
          "ticks": 96624,
          "time": 68.624931375,
          "velocity": 0.30708661417322836
        },
        {
          "duration": 0.15340893750000362,
          "durationTicks": 216,
          "midi": 86,
          "name": "D6",
          "ticks": 96624,
          "time": 68.624931375,
          "velocity": 0.30708661417322836
        },
        {
          "duration": 0.1534089374999894,
          "durationTicks": 216,
          "midi": 77,
          "name": "F5",
          "ticks": 96648,
          "time": 68.6419768125,
          "velocity": 0.30708661417322836
        },
        {
          "duration": 0.1534089374999894,
          "durationTicks": 216,
          "midi": 86,
          "name": "D6",
          "ticks": 96648,
          "time": 68.6419768125,
          "velocity": 0.30708661417322836
        },
        {
          "duration": 0.22159068749999733,
          "durationTicks": 312,
          "midi": 36,
          "name": "C2",
          "ticks": 96768,
          "time": 68.727204,
          "velocity": 0.30708661417322836
        },
        {
          "duration": 0.22159068749999733,
          "durationTicks": 312,
          "midi": 48,
          "name": "C3",
          "ticks": 96768,
          "time": 68.727204,
          "velocity": 0.30708661417322836
        },
        {
          "duration": 0.15340893750000362,
          "durationTicks": 216,
          "midi": 84,
          "name": "C6",
          "ticks": 96768,
          "time": 68.727204,
          "velocity": 0.30708661417322836
        },
        {
          "duration": 0.22159068749999733,
          "durationTicks": 312,
          "midi": 48,
          "name": "C3",
          "ticks": 96768,
          "time": 68.727204,
          "velocity": 0.30708661417322836
        },
        {
          "duration": 0.22159068749999733,
          "durationTicks": 312,
          "midi": 36,
          "name": "C2",
          "ticks": 96768,
          "time": 68.727204,
          "velocity": 0.30708661417322836
        },
        {
          "duration": 0.15340893750000362,
          "durationTicks": 216,
          "midi": 84,
          "name": "C6",
          "ticks": 96768,
          "time": 68.727204,
          "velocity": 0.30708661417322836
        },
        {
          "duration": 0.15340893750000362,
          "durationTicks": 216,
          "midi": 76,
          "name": "E5",
          "ticks": 96768,
          "time": 68.727204,
          "velocity": 0.30708661417322836
        },
        {
          "duration": 0.15340893750000362,
          "durationTicks": 216,
          "midi": 76,
          "name": "E5",
          "ticks": 96768,
          "time": 68.727204,
          "velocity": 0.30708661417322836
        },
        {
          "duration": 0.22159068749999733,
          "durationTicks": 312,
          "midi": 36,
          "name": "C2",
          "ticks": 96792,
          "time": 68.7442494375,
          "velocity": 0.30708661417322836
        },
        {
          "duration": 0.15340893750000362,
          "durationTicks": 216,
          "midi": 76,
          "name": "E5",
          "ticks": 96792,
          "time": 68.7442494375,
          "velocity": 0.30708661417322836
        },
        {
          "duration": 0.22159068749999733,
          "durationTicks": 312,
          "midi": 48,
          "name": "C3",
          "ticks": 96792,
          "time": 68.7442494375,
          "velocity": 0.30708661417322836
        },
        {
          "duration": 0.15340893750000362,
          "durationTicks": 216,
          "midi": 84,
          "name": "C6",
          "ticks": 96792,
          "time": 68.7442494375,
          "velocity": 0.30708661417322836
        },
        {
          "duration": 0.15340893750000362,
          "durationTicks": 216,
          "midi": 83,
          "name": "B5",
          "ticks": 96912,
          "time": 68.829476625,
          "velocity": 0.30708661417322836
        },
        {
          "duration": 0.15340893750000362,
          "durationTicks": 216,
          "midi": 95,
          "name": "B6",
          "ticks": 96912,
          "time": 68.829476625,
          "velocity": 0.30708661417322836
        },
        {
          "duration": 0.15340893750000362,
          "durationTicks": 216,
          "midi": 74,
          "name": "D5",
          "ticks": 96912,
          "time": 68.829476625,
          "velocity": 0.30708661417322836
        },
        {
          "duration": 0.15340893750000362,
          "durationTicks": 216,
          "midi": 86,
          "name": "D6",
          "ticks": 96912,
          "time": 68.829476625,
          "velocity": 0.30708661417322836
        },
        {
          "duration": 0.15340893750000362,
          "durationTicks": 216,
          "midi": 86,
          "name": "D6",
          "ticks": 96912,
          "time": 68.829476625,
          "velocity": 0.30708661417322836
        },
        {
          "duration": 0.15340893750000362,
          "durationTicks": 216,
          "midi": 95,
          "name": "B6",
          "ticks": 96912,
          "time": 68.829476625,
          "velocity": 0.30708661417322836
        },
        {
          "duration": 0.15340893750000362,
          "durationTicks": 216,
          "midi": 74,
          "name": "D5",
          "ticks": 96912,
          "time": 68.829476625,
          "velocity": 0.30708661417322836
        },
        {
          "duration": 0.15340893750000362,
          "durationTicks": 216,
          "midi": 83,
          "name": "B5",
          "ticks": 96912,
          "time": 68.829476625,
          "velocity": 0.30708661417322836
        },
        {
          "duration": 0.15340893750000362,
          "durationTicks": 216,
          "midi": 86,
          "name": "D6",
          "ticks": 96936,
          "time": 68.8465220625,
          "velocity": 0.30708661417322836
        },
        {
          "duration": 0.15340893750000362,
          "durationTicks": 216,
          "midi": 95,
          "name": "B6",
          "ticks": 96936,
          "time": 68.8465220625,
          "velocity": 0.30708661417322836
        },
        {
          "duration": 0.15340893750000362,
          "durationTicks": 216,
          "midi": 74,
          "name": "D5",
          "ticks": 96936,
          "time": 68.8465220625,
          "velocity": 0.30708661417322836
        },
        {
          "duration": 0.15340893750000362,
          "durationTicks": 216,
          "midi": 83,
          "name": "B5",
          "ticks": 96936,
          "time": 68.8465220625,
          "velocity": 0.30708661417322836
        },
        {
          "duration": 0.15340893750000362,
          "durationTicks": 216,
          "midi": 93,
          "name": "A6",
          "ticks": 97056,
          "time": 68.93174925,
          "velocity": 0.30708661417322836
        },
        {
          "duration": 0.15340893750000362,
          "durationTicks": 216,
          "midi": 52,
          "name": "E3",
          "ticks": 97056,
          "time": 68.93174925,
          "velocity": 0.30708661417322836
        },
        {
          "duration": 0.15340893750000362,
          "durationTicks": 216,
          "midi": 60,
          "name": "C4",
          "ticks": 97056,
          "time": 68.93174925,
          "velocity": 0.30708661417322836
        },
        {
          "duration": 0.15340893750000362,
          "durationTicks": 216,
          "midi": 93,
          "name": "A6",
          "ticks": 97056,
          "time": 68.93174925,
          "velocity": 0.30708661417322836
        },
        {
          "duration": 0.15340893750000362,
          "durationTicks": 216,
          "midi": 72,
          "name": "C5",
          "ticks": 97056,
          "time": 68.93174925,
          "velocity": 0.30708661417322836
        },
        {
          "duration": 0.15340893750000362,
          "durationTicks": 216,
          "midi": 84,
          "name": "C6",
          "ticks": 97056,
          "time": 68.93174925,
          "velocity": 0.30708661417322836
        },
        {
          "duration": 0.15340893750000362,
          "durationTicks": 216,
          "midi": 81,
          "name": "A5",
          "ticks": 97056,
          "time": 68.93174925,
          "velocity": 0.30708661417322836
        },
        {
          "duration": 0.15340893750000362,
          "durationTicks": 216,
          "midi": 72,
          "name": "C5",
          "ticks": 97056,
          "time": 68.93174925,
          "velocity": 0.30708661417322836
        },
        {
          "duration": 0.15340893750000362,
          "durationTicks": 216,
          "midi": 84,
          "name": "C6",
          "ticks": 97056,
          "time": 68.93174925,
          "velocity": 0.30708661417322836
        },
        {
          "duration": 0.15340893750000362,
          "durationTicks": 216,
          "midi": 60,
          "name": "C4",
          "ticks": 97056,
          "time": 68.93174925,
          "velocity": 0.30708661417322836
        },
        {
          "duration": 0.15340893750000362,
          "durationTicks": 216,
          "midi": 81,
          "name": "A5",
          "ticks": 97056,
          "time": 68.93174925,
          "velocity": 0.30708661417322836
        },
        {
          "duration": 0.15340893750000362,
          "durationTicks": 216,
          "midi": 52,
          "name": "E3",
          "ticks": 97056,
          "time": 68.93174925,
          "velocity": 0.30708661417322836
        },
        {
          "duration": 0.15340893750000362,
          "durationTicks": 216,
          "midi": 84,
          "name": "C6",
          "ticks": 97080,
          "time": 68.9487946875,
          "velocity": 0.30708661417322836
        },
        {
          "duration": 0.15340893750000362,
          "durationTicks": 216,
          "midi": 93,
          "name": "A6",
          "ticks": 97080,
          "time": 68.9487946875,
          "velocity": 0.30708661417322836
        },
        {
          "duration": 0.15340893750000362,
          "durationTicks": 216,
          "midi": 81,
          "name": "A5",
          "ticks": 97080,
          "time": 68.9487946875,
          "velocity": 0.30708661417322836
        },
        {
          "duration": 0.15340893750000362,
          "durationTicks": 216,
          "midi": 52,
          "name": "E3",
          "ticks": 97080,
          "time": 68.9487946875,
          "velocity": 0.30708661417322836
        },
        {
          "duration": 0.15340893750000362,
          "durationTicks": 216,
          "midi": 72,
          "name": "C5",
          "ticks": 97080,
          "time": 68.9487946875,
          "velocity": 0.30708661417322836
        },
        {
          "duration": 0.15340893750000362,
          "durationTicks": 216,
          "midi": 60,
          "name": "C4",
          "ticks": 97080,
          "time": 68.9487946875,
          "velocity": 0.30708661417322836
        },
        {
          "duration": 0.15340893750000362,
          "durationTicks": 216,
          "midi": 76,
          "name": "E5",
          "ticks": 97200,
          "time": 69.034021875,
          "velocity": 0.30708661417322836
        },
        {
          "duration": 0.15340893750000362,
          "durationTicks": 216,
          "midi": 84,
          "name": "C6",
          "ticks": 97200,
          "time": 69.034021875,
          "velocity": 0.30708661417322836
        },
        {
          "duration": 0.15340893750000362,
          "durationTicks": 216,
          "midi": 76,
          "name": "E5",
          "ticks": 97200,
          "time": 69.034021875,
          "velocity": 0.30708661417322836
        },
        {
          "duration": 0.15340893750000362,
          "durationTicks": 216,
          "midi": 84,
          "name": "C6",
          "ticks": 97200,
          "time": 69.034021875,
          "velocity": 0.30708661417322836
        },
        {
          "duration": 0.15340893750000362,
          "durationTicks": 216,
          "midi": 84,
          "name": "C6",
          "ticks": 97224,
          "time": 69.0510673125,
          "velocity": 0.30708661417322836
        },
        {
          "duration": 0.15340893750000362,
          "durationTicks": 216,
          "midi": 76,
          "name": "E5",
          "ticks": 97224,
          "time": 69.0510673125,
          "velocity": 0.30708661417322836
        },
        {
          "duration": 0.22159068749999733,
          "durationTicks": 312,
          "midi": 47,
          "name": "B2",
          "ticks": 97344,
          "time": 69.1362945,
          "velocity": 0.30708661417322836
        },
        {
          "duration": 0.1534089374999894,
          "durationTicks": 216,
          "midi": 86,
          "name": "D6",
          "ticks": 97344,
          "time": 69.1362945,
          "velocity": 0.30708661417322836
        },
        {
          "duration": 0.1534089374999894,
          "durationTicks": 216,
          "midi": 95,
          "name": "B6",
          "ticks": 97344,
          "time": 69.1362945,
          "velocity": 0.30708661417322836
        },
        {
          "duration": 0.22159068749999733,
          "durationTicks": 312,
          "midi": 47,
          "name": "B2",
          "ticks": 97344,
          "time": 69.1362945,
          "velocity": 0.30708661417322836
        },
        {
          "duration": 0.22159068749999733,
          "durationTicks": 312,
          "midi": 35,
          "name": "B1",
          "ticks": 97344,
          "time": 69.1362945,
          "velocity": 0.30708661417322836
        },
        {
          "duration": 0.1534089374999894,
          "durationTicks": 216,
          "midi": 74,
          "name": "D5",
          "ticks": 97344,
          "time": 69.1362945,
          "velocity": 0.30708661417322836
        },
        {
          "duration": 0.1534089374999894,
          "durationTicks": 216,
          "midi": 83,
          "name": "B5",
          "ticks": 97344,
          "time": 69.1362945,
          "velocity": 0.30708661417322836
        },
        {
          "duration": 0.1534089374999894,
          "durationTicks": 216,
          "midi": 86,
          "name": "D6",
          "ticks": 97344,
          "time": 69.1362945,
          "velocity": 0.30708661417322836
        },
        {
          "duration": 0.1534089374999894,
          "durationTicks": 216,
          "midi": 95,
          "name": "B6",
          "ticks": 97344,
          "time": 69.1362945,
          "velocity": 0.30708661417322836
        },
        {
          "duration": 0.1534089374999894,
          "durationTicks": 216,
          "midi": 83,
          "name": "B5",
          "ticks": 97344,
          "time": 69.1362945,
          "velocity": 0.30708661417322836
        },
        {
          "duration": 0.22159068749999733,
          "durationTicks": 312,
          "midi": 35,
          "name": "B1",
          "ticks": 97344,
          "time": 69.1362945,
          "velocity": 0.30708661417322836
        },
        {
          "duration": 0.1534089374999894,
          "durationTicks": 216,
          "midi": 74,
          "name": "D5",
          "ticks": 97344,
          "time": 69.1362945,
          "velocity": 0.30708661417322836
        },
        {
          "duration": 0.15340893750000362,
          "durationTicks": 216,
          "midi": 95,
          "name": "B6",
          "ticks": 97368,
          "time": 69.1533399375,
          "velocity": 0.30708661417322836
        },
        {
          "duration": 0.22159068750001154,
          "durationTicks": 312,
          "midi": 47,
          "name": "B2",
          "ticks": 97368,
          "time": 69.1533399375,
          "velocity": 0.30708661417322836
        },
        {
          "duration": 0.15340893750000362,
          "durationTicks": 216,
          "midi": 86,
          "name": "D6",
          "ticks": 97368,
          "time": 69.1533399375,
          "velocity": 0.30708661417322836
        },
        {
          "duration": 0.22159068750001154,
          "durationTicks": 312,
          "midi": 35,
          "name": "B1",
          "ticks": 97368,
          "time": 69.1533399375,
          "velocity": 0.30708661417322836
        },
        {
          "duration": 0.15340893750000362,
          "durationTicks": 216,
          "midi": 83,
          "name": "B5",
          "ticks": 97368,
          "time": 69.1533399375,
          "velocity": 0.30708661417322836
        },
        {
          "duration": 0.15340893750000362,
          "durationTicks": 216,
          "midi": 74,
          "name": "D5",
          "ticks": 97368,
          "time": 69.1533399375,
          "velocity": 0.30708661417322836
        },
        {
          "duration": 0.1534089374999894,
          "durationTicks": 216,
          "midi": 93,
          "name": "A6",
          "ticks": 97488,
          "time": 69.238567125,
          "velocity": 0.30708661417322836
        },
        {
          "duration": 0.1534089374999894,
          "durationTicks": 216,
          "midi": 81,
          "name": "A5",
          "ticks": 97488,
          "time": 69.238567125,
          "velocity": 0.30708661417322836
        },
        {
          "duration": 0.1534089374999894,
          "durationTicks": 216,
          "midi": 81,
          "name": "A5",
          "ticks": 97488,
          "time": 69.238567125,
          "velocity": 0.30708661417322836
        },
        {
          "duration": 0.1534089374999894,
          "durationTicks": 216,
          "midi": 84,
          "name": "C6",
          "ticks": 97488,
          "time": 69.238567125,
          "velocity": 0.30708661417322836
        },
        {
          "duration": 0.1534089374999894,
          "durationTicks": 216,
          "midi": 72,
          "name": "C5",
          "ticks": 97488,
          "time": 69.238567125,
          "velocity": 0.30708661417322836
        },
        {
          "duration": 0.1534089374999894,
          "durationTicks": 216,
          "midi": 84,
          "name": "C6",
          "ticks": 97488,
          "time": 69.238567125,
          "velocity": 0.30708661417322836
        },
        {
          "duration": 0.1534089374999894,
          "durationTicks": 216,
          "midi": 93,
          "name": "A6",
          "ticks": 97488,
          "time": 69.238567125,
          "velocity": 0.30708661417322836
        },
        {
          "duration": 0.1534089374999894,
          "durationTicks": 216,
          "midi": 72,
          "name": "C5",
          "ticks": 97488,
          "time": 69.238567125,
          "velocity": 0.30708661417322836
        },
        {
          "duration": 0.1534089374999894,
          "durationTicks": 216,
          "midi": 81,
          "name": "A5",
          "ticks": 97512,
          "time": 69.2556125625,
          "velocity": 0.30708661417322836
        },
        {
          "duration": 0.1534089374999894,
          "durationTicks": 216,
          "midi": 93,
          "name": "A6",
          "ticks": 97512,
          "time": 69.2556125625,
          "velocity": 0.30708661417322836
        },
        {
          "duration": 0.1534089374999894,
          "durationTicks": 216,
          "midi": 72,
          "name": "C5",
          "ticks": 97512,
          "time": 69.2556125625,
          "velocity": 0.30708661417322836
        },
        {
          "duration": 0.1534089374999894,
          "durationTicks": 216,
          "midi": 84,
          "name": "C6",
          "ticks": 97512,
          "time": 69.2556125625,
          "velocity": 0.30708661417322836
        },
        {
          "duration": 0.15340893750000362,
          "durationTicks": 216,
          "midi": 56,
          "name": "G#3",
          "ticks": 97632,
          "time": 69.34083975,
          "velocity": 0.30708661417322836
        },
        {
          "duration": 0.15340893750000362,
          "durationTicks": 216,
          "midi": 80,
          "name": "G#5",
          "ticks": 97632,
          "time": 69.34083975,
          "velocity": 0.30708661417322836
        },
        {
          "duration": 0.15340893750000362,
          "durationTicks": 216,
          "midi": 80,
          "name": "G#5",
          "ticks": 97632,
          "time": 69.34083975,
          "velocity": 0.30708661417322836
        },
        {
          "duration": 0.15340893750000362,
          "durationTicks": 216,
          "midi": 71,
          "name": "B4",
          "ticks": 97632,
          "time": 69.34083975,
          "velocity": 0.30708661417322836
        },
        {
          "duration": 0.15340893750000362,
          "durationTicks": 216,
          "midi": 92,
          "name": "G#6",
          "ticks": 97632,
          "time": 69.34083975,
          "velocity": 0.30708661417322836
        },
        {
          "duration": 0.15340893750000362,
          "durationTicks": 216,
          "midi": 83,
          "name": "B5",
          "ticks": 97632,
          "time": 69.34083975,
          "velocity": 0.30708661417322836
        },
        {
          "duration": 0.15340893750000362,
          "durationTicks": 216,
          "midi": 50,
          "name": "D3",
          "ticks": 97632,
          "time": 69.34083975,
          "velocity": 0.30708661417322836
        },
        {
          "duration": 0.15340893750000362,
          "durationTicks": 216,
          "midi": 71,
          "name": "B4",
          "ticks": 97632,
          "time": 69.34083975,
          "velocity": 0.30708661417322836
        },
        {
          "duration": 0.15340893750000362,
          "durationTicks": 216,
          "midi": 92,
          "name": "G#6",
          "ticks": 97632,
          "time": 69.34083975,
          "velocity": 0.30708661417322836
        },
        {
          "duration": 0.15340893750000362,
          "durationTicks": 216,
          "midi": 50,
          "name": "D3",
          "ticks": 97632,
          "time": 69.34083975,
          "velocity": 0.30708661417322836
        },
        {
          "duration": 0.15340893750000362,
          "durationTicks": 216,
          "midi": 56,
          "name": "G#3",
          "ticks": 97632,
          "time": 69.34083975,
          "velocity": 0.30708661417322836
        },
        {
          "duration": 0.15340893750000362,
          "durationTicks": 216,
          "midi": 83,
          "name": "B5",
          "ticks": 97632,
          "time": 69.34083975,
          "velocity": 0.30708661417322836
        },
        {
          "duration": 0.15340893750000362,
          "durationTicks": 216,
          "midi": 80,
          "name": "G#5",
          "ticks": 97656,
          "time": 69.3578851875,
          "velocity": 0.30708661417322836
        },
        {
          "duration": 0.15340893750000362,
          "durationTicks": 216,
          "midi": 71,
          "name": "B4",
          "ticks": 97656,
          "time": 69.3578851875,
          "velocity": 0.30708661417322836
        },
        {
          "duration": 0.15340893750000362,
          "durationTicks": 216,
          "midi": 50,
          "name": "D3",
          "ticks": 97656,
          "time": 69.3578851875,
          "velocity": 0.30708661417322836
        },
        {
          "duration": 0.15340893750000362,
          "durationTicks": 216,
          "midi": 56,
          "name": "G#3",
          "ticks": 97656,
          "time": 69.3578851875,
          "velocity": 0.30708661417322836
        },
        {
          "duration": 0.15340893750000362,
          "durationTicks": 216,
          "midi": 92,
          "name": "G#6",
          "ticks": 97656,
          "time": 69.3578851875,
          "velocity": 0.30708661417322836
        },
        {
          "duration": 0.15340893750000362,
          "durationTicks": 216,
          "midi": 83,
          "name": "B5",
          "ticks": 97656,
          "time": 69.3578851875,
          "velocity": 0.30708661417322836
        },
        {
          "duration": 0.15340893750000362,
          "durationTicks": 216,
          "midi": 83,
          "name": "B5",
          "ticks": 97776,
          "time": 69.443112375,
          "velocity": 0.30708661417322836
        },
        {
          "duration": 0.15340893750000362,
          "durationTicks": 216,
          "midi": 83,
          "name": "B5",
          "ticks": 97776,
          "time": 69.443112375,
          "velocity": 0.30708661417322836
        },
        {
          "duration": 0.15340893750000362,
          "durationTicks": 216,
          "midi": 95,
          "name": "B6",
          "ticks": 97776,
          "time": 69.443112375,
          "velocity": 0.30708661417322836
        },
        {
          "duration": 0.15340893750000362,
          "durationTicks": 216,
          "midi": 74,
          "name": "D5",
          "ticks": 97776,
          "time": 69.443112375,
          "velocity": 0.30708661417322836
        },
        {
          "duration": 0.15340893750000362,
          "durationTicks": 216,
          "midi": 86,
          "name": "D6",
          "ticks": 97776,
          "time": 69.443112375,
          "velocity": 0.30708661417322836
        },
        {
          "duration": 0.15340893750000362,
          "durationTicks": 216,
          "midi": 74,
          "name": "D5",
          "ticks": 97776,
          "time": 69.443112375,
          "velocity": 0.30708661417322836
        },
        {
          "duration": 0.15340893750000362,
          "durationTicks": 216,
          "midi": 86,
          "name": "D6",
          "ticks": 97776,
          "time": 69.443112375,
          "velocity": 0.30708661417322836
        },
        {
          "duration": 0.15340893750000362,
          "durationTicks": 216,
          "midi": 95,
          "name": "B6",
          "ticks": 97776,
          "time": 69.443112375,
          "velocity": 0.30708661417322836
        },
        {
          "duration": 0.15340893750000362,
          "durationTicks": 216,
          "midi": 74,
          "name": "D5",
          "ticks": 97800,
          "time": 69.4601578125,
          "velocity": 0.30708661417322836
        },
        {
          "duration": 0.15340893750000362,
          "durationTicks": 216,
          "midi": 83,
          "name": "B5",
          "ticks": 97800,
          "time": 69.4601578125,
          "velocity": 0.30708661417322836
        },
        {
          "duration": 0.15340893750000362,
          "durationTicks": 216,
          "midi": 86,
          "name": "D6",
          "ticks": 97800,
          "time": 69.4601578125,
          "velocity": 0.30708661417322836
        },
        {
          "duration": 0.15340893750000362,
          "durationTicks": 216,
          "midi": 95,
          "name": "B6",
          "ticks": 97800,
          "time": 69.4601578125,
          "velocity": 0.30708661417322836
        },
        {
          "duration": 0.15340893750000362,
          "durationTicks": 216,
          "midi": 84,
          "name": "C6",
          "ticks": 97920,
          "time": 69.545385,
          "velocity": 0.30708661417322836
        },
        {
          "duration": 0.22159068749999733,
          "durationTicks": 312,
          "midi": 45,
          "name": "A2",
          "ticks": 97920,
          "time": 69.545385,
          "velocity": 0.30708661417322836
        },
        {
          "duration": 0.15340893750000362,
          "durationTicks": 216,
          "midi": 81,
          "name": "A5",
          "ticks": 97920,
          "time": 69.545385,
          "velocity": 0.30708661417322836
        },
        {
          "duration": 0.15340893750000362,
          "durationTicks": 216,
          "midi": 84,
          "name": "C6",
          "ticks": 97920,
          "time": 69.545385,
          "velocity": 0.30708661417322836
        },
        {
          "duration": 0.15340893750000362,
          "durationTicks": 216,
          "midi": 93,
          "name": "A6",
          "ticks": 97920,
          "time": 69.545385,
          "velocity": 0.30708661417322836
        },
        {
          "duration": 0.22159068749999733,
          "durationTicks": 312,
          "midi": 33,
          "name": "A1",
          "ticks": 97920,
          "time": 69.545385,
          "velocity": 0.30708661417322836
        },
        {
          "duration": 0.15340893750000362,
          "durationTicks": 216,
          "midi": 93,
          "name": "A6",
          "ticks": 97920,
          "time": 69.545385,
          "velocity": 0.30708661417322836
        },
        {
          "duration": 0.15340893750000362,
          "durationTicks": 216,
          "midi": 81,
          "name": "A5",
          "ticks": 97920,
          "time": 69.545385,
          "velocity": 0.30708661417322836
        },
        {
          "duration": 0.22159068749999733,
          "durationTicks": 312,
          "midi": 33,
          "name": "A1",
          "ticks": 97920,
          "time": 69.545385,
          "velocity": 0.30708661417322836
        },
        {
          "duration": 0.15340893750000362,
          "durationTicks": 216,
          "midi": 72,
          "name": "C5",
          "ticks": 97920,
          "time": 69.545385,
          "velocity": 0.30708661417322836
        },
        {
          "duration": 0.22159068749999733,
          "durationTicks": 312,
          "midi": 45,
          "name": "A2",
          "ticks": 97920,
          "time": 69.545385,
          "velocity": 0.30708661417322836
        },
        {
          "duration": 0.15340893750000362,
          "durationTicks": 216,
          "midi": 72,
          "name": "C5",
          "ticks": 97920,
          "time": 69.545385,
          "velocity": 0.30708661417322836
        },
        {
          "duration": 0.15340893750000362,
          "durationTicks": 216,
          "midi": 93,
          "name": "A6",
          "ticks": 97944,
          "time": 69.5624304375,
          "velocity": 0.30708661417322836
        },
        {
          "duration": 0.15340893750000362,
          "durationTicks": 216,
          "midi": 81,
          "name": "A5",
          "ticks": 97944,
          "time": 69.5624304375,
          "velocity": 0.30708661417322836
        },
        {
          "duration": 0.15340893750000362,
          "durationTicks": 216,
          "midi": 84,
          "name": "C6",
          "ticks": 97944,
          "time": 69.5624304375,
          "velocity": 0.30708661417322836
        },
        {
          "duration": 0.22159068749999733,
          "durationTicks": 312,
          "midi": 33,
          "name": "A1",
          "ticks": 97944,
          "time": 69.5624304375,
          "velocity": 0.30708661417322836
        },
        {
          "duration": 0.15340893750000362,
          "durationTicks": 216,
          "midi": 72,
          "name": "C5",
          "ticks": 97944,
          "time": 69.5624304375,
          "velocity": 0.30708661417322836
        },
        {
          "duration": 0.22159068749999733,
          "durationTicks": 312,
          "midi": 45,
          "name": "A2",
          "ticks": 97944,
          "time": 69.5624304375,
          "velocity": 0.30708661417322836
        },
        {
          "duration": 0.15340893750000362,
          "durationTicks": 216,
          "midi": 88,
          "name": "E6",
          "ticks": 98064,
          "time": 69.647657625,
          "velocity": 0.30708661417322836
        },
        {
          "duration": 0.15340893750000362,
          "durationTicks": 216,
          "midi": 76,
          "name": "E5",
          "ticks": 98064,
          "time": 69.647657625,
          "velocity": 0.30708661417322836
        },
        {
          "duration": 0.15340893750000362,
          "durationTicks": 216,
          "midi": 79,
          "name": "G5",
          "ticks": 98064,
          "time": 69.647657625,
          "velocity": 0.30708661417322836
        },
        {
          "duration": 0.15340893750000362,
          "durationTicks": 216,
          "midi": 67,
          "name": "G4",
          "ticks": 98064,
          "time": 69.647657625,
          "velocity": 0.30708661417322836
        },
        {
          "duration": 0.15340893750000362,
          "durationTicks": 216,
          "midi": 88,
          "name": "E6",
          "ticks": 98064,
          "time": 69.647657625,
          "velocity": 0.30708661417322836
        },
        {
          "duration": 0.15340893750000362,
          "durationTicks": 216,
          "midi": 79,
          "name": "G5",
          "ticks": 98064,
          "time": 69.647657625,
          "velocity": 0.30708661417322836
        },
        {
          "duration": 0.15340893750000362,
          "durationTicks": 216,
          "midi": 67,
          "name": "G4",
          "ticks": 98064,
          "time": 69.647657625,
          "velocity": 0.30708661417322836
        },
        {
          "duration": 0.15340893750000362,
          "durationTicks": 216,
          "midi": 76,
          "name": "E5",
          "ticks": 98064,
          "time": 69.647657625,
          "velocity": 0.30708661417322836
        },
        {
          "duration": 0.15340893750000362,
          "durationTicks": 216,
          "midi": 67,
          "name": "G4",
          "ticks": 98088,
          "time": 69.6647030625,
          "velocity": 0.30708661417322836
        },
        {
          "duration": 0.15340893750000362,
          "durationTicks": 216,
          "midi": 79,
          "name": "G5",
          "ticks": 98088,
          "time": 69.6647030625,
          "velocity": 0.30708661417322836
        },
        {
          "duration": 0.15340893750000362,
          "durationTicks": 216,
          "midi": 88,
          "name": "E6",
          "ticks": 98088,
          "time": 69.6647030625,
          "velocity": 0.30708661417322836
        },
        {
          "duration": 0.15340893750000362,
          "durationTicks": 216,
          "midi": 76,
          "name": "E5",
          "ticks": 98088,
          "time": 69.6647030625,
          "velocity": 0.30708661417322836
        },
        {
          "duration": 0.1534089374999894,
          "durationTicks": 216,
          "midi": 64,
          "name": "E4",
          "ticks": 98208,
          "time": 69.74993025,
          "velocity": 0.30708661417322836
        },
        {
          "duration": 0.1534089374999894,
          "durationTicks": 216,
          "midi": 57,
          "name": "A3",
          "ticks": 98208,
          "time": 69.74993025,
          "velocity": 0.30708661417322836
        },
        {
          "duration": 0.1534089374999894,
          "durationTicks": 216,
          "midi": 64,
          "name": "E4",
          "ticks": 98208,
          "time": 69.74993025,
          "velocity": 0.30708661417322836
        },
        {
          "duration": 0.1534089374999894,
          "durationTicks": 216,
          "midi": 76,
          "name": "E5",
          "ticks": 98208,
          "time": 69.74993025,
          "velocity": 0.30708661417322836
        },
        {
          "duration": 0.1534089374999894,
          "durationTicks": 216,
          "midi": 72,
          "name": "C5",
          "ticks": 98208,
          "time": 69.74993025,
          "velocity": 0.30708661417322836
        },
        {
          "duration": 0.1534089374999894,
          "durationTicks": 216,
          "midi": 48,
          "name": "C3",
          "ticks": 98208,
          "time": 69.74993025,
          "velocity": 0.30708661417322836
        },
        {
          "duration": 0.1534089374999894,
          "durationTicks": 216,
          "midi": 48,
          "name": "C3",
          "ticks": 98208,
          "time": 69.74993025,
          "velocity": 0.30708661417322836
        },
        {
          "duration": 0.1534089374999894,
          "durationTicks": 216,
          "midi": 76,
          "name": "E5",
          "ticks": 98208,
          "time": 69.74993025,
          "velocity": 0.30708661417322836
        },
        {
          "duration": 0.1534089374999894,
          "durationTicks": 216,
          "midi": 57,
          "name": "A3",
          "ticks": 98208,
          "time": 69.74993025,
          "velocity": 0.30708661417322836
        },
        {
          "duration": 0.1534089374999894,
          "durationTicks": 216,
          "midi": 84,
          "name": "C6",
          "ticks": 98208,
          "time": 69.74993025,
          "velocity": 0.30708661417322836
        },
        {
          "duration": 0.1534089374999894,
          "durationTicks": 216,
          "midi": 72,
          "name": "C5",
          "ticks": 98208,
          "time": 69.74993025,
          "velocity": 0.30708661417322836
        },
        {
          "duration": 0.1534089374999894,
          "durationTicks": 216,
          "midi": 84,
          "name": "C6",
          "ticks": 98208,
          "time": 69.74993025,
          "velocity": 0.30708661417322836
        },
        {
          "duration": 0.15340893750000362,
          "durationTicks": 216,
          "midi": 72,
          "name": "C5",
          "ticks": 98232,
          "time": 69.7669756875,
          "velocity": 0.30708661417322836
        },
        {
          "duration": 0.15340893750000362,
          "durationTicks": 216,
          "midi": 48,
          "name": "C3",
          "ticks": 98232,
          "time": 69.7669756875,
          "velocity": 0.30708661417322836
        },
        {
          "duration": 0.15340893750000362,
          "durationTicks": 216,
          "midi": 57,
          "name": "A3",
          "ticks": 98232,
          "time": 69.7669756875,
          "velocity": 0.30708661417322836
        },
        {
          "duration": 0.15340893750000362,
          "durationTicks": 216,
          "midi": 84,
          "name": "C6",
          "ticks": 98232,
          "time": 69.7669756875,
          "velocity": 0.30708661417322836
        },
        {
          "duration": 0.15340893750000362,
          "durationTicks": 216,
          "midi": 76,
          "name": "E5",
          "ticks": 98232,
          "time": 69.7669756875,
          "velocity": 0.30708661417322836
        },
        {
          "duration": 0.15340893750000362,
          "durationTicks": 216,
          "midi": 64,
          "name": "E4",
          "ticks": 98232,
          "time": 69.7669756875,
          "velocity": 0.30708661417322836
        },
        {
          "duration": 0.1534089374999894,
          "durationTicks": 216,
          "midi": 60,
          "name": "C4",
          "ticks": 98352,
          "time": 69.852202875,
          "velocity": 0.30708661417322836
        },
        {
          "duration": 0.1534089374999894,
          "durationTicks": 216,
          "midi": 81,
          "name": "A5",
          "ticks": 98352,
          "time": 69.852202875,
          "velocity": 0.30708661417322836
        },
        {
          "duration": 0.1534089374999894,
          "durationTicks": 216,
          "midi": 72,
          "name": "C5",
          "ticks": 98352,
          "time": 69.852202875,
          "velocity": 0.30708661417322836
        },
        {
          "duration": 0.1534089374999894,
          "durationTicks": 216,
          "midi": 81,
          "name": "A5",
          "ticks": 98352,
          "time": 69.852202875,
          "velocity": 0.30708661417322836
        },
        {
          "duration": 0.1534089374999894,
          "durationTicks": 216,
          "midi": 60,
          "name": "C4",
          "ticks": 98352,
          "time": 69.852202875,
          "velocity": 0.30708661417322836
        },
        {
          "duration": 0.1534089374999894,
          "durationTicks": 216,
          "midi": 69,
          "name": "A4",
          "ticks": 98352,
          "time": 69.852202875,
          "velocity": 0.30708661417322836
        },
        {
          "duration": 0.1534089374999894,
          "durationTicks": 216,
          "midi": 69,
          "name": "A4",
          "ticks": 98352,
          "time": 69.852202875,
          "velocity": 0.30708661417322836
        },
        {
          "duration": 0.1534089374999894,
          "durationTicks": 216,
          "midi": 72,
          "name": "C5",
          "ticks": 98352,
          "time": 69.852202875,
          "velocity": 0.30708661417322836
        },
        {
          "duration": 0.1534089374999894,
          "durationTicks": 216,
          "midi": 81,
          "name": "A5",
          "ticks": 98376,
          "time": 69.8692483125,
          "velocity": 0.30708661417322836
        },
        {
          "duration": 0.1534089374999894,
          "durationTicks": 216,
          "midi": 72,
          "name": "C5",
          "ticks": 98376,
          "time": 69.8692483125,
          "velocity": 0.30708661417322836
        },
        {
          "duration": 0.1534089374999894,
          "durationTicks": 216,
          "midi": 69,
          "name": "A4",
          "ticks": 98376,
          "time": 69.8692483125,
          "velocity": 0.30708661417322836
        },
        {
          "duration": 0.1534089374999894,
          "durationTicks": 216,
          "midi": 60,
          "name": "C4",
          "ticks": 98376,
          "time": 69.8692483125,
          "velocity": 0.30708661417322836
        },
        {
          "duration": 0.15340893750000362,
          "durationTicks": 216,
          "midi": 52,
          "name": "E3",
          "ticks": 98496,
          "time": 69.9544755,
          "velocity": 0.30708661417322836
        },
        {
          "duration": 0.15340893750000362,
          "durationTicks": 216,
          "midi": 89,
          "name": "F6",
          "ticks": 98496,
          "time": 69.9544755,
          "velocity": 0.30708661417322836
        },
        {
          "duration": 0.15340893750000362,
          "durationTicks": 216,
          "midi": 89,
          "name": "F6",
          "ticks": 98496,
          "time": 69.9544755,
          "velocity": 0.30708661417322836
        },
        {
          "duration": 0.15340893750000362,
          "durationTicks": 216,
          "midi": 77,
          "name": "F5",
          "ticks": 98496,
          "time": 69.9544755,
          "velocity": 0.30708661417322836
        },
        {
          "duration": 0.15340893750000362,
          "durationTicks": 216,
          "midi": 40,
          "name": "E2",
          "ticks": 98496,
          "time": 69.9544755,
          "velocity": 0.30708661417322836
        },
        {
          "duration": 0.15340893750000362,
          "durationTicks": 216,
          "midi": 52,
          "name": "E3",
          "ticks": 98496,
          "time": 69.9544755,
          "velocity": 0.30708661417322836
        },
        {
          "duration": 0.15340893750000362,
          "durationTicks": 216,
          "midi": 40,
          "name": "E2",
          "ticks": 98496,
          "time": 69.9544755,
          "velocity": 0.30708661417322836
        },
        {
          "duration": 0.15340893750000362,
          "durationTicks": 216,
          "midi": 81,
          "name": "A5",
          "ticks": 98496,
          "time": 69.9544755,
          "velocity": 0.30708661417322836
        },
        {
          "duration": 0.15340893750000362,
          "durationTicks": 216,
          "midi": 69,
          "name": "A4",
          "ticks": 98496,
          "time": 69.9544755,
          "velocity": 0.30708661417322836
        },
        {
          "duration": 0.15340893750000362,
          "durationTicks": 216,
          "midi": 77,
          "name": "F5",
          "ticks": 98496,
          "time": 69.9544755,
          "velocity": 0.30708661417322836
        },
        {
          "duration": 0.15340893750000362,
          "durationTicks": 216,
          "midi": 69,
          "name": "A4",
          "ticks": 98496,
          "time": 69.9544755,
          "velocity": 0.30708661417322836
        },
        {
          "duration": 0.15340893750000362,
          "durationTicks": 216,
          "midi": 81,
          "name": "A5",
          "ticks": 98496,
          "time": 69.9544755,
          "velocity": 0.30708661417322836
        },
        {
          "duration": 0.1534089374999894,
          "durationTicks": 216,
          "midi": 52,
          "name": "E3",
          "ticks": 98520,
          "time": 69.9715209375,
          "velocity": 0.30708661417322836
        },
        {
          "duration": 0.1534089374999894,
          "durationTicks": 216,
          "midi": 77,
          "name": "F5",
          "ticks": 98520,
          "time": 69.9715209375,
          "velocity": 0.30708661417322836
        },
        {
          "duration": 0.1534089374999894,
          "durationTicks": 216,
          "midi": 40,
          "name": "E2",
          "ticks": 98520,
          "time": 69.9715209375,
          "velocity": 0.30708661417322836
        },
        {
          "duration": 0.1534089374999894,
          "durationTicks": 216,
          "midi": 69,
          "name": "A4",
          "ticks": 98520,
          "time": 69.9715209375,
          "velocity": 0.30708661417322836
        },
        {
          "duration": 0.1534089374999894,
          "durationTicks": 216,
          "midi": 81,
          "name": "A5",
          "ticks": 98520,
          "time": 69.9715209375,
          "velocity": 0.30708661417322836
        },
        {
          "duration": 0.1534089374999894,
          "durationTicks": 216,
          "midi": 89,
          "name": "F6",
          "ticks": 98520,
          "time": 69.9715209375,
          "velocity": 0.30708661417322836
        },
        {
          "duration": 0.15340893750000362,
          "durationTicks": 216,
          "midi": 79,
          "name": "G5",
          "ticks": 98640,
          "time": 70.056748125,
          "velocity": 0.30708661417322836
        },
        {
          "duration": 0.15340893750000362,
          "durationTicks": 216,
          "midi": 67,
          "name": "G4",
          "ticks": 98640,
          "time": 70.056748125,
          "velocity": 0.30708661417322836
        },
        {
          "duration": 0.15340893750000362,
          "durationTicks": 216,
          "midi": 67,
          "name": "G4",
          "ticks": 98640,
          "time": 70.056748125,
          "velocity": 0.30708661417322836
        },
        {
          "duration": 0.15340893750000362,
          "durationTicks": 216,
          "midi": 76,
          "name": "E5",
          "ticks": 98640,
          "time": 70.056748125,
          "velocity": 0.30708661417322836
        },
        {
          "duration": 0.15340893750000362,
          "durationTicks": 216,
          "midi": 79,
          "name": "G5",
          "ticks": 98640,
          "time": 70.056748125,
          "velocity": 0.30708661417322836
        },
        {
          "duration": 0.15340893750000362,
          "durationTicks": 216,
          "midi": 88,
          "name": "E6",
          "ticks": 98640,
          "time": 70.056748125,
          "velocity": 0.30708661417322836
        },
        {
          "duration": 0.15340893750000362,
          "durationTicks": 216,
          "midi": 76,
          "name": "E5",
          "ticks": 98640,
          "time": 70.056748125,
          "velocity": 0.30708661417322836
        },
        {
          "duration": 0.15340893750000362,
          "durationTicks": 216,
          "midi": 88,
          "name": "E6",
          "ticks": 98640,
          "time": 70.056748125,
          "velocity": 0.30708661417322836
        },
        {
          "duration": 0.15340893750000362,
          "durationTicks": 216,
          "midi": 67,
          "name": "G4",
          "ticks": 98664,
          "time": 70.0737935625,
          "velocity": 0.30708661417322836
        },
        {
          "duration": 0.15340893750000362,
          "durationTicks": 216,
          "midi": 88,
          "name": "E6",
          "ticks": 98664,
          "time": 70.0737935625,
          "velocity": 0.30708661417322836
        },
        {
          "duration": 0.15340893750000362,
          "durationTicks": 216,
          "midi": 79,
          "name": "G5",
          "ticks": 98664,
          "time": 70.0737935625,
          "velocity": 0.30708661417322836
        },
        {
          "duration": 0.15340893750000362,
          "durationTicks": 216,
          "midi": 76,
          "name": "E5",
          "ticks": 98664,
          "time": 70.0737935625,
          "velocity": 0.30708661417322836
        },
        {
          "duration": 0.15340893750000362,
          "durationTicks": 216,
          "midi": 86,
          "name": "D6",
          "ticks": 98784,
          "time": 70.15902075,
          "velocity": 0.30708661417322836
        },
        {
          "duration": 0.15340893750000362,
          "durationTicks": 216,
          "midi": 42,
          "name": "F#2",
          "ticks": 98784,
          "time": 70.15902075,
          "velocity": 0.30708661417322836
        },
        {
          "duration": 0.15340893750000362,
          "durationTicks": 216,
          "midi": 42,
          "name": "F#2",
          "ticks": 98784,
          "time": 70.15902075,
          "velocity": 0.30708661417322836
        },
        {
          "duration": 0.15340893750000362,
          "durationTicks": 216,
          "midi": 86,
          "name": "D6",
          "ticks": 98784,
          "time": 70.15902075,
          "velocity": 0.30708661417322836
        },
        {
          "duration": 0.15340893750000362,
          "durationTicks": 216,
          "midi": 77,
          "name": "F5",
          "ticks": 98784,
          "time": 70.15902075,
          "velocity": 0.30708661417322836
        },
        {
          "duration": 0.15340893750000362,
          "durationTicks": 216,
          "midi": 65,
          "name": "F4",
          "ticks": 98784,
          "time": 70.15902075,
          "velocity": 0.30708661417322836
        },
        {
          "duration": 0.15340893750000362,
          "durationTicks": 216,
          "midi": 74,
          "name": "D5",
          "ticks": 98784,
          "time": 70.15902075,
          "velocity": 0.30708661417322836
        },
        {
          "duration": 0.15340893750000362,
          "durationTicks": 216,
          "midi": 54,
          "name": "F#3",
          "ticks": 98784,
          "time": 70.15902075,
          "velocity": 0.30708661417322836
        },
        {
          "duration": 0.15340893750000362,
          "durationTicks": 216,
          "midi": 54,
          "name": "F#3",
          "ticks": 98784,
          "time": 70.15902075,
          "velocity": 0.30708661417322836
        },
        {
          "duration": 0.15340893750000362,
          "durationTicks": 216,
          "midi": 65,
          "name": "F4",
          "ticks": 98784,
          "time": 70.15902075,
          "velocity": 0.30708661417322836
        },
        {
          "duration": 0.15340893750000362,
          "durationTicks": 216,
          "midi": 77,
          "name": "F5",
          "ticks": 98784,
          "time": 70.15902075,
          "velocity": 0.30708661417322836
        },
        {
          "duration": 0.15340893750000362,
          "durationTicks": 216,
          "midi": 74,
          "name": "D5",
          "ticks": 98784,
          "time": 70.15902075,
          "velocity": 0.30708661417322836
        },
        {
          "duration": 0.15340893750000362,
          "durationTicks": 216,
          "midi": 54,
          "name": "F#3",
          "ticks": 98808,
          "time": 70.1760661875,
          "velocity": 0.30708661417322836
        },
        {
          "duration": 0.15340893750000362,
          "durationTicks": 216,
          "midi": 77,
          "name": "F5",
          "ticks": 98808,
          "time": 70.1760661875,
          "velocity": 0.30708661417322836
        },
        {
          "duration": 0.15340893750000362,
          "durationTicks": 216,
          "midi": 86,
          "name": "D6",
          "ticks": 98808,
          "time": 70.1760661875,
          "velocity": 0.30708661417322836
        },
        {
          "duration": 0.15340893750000362,
          "durationTicks": 216,
          "midi": 74,
          "name": "D5",
          "ticks": 98808,
          "time": 70.1760661875,
          "velocity": 0.30708661417322836
        },
        {
          "duration": 0.15340893750000362,
          "durationTicks": 216,
          "midi": 42,
          "name": "F#2",
          "ticks": 98808,
          "time": 70.1760661875,
          "velocity": 0.30708661417322836
        },
        {
          "duration": 0.15340893750000362,
          "durationTicks": 216,
          "midi": 65,
          "name": "F4",
          "ticks": 98808,
          "time": 70.1760661875,
          "velocity": 0.30708661417322836
        },
        {
          "duration": 0.15340893750000362,
          "durationTicks": 216,
          "midi": 72,
          "name": "C5",
          "ticks": 98928,
          "time": 70.261293375,
          "velocity": 0.30708661417322836
        },
        {
          "duration": 0.15340893750000362,
          "durationTicks": 216,
          "midi": 76,
          "name": "E5",
          "ticks": 98928,
          "time": 70.261293375,
          "velocity": 0.30708661417322836
        },
        {
          "duration": 0.15340893750000362,
          "durationTicks": 216,
          "midi": 84,
          "name": "C6",
          "ticks": 98928,
          "time": 70.261293375,
          "velocity": 0.30708661417322836
        },
        {
          "duration": 0.15340893750000362,
          "durationTicks": 216,
          "midi": 72,
          "name": "C5",
          "ticks": 98928,
          "time": 70.261293375,
          "velocity": 0.30708661417322836
        },
        {
          "duration": 0.15340893750000362,
          "durationTicks": 216,
          "midi": 64,
          "name": "E4",
          "ticks": 98928,
          "time": 70.261293375,
          "velocity": 0.30708661417322836
        },
        {
          "duration": 0.15340893750000362,
          "durationTicks": 216,
          "midi": 64,
          "name": "E4",
          "ticks": 98928,
          "time": 70.261293375,
          "velocity": 0.30708661417322836
        },
        {
          "duration": 0.15340893750000362,
          "durationTicks": 216,
          "midi": 76,
          "name": "E5",
          "ticks": 98928,
          "time": 70.261293375,
          "velocity": 0.30708661417322836
        },
        {
          "duration": 0.15340893750000362,
          "durationTicks": 216,
          "midi": 84,
          "name": "C6",
          "ticks": 98928,
          "time": 70.261293375,
          "velocity": 0.30708661417322836
        },
        {
          "duration": 0.15340893750000362,
          "durationTicks": 216,
          "midi": 84,
          "name": "C6",
          "ticks": 98952,
          "time": 70.2783388125,
          "velocity": 0.30708661417322836
        },
        {
          "duration": 0.15340893750000362,
          "durationTicks": 216,
          "midi": 64,
          "name": "E4",
          "ticks": 98952,
          "time": 70.2783388125,
          "velocity": 0.30708661417322836
        },
        {
          "duration": 0.15340893750000362,
          "durationTicks": 216,
          "midi": 76,
          "name": "E5",
          "ticks": 98952,
          "time": 70.2783388125,
          "velocity": 0.30708661417322836
        },
        {
          "duration": 0.15340893750000362,
          "durationTicks": 216,
          "midi": 72,
          "name": "C5",
          "ticks": 98952,
          "time": 70.2783388125,
          "velocity": 0.30708661417322836
        },
        {
          "duration": 0.1534089374999894,
          "durationTicks": 216,
          "midi": 56,
          "name": "G#3",
          "ticks": 99072,
          "time": 70.363566,
          "velocity": 0.30708661417322836
        },
        {
          "duration": 0.1534089374999894,
          "durationTicks": 216,
          "midi": 83,
          "name": "B5",
          "ticks": 99072,
          "time": 70.363566,
          "velocity": 0.30708661417322836
        },
        {
          "duration": 0.1534089374999894,
          "durationTicks": 216,
          "midi": 44,
          "name": "G#2",
          "ticks": 99072,
          "time": 70.363566,
          "velocity": 0.30708661417322836
        },
        {
          "duration": 0.1534089374999894,
          "durationTicks": 216,
          "midi": 71,
          "name": "B4",
          "ticks": 99072,
          "time": 70.363566,
          "velocity": 0.30708661417322836
        },
        {
          "duration": 0.1534089374999894,
          "durationTicks": 216,
          "midi": 74,
          "name": "D5",
          "ticks": 99072,
          "time": 70.363566,
          "velocity": 0.30708661417322836
        },
        {
          "duration": 0.1534089374999894,
          "durationTicks": 216,
          "midi": 83,
          "name": "B5",
          "ticks": 99072,
          "time": 70.363566,
          "velocity": 0.30708661417322836
        },
        {
          "duration": 0.1534089374999894,
          "durationTicks": 216,
          "midi": 74,
          "name": "D5",
          "ticks": 99072,
          "time": 70.363566,
          "velocity": 0.30708661417322836
        },
        {
          "duration": 0.1534089374999894,
          "durationTicks": 216,
          "midi": 56,
          "name": "G#3",
          "ticks": 99072,
          "time": 70.363566,
          "velocity": 0.30708661417322836
        },
        {
          "duration": 0.1534089374999894,
          "durationTicks": 216,
          "midi": 62,
          "name": "D4",
          "ticks": 99072,
          "time": 70.363566,
          "velocity": 0.30708661417322836
        },
        {
          "duration": 0.1534089374999894,
          "durationTicks": 216,
          "midi": 62,
          "name": "D4",
          "ticks": 99072,
          "time": 70.363566,
          "velocity": 0.30708661417322836
        },
        {
          "duration": 0.1534089374999894,
          "durationTicks": 216,
          "midi": 44,
          "name": "G#2",
          "ticks": 99072,
          "time": 70.363566,
          "velocity": 0.30708661417322836
        },
        {
          "duration": 0.1534089374999894,
          "durationTicks": 216,
          "midi": 71,
          "name": "B4",
          "ticks": 99072,
          "time": 70.363566,
          "velocity": 0.30708661417322836
        },
        {
          "duration": 0.15340893750000362,
          "durationTicks": 216,
          "midi": 71,
          "name": "B4",
          "ticks": 99096,
          "time": 70.3806114375,
          "velocity": 0.30708661417322836
        },
        {
          "duration": 0.15340893750000362,
          "durationTicks": 216,
          "midi": 62,
          "name": "D4",
          "ticks": 99096,
          "time": 70.3806114375,
          "velocity": 0.30708661417322836
        },
        {
          "duration": 0.15340893750000362,
          "durationTicks": 216,
          "midi": 74,
          "name": "D5",
          "ticks": 99096,
          "time": 70.3806114375,
          "velocity": 0.30708661417322836
        },
        {
          "duration": 0.15340893750000362,
          "durationTicks": 216,
          "midi": 44,
          "name": "G#2",
          "ticks": 99096,
          "time": 70.3806114375,
          "velocity": 0.30708661417322836
        },
        {
          "duration": 0.15340893750000362,
          "durationTicks": 216,
          "midi": 56,
          "name": "G#3",
          "ticks": 99096,
          "time": 70.3806114375,
          "velocity": 0.30708661417322836
        },
        {
          "duration": 0.15340893750000362,
          "durationTicks": 216,
          "midi": 83,
          "name": "B5",
          "ticks": 99096,
          "time": 70.3806114375,
          "velocity": 0.30708661417322836
        },
        {
          "duration": 0.1534089374999894,
          "durationTicks": 216,
          "midi": 60,
          "name": "C4",
          "ticks": 99216,
          "time": 70.465838625,
          "velocity": 0.30708661417322836
        },
        {
          "duration": 0.1534089374999894,
          "durationTicks": 216,
          "midi": 81,
          "name": "A5",
          "ticks": 99216,
          "time": 70.465838625,
          "velocity": 0.30708661417322836
        },
        {
          "duration": 0.1534089374999894,
          "durationTicks": 216,
          "midi": 72,
          "name": "C5",
          "ticks": 99216,
          "time": 70.465838625,
          "velocity": 0.30708661417322836
        },
        {
          "duration": 0.1534089374999894,
          "durationTicks": 216,
          "midi": 69,
          "name": "A4",
          "ticks": 99216,
          "time": 70.465838625,
          "velocity": 0.30708661417322836
        },
        {
          "duration": 0.1534089374999894,
          "durationTicks": 216,
          "midi": 60,
          "name": "C4",
          "ticks": 99216,
          "time": 70.465838625,
          "velocity": 0.30708661417322836
        },
        {
          "duration": 0.1534089374999894,
          "durationTicks": 216,
          "midi": 69,
          "name": "A4",
          "ticks": 99216,
          "time": 70.465838625,
          "velocity": 0.30708661417322836
        },
        {
          "duration": 0.1534089374999894,
          "durationTicks": 216,
          "midi": 72,
          "name": "C5",
          "ticks": 99216,
          "time": 70.465838625,
          "velocity": 0.30708661417322836
        },
        {
          "duration": 0.1534089374999894,
          "durationTicks": 216,
          "midi": 81,
          "name": "A5",
          "ticks": 99216,
          "time": 70.465838625,
          "velocity": 0.30708661417322836
        },
        {
          "duration": 0.1534089374999894,
          "durationTicks": 216,
          "midi": 69,
          "name": "A4",
          "ticks": 99240,
          "time": 70.4828840625,
          "velocity": 0.30708661417322836
        },
        {
          "duration": 0.1534089374999894,
          "durationTicks": 216,
          "midi": 60,
          "name": "C4",
          "ticks": 99240,
          "time": 70.4828840625,
          "velocity": 0.30708661417322836
        },
        {
          "duration": 0.1534089374999894,
          "durationTicks": 216,
          "midi": 72,
          "name": "C5",
          "ticks": 99240,
          "time": 70.4828840625,
          "velocity": 0.30708661417322836
        },
        {
          "duration": 0.1534089374999894,
          "durationTicks": 216,
          "midi": 81,
          "name": "A5",
          "ticks": 99240,
          "time": 70.4828840625,
          "velocity": 0.30708661417322836
        },
        {
          "duration": 0.15340893750000362,
          "durationTicks": 216,
          "midi": 59,
          "name": "B3",
          "ticks": 99360,
          "time": 70.56811125,
          "velocity": 0.30708661417322836
        },
        {
          "duration": 0.15340893750000362,
          "durationTicks": 216,
          "midi": 40,
          "name": "E2",
          "ticks": 99360,
          "time": 70.56811125,
          "velocity": 0.30708661417322836
        },
        {
          "duration": 0.15340893750000362,
          "durationTicks": 216,
          "midi": 52,
          "name": "E3",
          "ticks": 99360,
          "time": 70.56811125,
          "velocity": 0.30708661417322836
        },
        {
          "duration": 0.15340893750000362,
          "durationTicks": 216,
          "midi": 71,
          "name": "B4",
          "ticks": 99360,
          "time": 70.56811125,
          "velocity": 0.30708661417322836
        },
        {
          "duration": 0.15340893750000362,
          "durationTicks": 216,
          "midi": 59,
          "name": "B3",
          "ticks": 99360,
          "time": 70.56811125,
          "velocity": 0.30708661417322836
        },
        {
          "duration": 0.15340893750000362,
          "durationTicks": 216,
          "midi": 40,
          "name": "E2",
          "ticks": 99360,
          "time": 70.56811125,
          "velocity": 0.30708661417322836
        },
        {
          "duration": 0.15340893750000362,
          "durationTicks": 216,
          "midi": 71,
          "name": "B4",
          "ticks": 99360,
          "time": 70.56811125,
          "velocity": 0.30708661417322836
        },
        {
          "duration": 0.15340893750000362,
          "durationTicks": 216,
          "midi": 80,
          "name": "G#5",
          "ticks": 99360,
          "time": 70.56811125,
          "velocity": 0.30708661417322836
        },
        {
          "duration": 0.15340893750000362,
          "durationTicks": 216,
          "midi": 52,
          "name": "E3",
          "ticks": 99360,
          "time": 70.56811125,
          "velocity": 0.30708661417322836
        },
        {
          "duration": 0.15340893750000362,
          "durationTicks": 216,
          "midi": 80,
          "name": "G#5",
          "ticks": 99360,
          "time": 70.56811125,
          "velocity": 0.30708661417322836
        },
        {
          "duration": 0.15340893750000362,
          "durationTicks": 216,
          "midi": 68,
          "name": "G#4",
          "ticks": 99360,
          "time": 70.56811125,
          "velocity": 0.30708661417322836
        },
        {
          "duration": 0.15340893750000362,
          "durationTicks": 216,
          "midi": 68,
          "name": "G#4",
          "ticks": 99360,
          "time": 70.56811125,
          "velocity": 0.30708661417322836
        },
        {
          "duration": 0.1534089374999894,
          "durationTicks": 216,
          "midi": 71,
          "name": "B4",
          "ticks": 99384,
          "time": 70.5851566875,
          "velocity": 0.30708661417322836
        },
        {
          "duration": 0.1534089374999894,
          "durationTicks": 216,
          "midi": 80,
          "name": "G#5",
          "ticks": 99384,
          "time": 70.5851566875,
          "velocity": 0.30708661417322836
        },
        {
          "duration": 0.1534089374999894,
          "durationTicks": 216,
          "midi": 68,
          "name": "G#4",
          "ticks": 99384,
          "time": 70.5851566875,
          "velocity": 0.30708661417322836
        },
        {
          "duration": 0.1534089374999894,
          "durationTicks": 216,
          "midi": 59,
          "name": "B3",
          "ticks": 99384,
          "time": 70.5851566875,
          "velocity": 0.30708661417322836
        },
        {
          "duration": 0.1534089374999894,
          "durationTicks": 216,
          "midi": 40,
          "name": "E2",
          "ticks": 99384,
          "time": 70.5851566875,
          "velocity": 0.30708661417322836
        },
        {
          "duration": 0.1534089374999894,
          "durationTicks": 216,
          "midi": 52,
          "name": "E3",
          "ticks": 99384,
          "time": 70.5851566875,
          "velocity": 0.30708661417322836
        },
        {
          "duration": 0.15340893750000362,
          "durationTicks": 216,
          "midi": 62,
          "name": "D4",
          "ticks": 99504,
          "time": 70.670383875,
          "velocity": 0.30708661417322836
        },
        {
          "duration": 0.15340893750000362,
          "durationTicks": 216,
          "midi": 71,
          "name": "B4",
          "ticks": 99504,
          "time": 70.670383875,
          "velocity": 0.30708661417322836
        },
        {
          "duration": 0.15340893750000362,
          "durationTicks": 216,
          "midi": 83,
          "name": "B5",
          "ticks": 99504,
          "time": 70.670383875,
          "velocity": 0.30708661417322836
        },
        {
          "duration": 0.15340893750000362,
          "durationTicks": 216,
          "midi": 83,
          "name": "B5",
          "ticks": 99504,
          "time": 70.670383875,
          "velocity": 0.30708661417322836
        },
        {
          "duration": 0.15340893750000362,
          "durationTicks": 216,
          "midi": 62,
          "name": "D4",
          "ticks": 99504,
          "time": 70.670383875,
          "velocity": 0.30708661417322836
        },
        {
          "duration": 0.15340893750000362,
          "durationTicks": 216,
          "midi": 74,
          "name": "D5",
          "ticks": 99504,
          "time": 70.670383875,
          "velocity": 0.30708661417322836
        },
        {
          "duration": 0.15340893750000362,
          "durationTicks": 216,
          "midi": 74,
          "name": "D5",
          "ticks": 99504,
          "time": 70.670383875,
          "velocity": 0.30708661417322836
        },
        {
          "duration": 0.15340893750000362,
          "durationTicks": 216,
          "midi": 71,
          "name": "B4",
          "ticks": 99504,
          "time": 70.670383875,
          "velocity": 0.30708661417322836
        },
        {
          "duration": 0.15340893750000362,
          "durationTicks": 216,
          "midi": 74,
          "name": "D5",
          "ticks": 99528,
          "time": 70.6874293125,
          "velocity": 0.30708661417322836
        },
        {
          "duration": 0.15340893750000362,
          "durationTicks": 216,
          "midi": 71,
          "name": "B4",
          "ticks": 99528,
          "time": 70.6874293125,
          "velocity": 0.30708661417322836
        },
        {
          "duration": 0.15340893750000362,
          "durationTicks": 216,
          "midi": 62,
          "name": "D4",
          "ticks": 99528,
          "time": 70.6874293125,
          "velocity": 0.30708661417322836
        },
        {
          "duration": 0.15340893750000362,
          "durationTicks": 216,
          "midi": 83,
          "name": "B5",
          "ticks": 99528,
          "time": 70.6874293125,
          "velocity": 0.30708661417322836
        },
        {
          "duration": 0.22159068749999733,
          "durationTicks": 312,
          "midi": 57,
          "name": "A3",
          "ticks": 99648,
          "time": 70.7726565,
          "velocity": 0.30708661417322836
        },
        {
          "duration": 0.22159068749999733,
          "durationTicks": 312,
          "midi": 69,
          "name": "A4",
          "ticks": 99648,
          "time": 70.7726565,
          "velocity": 0.30708661417322836
        },
        {
          "duration": 0.22159068749999733,
          "durationTicks": 312,
          "midi": 81,
          "name": "A5",
          "ticks": 99648,
          "time": 70.7726565,
          "velocity": 0.30708661417322836
        },
        {
          "duration": 0.22159068749999733,
          "durationTicks": 312,
          "midi": 45,
          "name": "A2",
          "ticks": 99648,
          "time": 70.7726565,
          "velocity": 0.30708661417322836
        },
        {
          "duration": 0.22159068749999733,
          "durationTicks": 312,
          "midi": 81,
          "name": "A5",
          "ticks": 99648,
          "time": 70.7726565,
          "velocity": 0.30708661417322836
        },
        {
          "duration": 0.22159068749999733,
          "durationTicks": 312,
          "midi": 57,
          "name": "A3",
          "ticks": 99648,
          "time": 70.7726565,
          "velocity": 0.30708661417322836
        },
        {
          "duration": 0.22159068749999733,
          "durationTicks": 312,
          "midi": 60,
          "name": "C4",
          "ticks": 99648,
          "time": 70.7726565,
          "velocity": 0.30708661417322836
        },
        {
          "duration": 0.22159068749999733,
          "durationTicks": 312,
          "midi": 72,
          "name": "C5",
          "ticks": 99648,
          "time": 70.7726565,
          "velocity": 0.30708661417322836
        },
        {
          "duration": 0.22159068749999733,
          "durationTicks": 312,
          "midi": 72,
          "name": "C5",
          "ticks": 99648,
          "time": 70.7726565,
          "velocity": 0.30708661417322836
        },
        {
          "duration": 0.22159068749999733,
          "durationTicks": 312,
          "midi": 45,
          "name": "A2",
          "ticks": 99648,
          "time": 70.7726565,
          "velocity": 0.30708661417322836
        },
        {
          "duration": 0.22159068749999733,
          "durationTicks": 312,
          "midi": 69,
          "name": "A4",
          "ticks": 99648,
          "time": 70.7726565,
          "velocity": 0.30708661417322836
        },
        {
          "duration": 0.22159068749999733,
          "durationTicks": 312,
          "midi": 60,
          "name": "C4",
          "ticks": 99648,
          "time": 70.7726565,
          "velocity": 0.30708661417322836
        },
        {
          "duration": 0.22159068749999733,
          "durationTicks": 312,
          "midi": 45,
          "name": "A2",
          "ticks": 99672,
          "time": 70.7897019375,
          "velocity": 0.30708661417322836
        },
        {
          "duration": 0.22159068749999733,
          "durationTicks": 312,
          "midi": 72,
          "name": "C5",
          "ticks": 99672,
          "time": 70.7897019375,
          "velocity": 0.30708661417322836
        },
        {
          "duration": 0.22159068749999733,
          "durationTicks": 312,
          "midi": 69,
          "name": "A4",
          "ticks": 99672,
          "time": 70.7897019375,
          "velocity": 0.30708661417322836
        },
        {
          "duration": 0.22159068749999733,
          "durationTicks": 312,
          "midi": 60,
          "name": "C4",
          "ticks": 99672,
          "time": 70.7897019375,
          "velocity": 0.30708661417322836
        },
        {
          "duration": 0.22159068749999733,
          "durationTicks": 312,
          "midi": 57,
          "name": "A3",
          "ticks": 99672,
          "time": 70.7897019375,
          "velocity": 0.30708661417322836
        },
        {
          "duration": 0.22159068749999733,
          "durationTicks": 312,
          "midi": 81,
          "name": "A5",
          "ticks": 99672,
          "time": 70.7897019375,
          "velocity": 0.30708661417322836
        },
        {
          "duration": 0.8352264374999976,
          "durationTicks": 1176,
          "midi": 45,
          "name": "A2",
          "ticks": 100848,
          "time": 71.624928375,
          "velocity": 0.30708661417322836
        },
        {
          "duration": 0.8352264374999976,
          "durationTicks": 1176,
          "midi": 33,
          "name": "A1",
          "ticks": 100848,
          "time": 71.624928375,
          "velocity": 0.30708661417322836
        },
        {
          "duration": 0.8352264374999976,
          "durationTicks": 1176,
          "midi": 33,
          "name": "A1",
          "ticks": 100848,
          "time": 71.624928375,
          "velocity": 0.30708661417322836
        },
        {
          "duration": 0.8352264374999976,
          "durationTicks": 1176,
          "midi": 45,
          "name": "A2",
          "ticks": 100848,
          "time": 71.624928375,
          "velocity": 0.30708661417322836
        },
        {
          "duration": 0.8352264374999976,
          "durationTicks": 1176,
          "midi": 33,
          "name": "A1",
          "ticks": 100872,
          "time": 71.6419738125,
          "velocity": 0.30708661417322836
        },
        {
          "duration": 0.8352264374999976,
          "durationTicks": 1176,
          "midi": 45,
          "name": "A2",
          "ticks": 100872,
          "time": 71.6419738125,
          "velocity": 0.30708661417322836
        },
        {
          "duration": 0.0852271874999957,
          "durationTicks": 120,
          "midi": 48,
          "name": "C3",
          "ticks": 102000,
          "time": 72.443109375,
          "velocity": 0.30708661417322836
        },
        {
          "duration": 0.0852271874999957,
          "durationTicks": 120,
          "midi": 48,
          "name": "C3",
          "ticks": 102000,
          "time": 72.443109375,
          "velocity": 0.30708661417322836
        },
        {
          "duration": 0.0852271874999957,
          "durationTicks": 120,
          "midi": 52,
          "name": "E3",
          "ticks": 102000,
          "time": 72.443109375,
          "velocity": 0.30708661417322836
        },
        {
          "duration": 0.0852271874999957,
          "durationTicks": 120,
          "midi": 52,
          "name": "E3",
          "ticks": 102000,
          "time": 72.443109375,
          "velocity": 0.30708661417322836
        },
        {
          "duration": 0.0852271875000099,
          "durationTicks": 120,
          "midi": 48,
          "name": "C3",
          "ticks": 102024,
          "time": 72.4601548125,
          "velocity": 0.30708661417322836
        },
        {
          "duration": 0.0852271875000099,
          "durationTicks": 120,
          "midi": 52,
          "name": "E3",
          "ticks": 102024,
          "time": 72.4601548125,
          "velocity": 0.30708661417322836
        },
        {
          "duration": 0.0852271874999957,
          "durationTicks": 120,
          "midi": 88,
          "name": "E6",
          "ticks": 102576,
          "time": 72.852199875,
          "velocity": 0.30708661417322836
        },
        {
          "duration": 0.0852271874999957,
          "durationTicks": 120,
          "midi": 57,
          "name": "A3",
          "ticks": 102576,
          "time": 72.852199875,
          "velocity": 0.30708661417322836
        },
        {
          "duration": 0.0852271874999957,
          "durationTicks": 120,
          "midi": 93,
          "name": "A6",
          "ticks": 102576,
          "time": 72.852199875,
          "velocity": 0.30708661417322836
        },
        {
          "duration": 0.0852271874999957,
          "durationTicks": 120,
          "midi": 72,
          "name": "C5",
          "ticks": 102576,
          "time": 72.852199875,
          "velocity": 0.30708661417322836
        },
        {
          "duration": 0.0852271874999957,
          "durationTicks": 120,
          "midi": 88,
          "name": "E6",
          "ticks": 102576,
          "time": 72.852199875,
          "velocity": 0.30708661417322836
        },
        {
          "duration": 0.0852271874999957,
          "durationTicks": 120,
          "midi": 84,
          "name": "C6",
          "ticks": 102576,
          "time": 72.852199875,
          "velocity": 0.30708661417322836
        },
        {
          "duration": 0.0852271874999957,
          "durationTicks": 120,
          "midi": 64,
          "name": "E4",
          "ticks": 102576,
          "time": 72.852199875,
          "velocity": 0.30708661417322836
        },
        {
          "duration": 0.0852271874999957,
          "durationTicks": 120,
          "midi": 76,
          "name": "E5",
          "ticks": 102576,
          "time": 72.852199875,
          "velocity": 0.30708661417322836
        },
        {
          "duration": 0.0852271874999957,
          "durationTicks": 120,
          "midi": 95,
          "name": "B6",
          "ticks": 102576,
          "time": 72.852199875,
          "velocity": 0.30708661417322836
        },
        {
          "duration": 0.0852271874999957,
          "durationTicks": 120,
          "midi": 93,
          "name": "A6",
          "ticks": 102576,
          "time": 72.852199875,
          "velocity": 0.30708661417322836
        },
        {
          "duration": 0.0852271874999957,
          "durationTicks": 120,
          "midi": 60,
          "name": "C4",
          "ticks": 102576,
          "time": 72.852199875,
          "velocity": 0.30708661417322836
        },
        {
          "duration": 0.0852271874999957,
          "durationTicks": 120,
          "midi": 81,
          "name": "A5",
          "ticks": 102576,
          "time": 72.852199875,
          "velocity": 0.30708661417322836
        },
        {
          "duration": 0.0852271874999957,
          "durationTicks": 120,
          "midi": 71,
          "name": "B4",
          "ticks": 102576,
          "time": 72.852199875,
          "velocity": 0.30708661417322836
        },
        {
          "duration": 0.0852271874999957,
          "durationTicks": 120,
          "midi": 60,
          "name": "C4",
          "ticks": 102576,
          "time": 72.852199875,
          "velocity": 0.30708661417322836
        },
        {
          "duration": 0.0852271874999957,
          "durationTicks": 120,
          "midi": 83,
          "name": "B5",
          "ticks": 102576,
          "time": 72.852199875,
          "velocity": 0.30708661417322836
        },
        {
          "duration": 0.0852271874999957,
          "durationTicks": 120,
          "midi": 95,
          "name": "B6",
          "ticks": 102576,
          "time": 72.852199875,
          "velocity": 0.30708661417322836
        },
        {
          "duration": 0.0852271874999957,
          "durationTicks": 120,
          "midi": 59,
          "name": "B3",
          "ticks": 102576,
          "time": 72.852199875,
          "velocity": 0.30708661417322836
        },
        {
          "duration": 0.0852271874999957,
          "durationTicks": 120,
          "midi": 64,
          "name": "E4",
          "ticks": 102576,
          "time": 72.852199875,
          "velocity": 0.30708661417322836
        },
        {
          "duration": 0.0852271874999957,
          "durationTicks": 120,
          "midi": 83,
          "name": "B5",
          "ticks": 102576,
          "time": 72.852199875,
          "velocity": 0.30708661417322836
        },
        {
          "duration": 0.0852271874999957,
          "durationTicks": 120,
          "midi": 71,
          "name": "B4",
          "ticks": 102576,
          "time": 72.852199875,
          "velocity": 0.30708661417322836
        },
        {
          "duration": 0.0852271874999957,
          "durationTicks": 120,
          "midi": 81,
          "name": "A5",
          "ticks": 102576,
          "time": 72.852199875,
          "velocity": 0.30708661417322836
        },
        {
          "duration": 0.0852271874999957,
          "durationTicks": 120,
          "midi": 72,
          "name": "C5",
          "ticks": 102576,
          "time": 72.852199875,
          "velocity": 0.30708661417322836
        },
        {
          "duration": 0.0852271874999957,
          "durationTicks": 120,
          "midi": 69,
          "name": "A4",
          "ticks": 102576,
          "time": 72.852199875,
          "velocity": 0.30708661417322836
        },
        {
          "duration": 0.0852271874999957,
          "durationTicks": 120,
          "midi": 69,
          "name": "A4",
          "ticks": 102576,
          "time": 72.852199875,
          "velocity": 0.30708661417322836
        },
        {
          "duration": 0.0852271874999957,
          "durationTicks": 120,
          "midi": 84,
          "name": "C6",
          "ticks": 102576,
          "time": 72.852199875,
          "velocity": 0.30708661417322836
        },
        {
          "duration": 0.0852271874999957,
          "durationTicks": 120,
          "midi": 76,
          "name": "E5",
          "ticks": 102576,
          "time": 72.852199875,
          "velocity": 0.30708661417322836
        },
        {
          "duration": 0.0852271874999957,
          "durationTicks": 120,
          "midi": 59,
          "name": "B3",
          "ticks": 102576,
          "time": 72.852199875,
          "velocity": 0.30708661417322836
        },
        {
          "duration": 0.0852271874999957,
          "durationTicks": 120,
          "midi": 57,
          "name": "A3",
          "ticks": 102576,
          "time": 72.852199875,
          "velocity": 0.30708661417322836
        },
        {
          "duration": 0.0852271874999957,
          "durationTicks": 120,
          "midi": 93,
          "name": "A6",
          "ticks": 102600,
          "time": 72.8692453125,
          "velocity": 0.30708661417322836
        },
        {
          "duration": 0.0852271874999957,
          "durationTicks": 120,
          "midi": 57,
          "name": "A3",
          "ticks": 102600,
          "time": 72.8692453125,
          "velocity": 0.30708661417322836
        },
        {
          "duration": 0.0852271874999957,
          "durationTicks": 120,
          "midi": 59,
          "name": "B3",
          "ticks": 102600,
          "time": 72.8692453125,
          "velocity": 0.30708661417322836
        },
        {
          "duration": 0.0852271874999957,
          "durationTicks": 120,
          "midi": 69,
          "name": "A4",
          "ticks": 102600,
          "time": 72.8692453125,
          "velocity": 0.30708661417322836
        },
        {
          "duration": 0.0852271874999957,
          "durationTicks": 120,
          "midi": 60,
          "name": "C4",
          "ticks": 102600,
          "time": 72.8692453125,
          "velocity": 0.30708661417322836
        },
        {
          "duration": 0.0852271874999957,
          "durationTicks": 120,
          "midi": 71,
          "name": "B4",
          "ticks": 102600,
          "time": 72.8692453125,
          "velocity": 0.30708661417322836
        },
        {
          "duration": 0.0852271874999957,
          "durationTicks": 120,
          "midi": 64,
          "name": "E4",
          "ticks": 102600,
          "time": 72.8692453125,
          "velocity": 0.30708661417322836
        },
        {
          "duration": 0.0852271874999957,
          "durationTicks": 120,
          "midi": 76,
          "name": "E5",
          "ticks": 102600,
          "time": 72.8692453125,
          "velocity": 0.30708661417322836
        },
        {
          "duration": 0.0852271874999957,
          "durationTicks": 120,
          "midi": 83,
          "name": "B5",
          "ticks": 102600,
          "time": 72.8692453125,
          "velocity": 0.30708661417322836
        },
        {
          "duration": 0.0852271874999957,
          "durationTicks": 120,
          "midi": 81,
          "name": "A5",
          "ticks": 102600,
          "time": 72.8692453125,
          "velocity": 0.30708661417322836
        },
        {
          "duration": 0.0852271874999957,
          "durationTicks": 120,
          "midi": 72,
          "name": "C5",
          "ticks": 102600,
          "time": 72.8692453125,
          "velocity": 0.30708661417322836
        },
        {
          "duration": 0.0852271874999957,
          "durationTicks": 120,
          "midi": 88,
          "name": "E6",
          "ticks": 102600,
          "time": 72.8692453125,
          "velocity": 0.30708661417322836
        },
        {
          "duration": 0.0852271874999957,
          "durationTicks": 120,
          "midi": 95,
          "name": "B6",
          "ticks": 102600,
          "time": 72.8692453125,
          "velocity": 0.30708661417322836
        },
        {
          "duration": 0.0852271874999957,
          "durationTicks": 120,
          "midi": 84,
          "name": "C6",
          "ticks": 102600,
          "time": 72.8692453125,
          "velocity": 0.30708661417322836
        },
        {
          "duration": 0.0852271874999957,
          "durationTicks": 120,
          "midi": 40,
          "name": "E2",
          "ticks": 103152,
          "time": 73.261290375,
          "velocity": 0.30708661417322836
        },
        {
          "duration": 0.0852271874999957,
          "durationTicks": 120,
          "midi": 40,
          "name": "E2",
          "ticks": 103152,
          "time": 73.261290375,
          "velocity": 0.30708661417322836
        },
        {
          "duration": 0.0852271874999957,
          "durationTicks": 120,
          "midi": 40,
          "name": "E2",
          "ticks": 103176,
          "time": 73.2783358125,
          "velocity": 0.30708661417322836
        },
        {
          "duration": 0.0852271874999957,
          "durationTicks": 120,
          "midi": 48,
          "name": "C3",
          "ticks": 104304,
          "time": 74.079471375,
          "velocity": 0.30708661417322836
        },
        {
          "duration": 0.0852271874999957,
          "durationTicks": 120,
          "midi": 52,
          "name": "E3",
          "ticks": 104304,
          "time": 74.079471375,
          "velocity": 0.30708661417322836
        },
        {
          "duration": 0.0852271874999957,
          "durationTicks": 120,
          "midi": 52,
          "name": "E3",
          "ticks": 104304,
          "time": 74.079471375,
          "velocity": 0.30708661417322836
        },
        {
          "duration": 0.0852271874999957,
          "durationTicks": 120,
          "midi": 48,
          "name": "C3",
          "ticks": 104304,
          "time": 74.079471375,
          "velocity": 0.30708661417322836
        },
        {
          "duration": 0.0852271874999957,
          "durationTicks": 120,
          "midi": 48,
          "name": "C3",
          "ticks": 104328,
          "time": 74.0965168125,
          "velocity": 0.30708661417322836
        },
        {
          "duration": 0.0852271874999957,
          "durationTicks": 120,
          "midi": 52,
          "name": "E3",
          "ticks": 104328,
          "time": 74.0965168125,
          "velocity": 0.30708661417322836
        },
        {
          "duration": 0.0852271874999957,
          "durationTicks": 120,
          "midi": 64,
          "name": "E4",
          "ticks": 104880,
          "time": 74.488561875,
          "velocity": 0.30708661417322836
        },
        {
          "duration": 0.0852271874999957,
          "durationTicks": 120,
          "midi": 76,
          "name": "E5",
          "ticks": 104880,
          "time": 74.488561875,
          "velocity": 0.30708661417322836
        },
        {
          "duration": 0.0852271874999957,
          "durationTicks": 120,
          "midi": 67,
          "name": "G4",
          "ticks": 104880,
          "time": 74.488561875,
          "velocity": 0.30708661417322836
        },
        {
          "duration": 0.0852271874999957,
          "durationTicks": 120,
          "midi": 71,
          "name": "B4",
          "ticks": 104880,
          "time": 74.488561875,
          "velocity": 0.30708661417322836
        },
        {
          "duration": 0.0852271874999957,
          "durationTicks": 120,
          "midi": 59,
          "name": "B3",
          "ticks": 104880,
          "time": 74.488561875,
          "velocity": 0.30708661417322836
        },
        {
          "duration": 0.0852271874999957,
          "durationTicks": 120,
          "midi": 60,
          "name": "C4",
          "ticks": 104880,
          "time": 74.488561875,
          "velocity": 0.30708661417322836
        },
        {
          "duration": 0.0852271874999957,
          "durationTicks": 120,
          "midi": 60,
          "name": "C4",
          "ticks": 104880,
          "time": 74.488561875,
          "velocity": 0.30708661417322836
        },
        {
          "duration": 0.0852271874999957,
          "durationTicks": 120,
          "midi": 67,
          "name": "G4",
          "ticks": 104880,
          "time": 74.488561875,
          "velocity": 0.30708661417322836
        },
        {
          "duration": 0.0852271874999957,
          "durationTicks": 120,
          "midi": 64,
          "name": "E4",
          "ticks": 104880,
          "time": 74.488561875,
          "velocity": 0.30708661417322836
        },
        {
          "duration": 0.0852271874999957,
          "durationTicks": 120,
          "midi": 55,
          "name": "G3",
          "ticks": 104880,
          "time": 74.488561875,
          "velocity": 0.30708661417322836
        },
        {
          "duration": 0.0852271874999957,
          "durationTicks": 120,
          "midi": 76,
          "name": "E5",
          "ticks": 104880,
          "time": 74.488561875,
          "velocity": 0.30708661417322836
        },
        {
          "duration": 0.0852271874999957,
          "durationTicks": 120,
          "midi": 55,
          "name": "G3",
          "ticks": 104880,
          "time": 74.488561875,
          "velocity": 0.30708661417322836
        },
        {
          "duration": 0.0852271874999957,
          "durationTicks": 120,
          "midi": 71,
          "name": "B4",
          "ticks": 104880,
          "time": 74.488561875,
          "velocity": 0.30708661417322836
        },
        {
          "duration": 0.0852271874999957,
          "durationTicks": 120,
          "midi": 72,
          "name": "C5",
          "ticks": 104880,
          "time": 74.488561875,
          "velocity": 0.30708661417322836
        },
        {
          "duration": 0.0852271874999957,
          "durationTicks": 120,
          "midi": 72,
          "name": "C5",
          "ticks": 104880,
          "time": 74.488561875,
          "velocity": 0.30708661417322836
        },
        {
          "duration": 0.0852271874999957,
          "durationTicks": 120,
          "midi": 59,
          "name": "B3",
          "ticks": 104880,
          "time": 74.488561875,
          "velocity": 0.30708661417322836
        },
        {
          "duration": 0.0852271874999957,
          "durationTicks": 120,
          "midi": 72,
          "name": "C5",
          "ticks": 104904,
          "time": 74.5056073125,
          "velocity": 0.30708661417322836
        },
        {
          "duration": 0.0852271874999957,
          "durationTicks": 120,
          "midi": 55,
          "name": "G3",
          "ticks": 104904,
          "time": 74.5056073125,
          "velocity": 0.30708661417322836
        },
        {
          "duration": 0.0852271874999957,
          "durationTicks": 120,
          "midi": 60,
          "name": "C4",
          "ticks": 104904,
          "time": 74.5056073125,
          "velocity": 0.30708661417322836
        },
        {
          "duration": 0.0852271874999957,
          "durationTicks": 120,
          "midi": 64,
          "name": "E4",
          "ticks": 104904,
          "time": 74.5056073125,
          "velocity": 0.30708661417322836
        },
        {
          "duration": 0.0852271874999957,
          "durationTicks": 120,
          "midi": 71,
          "name": "B4",
          "ticks": 104904,
          "time": 74.5056073125,
          "velocity": 0.30708661417322836
        },
        {
          "duration": 0.0852271874999957,
          "durationTicks": 120,
          "midi": 59,
          "name": "B3",
          "ticks": 104904,
          "time": 74.5056073125,
          "velocity": 0.30708661417322836
        },
        {
          "duration": 0.0852271874999957,
          "durationTicks": 120,
          "midi": 76,
          "name": "E5",
          "ticks": 104904,
          "time": 74.5056073125,
          "velocity": 0.30708661417322836
        },
        {
          "duration": 0.0852271874999957,
          "durationTicks": 120,
          "midi": 67,
          "name": "G4",
          "ticks": 104904,
          "time": 74.5056073125,
          "velocity": 0.30708661417322836
        },
        {
          "duration": 0.8352264375000118,
          "durationTicks": 1176,
          "midi": 45,
          "name": "A2",
          "ticks": 105456,
          "time": 74.89765237499999,
          "velocity": 0.30708661417322836
        },
        {
          "duration": 0.8352264375000118,
          "durationTicks": 1176,
          "midi": 33,
          "name": "A1",
          "ticks": 105456,
          "time": 74.89765237499999,
          "velocity": 0.30708661417322836
        },
        {
          "duration": 0.8352264375000118,
          "durationTicks": 1176,
          "midi": 45,
          "name": "A2",
          "ticks": 105456,
          "time": 74.89765237499999,
          "velocity": 0.30708661417322836
        },
        {
          "duration": 0.8352264375000118,
          "durationTicks": 1176,
          "midi": 33,
          "name": "A1",
          "ticks": 105456,
          "time": 74.89765237499999,
          "velocity": 0.30708661417322836
        },
        {
          "duration": 0.8352264374999976,
          "durationTicks": 1176,
          "midi": 45,
          "name": "A2",
          "ticks": 105480,
          "time": 74.9146978125,
          "velocity": 0.30708661417322836
        },
        {
          "duration": 0.8352264374999976,
          "durationTicks": 1176,
          "midi": 33,
          "name": "A1",
          "ticks": 105480,
          "time": 74.9146978125,
          "velocity": 0.30708661417322836
        },
        {
          "duration": 0.0852271874999957,
          "durationTicks": 120,
          "midi": 52,
          "name": "E3",
          "ticks": 106560,
          "time": 75.6817425,
          "velocity": 0.30708661417322836
        },
        {
          "duration": 0.0852271874999957,
          "durationTicks": 120,
          "midi": 52,
          "name": "E3",
          "ticks": 106560,
          "time": 75.6817425,
          "velocity": 0.30708661417322836
        },
        {
          "duration": 0.0852271874999957,
          "durationTicks": 120,
          "midi": 48,
          "name": "C3",
          "ticks": 106560,
          "time": 75.6817425,
          "velocity": 0.30708661417322836
        },
        {
          "duration": 0.0852271874999957,
          "durationTicks": 120,
          "midi": 48,
          "name": "C3",
          "ticks": 106560,
          "time": 75.6817425,
          "velocity": 0.30708661417322836
        },
        {
          "duration": 0.0852271874999957,
          "durationTicks": 120,
          "midi": 48,
          "name": "C3",
          "ticks": 106584,
          "time": 75.6987879375,
          "velocity": 0.30708661417322836
        },
        {
          "duration": 0.0852271874999957,
          "durationTicks": 120,
          "midi": 52,
          "name": "E3",
          "ticks": 106584,
          "time": 75.6987879375,
          "velocity": 0.30708661417322836
        },
        {
          "duration": 0.0852271874999957,
          "durationTicks": 120,
          "midi": 59,
          "name": "B3",
          "ticks": 107088,
          "time": 76.056742125,
          "velocity": 0.30708661417322836
        },
        {
          "duration": 0.0852271874999957,
          "durationTicks": 120,
          "midi": 69,
          "name": "A4",
          "ticks": 107088,
          "time": 76.056742125,
          "velocity": 0.30708661417322836
        },
        {
          "duration": 0.0852271874999957,
          "durationTicks": 120,
          "midi": 59,
          "name": "B3",
          "ticks": 107088,
          "time": 76.056742125,
          "velocity": 0.30708661417322836
        },
        {
          "duration": 0.0852271874999957,
          "durationTicks": 120,
          "midi": 71,
          "name": "B4",
          "ticks": 107088,
          "time": 76.056742125,
          "velocity": 0.30708661417322836
        },
        {
          "duration": 0.0852271874999957,
          "durationTicks": 120,
          "midi": 93,
          "name": "A6",
          "ticks": 107088,
          "time": 76.056742125,
          "velocity": 0.30708661417322836
        },
        {
          "duration": 0.0852271874999957,
          "durationTicks": 120,
          "midi": 71,
          "name": "B4",
          "ticks": 107088,
          "time": 76.056742125,
          "velocity": 0.30708661417322836
        },
        {
          "duration": 0.0852271874999957,
          "durationTicks": 120,
          "midi": 93,
          "name": "A6",
          "ticks": 107088,
          "time": 76.056742125,
          "velocity": 0.30708661417322836
        },
        {
          "duration": 0.0852271874999957,
          "durationTicks": 120,
          "midi": 95,
          "name": "B6",
          "ticks": 107088,
          "time": 76.056742125,
          "velocity": 0.30708661417322836
        },
        {
          "duration": 0.0852271874999957,
          "durationTicks": 120,
          "midi": 95,
          "name": "B6",
          "ticks": 107088,
          "time": 76.056742125,
          "velocity": 0.30708661417322836
        },
        {
          "duration": 0.0852271874999957,
          "durationTicks": 120,
          "midi": 81,
          "name": "A5",
          "ticks": 107088,
          "time": 76.056742125,
          "velocity": 0.30708661417322836
        },
        {
          "duration": 0.0852271874999957,
          "durationTicks": 120,
          "midi": 60,
          "name": "C4",
          "ticks": 107088,
          "time": 76.056742125,
          "velocity": 0.30708661417322836
        },
        {
          "duration": 0.0852271874999957,
          "durationTicks": 120,
          "midi": 76,
          "name": "E5",
          "ticks": 107088,
          "time": 76.056742125,
          "velocity": 0.30708661417322836
        },
        {
          "duration": 0.0852271874999957,
          "durationTicks": 120,
          "midi": 69,
          "name": "A4",
          "ticks": 107088,
          "time": 76.056742125,
          "velocity": 0.30708661417322836
        },
        {
          "duration": 0.0852271874999957,
          "durationTicks": 120,
          "midi": 64,
          "name": "E4",
          "ticks": 107088,
          "time": 76.056742125,
          "velocity": 0.30708661417322836
        },
        {
          "duration": 0.0852271874999957,
          "durationTicks": 120,
          "midi": 72,
          "name": "C5",
          "ticks": 107088,
          "time": 76.056742125,
          "velocity": 0.30708661417322836
        },
        {
          "duration": 0.0852271874999957,
          "durationTicks": 120,
          "midi": 60,
          "name": "C4",
          "ticks": 107088,
          "time": 76.056742125,
          "velocity": 0.30708661417322836
        },
        {
          "duration": 0.0852271874999957,
          "durationTicks": 120,
          "midi": 83,
          "name": "B5",
          "ticks": 107088,
          "time": 76.056742125,
          "velocity": 0.30708661417322836
        },
        {
          "duration": 0.0852271874999957,
          "durationTicks": 120,
          "midi": 88,
          "name": "E6",
          "ticks": 107088,
          "time": 76.056742125,
          "velocity": 0.30708661417322836
        },
        {
          "duration": 0.0852271874999957,
          "durationTicks": 120,
          "midi": 84,
          "name": "C6",
          "ticks": 107088,
          "time": 76.056742125,
          "velocity": 0.30708661417322836
        },
        {
          "duration": 0.0852271874999957,
          "durationTicks": 120,
          "midi": 57,
          "name": "A3",
          "ticks": 107088,
          "time": 76.056742125,
          "velocity": 0.30708661417322836
        },
        {
          "duration": 0.0852271874999957,
          "durationTicks": 120,
          "midi": 84,
          "name": "C6",
          "ticks": 107088,
          "time": 76.056742125,
          "velocity": 0.30708661417322836
        },
        {
          "duration": 0.0852271874999957,
          "durationTicks": 120,
          "midi": 64,
          "name": "E4",
          "ticks": 107088,
          "time": 76.056742125,
          "velocity": 0.30708661417322836
        },
        {
          "duration": 0.0852271874999957,
          "durationTicks": 120,
          "midi": 81,
          "name": "A5",
          "ticks": 107088,
          "time": 76.056742125,
          "velocity": 0.30708661417322836
        },
        {
          "duration": 0.0852271874999957,
          "durationTicks": 120,
          "midi": 76,
          "name": "E5",
          "ticks": 107088,
          "time": 76.056742125,
          "velocity": 0.30708661417322836
        },
        {
          "duration": 0.0852271874999957,
          "durationTicks": 120,
          "midi": 83,
          "name": "B5",
          "ticks": 107088,
          "time": 76.056742125,
          "velocity": 0.30708661417322836
        },
        {
          "duration": 0.0852271874999957,
          "durationTicks": 120,
          "midi": 72,
          "name": "C5",
          "ticks": 107088,
          "time": 76.056742125,
          "velocity": 0.30708661417322836
        },
        {
          "duration": 0.0852271874999957,
          "durationTicks": 120,
          "midi": 57,
          "name": "A3",
          "ticks": 107088,
          "time": 76.056742125,
          "velocity": 0.30708661417322836
        },
        {
          "duration": 0.0852271874999957,
          "durationTicks": 120,
          "midi": 88,
          "name": "E6",
          "ticks": 107088,
          "time": 76.056742125,
          "velocity": 0.30708661417322836
        },
        {
          "duration": 0.0852271874999957,
          "durationTicks": 120,
          "midi": 71,
          "name": "B4",
          "ticks": 107112,
          "time": 76.0737875625,
          "velocity": 0.30708661417322836
        },
        {
          "duration": 0.0852271874999957,
          "durationTicks": 120,
          "midi": 72,
          "name": "C5",
          "ticks": 107112,
          "time": 76.0737875625,
          "velocity": 0.30708661417322836
        },
        {
          "duration": 0.0852271874999957,
          "durationTicks": 120,
          "midi": 81,
          "name": "A5",
          "ticks": 107112,
          "time": 76.0737875625,
          "velocity": 0.30708661417322836
        },
        {
          "duration": 0.0852271874999957,
          "durationTicks": 120,
          "midi": 83,
          "name": "B5",
          "ticks": 107112,
          "time": 76.0737875625,
          "velocity": 0.30708661417322836
        },
        {
          "duration": 0.0852271874999957,
          "durationTicks": 120,
          "midi": 88,
          "name": "E6",
          "ticks": 107112,
          "time": 76.0737875625,
          "velocity": 0.30708661417322836
        },
        {
          "duration": 0.0852271874999957,
          "durationTicks": 120,
          "midi": 59,
          "name": "B3",
          "ticks": 107112,
          "time": 76.0737875625,
          "velocity": 0.30708661417322836
        },
        {
          "duration": 0.0852271874999957,
          "durationTicks": 120,
          "midi": 95,
          "name": "B6",
          "ticks": 107112,
          "time": 76.0737875625,
          "velocity": 0.30708661417322836
        },
        {
          "duration": 0.0852271874999957,
          "durationTicks": 120,
          "midi": 69,
          "name": "A4",
          "ticks": 107112,
          "time": 76.0737875625,
          "velocity": 0.30708661417322836
        },
        {
          "duration": 0.0852271874999957,
          "durationTicks": 120,
          "midi": 93,
          "name": "A6",
          "ticks": 107112,
          "time": 76.0737875625,
          "velocity": 0.30708661417322836
        },
        {
          "duration": 0.0852271874999957,
          "durationTicks": 120,
          "midi": 84,
          "name": "C6",
          "ticks": 107112,
          "time": 76.0737875625,
          "velocity": 0.30708661417322836
        },
        {
          "duration": 0.0852271874999957,
          "durationTicks": 120,
          "midi": 57,
          "name": "A3",
          "ticks": 107112,
          "time": 76.0737875625,
          "velocity": 0.30708661417322836
        },
        {
          "duration": 0.0852271874999957,
          "durationTicks": 120,
          "midi": 64,
          "name": "E4",
          "ticks": 107112,
          "time": 76.0737875625,
          "velocity": 0.30708661417322836
        },
        {
          "duration": 0.0852271874999957,
          "durationTicks": 120,
          "midi": 76,
          "name": "E5",
          "ticks": 107112,
          "time": 76.0737875625,
          "velocity": 0.30708661417322836
        },
        {
          "duration": 0.0852271874999957,
          "durationTicks": 120,
          "midi": 60,
          "name": "C4",
          "ticks": 107112,
          "time": 76.0737875625,
          "velocity": 0.30708661417322836
        },
        {
          "duration": 0.0852271874999957,
          "durationTicks": 120,
          "midi": 40,
          "name": "E2",
          "ticks": 107568,
          "time": 76.397650875,
          "velocity": 0.30708661417322836
        },
        {
          "duration": 0.0852271874999957,
          "durationTicks": 120,
          "midi": 40,
          "name": "E2",
          "ticks": 107568,
          "time": 76.397650875,
          "velocity": 0.30708661417322836
        },
        {
          "duration": 0.0852271874999957,
          "durationTicks": 120,
          "midi": 40,
          "name": "E2",
          "ticks": 107592,
          "time": 76.4146963125,
          "velocity": 0.30708661417322836
        },
        {
          "duration": 0.0852271874999957,
          "durationTicks": 120,
          "midi": 48,
          "name": "C3",
          "ticks": 108528,
          "time": 77.079468375,
          "velocity": 0.30708661417322836
        },
        {
          "duration": 0.0852271874999957,
          "durationTicks": 120,
          "midi": 48,
          "name": "C3",
          "ticks": 108528,
          "time": 77.079468375,
          "velocity": 0.30708661417322836
        },
        {
          "duration": 0.0852271874999957,
          "durationTicks": 120,
          "midi": 52,
          "name": "E3",
          "ticks": 108528,
          "time": 77.079468375,
          "velocity": 0.30708661417322836
        },
        {
          "duration": 0.0852271874999957,
          "durationTicks": 120,
          "midi": 52,
          "name": "E3",
          "ticks": 108528,
          "time": 77.079468375,
          "velocity": 0.30708661417322836
        },
        {
          "duration": 0.0852271875000099,
          "durationTicks": 120,
          "midi": 48,
          "name": "C3",
          "ticks": 108552,
          "time": 77.09651381249999,
          "velocity": 0.30708661417322836
        },
        {
          "duration": 0.0852271875000099,
          "durationTicks": 120,
          "midi": 52,
          "name": "E3",
          "ticks": 108552,
          "time": 77.09651381249999,
          "velocity": 0.30708661417322836
        },
        {
          "duration": 0.0852271874999957,
          "durationTicks": 120,
          "midi": 67,
          "name": "G4",
          "ticks": 109008,
          "time": 77.420377125,
          "velocity": 0.30708661417322836
        },
        {
          "duration": 0.0852271874999957,
          "durationTicks": 120,
          "midi": 64,
          "name": "E4",
          "ticks": 109008,
          "time": 77.420377125,
          "velocity": 0.30708661417322836
        },
        {
          "duration": 0.0852271874999957,
          "durationTicks": 120,
          "midi": 76,
          "name": "E5",
          "ticks": 109008,
          "time": 77.420377125,
          "velocity": 0.30708661417322836
        },
        {
          "duration": 0.0852271874999957,
          "durationTicks": 120,
          "midi": 55,
          "name": "G3",
          "ticks": 109008,
          "time": 77.420377125,
          "velocity": 0.30708661417322836
        },
        {
          "duration": 0.0852271874999957,
          "durationTicks": 120,
          "midi": 60,
          "name": "C4",
          "ticks": 109008,
          "time": 77.420377125,
          "velocity": 0.30708661417322836
        },
        {
          "duration": 0.0852271874999957,
          "durationTicks": 120,
          "midi": 55,
          "name": "G3",
          "ticks": 109008,
          "time": 77.420377125,
          "velocity": 0.30708661417322836
        },
        {
          "duration": 0.0852271874999957,
          "durationTicks": 120,
          "midi": 59,
          "name": "B3",
          "ticks": 109008,
          "time": 77.420377125,
          "velocity": 0.30708661417322836
        },
        {
          "duration": 0.0852271874999957,
          "durationTicks": 120,
          "midi": 59,
          "name": "B3",
          "ticks": 109008,
          "time": 77.420377125,
          "velocity": 0.30708661417322836
        },
        {
          "duration": 0.0852271874999957,
          "durationTicks": 120,
          "midi": 67,
          "name": "G4",
          "ticks": 109008,
          "time": 77.420377125,
          "velocity": 0.30708661417322836
        },
        {
          "duration": 0.0852271874999957,
          "durationTicks": 120,
          "midi": 71,
          "name": "B4",
          "ticks": 109008,
          "time": 77.420377125,
          "velocity": 0.30708661417322836
        },
        {
          "duration": 0.0852271874999957,
          "durationTicks": 120,
          "midi": 72,
          "name": "C5",
          "ticks": 109008,
          "time": 77.420377125,
          "velocity": 0.30708661417322836
        },
        {
          "duration": 0.0852271874999957,
          "durationTicks": 120,
          "midi": 60,
          "name": "C4",
          "ticks": 109008,
          "time": 77.420377125,
          "velocity": 0.30708661417322836
        },
        {
          "duration": 0.0852271874999957,
          "durationTicks": 120,
          "midi": 64,
          "name": "E4",
          "ticks": 109008,
          "time": 77.420377125,
          "velocity": 0.30708661417322836
        },
        {
          "duration": 0.0852271874999957,
          "durationTicks": 120,
          "midi": 76,
          "name": "E5",
          "ticks": 109008,
          "time": 77.420377125,
          "velocity": 0.30708661417322836
        },
        {
          "duration": 0.0852271874999957,
          "durationTicks": 120,
          "midi": 72,
          "name": "C5",
          "ticks": 109008,
          "time": 77.420377125,
          "velocity": 0.30708661417322836
        },
        {
          "duration": 0.0852271874999957,
          "durationTicks": 120,
          "midi": 71,
          "name": "B4",
          "ticks": 109008,
          "time": 77.420377125,
          "velocity": 0.30708661417322836
        },
        {
          "duration": 0.0852271874999957,
          "durationTicks": 120,
          "midi": 72,
          "name": "C5",
          "ticks": 109032,
          "time": 77.4374225625,
          "velocity": 0.30708661417322836
        },
        {
          "duration": 0.0852271874999957,
          "durationTicks": 120,
          "midi": 64,
          "name": "E4",
          "ticks": 109032,
          "time": 77.4374225625,
          "velocity": 0.30708661417322836
        },
        {
          "duration": 0.0852271874999957,
          "durationTicks": 120,
          "midi": 59,
          "name": "B3",
          "ticks": 109032,
          "time": 77.4374225625,
          "velocity": 0.30708661417322836
        },
        {
          "duration": 0.0852271874999957,
          "durationTicks": 120,
          "midi": 71,
          "name": "B4",
          "ticks": 109032,
          "time": 77.4374225625,
          "velocity": 0.30708661417322836
        },
        {
          "duration": 0.0852271874999957,
          "durationTicks": 120,
          "midi": 67,
          "name": "G4",
          "ticks": 109032,
          "time": 77.4374225625,
          "velocity": 0.30708661417322836
        },
        {
          "duration": 0.0852271874999957,
          "durationTicks": 120,
          "midi": 55,
          "name": "G3",
          "ticks": 109032,
          "time": 77.4374225625,
          "velocity": 0.30708661417322836
        },
        {
          "duration": 0.0852271874999957,
          "durationTicks": 120,
          "midi": 76,
          "name": "E5",
          "ticks": 109032,
          "time": 77.4374225625,
          "velocity": 0.30708661417322836
        },
        {
          "duration": 0.0852271874999957,
          "durationTicks": 120,
          "midi": 60,
          "name": "C4",
          "ticks": 109032,
          "time": 77.4374225625,
          "velocity": 0.30708661417322836
        },
        {
          "duration": 0.630681187499988,
          "durationTicks": 888,
          "midi": 45,
          "name": "A2",
          "ticks": 109392,
          "time": 77.693104125,
          "velocity": 0.30708661417322836
        },
        {
          "duration": 0.630681187499988,
          "durationTicks": 888,
          "midi": 45,
          "name": "A2",
          "ticks": 109392,
          "time": 77.693104125,
          "velocity": 0.30708661417322836
        },
        {
          "duration": 0.630681187499988,
          "durationTicks": 888,
          "midi": 33,
          "name": "A1",
          "ticks": 109392,
          "time": 77.693104125,
          "velocity": 0.30708661417322836
        },
        {
          "duration": 0.630681187499988,
          "durationTicks": 888,
          "midi": 33,
          "name": "A1",
          "ticks": 109392,
          "time": 77.693104125,
          "velocity": 0.30708661417322836
        },
        {
          "duration": 0.6306811875000022,
          "durationTicks": 888,
          "midi": 33,
          "name": "A1",
          "ticks": 109416,
          "time": 77.71014956249999,
          "velocity": 0.30708661417322836
        },
        {
          "duration": 0.6306811875000022,
          "durationTicks": 888,
          "midi": 45,
          "name": "A2",
          "ticks": 109416,
          "time": 77.71014956249999,
          "velocity": 0.30708661417322836
        },
        {
          "duration": 0.0852271874999957,
          "durationTicks": 120,
          "midi": 48,
          "name": "C3",
          "ticks": 110160,
          "time": 78.238558125,
          "velocity": 0.30708661417322836
        },
        {
          "duration": 0.0852271874999957,
          "durationTicks": 120,
          "midi": 48,
          "name": "C3",
          "ticks": 110160,
          "time": 78.238558125,
          "velocity": 0.30708661417322836
        },
        {
          "duration": 0.0852271874999957,
          "durationTicks": 120,
          "midi": 52,
          "name": "E3",
          "ticks": 110160,
          "time": 78.238558125,
          "velocity": 0.30708661417322836
        },
        {
          "duration": 0.0852271874999957,
          "durationTicks": 120,
          "midi": 52,
          "name": "E3",
          "ticks": 110160,
          "time": 78.238558125,
          "velocity": 0.30708661417322836
        },
        {
          "duration": 0.0852271874999957,
          "durationTicks": 120,
          "midi": 52,
          "name": "E3",
          "ticks": 110184,
          "time": 78.2556035625,
          "velocity": 0.30708661417322836
        },
        {
          "duration": 0.0852271874999957,
          "durationTicks": 120,
          "midi": 48,
          "name": "C3",
          "ticks": 110184,
          "time": 78.2556035625,
          "velocity": 0.30708661417322836
        },
        {
          "duration": 0.0852271874999957,
          "durationTicks": 120,
          "midi": 84,
          "name": "C6",
          "ticks": 110592,
          "time": 78.545376,
          "velocity": 0.30708661417322836
        },
        {
          "duration": 0.0852271874999957,
          "durationTicks": 120,
          "midi": 71,
          "name": "B4",
          "ticks": 110592,
          "time": 78.545376,
          "velocity": 0.30708661417322836
        },
        {
          "duration": 0.0852271874999957,
          "durationTicks": 120,
          "midi": 93,
          "name": "A6",
          "ticks": 110592,
          "time": 78.545376,
          "velocity": 0.30708661417322836
        },
        {
          "duration": 0.0852271874999957,
          "durationTicks": 120,
          "midi": 69,
          "name": "A4",
          "ticks": 110592,
          "time": 78.545376,
          "velocity": 0.30708661417322836
        },
        {
          "duration": 0.0852271874999957,
          "durationTicks": 120,
          "midi": 81,
          "name": "A5",
          "ticks": 110592,
          "time": 78.545376,
          "velocity": 0.30708661417322836
        },
        {
          "duration": 0.0852271874999957,
          "durationTicks": 120,
          "midi": 60,
          "name": "C4",
          "ticks": 110592,
          "time": 78.545376,
          "velocity": 0.30708661417322836
        },
        {
          "duration": 0.0852271874999957,
          "durationTicks": 120,
          "midi": 95,
          "name": "B6",
          "ticks": 110592,
          "time": 78.545376,
          "velocity": 0.30708661417322836
        },
        {
          "duration": 0.0852271874999957,
          "durationTicks": 120,
          "midi": 60,
          "name": "C4",
          "ticks": 110592,
          "time": 78.545376,
          "velocity": 0.30708661417322836
        },
        {
          "duration": 0.0852271874999957,
          "durationTicks": 120,
          "midi": 71,
          "name": "B4",
          "ticks": 110592,
          "time": 78.545376,
          "velocity": 0.30708661417322836
        },
        {
          "duration": 0.0852271874999957,
          "durationTicks": 120,
          "midi": 64,
          "name": "E4",
          "ticks": 110592,
          "time": 78.545376,
          "velocity": 0.30708661417322836
        },
        {
          "duration": 0.0852271874999957,
          "durationTicks": 120,
          "midi": 59,
          "name": "B3",
          "ticks": 110592,
          "time": 78.545376,
          "velocity": 0.30708661417322836
        },
        {
          "duration": 0.0852271874999957,
          "durationTicks": 120,
          "midi": 76,
          "name": "E5",
          "ticks": 110592,
          "time": 78.545376,
          "velocity": 0.30708661417322836
        },
        {
          "duration": 0.0852271874999957,
          "durationTicks": 120,
          "midi": 95,
          "name": "B6",
          "ticks": 110592,
          "time": 78.545376,
          "velocity": 0.30708661417322836
        },
        {
          "duration": 0.0852271874999957,
          "durationTicks": 120,
          "midi": 57,
          "name": "A3",
          "ticks": 110592,
          "time": 78.545376,
          "velocity": 0.30708661417322836
        },
        {
          "duration": 0.0852271874999957,
          "durationTicks": 120,
          "midi": 83,
          "name": "B5",
          "ticks": 110592,
          "time": 78.545376,
          "velocity": 0.30708661417322836
        },
        {
          "duration": 0.0852271874999957,
          "durationTicks": 120,
          "midi": 72,
          "name": "C5",
          "ticks": 110592,
          "time": 78.545376,
          "velocity": 0.30708661417322836
        },
        {
          "duration": 0.0852271874999957,
          "durationTicks": 120,
          "midi": 83,
          "name": "B5",
          "ticks": 110592,
          "time": 78.545376,
          "velocity": 0.30708661417322836
        },
        {
          "duration": 0.0852271874999957,
          "durationTicks": 120,
          "midi": 93,
          "name": "A6",
          "ticks": 110592,
          "time": 78.545376,
          "velocity": 0.30708661417322836
        },
        {
          "duration": 0.0852271874999957,
          "durationTicks": 120,
          "midi": 57,
          "name": "A3",
          "ticks": 110592,
          "time": 78.545376,
          "velocity": 0.30708661417322836
        },
        {
          "duration": 0.0852271874999957,
          "durationTicks": 120,
          "midi": 88,
          "name": "E6",
          "ticks": 110592,
          "time": 78.545376,
          "velocity": 0.30708661417322836
        },
        {
          "duration": 0.0852271874999957,
          "durationTicks": 120,
          "midi": 88,
          "name": "E6",
          "ticks": 110592,
          "time": 78.545376,
          "velocity": 0.30708661417322836
        },
        {
          "duration": 0.0852271874999957,
          "durationTicks": 120,
          "midi": 84,
          "name": "C6",
          "ticks": 110592,
          "time": 78.545376,
          "velocity": 0.30708661417322836
        },
        {
          "duration": 0.0852271874999957,
          "durationTicks": 120,
          "midi": 72,
          "name": "C5",
          "ticks": 110592,
          "time": 78.545376,
          "velocity": 0.30708661417322836
        },
        {
          "duration": 0.0852271874999957,
          "durationTicks": 120,
          "midi": 64,
          "name": "E4",
          "ticks": 110592,
          "time": 78.545376,
          "velocity": 0.30708661417322836
        },
        {
          "duration": 0.0852271874999957,
          "durationTicks": 120,
          "midi": 69,
          "name": "A4",
          "ticks": 110592,
          "time": 78.545376,
          "velocity": 0.30708661417322836
        },
        {
          "duration": 0.0852271874999957,
          "durationTicks": 120,
          "midi": 81,
          "name": "A5",
          "ticks": 110592,
          "time": 78.545376,
          "velocity": 0.30708661417322836
        },
        {
          "duration": 0.0852271874999957,
          "durationTicks": 120,
          "midi": 76,
          "name": "E5",
          "ticks": 110592,
          "time": 78.545376,
          "velocity": 0.30708661417322836
        },
        {
          "duration": 0.0852271874999957,
          "durationTicks": 120,
          "midi": 59,
          "name": "B3",
          "ticks": 110592,
          "time": 78.545376,
          "velocity": 0.30708661417322836
        },
        {
          "duration": 0.0852271875000099,
          "durationTicks": 120,
          "midi": 57,
          "name": "A3",
          "ticks": 110616,
          "time": 78.56242143749999,
          "velocity": 0.30708661417322836
        },
        {
          "duration": 0.0852271875000099,
          "durationTicks": 120,
          "midi": 76,
          "name": "E5",
          "ticks": 110616,
          "time": 78.56242143749999,
          "velocity": 0.30708661417322836
        },
        {
          "duration": 0.0852271875000099,
          "durationTicks": 120,
          "midi": 95,
          "name": "B6",
          "ticks": 110616,
          "time": 78.56242143749999,
          "velocity": 0.30708661417322836
        },
        {
          "duration": 0.0852271875000099,
          "durationTicks": 120,
          "midi": 81,
          "name": "A5",
          "ticks": 110616,
          "time": 78.56242143749999,
          "velocity": 0.30708661417322836
        },
        {
          "duration": 0.0852271875000099,
          "durationTicks": 120,
          "midi": 59,
          "name": "B3",
          "ticks": 110616,
          "time": 78.56242143749999,
          "velocity": 0.30708661417322836
        },
        {
          "duration": 0.0852271875000099,
          "durationTicks": 120,
          "midi": 83,
          "name": "B5",
          "ticks": 110616,
          "time": 78.56242143749999,
          "velocity": 0.30708661417322836
        },
        {
          "duration": 0.0852271875000099,
          "durationTicks": 120,
          "midi": 93,
          "name": "A6",
          "ticks": 110616,
          "time": 78.56242143749999,
          "velocity": 0.30708661417322836
        },
        {
          "duration": 0.0852271875000099,
          "durationTicks": 120,
          "midi": 60,
          "name": "C4",
          "ticks": 110616,
          "time": 78.56242143749999,
          "velocity": 0.30708661417322836
        },
        {
          "duration": 0.0852271875000099,
          "durationTicks": 120,
          "midi": 88,
          "name": "E6",
          "ticks": 110616,
          "time": 78.56242143749999,
          "velocity": 0.30708661417322836
        },
        {
          "duration": 0.0852271875000099,
          "durationTicks": 120,
          "midi": 71,
          "name": "B4",
          "ticks": 110616,
          "time": 78.56242143749999,
          "velocity": 0.30708661417322836
        },
        {
          "duration": 0.0852271875000099,
          "durationTicks": 120,
          "midi": 64,
          "name": "E4",
          "ticks": 110616,
          "time": 78.56242143749999,
          "velocity": 0.30708661417322836
        },
        {
          "duration": 0.0852271875000099,
          "durationTicks": 120,
          "midi": 69,
          "name": "A4",
          "ticks": 110616,
          "time": 78.56242143749999,
          "velocity": 0.30708661417322836
        },
        {
          "duration": 0.0852271875000099,
          "durationTicks": 120,
          "midi": 84,
          "name": "C6",
          "ticks": 110616,
          "time": 78.56242143749999,
          "velocity": 0.30708661417322836
        },
        {
          "duration": 0.0852271875000099,
          "durationTicks": 120,
          "midi": 72,
          "name": "C5",
          "ticks": 110616,
          "time": 78.56242143749999,
          "velocity": 0.30708661417322836
        },
        {
          "duration": 0.0852271874999957,
          "durationTicks": 120,
          "midi": 40,
          "name": "E2",
          "ticks": 110928,
          "time": 78.784012125,
          "velocity": 0.30708661417322836
        },
        {
          "duration": 0.0852271874999957,
          "durationTicks": 120,
          "midi": 40,
          "name": "E2",
          "ticks": 110928,
          "time": 78.784012125,
          "velocity": 0.30708661417322836
        },
        {
          "duration": 0.0852271874999957,
          "durationTicks": 120,
          "midi": 40,
          "name": "E2",
          "ticks": 110952,
          "time": 78.8010575625,
          "velocity": 0.30708661417322836
        },
        {
          "duration": 0.0852271875000099,
          "durationTicks": 120,
          "midi": 52,
          "name": "E3",
          "ticks": 111696,
          "time": 79.329466125,
          "velocity": 0.30708661417322836
        },
        {
          "duration": 0.0852271875000099,
          "durationTicks": 120,
          "midi": 48,
          "name": "C3",
          "ticks": 111696,
          "time": 79.329466125,
          "velocity": 0.30708661417322836
        },
        {
          "duration": 0.0852271875000099,
          "durationTicks": 120,
          "midi": 52,
          "name": "E3",
          "ticks": 111696,
          "time": 79.329466125,
          "velocity": 0.30708661417322836
        },
        {
          "duration": 0.0852271875000099,
          "durationTicks": 120,
          "midi": 48,
          "name": "C3",
          "ticks": 111696,
          "time": 79.329466125,
          "velocity": 0.30708661417322836
        },
        {
          "duration": 0.0852271874999957,
          "durationTicks": 120,
          "midi": 52,
          "name": "E3",
          "ticks": 111720,
          "time": 79.3465115625,
          "velocity": 0.30708661417322836
        },
        {
          "duration": 0.0852271874999957,
          "durationTicks": 120,
          "midi": 48,
          "name": "C3",
          "ticks": 111720,
          "time": 79.3465115625,
          "velocity": 0.30708661417322836
        },
        {
          "duration": 0.0852271874999957,
          "durationTicks": 120,
          "midi": 67,
          "name": "G4",
          "ticks": 112080,
          "time": 79.602193125,
          "velocity": 0.30708661417322836
        },
        {
          "duration": 0.0852271874999957,
          "durationTicks": 120,
          "midi": 64,
          "name": "E4",
          "ticks": 112080,
          "time": 79.602193125,
          "velocity": 0.30708661417322836
        },
        {
          "duration": 0.0852271874999957,
          "durationTicks": 120,
          "midi": 64,
          "name": "E4",
          "ticks": 112080,
          "time": 79.602193125,
          "velocity": 0.30708661417322836
        },
        {
          "duration": 0.0852271874999957,
          "durationTicks": 120,
          "midi": 72,
          "name": "C5",
          "ticks": 112080,
          "time": 79.602193125,
          "velocity": 0.30708661417322836
        },
        {
          "duration": 0.0852271874999957,
          "durationTicks": 120,
          "midi": 71,
          "name": "B4",
          "ticks": 112080,
          "time": 79.602193125,
          "velocity": 0.30708661417322836
        },
        {
          "duration": 0.0852271874999957,
          "durationTicks": 120,
          "midi": 60,
          "name": "C4",
          "ticks": 112080,
          "time": 79.602193125,
          "velocity": 0.30708661417322836
        },
        {
          "duration": 0.0852271874999957,
          "durationTicks": 120,
          "midi": 76,
          "name": "E5",
          "ticks": 112080,
          "time": 79.602193125,
          "velocity": 0.30708661417322836
        },
        {
          "duration": 0.0852271874999957,
          "durationTicks": 120,
          "midi": 76,
          "name": "E5",
          "ticks": 112080,
          "time": 79.602193125,
          "velocity": 0.30708661417322836
        },
        {
          "duration": 0.0852271874999957,
          "durationTicks": 120,
          "midi": 67,
          "name": "G4",
          "ticks": 112080,
          "time": 79.602193125,
          "velocity": 0.30708661417322836
        },
        {
          "duration": 0.0852271874999957,
          "durationTicks": 120,
          "midi": 59,
          "name": "B3",
          "ticks": 112080,
          "time": 79.602193125,
          "velocity": 0.30708661417322836
        },
        {
          "duration": 0.0852271874999957,
          "durationTicks": 120,
          "midi": 72,
          "name": "C5",
          "ticks": 112080,
          "time": 79.602193125,
          "velocity": 0.30708661417322836
        },
        {
          "duration": 0.0852271874999957,
          "durationTicks": 120,
          "midi": 59,
          "name": "B3",
          "ticks": 112080,
          "time": 79.602193125,
          "velocity": 0.30708661417322836
        },
        {
          "duration": 0.0852271874999957,
          "durationTicks": 120,
          "midi": 71,
          "name": "B4",
          "ticks": 112080,
          "time": 79.602193125,
          "velocity": 0.30708661417322836
        },
        {
          "duration": 0.0852271874999957,
          "durationTicks": 120,
          "midi": 55,
          "name": "G3",
          "ticks": 112080,
          "time": 79.602193125,
          "velocity": 0.30708661417322836
        },
        {
          "duration": 0.0852271874999957,
          "durationTicks": 120,
          "midi": 55,
          "name": "G3",
          "ticks": 112080,
          "time": 79.602193125,
          "velocity": 0.30708661417322836
        },
        {
          "duration": 0.0852271874999957,
          "durationTicks": 120,
          "midi": 60,
          "name": "C4",
          "ticks": 112080,
          "time": 79.602193125,
          "velocity": 0.30708661417322836
        },
        {
          "duration": 0.0852271874999957,
          "durationTicks": 120,
          "midi": 60,
          "name": "C4",
          "ticks": 112104,
          "time": 79.6192385625,
          "velocity": 0.30708661417322836
        },
        {
          "duration": 0.0852271874999957,
          "durationTicks": 120,
          "midi": 55,
          "name": "G3",
          "ticks": 112104,
          "time": 79.6192385625,
          "velocity": 0.30708661417322836
        },
        {
          "duration": 0.0852271874999957,
          "durationTicks": 120,
          "midi": 71,
          "name": "B4",
          "ticks": 112104,
          "time": 79.6192385625,
          "velocity": 0.30708661417322836
        },
        {
          "duration": 0.0852271874999957,
          "durationTicks": 120,
          "midi": 59,
          "name": "B3",
          "ticks": 112104,
          "time": 79.6192385625,
          "velocity": 0.30708661417322836
        },
        {
          "duration": 0.0852271874999957,
          "durationTicks": 120,
          "midi": 76,
          "name": "E5",
          "ticks": 112104,
          "time": 79.6192385625,
          "velocity": 0.30708661417322836
        },
        {
          "duration": 0.0852271874999957,
          "durationTicks": 120,
          "midi": 67,
          "name": "G4",
          "ticks": 112104,
          "time": 79.6192385625,
          "velocity": 0.30708661417322836
        },
        {
          "duration": 0.0852271874999957,
          "durationTicks": 120,
          "midi": 72,
          "name": "C5",
          "ticks": 112104,
          "time": 79.6192385625,
          "velocity": 0.30708661417322836
        },
        {
          "duration": 0.0852271874999957,
          "durationTicks": 120,
          "midi": 64,
          "name": "E4",
          "ticks": 112104,
          "time": 79.6192385625,
          "velocity": 0.30708661417322836
        },
        {
          "duration": 0.6306811875000022,
          "durationTicks": 888,
          "midi": 33,
          "name": "A1",
          "ticks": 112416,
          "time": 79.84082925,
          "velocity": 0.30708661417322836
        },
        {
          "duration": 0.6306811875000022,
          "durationTicks": 888,
          "midi": 45,
          "name": "A2",
          "ticks": 112416,
          "time": 79.84082925,
          "velocity": 0.30708661417322836
        },
        {
          "duration": 0.6306811875000022,
          "durationTicks": 888,
          "midi": 45,
          "name": "A2",
          "ticks": 112416,
          "time": 79.84082925,
          "velocity": 0.30708661417322836
        },
        {
          "duration": 0.6306811875000022,
          "durationTicks": 888,
          "midi": 33,
          "name": "A1",
          "ticks": 112416,
          "time": 79.84082925,
          "velocity": 0.30708661417322836
        },
        {
          "duration": 0.6306811875000022,
          "durationTicks": 888,
          "midi": 33,
          "name": "A1",
          "ticks": 112440,
          "time": 79.8578746875,
          "velocity": 0.30708661417322836
        },
        {
          "duration": 0.6306811875000022,
          "durationTicks": 888,
          "midi": 45,
          "name": "A2",
          "ticks": 112440,
          "time": 79.8578746875,
          "velocity": 0.30708661417322836
        },
        {
          "duration": 0.0852271874999957,
          "durationTicks": 120,
          "midi": 52,
          "name": "E3",
          "ticks": 113184,
          "time": 80.38628325,
          "velocity": 0.30708661417322836
        },
        {
          "duration": 0.0852271874999957,
          "durationTicks": 120,
          "midi": 48,
          "name": "C3",
          "ticks": 113184,
          "time": 80.38628325,
          "velocity": 0.30708661417322836
        },
        {
          "duration": 0.0852271874999957,
          "durationTicks": 120,
          "midi": 48,
          "name": "C3",
          "ticks": 113184,
          "time": 80.38628325,
          "velocity": 0.30708661417322836
        },
        {
          "duration": 0.0852271874999957,
          "durationTicks": 120,
          "midi": 52,
          "name": "E3",
          "ticks": 113184,
          "time": 80.38628325,
          "velocity": 0.30708661417322836
        },
        {
          "duration": 0.0852271875000099,
          "durationTicks": 120,
          "midi": 48,
          "name": "C3",
          "ticks": 113208,
          "time": 80.4033286875,
          "velocity": 0.30708661417322836
        },
        {
          "duration": 0.0852271875000099,
          "durationTicks": 120,
          "midi": 52,
          "name": "E3",
          "ticks": 113208,
          "time": 80.4033286875,
          "velocity": 0.30708661417322836
        },
        {
          "duration": 0.0852271875000099,
          "durationTicks": 120,
          "midi": 88,
          "name": "E6",
          "ticks": 113568,
          "time": 80.65901025,
          "velocity": 0.30708661417322836
        },
        {
          "duration": 0.0852271875000099,
          "durationTicks": 120,
          "midi": 93,
          "name": "A6",
          "ticks": 113568,
          "time": 80.65901025,
          "velocity": 0.30708661417322836
        },
        {
          "duration": 0.0852271875000099,
          "durationTicks": 120,
          "midi": 59,
          "name": "B3",
          "ticks": 113568,
          "time": 80.65901025,
          "velocity": 0.30708661417322836
        },
        {
          "duration": 0.0852271875000099,
          "durationTicks": 120,
          "midi": 95,
          "name": "B6",
          "ticks": 113568,
          "time": 80.65901025,
          "velocity": 0.30708661417322836
        },
        {
          "duration": 0.0852271875000099,
          "durationTicks": 120,
          "midi": 83,
          "name": "B5",
          "ticks": 113568,
          "time": 80.65901025,
          "velocity": 0.30708661417322836
        },
        {
          "duration": 0.0852271875000099,
          "durationTicks": 120,
          "midi": 64,
          "name": "E4",
          "ticks": 113568,
          "time": 80.65901025,
          "velocity": 0.30708661417322836
        },
        {
          "duration": 0.0852271875000099,
          "durationTicks": 120,
          "midi": 57,
          "name": "A3",
          "ticks": 113568,
          "time": 80.65901025,
          "velocity": 0.30708661417322836
        },
        {
          "duration": 0.0852271875000099,
          "durationTicks": 120,
          "midi": 84,
          "name": "C6",
          "ticks": 113568,
          "time": 80.65901025,
          "velocity": 0.30708661417322836
        },
        {
          "duration": 0.0852271875000099,
          "durationTicks": 120,
          "midi": 81,
          "name": "A5",
          "ticks": 113568,
          "time": 80.65901025,
          "velocity": 0.30708661417322836
        },
        {
          "duration": 0.0852271875000099,
          "durationTicks": 120,
          "midi": 71,
          "name": "B4",
          "ticks": 113568,
          "time": 80.65901025,
          "velocity": 0.30708661417322836
        },
        {
          "duration": 0.0852271875000099,
          "durationTicks": 120,
          "midi": 60,
          "name": "C4",
          "ticks": 113568,
          "time": 80.65901025,
          "velocity": 0.30708661417322836
        },
        {
          "duration": 0.0852271875000099,
          "durationTicks": 120,
          "midi": 81,
          "name": "A5",
          "ticks": 113568,
          "time": 80.65901025,
          "velocity": 0.30708661417322836
        },
        {
          "duration": 0.0852271875000099,
          "durationTicks": 120,
          "midi": 59,
          "name": "B3",
          "ticks": 113568,
          "time": 80.65901025,
          "velocity": 0.30708661417322836
        },
        {
          "duration": 0.0852271875000099,
          "durationTicks": 120,
          "midi": 69,
          "name": "A4",
          "ticks": 113568,
          "time": 80.65901025,
          "velocity": 0.30708661417322836
        },
        {
          "duration": 0.0852271875000099,
          "durationTicks": 120,
          "midi": 93,
          "name": "A6",
          "ticks": 113568,
          "time": 80.65901025,
          "velocity": 0.30708661417322836
        },
        {
          "duration": 0.0852271875000099,
          "durationTicks": 120,
          "midi": 83,
          "name": "B5",
          "ticks": 113568,
          "time": 80.65901025,
          "velocity": 0.30708661417322836
        },
        {
          "duration": 0.0852271875000099,
          "durationTicks": 120,
          "midi": 72,
          "name": "C5",
          "ticks": 113568,
          "time": 80.65901025,
          "velocity": 0.30708661417322836
        },
        {
          "duration": 0.0852271875000099,
          "durationTicks": 120,
          "midi": 69,
          "name": "A4",
          "ticks": 113568,
          "time": 80.65901025,
          "velocity": 0.30708661417322836
        },
        {
          "duration": 0.0852271875000099,
          "durationTicks": 120,
          "midi": 60,
          "name": "C4",
          "ticks": 113568,
          "time": 80.65901025,
          "velocity": 0.30708661417322836
        },
        {
          "duration": 0.0852271875000099,
          "durationTicks": 120,
          "midi": 72,
          "name": "C5",
          "ticks": 113568,
          "time": 80.65901025,
          "velocity": 0.30708661417322836
        },
        {
          "duration": 0.0852271875000099,
          "durationTicks": 120,
          "midi": 64,
          "name": "E4",
          "ticks": 113568,
          "time": 80.65901025,
          "velocity": 0.30708661417322836
        },
        {
          "duration": 0.0852271875000099,
          "durationTicks": 120,
          "midi": 76,
          "name": "E5",
          "ticks": 113568,
          "time": 80.65901025,
          "velocity": 0.30708661417322836
        },
        {
          "duration": 0.0852271875000099,
          "durationTicks": 120,
          "midi": 84,
          "name": "C6",
          "ticks": 113568,
          "time": 80.65901025,
          "velocity": 0.30708661417322836
        },
        {
          "duration": 0.0852271875000099,
          "durationTicks": 120,
          "midi": 95,
          "name": "B6",
          "ticks": 113568,
          "time": 80.65901025,
          "velocity": 0.30708661417322836
        },
        {
          "duration": 0.0852271875000099,
          "durationTicks": 120,
          "midi": 76,
          "name": "E5",
          "ticks": 113568,
          "time": 80.65901025,
          "velocity": 0.30708661417322836
        },
        {
          "duration": 0.0852271875000099,
          "durationTicks": 120,
          "midi": 71,
          "name": "B4",
          "ticks": 113568,
          "time": 80.65901025,
          "velocity": 0.30708661417322836
        },
        {
          "duration": 0.0852271875000099,
          "durationTicks": 120,
          "midi": 88,
          "name": "E6",
          "ticks": 113568,
          "time": 80.65901025,
          "velocity": 0.30708661417322836
        },
        {
          "duration": 0.0852271875000099,
          "durationTicks": 120,
          "midi": 57,
          "name": "A3",
          "ticks": 113568,
          "time": 80.65901025,
          "velocity": 0.30708661417322836
        },
        {
          "duration": 0.0852271875000099,
          "durationTicks": 120,
          "midi": 84,
          "name": "C6",
          "ticks": 113592,
          "time": 80.6760556875,
          "velocity": 0.30708661417322836
        },
        {
          "duration": 0.0852271875000099,
          "durationTicks": 120,
          "midi": 93,
          "name": "A6",
          "ticks": 113592,
          "time": 80.6760556875,
          "velocity": 0.30708661417322836
        },
        {
          "duration": 0.0852271875000099,
          "durationTicks": 120,
          "midi": 59,
          "name": "B3",
          "ticks": 113592,
          "time": 80.6760556875,
          "velocity": 0.30708661417322836
        },
        {
          "duration": 0.0852271875000099,
          "durationTicks": 120,
          "midi": 60,
          "name": "C4",
          "ticks": 113592,
          "time": 80.6760556875,
          "velocity": 0.30708661417322836
        },
        {
          "duration": 0.0852271875000099,
          "durationTicks": 120,
          "midi": 64,
          "name": "E4",
          "ticks": 113592,
          "time": 80.6760556875,
          "velocity": 0.30708661417322836
        },
        {
          "duration": 0.0852271875000099,
          "durationTicks": 120,
          "midi": 95,
          "name": "B6",
          "ticks": 113592,
          "time": 80.6760556875,
          "velocity": 0.30708661417322836
        },
        {
          "duration": 0.0852271875000099,
          "durationTicks": 120,
          "midi": 88,
          "name": "E6",
          "ticks": 113592,
          "time": 80.6760556875,
          "velocity": 0.30708661417322836
        },
        {
          "duration": 0.0852271875000099,
          "durationTicks": 120,
          "midi": 71,
          "name": "B4",
          "ticks": 113592,
          "time": 80.6760556875,
          "velocity": 0.30708661417322836
        },
        {
          "duration": 0.0852271875000099,
          "durationTicks": 120,
          "midi": 72,
          "name": "C5",
          "ticks": 113592,
          "time": 80.6760556875,
          "velocity": 0.30708661417322836
        },
        {
          "duration": 0.0852271875000099,
          "durationTicks": 120,
          "midi": 83,
          "name": "B5",
          "ticks": 113592,
          "time": 80.6760556875,
          "velocity": 0.30708661417322836
        },
        {
          "duration": 0.0852271875000099,
          "durationTicks": 120,
          "midi": 57,
          "name": "A3",
          "ticks": 113592,
          "time": 80.6760556875,
          "velocity": 0.30708661417322836
        },
        {
          "duration": 0.0852271875000099,
          "durationTicks": 120,
          "midi": 81,
          "name": "A5",
          "ticks": 113592,
          "time": 80.6760556875,
          "velocity": 0.30708661417322836
        },
        {
          "duration": 0.0852271875000099,
          "durationTicks": 120,
          "midi": 76,
          "name": "E5",
          "ticks": 113592,
          "time": 80.6760556875,
          "velocity": 0.30708661417322836
        },
        {
          "duration": 0.0852271875000099,
          "durationTicks": 120,
          "midi": 69,
          "name": "A4",
          "ticks": 113592,
          "time": 80.6760556875,
          "velocity": 0.30708661417322836
        },
        {
          "duration": 0.0852271874999957,
          "durationTicks": 120,
          "midi": 40,
          "name": "E2",
          "ticks": 113952,
          "time": 80.93173725,
          "velocity": 0.30708661417322836
        },
        {
          "duration": 0.0852271874999957,
          "durationTicks": 120,
          "midi": 40,
          "name": "E2",
          "ticks": 113952,
          "time": 80.93173725,
          "velocity": 0.30708661417322836
        },
        {
          "duration": 0.0852271874999957,
          "durationTicks": 120,
          "midi": 40,
          "name": "E2",
          "ticks": 113976,
          "time": 80.9487826875,
          "velocity": 0.30708661417322836
        },
        {
          "duration": 0.0852271874999957,
          "durationTicks": 120,
          "midi": 48,
          "name": "C3",
          "ticks": 114720,
          "time": 81.47719125,
          "velocity": 0.30708661417322836
        },
        {
          "duration": 0.0852271874999957,
          "durationTicks": 120,
          "midi": 52,
          "name": "E3",
          "ticks": 114720,
          "time": 81.47719125,
          "velocity": 0.30708661417322836
        },
        {
          "duration": 0.0852271874999957,
          "durationTicks": 120,
          "midi": 48,
          "name": "C3",
          "ticks": 114720,
          "time": 81.47719125,
          "velocity": 0.30708661417322836
        },
        {
          "duration": 0.0852271874999957,
          "durationTicks": 120,
          "midi": 52,
          "name": "E3",
          "ticks": 114720,
          "time": 81.47719125,
          "velocity": 0.30708661417322836
        },
        {
          "duration": 0.0852271874999957,
          "durationTicks": 120,
          "midi": 48,
          "name": "C3",
          "ticks": 114744,
          "time": 81.4942366875,
          "velocity": 0.30708661417322836
        },
        {
          "duration": 0.0852271874999957,
          "durationTicks": 120,
          "midi": 52,
          "name": "E3",
          "ticks": 114744,
          "time": 81.4942366875,
          "velocity": 0.30708661417322836
        },
        {
          "duration": 0.0852271875000099,
          "durationTicks": 120,
          "midi": 71,
          "name": "B4",
          "ticks": 115104,
          "time": 81.74991825,
          "velocity": 0.30708661417322836
        },
        {
          "duration": 0.0852271875000099,
          "durationTicks": 120,
          "midi": 71,
          "name": "B4",
          "ticks": 115104,
          "time": 81.74991825,
          "velocity": 0.30708661417322836
        },
        {
          "duration": 0.0852271875000099,
          "durationTicks": 120,
          "midi": 76,
          "name": "E5",
          "ticks": 115104,
          "time": 81.74991825,
          "velocity": 0.30708661417322836
        },
        {
          "duration": 0.0852271875000099,
          "durationTicks": 120,
          "midi": 72,
          "name": "C5",
          "ticks": 115104,
          "time": 81.74991825,
          "velocity": 0.30708661417322836
        },
        {
          "duration": 0.0852271875000099,
          "durationTicks": 120,
          "midi": 60,
          "name": "C4",
          "ticks": 115104,
          "time": 81.74991825,
          "velocity": 0.30708661417322836
        },
        {
          "duration": 0.0852271875000099,
          "durationTicks": 120,
          "midi": 72,
          "name": "C5",
          "ticks": 115104,
          "time": 81.74991825,
          "velocity": 0.30708661417322836
        },
        {
          "duration": 0.0852271875000099,
          "durationTicks": 120,
          "midi": 60,
          "name": "C4",
          "ticks": 115104,
          "time": 81.74991825,
          "velocity": 0.30708661417322836
        },
        {
          "duration": 0.0852271875000099,
          "durationTicks": 120,
          "midi": 64,
          "name": "E4",
          "ticks": 115104,
          "time": 81.74991825,
          "velocity": 0.30708661417322836
        },
        {
          "duration": 0.0852271875000099,
          "durationTicks": 120,
          "midi": 55,
          "name": "G3",
          "ticks": 115104,
          "time": 81.74991825,
          "velocity": 0.30708661417322836
        },
        {
          "duration": 0.0852271875000099,
          "durationTicks": 120,
          "midi": 59,
          "name": "B3",
          "ticks": 115104,
          "time": 81.74991825,
          "velocity": 0.30708661417322836
        },
        {
          "duration": 0.0852271875000099,
          "durationTicks": 120,
          "midi": 59,
          "name": "B3",
          "ticks": 115104,
          "time": 81.74991825,
          "velocity": 0.30708661417322836
        },
        {
          "duration": 0.0852271875000099,
          "durationTicks": 120,
          "midi": 55,
          "name": "G3",
          "ticks": 115104,
          "time": 81.74991825,
          "velocity": 0.30708661417322836
        },
        {
          "duration": 0.0852271875000099,
          "durationTicks": 120,
          "midi": 67,
          "name": "G4",
          "ticks": 115104,
          "time": 81.74991825,
          "velocity": 0.30708661417322836
        },
        {
          "duration": 0.0852271875000099,
          "durationTicks": 120,
          "midi": 67,
          "name": "G4",
          "ticks": 115104,
          "time": 81.74991825,
          "velocity": 0.30708661417322836
        },
        {
          "duration": 0.0852271875000099,
          "durationTicks": 120,
          "midi": 64,
          "name": "E4",
          "ticks": 115104,
          "time": 81.74991825,
          "velocity": 0.30708661417322836
        },
        {
          "duration": 0.0852271875000099,
          "durationTicks": 120,
          "midi": 76,
          "name": "E5",
          "ticks": 115104,
          "time": 81.74991825,
          "velocity": 0.30708661417322836
        },
        {
          "duration": 0.0852271875000099,
          "durationTicks": 120,
          "midi": 59,
          "name": "B3",
          "ticks": 115128,
          "time": 81.7669636875,
          "velocity": 0.30708661417322836
        },
        {
          "duration": 0.0852271875000099,
          "durationTicks": 120,
          "midi": 67,
          "name": "G4",
          "ticks": 115128,
          "time": 81.7669636875,
          "velocity": 0.30708661417322836
        },
        {
          "duration": 0.0852271875000099,
          "durationTicks": 120,
          "midi": 71,
          "name": "B4",
          "ticks": 115128,
          "time": 81.7669636875,
          "velocity": 0.30708661417322836
        },
        {
          "duration": 0.0852271875000099,
          "durationTicks": 120,
          "midi": 60,
          "name": "C4",
          "ticks": 115128,
          "time": 81.7669636875,
          "velocity": 0.30708661417322836
        },
        {
          "duration": 0.0852271875000099,
          "durationTicks": 120,
          "midi": 64,
          "name": "E4",
          "ticks": 115128,
          "time": 81.7669636875,
          "velocity": 0.30708661417322836
        },
        {
          "duration": 0.0852271875000099,
          "durationTicks": 120,
          "midi": 76,
          "name": "E5",
          "ticks": 115128,
          "time": 81.7669636875,
          "velocity": 0.30708661417322836
        },
        {
          "duration": 0.0852271875000099,
          "durationTicks": 120,
          "midi": 72,
          "name": "C5",
          "ticks": 115128,
          "time": 81.7669636875,
          "velocity": 0.30708661417322836
        },
        {
          "duration": 0.0852271875000099,
          "durationTicks": 120,
          "midi": 55,
          "name": "G3",
          "ticks": 115128,
          "time": 81.7669636875,
          "velocity": 0.30708661417322836
        },
        {
          "duration": 0.4943176875000006,
          "durationTicks": 696,
          "midi": 33,
          "name": "A1",
          "ticks": 115488,
          "time": 82.02264525,
          "velocity": 0.30708661417322836
        },
        {
          "duration": 0.4943176875000006,
          "durationTicks": 696,
          "midi": 45,
          "name": "A2",
          "ticks": 115488,
          "time": 82.02264525,
          "velocity": 0.30708661417322836
        },
        {
          "duration": 0.4943176875000006,
          "durationTicks": 696,
          "midi": 45,
          "name": "A2",
          "ticks": 115488,
          "time": 82.02264525,
          "velocity": 0.30708661417322836
        },
        {
          "duration": 0.4943176875000006,
          "durationTicks": 696,
          "midi": 33,
          "name": "A1",
          "ticks": 115488,
          "time": 82.02264525,
          "velocity": 0.30708661417322836
        },
        {
          "duration": 0.4943176875000006,
          "durationTicks": 696,
          "midi": 45,
          "name": "A2",
          "ticks": 115512,
          "time": 82.0396906875,
          "velocity": 0.30708661417322836
        },
        {
          "duration": 0.4943176875000006,
          "durationTicks": 696,
          "midi": 33,
          "name": "A1",
          "ticks": 115512,
          "time": 82.0396906875,
          "velocity": 0.30708661417322836
        },
        {
          "duration": 0.0852271874999957,
          "durationTicks": 120,
          "midi": 52,
          "name": "E3",
          "ticks": 116112,
          "time": 82.465826625,
          "velocity": 0.30708661417322836
        },
        {
          "duration": 0.0852271874999957,
          "durationTicks": 120,
          "midi": 48,
          "name": "C3",
          "ticks": 116112,
          "time": 82.465826625,
          "velocity": 0.30708661417322836
        },
        {
          "duration": 0.0852271874999957,
          "durationTicks": 120,
          "midi": 48,
          "name": "C3",
          "ticks": 116112,
          "time": 82.465826625,
          "velocity": 0.30708661417322836
        },
        {
          "duration": 0.0852271874999957,
          "durationTicks": 120,
          "midi": 52,
          "name": "E3",
          "ticks": 116112,
          "time": 82.465826625,
          "velocity": 0.30708661417322836
        },
        {
          "duration": 0.0852271875000099,
          "durationTicks": 120,
          "midi": 48,
          "name": "C3",
          "ticks": 116136,
          "time": 82.4828720625,
          "velocity": 0.30708661417322836
        },
        {
          "duration": 0.0852271875000099,
          "durationTicks": 120,
          "midi": 52,
          "name": "E3",
          "ticks": 116136,
          "time": 82.4828720625,
          "velocity": 0.30708661417322836
        },
        {
          "duration": 0.0852271874999957,
          "durationTicks": 120,
          "midi": 60,
          "name": "C4",
          "ticks": 116448,
          "time": 82.70446275,
          "velocity": 0.30708661417322836
        },
        {
          "duration": 0.0852271874999957,
          "durationTicks": 120,
          "midi": 57,
          "name": "A3",
          "ticks": 116448,
          "time": 82.70446275,
          "velocity": 0.30708661417322836
        },
        {
          "duration": 0.0852271874999957,
          "durationTicks": 120,
          "midi": 60,
          "name": "C4",
          "ticks": 116448,
          "time": 82.70446275,
          "velocity": 0.30708661417322836
        },
        {
          "duration": 0.0852271874999957,
          "durationTicks": 120,
          "midi": 59,
          "name": "B3",
          "ticks": 116448,
          "time": 82.70446275,
          "velocity": 0.30708661417322836
        },
        {
          "duration": 0.0852271874999957,
          "durationTicks": 120,
          "midi": 71,
          "name": "B4",
          "ticks": 116448,
          "time": 82.70446275,
          "velocity": 0.30708661417322836
        },
        {
          "duration": 0.0852271874999957,
          "durationTicks": 120,
          "midi": 84,
          "name": "C6",
          "ticks": 116448,
          "time": 82.70446275,
          "velocity": 0.30708661417322836
        },
        {
          "duration": 0.0852271874999957,
          "durationTicks": 120,
          "midi": 83,
          "name": "B5",
          "ticks": 116448,
          "time": 82.70446275,
          "velocity": 0.30708661417322836
        },
        {
          "duration": 0.0852271874999957,
          "durationTicks": 120,
          "midi": 69,
          "name": "A4",
          "ticks": 116448,
          "time": 82.70446275,
          "velocity": 0.30708661417322836
        },
        {
          "duration": 0.0852271874999957,
          "durationTicks": 120,
          "midi": 72,
          "name": "C5",
          "ticks": 116448,
          "time": 82.70446275,
          "velocity": 0.30708661417322836
        },
        {
          "duration": 0.0852271874999957,
          "durationTicks": 120,
          "midi": 71,
          "name": "B4",
          "ticks": 116448,
          "time": 82.70446275,
          "velocity": 0.30708661417322836
        },
        {
          "duration": 0.0852271874999957,
          "durationTicks": 120,
          "midi": 64,
          "name": "E4",
          "ticks": 116448,
          "time": 82.70446275,
          "velocity": 0.30708661417322836
        },
        {
          "duration": 0.0852271874999957,
          "durationTicks": 120,
          "midi": 83,
          "name": "B5",
          "ticks": 116448,
          "time": 82.70446275,
          "velocity": 0.30708661417322836
        },
        {
          "duration": 0.0852271874999957,
          "durationTicks": 120,
          "midi": 93,
          "name": "A6",
          "ticks": 116448,
          "time": 82.70446275,
          "velocity": 0.30708661417322836
        },
        {
          "duration": 0.0852271874999957,
          "durationTicks": 120,
          "midi": 84,
          "name": "C6",
          "ticks": 116448,
          "time": 82.70446275,
          "velocity": 0.30708661417322836
        },
        {
          "duration": 0.0852271874999957,
          "durationTicks": 120,
          "midi": 88,
          "name": "E6",
          "ticks": 116448,
          "time": 82.70446275,
          "velocity": 0.30708661417322836
        },
        {
          "duration": 0.0852271874999957,
          "durationTicks": 120,
          "midi": 93,
          "name": "A6",
          "ticks": 116448,
          "time": 82.70446275,
          "velocity": 0.30708661417322836
        },
        {
          "duration": 0.0852271874999957,
          "durationTicks": 120,
          "midi": 59,
          "name": "B3",
          "ticks": 116448,
          "time": 82.70446275,
          "velocity": 0.30708661417322836
        },
        {
          "duration": 0.0852271874999957,
          "durationTicks": 120,
          "midi": 81,
          "name": "A5",
          "ticks": 116448,
          "time": 82.70446275,
          "velocity": 0.30708661417322836
        },
        {
          "duration": 0.0852271874999957,
          "durationTicks": 120,
          "midi": 76,
          "name": "E5",
          "ticks": 116448,
          "time": 82.70446275,
          "velocity": 0.30708661417322836
        },
        {
          "duration": 0.0852271874999957,
          "durationTicks": 120,
          "midi": 72,
          "name": "C5",
          "ticks": 116448,
          "time": 82.70446275,
          "velocity": 0.30708661417322836
        },
        {
          "duration": 0.0852271874999957,
          "durationTicks": 120,
          "midi": 95,
          "name": "B6",
          "ticks": 116448,
          "time": 82.70446275,
          "velocity": 0.30708661417322836
        },
        {
          "duration": 0.0852271874999957,
          "durationTicks": 120,
          "midi": 76,
          "name": "E5",
          "ticks": 116448,
          "time": 82.70446275,
          "velocity": 0.30708661417322836
        },
        {
          "duration": 0.0852271874999957,
          "durationTicks": 120,
          "midi": 88,
          "name": "E6",
          "ticks": 116448,
          "time": 82.70446275,
          "velocity": 0.30708661417322836
        },
        {
          "duration": 0.0852271874999957,
          "durationTicks": 120,
          "midi": 64,
          "name": "E4",
          "ticks": 116448,
          "time": 82.70446275,
          "velocity": 0.30708661417322836
        },
        {
          "duration": 0.0852271874999957,
          "durationTicks": 120,
          "midi": 69,
          "name": "A4",
          "ticks": 116448,
          "time": 82.70446275,
          "velocity": 0.30708661417322836
        },
        {
          "duration": 0.0852271874999957,
          "durationTicks": 120,
          "midi": 95,
          "name": "B6",
          "ticks": 116448,
          "time": 82.70446275,
          "velocity": 0.30708661417322836
        },
        {
          "duration": 0.0852271874999957,
          "durationTicks": 120,
          "midi": 57,
          "name": "A3",
          "ticks": 116448,
          "time": 82.70446275,
          "velocity": 0.30708661417322836
        },
        {
          "duration": 0.0852271874999957,
          "durationTicks": 120,
          "midi": 81,
          "name": "A5",
          "ticks": 116448,
          "time": 82.70446275,
          "velocity": 0.30708661417322836
        },
        {
          "duration": 0.0852271875000099,
          "durationTicks": 120,
          "midi": 88,
          "name": "E6",
          "ticks": 116472,
          "time": 82.72150818749999,
          "velocity": 0.30708661417322836
        },
        {
          "duration": 0.0852271875000099,
          "durationTicks": 120,
          "midi": 93,
          "name": "A6",
          "ticks": 116472,
          "time": 82.72150818749999,
          "velocity": 0.30708661417322836
        },
        {
          "duration": 0.0852271875000099,
          "durationTicks": 120,
          "midi": 84,
          "name": "C6",
          "ticks": 116472,
          "time": 82.72150818749999,
          "velocity": 0.30708661417322836
        },
        {
          "duration": 0.0852271875000099,
          "durationTicks": 120,
          "midi": 59,
          "name": "B3",
          "ticks": 116472,
          "time": 82.72150818749999,
          "velocity": 0.30708661417322836
        },
        {
          "duration": 0.0852271875000099,
          "durationTicks": 120,
          "midi": 64,
          "name": "E4",
          "ticks": 116472,
          "time": 82.72150818749999,
          "velocity": 0.30708661417322836
        },
        {
          "duration": 0.0852271875000099,
          "durationTicks": 120,
          "midi": 71,
          "name": "B4",
          "ticks": 116472,
          "time": 82.72150818749999,
          "velocity": 0.30708661417322836
        },
        {
          "duration": 0.0852271875000099,
          "durationTicks": 120,
          "midi": 72,
          "name": "C5",
          "ticks": 116472,
          "time": 82.72150818749999,
          "velocity": 0.30708661417322836
        },
        {
          "duration": 0.0852271875000099,
          "durationTicks": 120,
          "midi": 81,
          "name": "A5",
          "ticks": 116472,
          "time": 82.72150818749999,
          "velocity": 0.30708661417322836
        },
        {
          "duration": 0.0852271875000099,
          "durationTicks": 120,
          "midi": 69,
          "name": "A4",
          "ticks": 116472,
          "time": 82.72150818749999,
          "velocity": 0.30708661417322836
        },
        {
          "duration": 0.0852271875000099,
          "durationTicks": 120,
          "midi": 76,
          "name": "E5",
          "ticks": 116472,
          "time": 82.72150818749999,
          "velocity": 0.30708661417322836
        },
        {
          "duration": 0.0852271875000099,
          "durationTicks": 120,
          "midi": 60,
          "name": "C4",
          "ticks": 116472,
          "time": 82.72150818749999,
          "velocity": 0.30708661417322836
        },
        {
          "duration": 0.0852271875000099,
          "durationTicks": 120,
          "midi": 57,
          "name": "A3",
          "ticks": 116472,
          "time": 82.72150818749999,
          "velocity": 0.30708661417322836
        },
        {
          "duration": 0.0852271875000099,
          "durationTicks": 120,
          "midi": 83,
          "name": "B5",
          "ticks": 116472,
          "time": 82.72150818749999,
          "velocity": 0.30708661417322836
        },
        {
          "duration": 0.0852271875000099,
          "durationTicks": 120,
          "midi": 95,
          "name": "B6",
          "ticks": 116472,
          "time": 82.72150818749999,
          "velocity": 0.30708661417322836
        },
        {
          "duration": 0.0852271875000099,
          "durationTicks": 120,
          "midi": 40,
          "name": "E2",
          "ticks": 116688,
          "time": 82.874917125,
          "velocity": 0.30708661417322836
        },
        {
          "duration": 0.0852271875000099,
          "durationTicks": 120,
          "midi": 40,
          "name": "E2",
          "ticks": 116688,
          "time": 82.874917125,
          "velocity": 0.30708661417322836
        },
        {
          "duration": 0.0852271874999957,
          "durationTicks": 120,
          "midi": 40,
          "name": "E2",
          "ticks": 116712,
          "time": 82.8919625625,
          "velocity": 0.30708661417322836
        },
        {
          "duration": 0.0852271874999957,
          "durationTicks": 120,
          "midi": 48,
          "name": "C3",
          "ticks": 117264,
          "time": 83.284007625,
          "velocity": 0.30708661417322836
        },
        {
          "duration": 0.0852271874999957,
          "durationTicks": 120,
          "midi": 52,
          "name": "E3",
          "ticks": 117264,
          "time": 83.284007625,
          "velocity": 0.30708661417322836
        },
        {
          "duration": 0.0852271874999957,
          "durationTicks": 120,
          "midi": 52,
          "name": "E3",
          "ticks": 117264,
          "time": 83.284007625,
          "velocity": 0.30708661417322836
        },
        {
          "duration": 0.0852271874999957,
          "durationTicks": 120,
          "midi": 48,
          "name": "C3",
          "ticks": 117264,
          "time": 83.284007625,
          "velocity": 0.30708661417322836
        },
        {
          "duration": 0.0852271874999957,
          "durationTicks": 120,
          "midi": 52,
          "name": "E3",
          "ticks": 117288,
          "time": 83.3010530625,
          "velocity": 0.30708661417322836
        },
        {
          "duration": 0.0852271874999957,
          "durationTicks": 120,
          "midi": 48,
          "name": "C3",
          "ticks": 117288,
          "time": 83.3010530625,
          "velocity": 0.30708661417322836
        },
        {
          "duration": 0.0852271875000099,
          "durationTicks": 120,
          "midi": 60,
          "name": "C4",
          "ticks": 117504,
          "time": 83.45446199999999,
          "velocity": 0.30708661417322836
        },
        {
          "duration": 0.0852271875000099,
          "durationTicks": 120,
          "midi": 72,
          "name": "C5",
          "ticks": 117504,
          "time": 83.45446199999999,
          "velocity": 0.30708661417322836
        },
        {
          "duration": 0.0852271875000099,
          "durationTicks": 120,
          "midi": 76,
          "name": "E5",
          "ticks": 117504,
          "time": 83.45446199999999,
          "velocity": 0.30708661417322836
        },
        {
          "duration": 0.0852271875000099,
          "durationTicks": 120,
          "midi": 59,
          "name": "B3",
          "ticks": 117504,
          "time": 83.45446199999999,
          "velocity": 0.30708661417322836
        },
        {
          "duration": 0.0852271875000099,
          "durationTicks": 120,
          "midi": 64,
          "name": "E4",
          "ticks": 117504,
          "time": 83.45446199999999,
          "velocity": 0.30708661417322836
        },
        {
          "duration": 0.0852271875000099,
          "durationTicks": 120,
          "midi": 71,
          "name": "B4",
          "ticks": 117504,
          "time": 83.45446199999999,
          "velocity": 0.30708661417322836
        },
        {
          "duration": 0.0852271875000099,
          "durationTicks": 120,
          "midi": 59,
          "name": "B3",
          "ticks": 117504,
          "time": 83.45446199999999,
          "velocity": 0.30708661417322836
        },
        {
          "duration": 0.0852271875000099,
          "durationTicks": 120,
          "midi": 72,
          "name": "C5",
          "ticks": 117504,
          "time": 83.45446199999999,
          "velocity": 0.30708661417322836
        },
        {
          "duration": 0.0852271875000099,
          "durationTicks": 120,
          "midi": 55,
          "name": "G3",
          "ticks": 117504,
          "time": 83.45446199999999,
          "velocity": 0.30708661417322836
        },
        {
          "duration": 0.0852271875000099,
          "durationTicks": 120,
          "midi": 67,
          "name": "G4",
          "ticks": 117504,
          "time": 83.45446199999999,
          "velocity": 0.30708661417322836
        },
        {
          "duration": 0.0852271875000099,
          "durationTicks": 120,
          "midi": 71,
          "name": "B4",
          "ticks": 117504,
          "time": 83.45446199999999,
          "velocity": 0.30708661417322836
        },
        {
          "duration": 0.0852271875000099,
          "durationTicks": 120,
          "midi": 60,
          "name": "C4",
          "ticks": 117504,
          "time": 83.45446199999999,
          "velocity": 0.30708661417322836
        },
        {
          "duration": 0.0852271875000099,
          "durationTicks": 120,
          "midi": 64,
          "name": "E4",
          "ticks": 117504,
          "time": 83.45446199999999,
          "velocity": 0.30708661417322836
        },
        {
          "duration": 0.0852271875000099,
          "durationTicks": 120,
          "midi": 67,
          "name": "G4",
          "ticks": 117504,
          "time": 83.45446199999999,
          "velocity": 0.30708661417322836
        },
        {
          "duration": 0.0852271875000099,
          "durationTicks": 120,
          "midi": 55,
          "name": "G3",
          "ticks": 117504,
          "time": 83.45446199999999,
          "velocity": 0.30708661417322836
        },
        {
          "duration": 0.0852271875000099,
          "durationTicks": 120,
          "midi": 76,
          "name": "E5",
          "ticks": 117504,
          "time": 83.45446199999999,
          "velocity": 0.30708661417322836
        },
        {
          "duration": 0.0852271875000099,
          "durationTicks": 120,
          "midi": 60,
          "name": "C4",
          "ticks": 117528,
          "time": 83.4715074375,
          "velocity": 0.30708661417322836
        },
        {
          "duration": 0.0852271875000099,
          "durationTicks": 120,
          "midi": 59,
          "name": "B3",
          "ticks": 117528,
          "time": 83.4715074375,
          "velocity": 0.30708661417322836
        },
        {
          "duration": 0.0852271875000099,
          "durationTicks": 120,
          "midi": 67,
          "name": "G4",
          "ticks": 117528,
          "time": 83.4715074375,
          "velocity": 0.30708661417322836
        },
        {
          "duration": 0.0852271875000099,
          "durationTicks": 120,
          "midi": 72,
          "name": "C5",
          "ticks": 117528,
          "time": 83.4715074375,
          "velocity": 0.30708661417322836
        },
        {
          "duration": 0.0852271875000099,
          "durationTicks": 120,
          "midi": 64,
          "name": "E4",
          "ticks": 117528,
          "time": 83.4715074375,
          "velocity": 0.30708661417322836
        },
        {
          "duration": 0.0852271875000099,
          "durationTicks": 120,
          "midi": 71,
          "name": "B4",
          "ticks": 117528,
          "time": 83.4715074375,
          "velocity": 0.30708661417322836
        },
        {
          "duration": 0.0852271875000099,
          "durationTicks": 120,
          "midi": 55,
          "name": "G3",
          "ticks": 117528,
          "time": 83.4715074375,
          "velocity": 0.30708661417322836
        },
        {
          "duration": 0.0852271875000099,
          "durationTicks": 120,
          "midi": 76,
          "name": "E5",
          "ticks": 117528,
          "time": 83.4715074375,
          "velocity": 0.30708661417322836
        },
        {
          "duration": 0.4943176875000006,
          "durationTicks": 696,
          "midi": 33,
          "name": "A1",
          "ticks": 117792,
          "time": 83.65900725,
          "velocity": 0.30708661417322836
        },
        {
          "duration": 0.4943176875000006,
          "durationTicks": 696,
          "midi": 57,
          "name": "A3",
          "ticks": 117792,
          "time": 83.65900725,
          "velocity": 0.30708661417322836
        },
        {
          "duration": 0.4943176875000006,
          "durationTicks": 696,
          "midi": 45,
          "name": "A2",
          "ticks": 117792,
          "time": 83.65900725,
          "velocity": 0.30708661417322836
        },
        {
          "duration": 0.4943176875000006,
          "durationTicks": 696,
          "midi": 33,
          "name": "A1",
          "ticks": 117792,
          "time": 83.65900725,
          "velocity": 0.30708661417322836
        },
        {
          "duration": 0.4943176875000006,
          "durationTicks": 696,
          "midi": 57,
          "name": "A3",
          "ticks": 117792,
          "time": 83.65900725,
          "velocity": 0.30708661417322836
        },
        {
          "duration": 0.4943176875000006,
          "durationTicks": 696,
          "midi": 45,
          "name": "A2",
          "ticks": 117792,
          "time": 83.65900725,
          "velocity": 0.30708661417322836
        },
        {
          "duration": 0.4943176875000006,
          "durationTicks": 696,
          "midi": 57,
          "name": "A3",
          "ticks": 117816,
          "time": 83.6760526875,
          "velocity": 0.30708661417322836
        },
        {
          "duration": 0.4943176875000006,
          "durationTicks": 696,
          "midi": 45,
          "name": "A2",
          "ticks": 117816,
          "time": 83.6760526875,
          "velocity": 0.30708661417322836
        },
        {
          "duration": 0.4943176875000006,
          "durationTicks": 696,
          "midi": 33,
          "name": "A1",
          "ticks": 117816,
          "time": 83.6760526875,
          "velocity": 0.30708661417322836
        },
        {
          "duration": 0.0852271874999957,
          "durationTicks": 120,
          "midi": 52,
          "name": "E3",
          "ticks": 118320,
          "time": 84.034006875,
          "velocity": 0.30708661417322836
        },
        {
          "duration": 0.0852271874999957,
          "durationTicks": 120,
          "midi": 52,
          "name": "E3",
          "ticks": 118320,
          "time": 84.034006875,
          "velocity": 0.30708661417322836
        },
        {
          "duration": 0.0852271874999957,
          "durationTicks": 120,
          "midi": 48,
          "name": "C3",
          "ticks": 118320,
          "time": 84.034006875,
          "velocity": 0.30708661417322836
        },
        {
          "duration": 0.0852271874999957,
          "durationTicks": 120,
          "midi": 48,
          "name": "C3",
          "ticks": 118320,
          "time": 84.034006875,
          "velocity": 0.30708661417322836
        },
        {
          "duration": 0.0852271874999957,
          "durationTicks": 120,
          "midi": 52,
          "name": "E3",
          "ticks": 118344,
          "time": 84.0510523125,
          "velocity": 0.30708661417322836
        },
        {
          "duration": 0.0852271874999957,
          "durationTicks": 120,
          "midi": 48,
          "name": "C3",
          "ticks": 118344,
          "time": 84.0510523125,
          "velocity": 0.30708661417322836
        },
        {
          "duration": 0.0852271875000099,
          "durationTicks": 120,
          "midi": 93,
          "name": "A6",
          "ticks": 118560,
          "time": 84.20446125,
          "velocity": 0.30708661417322836
        },
        {
          "duration": 0.0852271875000099,
          "durationTicks": 120,
          "midi": 57,
          "name": "A3",
          "ticks": 118560,
          "time": 84.20446125,
          "velocity": 0.30708661417322836
        },
        {
          "duration": 0.0852271875000099,
          "durationTicks": 120,
          "midi": 84,
          "name": "C6",
          "ticks": 118560,
          "time": 84.20446125,
          "velocity": 0.30708661417322836
        },
        {
          "duration": 0.0852271875000099,
          "durationTicks": 120,
          "midi": 88,
          "name": "E6",
          "ticks": 118560,
          "time": 84.20446125,
          "velocity": 0.30708661417322836
        },
        {
          "duration": 0.0852271875000099,
          "durationTicks": 120,
          "midi": 72,
          "name": "C5",
          "ticks": 118560,
          "time": 84.20446125,
          "velocity": 0.30708661417322836
        },
        {
          "duration": 0.0852271875000099,
          "durationTicks": 120,
          "midi": 84,
          "name": "C6",
          "ticks": 118560,
          "time": 84.20446125,
          "velocity": 0.30708661417322836
        },
        {
          "duration": 0.0852271875000099,
          "durationTicks": 120,
          "midi": 64,
          "name": "E4",
          "ticks": 118560,
          "time": 84.20446125,
          "velocity": 0.30708661417322836
        },
        {
          "duration": 0.0852271875000099,
          "durationTicks": 120,
          "midi": 81,
          "name": "A5",
          "ticks": 118560,
          "time": 84.20446125,
          "velocity": 0.30708661417322836
        },
        {
          "duration": 0.0852271875000099,
          "durationTicks": 120,
          "midi": 60,
          "name": "C4",
          "ticks": 118560,
          "time": 84.20446125,
          "velocity": 0.30708661417322836
        },
        {
          "duration": 0.0852271875000099,
          "durationTicks": 120,
          "midi": 69,
          "name": "A4",
          "ticks": 118560,
          "time": 84.20446125,
          "velocity": 0.30708661417322836
        },
        {
          "duration": 0.0852271875000099,
          "durationTicks": 120,
          "midi": 72,
          "name": "C5",
          "ticks": 118560,
          "time": 84.20446125,
          "velocity": 0.30708661417322836
        },
        {
          "duration": 0.0852271875000099,
          "durationTicks": 120,
          "midi": 59,
          "name": "B3",
          "ticks": 118560,
          "time": 84.20446125,
          "velocity": 0.30708661417322836
        },
        {
          "duration": 0.0852271875000099,
          "durationTicks": 120,
          "midi": 95,
          "name": "B6",
          "ticks": 118560,
          "time": 84.20446125,
          "velocity": 0.30708661417322836
        },
        {
          "duration": 0.0852271875000099,
          "durationTicks": 120,
          "midi": 81,
          "name": "A5",
          "ticks": 118560,
          "time": 84.20446125,
          "velocity": 0.30708661417322836
        },
        {
          "duration": 0.0852271875000099,
          "durationTicks": 120,
          "midi": 59,
          "name": "B3",
          "ticks": 118560,
          "time": 84.20446125,
          "velocity": 0.30708661417322836
        },
        {
          "duration": 0.0852271875000099,
          "durationTicks": 120,
          "midi": 95,
          "name": "B6",
          "ticks": 118560,
          "time": 84.20446125,
          "velocity": 0.30708661417322836
        },
        {
          "duration": 0.0852271875000099,
          "durationTicks": 120,
          "midi": 60,
          "name": "C4",
          "ticks": 118560,
          "time": 84.20446125,
          "velocity": 0.30708661417322836
        },
        {
          "duration": 0.0852271875000099,
          "durationTicks": 120,
          "midi": 57,
          "name": "A3",
          "ticks": 118560,
          "time": 84.20446125,
          "velocity": 0.30708661417322836
        },
        {
          "duration": 0.0852271875000099,
          "durationTicks": 120,
          "midi": 69,
          "name": "A4",
          "ticks": 118560,
          "time": 84.20446125,
          "velocity": 0.30708661417322836
        },
        {
          "duration": 0.0852271875000099,
          "durationTicks": 120,
          "midi": 76,
          "name": "E5",
          "ticks": 118560,
          "time": 84.20446125,
          "velocity": 0.30708661417322836
        },
        {
          "duration": 0.0852271875000099,
          "durationTicks": 120,
          "midi": 76,
          "name": "E5",
          "ticks": 118560,
          "time": 84.20446125,
          "velocity": 0.30708661417322836
        },
        {
          "duration": 0.0852271875000099,
          "durationTicks": 120,
          "midi": 71,
          "name": "B4",
          "ticks": 118560,
          "time": 84.20446125,
          "velocity": 0.30708661417322836
        },
        {
          "duration": 0.0852271875000099,
          "durationTicks": 120,
          "midi": 88,
          "name": "E6",
          "ticks": 118560,
          "time": 84.20446125,
          "velocity": 0.30708661417322836
        },
        {
          "duration": 0.0852271875000099,
          "durationTicks": 120,
          "midi": 83,
          "name": "B5",
          "ticks": 118560,
          "time": 84.20446125,
          "velocity": 0.30708661417322836
        },
        {
          "duration": 0.0852271875000099,
          "durationTicks": 120,
          "midi": 93,
          "name": "A6",
          "ticks": 118560,
          "time": 84.20446125,
          "velocity": 0.30708661417322836
        },
        {
          "duration": 0.0852271875000099,
          "durationTicks": 120,
          "midi": 83,
          "name": "B5",
          "ticks": 118560,
          "time": 84.20446125,
          "velocity": 0.30708661417322836
        },
        {
          "duration": 0.0852271875000099,
          "durationTicks": 120,
          "midi": 71,
          "name": "B4",
          "ticks": 118560,
          "time": 84.20446125,
          "velocity": 0.30708661417322836
        },
        {
          "duration": 0.0852271875000099,
          "durationTicks": 120,
          "midi": 64,
          "name": "E4",
          "ticks": 118560,
          "time": 84.20446125,
          "velocity": 0.30708661417322836
        },
        {
          "duration": 0.0852271875000099,
          "durationTicks": 120,
          "midi": 59,
          "name": "B3",
          "ticks": 118584,
          "time": 84.2215066875,
          "velocity": 0.30708661417322836
        },
        {
          "duration": 0.0852271875000099,
          "durationTicks": 120,
          "midi": 57,
          "name": "A3",
          "ticks": 118584,
          "time": 84.2215066875,
          "velocity": 0.30708661417322836
        },
        {
          "duration": 0.0852271875000099,
          "durationTicks": 120,
          "midi": 64,
          "name": "E4",
          "ticks": 118584,
          "time": 84.2215066875,
          "velocity": 0.30708661417322836
        },
        {
          "duration": 0.0852271875000099,
          "durationTicks": 120,
          "midi": 69,
          "name": "A4",
          "ticks": 118584,
          "time": 84.2215066875,
          "velocity": 0.30708661417322836
        },
        {
          "duration": 0.0852271875000099,
          "durationTicks": 120,
          "midi": 81,
          "name": "A5",
          "ticks": 118584,
          "time": 84.2215066875,
          "velocity": 0.30708661417322836
        },
        {
          "duration": 0.0852271875000099,
          "durationTicks": 120,
          "midi": 84,
          "name": "C6",
          "ticks": 118584,
          "time": 84.2215066875,
          "velocity": 0.30708661417322836
        },
        {
          "duration": 0.0852271875000099,
          "durationTicks": 120,
          "midi": 60,
          "name": "C4",
          "ticks": 118584,
          "time": 84.2215066875,
          "velocity": 0.30708661417322836
        },
        {
          "duration": 0.0852271875000099,
          "durationTicks": 120,
          "midi": 93,
          "name": "A6",
          "ticks": 118584,
          "time": 84.2215066875,
          "velocity": 0.30708661417322836
        },
        {
          "duration": 0.0852271875000099,
          "durationTicks": 120,
          "midi": 76,
          "name": "E5",
          "ticks": 118584,
          "time": 84.2215066875,
          "velocity": 0.30708661417322836
        },
        {
          "duration": 0.0852271875000099,
          "durationTicks": 120,
          "midi": 95,
          "name": "B6",
          "ticks": 118584,
          "time": 84.2215066875,
          "velocity": 0.30708661417322836
        },
        {
          "duration": 0.0852271875000099,
          "durationTicks": 120,
          "midi": 71,
          "name": "B4",
          "ticks": 118584,
          "time": 84.2215066875,
          "velocity": 0.30708661417322836
        },
        {
          "duration": 0.0852271875000099,
          "durationTicks": 120,
          "midi": 83,
          "name": "B5",
          "ticks": 118584,
          "time": 84.2215066875,
          "velocity": 0.30708661417322836
        },
        {
          "duration": 0.0852271875000099,
          "durationTicks": 120,
          "midi": 72,
          "name": "C5",
          "ticks": 118584,
          "time": 84.2215066875,
          "velocity": 0.30708661417322836
        },
        {
          "duration": 0.0852271875000099,
          "durationTicks": 120,
          "midi": 88,
          "name": "E6",
          "ticks": 118584,
          "time": 84.2215066875,
          "velocity": 0.30708661417322836
        },
        {
          "duration": 0.0852271874999957,
          "durationTicks": 120,
          "midi": 40,
          "name": "E2",
          "ticks": 118800,
          "time": 84.374915625,
          "velocity": 0.30708661417322836
        },
        {
          "duration": 0.0852271874999957,
          "durationTicks": 120,
          "midi": 52,
          "name": "E3",
          "ticks": 118800,
          "time": 84.374915625,
          "velocity": 0.30708661417322836
        },
        {
          "duration": 0.0852271874999957,
          "durationTicks": 120,
          "midi": 52,
          "name": "E3",
          "ticks": 118800,
          "time": 84.374915625,
          "velocity": 0.30708661417322836
        },
        {
          "duration": 0.0852271874999957,
          "durationTicks": 120,
          "midi": 40,
          "name": "E2",
          "ticks": 118800,
          "time": 84.374915625,
          "velocity": 0.30708661417322836
        },
        {
          "duration": 0.0852271874999957,
          "durationTicks": 120,
          "midi": 52,
          "name": "E3",
          "ticks": 118824,
          "time": 84.3919610625,
          "velocity": 0.30708661417322836
        },
        {
          "duration": 0.0852271874999957,
          "durationTicks": 120,
          "midi": 40,
          "name": "E2",
          "ticks": 118824,
          "time": 84.3919610625,
          "velocity": 0.30708661417322836
        },
        {
          "duration": 0.0852271874999957,
          "durationTicks": 120,
          "midi": 48,
          "name": "C3",
          "ticks": 119280,
          "time": 84.715824375,
          "velocity": 0.30708661417322836
        },
        {
          "duration": 0.0852271874999957,
          "durationTicks": 120,
          "midi": 52,
          "name": "E3",
          "ticks": 119280,
          "time": 84.715824375,
          "velocity": 0.30708661417322836
        },
        {
          "duration": 0.0852271874999957,
          "durationTicks": 120,
          "midi": 48,
          "name": "C3",
          "ticks": 119280,
          "time": 84.715824375,
          "velocity": 0.30708661417322836
        },
        {
          "duration": 0.0852271874999957,
          "durationTicks": 120,
          "midi": 52,
          "name": "E3",
          "ticks": 119280,
          "time": 84.715824375,
          "velocity": 0.30708661417322836
        },
        {
          "duration": 0.0852271874999957,
          "durationTicks": 120,
          "midi": 52,
          "name": "E3",
          "ticks": 119304,
          "time": 84.7328698125,
          "velocity": 0.30708661417322836
        },
        {
          "duration": 0.0852271874999957,
          "durationTicks": 120,
          "midi": 48,
          "name": "C3",
          "ticks": 119304,
          "time": 84.7328698125,
          "velocity": 0.30708661417322836
        },
        {
          "duration": 0.0852271874999957,
          "durationTicks": 120,
          "midi": 59,
          "name": "B3",
          "ticks": 119472,
          "time": 84.852187875,
          "velocity": 0.30708661417322836
        },
        {
          "duration": 0.0852271874999957,
          "durationTicks": 120,
          "midi": 72,
          "name": "C5",
          "ticks": 119472,
          "time": 84.852187875,
          "velocity": 0.30708661417322836
        },
        {
          "duration": 0.0852271874999957,
          "durationTicks": 120,
          "midi": 71,
          "name": "B4",
          "ticks": 119472,
          "time": 84.852187875,
          "velocity": 0.30708661417322836
        },
        {
          "duration": 0.0852271874999957,
          "durationTicks": 120,
          "midi": 55,
          "name": "G3",
          "ticks": 119472,
          "time": 84.852187875,
          "velocity": 0.30708661417322836
        },
        {
          "duration": 0.0852271874999957,
          "durationTicks": 120,
          "midi": 71,
          "name": "B4",
          "ticks": 119472,
          "time": 84.852187875,
          "velocity": 0.30708661417322836
        },
        {
          "duration": 0.0852271874999957,
          "durationTicks": 120,
          "midi": 64,
          "name": "E4",
          "ticks": 119472,
          "time": 84.852187875,
          "velocity": 0.30708661417322836
        },
        {
          "duration": 0.0852271874999957,
          "durationTicks": 120,
          "midi": 60,
          "name": "C4",
          "ticks": 119472,
          "time": 84.852187875,
          "velocity": 0.30708661417322836
        },
        {
          "duration": 0.0852271874999957,
          "durationTicks": 120,
          "midi": 67,
          "name": "G4",
          "ticks": 119472,
          "time": 84.852187875,
          "velocity": 0.30708661417322836
        },
        {
          "duration": 0.0852271874999957,
          "durationTicks": 120,
          "midi": 76,
          "name": "E5",
          "ticks": 119472,
          "time": 84.852187875,
          "velocity": 0.30708661417322836
        },
        {
          "duration": 0.0852271874999957,
          "durationTicks": 120,
          "midi": 60,
          "name": "C4",
          "ticks": 119472,
          "time": 84.852187875,
          "velocity": 0.30708661417322836
        },
        {
          "duration": 0.0852271874999957,
          "durationTicks": 120,
          "midi": 55,
          "name": "G3",
          "ticks": 119472,
          "time": 84.852187875,
          "velocity": 0.30708661417322836
        },
        {
          "duration": 0.0852271874999957,
          "durationTicks": 120,
          "midi": 76,
          "name": "E5",
          "ticks": 119472,
          "time": 84.852187875,
          "velocity": 0.30708661417322836
        },
        {
          "duration": 0.0852271874999957,
          "durationTicks": 120,
          "midi": 59,
          "name": "B3",
          "ticks": 119472,
          "time": 84.852187875,
          "velocity": 0.30708661417322836
        },
        {
          "duration": 0.0852271874999957,
          "durationTicks": 120,
          "midi": 72,
          "name": "C5",
          "ticks": 119472,
          "time": 84.852187875,
          "velocity": 0.30708661417322836
        },
        {
          "duration": 0.0852271874999957,
          "durationTicks": 120,
          "midi": 64,
          "name": "E4",
          "ticks": 119472,
          "time": 84.852187875,
          "velocity": 0.30708661417322836
        },
        {
          "duration": 0.0852271874999957,
          "durationTicks": 120,
          "midi": 67,
          "name": "G4",
          "ticks": 119472,
          "time": 84.852187875,
          "velocity": 0.30708661417322836
        },
        {
          "duration": 0.0852271874999957,
          "durationTicks": 120,
          "midi": 71,
          "name": "B4",
          "ticks": 119496,
          "time": 84.8692333125,
          "velocity": 0.30708661417322836
        },
        {
          "duration": 0.0852271874999957,
          "durationTicks": 120,
          "midi": 59,
          "name": "B3",
          "ticks": 119496,
          "time": 84.8692333125,
          "velocity": 0.30708661417322836
        },
        {
          "duration": 0.0852271874999957,
          "durationTicks": 120,
          "midi": 60,
          "name": "C4",
          "ticks": 119496,
          "time": 84.8692333125,
          "velocity": 0.30708661417322836
        },
        {
          "duration": 0.0852271874999957,
          "durationTicks": 120,
          "midi": 72,
          "name": "C5",
          "ticks": 119496,
          "time": 84.8692333125,
          "velocity": 0.30708661417322836
        },
        {
          "duration": 0.0852271874999957,
          "durationTicks": 120,
          "midi": 67,
          "name": "G4",
          "ticks": 119496,
          "time": 84.8692333125,
          "velocity": 0.30708661417322836
        },
        {
          "duration": 0.0852271874999957,
          "durationTicks": 120,
          "midi": 55,
          "name": "G3",
          "ticks": 119496,
          "time": 84.8692333125,
          "velocity": 0.30708661417322836
        },
        {
          "duration": 0.0852271874999957,
          "durationTicks": 120,
          "midi": 64,
          "name": "E4",
          "ticks": 119496,
          "time": 84.8692333125,
          "velocity": 0.30708661417322836
        },
        {
          "duration": 0.0852271874999957,
          "durationTicks": 120,
          "midi": 76,
          "name": "E5",
          "ticks": 119496,
          "time": 84.8692333125,
          "velocity": 0.30708661417322836
        },
        {
          "duration": 0.28977243750000525,
          "durationTicks": 408,
          "midi": 33,
          "name": "A1",
          "ticks": 119760,
          "time": 85.056733125,
          "velocity": 0.30708661417322836
        },
        {
          "duration": 0.28977243750000525,
          "durationTicks": 408,
          "midi": 57,
          "name": "A3",
          "ticks": 119760,
          "time": 85.056733125,
          "velocity": 0.30708661417322836
        },
        {
          "duration": 0.28977243750000525,
          "durationTicks": 408,
          "midi": 57,
          "name": "A3",
          "ticks": 119760,
          "time": 85.056733125,
          "velocity": 0.30708661417322836
        },
        {
          "duration": 0.28977243750000525,
          "durationTicks": 408,
          "midi": 45,
          "name": "A2",
          "ticks": 119760,
          "time": 85.056733125,
          "velocity": 0.30708661417322836
        },
        {
          "duration": 0.28977243750000525,
          "durationTicks": 408,
          "midi": 45,
          "name": "A2",
          "ticks": 119760,
          "time": 85.056733125,
          "velocity": 0.30708661417322836
        },
        {
          "duration": 0.28977243750000525,
          "durationTicks": 408,
          "midi": 33,
          "name": "A1",
          "ticks": 119760,
          "time": 85.056733125,
          "velocity": 0.30708661417322836
        },
        {
          "duration": 0.28977243750000525,
          "durationTicks": 408,
          "midi": 33,
          "name": "A1",
          "ticks": 119784,
          "time": 85.0737785625,
          "velocity": 0.30708661417322836
        },
        {
          "duration": 0.28977243750000525,
          "durationTicks": 408,
          "midi": 45,
          "name": "A2",
          "ticks": 119784,
          "time": 85.0737785625,
          "velocity": 0.30708661417322836
        },
        {
          "duration": 0.28977243750000525,
          "durationTicks": 408,
          "midi": 57,
          "name": "A3",
          "ticks": 119784,
          "time": 85.0737785625,
          "velocity": 0.30708661417322836
        },
        {
          "duration": 0.0852271874999957,
          "durationTicks": 120,
          "midi": 57,
          "name": "A3",
          "ticks": 120144,
          "time": 85.329460125,
          "velocity": 0.30708661417322836
        },
        {
          "duration": 0.0852271874999957,
          "durationTicks": 120,
          "midi": 48,
          "name": "C3",
          "ticks": 120144,
          "time": 85.329460125,
          "velocity": 0.30708661417322836
        },
        {
          "duration": 0.0852271874999957,
          "durationTicks": 120,
          "midi": 48,
          "name": "C3",
          "ticks": 120144,
          "time": 85.329460125,
          "velocity": 0.30708661417322836
        },
        {
          "duration": 0.0852271874999957,
          "durationTicks": 120,
          "midi": 57,
          "name": "A3",
          "ticks": 120144,
          "time": 85.329460125,
          "velocity": 0.30708661417322836
        },
        {
          "duration": 0.0852271874999957,
          "durationTicks": 120,
          "midi": 52,
          "name": "E3",
          "ticks": 120144,
          "time": 85.329460125,
          "velocity": 0.30708661417322836
        },
        {
          "duration": 0.0852271874999957,
          "durationTicks": 120,
          "midi": 52,
          "name": "E3",
          "ticks": 120144,
          "time": 85.329460125,
          "velocity": 0.30708661417322836
        },
        {
          "duration": 0.0852271874999957,
          "durationTicks": 120,
          "midi": 52,
          "name": "E3",
          "ticks": 120168,
          "time": 85.3465055625,
          "velocity": 0.30708661417322836
        },
        {
          "duration": 0.0852271874999957,
          "durationTicks": 120,
          "midi": 48,
          "name": "C3",
          "ticks": 120168,
          "time": 85.3465055625,
          "velocity": 0.30708661417322836
        },
        {
          "duration": 0.0852271874999957,
          "durationTicks": 120,
          "midi": 57,
          "name": "A3",
          "ticks": 120168,
          "time": 85.3465055625,
          "velocity": 0.30708661417322836
        },
        {
          "duration": 0.0852271874999957,
          "durationTicks": 120,
          "midi": 83,
          "name": "B5",
          "ticks": 120336,
          "time": 85.465823625,
          "velocity": 0.30708661417322836
        },
        {
          "duration": 0.0852271874999957,
          "durationTicks": 120,
          "midi": 95,
          "name": "B6",
          "ticks": 120336,
          "time": 85.465823625,
          "velocity": 0.30708661417322836
        },
        {
          "duration": 0.0852271874999957,
          "durationTicks": 120,
          "midi": 72,
          "name": "C5",
          "ticks": 120336,
          "time": 85.465823625,
          "velocity": 0.30708661417322836
        },
        {
          "duration": 0.0852271874999957,
          "durationTicks": 120,
          "midi": 71,
          "name": "B4",
          "ticks": 120336,
          "time": 85.465823625,
          "velocity": 0.30708661417322836
        },
        {
          "duration": 0.0852271874999957,
          "durationTicks": 120,
          "midi": 60,
          "name": "C4",
          "ticks": 120336,
          "time": 85.465823625,
          "velocity": 0.30708661417322836
        },
        {
          "duration": 0.0852271874999957,
          "durationTicks": 120,
          "midi": 93,
          "name": "A6",
          "ticks": 120336,
          "time": 85.465823625,
          "velocity": 0.30708661417322836
        },
        {
          "duration": 0.0852271874999957,
          "durationTicks": 120,
          "midi": 57,
          "name": "A3",
          "ticks": 120336,
          "time": 85.465823625,
          "velocity": 0.30708661417322836
        },
        {
          "duration": 0.0852271874999957,
          "durationTicks": 120,
          "midi": 83,
          "name": "B5",
          "ticks": 120336,
          "time": 85.465823625,
          "velocity": 0.30708661417322836
        },
        {
          "duration": 0.0852271874999957,
          "durationTicks": 120,
          "midi": 64,
          "name": "E4",
          "ticks": 120336,
          "time": 85.465823625,
          "velocity": 0.30708661417322836
        },
        {
          "duration": 0.0852271874999957,
          "durationTicks": 120,
          "midi": 71,
          "name": "B4",
          "ticks": 120336,
          "time": 85.465823625,
          "velocity": 0.30708661417322836
        },
        {
          "duration": 0.0852271874999957,
          "durationTicks": 120,
          "midi": 95,
          "name": "B6",
          "ticks": 120336,
          "time": 85.465823625,
          "velocity": 0.30708661417322836
        },
        {
          "duration": 0.0852271874999957,
          "durationTicks": 120,
          "midi": 88,
          "name": "E6",
          "ticks": 120336,
          "time": 85.465823625,
          "velocity": 0.30708661417322836
        },
        {
          "duration": 0.0852271874999957,
          "durationTicks": 120,
          "midi": 64,
          "name": "E4",
          "ticks": 120336,
          "time": 85.465823625,
          "velocity": 0.30708661417322836
        },
        {
          "duration": 0.0852271874999957,
          "durationTicks": 120,
          "midi": 59,
          "name": "B3",
          "ticks": 120336,
          "time": 85.465823625,
          "velocity": 0.30708661417322836
        },
        {
          "duration": 0.0852271874999957,
          "durationTicks": 120,
          "midi": 72,
          "name": "C5",
          "ticks": 120336,
          "time": 85.465823625,
          "velocity": 0.30708661417322836
        },
        {
          "duration": 0.0852271874999957,
          "durationTicks": 120,
          "midi": 81,
          "name": "A5",
          "ticks": 120336,
          "time": 85.465823625,
          "velocity": 0.30708661417322836
        },
        {
          "duration": 0.0852271874999957,
          "durationTicks": 120,
          "midi": 69,
          "name": "A4",
          "ticks": 120336,
          "time": 85.465823625,
          "velocity": 0.30708661417322836
        },
        {
          "duration": 0.0852271874999957,
          "durationTicks": 120,
          "midi": 59,
          "name": "B3",
          "ticks": 120336,
          "time": 85.465823625,
          "velocity": 0.30708661417322836
        },
        {
          "duration": 0.0852271874999957,
          "durationTicks": 120,
          "midi": 69,
          "name": "A4",
          "ticks": 120336,
          "time": 85.465823625,
          "velocity": 0.30708661417322836
        },
        {
          "duration": 0.0852271874999957,
          "durationTicks": 120,
          "midi": 84,
          "name": "C6",
          "ticks": 120336,
          "time": 85.465823625,
          "velocity": 0.30708661417322836
        },
        {
          "duration": 0.0852271874999957,
          "durationTicks": 120,
          "midi": 81,
          "name": "A5",
          "ticks": 120336,
          "time": 85.465823625,
          "velocity": 0.30708661417322836
        },
        {
          "duration": 0.0852271874999957,
          "durationTicks": 120,
          "midi": 76,
          "name": "E5",
          "ticks": 120336,
          "time": 85.465823625,
          "velocity": 0.30708661417322836
        },
        {
          "duration": 0.0852271874999957,
          "durationTicks": 120,
          "midi": 57,
          "name": "A3",
          "ticks": 120336,
          "time": 85.465823625,
          "velocity": 0.30708661417322836
        },
        {
          "duration": 0.0852271874999957,
          "durationTicks": 120,
          "midi": 60,
          "name": "C4",
          "ticks": 120336,
          "time": 85.465823625,
          "velocity": 0.30708661417322836
        },
        {
          "duration": 0.0852271874999957,
          "durationTicks": 120,
          "midi": 84,
          "name": "C6",
          "ticks": 120336,
          "time": 85.465823625,
          "velocity": 0.30708661417322836
        },
        {
          "duration": 0.0852271874999957,
          "durationTicks": 120,
          "midi": 93,
          "name": "A6",
          "ticks": 120336,
          "time": 85.465823625,
          "velocity": 0.30708661417322836
        },
        {
          "duration": 0.0852271874999957,
          "durationTicks": 120,
          "midi": 76,
          "name": "E5",
          "ticks": 120336,
          "time": 85.465823625,
          "velocity": 0.30708661417322836
        },
        {
          "duration": 0.0852271874999957,
          "durationTicks": 120,
          "midi": 88,
          "name": "E6",
          "ticks": 120336,
          "time": 85.465823625,
          "velocity": 0.30708661417322836
        },
        {
          "duration": 0.0852271874999957,
          "durationTicks": 120,
          "midi": 83,
          "name": "B5",
          "ticks": 120360,
          "time": 85.4828690625,
          "velocity": 0.30708661417322836
        },
        {
          "duration": 0.0852271874999957,
          "durationTicks": 120,
          "midi": 60,
          "name": "C4",
          "ticks": 120360,
          "time": 85.4828690625,
          "velocity": 0.30708661417322836
        },
        {
          "duration": 0.0852271874999957,
          "durationTicks": 120,
          "midi": 72,
          "name": "C5",
          "ticks": 120360,
          "time": 85.4828690625,
          "velocity": 0.30708661417322836
        },
        {
          "duration": 0.0852271874999957,
          "durationTicks": 120,
          "midi": 64,
          "name": "E4",
          "ticks": 120360,
          "time": 85.4828690625,
          "velocity": 0.30708661417322836
        },
        {
          "duration": 0.0852271874999957,
          "durationTicks": 120,
          "midi": 76,
          "name": "E5",
          "ticks": 120360,
          "time": 85.4828690625,
          "velocity": 0.30708661417322836
        },
        {
          "duration": 0.0852271874999957,
          "durationTicks": 120,
          "midi": 57,
          "name": "A3",
          "ticks": 120360,
          "time": 85.4828690625,
          "velocity": 0.30708661417322836
        },
        {
          "duration": 0.0852271874999957,
          "durationTicks": 120,
          "midi": 59,
          "name": "B3",
          "ticks": 120360,
          "time": 85.4828690625,
          "velocity": 0.30708661417322836
        },
        {
          "duration": 0.0852271874999957,
          "durationTicks": 120,
          "midi": 81,
          "name": "A5",
          "ticks": 120360,
          "time": 85.4828690625,
          "velocity": 0.30708661417322836
        },
        {
          "duration": 0.0852271874999957,
          "durationTicks": 120,
          "midi": 88,
          "name": "E6",
          "ticks": 120360,
          "time": 85.4828690625,
          "velocity": 0.30708661417322836
        },
        {
          "duration": 0.0852271874999957,
          "durationTicks": 120,
          "midi": 84,
          "name": "C6",
          "ticks": 120360,
          "time": 85.4828690625,
          "velocity": 0.30708661417322836
        },
        {
          "duration": 0.0852271874999957,
          "durationTicks": 120,
          "midi": 71,
          "name": "B4",
          "ticks": 120360,
          "time": 85.4828690625,
          "velocity": 0.30708661417322836
        },
        {
          "duration": 0.0852271874999957,
          "durationTicks": 120,
          "midi": 93,
          "name": "A6",
          "ticks": 120360,
          "time": 85.4828690625,
          "velocity": 0.30708661417322836
        },
        {
          "duration": 0.0852271874999957,
          "durationTicks": 120,
          "midi": 69,
          "name": "A4",
          "ticks": 120360,
          "time": 85.4828690625,
          "velocity": 0.30708661417322836
        },
        {
          "duration": 0.0852271874999957,
          "durationTicks": 120,
          "midi": 95,
          "name": "B6",
          "ticks": 120360,
          "time": 85.4828690625,
          "velocity": 0.30708661417322836
        },
        {
          "duration": 0.0852271874999957,
          "durationTicks": 120,
          "midi": 52,
          "name": "E3",
          "ticks": 120576,
          "time": 85.636278,
          "velocity": 0.30708661417322836
        },
        {
          "duration": 0.0852271874999957,
          "durationTicks": 120,
          "midi": 40,
          "name": "E2",
          "ticks": 120576,
          "time": 85.636278,
          "velocity": 0.30708661417322836
        },
        {
          "duration": 0.0852271874999957,
          "durationTicks": 120,
          "midi": 52,
          "name": "E3",
          "ticks": 120576,
          "time": 85.636278,
          "velocity": 0.30708661417322836
        },
        {
          "duration": 0.0852271874999957,
          "durationTicks": 120,
          "midi": 40,
          "name": "E2",
          "ticks": 120576,
          "time": 85.636278,
          "velocity": 0.30708661417322836
        },
        {
          "duration": 0.0852271875000099,
          "durationTicks": 120,
          "midi": 40,
          "name": "E2",
          "ticks": 120600,
          "time": 85.65332343749999,
          "velocity": 0.30708661417322836
        },
        {
          "duration": 0.0852271875000099,
          "durationTicks": 120,
          "midi": 52,
          "name": "E3",
          "ticks": 120600,
          "time": 85.65332343749999,
          "velocity": 0.30708661417322836
        },
        {
          "duration": 0.0852271875000099,
          "durationTicks": 120,
          "midi": 60,
          "name": "C4",
          "ticks": 120960,
          "time": 85.909005,
          "velocity": 0.30708661417322836
        },
        {
          "duration": 0.0852271875000099,
          "durationTicks": 120,
          "midi": 57,
          "name": "A3",
          "ticks": 120960,
          "time": 85.909005,
          "velocity": 0.30708661417322836
        },
        {
          "duration": 0.0852271875000099,
          "durationTicks": 120,
          "midi": 52,
          "name": "E3",
          "ticks": 120960,
          "time": 85.909005,
          "velocity": 0.30708661417322836
        },
        {
          "duration": 0.0852271875000099,
          "durationTicks": 120,
          "midi": 52,
          "name": "E3",
          "ticks": 120960,
          "time": 85.909005,
          "velocity": 0.30708661417322836
        },
        {
          "duration": 0.0852271875000099,
          "durationTicks": 120,
          "midi": 57,
          "name": "A3",
          "ticks": 120960,
          "time": 85.909005,
          "velocity": 0.30708661417322836
        },
        {
          "duration": 0.0852271875000099,
          "durationTicks": 120,
          "midi": 48,
          "name": "C3",
          "ticks": 120960,
          "time": 85.909005,
          "velocity": 0.30708661417322836
        },
        {
          "duration": 0.0852271875000099,
          "durationTicks": 120,
          "midi": 60,
          "name": "C4",
          "ticks": 120960,
          "time": 85.909005,
          "velocity": 0.30708661417322836
        },
        {
          "duration": 0.0852271875000099,
          "durationTicks": 120,
          "midi": 48,
          "name": "C3",
          "ticks": 120960,
          "time": 85.909005,
          "velocity": 0.30708661417322836
        },
        {
          "duration": 0.0852271875000099,
          "durationTicks": 120,
          "midi": 48,
          "name": "C3",
          "ticks": 120984,
          "time": 85.9260504375,
          "velocity": 0.30708661417322836
        },
        {
          "duration": 0.0852271875000099,
          "durationTicks": 120,
          "midi": 52,
          "name": "E3",
          "ticks": 120984,
          "time": 85.9260504375,
          "velocity": 0.30708661417322836
        },
        {
          "duration": 0.0852271875000099,
          "durationTicks": 120,
          "midi": 57,
          "name": "A3",
          "ticks": 120984,
          "time": 85.9260504375,
          "velocity": 0.30708661417322836
        },
        {
          "duration": 0.0852271875000099,
          "durationTicks": 120,
          "midi": 60,
          "name": "C4",
          "ticks": 120984,
          "time": 85.9260504375,
          "velocity": 0.30708661417322836
        },
        {
          "duration": 0.0852271875000099,
          "durationTicks": 120,
          "midi": 72,
          "name": "C5",
          "ticks": 121152,
          "time": 86.0453685,
          "velocity": 0.30708661417322836
        },
        {
          "duration": 0.0852271875000099,
          "durationTicks": 120,
          "midi": 71,
          "name": "B4",
          "ticks": 121152,
          "time": 86.0453685,
          "velocity": 0.30708661417322836
        },
        {
          "duration": 0.0852271875000099,
          "durationTicks": 120,
          "midi": 60,
          "name": "C4",
          "ticks": 121152,
          "time": 86.0453685,
          "velocity": 0.30708661417322836
        },
        {
          "duration": 0.0852271875000099,
          "durationTicks": 120,
          "midi": 55,
          "name": "G3",
          "ticks": 121152,
          "time": 86.0453685,
          "velocity": 0.30708661417322836
        },
        {
          "duration": 0.0852271875000099,
          "durationTicks": 120,
          "midi": 76,
          "name": "E5",
          "ticks": 121152,
          "time": 86.0453685,
          "velocity": 0.30708661417322836
        },
        {
          "duration": 0.0852271875000099,
          "durationTicks": 120,
          "midi": 71,
          "name": "B4",
          "ticks": 121152,
          "time": 86.0453685,
          "velocity": 0.30708661417322836
        },
        {
          "duration": 0.0852271875000099,
          "durationTicks": 120,
          "midi": 64,
          "name": "E4",
          "ticks": 121152,
          "time": 86.0453685,
          "velocity": 0.30708661417322836
        },
        {
          "duration": 0.0852271875000099,
          "durationTicks": 120,
          "midi": 67,
          "name": "G4",
          "ticks": 121152,
          "time": 86.0453685,
          "velocity": 0.30708661417322836
        },
        {
          "duration": 0.0852271875000099,
          "durationTicks": 120,
          "midi": 60,
          "name": "C4",
          "ticks": 121152,
          "time": 86.0453685,
          "velocity": 0.30708661417322836
        },
        {
          "duration": 0.0852271875000099,
          "durationTicks": 120,
          "midi": 59,
          "name": "B3",
          "ticks": 121152,
          "time": 86.0453685,
          "velocity": 0.30708661417322836
        },
        {
          "duration": 0.0852271875000099,
          "durationTicks": 120,
          "midi": 64,
          "name": "E4",
          "ticks": 121152,
          "time": 86.0453685,
          "velocity": 0.30708661417322836
        },
        {
          "duration": 0.0852271875000099,
          "durationTicks": 120,
          "midi": 72,
          "name": "C5",
          "ticks": 121152,
          "time": 86.0453685,
          "velocity": 0.30708661417322836
        },
        {
          "duration": 0.0852271875000099,
          "durationTicks": 120,
          "midi": 67,
          "name": "G4",
          "ticks": 121152,
          "time": 86.0453685,
          "velocity": 0.30708661417322836
        },
        {
          "duration": 0.0852271875000099,
          "durationTicks": 120,
          "midi": 59,
          "name": "B3",
          "ticks": 121152,
          "time": 86.0453685,
          "velocity": 0.30708661417322836
        },
        {
          "duration": 0.0852271875000099,
          "durationTicks": 120,
          "midi": 55,
          "name": "G3",
          "ticks": 121152,
          "time": 86.0453685,
          "velocity": 0.30708661417322836
        },
        {
          "duration": 0.0852271875000099,
          "durationTicks": 120,
          "midi": 76,
          "name": "E5",
          "ticks": 121152,
          "time": 86.0453685,
          "velocity": 0.30708661417322836
        },
        {
          "duration": 0.0852271874999957,
          "durationTicks": 120,
          "midi": 72,
          "name": "C5",
          "ticks": 121176,
          "time": 86.0624139375,
          "velocity": 0.30708661417322836
        },
        {
          "duration": 0.0852271874999957,
          "durationTicks": 120,
          "midi": 59,
          "name": "B3",
          "ticks": 121176,
          "time": 86.0624139375,
          "velocity": 0.30708661417322836
        },
        {
          "duration": 0.0852271874999957,
          "durationTicks": 120,
          "midi": 67,
          "name": "G4",
          "ticks": 121176,
          "time": 86.0624139375,
          "velocity": 0.30708661417322836
        },
        {
          "duration": 0.0852271874999957,
          "durationTicks": 120,
          "midi": 64,
          "name": "E4",
          "ticks": 121176,
          "time": 86.0624139375,
          "velocity": 0.30708661417322836
        },
        {
          "duration": 0.0852271874999957,
          "durationTicks": 120,
          "midi": 55,
          "name": "G3",
          "ticks": 121176,
          "time": 86.0624139375,
          "velocity": 0.30708661417322836
        },
        {
          "duration": 0.0852271874999957,
          "durationTicks": 120,
          "midi": 76,
          "name": "E5",
          "ticks": 121176,
          "time": 86.0624139375,
          "velocity": 0.30708661417322836
        },
        {
          "duration": 0.0852271874999957,
          "durationTicks": 120,
          "midi": 71,
          "name": "B4",
          "ticks": 121176,
          "time": 86.0624139375,
          "velocity": 0.30708661417322836
        },
        {
          "duration": 0.0852271874999957,
          "durationTicks": 120,
          "midi": 60,
          "name": "C4",
          "ticks": 121176,
          "time": 86.0624139375,
          "velocity": 0.30708661417322836
        },
        {
          "duration": 0.28977243750000525,
          "durationTicks": 408,
          "midi": 57,
          "name": "A3",
          "ticks": 121344,
          "time": 86.181732,
          "velocity": 0.30708661417322836
        },
        {
          "duration": 0.28977243750000525,
          "durationTicks": 408,
          "midi": 45,
          "name": "A2",
          "ticks": 121344,
          "time": 86.181732,
          "velocity": 0.30708661417322836
        },
        {
          "duration": 0.28977243750000525,
          "durationTicks": 408,
          "midi": 57,
          "name": "A3",
          "ticks": 121344,
          "time": 86.181732,
          "velocity": 0.30708661417322836
        },
        {
          "duration": 0.28977243750000525,
          "durationTicks": 408,
          "midi": 33,
          "name": "A1",
          "ticks": 121344,
          "time": 86.181732,
          "velocity": 0.30708661417322836
        },
        {
          "duration": 0.28977243750000525,
          "durationTicks": 408,
          "midi": 33,
          "name": "A1",
          "ticks": 121344,
          "time": 86.181732,
          "velocity": 0.30708661417322836
        },
        {
          "duration": 0.28977243750000525,
          "durationTicks": 408,
          "midi": 45,
          "name": "A2",
          "ticks": 121344,
          "time": 86.181732,
          "velocity": 0.30708661417322836
        },
        {
          "duration": 0.28977243750000525,
          "durationTicks": 408,
          "midi": 57,
          "name": "A3",
          "ticks": 121368,
          "time": 86.1987774375,
          "velocity": 0.30708661417322836
        },
        {
          "duration": 0.28977243750000525,
          "durationTicks": 408,
          "midi": 33,
          "name": "A1",
          "ticks": 121368,
          "time": 86.1987774375,
          "velocity": 0.30708661417322836
        },
        {
          "duration": 0.28977243750000525,
          "durationTicks": 408,
          "midi": 45,
          "name": "A2",
          "ticks": 121368,
          "time": 86.1987774375,
          "velocity": 0.30708661417322836
        },
        {
          "duration": 0.0852271874999957,
          "durationTicks": 120,
          "midi": 64,
          "name": "E4",
          "ticks": 121728,
          "time": 86.454459,
          "velocity": 0.30708661417322836
        },
        {
          "duration": 0.0852271874999957,
          "durationTicks": 120,
          "midi": 60,
          "name": "C4",
          "ticks": 121728,
          "time": 86.454459,
          "velocity": 0.30708661417322836
        },
        {
          "duration": 0.0852271874999957,
          "durationTicks": 120,
          "midi": 52,
          "name": "E3",
          "ticks": 121728,
          "time": 86.454459,
          "velocity": 0.30708661417322836
        },
        {
          "duration": 0.0852271874999957,
          "durationTicks": 120,
          "midi": 57,
          "name": "A3",
          "ticks": 121728,
          "time": 86.454459,
          "velocity": 0.30708661417322836
        },
        {
          "duration": 0.0852271874999957,
          "durationTicks": 120,
          "midi": 60,
          "name": "C4",
          "ticks": 121728,
          "time": 86.454459,
          "velocity": 0.30708661417322836
        },
        {
          "duration": 0.0852271874999957,
          "durationTicks": 120,
          "midi": 52,
          "name": "E3",
          "ticks": 121728,
          "time": 86.454459,
          "velocity": 0.30708661417322836
        },
        {
          "duration": 0.0852271874999957,
          "durationTicks": 120,
          "midi": 48,
          "name": "C3",
          "ticks": 121728,
          "time": 86.454459,
          "velocity": 0.30708661417322836
        },
        {
          "duration": 0.0852271874999957,
          "durationTicks": 120,
          "midi": 57,
          "name": "A3",
          "ticks": 121728,
          "time": 86.454459,
          "velocity": 0.30708661417322836
        },
        {
          "duration": 0.0852271874999957,
          "durationTicks": 120,
          "midi": 64,
          "name": "E4",
          "ticks": 121728,
          "time": 86.454459,
          "velocity": 0.30708661417322836
        },
        {
          "duration": 0.0852271874999957,
          "durationTicks": 120,
          "midi": 48,
          "name": "C3",
          "ticks": 121728,
          "time": 86.454459,
          "velocity": 0.30708661417322836
        },
        {
          "duration": 0.0852271874999957,
          "durationTicks": 120,
          "midi": 57,
          "name": "A3",
          "ticks": 121752,
          "time": 86.4715044375,
          "velocity": 0.30708661417322836
        },
        {
          "duration": 0.0852271874999957,
          "durationTicks": 120,
          "midi": 48,
          "name": "C3",
          "ticks": 121752,
          "time": 86.4715044375,
          "velocity": 0.30708661417322836
        },
        {
          "duration": 0.0852271874999957,
          "durationTicks": 120,
          "midi": 52,
          "name": "E3",
          "ticks": 121752,
          "time": 86.4715044375,
          "velocity": 0.30708661417322836
        },
        {
          "duration": 0.0852271874999957,
          "durationTicks": 120,
          "midi": 64,
          "name": "E4",
          "ticks": 121752,
          "time": 86.4715044375,
          "velocity": 0.30708661417322836
        },
        {
          "duration": 0.0852271874999957,
          "durationTicks": 120,
          "midi": 60,
          "name": "C4",
          "ticks": 121752,
          "time": 86.4715044375,
          "velocity": 0.30708661417322836
        },
        {
          "duration": 0.0852271874999957,
          "durationTicks": 120,
          "midi": 76,
          "name": "E5",
          "ticks": 121920,
          "time": 86.5908225,
          "velocity": 0.30708661417322836
        },
        {
          "duration": 0.0852271874999957,
          "durationTicks": 120,
          "midi": 71,
          "name": "B4",
          "ticks": 121920,
          "time": 86.5908225,
          "velocity": 0.30708661417322836
        },
        {
          "duration": 0.0852271874999957,
          "durationTicks": 120,
          "midi": 81,
          "name": "A5",
          "ticks": 121920,
          "time": 86.5908225,
          "velocity": 0.30708661417322836
        },
        {
          "duration": 0.0852271874999957,
          "durationTicks": 120,
          "midi": 81,
          "name": "A5",
          "ticks": 121920,
          "time": 86.5908225,
          "velocity": 0.30708661417322836
        },
        {
          "duration": 0.0852271874999957,
          "durationTicks": 120,
          "midi": 57,
          "name": "A3",
          "ticks": 121920,
          "time": 86.5908225,
          "velocity": 0.30708661417322836
        },
        {
          "duration": 0.0852271874999957,
          "durationTicks": 120,
          "midi": 84,
          "name": "C6",
          "ticks": 121920,
          "time": 86.5908225,
          "velocity": 0.30708661417322836
        },
        {
          "duration": 0.0852271874999957,
          "durationTicks": 120,
          "midi": 59,
          "name": "B3",
          "ticks": 121920,
          "time": 86.5908225,
          "velocity": 0.30708661417322836
        },
        {
          "duration": 0.0852271874999957,
          "durationTicks": 120,
          "midi": 72,
          "name": "C5",
          "ticks": 121920,
          "time": 86.5908225,
          "velocity": 0.30708661417322836
        },
        {
          "duration": 0.0852271874999957,
          "durationTicks": 120,
          "midi": 64,
          "name": "E4",
          "ticks": 121920,
          "time": 86.5908225,
          "velocity": 0.30708661417322836
        },
        {
          "duration": 0.0852271874999957,
          "durationTicks": 120,
          "midi": 59,
          "name": "B3",
          "ticks": 121920,
          "time": 86.5908225,
          "velocity": 0.30708661417322836
        },
        {
          "duration": 0.0852271874999957,
          "durationTicks": 120,
          "midi": 60,
          "name": "C4",
          "ticks": 121920,
          "time": 86.5908225,
          "velocity": 0.30708661417322836
        },
        {
          "duration": 0.0852271874999957,
          "durationTicks": 120,
          "midi": 64,
          "name": "E4",
          "ticks": 121920,
          "time": 86.5908225,
          "velocity": 0.30708661417322836
        },
        {
          "duration": 0.0852271874999957,
          "durationTicks": 120,
          "midi": 69,
          "name": "A4",
          "ticks": 121920,
          "time": 86.5908225,
          "velocity": 0.30708661417322836
        },
        {
          "duration": 0.0852271874999957,
          "durationTicks": 120,
          "midi": 69,
          "name": "A4",
          "ticks": 121920,
          "time": 86.5908225,
          "velocity": 0.30708661417322836
        },
        {
          "duration": 0.0852271874999957,
          "durationTicks": 120,
          "midi": 84,
          "name": "C6",
          "ticks": 121920,
          "time": 86.5908225,
          "velocity": 0.30708661417322836
        },
        {
          "duration": 0.0852271874999957,
          "durationTicks": 120,
          "midi": 83,
          "name": "B5",
          "ticks": 121920,
          "time": 86.5908225,
          "velocity": 0.30708661417322836
        },
        {
          "duration": 0.0852271874999957,
          "durationTicks": 120,
          "midi": 83,
          "name": "B5",
          "ticks": 121920,
          "time": 86.5908225,
          "velocity": 0.30708661417322836
        },
        {
          "duration": 0.0852271874999957,
          "durationTicks": 120,
          "midi": 88,
          "name": "E6",
          "ticks": 121920,
          "time": 86.5908225,
          "velocity": 0.30708661417322836
        },
        {
          "duration": 0.0852271874999957,
          "durationTicks": 120,
          "midi": 93,
          "name": "A6",
          "ticks": 121920,
          "time": 86.5908225,
          "velocity": 0.30708661417322836
        },
        {
          "duration": 0.0852271874999957,
          "durationTicks": 120,
          "midi": 72,
          "name": "C5",
          "ticks": 121920,
          "time": 86.5908225,
          "velocity": 0.30708661417322836
        },
        {
          "duration": 0.0852271874999957,
          "durationTicks": 120,
          "midi": 60,
          "name": "C4",
          "ticks": 121920,
          "time": 86.5908225,
          "velocity": 0.30708661417322836
        },
        {
          "duration": 0.0852271874999957,
          "durationTicks": 120,
          "midi": 88,
          "name": "E6",
          "ticks": 121920,
          "time": 86.5908225,
          "velocity": 0.30708661417322836
        },
        {
          "duration": 0.0852271874999957,
          "durationTicks": 120,
          "midi": 95,
          "name": "B6",
          "ticks": 121920,
          "time": 86.5908225,
          "velocity": 0.30708661417322836
        },
        {
          "duration": 0.0852271874999957,
          "durationTicks": 120,
          "midi": 76,
          "name": "E5",
          "ticks": 121920,
          "time": 86.5908225,
          "velocity": 0.30708661417322836
        },
        {
          "duration": 0.0852271874999957,
          "durationTicks": 120,
          "midi": 93,
          "name": "A6",
          "ticks": 121920,
          "time": 86.5908225,
          "velocity": 0.30708661417322836
        },
        {
          "duration": 0.0852271874999957,
          "durationTicks": 120,
          "midi": 57,
          "name": "A3",
          "ticks": 121920,
          "time": 86.5908225,
          "velocity": 0.30708661417322836
        },
        {
          "duration": 0.0852271874999957,
          "durationTicks": 120,
          "midi": 71,
          "name": "B4",
          "ticks": 121920,
          "time": 86.5908225,
          "velocity": 0.30708661417322836
        },
        {
          "duration": 0.0852271874999957,
          "durationTicks": 120,
          "midi": 95,
          "name": "B6",
          "ticks": 121920,
          "time": 86.5908225,
          "velocity": 0.30708661417322836
        },
        {
          "duration": 0.0852271874999957,
          "durationTicks": 120,
          "midi": 83,
          "name": "B5",
          "ticks": 121944,
          "time": 86.6078679375,
          "velocity": 0.30708661417322836
        },
        {
          "duration": 0.0852271874999957,
          "durationTicks": 120,
          "midi": 84,
          "name": "C6",
          "ticks": 121944,
          "time": 86.6078679375,
          "velocity": 0.30708661417322836
        },
        {
          "duration": 0.0852271874999957,
          "durationTicks": 120,
          "midi": 69,
          "name": "A4",
          "ticks": 121944,
          "time": 86.6078679375,
          "velocity": 0.30708661417322836
        },
        {
          "duration": 0.0852271874999957,
          "durationTicks": 120,
          "midi": 60,
          "name": "C4",
          "ticks": 121944,
          "time": 86.6078679375,
          "velocity": 0.30708661417322836
        },
        {
          "duration": 0.0852271874999957,
          "durationTicks": 120,
          "midi": 64,
          "name": "E4",
          "ticks": 121944,
          "time": 86.6078679375,
          "velocity": 0.30708661417322836
        },
        {
          "duration": 0.0852271874999957,
          "durationTicks": 120,
          "midi": 57,
          "name": "A3",
          "ticks": 121944,
          "time": 86.6078679375,
          "velocity": 0.30708661417322836
        },
        {
          "duration": 0.0852271874999957,
          "durationTicks": 120,
          "midi": 93,
          "name": "A6",
          "ticks": 121944,
          "time": 86.6078679375,
          "velocity": 0.30708661417322836
        },
        {
          "duration": 0.0852271874999957,
          "durationTicks": 120,
          "midi": 71,
          "name": "B4",
          "ticks": 121944,
          "time": 86.6078679375,
          "velocity": 0.30708661417322836
        },
        {
          "duration": 0.0852271874999957,
          "durationTicks": 120,
          "midi": 72,
          "name": "C5",
          "ticks": 121944,
          "time": 86.6078679375,
          "velocity": 0.30708661417322836
        },
        {
          "duration": 0.0852271874999957,
          "durationTicks": 120,
          "midi": 81,
          "name": "A5",
          "ticks": 121944,
          "time": 86.6078679375,
          "velocity": 0.30708661417322836
        },
        {
          "duration": 0.0852271874999957,
          "durationTicks": 120,
          "midi": 59,
          "name": "B3",
          "ticks": 121944,
          "time": 86.6078679375,
          "velocity": 0.30708661417322836
        },
        {
          "duration": 0.0852271874999957,
          "durationTicks": 120,
          "midi": 95,
          "name": "B6",
          "ticks": 121944,
          "time": 86.6078679375,
          "velocity": 0.30708661417322836
        },
        {
          "duration": 0.0852271874999957,
          "durationTicks": 120,
          "midi": 88,
          "name": "E6",
          "ticks": 121944,
          "time": 86.6078679375,
          "velocity": 0.30708661417322836
        },
        {
          "duration": 0.0852271874999957,
          "durationTicks": 120,
          "midi": 76,
          "name": "E5",
          "ticks": 121944,
          "time": 86.6078679375,
          "velocity": 0.30708661417322836
        },
        {
          "duration": 0.0852271874999957,
          "durationTicks": 120,
          "midi": 52,
          "name": "E3",
          "ticks": 122112,
          "time": 86.727186,
          "velocity": 0.30708661417322836
        },
        {
          "duration": 0.0852271874999957,
          "durationTicks": 120,
          "midi": 40,
          "name": "E2",
          "ticks": 122112,
          "time": 86.727186,
          "velocity": 0.30708661417322836
        },
        {
          "duration": 0.0852271874999957,
          "durationTicks": 120,
          "midi": 52,
          "name": "E3",
          "ticks": 122112,
          "time": 86.727186,
          "velocity": 0.30708661417322836
        },
        {
          "duration": 0.0852271874999957,
          "durationTicks": 120,
          "midi": 40,
          "name": "E2",
          "ticks": 122112,
          "time": 86.727186,
          "velocity": 0.30708661417322836
        },
        {
          "duration": 0.0852271874999957,
          "durationTicks": 120,
          "midi": 52,
          "name": "E3",
          "ticks": 122136,
          "time": 86.7442314375,
          "velocity": 0.30708661417322836
        },
        {
          "duration": 0.0852271874999957,
          "durationTicks": 120,
          "midi": 40,
          "name": "E2",
          "ticks": 122136,
          "time": 86.7442314375,
          "velocity": 0.30708661417322836
        },
        {
          "duration": 0.0852271874999957,
          "durationTicks": 120,
          "midi": 48,
          "name": "C3",
          "ticks": 122448,
          "time": 86.965822125,
          "velocity": 0.30708661417322836
        },
        {
          "duration": 0.0852271874999957,
          "durationTicks": 120,
          "midi": 57,
          "name": "A3",
          "ticks": 122448,
          "time": 86.965822125,
          "velocity": 0.30708661417322836
        },
        {
          "duration": 0.0852271874999957,
          "durationTicks": 120,
          "midi": 57,
          "name": "A3",
          "ticks": 122448,
          "time": 86.965822125,
          "velocity": 0.30708661417322836
        },
        {
          "duration": 0.0852271874999957,
          "durationTicks": 120,
          "midi": 52,
          "name": "E3",
          "ticks": 122448,
          "time": 86.965822125,
          "velocity": 0.30708661417322836
        },
        {
          "duration": 0.0852271874999957,
          "durationTicks": 120,
          "midi": 48,
          "name": "C3",
          "ticks": 122448,
          "time": 86.965822125,
          "velocity": 0.30708661417322836
        },
        {
          "duration": 0.0852271874999957,
          "durationTicks": 120,
          "midi": 69,
          "name": "A4",
          "ticks": 122448,
          "time": 86.965822125,
          "velocity": 0.30708661417322836
        },
        {
          "duration": 0.0852271874999957,
          "durationTicks": 120,
          "midi": 69,
          "name": "A4",
          "ticks": 122448,
          "time": 86.965822125,
          "velocity": 0.30708661417322836
        },
        {
          "duration": 0.0852271874999957,
          "durationTicks": 120,
          "midi": 64,
          "name": "E4",
          "ticks": 122448,
          "time": 86.965822125,
          "velocity": 0.30708661417322836
        },
        {
          "duration": 0.0852271874999957,
          "durationTicks": 120,
          "midi": 64,
          "name": "E4",
          "ticks": 122448,
          "time": 86.965822125,
          "velocity": 0.30708661417322836
        },
        {
          "duration": 0.0852271874999957,
          "durationTicks": 120,
          "midi": 52,
          "name": "E3",
          "ticks": 122448,
          "time": 86.965822125,
          "velocity": 0.30708661417322836
        },
        {
          "duration": 0.0852271874999957,
          "durationTicks": 120,
          "midi": 60,
          "name": "C4",
          "ticks": 122448,
          "time": 86.965822125,
          "velocity": 0.30708661417322836
        },
        {
          "duration": 0.0852271874999957,
          "durationTicks": 120,
          "midi": 60,
          "name": "C4",
          "ticks": 122448,
          "time": 86.965822125,
          "velocity": 0.30708661417322836
        },
        {
          "duration": 0.0852271874999957,
          "durationTicks": 120,
          "midi": 69,
          "name": "A4",
          "ticks": 122472,
          "time": 86.9828675625,
          "velocity": 0.30708661417322836
        },
        {
          "duration": 0.0852271874999957,
          "durationTicks": 120,
          "midi": 60,
          "name": "C4",
          "ticks": 122472,
          "time": 86.9828675625,
          "velocity": 0.30708661417322836
        },
        {
          "duration": 0.0852271874999957,
          "durationTicks": 120,
          "midi": 52,
          "name": "E3",
          "ticks": 122472,
          "time": 86.9828675625,
          "velocity": 0.30708661417322836
        },
        {
          "duration": 0.0852271874999957,
          "durationTicks": 120,
          "midi": 57,
          "name": "A3",
          "ticks": 122472,
          "time": 86.9828675625,
          "velocity": 0.30708661417322836
        },
        {
          "duration": 0.0852271874999957,
          "durationTicks": 120,
          "midi": 48,
          "name": "C3",
          "ticks": 122472,
          "time": 86.9828675625,
          "velocity": 0.30708661417322836
        },
        {
          "duration": 0.0852271874999957,
          "durationTicks": 120,
          "midi": 64,
          "name": "E4",
          "ticks": 122472,
          "time": 86.9828675625,
          "velocity": 0.30708661417322836
        },
        {
          "duration": 0.0852271874999957,
          "durationTicks": 120,
          "midi": 55,
          "name": "G3",
          "ticks": 122640,
          "time": 87.102185625,
          "velocity": 0.30708661417322836
        },
        {
          "duration": 0.0852271874999957,
          "durationTicks": 120,
          "midi": 55,
          "name": "G3",
          "ticks": 122640,
          "time": 87.102185625,
          "velocity": 0.30708661417322836
        },
        {
          "duration": 0.0852271874999957,
          "durationTicks": 120,
          "midi": 76,
          "name": "E5",
          "ticks": 122640,
          "time": 87.102185625,
          "velocity": 0.30708661417322836
        },
        {
          "duration": 0.0852271874999957,
          "durationTicks": 120,
          "midi": 71,
          "name": "B4",
          "ticks": 122640,
          "time": 87.102185625,
          "velocity": 0.30708661417322836
        },
        {
          "duration": 0.0852271874999957,
          "durationTicks": 120,
          "midi": 64,
          "name": "E4",
          "ticks": 122640,
          "time": 87.102185625,
          "velocity": 0.30708661417322836
        },
        {
          "duration": 0.0852271874999957,
          "durationTicks": 120,
          "midi": 72,
          "name": "C5",
          "ticks": 122640,
          "time": 87.102185625,
          "velocity": 0.30708661417322836
        },
        {
          "duration": 0.0852271874999957,
          "durationTicks": 120,
          "midi": 59,
          "name": "B3",
          "ticks": 122640,
          "time": 87.102185625,
          "velocity": 0.30708661417322836
        },
        {
          "duration": 0.0852271874999957,
          "durationTicks": 120,
          "midi": 76,
          "name": "E5",
          "ticks": 122640,
          "time": 87.102185625,
          "velocity": 0.30708661417322836
        },
        {
          "duration": 0.0852271874999957,
          "durationTicks": 120,
          "midi": 72,
          "name": "C5",
          "ticks": 122640,
          "time": 87.102185625,
          "velocity": 0.30708661417322836
        },
        {
          "duration": 0.0852271874999957,
          "durationTicks": 120,
          "midi": 71,
          "name": "B4",
          "ticks": 122640,
          "time": 87.102185625,
          "velocity": 0.30708661417322836
        },
        {
          "duration": 0.0852271874999957,
          "durationTicks": 120,
          "midi": 67,
          "name": "G4",
          "ticks": 122640,
          "time": 87.102185625,
          "velocity": 0.30708661417322836
        },
        {
          "duration": 0.0852271874999957,
          "durationTicks": 120,
          "midi": 64,
          "name": "E4",
          "ticks": 122640,
          "time": 87.102185625,
          "velocity": 0.30708661417322836
        },
        {
          "duration": 0.0852271874999957,
          "durationTicks": 120,
          "midi": 67,
          "name": "G4",
          "ticks": 122640,
          "time": 87.102185625,
          "velocity": 0.30708661417322836
        },
        {
          "duration": 0.0852271874999957,
          "durationTicks": 120,
          "midi": 59,
          "name": "B3",
          "ticks": 122640,
          "time": 87.102185625,
          "velocity": 0.30708661417322836
        },
        {
          "duration": 0.0852271874999957,
          "durationTicks": 120,
          "midi": 60,
          "name": "C4",
          "ticks": 122640,
          "time": 87.102185625,
          "velocity": 0.30708661417322836
        },
        {
          "duration": 0.0852271874999957,
          "durationTicks": 120,
          "midi": 60,
          "name": "C4",
          "ticks": 122640,
          "time": 87.102185625,
          "velocity": 0.30708661417322836
        },
        {
          "duration": 0.0852271874999957,
          "durationTicks": 120,
          "midi": 64,
          "name": "E4",
          "ticks": 122664,
          "time": 87.1192310625,
          "velocity": 0.30708661417322836
        },
        {
          "duration": 0.0852271874999957,
          "durationTicks": 120,
          "midi": 72,
          "name": "C5",
          "ticks": 122664,
          "time": 87.1192310625,
          "velocity": 0.30708661417322836
        },
        {
          "duration": 0.0852271874999957,
          "durationTicks": 120,
          "midi": 59,
          "name": "B3",
          "ticks": 122664,
          "time": 87.1192310625,
          "velocity": 0.30708661417322836
        },
        {
          "duration": 0.0852271874999957,
          "durationTicks": 120,
          "midi": 76,
          "name": "E5",
          "ticks": 122664,
          "time": 87.1192310625,
          "velocity": 0.30708661417322836
        },
        {
          "duration": 0.0852271874999957,
          "durationTicks": 120,
          "midi": 67,
          "name": "G4",
          "ticks": 122664,
          "time": 87.1192310625,
          "velocity": 0.30708661417322836
        },
        {
          "duration": 0.0852271874999957,
          "durationTicks": 120,
          "midi": 55,
          "name": "G3",
          "ticks": 122664,
          "time": 87.1192310625,
          "velocity": 0.30708661417322836
        },
        {
          "duration": 0.0852271874999957,
          "durationTicks": 120,
          "midi": 71,
          "name": "B4",
          "ticks": 122664,
          "time": 87.1192310625,
          "velocity": 0.30708661417322836
        },
        {
          "duration": 0.0852271874999957,
          "durationTicks": 120,
          "midi": 60,
          "name": "C4",
          "ticks": 122664,
          "time": 87.1192310625,
          "velocity": 0.30708661417322836
        },
        {
          "duration": 0.28977243749999104,
          "durationTicks": 408,
          "midi": 45,
          "name": "A2",
          "ticks": 122784,
          "time": 87.20445825,
          "velocity": 0.30708661417322836
        },
        {
          "duration": 0.28977243749999104,
          "durationTicks": 408,
          "midi": 45,
          "name": "A2",
          "ticks": 122784,
          "time": 87.20445825,
          "velocity": 0.30708661417322836
        },
        {
          "duration": 0.28977243749999104,
          "durationTicks": 408,
          "midi": 33,
          "name": "A1",
          "ticks": 122784,
          "time": 87.20445825,
          "velocity": 0.30708661417322836
        },
        {
          "duration": 0.28977243749999104,
          "durationTicks": 408,
          "midi": 33,
          "name": "A1",
          "ticks": 122784,
          "time": 87.20445825,
          "velocity": 0.30708661417322836
        },
        {
          "duration": 0.28977243749999104,
          "durationTicks": 408,
          "midi": 45,
          "name": "A2",
          "ticks": 122808,
          "time": 87.2215036875,
          "velocity": 0.30708661417322836
        },
        {
          "duration": 0.28977243749999104,
          "durationTicks": 408,
          "midi": 33,
          "name": "A1",
          "ticks": 122808,
          "time": 87.2215036875,
          "velocity": 0.30708661417322836
        },
        {
          "duration": 0.0852271875000099,
          "durationTicks": 120,
          "midi": 57,
          "name": "A3",
          "ticks": 123024,
          "time": 87.374912625,
          "velocity": 0.30708661417322836
        },
        {
          "duration": 0.0852271875000099,
          "durationTicks": 120,
          "midi": 64,
          "name": "E4",
          "ticks": 123024,
          "time": 87.374912625,
          "velocity": 0.30708661417322836
        },
        {
          "duration": 0.0852271875000099,
          "durationTicks": 120,
          "midi": 48,
          "name": "C3",
          "ticks": 123024,
          "time": 87.374912625,
          "velocity": 0.30708661417322836
        },
        {
          "duration": 0.0852271875000099,
          "durationTicks": 120,
          "midi": 72,
          "name": "C5",
          "ticks": 123024,
          "time": 87.374912625,
          "velocity": 0.30708661417322836
        },
        {
          "duration": 0.0852271875000099,
          "durationTicks": 120,
          "midi": 60,
          "name": "C4",
          "ticks": 123024,
          "time": 87.374912625,
          "velocity": 0.30708661417322836
        },
        {
          "duration": 0.0852271875000099,
          "durationTicks": 120,
          "midi": 57,
          "name": "A3",
          "ticks": 123024,
          "time": 87.374912625,
          "velocity": 0.30708661417322836
        },
        {
          "duration": 0.0852271875000099,
          "durationTicks": 120,
          "midi": 69,
          "name": "A4",
          "ticks": 123024,
          "time": 87.374912625,
          "velocity": 0.30708661417322836
        },
        {
          "duration": 0.0852271875000099,
          "durationTicks": 120,
          "midi": 72,
          "name": "C5",
          "ticks": 123024,
          "time": 87.374912625,
          "velocity": 0.30708661417322836
        },
        {
          "duration": 0.10227262500001189,
          "durationTicks": 144,
          "midi": 57,
          "name": "A3",
          "ticks": 123024,
          "time": 87.374912625,
          "velocity": 0.30708661417322836
        },
        {
          "duration": 0.0852271875000099,
          "durationTicks": 120,
          "midi": 52,
          "name": "E3",
          "ticks": 123024,
          "time": 87.374912625,
          "velocity": 0.30708661417322836
        },
        {
          "duration": 0.0852271875000099,
          "durationTicks": 120,
          "midi": 60,
          "name": "C4",
          "ticks": 123024,
          "time": 87.374912625,
          "velocity": 0.30708661417322836
        },
        {
          "duration": 0.15340893750000362,
          "durationTicks": 216,
          "midi": 57,
          "name": "A3",
          "ticks": 123024,
          "time": 87.374912625,
          "velocity": 0.30708661417322836
        },
        {
          "duration": 0.0852271875000099,
          "durationTicks": 120,
          "midi": 69,
          "name": "A4",
          "ticks": 123024,
          "time": 87.374912625,
          "velocity": 0.30708661417322836
        },
        {
          "duration": 0.0852271875000099,
          "durationTicks": 120,
          "midi": 52,
          "name": "E3",
          "ticks": 123024,
          "time": 87.374912625,
          "velocity": 0.30708661417322836
        },
        {
          "duration": 0.0852271875000099,
          "durationTicks": 120,
          "midi": 64,
          "name": "E4",
          "ticks": 123024,
          "time": 87.374912625,
          "velocity": 0.30708661417322836
        },
        {
          "duration": 0.0852271875000099,
          "durationTicks": 120,
          "midi": 48,
          "name": "C3",
          "ticks": 123024,
          "time": 87.374912625,
          "velocity": 0.30708661417322836
        },
        {
          "duration": 0.0852271875000099,
          "durationTicks": 120,
          "midi": 48,
          "name": "C3",
          "ticks": 123048,
          "time": 87.3919580625,
          "velocity": 0.30708661417322836
        },
        {
          "duration": 0.0852271875000099,
          "durationTicks": 120,
          "midi": 60,
          "name": "C4",
          "ticks": 123048,
          "time": 87.3919580625,
          "velocity": 0.30708661417322836
        },
        {
          "duration": 0.0852271875000099,
          "durationTicks": 120,
          "midi": 64,
          "name": "E4",
          "ticks": 123048,
          "time": 87.3919580625,
          "velocity": 0.30708661417322836
        },
        {
          "duration": 0.13636350000000164,
          "durationTicks": 192,
          "midi": 57,
          "name": "A3",
          "ticks": 123048,
          "time": 87.3919580625,
          "velocity": 0.30708661417322836
        },
        {
          "duration": 0.0852271875000099,
          "durationTicks": 120,
          "midi": 72,
          "name": "C5",
          "ticks": 123048,
          "time": 87.3919580625,
          "velocity": 0.30708661417322836
        },
        {
          "duration": 0.0852271875000099,
          "durationTicks": 120,
          "midi": 52,
          "name": "E3",
          "ticks": 123048,
          "time": 87.3919580625,
          "velocity": 0.30708661417322836
        },
        {
          "duration": 0.15340893750000362,
          "durationTicks": 216,
          "midi": 57,
          "name": "A3",
          "ticks": 123048,
          "time": 87.3919580625,
          "velocity": 0.30708661417322836
        },
        {
          "duration": 0.0852271875000099,
          "durationTicks": 120,
          "midi": 69,
          "name": "A4",
          "ticks": 123048,
          "time": 87.3919580625,
          "velocity": 0.30708661417322836
        },
        {
          "duration": 0.0852271874999957,
          "durationTicks": 120,
          "midi": 84,
          "name": "C6",
          "ticks": 123168,
          "time": 87.47718525,
          "velocity": 0.30708661417322836
        },
        {
          "duration": 0.0852271874999957,
          "durationTicks": 120,
          "midi": 81,
          "name": "A5",
          "ticks": 123168,
          "time": 87.47718525,
          "velocity": 0.30708661417322836
        },
        {
          "duration": 0.0852271874999957,
          "durationTicks": 120,
          "midi": 95,
          "name": "B6",
          "ticks": 123168,
          "time": 87.47718525,
          "velocity": 0.30708661417322836
        },
        {
          "duration": 0.0852271874999957,
          "durationTicks": 120,
          "midi": 64,
          "name": "E4",
          "ticks": 123168,
          "time": 87.47718525,
          "velocity": 0.30708661417322836
        },
        {
          "duration": 0.0852271874999957,
          "durationTicks": 120,
          "midi": 57,
          "name": "A3",
          "ticks": 123168,
          "time": 87.47718525,
          "velocity": 0.30708661417322836
        },
        {
          "duration": 0.0852271874999957,
          "durationTicks": 120,
          "midi": 76,
          "name": "E5",
          "ticks": 123168,
          "time": 87.47718525,
          "velocity": 0.30708661417322836
        },
        {
          "duration": 0.0852271874999957,
          "durationTicks": 120,
          "midi": 60,
          "name": "C4",
          "ticks": 123168,
          "time": 87.47718525,
          "velocity": 0.30708661417322836
        },
        {
          "duration": 0.0852271874999957,
          "durationTicks": 120,
          "midi": 57,
          "name": "A3",
          "ticks": 123168,
          "time": 87.47718525,
          "velocity": 0.30708661417322836
        },
        {
          "duration": 0.0852271874999957,
          "durationTicks": 120,
          "midi": 76,
          "name": "E5",
          "ticks": 123168,
          "time": 87.47718525,
          "velocity": 0.30708661417322836
        },
        {
          "duration": 0.0852271874999957,
          "durationTicks": 120,
          "midi": 71,
          "name": "B4",
          "ticks": 123168,
          "time": 87.47718525,
          "velocity": 0.30708661417322836
        },
        {
          "duration": 0.0852271874999957,
          "durationTicks": 120,
          "midi": 59,
          "name": "B3",
          "ticks": 123168,
          "time": 87.47718525,
          "velocity": 0.30708661417322836
        },
        {
          "duration": 0.0852271874999957,
          "durationTicks": 120,
          "midi": 69,
          "name": "A4",
          "ticks": 123168,
          "time": 87.47718525,
          "velocity": 0.30708661417322836
        },
        {
          "duration": 0.0852271874999957,
          "durationTicks": 120,
          "midi": 88,
          "name": "E6",
          "ticks": 123168,
          "time": 87.47718525,
          "velocity": 0.30708661417322836
        },
        {
          "duration": 0.0852271874999957,
          "durationTicks": 120,
          "midi": 71,
          "name": "B4",
          "ticks": 123168,
          "time": 87.47718525,
          "velocity": 0.30708661417322836
        },
        {
          "duration": 0.0852271874999957,
          "durationTicks": 120,
          "midi": 83,
          "name": "B5",
          "ticks": 123168,
          "time": 87.47718525,
          "velocity": 0.30708661417322836
        },
        {
          "duration": 0.0852271874999957,
          "durationTicks": 120,
          "midi": 93,
          "name": "A6",
          "ticks": 123168,
          "time": 87.47718525,
          "velocity": 0.30708661417322836
        },
        {
          "duration": 0.0852271874999957,
          "durationTicks": 120,
          "midi": 59,
          "name": "B3",
          "ticks": 123168,
          "time": 87.47718525,
          "velocity": 0.30708661417322836
        },
        {
          "duration": 0.0852271874999957,
          "durationTicks": 120,
          "midi": 60,
          "name": "C4",
          "ticks": 123168,
          "time": 87.47718525,
          "velocity": 0.30708661417322836
        },
        {
          "duration": 0.0852271874999957,
          "durationTicks": 120,
          "midi": 72,
          "name": "C5",
          "ticks": 123168,
          "time": 87.47718525,
          "velocity": 0.30708661417322836
        },
        {
          "duration": 0.0852271874999957,
          "durationTicks": 120,
          "midi": 84,
          "name": "C6",
          "ticks": 123168,
          "time": 87.47718525,
          "velocity": 0.30708661417322836
        },
        {
          "duration": 0.0852271874999957,
          "durationTicks": 120,
          "midi": 69,
          "name": "A4",
          "ticks": 123168,
          "time": 87.47718525,
          "velocity": 0.30708661417322836
        },
        {
          "duration": 0.0852271874999957,
          "durationTicks": 120,
          "midi": 88,
          "name": "E6",
          "ticks": 123168,
          "time": 87.47718525,
          "velocity": 0.30708661417322836
        },
        {
          "duration": 0.0852271874999957,
          "durationTicks": 120,
          "midi": 81,
          "name": "A5",
          "ticks": 123168,
          "time": 87.47718525,
          "velocity": 0.30708661417322836
        },
        {
          "duration": 0.0852271874999957,
          "durationTicks": 120,
          "midi": 83,
          "name": "B5",
          "ticks": 123168,
          "time": 87.47718525,
          "velocity": 0.30708661417322836
        },
        {
          "duration": 0.0852271874999957,
          "durationTicks": 120,
          "midi": 95,
          "name": "B6",
          "ticks": 123168,
          "time": 87.47718525,
          "velocity": 0.30708661417322836
        },
        {
          "duration": 0.0852271874999957,
          "durationTicks": 120,
          "midi": 93,
          "name": "A6",
          "ticks": 123168,
          "time": 87.47718525,
          "velocity": 0.30708661417322836
        },
        {
          "duration": 0.0852271874999957,
          "durationTicks": 120,
          "midi": 72,
          "name": "C5",
          "ticks": 123168,
          "time": 87.47718525,
          "velocity": 0.30708661417322836
        },
        {
          "duration": 0.0852271874999957,
          "durationTicks": 120,
          "midi": 64,
          "name": "E4",
          "ticks": 123168,
          "time": 87.47718525,
          "velocity": 0.30708661417322836
        },
        {
          "duration": 0.0852271875000099,
          "durationTicks": 120,
          "midi": 64,
          "name": "E4",
          "ticks": 123192,
          "time": 87.49423068749999,
          "velocity": 0.30708661417322836
        },
        {
          "duration": 0.0852271875000099,
          "durationTicks": 120,
          "midi": 81,
          "name": "A5",
          "ticks": 123192,
          "time": 87.49423068749999,
          "velocity": 0.30708661417322836
        },
        {
          "duration": 0.0852271875000099,
          "durationTicks": 120,
          "midi": 60,
          "name": "C4",
          "ticks": 123192,
          "time": 87.49423068749999,
          "velocity": 0.30708661417322836
        },
        {
          "duration": 0.0852271875000099,
          "durationTicks": 120,
          "midi": 57,
          "name": "A3",
          "ticks": 123192,
          "time": 87.49423068749999,
          "velocity": 0.30708661417322836
        },
        {
          "duration": 0.0852271875000099,
          "durationTicks": 120,
          "midi": 71,
          "name": "B4",
          "ticks": 123192,
          "time": 87.49423068749999,
          "velocity": 0.30708661417322836
        },
        {
          "duration": 0.0852271875000099,
          "durationTicks": 120,
          "midi": 69,
          "name": "A4",
          "ticks": 123192,
          "time": 87.49423068749999,
          "velocity": 0.30708661417322836
        },
        {
          "duration": 0.0852271875000099,
          "durationTicks": 120,
          "midi": 83,
          "name": "B5",
          "ticks": 123192,
          "time": 87.49423068749999,
          "velocity": 0.30708661417322836
        },
        {
          "duration": 0.0852271875000099,
          "durationTicks": 120,
          "midi": 76,
          "name": "E5",
          "ticks": 123192,
          "time": 87.49423068749999,
          "velocity": 0.30708661417322836
        },
        {
          "duration": 0.0852271875000099,
          "durationTicks": 120,
          "midi": 59,
          "name": "B3",
          "ticks": 123192,
          "time": 87.49423068749999,
          "velocity": 0.30708661417322836
        },
        {
          "duration": 0.0852271875000099,
          "durationTicks": 120,
          "midi": 72,
          "name": "C5",
          "ticks": 123192,
          "time": 87.49423068749999,
          "velocity": 0.30708661417322836
        },
        {
          "duration": 0.0852271875000099,
          "durationTicks": 120,
          "midi": 93,
          "name": "A6",
          "ticks": 123192,
          "time": 87.49423068749999,
          "velocity": 0.30708661417322836
        },
        {
          "duration": 0.0852271875000099,
          "durationTicks": 120,
          "midi": 88,
          "name": "E6",
          "ticks": 123192,
          "time": 87.49423068749999,
          "velocity": 0.30708661417322836
        },
        {
          "duration": 0.0852271875000099,
          "durationTicks": 120,
          "midi": 95,
          "name": "B6",
          "ticks": 123192,
          "time": 87.49423068749999,
          "velocity": 0.30708661417322836
        },
        {
          "duration": 0.0852271875000099,
          "durationTicks": 120,
          "midi": 84,
          "name": "C6",
          "ticks": 123192,
          "time": 87.49423068749999,
          "velocity": 0.30708661417322836
        },
        {
          "duration": 0.0852271874999957,
          "durationTicks": 120,
          "midi": 52,
          "name": "E3",
          "ticks": 123264,
          "time": 87.545367,
          "velocity": 0.30708661417322836
        },
        {
          "duration": 0.0852271874999957,
          "durationTicks": 120,
          "midi": 40,
          "name": "E2",
          "ticks": 123264,
          "time": 87.545367,
          "velocity": 0.30708661417322836
        },
        {
          "duration": 0.0852271874999957,
          "durationTicks": 120,
          "midi": 40,
          "name": "E2",
          "ticks": 123264,
          "time": 87.545367,
          "velocity": 0.30708661417322836
        },
        {
          "duration": 0.0852271874999957,
          "durationTicks": 120,
          "midi": 52,
          "name": "E3",
          "ticks": 123264,
          "time": 87.545367,
          "velocity": 0.30708661417322836
        },
        {
          "duration": 0.0852271874999957,
          "durationTicks": 120,
          "midi": 40,
          "name": "E2",
          "ticks": 123288,
          "time": 87.5624124375,
          "velocity": 0.30708661417322836
        },
        {
          "duration": 0.0852271874999957,
          "durationTicks": 120,
          "midi": 52,
          "name": "E3",
          "ticks": 123288,
          "time": 87.5624124375,
          "velocity": 0.30708661417322836
        },
        {
          "duration": 0.0852271874999957,
          "durationTicks": 120,
          "midi": 72,
          "name": "C5",
          "ticks": 123504,
          "time": 87.715821375,
          "velocity": 0.30708661417322836
        },
        {
          "duration": 0.0852271874999957,
          "durationTicks": 120,
          "midi": 60,
          "name": "C4",
          "ticks": 123504,
          "time": 87.715821375,
          "velocity": 0.30708661417322836
        },
        {
          "duration": 0.0852271874999957,
          "durationTicks": 120,
          "midi": 57,
          "name": "A3",
          "ticks": 123504,
          "time": 87.715821375,
          "velocity": 0.30708661417322836
        },
        {
          "duration": 0.0852271874999957,
          "durationTicks": 120,
          "midi": 57,
          "name": "A3",
          "ticks": 123504,
          "time": 87.715821375,
          "velocity": 0.30708661417322836
        },
        {
          "duration": 0.0852271874999957,
          "durationTicks": 120,
          "midi": 52,
          "name": "E3",
          "ticks": 123504,
          "time": 87.715821375,
          "velocity": 0.30708661417322836
        },
        {
          "duration": 0.0852271874999957,
          "durationTicks": 120,
          "midi": 76,
          "name": "E5",
          "ticks": 123504,
          "time": 87.715821375,
          "velocity": 0.30708661417322836
        },
        {
          "duration": 0.0852271874999957,
          "durationTicks": 120,
          "midi": 48,
          "name": "C3",
          "ticks": 123504,
          "time": 87.715821375,
          "velocity": 0.30708661417322836
        },
        {
          "duration": 0.0852271874999957,
          "durationTicks": 120,
          "midi": 69,
          "name": "A4",
          "ticks": 123504,
          "time": 87.715821375,
          "velocity": 0.30708661417322836
        },
        {
          "duration": 0.0852271874999957,
          "durationTicks": 120,
          "midi": 64,
          "name": "E4",
          "ticks": 123504,
          "time": 87.715821375,
          "velocity": 0.30708661417322836
        },
        {
          "duration": 0.0852271874999957,
          "durationTicks": 120,
          "midi": 76,
          "name": "E5",
          "ticks": 123504,
          "time": 87.715821375,
          "velocity": 0.30708661417322836
        },
        {
          "duration": 0.0852271874999957,
          "durationTicks": 120,
          "midi": 69,
          "name": "A4",
          "ticks": 123504,
          "time": 87.715821375,
          "velocity": 0.30708661417322836
        },
        {
          "duration": 0.0852271874999957,
          "durationTicks": 120,
          "midi": 72,
          "name": "C5",
          "ticks": 123504,
          "time": 87.715821375,
          "velocity": 0.30708661417322836
        },
        {
          "duration": 0.0852271874999957,
          "durationTicks": 120,
          "midi": 52,
          "name": "E3",
          "ticks": 123504,
          "time": 87.715821375,
          "velocity": 0.30708661417322836
        },
        {
          "duration": 0.0852271874999957,
          "durationTicks": 120,
          "midi": 64,
          "name": "E4",
          "ticks": 123504,
          "time": 87.715821375,
          "velocity": 0.30708661417322836
        },
        {
          "duration": 0.0852271874999957,
          "durationTicks": 120,
          "midi": 60,
          "name": "C4",
          "ticks": 123504,
          "time": 87.715821375,
          "velocity": 0.30708661417322836
        },
        {
          "duration": 0.0852271874999957,
          "durationTicks": 120,
          "midi": 48,
          "name": "C3",
          "ticks": 123504,
          "time": 87.715821375,
          "velocity": 0.30708661417322836
        },
        {
          "duration": 0.0852271875000099,
          "durationTicks": 120,
          "midi": 76,
          "name": "E5",
          "ticks": 123528,
          "time": 87.73286681249999,
          "velocity": 0.30708661417322836
        },
        {
          "duration": 0.0852271875000099,
          "durationTicks": 120,
          "midi": 72,
          "name": "C5",
          "ticks": 123528,
          "time": 87.73286681249999,
          "velocity": 0.30708661417322836
        },
        {
          "duration": 0.0852271875000099,
          "durationTicks": 120,
          "midi": 48,
          "name": "C3",
          "ticks": 123528,
          "time": 87.73286681249999,
          "velocity": 0.30708661417322836
        },
        {
          "duration": 0.0852271875000099,
          "durationTicks": 120,
          "midi": 57,
          "name": "A3",
          "ticks": 123528,
          "time": 87.73286681249999,
          "velocity": 0.30708661417322836
        },
        {
          "duration": 0.0852271875000099,
          "durationTicks": 120,
          "midi": 60,
          "name": "C4",
          "ticks": 123528,
          "time": 87.73286681249999,
          "velocity": 0.30708661417322836
        },
        {
          "duration": 0.0852271875000099,
          "durationTicks": 120,
          "midi": 69,
          "name": "A4",
          "ticks": 123528,
          "time": 87.73286681249999,
          "velocity": 0.30708661417322836
        },
        {
          "duration": 0.0852271875000099,
          "durationTicks": 120,
          "midi": 64,
          "name": "E4",
          "ticks": 123528,
          "time": 87.73286681249999,
          "velocity": 0.30708661417322836
        },
        {
          "duration": 0.0852271875000099,
          "durationTicks": 120,
          "midi": 52,
          "name": "E3",
          "ticks": 123528,
          "time": 87.73286681249999,
          "velocity": 0.30708661417322836
        },
        {
          "duration": 0.0852271874999957,
          "durationTicks": 120,
          "midi": 71,
          "name": "B4",
          "ticks": 123648,
          "time": 87.818094,
          "velocity": 0.30708661417322836
        },
        {
          "duration": 0.0852271874999957,
          "durationTicks": 120,
          "midi": 72,
          "name": "C5",
          "ticks": 123648,
          "time": 87.818094,
          "velocity": 0.30708661417322836
        },
        {
          "duration": 0.0852271874999957,
          "durationTicks": 120,
          "midi": 59,
          "name": "B3",
          "ticks": 123648,
          "time": 87.818094,
          "velocity": 0.30708661417322836
        },
        {
          "duration": 0.0852271874999957,
          "durationTicks": 120,
          "midi": 59,
          "name": "B3",
          "ticks": 123648,
          "time": 87.818094,
          "velocity": 0.30708661417322836
        },
        {
          "duration": 0.0852271874999957,
          "durationTicks": 120,
          "midi": 67,
          "name": "G4",
          "ticks": 123648,
          "time": 87.818094,
          "velocity": 0.30708661417322836
        },
        {
          "duration": 0.0852271874999957,
          "durationTicks": 120,
          "midi": 64,
          "name": "E4",
          "ticks": 123648,
          "time": 87.818094,
          "velocity": 0.30708661417322836
        },
        {
          "duration": 0.0852271874999957,
          "durationTicks": 120,
          "midi": 60,
          "name": "C4",
          "ticks": 123648,
          "time": 87.818094,
          "velocity": 0.30708661417322836
        },
        {
          "duration": 0.0852271874999957,
          "durationTicks": 120,
          "midi": 76,
          "name": "E5",
          "ticks": 123648,
          "time": 87.818094,
          "velocity": 0.30708661417322836
        },
        {
          "duration": 0.0852271874999957,
          "durationTicks": 120,
          "midi": 55,
          "name": "G3",
          "ticks": 123648,
          "time": 87.818094,
          "velocity": 0.30708661417322836
        },
        {
          "duration": 0.0852271874999957,
          "durationTicks": 120,
          "midi": 71,
          "name": "B4",
          "ticks": 123648,
          "time": 87.818094,
          "velocity": 0.30708661417322836
        },
        {
          "duration": 0.0852271874999957,
          "durationTicks": 120,
          "midi": 76,
          "name": "E5",
          "ticks": 123648,
          "time": 87.818094,
          "velocity": 0.30708661417322836
        },
        {
          "duration": 0.0852271874999957,
          "durationTicks": 120,
          "midi": 60,
          "name": "C4",
          "ticks": 123648,
          "time": 87.818094,
          "velocity": 0.30708661417322836
        },
        {
          "duration": 0.0852271874999957,
          "durationTicks": 120,
          "midi": 64,
          "name": "E4",
          "ticks": 123648,
          "time": 87.818094,
          "velocity": 0.30708661417322836
        },
        {
          "duration": 0.0852271874999957,
          "durationTicks": 120,
          "midi": 67,
          "name": "G4",
          "ticks": 123648,
          "time": 87.818094,
          "velocity": 0.30708661417322836
        },
        {
          "duration": 0.0852271874999957,
          "durationTicks": 120,
          "midi": 55,
          "name": "G3",
          "ticks": 123648,
          "time": 87.818094,
          "velocity": 0.30708661417322836
        },
        {
          "duration": 0.0852271874999957,
          "durationTicks": 120,
          "midi": 72,
          "name": "C5",
          "ticks": 123648,
          "time": 87.818094,
          "velocity": 0.30708661417322836
        },
        {
          "duration": 0.0852271874999957,
          "durationTicks": 120,
          "midi": 55,
          "name": "G3",
          "ticks": 123672,
          "time": 87.8351394375,
          "velocity": 0.30708661417322836
        },
        {
          "duration": 0.0852271874999957,
          "durationTicks": 120,
          "midi": 60,
          "name": "C4",
          "ticks": 123672,
          "time": 87.8351394375,
          "velocity": 0.30708661417322836
        },
        {
          "duration": 0.0852271874999957,
          "durationTicks": 120,
          "midi": 71,
          "name": "B4",
          "ticks": 123672,
          "time": 87.8351394375,
          "velocity": 0.30708661417322836
        },
        {
          "duration": 0.0852271874999957,
          "durationTicks": 120,
          "midi": 64,
          "name": "E4",
          "ticks": 123672,
          "time": 87.8351394375,
          "velocity": 0.30708661417322836
        },
        {
          "duration": 0.0852271874999957,
          "durationTicks": 120,
          "midi": 76,
          "name": "E5",
          "ticks": 123672,
          "time": 87.8351394375,
          "velocity": 0.30708661417322836
        },
        {
          "duration": 0.0852271874999957,
          "durationTicks": 120,
          "midi": 72,
          "name": "C5",
          "ticks": 123672,
          "time": 87.8351394375,
          "velocity": 0.30708661417322836
        },
        {
          "duration": 0.0852271874999957,
          "durationTicks": 120,
          "midi": 59,
          "name": "B3",
          "ticks": 123672,
          "time": 87.8351394375,
          "velocity": 0.30708661417322836
        },
        {
          "duration": 0.0852271874999957,
          "durationTicks": 120,
          "midi": 67,
          "name": "G4",
          "ticks": 123672,
          "time": 87.8351394375,
          "velocity": 0.30708661417322836
        },
        {
          "duration": 0.28977243750000525,
          "durationTicks": 408,
          "midi": 45,
          "name": "A2",
          "ticks": 123744,
          "time": 87.88627575,
          "velocity": 0.30708661417322836
        },
        {
          "duration": 0.28977243750000525,
          "durationTicks": 408,
          "midi": 45,
          "name": "A2",
          "ticks": 123744,
          "time": 87.88627575,
          "velocity": 0.30708661417322836
        },
        {
          "duration": 0.28977243750000525,
          "durationTicks": 408,
          "midi": 33,
          "name": "A1",
          "ticks": 123744,
          "time": 87.88627575,
          "velocity": 0.30708661417322836
        },
        {
          "duration": 0.28977243750000525,
          "durationTicks": 408,
          "midi": 33,
          "name": "A1",
          "ticks": 123744,
          "time": 87.88627575,
          "velocity": 0.30708661417322836
        },
        {
          "duration": 0.28977243750000525,
          "durationTicks": 408,
          "midi": 33,
          "name": "A1",
          "ticks": 123768,
          "time": 87.9033211875,
          "velocity": 0.30708661417322836
        },
        {
          "duration": 0.28977243750000525,
          "durationTicks": 408,
          "midi": 45,
          "name": "A2",
          "ticks": 123768,
          "time": 87.9033211875,
          "velocity": 0.30708661417322836
        },
        {
          "duration": 0.0852271874999957,
          "durationTicks": 120,
          "midi": 52,
          "name": "E3",
          "ticks": 123984,
          "time": 88.056730125,
          "velocity": 0.30708661417322836
        },
        {
          "duration": 0.0852271874999957,
          "durationTicks": 120,
          "midi": 57,
          "name": "A3",
          "ticks": 123984,
          "time": 88.056730125,
          "velocity": 0.30708661417322836
        },
        {
          "duration": 0.0852271874999957,
          "durationTicks": 120,
          "midi": 52,
          "name": "E3",
          "ticks": 123984,
          "time": 88.056730125,
          "velocity": 0.30708661417322836
        },
        {
          "duration": 0.0852271874999957,
          "durationTicks": 120,
          "midi": 64,
          "name": "E4",
          "ticks": 123984,
          "time": 88.056730125,
          "velocity": 0.30708661417322836
        },
        {
          "duration": 0.0852271874999957,
          "durationTicks": 120,
          "midi": 60,
          "name": "C4",
          "ticks": 123984,
          "time": 88.056730125,
          "velocity": 0.30708661417322836
        },
        {
          "duration": 0.0852271874999957,
          "durationTicks": 120,
          "midi": 84,
          "name": "C6",
          "ticks": 123984,
          "time": 88.056730125,
          "velocity": 0.30708661417322836
        },
        {
          "duration": 0.0852271874999957,
          "durationTicks": 120,
          "midi": 69,
          "name": "A4",
          "ticks": 123984,
          "time": 88.056730125,
          "velocity": 0.30708661417322836
        },
        {
          "duration": 0.0852271874999957,
          "durationTicks": 120,
          "midi": 76,
          "name": "E5",
          "ticks": 123984,
          "time": 88.056730125,
          "velocity": 0.30708661417322836
        },
        {
          "duration": 0.0852271874999957,
          "durationTicks": 120,
          "midi": 81,
          "name": "A5",
          "ticks": 123984,
          "time": 88.056730125,
          "velocity": 0.30708661417322836
        },
        {
          "duration": 0.0852271874999957,
          "durationTicks": 120,
          "midi": 72,
          "name": "C5",
          "ticks": 123984,
          "time": 88.056730125,
          "velocity": 0.30708661417322836
        },
        {
          "duration": 0.0852271874999957,
          "durationTicks": 120,
          "midi": 72,
          "name": "C5",
          "ticks": 123984,
          "time": 88.056730125,
          "velocity": 0.30708661417322836
        },
        {
          "duration": 0.0852271874999957,
          "durationTicks": 120,
          "midi": 57,
          "name": "A3",
          "ticks": 123984,
          "time": 88.056730125,
          "velocity": 0.30708661417322836
        },
        {
          "duration": 0.0852271874999957,
          "durationTicks": 120,
          "midi": 81,
          "name": "A5",
          "ticks": 123984,
          "time": 88.056730125,
          "velocity": 0.30708661417322836
        },
        {
          "duration": 0.0852271874999957,
          "durationTicks": 120,
          "midi": 60,
          "name": "C4",
          "ticks": 123984,
          "time": 88.056730125,
          "velocity": 0.30708661417322836
        },
        {
          "duration": 0.0852271874999957,
          "durationTicks": 120,
          "midi": 64,
          "name": "E4",
          "ticks": 123984,
          "time": 88.056730125,
          "velocity": 0.30708661417322836
        },
        {
          "duration": 0.0852271874999957,
          "durationTicks": 120,
          "midi": 48,
          "name": "C3",
          "ticks": 123984,
          "time": 88.056730125,
          "velocity": 0.30708661417322836
        },
        {
          "duration": 0.0852271874999957,
          "durationTicks": 120,
          "midi": 84,
          "name": "C6",
          "ticks": 123984,
          "time": 88.056730125,
          "velocity": 0.30708661417322836
        },
        {
          "duration": 0.0852271874999957,
          "durationTicks": 120,
          "midi": 69,
          "name": "A4",
          "ticks": 123984,
          "time": 88.056730125,
          "velocity": 0.30708661417322836
        },
        {
          "duration": 0.0852271874999957,
          "durationTicks": 120,
          "midi": 48,
          "name": "C3",
          "ticks": 123984,
          "time": 88.056730125,
          "velocity": 0.30708661417322836
        },
        {
          "duration": 0.0852271874999957,
          "durationTicks": 120,
          "midi": 76,
          "name": "E5",
          "ticks": 123984,
          "time": 88.056730125,
          "velocity": 0.30708661417322836
        },
        {
          "duration": 0.0852271874999957,
          "durationTicks": 120,
          "midi": 76,
          "name": "E5",
          "ticks": 124008,
          "time": 88.0737755625,
          "velocity": 0.30708661417322836
        },
        {
          "duration": 0.0852271874999957,
          "durationTicks": 120,
          "midi": 81,
          "name": "A5",
          "ticks": 124008,
          "time": 88.0737755625,
          "velocity": 0.30708661417322836
        },
        {
          "duration": 0.0852271874999957,
          "durationTicks": 120,
          "midi": 57,
          "name": "A3",
          "ticks": 124008,
          "time": 88.0737755625,
          "velocity": 0.30708661417322836
        },
        {
          "duration": 0.0852271874999957,
          "durationTicks": 120,
          "midi": 84,
          "name": "C6",
          "ticks": 124008,
          "time": 88.0737755625,
          "velocity": 0.30708661417322836
        },
        {
          "duration": 0.0852271874999957,
          "durationTicks": 120,
          "midi": 60,
          "name": "C4",
          "ticks": 124008,
          "time": 88.0737755625,
          "velocity": 0.30708661417322836
        },
        {
          "duration": 0.0852271874999957,
          "durationTicks": 120,
          "midi": 52,
          "name": "E3",
          "ticks": 124008,
          "time": 88.0737755625,
          "velocity": 0.30708661417322836
        },
        {
          "duration": 0.0852271874999957,
          "durationTicks": 120,
          "midi": 64,
          "name": "E4",
          "ticks": 124008,
          "time": 88.0737755625,
          "velocity": 0.30708661417322836
        },
        {
          "duration": 0.0852271874999957,
          "durationTicks": 120,
          "midi": 69,
          "name": "A4",
          "ticks": 124008,
          "time": 88.0737755625,
          "velocity": 0.30708661417322836
        },
        {
          "duration": 0.0852271874999957,
          "durationTicks": 120,
          "midi": 48,
          "name": "C3",
          "ticks": 124008,
          "time": 88.0737755625,
          "velocity": 0.30708661417322836
        },
        {
          "duration": 0.0852271874999957,
          "durationTicks": 120,
          "midi": 72,
          "name": "C5",
          "ticks": 124008,
          "time": 88.0737755625,
          "velocity": 0.30708661417322836
        },
        {
          "duration": 0.0852271874999957,
          "durationTicks": 120,
          "midi": 88,
          "name": "E6",
          "ticks": 124104,
          "time": 88.1419573125,
          "velocity": 0.30708661417322836
        },
        {
          "duration": 0.01704543750000198,
          "durationTicks": 24,
          "midi": 57,
          "name": "A3",
          "ticks": 124104,
          "time": 88.1419573125,
          "velocity": 0.30708661417322836
        },
        {
          "duration": 0.0852271874999957,
          "durationTicks": 120,
          "midi": 81,
          "name": "A5",
          "ticks": 124104,
          "time": 88.1419573125,
          "velocity": 0.30708661417322836
        },
        {
          "duration": 0.0852271874999957,
          "durationTicks": 120,
          "midi": 88,
          "name": "E6",
          "ticks": 124104,
          "time": 88.1419573125,
          "velocity": 0.30708661417322836
        },
        {
          "duration": 0.0852271874999957,
          "durationTicks": 120,
          "midi": 64,
          "name": "E4",
          "ticks": 124104,
          "time": 88.1419573125,
          "velocity": 0.30708661417322836
        },
        {
          "duration": 0.0852271874999957,
          "durationTicks": 120,
          "midi": 59,
          "name": "B3",
          "ticks": 124104,
          "time": 88.1419573125,
          "velocity": 0.30708661417322836
        },
        {
          "duration": 0.0852271874999957,
          "durationTicks": 120,
          "midi": 84,
          "name": "C6",
          "ticks": 124104,
          "time": 88.1419573125,
          "velocity": 0.30708661417322836
        },
        {
          "duration": 0.0852271874999957,
          "durationTicks": 120,
          "midi": 81,
          "name": "A5",
          "ticks": 124104,
          "time": 88.1419573125,
          "velocity": 0.30708661417322836
        },
        {
          "duration": 0.0852271874999957,
          "durationTicks": 120,
          "midi": 59,
          "name": "B3",
          "ticks": 124104,
          "time": 88.1419573125,
          "velocity": 0.30708661417322836
        },
        {
          "duration": 0.0852271874999957,
          "durationTicks": 120,
          "midi": 71,
          "name": "B4",
          "ticks": 124104,
          "time": 88.1419573125,
          "velocity": 0.30708661417322836
        },
        {
          "duration": 0.0852271874999957,
          "durationTicks": 120,
          "midi": 93,
          "name": "A6",
          "ticks": 124104,
          "time": 88.1419573125,
          "velocity": 0.30708661417322836
        },
        {
          "duration": 0.01704543750000198,
          "durationTicks": 24,
          "midi": 57,
          "name": "A3",
          "ticks": 124104,
          "time": 88.1419573125,
          "velocity": 0.30708661417322836
        },
        {
          "duration": 0.0852271874999957,
          "durationTicks": 120,
          "midi": 95,
          "name": "B6",
          "ticks": 124104,
          "time": 88.1419573125,
          "velocity": 0.30708661417322836
        },
        {
          "duration": 0.03409087500000396,
          "durationTicks": 48,
          "midi": 57,
          "name": "A3",
          "ticks": 124104,
          "time": 88.1419573125,
          "velocity": 0.30708661417322836
        },
        {
          "duration": 0.0852271874999957,
          "durationTicks": 120,
          "midi": 71,
          "name": "B4",
          "ticks": 124104,
          "time": 88.1419573125,
          "velocity": 0.30708661417322836
        },
        {
          "duration": 0.0852271874999957,
          "durationTicks": 120,
          "midi": 60,
          "name": "C4",
          "ticks": 124104,
          "time": 88.1419573125,
          "velocity": 0.30708661417322836
        },
        {
          "duration": 0.0852271874999957,
          "durationTicks": 120,
          "midi": 83,
          "name": "B5",
          "ticks": 124104,
          "time": 88.1419573125,
          "velocity": 0.30708661417322836
        },
        {
          "duration": 0.0852271874999957,
          "durationTicks": 120,
          "midi": 69,
          "name": "A4",
          "ticks": 124104,
          "time": 88.1419573125,
          "velocity": 0.30708661417322836
        },
        {
          "duration": 0.0852271874999957,
          "durationTicks": 120,
          "midi": 64,
          "name": "E4",
          "ticks": 124104,
          "time": 88.1419573125,
          "velocity": 0.30708661417322836
        },
        {
          "duration": 0.0852271874999957,
          "durationTicks": 120,
          "midi": 72,
          "name": "C5",
          "ticks": 124104,
          "time": 88.1419573125,
          "velocity": 0.30708661417322836
        },
        {
          "duration": 0.0852271874999957,
          "durationTicks": 120,
          "midi": 72,
          "name": "C5",
          "ticks": 124104,
          "time": 88.1419573125,
          "velocity": 0.30708661417322836
        },
        {
          "duration": 0.0852271874999957,
          "durationTicks": 120,
          "midi": 93,
          "name": "A6",
          "ticks": 124104,
          "time": 88.1419573125,
          "velocity": 0.30708661417322836
        },
        {
          "duration": 0.0852271874999957,
          "durationTicks": 120,
          "midi": 83,
          "name": "B5",
          "ticks": 124104,
          "time": 88.1419573125,
          "velocity": 0.30708661417322836
        },
        {
          "duration": 0.0852271874999957,
          "durationTicks": 120,
          "midi": 76,
          "name": "E5",
          "ticks": 124104,
          "time": 88.1419573125,
          "velocity": 0.30708661417322836
        },
        {
          "duration": 0.0852271874999957,
          "durationTicks": 120,
          "midi": 60,
          "name": "C4",
          "ticks": 124104,
          "time": 88.1419573125,
          "velocity": 0.30708661417322836
        },
        {
          "duration": 0.0852271874999957,
          "durationTicks": 120,
          "midi": 69,
          "name": "A4",
          "ticks": 124104,
          "time": 88.1419573125,
          "velocity": 0.30708661417322836
        },
        {
          "duration": 0.0852271874999957,
          "durationTicks": 120,
          "midi": 84,
          "name": "C6",
          "ticks": 124104,
          "time": 88.1419573125,
          "velocity": 0.30708661417322836
        },
        {
          "duration": 0.0852271874999957,
          "durationTicks": 120,
          "midi": 57,
          "name": "A3",
          "ticks": 124104,
          "time": 88.1419573125,
          "velocity": 0.30708661417322836
        },
        {
          "duration": 0.0852271874999957,
          "durationTicks": 120,
          "midi": 95,
          "name": "B6",
          "ticks": 124104,
          "time": 88.1419573125,
          "velocity": 0.30708661417322836
        },
        {
          "duration": 0.0852271874999957,
          "durationTicks": 120,
          "midi": 76,
          "name": "E5",
          "ticks": 124104,
          "time": 88.1419573125,
          "velocity": 0.30708661417322836
        },
        {
          "duration": 0.0852271874999957,
          "durationTicks": 120,
          "midi": 71,
          "name": "B4",
          "ticks": 124128,
          "time": 88.15900275,
          "velocity": 0.30708661417322836
        },
        {
          "duration": 0.0852271874999957,
          "durationTicks": 120,
          "midi": 93,
          "name": "A6",
          "ticks": 124128,
          "time": 88.15900275,
          "velocity": 0.30708661417322836
        },
        {
          "duration": 0.0852271874999957,
          "durationTicks": 120,
          "midi": 81,
          "name": "A5",
          "ticks": 124128,
          "time": 88.15900275,
          "velocity": 0.30708661417322836
        },
        {
          "duration": 0.0852271874999957,
          "durationTicks": 120,
          "midi": 64,
          "name": "E4",
          "ticks": 124128,
          "time": 88.15900275,
          "velocity": 0.30708661417322836
        },
        {
          "duration": 0.0852271874999957,
          "durationTicks": 120,
          "midi": 69,
          "name": "A4",
          "ticks": 124128,
          "time": 88.15900275,
          "velocity": 0.30708661417322836
        },
        {
          "duration": 0.0852271874999957,
          "durationTicks": 120,
          "midi": 88,
          "name": "E6",
          "ticks": 124128,
          "time": 88.15900275,
          "velocity": 0.30708661417322836
        },
        {
          "duration": 0.0852271874999957,
          "durationTicks": 120,
          "midi": 59,
          "name": "B3",
          "ticks": 124128,
          "time": 88.15900275,
          "velocity": 0.30708661417322836
        },
        {
          "duration": 0.0852271874999957,
          "durationTicks": 120,
          "midi": 83,
          "name": "B5",
          "ticks": 124128,
          "time": 88.15900275,
          "velocity": 0.30708661417322836
        },
        {
          "duration": 0.0852271874999957,
          "durationTicks": 120,
          "midi": 60,
          "name": "C4",
          "ticks": 124128,
          "time": 88.15900275,
          "velocity": 0.30708661417322836
        },
        {
          "duration": 0.06818174999999371,
          "durationTicks": 96,
          "midi": 57,
          "name": "A3",
          "ticks": 124128,
          "time": 88.15900275,
          "velocity": 0.30708661417322836
        },
        {
          "duration": 0.0852271874999957,
          "durationTicks": 120,
          "midi": 95,
          "name": "B6",
          "ticks": 124128,
          "time": 88.15900275,
          "velocity": 0.30708661417322836
        },
        {
          "duration": 0.0852271874999957,
          "durationTicks": 120,
          "midi": 76,
          "name": "E5",
          "ticks": 124128,
          "time": 88.15900275,
          "velocity": 0.30708661417322836
        },
        {
          "duration": 0.0852271874999957,
          "durationTicks": 120,
          "midi": 72,
          "name": "C5",
          "ticks": 124128,
          "time": 88.15900275,
          "velocity": 0.30708661417322836
        },
        {
          "duration": 0.0852271874999957,
          "durationTicks": 120,
          "midi": 57,
          "name": "A3",
          "ticks": 124128,
          "time": 88.15900275,
          "velocity": 0.30708661417322836
        },
        {
          "duration": 0.0852271874999957,
          "durationTicks": 120,
          "midi": 84,
          "name": "C6",
          "ticks": 124128,
          "time": 88.15900275,
          "velocity": 0.30708661417322836
        },
        {
          "duration": 0.0852271875000099,
          "durationTicks": 120,
          "midi": 52,
          "name": "E3",
          "ticks": 124224,
          "time": 88.22718449999999,
          "velocity": 0.30708661417322836
        },
        {
          "duration": 0.0852271875000099,
          "durationTicks": 120,
          "midi": 40,
          "name": "E2",
          "ticks": 124224,
          "time": 88.22718449999999,
          "velocity": 0.30708661417322836
        },
        {
          "duration": 0.0852271875000099,
          "durationTicks": 120,
          "midi": 40,
          "name": "E2",
          "ticks": 124224,
          "time": 88.22718449999999,
          "velocity": 0.30708661417322836
        },
        {
          "duration": 0.0852271875000099,
          "durationTicks": 120,
          "midi": 52,
          "name": "E3",
          "ticks": 124224,
          "time": 88.22718449999999,
          "velocity": 0.30708661417322836
        },
        {
          "duration": 0.0852271875000099,
          "durationTicks": 120,
          "midi": 40,
          "name": "E2",
          "ticks": 124248,
          "time": 88.2442299375,
          "velocity": 0.30708661417322836
        },
        {
          "duration": 0.0852271875000099,
          "durationTicks": 120,
          "midi": 52,
          "name": "E3",
          "ticks": 124248,
          "time": 88.2442299375,
          "velocity": 0.30708661417322836
        },
        {
          "duration": 0.0852271874999957,
          "durationTicks": 120,
          "midi": 57,
          "name": "A3",
          "ticks": 124464,
          "time": 88.397638875,
          "velocity": 0.30708661417322836
        },
        {
          "duration": 0.0852271874999957,
          "durationTicks": 120,
          "midi": 76,
          "name": "E5",
          "ticks": 124464,
          "time": 88.397638875,
          "velocity": 0.30708661417322836
        },
        {
          "duration": 0.0852271874999957,
          "durationTicks": 120,
          "midi": 69,
          "name": "A4",
          "ticks": 124464,
          "time": 88.397638875,
          "velocity": 0.30708661417322836
        },
        {
          "duration": 0.0852271874999957,
          "durationTicks": 120,
          "midi": 88,
          "name": "E6",
          "ticks": 124464,
          "time": 88.397638875,
          "velocity": 0.30708661417322836
        },
        {
          "duration": 0.0852271874999957,
          "durationTicks": 120,
          "midi": 93,
          "name": "A6",
          "ticks": 124464,
          "time": 88.397638875,
          "velocity": 0.30708661417322836
        },
        {
          "duration": 0.0852271874999957,
          "durationTicks": 120,
          "midi": 64,
          "name": "E4",
          "ticks": 124464,
          "time": 88.397638875,
          "velocity": 0.30708661417322836
        },
        {
          "duration": 0.0852271874999957,
          "durationTicks": 120,
          "midi": 72,
          "name": "C5",
          "ticks": 124464,
          "time": 88.397638875,
          "velocity": 0.30708661417322836
        },
        {
          "duration": 0.0852271874999957,
          "durationTicks": 120,
          "midi": 60,
          "name": "C4",
          "ticks": 124464,
          "time": 88.397638875,
          "velocity": 0.30708661417322836
        },
        {
          "duration": 0.0852271874999957,
          "durationTicks": 120,
          "midi": 48,
          "name": "C3",
          "ticks": 124464,
          "time": 88.397638875,
          "velocity": 0.30708661417322836
        },
        {
          "duration": 0.0852271874999957,
          "durationTicks": 120,
          "midi": 52,
          "name": "E3",
          "ticks": 124464,
          "time": 88.397638875,
          "velocity": 0.30708661417322836
        },
        {
          "duration": 0.0852271874999957,
          "durationTicks": 120,
          "midi": 88,
          "name": "E6",
          "ticks": 124464,
          "time": 88.397638875,
          "velocity": 0.30708661417322836
        },
        {
          "duration": 0.0852271874999957,
          "durationTicks": 120,
          "midi": 72,
          "name": "C5",
          "ticks": 124464,
          "time": 88.397638875,
          "velocity": 0.30708661417322836
        },
        {
          "duration": 0.0852271874999957,
          "durationTicks": 120,
          "midi": 81,
          "name": "A5",
          "ticks": 124464,
          "time": 88.397638875,
          "velocity": 0.30708661417322836
        },
        {
          "duration": 0.0852271874999957,
          "durationTicks": 120,
          "midi": 57,
          "name": "A3",
          "ticks": 124464,
          "time": 88.397638875,
          "velocity": 0.30708661417322836
        },
        {
          "duration": 0.0852271874999957,
          "durationTicks": 120,
          "midi": 84,
          "name": "C6",
          "ticks": 124464,
          "time": 88.397638875,
          "velocity": 0.30708661417322836
        },
        {
          "duration": 0.0852271874999957,
          "durationTicks": 120,
          "midi": 69,
          "name": "A4",
          "ticks": 124464,
          "time": 88.397638875,
          "velocity": 0.30708661417322836
        },
        {
          "duration": 0.0852271874999957,
          "durationTicks": 120,
          "midi": 48,
          "name": "C3",
          "ticks": 124464,
          "time": 88.397638875,
          "velocity": 0.30708661417322836
        },
        {
          "duration": 0.0852271874999957,
          "durationTicks": 120,
          "midi": 81,
          "name": "A5",
          "ticks": 124464,
          "time": 88.397638875,
          "velocity": 0.30708661417322836
        },
        {
          "duration": 0.0852271874999957,
          "durationTicks": 120,
          "midi": 64,
          "name": "E4",
          "ticks": 124464,
          "time": 88.397638875,
          "velocity": 0.30708661417322836
        },
        {
          "duration": 0.0852271874999957,
          "durationTicks": 120,
          "midi": 76,
          "name": "E5",
          "ticks": 124464,
          "time": 88.397638875,
          "velocity": 0.30708661417322836
        },
        {
          "duration": 0.0852271874999957,
          "durationTicks": 120,
          "midi": 52,
          "name": "E3",
          "ticks": 124464,
          "time": 88.397638875,
          "velocity": 0.30708661417322836
        },
        {
          "duration": 0.0852271874999957,
          "durationTicks": 120,
          "midi": 84,
          "name": "C6",
          "ticks": 124464,
          "time": 88.397638875,
          "velocity": 0.30708661417322836
        },
        {
          "duration": 0.0852271874999957,
          "durationTicks": 120,
          "midi": 60,
          "name": "C4",
          "ticks": 124464,
          "time": 88.397638875,
          "velocity": 0.30708661417322836
        },
        {
          "duration": 0.0852271874999957,
          "durationTicks": 120,
          "midi": 93,
          "name": "A6",
          "ticks": 124464,
          "time": 88.397638875,
          "velocity": 0.30708661417322836
        },
        {
          "duration": 0.0852271874999957,
          "durationTicks": 120,
          "midi": 93,
          "name": "A6",
          "ticks": 124488,
          "time": 88.4146843125,
          "velocity": 0.30708661417322836
        },
        {
          "duration": 0.0852271874999957,
          "durationTicks": 120,
          "midi": 48,
          "name": "C3",
          "ticks": 124488,
          "time": 88.4146843125,
          "velocity": 0.30708661417322836
        },
        {
          "duration": 0.0852271874999957,
          "durationTicks": 120,
          "midi": 76,
          "name": "E5",
          "ticks": 124488,
          "time": 88.4146843125,
          "velocity": 0.30708661417322836
        },
        {
          "duration": 0.0852271874999957,
          "durationTicks": 120,
          "midi": 69,
          "name": "A4",
          "ticks": 124488,
          "time": 88.4146843125,
          "velocity": 0.30708661417322836
        },
        {
          "duration": 0.0852271874999957,
          "durationTicks": 120,
          "midi": 84,
          "name": "C6",
          "ticks": 124488,
          "time": 88.4146843125,
          "velocity": 0.30708661417322836
        },
        {
          "duration": 0.0852271874999957,
          "durationTicks": 120,
          "midi": 60,
          "name": "C4",
          "ticks": 124488,
          "time": 88.4146843125,
          "velocity": 0.30708661417322836
        },
        {
          "duration": 0.0852271874999957,
          "durationTicks": 120,
          "midi": 64,
          "name": "E4",
          "ticks": 124488,
          "time": 88.4146843125,
          "velocity": 0.30708661417322836
        },
        {
          "duration": 0.0852271874999957,
          "durationTicks": 120,
          "midi": 57,
          "name": "A3",
          "ticks": 124488,
          "time": 88.4146843125,
          "velocity": 0.30708661417322836
        },
        {
          "duration": 0.0852271874999957,
          "durationTicks": 120,
          "midi": 52,
          "name": "E3",
          "ticks": 124488,
          "time": 88.4146843125,
          "velocity": 0.30708661417322836
        },
        {
          "duration": 0.0852271874999957,
          "durationTicks": 120,
          "midi": 81,
          "name": "A5",
          "ticks": 124488,
          "time": 88.4146843125,
          "velocity": 0.30708661417322836
        },
        {
          "duration": 0.0852271874999957,
          "durationTicks": 120,
          "midi": 88,
          "name": "E6",
          "ticks": 124488,
          "time": 88.4146843125,
          "velocity": 0.30708661417322836
        },
        {
          "duration": 0.0852271874999957,
          "durationTicks": 120,
          "midi": 72,
          "name": "C5",
          "ticks": 124488,
          "time": 88.4146843125,
          "velocity": 0.30708661417322836
        },
        {
          "duration": 0.0852271874999957,
          "durationTicks": 120,
          "midi": 64,
          "name": "E4",
          "ticks": 124656,
          "time": 88.534002375,
          "velocity": 0.30708661417322836
        },
        {
          "duration": 0.0852271874999957,
          "durationTicks": 120,
          "midi": 45,
          "name": "A2",
          "ticks": 124656,
          "time": 88.534002375,
          "velocity": 0.30708661417322836
        },
        {
          "duration": 0.0852271874999957,
          "durationTicks": 120,
          "midi": 72,
          "name": "C5",
          "ticks": 124656,
          "time": 88.534002375,
          "velocity": 0.30708661417322836
        },
        {
          "duration": 0.0852271874999957,
          "durationTicks": 120,
          "midi": 76,
          "name": "E5",
          "ticks": 124656,
          "time": 88.534002375,
          "velocity": 0.30708661417322836
        },
        {
          "duration": 0.0852271874999957,
          "durationTicks": 120,
          "midi": 45,
          "name": "A2",
          "ticks": 124656,
          "time": 88.534002375,
          "velocity": 0.30708661417322836
        },
        {
          "duration": 0.0852271874999957,
          "durationTicks": 120,
          "midi": 76,
          "name": "E5",
          "ticks": 124656,
          "time": 88.534002375,
          "velocity": 0.30708661417322836
        },
        {
          "duration": 0.0852271874999957,
          "durationTicks": 120,
          "midi": 69,
          "name": "A4",
          "ticks": 124656,
          "time": 88.534002375,
          "velocity": 0.30708661417322836
        },
        {
          "duration": 0.0852271874999957,
          "durationTicks": 120,
          "midi": 64,
          "name": "E4",
          "ticks": 124656,
          "time": 88.534002375,
          "velocity": 0.30708661417322836
        },
        {
          "duration": 0.0852271874999957,
          "durationTicks": 120,
          "midi": 69,
          "name": "A4",
          "ticks": 124656,
          "time": 88.534002375,
          "velocity": 0.30708661417322836
        },
        {
          "duration": 0.0852271874999957,
          "durationTicks": 120,
          "midi": 72,
          "name": "C5",
          "ticks": 124656,
          "time": 88.534002375,
          "velocity": 0.30708661417322836
        },
        {
          "duration": 0.0852271874999957,
          "durationTicks": 120,
          "midi": 45,
          "name": "A2",
          "ticks": 124680,
          "time": 88.5510478125,
          "velocity": 0.30708661417322836
        },
        {
          "duration": 0.0852271874999957,
          "durationTicks": 120,
          "midi": 69,
          "name": "A4",
          "ticks": 124680,
          "time": 88.5510478125,
          "velocity": 0.30708661417322836
        },
        {
          "duration": 0.0852271874999957,
          "durationTicks": 120,
          "midi": 76,
          "name": "E5",
          "ticks": 124680,
          "time": 88.5510478125,
          "velocity": 0.30708661417322836
        },
        {
          "duration": 0.0852271874999957,
          "durationTicks": 120,
          "midi": 64,
          "name": "E4",
          "ticks": 124680,
          "time": 88.5510478125,
          "velocity": 0.30708661417322836
        },
        {
          "duration": 0.0852271874999957,
          "durationTicks": 120,
          "midi": 72,
          "name": "C5",
          "ticks": 124680,
          "time": 88.5510478125,
          "velocity": 0.30708661417322836
        },
        {
          "duration": 0.0852271875000099,
          "durationTicks": 120,
          "midi": 64,
          "name": "E4",
          "ticks": 124776,
          "time": 88.6192295625,
          "velocity": 0.30708661417322836
        },
        {
          "duration": 0.0852271875000099,
          "durationTicks": 120,
          "midi": 76,
          "name": "E5",
          "ticks": 124776,
          "time": 88.6192295625,
          "velocity": 0.30708661417322836
        },
        {
          "duration": 0.0852271875000099,
          "durationTicks": 120,
          "midi": 69,
          "name": "A4",
          "ticks": 124776,
          "time": 88.6192295625,
          "velocity": 0.30708661417322836
        },
        {
          "duration": 0.0852271875000099,
          "durationTicks": 120,
          "midi": 69,
          "name": "A4",
          "ticks": 124776,
          "time": 88.6192295625,
          "velocity": 0.30708661417322836
        },
        {
          "duration": 0.0852271875000099,
          "durationTicks": 120,
          "midi": 72,
          "name": "C5",
          "ticks": 124776,
          "time": 88.6192295625,
          "velocity": 0.30708661417322836
        },
        {
          "duration": 0.0852271875000099,
          "durationTicks": 120,
          "midi": 72,
          "name": "C5",
          "ticks": 124776,
          "time": 88.6192295625,
          "velocity": 0.30708661417322836
        },
        {
          "duration": 0.0852271875000099,
          "durationTicks": 120,
          "midi": 64,
          "name": "E4",
          "ticks": 124776,
          "time": 88.6192295625,
          "velocity": 0.30708661417322836
        },
        {
          "duration": 0.0852271875000099,
          "durationTicks": 120,
          "midi": 76,
          "name": "E5",
          "ticks": 124776,
          "time": 88.6192295625,
          "velocity": 0.30708661417322836
        },
        {
          "duration": 0.0852271874999957,
          "durationTicks": 120,
          "midi": 76,
          "name": "E5",
          "ticks": 124800,
          "time": 88.636275,
          "velocity": 0.30708661417322836
        },
        {
          "duration": 0.0852271874999957,
          "durationTicks": 120,
          "midi": 72,
          "name": "C5",
          "ticks": 124800,
          "time": 88.636275,
          "velocity": 0.30708661417322836
        },
        {
          "duration": 0.0852271874999957,
          "durationTicks": 120,
          "midi": 64,
          "name": "E4",
          "ticks": 124800,
          "time": 88.636275,
          "velocity": 0.30708661417322836
        },
        {
          "duration": 0.0852271874999957,
          "durationTicks": 120,
          "midi": 69,
          "name": "A4",
          "ticks": 124800,
          "time": 88.636275,
          "velocity": 0.30708661417322836
        },
        {
          "duration": 0.0852271874999957,
          "durationTicks": 120,
          "midi": 64,
          "name": "E4",
          "ticks": 124896,
          "time": 88.70445675,
          "velocity": 0.30708661417322836
        },
        {
          "duration": 0.0852271874999957,
          "durationTicks": 120,
          "midi": 52,
          "name": "E3",
          "ticks": 124896,
          "time": 88.70445675,
          "velocity": 0.30708661417322836
        },
        {
          "duration": 0.0852271874999957,
          "durationTicks": 120,
          "midi": 72,
          "name": "C5",
          "ticks": 124896,
          "time": 88.70445675,
          "velocity": 0.30708661417322836
        },
        {
          "duration": 0.0852271874999957,
          "durationTicks": 120,
          "midi": 76,
          "name": "E5",
          "ticks": 124896,
          "time": 88.70445675,
          "velocity": 0.30708661417322836
        },
        {
          "duration": 0.0852271874999957,
          "durationTicks": 120,
          "midi": 69,
          "name": "A4",
          "ticks": 124896,
          "time": 88.70445675,
          "velocity": 0.30708661417322836
        },
        {
          "duration": 0.0852271874999957,
          "durationTicks": 120,
          "midi": 72,
          "name": "C5",
          "ticks": 124896,
          "time": 88.70445675,
          "velocity": 0.30708661417322836
        },
        {
          "duration": 0.0852271874999957,
          "durationTicks": 120,
          "midi": 48,
          "name": "C3",
          "ticks": 124896,
          "time": 88.70445675,
          "velocity": 0.30708661417322836
        },
        {
          "duration": 0.0852271874999957,
          "durationTicks": 120,
          "midi": 64,
          "name": "E4",
          "ticks": 124896,
          "time": 88.70445675,
          "velocity": 0.30708661417322836
        },
        {
          "duration": 0.0852271874999957,
          "durationTicks": 120,
          "midi": 69,
          "name": "A4",
          "ticks": 124896,
          "time": 88.70445675,
          "velocity": 0.30708661417322836
        },
        {
          "duration": 0.0852271874999957,
          "durationTicks": 120,
          "midi": 48,
          "name": "C3",
          "ticks": 124896,
          "time": 88.70445675,
          "velocity": 0.30708661417322836
        },
        {
          "duration": 0.0852271874999957,
          "durationTicks": 120,
          "midi": 76,
          "name": "E5",
          "ticks": 124896,
          "time": 88.70445675,
          "velocity": 0.30708661417322836
        },
        {
          "duration": 0.0852271874999957,
          "durationTicks": 120,
          "midi": 52,
          "name": "E3",
          "ticks": 124896,
          "time": 88.70445675,
          "velocity": 0.30708661417322836
        },
        {
          "duration": 0.0852271875000099,
          "durationTicks": 120,
          "midi": 52,
          "name": "E3",
          "ticks": 124920,
          "time": 88.7215021875,
          "velocity": 0.30708661417322836
        },
        {
          "duration": 0.0852271875000099,
          "durationTicks": 120,
          "midi": 76,
          "name": "E5",
          "ticks": 124920,
          "time": 88.7215021875,
          "velocity": 0.30708661417322836
        },
        {
          "duration": 0.0852271875000099,
          "durationTicks": 120,
          "midi": 64,
          "name": "E4",
          "ticks": 124920,
          "time": 88.7215021875,
          "velocity": 0.30708661417322836
        },
        {
          "duration": 0.0852271875000099,
          "durationTicks": 120,
          "midi": 72,
          "name": "C5",
          "ticks": 124920,
          "time": 88.7215021875,
          "velocity": 0.30708661417322836
        },
        {
          "duration": 0.0852271875000099,
          "durationTicks": 120,
          "midi": 48,
          "name": "C3",
          "ticks": 124920,
          "time": 88.7215021875,
          "velocity": 0.30708661417322836
        },
        {
          "duration": 0.0852271875000099,
          "durationTicks": 120,
          "midi": 69,
          "name": "A4",
          "ticks": 124920,
          "time": 88.7215021875,
          "velocity": 0.30708661417322836
        },
        {
          "duration": 0.0852271874999957,
          "durationTicks": 120,
          "midi": 64,
          "name": "E4",
          "ticks": 125016,
          "time": 88.7896839375,
          "velocity": 0.30708661417322836
        },
        {
          "duration": 0.0852271874999957,
          "durationTicks": 120,
          "midi": 76,
          "name": "E5",
          "ticks": 125016,
          "time": 88.7896839375,
          "velocity": 0.30708661417322836
        },
        {
          "duration": 0.0852271874999957,
          "durationTicks": 120,
          "midi": 72,
          "name": "C5",
          "ticks": 125016,
          "time": 88.7896839375,
          "velocity": 0.30708661417322836
        },
        {
          "duration": 0.0852271874999957,
          "durationTicks": 120,
          "midi": 69,
          "name": "A4",
          "ticks": 125016,
          "time": 88.7896839375,
          "velocity": 0.30708661417322836
        },
        {
          "duration": 0.0852271874999957,
          "durationTicks": 120,
          "midi": 64,
          "name": "E4",
          "ticks": 125016,
          "time": 88.7896839375,
          "velocity": 0.30708661417322836
        },
        {
          "duration": 0.0852271874999957,
          "durationTicks": 120,
          "midi": 72,
          "name": "C5",
          "ticks": 125016,
          "time": 88.7896839375,
          "velocity": 0.30708661417322836
        },
        {
          "duration": 0.0852271874999957,
          "durationTicks": 120,
          "midi": 69,
          "name": "A4",
          "ticks": 125016,
          "time": 88.7896839375,
          "velocity": 0.30708661417322836
        },
        {
          "duration": 0.0852271874999957,
          "durationTicks": 120,
          "midi": 76,
          "name": "E5",
          "ticks": 125016,
          "time": 88.7896839375,
          "velocity": 0.30708661417322836
        },
        {
          "duration": 0.0852271874999957,
          "durationTicks": 120,
          "midi": 64,
          "name": "E4",
          "ticks": 125040,
          "time": 88.806729375,
          "velocity": 0.30708661417322836
        },
        {
          "duration": 0.0852271874999957,
          "durationTicks": 120,
          "midi": 76,
          "name": "E5",
          "ticks": 125040,
          "time": 88.806729375,
          "velocity": 0.30708661417322836
        },
        {
          "duration": 0.0852271874999957,
          "durationTicks": 120,
          "midi": 72,
          "name": "C5",
          "ticks": 125040,
          "time": 88.806729375,
          "velocity": 0.30708661417322836
        },
        {
          "duration": 0.0852271874999957,
          "durationTicks": 120,
          "midi": 69,
          "name": "A4",
          "ticks": 125040,
          "time": 88.806729375,
          "velocity": 0.30708661417322836
        },
        {
          "duration": 0.0852271874999957,
          "durationTicks": 120,
          "midi": 72,
          "name": "C5",
          "ticks": 125136,
          "time": 88.874911125,
          "velocity": 0.30708661417322836
        },
        {
          "duration": 0.0852271874999957,
          "durationTicks": 120,
          "midi": 64,
          "name": "E4",
          "ticks": 125136,
          "time": 88.874911125,
          "velocity": 0.30708661417322836
        },
        {
          "duration": 0.0852271874999957,
          "durationTicks": 120,
          "midi": 40,
          "name": "E2",
          "ticks": 125136,
          "time": 88.874911125,
          "velocity": 0.30708661417322836
        },
        {
          "duration": 0.0852271874999957,
          "durationTicks": 120,
          "midi": 40,
          "name": "E2",
          "ticks": 125136,
          "time": 88.874911125,
          "velocity": 0.30708661417322836
        },
        {
          "duration": 0.0852271874999957,
          "durationTicks": 120,
          "midi": 72,
          "name": "C5",
          "ticks": 125136,
          "time": 88.874911125,
          "velocity": 0.30708661417322836
        },
        {
          "duration": 0.0852271874999957,
          "durationTicks": 120,
          "midi": 76,
          "name": "E5",
          "ticks": 125136,
          "time": 88.874911125,
          "velocity": 0.30708661417322836
        },
        {
          "duration": 0.0852271874999957,
          "durationTicks": 120,
          "midi": 64,
          "name": "E4",
          "ticks": 125136,
          "time": 88.874911125,
          "velocity": 0.30708661417322836
        },
        {
          "duration": 0.0852271874999957,
          "durationTicks": 120,
          "midi": 69,
          "name": "A4",
          "ticks": 125136,
          "time": 88.874911125,
          "velocity": 0.30708661417322836
        },
        {
          "duration": 0.0852271874999957,
          "durationTicks": 120,
          "midi": 69,
          "name": "A4",
          "ticks": 125136,
          "time": 88.874911125,
          "velocity": 0.30708661417322836
        },
        {
          "duration": 0.0852271874999957,
          "durationTicks": 120,
          "midi": 76,
          "name": "E5",
          "ticks": 125136,
          "time": 88.874911125,
          "velocity": 0.30708661417322836
        },
        {
          "duration": 0.0852271874999957,
          "durationTicks": 120,
          "midi": 69,
          "name": "A4",
          "ticks": 125160,
          "time": 88.8919565625,
          "velocity": 0.30708661417322836
        },
        {
          "duration": 0.0852271874999957,
          "durationTicks": 120,
          "midi": 72,
          "name": "C5",
          "ticks": 125160,
          "time": 88.8919565625,
          "velocity": 0.30708661417322836
        },
        {
          "duration": 0.0852271874999957,
          "durationTicks": 120,
          "midi": 40,
          "name": "E2",
          "ticks": 125160,
          "time": 88.8919565625,
          "velocity": 0.30708661417322836
        },
        {
          "duration": 0.0852271874999957,
          "durationTicks": 120,
          "midi": 76,
          "name": "E5",
          "ticks": 125160,
          "time": 88.8919565625,
          "velocity": 0.30708661417322836
        },
        {
          "duration": 0.0852271874999957,
          "durationTicks": 120,
          "midi": 64,
          "name": "E4",
          "ticks": 125160,
          "time": 88.8919565625,
          "velocity": 0.30708661417322836
        },
        {
          "duration": 0.0852271875000099,
          "durationTicks": 120,
          "midi": 69,
          "name": "A4",
          "ticks": 125256,
          "time": 88.96013831249999,
          "velocity": 0.30708661417322836
        },
        {
          "duration": 0.0852271875000099,
          "durationTicks": 120,
          "midi": 64,
          "name": "E4",
          "ticks": 125256,
          "time": 88.96013831249999,
          "velocity": 0.30708661417322836
        },
        {
          "duration": 0.0852271875000099,
          "durationTicks": 120,
          "midi": 72,
          "name": "C5",
          "ticks": 125256,
          "time": 88.96013831249999,
          "velocity": 0.30708661417322836
        },
        {
          "duration": 0.0852271875000099,
          "durationTicks": 120,
          "midi": 64,
          "name": "E4",
          "ticks": 125256,
          "time": 88.96013831249999,
          "velocity": 0.30708661417322836
        },
        {
          "duration": 0.0852271875000099,
          "durationTicks": 120,
          "midi": 76,
          "name": "E5",
          "ticks": 125256,
          "time": 88.96013831249999,
          "velocity": 0.30708661417322836
        },
        {
          "duration": 0.0852271875000099,
          "durationTicks": 120,
          "midi": 69,
          "name": "A4",
          "ticks": 125256,
          "time": 88.96013831249999,
          "velocity": 0.30708661417322836
        },
        {
          "duration": 0.0852271875000099,
          "durationTicks": 120,
          "midi": 72,
          "name": "C5",
          "ticks": 125256,
          "time": 88.96013831249999,
          "velocity": 0.30708661417322836
        },
        {
          "duration": 0.0852271875000099,
          "durationTicks": 120,
          "midi": 76,
          "name": "E5",
          "ticks": 125256,
          "time": 88.96013831249999,
          "velocity": 0.30708661417322836
        },
        {
          "duration": 0.0852271875000099,
          "durationTicks": 120,
          "midi": 72,
          "name": "C5",
          "ticks": 125280,
          "time": 88.97718375,
          "velocity": 0.30708661417322836
        },
        {
          "duration": 0.0852271875000099,
          "durationTicks": 120,
          "midi": 69,
          "name": "A4",
          "ticks": 125280,
          "time": 88.97718375,
          "velocity": 0.30708661417322836
        },
        {
          "duration": 0.0852271875000099,
          "durationTicks": 120,
          "midi": 76,
          "name": "E5",
          "ticks": 125280,
          "time": 88.97718375,
          "velocity": 0.30708661417322836
        },
        {
          "duration": 0.0852271875000099,
          "durationTicks": 120,
          "midi": 64,
          "name": "E4",
          "ticks": 125280,
          "time": 88.97718375,
          "velocity": 0.30708661417322836
        },
        {
          "duration": 0.0852271874999957,
          "durationTicks": 120,
          "midi": 64,
          "name": "E4",
          "ticks": 125376,
          "time": 89.0453655,
          "velocity": 0.30708661417322836
        },
        {
          "duration": 0.0852271874999957,
          "durationTicks": 120,
          "midi": 52,
          "name": "E3",
          "ticks": 125376,
          "time": 89.0453655,
          "velocity": 0.30708661417322836
        },
        {
          "duration": 0.0852271874999957,
          "durationTicks": 120,
          "midi": 52,
          "name": "E3",
          "ticks": 125376,
          "time": 89.0453655,
          "velocity": 0.30708661417322836
        },
        {
          "duration": 0.0852271874999957,
          "durationTicks": 120,
          "midi": 72,
          "name": "C5",
          "ticks": 125376,
          "time": 89.0453655,
          "velocity": 0.30708661417322836
        },
        {
          "duration": 0.0852271874999957,
          "durationTicks": 120,
          "midi": 69,
          "name": "A4",
          "ticks": 125376,
          "time": 89.0453655,
          "velocity": 0.30708661417322836
        },
        {
          "duration": 0.0852271874999957,
          "durationTicks": 120,
          "midi": 76,
          "name": "E5",
          "ticks": 125376,
          "time": 89.0453655,
          "velocity": 0.30708661417322836
        },
        {
          "duration": 0.0852271874999957,
          "durationTicks": 120,
          "midi": 76,
          "name": "E5",
          "ticks": 125376,
          "time": 89.0453655,
          "velocity": 0.30708661417322836
        },
        {
          "duration": 0.0852271874999957,
          "durationTicks": 120,
          "midi": 48,
          "name": "C3",
          "ticks": 125376,
          "time": 89.0453655,
          "velocity": 0.30708661417322836
        },
        {
          "duration": 0.0852271874999957,
          "durationTicks": 120,
          "midi": 64,
          "name": "E4",
          "ticks": 125376,
          "time": 89.0453655,
          "velocity": 0.30708661417322836
        },
        {
          "duration": 0.0852271874999957,
          "durationTicks": 120,
          "midi": 69,
          "name": "A4",
          "ticks": 125376,
          "time": 89.0453655,
          "velocity": 0.30708661417322836
        },
        {
          "duration": 0.0852271874999957,
          "durationTicks": 120,
          "midi": 48,
          "name": "C3",
          "ticks": 125376,
          "time": 89.0453655,
          "velocity": 0.30708661417322836
        },
        {
          "duration": 0.0852271874999957,
          "durationTicks": 120,
          "midi": 72,
          "name": "C5",
          "ticks": 125376,
          "time": 89.0453655,
          "velocity": 0.30708661417322836
        },
        {
          "duration": 0.0852271874999957,
          "durationTicks": 120,
          "midi": 72,
          "name": "C5",
          "ticks": 125400,
          "time": 89.0624109375,
          "velocity": 0.30708661417322836
        },
        {
          "duration": 0.0852271874999957,
          "durationTicks": 120,
          "midi": 64,
          "name": "E4",
          "ticks": 125400,
          "time": 89.0624109375,
          "velocity": 0.30708661417322836
        },
        {
          "duration": 0.0852271874999957,
          "durationTicks": 120,
          "midi": 69,
          "name": "A4",
          "ticks": 125400,
          "time": 89.0624109375,
          "velocity": 0.30708661417322836
        },
        {
          "duration": 0.0852271874999957,
          "durationTicks": 120,
          "midi": 76,
          "name": "E5",
          "ticks": 125400,
          "time": 89.0624109375,
          "velocity": 0.30708661417322836
        },
        {
          "duration": 0.0852271874999957,
          "durationTicks": 120,
          "midi": 48,
          "name": "C3",
          "ticks": 125400,
          "time": 89.0624109375,
          "velocity": 0.30708661417322836
        },
        {
          "duration": 0.0852271874999957,
          "durationTicks": 120,
          "midi": 52,
          "name": "E3",
          "ticks": 125400,
          "time": 89.0624109375,
          "velocity": 0.30708661417322836
        },
        {
          "duration": 0.0852271874999957,
          "durationTicks": 120,
          "midi": 72,
          "name": "C5",
          "ticks": 125496,
          "time": 89.1305926875,
          "velocity": 0.30708661417322836
        },
        {
          "duration": 0.0852271874999957,
          "durationTicks": 120,
          "midi": 72,
          "name": "C5",
          "ticks": 125496,
          "time": 89.1305926875,
          "velocity": 0.30708661417322836
        },
        {
          "duration": 0.0852271874999957,
          "durationTicks": 120,
          "midi": 69,
          "name": "A4",
          "ticks": 125496,
          "time": 89.1305926875,
          "velocity": 0.30708661417322836
        },
        {
          "duration": 0.0852271874999957,
          "durationTicks": 120,
          "midi": 76,
          "name": "E5",
          "ticks": 125496,
          "time": 89.1305926875,
          "velocity": 0.30708661417322836
        },
        {
          "duration": 0.0852271874999957,
          "durationTicks": 120,
          "midi": 76,
          "name": "E5",
          "ticks": 125496,
          "time": 89.1305926875,
          "velocity": 0.30708661417322836
        },
        {
          "duration": 0.0852271874999957,
          "durationTicks": 120,
          "midi": 64,
          "name": "E4",
          "ticks": 125496,
          "time": 89.1305926875,
          "velocity": 0.30708661417322836
        },
        {
          "duration": 0.0852271874999957,
          "durationTicks": 120,
          "midi": 64,
          "name": "E4",
          "ticks": 125496,
          "time": 89.1305926875,
          "velocity": 0.30708661417322836
        },
        {
          "duration": 0.0852271874999957,
          "durationTicks": 120,
          "midi": 69,
          "name": "A4",
          "ticks": 125496,
          "time": 89.1305926875,
          "velocity": 0.30708661417322836
        },
        {
          "duration": 0.0852271874999957,
          "durationTicks": 120,
          "midi": 69,
          "name": "A4",
          "ticks": 125520,
          "time": 89.147638125,
          "velocity": 0.30708661417322836
        },
        {
          "duration": 0.0852271874999957,
          "durationTicks": 120,
          "midi": 72,
          "name": "C5",
          "ticks": 125520,
          "time": 89.147638125,
          "velocity": 0.30708661417322836
        },
        {
          "duration": 0.0852271874999957,
          "durationTicks": 120,
          "midi": 76,
          "name": "E5",
          "ticks": 125520,
          "time": 89.147638125,
          "velocity": 0.30708661417322836
        },
        {
          "duration": 0.0852271874999957,
          "durationTicks": 120,
          "midi": 64,
          "name": "E4",
          "ticks": 125520,
          "time": 89.147638125,
          "velocity": 0.30708661417322836
        },
        {
          "duration": 0.0852271875000099,
          "durationTicks": 120,
          "midi": 45,
          "name": "A2",
          "ticks": 125616,
          "time": 89.215819875,
          "velocity": 0.30708661417322836
        },
        {
          "duration": 0.0852271875000099,
          "durationTicks": 120,
          "midi": 69,
          "name": "A4",
          "ticks": 125616,
          "time": 89.215819875,
          "velocity": 0.30708661417322836
        },
        {
          "duration": 0.0852271875000099,
          "durationTicks": 120,
          "midi": 72,
          "name": "C5",
          "ticks": 125616,
          "time": 89.215819875,
          "velocity": 0.30708661417322836
        },
        {
          "duration": 0.0852271875000099,
          "durationTicks": 120,
          "midi": 72,
          "name": "C5",
          "ticks": 125616,
          "time": 89.215819875,
          "velocity": 0.30708661417322836
        },
        {
          "duration": 0.0852271875000099,
          "durationTicks": 120,
          "midi": 64,
          "name": "E4",
          "ticks": 125616,
          "time": 89.215819875,
          "velocity": 0.30708661417322836
        },
        {
          "duration": 0.0852271875000099,
          "durationTicks": 120,
          "midi": 76,
          "name": "E5",
          "ticks": 125616,
          "time": 89.215819875,
          "velocity": 0.30708661417322836
        },
        {
          "duration": 0.0852271875000099,
          "durationTicks": 120,
          "midi": 64,
          "name": "E4",
          "ticks": 125616,
          "time": 89.215819875,
          "velocity": 0.30708661417322836
        },
        {
          "duration": 0.0852271875000099,
          "durationTicks": 120,
          "midi": 45,
          "name": "A2",
          "ticks": 125616,
          "time": 89.215819875,
          "velocity": 0.30708661417322836
        },
        {
          "duration": 0.0852271875000099,
          "durationTicks": 120,
          "midi": 76,
          "name": "E5",
          "ticks": 125616,
          "time": 89.215819875,
          "velocity": 0.30708661417322836
        },
        {
          "duration": 0.0852271875000099,
          "durationTicks": 120,
          "midi": 69,
          "name": "A4",
          "ticks": 125616,
          "time": 89.215819875,
          "velocity": 0.30708661417322836
        },
        {
          "duration": 0.0852271875000099,
          "durationTicks": 120,
          "midi": 64,
          "name": "E4",
          "ticks": 125640,
          "time": 89.2328653125,
          "velocity": 0.30708661417322836
        },
        {
          "duration": 0.0852271875000099,
          "durationTicks": 120,
          "midi": 76,
          "name": "E5",
          "ticks": 125640,
          "time": 89.2328653125,
          "velocity": 0.30708661417322836
        },
        {
          "duration": 0.0852271875000099,
          "durationTicks": 120,
          "midi": 45,
          "name": "A2",
          "ticks": 125640,
          "time": 89.2328653125,
          "velocity": 0.30708661417322836
        },
        {
          "duration": 0.0852271875000099,
          "durationTicks": 120,
          "midi": 72,
          "name": "C5",
          "ticks": 125640,
          "time": 89.2328653125,
          "velocity": 0.30708661417322836
        },
        {
          "duration": 0.0852271875000099,
          "durationTicks": 120,
          "midi": 69,
          "name": "A4",
          "ticks": 125640,
          "time": 89.2328653125,
          "velocity": 0.30708661417322836
        },
        {
          "duration": 0.0852271874999957,
          "durationTicks": 120,
          "midi": 76,
          "name": "E5",
          "ticks": 125736,
          "time": 89.3010470625,
          "velocity": 0.30708661417322836
        },
        {
          "duration": 0.0852271874999957,
          "durationTicks": 120,
          "midi": 72,
          "name": "C5",
          "ticks": 125736,
          "time": 89.3010470625,
          "velocity": 0.30708661417322836
        },
        {
          "duration": 0.0852271874999957,
          "durationTicks": 120,
          "midi": 72,
          "name": "C5",
          "ticks": 125736,
          "time": 89.3010470625,
          "velocity": 0.30708661417322836
        },
        {
          "duration": 0.0852271874999957,
          "durationTicks": 120,
          "midi": 64,
          "name": "E4",
          "ticks": 125736,
          "time": 89.3010470625,
          "velocity": 0.30708661417322836
        },
        {
          "duration": 0.0852271874999957,
          "durationTicks": 120,
          "midi": 69,
          "name": "A4",
          "ticks": 125736,
          "time": 89.3010470625,
          "velocity": 0.30708661417322836
        },
        {
          "duration": 0.0852271874999957,
          "durationTicks": 120,
          "midi": 64,
          "name": "E4",
          "ticks": 125736,
          "time": 89.3010470625,
          "velocity": 0.30708661417322836
        },
        {
          "duration": 0.0852271874999957,
          "durationTicks": 120,
          "midi": 76,
          "name": "E5",
          "ticks": 125736,
          "time": 89.3010470625,
          "velocity": 0.30708661417322836
        },
        {
          "duration": 0.0852271874999957,
          "durationTicks": 120,
          "midi": 69,
          "name": "A4",
          "ticks": 125736,
          "time": 89.3010470625,
          "velocity": 0.30708661417322836
        },
        {
          "duration": 0.0852271874999957,
          "durationTicks": 120,
          "midi": 69,
          "name": "A4",
          "ticks": 125760,
          "time": 89.3180925,
          "velocity": 0.30708661417322836
        },
        {
          "duration": 0.0852271874999957,
          "durationTicks": 120,
          "midi": 72,
          "name": "C5",
          "ticks": 125760,
          "time": 89.3180925,
          "velocity": 0.30708661417322836
        },
        {
          "duration": 0.0852271874999957,
          "durationTicks": 120,
          "midi": 64,
          "name": "E4",
          "ticks": 125760,
          "time": 89.3180925,
          "velocity": 0.30708661417322836
        },
        {
          "duration": 0.0852271874999957,
          "durationTicks": 120,
          "midi": 76,
          "name": "E5",
          "ticks": 125760,
          "time": 89.3180925,
          "velocity": 0.30708661417322836
        },
        {
          "duration": 0.0852271874999957,
          "durationTicks": 120,
          "midi": 76,
          "name": "E5",
          "ticks": 125856,
          "time": 89.38627425,
          "velocity": 0.30708661417322836
        },
        {
          "duration": 0.0852271874999957,
          "durationTicks": 120,
          "midi": 48,
          "name": "C3",
          "ticks": 125856,
          "time": 89.38627425,
          "velocity": 0.30708661417322836
        },
        {
          "duration": 0.0852271874999957,
          "durationTicks": 120,
          "midi": 52,
          "name": "E3",
          "ticks": 125856,
          "time": 89.38627425,
          "velocity": 0.30708661417322836
        },
        {
          "duration": 0.0852271874999957,
          "durationTicks": 120,
          "midi": 64,
          "name": "E4",
          "ticks": 125856,
          "time": 89.38627425,
          "velocity": 0.30708661417322836
        },
        {
          "duration": 0.0852271874999957,
          "durationTicks": 120,
          "midi": 76,
          "name": "E5",
          "ticks": 125856,
          "time": 89.38627425,
          "velocity": 0.30708661417322836
        },
        {
          "duration": 0.0852271874999957,
          "durationTicks": 120,
          "midi": 52,
          "name": "E3",
          "ticks": 125856,
          "time": 89.38627425,
          "velocity": 0.30708661417322836
        },
        {
          "duration": 0.0852271874999957,
          "durationTicks": 120,
          "midi": 69,
          "name": "A4",
          "ticks": 125856,
          "time": 89.38627425,
          "velocity": 0.30708661417322836
        },
        {
          "duration": 0.0852271874999957,
          "durationTicks": 120,
          "midi": 72,
          "name": "C5",
          "ticks": 125856,
          "time": 89.38627425,
          "velocity": 0.30708661417322836
        },
        {
          "duration": 0.0852271874999957,
          "durationTicks": 120,
          "midi": 69,
          "name": "A4",
          "ticks": 125856,
          "time": 89.38627425,
          "velocity": 0.30708661417322836
        },
        {
          "duration": 0.0852271874999957,
          "durationTicks": 120,
          "midi": 64,
          "name": "E4",
          "ticks": 125856,
          "time": 89.38627425,
          "velocity": 0.30708661417322836
        },
        {
          "duration": 0.0852271874999957,
          "durationTicks": 120,
          "midi": 72,
          "name": "C5",
          "ticks": 125856,
          "time": 89.38627425,
          "velocity": 0.30708661417322836
        },
        {
          "duration": 0.0852271874999957,
          "durationTicks": 120,
          "midi": 48,
          "name": "C3",
          "ticks": 125856,
          "time": 89.38627425,
          "velocity": 0.30708661417322836
        },
        {
          "duration": 0.0852271874999957,
          "durationTicks": 120,
          "midi": 72,
          "name": "C5",
          "ticks": 125880,
          "time": 89.4033196875,
          "velocity": 0.30708661417322836
        },
        {
          "duration": 0.0852271874999957,
          "durationTicks": 120,
          "midi": 52,
          "name": "E3",
          "ticks": 125880,
          "time": 89.4033196875,
          "velocity": 0.30708661417322836
        },
        {
          "duration": 0.0852271874999957,
          "durationTicks": 120,
          "midi": 48,
          "name": "C3",
          "ticks": 125880,
          "time": 89.4033196875,
          "velocity": 0.30708661417322836
        },
        {
          "duration": 0.0852271874999957,
          "durationTicks": 120,
          "midi": 76,
          "name": "E5",
          "ticks": 125880,
          "time": 89.4033196875,
          "velocity": 0.30708661417322836
        },
        {
          "duration": 0.0852271874999957,
          "durationTicks": 120,
          "midi": 64,
          "name": "E4",
          "ticks": 125880,
          "time": 89.4033196875,
          "velocity": 0.30708661417322836
        },
        {
          "duration": 0.0852271874999957,
          "durationTicks": 120,
          "midi": 69,
          "name": "A4",
          "ticks": 125880,
          "time": 89.4033196875,
          "velocity": 0.30708661417322836
        },
        {
          "duration": 0.0852271875000099,
          "durationTicks": 120,
          "midi": 72,
          "name": "C5",
          "ticks": 125976,
          "time": 89.4715014375,
          "velocity": 0.30708661417322836
        },
        {
          "duration": 0.0852271875000099,
          "durationTicks": 120,
          "midi": 76,
          "name": "E5",
          "ticks": 125976,
          "time": 89.4715014375,
          "velocity": 0.30708661417322836
        },
        {
          "duration": 0.0852271875000099,
          "durationTicks": 120,
          "midi": 64,
          "name": "E4",
          "ticks": 125976,
          "time": 89.4715014375,
          "velocity": 0.30708661417322836
        },
        {
          "duration": 0.0852271875000099,
          "durationTicks": 120,
          "midi": 76,
          "name": "E5",
          "ticks": 125976,
          "time": 89.4715014375,
          "velocity": 0.30708661417322836
        },
        {
          "duration": 0.0852271875000099,
          "durationTicks": 120,
          "midi": 64,
          "name": "E4",
          "ticks": 125976,
          "time": 89.4715014375,
          "velocity": 0.30708661417322836
        },
        {
          "duration": 0.0852271875000099,
          "durationTicks": 120,
          "midi": 72,
          "name": "C5",
          "ticks": 125976,
          "time": 89.4715014375,
          "velocity": 0.30708661417322836
        },
        {
          "duration": 0.0852271875000099,
          "durationTicks": 120,
          "midi": 69,
          "name": "A4",
          "ticks": 125976,
          "time": 89.4715014375,
          "velocity": 0.30708661417322836
        },
        {
          "duration": 0.0852271875000099,
          "durationTicks": 120,
          "midi": 69,
          "name": "A4",
          "ticks": 125976,
          "time": 89.4715014375,
          "velocity": 0.30708661417322836
        },
        {
          "duration": 0.0852271874999957,
          "durationTicks": 120,
          "midi": 72,
          "name": "C5",
          "ticks": 126000,
          "time": 89.488546875,
          "velocity": 0.30708661417322836
        },
        {
          "duration": 0.0852271874999957,
          "durationTicks": 120,
          "midi": 64,
          "name": "E4",
          "ticks": 126000,
          "time": 89.488546875,
          "velocity": 0.30708661417322836
        },
        {
          "duration": 0.0852271874999957,
          "durationTicks": 120,
          "midi": 76,
          "name": "E5",
          "ticks": 126000,
          "time": 89.488546875,
          "velocity": 0.30708661417322836
        },
        {
          "duration": 0.0852271874999957,
          "durationTicks": 120,
          "midi": 69,
          "name": "A4",
          "ticks": 126000,
          "time": 89.488546875,
          "velocity": 0.30708661417322836
        },
        {
          "duration": 0.0852271874999957,
          "durationTicks": 120,
          "midi": 64,
          "name": "E4",
          "ticks": 126096,
          "time": 89.556728625,
          "velocity": 0.30708661417322836
        },
        {
          "duration": 0.0852271874999957,
          "durationTicks": 120,
          "midi": 76,
          "name": "E5",
          "ticks": 126096,
          "time": 89.556728625,
          "velocity": 0.30708661417322836
        },
        {
          "duration": 0.0852271874999957,
          "durationTicks": 120,
          "midi": 64,
          "name": "E4",
          "ticks": 126096,
          "time": 89.556728625,
          "velocity": 0.30708661417322836
        },
        {
          "duration": 0.0852271874999957,
          "durationTicks": 120,
          "midi": 72,
          "name": "C5",
          "ticks": 126096,
          "time": 89.556728625,
          "velocity": 0.30708661417322836
        },
        {
          "duration": 0.0852271874999957,
          "durationTicks": 120,
          "midi": 76,
          "name": "E5",
          "ticks": 126096,
          "time": 89.556728625,
          "velocity": 0.30708661417322836
        },
        {
          "duration": 0.0852271874999957,
          "durationTicks": 120,
          "midi": 40,
          "name": "E2",
          "ticks": 126096,
          "time": 89.556728625,
          "velocity": 0.30708661417322836
        },
        {
          "duration": 0.0852271874999957,
          "durationTicks": 120,
          "midi": 72,
          "name": "C5",
          "ticks": 126096,
          "time": 89.556728625,
          "velocity": 0.30708661417322836
        },
        {
          "duration": 0.0852271874999957,
          "durationTicks": 120,
          "midi": 69,
          "name": "A4",
          "ticks": 126096,
          "time": 89.556728625,
          "velocity": 0.30708661417322836
        },
        {
          "duration": 0.0852271874999957,
          "durationTicks": 120,
          "midi": 40,
          "name": "E2",
          "ticks": 126096,
          "time": 89.556728625,
          "velocity": 0.30708661417322836
        },
        {
          "duration": 0.0852271874999957,
          "durationTicks": 120,
          "midi": 69,
          "name": "A4",
          "ticks": 126096,
          "time": 89.556728625,
          "velocity": 0.30708661417322836
        },
        {
          "duration": 0.0852271875000099,
          "durationTicks": 120,
          "midi": 76,
          "name": "E5",
          "ticks": 126120,
          "time": 89.5737740625,
          "velocity": 0.30708661417322836
        },
        {
          "duration": 0.0852271875000099,
          "durationTicks": 120,
          "midi": 72,
          "name": "C5",
          "ticks": 126120,
          "time": 89.5737740625,
          "velocity": 0.30708661417322836
        },
        {
          "duration": 0.0852271875000099,
          "durationTicks": 120,
          "midi": 69,
          "name": "A4",
          "ticks": 126120,
          "time": 89.5737740625,
          "velocity": 0.30708661417322836
        },
        {
          "duration": 0.0852271875000099,
          "durationTicks": 120,
          "midi": 64,
          "name": "E4",
          "ticks": 126120,
          "time": 89.5737740625,
          "velocity": 0.30708661417322836
        },
        {
          "duration": 0.0852271875000099,
          "durationTicks": 120,
          "midi": 40,
          "name": "E2",
          "ticks": 126120,
          "time": 89.5737740625,
          "velocity": 0.30708661417322836
        },
        {
          "duration": 0.0852271874999957,
          "durationTicks": 120,
          "midi": 76,
          "name": "E5",
          "ticks": 126216,
          "time": 89.6419558125,
          "velocity": 0.30708661417322836
        },
        {
          "duration": 0.0852271874999957,
          "durationTicks": 120,
          "midi": 72,
          "name": "C5",
          "ticks": 126216,
          "time": 89.6419558125,
          "velocity": 0.30708661417322836
        },
        {
          "duration": 0.0852271874999957,
          "durationTicks": 120,
          "midi": 69,
          "name": "A4",
          "ticks": 126216,
          "time": 89.6419558125,
          "velocity": 0.30708661417322836
        },
        {
          "duration": 0.0852271874999957,
          "durationTicks": 120,
          "midi": 64,
          "name": "E4",
          "ticks": 126216,
          "time": 89.6419558125,
          "velocity": 0.30708661417322836
        },
        {
          "duration": 0.0852271874999957,
          "durationTicks": 120,
          "midi": 64,
          "name": "E4",
          "ticks": 126216,
          "time": 89.6419558125,
          "velocity": 0.30708661417322836
        },
        {
          "duration": 0.0852271874999957,
          "durationTicks": 120,
          "midi": 72,
          "name": "C5",
          "ticks": 126216,
          "time": 89.6419558125,
          "velocity": 0.30708661417322836
        },
        {
          "duration": 0.0852271874999957,
          "durationTicks": 120,
          "midi": 69,
          "name": "A4",
          "ticks": 126216,
          "time": 89.6419558125,
          "velocity": 0.30708661417322836
        },
        {
          "duration": 0.0852271874999957,
          "durationTicks": 120,
          "midi": 76,
          "name": "E5",
          "ticks": 126216,
          "time": 89.6419558125,
          "velocity": 0.30708661417322836
        },
        {
          "duration": 0.0852271874999957,
          "durationTicks": 120,
          "midi": 64,
          "name": "E4",
          "ticks": 126240,
          "time": 89.65900125,
          "velocity": 0.30708661417322836
        },
        {
          "duration": 0.0852271874999957,
          "durationTicks": 120,
          "midi": 72,
          "name": "C5",
          "ticks": 126240,
          "time": 89.65900125,
          "velocity": 0.30708661417322836
        },
        {
          "duration": 0.0852271874999957,
          "durationTicks": 120,
          "midi": 69,
          "name": "A4",
          "ticks": 126240,
          "time": 89.65900125,
          "velocity": 0.30708661417322836
        },
        {
          "duration": 0.0852271874999957,
          "durationTicks": 120,
          "midi": 76,
          "name": "E5",
          "ticks": 126240,
          "time": 89.65900125,
          "velocity": 0.30708661417322836
        },
        {
          "duration": 0.0852271874999957,
          "durationTicks": 120,
          "midi": 69,
          "name": "A4",
          "ticks": 126336,
          "time": 89.727183,
          "velocity": 0.30708661417322836
        },
        {
          "duration": 0.0852271874999957,
          "durationTicks": 120,
          "midi": 48,
          "name": "C3",
          "ticks": 126336,
          "time": 89.727183,
          "velocity": 0.30708661417322836
        },
        {
          "duration": 0.0852271874999957,
          "durationTicks": 120,
          "midi": 76,
          "name": "E5",
          "ticks": 126336,
          "time": 89.727183,
          "velocity": 0.30708661417322836
        },
        {
          "duration": 0.0852271874999957,
          "durationTicks": 120,
          "midi": 52,
          "name": "E3",
          "ticks": 126336,
          "time": 89.727183,
          "velocity": 0.30708661417322836
        },
        {
          "duration": 0.0852271874999957,
          "durationTicks": 120,
          "midi": 52,
          "name": "E3",
          "ticks": 126336,
          "time": 89.727183,
          "velocity": 0.30708661417322836
        },
        {
          "duration": 0.0852271874999957,
          "durationTicks": 120,
          "midi": 64,
          "name": "E4",
          "ticks": 126336,
          "time": 89.727183,
          "velocity": 0.30708661417322836
        },
        {
          "duration": 0.0852271874999957,
          "durationTicks": 120,
          "midi": 64,
          "name": "E4",
          "ticks": 126336,
          "time": 89.727183,
          "velocity": 0.30708661417322836
        },
        {
          "duration": 0.0852271874999957,
          "durationTicks": 120,
          "midi": 76,
          "name": "E5",
          "ticks": 126336,
          "time": 89.727183,
          "velocity": 0.30708661417322836
        },
        {
          "duration": 0.0852271874999957,
          "durationTicks": 120,
          "midi": 72,
          "name": "C5",
          "ticks": 126336,
          "time": 89.727183,
          "velocity": 0.30708661417322836
        },
        {
          "duration": 0.0852271874999957,
          "durationTicks": 120,
          "midi": 48,
          "name": "C3",
          "ticks": 126336,
          "time": 89.727183,
          "velocity": 0.30708661417322836
        },
        {
          "duration": 0.0852271874999957,
          "durationTicks": 120,
          "midi": 72,
          "name": "C5",
          "ticks": 126336,
          "time": 89.727183,
          "velocity": 0.30708661417322836
        },
        {
          "duration": 0.0852271874999957,
          "durationTicks": 120,
          "midi": 69,
          "name": "A4",
          "ticks": 126336,
          "time": 89.727183,
          "velocity": 0.30708661417322836
        },
        {
          "duration": 0.0852271874999957,
          "durationTicks": 120,
          "midi": 69,
          "name": "A4",
          "ticks": 126360,
          "time": 89.7442284375,
          "velocity": 0.30708661417322836
        },
        {
          "duration": 0.0852271874999957,
          "durationTicks": 120,
          "midi": 72,
          "name": "C5",
          "ticks": 126360,
          "time": 89.7442284375,
          "velocity": 0.30708661417322836
        },
        {
          "duration": 0.0852271874999957,
          "durationTicks": 120,
          "midi": 76,
          "name": "E5",
          "ticks": 126360,
          "time": 89.7442284375,
          "velocity": 0.30708661417322836
        },
        {
          "duration": 0.0852271874999957,
          "durationTicks": 120,
          "midi": 64,
          "name": "E4",
          "ticks": 126360,
          "time": 89.7442284375,
          "velocity": 0.30708661417322836
        },
        {
          "duration": 0.0852271874999957,
          "durationTicks": 120,
          "midi": 52,
          "name": "E3",
          "ticks": 126360,
          "time": 89.7442284375,
          "velocity": 0.30708661417322836
        },
        {
          "duration": 0.0852271874999957,
          "durationTicks": 120,
          "midi": 48,
          "name": "C3",
          "ticks": 126360,
          "time": 89.7442284375,
          "velocity": 0.30708661417322836
        },
        {
          "duration": 0.0852271875000099,
          "durationTicks": 120,
          "midi": 69,
          "name": "A4",
          "ticks": 126456,
          "time": 89.81241018749999,
          "velocity": 0.30708661417322836
        },
        {
          "duration": 0.0852271875000099,
          "durationTicks": 120,
          "midi": 76,
          "name": "E5",
          "ticks": 126456,
          "time": 89.81241018749999,
          "velocity": 0.30708661417322836
        },
        {
          "duration": 0.0852271875000099,
          "durationTicks": 120,
          "midi": 64,
          "name": "E4",
          "ticks": 126456,
          "time": 89.81241018749999,
          "velocity": 0.30708661417322836
        },
        {
          "duration": 0.0852271875000099,
          "durationTicks": 120,
          "midi": 72,
          "name": "C5",
          "ticks": 126456,
          "time": 89.81241018749999,
          "velocity": 0.30708661417322836
        },
        {
          "duration": 0.0852271875000099,
          "durationTicks": 120,
          "midi": 64,
          "name": "E4",
          "ticks": 126456,
          "time": 89.81241018749999,
          "velocity": 0.30708661417322836
        },
        {
          "duration": 0.0852271875000099,
          "durationTicks": 120,
          "midi": 69,
          "name": "A4",
          "ticks": 126456,
          "time": 89.81241018749999,
          "velocity": 0.30708661417322836
        },
        {
          "duration": 0.0852271875000099,
          "durationTicks": 120,
          "midi": 72,
          "name": "C5",
          "ticks": 126456,
          "time": 89.81241018749999,
          "velocity": 0.30708661417322836
        },
        {
          "duration": 0.0852271875000099,
          "durationTicks": 120,
          "midi": 76,
          "name": "E5",
          "ticks": 126456,
          "time": 89.81241018749999,
          "velocity": 0.30708661417322836
        },
        {
          "duration": 0.0852271875000099,
          "durationTicks": 120,
          "midi": 76,
          "name": "E5",
          "ticks": 126480,
          "time": 89.829455625,
          "velocity": 0.30708661417322836
        },
        {
          "duration": 0.0852271875000099,
          "durationTicks": 120,
          "midi": 72,
          "name": "C5",
          "ticks": 126480,
          "time": 89.829455625,
          "velocity": 0.30708661417322836
        },
        {
          "duration": 0.0852271875000099,
          "durationTicks": 120,
          "midi": 64,
          "name": "E4",
          "ticks": 126480,
          "time": 89.829455625,
          "velocity": 0.30708661417322836
        },
        {
          "duration": 0.0852271875000099,
          "durationTicks": 120,
          "midi": 69,
          "name": "A4",
          "ticks": 126480,
          "time": 89.829455625,
          "velocity": 0.30708661417322836
        },
        {
          "duration": 0.0852271874999957,
          "durationTicks": 120,
          "midi": 72,
          "name": "C5",
          "ticks": 126576,
          "time": 89.897637375,
          "velocity": 0.30708661417322836
        },
        {
          "duration": 0.0852271874999957,
          "durationTicks": 120,
          "midi": 72,
          "name": "C5",
          "ticks": 126576,
          "time": 89.897637375,
          "velocity": 0.30708661417322836
        },
        {
          "duration": 0.0852271874999957,
          "durationTicks": 120,
          "midi": 69,
          "name": "A4",
          "ticks": 126576,
          "time": 89.897637375,
          "velocity": 0.30708661417322836
        },
        {
          "duration": 0.0852271874999957,
          "durationTicks": 120,
          "midi": 64,
          "name": "E4",
          "ticks": 126576,
          "time": 89.897637375,
          "velocity": 0.30708661417322836
        },
        {
          "duration": 0.0852271874999957,
          "durationTicks": 120,
          "midi": 69,
          "name": "A4",
          "ticks": 126576,
          "time": 89.897637375,
          "velocity": 0.30708661417322836
        },
        {
          "duration": 0.0852271874999957,
          "durationTicks": 120,
          "midi": 45,
          "name": "A2",
          "ticks": 126576,
          "time": 89.897637375,
          "velocity": 0.30708661417322836
        },
        {
          "duration": 0.0852271874999957,
          "durationTicks": 120,
          "midi": 76,
          "name": "E5",
          "ticks": 126576,
          "time": 89.897637375,
          "velocity": 0.30708661417322836
        },
        {
          "duration": 0.0852271874999957,
          "durationTicks": 120,
          "midi": 76,
          "name": "E5",
          "ticks": 126576,
          "time": 89.897637375,
          "velocity": 0.30708661417322836
        },
        {
          "duration": 0.0852271874999957,
          "durationTicks": 120,
          "midi": 45,
          "name": "A2",
          "ticks": 126576,
          "time": 89.897637375,
          "velocity": 0.30708661417322836
        },
        {
          "duration": 0.0852271874999957,
          "durationTicks": 120,
          "midi": 64,
          "name": "E4",
          "ticks": 126576,
          "time": 89.897637375,
          "velocity": 0.30708661417322836
        },
        {
          "duration": 0.0852271874999957,
          "durationTicks": 120,
          "midi": 45,
          "name": "A2",
          "ticks": 126600,
          "time": 89.9146828125,
          "velocity": 0.30708661417322836
        },
        {
          "duration": 0.0852271874999957,
          "durationTicks": 120,
          "midi": 72,
          "name": "C5",
          "ticks": 126600,
          "time": 89.9146828125,
          "velocity": 0.30708661417322836
        },
        {
          "duration": 0.0852271874999957,
          "durationTicks": 120,
          "midi": 64,
          "name": "E4",
          "ticks": 126600,
          "time": 89.9146828125,
          "velocity": 0.30708661417322836
        },
        {
          "duration": 0.0852271874999957,
          "durationTicks": 120,
          "midi": 69,
          "name": "A4",
          "ticks": 126600,
          "time": 89.9146828125,
          "velocity": 0.30708661417322836
        },
        {
          "duration": 0.0852271874999957,
          "durationTicks": 120,
          "midi": 76,
          "name": "E5",
          "ticks": 126600,
          "time": 89.9146828125,
          "velocity": 0.30708661417322836
        },
        {
          "duration": 0.0852271874999957,
          "durationTicks": 120,
          "midi": 69,
          "name": "A4",
          "ticks": 126696,
          "time": 89.9828645625,
          "velocity": 0.30708661417322836
        },
        {
          "duration": 0.0852271874999957,
          "durationTicks": 120,
          "midi": 72,
          "name": "C5",
          "ticks": 126696,
          "time": 89.9828645625,
          "velocity": 0.30708661417322836
        },
        {
          "duration": 0.0852271874999957,
          "durationTicks": 120,
          "midi": 76,
          "name": "E5",
          "ticks": 126696,
          "time": 89.9828645625,
          "velocity": 0.30708661417322836
        },
        {
          "duration": 0.0852271874999957,
          "durationTicks": 120,
          "midi": 76,
          "name": "E5",
          "ticks": 126696,
          "time": 89.9828645625,
          "velocity": 0.30708661417322836
        },
        {
          "duration": 0.0852271874999957,
          "durationTicks": 120,
          "midi": 69,
          "name": "A4",
          "ticks": 126696,
          "time": 89.9828645625,
          "velocity": 0.30708661417322836
        },
        {
          "duration": 0.0852271874999957,
          "durationTicks": 120,
          "midi": 64,
          "name": "E4",
          "ticks": 126696,
          "time": 89.9828645625,
          "velocity": 0.30708661417322836
        },
        {
          "duration": 0.0852271874999957,
          "durationTicks": 120,
          "midi": 64,
          "name": "E4",
          "ticks": 126696,
          "time": 89.9828645625,
          "velocity": 0.30708661417322836
        },
        {
          "duration": 0.0852271874999957,
          "durationTicks": 120,
          "midi": 72,
          "name": "C5",
          "ticks": 126696,
          "time": 89.9828645625,
          "velocity": 0.30708661417322836
        },
        {
          "duration": 0.0852271874999957,
          "durationTicks": 120,
          "midi": 69,
          "name": "A4",
          "ticks": 126720,
          "time": 89.99991,
          "velocity": 0.30708661417322836
        },
        {
          "duration": 0.0852271874999957,
          "durationTicks": 120,
          "midi": 72,
          "name": "C5",
          "ticks": 126720,
          "time": 89.99991,
          "velocity": 0.30708661417322836
        },
        {
          "duration": 0.0852271874999957,
          "durationTicks": 120,
          "midi": 76,
          "name": "E5",
          "ticks": 126720,
          "time": 89.99991,
          "velocity": 0.30708661417322836
        },
        {
          "duration": 0.0852271874999957,
          "durationTicks": 120,
          "midi": 64,
          "name": "E4",
          "ticks": 126720,
          "time": 89.99991,
          "velocity": 0.30708661417322836
        },
        {
          "duration": 0.0852271875000099,
          "durationTicks": 120,
          "midi": 64,
          "name": "E4",
          "ticks": 126816,
          "time": 90.06809175,
          "velocity": 0.30708661417322836
        },
        {
          "duration": 0.0852271875000099,
          "durationTicks": 120,
          "midi": 64,
          "name": "E4",
          "ticks": 126816,
          "time": 90.06809175,
          "velocity": 0.30708661417322836
        },
        {
          "duration": 0.0852271875000099,
          "durationTicks": 120,
          "midi": 52,
          "name": "E3",
          "ticks": 126816,
          "time": 90.06809175,
          "velocity": 0.30708661417322836
        },
        {
          "duration": 0.0852271875000099,
          "durationTicks": 120,
          "midi": 72,
          "name": "C5",
          "ticks": 126816,
          "time": 90.06809175,
          "velocity": 0.30708661417322836
        },
        {
          "duration": 0.0852271875000099,
          "durationTicks": 120,
          "midi": 76,
          "name": "E5",
          "ticks": 126816,
          "time": 90.06809175,
          "velocity": 0.30708661417322836
        },
        {
          "duration": 0.0852271875000099,
          "durationTicks": 120,
          "midi": 52,
          "name": "E3",
          "ticks": 126816,
          "time": 90.06809175,
          "velocity": 0.30708661417322836
        },
        {
          "duration": 0.0852271875000099,
          "durationTicks": 120,
          "midi": 48,
          "name": "C3",
          "ticks": 126816,
          "time": 90.06809175,
          "velocity": 0.30708661417322836
        },
        {
          "duration": 0.0852271875000099,
          "durationTicks": 120,
          "midi": 72,
          "name": "C5",
          "ticks": 126816,
          "time": 90.06809175,
          "velocity": 0.30708661417322836
        },
        {
          "duration": 0.0852271875000099,
          "durationTicks": 120,
          "midi": 69,
          "name": "A4",
          "ticks": 126816,
          "time": 90.06809175,
          "velocity": 0.30708661417322836
        },
        {
          "duration": 0.0852271875000099,
          "durationTicks": 120,
          "midi": 48,
          "name": "C3",
          "ticks": 126816,
          "time": 90.06809175,
          "velocity": 0.30708661417322836
        },
        {
          "duration": 0.0852271875000099,
          "durationTicks": 120,
          "midi": 69,
          "name": "A4",
          "ticks": 126816,
          "time": 90.06809175,
          "velocity": 0.30708661417322836
        },
        {
          "duration": 0.0852271875000099,
          "durationTicks": 120,
          "midi": 76,
          "name": "E5",
          "ticks": 126816,
          "time": 90.06809175,
          "velocity": 0.30708661417322836
        },
        {
          "duration": 0.0852271875000099,
          "durationTicks": 120,
          "midi": 69,
          "name": "A4",
          "ticks": 126840,
          "time": 90.0851371875,
          "velocity": 0.30708661417322836
        },
        {
          "duration": 0.0852271875000099,
          "durationTicks": 120,
          "midi": 72,
          "name": "C5",
          "ticks": 126840,
          "time": 90.0851371875,
          "velocity": 0.30708661417322836
        },
        {
          "duration": 0.0852271875000099,
          "durationTicks": 120,
          "midi": 52,
          "name": "E3",
          "ticks": 126840,
          "time": 90.0851371875,
          "velocity": 0.30708661417322836
        },
        {
          "duration": 0.0852271875000099,
          "durationTicks": 120,
          "midi": 76,
          "name": "E5",
          "ticks": 126840,
          "time": 90.0851371875,
          "velocity": 0.30708661417322836
        },
        {
          "duration": 0.0852271875000099,
          "durationTicks": 120,
          "midi": 48,
          "name": "C3",
          "ticks": 126840,
          "time": 90.0851371875,
          "velocity": 0.30708661417322836
        },
        {
          "duration": 0.0852271875000099,
          "durationTicks": 120,
          "midi": 64,
          "name": "E4",
          "ticks": 126840,
          "time": 90.0851371875,
          "velocity": 0.30708661417322836
        },
        {
          "duration": 0.0852271874999957,
          "durationTicks": 120,
          "midi": 64,
          "name": "E4",
          "ticks": 126936,
          "time": 90.1533189375,
          "velocity": 0.30708661417322836
        },
        {
          "duration": 0.0852271874999957,
          "durationTicks": 120,
          "midi": 69,
          "name": "A4",
          "ticks": 126936,
          "time": 90.1533189375,
          "velocity": 0.30708661417322836
        },
        {
          "duration": 0.0852271874999957,
          "durationTicks": 120,
          "midi": 72,
          "name": "C5",
          "ticks": 126936,
          "time": 90.1533189375,
          "velocity": 0.30708661417322836
        },
        {
          "duration": 0.0852271874999957,
          "durationTicks": 120,
          "midi": 76,
          "name": "E5",
          "ticks": 126936,
          "time": 90.1533189375,
          "velocity": 0.30708661417322836
        },
        {
          "duration": 0.0852271874999957,
          "durationTicks": 120,
          "midi": 64,
          "name": "E4",
          "ticks": 126936,
          "time": 90.1533189375,
          "velocity": 0.30708661417322836
        },
        {
          "duration": 0.0852271874999957,
          "durationTicks": 120,
          "midi": 76,
          "name": "E5",
          "ticks": 126936,
          "time": 90.1533189375,
          "velocity": 0.30708661417322836
        },
        {
          "duration": 0.0852271874999957,
          "durationTicks": 120,
          "midi": 69,
          "name": "A4",
          "ticks": 126936,
          "time": 90.1533189375,
          "velocity": 0.30708661417322836
        },
        {
          "duration": 0.0852271874999957,
          "durationTicks": 120,
          "midi": 72,
          "name": "C5",
          "ticks": 126936,
          "time": 90.1533189375,
          "velocity": 0.30708661417322836
        },
        {
          "duration": 0.0852271874999957,
          "durationTicks": 120,
          "midi": 76,
          "name": "E5",
          "ticks": 126960,
          "time": 90.170364375,
          "velocity": 0.30708661417322836
        },
        {
          "duration": 0.0852271874999957,
          "durationTicks": 120,
          "midi": 72,
          "name": "C5",
          "ticks": 126960,
          "time": 90.170364375,
          "velocity": 0.30708661417322836
        },
        {
          "duration": 0.0852271874999957,
          "durationTicks": 120,
          "midi": 69,
          "name": "A4",
          "ticks": 126960,
          "time": 90.170364375,
          "velocity": 0.30708661417322836
        },
        {
          "duration": 0.0852271874999957,
          "durationTicks": 120,
          "midi": 64,
          "name": "E4",
          "ticks": 126960,
          "time": 90.170364375,
          "velocity": 0.30708661417322836
        },
        {
          "duration": 0.0852271874999957,
          "durationTicks": 120,
          "midi": 40,
          "name": "E2",
          "ticks": 127056,
          "time": 90.238546125,
          "velocity": 0.30708661417322836
        },
        {
          "duration": 0.0852271874999957,
          "durationTicks": 120,
          "midi": 69,
          "name": "A4",
          "ticks": 127056,
          "time": 90.238546125,
          "velocity": 0.30708661417322836
        },
        {
          "duration": 0.0852271874999957,
          "durationTicks": 120,
          "midi": 69,
          "name": "A4",
          "ticks": 127056,
          "time": 90.238546125,
          "velocity": 0.30708661417322836
        },
        {
          "duration": 0.0852271874999957,
          "durationTicks": 120,
          "midi": 64,
          "name": "E4",
          "ticks": 127056,
          "time": 90.238546125,
          "velocity": 0.30708661417322836
        },
        {
          "duration": 0.0852271874999957,
          "durationTicks": 120,
          "midi": 76,
          "name": "E5",
          "ticks": 127056,
          "time": 90.238546125,
          "velocity": 0.30708661417322836
        },
        {
          "duration": 0.0852271874999957,
          "durationTicks": 120,
          "midi": 72,
          "name": "C5",
          "ticks": 127056,
          "time": 90.238546125,
          "velocity": 0.30708661417322836
        },
        {
          "duration": 0.0852271874999957,
          "durationTicks": 120,
          "midi": 40,
          "name": "E2",
          "ticks": 127056,
          "time": 90.238546125,
          "velocity": 0.30708661417322836
        },
        {
          "duration": 0.0852271874999957,
          "durationTicks": 120,
          "midi": 64,
          "name": "E4",
          "ticks": 127056,
          "time": 90.238546125,
          "velocity": 0.30708661417322836
        },
        {
          "duration": 0.0852271874999957,
          "durationTicks": 120,
          "midi": 76,
          "name": "E5",
          "ticks": 127056,
          "time": 90.238546125,
          "velocity": 0.30708661417322836
        },
        {
          "duration": 0.0852271874999957,
          "durationTicks": 120,
          "midi": 72,
          "name": "C5",
          "ticks": 127056,
          "time": 90.238546125,
          "velocity": 0.30708661417322836
        },
        {
          "duration": 0.0852271874999957,
          "durationTicks": 120,
          "midi": 69,
          "name": "A4",
          "ticks": 127080,
          "time": 90.2555915625,
          "velocity": 0.30708661417322836
        },
        {
          "duration": 0.0852271874999957,
          "durationTicks": 120,
          "midi": 76,
          "name": "E5",
          "ticks": 127080,
          "time": 90.2555915625,
          "velocity": 0.30708661417322836
        },
        {
          "duration": 0.0852271874999957,
          "durationTicks": 120,
          "midi": 40,
          "name": "E2",
          "ticks": 127080,
          "time": 90.2555915625,
          "velocity": 0.30708661417322836
        },
        {
          "duration": 0.0852271874999957,
          "durationTicks": 120,
          "midi": 64,
          "name": "E4",
          "ticks": 127080,
          "time": 90.2555915625,
          "velocity": 0.30708661417322836
        },
        {
          "duration": 0.0852271874999957,
          "durationTicks": 120,
          "midi": 72,
          "name": "C5",
          "ticks": 127080,
          "time": 90.2555915625,
          "velocity": 0.30708661417322836
        },
        {
          "duration": 0.0852271875000099,
          "durationTicks": 120,
          "midi": 77,
          "name": "F5",
          "ticks": 127176,
          "time": 90.3237733125,
          "velocity": 0.30708661417322836
        },
        {
          "duration": 0.0852271875000099,
          "durationTicks": 120,
          "midi": 74,
          "name": "D5",
          "ticks": 127176,
          "time": 90.3237733125,
          "velocity": 0.30708661417322836
        },
        {
          "duration": 0.0852271875000099,
          "durationTicks": 120,
          "midi": 69,
          "name": "A4",
          "ticks": 127176,
          "time": 90.3237733125,
          "velocity": 0.30708661417322836
        },
        {
          "duration": 0.0852271875000099,
          "durationTicks": 120,
          "midi": 69,
          "name": "A4",
          "ticks": 127176,
          "time": 90.3237733125,
          "velocity": 0.30708661417322836
        },
        {
          "duration": 0.0852271875000099,
          "durationTicks": 120,
          "midi": 65,
          "name": "F4",
          "ticks": 127176,
          "time": 90.3237733125,
          "velocity": 0.30708661417322836
        },
        {
          "duration": 0.0852271875000099,
          "durationTicks": 120,
          "midi": 74,
          "name": "D5",
          "ticks": 127176,
          "time": 90.3237733125,
          "velocity": 0.30708661417322836
        },
        {
          "duration": 0.0852271875000099,
          "durationTicks": 120,
          "midi": 77,
          "name": "F5",
          "ticks": 127176,
          "time": 90.3237733125,
          "velocity": 0.30708661417322836
        },
        {
          "duration": 0.0852271875000099,
          "durationTicks": 120,
          "midi": 65,
          "name": "F4",
          "ticks": 127176,
          "time": 90.3237733125,
          "velocity": 0.30708661417322836
        },
        {
          "duration": 0.0852271874999957,
          "durationTicks": 120,
          "midi": 77,
          "name": "F5",
          "ticks": 127200,
          "time": 90.34081875,
          "velocity": 0.30708661417322836
        },
        {
          "duration": 0.0852271874999957,
          "durationTicks": 120,
          "midi": 69,
          "name": "A4",
          "ticks": 127200,
          "time": 90.34081875,
          "velocity": 0.30708661417322836
        },
        {
          "duration": 0.0852271874999957,
          "durationTicks": 120,
          "midi": 65,
          "name": "F4",
          "ticks": 127200,
          "time": 90.34081875,
          "velocity": 0.30708661417322836
        },
        {
          "duration": 0.0852271874999957,
          "durationTicks": 120,
          "midi": 74,
          "name": "D5",
          "ticks": 127200,
          "time": 90.34081875,
          "velocity": 0.30708661417322836
        },
        {
          "duration": 0.0852271874999957,
          "durationTicks": 120,
          "midi": 69,
          "name": "A4",
          "ticks": 127296,
          "time": 90.4090005,
          "velocity": 0.30708661417322836
        },
        {
          "duration": 0.0852271874999957,
          "durationTicks": 120,
          "midi": 64,
          "name": "E4",
          "ticks": 127296,
          "time": 90.4090005,
          "velocity": 0.30708661417322836
        },
        {
          "duration": 0.0852271874999957,
          "durationTicks": 120,
          "midi": 76,
          "name": "E5",
          "ticks": 127296,
          "time": 90.4090005,
          "velocity": 0.30708661417322836
        },
        {
          "duration": 0.0852271874999957,
          "durationTicks": 120,
          "midi": 48,
          "name": "C3",
          "ticks": 127296,
          "time": 90.4090005,
          "velocity": 0.30708661417322836
        },
        {
          "duration": 0.0852271874999957,
          "durationTicks": 120,
          "midi": 64,
          "name": "E4",
          "ticks": 127296,
          "time": 90.4090005,
          "velocity": 0.30708661417322836
        },
        {
          "duration": 0.0852271874999957,
          "durationTicks": 120,
          "midi": 52,
          "name": "E3",
          "ticks": 127296,
          "time": 90.4090005,
          "velocity": 0.30708661417322836
        },
        {
          "duration": 0.0852271874999957,
          "durationTicks": 120,
          "midi": 48,
          "name": "C3",
          "ticks": 127296,
          "time": 90.4090005,
          "velocity": 0.30708661417322836
        },
        {
          "duration": 0.0852271874999957,
          "durationTicks": 120,
          "midi": 72,
          "name": "C5",
          "ticks": 127296,
          "time": 90.4090005,
          "velocity": 0.30708661417322836
        },
        {
          "duration": 0.0852271874999957,
          "durationTicks": 120,
          "midi": 69,
          "name": "A4",
          "ticks": 127296,
          "time": 90.4090005,
          "velocity": 0.30708661417322836
        },
        {
          "duration": 0.0852271874999957,
          "durationTicks": 120,
          "midi": 76,
          "name": "E5",
          "ticks": 127296,
          "time": 90.4090005,
          "velocity": 0.30708661417322836
        },
        {
          "duration": 0.0852271874999957,
          "durationTicks": 120,
          "midi": 72,
          "name": "C5",
          "ticks": 127296,
          "time": 90.4090005,
          "velocity": 0.30708661417322836
        },
        {
          "duration": 0.0852271874999957,
          "durationTicks": 120,
          "midi": 52,
          "name": "E3",
          "ticks": 127296,
          "time": 90.4090005,
          "velocity": 0.30708661417322836
        },
        {
          "duration": 0.0852271875000099,
          "durationTicks": 120,
          "midi": 69,
          "name": "A4",
          "ticks": 127320,
          "time": 90.42604593749999,
          "velocity": 0.30708661417322836
        },
        {
          "duration": 0.0852271875000099,
          "durationTicks": 120,
          "midi": 64,
          "name": "E4",
          "ticks": 127320,
          "time": 90.42604593749999,
          "velocity": 0.30708661417322836
        },
        {
          "duration": 0.0852271875000099,
          "durationTicks": 120,
          "midi": 76,
          "name": "E5",
          "ticks": 127320,
          "time": 90.42604593749999,
          "velocity": 0.30708661417322836
        },
        {
          "duration": 0.0852271875000099,
          "durationTicks": 120,
          "midi": 52,
          "name": "E3",
          "ticks": 127320,
          "time": 90.42604593749999,
          "velocity": 0.30708661417322836
        },
        {
          "duration": 0.0852271875000099,
          "durationTicks": 120,
          "midi": 72,
          "name": "C5",
          "ticks": 127320,
          "time": 90.42604593749999,
          "velocity": 0.30708661417322836
        },
        {
          "duration": 0.0852271875000099,
          "durationTicks": 120,
          "midi": 48,
          "name": "C3",
          "ticks": 127320,
          "time": 90.42604593749999,
          "velocity": 0.30708661417322836
        },
        {
          "duration": 0.0852271874999957,
          "durationTicks": 120,
          "midi": 63,
          "name": "D#4",
          "ticks": 127416,
          "time": 90.4942276875,
          "velocity": 0.30708661417322836
        },
        {
          "duration": 0.0852271874999957,
          "durationTicks": 120,
          "midi": 75,
          "name": "D#5",
          "ticks": 127416,
          "time": 90.4942276875,
          "velocity": 0.30708661417322836
        },
        {
          "duration": 0.0852271874999957,
          "durationTicks": 120,
          "midi": 63,
          "name": "D#4",
          "ticks": 127416,
          "time": 90.4942276875,
          "velocity": 0.30708661417322836
        },
        {
          "duration": 0.0852271874999957,
          "durationTicks": 120,
          "midi": 75,
          "name": "D#5",
          "ticks": 127416,
          "time": 90.4942276875,
          "velocity": 0.30708661417322836
        },
        {
          "duration": 0.0852271874999957,
          "durationTicks": 120,
          "midi": 72,
          "name": "C5",
          "ticks": 127440,
          "time": 90.511273125,
          "velocity": 0.30708661417322836
        },
        {
          "duration": 0.0852271874999957,
          "durationTicks": 120,
          "midi": 75,
          "name": "D#5",
          "ticks": 127440,
          "time": 90.511273125,
          "velocity": 0.30708661417322836
        },
        {
          "duration": 0.0852271874999957,
          "durationTicks": 120,
          "midi": 69,
          "name": "A4",
          "ticks": 127440,
          "time": 90.511273125,
          "velocity": 0.30708661417322836
        },
        {
          "duration": 0.0852271874999957,
          "durationTicks": 120,
          "midi": 72,
          "name": "C5",
          "ticks": 127440,
          "time": 90.511273125,
          "velocity": 0.30708661417322836
        },
        {
          "duration": 0.0852271874999957,
          "durationTicks": 120,
          "midi": 63,
          "name": "D#4",
          "ticks": 127440,
          "time": 90.511273125,
          "velocity": 0.30708661417322836
        },
        {
          "duration": 0.0852271874999957,
          "durationTicks": 120,
          "midi": 69,
          "name": "A4",
          "ticks": 127440,
          "time": 90.511273125,
          "velocity": 0.30708661417322836
        },
        {
          "duration": 0.0852271874999957,
          "durationTicks": 120,
          "midi": 72,
          "name": "C5",
          "ticks": 127464,
          "time": 90.5283185625,
          "velocity": 0.30708661417322836
        },
        {
          "duration": 0.0852271874999957,
          "durationTicks": 120,
          "midi": 69,
          "name": "A4",
          "ticks": 127464,
          "time": 90.5283185625,
          "velocity": 0.30708661417322836
        },
        {
          "duration": 0.0852271875000099,
          "durationTicks": 120,
          "midi": 64,
          "name": "E4",
          "ticks": 127536,
          "time": 90.579454875,
          "velocity": 0.30708661417322836
        },
        {
          "duration": 0.0852271875000099,
          "durationTicks": 120,
          "midi": 76,
          "name": "E5",
          "ticks": 127536,
          "time": 90.579454875,
          "velocity": 0.30708661417322836
        },
        {
          "duration": 0.0852271875000099,
          "durationTicks": 120,
          "midi": 64,
          "name": "E4",
          "ticks": 127536,
          "time": 90.579454875,
          "velocity": 0.30708661417322836
        },
        {
          "duration": 0.22159068749999733,
          "durationTicks": 312,
          "midi": 45,
          "name": "A2",
          "ticks": 127536,
          "time": 90.579454875,
          "velocity": 0.30708661417322836
        },
        {
          "duration": 0.0852271875000099,
          "durationTicks": 120,
          "midi": 76,
          "name": "E5",
          "ticks": 127536,
          "time": 90.579454875,
          "velocity": 0.30708661417322836
        },
        {
          "duration": 0.22159068749999733,
          "durationTicks": 312,
          "midi": 45,
          "name": "A2",
          "ticks": 127536,
          "time": 90.579454875,
          "velocity": 0.30708661417322836
        },
        {
          "duration": 0.0852271874999957,
          "durationTicks": 120,
          "midi": 64,
          "name": "E4",
          "ticks": 127560,
          "time": 90.5965003125,
          "velocity": 0.30708661417322836
        },
        {
          "duration": 0.0852271874999957,
          "durationTicks": 120,
          "midi": 76,
          "name": "E5",
          "ticks": 127560,
          "time": 90.5965003125,
          "velocity": 0.30708661417322836
        },
        {
          "duration": 0.22159068749999733,
          "durationTicks": 312,
          "midi": 45,
          "name": "A2",
          "ticks": 127560,
          "time": 90.5965003125,
          "velocity": 0.30708661417322836
        },
        {
          "duration": 0.0852271874999957,
          "durationTicks": 120,
          "midi": 81,
          "name": "A5",
          "ticks": 127776,
          "time": 90.74990925,
          "velocity": 0.30708661417322836
        },
        {
          "duration": 0.0852271874999957,
          "durationTicks": 120,
          "midi": 48,
          "name": "C3",
          "ticks": 127776,
          "time": 90.74990925,
          "velocity": 0.30708661417322836
        },
        {
          "duration": 0.0852271874999957,
          "durationTicks": 120,
          "midi": 52,
          "name": "E3",
          "ticks": 127776,
          "time": 90.74990925,
          "velocity": 0.30708661417322836
        },
        {
          "duration": 0.0852271874999957,
          "durationTicks": 120,
          "midi": 69,
          "name": "A4",
          "ticks": 127776,
          "time": 90.74990925,
          "velocity": 0.30708661417322836
        },
        {
          "duration": 0.0852271874999957,
          "durationTicks": 120,
          "midi": 52,
          "name": "E3",
          "ticks": 127776,
          "time": 90.74990925,
          "velocity": 0.30708661417322836
        },
        {
          "duration": 0.0852271874999957,
          "durationTicks": 120,
          "midi": 72,
          "name": "C5",
          "ticks": 127776,
          "time": 90.74990925,
          "velocity": 0.30708661417322836
        },
        {
          "duration": 0.0852271874999957,
          "durationTicks": 120,
          "midi": 81,
          "name": "A5",
          "ticks": 127776,
          "time": 90.74990925,
          "velocity": 0.30708661417322836
        },
        {
          "duration": 0.0852271874999957,
          "durationTicks": 120,
          "midi": 48,
          "name": "C3",
          "ticks": 127776,
          "time": 90.74990925,
          "velocity": 0.30708661417322836
        },
        {
          "duration": 0.0852271874999957,
          "durationTicks": 120,
          "midi": 72,
          "name": "C5",
          "ticks": 127776,
          "time": 90.74990925,
          "velocity": 0.30708661417322836
        },
        {
          "duration": 0.0852271874999957,
          "durationTicks": 120,
          "midi": 76,
          "name": "E5",
          "ticks": 127776,
          "time": 90.74990925,
          "velocity": 0.30708661417322836
        },
        {
          "duration": 0.0852271874999957,
          "durationTicks": 120,
          "midi": 69,
          "name": "A4",
          "ticks": 127776,
          "time": 90.74990925,
          "velocity": 0.30708661417322836
        },
        {
          "duration": 0.0852271874999957,
          "durationTicks": 120,
          "midi": 76,
          "name": "E5",
          "ticks": 127776,
          "time": 90.74990925,
          "velocity": 0.30708661417322836
        },
        {
          "duration": 0.0852271874999957,
          "durationTicks": 120,
          "midi": 69,
          "name": "A4",
          "ticks": 127800,
          "time": 90.7669546875,
          "velocity": 0.30708661417322836
        },
        {
          "duration": 0.0852271874999957,
          "durationTicks": 120,
          "midi": 76,
          "name": "E5",
          "ticks": 127800,
          "time": 90.7669546875,
          "velocity": 0.30708661417322836
        },
        {
          "duration": 0.0852271874999957,
          "durationTicks": 120,
          "midi": 72,
          "name": "C5",
          "ticks": 127800,
          "time": 90.7669546875,
          "velocity": 0.30708661417322836
        },
        {
          "duration": 0.0852271874999957,
          "durationTicks": 120,
          "midi": 81,
          "name": "A5",
          "ticks": 127800,
          "time": 90.7669546875,
          "velocity": 0.30708661417322836
        },
        {
          "duration": 0.0852271874999957,
          "durationTicks": 120,
          "midi": 48,
          "name": "C3",
          "ticks": 127800,
          "time": 90.7669546875,
          "velocity": 0.30708661417322836
        },
        {
          "duration": 0.0852271874999957,
          "durationTicks": 120,
          "midi": 52,
          "name": "E3",
          "ticks": 127800,
          "time": 90.7669546875,
          "velocity": 0.30708661417322836
        },
        {
          "duration": 0.0852271875000099,
          "durationTicks": 120,
          "midi": 40,
          "name": "E2",
          "ticks": 128016,
          "time": 90.920363625,
          "velocity": 0.30708661417322836
        },
        {
          "duration": 0.0852271875000099,
          "durationTicks": 120,
          "midi": 72,
          "name": "C5",
          "ticks": 128016,
          "time": 90.920363625,
          "velocity": 0.30708661417322836
        },
        {
          "duration": 0.0852271875000099,
          "durationTicks": 120,
          "midi": 81,
          "name": "A5",
          "ticks": 128016,
          "time": 90.920363625,
          "velocity": 0.30708661417322836
        },
        {
          "duration": 0.0852271875000099,
          "durationTicks": 120,
          "midi": 81,
          "name": "A5",
          "ticks": 128016,
          "time": 90.920363625,
          "velocity": 0.30708661417322836
        },
        {
          "duration": 0.0852271875000099,
          "durationTicks": 120,
          "midi": 76,
          "name": "E5",
          "ticks": 128016,
          "time": 90.920363625,
          "velocity": 0.30708661417322836
        },
        {
          "duration": 0.0852271875000099,
          "durationTicks": 120,
          "midi": 72,
          "name": "C5",
          "ticks": 128016,
          "time": 90.920363625,
          "velocity": 0.30708661417322836
        },
        {
          "duration": 0.0852271875000099,
          "durationTicks": 120,
          "midi": 76,
          "name": "E5",
          "ticks": 128016,
          "time": 90.920363625,
          "velocity": 0.30708661417322836
        },
        {
          "duration": 0.0852271875000099,
          "durationTicks": 120,
          "midi": 40,
          "name": "E2",
          "ticks": 128016,
          "time": 90.920363625,
          "velocity": 0.30708661417322836
        },
        {
          "duration": 0.0852271875000099,
          "durationTicks": 120,
          "midi": 84,
          "name": "C6",
          "ticks": 128016,
          "time": 90.920363625,
          "velocity": 0.30708661417322836
        },
        {
          "duration": 0.0852271875000099,
          "durationTicks": 120,
          "midi": 84,
          "name": "C6",
          "ticks": 128016,
          "time": 90.920363625,
          "velocity": 0.30708661417322836
        },
        {
          "duration": 0.0852271875000099,
          "durationTicks": 120,
          "midi": 76,
          "name": "E5",
          "ticks": 128040,
          "time": 90.9374090625,
          "velocity": 0.30708661417322836
        },
        {
          "duration": 0.0852271875000099,
          "durationTicks": 120,
          "midi": 81,
          "name": "A5",
          "ticks": 128040,
          "time": 90.9374090625,
          "velocity": 0.30708661417322836
        },
        {
          "duration": 0.0852271875000099,
          "durationTicks": 120,
          "midi": 72,
          "name": "C5",
          "ticks": 128040,
          "time": 90.9374090625,
          "velocity": 0.30708661417322836
        },
        {
          "duration": 0.0852271875000099,
          "durationTicks": 120,
          "midi": 84,
          "name": "C6",
          "ticks": 128040,
          "time": 90.9374090625,
          "velocity": 0.30708661417322836
        },
        {
          "duration": 0.0852271875000099,
          "durationTicks": 120,
          "midi": 40,
          "name": "E2",
          "ticks": 128040,
          "time": 90.9374090625,
          "velocity": 0.30708661417322836
        },
        {
          "duration": 0.0852271874999957,
          "durationTicks": 120,
          "midi": 52,
          "name": "E3",
          "ticks": 128256,
          "time": 91.090818,
          "velocity": 0.30708661417322836
        },
        {
          "duration": 0.0852271874999957,
          "durationTicks": 120,
          "midi": 52,
          "name": "E3",
          "ticks": 128256,
          "time": 91.090818,
          "velocity": 0.30708661417322836
        },
        {
          "duration": 0.0852271874999957,
          "durationTicks": 120,
          "midi": 48,
          "name": "C3",
          "ticks": 128256,
          "time": 91.090818,
          "velocity": 0.30708661417322836
        },
        {
          "duration": 0.0852271874999957,
          "durationTicks": 120,
          "midi": 48,
          "name": "C3",
          "ticks": 128256,
          "time": 91.090818,
          "velocity": 0.30708661417322836
        },
        {
          "duration": 0.0852271874999957,
          "durationTicks": 120,
          "midi": 48,
          "name": "C3",
          "ticks": 128280,
          "time": 91.1078634375,
          "velocity": 0.30708661417322836
        },
        {
          "duration": 0.0852271874999957,
          "durationTicks": 120,
          "midi": 52,
          "name": "E3",
          "ticks": 128280,
          "time": 91.1078634375,
          "velocity": 0.30708661417322836
        },
        {
          "duration": 0.0852271874999957,
          "durationTicks": 120,
          "midi": 77,
          "name": "F5",
          "ticks": 128496,
          "time": 91.261272375,
          "velocity": 0.30708661417322836
        },
        {
          "duration": 0.0852271874999957,
          "durationTicks": 120,
          "midi": 81,
          "name": "A5",
          "ticks": 128496,
          "time": 91.261272375,
          "velocity": 0.30708661417322836
        },
        {
          "duration": 0.0852271874999957,
          "durationTicks": 120,
          "midi": 74,
          "name": "D5",
          "ticks": 128496,
          "time": 91.261272375,
          "velocity": 0.30708661417322836
        },
        {
          "duration": 0.0852271874999957,
          "durationTicks": 120,
          "midi": 81,
          "name": "A5",
          "ticks": 128496,
          "time": 91.261272375,
          "velocity": 0.30708661417322836
        },
        {
          "duration": 0.0852271874999957,
          "durationTicks": 120,
          "midi": 86,
          "name": "D6",
          "ticks": 128496,
          "time": 91.261272375,
          "velocity": 0.30708661417322836
        },
        {
          "duration": 0.0852271874999957,
          "durationTicks": 120,
          "midi": 44,
          "name": "G#2",
          "ticks": 128496,
          "time": 91.261272375,
          "velocity": 0.30708661417322836
        },
        {
          "duration": 0.0852271874999957,
          "durationTicks": 120,
          "midi": 74,
          "name": "D5",
          "ticks": 128496,
          "time": 91.261272375,
          "velocity": 0.30708661417322836
        },
        {
          "duration": 0.0852271874999957,
          "durationTicks": 120,
          "midi": 44,
          "name": "G#2",
          "ticks": 128496,
          "time": 91.261272375,
          "velocity": 0.30708661417322836
        },
        {
          "duration": 0.0852271874999957,
          "durationTicks": 120,
          "midi": 77,
          "name": "F5",
          "ticks": 128496,
          "time": 91.261272375,
          "velocity": 0.30708661417322836
        },
        {
          "duration": 0.0852271874999957,
          "durationTicks": 120,
          "midi": 86,
          "name": "D6",
          "ticks": 128496,
          "time": 91.261272375,
          "velocity": 0.30708661417322836
        },
        {
          "duration": 0.0852271875000099,
          "durationTicks": 120,
          "midi": 74,
          "name": "D5",
          "ticks": 128520,
          "time": 91.27831781249999,
          "velocity": 0.30708661417322836
        },
        {
          "duration": 0.0852271875000099,
          "durationTicks": 120,
          "midi": 44,
          "name": "G#2",
          "ticks": 128520,
          "time": 91.27831781249999,
          "velocity": 0.30708661417322836
        },
        {
          "duration": 0.0852271875000099,
          "durationTicks": 120,
          "midi": 77,
          "name": "F5",
          "ticks": 128520,
          "time": 91.27831781249999,
          "velocity": 0.30708661417322836
        },
        {
          "duration": 0.0852271875000099,
          "durationTicks": 120,
          "midi": 81,
          "name": "A5",
          "ticks": 128520,
          "time": 91.27831781249999,
          "velocity": 0.30708661417322836
        },
        {
          "duration": 0.0852271875000099,
          "durationTicks": 120,
          "midi": 86,
          "name": "D6",
          "ticks": 128520,
          "time": 91.27831781249999,
          "velocity": 0.30708661417322836
        },
        {
          "duration": 0.0852271874999957,
          "durationTicks": 120,
          "midi": 86,
          "name": "D6",
          "ticks": 128616,
          "time": 91.3464995625,
          "velocity": 0.30708661417322836
        },
        {
          "duration": 0.0852271874999957,
          "durationTicks": 120,
          "midi": 86,
          "name": "D6",
          "ticks": 128616,
          "time": 91.3464995625,
          "velocity": 0.30708661417322836
        },
        {
          "duration": 0.0852271874999957,
          "durationTicks": 120,
          "midi": 77,
          "name": "F5",
          "ticks": 128616,
          "time": 91.3464995625,
          "velocity": 0.30708661417322836
        },
        {
          "duration": 0.0852271874999957,
          "durationTicks": 120,
          "midi": 81,
          "name": "A5",
          "ticks": 128616,
          "time": 91.3464995625,
          "velocity": 0.30708661417322836
        },
        {
          "duration": 0.0852271874999957,
          "durationTicks": 120,
          "midi": 74,
          "name": "D5",
          "ticks": 128616,
          "time": 91.3464995625,
          "velocity": 0.30708661417322836
        },
        {
          "duration": 0.0852271874999957,
          "durationTicks": 120,
          "midi": 81,
          "name": "A5",
          "ticks": 128616,
          "time": 91.3464995625,
          "velocity": 0.30708661417322836
        },
        {
          "duration": 0.0852271874999957,
          "durationTicks": 120,
          "midi": 77,
          "name": "F5",
          "ticks": 128616,
          "time": 91.3464995625,
          "velocity": 0.30708661417322836
        },
        {
          "duration": 0.0852271874999957,
          "durationTicks": 120,
          "midi": 74,
          "name": "D5",
          "ticks": 128616,
          "time": 91.3464995625,
          "velocity": 0.30708661417322836
        },
        {
          "duration": 0.0852271874999957,
          "durationTicks": 120,
          "midi": 77,
          "name": "F5",
          "ticks": 128640,
          "time": 91.363545,
          "velocity": 0.30708661417322836
        },
        {
          "duration": 0.0852271874999957,
          "durationTicks": 120,
          "midi": 74,
          "name": "D5",
          "ticks": 128640,
          "time": 91.363545,
          "velocity": 0.30708661417322836
        },
        {
          "duration": 0.0852271874999957,
          "durationTicks": 120,
          "midi": 86,
          "name": "D6",
          "ticks": 128640,
          "time": 91.363545,
          "velocity": 0.30708661417322836
        },
        {
          "duration": 0.0852271874999957,
          "durationTicks": 120,
          "midi": 81,
          "name": "A5",
          "ticks": 128640,
          "time": 91.363545,
          "velocity": 0.30708661417322836
        },
        {
          "duration": 0.0852271875000099,
          "durationTicks": 120,
          "midi": 81,
          "name": "A5",
          "ticks": 128736,
          "time": 91.43172675,
          "velocity": 0.30708661417322836
        },
        {
          "duration": 0.0852271875000099,
          "durationTicks": 120,
          "midi": 86,
          "name": "D6",
          "ticks": 128736,
          "time": 91.43172675,
          "velocity": 0.30708661417322836
        },
        {
          "duration": 0.0852271875000099,
          "durationTicks": 120,
          "midi": 52,
          "name": "E3",
          "ticks": 128736,
          "time": 91.43172675,
          "velocity": 0.30708661417322836
        },
        {
          "duration": 0.0852271875000099,
          "durationTicks": 120,
          "midi": 74,
          "name": "D5",
          "ticks": 128736,
          "time": 91.43172675,
          "velocity": 0.30708661417322836
        },
        {
          "duration": 0.0852271875000099,
          "durationTicks": 120,
          "midi": 86,
          "name": "D6",
          "ticks": 128736,
          "time": 91.43172675,
          "velocity": 0.30708661417322836
        },
        {
          "duration": 0.0852271875000099,
          "durationTicks": 120,
          "midi": 77,
          "name": "F5",
          "ticks": 128736,
          "time": 91.43172675,
          "velocity": 0.30708661417322836
        },
        {
          "duration": 0.0852271875000099,
          "durationTicks": 120,
          "midi": 74,
          "name": "D5",
          "ticks": 128736,
          "time": 91.43172675,
          "velocity": 0.30708661417322836
        },
        {
          "duration": 0.0852271875000099,
          "durationTicks": 120,
          "midi": 50,
          "name": "D3",
          "ticks": 128736,
          "time": 91.43172675,
          "velocity": 0.30708661417322836
        },
        {
          "duration": 0.0852271875000099,
          "durationTicks": 120,
          "midi": 52,
          "name": "E3",
          "ticks": 128736,
          "time": 91.43172675,
          "velocity": 0.30708661417322836
        },
        {
          "duration": 0.0852271875000099,
          "durationTicks": 120,
          "midi": 81,
          "name": "A5",
          "ticks": 128736,
          "time": 91.43172675,
          "velocity": 0.30708661417322836
        },
        {
          "duration": 0.0852271875000099,
          "durationTicks": 120,
          "midi": 77,
          "name": "F5",
          "ticks": 128736,
          "time": 91.43172675,
          "velocity": 0.30708661417322836
        },
        {
          "duration": 0.0852271875000099,
          "durationTicks": 120,
          "midi": 50,
          "name": "D3",
          "ticks": 128736,
          "time": 91.43172675,
          "velocity": 0.30708661417322836
        },
        {
          "duration": 0.0852271874999957,
          "durationTicks": 120,
          "midi": 52,
          "name": "E3",
          "ticks": 128760,
          "time": 91.4487721875,
          "velocity": 0.30708661417322836
        },
        {
          "duration": 0.0852271874999957,
          "durationTicks": 120,
          "midi": 81,
          "name": "A5",
          "ticks": 128760,
          "time": 91.4487721875,
          "velocity": 0.30708661417322836
        },
        {
          "duration": 0.0852271874999957,
          "durationTicks": 120,
          "midi": 86,
          "name": "D6",
          "ticks": 128760,
          "time": 91.4487721875,
          "velocity": 0.30708661417322836
        },
        {
          "duration": 0.0852271874999957,
          "durationTicks": 120,
          "midi": 74,
          "name": "D5",
          "ticks": 128760,
          "time": 91.4487721875,
          "velocity": 0.30708661417322836
        },
        {
          "duration": 0.0852271874999957,
          "durationTicks": 120,
          "midi": 77,
          "name": "F5",
          "ticks": 128760,
          "time": 91.4487721875,
          "velocity": 0.30708661417322836
        },
        {
          "duration": 0.0852271874999957,
          "durationTicks": 120,
          "midi": 50,
          "name": "D3",
          "ticks": 128760,
          "time": 91.4487721875,
          "velocity": 0.30708661417322836
        },
        {
          "duration": 0.0852271874999957,
          "durationTicks": 120,
          "midi": 77,
          "name": "F5",
          "ticks": 128856,
          "time": 91.5169539375,
          "velocity": 0.30708661417322836
        },
        {
          "duration": 0.0852271874999957,
          "durationTicks": 120,
          "midi": 81,
          "name": "A5",
          "ticks": 128856,
          "time": 91.5169539375,
          "velocity": 0.30708661417322836
        },
        {
          "duration": 0.0852271874999957,
          "durationTicks": 120,
          "midi": 86,
          "name": "D6",
          "ticks": 128856,
          "time": 91.5169539375,
          "velocity": 0.30708661417322836
        },
        {
          "duration": 0.0852271874999957,
          "durationTicks": 120,
          "midi": 81,
          "name": "A5",
          "ticks": 128856,
          "time": 91.5169539375,
          "velocity": 0.30708661417322836
        },
        {
          "duration": 0.0852271874999957,
          "durationTicks": 120,
          "midi": 86,
          "name": "D6",
          "ticks": 128856,
          "time": 91.5169539375,
          "velocity": 0.30708661417322836
        },
        {
          "duration": 0.0852271874999957,
          "durationTicks": 120,
          "midi": 74,
          "name": "D5",
          "ticks": 128856,
          "time": 91.5169539375,
          "velocity": 0.30708661417322836
        },
        {
          "duration": 0.0852271874999957,
          "durationTicks": 120,
          "midi": 77,
          "name": "F5",
          "ticks": 128856,
          "time": 91.5169539375,
          "velocity": 0.30708661417322836
        },
        {
          "duration": 0.0852271874999957,
          "durationTicks": 120,
          "midi": 74,
          "name": "D5",
          "ticks": 128856,
          "time": 91.5169539375,
          "velocity": 0.30708661417322836
        },
        {
          "duration": 0.0852271875000099,
          "durationTicks": 120,
          "midi": 86,
          "name": "D6",
          "ticks": 128880,
          "time": 91.533999375,
          "velocity": 0.30708661417322836
        },
        {
          "duration": 0.0852271875000099,
          "durationTicks": 120,
          "midi": 81,
          "name": "A5",
          "ticks": 128880,
          "time": 91.533999375,
          "velocity": 0.30708661417322836
        },
        {
          "duration": 0.0852271875000099,
          "durationTicks": 120,
          "midi": 77,
          "name": "F5",
          "ticks": 128880,
          "time": 91.533999375,
          "velocity": 0.30708661417322836
        },
        {
          "duration": 0.0852271875000099,
          "durationTicks": 120,
          "midi": 74,
          "name": "D5",
          "ticks": 128880,
          "time": 91.533999375,
          "velocity": 0.30708661417322836
        },
        {
          "duration": 0.0852271874999957,
          "durationTicks": 120,
          "midi": 81,
          "name": "A5",
          "ticks": 128976,
          "time": 91.602181125,
          "velocity": 0.30708661417322836
        },
        {
          "duration": 0.0852271874999957,
          "durationTicks": 120,
          "midi": 40,
          "name": "E2",
          "ticks": 128976,
          "time": 91.602181125,
          "velocity": 0.30708661417322836
        },
        {
          "duration": 0.0852271874999957,
          "durationTicks": 120,
          "midi": 86,
          "name": "D6",
          "ticks": 128976,
          "time": 91.602181125,
          "velocity": 0.30708661417322836
        },
        {
          "duration": 0.0852271874999957,
          "durationTicks": 120,
          "midi": 77,
          "name": "F5",
          "ticks": 128976,
          "time": 91.602181125,
          "velocity": 0.30708661417322836
        },
        {
          "duration": 0.0852271874999957,
          "durationTicks": 120,
          "midi": 74,
          "name": "D5",
          "ticks": 128976,
          "time": 91.602181125,
          "velocity": 0.30708661417322836
        },
        {
          "duration": 0.0852271874999957,
          "durationTicks": 120,
          "midi": 77,
          "name": "F5",
          "ticks": 128976,
          "time": 91.602181125,
          "velocity": 0.30708661417322836
        },
        {
          "duration": 0.0852271874999957,
          "durationTicks": 120,
          "midi": 40,
          "name": "E2",
          "ticks": 128976,
          "time": 91.602181125,
          "velocity": 0.30708661417322836
        },
        {
          "duration": 0.0852271874999957,
          "durationTicks": 120,
          "midi": 86,
          "name": "D6",
          "ticks": 128976,
          "time": 91.602181125,
          "velocity": 0.30708661417322836
        },
        {
          "duration": 0.0852271874999957,
          "durationTicks": 120,
          "midi": 81,
          "name": "A5",
          "ticks": 128976,
          "time": 91.602181125,
          "velocity": 0.30708661417322836
        },
        {
          "duration": 0.0852271874999957,
          "durationTicks": 120,
          "midi": 74,
          "name": "D5",
          "ticks": 128976,
          "time": 91.602181125,
          "velocity": 0.30708661417322836
        },
        {
          "duration": 0.0852271874999957,
          "durationTicks": 120,
          "midi": 74,
          "name": "D5",
          "ticks": 129000,
          "time": 91.6192265625,
          "velocity": 0.30708661417322836
        },
        {
          "duration": 0.0852271874999957,
          "durationTicks": 120,
          "midi": 86,
          "name": "D6",
          "ticks": 129000,
          "time": 91.6192265625,
          "velocity": 0.30708661417322836
        },
        {
          "duration": 0.0852271874999957,
          "durationTicks": 120,
          "midi": 77,
          "name": "F5",
          "ticks": 129000,
          "time": 91.6192265625,
          "velocity": 0.30708661417322836
        },
        {
          "duration": 0.0852271874999957,
          "durationTicks": 120,
          "midi": 81,
          "name": "A5",
          "ticks": 129000,
          "time": 91.6192265625,
          "velocity": 0.30708661417322836
        },
        {
          "duration": 0.0852271874999957,
          "durationTicks": 120,
          "midi": 40,
          "name": "E2",
          "ticks": 129000,
          "time": 91.6192265625,
          "velocity": 0.30708661417322836
        },
        {
          "duration": 0.0852271874999957,
          "durationTicks": 120,
          "midi": 72,
          "name": "C5",
          "ticks": 129096,
          "time": 91.6874083125,
          "velocity": 0.30708661417322836
        },
        {
          "duration": 0.0852271874999957,
          "durationTicks": 120,
          "midi": 84,
          "name": "C6",
          "ticks": 129096,
          "time": 91.6874083125,
          "velocity": 0.30708661417322836
        },
        {
          "duration": 0.0852271874999957,
          "durationTicks": 120,
          "midi": 84,
          "name": "C6",
          "ticks": 129096,
          "time": 91.6874083125,
          "velocity": 0.30708661417322836
        },
        {
          "duration": 0.0852271874999957,
          "durationTicks": 120,
          "midi": 72,
          "name": "C5",
          "ticks": 129096,
          "time": 91.6874083125,
          "velocity": 0.30708661417322836
        },
        {
          "duration": 0.0852271874999957,
          "durationTicks": 120,
          "midi": 72,
          "name": "C5",
          "ticks": 129120,
          "time": 91.70445375,
          "velocity": 0.30708661417322836
        },
        {
          "duration": 0.0852271874999957,
          "durationTicks": 120,
          "midi": 84,
          "name": "C6",
          "ticks": 129120,
          "time": 91.70445375,
          "velocity": 0.30708661417322836
        },
        {
          "duration": 0.0852271875000099,
          "durationTicks": 120,
          "midi": 71,
          "name": "B4",
          "ticks": 129216,
          "time": 91.77263549999999,
          "velocity": 0.30708661417322836
        },
        {
          "duration": 0.0852271875000099,
          "durationTicks": 120,
          "midi": 71,
          "name": "B4",
          "ticks": 129216,
          "time": 91.77263549999999,
          "velocity": 0.30708661417322836
        },
        {
          "duration": 0.0852271875000099,
          "durationTicks": 120,
          "midi": 52,
          "name": "E3",
          "ticks": 129216,
          "time": 91.77263549999999,
          "velocity": 0.30708661417322836
        },
        {
          "duration": 0.0852271875000099,
          "durationTicks": 120,
          "midi": 83,
          "name": "B5",
          "ticks": 129216,
          "time": 91.77263549999999,
          "velocity": 0.30708661417322836
        },
        {
          "duration": 0.0852271875000099,
          "durationTicks": 120,
          "midi": 52,
          "name": "E3",
          "ticks": 129216,
          "time": 91.77263549999999,
          "velocity": 0.30708661417322836
        },
        {
          "duration": 0.0852271875000099,
          "durationTicks": 120,
          "midi": 50,
          "name": "D3",
          "ticks": 129216,
          "time": 91.77263549999999,
          "velocity": 0.30708661417322836
        },
        {
          "duration": 0.0852271875000099,
          "durationTicks": 120,
          "midi": 83,
          "name": "B5",
          "ticks": 129216,
          "time": 91.77263549999999,
          "velocity": 0.30708661417322836
        },
        {
          "duration": 0.0852271875000099,
          "durationTicks": 120,
          "midi": 50,
          "name": "D3",
          "ticks": 129216,
          "time": 91.77263549999999,
          "velocity": 0.30708661417322836
        },
        {
          "duration": 0.0852271875000099,
          "durationTicks": 120,
          "midi": 50,
          "name": "D3",
          "ticks": 129240,
          "time": 91.7896809375,
          "velocity": 0.30708661417322836
        },
        {
          "duration": 0.0852271875000099,
          "durationTicks": 120,
          "midi": 83,
          "name": "B5",
          "ticks": 129240,
          "time": 91.7896809375,
          "velocity": 0.30708661417322836
        },
        {
          "duration": 0.0852271875000099,
          "durationTicks": 120,
          "midi": 71,
          "name": "B4",
          "ticks": 129240,
          "time": 91.7896809375,
          "velocity": 0.30708661417322836
        },
        {
          "duration": 0.0852271875000099,
          "durationTicks": 120,
          "midi": 52,
          "name": "E3",
          "ticks": 129240,
          "time": 91.7896809375,
          "velocity": 0.30708661417322836
        },
        {
          "duration": 0.0852271874999957,
          "durationTicks": 120,
          "midi": 86,
          "name": "D6",
          "ticks": 129336,
          "time": 91.8578626875,
          "velocity": 0.30708661417322836
        },
        {
          "duration": 0.0852271874999957,
          "durationTicks": 120,
          "midi": 86,
          "name": "D6",
          "ticks": 129336,
          "time": 91.8578626875,
          "velocity": 0.30708661417322836
        },
        {
          "duration": 0.0852271874999957,
          "durationTicks": 120,
          "midi": 74,
          "name": "D5",
          "ticks": 129336,
          "time": 91.8578626875,
          "velocity": 0.30708661417322836
        },
        {
          "duration": 0.0852271874999957,
          "durationTicks": 120,
          "midi": 74,
          "name": "D5",
          "ticks": 129336,
          "time": 91.8578626875,
          "velocity": 0.30708661417322836
        },
        {
          "duration": 0.0852271874999957,
          "durationTicks": 120,
          "midi": 86,
          "name": "D6",
          "ticks": 129360,
          "time": 91.874908125,
          "velocity": 0.30708661417322836
        },
        {
          "duration": 0.0852271874999957,
          "durationTicks": 120,
          "midi": 74,
          "name": "D5",
          "ticks": 129360,
          "time": 91.874908125,
          "velocity": 0.30708661417322836
        },
        {
          "duration": 0.0852271874999957,
          "durationTicks": 120,
          "midi": 76,
          "name": "E5",
          "ticks": 129456,
          "time": 91.943089875,
          "velocity": 0.30708661417322836
        },
        {
          "duration": 0.0852271874999957,
          "durationTicks": 120,
          "midi": 84,
          "name": "C6",
          "ticks": 129456,
          "time": 91.943089875,
          "velocity": 0.30708661417322836
        },
        {
          "duration": 0.0852271874999957,
          "durationTicks": 120,
          "midi": 81,
          "name": "A5",
          "ticks": 129456,
          "time": 91.943089875,
          "velocity": 0.30708661417322836
        },
        {
          "duration": 0.0852271874999957,
          "durationTicks": 120,
          "midi": 45,
          "name": "A2",
          "ticks": 129456,
          "time": 91.943089875,
          "velocity": 0.30708661417322836
        },
        {
          "duration": 0.0852271874999957,
          "durationTicks": 120,
          "midi": 84,
          "name": "C6",
          "ticks": 129456,
          "time": 91.943089875,
          "velocity": 0.30708661417322836
        },
        {
          "duration": 0.0852271874999957,
          "durationTicks": 120,
          "midi": 72,
          "name": "C5",
          "ticks": 129456,
          "time": 91.943089875,
          "velocity": 0.30708661417322836
        },
        {
          "duration": 0.0852271874999957,
          "durationTicks": 120,
          "midi": 45,
          "name": "A2",
          "ticks": 129456,
          "time": 91.943089875,
          "velocity": 0.30708661417322836
        },
        {
          "duration": 0.0852271874999957,
          "durationTicks": 120,
          "midi": 76,
          "name": "E5",
          "ticks": 129456,
          "time": 91.943089875,
          "velocity": 0.30708661417322836
        },
        {
          "duration": 0.0852271874999957,
          "durationTicks": 120,
          "midi": 81,
          "name": "A5",
          "ticks": 129456,
          "time": 91.943089875,
          "velocity": 0.30708661417322836
        },
        {
          "duration": 0.0852271874999957,
          "durationTicks": 120,
          "midi": 72,
          "name": "C5",
          "ticks": 129456,
          "time": 91.943089875,
          "velocity": 0.30708661417322836
        },
        {
          "duration": 0.0852271874999957,
          "durationTicks": 120,
          "midi": 76,
          "name": "E5",
          "ticks": 129480,
          "time": 91.9601353125,
          "velocity": 0.30708661417322836
        },
        {
          "duration": 0.0852271874999957,
          "durationTicks": 120,
          "midi": 72,
          "name": "C5",
          "ticks": 129480,
          "time": 91.9601353125,
          "velocity": 0.30708661417322836
        },
        {
          "duration": 0.0852271874999957,
          "durationTicks": 120,
          "midi": 84,
          "name": "C6",
          "ticks": 129480,
          "time": 91.9601353125,
          "velocity": 0.30708661417322836
        },
        {
          "duration": 0.0852271874999957,
          "durationTicks": 120,
          "midi": 81,
          "name": "A5",
          "ticks": 129480,
          "time": 91.9601353125,
          "velocity": 0.30708661417322836
        },
        {
          "duration": 0.0852271874999957,
          "durationTicks": 120,
          "midi": 45,
          "name": "A2",
          "ticks": 129480,
          "time": 91.9601353125,
          "velocity": 0.30708661417322836
        },
        {
          "duration": 0.0852271875000099,
          "durationTicks": 120,
          "midi": 76,
          "name": "E5",
          "ticks": 129576,
          "time": 92.0283170625,
          "velocity": 0.30708661417322836
        },
        {
          "duration": 0.0852271875000099,
          "durationTicks": 120,
          "midi": 81,
          "name": "A5",
          "ticks": 129576,
          "time": 92.0283170625,
          "velocity": 0.30708661417322836
        },
        {
          "duration": 0.0852271875000099,
          "durationTicks": 120,
          "midi": 81,
          "name": "A5",
          "ticks": 129576,
          "time": 92.0283170625,
          "velocity": 0.30708661417322836
        },
        {
          "duration": 0.0852271875000099,
          "durationTicks": 120,
          "midi": 84,
          "name": "C6",
          "ticks": 129576,
          "time": 92.0283170625,
          "velocity": 0.30708661417322836
        },
        {
          "duration": 0.0852271875000099,
          "durationTicks": 120,
          "midi": 84,
          "name": "C6",
          "ticks": 129576,
          "time": 92.0283170625,
          "velocity": 0.30708661417322836
        },
        {
          "duration": 0.0852271875000099,
          "durationTicks": 120,
          "midi": 72,
          "name": "C5",
          "ticks": 129576,
          "time": 92.0283170625,
          "velocity": 0.30708661417322836
        },
        {
          "duration": 0.0852271875000099,
          "durationTicks": 120,
          "midi": 72,
          "name": "C5",
          "ticks": 129576,
          "time": 92.0283170625,
          "velocity": 0.30708661417322836
        },
        {
          "duration": 0.0852271875000099,
          "durationTicks": 120,
          "midi": 76,
          "name": "E5",
          "ticks": 129576,
          "time": 92.0283170625,
          "velocity": 0.30708661417322836
        },
        {
          "duration": 0.0852271875000099,
          "durationTicks": 120,
          "midi": 81,
          "name": "A5",
          "ticks": 129600,
          "time": 92.0453625,
          "velocity": 0.30708661417322836
        },
        {
          "duration": 0.0852271875000099,
          "durationTicks": 120,
          "midi": 84,
          "name": "C6",
          "ticks": 129600,
          "time": 92.0453625,
          "velocity": 0.30708661417322836
        },
        {
          "duration": 0.0852271875000099,
          "durationTicks": 120,
          "midi": 76,
          "name": "E5",
          "ticks": 129600,
          "time": 92.0453625,
          "velocity": 0.30708661417322836
        },
        {
          "duration": 0.0852271875000099,
          "durationTicks": 120,
          "midi": 72,
          "name": "C5",
          "ticks": 129600,
          "time": 92.0453625,
          "velocity": 0.30708661417322836
        },
        {
          "duration": 0.0852271874999957,
          "durationTicks": 120,
          "midi": 76,
          "name": "E5",
          "ticks": 129696,
          "time": 92.11354425,
          "velocity": 0.30708661417322836
        },
        {
          "duration": 0.0852271874999957,
          "durationTicks": 120,
          "midi": 84,
          "name": "C6",
          "ticks": 129696,
          "time": 92.11354425,
          "velocity": 0.30708661417322836
        },
        {
          "duration": 0.0852271874999957,
          "durationTicks": 120,
          "midi": 72,
          "name": "C5",
          "ticks": 129696,
          "time": 92.11354425,
          "velocity": 0.30708661417322836
        },
        {
          "duration": 0.0852271874999957,
          "durationTicks": 120,
          "midi": 48,
          "name": "C3",
          "ticks": 129696,
          "time": 92.11354425,
          "velocity": 0.30708661417322836
        },
        {
          "duration": 0.0852271874999957,
          "durationTicks": 120,
          "midi": 81,
          "name": "A5",
          "ticks": 129696,
          "time": 92.11354425,
          "velocity": 0.30708661417322836
        },
        {
          "duration": 0.0852271874999957,
          "durationTicks": 120,
          "midi": 72,
          "name": "C5",
          "ticks": 129696,
          "time": 92.11354425,
          "velocity": 0.30708661417322836
        },
        {
          "duration": 0.0852271874999957,
          "durationTicks": 120,
          "midi": 76,
          "name": "E5",
          "ticks": 129696,
          "time": 92.11354425,
          "velocity": 0.30708661417322836
        },
        {
          "duration": 0.0852271874999957,
          "durationTicks": 120,
          "midi": 84,
          "name": "C6",
          "ticks": 129696,
          "time": 92.11354425,
          "velocity": 0.30708661417322836
        },
        {
          "duration": 0.0852271874999957,
          "durationTicks": 120,
          "midi": 52,
          "name": "E3",
          "ticks": 129696,
          "time": 92.11354425,
          "velocity": 0.30708661417322836
        },
        {
          "duration": 0.0852271874999957,
          "durationTicks": 120,
          "midi": 81,
          "name": "A5",
          "ticks": 129696,
          "time": 92.11354425,
          "velocity": 0.30708661417322836
        },
        {
          "duration": 0.0852271874999957,
          "durationTicks": 120,
          "midi": 52,
          "name": "E3",
          "ticks": 129696,
          "time": 92.11354425,
          "velocity": 0.30708661417322836
        },
        {
          "duration": 0.0852271874999957,
          "durationTicks": 120,
          "midi": 48,
          "name": "C3",
          "ticks": 129696,
          "time": 92.11354425,
          "velocity": 0.30708661417322836
        },
        {
          "duration": 0.0852271874999957,
          "durationTicks": 120,
          "midi": 84,
          "name": "C6",
          "ticks": 129720,
          "time": 92.1305896875,
          "velocity": 0.30708661417322836
        },
        {
          "duration": 0.0852271874999957,
          "durationTicks": 120,
          "midi": 52,
          "name": "E3",
          "ticks": 129720,
          "time": 92.1305896875,
          "velocity": 0.30708661417322836
        },
        {
          "duration": 0.0852271874999957,
          "durationTicks": 120,
          "midi": 76,
          "name": "E5",
          "ticks": 129720,
          "time": 92.1305896875,
          "velocity": 0.30708661417322836
        },
        {
          "duration": 0.0852271874999957,
          "durationTicks": 120,
          "midi": 81,
          "name": "A5",
          "ticks": 129720,
          "time": 92.1305896875,
          "velocity": 0.30708661417322836
        },
        {
          "duration": 0.0852271874999957,
          "durationTicks": 120,
          "midi": 72,
          "name": "C5",
          "ticks": 129720,
          "time": 92.1305896875,
          "velocity": 0.30708661417322836
        },
        {
          "duration": 0.0852271874999957,
          "durationTicks": 120,
          "midi": 48,
          "name": "C3",
          "ticks": 129720,
          "time": 92.1305896875,
          "velocity": 0.30708661417322836
        },
        {
          "duration": 0.0852271874999957,
          "durationTicks": 120,
          "midi": 81,
          "name": "A5",
          "ticks": 129816,
          "time": 92.1987714375,
          "velocity": 0.30708661417322836
        },
        {
          "duration": 0.0852271874999957,
          "durationTicks": 120,
          "midi": 72,
          "name": "C5",
          "ticks": 129816,
          "time": 92.1987714375,
          "velocity": 0.30708661417322836
        },
        {
          "duration": 0.0852271874999957,
          "durationTicks": 120,
          "midi": 72,
          "name": "C5",
          "ticks": 129816,
          "time": 92.1987714375,
          "velocity": 0.30708661417322836
        },
        {
          "duration": 0.0852271874999957,
          "durationTicks": 120,
          "midi": 84,
          "name": "C6",
          "ticks": 129816,
          "time": 92.1987714375,
          "velocity": 0.30708661417322836
        },
        {
          "duration": 0.0852271874999957,
          "durationTicks": 120,
          "midi": 76,
          "name": "E5",
          "ticks": 129816,
          "time": 92.1987714375,
          "velocity": 0.30708661417322836
        },
        {
          "duration": 0.0852271874999957,
          "durationTicks": 120,
          "midi": 76,
          "name": "E5",
          "ticks": 129816,
          "time": 92.1987714375,
          "velocity": 0.30708661417322836
        },
        {
          "duration": 0.0852271874999957,
          "durationTicks": 120,
          "midi": 84,
          "name": "C6",
          "ticks": 129816,
          "time": 92.1987714375,
          "velocity": 0.30708661417322836
        },
        {
          "duration": 0.0852271874999957,
          "durationTicks": 120,
          "midi": 81,
          "name": "A5",
          "ticks": 129816,
          "time": 92.1987714375,
          "velocity": 0.30708661417322836
        },
        {
          "duration": 0.0852271874999957,
          "durationTicks": 120,
          "midi": 81,
          "name": "A5",
          "ticks": 129840,
          "time": 92.215816875,
          "velocity": 0.30708661417322836
        },
        {
          "duration": 0.0852271874999957,
          "durationTicks": 120,
          "midi": 84,
          "name": "C6",
          "ticks": 129840,
          "time": 92.215816875,
          "velocity": 0.30708661417322836
        },
        {
          "duration": 0.0852271874999957,
          "durationTicks": 120,
          "midi": 76,
          "name": "E5",
          "ticks": 129840,
          "time": 92.215816875,
          "velocity": 0.30708661417322836
        },
        {
          "duration": 0.0852271874999957,
          "durationTicks": 120,
          "midi": 72,
          "name": "C5",
          "ticks": 129840,
          "time": 92.215816875,
          "velocity": 0.30708661417322836
        },
        {
          "duration": 0.0852271875000099,
          "durationTicks": 120,
          "midi": 76,
          "name": "E5",
          "ticks": 129936,
          "time": 92.283998625,
          "velocity": 0.30708661417322836
        },
        {
          "duration": 0.0852271875000099,
          "durationTicks": 120,
          "midi": 72,
          "name": "C5",
          "ticks": 129936,
          "time": 92.283998625,
          "velocity": 0.30708661417322836
        },
        {
          "duration": 0.0852271875000099,
          "durationTicks": 120,
          "midi": 40,
          "name": "E2",
          "ticks": 129936,
          "time": 92.283998625,
          "velocity": 0.30708661417322836
        },
        {
          "duration": 0.0852271875000099,
          "durationTicks": 120,
          "midi": 81,
          "name": "A5",
          "ticks": 129936,
          "time": 92.283998625,
          "velocity": 0.30708661417322836
        },
        {
          "duration": 0.0852271875000099,
          "durationTicks": 120,
          "midi": 81,
          "name": "A5",
          "ticks": 129936,
          "time": 92.283998625,
          "velocity": 0.30708661417322836
        },
        {
          "duration": 0.0852271875000099,
          "durationTicks": 120,
          "midi": 84,
          "name": "C6",
          "ticks": 129936,
          "time": 92.283998625,
          "velocity": 0.30708661417322836
        },
        {
          "duration": 0.0852271875000099,
          "durationTicks": 120,
          "midi": 40,
          "name": "E2",
          "ticks": 129936,
          "time": 92.283998625,
          "velocity": 0.30708661417322836
        },
        {
          "duration": 0.0852271875000099,
          "durationTicks": 120,
          "midi": 84,
          "name": "C6",
          "ticks": 129936,
          "time": 92.283998625,
          "velocity": 0.30708661417322836
        },
        {
          "duration": 0.0852271875000099,
          "durationTicks": 120,
          "midi": 72,
          "name": "C5",
          "ticks": 129936,
          "time": 92.283998625,
          "velocity": 0.30708661417322836
        },
        {
          "duration": 0.0852271875000099,
          "durationTicks": 120,
          "midi": 76,
          "name": "E5",
          "ticks": 129936,
          "time": 92.283998625,
          "velocity": 0.30708661417322836
        },
        {
          "duration": 0.0852271874999957,
          "durationTicks": 120,
          "midi": 84,
          "name": "C6",
          "ticks": 129960,
          "time": 92.3010440625,
          "velocity": 0.30708661417322836
        },
        {
          "duration": 0.0852271874999957,
          "durationTicks": 120,
          "midi": 81,
          "name": "A5",
          "ticks": 129960,
          "time": 92.3010440625,
          "velocity": 0.30708661417322836
        },
        {
          "duration": 0.0852271874999957,
          "durationTicks": 120,
          "midi": 72,
          "name": "C5",
          "ticks": 129960,
          "time": 92.3010440625,
          "velocity": 0.30708661417322836
        },
        {
          "duration": 0.0852271874999957,
          "durationTicks": 120,
          "midi": 76,
          "name": "E5",
          "ticks": 129960,
          "time": 92.3010440625,
          "velocity": 0.30708661417322836
        },
        {
          "duration": 0.0852271874999957,
          "durationTicks": 120,
          "midi": 40,
          "name": "E2",
          "ticks": 129960,
          "time": 92.3010440625,
          "velocity": 0.30708661417322836
        },
        {
          "duration": 0.0852271874999957,
          "durationTicks": 120,
          "midi": 83,
          "name": "B5",
          "ticks": 130056,
          "time": 92.3692258125,
          "velocity": 0.30708661417322836
        },
        {
          "duration": 0.0852271874999957,
          "durationTicks": 120,
          "midi": 71,
          "name": "B4",
          "ticks": 130056,
          "time": 92.3692258125,
          "velocity": 0.30708661417322836
        },
        {
          "duration": 0.0852271874999957,
          "durationTicks": 120,
          "midi": 71,
          "name": "B4",
          "ticks": 130056,
          "time": 92.3692258125,
          "velocity": 0.30708661417322836
        },
        {
          "duration": 0.0852271874999957,
          "durationTicks": 120,
          "midi": 83,
          "name": "B5",
          "ticks": 130056,
          "time": 92.3692258125,
          "velocity": 0.30708661417322836
        },
        {
          "duration": 0.0852271875000099,
          "durationTicks": 120,
          "midi": 83,
          "name": "B5",
          "ticks": 130080,
          "time": 92.38627125,
          "velocity": 0.30708661417322836
        },
        {
          "duration": 0.0852271875000099,
          "durationTicks": 120,
          "midi": 71,
          "name": "B4",
          "ticks": 130080,
          "time": 92.38627125,
          "velocity": 0.30708661417322836
        },
        {
          "duration": 0.0852271874999957,
          "durationTicks": 120,
          "midi": 69,
          "name": "A4",
          "ticks": 130176,
          "time": 92.454453,
          "velocity": 0.30708661417322836
        },
        {
          "duration": 0.0852271874999957,
          "durationTicks": 120,
          "midi": 52,
          "name": "E3",
          "ticks": 130176,
          "time": 92.454453,
          "velocity": 0.30708661417322836
        },
        {
          "duration": 0.0852271874999957,
          "durationTicks": 120,
          "midi": 52,
          "name": "E3",
          "ticks": 130176,
          "time": 92.454453,
          "velocity": 0.30708661417322836
        },
        {
          "duration": 0.0852271874999957,
          "durationTicks": 120,
          "midi": 69,
          "name": "A4",
          "ticks": 130176,
          "time": 92.454453,
          "velocity": 0.30708661417322836
        },
        {
          "duration": 0.0852271874999957,
          "durationTicks": 120,
          "midi": 48,
          "name": "C3",
          "ticks": 130176,
          "time": 92.454453,
          "velocity": 0.30708661417322836
        },
        {
          "duration": 0.0852271874999957,
          "durationTicks": 120,
          "midi": 81,
          "name": "A5",
          "ticks": 130176,
          "time": 92.454453,
          "velocity": 0.30708661417322836
        },
        {
          "duration": 0.0852271874999957,
          "durationTicks": 120,
          "midi": 48,
          "name": "C3",
          "ticks": 130176,
          "time": 92.454453,
          "velocity": 0.30708661417322836
        },
        {
          "duration": 0.0852271874999957,
          "durationTicks": 120,
          "midi": 81,
          "name": "A5",
          "ticks": 130176,
          "time": 92.454453,
          "velocity": 0.30708661417322836
        },
        {
          "duration": 0.0852271874999957,
          "durationTicks": 120,
          "midi": 52,
          "name": "E3",
          "ticks": 130200,
          "time": 92.4714984375,
          "velocity": 0.30708661417322836
        },
        {
          "duration": 0.0852271874999957,
          "durationTicks": 120,
          "midi": 81,
          "name": "A5",
          "ticks": 130200,
          "time": 92.4714984375,
          "velocity": 0.30708661417322836
        },
        {
          "duration": 0.0852271874999957,
          "durationTicks": 120,
          "midi": 48,
          "name": "C3",
          "ticks": 130200,
          "time": 92.4714984375,
          "velocity": 0.30708661417322836
        },
        {
          "duration": 0.0852271874999957,
          "durationTicks": 120,
          "midi": 69,
          "name": "A4",
          "ticks": 130200,
          "time": 92.4714984375,
          "velocity": 0.30708661417322836
        },
        {
          "duration": 0.0852271874999957,
          "durationTicks": 120,
          "midi": 84,
          "name": "C6",
          "ticks": 130296,
          "time": 92.5396801875,
          "velocity": 0.30708661417322836
        },
        {
          "duration": 0.0852271874999957,
          "durationTicks": 120,
          "midi": 84,
          "name": "C6",
          "ticks": 130296,
          "time": 92.5396801875,
          "velocity": 0.30708661417322836
        },
        {
          "duration": 0.0852271874999957,
          "durationTicks": 120,
          "midi": 72,
          "name": "C5",
          "ticks": 130296,
          "time": 92.5396801875,
          "velocity": 0.30708661417322836
        },
        {
          "duration": 0.0852271874999957,
          "durationTicks": 120,
          "midi": 72,
          "name": "C5",
          "ticks": 130296,
          "time": 92.5396801875,
          "velocity": 0.30708661417322836
        },
        {
          "duration": 0.0852271874999957,
          "durationTicks": 120,
          "midi": 84,
          "name": "C6",
          "ticks": 130320,
          "time": 92.556725625,
          "velocity": 0.30708661417322836
        },
        {
          "duration": 0.0852271874999957,
          "durationTicks": 120,
          "midi": 72,
          "name": "C5",
          "ticks": 130320,
          "time": 92.556725625,
          "velocity": 0.30708661417322836
        },
        {
          "duration": 0.0852271875000099,
          "durationTicks": 120,
          "midi": 83,
          "name": "B5",
          "ticks": 130416,
          "time": 92.62490737499999,
          "velocity": 0.30708661417322836
        },
        {
          "duration": 0.0852271875000099,
          "durationTicks": 120,
          "midi": 71,
          "name": "B4",
          "ticks": 130416,
          "time": 92.62490737499999,
          "velocity": 0.30708661417322836
        },
        {
          "duration": 0.0852271875000099,
          "durationTicks": 120,
          "midi": 76,
          "name": "E5",
          "ticks": 130416,
          "time": 92.62490737499999,
          "velocity": 0.30708661417322836
        },
        {
          "duration": 0.0852271875000099,
          "durationTicks": 120,
          "midi": 80,
          "name": "G#5",
          "ticks": 130416,
          "time": 92.62490737499999,
          "velocity": 0.30708661417322836
        },
        {
          "duration": 0.0852271875000099,
          "durationTicks": 120,
          "midi": 47,
          "name": "B2",
          "ticks": 130416,
          "time": 92.62490737499999,
          "velocity": 0.30708661417322836
        },
        {
          "duration": 0.0852271875000099,
          "durationTicks": 120,
          "midi": 47,
          "name": "B2",
          "ticks": 130416,
          "time": 92.62490737499999,
          "velocity": 0.30708661417322836
        },
        {
          "duration": 0.0852271875000099,
          "durationTicks": 120,
          "midi": 71,
          "name": "B4",
          "ticks": 130416,
          "time": 92.62490737499999,
          "velocity": 0.30708661417322836
        },
        {
          "duration": 0.0852271875000099,
          "durationTicks": 120,
          "midi": 83,
          "name": "B5",
          "ticks": 130416,
          "time": 92.62490737499999,
          "velocity": 0.30708661417322836
        },
        {
          "duration": 0.0852271875000099,
          "durationTicks": 120,
          "midi": 80,
          "name": "G#5",
          "ticks": 130416,
          "time": 92.62490737499999,
          "velocity": 0.30708661417322836
        },
        {
          "duration": 0.0852271875000099,
          "durationTicks": 120,
          "midi": 76,
          "name": "E5",
          "ticks": 130416,
          "time": 92.62490737499999,
          "velocity": 0.30708661417322836
        },
        {
          "duration": 0.0852271875000099,
          "durationTicks": 120,
          "midi": 83,
          "name": "B5",
          "ticks": 130440,
          "time": 92.6419528125,
          "velocity": 0.30708661417322836
        },
        {
          "duration": 0.0852271875000099,
          "durationTicks": 120,
          "midi": 71,
          "name": "B4",
          "ticks": 130440,
          "time": 92.6419528125,
          "velocity": 0.30708661417322836
        },
        {
          "duration": 0.0852271875000099,
          "durationTicks": 120,
          "midi": 80,
          "name": "G#5",
          "ticks": 130440,
          "time": 92.6419528125,
          "velocity": 0.30708661417322836
        },
        {
          "duration": 0.0852271875000099,
          "durationTicks": 120,
          "midi": 76,
          "name": "E5",
          "ticks": 130440,
          "time": 92.6419528125,
          "velocity": 0.30708661417322836
        },
        {
          "duration": 0.0852271875000099,
          "durationTicks": 120,
          "midi": 47,
          "name": "B2",
          "ticks": 130440,
          "time": 92.6419528125,
          "velocity": 0.30708661417322836
        },
        {
          "duration": 0.0852271874999957,
          "durationTicks": 120,
          "midi": 76,
          "name": "E5",
          "ticks": 130536,
          "time": 92.7101345625,
          "velocity": 0.30708661417322836
        },
        {
          "duration": 0.0852271874999957,
          "durationTicks": 120,
          "midi": 83,
          "name": "B5",
          "ticks": 130536,
          "time": 92.7101345625,
          "velocity": 0.30708661417322836
        },
        {
          "duration": 0.0852271874999957,
          "durationTicks": 120,
          "midi": 80,
          "name": "G#5",
          "ticks": 130536,
          "time": 92.7101345625,
          "velocity": 0.30708661417322836
        },
        {
          "duration": 0.0852271874999957,
          "durationTicks": 120,
          "midi": 76,
          "name": "E5",
          "ticks": 130536,
          "time": 92.7101345625,
          "velocity": 0.30708661417322836
        },
        {
          "duration": 0.0852271874999957,
          "durationTicks": 120,
          "midi": 71,
          "name": "B4",
          "ticks": 130536,
          "time": 92.7101345625,
          "velocity": 0.30708661417322836
        },
        {
          "duration": 0.0852271874999957,
          "durationTicks": 120,
          "midi": 83,
          "name": "B5",
          "ticks": 130536,
          "time": 92.7101345625,
          "velocity": 0.30708661417322836
        },
        {
          "duration": 0.0852271874999957,
          "durationTicks": 120,
          "midi": 80,
          "name": "G#5",
          "ticks": 130536,
          "time": 92.7101345625,
          "velocity": 0.30708661417322836
        },
        {
          "duration": 0.0852271874999957,
          "durationTicks": 120,
          "midi": 71,
          "name": "B4",
          "ticks": 130536,
          "time": 92.7101345625,
          "velocity": 0.30708661417322836
        },
        {
          "duration": 0.0852271874999957,
          "durationTicks": 120,
          "midi": 83,
          "name": "B5",
          "ticks": 130560,
          "time": 92.72718,
          "velocity": 0.30708661417322836
        },
        {
          "duration": 0.0852271874999957,
          "durationTicks": 120,
          "midi": 76,
          "name": "E5",
          "ticks": 130560,
          "time": 92.72718,
          "velocity": 0.30708661417322836
        },
        {
          "duration": 0.0852271874999957,
          "durationTicks": 120,
          "midi": 80,
          "name": "G#5",
          "ticks": 130560,
          "time": 92.72718,
          "velocity": 0.30708661417322836
        },
        {
          "duration": 0.0852271874999957,
          "durationTicks": 120,
          "midi": 71,
          "name": "B4",
          "ticks": 130560,
          "time": 92.72718,
          "velocity": 0.30708661417322836
        },
        {
          "duration": 0.0852271874999957,
          "durationTicks": 120,
          "midi": 83,
          "name": "B5",
          "ticks": 130656,
          "time": 92.79536175,
          "velocity": 0.30708661417322836
        },
        {
          "duration": 0.0852271874999957,
          "durationTicks": 120,
          "midi": 76,
          "name": "E5",
          "ticks": 130656,
          "time": 92.79536175,
          "velocity": 0.30708661417322836
        },
        {
          "duration": 0.0852271874999957,
          "durationTicks": 120,
          "midi": 59,
          "name": "B3",
          "ticks": 130656,
          "time": 92.79536175,
          "velocity": 0.30708661417322836
        },
        {
          "duration": 0.0852271874999957,
          "durationTicks": 120,
          "midi": 76,
          "name": "E5",
          "ticks": 130656,
          "time": 92.79536175,
          "velocity": 0.30708661417322836
        },
        {
          "duration": 0.0852271874999957,
          "durationTicks": 120,
          "midi": 80,
          "name": "G#5",
          "ticks": 130656,
          "time": 92.79536175,
          "velocity": 0.30708661417322836
        },
        {
          "duration": 0.0852271874999957,
          "durationTicks": 120,
          "midi": 71,
          "name": "B4",
          "ticks": 130656,
          "time": 92.79536175,
          "velocity": 0.30708661417322836
        },
        {
          "duration": 0.0852271874999957,
          "durationTicks": 120,
          "midi": 51,
          "name": "D#3",
          "ticks": 130656,
          "time": 92.79536175,
          "velocity": 0.30708661417322836
        },
        {
          "duration": 0.0852271874999957,
          "durationTicks": 120,
          "midi": 83,
          "name": "B5",
          "ticks": 130656,
          "time": 92.79536175,
          "velocity": 0.30708661417322836
        },
        {
          "duration": 0.0852271874999957,
          "durationTicks": 120,
          "midi": 51,
          "name": "D#3",
          "ticks": 130656,
          "time": 92.79536175,
          "velocity": 0.30708661417322836
        },
        {
          "duration": 0.0852271874999957,
          "durationTicks": 120,
          "midi": 71,
          "name": "B4",
          "ticks": 130656,
          "time": 92.79536175,
          "velocity": 0.30708661417322836
        },
        {
          "duration": 0.0852271874999957,
          "durationTicks": 120,
          "midi": 80,
          "name": "G#5",
          "ticks": 130656,
          "time": 92.79536175,
          "velocity": 0.30708661417322836
        },
        {
          "duration": 0.0852271874999957,
          "durationTicks": 120,
          "midi": 59,
          "name": "B3",
          "ticks": 130656,
          "time": 92.79536175,
          "velocity": 0.30708661417322836
        },
        {
          "duration": 0.0852271874999957,
          "durationTicks": 120,
          "midi": 71,
          "name": "B4",
          "ticks": 130680,
          "time": 92.8124071875,
          "velocity": 0.30708661417322836
        },
        {
          "duration": 0.0852271874999957,
          "durationTicks": 120,
          "midi": 83,
          "name": "B5",
          "ticks": 130680,
          "time": 92.8124071875,
          "velocity": 0.30708661417322836
        },
        {
          "duration": 0.0852271874999957,
          "durationTicks": 120,
          "midi": 51,
          "name": "D#3",
          "ticks": 130680,
          "time": 92.8124071875,
          "velocity": 0.30708661417322836
        },
        {
          "duration": 0.0852271874999957,
          "durationTicks": 120,
          "midi": 59,
          "name": "B3",
          "ticks": 130680,
          "time": 92.8124071875,
          "velocity": 0.30708661417322836
        },
        {
          "duration": 0.0852271874999957,
          "durationTicks": 120,
          "midi": 76,
          "name": "E5",
          "ticks": 130680,
          "time": 92.8124071875,
          "velocity": 0.30708661417322836
        },
        {
          "duration": 0.0852271874999957,
          "durationTicks": 120,
          "midi": 80,
          "name": "G#5",
          "ticks": 130680,
          "time": 92.8124071875,
          "velocity": 0.30708661417322836
        },
        {
          "duration": 0.0852271875000099,
          "durationTicks": 120,
          "midi": 80,
          "name": "G#5",
          "ticks": 130776,
          "time": 92.8805889375,
          "velocity": 0.30708661417322836
        },
        {
          "duration": 0.0852271875000099,
          "durationTicks": 120,
          "midi": 71,
          "name": "B4",
          "ticks": 130776,
          "time": 92.8805889375,
          "velocity": 0.30708661417322836
        },
        {
          "duration": 0.0852271875000099,
          "durationTicks": 120,
          "midi": 80,
          "name": "G#5",
          "ticks": 130776,
          "time": 92.8805889375,
          "velocity": 0.30708661417322836
        },
        {
          "duration": 0.0852271875000099,
          "durationTicks": 120,
          "midi": 76,
          "name": "E5",
          "ticks": 130776,
          "time": 92.8805889375,
          "velocity": 0.30708661417322836
        },
        {
          "duration": 0.0852271875000099,
          "durationTicks": 120,
          "midi": 76,
          "name": "E5",
          "ticks": 130776,
          "time": 92.8805889375,
          "velocity": 0.30708661417322836
        },
        {
          "duration": 0.0852271875000099,
          "durationTicks": 120,
          "midi": 83,
          "name": "B5",
          "ticks": 130776,
          "time": 92.8805889375,
          "velocity": 0.30708661417322836
        },
        {
          "duration": 0.0852271875000099,
          "durationTicks": 120,
          "midi": 83,
          "name": "B5",
          "ticks": 130776,
          "time": 92.8805889375,
          "velocity": 0.30708661417322836
        },
        {
          "duration": 0.0852271875000099,
          "durationTicks": 120,
          "midi": 71,
          "name": "B4",
          "ticks": 130776,
          "time": 92.8805889375,
          "velocity": 0.30708661417322836
        },
        {
          "duration": 0.0852271875000099,
          "durationTicks": 120,
          "midi": 71,
          "name": "B4",
          "ticks": 130800,
          "time": 92.897634375,
          "velocity": 0.30708661417322836
        },
        {
          "duration": 0.0852271875000099,
          "durationTicks": 120,
          "midi": 76,
          "name": "E5",
          "ticks": 130800,
          "time": 92.897634375,
          "velocity": 0.30708661417322836
        },
        {
          "duration": 0.0852271875000099,
          "durationTicks": 120,
          "midi": 80,
          "name": "G#5",
          "ticks": 130800,
          "time": 92.897634375,
          "velocity": 0.30708661417322836
        },
        {
          "duration": 0.0852271875000099,
          "durationTicks": 120,
          "midi": 83,
          "name": "B5",
          "ticks": 130800,
          "time": 92.897634375,
          "velocity": 0.30708661417322836
        },
        {
          "duration": 0.0852271874999957,
          "durationTicks": 120,
          "midi": 78,
          "name": "F#5",
          "ticks": 130896,
          "time": 92.965816125,
          "velocity": 0.30708661417322836
        },
        {
          "duration": 0.0852271874999957,
          "durationTicks": 120,
          "midi": 42,
          "name": "F#2",
          "ticks": 130896,
          "time": 92.965816125,
          "velocity": 0.30708661417322836
        },
        {
          "duration": 0.0852271874999957,
          "durationTicks": 120,
          "midi": 74,
          "name": "D5",
          "ticks": 130896,
          "time": 92.965816125,
          "velocity": 0.30708661417322836
        },
        {
          "duration": 0.0852271874999957,
          "durationTicks": 120,
          "midi": 66,
          "name": "F#4",
          "ticks": 130896,
          "time": 92.965816125,
          "velocity": 0.30708661417322836
        },
        {
          "duration": 0.0852271874999957,
          "durationTicks": 120,
          "midi": 69,
          "name": "A4",
          "ticks": 130896,
          "time": 92.965816125,
          "velocity": 0.30708661417322836
        },
        {
          "duration": 0.0852271874999957,
          "durationTicks": 120,
          "midi": 42,
          "name": "F#2",
          "ticks": 130896,
          "time": 92.965816125,
          "velocity": 0.30708661417322836
        },
        {
          "duration": 0.0852271874999957,
          "durationTicks": 120,
          "midi": 78,
          "name": "F#5",
          "ticks": 130896,
          "time": 92.965816125,
          "velocity": 0.30708661417322836
        },
        {
          "duration": 0.0852271874999957,
          "durationTicks": 120,
          "midi": 74,
          "name": "D5",
          "ticks": 130896,
          "time": 92.965816125,
          "velocity": 0.30708661417322836
        },
        {
          "duration": 0.0852271874999957,
          "durationTicks": 120,
          "midi": 66,
          "name": "F#4",
          "ticks": 130896,
          "time": 92.965816125,
          "velocity": 0.30708661417322836
        },
        {
          "duration": 0.0852271874999957,
          "durationTicks": 120,
          "midi": 69,
          "name": "A4",
          "ticks": 130896,
          "time": 92.965816125,
          "velocity": 0.30708661417322836
        },
        {
          "duration": 0.0852271874999957,
          "durationTicks": 120,
          "midi": 42,
          "name": "F#2",
          "ticks": 130920,
          "time": 92.9828615625,
          "velocity": 0.30708661417322836
        },
        {
          "duration": 0.0852271874999957,
          "durationTicks": 120,
          "midi": 74,
          "name": "D5",
          "ticks": 130920,
          "time": 92.9828615625,
          "velocity": 0.30708661417322836
        },
        {
          "duration": 0.0852271874999957,
          "durationTicks": 120,
          "midi": 66,
          "name": "F#4",
          "ticks": 130920,
          "time": 92.9828615625,
          "velocity": 0.30708661417322836
        },
        {
          "duration": 0.0852271874999957,
          "durationTicks": 120,
          "midi": 78,
          "name": "F#5",
          "ticks": 130920,
          "time": 92.9828615625,
          "velocity": 0.30708661417322836
        },
        {
          "duration": 0.0852271874999957,
          "durationTicks": 120,
          "midi": 69,
          "name": "A4",
          "ticks": 130920,
          "time": 92.9828615625,
          "velocity": 0.30708661417322836
        },
        {
          "duration": 0.0852271875000099,
          "durationTicks": 120,
          "midi": 59,
          "name": "B3",
          "ticks": 131136,
          "time": 93.1362705,
          "velocity": 0.30708661417322836
        },
        {
          "duration": 0.0852271875000099,
          "durationTicks": 120,
          "midi": 78,
          "name": "F#5",
          "ticks": 131136,
          "time": 93.1362705,
          "velocity": 0.30708661417322836
        },
        {
          "duration": 0.0852271875000099,
          "durationTicks": 120,
          "midi": 59,
          "name": "B3",
          "ticks": 131136,
          "time": 93.1362705,
          "velocity": 0.30708661417322836
        },
        {
          "duration": 0.0852271875000099,
          "durationTicks": 120,
          "midi": 51,
          "name": "D#3",
          "ticks": 131136,
          "time": 93.1362705,
          "velocity": 0.30708661417322836
        },
        {
          "duration": 0.0852271875000099,
          "durationTicks": 120,
          "midi": 83,
          "name": "B5",
          "ticks": 131136,
          "time": 93.1362705,
          "velocity": 0.30708661417322836
        },
        {
          "duration": 0.0852271875000099,
          "durationTicks": 120,
          "midi": 71,
          "name": "B4",
          "ticks": 131136,
          "time": 93.1362705,
          "velocity": 0.30708661417322836
        },
        {
          "duration": 0.0852271875000099,
          "durationTicks": 120,
          "midi": 71,
          "name": "B4",
          "ticks": 131136,
          "time": 93.1362705,
          "velocity": 0.30708661417322836
        },
        {
          "duration": 0.0852271875000099,
          "durationTicks": 120,
          "midi": 74,
          "name": "D5",
          "ticks": 131136,
          "time": 93.1362705,
          "velocity": 0.30708661417322836
        },
        {
          "duration": 0.0852271875000099,
          "durationTicks": 120,
          "midi": 74,
          "name": "D5",
          "ticks": 131136,
          "time": 93.1362705,
          "velocity": 0.30708661417322836
        },
        {
          "duration": 0.0852271875000099,
          "durationTicks": 120,
          "midi": 51,
          "name": "D#3",
          "ticks": 131136,
          "time": 93.1362705,
          "velocity": 0.30708661417322836
        },
        {
          "duration": 0.0852271875000099,
          "durationTicks": 120,
          "midi": 78,
          "name": "F#5",
          "ticks": 131136,
          "time": 93.1362705,
          "velocity": 0.30708661417322836
        },
        {
          "duration": 0.0852271875000099,
          "durationTicks": 120,
          "midi": 83,
          "name": "B5",
          "ticks": 131136,
          "time": 93.1362705,
          "velocity": 0.30708661417322836
        },
        {
          "duration": 0.0852271874999957,
          "durationTicks": 120,
          "midi": 74,
          "name": "D5",
          "ticks": 131160,
          "time": 93.1533159375,
          "velocity": 0.30708661417322836
        },
        {
          "duration": 0.0852271874999957,
          "durationTicks": 120,
          "midi": 59,
          "name": "B3",
          "ticks": 131160,
          "time": 93.1533159375,
          "velocity": 0.30708661417322836
        },
        {
          "duration": 0.0852271874999957,
          "durationTicks": 120,
          "midi": 71,
          "name": "B4",
          "ticks": 131160,
          "time": 93.1533159375,
          "velocity": 0.30708661417322836
        },
        {
          "duration": 0.0852271874999957,
          "durationTicks": 120,
          "midi": 83,
          "name": "B5",
          "ticks": 131160,
          "time": 93.1533159375,
          "velocity": 0.30708661417322836
        },
        {
          "duration": 0.0852271874999957,
          "durationTicks": 120,
          "midi": 78,
          "name": "F#5",
          "ticks": 131160,
          "time": 93.1533159375,
          "velocity": 0.30708661417322836
        },
        {
          "duration": 0.0852271874999957,
          "durationTicks": 120,
          "midi": 51,
          "name": "D#3",
          "ticks": 131160,
          "time": 93.1533159375,
          "velocity": 0.30708661417322836
        },
        {
          "duration": 0.0852271874999957,
          "durationTicks": 120,
          "midi": 71,
          "name": "B4",
          "ticks": 131376,
          "time": 93.306724875,
          "velocity": 0.30708661417322836
        },
        {
          "duration": 0.0852271874999957,
          "durationTicks": 120,
          "midi": 68,
          "name": "G#4",
          "ticks": 131376,
          "time": 93.306724875,
          "velocity": 0.30708661417322836
        },
        {
          "duration": 0.0852271874999957,
          "durationTicks": 120,
          "midi": 47,
          "name": "B2",
          "ticks": 131376,
          "time": 93.306724875,
          "velocity": 0.30708661417322836
        },
        {
          "duration": 0.0852271874999957,
          "durationTicks": 120,
          "midi": 80,
          "name": "G#5",
          "ticks": 131376,
          "time": 93.306724875,
          "velocity": 0.30708661417322836
        },
        {
          "duration": 0.0852271874999957,
          "durationTicks": 120,
          "midi": 68,
          "name": "G#4",
          "ticks": 131376,
          "time": 93.306724875,
          "velocity": 0.30708661417322836
        },
        {
          "duration": 0.0852271874999957,
          "durationTicks": 120,
          "midi": 56,
          "name": "G#3",
          "ticks": 131376,
          "time": 93.306724875,
          "velocity": 0.30708661417322836
        },
        {
          "duration": 0.0852271874999957,
          "durationTicks": 120,
          "midi": 76,
          "name": "E5",
          "ticks": 131376,
          "time": 93.306724875,
          "velocity": 0.30708661417322836
        },
        {
          "duration": 0.0852271874999957,
          "durationTicks": 120,
          "midi": 47,
          "name": "B2",
          "ticks": 131376,
          "time": 93.306724875,
          "velocity": 0.30708661417322836
        },
        {
          "duration": 0.0852271874999957,
          "durationTicks": 120,
          "midi": 56,
          "name": "G#3",
          "ticks": 131376,
          "time": 93.306724875,
          "velocity": 0.30708661417322836
        },
        {
          "duration": 0.0852271874999957,
          "durationTicks": 120,
          "midi": 52,
          "name": "E3",
          "ticks": 131376,
          "time": 93.306724875,
          "velocity": 0.30708661417322836
        },
        {
          "duration": 0.0852271874999957,
          "durationTicks": 120,
          "midi": 71,
          "name": "B4",
          "ticks": 131376,
          "time": 93.306724875,
          "velocity": 0.30708661417322836
        },
        {
          "duration": 0.0852271874999957,
          "durationTicks": 120,
          "midi": 76,
          "name": "E5",
          "ticks": 131376,
          "time": 93.306724875,
          "velocity": 0.30708661417322836
        },
        {
          "duration": 0.0852271874999957,
          "durationTicks": 120,
          "midi": 52,
          "name": "E3",
          "ticks": 131376,
          "time": 93.306724875,
          "velocity": 0.30708661417322836
        },
        {
          "duration": 0.0852271874999957,
          "durationTicks": 120,
          "midi": 80,
          "name": "G#5",
          "ticks": 131376,
          "time": 93.306724875,
          "velocity": 0.30708661417322836
        },
        {
          "duration": 0.0852271874999957,
          "durationTicks": 120,
          "midi": 47,
          "name": "B2",
          "ticks": 131400,
          "time": 93.3237703125,
          "velocity": 0.30708661417322836
        },
        {
          "duration": 0.0852271874999957,
          "durationTicks": 120,
          "midi": 71,
          "name": "B4",
          "ticks": 131400,
          "time": 93.3237703125,
          "velocity": 0.30708661417322836
        },
        {
          "duration": 0.0852271874999957,
          "durationTicks": 120,
          "midi": 76,
          "name": "E5",
          "ticks": 131400,
          "time": 93.3237703125,
          "velocity": 0.30708661417322836
        },
        {
          "duration": 0.0852271874999957,
          "durationTicks": 120,
          "midi": 80,
          "name": "G#5",
          "ticks": 131400,
          "time": 93.3237703125,
          "velocity": 0.30708661417322836
        },
        {
          "duration": 0.0852271874999957,
          "durationTicks": 120,
          "midi": 56,
          "name": "G#3",
          "ticks": 131400,
          "time": 93.3237703125,
          "velocity": 0.30708661417322836
        },
        {
          "duration": 0.0852271874999957,
          "durationTicks": 120,
          "midi": 52,
          "name": "E3",
          "ticks": 131400,
          "time": 93.3237703125,
          "velocity": 0.30708661417322836
        },
        {
          "duration": 0.0852271874999957,
          "durationTicks": 120,
          "midi": 68,
          "name": "G#4",
          "ticks": 131400,
          "time": 93.3237703125,
          "velocity": 0.30708661417322836
        },
        {
          "duration": 0.28977243750000525,
          "durationTicks": 408,
          "midi": 52,
          "name": "E3",
          "ticks": 131856,
          "time": 93.647633625,
          "velocity": 0.30708661417322836
        },
        {
          "duration": 0.4261359375000069,
          "durationTicks": 600,
          "midi": 28,
          "name": "E1",
          "ticks": 131856,
          "time": 93.647633625,
          "velocity": 0.30708661417322836
        },
        {
          "duration": 0.4261359375000069,
          "durationTicks": 600,
          "midi": 28,
          "name": "E1",
          "ticks": 131856,
          "time": 93.647633625,
          "velocity": 0.30708661417322836
        },
        {
          "duration": 0.28977243750000525,
          "durationTicks": 408,
          "midi": 40,
          "name": "E2",
          "ticks": 131856,
          "time": 93.647633625,
          "velocity": 0.30708661417322836
        },
        {
          "duration": 0.28977243750000525,
          "durationTicks": 408,
          "midi": 52,
          "name": "E3",
          "ticks": 131856,
          "time": 93.647633625,
          "velocity": 0.30708661417322836
        },
        {
          "duration": 0.28977243750000525,
          "durationTicks": 408,
          "midi": 40,
          "name": "E2",
          "ticks": 131856,
          "time": 93.647633625,
          "velocity": 0.30708661417322836
        },
        {
          "duration": 0.28977243750000525,
          "durationTicks": 408,
          "midi": 40,
          "name": "E2",
          "ticks": 131880,
          "time": 93.6646790625,
          "velocity": 0.30708661417322836
        },
        {
          "duration": 0.4261359374999927,
          "durationTicks": 600,
          "midi": 28,
          "name": "E1",
          "ticks": 131880,
          "time": 93.6646790625,
          "velocity": 0.30708661417322836
        },
        {
          "duration": 0.28977243750000525,
          "durationTicks": 408,
          "midi": 52,
          "name": "E3",
          "ticks": 131880,
          "time": 93.6646790625,
          "velocity": 0.30708661417322836
        },
        {
          "duration": 0.15340893750000362,
          "durationTicks": 216,
          "midi": 42,
          "name": "F#2",
          "ticks": 132192,
          "time": 93.88626975,
          "velocity": 0.30708661417322836
        },
        {
          "duration": 0.15340893750000362,
          "durationTicks": 216,
          "midi": 54,
          "name": "F#3",
          "ticks": 132192,
          "time": 93.88626975,
          "velocity": 0.30708661417322836
        },
        {
          "duration": 0.15340893750000362,
          "durationTicks": 216,
          "midi": 54,
          "name": "F#3",
          "ticks": 132192,
          "time": 93.88626975,
          "velocity": 0.30708661417322836
        },
        {
          "duration": 0.15340893750000362,
          "durationTicks": 216,
          "midi": 42,
          "name": "F#2",
          "ticks": 132192,
          "time": 93.88626975,
          "velocity": 0.30708661417322836
        },
        {
          "duration": 0.15340893750000362,
          "durationTicks": 216,
          "midi": 54,
          "name": "F#3",
          "ticks": 132216,
          "time": 93.9033151875,
          "velocity": 0.30708661417322836
        },
        {
          "duration": 0.15340893750000362,
          "durationTicks": 216,
          "midi": 42,
          "name": "F#2",
          "ticks": 132216,
          "time": 93.9033151875,
          "velocity": 0.30708661417322836
        },
        {
          "duration": 0.1534089374999894,
          "durationTicks": 216,
          "midi": 44,
          "name": "G#2",
          "ticks": 132288,
          "time": 93.9544515,
          "velocity": 0.30708661417322836
        },
        {
          "duration": 0.1534089374999894,
          "durationTicks": 216,
          "midi": 44,
          "name": "G#2",
          "ticks": 132288,
          "time": 93.9544515,
          "velocity": 0.30708661417322836
        },
        {
          "duration": 0.1534089374999894,
          "durationTicks": 216,
          "midi": 56,
          "name": "G#3",
          "ticks": 132288,
          "time": 93.9544515,
          "velocity": 0.30708661417322836
        },
        {
          "duration": 0.28977243749999104,
          "durationTicks": 408,
          "midi": 32,
          "name": "G#1",
          "ticks": 132288,
          "time": 93.9544515,
          "velocity": 0.30708661417322836
        },
        {
          "duration": 0.28977243749999104,
          "durationTicks": 408,
          "midi": 32,
          "name": "G#1",
          "ticks": 132288,
          "time": 93.9544515,
          "velocity": 0.30708661417322836
        },
        {
          "duration": 0.1534089374999894,
          "durationTicks": 216,
          "midi": 56,
          "name": "G#3",
          "ticks": 132288,
          "time": 93.9544515,
          "velocity": 0.30708661417322836
        },
        {
          "duration": 0.28977243750000525,
          "durationTicks": 408,
          "midi": 32,
          "name": "G#1",
          "ticks": 132312,
          "time": 93.97149693749999,
          "velocity": 0.30708661417322836
        },
        {
          "duration": 0.15340893750000362,
          "durationTicks": 216,
          "midi": 56,
          "name": "G#3",
          "ticks": 132312,
          "time": 93.97149693749999,
          "velocity": 0.30708661417322836
        },
        {
          "duration": 0.15340893750000362,
          "durationTicks": 216,
          "midi": 44,
          "name": "G#2",
          "ticks": 132312,
          "time": 93.97149693749999,
          "velocity": 0.30708661417322836
        },
        {
          "duration": 0.0852271874999957,
          "durationTicks": 120,
          "midi": 76,
          "name": "E5",
          "ticks": 132384,
          "time": 94.02263325,
          "velocity": 0.30708661417322836
        },
        {
          "duration": 0.0852271874999957,
          "durationTicks": 120,
          "midi": 64,
          "name": "E4",
          "ticks": 132384,
          "time": 94.02263325,
          "velocity": 0.30708661417322836
        },
        {
          "duration": 0.0852271874999957,
          "durationTicks": 120,
          "midi": 69,
          "name": "A4",
          "ticks": 132384,
          "time": 94.02263325,
          "velocity": 0.30708661417322836
        },
        {
          "duration": 0.0852271874999957,
          "durationTicks": 120,
          "midi": 72,
          "name": "C5",
          "ticks": 132384,
          "time": 94.02263325,
          "velocity": 0.30708661417322836
        },
        {
          "duration": 0.0852271874999957,
          "durationTicks": 120,
          "midi": 45,
          "name": "A2",
          "ticks": 132384,
          "time": 94.02263325,
          "velocity": 0.30708661417322836
        },
        {
          "duration": 0.0852271874999957,
          "durationTicks": 120,
          "midi": 69,
          "name": "A4",
          "ticks": 132384,
          "time": 94.02263325,
          "velocity": 0.30708661417322836
        },
        {
          "duration": 0.0852271874999957,
          "durationTicks": 120,
          "midi": 76,
          "name": "E5",
          "ticks": 132384,
          "time": 94.02263325,
          "velocity": 0.30708661417322836
        },
        {
          "duration": 0.0852271874999957,
          "durationTicks": 120,
          "midi": 45,
          "name": "A2",
          "ticks": 132384,
          "time": 94.02263325,
          "velocity": 0.30708661417322836
        },
        {
          "duration": 0.0852271874999957,
          "durationTicks": 120,
          "midi": 72,
          "name": "C5",
          "ticks": 132384,
          "time": 94.02263325,
          "velocity": 0.30708661417322836
        },
        {
          "duration": 0.0852271874999957,
          "durationTicks": 120,
          "midi": 64,
          "name": "E4",
          "ticks": 132384,
          "time": 94.02263325,
          "velocity": 0.30708661417322836
        },
        {
          "duration": 0.0852271874999957,
          "durationTicks": 120,
          "midi": 72,
          "name": "C5",
          "ticks": 132408,
          "time": 94.0396786875,
          "velocity": 0.30708661417322836
        },
        {
          "duration": 0.0852271874999957,
          "durationTicks": 120,
          "midi": 45,
          "name": "A2",
          "ticks": 132408,
          "time": 94.0396786875,
          "velocity": 0.30708661417322836
        },
        {
          "duration": 0.0852271874999957,
          "durationTicks": 120,
          "midi": 64,
          "name": "E4",
          "ticks": 132408,
          "time": 94.0396786875,
          "velocity": 0.30708661417322836
        },
        {
          "duration": 0.0852271874999957,
          "durationTicks": 120,
          "midi": 69,
          "name": "A4",
          "ticks": 132408,
          "time": 94.0396786875,
          "velocity": 0.30708661417322836
        },
        {
          "duration": 0.0852271874999957,
          "durationTicks": 120,
          "midi": 76,
          "name": "E5",
          "ticks": 132408,
          "time": 94.0396786875,
          "velocity": 0.30708661417322836
        },
        {
          "duration": 0.0852271875000099,
          "durationTicks": 120,
          "midi": 76,
          "name": "E5",
          "ticks": 132504,
          "time": 94.1078604375,
          "velocity": 0.30708661417322836
        },
        {
          "duration": 0.0852271875000099,
          "durationTicks": 120,
          "midi": 76,
          "name": "E5",
          "ticks": 132504,
          "time": 94.1078604375,
          "velocity": 0.30708661417322836
        },
        {
          "duration": 0.0852271875000099,
          "durationTicks": 120,
          "midi": 69,
          "name": "A4",
          "ticks": 132504,
          "time": 94.1078604375,
          "velocity": 0.30708661417322836
        },
        {
          "duration": 0.0852271875000099,
          "durationTicks": 120,
          "midi": 72,
          "name": "C5",
          "ticks": 132504,
          "time": 94.1078604375,
          "velocity": 0.30708661417322836
        },
        {
          "duration": 0.0852271875000099,
          "durationTicks": 120,
          "midi": 69,
          "name": "A4",
          "ticks": 132504,
          "time": 94.1078604375,
          "velocity": 0.30708661417322836
        },
        {
          "duration": 0.0852271875000099,
          "durationTicks": 120,
          "midi": 64,
          "name": "E4",
          "ticks": 132504,
          "time": 94.1078604375,
          "velocity": 0.30708661417322836
        },
        {
          "duration": 0.0852271875000099,
          "durationTicks": 120,
          "midi": 72,
          "name": "C5",
          "ticks": 132504,
          "time": 94.1078604375,
          "velocity": 0.30708661417322836
        },
        {
          "duration": 0.0852271875000099,
          "durationTicks": 120,
          "midi": 64,
          "name": "E4",
          "ticks": 132504,
          "time": 94.1078604375,
          "velocity": 0.30708661417322836
        },
        {
          "duration": 0.0852271875000099,
          "durationTicks": 120,
          "midi": 76,
          "name": "E5",
          "ticks": 132528,
          "time": 94.124905875,
          "velocity": 0.30708661417322836
        },
        {
          "duration": 0.0852271875000099,
          "durationTicks": 120,
          "midi": 69,
          "name": "A4",
          "ticks": 132528,
          "time": 94.124905875,
          "velocity": 0.30708661417322836
        },
        {
          "duration": 0.0852271875000099,
          "durationTicks": 120,
          "midi": 64,
          "name": "E4",
          "ticks": 132528,
          "time": 94.124905875,
          "velocity": 0.30708661417322836
        },
        {
          "duration": 0.0852271875000099,
          "durationTicks": 120,
          "midi": 72,
          "name": "C5",
          "ticks": 132528,
          "time": 94.124905875,
          "velocity": 0.30708661417322836
        },
        {
          "duration": 0.0852271874999957,
          "durationTicks": 120,
          "midi": 76,
          "name": "E5",
          "ticks": 132624,
          "time": 94.193087625,
          "velocity": 0.30708661417322836
        },
        {
          "duration": 0.0852271874999957,
          "durationTicks": 120,
          "midi": 64,
          "name": "E4",
          "ticks": 132624,
          "time": 94.193087625,
          "velocity": 0.30708661417322836
        },
        {
          "duration": 0.0852271874999957,
          "durationTicks": 120,
          "midi": 48,
          "name": "C3",
          "ticks": 132624,
          "time": 94.193087625,
          "velocity": 0.30708661417322836
        },
        {
          "duration": 0.0852271874999957,
          "durationTicks": 120,
          "midi": 76,
          "name": "E5",
          "ticks": 132624,
          "time": 94.193087625,
          "velocity": 0.30708661417322836
        },
        {
          "duration": 0.0852271874999957,
          "durationTicks": 120,
          "midi": 64,
          "name": "E4",
          "ticks": 132624,
          "time": 94.193087625,
          "velocity": 0.30708661417322836
        },
        {
          "duration": 0.0852271874999957,
          "durationTicks": 120,
          "midi": 52,
          "name": "E3",
          "ticks": 132624,
          "time": 94.193087625,
          "velocity": 0.30708661417322836
        },
        {
          "duration": 0.0852271874999957,
          "durationTicks": 120,
          "midi": 72,
          "name": "C5",
          "ticks": 132624,
          "time": 94.193087625,
          "velocity": 0.30708661417322836
        },
        {
          "duration": 0.0852271874999957,
          "durationTicks": 120,
          "midi": 52,
          "name": "E3",
          "ticks": 132624,
          "time": 94.193087625,
          "velocity": 0.30708661417322836
        },
        {
          "duration": 0.0852271874999957,
          "durationTicks": 120,
          "midi": 69,
          "name": "A4",
          "ticks": 132624,
          "time": 94.193087625,
          "velocity": 0.30708661417322836
        },
        {
          "duration": 0.0852271874999957,
          "durationTicks": 120,
          "midi": 48,
          "name": "C3",
          "ticks": 132624,
          "time": 94.193087625,
          "velocity": 0.30708661417322836
        },
        {
          "duration": 0.0852271874999957,
          "durationTicks": 120,
          "midi": 69,
          "name": "A4",
          "ticks": 132624,
          "time": 94.193087625,
          "velocity": 0.30708661417322836
        },
        {
          "duration": 0.0852271874999957,
          "durationTicks": 120,
          "midi": 72,
          "name": "C5",
          "ticks": 132624,
          "time": 94.193087625,
          "velocity": 0.30708661417322836
        },
        {
          "duration": 0.0852271874999957,
          "durationTicks": 120,
          "midi": 76,
          "name": "E5",
          "ticks": 132648,
          "time": 94.2101330625,
          "velocity": 0.30708661417322836
        },
        {
          "duration": 0.0852271874999957,
          "durationTicks": 120,
          "midi": 52,
          "name": "E3",
          "ticks": 132648,
          "time": 94.2101330625,
          "velocity": 0.30708661417322836
        },
        {
          "duration": 0.0852271874999957,
          "durationTicks": 120,
          "midi": 48,
          "name": "C3",
          "ticks": 132648,
          "time": 94.2101330625,
          "velocity": 0.30708661417322836
        },
        {
          "duration": 0.0852271874999957,
          "durationTicks": 120,
          "midi": 69,
          "name": "A4",
          "ticks": 132648,
          "time": 94.2101330625,
          "velocity": 0.30708661417322836
        },
        {
          "duration": 0.0852271874999957,
          "durationTicks": 120,
          "midi": 72,
          "name": "C5",
          "ticks": 132648,
          "time": 94.2101330625,
          "velocity": 0.30708661417322836
        },
        {
          "duration": 0.0852271874999957,
          "durationTicks": 120,
          "midi": 64,
          "name": "E4",
          "ticks": 132648,
          "time": 94.2101330625,
          "velocity": 0.30708661417322836
        },
        {
          "duration": 0.0852271874999957,
          "durationTicks": 120,
          "midi": 64,
          "name": "E4",
          "ticks": 132744,
          "time": 94.2783148125,
          "velocity": 0.30708661417322836
        },
        {
          "duration": 0.0852271874999957,
          "durationTicks": 120,
          "midi": 72,
          "name": "C5",
          "ticks": 132744,
          "time": 94.2783148125,
          "velocity": 0.30708661417322836
        },
        {
          "duration": 0.0852271874999957,
          "durationTicks": 120,
          "midi": 76,
          "name": "E5",
          "ticks": 132744,
          "time": 94.2783148125,
          "velocity": 0.30708661417322836
        },
        {
          "duration": 0.0852271874999957,
          "durationTicks": 120,
          "midi": 76,
          "name": "E5",
          "ticks": 132744,
          "time": 94.2783148125,
          "velocity": 0.30708661417322836
        },
        {
          "duration": 0.0852271874999957,
          "durationTicks": 120,
          "midi": 69,
          "name": "A4",
          "ticks": 132744,
          "time": 94.2783148125,
          "velocity": 0.30708661417322836
        },
        {
          "duration": 0.0852271874999957,
          "durationTicks": 120,
          "midi": 72,
          "name": "C5",
          "ticks": 132744,
          "time": 94.2783148125,
          "velocity": 0.30708661417322836
        },
        {
          "duration": 0.0852271874999957,
          "durationTicks": 120,
          "midi": 64,
          "name": "E4",
          "ticks": 132744,
          "time": 94.2783148125,
          "velocity": 0.30708661417322836
        },
        {
          "duration": 0.0852271874999957,
          "durationTicks": 120,
          "midi": 69,
          "name": "A4",
          "ticks": 132744,
          "time": 94.2783148125,
          "velocity": 0.30708661417322836
        },
        {
          "duration": 0.0852271874999957,
          "durationTicks": 120,
          "midi": 72,
          "name": "C5",
          "ticks": 132768,
          "time": 94.29536025,
          "velocity": 0.30708661417322836
        },
        {
          "duration": 0.0852271874999957,
          "durationTicks": 120,
          "midi": 76,
          "name": "E5",
          "ticks": 132768,
          "time": 94.29536025,
          "velocity": 0.30708661417322836
        },
        {
          "duration": 0.0852271874999957,
          "durationTicks": 120,
          "midi": 69,
          "name": "A4",
          "ticks": 132768,
          "time": 94.29536025,
          "velocity": 0.30708661417322836
        },
        {
          "duration": 0.0852271874999957,
          "durationTicks": 120,
          "midi": 64,
          "name": "E4",
          "ticks": 132768,
          "time": 94.29536025,
          "velocity": 0.30708661417322836
        },
        {
          "duration": 0.0852271875000099,
          "durationTicks": 120,
          "midi": 72,
          "name": "C5",
          "ticks": 132864,
          "time": 94.363542,
          "velocity": 0.30708661417322836
        },
        {
          "duration": 0.0852271875000099,
          "durationTicks": 120,
          "midi": 76,
          "name": "E5",
          "ticks": 132864,
          "time": 94.363542,
          "velocity": 0.30708661417322836
        },
        {
          "duration": 0.0852271875000099,
          "durationTicks": 120,
          "midi": 69,
          "name": "A4",
          "ticks": 132864,
          "time": 94.363542,
          "velocity": 0.30708661417322836
        },
        {
          "duration": 0.0852271875000099,
          "durationTicks": 120,
          "midi": 64,
          "name": "E4",
          "ticks": 132864,
          "time": 94.363542,
          "velocity": 0.30708661417322836
        },
        {
          "duration": 0.0852271875000099,
          "durationTicks": 120,
          "midi": 72,
          "name": "C5",
          "ticks": 132864,
          "time": 94.363542,
          "velocity": 0.30708661417322836
        },
        {
          "duration": 0.0852271875000099,
          "durationTicks": 120,
          "midi": 69,
          "name": "A4",
          "ticks": 132864,
          "time": 94.363542,
          "velocity": 0.30708661417322836
        },
        {
          "duration": 0.0852271875000099,
          "durationTicks": 120,
          "midi": 76,
          "name": "E5",
          "ticks": 132864,
          "time": 94.363542,
          "velocity": 0.30708661417322836
        },
        {
          "duration": 0.0852271875000099,
          "durationTicks": 120,
          "midi": 40,
          "name": "E2",
          "ticks": 132864,
          "time": 94.363542,
          "velocity": 0.30708661417322836
        },
        {
          "duration": 0.0852271875000099,
          "durationTicks": 120,
          "midi": 40,
          "name": "E2",
          "ticks": 132864,
          "time": 94.363542,
          "velocity": 0.30708661417322836
        },
        {
          "duration": 0.0852271875000099,
          "durationTicks": 120,
          "midi": 64,
          "name": "E4",
          "ticks": 132864,
          "time": 94.363542,
          "velocity": 0.30708661417322836
        },
        {
          "duration": 0.0852271874999957,
          "durationTicks": 120,
          "midi": 64,
          "name": "E4",
          "ticks": 132888,
          "time": 94.3805874375,
          "velocity": 0.30708661417322836
        },
        {
          "duration": 0.0852271874999957,
          "durationTicks": 120,
          "midi": 69,
          "name": "A4",
          "ticks": 132888,
          "time": 94.3805874375,
          "velocity": 0.30708661417322836
        },
        {
          "duration": 0.0852271874999957,
          "durationTicks": 120,
          "midi": 72,
          "name": "C5",
          "ticks": 132888,
          "time": 94.3805874375,
          "velocity": 0.30708661417322836
        },
        {
          "duration": 0.0852271874999957,
          "durationTicks": 120,
          "midi": 40,
          "name": "E2",
          "ticks": 132888,
          "time": 94.3805874375,
          "velocity": 0.30708661417322836
        },
        {
          "duration": 0.0852271874999957,
          "durationTicks": 120,
          "midi": 76,
          "name": "E5",
          "ticks": 132888,
          "time": 94.3805874375,
          "velocity": 0.30708661417322836
        },
        {
          "duration": 0.0852271874999957,
          "durationTicks": 120,
          "midi": 64,
          "name": "E4",
          "ticks": 132984,
          "time": 94.4487691875,
          "velocity": 0.30708661417322836
        },
        {
          "duration": 0.0852271874999957,
          "durationTicks": 120,
          "midi": 76,
          "name": "E5",
          "ticks": 132984,
          "time": 94.4487691875,
          "velocity": 0.30708661417322836
        },
        {
          "duration": 0.0852271874999957,
          "durationTicks": 120,
          "midi": 76,
          "name": "E5",
          "ticks": 132984,
          "time": 94.4487691875,
          "velocity": 0.30708661417322836
        },
        {
          "duration": 0.0852271874999957,
          "durationTicks": 120,
          "midi": 64,
          "name": "E4",
          "ticks": 132984,
          "time": 94.4487691875,
          "velocity": 0.30708661417322836
        },
        {
          "duration": 0.0852271874999957,
          "durationTicks": 120,
          "midi": 69,
          "name": "A4",
          "ticks": 132984,
          "time": 94.4487691875,
          "velocity": 0.30708661417322836
        },
        {
          "duration": 0.0852271874999957,
          "durationTicks": 120,
          "midi": 69,
          "name": "A4",
          "ticks": 132984,
          "time": 94.4487691875,
          "velocity": 0.30708661417322836
        },
        {
          "duration": 0.0852271874999957,
          "durationTicks": 120,
          "midi": 72,
          "name": "C5",
          "ticks": 132984,
          "time": 94.4487691875,
          "velocity": 0.30708661417322836
        },
        {
          "duration": 0.0852271874999957,
          "durationTicks": 120,
          "midi": 72,
          "name": "C5",
          "ticks": 132984,
          "time": 94.4487691875,
          "velocity": 0.30708661417322836
        },
        {
          "duration": 0.0852271875000099,
          "durationTicks": 120,
          "midi": 69,
          "name": "A4",
          "ticks": 133008,
          "time": 94.465814625,
          "velocity": 0.30708661417322836
        },
        {
          "duration": 0.0852271875000099,
          "durationTicks": 120,
          "midi": 76,
          "name": "E5",
          "ticks": 133008,
          "time": 94.465814625,
          "velocity": 0.30708661417322836
        },
        {
          "duration": 0.0852271875000099,
          "durationTicks": 120,
          "midi": 72,
          "name": "C5",
          "ticks": 133008,
          "time": 94.465814625,
          "velocity": 0.30708661417322836
        },
        {
          "duration": 0.0852271875000099,
          "durationTicks": 120,
          "midi": 64,
          "name": "E4",
          "ticks": 133008,
          "time": 94.465814625,
          "velocity": 0.30708661417322836
        },
        {
          "duration": 0.0852271874999957,
          "durationTicks": 120,
          "midi": 64,
          "name": "E4",
          "ticks": 133104,
          "time": 94.533996375,
          "velocity": 0.30708661417322836
        },
        {
          "duration": 0.0852271874999957,
          "durationTicks": 120,
          "midi": 52,
          "name": "E3",
          "ticks": 133104,
          "time": 94.533996375,
          "velocity": 0.30708661417322836
        },
        {
          "duration": 0.0852271874999957,
          "durationTicks": 120,
          "midi": 72,
          "name": "C5",
          "ticks": 133104,
          "time": 94.533996375,
          "velocity": 0.30708661417322836
        },
        {
          "duration": 0.0852271874999957,
          "durationTicks": 120,
          "midi": 76,
          "name": "E5",
          "ticks": 133104,
          "time": 94.533996375,
          "velocity": 0.30708661417322836
        },
        {
          "duration": 0.0852271874999957,
          "durationTicks": 120,
          "midi": 64,
          "name": "E4",
          "ticks": 133104,
          "time": 94.533996375,
          "velocity": 0.30708661417322836
        },
        {
          "duration": 0.0852271874999957,
          "durationTicks": 120,
          "midi": 72,
          "name": "C5",
          "ticks": 133104,
          "time": 94.533996375,
          "velocity": 0.30708661417322836
        },
        {
          "duration": 0.0852271874999957,
          "durationTicks": 120,
          "midi": 52,
          "name": "E3",
          "ticks": 133104,
          "time": 94.533996375,
          "velocity": 0.30708661417322836
        },
        {
          "duration": 0.0852271874999957,
          "durationTicks": 120,
          "midi": 48,
          "name": "C3",
          "ticks": 133104,
          "time": 94.533996375,
          "velocity": 0.30708661417322836
        },
        {
          "duration": 0.0852271874999957,
          "durationTicks": 120,
          "midi": 69,
          "name": "A4",
          "ticks": 133104,
          "time": 94.533996375,
          "velocity": 0.30708661417322836
        },
        {
          "duration": 0.0852271874999957,
          "durationTicks": 120,
          "midi": 76,
          "name": "E5",
          "ticks": 133104,
          "time": 94.533996375,
          "velocity": 0.30708661417322836
        },
        {
          "duration": 0.0852271874999957,
          "durationTicks": 120,
          "midi": 48,
          "name": "C3",
          "ticks": 133104,
          "time": 94.533996375,
          "velocity": 0.30708661417322836
        },
        {
          "duration": 0.0852271874999957,
          "durationTicks": 120,
          "midi": 69,
          "name": "A4",
          "ticks": 133104,
          "time": 94.533996375,
          "velocity": 0.30708661417322836
        },
        {
          "duration": 0.0852271874999957,
          "durationTicks": 120,
          "midi": 52,
          "name": "E3",
          "ticks": 133128,
          "time": 94.5510418125,
          "velocity": 0.30708661417322836
        },
        {
          "duration": 0.0852271874999957,
          "durationTicks": 120,
          "midi": 64,
          "name": "E4",
          "ticks": 133128,
          "time": 94.5510418125,
          "velocity": 0.30708661417322836
        },
        {
          "duration": 0.0852271874999957,
          "durationTicks": 120,
          "midi": 48,
          "name": "C3",
          "ticks": 133128,
          "time": 94.5510418125,
          "velocity": 0.30708661417322836
        },
        {
          "duration": 0.0852271874999957,
          "durationTicks": 120,
          "midi": 69,
          "name": "A4",
          "ticks": 133128,
          "time": 94.5510418125,
          "velocity": 0.30708661417322836
        },
        {
          "duration": 0.0852271874999957,
          "durationTicks": 120,
          "midi": 76,
          "name": "E5",
          "ticks": 133128,
          "time": 94.5510418125,
          "velocity": 0.30708661417322836
        },
        {
          "duration": 0.0852271874999957,
          "durationTicks": 120,
          "midi": 72,
          "name": "C5",
          "ticks": 133128,
          "time": 94.5510418125,
          "velocity": 0.30708661417322836
        },
        {
          "duration": 0.0852271874999957,
          "durationTicks": 120,
          "midi": 72,
          "name": "C5",
          "ticks": 133224,
          "time": 94.6192235625,
          "velocity": 0.30708661417322836
        },
        {
          "duration": 0.0852271874999957,
          "durationTicks": 120,
          "midi": 72,
          "name": "C5",
          "ticks": 133224,
          "time": 94.6192235625,
          "velocity": 0.30708661417322836
        },
        {
          "duration": 0.0852271874999957,
          "durationTicks": 120,
          "midi": 76,
          "name": "E5",
          "ticks": 133224,
          "time": 94.6192235625,
          "velocity": 0.30708661417322836
        },
        {
          "duration": 0.0852271874999957,
          "durationTicks": 120,
          "midi": 69,
          "name": "A4",
          "ticks": 133224,
          "time": 94.6192235625,
          "velocity": 0.30708661417322836
        },
        {
          "duration": 0.0852271874999957,
          "durationTicks": 120,
          "midi": 69,
          "name": "A4",
          "ticks": 133224,
          "time": 94.6192235625,
          "velocity": 0.30708661417322836
        },
        {
          "duration": 0.0852271874999957,
          "durationTicks": 120,
          "midi": 64,
          "name": "E4",
          "ticks": 133224,
          "time": 94.6192235625,
          "velocity": 0.30708661417322836
        },
        {
          "duration": 0.0852271874999957,
          "durationTicks": 120,
          "midi": 76,
          "name": "E5",
          "ticks": 133224,
          "time": 94.6192235625,
          "velocity": 0.30708661417322836
        },
        {
          "duration": 0.0852271874999957,
          "durationTicks": 120,
          "midi": 64,
          "name": "E4",
          "ticks": 133224,
          "time": 94.6192235625,
          "velocity": 0.30708661417322836
        },
        {
          "duration": 0.0852271874999957,
          "durationTicks": 120,
          "midi": 69,
          "name": "A4",
          "ticks": 133248,
          "time": 94.636269,
          "velocity": 0.30708661417322836
        },
        {
          "duration": 0.0852271874999957,
          "durationTicks": 120,
          "midi": 76,
          "name": "E5",
          "ticks": 133248,
          "time": 94.636269,
          "velocity": 0.30708661417322836
        },
        {
          "duration": 0.0852271874999957,
          "durationTicks": 120,
          "midi": 64,
          "name": "E4",
          "ticks": 133248,
          "time": 94.636269,
          "velocity": 0.30708661417322836
        },
        {
          "duration": 0.0852271874999957,
          "durationTicks": 120,
          "midi": 72,
          "name": "C5",
          "ticks": 133248,
          "time": 94.636269,
          "velocity": 0.30708661417322836
        },
        {
          "duration": 0.0852271875000099,
          "durationTicks": 120,
          "midi": 76,
          "name": "E5",
          "ticks": 133344,
          "time": 94.70445074999999,
          "velocity": 0.30708661417322836
        },
        {
          "duration": 0.0852271875000099,
          "durationTicks": 120,
          "midi": 69,
          "name": "A4",
          "ticks": 133344,
          "time": 94.70445074999999,
          "velocity": 0.30708661417322836
        },
        {
          "duration": 0.0852271875000099,
          "durationTicks": 120,
          "midi": 64,
          "name": "E4",
          "ticks": 133344,
          "time": 94.70445074999999,
          "velocity": 0.30708661417322836
        },
        {
          "duration": 0.0852271875000099,
          "durationTicks": 120,
          "midi": 76,
          "name": "E5",
          "ticks": 133344,
          "time": 94.70445074999999,
          "velocity": 0.30708661417322836
        },
        {
          "duration": 0.22159068750001154,
          "durationTicks": 312,
          "midi": 45,
          "name": "A2",
          "ticks": 133344,
          "time": 94.70445074999999,
          "velocity": 0.30708661417322836
        },
        {
          "duration": 0.0852271875000099,
          "durationTicks": 120,
          "midi": 64,
          "name": "E4",
          "ticks": 133344,
          "time": 94.70445074999999,
          "velocity": 0.30708661417322836
        },
        {
          "duration": 0.0852271875000099,
          "durationTicks": 120,
          "midi": 72,
          "name": "C5",
          "ticks": 133344,
          "time": 94.70445074999999,
          "velocity": 0.30708661417322836
        },
        {
          "duration": 0.0852271875000099,
          "durationTicks": 120,
          "midi": 72,
          "name": "C5",
          "ticks": 133344,
          "time": 94.70445074999999,
          "velocity": 0.30708661417322836
        },
        {
          "duration": 0.22159068750001154,
          "durationTicks": 312,
          "midi": 45,
          "name": "A2",
          "ticks": 133344,
          "time": 94.70445074999999,
          "velocity": 0.30708661417322836
        },
        {
          "duration": 0.0852271875000099,
          "durationTicks": 120,
          "midi": 69,
          "name": "A4",
          "ticks": 133344,
          "time": 94.70445074999999,
          "velocity": 0.30708661417322836
        },
        {
          "duration": 0.0852271875000099,
          "durationTicks": 120,
          "midi": 76,
          "name": "E5",
          "ticks": 133368,
          "time": 94.7214961875,
          "velocity": 0.30708661417322836
        },
        {
          "duration": 0.22159068750001154,
          "durationTicks": 312,
          "midi": 45,
          "name": "A2",
          "ticks": 133368,
          "time": 94.7214961875,
          "velocity": 0.30708661417322836
        },
        {
          "duration": 0.0852271875000099,
          "durationTicks": 120,
          "midi": 69,
          "name": "A4",
          "ticks": 133368,
          "time": 94.7214961875,
          "velocity": 0.30708661417322836
        },
        {
          "duration": 0.0852271875000099,
          "durationTicks": 120,
          "midi": 64,
          "name": "E4",
          "ticks": 133368,
          "time": 94.7214961875,
          "velocity": 0.30708661417322836
        },
        {
          "duration": 0.0852271875000099,
          "durationTicks": 120,
          "midi": 72,
          "name": "C5",
          "ticks": 133368,
          "time": 94.7214961875,
          "velocity": 0.30708661417322836
        },
        {
          "duration": 0.0852271874999957,
          "durationTicks": 120,
          "midi": 64,
          "name": "E4",
          "ticks": 133464,
          "time": 94.7896779375,
          "velocity": 0.30708661417322836
        },
        {
          "duration": 0.0852271874999957,
          "durationTicks": 120,
          "midi": 76,
          "name": "E5",
          "ticks": 133464,
          "time": 94.7896779375,
          "velocity": 0.30708661417322836
        },
        {
          "duration": 0.0852271874999957,
          "durationTicks": 120,
          "midi": 69,
          "name": "A4",
          "ticks": 133464,
          "time": 94.7896779375,
          "velocity": 0.30708661417322836
        },
        {
          "duration": 0.0852271874999957,
          "durationTicks": 120,
          "midi": 76,
          "name": "E5",
          "ticks": 133464,
          "time": 94.7896779375,
          "velocity": 0.30708661417322836
        },
        {
          "duration": 0.0852271874999957,
          "durationTicks": 120,
          "midi": 72,
          "name": "C5",
          "ticks": 133464,
          "time": 94.7896779375,
          "velocity": 0.30708661417322836
        },
        {
          "duration": 0.0852271874999957,
          "durationTicks": 120,
          "midi": 72,
          "name": "C5",
          "ticks": 133464,
          "time": 94.7896779375,
          "velocity": 0.30708661417322836
        },
        {
          "duration": 0.0852271874999957,
          "durationTicks": 120,
          "midi": 69,
          "name": "A4",
          "ticks": 133464,
          "time": 94.7896779375,
          "velocity": 0.30708661417322836
        },
        {
          "duration": 0.0852271874999957,
          "durationTicks": 120,
          "midi": 64,
          "name": "E4",
          "ticks": 133464,
          "time": 94.7896779375,
          "velocity": 0.30708661417322836
        },
        {
          "duration": 0.0852271874999957,
          "durationTicks": 120,
          "midi": 69,
          "name": "A4",
          "ticks": 133488,
          "time": 94.806723375,
          "velocity": 0.30708661417322836
        },
        {
          "duration": 0.0852271874999957,
          "durationTicks": 120,
          "midi": 76,
          "name": "E5",
          "ticks": 133488,
          "time": 94.806723375,
          "velocity": 0.30708661417322836
        },
        {
          "duration": 0.0852271874999957,
          "durationTicks": 120,
          "midi": 72,
          "name": "C5",
          "ticks": 133488,
          "time": 94.806723375,
          "velocity": 0.30708661417322836
        },
        {
          "duration": 0.0852271874999957,
          "durationTicks": 120,
          "midi": 64,
          "name": "E4",
          "ticks": 133488,
          "time": 94.806723375,
          "velocity": 0.30708661417322836
        },
        {
          "duration": 0.0852271874999957,
          "durationTicks": 120,
          "midi": 64,
          "name": "E4",
          "ticks": 133584,
          "time": 94.874905125,
          "velocity": 0.30708661417322836
        },
        {
          "duration": 0.0852271874999957,
          "durationTicks": 120,
          "midi": 69,
          "name": "A4",
          "ticks": 133584,
          "time": 94.874905125,
          "velocity": 0.30708661417322836
        },
        {
          "duration": 0.0852271874999957,
          "durationTicks": 120,
          "midi": 48,
          "name": "C3",
          "ticks": 133584,
          "time": 94.874905125,
          "velocity": 0.30708661417322836
        },
        {
          "duration": 0.0852271874999957,
          "durationTicks": 120,
          "midi": 48,
          "name": "C3",
          "ticks": 133584,
          "time": 94.874905125,
          "velocity": 0.30708661417322836
        },
        {
          "duration": 0.0852271874999957,
          "durationTicks": 120,
          "midi": 76,
          "name": "E5",
          "ticks": 133584,
          "time": 94.874905125,
          "velocity": 0.30708661417322836
        },
        {
          "duration": 0.0852271874999957,
          "durationTicks": 120,
          "midi": 52,
          "name": "E3",
          "ticks": 133584,
          "time": 94.874905125,
          "velocity": 0.30708661417322836
        },
        {
          "duration": 0.0852271874999957,
          "durationTicks": 120,
          "midi": 76,
          "name": "E5",
          "ticks": 133584,
          "time": 94.874905125,
          "velocity": 0.30708661417322836
        },
        {
          "duration": 0.0852271874999957,
          "durationTicks": 120,
          "midi": 52,
          "name": "E3",
          "ticks": 133584,
          "time": 94.874905125,
          "velocity": 0.30708661417322836
        },
        {
          "duration": 0.0852271874999957,
          "durationTicks": 120,
          "midi": 72,
          "name": "C5",
          "ticks": 133584,
          "time": 94.874905125,
          "velocity": 0.30708661417322836
        },
        {
          "duration": 0.0852271874999957,
          "durationTicks": 120,
          "midi": 69,
          "name": "A4",
          "ticks": 133584,
          "time": 94.874905125,
          "velocity": 0.30708661417322836
        },
        {
          "duration": 0.0852271874999957,
          "durationTicks": 120,
          "midi": 64,
          "name": "E4",
          "ticks": 133584,
          "time": 94.874905125,
          "velocity": 0.30708661417322836
        },
        {
          "duration": 0.0852271874999957,
          "durationTicks": 120,
          "midi": 72,
          "name": "C5",
          "ticks": 133584,
          "time": 94.874905125,
          "velocity": 0.30708661417322836
        },
        {
          "duration": 0.0852271874999957,
          "durationTicks": 120,
          "midi": 76,
          "name": "E5",
          "ticks": 133608,
          "time": 94.8919505625,
          "velocity": 0.30708661417322836
        },
        {
          "duration": 0.0852271874999957,
          "durationTicks": 120,
          "midi": 48,
          "name": "C3",
          "ticks": 133608,
          "time": 94.8919505625,
          "velocity": 0.30708661417322836
        },
        {
          "duration": 0.0852271874999957,
          "durationTicks": 120,
          "midi": 64,
          "name": "E4",
          "ticks": 133608,
          "time": 94.8919505625,
          "velocity": 0.30708661417322836
        },
        {
          "duration": 0.0852271874999957,
          "durationTicks": 120,
          "midi": 69,
          "name": "A4",
          "ticks": 133608,
          "time": 94.8919505625,
          "velocity": 0.30708661417322836
        },
        {
          "duration": 0.0852271874999957,
          "durationTicks": 120,
          "midi": 72,
          "name": "C5",
          "ticks": 133608,
          "time": 94.8919505625,
          "velocity": 0.30708661417322836
        },
        {
          "duration": 0.0852271874999957,
          "durationTicks": 120,
          "midi": 52,
          "name": "E3",
          "ticks": 133608,
          "time": 94.8919505625,
          "velocity": 0.30708661417322836
        },
        {
          "duration": 0.0852271875000099,
          "durationTicks": 120,
          "midi": 69,
          "name": "A4",
          "ticks": 133704,
          "time": 94.9601323125,
          "velocity": 0.30708661417322836
        },
        {
          "duration": 0.0852271875000099,
          "durationTicks": 120,
          "midi": 69,
          "name": "A4",
          "ticks": 133704,
          "time": 94.9601323125,
          "velocity": 0.30708661417322836
        },
        {
          "duration": 0.0852271875000099,
          "durationTicks": 120,
          "midi": 76,
          "name": "E5",
          "ticks": 133704,
          "time": 94.9601323125,
          "velocity": 0.30708661417322836
        },
        {
          "duration": 0.0852271875000099,
          "durationTicks": 120,
          "midi": 64,
          "name": "E4",
          "ticks": 133704,
          "time": 94.9601323125,
          "velocity": 0.30708661417322836
        },
        {
          "duration": 0.0852271875000099,
          "durationTicks": 120,
          "midi": 76,
          "name": "E5",
          "ticks": 133704,
          "time": 94.9601323125,
          "velocity": 0.30708661417322836
        },
        {
          "duration": 0.0852271875000099,
          "durationTicks": 120,
          "midi": 72,
          "name": "C5",
          "ticks": 133704,
          "time": 94.9601323125,
          "velocity": 0.30708661417322836
        },
        {
          "duration": 0.0852271875000099,
          "durationTicks": 120,
          "midi": 72,
          "name": "C5",
          "ticks": 133704,
          "time": 94.9601323125,
          "velocity": 0.30708661417322836
        },
        {
          "duration": 0.0852271875000099,
          "durationTicks": 120,
          "midi": 64,
          "name": "E4",
          "ticks": 133704,
          "time": 94.9601323125,
          "velocity": 0.30708661417322836
        },
        {
          "duration": 0.0852271875000099,
          "durationTicks": 120,
          "midi": 64,
          "name": "E4",
          "ticks": 133728,
          "time": 94.97717775,
          "velocity": 0.30708661417322836
        },
        {
          "duration": 0.0852271875000099,
          "durationTicks": 120,
          "midi": 69,
          "name": "A4",
          "ticks": 133728,
          "time": 94.97717775,
          "velocity": 0.30708661417322836
        },
        {
          "duration": 0.0852271875000099,
          "durationTicks": 120,
          "midi": 72,
          "name": "C5",
          "ticks": 133728,
          "time": 94.97717775,
          "velocity": 0.30708661417322836
        },
        {
          "duration": 0.0852271875000099,
          "durationTicks": 120,
          "midi": 76,
          "name": "E5",
          "ticks": 133728,
          "time": 94.97717775,
          "velocity": 0.30708661417322836
        },
        {
          "duration": 0.0852271874999957,
          "durationTicks": 120,
          "midi": 72,
          "name": "C5",
          "ticks": 133824,
          "time": 95.0453595,
          "velocity": 0.30708661417322836
        },
        {
          "duration": 0.0852271874999957,
          "durationTicks": 120,
          "midi": 69,
          "name": "A4",
          "ticks": 133824,
          "time": 95.0453595,
          "velocity": 0.30708661417322836
        },
        {
          "duration": 0.0852271874999957,
          "durationTicks": 120,
          "midi": 76,
          "name": "E5",
          "ticks": 133824,
          "time": 95.0453595,
          "velocity": 0.30708661417322836
        },
        {
          "duration": 0.0852271874999957,
          "durationTicks": 120,
          "midi": 72,
          "name": "C5",
          "ticks": 133824,
          "time": 95.0453595,
          "velocity": 0.30708661417322836
        },
        {
          "duration": 0.0852271874999957,
          "durationTicks": 120,
          "midi": 69,
          "name": "A4",
          "ticks": 133824,
          "time": 95.0453595,
          "velocity": 0.30708661417322836
        },
        {
          "duration": 0.0852271874999957,
          "durationTicks": 120,
          "midi": 64,
          "name": "E4",
          "ticks": 133824,
          "time": 95.0453595,
          "velocity": 0.30708661417322836
        },
        {
          "duration": 0.0852271874999957,
          "durationTicks": 120,
          "midi": 64,
          "name": "E4",
          "ticks": 133824,
          "time": 95.0453595,
          "velocity": 0.30708661417322836
        },
        {
          "duration": 0.0852271874999957,
          "durationTicks": 120,
          "midi": 40,
          "name": "E2",
          "ticks": 133824,
          "time": 95.0453595,
          "velocity": 0.30708661417322836
        },
        {
          "duration": 0.0852271874999957,
          "durationTicks": 120,
          "midi": 40,
          "name": "E2",
          "ticks": 133824,
          "time": 95.0453595,
          "velocity": 0.30708661417322836
        },
        {
          "duration": 0.0852271874999957,
          "durationTicks": 120,
          "midi": 76,
          "name": "E5",
          "ticks": 133824,
          "time": 95.0453595,
          "velocity": 0.30708661417322836
        },
        {
          "duration": 0.0852271874999957,
          "durationTicks": 120,
          "midi": 72,
          "name": "C5",
          "ticks": 133848,
          "time": 95.0624049375,
          "velocity": 0.30708661417322836
        },
        {
          "duration": 0.0852271874999957,
          "durationTicks": 120,
          "midi": 40,
          "name": "E2",
          "ticks": 133848,
          "time": 95.0624049375,
          "velocity": 0.30708661417322836
        },
        {
          "duration": 0.0852271874999957,
          "durationTicks": 120,
          "midi": 76,
          "name": "E5",
          "ticks": 133848,
          "time": 95.0624049375,
          "velocity": 0.30708661417322836
        },
        {
          "duration": 0.0852271874999957,
          "durationTicks": 120,
          "midi": 64,
          "name": "E4",
          "ticks": 133848,
          "time": 95.0624049375,
          "velocity": 0.30708661417322836
        },
        {
          "duration": 0.0852271874999957,
          "durationTicks": 120,
          "midi": 69,
          "name": "A4",
          "ticks": 133848,
          "time": 95.0624049375,
          "velocity": 0.30708661417322836
        },
        {
          "duration": 0.0852271874999957,
          "durationTicks": 120,
          "midi": 76,
          "name": "E5",
          "ticks": 133944,
          "time": 95.1305866875,
          "velocity": 0.30708661417322836
        },
        {
          "duration": 0.0852271874999957,
          "durationTicks": 120,
          "midi": 69,
          "name": "A4",
          "ticks": 133944,
          "time": 95.1305866875,
          "velocity": 0.30708661417322836
        },
        {
          "duration": 0.0852271874999957,
          "durationTicks": 120,
          "midi": 69,
          "name": "A4",
          "ticks": 133944,
          "time": 95.1305866875,
          "velocity": 0.30708661417322836
        },
        {
          "duration": 0.0852271874999957,
          "durationTicks": 120,
          "midi": 76,
          "name": "E5",
          "ticks": 133944,
          "time": 95.1305866875,
          "velocity": 0.30708661417322836
        },
        {
          "duration": 0.0852271874999957,
          "durationTicks": 120,
          "midi": 72,
          "name": "C5",
          "ticks": 133944,
          "time": 95.1305866875,
          "velocity": 0.30708661417322836
        },
        {
          "duration": 0.0852271874999957,
          "durationTicks": 120,
          "midi": 64,
          "name": "E4",
          "ticks": 133944,
          "time": 95.1305866875,
          "velocity": 0.30708661417322836
        },
        {
          "duration": 0.0852271874999957,
          "durationTicks": 120,
          "midi": 72,
          "name": "C5",
          "ticks": 133944,
          "time": 95.1305866875,
          "velocity": 0.30708661417322836
        },
        {
          "duration": 0.0852271874999957,
          "durationTicks": 120,
          "midi": 64,
          "name": "E4",
          "ticks": 133944,
          "time": 95.1305866875,
          "velocity": 0.30708661417322836
        },
        {
          "duration": 0.0852271874999957,
          "durationTicks": 120,
          "midi": 72,
          "name": "C5",
          "ticks": 133968,
          "time": 95.147632125,
          "velocity": 0.30708661417322836
        },
        {
          "duration": 0.0852271874999957,
          "durationTicks": 120,
          "midi": 69,
          "name": "A4",
          "ticks": 133968,
          "time": 95.147632125,
          "velocity": 0.30708661417322836
        },
        {
          "duration": 0.0852271874999957,
          "durationTicks": 120,
          "midi": 64,
          "name": "E4",
          "ticks": 133968,
          "time": 95.147632125,
          "velocity": 0.30708661417322836
        },
        {
          "duration": 0.0852271874999957,
          "durationTicks": 120,
          "midi": 76,
          "name": "E5",
          "ticks": 133968,
          "time": 95.147632125,
          "velocity": 0.30708661417322836
        },
        {
          "duration": 0.0852271875000099,
          "durationTicks": 120,
          "midi": 76,
          "name": "E5",
          "ticks": 134064,
          "time": 95.215813875,
          "velocity": 0.30708661417322836
        },
        {
          "duration": 0.0852271875000099,
          "durationTicks": 120,
          "midi": 76,
          "name": "E5",
          "ticks": 134064,
          "time": 95.215813875,
          "velocity": 0.30708661417322836
        },
        {
          "duration": 0.0852271875000099,
          "durationTicks": 120,
          "midi": 48,
          "name": "C3",
          "ticks": 134064,
          "time": 95.215813875,
          "velocity": 0.30708661417322836
        },
        {
          "duration": 0.0852271875000099,
          "durationTicks": 120,
          "midi": 48,
          "name": "C3",
          "ticks": 134064,
          "time": 95.215813875,
          "velocity": 0.30708661417322836
        },
        {
          "duration": 0.0852271875000099,
          "durationTicks": 120,
          "midi": 64,
          "name": "E4",
          "ticks": 134064,
          "time": 95.215813875,
          "velocity": 0.30708661417322836
        },
        {
          "duration": 0.0852271875000099,
          "durationTicks": 120,
          "midi": 64,
          "name": "E4",
          "ticks": 134064,
          "time": 95.215813875,
          "velocity": 0.30708661417322836
        },
        {
          "duration": 0.0852271875000099,
          "durationTicks": 120,
          "midi": 69,
          "name": "A4",
          "ticks": 134064,
          "time": 95.215813875,
          "velocity": 0.30708661417322836
        },
        {
          "duration": 0.0852271875000099,
          "durationTicks": 120,
          "midi": 52,
          "name": "E3",
          "ticks": 134064,
          "time": 95.215813875,
          "velocity": 0.30708661417322836
        },
        {
          "duration": 0.0852271875000099,
          "durationTicks": 120,
          "midi": 72,
          "name": "C5",
          "ticks": 134064,
          "time": 95.215813875,
          "velocity": 0.30708661417322836
        },
        {
          "duration": 0.0852271875000099,
          "durationTicks": 120,
          "midi": 72,
          "name": "C5",
          "ticks": 134064,
          "time": 95.215813875,
          "velocity": 0.30708661417322836
        },
        {
          "duration": 0.0852271875000099,
          "durationTicks": 120,
          "midi": 69,
          "name": "A4",
          "ticks": 134064,
          "time": 95.215813875,
          "velocity": 0.30708661417322836
        },
        {
          "duration": 0.0852271875000099,
          "durationTicks": 120,
          "midi": 52,
          "name": "E3",
          "ticks": 134064,
          "time": 95.215813875,
          "velocity": 0.30708661417322836
        },
        {
          "duration": 0.0852271874999957,
          "durationTicks": 120,
          "midi": 64,
          "name": "E4",
          "ticks": 134088,
          "time": 95.2328593125,
          "velocity": 0.30708661417322836
        },
        {
          "duration": 0.0852271874999957,
          "durationTicks": 120,
          "midi": 69,
          "name": "A4",
          "ticks": 134088,
          "time": 95.2328593125,
          "velocity": 0.30708661417322836
        },
        {
          "duration": 0.0852271874999957,
          "durationTicks": 120,
          "midi": 76,
          "name": "E5",
          "ticks": 134088,
          "time": 95.2328593125,
          "velocity": 0.30708661417322836
        },
        {
          "duration": 0.0852271874999957,
          "durationTicks": 120,
          "midi": 48,
          "name": "C3",
          "ticks": 134088,
          "time": 95.2328593125,
          "velocity": 0.30708661417322836
        },
        {
          "duration": 0.0852271874999957,
          "durationTicks": 120,
          "midi": 72,
          "name": "C5",
          "ticks": 134088,
          "time": 95.2328593125,
          "velocity": 0.30708661417322836
        },
        {
          "duration": 0.0852271874999957,
          "durationTicks": 120,
          "midi": 52,
          "name": "E3",
          "ticks": 134088,
          "time": 95.2328593125,
          "velocity": 0.30708661417322836
        },
        {
          "duration": 0.0852271874999957,
          "durationTicks": 120,
          "midi": 64,
          "name": "E4",
          "ticks": 134184,
          "time": 95.3010410625,
          "velocity": 0.30708661417322836
        },
        {
          "duration": 0.0852271874999957,
          "durationTicks": 120,
          "midi": 76,
          "name": "E5",
          "ticks": 134184,
          "time": 95.3010410625,
          "velocity": 0.30708661417322836
        },
        {
          "duration": 0.0852271874999957,
          "durationTicks": 120,
          "midi": 69,
          "name": "A4",
          "ticks": 134184,
          "time": 95.3010410625,
          "velocity": 0.30708661417322836
        },
        {
          "duration": 0.0852271874999957,
          "durationTicks": 120,
          "midi": 76,
          "name": "E5",
          "ticks": 134184,
          "time": 95.3010410625,
          "velocity": 0.30708661417322836
        },
        {
          "duration": 0.0852271874999957,
          "durationTicks": 120,
          "midi": 72,
          "name": "C5",
          "ticks": 134184,
          "time": 95.3010410625,
          "velocity": 0.30708661417322836
        },
        {
          "duration": 0.0852271874999957,
          "durationTicks": 120,
          "midi": 72,
          "name": "C5",
          "ticks": 134184,
          "time": 95.3010410625,
          "velocity": 0.30708661417322836
        },
        {
          "duration": 0.0852271874999957,
          "durationTicks": 120,
          "midi": 64,
          "name": "E4",
          "ticks": 134184,
          "time": 95.3010410625,
          "velocity": 0.30708661417322836
        },
        {
          "duration": 0.0852271874999957,
          "durationTicks": 120,
          "midi": 69,
          "name": "A4",
          "ticks": 134184,
          "time": 95.3010410625,
          "velocity": 0.30708661417322836
        },
        {
          "duration": 0.0852271875000099,
          "durationTicks": 120,
          "midi": 69,
          "name": "A4",
          "ticks": 134208,
          "time": 95.31808649999999,
          "velocity": 0.30708661417322836
        },
        {
          "duration": 0.0852271875000099,
          "durationTicks": 120,
          "midi": 72,
          "name": "C5",
          "ticks": 134208,
          "time": 95.31808649999999,
          "velocity": 0.30708661417322836
        },
        {
          "duration": 0.0852271875000099,
          "durationTicks": 120,
          "midi": 76,
          "name": "E5",
          "ticks": 134208,
          "time": 95.31808649999999,
          "velocity": 0.30708661417322836
        },
        {
          "duration": 0.0852271875000099,
          "durationTicks": 120,
          "midi": 64,
          "name": "E4",
          "ticks": 134208,
          "time": 95.31808649999999,
          "velocity": 0.30708661417322836
        },
        {
          "duration": 0.22159068749999733,
          "durationTicks": 312,
          "midi": 45,
          "name": "A2",
          "ticks": 134304,
          "time": 95.38626825,
          "velocity": 0.30708661417322836
        },
        {
          "duration": 0.0852271874999957,
          "durationTicks": 120,
          "midi": 69,
          "name": "A4",
          "ticks": 134304,
          "time": 95.38626825,
          "velocity": 0.30708661417322836
        },
        {
          "duration": 0.0852271874999957,
          "durationTicks": 120,
          "midi": 64,
          "name": "E4",
          "ticks": 134304,
          "time": 95.38626825,
          "velocity": 0.30708661417322836
        },
        {
          "duration": 0.0852271874999957,
          "durationTicks": 120,
          "midi": 72,
          "name": "C5",
          "ticks": 134304,
          "time": 95.38626825,
          "velocity": 0.30708661417322836
        },
        {
          "duration": 0.0852271874999957,
          "durationTicks": 120,
          "midi": 69,
          "name": "A4",
          "ticks": 134304,
          "time": 95.38626825,
          "velocity": 0.30708661417322836
        },
        {
          "duration": 0.0852271874999957,
          "durationTicks": 120,
          "midi": 64,
          "name": "E4",
          "ticks": 134304,
          "time": 95.38626825,
          "velocity": 0.30708661417322836
        },
        {
          "duration": 0.22159068749999733,
          "durationTicks": 312,
          "midi": 45,
          "name": "A2",
          "ticks": 134304,
          "time": 95.38626825,
          "velocity": 0.30708661417322836
        },
        {
          "duration": 0.5624994374999943,
          "durationTicks": 792,
          "midi": 28,
          "name": "E1",
          "ticks": 134304,
          "time": 95.38626825,
          "velocity": 0.30708661417322836
        },
        {
          "duration": 0.0852271874999957,
          "durationTicks": 120,
          "midi": 76,
          "name": "E5",
          "ticks": 134304,
          "time": 95.38626825,
          "velocity": 0.30708661417322836
        },
        {
          "duration": 0.5624994374999943,
          "durationTicks": 792,
          "midi": 28,
          "name": "E1",
          "ticks": 134304,
          "time": 95.38626825,
          "velocity": 0.30708661417322836
        },
        {
          "duration": 0.0852271874999957,
          "durationTicks": 120,
          "midi": 76,
          "name": "E5",
          "ticks": 134304,
          "time": 95.38626825,
          "velocity": 0.30708661417322836
        },
        {
          "duration": 0.0852271874999957,
          "durationTicks": 120,
          "midi": 72,
          "name": "C5",
          "ticks": 134304,
          "time": 95.38626825,
          "velocity": 0.30708661417322836
        },
        {
          "duration": 0.0852271874999957,
          "durationTicks": 120,
          "midi": 69,
          "name": "A4",
          "ticks": 134328,
          "time": 95.4033136875,
          "velocity": 0.30708661417322836
        },
        {
          "duration": 0.0852271874999957,
          "durationTicks": 120,
          "midi": 64,
          "name": "E4",
          "ticks": 134328,
          "time": 95.4033136875,
          "velocity": 0.30708661417322836
        },
        {
          "duration": 0.0852271874999957,
          "durationTicks": 120,
          "midi": 72,
          "name": "C5",
          "ticks": 134328,
          "time": 95.4033136875,
          "velocity": 0.30708661417322836
        },
        {
          "duration": 0.22159068749999733,
          "durationTicks": 312,
          "midi": 45,
          "name": "A2",
          "ticks": 134328,
          "time": 95.4033136875,
          "velocity": 0.30708661417322836
        },
        {
          "duration": 0.5624994374999943,
          "durationTicks": 792,
          "midi": 28,
          "name": "E1",
          "ticks": 134328,
          "time": 95.4033136875,
          "velocity": 0.30708661417322836
        },
        {
          "duration": 0.0852271874999957,
          "durationTicks": 120,
          "midi": 76,
          "name": "E5",
          "ticks": 134328,
          "time": 95.4033136875,
          "velocity": 0.30708661417322836
        },
        {
          "duration": 0.0852271874999957,
          "durationTicks": 120,
          "midi": 65,
          "name": "F4",
          "ticks": 134424,
          "time": 95.4714954375,
          "velocity": 0.30708661417322836
        },
        {
          "duration": 0.0852271874999957,
          "durationTicks": 120,
          "midi": 65,
          "name": "F4",
          "ticks": 134424,
          "time": 95.4714954375,
          "velocity": 0.30708661417322836
        },
        {
          "duration": 0.0852271874999957,
          "durationTicks": 120,
          "midi": 77,
          "name": "F5",
          "ticks": 134424,
          "time": 95.4714954375,
          "velocity": 0.30708661417322836
        },
        {
          "duration": 0.0852271874999957,
          "durationTicks": 120,
          "midi": 77,
          "name": "F5",
          "ticks": 134424,
          "time": 95.4714954375,
          "velocity": 0.30708661417322836
        },
        {
          "duration": 0.0852271874999957,
          "durationTicks": 120,
          "midi": 77,
          "name": "F5",
          "ticks": 134448,
          "time": 95.488540875,
          "velocity": 0.30708661417322836
        },
        {
          "duration": 0.0852271874999957,
          "durationTicks": 120,
          "midi": 65,
          "name": "F4",
          "ticks": 134448,
          "time": 95.488540875,
          "velocity": 0.30708661417322836
        },
        {
          "duration": 0.0852271875000099,
          "durationTicks": 120,
          "midi": 52,
          "name": "E3",
          "ticks": 134544,
          "time": 95.55672262499999,
          "velocity": 0.30708661417322836
        },
        {
          "duration": 0.0852271875000099,
          "durationTicks": 120,
          "midi": 52,
          "name": "E3",
          "ticks": 134544,
          "time": 95.55672262499999,
          "velocity": 0.30708661417322836
        },
        {
          "duration": 0.0852271875000099,
          "durationTicks": 120,
          "midi": 76,
          "name": "E5",
          "ticks": 134544,
          "time": 95.55672262499999,
          "velocity": 0.30708661417322836
        },
        {
          "duration": 0.0852271875000099,
          "durationTicks": 120,
          "midi": 64,
          "name": "E4",
          "ticks": 134544,
          "time": 95.55672262499999,
          "velocity": 0.30708661417322836
        },
        {
          "duration": 0.0852271875000099,
          "durationTicks": 120,
          "midi": 64,
          "name": "E4",
          "ticks": 134544,
          "time": 95.55672262499999,
          "velocity": 0.30708661417322836
        },
        {
          "duration": 0.0852271875000099,
          "durationTicks": 120,
          "midi": 48,
          "name": "C3",
          "ticks": 134544,
          "time": 95.55672262499999,
          "velocity": 0.30708661417322836
        },
        {
          "duration": 0.0852271875000099,
          "durationTicks": 120,
          "midi": 76,
          "name": "E5",
          "ticks": 134544,
          "time": 95.55672262499999,
          "velocity": 0.30708661417322836
        },
        {
          "duration": 0.0852271875000099,
          "durationTicks": 120,
          "midi": 48,
          "name": "C3",
          "ticks": 134544,
          "time": 95.55672262499999,
          "velocity": 0.30708661417322836
        },
        {
          "duration": 0.0852271875000099,
          "durationTicks": 120,
          "midi": 64,
          "name": "E4",
          "ticks": 134568,
          "time": 95.5737680625,
          "velocity": 0.30708661417322836
        },
        {
          "duration": 0.0852271875000099,
          "durationTicks": 120,
          "midi": 76,
          "name": "E5",
          "ticks": 134568,
          "time": 95.5737680625,
          "velocity": 0.30708661417322836
        },
        {
          "duration": 0.0852271875000099,
          "durationTicks": 120,
          "midi": 52,
          "name": "E3",
          "ticks": 134568,
          "time": 95.5737680625,
          "velocity": 0.30708661417322836
        },
        {
          "duration": 0.0852271875000099,
          "durationTicks": 120,
          "midi": 48,
          "name": "C3",
          "ticks": 134568,
          "time": 95.5737680625,
          "velocity": 0.30708661417322836
        },
        {
          "duration": 0.0852271874999957,
          "durationTicks": 120,
          "midi": 63,
          "name": "D#4",
          "ticks": 134664,
          "time": 95.6419498125,
          "velocity": 0.30708661417322836
        },
        {
          "duration": 0.0852271874999957,
          "durationTicks": 120,
          "midi": 63,
          "name": "D#4",
          "ticks": 134664,
          "time": 95.6419498125,
          "velocity": 0.30708661417322836
        },
        {
          "duration": 0.0852271874999957,
          "durationTicks": 120,
          "midi": 75,
          "name": "D#5",
          "ticks": 134664,
          "time": 95.6419498125,
          "velocity": 0.30708661417322836
        },
        {
          "duration": 0.0852271874999957,
          "durationTicks": 120,
          "midi": 75,
          "name": "D#5",
          "ticks": 134664,
          "time": 95.6419498125,
          "velocity": 0.30708661417322836
        },
        {
          "duration": 0.0852271874999957,
          "durationTicks": 120,
          "midi": 63,
          "name": "D#4",
          "ticks": 134688,
          "time": 95.65899525,
          "velocity": 0.30708661417322836
        },
        {
          "duration": 0.0852271874999957,
          "durationTicks": 120,
          "midi": 75,
          "name": "D#5",
          "ticks": 134688,
          "time": 95.65899525,
          "velocity": 0.30708661417322836
        },
        {
          "duration": 0.0852271874999957,
          "durationTicks": 120,
          "midi": 40,
          "name": "E2",
          "ticks": 134784,
          "time": 95.727177,
          "velocity": 0.30708661417322836
        },
        {
          "duration": 0.22159068749999733,
          "durationTicks": 312,
          "midi": 69,
          "name": "A4",
          "ticks": 134784,
          "time": 95.727177,
          "velocity": 0.30708661417322836
        },
        {
          "duration": 0.22159068749999733,
          "durationTicks": 312,
          "midi": 72,
          "name": "C5",
          "ticks": 134784,
          "time": 95.727177,
          "velocity": 0.30708661417322836
        },
        {
          "duration": 0.0852271874999957,
          "durationTicks": 120,
          "midi": 40,
          "name": "E2",
          "ticks": 134784,
          "time": 95.727177,
          "velocity": 0.30708661417322836
        },
        {
          "duration": 0.22159068749999733,
          "durationTicks": 312,
          "midi": 69,
          "name": "A4",
          "ticks": 134784,
          "time": 95.727177,
          "velocity": 0.30708661417322836
        },
        {
          "duration": 0.22159068749999733,
          "durationTicks": 312,
          "midi": 64,
          "name": "E4",
          "ticks": 134784,
          "time": 95.727177,
          "velocity": 0.30708661417322836
        },
        {
          "duration": 0.22159068749999733,
          "durationTicks": 312,
          "midi": 76,
          "name": "E5",
          "ticks": 134784,
          "time": 95.727177,
          "velocity": 0.30708661417322836
        },
        {
          "duration": 0.22159068749999733,
          "durationTicks": 312,
          "midi": 76,
          "name": "E5",
          "ticks": 134784,
          "time": 95.727177,
          "velocity": 0.30708661417322836
        },
        {
          "duration": 0.22159068749999733,
          "durationTicks": 312,
          "midi": 72,
          "name": "C5",
          "ticks": 134784,
          "time": 95.727177,
          "velocity": 0.30708661417322836
        },
        {
          "duration": 0.22159068749999733,
          "durationTicks": 312,
          "midi": 64,
          "name": "E4",
          "ticks": 134784,
          "time": 95.727177,
          "velocity": 0.30708661417322836
        },
        {
          "duration": 0.22159068749999733,
          "durationTicks": 312,
          "midi": 76,
          "name": "E5",
          "ticks": 134808,
          "time": 95.7442224375,
          "velocity": 0.30708661417322836
        },
        {
          "duration": 0.22159068749999733,
          "durationTicks": 312,
          "midi": 64,
          "name": "E4",
          "ticks": 134808,
          "time": 95.7442224375,
          "velocity": 0.30708661417322836
        },
        {
          "duration": 0.22159068749999733,
          "durationTicks": 312,
          "midi": 72,
          "name": "C5",
          "ticks": 134808,
          "time": 95.7442224375,
          "velocity": 0.30708661417322836
        },
        {
          "duration": 0.0852271874999957,
          "durationTicks": 120,
          "midi": 40,
          "name": "E2",
          "ticks": 134808,
          "time": 95.7442224375,
          "velocity": 0.30708661417322836
        },
        {
          "duration": 0.22159068749999733,
          "durationTicks": 312,
          "midi": 69,
          "name": "A4",
          "ticks": 134808,
          "time": 95.7442224375,
          "velocity": 0.30708661417322836
        },
        {
          "duration": 0.28977243749999104,
          "durationTicks": 408,
          "midi": 30,
          "name": "F#1",
          "ticks": 134880,
          "time": 95.79535875,
          "velocity": 0.30708661417322836
        },
        {
          "duration": 0.28977243749999104,
          "durationTicks": 408,
          "midi": 30,
          "name": "F#1",
          "ticks": 134880,
          "time": 95.79535875,
          "velocity": 0.30708661417322836
        },
        {
          "duration": 0.28977243750000525,
          "durationTicks": 408,
          "midi": 30,
          "name": "F#1",
          "ticks": 134904,
          "time": 95.8124041875,
          "velocity": 0.30708661417322836
        },
        {
          "duration": 0.0852271874999957,
          "durationTicks": 120,
          "midi": 81,
          "name": "A5",
          "ticks": 135024,
          "time": 95.897631375,
          "velocity": 0.30708661417322836
        },
        {
          "duration": 0.0852271874999957,
          "durationTicks": 120,
          "midi": 76,
          "name": "E5",
          "ticks": 135024,
          "time": 95.897631375,
          "velocity": 0.30708661417322836
        },
        {
          "duration": 0.0852271874999957,
          "durationTicks": 120,
          "midi": 69,
          "name": "A4",
          "ticks": 135024,
          "time": 95.897631375,
          "velocity": 0.30708661417322836
        },
        {
          "duration": 0.0852271874999957,
          "durationTicks": 120,
          "midi": 69,
          "name": "A4",
          "ticks": 135024,
          "time": 95.897631375,
          "velocity": 0.30708661417322836
        },
        {
          "duration": 0.0852271874999957,
          "durationTicks": 120,
          "midi": 76,
          "name": "E5",
          "ticks": 135024,
          "time": 95.897631375,
          "velocity": 0.30708661417322836
        },
        {
          "duration": 0.0852271874999957,
          "durationTicks": 120,
          "midi": 52,
          "name": "E3",
          "ticks": 135024,
          "time": 95.897631375,
          "velocity": 0.30708661417322836
        },
        {
          "duration": 0.0852271874999957,
          "durationTicks": 120,
          "midi": 81,
          "name": "A5",
          "ticks": 135024,
          "time": 95.897631375,
          "velocity": 0.30708661417322836
        },
        {
          "duration": 0.0852271874999957,
          "durationTicks": 120,
          "midi": 52,
          "name": "E3",
          "ticks": 135024,
          "time": 95.897631375,
          "velocity": 0.30708661417322836
        },
        {
          "duration": 0.0852271874999957,
          "durationTicks": 120,
          "midi": 72,
          "name": "C5",
          "ticks": 135024,
          "time": 95.897631375,
          "velocity": 0.30708661417322836
        },
        {
          "duration": 0.0852271874999957,
          "durationTicks": 120,
          "midi": 48,
          "name": "C3",
          "ticks": 135024,
          "time": 95.897631375,
          "velocity": 0.30708661417322836
        },
        {
          "duration": 0.0852271874999957,
          "durationTicks": 120,
          "midi": 48,
          "name": "C3",
          "ticks": 135024,
          "time": 95.897631375,
          "velocity": 0.30708661417322836
        },
        {
          "duration": 0.0852271874999957,
          "durationTicks": 120,
          "midi": 72,
          "name": "C5",
          "ticks": 135024,
          "time": 95.897631375,
          "velocity": 0.30708661417322836
        },
        {
          "duration": 0.0852271874999957,
          "durationTicks": 120,
          "midi": 69,
          "name": "A4",
          "ticks": 135048,
          "time": 95.9146768125,
          "velocity": 0.30708661417322836
        },
        {
          "duration": 0.0852271874999957,
          "durationTicks": 120,
          "midi": 81,
          "name": "A5",
          "ticks": 135048,
          "time": 95.9146768125,
          "velocity": 0.30708661417322836
        },
        {
          "duration": 0.0852271874999957,
          "durationTicks": 120,
          "midi": 52,
          "name": "E3",
          "ticks": 135048,
          "time": 95.9146768125,
          "velocity": 0.30708661417322836
        },
        {
          "duration": 0.0852271874999957,
          "durationTicks": 120,
          "midi": 48,
          "name": "C3",
          "ticks": 135048,
          "time": 95.9146768125,
          "velocity": 0.30708661417322836
        },
        {
          "duration": 0.0852271874999957,
          "durationTicks": 120,
          "midi": 76,
          "name": "E5",
          "ticks": 135048,
          "time": 95.9146768125,
          "velocity": 0.30708661417322836
        },
        {
          "duration": 0.0852271874999957,
          "durationTicks": 120,
          "midi": 72,
          "name": "C5",
          "ticks": 135048,
          "time": 95.9146768125,
          "velocity": 0.30708661417322836
        },
        {
          "duration": 0.0852271874999957,
          "durationTicks": 120,
          "midi": 81,
          "name": "A5",
          "ticks": 135144,
          "time": 95.9828585625,
          "velocity": 0.30708661417322836
        },
        {
          "duration": 0.0852271874999957,
          "durationTicks": 120,
          "midi": 72,
          "name": "C5",
          "ticks": 135144,
          "time": 95.9828585625,
          "velocity": 0.30708661417322836
        },
        {
          "duration": 0.0852271874999957,
          "durationTicks": 120,
          "midi": 72,
          "name": "C5",
          "ticks": 135144,
          "time": 95.9828585625,
          "velocity": 0.30708661417322836
        },
        {
          "duration": 0.0852271874999957,
          "durationTicks": 120,
          "midi": 84,
          "name": "C6",
          "ticks": 135144,
          "time": 95.9828585625,
          "velocity": 0.30708661417322836
        },
        {
          "duration": 0.0852271874999957,
          "durationTicks": 120,
          "midi": 76,
          "name": "E5",
          "ticks": 135144,
          "time": 95.9828585625,
          "velocity": 0.30708661417322836
        },
        {
          "duration": 0.0852271874999957,
          "durationTicks": 120,
          "midi": 76,
          "name": "E5",
          "ticks": 135144,
          "time": 95.9828585625,
          "velocity": 0.30708661417322836
        },
        {
          "duration": 0.0852271874999957,
          "durationTicks": 120,
          "midi": 81,
          "name": "A5",
          "ticks": 135144,
          "time": 95.9828585625,
          "velocity": 0.30708661417322836
        },
        {
          "duration": 0.0852271874999957,
          "durationTicks": 120,
          "midi": 84,
          "name": "C6",
          "ticks": 135144,
          "time": 95.9828585625,
          "velocity": 0.30708661417322836
        },
        {
          "duration": 0.0852271874999957,
          "durationTicks": 120,
          "midi": 84,
          "name": "C6",
          "ticks": 135168,
          "time": 95.999904,
          "velocity": 0.30708661417322836
        },
        {
          "duration": 0.0852271874999957,
          "durationTicks": 120,
          "midi": 81,
          "name": "A5",
          "ticks": 135168,
          "time": 95.999904,
          "velocity": 0.30708661417322836
        },
        {
          "duration": 0.0852271874999957,
          "durationTicks": 120,
          "midi": 76,
          "name": "E5",
          "ticks": 135168,
          "time": 95.999904,
          "velocity": 0.30708661417322836
        },
        {
          "duration": 0.0852271874999957,
          "durationTicks": 120,
          "midi": 72,
          "name": "C5",
          "ticks": 135168,
          "time": 95.999904,
          "velocity": 0.30708661417322836
        },
        {
          "duration": 0.22159068750001154,
          "durationTicks": 312,
          "midi": 88,
          "name": "E6",
          "ticks": 135264,
          "time": 96.06808575,
          "velocity": 0.30708661417322836
        },
        {
          "duration": 0.22159068750001154,
          "durationTicks": 312,
          "midi": 76,
          "name": "E5",
          "ticks": 135264,
          "time": 96.06808575,
          "velocity": 0.30708661417322836
        },
        {
          "duration": 0.22159068750001154,
          "durationTicks": 312,
          "midi": 45,
          "name": "A2",
          "ticks": 135264,
          "time": 96.06808575,
          "velocity": 0.30708661417322836
        },
        {
          "duration": 0.22159068750001154,
          "durationTicks": 312,
          "midi": 81,
          "name": "A5",
          "ticks": 135264,
          "time": 96.06808575,
          "velocity": 0.30708661417322836
        },
        {
          "duration": 0.22159068750001154,
          "durationTicks": 312,
          "midi": 84,
          "name": "C6",
          "ticks": 135264,
          "time": 96.06808575,
          "velocity": 0.30708661417322836
        },
        {
          "duration": 0.22159068750001154,
          "durationTicks": 312,
          "midi": 84,
          "name": "C6",
          "ticks": 135264,
          "time": 96.06808575,
          "velocity": 0.30708661417322836
        },
        {
          "duration": 0.22159068750001154,
          "durationTicks": 312,
          "midi": 88,
          "name": "E6",
          "ticks": 135264,
          "time": 96.06808575,
          "velocity": 0.30708661417322836
        },
        {
          "duration": 0.22159068750001154,
          "durationTicks": 312,
          "midi": 45,
          "name": "A2",
          "ticks": 135264,
          "time": 96.06808575,
          "velocity": 0.30708661417322836
        },
        {
          "duration": 0.22159068750001154,
          "durationTicks": 312,
          "midi": 81,
          "name": "A5",
          "ticks": 135264,
          "time": 96.06808575,
          "velocity": 0.30708661417322836
        },
        {
          "duration": 0.22159068750001154,
          "durationTicks": 312,
          "midi": 76,
          "name": "E5",
          "ticks": 135264,
          "time": 96.06808575,
          "velocity": 0.30708661417322836
        },
        {
          "duration": 0.22159068749999733,
          "durationTicks": 312,
          "midi": 76,
          "name": "E5",
          "ticks": 135288,
          "time": 96.0851311875,
          "velocity": 0.30708661417322836
        },
        {
          "duration": 0.22159068749999733,
          "durationTicks": 312,
          "midi": 45,
          "name": "A2",
          "ticks": 135288,
          "time": 96.0851311875,
          "velocity": 0.30708661417322836
        },
        {
          "duration": 0.22159068749999733,
          "durationTicks": 312,
          "midi": 88,
          "name": "E6",
          "ticks": 135288,
          "time": 96.0851311875,
          "velocity": 0.30708661417322836
        },
        {
          "duration": 0.22159068749999733,
          "durationTicks": 312,
          "midi": 84,
          "name": "C6",
          "ticks": 135288,
          "time": 96.0851311875,
          "velocity": 0.30708661417322836
        },
        {
          "duration": 0.22159068749999733,
          "durationTicks": 312,
          "midi": 81,
          "name": "A5",
          "ticks": 135288,
          "time": 96.0851311875,
          "velocity": 0.30708661417322836
        },
        {
          "duration": 0.0852271874999957,
          "durationTicks": 120,
          "midi": 52,
          "name": "E3",
          "ticks": 135504,
          "time": 96.238540125,
          "velocity": 0.30708661417322836
        },
        {
          "duration": 0.22159068749999733,
          "durationTicks": 312,
          "midi": 84,
          "name": "C6",
          "ticks": 135504,
          "time": 96.238540125,
          "velocity": 0.30708661417322836
        },
        {
          "duration": 0.22159068749999733,
          "durationTicks": 312,
          "midi": 84,
          "name": "C6",
          "ticks": 135504,
          "time": 96.238540125,
          "velocity": 0.30708661417322836
        },
        {
          "duration": 0.0852271874999957,
          "durationTicks": 120,
          "midi": 48,
          "name": "C3",
          "ticks": 135504,
          "time": 96.238540125,
          "velocity": 0.30708661417322836
        },
        {
          "duration": 0.22159068749999733,
          "durationTicks": 312,
          "midi": 88,
          "name": "E6",
          "ticks": 135504,
          "time": 96.238540125,
          "velocity": 0.30708661417322836
        },
        {
          "duration": 0.22159068749999733,
          "durationTicks": 312,
          "midi": 88,
          "name": "E6",
          "ticks": 135504,
          "time": 96.238540125,
          "velocity": 0.30708661417322836
        },
        {
          "duration": 0.22159068749999733,
          "durationTicks": 312,
          "midi": 93,
          "name": "A6",
          "ticks": 135504,
          "time": 96.238540125,
          "velocity": 0.30708661417322836
        },
        {
          "duration": 0.22159068749999733,
          "durationTicks": 312,
          "midi": 81,
          "name": "A5",
          "ticks": 135504,
          "time": 96.238540125,
          "velocity": 0.30708661417322836
        },
        {
          "duration": 0.22159068749999733,
          "durationTicks": 312,
          "midi": 81,
          "name": "A5",
          "ticks": 135504,
          "time": 96.238540125,
          "velocity": 0.30708661417322836
        },
        {
          "duration": 0.0852271874999957,
          "durationTicks": 120,
          "midi": 48,
          "name": "C3",
          "ticks": 135504,
          "time": 96.238540125,
          "velocity": 0.30708661417322836
        },
        {
          "duration": 0.0852271874999957,
          "durationTicks": 120,
          "midi": 52,
          "name": "E3",
          "ticks": 135504,
          "time": 96.238540125,
          "velocity": 0.30708661417322836
        },
        {
          "duration": 0.22159068749999733,
          "durationTicks": 312,
          "midi": 93,
          "name": "A6",
          "ticks": 135504,
          "time": 96.238540125,
          "velocity": 0.30708661417322836
        },
        {
          "duration": 0.22159068749999733,
          "durationTicks": 312,
          "midi": 81,
          "name": "A5",
          "ticks": 135528,
          "time": 96.2555855625,
          "velocity": 0.30708661417322836
        },
        {
          "duration": 0.0852271874999957,
          "durationTicks": 120,
          "midi": 48,
          "name": "C3",
          "ticks": 135528,
          "time": 96.2555855625,
          "velocity": 0.30708661417322836
        },
        {
          "duration": 0.0852271874999957,
          "durationTicks": 120,
          "midi": 52,
          "name": "E3",
          "ticks": 135528,
          "time": 96.2555855625,
          "velocity": 0.30708661417322836
        },
        {
          "duration": 0.22159068749999733,
          "durationTicks": 312,
          "midi": 93,
          "name": "A6",
          "ticks": 135528,
          "time": 96.2555855625,
          "velocity": 0.30708661417322836
        },
        {
          "duration": 0.22159068749999733,
          "durationTicks": 312,
          "midi": 88,
          "name": "E6",
          "ticks": 135528,
          "time": 96.2555855625,
          "velocity": 0.30708661417322836
        },
        {
          "duration": 0.22159068749999733,
          "durationTicks": 312,
          "midi": 84,
          "name": "C6",
          "ticks": 135528,
          "time": 96.2555855625,
          "velocity": 0.30708661417322836
        },
        {
          "duration": 0.4261359374999927,
          "durationTicks": 600,
          "midi": 88,
          "name": "E6",
          "ticks": 135744,
          "time": 96.4089945,
          "velocity": 0.30708661417322836
        },
        {
          "duration": 0.4261359374999927,
          "durationTicks": 600,
          "midi": 88,
          "name": "E6",
          "ticks": 135744,
          "time": 96.4089945,
          "velocity": 0.30708661417322836
        },
        {
          "duration": 0.4261359374999927,
          "durationTicks": 600,
          "midi": 84,
          "name": "C6",
          "ticks": 135744,
          "time": 96.4089945,
          "velocity": 0.30708661417322836
        },
        {
          "duration": 0.4261359374999927,
          "durationTicks": 600,
          "midi": 84,
          "name": "C6",
          "ticks": 135744,
          "time": 96.4089945,
          "velocity": 0.30708661417322836
        },
        {
          "duration": 0.4261359374999927,
          "durationTicks": 600,
          "midi": 93,
          "name": "A6",
          "ticks": 135744,
          "time": 96.4089945,
          "velocity": 0.30708661417322836
        },
        {
          "duration": 0.0852271874999957,
          "durationTicks": 120,
          "midi": 40,
          "name": "E2",
          "ticks": 135744,
          "time": 96.4089945,
          "velocity": 0.30708661417322836
        },
        {
          "duration": 0.4261359374999927,
          "durationTicks": 600,
          "midi": 84,
          "name": "C6",
          "ticks": 135744,
          "time": 96.4089945,
          "velocity": 0.30708661417322836
        },
        {
          "duration": 0.4261359374999927,
          "durationTicks": 600,
          "midi": 84,
          "name": "C6",
          "ticks": 135744,
          "time": 96.4089945,
          "velocity": 0.30708661417322836
        },
        {
          "duration": 0.4261359374999927,
          "durationTicks": 600,
          "midi": 93,
          "name": "A6",
          "ticks": 135744,
          "time": 96.4089945,
          "velocity": 0.30708661417322836
        },
        {
          "duration": 0.0852271874999957,
          "durationTicks": 120,
          "midi": 40,
          "name": "E2",
          "ticks": 135744,
          "time": 96.4089945,
          "velocity": 0.30708661417322836
        },
        {
          "duration": 0.0852271875000099,
          "durationTicks": 120,
          "midi": 40,
          "name": "E2",
          "ticks": 135768,
          "time": 96.4260399375,
          "velocity": 0.30708661417322836
        },
        {
          "duration": 0.4261359375000069,
          "durationTicks": 600,
          "midi": 84,
          "name": "C6",
          "ticks": 135768,
          "time": 96.4260399375,
          "velocity": 0.30708661417322836
        },
        {
          "duration": 0.4261359375000069,
          "durationTicks": 600,
          "midi": 84,
          "name": "C6",
          "ticks": 135768,
          "time": 96.4260399375,
          "velocity": 0.30708661417322836
        },
        {
          "duration": 0.4261359375000069,
          "durationTicks": 600,
          "midi": 93,
          "name": "A6",
          "ticks": 135768,
          "time": 96.4260399375,
          "velocity": 0.30708661417322836
        },
        {
          "duration": 0.4261359375000069,
          "durationTicks": 600,
          "midi": 88,
          "name": "E6",
          "ticks": 135768,
          "time": 96.4260399375,
          "velocity": 0.30708661417322836
        },
        {
          "duration": 0.0852271874999957,
          "durationTicks": 120,
          "midi": 48,
          "name": "C3",
          "ticks": 135984,
          "time": 96.579448875,
          "velocity": 0.30708661417322836
        },
        {
          "duration": 0.0852271874999957,
          "durationTicks": 120,
          "midi": 52,
          "name": "E3",
          "ticks": 135984,
          "time": 96.579448875,
          "velocity": 0.30708661417322836
        },
        {
          "duration": 0.0852271874999957,
          "durationTicks": 120,
          "midi": 48,
          "name": "C3",
          "ticks": 135984,
          "time": 96.579448875,
          "velocity": 0.30708661417322836
        },
        {
          "duration": 0.0852271874999957,
          "durationTicks": 120,
          "midi": 52,
          "name": "E3",
          "ticks": 135984,
          "time": 96.579448875,
          "velocity": 0.30708661417322836
        },
        {
          "duration": 0.0852271874999957,
          "durationTicks": 120,
          "midi": 48,
          "name": "C3",
          "ticks": 136008,
          "time": 96.5964943125,
          "velocity": 0.30708661417322836
        },
        {
          "duration": 0.0852271874999957,
          "durationTicks": 120,
          "midi": 52,
          "name": "E3",
          "ticks": 136008,
          "time": 96.5964943125,
          "velocity": 0.30708661417322836
        },
        {
          "duration": 0.0852271874999957,
          "durationTicks": 120,
          "midi": 95,
          "name": "B6",
          "ticks": 136224,
          "time": 96.74990325,
          "velocity": 0.30708661417322836
        },
        {
          "duration": 0.0852271874999957,
          "durationTicks": 120,
          "midi": 91,
          "name": "G6",
          "ticks": 136224,
          "time": 96.74990325,
          "velocity": 0.30708661417322836
        },
        {
          "duration": 0.0852271874999957,
          "durationTicks": 120,
          "midi": 50,
          "name": "D3",
          "ticks": 136224,
          "time": 96.74990325,
          "velocity": 0.30708661417322836
        },
        {
          "duration": 0.0852271874999957,
          "durationTicks": 120,
          "midi": 50,
          "name": "D3",
          "ticks": 136224,
          "time": 96.74990325,
          "velocity": 0.30708661417322836
        },
        {
          "duration": 0.0852271874999957,
          "durationTicks": 120,
          "midi": 86,
          "name": "D6",
          "ticks": 136224,
          "time": 96.74990325,
          "velocity": 0.30708661417322836
        },
        {
          "duration": 0.0852271874999957,
          "durationTicks": 120,
          "midi": 95,
          "name": "B6",
          "ticks": 136224,
          "time": 96.74990325,
          "velocity": 0.30708661417322836
        },
        {
          "duration": 0.0852271874999957,
          "durationTicks": 120,
          "midi": 86,
          "name": "D6",
          "ticks": 136224,
          "time": 96.74990325,
          "velocity": 0.30708661417322836
        },
        {
          "duration": 0.0852271874999957,
          "durationTicks": 120,
          "midi": 91,
          "name": "G6",
          "ticks": 136224,
          "time": 96.74990325,
          "velocity": 0.30708661417322836
        },
        {
          "duration": 0.0852271874999957,
          "durationTicks": 120,
          "midi": 95,
          "name": "B6",
          "ticks": 136248,
          "time": 96.7669486875,
          "velocity": 0.30708661417322836
        },
        {
          "duration": 0.0852271874999957,
          "durationTicks": 120,
          "midi": 50,
          "name": "D3",
          "ticks": 136248,
          "time": 96.7669486875,
          "velocity": 0.30708661417322836
        },
        {
          "duration": 0.0852271874999957,
          "durationTicks": 120,
          "midi": 91,
          "name": "G6",
          "ticks": 136248,
          "time": 96.7669486875,
          "velocity": 0.30708661417322836
        },
        {
          "duration": 0.0852271874999957,
          "durationTicks": 120,
          "midi": 86,
          "name": "D6",
          "ticks": 136248,
          "time": 96.7669486875,
          "velocity": 0.30708661417322836
        },
        {
          "duration": 0.0852271874999957,
          "durationTicks": 120,
          "midi": 84,
          "name": "C6",
          "ticks": 136344,
          "time": 96.8351304375,
          "velocity": 0.30708661417322836
        },
        {
          "duration": 0.0852271874999957,
          "durationTicks": 120,
          "midi": 84,
          "name": "C6",
          "ticks": 136344,
          "time": 96.8351304375,
          "velocity": 0.30708661417322836
        },
        {
          "duration": 0.0852271874999957,
          "durationTicks": 120,
          "midi": 93,
          "name": "A6",
          "ticks": 136344,
          "time": 96.8351304375,
          "velocity": 0.30708661417322836
        },
        {
          "duration": 0.0852271874999957,
          "durationTicks": 120,
          "midi": 84,
          "name": "C6",
          "ticks": 136344,
          "time": 96.8351304375,
          "velocity": 0.30708661417322836
        },
        {
          "duration": 0.0852271874999957,
          "durationTicks": 120,
          "midi": 84,
          "name": "C6",
          "ticks": 136344,
          "time": 96.8351304375,
          "velocity": 0.30708661417322836
        },
        {
          "duration": 0.0852271874999957,
          "durationTicks": 120,
          "midi": 93,
          "name": "A6",
          "ticks": 136344,
          "time": 96.8351304375,
          "velocity": 0.30708661417322836
        },
        {
          "duration": 0.0852271874999957,
          "durationTicks": 120,
          "midi": 88,
          "name": "E6",
          "ticks": 136344,
          "time": 96.8351304375,
          "velocity": 0.30708661417322836
        },
        {
          "duration": 0.0852271874999957,
          "durationTicks": 120,
          "midi": 88,
          "name": "E6",
          "ticks": 136344,
          "time": 96.8351304375,
          "velocity": 0.30708661417322836
        },
        {
          "duration": 0.0852271874999957,
          "durationTicks": 120,
          "midi": 93,
          "name": "A6",
          "ticks": 136368,
          "time": 96.852175875,
          "velocity": 0.30708661417322836
        },
        {
          "duration": 0.0852271874999957,
          "durationTicks": 120,
          "midi": 88,
          "name": "E6",
          "ticks": 136368,
          "time": 96.852175875,
          "velocity": 0.30708661417322836
        },
        {
          "duration": 0.0852271874999957,
          "durationTicks": 120,
          "midi": 84,
          "name": "C6",
          "ticks": 136368,
          "time": 96.852175875,
          "velocity": 0.30708661417322836
        },
        {
          "duration": 0.0852271874999957,
          "durationTicks": 120,
          "midi": 84,
          "name": "C6",
          "ticks": 136368,
          "time": 96.852175875,
          "velocity": 0.30708661417322836
        },
        {
          "duration": 0.0852271875000099,
          "durationTicks": 120,
          "midi": 88,
          "name": "E6",
          "ticks": 136464,
          "time": 96.920357625,
          "velocity": 0.30708661417322836
        },
        {
          "duration": 0.0852271875000099,
          "durationTicks": 120,
          "midi": 91,
          "name": "G6",
          "ticks": 136464,
          "time": 96.920357625,
          "velocity": 0.30708661417322836
        },
        {
          "duration": 0.0852271875000099,
          "durationTicks": 120,
          "midi": 91,
          "name": "G6",
          "ticks": 136464,
          "time": 96.920357625,
          "velocity": 0.30708661417322836
        },
        {
          "duration": 0.0852271875000099,
          "durationTicks": 120,
          "midi": 53,
          "name": "F3",
          "ticks": 136464,
          "time": 96.920357625,
          "velocity": 0.30708661417322836
        },
        {
          "duration": 0.0852271875000099,
          "durationTicks": 120,
          "midi": 59,
          "name": "B3",
          "ticks": 136464,
          "time": 96.920357625,
          "velocity": 0.30708661417322836
        },
        {
          "duration": 0.0852271875000099,
          "durationTicks": 120,
          "midi": 83,
          "name": "B5",
          "ticks": 136464,
          "time": 96.920357625,
          "velocity": 0.30708661417322836
        },
        {
          "duration": 0.0852271875000099,
          "durationTicks": 120,
          "midi": 53,
          "name": "F3",
          "ticks": 136464,
          "time": 96.920357625,
          "velocity": 0.30708661417322836
        },
        {
          "duration": 0.0852271875000099,
          "durationTicks": 120,
          "midi": 95,
          "name": "B6",
          "ticks": 136464,
          "time": 96.920357625,
          "velocity": 0.30708661417322836
        },
        {
          "duration": 0.0852271875000099,
          "durationTicks": 120,
          "midi": 88,
          "name": "E6",
          "ticks": 136464,
          "time": 96.920357625,
          "velocity": 0.30708661417322836
        },
        {
          "duration": 0.0852271875000099,
          "durationTicks": 120,
          "midi": 83,
          "name": "B5",
          "ticks": 136464,
          "time": 96.920357625,
          "velocity": 0.30708661417322836
        },
        {
          "duration": 0.0852271875000099,
          "durationTicks": 120,
          "midi": 95,
          "name": "B6",
          "ticks": 136464,
          "time": 96.920357625,
          "velocity": 0.30708661417322836
        },
        {
          "duration": 0.0852271875000099,
          "durationTicks": 120,
          "midi": 59,
          "name": "B3",
          "ticks": 136464,
          "time": 96.920357625,
          "velocity": 0.30708661417322836
        },
        {
          "duration": 0.0852271875000099,
          "durationTicks": 120,
          "midi": 53,
          "name": "F3",
          "ticks": 136488,
          "time": 96.9374030625,
          "velocity": 0.30708661417322836
        },
        {
          "duration": 0.0852271875000099,
          "durationTicks": 120,
          "midi": 59,
          "name": "B3",
          "ticks": 136488,
          "time": 96.9374030625,
          "velocity": 0.30708661417322836
        },
        {
          "duration": 0.0852271875000099,
          "durationTicks": 120,
          "midi": 83,
          "name": "B5",
          "ticks": 136488,
          "time": 96.9374030625,
          "velocity": 0.30708661417322836
        },
        {
          "duration": 0.0852271875000099,
          "durationTicks": 120,
          "midi": 91,
          "name": "G6",
          "ticks": 136488,
          "time": 96.9374030625,
          "velocity": 0.30708661417322836
        },
        {
          "duration": 0.0852271875000099,
          "durationTicks": 120,
          "midi": 88,
          "name": "E6",
          "ticks": 136488,
          "time": 96.9374030625,
          "velocity": 0.30708661417322836
        },
        {
          "duration": 0.0852271875000099,
          "durationTicks": 120,
          "midi": 95,
          "name": "B6",
          "ticks": 136488,
          "time": 96.9374030625,
          "velocity": 0.30708661417322836
        },
        {
          "duration": 0.0852271874999957,
          "durationTicks": 120,
          "midi": 86,
          "name": "D6",
          "ticks": 136584,
          "time": 97.0055848125,
          "velocity": 0.30708661417322836
        },
        {
          "duration": 0.0852271874999957,
          "durationTicks": 120,
          "midi": 86,
          "name": "D6",
          "ticks": 136584,
          "time": 97.0055848125,
          "velocity": 0.30708661417322836
        },
        {
          "duration": 0.0852271874999957,
          "durationTicks": 120,
          "midi": 86,
          "name": "D6",
          "ticks": 136608,
          "time": 97.02263025,
          "velocity": 0.30708661417322836
        },
        {
          "duration": 0.0852271874999957,
          "durationTicks": 120,
          "midi": 84,
          "name": "C6",
          "ticks": 136704,
          "time": 97.090812,
          "velocity": 0.30708661417322836
        },
        {
          "duration": 0.0852271874999957,
          "durationTicks": 120,
          "midi": 84,
          "name": "C6",
          "ticks": 136704,
          "time": 97.090812,
          "velocity": 0.30708661417322836
        },
        {
          "duration": 0.15340893750000362,
          "durationTicks": 216,
          "midi": 48,
          "name": "C3",
          "ticks": 136704,
          "time": 97.090812,
          "velocity": 0.30708661417322836
        },
        {
          "duration": 0.0852271874999957,
          "durationTicks": 120,
          "midi": 84,
          "name": "C6",
          "ticks": 136704,
          "time": 97.090812,
          "velocity": 0.30708661417322836
        },
        {
          "duration": 0.0852271874999957,
          "durationTicks": 120,
          "midi": 84,
          "name": "C6",
          "ticks": 136704,
          "time": 97.090812,
          "velocity": 0.30708661417322836
        },
        {
          "duration": 0.15340893750000362,
          "durationTicks": 216,
          "midi": 48,
          "name": "C3",
          "ticks": 136704,
          "time": 97.090812,
          "velocity": 0.30708661417322836
        },
        {
          "duration": 0.15340893750000362,
          "durationTicks": 216,
          "midi": 48,
          "name": "C3",
          "ticks": 136728,
          "time": 97.1078574375,
          "velocity": 0.30708661417322836
        },
        {
          "duration": 0.0852271874999957,
          "durationTicks": 120,
          "midi": 84,
          "name": "C6",
          "ticks": 136728,
          "time": 97.1078574375,
          "velocity": 0.30708661417322836
        },
        {
          "duration": 0.0852271874999957,
          "durationTicks": 120,
          "midi": 84,
          "name": "C6",
          "ticks": 136728,
          "time": 97.1078574375,
          "velocity": 0.30708661417322836
        },
        {
          "duration": 0.0852271875000099,
          "durationTicks": 120,
          "midi": 91,
          "name": "G6",
          "ticks": 136824,
          "time": 97.1760391875,
          "velocity": 0.30708661417322836
        },
        {
          "duration": 0.0852271875000099,
          "durationTicks": 120,
          "midi": 83,
          "name": "B5",
          "ticks": 136824,
          "time": 97.1760391875,
          "velocity": 0.30708661417322836
        },
        {
          "duration": 0.0852271875000099,
          "durationTicks": 120,
          "midi": 95,
          "name": "B6",
          "ticks": 136824,
          "time": 97.1760391875,
          "velocity": 0.30708661417322836
        },
        {
          "duration": 0.0852271875000099,
          "durationTicks": 120,
          "midi": 91,
          "name": "G6",
          "ticks": 136824,
          "time": 97.1760391875,
          "velocity": 0.30708661417322836
        },
        {
          "duration": 0.0852271875000099,
          "durationTicks": 120,
          "midi": 86,
          "name": "D6",
          "ticks": 136824,
          "time": 97.1760391875,
          "velocity": 0.30708661417322836
        },
        {
          "duration": 0.0852271875000099,
          "durationTicks": 120,
          "midi": 83,
          "name": "B5",
          "ticks": 136824,
          "time": 97.1760391875,
          "velocity": 0.30708661417322836
        },
        {
          "duration": 0.0852271875000099,
          "durationTicks": 120,
          "midi": 86,
          "name": "D6",
          "ticks": 136824,
          "time": 97.1760391875,
          "velocity": 0.30708661417322836
        },
        {
          "duration": 0.0852271875000099,
          "durationTicks": 120,
          "midi": 95,
          "name": "B6",
          "ticks": 136824,
          "time": 97.1760391875,
          "velocity": 0.30708661417322836
        },
        {
          "duration": 0.0852271874999957,
          "durationTicks": 120,
          "midi": 95,
          "name": "B6",
          "ticks": 136848,
          "time": 97.193084625,
          "velocity": 0.30708661417322836
        },
        {
          "duration": 0.0852271874999957,
          "durationTicks": 120,
          "midi": 83,
          "name": "B5",
          "ticks": 136848,
          "time": 97.193084625,
          "velocity": 0.30708661417322836
        },
        {
          "duration": 0.0852271874999957,
          "durationTicks": 120,
          "midi": 91,
          "name": "G6",
          "ticks": 136848,
          "time": 97.193084625,
          "velocity": 0.30708661417322836
        },
        {
          "duration": 0.0852271874999957,
          "durationTicks": 120,
          "midi": 86,
          "name": "D6",
          "ticks": 136848,
          "time": 97.193084625,
          "velocity": 0.30708661417322836
        },
        {
          "duration": 0.0852271874999957,
          "durationTicks": 120,
          "midi": 81,
          "name": "A5",
          "ticks": 136944,
          "time": 97.261266375,
          "velocity": 0.30708661417322836
        },
        {
          "duration": 0.0852271874999957,
          "durationTicks": 120,
          "midi": 52,
          "name": "E3",
          "ticks": 136944,
          "time": 97.261266375,
          "velocity": 0.30708661417322836
        },
        {
          "duration": 0.0852271874999957,
          "durationTicks": 120,
          "midi": 93,
          "name": "A6",
          "ticks": 136944,
          "time": 97.261266375,
          "velocity": 0.30708661417322836
        },
        {
          "duration": 0.0852271874999957,
          "durationTicks": 120,
          "midi": 60,
          "name": "C4",
          "ticks": 136944,
          "time": 97.261266375,
          "velocity": 0.30708661417322836
        },
        {
          "duration": 0.0852271874999957,
          "durationTicks": 120,
          "midi": 81,
          "name": "A5",
          "ticks": 136944,
          "time": 97.261266375,
          "velocity": 0.30708661417322836
        },
        {
          "duration": 0.0852271874999957,
          "durationTicks": 120,
          "midi": 60,
          "name": "C4",
          "ticks": 136944,
          "time": 97.261266375,
          "velocity": 0.30708661417322836
        },
        {
          "duration": 0.0852271874999957,
          "durationTicks": 120,
          "midi": 52,
          "name": "E3",
          "ticks": 136944,
          "time": 97.261266375,
          "velocity": 0.30708661417322836
        },
        {
          "duration": 0.0852271874999957,
          "durationTicks": 120,
          "midi": 93,
          "name": "A6",
          "ticks": 136944,
          "time": 97.261266375,
          "velocity": 0.30708661417322836
        },
        {
          "duration": 0.0852271875000099,
          "durationTicks": 120,
          "midi": 81,
          "name": "A5",
          "ticks": 136968,
          "time": 97.2783118125,
          "velocity": 0.30708661417322836
        },
        {
          "duration": 0.0852271875000099,
          "durationTicks": 120,
          "midi": 52,
          "name": "E3",
          "ticks": 136968,
          "time": 97.2783118125,
          "velocity": 0.30708661417322836
        },
        {
          "duration": 0.0852271875000099,
          "durationTicks": 120,
          "midi": 93,
          "name": "A6",
          "ticks": 136968,
          "time": 97.2783118125,
          "velocity": 0.30708661417322836
        },
        {
          "duration": 0.0852271875000099,
          "durationTicks": 120,
          "midi": 60,
          "name": "C4",
          "ticks": 136968,
          "time": 97.2783118125,
          "velocity": 0.30708661417322836
        },
        {
          "duration": 0.0852271874999957,
          "durationTicks": 120,
          "midi": 84,
          "name": "C6",
          "ticks": 137040,
          "time": 97.329448125,
          "velocity": 0.30708661417322836
        },
        {
          "duration": 0.0852271874999957,
          "durationTicks": 120,
          "midi": 84,
          "name": "C6",
          "ticks": 137040,
          "time": 97.329448125,
          "velocity": 0.30708661417322836
        },
        {
          "duration": 0.0852271874999957,
          "durationTicks": 120,
          "midi": 84,
          "name": "C6",
          "ticks": 137040,
          "time": 97.329448125,
          "velocity": 0.30708661417322836
        },
        {
          "duration": 0.0852271874999957,
          "durationTicks": 120,
          "midi": 84,
          "name": "C6",
          "ticks": 137040,
          "time": 97.329448125,
          "velocity": 0.30708661417322836
        },
        {
          "duration": 0.0852271874999957,
          "durationTicks": 120,
          "midi": 84,
          "name": "C6",
          "ticks": 137064,
          "time": 97.3464935625,
          "velocity": 0.30708661417322836
        },
        {
          "duration": 0.0852271874999957,
          "durationTicks": 120,
          "midi": 84,
          "name": "C6",
          "ticks": 137064,
          "time": 97.3464935625,
          "velocity": 0.30708661417322836
        },
        {
          "duration": 0.0852271875000099,
          "durationTicks": 120,
          "midi": 91,
          "name": "G6",
          "ticks": 137160,
          "time": 97.4146753125,
          "velocity": 0.30708661417322836
        },
        {
          "duration": 0.0852271875000099,
          "durationTicks": 120,
          "midi": 95,
          "name": "B6",
          "ticks": 137160,
          "time": 97.4146753125,
          "velocity": 0.30708661417322836
        },
        {
          "duration": 0.0852271875000099,
          "durationTicks": 120,
          "midi": 86,
          "name": "D6",
          "ticks": 137160,
          "time": 97.4146753125,
          "velocity": 0.30708661417322836
        },
        {
          "duration": 0.0852271875000099,
          "durationTicks": 120,
          "midi": 91,
          "name": "G6",
          "ticks": 137160,
          "time": 97.4146753125,
          "velocity": 0.30708661417322836
        },
        {
          "duration": 0.0852271875000099,
          "durationTicks": 120,
          "midi": 83,
          "name": "B5",
          "ticks": 137160,
          "time": 97.4146753125,
          "velocity": 0.30708661417322836
        },
        {
          "duration": 0.0852271875000099,
          "durationTicks": 120,
          "midi": 86,
          "name": "D6",
          "ticks": 137160,
          "time": 97.4146753125,
          "velocity": 0.30708661417322836
        },
        {
          "duration": 0.0852271875000099,
          "durationTicks": 120,
          "midi": 83,
          "name": "B5",
          "ticks": 137160,
          "time": 97.4146753125,
          "velocity": 0.30708661417322836
        },
        {
          "duration": 0.0852271875000099,
          "durationTicks": 120,
          "midi": 95,
          "name": "B6",
          "ticks": 137160,
          "time": 97.4146753125,
          "velocity": 0.30708661417322836
        },
        {
          "duration": 0.0852271874999957,
          "durationTicks": 120,
          "midi": 86,
          "name": "D6",
          "ticks": 137184,
          "time": 97.43172075,
          "velocity": 0.30708661417322836
        },
        {
          "duration": 0.0852271874999957,
          "durationTicks": 120,
          "midi": 83,
          "name": "B5",
          "ticks": 137184,
          "time": 97.43172075,
          "velocity": 0.30708661417322836
        },
        {
          "duration": 0.0852271874999957,
          "durationTicks": 120,
          "midi": 95,
          "name": "B6",
          "ticks": 137184,
          "time": 97.43172075,
          "velocity": 0.30708661417322836
        },
        {
          "duration": 0.15340893750000362,
          "durationTicks": 216,
          "midi": 47,
          "name": "B2",
          "ticks": 137184,
          "time": 97.43172075,
          "velocity": 0.30708661417322836
        },
        {
          "duration": 0.0852271874999957,
          "durationTicks": 120,
          "midi": 91,
          "name": "G6",
          "ticks": 137184,
          "time": 97.43172075,
          "velocity": 0.30708661417322836
        },
        {
          "duration": 0.15340893750000362,
          "durationTicks": 216,
          "midi": 47,
          "name": "B2",
          "ticks": 137184,
          "time": 97.43172075,
          "velocity": 0.30708661417322836
        },
        {
          "duration": 0.15340893750000362,
          "durationTicks": 216,
          "midi": 47,
          "name": "B2",
          "ticks": 137208,
          "time": 97.4487661875,
          "velocity": 0.30708661417322836
        },
        {
          "duration": 0.0852271874999957,
          "durationTicks": 120,
          "midi": 81,
          "name": "A5",
          "ticks": 137280,
          "time": 97.4999025,
          "velocity": 0.30708661417322836
        },
        {
          "duration": 0.0852271874999957,
          "durationTicks": 120,
          "midi": 93,
          "name": "A6",
          "ticks": 137280,
          "time": 97.4999025,
          "velocity": 0.30708661417322836
        },
        {
          "duration": 0.0852271874999957,
          "durationTicks": 120,
          "midi": 81,
          "name": "A5",
          "ticks": 137280,
          "time": 97.4999025,
          "velocity": 0.30708661417322836
        },
        {
          "duration": 0.0852271874999957,
          "durationTicks": 120,
          "midi": 93,
          "name": "A6",
          "ticks": 137280,
          "time": 97.4999025,
          "velocity": 0.30708661417322836
        },
        {
          "duration": 0.0852271875000099,
          "durationTicks": 120,
          "midi": 93,
          "name": "A6",
          "ticks": 137304,
          "time": 97.51694793749999,
          "velocity": 0.30708661417322836
        },
        {
          "duration": 0.0852271875000099,
          "durationTicks": 120,
          "midi": 81,
          "name": "A5",
          "ticks": 137304,
          "time": 97.51694793749999,
          "velocity": 0.30708661417322836
        },
        {
          "duration": 0.0852271874999957,
          "durationTicks": 120,
          "midi": 92,
          "name": "G#6",
          "ticks": 137424,
          "time": 97.602175125,
          "velocity": 0.30708661417322836
        },
        {
          "duration": 0.0852271874999957,
          "durationTicks": 120,
          "midi": 80,
          "name": "G#5",
          "ticks": 137424,
          "time": 97.602175125,
          "velocity": 0.30708661417322836
        },
        {
          "duration": 0.0852271874999957,
          "durationTicks": 120,
          "midi": 80,
          "name": "G#5",
          "ticks": 137424,
          "time": 97.602175125,
          "velocity": 0.30708661417322836
        },
        {
          "duration": 0.0852271874999957,
          "durationTicks": 120,
          "midi": 57,
          "name": "A3",
          "ticks": 137424,
          "time": 97.602175125,
          "velocity": 0.30708661417322836
        },
        {
          "duration": 0.0852271874999957,
          "durationTicks": 120,
          "midi": 57,
          "name": "A3",
          "ticks": 137424,
          "time": 97.602175125,
          "velocity": 0.30708661417322836
        },
        {
          "duration": 0.0852271874999957,
          "durationTicks": 120,
          "midi": 50,
          "name": "D3",
          "ticks": 137424,
          "time": 97.602175125,
          "velocity": 0.30708661417322836
        },
        {
          "duration": 0.0852271874999957,
          "durationTicks": 120,
          "midi": 50,
          "name": "D3",
          "ticks": 137424,
          "time": 97.602175125,
          "velocity": 0.30708661417322836
        },
        {
          "duration": 0.0852271874999957,
          "durationTicks": 120,
          "midi": 92,
          "name": "G#6",
          "ticks": 137424,
          "time": 97.602175125,
          "velocity": 0.30708661417322836
        },
        {
          "duration": 0.0852271874999957,
          "durationTicks": 120,
          "midi": 50,
          "name": "D3",
          "ticks": 137448,
          "time": 97.6192205625,
          "velocity": 0.30708661417322836
        },
        {
          "duration": 0.0852271874999957,
          "durationTicks": 120,
          "midi": 92,
          "name": "G#6",
          "ticks": 137448,
          "time": 97.6192205625,
          "velocity": 0.30708661417322836
        },
        {
          "duration": 0.0852271874999957,
          "durationTicks": 120,
          "midi": 57,
          "name": "A3",
          "ticks": 137448,
          "time": 97.6192205625,
          "velocity": 0.30708661417322836
        },
        {
          "duration": 0.0852271874999957,
          "durationTicks": 120,
          "midi": 80,
          "name": "G#5",
          "ticks": 137448,
          "time": 97.6192205625,
          "velocity": 0.30708661417322836
        },
        {
          "duration": 0.0852271874999957,
          "durationTicks": 120,
          "midi": 86,
          "name": "D6",
          "ticks": 137544,
          "time": 97.6874023125,
          "velocity": 0.30708661417322836
        },
        {
          "duration": 0.0852271874999957,
          "durationTicks": 120,
          "midi": 95,
          "name": "B6",
          "ticks": 137544,
          "time": 97.6874023125,
          "velocity": 0.30708661417322836
        },
        {
          "duration": 0.0852271874999957,
          "durationTicks": 120,
          "midi": 83,
          "name": "B5",
          "ticks": 137544,
          "time": 97.6874023125,
          "velocity": 0.30708661417322836
        },
        {
          "duration": 0.0852271874999957,
          "durationTicks": 120,
          "midi": 83,
          "name": "B5",
          "ticks": 137544,
          "time": 97.6874023125,
          "velocity": 0.30708661417322836
        },
        {
          "duration": 0.0852271874999957,
          "durationTicks": 120,
          "midi": 95,
          "name": "B6",
          "ticks": 137544,
          "time": 97.6874023125,
          "velocity": 0.30708661417322836
        },
        {
          "duration": 0.0852271874999957,
          "durationTicks": 120,
          "midi": 91,
          "name": "G6",
          "ticks": 137544,
          "time": 97.6874023125,
          "velocity": 0.30708661417322836
        },
        {
          "duration": 0.0852271874999957,
          "durationTicks": 120,
          "midi": 91,
          "name": "G6",
          "ticks": 137544,
          "time": 97.6874023125,
          "velocity": 0.30708661417322836
        },
        {
          "duration": 0.0852271874999957,
          "durationTicks": 120,
          "midi": 86,
          "name": "D6",
          "ticks": 137544,
          "time": 97.6874023125,
          "velocity": 0.30708661417322836
        },
        {
          "duration": 0.0852271874999957,
          "durationTicks": 120,
          "midi": 83,
          "name": "B5",
          "ticks": 137568,
          "time": 97.70444775,
          "velocity": 0.30708661417322836
        },
        {
          "duration": 0.0852271874999957,
          "durationTicks": 120,
          "midi": 95,
          "name": "B6",
          "ticks": 137568,
          "time": 97.70444775,
          "velocity": 0.30708661417322836
        },
        {
          "duration": 0.0852271874999957,
          "durationTicks": 120,
          "midi": 91,
          "name": "G6",
          "ticks": 137568,
          "time": 97.70444775,
          "velocity": 0.30708661417322836
        },
        {
          "duration": 0.0852271874999957,
          "durationTicks": 120,
          "midi": 86,
          "name": "D6",
          "ticks": 137568,
          "time": 97.70444775,
          "velocity": 0.30708661417322836
        },
        {
          "duration": 0.15340893750000362,
          "durationTicks": 216,
          "midi": 45,
          "name": "A2",
          "ticks": 137664,
          "time": 97.7726295,
          "velocity": 0.30708661417322836
        },
        {
          "duration": 0.0852271875000099,
          "durationTicks": 120,
          "midi": 93,
          "name": "A6",
          "ticks": 137664,
          "time": 97.7726295,
          "velocity": 0.30708661417322836
        },
        {
          "duration": 0.0852271875000099,
          "durationTicks": 120,
          "midi": 81,
          "name": "A5",
          "ticks": 137664,
          "time": 97.7726295,
          "velocity": 0.30708661417322836
        },
        {
          "duration": 0.15340893750000362,
          "durationTicks": 216,
          "midi": 45,
          "name": "A2",
          "ticks": 137664,
          "time": 97.7726295,
          "velocity": 0.30708661417322836
        },
        {
          "duration": 0.0852271875000099,
          "durationTicks": 120,
          "midi": 93,
          "name": "A6",
          "ticks": 137664,
          "time": 97.7726295,
          "velocity": 0.30708661417322836
        },
        {
          "duration": 0.0852271875000099,
          "durationTicks": 120,
          "midi": 81,
          "name": "A5",
          "ticks": 137664,
          "time": 97.7726295,
          "velocity": 0.30708661417322836
        },
        {
          "duration": 0.0852271875000099,
          "durationTicks": 120,
          "midi": 93,
          "name": "A6",
          "ticks": 137688,
          "time": 97.7896749375,
          "velocity": 0.30708661417322836
        },
        {
          "duration": 0.15340893750000362,
          "durationTicks": 216,
          "midi": 45,
          "name": "A2",
          "ticks": 137688,
          "time": 97.7896749375,
          "velocity": 0.30708661417322836
        },
        {
          "duration": 0.0852271875000099,
          "durationTicks": 120,
          "midi": 81,
          "name": "A5",
          "ticks": 137688,
          "time": 97.7896749375,
          "velocity": 0.30708661417322836
        },
        {
          "duration": 0.0852271874999957,
          "durationTicks": 120,
          "midi": 88,
          "name": "E6",
          "ticks": 137784,
          "time": 97.8578566875,
          "velocity": 0.30708661417322836
        },
        {
          "duration": 0.0852271874999957,
          "durationTicks": 120,
          "midi": 76,
          "name": "E5",
          "ticks": 137784,
          "time": 97.8578566875,
          "velocity": 0.30708661417322836
        },
        {
          "duration": 0.0852271874999957,
          "durationTicks": 120,
          "midi": 88,
          "name": "E6",
          "ticks": 137784,
          "time": 97.8578566875,
          "velocity": 0.30708661417322836
        },
        {
          "duration": 0.0852271874999957,
          "durationTicks": 120,
          "midi": 76,
          "name": "E5",
          "ticks": 137784,
          "time": 97.8578566875,
          "velocity": 0.30708661417322836
        },
        {
          "duration": 0.0852271874999957,
          "durationTicks": 120,
          "midi": 76,
          "name": "E5",
          "ticks": 137808,
          "time": 97.874902125,
          "velocity": 0.30708661417322836
        },
        {
          "duration": 0.0852271874999957,
          "durationTicks": 120,
          "midi": 88,
          "name": "E6",
          "ticks": 137808,
          "time": 97.874902125,
          "velocity": 0.30708661417322836
        },
        {
          "duration": 0.0852271874999957,
          "durationTicks": 120,
          "midi": 48,
          "name": "C3",
          "ticks": 137904,
          "time": 97.943083875,
          "velocity": 0.30708661417322836
        },
        {
          "duration": 0.0852271874999957,
          "durationTicks": 120,
          "midi": 84,
          "name": "C6",
          "ticks": 137904,
          "time": 97.943083875,
          "velocity": 0.30708661417322836
        },
        {
          "duration": 0.0852271874999957,
          "durationTicks": 120,
          "midi": 72,
          "name": "C5",
          "ticks": 137904,
          "time": 97.943083875,
          "velocity": 0.30708661417322836
        },
        {
          "duration": 0.0852271874999957,
          "durationTicks": 120,
          "midi": 48,
          "name": "C3",
          "ticks": 137904,
          "time": 97.943083875,
          "velocity": 0.30708661417322836
        },
        {
          "duration": 0.0852271874999957,
          "durationTicks": 120,
          "midi": 57,
          "name": "A3",
          "ticks": 137904,
          "time": 97.943083875,
          "velocity": 0.30708661417322836
        },
        {
          "duration": 0.0852271874999957,
          "durationTicks": 120,
          "midi": 57,
          "name": "A3",
          "ticks": 137904,
          "time": 97.943083875,
          "velocity": 0.30708661417322836
        },
        {
          "duration": 0.0852271874999957,
          "durationTicks": 120,
          "midi": 84,
          "name": "C6",
          "ticks": 137904,
          "time": 97.943083875,
          "velocity": 0.30708661417322836
        },
        {
          "duration": 0.0852271874999957,
          "durationTicks": 120,
          "midi": 72,
          "name": "C5",
          "ticks": 137904,
          "time": 97.943083875,
          "velocity": 0.30708661417322836
        },
        {
          "duration": 0.0852271874999957,
          "durationTicks": 120,
          "midi": 48,
          "name": "C3",
          "ticks": 137928,
          "time": 97.9601293125,
          "velocity": 0.30708661417322836
        },
        {
          "duration": 0.0852271874999957,
          "durationTicks": 120,
          "midi": 84,
          "name": "C6",
          "ticks": 137928,
          "time": 97.9601293125,
          "velocity": 0.30708661417322836
        },
        {
          "duration": 0.0852271874999957,
          "durationTicks": 120,
          "midi": 72,
          "name": "C5",
          "ticks": 137928,
          "time": 97.9601293125,
          "velocity": 0.30708661417322836
        },
        {
          "duration": 0.0852271874999957,
          "durationTicks": 120,
          "midi": 57,
          "name": "A3",
          "ticks": 137928,
          "time": 97.9601293125,
          "velocity": 0.30708661417322836
        },
        {
          "duration": 0.0852271875000099,
          "durationTicks": 120,
          "midi": 81,
          "name": "A5",
          "ticks": 138024,
          "time": 98.0283110625,
          "velocity": 0.30708661417322836
        },
        {
          "duration": 0.0852271875000099,
          "durationTicks": 120,
          "midi": 69,
          "name": "A4",
          "ticks": 138024,
          "time": 98.0283110625,
          "velocity": 0.30708661417322836
        },
        {
          "duration": 0.0852271875000099,
          "durationTicks": 120,
          "midi": 81,
          "name": "A5",
          "ticks": 138024,
          "time": 98.0283110625,
          "velocity": 0.30708661417322836
        },
        {
          "duration": 0.0852271875000099,
          "durationTicks": 120,
          "midi": 69,
          "name": "A4",
          "ticks": 138024,
          "time": 98.0283110625,
          "velocity": 0.30708661417322836
        },
        {
          "duration": 0.0852271874999957,
          "durationTicks": 120,
          "midi": 81,
          "name": "A5",
          "ticks": 138048,
          "time": 98.0453565,
          "velocity": 0.30708661417322836
        },
        {
          "duration": 0.0852271874999957,
          "durationTicks": 120,
          "midi": 69,
          "name": "A4",
          "ticks": 138048,
          "time": 98.0453565,
          "velocity": 0.30708661417322836
        },
        {
          "duration": 0.0852271874999957,
          "durationTicks": 120,
          "midi": 40,
          "name": "E2",
          "ticks": 138144,
          "time": 98.11353825,
          "velocity": 0.30708661417322836
        },
        {
          "duration": 0.0852271874999957,
          "durationTicks": 120,
          "midi": 52,
          "name": "E3",
          "ticks": 138144,
          "time": 98.11353825,
          "velocity": 0.30708661417322836
        },
        {
          "duration": 0.0852271874999957,
          "durationTicks": 120,
          "midi": 77,
          "name": "F5",
          "ticks": 138144,
          "time": 98.11353825,
          "velocity": 0.30708661417322836
        },
        {
          "duration": 0.0852271874999957,
          "durationTicks": 120,
          "midi": 77,
          "name": "F5",
          "ticks": 138144,
          "time": 98.11353825,
          "velocity": 0.30708661417322836
        },
        {
          "duration": 0.0852271874999957,
          "durationTicks": 120,
          "midi": 84,
          "name": "C6",
          "ticks": 138144,
          "time": 98.11353825,
          "velocity": 0.30708661417322836
        },
        {
          "duration": 0.0852271874999957,
          "durationTicks": 120,
          "midi": 84,
          "name": "C6",
          "ticks": 138144,
          "time": 98.11353825,
          "velocity": 0.30708661417322836
        },
        {
          "duration": 0.0852271874999957,
          "durationTicks": 120,
          "midi": 89,
          "name": "F6",
          "ticks": 138144,
          "time": 98.11353825,
          "velocity": 0.30708661417322836
        },
        {
          "duration": 0.0852271874999957,
          "durationTicks": 120,
          "midi": 52,
          "name": "E3",
          "ticks": 138144,
          "time": 98.11353825,
          "velocity": 0.30708661417322836
        },
        {
          "duration": 0.0852271874999957,
          "durationTicks": 120,
          "midi": 89,
          "name": "F6",
          "ticks": 138144,
          "time": 98.11353825,
          "velocity": 0.30708661417322836
        },
        {
          "duration": 0.0852271874999957,
          "durationTicks": 120,
          "midi": 40,
          "name": "E2",
          "ticks": 138144,
          "time": 98.11353825,
          "velocity": 0.30708661417322836
        },
        {
          "duration": 0.0852271875000099,
          "durationTicks": 120,
          "midi": 40,
          "name": "E2",
          "ticks": 138168,
          "time": 98.13058368749999,
          "velocity": 0.30708661417322836
        },
        {
          "duration": 0.0852271875000099,
          "durationTicks": 120,
          "midi": 89,
          "name": "F6",
          "ticks": 138168,
          "time": 98.13058368749999,
          "velocity": 0.30708661417322836
        },
        {
          "duration": 0.0852271875000099,
          "durationTicks": 120,
          "midi": 77,
          "name": "F5",
          "ticks": 138168,
          "time": 98.13058368749999,
          "velocity": 0.30708661417322836
        },
        {
          "duration": 0.0852271875000099,
          "durationTicks": 120,
          "midi": 84,
          "name": "C6",
          "ticks": 138168,
          "time": 98.13058368749999,
          "velocity": 0.30708661417322836
        },
        {
          "duration": 0.0852271875000099,
          "durationTicks": 120,
          "midi": 52,
          "name": "E3",
          "ticks": 138168,
          "time": 98.13058368749999,
          "velocity": 0.30708661417322836
        },
        {
          "duration": 0.0852271874999957,
          "durationTicks": 120,
          "midi": 88,
          "name": "E6",
          "ticks": 138264,
          "time": 98.1987654375,
          "velocity": 0.30708661417322836
        },
        {
          "duration": 0.0852271874999957,
          "durationTicks": 120,
          "midi": 76,
          "name": "E5",
          "ticks": 138264,
          "time": 98.1987654375,
          "velocity": 0.30708661417322836
        },
        {
          "duration": 0.0852271874999957,
          "durationTicks": 120,
          "midi": 83,
          "name": "B5",
          "ticks": 138264,
          "time": 98.1987654375,
          "velocity": 0.30708661417322836
        },
        {
          "duration": 0.0852271874999957,
          "durationTicks": 120,
          "midi": 83,
          "name": "B5",
          "ticks": 138264,
          "time": 98.1987654375,
          "velocity": 0.30708661417322836
        },
        {
          "duration": 0.0852271874999957,
          "durationTicks": 120,
          "midi": 88,
          "name": "E6",
          "ticks": 138264,
          "time": 98.1987654375,
          "velocity": 0.30708661417322836
        },
        {
          "duration": 0.0852271874999957,
          "durationTicks": 120,
          "midi": 76,
          "name": "E5",
          "ticks": 138264,
          "time": 98.1987654375,
          "velocity": 0.30708661417322836
        },
        {
          "duration": 0.0852271874999957,
          "durationTicks": 120,
          "midi": 76,
          "name": "E5",
          "ticks": 138288,
          "time": 98.215810875,
          "velocity": 0.30708661417322836
        },
        {
          "duration": 0.0852271874999957,
          "durationTicks": 120,
          "midi": 83,
          "name": "B5",
          "ticks": 138288,
          "time": 98.215810875,
          "velocity": 0.30708661417322836
        },
        {
          "duration": 0.0852271874999957,
          "durationTicks": 120,
          "midi": 88,
          "name": "E6",
          "ticks": 138288,
          "time": 98.215810875,
          "velocity": 0.30708661417322836
        },
        {
          "duration": 0.0852271874999957,
          "durationTicks": 120,
          "midi": 81,
          "name": "A5",
          "ticks": 138384,
          "time": 98.283992625,
          "velocity": 0.30708661417322836
        },
        {
          "duration": 0.0852271874999957,
          "durationTicks": 120,
          "midi": 42,
          "name": "F#2",
          "ticks": 138384,
          "time": 98.283992625,
          "velocity": 0.30708661417322836
        },
        {
          "duration": 0.0852271874999957,
          "durationTicks": 120,
          "midi": 74,
          "name": "D5",
          "ticks": 138384,
          "time": 98.283992625,
          "velocity": 0.30708661417322836
        },
        {
          "duration": 0.0852271874999957,
          "durationTicks": 120,
          "midi": 54,
          "name": "F#3",
          "ticks": 138384,
          "time": 98.283992625,
          "velocity": 0.30708661417322836
        },
        {
          "duration": 0.0852271874999957,
          "durationTicks": 120,
          "midi": 86,
          "name": "D6",
          "ticks": 138384,
          "time": 98.283992625,
          "velocity": 0.30708661417322836
        },
        {
          "duration": 0.0852271874999957,
          "durationTicks": 120,
          "midi": 81,
          "name": "A5",
          "ticks": 138384,
          "time": 98.283992625,
          "velocity": 0.30708661417322836
        },
        {
          "duration": 0.0852271874999957,
          "durationTicks": 120,
          "midi": 54,
          "name": "F#3",
          "ticks": 138384,
          "time": 98.283992625,
          "velocity": 0.30708661417322836
        },
        {
          "duration": 0.0852271874999957,
          "durationTicks": 120,
          "midi": 42,
          "name": "F#2",
          "ticks": 138384,
          "time": 98.283992625,
          "velocity": 0.30708661417322836
        },
        {
          "duration": 0.0852271874999957,
          "durationTicks": 120,
          "midi": 74,
          "name": "D5",
          "ticks": 138384,
          "time": 98.283992625,
          "velocity": 0.30708661417322836
        },
        {
          "duration": 0.0852271874999957,
          "durationTicks": 120,
          "midi": 86,
          "name": "D6",
          "ticks": 138384,
          "time": 98.283992625,
          "velocity": 0.30708661417322836
        },
        {
          "duration": 0.0852271874999957,
          "durationTicks": 120,
          "midi": 81,
          "name": "A5",
          "ticks": 138408,
          "time": 98.3010380625,
          "velocity": 0.30708661417322836
        },
        {
          "duration": 0.0852271874999957,
          "durationTicks": 120,
          "midi": 74,
          "name": "D5",
          "ticks": 138408,
          "time": 98.3010380625,
          "velocity": 0.30708661417322836
        },
        {
          "duration": 0.0852271874999957,
          "durationTicks": 120,
          "midi": 42,
          "name": "F#2",
          "ticks": 138408,
          "time": 98.3010380625,
          "velocity": 0.30708661417322836
        },
        {
          "duration": 0.0852271874999957,
          "durationTicks": 120,
          "midi": 54,
          "name": "F#3",
          "ticks": 138408,
          "time": 98.3010380625,
          "velocity": 0.30708661417322836
        },
        {
          "duration": 0.0852271874999957,
          "durationTicks": 120,
          "midi": 86,
          "name": "D6",
          "ticks": 138408,
          "time": 98.3010380625,
          "velocity": 0.30708661417322836
        },
        {
          "duration": 0.0852271875000099,
          "durationTicks": 120,
          "midi": 79,
          "name": "G5",
          "ticks": 138504,
          "time": 98.36921981249999,
          "velocity": 0.30708661417322836
        },
        {
          "duration": 0.0852271875000099,
          "durationTicks": 120,
          "midi": 72,
          "name": "C5",
          "ticks": 138504,
          "time": 98.36921981249999,
          "velocity": 0.30708661417322836
        },
        {
          "duration": 0.0852271875000099,
          "durationTicks": 120,
          "midi": 79,
          "name": "G5",
          "ticks": 138504,
          "time": 98.36921981249999,
          "velocity": 0.30708661417322836
        },
        {
          "duration": 0.0852271875000099,
          "durationTicks": 120,
          "midi": 72,
          "name": "C5",
          "ticks": 138504,
          "time": 98.36921981249999,
          "velocity": 0.30708661417322836
        },
        {
          "duration": 0.0852271875000099,
          "durationTicks": 120,
          "midi": 84,
          "name": "C6",
          "ticks": 138504,
          "time": 98.36921981249999,
          "velocity": 0.30708661417322836
        },
        {
          "duration": 0.0852271875000099,
          "durationTicks": 120,
          "midi": 84,
          "name": "C6",
          "ticks": 138504,
          "time": 98.36921981249999,
          "velocity": 0.30708661417322836
        },
        {
          "duration": 0.0852271875000099,
          "durationTicks": 120,
          "midi": 72,
          "name": "C5",
          "ticks": 138528,
          "time": 98.38626525,
          "velocity": 0.30708661417322836
        },
        {
          "duration": 0.0852271875000099,
          "durationTicks": 120,
          "midi": 84,
          "name": "C6",
          "ticks": 138528,
          "time": 98.38626525,
          "velocity": 0.30708661417322836
        },
        {
          "duration": 0.0852271875000099,
          "durationTicks": 120,
          "midi": 79,
          "name": "G5",
          "ticks": 138528,
          "time": 98.38626525,
          "velocity": 0.30708661417322836
        },
        {
          "duration": 0.0852271874999957,
          "durationTicks": 120,
          "midi": 71,
          "name": "B4",
          "ticks": 138624,
          "time": 98.454447,
          "velocity": 0.30708661417322836
        },
        {
          "duration": 0.0852271874999957,
          "durationTicks": 120,
          "midi": 56,
          "name": "G#3",
          "ticks": 138624,
          "time": 98.454447,
          "velocity": 0.30708661417322836
        },
        {
          "duration": 0.0852271874999957,
          "durationTicks": 120,
          "midi": 44,
          "name": "G#2",
          "ticks": 138624,
          "time": 98.454447,
          "velocity": 0.30708661417322836
        },
        {
          "duration": 0.0852271874999957,
          "durationTicks": 120,
          "midi": 83,
          "name": "B5",
          "ticks": 138624,
          "time": 98.454447,
          "velocity": 0.30708661417322836
        },
        {
          "duration": 0.0852271874999957,
          "durationTicks": 120,
          "midi": 78,
          "name": "F#5",
          "ticks": 138624,
          "time": 98.454447,
          "velocity": 0.30708661417322836
        },
        {
          "duration": 0.0852271874999957,
          "durationTicks": 120,
          "midi": 44,
          "name": "G#2",
          "ticks": 138624,
          "time": 98.454447,
          "velocity": 0.30708661417322836
        },
        {
          "duration": 0.0852271874999957,
          "durationTicks": 120,
          "midi": 56,
          "name": "G#3",
          "ticks": 138624,
          "time": 98.454447,
          "velocity": 0.30708661417322836
        },
        {
          "duration": 0.0852271874999957,
          "durationTicks": 120,
          "midi": 71,
          "name": "B4",
          "ticks": 138624,
          "time": 98.454447,
          "velocity": 0.30708661417322836
        },
        {
          "duration": 0.0852271874999957,
          "durationTicks": 120,
          "midi": 78,
          "name": "F#5",
          "ticks": 138624,
          "time": 98.454447,
          "velocity": 0.30708661417322836
        },
        {
          "duration": 0.0852271874999957,
          "durationTicks": 120,
          "midi": 83,
          "name": "B5",
          "ticks": 138624,
          "time": 98.454447,
          "velocity": 0.30708661417322836
        },
        {
          "duration": 0.0852271874999957,
          "durationTicks": 120,
          "midi": 71,
          "name": "B4",
          "ticks": 138648,
          "time": 98.4714924375,
          "velocity": 0.30708661417322836
        },
        {
          "duration": 0.0852271874999957,
          "durationTicks": 120,
          "midi": 83,
          "name": "B5",
          "ticks": 138648,
          "time": 98.4714924375,
          "velocity": 0.30708661417322836
        },
        {
          "duration": 0.0852271874999957,
          "durationTicks": 120,
          "midi": 44,
          "name": "G#2",
          "ticks": 138648,
          "time": 98.4714924375,
          "velocity": 0.30708661417322836
        },
        {
          "duration": 0.0852271874999957,
          "durationTicks": 120,
          "midi": 56,
          "name": "G#3",
          "ticks": 138648,
          "time": 98.4714924375,
          "velocity": 0.30708661417322836
        },
        {
          "duration": 0.0852271874999957,
          "durationTicks": 120,
          "midi": 78,
          "name": "F#5",
          "ticks": 138648,
          "time": 98.4714924375,
          "velocity": 0.30708661417322836
        },
        {
          "duration": 0.0852271874999957,
          "durationTicks": 120,
          "midi": 69,
          "name": "A4",
          "ticks": 138744,
          "time": 98.5396741875,
          "velocity": 0.30708661417322836
        },
        {
          "duration": 0.0852271874999957,
          "durationTicks": 120,
          "midi": 76,
          "name": "E5",
          "ticks": 138744,
          "time": 98.5396741875,
          "velocity": 0.30708661417322836
        },
        {
          "duration": 0.0852271874999957,
          "durationTicks": 120,
          "midi": 81,
          "name": "A5",
          "ticks": 138744,
          "time": 98.5396741875,
          "velocity": 0.30708661417322836
        },
        {
          "duration": 0.0852271874999957,
          "durationTicks": 120,
          "midi": 76,
          "name": "E5",
          "ticks": 138744,
          "time": 98.5396741875,
          "velocity": 0.30708661417322836
        },
        {
          "duration": 0.0852271874999957,
          "durationTicks": 120,
          "midi": 69,
          "name": "A4",
          "ticks": 138744,
          "time": 98.5396741875,
          "velocity": 0.30708661417322836
        },
        {
          "duration": 0.0852271874999957,
          "durationTicks": 120,
          "midi": 81,
          "name": "A5",
          "ticks": 138744,
          "time": 98.5396741875,
          "velocity": 0.30708661417322836
        },
        {
          "duration": 0.0852271874999957,
          "durationTicks": 120,
          "midi": 69,
          "name": "A4",
          "ticks": 138768,
          "time": 98.556719625,
          "velocity": 0.30708661417322836
        },
        {
          "duration": 0.0852271874999957,
          "durationTicks": 120,
          "midi": 81,
          "name": "A5",
          "ticks": 138768,
          "time": 98.556719625,
          "velocity": 0.30708661417322836
        },
        {
          "duration": 0.0852271874999957,
          "durationTicks": 120,
          "midi": 76,
          "name": "E5",
          "ticks": 138768,
          "time": 98.556719625,
          "velocity": 0.30708661417322836
        },
        {
          "duration": 0.0852271875000099,
          "durationTicks": 120,
          "midi": 52,
          "name": "E3",
          "ticks": 138864,
          "time": 98.624901375,
          "velocity": 0.30708661417322836
        },
        {
          "duration": 0.0852271875000099,
          "durationTicks": 120,
          "midi": 68,
          "name": "G#4",
          "ticks": 138864,
          "time": 98.624901375,
          "velocity": 0.30708661417322836
        },
        {
          "duration": 0.0852271875000099,
          "durationTicks": 120,
          "midi": 40,
          "name": "E2",
          "ticks": 138864,
          "time": 98.624901375,
          "velocity": 0.30708661417322836
        },
        {
          "duration": 0.0852271875000099,
          "durationTicks": 120,
          "midi": 75,
          "name": "D#5",
          "ticks": 138864,
          "time": 98.624901375,
          "velocity": 0.30708661417322836
        },
        {
          "duration": 0.0852271875000099,
          "durationTicks": 120,
          "midi": 75,
          "name": "D#5",
          "ticks": 138864,
          "time": 98.624901375,
          "velocity": 0.30708661417322836
        },
        {
          "duration": 0.0852271875000099,
          "durationTicks": 120,
          "midi": 80,
          "name": "G#5",
          "ticks": 138864,
          "time": 98.624901375,
          "velocity": 0.30708661417322836
        },
        {
          "duration": 0.0852271875000099,
          "durationTicks": 120,
          "midi": 52,
          "name": "E3",
          "ticks": 138864,
          "time": 98.624901375,
          "velocity": 0.30708661417322836
        },
        {
          "duration": 0.0852271875000099,
          "durationTicks": 120,
          "midi": 68,
          "name": "G#4",
          "ticks": 138864,
          "time": 98.624901375,
          "velocity": 0.30708661417322836
        },
        {
          "duration": 0.0852271875000099,
          "durationTicks": 120,
          "midi": 80,
          "name": "G#5",
          "ticks": 138864,
          "time": 98.624901375,
          "velocity": 0.30708661417322836
        },
        {
          "duration": 0.0852271875000099,
          "durationTicks": 120,
          "midi": 40,
          "name": "E2",
          "ticks": 138864,
          "time": 98.624901375,
          "velocity": 0.30708661417322836
        },
        {
          "duration": 0.0852271875000099,
          "durationTicks": 120,
          "midi": 40,
          "name": "E2",
          "ticks": 138888,
          "time": 98.6419468125,
          "velocity": 0.30708661417322836
        },
        {
          "duration": 0.0852271875000099,
          "durationTicks": 120,
          "midi": 80,
          "name": "G#5",
          "ticks": 138888,
          "time": 98.6419468125,
          "velocity": 0.30708661417322836
        },
        {
          "duration": 0.0852271875000099,
          "durationTicks": 120,
          "midi": 68,
          "name": "G#4",
          "ticks": 138888,
          "time": 98.6419468125,
          "velocity": 0.30708661417322836
        },
        {
          "duration": 0.0852271875000099,
          "durationTicks": 120,
          "midi": 75,
          "name": "D#5",
          "ticks": 138888,
          "time": 98.6419468125,
          "velocity": 0.30708661417322836
        },
        {
          "duration": 0.0852271875000099,
          "durationTicks": 120,
          "midi": 52,
          "name": "E3",
          "ticks": 138888,
          "time": 98.6419468125,
          "velocity": 0.30708661417322836
        },
        {
          "duration": 0.0852271874999957,
          "durationTicks": 120,
          "midi": 78,
          "name": "F#5",
          "ticks": 138984,
          "time": 98.7101285625,
          "velocity": 0.30708661417322836
        },
        {
          "duration": 0.0852271874999957,
          "durationTicks": 120,
          "midi": 83,
          "name": "B5",
          "ticks": 138984,
          "time": 98.7101285625,
          "velocity": 0.30708661417322836
        },
        {
          "duration": 0.0852271874999957,
          "durationTicks": 120,
          "midi": 78,
          "name": "F#5",
          "ticks": 138984,
          "time": 98.7101285625,
          "velocity": 0.30708661417322836
        },
        {
          "duration": 0.0852271874999957,
          "durationTicks": 120,
          "midi": 83,
          "name": "B5",
          "ticks": 138984,
          "time": 98.7101285625,
          "velocity": 0.30708661417322836
        },
        {
          "duration": 0.0852271874999957,
          "durationTicks": 120,
          "midi": 71,
          "name": "B4",
          "ticks": 138984,
          "time": 98.7101285625,
          "velocity": 0.30708661417322836
        },
        {
          "duration": 0.0852271874999957,
          "durationTicks": 120,
          "midi": 71,
          "name": "B4",
          "ticks": 138984,
          "time": 98.7101285625,
          "velocity": 0.30708661417322836
        },
        {
          "duration": 0.0852271874999957,
          "durationTicks": 120,
          "midi": 83,
          "name": "B5",
          "ticks": 139008,
          "time": 98.727174,
          "velocity": 0.30708661417322836
        },
        {
          "duration": 0.0852271874999957,
          "durationTicks": 120,
          "midi": 78,
          "name": "F#5",
          "ticks": 139008,
          "time": 98.727174,
          "velocity": 0.30708661417322836
        },
        {
          "duration": 0.0852271874999957,
          "durationTicks": 120,
          "midi": 71,
          "name": "B4",
          "ticks": 139008,
          "time": 98.727174,
          "velocity": 0.30708661417322836
        },
        {
          "duration": 0.0852271874999957,
          "durationTicks": 120,
          "midi": 57,
          "name": "A3",
          "ticks": 139104,
          "time": 98.79535575,
          "velocity": 0.30708661417322836
        },
        {
          "duration": 0.0852271874999957,
          "durationTicks": 120,
          "midi": 76,
          "name": "E5",
          "ticks": 139104,
          "time": 98.79535575,
          "velocity": 0.30708661417322836
        },
        {
          "duration": 0.0852271874999957,
          "durationTicks": 120,
          "midi": 45,
          "name": "A2",
          "ticks": 139104,
          "time": 98.79535575,
          "velocity": 0.30708661417322836
        },
        {
          "duration": 0.0852271874999957,
          "durationTicks": 120,
          "midi": 81,
          "name": "A5",
          "ticks": 139104,
          "time": 98.79535575,
          "velocity": 0.30708661417322836
        },
        {
          "duration": 0.0852271874999957,
          "durationTicks": 120,
          "midi": 81,
          "name": "A5",
          "ticks": 139104,
          "time": 98.79535575,
          "velocity": 0.30708661417322836
        },
        {
          "duration": 0.0852271874999957,
          "durationTicks": 120,
          "midi": 69,
          "name": "A4",
          "ticks": 139104,
          "time": 98.79535575,
          "velocity": 0.30708661417322836
        },
        {
          "duration": 0.0852271874999957,
          "durationTicks": 120,
          "midi": 57,
          "name": "A3",
          "ticks": 139104,
          "time": 98.79535575,
          "velocity": 0.30708661417322836
        },
        {
          "duration": 0.0852271874999957,
          "durationTicks": 120,
          "midi": 76,
          "name": "E5",
          "ticks": 139104,
          "time": 98.79535575,
          "velocity": 0.30708661417322836
        },
        {
          "duration": 0.0852271874999957,
          "durationTicks": 120,
          "midi": 69,
          "name": "A4",
          "ticks": 139104,
          "time": 98.79535575,
          "velocity": 0.30708661417322836
        },
        {
          "duration": 0.0852271874999957,
          "durationTicks": 120,
          "midi": 45,
          "name": "A2",
          "ticks": 139104,
          "time": 98.79535575,
          "velocity": 0.30708661417322836
        },
        {
          "duration": 0.0852271874999957,
          "durationTicks": 120,
          "midi": 57,
          "name": "A3",
          "ticks": 139128,
          "time": 98.8124011875,
          "velocity": 0.30708661417322836
        },
        {
          "duration": 0.0852271874999957,
          "durationTicks": 120,
          "midi": 81,
          "name": "A5",
          "ticks": 139128,
          "time": 98.8124011875,
          "velocity": 0.30708661417322836
        },
        {
          "duration": 0.0852271874999957,
          "durationTicks": 120,
          "midi": 76,
          "name": "E5",
          "ticks": 139128,
          "time": 98.8124011875,
          "velocity": 0.30708661417322836
        },
        {
          "duration": 0.0852271874999957,
          "durationTicks": 120,
          "midi": 45,
          "name": "A2",
          "ticks": 139128,
          "time": 98.8124011875,
          "velocity": 0.30708661417322836
        },
        {
          "duration": 0.0852271874999957,
          "durationTicks": 120,
          "midi": 69,
          "name": "A4",
          "ticks": 139128,
          "time": 98.8124011875,
          "velocity": 0.30708661417322836
        },
        {
          "duration": 0.0852271874999957,
          "durationTicks": 120,
          "midi": 45,
          "name": "A2",
          "ticks": 139536,
          "time": 99.102173625,
          "velocity": 0.30708661417322836
        },
        {
          "duration": 0.0852271874999957,
          "durationTicks": 120,
          "midi": 33,
          "name": "A1",
          "ticks": 139536,
          "time": 99.102173625,
          "velocity": 0.30708661417322836
        },
        {
          "duration": 0.0852271874999957,
          "durationTicks": 120,
          "midi": 33,
          "name": "A1",
          "ticks": 139536,
          "time": 99.102173625,
          "velocity": 0.30708661417322836
        },
        {
          "duration": 0.0852271874999957,
          "durationTicks": 120,
          "midi": 45,
          "name": "A2",
          "ticks": 139536,
          "time": 99.102173625,
          "velocity": 0.30708661417322836
        },
        {
          "duration": 0.0852271875000099,
          "durationTicks": 120,
          "midi": 45,
          "name": "A2",
          "ticks": 139560,
          "time": 99.1192190625,
          "velocity": 0.30708661417322836
        },
        {
          "duration": 0.0852271875000099,
          "durationTicks": 120,
          "midi": 33,
          "name": "A1",
          "ticks": 139560,
          "time": 99.1192190625,
          "velocity": 0.30708661417322836
        },
        {
          "duration": 0.0852271875000099,
          "durationTicks": 120,
          "midi": 47,
          "name": "B2",
          "ticks": 139920,
          "time": 99.374900625,
          "velocity": 0.30708661417322836
        },
        {
          "duration": 0.0852271875000099,
          "durationTicks": 120,
          "midi": 35,
          "name": "B1",
          "ticks": 139920,
          "time": 99.374900625,
          "velocity": 0.30708661417322836
        },
        {
          "duration": 0.0852271875000099,
          "durationTicks": 120,
          "midi": 47,
          "name": "B2",
          "ticks": 139920,
          "time": 99.374900625,
          "velocity": 0.30708661417322836
        },
        {
          "duration": 0.0852271875000099,
          "durationTicks": 120,
          "midi": 35,
          "name": "B1",
          "ticks": 139920,
          "time": 99.374900625,
          "velocity": 0.30708661417322836
        },
        {
          "duration": 0.0852271874999957,
          "durationTicks": 120,
          "midi": 47,
          "name": "B2",
          "ticks": 139944,
          "time": 99.3919460625,
          "velocity": 0.30708661417322836
        },
        {
          "duration": 0.0852271874999957,
          "durationTicks": 120,
          "midi": 35,
          "name": "B1",
          "ticks": 139944,
          "time": 99.3919460625,
          "velocity": 0.30708661417322836
        },
        {
          "duration": 0.0852271874999957,
          "durationTicks": 120,
          "midi": 49,
          "name": "C#3",
          "ticks": 139968,
          "time": 99.4089915,
          "velocity": 0.30708661417322836
        },
        {
          "duration": 0.0852271874999957,
          "durationTicks": 120,
          "midi": 37,
          "name": "C#2",
          "ticks": 139968,
          "time": 99.4089915,
          "velocity": 0.30708661417322836
        },
        {
          "duration": 0.0852271874999957,
          "durationTicks": 120,
          "midi": 37,
          "name": "C#2",
          "ticks": 139968,
          "time": 99.4089915,
          "velocity": 0.30708661417322836
        },
        {
          "duration": 0.0852271874999957,
          "durationTicks": 120,
          "midi": 49,
          "name": "C#3",
          "ticks": 139968,
          "time": 99.4089915,
          "velocity": 0.30708661417322836
        },
        {
          "duration": 0.0852271874999957,
          "durationTicks": 120,
          "midi": 37,
          "name": "C#2",
          "ticks": 139992,
          "time": 99.4260369375,
          "velocity": 0.30708661417322836
        },
        {
          "duration": 0.0852271874999957,
          "durationTicks": 120,
          "midi": 49,
          "name": "C#3",
          "ticks": 139992,
          "time": 99.4260369375,
          "velocity": 0.30708661417322836
        },
        {
          "duration": 0.0852271874999957,
          "durationTicks": 120,
          "midi": 86,
          "name": "D6",
          "ticks": 140016,
          "time": 99.443082375,
          "velocity": 0.30708661417322836
        },
        {
          "duration": 0.0852271874999957,
          "durationTicks": 120,
          "midi": 74,
          "name": "D5",
          "ticks": 140016,
          "time": 99.443082375,
          "velocity": 0.30708661417322836
        },
        {
          "duration": 0.0852271874999957,
          "durationTicks": 120,
          "midi": 74,
          "name": "D5",
          "ticks": 140016,
          "time": 99.443082375,
          "velocity": 0.30708661417322836
        },
        {
          "duration": 0.0852271874999957,
          "durationTicks": 120,
          "midi": 81,
          "name": "A5",
          "ticks": 140016,
          "time": 99.443082375,
          "velocity": 0.30708661417322836
        },
        {
          "duration": 0.0852271874999957,
          "durationTicks": 120,
          "midi": 86,
          "name": "D6",
          "ticks": 140016,
          "time": 99.443082375,
          "velocity": 0.30708661417322836
        },
        {
          "duration": 0.0852271874999957,
          "durationTicks": 120,
          "midi": 81,
          "name": "A5",
          "ticks": 140016,
          "time": 99.443082375,
          "velocity": 0.30708661417322836
        },
        {
          "duration": 0.0852271874999957,
          "durationTicks": 120,
          "midi": 77,
          "name": "F5",
          "ticks": 140016,
          "time": 99.443082375,
          "velocity": 0.30708661417322836
        },
        {
          "duration": 0.0852271874999957,
          "durationTicks": 120,
          "midi": 77,
          "name": "F5",
          "ticks": 140016,
          "time": 99.443082375,
          "velocity": 0.30708661417322836
        },
        {
          "duration": 0.0852271874999957,
          "durationTicks": 120,
          "midi": 77,
          "name": "F5",
          "ticks": 140040,
          "time": 99.4601278125,
          "velocity": 0.30708661417322836
        },
        {
          "duration": 0.0852271874999957,
          "durationTicks": 120,
          "midi": 74,
          "name": "D5",
          "ticks": 140040,
          "time": 99.4601278125,
          "velocity": 0.30708661417322836
        },
        {
          "duration": 0.0852271874999957,
          "durationTicks": 120,
          "midi": 81,
          "name": "A5",
          "ticks": 140040,
          "time": 99.4601278125,
          "velocity": 0.30708661417322836
        },
        {
          "duration": 0.0852271874999957,
          "durationTicks": 120,
          "midi": 86,
          "name": "D6",
          "ticks": 140040,
          "time": 99.4601278125,
          "velocity": 0.30708661417322836
        },
        {
          "duration": 0.0852271875000099,
          "durationTicks": 120,
          "midi": 50,
          "name": "D3",
          "ticks": 140064,
          "time": 99.47717324999999,
          "velocity": 0.30708661417322836
        },
        {
          "duration": 0.0852271875000099,
          "durationTicks": 120,
          "midi": 50,
          "name": "D3",
          "ticks": 140064,
          "time": 99.47717324999999,
          "velocity": 0.30708661417322836
        },
        {
          "duration": 0.0852271875000099,
          "durationTicks": 120,
          "midi": 38,
          "name": "D2",
          "ticks": 140064,
          "time": 99.47717324999999,
          "velocity": 0.30708661417322836
        },
        {
          "duration": 0.0852271875000099,
          "durationTicks": 120,
          "midi": 38,
          "name": "D2",
          "ticks": 140064,
          "time": 99.47717324999999,
          "velocity": 0.30708661417322836
        },
        {
          "duration": 0.0852271875000099,
          "durationTicks": 120,
          "midi": 50,
          "name": "D3",
          "ticks": 140088,
          "time": 99.4942186875,
          "velocity": 0.30708661417322836
        },
        {
          "duration": 0.0852271875000099,
          "durationTicks": 120,
          "midi": 38,
          "name": "D2",
          "ticks": 140088,
          "time": 99.4942186875,
          "velocity": 0.30708661417322836
        },
        {
          "duration": 0.0852271875000099,
          "durationTicks": 120,
          "midi": 57,
          "name": "A3",
          "ticks": 140256,
          "time": 99.61353675,
          "velocity": 0.30708661417322836
        },
        {
          "duration": 0.0852271875000099,
          "durationTicks": 120,
          "midi": 53,
          "name": "F3",
          "ticks": 140256,
          "time": 99.61353675,
          "velocity": 0.30708661417322836
        },
        {
          "duration": 0.0852271875000099,
          "durationTicks": 120,
          "midi": 57,
          "name": "A3",
          "ticks": 140256,
          "time": 99.61353675,
          "velocity": 0.30708661417322836
        },
        {
          "duration": 0.0852271875000099,
          "durationTicks": 120,
          "midi": 53,
          "name": "F3",
          "ticks": 140256,
          "time": 99.61353675,
          "velocity": 0.30708661417322836
        },
        {
          "duration": 0.0852271874999957,
          "durationTicks": 120,
          "midi": 57,
          "name": "A3",
          "ticks": 140280,
          "time": 99.6305821875,
          "velocity": 0.30708661417322836
        },
        {
          "duration": 0.0852271874999957,
          "durationTicks": 120,
          "midi": 53,
          "name": "F3",
          "ticks": 140280,
          "time": 99.6305821875,
          "velocity": 0.30708661417322836
        },
        {
          "duration": 0.0852271874999957,
          "durationTicks": 120,
          "midi": 77,
          "name": "F5",
          "ticks": 140376,
          "time": 99.6987639375,
          "velocity": 0.30708661417322836
        },
        {
          "duration": 0.0852271874999957,
          "durationTicks": 120,
          "midi": 81,
          "name": "A5",
          "ticks": 140376,
          "time": 99.6987639375,
          "velocity": 0.30708661417322836
        },
        {
          "duration": 0.0852271874999957,
          "durationTicks": 120,
          "midi": 77,
          "name": "F5",
          "ticks": 140376,
          "time": 99.6987639375,
          "velocity": 0.30708661417322836
        },
        {
          "duration": 0.0852271874999957,
          "durationTicks": 120,
          "midi": 73,
          "name": "C#5",
          "ticks": 140376,
          "time": 99.6987639375,
          "velocity": 0.30708661417322836
        },
        {
          "duration": 0.0852271874999957,
          "durationTicks": 120,
          "midi": 81,
          "name": "A5",
          "ticks": 140376,
          "time": 99.6987639375,
          "velocity": 0.30708661417322836
        },
        {
          "duration": 0.0852271874999957,
          "durationTicks": 120,
          "midi": 85,
          "name": "C#6",
          "ticks": 140376,
          "time": 99.6987639375,
          "velocity": 0.30708661417322836
        },
        {
          "duration": 0.0852271874999957,
          "durationTicks": 120,
          "midi": 73,
          "name": "C#5",
          "ticks": 140376,
          "time": 99.6987639375,
          "velocity": 0.30708661417322836
        },
        {
          "duration": 0.0852271874999957,
          "durationTicks": 120,
          "midi": 85,
          "name": "C#6",
          "ticks": 140376,
          "time": 99.6987639375,
          "velocity": 0.30708661417322836
        },
        {
          "duration": 0.0852271875000099,
          "durationTicks": 120,
          "midi": 85,
          "name": "C#6",
          "ticks": 140400,
          "time": 99.71580937499999,
          "velocity": 0.30708661417322836
        },
        {
          "duration": 0.0852271875000099,
          "durationTicks": 120,
          "midi": 81,
          "name": "A5",
          "ticks": 140400,
          "time": 99.71580937499999,
          "velocity": 0.30708661417322836
        },
        {
          "duration": 0.0852271875000099,
          "durationTicks": 120,
          "midi": 77,
          "name": "F5",
          "ticks": 140400,
          "time": 99.71580937499999,
          "velocity": 0.30708661417322836
        },
        {
          "duration": 0.0852271875000099,
          "durationTicks": 120,
          "midi": 73,
          "name": "C#5",
          "ticks": 140400,
          "time": 99.71580937499999,
          "velocity": 0.30708661417322836
        },
        {
          "duration": 0.0852271874999957,
          "durationTicks": 120,
          "midi": 74,
          "name": "D5",
          "ticks": 140496,
          "time": 99.783991125,
          "velocity": 0.30708661417322836
        },
        {
          "duration": 0.0852271874999957,
          "durationTicks": 120,
          "midi": 74,
          "name": "D5",
          "ticks": 140496,
          "time": 99.783991125,
          "velocity": 0.30708661417322836
        },
        {
          "duration": 0.0852271874999957,
          "durationTicks": 120,
          "midi": 86,
          "name": "D6",
          "ticks": 140496,
          "time": 99.783991125,
          "velocity": 0.30708661417322836
        },
        {
          "duration": 0.0852271874999957,
          "durationTicks": 120,
          "midi": 81,
          "name": "A5",
          "ticks": 140496,
          "time": 99.783991125,
          "velocity": 0.30708661417322836
        },
        {
          "duration": 0.0852271874999957,
          "durationTicks": 120,
          "midi": 86,
          "name": "D6",
          "ticks": 140496,
          "time": 99.783991125,
          "velocity": 0.30708661417322836
        },
        {
          "duration": 0.0852271874999957,
          "durationTicks": 120,
          "midi": 45,
          "name": "A2",
          "ticks": 140496,
          "time": 99.783991125,
          "velocity": 0.30708661417322836
        },
        {
          "duration": 0.0852271874999957,
          "durationTicks": 120,
          "midi": 81,
          "name": "A5",
          "ticks": 140496,
          "time": 99.783991125,
          "velocity": 0.30708661417322836
        },
        {
          "duration": 0.0852271874999957,
          "durationTicks": 120,
          "midi": 77,
          "name": "F5",
          "ticks": 140496,
          "time": 99.783991125,
          "velocity": 0.30708661417322836
        },
        {
          "duration": 0.0852271874999957,
          "durationTicks": 120,
          "midi": 77,
          "name": "F5",
          "ticks": 140496,
          "time": 99.783991125,
          "velocity": 0.30708661417322836
        },
        {
          "duration": 0.0852271874999957,
          "durationTicks": 120,
          "midi": 45,
          "name": "A2",
          "ticks": 140496,
          "time": 99.783991125,
          "velocity": 0.30708661417322836
        },
        {
          "duration": 0.0852271874999957,
          "durationTicks": 120,
          "midi": 45,
          "name": "A2",
          "ticks": 140520,
          "time": 99.8010365625,
          "velocity": 0.30708661417322836
        },
        {
          "duration": 0.0852271874999957,
          "durationTicks": 120,
          "midi": 86,
          "name": "D6",
          "ticks": 140520,
          "time": 99.8010365625,
          "velocity": 0.30708661417322836
        },
        {
          "duration": 0.0852271874999957,
          "durationTicks": 120,
          "midi": 74,
          "name": "D5",
          "ticks": 140520,
          "time": 99.8010365625,
          "velocity": 0.30708661417322836
        },
        {
          "duration": 0.0852271874999957,
          "durationTicks": 120,
          "midi": 81,
          "name": "A5",
          "ticks": 140520,
          "time": 99.8010365625,
          "velocity": 0.30708661417322836
        },
        {
          "duration": 0.0852271874999957,
          "durationTicks": 120,
          "midi": 77,
          "name": "F5",
          "ticks": 140520,
          "time": 99.8010365625,
          "velocity": 0.30708661417322836
        },
        {
          "duration": 0.0852271874999957,
          "durationTicks": 120,
          "midi": 53,
          "name": "F3",
          "ticks": 140736,
          "time": 99.9544455,
          "velocity": 0.30708661417322836
        },
        {
          "duration": 0.0852271874999957,
          "durationTicks": 120,
          "midi": 57,
          "name": "A3",
          "ticks": 140736,
          "time": 99.9544455,
          "velocity": 0.30708661417322836
        },
        {
          "duration": 0.0852271874999957,
          "durationTicks": 120,
          "midi": 86,
          "name": "D6",
          "ticks": 140736,
          "time": 99.9544455,
          "velocity": 0.30708661417322836
        },
        {
          "duration": 0.0852271874999957,
          "durationTicks": 120,
          "midi": 86,
          "name": "D6",
          "ticks": 140736,
          "time": 99.9544455,
          "velocity": 0.30708661417322836
        },
        {
          "duration": 0.0852271874999957,
          "durationTicks": 120,
          "midi": 76,
          "name": "E5",
          "ticks": 140736,
          "time": 99.9544455,
          "velocity": 0.30708661417322836
        },
        {
          "duration": 0.0852271874999957,
          "durationTicks": 120,
          "midi": 76,
          "name": "E5",
          "ticks": 140736,
          "time": 99.9544455,
          "velocity": 0.30708661417322836
        },
        {
          "duration": 0.0852271874999957,
          "durationTicks": 120,
          "midi": 81,
          "name": "A5",
          "ticks": 140736,
          "time": 99.9544455,
          "velocity": 0.30708661417322836
        },
        {
          "duration": 0.0852271874999957,
          "durationTicks": 120,
          "midi": 53,
          "name": "F3",
          "ticks": 140736,
          "time": 99.9544455,
          "velocity": 0.30708661417322836
        },
        {
          "duration": 0.0852271874999957,
          "durationTicks": 120,
          "midi": 88,
          "name": "E6",
          "ticks": 140736,
          "time": 99.9544455,
          "velocity": 0.30708661417322836
        },
        {
          "duration": 0.0852271874999957,
          "durationTicks": 120,
          "midi": 88,
          "name": "E6",
          "ticks": 140736,
          "time": 99.9544455,
          "velocity": 0.30708661417322836
        },
        {
          "duration": 0.0852271874999957,
          "durationTicks": 120,
          "midi": 81,
          "name": "A5",
          "ticks": 140736,
          "time": 99.9544455,
          "velocity": 0.30708661417322836
        },
        {
          "duration": 0.0852271874999957,
          "durationTicks": 120,
          "midi": 57,
          "name": "A3",
          "ticks": 140736,
          "time": 99.9544455,
          "velocity": 0.30708661417322836
        },
        {
          "duration": 0.0852271875000099,
          "durationTicks": 120,
          "midi": 53,
          "name": "F3",
          "ticks": 140760,
          "time": 99.9714909375,
          "velocity": 0.30708661417322836
        },
        {
          "duration": 0.0852271875000099,
          "durationTicks": 120,
          "midi": 88,
          "name": "E6",
          "ticks": 140760,
          "time": 99.9714909375,
          "velocity": 0.30708661417322836
        },
        {
          "duration": 0.0852271875000099,
          "durationTicks": 120,
          "midi": 81,
          "name": "A5",
          "ticks": 140760,
          "time": 99.9714909375,
          "velocity": 0.30708661417322836
        },
        {
          "duration": 0.0852271875000099,
          "durationTicks": 120,
          "midi": 86,
          "name": "D6",
          "ticks": 140760,
          "time": 99.9714909375,
          "velocity": 0.30708661417322836
        },
        {
          "duration": 0.0852271875000099,
          "durationTicks": 120,
          "midi": 76,
          "name": "E5",
          "ticks": 140760,
          "time": 99.9714909375,
          "velocity": 0.30708661417322836
        },
        {
          "duration": 0.0852271875000099,
          "durationTicks": 120,
          "midi": 57,
          "name": "A3",
          "ticks": 140760,
          "time": 99.9714909375,
          "velocity": 0.30708661417322836
        },
        {
          "duration": 0.0852271874999957,
          "durationTicks": 120,
          "midi": 89,
          "name": "F6",
          "ticks": 140976,
          "time": 100.124899875,
          "velocity": 0.30708661417322836
        },
        {
          "duration": 0.0852271874999957,
          "durationTicks": 120,
          "midi": 77,
          "name": "F5",
          "ticks": 140976,
          "time": 100.124899875,
          "velocity": 0.30708661417322836
        },
        {
          "duration": 0.0852271874999957,
          "durationTicks": 120,
          "midi": 81,
          "name": "A5",
          "ticks": 140976,
          "time": 100.124899875,
          "velocity": 0.30708661417322836
        },
        {
          "duration": 0.0852271874999957,
          "durationTicks": 120,
          "midi": 81,
          "name": "A5",
          "ticks": 140976,
          "time": 100.124899875,
          "velocity": 0.30708661417322836
        },
        {
          "duration": 0.0852271874999957,
          "durationTicks": 120,
          "midi": 50,
          "name": "D3",
          "ticks": 140976,
          "time": 100.124899875,
          "velocity": 0.30708661417322836
        },
        {
          "duration": 0.0852271874999957,
          "durationTicks": 120,
          "midi": 50,
          "name": "D3",
          "ticks": 140976,
          "time": 100.124899875,
          "velocity": 0.30708661417322836
        },
        {
          "duration": 0.0852271874999957,
          "durationTicks": 120,
          "midi": 86,
          "name": "D6",
          "ticks": 140976,
          "time": 100.124899875,
          "velocity": 0.30708661417322836
        },
        {
          "duration": 0.0852271874999957,
          "durationTicks": 120,
          "midi": 89,
          "name": "F6",
          "ticks": 140976,
          "time": 100.124899875,
          "velocity": 0.30708661417322836
        },
        {
          "duration": 0.0852271874999957,
          "durationTicks": 120,
          "midi": 77,
          "name": "F5",
          "ticks": 140976,
          "time": 100.124899875,
          "velocity": 0.30708661417322836
        },
        {
          "duration": 0.0852271874999957,
          "durationTicks": 120,
          "midi": 86,
          "name": "D6",
          "ticks": 140976,
          "time": 100.124899875,
          "velocity": 0.30708661417322836
        },
        {
          "duration": 0.0852271874999957,
          "durationTicks": 120,
          "midi": 86,
          "name": "D6",
          "ticks": 141000,
          "time": 100.1419453125,
          "velocity": 0.30708661417322836
        },
        {
          "duration": 0.0852271874999957,
          "durationTicks": 120,
          "midi": 50,
          "name": "D3",
          "ticks": 141000,
          "time": 100.1419453125,
          "velocity": 0.30708661417322836
        },
        {
          "duration": 0.0852271874999957,
          "durationTicks": 120,
          "midi": 77,
          "name": "F5",
          "ticks": 141000,
          "time": 100.1419453125,
          "velocity": 0.30708661417322836
        },
        {
          "duration": 0.0852271874999957,
          "durationTicks": 120,
          "midi": 81,
          "name": "A5",
          "ticks": 141000,
          "time": 100.1419453125,
          "velocity": 0.30708661417322836
        },
        {
          "duration": 0.0852271874999957,
          "durationTicks": 120,
          "midi": 89,
          "name": "F6",
          "ticks": 141000,
          "time": 100.1419453125,
          "velocity": 0.30708661417322836
        },
        {
          "duration": 0.0852271874999957,
          "durationTicks": 120,
          "midi": 77,
          "name": "F5",
          "ticks": 141216,
          "time": 100.29535425,
          "velocity": 0.30708661417322836
        },
        {
          "duration": 0.0852271874999957,
          "durationTicks": 120,
          "midi": 76,
          "name": "E5",
          "ticks": 141216,
          "time": 100.29535425,
          "velocity": 0.30708661417322836
        },
        {
          "duration": 0.0852271874999957,
          "durationTicks": 120,
          "midi": 76,
          "name": "E5",
          "ticks": 141216,
          "time": 100.29535425,
          "velocity": 0.30708661417322836
        },
        {
          "duration": 0.0852271874999957,
          "durationTicks": 120,
          "midi": 81,
          "name": "A5",
          "ticks": 141216,
          "time": 100.29535425,
          "velocity": 0.30708661417322836
        },
        {
          "duration": 0.0852271874999957,
          "durationTicks": 120,
          "midi": 81,
          "name": "A5",
          "ticks": 141216,
          "time": 100.29535425,
          "velocity": 0.30708661417322836
        },
        {
          "duration": 0.0852271874999957,
          "durationTicks": 120,
          "midi": 57,
          "name": "A3",
          "ticks": 141216,
          "time": 100.29535425,
          "velocity": 0.30708661417322836
        },
        {
          "duration": 0.0852271874999957,
          "durationTicks": 120,
          "midi": 88,
          "name": "E6",
          "ticks": 141216,
          "time": 100.29535425,
          "velocity": 0.30708661417322836
        },
        {
          "duration": 0.0852271874999957,
          "durationTicks": 120,
          "midi": 53,
          "name": "F3",
          "ticks": 141216,
          "time": 100.29535425,
          "velocity": 0.30708661417322836
        },
        {
          "duration": 0.0852271874999957,
          "durationTicks": 120,
          "midi": 77,
          "name": "F5",
          "ticks": 141216,
          "time": 100.29535425,
          "velocity": 0.30708661417322836
        },
        {
          "duration": 0.0852271874999957,
          "durationTicks": 120,
          "midi": 57,
          "name": "A3",
          "ticks": 141216,
          "time": 100.29535425,
          "velocity": 0.30708661417322836
        },
        {
          "duration": 0.0852271874999957,
          "durationTicks": 120,
          "midi": 53,
          "name": "F3",
          "ticks": 141216,
          "time": 100.29535425,
          "velocity": 0.30708661417322836
        },
        {
          "duration": 0.0852271874999957,
          "durationTicks": 120,
          "midi": 88,
          "name": "E6",
          "ticks": 141216,
          "time": 100.29535425,
          "velocity": 0.30708661417322836
        },
        {
          "duration": 0.0852271874999957,
          "durationTicks": 120,
          "midi": 53,
          "name": "F3",
          "ticks": 141240,
          "time": 100.3123996875,
          "velocity": 0.30708661417322836
        },
        {
          "duration": 0.0852271874999957,
          "durationTicks": 120,
          "midi": 57,
          "name": "A3",
          "ticks": 141240,
          "time": 100.3123996875,
          "velocity": 0.30708661417322836
        },
        {
          "duration": 0.0852271874999957,
          "durationTicks": 120,
          "midi": 77,
          "name": "F5",
          "ticks": 141240,
          "time": 100.3123996875,
          "velocity": 0.30708661417322836
        },
        {
          "duration": 0.0852271874999957,
          "durationTicks": 120,
          "midi": 81,
          "name": "A5",
          "ticks": 141240,
          "time": 100.3123996875,
          "velocity": 0.30708661417322836
        },
        {
          "duration": 0.0852271874999957,
          "durationTicks": 120,
          "midi": 76,
          "name": "E5",
          "ticks": 141240,
          "time": 100.3123996875,
          "velocity": 0.30708661417322836
        },
        {
          "duration": 0.0852271874999957,
          "durationTicks": 120,
          "midi": 88,
          "name": "E6",
          "ticks": 141240,
          "time": 100.3123996875,
          "velocity": 0.30708661417322836
        },
        {
          "duration": 0.0852271875000099,
          "durationTicks": 120,
          "midi": 77,
          "name": "F5",
          "ticks": 141456,
          "time": 100.465808625,
          "velocity": 0.30708661417322836
        },
        {
          "duration": 0.0852271875000099,
          "durationTicks": 120,
          "midi": 45,
          "name": "A2",
          "ticks": 141456,
          "time": 100.465808625,
          "velocity": 0.30708661417322836
        },
        {
          "duration": 0.0852271875000099,
          "durationTicks": 120,
          "midi": 74,
          "name": "D5",
          "ticks": 141456,
          "time": 100.465808625,
          "velocity": 0.30708661417322836
        },
        {
          "duration": 0.0852271875000099,
          "durationTicks": 120,
          "midi": 81,
          "name": "A5",
          "ticks": 141456,
          "time": 100.465808625,
          "velocity": 0.30708661417322836
        },
        {
          "duration": 0.0852271875000099,
          "durationTicks": 120,
          "midi": 86,
          "name": "D6",
          "ticks": 141456,
          "time": 100.465808625,
          "velocity": 0.30708661417322836
        },
        {
          "duration": 0.0852271875000099,
          "durationTicks": 120,
          "midi": 45,
          "name": "A2",
          "ticks": 141456,
          "time": 100.465808625,
          "velocity": 0.30708661417322836
        },
        {
          "duration": 0.0852271875000099,
          "durationTicks": 120,
          "midi": 86,
          "name": "D6",
          "ticks": 141456,
          "time": 100.465808625,
          "velocity": 0.30708661417322836
        },
        {
          "duration": 0.0852271875000099,
          "durationTicks": 120,
          "midi": 77,
          "name": "F5",
          "ticks": 141456,
          "time": 100.465808625,
          "velocity": 0.30708661417322836
        },
        {
          "duration": 0.0852271875000099,
          "durationTicks": 120,
          "midi": 74,
          "name": "D5",
          "ticks": 141456,
          "time": 100.465808625,
          "velocity": 0.30708661417322836
        },
        {
          "duration": 0.0852271875000099,
          "durationTicks": 120,
          "midi": 81,
          "name": "A5",
          "ticks": 141456,
          "time": 100.465808625,
          "velocity": 0.30708661417322836
        },
        {
          "duration": 0.0852271875000099,
          "durationTicks": 120,
          "midi": 45,
          "name": "A2",
          "ticks": 141480,
          "time": 100.4828540625,
          "velocity": 0.30708661417322836
        },
        {
          "duration": 0.0852271875000099,
          "durationTicks": 120,
          "midi": 74,
          "name": "D5",
          "ticks": 141480,
          "time": 100.4828540625,
          "velocity": 0.30708661417322836
        },
        {
          "duration": 0.0852271875000099,
          "durationTicks": 120,
          "midi": 81,
          "name": "A5",
          "ticks": 141480,
          "time": 100.4828540625,
          "velocity": 0.30708661417322836
        },
        {
          "duration": 0.0852271875000099,
          "durationTicks": 120,
          "midi": 86,
          "name": "D6",
          "ticks": 141480,
          "time": 100.4828540625,
          "velocity": 0.30708661417322836
        },
        {
          "duration": 0.0852271875000099,
          "durationTicks": 120,
          "midi": 77,
          "name": "F5",
          "ticks": 141480,
          "time": 100.4828540625,
          "velocity": 0.30708661417322836
        },
        {
          "duration": 0.0852271874999957,
          "durationTicks": 120,
          "midi": 57,
          "name": "A3",
          "ticks": 141696,
          "time": 100.636263,
          "velocity": 0.30708661417322836
        },
        {
          "duration": 0.0852271874999957,
          "durationTicks": 120,
          "midi": 89,
          "name": "F6",
          "ticks": 141696,
          "time": 100.636263,
          "velocity": 0.30708661417322836
        },
        {
          "duration": 0.0852271874999957,
          "durationTicks": 120,
          "midi": 89,
          "name": "F6",
          "ticks": 141696,
          "time": 100.636263,
          "velocity": 0.30708661417322836
        },
        {
          "duration": 0.0852271874999957,
          "durationTicks": 120,
          "midi": 86,
          "name": "D6",
          "ticks": 141696,
          "time": 100.636263,
          "velocity": 0.30708661417322836
        },
        {
          "duration": 0.0852271874999957,
          "durationTicks": 120,
          "midi": 86,
          "name": "D6",
          "ticks": 141696,
          "time": 100.636263,
          "velocity": 0.30708661417322836
        },
        {
          "duration": 0.0852271874999957,
          "durationTicks": 120,
          "midi": 53,
          "name": "F3",
          "ticks": 141696,
          "time": 100.636263,
          "velocity": 0.30708661417322836
        },
        {
          "duration": 0.0852271874999957,
          "durationTicks": 120,
          "midi": 81,
          "name": "A5",
          "ticks": 141696,
          "time": 100.636263,
          "velocity": 0.30708661417322836
        },
        {
          "duration": 0.0852271874999957,
          "durationTicks": 120,
          "midi": 81,
          "name": "A5",
          "ticks": 141696,
          "time": 100.636263,
          "velocity": 0.30708661417322836
        },
        {
          "duration": 0.0852271874999957,
          "durationTicks": 120,
          "midi": 77,
          "name": "F5",
          "ticks": 141696,
          "time": 100.636263,
          "velocity": 0.30708661417322836
        },
        {
          "duration": 0.0852271874999957,
          "durationTicks": 120,
          "midi": 53,
          "name": "F3",
          "ticks": 141696,
          "time": 100.636263,
          "velocity": 0.30708661417322836
        },
        {
          "duration": 0.0852271874999957,
          "durationTicks": 120,
          "midi": 57,
          "name": "A3",
          "ticks": 141696,
          "time": 100.636263,
          "velocity": 0.30708661417322836
        },
        {
          "duration": 0.0852271874999957,
          "durationTicks": 120,
          "midi": 77,
          "name": "F5",
          "ticks": 141696,
          "time": 100.636263,
          "velocity": 0.30708661417322836
        },
        {
          "duration": 0.0852271874999957,
          "durationTicks": 120,
          "midi": 77,
          "name": "F5",
          "ticks": 141720,
          "time": 100.6533084375,
          "velocity": 0.30708661417322836
        },
        {
          "duration": 0.0852271874999957,
          "durationTicks": 120,
          "midi": 53,
          "name": "F3",
          "ticks": 141720,
          "time": 100.6533084375,
          "velocity": 0.30708661417322836
        },
        {
          "duration": 0.0852271874999957,
          "durationTicks": 120,
          "midi": 81,
          "name": "A5",
          "ticks": 141720,
          "time": 100.6533084375,
          "velocity": 0.30708661417322836
        },
        {
          "duration": 0.0852271874999957,
          "durationTicks": 120,
          "midi": 57,
          "name": "A3",
          "ticks": 141720,
          "time": 100.6533084375,
          "velocity": 0.30708661417322836
        },
        {
          "duration": 0.0852271874999957,
          "durationTicks": 120,
          "midi": 86,
          "name": "D6",
          "ticks": 141720,
          "time": 100.6533084375,
          "velocity": 0.30708661417322836
        },
        {
          "duration": 0.0852271874999957,
          "durationTicks": 120,
          "midi": 89,
          "name": "F6",
          "ticks": 141720,
          "time": 100.6533084375,
          "velocity": 0.30708661417322836
        },
        {
          "duration": 0.0852271874999957,
          "durationTicks": 120,
          "midi": 81,
          "name": "A5",
          "ticks": 141936,
          "time": 100.806717375,
          "velocity": 0.30708661417322836
        },
        {
          "duration": 0.0852271874999957,
          "durationTicks": 120,
          "midi": 81,
          "name": "A5",
          "ticks": 141936,
          "time": 100.806717375,
          "velocity": 0.30708661417322836
        },
        {
          "duration": 0.0852271874999957,
          "durationTicks": 120,
          "midi": 86,
          "name": "D6",
          "ticks": 141936,
          "time": 100.806717375,
          "velocity": 0.30708661417322836
        },
        {
          "duration": 0.0852271874999957,
          "durationTicks": 120,
          "midi": 88,
          "name": "E6",
          "ticks": 141936,
          "time": 100.806717375,
          "velocity": 0.30708661417322836
        },
        {
          "duration": 0.0852271874999957,
          "durationTicks": 120,
          "midi": 48,
          "name": "C3",
          "ticks": 141936,
          "time": 100.806717375,
          "velocity": 0.30708661417322836
        },
        {
          "duration": 0.0852271874999957,
          "durationTicks": 120,
          "midi": 88,
          "name": "E6",
          "ticks": 141936,
          "time": 100.806717375,
          "velocity": 0.30708661417322836
        },
        {
          "duration": 0.0852271874999957,
          "durationTicks": 120,
          "midi": 48,
          "name": "C3",
          "ticks": 141936,
          "time": 100.806717375,
          "velocity": 0.30708661417322836
        },
        {
          "duration": 0.0852271874999957,
          "durationTicks": 120,
          "midi": 76,
          "name": "E5",
          "ticks": 141936,
          "time": 100.806717375,
          "velocity": 0.30708661417322836
        },
        {
          "duration": 0.0852271874999957,
          "durationTicks": 120,
          "midi": 86,
          "name": "D6",
          "ticks": 141936,
          "time": 100.806717375,
          "velocity": 0.30708661417322836
        },
        {
          "duration": 0.0852271874999957,
          "durationTicks": 120,
          "midi": 76,
          "name": "E5",
          "ticks": 141936,
          "time": 100.806717375,
          "velocity": 0.30708661417322836
        },
        {
          "duration": 0.0852271875000099,
          "durationTicks": 120,
          "midi": 86,
          "name": "D6",
          "ticks": 141960,
          "time": 100.8237628125,
          "velocity": 0.30708661417322836
        },
        {
          "duration": 0.0852271875000099,
          "durationTicks": 120,
          "midi": 76,
          "name": "E5",
          "ticks": 141960,
          "time": 100.8237628125,
          "velocity": 0.30708661417322836
        },
        {
          "duration": 0.0852271875000099,
          "durationTicks": 120,
          "midi": 88,
          "name": "E6",
          "ticks": 141960,
          "time": 100.8237628125,
          "velocity": 0.30708661417322836
        },
        {
          "duration": 0.0852271875000099,
          "durationTicks": 120,
          "midi": 48,
          "name": "C3",
          "ticks": 141960,
          "time": 100.8237628125,
          "velocity": 0.30708661417322836
        },
        {
          "duration": 0.0852271875000099,
          "durationTicks": 120,
          "midi": 81,
          "name": "A5",
          "ticks": 141960,
          "time": 100.8237628125,
          "velocity": 0.30708661417322836
        },
        {
          "duration": 0.0852271874999957,
          "durationTicks": 120,
          "midi": 52,
          "name": "E3",
          "ticks": 142176,
          "time": 100.97717175,
          "velocity": 0.30708661417322836
        },
        {
          "duration": 0.0852271874999957,
          "durationTicks": 120,
          "midi": 57,
          "name": "A3",
          "ticks": 142176,
          "time": 100.97717175,
          "velocity": 0.30708661417322836
        },
        {
          "duration": 0.0852271874999957,
          "durationTicks": 120,
          "midi": 57,
          "name": "A3",
          "ticks": 142176,
          "time": 100.97717175,
          "velocity": 0.30708661417322836
        },
        {
          "duration": 0.0852271874999957,
          "durationTicks": 120,
          "midi": 52,
          "name": "E3",
          "ticks": 142176,
          "time": 100.97717175,
          "velocity": 0.30708661417322836
        },
        {
          "duration": 0.0852271874999957,
          "durationTicks": 120,
          "midi": 57,
          "name": "A3",
          "ticks": 142200,
          "time": 100.9942171875,
          "velocity": 0.30708661417322836
        },
        {
          "duration": 0.0852271874999957,
          "durationTicks": 120,
          "midi": 52,
          "name": "E3",
          "ticks": 142200,
          "time": 100.9942171875,
          "velocity": 0.30708661417322836
        },
        {
          "duration": 0.0852271875000099,
          "durationTicks": 120,
          "midi": 74,
          "name": "D5",
          "ticks": 142296,
          "time": 101.06239893749999,
          "velocity": 0.30708661417322836
        },
        {
          "duration": 0.0852271875000099,
          "durationTicks": 120,
          "midi": 81,
          "name": "A5",
          "ticks": 142296,
          "time": 101.06239893749999,
          "velocity": 0.30708661417322836
        },
        {
          "duration": 0.0852271875000099,
          "durationTicks": 120,
          "midi": 86,
          "name": "D6",
          "ticks": 142296,
          "time": 101.06239893749999,
          "velocity": 0.30708661417322836
        },
        {
          "duration": 0.0852271875000099,
          "durationTicks": 120,
          "midi": 81,
          "name": "A5",
          "ticks": 142296,
          "time": 101.06239893749999,
          "velocity": 0.30708661417322836
        },
        {
          "duration": 0.0852271875000099,
          "durationTicks": 120,
          "midi": 74,
          "name": "D5",
          "ticks": 142296,
          "time": 101.06239893749999,
          "velocity": 0.30708661417322836
        },
        {
          "duration": 0.0852271875000099,
          "durationTicks": 120,
          "midi": 76,
          "name": "E5",
          "ticks": 142296,
          "time": 101.06239893749999,
          "velocity": 0.30708661417322836
        },
        {
          "duration": 0.0852271875000099,
          "durationTicks": 120,
          "midi": 86,
          "name": "D6",
          "ticks": 142296,
          "time": 101.06239893749999,
          "velocity": 0.30708661417322836
        },
        {
          "duration": 0.0852271875000099,
          "durationTicks": 120,
          "midi": 76,
          "name": "E5",
          "ticks": 142296,
          "time": 101.06239893749999,
          "velocity": 0.30708661417322836
        },
        {
          "duration": 0.0852271875000099,
          "durationTicks": 120,
          "midi": 86,
          "name": "D6",
          "ticks": 142320,
          "time": 101.079444375,
          "velocity": 0.30708661417322836
        },
        {
          "duration": 0.0852271875000099,
          "durationTicks": 120,
          "midi": 76,
          "name": "E5",
          "ticks": 142320,
          "time": 101.079444375,
          "velocity": 0.30708661417322836
        },
        {
          "duration": 0.0852271875000099,
          "durationTicks": 120,
          "midi": 74,
          "name": "D5",
          "ticks": 142320,
          "time": 101.079444375,
          "velocity": 0.30708661417322836
        },
        {
          "duration": 0.0852271875000099,
          "durationTicks": 120,
          "midi": 81,
          "name": "A5",
          "ticks": 142320,
          "time": 101.079444375,
          "velocity": 0.30708661417322836
        },
        {
          "duration": 0.0852271874999957,
          "durationTicks": 120,
          "midi": 76,
          "name": "E5",
          "ticks": 142416,
          "time": 101.147626125,
          "velocity": 0.30708661417322836
        },
        {
          "duration": 0.0852271874999957,
          "durationTicks": 120,
          "midi": 84,
          "name": "C6",
          "ticks": 142416,
          "time": 101.147626125,
          "velocity": 0.30708661417322836
        },
        {
          "duration": 0.0852271874999957,
          "durationTicks": 120,
          "midi": 45,
          "name": "A2",
          "ticks": 142416,
          "time": 101.147626125,
          "velocity": 0.30708661417322836
        },
        {
          "duration": 0.0852271874999957,
          "durationTicks": 120,
          "midi": 72,
          "name": "C5",
          "ticks": 142416,
          "time": 101.147626125,
          "velocity": 0.30708661417322836
        },
        {
          "duration": 0.0852271874999957,
          "durationTicks": 120,
          "midi": 84,
          "name": "C6",
          "ticks": 142416,
          "time": 101.147626125,
          "velocity": 0.30708661417322836
        },
        {
          "duration": 0.0852271874999957,
          "durationTicks": 120,
          "midi": 81,
          "name": "A5",
          "ticks": 142416,
          "time": 101.147626125,
          "velocity": 0.30708661417322836
        },
        {
          "duration": 0.0852271874999957,
          "durationTicks": 120,
          "midi": 76,
          "name": "E5",
          "ticks": 142416,
          "time": 101.147626125,
          "velocity": 0.30708661417322836
        },
        {
          "duration": 0.0852271874999957,
          "durationTicks": 120,
          "midi": 72,
          "name": "C5",
          "ticks": 142416,
          "time": 101.147626125,
          "velocity": 0.30708661417322836
        },
        {
          "duration": 0.0852271874999957,
          "durationTicks": 120,
          "midi": 45,
          "name": "A2",
          "ticks": 142416,
          "time": 101.147626125,
          "velocity": 0.30708661417322836
        },
        {
          "duration": 0.0852271874999957,
          "durationTicks": 120,
          "midi": 81,
          "name": "A5",
          "ticks": 142416,
          "time": 101.147626125,
          "velocity": 0.30708661417322836
        },
        {
          "duration": 0.0852271874999957,
          "durationTicks": 120,
          "midi": 81,
          "name": "A5",
          "ticks": 142440,
          "time": 101.1646715625,
          "velocity": 0.30708661417322836
        },
        {
          "duration": 0.0852271874999957,
          "durationTicks": 120,
          "midi": 84,
          "name": "C6",
          "ticks": 142440,
          "time": 101.1646715625,
          "velocity": 0.30708661417322836
        },
        {
          "duration": 0.0852271874999957,
          "durationTicks": 120,
          "midi": 72,
          "name": "C5",
          "ticks": 142440,
          "time": 101.1646715625,
          "velocity": 0.30708661417322836
        },
        {
          "duration": 0.0852271874999957,
          "durationTicks": 120,
          "midi": 45,
          "name": "A2",
          "ticks": 142440,
          "time": 101.1646715625,
          "velocity": 0.30708661417322836
        },
        {
          "duration": 0.0852271874999957,
          "durationTicks": 120,
          "midi": 76,
          "name": "E5",
          "ticks": 142440,
          "time": 101.1646715625,
          "velocity": 0.30708661417322836
        },
        {
          "duration": 0.0852271875000099,
          "durationTicks": 120,
          "midi": 76,
          "name": "E5",
          "ticks": 142656,
          "time": 101.3180805,
          "velocity": 0.30708661417322836
        },
        {
          "duration": 0.0852271875000099,
          "durationTicks": 120,
          "midi": 74,
          "name": "D5",
          "ticks": 142656,
          "time": 101.3180805,
          "velocity": 0.30708661417322836
        },
        {
          "duration": 0.0852271875000099,
          "durationTicks": 120,
          "midi": 57,
          "name": "A3",
          "ticks": 142656,
          "time": 101.3180805,
          "velocity": 0.30708661417322836
        },
        {
          "duration": 0.0852271875000099,
          "durationTicks": 120,
          "midi": 81,
          "name": "A5",
          "ticks": 142656,
          "time": 101.3180805,
          "velocity": 0.30708661417322836
        },
        {
          "duration": 0.0852271875000099,
          "durationTicks": 120,
          "midi": 86,
          "name": "D6",
          "ticks": 142656,
          "time": 101.3180805,
          "velocity": 0.30708661417322836
        },
        {
          "duration": 0.0852271875000099,
          "durationTicks": 120,
          "midi": 86,
          "name": "D6",
          "ticks": 142656,
          "time": 101.3180805,
          "velocity": 0.30708661417322836
        },
        {
          "duration": 0.0852271875000099,
          "durationTicks": 120,
          "midi": 52,
          "name": "E3",
          "ticks": 142656,
          "time": 101.3180805,
          "velocity": 0.30708661417322836
        },
        {
          "duration": 0.0852271875000099,
          "durationTicks": 120,
          "midi": 76,
          "name": "E5",
          "ticks": 142656,
          "time": 101.3180805,
          "velocity": 0.30708661417322836
        },
        {
          "duration": 0.0852271875000099,
          "durationTicks": 120,
          "midi": 74,
          "name": "D5",
          "ticks": 142656,
          "time": 101.3180805,
          "velocity": 0.30708661417322836
        },
        {
          "duration": 0.0852271875000099,
          "durationTicks": 120,
          "midi": 52,
          "name": "E3",
          "ticks": 142656,
          "time": 101.3180805,
          "velocity": 0.30708661417322836
        },
        {
          "duration": 0.0852271875000099,
          "durationTicks": 120,
          "midi": 81,
          "name": "A5",
          "ticks": 142656,
          "time": 101.3180805,
          "velocity": 0.30708661417322836
        },
        {
          "duration": 0.0852271875000099,
          "durationTicks": 120,
          "midi": 57,
          "name": "A3",
          "ticks": 142656,
          "time": 101.3180805,
          "velocity": 0.30708661417322836
        },
        {
          "duration": 0.0852271875000099,
          "durationTicks": 120,
          "midi": 57,
          "name": "A3",
          "ticks": 142680,
          "time": 101.3351259375,
          "velocity": 0.30708661417322836
        },
        {
          "duration": 0.0852271875000099,
          "durationTicks": 120,
          "midi": 86,
          "name": "D6",
          "ticks": 142680,
          "time": 101.3351259375,
          "velocity": 0.30708661417322836
        },
        {
          "duration": 0.0852271875000099,
          "durationTicks": 120,
          "midi": 81,
          "name": "A5",
          "ticks": 142680,
          "time": 101.3351259375,
          "velocity": 0.30708661417322836
        },
        {
          "duration": 0.0852271875000099,
          "durationTicks": 120,
          "midi": 52,
          "name": "E3",
          "ticks": 142680,
          "time": 101.3351259375,
          "velocity": 0.30708661417322836
        },
        {
          "duration": 0.0852271875000099,
          "durationTicks": 120,
          "midi": 76,
          "name": "E5",
          "ticks": 142680,
          "time": 101.3351259375,
          "velocity": 0.30708661417322836
        },
        {
          "duration": 0.0852271875000099,
          "durationTicks": 120,
          "midi": 74,
          "name": "D5",
          "ticks": 142680,
          "time": 101.3351259375,
          "velocity": 0.30708661417322836
        },
        {
          "duration": 0.0852271874999957,
          "durationTicks": 120,
          "midi": 88,
          "name": "E6",
          "ticks": 142896,
          "time": 101.488534875,
          "velocity": 0.30708661417322836
        },
        {
          "duration": 0.0852271874999957,
          "durationTicks": 120,
          "midi": 84,
          "name": "C6",
          "ticks": 142896,
          "time": 101.488534875,
          "velocity": 0.30708661417322836
        },
        {
          "duration": 0.0852271874999957,
          "durationTicks": 120,
          "midi": 81,
          "name": "A5",
          "ticks": 142896,
          "time": 101.488534875,
          "velocity": 0.30708661417322836
        },
        {
          "duration": 0.0852271874999957,
          "durationTicks": 120,
          "midi": 84,
          "name": "C6",
          "ticks": 142896,
          "time": 101.488534875,
          "velocity": 0.30708661417322836
        },
        {
          "duration": 0.0852271874999957,
          "durationTicks": 120,
          "midi": 76,
          "name": "E5",
          "ticks": 142896,
          "time": 101.488534875,
          "velocity": 0.30708661417322836
        },
        {
          "duration": 0.0852271874999957,
          "durationTicks": 120,
          "midi": 88,
          "name": "E6",
          "ticks": 142896,
          "time": 101.488534875,
          "velocity": 0.30708661417322836
        },
        {
          "duration": 0.0852271874999957,
          "durationTicks": 120,
          "midi": 48,
          "name": "C3",
          "ticks": 142896,
          "time": 101.488534875,
          "velocity": 0.30708661417322836
        },
        {
          "duration": 0.0852271874999957,
          "durationTicks": 120,
          "midi": 48,
          "name": "C3",
          "ticks": 142896,
          "time": 101.488534875,
          "velocity": 0.30708661417322836
        },
        {
          "duration": 0.0852271874999957,
          "durationTicks": 120,
          "midi": 76,
          "name": "E5",
          "ticks": 142896,
          "time": 101.488534875,
          "velocity": 0.30708661417322836
        },
        {
          "duration": 0.0852271874999957,
          "durationTicks": 120,
          "midi": 81,
          "name": "A5",
          "ticks": 142896,
          "time": 101.488534875,
          "velocity": 0.30708661417322836
        },
        {
          "duration": 0.0852271874999957,
          "durationTicks": 120,
          "midi": 76,
          "name": "E5",
          "ticks": 142920,
          "time": 101.5055803125,
          "velocity": 0.30708661417322836
        },
        {
          "duration": 0.0852271874999957,
          "durationTicks": 120,
          "midi": 81,
          "name": "A5",
          "ticks": 142920,
          "time": 101.5055803125,
          "velocity": 0.30708661417322836
        },
        {
          "duration": 0.0852271874999957,
          "durationTicks": 120,
          "midi": 84,
          "name": "C6",
          "ticks": 142920,
          "time": 101.5055803125,
          "velocity": 0.30708661417322836
        },
        {
          "duration": 0.0852271874999957,
          "durationTicks": 120,
          "midi": 48,
          "name": "C3",
          "ticks": 142920,
          "time": 101.5055803125,
          "velocity": 0.30708661417322836
        },
        {
          "duration": 0.0852271874999957,
          "durationTicks": 120,
          "midi": 88,
          "name": "E6",
          "ticks": 142920,
          "time": 101.5055803125,
          "velocity": 0.30708661417322836
        },
        {
          "duration": 0.0852271874999957,
          "durationTicks": 120,
          "midi": 57,
          "name": "A3",
          "ticks": 143136,
          "time": 101.65898925,
          "velocity": 0.30708661417322836
        },
        {
          "duration": 0.0852271874999957,
          "durationTicks": 120,
          "midi": 52,
          "name": "E3",
          "ticks": 143136,
          "time": 101.65898925,
          "velocity": 0.30708661417322836
        },
        {
          "duration": 0.0852271874999957,
          "durationTicks": 120,
          "midi": 57,
          "name": "A3",
          "ticks": 143136,
          "time": 101.65898925,
          "velocity": 0.30708661417322836
        },
        {
          "duration": 0.0852271874999957,
          "durationTicks": 120,
          "midi": 52,
          "name": "E3",
          "ticks": 143136,
          "time": 101.65898925,
          "velocity": 0.30708661417322836
        },
        {
          "duration": 0.0852271875000099,
          "durationTicks": 120,
          "midi": 57,
          "name": "A3",
          "ticks": 143160,
          "time": 101.67603468749999,
          "velocity": 0.30708661417322836
        },
        {
          "duration": 0.0852271875000099,
          "durationTicks": 120,
          "midi": 52,
          "name": "E3",
          "ticks": 143160,
          "time": 101.67603468749999,
          "velocity": 0.30708661417322836
        },
        {
          "duration": 0.0852271875000099,
          "durationTicks": 120,
          "midi": 45,
          "name": "A2",
          "ticks": 143376,
          "time": 101.829443625,
          "velocity": 0.30708661417322836
        },
        {
          "duration": 0.0852271875000099,
          "durationTicks": 120,
          "midi": 45,
          "name": "A2",
          "ticks": 143376,
          "time": 101.829443625,
          "velocity": 0.30708661417322836
        },
        {
          "duration": 0.0852271874999957,
          "durationTicks": 120,
          "midi": 45,
          "name": "A2",
          "ticks": 143400,
          "time": 101.8464890625,
          "velocity": 0.30708661417322836
        },
        {
          "duration": 0.0852271874999957,
          "durationTicks": 120,
          "midi": 72,
          "name": "C5",
          "ticks": 143616,
          "time": 101.999898,
          "velocity": 0.30708661417322836
        },
        {
          "duration": 0.0852271874999957,
          "durationTicks": 120,
          "midi": 57,
          "name": "A3",
          "ticks": 143616,
          "time": 101.999898,
          "velocity": 0.30708661417322836
        },
        {
          "duration": 0.0852271874999957,
          "durationTicks": 120,
          "midi": 84,
          "name": "C6",
          "ticks": 143616,
          "time": 101.999898,
          "velocity": 0.30708661417322836
        },
        {
          "duration": 0.0852271874999957,
          "durationTicks": 120,
          "midi": 81,
          "name": "A5",
          "ticks": 143616,
          "time": 101.999898,
          "velocity": 0.30708661417322836
        },
        {
          "duration": 0.0852271874999957,
          "durationTicks": 120,
          "midi": 57,
          "name": "A3",
          "ticks": 143616,
          "time": 101.999898,
          "velocity": 0.30708661417322836
        },
        {
          "duration": 0.0852271874999957,
          "durationTicks": 120,
          "midi": 52,
          "name": "E3",
          "ticks": 143616,
          "time": 101.999898,
          "velocity": 0.30708661417322836
        },
        {
          "duration": 0.0852271874999957,
          "durationTicks": 120,
          "midi": 84,
          "name": "C6",
          "ticks": 143616,
          "time": 101.999898,
          "velocity": 0.30708661417322836
        },
        {
          "duration": 0.0852271874999957,
          "durationTicks": 120,
          "midi": 81,
          "name": "A5",
          "ticks": 143616,
          "time": 101.999898,
          "velocity": 0.30708661417322836
        },
        {
          "duration": 0.0852271874999957,
          "durationTicks": 120,
          "midi": 76,
          "name": "E5",
          "ticks": 143616,
          "time": 101.999898,
          "velocity": 0.30708661417322836
        },
        {
          "duration": 0.0852271874999957,
          "durationTicks": 120,
          "midi": 72,
          "name": "C5",
          "ticks": 143616,
          "time": 101.999898,
          "velocity": 0.30708661417322836
        },
        {
          "duration": 0.0852271874999957,
          "durationTicks": 120,
          "midi": 76,
          "name": "E5",
          "ticks": 143616,
          "time": 101.999898,
          "velocity": 0.30708661417322836
        },
        {
          "duration": 0.0852271874999957,
          "durationTicks": 120,
          "midi": 52,
          "name": "E3",
          "ticks": 143616,
          "time": 101.999898,
          "velocity": 0.30708661417322836
        },
        {
          "duration": 0.0852271874999957,
          "durationTicks": 120,
          "midi": 57,
          "name": "A3",
          "ticks": 143640,
          "time": 102.0169434375,
          "velocity": 0.30708661417322836
        },
        {
          "duration": 0.0852271874999957,
          "durationTicks": 120,
          "midi": 52,
          "name": "E3",
          "ticks": 143640,
          "time": 102.0169434375,
          "velocity": 0.30708661417322836
        },
        {
          "duration": 0.0852271874999957,
          "durationTicks": 120,
          "midi": 81,
          "name": "A5",
          "ticks": 143640,
          "time": 102.0169434375,
          "velocity": 0.30708661417322836
        },
        {
          "duration": 0.0852271874999957,
          "durationTicks": 120,
          "midi": 76,
          "name": "E5",
          "ticks": 143640,
          "time": 102.0169434375,
          "velocity": 0.30708661417322836
        },
        {
          "duration": 0.0852271874999957,
          "durationTicks": 120,
          "midi": 84,
          "name": "C6",
          "ticks": 143640,
          "time": 102.0169434375,
          "velocity": 0.30708661417322836
        },
        {
          "duration": 0.0852271874999957,
          "durationTicks": 120,
          "midi": 72,
          "name": "C5",
          "ticks": 143640,
          "time": 102.0169434375,
          "velocity": 0.30708661417322836
        },
        {
          "duration": 0.0852271875000099,
          "durationTicks": 120,
          "midi": 76,
          "name": "E5",
          "ticks": 143856,
          "time": 102.170352375,
          "velocity": 0.30708661417322836
        },
        {
          "duration": 0.0852271875000099,
          "durationTicks": 120,
          "midi": 81,
          "name": "A5",
          "ticks": 143856,
          "time": 102.170352375,
          "velocity": 0.30708661417322836
        },
        {
          "duration": 0.0852271875000099,
          "durationTicks": 120,
          "midi": 81,
          "name": "A5",
          "ticks": 143856,
          "time": 102.170352375,
          "velocity": 0.30708661417322836
        },
        {
          "duration": 0.0852271875000099,
          "durationTicks": 120,
          "midi": 71,
          "name": "B4",
          "ticks": 143856,
          "time": 102.170352375,
          "velocity": 0.30708661417322836
        },
        {
          "duration": 0.0852271875000099,
          "durationTicks": 120,
          "midi": 83,
          "name": "B5",
          "ticks": 143856,
          "time": 102.170352375,
          "velocity": 0.30708661417322836
        },
        {
          "duration": 0.0852271875000099,
          "durationTicks": 120,
          "midi": 76,
          "name": "E5",
          "ticks": 143856,
          "time": 102.170352375,
          "velocity": 0.30708661417322836
        },
        {
          "duration": 0.0852271875000099,
          "durationTicks": 120,
          "midi": 47,
          "name": "B2",
          "ticks": 143856,
          "time": 102.170352375,
          "velocity": 0.30708661417322836
        },
        {
          "duration": 0.0852271875000099,
          "durationTicks": 120,
          "midi": 83,
          "name": "B5",
          "ticks": 143856,
          "time": 102.170352375,
          "velocity": 0.30708661417322836
        },
        {
          "duration": 0.0852271875000099,
          "durationTicks": 120,
          "midi": 47,
          "name": "B2",
          "ticks": 143856,
          "time": 102.170352375,
          "velocity": 0.30708661417322836
        },
        {
          "duration": 0.0852271875000099,
          "durationTicks": 120,
          "midi": 71,
          "name": "B4",
          "ticks": 143856,
          "time": 102.170352375,
          "velocity": 0.30708661417322836
        },
        {
          "duration": 0.0852271875000099,
          "durationTicks": 120,
          "midi": 76,
          "name": "E5",
          "ticks": 143880,
          "time": 102.1873978125,
          "velocity": 0.30708661417322836
        },
        {
          "duration": 0.0852271875000099,
          "durationTicks": 120,
          "midi": 81,
          "name": "A5",
          "ticks": 143880,
          "time": 102.1873978125,
          "velocity": 0.30708661417322836
        },
        {
          "duration": 0.0852271875000099,
          "durationTicks": 120,
          "midi": 71,
          "name": "B4",
          "ticks": 143880,
          "time": 102.1873978125,
          "velocity": 0.30708661417322836
        },
        {
          "duration": 0.0852271875000099,
          "durationTicks": 120,
          "midi": 47,
          "name": "B2",
          "ticks": 143880,
          "time": 102.1873978125,
          "velocity": 0.30708661417322836
        },
        {
          "duration": 0.0852271875000099,
          "durationTicks": 120,
          "midi": 83,
          "name": "B5",
          "ticks": 143880,
          "time": 102.1873978125,
          "velocity": 0.30708661417322836
        },
        {
          "duration": 0.0852271874999957,
          "durationTicks": 120,
          "midi": 56,
          "name": "G#3",
          "ticks": 144096,
          "time": 102.34080675,
          "velocity": 0.30708661417322836
        },
        {
          "duration": 0.0852271874999957,
          "durationTicks": 120,
          "midi": 56,
          "name": "G#3",
          "ticks": 144096,
          "time": 102.34080675,
          "velocity": 0.30708661417322836
        },
        {
          "duration": 0.0852271874999957,
          "durationTicks": 120,
          "midi": 50,
          "name": "D3",
          "ticks": 144096,
          "time": 102.34080675,
          "velocity": 0.30708661417322836
        },
        {
          "duration": 0.0852271874999957,
          "durationTicks": 120,
          "midi": 50,
          "name": "D3",
          "ticks": 144096,
          "time": 102.34080675,
          "velocity": 0.30708661417322836
        },
        {
          "duration": 0.0852271874999957,
          "durationTicks": 120,
          "midi": 56,
          "name": "G#3",
          "ticks": 144120,
          "time": 102.3578521875,
          "velocity": 0.30708661417322836
        },
        {
          "duration": 0.0852271874999957,
          "durationTicks": 120,
          "midi": 50,
          "name": "D3",
          "ticks": 144120,
          "time": 102.3578521875,
          "velocity": 0.30708661417322836
        },
        {
          "duration": 0.0852271875000099,
          "durationTicks": 120,
          "midi": 76,
          "name": "E5",
          "ticks": 144216,
          "time": 102.4260339375,
          "velocity": 0.30708661417322836
        },
        {
          "duration": 0.0852271875000099,
          "durationTicks": 120,
          "midi": 76,
          "name": "E5",
          "ticks": 144216,
          "time": 102.4260339375,
          "velocity": 0.30708661417322836
        },
        {
          "duration": 0.0852271875000099,
          "durationTicks": 120,
          "midi": 70,
          "name": "A#4",
          "ticks": 144216,
          "time": 102.4260339375,
          "velocity": 0.30708661417322836
        },
        {
          "duration": 0.0852271875000099,
          "durationTicks": 120,
          "midi": 82,
          "name": "A#5",
          "ticks": 144216,
          "time": 102.4260339375,
          "velocity": 0.30708661417322836
        },
        {
          "duration": 0.0852271875000099,
          "durationTicks": 120,
          "midi": 80,
          "name": "G#5",
          "ticks": 144216,
          "time": 102.4260339375,
          "velocity": 0.30708661417322836
        },
        {
          "duration": 0.0852271875000099,
          "durationTicks": 120,
          "midi": 80,
          "name": "G#5",
          "ticks": 144216,
          "time": 102.4260339375,
          "velocity": 0.30708661417322836
        },
        {
          "duration": 0.0852271875000099,
          "durationTicks": 120,
          "midi": 82,
          "name": "A#5",
          "ticks": 144216,
          "time": 102.4260339375,
          "velocity": 0.30708661417322836
        },
        {
          "duration": 0.0852271875000099,
          "durationTicks": 120,
          "midi": 70,
          "name": "A#4",
          "ticks": 144216,
          "time": 102.4260339375,
          "velocity": 0.30708661417322836
        },
        {
          "duration": 0.0852271874999957,
          "durationTicks": 120,
          "midi": 82,
          "name": "A#5",
          "ticks": 144240,
          "time": 102.443079375,
          "velocity": 0.30708661417322836
        },
        {
          "duration": 0.0852271874999957,
          "durationTicks": 120,
          "midi": 80,
          "name": "G#5",
          "ticks": 144240,
          "time": 102.443079375,
          "velocity": 0.30708661417322836
        },
        {
          "duration": 0.0852271874999957,
          "durationTicks": 120,
          "midi": 76,
          "name": "E5",
          "ticks": 144240,
          "time": 102.443079375,
          "velocity": 0.30708661417322836
        },
        {
          "duration": 0.0852271874999957,
          "durationTicks": 120,
          "midi": 70,
          "name": "A#4",
          "ticks": 144240,
          "time": 102.443079375,
          "velocity": 0.30708661417322836
        },
        {
          "duration": 0.0852271874999957,
          "durationTicks": 120,
          "midi": 40,
          "name": "E2",
          "ticks": 144336,
          "time": 102.511261125,
          "velocity": 0.30708661417322836
        },
        {
          "duration": 0.0852271874999957,
          "durationTicks": 120,
          "midi": 76,
          "name": "E5",
          "ticks": 144336,
          "time": 102.511261125,
          "velocity": 0.30708661417322836
        },
        {
          "duration": 0.0852271874999957,
          "durationTicks": 120,
          "midi": 83,
          "name": "B5",
          "ticks": 144336,
          "time": 102.511261125,
          "velocity": 0.30708661417322836
        },
        {
          "duration": 0.0852271874999957,
          "durationTicks": 120,
          "midi": 71,
          "name": "B4",
          "ticks": 144336,
          "time": 102.511261125,
          "velocity": 0.30708661417322836
        },
        {
          "duration": 0.0852271874999957,
          "durationTicks": 120,
          "midi": 71,
          "name": "B4",
          "ticks": 144336,
          "time": 102.511261125,
          "velocity": 0.30708661417322836
        },
        {
          "duration": 0.0852271874999957,
          "durationTicks": 120,
          "midi": 40,
          "name": "E2",
          "ticks": 144336,
          "time": 102.511261125,
          "velocity": 0.30708661417322836
        },
        {
          "duration": 0.0852271874999957,
          "durationTicks": 120,
          "midi": 81,
          "name": "A5",
          "ticks": 144336,
          "time": 102.511261125,
          "velocity": 0.30708661417322836
        },
        {
          "duration": 0.0852271874999957,
          "durationTicks": 120,
          "midi": 81,
          "name": "A5",
          "ticks": 144336,
          "time": 102.511261125,
          "velocity": 0.30708661417322836
        },
        {
          "duration": 0.0852271874999957,
          "durationTicks": 120,
          "midi": 76,
          "name": "E5",
          "ticks": 144336,
          "time": 102.511261125,
          "velocity": 0.30708661417322836
        },
        {
          "duration": 0.0852271874999957,
          "durationTicks": 120,
          "midi": 83,
          "name": "B5",
          "ticks": 144336,
          "time": 102.511261125,
          "velocity": 0.30708661417322836
        },
        {
          "duration": 0.0852271875000099,
          "durationTicks": 120,
          "midi": 71,
          "name": "B4",
          "ticks": 144360,
          "time": 102.52830656249999,
          "velocity": 0.30708661417322836
        },
        {
          "duration": 0.0852271875000099,
          "durationTicks": 120,
          "midi": 40,
          "name": "E2",
          "ticks": 144360,
          "time": 102.52830656249999,
          "velocity": 0.30708661417322836
        },
        {
          "duration": 0.0852271875000099,
          "durationTicks": 120,
          "midi": 83,
          "name": "B5",
          "ticks": 144360,
          "time": 102.52830656249999,
          "velocity": 0.30708661417322836
        },
        {
          "duration": 0.0852271875000099,
          "durationTicks": 120,
          "midi": 76,
          "name": "E5",
          "ticks": 144360,
          "time": 102.52830656249999,
          "velocity": 0.30708661417322836
        },
        {
          "duration": 0.0852271875000099,
          "durationTicks": 120,
          "midi": 81,
          "name": "A5",
          "ticks": 144360,
          "time": 102.52830656249999,
          "velocity": 0.30708661417322836
        },
        {
          "duration": 0.0852271875000099,
          "durationTicks": 120,
          "midi": 56,
          "name": "G#3",
          "ticks": 144576,
          "time": 102.6817155,
          "velocity": 0.30708661417322836
        },
        {
          "duration": 0.0852271875000099,
          "durationTicks": 120,
          "midi": 80,
          "name": "G#5",
          "ticks": 144576,
          "time": 102.6817155,
          "velocity": 0.30708661417322836
        },
        {
          "duration": 0.0852271875000099,
          "durationTicks": 120,
          "midi": 50,
          "name": "D3",
          "ticks": 144576,
          "time": 102.6817155,
          "velocity": 0.30708661417322836
        },
        {
          "duration": 0.0852271875000099,
          "durationTicks": 120,
          "midi": 84,
          "name": "C6",
          "ticks": 144576,
          "time": 102.6817155,
          "velocity": 0.30708661417322836
        },
        {
          "duration": 0.0852271875000099,
          "durationTicks": 120,
          "midi": 50,
          "name": "D3",
          "ticks": 144576,
          "time": 102.6817155,
          "velocity": 0.30708661417322836
        },
        {
          "duration": 0.0852271875000099,
          "durationTicks": 120,
          "midi": 80,
          "name": "G#5",
          "ticks": 144576,
          "time": 102.6817155,
          "velocity": 0.30708661417322836
        },
        {
          "duration": 0.0852271875000099,
          "durationTicks": 120,
          "midi": 76,
          "name": "E5",
          "ticks": 144576,
          "time": 102.6817155,
          "velocity": 0.30708661417322836
        },
        {
          "duration": 0.0852271875000099,
          "durationTicks": 120,
          "midi": 72,
          "name": "C5",
          "ticks": 144576,
          "time": 102.6817155,
          "velocity": 0.30708661417322836
        },
        {
          "duration": 0.0852271875000099,
          "durationTicks": 120,
          "midi": 76,
          "name": "E5",
          "ticks": 144576,
          "time": 102.6817155,
          "velocity": 0.30708661417322836
        },
        {
          "duration": 0.0852271875000099,
          "durationTicks": 120,
          "midi": 56,
          "name": "G#3",
          "ticks": 144576,
          "time": 102.6817155,
          "velocity": 0.30708661417322836
        },
        {
          "duration": 0.0852271875000099,
          "durationTicks": 120,
          "midi": 72,
          "name": "C5",
          "ticks": 144576,
          "time": 102.6817155,
          "velocity": 0.30708661417322836
        },
        {
          "duration": 0.0852271875000099,
          "durationTicks": 120,
          "midi": 84,
          "name": "C6",
          "ticks": 144576,
          "time": 102.6817155,
          "velocity": 0.30708661417322836
        },
        {
          "duration": 0.0852271874999957,
          "durationTicks": 120,
          "midi": 50,
          "name": "D3",
          "ticks": 144600,
          "time": 102.6987609375,
          "velocity": 0.30708661417322836
        },
        {
          "duration": 0.0852271874999957,
          "durationTicks": 120,
          "midi": 80,
          "name": "G#5",
          "ticks": 144600,
          "time": 102.6987609375,
          "velocity": 0.30708661417322836
        },
        {
          "duration": 0.0852271874999957,
          "durationTicks": 120,
          "midi": 76,
          "name": "E5",
          "ticks": 144600,
          "time": 102.6987609375,
          "velocity": 0.30708661417322836
        },
        {
          "duration": 0.0852271874999957,
          "durationTicks": 120,
          "midi": 84,
          "name": "C6",
          "ticks": 144600,
          "time": 102.6987609375,
          "velocity": 0.30708661417322836
        },
        {
          "duration": 0.0852271874999957,
          "durationTicks": 120,
          "midi": 72,
          "name": "C5",
          "ticks": 144600,
          "time": 102.6987609375,
          "velocity": 0.30708661417322836
        },
        {
          "duration": 0.0852271874999957,
          "durationTicks": 120,
          "midi": 56,
          "name": "G#3",
          "ticks": 144600,
          "time": 102.6987609375,
          "velocity": 0.30708661417322836
        },
        {
          "duration": 0.0852271874999957,
          "durationTicks": 120,
          "midi": 81,
          "name": "A5",
          "ticks": 144816,
          "time": 102.852169875,
          "velocity": 0.30708661417322836
        },
        {
          "duration": 0.0852271874999957,
          "durationTicks": 120,
          "midi": 77,
          "name": "F5",
          "ticks": 144816,
          "time": 102.852169875,
          "velocity": 0.30708661417322836
        },
        {
          "duration": 0.0852271874999957,
          "durationTicks": 120,
          "midi": 86,
          "name": "D6",
          "ticks": 144816,
          "time": 102.852169875,
          "velocity": 0.30708661417322836
        },
        {
          "duration": 0.0852271874999957,
          "durationTicks": 120,
          "midi": 86,
          "name": "D6",
          "ticks": 144816,
          "time": 102.852169875,
          "velocity": 0.30708661417322836
        },
        {
          "duration": 0.0852271874999957,
          "durationTicks": 120,
          "midi": 81,
          "name": "A5",
          "ticks": 144816,
          "time": 102.852169875,
          "velocity": 0.30708661417322836
        },
        {
          "duration": 0.0852271874999957,
          "durationTicks": 120,
          "midi": 47,
          "name": "B2",
          "ticks": 144816,
          "time": 102.852169875,
          "velocity": 0.30708661417322836
        },
        {
          "duration": 0.0852271874999957,
          "durationTicks": 120,
          "midi": 74,
          "name": "D5",
          "ticks": 144816,
          "time": 102.852169875,
          "velocity": 0.30708661417322836
        },
        {
          "duration": 0.0852271874999957,
          "durationTicks": 120,
          "midi": 74,
          "name": "D5",
          "ticks": 144816,
          "time": 102.852169875,
          "velocity": 0.30708661417322836
        },
        {
          "duration": 0.0852271874999957,
          "durationTicks": 120,
          "midi": 77,
          "name": "F5",
          "ticks": 144816,
          "time": 102.852169875,
          "velocity": 0.30708661417322836
        },
        {
          "duration": 0.0852271874999957,
          "durationTicks": 120,
          "midi": 47,
          "name": "B2",
          "ticks": 144816,
          "time": 102.852169875,
          "velocity": 0.30708661417322836
        },
        {
          "duration": 0.0852271874999957,
          "durationTicks": 120,
          "midi": 77,
          "name": "F5",
          "ticks": 144840,
          "time": 102.8692153125,
          "velocity": 0.30708661417322836
        },
        {
          "duration": 0.0852271874999957,
          "durationTicks": 120,
          "midi": 47,
          "name": "B2",
          "ticks": 144840,
          "time": 102.8692153125,
          "velocity": 0.30708661417322836
        },
        {
          "duration": 0.0852271874999957,
          "durationTicks": 120,
          "midi": 74,
          "name": "D5",
          "ticks": 144840,
          "time": 102.8692153125,
          "velocity": 0.30708661417322836
        },
        {
          "duration": 0.0852271874999957,
          "durationTicks": 120,
          "midi": 86,
          "name": "D6",
          "ticks": 144840,
          "time": 102.8692153125,
          "velocity": 0.30708661417322836
        },
        {
          "duration": 0.0852271874999957,
          "durationTicks": 120,
          "midi": 81,
          "name": "A5",
          "ticks": 144840,
          "time": 102.8692153125,
          "velocity": 0.30708661417322836
        },
        {
          "duration": 0.0852271875000099,
          "durationTicks": 120,
          "midi": 76,
          "name": "E5",
          "ticks": 145056,
          "time": 103.02262424999999,
          "velocity": 0.30708661417322836
        },
        {
          "duration": 0.0852271875000099,
          "durationTicks": 120,
          "midi": 81,
          "name": "A5",
          "ticks": 145056,
          "time": 103.02262424999999,
          "velocity": 0.30708661417322836
        },
        {
          "duration": 0.0852271875000099,
          "durationTicks": 120,
          "midi": 50,
          "name": "D3",
          "ticks": 145056,
          "time": 103.02262424999999,
          "velocity": 0.30708661417322836
        },
        {
          "duration": 0.0852271875000099,
          "durationTicks": 120,
          "midi": 56,
          "name": "G#3",
          "ticks": 145056,
          "time": 103.02262424999999,
          "velocity": 0.30708661417322836
        },
        {
          "duration": 0.0852271875000099,
          "durationTicks": 120,
          "midi": 50,
          "name": "D3",
          "ticks": 145056,
          "time": 103.02262424999999,
          "velocity": 0.30708661417322836
        },
        {
          "duration": 0.0852271875000099,
          "durationTicks": 120,
          "midi": 72,
          "name": "C5",
          "ticks": 145056,
          "time": 103.02262424999999,
          "velocity": 0.30708661417322836
        },
        {
          "duration": 0.0852271875000099,
          "durationTicks": 120,
          "midi": 84,
          "name": "C6",
          "ticks": 145056,
          "time": 103.02262424999999,
          "velocity": 0.30708661417322836
        },
        {
          "duration": 0.0852271875000099,
          "durationTicks": 120,
          "midi": 84,
          "name": "C6",
          "ticks": 145056,
          "time": 103.02262424999999,
          "velocity": 0.30708661417322836
        },
        {
          "duration": 0.0852271875000099,
          "durationTicks": 120,
          "midi": 76,
          "name": "E5",
          "ticks": 145056,
          "time": 103.02262424999999,
          "velocity": 0.30708661417322836
        },
        {
          "duration": 0.0852271875000099,
          "durationTicks": 120,
          "midi": 56,
          "name": "G#3",
          "ticks": 145056,
          "time": 103.02262424999999,
          "velocity": 0.30708661417322836
        },
        {
          "duration": 0.0852271875000099,
          "durationTicks": 120,
          "midi": 81,
          "name": "A5",
          "ticks": 145056,
          "time": 103.02262424999999,
          "velocity": 0.30708661417322836
        },
        {
          "duration": 0.0852271875000099,
          "durationTicks": 120,
          "midi": 72,
          "name": "C5",
          "ticks": 145056,
          "time": 103.02262424999999,
          "velocity": 0.30708661417322836
        },
        {
          "duration": 0.0852271875000099,
          "durationTicks": 120,
          "midi": 56,
          "name": "G#3",
          "ticks": 145080,
          "time": 103.0396696875,
          "velocity": 0.30708661417322836
        },
        {
          "duration": 0.0852271875000099,
          "durationTicks": 120,
          "midi": 81,
          "name": "A5",
          "ticks": 145080,
          "time": 103.0396696875,
          "velocity": 0.30708661417322836
        },
        {
          "duration": 0.0852271875000099,
          "durationTicks": 120,
          "midi": 72,
          "name": "C5",
          "ticks": 145080,
          "time": 103.0396696875,
          "velocity": 0.30708661417322836
        },
        {
          "duration": 0.0852271875000099,
          "durationTicks": 120,
          "midi": 76,
          "name": "E5",
          "ticks": 145080,
          "time": 103.0396696875,
          "velocity": 0.30708661417322836
        },
        {
          "duration": 0.0852271875000099,
          "durationTicks": 120,
          "midi": 84,
          "name": "C6",
          "ticks": 145080,
          "time": 103.0396696875,
          "velocity": 0.30708661417322836
        },
        {
          "duration": 0.0852271875000099,
          "durationTicks": 120,
          "midi": 50,
          "name": "D3",
          "ticks": 145080,
          "time": 103.0396696875,
          "velocity": 0.30708661417322836
        },
        {
          "duration": 0.0852271874999957,
          "durationTicks": 120,
          "midi": 81,
          "name": "A5",
          "ticks": 145296,
          "time": 103.193078625,
          "velocity": 0.30708661417322836
        },
        {
          "duration": 0.0852271874999957,
          "durationTicks": 120,
          "midi": 71,
          "name": "B4",
          "ticks": 145296,
          "time": 103.193078625,
          "velocity": 0.30708661417322836
        },
        {
          "duration": 0.0852271874999957,
          "durationTicks": 120,
          "midi": 40,
          "name": "E2",
          "ticks": 145296,
          "time": 103.193078625,
          "velocity": 0.30708661417322836
        },
        {
          "duration": 0.0852271874999957,
          "durationTicks": 120,
          "midi": 83,
          "name": "B5",
          "ticks": 145296,
          "time": 103.193078625,
          "velocity": 0.30708661417322836
        },
        {
          "duration": 0.0852271874999957,
          "durationTicks": 120,
          "midi": 83,
          "name": "B5",
          "ticks": 145296,
          "time": 103.193078625,
          "velocity": 0.30708661417322836
        },
        {
          "duration": 0.0852271874999957,
          "durationTicks": 120,
          "midi": 71,
          "name": "B4",
          "ticks": 145296,
          "time": 103.193078625,
          "velocity": 0.30708661417322836
        },
        {
          "duration": 0.0852271874999957,
          "durationTicks": 120,
          "midi": 81,
          "name": "A5",
          "ticks": 145296,
          "time": 103.193078625,
          "velocity": 0.30708661417322836
        },
        {
          "duration": 0.0852271874999957,
          "durationTicks": 120,
          "midi": 76,
          "name": "E5",
          "ticks": 145296,
          "time": 103.193078625,
          "velocity": 0.30708661417322836
        },
        {
          "duration": 0.0852271874999957,
          "durationTicks": 120,
          "midi": 76,
          "name": "E5",
          "ticks": 145296,
          "time": 103.193078625,
          "velocity": 0.30708661417322836
        },
        {
          "duration": 0.0852271874999957,
          "durationTicks": 120,
          "midi": 40,
          "name": "E2",
          "ticks": 145296,
          "time": 103.193078625,
          "velocity": 0.30708661417322836
        },
        {
          "duration": 0.0852271874999957,
          "durationTicks": 120,
          "midi": 81,
          "name": "A5",
          "ticks": 145320,
          "time": 103.2101240625,
          "velocity": 0.30708661417322836
        },
        {
          "duration": 0.0852271874999957,
          "durationTicks": 120,
          "midi": 71,
          "name": "B4",
          "ticks": 145320,
          "time": 103.2101240625,
          "velocity": 0.30708661417322836
        },
        {
          "duration": 0.0852271874999957,
          "durationTicks": 120,
          "midi": 76,
          "name": "E5",
          "ticks": 145320,
          "time": 103.2101240625,
          "velocity": 0.30708661417322836
        },
        {
          "duration": 0.0852271874999957,
          "durationTicks": 120,
          "midi": 40,
          "name": "E2",
          "ticks": 145320,
          "time": 103.2101240625,
          "velocity": 0.30708661417322836
        },
        {
          "duration": 0.0852271874999957,
          "durationTicks": 120,
          "midi": 83,
          "name": "B5",
          "ticks": 145320,
          "time": 103.2101240625,
          "velocity": 0.30708661417322836
        },
        {
          "duration": 0.0852271874999957,
          "durationTicks": 120,
          "midi": 74,
          "name": "D5",
          "ticks": 145536,
          "time": 103.363533,
          "velocity": 0.30708661417322836
        },
        {
          "duration": 0.0852271874999957,
          "durationTicks": 120,
          "midi": 50,
          "name": "D3",
          "ticks": 145536,
          "time": 103.363533,
          "velocity": 0.30708661417322836
        },
        {
          "duration": 0.0852271874999957,
          "durationTicks": 120,
          "midi": 74,
          "name": "D5",
          "ticks": 145536,
          "time": 103.363533,
          "velocity": 0.30708661417322836
        },
        {
          "duration": 0.0852271874999957,
          "durationTicks": 120,
          "midi": 86,
          "name": "D6",
          "ticks": 145536,
          "time": 103.363533,
          "velocity": 0.30708661417322836
        },
        {
          "duration": 0.0852271874999957,
          "durationTicks": 120,
          "midi": 81,
          "name": "A5",
          "ticks": 145536,
          "time": 103.363533,
          "velocity": 0.30708661417322836
        },
        {
          "duration": 0.0852271874999957,
          "durationTicks": 120,
          "midi": 76,
          "name": "E5",
          "ticks": 145536,
          "time": 103.363533,
          "velocity": 0.30708661417322836
        },
        {
          "duration": 0.0852271874999957,
          "durationTicks": 120,
          "midi": 81,
          "name": "A5",
          "ticks": 145536,
          "time": 103.363533,
          "velocity": 0.30708661417322836
        },
        {
          "duration": 0.0852271874999957,
          "durationTicks": 120,
          "midi": 86,
          "name": "D6",
          "ticks": 145536,
          "time": 103.363533,
          "velocity": 0.30708661417322836
        },
        {
          "duration": 0.0852271874999957,
          "durationTicks": 120,
          "midi": 56,
          "name": "G#3",
          "ticks": 145536,
          "time": 103.363533,
          "velocity": 0.30708661417322836
        },
        {
          "duration": 0.0852271874999957,
          "durationTicks": 120,
          "midi": 50,
          "name": "D3",
          "ticks": 145536,
          "time": 103.363533,
          "velocity": 0.30708661417322836
        },
        {
          "duration": 0.0852271874999957,
          "durationTicks": 120,
          "midi": 76,
          "name": "E5",
          "ticks": 145536,
          "time": 103.363533,
          "velocity": 0.30708661417322836
        },
        {
          "duration": 0.0852271874999957,
          "durationTicks": 120,
          "midi": 56,
          "name": "G#3",
          "ticks": 145536,
          "time": 103.363533,
          "velocity": 0.30708661417322836
        },
        {
          "duration": 0.0852271874999957,
          "durationTicks": 120,
          "midi": 81,
          "name": "A5",
          "ticks": 145560,
          "time": 103.3805784375,
          "velocity": 0.30708661417322836
        },
        {
          "duration": 0.0852271874999957,
          "durationTicks": 120,
          "midi": 76,
          "name": "E5",
          "ticks": 145560,
          "time": 103.3805784375,
          "velocity": 0.30708661417322836
        },
        {
          "duration": 0.0852271874999957,
          "durationTicks": 120,
          "midi": 56,
          "name": "G#3",
          "ticks": 145560,
          "time": 103.3805784375,
          "velocity": 0.30708661417322836
        },
        {
          "duration": 0.0852271874999957,
          "durationTicks": 120,
          "midi": 86,
          "name": "D6",
          "ticks": 145560,
          "time": 103.3805784375,
          "velocity": 0.30708661417322836
        },
        {
          "duration": 0.0852271874999957,
          "durationTicks": 120,
          "midi": 74,
          "name": "D5",
          "ticks": 145560,
          "time": 103.3805784375,
          "velocity": 0.30708661417322836
        },
        {
          "duration": 0.0852271874999957,
          "durationTicks": 120,
          "midi": 50,
          "name": "D3",
          "ticks": 145560,
          "time": 103.3805784375,
          "velocity": 0.30708661417322836
        },
        {
          "duration": 0.0852271875000099,
          "durationTicks": 120,
          "midi": 72,
          "name": "C5",
          "ticks": 145776,
          "time": 103.533987375,
          "velocity": 0.30708661417322836
        },
        {
          "duration": 0.0852271875000099,
          "durationTicks": 120,
          "midi": 76,
          "name": "E5",
          "ticks": 145776,
          "time": 103.533987375,
          "velocity": 0.30708661417322836
        },
        {
          "duration": 0.0852271875000099,
          "durationTicks": 120,
          "midi": 81,
          "name": "A5",
          "ticks": 145776,
          "time": 103.533987375,
          "velocity": 0.30708661417322836
        },
        {
          "duration": 0.0852271875000099,
          "durationTicks": 120,
          "midi": 48,
          "name": "C3",
          "ticks": 145776,
          "time": 103.533987375,
          "velocity": 0.30708661417322836
        },
        {
          "duration": 0.0852271875000099,
          "durationTicks": 120,
          "midi": 84,
          "name": "C6",
          "ticks": 145776,
          "time": 103.533987375,
          "velocity": 0.30708661417322836
        },
        {
          "duration": 0.0852271875000099,
          "durationTicks": 120,
          "midi": 36,
          "name": "C2",
          "ticks": 145776,
          "time": 103.533987375,
          "velocity": 0.30708661417322836
        },
        {
          "duration": 0.0852271875000099,
          "durationTicks": 120,
          "midi": 72,
          "name": "C5",
          "ticks": 145776,
          "time": 103.533987375,
          "velocity": 0.30708661417322836
        },
        {
          "duration": 0.0852271875000099,
          "durationTicks": 120,
          "midi": 36,
          "name": "C2",
          "ticks": 145776,
          "time": 103.533987375,
          "velocity": 0.30708661417322836
        },
        {
          "duration": 0.0852271875000099,
          "durationTicks": 120,
          "midi": 76,
          "name": "E5",
          "ticks": 145776,
          "time": 103.533987375,
          "velocity": 0.30708661417322836
        },
        {
          "duration": 0.0852271875000099,
          "durationTicks": 120,
          "midi": 84,
          "name": "C6",
          "ticks": 145776,
          "time": 103.533987375,
          "velocity": 0.30708661417322836
        },
        {
          "duration": 0.0852271875000099,
          "durationTicks": 120,
          "midi": 81,
          "name": "A5",
          "ticks": 145776,
          "time": 103.533987375,
          "velocity": 0.30708661417322836
        },
        {
          "duration": 0.0852271875000099,
          "durationTicks": 120,
          "midi": 48,
          "name": "C3",
          "ticks": 145776,
          "time": 103.533987375,
          "velocity": 0.30708661417322836
        },
        {
          "duration": 0.0852271874999957,
          "durationTicks": 120,
          "midi": 76,
          "name": "E5",
          "ticks": 145800,
          "time": 103.5510328125,
          "velocity": 0.30708661417322836
        },
        {
          "duration": 0.0852271874999957,
          "durationTicks": 120,
          "midi": 81,
          "name": "A5",
          "ticks": 145800,
          "time": 103.5510328125,
          "velocity": 0.30708661417322836
        },
        {
          "duration": 0.0852271874999957,
          "durationTicks": 120,
          "midi": 36,
          "name": "C2",
          "ticks": 145800,
          "time": 103.5510328125,
          "velocity": 0.30708661417322836
        },
        {
          "duration": 0.0852271874999957,
          "durationTicks": 120,
          "midi": 84,
          "name": "C6",
          "ticks": 145800,
          "time": 103.5510328125,
          "velocity": 0.30708661417322836
        },
        {
          "duration": 0.0852271874999957,
          "durationTicks": 120,
          "midi": 72,
          "name": "C5",
          "ticks": 145800,
          "time": 103.5510328125,
          "velocity": 0.30708661417322836
        },
        {
          "duration": 0.0852271874999957,
          "durationTicks": 120,
          "midi": 48,
          "name": "C3",
          "ticks": 145800,
          "time": 103.5510328125,
          "velocity": 0.30708661417322836
        },
        {
          "duration": 0.0852271874999957,
          "durationTicks": 120,
          "midi": 33,
          "name": "A1",
          "ticks": 146016,
          "time": 103.70444175,
          "velocity": 0.30708661417322836
        },
        {
          "duration": 0.0852271874999957,
          "durationTicks": 120,
          "midi": 69,
          "name": "A4",
          "ticks": 146016,
          "time": 103.70444175,
          "velocity": 0.30708661417322836
        },
        {
          "duration": 0.0852271874999957,
          "durationTicks": 120,
          "midi": 72,
          "name": "C5",
          "ticks": 146016,
          "time": 103.70444175,
          "velocity": 0.30708661417322836
        },
        {
          "duration": 0.0852271874999957,
          "durationTicks": 120,
          "midi": 45,
          "name": "A2",
          "ticks": 146016,
          "time": 103.70444175,
          "velocity": 0.30708661417322836
        },
        {
          "duration": 0.0852271874999957,
          "durationTicks": 120,
          "midi": 45,
          "name": "A2",
          "ticks": 146016,
          "time": 103.70444175,
          "velocity": 0.30708661417322836
        },
        {
          "duration": 0.0852271874999957,
          "durationTicks": 120,
          "midi": 76,
          "name": "E5",
          "ticks": 146016,
          "time": 103.70444175,
          "velocity": 0.30708661417322836
        },
        {
          "duration": 0.0852271874999957,
          "durationTicks": 120,
          "midi": 76,
          "name": "E5",
          "ticks": 146016,
          "time": 103.70444175,
          "velocity": 0.30708661417322836
        },
        {
          "duration": 0.0852271874999957,
          "durationTicks": 120,
          "midi": 33,
          "name": "A1",
          "ticks": 146016,
          "time": 103.70444175,
          "velocity": 0.30708661417322836
        },
        {
          "duration": 0.0852271874999957,
          "durationTicks": 120,
          "midi": 81,
          "name": "A5",
          "ticks": 146016,
          "time": 103.70444175,
          "velocity": 0.30708661417322836
        },
        {
          "duration": 0.0852271874999957,
          "durationTicks": 120,
          "midi": 72,
          "name": "C5",
          "ticks": 146016,
          "time": 103.70444175,
          "velocity": 0.30708661417322836
        },
        {
          "duration": 0.0852271874999957,
          "durationTicks": 120,
          "midi": 81,
          "name": "A5",
          "ticks": 146016,
          "time": 103.70444175,
          "velocity": 0.30708661417322836
        },
        {
          "duration": 0.0852271874999957,
          "durationTicks": 120,
          "midi": 69,
          "name": "A4",
          "ticks": 146016,
          "time": 103.70444175,
          "velocity": 0.30708661417322836
        },
        {
          "duration": 0.0852271874999957,
          "durationTicks": 120,
          "midi": 76,
          "name": "E5",
          "ticks": 146040,
          "time": 103.7214871875,
          "velocity": 0.30708661417322836
        },
        {
          "duration": 0.0852271874999957,
          "durationTicks": 120,
          "midi": 72,
          "name": "C5",
          "ticks": 146040,
          "time": 103.7214871875,
          "velocity": 0.30708661417322836
        },
        {
          "duration": 0.0852271874999957,
          "durationTicks": 120,
          "midi": 69,
          "name": "A4",
          "ticks": 146040,
          "time": 103.7214871875,
          "velocity": 0.30708661417322836
        },
        {
          "duration": 0.0852271874999957,
          "durationTicks": 120,
          "midi": 33,
          "name": "A1",
          "ticks": 146040,
          "time": 103.7214871875,
          "velocity": 0.30708661417322836
        },
        {
          "duration": 0.0852271874999957,
          "durationTicks": 120,
          "midi": 81,
          "name": "A5",
          "ticks": 146040,
          "time": 103.7214871875,
          "velocity": 0.30708661417322836
        },
        {
          "duration": 0.0852271874999957,
          "durationTicks": 120,
          "midi": 45,
          "name": "A2",
          "ticks": 146040,
          "time": 103.7214871875,
          "velocity": 0.30708661417322836
        },
        {
          "duration": 0.0852271875000099,
          "durationTicks": 120,
          "midi": 84,
          "name": "C6",
          "ticks": 146256,
          "time": 103.87489612499999,
          "velocity": 0.30708661417322836
        },
        {
          "duration": 0.0852271875000099,
          "durationTicks": 120,
          "midi": 76,
          "name": "E5",
          "ticks": 146256,
          "time": 103.87489612499999,
          "velocity": 0.30708661417322836
        },
        {
          "duration": 0.0852271875000099,
          "durationTicks": 120,
          "midi": 81,
          "name": "A5",
          "ticks": 146256,
          "time": 103.87489612499999,
          "velocity": 0.30708661417322836
        },
        {
          "duration": 0.0852271875000099,
          "durationTicks": 120,
          "midi": 72,
          "name": "C5",
          "ticks": 146256,
          "time": 103.87489612499999,
          "velocity": 0.30708661417322836
        },
        {
          "duration": 0.0852271875000099,
          "durationTicks": 120,
          "midi": 76,
          "name": "E5",
          "ticks": 146256,
          "time": 103.87489612499999,
          "velocity": 0.30708661417322836
        },
        {
          "duration": 0.0852271875000099,
          "durationTicks": 120,
          "midi": 48,
          "name": "C3",
          "ticks": 146256,
          "time": 103.87489612499999,
          "velocity": 0.30708661417322836
        },
        {
          "duration": 0.0852271875000099,
          "durationTicks": 120,
          "midi": 36,
          "name": "C2",
          "ticks": 146256,
          "time": 103.87489612499999,
          "velocity": 0.30708661417322836
        },
        {
          "duration": 0.0852271875000099,
          "durationTicks": 120,
          "midi": 84,
          "name": "C6",
          "ticks": 146256,
          "time": 103.87489612499999,
          "velocity": 0.30708661417322836
        },
        {
          "duration": 0.0852271875000099,
          "durationTicks": 120,
          "midi": 72,
          "name": "C5",
          "ticks": 146256,
          "time": 103.87489612499999,
          "velocity": 0.30708661417322836
        },
        {
          "duration": 0.0852271875000099,
          "durationTicks": 120,
          "midi": 81,
          "name": "A5",
          "ticks": 146256,
          "time": 103.87489612499999,
          "velocity": 0.30708661417322836
        },
        {
          "duration": 0.0852271875000099,
          "durationTicks": 120,
          "midi": 36,
          "name": "C2",
          "ticks": 146256,
          "time": 103.87489612499999,
          "velocity": 0.30708661417322836
        },
        {
          "duration": 0.0852271875000099,
          "durationTicks": 120,
          "midi": 48,
          "name": "C3",
          "ticks": 146256,
          "time": 103.87489612499999,
          "velocity": 0.30708661417322836
        },
        {
          "duration": 0.0852271875000099,
          "durationTicks": 120,
          "midi": 84,
          "name": "C6",
          "ticks": 146280,
          "time": 103.8919415625,
          "velocity": 0.30708661417322836
        },
        {
          "duration": 0.0852271875000099,
          "durationTicks": 120,
          "midi": 81,
          "name": "A5",
          "ticks": 146280,
          "time": 103.8919415625,
          "velocity": 0.30708661417322836
        },
        {
          "duration": 0.0852271875000099,
          "durationTicks": 120,
          "midi": 72,
          "name": "C5",
          "ticks": 146280,
          "time": 103.8919415625,
          "velocity": 0.30708661417322836
        },
        {
          "duration": 0.0852271875000099,
          "durationTicks": 120,
          "midi": 36,
          "name": "C2",
          "ticks": 146280,
          "time": 103.8919415625,
          "velocity": 0.30708661417322836
        },
        {
          "duration": 0.0852271875000099,
          "durationTicks": 120,
          "midi": 48,
          "name": "C3",
          "ticks": 146280,
          "time": 103.8919415625,
          "velocity": 0.30708661417322836
        },
        {
          "duration": 0.0852271875000099,
          "durationTicks": 120,
          "midi": 76,
          "name": "E5",
          "ticks": 146280,
          "time": 103.8919415625,
          "velocity": 0.30708661417322836
        },
        {
          "duration": 0.0852271874999957,
          "durationTicks": 120,
          "midi": 84,
          "name": "C6",
          "ticks": 146496,
          "time": 104.0453505,
          "velocity": 0.30708661417322836
        },
        {
          "duration": 0.0852271874999957,
          "durationTicks": 120,
          "midi": 40,
          "name": "E2",
          "ticks": 146496,
          "time": 104.0453505,
          "velocity": 0.30708661417322836
        },
        {
          "duration": 0.0852271874999957,
          "durationTicks": 120,
          "midi": 81,
          "name": "A5",
          "ticks": 146496,
          "time": 104.0453505,
          "velocity": 0.30708661417322836
        },
        {
          "duration": 0.0852271874999957,
          "durationTicks": 120,
          "midi": 52,
          "name": "E3",
          "ticks": 146496,
          "time": 104.0453505,
          "velocity": 0.30708661417322836
        },
        {
          "duration": 0.0852271874999957,
          "durationTicks": 120,
          "midi": 40,
          "name": "E2",
          "ticks": 146496,
          "time": 104.0453505,
          "velocity": 0.30708661417322836
        },
        {
          "duration": 0.0852271874999957,
          "durationTicks": 120,
          "midi": 52,
          "name": "E3",
          "ticks": 146496,
          "time": 104.0453505,
          "velocity": 0.30708661417322836
        },
        {
          "duration": 0.0852271874999957,
          "durationTicks": 120,
          "midi": 76,
          "name": "E5",
          "ticks": 146496,
          "time": 104.0453505,
          "velocity": 0.30708661417322836
        },
        {
          "duration": 0.0852271874999957,
          "durationTicks": 120,
          "midi": 81,
          "name": "A5",
          "ticks": 146496,
          "time": 104.0453505,
          "velocity": 0.30708661417322836
        },
        {
          "duration": 0.0852271874999957,
          "durationTicks": 120,
          "midi": 88,
          "name": "E6",
          "ticks": 146496,
          "time": 104.0453505,
          "velocity": 0.30708661417322836
        },
        {
          "duration": 0.0852271874999957,
          "durationTicks": 120,
          "midi": 88,
          "name": "E6",
          "ticks": 146496,
          "time": 104.0453505,
          "velocity": 0.30708661417322836
        },
        {
          "duration": 0.0852271874999957,
          "durationTicks": 120,
          "midi": 76,
          "name": "E5",
          "ticks": 146496,
          "time": 104.0453505,
          "velocity": 0.30708661417322836
        },
        {
          "duration": 0.0852271874999957,
          "durationTicks": 120,
          "midi": 84,
          "name": "C6",
          "ticks": 146496,
          "time": 104.0453505,
          "velocity": 0.30708661417322836
        },
        {
          "duration": 0.0852271874999957,
          "durationTicks": 120,
          "midi": 76,
          "name": "E5",
          "ticks": 146520,
          "time": 104.0623959375,
          "velocity": 0.30708661417322836
        },
        {
          "duration": 0.0852271874999957,
          "durationTicks": 120,
          "midi": 84,
          "name": "C6",
          "ticks": 146520,
          "time": 104.0623959375,
          "velocity": 0.30708661417322836
        },
        {
          "duration": 0.0852271874999957,
          "durationTicks": 120,
          "midi": 52,
          "name": "E3",
          "ticks": 146520,
          "time": 104.0623959375,
          "velocity": 0.30708661417322836
        },
        {
          "duration": 0.0852271874999957,
          "durationTicks": 120,
          "midi": 88,
          "name": "E6",
          "ticks": 146520,
          "time": 104.0623959375,
          "velocity": 0.30708661417322836
        },
        {
          "duration": 0.0852271874999957,
          "durationTicks": 120,
          "midi": 81,
          "name": "A5",
          "ticks": 146520,
          "time": 104.0623959375,
          "velocity": 0.30708661417322836
        },
        {
          "duration": 0.0852271874999957,
          "durationTicks": 120,
          "midi": 40,
          "name": "E2",
          "ticks": 146520,
          "time": 104.0623959375,
          "velocity": 0.30708661417322836
        },
        {
          "duration": 0.0852271874999957,
          "durationTicks": 120,
          "midi": 81,
          "name": "A5",
          "ticks": 146736,
          "time": 104.215804875,
          "velocity": 0.30708661417322836
        },
        {
          "duration": 0.0852271874999957,
          "durationTicks": 120,
          "midi": 57,
          "name": "A3",
          "ticks": 146736,
          "time": 104.215804875,
          "velocity": 0.30708661417322836
        },
        {
          "duration": 0.0852271874999957,
          "durationTicks": 120,
          "midi": 45,
          "name": "A2",
          "ticks": 146736,
          "time": 104.215804875,
          "velocity": 0.30708661417322836
        },
        {
          "duration": 0.0852271874999957,
          "durationTicks": 120,
          "midi": 88,
          "name": "E6",
          "ticks": 146736,
          "time": 104.215804875,
          "velocity": 0.30708661417322836
        },
        {
          "duration": 0.0852271874999957,
          "durationTicks": 120,
          "midi": 81,
          "name": "A5",
          "ticks": 146736,
          "time": 104.215804875,
          "velocity": 0.30708661417322836
        },
        {
          "duration": 0.0852271874999957,
          "durationTicks": 120,
          "midi": 84,
          "name": "C6",
          "ticks": 146736,
          "time": 104.215804875,
          "velocity": 0.30708661417322836
        },
        {
          "duration": 0.0852271874999957,
          "durationTicks": 120,
          "midi": 57,
          "name": "A3",
          "ticks": 146736,
          "time": 104.215804875,
          "velocity": 0.30708661417322836
        },
        {
          "duration": 0.0852271874999957,
          "durationTicks": 120,
          "midi": 84,
          "name": "C6",
          "ticks": 146736,
          "time": 104.215804875,
          "velocity": 0.30708661417322836
        },
        {
          "duration": 0.0852271874999957,
          "durationTicks": 120,
          "midi": 93,
          "name": "A6",
          "ticks": 146736,
          "time": 104.215804875,
          "velocity": 0.30708661417322836
        },
        {
          "duration": 0.0852271874999957,
          "durationTicks": 120,
          "midi": 45,
          "name": "A2",
          "ticks": 146736,
          "time": 104.215804875,
          "velocity": 0.30708661417322836
        },
        {
          "duration": 0.0852271874999957,
          "durationTicks": 120,
          "midi": 88,
          "name": "E6",
          "ticks": 146736,
          "time": 104.215804875,
          "velocity": 0.30708661417322836
        },
        {
          "duration": 0.0852271874999957,
          "durationTicks": 120,
          "midi": 93,
          "name": "A6",
          "ticks": 146736,
          "time": 104.215804875,
          "velocity": 0.30708661417322836
        },
        {
          "duration": 0.0852271874999957,
          "durationTicks": 120,
          "midi": 88,
          "name": "E6",
          "ticks": 146760,
          "time": 104.2328503125,
          "velocity": 0.30708661417322836
        },
        {
          "duration": 0.0852271874999957,
          "durationTicks": 120,
          "midi": 57,
          "name": "A3",
          "ticks": 146760,
          "time": 104.2328503125,
          "velocity": 0.30708661417322836
        },
        {
          "duration": 0.0852271874999957,
          "durationTicks": 120,
          "midi": 84,
          "name": "C6",
          "ticks": 146760,
          "time": 104.2328503125,
          "velocity": 0.30708661417322836
        },
        {
          "duration": 0.0852271874999957,
          "durationTicks": 120,
          "midi": 93,
          "name": "A6",
          "ticks": 146760,
          "time": 104.2328503125,
          "velocity": 0.30708661417322836
        },
        {
          "duration": 0.0852271874999957,
          "durationTicks": 120,
          "midi": 45,
          "name": "A2",
          "ticks": 146760,
          "time": 104.2328503125,
          "velocity": 0.30708661417322836
        },
        {
          "duration": 0.0852271874999957,
          "durationTicks": 120,
          "midi": 81,
          "name": "A5",
          "ticks": 146760,
          "time": 104.2328503125,
          "velocity": 0.30708661417322836
        },
        {
          "duration": 0.0852271875000099,
          "durationTicks": 120,
          "midi": 88,
          "name": "E6",
          "ticks": 146976,
          "time": 104.38625925,
          "velocity": 0.30708661417322836
        },
        {
          "duration": 0.0852271875000099,
          "durationTicks": 120,
          "midi": 81,
          "name": "A5",
          "ticks": 146976,
          "time": 104.38625925,
          "velocity": 0.30708661417322836
        },
        {
          "duration": 0.0852271875000099,
          "durationTicks": 120,
          "midi": 84,
          "name": "C6",
          "ticks": 146976,
          "time": 104.38625925,
          "velocity": 0.30708661417322836
        },
        {
          "duration": 0.0852271875000099,
          "durationTicks": 120,
          "midi": 88,
          "name": "E6",
          "ticks": 146976,
          "time": 104.38625925,
          "velocity": 0.30708661417322836
        },
        {
          "duration": 0.0852271875000099,
          "durationTicks": 120,
          "midi": 76,
          "name": "E5",
          "ticks": 146976,
          "time": 104.38625925,
          "velocity": 0.30708661417322836
        },
        {
          "duration": 0.0852271875000099,
          "durationTicks": 120,
          "midi": 81,
          "name": "A5",
          "ticks": 146976,
          "time": 104.38625925,
          "velocity": 0.30708661417322836
        },
        {
          "duration": 0.0852271875000099,
          "durationTicks": 120,
          "midi": 84,
          "name": "C6",
          "ticks": 146976,
          "time": 104.38625925,
          "velocity": 0.30708661417322836
        },
        {
          "duration": 0.0852271875000099,
          "durationTicks": 120,
          "midi": 76,
          "name": "E5",
          "ticks": 146976,
          "time": 104.38625925,
          "velocity": 0.30708661417322836
        },
        {
          "duration": 0.0852271874999957,
          "durationTicks": 120,
          "midi": 88,
          "name": "E6",
          "ticks": 147000,
          "time": 104.4033046875,
          "velocity": 0.30708661417322836
        },
        {
          "duration": 0.0852271874999957,
          "durationTicks": 120,
          "midi": 81,
          "name": "A5",
          "ticks": 147000,
          "time": 104.4033046875,
          "velocity": 0.30708661417322836
        },
        {
          "duration": 0.0852271874999957,
          "durationTicks": 120,
          "midi": 76,
          "name": "E5",
          "ticks": 147000,
          "time": 104.4033046875,
          "velocity": 0.30708661417322836
        },
        {
          "duration": 0.0852271874999957,
          "durationTicks": 120,
          "midi": 84,
          "name": "C6",
          "ticks": 147000,
          "time": 104.4033046875,
          "velocity": 0.30708661417322836
        },
        {
          "duration": 0.0852271874999957,
          "durationTicks": 120,
          "midi": 45,
          "name": "A2",
          "ticks": 147216,
          "time": 104.556713625,
          "velocity": 0.30708661417322836
        },
        {
          "duration": 0.0852271874999957,
          "durationTicks": 120,
          "midi": 76,
          "name": "E5",
          "ticks": 147216,
          "time": 104.556713625,
          "velocity": 0.30708661417322836
        },
        {
          "duration": 0.0852271874999957,
          "durationTicks": 120,
          "midi": 84,
          "name": "C6",
          "ticks": 147216,
          "time": 104.556713625,
          "velocity": 0.30708661417322836
        },
        {
          "duration": 0.0852271874999957,
          "durationTicks": 120,
          "midi": 72,
          "name": "C5",
          "ticks": 147216,
          "time": 104.556713625,
          "velocity": 0.30708661417322836
        },
        {
          "duration": 0.0852271874999957,
          "durationTicks": 120,
          "midi": 33,
          "name": "A1",
          "ticks": 147216,
          "time": 104.556713625,
          "velocity": 0.30708661417322836
        },
        {
          "duration": 0.0852271874999957,
          "durationTicks": 120,
          "midi": 33,
          "name": "A1",
          "ticks": 147216,
          "time": 104.556713625,
          "velocity": 0.30708661417322836
        },
        {
          "duration": 0.0852271874999957,
          "durationTicks": 120,
          "midi": 72,
          "name": "C5",
          "ticks": 147216,
          "time": 104.556713625,
          "velocity": 0.30708661417322836
        },
        {
          "duration": 0.0852271874999957,
          "durationTicks": 120,
          "midi": 45,
          "name": "A2",
          "ticks": 147216,
          "time": 104.556713625,
          "velocity": 0.30708661417322836
        },
        {
          "duration": 0.0852271874999957,
          "durationTicks": 120,
          "midi": 76,
          "name": "E5",
          "ticks": 147216,
          "time": 104.556713625,
          "velocity": 0.30708661417322836
        },
        {
          "duration": 0.0852271874999957,
          "durationTicks": 120,
          "midi": 81,
          "name": "A5",
          "ticks": 147216,
          "time": 104.556713625,
          "velocity": 0.30708661417322836
        },
        {
          "duration": 0.0852271874999957,
          "durationTicks": 120,
          "midi": 81,
          "name": "A5",
          "ticks": 147216,
          "time": 104.556713625,
          "velocity": 0.30708661417322836
        },
        {
          "duration": 0.0852271874999957,
          "durationTicks": 120,
          "midi": 84,
          "name": "C6",
          "ticks": 147216,
          "time": 104.556713625,
          "velocity": 0.30708661417322836
        },
        {
          "duration": 0.0852271874999957,
          "durationTicks": 120,
          "midi": 76,
          "name": "E5",
          "ticks": 147240,
          "time": 104.5737590625,
          "velocity": 0.30708661417322836
        },
        {
          "duration": 0.0852271874999957,
          "durationTicks": 120,
          "midi": 33,
          "name": "A1",
          "ticks": 147240,
          "time": 104.5737590625,
          "velocity": 0.30708661417322836
        },
        {
          "duration": 0.0852271874999957,
          "durationTicks": 120,
          "midi": 84,
          "name": "C6",
          "ticks": 147240,
          "time": 104.5737590625,
          "velocity": 0.30708661417322836
        },
        {
          "duration": 0.0852271874999957,
          "durationTicks": 120,
          "midi": 72,
          "name": "C5",
          "ticks": 147240,
          "time": 104.5737590625,
          "velocity": 0.30708661417322836
        },
        {
          "duration": 0.0852271874999957,
          "durationTicks": 120,
          "midi": 81,
          "name": "A5",
          "ticks": 147240,
          "time": 104.5737590625,
          "velocity": 0.30708661417322836
        },
        {
          "duration": 0.0852271874999957,
          "durationTicks": 120,
          "midi": 45,
          "name": "A2",
          "ticks": 147240,
          "time": 104.5737590625,
          "velocity": 0.30708661417322836
        },
        {
          "duration": 0.0852271874999957,
          "durationTicks": 120,
          "midi": 76,
          "name": "E5",
          "ticks": 147456,
          "time": 104.727168,
          "velocity": 0.30708661417322836
        },
        {
          "duration": 0.0852271874999957,
          "durationTicks": 120,
          "midi": 81,
          "name": "A5",
          "ticks": 147456,
          "time": 104.727168,
          "velocity": 0.30708661417322836
        },
        {
          "duration": 0.0852271874999957,
          "durationTicks": 120,
          "midi": 76,
          "name": "E5",
          "ticks": 147456,
          "time": 104.727168,
          "velocity": 0.30708661417322836
        },
        {
          "duration": 0.0852271874999957,
          "durationTicks": 120,
          "midi": 69,
          "name": "A4",
          "ticks": 147456,
          "time": 104.727168,
          "velocity": 0.30708661417322836
        },
        {
          "duration": 0.0852271874999957,
          "durationTicks": 120,
          "midi": 72,
          "name": "C5",
          "ticks": 147456,
          "time": 104.727168,
          "velocity": 0.30708661417322836
        },
        {
          "duration": 0.0852271874999957,
          "durationTicks": 120,
          "midi": 72,
          "name": "C5",
          "ticks": 147456,
          "time": 104.727168,
          "velocity": 0.30708661417322836
        },
        {
          "duration": 0.0852271874999957,
          "durationTicks": 120,
          "midi": 81,
          "name": "A5",
          "ticks": 147456,
          "time": 104.727168,
          "velocity": 0.30708661417322836
        },
        {
          "duration": 0.0852271874999957,
          "durationTicks": 120,
          "midi": 69,
          "name": "A4",
          "ticks": 147456,
          "time": 104.727168,
          "velocity": 0.30708661417322836
        },
        {
          "duration": 0.0852271875000099,
          "durationTicks": 120,
          "midi": 76,
          "name": "E5",
          "ticks": 147480,
          "time": 104.7442134375,
          "velocity": 0.30708661417322836
        },
        {
          "duration": 0.0852271875000099,
          "durationTicks": 120,
          "midi": 69,
          "name": "A4",
          "ticks": 147480,
          "time": 104.7442134375,
          "velocity": 0.30708661417322836
        },
        {
          "duration": 0.0852271875000099,
          "durationTicks": 120,
          "midi": 81,
          "name": "A5",
          "ticks": 147480,
          "time": 104.7442134375,
          "velocity": 0.30708661417322836
        },
        {
          "duration": 0.0852271875000099,
          "durationTicks": 120,
          "midi": 72,
          "name": "C5",
          "ticks": 147480,
          "time": 104.7442134375,
          "velocity": 0.30708661417322836
        },
        {
          "duration": 0.0852271874999957,
          "durationTicks": 120,
          "midi": 35,
          "name": "B1",
          "ticks": 147552,
          "time": 104.79534975,
          "velocity": 0.30708661417322836
        },
        {
          "duration": 0.0852271874999957,
          "durationTicks": 120,
          "midi": 47,
          "name": "B2",
          "ticks": 147552,
          "time": 104.79534975,
          "velocity": 0.30708661417322836
        },
        {
          "duration": 0.0852271874999957,
          "durationTicks": 120,
          "midi": 47,
          "name": "B2",
          "ticks": 147552,
          "time": 104.79534975,
          "velocity": 0.30708661417322836
        },
        {
          "duration": 0.0852271874999957,
          "durationTicks": 120,
          "midi": 35,
          "name": "B1",
          "ticks": 147552,
          "time": 104.79534975,
          "velocity": 0.30708661417322836
        },
        {
          "duration": 0.0852271874999957,
          "durationTicks": 120,
          "midi": 47,
          "name": "B2",
          "ticks": 147576,
          "time": 104.8123951875,
          "velocity": 0.30708661417322836
        },
        {
          "duration": 0.0852271874999957,
          "durationTicks": 120,
          "midi": 35,
          "name": "B1",
          "ticks": 147576,
          "time": 104.8123951875,
          "velocity": 0.30708661417322836
        },
        {
          "duration": 0.0852271875000099,
          "durationTicks": 120,
          "midi": 49,
          "name": "C#3",
          "ticks": 147648,
          "time": 104.8635315,
          "velocity": 0.30708661417322836
        },
        {
          "duration": 0.0852271875000099,
          "durationTicks": 120,
          "midi": 37,
          "name": "C#2",
          "ticks": 147648,
          "time": 104.8635315,
          "velocity": 0.30708661417322836
        },
        {
          "duration": 0.0852271875000099,
          "durationTicks": 120,
          "midi": 37,
          "name": "C#2",
          "ticks": 147648,
          "time": 104.8635315,
          "velocity": 0.30708661417322836
        },
        {
          "duration": 0.0852271875000099,
          "durationTicks": 120,
          "midi": 49,
          "name": "C#3",
          "ticks": 147648,
          "time": 104.8635315,
          "velocity": 0.30708661417322836
        },
        {
          "duration": 0.0852271875000099,
          "durationTicks": 120,
          "midi": 49,
          "name": "C#3",
          "ticks": 147672,
          "time": 104.8805769375,
          "velocity": 0.30708661417322836
        },
        {
          "duration": 0.0852271875000099,
          "durationTicks": 120,
          "midi": 37,
          "name": "C#2",
          "ticks": 147672,
          "time": 104.8805769375,
          "velocity": 0.30708661417322836
        },
        {
          "duration": 0.0852271874999957,
          "durationTicks": 120,
          "midi": 50,
          "name": "D3",
          "ticks": 147696,
          "time": 104.897622375,
          "velocity": 0.30708661417322836
        },
        {
          "duration": 0.0852271874999957,
          "durationTicks": 120,
          "midi": 86,
          "name": "D6",
          "ticks": 147696,
          "time": 104.897622375,
          "velocity": 0.30708661417322836
        },
        {
          "duration": 0.0852271874999957,
          "durationTicks": 120,
          "midi": 81,
          "name": "A5",
          "ticks": 147696,
          "time": 104.897622375,
          "velocity": 0.30708661417322836
        },
        {
          "duration": 0.0852271874999957,
          "durationTicks": 120,
          "midi": 77,
          "name": "F5",
          "ticks": 147696,
          "time": 104.897622375,
          "velocity": 0.30708661417322836
        },
        {
          "duration": 0.0852271874999957,
          "durationTicks": 120,
          "midi": 74,
          "name": "D5",
          "ticks": 147696,
          "time": 104.897622375,
          "velocity": 0.30708661417322836
        },
        {
          "duration": 0.0852271874999957,
          "durationTicks": 120,
          "midi": 86,
          "name": "D6",
          "ticks": 147696,
          "time": 104.897622375,
          "velocity": 0.30708661417322836
        },
        {
          "duration": 0.0852271874999957,
          "durationTicks": 120,
          "midi": 81,
          "name": "A5",
          "ticks": 147696,
          "time": 104.897622375,
          "velocity": 0.30708661417322836
        },
        {
          "duration": 0.0852271874999957,
          "durationTicks": 120,
          "midi": 50,
          "name": "D3",
          "ticks": 147696,
          "time": 104.897622375,
          "velocity": 0.30708661417322836
        },
        {
          "duration": 0.0852271874999957,
          "durationTicks": 120,
          "midi": 74,
          "name": "D5",
          "ticks": 147696,
          "time": 104.897622375,
          "velocity": 0.30708661417322836
        },
        {
          "duration": 0.0852271874999957,
          "durationTicks": 120,
          "midi": 77,
          "name": "F5",
          "ticks": 147696,
          "time": 104.897622375,
          "velocity": 0.30708661417322836
        },
        {
          "duration": 0.0852271874999957,
          "durationTicks": 120,
          "midi": 74,
          "name": "D5",
          "ticks": 147720,
          "time": 104.9146678125,
          "velocity": 0.30708661417322836
        },
        {
          "duration": 0.0852271874999957,
          "durationTicks": 120,
          "midi": 81,
          "name": "A5",
          "ticks": 147720,
          "time": 104.9146678125,
          "velocity": 0.30708661417322836
        },
        {
          "duration": 0.0852271874999957,
          "durationTicks": 120,
          "midi": 77,
          "name": "F5",
          "ticks": 147720,
          "time": 104.9146678125,
          "velocity": 0.30708661417322836
        },
        {
          "duration": 0.0852271874999957,
          "durationTicks": 120,
          "midi": 86,
          "name": "D6",
          "ticks": 147720,
          "time": 104.9146678125,
          "velocity": 0.30708661417322836
        },
        {
          "duration": 0.0852271874999957,
          "durationTicks": 120,
          "midi": 50,
          "name": "D3",
          "ticks": 147720,
          "time": 104.9146678125,
          "velocity": 0.30708661417322836
        },
        {
          "duration": 0.0852271874999957,
          "durationTicks": 120,
          "midi": 57,
          "name": "A3",
          "ticks": 147936,
          "time": 105.06807675,
          "velocity": 0.30708661417322836
        },
        {
          "duration": 0.0852271874999957,
          "durationTicks": 120,
          "midi": 53,
          "name": "F3",
          "ticks": 147936,
          "time": 105.06807675,
          "velocity": 0.30708661417322836
        },
        {
          "duration": 0.0852271874999957,
          "durationTicks": 120,
          "midi": 57,
          "name": "A3",
          "ticks": 147936,
          "time": 105.06807675,
          "velocity": 0.30708661417322836
        },
        {
          "duration": 0.0852271874999957,
          "durationTicks": 120,
          "midi": 53,
          "name": "F3",
          "ticks": 147936,
          "time": 105.06807675,
          "velocity": 0.30708661417322836
        },
        {
          "duration": 0.0852271874999957,
          "durationTicks": 120,
          "midi": 57,
          "name": "A3",
          "ticks": 147960,
          "time": 105.0851221875,
          "velocity": 0.30708661417322836
        },
        {
          "duration": 0.0852271874999957,
          "durationTicks": 120,
          "midi": 53,
          "name": "F3",
          "ticks": 147960,
          "time": 105.0851221875,
          "velocity": 0.30708661417322836
        },
        {
          "duration": 0.0852271874999957,
          "durationTicks": 120,
          "midi": 77,
          "name": "F5",
          "ticks": 148056,
          "time": 105.1533039375,
          "velocity": 0.30708661417322836
        },
        {
          "duration": 0.0852271874999957,
          "durationTicks": 120,
          "midi": 73,
          "name": "C#5",
          "ticks": 148056,
          "time": 105.1533039375,
          "velocity": 0.30708661417322836
        },
        {
          "duration": 0.0852271874999957,
          "durationTicks": 120,
          "midi": 73,
          "name": "C#5",
          "ticks": 148056,
          "time": 105.1533039375,
          "velocity": 0.30708661417322836
        },
        {
          "duration": 0.0852271874999957,
          "durationTicks": 120,
          "midi": 85,
          "name": "C#6",
          "ticks": 148056,
          "time": 105.1533039375,
          "velocity": 0.30708661417322836
        },
        {
          "duration": 0.0852271874999957,
          "durationTicks": 120,
          "midi": 85,
          "name": "C#6",
          "ticks": 148056,
          "time": 105.1533039375,
          "velocity": 0.30708661417322836
        },
        {
          "duration": 0.0852271874999957,
          "durationTicks": 120,
          "midi": 81,
          "name": "A5",
          "ticks": 148056,
          "time": 105.1533039375,
          "velocity": 0.30708661417322836
        },
        {
          "duration": 0.0852271874999957,
          "durationTicks": 120,
          "midi": 77,
          "name": "F5",
          "ticks": 148056,
          "time": 105.1533039375,
          "velocity": 0.30708661417322836
        },
        {
          "duration": 0.0852271874999957,
          "durationTicks": 120,
          "midi": 81,
          "name": "A5",
          "ticks": 148056,
          "time": 105.1533039375,
          "velocity": 0.30708661417322836
        },
        {
          "duration": 0.0852271874999957,
          "durationTicks": 120,
          "midi": 77,
          "name": "F5",
          "ticks": 148080,
          "time": 105.170349375,
          "velocity": 0.30708661417322836
        },
        {
          "duration": 0.0852271874999957,
          "durationTicks": 120,
          "midi": 85,
          "name": "C#6",
          "ticks": 148080,
          "time": 105.170349375,
          "velocity": 0.30708661417322836
        },
        {
          "duration": 0.0852271874999957,
          "durationTicks": 120,
          "midi": 73,
          "name": "C#5",
          "ticks": 148080,
          "time": 105.170349375,
          "velocity": 0.30708661417322836
        },
        {
          "duration": 0.0852271874999957,
          "durationTicks": 120,
          "midi": 81,
          "name": "A5",
          "ticks": 148080,
          "time": 105.170349375,
          "velocity": 0.30708661417322836
        },
        {
          "duration": 0.0852271875000099,
          "durationTicks": 120,
          "midi": 77,
          "name": "F5",
          "ticks": 148176,
          "time": 105.238531125,
          "velocity": 0.30708661417322836
        },
        {
          "duration": 0.0852271875000099,
          "durationTicks": 120,
          "midi": 77,
          "name": "F5",
          "ticks": 148176,
          "time": 105.238531125,
          "velocity": 0.30708661417322836
        },
        {
          "duration": 0.0852271875000099,
          "durationTicks": 120,
          "midi": 74,
          "name": "D5",
          "ticks": 148176,
          "time": 105.238531125,
          "velocity": 0.30708661417322836
        },
        {
          "duration": 0.0852271875000099,
          "durationTicks": 120,
          "midi": 81,
          "name": "A5",
          "ticks": 148176,
          "time": 105.238531125,
          "velocity": 0.30708661417322836
        },
        {
          "duration": 0.0852271875000099,
          "durationTicks": 120,
          "midi": 86,
          "name": "D6",
          "ticks": 148176,
          "time": 105.238531125,
          "velocity": 0.30708661417322836
        },
        {
          "duration": 0.0852271875000099,
          "durationTicks": 120,
          "midi": 86,
          "name": "D6",
          "ticks": 148176,
          "time": 105.238531125,
          "velocity": 0.30708661417322836
        },
        {
          "duration": 0.0852271875000099,
          "durationTicks": 120,
          "midi": 45,
          "name": "A2",
          "ticks": 148176,
          "time": 105.238531125,
          "velocity": 0.30708661417322836
        },
        {
          "duration": 0.0852271875000099,
          "durationTicks": 120,
          "midi": 45,
          "name": "A2",
          "ticks": 148176,
          "time": 105.238531125,
          "velocity": 0.30708661417322836
        },
        {
          "duration": 0.0852271875000099,
          "durationTicks": 120,
          "midi": 81,
          "name": "A5",
          "ticks": 148176,
          "time": 105.238531125,
          "velocity": 0.30708661417322836
        },
        {
          "duration": 0.0852271875000099,
          "durationTicks": 120,
          "midi": 74,
          "name": "D5",
          "ticks": 148176,
          "time": 105.238531125,
          "velocity": 0.30708661417322836
        },
        {
          "duration": 0.0852271874999957,
          "durationTicks": 120,
          "midi": 77,
          "name": "F5",
          "ticks": 148200,
          "time": 105.2555765625,
          "velocity": 0.30708661417322836
        },
        {
          "duration": 0.0852271874999957,
          "durationTicks": 120,
          "midi": 81,
          "name": "A5",
          "ticks": 148200,
          "time": 105.2555765625,
          "velocity": 0.30708661417322836
        },
        {
          "duration": 0.0852271874999957,
          "durationTicks": 120,
          "midi": 45,
          "name": "A2",
          "ticks": 148200,
          "time": 105.2555765625,
          "velocity": 0.30708661417322836
        },
        {
          "duration": 0.0852271874999957,
          "durationTicks": 120,
          "midi": 86,
          "name": "D6",
          "ticks": 148200,
          "time": 105.2555765625,
          "velocity": 0.30708661417322836
        },
        {
          "duration": 0.0852271874999957,
          "durationTicks": 120,
          "midi": 74,
          "name": "D5",
          "ticks": 148200,
          "time": 105.2555765625,
          "velocity": 0.30708661417322836
        },
        {
          "duration": 0.0852271874999957,
          "durationTicks": 120,
          "midi": 53,
          "name": "F3",
          "ticks": 148416,
          "time": 105.4089855,
          "velocity": 0.30708661417322836
        },
        {
          "duration": 0.0852271874999957,
          "durationTicks": 120,
          "midi": 81,
          "name": "A5",
          "ticks": 148416,
          "time": 105.4089855,
          "velocity": 0.30708661417322836
        },
        {
          "duration": 0.0852271874999957,
          "durationTicks": 120,
          "midi": 53,
          "name": "F3",
          "ticks": 148416,
          "time": 105.4089855,
          "velocity": 0.30708661417322836
        },
        {
          "duration": 0.0852271874999957,
          "durationTicks": 120,
          "midi": 88,
          "name": "E6",
          "ticks": 148416,
          "time": 105.4089855,
          "velocity": 0.30708661417322836
        },
        {
          "duration": 0.0852271874999957,
          "durationTicks": 120,
          "midi": 76,
          "name": "E5",
          "ticks": 148416,
          "time": 105.4089855,
          "velocity": 0.30708661417322836
        },
        {
          "duration": 0.0852271874999957,
          "durationTicks": 120,
          "midi": 76,
          "name": "E5",
          "ticks": 148416,
          "time": 105.4089855,
          "velocity": 0.30708661417322836
        },
        {
          "duration": 0.0852271874999957,
          "durationTicks": 120,
          "midi": 88,
          "name": "E6",
          "ticks": 148416,
          "time": 105.4089855,
          "velocity": 0.30708661417322836
        },
        {
          "duration": 0.0852271874999957,
          "durationTicks": 120,
          "midi": 86,
          "name": "D6",
          "ticks": 148416,
          "time": 105.4089855,
          "velocity": 0.30708661417322836
        },
        {
          "duration": 0.0852271874999957,
          "durationTicks": 120,
          "midi": 57,
          "name": "A3",
          "ticks": 148416,
          "time": 105.4089855,
          "velocity": 0.30708661417322836
        },
        {
          "duration": 0.0852271874999957,
          "durationTicks": 120,
          "midi": 81,
          "name": "A5",
          "ticks": 148416,
          "time": 105.4089855,
          "velocity": 0.30708661417322836
        },
        {
          "duration": 0.0852271874999957,
          "durationTicks": 120,
          "midi": 86,
          "name": "D6",
          "ticks": 148416,
          "time": 105.4089855,
          "velocity": 0.30708661417322836
        },
        {
          "duration": 0.0852271874999957,
          "durationTicks": 120,
          "midi": 57,
          "name": "A3",
          "ticks": 148416,
          "time": 105.4089855,
          "velocity": 0.30708661417322836
        },
        {
          "duration": 0.0852271874999957,
          "durationTicks": 120,
          "midi": 76,
          "name": "E5",
          "ticks": 148440,
          "time": 105.4260309375,
          "velocity": 0.30708661417322836
        },
        {
          "duration": 0.0852271874999957,
          "durationTicks": 120,
          "midi": 57,
          "name": "A3",
          "ticks": 148440,
          "time": 105.4260309375,
          "velocity": 0.30708661417322836
        },
        {
          "duration": 0.0852271874999957,
          "durationTicks": 120,
          "midi": 88,
          "name": "E6",
          "ticks": 148440,
          "time": 105.4260309375,
          "velocity": 0.30708661417322836
        },
        {
          "duration": 0.0852271874999957,
          "durationTicks": 120,
          "midi": 86,
          "name": "D6",
          "ticks": 148440,
          "time": 105.4260309375,
          "velocity": 0.30708661417322836
        },
        {
          "duration": 0.0852271874999957,
          "durationTicks": 120,
          "midi": 81,
          "name": "A5",
          "ticks": 148440,
          "time": 105.4260309375,
          "velocity": 0.30708661417322836
        },
        {
          "duration": 0.0852271874999957,
          "durationTicks": 120,
          "midi": 53,
          "name": "F3",
          "ticks": 148440,
          "time": 105.4260309375,
          "velocity": 0.30708661417322836
        },
        {
          "duration": 0.0852271874999957,
          "durationTicks": 120,
          "midi": 81,
          "name": "A5",
          "ticks": 148656,
          "time": 105.579439875,
          "velocity": 0.30708661417322836
        },
        {
          "duration": 0.0852271874999957,
          "durationTicks": 120,
          "midi": 81,
          "name": "A5",
          "ticks": 148656,
          "time": 105.579439875,
          "velocity": 0.30708661417322836
        },
        {
          "duration": 0.0852271874999957,
          "durationTicks": 120,
          "midi": 77,
          "name": "F5",
          "ticks": 148656,
          "time": 105.579439875,
          "velocity": 0.30708661417322836
        },
        {
          "duration": 0.0852271874999957,
          "durationTicks": 120,
          "midi": 77,
          "name": "F5",
          "ticks": 148656,
          "time": 105.579439875,
          "velocity": 0.30708661417322836
        },
        {
          "duration": 0.0852271874999957,
          "durationTicks": 120,
          "midi": 86,
          "name": "D6",
          "ticks": 148656,
          "time": 105.579439875,
          "velocity": 0.30708661417322836
        },
        {
          "duration": 0.0852271874999957,
          "durationTicks": 120,
          "midi": 50,
          "name": "D3",
          "ticks": 148656,
          "time": 105.579439875,
          "velocity": 0.30708661417322836
        },
        {
          "duration": 0.0852271874999957,
          "durationTicks": 120,
          "midi": 89,
          "name": "F6",
          "ticks": 148656,
          "time": 105.579439875,
          "velocity": 0.30708661417322836
        },
        {
          "duration": 0.0852271874999957,
          "durationTicks": 120,
          "midi": 86,
          "name": "D6",
          "ticks": 148656,
          "time": 105.579439875,
          "velocity": 0.30708661417322836
        },
        {
          "duration": 0.0852271874999957,
          "durationTicks": 120,
          "midi": 89,
          "name": "F6",
          "ticks": 148656,
          "time": 105.579439875,
          "velocity": 0.30708661417322836
        },
        {
          "duration": 0.0852271874999957,
          "durationTicks": 120,
          "midi": 50,
          "name": "D3",
          "ticks": 148656,
          "time": 105.579439875,
          "velocity": 0.30708661417322836
        },
        {
          "duration": 0.0852271875000099,
          "durationTicks": 120,
          "midi": 89,
          "name": "F6",
          "ticks": 148680,
          "time": 105.5964853125,
          "velocity": 0.30708661417322836
        },
        {
          "duration": 0.0852271875000099,
          "durationTicks": 120,
          "midi": 81,
          "name": "A5",
          "ticks": 148680,
          "time": 105.5964853125,
          "velocity": 0.30708661417322836
        },
        {
          "duration": 0.0852271875000099,
          "durationTicks": 120,
          "midi": 50,
          "name": "D3",
          "ticks": 148680,
          "time": 105.5964853125,
          "velocity": 0.30708661417322836
        },
        {
          "duration": 0.0852271875000099,
          "durationTicks": 120,
          "midi": 86,
          "name": "D6",
          "ticks": 148680,
          "time": 105.5964853125,
          "velocity": 0.30708661417322836
        },
        {
          "duration": 0.0852271875000099,
          "durationTicks": 120,
          "midi": 77,
          "name": "F5",
          "ticks": 148680,
          "time": 105.5964853125,
          "velocity": 0.30708661417322836
        },
        {
          "duration": 0.0852271874999957,
          "durationTicks": 120,
          "midi": 77,
          "name": "F5",
          "ticks": 148896,
          "time": 105.74989425,
          "velocity": 0.30708661417322836
        },
        {
          "duration": 0.0852271874999957,
          "durationTicks": 120,
          "midi": 81,
          "name": "A5",
          "ticks": 148896,
          "time": 105.74989425,
          "velocity": 0.30708661417322836
        },
        {
          "duration": 0.0852271874999957,
          "durationTicks": 120,
          "midi": 53,
          "name": "F3",
          "ticks": 148896,
          "time": 105.74989425,
          "velocity": 0.30708661417322836
        },
        {
          "duration": 0.0852271874999957,
          "durationTicks": 120,
          "midi": 88,
          "name": "E6",
          "ticks": 148896,
          "time": 105.74989425,
          "velocity": 0.30708661417322836
        },
        {
          "duration": 0.0852271874999957,
          "durationTicks": 120,
          "midi": 57,
          "name": "A3",
          "ticks": 148896,
          "time": 105.74989425,
          "velocity": 0.30708661417322836
        },
        {
          "duration": 0.0852271874999957,
          "durationTicks": 120,
          "midi": 76,
          "name": "E5",
          "ticks": 148896,
          "time": 105.74989425,
          "velocity": 0.30708661417322836
        },
        {
          "duration": 0.0852271874999957,
          "durationTicks": 120,
          "midi": 53,
          "name": "F3",
          "ticks": 148896,
          "time": 105.74989425,
          "velocity": 0.30708661417322836
        },
        {
          "duration": 0.0852271874999957,
          "durationTicks": 120,
          "midi": 88,
          "name": "E6",
          "ticks": 148896,
          "time": 105.74989425,
          "velocity": 0.30708661417322836
        },
        {
          "duration": 0.0852271874999957,
          "durationTicks": 120,
          "midi": 77,
          "name": "F5",
          "ticks": 148896,
          "time": 105.74989425,
          "velocity": 0.30708661417322836
        },
        {
          "duration": 0.0852271874999957,
          "durationTicks": 120,
          "midi": 81,
          "name": "A5",
          "ticks": 148896,
          "time": 105.74989425,
          "velocity": 0.30708661417322836
        },
        {
          "duration": 0.0852271874999957,
          "durationTicks": 120,
          "midi": 57,
          "name": "A3",
          "ticks": 148896,
          "time": 105.74989425,
          "velocity": 0.30708661417322836
        },
        {
          "duration": 0.0852271874999957,
          "durationTicks": 120,
          "midi": 76,
          "name": "E5",
          "ticks": 148896,
          "time": 105.74989425,
          "velocity": 0.30708661417322836
        },
        {
          "duration": 0.0852271874999957,
          "durationTicks": 120,
          "midi": 77,
          "name": "F5",
          "ticks": 148920,
          "time": 105.7669396875,
          "velocity": 0.30708661417322836
        },
        {
          "duration": 0.0852271874999957,
          "durationTicks": 120,
          "midi": 57,
          "name": "A3",
          "ticks": 148920,
          "time": 105.7669396875,
          "velocity": 0.30708661417322836
        },
        {
          "duration": 0.0852271874999957,
          "durationTicks": 120,
          "midi": 76,
          "name": "E5",
          "ticks": 148920,
          "time": 105.7669396875,
          "velocity": 0.30708661417322836
        },
        {
          "duration": 0.0852271874999957,
          "durationTicks": 120,
          "midi": 88,
          "name": "E6",
          "ticks": 148920,
          "time": 105.7669396875,
          "velocity": 0.30708661417322836
        },
        {
          "duration": 0.0852271874999957,
          "durationTicks": 120,
          "midi": 81,
          "name": "A5",
          "ticks": 148920,
          "time": 105.7669396875,
          "velocity": 0.30708661417322836
        },
        {
          "duration": 0.0852271874999957,
          "durationTicks": 120,
          "midi": 53,
          "name": "F3",
          "ticks": 148920,
          "time": 105.7669396875,
          "velocity": 0.30708661417322836
        },
        {
          "duration": 0.0852271874999957,
          "durationTicks": 120,
          "midi": 45,
          "name": "A2",
          "ticks": 149136,
          "time": 105.920348625,
          "velocity": 0.30708661417322836
        },
        {
          "duration": 0.0852271874999957,
          "durationTicks": 120,
          "midi": 74,
          "name": "D5",
          "ticks": 149136,
          "time": 105.920348625,
          "velocity": 0.30708661417322836
        },
        {
          "duration": 0.0852271874999957,
          "durationTicks": 120,
          "midi": 45,
          "name": "A2",
          "ticks": 149136,
          "time": 105.920348625,
          "velocity": 0.30708661417322836
        },
        {
          "duration": 0.0852271874999957,
          "durationTicks": 120,
          "midi": 77,
          "name": "F5",
          "ticks": 149136,
          "time": 105.920348625,
          "velocity": 0.30708661417322836
        },
        {
          "duration": 0.0852271874999957,
          "durationTicks": 120,
          "midi": 77,
          "name": "F5",
          "ticks": 149136,
          "time": 105.920348625,
          "velocity": 0.30708661417322836
        },
        {
          "duration": 0.0852271874999957,
          "durationTicks": 120,
          "midi": 81,
          "name": "A5",
          "ticks": 149136,
          "time": 105.920348625,
          "velocity": 0.30708661417322836
        },
        {
          "duration": 0.0852271874999957,
          "durationTicks": 120,
          "midi": 81,
          "name": "A5",
          "ticks": 149136,
          "time": 105.920348625,
          "velocity": 0.30708661417322836
        },
        {
          "duration": 0.0852271874999957,
          "durationTicks": 120,
          "midi": 86,
          "name": "D6",
          "ticks": 149136,
          "time": 105.920348625,
          "velocity": 0.30708661417322836
        },
        {
          "duration": 0.0852271874999957,
          "durationTicks": 120,
          "midi": 74,
          "name": "D5",
          "ticks": 149136,
          "time": 105.920348625,
          "velocity": 0.30708661417322836
        },
        {
          "duration": 0.0852271874999957,
          "durationTicks": 120,
          "midi": 86,
          "name": "D6",
          "ticks": 149136,
          "time": 105.920348625,
          "velocity": 0.30708661417322836
        },
        {
          "duration": 0.0852271874999957,
          "durationTicks": 120,
          "midi": 86,
          "name": "D6",
          "ticks": 149160,
          "time": 105.9373940625,
          "velocity": 0.30708661417322836
        },
        {
          "duration": 0.0852271874999957,
          "durationTicks": 120,
          "midi": 45,
          "name": "A2",
          "ticks": 149160,
          "time": 105.9373940625,
          "velocity": 0.30708661417322836
        },
        {
          "duration": 0.0852271874999957,
          "durationTicks": 120,
          "midi": 81,
          "name": "A5",
          "ticks": 149160,
          "time": 105.9373940625,
          "velocity": 0.30708661417322836
        },
        {
          "duration": 0.0852271874999957,
          "durationTicks": 120,
          "midi": 77,
          "name": "F5",
          "ticks": 149160,
          "time": 105.9373940625,
          "velocity": 0.30708661417322836
        },
        {
          "duration": 0.0852271874999957,
          "durationTicks": 120,
          "midi": 74,
          "name": "D5",
          "ticks": 149160,
          "time": 105.9373940625,
          "velocity": 0.30708661417322836
        },
        {
          "duration": 0.0852271875000099,
          "durationTicks": 120,
          "midi": 86,
          "name": "D6",
          "ticks": 149376,
          "time": 106.090803,
          "velocity": 0.30708661417322836
        },
        {
          "duration": 0.0852271875000099,
          "durationTicks": 120,
          "midi": 89,
          "name": "F6",
          "ticks": 149376,
          "time": 106.090803,
          "velocity": 0.30708661417322836
        },
        {
          "duration": 0.0852271875000099,
          "durationTicks": 120,
          "midi": 57,
          "name": "A3",
          "ticks": 149376,
          "time": 106.090803,
          "velocity": 0.30708661417322836
        },
        {
          "duration": 0.0852271875000099,
          "durationTicks": 120,
          "midi": 77,
          "name": "F5",
          "ticks": 149376,
          "time": 106.090803,
          "velocity": 0.30708661417322836
        },
        {
          "duration": 0.0852271875000099,
          "durationTicks": 120,
          "midi": 77,
          "name": "F5",
          "ticks": 149376,
          "time": 106.090803,
          "velocity": 0.30708661417322836
        },
        {
          "duration": 0.0852271875000099,
          "durationTicks": 120,
          "midi": 81,
          "name": "A5",
          "ticks": 149376,
          "time": 106.090803,
          "velocity": 0.30708661417322836
        },
        {
          "duration": 0.0852271875000099,
          "durationTicks": 120,
          "midi": 53,
          "name": "F3",
          "ticks": 149376,
          "time": 106.090803,
          "velocity": 0.30708661417322836
        },
        {
          "duration": 0.0852271875000099,
          "durationTicks": 120,
          "midi": 57,
          "name": "A3",
          "ticks": 149376,
          "time": 106.090803,
          "velocity": 0.30708661417322836
        },
        {
          "duration": 0.0852271875000099,
          "durationTicks": 120,
          "midi": 89,
          "name": "F6",
          "ticks": 149376,
          "time": 106.090803,
          "velocity": 0.30708661417322836
        },
        {
          "duration": 0.0852271875000099,
          "durationTicks": 120,
          "midi": 53,
          "name": "F3",
          "ticks": 149376,
          "time": 106.090803,
          "velocity": 0.30708661417322836
        },
        {
          "duration": 0.0852271875000099,
          "durationTicks": 120,
          "midi": 81,
          "name": "A5",
          "ticks": 149376,
          "time": 106.090803,
          "velocity": 0.30708661417322836
        },
        {
          "duration": 0.0852271875000099,
          "durationTicks": 120,
          "midi": 86,
          "name": "D6",
          "ticks": 149376,
          "time": 106.090803,
          "velocity": 0.30708661417322836
        },
        {
          "duration": 0.0852271875000099,
          "durationTicks": 120,
          "midi": 86,
          "name": "D6",
          "ticks": 149400,
          "time": 106.1078484375,
          "velocity": 0.30708661417322836
        },
        {
          "duration": 0.0852271875000099,
          "durationTicks": 120,
          "midi": 89,
          "name": "F6",
          "ticks": 149400,
          "time": 106.1078484375,
          "velocity": 0.30708661417322836
        },
        {
          "duration": 0.0852271875000099,
          "durationTicks": 120,
          "midi": 81,
          "name": "A5",
          "ticks": 149400,
          "time": 106.1078484375,
          "velocity": 0.30708661417322836
        },
        {
          "duration": 0.0852271875000099,
          "durationTicks": 120,
          "midi": 77,
          "name": "F5",
          "ticks": 149400,
          "time": 106.1078484375,
          "velocity": 0.30708661417322836
        },
        {
          "duration": 0.0852271875000099,
          "durationTicks": 120,
          "midi": 57,
          "name": "A3",
          "ticks": 149400,
          "time": 106.1078484375,
          "velocity": 0.30708661417322836
        },
        {
          "duration": 0.0852271875000099,
          "durationTicks": 120,
          "midi": 53,
          "name": "F3",
          "ticks": 149400,
          "time": 106.1078484375,
          "velocity": 0.30708661417322836
        },
        {
          "duration": 0.0852271874999957,
          "durationTicks": 120,
          "midi": 81,
          "name": "A5",
          "ticks": 149616,
          "time": 106.261257375,
          "velocity": 0.30708661417322836
        },
        {
          "duration": 0.0852271874999957,
          "durationTicks": 120,
          "midi": 88,
          "name": "E6",
          "ticks": 149616,
          "time": 106.261257375,
          "velocity": 0.30708661417322836
        },
        {
          "duration": 0.0852271874999957,
          "durationTicks": 120,
          "midi": 48,
          "name": "C3",
          "ticks": 149616,
          "time": 106.261257375,
          "velocity": 0.30708661417322836
        },
        {
          "duration": 0.0852271874999957,
          "durationTicks": 120,
          "midi": 76,
          "name": "E5",
          "ticks": 149616,
          "time": 106.261257375,
          "velocity": 0.30708661417322836
        },
        {
          "duration": 0.0852271874999957,
          "durationTicks": 120,
          "midi": 88,
          "name": "E6",
          "ticks": 149616,
          "time": 106.261257375,
          "velocity": 0.30708661417322836
        },
        {
          "duration": 0.0852271874999957,
          "durationTicks": 120,
          "midi": 81,
          "name": "A5",
          "ticks": 149616,
          "time": 106.261257375,
          "velocity": 0.30708661417322836
        },
        {
          "duration": 0.0852271874999957,
          "durationTicks": 120,
          "midi": 76,
          "name": "E5",
          "ticks": 149616,
          "time": 106.261257375,
          "velocity": 0.30708661417322836
        },
        {
          "duration": 0.0852271874999957,
          "durationTicks": 120,
          "midi": 86,
          "name": "D6",
          "ticks": 149616,
          "time": 106.261257375,
          "velocity": 0.30708661417322836
        },
        {
          "duration": 0.0852271874999957,
          "durationTicks": 120,
          "midi": 48,
          "name": "C3",
          "ticks": 149616,
          "time": 106.261257375,
          "velocity": 0.30708661417322836
        },
        {
          "duration": 0.0852271874999957,
          "durationTicks": 120,
          "midi": 86,
          "name": "D6",
          "ticks": 149616,
          "time": 106.261257375,
          "velocity": 0.30708661417322836
        },
        {
          "duration": 0.0852271874999957,
          "durationTicks": 120,
          "midi": 86,
          "name": "D6",
          "ticks": 149640,
          "time": 106.2783028125,
          "velocity": 0.30708661417322836
        },
        {
          "duration": 0.0852271874999957,
          "durationTicks": 120,
          "midi": 76,
          "name": "E5",
          "ticks": 149640,
          "time": 106.2783028125,
          "velocity": 0.30708661417322836
        },
        {
          "duration": 0.0852271874999957,
          "durationTicks": 120,
          "midi": 88,
          "name": "E6",
          "ticks": 149640,
          "time": 106.2783028125,
          "velocity": 0.30708661417322836
        },
        {
          "duration": 0.0852271874999957,
          "durationTicks": 120,
          "midi": 81,
          "name": "A5",
          "ticks": 149640,
          "time": 106.2783028125,
          "velocity": 0.30708661417322836
        },
        {
          "duration": 0.0852271874999957,
          "durationTicks": 120,
          "midi": 48,
          "name": "C3",
          "ticks": 149640,
          "time": 106.2783028125,
          "velocity": 0.30708661417322836
        },
        {
          "duration": 0.0852271874999957,
          "durationTicks": 120,
          "midi": 52,
          "name": "E3",
          "ticks": 149856,
          "time": 106.43171175,
          "velocity": 0.30708661417322836
        },
        {
          "duration": 0.0852271874999957,
          "durationTicks": 120,
          "midi": 57,
          "name": "A3",
          "ticks": 149856,
          "time": 106.43171175,
          "velocity": 0.30708661417322836
        },
        {
          "duration": 0.0852271874999957,
          "durationTicks": 120,
          "midi": 57,
          "name": "A3",
          "ticks": 149856,
          "time": 106.43171175,
          "velocity": 0.30708661417322836
        },
        {
          "duration": 0.0852271874999957,
          "durationTicks": 120,
          "midi": 52,
          "name": "E3",
          "ticks": 149856,
          "time": 106.43171175,
          "velocity": 0.30708661417322836
        },
        {
          "duration": 0.0852271875000099,
          "durationTicks": 120,
          "midi": 52,
          "name": "E3",
          "ticks": 149880,
          "time": 106.4487571875,
          "velocity": 0.30708661417322836
        },
        {
          "duration": 0.0852271875000099,
          "durationTicks": 120,
          "midi": 57,
          "name": "A3",
          "ticks": 149880,
          "time": 106.4487571875,
          "velocity": 0.30708661417322836
        },
        {
          "duration": 0.0852271874999957,
          "durationTicks": 120,
          "midi": 74,
          "name": "D5",
          "ticks": 149976,
          "time": 106.5169389375,
          "velocity": 0.30708661417322836
        },
        {
          "duration": 0.0852271874999957,
          "durationTicks": 120,
          "midi": 86,
          "name": "D6",
          "ticks": 149976,
          "time": 106.5169389375,
          "velocity": 0.30708661417322836
        },
        {
          "duration": 0.0852271874999957,
          "durationTicks": 120,
          "midi": 76,
          "name": "E5",
          "ticks": 149976,
          "time": 106.5169389375,
          "velocity": 0.30708661417322836
        },
        {
          "duration": 0.0852271874999957,
          "durationTicks": 120,
          "midi": 74,
          "name": "D5",
          "ticks": 149976,
          "time": 106.5169389375,
          "velocity": 0.30708661417322836
        },
        {
          "duration": 0.0852271874999957,
          "durationTicks": 120,
          "midi": 81,
          "name": "A5",
          "ticks": 149976,
          "time": 106.5169389375,
          "velocity": 0.30708661417322836
        },
        {
          "duration": 0.0852271874999957,
          "durationTicks": 120,
          "midi": 76,
          "name": "E5",
          "ticks": 149976,
          "time": 106.5169389375,
          "velocity": 0.30708661417322836
        },
        {
          "duration": 0.0852271874999957,
          "durationTicks": 120,
          "midi": 81,
          "name": "A5",
          "ticks": 149976,
          "time": 106.5169389375,
          "velocity": 0.30708661417322836
        },
        {
          "duration": 0.0852271874999957,
          "durationTicks": 120,
          "midi": 86,
          "name": "D6",
          "ticks": 149976,
          "time": 106.5169389375,
          "velocity": 0.30708661417322836
        },
        {
          "duration": 0.0852271874999957,
          "durationTicks": 120,
          "midi": 74,
          "name": "D5",
          "ticks": 150000,
          "time": 106.533984375,
          "velocity": 0.30708661417322836
        },
        {
          "duration": 0.0852271874999957,
          "durationTicks": 120,
          "midi": 81,
          "name": "A5",
          "ticks": 150000,
          "time": 106.533984375,
          "velocity": 0.30708661417322836
        },
        {
          "duration": 0.0852271874999957,
          "durationTicks": 120,
          "midi": 86,
          "name": "D6",
          "ticks": 150000,
          "time": 106.533984375,
          "velocity": 0.30708661417322836
        },
        {
          "duration": 0.0852271874999957,
          "durationTicks": 120,
          "midi": 76,
          "name": "E5",
          "ticks": 150000,
          "time": 106.533984375,
          "velocity": 0.30708661417322836
        },
        {
          "duration": 0.0852271874999957,
          "durationTicks": 120,
          "midi": 45,
          "name": "A2",
          "ticks": 150096,
          "time": 106.602166125,
          "velocity": 0.30708661417322836
        },
        {
          "duration": 0.0852271874999957,
          "durationTicks": 120,
          "midi": 81,
          "name": "A5",
          "ticks": 150096,
          "time": 106.602166125,
          "velocity": 0.30708661417322836
        },
        {
          "duration": 0.0852271874999957,
          "durationTicks": 120,
          "midi": 72,
          "name": "C5",
          "ticks": 150096,
          "time": 106.602166125,
          "velocity": 0.30708661417322836
        },
        {
          "duration": 0.0852271874999957,
          "durationTicks": 120,
          "midi": 76,
          "name": "E5",
          "ticks": 150096,
          "time": 106.602166125,
          "velocity": 0.30708661417322836
        },
        {
          "duration": 0.0852271874999957,
          "durationTicks": 120,
          "midi": 81,
          "name": "A5",
          "ticks": 150096,
          "time": 106.602166125,
          "velocity": 0.30708661417322836
        },
        {
          "duration": 0.0852271874999957,
          "durationTicks": 120,
          "midi": 76,
          "name": "E5",
          "ticks": 150096,
          "time": 106.602166125,
          "velocity": 0.30708661417322836
        },
        {
          "duration": 0.0852271874999957,
          "durationTicks": 120,
          "midi": 45,
          "name": "A2",
          "ticks": 150096,
          "time": 106.602166125,
          "velocity": 0.30708661417322836
        },
        {
          "duration": 0.0852271874999957,
          "durationTicks": 120,
          "midi": 84,
          "name": "C6",
          "ticks": 150096,
          "time": 106.602166125,
          "velocity": 0.30708661417322836
        },
        {
          "duration": 0.0852271874999957,
          "durationTicks": 120,
          "midi": 72,
          "name": "C5",
          "ticks": 150096,
          "time": 106.602166125,
          "velocity": 0.30708661417322836
        },
        {
          "duration": 0.0852271874999957,
          "durationTicks": 120,
          "midi": 84,
          "name": "C6",
          "ticks": 150096,
          "time": 106.602166125,
          "velocity": 0.30708661417322836
        },
        {
          "duration": 0.0852271874999957,
          "durationTicks": 120,
          "midi": 81,
          "name": "A5",
          "ticks": 150120,
          "time": 106.6192115625,
          "velocity": 0.30708661417322836
        },
        {
          "duration": 0.0852271874999957,
          "durationTicks": 120,
          "midi": 76,
          "name": "E5",
          "ticks": 150120,
          "time": 106.6192115625,
          "velocity": 0.30708661417322836
        },
        {
          "duration": 0.0852271874999957,
          "durationTicks": 120,
          "midi": 72,
          "name": "C5",
          "ticks": 150120,
          "time": 106.6192115625,
          "velocity": 0.30708661417322836
        },
        {
          "duration": 0.0852271874999957,
          "durationTicks": 120,
          "midi": 45,
          "name": "A2",
          "ticks": 150120,
          "time": 106.6192115625,
          "velocity": 0.30708661417322836
        },
        {
          "duration": 0.0852271874999957,
          "durationTicks": 120,
          "midi": 84,
          "name": "C6",
          "ticks": 150120,
          "time": 106.6192115625,
          "velocity": 0.30708661417322836
        },
        {
          "duration": 0.0852271874999957,
          "durationTicks": 120,
          "midi": 81,
          "name": "A5",
          "ticks": 150336,
          "time": 106.7726205,
          "velocity": 0.30708661417322836
        },
        {
          "duration": 0.0852271874999957,
          "durationTicks": 120,
          "midi": 52,
          "name": "E3",
          "ticks": 150336,
          "time": 106.7726205,
          "velocity": 0.30708661417322836
        },
        {
          "duration": 0.0852271874999957,
          "durationTicks": 120,
          "midi": 86,
          "name": "D6",
          "ticks": 150336,
          "time": 106.7726205,
          "velocity": 0.30708661417322836
        },
        {
          "duration": 0.0852271874999957,
          "durationTicks": 120,
          "midi": 86,
          "name": "D6",
          "ticks": 150336,
          "time": 106.7726205,
          "velocity": 0.30708661417322836
        },
        {
          "duration": 0.0852271874999957,
          "durationTicks": 120,
          "midi": 74,
          "name": "D5",
          "ticks": 150336,
          "time": 106.7726205,
          "velocity": 0.30708661417322836
        },
        {
          "duration": 0.0852271874999957,
          "durationTicks": 120,
          "midi": 74,
          "name": "D5",
          "ticks": 150336,
          "time": 106.7726205,
          "velocity": 0.30708661417322836
        },
        {
          "duration": 0.0852271874999957,
          "durationTicks": 120,
          "midi": 52,
          "name": "E3",
          "ticks": 150336,
          "time": 106.7726205,
          "velocity": 0.30708661417322836
        },
        {
          "duration": 0.0852271874999957,
          "durationTicks": 120,
          "midi": 81,
          "name": "A5",
          "ticks": 150336,
          "time": 106.7726205,
          "velocity": 0.30708661417322836
        },
        {
          "duration": 0.0852271874999957,
          "durationTicks": 120,
          "midi": 57,
          "name": "A3",
          "ticks": 150336,
          "time": 106.7726205,
          "velocity": 0.30708661417322836
        },
        {
          "duration": 0.0852271874999957,
          "durationTicks": 120,
          "midi": 76,
          "name": "E5",
          "ticks": 150336,
          "time": 106.7726205,
          "velocity": 0.30708661417322836
        },
        {
          "duration": 0.0852271874999957,
          "durationTicks": 120,
          "midi": 76,
          "name": "E5",
          "ticks": 150336,
          "time": 106.7726205,
          "velocity": 0.30708661417322836
        },
        {
          "duration": 0.0852271874999957,
          "durationTicks": 120,
          "midi": 57,
          "name": "A3",
          "ticks": 150336,
          "time": 106.7726205,
          "velocity": 0.30708661417322836
        },
        {
          "duration": 0.0852271874999957,
          "durationTicks": 120,
          "midi": 81,
          "name": "A5",
          "ticks": 150360,
          "time": 106.7896659375,
          "velocity": 0.30708661417322836
        },
        {
          "duration": 0.0852271874999957,
          "durationTicks": 120,
          "midi": 74,
          "name": "D5",
          "ticks": 150360,
          "time": 106.7896659375,
          "velocity": 0.30708661417322836
        },
        {
          "duration": 0.0852271874999957,
          "durationTicks": 120,
          "midi": 76,
          "name": "E5",
          "ticks": 150360,
          "time": 106.7896659375,
          "velocity": 0.30708661417322836
        },
        {
          "duration": 0.0852271874999957,
          "durationTicks": 120,
          "midi": 52,
          "name": "E3",
          "ticks": 150360,
          "time": 106.7896659375,
          "velocity": 0.30708661417322836
        },
        {
          "duration": 0.0852271874999957,
          "durationTicks": 120,
          "midi": 57,
          "name": "A3",
          "ticks": 150360,
          "time": 106.7896659375,
          "velocity": 0.30708661417322836
        },
        {
          "duration": 0.0852271874999957,
          "durationTicks": 120,
          "midi": 86,
          "name": "D6",
          "ticks": 150360,
          "time": 106.7896659375,
          "velocity": 0.30708661417322836
        },
        {
          "duration": 0.0852271875000099,
          "durationTicks": 120,
          "midi": 84,
          "name": "C6",
          "ticks": 150576,
          "time": 106.943074875,
          "velocity": 0.30708661417322836
        },
        {
          "duration": 0.0852271875000099,
          "durationTicks": 120,
          "midi": 48,
          "name": "C3",
          "ticks": 150576,
          "time": 106.943074875,
          "velocity": 0.30708661417322836
        },
        {
          "duration": 0.0852271875000099,
          "durationTicks": 120,
          "midi": 84,
          "name": "C6",
          "ticks": 150576,
          "time": 106.943074875,
          "velocity": 0.30708661417322836
        },
        {
          "duration": 0.0852271875000099,
          "durationTicks": 120,
          "midi": 76,
          "name": "E5",
          "ticks": 150576,
          "time": 106.943074875,
          "velocity": 0.30708661417322836
        },
        {
          "duration": 0.0852271875000099,
          "durationTicks": 120,
          "midi": 88,
          "name": "E6",
          "ticks": 150576,
          "time": 106.943074875,
          "velocity": 0.30708661417322836
        },
        {
          "duration": 0.0852271875000099,
          "durationTicks": 120,
          "midi": 76,
          "name": "E5",
          "ticks": 150576,
          "time": 106.943074875,
          "velocity": 0.30708661417322836
        },
        {
          "duration": 0.0852271875000099,
          "durationTicks": 120,
          "midi": 81,
          "name": "A5",
          "ticks": 150576,
          "time": 106.943074875,
          "velocity": 0.30708661417322836
        },
        {
          "duration": 0.0852271875000099,
          "durationTicks": 120,
          "midi": 88,
          "name": "E6",
          "ticks": 150576,
          "time": 106.943074875,
          "velocity": 0.30708661417322836
        },
        {
          "duration": 0.0852271875000099,
          "durationTicks": 120,
          "midi": 48,
          "name": "C3",
          "ticks": 150576,
          "time": 106.943074875,
          "velocity": 0.30708661417322836
        },
        {
          "duration": 0.0852271875000099,
          "durationTicks": 120,
          "midi": 81,
          "name": "A5",
          "ticks": 150576,
          "time": 106.943074875,
          "velocity": 0.30708661417322836
        },
        {
          "duration": 0.0852271875000099,
          "durationTicks": 120,
          "midi": 48,
          "name": "C3",
          "ticks": 150600,
          "time": 106.9601203125,
          "velocity": 0.30708661417322836
        },
        {
          "duration": 0.0852271875000099,
          "durationTicks": 120,
          "midi": 81,
          "name": "A5",
          "ticks": 150600,
          "time": 106.9601203125,
          "velocity": 0.30708661417322836
        },
        {
          "duration": 0.0852271875000099,
          "durationTicks": 120,
          "midi": 76,
          "name": "E5",
          "ticks": 150600,
          "time": 106.9601203125,
          "velocity": 0.30708661417322836
        },
        {
          "duration": 0.0852271875000099,
          "durationTicks": 120,
          "midi": 84,
          "name": "C6",
          "ticks": 150600,
          "time": 106.9601203125,
          "velocity": 0.30708661417322836
        },
        {
          "duration": 0.0852271875000099,
          "durationTicks": 120,
          "midi": 88,
          "name": "E6",
          "ticks": 150600,
          "time": 106.9601203125,
          "velocity": 0.30708661417322836
        },
        {
          "duration": 0.0852271874999957,
          "durationTicks": 120,
          "midi": 57,
          "name": "A3",
          "ticks": 150816,
          "time": 107.11352925,
          "velocity": 0.30708661417322836
        },
        {
          "duration": 0.0852271874999957,
          "durationTicks": 120,
          "midi": 52,
          "name": "E3",
          "ticks": 150816,
          "time": 107.11352925,
          "velocity": 0.30708661417322836
        },
        {
          "duration": 0.0852271874999957,
          "durationTicks": 120,
          "midi": 52,
          "name": "E3",
          "ticks": 150816,
          "time": 107.11352925,
          "velocity": 0.30708661417322836
        },
        {
          "duration": 0.0852271874999957,
          "durationTicks": 120,
          "midi": 57,
          "name": "A3",
          "ticks": 150816,
          "time": 107.11352925,
          "velocity": 0.30708661417322836
        },
        {
          "duration": 0.0852271874999957,
          "durationTicks": 120,
          "midi": 52,
          "name": "E3",
          "ticks": 150840,
          "time": 107.1305746875,
          "velocity": 0.30708661417322836
        },
        {
          "duration": 0.0852271874999957,
          "durationTicks": 120,
          "midi": 57,
          "name": "A3",
          "ticks": 150840,
          "time": 107.1305746875,
          "velocity": 0.30708661417322836
        },
        {
          "duration": 0.0852271874999957,
          "durationTicks": 120,
          "midi": 45,
          "name": "A2",
          "ticks": 151056,
          "time": 107.283983625,
          "velocity": 0.30708661417322836
        },
        {
          "duration": 0.0852271874999957,
          "durationTicks": 120,
          "midi": 45,
          "name": "A2",
          "ticks": 151056,
          "time": 107.283983625,
          "velocity": 0.30708661417322836
        },
        {
          "duration": 0.0852271874999957,
          "durationTicks": 120,
          "midi": 93,
          "name": "A6",
          "ticks": 151056,
          "time": 107.283983625,
          "velocity": 0.30708661417322836
        },
        {
          "duration": 0.0852271874999957,
          "durationTicks": 120,
          "midi": 88,
          "name": "E6",
          "ticks": 151056,
          "time": 107.283983625,
          "velocity": 0.30708661417322836
        },
        {
          "duration": 0.0852271874999957,
          "durationTicks": 120,
          "midi": 84,
          "name": "C6",
          "ticks": 151056,
          "time": 107.283983625,
          "velocity": 0.30708661417322836
        },
        {
          "duration": 0.0852271874999957,
          "durationTicks": 120,
          "midi": 84,
          "name": "C6",
          "ticks": 151056,
          "time": 107.283983625,
          "velocity": 0.30708661417322836
        },
        {
          "duration": 0.0852271874999957,
          "durationTicks": 120,
          "midi": 93,
          "name": "A6",
          "ticks": 151056,
          "time": 107.283983625,
          "velocity": 0.30708661417322836
        },
        {
          "duration": 0.0852271874999957,
          "durationTicks": 120,
          "midi": 81,
          "name": "A5",
          "ticks": 151056,
          "time": 107.283983625,
          "velocity": 0.30708661417322836
        },
        {
          "duration": 0.0852271874999957,
          "durationTicks": 120,
          "midi": 88,
          "name": "E6",
          "ticks": 151056,
          "time": 107.283983625,
          "velocity": 0.30708661417322836
        },
        {
          "duration": 0.0852271874999957,
          "durationTicks": 120,
          "midi": 81,
          "name": "A5",
          "ticks": 151056,
          "time": 107.283983625,
          "velocity": 0.30708661417322836
        },
        {
          "duration": 0.0852271875000099,
          "durationTicks": 120,
          "midi": 93,
          "name": "A6",
          "ticks": 151080,
          "time": 107.30102906249999,
          "velocity": 0.30708661417322836
        },
        {
          "duration": 0.0852271875000099,
          "durationTicks": 120,
          "midi": 45,
          "name": "A2",
          "ticks": 151080,
          "time": 107.30102906249999,
          "velocity": 0.30708661417322836
        },
        {
          "duration": 0.0852271875000099,
          "durationTicks": 120,
          "midi": 88,
          "name": "E6",
          "ticks": 151080,
          "time": 107.30102906249999,
          "velocity": 0.30708661417322836
        },
        {
          "duration": 0.0852271875000099,
          "durationTicks": 120,
          "midi": 81,
          "name": "A5",
          "ticks": 151080,
          "time": 107.30102906249999,
          "velocity": 0.30708661417322836
        },
        {
          "duration": 0.0852271875000099,
          "durationTicks": 120,
          "midi": 84,
          "name": "C6",
          "ticks": 151080,
          "time": 107.30102906249999,
          "velocity": 0.30708661417322836
        },
        {
          "duration": 0.0852271874999957,
          "durationTicks": 120,
          "midi": 57,
          "name": "A3",
          "ticks": 151296,
          "time": 107.454438,
          "velocity": 0.30708661417322836
        },
        {
          "duration": 0.0852271874999957,
          "durationTicks": 120,
          "midi": 57,
          "name": "A3",
          "ticks": 151296,
          "time": 107.454438,
          "velocity": 0.30708661417322836
        },
        {
          "duration": 0.0852271874999957,
          "durationTicks": 120,
          "midi": 52,
          "name": "E3",
          "ticks": 151296,
          "time": 107.454438,
          "velocity": 0.30708661417322836
        },
        {
          "duration": 0.0852271874999957,
          "durationTicks": 120,
          "midi": 52,
          "name": "E3",
          "ticks": 151296,
          "time": 107.454438,
          "velocity": 0.30708661417322836
        },
        {
          "duration": 0.0852271874999957,
          "durationTicks": 120,
          "midi": 57,
          "name": "A3",
          "ticks": 151320,
          "time": 107.4714834375,
          "velocity": 0.30708661417322836
        },
        {
          "duration": 0.0852271874999957,
          "durationTicks": 120,
          "midi": 52,
          "name": "E3",
          "ticks": 151320,
          "time": 107.4714834375,
          "velocity": 0.30708661417322836
        },
        {
          "duration": 0.0852271874999957,
          "durationTicks": 120,
          "midi": 47,
          "name": "B2",
          "ticks": 151536,
          "time": 107.624892375,
          "velocity": 0.30708661417322836
        },
        {
          "duration": 0.0852271874999957,
          "durationTicks": 120,
          "midi": 47,
          "name": "B2",
          "ticks": 151536,
          "time": 107.624892375,
          "velocity": 0.30708661417322836
        },
        {
          "duration": 0.0852271874999957,
          "durationTicks": 120,
          "midi": 47,
          "name": "B2",
          "ticks": 151560,
          "time": 107.6419378125,
          "velocity": 0.30708661417322836
        },
        {
          "duration": 0.0852271875000099,
          "durationTicks": 120,
          "midi": 80,
          "name": "G#5",
          "ticks": 151776,
          "time": 107.79534675,
          "velocity": 0.30708661417322836
        },
        {
          "duration": 0.0852271875000099,
          "durationTicks": 120,
          "midi": 83,
          "name": "B5",
          "ticks": 151776,
          "time": 107.79534675,
          "velocity": 0.30708661417322836
        },
        {
          "duration": 0.0852271875000099,
          "durationTicks": 120,
          "midi": 74,
          "name": "D5",
          "ticks": 151776,
          "time": 107.79534675,
          "velocity": 0.30708661417322836
        },
        {
          "duration": 0.0852271875000099,
          "durationTicks": 120,
          "midi": 86,
          "name": "D6",
          "ticks": 151776,
          "time": 107.79534675,
          "velocity": 0.30708661417322836
        },
        {
          "duration": 0.0852271875000099,
          "durationTicks": 120,
          "midi": 86,
          "name": "D6",
          "ticks": 151776,
          "time": 107.79534675,
          "velocity": 0.30708661417322836
        },
        {
          "duration": 0.0852271875000099,
          "durationTicks": 120,
          "midi": 57,
          "name": "A3",
          "ticks": 151776,
          "time": 107.79534675,
          "velocity": 0.30708661417322836
        },
        {
          "duration": 0.0852271875000099,
          "durationTicks": 120,
          "midi": 83,
          "name": "B5",
          "ticks": 151776,
          "time": 107.79534675,
          "velocity": 0.30708661417322836
        },
        {
          "duration": 0.0852271875000099,
          "durationTicks": 120,
          "midi": 74,
          "name": "D5",
          "ticks": 151776,
          "time": 107.79534675,
          "velocity": 0.30708661417322836
        },
        {
          "duration": 0.0852271875000099,
          "durationTicks": 120,
          "midi": 53,
          "name": "F3",
          "ticks": 151776,
          "time": 107.79534675,
          "velocity": 0.30708661417322836
        },
        {
          "duration": 0.0852271875000099,
          "durationTicks": 120,
          "midi": 80,
          "name": "G#5",
          "ticks": 151776,
          "time": 107.79534675,
          "velocity": 0.30708661417322836
        },
        {
          "duration": 0.0852271875000099,
          "durationTicks": 120,
          "midi": 57,
          "name": "A3",
          "ticks": 151776,
          "time": 107.79534675,
          "velocity": 0.30708661417322836
        },
        {
          "duration": 0.0852271875000099,
          "durationTicks": 120,
          "midi": 53,
          "name": "F3",
          "ticks": 151776,
          "time": 107.79534675,
          "velocity": 0.30708661417322836
        },
        {
          "duration": 0.0852271875000099,
          "durationTicks": 120,
          "midi": 83,
          "name": "B5",
          "ticks": 151800,
          "time": 107.8123921875,
          "velocity": 0.30708661417322836
        },
        {
          "duration": 0.0852271875000099,
          "durationTicks": 120,
          "midi": 74,
          "name": "D5",
          "ticks": 151800,
          "time": 107.8123921875,
          "velocity": 0.30708661417322836
        },
        {
          "duration": 0.0852271875000099,
          "durationTicks": 120,
          "midi": 86,
          "name": "D6",
          "ticks": 151800,
          "time": 107.8123921875,
          "velocity": 0.30708661417322836
        },
        {
          "duration": 0.0852271875000099,
          "durationTicks": 120,
          "midi": 53,
          "name": "F3",
          "ticks": 151800,
          "time": 107.8123921875,
          "velocity": 0.30708661417322836
        },
        {
          "duration": 0.0852271875000099,
          "durationTicks": 120,
          "midi": 57,
          "name": "A3",
          "ticks": 151800,
          "time": 107.8123921875,
          "velocity": 0.30708661417322836
        },
        {
          "duration": 0.0852271875000099,
          "durationTicks": 120,
          "midi": 80,
          "name": "G#5",
          "ticks": 151800,
          "time": 107.8123921875,
          "velocity": 0.30708661417322836
        },
        {
          "duration": 0.0852271874999957,
          "durationTicks": 120,
          "midi": 50,
          "name": "D3",
          "ticks": 152016,
          "time": 107.965801125,
          "velocity": 0.30708661417322836
        },
        {
          "duration": 0.0852271874999957,
          "durationTicks": 120,
          "midi": 50,
          "name": "D3",
          "ticks": 152016,
          "time": 107.965801125,
          "velocity": 0.30708661417322836
        },
        {
          "duration": 0.0852271874999957,
          "durationTicks": 120,
          "midi": 50,
          "name": "D3",
          "ticks": 152040,
          "time": 107.9828465625,
          "velocity": 0.30708661417322836
        },
        {
          "duration": 0.0852271874999957,
          "durationTicks": 120,
          "midi": 86,
          "name": "D6",
          "ticks": 152256,
          "time": 108.1362555,
          "velocity": 0.30708661417322836
        },
        {
          "duration": 0.0852271874999957,
          "durationTicks": 120,
          "midi": 77,
          "name": "F5",
          "ticks": 152256,
          "time": 108.1362555,
          "velocity": 0.30708661417322836
        },
        {
          "duration": 0.0852271874999957,
          "durationTicks": 120,
          "midi": 53,
          "name": "F3",
          "ticks": 152256,
          "time": 108.1362555,
          "velocity": 0.30708661417322836
        },
        {
          "duration": 0.0852271874999957,
          "durationTicks": 120,
          "midi": 81,
          "name": "A5",
          "ticks": 152256,
          "time": 108.1362555,
          "velocity": 0.30708661417322836
        },
        {
          "duration": 0.0852271874999957,
          "durationTicks": 120,
          "midi": 77,
          "name": "F5",
          "ticks": 152256,
          "time": 108.1362555,
          "velocity": 0.30708661417322836
        },
        {
          "duration": 0.0852271874999957,
          "durationTicks": 120,
          "midi": 57,
          "name": "A3",
          "ticks": 152256,
          "time": 108.1362555,
          "velocity": 0.30708661417322836
        },
        {
          "duration": 0.0852271874999957,
          "durationTicks": 120,
          "midi": 89,
          "name": "F6",
          "ticks": 152256,
          "time": 108.1362555,
          "velocity": 0.30708661417322836
        },
        {
          "duration": 0.0852271874999957,
          "durationTicks": 120,
          "midi": 86,
          "name": "D6",
          "ticks": 152256,
          "time": 108.1362555,
          "velocity": 0.30708661417322836
        },
        {
          "duration": 0.0852271874999957,
          "durationTicks": 120,
          "midi": 89,
          "name": "F6",
          "ticks": 152256,
          "time": 108.1362555,
          "velocity": 0.30708661417322836
        },
        {
          "duration": 0.0852271874999957,
          "durationTicks": 120,
          "midi": 81,
          "name": "A5",
          "ticks": 152256,
          "time": 108.1362555,
          "velocity": 0.30708661417322836
        },
        {
          "duration": 0.0852271874999957,
          "durationTicks": 120,
          "midi": 57,
          "name": "A3",
          "ticks": 152256,
          "time": 108.1362555,
          "velocity": 0.30708661417322836
        },
        {
          "duration": 0.0852271874999957,
          "durationTicks": 120,
          "midi": 53,
          "name": "F3",
          "ticks": 152256,
          "time": 108.1362555,
          "velocity": 0.30708661417322836
        },
        {
          "duration": 0.0852271875000099,
          "durationTicks": 120,
          "midi": 81,
          "name": "A5",
          "ticks": 152280,
          "time": 108.15330093749999,
          "velocity": 0.30708661417322836
        },
        {
          "duration": 0.0852271875000099,
          "durationTicks": 120,
          "midi": 53,
          "name": "F3",
          "ticks": 152280,
          "time": 108.15330093749999,
          "velocity": 0.30708661417322836
        },
        {
          "duration": 0.0852271875000099,
          "durationTicks": 120,
          "midi": 86,
          "name": "D6",
          "ticks": 152280,
          "time": 108.15330093749999,
          "velocity": 0.30708661417322836
        },
        {
          "duration": 0.0852271875000099,
          "durationTicks": 120,
          "midi": 77,
          "name": "F5",
          "ticks": 152280,
          "time": 108.15330093749999,
          "velocity": 0.30708661417322836
        },
        {
          "duration": 0.0852271875000099,
          "durationTicks": 120,
          "midi": 89,
          "name": "F6",
          "ticks": 152280,
          "time": 108.15330093749999,
          "velocity": 0.30708661417322836
        },
        {
          "duration": 0.0852271875000099,
          "durationTicks": 120,
          "midi": 57,
          "name": "A3",
          "ticks": 152280,
          "time": 108.15330093749999,
          "velocity": 0.30708661417322836
        },
        {
          "duration": 0.0852271875000099,
          "durationTicks": 120,
          "midi": 56,
          "name": "G#3",
          "ticks": 152496,
          "time": 108.306709875,
          "velocity": 0.30708661417322836
        },
        {
          "duration": 0.0852271875000099,
          "durationTicks": 120,
          "midi": 88,
          "name": "E6",
          "ticks": 152496,
          "time": 108.306709875,
          "velocity": 0.30708661417322836
        },
        {
          "duration": 0.0852271875000099,
          "durationTicks": 120,
          "midi": 84,
          "name": "C6",
          "ticks": 152496,
          "time": 108.306709875,
          "velocity": 0.30708661417322836
        },
        {
          "duration": 0.0852271875000099,
          "durationTicks": 120,
          "midi": 81,
          "name": "A5",
          "ticks": 152496,
          "time": 108.306709875,
          "velocity": 0.30708661417322836
        },
        {
          "duration": 0.0852271875000099,
          "durationTicks": 120,
          "midi": 76,
          "name": "E5",
          "ticks": 152496,
          "time": 108.306709875,
          "velocity": 0.30708661417322836
        },
        {
          "duration": 0.0852271875000099,
          "durationTicks": 120,
          "midi": 88,
          "name": "E6",
          "ticks": 152496,
          "time": 108.306709875,
          "velocity": 0.30708661417322836
        },
        {
          "duration": 0.0852271875000099,
          "durationTicks": 120,
          "midi": 40,
          "name": "E2",
          "ticks": 152496,
          "time": 108.306709875,
          "velocity": 0.30708661417322836
        },
        {
          "duration": 0.0852271875000099,
          "durationTicks": 120,
          "midi": 56,
          "name": "G#3",
          "ticks": 152496,
          "time": 108.306709875,
          "velocity": 0.30708661417322836
        },
        {
          "duration": 0.0852271875000099,
          "durationTicks": 120,
          "midi": 84,
          "name": "C6",
          "ticks": 152496,
          "time": 108.306709875,
          "velocity": 0.30708661417322836
        },
        {
          "duration": 0.0852271875000099,
          "durationTicks": 120,
          "midi": 52,
          "name": "E3",
          "ticks": 152496,
          "time": 108.306709875,
          "velocity": 0.30708661417322836
        },
        {
          "duration": 0.0852271875000099,
          "durationTicks": 120,
          "midi": 40,
          "name": "E2",
          "ticks": 152496,
          "time": 108.306709875,
          "velocity": 0.30708661417322836
        },
        {
          "duration": 0.0852271875000099,
          "durationTicks": 120,
          "midi": 81,
          "name": "A5",
          "ticks": 152496,
          "time": 108.306709875,
          "velocity": 0.30708661417322836
        },
        {
          "duration": 0.0852271875000099,
          "durationTicks": 120,
          "midi": 52,
          "name": "E3",
          "ticks": 152496,
          "time": 108.306709875,
          "velocity": 0.30708661417322836
        },
        {
          "duration": 0.0852271875000099,
          "durationTicks": 120,
          "midi": 76,
          "name": "E5",
          "ticks": 152496,
          "time": 108.306709875,
          "velocity": 0.30708661417322836
        },
        {
          "duration": 0.0852271874999957,
          "durationTicks": 120,
          "midi": 88,
          "name": "E6",
          "ticks": 152520,
          "time": 108.3237553125,
          "velocity": 0.30708661417322836
        },
        {
          "duration": 0.0852271874999957,
          "durationTicks": 120,
          "midi": 81,
          "name": "A5",
          "ticks": 152520,
          "time": 108.3237553125,
          "velocity": 0.30708661417322836
        },
        {
          "duration": 0.0852271874999957,
          "durationTicks": 120,
          "midi": 56,
          "name": "G#3",
          "ticks": 152520,
          "time": 108.3237553125,
          "velocity": 0.30708661417322836
        },
        {
          "duration": 0.0852271874999957,
          "durationTicks": 120,
          "midi": 40,
          "name": "E2",
          "ticks": 152520,
          "time": 108.3237553125,
          "velocity": 0.30708661417322836
        },
        {
          "duration": 0.0852271874999957,
          "durationTicks": 120,
          "midi": 52,
          "name": "E3",
          "ticks": 152520,
          "time": 108.3237553125,
          "velocity": 0.30708661417322836
        },
        {
          "duration": 0.0852271874999957,
          "durationTicks": 120,
          "midi": 76,
          "name": "E5",
          "ticks": 152520,
          "time": 108.3237553125,
          "velocity": 0.30708661417322836
        },
        {
          "duration": 0.0852271874999957,
          "durationTicks": 120,
          "midi": 84,
          "name": "C6",
          "ticks": 152520,
          "time": 108.3237553125,
          "velocity": 0.30708661417322836
        },
        {
          "duration": 0.0852271874999957,
          "durationTicks": 120,
          "midi": 81,
          "name": "A5",
          "ticks": 152736,
          "time": 108.47716425,
          "velocity": 0.30708661417322836
        },
        {
          "duration": 0.0852271874999957,
          "durationTicks": 120,
          "midi": 36,
          "name": "C2",
          "ticks": 152736,
          "time": 108.47716425,
          "velocity": 0.30708661417322836
        },
        {
          "duration": 0.0852271874999957,
          "durationTicks": 120,
          "midi": 48,
          "name": "C3",
          "ticks": 152736,
          "time": 108.47716425,
          "velocity": 0.30708661417322836
        },
        {
          "duration": 0.0852271874999957,
          "durationTicks": 120,
          "midi": 36,
          "name": "C2",
          "ticks": 152736,
          "time": 108.47716425,
          "velocity": 0.30708661417322836
        },
        {
          "duration": 0.0852271874999957,
          "durationTicks": 120,
          "midi": 84,
          "name": "C6",
          "ticks": 152736,
          "time": 108.47716425,
          "velocity": 0.30708661417322836
        },
        {
          "duration": 0.0852271874999957,
          "durationTicks": 120,
          "midi": 76,
          "name": "E5",
          "ticks": 152736,
          "time": 108.47716425,
          "velocity": 0.30708661417322836
        },
        {
          "duration": 0.0852271874999957,
          "durationTicks": 120,
          "midi": 84,
          "name": "C6",
          "ticks": 152736,
          "time": 108.47716425,
          "velocity": 0.30708661417322836
        },
        {
          "duration": 0.0852271874999957,
          "durationTicks": 120,
          "midi": 48,
          "name": "C3",
          "ticks": 152736,
          "time": 108.47716425,
          "velocity": 0.30708661417322836
        },
        {
          "duration": 0.0852271874999957,
          "durationTicks": 120,
          "midi": 72,
          "name": "C5",
          "ticks": 152736,
          "time": 108.47716425,
          "velocity": 0.30708661417322836
        },
        {
          "duration": 0.0852271874999957,
          "durationTicks": 120,
          "midi": 81,
          "name": "A5",
          "ticks": 152736,
          "time": 108.47716425,
          "velocity": 0.30708661417322836
        },
        {
          "duration": 0.0852271874999957,
          "durationTicks": 120,
          "midi": 72,
          "name": "C5",
          "ticks": 152736,
          "time": 108.47716425,
          "velocity": 0.30708661417322836
        },
        {
          "duration": 0.0852271874999957,
          "durationTicks": 120,
          "midi": 76,
          "name": "E5",
          "ticks": 152736,
          "time": 108.47716425,
          "velocity": 0.30708661417322836
        },
        {
          "duration": 0.0852271874999957,
          "durationTicks": 120,
          "midi": 84,
          "name": "C6",
          "ticks": 152760,
          "time": 108.4942096875,
          "velocity": 0.30708661417322836
        },
        {
          "duration": 0.0852271874999957,
          "durationTicks": 120,
          "midi": 81,
          "name": "A5",
          "ticks": 152760,
          "time": 108.4942096875,
          "velocity": 0.30708661417322836
        },
        {
          "duration": 0.0852271874999957,
          "durationTicks": 120,
          "midi": 36,
          "name": "C2",
          "ticks": 152760,
          "time": 108.4942096875,
          "velocity": 0.30708661417322836
        },
        {
          "duration": 0.0852271874999957,
          "durationTicks": 120,
          "midi": 76,
          "name": "E5",
          "ticks": 152760,
          "time": 108.4942096875,
          "velocity": 0.30708661417322836
        },
        {
          "duration": 0.0852271874999957,
          "durationTicks": 120,
          "midi": 48,
          "name": "C3",
          "ticks": 152760,
          "time": 108.4942096875,
          "velocity": 0.30708661417322836
        },
        {
          "duration": 0.0852271874999957,
          "durationTicks": 120,
          "midi": 72,
          "name": "C5",
          "ticks": 152760,
          "time": 108.4942096875,
          "velocity": 0.30708661417322836
        },
        {
          "duration": 0.0852271875000099,
          "durationTicks": 120,
          "midi": 76,
          "name": "E5",
          "ticks": 152976,
          "time": 108.64761862499999,
          "velocity": 0.30708661417322836
        },
        {
          "duration": 0.0852271875000099,
          "durationTicks": 120,
          "midi": 83,
          "name": "B5",
          "ticks": 152976,
          "time": 108.64761862499999,
          "velocity": 0.30708661417322836
        },
        {
          "duration": 0.0852271875000099,
          "durationTicks": 120,
          "midi": 86,
          "name": "D6",
          "ticks": 152976,
          "time": 108.64761862499999,
          "velocity": 0.30708661417322836
        },
        {
          "duration": 0.0852271875000099,
          "durationTicks": 120,
          "midi": 86,
          "name": "D6",
          "ticks": 152976,
          "time": 108.64761862499999,
          "velocity": 0.30708661417322836
        },
        {
          "duration": 0.0852271875000099,
          "durationTicks": 120,
          "midi": 74,
          "name": "D5",
          "ticks": 152976,
          "time": 108.64761862499999,
          "velocity": 0.30708661417322836
        },
        {
          "duration": 0.0852271875000099,
          "durationTicks": 120,
          "midi": 50,
          "name": "D3",
          "ticks": 152976,
          "time": 108.64761862499999,
          "velocity": 0.30708661417322836
        },
        {
          "duration": 0.0852271875000099,
          "durationTicks": 120,
          "midi": 83,
          "name": "B5",
          "ticks": 152976,
          "time": 108.64761862499999,
          "velocity": 0.30708661417322836
        },
        {
          "duration": 0.0852271875000099,
          "durationTicks": 120,
          "midi": 38,
          "name": "D2",
          "ticks": 152976,
          "time": 108.64761862499999,
          "velocity": 0.30708661417322836
        },
        {
          "duration": 0.0852271875000099,
          "durationTicks": 120,
          "midi": 74,
          "name": "D5",
          "ticks": 152976,
          "time": 108.64761862499999,
          "velocity": 0.30708661417322836
        },
        {
          "duration": 0.0852271875000099,
          "durationTicks": 120,
          "midi": 50,
          "name": "D3",
          "ticks": 152976,
          "time": 108.64761862499999,
          "velocity": 0.30708661417322836
        },
        {
          "duration": 0.0852271875000099,
          "durationTicks": 120,
          "midi": 38,
          "name": "D2",
          "ticks": 152976,
          "time": 108.64761862499999,
          "velocity": 0.30708661417322836
        },
        {
          "duration": 0.0852271875000099,
          "durationTicks": 120,
          "midi": 76,
          "name": "E5",
          "ticks": 152976,
          "time": 108.64761862499999,
          "velocity": 0.30708661417322836
        },
        {
          "duration": 0.0852271875000099,
          "durationTicks": 120,
          "midi": 86,
          "name": "D6",
          "ticks": 153000,
          "time": 108.6646640625,
          "velocity": 0.30708661417322836
        },
        {
          "duration": 0.0852271875000099,
          "durationTicks": 120,
          "midi": 38,
          "name": "D2",
          "ticks": 153000,
          "time": 108.6646640625,
          "velocity": 0.30708661417322836
        },
        {
          "duration": 0.0852271875000099,
          "durationTicks": 120,
          "midi": 74,
          "name": "D5",
          "ticks": 153000,
          "time": 108.6646640625,
          "velocity": 0.30708661417322836
        },
        {
          "duration": 0.0852271875000099,
          "durationTicks": 120,
          "midi": 83,
          "name": "B5",
          "ticks": 153000,
          "time": 108.6646640625,
          "velocity": 0.30708661417322836
        },
        {
          "duration": 0.0852271875000099,
          "durationTicks": 120,
          "midi": 76,
          "name": "E5",
          "ticks": 153000,
          "time": 108.6646640625,
          "velocity": 0.30708661417322836
        },
        {
          "duration": 0.0852271875000099,
          "durationTicks": 120,
          "midi": 50,
          "name": "D3",
          "ticks": 153000,
          "time": 108.6646640625,
          "velocity": 0.30708661417322836
        },
        {
          "duration": 0.0852271874999957,
          "durationTicks": 120,
          "midi": 47,
          "name": "B2",
          "ticks": 153216,
          "time": 108.818073,
          "velocity": 0.30708661417322836
        },
        {
          "duration": 0.0852271874999957,
          "durationTicks": 120,
          "midi": 80,
          "name": "G#5",
          "ticks": 153216,
          "time": 108.818073,
          "velocity": 0.30708661417322836
        },
        {
          "duration": 0.0852271874999957,
          "durationTicks": 120,
          "midi": 35,
          "name": "B1",
          "ticks": 153216,
          "time": 108.818073,
          "velocity": 0.30708661417322836
        },
        {
          "duration": 0.0852271874999957,
          "durationTicks": 120,
          "midi": 35,
          "name": "B1",
          "ticks": 153216,
          "time": 108.818073,
          "velocity": 0.30708661417322836
        },
        {
          "duration": 0.0852271874999957,
          "durationTicks": 120,
          "midi": 75,
          "name": "D#5",
          "ticks": 153216,
          "time": 108.818073,
          "velocity": 0.30708661417322836
        },
        {
          "duration": 0.0852271874999957,
          "durationTicks": 120,
          "midi": 71,
          "name": "B4",
          "ticks": 153216,
          "time": 108.818073,
          "velocity": 0.30708661417322836
        },
        {
          "duration": 0.0852271874999957,
          "durationTicks": 120,
          "midi": 47,
          "name": "B2",
          "ticks": 153216,
          "time": 108.818073,
          "velocity": 0.30708661417322836
        },
        {
          "duration": 0.0852271874999957,
          "durationTicks": 120,
          "midi": 83,
          "name": "B5",
          "ticks": 153216,
          "time": 108.818073,
          "velocity": 0.30708661417322836
        },
        {
          "duration": 0.0852271874999957,
          "durationTicks": 120,
          "midi": 75,
          "name": "D#5",
          "ticks": 153216,
          "time": 108.818073,
          "velocity": 0.30708661417322836
        },
        {
          "duration": 0.0852271874999957,
          "durationTicks": 120,
          "midi": 80,
          "name": "G#5",
          "ticks": 153216,
          "time": 108.818073,
          "velocity": 0.30708661417322836
        },
        {
          "duration": 0.0852271874999957,
          "durationTicks": 120,
          "midi": 71,
          "name": "B4",
          "ticks": 153216,
          "time": 108.818073,
          "velocity": 0.30708661417322836
        },
        {
          "duration": 0.0852271874999957,
          "durationTicks": 120,
          "midi": 83,
          "name": "B5",
          "ticks": 153216,
          "time": 108.818073,
          "velocity": 0.30708661417322836
        },
        {
          "duration": 0.0852271874999957,
          "durationTicks": 120,
          "midi": 71,
          "name": "B4",
          "ticks": 153240,
          "time": 108.8351184375,
          "velocity": 0.30708661417322836
        },
        {
          "duration": 0.0852271874999957,
          "durationTicks": 120,
          "midi": 80,
          "name": "G#5",
          "ticks": 153240,
          "time": 108.8351184375,
          "velocity": 0.30708661417322836
        },
        {
          "duration": 0.0852271874999957,
          "durationTicks": 120,
          "midi": 83,
          "name": "B5",
          "ticks": 153240,
          "time": 108.8351184375,
          "velocity": 0.30708661417322836
        },
        {
          "duration": 0.0852271874999957,
          "durationTicks": 120,
          "midi": 47,
          "name": "B2",
          "ticks": 153240,
          "time": 108.8351184375,
          "velocity": 0.30708661417322836
        },
        {
          "duration": 0.0852271874999957,
          "durationTicks": 120,
          "midi": 35,
          "name": "B1",
          "ticks": 153240,
          "time": 108.8351184375,
          "velocity": 0.30708661417322836
        },
        {
          "duration": 0.0852271874999957,
          "durationTicks": 120,
          "midi": 75,
          "name": "D#5",
          "ticks": 153240,
          "time": 108.8351184375,
          "velocity": 0.30708661417322836
        },
        {
          "duration": 0.0852271874999957,
          "durationTicks": 120,
          "midi": 69,
          "name": "A4",
          "ticks": 153456,
          "time": 108.988527375,
          "velocity": 0.30708661417322836
        },
        {
          "duration": 0.0852271874999957,
          "durationTicks": 120,
          "midi": 81,
          "name": "A5",
          "ticks": 153456,
          "time": 108.988527375,
          "velocity": 0.30708661417322836
        },
        {
          "duration": 0.0852271874999957,
          "durationTicks": 120,
          "midi": 76,
          "name": "E5",
          "ticks": 153456,
          "time": 108.988527375,
          "velocity": 0.30708661417322836
        },
        {
          "duration": 0.0852271874999957,
          "durationTicks": 120,
          "midi": 33,
          "name": "A1",
          "ticks": 153456,
          "time": 108.988527375,
          "velocity": 0.30708661417322836
        },
        {
          "duration": 0.0852271874999957,
          "durationTicks": 120,
          "midi": 45,
          "name": "A2",
          "ticks": 153456,
          "time": 108.988527375,
          "velocity": 0.30708661417322836
        },
        {
          "duration": 0.0852271874999957,
          "durationTicks": 120,
          "midi": 81,
          "name": "A5",
          "ticks": 153456,
          "time": 108.988527375,
          "velocity": 0.30708661417322836
        },
        {
          "duration": 0.0852271874999957,
          "durationTicks": 120,
          "midi": 72,
          "name": "C5",
          "ticks": 153456,
          "time": 108.988527375,
          "velocity": 0.30708661417322836
        },
        {
          "duration": 0.0852271874999957,
          "durationTicks": 120,
          "midi": 33,
          "name": "A1",
          "ticks": 153456,
          "time": 108.988527375,
          "velocity": 0.30708661417322836
        },
        {
          "duration": 0.0852271874999957,
          "durationTicks": 120,
          "midi": 45,
          "name": "A2",
          "ticks": 153456,
          "time": 108.988527375,
          "velocity": 0.30708661417322836
        },
        {
          "duration": 0.0852271874999957,
          "durationTicks": 120,
          "midi": 69,
          "name": "A4",
          "ticks": 153456,
          "time": 108.988527375,
          "velocity": 0.30708661417322836
        },
        {
          "duration": 0.0852271874999957,
          "durationTicks": 120,
          "midi": 76,
          "name": "E5",
          "ticks": 153456,
          "time": 108.988527375,
          "velocity": 0.30708661417322836
        },
        {
          "duration": 0.0852271874999957,
          "durationTicks": 120,
          "midi": 72,
          "name": "C5",
          "ticks": 153456,
          "time": 108.988527375,
          "velocity": 0.30708661417322836
        },
        {
          "duration": 0.0852271874999957,
          "durationTicks": 120,
          "midi": 72,
          "name": "C5",
          "ticks": 153480,
          "time": 109.0055728125,
          "velocity": 0.30708661417322836
        },
        {
          "duration": 0.0852271874999957,
          "durationTicks": 120,
          "midi": 81,
          "name": "A5",
          "ticks": 153480,
          "time": 109.0055728125,
          "velocity": 0.30708661417322836
        },
        {
          "duration": 0.0852271874999957,
          "durationTicks": 120,
          "midi": 45,
          "name": "A2",
          "ticks": 153480,
          "time": 109.0055728125,
          "velocity": 0.30708661417322836
        },
        {
          "duration": 0.0852271874999957,
          "durationTicks": 120,
          "midi": 69,
          "name": "A4",
          "ticks": 153480,
          "time": 109.0055728125,
          "velocity": 0.30708661417322836
        },
        {
          "duration": 0.0852271874999957,
          "durationTicks": 120,
          "midi": 76,
          "name": "E5",
          "ticks": 153480,
          "time": 109.0055728125,
          "velocity": 0.30708661417322836
        },
        {
          "duration": 0.0852271874999957,
          "durationTicks": 120,
          "midi": 33,
          "name": "A1",
          "ticks": 153480,
          "time": 109.0055728125,
          "velocity": 0.30708661417322836
        },
        {
          "duration": 0.0852271875000099,
          "durationTicks": 120,
          "midi": 88,
          "name": "E6",
          "ticks": 154176,
          "time": 109.49989049999999,
          "velocity": 0.30708661417322836
        },
        {
          "duration": 0.0852271875000099,
          "durationTicks": 120,
          "midi": 69,
          "name": "A4",
          "ticks": 154176,
          "time": 109.49989049999999,
          "velocity": 0.30708661417322836
        },
        {
          "duration": 0.0852271875000099,
          "durationTicks": 120,
          "midi": 84,
          "name": "C6",
          "ticks": 154176,
          "time": 109.49989049999999,
          "velocity": 0.30708661417322836
        },
        {
          "duration": 0.0852271875000099,
          "durationTicks": 120,
          "midi": 28,
          "name": "E1",
          "ticks": 154176,
          "time": 109.49989049999999,
          "velocity": 0.30708661417322836
        },
        {
          "duration": 0.0852271875000099,
          "durationTicks": 120,
          "midi": 81,
          "name": "A5",
          "ticks": 154176,
          "time": 109.49989049999999,
          "velocity": 0.30708661417322836
        },
        {
          "duration": 0.0852271875000099,
          "durationTicks": 120,
          "midi": 88,
          "name": "E6",
          "ticks": 154176,
          "time": 109.49989049999999,
          "velocity": 0.30708661417322836
        },
        {
          "duration": 0.0852271875000099,
          "durationTicks": 120,
          "midi": 76,
          "name": "E5",
          "ticks": 154176,
          "time": 109.49989049999999,
          "velocity": 0.30708661417322836
        },
        {
          "duration": 0.0852271875000099,
          "durationTicks": 120,
          "midi": 28,
          "name": "E1",
          "ticks": 154176,
          "time": 109.49989049999999,
          "velocity": 0.30708661417322836
        },
        {
          "duration": 0.0852271875000099,
          "durationTicks": 120,
          "midi": 72,
          "name": "C5",
          "ticks": 154176,
          "time": 109.49989049999999,
          "velocity": 0.30708661417322836
        },
        {
          "duration": 0.0852271875000099,
          "durationTicks": 120,
          "midi": 69,
          "name": "A4",
          "ticks": 154176,
          "time": 109.49989049999999,
          "velocity": 0.30708661417322836
        },
        {
          "duration": 0.0852271875000099,
          "durationTicks": 120,
          "midi": 81,
          "name": "A5",
          "ticks": 154176,
          "time": 109.49989049999999,
          "velocity": 0.30708661417322836
        },
        {
          "duration": 0.0852271875000099,
          "durationTicks": 120,
          "midi": 40,
          "name": "E2",
          "ticks": 154176,
          "time": 109.49989049999999,
          "velocity": 0.30708661417322836
        },
        {
          "duration": 0.0852271875000099,
          "durationTicks": 120,
          "midi": 59,
          "name": "B3",
          "ticks": 154176,
          "time": 109.49989049999999,
          "velocity": 0.30708661417322836
        },
        {
          "duration": 0.0852271875000099,
          "durationTicks": 120,
          "midi": 52,
          "name": "E3",
          "ticks": 154176,
          "time": 109.49989049999999,
          "velocity": 0.30708661417322836
        },
        {
          "duration": 0.0852271875000099,
          "durationTicks": 120,
          "midi": 64,
          "name": "E4",
          "ticks": 154176,
          "time": 109.49989049999999,
          "velocity": 0.30708661417322836
        },
        {
          "duration": 0.0852271875000099,
          "durationTicks": 120,
          "midi": 52,
          "name": "E3",
          "ticks": 154176,
          "time": 109.49989049999999,
          "velocity": 0.30708661417322836
        },
        {
          "duration": 0.0852271875000099,
          "durationTicks": 120,
          "midi": 56,
          "name": "G#3",
          "ticks": 154176,
          "time": 109.49989049999999,
          "velocity": 0.30708661417322836
        },
        {
          "duration": 0.0852271875000099,
          "durationTicks": 120,
          "midi": 84,
          "name": "C6",
          "ticks": 154176,
          "time": 109.49989049999999,
          "velocity": 0.30708661417322836
        },
        {
          "duration": 0.0852271875000099,
          "durationTicks": 120,
          "midi": 40,
          "name": "E2",
          "ticks": 154176,
          "time": 109.49989049999999,
          "velocity": 0.30708661417322836
        },
        {
          "duration": 0.0852271875000099,
          "durationTicks": 120,
          "midi": 64,
          "name": "E4",
          "ticks": 154176,
          "time": 109.49989049999999,
          "velocity": 0.30708661417322836
        },
        {
          "duration": 0.0852271875000099,
          "durationTicks": 120,
          "midi": 72,
          "name": "C5",
          "ticks": 154176,
          "time": 109.49989049999999,
          "velocity": 0.30708661417322836
        },
        {
          "duration": 0.0852271875000099,
          "durationTicks": 120,
          "midi": 56,
          "name": "G#3",
          "ticks": 154176,
          "time": 109.49989049999999,
          "velocity": 0.30708661417322836
        },
        {
          "duration": 0.0852271875000099,
          "durationTicks": 120,
          "midi": 76,
          "name": "E5",
          "ticks": 154176,
          "time": 109.49989049999999,
          "velocity": 0.30708661417322836
        },
        {
          "duration": 0.0852271875000099,
          "durationTicks": 120,
          "midi": 59,
          "name": "B3",
          "ticks": 154176,
          "time": 109.49989049999999,
          "velocity": 0.30708661417322836
        },
        {
          "duration": 0.0852271875000099,
          "durationTicks": 120,
          "midi": 84,
          "name": "C6",
          "ticks": 154200,
          "time": 109.5169359375,
          "velocity": 0.30708661417322836
        },
        {
          "duration": 0.0852271875000099,
          "durationTicks": 120,
          "midi": 81,
          "name": "A5",
          "ticks": 154200,
          "time": 109.5169359375,
          "velocity": 0.30708661417322836
        },
        {
          "duration": 0.0852271875000099,
          "durationTicks": 120,
          "midi": 88,
          "name": "E6",
          "ticks": 154200,
          "time": 109.5169359375,
          "velocity": 0.30708661417322836
        },
        {
          "duration": 0.0852271875000099,
          "durationTicks": 120,
          "midi": 72,
          "name": "C5",
          "ticks": 154200,
          "time": 109.5169359375,
          "velocity": 0.30708661417322836
        },
        {
          "duration": 0.0852271875000099,
          "durationTicks": 120,
          "midi": 64,
          "name": "E4",
          "ticks": 154200,
          "time": 109.5169359375,
          "velocity": 0.30708661417322836
        },
        {
          "duration": 0.0852271875000099,
          "durationTicks": 120,
          "midi": 56,
          "name": "G#3",
          "ticks": 154200,
          "time": 109.5169359375,
          "velocity": 0.30708661417322836
        },
        {
          "duration": 0.0852271875000099,
          "durationTicks": 120,
          "midi": 40,
          "name": "E2",
          "ticks": 154200,
          "time": 109.5169359375,
          "velocity": 0.30708661417322836
        },
        {
          "duration": 0.0852271875000099,
          "durationTicks": 120,
          "midi": 59,
          "name": "B3",
          "ticks": 154200,
          "time": 109.5169359375,
          "velocity": 0.30708661417322836
        },
        {
          "duration": 0.0852271875000099,
          "durationTicks": 120,
          "midi": 76,
          "name": "E5",
          "ticks": 154200,
          "time": 109.5169359375,
          "velocity": 0.30708661417322836
        },
        {
          "duration": 0.0852271875000099,
          "durationTicks": 120,
          "midi": 52,
          "name": "E3",
          "ticks": 154200,
          "time": 109.5169359375,
          "velocity": 0.30708661417322836
        },
        {
          "duration": 0.0852271875000099,
          "durationTicks": 120,
          "midi": 28,
          "name": "E1",
          "ticks": 154200,
          "time": 109.5169359375,
          "velocity": 0.30708661417322836
        },
        {
          "duration": 0.0852271875000099,
          "durationTicks": 120,
          "midi": 69,
          "name": "A4",
          "ticks": 154200,
          "time": 109.5169359375,
          "velocity": 0.30708661417322836
        },
        {
          "duration": 0.0852271874999957,
          "durationTicks": 120,
          "midi": 93,
          "name": "A6",
          "ticks": 154416,
          "time": 109.670344875,
          "velocity": 0.30708661417322836
        },
        {
          "duration": 0.0852271874999957,
          "durationTicks": 120,
          "midi": 72,
          "name": "C5",
          "ticks": 154416,
          "time": 109.670344875,
          "velocity": 0.30708661417322836
        },
        {
          "duration": 0.0852271874999957,
          "durationTicks": 120,
          "midi": 60,
          "name": "C4",
          "ticks": 154416,
          "time": 109.670344875,
          "velocity": 0.30708661417322836
        },
        {
          "duration": 0.0852271874999957,
          "durationTicks": 120,
          "midi": 33,
          "name": "A1",
          "ticks": 154416,
          "time": 109.670344875,
          "velocity": 0.30708661417322836
        },
        {
          "duration": 0.0852271874999957,
          "durationTicks": 120,
          "midi": 69,
          "name": "A4",
          "ticks": 154416,
          "time": 109.670344875,
          "velocity": 0.30708661417322836
        },
        {
          "duration": 0.0852271874999957,
          "durationTicks": 120,
          "midi": 64,
          "name": "E4",
          "ticks": 154416,
          "time": 109.670344875,
          "velocity": 0.30708661417322836
        },
        {
          "duration": 0.0852271874999957,
          "durationTicks": 120,
          "midi": 84,
          "name": "C6",
          "ticks": 154416,
          "time": 109.670344875,
          "velocity": 0.30708661417322836
        },
        {
          "duration": 0.0852271874999957,
          "durationTicks": 120,
          "midi": 88,
          "name": "E6",
          "ticks": 154416,
          "time": 109.670344875,
          "velocity": 0.30708661417322836
        },
        {
          "duration": 0.0852271874999957,
          "durationTicks": 120,
          "midi": 72,
          "name": "C5",
          "ticks": 154416,
          "time": 109.670344875,
          "velocity": 0.30708661417322836
        },
        {
          "duration": 0.0852271874999957,
          "durationTicks": 120,
          "midi": 76,
          "name": "E5",
          "ticks": 154416,
          "time": 109.670344875,
          "velocity": 0.30708661417322836
        },
        {
          "duration": 0.0852271874999957,
          "durationTicks": 120,
          "midi": 45,
          "name": "A2",
          "ticks": 154416,
          "time": 109.670344875,
          "velocity": 0.30708661417322836
        },
        {
          "duration": 0.0852271874999957,
          "durationTicks": 120,
          "midi": 76,
          "name": "E5",
          "ticks": 154416,
          "time": 109.670344875,
          "velocity": 0.30708661417322836
        },
        {
          "duration": 0.0852271874999957,
          "durationTicks": 120,
          "midi": 93,
          "name": "A6",
          "ticks": 154416,
          "time": 109.670344875,
          "velocity": 0.30708661417322836
        },
        {
          "duration": 0.0852271874999957,
          "durationTicks": 120,
          "midi": 45,
          "name": "A2",
          "ticks": 154416,
          "time": 109.670344875,
          "velocity": 0.30708661417322836
        },
        {
          "duration": 0.0852271874999957,
          "durationTicks": 120,
          "midi": 57,
          "name": "A3",
          "ticks": 154416,
          "time": 109.670344875,
          "velocity": 0.30708661417322836
        },
        {
          "duration": 0.0852271874999957,
          "durationTicks": 120,
          "midi": 60,
          "name": "C4",
          "ticks": 154416,
          "time": 109.670344875,
          "velocity": 0.30708661417322836
        },
        {
          "duration": 0.0852271874999957,
          "durationTicks": 120,
          "midi": 81,
          "name": "A5",
          "ticks": 154416,
          "time": 109.670344875,
          "velocity": 0.30708661417322836
        },
        {
          "duration": 0.0852271874999957,
          "durationTicks": 120,
          "midi": 33,
          "name": "A1",
          "ticks": 154416,
          "time": 109.670344875,
          "velocity": 0.30708661417322836
        },
        {
          "duration": 0.0852271874999957,
          "durationTicks": 120,
          "midi": 64,
          "name": "E4",
          "ticks": 154416,
          "time": 109.670344875,
          "velocity": 0.30708661417322836
        },
        {
          "duration": 0.0852271874999957,
          "durationTicks": 120,
          "midi": 69,
          "name": "A4",
          "ticks": 154416,
          "time": 109.670344875,
          "velocity": 0.30708661417322836
        },
        {
          "duration": 0.0852271874999957,
          "durationTicks": 120,
          "midi": 57,
          "name": "A3",
          "ticks": 154416,
          "time": 109.670344875,
          "velocity": 0.30708661417322836
        },
        {
          "duration": 0.0852271874999957,
          "durationTicks": 120,
          "midi": 84,
          "name": "C6",
          "ticks": 154416,
          "time": 109.670344875,
          "velocity": 0.30708661417322836
        },
        {
          "duration": 0.0852271874999957,
          "durationTicks": 120,
          "midi": 88,
          "name": "E6",
          "ticks": 154416,
          "time": 109.670344875,
          "velocity": 0.30708661417322836
        },
        {
          "duration": 0.0852271874999957,
          "durationTicks": 120,
          "midi": 81,
          "name": "A5",
          "ticks": 154416,
          "time": 109.670344875,
          "velocity": 0.30708661417322836
        },
        {
          "duration": 0.0852271874999957,
          "durationTicks": 120,
          "midi": 52,
          "name": "E3",
          "ticks": 154416,
          "time": 109.670344875,
          "velocity": 0.30708661417322836
        },
        {
          "duration": 0.0852271874999957,
          "durationTicks": 120,
          "midi": 52,
          "name": "E3",
          "ticks": 154416,
          "time": 109.670344875,
          "velocity": 0.30708661417322836
        },
        {
          "duration": 0.0852271874999957,
          "durationTicks": 120,
          "midi": 76,
          "name": "E5",
          "ticks": 154440,
          "time": 109.6873903125,
          "velocity": 0.30708661417322836
        },
        {
          "duration": 0.0852271874999957,
          "durationTicks": 120,
          "midi": 33,
          "name": "A1",
          "ticks": 154440,
          "time": 109.6873903125,
          "velocity": 0.30708661417322836
        },
        {
          "duration": 0.0852271874999957,
          "durationTicks": 120,
          "midi": 69,
          "name": "A4",
          "ticks": 154440,
          "time": 109.6873903125,
          "velocity": 0.30708661417322836
        },
        {
          "duration": 0.0852271874999957,
          "durationTicks": 120,
          "midi": 72,
          "name": "C5",
          "ticks": 154440,
          "time": 109.6873903125,
          "velocity": 0.30708661417322836
        },
        {
          "duration": 0.0852271874999957,
          "durationTicks": 120,
          "midi": 88,
          "name": "E6",
          "ticks": 154440,
          "time": 109.6873903125,
          "velocity": 0.30708661417322836
        },
        {
          "duration": 0.0852271874999957,
          "durationTicks": 120,
          "midi": 64,
          "name": "E4",
          "ticks": 154440,
          "time": 109.6873903125,
          "velocity": 0.30708661417322836
        },
        {
          "duration": 0.0852271874999957,
          "durationTicks": 120,
          "midi": 81,
          "name": "A5",
          "ticks": 154440,
          "time": 109.6873903125,
          "velocity": 0.30708661417322836
        },
        {
          "duration": 0.0852271874999957,
          "durationTicks": 120,
          "midi": 60,
          "name": "C4",
          "ticks": 154440,
          "time": 109.6873903125,
          "velocity": 0.30708661417322836
        },
        {
          "duration": 0.0852271874999957,
          "durationTicks": 120,
          "midi": 57,
          "name": "A3",
          "ticks": 154440,
          "time": 109.6873903125,
          "velocity": 0.30708661417322836
        },
        {
          "duration": 0.0852271874999957,
          "durationTicks": 120,
          "midi": 52,
          "name": "E3",
          "ticks": 154440,
          "time": 109.6873903125,
          "velocity": 0.30708661417322836
        },
        {
          "duration": 0.0852271874999957,
          "durationTicks": 120,
          "midi": 93,
          "name": "A6",
          "ticks": 154440,
          "time": 109.6873903125,
          "velocity": 0.30708661417322836
        },
        {
          "duration": 0.0852271874999957,
          "durationTicks": 120,
          "midi": 84,
          "name": "C6",
          "ticks": 154440,
          "time": 109.6873903125,
          "velocity": 0.30708661417322836
        },
        {
          "duration": 0.0852271874999957,
          "durationTicks": 120,
          "midi": 45,
          "name": "A2",
          "ticks": 154440,
          "time": 109.6873903125,
          "velocity": 0.30708661417322836
        },
        {
          "duration": 0.0852271875000099,
          "durationTicks": 120,
          "midi": 88,
          "name": "E6",
          "ticks": 155376,
          "time": 110.35216237499999,
          "velocity": 0.30708661417322836
        },
        {
          "duration": 0.0852271875000099,
          "durationTicks": 120,
          "midi": 88,
          "name": "E6",
          "ticks": 155376,
          "time": 110.35216237499999,
          "velocity": 0.30708661417322836
        },
        {
          "duration": 0.0852271875000099,
          "durationTicks": 120,
          "midi": 72,
          "name": "C5",
          "ticks": 155376,
          "time": 110.35216237499999,
          "velocity": 0.30708661417322836
        },
        {
          "duration": 0.0852271875000099,
          "durationTicks": 120,
          "midi": 81,
          "name": "A5",
          "ticks": 155376,
          "time": 110.35216237499999,
          "velocity": 0.30708661417322836
        },
        {
          "duration": 0.0852271875000099,
          "durationTicks": 120,
          "midi": 45,
          "name": "A2",
          "ticks": 155376,
          "time": 110.35216237499999,
          "velocity": 0.30708661417322836
        },
        {
          "duration": 0.0852271875000099,
          "durationTicks": 120,
          "midi": 64,
          "name": "E4",
          "ticks": 155376,
          "time": 110.35216237499999,
          "velocity": 0.30708661417322836
        },
        {
          "duration": 0.0852271875000099,
          "durationTicks": 120,
          "midi": 76,
          "name": "E5",
          "ticks": 155376,
          "time": 110.35216237499999,
          "velocity": 0.30708661417322836
        },
        {
          "duration": 0.0852271875000099,
          "durationTicks": 120,
          "midi": 84,
          "name": "C6",
          "ticks": 155376,
          "time": 110.35216237499999,
          "velocity": 0.30708661417322836
        },
        {
          "duration": 0.0852271875000099,
          "durationTicks": 120,
          "midi": 69,
          "name": "A4",
          "ticks": 155376,
          "time": 110.35216237499999,
          "velocity": 0.30708661417322836
        },
        {
          "duration": 0.0852271875000099,
          "durationTicks": 120,
          "midi": 84,
          "name": "C6",
          "ticks": 155376,
          "time": 110.35216237499999,
          "velocity": 0.30708661417322836
        },
        {
          "duration": 0.0852271875000099,
          "durationTicks": 120,
          "midi": 81,
          "name": "A5",
          "ticks": 155376,
          "time": 110.35216237499999,
          "velocity": 0.30708661417322836
        },
        {
          "duration": 0.0852271875000099,
          "durationTicks": 120,
          "midi": 45,
          "name": "A2",
          "ticks": 155376,
          "time": 110.35216237499999,
          "velocity": 0.30708661417322836
        },
        {
          "duration": 0.0852271875000099,
          "durationTicks": 120,
          "midi": 69,
          "name": "A4",
          "ticks": 155376,
          "time": 110.35216237499999,
          "velocity": 0.30708661417322836
        },
        {
          "duration": 0.0852271875000099,
          "durationTicks": 120,
          "midi": 72,
          "name": "C5",
          "ticks": 155376,
          "time": 110.35216237499999,
          "velocity": 0.30708661417322836
        },
        {
          "duration": 0.0852271875000099,
          "durationTicks": 120,
          "midi": 64,
          "name": "E4",
          "ticks": 155376,
          "time": 110.35216237499999,
          "velocity": 0.30708661417322836
        },
        {
          "duration": 0.0852271875000099,
          "durationTicks": 120,
          "midi": 76,
          "name": "E5",
          "ticks": 155376,
          "time": 110.35216237499999,
          "velocity": 0.30708661417322836
        },
        {
          "duration": 0.0852271875000099,
          "durationTicks": 120,
          "midi": 81,
          "name": "A5",
          "ticks": 155400,
          "time": 110.3692078125,
          "velocity": 0.30708661417322836
        },
        {
          "duration": 0.0852271875000099,
          "durationTicks": 120,
          "midi": 84,
          "name": "C6",
          "ticks": 155400,
          "time": 110.3692078125,
          "velocity": 0.30708661417322836
        },
        {
          "duration": 0.0852271875000099,
          "durationTicks": 120,
          "midi": 76,
          "name": "E5",
          "ticks": 155400,
          "time": 110.3692078125,
          "velocity": 0.30708661417322836
        },
        {
          "duration": 0.0852271875000099,
          "durationTicks": 120,
          "midi": 72,
          "name": "C5",
          "ticks": 155400,
          "time": 110.3692078125,
          "velocity": 0.30708661417322836
        },
        {
          "duration": 0.0852271875000099,
          "durationTicks": 120,
          "midi": 45,
          "name": "A2",
          "ticks": 155400,
          "time": 110.3692078125,
          "velocity": 0.30708661417322836
        },
        {
          "duration": 0.0852271875000099,
          "durationTicks": 120,
          "midi": 69,
          "name": "A4",
          "ticks": 155400,
          "time": 110.3692078125,
          "velocity": 0.30708661417322836
        },
        {
          "duration": 0.0852271875000099,
          "durationTicks": 120,
          "midi": 88,
          "name": "E6",
          "ticks": 155400,
          "time": 110.3692078125,
          "velocity": 0.30708661417322836
        },
        {
          "duration": 0.0852271875000099,
          "durationTicks": 120,
          "midi": 64,
          "name": "E4",
          "ticks": 155400,
          "time": 110.3692078125,
          "velocity": 0.30708661417322836
        },
        {
          "duration": 0.0852271874999957,
          "durationTicks": 120,
          "midi": 84,
          "name": "C6",
          "ticks": 155496,
          "time": 110.4373895625,
          "velocity": 0.30708661417322836
        },
        {
          "duration": 0.0852271874999957,
          "durationTicks": 120,
          "midi": 64,
          "name": "E4",
          "ticks": 155496,
          "time": 110.4373895625,
          "velocity": 0.30708661417322836
        },
        {
          "duration": 0.0852271874999957,
          "durationTicks": 120,
          "midi": 88,
          "name": "E6",
          "ticks": 155496,
          "time": 110.4373895625,
          "velocity": 0.30708661417322836
        },
        {
          "duration": 0.0852271874999957,
          "durationTicks": 120,
          "midi": 76,
          "name": "E5",
          "ticks": 155496,
          "time": 110.4373895625,
          "velocity": 0.30708661417322836
        },
        {
          "duration": 0.0852271874999957,
          "durationTicks": 120,
          "midi": 88,
          "name": "E6",
          "ticks": 155496,
          "time": 110.4373895625,
          "velocity": 0.30708661417322836
        },
        {
          "duration": 0.0852271874999957,
          "durationTicks": 120,
          "midi": 81,
          "name": "A5",
          "ticks": 155496,
          "time": 110.4373895625,
          "velocity": 0.30708661417322836
        },
        {
          "duration": 0.0852271874999957,
          "durationTicks": 120,
          "midi": 76,
          "name": "E5",
          "ticks": 155496,
          "time": 110.4373895625,
          "velocity": 0.30708661417322836
        },
        {
          "duration": 0.0852271874999957,
          "durationTicks": 120,
          "midi": 72,
          "name": "C5",
          "ticks": 155496,
          "time": 110.4373895625,
          "velocity": 0.30708661417322836
        },
        {
          "duration": 0.0852271874999957,
          "durationTicks": 120,
          "midi": 81,
          "name": "A5",
          "ticks": 155496,
          "time": 110.4373895625,
          "velocity": 0.30708661417322836
        },
        {
          "duration": 0.0852271874999957,
          "durationTicks": 120,
          "midi": 64,
          "name": "E4",
          "ticks": 155496,
          "time": 110.4373895625,
          "velocity": 0.30708661417322836
        },
        {
          "duration": 0.0852271874999957,
          "durationTicks": 120,
          "midi": 72,
          "name": "C5",
          "ticks": 155496,
          "time": 110.4373895625,
          "velocity": 0.30708661417322836
        },
        {
          "duration": 0.0852271874999957,
          "durationTicks": 120,
          "midi": 69,
          "name": "A4",
          "ticks": 155496,
          "time": 110.4373895625,
          "velocity": 0.30708661417322836
        },
        {
          "duration": 0.0852271874999957,
          "durationTicks": 120,
          "midi": 69,
          "name": "A4",
          "ticks": 155496,
          "time": 110.4373895625,
          "velocity": 0.30708661417322836
        },
        {
          "duration": 0.0852271874999957,
          "durationTicks": 120,
          "midi": 84,
          "name": "C6",
          "ticks": 155496,
          "time": 110.4373895625,
          "velocity": 0.30708661417322836
        },
        {
          "duration": 0.0852271874999957,
          "durationTicks": 120,
          "midi": 64,
          "name": "E4",
          "ticks": 155520,
          "time": 110.454435,
          "velocity": 0.30708661417322836
        },
        {
          "duration": 0.0852271874999957,
          "durationTicks": 120,
          "midi": 81,
          "name": "A5",
          "ticks": 155520,
          "time": 110.454435,
          "velocity": 0.30708661417322836
        },
        {
          "duration": 0.0852271874999957,
          "durationTicks": 120,
          "midi": 84,
          "name": "C6",
          "ticks": 155520,
          "time": 110.454435,
          "velocity": 0.30708661417322836
        },
        {
          "duration": 0.0852271874999957,
          "durationTicks": 120,
          "midi": 72,
          "name": "C5",
          "ticks": 155520,
          "time": 110.454435,
          "velocity": 0.30708661417322836
        },
        {
          "duration": 0.0852271874999957,
          "durationTicks": 120,
          "midi": 88,
          "name": "E6",
          "ticks": 155520,
          "time": 110.454435,
          "velocity": 0.30708661417322836
        },
        {
          "duration": 0.0852271874999957,
          "durationTicks": 120,
          "midi": 69,
          "name": "A4",
          "ticks": 155520,
          "time": 110.454435,
          "velocity": 0.30708661417322836
        },
        {
          "duration": 0.0852271874999957,
          "durationTicks": 120,
          "midi": 76,
          "name": "E5",
          "ticks": 155520,
          "time": 110.454435,
          "velocity": 0.30708661417322836
        },
        {
          "duration": 0.0852271874999957,
          "durationTicks": 120,
          "midi": 69,
          "name": "A4",
          "ticks": 155616,
          "time": 110.52261675,
          "velocity": 0.30708661417322836
        },
        {
          "duration": 0.0852271874999957,
          "durationTicks": 120,
          "midi": 76,
          "name": "E5",
          "ticks": 155616,
          "time": 110.52261675,
          "velocity": 0.30708661417322836
        },
        {
          "duration": 0.0852271874999957,
          "durationTicks": 120,
          "midi": 72,
          "name": "C5",
          "ticks": 155616,
          "time": 110.52261675,
          "velocity": 0.30708661417322836
        },
        {
          "duration": 0.0852271874999957,
          "durationTicks": 120,
          "midi": 52,
          "name": "E3",
          "ticks": 155616,
          "time": 110.52261675,
          "velocity": 0.30708661417322836
        },
        {
          "duration": 0.0852271874999957,
          "durationTicks": 120,
          "midi": 81,
          "name": "A5",
          "ticks": 155616,
          "time": 110.52261675,
          "velocity": 0.30708661417322836
        },
        {
          "duration": 0.0852271874999957,
          "durationTicks": 120,
          "midi": 48,
          "name": "C3",
          "ticks": 155616,
          "time": 110.52261675,
          "velocity": 0.30708661417322836
        },
        {
          "duration": 0.0852271874999957,
          "durationTicks": 120,
          "midi": 48,
          "name": "C3",
          "ticks": 155616,
          "time": 110.52261675,
          "velocity": 0.30708661417322836
        },
        {
          "duration": 0.0852271874999957,
          "durationTicks": 120,
          "midi": 84,
          "name": "C6",
          "ticks": 155616,
          "time": 110.52261675,
          "velocity": 0.30708661417322836
        },
        {
          "duration": 0.0852271874999957,
          "durationTicks": 120,
          "midi": 84,
          "name": "C6",
          "ticks": 155616,
          "time": 110.52261675,
          "velocity": 0.30708661417322836
        },
        {
          "duration": 0.0852271874999957,
          "durationTicks": 120,
          "midi": 88,
          "name": "E6",
          "ticks": 155616,
          "time": 110.52261675,
          "velocity": 0.30708661417322836
        },
        {
          "duration": 0.0852271874999957,
          "durationTicks": 120,
          "midi": 64,
          "name": "E4",
          "ticks": 155616,
          "time": 110.52261675,
          "velocity": 0.30708661417322836
        },
        {
          "duration": 0.0852271874999957,
          "durationTicks": 120,
          "midi": 69,
          "name": "A4",
          "ticks": 155616,
          "time": 110.52261675,
          "velocity": 0.30708661417322836
        },
        {
          "duration": 0.0852271874999957,
          "durationTicks": 120,
          "midi": 88,
          "name": "E6",
          "ticks": 155616,
          "time": 110.52261675,
          "velocity": 0.30708661417322836
        },
        {
          "duration": 0.0852271874999957,
          "durationTicks": 120,
          "midi": 81,
          "name": "A5",
          "ticks": 155616,
          "time": 110.52261675,
          "velocity": 0.30708661417322836
        },
        {
          "duration": 0.0852271874999957,
          "durationTicks": 120,
          "midi": 76,
          "name": "E5",
          "ticks": 155616,
          "time": 110.52261675,
          "velocity": 0.30708661417322836
        },
        {
          "duration": 0.0852271874999957,
          "durationTicks": 120,
          "midi": 64,
          "name": "E4",
          "ticks": 155616,
          "time": 110.52261675,
          "velocity": 0.30708661417322836
        },
        {
          "duration": 0.0852271874999957,
          "durationTicks": 120,
          "midi": 52,
          "name": "E3",
          "ticks": 155616,
          "time": 110.52261675,
          "velocity": 0.30708661417322836
        },
        {
          "duration": 0.0852271874999957,
          "durationTicks": 120,
          "midi": 72,
          "name": "C5",
          "ticks": 155616,
          "time": 110.52261675,
          "velocity": 0.30708661417322836
        },
        {
          "duration": 0.0852271874999957,
          "durationTicks": 120,
          "midi": 81,
          "name": "A5",
          "ticks": 155640,
          "time": 110.5396621875,
          "velocity": 0.30708661417322836
        },
        {
          "duration": 0.0852271874999957,
          "durationTicks": 120,
          "midi": 48,
          "name": "C3",
          "ticks": 155640,
          "time": 110.5396621875,
          "velocity": 0.30708661417322836
        },
        {
          "duration": 0.0852271874999957,
          "durationTicks": 120,
          "midi": 84,
          "name": "C6",
          "ticks": 155640,
          "time": 110.5396621875,
          "velocity": 0.30708661417322836
        },
        {
          "duration": 0.0852271874999957,
          "durationTicks": 120,
          "midi": 52,
          "name": "E3",
          "ticks": 155640,
          "time": 110.5396621875,
          "velocity": 0.30708661417322836
        },
        {
          "duration": 0.0852271874999957,
          "durationTicks": 120,
          "midi": 88,
          "name": "E6",
          "ticks": 155640,
          "time": 110.5396621875,
          "velocity": 0.30708661417322836
        },
        {
          "duration": 0.0852271874999957,
          "durationTicks": 120,
          "midi": 64,
          "name": "E4",
          "ticks": 155640,
          "time": 110.5396621875,
          "velocity": 0.30708661417322836
        },
        {
          "duration": 0.0852271874999957,
          "durationTicks": 120,
          "midi": 76,
          "name": "E5",
          "ticks": 155640,
          "time": 110.5396621875,
          "velocity": 0.30708661417322836
        },
        {
          "duration": 0.0852271874999957,
          "durationTicks": 120,
          "midi": 72,
          "name": "C5",
          "ticks": 155640,
          "time": 110.5396621875,
          "velocity": 0.30708661417322836
        },
        {
          "duration": 0.0852271874999957,
          "durationTicks": 120,
          "midi": 69,
          "name": "A4",
          "ticks": 155640,
          "time": 110.5396621875,
          "velocity": 0.30708661417322836
        },
        {
          "duration": 0.0852271875000099,
          "durationTicks": 120,
          "midi": 81,
          "name": "A5",
          "ticks": 155736,
          "time": 110.6078439375,
          "velocity": 0.30708661417322836
        },
        {
          "duration": 0.0852271875000099,
          "durationTicks": 120,
          "midi": 81,
          "name": "A5",
          "ticks": 155736,
          "time": 110.6078439375,
          "velocity": 0.30708661417322836
        },
        {
          "duration": 0.0852271875000099,
          "durationTicks": 120,
          "midi": 72,
          "name": "C5",
          "ticks": 155736,
          "time": 110.6078439375,
          "velocity": 0.30708661417322836
        },
        {
          "duration": 0.0852271875000099,
          "durationTicks": 120,
          "midi": 64,
          "name": "E4",
          "ticks": 155736,
          "time": 110.6078439375,
          "velocity": 0.30708661417322836
        },
        {
          "duration": 0.0852271875000099,
          "durationTicks": 120,
          "midi": 76,
          "name": "E5",
          "ticks": 155736,
          "time": 110.6078439375,
          "velocity": 0.30708661417322836
        },
        {
          "duration": 0.0852271875000099,
          "durationTicks": 120,
          "midi": 84,
          "name": "C6",
          "ticks": 155736,
          "time": 110.6078439375,
          "velocity": 0.30708661417322836
        },
        {
          "duration": 0.0852271875000099,
          "durationTicks": 120,
          "midi": 64,
          "name": "E4",
          "ticks": 155736,
          "time": 110.6078439375,
          "velocity": 0.30708661417322836
        },
        {
          "duration": 0.0852271875000099,
          "durationTicks": 120,
          "midi": 72,
          "name": "C5",
          "ticks": 155736,
          "time": 110.6078439375,
          "velocity": 0.30708661417322836
        },
        {
          "duration": 0.0852271875000099,
          "durationTicks": 120,
          "midi": 69,
          "name": "A4",
          "ticks": 155736,
          "time": 110.6078439375,
          "velocity": 0.30708661417322836
        },
        {
          "duration": 0.0852271875000099,
          "durationTicks": 120,
          "midi": 88,
          "name": "E6",
          "ticks": 155736,
          "time": 110.6078439375,
          "velocity": 0.30708661417322836
        },
        {
          "duration": 0.0852271875000099,
          "durationTicks": 120,
          "midi": 88,
          "name": "E6",
          "ticks": 155736,
          "time": 110.6078439375,
          "velocity": 0.30708661417322836
        },
        {
          "duration": 0.0852271875000099,
          "durationTicks": 120,
          "midi": 84,
          "name": "C6",
          "ticks": 155736,
          "time": 110.6078439375,
          "velocity": 0.30708661417322836
        },
        {
          "duration": 0.0852271875000099,
          "durationTicks": 120,
          "midi": 69,
          "name": "A4",
          "ticks": 155736,
          "time": 110.6078439375,
          "velocity": 0.30708661417322836
        },
        {
          "duration": 0.0852271875000099,
          "durationTicks": 120,
          "midi": 76,
          "name": "E5",
          "ticks": 155736,
          "time": 110.6078439375,
          "velocity": 0.30708661417322836
        },
        {
          "duration": 0.0852271875000099,
          "durationTicks": 120,
          "midi": 76,
          "name": "E5",
          "ticks": 155760,
          "time": 110.624889375,
          "velocity": 0.30708661417322836
        },
        {
          "duration": 0.0852271875000099,
          "durationTicks": 120,
          "midi": 69,
          "name": "A4",
          "ticks": 155760,
          "time": 110.624889375,
          "velocity": 0.30708661417322836
        },
        {
          "duration": 0.0852271875000099,
          "durationTicks": 120,
          "midi": 64,
          "name": "E4",
          "ticks": 155760,
          "time": 110.624889375,
          "velocity": 0.30708661417322836
        },
        {
          "duration": 0.0852271875000099,
          "durationTicks": 120,
          "midi": 72,
          "name": "C5",
          "ticks": 155760,
          "time": 110.624889375,
          "velocity": 0.30708661417322836
        },
        {
          "duration": 0.0852271875000099,
          "durationTicks": 120,
          "midi": 84,
          "name": "C6",
          "ticks": 155760,
          "time": 110.624889375,
          "velocity": 0.30708661417322836
        },
        {
          "duration": 0.0852271875000099,
          "durationTicks": 120,
          "midi": 88,
          "name": "E6",
          "ticks": 155760,
          "time": 110.624889375,
          "velocity": 0.30708661417322836
        },
        {
          "duration": 0.0852271875000099,
          "durationTicks": 120,
          "midi": 81,
          "name": "A5",
          "ticks": 155760,
          "time": 110.624889375,
          "velocity": 0.30708661417322836
        },
        {
          "duration": 0.0852271874999957,
          "durationTicks": 120,
          "midi": 84,
          "name": "C6",
          "ticks": 155856,
          "time": 110.693071125,
          "velocity": 0.30708661417322836
        },
        {
          "duration": 0.0852271874999957,
          "durationTicks": 120,
          "midi": 40,
          "name": "E2",
          "ticks": 155856,
          "time": 110.693071125,
          "velocity": 0.30708661417322836
        },
        {
          "duration": 0.0852271874999957,
          "durationTicks": 120,
          "midi": 64,
          "name": "E4",
          "ticks": 155856,
          "time": 110.693071125,
          "velocity": 0.30708661417322836
        },
        {
          "duration": 0.0852271874999957,
          "durationTicks": 120,
          "midi": 72,
          "name": "C5",
          "ticks": 155856,
          "time": 110.693071125,
          "velocity": 0.30708661417322836
        },
        {
          "duration": 0.0852271874999957,
          "durationTicks": 120,
          "midi": 76,
          "name": "E5",
          "ticks": 155856,
          "time": 110.693071125,
          "velocity": 0.30708661417322836
        },
        {
          "duration": 0.0852271874999957,
          "durationTicks": 120,
          "midi": 72,
          "name": "C5",
          "ticks": 155856,
          "time": 110.693071125,
          "velocity": 0.30708661417322836
        },
        {
          "duration": 0.0852271874999957,
          "durationTicks": 120,
          "midi": 88,
          "name": "E6",
          "ticks": 155856,
          "time": 110.693071125,
          "velocity": 0.30708661417322836
        },
        {
          "duration": 0.0852271874999957,
          "durationTicks": 120,
          "midi": 69,
          "name": "A4",
          "ticks": 155856,
          "time": 110.693071125,
          "velocity": 0.30708661417322836
        },
        {
          "duration": 0.0852271874999957,
          "durationTicks": 120,
          "midi": 64,
          "name": "E4",
          "ticks": 155856,
          "time": 110.693071125,
          "velocity": 0.30708661417322836
        },
        {
          "duration": 0.0852271874999957,
          "durationTicks": 120,
          "midi": 81,
          "name": "A5",
          "ticks": 155856,
          "time": 110.693071125,
          "velocity": 0.30708661417322836
        },
        {
          "duration": 0.0852271874999957,
          "durationTicks": 120,
          "midi": 76,
          "name": "E5",
          "ticks": 155856,
          "time": 110.693071125,
          "velocity": 0.30708661417322836
        },
        {
          "duration": 0.0852271874999957,
          "durationTicks": 120,
          "midi": 69,
          "name": "A4",
          "ticks": 155856,
          "time": 110.693071125,
          "velocity": 0.30708661417322836
        },
        {
          "duration": 0.0852271874999957,
          "durationTicks": 120,
          "midi": 84,
          "name": "C6",
          "ticks": 155856,
          "time": 110.693071125,
          "velocity": 0.30708661417322836
        },
        {
          "duration": 0.0852271874999957,
          "durationTicks": 120,
          "midi": 88,
          "name": "E6",
          "ticks": 155856,
          "time": 110.693071125,
          "velocity": 0.30708661417322836
        },
        {
          "duration": 0.0852271874999957,
          "durationTicks": 120,
          "midi": 81,
          "name": "A5",
          "ticks": 155856,
          "time": 110.693071125,
          "velocity": 0.30708661417322836
        },
        {
          "duration": 0.0852271874999957,
          "durationTicks": 120,
          "midi": 40,
          "name": "E2",
          "ticks": 155856,
          "time": 110.693071125,
          "velocity": 0.30708661417322836
        },
        {
          "duration": 0.0852271874999957,
          "durationTicks": 120,
          "midi": 81,
          "name": "A5",
          "ticks": 155880,
          "time": 110.7101165625,
          "velocity": 0.30708661417322836
        },
        {
          "duration": 0.0852271874999957,
          "durationTicks": 120,
          "midi": 69,
          "name": "A4",
          "ticks": 155880,
          "time": 110.7101165625,
          "velocity": 0.30708661417322836
        },
        {
          "duration": 0.0852271874999957,
          "durationTicks": 120,
          "midi": 76,
          "name": "E5",
          "ticks": 155880,
          "time": 110.7101165625,
          "velocity": 0.30708661417322836
        },
        {
          "duration": 0.0852271874999957,
          "durationTicks": 120,
          "midi": 84,
          "name": "C6",
          "ticks": 155880,
          "time": 110.7101165625,
          "velocity": 0.30708661417322836
        },
        {
          "duration": 0.0852271874999957,
          "durationTicks": 120,
          "midi": 72,
          "name": "C5",
          "ticks": 155880,
          "time": 110.7101165625,
          "velocity": 0.30708661417322836
        },
        {
          "duration": 0.0852271874999957,
          "durationTicks": 120,
          "midi": 40,
          "name": "E2",
          "ticks": 155880,
          "time": 110.7101165625,
          "velocity": 0.30708661417322836
        },
        {
          "duration": 0.0852271874999957,
          "durationTicks": 120,
          "midi": 88,
          "name": "E6",
          "ticks": 155880,
          "time": 110.7101165625,
          "velocity": 0.30708661417322836
        },
        {
          "duration": 0.0852271874999957,
          "durationTicks": 120,
          "midi": 64,
          "name": "E4",
          "ticks": 155880,
          "time": 110.7101165625,
          "velocity": 0.30708661417322836
        },
        {
          "duration": 0.0852271874999957,
          "durationTicks": 120,
          "midi": 88,
          "name": "E6",
          "ticks": 155976,
          "time": 110.7782983125,
          "velocity": 0.30708661417322836
        },
        {
          "duration": 0.0852271874999957,
          "durationTicks": 120,
          "midi": 76,
          "name": "E5",
          "ticks": 155976,
          "time": 110.7782983125,
          "velocity": 0.30708661417322836
        },
        {
          "duration": 0.0852271874999957,
          "durationTicks": 120,
          "midi": 69,
          "name": "A4",
          "ticks": 155976,
          "time": 110.7782983125,
          "velocity": 0.30708661417322836
        },
        {
          "duration": 0.0852271874999957,
          "durationTicks": 120,
          "midi": 88,
          "name": "E6",
          "ticks": 155976,
          "time": 110.7782983125,
          "velocity": 0.30708661417322836
        },
        {
          "duration": 0.0852271874999957,
          "durationTicks": 120,
          "midi": 81,
          "name": "A5",
          "ticks": 155976,
          "time": 110.7782983125,
          "velocity": 0.30708661417322836
        },
        {
          "duration": 0.0852271874999957,
          "durationTicks": 120,
          "midi": 64,
          "name": "E4",
          "ticks": 155976,
          "time": 110.7782983125,
          "velocity": 0.30708661417322836
        },
        {
          "duration": 0.0852271874999957,
          "durationTicks": 120,
          "midi": 64,
          "name": "E4",
          "ticks": 155976,
          "time": 110.7782983125,
          "velocity": 0.30708661417322836
        },
        {
          "duration": 0.0852271874999957,
          "durationTicks": 120,
          "midi": 72,
          "name": "C5",
          "ticks": 155976,
          "time": 110.7782983125,
          "velocity": 0.30708661417322836
        },
        {
          "duration": 0.0852271874999957,
          "durationTicks": 120,
          "midi": 84,
          "name": "C6",
          "ticks": 155976,
          "time": 110.7782983125,
          "velocity": 0.30708661417322836
        },
        {
          "duration": 0.0852271874999957,
          "durationTicks": 120,
          "midi": 81,
          "name": "A5",
          "ticks": 155976,
          "time": 110.7782983125,
          "velocity": 0.30708661417322836
        },
        {
          "duration": 0.0852271874999957,
          "durationTicks": 120,
          "midi": 72,
          "name": "C5",
          "ticks": 155976,
          "time": 110.7782983125,
          "velocity": 0.30708661417322836
        },
        {
          "duration": 0.0852271874999957,
          "durationTicks": 120,
          "midi": 69,
          "name": "A4",
          "ticks": 155976,
          "time": 110.7782983125,
          "velocity": 0.30708661417322836
        },
        {
          "duration": 0.0852271874999957,
          "durationTicks": 120,
          "midi": 84,
          "name": "C6",
          "ticks": 155976,
          "time": 110.7782983125,
          "velocity": 0.30708661417322836
        },
        {
          "duration": 0.0852271874999957,
          "durationTicks": 120,
          "midi": 76,
          "name": "E5",
          "ticks": 155976,
          "time": 110.7782983125,
          "velocity": 0.30708661417322836
        },
        {
          "duration": 0.0852271874999957,
          "durationTicks": 120,
          "midi": 81,
          "name": "A5",
          "ticks": 156000,
          "time": 110.79534375,
          "velocity": 0.30708661417322836
        },
        {
          "duration": 0.0852271874999957,
          "durationTicks": 120,
          "midi": 76,
          "name": "E5",
          "ticks": 156000,
          "time": 110.79534375,
          "velocity": 0.30708661417322836
        },
        {
          "duration": 0.0852271874999957,
          "durationTicks": 120,
          "midi": 84,
          "name": "C6",
          "ticks": 156000,
          "time": 110.79534375,
          "velocity": 0.30708661417322836
        },
        {
          "duration": 0.0852271874999957,
          "durationTicks": 120,
          "midi": 69,
          "name": "A4",
          "ticks": 156000,
          "time": 110.79534375,
          "velocity": 0.30708661417322836
        },
        {
          "duration": 0.0852271874999957,
          "durationTicks": 120,
          "midi": 88,
          "name": "E6",
          "ticks": 156000,
          "time": 110.79534375,
          "velocity": 0.30708661417322836
        },
        {
          "duration": 0.0852271874999957,
          "durationTicks": 120,
          "midi": 72,
          "name": "C5",
          "ticks": 156000,
          "time": 110.79534375,
          "velocity": 0.30708661417322836
        },
        {
          "duration": 0.0852271874999957,
          "durationTicks": 120,
          "midi": 64,
          "name": "E4",
          "ticks": 156000,
          "time": 110.79534375,
          "velocity": 0.30708661417322836
        },
        {
          "duration": 0.0852271875000099,
          "durationTicks": 120,
          "midi": 52,
          "name": "E3",
          "ticks": 156096,
          "time": 110.8635255,
          "velocity": 0.30708661417322836
        },
        {
          "duration": 0.0852271875000099,
          "durationTicks": 120,
          "midi": 72,
          "name": "C5",
          "ticks": 156096,
          "time": 110.8635255,
          "velocity": 0.30708661417322836
        },
        {
          "duration": 0.0852271875000099,
          "durationTicks": 120,
          "midi": 84,
          "name": "C6",
          "ticks": 156096,
          "time": 110.8635255,
          "velocity": 0.30708661417322836
        },
        {
          "duration": 0.0852271875000099,
          "durationTicks": 120,
          "midi": 64,
          "name": "E4",
          "ticks": 156096,
          "time": 110.8635255,
          "velocity": 0.30708661417322836
        },
        {
          "duration": 0.0852271875000099,
          "durationTicks": 120,
          "midi": 81,
          "name": "A5",
          "ticks": 156096,
          "time": 110.8635255,
          "velocity": 0.30708661417322836
        },
        {
          "duration": 0.0852271875000099,
          "durationTicks": 120,
          "midi": 88,
          "name": "E6",
          "ticks": 156096,
          "time": 110.8635255,
          "velocity": 0.30708661417322836
        },
        {
          "duration": 0.0852271875000099,
          "durationTicks": 120,
          "midi": 48,
          "name": "C3",
          "ticks": 156096,
          "time": 110.8635255,
          "velocity": 0.30708661417322836
        },
        {
          "duration": 0.0852271875000099,
          "durationTicks": 120,
          "midi": 81,
          "name": "A5",
          "ticks": 156096,
          "time": 110.8635255,
          "velocity": 0.30708661417322836
        },
        {
          "duration": 0.0852271875000099,
          "durationTicks": 120,
          "midi": 52,
          "name": "E3",
          "ticks": 156096,
          "time": 110.8635255,
          "velocity": 0.30708661417322836
        },
        {
          "duration": 0.0852271875000099,
          "durationTicks": 120,
          "midi": 48,
          "name": "C3",
          "ticks": 156096,
          "time": 110.8635255,
          "velocity": 0.30708661417322836
        },
        {
          "duration": 0.0852271875000099,
          "durationTicks": 120,
          "midi": 84,
          "name": "C6",
          "ticks": 156096,
          "time": 110.8635255,
          "velocity": 0.30708661417322836
        },
        {
          "duration": 0.0852271875000099,
          "durationTicks": 120,
          "midi": 69,
          "name": "A4",
          "ticks": 156096,
          "time": 110.8635255,
          "velocity": 0.30708661417322836
        },
        {
          "duration": 0.0852271875000099,
          "durationTicks": 120,
          "midi": 64,
          "name": "E4",
          "ticks": 156096,
          "time": 110.8635255,
          "velocity": 0.30708661417322836
        },
        {
          "duration": 0.0852271875000099,
          "durationTicks": 120,
          "midi": 76,
          "name": "E5",
          "ticks": 156096,
          "time": 110.8635255,
          "velocity": 0.30708661417322836
        },
        {
          "duration": 0.0852271875000099,
          "durationTicks": 120,
          "midi": 72,
          "name": "C5",
          "ticks": 156096,
          "time": 110.8635255,
          "velocity": 0.30708661417322836
        },
        {
          "duration": 0.0852271875000099,
          "durationTicks": 120,
          "midi": 69,
          "name": "A4",
          "ticks": 156096,
          "time": 110.8635255,
          "velocity": 0.30708661417322836
        },
        {
          "duration": 0.0852271875000099,
          "durationTicks": 120,
          "midi": 76,
          "name": "E5",
          "ticks": 156096,
          "time": 110.8635255,
          "velocity": 0.30708661417322836
        },
        {
          "duration": 0.0852271875000099,
          "durationTicks": 120,
          "midi": 88,
          "name": "E6",
          "ticks": 156096,
          "time": 110.8635255,
          "velocity": 0.30708661417322836
        },
        {
          "duration": 0.0852271874999957,
          "durationTicks": 120,
          "midi": 84,
          "name": "C6",
          "ticks": 156120,
          "time": 110.8805709375,
          "velocity": 0.30708661417322836
        },
        {
          "duration": 0.0852271874999957,
          "durationTicks": 120,
          "midi": 52,
          "name": "E3",
          "ticks": 156120,
          "time": 110.8805709375,
          "velocity": 0.30708661417322836
        },
        {
          "duration": 0.0852271874999957,
          "durationTicks": 120,
          "midi": 76,
          "name": "E5",
          "ticks": 156120,
          "time": 110.8805709375,
          "velocity": 0.30708661417322836
        },
        {
          "duration": 0.0852271874999957,
          "durationTicks": 120,
          "midi": 81,
          "name": "A5",
          "ticks": 156120,
          "time": 110.8805709375,
          "velocity": 0.30708661417322836
        },
        {
          "duration": 0.0852271874999957,
          "durationTicks": 120,
          "midi": 88,
          "name": "E6",
          "ticks": 156120,
          "time": 110.8805709375,
          "velocity": 0.30708661417322836
        },
        {
          "duration": 0.0852271874999957,
          "durationTicks": 120,
          "midi": 69,
          "name": "A4",
          "ticks": 156120,
          "time": 110.8805709375,
          "velocity": 0.30708661417322836
        },
        {
          "duration": 0.0852271874999957,
          "durationTicks": 120,
          "midi": 48,
          "name": "C3",
          "ticks": 156120,
          "time": 110.8805709375,
          "velocity": 0.30708661417322836
        },
        {
          "duration": 0.0852271874999957,
          "durationTicks": 120,
          "midi": 72,
          "name": "C5",
          "ticks": 156120,
          "time": 110.8805709375,
          "velocity": 0.30708661417322836
        },
        {
          "duration": 0.0852271874999957,
          "durationTicks": 120,
          "midi": 64,
          "name": "E4",
          "ticks": 156120,
          "time": 110.8805709375,
          "velocity": 0.30708661417322836
        },
        {
          "duration": 0.0852271874999957,
          "durationTicks": 120,
          "midi": 72,
          "name": "C5",
          "ticks": 156216,
          "time": 110.9487526875,
          "velocity": 0.30708661417322836
        },
        {
          "duration": 0.0852271874999957,
          "durationTicks": 120,
          "midi": 81,
          "name": "A5",
          "ticks": 156216,
          "time": 110.9487526875,
          "velocity": 0.30708661417322836
        },
        {
          "duration": 0.0852271874999957,
          "durationTicks": 120,
          "midi": 69,
          "name": "A4",
          "ticks": 156216,
          "time": 110.9487526875,
          "velocity": 0.30708661417322836
        },
        {
          "duration": 0.0852271874999957,
          "durationTicks": 120,
          "midi": 81,
          "name": "A5",
          "ticks": 156216,
          "time": 110.9487526875,
          "velocity": 0.30708661417322836
        },
        {
          "duration": 0.0852271874999957,
          "durationTicks": 120,
          "midi": 76,
          "name": "E5",
          "ticks": 156216,
          "time": 110.9487526875,
          "velocity": 0.30708661417322836
        },
        {
          "duration": 0.0852271874999957,
          "durationTicks": 120,
          "midi": 64,
          "name": "E4",
          "ticks": 156216,
          "time": 110.9487526875,
          "velocity": 0.30708661417322836
        },
        {
          "duration": 0.0852271874999957,
          "durationTicks": 120,
          "midi": 88,
          "name": "E6",
          "ticks": 156216,
          "time": 110.9487526875,
          "velocity": 0.30708661417322836
        },
        {
          "duration": 0.0852271874999957,
          "durationTicks": 120,
          "midi": 84,
          "name": "C6",
          "ticks": 156216,
          "time": 110.9487526875,
          "velocity": 0.30708661417322836
        },
        {
          "duration": 0.0852271874999957,
          "durationTicks": 120,
          "midi": 72,
          "name": "C5",
          "ticks": 156216,
          "time": 110.9487526875,
          "velocity": 0.30708661417322836
        },
        {
          "duration": 0.0852271874999957,
          "durationTicks": 120,
          "midi": 64,
          "name": "E4",
          "ticks": 156216,
          "time": 110.9487526875,
          "velocity": 0.30708661417322836
        },
        {
          "duration": 0.0852271874999957,
          "durationTicks": 120,
          "midi": 84,
          "name": "C6",
          "ticks": 156216,
          "time": 110.9487526875,
          "velocity": 0.30708661417322836
        },
        {
          "duration": 0.0852271874999957,
          "durationTicks": 120,
          "midi": 76,
          "name": "E5",
          "ticks": 156216,
          "time": 110.9487526875,
          "velocity": 0.30708661417322836
        },
        {
          "duration": 0.0852271874999957,
          "durationTicks": 120,
          "midi": 69,
          "name": "A4",
          "ticks": 156216,
          "time": 110.9487526875,
          "velocity": 0.30708661417322836
        },
        {
          "duration": 0.0852271874999957,
          "durationTicks": 120,
          "midi": 88,
          "name": "E6",
          "ticks": 156216,
          "time": 110.9487526875,
          "velocity": 0.30708661417322836
        },
        {
          "duration": 0.0852271875000099,
          "durationTicks": 120,
          "midi": 88,
          "name": "E6",
          "ticks": 156240,
          "time": 110.96579812499999,
          "velocity": 0.30708661417322836
        },
        {
          "duration": 0.0852271875000099,
          "durationTicks": 120,
          "midi": 81,
          "name": "A5",
          "ticks": 156240,
          "time": 110.96579812499999,
          "velocity": 0.30708661417322836
        },
        {
          "duration": 0.0852271875000099,
          "durationTicks": 120,
          "midi": 72,
          "name": "C5",
          "ticks": 156240,
          "time": 110.96579812499999,
          "velocity": 0.30708661417322836
        },
        {
          "duration": 0.0852271875000099,
          "durationTicks": 120,
          "midi": 76,
          "name": "E5",
          "ticks": 156240,
          "time": 110.96579812499999,
          "velocity": 0.30708661417322836
        },
        {
          "duration": 0.0852271875000099,
          "durationTicks": 120,
          "midi": 69,
          "name": "A4",
          "ticks": 156240,
          "time": 110.96579812499999,
          "velocity": 0.30708661417322836
        },
        {
          "duration": 0.0852271875000099,
          "durationTicks": 120,
          "midi": 64,
          "name": "E4",
          "ticks": 156240,
          "time": 110.96579812499999,
          "velocity": 0.30708661417322836
        },
        {
          "duration": 0.0852271875000099,
          "durationTicks": 120,
          "midi": 84,
          "name": "C6",
          "ticks": 156240,
          "time": 110.96579812499999,
          "velocity": 0.30708661417322836
        },
        {
          "duration": 0.0852271874999957,
          "durationTicks": 120,
          "midi": 45,
          "name": "A2",
          "ticks": 156336,
          "time": 111.033979875,
          "velocity": 0.30708661417322836
        },
        {
          "duration": 0.0852271874999957,
          "durationTicks": 120,
          "midi": 45,
          "name": "A2",
          "ticks": 156336,
          "time": 111.033979875,
          "velocity": 0.30708661417322836
        },
        {
          "duration": 0.0852271874999957,
          "durationTicks": 120,
          "midi": 72,
          "name": "C5",
          "ticks": 156336,
          "time": 111.033979875,
          "velocity": 0.30708661417322836
        },
        {
          "duration": 0.0852271874999957,
          "durationTicks": 120,
          "midi": 72,
          "name": "C5",
          "ticks": 156336,
          "time": 111.033979875,
          "velocity": 0.30708661417322836
        },
        {
          "duration": 0.0852271874999957,
          "durationTicks": 120,
          "midi": 76,
          "name": "E5",
          "ticks": 156336,
          "time": 111.033979875,
          "velocity": 0.30708661417322836
        },
        {
          "duration": 0.0852271874999957,
          "durationTicks": 120,
          "midi": 64,
          "name": "E4",
          "ticks": 156336,
          "time": 111.033979875,
          "velocity": 0.30708661417322836
        },
        {
          "duration": 0.0852271874999957,
          "durationTicks": 120,
          "midi": 69,
          "name": "A4",
          "ticks": 156336,
          "time": 111.033979875,
          "velocity": 0.30708661417322836
        },
        {
          "duration": 0.0852271874999957,
          "durationTicks": 120,
          "midi": 69,
          "name": "A4",
          "ticks": 156336,
          "time": 111.033979875,
          "velocity": 0.30708661417322836
        },
        {
          "duration": 0.0852271874999957,
          "durationTicks": 120,
          "midi": 81,
          "name": "A5",
          "ticks": 156336,
          "time": 111.033979875,
          "velocity": 0.30708661417322836
        },
        {
          "duration": 0.0852271874999957,
          "durationTicks": 120,
          "midi": 76,
          "name": "E5",
          "ticks": 156336,
          "time": 111.033979875,
          "velocity": 0.30708661417322836
        },
        {
          "duration": 0.0852271874999957,
          "durationTicks": 120,
          "midi": 84,
          "name": "C6",
          "ticks": 156336,
          "time": 111.033979875,
          "velocity": 0.30708661417322836
        },
        {
          "duration": 0.0852271874999957,
          "durationTicks": 120,
          "midi": 84,
          "name": "C6",
          "ticks": 156336,
          "time": 111.033979875,
          "velocity": 0.30708661417322836
        },
        {
          "duration": 0.0852271874999957,
          "durationTicks": 120,
          "midi": 81,
          "name": "A5",
          "ticks": 156336,
          "time": 111.033979875,
          "velocity": 0.30708661417322836
        },
        {
          "duration": 0.0852271874999957,
          "durationTicks": 120,
          "midi": 88,
          "name": "E6",
          "ticks": 156336,
          "time": 111.033979875,
          "velocity": 0.30708661417322836
        },
        {
          "duration": 0.0852271874999957,
          "durationTicks": 120,
          "midi": 88,
          "name": "E6",
          "ticks": 156336,
          "time": 111.033979875,
          "velocity": 0.30708661417322836
        },
        {
          "duration": 0.0852271874999957,
          "durationTicks": 120,
          "midi": 64,
          "name": "E4",
          "ticks": 156336,
          "time": 111.033979875,
          "velocity": 0.30708661417322836
        },
        {
          "duration": 0.0852271874999957,
          "durationTicks": 120,
          "midi": 64,
          "name": "E4",
          "ticks": 156360,
          "time": 111.0510253125,
          "velocity": 0.30708661417322836
        },
        {
          "duration": 0.0852271874999957,
          "durationTicks": 120,
          "midi": 81,
          "name": "A5",
          "ticks": 156360,
          "time": 111.0510253125,
          "velocity": 0.30708661417322836
        },
        {
          "duration": 0.0852271874999957,
          "durationTicks": 120,
          "midi": 88,
          "name": "E6",
          "ticks": 156360,
          "time": 111.0510253125,
          "velocity": 0.30708661417322836
        },
        {
          "duration": 0.0852271874999957,
          "durationTicks": 120,
          "midi": 72,
          "name": "C5",
          "ticks": 156360,
          "time": 111.0510253125,
          "velocity": 0.30708661417322836
        },
        {
          "duration": 0.0852271874999957,
          "durationTicks": 120,
          "midi": 76,
          "name": "E5",
          "ticks": 156360,
          "time": 111.0510253125,
          "velocity": 0.30708661417322836
        },
        {
          "duration": 0.0852271874999957,
          "durationTicks": 120,
          "midi": 84,
          "name": "C6",
          "ticks": 156360,
          "time": 111.0510253125,
          "velocity": 0.30708661417322836
        },
        {
          "duration": 0.0852271874999957,
          "durationTicks": 120,
          "midi": 69,
          "name": "A4",
          "ticks": 156360,
          "time": 111.0510253125,
          "velocity": 0.30708661417322836
        },
        {
          "duration": 0.0852271874999957,
          "durationTicks": 120,
          "midi": 45,
          "name": "A2",
          "ticks": 156360,
          "time": 111.0510253125,
          "velocity": 0.30708661417322836
        },
        {
          "duration": 0.0852271875000099,
          "durationTicks": 120,
          "midi": 76,
          "name": "E5",
          "ticks": 156456,
          "time": 111.1192070625,
          "velocity": 0.30708661417322836
        },
        {
          "duration": 0.0852271875000099,
          "durationTicks": 120,
          "midi": 81,
          "name": "A5",
          "ticks": 156456,
          "time": 111.1192070625,
          "velocity": 0.30708661417322836
        },
        {
          "duration": 0.0852271875000099,
          "durationTicks": 120,
          "midi": 72,
          "name": "C5",
          "ticks": 156456,
          "time": 111.1192070625,
          "velocity": 0.30708661417322836
        },
        {
          "duration": 0.0852271875000099,
          "durationTicks": 120,
          "midi": 88,
          "name": "E6",
          "ticks": 156456,
          "time": 111.1192070625,
          "velocity": 0.30708661417322836
        },
        {
          "duration": 0.0852271875000099,
          "durationTicks": 120,
          "midi": 88,
          "name": "E6",
          "ticks": 156456,
          "time": 111.1192070625,
          "velocity": 0.30708661417322836
        },
        {
          "duration": 0.0852271875000099,
          "durationTicks": 120,
          "midi": 64,
          "name": "E4",
          "ticks": 156456,
          "time": 111.1192070625,
          "velocity": 0.30708661417322836
        },
        {
          "duration": 0.0852271875000099,
          "durationTicks": 120,
          "midi": 69,
          "name": "A4",
          "ticks": 156456,
          "time": 111.1192070625,
          "velocity": 0.30708661417322836
        },
        {
          "duration": 0.0852271875000099,
          "durationTicks": 120,
          "midi": 64,
          "name": "E4",
          "ticks": 156456,
          "time": 111.1192070625,
          "velocity": 0.30708661417322836
        },
        {
          "duration": 0.0852271875000099,
          "durationTicks": 120,
          "midi": 81,
          "name": "A5",
          "ticks": 156456,
          "time": 111.1192070625,
          "velocity": 0.30708661417322836
        },
        {
          "duration": 0.0852271875000099,
          "durationTicks": 120,
          "midi": 69,
          "name": "A4",
          "ticks": 156456,
          "time": 111.1192070625,
          "velocity": 0.30708661417322836
        },
        {
          "duration": 0.0852271875000099,
          "durationTicks": 120,
          "midi": 84,
          "name": "C6",
          "ticks": 156456,
          "time": 111.1192070625,
          "velocity": 0.30708661417322836
        },
        {
          "duration": 0.0852271875000099,
          "durationTicks": 120,
          "midi": 72,
          "name": "C5",
          "ticks": 156456,
          "time": 111.1192070625,
          "velocity": 0.30708661417322836
        },
        {
          "duration": 0.0852271875000099,
          "durationTicks": 120,
          "midi": 76,
          "name": "E5",
          "ticks": 156456,
          "time": 111.1192070625,
          "velocity": 0.30708661417322836
        },
        {
          "duration": 0.0852271875000099,
          "durationTicks": 120,
          "midi": 84,
          "name": "C6",
          "ticks": 156456,
          "time": 111.1192070625,
          "velocity": 0.30708661417322836
        },
        {
          "duration": 0.0852271874999957,
          "durationTicks": 120,
          "midi": 76,
          "name": "E5",
          "ticks": 156480,
          "time": 111.1362525,
          "velocity": 0.30708661417322836
        },
        {
          "duration": 0.0852271874999957,
          "durationTicks": 120,
          "midi": 81,
          "name": "A5",
          "ticks": 156480,
          "time": 111.1362525,
          "velocity": 0.30708661417322836
        },
        {
          "duration": 0.0852271874999957,
          "durationTicks": 120,
          "midi": 72,
          "name": "C5",
          "ticks": 156480,
          "time": 111.1362525,
          "velocity": 0.30708661417322836
        },
        {
          "duration": 0.0852271874999957,
          "durationTicks": 120,
          "midi": 84,
          "name": "C6",
          "ticks": 156480,
          "time": 111.1362525,
          "velocity": 0.30708661417322836
        },
        {
          "duration": 0.0852271874999957,
          "durationTicks": 120,
          "midi": 88,
          "name": "E6",
          "ticks": 156480,
          "time": 111.1362525,
          "velocity": 0.30708661417322836
        },
        {
          "duration": 0.0852271874999957,
          "durationTicks": 120,
          "midi": 64,
          "name": "E4",
          "ticks": 156480,
          "time": 111.1362525,
          "velocity": 0.30708661417322836
        },
        {
          "duration": 0.0852271874999957,
          "durationTicks": 120,
          "midi": 69,
          "name": "A4",
          "ticks": 156480,
          "time": 111.1362525,
          "velocity": 0.30708661417322836
        },
        {
          "duration": 0.0852271874999957,
          "durationTicks": 120,
          "midi": 84,
          "name": "C6",
          "ticks": 156576,
          "time": 111.20443425,
          "velocity": 0.30708661417322836
        },
        {
          "duration": 0.0852271874999957,
          "durationTicks": 120,
          "midi": 84,
          "name": "C6",
          "ticks": 156576,
          "time": 111.20443425,
          "velocity": 0.30708661417322836
        },
        {
          "duration": 0.0852271874999957,
          "durationTicks": 120,
          "midi": 88,
          "name": "E6",
          "ticks": 156576,
          "time": 111.20443425,
          "velocity": 0.30708661417322836
        },
        {
          "duration": 0.0852271874999957,
          "durationTicks": 120,
          "midi": 52,
          "name": "E3",
          "ticks": 156576,
          "time": 111.20443425,
          "velocity": 0.30708661417322836
        },
        {
          "duration": 0.0852271874999957,
          "durationTicks": 120,
          "midi": 69,
          "name": "A4",
          "ticks": 156576,
          "time": 111.20443425,
          "velocity": 0.30708661417322836
        },
        {
          "duration": 0.0852271874999957,
          "durationTicks": 120,
          "midi": 48,
          "name": "C3",
          "ticks": 156576,
          "time": 111.20443425,
          "velocity": 0.30708661417322836
        },
        {
          "duration": 0.0852271874999957,
          "durationTicks": 120,
          "midi": 64,
          "name": "E4",
          "ticks": 156576,
          "time": 111.20443425,
          "velocity": 0.30708661417322836
        },
        {
          "duration": 0.0852271874999957,
          "durationTicks": 120,
          "midi": 48,
          "name": "C3",
          "ticks": 156576,
          "time": 111.20443425,
          "velocity": 0.30708661417322836
        },
        {
          "duration": 0.0852271874999957,
          "durationTicks": 120,
          "midi": 69,
          "name": "A4",
          "ticks": 156576,
          "time": 111.20443425,
          "velocity": 0.30708661417322836
        },
        {
          "duration": 0.0852271874999957,
          "durationTicks": 120,
          "midi": 64,
          "name": "E4",
          "ticks": 156576,
          "time": 111.20443425,
          "velocity": 0.30708661417322836
        },
        {
          "duration": 0.0852271874999957,
          "durationTicks": 120,
          "midi": 88,
          "name": "E6",
          "ticks": 156576,
          "time": 111.20443425,
          "velocity": 0.30708661417322836
        },
        {
          "duration": 0.0852271874999957,
          "durationTicks": 120,
          "midi": 72,
          "name": "C5",
          "ticks": 156576,
          "time": 111.20443425,
          "velocity": 0.30708661417322836
        },
        {
          "duration": 0.0852271874999957,
          "durationTicks": 120,
          "midi": 72,
          "name": "C5",
          "ticks": 156576,
          "time": 111.20443425,
          "velocity": 0.30708661417322836
        },
        {
          "duration": 0.0852271874999957,
          "durationTicks": 120,
          "midi": 81,
          "name": "A5",
          "ticks": 156576,
          "time": 111.20443425,
          "velocity": 0.30708661417322836
        },
        {
          "duration": 0.0852271874999957,
          "durationTicks": 120,
          "midi": 76,
          "name": "E5",
          "ticks": 156576,
          "time": 111.20443425,
          "velocity": 0.30708661417322836
        },
        {
          "duration": 0.0852271874999957,
          "durationTicks": 120,
          "midi": 81,
          "name": "A5",
          "ticks": 156576,
          "time": 111.20443425,
          "velocity": 0.30708661417322836
        },
        {
          "duration": 0.0852271874999957,
          "durationTicks": 120,
          "midi": 52,
          "name": "E3",
          "ticks": 156576,
          "time": 111.20443425,
          "velocity": 0.30708661417322836
        },
        {
          "duration": 0.0852271874999957,
          "durationTicks": 120,
          "midi": 76,
          "name": "E5",
          "ticks": 156576,
          "time": 111.20443425,
          "velocity": 0.30708661417322836
        },
        {
          "duration": 0.0852271875000099,
          "durationTicks": 120,
          "midi": 48,
          "name": "C3",
          "ticks": 156600,
          "time": 111.2214796875,
          "velocity": 0.30708661417322836
        },
        {
          "duration": 0.0852271875000099,
          "durationTicks": 120,
          "midi": 81,
          "name": "A5",
          "ticks": 156600,
          "time": 111.2214796875,
          "velocity": 0.30708661417322836
        },
        {
          "duration": 0.0852271875000099,
          "durationTicks": 120,
          "midi": 76,
          "name": "E5",
          "ticks": 156600,
          "time": 111.2214796875,
          "velocity": 0.30708661417322836
        },
        {
          "duration": 0.0852271875000099,
          "durationTicks": 120,
          "midi": 52,
          "name": "E3",
          "ticks": 156600,
          "time": 111.2214796875,
          "velocity": 0.30708661417322836
        },
        {
          "duration": 0.0852271875000099,
          "durationTicks": 120,
          "midi": 84,
          "name": "C6",
          "ticks": 156600,
          "time": 111.2214796875,
          "velocity": 0.30708661417322836
        },
        {
          "duration": 0.0852271875000099,
          "durationTicks": 120,
          "midi": 69,
          "name": "A4",
          "ticks": 156600,
          "time": 111.2214796875,
          "velocity": 0.30708661417322836
        },
        {
          "duration": 0.0852271875000099,
          "durationTicks": 120,
          "midi": 72,
          "name": "C5",
          "ticks": 156600,
          "time": 111.2214796875,
          "velocity": 0.30708661417322836
        },
        {
          "duration": 0.0852271875000099,
          "durationTicks": 120,
          "midi": 88,
          "name": "E6",
          "ticks": 156600,
          "time": 111.2214796875,
          "velocity": 0.30708661417322836
        },
        {
          "duration": 0.0852271875000099,
          "durationTicks": 120,
          "midi": 64,
          "name": "E4",
          "ticks": 156600,
          "time": 111.2214796875,
          "velocity": 0.30708661417322836
        },
        {
          "duration": 0.0852271874999957,
          "durationTicks": 120,
          "midi": 76,
          "name": "E5",
          "ticks": 156696,
          "time": 111.2896614375,
          "velocity": 0.30708661417322836
        },
        {
          "duration": 0.0852271874999957,
          "durationTicks": 120,
          "midi": 84,
          "name": "C6",
          "ticks": 156696,
          "time": 111.2896614375,
          "velocity": 0.30708661417322836
        },
        {
          "duration": 0.0852271874999957,
          "durationTicks": 120,
          "midi": 64,
          "name": "E4",
          "ticks": 156696,
          "time": 111.2896614375,
          "velocity": 0.30708661417322836
        },
        {
          "duration": 0.0852271874999957,
          "durationTicks": 120,
          "midi": 69,
          "name": "A4",
          "ticks": 156696,
          "time": 111.2896614375,
          "velocity": 0.30708661417322836
        },
        {
          "duration": 0.0852271874999957,
          "durationTicks": 120,
          "midi": 88,
          "name": "E6",
          "ticks": 156696,
          "time": 111.2896614375,
          "velocity": 0.30708661417322836
        },
        {
          "duration": 0.0852271874999957,
          "durationTicks": 120,
          "midi": 64,
          "name": "E4",
          "ticks": 156696,
          "time": 111.2896614375,
          "velocity": 0.30708661417322836
        },
        {
          "duration": 0.0852271874999957,
          "durationTicks": 120,
          "midi": 88,
          "name": "E6",
          "ticks": 156696,
          "time": 111.2896614375,
          "velocity": 0.30708661417322836
        },
        {
          "duration": 0.0852271874999957,
          "durationTicks": 120,
          "midi": 81,
          "name": "A5",
          "ticks": 156696,
          "time": 111.2896614375,
          "velocity": 0.30708661417322836
        },
        {
          "duration": 0.0852271874999957,
          "durationTicks": 120,
          "midi": 69,
          "name": "A4",
          "ticks": 156696,
          "time": 111.2896614375,
          "velocity": 0.30708661417322836
        },
        {
          "duration": 0.0852271874999957,
          "durationTicks": 120,
          "midi": 84,
          "name": "C6",
          "ticks": 156696,
          "time": 111.2896614375,
          "velocity": 0.30708661417322836
        },
        {
          "duration": 0.0852271874999957,
          "durationTicks": 120,
          "midi": 72,
          "name": "C5",
          "ticks": 156696,
          "time": 111.2896614375,
          "velocity": 0.30708661417322836
        },
        {
          "duration": 0.0852271874999957,
          "durationTicks": 120,
          "midi": 76,
          "name": "E5",
          "ticks": 156696,
          "time": 111.2896614375,
          "velocity": 0.30708661417322836
        },
        {
          "duration": 0.0852271874999957,
          "durationTicks": 120,
          "midi": 72,
          "name": "C5",
          "ticks": 156696,
          "time": 111.2896614375,
          "velocity": 0.30708661417322836
        },
        {
          "duration": 0.0852271874999957,
          "durationTicks": 120,
          "midi": 81,
          "name": "A5",
          "ticks": 156696,
          "time": 111.2896614375,
          "velocity": 0.30708661417322836
        },
        {
          "duration": 0.0852271874999957,
          "durationTicks": 120,
          "midi": 72,
          "name": "C5",
          "ticks": 156720,
          "time": 111.306706875,
          "velocity": 0.30708661417322836
        },
        {
          "duration": 0.0852271874999957,
          "durationTicks": 120,
          "midi": 69,
          "name": "A4",
          "ticks": 156720,
          "time": 111.306706875,
          "velocity": 0.30708661417322836
        },
        {
          "duration": 0.0852271874999957,
          "durationTicks": 120,
          "midi": 76,
          "name": "E5",
          "ticks": 156720,
          "time": 111.306706875,
          "velocity": 0.30708661417322836
        },
        {
          "duration": 0.0852271874999957,
          "durationTicks": 120,
          "midi": 81,
          "name": "A5",
          "ticks": 156720,
          "time": 111.306706875,
          "velocity": 0.30708661417322836
        },
        {
          "duration": 0.0852271874999957,
          "durationTicks": 120,
          "midi": 84,
          "name": "C6",
          "ticks": 156720,
          "time": 111.306706875,
          "velocity": 0.30708661417322836
        },
        {
          "duration": 0.0852271874999957,
          "durationTicks": 120,
          "midi": 88,
          "name": "E6",
          "ticks": 156720,
          "time": 111.306706875,
          "velocity": 0.30708661417322836
        },
        {
          "duration": 0.0852271874999957,
          "durationTicks": 120,
          "midi": 64,
          "name": "E4",
          "ticks": 156720,
          "time": 111.306706875,
          "velocity": 0.30708661417322836
        },
        {
          "duration": 0.0852271874999957,
          "durationTicks": 120,
          "midi": 84,
          "name": "C6",
          "ticks": 156816,
          "time": 111.374888625,
          "velocity": 0.30708661417322836
        },
        {
          "duration": 0.0852271874999957,
          "durationTicks": 120,
          "midi": 64,
          "name": "E4",
          "ticks": 156816,
          "time": 111.374888625,
          "velocity": 0.30708661417322836
        },
        {
          "duration": 0.0852271874999957,
          "durationTicks": 120,
          "midi": 88,
          "name": "E6",
          "ticks": 156816,
          "time": 111.374888625,
          "velocity": 0.30708661417322836
        },
        {
          "duration": 0.0852271874999957,
          "durationTicks": 120,
          "midi": 40,
          "name": "E2",
          "ticks": 156816,
          "time": 111.374888625,
          "velocity": 0.30708661417322836
        },
        {
          "duration": 0.0852271874999957,
          "durationTicks": 120,
          "midi": 81,
          "name": "A5",
          "ticks": 156816,
          "time": 111.374888625,
          "velocity": 0.30708661417322836
        },
        {
          "duration": 0.0852271874999957,
          "durationTicks": 120,
          "midi": 76,
          "name": "E5",
          "ticks": 156816,
          "time": 111.374888625,
          "velocity": 0.30708661417322836
        },
        {
          "duration": 0.0852271874999957,
          "durationTicks": 120,
          "midi": 64,
          "name": "E4",
          "ticks": 156816,
          "time": 111.374888625,
          "velocity": 0.30708661417322836
        },
        {
          "duration": 0.0852271874999957,
          "durationTicks": 120,
          "midi": 40,
          "name": "E2",
          "ticks": 156816,
          "time": 111.374888625,
          "velocity": 0.30708661417322836
        },
        {
          "duration": 0.0852271874999957,
          "durationTicks": 120,
          "midi": 88,
          "name": "E6",
          "ticks": 156816,
          "time": 111.374888625,
          "velocity": 0.30708661417322836
        },
        {
          "duration": 0.0852271874999957,
          "durationTicks": 120,
          "midi": 84,
          "name": "C6",
          "ticks": 156816,
          "time": 111.374888625,
          "velocity": 0.30708661417322836
        },
        {
          "duration": 0.0852271874999957,
          "durationTicks": 120,
          "midi": 72,
          "name": "C5",
          "ticks": 156816,
          "time": 111.374888625,
          "velocity": 0.30708661417322836
        },
        {
          "duration": 0.0852271874999957,
          "durationTicks": 120,
          "midi": 72,
          "name": "C5",
          "ticks": 156816,
          "time": 111.374888625,
          "velocity": 0.30708661417322836
        },
        {
          "duration": 0.0852271874999957,
          "durationTicks": 120,
          "midi": 76,
          "name": "E5",
          "ticks": 156816,
          "time": 111.374888625,
          "velocity": 0.30708661417322836
        },
        {
          "duration": 0.0852271874999957,
          "durationTicks": 120,
          "midi": 81,
          "name": "A5",
          "ticks": 156816,
          "time": 111.374888625,
          "velocity": 0.30708661417322836
        },
        {
          "duration": 0.0852271874999957,
          "durationTicks": 120,
          "midi": 69,
          "name": "A4",
          "ticks": 156816,
          "time": 111.374888625,
          "velocity": 0.30708661417322836
        },
        {
          "duration": 0.0852271874999957,
          "durationTicks": 120,
          "midi": 69,
          "name": "A4",
          "ticks": 156816,
          "time": 111.374888625,
          "velocity": 0.30708661417322836
        },
        {
          "duration": 0.0852271874999957,
          "durationTicks": 120,
          "midi": 76,
          "name": "E5",
          "ticks": 156840,
          "time": 111.3919340625,
          "velocity": 0.30708661417322836
        },
        {
          "duration": 0.0852271874999957,
          "durationTicks": 120,
          "midi": 40,
          "name": "E2",
          "ticks": 156840,
          "time": 111.3919340625,
          "velocity": 0.30708661417322836
        },
        {
          "duration": 0.0852271874999957,
          "durationTicks": 120,
          "midi": 88,
          "name": "E6",
          "ticks": 156840,
          "time": 111.3919340625,
          "velocity": 0.30708661417322836
        },
        {
          "duration": 0.0852271874999957,
          "durationTicks": 120,
          "midi": 69,
          "name": "A4",
          "ticks": 156840,
          "time": 111.3919340625,
          "velocity": 0.30708661417322836
        },
        {
          "duration": 0.0852271874999957,
          "durationTicks": 120,
          "midi": 64,
          "name": "E4",
          "ticks": 156840,
          "time": 111.3919340625,
          "velocity": 0.30708661417322836
        },
        {
          "duration": 0.0852271874999957,
          "durationTicks": 120,
          "midi": 84,
          "name": "C6",
          "ticks": 156840,
          "time": 111.3919340625,
          "velocity": 0.30708661417322836
        },
        {
          "duration": 0.0852271874999957,
          "durationTicks": 120,
          "midi": 72,
          "name": "C5",
          "ticks": 156840,
          "time": 111.3919340625,
          "velocity": 0.30708661417322836
        },
        {
          "duration": 0.0852271874999957,
          "durationTicks": 120,
          "midi": 81,
          "name": "A5",
          "ticks": 156840,
          "time": 111.3919340625,
          "velocity": 0.30708661417322836
        },
        {
          "duration": 0.0852271875000099,
          "durationTicks": 120,
          "midi": 88,
          "name": "E6",
          "ticks": 156936,
          "time": 111.46011581249999,
          "velocity": 0.30708661417322836
        },
        {
          "duration": 0.0852271875000099,
          "durationTicks": 120,
          "midi": 84,
          "name": "C6",
          "ticks": 156936,
          "time": 111.46011581249999,
          "velocity": 0.30708661417322836
        },
        {
          "duration": 0.0852271875000099,
          "durationTicks": 120,
          "midi": 76,
          "name": "E5",
          "ticks": 156936,
          "time": 111.46011581249999,
          "velocity": 0.30708661417322836
        },
        {
          "duration": 0.0852271875000099,
          "durationTicks": 120,
          "midi": 69,
          "name": "A4",
          "ticks": 156936,
          "time": 111.46011581249999,
          "velocity": 0.30708661417322836
        },
        {
          "duration": 0.0852271875000099,
          "durationTicks": 120,
          "midi": 72,
          "name": "C5",
          "ticks": 156936,
          "time": 111.46011581249999,
          "velocity": 0.30708661417322836
        },
        {
          "duration": 0.0852271875000099,
          "durationTicks": 120,
          "midi": 64,
          "name": "E4",
          "ticks": 156936,
          "time": 111.46011581249999,
          "velocity": 0.30708661417322836
        },
        {
          "duration": 0.0852271875000099,
          "durationTicks": 120,
          "midi": 81,
          "name": "A5",
          "ticks": 156936,
          "time": 111.46011581249999,
          "velocity": 0.30708661417322836
        },
        {
          "duration": 0.0852271875000099,
          "durationTicks": 120,
          "midi": 88,
          "name": "E6",
          "ticks": 156936,
          "time": 111.46011581249999,
          "velocity": 0.30708661417322836
        },
        {
          "duration": 0.0852271875000099,
          "durationTicks": 120,
          "midi": 76,
          "name": "E5",
          "ticks": 156936,
          "time": 111.46011581249999,
          "velocity": 0.30708661417322836
        },
        {
          "duration": 0.0852271875000099,
          "durationTicks": 120,
          "midi": 64,
          "name": "E4",
          "ticks": 156936,
          "time": 111.46011581249999,
          "velocity": 0.30708661417322836
        },
        {
          "duration": 0.0852271875000099,
          "durationTicks": 120,
          "midi": 72,
          "name": "C5",
          "ticks": 156936,
          "time": 111.46011581249999,
          "velocity": 0.30708661417322836
        },
        {
          "duration": 0.0852271875000099,
          "durationTicks": 120,
          "midi": 84,
          "name": "C6",
          "ticks": 156936,
          "time": 111.46011581249999,
          "velocity": 0.30708661417322836
        },
        {
          "duration": 0.0852271875000099,
          "durationTicks": 120,
          "midi": 81,
          "name": "A5",
          "ticks": 156936,
          "time": 111.46011581249999,
          "velocity": 0.30708661417322836
        },
        {
          "duration": 0.0852271875000099,
          "durationTicks": 120,
          "midi": 69,
          "name": "A4",
          "ticks": 156936,
          "time": 111.46011581249999,
          "velocity": 0.30708661417322836
        },
        {
          "duration": 0.0852271875000099,
          "durationTicks": 120,
          "midi": 69,
          "name": "A4",
          "ticks": 156960,
          "time": 111.47716125,
          "velocity": 0.30708661417322836
        },
        {
          "duration": 0.0852271875000099,
          "durationTicks": 120,
          "midi": 81,
          "name": "A5",
          "ticks": 156960,
          "time": 111.47716125,
          "velocity": 0.30708661417322836
        },
        {
          "duration": 0.0852271875000099,
          "durationTicks": 120,
          "midi": 88,
          "name": "E6",
          "ticks": 156960,
          "time": 111.47716125,
          "velocity": 0.30708661417322836
        },
        {
          "duration": 0.0852271875000099,
          "durationTicks": 120,
          "midi": 84,
          "name": "C6",
          "ticks": 156960,
          "time": 111.47716125,
          "velocity": 0.30708661417322836
        },
        {
          "duration": 0.0852271875000099,
          "durationTicks": 120,
          "midi": 64,
          "name": "E4",
          "ticks": 156960,
          "time": 111.47716125,
          "velocity": 0.30708661417322836
        },
        {
          "duration": 0.0852271875000099,
          "durationTicks": 120,
          "midi": 72,
          "name": "C5",
          "ticks": 156960,
          "time": 111.47716125,
          "velocity": 0.30708661417322836
        },
        {
          "duration": 0.0852271875000099,
          "durationTicks": 120,
          "midi": 76,
          "name": "E5",
          "ticks": 156960,
          "time": 111.47716125,
          "velocity": 0.30708661417322836
        },
        {
          "duration": 0.0852271874999957,
          "durationTicks": 120,
          "midi": 69,
          "name": "A4",
          "ticks": 157056,
          "time": 111.545343,
          "velocity": 0.30708661417322836
        },
        {
          "duration": 0.0852271874999957,
          "durationTicks": 120,
          "midi": 64,
          "name": "E4",
          "ticks": 157056,
          "time": 111.545343,
          "velocity": 0.30708661417322836
        },
        {
          "duration": 0.0852271874999957,
          "durationTicks": 120,
          "midi": 84,
          "name": "C6",
          "ticks": 157056,
          "time": 111.545343,
          "velocity": 0.30708661417322836
        },
        {
          "duration": 0.0852271874999957,
          "durationTicks": 120,
          "midi": 88,
          "name": "E6",
          "ticks": 157056,
          "time": 111.545343,
          "velocity": 0.30708661417322836
        },
        {
          "duration": 0.0852271874999957,
          "durationTicks": 120,
          "midi": 72,
          "name": "C5",
          "ticks": 157056,
          "time": 111.545343,
          "velocity": 0.30708661417322836
        },
        {
          "duration": 0.0852271874999957,
          "durationTicks": 120,
          "midi": 81,
          "name": "A5",
          "ticks": 157056,
          "time": 111.545343,
          "velocity": 0.30708661417322836
        },
        {
          "duration": 0.0852271874999957,
          "durationTicks": 120,
          "midi": 88,
          "name": "E6",
          "ticks": 157056,
          "time": 111.545343,
          "velocity": 0.30708661417322836
        },
        {
          "duration": 0.0852271874999957,
          "durationTicks": 120,
          "midi": 72,
          "name": "C5",
          "ticks": 157056,
          "time": 111.545343,
          "velocity": 0.30708661417322836
        },
        {
          "duration": 0.0852271874999957,
          "durationTicks": 120,
          "midi": 64,
          "name": "E4",
          "ticks": 157056,
          "time": 111.545343,
          "velocity": 0.30708661417322836
        },
        {
          "duration": 0.0852271874999957,
          "durationTicks": 120,
          "midi": 52,
          "name": "E3",
          "ticks": 157056,
          "time": 111.545343,
          "velocity": 0.30708661417322836
        },
        {
          "duration": 0.0852271874999957,
          "durationTicks": 120,
          "midi": 48,
          "name": "C3",
          "ticks": 157056,
          "time": 111.545343,
          "velocity": 0.30708661417322836
        },
        {
          "duration": 0.0852271874999957,
          "durationTicks": 120,
          "midi": 52,
          "name": "E3",
          "ticks": 157056,
          "time": 111.545343,
          "velocity": 0.30708661417322836
        },
        {
          "duration": 0.0852271874999957,
          "durationTicks": 120,
          "midi": 81,
          "name": "A5",
          "ticks": 157056,
          "time": 111.545343,
          "velocity": 0.30708661417322836
        },
        {
          "duration": 0.0852271874999957,
          "durationTicks": 120,
          "midi": 76,
          "name": "E5",
          "ticks": 157056,
          "time": 111.545343,
          "velocity": 0.30708661417322836
        },
        {
          "duration": 0.0852271874999957,
          "durationTicks": 120,
          "midi": 76,
          "name": "E5",
          "ticks": 157056,
          "time": 111.545343,
          "velocity": 0.30708661417322836
        },
        {
          "duration": 0.0852271874999957,
          "durationTicks": 120,
          "midi": 84,
          "name": "C6",
          "ticks": 157056,
          "time": 111.545343,
          "velocity": 0.30708661417322836
        },
        {
          "duration": 0.0852271874999957,
          "durationTicks": 120,
          "midi": 48,
          "name": "C3",
          "ticks": 157056,
          "time": 111.545343,
          "velocity": 0.30708661417322836
        },
        {
          "duration": 0.0852271874999957,
          "durationTicks": 120,
          "midi": 69,
          "name": "A4",
          "ticks": 157056,
          "time": 111.545343,
          "velocity": 0.30708661417322836
        },
        {
          "duration": 0.0852271874999957,
          "durationTicks": 120,
          "midi": 88,
          "name": "E6",
          "ticks": 157080,
          "time": 111.5623884375,
          "velocity": 0.30708661417322836
        },
        {
          "duration": 0.0852271874999957,
          "durationTicks": 120,
          "midi": 69,
          "name": "A4",
          "ticks": 157080,
          "time": 111.5623884375,
          "velocity": 0.30708661417322836
        },
        {
          "duration": 0.0852271874999957,
          "durationTicks": 120,
          "midi": 52,
          "name": "E3",
          "ticks": 157080,
          "time": 111.5623884375,
          "velocity": 0.30708661417322836
        },
        {
          "duration": 0.0852271874999957,
          "durationTicks": 120,
          "midi": 64,
          "name": "E4",
          "ticks": 157080,
          "time": 111.5623884375,
          "velocity": 0.30708661417322836
        },
        {
          "duration": 0.0852271874999957,
          "durationTicks": 120,
          "midi": 72,
          "name": "C5",
          "ticks": 157080,
          "time": 111.5623884375,
          "velocity": 0.30708661417322836
        },
        {
          "duration": 0.0852271874999957,
          "durationTicks": 120,
          "midi": 81,
          "name": "A5",
          "ticks": 157080,
          "time": 111.5623884375,
          "velocity": 0.30708661417322836
        },
        {
          "duration": 0.0852271874999957,
          "durationTicks": 120,
          "midi": 76,
          "name": "E5",
          "ticks": 157080,
          "time": 111.5623884375,
          "velocity": 0.30708661417322836
        },
        {
          "duration": 0.0852271874999957,
          "durationTicks": 120,
          "midi": 84,
          "name": "C6",
          "ticks": 157080,
          "time": 111.5623884375,
          "velocity": 0.30708661417322836
        },
        {
          "duration": 0.0852271874999957,
          "durationTicks": 120,
          "midi": 48,
          "name": "C3",
          "ticks": 157080,
          "time": 111.5623884375,
          "velocity": 0.30708661417322836
        },
        {
          "duration": 0.0852271874999957,
          "durationTicks": 120,
          "midi": 76,
          "name": "E5",
          "ticks": 157176,
          "time": 111.6305701875,
          "velocity": 0.30708661417322836
        },
        {
          "duration": 0.0852271874999957,
          "durationTicks": 120,
          "midi": 84,
          "name": "C6",
          "ticks": 157176,
          "time": 111.6305701875,
          "velocity": 0.30708661417322836
        },
        {
          "duration": 0.0852271874999957,
          "durationTicks": 120,
          "midi": 69,
          "name": "A4",
          "ticks": 157176,
          "time": 111.6305701875,
          "velocity": 0.30708661417322836
        },
        {
          "duration": 0.0852271874999957,
          "durationTicks": 120,
          "midi": 76,
          "name": "E5",
          "ticks": 157176,
          "time": 111.6305701875,
          "velocity": 0.30708661417322836
        },
        {
          "duration": 0.0852271874999957,
          "durationTicks": 120,
          "midi": 72,
          "name": "C5",
          "ticks": 157176,
          "time": 111.6305701875,
          "velocity": 0.30708661417322836
        },
        {
          "duration": 0.0852271874999957,
          "durationTicks": 120,
          "midi": 88,
          "name": "E6",
          "ticks": 157176,
          "time": 111.6305701875,
          "velocity": 0.30708661417322836
        },
        {
          "duration": 0.0852271874999957,
          "durationTicks": 120,
          "midi": 88,
          "name": "E6",
          "ticks": 157176,
          "time": 111.6305701875,
          "velocity": 0.30708661417322836
        },
        {
          "duration": 0.0852271874999957,
          "durationTicks": 120,
          "midi": 72,
          "name": "C5",
          "ticks": 157176,
          "time": 111.6305701875,
          "velocity": 0.30708661417322836
        },
        {
          "duration": 0.0852271874999957,
          "durationTicks": 120,
          "midi": 64,
          "name": "E4",
          "ticks": 157176,
          "time": 111.6305701875,
          "velocity": 0.30708661417322836
        },
        {
          "duration": 0.0852271874999957,
          "durationTicks": 120,
          "midi": 84,
          "name": "C6",
          "ticks": 157176,
          "time": 111.6305701875,
          "velocity": 0.30708661417322836
        },
        {
          "duration": 0.0852271874999957,
          "durationTicks": 120,
          "midi": 81,
          "name": "A5",
          "ticks": 157176,
          "time": 111.6305701875,
          "velocity": 0.30708661417322836
        },
        {
          "duration": 0.0852271874999957,
          "durationTicks": 120,
          "midi": 81,
          "name": "A5",
          "ticks": 157176,
          "time": 111.6305701875,
          "velocity": 0.30708661417322836
        },
        {
          "duration": 0.0852271874999957,
          "durationTicks": 120,
          "midi": 69,
          "name": "A4",
          "ticks": 157176,
          "time": 111.6305701875,
          "velocity": 0.30708661417322836
        },
        {
          "duration": 0.0852271874999957,
          "durationTicks": 120,
          "midi": 64,
          "name": "E4",
          "ticks": 157176,
          "time": 111.6305701875,
          "velocity": 0.30708661417322836
        },
        {
          "duration": 0.0852271874999957,
          "durationTicks": 120,
          "midi": 72,
          "name": "C5",
          "ticks": 157200,
          "time": 111.647615625,
          "velocity": 0.30708661417322836
        },
        {
          "duration": 0.0852271874999957,
          "durationTicks": 120,
          "midi": 81,
          "name": "A5",
          "ticks": 157200,
          "time": 111.647615625,
          "velocity": 0.30708661417322836
        },
        {
          "duration": 0.0852271874999957,
          "durationTicks": 120,
          "midi": 69,
          "name": "A4",
          "ticks": 157200,
          "time": 111.647615625,
          "velocity": 0.30708661417322836
        },
        {
          "duration": 0.0852271874999957,
          "durationTicks": 120,
          "midi": 84,
          "name": "C6",
          "ticks": 157200,
          "time": 111.647615625,
          "velocity": 0.30708661417322836
        },
        {
          "duration": 0.0852271874999957,
          "durationTicks": 120,
          "midi": 64,
          "name": "E4",
          "ticks": 157200,
          "time": 111.647615625,
          "velocity": 0.30708661417322836
        },
        {
          "duration": 0.0852271874999957,
          "durationTicks": 120,
          "midi": 76,
          "name": "E5",
          "ticks": 157200,
          "time": 111.647615625,
          "velocity": 0.30708661417322836
        },
        {
          "duration": 0.0852271874999957,
          "durationTicks": 120,
          "midi": 88,
          "name": "E6",
          "ticks": 157200,
          "time": 111.647615625,
          "velocity": 0.30708661417322836
        },
        {
          "duration": 0.0852271875000099,
          "durationTicks": 120,
          "midi": 64,
          "name": "E4",
          "ticks": 157296,
          "time": 111.715797375,
          "velocity": 0.30708661417322836
        },
        {
          "duration": 0.0852271875000099,
          "durationTicks": 120,
          "midi": 69,
          "name": "A4",
          "ticks": 157296,
          "time": 111.715797375,
          "velocity": 0.30708661417322836
        },
        {
          "duration": 0.0852271875000099,
          "durationTicks": 120,
          "midi": 69,
          "name": "A4",
          "ticks": 157296,
          "time": 111.715797375,
          "velocity": 0.30708661417322836
        },
        {
          "duration": 0.0852271875000099,
          "durationTicks": 120,
          "midi": 45,
          "name": "A2",
          "ticks": 157296,
          "time": 111.715797375,
          "velocity": 0.30708661417322836
        },
        {
          "duration": 0.0852271875000099,
          "durationTicks": 120,
          "midi": 72,
          "name": "C5",
          "ticks": 157296,
          "time": 111.715797375,
          "velocity": 0.30708661417322836
        },
        {
          "duration": 0.0852271875000099,
          "durationTicks": 120,
          "midi": 81,
          "name": "A5",
          "ticks": 157296,
          "time": 111.715797375,
          "velocity": 0.30708661417322836
        },
        {
          "duration": 0.0852271875000099,
          "durationTicks": 120,
          "midi": 88,
          "name": "E6",
          "ticks": 157296,
          "time": 111.715797375,
          "velocity": 0.30708661417322836
        },
        {
          "duration": 0.0852271875000099,
          "durationTicks": 120,
          "midi": 88,
          "name": "E6",
          "ticks": 157296,
          "time": 111.715797375,
          "velocity": 0.30708661417322836
        },
        {
          "duration": 0.0852271875000099,
          "durationTicks": 120,
          "midi": 81,
          "name": "A5",
          "ticks": 157296,
          "time": 111.715797375,
          "velocity": 0.30708661417322836
        },
        {
          "duration": 0.0852271875000099,
          "durationTicks": 120,
          "midi": 76,
          "name": "E5",
          "ticks": 157296,
          "time": 111.715797375,
          "velocity": 0.30708661417322836
        },
        {
          "duration": 0.0852271875000099,
          "durationTicks": 120,
          "midi": 76,
          "name": "E5",
          "ticks": 157296,
          "time": 111.715797375,
          "velocity": 0.30708661417322836
        },
        {
          "duration": 0.0852271875000099,
          "durationTicks": 120,
          "midi": 84,
          "name": "C6",
          "ticks": 157296,
          "time": 111.715797375,
          "velocity": 0.30708661417322836
        },
        {
          "duration": 0.0852271875000099,
          "durationTicks": 120,
          "midi": 72,
          "name": "C5",
          "ticks": 157296,
          "time": 111.715797375,
          "velocity": 0.30708661417322836
        },
        {
          "duration": 0.0852271875000099,
          "durationTicks": 120,
          "midi": 64,
          "name": "E4",
          "ticks": 157296,
          "time": 111.715797375,
          "velocity": 0.30708661417322836
        },
        {
          "duration": 0.0852271875000099,
          "durationTicks": 120,
          "midi": 84,
          "name": "C6",
          "ticks": 157296,
          "time": 111.715797375,
          "velocity": 0.30708661417322836
        },
        {
          "duration": 0.0852271875000099,
          "durationTicks": 120,
          "midi": 45,
          "name": "A2",
          "ticks": 157296,
          "time": 111.715797375,
          "velocity": 0.30708661417322836
        },
        {
          "duration": 0.0852271875000099,
          "durationTicks": 120,
          "midi": 69,
          "name": "A4",
          "ticks": 157320,
          "time": 111.7328428125,
          "velocity": 0.30708661417322836
        },
        {
          "duration": 0.0852271875000099,
          "durationTicks": 120,
          "midi": 72,
          "name": "C5",
          "ticks": 157320,
          "time": 111.7328428125,
          "velocity": 0.30708661417322836
        },
        {
          "duration": 0.0852271875000099,
          "durationTicks": 120,
          "midi": 81,
          "name": "A5",
          "ticks": 157320,
          "time": 111.7328428125,
          "velocity": 0.30708661417322836
        },
        {
          "duration": 0.0852271875000099,
          "durationTicks": 120,
          "midi": 84,
          "name": "C6",
          "ticks": 157320,
          "time": 111.7328428125,
          "velocity": 0.30708661417322836
        },
        {
          "duration": 0.0852271875000099,
          "durationTicks": 120,
          "midi": 64,
          "name": "E4",
          "ticks": 157320,
          "time": 111.7328428125,
          "velocity": 0.30708661417322836
        },
        {
          "duration": 0.0852271875000099,
          "durationTicks": 120,
          "midi": 88,
          "name": "E6",
          "ticks": 157320,
          "time": 111.7328428125,
          "velocity": 0.30708661417322836
        },
        {
          "duration": 0.0852271875000099,
          "durationTicks": 120,
          "midi": 45,
          "name": "A2",
          "ticks": 157320,
          "time": 111.7328428125,
          "velocity": 0.30708661417322836
        },
        {
          "duration": 0.0852271875000099,
          "durationTicks": 120,
          "midi": 76,
          "name": "E5",
          "ticks": 157320,
          "time": 111.7328428125,
          "velocity": 0.30708661417322836
        },
        {
          "duration": 0.0852271874999957,
          "durationTicks": 120,
          "midi": 76,
          "name": "E5",
          "ticks": 157416,
          "time": 111.8010245625,
          "velocity": 0.30708661417322836
        },
        {
          "duration": 0.0852271874999957,
          "durationTicks": 120,
          "midi": 88,
          "name": "E6",
          "ticks": 157416,
          "time": 111.8010245625,
          "velocity": 0.30708661417322836
        },
        {
          "duration": 0.0852271874999957,
          "durationTicks": 120,
          "midi": 84,
          "name": "C6",
          "ticks": 157416,
          "time": 111.8010245625,
          "velocity": 0.30708661417322836
        },
        {
          "duration": 0.0852271874999957,
          "durationTicks": 120,
          "midi": 81,
          "name": "A5",
          "ticks": 157416,
          "time": 111.8010245625,
          "velocity": 0.30708661417322836
        },
        {
          "duration": 0.0852271874999957,
          "durationTicks": 120,
          "midi": 64,
          "name": "E4",
          "ticks": 157416,
          "time": 111.8010245625,
          "velocity": 0.30708661417322836
        },
        {
          "duration": 0.0852271874999957,
          "durationTicks": 120,
          "midi": 69,
          "name": "A4",
          "ticks": 157416,
          "time": 111.8010245625,
          "velocity": 0.30708661417322836
        },
        {
          "duration": 0.0852271874999957,
          "durationTicks": 120,
          "midi": 76,
          "name": "E5",
          "ticks": 157416,
          "time": 111.8010245625,
          "velocity": 0.30708661417322836
        },
        {
          "duration": 0.0852271874999957,
          "durationTicks": 120,
          "midi": 72,
          "name": "C5",
          "ticks": 157416,
          "time": 111.8010245625,
          "velocity": 0.30708661417322836
        },
        {
          "duration": 0.0852271874999957,
          "durationTicks": 120,
          "midi": 81,
          "name": "A5",
          "ticks": 157416,
          "time": 111.8010245625,
          "velocity": 0.30708661417322836
        },
        {
          "duration": 0.0852271874999957,
          "durationTicks": 120,
          "midi": 88,
          "name": "E6",
          "ticks": 157416,
          "time": 111.8010245625,
          "velocity": 0.30708661417322836
        },
        {
          "duration": 0.0852271874999957,
          "durationTicks": 120,
          "midi": 64,
          "name": "E4",
          "ticks": 157416,
          "time": 111.8010245625,
          "velocity": 0.30708661417322836
        },
        {
          "duration": 0.0852271874999957,
          "durationTicks": 120,
          "midi": 69,
          "name": "A4",
          "ticks": 157416,
          "time": 111.8010245625,
          "velocity": 0.30708661417322836
        },
        {
          "duration": 0.0852271874999957,
          "durationTicks": 120,
          "midi": 72,
          "name": "C5",
          "ticks": 157416,
          "time": 111.8010245625,
          "velocity": 0.30708661417322836
        },
        {
          "duration": 0.0852271874999957,
          "durationTicks": 120,
          "midi": 84,
          "name": "C6",
          "ticks": 157416,
          "time": 111.8010245625,
          "velocity": 0.30708661417322836
        },
        {
          "duration": 0.0852271874999957,
          "durationTicks": 120,
          "midi": 84,
          "name": "C6",
          "ticks": 157440,
          "time": 111.81807,
          "velocity": 0.30708661417322836
        },
        {
          "duration": 0.0852271874999957,
          "durationTicks": 120,
          "midi": 88,
          "name": "E6",
          "ticks": 157440,
          "time": 111.81807,
          "velocity": 0.30708661417322836
        },
        {
          "duration": 0.0852271874999957,
          "durationTicks": 120,
          "midi": 76,
          "name": "E5",
          "ticks": 157440,
          "time": 111.81807,
          "velocity": 0.30708661417322836
        },
        {
          "duration": 0.0852271874999957,
          "durationTicks": 120,
          "midi": 81,
          "name": "A5",
          "ticks": 157440,
          "time": 111.81807,
          "velocity": 0.30708661417322836
        },
        {
          "duration": 0.0852271874999957,
          "durationTicks": 120,
          "midi": 69,
          "name": "A4",
          "ticks": 157440,
          "time": 111.81807,
          "velocity": 0.30708661417322836
        },
        {
          "duration": 0.0852271874999957,
          "durationTicks": 120,
          "midi": 72,
          "name": "C5",
          "ticks": 157440,
          "time": 111.81807,
          "velocity": 0.30708661417322836
        },
        {
          "duration": 0.0852271874999957,
          "durationTicks": 120,
          "midi": 64,
          "name": "E4",
          "ticks": 157440,
          "time": 111.81807,
          "velocity": 0.30708661417322836
        },
        {
          "duration": 0.0852271874999957,
          "durationTicks": 120,
          "midi": 52,
          "name": "E3",
          "ticks": 157536,
          "time": 111.88625175,
          "velocity": 0.30708661417322836
        },
        {
          "duration": 0.0852271874999957,
          "durationTicks": 120,
          "midi": 72,
          "name": "C5",
          "ticks": 157536,
          "time": 111.88625175,
          "velocity": 0.30708661417322836
        },
        {
          "duration": 0.0852271874999957,
          "durationTicks": 120,
          "midi": 88,
          "name": "E6",
          "ticks": 157536,
          "time": 111.88625175,
          "velocity": 0.30708661417322836
        },
        {
          "duration": 0.0852271874999957,
          "durationTicks": 120,
          "midi": 72,
          "name": "C5",
          "ticks": 157536,
          "time": 111.88625175,
          "velocity": 0.30708661417322836
        },
        {
          "duration": 0.0852271874999957,
          "durationTicks": 120,
          "midi": 69,
          "name": "A4",
          "ticks": 157536,
          "time": 111.88625175,
          "velocity": 0.30708661417322836
        },
        {
          "duration": 0.0852271874999957,
          "durationTicks": 120,
          "midi": 48,
          "name": "C3",
          "ticks": 157536,
          "time": 111.88625175,
          "velocity": 0.30708661417322836
        },
        {
          "duration": 0.0852271874999957,
          "durationTicks": 120,
          "midi": 84,
          "name": "C6",
          "ticks": 157536,
          "time": 111.88625175,
          "velocity": 0.30708661417322836
        },
        {
          "duration": 0.0852271874999957,
          "durationTicks": 120,
          "midi": 81,
          "name": "A5",
          "ticks": 157536,
          "time": 111.88625175,
          "velocity": 0.30708661417322836
        },
        {
          "duration": 0.0852271874999957,
          "durationTicks": 120,
          "midi": 64,
          "name": "E4",
          "ticks": 157536,
          "time": 111.88625175,
          "velocity": 0.30708661417322836
        },
        {
          "duration": 0.0852271874999957,
          "durationTicks": 120,
          "midi": 64,
          "name": "E4",
          "ticks": 157536,
          "time": 111.88625175,
          "velocity": 0.30708661417322836
        },
        {
          "duration": 0.0852271874999957,
          "durationTicks": 120,
          "midi": 52,
          "name": "E3",
          "ticks": 157536,
          "time": 111.88625175,
          "velocity": 0.30708661417322836
        },
        {
          "duration": 0.0852271874999957,
          "durationTicks": 120,
          "midi": 48,
          "name": "C3",
          "ticks": 157536,
          "time": 111.88625175,
          "velocity": 0.30708661417322836
        },
        {
          "duration": 0.0852271874999957,
          "durationTicks": 120,
          "midi": 76,
          "name": "E5",
          "ticks": 157536,
          "time": 111.88625175,
          "velocity": 0.30708661417322836
        },
        {
          "duration": 0.0852271874999957,
          "durationTicks": 120,
          "midi": 69,
          "name": "A4",
          "ticks": 157536,
          "time": 111.88625175,
          "velocity": 0.30708661417322836
        },
        {
          "duration": 0.0852271874999957,
          "durationTicks": 120,
          "midi": 88,
          "name": "E6",
          "ticks": 157536,
          "time": 111.88625175,
          "velocity": 0.30708661417322836
        },
        {
          "duration": 0.0852271874999957,
          "durationTicks": 120,
          "midi": 81,
          "name": "A5",
          "ticks": 157536,
          "time": 111.88625175,
          "velocity": 0.30708661417322836
        },
        {
          "duration": 0.0852271874999957,
          "durationTicks": 120,
          "midi": 84,
          "name": "C6",
          "ticks": 157536,
          "time": 111.88625175,
          "velocity": 0.30708661417322836
        },
        {
          "duration": 0.0852271874999957,
          "durationTicks": 120,
          "midi": 76,
          "name": "E5",
          "ticks": 157536,
          "time": 111.88625175,
          "velocity": 0.30708661417322836
        },
        {
          "duration": 0.0852271874999957,
          "durationTicks": 120,
          "midi": 72,
          "name": "C5",
          "ticks": 157560,
          "time": 111.9032971875,
          "velocity": 0.30708661417322836
        },
        {
          "duration": 0.0852271874999957,
          "durationTicks": 120,
          "midi": 81,
          "name": "A5",
          "ticks": 157560,
          "time": 111.9032971875,
          "velocity": 0.30708661417322836
        },
        {
          "duration": 0.0852271874999957,
          "durationTicks": 120,
          "midi": 76,
          "name": "E5",
          "ticks": 157560,
          "time": 111.9032971875,
          "velocity": 0.30708661417322836
        },
        {
          "duration": 0.0852271874999957,
          "durationTicks": 120,
          "midi": 88,
          "name": "E6",
          "ticks": 157560,
          "time": 111.9032971875,
          "velocity": 0.30708661417322836
        },
        {
          "duration": 0.0852271874999957,
          "durationTicks": 120,
          "midi": 84,
          "name": "C6",
          "ticks": 157560,
          "time": 111.9032971875,
          "velocity": 0.30708661417322836
        },
        {
          "duration": 0.0852271874999957,
          "durationTicks": 120,
          "midi": 69,
          "name": "A4",
          "ticks": 157560,
          "time": 111.9032971875,
          "velocity": 0.30708661417322836
        },
        {
          "duration": 0.0852271874999957,
          "durationTicks": 120,
          "midi": 64,
          "name": "E4",
          "ticks": 157560,
          "time": 111.9032971875,
          "velocity": 0.30708661417322836
        },
        {
          "duration": 0.0852271874999957,
          "durationTicks": 120,
          "midi": 48,
          "name": "C3",
          "ticks": 157560,
          "time": 111.9032971875,
          "velocity": 0.30708661417322836
        },
        {
          "duration": 0.0852271874999957,
          "durationTicks": 120,
          "midi": 52,
          "name": "E3",
          "ticks": 157560,
          "time": 111.9032971875,
          "velocity": 0.30708661417322836
        },
        {
          "duration": 0.0852271875000099,
          "durationTicks": 120,
          "midi": 69,
          "name": "A4",
          "ticks": 157656,
          "time": 111.9714789375,
          "velocity": 0.30708661417322836
        },
        {
          "duration": 0.0852271875000099,
          "durationTicks": 120,
          "midi": 84,
          "name": "C6",
          "ticks": 157656,
          "time": 111.9714789375,
          "velocity": 0.30708661417322836
        },
        {
          "duration": 0.0852271875000099,
          "durationTicks": 120,
          "midi": 88,
          "name": "E6",
          "ticks": 157656,
          "time": 111.9714789375,
          "velocity": 0.30708661417322836
        },
        {
          "duration": 0.0852271875000099,
          "durationTicks": 120,
          "midi": 72,
          "name": "C5",
          "ticks": 157656,
          "time": 111.9714789375,
          "velocity": 0.30708661417322836
        },
        {
          "duration": 0.0852271875000099,
          "durationTicks": 120,
          "midi": 88,
          "name": "E6",
          "ticks": 157656,
          "time": 111.9714789375,
          "velocity": 0.30708661417322836
        },
        {
          "duration": 0.0852271875000099,
          "durationTicks": 120,
          "midi": 64,
          "name": "E4",
          "ticks": 157656,
          "time": 111.9714789375,
          "velocity": 0.30708661417322836
        },
        {
          "duration": 0.0852271875000099,
          "durationTicks": 120,
          "midi": 84,
          "name": "C6",
          "ticks": 157656,
          "time": 111.9714789375,
          "velocity": 0.30708661417322836
        },
        {
          "duration": 0.0852271875000099,
          "durationTicks": 120,
          "midi": 81,
          "name": "A5",
          "ticks": 157656,
          "time": 111.9714789375,
          "velocity": 0.30708661417322836
        },
        {
          "duration": 0.0852271875000099,
          "durationTicks": 120,
          "midi": 72,
          "name": "C5",
          "ticks": 157656,
          "time": 111.9714789375,
          "velocity": 0.30708661417322836
        },
        {
          "duration": 0.0852271875000099,
          "durationTicks": 120,
          "midi": 81,
          "name": "A5",
          "ticks": 157656,
          "time": 111.9714789375,
          "velocity": 0.30708661417322836
        },
        {
          "duration": 0.0852271875000099,
          "durationTicks": 120,
          "midi": 76,
          "name": "E5",
          "ticks": 157656,
          "time": 111.9714789375,
          "velocity": 0.30708661417322836
        },
        {
          "duration": 0.0852271875000099,
          "durationTicks": 120,
          "midi": 69,
          "name": "A4",
          "ticks": 157656,
          "time": 111.9714789375,
          "velocity": 0.30708661417322836
        },
        {
          "duration": 0.0852271875000099,
          "durationTicks": 120,
          "midi": 64,
          "name": "E4",
          "ticks": 157656,
          "time": 111.9714789375,
          "velocity": 0.30708661417322836
        },
        {
          "duration": 0.0852271875000099,
          "durationTicks": 120,
          "midi": 76,
          "name": "E5",
          "ticks": 157656,
          "time": 111.9714789375,
          "velocity": 0.30708661417322836
        },
        {
          "duration": 0.0852271874999957,
          "durationTicks": 120,
          "midi": 69,
          "name": "A4",
          "ticks": 157680,
          "time": 111.988524375,
          "velocity": 0.30708661417322836
        },
        {
          "duration": 0.0852271874999957,
          "durationTicks": 120,
          "midi": 76,
          "name": "E5",
          "ticks": 157680,
          "time": 111.988524375,
          "velocity": 0.30708661417322836
        },
        {
          "duration": 0.0852271874999957,
          "durationTicks": 120,
          "midi": 72,
          "name": "C5",
          "ticks": 157680,
          "time": 111.988524375,
          "velocity": 0.30708661417322836
        },
        {
          "duration": 0.0852271874999957,
          "durationTicks": 120,
          "midi": 81,
          "name": "A5",
          "ticks": 157680,
          "time": 111.988524375,
          "velocity": 0.30708661417322836
        },
        {
          "duration": 0.0852271874999957,
          "durationTicks": 120,
          "midi": 88,
          "name": "E6",
          "ticks": 157680,
          "time": 111.988524375,
          "velocity": 0.30708661417322836
        },
        {
          "duration": 0.0852271874999957,
          "durationTicks": 120,
          "midi": 64,
          "name": "E4",
          "ticks": 157680,
          "time": 111.988524375,
          "velocity": 0.30708661417322836
        },
        {
          "duration": 0.0852271874999957,
          "durationTicks": 120,
          "midi": 84,
          "name": "C6",
          "ticks": 157680,
          "time": 111.988524375,
          "velocity": 0.30708661417322836
        },
        {
          "duration": 0.0852271874999957,
          "durationTicks": 120,
          "midi": 84,
          "name": "C6",
          "ticks": 157776,
          "time": 112.056706125,
          "velocity": 0.30708661417322836
        },
        {
          "duration": 0.0852271874999957,
          "durationTicks": 120,
          "midi": 76,
          "name": "E5",
          "ticks": 157776,
          "time": 112.056706125,
          "velocity": 0.30708661417322836
        },
        {
          "duration": 0.0852271874999957,
          "durationTicks": 120,
          "midi": 69,
          "name": "A4",
          "ticks": 157776,
          "time": 112.056706125,
          "velocity": 0.30708661417322836
        },
        {
          "duration": 0.0852271874999957,
          "durationTicks": 120,
          "midi": 88,
          "name": "E6",
          "ticks": 157776,
          "time": 112.056706125,
          "velocity": 0.30708661417322836
        },
        {
          "duration": 0.0852271874999957,
          "durationTicks": 120,
          "midi": 84,
          "name": "C6",
          "ticks": 157776,
          "time": 112.056706125,
          "velocity": 0.30708661417322836
        },
        {
          "duration": 0.0852271874999957,
          "durationTicks": 120,
          "midi": 40,
          "name": "E2",
          "ticks": 157776,
          "time": 112.056706125,
          "velocity": 0.30708661417322836
        },
        {
          "duration": 0.0852271874999957,
          "durationTicks": 120,
          "midi": 40,
          "name": "E2",
          "ticks": 157776,
          "time": 112.056706125,
          "velocity": 0.30708661417322836
        },
        {
          "duration": 0.0852271874999957,
          "durationTicks": 120,
          "midi": 72,
          "name": "C5",
          "ticks": 157776,
          "time": 112.056706125,
          "velocity": 0.30708661417322836
        },
        {
          "duration": 0.0852271874999957,
          "durationTicks": 120,
          "midi": 64,
          "name": "E4",
          "ticks": 157776,
          "time": 112.056706125,
          "velocity": 0.30708661417322836
        },
        {
          "duration": 0.0852271874999957,
          "durationTicks": 120,
          "midi": 81,
          "name": "A5",
          "ticks": 157776,
          "time": 112.056706125,
          "velocity": 0.30708661417322836
        },
        {
          "duration": 0.0852271874999957,
          "durationTicks": 120,
          "midi": 88,
          "name": "E6",
          "ticks": 157776,
          "time": 112.056706125,
          "velocity": 0.30708661417322836
        },
        {
          "duration": 0.0852271874999957,
          "durationTicks": 120,
          "midi": 72,
          "name": "C5",
          "ticks": 157776,
          "time": 112.056706125,
          "velocity": 0.30708661417322836
        },
        {
          "duration": 0.0852271874999957,
          "durationTicks": 120,
          "midi": 69,
          "name": "A4",
          "ticks": 157776,
          "time": 112.056706125,
          "velocity": 0.30708661417322836
        },
        {
          "duration": 0.0852271874999957,
          "durationTicks": 120,
          "midi": 81,
          "name": "A5",
          "ticks": 157776,
          "time": 112.056706125,
          "velocity": 0.30708661417322836
        },
        {
          "duration": 0.0852271874999957,
          "durationTicks": 120,
          "midi": 64,
          "name": "E4",
          "ticks": 157776,
          "time": 112.056706125,
          "velocity": 0.30708661417322836
        },
        {
          "duration": 0.0852271874999957,
          "durationTicks": 120,
          "midi": 76,
          "name": "E5",
          "ticks": 157776,
          "time": 112.056706125,
          "velocity": 0.30708661417322836
        },
        {
          "duration": 0.0852271875000099,
          "durationTicks": 120,
          "midi": 69,
          "name": "A4",
          "ticks": 157800,
          "time": 112.0737515625,
          "velocity": 0.30708661417322836
        },
        {
          "duration": 0.0852271875000099,
          "durationTicks": 120,
          "midi": 76,
          "name": "E5",
          "ticks": 157800,
          "time": 112.0737515625,
          "velocity": 0.30708661417322836
        },
        {
          "duration": 0.0852271875000099,
          "durationTicks": 120,
          "midi": 72,
          "name": "C5",
          "ticks": 157800,
          "time": 112.0737515625,
          "velocity": 0.30708661417322836
        },
        {
          "duration": 0.0852271875000099,
          "durationTicks": 120,
          "midi": 88,
          "name": "E6",
          "ticks": 157800,
          "time": 112.0737515625,
          "velocity": 0.30708661417322836
        },
        {
          "duration": 0.0852271875000099,
          "durationTicks": 120,
          "midi": 40,
          "name": "E2",
          "ticks": 157800,
          "time": 112.0737515625,
          "velocity": 0.30708661417322836
        },
        {
          "duration": 0.0852271875000099,
          "durationTicks": 120,
          "midi": 81,
          "name": "A5",
          "ticks": 157800,
          "time": 112.0737515625,
          "velocity": 0.30708661417322836
        },
        {
          "duration": 0.0852271875000099,
          "durationTicks": 120,
          "midi": 84,
          "name": "C6",
          "ticks": 157800,
          "time": 112.0737515625,
          "velocity": 0.30708661417322836
        },
        {
          "duration": 0.0852271875000099,
          "durationTicks": 120,
          "midi": 64,
          "name": "E4",
          "ticks": 157800,
          "time": 112.0737515625,
          "velocity": 0.30708661417322836
        },
        {
          "duration": 0.0852271874999957,
          "durationTicks": 120,
          "midi": 65,
          "name": "F4",
          "ticks": 157896,
          "time": 112.1419333125,
          "velocity": 0.30708661417322836
        },
        {
          "duration": 0.0852271874999957,
          "durationTicks": 120,
          "midi": 89,
          "name": "F6",
          "ticks": 157896,
          "time": 112.1419333125,
          "velocity": 0.30708661417322836
        },
        {
          "duration": 0.0852271874999957,
          "durationTicks": 120,
          "midi": 65,
          "name": "F4",
          "ticks": 157896,
          "time": 112.1419333125,
          "velocity": 0.30708661417322836
        },
        {
          "duration": 0.0852271874999957,
          "durationTicks": 120,
          "midi": 77,
          "name": "F5",
          "ticks": 157896,
          "time": 112.1419333125,
          "velocity": 0.30708661417322836
        },
        {
          "duration": 0.0852271874999957,
          "durationTicks": 120,
          "midi": 89,
          "name": "F6",
          "ticks": 157896,
          "time": 112.1419333125,
          "velocity": 0.30708661417322836
        },
        {
          "duration": 0.0852271874999957,
          "durationTicks": 120,
          "midi": 77,
          "name": "F5",
          "ticks": 157896,
          "time": 112.1419333125,
          "velocity": 0.30708661417322836
        },
        {
          "duration": 0.0852271874999957,
          "durationTicks": 120,
          "midi": 89,
          "name": "F6",
          "ticks": 157920,
          "time": 112.15897875,
          "velocity": 0.30708661417322836
        },
        {
          "duration": 0.0852271874999957,
          "durationTicks": 120,
          "midi": 65,
          "name": "F4",
          "ticks": 157920,
          "time": 112.15897875,
          "velocity": 0.30708661417322836
        },
        {
          "duration": 0.0852271874999957,
          "durationTicks": 120,
          "midi": 77,
          "name": "F5",
          "ticks": 157920,
          "time": 112.15897875,
          "velocity": 0.30708661417322836
        },
        {
          "duration": 0.0852271874999957,
          "durationTicks": 120,
          "midi": 76,
          "name": "E5",
          "ticks": 158016,
          "time": 112.2271605,
          "velocity": 0.30708661417322836
        },
        {
          "duration": 0.0852271874999957,
          "durationTicks": 120,
          "midi": 76,
          "name": "E5",
          "ticks": 158016,
          "time": 112.2271605,
          "velocity": 0.30708661417322836
        },
        {
          "duration": 0.0852271874999957,
          "durationTicks": 120,
          "midi": 48,
          "name": "C3",
          "ticks": 158016,
          "time": 112.2271605,
          "velocity": 0.30708661417322836
        },
        {
          "duration": 0.0852271874999957,
          "durationTicks": 120,
          "midi": 52,
          "name": "E3",
          "ticks": 158016,
          "time": 112.2271605,
          "velocity": 0.30708661417322836
        },
        {
          "duration": 0.0852271874999957,
          "durationTicks": 120,
          "midi": 48,
          "name": "C3",
          "ticks": 158016,
          "time": 112.2271605,
          "velocity": 0.30708661417322836
        },
        {
          "duration": 0.0852271874999957,
          "durationTicks": 120,
          "midi": 88,
          "name": "E6",
          "ticks": 158016,
          "time": 112.2271605,
          "velocity": 0.30708661417322836
        },
        {
          "duration": 0.0852271874999957,
          "durationTicks": 120,
          "midi": 64,
          "name": "E4",
          "ticks": 158016,
          "time": 112.2271605,
          "velocity": 0.30708661417322836
        },
        {
          "duration": 0.0852271874999957,
          "durationTicks": 120,
          "midi": 88,
          "name": "E6",
          "ticks": 158016,
          "time": 112.2271605,
          "velocity": 0.30708661417322836
        },
        {
          "duration": 0.0852271874999957,
          "durationTicks": 120,
          "midi": 52,
          "name": "E3",
          "ticks": 158016,
          "time": 112.2271605,
          "velocity": 0.30708661417322836
        },
        {
          "duration": 0.0852271874999957,
          "durationTicks": 120,
          "midi": 64,
          "name": "E4",
          "ticks": 158016,
          "time": 112.2271605,
          "velocity": 0.30708661417322836
        },
        {
          "duration": 0.0852271874999957,
          "durationTicks": 120,
          "midi": 48,
          "name": "C3",
          "ticks": 158040,
          "time": 112.2442059375,
          "velocity": 0.30708661417322836
        },
        {
          "duration": 0.0852271874999957,
          "durationTicks": 120,
          "midi": 52,
          "name": "E3",
          "ticks": 158040,
          "time": 112.2442059375,
          "velocity": 0.30708661417322836
        },
        {
          "duration": 0.0852271874999957,
          "durationTicks": 120,
          "midi": 88,
          "name": "E6",
          "ticks": 158040,
          "time": 112.2442059375,
          "velocity": 0.30708661417322836
        },
        {
          "duration": 0.0852271874999957,
          "durationTicks": 120,
          "midi": 76,
          "name": "E5",
          "ticks": 158040,
          "time": 112.2442059375,
          "velocity": 0.30708661417322836
        },
        {
          "duration": 0.0852271874999957,
          "durationTicks": 120,
          "midi": 64,
          "name": "E4",
          "ticks": 158040,
          "time": 112.2442059375,
          "velocity": 0.30708661417322836
        },
        {
          "duration": 0.0852271875000099,
          "durationTicks": 120,
          "midi": 75,
          "name": "D#5",
          "ticks": 158136,
          "time": 112.31238768749999,
          "velocity": 0.30708661417322836
        },
        {
          "duration": 0.0852271875000099,
          "durationTicks": 120,
          "midi": 87,
          "name": "D#6",
          "ticks": 158136,
          "time": 112.31238768749999,
          "velocity": 0.30708661417322836
        },
        {
          "duration": 0.0852271875000099,
          "durationTicks": 120,
          "midi": 87,
          "name": "D#6",
          "ticks": 158136,
          "time": 112.31238768749999,
          "velocity": 0.30708661417322836
        },
        {
          "duration": 0.0852271875000099,
          "durationTicks": 120,
          "midi": 75,
          "name": "D#5",
          "ticks": 158136,
          "time": 112.31238768749999,
          "velocity": 0.30708661417322836
        },
        {
          "duration": 0.0852271875000099,
          "durationTicks": 120,
          "midi": 63,
          "name": "D#4",
          "ticks": 158136,
          "time": 112.31238768749999,
          "velocity": 0.30708661417322836
        },
        {
          "duration": 0.0852271875000099,
          "durationTicks": 120,
          "midi": 63,
          "name": "D#4",
          "ticks": 158136,
          "time": 112.31238768749999,
          "velocity": 0.30708661417322836
        },
        {
          "duration": 0.0852271875000099,
          "durationTicks": 120,
          "midi": 69,
          "name": "A4",
          "ticks": 158160,
          "time": 112.329433125,
          "velocity": 0.30708661417322836
        },
        {
          "duration": 0.0852271875000099,
          "durationTicks": 120,
          "midi": 63,
          "name": "D#4",
          "ticks": 158160,
          "time": 112.329433125,
          "velocity": 0.30708661417322836
        },
        {
          "duration": 0.0852271875000099,
          "durationTicks": 120,
          "midi": 72,
          "name": "C5",
          "ticks": 158160,
          "time": 112.329433125,
          "velocity": 0.30708661417322836
        },
        {
          "duration": 0.0852271875000099,
          "durationTicks": 120,
          "midi": 69,
          "name": "A4",
          "ticks": 158160,
          "time": 112.329433125,
          "velocity": 0.30708661417322836
        },
        {
          "duration": 0.0852271875000099,
          "durationTicks": 120,
          "midi": 72,
          "name": "C5",
          "ticks": 158160,
          "time": 112.329433125,
          "velocity": 0.30708661417322836
        },
        {
          "duration": 0.0852271875000099,
          "durationTicks": 120,
          "midi": 75,
          "name": "D#5",
          "ticks": 158160,
          "time": 112.329433125,
          "velocity": 0.30708661417322836
        },
        {
          "duration": 0.0852271875000099,
          "durationTicks": 120,
          "midi": 87,
          "name": "D#6",
          "ticks": 158160,
          "time": 112.329433125,
          "velocity": 0.30708661417322836
        },
        {
          "duration": 0.0852271874999957,
          "durationTicks": 120,
          "midi": 72,
          "name": "C5",
          "ticks": 158184,
          "time": 112.3464785625,
          "velocity": 0.30708661417322836
        },
        {
          "duration": 0.0852271874999957,
          "durationTicks": 120,
          "midi": 69,
          "name": "A4",
          "ticks": 158184,
          "time": 112.3464785625,
          "velocity": 0.30708661417322836
        },
        {
          "duration": 0.0852271874999957,
          "durationTicks": 120,
          "midi": 64,
          "name": "E4",
          "ticks": 158256,
          "time": 112.397614875,
          "velocity": 0.30708661417322836
        },
        {
          "duration": 0.22159068749999733,
          "durationTicks": 312,
          "midi": 45,
          "name": "A2",
          "ticks": 158256,
          "time": 112.397614875,
          "velocity": 0.30708661417322836
        },
        {
          "duration": 0.0852271874999957,
          "durationTicks": 120,
          "midi": 76,
          "name": "E5",
          "ticks": 158256,
          "time": 112.397614875,
          "velocity": 0.30708661417322836
        },
        {
          "duration": 0.0852271874999957,
          "durationTicks": 120,
          "midi": 64,
          "name": "E4",
          "ticks": 158256,
          "time": 112.397614875,
          "velocity": 0.30708661417322836
        },
        {
          "duration": 0.0852271874999957,
          "durationTicks": 120,
          "midi": 88,
          "name": "E6",
          "ticks": 158256,
          "time": 112.397614875,
          "velocity": 0.30708661417322836
        },
        {
          "duration": 0.22159068749999733,
          "durationTicks": 312,
          "midi": 45,
          "name": "A2",
          "ticks": 158256,
          "time": 112.397614875,
          "velocity": 0.30708661417322836
        },
        {
          "duration": 0.0852271874999957,
          "durationTicks": 120,
          "midi": 76,
          "name": "E5",
          "ticks": 158256,
          "time": 112.397614875,
          "velocity": 0.30708661417322836
        },
        {
          "duration": 0.0852271874999957,
          "durationTicks": 120,
          "midi": 88,
          "name": "E6",
          "ticks": 158256,
          "time": 112.397614875,
          "velocity": 0.30708661417322836
        },
        {
          "duration": 0.22159068749999733,
          "durationTicks": 312,
          "midi": 45,
          "name": "A2",
          "ticks": 158280,
          "time": 112.4146603125,
          "velocity": 0.30708661417322836
        },
        {
          "duration": 0.0852271874999957,
          "durationTicks": 120,
          "midi": 76,
          "name": "E5",
          "ticks": 158280,
          "time": 112.4146603125,
          "velocity": 0.30708661417322836
        },
        {
          "duration": 0.0852271874999957,
          "durationTicks": 120,
          "midi": 64,
          "name": "E4",
          "ticks": 158280,
          "time": 112.4146603125,
          "velocity": 0.30708661417322836
        },
        {
          "duration": 0.0852271874999957,
          "durationTicks": 120,
          "midi": 88,
          "name": "E6",
          "ticks": 158280,
          "time": 112.4146603125,
          "velocity": 0.30708661417322836
        },
        {
          "duration": 0.0852271875000099,
          "durationTicks": 120,
          "midi": 69,
          "name": "A4",
          "ticks": 158496,
          "time": 112.56806925,
          "velocity": 0.30708661417322836
        },
        {
          "duration": 0.0852271875000099,
          "durationTicks": 120,
          "midi": 48,
          "name": "C3",
          "ticks": 158496,
          "time": 112.56806925,
          "velocity": 0.30708661417322836
        },
        {
          "duration": 0.0852271875000099,
          "durationTicks": 120,
          "midi": 52,
          "name": "E3",
          "ticks": 158496,
          "time": 112.56806925,
          "velocity": 0.30708661417322836
        },
        {
          "duration": 0.0852271875000099,
          "durationTicks": 120,
          "midi": 72,
          "name": "C5",
          "ticks": 158496,
          "time": 112.56806925,
          "velocity": 0.30708661417322836
        },
        {
          "duration": 0.0852271875000099,
          "durationTicks": 120,
          "midi": 84,
          "name": "C6",
          "ticks": 158496,
          "time": 112.56806925,
          "velocity": 0.30708661417322836
        },
        {
          "duration": 0.0852271875000099,
          "durationTicks": 120,
          "midi": 48,
          "name": "C3",
          "ticks": 158496,
          "time": 112.56806925,
          "velocity": 0.30708661417322836
        },
        {
          "duration": 0.0852271875000099,
          "durationTicks": 120,
          "midi": 88,
          "name": "E6",
          "ticks": 158496,
          "time": 112.56806925,
          "velocity": 0.30708661417322836
        },
        {
          "duration": 0.0852271875000099,
          "durationTicks": 120,
          "midi": 81,
          "name": "A5",
          "ticks": 158496,
          "time": 112.56806925,
          "velocity": 0.30708661417322836
        },
        {
          "duration": 0.0852271875000099,
          "durationTicks": 120,
          "midi": 52,
          "name": "E3",
          "ticks": 158496,
          "time": 112.56806925,
          "velocity": 0.30708661417322836
        },
        {
          "duration": 0.0852271875000099,
          "durationTicks": 120,
          "midi": 93,
          "name": "A6",
          "ticks": 158496,
          "time": 112.56806925,
          "velocity": 0.30708661417322836
        },
        {
          "duration": 0.0852271875000099,
          "durationTicks": 120,
          "midi": 84,
          "name": "C6",
          "ticks": 158496,
          "time": 112.56806925,
          "velocity": 0.30708661417322836
        },
        {
          "duration": 0.0852271875000099,
          "durationTicks": 120,
          "midi": 76,
          "name": "E5",
          "ticks": 158496,
          "time": 112.56806925,
          "velocity": 0.30708661417322836
        },
        {
          "duration": 0.0852271875000099,
          "durationTicks": 120,
          "midi": 69,
          "name": "A4",
          "ticks": 158496,
          "time": 112.56806925,
          "velocity": 0.30708661417322836
        },
        {
          "duration": 0.0852271875000099,
          "durationTicks": 120,
          "midi": 72,
          "name": "C5",
          "ticks": 158496,
          "time": 112.56806925,
          "velocity": 0.30708661417322836
        },
        {
          "duration": 0.0852271875000099,
          "durationTicks": 120,
          "midi": 76,
          "name": "E5",
          "ticks": 158496,
          "time": 112.56806925,
          "velocity": 0.30708661417322836
        },
        {
          "duration": 0.0852271875000099,
          "durationTicks": 120,
          "midi": 88,
          "name": "E6",
          "ticks": 158496,
          "time": 112.56806925,
          "velocity": 0.30708661417322836
        },
        {
          "duration": 0.0852271875000099,
          "durationTicks": 120,
          "midi": 93,
          "name": "A6",
          "ticks": 158496,
          "time": 112.56806925,
          "velocity": 0.30708661417322836
        },
        {
          "duration": 0.0852271875000099,
          "durationTicks": 120,
          "midi": 81,
          "name": "A5",
          "ticks": 158496,
          "time": 112.56806925,
          "velocity": 0.30708661417322836
        },
        {
          "duration": 0.0852271875000099,
          "durationTicks": 120,
          "midi": 88,
          "name": "E6",
          "ticks": 158520,
          "time": 112.5851146875,
          "velocity": 0.30708661417322836
        },
        {
          "duration": 0.0852271875000099,
          "durationTicks": 120,
          "midi": 76,
          "name": "E5",
          "ticks": 158520,
          "time": 112.5851146875,
          "velocity": 0.30708661417322836
        },
        {
          "duration": 0.0852271875000099,
          "durationTicks": 120,
          "midi": 81,
          "name": "A5",
          "ticks": 158520,
          "time": 112.5851146875,
          "velocity": 0.30708661417322836
        },
        {
          "duration": 0.0852271875000099,
          "durationTicks": 120,
          "midi": 72,
          "name": "C5",
          "ticks": 158520,
          "time": 112.5851146875,
          "velocity": 0.30708661417322836
        },
        {
          "duration": 0.0852271875000099,
          "durationTicks": 120,
          "midi": 93,
          "name": "A6",
          "ticks": 158520,
          "time": 112.5851146875,
          "velocity": 0.30708661417322836
        },
        {
          "duration": 0.0852271875000099,
          "durationTicks": 120,
          "midi": 48,
          "name": "C3",
          "ticks": 158520,
          "time": 112.5851146875,
          "velocity": 0.30708661417322836
        },
        {
          "duration": 0.0852271875000099,
          "durationTicks": 120,
          "midi": 52,
          "name": "E3",
          "ticks": 158520,
          "time": 112.5851146875,
          "velocity": 0.30708661417322836
        },
        {
          "duration": 0.0852271875000099,
          "durationTicks": 120,
          "midi": 84,
          "name": "C6",
          "ticks": 158520,
          "time": 112.5851146875,
          "velocity": 0.30708661417322836
        },
        {
          "duration": 0.0852271875000099,
          "durationTicks": 120,
          "midi": 69,
          "name": "A4",
          "ticks": 158520,
          "time": 112.5851146875,
          "velocity": 0.30708661417322836
        },
        {
          "duration": 0.0852271874999957,
          "durationTicks": 120,
          "midi": 81,
          "name": "A5",
          "ticks": 158736,
          "time": 112.738523625,
          "velocity": 0.30708661417322836
        },
        {
          "duration": 0.0852271874999957,
          "durationTicks": 120,
          "midi": 93,
          "name": "A6",
          "ticks": 158736,
          "time": 112.738523625,
          "velocity": 0.30708661417322836
        },
        {
          "duration": 0.0852271874999957,
          "durationTicks": 120,
          "midi": 76,
          "name": "E5",
          "ticks": 158736,
          "time": 112.738523625,
          "velocity": 0.30708661417322836
        },
        {
          "duration": 0.0852271874999957,
          "durationTicks": 120,
          "midi": 76,
          "name": "E5",
          "ticks": 158736,
          "time": 112.738523625,
          "velocity": 0.30708661417322836
        },
        {
          "duration": 0.0852271874999957,
          "durationTicks": 120,
          "midi": 40,
          "name": "E2",
          "ticks": 158736,
          "time": 112.738523625,
          "velocity": 0.30708661417322836
        },
        {
          "duration": 0.0852271874999957,
          "durationTicks": 120,
          "midi": 84,
          "name": "C6",
          "ticks": 158736,
          "time": 112.738523625,
          "velocity": 0.30708661417322836
        },
        {
          "duration": 0.0852271874999957,
          "durationTicks": 120,
          "midi": 72,
          "name": "C5",
          "ticks": 158736,
          "time": 112.738523625,
          "velocity": 0.30708661417322836
        },
        {
          "duration": 0.0852271874999957,
          "durationTicks": 120,
          "midi": 72,
          "name": "C5",
          "ticks": 158736,
          "time": 112.738523625,
          "velocity": 0.30708661417322836
        },
        {
          "duration": 0.0852271874999957,
          "durationTicks": 120,
          "midi": 88,
          "name": "E6",
          "ticks": 158736,
          "time": 112.738523625,
          "velocity": 0.30708661417322836
        },
        {
          "duration": 0.0852271874999957,
          "durationTicks": 120,
          "midi": 81,
          "name": "A5",
          "ticks": 158736,
          "time": 112.738523625,
          "velocity": 0.30708661417322836
        },
        {
          "duration": 0.0852271874999957,
          "durationTicks": 120,
          "midi": 93,
          "name": "A6",
          "ticks": 158736,
          "time": 112.738523625,
          "velocity": 0.30708661417322836
        },
        {
          "duration": 0.0852271874999957,
          "durationTicks": 120,
          "midi": 40,
          "name": "E2",
          "ticks": 158736,
          "time": 112.738523625,
          "velocity": 0.30708661417322836
        },
        {
          "duration": 0.0852271874999957,
          "durationTicks": 120,
          "midi": 88,
          "name": "E6",
          "ticks": 158736,
          "time": 112.738523625,
          "velocity": 0.30708661417322836
        },
        {
          "duration": 0.0852271874999957,
          "durationTicks": 120,
          "midi": 84,
          "name": "C6",
          "ticks": 158736,
          "time": 112.738523625,
          "velocity": 0.30708661417322836
        },
        {
          "duration": 0.0852271874999957,
          "durationTicks": 120,
          "midi": 93,
          "name": "A6",
          "ticks": 158760,
          "time": 112.7555690625,
          "velocity": 0.30708661417322836
        },
        {
          "duration": 0.0852271874999957,
          "durationTicks": 120,
          "midi": 88,
          "name": "E6",
          "ticks": 158760,
          "time": 112.7555690625,
          "velocity": 0.30708661417322836
        },
        {
          "duration": 0.0852271874999957,
          "durationTicks": 120,
          "midi": 40,
          "name": "E2",
          "ticks": 158760,
          "time": 112.7555690625,
          "velocity": 0.30708661417322836
        },
        {
          "duration": 0.0852271874999957,
          "durationTicks": 120,
          "midi": 81,
          "name": "A5",
          "ticks": 158760,
          "time": 112.7555690625,
          "velocity": 0.30708661417322836
        },
        {
          "duration": 0.0852271874999957,
          "durationTicks": 120,
          "midi": 76,
          "name": "E5",
          "ticks": 158760,
          "time": 112.7555690625,
          "velocity": 0.30708661417322836
        },
        {
          "duration": 0.0852271874999957,
          "durationTicks": 120,
          "midi": 72,
          "name": "C5",
          "ticks": 158760,
          "time": 112.7555690625,
          "velocity": 0.30708661417322836
        },
        {
          "duration": 0.0852271874999957,
          "durationTicks": 120,
          "midi": 84,
          "name": "C6",
          "ticks": 158760,
          "time": 112.7555690625,
          "velocity": 0.30708661417322836
        },
        {
          "duration": 0.0852271874999957,
          "durationTicks": 120,
          "midi": 52,
          "name": "E3",
          "ticks": 158976,
          "time": 112.908978,
          "velocity": 0.30708661417322836
        },
        {
          "duration": 0.0852271874999957,
          "durationTicks": 120,
          "midi": 48,
          "name": "C3",
          "ticks": 158976,
          "time": 112.908978,
          "velocity": 0.30708661417322836
        },
        {
          "duration": 0.0852271874999957,
          "durationTicks": 120,
          "midi": 52,
          "name": "E3",
          "ticks": 158976,
          "time": 112.908978,
          "velocity": 0.30708661417322836
        },
        {
          "duration": 0.0852271874999957,
          "durationTicks": 120,
          "midi": 48,
          "name": "C3",
          "ticks": 158976,
          "time": 112.908978,
          "velocity": 0.30708661417322836
        },
        {
          "duration": 0.0852271875000099,
          "durationTicks": 120,
          "midi": 48,
          "name": "C3",
          "ticks": 159000,
          "time": 112.92602343749999,
          "velocity": 0.30708661417322836
        },
        {
          "duration": 0.0852271875000099,
          "durationTicks": 120,
          "midi": 52,
          "name": "E3",
          "ticks": 159000,
          "time": 112.92602343749999,
          "velocity": 0.30708661417322836
        },
        {
          "duration": 0.0852271874999957,
          "durationTicks": 120,
          "midi": 74,
          "name": "D5",
          "ticks": 159216,
          "time": 113.079432375,
          "velocity": 0.30708661417322836
        },
        {
          "duration": 0.0852271874999957,
          "durationTicks": 120,
          "midi": 89,
          "name": "F6",
          "ticks": 159216,
          "time": 113.079432375,
          "velocity": 0.30708661417322836
        },
        {
          "duration": 0.0852271874999957,
          "durationTicks": 120,
          "midi": 81,
          "name": "A5",
          "ticks": 159216,
          "time": 113.079432375,
          "velocity": 0.30708661417322836
        },
        {
          "duration": 0.0852271874999957,
          "durationTicks": 120,
          "midi": 93,
          "name": "A6",
          "ticks": 159216,
          "time": 113.079432375,
          "velocity": 0.30708661417322836
        },
        {
          "duration": 0.0852271874999957,
          "durationTicks": 120,
          "midi": 89,
          "name": "F6",
          "ticks": 159216,
          "time": 113.079432375,
          "velocity": 0.30708661417322836
        },
        {
          "duration": 0.0852271874999957,
          "durationTicks": 120,
          "midi": 77,
          "name": "F5",
          "ticks": 159216,
          "time": 113.079432375,
          "velocity": 0.30708661417322836
        },
        {
          "duration": 0.0852271874999957,
          "durationTicks": 120,
          "midi": 77,
          "name": "F5",
          "ticks": 159216,
          "time": 113.079432375,
          "velocity": 0.30708661417322836
        },
        {
          "duration": 0.0852271874999957,
          "durationTicks": 120,
          "midi": 44,
          "name": "G#2",
          "ticks": 159216,
          "time": 113.079432375,
          "velocity": 0.30708661417322836
        },
        {
          "duration": 0.0852271874999957,
          "durationTicks": 120,
          "midi": 74,
          "name": "D5",
          "ticks": 159216,
          "time": 113.079432375,
          "velocity": 0.30708661417322836
        },
        {
          "duration": 0.0852271874999957,
          "durationTicks": 120,
          "midi": 86,
          "name": "D6",
          "ticks": 159216,
          "time": 113.079432375,
          "velocity": 0.30708661417322836
        },
        {
          "duration": 0.0852271874999957,
          "durationTicks": 120,
          "midi": 93,
          "name": "A6",
          "ticks": 159216,
          "time": 113.079432375,
          "velocity": 0.30708661417322836
        },
        {
          "duration": 0.0852271874999957,
          "durationTicks": 120,
          "midi": 44,
          "name": "G#2",
          "ticks": 159216,
          "time": 113.079432375,
          "velocity": 0.30708661417322836
        },
        {
          "duration": 0.0852271874999957,
          "durationTicks": 120,
          "midi": 81,
          "name": "A5",
          "ticks": 159216,
          "time": 113.079432375,
          "velocity": 0.30708661417322836
        },
        {
          "duration": 0.0852271874999957,
          "durationTicks": 120,
          "midi": 86,
          "name": "D6",
          "ticks": 159216,
          "time": 113.079432375,
          "velocity": 0.30708661417322836
        },
        {
          "duration": 0.0852271874999957,
          "durationTicks": 120,
          "midi": 77,
          "name": "F5",
          "ticks": 159240,
          "time": 113.0964778125,
          "velocity": 0.30708661417322836
        },
        {
          "duration": 0.0852271874999957,
          "durationTicks": 120,
          "midi": 44,
          "name": "G#2",
          "ticks": 159240,
          "time": 113.0964778125,
          "velocity": 0.30708661417322836
        },
        {
          "duration": 0.0852271874999957,
          "durationTicks": 120,
          "midi": 89,
          "name": "F6",
          "ticks": 159240,
          "time": 113.0964778125,
          "velocity": 0.30708661417322836
        },
        {
          "duration": 0.0852271874999957,
          "durationTicks": 120,
          "midi": 74,
          "name": "D5",
          "ticks": 159240,
          "time": 113.0964778125,
          "velocity": 0.30708661417322836
        },
        {
          "duration": 0.0852271874999957,
          "durationTicks": 120,
          "midi": 86,
          "name": "D6",
          "ticks": 159240,
          "time": 113.0964778125,
          "velocity": 0.30708661417322836
        },
        {
          "duration": 0.0852271874999957,
          "durationTicks": 120,
          "midi": 93,
          "name": "A6",
          "ticks": 159240,
          "time": 113.0964778125,
          "velocity": 0.30708661417322836
        },
        {
          "duration": 0.0852271874999957,
          "durationTicks": 120,
          "midi": 81,
          "name": "A5",
          "ticks": 159240,
          "time": 113.0964778125,
          "velocity": 0.30708661417322836
        },
        {
          "duration": 0.0852271875000099,
          "durationTicks": 120,
          "midi": 74,
          "name": "D5",
          "ticks": 159336,
          "time": 113.16465956249999,
          "velocity": 0.30708661417322836
        },
        {
          "duration": 0.0852271875000099,
          "durationTicks": 120,
          "midi": 77,
          "name": "F5",
          "ticks": 159336,
          "time": 113.16465956249999,
          "velocity": 0.30708661417322836
        },
        {
          "duration": 0.0852271875000099,
          "durationTicks": 120,
          "midi": 93,
          "name": "A6",
          "ticks": 159336,
          "time": 113.16465956249999,
          "velocity": 0.30708661417322836
        },
        {
          "duration": 0.0852271875000099,
          "durationTicks": 120,
          "midi": 93,
          "name": "A6",
          "ticks": 159336,
          "time": 113.16465956249999,
          "velocity": 0.30708661417322836
        },
        {
          "duration": 0.0852271875000099,
          "durationTicks": 120,
          "midi": 89,
          "name": "F6",
          "ticks": 159336,
          "time": 113.16465956249999,
          "velocity": 0.30708661417322836
        },
        {
          "duration": 0.0852271875000099,
          "durationTicks": 120,
          "midi": 86,
          "name": "D6",
          "ticks": 159336,
          "time": 113.16465956249999,
          "velocity": 0.30708661417322836
        },
        {
          "duration": 0.0852271875000099,
          "durationTicks": 120,
          "midi": 77,
          "name": "F5",
          "ticks": 159336,
          "time": 113.16465956249999,
          "velocity": 0.30708661417322836
        },
        {
          "duration": 0.0852271875000099,
          "durationTicks": 120,
          "midi": 74,
          "name": "D5",
          "ticks": 159336,
          "time": 113.16465956249999,
          "velocity": 0.30708661417322836
        },
        {
          "duration": 0.0852271875000099,
          "durationTicks": 120,
          "midi": 86,
          "name": "D6",
          "ticks": 159336,
          "time": 113.16465956249999,
          "velocity": 0.30708661417322836
        },
        {
          "duration": 0.0852271875000099,
          "durationTicks": 120,
          "midi": 89,
          "name": "F6",
          "ticks": 159336,
          "time": 113.16465956249999,
          "velocity": 0.30708661417322836
        },
        {
          "duration": 0.0852271875000099,
          "durationTicks": 120,
          "midi": 81,
          "name": "A5",
          "ticks": 159336,
          "time": 113.16465956249999,
          "velocity": 0.30708661417322836
        },
        {
          "duration": 0.0852271875000099,
          "durationTicks": 120,
          "midi": 81,
          "name": "A5",
          "ticks": 159336,
          "time": 113.16465956249999,
          "velocity": 0.30708661417322836
        },
        {
          "duration": 0.0852271875000099,
          "durationTicks": 120,
          "midi": 93,
          "name": "A6",
          "ticks": 159360,
          "time": 113.181705,
          "velocity": 0.30708661417322836
        },
        {
          "duration": 0.0852271875000099,
          "durationTicks": 120,
          "midi": 86,
          "name": "D6",
          "ticks": 159360,
          "time": 113.181705,
          "velocity": 0.30708661417322836
        },
        {
          "duration": 0.0852271875000099,
          "durationTicks": 120,
          "midi": 89,
          "name": "F6",
          "ticks": 159360,
          "time": 113.181705,
          "velocity": 0.30708661417322836
        },
        {
          "duration": 0.0852271875000099,
          "durationTicks": 120,
          "midi": 81,
          "name": "A5",
          "ticks": 159360,
          "time": 113.181705,
          "velocity": 0.30708661417322836
        },
        {
          "duration": 0.0852271875000099,
          "durationTicks": 120,
          "midi": 77,
          "name": "F5",
          "ticks": 159360,
          "time": 113.181705,
          "velocity": 0.30708661417322836
        },
        {
          "duration": 0.0852271875000099,
          "durationTicks": 120,
          "midi": 74,
          "name": "D5",
          "ticks": 159360,
          "time": 113.181705,
          "velocity": 0.30708661417322836
        },
        {
          "duration": 0.0852271874999957,
          "durationTicks": 120,
          "midi": 81,
          "name": "A5",
          "ticks": 159456,
          "time": 113.24988675,
          "velocity": 0.30708661417322836
        },
        {
          "duration": 0.0852271874999957,
          "durationTicks": 120,
          "midi": 86,
          "name": "D6",
          "ticks": 159456,
          "time": 113.24988675,
          "velocity": 0.30708661417322836
        },
        {
          "duration": 0.0852271874999957,
          "durationTicks": 120,
          "midi": 93,
          "name": "A6",
          "ticks": 159456,
          "time": 113.24988675,
          "velocity": 0.30708661417322836
        },
        {
          "duration": 0.0852271874999957,
          "durationTicks": 120,
          "midi": 50,
          "name": "D3",
          "ticks": 159456,
          "time": 113.24988675,
          "velocity": 0.30708661417322836
        },
        {
          "duration": 0.0852271874999957,
          "durationTicks": 120,
          "midi": 52,
          "name": "E3",
          "ticks": 159456,
          "time": 113.24988675,
          "velocity": 0.30708661417322836
        },
        {
          "duration": 0.0852271874999957,
          "durationTicks": 120,
          "midi": 77,
          "name": "F5",
          "ticks": 159456,
          "time": 113.24988675,
          "velocity": 0.30708661417322836
        },
        {
          "duration": 0.0852271874999957,
          "durationTicks": 120,
          "midi": 77,
          "name": "F5",
          "ticks": 159456,
          "time": 113.24988675,
          "velocity": 0.30708661417322836
        },
        {
          "duration": 0.0852271874999957,
          "durationTicks": 120,
          "midi": 93,
          "name": "A6",
          "ticks": 159456,
          "time": 113.24988675,
          "velocity": 0.30708661417322836
        },
        {
          "duration": 0.0852271874999957,
          "durationTicks": 120,
          "midi": 74,
          "name": "D5",
          "ticks": 159456,
          "time": 113.24988675,
          "velocity": 0.30708661417322836
        },
        {
          "duration": 0.0852271874999957,
          "durationTicks": 120,
          "midi": 89,
          "name": "F6",
          "ticks": 159456,
          "time": 113.24988675,
          "velocity": 0.30708661417322836
        },
        {
          "duration": 0.0852271874999957,
          "durationTicks": 120,
          "midi": 89,
          "name": "F6",
          "ticks": 159456,
          "time": 113.24988675,
          "velocity": 0.30708661417322836
        },
        {
          "duration": 0.0852271874999957,
          "durationTicks": 120,
          "midi": 86,
          "name": "D6",
          "ticks": 159456,
          "time": 113.24988675,
          "velocity": 0.30708661417322836
        },
        {
          "duration": 0.0852271874999957,
          "durationTicks": 120,
          "midi": 50,
          "name": "D3",
          "ticks": 159456,
          "time": 113.24988675,
          "velocity": 0.30708661417322836
        },
        {
          "duration": 0.0852271874999957,
          "durationTicks": 120,
          "midi": 74,
          "name": "D5",
          "ticks": 159456,
          "time": 113.24988675,
          "velocity": 0.30708661417322836
        },
        {
          "duration": 0.0852271874999957,
          "durationTicks": 120,
          "midi": 81,
          "name": "A5",
          "ticks": 159456,
          "time": 113.24988675,
          "velocity": 0.30708661417322836
        },
        {
          "duration": 0.0852271874999957,
          "durationTicks": 120,
          "midi": 52,
          "name": "E3",
          "ticks": 159456,
          "time": 113.24988675,
          "velocity": 0.30708661417322836
        },
        {
          "duration": 0.0852271874999957,
          "durationTicks": 120,
          "midi": 77,
          "name": "F5",
          "ticks": 159480,
          "time": 113.2669321875,
          "velocity": 0.30708661417322836
        },
        {
          "duration": 0.0852271874999957,
          "durationTicks": 120,
          "midi": 81,
          "name": "A5",
          "ticks": 159480,
          "time": 113.2669321875,
          "velocity": 0.30708661417322836
        },
        {
          "duration": 0.0852271874999957,
          "durationTicks": 120,
          "midi": 89,
          "name": "F6",
          "ticks": 159480,
          "time": 113.2669321875,
          "velocity": 0.30708661417322836
        },
        {
          "duration": 0.0852271874999957,
          "durationTicks": 120,
          "midi": 93,
          "name": "A6",
          "ticks": 159480,
          "time": 113.2669321875,
          "velocity": 0.30708661417322836
        },
        {
          "duration": 0.0852271874999957,
          "durationTicks": 120,
          "midi": 50,
          "name": "D3",
          "ticks": 159480,
          "time": 113.2669321875,
          "velocity": 0.30708661417322836
        },
        {
          "duration": 0.0852271874999957,
          "durationTicks": 120,
          "midi": 52,
          "name": "E3",
          "ticks": 159480,
          "time": 113.2669321875,
          "velocity": 0.30708661417322836
        },
        {
          "duration": 0.0852271874999957,
          "durationTicks": 120,
          "midi": 74,
          "name": "D5",
          "ticks": 159480,
          "time": 113.2669321875,
          "velocity": 0.30708661417322836
        },
        {
          "duration": 0.0852271874999957,
          "durationTicks": 120,
          "midi": 86,
          "name": "D6",
          "ticks": 159480,
          "time": 113.2669321875,
          "velocity": 0.30708661417322836
        },
        {
          "duration": 0.0852271874999957,
          "durationTicks": 120,
          "midi": 93,
          "name": "A6",
          "ticks": 159576,
          "time": 113.3351139375,
          "velocity": 0.30708661417322836
        },
        {
          "duration": 0.0852271874999957,
          "durationTicks": 120,
          "midi": 81,
          "name": "A5",
          "ticks": 159576,
          "time": 113.3351139375,
          "velocity": 0.30708661417322836
        },
        {
          "duration": 0.0852271874999957,
          "durationTicks": 120,
          "midi": 89,
          "name": "F6",
          "ticks": 159576,
          "time": 113.3351139375,
          "velocity": 0.30708661417322836
        },
        {
          "duration": 0.0852271874999957,
          "durationTicks": 120,
          "midi": 77,
          "name": "F5",
          "ticks": 159576,
          "time": 113.3351139375,
          "velocity": 0.30708661417322836
        },
        {
          "duration": 0.0852271874999957,
          "durationTicks": 120,
          "midi": 86,
          "name": "D6",
          "ticks": 159576,
          "time": 113.3351139375,
          "velocity": 0.30708661417322836
        },
        {
          "duration": 0.0852271874999957,
          "durationTicks": 120,
          "midi": 77,
          "name": "F5",
          "ticks": 159576,
          "time": 113.3351139375,
          "velocity": 0.30708661417322836
        },
        {
          "duration": 0.0852271874999957,
          "durationTicks": 120,
          "midi": 89,
          "name": "F6",
          "ticks": 159576,
          "time": 113.3351139375,
          "velocity": 0.30708661417322836
        },
        {
          "duration": 0.0852271874999957,
          "durationTicks": 120,
          "midi": 86,
          "name": "D6",
          "ticks": 159576,
          "time": 113.3351139375,
          "velocity": 0.30708661417322836
        },
        {
          "duration": 0.0852271874999957,
          "durationTicks": 120,
          "midi": 81,
          "name": "A5",
          "ticks": 159576,
          "time": 113.3351139375,
          "velocity": 0.30708661417322836
        },
        {
          "duration": 0.0852271874999957,
          "durationTicks": 120,
          "midi": 74,
          "name": "D5",
          "ticks": 159576,
          "time": 113.3351139375,
          "velocity": 0.30708661417322836
        },
        {
          "duration": 0.0852271874999957,
          "durationTicks": 120,
          "midi": 93,
          "name": "A6",
          "ticks": 159576,
          "time": 113.3351139375,
          "velocity": 0.30708661417322836
        },
        {
          "duration": 0.0852271874999957,
          "durationTicks": 120,
          "midi": 74,
          "name": "D5",
          "ticks": 159576,
          "time": 113.3351139375,
          "velocity": 0.30708661417322836
        },
        {
          "duration": 0.0852271874999957,
          "durationTicks": 120,
          "midi": 81,
          "name": "A5",
          "ticks": 159600,
          "time": 113.352159375,
          "velocity": 0.30708661417322836
        },
        {
          "duration": 0.0852271874999957,
          "durationTicks": 120,
          "midi": 86,
          "name": "D6",
          "ticks": 159600,
          "time": 113.352159375,
          "velocity": 0.30708661417322836
        },
        {
          "duration": 0.0852271874999957,
          "durationTicks": 120,
          "midi": 77,
          "name": "F5",
          "ticks": 159600,
          "time": 113.352159375,
          "velocity": 0.30708661417322836
        },
        {
          "duration": 0.0852271874999957,
          "durationTicks": 120,
          "midi": 93,
          "name": "A6",
          "ticks": 159600,
          "time": 113.352159375,
          "velocity": 0.30708661417322836
        },
        {
          "duration": 0.0852271874999957,
          "durationTicks": 120,
          "midi": 74,
          "name": "D5",
          "ticks": 159600,
          "time": 113.352159375,
          "velocity": 0.30708661417322836
        },
        {
          "duration": 0.0852271874999957,
          "durationTicks": 120,
          "midi": 89,
          "name": "F6",
          "ticks": 159600,
          "time": 113.352159375,
          "velocity": 0.30708661417322836
        },
        {
          "duration": 0.0852271875000099,
          "durationTicks": 120,
          "midi": 77,
          "name": "F5",
          "ticks": 159696,
          "time": 113.420341125,
          "velocity": 0.30708661417322836
        },
        {
          "duration": 0.0852271875000099,
          "durationTicks": 120,
          "midi": 40,
          "name": "E2",
          "ticks": 159696,
          "time": 113.420341125,
          "velocity": 0.30708661417322836
        },
        {
          "duration": 0.0852271875000099,
          "durationTicks": 120,
          "midi": 81,
          "name": "A5",
          "ticks": 159696,
          "time": 113.420341125,
          "velocity": 0.30708661417322836
        },
        {
          "duration": 0.0852271875000099,
          "durationTicks": 120,
          "midi": 40,
          "name": "E2",
          "ticks": 159696,
          "time": 113.420341125,
          "velocity": 0.30708661417322836
        },
        {
          "duration": 0.0852271875000099,
          "durationTicks": 120,
          "midi": 86,
          "name": "D6",
          "ticks": 159696,
          "time": 113.420341125,
          "velocity": 0.30708661417322836
        },
        {
          "duration": 0.0852271875000099,
          "durationTicks": 120,
          "midi": 93,
          "name": "A6",
          "ticks": 159696,
          "time": 113.420341125,
          "velocity": 0.30708661417322836
        },
        {
          "duration": 0.0852271875000099,
          "durationTicks": 120,
          "midi": 74,
          "name": "D5",
          "ticks": 159696,
          "time": 113.420341125,
          "velocity": 0.30708661417322836
        },
        {
          "duration": 0.0852271875000099,
          "durationTicks": 120,
          "midi": 93,
          "name": "A6",
          "ticks": 159696,
          "time": 113.420341125,
          "velocity": 0.30708661417322836
        },
        {
          "duration": 0.0852271875000099,
          "durationTicks": 120,
          "midi": 74,
          "name": "D5",
          "ticks": 159696,
          "time": 113.420341125,
          "velocity": 0.30708661417322836
        },
        {
          "duration": 0.0852271875000099,
          "durationTicks": 120,
          "midi": 86,
          "name": "D6",
          "ticks": 159696,
          "time": 113.420341125,
          "velocity": 0.30708661417322836
        },
        {
          "duration": 0.0852271875000099,
          "durationTicks": 120,
          "midi": 77,
          "name": "F5",
          "ticks": 159696,
          "time": 113.420341125,
          "velocity": 0.30708661417322836
        },
        {
          "duration": 0.0852271875000099,
          "durationTicks": 120,
          "midi": 89,
          "name": "F6",
          "ticks": 159696,
          "time": 113.420341125,
          "velocity": 0.30708661417322836
        },
        {
          "duration": 0.0852271875000099,
          "durationTicks": 120,
          "midi": 89,
          "name": "F6",
          "ticks": 159696,
          "time": 113.420341125,
          "velocity": 0.30708661417322836
        },
        {
          "duration": 0.0852271875000099,
          "durationTicks": 120,
          "midi": 81,
          "name": "A5",
          "ticks": 159696,
          "time": 113.420341125,
          "velocity": 0.30708661417322836
        },
        {
          "duration": 0.0852271875000099,
          "durationTicks": 120,
          "midi": 77,
          "name": "F5",
          "ticks": 159720,
          "time": 113.4373865625,
          "velocity": 0.30708661417322836
        },
        {
          "duration": 0.0852271875000099,
          "durationTicks": 120,
          "midi": 89,
          "name": "F6",
          "ticks": 159720,
          "time": 113.4373865625,
          "velocity": 0.30708661417322836
        },
        {
          "duration": 0.0852271875000099,
          "durationTicks": 120,
          "midi": 86,
          "name": "D6",
          "ticks": 159720,
          "time": 113.4373865625,
          "velocity": 0.30708661417322836
        },
        {
          "duration": 0.0852271875000099,
          "durationTicks": 120,
          "midi": 74,
          "name": "D5",
          "ticks": 159720,
          "time": 113.4373865625,
          "velocity": 0.30708661417322836
        },
        {
          "duration": 0.0852271875000099,
          "durationTicks": 120,
          "midi": 40,
          "name": "E2",
          "ticks": 159720,
          "time": 113.4373865625,
          "velocity": 0.30708661417322836
        },
        {
          "duration": 0.0852271875000099,
          "durationTicks": 120,
          "midi": 81,
          "name": "A5",
          "ticks": 159720,
          "time": 113.4373865625,
          "velocity": 0.30708661417322836
        },
        {
          "duration": 0.0852271875000099,
          "durationTicks": 120,
          "midi": 93,
          "name": "A6",
          "ticks": 159720,
          "time": 113.4373865625,
          "velocity": 0.30708661417322836
        },
        {
          "duration": 0.0852271874999957,
          "durationTicks": 120,
          "midi": 72,
          "name": "C5",
          "ticks": 159816,
          "time": 113.5055683125,
          "velocity": 0.30708661417322836
        },
        {
          "duration": 0.0852271874999957,
          "durationTicks": 120,
          "midi": 84,
          "name": "C6",
          "ticks": 159816,
          "time": 113.5055683125,
          "velocity": 0.30708661417322836
        },
        {
          "duration": 0.0852271874999957,
          "durationTicks": 120,
          "midi": 72,
          "name": "C5",
          "ticks": 159816,
          "time": 113.5055683125,
          "velocity": 0.30708661417322836
        },
        {
          "duration": 0.0852271874999957,
          "durationTicks": 120,
          "midi": 84,
          "name": "C6",
          "ticks": 159816,
          "time": 113.5055683125,
          "velocity": 0.30708661417322836
        },
        {
          "duration": 0.0852271874999957,
          "durationTicks": 120,
          "midi": 72,
          "name": "C5",
          "ticks": 159840,
          "time": 113.52261375,
          "velocity": 0.30708661417322836
        },
        {
          "duration": 0.0852271874999957,
          "durationTicks": 120,
          "midi": 84,
          "name": "C6",
          "ticks": 159840,
          "time": 113.52261375,
          "velocity": 0.30708661417322836
        },
        {
          "duration": 0.0852271874999957,
          "durationTicks": 120,
          "midi": 50,
          "name": "D3",
          "ticks": 159936,
          "time": 113.5907955,
          "velocity": 0.30708661417322836
        },
        {
          "duration": 0.0852271874999957,
          "durationTicks": 120,
          "midi": 52,
          "name": "E3",
          "ticks": 159936,
          "time": 113.5907955,
          "velocity": 0.30708661417322836
        },
        {
          "duration": 0.0852271874999957,
          "durationTicks": 120,
          "midi": 83,
          "name": "B5",
          "ticks": 159936,
          "time": 113.5907955,
          "velocity": 0.30708661417322836
        },
        {
          "duration": 0.0852271874999957,
          "durationTicks": 120,
          "midi": 52,
          "name": "E3",
          "ticks": 159936,
          "time": 113.5907955,
          "velocity": 0.30708661417322836
        },
        {
          "duration": 0.0852271874999957,
          "durationTicks": 120,
          "midi": 50,
          "name": "D3",
          "ticks": 159936,
          "time": 113.5907955,
          "velocity": 0.30708661417322836
        },
        {
          "duration": 0.0852271874999957,
          "durationTicks": 120,
          "midi": 71,
          "name": "B4",
          "ticks": 159936,
          "time": 113.5907955,
          "velocity": 0.30708661417322836
        },
        {
          "duration": 0.0852271874999957,
          "durationTicks": 120,
          "midi": 71,
          "name": "B4",
          "ticks": 159936,
          "time": 113.5907955,
          "velocity": 0.30708661417322836
        },
        {
          "duration": 0.0852271874999957,
          "durationTicks": 120,
          "midi": 83,
          "name": "B5",
          "ticks": 159936,
          "time": 113.5907955,
          "velocity": 0.30708661417322836
        },
        {
          "duration": 0.0852271874999957,
          "durationTicks": 120,
          "midi": 71,
          "name": "B4",
          "ticks": 159960,
          "time": 113.6078409375,
          "velocity": 0.30708661417322836
        },
        {
          "duration": 0.0852271874999957,
          "durationTicks": 120,
          "midi": 83,
          "name": "B5",
          "ticks": 159960,
          "time": 113.6078409375,
          "velocity": 0.30708661417322836
        },
        {
          "duration": 0.0852271874999957,
          "durationTicks": 120,
          "midi": 50,
          "name": "D3",
          "ticks": 159960,
          "time": 113.6078409375,
          "velocity": 0.30708661417322836
        },
        {
          "duration": 0.0852271874999957,
          "durationTicks": 120,
          "midi": 52,
          "name": "E3",
          "ticks": 159960,
          "time": 113.6078409375,
          "velocity": 0.30708661417322836
        },
        {
          "duration": 0.0852271875000099,
          "durationTicks": 120,
          "midi": 86,
          "name": "D6",
          "ticks": 160056,
          "time": 113.6760226875,
          "velocity": 0.30708661417322836
        },
        {
          "duration": 0.0852271875000099,
          "durationTicks": 120,
          "midi": 74,
          "name": "D5",
          "ticks": 160056,
          "time": 113.6760226875,
          "velocity": 0.30708661417322836
        },
        {
          "duration": 0.0852271875000099,
          "durationTicks": 120,
          "midi": 86,
          "name": "D6",
          "ticks": 160056,
          "time": 113.6760226875,
          "velocity": 0.30708661417322836
        },
        {
          "duration": 0.0852271875000099,
          "durationTicks": 120,
          "midi": 74,
          "name": "D5",
          "ticks": 160056,
          "time": 113.6760226875,
          "velocity": 0.30708661417322836
        },
        {
          "duration": 0.0852271874999957,
          "durationTicks": 120,
          "midi": 86,
          "name": "D6",
          "ticks": 160080,
          "time": 113.693068125,
          "velocity": 0.30708661417322836
        },
        {
          "duration": 0.0852271874999957,
          "durationTicks": 120,
          "midi": 74,
          "name": "D5",
          "ticks": 160080,
          "time": 113.693068125,
          "velocity": 0.30708661417322836
        },
        {
          "duration": 0.0852271874999957,
          "durationTicks": 120,
          "midi": 45,
          "name": "A2",
          "ticks": 160176,
          "time": 113.761249875,
          "velocity": 0.30708661417322836
        },
        {
          "duration": 0.0852271874999957,
          "durationTicks": 120,
          "midi": 88,
          "name": "E6",
          "ticks": 160176,
          "time": 113.761249875,
          "velocity": 0.30708661417322836
        },
        {
          "duration": 0.0852271874999957,
          "durationTicks": 120,
          "midi": 84,
          "name": "C6",
          "ticks": 160176,
          "time": 113.761249875,
          "velocity": 0.30708661417322836
        },
        {
          "duration": 0.0852271874999957,
          "durationTicks": 120,
          "midi": 76,
          "name": "E5",
          "ticks": 160176,
          "time": 113.761249875,
          "velocity": 0.30708661417322836
        },
        {
          "duration": 0.0852271874999957,
          "durationTicks": 120,
          "midi": 76,
          "name": "E5",
          "ticks": 160176,
          "time": 113.761249875,
          "velocity": 0.30708661417322836
        },
        {
          "duration": 0.0852271874999957,
          "durationTicks": 120,
          "midi": 84,
          "name": "C6",
          "ticks": 160176,
          "time": 113.761249875,
          "velocity": 0.30708661417322836
        },
        {
          "duration": 0.0852271874999957,
          "durationTicks": 120,
          "midi": 45,
          "name": "A2",
          "ticks": 160176,
          "time": 113.761249875,
          "velocity": 0.30708661417322836
        },
        {
          "duration": 0.0852271874999957,
          "durationTicks": 120,
          "midi": 81,
          "name": "A5",
          "ticks": 160176,
          "time": 113.761249875,
          "velocity": 0.30708661417322836
        },
        {
          "duration": 0.0852271874999957,
          "durationTicks": 120,
          "midi": 72,
          "name": "C5",
          "ticks": 160176,
          "time": 113.761249875,
          "velocity": 0.30708661417322836
        },
        {
          "duration": 0.0852271874999957,
          "durationTicks": 120,
          "midi": 88,
          "name": "E6",
          "ticks": 160176,
          "time": 113.761249875,
          "velocity": 0.30708661417322836
        },
        {
          "duration": 0.0852271874999957,
          "durationTicks": 120,
          "midi": 72,
          "name": "C5",
          "ticks": 160176,
          "time": 113.761249875,
          "velocity": 0.30708661417322836
        },
        {
          "duration": 0.0852271874999957,
          "durationTicks": 120,
          "midi": 93,
          "name": "A6",
          "ticks": 160176,
          "time": 113.761249875,
          "velocity": 0.30708661417322836
        },
        {
          "duration": 0.0852271874999957,
          "durationTicks": 120,
          "midi": 93,
          "name": "A6",
          "ticks": 160176,
          "time": 113.761249875,
          "velocity": 0.30708661417322836
        },
        {
          "duration": 0.0852271874999957,
          "durationTicks": 120,
          "midi": 81,
          "name": "A5",
          "ticks": 160176,
          "time": 113.761249875,
          "velocity": 0.30708661417322836
        },
        {
          "duration": 0.0852271875000099,
          "durationTicks": 120,
          "midi": 93,
          "name": "A6",
          "ticks": 160200,
          "time": 113.77829531249999,
          "velocity": 0.30708661417322836
        },
        {
          "duration": 0.0852271875000099,
          "durationTicks": 120,
          "midi": 88,
          "name": "E6",
          "ticks": 160200,
          "time": 113.77829531249999,
          "velocity": 0.30708661417322836
        },
        {
          "duration": 0.0852271875000099,
          "durationTicks": 120,
          "midi": 76,
          "name": "E5",
          "ticks": 160200,
          "time": 113.77829531249999,
          "velocity": 0.30708661417322836
        },
        {
          "duration": 0.0852271875000099,
          "durationTicks": 120,
          "midi": 81,
          "name": "A5",
          "ticks": 160200,
          "time": 113.77829531249999,
          "velocity": 0.30708661417322836
        },
        {
          "duration": 0.0852271875000099,
          "durationTicks": 120,
          "midi": 72,
          "name": "C5",
          "ticks": 160200,
          "time": 113.77829531249999,
          "velocity": 0.30708661417322836
        },
        {
          "duration": 0.0852271875000099,
          "durationTicks": 120,
          "midi": 45,
          "name": "A2",
          "ticks": 160200,
          "time": 113.77829531249999,
          "velocity": 0.30708661417322836
        },
        {
          "duration": 0.0852271875000099,
          "durationTicks": 120,
          "midi": 84,
          "name": "C6",
          "ticks": 160200,
          "time": 113.77829531249999,
          "velocity": 0.30708661417322836
        },
        {
          "duration": 0.0852271874999957,
          "durationTicks": 120,
          "midi": 76,
          "name": "E5",
          "ticks": 160296,
          "time": 113.8464770625,
          "velocity": 0.30708661417322836
        },
        {
          "duration": 0.0852271874999957,
          "durationTicks": 120,
          "midi": 84,
          "name": "C6",
          "ticks": 160296,
          "time": 113.8464770625,
          "velocity": 0.30708661417322836
        },
        {
          "duration": 0.0852271874999957,
          "durationTicks": 120,
          "midi": 93,
          "name": "A6",
          "ticks": 160296,
          "time": 113.8464770625,
          "velocity": 0.30708661417322836
        },
        {
          "duration": 0.0852271874999957,
          "durationTicks": 120,
          "midi": 93,
          "name": "A6",
          "ticks": 160296,
          "time": 113.8464770625,
          "velocity": 0.30708661417322836
        },
        {
          "duration": 0.0852271874999957,
          "durationTicks": 120,
          "midi": 84,
          "name": "C6",
          "ticks": 160296,
          "time": 113.8464770625,
          "velocity": 0.30708661417322836
        },
        {
          "duration": 0.0852271874999957,
          "durationTicks": 120,
          "midi": 72,
          "name": "C5",
          "ticks": 160296,
          "time": 113.8464770625,
          "velocity": 0.30708661417322836
        },
        {
          "duration": 0.0852271874999957,
          "durationTicks": 120,
          "midi": 81,
          "name": "A5",
          "ticks": 160296,
          "time": 113.8464770625,
          "velocity": 0.30708661417322836
        },
        {
          "duration": 0.0852271874999957,
          "durationTicks": 120,
          "midi": 88,
          "name": "E6",
          "ticks": 160296,
          "time": 113.8464770625,
          "velocity": 0.30708661417322836
        },
        {
          "duration": 0.0852271874999957,
          "durationTicks": 120,
          "midi": 76,
          "name": "E5",
          "ticks": 160296,
          "time": 113.8464770625,
          "velocity": 0.30708661417322836
        },
        {
          "duration": 0.0852271874999957,
          "durationTicks": 120,
          "midi": 81,
          "name": "A5",
          "ticks": 160296,
          "time": 113.8464770625,
          "velocity": 0.30708661417322836
        },
        {
          "duration": 0.0852271874999957,
          "durationTicks": 120,
          "midi": 72,
          "name": "C5",
          "ticks": 160296,
          "time": 113.8464770625,
          "velocity": 0.30708661417322836
        },
        {
          "duration": 0.0852271874999957,
          "durationTicks": 120,
          "midi": 88,
          "name": "E6",
          "ticks": 160296,
          "time": 113.8464770625,
          "velocity": 0.30708661417322836
        },
        {
          "duration": 0.0852271874999957,
          "durationTicks": 120,
          "midi": 84,
          "name": "C6",
          "ticks": 160320,
          "time": 113.8635225,
          "velocity": 0.30708661417322836
        },
        {
          "duration": 0.0852271874999957,
          "durationTicks": 120,
          "midi": 93,
          "name": "A6",
          "ticks": 160320,
          "time": 113.8635225,
          "velocity": 0.30708661417322836
        },
        {
          "duration": 0.0852271874999957,
          "durationTicks": 120,
          "midi": 88,
          "name": "E6",
          "ticks": 160320,
          "time": 113.8635225,
          "velocity": 0.30708661417322836
        },
        {
          "duration": 0.0852271874999957,
          "durationTicks": 120,
          "midi": 72,
          "name": "C5",
          "ticks": 160320,
          "time": 113.8635225,
          "velocity": 0.30708661417322836
        },
        {
          "duration": 0.0852271874999957,
          "durationTicks": 120,
          "midi": 81,
          "name": "A5",
          "ticks": 160320,
          "time": 113.8635225,
          "velocity": 0.30708661417322836
        },
        {
          "duration": 0.0852271874999957,
          "durationTicks": 120,
          "midi": 76,
          "name": "E5",
          "ticks": 160320,
          "time": 113.8635225,
          "velocity": 0.30708661417322836
        },
        {
          "duration": 0.0852271875000099,
          "durationTicks": 120,
          "midi": 84,
          "name": "C6",
          "ticks": 160416,
          "time": 113.93170425,
          "velocity": 0.30708661417322836
        },
        {
          "duration": 0.0852271875000099,
          "durationTicks": 120,
          "midi": 48,
          "name": "C3",
          "ticks": 160416,
          "time": 113.93170425,
          "velocity": 0.30708661417322836
        },
        {
          "duration": 0.0852271875000099,
          "durationTicks": 120,
          "midi": 84,
          "name": "C6",
          "ticks": 160416,
          "time": 113.93170425,
          "velocity": 0.30708661417322836
        },
        {
          "duration": 0.0852271875000099,
          "durationTicks": 120,
          "midi": 48,
          "name": "C3",
          "ticks": 160416,
          "time": 113.93170425,
          "velocity": 0.30708661417322836
        },
        {
          "duration": 0.0852271875000099,
          "durationTicks": 120,
          "midi": 76,
          "name": "E5",
          "ticks": 160416,
          "time": 113.93170425,
          "velocity": 0.30708661417322836
        },
        {
          "duration": 0.0852271875000099,
          "durationTicks": 120,
          "midi": 52,
          "name": "E3",
          "ticks": 160416,
          "time": 113.93170425,
          "velocity": 0.30708661417322836
        },
        {
          "duration": 0.0852271875000099,
          "durationTicks": 120,
          "midi": 72,
          "name": "C5",
          "ticks": 160416,
          "time": 113.93170425,
          "velocity": 0.30708661417322836
        },
        {
          "duration": 0.0852271875000099,
          "durationTicks": 120,
          "midi": 88,
          "name": "E6",
          "ticks": 160416,
          "time": 113.93170425,
          "velocity": 0.30708661417322836
        },
        {
          "duration": 0.0852271875000099,
          "durationTicks": 120,
          "midi": 81,
          "name": "A5",
          "ticks": 160416,
          "time": 113.93170425,
          "velocity": 0.30708661417322836
        },
        {
          "duration": 0.0852271875000099,
          "durationTicks": 120,
          "midi": 88,
          "name": "E6",
          "ticks": 160416,
          "time": 113.93170425,
          "velocity": 0.30708661417322836
        },
        {
          "duration": 0.0852271875000099,
          "durationTicks": 120,
          "midi": 81,
          "name": "A5",
          "ticks": 160416,
          "time": 113.93170425,
          "velocity": 0.30708661417322836
        },
        {
          "duration": 0.0852271875000099,
          "durationTicks": 120,
          "midi": 76,
          "name": "E5",
          "ticks": 160416,
          "time": 113.93170425,
          "velocity": 0.30708661417322836
        },
        {
          "duration": 0.0852271875000099,
          "durationTicks": 120,
          "midi": 72,
          "name": "C5",
          "ticks": 160416,
          "time": 113.93170425,
          "velocity": 0.30708661417322836
        },
        {
          "duration": 0.0852271875000099,
          "durationTicks": 120,
          "midi": 93,
          "name": "A6",
          "ticks": 160416,
          "time": 113.93170425,
          "velocity": 0.30708661417322836
        },
        {
          "duration": 0.0852271875000099,
          "durationTicks": 120,
          "midi": 93,
          "name": "A6",
          "ticks": 160416,
          "time": 113.93170425,
          "velocity": 0.30708661417322836
        },
        {
          "duration": 0.0852271875000099,
          "durationTicks": 120,
          "midi": 52,
          "name": "E3",
          "ticks": 160416,
          "time": 113.93170425,
          "velocity": 0.30708661417322836
        },
        {
          "duration": 0.0852271874999957,
          "durationTicks": 120,
          "midi": 52,
          "name": "E3",
          "ticks": 160440,
          "time": 113.9487496875,
          "velocity": 0.30708661417322836
        },
        {
          "duration": 0.0852271874999957,
          "durationTicks": 120,
          "midi": 84,
          "name": "C6",
          "ticks": 160440,
          "time": 113.9487496875,
          "velocity": 0.30708661417322836
        },
        {
          "duration": 0.0852271874999957,
          "durationTicks": 120,
          "midi": 93,
          "name": "A6",
          "ticks": 160440,
          "time": 113.9487496875,
          "velocity": 0.30708661417322836
        },
        {
          "duration": 0.0852271874999957,
          "durationTicks": 120,
          "midi": 81,
          "name": "A5",
          "ticks": 160440,
          "time": 113.9487496875,
          "velocity": 0.30708661417322836
        },
        {
          "duration": 0.0852271874999957,
          "durationTicks": 120,
          "midi": 88,
          "name": "E6",
          "ticks": 160440,
          "time": 113.9487496875,
          "velocity": 0.30708661417322836
        },
        {
          "duration": 0.0852271874999957,
          "durationTicks": 120,
          "midi": 48,
          "name": "C3",
          "ticks": 160440,
          "time": 113.9487496875,
          "velocity": 0.30708661417322836
        },
        {
          "duration": 0.0852271874999957,
          "durationTicks": 120,
          "midi": 76,
          "name": "E5",
          "ticks": 160440,
          "time": 113.9487496875,
          "velocity": 0.30708661417322836
        },
        {
          "duration": 0.0852271874999957,
          "durationTicks": 120,
          "midi": 72,
          "name": "C5",
          "ticks": 160440,
          "time": 113.9487496875,
          "velocity": 0.30708661417322836
        },
        {
          "duration": 0.0852271874999957,
          "durationTicks": 120,
          "midi": 76,
          "name": "E5",
          "ticks": 160536,
          "time": 114.0169314375,
          "velocity": 0.30708661417322836
        },
        {
          "duration": 0.0852271874999957,
          "durationTicks": 120,
          "midi": 88,
          "name": "E6",
          "ticks": 160536,
          "time": 114.0169314375,
          "velocity": 0.30708661417322836
        },
        {
          "duration": 0.0852271874999957,
          "durationTicks": 120,
          "midi": 93,
          "name": "A6",
          "ticks": 160536,
          "time": 114.0169314375,
          "velocity": 0.30708661417322836
        },
        {
          "duration": 0.0852271874999957,
          "durationTicks": 120,
          "midi": 72,
          "name": "C5",
          "ticks": 160536,
          "time": 114.0169314375,
          "velocity": 0.30708661417322836
        },
        {
          "duration": 0.0852271874999957,
          "durationTicks": 120,
          "midi": 84,
          "name": "C6",
          "ticks": 160536,
          "time": 114.0169314375,
          "velocity": 0.30708661417322836
        },
        {
          "duration": 0.0852271874999957,
          "durationTicks": 120,
          "midi": 88,
          "name": "E6",
          "ticks": 160536,
          "time": 114.0169314375,
          "velocity": 0.30708661417322836
        },
        {
          "duration": 0.0852271874999957,
          "durationTicks": 120,
          "midi": 81,
          "name": "A5",
          "ticks": 160536,
          "time": 114.0169314375,
          "velocity": 0.30708661417322836
        },
        {
          "duration": 0.0852271874999957,
          "durationTicks": 120,
          "midi": 84,
          "name": "C6",
          "ticks": 160536,
          "time": 114.0169314375,
          "velocity": 0.30708661417322836
        },
        {
          "duration": 0.0852271874999957,
          "durationTicks": 120,
          "midi": 93,
          "name": "A6",
          "ticks": 160536,
          "time": 114.0169314375,
          "velocity": 0.30708661417322836
        },
        {
          "duration": 0.0852271874999957,
          "durationTicks": 120,
          "midi": 72,
          "name": "C5",
          "ticks": 160536,
          "time": 114.0169314375,
          "velocity": 0.30708661417322836
        },
        {
          "duration": 0.0852271874999957,
          "durationTicks": 120,
          "midi": 81,
          "name": "A5",
          "ticks": 160536,
          "time": 114.0169314375,
          "velocity": 0.30708661417322836
        },
        {
          "duration": 0.0852271874999957,
          "durationTicks": 120,
          "midi": 76,
          "name": "E5",
          "ticks": 160536,
          "time": 114.0169314375,
          "velocity": 0.30708661417322836
        },
        {
          "duration": 0.0852271875000099,
          "durationTicks": 120,
          "midi": 81,
          "name": "A5",
          "ticks": 160560,
          "time": 114.033976875,
          "velocity": 0.30708661417322836
        },
        {
          "duration": 0.0852271875000099,
          "durationTicks": 120,
          "midi": 76,
          "name": "E5",
          "ticks": 160560,
          "time": 114.033976875,
          "velocity": 0.30708661417322836
        },
        {
          "duration": 0.0852271875000099,
          "durationTicks": 120,
          "midi": 84,
          "name": "C6",
          "ticks": 160560,
          "time": 114.033976875,
          "velocity": 0.30708661417322836
        },
        {
          "duration": 0.0852271875000099,
          "durationTicks": 120,
          "midi": 88,
          "name": "E6",
          "ticks": 160560,
          "time": 114.033976875,
          "velocity": 0.30708661417322836
        },
        {
          "duration": 0.0852271875000099,
          "durationTicks": 120,
          "midi": 72,
          "name": "C5",
          "ticks": 160560,
          "time": 114.033976875,
          "velocity": 0.30708661417322836
        },
        {
          "duration": 0.0852271875000099,
          "durationTicks": 120,
          "midi": 93,
          "name": "A6",
          "ticks": 160560,
          "time": 114.033976875,
          "velocity": 0.30708661417322836
        },
        {
          "duration": 0.0852271874999957,
          "durationTicks": 120,
          "midi": 84,
          "name": "C6",
          "ticks": 160656,
          "time": 114.102158625,
          "velocity": 0.30708661417322836
        },
        {
          "duration": 0.0852271874999957,
          "durationTicks": 120,
          "midi": 84,
          "name": "C6",
          "ticks": 160656,
          "time": 114.102158625,
          "velocity": 0.30708661417322836
        },
        {
          "duration": 0.0852271874999957,
          "durationTicks": 120,
          "midi": 76,
          "name": "E5",
          "ticks": 160656,
          "time": 114.102158625,
          "velocity": 0.30708661417322836
        },
        {
          "duration": 0.0852271874999957,
          "durationTicks": 120,
          "midi": 81,
          "name": "A5",
          "ticks": 160656,
          "time": 114.102158625,
          "velocity": 0.30708661417322836
        },
        {
          "duration": 0.0852271874999957,
          "durationTicks": 120,
          "midi": 72,
          "name": "C5",
          "ticks": 160656,
          "time": 114.102158625,
          "velocity": 0.30708661417322836
        },
        {
          "duration": 0.0852271874999957,
          "durationTicks": 120,
          "midi": 93,
          "name": "A6",
          "ticks": 160656,
          "time": 114.102158625,
          "velocity": 0.30708661417322836
        },
        {
          "duration": 0.0852271874999957,
          "durationTicks": 120,
          "midi": 40,
          "name": "E2",
          "ticks": 160656,
          "time": 114.102158625,
          "velocity": 0.30708661417322836
        },
        {
          "duration": 0.0852271874999957,
          "durationTicks": 120,
          "midi": 72,
          "name": "C5",
          "ticks": 160656,
          "time": 114.102158625,
          "velocity": 0.30708661417322836
        },
        {
          "duration": 0.0852271874999957,
          "durationTicks": 120,
          "midi": 93,
          "name": "A6",
          "ticks": 160656,
          "time": 114.102158625,
          "velocity": 0.30708661417322836
        },
        {
          "duration": 0.0852271874999957,
          "durationTicks": 120,
          "midi": 81,
          "name": "A5",
          "ticks": 160656,
          "time": 114.102158625,
          "velocity": 0.30708661417322836
        },
        {
          "duration": 0.0852271874999957,
          "durationTicks": 120,
          "midi": 76,
          "name": "E5",
          "ticks": 160656,
          "time": 114.102158625,
          "velocity": 0.30708661417322836
        },
        {
          "duration": 0.0852271874999957,
          "durationTicks": 120,
          "midi": 88,
          "name": "E6",
          "ticks": 160656,
          "time": 114.102158625,
          "velocity": 0.30708661417322836
        },
        {
          "duration": 0.0852271874999957,
          "durationTicks": 120,
          "midi": 88,
          "name": "E6",
          "ticks": 160656,
          "time": 114.102158625,
          "velocity": 0.30708661417322836
        },
        {
          "duration": 0.0852271874999957,
          "durationTicks": 120,
          "midi": 40,
          "name": "E2",
          "ticks": 160656,
          "time": 114.102158625,
          "velocity": 0.30708661417322836
        },
        {
          "duration": 0.0852271874999957,
          "durationTicks": 120,
          "midi": 88,
          "name": "E6",
          "ticks": 160680,
          "time": 114.1192040625,
          "velocity": 0.30708661417322836
        },
        {
          "duration": 0.0852271874999957,
          "durationTicks": 120,
          "midi": 76,
          "name": "E5",
          "ticks": 160680,
          "time": 114.1192040625,
          "velocity": 0.30708661417322836
        },
        {
          "duration": 0.0852271874999957,
          "durationTicks": 120,
          "midi": 81,
          "name": "A5",
          "ticks": 160680,
          "time": 114.1192040625,
          "velocity": 0.30708661417322836
        },
        {
          "duration": 0.0852271874999957,
          "durationTicks": 120,
          "midi": 40,
          "name": "E2",
          "ticks": 160680,
          "time": 114.1192040625,
          "velocity": 0.30708661417322836
        },
        {
          "duration": 0.0852271874999957,
          "durationTicks": 120,
          "midi": 72,
          "name": "C5",
          "ticks": 160680,
          "time": 114.1192040625,
          "velocity": 0.30708661417322836
        },
        {
          "duration": 0.0852271874999957,
          "durationTicks": 120,
          "midi": 93,
          "name": "A6",
          "ticks": 160680,
          "time": 114.1192040625,
          "velocity": 0.30708661417322836
        },
        {
          "duration": 0.0852271874999957,
          "durationTicks": 120,
          "midi": 84,
          "name": "C6",
          "ticks": 160680,
          "time": 114.1192040625,
          "velocity": 0.30708661417322836
        },
        {
          "duration": 0.0852271874999957,
          "durationTicks": 120,
          "midi": 83,
          "name": "B5",
          "ticks": 160776,
          "time": 114.1873858125,
          "velocity": 0.30708661417322836
        },
        {
          "duration": 0.0852271874999957,
          "durationTicks": 120,
          "midi": 83,
          "name": "B5",
          "ticks": 160776,
          "time": 114.1873858125,
          "velocity": 0.30708661417322836
        },
        {
          "duration": 0.0852271874999957,
          "durationTicks": 120,
          "midi": 71,
          "name": "B4",
          "ticks": 160776,
          "time": 114.1873858125,
          "velocity": 0.30708661417322836
        },
        {
          "duration": 0.0852271874999957,
          "durationTicks": 120,
          "midi": 71,
          "name": "B4",
          "ticks": 160776,
          "time": 114.1873858125,
          "velocity": 0.30708661417322836
        },
        {
          "duration": 0.0852271874999957,
          "durationTicks": 120,
          "midi": 71,
          "name": "B4",
          "ticks": 160800,
          "time": 114.20443125,
          "velocity": 0.30708661417322836
        },
        {
          "duration": 0.0852271874999957,
          "durationTicks": 120,
          "midi": 83,
          "name": "B5",
          "ticks": 160800,
          "time": 114.20443125,
          "velocity": 0.30708661417322836
        },
        {
          "duration": 0.0852271875000099,
          "durationTicks": 120,
          "midi": 52,
          "name": "E3",
          "ticks": 160896,
          "time": 114.27261299999999,
          "velocity": 0.30708661417322836
        },
        {
          "duration": 0.0852271875000099,
          "durationTicks": 120,
          "midi": 81,
          "name": "A5",
          "ticks": 160896,
          "time": 114.27261299999999,
          "velocity": 0.30708661417322836
        },
        {
          "duration": 0.0852271875000099,
          "durationTicks": 120,
          "midi": 81,
          "name": "A5",
          "ticks": 160896,
          "time": 114.27261299999999,
          "velocity": 0.30708661417322836
        },
        {
          "duration": 0.0852271875000099,
          "durationTicks": 120,
          "midi": 48,
          "name": "C3",
          "ticks": 160896,
          "time": 114.27261299999999,
          "velocity": 0.30708661417322836
        },
        {
          "duration": 0.0852271875000099,
          "durationTicks": 120,
          "midi": 69,
          "name": "A4",
          "ticks": 160896,
          "time": 114.27261299999999,
          "velocity": 0.30708661417322836
        },
        {
          "duration": 0.0852271875000099,
          "durationTicks": 120,
          "midi": 69,
          "name": "A4",
          "ticks": 160896,
          "time": 114.27261299999999,
          "velocity": 0.30708661417322836
        },
        {
          "duration": 0.0852271875000099,
          "durationTicks": 120,
          "midi": 52,
          "name": "E3",
          "ticks": 160896,
          "time": 114.27261299999999,
          "velocity": 0.30708661417322836
        },
        {
          "duration": 0.0852271875000099,
          "durationTicks": 120,
          "midi": 48,
          "name": "C3",
          "ticks": 160896,
          "time": 114.27261299999999,
          "velocity": 0.30708661417322836
        },
        {
          "duration": 0.0852271875000099,
          "durationTicks": 120,
          "midi": 69,
          "name": "A4",
          "ticks": 160920,
          "time": 114.2896584375,
          "velocity": 0.30708661417322836
        },
        {
          "duration": 0.0852271875000099,
          "durationTicks": 120,
          "midi": 52,
          "name": "E3",
          "ticks": 160920,
          "time": 114.2896584375,
          "velocity": 0.30708661417322836
        },
        {
          "duration": 0.0852271875000099,
          "durationTicks": 120,
          "midi": 81,
          "name": "A5",
          "ticks": 160920,
          "time": 114.2896584375,
          "velocity": 0.30708661417322836
        },
        {
          "duration": 0.0852271875000099,
          "durationTicks": 120,
          "midi": 48,
          "name": "C3",
          "ticks": 160920,
          "time": 114.2896584375,
          "velocity": 0.30708661417322836
        },
        {
          "duration": 0.0852271874999957,
          "durationTicks": 120,
          "midi": 72,
          "name": "C5",
          "ticks": 161016,
          "time": 114.3578401875,
          "velocity": 0.30708661417322836
        },
        {
          "duration": 0.0852271874999957,
          "durationTicks": 120,
          "midi": 84,
          "name": "C6",
          "ticks": 161016,
          "time": 114.3578401875,
          "velocity": 0.30708661417322836
        },
        {
          "duration": 0.0852271874999957,
          "durationTicks": 120,
          "midi": 72,
          "name": "C5",
          "ticks": 161016,
          "time": 114.3578401875,
          "velocity": 0.30708661417322836
        },
        {
          "duration": 0.0852271874999957,
          "durationTicks": 120,
          "midi": 84,
          "name": "C6",
          "ticks": 161016,
          "time": 114.3578401875,
          "velocity": 0.30708661417322836
        },
        {
          "duration": 0.0852271874999957,
          "durationTicks": 120,
          "midi": 84,
          "name": "C6",
          "ticks": 161040,
          "time": 114.374885625,
          "velocity": 0.30708661417322836
        },
        {
          "duration": 0.0852271874999957,
          "durationTicks": 120,
          "midi": 72,
          "name": "C5",
          "ticks": 161040,
          "time": 114.374885625,
          "velocity": 0.30708661417322836
        },
        {
          "duration": 0.0852271874999957,
          "durationTicks": 120,
          "midi": 93,
          "name": "A6",
          "ticks": 161136,
          "time": 114.443067375,
          "velocity": 0.30708661417322836
        },
        {
          "duration": 0.0852271874999957,
          "durationTicks": 120,
          "midi": 83,
          "name": "B5",
          "ticks": 161136,
          "time": 114.443067375,
          "velocity": 0.30708661417322836
        },
        {
          "duration": 0.0852271874999957,
          "durationTicks": 120,
          "midi": 88,
          "name": "E6",
          "ticks": 161136,
          "time": 114.443067375,
          "velocity": 0.30708661417322836
        },
        {
          "duration": 0.0852271874999957,
          "durationTicks": 120,
          "midi": 71,
          "name": "B4",
          "ticks": 161136,
          "time": 114.443067375,
          "velocity": 0.30708661417322836
        },
        {
          "duration": 0.0852271874999957,
          "durationTicks": 120,
          "midi": 71,
          "name": "B4",
          "ticks": 161136,
          "time": 114.443067375,
          "velocity": 0.30708661417322836
        },
        {
          "duration": 0.0852271874999957,
          "durationTicks": 120,
          "midi": 80,
          "name": "G#5",
          "ticks": 161136,
          "time": 114.443067375,
          "velocity": 0.30708661417322836
        },
        {
          "duration": 0.0852271874999957,
          "durationTicks": 120,
          "midi": 47,
          "name": "B2",
          "ticks": 161136,
          "time": 114.443067375,
          "velocity": 0.30708661417322836
        },
        {
          "duration": 0.0852271874999957,
          "durationTicks": 120,
          "midi": 47,
          "name": "B2",
          "ticks": 161136,
          "time": 114.443067375,
          "velocity": 0.30708661417322836
        },
        {
          "duration": 0.0852271874999957,
          "durationTicks": 120,
          "midi": 76,
          "name": "E5",
          "ticks": 161136,
          "time": 114.443067375,
          "velocity": 0.30708661417322836
        },
        {
          "duration": 0.0852271874999957,
          "durationTicks": 120,
          "midi": 83,
          "name": "B5",
          "ticks": 161136,
          "time": 114.443067375,
          "velocity": 0.30708661417322836
        },
        {
          "duration": 0.0852271874999957,
          "durationTicks": 120,
          "midi": 88,
          "name": "E6",
          "ticks": 161136,
          "time": 114.443067375,
          "velocity": 0.30708661417322836
        },
        {
          "duration": 0.0852271874999957,
          "durationTicks": 120,
          "midi": 93,
          "name": "A6",
          "ticks": 161136,
          "time": 114.443067375,
          "velocity": 0.30708661417322836
        },
        {
          "duration": 0.0852271874999957,
          "durationTicks": 120,
          "midi": 76,
          "name": "E5",
          "ticks": 161136,
          "time": 114.443067375,
          "velocity": 0.30708661417322836
        },
        {
          "duration": 0.0852271874999957,
          "durationTicks": 120,
          "midi": 80,
          "name": "G#5",
          "ticks": 161136,
          "time": 114.443067375,
          "velocity": 0.30708661417322836
        },
        {
          "duration": 0.0852271874999957,
          "durationTicks": 120,
          "midi": 93,
          "name": "A6",
          "ticks": 161160,
          "time": 114.4601128125,
          "velocity": 0.30708661417322836
        },
        {
          "duration": 0.0852271874999957,
          "durationTicks": 120,
          "midi": 47,
          "name": "B2",
          "ticks": 161160,
          "time": 114.4601128125,
          "velocity": 0.30708661417322836
        },
        {
          "duration": 0.0852271874999957,
          "durationTicks": 120,
          "midi": 71,
          "name": "B4",
          "ticks": 161160,
          "time": 114.4601128125,
          "velocity": 0.30708661417322836
        },
        {
          "duration": 0.0852271874999957,
          "durationTicks": 120,
          "midi": 83,
          "name": "B5",
          "ticks": 161160,
          "time": 114.4601128125,
          "velocity": 0.30708661417322836
        },
        {
          "duration": 0.0852271874999957,
          "durationTicks": 120,
          "midi": 80,
          "name": "G#5",
          "ticks": 161160,
          "time": 114.4601128125,
          "velocity": 0.30708661417322836
        },
        {
          "duration": 0.0852271874999957,
          "durationTicks": 120,
          "midi": 88,
          "name": "E6",
          "ticks": 161160,
          "time": 114.4601128125,
          "velocity": 0.30708661417322836
        },
        {
          "duration": 0.0852271874999957,
          "durationTicks": 120,
          "midi": 76,
          "name": "E5",
          "ticks": 161160,
          "time": 114.4601128125,
          "velocity": 0.30708661417322836
        },
        {
          "duration": 0.0852271875000099,
          "durationTicks": 120,
          "midi": 83,
          "name": "B5",
          "ticks": 161256,
          "time": 114.5282945625,
          "velocity": 0.30708661417322836
        },
        {
          "duration": 0.0852271875000099,
          "durationTicks": 120,
          "midi": 76,
          "name": "E5",
          "ticks": 161256,
          "time": 114.5282945625,
          "velocity": 0.30708661417322836
        },
        {
          "duration": 0.0852271875000099,
          "durationTicks": 120,
          "midi": 83,
          "name": "B5",
          "ticks": 161256,
          "time": 114.5282945625,
          "velocity": 0.30708661417322836
        },
        {
          "duration": 0.0852271875000099,
          "durationTicks": 120,
          "midi": 80,
          "name": "G#5",
          "ticks": 161256,
          "time": 114.5282945625,
          "velocity": 0.30708661417322836
        },
        {
          "duration": 0.0852271875000099,
          "durationTicks": 120,
          "midi": 88,
          "name": "E6",
          "ticks": 161256,
          "time": 114.5282945625,
          "velocity": 0.30708661417322836
        },
        {
          "duration": 0.0852271875000099,
          "durationTicks": 120,
          "midi": 76,
          "name": "E5",
          "ticks": 161256,
          "time": 114.5282945625,
          "velocity": 0.30708661417322836
        },
        {
          "duration": 0.0852271875000099,
          "durationTicks": 120,
          "midi": 80,
          "name": "G#5",
          "ticks": 161256,
          "time": 114.5282945625,
          "velocity": 0.30708661417322836
        },
        {
          "duration": 0.0852271875000099,
          "durationTicks": 120,
          "midi": 93,
          "name": "A6",
          "ticks": 161256,
          "time": 114.5282945625,
          "velocity": 0.30708661417322836
        },
        {
          "duration": 0.0852271875000099,
          "durationTicks": 120,
          "midi": 71,
          "name": "B4",
          "ticks": 161256,
          "time": 114.5282945625,
          "velocity": 0.30708661417322836
        },
        {
          "duration": 0.0852271875000099,
          "durationTicks": 120,
          "midi": 71,
          "name": "B4",
          "ticks": 161256,
          "time": 114.5282945625,
          "velocity": 0.30708661417322836
        },
        {
          "duration": 0.0852271875000099,
          "durationTicks": 120,
          "midi": 88,
          "name": "E6",
          "ticks": 161256,
          "time": 114.5282945625,
          "velocity": 0.30708661417322836
        },
        {
          "duration": 0.0852271875000099,
          "durationTicks": 120,
          "midi": 93,
          "name": "A6",
          "ticks": 161256,
          "time": 114.5282945625,
          "velocity": 0.30708661417322836
        },
        {
          "duration": 0.0852271875000099,
          "durationTicks": 120,
          "midi": 93,
          "name": "A6",
          "ticks": 161280,
          "time": 114.54534,
          "velocity": 0.30708661417322836
        },
        {
          "duration": 0.0852271875000099,
          "durationTicks": 120,
          "midi": 76,
          "name": "E5",
          "ticks": 161280,
          "time": 114.54534,
          "velocity": 0.30708661417322836
        },
        {
          "duration": 0.0852271875000099,
          "durationTicks": 120,
          "midi": 83,
          "name": "B5",
          "ticks": 161280,
          "time": 114.54534,
          "velocity": 0.30708661417322836
        },
        {
          "duration": 0.0852271875000099,
          "durationTicks": 120,
          "midi": 71,
          "name": "B4",
          "ticks": 161280,
          "time": 114.54534,
          "velocity": 0.30708661417322836
        },
        {
          "duration": 0.0852271875000099,
          "durationTicks": 120,
          "midi": 88,
          "name": "E6",
          "ticks": 161280,
          "time": 114.54534,
          "velocity": 0.30708661417322836
        },
        {
          "duration": 0.0852271875000099,
          "durationTicks": 120,
          "midi": 80,
          "name": "G#5",
          "ticks": 161280,
          "time": 114.54534,
          "velocity": 0.30708661417322836
        },
        {
          "duration": 0.0852271874999957,
          "durationTicks": 120,
          "midi": 83,
          "name": "B5",
          "ticks": 161376,
          "time": 114.61352175,
          "velocity": 0.30708661417322836
        },
        {
          "duration": 0.0852271874999957,
          "durationTicks": 120,
          "midi": 51,
          "name": "D#3",
          "ticks": 161376,
          "time": 114.61352175,
          "velocity": 0.30708661417322836
        },
        {
          "duration": 0.0852271874999957,
          "durationTicks": 120,
          "midi": 80,
          "name": "G#5",
          "ticks": 161376,
          "time": 114.61352175,
          "velocity": 0.30708661417322836
        },
        {
          "duration": 0.0852271874999957,
          "durationTicks": 120,
          "midi": 59,
          "name": "B3",
          "ticks": 161376,
          "time": 114.61352175,
          "velocity": 0.30708661417322836
        },
        {
          "duration": 0.0852271874999957,
          "durationTicks": 120,
          "midi": 76,
          "name": "E5",
          "ticks": 161376,
          "time": 114.61352175,
          "velocity": 0.30708661417322836
        },
        {
          "duration": 0.0852271874999957,
          "durationTicks": 120,
          "midi": 83,
          "name": "B5",
          "ticks": 161376,
          "time": 114.61352175,
          "velocity": 0.30708661417322836
        },
        {
          "duration": 0.0852271874999957,
          "durationTicks": 120,
          "midi": 76,
          "name": "E5",
          "ticks": 161376,
          "time": 114.61352175,
          "velocity": 0.30708661417322836
        },
        {
          "duration": 0.0852271874999957,
          "durationTicks": 120,
          "midi": 88,
          "name": "E6",
          "ticks": 161376,
          "time": 114.61352175,
          "velocity": 0.30708661417322836
        },
        {
          "duration": 0.0852271874999957,
          "durationTicks": 120,
          "midi": 93,
          "name": "A6",
          "ticks": 161376,
          "time": 114.61352175,
          "velocity": 0.30708661417322836
        },
        {
          "duration": 0.0852271874999957,
          "durationTicks": 120,
          "midi": 59,
          "name": "B3",
          "ticks": 161376,
          "time": 114.61352175,
          "velocity": 0.30708661417322836
        },
        {
          "duration": 0.0852271874999957,
          "durationTicks": 120,
          "midi": 88,
          "name": "E6",
          "ticks": 161376,
          "time": 114.61352175,
          "velocity": 0.30708661417322836
        },
        {
          "duration": 0.0852271874999957,
          "durationTicks": 120,
          "midi": 93,
          "name": "A6",
          "ticks": 161376,
          "time": 114.61352175,
          "velocity": 0.30708661417322836
        },
        {
          "duration": 0.0852271874999957,
          "durationTicks": 120,
          "midi": 51,
          "name": "D#3",
          "ticks": 161376,
          "time": 114.61352175,
          "velocity": 0.30708661417322836
        },
        {
          "duration": 0.0852271874999957,
          "durationTicks": 120,
          "midi": 80,
          "name": "G#5",
          "ticks": 161376,
          "time": 114.61352175,
          "velocity": 0.30708661417322836
        },
        {
          "duration": 0.0852271874999957,
          "durationTicks": 120,
          "midi": 71,
          "name": "B4",
          "ticks": 161376,
          "time": 114.61352175,
          "velocity": 0.30708661417322836
        },
        {
          "duration": 0.0852271874999957,
          "durationTicks": 120,
          "midi": 71,
          "name": "B4",
          "ticks": 161376,
          "time": 114.61352175,
          "velocity": 0.30708661417322836
        },
        {
          "duration": 0.0852271874999957,
          "durationTicks": 120,
          "midi": 59,
          "name": "B3",
          "ticks": 161400,
          "time": 114.6305671875,
          "velocity": 0.30708661417322836
        },
        {
          "duration": 0.0852271874999957,
          "durationTicks": 120,
          "midi": 51,
          "name": "D#3",
          "ticks": 161400,
          "time": 114.6305671875,
          "velocity": 0.30708661417322836
        },
        {
          "duration": 0.0852271874999957,
          "durationTicks": 120,
          "midi": 76,
          "name": "E5",
          "ticks": 161400,
          "time": 114.6305671875,
          "velocity": 0.30708661417322836
        },
        {
          "duration": 0.0852271874999957,
          "durationTicks": 120,
          "midi": 71,
          "name": "B4",
          "ticks": 161400,
          "time": 114.6305671875,
          "velocity": 0.30708661417322836
        },
        {
          "duration": 0.0852271874999957,
          "durationTicks": 120,
          "midi": 88,
          "name": "E6",
          "ticks": 161400,
          "time": 114.6305671875,
          "velocity": 0.30708661417322836
        },
        {
          "duration": 0.0852271874999957,
          "durationTicks": 120,
          "midi": 83,
          "name": "B5",
          "ticks": 161400,
          "time": 114.6305671875,
          "velocity": 0.30708661417322836
        },
        {
          "duration": 0.0852271874999957,
          "durationTicks": 120,
          "midi": 93,
          "name": "A6",
          "ticks": 161400,
          "time": 114.6305671875,
          "velocity": 0.30708661417322836
        },
        {
          "duration": 0.0852271874999957,
          "durationTicks": 120,
          "midi": 80,
          "name": "G#5",
          "ticks": 161400,
          "time": 114.6305671875,
          "velocity": 0.30708661417322836
        },
        {
          "duration": 0.0852271874999957,
          "durationTicks": 120,
          "midi": 71,
          "name": "B4",
          "ticks": 161496,
          "time": 114.6987489375,
          "velocity": 0.30708661417322836
        },
        {
          "duration": 0.0852271874999957,
          "durationTicks": 120,
          "midi": 83,
          "name": "B5",
          "ticks": 161496,
          "time": 114.6987489375,
          "velocity": 0.30708661417322836
        },
        {
          "duration": 0.0852271874999957,
          "durationTicks": 120,
          "midi": 88,
          "name": "E6",
          "ticks": 161496,
          "time": 114.6987489375,
          "velocity": 0.30708661417322836
        },
        {
          "duration": 0.0852271874999957,
          "durationTicks": 120,
          "midi": 93,
          "name": "A6",
          "ticks": 161496,
          "time": 114.6987489375,
          "velocity": 0.30708661417322836
        },
        {
          "duration": 0.0852271874999957,
          "durationTicks": 120,
          "midi": 80,
          "name": "G#5",
          "ticks": 161496,
          "time": 114.6987489375,
          "velocity": 0.30708661417322836
        },
        {
          "duration": 0.0852271874999957,
          "durationTicks": 120,
          "midi": 83,
          "name": "B5",
          "ticks": 161496,
          "time": 114.6987489375,
          "velocity": 0.30708661417322836
        },
        {
          "duration": 0.0852271874999957,
          "durationTicks": 120,
          "midi": 93,
          "name": "A6",
          "ticks": 161496,
          "time": 114.6987489375,
          "velocity": 0.30708661417322836
        },
        {
          "duration": 0.0852271874999957,
          "durationTicks": 120,
          "midi": 71,
          "name": "B4",
          "ticks": 161496,
          "time": 114.6987489375,
          "velocity": 0.30708661417322836
        },
        {
          "duration": 0.0852271874999957,
          "durationTicks": 120,
          "midi": 88,
          "name": "E6",
          "ticks": 161496,
          "time": 114.6987489375,
          "velocity": 0.30708661417322836
        },
        {
          "duration": 0.0852271874999957,
          "durationTicks": 120,
          "midi": 76,
          "name": "E5",
          "ticks": 161496,
          "time": 114.6987489375,
          "velocity": 0.30708661417322836
        },
        {
          "duration": 0.0852271874999957,
          "durationTicks": 120,
          "midi": 76,
          "name": "E5",
          "ticks": 161496,
          "time": 114.6987489375,
          "velocity": 0.30708661417322836
        },
        {
          "duration": 0.0852271874999957,
          "durationTicks": 120,
          "midi": 80,
          "name": "G#5",
          "ticks": 161496,
          "time": 114.6987489375,
          "velocity": 0.30708661417322836
        },
        {
          "duration": 0.0852271874999957,
          "durationTicks": 120,
          "midi": 88,
          "name": "E6",
          "ticks": 161520,
          "time": 114.715794375,
          "velocity": 0.30708661417322836
        },
        {
          "duration": 0.0852271874999957,
          "durationTicks": 120,
          "midi": 76,
          "name": "E5",
          "ticks": 161520,
          "time": 114.715794375,
          "velocity": 0.30708661417322836
        },
        {
          "duration": 0.0852271874999957,
          "durationTicks": 120,
          "midi": 83,
          "name": "B5",
          "ticks": 161520,
          "time": 114.715794375,
          "velocity": 0.30708661417322836
        },
        {
          "duration": 0.0852271874999957,
          "durationTicks": 120,
          "midi": 71,
          "name": "B4",
          "ticks": 161520,
          "time": 114.715794375,
          "velocity": 0.30708661417322836
        },
        {
          "duration": 0.0852271874999957,
          "durationTicks": 120,
          "midi": 93,
          "name": "A6",
          "ticks": 161520,
          "time": 114.715794375,
          "velocity": 0.30708661417322836
        },
        {
          "duration": 0.0852271874999957,
          "durationTicks": 120,
          "midi": 80,
          "name": "G#5",
          "ticks": 161520,
          "time": 114.715794375,
          "velocity": 0.30708661417322836
        },
        {
          "duration": 0.0852271875000099,
          "durationTicks": 120,
          "midi": 74,
          "name": "D5",
          "ticks": 161616,
          "time": 114.783976125,
          "velocity": 0.30708661417322836
        },
        {
          "duration": 0.0852271875000099,
          "durationTicks": 120,
          "midi": 66,
          "name": "F#4",
          "ticks": 161616,
          "time": 114.783976125,
          "velocity": 0.30708661417322836
        },
        {
          "duration": 0.0852271875000099,
          "durationTicks": 120,
          "midi": 42,
          "name": "F#2",
          "ticks": 161616,
          "time": 114.783976125,
          "velocity": 0.30708661417322836
        },
        {
          "duration": 0.0852271875000099,
          "durationTicks": 120,
          "midi": 78,
          "name": "F#5",
          "ticks": 161616,
          "time": 114.783976125,
          "velocity": 0.30708661417322836
        },
        {
          "duration": 0.0852271875000099,
          "durationTicks": 120,
          "midi": 69,
          "name": "A4",
          "ticks": 161616,
          "time": 114.783976125,
          "velocity": 0.30708661417322836
        },
        {
          "duration": 0.0852271875000099,
          "durationTicks": 120,
          "midi": 66,
          "name": "F#4",
          "ticks": 161616,
          "time": 114.783976125,
          "velocity": 0.30708661417322836
        },
        {
          "duration": 0.0852271875000099,
          "durationTicks": 120,
          "midi": 78,
          "name": "F#5",
          "ticks": 161616,
          "time": 114.783976125,
          "velocity": 0.30708661417322836
        },
        {
          "duration": 0.0852271875000099,
          "durationTicks": 120,
          "midi": 74,
          "name": "D5",
          "ticks": 161616,
          "time": 114.783976125,
          "velocity": 0.30708661417322836
        },
        {
          "duration": 0.0852271875000099,
          "durationTicks": 120,
          "midi": 42,
          "name": "F#2",
          "ticks": 161616,
          "time": 114.783976125,
          "velocity": 0.30708661417322836
        },
        {
          "duration": 0.0852271875000099,
          "durationTicks": 120,
          "midi": 69,
          "name": "A4",
          "ticks": 161616,
          "time": 114.783976125,
          "velocity": 0.30708661417322836
        },
        {
          "duration": 0.0852271874999957,
          "durationTicks": 120,
          "midi": 42,
          "name": "F#2",
          "ticks": 161640,
          "time": 114.8010215625,
          "velocity": 0.30708661417322836
        },
        {
          "duration": 0.0852271874999957,
          "durationTicks": 120,
          "midi": 74,
          "name": "D5",
          "ticks": 161640,
          "time": 114.8010215625,
          "velocity": 0.30708661417322836
        },
        {
          "duration": 0.0852271874999957,
          "durationTicks": 120,
          "midi": 78,
          "name": "F#5",
          "ticks": 161640,
          "time": 114.8010215625,
          "velocity": 0.30708661417322836
        },
        {
          "duration": 0.0852271874999957,
          "durationTicks": 120,
          "midi": 69,
          "name": "A4",
          "ticks": 161640,
          "time": 114.8010215625,
          "velocity": 0.30708661417322836
        },
        {
          "duration": 0.0852271874999957,
          "durationTicks": 120,
          "midi": 66,
          "name": "F#4",
          "ticks": 161640,
          "time": 114.8010215625,
          "velocity": 0.30708661417322836
        },
        {
          "duration": 0.0852271874999957,
          "durationTicks": 120,
          "midi": 51,
          "name": "D#3",
          "ticks": 161856,
          "time": 114.9544305,
          "velocity": 0.30708661417322836
        },
        {
          "duration": 0.0852271874999957,
          "durationTicks": 120,
          "midi": 71,
          "name": "B4",
          "ticks": 161856,
          "time": 114.9544305,
          "velocity": 0.30708661417322836
        },
        {
          "duration": 0.0852271874999957,
          "durationTicks": 120,
          "midi": 78,
          "name": "F#5",
          "ticks": 161856,
          "time": 114.9544305,
          "velocity": 0.30708661417322836
        },
        {
          "duration": 0.0852271874999957,
          "durationTicks": 120,
          "midi": 51,
          "name": "D#3",
          "ticks": 161856,
          "time": 114.9544305,
          "velocity": 0.30708661417322836
        },
        {
          "duration": 0.0852271874999957,
          "durationTicks": 120,
          "midi": 74,
          "name": "D5",
          "ticks": 161856,
          "time": 114.9544305,
          "velocity": 0.30708661417322836
        },
        {
          "duration": 0.0852271874999957,
          "durationTicks": 120,
          "midi": 74,
          "name": "D5",
          "ticks": 161856,
          "time": 114.9544305,
          "velocity": 0.30708661417322836
        },
        {
          "duration": 0.0852271874999957,
          "durationTicks": 120,
          "midi": 83,
          "name": "B5",
          "ticks": 161856,
          "time": 114.9544305,
          "velocity": 0.30708661417322836
        },
        {
          "duration": 0.0852271874999957,
          "durationTicks": 120,
          "midi": 78,
          "name": "F#5",
          "ticks": 161856,
          "time": 114.9544305,
          "velocity": 0.30708661417322836
        },
        {
          "duration": 0.0852271874999957,
          "durationTicks": 120,
          "midi": 59,
          "name": "B3",
          "ticks": 161856,
          "time": 114.9544305,
          "velocity": 0.30708661417322836
        },
        {
          "duration": 0.0852271874999957,
          "durationTicks": 120,
          "midi": 71,
          "name": "B4",
          "ticks": 161856,
          "time": 114.9544305,
          "velocity": 0.30708661417322836
        },
        {
          "duration": 0.0852271874999957,
          "durationTicks": 120,
          "midi": 59,
          "name": "B3",
          "ticks": 161856,
          "time": 114.9544305,
          "velocity": 0.30708661417322836
        },
        {
          "duration": 0.0852271874999957,
          "durationTicks": 120,
          "midi": 83,
          "name": "B5",
          "ticks": 161856,
          "time": 114.9544305,
          "velocity": 0.30708661417322836
        },
        {
          "duration": 0.0852271874999957,
          "durationTicks": 120,
          "midi": 74,
          "name": "D5",
          "ticks": 161880,
          "time": 114.9714759375,
          "velocity": 0.30708661417322836
        },
        {
          "duration": 0.0852271874999957,
          "durationTicks": 120,
          "midi": 71,
          "name": "B4",
          "ticks": 161880,
          "time": 114.9714759375,
          "velocity": 0.30708661417322836
        },
        {
          "duration": 0.0852271874999957,
          "durationTicks": 120,
          "midi": 59,
          "name": "B3",
          "ticks": 161880,
          "time": 114.9714759375,
          "velocity": 0.30708661417322836
        },
        {
          "duration": 0.0852271874999957,
          "durationTicks": 120,
          "midi": 78,
          "name": "F#5",
          "ticks": 161880,
          "time": 114.9714759375,
          "velocity": 0.30708661417322836
        },
        {
          "duration": 0.0852271874999957,
          "durationTicks": 120,
          "midi": 83,
          "name": "B5",
          "ticks": 161880,
          "time": 114.9714759375,
          "velocity": 0.30708661417322836
        },
        {
          "duration": 0.0852271874999957,
          "durationTicks": 120,
          "midi": 51,
          "name": "D#3",
          "ticks": 161880,
          "time": 114.9714759375,
          "velocity": 0.30708661417322836
        },
        {
          "duration": 0.0852271875000099,
          "durationTicks": 120,
          "midi": 71,
          "name": "B4",
          "ticks": 162096,
          "time": 115.12488487499999,
          "velocity": 0.30708661417322836
        },
        {
          "duration": 0.0852271875000099,
          "durationTicks": 120,
          "midi": 71,
          "name": "B4",
          "ticks": 162096,
          "time": 115.12488487499999,
          "velocity": 0.30708661417322836
        },
        {
          "duration": 0.0852271875000099,
          "durationTicks": 120,
          "midi": 76,
          "name": "E5",
          "ticks": 162096,
          "time": 115.12488487499999,
          "velocity": 0.30708661417322836
        },
        {
          "duration": 0.0852271875000099,
          "durationTicks": 120,
          "midi": 76,
          "name": "E5",
          "ticks": 162096,
          "time": 115.12488487499999,
          "velocity": 0.30708661417322836
        },
        {
          "duration": 0.0852271875000099,
          "durationTicks": 120,
          "midi": 52,
          "name": "E3",
          "ticks": 162096,
          "time": 115.12488487499999,
          "velocity": 0.30708661417322836
        },
        {
          "duration": 0.0852271875000099,
          "durationTicks": 120,
          "midi": 47,
          "name": "B2",
          "ticks": 162096,
          "time": 115.12488487499999,
          "velocity": 0.30708661417322836
        },
        {
          "duration": 0.0852271875000099,
          "durationTicks": 120,
          "midi": 56,
          "name": "G#3",
          "ticks": 162096,
          "time": 115.12488487499999,
          "velocity": 0.30708661417322836
        },
        {
          "duration": 0.0852271875000099,
          "durationTicks": 120,
          "midi": 68,
          "name": "G#4",
          "ticks": 162096,
          "time": 115.12488487499999,
          "velocity": 0.30708661417322836
        },
        {
          "duration": 0.0852271875000099,
          "durationTicks": 120,
          "midi": 80,
          "name": "G#5",
          "ticks": 162096,
          "time": 115.12488487499999,
          "velocity": 0.30708661417322836
        },
        {
          "duration": 0.0852271875000099,
          "durationTicks": 120,
          "midi": 80,
          "name": "G#5",
          "ticks": 162096,
          "time": 115.12488487499999,
          "velocity": 0.30708661417322836
        },
        {
          "duration": 0.0852271875000099,
          "durationTicks": 120,
          "midi": 68,
          "name": "G#4",
          "ticks": 162096,
          "time": 115.12488487499999,
          "velocity": 0.30708661417322836
        },
        {
          "duration": 0.0852271875000099,
          "durationTicks": 120,
          "midi": 47,
          "name": "B2",
          "ticks": 162096,
          "time": 115.12488487499999,
          "velocity": 0.30708661417322836
        },
        {
          "duration": 0.0852271875000099,
          "durationTicks": 120,
          "midi": 56,
          "name": "G#3",
          "ticks": 162096,
          "time": 115.12488487499999,
          "velocity": 0.30708661417322836
        },
        {
          "duration": 0.0852271875000099,
          "durationTicks": 120,
          "midi": 52,
          "name": "E3",
          "ticks": 162096,
          "time": 115.12488487499999,
          "velocity": 0.30708661417322836
        },
        {
          "duration": 0.0852271875000099,
          "durationTicks": 120,
          "midi": 68,
          "name": "G#4",
          "ticks": 162120,
          "time": 115.1419303125,
          "velocity": 0.30708661417322836
        },
        {
          "duration": 0.0852271875000099,
          "durationTicks": 120,
          "midi": 71,
          "name": "B4",
          "ticks": 162120,
          "time": 115.1419303125,
          "velocity": 0.30708661417322836
        },
        {
          "duration": 0.0852271875000099,
          "durationTicks": 120,
          "midi": 80,
          "name": "G#5",
          "ticks": 162120,
          "time": 115.1419303125,
          "velocity": 0.30708661417322836
        },
        {
          "duration": 0.0852271875000099,
          "durationTicks": 120,
          "midi": 76,
          "name": "E5",
          "ticks": 162120,
          "time": 115.1419303125,
          "velocity": 0.30708661417322836
        },
        {
          "duration": 0.0852271875000099,
          "durationTicks": 120,
          "midi": 56,
          "name": "G#3",
          "ticks": 162120,
          "time": 115.1419303125,
          "velocity": 0.30708661417322836
        },
        {
          "duration": 0.0852271875000099,
          "durationTicks": 120,
          "midi": 47,
          "name": "B2",
          "ticks": 162120,
          "time": 115.1419303125,
          "velocity": 0.30708661417322836
        },
        {
          "duration": 0.0852271875000099,
          "durationTicks": 120,
          "midi": 52,
          "name": "E3",
          "ticks": 162120,
          "time": 115.1419303125,
          "velocity": 0.30708661417322836
        },
        {
          "duration": 0.28977243749999104,
          "durationTicks": 408,
          "midi": 40,
          "name": "E2",
          "ticks": 162576,
          "time": 115.465793625,
          "velocity": 0.30708661417322836
        },
        {
          "duration": 0.28977243749999104,
          "durationTicks": 408,
          "midi": 52,
          "name": "E3",
          "ticks": 162576,
          "time": 115.465793625,
          "velocity": 0.30708661417322836
        },
        {
          "duration": 0.4261359374999927,
          "durationTicks": 600,
          "midi": 28,
          "name": "E1",
          "ticks": 162576,
          "time": 115.465793625,
          "velocity": 0.30708661417322836
        },
        {
          "duration": 0.28977243749999104,
          "durationTicks": 408,
          "midi": 40,
          "name": "E2",
          "ticks": 162576,
          "time": 115.465793625,
          "velocity": 0.30708661417322836
        },
        {
          "duration": 0.4261359374999927,
          "durationTicks": 600,
          "midi": 28,
          "name": "E1",
          "ticks": 162576,
          "time": 115.465793625,
          "velocity": 0.30708661417322836
        },
        {
          "duration": 0.28977243749999104,
          "durationTicks": 408,
          "midi": 52,
          "name": "E3",
          "ticks": 162576,
          "time": 115.465793625,
          "velocity": 0.30708661417322836
        },
        {
          "duration": 0.28977243749999104,
          "durationTicks": 408,
          "midi": 52,
          "name": "E3",
          "ticks": 162600,
          "time": 115.4828390625,
          "velocity": 0.30708661417322836
        },
        {
          "duration": 0.4261359374999927,
          "durationTicks": 600,
          "midi": 28,
          "name": "E1",
          "ticks": 162600,
          "time": 115.4828390625,
          "velocity": 0.30708661417322836
        },
        {
          "duration": 0.28977243749999104,
          "durationTicks": 408,
          "midi": 40,
          "name": "E2",
          "ticks": 162600,
          "time": 115.4828390625,
          "velocity": 0.30708661417322836
        },
        {
          "duration": 0.1534089374999894,
          "durationTicks": 216,
          "midi": 54,
          "name": "F#3",
          "ticks": 162912,
          "time": 115.70442975,
          "velocity": 0.30708661417322836
        },
        {
          "duration": 0.1534089374999894,
          "durationTicks": 216,
          "midi": 54,
          "name": "F#3",
          "ticks": 162912,
          "time": 115.70442975,
          "velocity": 0.30708661417322836
        },
        {
          "duration": 0.1534089374999894,
          "durationTicks": 216,
          "midi": 42,
          "name": "F#2",
          "ticks": 162912,
          "time": 115.70442975,
          "velocity": 0.30708661417322836
        },
        {
          "duration": 0.1534089374999894,
          "durationTicks": 216,
          "midi": 42,
          "name": "F#2",
          "ticks": 162912,
          "time": 115.70442975,
          "velocity": 0.30708661417322836
        },
        {
          "duration": 0.1534089374999894,
          "durationTicks": 216,
          "midi": 54,
          "name": "F#3",
          "ticks": 162936,
          "time": 115.7214751875,
          "velocity": 0.30708661417322836
        },
        {
          "duration": 0.1534089374999894,
          "durationTicks": 216,
          "midi": 42,
          "name": "F#2",
          "ticks": 162936,
          "time": 115.7214751875,
          "velocity": 0.30708661417322836
        },
        {
          "duration": 0.15340893750000362,
          "durationTicks": 216,
          "midi": 56,
          "name": "G#3",
          "ticks": 163008,
          "time": 115.7726115,
          "velocity": 0.30708661417322836
        },
        {
          "duration": 0.28977243750000525,
          "durationTicks": 408,
          "midi": 32,
          "name": "G#1",
          "ticks": 163008,
          "time": 115.7726115,
          "velocity": 0.30708661417322836
        },
        {
          "duration": 0.15340893750000362,
          "durationTicks": 216,
          "midi": 44,
          "name": "G#2",
          "ticks": 163008,
          "time": 115.7726115,
          "velocity": 0.30708661417322836
        },
        {
          "duration": 0.15340893750000362,
          "durationTicks": 216,
          "midi": 44,
          "name": "G#2",
          "ticks": 163008,
          "time": 115.7726115,
          "velocity": 0.30708661417322836
        },
        {
          "duration": 0.15340893750000362,
          "durationTicks": 216,
          "midi": 56,
          "name": "G#3",
          "ticks": 163008,
          "time": 115.7726115,
          "velocity": 0.30708661417322836
        },
        {
          "duration": 0.28977243750000525,
          "durationTicks": 408,
          "midi": 32,
          "name": "G#1",
          "ticks": 163008,
          "time": 115.7726115,
          "velocity": 0.30708661417322836
        },
        {
          "duration": 0.15340893750000362,
          "durationTicks": 216,
          "midi": 44,
          "name": "G#2",
          "ticks": 163032,
          "time": 115.7896569375,
          "velocity": 0.30708661417322836
        },
        {
          "duration": 0.15340893750000362,
          "durationTicks": 216,
          "midi": 56,
          "name": "G#3",
          "ticks": 163032,
          "time": 115.7896569375,
          "velocity": 0.30708661417322836
        },
        {
          "duration": 0.28977243750000525,
          "durationTicks": 408,
          "midi": 32,
          "name": "G#1",
          "ticks": 163032,
          "time": 115.7896569375,
          "velocity": 0.30708661417322836
        },
        {
          "duration": 0.0852271874999957,
          "durationTicks": 120,
          "midi": 45,
          "name": "A2",
          "ticks": 163104,
          "time": 115.84079325,
          "velocity": 0.30708661417322836
        },
        {
          "duration": 0.0852271874999957,
          "durationTicks": 120,
          "midi": 72,
          "name": "C5",
          "ticks": 163104,
          "time": 115.84079325,
          "velocity": 0.30708661417322836
        },
        {
          "duration": 0.0852271874999957,
          "durationTicks": 120,
          "midi": 84,
          "name": "C6",
          "ticks": 163104,
          "time": 115.84079325,
          "velocity": 0.30708661417322836
        },
        {
          "duration": 0.0852271874999957,
          "durationTicks": 120,
          "midi": 88,
          "name": "E6",
          "ticks": 163104,
          "time": 115.84079325,
          "velocity": 0.30708661417322836
        },
        {
          "duration": 0.0852271874999957,
          "durationTicks": 120,
          "midi": 45,
          "name": "A2",
          "ticks": 163104,
          "time": 115.84079325,
          "velocity": 0.30708661417322836
        },
        {
          "duration": 0.0852271874999957,
          "durationTicks": 120,
          "midi": 81,
          "name": "A5",
          "ticks": 163104,
          "time": 115.84079325,
          "velocity": 0.30708661417322836
        },
        {
          "duration": 0.0852271874999957,
          "durationTicks": 120,
          "midi": 64,
          "name": "E4",
          "ticks": 163104,
          "time": 115.84079325,
          "velocity": 0.30708661417322836
        },
        {
          "duration": 0.0852271874999957,
          "durationTicks": 120,
          "midi": 69,
          "name": "A4",
          "ticks": 163104,
          "time": 115.84079325,
          "velocity": 0.30708661417322836
        },
        {
          "duration": 0.0852271874999957,
          "durationTicks": 120,
          "midi": 76,
          "name": "E5",
          "ticks": 163104,
          "time": 115.84079325,
          "velocity": 0.30708661417322836
        },
        {
          "duration": 0.0852271874999957,
          "durationTicks": 120,
          "midi": 64,
          "name": "E4",
          "ticks": 163104,
          "time": 115.84079325,
          "velocity": 0.30708661417322836
        },
        {
          "duration": 0.0852271874999957,
          "durationTicks": 120,
          "midi": 72,
          "name": "C5",
          "ticks": 163104,
          "time": 115.84079325,
          "velocity": 0.30708661417322836
        },
        {
          "duration": 0.0852271874999957,
          "durationTicks": 120,
          "midi": 76,
          "name": "E5",
          "ticks": 163104,
          "time": 115.84079325,
          "velocity": 0.30708661417322836
        },
        {
          "duration": 0.0852271874999957,
          "durationTicks": 120,
          "midi": 88,
          "name": "E6",
          "ticks": 163104,
          "time": 115.84079325,
          "velocity": 0.30708661417322836
        },
        {
          "duration": 0.0852271874999957,
          "durationTicks": 120,
          "midi": 81,
          "name": "A5",
          "ticks": 163104,
          "time": 115.84079325,
          "velocity": 0.30708661417322836
        },
        {
          "duration": 0.0852271874999957,
          "durationTicks": 120,
          "midi": 84,
          "name": "C6",
          "ticks": 163104,
          "time": 115.84079325,
          "velocity": 0.30708661417322836
        },
        {
          "duration": 0.0852271874999957,
          "durationTicks": 120,
          "midi": 69,
          "name": "A4",
          "ticks": 163104,
          "time": 115.84079325,
          "velocity": 0.30708661417322836
        },
        {
          "duration": 0.0852271875000099,
          "durationTicks": 120,
          "midi": 72,
          "name": "C5",
          "ticks": 163128,
          "time": 115.85783868749999,
          "velocity": 0.30708661417322836
        },
        {
          "duration": 0.0852271875000099,
          "durationTicks": 120,
          "midi": 69,
          "name": "A4",
          "ticks": 163128,
          "time": 115.85783868749999,
          "velocity": 0.30708661417322836
        },
        {
          "duration": 0.0852271875000099,
          "durationTicks": 120,
          "midi": 76,
          "name": "E5",
          "ticks": 163128,
          "time": 115.85783868749999,
          "velocity": 0.30708661417322836
        },
        {
          "duration": 0.0852271875000099,
          "durationTicks": 120,
          "midi": 84,
          "name": "C6",
          "ticks": 163128,
          "time": 115.85783868749999,
          "velocity": 0.30708661417322836
        },
        {
          "duration": 0.0852271875000099,
          "durationTicks": 120,
          "midi": 64,
          "name": "E4",
          "ticks": 163128,
          "time": 115.85783868749999,
          "velocity": 0.30708661417322836
        },
        {
          "duration": 0.0852271875000099,
          "durationTicks": 120,
          "midi": 45,
          "name": "A2",
          "ticks": 163128,
          "time": 115.85783868749999,
          "velocity": 0.30708661417322836
        },
        {
          "duration": 0.0852271875000099,
          "durationTicks": 120,
          "midi": 88,
          "name": "E6",
          "ticks": 163128,
          "time": 115.85783868749999,
          "velocity": 0.30708661417322836
        },
        {
          "duration": 0.0852271875000099,
          "durationTicks": 120,
          "midi": 81,
          "name": "A5",
          "ticks": 163128,
          "time": 115.85783868749999,
          "velocity": 0.30708661417322836
        },
        {
          "duration": 0.0852271874999957,
          "durationTicks": 120,
          "midi": 76,
          "name": "E5",
          "ticks": 163224,
          "time": 115.9260204375,
          "velocity": 0.30708661417322836
        },
        {
          "duration": 0.0852271874999957,
          "durationTicks": 120,
          "midi": 72,
          "name": "C5",
          "ticks": 163224,
          "time": 115.9260204375,
          "velocity": 0.30708661417322836
        },
        {
          "duration": 0.0852271874999957,
          "durationTicks": 120,
          "midi": 88,
          "name": "E6",
          "ticks": 163224,
          "time": 115.9260204375,
          "velocity": 0.30708661417322836
        },
        {
          "duration": 0.0852271874999957,
          "durationTicks": 120,
          "midi": 69,
          "name": "A4",
          "ticks": 163224,
          "time": 115.9260204375,
          "velocity": 0.30708661417322836
        },
        {
          "duration": 0.0852271874999957,
          "durationTicks": 120,
          "midi": 76,
          "name": "E5",
          "ticks": 163224,
          "time": 115.9260204375,
          "velocity": 0.30708661417322836
        },
        {
          "duration": 0.0852271874999957,
          "durationTicks": 120,
          "midi": 64,
          "name": "E4",
          "ticks": 163224,
          "time": 115.9260204375,
          "velocity": 0.30708661417322836
        },
        {
          "duration": 0.0852271874999957,
          "durationTicks": 120,
          "midi": 81,
          "name": "A5",
          "ticks": 163224,
          "time": 115.9260204375,
          "velocity": 0.30708661417322836
        },
        {
          "duration": 0.0852271874999957,
          "durationTicks": 120,
          "midi": 81,
          "name": "A5",
          "ticks": 163224,
          "time": 115.9260204375,
          "velocity": 0.30708661417322836
        },
        {
          "duration": 0.0852271874999957,
          "durationTicks": 120,
          "midi": 72,
          "name": "C5",
          "ticks": 163224,
          "time": 115.9260204375,
          "velocity": 0.30708661417322836
        },
        {
          "duration": 0.0852271874999957,
          "durationTicks": 120,
          "midi": 64,
          "name": "E4",
          "ticks": 163224,
          "time": 115.9260204375,
          "velocity": 0.30708661417322836
        },
        {
          "duration": 0.0852271874999957,
          "durationTicks": 120,
          "midi": 84,
          "name": "C6",
          "ticks": 163224,
          "time": 115.9260204375,
          "velocity": 0.30708661417322836
        },
        {
          "duration": 0.0852271874999957,
          "durationTicks": 120,
          "midi": 69,
          "name": "A4",
          "ticks": 163224,
          "time": 115.9260204375,
          "velocity": 0.30708661417322836
        },
        {
          "duration": 0.0852271874999957,
          "durationTicks": 120,
          "midi": 84,
          "name": "C6",
          "ticks": 163224,
          "time": 115.9260204375,
          "velocity": 0.30708661417322836
        },
        {
          "duration": 0.0852271874999957,
          "durationTicks": 120,
          "midi": 88,
          "name": "E6",
          "ticks": 163224,
          "time": 115.9260204375,
          "velocity": 0.30708661417322836
        },
        {
          "duration": 0.0852271874999957,
          "durationTicks": 120,
          "midi": 64,
          "name": "E4",
          "ticks": 163248,
          "time": 115.943065875,
          "velocity": 0.30708661417322836
        },
        {
          "duration": 0.0852271874999957,
          "durationTicks": 120,
          "midi": 84,
          "name": "C6",
          "ticks": 163248,
          "time": 115.943065875,
          "velocity": 0.30708661417322836
        },
        {
          "duration": 0.0852271874999957,
          "durationTicks": 120,
          "midi": 72,
          "name": "C5",
          "ticks": 163248,
          "time": 115.943065875,
          "velocity": 0.30708661417322836
        },
        {
          "duration": 0.0852271874999957,
          "durationTicks": 120,
          "midi": 88,
          "name": "E6",
          "ticks": 163248,
          "time": 115.943065875,
          "velocity": 0.30708661417322836
        },
        {
          "duration": 0.0852271874999957,
          "durationTicks": 120,
          "midi": 81,
          "name": "A5",
          "ticks": 163248,
          "time": 115.943065875,
          "velocity": 0.30708661417322836
        },
        {
          "duration": 0.0852271874999957,
          "durationTicks": 120,
          "midi": 76,
          "name": "E5",
          "ticks": 163248,
          "time": 115.943065875,
          "velocity": 0.30708661417322836
        },
        {
          "duration": 0.0852271874999957,
          "durationTicks": 120,
          "midi": 69,
          "name": "A4",
          "ticks": 163248,
          "time": 115.943065875,
          "velocity": 0.30708661417322836
        },
        {
          "duration": 0.0852271875000099,
          "durationTicks": 120,
          "midi": 64,
          "name": "E4",
          "ticks": 163344,
          "time": 116.011247625,
          "velocity": 0.30708661417322836
        },
        {
          "duration": 0.0852271875000099,
          "durationTicks": 120,
          "midi": 64,
          "name": "E4",
          "ticks": 163344,
          "time": 116.011247625,
          "velocity": 0.30708661417322836
        },
        {
          "duration": 0.0852271875000099,
          "durationTicks": 120,
          "midi": 48,
          "name": "C3",
          "ticks": 163344,
          "time": 116.011247625,
          "velocity": 0.30708661417322836
        },
        {
          "duration": 0.0852271875000099,
          "durationTicks": 120,
          "midi": 84,
          "name": "C6",
          "ticks": 163344,
          "time": 116.011247625,
          "velocity": 0.30708661417322836
        },
        {
          "duration": 0.0852271875000099,
          "durationTicks": 120,
          "midi": 84,
          "name": "C6",
          "ticks": 163344,
          "time": 116.011247625,
          "velocity": 0.30708661417322836
        },
        {
          "duration": 0.0852271875000099,
          "durationTicks": 120,
          "midi": 69,
          "name": "A4",
          "ticks": 163344,
          "time": 116.011247625,
          "velocity": 0.30708661417322836
        },
        {
          "duration": 0.0852271875000099,
          "durationTicks": 120,
          "midi": 81,
          "name": "A5",
          "ticks": 163344,
          "time": 116.011247625,
          "velocity": 0.30708661417322836
        },
        {
          "duration": 0.0852271875000099,
          "durationTicks": 120,
          "midi": 81,
          "name": "A5",
          "ticks": 163344,
          "time": 116.011247625,
          "velocity": 0.30708661417322836
        },
        {
          "duration": 0.0852271875000099,
          "durationTicks": 120,
          "midi": 76,
          "name": "E5",
          "ticks": 163344,
          "time": 116.011247625,
          "velocity": 0.30708661417322836
        },
        {
          "duration": 0.0852271875000099,
          "durationTicks": 120,
          "midi": 76,
          "name": "E5",
          "ticks": 163344,
          "time": 116.011247625,
          "velocity": 0.30708661417322836
        },
        {
          "duration": 0.0852271875000099,
          "durationTicks": 120,
          "midi": 48,
          "name": "C3",
          "ticks": 163344,
          "time": 116.011247625,
          "velocity": 0.30708661417322836
        },
        {
          "duration": 0.0852271875000099,
          "durationTicks": 120,
          "midi": 88,
          "name": "E6",
          "ticks": 163344,
          "time": 116.011247625,
          "velocity": 0.30708661417322836
        },
        {
          "duration": 0.0852271875000099,
          "durationTicks": 120,
          "midi": 72,
          "name": "C5",
          "ticks": 163344,
          "time": 116.011247625,
          "velocity": 0.30708661417322836
        },
        {
          "duration": 0.0852271875000099,
          "durationTicks": 120,
          "midi": 72,
          "name": "C5",
          "ticks": 163344,
          "time": 116.011247625,
          "velocity": 0.30708661417322836
        },
        {
          "duration": 0.0852271875000099,
          "durationTicks": 120,
          "midi": 88,
          "name": "E6",
          "ticks": 163344,
          "time": 116.011247625,
          "velocity": 0.30708661417322836
        },
        {
          "duration": 0.0852271875000099,
          "durationTicks": 120,
          "midi": 52,
          "name": "E3",
          "ticks": 163344,
          "time": 116.011247625,
          "velocity": 0.30708661417322836
        },
        {
          "duration": 0.0852271875000099,
          "durationTicks": 120,
          "midi": 69,
          "name": "A4",
          "ticks": 163344,
          "time": 116.011247625,
          "velocity": 0.30708661417322836
        },
        {
          "duration": 0.0852271875000099,
          "durationTicks": 120,
          "midi": 52,
          "name": "E3",
          "ticks": 163344,
          "time": 116.011247625,
          "velocity": 0.30708661417322836
        },
        {
          "duration": 0.0852271874999957,
          "durationTicks": 120,
          "midi": 52,
          "name": "E3",
          "ticks": 163368,
          "time": 116.0282930625,
          "velocity": 0.30708661417322836
        },
        {
          "duration": 0.0852271874999957,
          "durationTicks": 120,
          "midi": 76,
          "name": "E5",
          "ticks": 163368,
          "time": 116.0282930625,
          "velocity": 0.30708661417322836
        },
        {
          "duration": 0.0852271874999957,
          "durationTicks": 120,
          "midi": 69,
          "name": "A4",
          "ticks": 163368,
          "time": 116.0282930625,
          "velocity": 0.30708661417322836
        },
        {
          "duration": 0.0852271874999957,
          "durationTicks": 120,
          "midi": 84,
          "name": "C6",
          "ticks": 163368,
          "time": 116.0282930625,
          "velocity": 0.30708661417322836
        },
        {
          "duration": 0.0852271874999957,
          "durationTicks": 120,
          "midi": 88,
          "name": "E6",
          "ticks": 163368,
          "time": 116.0282930625,
          "velocity": 0.30708661417322836
        },
        {
          "duration": 0.0852271874999957,
          "durationTicks": 120,
          "midi": 81,
          "name": "A5",
          "ticks": 163368,
          "time": 116.0282930625,
          "velocity": 0.30708661417322836
        },
        {
          "duration": 0.0852271874999957,
          "durationTicks": 120,
          "midi": 64,
          "name": "E4",
          "ticks": 163368,
          "time": 116.0282930625,
          "velocity": 0.30708661417322836
        },
        {
          "duration": 0.0852271874999957,
          "durationTicks": 120,
          "midi": 48,
          "name": "C3",
          "ticks": 163368,
          "time": 116.0282930625,
          "velocity": 0.30708661417322836
        },
        {
          "duration": 0.0852271874999957,
          "durationTicks": 120,
          "midi": 72,
          "name": "C5",
          "ticks": 163368,
          "time": 116.0282930625,
          "velocity": 0.30708661417322836
        },
        {
          "duration": 0.0852271874999957,
          "durationTicks": 120,
          "midi": 81,
          "name": "A5",
          "ticks": 163464,
          "time": 116.0964748125,
          "velocity": 0.30708661417322836
        },
        {
          "duration": 0.0852271874999957,
          "durationTicks": 120,
          "midi": 64,
          "name": "E4",
          "ticks": 163464,
          "time": 116.0964748125,
          "velocity": 0.30708661417322836
        },
        {
          "duration": 0.0852271874999957,
          "durationTicks": 120,
          "midi": 88,
          "name": "E6",
          "ticks": 163464,
          "time": 116.0964748125,
          "velocity": 0.30708661417322836
        },
        {
          "duration": 0.0852271874999957,
          "durationTicks": 120,
          "midi": 88,
          "name": "E6",
          "ticks": 163464,
          "time": 116.0964748125,
          "velocity": 0.30708661417322836
        },
        {
          "duration": 0.0852271874999957,
          "durationTicks": 120,
          "midi": 64,
          "name": "E4",
          "ticks": 163464,
          "time": 116.0964748125,
          "velocity": 0.30708661417322836
        },
        {
          "duration": 0.0852271874999957,
          "durationTicks": 120,
          "midi": 76,
          "name": "E5",
          "ticks": 163464,
          "time": 116.0964748125,
          "velocity": 0.30708661417322836
        },
        {
          "duration": 0.0852271874999957,
          "durationTicks": 120,
          "midi": 69,
          "name": "A4",
          "ticks": 163464,
          "time": 116.0964748125,
          "velocity": 0.30708661417322836
        },
        {
          "duration": 0.0852271874999957,
          "durationTicks": 120,
          "midi": 84,
          "name": "C6",
          "ticks": 163464,
          "time": 116.0964748125,
          "velocity": 0.30708661417322836
        },
        {
          "duration": 0.0852271874999957,
          "durationTicks": 120,
          "midi": 81,
          "name": "A5",
          "ticks": 163464,
          "time": 116.0964748125,
          "velocity": 0.30708661417322836
        },
        {
          "duration": 0.0852271874999957,
          "durationTicks": 120,
          "midi": 76,
          "name": "E5",
          "ticks": 163464,
          "time": 116.0964748125,
          "velocity": 0.30708661417322836
        },
        {
          "duration": 0.0852271874999957,
          "durationTicks": 120,
          "midi": 72,
          "name": "C5",
          "ticks": 163464,
          "time": 116.0964748125,
          "velocity": 0.30708661417322836
        },
        {
          "duration": 0.0852271874999957,
          "durationTicks": 120,
          "midi": 72,
          "name": "C5",
          "ticks": 163464,
          "time": 116.0964748125,
          "velocity": 0.30708661417322836
        },
        {
          "duration": 0.0852271874999957,
          "durationTicks": 120,
          "midi": 69,
          "name": "A4",
          "ticks": 163464,
          "time": 116.0964748125,
          "velocity": 0.30708661417322836
        },
        {
          "duration": 0.0852271874999957,
          "durationTicks": 120,
          "midi": 84,
          "name": "C6",
          "ticks": 163464,
          "time": 116.0964748125,
          "velocity": 0.30708661417322836
        },
        {
          "duration": 0.0852271875000099,
          "durationTicks": 120,
          "midi": 88,
          "name": "E6",
          "ticks": 163488,
          "time": 116.11352025,
          "velocity": 0.30708661417322836
        },
        {
          "duration": 0.0852271875000099,
          "durationTicks": 120,
          "midi": 69,
          "name": "A4",
          "ticks": 163488,
          "time": 116.11352025,
          "velocity": 0.30708661417322836
        },
        {
          "duration": 0.0852271875000099,
          "durationTicks": 120,
          "midi": 76,
          "name": "E5",
          "ticks": 163488,
          "time": 116.11352025,
          "velocity": 0.30708661417322836
        },
        {
          "duration": 0.0852271875000099,
          "durationTicks": 120,
          "midi": 64,
          "name": "E4",
          "ticks": 163488,
          "time": 116.11352025,
          "velocity": 0.30708661417322836
        },
        {
          "duration": 0.0852271875000099,
          "durationTicks": 120,
          "midi": 81,
          "name": "A5",
          "ticks": 163488,
          "time": 116.11352025,
          "velocity": 0.30708661417322836
        },
        {
          "duration": 0.0852271875000099,
          "durationTicks": 120,
          "midi": 72,
          "name": "C5",
          "ticks": 163488,
          "time": 116.11352025,
          "velocity": 0.30708661417322836
        },
        {
          "duration": 0.0852271875000099,
          "durationTicks": 120,
          "midi": 84,
          "name": "C6",
          "ticks": 163488,
          "time": 116.11352025,
          "velocity": 0.30708661417322836
        },
        {
          "duration": 0.0852271874999957,
          "durationTicks": 120,
          "midi": 81,
          "name": "A5",
          "ticks": 163584,
          "time": 116.181702,
          "velocity": 0.30708661417322836
        },
        {
          "duration": 0.0852271874999957,
          "durationTicks": 120,
          "midi": 64,
          "name": "E4",
          "ticks": 163584,
          "time": 116.181702,
          "velocity": 0.30708661417322836
        },
        {
          "duration": 0.0852271874999957,
          "durationTicks": 120,
          "midi": 40,
          "name": "E2",
          "ticks": 163584,
          "time": 116.181702,
          "velocity": 0.30708661417322836
        },
        {
          "duration": 0.0852271874999957,
          "durationTicks": 120,
          "midi": 88,
          "name": "E6",
          "ticks": 163584,
          "time": 116.181702,
          "velocity": 0.30708661417322836
        },
        {
          "duration": 0.0852271874999957,
          "durationTicks": 120,
          "midi": 81,
          "name": "A5",
          "ticks": 163584,
          "time": 116.181702,
          "velocity": 0.30708661417322836
        },
        {
          "duration": 0.0852271874999957,
          "durationTicks": 120,
          "midi": 88,
          "name": "E6",
          "ticks": 163584,
          "time": 116.181702,
          "velocity": 0.30708661417322836
        },
        {
          "duration": 0.0852271874999957,
          "durationTicks": 120,
          "midi": 69,
          "name": "A4",
          "ticks": 163584,
          "time": 116.181702,
          "velocity": 0.30708661417322836
        },
        {
          "duration": 0.0852271874999957,
          "durationTicks": 120,
          "midi": 72,
          "name": "C5",
          "ticks": 163584,
          "time": 116.181702,
          "velocity": 0.30708661417322836
        },
        {
          "duration": 0.0852271874999957,
          "durationTicks": 120,
          "midi": 84,
          "name": "C6",
          "ticks": 163584,
          "time": 116.181702,
          "velocity": 0.30708661417322836
        },
        {
          "duration": 0.0852271874999957,
          "durationTicks": 120,
          "midi": 72,
          "name": "C5",
          "ticks": 163584,
          "time": 116.181702,
          "velocity": 0.30708661417322836
        },
        {
          "duration": 0.0852271874999957,
          "durationTicks": 120,
          "midi": 76,
          "name": "E5",
          "ticks": 163584,
          "time": 116.181702,
          "velocity": 0.30708661417322836
        },
        {
          "duration": 0.0852271874999957,
          "durationTicks": 120,
          "midi": 76,
          "name": "E5",
          "ticks": 163584,
          "time": 116.181702,
          "velocity": 0.30708661417322836
        },
        {
          "duration": 0.0852271874999957,
          "durationTicks": 120,
          "midi": 40,
          "name": "E2",
          "ticks": 163584,
          "time": 116.181702,
          "velocity": 0.30708661417322836
        },
        {
          "duration": 0.0852271874999957,
          "durationTicks": 120,
          "midi": 69,
          "name": "A4",
          "ticks": 163584,
          "time": 116.181702,
          "velocity": 0.30708661417322836
        },
        {
          "duration": 0.0852271874999957,
          "durationTicks": 120,
          "midi": 84,
          "name": "C6",
          "ticks": 163584,
          "time": 116.181702,
          "velocity": 0.30708661417322836
        },
        {
          "duration": 0.0852271874999957,
          "durationTicks": 120,
          "midi": 64,
          "name": "E4",
          "ticks": 163584,
          "time": 116.181702,
          "velocity": 0.30708661417322836
        },
        {
          "duration": 0.0852271874999957,
          "durationTicks": 120,
          "midi": 76,
          "name": "E5",
          "ticks": 163608,
          "time": 116.1987474375,
          "velocity": 0.30708661417322836
        },
        {
          "duration": 0.0852271874999957,
          "durationTicks": 120,
          "midi": 64,
          "name": "E4",
          "ticks": 163608,
          "time": 116.1987474375,
          "velocity": 0.30708661417322836
        },
        {
          "duration": 0.0852271874999957,
          "durationTicks": 120,
          "midi": 84,
          "name": "C6",
          "ticks": 163608,
          "time": 116.1987474375,
          "velocity": 0.30708661417322836
        },
        {
          "duration": 0.0852271874999957,
          "durationTicks": 120,
          "midi": 81,
          "name": "A5",
          "ticks": 163608,
          "time": 116.1987474375,
          "velocity": 0.30708661417322836
        },
        {
          "duration": 0.0852271874999957,
          "durationTicks": 120,
          "midi": 40,
          "name": "E2",
          "ticks": 163608,
          "time": 116.1987474375,
          "velocity": 0.30708661417322836
        },
        {
          "duration": 0.0852271874999957,
          "durationTicks": 120,
          "midi": 69,
          "name": "A4",
          "ticks": 163608,
          "time": 116.1987474375,
          "velocity": 0.30708661417322836
        },
        {
          "duration": 0.0852271874999957,
          "durationTicks": 120,
          "midi": 88,
          "name": "E6",
          "ticks": 163608,
          "time": 116.1987474375,
          "velocity": 0.30708661417322836
        },
        {
          "duration": 0.0852271874999957,
          "durationTicks": 120,
          "midi": 72,
          "name": "C5",
          "ticks": 163608,
          "time": 116.1987474375,
          "velocity": 0.30708661417322836
        },
        {
          "duration": 0.0852271874999957,
          "durationTicks": 120,
          "midi": 76,
          "name": "E5",
          "ticks": 163704,
          "time": 116.2669291875,
          "velocity": 0.30708661417322836
        },
        {
          "duration": 0.0852271874999957,
          "durationTicks": 120,
          "midi": 69,
          "name": "A4",
          "ticks": 163704,
          "time": 116.2669291875,
          "velocity": 0.30708661417322836
        },
        {
          "duration": 0.0852271874999957,
          "durationTicks": 120,
          "midi": 69,
          "name": "A4",
          "ticks": 163704,
          "time": 116.2669291875,
          "velocity": 0.30708661417322836
        },
        {
          "duration": 0.0852271874999957,
          "durationTicks": 120,
          "midi": 84,
          "name": "C6",
          "ticks": 163704,
          "time": 116.2669291875,
          "velocity": 0.30708661417322836
        },
        {
          "duration": 0.0852271874999957,
          "durationTicks": 120,
          "midi": 72,
          "name": "C5",
          "ticks": 163704,
          "time": 116.2669291875,
          "velocity": 0.30708661417322836
        },
        {
          "duration": 0.0852271874999957,
          "durationTicks": 120,
          "midi": 64,
          "name": "E4",
          "ticks": 163704,
          "time": 116.2669291875,
          "velocity": 0.30708661417322836
        },
        {
          "duration": 0.0852271874999957,
          "durationTicks": 120,
          "midi": 88,
          "name": "E6",
          "ticks": 163704,
          "time": 116.2669291875,
          "velocity": 0.30708661417322836
        },
        {
          "duration": 0.0852271874999957,
          "durationTicks": 120,
          "midi": 84,
          "name": "C6",
          "ticks": 163704,
          "time": 116.2669291875,
          "velocity": 0.30708661417322836
        },
        {
          "duration": 0.0852271874999957,
          "durationTicks": 120,
          "midi": 76,
          "name": "E5",
          "ticks": 163704,
          "time": 116.2669291875,
          "velocity": 0.30708661417322836
        },
        {
          "duration": 0.0852271874999957,
          "durationTicks": 120,
          "midi": 64,
          "name": "E4",
          "ticks": 163704,
          "time": 116.2669291875,
          "velocity": 0.30708661417322836
        },
        {
          "duration": 0.0852271874999957,
          "durationTicks": 120,
          "midi": 81,
          "name": "A5",
          "ticks": 163704,
          "time": 116.2669291875,
          "velocity": 0.30708661417322836
        },
        {
          "duration": 0.0852271874999957,
          "durationTicks": 120,
          "midi": 81,
          "name": "A5",
          "ticks": 163704,
          "time": 116.2669291875,
          "velocity": 0.30708661417322836
        },
        {
          "duration": 0.0852271874999957,
          "durationTicks": 120,
          "midi": 72,
          "name": "C5",
          "ticks": 163704,
          "time": 116.2669291875,
          "velocity": 0.30708661417322836
        },
        {
          "duration": 0.0852271874999957,
          "durationTicks": 120,
          "midi": 88,
          "name": "E6",
          "ticks": 163704,
          "time": 116.2669291875,
          "velocity": 0.30708661417322836
        },
        {
          "duration": 0.0852271874999957,
          "durationTicks": 120,
          "midi": 88,
          "name": "E6",
          "ticks": 163728,
          "time": 116.283974625,
          "velocity": 0.30708661417322836
        },
        {
          "duration": 0.0852271874999957,
          "durationTicks": 120,
          "midi": 69,
          "name": "A4",
          "ticks": 163728,
          "time": 116.283974625,
          "velocity": 0.30708661417322836
        },
        {
          "duration": 0.0852271874999957,
          "durationTicks": 120,
          "midi": 81,
          "name": "A5",
          "ticks": 163728,
          "time": 116.283974625,
          "velocity": 0.30708661417322836
        },
        {
          "duration": 0.0852271874999957,
          "durationTicks": 120,
          "midi": 76,
          "name": "E5",
          "ticks": 163728,
          "time": 116.283974625,
          "velocity": 0.30708661417322836
        },
        {
          "duration": 0.0852271874999957,
          "durationTicks": 120,
          "midi": 72,
          "name": "C5",
          "ticks": 163728,
          "time": 116.283974625,
          "velocity": 0.30708661417322836
        },
        {
          "duration": 0.0852271874999957,
          "durationTicks": 120,
          "midi": 64,
          "name": "E4",
          "ticks": 163728,
          "time": 116.283974625,
          "velocity": 0.30708661417322836
        },
        {
          "duration": 0.0852271874999957,
          "durationTicks": 120,
          "midi": 84,
          "name": "C6",
          "ticks": 163728,
          "time": 116.283974625,
          "velocity": 0.30708661417322836
        },
        {
          "duration": 0.0852271875000099,
          "durationTicks": 120,
          "midi": 48,
          "name": "C3",
          "ticks": 163824,
          "time": 116.35215637499999,
          "velocity": 0.30708661417322836
        },
        {
          "duration": 0.0852271875000099,
          "durationTicks": 120,
          "midi": 64,
          "name": "E4",
          "ticks": 163824,
          "time": 116.35215637499999,
          "velocity": 0.30708661417322836
        },
        {
          "duration": 0.0852271875000099,
          "durationTicks": 120,
          "midi": 69,
          "name": "A4",
          "ticks": 163824,
          "time": 116.35215637499999,
          "velocity": 0.30708661417322836
        },
        {
          "duration": 0.0852271875000099,
          "durationTicks": 120,
          "midi": 81,
          "name": "A5",
          "ticks": 163824,
          "time": 116.35215637499999,
          "velocity": 0.30708661417322836
        },
        {
          "duration": 0.0852271875000099,
          "durationTicks": 120,
          "midi": 88,
          "name": "E6",
          "ticks": 163824,
          "time": 116.35215637499999,
          "velocity": 0.30708661417322836
        },
        {
          "duration": 0.0852271875000099,
          "durationTicks": 120,
          "midi": 81,
          "name": "A5",
          "ticks": 163824,
          "time": 116.35215637499999,
          "velocity": 0.30708661417322836
        },
        {
          "duration": 0.0852271875000099,
          "durationTicks": 120,
          "midi": 52,
          "name": "E3",
          "ticks": 163824,
          "time": 116.35215637499999,
          "velocity": 0.30708661417322836
        },
        {
          "duration": 0.0852271875000099,
          "durationTicks": 120,
          "midi": 88,
          "name": "E6",
          "ticks": 163824,
          "time": 116.35215637499999,
          "velocity": 0.30708661417322836
        },
        {
          "duration": 0.0852271875000099,
          "durationTicks": 120,
          "midi": 72,
          "name": "C5",
          "ticks": 163824,
          "time": 116.35215637499999,
          "velocity": 0.30708661417322836
        },
        {
          "duration": 0.0852271875000099,
          "durationTicks": 120,
          "midi": 52,
          "name": "E3",
          "ticks": 163824,
          "time": 116.35215637499999,
          "velocity": 0.30708661417322836
        },
        {
          "duration": 0.0852271875000099,
          "durationTicks": 120,
          "midi": 76,
          "name": "E5",
          "ticks": 163824,
          "time": 116.35215637499999,
          "velocity": 0.30708661417322836
        },
        {
          "duration": 0.0852271875000099,
          "durationTicks": 120,
          "midi": 64,
          "name": "E4",
          "ticks": 163824,
          "time": 116.35215637499999,
          "velocity": 0.30708661417322836
        },
        {
          "duration": 0.0852271875000099,
          "durationTicks": 120,
          "midi": 84,
          "name": "C6",
          "ticks": 163824,
          "time": 116.35215637499999,
          "velocity": 0.30708661417322836
        },
        {
          "duration": 0.0852271875000099,
          "durationTicks": 120,
          "midi": 48,
          "name": "C3",
          "ticks": 163824,
          "time": 116.35215637499999,
          "velocity": 0.30708661417322836
        },
        {
          "duration": 0.0852271875000099,
          "durationTicks": 120,
          "midi": 69,
          "name": "A4",
          "ticks": 163824,
          "time": 116.35215637499999,
          "velocity": 0.30708661417322836
        },
        {
          "duration": 0.0852271875000099,
          "durationTicks": 120,
          "midi": 76,
          "name": "E5",
          "ticks": 163824,
          "time": 116.35215637499999,
          "velocity": 0.30708661417322836
        },
        {
          "duration": 0.0852271875000099,
          "durationTicks": 120,
          "midi": 84,
          "name": "C6",
          "ticks": 163824,
          "time": 116.35215637499999,
          "velocity": 0.30708661417322836
        },
        {
          "duration": 0.0852271875000099,
          "durationTicks": 120,
          "midi": 72,
          "name": "C5",
          "ticks": 163824,
          "time": 116.35215637499999,
          "velocity": 0.30708661417322836
        },
        {
          "duration": 0.0852271875000099,
          "durationTicks": 120,
          "midi": 69,
          "name": "A4",
          "ticks": 163848,
          "time": 116.3692018125,
          "velocity": 0.30708661417322836
        },
        {
          "duration": 0.0852271875000099,
          "durationTicks": 120,
          "midi": 48,
          "name": "C3",
          "ticks": 163848,
          "time": 116.3692018125,
          "velocity": 0.30708661417322836
        },
        {
          "duration": 0.0852271875000099,
          "durationTicks": 120,
          "midi": 52,
          "name": "E3",
          "ticks": 163848,
          "time": 116.3692018125,
          "velocity": 0.30708661417322836
        },
        {
          "duration": 0.0852271875000099,
          "durationTicks": 120,
          "midi": 64,
          "name": "E4",
          "ticks": 163848,
          "time": 116.3692018125,
          "velocity": 0.30708661417322836
        },
        {
          "duration": 0.0852271875000099,
          "durationTicks": 120,
          "midi": 84,
          "name": "C6",
          "ticks": 163848,
          "time": 116.3692018125,
          "velocity": 0.30708661417322836
        },
        {
          "duration": 0.0852271875000099,
          "durationTicks": 120,
          "midi": 88,
          "name": "E6",
          "ticks": 163848,
          "time": 116.3692018125,
          "velocity": 0.30708661417322836
        },
        {
          "duration": 0.0852271875000099,
          "durationTicks": 120,
          "midi": 76,
          "name": "E5",
          "ticks": 163848,
          "time": 116.3692018125,
          "velocity": 0.30708661417322836
        },
        {
          "duration": 0.0852271875000099,
          "durationTicks": 120,
          "midi": 81,
          "name": "A5",
          "ticks": 163848,
          "time": 116.3692018125,
          "velocity": 0.30708661417322836
        },
        {
          "duration": 0.0852271875000099,
          "durationTicks": 120,
          "midi": 72,
          "name": "C5",
          "ticks": 163848,
          "time": 116.3692018125,
          "velocity": 0.30708661417322836
        },
        {
          "duration": 0.0852271874999957,
          "durationTicks": 120,
          "midi": 81,
          "name": "A5",
          "ticks": 163944,
          "time": 116.4373835625,
          "velocity": 0.30708661417322836
        },
        {
          "duration": 0.0852271874999957,
          "durationTicks": 120,
          "midi": 88,
          "name": "E6",
          "ticks": 163944,
          "time": 116.4373835625,
          "velocity": 0.30708661417322836
        },
        {
          "duration": 0.0852271874999957,
          "durationTicks": 120,
          "midi": 69,
          "name": "A4",
          "ticks": 163944,
          "time": 116.4373835625,
          "velocity": 0.30708661417322836
        },
        {
          "duration": 0.0852271874999957,
          "durationTicks": 120,
          "midi": 69,
          "name": "A4",
          "ticks": 163944,
          "time": 116.4373835625,
          "velocity": 0.30708661417322836
        },
        {
          "duration": 0.0852271874999957,
          "durationTicks": 120,
          "midi": 72,
          "name": "C5",
          "ticks": 163944,
          "time": 116.4373835625,
          "velocity": 0.30708661417322836
        },
        {
          "duration": 0.0852271874999957,
          "durationTicks": 120,
          "midi": 72,
          "name": "C5",
          "ticks": 163944,
          "time": 116.4373835625,
          "velocity": 0.30708661417322836
        },
        {
          "duration": 0.0852271874999957,
          "durationTicks": 120,
          "midi": 64,
          "name": "E4",
          "ticks": 163944,
          "time": 116.4373835625,
          "velocity": 0.30708661417322836
        },
        {
          "duration": 0.0852271874999957,
          "durationTicks": 120,
          "midi": 76,
          "name": "E5",
          "ticks": 163944,
          "time": 116.4373835625,
          "velocity": 0.30708661417322836
        },
        {
          "duration": 0.0852271874999957,
          "durationTicks": 120,
          "midi": 76,
          "name": "E5",
          "ticks": 163944,
          "time": 116.4373835625,
          "velocity": 0.30708661417322836
        },
        {
          "duration": 0.0852271874999957,
          "durationTicks": 120,
          "midi": 81,
          "name": "A5",
          "ticks": 163944,
          "time": 116.4373835625,
          "velocity": 0.30708661417322836
        },
        {
          "duration": 0.0852271874999957,
          "durationTicks": 120,
          "midi": 84,
          "name": "C6",
          "ticks": 163944,
          "time": 116.4373835625,
          "velocity": 0.30708661417322836
        },
        {
          "duration": 0.0852271874999957,
          "durationTicks": 120,
          "midi": 84,
          "name": "C6",
          "ticks": 163944,
          "time": 116.4373835625,
          "velocity": 0.30708661417322836
        },
        {
          "duration": 0.0852271874999957,
          "durationTicks": 120,
          "midi": 88,
          "name": "E6",
          "ticks": 163944,
          "time": 116.4373835625,
          "velocity": 0.30708661417322836
        },
        {
          "duration": 0.0852271874999957,
          "durationTicks": 120,
          "midi": 64,
          "name": "E4",
          "ticks": 163944,
          "time": 116.4373835625,
          "velocity": 0.30708661417322836
        },
        {
          "duration": 0.0852271874999957,
          "durationTicks": 120,
          "midi": 88,
          "name": "E6",
          "ticks": 163968,
          "time": 116.454429,
          "velocity": 0.30708661417322836
        },
        {
          "duration": 0.0852271874999957,
          "durationTicks": 120,
          "midi": 84,
          "name": "C6",
          "ticks": 163968,
          "time": 116.454429,
          "velocity": 0.30708661417322836
        },
        {
          "duration": 0.0852271874999957,
          "durationTicks": 120,
          "midi": 72,
          "name": "C5",
          "ticks": 163968,
          "time": 116.454429,
          "velocity": 0.30708661417322836
        },
        {
          "duration": 0.0852271874999957,
          "durationTicks": 120,
          "midi": 76,
          "name": "E5",
          "ticks": 163968,
          "time": 116.454429,
          "velocity": 0.30708661417322836
        },
        {
          "duration": 0.0852271874999957,
          "durationTicks": 120,
          "midi": 64,
          "name": "E4",
          "ticks": 163968,
          "time": 116.454429,
          "velocity": 0.30708661417322836
        },
        {
          "duration": 0.0852271874999957,
          "durationTicks": 120,
          "midi": 69,
          "name": "A4",
          "ticks": 163968,
          "time": 116.454429,
          "velocity": 0.30708661417322836
        },
        {
          "duration": 0.0852271874999957,
          "durationTicks": 120,
          "midi": 81,
          "name": "A5",
          "ticks": 163968,
          "time": 116.454429,
          "velocity": 0.30708661417322836
        },
        {
          "duration": 0.0852271874999957,
          "durationTicks": 120,
          "midi": 72,
          "name": "C5",
          "ticks": 164064,
          "time": 116.52261075,
          "velocity": 0.30708661417322836
        },
        {
          "duration": 0.0852271874999957,
          "durationTicks": 120,
          "midi": 64,
          "name": "E4",
          "ticks": 164064,
          "time": 116.52261075,
          "velocity": 0.30708661417322836
        },
        {
          "duration": 0.22159068749999733,
          "durationTicks": 312,
          "midi": 45,
          "name": "A2",
          "ticks": 164064,
          "time": 116.52261075,
          "velocity": 0.30708661417322836
        },
        {
          "duration": 0.0852271874999957,
          "durationTicks": 120,
          "midi": 88,
          "name": "E6",
          "ticks": 164064,
          "time": 116.52261075,
          "velocity": 0.30708661417322836
        },
        {
          "duration": 0.0852271874999957,
          "durationTicks": 120,
          "midi": 81,
          "name": "A5",
          "ticks": 164064,
          "time": 116.52261075,
          "velocity": 0.30708661417322836
        },
        {
          "duration": 0.0852271874999957,
          "durationTicks": 120,
          "midi": 69,
          "name": "A4",
          "ticks": 164064,
          "time": 116.52261075,
          "velocity": 0.30708661417322836
        },
        {
          "duration": 0.0852271874999957,
          "durationTicks": 120,
          "midi": 64,
          "name": "E4",
          "ticks": 164064,
          "time": 116.52261075,
          "velocity": 0.30708661417322836
        },
        {
          "duration": 0.22159068749999733,
          "durationTicks": 312,
          "midi": 45,
          "name": "A2",
          "ticks": 164064,
          "time": 116.52261075,
          "velocity": 0.30708661417322836
        },
        {
          "duration": 0.0852271874999957,
          "durationTicks": 120,
          "midi": 88,
          "name": "E6",
          "ticks": 164064,
          "time": 116.52261075,
          "velocity": 0.30708661417322836
        },
        {
          "duration": 0.0852271874999957,
          "durationTicks": 120,
          "midi": 84,
          "name": "C6",
          "ticks": 164064,
          "time": 116.52261075,
          "velocity": 0.30708661417322836
        },
        {
          "duration": 0.0852271874999957,
          "durationTicks": 120,
          "midi": 72,
          "name": "C5",
          "ticks": 164064,
          "time": 116.52261075,
          "velocity": 0.30708661417322836
        },
        {
          "duration": 0.0852271874999957,
          "durationTicks": 120,
          "midi": 81,
          "name": "A5",
          "ticks": 164064,
          "time": 116.52261075,
          "velocity": 0.30708661417322836
        },
        {
          "duration": 0.0852271874999957,
          "durationTicks": 120,
          "midi": 76,
          "name": "E5",
          "ticks": 164064,
          "time": 116.52261075,
          "velocity": 0.30708661417322836
        },
        {
          "duration": 0.0852271874999957,
          "durationTicks": 120,
          "midi": 69,
          "name": "A4",
          "ticks": 164064,
          "time": 116.52261075,
          "velocity": 0.30708661417322836
        },
        {
          "duration": 0.0852271874999957,
          "durationTicks": 120,
          "midi": 84,
          "name": "C6",
          "ticks": 164064,
          "time": 116.52261075,
          "velocity": 0.30708661417322836
        },
        {
          "duration": 0.0852271874999957,
          "durationTicks": 120,
          "midi": 76,
          "name": "E5",
          "ticks": 164064,
          "time": 116.52261075,
          "velocity": 0.30708661417322836
        },
        {
          "duration": 0.0852271874999957,
          "durationTicks": 120,
          "midi": 76,
          "name": "E5",
          "ticks": 164088,
          "time": 116.5396561875,
          "velocity": 0.30708661417322836
        },
        {
          "duration": 0.22159068749999733,
          "durationTicks": 312,
          "midi": 45,
          "name": "A2",
          "ticks": 164088,
          "time": 116.5396561875,
          "velocity": 0.30708661417322836
        },
        {
          "duration": 0.0852271874999957,
          "durationTicks": 120,
          "midi": 84,
          "name": "C6",
          "ticks": 164088,
          "time": 116.5396561875,
          "velocity": 0.30708661417322836
        },
        {
          "duration": 0.0852271874999957,
          "durationTicks": 120,
          "midi": 69,
          "name": "A4",
          "ticks": 164088,
          "time": 116.5396561875,
          "velocity": 0.30708661417322836
        },
        {
          "duration": 0.0852271874999957,
          "durationTicks": 120,
          "midi": 72,
          "name": "C5",
          "ticks": 164088,
          "time": 116.5396561875,
          "velocity": 0.30708661417322836
        },
        {
          "duration": 0.0852271874999957,
          "durationTicks": 120,
          "midi": 88,
          "name": "E6",
          "ticks": 164088,
          "time": 116.5396561875,
          "velocity": 0.30708661417322836
        },
        {
          "duration": 0.0852271874999957,
          "durationTicks": 120,
          "midi": 81,
          "name": "A5",
          "ticks": 164088,
          "time": 116.5396561875,
          "velocity": 0.30708661417322836
        },
        {
          "duration": 0.0852271874999957,
          "durationTicks": 120,
          "midi": 64,
          "name": "E4",
          "ticks": 164088,
          "time": 116.5396561875,
          "velocity": 0.30708661417322836
        },
        {
          "duration": 0.0852271875000099,
          "durationTicks": 120,
          "midi": 81,
          "name": "A5",
          "ticks": 164184,
          "time": 116.6078379375,
          "velocity": 0.30708661417322836
        },
        {
          "duration": 0.0852271875000099,
          "durationTicks": 120,
          "midi": 88,
          "name": "E6",
          "ticks": 164184,
          "time": 116.6078379375,
          "velocity": 0.30708661417322836
        },
        {
          "duration": 0.0852271875000099,
          "durationTicks": 120,
          "midi": 81,
          "name": "A5",
          "ticks": 164184,
          "time": 116.6078379375,
          "velocity": 0.30708661417322836
        },
        {
          "duration": 0.0852271875000099,
          "durationTicks": 120,
          "midi": 64,
          "name": "E4",
          "ticks": 164184,
          "time": 116.6078379375,
          "velocity": 0.30708661417322836
        },
        {
          "duration": 0.0852271875000099,
          "durationTicks": 120,
          "midi": 69,
          "name": "A4",
          "ticks": 164184,
          "time": 116.6078379375,
          "velocity": 0.30708661417322836
        },
        {
          "duration": 0.0852271875000099,
          "durationTicks": 120,
          "midi": 64,
          "name": "E4",
          "ticks": 164184,
          "time": 116.6078379375,
          "velocity": 0.30708661417322836
        },
        {
          "duration": 0.0852271875000099,
          "durationTicks": 120,
          "midi": 76,
          "name": "E5",
          "ticks": 164184,
          "time": 116.6078379375,
          "velocity": 0.30708661417322836
        },
        {
          "duration": 0.0852271875000099,
          "durationTicks": 120,
          "midi": 84,
          "name": "C6",
          "ticks": 164184,
          "time": 116.6078379375,
          "velocity": 0.30708661417322836
        },
        {
          "duration": 0.0852271875000099,
          "durationTicks": 120,
          "midi": 69,
          "name": "A4",
          "ticks": 164184,
          "time": 116.6078379375,
          "velocity": 0.30708661417322836
        },
        {
          "duration": 0.0852271875000099,
          "durationTicks": 120,
          "midi": 72,
          "name": "C5",
          "ticks": 164184,
          "time": 116.6078379375,
          "velocity": 0.30708661417322836
        },
        {
          "duration": 0.0852271875000099,
          "durationTicks": 120,
          "midi": 76,
          "name": "E5",
          "ticks": 164184,
          "time": 116.6078379375,
          "velocity": 0.30708661417322836
        },
        {
          "duration": 0.0852271875000099,
          "durationTicks": 120,
          "midi": 84,
          "name": "C6",
          "ticks": 164184,
          "time": 116.6078379375,
          "velocity": 0.30708661417322836
        },
        {
          "duration": 0.0852271875000099,
          "durationTicks": 120,
          "midi": 72,
          "name": "C5",
          "ticks": 164184,
          "time": 116.6078379375,
          "velocity": 0.30708661417322836
        },
        {
          "duration": 0.0852271875000099,
          "durationTicks": 120,
          "midi": 88,
          "name": "E6",
          "ticks": 164184,
          "time": 116.6078379375,
          "velocity": 0.30708661417322836
        },
        {
          "duration": 0.0852271874999957,
          "durationTicks": 120,
          "midi": 88,
          "name": "E6",
          "ticks": 164208,
          "time": 116.624883375,
          "velocity": 0.30708661417322836
        },
        {
          "duration": 0.0852271874999957,
          "durationTicks": 120,
          "midi": 72,
          "name": "C5",
          "ticks": 164208,
          "time": 116.624883375,
          "velocity": 0.30708661417322836
        },
        {
          "duration": 0.0852271874999957,
          "durationTicks": 120,
          "midi": 81,
          "name": "A5",
          "ticks": 164208,
          "time": 116.624883375,
          "velocity": 0.30708661417322836
        },
        {
          "duration": 0.0852271874999957,
          "durationTicks": 120,
          "midi": 69,
          "name": "A4",
          "ticks": 164208,
          "time": 116.624883375,
          "velocity": 0.30708661417322836
        },
        {
          "duration": 0.0852271874999957,
          "durationTicks": 120,
          "midi": 64,
          "name": "E4",
          "ticks": 164208,
          "time": 116.624883375,
          "velocity": 0.30708661417322836
        },
        {
          "duration": 0.0852271874999957,
          "durationTicks": 120,
          "midi": 76,
          "name": "E5",
          "ticks": 164208,
          "time": 116.624883375,
          "velocity": 0.30708661417322836
        },
        {
          "duration": 0.0852271874999957,
          "durationTicks": 120,
          "midi": 84,
          "name": "C6",
          "ticks": 164208,
          "time": 116.624883375,
          "velocity": 0.30708661417322836
        },
        {
          "duration": 0.0852271874999957,
          "durationTicks": 120,
          "midi": 69,
          "name": "A4",
          "ticks": 164304,
          "time": 116.693065125,
          "velocity": 0.30708661417322836
        },
        {
          "duration": 0.0852271874999957,
          "durationTicks": 120,
          "midi": 88,
          "name": "E6",
          "ticks": 164304,
          "time": 116.693065125,
          "velocity": 0.30708661417322836
        },
        {
          "duration": 0.0852271874999957,
          "durationTicks": 120,
          "midi": 52,
          "name": "E3",
          "ticks": 164304,
          "time": 116.693065125,
          "velocity": 0.30708661417322836
        },
        {
          "duration": 0.0852271874999957,
          "durationTicks": 120,
          "midi": 64,
          "name": "E4",
          "ticks": 164304,
          "time": 116.693065125,
          "velocity": 0.30708661417322836
        },
        {
          "duration": 0.0852271874999957,
          "durationTicks": 120,
          "midi": 64,
          "name": "E4",
          "ticks": 164304,
          "time": 116.693065125,
          "velocity": 0.30708661417322836
        },
        {
          "duration": 0.0852271874999957,
          "durationTicks": 120,
          "midi": 72,
          "name": "C5",
          "ticks": 164304,
          "time": 116.693065125,
          "velocity": 0.30708661417322836
        },
        {
          "duration": 0.0852271874999957,
          "durationTicks": 120,
          "midi": 69,
          "name": "A4",
          "ticks": 164304,
          "time": 116.693065125,
          "velocity": 0.30708661417322836
        },
        {
          "duration": 0.0852271874999957,
          "durationTicks": 120,
          "midi": 72,
          "name": "C5",
          "ticks": 164304,
          "time": 116.693065125,
          "velocity": 0.30708661417322836
        },
        {
          "duration": 0.0852271874999957,
          "durationTicks": 120,
          "midi": 48,
          "name": "C3",
          "ticks": 164304,
          "time": 116.693065125,
          "velocity": 0.30708661417322836
        },
        {
          "duration": 0.0852271874999957,
          "durationTicks": 120,
          "midi": 48,
          "name": "C3",
          "ticks": 164304,
          "time": 116.693065125,
          "velocity": 0.30708661417322836
        },
        {
          "duration": 0.0852271874999957,
          "durationTicks": 120,
          "midi": 84,
          "name": "C6",
          "ticks": 164304,
          "time": 116.693065125,
          "velocity": 0.30708661417322836
        },
        {
          "duration": 0.0852271874999957,
          "durationTicks": 120,
          "midi": 88,
          "name": "E6",
          "ticks": 164304,
          "time": 116.693065125,
          "velocity": 0.30708661417322836
        },
        {
          "duration": 0.0852271874999957,
          "durationTicks": 120,
          "midi": 81,
          "name": "A5",
          "ticks": 164304,
          "time": 116.693065125,
          "velocity": 0.30708661417322836
        },
        {
          "duration": 0.0852271874999957,
          "durationTicks": 120,
          "midi": 52,
          "name": "E3",
          "ticks": 164304,
          "time": 116.693065125,
          "velocity": 0.30708661417322836
        },
        {
          "duration": 0.0852271874999957,
          "durationTicks": 120,
          "midi": 76,
          "name": "E5",
          "ticks": 164304,
          "time": 116.693065125,
          "velocity": 0.30708661417322836
        },
        {
          "duration": 0.0852271874999957,
          "durationTicks": 120,
          "midi": 84,
          "name": "C6",
          "ticks": 164304,
          "time": 116.693065125,
          "velocity": 0.30708661417322836
        },
        {
          "duration": 0.0852271874999957,
          "durationTicks": 120,
          "midi": 81,
          "name": "A5",
          "ticks": 164304,
          "time": 116.693065125,
          "velocity": 0.30708661417322836
        },
        {
          "duration": 0.0852271874999957,
          "durationTicks": 120,
          "midi": 76,
          "name": "E5",
          "ticks": 164304,
          "time": 116.693065125,
          "velocity": 0.30708661417322836
        },
        {
          "duration": 0.0852271875000099,
          "durationTicks": 120,
          "midi": 52,
          "name": "E3",
          "ticks": 164328,
          "time": 116.71011056249999,
          "velocity": 0.30708661417322836
        },
        {
          "duration": 0.0852271875000099,
          "durationTicks": 120,
          "midi": 81,
          "name": "A5",
          "ticks": 164328,
          "time": 116.71011056249999,
          "velocity": 0.30708661417322836
        },
        {
          "duration": 0.0852271875000099,
          "durationTicks": 120,
          "midi": 64,
          "name": "E4",
          "ticks": 164328,
          "time": 116.71011056249999,
          "velocity": 0.30708661417322836
        },
        {
          "duration": 0.0852271875000099,
          "durationTicks": 120,
          "midi": 48,
          "name": "C3",
          "ticks": 164328,
          "time": 116.71011056249999,
          "velocity": 0.30708661417322836
        },
        {
          "duration": 0.0852271875000099,
          "durationTicks": 120,
          "midi": 69,
          "name": "A4",
          "ticks": 164328,
          "time": 116.71011056249999,
          "velocity": 0.30708661417322836
        },
        {
          "duration": 0.0852271875000099,
          "durationTicks": 120,
          "midi": 72,
          "name": "C5",
          "ticks": 164328,
          "time": 116.71011056249999,
          "velocity": 0.30708661417322836
        },
        {
          "duration": 0.0852271875000099,
          "durationTicks": 120,
          "midi": 88,
          "name": "E6",
          "ticks": 164328,
          "time": 116.71011056249999,
          "velocity": 0.30708661417322836
        },
        {
          "duration": 0.0852271875000099,
          "durationTicks": 120,
          "midi": 76,
          "name": "E5",
          "ticks": 164328,
          "time": 116.71011056249999,
          "velocity": 0.30708661417322836
        },
        {
          "duration": 0.0852271875000099,
          "durationTicks": 120,
          "midi": 84,
          "name": "C6",
          "ticks": 164328,
          "time": 116.71011056249999,
          "velocity": 0.30708661417322836
        },
        {
          "duration": 0.0852271874999957,
          "durationTicks": 120,
          "midi": 72,
          "name": "C5",
          "ticks": 164424,
          "time": 116.7782923125,
          "velocity": 0.30708661417322836
        },
        {
          "duration": 0.0852271874999957,
          "durationTicks": 120,
          "midi": 76,
          "name": "E5",
          "ticks": 164424,
          "time": 116.7782923125,
          "velocity": 0.30708661417322836
        },
        {
          "duration": 0.0852271874999957,
          "durationTicks": 120,
          "midi": 69,
          "name": "A4",
          "ticks": 164424,
          "time": 116.7782923125,
          "velocity": 0.30708661417322836
        },
        {
          "duration": 0.0852271874999957,
          "durationTicks": 120,
          "midi": 76,
          "name": "E5",
          "ticks": 164424,
          "time": 116.7782923125,
          "velocity": 0.30708661417322836
        },
        {
          "duration": 0.0852271874999957,
          "durationTicks": 120,
          "midi": 88,
          "name": "E6",
          "ticks": 164424,
          "time": 116.7782923125,
          "velocity": 0.30708661417322836
        },
        {
          "duration": 0.0852271874999957,
          "durationTicks": 120,
          "midi": 64,
          "name": "E4",
          "ticks": 164424,
          "time": 116.7782923125,
          "velocity": 0.30708661417322836
        },
        {
          "duration": 0.0852271874999957,
          "durationTicks": 120,
          "midi": 72,
          "name": "C5",
          "ticks": 164424,
          "time": 116.7782923125,
          "velocity": 0.30708661417322836
        },
        {
          "duration": 0.0852271874999957,
          "durationTicks": 120,
          "midi": 88,
          "name": "E6",
          "ticks": 164424,
          "time": 116.7782923125,
          "velocity": 0.30708661417322836
        },
        {
          "duration": 0.0852271874999957,
          "durationTicks": 120,
          "midi": 81,
          "name": "A5",
          "ticks": 164424,
          "time": 116.7782923125,
          "velocity": 0.30708661417322836
        },
        {
          "duration": 0.0852271874999957,
          "durationTicks": 120,
          "midi": 69,
          "name": "A4",
          "ticks": 164424,
          "time": 116.7782923125,
          "velocity": 0.30708661417322836
        },
        {
          "duration": 0.0852271874999957,
          "durationTicks": 120,
          "midi": 84,
          "name": "C6",
          "ticks": 164424,
          "time": 116.7782923125,
          "velocity": 0.30708661417322836
        },
        {
          "duration": 0.0852271874999957,
          "durationTicks": 120,
          "midi": 64,
          "name": "E4",
          "ticks": 164424,
          "time": 116.7782923125,
          "velocity": 0.30708661417322836
        },
        {
          "duration": 0.0852271874999957,
          "durationTicks": 120,
          "midi": 81,
          "name": "A5",
          "ticks": 164424,
          "time": 116.7782923125,
          "velocity": 0.30708661417322836
        },
        {
          "duration": 0.0852271874999957,
          "durationTicks": 120,
          "midi": 84,
          "name": "C6",
          "ticks": 164424,
          "time": 116.7782923125,
          "velocity": 0.30708661417322836
        },
        {
          "duration": 0.0852271874999957,
          "durationTicks": 120,
          "midi": 81,
          "name": "A5",
          "ticks": 164448,
          "time": 116.79533775,
          "velocity": 0.30708661417322836
        },
        {
          "duration": 0.0852271874999957,
          "durationTicks": 120,
          "midi": 72,
          "name": "C5",
          "ticks": 164448,
          "time": 116.79533775,
          "velocity": 0.30708661417322836
        },
        {
          "duration": 0.0852271874999957,
          "durationTicks": 120,
          "midi": 69,
          "name": "A4",
          "ticks": 164448,
          "time": 116.79533775,
          "velocity": 0.30708661417322836
        },
        {
          "duration": 0.0852271874999957,
          "durationTicks": 120,
          "midi": 64,
          "name": "E4",
          "ticks": 164448,
          "time": 116.79533775,
          "velocity": 0.30708661417322836
        },
        {
          "duration": 0.0852271874999957,
          "durationTicks": 120,
          "midi": 88,
          "name": "E6",
          "ticks": 164448,
          "time": 116.79533775,
          "velocity": 0.30708661417322836
        },
        {
          "duration": 0.0852271874999957,
          "durationTicks": 120,
          "midi": 76,
          "name": "E5",
          "ticks": 164448,
          "time": 116.79533775,
          "velocity": 0.30708661417322836
        },
        {
          "duration": 0.0852271874999957,
          "durationTicks": 120,
          "midi": 84,
          "name": "C6",
          "ticks": 164448,
          "time": 116.79533775,
          "velocity": 0.30708661417322836
        },
        {
          "duration": 0.0852271875000099,
          "durationTicks": 120,
          "midi": 69,
          "name": "A4",
          "ticks": 164544,
          "time": 116.8635195,
          "velocity": 0.30708661417322836
        },
        {
          "duration": 0.0852271875000099,
          "durationTicks": 120,
          "midi": 40,
          "name": "E2",
          "ticks": 164544,
          "time": 116.8635195,
          "velocity": 0.30708661417322836
        },
        {
          "duration": 0.0852271875000099,
          "durationTicks": 120,
          "midi": 81,
          "name": "A5",
          "ticks": 164544,
          "time": 116.8635195,
          "velocity": 0.30708661417322836
        },
        {
          "duration": 0.0852271875000099,
          "durationTicks": 120,
          "midi": 76,
          "name": "E5",
          "ticks": 164544,
          "time": 116.8635195,
          "velocity": 0.30708661417322836
        },
        {
          "duration": 0.0852271875000099,
          "durationTicks": 120,
          "midi": 84,
          "name": "C6",
          "ticks": 164544,
          "time": 116.8635195,
          "velocity": 0.30708661417322836
        },
        {
          "duration": 0.0852271875000099,
          "durationTicks": 120,
          "midi": 69,
          "name": "A4",
          "ticks": 164544,
          "time": 116.8635195,
          "velocity": 0.30708661417322836
        },
        {
          "duration": 0.0852271875000099,
          "durationTicks": 120,
          "midi": 64,
          "name": "E4",
          "ticks": 164544,
          "time": 116.8635195,
          "velocity": 0.30708661417322836
        },
        {
          "duration": 0.0852271875000099,
          "durationTicks": 120,
          "midi": 72,
          "name": "C5",
          "ticks": 164544,
          "time": 116.8635195,
          "velocity": 0.30708661417322836
        },
        {
          "duration": 0.0852271875000099,
          "durationTicks": 120,
          "midi": 88,
          "name": "E6",
          "ticks": 164544,
          "time": 116.8635195,
          "velocity": 0.30708661417322836
        },
        {
          "duration": 0.0852271875000099,
          "durationTicks": 120,
          "midi": 72,
          "name": "C5",
          "ticks": 164544,
          "time": 116.8635195,
          "velocity": 0.30708661417322836
        },
        {
          "duration": 0.0852271875000099,
          "durationTicks": 120,
          "midi": 76,
          "name": "E5",
          "ticks": 164544,
          "time": 116.8635195,
          "velocity": 0.30708661417322836
        },
        {
          "duration": 0.0852271875000099,
          "durationTicks": 120,
          "midi": 64,
          "name": "E4",
          "ticks": 164544,
          "time": 116.8635195,
          "velocity": 0.30708661417322836
        },
        {
          "duration": 0.0852271875000099,
          "durationTicks": 120,
          "midi": 81,
          "name": "A5",
          "ticks": 164544,
          "time": 116.8635195,
          "velocity": 0.30708661417322836
        },
        {
          "duration": 0.0852271875000099,
          "durationTicks": 120,
          "midi": 88,
          "name": "E6",
          "ticks": 164544,
          "time": 116.8635195,
          "velocity": 0.30708661417322836
        },
        {
          "duration": 0.0852271875000099,
          "durationTicks": 120,
          "midi": 40,
          "name": "E2",
          "ticks": 164544,
          "time": 116.8635195,
          "velocity": 0.30708661417322836
        },
        {
          "duration": 0.0852271875000099,
          "durationTicks": 120,
          "midi": 84,
          "name": "C6",
          "ticks": 164544,
          "time": 116.8635195,
          "velocity": 0.30708661417322836
        },
        {
          "duration": 0.0852271874999957,
          "durationTicks": 120,
          "midi": 72,
          "name": "C5",
          "ticks": 164568,
          "time": 116.8805649375,
          "velocity": 0.30708661417322836
        },
        {
          "duration": 0.0852271874999957,
          "durationTicks": 120,
          "midi": 76,
          "name": "E5",
          "ticks": 164568,
          "time": 116.8805649375,
          "velocity": 0.30708661417322836
        },
        {
          "duration": 0.0852271874999957,
          "durationTicks": 120,
          "midi": 88,
          "name": "E6",
          "ticks": 164568,
          "time": 116.8805649375,
          "velocity": 0.30708661417322836
        },
        {
          "duration": 0.0852271874999957,
          "durationTicks": 120,
          "midi": 81,
          "name": "A5",
          "ticks": 164568,
          "time": 116.8805649375,
          "velocity": 0.30708661417322836
        },
        {
          "duration": 0.0852271874999957,
          "durationTicks": 120,
          "midi": 40,
          "name": "E2",
          "ticks": 164568,
          "time": 116.8805649375,
          "velocity": 0.30708661417322836
        },
        {
          "duration": 0.0852271874999957,
          "durationTicks": 120,
          "midi": 69,
          "name": "A4",
          "ticks": 164568,
          "time": 116.8805649375,
          "velocity": 0.30708661417322836
        },
        {
          "duration": 0.0852271874999957,
          "durationTicks": 120,
          "midi": 84,
          "name": "C6",
          "ticks": 164568,
          "time": 116.8805649375,
          "velocity": 0.30708661417322836
        },
        {
          "duration": 0.0852271874999957,
          "durationTicks": 120,
          "midi": 64,
          "name": "E4",
          "ticks": 164568,
          "time": 116.8805649375,
          "velocity": 0.30708661417322836
        },
        {
          "duration": 0.0852271874999957,
          "durationTicks": 120,
          "midi": 69,
          "name": "A4",
          "ticks": 164664,
          "time": 116.9487466875,
          "velocity": 0.30708661417322836
        },
        {
          "duration": 0.0852271874999957,
          "durationTicks": 120,
          "midi": 72,
          "name": "C5",
          "ticks": 164664,
          "time": 116.9487466875,
          "velocity": 0.30708661417322836
        },
        {
          "duration": 0.0852271874999957,
          "durationTicks": 120,
          "midi": 84,
          "name": "C6",
          "ticks": 164664,
          "time": 116.9487466875,
          "velocity": 0.30708661417322836
        },
        {
          "duration": 0.0852271874999957,
          "durationTicks": 120,
          "midi": 69,
          "name": "A4",
          "ticks": 164664,
          "time": 116.9487466875,
          "velocity": 0.30708661417322836
        },
        {
          "duration": 0.0852271874999957,
          "durationTicks": 120,
          "midi": 88,
          "name": "E6",
          "ticks": 164664,
          "time": 116.9487466875,
          "velocity": 0.30708661417322836
        },
        {
          "duration": 0.0852271874999957,
          "durationTicks": 120,
          "midi": 88,
          "name": "E6",
          "ticks": 164664,
          "time": 116.9487466875,
          "velocity": 0.30708661417322836
        },
        {
          "duration": 0.0852271874999957,
          "durationTicks": 120,
          "midi": 84,
          "name": "C6",
          "ticks": 164664,
          "time": 116.9487466875,
          "velocity": 0.30708661417322836
        },
        {
          "duration": 0.0852271874999957,
          "durationTicks": 120,
          "midi": 81,
          "name": "A5",
          "ticks": 164664,
          "time": 116.9487466875,
          "velocity": 0.30708661417322836
        },
        {
          "duration": 0.0852271874999957,
          "durationTicks": 120,
          "midi": 76,
          "name": "E5",
          "ticks": 164664,
          "time": 116.9487466875,
          "velocity": 0.30708661417322836
        },
        {
          "duration": 0.0852271874999957,
          "durationTicks": 120,
          "midi": 81,
          "name": "A5",
          "ticks": 164664,
          "time": 116.9487466875,
          "velocity": 0.30708661417322836
        },
        {
          "duration": 0.0852271874999957,
          "durationTicks": 120,
          "midi": 64,
          "name": "E4",
          "ticks": 164664,
          "time": 116.9487466875,
          "velocity": 0.30708661417322836
        },
        {
          "duration": 0.0852271874999957,
          "durationTicks": 120,
          "midi": 72,
          "name": "C5",
          "ticks": 164664,
          "time": 116.9487466875,
          "velocity": 0.30708661417322836
        },
        {
          "duration": 0.0852271874999957,
          "durationTicks": 120,
          "midi": 64,
          "name": "E4",
          "ticks": 164664,
          "time": 116.9487466875,
          "velocity": 0.30708661417322836
        },
        {
          "duration": 0.0852271874999957,
          "durationTicks": 120,
          "midi": 76,
          "name": "E5",
          "ticks": 164664,
          "time": 116.9487466875,
          "velocity": 0.30708661417322836
        },
        {
          "duration": 0.0852271875000099,
          "durationTicks": 120,
          "midi": 84,
          "name": "C6",
          "ticks": 164688,
          "time": 116.965792125,
          "velocity": 0.30708661417322836
        },
        {
          "duration": 0.0852271875000099,
          "durationTicks": 120,
          "midi": 69,
          "name": "A4",
          "ticks": 164688,
          "time": 116.965792125,
          "velocity": 0.30708661417322836
        },
        {
          "duration": 0.0852271875000099,
          "durationTicks": 120,
          "midi": 81,
          "name": "A5",
          "ticks": 164688,
          "time": 116.965792125,
          "velocity": 0.30708661417322836
        },
        {
          "duration": 0.0852271875000099,
          "durationTicks": 120,
          "midi": 88,
          "name": "E6",
          "ticks": 164688,
          "time": 116.965792125,
          "velocity": 0.30708661417322836
        },
        {
          "duration": 0.0852271875000099,
          "durationTicks": 120,
          "midi": 72,
          "name": "C5",
          "ticks": 164688,
          "time": 116.965792125,
          "velocity": 0.30708661417322836
        },
        {
          "duration": 0.0852271875000099,
          "durationTicks": 120,
          "midi": 76,
          "name": "E5",
          "ticks": 164688,
          "time": 116.965792125,
          "velocity": 0.30708661417322836
        },
        {
          "duration": 0.0852271875000099,
          "durationTicks": 120,
          "midi": 64,
          "name": "E4",
          "ticks": 164688,
          "time": 116.965792125,
          "velocity": 0.30708661417322836
        },
        {
          "duration": 0.0852271874999957,
          "durationTicks": 120,
          "midi": 88,
          "name": "E6",
          "ticks": 164784,
          "time": 117.033973875,
          "velocity": 0.30708661417322836
        },
        {
          "duration": 0.0852271874999957,
          "durationTicks": 120,
          "midi": 69,
          "name": "A4",
          "ticks": 164784,
          "time": 117.033973875,
          "velocity": 0.30708661417322836
        },
        {
          "duration": 0.0852271874999957,
          "durationTicks": 120,
          "midi": 72,
          "name": "C5",
          "ticks": 164784,
          "time": 117.033973875,
          "velocity": 0.30708661417322836
        },
        {
          "duration": 0.0852271874999957,
          "durationTicks": 120,
          "midi": 64,
          "name": "E4",
          "ticks": 164784,
          "time": 117.033973875,
          "velocity": 0.30708661417322836
        },
        {
          "duration": 0.0852271874999957,
          "durationTicks": 120,
          "midi": 64,
          "name": "E4",
          "ticks": 164784,
          "time": 117.033973875,
          "velocity": 0.30708661417322836
        },
        {
          "duration": 0.0852271874999957,
          "durationTicks": 120,
          "midi": 84,
          "name": "C6",
          "ticks": 164784,
          "time": 117.033973875,
          "velocity": 0.30708661417322836
        },
        {
          "duration": 0.0852271874999957,
          "durationTicks": 120,
          "midi": 72,
          "name": "C5",
          "ticks": 164784,
          "time": 117.033973875,
          "velocity": 0.30708661417322836
        },
        {
          "duration": 0.0852271874999957,
          "durationTicks": 120,
          "midi": 52,
          "name": "E3",
          "ticks": 164784,
          "time": 117.033973875,
          "velocity": 0.30708661417322836
        },
        {
          "duration": 0.0852271874999957,
          "durationTicks": 120,
          "midi": 48,
          "name": "C3",
          "ticks": 164784,
          "time": 117.033973875,
          "velocity": 0.30708661417322836
        },
        {
          "duration": 0.0852271874999957,
          "durationTicks": 120,
          "midi": 81,
          "name": "A5",
          "ticks": 164784,
          "time": 117.033973875,
          "velocity": 0.30708661417322836
        },
        {
          "duration": 0.0852271874999957,
          "durationTicks": 120,
          "midi": 84,
          "name": "C6",
          "ticks": 164784,
          "time": 117.033973875,
          "velocity": 0.30708661417322836
        },
        {
          "duration": 0.0852271874999957,
          "durationTicks": 120,
          "midi": 76,
          "name": "E5",
          "ticks": 164784,
          "time": 117.033973875,
          "velocity": 0.30708661417322836
        },
        {
          "duration": 0.0852271874999957,
          "durationTicks": 120,
          "midi": 76,
          "name": "E5",
          "ticks": 164784,
          "time": 117.033973875,
          "velocity": 0.30708661417322836
        },
        {
          "duration": 0.0852271874999957,
          "durationTicks": 120,
          "midi": 52,
          "name": "E3",
          "ticks": 164784,
          "time": 117.033973875,
          "velocity": 0.30708661417322836
        },
        {
          "duration": 0.0852271874999957,
          "durationTicks": 120,
          "midi": 69,
          "name": "A4",
          "ticks": 164784,
          "time": 117.033973875,
          "velocity": 0.30708661417322836
        },
        {
          "duration": 0.0852271874999957,
          "durationTicks": 120,
          "midi": 81,
          "name": "A5",
          "ticks": 164784,
          "time": 117.033973875,
          "velocity": 0.30708661417322836
        },
        {
          "duration": 0.0852271874999957,
          "durationTicks": 120,
          "midi": 88,
          "name": "E6",
          "ticks": 164784,
          "time": 117.033973875,
          "velocity": 0.30708661417322836
        },
        {
          "duration": 0.0852271874999957,
          "durationTicks": 120,
          "midi": 48,
          "name": "C3",
          "ticks": 164784,
          "time": 117.033973875,
          "velocity": 0.30708661417322836
        },
        {
          "duration": 0.0852271874999957,
          "durationTicks": 120,
          "midi": 84,
          "name": "C6",
          "ticks": 164808,
          "time": 117.0510193125,
          "velocity": 0.30708661417322836
        },
        {
          "duration": 0.0852271874999957,
          "durationTicks": 120,
          "midi": 64,
          "name": "E4",
          "ticks": 164808,
          "time": 117.0510193125,
          "velocity": 0.30708661417322836
        },
        {
          "duration": 0.0852271874999957,
          "durationTicks": 120,
          "midi": 72,
          "name": "C5",
          "ticks": 164808,
          "time": 117.0510193125,
          "velocity": 0.30708661417322836
        },
        {
          "duration": 0.0852271874999957,
          "durationTicks": 120,
          "midi": 48,
          "name": "C3",
          "ticks": 164808,
          "time": 117.0510193125,
          "velocity": 0.30708661417322836
        },
        {
          "duration": 0.0852271874999957,
          "durationTicks": 120,
          "midi": 69,
          "name": "A4",
          "ticks": 164808,
          "time": 117.0510193125,
          "velocity": 0.30708661417322836
        },
        {
          "duration": 0.0852271874999957,
          "durationTicks": 120,
          "midi": 52,
          "name": "E3",
          "ticks": 164808,
          "time": 117.0510193125,
          "velocity": 0.30708661417322836
        },
        {
          "duration": 0.0852271874999957,
          "durationTicks": 120,
          "midi": 76,
          "name": "E5",
          "ticks": 164808,
          "time": 117.0510193125,
          "velocity": 0.30708661417322836
        },
        {
          "duration": 0.0852271874999957,
          "durationTicks": 120,
          "midi": 81,
          "name": "A5",
          "ticks": 164808,
          "time": 117.0510193125,
          "velocity": 0.30708661417322836
        },
        {
          "duration": 0.0852271874999957,
          "durationTicks": 120,
          "midi": 88,
          "name": "E6",
          "ticks": 164808,
          "time": 117.0510193125,
          "velocity": 0.30708661417322836
        },
        {
          "duration": 0.0852271874999957,
          "durationTicks": 120,
          "midi": 76,
          "name": "E5",
          "ticks": 164904,
          "time": 117.1192010625,
          "velocity": 0.30708661417322836
        },
        {
          "duration": 0.0852271874999957,
          "durationTicks": 120,
          "midi": 88,
          "name": "E6",
          "ticks": 164904,
          "time": 117.1192010625,
          "velocity": 0.30708661417322836
        },
        {
          "duration": 0.0852271874999957,
          "durationTicks": 120,
          "midi": 72,
          "name": "C5",
          "ticks": 164904,
          "time": 117.1192010625,
          "velocity": 0.30708661417322836
        },
        {
          "duration": 0.0852271874999957,
          "durationTicks": 120,
          "midi": 64,
          "name": "E4",
          "ticks": 164904,
          "time": 117.1192010625,
          "velocity": 0.30708661417322836
        },
        {
          "duration": 0.0852271874999957,
          "durationTicks": 120,
          "midi": 72,
          "name": "C5",
          "ticks": 164904,
          "time": 117.1192010625,
          "velocity": 0.30708661417322836
        },
        {
          "duration": 0.0852271874999957,
          "durationTicks": 120,
          "midi": 64,
          "name": "E4",
          "ticks": 164904,
          "time": 117.1192010625,
          "velocity": 0.30708661417322836
        },
        {
          "duration": 0.0852271874999957,
          "durationTicks": 120,
          "midi": 69,
          "name": "A4",
          "ticks": 164904,
          "time": 117.1192010625,
          "velocity": 0.30708661417322836
        },
        {
          "duration": 0.0852271874999957,
          "durationTicks": 120,
          "midi": 84,
          "name": "C6",
          "ticks": 164904,
          "time": 117.1192010625,
          "velocity": 0.30708661417322836
        },
        {
          "duration": 0.0852271874999957,
          "durationTicks": 120,
          "midi": 81,
          "name": "A5",
          "ticks": 164904,
          "time": 117.1192010625,
          "velocity": 0.30708661417322836
        },
        {
          "duration": 0.0852271874999957,
          "durationTicks": 120,
          "midi": 69,
          "name": "A4",
          "ticks": 164904,
          "time": 117.1192010625,
          "velocity": 0.30708661417322836
        },
        {
          "duration": 0.0852271874999957,
          "durationTicks": 120,
          "midi": 76,
          "name": "E5",
          "ticks": 164904,
          "time": 117.1192010625,
          "velocity": 0.30708661417322836
        },
        {
          "duration": 0.0852271874999957,
          "durationTicks": 120,
          "midi": 84,
          "name": "C6",
          "ticks": 164904,
          "time": 117.1192010625,
          "velocity": 0.30708661417322836
        },
        {
          "duration": 0.0852271874999957,
          "durationTicks": 120,
          "midi": 81,
          "name": "A5",
          "ticks": 164904,
          "time": 117.1192010625,
          "velocity": 0.30708661417322836
        },
        {
          "duration": 0.0852271874999957,
          "durationTicks": 120,
          "midi": 88,
          "name": "E6",
          "ticks": 164904,
          "time": 117.1192010625,
          "velocity": 0.30708661417322836
        },
        {
          "duration": 0.0852271874999957,
          "durationTicks": 120,
          "midi": 84,
          "name": "C6",
          "ticks": 164928,
          "time": 117.1362465,
          "velocity": 0.30708661417322836
        },
        {
          "duration": 0.0852271874999957,
          "durationTicks": 120,
          "midi": 81,
          "name": "A5",
          "ticks": 164928,
          "time": 117.1362465,
          "velocity": 0.30708661417322836
        },
        {
          "duration": 0.0852271874999957,
          "durationTicks": 120,
          "midi": 88,
          "name": "E6",
          "ticks": 164928,
          "time": 117.1362465,
          "velocity": 0.30708661417322836
        },
        {
          "duration": 0.0852271874999957,
          "durationTicks": 120,
          "midi": 72,
          "name": "C5",
          "ticks": 164928,
          "time": 117.1362465,
          "velocity": 0.30708661417322836
        },
        {
          "duration": 0.0852271874999957,
          "durationTicks": 120,
          "midi": 76,
          "name": "E5",
          "ticks": 164928,
          "time": 117.1362465,
          "velocity": 0.30708661417322836
        },
        {
          "duration": 0.0852271874999957,
          "durationTicks": 120,
          "midi": 64,
          "name": "E4",
          "ticks": 164928,
          "time": 117.1362465,
          "velocity": 0.30708661417322836
        },
        {
          "duration": 0.0852271874999957,
          "durationTicks": 120,
          "midi": 69,
          "name": "A4",
          "ticks": 164928,
          "time": 117.1362465,
          "velocity": 0.30708661417322836
        },
        {
          "duration": 0.0852271875000099,
          "durationTicks": 120,
          "midi": 81,
          "name": "A5",
          "ticks": 165024,
          "time": 117.20442824999999,
          "velocity": 0.30708661417322836
        },
        {
          "duration": 0.0852271875000099,
          "durationTicks": 120,
          "midi": 69,
          "name": "A4",
          "ticks": 165024,
          "time": 117.20442824999999,
          "velocity": 0.30708661417322836
        },
        {
          "duration": 0.0852271875000099,
          "durationTicks": 120,
          "midi": 76,
          "name": "E5",
          "ticks": 165024,
          "time": 117.20442824999999,
          "velocity": 0.30708661417322836
        },
        {
          "duration": 0.22159068750001154,
          "durationTicks": 312,
          "midi": 45,
          "name": "A2",
          "ticks": 165024,
          "time": 117.20442824999999,
          "velocity": 0.30708661417322836
        },
        {
          "duration": 0.0852271875000099,
          "durationTicks": 120,
          "midi": 84,
          "name": "C6",
          "ticks": 165024,
          "time": 117.20442824999999,
          "velocity": 0.30708661417322836
        },
        {
          "duration": 0.0852271875000099,
          "durationTicks": 120,
          "midi": 72,
          "name": "C5",
          "ticks": 165024,
          "time": 117.20442824999999,
          "velocity": 0.30708661417322836
        },
        {
          "duration": 0.0852271875000099,
          "durationTicks": 120,
          "midi": 64,
          "name": "E4",
          "ticks": 165024,
          "time": 117.20442824999999,
          "velocity": 0.30708661417322836
        },
        {
          "duration": 0.0852271875000099,
          "durationTicks": 120,
          "midi": 88,
          "name": "E6",
          "ticks": 165024,
          "time": 117.20442824999999,
          "velocity": 0.30708661417322836
        },
        {
          "duration": 0.22159068750001154,
          "durationTicks": 312,
          "midi": 45,
          "name": "A2",
          "ticks": 165024,
          "time": 117.20442824999999,
          "velocity": 0.30708661417322836
        },
        {
          "duration": 0.0852271875000099,
          "durationTicks": 120,
          "midi": 84,
          "name": "C6",
          "ticks": 165024,
          "time": 117.20442824999999,
          "velocity": 0.30708661417322836
        },
        {
          "duration": 0.5624994375000085,
          "durationTicks": 792,
          "midi": 28,
          "name": "E1",
          "ticks": 165024,
          "time": 117.20442824999999,
          "velocity": 0.30708661417322836
        },
        {
          "duration": 0.0852271875000099,
          "durationTicks": 120,
          "midi": 76,
          "name": "E5",
          "ticks": 165024,
          "time": 117.20442824999999,
          "velocity": 0.30708661417322836
        },
        {
          "duration": 0.0852271875000099,
          "durationTicks": 120,
          "midi": 72,
          "name": "C5",
          "ticks": 165024,
          "time": 117.20442824999999,
          "velocity": 0.30708661417322836
        },
        {
          "duration": 0.0852271875000099,
          "durationTicks": 120,
          "midi": 69,
          "name": "A4",
          "ticks": 165024,
          "time": 117.20442824999999,
          "velocity": 0.30708661417322836
        },
        {
          "duration": 0.0852271875000099,
          "durationTicks": 120,
          "midi": 64,
          "name": "E4",
          "ticks": 165024,
          "time": 117.20442824999999,
          "velocity": 0.30708661417322836
        },
        {
          "duration": 0.5624994375000085,
          "durationTicks": 792,
          "midi": 28,
          "name": "E1",
          "ticks": 165024,
          "time": 117.20442824999999,
          "velocity": 0.30708661417322836
        },
        {
          "duration": 0.0852271875000099,
          "durationTicks": 120,
          "midi": 88,
          "name": "E6",
          "ticks": 165024,
          "time": 117.20442824999999,
          "velocity": 0.30708661417322836
        },
        {
          "duration": 0.0852271875000099,
          "durationTicks": 120,
          "midi": 81,
          "name": "A5",
          "ticks": 165024,
          "time": 117.20442824999999,
          "velocity": 0.30708661417322836
        },
        {
          "duration": 0.0852271875000099,
          "durationTicks": 120,
          "midi": 84,
          "name": "C6",
          "ticks": 165048,
          "time": 117.2214736875,
          "velocity": 0.30708661417322836
        },
        {
          "duration": 0.0852271875000099,
          "durationTicks": 120,
          "midi": 88,
          "name": "E6",
          "ticks": 165048,
          "time": 117.2214736875,
          "velocity": 0.30708661417322836
        },
        {
          "duration": 0.22159068750001154,
          "durationTicks": 312,
          "midi": 45,
          "name": "A2",
          "ticks": 165048,
          "time": 117.2214736875,
          "velocity": 0.30708661417322836
        },
        {
          "duration": 0.5624994375000085,
          "durationTicks": 792,
          "midi": 28,
          "name": "E1",
          "ticks": 165048,
          "time": 117.2214736875,
          "velocity": 0.30708661417322836
        },
        {
          "duration": 0.0852271875000099,
          "durationTicks": 120,
          "midi": 72,
          "name": "C5",
          "ticks": 165048,
          "time": 117.2214736875,
          "velocity": 0.30708661417322836
        },
        {
          "duration": 0.0852271875000099,
          "durationTicks": 120,
          "midi": 76,
          "name": "E5",
          "ticks": 165048,
          "time": 117.2214736875,
          "velocity": 0.30708661417322836
        },
        {
          "duration": 0.0852271875000099,
          "durationTicks": 120,
          "midi": 81,
          "name": "A5",
          "ticks": 165048,
          "time": 117.2214736875,
          "velocity": 0.30708661417322836
        },
        {
          "duration": 0.0852271875000099,
          "durationTicks": 120,
          "midi": 69,
          "name": "A4",
          "ticks": 165048,
          "time": 117.2214736875,
          "velocity": 0.30708661417322836
        },
        {
          "duration": 0.0852271875000099,
          "durationTicks": 120,
          "midi": 64,
          "name": "E4",
          "ticks": 165048,
          "time": 117.2214736875,
          "velocity": 0.30708661417322836
        },
        {
          "duration": 0.0852271874999957,
          "durationTicks": 120,
          "midi": 89,
          "name": "F6",
          "ticks": 165144,
          "time": 117.2896554375,
          "velocity": 0.30708661417322836
        },
        {
          "duration": 0.0852271874999957,
          "durationTicks": 120,
          "midi": 65,
          "name": "F4",
          "ticks": 165144,
          "time": 117.2896554375,
          "velocity": 0.30708661417322836
        },
        {
          "duration": 0.0852271874999957,
          "durationTicks": 120,
          "midi": 77,
          "name": "F5",
          "ticks": 165144,
          "time": 117.2896554375,
          "velocity": 0.30708661417322836
        },
        {
          "duration": 0.0852271874999957,
          "durationTicks": 120,
          "midi": 77,
          "name": "F5",
          "ticks": 165144,
          "time": 117.2896554375,
          "velocity": 0.30708661417322836
        },
        {
          "duration": 0.0852271874999957,
          "durationTicks": 120,
          "midi": 77,
          "name": "F5",
          "ticks": 165144,
          "time": 117.2896554375,
          "velocity": 0.30708661417322836
        },
        {
          "duration": 0.0852271874999957,
          "durationTicks": 120,
          "midi": 77,
          "name": "F5",
          "ticks": 165144,
          "time": 117.2896554375,
          "velocity": 0.30708661417322836
        },
        {
          "duration": 0.0852271874999957,
          "durationTicks": 120,
          "midi": 65,
          "name": "F4",
          "ticks": 165144,
          "time": 117.2896554375,
          "velocity": 0.30708661417322836
        },
        {
          "duration": 0.0852271874999957,
          "durationTicks": 120,
          "midi": 89,
          "name": "F6",
          "ticks": 165144,
          "time": 117.2896554375,
          "velocity": 0.30708661417322836
        },
        {
          "duration": 0.0852271874999957,
          "durationTicks": 120,
          "midi": 89,
          "name": "F6",
          "ticks": 165168,
          "time": 117.306700875,
          "velocity": 0.30708661417322836
        },
        {
          "duration": 0.0852271874999957,
          "durationTicks": 120,
          "midi": 77,
          "name": "F5",
          "ticks": 165168,
          "time": 117.306700875,
          "velocity": 0.30708661417322836
        },
        {
          "duration": 0.0852271874999957,
          "durationTicks": 120,
          "midi": 77,
          "name": "F5",
          "ticks": 165168,
          "time": 117.306700875,
          "velocity": 0.30708661417322836
        },
        {
          "duration": 0.0852271874999957,
          "durationTicks": 120,
          "midi": 65,
          "name": "F4",
          "ticks": 165168,
          "time": 117.306700875,
          "velocity": 0.30708661417322836
        },
        {
          "duration": 0.0852271874999957,
          "durationTicks": 120,
          "midi": 52,
          "name": "E3",
          "ticks": 165264,
          "time": 117.374882625,
          "velocity": 0.30708661417322836
        },
        {
          "duration": 0.0852271874999957,
          "durationTicks": 120,
          "midi": 76,
          "name": "E5",
          "ticks": 165264,
          "time": 117.374882625,
          "velocity": 0.30708661417322836
        },
        {
          "duration": 0.0852271874999957,
          "durationTicks": 120,
          "midi": 76,
          "name": "E5",
          "ticks": 165264,
          "time": 117.374882625,
          "velocity": 0.30708661417322836
        },
        {
          "duration": 0.0852271874999957,
          "durationTicks": 120,
          "midi": 76,
          "name": "E5",
          "ticks": 165264,
          "time": 117.374882625,
          "velocity": 0.30708661417322836
        },
        {
          "duration": 0.0852271874999957,
          "durationTicks": 120,
          "midi": 52,
          "name": "E3",
          "ticks": 165264,
          "time": 117.374882625,
          "velocity": 0.30708661417322836
        },
        {
          "duration": 0.0852271874999957,
          "durationTicks": 120,
          "midi": 64,
          "name": "E4",
          "ticks": 165264,
          "time": 117.374882625,
          "velocity": 0.30708661417322836
        },
        {
          "duration": 0.0852271874999957,
          "durationTicks": 120,
          "midi": 76,
          "name": "E5",
          "ticks": 165264,
          "time": 117.374882625,
          "velocity": 0.30708661417322836
        },
        {
          "duration": 0.0852271874999957,
          "durationTicks": 120,
          "midi": 48,
          "name": "C3",
          "ticks": 165264,
          "time": 117.374882625,
          "velocity": 0.30708661417322836
        },
        {
          "duration": 0.0852271874999957,
          "durationTicks": 120,
          "midi": 88,
          "name": "E6",
          "ticks": 165264,
          "time": 117.374882625,
          "velocity": 0.30708661417322836
        },
        {
          "duration": 0.0852271874999957,
          "durationTicks": 120,
          "midi": 64,
          "name": "E4",
          "ticks": 165264,
          "time": 117.374882625,
          "velocity": 0.30708661417322836
        },
        {
          "duration": 0.0852271874999957,
          "durationTicks": 120,
          "midi": 48,
          "name": "C3",
          "ticks": 165264,
          "time": 117.374882625,
          "velocity": 0.30708661417322836
        },
        {
          "duration": 0.0852271874999957,
          "durationTicks": 120,
          "midi": 88,
          "name": "E6",
          "ticks": 165264,
          "time": 117.374882625,
          "velocity": 0.30708661417322836
        },
        {
          "duration": 0.0852271874999957,
          "durationTicks": 120,
          "midi": 52,
          "name": "E3",
          "ticks": 165288,
          "time": 117.3919280625,
          "velocity": 0.30708661417322836
        },
        {
          "duration": 0.0852271874999957,
          "durationTicks": 120,
          "midi": 76,
          "name": "E5",
          "ticks": 165288,
          "time": 117.3919280625,
          "velocity": 0.30708661417322836
        },
        {
          "duration": 0.0852271874999957,
          "durationTicks": 120,
          "midi": 48,
          "name": "C3",
          "ticks": 165288,
          "time": 117.3919280625,
          "velocity": 0.30708661417322836
        },
        {
          "duration": 0.0852271874999957,
          "durationTicks": 120,
          "midi": 76,
          "name": "E5",
          "ticks": 165288,
          "time": 117.3919280625,
          "velocity": 0.30708661417322836
        },
        {
          "duration": 0.0852271874999957,
          "durationTicks": 120,
          "midi": 64,
          "name": "E4",
          "ticks": 165288,
          "time": 117.3919280625,
          "velocity": 0.30708661417322836
        },
        {
          "duration": 0.0852271874999957,
          "durationTicks": 120,
          "midi": 88,
          "name": "E6",
          "ticks": 165288,
          "time": 117.3919280625,
          "velocity": 0.30708661417322836
        },
        {
          "duration": 0.0852271875000099,
          "durationTicks": 120,
          "midi": 87,
          "name": "D#6",
          "ticks": 165384,
          "time": 117.4601098125,
          "velocity": 0.30708661417322836
        },
        {
          "duration": 0.0852271875000099,
          "durationTicks": 120,
          "midi": 75,
          "name": "D#5",
          "ticks": 165384,
          "time": 117.4601098125,
          "velocity": 0.30708661417322836
        },
        {
          "duration": 0.0852271875000099,
          "durationTicks": 120,
          "midi": 75,
          "name": "D#5",
          "ticks": 165384,
          "time": 117.4601098125,
          "velocity": 0.30708661417322836
        },
        {
          "duration": 0.0852271875000099,
          "durationTicks": 120,
          "midi": 75,
          "name": "D#5",
          "ticks": 165384,
          "time": 117.4601098125,
          "velocity": 0.30708661417322836
        },
        {
          "duration": 0.0852271875000099,
          "durationTicks": 120,
          "midi": 75,
          "name": "D#5",
          "ticks": 165384,
          "time": 117.4601098125,
          "velocity": 0.30708661417322836
        },
        {
          "duration": 0.0852271875000099,
          "durationTicks": 120,
          "midi": 63,
          "name": "D#4",
          "ticks": 165384,
          "time": 117.4601098125,
          "velocity": 0.30708661417322836
        },
        {
          "duration": 0.0852271875000099,
          "durationTicks": 120,
          "midi": 63,
          "name": "D#4",
          "ticks": 165384,
          "time": 117.4601098125,
          "velocity": 0.30708661417322836
        },
        {
          "duration": 0.0852271875000099,
          "durationTicks": 120,
          "midi": 87,
          "name": "D#6",
          "ticks": 165384,
          "time": 117.4601098125,
          "velocity": 0.30708661417322836
        },
        {
          "duration": 0.0852271875000099,
          "durationTicks": 120,
          "midi": 87,
          "name": "D#6",
          "ticks": 165408,
          "time": 117.47715525,
          "velocity": 0.30708661417322836
        },
        {
          "duration": 0.0852271875000099,
          "durationTicks": 120,
          "midi": 75,
          "name": "D#5",
          "ticks": 165408,
          "time": 117.47715525,
          "velocity": 0.30708661417322836
        },
        {
          "duration": 0.0852271875000099,
          "durationTicks": 120,
          "midi": 63,
          "name": "D#4",
          "ticks": 165408,
          "time": 117.47715525,
          "velocity": 0.30708661417322836
        },
        {
          "duration": 0.0852271875000099,
          "durationTicks": 120,
          "midi": 75,
          "name": "D#5",
          "ticks": 165408,
          "time": 117.47715525,
          "velocity": 0.30708661417322836
        },
        {
          "duration": 0.22159068749999733,
          "durationTicks": 312,
          "midi": 76,
          "name": "E5",
          "ticks": 165504,
          "time": 117.545337,
          "velocity": 0.30708661417322836
        },
        {
          "duration": 0.22159068749999733,
          "durationTicks": 312,
          "midi": 72,
          "name": "C5",
          "ticks": 165504,
          "time": 117.545337,
          "velocity": 0.30708661417322836
        },
        {
          "duration": 0.22159068749999733,
          "durationTicks": 312,
          "midi": 69,
          "name": "A4",
          "ticks": 165504,
          "time": 117.545337,
          "velocity": 0.30708661417322836
        },
        {
          "duration": 0.22159068749999733,
          "durationTicks": 312,
          "midi": 72,
          "name": "C5",
          "ticks": 165504,
          "time": 117.545337,
          "velocity": 0.30708661417322836
        },
        {
          "duration": 0.22159068749999733,
          "durationTicks": 312,
          "midi": 76,
          "name": "E5",
          "ticks": 165504,
          "time": 117.545337,
          "velocity": 0.30708661417322836
        },
        {
          "duration": 0.22159068749999733,
          "durationTicks": 312,
          "midi": 69,
          "name": "A4",
          "ticks": 165504,
          "time": 117.545337,
          "velocity": 0.30708661417322836
        },
        {
          "duration": 0.22159068749999733,
          "durationTicks": 312,
          "midi": 64,
          "name": "E4",
          "ticks": 165504,
          "time": 117.545337,
          "velocity": 0.30708661417322836
        },
        {
          "duration": 0.0852271874999957,
          "durationTicks": 120,
          "midi": 40,
          "name": "E2",
          "ticks": 165504,
          "time": 117.545337,
          "velocity": 0.30708661417322836
        },
        {
          "duration": 0.0852271874999957,
          "durationTicks": 120,
          "midi": 40,
          "name": "E2",
          "ticks": 165504,
          "time": 117.545337,
          "velocity": 0.30708661417322836
        },
        {
          "duration": 0.22159068749999733,
          "durationTicks": 312,
          "midi": 64,
          "name": "E4",
          "ticks": 165504,
          "time": 117.545337,
          "velocity": 0.30708661417322836
        },
        {
          "duration": 0.22159068749999733,
          "durationTicks": 312,
          "midi": 64,
          "name": "E4",
          "ticks": 165528,
          "time": 117.5623824375,
          "velocity": 0.30708661417322836
        },
        {
          "duration": 0.22159068749999733,
          "durationTicks": 312,
          "midi": 76,
          "name": "E5",
          "ticks": 165528,
          "time": 117.5623824375,
          "velocity": 0.30708661417322836
        },
        {
          "duration": 0.22159068749999733,
          "durationTicks": 312,
          "midi": 69,
          "name": "A4",
          "ticks": 165528,
          "time": 117.5623824375,
          "velocity": 0.30708661417322836
        },
        {
          "duration": 0.22159068749999733,
          "durationTicks": 312,
          "midi": 72,
          "name": "C5",
          "ticks": 165528,
          "time": 117.5623824375,
          "velocity": 0.30708661417322836
        },
        {
          "duration": 0.0852271874999957,
          "durationTicks": 120,
          "midi": 40,
          "name": "E2",
          "ticks": 165528,
          "time": 117.5623824375,
          "velocity": 0.30708661417322836
        },
        {
          "duration": 0.28977243750000525,
          "durationTicks": 408,
          "midi": 30,
          "name": "F#1",
          "ticks": 165600,
          "time": 117.61351875,
          "velocity": 0.30708661417322836
        },
        {
          "duration": 0.28977243750000525,
          "durationTicks": 408,
          "midi": 30,
          "name": "F#1",
          "ticks": 165600,
          "time": 117.61351875,
          "velocity": 0.30708661417322836
        },
        {
          "duration": 0.28977243750000525,
          "durationTicks": 408,
          "midi": 30,
          "name": "F#1",
          "ticks": 165624,
          "time": 117.6305641875,
          "velocity": 0.30708661417322836
        },
        {
          "duration": 0.0852271875000099,
          "durationTicks": 120,
          "midi": 81,
          "name": "A5",
          "ticks": 165744,
          "time": 117.715791375,
          "velocity": 0.30708661417322836
        },
        {
          "duration": 0.0852271875000099,
          "durationTicks": 120,
          "midi": 76,
          "name": "E5",
          "ticks": 165744,
          "time": 117.715791375,
          "velocity": 0.30708661417322836
        },
        {
          "duration": 0.0852271875000099,
          "durationTicks": 120,
          "midi": 81,
          "name": "A5",
          "ticks": 165744,
          "time": 117.715791375,
          "velocity": 0.30708661417322836
        },
        {
          "duration": 0.0852271875000099,
          "durationTicks": 120,
          "midi": 48,
          "name": "C3",
          "ticks": 165744,
          "time": 117.715791375,
          "velocity": 0.30708661417322836
        },
        {
          "duration": 0.0852271875000099,
          "durationTicks": 120,
          "midi": 52,
          "name": "E3",
          "ticks": 165744,
          "time": 117.715791375,
          "velocity": 0.30708661417322836
        },
        {
          "duration": 0.0852271875000099,
          "durationTicks": 120,
          "midi": 52,
          "name": "E3",
          "ticks": 165744,
          "time": 117.715791375,
          "velocity": 0.30708661417322836
        },
        {
          "duration": 0.0852271875000099,
          "durationTicks": 120,
          "midi": 69,
          "name": "A4",
          "ticks": 165744,
          "time": 117.715791375,
          "velocity": 0.30708661417322836
        },
        {
          "duration": 0.0852271875000099,
          "durationTicks": 120,
          "midi": 72,
          "name": "C5",
          "ticks": 165744,
          "time": 117.715791375,
          "velocity": 0.30708661417322836
        },
        {
          "duration": 0.0852271875000099,
          "durationTicks": 120,
          "midi": 48,
          "name": "C3",
          "ticks": 165744,
          "time": 117.715791375,
          "velocity": 0.30708661417322836
        },
        {
          "duration": 0.0852271875000099,
          "durationTicks": 120,
          "midi": 72,
          "name": "C5",
          "ticks": 165744,
          "time": 117.715791375,
          "velocity": 0.30708661417322836
        },
        {
          "duration": 0.0852271875000099,
          "durationTicks": 120,
          "midi": 76,
          "name": "E5",
          "ticks": 165744,
          "time": 117.715791375,
          "velocity": 0.30708661417322836
        },
        {
          "duration": 0.0852271875000099,
          "durationTicks": 120,
          "midi": 69,
          "name": "A4",
          "ticks": 165744,
          "time": 117.715791375,
          "velocity": 0.30708661417322836
        },
        {
          "duration": 0.0852271874999957,
          "durationTicks": 120,
          "midi": 69,
          "name": "A4",
          "ticks": 165768,
          "time": 117.7328368125,
          "velocity": 0.30708661417322836
        },
        {
          "duration": 0.0852271874999957,
          "durationTicks": 120,
          "midi": 48,
          "name": "C3",
          "ticks": 165768,
          "time": 117.7328368125,
          "velocity": 0.30708661417322836
        },
        {
          "duration": 0.0852271874999957,
          "durationTicks": 120,
          "midi": 52,
          "name": "E3",
          "ticks": 165768,
          "time": 117.7328368125,
          "velocity": 0.30708661417322836
        },
        {
          "duration": 0.0852271874999957,
          "durationTicks": 120,
          "midi": 72,
          "name": "C5",
          "ticks": 165768,
          "time": 117.7328368125,
          "velocity": 0.30708661417322836
        },
        {
          "duration": 0.0852271874999957,
          "durationTicks": 120,
          "midi": 81,
          "name": "A5",
          "ticks": 165768,
          "time": 117.7328368125,
          "velocity": 0.30708661417322836
        },
        {
          "duration": 0.0852271874999957,
          "durationTicks": 120,
          "midi": 76,
          "name": "E5",
          "ticks": 165768,
          "time": 117.7328368125,
          "velocity": 0.30708661417322836
        },
        {
          "duration": 0.0852271874999957,
          "durationTicks": 120,
          "midi": 76,
          "name": "E5",
          "ticks": 165864,
          "time": 117.8010185625,
          "velocity": 0.30708661417322836
        },
        {
          "duration": 0.0852271874999957,
          "durationTicks": 120,
          "midi": 81,
          "name": "A5",
          "ticks": 165864,
          "time": 117.8010185625,
          "velocity": 0.30708661417322836
        },
        {
          "duration": 0.0852271874999957,
          "durationTicks": 120,
          "midi": 81,
          "name": "A5",
          "ticks": 165864,
          "time": 117.8010185625,
          "velocity": 0.30708661417322836
        },
        {
          "duration": 0.0852271874999957,
          "durationTicks": 120,
          "midi": 72,
          "name": "C5",
          "ticks": 165864,
          "time": 117.8010185625,
          "velocity": 0.30708661417322836
        },
        {
          "duration": 0.0852271874999957,
          "durationTicks": 120,
          "midi": 84,
          "name": "C6",
          "ticks": 165864,
          "time": 117.8010185625,
          "velocity": 0.30708661417322836
        },
        {
          "duration": 0.0852271874999957,
          "durationTicks": 120,
          "midi": 76,
          "name": "E5",
          "ticks": 165864,
          "time": 117.8010185625,
          "velocity": 0.30708661417322836
        },
        {
          "duration": 0.0852271874999957,
          "durationTicks": 120,
          "midi": 84,
          "name": "C6",
          "ticks": 165864,
          "time": 117.8010185625,
          "velocity": 0.30708661417322836
        },
        {
          "duration": 0.0852271874999957,
          "durationTicks": 120,
          "midi": 72,
          "name": "C5",
          "ticks": 165864,
          "time": 117.8010185625,
          "velocity": 0.30708661417322836
        },
        {
          "duration": 0.0852271875000099,
          "durationTicks": 120,
          "midi": 72,
          "name": "C5",
          "ticks": 165888,
          "time": 117.81806399999999,
          "velocity": 0.30708661417322836
        },
        {
          "duration": 0.0852271875000099,
          "durationTicks": 120,
          "midi": 76,
          "name": "E5",
          "ticks": 165888,
          "time": 117.81806399999999,
          "velocity": 0.30708661417322836
        },
        {
          "duration": 0.0852271875000099,
          "durationTicks": 120,
          "midi": 84,
          "name": "C6",
          "ticks": 165888,
          "time": 117.81806399999999,
          "velocity": 0.30708661417322836
        },
        {
          "duration": 0.0852271875000099,
          "durationTicks": 120,
          "midi": 81,
          "name": "A5",
          "ticks": 165888,
          "time": 117.81806399999999,
          "velocity": 0.30708661417322836
        },
        {
          "duration": 0.22159068749999733,
          "durationTicks": 312,
          "midi": 45,
          "name": "A2",
          "ticks": 165984,
          "time": 117.88624575,
          "velocity": 0.30708661417322836
        },
        {
          "duration": 0.22159068749999733,
          "durationTicks": 312,
          "midi": 84,
          "name": "C6",
          "ticks": 165984,
          "time": 117.88624575,
          "velocity": 0.30708661417322836
        },
        {
          "duration": 0.22159068749999733,
          "durationTicks": 312,
          "midi": 76,
          "name": "E5",
          "ticks": 165984,
          "time": 117.88624575,
          "velocity": 0.30708661417322836
        },
        {
          "duration": 0.22159068749999733,
          "durationTicks": 312,
          "midi": 84,
          "name": "C6",
          "ticks": 165984,
          "time": 117.88624575,
          "velocity": 0.30708661417322836
        },
        {
          "duration": 0.22159068749999733,
          "durationTicks": 312,
          "midi": 45,
          "name": "A2",
          "ticks": 165984,
          "time": 117.88624575,
          "velocity": 0.30708661417322836
        },
        {
          "duration": 0.22159068749999733,
          "durationTicks": 312,
          "midi": 76,
          "name": "E5",
          "ticks": 165984,
          "time": 117.88624575,
          "velocity": 0.30708661417322836
        },
        {
          "duration": 0.22159068749999733,
          "durationTicks": 312,
          "midi": 88,
          "name": "E6",
          "ticks": 165984,
          "time": 117.88624575,
          "velocity": 0.30708661417322836
        },
        {
          "duration": 0.22159068749999733,
          "durationTicks": 312,
          "midi": 88,
          "name": "E6",
          "ticks": 165984,
          "time": 117.88624575,
          "velocity": 0.30708661417322836
        },
        {
          "duration": 0.22159068749999733,
          "durationTicks": 312,
          "midi": 81,
          "name": "A5",
          "ticks": 165984,
          "time": 117.88624575,
          "velocity": 0.30708661417322836
        },
        {
          "duration": 0.22159068749999733,
          "durationTicks": 312,
          "midi": 81,
          "name": "A5",
          "ticks": 165984,
          "time": 117.88624575,
          "velocity": 0.30708661417322836
        },
        {
          "duration": 0.22159068749999733,
          "durationTicks": 312,
          "midi": 45,
          "name": "A2",
          "ticks": 166008,
          "time": 117.9032911875,
          "velocity": 0.30708661417322836
        },
        {
          "duration": 0.22159068749999733,
          "durationTicks": 312,
          "midi": 84,
          "name": "C6",
          "ticks": 166008,
          "time": 117.9032911875,
          "velocity": 0.30708661417322836
        },
        {
          "duration": 0.22159068749999733,
          "durationTicks": 312,
          "midi": 81,
          "name": "A5",
          "ticks": 166008,
          "time": 117.9032911875,
          "velocity": 0.30708661417322836
        },
        {
          "duration": 0.22159068749999733,
          "durationTicks": 312,
          "midi": 88,
          "name": "E6",
          "ticks": 166008,
          "time": 117.9032911875,
          "velocity": 0.30708661417322836
        },
        {
          "duration": 0.22159068749999733,
          "durationTicks": 312,
          "midi": 76,
          "name": "E5",
          "ticks": 166008,
          "time": 117.9032911875,
          "velocity": 0.30708661417322836
        },
        {
          "duration": 0.22159068750001154,
          "durationTicks": 312,
          "midi": 81,
          "name": "A5",
          "ticks": 166224,
          "time": 118.05670012499999,
          "velocity": 0.30708661417322836
        },
        {
          "duration": 0.22159068750001154,
          "durationTicks": 312,
          "midi": 93,
          "name": "A6",
          "ticks": 166224,
          "time": 118.05670012499999,
          "velocity": 0.30708661417322836
        },
        {
          "duration": 0.0852271875000099,
          "durationTicks": 120,
          "midi": 52,
          "name": "E3",
          "ticks": 166224,
          "time": 118.05670012499999,
          "velocity": 0.30708661417322836
        },
        {
          "duration": 0.0852271875000099,
          "durationTicks": 120,
          "midi": 48,
          "name": "C3",
          "ticks": 166224,
          "time": 118.05670012499999,
          "velocity": 0.30708661417322836
        },
        {
          "duration": 0.22159068750001154,
          "durationTicks": 312,
          "midi": 84,
          "name": "C6",
          "ticks": 166224,
          "time": 118.05670012499999,
          "velocity": 0.30708661417322836
        },
        {
          "duration": 0.22159068750001154,
          "durationTicks": 312,
          "midi": 93,
          "name": "A6",
          "ticks": 166224,
          "time": 118.05670012499999,
          "velocity": 0.30708661417322836
        },
        {
          "duration": 0.22159068750001154,
          "durationTicks": 312,
          "midi": 81,
          "name": "A5",
          "ticks": 166224,
          "time": 118.05670012499999,
          "velocity": 0.30708661417322836
        },
        {
          "duration": 0.22159068750001154,
          "durationTicks": 312,
          "midi": 84,
          "name": "C6",
          "ticks": 166224,
          "time": 118.05670012499999,
          "velocity": 0.30708661417322836
        },
        {
          "duration": 0.22159068750001154,
          "durationTicks": 312,
          "midi": 88,
          "name": "E6",
          "ticks": 166224,
          "time": 118.05670012499999,
          "velocity": 0.30708661417322836
        },
        {
          "duration": 0.0852271875000099,
          "durationTicks": 120,
          "midi": 52,
          "name": "E3",
          "ticks": 166224,
          "time": 118.05670012499999,
          "velocity": 0.30708661417322836
        },
        {
          "duration": 0.0852271875000099,
          "durationTicks": 120,
          "midi": 48,
          "name": "C3",
          "ticks": 166224,
          "time": 118.05670012499999,
          "velocity": 0.30708661417322836
        },
        {
          "duration": 0.22159068750001154,
          "durationTicks": 312,
          "midi": 88,
          "name": "E6",
          "ticks": 166224,
          "time": 118.05670012499999,
          "velocity": 0.30708661417322836
        },
        {
          "duration": 0.0852271875000099,
          "durationTicks": 120,
          "midi": 52,
          "name": "E3",
          "ticks": 166248,
          "time": 118.0737455625,
          "velocity": 0.30708661417322836
        },
        {
          "duration": 0.0852271875000099,
          "durationTicks": 120,
          "midi": 48,
          "name": "C3",
          "ticks": 166248,
          "time": 118.0737455625,
          "velocity": 0.30708661417322836
        },
        {
          "duration": 0.22159068750001154,
          "durationTicks": 312,
          "midi": 93,
          "name": "A6",
          "ticks": 166248,
          "time": 118.0737455625,
          "velocity": 0.30708661417322836
        },
        {
          "duration": 0.22159068750001154,
          "durationTicks": 312,
          "midi": 84,
          "name": "C6",
          "ticks": 166248,
          "time": 118.0737455625,
          "velocity": 0.30708661417322836
        },
        {
          "duration": 0.22159068750001154,
          "durationTicks": 312,
          "midi": 81,
          "name": "A5",
          "ticks": 166248,
          "time": 118.0737455625,
          "velocity": 0.30708661417322836
        },
        {
          "duration": 0.22159068750001154,
          "durationTicks": 312,
          "midi": 88,
          "name": "E6",
          "ticks": 166248,
          "time": 118.0737455625,
          "velocity": 0.30708661417322836
        },
        {
          "duration": 0.4261359375000069,
          "durationTicks": 600,
          "midi": 88,
          "name": "E6",
          "ticks": 166464,
          "time": 118.2271545,
          "velocity": 0.30708661417322836
        },
        {
          "duration": 0.4261359375000069,
          "durationTicks": 600,
          "midi": 88,
          "name": "E6",
          "ticks": 166464,
          "time": 118.2271545,
          "velocity": 0.30708661417322836
        },
        {
          "duration": 0.4261359375000069,
          "durationTicks": 600,
          "midi": 84,
          "name": "C6",
          "ticks": 166464,
          "time": 118.2271545,
          "velocity": 0.30708661417322836
        },
        {
          "duration": 0.4261359375000069,
          "durationTicks": 600,
          "midi": 84,
          "name": "C6",
          "ticks": 166464,
          "time": 118.2271545,
          "velocity": 0.30708661417322836
        },
        {
          "duration": 0.4261359375000069,
          "durationTicks": 600,
          "midi": 84,
          "name": "C6",
          "ticks": 166464,
          "time": 118.2271545,
          "velocity": 0.30708661417322836
        },
        {
          "duration": 0.4261359375000069,
          "durationTicks": 600,
          "midi": 84,
          "name": "C6",
          "ticks": 166464,
          "time": 118.2271545,
          "velocity": 0.30708661417322836
        },
        {
          "duration": 0.4261359375000069,
          "durationTicks": 600,
          "midi": 93,
          "name": "A6",
          "ticks": 166464,
          "time": 118.2271545,
          "velocity": 0.30708661417322836
        },
        {
          "duration": 0.0852271874999957,
          "durationTicks": 120,
          "midi": 40,
          "name": "E2",
          "ticks": 166464,
          "time": 118.2271545,
          "velocity": 0.30708661417322836
        },
        {
          "duration": 0.4261359375000069,
          "durationTicks": 600,
          "midi": 93,
          "name": "A6",
          "ticks": 166464,
          "time": 118.2271545,
          "velocity": 0.30708661417322836
        },
        {
          "duration": 0.0852271874999957,
          "durationTicks": 120,
          "midi": 40,
          "name": "E2",
          "ticks": 166464,
          "time": 118.2271545,
          "velocity": 0.30708661417322836
        },
        {
          "duration": 0.4261359374999927,
          "durationTicks": 600,
          "midi": 84,
          "name": "C6",
          "ticks": 166488,
          "time": 118.2441999375,
          "velocity": 0.30708661417322836
        },
        {
          "duration": 0.4261359374999927,
          "durationTicks": 600,
          "midi": 84,
          "name": "C6",
          "ticks": 166488,
          "time": 118.2441999375,
          "velocity": 0.30708661417322836
        },
        {
          "duration": 0.4261359374999927,
          "durationTicks": 600,
          "midi": 88,
          "name": "E6",
          "ticks": 166488,
          "time": 118.2441999375,
          "velocity": 0.30708661417322836
        },
        {
          "duration": 0.4261359374999927,
          "durationTicks": 600,
          "midi": 93,
          "name": "A6",
          "ticks": 166488,
          "time": 118.2441999375,
          "velocity": 0.30708661417322836
        },
        {
          "duration": 0.0852271874999957,
          "durationTicks": 120,
          "midi": 40,
          "name": "E2",
          "ticks": 166488,
          "time": 118.2441999375,
          "velocity": 0.30708661417322836
        },
        {
          "duration": 0.0852271874999957,
          "durationTicks": 120,
          "midi": 48,
          "name": "C3",
          "ticks": 166704,
          "time": 118.397608875,
          "velocity": 0.30708661417322836
        },
        {
          "duration": 0.0852271874999957,
          "durationTicks": 120,
          "midi": 52,
          "name": "E3",
          "ticks": 166704,
          "time": 118.397608875,
          "velocity": 0.30708661417322836
        },
        {
          "duration": 0.0852271874999957,
          "durationTicks": 120,
          "midi": 48,
          "name": "C3",
          "ticks": 166704,
          "time": 118.397608875,
          "velocity": 0.30708661417322836
        },
        {
          "duration": 0.0852271874999957,
          "durationTicks": 120,
          "midi": 52,
          "name": "E3",
          "ticks": 166704,
          "time": 118.397608875,
          "velocity": 0.30708661417322836
        },
        {
          "duration": 0.0852271874999957,
          "durationTicks": 120,
          "midi": 52,
          "name": "E3",
          "ticks": 166728,
          "time": 118.4146543125,
          "velocity": 0.30708661417322836
        },
        {
          "duration": 0.0852271874999957,
          "durationTicks": 120,
          "midi": 48,
          "name": "C3",
          "ticks": 166728,
          "time": 118.4146543125,
          "velocity": 0.30708661417322836
        },
        {
          "duration": 0.0852271875000099,
          "durationTicks": 120,
          "midi": 91,
          "name": "G6",
          "ticks": 166944,
          "time": 118.56806325,
          "velocity": 0.30708661417322836
        },
        {
          "duration": 0.0852271875000099,
          "durationTicks": 120,
          "midi": 91,
          "name": "G6",
          "ticks": 166944,
          "time": 118.56806325,
          "velocity": 0.30708661417322836
        },
        {
          "duration": 0.0852271875000099,
          "durationTicks": 120,
          "midi": 95,
          "name": "B6",
          "ticks": 166944,
          "time": 118.56806325,
          "velocity": 0.30708661417322836
        },
        {
          "duration": 0.0852271875000099,
          "durationTicks": 120,
          "midi": 50,
          "name": "D3",
          "ticks": 166944,
          "time": 118.56806325,
          "velocity": 0.30708661417322836
        },
        {
          "duration": 0.0852271875000099,
          "durationTicks": 120,
          "midi": 86,
          "name": "D6",
          "ticks": 166944,
          "time": 118.56806325,
          "velocity": 0.30708661417322836
        },
        {
          "duration": 0.0852271875000099,
          "durationTicks": 120,
          "midi": 95,
          "name": "B6",
          "ticks": 166944,
          "time": 118.56806325,
          "velocity": 0.30708661417322836
        },
        {
          "duration": 0.0852271875000099,
          "durationTicks": 120,
          "midi": 50,
          "name": "D3",
          "ticks": 166944,
          "time": 118.56806325,
          "velocity": 0.30708661417322836
        },
        {
          "duration": 0.0852271875000099,
          "durationTicks": 120,
          "midi": 86,
          "name": "D6",
          "ticks": 166944,
          "time": 118.56806325,
          "velocity": 0.30708661417322836
        },
        {
          "duration": 0.0852271874999957,
          "durationTicks": 120,
          "midi": 95,
          "name": "B6",
          "ticks": 166968,
          "time": 118.5851086875,
          "velocity": 0.30708661417322836
        },
        {
          "duration": 0.0852271874999957,
          "durationTicks": 120,
          "midi": 50,
          "name": "D3",
          "ticks": 166968,
          "time": 118.5851086875,
          "velocity": 0.30708661417322836
        },
        {
          "duration": 0.0852271874999957,
          "durationTicks": 120,
          "midi": 91,
          "name": "G6",
          "ticks": 166968,
          "time": 118.5851086875,
          "velocity": 0.30708661417322836
        },
        {
          "duration": 0.0852271874999957,
          "durationTicks": 120,
          "midi": 86,
          "name": "D6",
          "ticks": 166968,
          "time": 118.5851086875,
          "velocity": 0.30708661417322836
        },
        {
          "duration": 0.0852271874999957,
          "durationTicks": 120,
          "midi": 93,
          "name": "A6",
          "ticks": 167064,
          "time": 118.6532904375,
          "velocity": 0.30708661417322836
        },
        {
          "duration": 0.0852271874999957,
          "durationTicks": 120,
          "midi": 88,
          "name": "E6",
          "ticks": 167064,
          "time": 118.6532904375,
          "velocity": 0.30708661417322836
        },
        {
          "duration": 0.0852271874999957,
          "durationTicks": 120,
          "midi": 84,
          "name": "C6",
          "ticks": 167064,
          "time": 118.6532904375,
          "velocity": 0.30708661417322836
        },
        {
          "duration": 0.0852271874999957,
          "durationTicks": 120,
          "midi": 84,
          "name": "C6",
          "ticks": 167064,
          "time": 118.6532904375,
          "velocity": 0.30708661417322836
        },
        {
          "duration": 0.0852271874999957,
          "durationTicks": 120,
          "midi": 84,
          "name": "C6",
          "ticks": 167064,
          "time": 118.6532904375,
          "velocity": 0.30708661417322836
        },
        {
          "duration": 0.0852271874999957,
          "durationTicks": 120,
          "midi": 88,
          "name": "E6",
          "ticks": 167064,
          "time": 118.6532904375,
          "velocity": 0.30708661417322836
        },
        {
          "duration": 0.0852271874999957,
          "durationTicks": 120,
          "midi": 93,
          "name": "A6",
          "ticks": 167064,
          "time": 118.6532904375,
          "velocity": 0.30708661417322836
        },
        {
          "duration": 0.0852271874999957,
          "durationTicks": 120,
          "midi": 84,
          "name": "C6",
          "ticks": 167064,
          "time": 118.6532904375,
          "velocity": 0.30708661417322836
        },
        {
          "duration": 0.0852271875000099,
          "durationTicks": 120,
          "midi": 84,
          "name": "C6",
          "ticks": 167088,
          "time": 118.67033587499999,
          "velocity": 0.30708661417322836
        },
        {
          "duration": 0.0852271875000099,
          "durationTicks": 120,
          "midi": 84,
          "name": "C6",
          "ticks": 167088,
          "time": 118.67033587499999,
          "velocity": 0.30708661417322836
        },
        {
          "duration": 0.0852271875000099,
          "durationTicks": 120,
          "midi": 88,
          "name": "E6",
          "ticks": 167088,
          "time": 118.67033587499999,
          "velocity": 0.30708661417322836
        },
        {
          "duration": 0.0852271875000099,
          "durationTicks": 120,
          "midi": 93,
          "name": "A6",
          "ticks": 167088,
          "time": 118.67033587499999,
          "velocity": 0.30708661417322836
        },
        {
          "duration": 0.0852271874999957,
          "durationTicks": 120,
          "midi": 59,
          "name": "B3",
          "ticks": 167184,
          "time": 118.738517625,
          "velocity": 0.30708661417322836
        },
        {
          "duration": 0.0852271874999957,
          "durationTicks": 120,
          "midi": 91,
          "name": "G6",
          "ticks": 167184,
          "time": 118.738517625,
          "velocity": 0.30708661417322836
        },
        {
          "duration": 0.0852271874999957,
          "durationTicks": 120,
          "midi": 88,
          "name": "E6",
          "ticks": 167184,
          "time": 118.738517625,
          "velocity": 0.30708661417322836
        },
        {
          "duration": 0.0852271874999957,
          "durationTicks": 120,
          "midi": 59,
          "name": "B3",
          "ticks": 167184,
          "time": 118.738517625,
          "velocity": 0.30708661417322836
        },
        {
          "duration": 0.0852271874999957,
          "durationTicks": 120,
          "midi": 53,
          "name": "F3",
          "ticks": 167184,
          "time": 118.738517625,
          "velocity": 0.30708661417322836
        },
        {
          "duration": 0.0852271874999957,
          "durationTicks": 120,
          "midi": 95,
          "name": "B6",
          "ticks": 167184,
          "time": 118.738517625,
          "velocity": 0.30708661417322836
        },
        {
          "duration": 0.0852271874999957,
          "durationTicks": 120,
          "midi": 53,
          "name": "F3",
          "ticks": 167184,
          "time": 118.738517625,
          "velocity": 0.30708661417322836
        },
        {
          "duration": 0.0852271874999957,
          "durationTicks": 120,
          "midi": 88,
          "name": "E6",
          "ticks": 167184,
          "time": 118.738517625,
          "velocity": 0.30708661417322836
        },
        {
          "duration": 0.0852271874999957,
          "durationTicks": 120,
          "midi": 83,
          "name": "B5",
          "ticks": 167184,
          "time": 118.738517625,
          "velocity": 0.30708661417322836
        },
        {
          "duration": 0.0852271874999957,
          "durationTicks": 120,
          "midi": 91,
          "name": "G6",
          "ticks": 167184,
          "time": 118.738517625,
          "velocity": 0.30708661417322836
        },
        {
          "duration": 0.0852271874999957,
          "durationTicks": 120,
          "midi": 83,
          "name": "B5",
          "ticks": 167184,
          "time": 118.738517625,
          "velocity": 0.30708661417322836
        },
        {
          "duration": 0.0852271874999957,
          "durationTicks": 120,
          "midi": 95,
          "name": "B6",
          "ticks": 167184,
          "time": 118.738517625,
          "velocity": 0.30708661417322836
        },
        {
          "duration": 0.0852271874999957,
          "durationTicks": 120,
          "midi": 53,
          "name": "F3",
          "ticks": 167208,
          "time": 118.7555630625,
          "velocity": 0.30708661417322836
        },
        {
          "duration": 0.0852271874999957,
          "durationTicks": 120,
          "midi": 95,
          "name": "B6",
          "ticks": 167208,
          "time": 118.7555630625,
          "velocity": 0.30708661417322836
        },
        {
          "duration": 0.0852271874999957,
          "durationTicks": 120,
          "midi": 59,
          "name": "B3",
          "ticks": 167208,
          "time": 118.7555630625,
          "velocity": 0.30708661417322836
        },
        {
          "duration": 0.0852271874999957,
          "durationTicks": 120,
          "midi": 88,
          "name": "E6",
          "ticks": 167208,
          "time": 118.7555630625,
          "velocity": 0.30708661417322836
        },
        {
          "duration": 0.0852271874999957,
          "durationTicks": 120,
          "midi": 83,
          "name": "B5",
          "ticks": 167208,
          "time": 118.7555630625,
          "velocity": 0.30708661417322836
        },
        {
          "duration": 0.0852271874999957,
          "durationTicks": 120,
          "midi": 91,
          "name": "G6",
          "ticks": 167208,
          "time": 118.7555630625,
          "velocity": 0.30708661417322836
        },
        {
          "duration": 0.0852271875000099,
          "durationTicks": 120,
          "midi": 86,
          "name": "D6",
          "ticks": 167304,
          "time": 118.8237448125,
          "velocity": 0.30708661417322836
        },
        {
          "duration": 0.0852271875000099,
          "durationTicks": 120,
          "midi": 86,
          "name": "D6",
          "ticks": 167304,
          "time": 118.8237448125,
          "velocity": 0.30708661417322836
        },
        {
          "duration": 0.0852271874999957,
          "durationTicks": 120,
          "midi": 86,
          "name": "D6",
          "ticks": 167328,
          "time": 118.84079025,
          "velocity": 0.30708661417322836
        },
        {
          "duration": 0.1534089374999894,
          "durationTicks": 216,
          "midi": 48,
          "name": "C3",
          "ticks": 167424,
          "time": 118.908972,
          "velocity": 0.30708661417322836
        },
        {
          "duration": 0.1534089374999894,
          "durationTicks": 216,
          "midi": 48,
          "name": "C3",
          "ticks": 167424,
          "time": 118.908972,
          "velocity": 0.30708661417322836
        },
        {
          "duration": 0.0852271874999957,
          "durationTicks": 120,
          "midi": 84,
          "name": "C6",
          "ticks": 167424,
          "time": 118.908972,
          "velocity": 0.30708661417322836
        },
        {
          "duration": 0.0852271874999957,
          "durationTicks": 120,
          "midi": 84,
          "name": "C6",
          "ticks": 167424,
          "time": 118.908972,
          "velocity": 0.30708661417322836
        },
        {
          "duration": 0.0852271874999957,
          "durationTicks": 120,
          "midi": 84,
          "name": "C6",
          "ticks": 167424,
          "time": 118.908972,
          "velocity": 0.30708661417322836
        },
        {
          "duration": 0.0852271874999957,
          "durationTicks": 120,
          "midi": 84,
          "name": "C6",
          "ticks": 167424,
          "time": 118.908972,
          "velocity": 0.30708661417322836
        },
        {
          "duration": 0.0852271875000099,
          "durationTicks": 120,
          "midi": 84,
          "name": "C6",
          "ticks": 167448,
          "time": 118.9260174375,
          "velocity": 0.30708661417322836
        },
        {
          "duration": 0.15340893750000362,
          "durationTicks": 216,
          "midi": 48,
          "name": "C3",
          "ticks": 167448,
          "time": 118.9260174375,
          "velocity": 0.30708661417322836
        },
        {
          "duration": 0.0852271875000099,
          "durationTicks": 120,
          "midi": 84,
          "name": "C6",
          "ticks": 167448,
          "time": 118.9260174375,
          "velocity": 0.30708661417322836
        },
        {
          "duration": 0.0852271874999957,
          "durationTicks": 120,
          "midi": 91,
          "name": "G6",
          "ticks": 167544,
          "time": 118.9941991875,
          "velocity": 0.30708661417322836
        },
        {
          "duration": 0.0852271874999957,
          "durationTicks": 120,
          "midi": 83,
          "name": "B5",
          "ticks": 167544,
          "time": 118.9941991875,
          "velocity": 0.30708661417322836
        },
        {
          "duration": 0.0852271874999957,
          "durationTicks": 120,
          "midi": 95,
          "name": "B6",
          "ticks": 167544,
          "time": 118.9941991875,
          "velocity": 0.30708661417322836
        },
        {
          "duration": 0.0852271874999957,
          "durationTicks": 120,
          "midi": 86,
          "name": "D6",
          "ticks": 167544,
          "time": 118.9941991875,
          "velocity": 0.30708661417322836
        },
        {
          "duration": 0.0852271874999957,
          "durationTicks": 120,
          "midi": 83,
          "name": "B5",
          "ticks": 167544,
          "time": 118.9941991875,
          "velocity": 0.30708661417322836
        },
        {
          "duration": 0.0852271874999957,
          "durationTicks": 120,
          "midi": 91,
          "name": "G6",
          "ticks": 167544,
          "time": 118.9941991875,
          "velocity": 0.30708661417322836
        },
        {
          "duration": 0.0852271874999957,
          "durationTicks": 120,
          "midi": 86,
          "name": "D6",
          "ticks": 167544,
          "time": 118.9941991875,
          "velocity": 0.30708661417322836
        },
        {
          "duration": 0.0852271874999957,
          "durationTicks": 120,
          "midi": 95,
          "name": "B6",
          "ticks": 167544,
          "time": 118.9941991875,
          "velocity": 0.30708661417322836
        },
        {
          "duration": 0.0852271874999957,
          "durationTicks": 120,
          "midi": 95,
          "name": "B6",
          "ticks": 167568,
          "time": 119.011244625,
          "velocity": 0.30708661417322836
        },
        {
          "duration": 0.0852271874999957,
          "durationTicks": 120,
          "midi": 86,
          "name": "D6",
          "ticks": 167568,
          "time": 119.011244625,
          "velocity": 0.30708661417322836
        },
        {
          "duration": 0.0852271874999957,
          "durationTicks": 120,
          "midi": 91,
          "name": "G6",
          "ticks": 167568,
          "time": 119.011244625,
          "velocity": 0.30708661417322836
        },
        {
          "duration": 0.0852271874999957,
          "durationTicks": 120,
          "midi": 83,
          "name": "B5",
          "ticks": 167568,
          "time": 119.011244625,
          "velocity": 0.30708661417322836
        },
        {
          "duration": 0.0852271874999957,
          "durationTicks": 120,
          "midi": 81,
          "name": "A5",
          "ticks": 167664,
          "time": 119.079426375,
          "velocity": 0.30708661417322836
        },
        {
          "duration": 0.0852271874999957,
          "durationTicks": 120,
          "midi": 52,
          "name": "E3",
          "ticks": 167664,
          "time": 119.079426375,
          "velocity": 0.30708661417322836
        },
        {
          "duration": 0.0852271874999957,
          "durationTicks": 120,
          "midi": 81,
          "name": "A5",
          "ticks": 167664,
          "time": 119.079426375,
          "velocity": 0.30708661417322836
        },
        {
          "duration": 0.0852271874999957,
          "durationTicks": 120,
          "midi": 93,
          "name": "A6",
          "ticks": 167664,
          "time": 119.079426375,
          "velocity": 0.30708661417322836
        },
        {
          "duration": 0.0852271874999957,
          "durationTicks": 120,
          "midi": 52,
          "name": "E3",
          "ticks": 167664,
          "time": 119.079426375,
          "velocity": 0.30708661417322836
        },
        {
          "duration": 0.0852271874999957,
          "durationTicks": 120,
          "midi": 60,
          "name": "C4",
          "ticks": 167664,
          "time": 119.079426375,
          "velocity": 0.30708661417322836
        },
        {
          "duration": 0.0852271874999957,
          "durationTicks": 120,
          "midi": 60,
          "name": "C4",
          "ticks": 167664,
          "time": 119.079426375,
          "velocity": 0.30708661417322836
        },
        {
          "duration": 0.0852271874999957,
          "durationTicks": 120,
          "midi": 93,
          "name": "A6",
          "ticks": 167664,
          "time": 119.079426375,
          "velocity": 0.30708661417322836
        },
        {
          "duration": 0.0852271874999957,
          "durationTicks": 120,
          "midi": 81,
          "name": "A5",
          "ticks": 167688,
          "time": 119.0964718125,
          "velocity": 0.30708661417322836
        },
        {
          "duration": 0.0852271874999957,
          "durationTicks": 120,
          "midi": 52,
          "name": "E3",
          "ticks": 167688,
          "time": 119.0964718125,
          "velocity": 0.30708661417322836
        },
        {
          "duration": 0.0852271874999957,
          "durationTicks": 120,
          "midi": 60,
          "name": "C4",
          "ticks": 167688,
          "time": 119.0964718125,
          "velocity": 0.30708661417322836
        },
        {
          "duration": 0.0852271874999957,
          "durationTicks": 120,
          "midi": 93,
          "name": "A6",
          "ticks": 167688,
          "time": 119.0964718125,
          "velocity": 0.30708661417322836
        },
        {
          "duration": 0.0852271874999957,
          "durationTicks": 120,
          "midi": 84,
          "name": "C6",
          "ticks": 167760,
          "time": 119.147608125,
          "velocity": 0.30708661417322836
        },
        {
          "duration": 0.0852271874999957,
          "durationTicks": 120,
          "midi": 84,
          "name": "C6",
          "ticks": 167760,
          "time": 119.147608125,
          "velocity": 0.30708661417322836
        },
        {
          "duration": 0.0852271874999957,
          "durationTicks": 120,
          "midi": 84,
          "name": "C6",
          "ticks": 167760,
          "time": 119.147608125,
          "velocity": 0.30708661417322836
        },
        {
          "duration": 0.0852271874999957,
          "durationTicks": 120,
          "midi": 84,
          "name": "C6",
          "ticks": 167760,
          "time": 119.147608125,
          "velocity": 0.30708661417322836
        },
        {
          "duration": 0.0852271875000099,
          "durationTicks": 120,
          "midi": 84,
          "name": "C6",
          "ticks": 167784,
          "time": 119.16465356249999,
          "velocity": 0.30708661417322836
        },
        {
          "duration": 0.0852271875000099,
          "durationTicks": 120,
          "midi": 84,
          "name": "C6",
          "ticks": 167784,
          "time": 119.16465356249999,
          "velocity": 0.30708661417322836
        },
        {
          "duration": 0.0852271874999957,
          "durationTicks": 120,
          "midi": 83,
          "name": "B5",
          "ticks": 167880,
          "time": 119.2328353125,
          "velocity": 0.30708661417322836
        },
        {
          "duration": 0.0852271874999957,
          "durationTicks": 120,
          "midi": 86,
          "name": "D6",
          "ticks": 167880,
          "time": 119.2328353125,
          "velocity": 0.30708661417322836
        },
        {
          "duration": 0.0852271874999957,
          "durationTicks": 120,
          "midi": 86,
          "name": "D6",
          "ticks": 167880,
          "time": 119.2328353125,
          "velocity": 0.30708661417322836
        },
        {
          "duration": 0.0852271874999957,
          "durationTicks": 120,
          "midi": 91,
          "name": "G6",
          "ticks": 167880,
          "time": 119.2328353125,
          "velocity": 0.30708661417322836
        },
        {
          "duration": 0.0852271874999957,
          "durationTicks": 120,
          "midi": 95,
          "name": "B6",
          "ticks": 167880,
          "time": 119.2328353125,
          "velocity": 0.30708661417322836
        },
        {
          "duration": 0.0852271874999957,
          "durationTicks": 120,
          "midi": 95,
          "name": "B6",
          "ticks": 167880,
          "time": 119.2328353125,
          "velocity": 0.30708661417322836
        },
        {
          "duration": 0.0852271874999957,
          "durationTicks": 120,
          "midi": 91,
          "name": "G6",
          "ticks": 167880,
          "time": 119.2328353125,
          "velocity": 0.30708661417322836
        },
        {
          "duration": 0.0852271874999957,
          "durationTicks": 120,
          "midi": 83,
          "name": "B5",
          "ticks": 167880,
          "time": 119.2328353125,
          "velocity": 0.30708661417322836
        },
        {
          "duration": 0.0852271874999957,
          "durationTicks": 120,
          "midi": 91,
          "name": "G6",
          "ticks": 167904,
          "time": 119.24988075,
          "velocity": 0.30708661417322836
        },
        {
          "duration": 0.0852271874999957,
          "durationTicks": 120,
          "midi": 86,
          "name": "D6",
          "ticks": 167904,
          "time": 119.24988075,
          "velocity": 0.30708661417322836
        },
        {
          "duration": 0.0852271874999957,
          "durationTicks": 120,
          "midi": 83,
          "name": "B5",
          "ticks": 167904,
          "time": 119.24988075,
          "velocity": 0.30708661417322836
        },
        {
          "duration": 0.1534089374999894,
          "durationTicks": 216,
          "midi": 47,
          "name": "B2",
          "ticks": 167904,
          "time": 119.24988075,
          "velocity": 0.30708661417322836
        },
        {
          "duration": 0.1534089374999894,
          "durationTicks": 216,
          "midi": 47,
          "name": "B2",
          "ticks": 167904,
          "time": 119.24988075,
          "velocity": 0.30708661417322836
        },
        {
          "duration": 0.0852271874999957,
          "durationTicks": 120,
          "midi": 95,
          "name": "B6",
          "ticks": 167904,
          "time": 119.24988075,
          "velocity": 0.30708661417322836
        },
        {
          "duration": 0.1534089374999894,
          "durationTicks": 216,
          "midi": 47,
          "name": "B2",
          "ticks": 167928,
          "time": 119.2669261875,
          "velocity": 0.30708661417322836
        },
        {
          "duration": 0.0852271874999957,
          "durationTicks": 120,
          "midi": 93,
          "name": "A6",
          "ticks": 168000,
          "time": 119.3180625,
          "velocity": 0.30708661417322836
        },
        {
          "duration": 0.0852271874999957,
          "durationTicks": 120,
          "midi": 81,
          "name": "A5",
          "ticks": 168000,
          "time": 119.3180625,
          "velocity": 0.30708661417322836
        },
        {
          "duration": 0.0852271874999957,
          "durationTicks": 120,
          "midi": 93,
          "name": "A6",
          "ticks": 168000,
          "time": 119.3180625,
          "velocity": 0.30708661417322836
        },
        {
          "duration": 0.0852271874999957,
          "durationTicks": 120,
          "midi": 81,
          "name": "A5",
          "ticks": 168000,
          "time": 119.3180625,
          "velocity": 0.30708661417322836
        },
        {
          "duration": 0.0852271874999957,
          "durationTicks": 120,
          "midi": 81,
          "name": "A5",
          "ticks": 168024,
          "time": 119.3351079375,
          "velocity": 0.30708661417322836
        },
        {
          "duration": 0.0852271874999957,
          "durationTicks": 120,
          "midi": 93,
          "name": "A6",
          "ticks": 168024,
          "time": 119.3351079375,
          "velocity": 0.30708661417322836
        },
        {
          "duration": 0.0852271875000099,
          "durationTicks": 120,
          "midi": 57,
          "name": "A3",
          "ticks": 168144,
          "time": 119.420335125,
          "velocity": 0.30708661417322836
        },
        {
          "duration": 0.0852271875000099,
          "durationTicks": 120,
          "midi": 50,
          "name": "D3",
          "ticks": 168144,
          "time": 119.420335125,
          "velocity": 0.30708661417322836
        },
        {
          "duration": 0.0852271875000099,
          "durationTicks": 120,
          "midi": 50,
          "name": "D3",
          "ticks": 168144,
          "time": 119.420335125,
          "velocity": 0.30708661417322836
        },
        {
          "duration": 0.0852271875000099,
          "durationTicks": 120,
          "midi": 92,
          "name": "G#6",
          "ticks": 168144,
          "time": 119.420335125,
          "velocity": 0.30708661417322836
        },
        {
          "duration": 0.0852271875000099,
          "durationTicks": 120,
          "midi": 80,
          "name": "G#5",
          "ticks": 168144,
          "time": 119.420335125,
          "velocity": 0.30708661417322836
        },
        {
          "duration": 0.0852271875000099,
          "durationTicks": 120,
          "midi": 92,
          "name": "G#6",
          "ticks": 168144,
          "time": 119.420335125,
          "velocity": 0.30708661417322836
        },
        {
          "duration": 0.0852271875000099,
          "durationTicks": 120,
          "midi": 80,
          "name": "G#5",
          "ticks": 168144,
          "time": 119.420335125,
          "velocity": 0.30708661417322836
        },
        {
          "duration": 0.0852271875000099,
          "durationTicks": 120,
          "midi": 57,
          "name": "A3",
          "ticks": 168144,
          "time": 119.420335125,
          "velocity": 0.30708661417322836
        },
        {
          "duration": 0.0852271874999957,
          "durationTicks": 120,
          "midi": 57,
          "name": "A3",
          "ticks": 168168,
          "time": 119.4373805625,
          "velocity": 0.30708661417322836
        },
        {
          "duration": 0.0852271874999957,
          "durationTicks": 120,
          "midi": 92,
          "name": "G#6",
          "ticks": 168168,
          "time": 119.4373805625,
          "velocity": 0.30708661417322836
        },
        {
          "duration": 0.0852271874999957,
          "durationTicks": 120,
          "midi": 50,
          "name": "D3",
          "ticks": 168168,
          "time": 119.4373805625,
          "velocity": 0.30708661417322836
        },
        {
          "duration": 0.0852271874999957,
          "durationTicks": 120,
          "midi": 80,
          "name": "G#5",
          "ticks": 168168,
          "time": 119.4373805625,
          "velocity": 0.30708661417322836
        },
        {
          "duration": 0.0852271874999957,
          "durationTicks": 120,
          "midi": 91,
          "name": "G6",
          "ticks": 168264,
          "time": 119.5055623125,
          "velocity": 0.30708661417322836
        },
        {
          "duration": 0.0852271874999957,
          "durationTicks": 120,
          "midi": 95,
          "name": "B6",
          "ticks": 168264,
          "time": 119.5055623125,
          "velocity": 0.30708661417322836
        },
        {
          "duration": 0.0852271874999957,
          "durationTicks": 120,
          "midi": 91,
          "name": "G6",
          "ticks": 168264,
          "time": 119.5055623125,
          "velocity": 0.30708661417322836
        },
        {
          "duration": 0.0852271874999957,
          "durationTicks": 120,
          "midi": 86,
          "name": "D6",
          "ticks": 168264,
          "time": 119.5055623125,
          "velocity": 0.30708661417322836
        },
        {
          "duration": 0.0852271874999957,
          "durationTicks": 120,
          "midi": 83,
          "name": "B5",
          "ticks": 168264,
          "time": 119.5055623125,
          "velocity": 0.30708661417322836
        },
        {
          "duration": 0.0852271874999957,
          "durationTicks": 120,
          "midi": 83,
          "name": "B5",
          "ticks": 168264,
          "time": 119.5055623125,
          "velocity": 0.30708661417322836
        },
        {
          "duration": 0.0852271874999957,
          "durationTicks": 120,
          "midi": 95,
          "name": "B6",
          "ticks": 168264,
          "time": 119.5055623125,
          "velocity": 0.30708661417322836
        },
        {
          "duration": 0.0852271874999957,
          "durationTicks": 120,
          "midi": 86,
          "name": "D6",
          "ticks": 168264,
          "time": 119.5055623125,
          "velocity": 0.30708661417322836
        },
        {
          "duration": 0.0852271875000099,
          "durationTicks": 120,
          "midi": 91,
          "name": "G6",
          "ticks": 168288,
          "time": 119.52260774999999,
          "velocity": 0.30708661417322836
        },
        {
          "duration": 0.0852271875000099,
          "durationTicks": 120,
          "midi": 83,
          "name": "B5",
          "ticks": 168288,
          "time": 119.52260774999999,
          "velocity": 0.30708661417322836
        },
        {
          "duration": 0.0852271875000099,
          "durationTicks": 120,
          "midi": 95,
          "name": "B6",
          "ticks": 168288,
          "time": 119.52260774999999,
          "velocity": 0.30708661417322836
        },
        {
          "duration": 0.0852271875000099,
          "durationTicks": 120,
          "midi": 86,
          "name": "D6",
          "ticks": 168288,
          "time": 119.52260774999999,
          "velocity": 0.30708661417322836
        },
        {
          "duration": 0.0852271874999957,
          "durationTicks": 120,
          "midi": 81,
          "name": "A5",
          "ticks": 168384,
          "time": 119.5907895,
          "velocity": 0.30708661417322836
        },
        {
          "duration": 0.0852271874999957,
          "durationTicks": 120,
          "midi": 86,
          "name": "D6",
          "ticks": 168384,
          "time": 119.5907895,
          "velocity": 0.30708661417322836
        },
        {
          "duration": 0.15340893750000362,
          "durationTicks": 216,
          "midi": 45,
          "name": "A2",
          "ticks": 168384,
          "time": 119.5907895,
          "velocity": 0.30708661417322836
        },
        {
          "duration": 0.0852271874999957,
          "durationTicks": 120,
          "midi": 81,
          "name": "A5",
          "ticks": 168384,
          "time": 119.5907895,
          "velocity": 0.30708661417322836
        },
        {
          "duration": 0.0852271874999957,
          "durationTicks": 120,
          "midi": 86,
          "name": "D6",
          "ticks": 168384,
          "time": 119.5907895,
          "velocity": 0.30708661417322836
        },
        {
          "duration": 0.15340893750000362,
          "durationTicks": 216,
          "midi": 45,
          "name": "A2",
          "ticks": 168384,
          "time": 119.5907895,
          "velocity": 0.30708661417322836
        },
        {
          "duration": 0.0852271874999957,
          "durationTicks": 120,
          "midi": 93,
          "name": "A6",
          "ticks": 168384,
          "time": 119.5907895,
          "velocity": 0.30708661417322836
        },
        {
          "duration": 0.0852271874999957,
          "durationTicks": 120,
          "midi": 93,
          "name": "A6",
          "ticks": 168384,
          "time": 119.5907895,
          "velocity": 0.30708661417322836
        },
        {
          "duration": 0.15340893750000362,
          "durationTicks": 216,
          "midi": 45,
          "name": "A2",
          "ticks": 168408,
          "time": 119.6078349375,
          "velocity": 0.30708661417322836
        },
        {
          "duration": 0.0852271874999957,
          "durationTicks": 120,
          "midi": 81,
          "name": "A5",
          "ticks": 168408,
          "time": 119.6078349375,
          "velocity": 0.30708661417322836
        },
        {
          "duration": 0.0852271874999957,
          "durationTicks": 120,
          "midi": 93,
          "name": "A6",
          "ticks": 168408,
          "time": 119.6078349375,
          "velocity": 0.30708661417322836
        },
        {
          "duration": 0.0852271874999957,
          "durationTicks": 120,
          "midi": 86,
          "name": "D6",
          "ticks": 168408,
          "time": 119.6078349375,
          "velocity": 0.30708661417322836
        },
        {
          "duration": 0.0852271875000099,
          "durationTicks": 120,
          "midi": 76,
          "name": "E5",
          "ticks": 168504,
          "time": 119.6760166875,
          "velocity": 0.30708661417322836
        },
        {
          "duration": 0.0852271875000099,
          "durationTicks": 120,
          "midi": 88,
          "name": "E6",
          "ticks": 168504,
          "time": 119.6760166875,
          "velocity": 0.30708661417322836
        },
        {
          "duration": 0.0852271875000099,
          "durationTicks": 120,
          "midi": 81,
          "name": "A5",
          "ticks": 168504,
          "time": 119.6760166875,
          "velocity": 0.30708661417322836
        },
        {
          "duration": 0.0852271875000099,
          "durationTicks": 120,
          "midi": 81,
          "name": "A5",
          "ticks": 168504,
          "time": 119.6760166875,
          "velocity": 0.30708661417322836
        },
        {
          "duration": 0.0852271875000099,
          "durationTicks": 120,
          "midi": 88,
          "name": "E6",
          "ticks": 168504,
          "time": 119.6760166875,
          "velocity": 0.30708661417322836
        },
        {
          "duration": 0.0852271875000099,
          "durationTicks": 120,
          "midi": 76,
          "name": "E5",
          "ticks": 168504,
          "time": 119.6760166875,
          "velocity": 0.30708661417322836
        },
        {
          "duration": 0.0852271874999957,
          "durationTicks": 120,
          "midi": 88,
          "name": "E6",
          "ticks": 168528,
          "time": 119.693062125,
          "velocity": 0.30708661417322836
        },
        {
          "duration": 0.0852271874999957,
          "durationTicks": 120,
          "midi": 81,
          "name": "A5",
          "ticks": 168528,
          "time": 119.693062125,
          "velocity": 0.30708661417322836
        },
        {
          "duration": 0.0852271874999957,
          "durationTicks": 120,
          "midi": 76,
          "name": "E5",
          "ticks": 168528,
          "time": 119.693062125,
          "velocity": 0.30708661417322836
        },
        {
          "duration": 0.0852271874999957,
          "durationTicks": 120,
          "midi": 77,
          "name": "F5",
          "ticks": 168624,
          "time": 119.761243875,
          "velocity": 0.30708661417322836
        },
        {
          "duration": 0.0852271874999957,
          "durationTicks": 120,
          "midi": 84,
          "name": "C6",
          "ticks": 168624,
          "time": 119.761243875,
          "velocity": 0.30708661417322836
        },
        {
          "duration": 0.0852271874999957,
          "durationTicks": 120,
          "midi": 77,
          "name": "F5",
          "ticks": 168624,
          "time": 119.761243875,
          "velocity": 0.30708661417322836
        },
        {
          "duration": 0.0852271874999957,
          "durationTicks": 120,
          "midi": 57,
          "name": "A3",
          "ticks": 168624,
          "time": 119.761243875,
          "velocity": 0.30708661417322836
        },
        {
          "duration": 0.0852271874999957,
          "durationTicks": 120,
          "midi": 72,
          "name": "C5",
          "ticks": 168624,
          "time": 119.761243875,
          "velocity": 0.30708661417322836
        },
        {
          "duration": 0.0852271874999957,
          "durationTicks": 120,
          "midi": 48,
          "name": "C3",
          "ticks": 168624,
          "time": 119.761243875,
          "velocity": 0.30708661417322836
        },
        {
          "duration": 0.0852271874999957,
          "durationTicks": 120,
          "midi": 84,
          "name": "C6",
          "ticks": 168624,
          "time": 119.761243875,
          "velocity": 0.30708661417322836
        },
        {
          "duration": 0.0852271874999957,
          "durationTicks": 120,
          "midi": 48,
          "name": "C3",
          "ticks": 168624,
          "time": 119.761243875,
          "velocity": 0.30708661417322836
        },
        {
          "duration": 0.0852271874999957,
          "durationTicks": 120,
          "midi": 57,
          "name": "A3",
          "ticks": 168624,
          "time": 119.761243875,
          "velocity": 0.30708661417322836
        },
        {
          "duration": 0.0852271874999957,
          "durationTicks": 120,
          "midi": 72,
          "name": "C5",
          "ticks": 168624,
          "time": 119.761243875,
          "velocity": 0.30708661417322836
        },
        {
          "duration": 0.0852271875000099,
          "durationTicks": 120,
          "midi": 48,
          "name": "C3",
          "ticks": 168648,
          "time": 119.7782893125,
          "velocity": 0.30708661417322836
        },
        {
          "duration": 0.0852271875000099,
          "durationTicks": 120,
          "midi": 84,
          "name": "C6",
          "ticks": 168648,
          "time": 119.7782893125,
          "velocity": 0.30708661417322836
        },
        {
          "duration": 0.0852271875000099,
          "durationTicks": 120,
          "midi": 72,
          "name": "C5",
          "ticks": 168648,
          "time": 119.7782893125,
          "velocity": 0.30708661417322836
        },
        {
          "duration": 0.0852271875000099,
          "durationTicks": 120,
          "midi": 57,
          "name": "A3",
          "ticks": 168648,
          "time": 119.7782893125,
          "velocity": 0.30708661417322836
        },
        {
          "duration": 0.0852271875000099,
          "durationTicks": 120,
          "midi": 77,
          "name": "F5",
          "ticks": 168648,
          "time": 119.7782893125,
          "velocity": 0.30708661417322836
        },
        {
          "duration": 0.0852271874999957,
          "durationTicks": 120,
          "midi": 81,
          "name": "A5",
          "ticks": 168744,
          "time": 119.8464710625,
          "velocity": 0.30708661417322836
        },
        {
          "duration": 0.0852271874999957,
          "durationTicks": 120,
          "midi": 81,
          "name": "A5",
          "ticks": 168744,
          "time": 119.8464710625,
          "velocity": 0.30708661417322836
        },
        {
          "duration": 0.0852271874999957,
          "durationTicks": 120,
          "midi": 74,
          "name": "D5",
          "ticks": 168744,
          "time": 119.8464710625,
          "velocity": 0.30708661417322836
        },
        {
          "duration": 0.0852271874999957,
          "durationTicks": 120,
          "midi": 69,
          "name": "A4",
          "ticks": 168744,
          "time": 119.8464710625,
          "velocity": 0.30708661417322836
        },
        {
          "duration": 0.0852271874999957,
          "durationTicks": 120,
          "midi": 74,
          "name": "D5",
          "ticks": 168744,
          "time": 119.8464710625,
          "velocity": 0.30708661417322836
        },
        {
          "duration": 0.0852271874999957,
          "durationTicks": 120,
          "midi": 69,
          "name": "A4",
          "ticks": 168744,
          "time": 119.8464710625,
          "velocity": 0.30708661417322836
        },
        {
          "duration": 0.0852271874999957,
          "durationTicks": 120,
          "midi": 69,
          "name": "A4",
          "ticks": 168768,
          "time": 119.8635165,
          "velocity": 0.30708661417322836
        },
        {
          "duration": 0.0852271874999957,
          "durationTicks": 120,
          "midi": 81,
          "name": "A5",
          "ticks": 168768,
          "time": 119.8635165,
          "velocity": 0.30708661417322836
        },
        {
          "duration": 0.0852271874999957,
          "durationTicks": 120,
          "midi": 74,
          "name": "D5",
          "ticks": 168768,
          "time": 119.8635165,
          "velocity": 0.30708661417322836
        },
        {
          "duration": 0.0852271874999957,
          "durationTicks": 120,
          "midi": 52,
          "name": "E3",
          "ticks": 168864,
          "time": 119.93169825,
          "velocity": 0.30708661417322836
        },
        {
          "duration": 0.0852271874999957,
          "durationTicks": 120,
          "midi": 89,
          "name": "F6",
          "ticks": 168864,
          "time": 119.93169825,
          "velocity": 0.30708661417322836
        },
        {
          "duration": 0.0852271874999957,
          "durationTicks": 120,
          "midi": 72,
          "name": "C5",
          "ticks": 168864,
          "time": 119.93169825,
          "velocity": 0.30708661417322836
        },
        {
          "duration": 0.0852271874999957,
          "durationTicks": 120,
          "midi": 84,
          "name": "C6",
          "ticks": 168864,
          "time": 119.93169825,
          "velocity": 0.30708661417322836
        },
        {
          "duration": 0.0852271874999957,
          "durationTicks": 120,
          "midi": 77,
          "name": "F5",
          "ticks": 168864,
          "time": 119.93169825,
          "velocity": 0.30708661417322836
        },
        {
          "duration": 0.0852271874999957,
          "durationTicks": 120,
          "midi": 77,
          "name": "F5",
          "ticks": 168864,
          "time": 119.93169825,
          "velocity": 0.30708661417322836
        },
        {
          "duration": 0.0852271874999957,
          "durationTicks": 120,
          "midi": 40,
          "name": "E2",
          "ticks": 168864,
          "time": 119.93169825,
          "velocity": 0.30708661417322836
        },
        {
          "duration": 0.0852271874999957,
          "durationTicks": 120,
          "midi": 72,
          "name": "C5",
          "ticks": 168864,
          "time": 119.93169825,
          "velocity": 0.30708661417322836
        },
        {
          "duration": 0.0852271874999957,
          "durationTicks": 120,
          "midi": 40,
          "name": "E2",
          "ticks": 168864,
          "time": 119.93169825,
          "velocity": 0.30708661417322836
        },
        {
          "duration": 0.0852271874999957,
          "durationTicks": 120,
          "midi": 52,
          "name": "E3",
          "ticks": 168864,
          "time": 119.93169825,
          "velocity": 0.30708661417322836
        },
        {
          "duration": 0.0852271874999957,
          "durationTicks": 120,
          "midi": 84,
          "name": "C6",
          "ticks": 168864,
          "time": 119.93169825,
          "velocity": 0.30708661417322836
        },
        {
          "duration": 0.0852271874999957,
          "durationTicks": 120,
          "midi": 89,
          "name": "F6",
          "ticks": 168864,
          "time": 119.93169825,
          "velocity": 0.30708661417322836
        },
        {
          "duration": 0.0852271874999957,
          "durationTicks": 120,
          "midi": 84,
          "name": "C6",
          "ticks": 168888,
          "time": 119.9487436875,
          "velocity": 0.30708661417322836
        },
        {
          "duration": 0.0852271874999957,
          "durationTicks": 120,
          "midi": 89,
          "name": "F6",
          "ticks": 168888,
          "time": 119.9487436875,
          "velocity": 0.30708661417322836
        },
        {
          "duration": 0.0852271874999957,
          "durationTicks": 120,
          "midi": 72,
          "name": "C5",
          "ticks": 168888,
          "time": 119.9487436875,
          "velocity": 0.30708661417322836
        },
        {
          "duration": 0.0852271874999957,
          "durationTicks": 120,
          "midi": 77,
          "name": "F5",
          "ticks": 168888,
          "time": 119.9487436875,
          "velocity": 0.30708661417322836
        },
        {
          "duration": 0.0852271874999957,
          "durationTicks": 120,
          "midi": 40,
          "name": "E2",
          "ticks": 168888,
          "time": 119.9487436875,
          "velocity": 0.30708661417322836
        },
        {
          "duration": 0.0852271874999957,
          "durationTicks": 120,
          "midi": 52,
          "name": "E3",
          "ticks": 168888,
          "time": 119.9487436875,
          "velocity": 0.30708661417322836
        },
        {
          "duration": 0.0852271875000099,
          "durationTicks": 120,
          "midi": 83,
          "name": "B5",
          "ticks": 168984,
          "time": 120.01692543749999,
          "velocity": 0.30708661417322836
        },
        {
          "duration": 0.0852271875000099,
          "durationTicks": 120,
          "midi": 88,
          "name": "E6",
          "ticks": 168984,
          "time": 120.01692543749999,
          "velocity": 0.30708661417322836
        },
        {
          "duration": 0.0852271875000099,
          "durationTicks": 120,
          "midi": 76,
          "name": "E5",
          "ticks": 168984,
          "time": 120.01692543749999,
          "velocity": 0.30708661417322836
        },
        {
          "duration": 0.0852271875000099,
          "durationTicks": 120,
          "midi": 83,
          "name": "B5",
          "ticks": 168984,
          "time": 120.01692543749999,
          "velocity": 0.30708661417322836
        },
        {
          "duration": 0.0852271875000099,
          "durationTicks": 120,
          "midi": 71,
          "name": "B4",
          "ticks": 168984,
          "time": 120.01692543749999,
          "velocity": 0.30708661417322836
        },
        {
          "duration": 0.0852271875000099,
          "durationTicks": 120,
          "midi": 71,
          "name": "B4",
          "ticks": 168984,
          "time": 120.01692543749999,
          "velocity": 0.30708661417322836
        },
        {
          "duration": 0.0852271875000099,
          "durationTicks": 120,
          "midi": 76,
          "name": "E5",
          "ticks": 168984,
          "time": 120.01692543749999,
          "velocity": 0.30708661417322836
        },
        {
          "duration": 0.0852271875000099,
          "durationTicks": 120,
          "midi": 88,
          "name": "E6",
          "ticks": 168984,
          "time": 120.01692543749999,
          "velocity": 0.30708661417322836
        },
        {
          "duration": 0.0852271875000099,
          "durationTicks": 120,
          "midi": 88,
          "name": "E6",
          "ticks": 169008,
          "time": 120.033970875,
          "velocity": 0.30708661417322836
        },
        {
          "duration": 0.0852271875000099,
          "durationTicks": 120,
          "midi": 76,
          "name": "E5",
          "ticks": 169008,
          "time": 120.033970875,
          "velocity": 0.30708661417322836
        },
        {
          "duration": 0.0852271875000099,
          "durationTicks": 120,
          "midi": 71,
          "name": "B4",
          "ticks": 169008,
          "time": 120.033970875,
          "velocity": 0.30708661417322836
        },
        {
          "duration": 0.0852271875000099,
          "durationTicks": 120,
          "midi": 83,
          "name": "B5",
          "ticks": 169008,
          "time": 120.033970875,
          "velocity": 0.30708661417322836
        },
        {
          "duration": 0.0852271874999957,
          "durationTicks": 120,
          "midi": 42,
          "name": "F#2",
          "ticks": 169104,
          "time": 120.102152625,
          "velocity": 0.30708661417322836
        },
        {
          "duration": 0.0852271874999957,
          "durationTicks": 120,
          "midi": 54,
          "name": "F#3",
          "ticks": 169104,
          "time": 120.102152625,
          "velocity": 0.30708661417322836
        },
        {
          "duration": 0.0852271874999957,
          "durationTicks": 120,
          "midi": 54,
          "name": "F#3",
          "ticks": 169104,
          "time": 120.102152625,
          "velocity": 0.30708661417322836
        },
        {
          "duration": 0.0852271874999957,
          "durationTicks": 120,
          "midi": 69,
          "name": "A4",
          "ticks": 169104,
          "time": 120.102152625,
          "velocity": 0.30708661417322836
        },
        {
          "duration": 0.0852271874999957,
          "durationTicks": 120,
          "midi": 69,
          "name": "A4",
          "ticks": 169104,
          "time": 120.102152625,
          "velocity": 0.30708661417322836
        },
        {
          "duration": 0.0852271874999957,
          "durationTicks": 120,
          "midi": 42,
          "name": "F#2",
          "ticks": 169104,
          "time": 120.102152625,
          "velocity": 0.30708661417322836
        },
        {
          "duration": 0.0852271874999957,
          "durationTicks": 120,
          "midi": 81,
          "name": "A5",
          "ticks": 169104,
          "time": 120.102152625,
          "velocity": 0.30708661417322836
        },
        {
          "duration": 0.0852271874999957,
          "durationTicks": 120,
          "midi": 74,
          "name": "D5",
          "ticks": 169104,
          "time": 120.102152625,
          "velocity": 0.30708661417322836
        },
        {
          "duration": 0.0852271874999957,
          "durationTicks": 120,
          "midi": 86,
          "name": "D6",
          "ticks": 169104,
          "time": 120.102152625,
          "velocity": 0.30708661417322836
        },
        {
          "duration": 0.0852271874999957,
          "durationTicks": 120,
          "midi": 86,
          "name": "D6",
          "ticks": 169104,
          "time": 120.102152625,
          "velocity": 0.30708661417322836
        },
        {
          "duration": 0.0852271874999957,
          "durationTicks": 120,
          "midi": 74,
          "name": "D5",
          "ticks": 169104,
          "time": 120.102152625,
          "velocity": 0.30708661417322836
        },
        {
          "duration": 0.0852271874999957,
          "durationTicks": 120,
          "midi": 81,
          "name": "A5",
          "ticks": 169104,
          "time": 120.102152625,
          "velocity": 0.30708661417322836
        },
        {
          "duration": 0.0852271874999957,
          "durationTicks": 120,
          "midi": 42,
          "name": "F#2",
          "ticks": 169128,
          "time": 120.1191980625,
          "velocity": 0.30708661417322836
        },
        {
          "duration": 0.0852271874999957,
          "durationTicks": 120,
          "midi": 54,
          "name": "F#3",
          "ticks": 169128,
          "time": 120.1191980625,
          "velocity": 0.30708661417322836
        },
        {
          "duration": 0.0852271874999957,
          "durationTicks": 120,
          "midi": 69,
          "name": "A4",
          "ticks": 169128,
          "time": 120.1191980625,
          "velocity": 0.30708661417322836
        },
        {
          "duration": 0.0852271874999957,
          "durationTicks": 120,
          "midi": 86,
          "name": "D6",
          "ticks": 169128,
          "time": 120.1191980625,
          "velocity": 0.30708661417322836
        },
        {
          "duration": 0.0852271874999957,
          "durationTicks": 120,
          "midi": 81,
          "name": "A5",
          "ticks": 169128,
          "time": 120.1191980625,
          "velocity": 0.30708661417322836
        },
        {
          "duration": 0.0852271874999957,
          "durationTicks": 120,
          "midi": 74,
          "name": "D5",
          "ticks": 169128,
          "time": 120.1191980625,
          "velocity": 0.30708661417322836
        },
        {
          "duration": 0.0852271874999957,
          "durationTicks": 120,
          "midi": 79,
          "name": "G5",
          "ticks": 169224,
          "time": 120.1873798125,
          "velocity": 0.30708661417322836
        },
        {
          "duration": 0.0852271874999957,
          "durationTicks": 120,
          "midi": 84,
          "name": "C6",
          "ticks": 169224,
          "time": 120.1873798125,
          "velocity": 0.30708661417322836
        },
        {
          "duration": 0.0852271874999957,
          "durationTicks": 120,
          "midi": 67,
          "name": "G4",
          "ticks": 169224,
          "time": 120.1873798125,
          "velocity": 0.30708661417322836
        },
        {
          "duration": 0.0852271874999957,
          "durationTicks": 120,
          "midi": 84,
          "name": "C6",
          "ticks": 169224,
          "time": 120.1873798125,
          "velocity": 0.30708661417322836
        },
        {
          "duration": 0.0852271874999957,
          "durationTicks": 120,
          "midi": 67,
          "name": "G4",
          "ticks": 169224,
          "time": 120.1873798125,
          "velocity": 0.30708661417322836
        },
        {
          "duration": 0.0852271874999957,
          "durationTicks": 120,
          "midi": 72,
          "name": "C5",
          "ticks": 169224,
          "time": 120.1873798125,
          "velocity": 0.30708661417322836
        },
        {
          "duration": 0.0852271874999957,
          "durationTicks": 120,
          "midi": 72,
          "name": "C5",
          "ticks": 169224,
          "time": 120.1873798125,
          "velocity": 0.30708661417322836
        },
        {
          "duration": 0.0852271874999957,
          "durationTicks": 120,
          "midi": 79,
          "name": "G5",
          "ticks": 169224,
          "time": 120.1873798125,
          "velocity": 0.30708661417322836
        },
        {
          "duration": 0.0852271874999957,
          "durationTicks": 120,
          "midi": 67,
          "name": "G4",
          "ticks": 169248,
          "time": 120.20442525,
          "velocity": 0.30708661417322836
        },
        {
          "duration": 0.0852271874999957,
          "durationTicks": 120,
          "midi": 72,
          "name": "C5",
          "ticks": 169248,
          "time": 120.20442525,
          "velocity": 0.30708661417322836
        },
        {
          "duration": 0.0852271874999957,
          "durationTicks": 120,
          "midi": 84,
          "name": "C6",
          "ticks": 169248,
          "time": 120.20442525,
          "velocity": 0.30708661417322836
        },
        {
          "duration": 0.0852271874999957,
          "durationTicks": 120,
          "midi": 79,
          "name": "G5",
          "ticks": 169248,
          "time": 120.20442525,
          "velocity": 0.30708661417322836
        },
        {
          "duration": 0.0852271875000099,
          "durationTicks": 120,
          "midi": 66,
          "name": "F#4",
          "ticks": 169344,
          "time": 120.272607,
          "velocity": 0.30708661417322836
        },
        {
          "duration": 0.0852271875000099,
          "durationTicks": 120,
          "midi": 44,
          "name": "G#2",
          "ticks": 169344,
          "time": 120.272607,
          "velocity": 0.30708661417322836
        },
        {
          "duration": 0.0852271875000099,
          "durationTicks": 120,
          "midi": 66,
          "name": "F#4",
          "ticks": 169344,
          "time": 120.272607,
          "velocity": 0.30708661417322836
        },
        {
          "duration": 0.0852271875000099,
          "durationTicks": 120,
          "midi": 78,
          "name": "F#5",
          "ticks": 169344,
          "time": 120.272607,
          "velocity": 0.30708661417322836
        },
        {
          "duration": 0.0852271875000099,
          "durationTicks": 120,
          "midi": 71,
          "name": "B4",
          "ticks": 169344,
          "time": 120.272607,
          "velocity": 0.30708661417322836
        },
        {
          "duration": 0.0852271875000099,
          "durationTicks": 120,
          "midi": 56,
          "name": "G#3",
          "ticks": 169344,
          "time": 120.272607,
          "velocity": 0.30708661417322836
        },
        {
          "duration": 0.0852271875000099,
          "durationTicks": 120,
          "midi": 44,
          "name": "G#2",
          "ticks": 169344,
          "time": 120.272607,
          "velocity": 0.30708661417322836
        },
        {
          "duration": 0.0852271875000099,
          "durationTicks": 120,
          "midi": 83,
          "name": "B5",
          "ticks": 169344,
          "time": 120.272607,
          "velocity": 0.30708661417322836
        },
        {
          "duration": 0.0852271875000099,
          "durationTicks": 120,
          "midi": 78,
          "name": "F#5",
          "ticks": 169344,
          "time": 120.272607,
          "velocity": 0.30708661417322836
        },
        {
          "duration": 0.0852271875000099,
          "durationTicks": 120,
          "midi": 71,
          "name": "B4",
          "ticks": 169344,
          "time": 120.272607,
          "velocity": 0.30708661417322836
        },
        {
          "duration": 0.0852271875000099,
          "durationTicks": 120,
          "midi": 56,
          "name": "G#3",
          "ticks": 169344,
          "time": 120.272607,
          "velocity": 0.30708661417322836
        },
        {
          "duration": 0.0852271875000099,
          "durationTicks": 120,
          "midi": 83,
          "name": "B5",
          "ticks": 169344,
          "time": 120.272607,
          "velocity": 0.30708661417322836
        },
        {
          "duration": 0.0852271875000099,
          "durationTicks": 120,
          "midi": 71,
          "name": "B4",
          "ticks": 169368,
          "time": 120.2896524375,
          "velocity": 0.30708661417322836
        },
        {
          "duration": 0.0852271875000099,
          "durationTicks": 120,
          "midi": 66,
          "name": "F#4",
          "ticks": 169368,
          "time": 120.2896524375,
          "velocity": 0.30708661417322836
        },
        {
          "duration": 0.0852271875000099,
          "durationTicks": 120,
          "midi": 56,
          "name": "G#3",
          "ticks": 169368,
          "time": 120.2896524375,
          "velocity": 0.30708661417322836
        },
        {
          "duration": 0.0852271875000099,
          "durationTicks": 120,
          "midi": 83,
          "name": "B5",
          "ticks": 169368,
          "time": 120.2896524375,
          "velocity": 0.30708661417322836
        },
        {
          "duration": 0.0852271875000099,
          "durationTicks": 120,
          "midi": 44,
          "name": "G#2",
          "ticks": 169368,
          "time": 120.2896524375,
          "velocity": 0.30708661417322836
        },
        {
          "duration": 0.0852271875000099,
          "durationTicks": 120,
          "midi": 78,
          "name": "F#5",
          "ticks": 169368,
          "time": 120.2896524375,
          "velocity": 0.30708661417322836
        },
        {
          "duration": 0.0852271874999957,
          "durationTicks": 120,
          "midi": 69,
          "name": "A4",
          "ticks": 169464,
          "time": 120.3578341875,
          "velocity": 0.30708661417322836
        },
        {
          "duration": 0.0852271874999957,
          "durationTicks": 120,
          "midi": 76,
          "name": "E5",
          "ticks": 169464,
          "time": 120.3578341875,
          "velocity": 0.30708661417322836
        },
        {
          "duration": 0.0852271874999957,
          "durationTicks": 120,
          "midi": 64,
          "name": "E4",
          "ticks": 169464,
          "time": 120.3578341875,
          "velocity": 0.30708661417322836
        },
        {
          "duration": 0.0852271874999957,
          "durationTicks": 120,
          "midi": 81,
          "name": "A5",
          "ticks": 169464,
          "time": 120.3578341875,
          "velocity": 0.30708661417322836
        },
        {
          "duration": 0.0852271874999957,
          "durationTicks": 120,
          "midi": 69,
          "name": "A4",
          "ticks": 169464,
          "time": 120.3578341875,
          "velocity": 0.30708661417322836
        },
        {
          "duration": 0.0852271874999957,
          "durationTicks": 120,
          "midi": 76,
          "name": "E5",
          "ticks": 169464,
          "time": 120.3578341875,
          "velocity": 0.30708661417322836
        },
        {
          "duration": 0.0852271874999957,
          "durationTicks": 120,
          "midi": 81,
          "name": "A5",
          "ticks": 169464,
          "time": 120.3578341875,
          "velocity": 0.30708661417322836
        },
        {
          "duration": 0.0852271874999957,
          "durationTicks": 120,
          "midi": 64,
          "name": "E4",
          "ticks": 169464,
          "time": 120.3578341875,
          "velocity": 0.30708661417322836
        },
        {
          "duration": 0.0852271874999957,
          "durationTicks": 120,
          "midi": 64,
          "name": "E4",
          "ticks": 169488,
          "time": 120.374879625,
          "velocity": 0.30708661417322836
        },
        {
          "duration": 0.0852271874999957,
          "durationTicks": 120,
          "midi": 81,
          "name": "A5",
          "ticks": 169488,
          "time": 120.374879625,
          "velocity": 0.30708661417322836
        },
        {
          "duration": 0.0852271874999957,
          "durationTicks": 120,
          "midi": 69,
          "name": "A4",
          "ticks": 169488,
          "time": 120.374879625,
          "velocity": 0.30708661417322836
        },
        {
          "duration": 0.0852271874999957,
          "durationTicks": 120,
          "midi": 76,
          "name": "E5",
          "ticks": 169488,
          "time": 120.374879625,
          "velocity": 0.30708661417322836
        },
        {
          "duration": 0.0852271874999957,
          "durationTicks": 120,
          "midi": 80,
          "name": "G#5",
          "ticks": 169584,
          "time": 120.443061375,
          "velocity": 0.30708661417322836
        },
        {
          "duration": 0.0852271874999957,
          "durationTicks": 120,
          "midi": 52,
          "name": "E3",
          "ticks": 169584,
          "time": 120.443061375,
          "velocity": 0.30708661417322836
        },
        {
          "duration": 0.0852271874999957,
          "durationTicks": 120,
          "midi": 75,
          "name": "D#5",
          "ticks": 169584,
          "time": 120.443061375,
          "velocity": 0.30708661417322836
        },
        {
          "duration": 0.0852271874999957,
          "durationTicks": 120,
          "midi": 40,
          "name": "E2",
          "ticks": 169584,
          "time": 120.443061375,
          "velocity": 0.30708661417322836
        },
        {
          "duration": 0.0852271874999957,
          "durationTicks": 120,
          "midi": 63,
          "name": "D#4",
          "ticks": 169584,
          "time": 120.443061375,
          "velocity": 0.30708661417322836
        },
        {
          "duration": 0.0852271874999957,
          "durationTicks": 120,
          "midi": 75,
          "name": "D#5",
          "ticks": 169584,
          "time": 120.443061375,
          "velocity": 0.30708661417322836
        },
        {
          "duration": 0.0852271874999957,
          "durationTicks": 120,
          "midi": 52,
          "name": "E3",
          "ticks": 169584,
          "time": 120.443061375,
          "velocity": 0.30708661417322836
        },
        {
          "duration": 0.0852271874999957,
          "durationTicks": 120,
          "midi": 63,
          "name": "D#4",
          "ticks": 169584,
          "time": 120.443061375,
          "velocity": 0.30708661417322836
        },
        {
          "duration": 0.0852271874999957,
          "durationTicks": 120,
          "midi": 68,
          "name": "G#4",
          "ticks": 169584,
          "time": 120.443061375,
          "velocity": 0.30708661417322836
        },
        {
          "duration": 0.0852271874999957,
          "durationTicks": 120,
          "midi": 40,
          "name": "E2",
          "ticks": 169584,
          "time": 120.443061375,
          "velocity": 0.30708661417322836
        },
        {
          "duration": 0.0852271874999957,
          "durationTicks": 120,
          "midi": 80,
          "name": "G#5",
          "ticks": 169584,
          "time": 120.443061375,
          "velocity": 0.30708661417322836
        },
        {
          "duration": 0.0852271874999957,
          "durationTicks": 120,
          "midi": 68,
          "name": "G#4",
          "ticks": 169584,
          "time": 120.443061375,
          "velocity": 0.30708661417322836
        },
        {
          "duration": 0.0852271874999957,
          "durationTicks": 120,
          "midi": 52,
          "name": "E3",
          "ticks": 169608,
          "time": 120.4601068125,
          "velocity": 0.30708661417322836
        },
        {
          "duration": 0.0852271874999957,
          "durationTicks": 120,
          "midi": 68,
          "name": "G#4",
          "ticks": 169608,
          "time": 120.4601068125,
          "velocity": 0.30708661417322836
        },
        {
          "duration": 0.0852271874999957,
          "durationTicks": 120,
          "midi": 80,
          "name": "G#5",
          "ticks": 169608,
          "time": 120.4601068125,
          "velocity": 0.30708661417322836
        },
        {
          "duration": 0.0852271874999957,
          "durationTicks": 120,
          "midi": 63,
          "name": "D#4",
          "ticks": 169608,
          "time": 120.4601068125,
          "velocity": 0.30708661417322836
        },
        {
          "duration": 0.0852271874999957,
          "durationTicks": 120,
          "midi": 40,
          "name": "E2",
          "ticks": 169608,
          "time": 120.4601068125,
          "velocity": 0.30708661417322836
        },
        {
          "duration": 0.0852271874999957,
          "durationTicks": 120,
          "midi": 75,
          "name": "D#5",
          "ticks": 169608,
          "time": 120.4601068125,
          "velocity": 0.30708661417322836
        },
        {
          "duration": 0.0852271875000099,
          "durationTicks": 120,
          "midi": 83,
          "name": "B5",
          "ticks": 169704,
          "time": 120.5282885625,
          "velocity": 0.30708661417322836
        },
        {
          "duration": 0.0852271875000099,
          "durationTicks": 120,
          "midi": 66,
          "name": "F#4",
          "ticks": 169704,
          "time": 120.5282885625,
          "velocity": 0.30708661417322836
        },
        {
          "duration": 0.0852271875000099,
          "durationTicks": 120,
          "midi": 83,
          "name": "B5",
          "ticks": 169704,
          "time": 120.5282885625,
          "velocity": 0.30708661417322836
        },
        {
          "duration": 0.0852271875000099,
          "durationTicks": 120,
          "midi": 71,
          "name": "B4",
          "ticks": 169704,
          "time": 120.5282885625,
          "velocity": 0.30708661417322836
        },
        {
          "duration": 0.0852271875000099,
          "durationTicks": 120,
          "midi": 71,
          "name": "B4",
          "ticks": 169704,
          "time": 120.5282885625,
          "velocity": 0.30708661417322836
        },
        {
          "duration": 0.0852271875000099,
          "durationTicks": 120,
          "midi": 78,
          "name": "F#5",
          "ticks": 169704,
          "time": 120.5282885625,
          "velocity": 0.30708661417322836
        },
        {
          "duration": 0.0852271875000099,
          "durationTicks": 120,
          "midi": 78,
          "name": "F#5",
          "ticks": 169704,
          "time": 120.5282885625,
          "velocity": 0.30708661417322836
        },
        {
          "duration": 0.0852271875000099,
          "durationTicks": 120,
          "midi": 66,
          "name": "F#4",
          "ticks": 169704,
          "time": 120.5282885625,
          "velocity": 0.30708661417322836
        },
        {
          "duration": 0.0852271874999957,
          "durationTicks": 120,
          "midi": 66,
          "name": "F#4",
          "ticks": 169728,
          "time": 120.545334,
          "velocity": 0.30708661417322836
        },
        {
          "duration": 0.0852271874999957,
          "durationTicks": 120,
          "midi": 83,
          "name": "B5",
          "ticks": 169728,
          "time": 120.545334,
          "velocity": 0.30708661417322836
        },
        {
          "duration": 0.0852271874999957,
          "durationTicks": 120,
          "midi": 71,
          "name": "B4",
          "ticks": 169728,
          "time": 120.545334,
          "velocity": 0.30708661417322836
        },
        {
          "duration": 0.0852271874999957,
          "durationTicks": 120,
          "midi": 78,
          "name": "F#5",
          "ticks": 169728,
          "time": 120.545334,
          "velocity": 0.30708661417322836
        },
        {
          "duration": 0.0852271874999957,
          "durationTicks": 120,
          "midi": 57,
          "name": "A3",
          "ticks": 169824,
          "time": 120.61351575,
          "velocity": 0.30708661417322836
        },
        {
          "duration": 0.0852271874999957,
          "durationTicks": 120,
          "midi": 45,
          "name": "A2",
          "ticks": 169824,
          "time": 120.61351575,
          "velocity": 0.30708661417322836
        },
        {
          "duration": 0.0852271874999957,
          "durationTicks": 120,
          "midi": 76,
          "name": "E5",
          "ticks": 169824,
          "time": 120.61351575,
          "velocity": 0.30708661417322836
        },
        {
          "duration": 0.0852271874999957,
          "durationTicks": 120,
          "midi": 76,
          "name": "E5",
          "ticks": 169824,
          "time": 120.61351575,
          "velocity": 0.30708661417322836
        },
        {
          "duration": 0.0852271874999957,
          "durationTicks": 120,
          "midi": 57,
          "name": "A3",
          "ticks": 169824,
          "time": 120.61351575,
          "velocity": 0.30708661417322836
        },
        {
          "duration": 0.0852271874999957,
          "durationTicks": 120,
          "midi": 81,
          "name": "A5",
          "ticks": 169824,
          "time": 120.61351575,
          "velocity": 0.30708661417322836
        },
        {
          "duration": 0.0852271874999957,
          "durationTicks": 120,
          "midi": 45,
          "name": "A2",
          "ticks": 169824,
          "time": 120.61351575,
          "velocity": 0.30708661417322836
        },
        {
          "duration": 0.0852271874999957,
          "durationTicks": 120,
          "midi": 81,
          "name": "A5",
          "ticks": 169824,
          "time": 120.61351575,
          "velocity": 0.30708661417322836
        },
        {
          "duration": 0.0852271874999957,
          "durationTicks": 120,
          "midi": 69,
          "name": "A4",
          "ticks": 169824,
          "time": 120.61351575,
          "velocity": 0.30708661417322836
        },
        {
          "duration": 0.0852271874999957,
          "durationTicks": 120,
          "midi": 69,
          "name": "A4",
          "ticks": 169824,
          "time": 120.61351575,
          "velocity": 0.30708661417322836
        },
        {
          "duration": 0.0852271875000099,
          "durationTicks": 120,
          "midi": 69,
          "name": "A4",
          "ticks": 169848,
          "time": 120.63056118749999,
          "velocity": 0.30708661417322836
        },
        {
          "duration": 0.0852271875000099,
          "durationTicks": 120,
          "midi": 76,
          "name": "E5",
          "ticks": 169848,
          "time": 120.63056118749999,
          "velocity": 0.30708661417322836
        },
        {
          "duration": 0.0852271875000099,
          "durationTicks": 120,
          "midi": 81,
          "name": "A5",
          "ticks": 169848,
          "time": 120.63056118749999,
          "velocity": 0.30708661417322836
        },
        {
          "duration": 0.0852271875000099,
          "durationTicks": 120,
          "midi": 45,
          "name": "A2",
          "ticks": 169848,
          "time": 120.63056118749999,
          "velocity": 0.30708661417322836
        },
        {
          "duration": 0.0852271875000099,
          "durationTicks": 120,
          "midi": 57,
          "name": "A3",
          "ticks": 169848,
          "time": 120.63056118749999,
          "velocity": 0.30708661417322836
        },
        {
          "duration": 0.0852271874999957,
          "durationTicks": 120,
          "midi": 45,
          "name": "A2",
          "ticks": 170256,
          "time": 120.920333625,
          "velocity": 0.30708661417322836
        },
        {
          "duration": 0.0852271874999957,
          "durationTicks": 120,
          "midi": 33,
          "name": "A1",
          "ticks": 170256,
          "time": 120.920333625,
          "velocity": 0.30708661417322836
        },
        {
          "duration": 0.0852271874999957,
          "durationTicks": 120,
          "midi": 45,
          "name": "A2",
          "ticks": 170256,
          "time": 120.920333625,
          "velocity": 0.30708661417322836
        },
        {
          "duration": 0.0852271874999957,
          "durationTicks": 120,
          "midi": 33,
          "name": "A1",
          "ticks": 170256,
          "time": 120.920333625,
          "velocity": 0.30708661417322836
        },
        {
          "duration": 0.0852271874999957,
          "durationTicks": 120,
          "midi": 45,
          "name": "A2",
          "ticks": 170280,
          "time": 120.9373790625,
          "velocity": 0.30708661417322836
        },
        {
          "duration": 0.0852271874999957,
          "durationTicks": 120,
          "midi": 33,
          "name": "A1",
          "ticks": 170280,
          "time": 120.9373790625,
          "velocity": 0.30708661417322836
        },
        {
          "duration": 0.0852271874999957,
          "durationTicks": 120,
          "midi": 35,
          "name": "B1",
          "ticks": 170640,
          "time": 121.193060625,
          "velocity": 0.30708661417322836
        },
        {
          "duration": 0.0852271874999957,
          "durationTicks": 120,
          "midi": 47,
          "name": "B2",
          "ticks": 170640,
          "time": 121.193060625,
          "velocity": 0.30708661417322836
        },
        {
          "duration": 0.0852271874999957,
          "durationTicks": 120,
          "midi": 35,
          "name": "B1",
          "ticks": 170640,
          "time": 121.193060625,
          "velocity": 0.30708661417322836
        },
        {
          "duration": 0.0852271874999957,
          "durationTicks": 120,
          "midi": 47,
          "name": "B2",
          "ticks": 170640,
          "time": 121.193060625,
          "velocity": 0.30708661417322836
        },
        {
          "duration": 0.0852271874999957,
          "durationTicks": 120,
          "midi": 35,
          "name": "B1",
          "ticks": 170664,
          "time": 121.2101060625,
          "velocity": 0.30708661417322836
        },
        {
          "duration": 0.0852271874999957,
          "durationTicks": 120,
          "midi": 47,
          "name": "B2",
          "ticks": 170664,
          "time": 121.2101060625,
          "velocity": 0.30708661417322836
        },
        {
          "duration": 0.0852271874999957,
          "durationTicks": 120,
          "midi": 49,
          "name": "C#3",
          "ticks": 170688,
          "time": 121.2271515,
          "velocity": 0.30708661417322836
        },
        {
          "duration": 0.0852271874999957,
          "durationTicks": 120,
          "midi": 37,
          "name": "C#2",
          "ticks": 170688,
          "time": 121.2271515,
          "velocity": 0.30708661417322836
        },
        {
          "duration": 0.0852271874999957,
          "durationTicks": 120,
          "midi": 49,
          "name": "C#3",
          "ticks": 170688,
          "time": 121.2271515,
          "velocity": 0.30708661417322836
        },
        {
          "duration": 0.0852271874999957,
          "durationTicks": 120,
          "midi": 37,
          "name": "C#2",
          "ticks": 170688,
          "time": 121.2271515,
          "velocity": 0.30708661417322836
        },
        {
          "duration": 0.0852271875000099,
          "durationTicks": 120,
          "midi": 37,
          "name": "C#2",
          "ticks": 170712,
          "time": 121.24419693749999,
          "velocity": 0.30708661417322836
        },
        {
          "duration": 0.0852271875000099,
          "durationTicks": 120,
          "midi": 49,
          "name": "C#3",
          "ticks": 170712,
          "time": 121.24419693749999,
          "velocity": 0.30708661417322836
        },
        {
          "duration": 0.0852271875000099,
          "durationTicks": 120,
          "midi": 93,
          "name": "A6",
          "ticks": 170736,
          "time": 121.261242375,
          "velocity": 0.30708661417322836
        },
        {
          "duration": 0.0852271875000099,
          "durationTicks": 120,
          "midi": 86,
          "name": "D6",
          "ticks": 170736,
          "time": 121.261242375,
          "velocity": 0.30708661417322836
        },
        {
          "duration": 0.0852271875000099,
          "durationTicks": 120,
          "midi": 77,
          "name": "F5",
          "ticks": 170736,
          "time": 121.261242375,
          "velocity": 0.30708661417322836
        },
        {
          "duration": 0.0852271875000099,
          "durationTicks": 120,
          "midi": 81,
          "name": "A5",
          "ticks": 170736,
          "time": 121.261242375,
          "velocity": 0.30708661417322836
        },
        {
          "duration": 0.0852271875000099,
          "durationTicks": 120,
          "midi": 74,
          "name": "D5",
          "ticks": 170736,
          "time": 121.261242375,
          "velocity": 0.30708661417322836
        },
        {
          "duration": 0.0852271875000099,
          "durationTicks": 120,
          "midi": 93,
          "name": "A6",
          "ticks": 170736,
          "time": 121.261242375,
          "velocity": 0.30708661417322836
        },
        {
          "duration": 0.0852271875000099,
          "durationTicks": 120,
          "midi": 77,
          "name": "F5",
          "ticks": 170736,
          "time": 121.261242375,
          "velocity": 0.30708661417322836
        },
        {
          "duration": 0.0852271875000099,
          "durationTicks": 120,
          "midi": 81,
          "name": "A5",
          "ticks": 170736,
          "time": 121.261242375,
          "velocity": 0.30708661417322836
        },
        {
          "duration": 0.0852271875000099,
          "durationTicks": 120,
          "midi": 89,
          "name": "F6",
          "ticks": 170736,
          "time": 121.261242375,
          "velocity": 0.30708661417322836
        },
        {
          "duration": 0.0852271875000099,
          "durationTicks": 120,
          "midi": 86,
          "name": "D6",
          "ticks": 170736,
          "time": 121.261242375,
          "velocity": 0.30708661417322836
        },
        {
          "duration": 0.0852271875000099,
          "durationTicks": 120,
          "midi": 74,
          "name": "D5",
          "ticks": 170736,
          "time": 121.261242375,
          "velocity": 0.30708661417322836
        },
        {
          "duration": 0.0852271875000099,
          "durationTicks": 120,
          "midi": 89,
          "name": "F6",
          "ticks": 170736,
          "time": 121.261242375,
          "velocity": 0.30708661417322836
        },
        {
          "duration": 0.0852271874999957,
          "durationTicks": 120,
          "midi": 89,
          "name": "F6",
          "ticks": 170760,
          "time": 121.2782878125,
          "velocity": 0.30708661417322836
        },
        {
          "duration": 0.0852271874999957,
          "durationTicks": 120,
          "midi": 86,
          "name": "D6",
          "ticks": 170760,
          "time": 121.2782878125,
          "velocity": 0.30708661417322836
        },
        {
          "duration": 0.0852271874999957,
          "durationTicks": 120,
          "midi": 77,
          "name": "F5",
          "ticks": 170760,
          "time": 121.2782878125,
          "velocity": 0.30708661417322836
        },
        {
          "duration": 0.0852271874999957,
          "durationTicks": 120,
          "midi": 93,
          "name": "A6",
          "ticks": 170760,
          "time": 121.2782878125,
          "velocity": 0.30708661417322836
        },
        {
          "duration": 0.0852271874999957,
          "durationTicks": 120,
          "midi": 74,
          "name": "D5",
          "ticks": 170760,
          "time": 121.2782878125,
          "velocity": 0.30708661417322836
        },
        {
          "duration": 0.0852271874999957,
          "durationTicks": 120,
          "midi": 81,
          "name": "A5",
          "ticks": 170760,
          "time": 121.2782878125,
          "velocity": 0.30708661417322836
        },
        {
          "duration": 0.0852271874999957,
          "durationTicks": 120,
          "midi": 50,
          "name": "D3",
          "ticks": 170784,
          "time": 121.29533325,
          "velocity": 0.30708661417322836
        },
        {
          "duration": 0.0852271874999957,
          "durationTicks": 120,
          "midi": 38,
          "name": "D2",
          "ticks": 170784,
          "time": 121.29533325,
          "velocity": 0.30708661417322836
        },
        {
          "duration": 0.0852271874999957,
          "durationTicks": 120,
          "midi": 50,
          "name": "D3",
          "ticks": 170784,
          "time": 121.29533325,
          "velocity": 0.30708661417322836
        },
        {
          "duration": 0.0852271874999957,
          "durationTicks": 120,
          "midi": 38,
          "name": "D2",
          "ticks": 170784,
          "time": 121.29533325,
          "velocity": 0.30708661417322836
        },
        {
          "duration": 0.0852271874999957,
          "durationTicks": 120,
          "midi": 38,
          "name": "D2",
          "ticks": 170808,
          "time": 121.3123786875,
          "velocity": 0.30708661417322836
        },
        {
          "duration": 0.0852271874999957,
          "durationTicks": 120,
          "midi": 50,
          "name": "D3",
          "ticks": 170808,
          "time": 121.3123786875,
          "velocity": 0.30708661417322836
        },
        {
          "duration": 0.0852271874999957,
          "durationTicks": 120,
          "midi": 57,
          "name": "A3",
          "ticks": 170976,
          "time": 121.43169675,
          "velocity": 0.30708661417322836
        },
        {
          "duration": 0.0852271874999957,
          "durationTicks": 120,
          "midi": 53,
          "name": "F3",
          "ticks": 170976,
          "time": 121.43169675,
          "velocity": 0.30708661417322836
        },
        {
          "duration": 0.0852271874999957,
          "durationTicks": 120,
          "midi": 57,
          "name": "A3",
          "ticks": 170976,
          "time": 121.43169675,
          "velocity": 0.30708661417322836
        },
        {
          "duration": 0.0852271874999957,
          "durationTicks": 120,
          "midi": 53,
          "name": "F3",
          "ticks": 170976,
          "time": 121.43169675,
          "velocity": 0.30708661417322836
        },
        {
          "duration": 0.0852271874999957,
          "durationTicks": 120,
          "midi": 57,
          "name": "A3",
          "ticks": 171000,
          "time": 121.4487421875,
          "velocity": 0.30708661417322836
        },
        {
          "duration": 0.0852271874999957,
          "durationTicks": 120,
          "midi": 53,
          "name": "F3",
          "ticks": 171000,
          "time": 121.4487421875,
          "velocity": 0.30708661417322836
        },
        {
          "duration": 0.0852271874999957,
          "durationTicks": 120,
          "midi": 89,
          "name": "F6",
          "ticks": 171096,
          "time": 121.5169239375,
          "velocity": 0.30708661417322836
        },
        {
          "duration": 0.0852271874999957,
          "durationTicks": 120,
          "midi": 89,
          "name": "F6",
          "ticks": 171096,
          "time": 121.5169239375,
          "velocity": 0.30708661417322836
        },
        {
          "duration": 0.0852271874999957,
          "durationTicks": 120,
          "midi": 73,
          "name": "C#5",
          "ticks": 171096,
          "time": 121.5169239375,
          "velocity": 0.30708661417322836
        },
        {
          "duration": 0.0852271874999957,
          "durationTicks": 120,
          "midi": 85,
          "name": "C#6",
          "ticks": 171096,
          "time": 121.5169239375,
          "velocity": 0.30708661417322836
        },
        {
          "duration": 0.0852271874999957,
          "durationTicks": 120,
          "midi": 73,
          "name": "C#5",
          "ticks": 171096,
          "time": 121.5169239375,
          "velocity": 0.30708661417322836
        },
        {
          "duration": 0.0852271874999957,
          "durationTicks": 120,
          "midi": 92,
          "name": "G#6",
          "ticks": 171096,
          "time": 121.5169239375,
          "velocity": 0.30708661417322836
        },
        {
          "duration": 0.0852271874999957,
          "durationTicks": 120,
          "midi": 77,
          "name": "F5",
          "ticks": 171096,
          "time": 121.5169239375,
          "velocity": 0.30708661417322836
        },
        {
          "duration": 0.0852271874999957,
          "durationTicks": 120,
          "midi": 77,
          "name": "F5",
          "ticks": 171096,
          "time": 121.5169239375,
          "velocity": 0.30708661417322836
        },
        {
          "duration": 0.0852271874999957,
          "durationTicks": 120,
          "midi": 92,
          "name": "G#6",
          "ticks": 171096,
          "time": 121.5169239375,
          "velocity": 0.30708661417322836
        },
        {
          "duration": 0.0852271874999957,
          "durationTicks": 120,
          "midi": 85,
          "name": "C#6",
          "ticks": 171096,
          "time": 121.5169239375,
          "velocity": 0.30708661417322836
        },
        {
          "duration": 0.0852271874999957,
          "durationTicks": 120,
          "midi": 81,
          "name": "A5",
          "ticks": 171096,
          "time": 121.5169239375,
          "velocity": 0.30708661417322836
        },
        {
          "duration": 0.0852271874999957,
          "durationTicks": 120,
          "midi": 81,
          "name": "A5",
          "ticks": 171096,
          "time": 121.5169239375,
          "velocity": 0.30708661417322836
        },
        {
          "duration": 0.0852271874999957,
          "durationTicks": 120,
          "midi": 73,
          "name": "C#5",
          "ticks": 171120,
          "time": 121.533969375,
          "velocity": 0.30708661417322836
        },
        {
          "duration": 0.0852271874999957,
          "durationTicks": 120,
          "midi": 85,
          "name": "C#6",
          "ticks": 171120,
          "time": 121.533969375,
          "velocity": 0.30708661417322836
        },
        {
          "duration": 0.0852271874999957,
          "durationTicks": 120,
          "midi": 92,
          "name": "G#6",
          "ticks": 171120,
          "time": 121.533969375,
          "velocity": 0.30708661417322836
        },
        {
          "duration": 0.0852271874999957,
          "durationTicks": 120,
          "midi": 77,
          "name": "F5",
          "ticks": 171120,
          "time": 121.533969375,
          "velocity": 0.30708661417322836
        },
        {
          "duration": 0.0852271874999957,
          "durationTicks": 120,
          "midi": 81,
          "name": "A5",
          "ticks": 171120,
          "time": 121.533969375,
          "velocity": 0.30708661417322836
        },
        {
          "duration": 0.0852271874999957,
          "durationTicks": 120,
          "midi": 89,
          "name": "F6",
          "ticks": 171120,
          "time": 121.533969375,
          "velocity": 0.30708661417322836
        },
        {
          "duration": 0.0852271875000099,
          "durationTicks": 120,
          "midi": 81,
          "name": "A5",
          "ticks": 171216,
          "time": 121.60215112499999,
          "velocity": 0.30708661417322836
        },
        {
          "duration": 0.0852271875000099,
          "durationTicks": 120,
          "midi": 93,
          "name": "A6",
          "ticks": 171216,
          "time": 121.60215112499999,
          "velocity": 0.30708661417322836
        },
        {
          "duration": 0.0852271875000099,
          "durationTicks": 120,
          "midi": 93,
          "name": "A6",
          "ticks": 171216,
          "time": 121.60215112499999,
          "velocity": 0.30708661417322836
        },
        {
          "duration": 0.0852271875000099,
          "durationTicks": 120,
          "midi": 77,
          "name": "F5",
          "ticks": 171216,
          "time": 121.60215112499999,
          "velocity": 0.30708661417322836
        },
        {
          "duration": 0.0852271875000099,
          "durationTicks": 120,
          "midi": 81,
          "name": "A5",
          "ticks": 171216,
          "time": 121.60215112499999,
          "velocity": 0.30708661417322836
        },
        {
          "duration": 0.0852271875000099,
          "durationTicks": 120,
          "midi": 45,
          "name": "A2",
          "ticks": 171216,
          "time": 121.60215112499999,
          "velocity": 0.30708661417322836
        },
        {
          "duration": 0.0852271875000099,
          "durationTicks": 120,
          "midi": 74,
          "name": "D5",
          "ticks": 171216,
          "time": 121.60215112499999,
          "velocity": 0.30708661417322836
        },
        {
          "duration": 0.0852271875000099,
          "durationTicks": 120,
          "midi": 86,
          "name": "D6",
          "ticks": 171216,
          "time": 121.60215112499999,
          "velocity": 0.30708661417322836
        },
        {
          "duration": 0.0852271875000099,
          "durationTicks": 120,
          "midi": 74,
          "name": "D5",
          "ticks": 171216,
          "time": 121.60215112499999,
          "velocity": 0.30708661417322836
        },
        {
          "duration": 0.0852271875000099,
          "durationTicks": 120,
          "midi": 86,
          "name": "D6",
          "ticks": 171216,
          "time": 121.60215112499999,
          "velocity": 0.30708661417322836
        },
        {
          "duration": 0.0852271875000099,
          "durationTicks": 120,
          "midi": 45,
          "name": "A2",
          "ticks": 171216,
          "time": 121.60215112499999,
          "velocity": 0.30708661417322836
        },
        {
          "duration": 0.0852271875000099,
          "durationTicks": 120,
          "midi": 77,
          "name": "F5",
          "ticks": 171216,
          "time": 121.60215112499999,
          "velocity": 0.30708661417322836
        },
        {
          "duration": 0.0852271875000099,
          "durationTicks": 120,
          "midi": 45,
          "name": "A2",
          "ticks": 171240,
          "time": 121.6191965625,
          "velocity": 0.30708661417322836
        },
        {
          "duration": 0.0852271875000099,
          "durationTicks": 120,
          "midi": 77,
          "name": "F5",
          "ticks": 171240,
          "time": 121.6191965625,
          "velocity": 0.30708661417322836
        },
        {
          "duration": 0.0852271875000099,
          "durationTicks": 120,
          "midi": 74,
          "name": "D5",
          "ticks": 171240,
          "time": 121.6191965625,
          "velocity": 0.30708661417322836
        },
        {
          "duration": 0.0852271875000099,
          "durationTicks": 120,
          "midi": 93,
          "name": "A6",
          "ticks": 171240,
          "time": 121.6191965625,
          "velocity": 0.30708661417322836
        },
        {
          "duration": 0.0852271875000099,
          "durationTicks": 120,
          "midi": 86,
          "name": "D6",
          "ticks": 171240,
          "time": 121.6191965625,
          "velocity": 0.30708661417322836
        },
        {
          "duration": 0.0852271875000099,
          "durationTicks": 120,
          "midi": 81,
          "name": "A5",
          "ticks": 171240,
          "time": 121.6191965625,
          "velocity": 0.30708661417322836
        },
        {
          "duration": 0.0852271874999957,
          "durationTicks": 120,
          "midi": 57,
          "name": "A3",
          "ticks": 171456,
          "time": 121.7726055,
          "velocity": 0.30708661417322836
        },
        {
          "duration": 0.0852271874999957,
          "durationTicks": 120,
          "midi": 76,
          "name": "E5",
          "ticks": 171456,
          "time": 121.7726055,
          "velocity": 0.30708661417322836
        },
        {
          "duration": 0.0852271874999957,
          "durationTicks": 120,
          "midi": 86,
          "name": "D6",
          "ticks": 171456,
          "time": 121.7726055,
          "velocity": 0.30708661417322836
        },
        {
          "duration": 0.0852271874999957,
          "durationTicks": 120,
          "midi": 88,
          "name": "E6",
          "ticks": 171456,
          "time": 121.7726055,
          "velocity": 0.30708661417322836
        },
        {
          "duration": 0.0852271874999957,
          "durationTicks": 120,
          "midi": 53,
          "name": "F3",
          "ticks": 171456,
          "time": 121.7726055,
          "velocity": 0.30708661417322836
        },
        {
          "duration": 0.0852271874999957,
          "durationTicks": 120,
          "midi": 89,
          "name": "F6",
          "ticks": 171456,
          "time": 121.7726055,
          "velocity": 0.30708661417322836
        },
        {
          "duration": 0.0852271874999957,
          "durationTicks": 120,
          "midi": 57,
          "name": "A3",
          "ticks": 171456,
          "time": 121.7726055,
          "velocity": 0.30708661417322836
        },
        {
          "duration": 0.0852271874999957,
          "durationTicks": 120,
          "midi": 81,
          "name": "A5",
          "ticks": 171456,
          "time": 121.7726055,
          "velocity": 0.30708661417322836
        },
        {
          "duration": 0.0852271874999957,
          "durationTicks": 120,
          "midi": 81,
          "name": "A5",
          "ticks": 171456,
          "time": 121.7726055,
          "velocity": 0.30708661417322836
        },
        {
          "duration": 0.0852271874999957,
          "durationTicks": 120,
          "midi": 88,
          "name": "E6",
          "ticks": 171456,
          "time": 121.7726055,
          "velocity": 0.30708661417322836
        },
        {
          "duration": 0.0852271874999957,
          "durationTicks": 120,
          "midi": 93,
          "name": "A6",
          "ticks": 171456,
          "time": 121.7726055,
          "velocity": 0.30708661417322836
        },
        {
          "duration": 0.0852271874999957,
          "durationTicks": 120,
          "midi": 93,
          "name": "A6",
          "ticks": 171456,
          "time": 121.7726055,
          "velocity": 0.30708661417322836
        },
        {
          "duration": 0.0852271874999957,
          "durationTicks": 120,
          "midi": 89,
          "name": "F6",
          "ticks": 171456,
          "time": 121.7726055,
          "velocity": 0.30708661417322836
        },
        {
          "duration": 0.0852271874999957,
          "durationTicks": 120,
          "midi": 86,
          "name": "D6",
          "ticks": 171456,
          "time": 121.7726055,
          "velocity": 0.30708661417322836
        },
        {
          "duration": 0.0852271874999957,
          "durationTicks": 120,
          "midi": 76,
          "name": "E5",
          "ticks": 171456,
          "time": 121.7726055,
          "velocity": 0.30708661417322836
        },
        {
          "duration": 0.0852271874999957,
          "durationTicks": 120,
          "midi": 53,
          "name": "F3",
          "ticks": 171456,
          "time": 121.7726055,
          "velocity": 0.30708661417322836
        },
        {
          "duration": 0.0852271874999957,
          "durationTicks": 120,
          "midi": 81,
          "name": "A5",
          "ticks": 171480,
          "time": 121.7896509375,
          "velocity": 0.30708661417322836
        },
        {
          "duration": 0.0852271874999957,
          "durationTicks": 120,
          "midi": 57,
          "name": "A3",
          "ticks": 171480,
          "time": 121.7896509375,
          "velocity": 0.30708661417322836
        },
        {
          "duration": 0.0852271874999957,
          "durationTicks": 120,
          "midi": 53,
          "name": "F3",
          "ticks": 171480,
          "time": 121.7896509375,
          "velocity": 0.30708661417322836
        },
        {
          "duration": 0.0852271874999957,
          "durationTicks": 120,
          "midi": 86,
          "name": "D6",
          "ticks": 171480,
          "time": 121.7896509375,
          "velocity": 0.30708661417322836
        },
        {
          "duration": 0.0852271874999957,
          "durationTicks": 120,
          "midi": 89,
          "name": "F6",
          "ticks": 171480,
          "time": 121.7896509375,
          "velocity": 0.30708661417322836
        },
        {
          "duration": 0.0852271874999957,
          "durationTicks": 120,
          "midi": 93,
          "name": "A6",
          "ticks": 171480,
          "time": 121.7896509375,
          "velocity": 0.30708661417322836
        },
        {
          "duration": 0.0852271874999957,
          "durationTicks": 120,
          "midi": 76,
          "name": "E5",
          "ticks": 171480,
          "time": 121.7896509375,
          "velocity": 0.30708661417322836
        },
        {
          "duration": 0.0852271874999957,
          "durationTicks": 120,
          "midi": 88,
          "name": "E6",
          "ticks": 171480,
          "time": 121.7896509375,
          "velocity": 0.30708661417322836
        },
        {
          "duration": 0.0852271874999957,
          "durationTicks": 120,
          "midi": 86,
          "name": "D6",
          "ticks": 171696,
          "time": 121.943059875,
          "velocity": 0.30708661417322836
        },
        {
          "duration": 0.0852271874999957,
          "durationTicks": 120,
          "midi": 81,
          "name": "A5",
          "ticks": 171696,
          "time": 121.943059875,
          "velocity": 0.30708661417322836
        },
        {
          "duration": 0.0852271874999957,
          "durationTicks": 120,
          "midi": 50,
          "name": "D3",
          "ticks": 171696,
          "time": 121.943059875,
          "velocity": 0.30708661417322836
        },
        {
          "duration": 0.0852271874999957,
          "durationTicks": 120,
          "midi": 89,
          "name": "F6",
          "ticks": 171696,
          "time": 121.943059875,
          "velocity": 0.30708661417322836
        },
        {
          "duration": 0.0852271874999957,
          "durationTicks": 120,
          "midi": 77,
          "name": "F5",
          "ticks": 171696,
          "time": 121.943059875,
          "velocity": 0.30708661417322836
        },
        {
          "duration": 0.0852271874999957,
          "durationTicks": 120,
          "midi": 93,
          "name": "A6",
          "ticks": 171696,
          "time": 121.943059875,
          "velocity": 0.30708661417322836
        },
        {
          "duration": 0.0852271874999957,
          "durationTicks": 120,
          "midi": 81,
          "name": "A5",
          "ticks": 171696,
          "time": 121.943059875,
          "velocity": 0.30708661417322836
        },
        {
          "duration": 0.0852271874999957,
          "durationTicks": 120,
          "midi": 86,
          "name": "D6",
          "ticks": 171696,
          "time": 121.943059875,
          "velocity": 0.30708661417322836
        },
        {
          "duration": 0.0852271874999957,
          "durationTicks": 120,
          "midi": 77,
          "name": "F5",
          "ticks": 171696,
          "time": 121.943059875,
          "velocity": 0.30708661417322836
        },
        {
          "duration": 0.0852271874999957,
          "durationTicks": 120,
          "midi": 93,
          "name": "A6",
          "ticks": 171696,
          "time": 121.943059875,
          "velocity": 0.30708661417322836
        },
        {
          "duration": 0.0852271874999957,
          "durationTicks": 120,
          "midi": 89,
          "name": "F6",
          "ticks": 171696,
          "time": 121.943059875,
          "velocity": 0.30708661417322836
        },
        {
          "duration": 0.0852271874999957,
          "durationTicks": 120,
          "midi": 50,
          "name": "D3",
          "ticks": 171696,
          "time": 121.943059875,
          "velocity": 0.30708661417322836
        },
        {
          "duration": 0.0852271874999957,
          "durationTicks": 120,
          "midi": 50,
          "name": "D3",
          "ticks": 171720,
          "time": 121.9601053125,
          "velocity": 0.30708661417322836
        },
        {
          "duration": 0.0852271874999957,
          "durationTicks": 120,
          "midi": 89,
          "name": "F6",
          "ticks": 171720,
          "time": 121.9601053125,
          "velocity": 0.30708661417322836
        },
        {
          "duration": 0.0852271874999957,
          "durationTicks": 120,
          "midi": 77,
          "name": "F5",
          "ticks": 171720,
          "time": 121.9601053125,
          "velocity": 0.30708661417322836
        },
        {
          "duration": 0.0852271874999957,
          "durationTicks": 120,
          "midi": 86,
          "name": "D6",
          "ticks": 171720,
          "time": 121.9601053125,
          "velocity": 0.30708661417322836
        },
        {
          "duration": 0.0852271874999957,
          "durationTicks": 120,
          "midi": 93,
          "name": "A6",
          "ticks": 171720,
          "time": 121.9601053125,
          "velocity": 0.30708661417322836
        },
        {
          "duration": 0.0852271874999957,
          "durationTicks": 120,
          "midi": 81,
          "name": "A5",
          "ticks": 171720,
          "time": 121.9601053125,
          "velocity": 0.30708661417322836
        },
        {
          "duration": 0.0852271875000099,
          "durationTicks": 120,
          "midi": 88,
          "name": "E6",
          "ticks": 171936,
          "time": 122.11351425,
          "velocity": 0.30708661417322836
        },
        {
          "duration": 0.0852271875000099,
          "durationTicks": 120,
          "midi": 81,
          "name": "A5",
          "ticks": 171936,
          "time": 122.11351425,
          "velocity": 0.30708661417322836
        },
        {
          "duration": 0.0852271875000099,
          "durationTicks": 120,
          "midi": 76,
          "name": "E5",
          "ticks": 171936,
          "time": 122.11351425,
          "velocity": 0.30708661417322836
        },
        {
          "duration": 0.0852271875000099,
          "durationTicks": 120,
          "midi": 77,
          "name": "F5",
          "ticks": 171936,
          "time": 122.11351425,
          "velocity": 0.30708661417322836
        },
        {
          "duration": 0.0852271875000099,
          "durationTicks": 120,
          "midi": 77,
          "name": "F5",
          "ticks": 171936,
          "time": 122.11351425,
          "velocity": 0.30708661417322836
        },
        {
          "duration": 0.0852271875000099,
          "durationTicks": 120,
          "midi": 88,
          "name": "E6",
          "ticks": 171936,
          "time": 122.11351425,
          "velocity": 0.30708661417322836
        },
        {
          "duration": 0.0852271875000099,
          "durationTicks": 120,
          "midi": 91,
          "name": "G6",
          "ticks": 171936,
          "time": 122.11351425,
          "velocity": 0.30708661417322836
        },
        {
          "duration": 0.0852271875000099,
          "durationTicks": 120,
          "midi": 76,
          "name": "E5",
          "ticks": 171936,
          "time": 122.11351425,
          "velocity": 0.30708661417322836
        },
        {
          "duration": 0.0852271875000099,
          "durationTicks": 120,
          "midi": 53,
          "name": "F3",
          "ticks": 171936,
          "time": 122.11351425,
          "velocity": 0.30708661417322836
        },
        {
          "duration": 0.0852271875000099,
          "durationTicks": 120,
          "midi": 81,
          "name": "A5",
          "ticks": 171936,
          "time": 122.11351425,
          "velocity": 0.30708661417322836
        },
        {
          "duration": 0.0852271875000099,
          "durationTicks": 120,
          "midi": 57,
          "name": "A3",
          "ticks": 171936,
          "time": 122.11351425,
          "velocity": 0.30708661417322836
        },
        {
          "duration": 0.0852271875000099,
          "durationTicks": 120,
          "midi": 53,
          "name": "F3",
          "ticks": 171936,
          "time": 122.11351425,
          "velocity": 0.30708661417322836
        },
        {
          "duration": 0.0852271875000099,
          "durationTicks": 120,
          "midi": 57,
          "name": "A3",
          "ticks": 171936,
          "time": 122.11351425,
          "velocity": 0.30708661417322836
        },
        {
          "duration": 0.0852271875000099,
          "durationTicks": 120,
          "midi": 91,
          "name": "G6",
          "ticks": 171936,
          "time": 122.11351425,
          "velocity": 0.30708661417322836
        },
        {
          "duration": 0.0852271874999957,
          "durationTicks": 120,
          "midi": 77,
          "name": "F5",
          "ticks": 171960,
          "time": 122.1305596875,
          "velocity": 0.30708661417322836
        },
        {
          "duration": 0.0852271874999957,
          "durationTicks": 120,
          "midi": 53,
          "name": "F3",
          "ticks": 171960,
          "time": 122.1305596875,
          "velocity": 0.30708661417322836
        },
        {
          "duration": 0.0852271874999957,
          "durationTicks": 120,
          "midi": 88,
          "name": "E6",
          "ticks": 171960,
          "time": 122.1305596875,
          "velocity": 0.30708661417322836
        },
        {
          "duration": 0.0852271874999957,
          "durationTicks": 120,
          "midi": 81,
          "name": "A5",
          "ticks": 171960,
          "time": 122.1305596875,
          "velocity": 0.30708661417322836
        },
        {
          "duration": 0.0852271874999957,
          "durationTicks": 120,
          "midi": 76,
          "name": "E5",
          "ticks": 171960,
          "time": 122.1305596875,
          "velocity": 0.30708661417322836
        },
        {
          "duration": 0.0852271874999957,
          "durationTicks": 120,
          "midi": 57,
          "name": "A3",
          "ticks": 171960,
          "time": 122.1305596875,
          "velocity": 0.30708661417322836
        },
        {
          "duration": 0.0852271874999957,
          "durationTicks": 120,
          "midi": 91,
          "name": "G6",
          "ticks": 171960,
          "time": 122.1305596875,
          "velocity": 0.30708661417322836
        },
        {
          "duration": 0.0852271874999957,
          "durationTicks": 120,
          "midi": 45,
          "name": "A2",
          "ticks": 172176,
          "time": 122.283968625,
          "velocity": 0.30708661417322836
        },
        {
          "duration": 0.0852271874999957,
          "durationTicks": 120,
          "midi": 86,
          "name": "D6",
          "ticks": 172176,
          "time": 122.283968625,
          "velocity": 0.30708661417322836
        },
        {
          "duration": 0.0852271874999957,
          "durationTicks": 120,
          "midi": 89,
          "name": "F6",
          "ticks": 172176,
          "time": 122.283968625,
          "velocity": 0.30708661417322836
        },
        {
          "duration": 0.0852271874999957,
          "durationTicks": 120,
          "midi": 74,
          "name": "D5",
          "ticks": 172176,
          "time": 122.283968625,
          "velocity": 0.30708661417322836
        },
        {
          "duration": 0.0852271874999957,
          "durationTicks": 120,
          "midi": 77,
          "name": "F5",
          "ticks": 172176,
          "time": 122.283968625,
          "velocity": 0.30708661417322836
        },
        {
          "duration": 0.0852271874999957,
          "durationTicks": 120,
          "midi": 89,
          "name": "F6",
          "ticks": 172176,
          "time": 122.283968625,
          "velocity": 0.30708661417322836
        },
        {
          "duration": 0.0852271874999957,
          "durationTicks": 120,
          "midi": 86,
          "name": "D6",
          "ticks": 172176,
          "time": 122.283968625,
          "velocity": 0.30708661417322836
        },
        {
          "duration": 0.0852271874999957,
          "durationTicks": 120,
          "midi": 81,
          "name": "A5",
          "ticks": 172176,
          "time": 122.283968625,
          "velocity": 0.30708661417322836
        },
        {
          "duration": 0.0852271874999957,
          "durationTicks": 120,
          "midi": 74,
          "name": "D5",
          "ticks": 172176,
          "time": 122.283968625,
          "velocity": 0.30708661417322836
        },
        {
          "duration": 0.0852271874999957,
          "durationTicks": 120,
          "midi": 77,
          "name": "F5",
          "ticks": 172176,
          "time": 122.283968625,
          "velocity": 0.30708661417322836
        },
        {
          "duration": 0.0852271874999957,
          "durationTicks": 120,
          "midi": 81,
          "name": "A5",
          "ticks": 172176,
          "time": 122.283968625,
          "velocity": 0.30708661417322836
        },
        {
          "duration": 0.0852271874999957,
          "durationTicks": 120,
          "midi": 45,
          "name": "A2",
          "ticks": 172176,
          "time": 122.283968625,
          "velocity": 0.30708661417322836
        },
        {
          "duration": 0.0852271874999957,
          "durationTicks": 120,
          "midi": 45,
          "name": "A2",
          "ticks": 172200,
          "time": 122.3010140625,
          "velocity": 0.30708661417322836
        },
        {
          "duration": 0.0852271874999957,
          "durationTicks": 120,
          "midi": 81,
          "name": "A5",
          "ticks": 172200,
          "time": 122.3010140625,
          "velocity": 0.30708661417322836
        },
        {
          "duration": 0.0852271874999957,
          "durationTicks": 120,
          "midi": 74,
          "name": "D5",
          "ticks": 172200,
          "time": 122.3010140625,
          "velocity": 0.30708661417322836
        },
        {
          "duration": 0.0852271874999957,
          "durationTicks": 120,
          "midi": 77,
          "name": "F5",
          "ticks": 172200,
          "time": 122.3010140625,
          "velocity": 0.30708661417322836
        },
        {
          "duration": 0.0852271874999957,
          "durationTicks": 120,
          "midi": 86,
          "name": "D6",
          "ticks": 172200,
          "time": 122.3010140625,
          "velocity": 0.30708661417322836
        },
        {
          "duration": 0.0852271874999957,
          "durationTicks": 120,
          "midi": 89,
          "name": "F6",
          "ticks": 172200,
          "time": 122.3010140625,
          "velocity": 0.30708661417322836
        },
        {
          "duration": 0.0852271874999957,
          "durationTicks": 120,
          "midi": 53,
          "name": "F3",
          "ticks": 172416,
          "time": 122.454423,
          "velocity": 0.30708661417322836
        },
        {
          "duration": 0.0852271874999957,
          "durationTicks": 120,
          "midi": 81,
          "name": "A5",
          "ticks": 172416,
          "time": 122.454423,
          "velocity": 0.30708661417322836
        },
        {
          "duration": 0.0852271874999957,
          "durationTicks": 120,
          "midi": 77,
          "name": "F5",
          "ticks": 172416,
          "time": 122.454423,
          "velocity": 0.30708661417322836
        },
        {
          "duration": 0.0852271874999957,
          "durationTicks": 120,
          "midi": 86,
          "name": "D6",
          "ticks": 172416,
          "time": 122.454423,
          "velocity": 0.30708661417322836
        },
        {
          "duration": 0.0852271874999957,
          "durationTicks": 120,
          "midi": 57,
          "name": "A3",
          "ticks": 172416,
          "time": 122.454423,
          "velocity": 0.30708661417322836
        },
        {
          "duration": 0.0852271874999957,
          "durationTicks": 120,
          "midi": 77,
          "name": "F5",
          "ticks": 172416,
          "time": 122.454423,
          "velocity": 0.30708661417322836
        },
        {
          "duration": 0.0852271874999957,
          "durationTicks": 120,
          "midi": 81,
          "name": "A5",
          "ticks": 172416,
          "time": 122.454423,
          "velocity": 0.30708661417322836
        },
        {
          "duration": 0.0852271874999957,
          "durationTicks": 120,
          "midi": 53,
          "name": "F3",
          "ticks": 172416,
          "time": 122.454423,
          "velocity": 0.30708661417322836
        },
        {
          "duration": 0.0852271874999957,
          "durationTicks": 120,
          "midi": 86,
          "name": "D6",
          "ticks": 172416,
          "time": 122.454423,
          "velocity": 0.30708661417322836
        },
        {
          "duration": 0.0852271874999957,
          "durationTicks": 120,
          "midi": 57,
          "name": "A3",
          "ticks": 172416,
          "time": 122.454423,
          "velocity": 0.30708661417322836
        },
        {
          "duration": 0.0852271874999957,
          "durationTicks": 120,
          "midi": 89,
          "name": "F6",
          "ticks": 172416,
          "time": 122.454423,
          "velocity": 0.30708661417322836
        },
        {
          "duration": 0.0852271874999957,
          "durationTicks": 120,
          "midi": 89,
          "name": "F6",
          "ticks": 172416,
          "time": 122.454423,
          "velocity": 0.30708661417322836
        },
        {
          "duration": 0.0852271875000099,
          "durationTicks": 120,
          "midi": 89,
          "name": "F6",
          "ticks": 172440,
          "time": 122.4714684375,
          "velocity": 0.30708661417322836
        },
        {
          "duration": 0.0852271875000099,
          "durationTicks": 120,
          "midi": 53,
          "name": "F3",
          "ticks": 172440,
          "time": 122.4714684375,
          "velocity": 0.30708661417322836
        },
        {
          "duration": 0.0852271875000099,
          "durationTicks": 120,
          "midi": 57,
          "name": "A3",
          "ticks": 172440,
          "time": 122.4714684375,
          "velocity": 0.30708661417322836
        },
        {
          "duration": 0.0852271875000099,
          "durationTicks": 120,
          "midi": 77,
          "name": "F5",
          "ticks": 172440,
          "time": 122.4714684375,
          "velocity": 0.30708661417322836
        },
        {
          "duration": 0.0852271875000099,
          "durationTicks": 120,
          "midi": 81,
          "name": "A5",
          "ticks": 172440,
          "time": 122.4714684375,
          "velocity": 0.30708661417322836
        },
        {
          "duration": 0.0852271875000099,
          "durationTicks": 120,
          "midi": 86,
          "name": "D6",
          "ticks": 172440,
          "time": 122.4714684375,
          "velocity": 0.30708661417322836
        },
        {
          "duration": 0.0852271874999957,
          "durationTicks": 120,
          "midi": 76,
          "name": "E5",
          "ticks": 172656,
          "time": 122.624877375,
          "velocity": 0.30708661417322836
        },
        {
          "duration": 0.0852271874999957,
          "durationTicks": 120,
          "midi": 81,
          "name": "A5",
          "ticks": 172656,
          "time": 122.624877375,
          "velocity": 0.30708661417322836
        },
        {
          "duration": 0.0852271874999957,
          "durationTicks": 120,
          "midi": 88,
          "name": "E6",
          "ticks": 172656,
          "time": 122.624877375,
          "velocity": 0.30708661417322836
        },
        {
          "duration": 0.0852271874999957,
          "durationTicks": 120,
          "midi": 48,
          "name": "C3",
          "ticks": 172656,
          "time": 122.624877375,
          "velocity": 0.30708661417322836
        },
        {
          "duration": 0.0852271874999957,
          "durationTicks": 120,
          "midi": 86,
          "name": "D6",
          "ticks": 172656,
          "time": 122.624877375,
          "velocity": 0.30708661417322836
        },
        {
          "duration": 0.0852271874999957,
          "durationTicks": 120,
          "midi": 76,
          "name": "E5",
          "ticks": 172656,
          "time": 122.624877375,
          "velocity": 0.30708661417322836
        },
        {
          "duration": 0.0852271874999957,
          "durationTicks": 120,
          "midi": 81,
          "name": "A5",
          "ticks": 172656,
          "time": 122.624877375,
          "velocity": 0.30708661417322836
        },
        {
          "duration": 0.0852271874999957,
          "durationTicks": 120,
          "midi": 48,
          "name": "C3",
          "ticks": 172656,
          "time": 122.624877375,
          "velocity": 0.30708661417322836
        },
        {
          "duration": 0.0852271874999957,
          "durationTicks": 120,
          "midi": 88,
          "name": "E6",
          "ticks": 172656,
          "time": 122.624877375,
          "velocity": 0.30708661417322836
        },
        {
          "duration": 0.0852271874999957,
          "durationTicks": 120,
          "midi": 86,
          "name": "D6",
          "ticks": 172656,
          "time": 122.624877375,
          "velocity": 0.30708661417322836
        },
        {
          "duration": 0.0852271874999957,
          "durationTicks": 120,
          "midi": 88,
          "name": "E6",
          "ticks": 172680,
          "time": 122.6419228125,
          "velocity": 0.30708661417322836
        },
        {
          "duration": 0.0852271874999957,
          "durationTicks": 120,
          "midi": 48,
          "name": "C3",
          "ticks": 172680,
          "time": 122.6419228125,
          "velocity": 0.30708661417322836
        },
        {
          "duration": 0.0852271874999957,
          "durationTicks": 120,
          "midi": 76,
          "name": "E5",
          "ticks": 172680,
          "time": 122.6419228125,
          "velocity": 0.30708661417322836
        },
        {
          "duration": 0.0852271874999957,
          "durationTicks": 120,
          "midi": 86,
          "name": "D6",
          "ticks": 172680,
          "time": 122.6419228125,
          "velocity": 0.30708661417322836
        },
        {
          "duration": 0.0852271874999957,
          "durationTicks": 120,
          "midi": 81,
          "name": "A5",
          "ticks": 172680,
          "time": 122.6419228125,
          "velocity": 0.30708661417322836
        },
        {
          "duration": 0.0852271874999957,
          "durationTicks": 120,
          "midi": 52,
          "name": "E3",
          "ticks": 172896,
          "time": 122.79533175,
          "velocity": 0.30708661417322836
        },
        {
          "duration": 0.0852271874999957,
          "durationTicks": 120,
          "midi": 57,
          "name": "A3",
          "ticks": 172896,
          "time": 122.79533175,
          "velocity": 0.30708661417322836
        },
        {
          "duration": 0.0852271874999957,
          "durationTicks": 120,
          "midi": 52,
          "name": "E3",
          "ticks": 172896,
          "time": 122.79533175,
          "velocity": 0.30708661417322836
        },
        {
          "duration": 0.0852271874999957,
          "durationTicks": 120,
          "midi": 57,
          "name": "A3",
          "ticks": 172896,
          "time": 122.79533175,
          "velocity": 0.30708661417322836
        },
        {
          "duration": 0.0852271874999957,
          "durationTicks": 120,
          "midi": 57,
          "name": "A3",
          "ticks": 172920,
          "time": 122.8123771875,
          "velocity": 0.30708661417322836
        },
        {
          "duration": 0.0852271874999957,
          "durationTicks": 120,
          "midi": 52,
          "name": "E3",
          "ticks": 172920,
          "time": 122.8123771875,
          "velocity": 0.30708661417322836
        },
        {
          "duration": 0.0852271874999957,
          "durationTicks": 120,
          "midi": 89,
          "name": "F6",
          "ticks": 173016,
          "time": 122.8805589375,
          "velocity": 0.30708661417322836
        },
        {
          "duration": 0.0852271874999957,
          "durationTicks": 120,
          "midi": 74,
          "name": "D5",
          "ticks": 173016,
          "time": 122.8805589375,
          "velocity": 0.30708661417322836
        },
        {
          "duration": 0.0852271874999957,
          "durationTicks": 120,
          "midi": 81,
          "name": "A5",
          "ticks": 173016,
          "time": 122.8805589375,
          "velocity": 0.30708661417322836
        },
        {
          "duration": 0.0852271874999957,
          "durationTicks": 120,
          "midi": 74,
          "name": "D5",
          "ticks": 173016,
          "time": 122.8805589375,
          "velocity": 0.30708661417322836
        },
        {
          "duration": 0.0852271874999957,
          "durationTicks": 120,
          "midi": 76,
          "name": "E5",
          "ticks": 173016,
          "time": 122.8805589375,
          "velocity": 0.30708661417322836
        },
        {
          "duration": 0.0852271874999957,
          "durationTicks": 120,
          "midi": 86,
          "name": "D6",
          "ticks": 173016,
          "time": 122.8805589375,
          "velocity": 0.30708661417322836
        },
        {
          "duration": 0.0852271874999957,
          "durationTicks": 120,
          "midi": 76,
          "name": "E5",
          "ticks": 173016,
          "time": 122.8805589375,
          "velocity": 0.30708661417322836
        },
        {
          "duration": 0.0852271874999957,
          "durationTicks": 120,
          "midi": 81,
          "name": "A5",
          "ticks": 173016,
          "time": 122.8805589375,
          "velocity": 0.30708661417322836
        },
        {
          "duration": 0.0852271874999957,
          "durationTicks": 120,
          "midi": 86,
          "name": "D6",
          "ticks": 173016,
          "time": 122.8805589375,
          "velocity": 0.30708661417322836
        },
        {
          "duration": 0.0852271874999957,
          "durationTicks": 120,
          "midi": 89,
          "name": "F6",
          "ticks": 173016,
          "time": 122.8805589375,
          "velocity": 0.30708661417322836
        },
        {
          "duration": 0.0852271874999957,
          "durationTicks": 120,
          "midi": 81,
          "name": "A5",
          "ticks": 173040,
          "time": 122.897604375,
          "velocity": 0.30708661417322836
        },
        {
          "duration": 0.0852271874999957,
          "durationTicks": 120,
          "midi": 76,
          "name": "E5",
          "ticks": 173040,
          "time": 122.897604375,
          "velocity": 0.30708661417322836
        },
        {
          "duration": 0.0852271874999957,
          "durationTicks": 120,
          "midi": 86,
          "name": "D6",
          "ticks": 173040,
          "time": 122.897604375,
          "velocity": 0.30708661417322836
        },
        {
          "duration": 0.0852271874999957,
          "durationTicks": 120,
          "midi": 89,
          "name": "F6",
          "ticks": 173040,
          "time": 122.897604375,
          "velocity": 0.30708661417322836
        },
        {
          "duration": 0.0852271874999957,
          "durationTicks": 120,
          "midi": 74,
          "name": "D5",
          "ticks": 173040,
          "time": 122.897604375,
          "velocity": 0.30708661417322836
        },
        {
          "duration": 0.0852271875000099,
          "durationTicks": 120,
          "midi": 81,
          "name": "A5",
          "ticks": 173136,
          "time": 122.965786125,
          "velocity": 0.30708661417322836
        },
        {
          "duration": 0.0852271875000099,
          "durationTicks": 120,
          "midi": 81,
          "name": "A5",
          "ticks": 173136,
          "time": 122.965786125,
          "velocity": 0.30708661417322836
        },
        {
          "duration": 0.0852271875000099,
          "durationTicks": 120,
          "midi": 72,
          "name": "C5",
          "ticks": 173136,
          "time": 122.965786125,
          "velocity": 0.30708661417322836
        },
        {
          "duration": 0.0852271875000099,
          "durationTicks": 120,
          "midi": 84,
          "name": "C6",
          "ticks": 173136,
          "time": 122.965786125,
          "velocity": 0.30708661417322836
        },
        {
          "duration": 0.0852271875000099,
          "durationTicks": 120,
          "midi": 45,
          "name": "A2",
          "ticks": 173136,
          "time": 122.965786125,
          "velocity": 0.30708661417322836
        },
        {
          "duration": 0.0852271875000099,
          "durationTicks": 120,
          "midi": 88,
          "name": "E6",
          "ticks": 173136,
          "time": 122.965786125,
          "velocity": 0.30708661417322836
        },
        {
          "duration": 0.0852271875000099,
          "durationTicks": 120,
          "midi": 76,
          "name": "E5",
          "ticks": 173136,
          "time": 122.965786125,
          "velocity": 0.30708661417322836
        },
        {
          "duration": 0.0852271875000099,
          "durationTicks": 120,
          "midi": 88,
          "name": "E6",
          "ticks": 173136,
          "time": 122.965786125,
          "velocity": 0.30708661417322836
        },
        {
          "duration": 0.0852271875000099,
          "durationTicks": 120,
          "midi": 76,
          "name": "E5",
          "ticks": 173136,
          "time": 122.965786125,
          "velocity": 0.30708661417322836
        },
        {
          "duration": 0.0852271875000099,
          "durationTicks": 120,
          "midi": 84,
          "name": "C6",
          "ticks": 173136,
          "time": 122.965786125,
          "velocity": 0.30708661417322836
        },
        {
          "duration": 0.0852271875000099,
          "durationTicks": 120,
          "midi": 72,
          "name": "C5",
          "ticks": 173136,
          "time": 122.965786125,
          "velocity": 0.30708661417322836
        },
        {
          "duration": 0.0852271875000099,
          "durationTicks": 120,
          "midi": 45,
          "name": "A2",
          "ticks": 173136,
          "time": 122.965786125,
          "velocity": 0.30708661417322836
        },
        {
          "duration": 0.0852271875000099,
          "durationTicks": 120,
          "midi": 81,
          "name": "A5",
          "ticks": 173160,
          "time": 122.9828315625,
          "velocity": 0.30708661417322836
        },
        {
          "duration": 0.0852271875000099,
          "durationTicks": 120,
          "midi": 76,
          "name": "E5",
          "ticks": 173160,
          "time": 122.9828315625,
          "velocity": 0.30708661417322836
        },
        {
          "duration": 0.0852271875000099,
          "durationTicks": 120,
          "midi": 72,
          "name": "C5",
          "ticks": 173160,
          "time": 122.9828315625,
          "velocity": 0.30708661417322836
        },
        {
          "duration": 0.0852271875000099,
          "durationTicks": 120,
          "midi": 84,
          "name": "C6",
          "ticks": 173160,
          "time": 122.9828315625,
          "velocity": 0.30708661417322836
        },
        {
          "duration": 0.0852271875000099,
          "durationTicks": 120,
          "midi": 88,
          "name": "E6",
          "ticks": 173160,
          "time": 122.9828315625,
          "velocity": 0.30708661417322836
        },
        {
          "duration": 0.0852271875000099,
          "durationTicks": 120,
          "midi": 45,
          "name": "A2",
          "ticks": 173160,
          "time": 122.9828315625,
          "velocity": 0.30708661417322836
        },
        {
          "duration": 0.0852271874999957,
          "durationTicks": 120,
          "midi": 52,
          "name": "E3",
          "ticks": 173376,
          "time": 123.1362405,
          "velocity": 0.30708661417322836
        },
        {
          "duration": 0.0852271874999957,
          "durationTicks": 120,
          "midi": 52,
          "name": "E3",
          "ticks": 173376,
          "time": 123.1362405,
          "velocity": 0.30708661417322836
        },
        {
          "duration": 0.0852271874999957,
          "durationTicks": 120,
          "midi": 86,
          "name": "D6",
          "ticks": 173376,
          "time": 123.1362405,
          "velocity": 0.30708661417322836
        },
        {
          "duration": 0.0852271874999957,
          "durationTicks": 120,
          "midi": 86,
          "name": "D6",
          "ticks": 173376,
          "time": 123.1362405,
          "velocity": 0.30708661417322836
        },
        {
          "duration": 0.0852271874999957,
          "durationTicks": 120,
          "midi": 57,
          "name": "A3",
          "ticks": 173376,
          "time": 123.1362405,
          "velocity": 0.30708661417322836
        },
        {
          "duration": 0.0852271874999957,
          "durationTicks": 120,
          "midi": 89,
          "name": "F6",
          "ticks": 173376,
          "time": 123.1362405,
          "velocity": 0.30708661417322836
        },
        {
          "duration": 0.0852271874999957,
          "durationTicks": 120,
          "midi": 74,
          "name": "D5",
          "ticks": 173376,
          "time": 123.1362405,
          "velocity": 0.30708661417322836
        },
        {
          "duration": 0.0852271874999957,
          "durationTicks": 120,
          "midi": 76,
          "name": "E5",
          "ticks": 173376,
          "time": 123.1362405,
          "velocity": 0.30708661417322836
        },
        {
          "duration": 0.0852271874999957,
          "durationTicks": 120,
          "midi": 81,
          "name": "A5",
          "ticks": 173376,
          "time": 123.1362405,
          "velocity": 0.30708661417322836
        },
        {
          "duration": 0.0852271874999957,
          "durationTicks": 120,
          "midi": 74,
          "name": "D5",
          "ticks": 173376,
          "time": 123.1362405,
          "velocity": 0.30708661417322836
        },
        {
          "duration": 0.0852271874999957,
          "durationTicks": 120,
          "midi": 57,
          "name": "A3",
          "ticks": 173376,
          "time": 123.1362405,
          "velocity": 0.30708661417322836
        },
        {
          "duration": 0.0852271874999957,
          "durationTicks": 120,
          "midi": 76,
          "name": "E5",
          "ticks": 173376,
          "time": 123.1362405,
          "velocity": 0.30708661417322836
        },
        {
          "duration": 0.0852271874999957,
          "durationTicks": 120,
          "midi": 81,
          "name": "A5",
          "ticks": 173376,
          "time": 123.1362405,
          "velocity": 0.30708661417322836
        },
        {
          "duration": 0.0852271874999957,
          "durationTicks": 120,
          "midi": 89,
          "name": "F6",
          "ticks": 173376,
          "time": 123.1362405,
          "velocity": 0.30708661417322836
        },
        {
          "duration": 0.0852271874999957,
          "durationTicks": 120,
          "midi": 57,
          "name": "A3",
          "ticks": 173400,
          "time": 123.1532859375,
          "velocity": 0.30708661417322836
        },
        {
          "duration": 0.0852271874999957,
          "durationTicks": 120,
          "midi": 89,
          "name": "F6",
          "ticks": 173400,
          "time": 123.1532859375,
          "velocity": 0.30708661417322836
        },
        {
          "duration": 0.0852271874999957,
          "durationTicks": 120,
          "midi": 52,
          "name": "E3",
          "ticks": 173400,
          "time": 123.1532859375,
          "velocity": 0.30708661417322836
        },
        {
          "duration": 0.0852271874999957,
          "durationTicks": 120,
          "midi": 74,
          "name": "D5",
          "ticks": 173400,
          "time": 123.1532859375,
          "velocity": 0.30708661417322836
        },
        {
          "duration": 0.0852271874999957,
          "durationTicks": 120,
          "midi": 86,
          "name": "D6",
          "ticks": 173400,
          "time": 123.1532859375,
          "velocity": 0.30708661417322836
        },
        {
          "duration": 0.0852271874999957,
          "durationTicks": 120,
          "midi": 81,
          "name": "A5",
          "ticks": 173400,
          "time": 123.1532859375,
          "velocity": 0.30708661417322836
        },
        {
          "duration": 0.0852271874999957,
          "durationTicks": 120,
          "midi": 76,
          "name": "E5",
          "ticks": 173400,
          "time": 123.1532859375,
          "velocity": 0.30708661417322836
        },
        {
          "duration": 0.0852271874999957,
          "durationTicks": 120,
          "midi": 84,
          "name": "C6",
          "ticks": 173616,
          "time": 123.306694875,
          "velocity": 0.30708661417322836
        },
        {
          "duration": 0.0852271874999957,
          "durationTicks": 120,
          "midi": 84,
          "name": "C6",
          "ticks": 173616,
          "time": 123.306694875,
          "velocity": 0.30708661417322836
        },
        {
          "duration": 0.0852271874999957,
          "durationTicks": 120,
          "midi": 81,
          "name": "A5",
          "ticks": 173616,
          "time": 123.306694875,
          "velocity": 0.30708661417322836
        },
        {
          "duration": 0.0852271874999957,
          "durationTicks": 120,
          "midi": 88,
          "name": "E6",
          "ticks": 173616,
          "time": 123.306694875,
          "velocity": 0.30708661417322836
        },
        {
          "duration": 0.0852271874999957,
          "durationTicks": 120,
          "midi": 81,
          "name": "A5",
          "ticks": 173616,
          "time": 123.306694875,
          "velocity": 0.30708661417322836
        },
        {
          "duration": 0.0852271874999957,
          "durationTicks": 120,
          "midi": 76,
          "name": "E5",
          "ticks": 173616,
          "time": 123.306694875,
          "velocity": 0.30708661417322836
        },
        {
          "duration": 0.0852271874999957,
          "durationTicks": 120,
          "midi": 48,
          "name": "C3",
          "ticks": 173616,
          "time": 123.306694875,
          "velocity": 0.30708661417322836
        },
        {
          "duration": 0.0852271874999957,
          "durationTicks": 120,
          "midi": 88,
          "name": "E6",
          "ticks": 173616,
          "time": 123.306694875,
          "velocity": 0.30708661417322836
        },
        {
          "duration": 0.0852271874999957,
          "durationTicks": 120,
          "midi": 93,
          "name": "A6",
          "ticks": 173616,
          "time": 123.306694875,
          "velocity": 0.30708661417322836
        },
        {
          "duration": 0.0852271874999957,
          "durationTicks": 120,
          "midi": 76,
          "name": "E5",
          "ticks": 173616,
          "time": 123.306694875,
          "velocity": 0.30708661417322836
        },
        {
          "duration": 0.0852271874999957,
          "durationTicks": 120,
          "midi": 93,
          "name": "A6",
          "ticks": 173616,
          "time": 123.306694875,
          "velocity": 0.30708661417322836
        },
        {
          "duration": 0.0852271874999957,
          "durationTicks": 120,
          "midi": 48,
          "name": "C3",
          "ticks": 173616,
          "time": 123.306694875,
          "velocity": 0.30708661417322836
        },
        {
          "duration": 0.0852271875000099,
          "durationTicks": 120,
          "midi": 48,
          "name": "C3",
          "ticks": 173640,
          "time": 123.3237403125,
          "velocity": 0.30708661417322836
        },
        {
          "duration": 0.0852271875000099,
          "durationTicks": 120,
          "midi": 76,
          "name": "E5",
          "ticks": 173640,
          "time": 123.3237403125,
          "velocity": 0.30708661417322836
        },
        {
          "duration": 0.0852271875000099,
          "durationTicks": 120,
          "midi": 84,
          "name": "C6",
          "ticks": 173640,
          "time": 123.3237403125,
          "velocity": 0.30708661417322836
        },
        {
          "duration": 0.0852271875000099,
          "durationTicks": 120,
          "midi": 93,
          "name": "A6",
          "ticks": 173640,
          "time": 123.3237403125,
          "velocity": 0.30708661417322836
        },
        {
          "duration": 0.0852271875000099,
          "durationTicks": 120,
          "midi": 81,
          "name": "A5",
          "ticks": 173640,
          "time": 123.3237403125,
          "velocity": 0.30708661417322836
        },
        {
          "duration": 0.0852271875000099,
          "durationTicks": 120,
          "midi": 88,
          "name": "E6",
          "ticks": 173640,
          "time": 123.3237403125,
          "velocity": 0.30708661417322836
        },
        {
          "duration": 0.0852271874999957,
          "durationTicks": 120,
          "midi": 57,
          "name": "A3",
          "ticks": 173856,
          "time": 123.47714925,
          "velocity": 0.30708661417322836
        },
        {
          "duration": 0.0852271874999957,
          "durationTicks": 120,
          "midi": 52,
          "name": "E3",
          "ticks": 173856,
          "time": 123.47714925,
          "velocity": 0.30708661417322836
        },
        {
          "duration": 0.0852271874999957,
          "durationTicks": 120,
          "midi": 57,
          "name": "A3",
          "ticks": 173856,
          "time": 123.47714925,
          "velocity": 0.30708661417322836
        },
        {
          "duration": 0.0852271874999957,
          "durationTicks": 120,
          "midi": 52,
          "name": "E3",
          "ticks": 173856,
          "time": 123.47714925,
          "velocity": 0.30708661417322836
        },
        {
          "duration": 0.0852271874999957,
          "durationTicks": 120,
          "midi": 52,
          "name": "E3",
          "ticks": 173880,
          "time": 123.4941946875,
          "velocity": 0.30708661417322836
        },
        {
          "duration": 0.0852271874999957,
          "durationTicks": 120,
          "midi": 57,
          "name": "A3",
          "ticks": 173880,
          "time": 123.4941946875,
          "velocity": 0.30708661417322836
        },
        {
          "duration": 0.0852271874999957,
          "durationTicks": 120,
          "midi": 45,
          "name": "A2",
          "ticks": 174096,
          "time": 123.647603625,
          "velocity": 0.30708661417322836
        },
        {
          "duration": 0.0852271874999957,
          "durationTicks": 120,
          "midi": 45,
          "name": "A2",
          "ticks": 174096,
          "time": 123.647603625,
          "velocity": 0.30708661417322836
        },
        {
          "duration": 0.0852271874999957,
          "durationTicks": 120,
          "midi": 45,
          "name": "A2",
          "ticks": 174120,
          "time": 123.6646490625,
          "velocity": 0.30708661417322836
        },
        {
          "duration": 0.0852271875000099,
          "durationTicks": 120,
          "midi": 57,
          "name": "A3",
          "ticks": 174336,
          "time": 123.818058,
          "velocity": 0.30708661417322836
        },
        {
          "duration": 0.0852271875000099,
          "durationTicks": 120,
          "midi": 72,
          "name": "C5",
          "ticks": 174336,
          "time": 123.818058,
          "velocity": 0.30708661417322836
        },
        {
          "duration": 0.0852271875000099,
          "durationTicks": 120,
          "midi": 72,
          "name": "C5",
          "ticks": 174336,
          "time": 123.818058,
          "velocity": 0.30708661417322836
        },
        {
          "duration": 0.0852271875000099,
          "durationTicks": 120,
          "midi": 52,
          "name": "E3",
          "ticks": 174336,
          "time": 123.818058,
          "velocity": 0.30708661417322836
        },
        {
          "duration": 0.0852271875000099,
          "durationTicks": 120,
          "midi": 81,
          "name": "A5",
          "ticks": 174336,
          "time": 123.818058,
          "velocity": 0.30708661417322836
        },
        {
          "duration": 0.0852271875000099,
          "durationTicks": 120,
          "midi": 84,
          "name": "C6",
          "ticks": 174336,
          "time": 123.818058,
          "velocity": 0.30708661417322836
        },
        {
          "duration": 0.0852271875000099,
          "durationTicks": 120,
          "midi": 88,
          "name": "E6",
          "ticks": 174336,
          "time": 123.818058,
          "velocity": 0.30708661417322836
        },
        {
          "duration": 0.0852271875000099,
          "durationTicks": 120,
          "midi": 76,
          "name": "E5",
          "ticks": 174336,
          "time": 123.818058,
          "velocity": 0.30708661417322836
        },
        {
          "duration": 0.0852271875000099,
          "durationTicks": 120,
          "midi": 88,
          "name": "E6",
          "ticks": 174336,
          "time": 123.818058,
          "velocity": 0.30708661417322836
        },
        {
          "duration": 0.0852271875000099,
          "durationTicks": 120,
          "midi": 84,
          "name": "C6",
          "ticks": 174336,
          "time": 123.818058,
          "velocity": 0.30708661417322836
        },
        {
          "duration": 0.0852271875000099,
          "durationTicks": 120,
          "midi": 52,
          "name": "E3",
          "ticks": 174336,
          "time": 123.818058,
          "velocity": 0.30708661417322836
        },
        {
          "duration": 0.0852271875000099,
          "durationTicks": 120,
          "midi": 81,
          "name": "A5",
          "ticks": 174336,
          "time": 123.818058,
          "velocity": 0.30708661417322836
        },
        {
          "duration": 0.0852271875000099,
          "durationTicks": 120,
          "midi": 76,
          "name": "E5",
          "ticks": 174336,
          "time": 123.818058,
          "velocity": 0.30708661417322836
        },
        {
          "duration": 0.0852271875000099,
          "durationTicks": 120,
          "midi": 57,
          "name": "A3",
          "ticks": 174336,
          "time": 123.818058,
          "velocity": 0.30708661417322836
        },
        {
          "duration": 0.0852271875000099,
          "durationTicks": 120,
          "midi": 52,
          "name": "E3",
          "ticks": 174360,
          "time": 123.8351034375,
          "velocity": 0.30708661417322836
        },
        {
          "duration": 0.0852271875000099,
          "durationTicks": 120,
          "midi": 57,
          "name": "A3",
          "ticks": 174360,
          "time": 123.8351034375,
          "velocity": 0.30708661417322836
        },
        {
          "duration": 0.0852271875000099,
          "durationTicks": 120,
          "midi": 84,
          "name": "C6",
          "ticks": 174360,
          "time": 123.8351034375,
          "velocity": 0.30708661417322836
        },
        {
          "duration": 0.0852271875000099,
          "durationTicks": 120,
          "midi": 76,
          "name": "E5",
          "ticks": 174360,
          "time": 123.8351034375,
          "velocity": 0.30708661417322836
        },
        {
          "duration": 0.0852271875000099,
          "durationTicks": 120,
          "midi": 81,
          "name": "A5",
          "ticks": 174360,
          "time": 123.8351034375,
          "velocity": 0.30708661417322836
        },
        {
          "duration": 0.0852271875000099,
          "durationTicks": 120,
          "midi": 88,
          "name": "E6",
          "ticks": 174360,
          "time": 123.8351034375,
          "velocity": 0.30708661417322836
        },
        {
          "duration": 0.0852271875000099,
          "durationTicks": 120,
          "midi": 72,
          "name": "C5",
          "ticks": 174360,
          "time": 123.8351034375,
          "velocity": 0.30708661417322836
        },
        {
          "duration": 0.0852271874999957,
          "durationTicks": 120,
          "midi": 76,
          "name": "E5",
          "ticks": 174576,
          "time": 123.988512375,
          "velocity": 0.30708661417322836
        },
        {
          "duration": 0.0852271874999957,
          "durationTicks": 120,
          "midi": 71,
          "name": "B4",
          "ticks": 174576,
          "time": 123.988512375,
          "velocity": 0.30708661417322836
        },
        {
          "duration": 0.0852271874999957,
          "durationTicks": 120,
          "midi": 81,
          "name": "A5",
          "ticks": 174576,
          "time": 123.988512375,
          "velocity": 0.30708661417322836
        },
        {
          "duration": 0.0852271874999957,
          "durationTicks": 120,
          "midi": 47,
          "name": "B2",
          "ticks": 174576,
          "time": 123.988512375,
          "velocity": 0.30708661417322836
        },
        {
          "duration": 0.0852271874999957,
          "durationTicks": 120,
          "midi": 76,
          "name": "E5",
          "ticks": 174576,
          "time": 123.988512375,
          "velocity": 0.30708661417322836
        },
        {
          "duration": 0.0852271874999957,
          "durationTicks": 120,
          "midi": 86,
          "name": "D6",
          "ticks": 174576,
          "time": 123.988512375,
          "velocity": 0.30708661417322836
        },
        {
          "duration": 0.0852271874999957,
          "durationTicks": 120,
          "midi": 83,
          "name": "B5",
          "ticks": 174576,
          "time": 123.988512375,
          "velocity": 0.30708661417322836
        },
        {
          "duration": 0.0852271874999957,
          "durationTicks": 120,
          "midi": 47,
          "name": "B2",
          "ticks": 174576,
          "time": 123.988512375,
          "velocity": 0.30708661417322836
        },
        {
          "duration": 0.0852271874999957,
          "durationTicks": 120,
          "midi": 81,
          "name": "A5",
          "ticks": 174576,
          "time": 123.988512375,
          "velocity": 0.30708661417322836
        },
        {
          "duration": 0.0852271874999957,
          "durationTicks": 120,
          "midi": 83,
          "name": "B5",
          "ticks": 174576,
          "time": 123.988512375,
          "velocity": 0.30708661417322836
        },
        {
          "duration": 0.0852271874999957,
          "durationTicks": 120,
          "midi": 71,
          "name": "B4",
          "ticks": 174576,
          "time": 123.988512375,
          "velocity": 0.30708661417322836
        },
        {
          "duration": 0.0852271874999957,
          "durationTicks": 120,
          "midi": 86,
          "name": "D6",
          "ticks": 174576,
          "time": 123.988512375,
          "velocity": 0.30708661417322836
        },
        {
          "duration": 0.0852271874999957,
          "durationTicks": 120,
          "midi": 76,
          "name": "E5",
          "ticks": 174600,
          "time": 124.0055578125,
          "velocity": 0.30708661417322836
        },
        {
          "duration": 0.0852271874999957,
          "durationTicks": 120,
          "midi": 47,
          "name": "B2",
          "ticks": 174600,
          "time": 124.0055578125,
          "velocity": 0.30708661417322836
        },
        {
          "duration": 0.0852271874999957,
          "durationTicks": 120,
          "midi": 81,
          "name": "A5",
          "ticks": 174600,
          "time": 124.0055578125,
          "velocity": 0.30708661417322836
        },
        {
          "duration": 0.0852271874999957,
          "durationTicks": 120,
          "midi": 83,
          "name": "B5",
          "ticks": 174600,
          "time": 124.0055578125,
          "velocity": 0.30708661417322836
        },
        {
          "duration": 0.0852271874999957,
          "durationTicks": 120,
          "midi": 71,
          "name": "B4",
          "ticks": 174600,
          "time": 124.0055578125,
          "velocity": 0.30708661417322836
        },
        {
          "duration": 0.0852271874999957,
          "durationTicks": 120,
          "midi": 86,
          "name": "D6",
          "ticks": 174600,
          "time": 124.0055578125,
          "velocity": 0.30708661417322836
        },
        {
          "duration": 0.0852271874999957,
          "durationTicks": 120,
          "midi": 56,
          "name": "G#3",
          "ticks": 174816,
          "time": 124.15896675,
          "velocity": 0.30708661417322836
        },
        {
          "duration": 0.0852271874999957,
          "durationTicks": 120,
          "midi": 50,
          "name": "D3",
          "ticks": 174816,
          "time": 124.15896675,
          "velocity": 0.30708661417322836
        },
        {
          "duration": 0.0852271874999957,
          "durationTicks": 120,
          "midi": 56,
          "name": "G#3",
          "ticks": 174816,
          "time": 124.15896675,
          "velocity": 0.30708661417322836
        },
        {
          "duration": 0.0852271874999957,
          "durationTicks": 120,
          "midi": 50,
          "name": "D3",
          "ticks": 174816,
          "time": 124.15896675,
          "velocity": 0.30708661417322836
        },
        {
          "duration": 0.0852271875000099,
          "durationTicks": 120,
          "midi": 56,
          "name": "G#3",
          "ticks": 174840,
          "time": 124.17601218749999,
          "velocity": 0.30708661417322836
        },
        {
          "duration": 0.0852271875000099,
          "durationTicks": 120,
          "midi": 50,
          "name": "D3",
          "ticks": 174840,
          "time": 124.17601218749999,
          "velocity": 0.30708661417322836
        },
        {
          "duration": 0.0852271874999957,
          "durationTicks": 120,
          "midi": 70,
          "name": "A#4",
          "ticks": 174936,
          "time": 124.2441939375,
          "velocity": 0.30708661417322836
        },
        {
          "duration": 0.0852271874999957,
          "durationTicks": 120,
          "midi": 86,
          "name": "D6",
          "ticks": 174936,
          "time": 124.2441939375,
          "velocity": 0.30708661417322836
        },
        {
          "duration": 0.0852271874999957,
          "durationTicks": 120,
          "midi": 80,
          "name": "G#5",
          "ticks": 174936,
          "time": 124.2441939375,
          "velocity": 0.30708661417322836
        },
        {
          "duration": 0.0852271874999957,
          "durationTicks": 120,
          "midi": 86,
          "name": "D6",
          "ticks": 174936,
          "time": 124.2441939375,
          "velocity": 0.30708661417322836
        },
        {
          "duration": 0.0852271874999957,
          "durationTicks": 120,
          "midi": 82,
          "name": "A#5",
          "ticks": 174936,
          "time": 124.2441939375,
          "velocity": 0.30708661417322836
        },
        {
          "duration": 0.0852271874999957,
          "durationTicks": 120,
          "midi": 76,
          "name": "E5",
          "ticks": 174936,
          "time": 124.2441939375,
          "velocity": 0.30708661417322836
        },
        {
          "duration": 0.0852271874999957,
          "durationTicks": 120,
          "midi": 80,
          "name": "G#5",
          "ticks": 174936,
          "time": 124.2441939375,
          "velocity": 0.30708661417322836
        },
        {
          "duration": 0.0852271874999957,
          "durationTicks": 120,
          "midi": 82,
          "name": "A#5",
          "ticks": 174936,
          "time": 124.2441939375,
          "velocity": 0.30708661417322836
        },
        {
          "duration": 0.0852271874999957,
          "durationTicks": 120,
          "midi": 70,
          "name": "A#4",
          "ticks": 174936,
          "time": 124.2441939375,
          "velocity": 0.30708661417322836
        },
        {
          "duration": 0.0852271874999957,
          "durationTicks": 120,
          "midi": 76,
          "name": "E5",
          "ticks": 174936,
          "time": 124.2441939375,
          "velocity": 0.30708661417322836
        },
        {
          "duration": 0.0852271874999957,
          "durationTicks": 120,
          "midi": 86,
          "name": "D6",
          "ticks": 174960,
          "time": 124.261239375,
          "velocity": 0.30708661417322836
        },
        {
          "duration": 0.0852271874999957,
          "durationTicks": 120,
          "midi": 76,
          "name": "E5",
          "ticks": 174960,
          "time": 124.261239375,
          "velocity": 0.30708661417322836
        },
        {
          "duration": 0.0852271874999957,
          "durationTicks": 120,
          "midi": 82,
          "name": "A#5",
          "ticks": 174960,
          "time": 124.261239375,
          "velocity": 0.30708661417322836
        },
        {
          "duration": 0.0852271874999957,
          "durationTicks": 120,
          "midi": 80,
          "name": "G#5",
          "ticks": 174960,
          "time": 124.261239375,
          "velocity": 0.30708661417322836
        },
        {
          "duration": 0.0852271874999957,
          "durationTicks": 120,
          "midi": 70,
          "name": "A#4",
          "ticks": 174960,
          "time": 124.261239375,
          "velocity": 0.30708661417322836
        },
        {
          "duration": 0.0852271874999957,
          "durationTicks": 120,
          "midi": 76,
          "name": "E5",
          "ticks": 175056,
          "time": 124.329421125,
          "velocity": 0.30708661417322836
        },
        {
          "duration": 0.0852271874999957,
          "durationTicks": 120,
          "midi": 81,
          "name": "A5",
          "ticks": 175056,
          "time": 124.329421125,
          "velocity": 0.30708661417322836
        },
        {
          "duration": 0.0852271874999957,
          "durationTicks": 120,
          "midi": 83,
          "name": "B5",
          "ticks": 175056,
          "time": 124.329421125,
          "velocity": 0.30708661417322836
        },
        {
          "duration": 0.0852271874999957,
          "durationTicks": 120,
          "midi": 89,
          "name": "F6",
          "ticks": 175056,
          "time": 124.329421125,
          "velocity": 0.30708661417322836
        },
        {
          "duration": 0.0852271874999957,
          "durationTicks": 120,
          "midi": 71,
          "name": "B4",
          "ticks": 175056,
          "time": 124.329421125,
          "velocity": 0.30708661417322836
        },
        {
          "duration": 0.0852271874999957,
          "durationTicks": 120,
          "midi": 76,
          "name": "E5",
          "ticks": 175056,
          "time": 124.329421125,
          "velocity": 0.30708661417322836
        },
        {
          "duration": 0.0852271874999957,
          "durationTicks": 120,
          "midi": 83,
          "name": "B5",
          "ticks": 175056,
          "time": 124.329421125,
          "velocity": 0.30708661417322836
        },
        {
          "duration": 0.0852271874999957,
          "durationTicks": 120,
          "midi": 40,
          "name": "E2",
          "ticks": 175056,
          "time": 124.329421125,
          "velocity": 0.30708661417322836
        },
        {
          "duration": 0.0852271874999957,
          "durationTicks": 120,
          "midi": 40,
          "name": "E2",
          "ticks": 175056,
          "time": 124.329421125,
          "velocity": 0.30708661417322836
        },
        {
          "duration": 0.0852271874999957,
          "durationTicks": 120,
          "midi": 71,
          "name": "B4",
          "ticks": 175056,
          "time": 124.329421125,
          "velocity": 0.30708661417322836
        },
        {
          "duration": 0.0852271874999957,
          "durationTicks": 120,
          "midi": 89,
          "name": "F6",
          "ticks": 175056,
          "time": 124.329421125,
          "velocity": 0.30708661417322836
        },
        {
          "duration": 0.0852271874999957,
          "durationTicks": 120,
          "midi": 81,
          "name": "A5",
          "ticks": 175056,
          "time": 124.329421125,
          "velocity": 0.30708661417322836
        },
        {
          "duration": 0.0852271874999957,
          "durationTicks": 120,
          "midi": 40,
          "name": "E2",
          "ticks": 175080,
          "time": 124.3464665625,
          "velocity": 0.30708661417322836
        },
        {
          "duration": 0.0852271874999957,
          "durationTicks": 120,
          "midi": 89,
          "name": "F6",
          "ticks": 175080,
          "time": 124.3464665625,
          "velocity": 0.30708661417322836
        },
        {
          "duration": 0.0852271874999957,
          "durationTicks": 120,
          "midi": 71,
          "name": "B4",
          "ticks": 175080,
          "time": 124.3464665625,
          "velocity": 0.30708661417322836
        },
        {
          "duration": 0.0852271874999957,
          "durationTicks": 120,
          "midi": 81,
          "name": "A5",
          "ticks": 175080,
          "time": 124.3464665625,
          "velocity": 0.30708661417322836
        },
        {
          "duration": 0.0852271874999957,
          "durationTicks": 120,
          "midi": 83,
          "name": "B5",
          "ticks": 175080,
          "time": 124.3464665625,
          "velocity": 0.30708661417322836
        },
        {
          "duration": 0.0852271874999957,
          "durationTicks": 120,
          "midi": 76,
          "name": "E5",
          "ticks": 175080,
          "time": 124.3464665625,
          "velocity": 0.30708661417322836
        },
        {
          "duration": 0.0852271874999957,
          "durationTicks": 120,
          "midi": 84,
          "name": "C6",
          "ticks": 175296,
          "time": 124.4998755,
          "velocity": 0.30708661417322836
        },
        {
          "duration": 0.0852271874999957,
          "durationTicks": 120,
          "midi": 80,
          "name": "G#5",
          "ticks": 175296,
          "time": 124.4998755,
          "velocity": 0.30708661417322836
        },
        {
          "duration": 0.0852271874999957,
          "durationTicks": 120,
          "midi": 88,
          "name": "E6",
          "ticks": 175296,
          "time": 124.4998755,
          "velocity": 0.30708661417322836
        },
        {
          "duration": 0.0852271874999957,
          "durationTicks": 120,
          "midi": 88,
          "name": "E6",
          "ticks": 175296,
          "time": 124.4998755,
          "velocity": 0.30708661417322836
        },
        {
          "duration": 0.0852271874999957,
          "durationTicks": 120,
          "midi": 76,
          "name": "E5",
          "ticks": 175296,
          "time": 124.4998755,
          "velocity": 0.30708661417322836
        },
        {
          "duration": 0.0852271874999957,
          "durationTicks": 120,
          "midi": 91,
          "name": "G6",
          "ticks": 175296,
          "time": 124.4998755,
          "velocity": 0.30708661417322836
        },
        {
          "duration": 0.0852271874999957,
          "durationTicks": 120,
          "midi": 56,
          "name": "G#3",
          "ticks": 175296,
          "time": 124.4998755,
          "velocity": 0.30708661417322836
        },
        {
          "duration": 0.0852271874999957,
          "durationTicks": 120,
          "midi": 91,
          "name": "G6",
          "ticks": 175296,
          "time": 124.4998755,
          "velocity": 0.30708661417322836
        },
        {
          "duration": 0.0852271874999957,
          "durationTicks": 120,
          "midi": 72,
          "name": "C5",
          "ticks": 175296,
          "time": 124.4998755,
          "velocity": 0.30708661417322836
        },
        {
          "duration": 0.0852271874999957,
          "durationTicks": 120,
          "midi": 50,
          "name": "D3",
          "ticks": 175296,
          "time": 124.4998755,
          "velocity": 0.30708661417322836
        },
        {
          "duration": 0.0852271874999957,
          "durationTicks": 120,
          "midi": 72,
          "name": "C5",
          "ticks": 175296,
          "time": 124.4998755,
          "velocity": 0.30708661417322836
        },
        {
          "duration": 0.0852271874999957,
          "durationTicks": 120,
          "midi": 84,
          "name": "C6",
          "ticks": 175296,
          "time": 124.4998755,
          "velocity": 0.30708661417322836
        },
        {
          "duration": 0.0852271874999957,
          "durationTicks": 120,
          "midi": 56,
          "name": "G#3",
          "ticks": 175296,
          "time": 124.4998755,
          "velocity": 0.30708661417322836
        },
        {
          "duration": 0.0852271874999957,
          "durationTicks": 120,
          "midi": 50,
          "name": "D3",
          "ticks": 175296,
          "time": 124.4998755,
          "velocity": 0.30708661417322836
        },
        {
          "duration": 0.0852271874999957,
          "durationTicks": 120,
          "midi": 76,
          "name": "E5",
          "ticks": 175296,
          "time": 124.4998755,
          "velocity": 0.30708661417322836
        },
        {
          "duration": 0.0852271874999957,
          "durationTicks": 120,
          "midi": 80,
          "name": "G#5",
          "ticks": 175296,
          "time": 124.4998755,
          "velocity": 0.30708661417322836
        },
        {
          "duration": 0.0852271874999957,
          "durationTicks": 120,
          "midi": 56,
          "name": "G#3",
          "ticks": 175320,
          "time": 124.5169209375,
          "velocity": 0.30708661417322836
        },
        {
          "duration": 0.0852271874999957,
          "durationTicks": 120,
          "midi": 50,
          "name": "D3",
          "ticks": 175320,
          "time": 124.5169209375,
          "velocity": 0.30708661417322836
        },
        {
          "duration": 0.0852271874999957,
          "durationTicks": 120,
          "midi": 88,
          "name": "E6",
          "ticks": 175320,
          "time": 124.5169209375,
          "velocity": 0.30708661417322836
        },
        {
          "duration": 0.0852271874999957,
          "durationTicks": 120,
          "midi": 80,
          "name": "G#5",
          "ticks": 175320,
          "time": 124.5169209375,
          "velocity": 0.30708661417322836
        },
        {
          "duration": 0.0852271874999957,
          "durationTicks": 120,
          "midi": 91,
          "name": "G6",
          "ticks": 175320,
          "time": 124.5169209375,
          "velocity": 0.30708661417322836
        },
        {
          "duration": 0.0852271874999957,
          "durationTicks": 120,
          "midi": 72,
          "name": "C5",
          "ticks": 175320,
          "time": 124.5169209375,
          "velocity": 0.30708661417322836
        },
        {
          "duration": 0.0852271874999957,
          "durationTicks": 120,
          "midi": 76,
          "name": "E5",
          "ticks": 175320,
          "time": 124.5169209375,
          "velocity": 0.30708661417322836
        },
        {
          "duration": 0.0852271874999957,
          "durationTicks": 120,
          "midi": 84,
          "name": "C6",
          "ticks": 175320,
          "time": 124.5169209375,
          "velocity": 0.30708661417322836
        },
        {
          "duration": 0.0852271875000099,
          "durationTicks": 120,
          "midi": 86,
          "name": "D6",
          "ticks": 175536,
          "time": 124.670329875,
          "velocity": 0.30708661417322836
        },
        {
          "duration": 0.0852271875000099,
          "durationTicks": 120,
          "midi": 77,
          "name": "F5",
          "ticks": 175536,
          "time": 124.670329875,
          "velocity": 0.30708661417322836
        },
        {
          "duration": 0.0852271875000099,
          "durationTicks": 120,
          "midi": 77,
          "name": "F5",
          "ticks": 175536,
          "time": 124.670329875,
          "velocity": 0.30708661417322836
        },
        {
          "duration": 0.0852271875000099,
          "durationTicks": 120,
          "midi": 47,
          "name": "B2",
          "ticks": 175536,
          "time": 124.670329875,
          "velocity": 0.30708661417322836
        },
        {
          "duration": 0.0852271875000099,
          "durationTicks": 120,
          "midi": 74,
          "name": "D5",
          "ticks": 175536,
          "time": 124.670329875,
          "velocity": 0.30708661417322836
        },
        {
          "duration": 0.0852271875000099,
          "durationTicks": 120,
          "midi": 47,
          "name": "B2",
          "ticks": 175536,
          "time": 124.670329875,
          "velocity": 0.30708661417322836
        },
        {
          "duration": 0.0852271875000099,
          "durationTicks": 120,
          "midi": 89,
          "name": "F6",
          "ticks": 175536,
          "time": 124.670329875,
          "velocity": 0.30708661417322836
        },
        {
          "duration": 0.0852271875000099,
          "durationTicks": 120,
          "midi": 86,
          "name": "D6",
          "ticks": 175536,
          "time": 124.670329875,
          "velocity": 0.30708661417322836
        },
        {
          "duration": 0.0852271875000099,
          "durationTicks": 120,
          "midi": 89,
          "name": "F6",
          "ticks": 175536,
          "time": 124.670329875,
          "velocity": 0.30708661417322836
        },
        {
          "duration": 0.0852271875000099,
          "durationTicks": 120,
          "midi": 81,
          "name": "A5",
          "ticks": 175536,
          "time": 124.670329875,
          "velocity": 0.30708661417322836
        },
        {
          "duration": 0.0852271875000099,
          "durationTicks": 120,
          "midi": 81,
          "name": "A5",
          "ticks": 175536,
          "time": 124.670329875,
          "velocity": 0.30708661417322836
        },
        {
          "duration": 0.0852271875000099,
          "durationTicks": 120,
          "midi": 74,
          "name": "D5",
          "ticks": 175536,
          "time": 124.670329875,
          "velocity": 0.30708661417322836
        },
        {
          "duration": 0.0852271875000099,
          "durationTicks": 120,
          "midi": 47,
          "name": "B2",
          "ticks": 175560,
          "time": 124.6873753125,
          "velocity": 0.30708661417322836
        },
        {
          "duration": 0.0852271875000099,
          "durationTicks": 120,
          "midi": 89,
          "name": "F6",
          "ticks": 175560,
          "time": 124.6873753125,
          "velocity": 0.30708661417322836
        },
        {
          "duration": 0.0852271875000099,
          "durationTicks": 120,
          "midi": 77,
          "name": "F5",
          "ticks": 175560,
          "time": 124.6873753125,
          "velocity": 0.30708661417322836
        },
        {
          "duration": 0.0852271875000099,
          "durationTicks": 120,
          "midi": 74,
          "name": "D5",
          "ticks": 175560,
          "time": 124.6873753125,
          "velocity": 0.30708661417322836
        },
        {
          "duration": 0.0852271875000099,
          "durationTicks": 120,
          "midi": 86,
          "name": "D6",
          "ticks": 175560,
          "time": 124.6873753125,
          "velocity": 0.30708661417322836
        },
        {
          "duration": 0.0852271875000099,
          "durationTicks": 120,
          "midi": 81,
          "name": "A5",
          "ticks": 175560,
          "time": 124.6873753125,
          "velocity": 0.30708661417322836
        },
        {
          "duration": 0.0852271874999957,
          "durationTicks": 120,
          "midi": 50,
          "name": "D3",
          "ticks": 175776,
          "time": 124.84078425,
          "velocity": 0.30708661417322836
        },
        {
          "duration": 0.0852271874999957,
          "durationTicks": 120,
          "midi": 76,
          "name": "E5",
          "ticks": 175776,
          "time": 124.84078425,
          "velocity": 0.30708661417322836
        },
        {
          "duration": 0.0852271874999957,
          "durationTicks": 120,
          "midi": 84,
          "name": "C6",
          "ticks": 175776,
          "time": 124.84078425,
          "velocity": 0.30708661417322836
        },
        {
          "duration": 0.0852271874999957,
          "durationTicks": 120,
          "midi": 56,
          "name": "G#3",
          "ticks": 175776,
          "time": 124.84078425,
          "velocity": 0.30708661417322836
        },
        {
          "duration": 0.0852271874999957,
          "durationTicks": 120,
          "midi": 72,
          "name": "C5",
          "ticks": 175776,
          "time": 124.84078425,
          "velocity": 0.30708661417322836
        },
        {
          "duration": 0.0852271874999957,
          "durationTicks": 120,
          "midi": 81,
          "name": "A5",
          "ticks": 175776,
          "time": 124.84078425,
          "velocity": 0.30708661417322836
        },
        {
          "duration": 0.0852271874999957,
          "durationTicks": 120,
          "midi": 50,
          "name": "D3",
          "ticks": 175776,
          "time": 124.84078425,
          "velocity": 0.30708661417322836
        },
        {
          "duration": 0.0852271874999957,
          "durationTicks": 120,
          "midi": 81,
          "name": "A5",
          "ticks": 175776,
          "time": 124.84078425,
          "velocity": 0.30708661417322836
        },
        {
          "duration": 0.0852271874999957,
          "durationTicks": 120,
          "midi": 72,
          "name": "C5",
          "ticks": 175776,
          "time": 124.84078425,
          "velocity": 0.30708661417322836
        },
        {
          "duration": 0.0852271874999957,
          "durationTicks": 120,
          "midi": 84,
          "name": "C6",
          "ticks": 175776,
          "time": 124.84078425,
          "velocity": 0.30708661417322836
        },
        {
          "duration": 0.0852271874999957,
          "durationTicks": 120,
          "midi": 76,
          "name": "E5",
          "ticks": 175776,
          "time": 124.84078425,
          "velocity": 0.30708661417322836
        },
        {
          "duration": 0.0852271874999957,
          "durationTicks": 120,
          "midi": 56,
          "name": "G#3",
          "ticks": 175776,
          "time": 124.84078425,
          "velocity": 0.30708661417322836
        },
        {
          "duration": 0.0852271874999957,
          "durationTicks": 120,
          "midi": 76,
          "name": "E5",
          "ticks": 175800,
          "time": 124.8578296875,
          "velocity": 0.30708661417322836
        },
        {
          "duration": 0.0852271874999957,
          "durationTicks": 120,
          "midi": 84,
          "name": "C6",
          "ticks": 175800,
          "time": 124.8578296875,
          "velocity": 0.30708661417322836
        },
        {
          "duration": 0.0852271874999957,
          "durationTicks": 120,
          "midi": 81,
          "name": "A5",
          "ticks": 175800,
          "time": 124.8578296875,
          "velocity": 0.30708661417322836
        },
        {
          "duration": 0.0852271874999957,
          "durationTicks": 120,
          "midi": 50,
          "name": "D3",
          "ticks": 175800,
          "time": 124.8578296875,
          "velocity": 0.30708661417322836
        },
        {
          "duration": 0.0852271874999957,
          "durationTicks": 120,
          "midi": 56,
          "name": "G#3",
          "ticks": 175800,
          "time": 124.8578296875,
          "velocity": 0.30708661417322836
        },
        {
          "duration": 0.0852271874999957,
          "durationTicks": 120,
          "midi": 72,
          "name": "C5",
          "ticks": 175800,
          "time": 124.8578296875,
          "velocity": 0.30708661417322836
        },
        {
          "duration": 0.0852271874999957,
          "durationTicks": 120,
          "midi": 81,
          "name": "A5",
          "ticks": 176016,
          "time": 125.011238625,
          "velocity": 0.30708661417322836
        },
        {
          "duration": 0.0852271874999957,
          "durationTicks": 120,
          "midi": 76,
          "name": "E5",
          "ticks": 176016,
          "time": 125.011238625,
          "velocity": 0.30708661417322836
        },
        {
          "duration": 0.0852271874999957,
          "durationTicks": 120,
          "midi": 83,
          "name": "B5",
          "ticks": 176016,
          "time": 125.011238625,
          "velocity": 0.30708661417322836
        },
        {
          "duration": 0.0852271874999957,
          "durationTicks": 120,
          "midi": 83,
          "name": "B5",
          "ticks": 176016,
          "time": 125.011238625,
          "velocity": 0.30708661417322836
        },
        {
          "duration": 0.0852271874999957,
          "durationTicks": 120,
          "midi": 71,
          "name": "B4",
          "ticks": 176016,
          "time": 125.011238625,
          "velocity": 0.30708661417322836
        },
        {
          "duration": 0.0852271874999957,
          "durationTicks": 120,
          "midi": 40,
          "name": "E2",
          "ticks": 176016,
          "time": 125.011238625,
          "velocity": 0.30708661417322836
        },
        {
          "duration": 0.0852271874999957,
          "durationTicks": 120,
          "midi": 40,
          "name": "E2",
          "ticks": 176016,
          "time": 125.011238625,
          "velocity": 0.30708661417322836
        },
        {
          "duration": 0.0852271874999957,
          "durationTicks": 120,
          "midi": 71,
          "name": "B4",
          "ticks": 176016,
          "time": 125.011238625,
          "velocity": 0.30708661417322836
        },
        {
          "duration": 0.0852271874999957,
          "durationTicks": 120,
          "midi": 81,
          "name": "A5",
          "ticks": 176016,
          "time": 125.011238625,
          "velocity": 0.30708661417322836
        },
        {
          "duration": 0.0852271874999957,
          "durationTicks": 120,
          "midi": 76,
          "name": "E5",
          "ticks": 176016,
          "time": 125.011238625,
          "velocity": 0.30708661417322836
        },
        {
          "duration": 0.0852271875000099,
          "durationTicks": 120,
          "midi": 76,
          "name": "E5",
          "ticks": 176040,
          "time": 125.02828406249999,
          "velocity": 0.30708661417322836
        },
        {
          "duration": 0.0852271875000099,
          "durationTicks": 120,
          "midi": 83,
          "name": "B5",
          "ticks": 176040,
          "time": 125.02828406249999,
          "velocity": 0.30708661417322836
        },
        {
          "duration": 0.0852271875000099,
          "durationTicks": 120,
          "midi": 71,
          "name": "B4",
          "ticks": 176040,
          "time": 125.02828406249999,
          "velocity": 0.30708661417322836
        },
        {
          "duration": 0.0852271875000099,
          "durationTicks": 120,
          "midi": 81,
          "name": "A5",
          "ticks": 176040,
          "time": 125.02828406249999,
          "velocity": 0.30708661417322836
        },
        {
          "duration": 0.0852271875000099,
          "durationTicks": 120,
          "midi": 40,
          "name": "E2",
          "ticks": 176040,
          "time": 125.02828406249999,
          "velocity": 0.30708661417322836
        },
        {
          "duration": 0.0852271875000099,
          "durationTicks": 120,
          "midi": 86,
          "name": "D6",
          "ticks": 176256,
          "time": 125.181693,
          "velocity": 0.30708661417322836
        },
        {
          "duration": 0.0852271875000099,
          "durationTicks": 120,
          "midi": 56,
          "name": "G#3",
          "ticks": 176256,
          "time": 125.181693,
          "velocity": 0.30708661417322836
        },
        {
          "duration": 0.0852271875000099,
          "durationTicks": 120,
          "midi": 81,
          "name": "A5",
          "ticks": 176256,
          "time": 125.181693,
          "velocity": 0.30708661417322836
        },
        {
          "duration": 0.0852271875000099,
          "durationTicks": 120,
          "midi": 86,
          "name": "D6",
          "ticks": 176256,
          "time": 125.181693,
          "velocity": 0.30708661417322836
        },
        {
          "duration": 0.0852271875000099,
          "durationTicks": 120,
          "midi": 50,
          "name": "D3",
          "ticks": 176256,
          "time": 125.181693,
          "velocity": 0.30708661417322836
        },
        {
          "duration": 0.0852271875000099,
          "durationTicks": 120,
          "midi": 50,
          "name": "D3",
          "ticks": 176256,
          "time": 125.181693,
          "velocity": 0.30708661417322836
        },
        {
          "duration": 0.0852271875000099,
          "durationTicks": 120,
          "midi": 74,
          "name": "D5",
          "ticks": 176256,
          "time": 125.181693,
          "velocity": 0.30708661417322836
        },
        {
          "duration": 0.0852271875000099,
          "durationTicks": 120,
          "midi": 81,
          "name": "A5",
          "ticks": 176256,
          "time": 125.181693,
          "velocity": 0.30708661417322836
        },
        {
          "duration": 0.0852271875000099,
          "durationTicks": 120,
          "midi": 56,
          "name": "G#3",
          "ticks": 176256,
          "time": 125.181693,
          "velocity": 0.30708661417322836
        },
        {
          "duration": 0.0852271875000099,
          "durationTicks": 120,
          "midi": 76,
          "name": "E5",
          "ticks": 176256,
          "time": 125.181693,
          "velocity": 0.30708661417322836
        },
        {
          "duration": 0.0852271875000099,
          "durationTicks": 120,
          "midi": 74,
          "name": "D5",
          "ticks": 176256,
          "time": 125.181693,
          "velocity": 0.30708661417322836
        },
        {
          "duration": 0.0852271875000099,
          "durationTicks": 120,
          "midi": 76,
          "name": "E5",
          "ticks": 176256,
          "time": 125.181693,
          "velocity": 0.30708661417322836
        },
        {
          "duration": 0.0852271874999957,
          "durationTicks": 120,
          "midi": 86,
          "name": "D6",
          "ticks": 176280,
          "time": 125.1987384375,
          "velocity": 0.30708661417322836
        },
        {
          "duration": 0.0852271874999957,
          "durationTicks": 120,
          "midi": 74,
          "name": "D5",
          "ticks": 176280,
          "time": 125.1987384375,
          "velocity": 0.30708661417322836
        },
        {
          "duration": 0.0852271874999957,
          "durationTicks": 120,
          "midi": 76,
          "name": "E5",
          "ticks": 176280,
          "time": 125.1987384375,
          "velocity": 0.30708661417322836
        },
        {
          "duration": 0.0852271874999957,
          "durationTicks": 120,
          "midi": 50,
          "name": "D3",
          "ticks": 176280,
          "time": 125.1987384375,
          "velocity": 0.30708661417322836
        },
        {
          "duration": 0.0852271874999957,
          "durationTicks": 120,
          "midi": 56,
          "name": "G#3",
          "ticks": 176280,
          "time": 125.1987384375,
          "velocity": 0.30708661417322836
        },
        {
          "duration": 0.0852271874999957,
          "durationTicks": 120,
          "midi": 81,
          "name": "A5",
          "ticks": 176280,
          "time": 125.1987384375,
          "velocity": 0.30708661417322836
        },
        {
          "duration": 0.0852271874999957,
          "durationTicks": 120,
          "midi": 48,
          "name": "C3",
          "ticks": 176496,
          "time": 125.352147375,
          "velocity": 0.30708661417322836
        },
        {
          "duration": 0.0852271874999957,
          "durationTicks": 120,
          "midi": 76,
          "name": "E5",
          "ticks": 176496,
          "time": 125.352147375,
          "velocity": 0.30708661417322836
        },
        {
          "duration": 0.0852271874999957,
          "durationTicks": 120,
          "midi": 84,
          "name": "C6",
          "ticks": 176496,
          "time": 125.352147375,
          "velocity": 0.30708661417322836
        },
        {
          "duration": 0.0852271874999957,
          "durationTicks": 120,
          "midi": 36,
          "name": "C2",
          "ticks": 176496,
          "time": 125.352147375,
          "velocity": 0.30708661417322836
        },
        {
          "duration": 0.0852271874999957,
          "durationTicks": 120,
          "midi": 36,
          "name": "C2",
          "ticks": 176496,
          "time": 125.352147375,
          "velocity": 0.30708661417322836
        },
        {
          "duration": 0.0852271874999957,
          "durationTicks": 120,
          "midi": 84,
          "name": "C6",
          "ticks": 176496,
          "time": 125.352147375,
          "velocity": 0.30708661417322836
        },
        {
          "duration": 0.0852271874999957,
          "durationTicks": 120,
          "midi": 81,
          "name": "A5",
          "ticks": 176496,
          "time": 125.352147375,
          "velocity": 0.30708661417322836
        },
        {
          "duration": 0.0852271874999957,
          "durationTicks": 120,
          "midi": 72,
          "name": "C5",
          "ticks": 176496,
          "time": 125.352147375,
          "velocity": 0.30708661417322836
        },
        {
          "duration": 0.0852271874999957,
          "durationTicks": 120,
          "midi": 76,
          "name": "E5",
          "ticks": 176496,
          "time": 125.352147375,
          "velocity": 0.30708661417322836
        },
        {
          "duration": 0.0852271874999957,
          "durationTicks": 120,
          "midi": 48,
          "name": "C3",
          "ticks": 176496,
          "time": 125.352147375,
          "velocity": 0.30708661417322836
        },
        {
          "duration": 0.0852271874999957,
          "durationTicks": 120,
          "midi": 81,
          "name": "A5",
          "ticks": 176496,
          "time": 125.352147375,
          "velocity": 0.30708661417322836
        },
        {
          "duration": 0.0852271874999957,
          "durationTicks": 120,
          "midi": 72,
          "name": "C5",
          "ticks": 176496,
          "time": 125.352147375,
          "velocity": 0.30708661417322836
        },
        {
          "duration": 0.0852271874999957,
          "durationTicks": 120,
          "midi": 36,
          "name": "C2",
          "ticks": 176520,
          "time": 125.3691928125,
          "velocity": 0.30708661417322836
        },
        {
          "duration": 0.0852271874999957,
          "durationTicks": 120,
          "midi": 48,
          "name": "C3",
          "ticks": 176520,
          "time": 125.3691928125,
          "velocity": 0.30708661417322836
        },
        {
          "duration": 0.0852271874999957,
          "durationTicks": 120,
          "midi": 84,
          "name": "C6",
          "ticks": 176520,
          "time": 125.3691928125,
          "velocity": 0.30708661417322836
        },
        {
          "duration": 0.0852271874999957,
          "durationTicks": 120,
          "midi": 72,
          "name": "C5",
          "ticks": 176520,
          "time": 125.3691928125,
          "velocity": 0.30708661417322836
        },
        {
          "duration": 0.0852271874999957,
          "durationTicks": 120,
          "midi": 81,
          "name": "A5",
          "ticks": 176520,
          "time": 125.3691928125,
          "velocity": 0.30708661417322836
        },
        {
          "duration": 0.0852271874999957,
          "durationTicks": 120,
          "midi": 76,
          "name": "E5",
          "ticks": 176520,
          "time": 125.3691928125,
          "velocity": 0.30708661417322836
        },
        {
          "duration": 0.0852271875000099,
          "durationTicks": 120,
          "midi": 76,
          "name": "E5",
          "ticks": 176736,
          "time": 125.52260174999999,
          "velocity": 0.30708661417322836
        },
        {
          "duration": 0.0852271875000099,
          "durationTicks": 120,
          "midi": 76,
          "name": "E5",
          "ticks": 176736,
          "time": 125.52260174999999,
          "velocity": 0.30708661417322836
        },
        {
          "duration": 0.0852271875000099,
          "durationTicks": 120,
          "midi": 45,
          "name": "A2",
          "ticks": 176736,
          "time": 125.52260174999999,
          "velocity": 0.30708661417322836
        },
        {
          "duration": 0.0852271875000099,
          "durationTicks": 120,
          "midi": 81,
          "name": "A5",
          "ticks": 176736,
          "time": 125.52260174999999,
          "velocity": 0.30708661417322836
        },
        {
          "duration": 0.0852271875000099,
          "durationTicks": 120,
          "midi": 60,
          "name": "C4",
          "ticks": 176736,
          "time": 125.52260174999999,
          "velocity": 0.30708661417322836
        },
        {
          "duration": 0.0852271875000099,
          "durationTicks": 120,
          "midi": 45,
          "name": "A2",
          "ticks": 176736,
          "time": 125.52260174999999,
          "velocity": 0.30708661417322836
        },
        {
          "duration": 0.0852271875000099,
          "durationTicks": 120,
          "midi": 64,
          "name": "E4",
          "ticks": 176736,
          "time": 125.52260174999999,
          "velocity": 0.30708661417322836
        },
        {
          "duration": 0.0852271875000099,
          "durationTicks": 120,
          "midi": 81,
          "name": "A5",
          "ticks": 176736,
          "time": 125.52260174999999,
          "velocity": 0.30708661417322836
        },
        {
          "duration": 0.0852271875000099,
          "durationTicks": 120,
          "midi": 60,
          "name": "C4",
          "ticks": 176736,
          "time": 125.52260174999999,
          "velocity": 0.30708661417322836
        },
        {
          "duration": 0.0852271875000099,
          "durationTicks": 120,
          "midi": 72,
          "name": "C5",
          "ticks": 176736,
          "time": 125.52260174999999,
          "velocity": 0.30708661417322836
        },
        {
          "duration": 0.0852271875000099,
          "durationTicks": 120,
          "midi": 69,
          "name": "A4",
          "ticks": 176736,
          "time": 125.52260174999999,
          "velocity": 0.30708661417322836
        },
        {
          "duration": 0.0852271875000099,
          "durationTicks": 120,
          "midi": 33,
          "name": "A1",
          "ticks": 176736,
          "time": 125.52260174999999,
          "velocity": 0.30708661417322836
        },
        {
          "duration": 0.0852271875000099,
          "durationTicks": 120,
          "midi": 33,
          "name": "A1",
          "ticks": 176736,
          "time": 125.52260174999999,
          "velocity": 0.30708661417322836
        },
        {
          "duration": 0.0852271875000099,
          "durationTicks": 120,
          "midi": 57,
          "name": "A3",
          "ticks": 176736,
          "time": 125.52260174999999,
          "velocity": 0.30708661417322836
        },
        {
          "duration": 0.0852271875000099,
          "durationTicks": 120,
          "midi": 57,
          "name": "A3",
          "ticks": 176736,
          "time": 125.52260174999999,
          "velocity": 0.30708661417322836
        },
        {
          "duration": 0.0852271875000099,
          "durationTicks": 120,
          "midi": 64,
          "name": "E4",
          "ticks": 176736,
          "time": 125.52260174999999,
          "velocity": 0.30708661417322836
        },
        {
          "duration": 0.0852271875000099,
          "durationTicks": 120,
          "midi": 72,
          "name": "C5",
          "ticks": 176736,
          "time": 125.52260174999999,
          "velocity": 0.30708661417322836
        },
        {
          "duration": 0.0852271875000099,
          "durationTicks": 120,
          "midi": 69,
          "name": "A4",
          "ticks": 176736,
          "time": 125.52260174999999,
          "velocity": 0.30708661417322836
        },
        {
          "duration": 0.0852271875000099,
          "durationTicks": 120,
          "midi": 64,
          "name": "E4",
          "ticks": 176760,
          "time": 125.5396471875,
          "velocity": 0.30708661417322836
        },
        {
          "duration": 0.0852271875000099,
          "durationTicks": 120,
          "midi": 57,
          "name": "A3",
          "ticks": 176760,
          "time": 125.5396471875,
          "velocity": 0.30708661417322836
        },
        {
          "duration": 0.0852271875000099,
          "durationTicks": 120,
          "midi": 60,
          "name": "C4",
          "ticks": 176760,
          "time": 125.5396471875,
          "velocity": 0.30708661417322836
        },
        {
          "duration": 0.0852271875000099,
          "durationTicks": 120,
          "midi": 69,
          "name": "A4",
          "ticks": 176760,
          "time": 125.5396471875,
          "velocity": 0.30708661417322836
        },
        {
          "duration": 0.0852271875000099,
          "durationTicks": 120,
          "midi": 33,
          "name": "A1",
          "ticks": 176760,
          "time": 125.5396471875,
          "velocity": 0.30708661417322836
        },
        {
          "duration": 0.0852271875000099,
          "durationTicks": 120,
          "midi": 76,
          "name": "E5",
          "ticks": 176760,
          "time": 125.5396471875,
          "velocity": 0.30708661417322836
        },
        {
          "duration": 0.0852271875000099,
          "durationTicks": 120,
          "midi": 81,
          "name": "A5",
          "ticks": 176760,
          "time": 125.5396471875,
          "velocity": 0.30708661417322836
        },
        {
          "duration": 0.0852271875000099,
          "durationTicks": 120,
          "midi": 72,
          "name": "C5",
          "ticks": 176760,
          "time": 125.5396471875,
          "velocity": 0.30708661417322836
        },
        {
          "duration": 0.0852271875000099,
          "durationTicks": 120,
          "midi": 45,
          "name": "A2",
          "ticks": 176760,
          "time": 125.5396471875,
          "velocity": 0.30708661417322836
        },
        {
          "duration": 0.0852271874999957,
          "durationTicks": 120,
          "midi": 81,
          "name": "A5",
          "ticks": 176976,
          "time": 125.693056125,
          "velocity": 0.30708661417322836
        },
        {
          "duration": 0.0852271874999957,
          "durationTicks": 120,
          "midi": 84,
          "name": "C6",
          "ticks": 176976,
          "time": 125.693056125,
          "velocity": 0.30708661417322836
        },
        {
          "duration": 0.0852271874999957,
          "durationTicks": 120,
          "midi": 64,
          "name": "E4",
          "ticks": 176976,
          "time": 125.693056125,
          "velocity": 0.30708661417322836
        },
        {
          "duration": 0.0852271874999957,
          "durationTicks": 120,
          "midi": 72,
          "name": "C5",
          "ticks": 176976,
          "time": 125.693056125,
          "velocity": 0.30708661417322836
        },
        {
          "duration": 0.0852271874999957,
          "durationTicks": 120,
          "midi": 81,
          "name": "A5",
          "ticks": 176976,
          "time": 125.693056125,
          "velocity": 0.30708661417322836
        },
        {
          "duration": 0.0852271874999957,
          "durationTicks": 120,
          "midi": 64,
          "name": "E4",
          "ticks": 176976,
          "time": 125.693056125,
          "velocity": 0.30708661417322836
        },
        {
          "duration": 0.0852271874999957,
          "durationTicks": 120,
          "midi": 76,
          "name": "E5",
          "ticks": 176976,
          "time": 125.693056125,
          "velocity": 0.30708661417322836
        },
        {
          "duration": 0.0852271874999957,
          "durationTicks": 120,
          "midi": 36,
          "name": "C2",
          "ticks": 176976,
          "time": 125.693056125,
          "velocity": 0.30708661417322836
        },
        {
          "duration": 0.0852271874999957,
          "durationTicks": 120,
          "midi": 60,
          "name": "C4",
          "ticks": 176976,
          "time": 125.693056125,
          "velocity": 0.30708661417322836
        },
        {
          "duration": 0.0852271874999957,
          "durationTicks": 120,
          "midi": 48,
          "name": "C3",
          "ticks": 176976,
          "time": 125.693056125,
          "velocity": 0.30708661417322836
        },
        {
          "duration": 0.0852271874999957,
          "durationTicks": 120,
          "midi": 84,
          "name": "C6",
          "ticks": 176976,
          "time": 125.693056125,
          "velocity": 0.30708661417322836
        },
        {
          "duration": 0.0852271874999957,
          "durationTicks": 120,
          "midi": 60,
          "name": "C4",
          "ticks": 176976,
          "time": 125.693056125,
          "velocity": 0.30708661417322836
        },
        {
          "duration": 0.0852271874999957,
          "durationTicks": 120,
          "midi": 36,
          "name": "C2",
          "ticks": 176976,
          "time": 125.693056125,
          "velocity": 0.30708661417322836
        },
        {
          "duration": 0.0852271874999957,
          "durationTicks": 120,
          "midi": 76,
          "name": "E5",
          "ticks": 176976,
          "time": 125.693056125,
          "velocity": 0.30708661417322836
        },
        {
          "duration": 0.0852271874999957,
          "durationTicks": 120,
          "midi": 69,
          "name": "A4",
          "ticks": 176976,
          "time": 125.693056125,
          "velocity": 0.30708661417322836
        },
        {
          "duration": 0.0852271874999957,
          "durationTicks": 120,
          "midi": 69,
          "name": "A4",
          "ticks": 176976,
          "time": 125.693056125,
          "velocity": 0.30708661417322836
        },
        {
          "duration": 0.0852271874999957,
          "durationTicks": 120,
          "midi": 72,
          "name": "C5",
          "ticks": 176976,
          "time": 125.693056125,
          "velocity": 0.30708661417322836
        },
        {
          "duration": 0.0852271874999957,
          "durationTicks": 120,
          "midi": 48,
          "name": "C3",
          "ticks": 176976,
          "time": 125.693056125,
          "velocity": 0.30708661417322836
        },
        {
          "duration": 0.0852271874999957,
          "durationTicks": 120,
          "midi": 72,
          "name": "C5",
          "ticks": 177000,
          "time": 125.7101015625,
          "velocity": 0.30708661417322836
        },
        {
          "duration": 0.0852271874999957,
          "durationTicks": 120,
          "midi": 76,
          "name": "E5",
          "ticks": 177000,
          "time": 125.7101015625,
          "velocity": 0.30708661417322836
        },
        {
          "duration": 0.0852271874999957,
          "durationTicks": 120,
          "midi": 69,
          "name": "A4",
          "ticks": 177000,
          "time": 125.7101015625,
          "velocity": 0.30708661417322836
        },
        {
          "duration": 0.0852271874999957,
          "durationTicks": 120,
          "midi": 36,
          "name": "C2",
          "ticks": 177000,
          "time": 125.7101015625,
          "velocity": 0.30708661417322836
        },
        {
          "duration": 0.0852271874999957,
          "durationTicks": 120,
          "midi": 64,
          "name": "E4",
          "ticks": 177000,
          "time": 125.7101015625,
          "velocity": 0.30708661417322836
        },
        {
          "duration": 0.0852271874999957,
          "durationTicks": 120,
          "midi": 81,
          "name": "A5",
          "ticks": 177000,
          "time": 125.7101015625,
          "velocity": 0.30708661417322836
        },
        {
          "duration": 0.0852271874999957,
          "durationTicks": 120,
          "midi": 84,
          "name": "C6",
          "ticks": 177000,
          "time": 125.7101015625,
          "velocity": 0.30708661417322836
        },
        {
          "duration": 0.0852271874999957,
          "durationTicks": 120,
          "midi": 48,
          "name": "C3",
          "ticks": 177000,
          "time": 125.7101015625,
          "velocity": 0.30708661417322836
        },
        {
          "duration": 0.0852271874999957,
          "durationTicks": 120,
          "midi": 60,
          "name": "C4",
          "ticks": 177000,
          "time": 125.7101015625,
          "velocity": 0.30708661417322836
        },
        {
          "duration": 0.0852271874999957,
          "durationTicks": 120,
          "midi": 76,
          "name": "E5",
          "ticks": 177216,
          "time": 125.8635105,
          "velocity": 0.30708661417322836
        },
        {
          "duration": 0.0852271874999957,
          "durationTicks": 120,
          "midi": 40,
          "name": "E2",
          "ticks": 177216,
          "time": 125.8635105,
          "velocity": 0.30708661417322836
        },
        {
          "duration": 0.0852271874999957,
          "durationTicks": 120,
          "midi": 72,
          "name": "C5",
          "ticks": 177216,
          "time": 125.8635105,
          "velocity": 0.30708661417322836
        },
        {
          "duration": 0.0852271874999957,
          "durationTicks": 120,
          "midi": 69,
          "name": "A4",
          "ticks": 177216,
          "time": 125.8635105,
          "velocity": 0.30708661417322836
        },
        {
          "duration": 0.0852271874999957,
          "durationTicks": 120,
          "midi": 88,
          "name": "E6",
          "ticks": 177216,
          "time": 125.8635105,
          "velocity": 0.30708661417322836
        },
        {
          "duration": 0.0852271874999957,
          "durationTicks": 120,
          "midi": 64,
          "name": "E4",
          "ticks": 177216,
          "time": 125.8635105,
          "velocity": 0.30708661417322836
        },
        {
          "duration": 0.0852271874999957,
          "durationTicks": 120,
          "midi": 81,
          "name": "A5",
          "ticks": 177216,
          "time": 125.8635105,
          "velocity": 0.30708661417322836
        },
        {
          "duration": 0.0852271874999957,
          "durationTicks": 120,
          "midi": 84,
          "name": "C6",
          "ticks": 177216,
          "time": 125.8635105,
          "velocity": 0.30708661417322836
        },
        {
          "duration": 0.0852271874999957,
          "durationTicks": 120,
          "midi": 88,
          "name": "E6",
          "ticks": 177216,
          "time": 125.8635105,
          "velocity": 0.30708661417322836
        },
        {
          "duration": 0.0852271874999957,
          "durationTicks": 120,
          "midi": 64,
          "name": "E4",
          "ticks": 177216,
          "time": 125.8635105,
          "velocity": 0.30708661417322836
        },
        {
          "duration": 0.0852271874999957,
          "durationTicks": 120,
          "midi": 72,
          "name": "C5",
          "ticks": 177216,
          "time": 125.8635105,
          "velocity": 0.30708661417322836
        },
        {
          "duration": 0.0852271874999957,
          "durationTicks": 120,
          "midi": 52,
          "name": "E3",
          "ticks": 177216,
          "time": 125.8635105,
          "velocity": 0.30708661417322836
        },
        {
          "duration": 0.0852271874999957,
          "durationTicks": 120,
          "midi": 52,
          "name": "E3",
          "ticks": 177216,
          "time": 125.8635105,
          "velocity": 0.30708661417322836
        },
        {
          "duration": 0.0852271874999957,
          "durationTicks": 120,
          "midi": 40,
          "name": "E2",
          "ticks": 177216,
          "time": 125.8635105,
          "velocity": 0.30708661417322836
        },
        {
          "duration": 0.0852271874999957,
          "durationTicks": 120,
          "midi": 81,
          "name": "A5",
          "ticks": 177216,
          "time": 125.8635105,
          "velocity": 0.30708661417322836
        },
        {
          "duration": 0.0852271874999957,
          "durationTicks": 120,
          "midi": 69,
          "name": "A4",
          "ticks": 177216,
          "time": 125.8635105,
          "velocity": 0.30708661417322836
        },
        {
          "duration": 0.0852271874999957,
          "durationTicks": 120,
          "midi": 84,
          "name": "C6",
          "ticks": 177216,
          "time": 125.8635105,
          "velocity": 0.30708661417322836
        },
        {
          "duration": 0.0852271874999957,
          "durationTicks": 120,
          "midi": 76,
          "name": "E5",
          "ticks": 177216,
          "time": 125.8635105,
          "velocity": 0.30708661417322836
        },
        {
          "duration": 0.0852271875000099,
          "durationTicks": 120,
          "midi": 64,
          "name": "E4",
          "ticks": 177240,
          "time": 125.88055593749999,
          "velocity": 0.30708661417322836
        },
        {
          "duration": 0.0852271875000099,
          "durationTicks": 120,
          "midi": 72,
          "name": "C5",
          "ticks": 177240,
          "time": 125.88055593749999,
          "velocity": 0.30708661417322836
        },
        {
          "duration": 0.0852271875000099,
          "durationTicks": 120,
          "midi": 81,
          "name": "A5",
          "ticks": 177240,
          "time": 125.88055593749999,
          "velocity": 0.30708661417322836
        },
        {
          "duration": 0.0852271875000099,
          "durationTicks": 120,
          "midi": 52,
          "name": "E3",
          "ticks": 177240,
          "time": 125.88055593749999,
          "velocity": 0.30708661417322836
        },
        {
          "duration": 0.0852271875000099,
          "durationTicks": 120,
          "midi": 40,
          "name": "E2",
          "ticks": 177240,
          "time": 125.88055593749999,
          "velocity": 0.30708661417322836
        },
        {
          "duration": 0.0852271875000099,
          "durationTicks": 120,
          "midi": 88,
          "name": "E6",
          "ticks": 177240,
          "time": 125.88055593749999,
          "velocity": 0.30708661417322836
        },
        {
          "duration": 0.0852271875000099,
          "durationTicks": 120,
          "midi": 76,
          "name": "E5",
          "ticks": 177240,
          "time": 125.88055593749999,
          "velocity": 0.30708661417322836
        },
        {
          "duration": 0.0852271875000099,
          "durationTicks": 120,
          "midi": 69,
          "name": "A4",
          "ticks": 177240,
          "time": 125.88055593749999,
          "velocity": 0.30708661417322836
        },
        {
          "duration": 0.0852271875000099,
          "durationTicks": 120,
          "midi": 84,
          "name": "C6",
          "ticks": 177240,
          "time": 125.88055593749999,
          "velocity": 0.30708661417322836
        },
        {
          "duration": 0.0852271875000099,
          "durationTicks": 120,
          "midi": 93,
          "name": "A6",
          "ticks": 177456,
          "time": 126.033964875,
          "velocity": 0.30708661417322836
        },
        {
          "duration": 0.0852271875000099,
          "durationTicks": 120,
          "midi": 81,
          "name": "A5",
          "ticks": 177456,
          "time": 126.033964875,
          "velocity": 0.30708661417322836
        },
        {
          "duration": 0.0852271875000099,
          "durationTicks": 120,
          "midi": 93,
          "name": "A6",
          "ticks": 177456,
          "time": 126.033964875,
          "velocity": 0.30708661417322836
        },
        {
          "duration": 0.0852271875000099,
          "durationTicks": 120,
          "midi": 69,
          "name": "A4",
          "ticks": 177456,
          "time": 126.033964875,
          "velocity": 0.30708661417322836
        },
        {
          "duration": 0.0852271875000099,
          "durationTicks": 120,
          "midi": 88,
          "name": "E6",
          "ticks": 177456,
          "time": 126.033964875,
          "velocity": 0.30708661417322836
        },
        {
          "duration": 0.0852271875000099,
          "durationTicks": 120,
          "midi": 84,
          "name": "C6",
          "ticks": 177456,
          "time": 126.033964875,
          "velocity": 0.30708661417322836
        },
        {
          "duration": 0.0852271875000099,
          "durationTicks": 120,
          "midi": 81,
          "name": "A5",
          "ticks": 177456,
          "time": 126.033964875,
          "velocity": 0.30708661417322836
        },
        {
          "duration": 0.0852271875000099,
          "durationTicks": 120,
          "midi": 72,
          "name": "C5",
          "ticks": 177456,
          "time": 126.033964875,
          "velocity": 0.30708661417322836
        },
        {
          "duration": 0.0852271875000099,
          "durationTicks": 120,
          "midi": 88,
          "name": "E6",
          "ticks": 177456,
          "time": 126.033964875,
          "velocity": 0.30708661417322836
        },
        {
          "duration": 0.0852271875000099,
          "durationTicks": 120,
          "midi": 45,
          "name": "A2",
          "ticks": 177456,
          "time": 126.033964875,
          "velocity": 0.30708661417322836
        },
        {
          "duration": 0.0852271875000099,
          "durationTicks": 120,
          "midi": 84,
          "name": "C6",
          "ticks": 177456,
          "time": 126.033964875,
          "velocity": 0.30708661417322836
        },
        {
          "duration": 0.0852271875000099,
          "durationTicks": 120,
          "midi": 45,
          "name": "A2",
          "ticks": 177456,
          "time": 126.033964875,
          "velocity": 0.30708661417322836
        },
        {
          "duration": 0.0852271875000099,
          "durationTicks": 120,
          "midi": 72,
          "name": "C5",
          "ticks": 177456,
          "time": 126.033964875,
          "velocity": 0.30708661417322836
        },
        {
          "duration": 0.0852271875000099,
          "durationTicks": 120,
          "midi": 57,
          "name": "A3",
          "ticks": 177456,
          "time": 126.033964875,
          "velocity": 0.30708661417322836
        },
        {
          "duration": 0.0852271875000099,
          "durationTicks": 120,
          "midi": 69,
          "name": "A4",
          "ticks": 177456,
          "time": 126.033964875,
          "velocity": 0.30708661417322836
        },
        {
          "duration": 0.0852271875000099,
          "durationTicks": 120,
          "midi": 57,
          "name": "A3",
          "ticks": 177456,
          "time": 126.033964875,
          "velocity": 0.30708661417322836
        },
        {
          "duration": 0.0852271874999957,
          "durationTicks": 120,
          "midi": 76,
          "name": "E5",
          "ticks": 177480,
          "time": 126.0510103125,
          "velocity": 0.30708661417322836
        },
        {
          "duration": 0.0852271874999957,
          "durationTicks": 120,
          "midi": 72,
          "name": "C5",
          "ticks": 177480,
          "time": 126.0510103125,
          "velocity": 0.30708661417322836
        },
        {
          "duration": 0.0852271874999957,
          "durationTicks": 120,
          "midi": 81,
          "name": "A5",
          "ticks": 177480,
          "time": 126.0510103125,
          "velocity": 0.30708661417322836
        },
        {
          "duration": 0.0852271874999957,
          "durationTicks": 120,
          "midi": 88,
          "name": "E6",
          "ticks": 177480,
          "time": 126.0510103125,
          "velocity": 0.30708661417322836
        },
        {
          "duration": 0.0852271874999957,
          "durationTicks": 120,
          "midi": 76,
          "name": "E5",
          "ticks": 177480,
          "time": 126.0510103125,
          "velocity": 0.30708661417322836
        },
        {
          "duration": 0.0852271874999957,
          "durationTicks": 120,
          "midi": 93,
          "name": "A6",
          "ticks": 177480,
          "time": 126.0510103125,
          "velocity": 0.30708661417322836
        },
        {
          "duration": 0.0852271874999957,
          "durationTicks": 120,
          "midi": 84,
          "name": "C6",
          "ticks": 177480,
          "time": 126.0510103125,
          "velocity": 0.30708661417322836
        },
        {
          "duration": 0.0852271874999957,
          "durationTicks": 120,
          "midi": 57,
          "name": "A3",
          "ticks": 177480,
          "time": 126.0510103125,
          "velocity": 0.30708661417322836
        },
        {
          "duration": 0.0852271874999957,
          "durationTicks": 120,
          "midi": 45,
          "name": "A2",
          "ticks": 177480,
          "time": 126.0510103125,
          "velocity": 0.30708661417322836
        },
        {
          "duration": 0.0852271874999957,
          "durationTicks": 120,
          "midi": 69,
          "name": "A4",
          "ticks": 177480,
          "time": 126.0510103125,
          "velocity": 0.30708661417322836
        },
        {
          "duration": 0.0852271874999957,
          "durationTicks": 120,
          "midi": 76,
          "name": "E5",
          "ticks": 177504,
          "time": 126.06805575,
          "velocity": 0.30708661417322836
        },
        {
          "duration": 0.0852271874999957,
          "durationTicks": 120,
          "midi": 84,
          "name": "C6",
          "ticks": 177696,
          "time": 126.20441925,
          "velocity": 0.30708661417322836
        },
        {
          "duration": 0.0852271874999957,
          "durationTicks": 120,
          "midi": 81,
          "name": "A5",
          "ticks": 177696,
          "time": 126.20441925,
          "velocity": 0.30708661417322836
        },
        {
          "duration": 0.0852271874999957,
          "durationTicks": 120,
          "midi": 72,
          "name": "C5",
          "ticks": 177696,
          "time": 126.20441925,
          "velocity": 0.30708661417322836
        },
        {
          "duration": 0.0852271874999957,
          "durationTicks": 120,
          "midi": 76,
          "name": "E5",
          "ticks": 177696,
          "time": 126.20441925,
          "velocity": 0.30708661417322836
        },
        {
          "duration": 0.0852271874999957,
          "durationTicks": 120,
          "midi": 88,
          "name": "E6",
          "ticks": 177696,
          "time": 126.20441925,
          "velocity": 0.30708661417322836
        },
        {
          "duration": 0.0852271874999957,
          "durationTicks": 120,
          "midi": 84,
          "name": "C6",
          "ticks": 177696,
          "time": 126.20441925,
          "velocity": 0.30708661417322836
        },
        {
          "duration": 0.0852271874999957,
          "durationTicks": 120,
          "midi": 88,
          "name": "E6",
          "ticks": 177696,
          "time": 126.20441925,
          "velocity": 0.30708661417322836
        },
        {
          "duration": 0.0852271874999957,
          "durationTicks": 120,
          "midi": 69,
          "name": "A4",
          "ticks": 177696,
          "time": 126.20441925,
          "velocity": 0.30708661417322836
        },
        {
          "duration": 0.0852271874999957,
          "durationTicks": 120,
          "midi": 81,
          "name": "A5",
          "ticks": 177696,
          "time": 126.20441925,
          "velocity": 0.30708661417322836
        },
        {
          "duration": 0.0852271874999957,
          "durationTicks": 120,
          "midi": 64,
          "name": "E4",
          "ticks": 177696,
          "time": 126.20441925,
          "velocity": 0.30708661417322836
        },
        {
          "duration": 0.0852271874999957,
          "durationTicks": 120,
          "midi": 64,
          "name": "E4",
          "ticks": 177696,
          "time": 126.20441925,
          "velocity": 0.30708661417322836
        },
        {
          "duration": 0.0852271874999957,
          "durationTicks": 120,
          "midi": 72,
          "name": "C5",
          "ticks": 177696,
          "time": 126.20441925,
          "velocity": 0.30708661417322836
        },
        {
          "duration": 0.0852271874999957,
          "durationTicks": 120,
          "midi": 76,
          "name": "E5",
          "ticks": 177696,
          "time": 126.20441925,
          "velocity": 0.30708661417322836
        },
        {
          "duration": 0.0852271874999957,
          "durationTicks": 120,
          "midi": 69,
          "name": "A4",
          "ticks": 177696,
          "time": 126.20441925,
          "velocity": 0.30708661417322836
        },
        {
          "duration": 0.0852271874999957,
          "durationTicks": 120,
          "midi": 69,
          "name": "A4",
          "ticks": 177720,
          "time": 126.2214646875,
          "velocity": 0.30708661417322836
        },
        {
          "duration": 0.0852271874999957,
          "durationTicks": 120,
          "midi": 76,
          "name": "E5",
          "ticks": 177720,
          "time": 126.2214646875,
          "velocity": 0.30708661417322836
        },
        {
          "duration": 0.0852271874999957,
          "durationTicks": 120,
          "midi": 64,
          "name": "E4",
          "ticks": 177720,
          "time": 126.2214646875,
          "velocity": 0.30708661417322836
        },
        {
          "duration": 0.0852271874999957,
          "durationTicks": 120,
          "midi": 88,
          "name": "E6",
          "ticks": 177720,
          "time": 126.2214646875,
          "velocity": 0.30708661417322836
        },
        {
          "duration": 0.0852271874999957,
          "durationTicks": 120,
          "midi": 84,
          "name": "C6",
          "ticks": 177720,
          "time": 126.2214646875,
          "velocity": 0.30708661417322836
        },
        {
          "duration": 0.0852271874999957,
          "durationTicks": 120,
          "midi": 81,
          "name": "A5",
          "ticks": 177720,
          "time": 126.2214646875,
          "velocity": 0.30708661417322836
        },
        {
          "duration": 0.0852271874999957,
          "durationTicks": 120,
          "midi": 72,
          "name": "C5",
          "ticks": 177720,
          "time": 126.2214646875,
          "velocity": 0.30708661417322836
        },
        {
          "duration": 0.0852271875000099,
          "durationTicks": 120,
          "midi": 33,
          "name": "A1",
          "ticks": 177936,
          "time": 126.37487362499999,
          "velocity": 0.30708661417322836
        },
        {
          "duration": 0.0852271875000099,
          "durationTicks": 120,
          "midi": 76,
          "name": "E5",
          "ticks": 177936,
          "time": 126.37487362499999,
          "velocity": 0.30708661417322836
        },
        {
          "duration": 0.0852271875000099,
          "durationTicks": 120,
          "midi": 69,
          "name": "A4",
          "ticks": 177936,
          "time": 126.37487362499999,
          "velocity": 0.30708661417322836
        },
        {
          "duration": 0.0852271875000099,
          "durationTicks": 120,
          "midi": 64,
          "name": "E4",
          "ticks": 177936,
          "time": 126.37487362499999,
          "velocity": 0.30708661417322836
        },
        {
          "duration": 0.0852271875000099,
          "durationTicks": 120,
          "midi": 72,
          "name": "C5",
          "ticks": 177936,
          "time": 126.37487362499999,
          "velocity": 0.30708661417322836
        },
        {
          "duration": 0.0852271875000099,
          "durationTicks": 120,
          "midi": 64,
          "name": "E4",
          "ticks": 177936,
          "time": 126.37487362499999,
          "velocity": 0.30708661417322836
        },
        {
          "duration": 0.0852271875000099,
          "durationTicks": 120,
          "midi": 81,
          "name": "A5",
          "ticks": 177936,
          "time": 126.37487362499999,
          "velocity": 0.30708661417322836
        },
        {
          "duration": 0.0852271875000099,
          "durationTicks": 120,
          "midi": 45,
          "name": "A2",
          "ticks": 177936,
          "time": 126.37487362499999,
          "velocity": 0.30708661417322836
        },
        {
          "duration": 0.0852271875000099,
          "durationTicks": 120,
          "midi": 33,
          "name": "A1",
          "ticks": 177936,
          "time": 126.37487362499999,
          "velocity": 0.30708661417322836
        },
        {
          "duration": 0.0852271875000099,
          "durationTicks": 120,
          "midi": 60,
          "name": "C4",
          "ticks": 177936,
          "time": 126.37487362499999,
          "velocity": 0.30708661417322836
        },
        {
          "duration": 0.0852271875000099,
          "durationTicks": 120,
          "midi": 45,
          "name": "A2",
          "ticks": 177936,
          "time": 126.37487362499999,
          "velocity": 0.30708661417322836
        },
        {
          "duration": 0.0852271875000099,
          "durationTicks": 120,
          "midi": 84,
          "name": "C6",
          "ticks": 177936,
          "time": 126.37487362499999,
          "velocity": 0.30708661417322836
        },
        {
          "duration": 0.0852271875000099,
          "durationTicks": 120,
          "midi": 76,
          "name": "E5",
          "ticks": 177936,
          "time": 126.37487362499999,
          "velocity": 0.30708661417322836
        },
        {
          "duration": 0.0852271875000099,
          "durationTicks": 120,
          "midi": 60,
          "name": "C4",
          "ticks": 177936,
          "time": 126.37487362499999,
          "velocity": 0.30708661417322836
        },
        {
          "duration": 0.0852271875000099,
          "durationTicks": 120,
          "midi": 84,
          "name": "C6",
          "ticks": 177936,
          "time": 126.37487362499999,
          "velocity": 0.30708661417322836
        },
        {
          "duration": 0.0852271875000099,
          "durationTicks": 120,
          "midi": 72,
          "name": "C5",
          "ticks": 177936,
          "time": 126.37487362499999,
          "velocity": 0.30708661417322836
        },
        {
          "duration": 0.0852271875000099,
          "durationTicks": 120,
          "midi": 69,
          "name": "A4",
          "ticks": 177936,
          "time": 126.37487362499999,
          "velocity": 0.30708661417322836
        },
        {
          "duration": 0.0852271875000099,
          "durationTicks": 120,
          "midi": 81,
          "name": "A5",
          "ticks": 177936,
          "time": 126.37487362499999,
          "velocity": 0.30708661417322836
        },
        {
          "duration": 0.0852271875000099,
          "durationTicks": 120,
          "midi": 64,
          "name": "E4",
          "ticks": 177960,
          "time": 126.3919190625,
          "velocity": 0.30708661417322836
        },
        {
          "duration": 0.0852271875000099,
          "durationTicks": 120,
          "midi": 72,
          "name": "C5",
          "ticks": 177960,
          "time": 126.3919190625,
          "velocity": 0.30708661417322836
        },
        {
          "duration": 0.0852271875000099,
          "durationTicks": 120,
          "midi": 69,
          "name": "A4",
          "ticks": 177960,
          "time": 126.3919190625,
          "velocity": 0.30708661417322836
        },
        {
          "duration": 0.0852271875000099,
          "durationTicks": 120,
          "midi": 33,
          "name": "A1",
          "ticks": 177960,
          "time": 126.3919190625,
          "velocity": 0.30708661417322836
        },
        {
          "duration": 0.0852271875000099,
          "durationTicks": 120,
          "midi": 76,
          "name": "E5",
          "ticks": 177960,
          "time": 126.3919190625,
          "velocity": 0.30708661417322836
        },
        {
          "duration": 0.0852271875000099,
          "durationTicks": 120,
          "midi": 60,
          "name": "C4",
          "ticks": 177960,
          "time": 126.3919190625,
          "velocity": 0.30708661417322836
        },
        {
          "duration": 0.0852271875000099,
          "durationTicks": 120,
          "midi": 45,
          "name": "A2",
          "ticks": 177960,
          "time": 126.3919190625,
          "velocity": 0.30708661417322836
        },
        {
          "duration": 0.0852271875000099,
          "durationTicks": 120,
          "midi": 84,
          "name": "C6",
          "ticks": 177960,
          "time": 126.3919190625,
          "velocity": 0.30708661417322836
        },
        {
          "duration": 0.0852271875000099,
          "durationTicks": 120,
          "midi": 81,
          "name": "A5",
          "ticks": 177960,
          "time": 126.3919190625,
          "velocity": 0.30708661417322836
        },
        {
          "duration": 0.0852271874999957,
          "durationTicks": 120,
          "midi": 69,
          "name": "A4",
          "ticks": 178176,
          "time": 126.545328,
          "velocity": 0.30708661417322836
        },
        {
          "duration": 0.0852271874999957,
          "durationTicks": 120,
          "midi": 64,
          "name": "E4",
          "ticks": 178176,
          "time": 126.545328,
          "velocity": 0.30708661417322836
        },
        {
          "duration": 0.0852271874999957,
          "durationTicks": 120,
          "midi": 60,
          "name": "C4",
          "ticks": 178176,
          "time": 126.545328,
          "velocity": 0.30708661417322836
        },
        {
          "duration": 0.0852271874999957,
          "durationTicks": 120,
          "midi": 72,
          "name": "C5",
          "ticks": 178176,
          "time": 126.545328,
          "velocity": 0.30708661417322836
        },
        {
          "duration": 0.0852271874999957,
          "durationTicks": 120,
          "midi": 60,
          "name": "C4",
          "ticks": 178176,
          "time": 126.545328,
          "velocity": 0.30708661417322836
        },
        {
          "duration": 0.0852271874999957,
          "durationTicks": 120,
          "midi": 57,
          "name": "A3",
          "ticks": 178176,
          "time": 126.545328,
          "velocity": 0.30708661417322836
        },
        {
          "duration": 0.0852271874999957,
          "durationTicks": 120,
          "midi": 81,
          "name": "A5",
          "ticks": 178176,
          "time": 126.545328,
          "velocity": 0.30708661417322836
        },
        {
          "duration": 0.0852271874999957,
          "durationTicks": 120,
          "midi": 69,
          "name": "A4",
          "ticks": 178176,
          "time": 126.545328,
          "velocity": 0.30708661417322836
        },
        {
          "duration": 0.0852271874999957,
          "durationTicks": 120,
          "midi": 64,
          "name": "E4",
          "ticks": 178176,
          "time": 126.545328,
          "velocity": 0.30708661417322836
        },
        {
          "duration": 0.0852271874999957,
          "durationTicks": 120,
          "midi": 76,
          "name": "E5",
          "ticks": 178176,
          "time": 126.545328,
          "velocity": 0.30708661417322836
        },
        {
          "duration": 0.0852271874999957,
          "durationTicks": 120,
          "midi": 76,
          "name": "E5",
          "ticks": 178176,
          "time": 126.545328,
          "velocity": 0.30708661417322836
        },
        {
          "duration": 0.0852271874999957,
          "durationTicks": 120,
          "midi": 57,
          "name": "A3",
          "ticks": 178176,
          "time": 126.545328,
          "velocity": 0.30708661417322836
        },
        {
          "duration": 0.0852271874999957,
          "durationTicks": 120,
          "midi": 81,
          "name": "A5",
          "ticks": 178176,
          "time": 126.545328,
          "velocity": 0.30708661417322836
        },
        {
          "duration": 0.0852271874999957,
          "durationTicks": 120,
          "midi": 72,
          "name": "C5",
          "ticks": 178176,
          "time": 126.545328,
          "velocity": 0.30708661417322836
        },
        {
          "duration": 0.0852271874999957,
          "durationTicks": 120,
          "midi": 76,
          "name": "E5",
          "ticks": 178200,
          "time": 126.5623734375,
          "velocity": 0.30708661417322836
        },
        {
          "duration": 0.0852271874999957,
          "durationTicks": 120,
          "midi": 60,
          "name": "C4",
          "ticks": 178200,
          "time": 126.5623734375,
          "velocity": 0.30708661417322836
        },
        {
          "duration": 0.0852271874999957,
          "durationTicks": 120,
          "midi": 81,
          "name": "A5",
          "ticks": 178200,
          "time": 126.5623734375,
          "velocity": 0.30708661417322836
        },
        {
          "duration": 0.0852271874999957,
          "durationTicks": 120,
          "midi": 69,
          "name": "A4",
          "ticks": 178200,
          "time": 126.5623734375,
          "velocity": 0.30708661417322836
        },
        {
          "duration": 0.0852271874999957,
          "durationTicks": 120,
          "midi": 57,
          "name": "A3",
          "ticks": 178200,
          "time": 126.5623734375,
          "velocity": 0.30708661417322836
        },
        {
          "duration": 0.0852271874999957,
          "durationTicks": 120,
          "midi": 72,
          "name": "C5",
          "ticks": 178200,
          "time": 126.5623734375,
          "velocity": 0.30708661417322836
        },
        {
          "duration": 0.0852271874999957,
          "durationTicks": 120,
          "midi": 64,
          "name": "E4",
          "ticks": 178200,
          "time": 126.5623734375,
          "velocity": 0.30708661417322836
        },
        {
          "duration": 0.0852271874999957,
          "durationTicks": 120,
          "midi": 47,
          "name": "B2",
          "ticks": 178272,
          "time": 126.61350975,
          "velocity": 0.30708661417322836
        },
        {
          "duration": 0.0852271874999957,
          "durationTicks": 120,
          "midi": 35,
          "name": "B1",
          "ticks": 178272,
          "time": 126.61350975,
          "velocity": 0.30708661417322836
        },
        {
          "duration": 0.0852271874999957,
          "durationTicks": 120,
          "midi": 47,
          "name": "B2",
          "ticks": 178272,
          "time": 126.61350975,
          "velocity": 0.30708661417322836
        },
        {
          "duration": 0.0852271874999957,
          "durationTicks": 120,
          "midi": 35,
          "name": "B1",
          "ticks": 178272,
          "time": 126.61350975,
          "velocity": 0.30708661417322836
        },
        {
          "duration": 0.0852271875000099,
          "durationTicks": 120,
          "midi": 47,
          "name": "B2",
          "ticks": 178296,
          "time": 126.6305551875,
          "velocity": 0.30708661417322836
        },
        {
          "duration": 0.0852271875000099,
          "durationTicks": 120,
          "midi": 35,
          "name": "B1",
          "ticks": 178296,
          "time": 126.6305551875,
          "velocity": 0.30708661417322836
        },
        {
          "duration": 0.0852271874999957,
          "durationTicks": 120,
          "midi": 49,
          "name": "C#3",
          "ticks": 178368,
          "time": 126.6816915,
          "velocity": 0.30708661417322836
        },
        {
          "duration": 0.0852271874999957,
          "durationTicks": 120,
          "midi": 37,
          "name": "C#2",
          "ticks": 178368,
          "time": 126.6816915,
          "velocity": 0.30708661417322836
        },
        {
          "duration": 0.0852271874999957,
          "durationTicks": 120,
          "midi": 37,
          "name": "C#2",
          "ticks": 178368,
          "time": 126.6816915,
          "velocity": 0.30708661417322836
        },
        {
          "duration": 0.0852271874999957,
          "durationTicks": 120,
          "midi": 49,
          "name": "C#3",
          "ticks": 178368,
          "time": 126.6816915,
          "velocity": 0.30708661417322836
        },
        {
          "duration": 0.0852271874999957,
          "durationTicks": 120,
          "midi": 49,
          "name": "C#3",
          "ticks": 178392,
          "time": 126.6987369375,
          "velocity": 0.30708661417322836
        },
        {
          "duration": 0.0852271874999957,
          "durationTicks": 120,
          "midi": 37,
          "name": "C#2",
          "ticks": 178392,
          "time": 126.6987369375,
          "velocity": 0.30708661417322836
        },
        {
          "duration": 0.0852271874999957,
          "durationTicks": 120,
          "midi": 89,
          "name": "F6",
          "ticks": 178416,
          "time": 126.715782375,
          "velocity": 0.30708661417322836
        },
        {
          "duration": 0.0852271874999957,
          "durationTicks": 120,
          "midi": 93,
          "name": "A6",
          "ticks": 178416,
          "time": 126.715782375,
          "velocity": 0.30708661417322836
        },
        {
          "duration": 0.0852271874999957,
          "durationTicks": 120,
          "midi": 86,
          "name": "D6",
          "ticks": 178416,
          "time": 126.715782375,
          "velocity": 0.30708661417322836
        },
        {
          "duration": 0.0852271874999957,
          "durationTicks": 120,
          "midi": 50,
          "name": "D3",
          "ticks": 178416,
          "time": 126.715782375,
          "velocity": 0.30708661417322836
        },
        {
          "duration": 0.0852271874999957,
          "durationTicks": 120,
          "midi": 50,
          "name": "D3",
          "ticks": 178416,
          "time": 126.715782375,
          "velocity": 0.30708661417322836
        },
        {
          "duration": 0.0852271874999957,
          "durationTicks": 120,
          "midi": 89,
          "name": "F6",
          "ticks": 178416,
          "time": 126.715782375,
          "velocity": 0.30708661417322836
        },
        {
          "duration": 0.0852271874999957,
          "durationTicks": 120,
          "midi": 93,
          "name": "A6",
          "ticks": 178416,
          "time": 126.715782375,
          "velocity": 0.30708661417322836
        },
        {
          "duration": 0.0852271874999957,
          "durationTicks": 120,
          "midi": 77,
          "name": "F5",
          "ticks": 178416,
          "time": 126.715782375,
          "velocity": 0.30708661417322836
        },
        {
          "duration": 0.0852271874999957,
          "durationTicks": 120,
          "midi": 74,
          "name": "D5",
          "ticks": 178416,
          "time": 126.715782375,
          "velocity": 0.30708661417322836
        },
        {
          "duration": 0.0852271874999957,
          "durationTicks": 120,
          "midi": 77,
          "name": "F5",
          "ticks": 178416,
          "time": 126.715782375,
          "velocity": 0.30708661417322836
        },
        {
          "duration": 0.0852271874999957,
          "durationTicks": 120,
          "midi": 81,
          "name": "A5",
          "ticks": 178416,
          "time": 126.715782375,
          "velocity": 0.30708661417322836
        },
        {
          "duration": 0.0852271874999957,
          "durationTicks": 120,
          "midi": 86,
          "name": "D6",
          "ticks": 178416,
          "time": 126.715782375,
          "velocity": 0.30708661417322836
        },
        {
          "duration": 0.0852271874999957,
          "durationTicks": 120,
          "midi": 81,
          "name": "A5",
          "ticks": 178416,
          "time": 126.715782375,
          "velocity": 0.30708661417322836
        },
        {
          "duration": 0.0852271874999957,
          "durationTicks": 120,
          "midi": 74,
          "name": "D5",
          "ticks": 178416,
          "time": 126.715782375,
          "velocity": 0.30708661417322836
        },
        {
          "duration": 0.0852271874999957,
          "durationTicks": 120,
          "midi": 81,
          "name": "A5",
          "ticks": 178440,
          "time": 126.7328278125,
          "velocity": 0.30708661417322836
        },
        {
          "duration": 0.0852271874999957,
          "durationTicks": 120,
          "midi": 50,
          "name": "D3",
          "ticks": 178440,
          "time": 126.7328278125,
          "velocity": 0.30708661417322836
        },
        {
          "duration": 0.0852271874999957,
          "durationTicks": 120,
          "midi": 86,
          "name": "D6",
          "ticks": 178440,
          "time": 126.7328278125,
          "velocity": 0.30708661417322836
        },
        {
          "duration": 0.0852271874999957,
          "durationTicks": 120,
          "midi": 77,
          "name": "F5",
          "ticks": 178440,
          "time": 126.7328278125,
          "velocity": 0.30708661417322836
        },
        {
          "duration": 0.0852271874999957,
          "durationTicks": 120,
          "midi": 89,
          "name": "F6",
          "ticks": 178440,
          "time": 126.7328278125,
          "velocity": 0.30708661417322836
        },
        {
          "duration": 0.0852271874999957,
          "durationTicks": 120,
          "midi": 74,
          "name": "D5",
          "ticks": 178440,
          "time": 126.7328278125,
          "velocity": 0.30708661417322836
        },
        {
          "duration": 0.0852271874999957,
          "durationTicks": 120,
          "midi": 93,
          "name": "A6",
          "ticks": 178440,
          "time": 126.7328278125,
          "velocity": 0.30708661417322836
        },
        {
          "duration": 0.0852271875000099,
          "durationTicks": 120,
          "midi": 53,
          "name": "F3",
          "ticks": 178656,
          "time": 126.88623675,
          "velocity": 0.30708661417322836
        },
        {
          "duration": 0.0852271875000099,
          "durationTicks": 120,
          "midi": 57,
          "name": "A3",
          "ticks": 178656,
          "time": 126.88623675,
          "velocity": 0.30708661417322836
        },
        {
          "duration": 0.0852271875000099,
          "durationTicks": 120,
          "midi": 57,
          "name": "A3",
          "ticks": 178656,
          "time": 126.88623675,
          "velocity": 0.30708661417322836
        },
        {
          "duration": 0.0852271875000099,
          "durationTicks": 120,
          "midi": 53,
          "name": "F3",
          "ticks": 178656,
          "time": 126.88623675,
          "velocity": 0.30708661417322836
        },
        {
          "duration": 0.0852271874999957,
          "durationTicks": 120,
          "midi": 57,
          "name": "A3",
          "ticks": 178680,
          "time": 126.9032821875,
          "velocity": 0.30708661417322836
        },
        {
          "duration": 0.0852271874999957,
          "durationTicks": 120,
          "midi": 53,
          "name": "F3",
          "ticks": 178680,
          "time": 126.9032821875,
          "velocity": 0.30708661417322836
        },
        {
          "duration": 0.0852271874999957,
          "durationTicks": 120,
          "midi": 73,
          "name": "C#5",
          "ticks": 178776,
          "time": 126.9714639375,
          "velocity": 0.30708661417322836
        },
        {
          "duration": 0.0852271874999957,
          "durationTicks": 120,
          "midi": 77,
          "name": "F5",
          "ticks": 178776,
          "time": 126.9714639375,
          "velocity": 0.30708661417322836
        },
        {
          "duration": 0.0852271874999957,
          "durationTicks": 120,
          "midi": 77,
          "name": "F5",
          "ticks": 178776,
          "time": 126.9714639375,
          "velocity": 0.30708661417322836
        },
        {
          "duration": 0.0852271874999957,
          "durationTicks": 120,
          "midi": 92,
          "name": "G#6",
          "ticks": 178776,
          "time": 126.9714639375,
          "velocity": 0.30708661417322836
        },
        {
          "duration": 0.0852271874999957,
          "durationTicks": 120,
          "midi": 81,
          "name": "A5",
          "ticks": 178776,
          "time": 126.9714639375,
          "velocity": 0.30708661417322836
        },
        {
          "duration": 0.0852271874999957,
          "durationTicks": 120,
          "midi": 85,
          "name": "C#6",
          "ticks": 178776,
          "time": 126.9714639375,
          "velocity": 0.30708661417322836
        },
        {
          "duration": 0.0852271874999957,
          "durationTicks": 120,
          "midi": 73,
          "name": "C#5",
          "ticks": 178776,
          "time": 126.9714639375,
          "velocity": 0.30708661417322836
        },
        {
          "duration": 0.0852271874999957,
          "durationTicks": 120,
          "midi": 81,
          "name": "A5",
          "ticks": 178776,
          "time": 126.9714639375,
          "velocity": 0.30708661417322836
        },
        {
          "duration": 0.0852271874999957,
          "durationTicks": 120,
          "midi": 85,
          "name": "C#6",
          "ticks": 178776,
          "time": 126.9714639375,
          "velocity": 0.30708661417322836
        },
        {
          "duration": 0.0852271874999957,
          "durationTicks": 120,
          "midi": 92,
          "name": "G#6",
          "ticks": 178776,
          "time": 126.9714639375,
          "velocity": 0.30708661417322836
        },
        {
          "duration": 0.0852271874999957,
          "durationTicks": 120,
          "midi": 89,
          "name": "F6",
          "ticks": 178776,
          "time": 126.9714639375,
          "velocity": 0.30708661417322836
        },
        {
          "duration": 0.0852271874999957,
          "durationTicks": 120,
          "midi": 89,
          "name": "F6",
          "ticks": 178776,
          "time": 126.9714639375,
          "velocity": 0.30708661417322836
        },
        {
          "duration": 0.0852271875000099,
          "durationTicks": 120,
          "midi": 89,
          "name": "F6",
          "ticks": 178800,
          "time": 126.98850937499999,
          "velocity": 0.30708661417322836
        },
        {
          "duration": 0.0852271875000099,
          "durationTicks": 120,
          "midi": 85,
          "name": "C#6",
          "ticks": 178800,
          "time": 126.98850937499999,
          "velocity": 0.30708661417322836
        },
        {
          "duration": 0.0852271875000099,
          "durationTicks": 120,
          "midi": 81,
          "name": "A5",
          "ticks": 178800,
          "time": 126.98850937499999,
          "velocity": 0.30708661417322836
        },
        {
          "duration": 0.0852271875000099,
          "durationTicks": 120,
          "midi": 77,
          "name": "F5",
          "ticks": 178800,
          "time": 126.98850937499999,
          "velocity": 0.30708661417322836
        },
        {
          "duration": 0.0852271875000099,
          "durationTicks": 120,
          "midi": 92,
          "name": "G#6",
          "ticks": 178800,
          "time": 126.98850937499999,
          "velocity": 0.30708661417322836
        },
        {
          "duration": 0.0852271875000099,
          "durationTicks": 120,
          "midi": 73,
          "name": "C#5",
          "ticks": 178800,
          "time": 126.98850937499999,
          "velocity": 0.30708661417322836
        },
        {
          "duration": 0.0852271874999957,
          "durationTicks": 120,
          "midi": 86,
          "name": "D6",
          "ticks": 178896,
          "time": 127.056691125,
          "velocity": 0.30708661417322836
        },
        {
          "duration": 0.0852271874999957,
          "durationTicks": 120,
          "midi": 45,
          "name": "A2",
          "ticks": 178896,
          "time": 127.056691125,
          "velocity": 0.30708661417322836
        },
        {
          "duration": 0.0852271874999957,
          "durationTicks": 120,
          "midi": 74,
          "name": "D5",
          "ticks": 178896,
          "time": 127.056691125,
          "velocity": 0.30708661417322836
        },
        {
          "duration": 0.0852271874999957,
          "durationTicks": 120,
          "midi": 81,
          "name": "A5",
          "ticks": 178896,
          "time": 127.056691125,
          "velocity": 0.30708661417322836
        },
        {
          "duration": 0.0852271874999957,
          "durationTicks": 120,
          "midi": 81,
          "name": "A5",
          "ticks": 178896,
          "time": 127.056691125,
          "velocity": 0.30708661417322836
        },
        {
          "duration": 0.0852271874999957,
          "durationTicks": 120,
          "midi": 93,
          "name": "A6",
          "ticks": 178896,
          "time": 127.056691125,
          "velocity": 0.30708661417322836
        },
        {
          "duration": 0.0852271874999957,
          "durationTicks": 120,
          "midi": 77,
          "name": "F5",
          "ticks": 178896,
          "time": 127.056691125,
          "velocity": 0.30708661417322836
        },
        {
          "duration": 0.0852271874999957,
          "durationTicks": 120,
          "midi": 45,
          "name": "A2",
          "ticks": 178896,
          "time": 127.056691125,
          "velocity": 0.30708661417322836
        },
        {
          "duration": 0.0852271874999957,
          "durationTicks": 120,
          "midi": 86,
          "name": "D6",
          "ticks": 178896,
          "time": 127.056691125,
          "velocity": 0.30708661417322836
        },
        {
          "duration": 0.0852271874999957,
          "durationTicks": 120,
          "midi": 77,
          "name": "F5",
          "ticks": 178896,
          "time": 127.056691125,
          "velocity": 0.30708661417322836
        },
        {
          "duration": 0.0852271874999957,
          "durationTicks": 120,
          "midi": 74,
          "name": "D5",
          "ticks": 178896,
          "time": 127.056691125,
          "velocity": 0.30708661417322836
        },
        {
          "duration": 0.0852271874999957,
          "durationTicks": 120,
          "midi": 93,
          "name": "A6",
          "ticks": 178896,
          "time": 127.056691125,
          "velocity": 0.30708661417322836
        },
        {
          "duration": 0.0852271874999957,
          "durationTicks": 120,
          "midi": 86,
          "name": "D6",
          "ticks": 178920,
          "time": 127.0737365625,
          "velocity": 0.30708661417322836
        },
        {
          "duration": 0.0852271874999957,
          "durationTicks": 120,
          "midi": 77,
          "name": "F5",
          "ticks": 178920,
          "time": 127.0737365625,
          "velocity": 0.30708661417322836
        },
        {
          "duration": 0.0852271874999957,
          "durationTicks": 120,
          "midi": 74,
          "name": "D5",
          "ticks": 178920,
          "time": 127.0737365625,
          "velocity": 0.30708661417322836
        },
        {
          "duration": 0.0852271874999957,
          "durationTicks": 120,
          "midi": 93,
          "name": "A6",
          "ticks": 178920,
          "time": 127.0737365625,
          "velocity": 0.30708661417322836
        },
        {
          "duration": 0.0852271874999957,
          "durationTicks": 120,
          "midi": 81,
          "name": "A5",
          "ticks": 178920,
          "time": 127.0737365625,
          "velocity": 0.30708661417322836
        },
        {
          "duration": 0.0852271874999957,
          "durationTicks": 120,
          "midi": 45,
          "name": "A2",
          "ticks": 178920,
          "time": 127.0737365625,
          "velocity": 0.30708661417322836
        },
        {
          "duration": 0.0852271875000099,
          "durationTicks": 120,
          "midi": 53,
          "name": "F3",
          "ticks": 179136,
          "time": 127.22714549999999,
          "velocity": 0.30708661417322836
        },
        {
          "duration": 0.0852271875000099,
          "durationTicks": 120,
          "midi": 81,
          "name": "A5",
          "ticks": 179136,
          "time": 127.22714549999999,
          "velocity": 0.30708661417322836
        },
        {
          "duration": 0.0852271875000099,
          "durationTicks": 120,
          "midi": 86,
          "name": "D6",
          "ticks": 179136,
          "time": 127.22714549999999,
          "velocity": 0.30708661417322836
        },
        {
          "duration": 0.0852271875000099,
          "durationTicks": 120,
          "midi": 76,
          "name": "E5",
          "ticks": 179136,
          "time": 127.22714549999999,
          "velocity": 0.30708661417322836
        },
        {
          "duration": 0.0852271875000099,
          "durationTicks": 120,
          "midi": 93,
          "name": "A6",
          "ticks": 179136,
          "time": 127.22714549999999,
          "velocity": 0.30708661417322836
        },
        {
          "duration": 0.0852271875000099,
          "durationTicks": 120,
          "midi": 53,
          "name": "F3",
          "ticks": 179136,
          "time": 127.22714549999999,
          "velocity": 0.30708661417322836
        },
        {
          "duration": 0.0852271875000099,
          "durationTicks": 120,
          "midi": 76,
          "name": "E5",
          "ticks": 179136,
          "time": 127.22714549999999,
          "velocity": 0.30708661417322836
        },
        {
          "duration": 0.0852271875000099,
          "durationTicks": 120,
          "midi": 88,
          "name": "E6",
          "ticks": 179136,
          "time": 127.22714549999999,
          "velocity": 0.30708661417322836
        },
        {
          "duration": 0.0852271875000099,
          "durationTicks": 120,
          "midi": 89,
          "name": "F6",
          "ticks": 179136,
          "time": 127.22714549999999,
          "velocity": 0.30708661417322836
        },
        {
          "duration": 0.0852271875000099,
          "durationTicks": 120,
          "midi": 57,
          "name": "A3",
          "ticks": 179136,
          "time": 127.22714549999999,
          "velocity": 0.30708661417322836
        },
        {
          "duration": 0.0852271875000099,
          "durationTicks": 120,
          "midi": 89,
          "name": "F6",
          "ticks": 179136,
          "time": 127.22714549999999,
          "velocity": 0.30708661417322836
        },
        {
          "duration": 0.0852271875000099,
          "durationTicks": 120,
          "midi": 86,
          "name": "D6",
          "ticks": 179136,
          "time": 127.22714549999999,
          "velocity": 0.30708661417322836
        },
        {
          "duration": 0.0852271875000099,
          "durationTicks": 120,
          "midi": 93,
          "name": "A6",
          "ticks": 179136,
          "time": 127.22714549999999,
          "velocity": 0.30708661417322836
        },
        {
          "duration": 0.0852271875000099,
          "durationTicks": 120,
          "midi": 81,
          "name": "A5",
          "ticks": 179136,
          "time": 127.22714549999999,
          "velocity": 0.30708661417322836
        },
        {
          "duration": 0.0852271875000099,
          "durationTicks": 120,
          "midi": 88,
          "name": "E6",
          "ticks": 179136,
          "time": 127.22714549999999,
          "velocity": 0.30708661417322836
        },
        {
          "duration": 0.0852271875000099,
          "durationTicks": 120,
          "midi": 57,
          "name": "A3",
          "ticks": 179136,
          "time": 127.22714549999999,
          "velocity": 0.30708661417322836
        },
        {
          "duration": 0.0852271875000099,
          "durationTicks": 120,
          "midi": 57,
          "name": "A3",
          "ticks": 179160,
          "time": 127.2441909375,
          "velocity": 0.30708661417322836
        },
        {
          "duration": 0.0852271875000099,
          "durationTicks": 120,
          "midi": 81,
          "name": "A5",
          "ticks": 179160,
          "time": 127.2441909375,
          "velocity": 0.30708661417322836
        },
        {
          "duration": 0.0852271875000099,
          "durationTicks": 120,
          "midi": 76,
          "name": "E5",
          "ticks": 179160,
          "time": 127.2441909375,
          "velocity": 0.30708661417322836
        },
        {
          "duration": 0.0852271875000099,
          "durationTicks": 120,
          "midi": 89,
          "name": "F6",
          "ticks": 179160,
          "time": 127.2441909375,
          "velocity": 0.30708661417322836
        },
        {
          "duration": 0.0852271875000099,
          "durationTicks": 120,
          "midi": 93,
          "name": "A6",
          "ticks": 179160,
          "time": 127.2441909375,
          "velocity": 0.30708661417322836
        },
        {
          "duration": 0.0852271875000099,
          "durationTicks": 120,
          "midi": 88,
          "name": "E6",
          "ticks": 179160,
          "time": 127.2441909375,
          "velocity": 0.30708661417322836
        },
        {
          "duration": 0.0852271875000099,
          "durationTicks": 120,
          "midi": 86,
          "name": "D6",
          "ticks": 179160,
          "time": 127.2441909375,
          "velocity": 0.30708661417322836
        },
        {
          "duration": 0.0852271875000099,
          "durationTicks": 120,
          "midi": 53,
          "name": "F3",
          "ticks": 179160,
          "time": 127.2441909375,
          "velocity": 0.30708661417322836
        },
        {
          "duration": 0.0852271874999957,
          "durationTicks": 120,
          "midi": 86,
          "name": "D6",
          "ticks": 179376,
          "time": 127.397599875,
          "velocity": 0.30708661417322836
        },
        {
          "duration": 0.0852271874999957,
          "durationTicks": 120,
          "midi": 89,
          "name": "F6",
          "ticks": 179376,
          "time": 127.397599875,
          "velocity": 0.30708661417322836
        },
        {
          "duration": 0.0852271874999957,
          "durationTicks": 120,
          "midi": 81,
          "name": "A5",
          "ticks": 179376,
          "time": 127.397599875,
          "velocity": 0.30708661417322836
        },
        {
          "duration": 0.0852271874999957,
          "durationTicks": 120,
          "midi": 86,
          "name": "D6",
          "ticks": 179376,
          "time": 127.397599875,
          "velocity": 0.30708661417322836
        },
        {
          "duration": 0.0852271874999957,
          "durationTicks": 120,
          "midi": 81,
          "name": "A5",
          "ticks": 179376,
          "time": 127.397599875,
          "velocity": 0.30708661417322836
        },
        {
          "duration": 0.0852271874999957,
          "durationTicks": 120,
          "midi": 77,
          "name": "F5",
          "ticks": 179376,
          "time": 127.397599875,
          "velocity": 0.30708661417322836
        },
        {
          "duration": 0.0852271874999957,
          "durationTicks": 120,
          "midi": 50,
          "name": "D3",
          "ticks": 179376,
          "time": 127.397599875,
          "velocity": 0.30708661417322836
        },
        {
          "duration": 0.0852271874999957,
          "durationTicks": 120,
          "midi": 89,
          "name": "F6",
          "ticks": 179376,
          "time": 127.397599875,
          "velocity": 0.30708661417322836
        },
        {
          "duration": 0.0852271874999957,
          "durationTicks": 120,
          "midi": 93,
          "name": "A6",
          "ticks": 179376,
          "time": 127.397599875,
          "velocity": 0.30708661417322836
        },
        {
          "duration": 0.0852271874999957,
          "durationTicks": 120,
          "midi": 50,
          "name": "D3",
          "ticks": 179376,
          "time": 127.397599875,
          "velocity": 0.30708661417322836
        },
        {
          "duration": 0.0852271874999957,
          "durationTicks": 120,
          "midi": 93,
          "name": "A6",
          "ticks": 179376,
          "time": 127.397599875,
          "velocity": 0.30708661417322836
        },
        {
          "duration": 0.0852271874999957,
          "durationTicks": 120,
          "midi": 77,
          "name": "F5",
          "ticks": 179376,
          "time": 127.397599875,
          "velocity": 0.30708661417322836
        },
        {
          "duration": 0.0852271874999957,
          "durationTicks": 120,
          "midi": 93,
          "name": "A6",
          "ticks": 179400,
          "time": 127.4146453125,
          "velocity": 0.30708661417322836
        },
        {
          "duration": 0.0852271874999957,
          "durationTicks": 120,
          "midi": 89,
          "name": "F6",
          "ticks": 179400,
          "time": 127.4146453125,
          "velocity": 0.30708661417322836
        },
        {
          "duration": 0.0852271874999957,
          "durationTicks": 120,
          "midi": 86,
          "name": "D6",
          "ticks": 179400,
          "time": 127.4146453125,
          "velocity": 0.30708661417322836
        },
        {
          "duration": 0.0852271874999957,
          "durationTicks": 120,
          "midi": 50,
          "name": "D3",
          "ticks": 179400,
          "time": 127.4146453125,
          "velocity": 0.30708661417322836
        },
        {
          "duration": 0.0852271874999957,
          "durationTicks": 120,
          "midi": 77,
          "name": "F5",
          "ticks": 179400,
          "time": 127.4146453125,
          "velocity": 0.30708661417322836
        },
        {
          "duration": 0.0852271874999957,
          "durationTicks": 120,
          "midi": 81,
          "name": "A5",
          "ticks": 179400,
          "time": 127.4146453125,
          "velocity": 0.30708661417322836
        },
        {
          "duration": 0.0852271874999957,
          "durationTicks": 120,
          "midi": 77,
          "name": "F5",
          "ticks": 179616,
          "time": 127.56805425,
          "velocity": 0.30708661417322836
        },
        {
          "duration": 0.0852271874999957,
          "durationTicks": 120,
          "midi": 91,
          "name": "G6",
          "ticks": 179616,
          "time": 127.56805425,
          "velocity": 0.30708661417322836
        },
        {
          "duration": 0.0852271874999957,
          "durationTicks": 120,
          "midi": 88,
          "name": "E6",
          "ticks": 179616,
          "time": 127.56805425,
          "velocity": 0.30708661417322836
        },
        {
          "duration": 0.0852271874999957,
          "durationTicks": 120,
          "midi": 81,
          "name": "A5",
          "ticks": 179616,
          "time": 127.56805425,
          "velocity": 0.30708661417322836
        },
        {
          "duration": 0.0852271874999957,
          "durationTicks": 120,
          "midi": 81,
          "name": "A5",
          "ticks": 179616,
          "time": 127.56805425,
          "velocity": 0.30708661417322836
        },
        {
          "duration": 0.0852271874999957,
          "durationTicks": 120,
          "midi": 53,
          "name": "F3",
          "ticks": 179616,
          "time": 127.56805425,
          "velocity": 0.30708661417322836
        },
        {
          "duration": 0.0852271874999957,
          "durationTicks": 120,
          "midi": 53,
          "name": "F3",
          "ticks": 179616,
          "time": 127.56805425,
          "velocity": 0.30708661417322836
        },
        {
          "duration": 0.0852271874999957,
          "durationTicks": 120,
          "midi": 88,
          "name": "E6",
          "ticks": 179616,
          "time": 127.56805425,
          "velocity": 0.30708661417322836
        },
        {
          "duration": 0.0852271874999957,
          "durationTicks": 120,
          "midi": 57,
          "name": "A3",
          "ticks": 179616,
          "time": 127.56805425,
          "velocity": 0.30708661417322836
        },
        {
          "duration": 0.0852271874999957,
          "durationTicks": 120,
          "midi": 76,
          "name": "E5",
          "ticks": 179616,
          "time": 127.56805425,
          "velocity": 0.30708661417322836
        },
        {
          "duration": 0.0852271874999957,
          "durationTicks": 120,
          "midi": 57,
          "name": "A3",
          "ticks": 179616,
          "time": 127.56805425,
          "velocity": 0.30708661417322836
        },
        {
          "duration": 0.0852271874999957,
          "durationTicks": 120,
          "midi": 91,
          "name": "G6",
          "ticks": 179616,
          "time": 127.56805425,
          "velocity": 0.30708661417322836
        },
        {
          "duration": 0.0852271874999957,
          "durationTicks": 120,
          "midi": 76,
          "name": "E5",
          "ticks": 179616,
          "time": 127.56805425,
          "velocity": 0.30708661417322836
        },
        {
          "duration": 0.0852271874999957,
          "durationTicks": 120,
          "midi": 77,
          "name": "F5",
          "ticks": 179616,
          "time": 127.56805425,
          "velocity": 0.30708661417322836
        },
        {
          "duration": 0.0852271874999957,
          "durationTicks": 120,
          "midi": 53,
          "name": "F3",
          "ticks": 179640,
          "time": 127.5850996875,
          "velocity": 0.30708661417322836
        },
        {
          "duration": 0.0852271874999957,
          "durationTicks": 120,
          "midi": 81,
          "name": "A5",
          "ticks": 179640,
          "time": 127.5850996875,
          "velocity": 0.30708661417322836
        },
        {
          "duration": 0.0852271874999957,
          "durationTicks": 120,
          "midi": 91,
          "name": "G6",
          "ticks": 179640,
          "time": 127.5850996875,
          "velocity": 0.30708661417322836
        },
        {
          "duration": 0.0852271874999957,
          "durationTicks": 120,
          "midi": 76,
          "name": "E5",
          "ticks": 179640,
          "time": 127.5850996875,
          "velocity": 0.30708661417322836
        },
        {
          "duration": 0.0852271874999957,
          "durationTicks": 120,
          "midi": 88,
          "name": "E6",
          "ticks": 179640,
          "time": 127.5850996875,
          "velocity": 0.30708661417322836
        },
        {
          "duration": 0.0852271874999957,
          "durationTicks": 120,
          "midi": 77,
          "name": "F5",
          "ticks": 179640,
          "time": 127.5850996875,
          "velocity": 0.30708661417322836
        },
        {
          "duration": 0.0852271874999957,
          "durationTicks": 120,
          "midi": 57,
          "name": "A3",
          "ticks": 179640,
          "time": 127.5850996875,
          "velocity": 0.30708661417322836
        },
        {
          "duration": 0.0852271875000099,
          "durationTicks": 120,
          "midi": 86,
          "name": "D6",
          "ticks": 179856,
          "time": 127.738508625,
          "velocity": 0.30708661417322836
        },
        {
          "duration": 0.0852271875000099,
          "durationTicks": 120,
          "midi": 77,
          "name": "F5",
          "ticks": 179856,
          "time": 127.738508625,
          "velocity": 0.30708661417322836
        },
        {
          "duration": 0.0852271875000099,
          "durationTicks": 120,
          "midi": 74,
          "name": "D5",
          "ticks": 179856,
          "time": 127.738508625,
          "velocity": 0.30708661417322836
        },
        {
          "duration": 0.0852271875000099,
          "durationTicks": 120,
          "midi": 89,
          "name": "F6",
          "ticks": 179856,
          "time": 127.738508625,
          "velocity": 0.30708661417322836
        },
        {
          "duration": 0.0852271875000099,
          "durationTicks": 120,
          "midi": 77,
          "name": "F5",
          "ticks": 179856,
          "time": 127.738508625,
          "velocity": 0.30708661417322836
        },
        {
          "duration": 0.0852271875000099,
          "durationTicks": 120,
          "midi": 45,
          "name": "A2",
          "ticks": 179856,
          "time": 127.738508625,
          "velocity": 0.30708661417322836
        },
        {
          "duration": 0.0852271875000099,
          "durationTicks": 120,
          "midi": 81,
          "name": "A5",
          "ticks": 179856,
          "time": 127.738508625,
          "velocity": 0.30708661417322836
        },
        {
          "duration": 0.0852271875000099,
          "durationTicks": 120,
          "midi": 86,
          "name": "D6",
          "ticks": 179856,
          "time": 127.738508625,
          "velocity": 0.30708661417322836
        },
        {
          "duration": 0.0852271875000099,
          "durationTicks": 120,
          "midi": 89,
          "name": "F6",
          "ticks": 179856,
          "time": 127.738508625,
          "velocity": 0.30708661417322836
        },
        {
          "duration": 0.0852271875000099,
          "durationTicks": 120,
          "midi": 74,
          "name": "D5",
          "ticks": 179856,
          "time": 127.738508625,
          "velocity": 0.30708661417322836
        },
        {
          "duration": 0.0852271875000099,
          "durationTicks": 120,
          "midi": 45,
          "name": "A2",
          "ticks": 179856,
          "time": 127.738508625,
          "velocity": 0.30708661417322836
        },
        {
          "duration": 0.0852271875000099,
          "durationTicks": 120,
          "midi": 81,
          "name": "A5",
          "ticks": 179856,
          "time": 127.738508625,
          "velocity": 0.30708661417322836
        },
        {
          "duration": 0.0852271874999957,
          "durationTicks": 120,
          "midi": 77,
          "name": "F5",
          "ticks": 179880,
          "time": 127.7555540625,
          "velocity": 0.30708661417322836
        },
        {
          "duration": 0.0852271874999957,
          "durationTicks": 120,
          "midi": 81,
          "name": "A5",
          "ticks": 179880,
          "time": 127.7555540625,
          "velocity": 0.30708661417322836
        },
        {
          "duration": 0.0852271874999957,
          "durationTicks": 120,
          "midi": 86,
          "name": "D6",
          "ticks": 179880,
          "time": 127.7555540625,
          "velocity": 0.30708661417322836
        },
        {
          "duration": 0.0852271874999957,
          "durationTicks": 120,
          "midi": 74,
          "name": "D5",
          "ticks": 179880,
          "time": 127.7555540625,
          "velocity": 0.30708661417322836
        },
        {
          "duration": 0.0852271874999957,
          "durationTicks": 120,
          "midi": 89,
          "name": "F6",
          "ticks": 179880,
          "time": 127.7555540625,
          "velocity": 0.30708661417322836
        },
        {
          "duration": 0.0852271874999957,
          "durationTicks": 120,
          "midi": 45,
          "name": "A2",
          "ticks": 179880,
          "time": 127.7555540625,
          "velocity": 0.30708661417322836
        },
        {
          "duration": 0.0852271874999957,
          "durationTicks": 120,
          "midi": 77,
          "name": "F5",
          "ticks": 180096,
          "time": 127.908963,
          "velocity": 0.30708661417322836
        },
        {
          "duration": 0.0852271874999957,
          "durationTicks": 120,
          "midi": 89,
          "name": "F6",
          "ticks": 180096,
          "time": 127.908963,
          "velocity": 0.30708661417322836
        },
        {
          "duration": 0.0852271874999957,
          "durationTicks": 120,
          "midi": 57,
          "name": "A3",
          "ticks": 180096,
          "time": 127.908963,
          "velocity": 0.30708661417322836
        },
        {
          "duration": 0.0852271874999957,
          "durationTicks": 120,
          "midi": 89,
          "name": "F6",
          "ticks": 180096,
          "time": 127.908963,
          "velocity": 0.30708661417322836
        },
        {
          "duration": 0.0852271874999957,
          "durationTicks": 120,
          "midi": 53,
          "name": "F3",
          "ticks": 180096,
          "time": 127.908963,
          "velocity": 0.30708661417322836
        },
        {
          "duration": 0.0852271874999957,
          "durationTicks": 120,
          "midi": 86,
          "name": "D6",
          "ticks": 180096,
          "time": 127.908963,
          "velocity": 0.30708661417322836
        },
        {
          "duration": 0.0852271874999957,
          "durationTicks": 120,
          "midi": 77,
          "name": "F5",
          "ticks": 180096,
          "time": 127.908963,
          "velocity": 0.30708661417322836
        },
        {
          "duration": 0.0852271874999957,
          "durationTicks": 120,
          "midi": 81,
          "name": "A5",
          "ticks": 180096,
          "time": 127.908963,
          "velocity": 0.30708661417322836
        },
        {
          "duration": 0.0852271874999957,
          "durationTicks": 120,
          "midi": 81,
          "name": "A5",
          "ticks": 180096,
          "time": 127.908963,
          "velocity": 0.30708661417322836
        },
        {
          "duration": 0.0852271874999957,
          "durationTicks": 120,
          "midi": 86,
          "name": "D6",
          "ticks": 180096,
          "time": 127.908963,
          "velocity": 0.30708661417322836
        },
        {
          "duration": 0.0852271874999957,
          "durationTicks": 120,
          "midi": 57,
          "name": "A3",
          "ticks": 180096,
          "time": 127.908963,
          "velocity": 0.30708661417322836
        },
        {
          "duration": 0.0852271874999957,
          "durationTicks": 120,
          "midi": 53,
          "name": "F3",
          "ticks": 180096,
          "time": 127.908963,
          "velocity": 0.30708661417322836
        },
        {
          "duration": 0.0852271875000099,
          "durationTicks": 120,
          "midi": 89,
          "name": "F6",
          "ticks": 180120,
          "time": 127.9260084375,
          "velocity": 0.30708661417322836
        },
        {
          "duration": 0.0852271875000099,
          "durationTicks": 120,
          "midi": 53,
          "name": "F3",
          "ticks": 180120,
          "time": 127.9260084375,
          "velocity": 0.30708661417322836
        },
        {
          "duration": 0.0852271875000099,
          "durationTicks": 120,
          "midi": 86,
          "name": "D6",
          "ticks": 180120,
          "time": 127.9260084375,
          "velocity": 0.30708661417322836
        },
        {
          "duration": 0.0852271875000099,
          "durationTicks": 120,
          "midi": 81,
          "name": "A5",
          "ticks": 180120,
          "time": 127.9260084375,
          "velocity": 0.30708661417322836
        },
        {
          "duration": 0.0852271875000099,
          "durationTicks": 120,
          "midi": 77,
          "name": "F5",
          "ticks": 180120,
          "time": 127.9260084375,
          "velocity": 0.30708661417322836
        },
        {
          "duration": 0.0852271875000099,
          "durationTicks": 120,
          "midi": 57,
          "name": "A3",
          "ticks": 180120,
          "time": 127.9260084375,
          "velocity": 0.30708661417322836
        },
        {
          "duration": 0.0852271875000099,
          "durationTicks": 120,
          "midi": 81,
          "name": "A5",
          "ticks": 180336,
          "time": 128.079417375,
          "velocity": 0.30708661417322836
        },
        {
          "duration": 0.0852271875000099,
          "durationTicks": 120,
          "midi": 48,
          "name": "C3",
          "ticks": 180336,
          "time": 128.079417375,
          "velocity": 0.30708661417322836
        },
        {
          "duration": 0.0852271875000099,
          "durationTicks": 120,
          "midi": 88,
          "name": "E6",
          "ticks": 180336,
          "time": 128.079417375,
          "velocity": 0.30708661417322836
        },
        {
          "duration": 0.0852271875000099,
          "durationTicks": 120,
          "midi": 76,
          "name": "E5",
          "ticks": 180336,
          "time": 128.079417375,
          "velocity": 0.30708661417322836
        },
        {
          "duration": 0.0852271875000099,
          "durationTicks": 120,
          "midi": 86,
          "name": "D6",
          "ticks": 180336,
          "time": 128.079417375,
          "velocity": 0.30708661417322836
        },
        {
          "duration": 0.0852271875000099,
          "durationTicks": 120,
          "midi": 48,
          "name": "C3",
          "ticks": 180336,
          "time": 128.079417375,
          "velocity": 0.30708661417322836
        },
        {
          "duration": 0.0852271875000099,
          "durationTicks": 120,
          "midi": 88,
          "name": "E6",
          "ticks": 180336,
          "time": 128.079417375,
          "velocity": 0.30708661417322836
        },
        {
          "duration": 0.0852271875000099,
          "durationTicks": 120,
          "midi": 86,
          "name": "D6",
          "ticks": 180336,
          "time": 128.079417375,
          "velocity": 0.30708661417322836
        },
        {
          "duration": 0.0852271875000099,
          "durationTicks": 120,
          "midi": 81,
          "name": "A5",
          "ticks": 180336,
          "time": 128.079417375,
          "velocity": 0.30708661417322836
        },
        {
          "duration": 0.0852271875000099,
          "durationTicks": 120,
          "midi": 76,
          "name": "E5",
          "ticks": 180336,
          "time": 128.079417375,
          "velocity": 0.30708661417322836
        },
        {
          "duration": 0.0852271875000099,
          "durationTicks": 120,
          "midi": 88,
          "name": "E6",
          "ticks": 180360,
          "time": 128.0964628125,
          "velocity": 0.30708661417322836
        },
        {
          "duration": 0.0852271875000099,
          "durationTicks": 120,
          "midi": 86,
          "name": "D6",
          "ticks": 180360,
          "time": 128.0964628125,
          "velocity": 0.30708661417322836
        },
        {
          "duration": 0.0852271875000099,
          "durationTicks": 120,
          "midi": 48,
          "name": "C3",
          "ticks": 180360,
          "time": 128.0964628125,
          "velocity": 0.30708661417322836
        },
        {
          "duration": 0.0852271875000099,
          "durationTicks": 120,
          "midi": 81,
          "name": "A5",
          "ticks": 180360,
          "time": 128.0964628125,
          "velocity": 0.30708661417322836
        },
        {
          "duration": 0.0852271875000099,
          "durationTicks": 120,
          "midi": 76,
          "name": "E5",
          "ticks": 180360,
          "time": 128.0964628125,
          "velocity": 0.30708661417322836
        },
        {
          "duration": 0.08522718749998148,
          "durationTicks": 120,
          "midi": 52,
          "name": "E3",
          "ticks": 180576,
          "time": 128.24987175,
          "velocity": 0.30708661417322836
        },
        {
          "duration": 0.08522718749998148,
          "durationTicks": 120,
          "midi": 57,
          "name": "A3",
          "ticks": 180576,
          "time": 128.24987175,
          "velocity": 0.30708661417322836
        },
        {
          "duration": 0.08522718749998148,
          "durationTicks": 120,
          "midi": 57,
          "name": "A3",
          "ticks": 180576,
          "time": 128.24987175,
          "velocity": 0.30708661417322836
        },
        {
          "duration": 0.08522718749998148,
          "durationTicks": 120,
          "midi": 52,
          "name": "E3",
          "ticks": 180576,
          "time": 128.24987175,
          "velocity": 0.30708661417322836
        },
        {
          "duration": 0.0852271875000099,
          "durationTicks": 120,
          "midi": 52,
          "name": "E3",
          "ticks": 180600,
          "time": 128.26691718749998,
          "velocity": 0.30708661417322836
        },
        {
          "duration": 0.0852271875000099,
          "durationTicks": 120,
          "midi": 57,
          "name": "A3",
          "ticks": 180600,
          "time": 128.26691718749998,
          "velocity": 0.30708661417322836
        },
        {
          "duration": 0.0852271875000099,
          "durationTicks": 120,
          "midi": 89,
          "name": "F6",
          "ticks": 180696,
          "time": 128.3350989375,
          "velocity": 0.30708661417322836
        },
        {
          "duration": 0.0852271875000099,
          "durationTicks": 120,
          "midi": 81,
          "name": "A5",
          "ticks": 180696,
          "time": 128.3350989375,
          "velocity": 0.30708661417322836
        },
        {
          "duration": 0.0852271875000099,
          "durationTicks": 120,
          "midi": 86,
          "name": "D6",
          "ticks": 180696,
          "time": 128.3350989375,
          "velocity": 0.30708661417322836
        },
        {
          "duration": 0.0852271875000099,
          "durationTicks": 120,
          "midi": 76,
          "name": "E5",
          "ticks": 180696,
          "time": 128.3350989375,
          "velocity": 0.30708661417322836
        },
        {
          "duration": 0.0852271875000099,
          "durationTicks": 120,
          "midi": 86,
          "name": "D6",
          "ticks": 180696,
          "time": 128.3350989375,
          "velocity": 0.30708661417322836
        },
        {
          "duration": 0.0852271875000099,
          "durationTicks": 120,
          "midi": 89,
          "name": "F6",
          "ticks": 180696,
          "time": 128.3350989375,
          "velocity": 0.30708661417322836
        },
        {
          "duration": 0.0852271875000099,
          "durationTicks": 120,
          "midi": 81,
          "name": "A5",
          "ticks": 180696,
          "time": 128.3350989375,
          "velocity": 0.30708661417322836
        },
        {
          "duration": 0.0852271875000099,
          "durationTicks": 120,
          "midi": 74,
          "name": "D5",
          "ticks": 180696,
          "time": 128.3350989375,
          "velocity": 0.30708661417322836
        },
        {
          "duration": 0.0852271875000099,
          "durationTicks": 120,
          "midi": 76,
          "name": "E5",
          "ticks": 180696,
          "time": 128.3350989375,
          "velocity": 0.30708661417322836
        },
        {
          "duration": 0.0852271875000099,
          "durationTicks": 120,
          "midi": 74,
          "name": "D5",
          "ticks": 180696,
          "time": 128.3350989375,
          "velocity": 0.30708661417322836
        },
        {
          "duration": 0.0852271875000099,
          "durationTicks": 120,
          "midi": 76,
          "name": "E5",
          "ticks": 180720,
          "time": 128.352144375,
          "velocity": 0.30708661417322836
        },
        {
          "duration": 0.0852271875000099,
          "durationTicks": 120,
          "midi": 89,
          "name": "F6",
          "ticks": 180720,
          "time": 128.352144375,
          "velocity": 0.30708661417322836
        },
        {
          "duration": 0.0852271875000099,
          "durationTicks": 120,
          "midi": 81,
          "name": "A5",
          "ticks": 180720,
          "time": 128.352144375,
          "velocity": 0.30708661417322836
        },
        {
          "duration": 0.0852271875000099,
          "durationTicks": 120,
          "midi": 86,
          "name": "D6",
          "ticks": 180720,
          "time": 128.352144375,
          "velocity": 0.30708661417322836
        },
        {
          "duration": 0.0852271875000099,
          "durationTicks": 120,
          "midi": 74,
          "name": "D5",
          "ticks": 180720,
          "time": 128.352144375,
          "velocity": 0.30708661417322836
        },
        {
          "duration": 0.0852271875000099,
          "durationTicks": 120,
          "midi": 81,
          "name": "A5",
          "ticks": 180816,
          "time": 128.420326125,
          "velocity": 0.30708661417322836
        },
        {
          "duration": 0.0852271875000099,
          "durationTicks": 120,
          "midi": 76,
          "name": "E5",
          "ticks": 180816,
          "time": 128.420326125,
          "velocity": 0.30708661417322836
        },
        {
          "duration": 0.0852271875000099,
          "durationTicks": 120,
          "midi": 88,
          "name": "E6",
          "ticks": 180816,
          "time": 128.420326125,
          "velocity": 0.30708661417322836
        },
        {
          "duration": 0.0852271875000099,
          "durationTicks": 120,
          "midi": 72,
          "name": "C5",
          "ticks": 180816,
          "time": 128.420326125,
          "velocity": 0.30708661417322836
        },
        {
          "duration": 0.0852271875000099,
          "durationTicks": 120,
          "midi": 84,
          "name": "C6",
          "ticks": 180816,
          "time": 128.420326125,
          "velocity": 0.30708661417322836
        },
        {
          "duration": 0.0852271875000099,
          "durationTicks": 120,
          "midi": 72,
          "name": "C5",
          "ticks": 180816,
          "time": 128.420326125,
          "velocity": 0.30708661417322836
        },
        {
          "duration": 0.0852271875000099,
          "durationTicks": 120,
          "midi": 88,
          "name": "E6",
          "ticks": 180816,
          "time": 128.420326125,
          "velocity": 0.30708661417322836
        },
        {
          "duration": 0.0852271875000099,
          "durationTicks": 120,
          "midi": 45,
          "name": "A2",
          "ticks": 180816,
          "time": 128.420326125,
          "velocity": 0.30708661417322836
        },
        {
          "duration": 0.0852271875000099,
          "durationTicks": 120,
          "midi": 45,
          "name": "A2",
          "ticks": 180816,
          "time": 128.420326125,
          "velocity": 0.30708661417322836
        },
        {
          "duration": 0.0852271875000099,
          "durationTicks": 120,
          "midi": 76,
          "name": "E5",
          "ticks": 180816,
          "time": 128.420326125,
          "velocity": 0.30708661417322836
        },
        {
          "duration": 0.0852271875000099,
          "durationTicks": 120,
          "midi": 84,
          "name": "C6",
          "ticks": 180816,
          "time": 128.420326125,
          "velocity": 0.30708661417322836
        },
        {
          "duration": 0.0852271875000099,
          "durationTicks": 120,
          "midi": 81,
          "name": "A5",
          "ticks": 180816,
          "time": 128.420326125,
          "velocity": 0.30708661417322836
        },
        {
          "duration": 0.08522718749998148,
          "durationTicks": 120,
          "midi": 88,
          "name": "E6",
          "ticks": 180840,
          "time": 128.4373715625,
          "velocity": 0.30708661417322836
        },
        {
          "duration": 0.08522718749998148,
          "durationTicks": 120,
          "midi": 81,
          "name": "A5",
          "ticks": 180840,
          "time": 128.4373715625,
          "velocity": 0.30708661417322836
        },
        {
          "duration": 0.08522718749998148,
          "durationTicks": 120,
          "midi": 45,
          "name": "A2",
          "ticks": 180840,
          "time": 128.4373715625,
          "velocity": 0.30708661417322836
        },
        {
          "duration": 0.08522718749998148,
          "durationTicks": 120,
          "midi": 84,
          "name": "C6",
          "ticks": 180840,
          "time": 128.4373715625,
          "velocity": 0.30708661417322836
        },
        {
          "duration": 0.08522718749998148,
          "durationTicks": 120,
          "midi": 72,
          "name": "C5",
          "ticks": 180840,
          "time": 128.4373715625,
          "velocity": 0.30708661417322836
        },
        {
          "duration": 0.08522718749998148,
          "durationTicks": 120,
          "midi": 76,
          "name": "E5",
          "ticks": 180840,
          "time": 128.4373715625,
          "velocity": 0.30708661417322836
        },
        {
          "duration": 0.0852271875000099,
          "durationTicks": 120,
          "midi": 74,
          "name": "D5",
          "ticks": 181056,
          "time": 128.5907805,
          "velocity": 0.30708661417322836
        },
        {
          "duration": 0.0852271875000099,
          "durationTicks": 120,
          "midi": 89,
          "name": "F6",
          "ticks": 181056,
          "time": 128.5907805,
          "velocity": 0.30708661417322836
        },
        {
          "duration": 0.0852271875000099,
          "durationTicks": 120,
          "midi": 89,
          "name": "F6",
          "ticks": 181056,
          "time": 128.5907805,
          "velocity": 0.30708661417322836
        },
        {
          "duration": 0.0852271875000099,
          "durationTicks": 120,
          "midi": 81,
          "name": "A5",
          "ticks": 181056,
          "time": 128.5907805,
          "velocity": 0.30708661417322836
        },
        {
          "duration": 0.0852271875000099,
          "durationTicks": 120,
          "midi": 76,
          "name": "E5",
          "ticks": 181056,
          "time": 128.5907805,
          "velocity": 0.30708661417322836
        },
        {
          "duration": 0.0852271875000099,
          "durationTicks": 120,
          "midi": 74,
          "name": "D5",
          "ticks": 181056,
          "time": 128.5907805,
          "velocity": 0.30708661417322836
        },
        {
          "duration": 0.0852271875000099,
          "durationTicks": 120,
          "midi": 52,
          "name": "E3",
          "ticks": 181056,
          "time": 128.5907805,
          "velocity": 0.30708661417322836
        },
        {
          "duration": 0.0852271875000099,
          "durationTicks": 120,
          "midi": 57,
          "name": "A3",
          "ticks": 181056,
          "time": 128.5907805,
          "velocity": 0.30708661417322836
        },
        {
          "duration": 0.0852271875000099,
          "durationTicks": 120,
          "midi": 76,
          "name": "E5",
          "ticks": 181056,
          "time": 128.5907805,
          "velocity": 0.30708661417322836
        },
        {
          "duration": 0.0852271875000099,
          "durationTicks": 120,
          "midi": 57,
          "name": "A3",
          "ticks": 181056,
          "time": 128.5907805,
          "velocity": 0.30708661417322836
        },
        {
          "duration": 0.0852271875000099,
          "durationTicks": 120,
          "midi": 86,
          "name": "D6",
          "ticks": 181056,
          "time": 128.5907805,
          "velocity": 0.30708661417322836
        },
        {
          "duration": 0.0852271875000099,
          "durationTicks": 120,
          "midi": 86,
          "name": "D6",
          "ticks": 181056,
          "time": 128.5907805,
          "velocity": 0.30708661417322836
        },
        {
          "duration": 0.0852271875000099,
          "durationTicks": 120,
          "midi": 52,
          "name": "E3",
          "ticks": 181056,
          "time": 128.5907805,
          "velocity": 0.30708661417322836
        },
        {
          "duration": 0.0852271875000099,
          "durationTicks": 120,
          "midi": 81,
          "name": "A5",
          "ticks": 181056,
          "time": 128.5907805,
          "velocity": 0.30708661417322836
        },
        {
          "duration": 0.0852271875000099,
          "durationTicks": 120,
          "midi": 74,
          "name": "D5",
          "ticks": 181080,
          "time": 128.6078259375,
          "velocity": 0.30708661417322836
        },
        {
          "duration": 0.0852271875000099,
          "durationTicks": 120,
          "midi": 57,
          "name": "A3",
          "ticks": 181080,
          "time": 128.6078259375,
          "velocity": 0.30708661417322836
        },
        {
          "duration": 0.0852271875000099,
          "durationTicks": 120,
          "midi": 86,
          "name": "D6",
          "ticks": 181080,
          "time": 128.6078259375,
          "velocity": 0.30708661417322836
        },
        {
          "duration": 0.0852271875000099,
          "durationTicks": 120,
          "midi": 52,
          "name": "E3",
          "ticks": 181080,
          "time": 128.6078259375,
          "velocity": 0.30708661417322836
        },
        {
          "duration": 0.0852271875000099,
          "durationTicks": 120,
          "midi": 81,
          "name": "A5",
          "ticks": 181080,
          "time": 128.6078259375,
          "velocity": 0.30708661417322836
        },
        {
          "duration": 0.0852271875000099,
          "durationTicks": 120,
          "midi": 76,
          "name": "E5",
          "ticks": 181080,
          "time": 128.6078259375,
          "velocity": 0.30708661417322836
        },
        {
          "duration": 0.0852271875000099,
          "durationTicks": 120,
          "midi": 89,
          "name": "F6",
          "ticks": 181080,
          "time": 128.6078259375,
          "velocity": 0.30708661417322836
        },
        {
          "duration": 0.0852271875000099,
          "durationTicks": 120,
          "midi": 93,
          "name": "A6",
          "ticks": 181296,
          "time": 128.76123487499999,
          "velocity": 0.30708661417322836
        },
        {
          "duration": 0.0852271875000099,
          "durationTicks": 120,
          "midi": 93,
          "name": "A6",
          "ticks": 181296,
          "time": 128.76123487499999,
          "velocity": 0.30708661417322836
        },
        {
          "duration": 0.0852271875000099,
          "durationTicks": 120,
          "midi": 81,
          "name": "A5",
          "ticks": 181296,
          "time": 128.76123487499999,
          "velocity": 0.30708661417322836
        },
        {
          "duration": 0.0852271875000099,
          "durationTicks": 120,
          "midi": 81,
          "name": "A5",
          "ticks": 181296,
          "time": 128.76123487499999,
          "velocity": 0.30708661417322836
        },
        {
          "duration": 0.0852271875000099,
          "durationTicks": 120,
          "midi": 76,
          "name": "E5",
          "ticks": 181296,
          "time": 128.76123487499999,
          "velocity": 0.30708661417322836
        },
        {
          "duration": 0.0852271875000099,
          "durationTicks": 120,
          "midi": 84,
          "name": "C6",
          "ticks": 181296,
          "time": 128.76123487499999,
          "velocity": 0.30708661417322836
        },
        {
          "duration": 0.0852271875000099,
          "durationTicks": 120,
          "midi": 76,
          "name": "E5",
          "ticks": 181296,
          "time": 128.76123487499999,
          "velocity": 0.30708661417322836
        },
        {
          "duration": 0.0852271875000099,
          "durationTicks": 120,
          "midi": 88,
          "name": "E6",
          "ticks": 181296,
          "time": 128.76123487499999,
          "velocity": 0.30708661417322836
        },
        {
          "duration": 0.0852271875000099,
          "durationTicks": 120,
          "midi": 48,
          "name": "C3",
          "ticks": 181296,
          "time": 128.76123487499999,
          "velocity": 0.30708661417322836
        },
        {
          "duration": 0.0852271875000099,
          "durationTicks": 120,
          "midi": 84,
          "name": "C6",
          "ticks": 181296,
          "time": 128.76123487499999,
          "velocity": 0.30708661417322836
        },
        {
          "duration": 0.0852271875000099,
          "durationTicks": 120,
          "midi": 88,
          "name": "E6",
          "ticks": 181296,
          "time": 128.76123487499999,
          "velocity": 0.30708661417322836
        },
        {
          "duration": 0.0852271875000099,
          "durationTicks": 120,
          "midi": 48,
          "name": "C3",
          "ticks": 181296,
          "time": 128.76123487499999,
          "velocity": 0.30708661417322836
        },
        {
          "duration": 0.0852271875000099,
          "durationTicks": 120,
          "midi": 48,
          "name": "C3",
          "ticks": 181320,
          "time": 128.7782803125,
          "velocity": 0.30708661417322836
        },
        {
          "duration": 0.0852271875000099,
          "durationTicks": 120,
          "midi": 93,
          "name": "A6",
          "ticks": 181320,
          "time": 128.7782803125,
          "velocity": 0.30708661417322836
        },
        {
          "duration": 0.0852271875000099,
          "durationTicks": 120,
          "midi": 84,
          "name": "C6",
          "ticks": 181320,
          "time": 128.7782803125,
          "velocity": 0.30708661417322836
        },
        {
          "duration": 0.0852271875000099,
          "durationTicks": 120,
          "midi": 88,
          "name": "E6",
          "ticks": 181320,
          "time": 128.7782803125,
          "velocity": 0.30708661417322836
        },
        {
          "duration": 0.0852271875000099,
          "durationTicks": 120,
          "midi": 76,
          "name": "E5",
          "ticks": 181320,
          "time": 128.7782803125,
          "velocity": 0.30708661417322836
        },
        {
          "duration": 0.0852271875000099,
          "durationTicks": 120,
          "midi": 81,
          "name": "A5",
          "ticks": 181320,
          "time": 128.7782803125,
          "velocity": 0.30708661417322836
        },
        {
          "duration": 0.08522718749998148,
          "durationTicks": 120,
          "midi": 57,
          "name": "A3",
          "ticks": 181536,
          "time": 128.93168925,
          "velocity": 0.30708661417322836
        },
        {
          "duration": 0.08522718749998148,
          "durationTicks": 120,
          "midi": 57,
          "name": "A3",
          "ticks": 181536,
          "time": 128.93168925,
          "velocity": 0.30708661417322836
        },
        {
          "duration": 0.08522718749998148,
          "durationTicks": 120,
          "midi": 52,
          "name": "E3",
          "ticks": 181536,
          "time": 128.93168925,
          "velocity": 0.30708661417322836
        },
        {
          "duration": 0.08522718749998148,
          "durationTicks": 120,
          "midi": 52,
          "name": "E3",
          "ticks": 181536,
          "time": 128.93168925,
          "velocity": 0.30708661417322836
        },
        {
          "duration": 0.08522718749998148,
          "durationTicks": 120,
          "midi": 57,
          "name": "A3",
          "ticks": 181560,
          "time": 128.9487346875,
          "velocity": 0.30708661417322836
        },
        {
          "duration": 0.08522718749998148,
          "durationTicks": 120,
          "midi": 52,
          "name": "E3",
          "ticks": 181560,
          "time": 128.9487346875,
          "velocity": 0.30708661417322836
        },
        {
          "duration": 0.0852271875000099,
          "durationTicks": 120,
          "midi": 93,
          "name": "A6",
          "ticks": 181776,
          "time": 129.102143625,
          "velocity": 0.30708661417322836
        },
        {
          "duration": 0.0852271875000099,
          "durationTicks": 120,
          "midi": 81,
          "name": "A5",
          "ticks": 181776,
          "time": 129.102143625,
          "velocity": 0.30708661417322836
        },
        {
          "duration": 0.0852271875000099,
          "durationTicks": 120,
          "midi": 93,
          "name": "A6",
          "ticks": 181776,
          "time": 129.102143625,
          "velocity": 0.30708661417322836
        },
        {
          "duration": 0.0852271875000099,
          "durationTicks": 120,
          "midi": 45,
          "name": "A2",
          "ticks": 181776,
          "time": 129.102143625,
          "velocity": 0.30708661417322836
        },
        {
          "duration": 0.0852271875000099,
          "durationTicks": 120,
          "midi": 88,
          "name": "E6",
          "ticks": 181776,
          "time": 129.102143625,
          "velocity": 0.30708661417322836
        },
        {
          "duration": 0.0852271875000099,
          "durationTicks": 120,
          "midi": 84,
          "name": "C6",
          "ticks": 181776,
          "time": 129.102143625,
          "velocity": 0.30708661417322836
        },
        {
          "duration": 0.0852271875000099,
          "durationTicks": 120,
          "midi": 81,
          "name": "A5",
          "ticks": 181776,
          "time": 129.102143625,
          "velocity": 0.30708661417322836
        },
        {
          "duration": 0.0852271875000099,
          "durationTicks": 120,
          "midi": 45,
          "name": "A2",
          "ticks": 181776,
          "time": 129.102143625,
          "velocity": 0.30708661417322836
        },
        {
          "duration": 0.0852271875000099,
          "durationTicks": 120,
          "midi": 88,
          "name": "E6",
          "ticks": 181776,
          "time": 129.102143625,
          "velocity": 0.30708661417322836
        },
        {
          "duration": 0.0852271875000099,
          "durationTicks": 120,
          "midi": 84,
          "name": "C6",
          "ticks": 181776,
          "time": 129.102143625,
          "velocity": 0.30708661417322836
        },
        {
          "duration": 0.0852271875000099,
          "durationTicks": 120,
          "midi": 93,
          "name": "A6",
          "ticks": 181800,
          "time": 129.1191890625,
          "velocity": 0.30708661417322836
        },
        {
          "duration": 0.0852271875000099,
          "durationTicks": 120,
          "midi": 88,
          "name": "E6",
          "ticks": 181800,
          "time": 129.1191890625,
          "velocity": 0.30708661417322836
        },
        {
          "duration": 0.0852271875000099,
          "durationTicks": 120,
          "midi": 45,
          "name": "A2",
          "ticks": 181800,
          "time": 129.1191890625,
          "velocity": 0.30708661417322836
        },
        {
          "duration": 0.0852271875000099,
          "durationTicks": 120,
          "midi": 81,
          "name": "A5",
          "ticks": 181800,
          "time": 129.1191890625,
          "velocity": 0.30708661417322836
        },
        {
          "duration": 0.0852271875000099,
          "durationTicks": 120,
          "midi": 84,
          "name": "C6",
          "ticks": 181800,
          "time": 129.1191890625,
          "velocity": 0.30708661417322836
        },
        {
          "duration": 0.0852271875000099,
          "durationTicks": 120,
          "midi": 57,
          "name": "A3",
          "ticks": 182016,
          "time": 129.272598,
          "velocity": 0.30708661417322836
        },
        {
          "duration": 0.0852271875000099,
          "durationTicks": 120,
          "midi": 57,
          "name": "A3",
          "ticks": 182016,
          "time": 129.272598,
          "velocity": 0.30708661417322836
        },
        {
          "duration": 0.0852271875000099,
          "durationTicks": 120,
          "midi": 52,
          "name": "E3",
          "ticks": 182016,
          "time": 129.272598,
          "velocity": 0.30708661417322836
        },
        {
          "duration": 0.0852271875000099,
          "durationTicks": 120,
          "midi": 52,
          "name": "E3",
          "ticks": 182016,
          "time": 129.272598,
          "velocity": 0.30708661417322836
        },
        {
          "duration": 0.0852271875000099,
          "durationTicks": 120,
          "midi": 52,
          "name": "E3",
          "ticks": 182040,
          "time": 129.2896434375,
          "velocity": 0.30708661417322836
        },
        {
          "duration": 0.0852271875000099,
          "durationTicks": 120,
          "midi": 57,
          "name": "A3",
          "ticks": 182040,
          "time": 129.2896434375,
          "velocity": 0.30708661417322836
        },
        {
          "duration": 0.08522718749998148,
          "durationTicks": 120,
          "midi": 47,
          "name": "B2",
          "ticks": 182256,
          "time": 129.443052375,
          "velocity": 0.30708661417322836
        },
        {
          "duration": 0.08522718749998148,
          "durationTicks": 120,
          "midi": 47,
          "name": "B2",
          "ticks": 182256,
          "time": 129.443052375,
          "velocity": 0.30708661417322836
        },
        {
          "duration": 0.08522718749998148,
          "durationTicks": 120,
          "midi": 47,
          "name": "B2",
          "ticks": 182280,
          "time": 129.4600978125,
          "velocity": 0.30708661417322836
        },
        {
          "duration": 0.0852271875000099,
          "durationTicks": 120,
          "midi": 86,
          "name": "D6",
          "ticks": 182496,
          "time": 129.61350675,
          "velocity": 0.30708661417322836
        },
        {
          "duration": 0.0852271875000099,
          "durationTicks": 120,
          "midi": 86,
          "name": "D6",
          "ticks": 182496,
          "time": 129.61350675,
          "velocity": 0.30708661417322836
        },
        {
          "duration": 0.0852271875000099,
          "durationTicks": 120,
          "midi": 74,
          "name": "D5",
          "ticks": 182496,
          "time": 129.61350675,
          "velocity": 0.30708661417322836
        },
        {
          "duration": 0.0852271875000099,
          "durationTicks": 120,
          "midi": 53,
          "name": "F3",
          "ticks": 182496,
          "time": 129.61350675,
          "velocity": 0.30708661417322836
        },
        {
          "duration": 0.0852271875000099,
          "durationTicks": 120,
          "midi": 57,
          "name": "A3",
          "ticks": 182496,
          "time": 129.61350675,
          "velocity": 0.30708661417322836
        },
        {
          "duration": 0.0852271875000099,
          "durationTicks": 120,
          "midi": 83,
          "name": "B5",
          "ticks": 182496,
          "time": 129.61350675,
          "velocity": 0.30708661417322836
        },
        {
          "duration": 0.0852271875000099,
          "durationTicks": 120,
          "midi": 83,
          "name": "B5",
          "ticks": 182496,
          "time": 129.61350675,
          "velocity": 0.30708661417322836
        },
        {
          "duration": 0.0852271875000099,
          "durationTicks": 120,
          "midi": 80,
          "name": "G#5",
          "ticks": 182496,
          "time": 129.61350675,
          "velocity": 0.30708661417322836
        },
        {
          "duration": 0.0852271875000099,
          "durationTicks": 120,
          "midi": 53,
          "name": "F3",
          "ticks": 182496,
          "time": 129.61350675,
          "velocity": 0.30708661417322836
        },
        {
          "duration": 0.0852271875000099,
          "durationTicks": 120,
          "midi": 57,
          "name": "A3",
          "ticks": 182496,
          "time": 129.61350675,
          "velocity": 0.30708661417322836
        },
        {
          "duration": 0.0852271875000099,
          "durationTicks": 120,
          "midi": 74,
          "name": "D5",
          "ticks": 182496,
          "time": 129.61350675,
          "velocity": 0.30708661417322836
        },
        {
          "duration": 0.0852271875000099,
          "durationTicks": 120,
          "midi": 80,
          "name": "G#5",
          "ticks": 182496,
          "time": 129.61350675,
          "velocity": 0.30708661417322836
        },
        {
          "duration": 0.0852271875000099,
          "durationTicks": 120,
          "midi": 74,
          "name": "D5",
          "ticks": 182520,
          "time": 129.6305521875,
          "velocity": 0.30708661417322836
        },
        {
          "duration": 0.0852271875000099,
          "durationTicks": 120,
          "midi": 83,
          "name": "B5",
          "ticks": 182520,
          "time": 129.6305521875,
          "velocity": 0.30708661417322836
        },
        {
          "duration": 0.0852271875000099,
          "durationTicks": 120,
          "midi": 53,
          "name": "F3",
          "ticks": 182520,
          "time": 129.6305521875,
          "velocity": 0.30708661417322836
        },
        {
          "duration": 0.0852271875000099,
          "durationTicks": 120,
          "midi": 86,
          "name": "D6",
          "ticks": 182520,
          "time": 129.6305521875,
          "velocity": 0.30708661417322836
        },
        {
          "duration": 0.0852271875000099,
          "durationTicks": 120,
          "midi": 80,
          "name": "G#5",
          "ticks": 182520,
          "time": 129.6305521875,
          "velocity": 0.30708661417322836
        },
        {
          "duration": 0.0852271875000099,
          "durationTicks": 120,
          "midi": 57,
          "name": "A3",
          "ticks": 182520,
          "time": 129.6305521875,
          "velocity": 0.30708661417322836
        },
        {
          "duration": 0.0852271875000099,
          "durationTicks": 120,
          "midi": 50,
          "name": "D3",
          "ticks": 182736,
          "time": 129.783961125,
          "velocity": 0.30708661417322836
        },
        {
          "duration": 0.0852271875000099,
          "durationTicks": 120,
          "midi": 50,
          "name": "D3",
          "ticks": 182736,
          "time": 129.783961125,
          "velocity": 0.30708661417322836
        },
        {
          "duration": 0.0852271875000099,
          "durationTicks": 120,
          "midi": 50,
          "name": "D3",
          "ticks": 182760,
          "time": 129.8010065625,
          "velocity": 0.30708661417322836
        },
        {
          "duration": 0.08522718749998148,
          "durationTicks": 120,
          "midi": 53,
          "name": "F3",
          "ticks": 182976,
          "time": 129.9544155,
          "velocity": 0.30708661417322836
        },
        {
          "duration": 0.08522718749998148,
          "durationTicks": 120,
          "midi": 57,
          "name": "A3",
          "ticks": 182976,
          "time": 129.9544155,
          "velocity": 0.30708661417322836
        },
        {
          "duration": 0.08522718749998148,
          "durationTicks": 120,
          "midi": 57,
          "name": "A3",
          "ticks": 182976,
          "time": 129.9544155,
          "velocity": 0.30708661417322836
        },
        {
          "duration": 0.08522718749998148,
          "durationTicks": 120,
          "midi": 77,
          "name": "F5",
          "ticks": 182976,
          "time": 129.9544155,
          "velocity": 0.30708661417322836
        },
        {
          "duration": 0.08522718749998148,
          "durationTicks": 120,
          "midi": 81,
          "name": "A5",
          "ticks": 182976,
          "time": 129.9544155,
          "velocity": 0.30708661417322836
        },
        {
          "duration": 0.08522718749998148,
          "durationTicks": 120,
          "midi": 93,
          "name": "A6",
          "ticks": 182976,
          "time": 129.9544155,
          "velocity": 0.30708661417322836
        },
        {
          "duration": 0.08522718749998148,
          "durationTicks": 120,
          "midi": 89,
          "name": "F6",
          "ticks": 182976,
          "time": 129.9544155,
          "velocity": 0.30708661417322836
        },
        {
          "duration": 0.08522718749998148,
          "durationTicks": 120,
          "midi": 86,
          "name": "D6",
          "ticks": 182976,
          "time": 129.9544155,
          "velocity": 0.30708661417322836
        },
        {
          "duration": 0.08522718749998148,
          "durationTicks": 120,
          "midi": 53,
          "name": "F3",
          "ticks": 182976,
          "time": 129.9544155,
          "velocity": 0.30708661417322836
        },
        {
          "duration": 0.08522718749998148,
          "durationTicks": 120,
          "midi": 89,
          "name": "F6",
          "ticks": 182976,
          "time": 129.9544155,
          "velocity": 0.30708661417322836
        },
        {
          "duration": 0.08522718749998148,
          "durationTicks": 120,
          "midi": 86,
          "name": "D6",
          "ticks": 182976,
          "time": 129.9544155,
          "velocity": 0.30708661417322836
        },
        {
          "duration": 0.08522718749998148,
          "durationTicks": 120,
          "midi": 77,
          "name": "F5",
          "ticks": 182976,
          "time": 129.9544155,
          "velocity": 0.30708661417322836
        },
        {
          "duration": 0.08522718749998148,
          "durationTicks": 120,
          "midi": 81,
          "name": "A5",
          "ticks": 182976,
          "time": 129.9544155,
          "velocity": 0.30708661417322836
        },
        {
          "duration": 0.08522718749998148,
          "durationTicks": 120,
          "midi": 93,
          "name": "A6",
          "ticks": 182976,
          "time": 129.9544155,
          "velocity": 0.30708661417322836
        },
        {
          "duration": 0.08522718749998148,
          "durationTicks": 120,
          "midi": 57,
          "name": "A3",
          "ticks": 183000,
          "time": 129.9714609375,
          "velocity": 0.30708661417322836
        },
        {
          "duration": 0.08522718749998148,
          "durationTicks": 120,
          "midi": 93,
          "name": "A6",
          "ticks": 183000,
          "time": 129.9714609375,
          "velocity": 0.30708661417322836
        },
        {
          "duration": 0.08522718749998148,
          "durationTicks": 120,
          "midi": 81,
          "name": "A5",
          "ticks": 183000,
          "time": 129.9714609375,
          "velocity": 0.30708661417322836
        },
        {
          "duration": 0.08522718749998148,
          "durationTicks": 120,
          "midi": 89,
          "name": "F6",
          "ticks": 183000,
          "time": 129.9714609375,
          "velocity": 0.30708661417322836
        },
        {
          "duration": 0.08522718749998148,
          "durationTicks": 120,
          "midi": 86,
          "name": "D6",
          "ticks": 183000,
          "time": 129.9714609375,
          "velocity": 0.30708661417322836
        },
        {
          "duration": 0.08522718749998148,
          "durationTicks": 120,
          "midi": 77,
          "name": "F5",
          "ticks": 183000,
          "time": 129.9714609375,
          "velocity": 0.30708661417322836
        },
        {
          "duration": 0.08522718749998148,
          "durationTicks": 120,
          "midi": 53,
          "name": "F3",
          "ticks": 183000,
          "time": 129.9714609375,
          "velocity": 0.30708661417322836
        },
        {
          "duration": 0.0852271875000099,
          "durationTicks": 120,
          "midi": 56,
          "name": "G#3",
          "ticks": 183216,
          "time": 130.124869875,
          "velocity": 0.30708661417322836
        },
        {
          "duration": 0.0852271875000099,
          "durationTicks": 120,
          "midi": 76,
          "name": "E5",
          "ticks": 183216,
          "time": 130.124869875,
          "velocity": 0.30708661417322836
        },
        {
          "duration": 0.0852271875000099,
          "durationTicks": 120,
          "midi": 81,
          "name": "A5",
          "ticks": 183216,
          "time": 130.124869875,
          "velocity": 0.30708661417322836
        },
        {
          "duration": 0.0852271875000099,
          "durationTicks": 120,
          "midi": 56,
          "name": "G#3",
          "ticks": 183216,
          "time": 130.124869875,
          "velocity": 0.30708661417322836
        },
        {
          "duration": 0.0852271875000099,
          "durationTicks": 120,
          "midi": 91,
          "name": "G6",
          "ticks": 183216,
          "time": 130.124869875,
          "velocity": 0.30708661417322836
        },
        {
          "duration": 0.0852271875000099,
          "durationTicks": 120,
          "midi": 88,
          "name": "E6",
          "ticks": 183216,
          "time": 130.124869875,
          "velocity": 0.30708661417322836
        },
        {
          "duration": 0.0852271875000099,
          "durationTicks": 120,
          "midi": 40,
          "name": "E2",
          "ticks": 183216,
          "time": 130.124869875,
          "velocity": 0.30708661417322836
        },
        {
          "duration": 0.0852271875000099,
          "durationTicks": 120,
          "midi": 91,
          "name": "G6",
          "ticks": 183216,
          "time": 130.124869875,
          "velocity": 0.30708661417322836
        },
        {
          "duration": 0.0852271875000099,
          "durationTicks": 120,
          "midi": 88,
          "name": "E6",
          "ticks": 183216,
          "time": 130.124869875,
          "velocity": 0.30708661417322836
        },
        {
          "duration": 0.0852271875000099,
          "durationTicks": 120,
          "midi": 81,
          "name": "A5",
          "ticks": 183216,
          "time": 130.124869875,
          "velocity": 0.30708661417322836
        },
        {
          "duration": 0.0852271875000099,
          "durationTicks": 120,
          "midi": 52,
          "name": "E3",
          "ticks": 183216,
          "time": 130.124869875,
          "velocity": 0.30708661417322836
        },
        {
          "duration": 0.0852271875000099,
          "durationTicks": 120,
          "midi": 52,
          "name": "E3",
          "ticks": 183216,
          "time": 130.124869875,
          "velocity": 0.30708661417322836
        },
        {
          "duration": 0.0852271875000099,
          "durationTicks": 120,
          "midi": 84,
          "name": "C6",
          "ticks": 183216,
          "time": 130.124869875,
          "velocity": 0.30708661417322836
        },
        {
          "duration": 0.0852271875000099,
          "durationTicks": 120,
          "midi": 40,
          "name": "E2",
          "ticks": 183216,
          "time": 130.124869875,
          "velocity": 0.30708661417322836
        },
        {
          "duration": 0.0852271875000099,
          "durationTicks": 120,
          "midi": 76,
          "name": "E5",
          "ticks": 183216,
          "time": 130.124869875,
          "velocity": 0.30708661417322836
        },
        {
          "duration": 0.0852271875000099,
          "durationTicks": 120,
          "midi": 84,
          "name": "C6",
          "ticks": 183216,
          "time": 130.124869875,
          "velocity": 0.30708661417322836
        },
        {
          "duration": 0.08522718749998148,
          "durationTicks": 120,
          "midi": 88,
          "name": "E6",
          "ticks": 183240,
          "time": 130.1419153125,
          "velocity": 0.30708661417322836
        },
        {
          "duration": 0.08522718749998148,
          "durationTicks": 120,
          "midi": 56,
          "name": "G#3",
          "ticks": 183240,
          "time": 130.1419153125,
          "velocity": 0.30708661417322836
        },
        {
          "duration": 0.08522718749998148,
          "durationTicks": 120,
          "midi": 52,
          "name": "E3",
          "ticks": 183240,
          "time": 130.1419153125,
          "velocity": 0.30708661417322836
        },
        {
          "duration": 0.08522718749998148,
          "durationTicks": 120,
          "midi": 91,
          "name": "G6",
          "ticks": 183240,
          "time": 130.1419153125,
          "velocity": 0.30708661417322836
        },
        {
          "duration": 0.08522718749998148,
          "durationTicks": 120,
          "midi": 81,
          "name": "A5",
          "ticks": 183240,
          "time": 130.1419153125,
          "velocity": 0.30708661417322836
        },
        {
          "duration": 0.08522718749998148,
          "durationTicks": 120,
          "midi": 76,
          "name": "E5",
          "ticks": 183240,
          "time": 130.1419153125,
          "velocity": 0.30708661417322836
        },
        {
          "duration": 0.08522718749998148,
          "durationTicks": 120,
          "midi": 84,
          "name": "C6",
          "ticks": 183240,
          "time": 130.1419153125,
          "velocity": 0.30708661417322836
        },
        {
          "duration": 0.08522718749998148,
          "durationTicks": 120,
          "midi": 40,
          "name": "E2",
          "ticks": 183240,
          "time": 130.1419153125,
          "velocity": 0.30708661417322836
        },
        {
          "duration": 0.0852271875000099,
          "durationTicks": 120,
          "midi": 76,
          "name": "E5",
          "ticks": 183456,
          "time": 130.29532425,
          "velocity": 0.30708661417322836
        },
        {
          "duration": 0.0852271875000099,
          "durationTicks": 120,
          "midi": 36,
          "name": "C2",
          "ticks": 183456,
          "time": 130.29532425,
          "velocity": 0.30708661417322836
        },
        {
          "duration": 0.0852271875000099,
          "durationTicks": 120,
          "midi": 81,
          "name": "A5",
          "ticks": 183456,
          "time": 130.29532425,
          "velocity": 0.30708661417322836
        },
        {
          "duration": 0.0852271875000099,
          "durationTicks": 120,
          "midi": 84,
          "name": "C6",
          "ticks": 183456,
          "time": 130.29532425,
          "velocity": 0.30708661417322836
        },
        {
          "duration": 0.0852271875000099,
          "durationTicks": 120,
          "midi": 88,
          "name": "E6",
          "ticks": 183456,
          "time": 130.29532425,
          "velocity": 0.30708661417322836
        },
        {
          "duration": 0.0852271875000099,
          "durationTicks": 120,
          "midi": 88,
          "name": "E6",
          "ticks": 183456,
          "time": 130.29532425,
          "velocity": 0.30708661417322836
        },
        {
          "duration": 0.0852271875000099,
          "durationTicks": 120,
          "midi": 76,
          "name": "E5",
          "ticks": 183456,
          "time": 130.29532425,
          "velocity": 0.30708661417322836
        },
        {
          "duration": 0.0852271875000099,
          "durationTicks": 120,
          "midi": 36,
          "name": "C2",
          "ticks": 183456,
          "time": 130.29532425,
          "velocity": 0.30708661417322836
        },
        {
          "duration": 0.0852271875000099,
          "durationTicks": 120,
          "midi": 84,
          "name": "C6",
          "ticks": 183456,
          "time": 130.29532425,
          "velocity": 0.30708661417322836
        },
        {
          "duration": 0.0852271875000099,
          "durationTicks": 120,
          "midi": 48,
          "name": "C3",
          "ticks": 183456,
          "time": 130.29532425,
          "velocity": 0.30708661417322836
        },
        {
          "duration": 0.0852271875000099,
          "durationTicks": 120,
          "midi": 72,
          "name": "C5",
          "ticks": 183456,
          "time": 130.29532425,
          "velocity": 0.30708661417322836
        },
        {
          "duration": 0.0852271875000099,
          "durationTicks": 120,
          "midi": 48,
          "name": "C3",
          "ticks": 183456,
          "time": 130.29532425,
          "velocity": 0.30708661417322836
        },
        {
          "duration": 0.0852271875000099,
          "durationTicks": 120,
          "midi": 81,
          "name": "A5",
          "ticks": 183456,
          "time": 130.29532425,
          "velocity": 0.30708661417322836
        },
        {
          "duration": 0.0852271875000099,
          "durationTicks": 120,
          "midi": 72,
          "name": "C5",
          "ticks": 183456,
          "time": 130.29532425,
          "velocity": 0.30708661417322836
        },
        {
          "duration": 0.0852271875000099,
          "durationTicks": 120,
          "midi": 48,
          "name": "C3",
          "ticks": 183480,
          "time": 130.3123696875,
          "velocity": 0.30708661417322836
        },
        {
          "duration": 0.0852271875000099,
          "durationTicks": 120,
          "midi": 72,
          "name": "C5",
          "ticks": 183480,
          "time": 130.3123696875,
          "velocity": 0.30708661417322836
        },
        {
          "duration": 0.0852271875000099,
          "durationTicks": 120,
          "midi": 84,
          "name": "C6",
          "ticks": 183480,
          "time": 130.3123696875,
          "velocity": 0.30708661417322836
        },
        {
          "duration": 0.0852271875000099,
          "durationTicks": 120,
          "midi": 88,
          "name": "E6",
          "ticks": 183480,
          "time": 130.3123696875,
          "velocity": 0.30708661417322836
        },
        {
          "duration": 0.0852271875000099,
          "durationTicks": 120,
          "midi": 36,
          "name": "C2",
          "ticks": 183480,
          "time": 130.3123696875,
          "velocity": 0.30708661417322836
        },
        {
          "duration": 0.0852271875000099,
          "durationTicks": 120,
          "midi": 81,
          "name": "A5",
          "ticks": 183480,
          "time": 130.3123696875,
          "velocity": 0.30708661417322836
        },
        {
          "duration": 0.0852271875000099,
          "durationTicks": 120,
          "midi": 76,
          "name": "E5",
          "ticks": 183480,
          "time": 130.3123696875,
          "velocity": 0.30708661417322836
        },
        {
          "duration": 0.0852271875000099,
          "durationTicks": 120,
          "midi": 83,
          "name": "B5",
          "ticks": 183696,
          "time": 130.46577862499998,
          "velocity": 0.30708661417322836
        },
        {
          "duration": 0.0852271875000099,
          "durationTicks": 120,
          "midi": 83,
          "name": "B5",
          "ticks": 183696,
          "time": 130.46577862499998,
          "velocity": 0.30708661417322836
        },
        {
          "duration": 0.0852271875000099,
          "durationTicks": 120,
          "midi": 74,
          "name": "D5",
          "ticks": 183696,
          "time": 130.46577862499998,
          "velocity": 0.30708661417322836
        },
        {
          "duration": 0.0852271875000099,
          "durationTicks": 120,
          "midi": 76,
          "name": "E5",
          "ticks": 183696,
          "time": 130.46577862499998,
          "velocity": 0.30708661417322836
        },
        {
          "duration": 0.0852271875000099,
          "durationTicks": 120,
          "midi": 76,
          "name": "E5",
          "ticks": 183696,
          "time": 130.46577862499998,
          "velocity": 0.30708661417322836
        },
        {
          "duration": 0.0852271875000099,
          "durationTicks": 120,
          "midi": 86,
          "name": "D6",
          "ticks": 183696,
          "time": 130.46577862499998,
          "velocity": 0.30708661417322836
        },
        {
          "duration": 0.0852271875000099,
          "durationTicks": 120,
          "midi": 50,
          "name": "D3",
          "ticks": 183696,
          "time": 130.46577862499998,
          "velocity": 0.30708661417322836
        },
        {
          "duration": 0.0852271875000099,
          "durationTicks": 120,
          "midi": 86,
          "name": "D6",
          "ticks": 183696,
          "time": 130.46577862499998,
          "velocity": 0.30708661417322836
        },
        {
          "duration": 0.0852271875000099,
          "durationTicks": 120,
          "midi": 50,
          "name": "D3",
          "ticks": 183696,
          "time": 130.46577862499998,
          "velocity": 0.30708661417322836
        },
        {
          "duration": 0.0852271875000099,
          "durationTicks": 120,
          "midi": 38,
          "name": "D2",
          "ticks": 183696,
          "time": 130.46577862499998,
          "velocity": 0.30708661417322836
        },
        {
          "duration": 0.0852271875000099,
          "durationTicks": 120,
          "midi": 38,
          "name": "D2",
          "ticks": 183696,
          "time": 130.46577862499998,
          "velocity": 0.30708661417322836
        },
        {
          "duration": 0.0852271875000099,
          "durationTicks": 120,
          "midi": 74,
          "name": "D5",
          "ticks": 183696,
          "time": 130.46577862499998,
          "velocity": 0.30708661417322836
        },
        {
          "duration": 0.0852271875000099,
          "durationTicks": 120,
          "midi": 76,
          "name": "E5",
          "ticks": 183720,
          "time": 130.4828240625,
          "velocity": 0.30708661417322836
        },
        {
          "duration": 0.0852271875000099,
          "durationTicks": 120,
          "midi": 50,
          "name": "D3",
          "ticks": 183720,
          "time": 130.4828240625,
          "velocity": 0.30708661417322836
        },
        {
          "duration": 0.0852271875000099,
          "durationTicks": 120,
          "midi": 38,
          "name": "D2",
          "ticks": 183720,
          "time": 130.4828240625,
          "velocity": 0.30708661417322836
        },
        {
          "duration": 0.0852271875000099,
          "durationTicks": 120,
          "midi": 74,
          "name": "D5",
          "ticks": 183720,
          "time": 130.4828240625,
          "velocity": 0.30708661417322836
        },
        {
          "duration": 0.0852271875000099,
          "durationTicks": 120,
          "midi": 83,
          "name": "B5",
          "ticks": 183720,
          "time": 130.4828240625,
          "velocity": 0.30708661417322836
        },
        {
          "duration": 0.0852271875000099,
          "durationTicks": 120,
          "midi": 86,
          "name": "D6",
          "ticks": 183720,
          "time": 130.4828240625,
          "velocity": 0.30708661417322836
        },
        {
          "duration": 0.08522718749998148,
          "durationTicks": 120,
          "midi": 80,
          "name": "G#5",
          "ticks": 183936,
          "time": 130.636233,
          "velocity": 0.30708661417322836
        },
        {
          "duration": 0.08522718749998148,
          "durationTicks": 120,
          "midi": 71,
          "name": "B4",
          "ticks": 183936,
          "time": 130.636233,
          "velocity": 0.30708661417322836
        },
        {
          "duration": 0.08522718749998148,
          "durationTicks": 120,
          "midi": 83,
          "name": "B5",
          "ticks": 183936,
          "time": 130.636233,
          "velocity": 0.30708661417322836
        },
        {
          "duration": 0.08522718749998148,
          "durationTicks": 120,
          "midi": 80,
          "name": "G#5",
          "ticks": 183936,
          "time": 130.636233,
          "velocity": 0.30708661417322836
        },
        {
          "duration": 0.08522718749998148,
          "durationTicks": 120,
          "midi": 75,
          "name": "D#5",
          "ticks": 183936,
          "time": 130.636233,
          "velocity": 0.30708661417322836
        },
        {
          "duration": 0.08522718749998148,
          "durationTicks": 120,
          "midi": 35,
          "name": "B1",
          "ticks": 183936,
          "time": 130.636233,
          "velocity": 0.30708661417322836
        },
        {
          "duration": 0.08522718749998148,
          "durationTicks": 120,
          "midi": 35,
          "name": "B1",
          "ticks": 183936,
          "time": 130.636233,
          "velocity": 0.30708661417322836
        },
        {
          "duration": 0.08522718749998148,
          "durationTicks": 120,
          "midi": 83,
          "name": "B5",
          "ticks": 183936,
          "time": 130.636233,
          "velocity": 0.30708661417322836
        },
        {
          "duration": 0.08522718749998148,
          "durationTicks": 120,
          "midi": 47,
          "name": "B2",
          "ticks": 183936,
          "time": 130.636233,
          "velocity": 0.30708661417322836
        },
        {
          "duration": 0.08522718749998148,
          "durationTicks": 120,
          "midi": 75,
          "name": "D#5",
          "ticks": 183936,
          "time": 130.636233,
          "velocity": 0.30708661417322836
        },
        {
          "duration": 0.08522718749998148,
          "durationTicks": 120,
          "midi": 47,
          "name": "B2",
          "ticks": 183936,
          "time": 130.636233,
          "velocity": 0.30708661417322836
        },
        {
          "duration": 0.08522718749998148,
          "durationTicks": 120,
          "midi": 71,
          "name": "B4",
          "ticks": 183936,
          "time": 130.636233,
          "velocity": 0.30708661417322836
        },
        {
          "duration": 0.08522718749998148,
          "durationTicks": 120,
          "midi": 35,
          "name": "B1",
          "ticks": 183960,
          "time": 130.6532784375,
          "velocity": 0.30708661417322836
        },
        {
          "duration": 0.08522718749998148,
          "durationTicks": 120,
          "midi": 80,
          "name": "G#5",
          "ticks": 183960,
          "time": 130.6532784375,
          "velocity": 0.30708661417322836
        },
        {
          "duration": 0.08522718749998148,
          "durationTicks": 120,
          "midi": 71,
          "name": "B4",
          "ticks": 183960,
          "time": 130.6532784375,
          "velocity": 0.30708661417322836
        },
        {
          "duration": 0.08522718749998148,
          "durationTicks": 120,
          "midi": 47,
          "name": "B2",
          "ticks": 183960,
          "time": 130.6532784375,
          "velocity": 0.30708661417322836
        },
        {
          "duration": 0.08522718749998148,
          "durationTicks": 120,
          "midi": 75,
          "name": "D#5",
          "ticks": 183960,
          "time": 130.6532784375,
          "velocity": 0.30708661417322836
        },
        {
          "duration": 0.08522718749998148,
          "durationTicks": 120,
          "midi": 83,
          "name": "B5",
          "ticks": 183960,
          "time": 130.6532784375,
          "velocity": 0.30708661417322836
        },
        {
          "duration": 0.0852271875000099,
          "durationTicks": 120,
          "midi": 76,
          "name": "E5",
          "ticks": 184176,
          "time": 130.806687375,
          "velocity": 0.30708661417322836
        },
        {
          "duration": 0.0852271875000099,
          "durationTicks": 120,
          "midi": 81,
          "name": "A5",
          "ticks": 184176,
          "time": 130.806687375,
          "velocity": 0.30708661417322836
        },
        {
          "duration": 0.0852271875000099,
          "durationTicks": 120,
          "midi": 33,
          "name": "A1",
          "ticks": 184176,
          "time": 130.806687375,
          "velocity": 0.30708661417322836
        },
        {
          "duration": 0.0852271875000099,
          "durationTicks": 120,
          "midi": 81,
          "name": "A5",
          "ticks": 184176,
          "time": 130.806687375,
          "velocity": 0.30708661417322836
        },
        {
          "duration": 0.0852271875000099,
          "durationTicks": 120,
          "midi": 72,
          "name": "C5",
          "ticks": 184176,
          "time": 130.806687375,
          "velocity": 0.30708661417322836
        },
        {
          "duration": 0.0852271875000099,
          "durationTicks": 120,
          "midi": 69,
          "name": "A4",
          "ticks": 184176,
          "time": 130.806687375,
          "velocity": 0.30708661417322836
        },
        {
          "duration": 0.0852271875000099,
          "durationTicks": 120,
          "midi": 72,
          "name": "C5",
          "ticks": 184176,
          "time": 130.806687375,
          "velocity": 0.30708661417322836
        },
        {
          "duration": 0.0852271875000099,
          "durationTicks": 120,
          "midi": 76,
          "name": "E5",
          "ticks": 184176,
          "time": 130.806687375,
          "velocity": 0.30708661417322836
        },
        {
          "duration": 0.0852271875000099,
          "durationTicks": 120,
          "midi": 69,
          "name": "A4",
          "ticks": 184176,
          "time": 130.806687375,
          "velocity": 0.30708661417322836
        },
        {
          "duration": 0.0852271875000099,
          "durationTicks": 120,
          "midi": 45,
          "name": "A2",
          "ticks": 184176,
          "time": 130.806687375,
          "velocity": 0.30708661417322836
        },
        {
          "duration": 0.0852271875000099,
          "durationTicks": 120,
          "midi": 33,
          "name": "A1",
          "ticks": 184176,
          "time": 130.806687375,
          "velocity": 0.30708661417322836
        },
        {
          "duration": 0.0852271875000099,
          "durationTicks": 120,
          "midi": 45,
          "name": "A2",
          "ticks": 184176,
          "time": 130.806687375,
          "velocity": 0.30708661417322836
        },
        {
          "duration": 0.0852271875000099,
          "durationTicks": 120,
          "midi": 76,
          "name": "E5",
          "ticks": 184200,
          "time": 130.8237328125,
          "velocity": 0.30708661417322836
        },
        {
          "duration": 0.0852271875000099,
          "durationTicks": 120,
          "midi": 69,
          "name": "A4",
          "ticks": 184200,
          "time": 130.8237328125,
          "velocity": 0.30708661417322836
        },
        {
          "duration": 0.0852271875000099,
          "durationTicks": 120,
          "midi": 45,
          "name": "A2",
          "ticks": 184200,
          "time": 130.8237328125,
          "velocity": 0.30708661417322836
        },
        {
          "duration": 0.0852271875000099,
          "durationTicks": 120,
          "midi": 33,
          "name": "A1",
          "ticks": 184200,
          "time": 130.8237328125,
          "velocity": 0.30708661417322836
        },
        {
          "duration": 0.0852271875000099,
          "durationTicks": 120,
          "midi": 81,
          "name": "A5",
          "ticks": 184200,
          "time": 130.8237328125,
          "velocity": 0.30708661417322836
        },
        {
          "duration": 0.0852271875000099,
          "durationTicks": 120,
          "midi": 72,
          "name": "C5",
          "ticks": 184200,
          "time": 130.8237328125,
          "velocity": 0.30708661417322836
        },
        {
          "duration": 0.0852271875000099,
          "durationTicks": 120,
          "midi": 72,
          "name": "C5",
          "ticks": 184896,
          "time": 131.3180505,
          "velocity": 0.30708661417322836
        },
        {
          "duration": 0.0852271875000099,
          "durationTicks": 120,
          "midi": 52,
          "name": "E3",
          "ticks": 184896,
          "time": 131.3180505,
          "velocity": 0.30708661417322836
        },
        {
          "duration": 0.0852271875000099,
          "durationTicks": 120,
          "midi": 84,
          "name": "C6",
          "ticks": 184896,
          "time": 131.3180505,
          "velocity": 0.30708661417322836
        },
        {
          "duration": 0.0852271875000099,
          "durationTicks": 120,
          "midi": 56,
          "name": "G#3",
          "ticks": 184896,
          "time": 131.3180505,
          "velocity": 0.30708661417322836
        },
        {
          "duration": 0.0852271875000099,
          "durationTicks": 120,
          "midi": 84,
          "name": "C6",
          "ticks": 184896,
          "time": 131.3180505,
          "velocity": 0.30708661417322836
        },
        {
          "duration": 0.0852271875000099,
          "durationTicks": 120,
          "midi": 81,
          "name": "A5",
          "ticks": 184896,
          "time": 131.3180505,
          "velocity": 0.30708661417322836
        },
        {
          "duration": 0.0852271875000099,
          "durationTicks": 120,
          "midi": 59,
          "name": "B3",
          "ticks": 184896,
          "time": 131.3180505,
          "velocity": 0.30708661417322836
        },
        {
          "duration": 0.0852271875000099,
          "durationTicks": 120,
          "midi": 64,
          "name": "E4",
          "ticks": 184896,
          "time": 131.3180505,
          "velocity": 0.30708661417322836
        },
        {
          "duration": 0.0852271875000099,
          "durationTicks": 120,
          "midi": 40,
          "name": "E2",
          "ticks": 184896,
          "time": 131.3180505,
          "velocity": 0.30708661417322836
        },
        {
          "duration": 0.0852271875000099,
          "durationTicks": 120,
          "midi": 28,
          "name": "E1",
          "ticks": 184896,
          "time": 131.3180505,
          "velocity": 0.30708661417322836
        },
        {
          "duration": 0.0852271875000099,
          "durationTicks": 120,
          "midi": 40,
          "name": "E2",
          "ticks": 184896,
          "time": 131.3180505,
          "velocity": 0.30708661417322836
        },
        {
          "duration": 0.0852271875000099,
          "durationTicks": 120,
          "midi": 64,
          "name": "E4",
          "ticks": 184896,
          "time": 131.3180505,
          "velocity": 0.30708661417322836
        },
        {
          "duration": 0.0852271875000099,
          "durationTicks": 120,
          "midi": 69,
          "name": "A4",
          "ticks": 184896,
          "time": 131.3180505,
          "velocity": 0.30708661417322836
        },
        {
          "duration": 0.0852271875000099,
          "durationTicks": 120,
          "midi": 76,
          "name": "E5",
          "ticks": 184896,
          "time": 131.3180505,
          "velocity": 0.30708661417322836
        },
        {
          "duration": 0.0852271875000099,
          "durationTicks": 120,
          "midi": 28,
          "name": "E1",
          "ticks": 184896,
          "time": 131.3180505,
          "velocity": 0.30708661417322836
        },
        {
          "duration": 0.0852271875000099,
          "durationTicks": 120,
          "midi": 88,
          "name": "E6",
          "ticks": 184896,
          "time": 131.3180505,
          "velocity": 0.30708661417322836
        },
        {
          "duration": 0.0852271875000099,
          "durationTicks": 120,
          "midi": 88,
          "name": "E6",
          "ticks": 184896,
          "time": 131.3180505,
          "velocity": 0.30708661417322836
        },
        {
          "duration": 0.0852271875000099,
          "durationTicks": 120,
          "midi": 76,
          "name": "E5",
          "ticks": 184896,
          "time": 131.3180505,
          "velocity": 0.30708661417322836
        },
        {
          "duration": 0.0852271875000099,
          "durationTicks": 120,
          "midi": 69,
          "name": "A4",
          "ticks": 184896,
          "time": 131.3180505,
          "velocity": 0.30708661417322836
        },
        {
          "duration": 0.0852271875000099,
          "durationTicks": 120,
          "midi": 59,
          "name": "B3",
          "ticks": 184896,
          "time": 131.3180505,
          "velocity": 0.30708661417322836
        },
        {
          "duration": 0.0852271875000099,
          "durationTicks": 120,
          "midi": 56,
          "name": "G#3",
          "ticks": 184896,
          "time": 131.3180505,
          "velocity": 0.30708661417322836
        },
        {
          "duration": 0.0852271875000099,
          "durationTicks": 120,
          "midi": 72,
          "name": "C5",
          "ticks": 184896,
          "time": 131.3180505,
          "velocity": 0.30708661417322836
        },
        {
          "duration": 0.0852271875000099,
          "durationTicks": 120,
          "midi": 81,
          "name": "A5",
          "ticks": 184896,
          "time": 131.3180505,
          "velocity": 0.30708661417322836
        },
        {
          "duration": 0.0852271875000099,
          "durationTicks": 120,
          "midi": 52,
          "name": "E3",
          "ticks": 184896,
          "time": 131.3180505,
          "velocity": 0.30708661417322836
        },
        {
          "duration": 0.0852271875000099,
          "durationTicks": 120,
          "midi": 88,
          "name": "E6",
          "ticks": 184920,
          "time": 131.3350959375,
          "velocity": 0.30708661417322836
        },
        {
          "duration": 0.0852271875000099,
          "durationTicks": 120,
          "midi": 28,
          "name": "E1",
          "ticks": 184920,
          "time": 131.3350959375,
          "velocity": 0.30708661417322836
        },
        {
          "duration": 0.0852271875000099,
          "durationTicks": 120,
          "midi": 56,
          "name": "G#3",
          "ticks": 184920,
          "time": 131.3350959375,
          "velocity": 0.30708661417322836
        },
        {
          "duration": 0.0852271875000099,
          "durationTicks": 120,
          "midi": 59,
          "name": "B3",
          "ticks": 184920,
          "time": 131.3350959375,
          "velocity": 0.30708661417322836
        },
        {
          "duration": 0.0852271875000099,
          "durationTicks": 120,
          "midi": 64,
          "name": "E4",
          "ticks": 184920,
          "time": 131.3350959375,
          "velocity": 0.30708661417322836
        },
        {
          "duration": 0.0852271875000099,
          "durationTicks": 120,
          "midi": 40,
          "name": "E2",
          "ticks": 184920,
          "time": 131.3350959375,
          "velocity": 0.30708661417322836
        },
        {
          "duration": 0.0852271875000099,
          "durationTicks": 120,
          "midi": 76,
          "name": "E5",
          "ticks": 184920,
          "time": 131.3350959375,
          "velocity": 0.30708661417322836
        },
        {
          "duration": 0.0852271875000099,
          "durationTicks": 120,
          "midi": 81,
          "name": "A5",
          "ticks": 184920,
          "time": 131.3350959375,
          "velocity": 0.30708661417322836
        },
        {
          "duration": 0.0852271875000099,
          "durationTicks": 120,
          "midi": 69,
          "name": "A4",
          "ticks": 184920,
          "time": 131.3350959375,
          "velocity": 0.30708661417322836
        },
        {
          "duration": 0.0852271875000099,
          "durationTicks": 120,
          "midi": 84,
          "name": "C6",
          "ticks": 184920,
          "time": 131.3350959375,
          "velocity": 0.30708661417322836
        },
        {
          "duration": 0.0852271875000099,
          "durationTicks": 120,
          "midi": 52,
          "name": "E3",
          "ticks": 184920,
          "time": 131.3350959375,
          "velocity": 0.30708661417322836
        },
        {
          "duration": 0.0852271875000099,
          "durationTicks": 120,
          "midi": 72,
          "name": "C5",
          "ticks": 184920,
          "time": 131.3350959375,
          "velocity": 0.30708661417322836
        },
        {
          "duration": 0.0852271875000099,
          "durationTicks": 120,
          "midi": 84,
          "name": "C6",
          "ticks": 185136,
          "time": 131.488504875,
          "velocity": 0.30708661417322836
        },
        {
          "duration": 0.0852271875000099,
          "durationTicks": 120,
          "midi": 52,
          "name": "E3",
          "ticks": 185136,
          "time": 131.488504875,
          "velocity": 0.30708661417322836
        },
        {
          "duration": 0.0852271875000099,
          "durationTicks": 120,
          "midi": 69,
          "name": "A4",
          "ticks": 185136,
          "time": 131.488504875,
          "velocity": 0.30708661417322836
        },
        {
          "duration": 0.0852271875000099,
          "durationTicks": 120,
          "midi": 69,
          "name": "A4",
          "ticks": 185136,
          "time": 131.488504875,
          "velocity": 0.30708661417322836
        },
        {
          "duration": 0.0852271875000099,
          "durationTicks": 120,
          "midi": 60,
          "name": "C4",
          "ticks": 185136,
          "time": 131.488504875,
          "velocity": 0.30708661417322836
        },
        {
          "duration": 0.0852271875000099,
          "durationTicks": 120,
          "midi": 64,
          "name": "E4",
          "ticks": 185136,
          "time": 131.488504875,
          "velocity": 0.30708661417322836
        },
        {
          "duration": 0.0852271875000099,
          "durationTicks": 120,
          "midi": 45,
          "name": "A2",
          "ticks": 185136,
          "time": 131.488504875,
          "velocity": 0.30708661417322836
        },
        {
          "duration": 0.0852271875000099,
          "durationTicks": 120,
          "midi": 64,
          "name": "E4",
          "ticks": 185136,
          "time": 131.488504875,
          "velocity": 0.30708661417322836
        },
        {
          "duration": 0.0852271875000099,
          "durationTicks": 120,
          "midi": 84,
          "name": "C6",
          "ticks": 185136,
          "time": 131.488504875,
          "velocity": 0.30708661417322836
        },
        {
          "duration": 0.0852271875000099,
          "durationTicks": 120,
          "midi": 57,
          "name": "A3",
          "ticks": 185136,
          "time": 131.488504875,
          "velocity": 0.30708661417322836
        },
        {
          "duration": 0.0852271875000099,
          "durationTicks": 120,
          "midi": 52,
          "name": "E3",
          "ticks": 185136,
          "time": 131.488504875,
          "velocity": 0.30708661417322836
        },
        {
          "duration": 0.0852271875000099,
          "durationTicks": 120,
          "midi": 60,
          "name": "C4",
          "ticks": 185136,
          "time": 131.488504875,
          "velocity": 0.30708661417322836
        },
        {
          "duration": 0.0852271875000099,
          "durationTicks": 120,
          "midi": 57,
          "name": "A3",
          "ticks": 185136,
          "time": 131.488504875,
          "velocity": 0.30708661417322836
        },
        {
          "duration": 0.0852271875000099,
          "durationTicks": 120,
          "midi": 72,
          "name": "C5",
          "ticks": 185136,
          "time": 131.488504875,
          "velocity": 0.30708661417322836
        },
        {
          "duration": 0.0852271875000099,
          "durationTicks": 120,
          "midi": 76,
          "name": "E5",
          "ticks": 185136,
          "time": 131.488504875,
          "velocity": 0.30708661417322836
        },
        {
          "duration": 0.0852271875000099,
          "durationTicks": 120,
          "midi": 93,
          "name": "A6",
          "ticks": 185136,
          "time": 131.488504875,
          "velocity": 0.30708661417322836
        },
        {
          "duration": 0.0852271875000099,
          "durationTicks": 120,
          "midi": 33,
          "name": "A1",
          "ticks": 185136,
          "time": 131.488504875,
          "velocity": 0.30708661417322836
        },
        {
          "duration": 0.0852271875000099,
          "durationTicks": 120,
          "midi": 93,
          "name": "A6",
          "ticks": 185136,
          "time": 131.488504875,
          "velocity": 0.30708661417322836
        },
        {
          "duration": 0.0852271875000099,
          "durationTicks": 120,
          "midi": 81,
          "name": "A5",
          "ticks": 185136,
          "time": 131.488504875,
          "velocity": 0.30708661417322836
        },
        {
          "duration": 0.0852271875000099,
          "durationTicks": 120,
          "midi": 33,
          "name": "A1",
          "ticks": 185136,
          "time": 131.488504875,
          "velocity": 0.30708661417322836
        },
        {
          "duration": 0.0852271875000099,
          "durationTicks": 120,
          "midi": 72,
          "name": "C5",
          "ticks": 185136,
          "time": 131.488504875,
          "velocity": 0.30708661417322836
        },
        {
          "duration": 0.0852271875000099,
          "durationTicks": 120,
          "midi": 76,
          "name": "E5",
          "ticks": 185136,
          "time": 131.488504875,
          "velocity": 0.30708661417322836
        },
        {
          "duration": 0.0852271875000099,
          "durationTicks": 120,
          "midi": 45,
          "name": "A2",
          "ticks": 185136,
          "time": 131.488504875,
          "velocity": 0.30708661417322836
        },
        {
          "duration": 0.0852271875000099,
          "durationTicks": 120,
          "midi": 88,
          "name": "E6",
          "ticks": 185136,
          "time": 131.488504875,
          "velocity": 0.30708661417322836
        },
        {
          "duration": 0.0852271875000099,
          "durationTicks": 120,
          "midi": 81,
          "name": "A5",
          "ticks": 185136,
          "time": 131.488504875,
          "velocity": 0.30708661417322836
        },
        {
          "duration": 0.0852271875000099,
          "durationTicks": 120,
          "midi": 88,
          "name": "E6",
          "ticks": 185136,
          "time": 131.488504875,
          "velocity": 0.30708661417322836
        },
        {
          "duration": 0.0852271875000099,
          "durationTicks": 120,
          "midi": 81,
          "name": "A5",
          "ticks": 185160,
          "time": 131.5055503125,
          "velocity": 0.30708661417322836
        },
        {
          "duration": 0.0852271875000099,
          "durationTicks": 120,
          "midi": 45,
          "name": "A2",
          "ticks": 185160,
          "time": 131.5055503125,
          "velocity": 0.30708661417322836
        },
        {
          "duration": 0.0852271875000099,
          "durationTicks": 120,
          "midi": 60,
          "name": "C4",
          "ticks": 185160,
          "time": 131.5055503125,
          "velocity": 0.30708661417322836
        },
        {
          "duration": 0.0852271875000099,
          "durationTicks": 120,
          "midi": 72,
          "name": "C5",
          "ticks": 185160,
          "time": 131.5055503125,
          "velocity": 0.30708661417322836
        },
        {
          "duration": 0.0852271875000099,
          "durationTicks": 120,
          "midi": 93,
          "name": "A6",
          "ticks": 185160,
          "time": 131.5055503125,
          "velocity": 0.30708661417322836
        },
        {
          "duration": 0.0852271875000099,
          "durationTicks": 120,
          "midi": 84,
          "name": "C6",
          "ticks": 185160,
          "time": 131.5055503125,
          "velocity": 0.30708661417322836
        },
        {
          "duration": 0.0852271875000099,
          "durationTicks": 120,
          "midi": 64,
          "name": "E4",
          "ticks": 185160,
          "time": 131.5055503125,
          "velocity": 0.30708661417322836
        },
        {
          "duration": 0.0852271875000099,
          "durationTicks": 120,
          "midi": 69,
          "name": "A4",
          "ticks": 185160,
          "time": 131.5055503125,
          "velocity": 0.30708661417322836
        },
        {
          "duration": 0.0852271875000099,
          "durationTicks": 120,
          "midi": 76,
          "name": "E5",
          "ticks": 185160,
          "time": 131.5055503125,
          "velocity": 0.30708661417322836
        },
        {
          "duration": 0.0852271875000099,
          "durationTicks": 120,
          "midi": 88,
          "name": "E6",
          "ticks": 185160,
          "time": 131.5055503125,
          "velocity": 0.30708661417322836
        },
        {
          "duration": 0.0852271875000099,
          "durationTicks": 120,
          "midi": 52,
          "name": "E3",
          "ticks": 185160,
          "time": 131.5055503125,
          "velocity": 0.30708661417322836
        },
        {
          "duration": 0.0852271875000099,
          "durationTicks": 120,
          "midi": 33,
          "name": "A1",
          "ticks": 185160,
          "time": 131.5055503125,
          "velocity": 0.30708661417322836
        },
        {
          "duration": 0.0852271875000099,
          "durationTicks": 120,
          "midi": 57,
          "name": "A3",
          "ticks": 185160,
          "time": 131.5055503125,
          "velocity": 0.30708661417322836
        },
        {
          "duration": 0.0852271875000099,
          "durationTicks": 120,
          "midi": 94,
          "name": "A#6",
          "ticks": 185904,
          "time": 132.033958875,
          "velocity": 0.30708661417322836
        },
        {
          "duration": 0.0852271875000099,
          "durationTicks": 120,
          "midi": 65,
          "name": "F4",
          "ticks": 185904,
          "time": 132.033958875,
          "velocity": 0.30708661417322836
        },
        {
          "duration": 0.0852271875000099,
          "durationTicks": 120,
          "midi": 46,
          "name": "A#2",
          "ticks": 185904,
          "time": 132.033958875,
          "velocity": 0.30708661417322836
        },
        {
          "duration": 0.0852271875000099,
          "durationTicks": 120,
          "midi": 77,
          "name": "F5",
          "ticks": 185904,
          "time": 132.033958875,
          "velocity": 0.30708661417322836
        },
        {
          "duration": 0.0852271875000099,
          "durationTicks": 120,
          "midi": 46,
          "name": "A#2",
          "ticks": 185904,
          "time": 132.033958875,
          "velocity": 0.30708661417322836
        },
        {
          "duration": 0.0852271875000099,
          "durationTicks": 120,
          "midi": 65,
          "name": "F4",
          "ticks": 185904,
          "time": 132.033958875,
          "velocity": 0.30708661417322836
        },
        {
          "duration": 0.0852271875000099,
          "durationTicks": 120,
          "midi": 77,
          "name": "F5",
          "ticks": 185904,
          "time": 132.033958875,
          "velocity": 0.30708661417322836
        },
        {
          "duration": 0.0852271875000099,
          "durationTicks": 120,
          "midi": 73,
          "name": "C#5",
          "ticks": 185904,
          "time": 132.033958875,
          "velocity": 0.30708661417322836
        },
        {
          "duration": 0.0852271875000099,
          "durationTicks": 120,
          "midi": 73,
          "name": "C#5",
          "ticks": 185904,
          "time": 132.033958875,
          "velocity": 0.30708661417322836
        },
        {
          "duration": 0.0852271875000099,
          "durationTicks": 120,
          "midi": 85,
          "name": "C#6",
          "ticks": 185904,
          "time": 132.033958875,
          "velocity": 0.30708661417322836
        },
        {
          "duration": 0.0852271875000099,
          "durationTicks": 120,
          "midi": 94,
          "name": "A#6",
          "ticks": 185904,
          "time": 132.033958875,
          "velocity": 0.30708661417322836
        },
        {
          "duration": 0.0852271875000099,
          "durationTicks": 120,
          "midi": 89,
          "name": "F6",
          "ticks": 185904,
          "time": 132.033958875,
          "velocity": 0.30708661417322836
        },
        {
          "duration": 0.0852271875000099,
          "durationTicks": 120,
          "midi": 46,
          "name": "A#2",
          "ticks": 185904,
          "time": 132.033958875,
          "velocity": 0.30708661417322836
        },
        {
          "duration": 0.0852271875000099,
          "durationTicks": 120,
          "midi": 70,
          "name": "A#4",
          "ticks": 185904,
          "time": 132.033958875,
          "velocity": 0.30708661417322836
        },
        {
          "duration": 0.0852271875000099,
          "durationTicks": 120,
          "midi": 85,
          "name": "C#6",
          "ticks": 185904,
          "time": 132.033958875,
          "velocity": 0.30708661417322836
        },
        {
          "duration": 0.0852271875000099,
          "durationTicks": 120,
          "midi": 70,
          "name": "A#4",
          "ticks": 185904,
          "time": 132.033958875,
          "velocity": 0.30708661417322836
        },
        {
          "duration": 0.0852271875000099,
          "durationTicks": 120,
          "midi": 89,
          "name": "F6",
          "ticks": 185904,
          "time": 132.033958875,
          "velocity": 0.30708661417322836
        },
        {
          "duration": 0.0852271875000099,
          "durationTicks": 120,
          "midi": 82,
          "name": "A#5",
          "ticks": 185904,
          "time": 132.033958875,
          "velocity": 0.30708661417322836
        },
        {
          "duration": 0.0852271875000099,
          "durationTicks": 120,
          "midi": 82,
          "name": "A#5",
          "ticks": 185904,
          "time": 132.033958875,
          "velocity": 0.30708661417322836
        },
        {
          "duration": 0.0852271875000099,
          "durationTicks": 120,
          "midi": 46,
          "name": "A#2",
          "ticks": 185904,
          "time": 132.033958875,
          "velocity": 0.30708661417322836
        },
        {
          "duration": 0.0852271875000099,
          "durationTicks": 120,
          "midi": 77,
          "name": "F5",
          "ticks": 185928,
          "time": 132.0510043125,
          "velocity": 0.30708661417322836
        },
        {
          "duration": 0.0852271875000099,
          "durationTicks": 120,
          "midi": 46,
          "name": "A#2",
          "ticks": 185928,
          "time": 132.0510043125,
          "velocity": 0.30708661417322836
        },
        {
          "duration": 0.0852271875000099,
          "durationTicks": 120,
          "midi": 89,
          "name": "F6",
          "ticks": 185928,
          "time": 132.0510043125,
          "velocity": 0.30708661417322836
        },
        {
          "duration": 0.0852271875000099,
          "durationTicks": 120,
          "midi": 73,
          "name": "C#5",
          "ticks": 185928,
          "time": 132.0510043125,
          "velocity": 0.30708661417322836
        },
        {
          "duration": 0.0852271875000099,
          "durationTicks": 120,
          "midi": 46,
          "name": "A#2",
          "ticks": 185928,
          "time": 132.0510043125,
          "velocity": 0.30708661417322836
        },
        {
          "duration": 0.0852271875000099,
          "durationTicks": 120,
          "midi": 85,
          "name": "C#6",
          "ticks": 185928,
          "time": 132.0510043125,
          "velocity": 0.30708661417322836
        },
        {
          "duration": 0.0852271875000099,
          "durationTicks": 120,
          "midi": 82,
          "name": "A#5",
          "ticks": 185928,
          "time": 132.0510043125,
          "velocity": 0.30708661417322836
        },
        {
          "duration": 0.0852271875000099,
          "durationTicks": 120,
          "midi": 94,
          "name": "A#6",
          "ticks": 185928,
          "time": 132.0510043125,
          "velocity": 0.30708661417322836
        },
        {
          "duration": 0.0852271875000099,
          "durationTicks": 120,
          "midi": 65,
          "name": "F4",
          "ticks": 185928,
          "time": 132.0510043125,
          "velocity": 0.30708661417322836
        },
        {
          "duration": 0.0852271875000099,
          "durationTicks": 120,
          "midi": 70,
          "name": "A#4",
          "ticks": 185928,
          "time": 132.0510043125,
          "velocity": 0.30708661417322836
        },
        {
          "duration": 0.08522718749998148,
          "durationTicks": 120,
          "midi": 70,
          "name": "A#4",
          "ticks": 186024,
          "time": 132.1191860625,
          "velocity": 0.30708661417322836
        },
        {
          "duration": 0.08522718749998148,
          "durationTicks": 120,
          "midi": 70,
          "name": "A#4",
          "ticks": 186024,
          "time": 132.1191860625,
          "velocity": 0.30708661417322836
        },
        {
          "duration": 0.08522718749998148,
          "durationTicks": 120,
          "midi": 82,
          "name": "A#5",
          "ticks": 186024,
          "time": 132.1191860625,
          "velocity": 0.30708661417322836
        },
        {
          "duration": 0.08522718749998148,
          "durationTicks": 120,
          "midi": 77,
          "name": "F5",
          "ticks": 186024,
          "time": 132.1191860625,
          "velocity": 0.30708661417322836
        },
        {
          "duration": 0.08522718749998148,
          "durationTicks": 120,
          "midi": 65,
          "name": "F4",
          "ticks": 186024,
          "time": 132.1191860625,
          "velocity": 0.30708661417322836
        },
        {
          "duration": 0.08522718749998148,
          "durationTicks": 120,
          "midi": 89,
          "name": "F6",
          "ticks": 186024,
          "time": 132.1191860625,
          "velocity": 0.30708661417322836
        },
        {
          "duration": 0.08522718749998148,
          "durationTicks": 120,
          "midi": 85,
          "name": "C#6",
          "ticks": 186024,
          "time": 132.1191860625,
          "velocity": 0.30708661417322836
        },
        {
          "duration": 0.08522718749998148,
          "durationTicks": 120,
          "midi": 94,
          "name": "A#6",
          "ticks": 186024,
          "time": 132.1191860625,
          "velocity": 0.30708661417322836
        },
        {
          "duration": 0.08522718749998148,
          "durationTicks": 120,
          "midi": 94,
          "name": "A#6",
          "ticks": 186024,
          "time": 132.1191860625,
          "velocity": 0.30708661417322836
        },
        {
          "duration": 0.08522718749998148,
          "durationTicks": 120,
          "midi": 85,
          "name": "C#6",
          "ticks": 186024,
          "time": 132.1191860625,
          "velocity": 0.30708661417322836
        },
        {
          "duration": 0.08522718749998148,
          "durationTicks": 120,
          "midi": 89,
          "name": "F6",
          "ticks": 186024,
          "time": 132.1191860625,
          "velocity": 0.30708661417322836
        },
        {
          "duration": 0.08522718749998148,
          "durationTicks": 120,
          "midi": 65,
          "name": "F4",
          "ticks": 186024,
          "time": 132.1191860625,
          "velocity": 0.30708661417322836
        },
        {
          "duration": 0.08522718749998148,
          "durationTicks": 120,
          "midi": 77,
          "name": "F5",
          "ticks": 186024,
          "time": 132.1191860625,
          "velocity": 0.30708661417322836
        },
        {
          "duration": 0.08522718749998148,
          "durationTicks": 120,
          "midi": 73,
          "name": "C#5",
          "ticks": 186024,
          "time": 132.1191860625,
          "velocity": 0.30708661417322836
        },
        {
          "duration": 0.08522718749998148,
          "durationTicks": 120,
          "midi": 73,
          "name": "C#5",
          "ticks": 186024,
          "time": 132.1191860625,
          "velocity": 0.30708661417322836
        },
        {
          "duration": 0.08522718749998148,
          "durationTicks": 120,
          "midi": 82,
          "name": "A#5",
          "ticks": 186024,
          "time": 132.1191860625,
          "velocity": 0.30708661417322836
        },
        {
          "duration": 0.08522718749998148,
          "durationTicks": 120,
          "midi": 94,
          "name": "A#6",
          "ticks": 186048,
          "time": 132.1362315,
          "velocity": 0.30708661417322836
        },
        {
          "duration": 0.08522718749998148,
          "durationTicks": 120,
          "midi": 73,
          "name": "C#5",
          "ticks": 186048,
          "time": 132.1362315,
          "velocity": 0.30708661417322836
        },
        {
          "duration": 0.08522718749998148,
          "durationTicks": 120,
          "midi": 77,
          "name": "F5",
          "ticks": 186048,
          "time": 132.1362315,
          "velocity": 0.30708661417322836
        },
        {
          "duration": 0.08522718749998148,
          "durationTicks": 120,
          "midi": 82,
          "name": "A#5",
          "ticks": 186048,
          "time": 132.1362315,
          "velocity": 0.30708661417322836
        },
        {
          "duration": 0.08522718749998148,
          "durationTicks": 120,
          "midi": 85,
          "name": "C#6",
          "ticks": 186048,
          "time": 132.1362315,
          "velocity": 0.30708661417322836
        },
        {
          "duration": 0.08522718749998148,
          "durationTicks": 120,
          "midi": 89,
          "name": "F6",
          "ticks": 186048,
          "time": 132.1362315,
          "velocity": 0.30708661417322836
        },
        {
          "duration": 0.08522718749998148,
          "durationTicks": 120,
          "midi": 70,
          "name": "A#4",
          "ticks": 186048,
          "time": 132.1362315,
          "velocity": 0.30708661417322836
        },
        {
          "duration": 0.08522718749998148,
          "durationTicks": 120,
          "midi": 65,
          "name": "F4",
          "ticks": 186048,
          "time": 132.1362315,
          "velocity": 0.30708661417322836
        },
        {
          "duration": 0.0852271875000099,
          "durationTicks": 120,
          "midi": 70,
          "name": "A#4",
          "ticks": 186144,
          "time": 132.20441325,
          "velocity": 0.30708661417322836
        },
        {
          "duration": 0.0852271875000099,
          "durationTicks": 120,
          "midi": 49,
          "name": "C#3",
          "ticks": 186144,
          "time": 132.20441325,
          "velocity": 0.30708661417322836
        },
        {
          "duration": 0.0852271875000099,
          "durationTicks": 120,
          "midi": 77,
          "name": "F5",
          "ticks": 186144,
          "time": 132.20441325,
          "velocity": 0.30708661417322836
        },
        {
          "duration": 0.0852271875000099,
          "durationTicks": 120,
          "midi": 82,
          "name": "A#5",
          "ticks": 186144,
          "time": 132.20441325,
          "velocity": 0.30708661417322836
        },
        {
          "duration": 0.0852271875000099,
          "durationTicks": 120,
          "midi": 85,
          "name": "C#6",
          "ticks": 186144,
          "time": 132.20441325,
          "velocity": 0.30708661417322836
        },
        {
          "duration": 0.0852271875000099,
          "durationTicks": 120,
          "midi": 73,
          "name": "C#5",
          "ticks": 186144,
          "time": 132.20441325,
          "velocity": 0.30708661417322836
        },
        {
          "duration": 0.0852271875000099,
          "durationTicks": 120,
          "midi": 53,
          "name": "F3",
          "ticks": 186144,
          "time": 132.20441325,
          "velocity": 0.30708661417322836
        },
        {
          "duration": 0.0852271875000099,
          "durationTicks": 120,
          "midi": 53,
          "name": "F3",
          "ticks": 186144,
          "time": 132.20441325,
          "velocity": 0.30708661417322836
        },
        {
          "duration": 0.0852271875000099,
          "durationTicks": 120,
          "midi": 77,
          "name": "F5",
          "ticks": 186144,
          "time": 132.20441325,
          "velocity": 0.30708661417322836
        },
        {
          "duration": 0.0852271875000099,
          "durationTicks": 120,
          "midi": 89,
          "name": "F6",
          "ticks": 186144,
          "time": 132.20441325,
          "velocity": 0.30708661417322836
        },
        {
          "duration": 0.0852271875000099,
          "durationTicks": 120,
          "midi": 94,
          "name": "A#6",
          "ticks": 186144,
          "time": 132.20441325,
          "velocity": 0.30708661417322836
        },
        {
          "duration": 0.0852271875000099,
          "durationTicks": 120,
          "midi": 53,
          "name": "F3",
          "ticks": 186144,
          "time": 132.20441325,
          "velocity": 0.30708661417322836
        },
        {
          "duration": 0.0852271875000099,
          "durationTicks": 120,
          "midi": 82,
          "name": "A#5",
          "ticks": 186144,
          "time": 132.20441325,
          "velocity": 0.30708661417322836
        },
        {
          "duration": 0.0852271875000099,
          "durationTicks": 120,
          "midi": 70,
          "name": "A#4",
          "ticks": 186144,
          "time": 132.20441325,
          "velocity": 0.30708661417322836
        },
        {
          "duration": 0.0852271875000099,
          "durationTicks": 120,
          "midi": 49,
          "name": "C#3",
          "ticks": 186144,
          "time": 132.20441325,
          "velocity": 0.30708661417322836
        },
        {
          "duration": 0.0852271875000099,
          "durationTicks": 120,
          "midi": 73,
          "name": "C#5",
          "ticks": 186144,
          "time": 132.20441325,
          "velocity": 0.30708661417322836
        },
        {
          "duration": 0.0852271875000099,
          "durationTicks": 120,
          "midi": 85,
          "name": "C#6",
          "ticks": 186144,
          "time": 132.20441325,
          "velocity": 0.30708661417322836
        },
        {
          "duration": 0.0852271875000099,
          "durationTicks": 120,
          "midi": 65,
          "name": "F4",
          "ticks": 186144,
          "time": 132.20441325,
          "velocity": 0.30708661417322836
        },
        {
          "duration": 0.0852271875000099,
          "durationTicks": 120,
          "midi": 94,
          "name": "A#6",
          "ticks": 186144,
          "time": 132.20441325,
          "velocity": 0.30708661417322836
        },
        {
          "duration": 0.0852271875000099,
          "durationTicks": 120,
          "midi": 65,
          "name": "F4",
          "ticks": 186144,
          "time": 132.20441325,
          "velocity": 0.30708661417322836
        },
        {
          "duration": 0.0852271875000099,
          "durationTicks": 120,
          "midi": 53,
          "name": "F3",
          "ticks": 186144,
          "time": 132.20441325,
          "velocity": 0.30708661417322836
        },
        {
          "duration": 0.0852271875000099,
          "durationTicks": 120,
          "midi": 49,
          "name": "C#3",
          "ticks": 186144,
          "time": 132.20441325,
          "velocity": 0.30708661417322836
        },
        {
          "duration": 0.0852271875000099,
          "durationTicks": 120,
          "midi": 49,
          "name": "C#3",
          "ticks": 186144,
          "time": 132.20441325,
          "velocity": 0.30708661417322836
        },
        {
          "duration": 0.0852271875000099,
          "durationTicks": 120,
          "midi": 89,
          "name": "F6",
          "ticks": 186144,
          "time": 132.20441325,
          "velocity": 0.30708661417322836
        },
        {
          "duration": 0.0852271875000099,
          "durationTicks": 120,
          "midi": 94,
          "name": "A#6",
          "ticks": 186168,
          "time": 132.2214586875,
          "velocity": 0.30708661417322836
        },
        {
          "duration": 0.0852271875000099,
          "durationTicks": 120,
          "midi": 49,
          "name": "C#3",
          "ticks": 186168,
          "time": 132.2214586875,
          "velocity": 0.30708661417322836
        },
        {
          "duration": 0.0852271875000099,
          "durationTicks": 120,
          "midi": 65,
          "name": "F4",
          "ticks": 186168,
          "time": 132.2214586875,
          "velocity": 0.30708661417322836
        },
        {
          "duration": 0.0852271875000099,
          "durationTicks": 120,
          "midi": 85,
          "name": "C#6",
          "ticks": 186168,
          "time": 132.2214586875,
          "velocity": 0.30708661417322836
        },
        {
          "duration": 0.0852271875000099,
          "durationTicks": 120,
          "midi": 73,
          "name": "C#5",
          "ticks": 186168,
          "time": 132.2214586875,
          "velocity": 0.30708661417322836
        },
        {
          "duration": 0.0852271875000099,
          "durationTicks": 120,
          "midi": 53,
          "name": "F3",
          "ticks": 186168,
          "time": 132.2214586875,
          "velocity": 0.30708661417322836
        },
        {
          "duration": 0.0852271875000099,
          "durationTicks": 120,
          "midi": 70,
          "name": "A#4",
          "ticks": 186168,
          "time": 132.2214586875,
          "velocity": 0.30708661417322836
        },
        {
          "duration": 0.0852271875000099,
          "durationTicks": 120,
          "midi": 49,
          "name": "C#3",
          "ticks": 186168,
          "time": 132.2214586875,
          "velocity": 0.30708661417322836
        },
        {
          "duration": 0.0852271875000099,
          "durationTicks": 120,
          "midi": 82,
          "name": "A#5",
          "ticks": 186168,
          "time": 132.2214586875,
          "velocity": 0.30708661417322836
        },
        {
          "duration": 0.0852271875000099,
          "durationTicks": 120,
          "midi": 89,
          "name": "F6",
          "ticks": 186168,
          "time": 132.2214586875,
          "velocity": 0.30708661417322836
        },
        {
          "duration": 0.0852271875000099,
          "durationTicks": 120,
          "midi": 53,
          "name": "F3",
          "ticks": 186168,
          "time": 132.2214586875,
          "velocity": 0.30708661417322836
        },
        {
          "duration": 0.0852271875000099,
          "durationTicks": 120,
          "midi": 77,
          "name": "F5",
          "ticks": 186168,
          "time": 132.2214586875,
          "velocity": 0.30708661417322836
        },
        {
          "duration": 0.0852271875000099,
          "durationTicks": 120,
          "midi": 65,
          "name": "F4",
          "ticks": 186264,
          "time": 132.2896404375,
          "velocity": 0.30708661417322836
        },
        {
          "duration": 0.0852271875000099,
          "durationTicks": 120,
          "midi": 82,
          "name": "A#5",
          "ticks": 186264,
          "time": 132.2896404375,
          "velocity": 0.30708661417322836
        },
        {
          "duration": 0.0852271875000099,
          "durationTicks": 120,
          "midi": 85,
          "name": "C#6",
          "ticks": 186264,
          "time": 132.2896404375,
          "velocity": 0.30708661417322836
        },
        {
          "duration": 0.0852271875000099,
          "durationTicks": 120,
          "midi": 70,
          "name": "A#4",
          "ticks": 186264,
          "time": 132.2896404375,
          "velocity": 0.30708661417322836
        },
        {
          "duration": 0.0852271875000099,
          "durationTicks": 120,
          "midi": 77,
          "name": "F5",
          "ticks": 186264,
          "time": 132.2896404375,
          "velocity": 0.30708661417322836
        },
        {
          "duration": 0.0852271875000099,
          "durationTicks": 120,
          "midi": 73,
          "name": "C#5",
          "ticks": 186264,
          "time": 132.2896404375,
          "velocity": 0.30708661417322836
        },
        {
          "duration": 0.0852271875000099,
          "durationTicks": 120,
          "midi": 65,
          "name": "F4",
          "ticks": 186264,
          "time": 132.2896404375,
          "velocity": 0.30708661417322836
        },
        {
          "duration": 0.0852271875000099,
          "durationTicks": 120,
          "midi": 85,
          "name": "C#6",
          "ticks": 186264,
          "time": 132.2896404375,
          "velocity": 0.30708661417322836
        },
        {
          "duration": 0.0852271875000099,
          "durationTicks": 120,
          "midi": 73,
          "name": "C#5",
          "ticks": 186264,
          "time": 132.2896404375,
          "velocity": 0.30708661417322836
        },
        {
          "duration": 0.0852271875000099,
          "durationTicks": 120,
          "midi": 94,
          "name": "A#6",
          "ticks": 186264,
          "time": 132.2896404375,
          "velocity": 0.30708661417322836
        },
        {
          "duration": 0.0852271875000099,
          "durationTicks": 120,
          "midi": 89,
          "name": "F6",
          "ticks": 186264,
          "time": 132.2896404375,
          "velocity": 0.30708661417322836
        },
        {
          "duration": 0.0852271875000099,
          "durationTicks": 120,
          "midi": 70,
          "name": "A#4",
          "ticks": 186264,
          "time": 132.2896404375,
          "velocity": 0.30708661417322836
        },
        {
          "duration": 0.0852271875000099,
          "durationTicks": 120,
          "midi": 89,
          "name": "F6",
          "ticks": 186264,
          "time": 132.2896404375,
          "velocity": 0.30708661417322836
        },
        {
          "duration": 0.0852271875000099,
          "durationTicks": 120,
          "midi": 77,
          "name": "F5",
          "ticks": 186264,
          "time": 132.2896404375,
          "velocity": 0.30708661417322836
        },
        {
          "duration": 0.0852271875000099,
          "durationTicks": 120,
          "midi": 94,
          "name": "A#6",
          "ticks": 186264,
          "time": 132.2896404375,
          "velocity": 0.30708661417322836
        },
        {
          "duration": 0.0852271875000099,
          "durationTicks": 120,
          "midi": 82,
          "name": "A#5",
          "ticks": 186264,
          "time": 132.2896404375,
          "velocity": 0.30708661417322836
        },
        {
          "duration": 0.0852271875000099,
          "durationTicks": 120,
          "midi": 73,
          "name": "C#5",
          "ticks": 186288,
          "time": 132.306685875,
          "velocity": 0.30708661417322836
        },
        {
          "duration": 0.0852271875000099,
          "durationTicks": 120,
          "midi": 89,
          "name": "F6",
          "ticks": 186288,
          "time": 132.306685875,
          "velocity": 0.30708661417322836
        },
        {
          "duration": 0.0852271875000099,
          "durationTicks": 120,
          "midi": 70,
          "name": "A#4",
          "ticks": 186288,
          "time": 132.306685875,
          "velocity": 0.30708661417322836
        },
        {
          "duration": 0.0852271875000099,
          "durationTicks": 120,
          "midi": 65,
          "name": "F4",
          "ticks": 186288,
          "time": 132.306685875,
          "velocity": 0.30708661417322836
        },
        {
          "duration": 0.0852271875000099,
          "durationTicks": 120,
          "midi": 85,
          "name": "C#6",
          "ticks": 186288,
          "time": 132.306685875,
          "velocity": 0.30708661417322836
        },
        {
          "duration": 0.0852271875000099,
          "durationTicks": 120,
          "midi": 82,
          "name": "A#5",
          "ticks": 186288,
          "time": 132.306685875,
          "velocity": 0.30708661417322836
        },
        {
          "duration": 0.0852271875000099,
          "durationTicks": 120,
          "midi": 94,
          "name": "A#6",
          "ticks": 186288,
          "time": 132.306685875,
          "velocity": 0.30708661417322836
        },
        {
          "duration": 0.0852271875000099,
          "durationTicks": 120,
          "midi": 77,
          "name": "F5",
          "ticks": 186288,
          "time": 132.306685875,
          "velocity": 0.30708661417322836
        },
        {
          "duration": 0.08522718749998148,
          "durationTicks": 120,
          "midi": 85,
          "name": "C#6",
          "ticks": 186384,
          "time": 132.374867625,
          "velocity": 0.30708661417322836
        },
        {
          "duration": 0.08522718749998148,
          "durationTicks": 120,
          "midi": 41,
          "name": "F2",
          "ticks": 186384,
          "time": 132.374867625,
          "velocity": 0.30708661417322836
        },
        {
          "duration": 0.08522718749998148,
          "durationTicks": 120,
          "midi": 70,
          "name": "A#4",
          "ticks": 186384,
          "time": 132.374867625,
          "velocity": 0.30708661417322836
        },
        {
          "duration": 0.08522718749998148,
          "durationTicks": 120,
          "midi": 82,
          "name": "A#5",
          "ticks": 186384,
          "time": 132.374867625,
          "velocity": 0.30708661417322836
        },
        {
          "duration": 0.08522718749998148,
          "durationTicks": 120,
          "midi": 89,
          "name": "F6",
          "ticks": 186384,
          "time": 132.374867625,
          "velocity": 0.30708661417322836
        },
        {
          "duration": 0.08522718749998148,
          "durationTicks": 120,
          "midi": 85,
          "name": "C#6",
          "ticks": 186384,
          "time": 132.374867625,
          "velocity": 0.30708661417322836
        },
        {
          "duration": 0.08522718749998148,
          "durationTicks": 120,
          "midi": 94,
          "name": "A#6",
          "ticks": 186384,
          "time": 132.374867625,
          "velocity": 0.30708661417322836
        },
        {
          "duration": 0.08522718749998148,
          "durationTicks": 120,
          "midi": 65,
          "name": "F4",
          "ticks": 186384,
          "time": 132.374867625,
          "velocity": 0.30708661417322836
        },
        {
          "duration": 0.08522718749998148,
          "durationTicks": 120,
          "midi": 77,
          "name": "F5",
          "ticks": 186384,
          "time": 132.374867625,
          "velocity": 0.30708661417322836
        },
        {
          "duration": 0.08522718749998148,
          "durationTicks": 120,
          "midi": 94,
          "name": "A#6",
          "ticks": 186384,
          "time": 132.374867625,
          "velocity": 0.30708661417322836
        },
        {
          "duration": 0.08522718749998148,
          "durationTicks": 120,
          "midi": 41,
          "name": "F2",
          "ticks": 186384,
          "time": 132.374867625,
          "velocity": 0.30708661417322836
        },
        {
          "duration": 0.08522718749998148,
          "durationTicks": 120,
          "midi": 41,
          "name": "F2",
          "ticks": 186384,
          "time": 132.374867625,
          "velocity": 0.30708661417322836
        },
        {
          "duration": 0.08522718749998148,
          "durationTicks": 120,
          "midi": 41,
          "name": "F2",
          "ticks": 186384,
          "time": 132.374867625,
          "velocity": 0.30708661417322836
        },
        {
          "duration": 0.08522718749998148,
          "durationTicks": 120,
          "midi": 77,
          "name": "F5",
          "ticks": 186384,
          "time": 132.374867625,
          "velocity": 0.30708661417322836
        },
        {
          "duration": 0.08522718749998148,
          "durationTicks": 120,
          "midi": 73,
          "name": "C#5",
          "ticks": 186384,
          "time": 132.374867625,
          "velocity": 0.30708661417322836
        },
        {
          "duration": 0.08522718749998148,
          "durationTicks": 120,
          "midi": 70,
          "name": "A#4",
          "ticks": 186384,
          "time": 132.374867625,
          "velocity": 0.30708661417322836
        },
        {
          "duration": 0.08522718749998148,
          "durationTicks": 120,
          "midi": 89,
          "name": "F6",
          "ticks": 186384,
          "time": 132.374867625,
          "velocity": 0.30708661417322836
        },
        {
          "duration": 0.08522718749998148,
          "durationTicks": 120,
          "midi": 82,
          "name": "A#5",
          "ticks": 186384,
          "time": 132.374867625,
          "velocity": 0.30708661417322836
        },
        {
          "duration": 0.08522718749998148,
          "durationTicks": 120,
          "midi": 65,
          "name": "F4",
          "ticks": 186384,
          "time": 132.374867625,
          "velocity": 0.30708661417322836
        },
        {
          "duration": 0.08522718749998148,
          "durationTicks": 120,
          "midi": 73,
          "name": "C#5",
          "ticks": 186384,
          "time": 132.374867625,
          "velocity": 0.30708661417322836
        },
        {
          "duration": 0.08522718749998148,
          "durationTicks": 120,
          "midi": 85,
          "name": "C#6",
          "ticks": 186408,
          "time": 132.3919130625,
          "velocity": 0.30708661417322836
        },
        {
          "duration": 0.08522718749998148,
          "durationTicks": 120,
          "midi": 41,
          "name": "F2",
          "ticks": 186408,
          "time": 132.3919130625,
          "velocity": 0.30708661417322836
        },
        {
          "duration": 0.08522718749998148,
          "durationTicks": 120,
          "midi": 89,
          "name": "F6",
          "ticks": 186408,
          "time": 132.3919130625,
          "velocity": 0.30708661417322836
        },
        {
          "duration": 0.08522718749998148,
          "durationTicks": 120,
          "midi": 70,
          "name": "A#4",
          "ticks": 186408,
          "time": 132.3919130625,
          "velocity": 0.30708661417322836
        },
        {
          "duration": 0.08522718749998148,
          "durationTicks": 120,
          "midi": 73,
          "name": "C#5",
          "ticks": 186408,
          "time": 132.3919130625,
          "velocity": 0.30708661417322836
        },
        {
          "duration": 0.08522718749998148,
          "durationTicks": 120,
          "midi": 77,
          "name": "F5",
          "ticks": 186408,
          "time": 132.3919130625,
          "velocity": 0.30708661417322836
        },
        {
          "duration": 0.08522718749998148,
          "durationTicks": 120,
          "midi": 94,
          "name": "A#6",
          "ticks": 186408,
          "time": 132.3919130625,
          "velocity": 0.30708661417322836
        },
        {
          "duration": 0.08522718749998148,
          "durationTicks": 120,
          "midi": 65,
          "name": "F4",
          "ticks": 186408,
          "time": 132.3919130625,
          "velocity": 0.30708661417322836
        },
        {
          "duration": 0.08522718749998148,
          "durationTicks": 120,
          "midi": 41,
          "name": "F2",
          "ticks": 186408,
          "time": 132.3919130625,
          "velocity": 0.30708661417322836
        },
        {
          "duration": 0.08522718749998148,
          "durationTicks": 120,
          "midi": 82,
          "name": "A#5",
          "ticks": 186408,
          "time": 132.3919130625,
          "velocity": 0.30708661417322836
        },
        {
          "duration": 0.0852271875000099,
          "durationTicks": 120,
          "midi": 94,
          "name": "A#6",
          "ticks": 186504,
          "time": 132.4600948125,
          "velocity": 0.30708661417322836
        },
        {
          "duration": 0.0852271875000099,
          "durationTicks": 120,
          "midi": 77,
          "name": "F5",
          "ticks": 186504,
          "time": 132.4600948125,
          "velocity": 0.30708661417322836
        },
        {
          "duration": 0.0852271875000099,
          "durationTicks": 120,
          "midi": 70,
          "name": "A#4",
          "ticks": 186504,
          "time": 132.4600948125,
          "velocity": 0.30708661417322836
        },
        {
          "duration": 0.0852271875000099,
          "durationTicks": 120,
          "midi": 85,
          "name": "C#6",
          "ticks": 186504,
          "time": 132.4600948125,
          "velocity": 0.30708661417322836
        },
        {
          "duration": 0.0852271875000099,
          "durationTicks": 120,
          "midi": 73,
          "name": "C#5",
          "ticks": 186504,
          "time": 132.4600948125,
          "velocity": 0.30708661417322836
        },
        {
          "duration": 0.0852271875000099,
          "durationTicks": 120,
          "midi": 70,
          "name": "A#4",
          "ticks": 186504,
          "time": 132.4600948125,
          "velocity": 0.30708661417322836
        },
        {
          "duration": 0.0852271875000099,
          "durationTicks": 120,
          "midi": 82,
          "name": "A#5",
          "ticks": 186504,
          "time": 132.4600948125,
          "velocity": 0.30708661417322836
        },
        {
          "duration": 0.0852271875000099,
          "durationTicks": 120,
          "midi": 89,
          "name": "F6",
          "ticks": 186504,
          "time": 132.4600948125,
          "velocity": 0.30708661417322836
        },
        {
          "duration": 0.0852271875000099,
          "durationTicks": 120,
          "midi": 94,
          "name": "A#6",
          "ticks": 186504,
          "time": 132.4600948125,
          "velocity": 0.30708661417322836
        },
        {
          "duration": 0.0852271875000099,
          "durationTicks": 120,
          "midi": 65,
          "name": "F4",
          "ticks": 186504,
          "time": 132.4600948125,
          "velocity": 0.30708661417322836
        },
        {
          "duration": 0.0852271875000099,
          "durationTicks": 120,
          "midi": 77,
          "name": "F5",
          "ticks": 186504,
          "time": 132.4600948125,
          "velocity": 0.30708661417322836
        },
        {
          "duration": 0.0852271875000099,
          "durationTicks": 120,
          "midi": 65,
          "name": "F4",
          "ticks": 186504,
          "time": 132.4600948125,
          "velocity": 0.30708661417322836
        },
        {
          "duration": 0.0852271875000099,
          "durationTicks": 120,
          "midi": 85,
          "name": "C#6",
          "ticks": 186504,
          "time": 132.4600948125,
          "velocity": 0.30708661417322836
        },
        {
          "duration": 0.0852271875000099,
          "durationTicks": 120,
          "midi": 82,
          "name": "A#5",
          "ticks": 186504,
          "time": 132.4600948125,
          "velocity": 0.30708661417322836
        },
        {
          "duration": 0.0852271875000099,
          "durationTicks": 120,
          "midi": 89,
          "name": "F6",
          "ticks": 186504,
          "time": 132.4600948125,
          "velocity": 0.30708661417322836
        },
        {
          "duration": 0.0852271875000099,
          "durationTicks": 120,
          "midi": 73,
          "name": "C#5",
          "ticks": 186504,
          "time": 132.4600948125,
          "velocity": 0.30708661417322836
        },
        {
          "duration": 0.0852271875000099,
          "durationTicks": 120,
          "midi": 70,
          "name": "A#4",
          "ticks": 186528,
          "time": 132.47714025,
          "velocity": 0.30708661417322836
        },
        {
          "duration": 0.0852271875000099,
          "durationTicks": 120,
          "midi": 94,
          "name": "A#6",
          "ticks": 186528,
          "time": 132.47714025,
          "velocity": 0.30708661417322836
        },
        {
          "duration": 0.0852271875000099,
          "durationTicks": 120,
          "midi": 89,
          "name": "F6",
          "ticks": 186528,
          "time": 132.47714025,
          "velocity": 0.30708661417322836
        },
        {
          "duration": 0.0852271875000099,
          "durationTicks": 120,
          "midi": 85,
          "name": "C#6",
          "ticks": 186528,
          "time": 132.47714025,
          "velocity": 0.30708661417322836
        },
        {
          "duration": 0.0852271875000099,
          "durationTicks": 120,
          "midi": 65,
          "name": "F4",
          "ticks": 186528,
          "time": 132.47714025,
          "velocity": 0.30708661417322836
        },
        {
          "duration": 0.0852271875000099,
          "durationTicks": 120,
          "midi": 82,
          "name": "A#5",
          "ticks": 186528,
          "time": 132.47714025,
          "velocity": 0.30708661417322836
        },
        {
          "duration": 0.0852271875000099,
          "durationTicks": 120,
          "midi": 77,
          "name": "F5",
          "ticks": 186528,
          "time": 132.47714025,
          "velocity": 0.30708661417322836
        },
        {
          "duration": 0.0852271875000099,
          "durationTicks": 120,
          "midi": 73,
          "name": "C#5",
          "ticks": 186528,
          "time": 132.47714025,
          "velocity": 0.30708661417322836
        },
        {
          "duration": 0.0852271875000099,
          "durationTicks": 120,
          "midi": 82,
          "name": "A#5",
          "ticks": 186624,
          "time": 132.545322,
          "velocity": 0.30708661417322836
        },
        {
          "duration": 0.0852271875000099,
          "durationTicks": 120,
          "midi": 65,
          "name": "F4",
          "ticks": 186624,
          "time": 132.545322,
          "velocity": 0.30708661417322836
        },
        {
          "duration": 0.0852271875000099,
          "durationTicks": 120,
          "midi": 65,
          "name": "F4",
          "ticks": 186624,
          "time": 132.545322,
          "velocity": 0.30708661417322836
        },
        {
          "duration": 0.0852271875000099,
          "durationTicks": 120,
          "midi": 73,
          "name": "C#5",
          "ticks": 186624,
          "time": 132.545322,
          "velocity": 0.30708661417322836
        },
        {
          "duration": 0.0852271875000099,
          "durationTicks": 120,
          "midi": 53,
          "name": "F3",
          "ticks": 186624,
          "time": 132.545322,
          "velocity": 0.30708661417322836
        },
        {
          "duration": 0.0852271875000099,
          "durationTicks": 120,
          "midi": 73,
          "name": "C#5",
          "ticks": 186624,
          "time": 132.545322,
          "velocity": 0.30708661417322836
        },
        {
          "duration": 0.0852271875000099,
          "durationTicks": 120,
          "midi": 85,
          "name": "C#6",
          "ticks": 186624,
          "time": 132.545322,
          "velocity": 0.30708661417322836
        },
        {
          "duration": 0.0852271875000099,
          "durationTicks": 120,
          "midi": 49,
          "name": "C#3",
          "ticks": 186624,
          "time": 132.545322,
          "velocity": 0.30708661417322836
        },
        {
          "duration": 0.0852271875000099,
          "durationTicks": 120,
          "midi": 94,
          "name": "A#6",
          "ticks": 186624,
          "time": 132.545322,
          "velocity": 0.30708661417322836
        },
        {
          "duration": 0.0852271875000099,
          "durationTicks": 120,
          "midi": 49,
          "name": "C#3",
          "ticks": 186624,
          "time": 132.545322,
          "velocity": 0.30708661417322836
        },
        {
          "duration": 0.0852271875000099,
          "durationTicks": 120,
          "midi": 77,
          "name": "F5",
          "ticks": 186624,
          "time": 132.545322,
          "velocity": 0.30708661417322836
        },
        {
          "duration": 0.0852271875000099,
          "durationTicks": 120,
          "midi": 49,
          "name": "C#3",
          "ticks": 186624,
          "time": 132.545322,
          "velocity": 0.30708661417322836
        },
        {
          "duration": 0.0852271875000099,
          "durationTicks": 120,
          "midi": 82,
          "name": "A#5",
          "ticks": 186624,
          "time": 132.545322,
          "velocity": 0.30708661417322836
        },
        {
          "duration": 0.0852271875000099,
          "durationTicks": 120,
          "midi": 85,
          "name": "C#6",
          "ticks": 186624,
          "time": 132.545322,
          "velocity": 0.30708661417322836
        },
        {
          "duration": 0.0852271875000099,
          "durationTicks": 120,
          "midi": 89,
          "name": "F6",
          "ticks": 186624,
          "time": 132.545322,
          "velocity": 0.30708661417322836
        },
        {
          "duration": 0.0852271875000099,
          "durationTicks": 120,
          "midi": 70,
          "name": "A#4",
          "ticks": 186624,
          "time": 132.545322,
          "velocity": 0.30708661417322836
        },
        {
          "duration": 0.0852271875000099,
          "durationTicks": 120,
          "midi": 53,
          "name": "F3",
          "ticks": 186624,
          "time": 132.545322,
          "velocity": 0.30708661417322836
        },
        {
          "duration": 0.0852271875000099,
          "durationTicks": 120,
          "midi": 53,
          "name": "F3",
          "ticks": 186624,
          "time": 132.545322,
          "velocity": 0.30708661417322836
        },
        {
          "duration": 0.0852271875000099,
          "durationTicks": 120,
          "midi": 77,
          "name": "F5",
          "ticks": 186624,
          "time": 132.545322,
          "velocity": 0.30708661417322836
        },
        {
          "duration": 0.0852271875000099,
          "durationTicks": 120,
          "midi": 49,
          "name": "C#3",
          "ticks": 186624,
          "time": 132.545322,
          "velocity": 0.30708661417322836
        },
        {
          "duration": 0.0852271875000099,
          "durationTicks": 120,
          "midi": 70,
          "name": "A#4",
          "ticks": 186624,
          "time": 132.545322,
          "velocity": 0.30708661417322836
        },
        {
          "duration": 0.0852271875000099,
          "durationTicks": 120,
          "midi": 94,
          "name": "A#6",
          "ticks": 186624,
          "time": 132.545322,
          "velocity": 0.30708661417322836
        },
        {
          "duration": 0.0852271875000099,
          "durationTicks": 120,
          "midi": 53,
          "name": "F3",
          "ticks": 186624,
          "time": 132.545322,
          "velocity": 0.30708661417322836
        },
        {
          "duration": 0.0852271875000099,
          "durationTicks": 120,
          "midi": 89,
          "name": "F6",
          "ticks": 186624,
          "time": 132.545322,
          "velocity": 0.30708661417322836
        },
        {
          "duration": 0.0852271875000099,
          "durationTicks": 120,
          "midi": 53,
          "name": "F3",
          "ticks": 186648,
          "time": 132.5623674375,
          "velocity": 0.30708661417322836
        },
        {
          "duration": 0.0852271875000099,
          "durationTicks": 120,
          "midi": 82,
          "name": "A#5",
          "ticks": 186648,
          "time": 132.5623674375,
          "velocity": 0.30708661417322836
        },
        {
          "duration": 0.0852271875000099,
          "durationTicks": 120,
          "midi": 49,
          "name": "C#3",
          "ticks": 186648,
          "time": 132.5623674375,
          "velocity": 0.30708661417322836
        },
        {
          "duration": 0.0852271875000099,
          "durationTicks": 120,
          "midi": 85,
          "name": "C#6",
          "ticks": 186648,
          "time": 132.5623674375,
          "velocity": 0.30708661417322836
        },
        {
          "duration": 0.0852271875000099,
          "durationTicks": 120,
          "midi": 94,
          "name": "A#6",
          "ticks": 186648,
          "time": 132.5623674375,
          "velocity": 0.30708661417322836
        },
        {
          "duration": 0.0852271875000099,
          "durationTicks": 120,
          "midi": 70,
          "name": "A#4",
          "ticks": 186648,
          "time": 132.5623674375,
          "velocity": 0.30708661417322836
        },
        {
          "duration": 0.0852271875000099,
          "durationTicks": 120,
          "midi": 77,
          "name": "F5",
          "ticks": 186648,
          "time": 132.5623674375,
          "velocity": 0.30708661417322836
        },
        {
          "duration": 0.0852271875000099,
          "durationTicks": 120,
          "midi": 89,
          "name": "F6",
          "ticks": 186648,
          "time": 132.5623674375,
          "velocity": 0.30708661417322836
        },
        {
          "duration": 0.0852271875000099,
          "durationTicks": 120,
          "midi": 53,
          "name": "F3",
          "ticks": 186648,
          "time": 132.5623674375,
          "velocity": 0.30708661417322836
        },
        {
          "duration": 0.0852271875000099,
          "durationTicks": 120,
          "midi": 49,
          "name": "C#3",
          "ticks": 186648,
          "time": 132.5623674375,
          "velocity": 0.30708661417322836
        },
        {
          "duration": 0.0852271875000099,
          "durationTicks": 120,
          "midi": 73,
          "name": "C#5",
          "ticks": 186648,
          "time": 132.5623674375,
          "velocity": 0.30708661417322836
        },
        {
          "duration": 0.0852271875000099,
          "durationTicks": 120,
          "midi": 65,
          "name": "F4",
          "ticks": 186648,
          "time": 132.5623674375,
          "velocity": 0.30708661417322836
        },
        {
          "duration": 0.08522718749998148,
          "durationTicks": 120,
          "midi": 94,
          "name": "A#6",
          "ticks": 186744,
          "time": 132.6305491875,
          "velocity": 0.30708661417322836
        },
        {
          "duration": 0.08522718749998148,
          "durationTicks": 120,
          "midi": 82,
          "name": "A#5",
          "ticks": 186744,
          "time": 132.6305491875,
          "velocity": 0.30708661417322836
        },
        {
          "duration": 0.08522718749998148,
          "durationTicks": 120,
          "midi": 77,
          "name": "F5",
          "ticks": 186744,
          "time": 132.6305491875,
          "velocity": 0.30708661417322836
        },
        {
          "duration": 0.08522718749998148,
          "durationTicks": 120,
          "midi": 85,
          "name": "C#6",
          "ticks": 186744,
          "time": 132.6305491875,
          "velocity": 0.30708661417322836
        },
        {
          "duration": 0.08522718749998148,
          "durationTicks": 120,
          "midi": 77,
          "name": "F5",
          "ticks": 186744,
          "time": 132.6305491875,
          "velocity": 0.30708661417322836
        },
        {
          "duration": 0.08522718749998148,
          "durationTicks": 120,
          "midi": 85,
          "name": "C#6",
          "ticks": 186744,
          "time": 132.6305491875,
          "velocity": 0.30708661417322836
        },
        {
          "duration": 0.08522718749998148,
          "durationTicks": 120,
          "midi": 65,
          "name": "F4",
          "ticks": 186744,
          "time": 132.6305491875,
          "velocity": 0.30708661417322836
        },
        {
          "duration": 0.08522718749998148,
          "durationTicks": 120,
          "midi": 73,
          "name": "C#5",
          "ticks": 186744,
          "time": 132.6305491875,
          "velocity": 0.30708661417322836
        },
        {
          "duration": 0.08522718749998148,
          "durationTicks": 120,
          "midi": 82,
          "name": "A#5",
          "ticks": 186744,
          "time": 132.6305491875,
          "velocity": 0.30708661417322836
        },
        {
          "duration": 0.08522718749998148,
          "durationTicks": 120,
          "midi": 89,
          "name": "F6",
          "ticks": 186744,
          "time": 132.6305491875,
          "velocity": 0.30708661417322836
        },
        {
          "duration": 0.08522718749998148,
          "durationTicks": 120,
          "midi": 94,
          "name": "A#6",
          "ticks": 186744,
          "time": 132.6305491875,
          "velocity": 0.30708661417322836
        },
        {
          "duration": 0.08522718749998148,
          "durationTicks": 120,
          "midi": 70,
          "name": "A#4",
          "ticks": 186744,
          "time": 132.6305491875,
          "velocity": 0.30708661417322836
        },
        {
          "duration": 0.08522718749998148,
          "durationTicks": 120,
          "midi": 73,
          "name": "C#5",
          "ticks": 186744,
          "time": 132.6305491875,
          "velocity": 0.30708661417322836
        },
        {
          "duration": 0.08522718749998148,
          "durationTicks": 120,
          "midi": 89,
          "name": "F6",
          "ticks": 186744,
          "time": 132.6305491875,
          "velocity": 0.30708661417322836
        },
        {
          "duration": 0.08522718749998148,
          "durationTicks": 120,
          "midi": 70,
          "name": "A#4",
          "ticks": 186744,
          "time": 132.6305491875,
          "velocity": 0.30708661417322836
        },
        {
          "duration": 0.08522718749998148,
          "durationTicks": 120,
          "midi": 65,
          "name": "F4",
          "ticks": 186744,
          "time": 132.6305491875,
          "velocity": 0.30708661417322836
        },
        {
          "duration": 0.08522718749998148,
          "durationTicks": 120,
          "midi": 89,
          "name": "F6",
          "ticks": 186768,
          "time": 132.647594625,
          "velocity": 0.30708661417322836
        },
        {
          "duration": 0.08522718749998148,
          "durationTicks": 120,
          "midi": 73,
          "name": "C#5",
          "ticks": 186768,
          "time": 132.647594625,
          "velocity": 0.30708661417322836
        },
        {
          "duration": 0.08522718749998148,
          "durationTicks": 120,
          "midi": 94,
          "name": "A#6",
          "ticks": 186768,
          "time": 132.647594625,
          "velocity": 0.30708661417322836
        },
        {
          "duration": 0.08522718749998148,
          "durationTicks": 120,
          "midi": 70,
          "name": "A#4",
          "ticks": 186768,
          "time": 132.647594625,
          "velocity": 0.30708661417322836
        },
        {
          "duration": 0.08522718749998148,
          "durationTicks": 120,
          "midi": 77,
          "name": "F5",
          "ticks": 186768,
          "time": 132.647594625,
          "velocity": 0.30708661417322836
        },
        {
          "duration": 0.08522718749998148,
          "durationTicks": 120,
          "midi": 85,
          "name": "C#6",
          "ticks": 186768,
          "time": 132.647594625,
          "velocity": 0.30708661417322836
        },
        {
          "duration": 0.08522718749998148,
          "durationTicks": 120,
          "midi": 82,
          "name": "A#5",
          "ticks": 186768,
          "time": 132.647594625,
          "velocity": 0.30708661417322836
        },
        {
          "duration": 0.08522718749998148,
          "durationTicks": 120,
          "midi": 65,
          "name": "F4",
          "ticks": 186768,
          "time": 132.647594625,
          "velocity": 0.30708661417322836
        },
        {
          "duration": 0.0852271875000099,
          "durationTicks": 120,
          "midi": 46,
          "name": "A#2",
          "ticks": 186864,
          "time": 132.715776375,
          "velocity": 0.30708661417322836
        },
        {
          "duration": 0.0852271875000099,
          "durationTicks": 120,
          "midi": 65,
          "name": "F4",
          "ticks": 186864,
          "time": 132.715776375,
          "velocity": 0.30708661417322836
        },
        {
          "duration": 0.0852271875000099,
          "durationTicks": 120,
          "midi": 82,
          "name": "A#5",
          "ticks": 186864,
          "time": 132.715776375,
          "velocity": 0.30708661417322836
        },
        {
          "duration": 0.0852271875000099,
          "durationTicks": 120,
          "midi": 94,
          "name": "A#6",
          "ticks": 186864,
          "time": 132.715776375,
          "velocity": 0.30708661417322836
        },
        {
          "duration": 0.0852271875000099,
          "durationTicks": 120,
          "midi": 46,
          "name": "A#2",
          "ticks": 186864,
          "time": 132.715776375,
          "velocity": 0.30708661417322836
        },
        {
          "duration": 0.0852271875000099,
          "durationTicks": 120,
          "midi": 46,
          "name": "A#2",
          "ticks": 186864,
          "time": 132.715776375,
          "velocity": 0.30708661417322836
        },
        {
          "duration": 0.0852271875000099,
          "durationTicks": 120,
          "midi": 85,
          "name": "C#6",
          "ticks": 186864,
          "time": 132.715776375,
          "velocity": 0.30708661417322836
        },
        {
          "duration": 0.0852271875000099,
          "durationTicks": 120,
          "midi": 89,
          "name": "F6",
          "ticks": 186864,
          "time": 132.715776375,
          "velocity": 0.30708661417322836
        },
        {
          "duration": 0.0852271875000099,
          "durationTicks": 120,
          "midi": 73,
          "name": "C#5",
          "ticks": 186864,
          "time": 132.715776375,
          "velocity": 0.30708661417322836
        },
        {
          "duration": 0.0852271875000099,
          "durationTicks": 120,
          "midi": 85,
          "name": "C#6",
          "ticks": 186864,
          "time": 132.715776375,
          "velocity": 0.30708661417322836
        },
        {
          "duration": 0.0852271875000099,
          "durationTicks": 120,
          "midi": 70,
          "name": "A#4",
          "ticks": 186864,
          "time": 132.715776375,
          "velocity": 0.30708661417322836
        },
        {
          "duration": 0.0852271875000099,
          "durationTicks": 120,
          "midi": 82,
          "name": "A#5",
          "ticks": 186864,
          "time": 132.715776375,
          "velocity": 0.30708661417322836
        },
        {
          "duration": 0.0852271875000099,
          "durationTicks": 120,
          "midi": 73,
          "name": "C#5",
          "ticks": 186864,
          "time": 132.715776375,
          "velocity": 0.30708661417322836
        },
        {
          "duration": 0.0852271875000099,
          "durationTicks": 120,
          "midi": 70,
          "name": "A#4",
          "ticks": 186864,
          "time": 132.715776375,
          "velocity": 0.30708661417322836
        },
        {
          "duration": 0.0852271875000099,
          "durationTicks": 120,
          "midi": 89,
          "name": "F6",
          "ticks": 186864,
          "time": 132.715776375,
          "velocity": 0.30708661417322836
        },
        {
          "duration": 0.0852271875000099,
          "durationTicks": 120,
          "midi": 77,
          "name": "F5",
          "ticks": 186864,
          "time": 132.715776375,
          "velocity": 0.30708661417322836
        },
        {
          "duration": 0.0852271875000099,
          "durationTicks": 120,
          "midi": 94,
          "name": "A#6",
          "ticks": 186864,
          "time": 132.715776375,
          "velocity": 0.30708661417322836
        },
        {
          "duration": 0.0852271875000099,
          "durationTicks": 120,
          "midi": 46,
          "name": "A#2",
          "ticks": 186864,
          "time": 132.715776375,
          "velocity": 0.30708661417322836
        },
        {
          "duration": 0.0852271875000099,
          "durationTicks": 120,
          "midi": 77,
          "name": "F5",
          "ticks": 186864,
          "time": 132.715776375,
          "velocity": 0.30708661417322836
        },
        {
          "duration": 0.0852271875000099,
          "durationTicks": 120,
          "midi": 65,
          "name": "F4",
          "ticks": 186864,
          "time": 132.715776375,
          "velocity": 0.30708661417322836
        },
        {
          "duration": 0.0852271875000099,
          "durationTicks": 120,
          "midi": 46,
          "name": "A#2",
          "ticks": 186888,
          "time": 132.7328218125,
          "velocity": 0.30708661417322836
        },
        {
          "duration": 0.0852271875000099,
          "durationTicks": 120,
          "midi": 46,
          "name": "A#2",
          "ticks": 186888,
          "time": 132.7328218125,
          "velocity": 0.30708661417322836
        },
        {
          "duration": 0.0852271875000099,
          "durationTicks": 120,
          "midi": 70,
          "name": "A#4",
          "ticks": 186888,
          "time": 132.7328218125,
          "velocity": 0.30708661417322836
        },
        {
          "duration": 0.0852271875000099,
          "durationTicks": 120,
          "midi": 89,
          "name": "F6",
          "ticks": 186888,
          "time": 132.7328218125,
          "velocity": 0.30708661417322836
        },
        {
          "duration": 0.0852271875000099,
          "durationTicks": 120,
          "midi": 82,
          "name": "A#5",
          "ticks": 186888,
          "time": 132.7328218125,
          "velocity": 0.30708661417322836
        },
        {
          "duration": 0.0852271875000099,
          "durationTicks": 120,
          "midi": 65,
          "name": "F4",
          "ticks": 186888,
          "time": 132.7328218125,
          "velocity": 0.30708661417322836
        },
        {
          "duration": 0.0852271875000099,
          "durationTicks": 120,
          "midi": 85,
          "name": "C#6",
          "ticks": 186888,
          "time": 132.7328218125,
          "velocity": 0.30708661417322836
        },
        {
          "duration": 0.0852271875000099,
          "durationTicks": 120,
          "midi": 77,
          "name": "F5",
          "ticks": 186888,
          "time": 132.7328218125,
          "velocity": 0.30708661417322836
        },
        {
          "duration": 0.0852271875000099,
          "durationTicks": 120,
          "midi": 94,
          "name": "A#6",
          "ticks": 186888,
          "time": 132.7328218125,
          "velocity": 0.30708661417322836
        },
        {
          "duration": 0.0852271875000099,
          "durationTicks": 120,
          "midi": 73,
          "name": "C#5",
          "ticks": 186888,
          "time": 132.7328218125,
          "velocity": 0.30708661417322836
        },
        {
          "duration": 0.0852271875000099,
          "durationTicks": 120,
          "midi": 94,
          "name": "A#6",
          "ticks": 186984,
          "time": 132.8010035625,
          "velocity": 0.30708661417322836
        },
        {
          "duration": 0.0852271875000099,
          "durationTicks": 120,
          "midi": 77,
          "name": "F5",
          "ticks": 186984,
          "time": 132.8010035625,
          "velocity": 0.30708661417322836
        },
        {
          "duration": 0.0852271875000099,
          "durationTicks": 120,
          "midi": 82,
          "name": "A#5",
          "ticks": 186984,
          "time": 132.8010035625,
          "velocity": 0.30708661417322836
        },
        {
          "duration": 0.0852271875000099,
          "durationTicks": 120,
          "midi": 73,
          "name": "C#5",
          "ticks": 186984,
          "time": 132.8010035625,
          "velocity": 0.30708661417322836
        },
        {
          "duration": 0.0852271875000099,
          "durationTicks": 120,
          "midi": 94,
          "name": "A#6",
          "ticks": 186984,
          "time": 132.8010035625,
          "velocity": 0.30708661417322836
        },
        {
          "duration": 0.0852271875000099,
          "durationTicks": 120,
          "midi": 70,
          "name": "A#4",
          "ticks": 186984,
          "time": 132.8010035625,
          "velocity": 0.30708661417322836
        },
        {
          "duration": 0.0852271875000099,
          "durationTicks": 120,
          "midi": 65,
          "name": "F4",
          "ticks": 186984,
          "time": 132.8010035625,
          "velocity": 0.30708661417322836
        },
        {
          "duration": 0.0852271875000099,
          "durationTicks": 120,
          "midi": 70,
          "name": "A#4",
          "ticks": 186984,
          "time": 132.8010035625,
          "velocity": 0.30708661417322836
        },
        {
          "duration": 0.0852271875000099,
          "durationTicks": 120,
          "midi": 85,
          "name": "C#6",
          "ticks": 186984,
          "time": 132.8010035625,
          "velocity": 0.30708661417322836
        },
        {
          "duration": 0.0852271875000099,
          "durationTicks": 120,
          "midi": 73,
          "name": "C#5",
          "ticks": 186984,
          "time": 132.8010035625,
          "velocity": 0.30708661417322836
        },
        {
          "duration": 0.0852271875000099,
          "durationTicks": 120,
          "midi": 89,
          "name": "F6",
          "ticks": 186984,
          "time": 132.8010035625,
          "velocity": 0.30708661417322836
        },
        {
          "duration": 0.0852271875000099,
          "durationTicks": 120,
          "midi": 65,
          "name": "F4",
          "ticks": 186984,
          "time": 132.8010035625,
          "velocity": 0.30708661417322836
        },
        {
          "duration": 0.0852271875000099,
          "durationTicks": 120,
          "midi": 89,
          "name": "F6",
          "ticks": 186984,
          "time": 132.8010035625,
          "velocity": 0.30708661417322836
        },
        {
          "duration": 0.0852271875000099,
          "durationTicks": 120,
          "midi": 77,
          "name": "F5",
          "ticks": 186984,
          "time": 132.8010035625,
          "velocity": 0.30708661417322836
        },
        {
          "duration": 0.0852271875000099,
          "durationTicks": 120,
          "midi": 82,
          "name": "A#5",
          "ticks": 186984,
          "time": 132.8010035625,
          "velocity": 0.30708661417322836
        },
        {
          "duration": 0.0852271875000099,
          "durationTicks": 120,
          "midi": 85,
          "name": "C#6",
          "ticks": 186984,
          "time": 132.8010035625,
          "velocity": 0.30708661417322836
        },
        {
          "duration": 0.0852271875000099,
          "durationTicks": 120,
          "midi": 85,
          "name": "C#6",
          "ticks": 187008,
          "time": 132.818049,
          "velocity": 0.30708661417322836
        },
        {
          "duration": 0.0852271875000099,
          "durationTicks": 120,
          "midi": 94,
          "name": "A#6",
          "ticks": 187008,
          "time": 132.818049,
          "velocity": 0.30708661417322836
        },
        {
          "duration": 0.0852271875000099,
          "durationTicks": 120,
          "midi": 77,
          "name": "F5",
          "ticks": 187008,
          "time": 132.818049,
          "velocity": 0.30708661417322836
        },
        {
          "duration": 0.0852271875000099,
          "durationTicks": 120,
          "midi": 73,
          "name": "C#5",
          "ticks": 187008,
          "time": 132.818049,
          "velocity": 0.30708661417322836
        },
        {
          "duration": 0.0852271875000099,
          "durationTicks": 120,
          "midi": 82,
          "name": "A#5",
          "ticks": 187008,
          "time": 132.818049,
          "velocity": 0.30708661417322836
        },
        {
          "duration": 0.0852271875000099,
          "durationTicks": 120,
          "midi": 70,
          "name": "A#4",
          "ticks": 187008,
          "time": 132.818049,
          "velocity": 0.30708661417322836
        },
        {
          "duration": 0.0852271875000099,
          "durationTicks": 120,
          "midi": 65,
          "name": "F4",
          "ticks": 187008,
          "time": 132.818049,
          "velocity": 0.30708661417322836
        },
        {
          "duration": 0.0852271875000099,
          "durationTicks": 120,
          "midi": 89,
          "name": "F6",
          "ticks": 187008,
          "time": 132.818049,
          "velocity": 0.30708661417322836
        },
        {
          "duration": 0.08522718749998148,
          "durationTicks": 120,
          "midi": 70,
          "name": "A#4",
          "ticks": 187104,
          "time": 132.88623075,
          "velocity": 0.30708661417322836
        },
        {
          "duration": 0.08522718749998148,
          "durationTicks": 120,
          "midi": 49,
          "name": "C#3",
          "ticks": 187104,
          "time": 132.88623075,
          "velocity": 0.30708661417322836
        },
        {
          "duration": 0.08522718749998148,
          "durationTicks": 120,
          "midi": 82,
          "name": "A#5",
          "ticks": 187104,
          "time": 132.88623075,
          "velocity": 0.30708661417322836
        },
        {
          "duration": 0.08522718749998148,
          "durationTicks": 120,
          "midi": 73,
          "name": "C#5",
          "ticks": 187104,
          "time": 132.88623075,
          "velocity": 0.30708661417322836
        },
        {
          "duration": 0.08522718749998148,
          "durationTicks": 120,
          "midi": 89,
          "name": "F6",
          "ticks": 187104,
          "time": 132.88623075,
          "velocity": 0.30708661417322836
        },
        {
          "duration": 0.08522718749998148,
          "durationTicks": 120,
          "midi": 85,
          "name": "C#6",
          "ticks": 187104,
          "time": 132.88623075,
          "velocity": 0.30708661417322836
        },
        {
          "duration": 0.08522718749998148,
          "durationTicks": 120,
          "midi": 53,
          "name": "F3",
          "ticks": 187104,
          "time": 132.88623075,
          "velocity": 0.30708661417322836
        },
        {
          "duration": 0.08522718749998148,
          "durationTicks": 120,
          "midi": 49,
          "name": "C#3",
          "ticks": 187104,
          "time": 132.88623075,
          "velocity": 0.30708661417322836
        },
        {
          "duration": 0.08522718749998148,
          "durationTicks": 120,
          "midi": 94,
          "name": "A#6",
          "ticks": 187104,
          "time": 132.88623075,
          "velocity": 0.30708661417322836
        },
        {
          "duration": 0.08522718749998148,
          "durationTicks": 120,
          "midi": 53,
          "name": "F3",
          "ticks": 187104,
          "time": 132.88623075,
          "velocity": 0.30708661417322836
        },
        {
          "duration": 0.08522718749998148,
          "durationTicks": 120,
          "midi": 82,
          "name": "A#5",
          "ticks": 187104,
          "time": 132.88623075,
          "velocity": 0.30708661417322836
        },
        {
          "duration": 0.08522718749998148,
          "durationTicks": 120,
          "midi": 77,
          "name": "F5",
          "ticks": 187104,
          "time": 132.88623075,
          "velocity": 0.30708661417322836
        },
        {
          "duration": 0.08522718749998148,
          "durationTicks": 120,
          "midi": 94,
          "name": "A#6",
          "ticks": 187104,
          "time": 132.88623075,
          "velocity": 0.30708661417322836
        },
        {
          "duration": 0.08522718749998148,
          "durationTicks": 120,
          "midi": 70,
          "name": "A#4",
          "ticks": 187104,
          "time": 132.88623075,
          "velocity": 0.30708661417322836
        },
        {
          "duration": 0.08522718749998148,
          "durationTicks": 120,
          "midi": 85,
          "name": "C#6",
          "ticks": 187104,
          "time": 132.88623075,
          "velocity": 0.30708661417322836
        },
        {
          "duration": 0.08522718749998148,
          "durationTicks": 120,
          "midi": 53,
          "name": "F3",
          "ticks": 187104,
          "time": 132.88623075,
          "velocity": 0.30708661417322836
        },
        {
          "duration": 0.08522718749998148,
          "durationTicks": 120,
          "midi": 89,
          "name": "F6",
          "ticks": 187104,
          "time": 132.88623075,
          "velocity": 0.30708661417322836
        },
        {
          "duration": 0.08522718749998148,
          "durationTicks": 120,
          "midi": 49,
          "name": "C#3",
          "ticks": 187104,
          "time": 132.88623075,
          "velocity": 0.30708661417322836
        },
        {
          "duration": 0.08522718749998148,
          "durationTicks": 120,
          "midi": 65,
          "name": "F4",
          "ticks": 187104,
          "time": 132.88623075,
          "velocity": 0.30708661417322836
        },
        {
          "duration": 0.08522718749998148,
          "durationTicks": 120,
          "midi": 65,
          "name": "F4",
          "ticks": 187104,
          "time": 132.88623075,
          "velocity": 0.30708661417322836
        },
        {
          "duration": 0.08522718749998148,
          "durationTicks": 120,
          "midi": 49,
          "name": "C#3",
          "ticks": 187104,
          "time": 132.88623075,
          "velocity": 0.30708661417322836
        },
        {
          "duration": 0.08522718749998148,
          "durationTicks": 120,
          "midi": 73,
          "name": "C#5",
          "ticks": 187104,
          "time": 132.88623075,
          "velocity": 0.30708661417322836
        },
        {
          "duration": 0.08522718749998148,
          "durationTicks": 120,
          "midi": 53,
          "name": "F3",
          "ticks": 187104,
          "time": 132.88623075,
          "velocity": 0.30708661417322836
        },
        {
          "duration": 0.08522718749998148,
          "durationTicks": 120,
          "midi": 77,
          "name": "F5",
          "ticks": 187104,
          "time": 132.88623075,
          "velocity": 0.30708661417322836
        },
        {
          "duration": 0.08522718749998148,
          "durationTicks": 120,
          "midi": 77,
          "name": "F5",
          "ticks": 187128,
          "time": 132.9032761875,
          "velocity": 0.30708661417322836
        },
        {
          "duration": 0.08522718749998148,
          "durationTicks": 120,
          "midi": 73,
          "name": "C#5",
          "ticks": 187128,
          "time": 132.9032761875,
          "velocity": 0.30708661417322836
        },
        {
          "duration": 0.08522718749998148,
          "durationTicks": 120,
          "midi": 53,
          "name": "F3",
          "ticks": 187128,
          "time": 132.9032761875,
          "velocity": 0.30708661417322836
        },
        {
          "duration": 0.08522718749998148,
          "durationTicks": 120,
          "midi": 94,
          "name": "A#6",
          "ticks": 187128,
          "time": 132.9032761875,
          "velocity": 0.30708661417322836
        },
        {
          "duration": 0.08522718749998148,
          "durationTicks": 120,
          "midi": 49,
          "name": "C#3",
          "ticks": 187128,
          "time": 132.9032761875,
          "velocity": 0.30708661417322836
        },
        {
          "duration": 0.08522718749998148,
          "durationTicks": 120,
          "midi": 85,
          "name": "C#6",
          "ticks": 187128,
          "time": 132.9032761875,
          "velocity": 0.30708661417322836
        },
        {
          "duration": 0.08522718749998148,
          "durationTicks": 120,
          "midi": 82,
          "name": "A#5",
          "ticks": 187128,
          "time": 132.9032761875,
          "velocity": 0.30708661417322836
        },
        {
          "duration": 0.08522718749998148,
          "durationTicks": 120,
          "midi": 89,
          "name": "F6",
          "ticks": 187128,
          "time": 132.9032761875,
          "velocity": 0.30708661417322836
        },
        {
          "duration": 0.08522718749998148,
          "durationTicks": 120,
          "midi": 53,
          "name": "F3",
          "ticks": 187128,
          "time": 132.9032761875,
          "velocity": 0.30708661417322836
        },
        {
          "duration": 0.08522718749998148,
          "durationTicks": 120,
          "midi": 49,
          "name": "C#3",
          "ticks": 187128,
          "time": 132.9032761875,
          "velocity": 0.30708661417322836
        },
        {
          "duration": 0.08522718749998148,
          "durationTicks": 120,
          "midi": 65,
          "name": "F4",
          "ticks": 187128,
          "time": 132.9032761875,
          "velocity": 0.30708661417322836
        },
        {
          "duration": 0.08522718749998148,
          "durationTicks": 120,
          "midi": 70,
          "name": "A#4",
          "ticks": 187128,
          "time": 132.9032761875,
          "velocity": 0.30708661417322836
        },
        {
          "duration": 0.0852271875000099,
          "durationTicks": 120,
          "midi": 73,
          "name": "C#5",
          "ticks": 187224,
          "time": 132.9714579375,
          "velocity": 0.30708661417322836
        },
        {
          "duration": 0.0852271875000099,
          "durationTicks": 120,
          "midi": 70,
          "name": "A#4",
          "ticks": 187224,
          "time": 132.9714579375,
          "velocity": 0.30708661417322836
        },
        {
          "duration": 0.0852271875000099,
          "durationTicks": 120,
          "midi": 85,
          "name": "C#6",
          "ticks": 187224,
          "time": 132.9714579375,
          "velocity": 0.30708661417322836
        },
        {
          "duration": 0.0852271875000099,
          "durationTicks": 120,
          "midi": 65,
          "name": "F4",
          "ticks": 187224,
          "time": 132.9714579375,
          "velocity": 0.30708661417322836
        },
        {
          "duration": 0.0852271875000099,
          "durationTicks": 120,
          "midi": 73,
          "name": "C#5",
          "ticks": 187224,
          "time": 132.9714579375,
          "velocity": 0.30708661417322836
        },
        {
          "duration": 0.0852271875000099,
          "durationTicks": 120,
          "midi": 77,
          "name": "F5",
          "ticks": 187224,
          "time": 132.9714579375,
          "velocity": 0.30708661417322836
        },
        {
          "duration": 0.0852271875000099,
          "durationTicks": 120,
          "midi": 77,
          "name": "F5",
          "ticks": 187224,
          "time": 132.9714579375,
          "velocity": 0.30708661417322836
        },
        {
          "duration": 0.0852271875000099,
          "durationTicks": 120,
          "midi": 94,
          "name": "A#6",
          "ticks": 187224,
          "time": 132.9714579375,
          "velocity": 0.30708661417322836
        },
        {
          "duration": 0.0852271875000099,
          "durationTicks": 120,
          "midi": 94,
          "name": "A#6",
          "ticks": 187224,
          "time": 132.9714579375,
          "velocity": 0.30708661417322836
        },
        {
          "duration": 0.0852271875000099,
          "durationTicks": 120,
          "midi": 89,
          "name": "F6",
          "ticks": 187224,
          "time": 132.9714579375,
          "velocity": 0.30708661417322836
        },
        {
          "duration": 0.0852271875000099,
          "durationTicks": 120,
          "midi": 70,
          "name": "A#4",
          "ticks": 187224,
          "time": 132.9714579375,
          "velocity": 0.30708661417322836
        },
        {
          "duration": 0.0852271875000099,
          "durationTicks": 120,
          "midi": 85,
          "name": "C#6",
          "ticks": 187224,
          "time": 132.9714579375,
          "velocity": 0.30708661417322836
        },
        {
          "duration": 0.0852271875000099,
          "durationTicks": 120,
          "midi": 65,
          "name": "F4",
          "ticks": 187224,
          "time": 132.9714579375,
          "velocity": 0.30708661417322836
        },
        {
          "duration": 0.0852271875000099,
          "durationTicks": 120,
          "midi": 82,
          "name": "A#5",
          "ticks": 187224,
          "time": 132.9714579375,
          "velocity": 0.30708661417322836
        },
        {
          "duration": 0.0852271875000099,
          "durationTicks": 120,
          "midi": 89,
          "name": "F6",
          "ticks": 187224,
          "time": 132.9714579375,
          "velocity": 0.30708661417322836
        },
        {
          "duration": 0.0852271875000099,
          "durationTicks": 120,
          "midi": 82,
          "name": "A#5",
          "ticks": 187224,
          "time": 132.9714579375,
          "velocity": 0.30708661417322836
        },
        {
          "duration": 0.0852271875000099,
          "durationTicks": 120,
          "midi": 94,
          "name": "A#6",
          "ticks": 187248,
          "time": 132.988503375,
          "velocity": 0.30708661417322836
        },
        {
          "duration": 0.0852271875000099,
          "durationTicks": 120,
          "midi": 73,
          "name": "C#5",
          "ticks": 187248,
          "time": 132.988503375,
          "velocity": 0.30708661417322836
        },
        {
          "duration": 0.0852271875000099,
          "durationTicks": 120,
          "midi": 82,
          "name": "A#5",
          "ticks": 187248,
          "time": 132.988503375,
          "velocity": 0.30708661417322836
        },
        {
          "duration": 0.0852271875000099,
          "durationTicks": 120,
          "midi": 77,
          "name": "F5",
          "ticks": 187248,
          "time": 132.988503375,
          "velocity": 0.30708661417322836
        },
        {
          "duration": 0.0852271875000099,
          "durationTicks": 120,
          "midi": 85,
          "name": "C#6",
          "ticks": 187248,
          "time": 132.988503375,
          "velocity": 0.30708661417322836
        },
        {
          "duration": 0.0852271875000099,
          "durationTicks": 120,
          "midi": 65,
          "name": "F4",
          "ticks": 187248,
          "time": 132.988503375,
          "velocity": 0.30708661417322836
        },
        {
          "duration": 0.0852271875000099,
          "durationTicks": 120,
          "midi": 70,
          "name": "A#4",
          "ticks": 187248,
          "time": 132.988503375,
          "velocity": 0.30708661417322836
        },
        {
          "duration": 0.0852271875000099,
          "durationTicks": 120,
          "midi": 89,
          "name": "F6",
          "ticks": 187248,
          "time": 132.988503375,
          "velocity": 0.30708661417322836
        },
        {
          "duration": 0.0852271875000099,
          "durationTicks": 120,
          "midi": 41,
          "name": "F2",
          "ticks": 187344,
          "time": 133.056685125,
          "velocity": 0.30708661417322836
        },
        {
          "duration": 0.0852271875000099,
          "durationTicks": 120,
          "midi": 85,
          "name": "C#6",
          "ticks": 187344,
          "time": 133.056685125,
          "velocity": 0.30708661417322836
        },
        {
          "duration": 0.0852271875000099,
          "durationTicks": 120,
          "midi": 41,
          "name": "F2",
          "ticks": 187344,
          "time": 133.056685125,
          "velocity": 0.30708661417322836
        },
        {
          "duration": 0.0852271875000099,
          "durationTicks": 120,
          "midi": 65,
          "name": "F4",
          "ticks": 187344,
          "time": 133.056685125,
          "velocity": 0.30708661417322836
        },
        {
          "duration": 0.0852271875000099,
          "durationTicks": 120,
          "midi": 70,
          "name": "A#4",
          "ticks": 187344,
          "time": 133.056685125,
          "velocity": 0.30708661417322836
        },
        {
          "duration": 0.0852271875000099,
          "durationTicks": 120,
          "midi": 89,
          "name": "F6",
          "ticks": 187344,
          "time": 133.056685125,
          "velocity": 0.30708661417322836
        },
        {
          "duration": 0.0852271875000099,
          "durationTicks": 120,
          "midi": 41,
          "name": "F2",
          "ticks": 187344,
          "time": 133.056685125,
          "velocity": 0.30708661417322836
        },
        {
          "duration": 0.0852271875000099,
          "durationTicks": 120,
          "midi": 77,
          "name": "F5",
          "ticks": 187344,
          "time": 133.056685125,
          "velocity": 0.30708661417322836
        },
        {
          "duration": 0.0852271875000099,
          "durationTicks": 120,
          "midi": 77,
          "name": "F5",
          "ticks": 187344,
          "time": 133.056685125,
          "velocity": 0.30708661417322836
        },
        {
          "duration": 0.0852271875000099,
          "durationTicks": 120,
          "midi": 73,
          "name": "C#5",
          "ticks": 187344,
          "time": 133.056685125,
          "velocity": 0.30708661417322836
        },
        {
          "duration": 0.0852271875000099,
          "durationTicks": 120,
          "midi": 94,
          "name": "A#6",
          "ticks": 187344,
          "time": 133.056685125,
          "velocity": 0.30708661417322836
        },
        {
          "duration": 0.0852271875000099,
          "durationTicks": 120,
          "midi": 89,
          "name": "F6",
          "ticks": 187344,
          "time": 133.056685125,
          "velocity": 0.30708661417322836
        },
        {
          "duration": 0.0852271875000099,
          "durationTicks": 120,
          "midi": 94,
          "name": "A#6",
          "ticks": 187344,
          "time": 133.056685125,
          "velocity": 0.30708661417322836
        },
        {
          "duration": 0.0852271875000099,
          "durationTicks": 120,
          "midi": 85,
          "name": "C#6",
          "ticks": 187344,
          "time": 133.056685125,
          "velocity": 0.30708661417322836
        },
        {
          "duration": 0.0852271875000099,
          "durationTicks": 120,
          "midi": 70,
          "name": "A#4",
          "ticks": 187344,
          "time": 133.056685125,
          "velocity": 0.30708661417322836
        },
        {
          "duration": 0.0852271875000099,
          "durationTicks": 120,
          "midi": 65,
          "name": "F4",
          "ticks": 187344,
          "time": 133.056685125,
          "velocity": 0.30708661417322836
        },
        {
          "duration": 0.0852271875000099,
          "durationTicks": 120,
          "midi": 82,
          "name": "A#5",
          "ticks": 187344,
          "time": 133.056685125,
          "velocity": 0.30708661417322836
        },
        {
          "duration": 0.0852271875000099,
          "durationTicks": 120,
          "midi": 41,
          "name": "F2",
          "ticks": 187344,
          "time": 133.056685125,
          "velocity": 0.30708661417322836
        },
        {
          "duration": 0.0852271875000099,
          "durationTicks": 120,
          "midi": 82,
          "name": "A#5",
          "ticks": 187344,
          "time": 133.056685125,
          "velocity": 0.30708661417322836
        },
        {
          "duration": 0.0852271875000099,
          "durationTicks": 120,
          "midi": 73,
          "name": "C#5",
          "ticks": 187344,
          "time": 133.056685125,
          "velocity": 0.30708661417322836
        },
        {
          "duration": 0.08522718749998148,
          "durationTicks": 120,
          "midi": 65,
          "name": "F4",
          "ticks": 187368,
          "time": 133.0737305625,
          "velocity": 0.30708661417322836
        },
        {
          "duration": 0.08522718749998148,
          "durationTicks": 120,
          "midi": 77,
          "name": "F5",
          "ticks": 187368,
          "time": 133.0737305625,
          "velocity": 0.30708661417322836
        },
        {
          "duration": 0.08522718749998148,
          "durationTicks": 120,
          "midi": 70,
          "name": "A#4",
          "ticks": 187368,
          "time": 133.0737305625,
          "velocity": 0.30708661417322836
        },
        {
          "duration": 0.08522718749998148,
          "durationTicks": 120,
          "midi": 89,
          "name": "F6",
          "ticks": 187368,
          "time": 133.0737305625,
          "velocity": 0.30708661417322836
        },
        {
          "duration": 0.08522718749998148,
          "durationTicks": 120,
          "midi": 41,
          "name": "F2",
          "ticks": 187368,
          "time": 133.0737305625,
          "velocity": 0.30708661417322836
        },
        {
          "duration": 0.08522718749998148,
          "durationTicks": 120,
          "midi": 73,
          "name": "C#5",
          "ticks": 187368,
          "time": 133.0737305625,
          "velocity": 0.30708661417322836
        },
        {
          "duration": 0.08522718749998148,
          "durationTicks": 120,
          "midi": 41,
          "name": "F2",
          "ticks": 187368,
          "time": 133.0737305625,
          "velocity": 0.30708661417322836
        },
        {
          "duration": 0.08522718749998148,
          "durationTicks": 120,
          "midi": 82,
          "name": "A#5",
          "ticks": 187368,
          "time": 133.0737305625,
          "velocity": 0.30708661417322836
        },
        {
          "duration": 0.08522718749998148,
          "durationTicks": 120,
          "midi": 85,
          "name": "C#6",
          "ticks": 187368,
          "time": 133.0737305625,
          "velocity": 0.30708661417322836
        },
        {
          "duration": 0.08522718749998148,
          "durationTicks": 120,
          "midi": 94,
          "name": "A#6",
          "ticks": 187368,
          "time": 133.0737305625,
          "velocity": 0.30708661417322836
        },
        {
          "duration": 0.08522718749998148,
          "durationTicks": 120,
          "midi": 73,
          "name": "C#5",
          "ticks": 187464,
          "time": 133.1419123125,
          "velocity": 0.30708661417322836
        },
        {
          "duration": 0.08522718749998148,
          "durationTicks": 120,
          "midi": 77,
          "name": "F5",
          "ticks": 187464,
          "time": 133.1419123125,
          "velocity": 0.30708661417322836
        },
        {
          "duration": 0.08522718749998148,
          "durationTicks": 120,
          "midi": 85,
          "name": "C#6",
          "ticks": 187464,
          "time": 133.1419123125,
          "velocity": 0.30708661417322836
        },
        {
          "duration": 0.08522718749998148,
          "durationTicks": 120,
          "midi": 70,
          "name": "A#4",
          "ticks": 187464,
          "time": 133.1419123125,
          "velocity": 0.30708661417322836
        },
        {
          "duration": 0.08522718749998148,
          "durationTicks": 120,
          "midi": 77,
          "name": "F5",
          "ticks": 187464,
          "time": 133.1419123125,
          "velocity": 0.30708661417322836
        },
        {
          "duration": 0.08522718749998148,
          "durationTicks": 120,
          "midi": 94,
          "name": "A#6",
          "ticks": 187464,
          "time": 133.1419123125,
          "velocity": 0.30708661417322836
        },
        {
          "duration": 0.08522718749998148,
          "durationTicks": 120,
          "midi": 94,
          "name": "A#6",
          "ticks": 187464,
          "time": 133.1419123125,
          "velocity": 0.30708661417322836
        },
        {
          "duration": 0.08522718749998148,
          "durationTicks": 120,
          "midi": 73,
          "name": "C#5",
          "ticks": 187464,
          "time": 133.1419123125,
          "velocity": 0.30708661417322836
        },
        {
          "duration": 0.08522718749998148,
          "durationTicks": 120,
          "midi": 65,
          "name": "F4",
          "ticks": 187464,
          "time": 133.1419123125,
          "velocity": 0.30708661417322836
        },
        {
          "duration": 0.08522718749998148,
          "durationTicks": 120,
          "midi": 82,
          "name": "A#5",
          "ticks": 187464,
          "time": 133.1419123125,
          "velocity": 0.30708661417322836
        },
        {
          "duration": 0.08522718749998148,
          "durationTicks": 120,
          "midi": 89,
          "name": "F6",
          "ticks": 187464,
          "time": 133.1419123125,
          "velocity": 0.30708661417322836
        },
        {
          "duration": 0.08522718749998148,
          "durationTicks": 120,
          "midi": 82,
          "name": "A#5",
          "ticks": 187464,
          "time": 133.1419123125,
          "velocity": 0.30708661417322836
        },
        {
          "duration": 0.08522718749998148,
          "durationTicks": 120,
          "midi": 89,
          "name": "F6",
          "ticks": 187464,
          "time": 133.1419123125,
          "velocity": 0.30708661417322836
        },
        {
          "duration": 0.08522718749998148,
          "durationTicks": 120,
          "midi": 65,
          "name": "F4",
          "ticks": 187464,
          "time": 133.1419123125,
          "velocity": 0.30708661417322836
        },
        {
          "duration": 0.08522718749998148,
          "durationTicks": 120,
          "midi": 70,
          "name": "A#4",
          "ticks": 187464,
          "time": 133.1419123125,
          "velocity": 0.30708661417322836
        },
        {
          "duration": 0.08522718749998148,
          "durationTicks": 120,
          "midi": 85,
          "name": "C#6",
          "ticks": 187464,
          "time": 133.1419123125,
          "velocity": 0.30708661417322836
        },
        {
          "duration": 0.0852271875000099,
          "durationTicks": 120,
          "midi": 73,
          "name": "C#5",
          "ticks": 187488,
          "time": 133.15895774999998,
          "velocity": 0.30708661417322836
        },
        {
          "duration": 0.0852271875000099,
          "durationTicks": 120,
          "midi": 77,
          "name": "F5",
          "ticks": 187488,
          "time": 133.15895774999998,
          "velocity": 0.30708661417322836
        },
        {
          "duration": 0.0852271875000099,
          "durationTicks": 120,
          "midi": 85,
          "name": "C#6",
          "ticks": 187488,
          "time": 133.15895774999998,
          "velocity": 0.30708661417322836
        },
        {
          "duration": 0.0852271875000099,
          "durationTicks": 120,
          "midi": 70,
          "name": "A#4",
          "ticks": 187488,
          "time": 133.15895774999998,
          "velocity": 0.30708661417322836
        },
        {
          "duration": 0.0852271875000099,
          "durationTicks": 120,
          "midi": 94,
          "name": "A#6",
          "ticks": 187488,
          "time": 133.15895774999998,
          "velocity": 0.30708661417322836
        },
        {
          "duration": 0.0852271875000099,
          "durationTicks": 120,
          "midi": 89,
          "name": "F6",
          "ticks": 187488,
          "time": 133.15895774999998,
          "velocity": 0.30708661417322836
        },
        {
          "duration": 0.0852271875000099,
          "durationTicks": 120,
          "midi": 82,
          "name": "A#5",
          "ticks": 187488,
          "time": 133.15895774999998,
          "velocity": 0.30708661417322836
        },
        {
          "duration": 0.0852271875000099,
          "durationTicks": 120,
          "midi": 65,
          "name": "F4",
          "ticks": 187488,
          "time": 133.15895774999998,
          "velocity": 0.30708661417322836
        },
        {
          "duration": 0.0852271875000099,
          "durationTicks": 120,
          "midi": 73,
          "name": "C#5",
          "ticks": 187584,
          "time": 133.2271395,
          "velocity": 0.30708661417322836
        },
        {
          "duration": 0.0852271875000099,
          "durationTicks": 120,
          "midi": 82,
          "name": "A#5",
          "ticks": 187584,
          "time": 133.2271395,
          "velocity": 0.30708661417322836
        },
        {
          "duration": 0.0852271875000099,
          "durationTicks": 120,
          "midi": 53,
          "name": "F3",
          "ticks": 187584,
          "time": 133.2271395,
          "velocity": 0.30708661417322836
        },
        {
          "duration": 0.0852271875000099,
          "durationTicks": 120,
          "midi": 53,
          "name": "F3",
          "ticks": 187584,
          "time": 133.2271395,
          "velocity": 0.30708661417322836
        },
        {
          "duration": 0.0852271875000099,
          "durationTicks": 120,
          "midi": 49,
          "name": "C#3",
          "ticks": 187584,
          "time": 133.2271395,
          "velocity": 0.30708661417322836
        },
        {
          "duration": 0.0852271875000099,
          "durationTicks": 120,
          "midi": 85,
          "name": "C#6",
          "ticks": 187584,
          "time": 133.2271395,
          "velocity": 0.30708661417322836
        },
        {
          "duration": 0.0852271875000099,
          "durationTicks": 120,
          "midi": 53,
          "name": "F3",
          "ticks": 187584,
          "time": 133.2271395,
          "velocity": 0.30708661417322836
        },
        {
          "duration": 0.0852271875000099,
          "durationTicks": 120,
          "midi": 77,
          "name": "F5",
          "ticks": 187584,
          "time": 133.2271395,
          "velocity": 0.30708661417322836
        },
        {
          "duration": 0.0852271875000099,
          "durationTicks": 120,
          "midi": 49,
          "name": "C#3",
          "ticks": 187584,
          "time": 133.2271395,
          "velocity": 0.30708661417322836
        },
        {
          "duration": 0.0852271875000099,
          "durationTicks": 120,
          "midi": 53,
          "name": "F3",
          "ticks": 187584,
          "time": 133.2271395,
          "velocity": 0.30708661417322836
        },
        {
          "duration": 0.0852271875000099,
          "durationTicks": 120,
          "midi": 89,
          "name": "F6",
          "ticks": 187584,
          "time": 133.2271395,
          "velocity": 0.30708661417322836
        },
        {
          "duration": 0.0852271875000099,
          "durationTicks": 120,
          "midi": 85,
          "name": "C#6",
          "ticks": 187584,
          "time": 133.2271395,
          "velocity": 0.30708661417322836
        },
        {
          "duration": 0.0852271875000099,
          "durationTicks": 120,
          "midi": 94,
          "name": "A#6",
          "ticks": 187584,
          "time": 133.2271395,
          "velocity": 0.30708661417322836
        },
        {
          "duration": 0.0852271875000099,
          "durationTicks": 120,
          "midi": 65,
          "name": "F4",
          "ticks": 187584,
          "time": 133.2271395,
          "velocity": 0.30708661417322836
        },
        {
          "duration": 0.0852271875000099,
          "durationTicks": 120,
          "midi": 65,
          "name": "F4",
          "ticks": 187584,
          "time": 133.2271395,
          "velocity": 0.30708661417322836
        },
        {
          "duration": 0.0852271875000099,
          "durationTicks": 120,
          "midi": 49,
          "name": "C#3",
          "ticks": 187584,
          "time": 133.2271395,
          "velocity": 0.30708661417322836
        },
        {
          "duration": 0.0852271875000099,
          "durationTicks": 120,
          "midi": 49,
          "name": "C#3",
          "ticks": 187584,
          "time": 133.2271395,
          "velocity": 0.30708661417322836
        },
        {
          "duration": 0.0852271875000099,
          "durationTicks": 120,
          "midi": 77,
          "name": "F5",
          "ticks": 187584,
          "time": 133.2271395,
          "velocity": 0.30708661417322836
        },
        {
          "duration": 0.0852271875000099,
          "durationTicks": 120,
          "midi": 73,
          "name": "C#5",
          "ticks": 187584,
          "time": 133.2271395,
          "velocity": 0.30708661417322836
        },
        {
          "duration": 0.0852271875000099,
          "durationTicks": 120,
          "midi": 82,
          "name": "A#5",
          "ticks": 187584,
          "time": 133.2271395,
          "velocity": 0.30708661417322836
        },
        {
          "duration": 0.0852271875000099,
          "durationTicks": 120,
          "midi": 89,
          "name": "F6",
          "ticks": 187584,
          "time": 133.2271395,
          "velocity": 0.30708661417322836
        },
        {
          "duration": 0.0852271875000099,
          "durationTicks": 120,
          "midi": 70,
          "name": "A#4",
          "ticks": 187584,
          "time": 133.2271395,
          "velocity": 0.30708661417322836
        },
        {
          "duration": 0.0852271875000099,
          "durationTicks": 120,
          "midi": 70,
          "name": "A#4",
          "ticks": 187584,
          "time": 133.2271395,
          "velocity": 0.30708661417322836
        },
        {
          "duration": 0.0852271875000099,
          "durationTicks": 120,
          "midi": 94,
          "name": "A#6",
          "ticks": 187584,
          "time": 133.2271395,
          "velocity": 0.30708661417322836
        },
        {
          "duration": 0.0852271875000099,
          "durationTicks": 120,
          "midi": 94,
          "name": "A#6",
          "ticks": 187608,
          "time": 133.2441849375,
          "velocity": 0.30708661417322836
        },
        {
          "duration": 0.0852271875000099,
          "durationTicks": 120,
          "midi": 49,
          "name": "C#3",
          "ticks": 187608,
          "time": 133.2441849375,
          "velocity": 0.30708661417322836
        },
        {
          "duration": 0.0852271875000099,
          "durationTicks": 120,
          "midi": 77,
          "name": "F5",
          "ticks": 187608,
          "time": 133.2441849375,
          "velocity": 0.30708661417322836
        },
        {
          "duration": 0.0852271875000099,
          "durationTicks": 120,
          "midi": 82,
          "name": "A#5",
          "ticks": 187608,
          "time": 133.2441849375,
          "velocity": 0.30708661417322836
        },
        {
          "duration": 0.0852271875000099,
          "durationTicks": 120,
          "midi": 70,
          "name": "A#4",
          "ticks": 187608,
          "time": 133.2441849375,
          "velocity": 0.30708661417322836
        },
        {
          "duration": 0.0852271875000099,
          "durationTicks": 120,
          "midi": 49,
          "name": "C#3",
          "ticks": 187608,
          "time": 133.2441849375,
          "velocity": 0.30708661417322836
        },
        {
          "duration": 0.0852271875000099,
          "durationTicks": 120,
          "midi": 85,
          "name": "C#6",
          "ticks": 187608,
          "time": 133.2441849375,
          "velocity": 0.30708661417322836
        },
        {
          "duration": 0.0852271875000099,
          "durationTicks": 120,
          "midi": 73,
          "name": "C#5",
          "ticks": 187608,
          "time": 133.2441849375,
          "velocity": 0.30708661417322836
        },
        {
          "duration": 0.0852271875000099,
          "durationTicks": 120,
          "midi": 89,
          "name": "F6",
          "ticks": 187608,
          "time": 133.2441849375,
          "velocity": 0.30708661417322836
        },
        {
          "duration": 0.0852271875000099,
          "durationTicks": 120,
          "midi": 53,
          "name": "F3",
          "ticks": 187608,
          "time": 133.2441849375,
          "velocity": 0.30708661417322836
        },
        {
          "duration": 0.0852271875000099,
          "durationTicks": 120,
          "midi": 65,
          "name": "F4",
          "ticks": 187608,
          "time": 133.2441849375,
          "velocity": 0.30708661417322836
        },
        {
          "duration": 0.0852271875000099,
          "durationTicks": 120,
          "midi": 53,
          "name": "F3",
          "ticks": 187608,
          "time": 133.2441849375,
          "velocity": 0.30708661417322836
        },
        {
          "duration": 0.0852271875000099,
          "durationTicks": 120,
          "midi": 73,
          "name": "C#5",
          "ticks": 187704,
          "time": 133.3123666875,
          "velocity": 0.30708661417322836
        },
        {
          "duration": 0.0852271875000099,
          "durationTicks": 120,
          "midi": 73,
          "name": "C#5",
          "ticks": 187704,
          "time": 133.3123666875,
          "velocity": 0.30708661417322836
        },
        {
          "duration": 0.0852271875000099,
          "durationTicks": 120,
          "midi": 82,
          "name": "A#5",
          "ticks": 187704,
          "time": 133.3123666875,
          "velocity": 0.30708661417322836
        },
        {
          "duration": 0.0852271875000099,
          "durationTicks": 120,
          "midi": 94,
          "name": "A#6",
          "ticks": 187704,
          "time": 133.3123666875,
          "velocity": 0.30708661417322836
        },
        {
          "duration": 0.0852271875000099,
          "durationTicks": 120,
          "midi": 85,
          "name": "C#6",
          "ticks": 187704,
          "time": 133.3123666875,
          "velocity": 0.30708661417322836
        },
        {
          "duration": 0.0852271875000099,
          "durationTicks": 120,
          "midi": 94,
          "name": "A#6",
          "ticks": 187704,
          "time": 133.3123666875,
          "velocity": 0.30708661417322836
        },
        {
          "duration": 0.0852271875000099,
          "durationTicks": 120,
          "midi": 70,
          "name": "A#4",
          "ticks": 187704,
          "time": 133.3123666875,
          "velocity": 0.30708661417322836
        },
        {
          "duration": 0.0852271875000099,
          "durationTicks": 120,
          "midi": 89,
          "name": "F6",
          "ticks": 187704,
          "time": 133.3123666875,
          "velocity": 0.30708661417322836
        },
        {
          "duration": 0.0852271875000099,
          "durationTicks": 120,
          "midi": 89,
          "name": "F6",
          "ticks": 187704,
          "time": 133.3123666875,
          "velocity": 0.30708661417322836
        },
        {
          "duration": 0.0852271875000099,
          "durationTicks": 120,
          "midi": 85,
          "name": "C#6",
          "ticks": 187704,
          "time": 133.3123666875,
          "velocity": 0.30708661417322836
        },
        {
          "duration": 0.0852271875000099,
          "durationTicks": 120,
          "midi": 77,
          "name": "F5",
          "ticks": 187704,
          "time": 133.3123666875,
          "velocity": 0.30708661417322836
        },
        {
          "duration": 0.0852271875000099,
          "durationTicks": 120,
          "midi": 70,
          "name": "A#4",
          "ticks": 187704,
          "time": 133.3123666875,
          "velocity": 0.30708661417322836
        },
        {
          "duration": 0.0852271875000099,
          "durationTicks": 120,
          "midi": 77,
          "name": "F5",
          "ticks": 187704,
          "time": 133.3123666875,
          "velocity": 0.30708661417322836
        },
        {
          "duration": 0.0852271875000099,
          "durationTicks": 120,
          "midi": 82,
          "name": "A#5",
          "ticks": 187704,
          "time": 133.3123666875,
          "velocity": 0.30708661417322836
        },
        {
          "duration": 0.0852271875000099,
          "durationTicks": 120,
          "midi": 65,
          "name": "F4",
          "ticks": 187704,
          "time": 133.3123666875,
          "velocity": 0.30708661417322836
        },
        {
          "duration": 0.0852271875000099,
          "durationTicks": 120,
          "midi": 65,
          "name": "F4",
          "ticks": 187704,
          "time": 133.3123666875,
          "velocity": 0.30708661417322836
        },
        {
          "duration": 0.08522718749998148,
          "durationTicks": 120,
          "midi": 77,
          "name": "F5",
          "ticks": 187728,
          "time": 133.329412125,
          "velocity": 0.30708661417322836
        },
        {
          "duration": 0.08522718749998148,
          "durationTicks": 120,
          "midi": 82,
          "name": "A#5",
          "ticks": 187728,
          "time": 133.329412125,
          "velocity": 0.30708661417322836
        },
        {
          "duration": 0.08522718749998148,
          "durationTicks": 120,
          "midi": 85,
          "name": "C#6",
          "ticks": 187728,
          "time": 133.329412125,
          "velocity": 0.30708661417322836
        },
        {
          "duration": 0.08522718749998148,
          "durationTicks": 120,
          "midi": 65,
          "name": "F4",
          "ticks": 187728,
          "time": 133.329412125,
          "velocity": 0.30708661417322836
        },
        {
          "duration": 0.08522718749998148,
          "durationTicks": 120,
          "midi": 70,
          "name": "A#4",
          "ticks": 187728,
          "time": 133.329412125,
          "velocity": 0.30708661417322836
        },
        {
          "duration": 0.08522718749998148,
          "durationTicks": 120,
          "midi": 73,
          "name": "C#5",
          "ticks": 187728,
          "time": 133.329412125,
          "velocity": 0.30708661417322836
        },
        {
          "duration": 0.08522718749998148,
          "durationTicks": 120,
          "midi": 89,
          "name": "F6",
          "ticks": 187728,
          "time": 133.329412125,
          "velocity": 0.30708661417322836
        },
        {
          "duration": 0.08522718749998148,
          "durationTicks": 120,
          "midi": 94,
          "name": "A#6",
          "ticks": 187728,
          "time": 133.329412125,
          "velocity": 0.30708661417322836
        },
        {
          "duration": 0.08522718749998148,
          "durationTicks": 120,
          "midi": 46,
          "name": "A#2",
          "ticks": 187824,
          "time": 133.397593875,
          "velocity": 0.30708661417322836
        },
        {
          "duration": 0.08522718749998148,
          "durationTicks": 120,
          "midi": 89,
          "name": "F6",
          "ticks": 187824,
          "time": 133.397593875,
          "velocity": 0.30708661417322836
        },
        {
          "duration": 0.08522718749998148,
          "durationTicks": 120,
          "midi": 70,
          "name": "A#4",
          "ticks": 187824,
          "time": 133.397593875,
          "velocity": 0.30708661417322836
        },
        {
          "duration": 0.08522718749998148,
          "durationTicks": 120,
          "midi": 89,
          "name": "F6",
          "ticks": 187824,
          "time": 133.397593875,
          "velocity": 0.30708661417322836
        },
        {
          "duration": 0.08522718749998148,
          "durationTicks": 120,
          "midi": 65,
          "name": "F4",
          "ticks": 187824,
          "time": 133.397593875,
          "velocity": 0.30708661417322836
        },
        {
          "duration": 0.08522718749998148,
          "durationTicks": 120,
          "midi": 46,
          "name": "A#2",
          "ticks": 187824,
          "time": 133.397593875,
          "velocity": 0.30708661417322836
        },
        {
          "duration": 0.08522718749998148,
          "durationTicks": 120,
          "midi": 46,
          "name": "A#2",
          "ticks": 187824,
          "time": 133.397593875,
          "velocity": 0.30708661417322836
        },
        {
          "duration": 0.08522718749998148,
          "durationTicks": 120,
          "midi": 65,
          "name": "F4",
          "ticks": 187824,
          "time": 133.397593875,
          "velocity": 0.30708661417322836
        },
        {
          "duration": 0.08522718749998148,
          "durationTicks": 120,
          "midi": 82,
          "name": "A#5",
          "ticks": 187824,
          "time": 133.397593875,
          "velocity": 0.30708661417322836
        },
        {
          "duration": 0.08522718749998148,
          "durationTicks": 120,
          "midi": 73,
          "name": "C#5",
          "ticks": 187824,
          "time": 133.397593875,
          "velocity": 0.30708661417322836
        },
        {
          "duration": 0.08522718749998148,
          "durationTicks": 120,
          "midi": 85,
          "name": "C#6",
          "ticks": 187824,
          "time": 133.397593875,
          "velocity": 0.30708661417322836
        },
        {
          "duration": 0.08522718749998148,
          "durationTicks": 120,
          "midi": 77,
          "name": "F5",
          "ticks": 187824,
          "time": 133.397593875,
          "velocity": 0.30708661417322836
        },
        {
          "duration": 0.08522718749998148,
          "durationTicks": 120,
          "midi": 94,
          "name": "A#6",
          "ticks": 187824,
          "time": 133.397593875,
          "velocity": 0.30708661417322836
        },
        {
          "duration": 0.08522718749998148,
          "durationTicks": 120,
          "midi": 46,
          "name": "A#2",
          "ticks": 187824,
          "time": 133.397593875,
          "velocity": 0.30708661417322836
        },
        {
          "duration": 0.08522718749998148,
          "durationTicks": 120,
          "midi": 70,
          "name": "A#4",
          "ticks": 187824,
          "time": 133.397593875,
          "velocity": 0.30708661417322836
        },
        {
          "duration": 0.08522718749998148,
          "durationTicks": 120,
          "midi": 94,
          "name": "A#6",
          "ticks": 187824,
          "time": 133.397593875,
          "velocity": 0.30708661417322836
        },
        {
          "duration": 0.08522718749998148,
          "durationTicks": 120,
          "midi": 73,
          "name": "C#5",
          "ticks": 187824,
          "time": 133.397593875,
          "velocity": 0.30708661417322836
        },
        {
          "duration": 0.08522718749998148,
          "durationTicks": 120,
          "midi": 82,
          "name": "A#5",
          "ticks": 187824,
          "time": 133.397593875,
          "velocity": 0.30708661417322836
        },
        {
          "duration": 0.08522718749998148,
          "durationTicks": 120,
          "midi": 85,
          "name": "C#6",
          "ticks": 187824,
          "time": 133.397593875,
          "velocity": 0.30708661417322836
        },
        {
          "duration": 0.08522718749998148,
          "durationTicks": 120,
          "midi": 77,
          "name": "F5",
          "ticks": 187824,
          "time": 133.397593875,
          "velocity": 0.30708661417322836
        },
        {
          "duration": 0.0852271875000099,
          "durationTicks": 120,
          "midi": 94,
          "name": "A#6",
          "ticks": 187848,
          "time": 133.4146393125,
          "velocity": 0.30708661417322836
        },
        {
          "duration": 0.0852271875000099,
          "durationTicks": 120,
          "midi": 70,
          "name": "A#4",
          "ticks": 187848,
          "time": 133.4146393125,
          "velocity": 0.30708661417322836
        },
        {
          "duration": 0.0852271875000099,
          "durationTicks": 120,
          "midi": 89,
          "name": "F6",
          "ticks": 187848,
          "time": 133.4146393125,
          "velocity": 0.30708661417322836
        },
        {
          "duration": 0.0852271875000099,
          "durationTicks": 120,
          "midi": 65,
          "name": "F4",
          "ticks": 187848,
          "time": 133.4146393125,
          "velocity": 0.30708661417322836
        },
        {
          "duration": 0.0852271875000099,
          "durationTicks": 120,
          "midi": 46,
          "name": "A#2",
          "ticks": 187848,
          "time": 133.4146393125,
          "velocity": 0.30708661417322836
        },
        {
          "duration": 0.0852271875000099,
          "durationTicks": 120,
          "midi": 77,
          "name": "F5",
          "ticks": 187848,
          "time": 133.4146393125,
          "velocity": 0.30708661417322836
        },
        {
          "duration": 0.0852271875000099,
          "durationTicks": 120,
          "midi": 82,
          "name": "A#5",
          "ticks": 187848,
          "time": 133.4146393125,
          "velocity": 0.30708661417322836
        },
        {
          "duration": 0.0852271875000099,
          "durationTicks": 120,
          "midi": 46,
          "name": "A#2",
          "ticks": 187848,
          "time": 133.4146393125,
          "velocity": 0.30708661417322836
        },
        {
          "duration": 0.0852271875000099,
          "durationTicks": 120,
          "midi": 85,
          "name": "C#6",
          "ticks": 187848,
          "time": 133.4146393125,
          "velocity": 0.30708661417322836
        },
        {
          "duration": 0.0852271875000099,
          "durationTicks": 120,
          "midi": 73,
          "name": "C#5",
          "ticks": 187848,
          "time": 133.4146393125,
          "velocity": 0.30708661417322836
        },
        {
          "duration": 0.0852271875000099,
          "durationTicks": 120,
          "midi": 82,
          "name": "A#5",
          "ticks": 187944,
          "time": 133.4828210625,
          "velocity": 0.30708661417322836
        },
        {
          "duration": 0.0852271875000099,
          "durationTicks": 120,
          "midi": 65,
          "name": "F4",
          "ticks": 187944,
          "time": 133.4828210625,
          "velocity": 0.30708661417322836
        },
        {
          "duration": 0.0852271875000099,
          "durationTicks": 120,
          "midi": 65,
          "name": "F4",
          "ticks": 187944,
          "time": 133.4828210625,
          "velocity": 0.30708661417322836
        },
        {
          "duration": 0.0852271875000099,
          "durationTicks": 120,
          "midi": 89,
          "name": "F6",
          "ticks": 187944,
          "time": 133.4828210625,
          "velocity": 0.30708661417322836
        },
        {
          "duration": 0.0852271875000099,
          "durationTicks": 120,
          "midi": 94,
          "name": "A#6",
          "ticks": 187944,
          "time": 133.4828210625,
          "velocity": 0.30708661417322836
        },
        {
          "duration": 0.0852271875000099,
          "durationTicks": 120,
          "midi": 77,
          "name": "F5",
          "ticks": 187944,
          "time": 133.4828210625,
          "velocity": 0.30708661417322836
        },
        {
          "duration": 0.0852271875000099,
          "durationTicks": 120,
          "midi": 73,
          "name": "C#5",
          "ticks": 187944,
          "time": 133.4828210625,
          "velocity": 0.30708661417322836
        },
        {
          "duration": 0.0852271875000099,
          "durationTicks": 120,
          "midi": 73,
          "name": "C#5",
          "ticks": 187944,
          "time": 133.4828210625,
          "velocity": 0.30708661417322836
        },
        {
          "duration": 0.0852271875000099,
          "durationTicks": 120,
          "midi": 82,
          "name": "A#5",
          "ticks": 187944,
          "time": 133.4828210625,
          "velocity": 0.30708661417322836
        },
        {
          "duration": 0.0852271875000099,
          "durationTicks": 120,
          "midi": 70,
          "name": "A#4",
          "ticks": 187944,
          "time": 133.4828210625,
          "velocity": 0.30708661417322836
        },
        {
          "duration": 0.0852271875000099,
          "durationTicks": 120,
          "midi": 85,
          "name": "C#6",
          "ticks": 187944,
          "time": 133.4828210625,
          "velocity": 0.30708661417322836
        },
        {
          "duration": 0.0852271875000099,
          "durationTicks": 120,
          "midi": 70,
          "name": "A#4",
          "ticks": 187944,
          "time": 133.4828210625,
          "velocity": 0.30708661417322836
        },
        {
          "duration": 0.0852271875000099,
          "durationTicks": 120,
          "midi": 94,
          "name": "A#6",
          "ticks": 187944,
          "time": 133.4828210625,
          "velocity": 0.30708661417322836
        },
        {
          "duration": 0.0852271875000099,
          "durationTicks": 120,
          "midi": 77,
          "name": "F5",
          "ticks": 187944,
          "time": 133.4828210625,
          "velocity": 0.30708661417322836
        },
        {
          "duration": 0.0852271875000099,
          "durationTicks": 120,
          "midi": 85,
          "name": "C#6",
          "ticks": 187944,
          "time": 133.4828210625,
          "velocity": 0.30708661417322836
        },
        {
          "duration": 0.0852271875000099,
          "durationTicks": 120,
          "midi": 89,
          "name": "F6",
          "ticks": 187944,
          "time": 133.4828210625,
          "velocity": 0.30708661417322836
        },
        {
          "duration": 0.0852271875000099,
          "durationTicks": 120,
          "midi": 85,
          "name": "C#6",
          "ticks": 187968,
          "time": 133.4998665,
          "velocity": 0.30708661417322836
        },
        {
          "duration": 0.0852271875000099,
          "durationTicks": 120,
          "midi": 70,
          "name": "A#4",
          "ticks": 187968,
          "time": 133.4998665,
          "velocity": 0.30708661417322836
        },
        {
          "duration": 0.0852271875000099,
          "durationTicks": 120,
          "midi": 89,
          "name": "F6",
          "ticks": 187968,
          "time": 133.4998665,
          "velocity": 0.30708661417322836
        },
        {
          "duration": 0.0852271875000099,
          "durationTicks": 120,
          "midi": 73,
          "name": "C#5",
          "ticks": 187968,
          "time": 133.4998665,
          "velocity": 0.30708661417322836
        },
        {
          "duration": 0.0852271875000099,
          "durationTicks": 120,
          "midi": 82,
          "name": "A#5",
          "ticks": 187968,
          "time": 133.4998665,
          "velocity": 0.30708661417322836
        },
        {
          "duration": 0.0852271875000099,
          "durationTicks": 120,
          "midi": 65,
          "name": "F4",
          "ticks": 187968,
          "time": 133.4998665,
          "velocity": 0.30708661417322836
        },
        {
          "duration": 0.0852271875000099,
          "durationTicks": 120,
          "midi": 94,
          "name": "A#6",
          "ticks": 187968,
          "time": 133.4998665,
          "velocity": 0.30708661417322836
        },
        {
          "duration": 0.0852271875000099,
          "durationTicks": 120,
          "midi": 77,
          "name": "F5",
          "ticks": 187968,
          "time": 133.4998665,
          "velocity": 0.30708661417322836
        },
        {
          "duration": 0.08522718749998148,
          "durationTicks": 120,
          "midi": 85,
          "name": "C#6",
          "ticks": 188064,
          "time": 133.56804825,
          "velocity": 0.30708661417322836
        },
        {
          "duration": 0.08522718749998148,
          "durationTicks": 120,
          "midi": 70,
          "name": "A#4",
          "ticks": 188064,
          "time": 133.56804825,
          "velocity": 0.30708661417322836
        },
        {
          "duration": 0.08522718749998148,
          "durationTicks": 120,
          "midi": 77,
          "name": "F5",
          "ticks": 188064,
          "time": 133.56804825,
          "velocity": 0.30708661417322836
        },
        {
          "duration": 0.08522718749998148,
          "durationTicks": 120,
          "midi": 89,
          "name": "F6",
          "ticks": 188064,
          "time": 133.56804825,
          "velocity": 0.30708661417322836
        },
        {
          "duration": 0.08522718749998148,
          "durationTicks": 120,
          "midi": 49,
          "name": "C#3",
          "ticks": 188064,
          "time": 133.56804825,
          "velocity": 0.30708661417322836
        },
        {
          "duration": 0.08522718749998148,
          "durationTicks": 120,
          "midi": 89,
          "name": "F6",
          "ticks": 188064,
          "time": 133.56804825,
          "velocity": 0.30708661417322836
        },
        {
          "duration": 0.08522718749998148,
          "durationTicks": 120,
          "midi": 94,
          "name": "A#6",
          "ticks": 188064,
          "time": 133.56804825,
          "velocity": 0.30708661417322836
        },
        {
          "duration": 0.08522718749998148,
          "durationTicks": 120,
          "midi": 82,
          "name": "A#5",
          "ticks": 188064,
          "time": 133.56804825,
          "velocity": 0.30708661417322836
        },
        {
          "duration": 0.08522718749998148,
          "durationTicks": 120,
          "midi": 65,
          "name": "F4",
          "ticks": 188064,
          "time": 133.56804825,
          "velocity": 0.30708661417322836
        },
        {
          "duration": 0.08522718749998148,
          "durationTicks": 120,
          "midi": 70,
          "name": "A#4",
          "ticks": 188064,
          "time": 133.56804825,
          "velocity": 0.30708661417322836
        },
        {
          "duration": 0.08522718749998148,
          "durationTicks": 120,
          "midi": 49,
          "name": "C#3",
          "ticks": 188064,
          "time": 133.56804825,
          "velocity": 0.30708661417322836
        },
        {
          "duration": 0.08522718749998148,
          "durationTicks": 120,
          "midi": 53,
          "name": "F3",
          "ticks": 188064,
          "time": 133.56804825,
          "velocity": 0.30708661417322836
        },
        {
          "duration": 0.08522718749998148,
          "durationTicks": 120,
          "midi": 82,
          "name": "A#5",
          "ticks": 188064,
          "time": 133.56804825,
          "velocity": 0.30708661417322836
        },
        {
          "duration": 0.08522718749998148,
          "durationTicks": 120,
          "midi": 53,
          "name": "F3",
          "ticks": 188064,
          "time": 133.56804825,
          "velocity": 0.30708661417322836
        },
        {
          "duration": 0.08522718749998148,
          "durationTicks": 120,
          "midi": 77,
          "name": "F5",
          "ticks": 188064,
          "time": 133.56804825,
          "velocity": 0.30708661417322836
        },
        {
          "duration": 0.08522718749998148,
          "durationTicks": 120,
          "midi": 65,
          "name": "F4",
          "ticks": 188064,
          "time": 133.56804825,
          "velocity": 0.30708661417322836
        },
        {
          "duration": 0.08522718749998148,
          "durationTicks": 120,
          "midi": 49,
          "name": "C#3",
          "ticks": 188064,
          "time": 133.56804825,
          "velocity": 0.30708661417322836
        },
        {
          "duration": 0.08522718749998148,
          "durationTicks": 120,
          "midi": 49,
          "name": "C#3",
          "ticks": 188064,
          "time": 133.56804825,
          "velocity": 0.30708661417322836
        },
        {
          "duration": 0.08522718749998148,
          "durationTicks": 120,
          "midi": 53,
          "name": "F3",
          "ticks": 188064,
          "time": 133.56804825,
          "velocity": 0.30708661417322836
        },
        {
          "duration": 0.08522718749998148,
          "durationTicks": 120,
          "midi": 73,
          "name": "C#5",
          "ticks": 188064,
          "time": 133.56804825,
          "velocity": 0.30708661417322836
        },
        {
          "duration": 0.08522718749998148,
          "durationTicks": 120,
          "midi": 53,
          "name": "F3",
          "ticks": 188064,
          "time": 133.56804825,
          "velocity": 0.30708661417322836
        },
        {
          "duration": 0.08522718749998148,
          "durationTicks": 120,
          "midi": 85,
          "name": "C#6",
          "ticks": 188064,
          "time": 133.56804825,
          "velocity": 0.30708661417322836
        },
        {
          "duration": 0.08522718749998148,
          "durationTicks": 120,
          "midi": 73,
          "name": "C#5",
          "ticks": 188064,
          "time": 133.56804825,
          "velocity": 0.30708661417322836
        },
        {
          "duration": 0.08522718749998148,
          "durationTicks": 120,
          "midi": 94,
          "name": "A#6",
          "ticks": 188064,
          "time": 133.56804825,
          "velocity": 0.30708661417322836
        },
        {
          "duration": 0.08522718749998148,
          "durationTicks": 120,
          "midi": 73,
          "name": "C#5",
          "ticks": 188088,
          "time": 133.5850936875,
          "velocity": 0.30708661417322836
        },
        {
          "duration": 0.08522718749998148,
          "durationTicks": 120,
          "midi": 89,
          "name": "F6",
          "ticks": 188088,
          "time": 133.5850936875,
          "velocity": 0.30708661417322836
        },
        {
          "duration": 0.08522718749998148,
          "durationTicks": 120,
          "midi": 53,
          "name": "F3",
          "ticks": 188088,
          "time": 133.5850936875,
          "velocity": 0.30708661417322836
        },
        {
          "duration": 0.08522718749998148,
          "durationTicks": 120,
          "midi": 49,
          "name": "C#3",
          "ticks": 188088,
          "time": 133.5850936875,
          "velocity": 0.30708661417322836
        },
        {
          "duration": 0.08522718749998148,
          "durationTicks": 120,
          "midi": 85,
          "name": "C#6",
          "ticks": 188088,
          "time": 133.5850936875,
          "velocity": 0.30708661417322836
        },
        {
          "duration": 0.08522718749998148,
          "durationTicks": 120,
          "midi": 77,
          "name": "F5",
          "ticks": 188088,
          "time": 133.5850936875,
          "velocity": 0.30708661417322836
        },
        {
          "duration": 0.08522718749998148,
          "durationTicks": 120,
          "midi": 53,
          "name": "F3",
          "ticks": 188088,
          "time": 133.5850936875,
          "velocity": 0.30708661417322836
        },
        {
          "duration": 0.08522718749998148,
          "durationTicks": 120,
          "midi": 65,
          "name": "F4",
          "ticks": 188088,
          "time": 133.5850936875,
          "velocity": 0.30708661417322836
        },
        {
          "duration": 0.08522718749998148,
          "durationTicks": 120,
          "midi": 49,
          "name": "C#3",
          "ticks": 188088,
          "time": 133.5850936875,
          "velocity": 0.30708661417322836
        },
        {
          "duration": 0.08522718749998148,
          "durationTicks": 120,
          "midi": 82,
          "name": "A#5",
          "ticks": 188088,
          "time": 133.5850936875,
          "velocity": 0.30708661417322836
        },
        {
          "duration": 0.08522718749998148,
          "durationTicks": 120,
          "midi": 94,
          "name": "A#6",
          "ticks": 188088,
          "time": 133.5850936875,
          "velocity": 0.30708661417322836
        },
        {
          "duration": 0.08522718749998148,
          "durationTicks": 120,
          "midi": 70,
          "name": "A#4",
          "ticks": 188088,
          "time": 133.5850936875,
          "velocity": 0.30708661417322836
        },
        {
          "duration": 0.0852271875000099,
          "durationTicks": 120,
          "midi": 65,
          "name": "F4",
          "ticks": 188184,
          "time": 133.65327543749999,
          "velocity": 0.30708661417322836
        },
        {
          "duration": 0.0852271875000099,
          "durationTicks": 120,
          "midi": 94,
          "name": "A#6",
          "ticks": 188184,
          "time": 133.65327543749999,
          "velocity": 0.30708661417322836
        },
        {
          "duration": 0.0852271875000099,
          "durationTicks": 120,
          "midi": 77,
          "name": "F5",
          "ticks": 188184,
          "time": 133.65327543749999,
          "velocity": 0.30708661417322836
        },
        {
          "duration": 0.0852271875000099,
          "durationTicks": 120,
          "midi": 65,
          "name": "F4",
          "ticks": 188184,
          "time": 133.65327543749999,
          "velocity": 0.30708661417322836
        },
        {
          "duration": 0.0852271875000099,
          "durationTicks": 120,
          "midi": 89,
          "name": "F6",
          "ticks": 188184,
          "time": 133.65327543749999,
          "velocity": 0.30708661417322836
        },
        {
          "duration": 0.0852271875000099,
          "durationTicks": 120,
          "midi": 82,
          "name": "A#5",
          "ticks": 188184,
          "time": 133.65327543749999,
          "velocity": 0.30708661417322836
        },
        {
          "duration": 0.0852271875000099,
          "durationTicks": 120,
          "midi": 77,
          "name": "F5",
          "ticks": 188184,
          "time": 133.65327543749999,
          "velocity": 0.30708661417322836
        },
        {
          "duration": 0.0852271875000099,
          "durationTicks": 120,
          "midi": 70,
          "name": "A#4",
          "ticks": 188184,
          "time": 133.65327543749999,
          "velocity": 0.30708661417322836
        },
        {
          "duration": 0.0852271875000099,
          "durationTicks": 120,
          "midi": 82,
          "name": "A#5",
          "ticks": 188184,
          "time": 133.65327543749999,
          "velocity": 0.30708661417322836
        },
        {
          "duration": 0.0852271875000099,
          "durationTicks": 120,
          "midi": 73,
          "name": "C#5",
          "ticks": 188184,
          "time": 133.65327543749999,
          "velocity": 0.30708661417322836
        },
        {
          "duration": 0.0852271875000099,
          "durationTicks": 120,
          "midi": 85,
          "name": "C#6",
          "ticks": 188184,
          "time": 133.65327543749999,
          "velocity": 0.30708661417322836
        },
        {
          "duration": 0.0852271875000099,
          "durationTicks": 120,
          "midi": 89,
          "name": "F6",
          "ticks": 188184,
          "time": 133.65327543749999,
          "velocity": 0.30708661417322836
        },
        {
          "duration": 0.0852271875000099,
          "durationTicks": 120,
          "midi": 85,
          "name": "C#6",
          "ticks": 188184,
          "time": 133.65327543749999,
          "velocity": 0.30708661417322836
        },
        {
          "duration": 0.0852271875000099,
          "durationTicks": 120,
          "midi": 73,
          "name": "C#5",
          "ticks": 188184,
          "time": 133.65327543749999,
          "velocity": 0.30708661417322836
        },
        {
          "duration": 0.0852271875000099,
          "durationTicks": 120,
          "midi": 94,
          "name": "A#6",
          "ticks": 188184,
          "time": 133.65327543749999,
          "velocity": 0.30708661417322836
        },
        {
          "duration": 0.0852271875000099,
          "durationTicks": 120,
          "midi": 70,
          "name": "A#4",
          "ticks": 188184,
          "time": 133.65327543749999,
          "velocity": 0.30708661417322836
        },
        {
          "duration": 0.0852271875000099,
          "durationTicks": 120,
          "midi": 65,
          "name": "F4",
          "ticks": 188208,
          "time": 133.670320875,
          "velocity": 0.30708661417322836
        },
        {
          "duration": 0.0852271875000099,
          "durationTicks": 120,
          "midi": 94,
          "name": "A#6",
          "ticks": 188208,
          "time": 133.670320875,
          "velocity": 0.30708661417322836
        },
        {
          "duration": 0.0852271875000099,
          "durationTicks": 120,
          "midi": 70,
          "name": "A#4",
          "ticks": 188208,
          "time": 133.670320875,
          "velocity": 0.30708661417322836
        },
        {
          "duration": 0.0852271875000099,
          "durationTicks": 120,
          "midi": 89,
          "name": "F6",
          "ticks": 188208,
          "time": 133.670320875,
          "velocity": 0.30708661417322836
        },
        {
          "duration": 0.0852271875000099,
          "durationTicks": 120,
          "midi": 82,
          "name": "A#5",
          "ticks": 188208,
          "time": 133.670320875,
          "velocity": 0.30708661417322836
        },
        {
          "duration": 0.0852271875000099,
          "durationTicks": 120,
          "midi": 77,
          "name": "F5",
          "ticks": 188208,
          "time": 133.670320875,
          "velocity": 0.30708661417322836
        },
        {
          "duration": 0.0852271875000099,
          "durationTicks": 120,
          "midi": 73,
          "name": "C#5",
          "ticks": 188208,
          "time": 133.670320875,
          "velocity": 0.30708661417322836
        },
        {
          "duration": 0.0852271875000099,
          "durationTicks": 120,
          "midi": 85,
          "name": "C#6",
          "ticks": 188208,
          "time": 133.670320875,
          "velocity": 0.30708661417322836
        },
        {
          "duration": 0.0852271875000099,
          "durationTicks": 120,
          "midi": 94,
          "name": "A#6",
          "ticks": 188304,
          "time": 133.738502625,
          "velocity": 0.30708661417322836
        },
        {
          "duration": 0.0852271875000099,
          "durationTicks": 120,
          "midi": 77,
          "name": "F5",
          "ticks": 188304,
          "time": 133.738502625,
          "velocity": 0.30708661417322836
        },
        {
          "duration": 0.0852271875000099,
          "durationTicks": 120,
          "midi": 41,
          "name": "F2",
          "ticks": 188304,
          "time": 133.738502625,
          "velocity": 0.30708661417322836
        },
        {
          "duration": 0.0852271875000099,
          "durationTicks": 120,
          "midi": 70,
          "name": "A#4",
          "ticks": 188304,
          "time": 133.738502625,
          "velocity": 0.30708661417322836
        },
        {
          "duration": 0.0852271875000099,
          "durationTicks": 120,
          "midi": 82,
          "name": "A#5",
          "ticks": 188304,
          "time": 133.738502625,
          "velocity": 0.30708661417322836
        },
        {
          "duration": 0.0852271875000099,
          "durationTicks": 120,
          "midi": 70,
          "name": "A#4",
          "ticks": 188304,
          "time": 133.738502625,
          "velocity": 0.30708661417322836
        },
        {
          "duration": 0.0852271875000099,
          "durationTicks": 120,
          "midi": 94,
          "name": "A#6",
          "ticks": 188304,
          "time": 133.738502625,
          "velocity": 0.30708661417322836
        },
        {
          "duration": 0.0852271875000099,
          "durationTicks": 120,
          "midi": 85,
          "name": "C#6",
          "ticks": 188304,
          "time": 133.738502625,
          "velocity": 0.30708661417322836
        },
        {
          "duration": 0.0852271875000099,
          "durationTicks": 120,
          "midi": 41,
          "name": "F2",
          "ticks": 188304,
          "time": 133.738502625,
          "velocity": 0.30708661417322836
        },
        {
          "duration": 0.0852271875000099,
          "durationTicks": 120,
          "midi": 65,
          "name": "F4",
          "ticks": 188304,
          "time": 133.738502625,
          "velocity": 0.30708661417322836
        },
        {
          "duration": 0.0852271875000099,
          "durationTicks": 120,
          "midi": 89,
          "name": "F6",
          "ticks": 188304,
          "time": 133.738502625,
          "velocity": 0.30708661417322836
        },
        {
          "duration": 0.0852271875000099,
          "durationTicks": 120,
          "midi": 41,
          "name": "F2",
          "ticks": 188304,
          "time": 133.738502625,
          "velocity": 0.30708661417322836
        },
        {
          "duration": 0.0852271875000099,
          "durationTicks": 120,
          "midi": 41,
          "name": "F2",
          "ticks": 188304,
          "time": 133.738502625,
          "velocity": 0.30708661417322836
        },
        {
          "duration": 0.0852271875000099,
          "durationTicks": 120,
          "midi": 73,
          "name": "C#5",
          "ticks": 188304,
          "time": 133.738502625,
          "velocity": 0.30708661417322836
        },
        {
          "duration": 0.0852271875000099,
          "durationTicks": 120,
          "midi": 82,
          "name": "A#5",
          "ticks": 188304,
          "time": 133.738502625,
          "velocity": 0.30708661417322836
        },
        {
          "duration": 0.0852271875000099,
          "durationTicks": 120,
          "midi": 77,
          "name": "F5",
          "ticks": 188304,
          "time": 133.738502625,
          "velocity": 0.30708661417322836
        },
        {
          "duration": 0.0852271875000099,
          "durationTicks": 120,
          "midi": 73,
          "name": "C#5",
          "ticks": 188304,
          "time": 133.738502625,
          "velocity": 0.30708661417322836
        },
        {
          "duration": 0.0852271875000099,
          "durationTicks": 120,
          "midi": 85,
          "name": "C#6",
          "ticks": 188304,
          "time": 133.738502625,
          "velocity": 0.30708661417322836
        },
        {
          "duration": 0.0852271875000099,
          "durationTicks": 120,
          "midi": 89,
          "name": "F6",
          "ticks": 188304,
          "time": 133.738502625,
          "velocity": 0.30708661417322836
        },
        {
          "duration": 0.0852271875000099,
          "durationTicks": 120,
          "midi": 65,
          "name": "F4",
          "ticks": 188304,
          "time": 133.738502625,
          "velocity": 0.30708661417322836
        },
        {
          "duration": 0.0852271875000099,
          "durationTicks": 120,
          "midi": 94,
          "name": "A#6",
          "ticks": 188328,
          "time": 133.7555480625,
          "velocity": 0.30708661417322836
        },
        {
          "duration": 0.0852271875000099,
          "durationTicks": 120,
          "midi": 82,
          "name": "A#5",
          "ticks": 188328,
          "time": 133.7555480625,
          "velocity": 0.30708661417322836
        },
        {
          "duration": 0.0852271875000099,
          "durationTicks": 120,
          "midi": 70,
          "name": "A#4",
          "ticks": 188328,
          "time": 133.7555480625,
          "velocity": 0.30708661417322836
        },
        {
          "duration": 0.0852271875000099,
          "durationTicks": 120,
          "midi": 65,
          "name": "F4",
          "ticks": 188328,
          "time": 133.7555480625,
          "velocity": 0.30708661417322836
        },
        {
          "duration": 0.0852271875000099,
          "durationTicks": 120,
          "midi": 89,
          "name": "F6",
          "ticks": 188328,
          "time": 133.7555480625,
          "velocity": 0.30708661417322836
        },
        {
          "duration": 0.0852271875000099,
          "durationTicks": 120,
          "midi": 85,
          "name": "C#6",
          "ticks": 188328,
          "time": 133.7555480625,
          "velocity": 0.30708661417322836
        },
        {
          "duration": 0.0852271875000099,
          "durationTicks": 120,
          "midi": 77,
          "name": "F5",
          "ticks": 188328,
          "time": 133.7555480625,
          "velocity": 0.30708661417322836
        },
        {
          "duration": 0.0852271875000099,
          "durationTicks": 120,
          "midi": 73,
          "name": "C#5",
          "ticks": 188328,
          "time": 133.7555480625,
          "velocity": 0.30708661417322836
        },
        {
          "duration": 0.0852271875000099,
          "durationTicks": 120,
          "midi": 41,
          "name": "F2",
          "ticks": 188328,
          "time": 133.7555480625,
          "velocity": 0.30708661417322836
        },
        {
          "duration": 0.0852271875000099,
          "durationTicks": 120,
          "midi": 41,
          "name": "F2",
          "ticks": 188328,
          "time": 133.7555480625,
          "velocity": 0.30708661417322836
        },
        {
          "duration": 0.08522718749998148,
          "durationTicks": 120,
          "midi": 78,
          "name": "F#5",
          "ticks": 188424,
          "time": 133.8237298125,
          "velocity": 0.30708661417322836
        },
        {
          "duration": 0.08522718749998148,
          "durationTicks": 120,
          "midi": 90,
          "name": "F#6",
          "ticks": 188424,
          "time": 133.8237298125,
          "velocity": 0.30708661417322836
        },
        {
          "duration": 0.08522718749998148,
          "durationTicks": 120,
          "midi": 66,
          "name": "F#4",
          "ticks": 188424,
          "time": 133.8237298125,
          "velocity": 0.30708661417322836
        },
        {
          "duration": 0.08522718749998148,
          "durationTicks": 120,
          "midi": 66,
          "name": "F#4",
          "ticks": 188424,
          "time": 133.8237298125,
          "velocity": 0.30708661417322836
        },
        {
          "duration": 0.08522718749998148,
          "durationTicks": 120,
          "midi": 90,
          "name": "F#6",
          "ticks": 188424,
          "time": 133.8237298125,
          "velocity": 0.30708661417322836
        },
        {
          "duration": 0.08522718749998148,
          "durationTicks": 120,
          "midi": 78,
          "name": "F#5",
          "ticks": 188424,
          "time": 133.8237298125,
          "velocity": 0.30708661417322836
        },
        {
          "duration": 0.08522718749998148,
          "durationTicks": 120,
          "midi": 78,
          "name": "F#5",
          "ticks": 188448,
          "time": 133.84077525,
          "velocity": 0.30708661417322836
        },
        {
          "duration": 0.08522718749998148,
          "durationTicks": 120,
          "midi": 66,
          "name": "F#4",
          "ticks": 188448,
          "time": 133.84077525,
          "velocity": 0.30708661417322836
        },
        {
          "duration": 0.08522718749998148,
          "durationTicks": 120,
          "midi": 90,
          "name": "F#6",
          "ticks": 188448,
          "time": 133.84077525,
          "velocity": 0.30708661417322836
        },
        {
          "duration": 0.0852271875000099,
          "durationTicks": 120,
          "midi": 49,
          "name": "C#3",
          "ticks": 188544,
          "time": 133.908957,
          "velocity": 0.30708661417322836
        },
        {
          "duration": 0.0852271875000099,
          "durationTicks": 120,
          "midi": 53,
          "name": "F3",
          "ticks": 188544,
          "time": 133.908957,
          "velocity": 0.30708661417322836
        },
        {
          "duration": 0.0852271875000099,
          "durationTicks": 120,
          "midi": 89,
          "name": "F6",
          "ticks": 188544,
          "time": 133.908957,
          "velocity": 0.30708661417322836
        },
        {
          "duration": 0.0852271875000099,
          "durationTicks": 120,
          "midi": 77,
          "name": "F5",
          "ticks": 188544,
          "time": 133.908957,
          "velocity": 0.30708661417322836
        },
        {
          "duration": 0.0852271875000099,
          "durationTicks": 120,
          "midi": 53,
          "name": "F3",
          "ticks": 188544,
          "time": 133.908957,
          "velocity": 0.30708661417322836
        },
        {
          "duration": 0.0852271875000099,
          "durationTicks": 120,
          "midi": 53,
          "name": "F3",
          "ticks": 188544,
          "time": 133.908957,
          "velocity": 0.30708661417322836
        },
        {
          "duration": 0.0852271875000099,
          "durationTicks": 120,
          "midi": 49,
          "name": "C#3",
          "ticks": 188544,
          "time": 133.908957,
          "velocity": 0.30708661417322836
        },
        {
          "duration": 0.0852271875000099,
          "durationTicks": 120,
          "midi": 49,
          "name": "C#3",
          "ticks": 188544,
          "time": 133.908957,
          "velocity": 0.30708661417322836
        },
        {
          "duration": 0.0852271875000099,
          "durationTicks": 120,
          "midi": 49,
          "name": "C#3",
          "ticks": 188544,
          "time": 133.908957,
          "velocity": 0.30708661417322836
        },
        {
          "duration": 0.0852271875000099,
          "durationTicks": 120,
          "midi": 77,
          "name": "F5",
          "ticks": 188544,
          "time": 133.908957,
          "velocity": 0.30708661417322836
        },
        {
          "duration": 0.0852271875000099,
          "durationTicks": 120,
          "midi": 53,
          "name": "F3",
          "ticks": 188544,
          "time": 133.908957,
          "velocity": 0.30708661417322836
        },
        {
          "duration": 0.0852271875000099,
          "durationTicks": 120,
          "midi": 65,
          "name": "F4",
          "ticks": 188544,
          "time": 133.908957,
          "velocity": 0.30708661417322836
        },
        {
          "duration": 0.0852271875000099,
          "durationTicks": 120,
          "midi": 65,
          "name": "F4",
          "ticks": 188544,
          "time": 133.908957,
          "velocity": 0.30708661417322836
        },
        {
          "duration": 0.0852271875000099,
          "durationTicks": 120,
          "midi": 89,
          "name": "F6",
          "ticks": 188544,
          "time": 133.908957,
          "velocity": 0.30708661417322836
        },
        {
          "duration": 0.0852271875000099,
          "durationTicks": 120,
          "midi": 49,
          "name": "C#3",
          "ticks": 188568,
          "time": 133.9260024375,
          "velocity": 0.30708661417322836
        },
        {
          "duration": 0.0852271875000099,
          "durationTicks": 120,
          "midi": 77,
          "name": "F5",
          "ticks": 188568,
          "time": 133.9260024375,
          "velocity": 0.30708661417322836
        },
        {
          "duration": 0.0852271875000099,
          "durationTicks": 120,
          "midi": 53,
          "name": "F3",
          "ticks": 188568,
          "time": 133.9260024375,
          "velocity": 0.30708661417322836
        },
        {
          "duration": 0.0852271875000099,
          "durationTicks": 120,
          "midi": 89,
          "name": "F6",
          "ticks": 188568,
          "time": 133.9260024375,
          "velocity": 0.30708661417322836
        },
        {
          "duration": 0.0852271875000099,
          "durationTicks": 120,
          "midi": 65,
          "name": "F4",
          "ticks": 188568,
          "time": 133.9260024375,
          "velocity": 0.30708661417322836
        },
        {
          "duration": 0.0852271875000099,
          "durationTicks": 120,
          "midi": 49,
          "name": "C#3",
          "ticks": 188568,
          "time": 133.9260024375,
          "velocity": 0.30708661417322836
        },
        {
          "duration": 0.0852271875000099,
          "durationTicks": 120,
          "midi": 53,
          "name": "F3",
          "ticks": 188568,
          "time": 133.9260024375,
          "velocity": 0.30708661417322836
        },
        {
          "duration": 0.0852271875000099,
          "durationTicks": 120,
          "midi": 76,
          "name": "E5",
          "ticks": 188664,
          "time": 133.9941841875,
          "velocity": 0.30708661417322836
        },
        {
          "duration": 0.0852271875000099,
          "durationTicks": 120,
          "midi": 88,
          "name": "E6",
          "ticks": 188664,
          "time": 133.9941841875,
          "velocity": 0.30708661417322836
        },
        {
          "duration": 0.0852271875000099,
          "durationTicks": 120,
          "midi": 88,
          "name": "E6",
          "ticks": 188664,
          "time": 133.9941841875,
          "velocity": 0.30708661417322836
        },
        {
          "duration": 0.0852271875000099,
          "durationTicks": 120,
          "midi": 64,
          "name": "E4",
          "ticks": 188664,
          "time": 133.9941841875,
          "velocity": 0.30708661417322836
        },
        {
          "duration": 0.0852271875000099,
          "durationTicks": 120,
          "midi": 64,
          "name": "E4",
          "ticks": 188664,
          "time": 133.9941841875,
          "velocity": 0.30708661417322836
        },
        {
          "duration": 0.0852271875000099,
          "durationTicks": 120,
          "midi": 76,
          "name": "E5",
          "ticks": 188664,
          "time": 133.9941841875,
          "velocity": 0.30708661417322836
        },
        {
          "duration": 0.0852271875000099,
          "durationTicks": 120,
          "midi": 64,
          "name": "E4",
          "ticks": 188688,
          "time": 134.011229625,
          "velocity": 0.30708661417322836
        },
        {
          "duration": 0.0852271875000099,
          "durationTicks": 120,
          "midi": 76,
          "name": "E5",
          "ticks": 188688,
          "time": 134.011229625,
          "velocity": 0.30708661417322836
        },
        {
          "duration": 0.0852271875000099,
          "durationTicks": 120,
          "midi": 73,
          "name": "C#5",
          "ticks": 188688,
          "time": 134.011229625,
          "velocity": 0.30708661417322836
        },
        {
          "duration": 0.0852271875000099,
          "durationTicks": 120,
          "midi": 70,
          "name": "A#4",
          "ticks": 188688,
          "time": 134.011229625,
          "velocity": 0.30708661417322836
        },
        {
          "duration": 0.0852271875000099,
          "durationTicks": 120,
          "midi": 88,
          "name": "E6",
          "ticks": 188688,
          "time": 134.011229625,
          "velocity": 0.30708661417322836
        },
        {
          "duration": 0.0852271875000099,
          "durationTicks": 120,
          "midi": 73,
          "name": "C#5",
          "ticks": 188688,
          "time": 134.011229625,
          "velocity": 0.30708661417322836
        },
        {
          "duration": 0.0852271875000099,
          "durationTicks": 120,
          "midi": 70,
          "name": "A#4",
          "ticks": 188688,
          "time": 134.011229625,
          "velocity": 0.30708661417322836
        },
        {
          "duration": 0.0852271875000099,
          "durationTicks": 120,
          "midi": 70,
          "name": "A#4",
          "ticks": 188712,
          "time": 134.0282750625,
          "velocity": 0.30708661417322836
        },
        {
          "duration": 0.0852271875000099,
          "durationTicks": 120,
          "midi": 73,
          "name": "C#5",
          "ticks": 188712,
          "time": 134.0282750625,
          "velocity": 0.30708661417322836
        },
        {
          "duration": 0.22159068749999733,
          "durationTicks": 312,
          "midi": 46,
          "name": "A#2",
          "ticks": 188784,
          "time": 134.079411375,
          "velocity": 0.30708661417322836
        },
        {
          "duration": 0.08522718749998148,
          "durationTicks": 120,
          "midi": 65,
          "name": "F4",
          "ticks": 188784,
          "time": 134.079411375,
          "velocity": 0.30708661417322836
        },
        {
          "duration": 0.08522718749998148,
          "durationTicks": 120,
          "midi": 89,
          "name": "F6",
          "ticks": 188784,
          "time": 134.079411375,
          "velocity": 0.30708661417322836
        },
        {
          "duration": 0.08522718749998148,
          "durationTicks": 120,
          "midi": 65,
          "name": "F4",
          "ticks": 188784,
          "time": 134.079411375,
          "velocity": 0.30708661417322836
        },
        {
          "duration": 0.22159068749999733,
          "durationTicks": 312,
          "midi": 46,
          "name": "A#2",
          "ticks": 188784,
          "time": 134.079411375,
          "velocity": 0.30708661417322836
        },
        {
          "duration": 0.22159068749999733,
          "durationTicks": 312,
          "midi": 46,
          "name": "A#2",
          "ticks": 188784,
          "time": 134.079411375,
          "velocity": 0.30708661417322836
        },
        {
          "duration": 0.22159068749999733,
          "durationTicks": 312,
          "midi": 46,
          "name": "A#2",
          "ticks": 188784,
          "time": 134.079411375,
          "velocity": 0.30708661417322836
        },
        {
          "duration": 0.08522718749998148,
          "durationTicks": 120,
          "midi": 77,
          "name": "F5",
          "ticks": 188784,
          "time": 134.079411375,
          "velocity": 0.30708661417322836
        },
        {
          "duration": 0.08522718749998148,
          "durationTicks": 120,
          "midi": 77,
          "name": "F5",
          "ticks": 188784,
          "time": 134.079411375,
          "velocity": 0.30708661417322836
        },
        {
          "duration": 0.08522718749998148,
          "durationTicks": 120,
          "midi": 89,
          "name": "F6",
          "ticks": 188784,
          "time": 134.079411375,
          "velocity": 0.30708661417322836
        },
        {
          "duration": 0.08522718749998148,
          "durationTicks": 120,
          "midi": 77,
          "name": "F5",
          "ticks": 188808,
          "time": 134.0964568125,
          "velocity": 0.30708661417322836
        },
        {
          "duration": 0.08522718749998148,
          "durationTicks": 120,
          "midi": 65,
          "name": "F4",
          "ticks": 188808,
          "time": 134.0964568125,
          "velocity": 0.30708661417322836
        },
        {
          "duration": 0.08522718749998148,
          "durationTicks": 120,
          "midi": 89,
          "name": "F6",
          "ticks": 188808,
          "time": 134.0964568125,
          "velocity": 0.30708661417322836
        },
        {
          "duration": 0.22159068749999733,
          "durationTicks": 312,
          "midi": 46,
          "name": "A#2",
          "ticks": 188808,
          "time": 134.0964568125,
          "velocity": 0.30708661417322836
        },
        {
          "duration": 0.22159068749999733,
          "durationTicks": 312,
          "midi": 46,
          "name": "A#2",
          "ticks": 188808,
          "time": 134.0964568125,
          "velocity": 0.30708661417322836
        },
        {
          "duration": 0.0852271875000099,
          "durationTicks": 120,
          "midi": 53,
          "name": "F3",
          "ticks": 189024,
          "time": 134.24986575,
          "velocity": 0.30708661417322836
        },
        {
          "duration": 0.0852271875000099,
          "durationTicks": 120,
          "midi": 89,
          "name": "F6",
          "ticks": 189024,
          "time": 134.24986575,
          "velocity": 0.30708661417322836
        },
        {
          "duration": 0.0852271875000099,
          "durationTicks": 120,
          "midi": 49,
          "name": "C#3",
          "ticks": 189024,
          "time": 134.24986575,
          "velocity": 0.30708661417322836
        },
        {
          "duration": 0.0852271875000099,
          "durationTicks": 120,
          "midi": 73,
          "name": "C#5",
          "ticks": 189024,
          "time": 134.24986575,
          "velocity": 0.30708661417322836
        },
        {
          "duration": 0.0852271875000099,
          "durationTicks": 120,
          "midi": 89,
          "name": "F6",
          "ticks": 189024,
          "time": 134.24986575,
          "velocity": 0.30708661417322836
        },
        {
          "duration": 0.0852271875000099,
          "durationTicks": 120,
          "midi": 53,
          "name": "F3",
          "ticks": 189024,
          "time": 134.24986575,
          "velocity": 0.30708661417322836
        },
        {
          "duration": 0.0852271875000099,
          "durationTicks": 120,
          "midi": 82,
          "name": "A#5",
          "ticks": 189024,
          "time": 134.24986575,
          "velocity": 0.30708661417322836
        },
        {
          "duration": 0.0852271875000099,
          "durationTicks": 120,
          "midi": 49,
          "name": "C#3",
          "ticks": 189024,
          "time": 134.24986575,
          "velocity": 0.30708661417322836
        },
        {
          "duration": 0.0852271875000099,
          "durationTicks": 120,
          "midi": 49,
          "name": "C#3",
          "ticks": 189024,
          "time": 134.24986575,
          "velocity": 0.30708661417322836
        },
        {
          "duration": 0.0852271875000099,
          "durationTicks": 120,
          "midi": 73,
          "name": "C#5",
          "ticks": 189024,
          "time": 134.24986575,
          "velocity": 0.30708661417322836
        },
        {
          "duration": 0.0852271875000099,
          "durationTicks": 120,
          "midi": 82,
          "name": "A#5",
          "ticks": 189024,
          "time": 134.24986575,
          "velocity": 0.30708661417322836
        },
        {
          "duration": 0.0852271875000099,
          "durationTicks": 120,
          "midi": 70,
          "name": "A#4",
          "ticks": 189024,
          "time": 134.24986575,
          "velocity": 0.30708661417322836
        },
        {
          "duration": 0.0852271875000099,
          "durationTicks": 120,
          "midi": 85,
          "name": "C#6",
          "ticks": 189024,
          "time": 134.24986575,
          "velocity": 0.30708661417322836
        },
        {
          "duration": 0.0852271875000099,
          "durationTicks": 120,
          "midi": 94,
          "name": "A#6",
          "ticks": 189024,
          "time": 134.24986575,
          "velocity": 0.30708661417322836
        },
        {
          "duration": 0.0852271875000099,
          "durationTicks": 120,
          "midi": 49,
          "name": "C#3",
          "ticks": 189024,
          "time": 134.24986575,
          "velocity": 0.30708661417322836
        },
        {
          "duration": 0.0852271875000099,
          "durationTicks": 120,
          "midi": 94,
          "name": "A#6",
          "ticks": 189024,
          "time": 134.24986575,
          "velocity": 0.30708661417322836
        },
        {
          "duration": 0.0852271875000099,
          "durationTicks": 120,
          "midi": 70,
          "name": "A#4",
          "ticks": 189024,
          "time": 134.24986575,
          "velocity": 0.30708661417322836
        },
        {
          "duration": 0.0852271875000099,
          "durationTicks": 120,
          "midi": 53,
          "name": "F3",
          "ticks": 189024,
          "time": 134.24986575,
          "velocity": 0.30708661417322836
        },
        {
          "duration": 0.0852271875000099,
          "durationTicks": 120,
          "midi": 53,
          "name": "F3",
          "ticks": 189024,
          "time": 134.24986575,
          "velocity": 0.30708661417322836
        },
        {
          "duration": 0.0852271875000099,
          "durationTicks": 120,
          "midi": 77,
          "name": "F5",
          "ticks": 189024,
          "time": 134.24986575,
          "velocity": 0.30708661417322836
        },
        {
          "duration": 0.0852271875000099,
          "durationTicks": 120,
          "midi": 77,
          "name": "F5",
          "ticks": 189024,
          "time": 134.24986575,
          "velocity": 0.30708661417322836
        },
        {
          "duration": 0.0852271875000099,
          "durationTicks": 120,
          "midi": 85,
          "name": "C#6",
          "ticks": 189024,
          "time": 134.24986575,
          "velocity": 0.30708661417322836
        },
        {
          "duration": 0.0852271875000099,
          "durationTicks": 120,
          "midi": 77,
          "name": "F5",
          "ticks": 189048,
          "time": 134.2669111875,
          "velocity": 0.30708661417322836
        },
        {
          "duration": 0.0852271875000099,
          "durationTicks": 120,
          "midi": 82,
          "name": "A#5",
          "ticks": 189048,
          "time": 134.2669111875,
          "velocity": 0.30708661417322836
        },
        {
          "duration": 0.0852271875000099,
          "durationTicks": 120,
          "midi": 49,
          "name": "C#3",
          "ticks": 189048,
          "time": 134.2669111875,
          "velocity": 0.30708661417322836
        },
        {
          "duration": 0.0852271875000099,
          "durationTicks": 120,
          "midi": 53,
          "name": "F3",
          "ticks": 189048,
          "time": 134.2669111875,
          "velocity": 0.30708661417322836
        },
        {
          "duration": 0.0852271875000099,
          "durationTicks": 120,
          "midi": 73,
          "name": "C#5",
          "ticks": 189048,
          "time": 134.2669111875,
          "velocity": 0.30708661417322836
        },
        {
          "duration": 0.0852271875000099,
          "durationTicks": 120,
          "midi": 70,
          "name": "A#4",
          "ticks": 189048,
          "time": 134.2669111875,
          "velocity": 0.30708661417322836
        },
        {
          "duration": 0.0852271875000099,
          "durationTicks": 120,
          "midi": 49,
          "name": "C#3",
          "ticks": 189048,
          "time": 134.2669111875,
          "velocity": 0.30708661417322836
        },
        {
          "duration": 0.0852271875000099,
          "durationTicks": 120,
          "midi": 89,
          "name": "F6",
          "ticks": 189048,
          "time": 134.2669111875,
          "velocity": 0.30708661417322836
        },
        {
          "duration": 0.0852271875000099,
          "durationTicks": 120,
          "midi": 53,
          "name": "F3",
          "ticks": 189048,
          "time": 134.2669111875,
          "velocity": 0.30708661417322836
        },
        {
          "duration": 0.0852271875000099,
          "durationTicks": 120,
          "midi": 94,
          "name": "A#6",
          "ticks": 189048,
          "time": 134.2669111875,
          "velocity": 0.30708661417322836
        },
        {
          "duration": 0.0852271875000099,
          "durationTicks": 120,
          "midi": 85,
          "name": "C#6",
          "ticks": 189048,
          "time": 134.2669111875,
          "velocity": 0.30708661417322836
        },
        {
          "duration": 0.0852271875000099,
          "durationTicks": 120,
          "midi": 89,
          "name": "F6",
          "ticks": 189264,
          "time": 134.420320125,
          "velocity": 0.30708661417322836
        },
        {
          "duration": 0.0852271875000099,
          "durationTicks": 120,
          "midi": 73,
          "name": "C#5",
          "ticks": 189264,
          "time": 134.420320125,
          "velocity": 0.30708661417322836
        },
        {
          "duration": 0.0852271875000099,
          "durationTicks": 120,
          "midi": 41,
          "name": "F2",
          "ticks": 189264,
          "time": 134.420320125,
          "velocity": 0.30708661417322836
        },
        {
          "duration": 0.0852271875000099,
          "durationTicks": 120,
          "midi": 82,
          "name": "A#5",
          "ticks": 189264,
          "time": 134.420320125,
          "velocity": 0.30708661417322836
        },
        {
          "duration": 0.0852271875000099,
          "durationTicks": 120,
          "midi": 94,
          "name": "A#6",
          "ticks": 189264,
          "time": 134.420320125,
          "velocity": 0.30708661417322836
        },
        {
          "duration": 0.0852271875000099,
          "durationTicks": 120,
          "midi": 41,
          "name": "F2",
          "ticks": 189264,
          "time": 134.420320125,
          "velocity": 0.30708661417322836
        },
        {
          "duration": 0.0852271875000099,
          "durationTicks": 120,
          "midi": 94,
          "name": "A#6",
          "ticks": 189264,
          "time": 134.420320125,
          "velocity": 0.30708661417322836
        },
        {
          "duration": 0.0852271875000099,
          "durationTicks": 120,
          "midi": 77,
          "name": "F5",
          "ticks": 189264,
          "time": 134.420320125,
          "velocity": 0.30708661417322836
        },
        {
          "duration": 0.0852271875000099,
          "durationTicks": 120,
          "midi": 41,
          "name": "F2",
          "ticks": 189264,
          "time": 134.420320125,
          "velocity": 0.30708661417322836
        },
        {
          "duration": 0.0852271875000099,
          "durationTicks": 120,
          "midi": 41,
          "name": "F2",
          "ticks": 189264,
          "time": 134.420320125,
          "velocity": 0.30708661417322836
        },
        {
          "duration": 0.0852271875000099,
          "durationTicks": 120,
          "midi": 89,
          "name": "F6",
          "ticks": 189264,
          "time": 134.420320125,
          "velocity": 0.30708661417322836
        },
        {
          "duration": 0.0852271875000099,
          "durationTicks": 120,
          "midi": 85,
          "name": "C#6",
          "ticks": 189264,
          "time": 134.420320125,
          "velocity": 0.30708661417322836
        },
        {
          "duration": 0.0852271875000099,
          "durationTicks": 120,
          "midi": 73,
          "name": "C#5",
          "ticks": 189264,
          "time": 134.420320125,
          "velocity": 0.30708661417322836
        },
        {
          "duration": 0.0852271875000099,
          "durationTicks": 120,
          "midi": 77,
          "name": "F5",
          "ticks": 189264,
          "time": 134.420320125,
          "velocity": 0.30708661417322836
        },
        {
          "duration": 0.0852271875000099,
          "durationTicks": 120,
          "midi": 85,
          "name": "C#6",
          "ticks": 189264,
          "time": 134.420320125,
          "velocity": 0.30708661417322836
        },
        {
          "duration": 0.0852271875000099,
          "durationTicks": 120,
          "midi": 82,
          "name": "A#5",
          "ticks": 189264,
          "time": 134.420320125,
          "velocity": 0.30708661417322836
        },
        {
          "duration": 0.0852271875000099,
          "durationTicks": 120,
          "midi": 41,
          "name": "F2",
          "ticks": 189288,
          "time": 134.4373655625,
          "velocity": 0.30708661417322836
        },
        {
          "duration": 0.0852271875000099,
          "durationTicks": 120,
          "midi": 85,
          "name": "C#6",
          "ticks": 189288,
          "time": 134.4373655625,
          "velocity": 0.30708661417322836
        },
        {
          "duration": 0.0852271875000099,
          "durationTicks": 120,
          "midi": 77,
          "name": "F5",
          "ticks": 189288,
          "time": 134.4373655625,
          "velocity": 0.30708661417322836
        },
        {
          "duration": 0.0852271875000099,
          "durationTicks": 120,
          "midi": 89,
          "name": "F6",
          "ticks": 189288,
          "time": 134.4373655625,
          "velocity": 0.30708661417322836
        },
        {
          "duration": 0.0852271875000099,
          "durationTicks": 120,
          "midi": 94,
          "name": "A#6",
          "ticks": 189288,
          "time": 134.4373655625,
          "velocity": 0.30708661417322836
        },
        {
          "duration": 0.0852271875000099,
          "durationTicks": 120,
          "midi": 73,
          "name": "C#5",
          "ticks": 189288,
          "time": 134.4373655625,
          "velocity": 0.30708661417322836
        },
        {
          "duration": 0.0852271875000099,
          "durationTicks": 120,
          "midi": 41,
          "name": "F2",
          "ticks": 189288,
          "time": 134.4373655625,
          "velocity": 0.30708661417322836
        },
        {
          "duration": 0.0852271875000099,
          "durationTicks": 120,
          "midi": 82,
          "name": "A#5",
          "ticks": 189288,
          "time": 134.4373655625,
          "velocity": 0.30708661417322836
        },
        {
          "duration": 0.08522718749998148,
          "durationTicks": 120,
          "midi": 49,
          "name": "C#3",
          "ticks": 189504,
          "time": 134.5907745,
          "velocity": 0.30708661417322836
        },
        {
          "duration": 0.08522718749998148,
          "durationTicks": 120,
          "midi": 49,
          "name": "C#3",
          "ticks": 189504,
          "time": 134.5907745,
          "velocity": 0.30708661417322836
        },
        {
          "duration": 0.08522718749998148,
          "durationTicks": 120,
          "midi": 53,
          "name": "F3",
          "ticks": 189504,
          "time": 134.5907745,
          "velocity": 0.30708661417322836
        },
        {
          "duration": 0.08522718749998148,
          "durationTicks": 120,
          "midi": 53,
          "name": "F3",
          "ticks": 189504,
          "time": 134.5907745,
          "velocity": 0.30708661417322836
        },
        {
          "duration": 0.08522718749998148,
          "durationTicks": 120,
          "midi": 53,
          "name": "F3",
          "ticks": 189504,
          "time": 134.5907745,
          "velocity": 0.30708661417322836
        },
        {
          "duration": 0.08522718749998148,
          "durationTicks": 120,
          "midi": 49,
          "name": "C#3",
          "ticks": 189504,
          "time": 134.5907745,
          "velocity": 0.30708661417322836
        },
        {
          "duration": 0.08522718749998148,
          "durationTicks": 120,
          "midi": 53,
          "name": "F3",
          "ticks": 189504,
          "time": 134.5907745,
          "velocity": 0.30708661417322836
        },
        {
          "duration": 0.08522718749998148,
          "durationTicks": 120,
          "midi": 49,
          "name": "C#3",
          "ticks": 189504,
          "time": 134.5907745,
          "velocity": 0.30708661417322836
        },
        {
          "duration": 0.08522718749998148,
          "durationTicks": 120,
          "midi": 53,
          "name": "F3",
          "ticks": 189528,
          "time": 134.6078199375,
          "velocity": 0.30708661417322836
        },
        {
          "duration": 0.08522718749998148,
          "durationTicks": 120,
          "midi": 49,
          "name": "C#3",
          "ticks": 189528,
          "time": 134.6078199375,
          "velocity": 0.30708661417322836
        },
        {
          "duration": 0.08522718749998148,
          "durationTicks": 120,
          "midi": 49,
          "name": "C#3",
          "ticks": 189528,
          "time": 134.6078199375,
          "velocity": 0.30708661417322836
        },
        {
          "duration": 0.08522718749998148,
          "durationTicks": 120,
          "midi": 53,
          "name": "F3",
          "ticks": 189528,
          "time": 134.6078199375,
          "velocity": 0.30708661417322836
        },
        {
          "duration": 0.0852271875000099,
          "durationTicks": 120,
          "midi": 45,
          "name": "A2",
          "ticks": 189744,
          "time": 134.761228875,
          "velocity": 0.30708661417322836
        },
        {
          "duration": 0.0852271875000099,
          "durationTicks": 120,
          "midi": 94,
          "name": "A#6",
          "ticks": 189744,
          "time": 134.761228875,
          "velocity": 0.30708661417322836
        },
        {
          "duration": 0.0852271875000099,
          "durationTicks": 120,
          "midi": 75,
          "name": "D#5",
          "ticks": 189744,
          "time": 134.761228875,
          "velocity": 0.30708661417322836
        },
        {
          "duration": 0.0852271875000099,
          "durationTicks": 120,
          "midi": 90,
          "name": "F#6",
          "ticks": 189744,
          "time": 134.761228875,
          "velocity": 0.30708661417322836
        },
        {
          "duration": 0.0852271875000099,
          "durationTicks": 120,
          "midi": 70,
          "name": "A#4",
          "ticks": 189744,
          "time": 134.761228875,
          "velocity": 0.30708661417322836
        },
        {
          "duration": 0.0852271875000099,
          "durationTicks": 120,
          "midi": 82,
          "name": "A#5",
          "ticks": 189744,
          "time": 134.761228875,
          "velocity": 0.30708661417322836
        },
        {
          "duration": 0.0852271875000099,
          "durationTicks": 120,
          "midi": 45,
          "name": "A2",
          "ticks": 189744,
          "time": 134.761228875,
          "velocity": 0.30708661417322836
        },
        {
          "duration": 0.0852271875000099,
          "durationTicks": 120,
          "midi": 78,
          "name": "F#5",
          "ticks": 189744,
          "time": 134.761228875,
          "velocity": 0.30708661417322836
        },
        {
          "duration": 0.0852271875000099,
          "durationTicks": 120,
          "midi": 63,
          "name": "D#4",
          "ticks": 189744,
          "time": 134.761228875,
          "velocity": 0.30708661417322836
        },
        {
          "duration": 0.0852271875000099,
          "durationTicks": 120,
          "midi": 87,
          "name": "D#6",
          "ticks": 189744,
          "time": 134.761228875,
          "velocity": 0.30708661417322836
        },
        {
          "duration": 0.0852271875000099,
          "durationTicks": 120,
          "midi": 82,
          "name": "A#5",
          "ticks": 189744,
          "time": 134.761228875,
          "velocity": 0.30708661417322836
        },
        {
          "duration": 0.0852271875000099,
          "durationTicks": 120,
          "midi": 45,
          "name": "A2",
          "ticks": 189744,
          "time": 134.761228875,
          "velocity": 0.30708661417322836
        },
        {
          "duration": 0.0852271875000099,
          "durationTicks": 120,
          "midi": 90,
          "name": "F#6",
          "ticks": 189744,
          "time": 134.761228875,
          "velocity": 0.30708661417322836
        },
        {
          "duration": 0.0852271875000099,
          "durationTicks": 120,
          "midi": 87,
          "name": "D#6",
          "ticks": 189744,
          "time": 134.761228875,
          "velocity": 0.30708661417322836
        },
        {
          "duration": 0.0852271875000099,
          "durationTicks": 120,
          "midi": 63,
          "name": "D#4",
          "ticks": 189744,
          "time": 134.761228875,
          "velocity": 0.30708661417322836
        },
        {
          "duration": 0.0852271875000099,
          "durationTicks": 120,
          "midi": 94,
          "name": "A#6",
          "ticks": 189744,
          "time": 134.761228875,
          "velocity": 0.30708661417322836
        },
        {
          "duration": 0.0852271875000099,
          "durationTicks": 120,
          "midi": 66,
          "name": "F#4",
          "ticks": 189744,
          "time": 134.761228875,
          "velocity": 0.30708661417322836
        },
        {
          "duration": 0.0852271875000099,
          "durationTicks": 120,
          "midi": 70,
          "name": "A#4",
          "ticks": 189744,
          "time": 134.761228875,
          "velocity": 0.30708661417322836
        },
        {
          "duration": 0.0852271875000099,
          "durationTicks": 120,
          "midi": 75,
          "name": "D#5",
          "ticks": 189744,
          "time": 134.761228875,
          "velocity": 0.30708661417322836
        },
        {
          "duration": 0.0852271875000099,
          "durationTicks": 120,
          "midi": 45,
          "name": "A2",
          "ticks": 189744,
          "time": 134.761228875,
          "velocity": 0.30708661417322836
        },
        {
          "duration": 0.0852271875000099,
          "durationTicks": 120,
          "midi": 66,
          "name": "F#4",
          "ticks": 189744,
          "time": 134.761228875,
          "velocity": 0.30708661417322836
        },
        {
          "duration": 0.0852271875000099,
          "durationTicks": 120,
          "midi": 78,
          "name": "F#5",
          "ticks": 189744,
          "time": 134.761228875,
          "velocity": 0.30708661417322836
        },
        {
          "duration": 0.0852271875000099,
          "durationTicks": 120,
          "midi": 94,
          "name": "A#6",
          "ticks": 189768,
          "time": 134.7782743125,
          "velocity": 0.30708661417322836
        },
        {
          "duration": 0.0852271875000099,
          "durationTicks": 120,
          "midi": 78,
          "name": "F#5",
          "ticks": 189768,
          "time": 134.7782743125,
          "velocity": 0.30708661417322836
        },
        {
          "duration": 0.0852271875000099,
          "durationTicks": 120,
          "midi": 63,
          "name": "D#4",
          "ticks": 189768,
          "time": 134.7782743125,
          "velocity": 0.30708661417322836
        },
        {
          "duration": 0.0852271875000099,
          "durationTicks": 120,
          "midi": 90,
          "name": "F#6",
          "ticks": 189768,
          "time": 134.7782743125,
          "velocity": 0.30708661417322836
        },
        {
          "duration": 0.0852271875000099,
          "durationTicks": 120,
          "midi": 87,
          "name": "D#6",
          "ticks": 189768,
          "time": 134.7782743125,
          "velocity": 0.30708661417322836
        },
        {
          "duration": 0.0852271875000099,
          "durationTicks": 120,
          "midi": 75,
          "name": "D#5",
          "ticks": 189768,
          "time": 134.7782743125,
          "velocity": 0.30708661417322836
        },
        {
          "duration": 0.0852271875000099,
          "durationTicks": 120,
          "midi": 45,
          "name": "A2",
          "ticks": 189768,
          "time": 134.7782743125,
          "velocity": 0.30708661417322836
        },
        {
          "duration": 0.0852271875000099,
          "durationTicks": 120,
          "midi": 70,
          "name": "A#4",
          "ticks": 189768,
          "time": 134.7782743125,
          "velocity": 0.30708661417322836
        },
        {
          "duration": 0.0852271875000099,
          "durationTicks": 120,
          "midi": 82,
          "name": "A#5",
          "ticks": 189768,
          "time": 134.7782743125,
          "velocity": 0.30708661417322836
        },
        {
          "duration": 0.0852271875000099,
          "durationTicks": 120,
          "midi": 66,
          "name": "F#4",
          "ticks": 189768,
          "time": 134.7782743125,
          "velocity": 0.30708661417322836
        },
        {
          "duration": 0.0852271875000099,
          "durationTicks": 120,
          "midi": 45,
          "name": "A2",
          "ticks": 189768,
          "time": 134.7782743125,
          "velocity": 0.30708661417322836
        },
        {
          "duration": 0.08522718749998148,
          "durationTicks": 120,
          "midi": 63,
          "name": "D#4",
          "ticks": 189864,
          "time": 134.8464560625,
          "velocity": 0.30708661417322836
        },
        {
          "duration": 0.08522718749998148,
          "durationTicks": 120,
          "midi": 94,
          "name": "A#6",
          "ticks": 189864,
          "time": 134.8464560625,
          "velocity": 0.30708661417322836
        },
        {
          "duration": 0.08522718749998148,
          "durationTicks": 120,
          "midi": 87,
          "name": "D#6",
          "ticks": 189864,
          "time": 134.8464560625,
          "velocity": 0.30708661417322836
        },
        {
          "duration": 0.08522718749998148,
          "durationTicks": 120,
          "midi": 66,
          "name": "F#4",
          "ticks": 189864,
          "time": 134.8464560625,
          "velocity": 0.30708661417322836
        },
        {
          "duration": 0.08522718749998148,
          "durationTicks": 120,
          "midi": 94,
          "name": "A#6",
          "ticks": 189864,
          "time": 134.8464560625,
          "velocity": 0.30708661417322836
        },
        {
          "duration": 0.08522718749998148,
          "durationTicks": 120,
          "midi": 66,
          "name": "F#4",
          "ticks": 189864,
          "time": 134.8464560625,
          "velocity": 0.30708661417322836
        },
        {
          "duration": 0.08522718749998148,
          "durationTicks": 120,
          "midi": 87,
          "name": "D#6",
          "ticks": 189864,
          "time": 134.8464560625,
          "velocity": 0.30708661417322836
        },
        {
          "duration": 0.08522718749998148,
          "durationTicks": 120,
          "midi": 70,
          "name": "A#4",
          "ticks": 189864,
          "time": 134.8464560625,
          "velocity": 0.30708661417322836
        },
        {
          "duration": 0.08522718749998148,
          "durationTicks": 120,
          "midi": 75,
          "name": "D#5",
          "ticks": 189864,
          "time": 134.8464560625,
          "velocity": 0.30708661417322836
        },
        {
          "duration": 0.08522718749998148,
          "durationTicks": 120,
          "midi": 78,
          "name": "F#5",
          "ticks": 189864,
          "time": 134.8464560625,
          "velocity": 0.30708661417322836
        },
        {
          "duration": 0.08522718749998148,
          "durationTicks": 120,
          "midi": 90,
          "name": "F#6",
          "ticks": 189864,
          "time": 134.8464560625,
          "velocity": 0.30708661417322836
        },
        {
          "duration": 0.08522718749998148,
          "durationTicks": 120,
          "midi": 70,
          "name": "A#4",
          "ticks": 189864,
          "time": 134.8464560625,
          "velocity": 0.30708661417322836
        },
        {
          "duration": 0.08522718749998148,
          "durationTicks": 120,
          "midi": 90,
          "name": "F#6",
          "ticks": 189864,
          "time": 134.8464560625,
          "velocity": 0.30708661417322836
        },
        {
          "duration": 0.08522718749998148,
          "durationTicks": 120,
          "midi": 75,
          "name": "D#5",
          "ticks": 189864,
          "time": 134.8464560625,
          "velocity": 0.30708661417322836
        },
        {
          "duration": 0.08522718749998148,
          "durationTicks": 120,
          "midi": 82,
          "name": "A#5",
          "ticks": 189864,
          "time": 134.8464560625,
          "velocity": 0.30708661417322836
        },
        {
          "duration": 0.08522718749998148,
          "durationTicks": 120,
          "midi": 82,
          "name": "A#5",
          "ticks": 189864,
          "time": 134.8464560625,
          "velocity": 0.30708661417322836
        },
        {
          "duration": 0.08522718749998148,
          "durationTicks": 120,
          "midi": 78,
          "name": "F#5",
          "ticks": 189864,
          "time": 134.8464560625,
          "velocity": 0.30708661417322836
        },
        {
          "duration": 0.08522718749998148,
          "durationTicks": 120,
          "midi": 63,
          "name": "D#4",
          "ticks": 189864,
          "time": 134.8464560625,
          "velocity": 0.30708661417322836
        },
        {
          "duration": 0.08522718749998148,
          "durationTicks": 120,
          "midi": 78,
          "name": "F#5",
          "ticks": 189888,
          "time": 134.8635015,
          "velocity": 0.30708661417322836
        },
        {
          "duration": 0.08522718749998148,
          "durationTicks": 120,
          "midi": 94,
          "name": "A#6",
          "ticks": 189888,
          "time": 134.8635015,
          "velocity": 0.30708661417322836
        },
        {
          "duration": 0.08522718749998148,
          "durationTicks": 120,
          "midi": 87,
          "name": "D#6",
          "ticks": 189888,
          "time": 134.8635015,
          "velocity": 0.30708661417322836
        },
        {
          "duration": 0.08522718749998148,
          "durationTicks": 120,
          "midi": 66,
          "name": "F#4",
          "ticks": 189888,
          "time": 134.8635015,
          "velocity": 0.30708661417322836
        },
        {
          "duration": 0.08522718749998148,
          "durationTicks": 120,
          "midi": 63,
          "name": "D#4",
          "ticks": 189888,
          "time": 134.8635015,
          "velocity": 0.30708661417322836
        },
        {
          "duration": 0.08522718749998148,
          "durationTicks": 120,
          "midi": 70,
          "name": "A#4",
          "ticks": 189888,
          "time": 134.8635015,
          "velocity": 0.30708661417322836
        },
        {
          "duration": 0.08522718749998148,
          "durationTicks": 120,
          "midi": 75,
          "name": "D#5",
          "ticks": 189888,
          "time": 134.8635015,
          "velocity": 0.30708661417322836
        },
        {
          "duration": 0.08522718749998148,
          "durationTicks": 120,
          "midi": 82,
          "name": "A#5",
          "ticks": 189888,
          "time": 134.8635015,
          "velocity": 0.30708661417322836
        },
        {
          "duration": 0.08522718749998148,
          "durationTicks": 120,
          "midi": 90,
          "name": "F#6",
          "ticks": 189888,
          "time": 134.8635015,
          "velocity": 0.30708661417322836
        },
        {
          "duration": 0.0852271875000099,
          "durationTicks": 120,
          "midi": 94,
          "name": "A#6",
          "ticks": 189984,
          "time": 134.93168325,
          "velocity": 0.30708661417322836
        },
        {
          "duration": 0.0852271875000099,
          "durationTicks": 120,
          "midi": 51,
          "name": "D#3",
          "ticks": 189984,
          "time": 134.93168325,
          "velocity": 0.30708661417322836
        },
        {
          "duration": 0.0852271875000099,
          "durationTicks": 120,
          "midi": 78,
          "name": "F#5",
          "ticks": 189984,
          "time": 134.93168325,
          "velocity": 0.30708661417322836
        },
        {
          "duration": 0.0852271875000099,
          "durationTicks": 120,
          "midi": 63,
          "name": "D#4",
          "ticks": 189984,
          "time": 134.93168325,
          "velocity": 0.30708661417322836
        },
        {
          "duration": 0.0852271875000099,
          "durationTicks": 120,
          "midi": 75,
          "name": "D#5",
          "ticks": 189984,
          "time": 134.93168325,
          "velocity": 0.30708661417322836
        },
        {
          "duration": 0.0852271875000099,
          "durationTicks": 120,
          "midi": 70,
          "name": "A#4",
          "ticks": 189984,
          "time": 134.93168325,
          "velocity": 0.30708661417322836
        },
        {
          "duration": 0.0852271875000099,
          "durationTicks": 120,
          "midi": 82,
          "name": "A#5",
          "ticks": 189984,
          "time": 134.93168325,
          "velocity": 0.30708661417322836
        },
        {
          "duration": 0.0852271875000099,
          "durationTicks": 120,
          "midi": 75,
          "name": "D#5",
          "ticks": 189984,
          "time": 134.93168325,
          "velocity": 0.30708661417322836
        },
        {
          "duration": 0.0852271875000099,
          "durationTicks": 120,
          "midi": 82,
          "name": "A#5",
          "ticks": 189984,
          "time": 134.93168325,
          "velocity": 0.30708661417322836
        },
        {
          "duration": 0.0852271875000099,
          "durationTicks": 120,
          "midi": 90,
          "name": "F#6",
          "ticks": 189984,
          "time": 134.93168325,
          "velocity": 0.30708661417322836
        },
        {
          "duration": 0.0852271875000099,
          "durationTicks": 120,
          "midi": 87,
          "name": "D#6",
          "ticks": 189984,
          "time": 134.93168325,
          "velocity": 0.30708661417322836
        },
        {
          "duration": 0.0852271875000099,
          "durationTicks": 120,
          "midi": 94,
          "name": "A#6",
          "ticks": 189984,
          "time": 134.93168325,
          "velocity": 0.30708661417322836
        },
        {
          "duration": 0.0852271875000099,
          "durationTicks": 120,
          "midi": 63,
          "name": "D#4",
          "ticks": 189984,
          "time": 134.93168325,
          "velocity": 0.30708661417322836
        },
        {
          "duration": 0.0852271875000099,
          "durationTicks": 120,
          "midi": 53,
          "name": "F3",
          "ticks": 189984,
          "time": 134.93168325,
          "velocity": 0.30708661417322836
        },
        {
          "duration": 0.0852271875000099,
          "durationTicks": 120,
          "midi": 53,
          "name": "F3",
          "ticks": 189984,
          "time": 134.93168325,
          "velocity": 0.30708661417322836
        },
        {
          "duration": 0.0852271875000099,
          "durationTicks": 120,
          "midi": 66,
          "name": "F#4",
          "ticks": 189984,
          "time": 134.93168325,
          "velocity": 0.30708661417322836
        },
        {
          "duration": 0.0852271875000099,
          "durationTicks": 120,
          "midi": 51,
          "name": "D#3",
          "ticks": 189984,
          "time": 134.93168325,
          "velocity": 0.30708661417322836
        },
        {
          "duration": 0.0852271875000099,
          "durationTicks": 120,
          "midi": 78,
          "name": "F#5",
          "ticks": 189984,
          "time": 134.93168325,
          "velocity": 0.30708661417322836
        },
        {
          "duration": 0.0852271875000099,
          "durationTicks": 120,
          "midi": 51,
          "name": "D#3",
          "ticks": 189984,
          "time": 134.93168325,
          "velocity": 0.30708661417322836
        },
        {
          "duration": 0.0852271875000099,
          "durationTicks": 120,
          "midi": 90,
          "name": "F#6",
          "ticks": 189984,
          "time": 134.93168325,
          "velocity": 0.30708661417322836
        },
        {
          "duration": 0.0852271875000099,
          "durationTicks": 120,
          "midi": 70,
          "name": "A#4",
          "ticks": 189984,
          "time": 134.93168325,
          "velocity": 0.30708661417322836
        },
        {
          "duration": 0.0852271875000099,
          "durationTicks": 120,
          "midi": 87,
          "name": "D#6",
          "ticks": 189984,
          "time": 134.93168325,
          "velocity": 0.30708661417322836
        },
        {
          "duration": 0.0852271875000099,
          "durationTicks": 120,
          "midi": 66,
          "name": "F#4",
          "ticks": 189984,
          "time": 134.93168325,
          "velocity": 0.30708661417322836
        },
        {
          "duration": 0.0852271875000099,
          "durationTicks": 120,
          "midi": 53,
          "name": "F3",
          "ticks": 189984,
          "time": 134.93168325,
          "velocity": 0.30708661417322836
        },
        {
          "duration": 0.0852271875000099,
          "durationTicks": 120,
          "midi": 53,
          "name": "F3",
          "ticks": 189984,
          "time": 134.93168325,
          "velocity": 0.30708661417322836
        },
        {
          "duration": 0.0852271875000099,
          "durationTicks": 120,
          "midi": 51,
          "name": "D#3",
          "ticks": 189984,
          "time": 134.93168325,
          "velocity": 0.30708661417322836
        },
        {
          "duration": 0.0852271875000099,
          "durationTicks": 120,
          "midi": 70,
          "name": "A#4",
          "ticks": 190008,
          "time": 134.9487286875,
          "velocity": 0.30708661417322836
        },
        {
          "duration": 0.0852271875000099,
          "durationTicks": 120,
          "midi": 51,
          "name": "D#3",
          "ticks": 190008,
          "time": 134.9487286875,
          "velocity": 0.30708661417322836
        },
        {
          "duration": 0.0852271875000099,
          "durationTicks": 120,
          "midi": 51,
          "name": "D#3",
          "ticks": 190008,
          "time": 134.9487286875,
          "velocity": 0.30708661417322836
        },
        {
          "duration": 0.0852271875000099,
          "durationTicks": 120,
          "midi": 53,
          "name": "F3",
          "ticks": 190008,
          "time": 134.9487286875,
          "velocity": 0.30708661417322836
        },
        {
          "duration": 0.0852271875000099,
          "durationTicks": 120,
          "midi": 63,
          "name": "D#4",
          "ticks": 190008,
          "time": 134.9487286875,
          "velocity": 0.30708661417322836
        },
        {
          "duration": 0.0852271875000099,
          "durationTicks": 120,
          "midi": 78,
          "name": "F#5",
          "ticks": 190008,
          "time": 134.9487286875,
          "velocity": 0.30708661417322836
        },
        {
          "duration": 0.0852271875000099,
          "durationTicks": 120,
          "midi": 66,
          "name": "F#4",
          "ticks": 190008,
          "time": 134.9487286875,
          "velocity": 0.30708661417322836
        },
        {
          "duration": 0.0852271875000099,
          "durationTicks": 120,
          "midi": 90,
          "name": "F#6",
          "ticks": 190008,
          "time": 134.9487286875,
          "velocity": 0.30708661417322836
        },
        {
          "duration": 0.0852271875000099,
          "durationTicks": 120,
          "midi": 75,
          "name": "D#5",
          "ticks": 190008,
          "time": 134.9487286875,
          "velocity": 0.30708661417322836
        },
        {
          "duration": 0.0852271875000099,
          "durationTicks": 120,
          "midi": 53,
          "name": "F3",
          "ticks": 190008,
          "time": 134.9487286875,
          "velocity": 0.30708661417322836
        },
        {
          "duration": 0.0852271875000099,
          "durationTicks": 120,
          "midi": 87,
          "name": "D#6",
          "ticks": 190008,
          "time": 134.9487286875,
          "velocity": 0.30708661417322836
        },
        {
          "duration": 0.0852271875000099,
          "durationTicks": 120,
          "midi": 82,
          "name": "A#5",
          "ticks": 190008,
          "time": 134.9487286875,
          "velocity": 0.30708661417322836
        },
        {
          "duration": 0.0852271875000099,
          "durationTicks": 120,
          "midi": 94,
          "name": "A#6",
          "ticks": 190008,
          "time": 134.9487286875,
          "velocity": 0.30708661417322836
        },
        {
          "duration": 0.0852271875000099,
          "durationTicks": 120,
          "midi": 82,
          "name": "A#5",
          "ticks": 190104,
          "time": 135.0169104375,
          "velocity": 0.30708661417322836
        },
        {
          "duration": 0.0852271875000099,
          "durationTicks": 120,
          "midi": 63,
          "name": "D#4",
          "ticks": 190104,
          "time": 135.0169104375,
          "velocity": 0.30708661417322836
        },
        {
          "duration": 0.0852271875000099,
          "durationTicks": 120,
          "midi": 94,
          "name": "A#6",
          "ticks": 190104,
          "time": 135.0169104375,
          "velocity": 0.30708661417322836
        },
        {
          "duration": 0.0852271875000099,
          "durationTicks": 120,
          "midi": 90,
          "name": "F#6",
          "ticks": 190104,
          "time": 135.0169104375,
          "velocity": 0.30708661417322836
        },
        {
          "duration": 0.0852271875000099,
          "durationTicks": 120,
          "midi": 70,
          "name": "A#4",
          "ticks": 190104,
          "time": 135.0169104375,
          "velocity": 0.30708661417322836
        },
        {
          "duration": 0.0852271875000099,
          "durationTicks": 120,
          "midi": 66,
          "name": "F#4",
          "ticks": 190104,
          "time": 135.0169104375,
          "velocity": 0.30708661417322836
        },
        {
          "duration": 0.0852271875000099,
          "durationTicks": 120,
          "midi": 75,
          "name": "D#5",
          "ticks": 190104,
          "time": 135.0169104375,
          "velocity": 0.30708661417322836
        },
        {
          "duration": 0.0852271875000099,
          "durationTicks": 120,
          "midi": 78,
          "name": "F#5",
          "ticks": 190104,
          "time": 135.0169104375,
          "velocity": 0.30708661417322836
        },
        {
          "duration": 0.0852271875000099,
          "durationTicks": 120,
          "midi": 82,
          "name": "A#5",
          "ticks": 190104,
          "time": 135.0169104375,
          "velocity": 0.30708661417322836
        },
        {
          "duration": 0.0852271875000099,
          "durationTicks": 120,
          "midi": 87,
          "name": "D#6",
          "ticks": 190104,
          "time": 135.0169104375,
          "velocity": 0.30708661417322836
        },
        {
          "duration": 0.0852271875000099,
          "durationTicks": 120,
          "midi": 78,
          "name": "F#5",
          "ticks": 190104,
          "time": 135.0169104375,
          "velocity": 0.30708661417322836
        },
        {
          "duration": 0.0852271875000099,
          "durationTicks": 120,
          "midi": 70,
          "name": "A#4",
          "ticks": 190104,
          "time": 135.0169104375,
          "velocity": 0.30708661417322836
        },
        {
          "duration": 0.0852271875000099,
          "durationTicks": 120,
          "midi": 66,
          "name": "F#4",
          "ticks": 190104,
          "time": 135.0169104375,
          "velocity": 0.30708661417322836
        },
        {
          "duration": 0.0852271875000099,
          "durationTicks": 120,
          "midi": 75,
          "name": "D#5",
          "ticks": 190104,
          "time": 135.0169104375,
          "velocity": 0.30708661417322836
        },
        {
          "duration": 0.0852271875000099,
          "durationTicks": 120,
          "midi": 87,
          "name": "D#6",
          "ticks": 190104,
          "time": 135.0169104375,
          "velocity": 0.30708661417322836
        },
        {
          "duration": 0.0852271875000099,
          "durationTicks": 120,
          "midi": 94,
          "name": "A#6",
          "ticks": 190104,
          "time": 135.0169104375,
          "velocity": 0.30708661417322836
        },
        {
          "duration": 0.0852271875000099,
          "durationTicks": 120,
          "midi": 90,
          "name": "F#6",
          "ticks": 190104,
          "time": 135.0169104375,
          "velocity": 0.30708661417322836
        },
        {
          "duration": 0.0852271875000099,
          "durationTicks": 120,
          "midi": 63,
          "name": "D#4",
          "ticks": 190104,
          "time": 135.0169104375,
          "velocity": 0.30708661417322836
        },
        {
          "duration": 0.08522718749998148,
          "durationTicks": 120,
          "midi": 90,
          "name": "F#6",
          "ticks": 190128,
          "time": 135.033955875,
          "velocity": 0.30708661417322836
        },
        {
          "duration": 0.08522718749998148,
          "durationTicks": 120,
          "midi": 78,
          "name": "F#5",
          "ticks": 190128,
          "time": 135.033955875,
          "velocity": 0.30708661417322836
        },
        {
          "duration": 0.08522718749998148,
          "durationTicks": 120,
          "midi": 82,
          "name": "A#5",
          "ticks": 190128,
          "time": 135.033955875,
          "velocity": 0.30708661417322836
        },
        {
          "duration": 0.08522718749998148,
          "durationTicks": 120,
          "midi": 87,
          "name": "D#6",
          "ticks": 190128,
          "time": 135.033955875,
          "velocity": 0.30708661417322836
        },
        {
          "duration": 0.08522718749998148,
          "durationTicks": 120,
          "midi": 94,
          "name": "A#6",
          "ticks": 190128,
          "time": 135.033955875,
          "velocity": 0.30708661417322836
        },
        {
          "duration": 0.08522718749998148,
          "durationTicks": 120,
          "midi": 70,
          "name": "A#4",
          "ticks": 190128,
          "time": 135.033955875,
          "velocity": 0.30708661417322836
        },
        {
          "duration": 0.08522718749998148,
          "durationTicks": 120,
          "midi": 75,
          "name": "D#5",
          "ticks": 190128,
          "time": 135.033955875,
          "velocity": 0.30708661417322836
        },
        {
          "duration": 0.08522718749998148,
          "durationTicks": 120,
          "midi": 63,
          "name": "D#4",
          "ticks": 190128,
          "time": 135.033955875,
          "velocity": 0.30708661417322836
        },
        {
          "duration": 0.08522718749998148,
          "durationTicks": 120,
          "midi": 66,
          "name": "F#4",
          "ticks": 190128,
          "time": 135.033955875,
          "velocity": 0.30708661417322836
        },
        {
          "duration": 0.08522718749998148,
          "durationTicks": 120,
          "midi": 94,
          "name": "A#6",
          "ticks": 190224,
          "time": 135.102137625,
          "velocity": 0.30708661417322836
        },
        {
          "duration": 0.08522718749998148,
          "durationTicks": 120,
          "midi": 78,
          "name": "F#5",
          "ticks": 190224,
          "time": 135.102137625,
          "velocity": 0.30708661417322836
        },
        {
          "duration": 0.08522718749998148,
          "durationTicks": 120,
          "midi": 75,
          "name": "D#5",
          "ticks": 190224,
          "time": 135.102137625,
          "velocity": 0.30708661417322836
        },
        {
          "duration": 0.08522718749998148,
          "durationTicks": 120,
          "midi": 66,
          "name": "F#4",
          "ticks": 190224,
          "time": 135.102137625,
          "velocity": 0.30708661417322836
        },
        {
          "duration": 0.08522718749998148,
          "durationTicks": 120,
          "midi": 94,
          "name": "A#6",
          "ticks": 190224,
          "time": 135.102137625,
          "velocity": 0.30708661417322836
        },
        {
          "duration": 0.08522718749998148,
          "durationTicks": 120,
          "midi": 75,
          "name": "D#5",
          "ticks": 190224,
          "time": 135.102137625,
          "velocity": 0.30708661417322836
        },
        {
          "duration": 0.08522718749998148,
          "durationTicks": 120,
          "midi": 70,
          "name": "A#4",
          "ticks": 190224,
          "time": 135.102137625,
          "velocity": 0.30708661417322836
        },
        {
          "duration": 0.08522718749998148,
          "durationTicks": 120,
          "midi": 90,
          "name": "F#6",
          "ticks": 190224,
          "time": 135.102137625,
          "velocity": 0.30708661417322836
        },
        {
          "duration": 0.08522718749998148,
          "durationTicks": 120,
          "midi": 41,
          "name": "F2",
          "ticks": 190224,
          "time": 135.102137625,
          "velocity": 0.30708661417322836
        },
        {
          "duration": 0.08522718749998148,
          "durationTicks": 120,
          "midi": 87,
          "name": "D#6",
          "ticks": 190224,
          "time": 135.102137625,
          "velocity": 0.30708661417322836
        },
        {
          "duration": 0.08522718749998148,
          "durationTicks": 120,
          "midi": 87,
          "name": "D#6",
          "ticks": 190224,
          "time": 135.102137625,
          "velocity": 0.30708661417322836
        },
        {
          "duration": 0.08522718749998148,
          "durationTicks": 120,
          "midi": 41,
          "name": "F2",
          "ticks": 190224,
          "time": 135.102137625,
          "velocity": 0.30708661417322836
        },
        {
          "duration": 0.08522718749998148,
          "durationTicks": 120,
          "midi": 63,
          "name": "D#4",
          "ticks": 190224,
          "time": 135.102137625,
          "velocity": 0.30708661417322836
        },
        {
          "duration": 0.08522718749998148,
          "durationTicks": 120,
          "midi": 78,
          "name": "F#5",
          "ticks": 190224,
          "time": 135.102137625,
          "velocity": 0.30708661417322836
        },
        {
          "duration": 0.08522718749998148,
          "durationTicks": 120,
          "midi": 66,
          "name": "F#4",
          "ticks": 190224,
          "time": 135.102137625,
          "velocity": 0.30708661417322836
        },
        {
          "duration": 0.08522718749998148,
          "durationTicks": 120,
          "midi": 90,
          "name": "F#6",
          "ticks": 190224,
          "time": 135.102137625,
          "velocity": 0.30708661417322836
        },
        {
          "duration": 0.08522718749998148,
          "durationTicks": 120,
          "midi": 41,
          "name": "F2",
          "ticks": 190224,
          "time": 135.102137625,
          "velocity": 0.30708661417322836
        },
        {
          "duration": 0.08522718749998148,
          "durationTicks": 120,
          "midi": 70,
          "name": "A#4",
          "ticks": 190224,
          "time": 135.102137625,
          "velocity": 0.30708661417322836
        },
        {
          "duration": 0.08522718749998148,
          "durationTicks": 120,
          "midi": 41,
          "name": "F2",
          "ticks": 190224,
          "time": 135.102137625,
          "velocity": 0.30708661417322836
        },
        {
          "duration": 0.08522718749998148,
          "durationTicks": 120,
          "midi": 63,
          "name": "D#4",
          "ticks": 190224,
          "time": 135.102137625,
          "velocity": 0.30708661417322836
        },
        {
          "duration": 0.08522718749998148,
          "durationTicks": 120,
          "midi": 82,
          "name": "A#5",
          "ticks": 190224,
          "time": 135.102137625,
          "velocity": 0.30708661417322836
        },
        {
          "duration": 0.08522718749998148,
          "durationTicks": 120,
          "midi": 82,
          "name": "A#5",
          "ticks": 190224,
          "time": 135.102137625,
          "velocity": 0.30708661417322836
        },
        {
          "duration": 0.0852271875000099,
          "durationTicks": 120,
          "midi": 70,
          "name": "A#4",
          "ticks": 190248,
          "time": 135.11918306249999,
          "velocity": 0.30708661417322836
        },
        {
          "duration": 0.0852271875000099,
          "durationTicks": 120,
          "midi": 94,
          "name": "A#6",
          "ticks": 190248,
          "time": 135.11918306249999,
          "velocity": 0.30708661417322836
        },
        {
          "duration": 0.0852271875000099,
          "durationTicks": 120,
          "midi": 41,
          "name": "F2",
          "ticks": 190248,
          "time": 135.11918306249999,
          "velocity": 0.30708661417322836
        },
        {
          "duration": 0.0852271875000099,
          "durationTicks": 120,
          "midi": 90,
          "name": "F#6",
          "ticks": 190248,
          "time": 135.11918306249999,
          "velocity": 0.30708661417322836
        },
        {
          "duration": 0.0852271875000099,
          "durationTicks": 120,
          "midi": 63,
          "name": "D#4",
          "ticks": 190248,
          "time": 135.11918306249999,
          "velocity": 0.30708661417322836
        },
        {
          "duration": 0.0852271875000099,
          "durationTicks": 120,
          "midi": 66,
          "name": "F#4",
          "ticks": 190248,
          "time": 135.11918306249999,
          "velocity": 0.30708661417322836
        },
        {
          "duration": 0.0852271875000099,
          "durationTicks": 120,
          "midi": 78,
          "name": "F#5",
          "ticks": 190248,
          "time": 135.11918306249999,
          "velocity": 0.30708661417322836
        },
        {
          "duration": 0.0852271875000099,
          "durationTicks": 120,
          "midi": 75,
          "name": "D#5",
          "ticks": 190248,
          "time": 135.11918306249999,
          "velocity": 0.30708661417322836
        },
        {
          "duration": 0.0852271875000099,
          "durationTicks": 120,
          "midi": 87,
          "name": "D#6",
          "ticks": 190248,
          "time": 135.11918306249999,
          "velocity": 0.30708661417322836
        },
        {
          "duration": 0.0852271875000099,
          "durationTicks": 120,
          "midi": 82,
          "name": "A#5",
          "ticks": 190248,
          "time": 135.11918306249999,
          "velocity": 0.30708661417322836
        },
        {
          "duration": 0.0852271875000099,
          "durationTicks": 120,
          "midi": 41,
          "name": "F2",
          "ticks": 190248,
          "time": 135.11918306249999,
          "velocity": 0.30708661417322836
        },
        {
          "duration": 0.0852271875000099,
          "durationTicks": 120,
          "midi": 78,
          "name": "F#5",
          "ticks": 190344,
          "time": 135.1873648125,
          "velocity": 0.30708661417322836
        },
        {
          "duration": 0.0852271875000099,
          "durationTicks": 120,
          "midi": 66,
          "name": "F#4",
          "ticks": 190344,
          "time": 135.1873648125,
          "velocity": 0.30708661417322836
        },
        {
          "duration": 0.0852271875000099,
          "durationTicks": 120,
          "midi": 90,
          "name": "F#6",
          "ticks": 190344,
          "time": 135.1873648125,
          "velocity": 0.30708661417322836
        },
        {
          "duration": 0.0852271875000099,
          "durationTicks": 120,
          "midi": 73,
          "name": "C#5",
          "ticks": 190344,
          "time": 135.1873648125,
          "velocity": 0.30708661417322836
        },
        {
          "duration": 0.0852271875000099,
          "durationTicks": 120,
          "midi": 90,
          "name": "F#6",
          "ticks": 190344,
          "time": 135.1873648125,
          "velocity": 0.30708661417322836
        },
        {
          "duration": 0.0852271875000099,
          "durationTicks": 120,
          "midi": 66,
          "name": "F#4",
          "ticks": 190344,
          "time": 135.1873648125,
          "velocity": 0.30708661417322836
        },
        {
          "duration": 0.0852271875000099,
          "durationTicks": 120,
          "midi": 73,
          "name": "C#5",
          "ticks": 190344,
          "time": 135.1873648125,
          "velocity": 0.30708661417322836
        },
        {
          "duration": 0.0852271875000099,
          "durationTicks": 120,
          "midi": 61,
          "name": "C#4",
          "ticks": 190344,
          "time": 135.1873648125,
          "velocity": 0.30708661417322836
        },
        {
          "duration": 0.0852271875000099,
          "durationTicks": 120,
          "midi": 78,
          "name": "F#5",
          "ticks": 190344,
          "time": 135.1873648125,
          "velocity": 0.30708661417322836
        },
        {
          "duration": 0.0852271875000099,
          "durationTicks": 120,
          "midi": 78,
          "name": "F#5",
          "ticks": 190344,
          "time": 135.1873648125,
          "velocity": 0.30708661417322836
        },
        {
          "duration": 0.0852271875000099,
          "durationTicks": 120,
          "midi": 78,
          "name": "F#5",
          "ticks": 190344,
          "time": 135.1873648125,
          "velocity": 0.30708661417322836
        },
        {
          "duration": 0.0852271875000099,
          "durationTicks": 120,
          "midi": 73,
          "name": "C#5",
          "ticks": 190344,
          "time": 135.1873648125,
          "velocity": 0.30708661417322836
        },
        {
          "duration": 0.0852271875000099,
          "durationTicks": 120,
          "midi": 85,
          "name": "C#6",
          "ticks": 190344,
          "time": 135.1873648125,
          "velocity": 0.30708661417322836
        },
        {
          "duration": 0.0852271875000099,
          "durationTicks": 120,
          "midi": 73,
          "name": "C#5",
          "ticks": 190344,
          "time": 135.1873648125,
          "velocity": 0.30708661417322836
        },
        {
          "duration": 0.0852271875000099,
          "durationTicks": 120,
          "midi": 61,
          "name": "C#4",
          "ticks": 190344,
          "time": 135.1873648125,
          "velocity": 0.30708661417322836
        },
        {
          "duration": 0.0852271875000099,
          "durationTicks": 120,
          "midi": 85,
          "name": "C#6",
          "ticks": 190344,
          "time": 135.1873648125,
          "velocity": 0.30708661417322836
        },
        {
          "duration": 0.0852271875000099,
          "durationTicks": 120,
          "midi": 78,
          "name": "F#5",
          "ticks": 190368,
          "time": 135.20441025,
          "velocity": 0.30708661417322836
        },
        {
          "duration": 0.0852271875000099,
          "durationTicks": 120,
          "midi": 66,
          "name": "F#4",
          "ticks": 190368,
          "time": 135.20441025,
          "velocity": 0.30708661417322836
        },
        {
          "duration": 0.0852271875000099,
          "durationTicks": 120,
          "midi": 90,
          "name": "F#6",
          "ticks": 190368,
          "time": 135.20441025,
          "velocity": 0.30708661417322836
        },
        {
          "duration": 0.0852271875000099,
          "durationTicks": 120,
          "midi": 73,
          "name": "C#5",
          "ticks": 190368,
          "time": 135.20441025,
          "velocity": 0.30708661417322836
        },
        {
          "duration": 0.0852271875000099,
          "durationTicks": 120,
          "midi": 78,
          "name": "F#5",
          "ticks": 190368,
          "time": 135.20441025,
          "velocity": 0.30708661417322836
        },
        {
          "duration": 0.0852271875000099,
          "durationTicks": 120,
          "midi": 61,
          "name": "C#4",
          "ticks": 190368,
          "time": 135.20441025,
          "velocity": 0.30708661417322836
        },
        {
          "duration": 0.0852271875000099,
          "durationTicks": 120,
          "midi": 85,
          "name": "C#6",
          "ticks": 190368,
          "time": 135.20441025,
          "velocity": 0.30708661417322836
        },
        {
          "duration": 0.0852271875000099,
          "durationTicks": 120,
          "midi": 73,
          "name": "C#5",
          "ticks": 190368,
          "time": 135.20441025,
          "velocity": 0.30708661417322836
        },
        {
          "duration": 0.08522718749998148,
          "durationTicks": 120,
          "midi": 53,
          "name": "F3",
          "ticks": 190464,
          "time": 135.272592,
          "velocity": 0.30708661417322836
        },
        {
          "duration": 0.08522718749998148,
          "durationTicks": 120,
          "midi": 60,
          "name": "C4",
          "ticks": 190464,
          "time": 135.272592,
          "velocity": 0.30708661417322836
        },
        {
          "duration": 0.08522718749998148,
          "durationTicks": 120,
          "midi": 77,
          "name": "F5",
          "ticks": 190464,
          "time": 135.272592,
          "velocity": 0.30708661417322836
        },
        {
          "duration": 0.08522718749998148,
          "durationTicks": 120,
          "midi": 65,
          "name": "F4",
          "ticks": 190464,
          "time": 135.272592,
          "velocity": 0.30708661417322836
        },
        {
          "duration": 0.08522718749998148,
          "durationTicks": 120,
          "midi": 72,
          "name": "C5",
          "ticks": 190464,
          "time": 135.272592,
          "velocity": 0.30708661417322836
        },
        {
          "duration": 0.08522718749998148,
          "durationTicks": 120,
          "midi": 51,
          "name": "D#3",
          "ticks": 190464,
          "time": 135.272592,
          "velocity": 0.30708661417322836
        },
        {
          "duration": 0.08522718749998148,
          "durationTicks": 120,
          "midi": 60,
          "name": "C4",
          "ticks": 190464,
          "time": 135.272592,
          "velocity": 0.30708661417322836
        },
        {
          "duration": 0.08522718749998148,
          "durationTicks": 120,
          "midi": 51,
          "name": "D#3",
          "ticks": 190464,
          "time": 135.272592,
          "velocity": 0.30708661417322836
        },
        {
          "duration": 0.08522718749998148,
          "durationTicks": 120,
          "midi": 51,
          "name": "D#3",
          "ticks": 190464,
          "time": 135.272592,
          "velocity": 0.30708661417322836
        },
        {
          "duration": 0.08522718749998148,
          "durationTicks": 120,
          "midi": 53,
          "name": "F3",
          "ticks": 190464,
          "time": 135.272592,
          "velocity": 0.30708661417322836
        },
        {
          "duration": 0.08522718749998148,
          "durationTicks": 120,
          "midi": 89,
          "name": "F6",
          "ticks": 190464,
          "time": 135.272592,
          "velocity": 0.30708661417322836
        },
        {
          "duration": 0.08522718749998148,
          "durationTicks": 120,
          "midi": 51,
          "name": "D#3",
          "ticks": 190464,
          "time": 135.272592,
          "velocity": 0.30708661417322836
        },
        {
          "duration": 0.08522718749998148,
          "durationTicks": 120,
          "midi": 72,
          "name": "C5",
          "ticks": 190464,
          "time": 135.272592,
          "velocity": 0.30708661417322836
        },
        {
          "duration": 0.08522718749998148,
          "durationTicks": 120,
          "midi": 77,
          "name": "F5",
          "ticks": 190464,
          "time": 135.272592,
          "velocity": 0.30708661417322836
        },
        {
          "duration": 0.08522718749998148,
          "durationTicks": 120,
          "midi": 72,
          "name": "C5",
          "ticks": 190464,
          "time": 135.272592,
          "velocity": 0.30708661417322836
        },
        {
          "duration": 0.08522718749998148,
          "durationTicks": 120,
          "midi": 89,
          "name": "F6",
          "ticks": 190464,
          "time": 135.272592,
          "velocity": 0.30708661417322836
        },
        {
          "duration": 0.08522718749998148,
          "durationTicks": 120,
          "midi": 53,
          "name": "F3",
          "ticks": 190464,
          "time": 135.272592,
          "velocity": 0.30708661417322836
        },
        {
          "duration": 0.08522718749998148,
          "durationTicks": 120,
          "midi": 53,
          "name": "F3",
          "ticks": 190464,
          "time": 135.272592,
          "velocity": 0.30708661417322836
        },
        {
          "duration": 0.08522718749998148,
          "durationTicks": 120,
          "midi": 72,
          "name": "C5",
          "ticks": 190464,
          "time": 135.272592,
          "velocity": 0.30708661417322836
        },
        {
          "duration": 0.08522718749998148,
          "durationTicks": 120,
          "midi": 77,
          "name": "F5",
          "ticks": 190464,
          "time": 135.272592,
          "velocity": 0.30708661417322836
        },
        {
          "duration": 0.08522718749998148,
          "durationTicks": 120,
          "midi": 84,
          "name": "C6",
          "ticks": 190464,
          "time": 135.272592,
          "velocity": 0.30708661417322836
        },
        {
          "duration": 0.08522718749998148,
          "durationTicks": 120,
          "midi": 84,
          "name": "C6",
          "ticks": 190464,
          "time": 135.272592,
          "velocity": 0.30708661417322836
        },
        {
          "duration": 0.08522718749998148,
          "durationTicks": 120,
          "midi": 77,
          "name": "F5",
          "ticks": 190464,
          "time": 135.272592,
          "velocity": 0.30708661417322836
        },
        {
          "duration": 0.08522718749998148,
          "durationTicks": 120,
          "midi": 65,
          "name": "F4",
          "ticks": 190464,
          "time": 135.272592,
          "velocity": 0.30708661417322836
        },
        {
          "duration": 0.08522718749998148,
          "durationTicks": 120,
          "midi": 53,
          "name": "F3",
          "ticks": 190488,
          "time": 135.2896374375,
          "velocity": 0.30708661417322836
        },
        {
          "duration": 0.08522718749998148,
          "durationTicks": 120,
          "midi": 89,
          "name": "F6",
          "ticks": 190488,
          "time": 135.2896374375,
          "velocity": 0.30708661417322836
        },
        {
          "duration": 0.08522718749998148,
          "durationTicks": 120,
          "midi": 60,
          "name": "C4",
          "ticks": 190488,
          "time": 135.2896374375,
          "velocity": 0.30708661417322836
        },
        {
          "duration": 0.08522718749998148,
          "durationTicks": 120,
          "midi": 65,
          "name": "F4",
          "ticks": 190488,
          "time": 135.2896374375,
          "velocity": 0.30708661417322836
        },
        {
          "duration": 0.08522718749998148,
          "durationTicks": 120,
          "midi": 84,
          "name": "C6",
          "ticks": 190488,
          "time": 135.2896374375,
          "velocity": 0.30708661417322836
        },
        {
          "duration": 0.08522718749998148,
          "durationTicks": 120,
          "midi": 72,
          "name": "C5",
          "ticks": 190488,
          "time": 135.2896374375,
          "velocity": 0.30708661417322836
        },
        {
          "duration": 0.08522718749998148,
          "durationTicks": 120,
          "midi": 77,
          "name": "F5",
          "ticks": 190488,
          "time": 135.2896374375,
          "velocity": 0.30708661417322836
        },
        {
          "duration": 0.08522718749998148,
          "durationTicks": 120,
          "midi": 72,
          "name": "C5",
          "ticks": 190488,
          "time": 135.2896374375,
          "velocity": 0.30708661417322836
        },
        {
          "duration": 0.08522718749998148,
          "durationTicks": 120,
          "midi": 53,
          "name": "F3",
          "ticks": 190488,
          "time": 135.2896374375,
          "velocity": 0.30708661417322836
        },
        {
          "duration": 0.08522718749998148,
          "durationTicks": 120,
          "midi": 51,
          "name": "D#3",
          "ticks": 190488,
          "time": 135.2896374375,
          "velocity": 0.30708661417322836
        },
        {
          "duration": 0.08522718749998148,
          "durationTicks": 120,
          "midi": 51,
          "name": "D#3",
          "ticks": 190488,
          "time": 135.2896374375,
          "velocity": 0.30708661417322836
        },
        {
          "duration": 0.08522718749998148,
          "durationTicks": 120,
          "midi": 77,
          "name": "F5",
          "ticks": 190488,
          "time": 135.2896374375,
          "velocity": 0.30708661417322836
        },
        {
          "duration": 0.0852271875000099,
          "durationTicks": 120,
          "midi": 92,
          "name": "G#6",
          "ticks": 190584,
          "time": 135.35781918749998,
          "velocity": 0.30708661417322836
        },
        {
          "duration": 0.0852271875000099,
          "durationTicks": 120,
          "midi": 80,
          "name": "G#5",
          "ticks": 190584,
          "time": 135.35781918749998,
          "velocity": 0.30708661417322836
        },
        {
          "duration": 0.0852271875000099,
          "durationTicks": 120,
          "midi": 75,
          "name": "D#5",
          "ticks": 190584,
          "time": 135.35781918749998,
          "velocity": 0.30708661417322836
        },
        {
          "duration": 0.0852271875000099,
          "durationTicks": 120,
          "midi": 80,
          "name": "G#5",
          "ticks": 190584,
          "time": 135.35781918749998,
          "velocity": 0.30708661417322836
        },
        {
          "duration": 0.0852271875000099,
          "durationTicks": 120,
          "midi": 92,
          "name": "G#6",
          "ticks": 190584,
          "time": 135.35781918749998,
          "velocity": 0.30708661417322836
        },
        {
          "duration": 0.0852271875000099,
          "durationTicks": 120,
          "midi": 75,
          "name": "D#5",
          "ticks": 190584,
          "time": 135.35781918749998,
          "velocity": 0.30708661417322836
        },
        {
          "duration": 0.0852271875000099,
          "durationTicks": 120,
          "midi": 75,
          "name": "D#5",
          "ticks": 190584,
          "time": 135.35781918749998,
          "velocity": 0.30708661417322836
        },
        {
          "duration": 0.0852271875000099,
          "durationTicks": 120,
          "midi": 75,
          "name": "D#5",
          "ticks": 190584,
          "time": 135.35781918749998,
          "velocity": 0.30708661417322836
        },
        {
          "duration": 0.0852271875000099,
          "durationTicks": 120,
          "midi": 87,
          "name": "D#6",
          "ticks": 190584,
          "time": 135.35781918749998,
          "velocity": 0.30708661417322836
        },
        {
          "duration": 0.0852271875000099,
          "durationTicks": 120,
          "midi": 87,
          "name": "D#6",
          "ticks": 190584,
          "time": 135.35781918749998,
          "velocity": 0.30708661417322836
        },
        {
          "duration": 0.0852271875000099,
          "durationTicks": 120,
          "midi": 68,
          "name": "G#4",
          "ticks": 190584,
          "time": 135.35781918749998,
          "velocity": 0.30708661417322836
        },
        {
          "duration": 0.0852271875000099,
          "durationTicks": 120,
          "midi": 68,
          "name": "G#4",
          "ticks": 190584,
          "time": 135.35781918749998,
          "velocity": 0.30708661417322836
        },
        {
          "duration": 0.0852271875000099,
          "durationTicks": 120,
          "midi": 80,
          "name": "G#5",
          "ticks": 190584,
          "time": 135.35781918749998,
          "velocity": 0.30708661417322836
        },
        {
          "duration": 0.0852271875000099,
          "durationTicks": 120,
          "midi": 63,
          "name": "D#4",
          "ticks": 190584,
          "time": 135.35781918749998,
          "velocity": 0.30708661417322836
        },
        {
          "duration": 0.0852271875000099,
          "durationTicks": 120,
          "midi": 80,
          "name": "G#5",
          "ticks": 190584,
          "time": 135.35781918749998,
          "velocity": 0.30708661417322836
        },
        {
          "duration": 0.0852271875000099,
          "durationTicks": 120,
          "midi": 63,
          "name": "D#4",
          "ticks": 190584,
          "time": 135.35781918749998,
          "velocity": 0.30708661417322836
        },
        {
          "duration": 0.0852271875000099,
          "durationTicks": 120,
          "midi": 92,
          "name": "G#6",
          "ticks": 190608,
          "time": 135.374864625,
          "velocity": 0.30708661417322836
        },
        {
          "duration": 0.0852271875000099,
          "durationTicks": 120,
          "midi": 75,
          "name": "D#5",
          "ticks": 190608,
          "time": 135.374864625,
          "velocity": 0.30708661417322836
        },
        {
          "duration": 0.0852271875000099,
          "durationTicks": 120,
          "midi": 80,
          "name": "G#5",
          "ticks": 190608,
          "time": 135.374864625,
          "velocity": 0.30708661417322836
        },
        {
          "duration": 0.0852271875000099,
          "durationTicks": 120,
          "midi": 63,
          "name": "D#4",
          "ticks": 190608,
          "time": 135.374864625,
          "velocity": 0.30708661417322836
        },
        {
          "duration": 0.0852271875000099,
          "durationTicks": 120,
          "midi": 68,
          "name": "G#4",
          "ticks": 190608,
          "time": 135.374864625,
          "velocity": 0.30708661417322836
        },
        {
          "duration": 0.0852271875000099,
          "durationTicks": 120,
          "midi": 87,
          "name": "D#6",
          "ticks": 190608,
          "time": 135.374864625,
          "velocity": 0.30708661417322836
        },
        {
          "duration": 0.0852271875000099,
          "durationTicks": 120,
          "midi": 80,
          "name": "G#5",
          "ticks": 190608,
          "time": 135.374864625,
          "velocity": 0.30708661417322836
        },
        {
          "duration": 0.0852271875000099,
          "durationTicks": 120,
          "midi": 75,
          "name": "D#5",
          "ticks": 190608,
          "time": 135.374864625,
          "velocity": 0.30708661417322836
        },
        {
          "duration": 0.0852271875000099,
          "durationTicks": 120,
          "midi": 94,
          "name": "A#6",
          "ticks": 190704,
          "time": 135.443046375,
          "velocity": 0.30708661417322836
        },
        {
          "duration": 0.0852271875000099,
          "durationTicks": 120,
          "midi": 89,
          "name": "F6",
          "ticks": 190704,
          "time": 135.443046375,
          "velocity": 0.30708661417322836
        },
        {
          "duration": 0.0852271875000099,
          "durationTicks": 120,
          "midi": 70,
          "name": "A#4",
          "ticks": 190704,
          "time": 135.443046375,
          "velocity": 0.30708661417322836
        },
        {
          "duration": 0.0852271875000099,
          "durationTicks": 120,
          "midi": 70,
          "name": "A#4",
          "ticks": 190704,
          "time": 135.443046375,
          "velocity": 0.30708661417322836
        },
        {
          "duration": 0.0852271875000099,
          "durationTicks": 120,
          "midi": 77,
          "name": "F5",
          "ticks": 190704,
          "time": 135.443046375,
          "velocity": 0.30708661417322836
        },
        {
          "duration": 0.0852271875000099,
          "durationTicks": 120,
          "midi": 61,
          "name": "C#4",
          "ticks": 190704,
          "time": 135.443046375,
          "velocity": 0.30708661417322836
        },
        {
          "duration": 0.0852271875000099,
          "durationTicks": 120,
          "midi": 85,
          "name": "C#6",
          "ticks": 190704,
          "time": 135.443046375,
          "velocity": 0.30708661417322836
        },
        {
          "duration": 0.0852271875000099,
          "durationTicks": 120,
          "midi": 46,
          "name": "A#2",
          "ticks": 190704,
          "time": 135.443046375,
          "velocity": 0.30708661417322836
        },
        {
          "duration": 0.0852271875000099,
          "durationTicks": 120,
          "midi": 77,
          "name": "F5",
          "ticks": 190704,
          "time": 135.443046375,
          "velocity": 0.30708661417322836
        },
        {
          "duration": 0.0852271875000099,
          "durationTicks": 120,
          "midi": 65,
          "name": "F4",
          "ticks": 190704,
          "time": 135.443046375,
          "velocity": 0.30708661417322836
        },
        {
          "duration": 0.0852271875000099,
          "durationTicks": 120,
          "midi": 94,
          "name": "A#6",
          "ticks": 190704,
          "time": 135.443046375,
          "velocity": 0.30708661417322836
        },
        {
          "duration": 0.0852271875000099,
          "durationTicks": 120,
          "midi": 82,
          "name": "A#5",
          "ticks": 190704,
          "time": 135.443046375,
          "velocity": 0.30708661417322836
        },
        {
          "duration": 0.0852271875000099,
          "durationTicks": 120,
          "midi": 46,
          "name": "A#2",
          "ticks": 190704,
          "time": 135.443046375,
          "velocity": 0.30708661417322836
        },
        {
          "duration": 0.0852271875000099,
          "durationTicks": 120,
          "midi": 73,
          "name": "C#5",
          "ticks": 190704,
          "time": 135.443046375,
          "velocity": 0.30708661417322836
        },
        {
          "duration": 0.0852271875000099,
          "durationTicks": 120,
          "midi": 73,
          "name": "C#5",
          "ticks": 190704,
          "time": 135.443046375,
          "velocity": 0.30708661417322836
        },
        {
          "duration": 0.0852271875000099,
          "durationTicks": 120,
          "midi": 89,
          "name": "F6",
          "ticks": 190704,
          "time": 135.443046375,
          "velocity": 0.30708661417322836
        },
        {
          "duration": 0.0852271875000099,
          "durationTicks": 120,
          "midi": 65,
          "name": "F4",
          "ticks": 190704,
          "time": 135.443046375,
          "velocity": 0.30708661417322836
        },
        {
          "duration": 0.0852271875000099,
          "durationTicks": 120,
          "midi": 46,
          "name": "A#2",
          "ticks": 190704,
          "time": 135.443046375,
          "velocity": 0.30708661417322836
        },
        {
          "duration": 0.0852271875000099,
          "durationTicks": 120,
          "midi": 82,
          "name": "A#5",
          "ticks": 190704,
          "time": 135.443046375,
          "velocity": 0.30708661417322836
        },
        {
          "duration": 0.0852271875000099,
          "durationTicks": 120,
          "midi": 61,
          "name": "C#4",
          "ticks": 190704,
          "time": 135.443046375,
          "velocity": 0.30708661417322836
        },
        {
          "duration": 0.0852271875000099,
          "durationTicks": 120,
          "midi": 85,
          "name": "C#6",
          "ticks": 190704,
          "time": 135.443046375,
          "velocity": 0.30708661417322836
        },
        {
          "duration": 0.0852271875000099,
          "durationTicks": 120,
          "midi": 46,
          "name": "A#2",
          "ticks": 190704,
          "time": 135.443046375,
          "velocity": 0.30708661417322836
        },
        {
          "duration": 0.0852271875000099,
          "durationTicks": 120,
          "midi": 94,
          "name": "A#6",
          "ticks": 190728,
          "time": 135.4600918125,
          "velocity": 0.30708661417322836
        },
        {
          "duration": 0.0852271875000099,
          "durationTicks": 120,
          "midi": 85,
          "name": "C#6",
          "ticks": 190728,
          "time": 135.4600918125,
          "velocity": 0.30708661417322836
        },
        {
          "duration": 0.0852271875000099,
          "durationTicks": 120,
          "midi": 82,
          "name": "A#5",
          "ticks": 190728,
          "time": 135.4600918125,
          "velocity": 0.30708661417322836
        },
        {
          "duration": 0.0852271875000099,
          "durationTicks": 120,
          "midi": 61,
          "name": "C#4",
          "ticks": 190728,
          "time": 135.4600918125,
          "velocity": 0.30708661417322836
        },
        {
          "duration": 0.0852271875000099,
          "durationTicks": 120,
          "midi": 77,
          "name": "F5",
          "ticks": 190728,
          "time": 135.4600918125,
          "velocity": 0.30708661417322836
        },
        {
          "duration": 0.0852271875000099,
          "durationTicks": 120,
          "midi": 65,
          "name": "F4",
          "ticks": 190728,
          "time": 135.4600918125,
          "velocity": 0.30708661417322836
        },
        {
          "duration": 0.0852271875000099,
          "durationTicks": 120,
          "midi": 73,
          "name": "C#5",
          "ticks": 190728,
          "time": 135.4600918125,
          "velocity": 0.30708661417322836
        },
        {
          "duration": 0.0852271875000099,
          "durationTicks": 120,
          "midi": 89,
          "name": "F6",
          "ticks": 190728,
          "time": 135.4600918125,
          "velocity": 0.30708661417322836
        },
        {
          "duration": 0.0852271875000099,
          "durationTicks": 120,
          "midi": 46,
          "name": "A#2",
          "ticks": 190728,
          "time": 135.4600918125,
          "velocity": 0.30708661417322836
        },
        {
          "duration": 0.0852271875000099,
          "durationTicks": 120,
          "midi": 70,
          "name": "A#4",
          "ticks": 190728,
          "time": 135.4600918125,
          "velocity": 0.30708661417322836
        },
        {
          "duration": 0.0852271875000099,
          "durationTicks": 120,
          "midi": 46,
          "name": "A#2",
          "ticks": 190728,
          "time": 135.4600918125,
          "velocity": 0.30708661417322836
        },
        {
          "duration": 0.08522718749998148,
          "durationTicks": 120,
          "midi": 85,
          "name": "C#6",
          "ticks": 190824,
          "time": 135.5282735625,
          "velocity": 0.30708661417322836
        },
        {
          "duration": 0.08522718749998148,
          "durationTicks": 120,
          "midi": 94,
          "name": "A#6",
          "ticks": 190824,
          "time": 135.5282735625,
          "velocity": 0.30708661417322836
        },
        {
          "duration": 0.08522718749998148,
          "durationTicks": 120,
          "midi": 61,
          "name": "C#4",
          "ticks": 190824,
          "time": 135.5282735625,
          "velocity": 0.30708661417322836
        },
        {
          "duration": 0.08522718749998148,
          "durationTicks": 120,
          "midi": 70,
          "name": "A#4",
          "ticks": 190824,
          "time": 135.5282735625,
          "velocity": 0.30708661417322836
        },
        {
          "duration": 0.08522718749998148,
          "durationTicks": 120,
          "midi": 94,
          "name": "A#6",
          "ticks": 190824,
          "time": 135.5282735625,
          "velocity": 0.30708661417322836
        },
        {
          "duration": 0.08522718749998148,
          "durationTicks": 120,
          "midi": 77,
          "name": "F5",
          "ticks": 190824,
          "time": 135.5282735625,
          "velocity": 0.30708661417322836
        },
        {
          "duration": 0.08522718749998148,
          "durationTicks": 120,
          "midi": 65,
          "name": "F4",
          "ticks": 190824,
          "time": 135.5282735625,
          "velocity": 0.30708661417322836
        },
        {
          "duration": 0.08522718749998148,
          "durationTicks": 120,
          "midi": 89,
          "name": "F6",
          "ticks": 190824,
          "time": 135.5282735625,
          "velocity": 0.30708661417322836
        },
        {
          "duration": 0.08522718749998148,
          "durationTicks": 120,
          "midi": 73,
          "name": "C#5",
          "ticks": 190824,
          "time": 135.5282735625,
          "velocity": 0.30708661417322836
        },
        {
          "duration": 0.08522718749998148,
          "durationTicks": 120,
          "midi": 70,
          "name": "A#4",
          "ticks": 190824,
          "time": 135.5282735625,
          "velocity": 0.30708661417322836
        },
        {
          "duration": 0.08522718749998148,
          "durationTicks": 120,
          "midi": 85,
          "name": "C#6",
          "ticks": 190824,
          "time": 135.5282735625,
          "velocity": 0.30708661417322836
        },
        {
          "duration": 0.08522718749998148,
          "durationTicks": 120,
          "midi": 73,
          "name": "C#5",
          "ticks": 190824,
          "time": 135.5282735625,
          "velocity": 0.30708661417322836
        },
        {
          "duration": 0.08522718749998148,
          "durationTicks": 120,
          "midi": 82,
          "name": "A#5",
          "ticks": 190824,
          "time": 135.5282735625,
          "velocity": 0.30708661417322836
        },
        {
          "duration": 0.08522718749998148,
          "durationTicks": 120,
          "midi": 82,
          "name": "A#5",
          "ticks": 190824,
          "time": 135.5282735625,
          "velocity": 0.30708661417322836
        },
        {
          "duration": 0.08522718749998148,
          "durationTicks": 120,
          "midi": 89,
          "name": "F6",
          "ticks": 190824,
          "time": 135.5282735625,
          "velocity": 0.30708661417322836
        },
        {
          "duration": 0.08522718749998148,
          "durationTicks": 120,
          "midi": 77,
          "name": "F5",
          "ticks": 190824,
          "time": 135.5282735625,
          "velocity": 0.30708661417322836
        },
        {
          "duration": 0.08522718749998148,
          "durationTicks": 120,
          "midi": 65,
          "name": "F4",
          "ticks": 190824,
          "time": 135.5282735625,
          "velocity": 0.30708661417322836
        },
        {
          "duration": 0.08522718749998148,
          "durationTicks": 120,
          "midi": 61,
          "name": "C#4",
          "ticks": 190824,
          "time": 135.5282735625,
          "velocity": 0.30708661417322836
        },
        {
          "duration": 0.08522718749998148,
          "durationTicks": 120,
          "midi": 70,
          "name": "A#4",
          "ticks": 190848,
          "time": 135.545319,
          "velocity": 0.30708661417322836
        },
        {
          "duration": 0.08522718749998148,
          "durationTicks": 120,
          "midi": 89,
          "name": "F6",
          "ticks": 190848,
          "time": 135.545319,
          "velocity": 0.30708661417322836
        },
        {
          "duration": 0.08522718749998148,
          "durationTicks": 120,
          "midi": 82,
          "name": "A#5",
          "ticks": 190848,
          "time": 135.545319,
          "velocity": 0.30708661417322836
        },
        {
          "duration": 0.08522718749998148,
          "durationTicks": 120,
          "midi": 77,
          "name": "F5",
          "ticks": 190848,
          "time": 135.545319,
          "velocity": 0.30708661417322836
        },
        {
          "duration": 0.08522718749998148,
          "durationTicks": 120,
          "midi": 65,
          "name": "F4",
          "ticks": 190848,
          "time": 135.545319,
          "velocity": 0.30708661417322836
        },
        {
          "duration": 0.08522718749998148,
          "durationTicks": 120,
          "midi": 73,
          "name": "C#5",
          "ticks": 190848,
          "time": 135.545319,
          "velocity": 0.30708661417322836
        },
        {
          "duration": 0.08522718749998148,
          "durationTicks": 120,
          "midi": 94,
          "name": "A#6",
          "ticks": 190848,
          "time": 135.545319,
          "velocity": 0.30708661417322836
        },
        {
          "duration": 0.08522718749998148,
          "durationTicks": 120,
          "midi": 85,
          "name": "C#6",
          "ticks": 190848,
          "time": 135.545319,
          "velocity": 0.30708661417322836
        },
        {
          "duration": 0.08522718749998148,
          "durationTicks": 120,
          "midi": 61,
          "name": "C#4",
          "ticks": 190848,
          "time": 135.545319,
          "velocity": 0.30708661417322836
        },
        {
          "duration": 0.0852271875000099,
          "durationTicks": 120,
          "midi": 61,
          "name": "C#4",
          "ticks": 190944,
          "time": 135.61350075,
          "velocity": 0.30708661417322836
        },
        {
          "duration": 0.0852271875000099,
          "durationTicks": 120,
          "midi": 82,
          "name": "A#5",
          "ticks": 190944,
          "time": 135.61350075,
          "velocity": 0.30708661417322836
        },
        {
          "duration": 0.0852271875000099,
          "durationTicks": 120,
          "midi": 53,
          "name": "F3",
          "ticks": 190944,
          "time": 135.61350075,
          "velocity": 0.30708661417322836
        },
        {
          "duration": 0.0852271875000099,
          "durationTicks": 120,
          "midi": 61,
          "name": "C#4",
          "ticks": 190944,
          "time": 135.61350075,
          "velocity": 0.30708661417322836
        },
        {
          "duration": 0.0852271875000099,
          "durationTicks": 120,
          "midi": 49,
          "name": "C#3",
          "ticks": 190944,
          "time": 135.61350075,
          "velocity": 0.30708661417322836
        },
        {
          "duration": 0.0852271875000099,
          "durationTicks": 120,
          "midi": 77,
          "name": "F5",
          "ticks": 190944,
          "time": 135.61350075,
          "velocity": 0.30708661417322836
        },
        {
          "duration": 0.0852271875000099,
          "durationTicks": 120,
          "midi": 94,
          "name": "A#6",
          "ticks": 190944,
          "time": 135.61350075,
          "velocity": 0.30708661417322836
        },
        {
          "duration": 0.0852271875000099,
          "durationTicks": 120,
          "midi": 82,
          "name": "A#5",
          "ticks": 190944,
          "time": 135.61350075,
          "velocity": 0.30708661417322836
        },
        {
          "duration": 0.0852271875000099,
          "durationTicks": 120,
          "midi": 49,
          "name": "C#3",
          "ticks": 190944,
          "time": 135.61350075,
          "velocity": 0.30708661417322836
        },
        {
          "duration": 0.0852271875000099,
          "durationTicks": 120,
          "midi": 77,
          "name": "F5",
          "ticks": 190944,
          "time": 135.61350075,
          "velocity": 0.30708661417322836
        },
        {
          "duration": 0.0852271875000099,
          "durationTicks": 120,
          "midi": 70,
          "name": "A#4",
          "ticks": 190944,
          "time": 135.61350075,
          "velocity": 0.30708661417322836
        },
        {
          "duration": 0.0852271875000099,
          "durationTicks": 120,
          "midi": 65,
          "name": "F4",
          "ticks": 190944,
          "time": 135.61350075,
          "velocity": 0.30708661417322836
        },
        {
          "duration": 0.0852271875000099,
          "durationTicks": 120,
          "midi": 94,
          "name": "A#6",
          "ticks": 190944,
          "time": 135.61350075,
          "velocity": 0.30708661417322836
        },
        {
          "duration": 0.0852271875000099,
          "durationTicks": 120,
          "midi": 49,
          "name": "C#3",
          "ticks": 190944,
          "time": 135.61350075,
          "velocity": 0.30708661417322836
        },
        {
          "duration": 0.0852271875000099,
          "durationTicks": 120,
          "midi": 70,
          "name": "A#4",
          "ticks": 190944,
          "time": 135.61350075,
          "velocity": 0.30708661417322836
        },
        {
          "duration": 0.0852271875000099,
          "durationTicks": 120,
          "midi": 89,
          "name": "F6",
          "ticks": 190944,
          "time": 135.61350075,
          "velocity": 0.30708661417322836
        },
        {
          "duration": 0.0852271875000099,
          "durationTicks": 120,
          "midi": 49,
          "name": "C#3",
          "ticks": 190944,
          "time": 135.61350075,
          "velocity": 0.30708661417322836
        },
        {
          "duration": 0.0852271875000099,
          "durationTicks": 120,
          "midi": 53,
          "name": "F3",
          "ticks": 190944,
          "time": 135.61350075,
          "velocity": 0.30708661417322836
        },
        {
          "duration": 0.0852271875000099,
          "durationTicks": 120,
          "midi": 65,
          "name": "F4",
          "ticks": 190944,
          "time": 135.61350075,
          "velocity": 0.30708661417322836
        },
        {
          "duration": 0.0852271875000099,
          "durationTicks": 120,
          "midi": 73,
          "name": "C#5",
          "ticks": 190944,
          "time": 135.61350075,
          "velocity": 0.30708661417322836
        },
        {
          "duration": 0.0852271875000099,
          "durationTicks": 120,
          "midi": 89,
          "name": "F6",
          "ticks": 190944,
          "time": 135.61350075,
          "velocity": 0.30708661417322836
        },
        {
          "duration": 0.0852271875000099,
          "durationTicks": 120,
          "midi": 73,
          "name": "C#5",
          "ticks": 190944,
          "time": 135.61350075,
          "velocity": 0.30708661417322836
        },
        {
          "duration": 0.0852271875000099,
          "durationTicks": 120,
          "midi": 53,
          "name": "F3",
          "ticks": 190944,
          "time": 135.61350075,
          "velocity": 0.30708661417322836
        },
        {
          "duration": 0.0852271875000099,
          "durationTicks": 120,
          "midi": 85,
          "name": "C#6",
          "ticks": 190944,
          "time": 135.61350075,
          "velocity": 0.30708661417322836
        },
        {
          "duration": 0.0852271875000099,
          "durationTicks": 120,
          "midi": 53,
          "name": "F3",
          "ticks": 190944,
          "time": 135.61350075,
          "velocity": 0.30708661417322836
        },
        {
          "duration": 0.0852271875000099,
          "durationTicks": 120,
          "midi": 85,
          "name": "C#6",
          "ticks": 190944,
          "time": 135.61350075,
          "velocity": 0.30708661417322836
        },
        {
          "duration": 0.0852271875000099,
          "durationTicks": 120,
          "midi": 73,
          "name": "C#5",
          "ticks": 190968,
          "time": 135.6305461875,
          "velocity": 0.30708661417322836
        },
        {
          "duration": 0.0852271875000099,
          "durationTicks": 120,
          "midi": 77,
          "name": "F5",
          "ticks": 190968,
          "time": 135.6305461875,
          "velocity": 0.30708661417322836
        },
        {
          "duration": 0.0852271875000099,
          "durationTicks": 120,
          "midi": 82,
          "name": "A#5",
          "ticks": 190968,
          "time": 135.6305461875,
          "velocity": 0.30708661417322836
        },
        {
          "duration": 0.0852271875000099,
          "durationTicks": 120,
          "midi": 89,
          "name": "F6",
          "ticks": 190968,
          "time": 135.6305461875,
          "velocity": 0.30708661417322836
        },
        {
          "duration": 0.0852271875000099,
          "durationTicks": 120,
          "midi": 49,
          "name": "C#3",
          "ticks": 190968,
          "time": 135.6305461875,
          "velocity": 0.30708661417322836
        },
        {
          "duration": 0.0852271875000099,
          "durationTicks": 120,
          "midi": 65,
          "name": "F4",
          "ticks": 190968,
          "time": 135.6305461875,
          "velocity": 0.30708661417322836
        },
        {
          "duration": 0.0852271875000099,
          "durationTicks": 120,
          "midi": 53,
          "name": "F3",
          "ticks": 190968,
          "time": 135.6305461875,
          "velocity": 0.30708661417322836
        },
        {
          "duration": 0.0852271875000099,
          "durationTicks": 120,
          "midi": 70,
          "name": "A#4",
          "ticks": 190968,
          "time": 135.6305461875,
          "velocity": 0.30708661417322836
        },
        {
          "duration": 0.0852271875000099,
          "durationTicks": 120,
          "midi": 94,
          "name": "A#6",
          "ticks": 190968,
          "time": 135.6305461875,
          "velocity": 0.30708661417322836
        },
        {
          "duration": 0.0852271875000099,
          "durationTicks": 120,
          "midi": 85,
          "name": "C#6",
          "ticks": 190968,
          "time": 135.6305461875,
          "velocity": 0.30708661417322836
        },
        {
          "duration": 0.0852271875000099,
          "durationTicks": 120,
          "midi": 61,
          "name": "C#4",
          "ticks": 190968,
          "time": 135.6305461875,
          "velocity": 0.30708661417322836
        },
        {
          "duration": 0.0852271875000099,
          "durationTicks": 120,
          "midi": 49,
          "name": "C#3",
          "ticks": 190968,
          "time": 135.6305461875,
          "velocity": 0.30708661417322836
        },
        {
          "duration": 0.0852271875000099,
          "durationTicks": 120,
          "midi": 53,
          "name": "F3",
          "ticks": 190968,
          "time": 135.6305461875,
          "velocity": 0.30708661417322836
        },
        {
          "duration": 0.0852271875000099,
          "durationTicks": 120,
          "midi": 61,
          "name": "C#4",
          "ticks": 191064,
          "time": 135.6987279375,
          "velocity": 0.30708661417322836
        },
        {
          "duration": 0.0852271875000099,
          "durationTicks": 120,
          "midi": 77,
          "name": "F5",
          "ticks": 191064,
          "time": 135.6987279375,
          "velocity": 0.30708661417322836
        },
        {
          "duration": 0.0852271875000099,
          "durationTicks": 120,
          "midi": 73,
          "name": "C#5",
          "ticks": 191064,
          "time": 135.6987279375,
          "velocity": 0.30708661417322836
        },
        {
          "duration": 0.0852271875000099,
          "durationTicks": 120,
          "midi": 61,
          "name": "C#4",
          "ticks": 191064,
          "time": 135.6987279375,
          "velocity": 0.30708661417322836
        },
        {
          "duration": 0.0852271875000099,
          "durationTicks": 120,
          "midi": 65,
          "name": "F4",
          "ticks": 191064,
          "time": 135.6987279375,
          "velocity": 0.30708661417322836
        },
        {
          "duration": 0.0852271875000099,
          "durationTicks": 120,
          "midi": 82,
          "name": "A#5",
          "ticks": 191064,
          "time": 135.6987279375,
          "velocity": 0.30708661417322836
        },
        {
          "duration": 0.0852271875000099,
          "durationTicks": 120,
          "midi": 89,
          "name": "F6",
          "ticks": 191064,
          "time": 135.6987279375,
          "velocity": 0.30708661417322836
        },
        {
          "duration": 0.0852271875000099,
          "durationTicks": 120,
          "midi": 82,
          "name": "A#5",
          "ticks": 191064,
          "time": 135.6987279375,
          "velocity": 0.30708661417322836
        },
        {
          "duration": 0.0852271875000099,
          "durationTicks": 120,
          "midi": 77,
          "name": "F5",
          "ticks": 191064,
          "time": 135.6987279375,
          "velocity": 0.30708661417322836
        },
        {
          "duration": 0.0852271875000099,
          "durationTicks": 120,
          "midi": 94,
          "name": "A#6",
          "ticks": 191064,
          "time": 135.6987279375,
          "velocity": 0.30708661417322836
        },
        {
          "duration": 0.0852271875000099,
          "durationTicks": 120,
          "midi": 85,
          "name": "C#6",
          "ticks": 191064,
          "time": 135.6987279375,
          "velocity": 0.30708661417322836
        },
        {
          "duration": 0.0852271875000099,
          "durationTicks": 120,
          "midi": 65,
          "name": "F4",
          "ticks": 191064,
          "time": 135.6987279375,
          "velocity": 0.30708661417322836
        },
        {
          "duration": 0.0852271875000099,
          "durationTicks": 120,
          "midi": 89,
          "name": "F6",
          "ticks": 191064,
          "time": 135.6987279375,
          "velocity": 0.30708661417322836
        },
        {
          "duration": 0.0852271875000099,
          "durationTicks": 120,
          "midi": 94,
          "name": "A#6",
          "ticks": 191064,
          "time": 135.6987279375,
          "velocity": 0.30708661417322836
        },
        {
          "duration": 0.0852271875000099,
          "durationTicks": 120,
          "midi": 70,
          "name": "A#4",
          "ticks": 191064,
          "time": 135.6987279375,
          "velocity": 0.30708661417322836
        },
        {
          "duration": 0.0852271875000099,
          "durationTicks": 120,
          "midi": 85,
          "name": "C#6",
          "ticks": 191064,
          "time": 135.6987279375,
          "velocity": 0.30708661417322836
        },
        {
          "duration": 0.0852271875000099,
          "durationTicks": 120,
          "midi": 70,
          "name": "A#4",
          "ticks": 191064,
          "time": 135.6987279375,
          "velocity": 0.30708661417322836
        },
        {
          "duration": 0.0852271875000099,
          "durationTicks": 120,
          "midi": 73,
          "name": "C#5",
          "ticks": 191064,
          "time": 135.6987279375,
          "velocity": 0.30708661417322836
        },
        {
          "duration": 0.0852271875000099,
          "durationTicks": 120,
          "midi": 77,
          "name": "F5",
          "ticks": 191088,
          "time": 135.715773375,
          "velocity": 0.30708661417322836
        },
        {
          "duration": 0.0852271875000099,
          "durationTicks": 120,
          "midi": 65,
          "name": "F4",
          "ticks": 191088,
          "time": 135.715773375,
          "velocity": 0.30708661417322836
        },
        {
          "duration": 0.0852271875000099,
          "durationTicks": 120,
          "midi": 94,
          "name": "A#6",
          "ticks": 191088,
          "time": 135.715773375,
          "velocity": 0.30708661417322836
        },
        {
          "duration": 0.0852271875000099,
          "durationTicks": 120,
          "midi": 70,
          "name": "A#4",
          "ticks": 191088,
          "time": 135.715773375,
          "velocity": 0.30708661417322836
        },
        {
          "duration": 0.0852271875000099,
          "durationTicks": 120,
          "midi": 82,
          "name": "A#5",
          "ticks": 191088,
          "time": 135.715773375,
          "velocity": 0.30708661417322836
        },
        {
          "duration": 0.0852271875000099,
          "durationTicks": 120,
          "midi": 73,
          "name": "C#5",
          "ticks": 191088,
          "time": 135.715773375,
          "velocity": 0.30708661417322836
        },
        {
          "duration": 0.0852271875000099,
          "durationTicks": 120,
          "midi": 85,
          "name": "C#6",
          "ticks": 191088,
          "time": 135.715773375,
          "velocity": 0.30708661417322836
        },
        {
          "duration": 0.0852271875000099,
          "durationTicks": 120,
          "midi": 61,
          "name": "C#4",
          "ticks": 191088,
          "time": 135.715773375,
          "velocity": 0.30708661417322836
        },
        {
          "duration": 0.0852271875000099,
          "durationTicks": 120,
          "midi": 89,
          "name": "F6",
          "ticks": 191088,
          "time": 135.715773375,
          "velocity": 0.30708661417322836
        },
        {
          "duration": 0.08522718749998148,
          "durationTicks": 120,
          "midi": 41,
          "name": "F2",
          "ticks": 191184,
          "time": 135.783955125,
          "velocity": 0.30708661417322836
        },
        {
          "duration": 0.08522718749998148,
          "durationTicks": 120,
          "midi": 70,
          "name": "A#4",
          "ticks": 191184,
          "time": 135.783955125,
          "velocity": 0.30708661417322836
        },
        {
          "duration": 0.08522718749998148,
          "durationTicks": 120,
          "midi": 61,
          "name": "C#4",
          "ticks": 191184,
          "time": 135.783955125,
          "velocity": 0.30708661417322836
        },
        {
          "duration": 0.08522718749998148,
          "durationTicks": 120,
          "midi": 82,
          "name": "A#5",
          "ticks": 191184,
          "time": 135.783955125,
          "velocity": 0.30708661417322836
        },
        {
          "duration": 0.08522718749998148,
          "durationTicks": 120,
          "midi": 41,
          "name": "F2",
          "ticks": 191184,
          "time": 135.783955125,
          "velocity": 0.30708661417322836
        },
        {
          "duration": 0.08522718749998148,
          "durationTicks": 120,
          "midi": 77,
          "name": "F5",
          "ticks": 191184,
          "time": 135.783955125,
          "velocity": 0.30708661417322836
        },
        {
          "duration": 0.08522718749998148,
          "durationTicks": 120,
          "midi": 70,
          "name": "A#4",
          "ticks": 191184,
          "time": 135.783955125,
          "velocity": 0.30708661417322836
        },
        {
          "duration": 0.08522718749998148,
          "durationTicks": 120,
          "midi": 41,
          "name": "F2",
          "ticks": 191184,
          "time": 135.783955125,
          "velocity": 0.30708661417322836
        },
        {
          "duration": 0.08522718749998148,
          "durationTicks": 120,
          "midi": 41,
          "name": "F2",
          "ticks": 191184,
          "time": 135.783955125,
          "velocity": 0.30708661417322836
        },
        {
          "duration": 0.08522718749998148,
          "durationTicks": 120,
          "midi": 65,
          "name": "F4",
          "ticks": 191184,
          "time": 135.783955125,
          "velocity": 0.30708661417322836
        },
        {
          "duration": 0.08522718749998148,
          "durationTicks": 120,
          "midi": 82,
          "name": "A#5",
          "ticks": 191184,
          "time": 135.783955125,
          "velocity": 0.30708661417322836
        },
        {
          "duration": 0.08522718749998148,
          "durationTicks": 120,
          "midi": 61,
          "name": "C#4",
          "ticks": 191184,
          "time": 135.783955125,
          "velocity": 0.30708661417322836
        },
        {
          "duration": 0.08522718749998148,
          "durationTicks": 120,
          "midi": 89,
          "name": "F6",
          "ticks": 191184,
          "time": 135.783955125,
          "velocity": 0.30708661417322836
        },
        {
          "duration": 0.08522718749998148,
          "durationTicks": 120,
          "midi": 77,
          "name": "F5",
          "ticks": 191184,
          "time": 135.783955125,
          "velocity": 0.30708661417322836
        },
        {
          "duration": 0.08522718749998148,
          "durationTicks": 120,
          "midi": 94,
          "name": "A#6",
          "ticks": 191184,
          "time": 135.783955125,
          "velocity": 0.30708661417322836
        },
        {
          "duration": 0.08522718749998148,
          "durationTicks": 120,
          "midi": 85,
          "name": "C#6",
          "ticks": 191184,
          "time": 135.783955125,
          "velocity": 0.30708661417322836
        },
        {
          "duration": 0.08522718749998148,
          "durationTicks": 120,
          "midi": 73,
          "name": "C#5",
          "ticks": 191184,
          "time": 135.783955125,
          "velocity": 0.30708661417322836
        },
        {
          "duration": 0.08522718749998148,
          "durationTicks": 120,
          "midi": 73,
          "name": "C#5",
          "ticks": 191184,
          "time": 135.783955125,
          "velocity": 0.30708661417322836
        },
        {
          "duration": 0.08522718749998148,
          "durationTicks": 120,
          "midi": 89,
          "name": "F6",
          "ticks": 191184,
          "time": 135.783955125,
          "velocity": 0.30708661417322836
        },
        {
          "duration": 0.08522718749998148,
          "durationTicks": 120,
          "midi": 65,
          "name": "F4",
          "ticks": 191184,
          "time": 135.783955125,
          "velocity": 0.30708661417322836
        },
        {
          "duration": 0.08522718749998148,
          "durationTicks": 120,
          "midi": 85,
          "name": "C#6",
          "ticks": 191184,
          "time": 135.783955125,
          "velocity": 0.30708661417322836
        },
        {
          "duration": 0.08522718749998148,
          "durationTicks": 120,
          "midi": 94,
          "name": "A#6",
          "ticks": 191184,
          "time": 135.783955125,
          "velocity": 0.30708661417322836
        },
        {
          "duration": 0.08522718749998148,
          "durationTicks": 120,
          "midi": 85,
          "name": "C#6",
          "ticks": 191208,
          "time": 135.8010005625,
          "velocity": 0.30708661417322836
        },
        {
          "duration": 0.08522718749998148,
          "durationTicks": 120,
          "midi": 61,
          "name": "C#4",
          "ticks": 191208,
          "time": 135.8010005625,
          "velocity": 0.30708661417322836
        },
        {
          "duration": 0.08522718749998148,
          "durationTicks": 120,
          "midi": 70,
          "name": "A#4",
          "ticks": 191208,
          "time": 135.8010005625,
          "velocity": 0.30708661417322836
        },
        {
          "duration": 0.08522718749998148,
          "durationTicks": 120,
          "midi": 82,
          "name": "A#5",
          "ticks": 191208,
          "time": 135.8010005625,
          "velocity": 0.30708661417322836
        },
        {
          "duration": 0.08522718749998148,
          "durationTicks": 120,
          "midi": 77,
          "name": "F5",
          "ticks": 191208,
          "time": 135.8010005625,
          "velocity": 0.30708661417322836
        },
        {
          "duration": 0.08522718749998148,
          "durationTicks": 120,
          "midi": 41,
          "name": "F2",
          "ticks": 191208,
          "time": 135.8010005625,
          "velocity": 0.30708661417322836
        },
        {
          "duration": 0.08522718749998148,
          "durationTicks": 120,
          "midi": 89,
          "name": "F6",
          "ticks": 191208,
          "time": 135.8010005625,
          "velocity": 0.30708661417322836
        },
        {
          "duration": 0.08522718749998148,
          "durationTicks": 120,
          "midi": 41,
          "name": "F2",
          "ticks": 191208,
          "time": 135.8010005625,
          "velocity": 0.30708661417322836
        },
        {
          "duration": 0.08522718749998148,
          "durationTicks": 120,
          "midi": 94,
          "name": "A#6",
          "ticks": 191208,
          "time": 135.8010005625,
          "velocity": 0.30708661417322836
        },
        {
          "duration": 0.08522718749998148,
          "durationTicks": 120,
          "midi": 73,
          "name": "C#5",
          "ticks": 191208,
          "time": 135.8010005625,
          "velocity": 0.30708661417322836
        },
        {
          "duration": 0.08522718749998148,
          "durationTicks": 120,
          "midi": 65,
          "name": "F4",
          "ticks": 191208,
          "time": 135.8010005625,
          "velocity": 0.30708661417322836
        },
        {
          "duration": 0.0852271875000099,
          "durationTicks": 120,
          "midi": 72,
          "name": "C5",
          "ticks": 191304,
          "time": 135.8691823125,
          "velocity": 0.30708661417322836
        },
        {
          "duration": 0.0852271875000099,
          "durationTicks": 120,
          "midi": 84,
          "name": "C6",
          "ticks": 191304,
          "time": 135.8691823125,
          "velocity": 0.30708661417322836
        },
        {
          "duration": 0.0852271875000099,
          "durationTicks": 120,
          "midi": 65,
          "name": "F4",
          "ticks": 191304,
          "time": 135.8691823125,
          "velocity": 0.30708661417322836
        },
        {
          "duration": 0.0852271875000099,
          "durationTicks": 120,
          "midi": 60,
          "name": "C4",
          "ticks": 191304,
          "time": 135.8691823125,
          "velocity": 0.30708661417322836
        },
        {
          "duration": 0.0852271875000099,
          "durationTicks": 120,
          "midi": 72,
          "name": "C5",
          "ticks": 191304,
          "time": 135.8691823125,
          "velocity": 0.30708661417322836
        },
        {
          "duration": 0.0852271875000099,
          "durationTicks": 120,
          "midi": 72,
          "name": "C5",
          "ticks": 191304,
          "time": 135.8691823125,
          "velocity": 0.30708661417322836
        },
        {
          "duration": 0.0852271875000099,
          "durationTicks": 120,
          "midi": 77,
          "name": "F5",
          "ticks": 191304,
          "time": 135.8691823125,
          "velocity": 0.30708661417322836
        },
        {
          "duration": 0.0852271875000099,
          "durationTicks": 120,
          "midi": 60,
          "name": "C4",
          "ticks": 191304,
          "time": 135.8691823125,
          "velocity": 0.30708661417322836
        },
        {
          "duration": 0.0852271875000099,
          "durationTicks": 120,
          "midi": 65,
          "name": "F4",
          "ticks": 191304,
          "time": 135.8691823125,
          "velocity": 0.30708661417322836
        },
        {
          "duration": 0.0852271875000099,
          "durationTicks": 120,
          "midi": 77,
          "name": "F5",
          "ticks": 191304,
          "time": 135.8691823125,
          "velocity": 0.30708661417322836
        },
        {
          "duration": 0.0852271875000099,
          "durationTicks": 120,
          "midi": 72,
          "name": "C5",
          "ticks": 191304,
          "time": 135.8691823125,
          "velocity": 0.30708661417322836
        },
        {
          "duration": 0.0852271875000099,
          "durationTicks": 120,
          "midi": 89,
          "name": "F6",
          "ticks": 191304,
          "time": 135.8691823125,
          "velocity": 0.30708661417322836
        },
        {
          "duration": 0.0852271875000099,
          "durationTicks": 120,
          "midi": 89,
          "name": "F6",
          "ticks": 191304,
          "time": 135.8691823125,
          "velocity": 0.30708661417322836
        },
        {
          "duration": 0.0852271875000099,
          "durationTicks": 120,
          "midi": 77,
          "name": "F5",
          "ticks": 191304,
          "time": 135.8691823125,
          "velocity": 0.30708661417322836
        },
        {
          "duration": 0.0852271875000099,
          "durationTicks": 120,
          "midi": 77,
          "name": "F5",
          "ticks": 191304,
          "time": 135.8691823125,
          "velocity": 0.30708661417322836
        },
        {
          "duration": 0.0852271875000099,
          "durationTicks": 120,
          "midi": 84,
          "name": "C6",
          "ticks": 191304,
          "time": 135.8691823125,
          "velocity": 0.30708661417322836
        },
        {
          "duration": 0.0852271875000099,
          "durationTicks": 120,
          "midi": 60,
          "name": "C4",
          "ticks": 191328,
          "time": 135.88622775,
          "velocity": 0.30708661417322836
        },
        {
          "duration": 0.0852271875000099,
          "durationTicks": 120,
          "midi": 84,
          "name": "C6",
          "ticks": 191328,
          "time": 135.88622775,
          "velocity": 0.30708661417322836
        },
        {
          "duration": 0.0852271875000099,
          "durationTicks": 120,
          "midi": 65,
          "name": "F4",
          "ticks": 191328,
          "time": 135.88622775,
          "velocity": 0.30708661417322836
        },
        {
          "duration": 0.0852271875000099,
          "durationTicks": 120,
          "midi": 72,
          "name": "C5",
          "ticks": 191328,
          "time": 135.88622775,
          "velocity": 0.30708661417322836
        },
        {
          "duration": 0.0852271875000099,
          "durationTicks": 120,
          "midi": 77,
          "name": "F5",
          "ticks": 191328,
          "time": 135.88622775,
          "velocity": 0.30708661417322836
        },
        {
          "duration": 0.0852271875000099,
          "durationTicks": 120,
          "midi": 89,
          "name": "F6",
          "ticks": 191328,
          "time": 135.88622775,
          "velocity": 0.30708661417322836
        },
        {
          "duration": 0.0852271875000099,
          "durationTicks": 120,
          "midi": 72,
          "name": "C5",
          "ticks": 191328,
          "time": 135.88622775,
          "velocity": 0.30708661417322836
        },
        {
          "duration": 0.0852271875000099,
          "durationTicks": 120,
          "midi": 77,
          "name": "F5",
          "ticks": 191328,
          "time": 135.88622775,
          "velocity": 0.30708661417322836
        },
        {
          "duration": 0.0852271875000099,
          "durationTicks": 120,
          "midi": 70,
          "name": "A#4",
          "ticks": 191424,
          "time": 135.9544095,
          "velocity": 0.30708661417322836
        },
        {
          "duration": 0.0852271875000099,
          "durationTicks": 120,
          "midi": 53,
          "name": "F3",
          "ticks": 191424,
          "time": 135.9544095,
          "velocity": 0.30708661417322836
        },
        {
          "duration": 0.0852271875000099,
          "durationTicks": 120,
          "midi": 63,
          "name": "D#4",
          "ticks": 191424,
          "time": 135.9544095,
          "velocity": 0.30708661417322836
        },
        {
          "duration": 0.0852271875000099,
          "durationTicks": 120,
          "midi": 53,
          "name": "F3",
          "ticks": 191424,
          "time": 135.9544095,
          "velocity": 0.30708661417322836
        },
        {
          "duration": 0.0852271875000099,
          "durationTicks": 120,
          "midi": 70,
          "name": "A#4",
          "ticks": 191424,
          "time": 135.9544095,
          "velocity": 0.30708661417322836
        },
        {
          "duration": 0.0852271875000099,
          "durationTicks": 120,
          "midi": 58,
          "name": "A#3",
          "ticks": 191424,
          "time": 135.9544095,
          "velocity": 0.30708661417322836
        },
        {
          "duration": 0.0852271875000099,
          "durationTicks": 120,
          "midi": 53,
          "name": "F3",
          "ticks": 191424,
          "time": 135.9544095,
          "velocity": 0.30708661417322836
        },
        {
          "duration": 0.0852271875000099,
          "durationTicks": 120,
          "midi": 75,
          "name": "D#5",
          "ticks": 191424,
          "time": 135.9544095,
          "velocity": 0.30708661417322836
        },
        {
          "duration": 0.0852271875000099,
          "durationTicks": 120,
          "midi": 70,
          "name": "A#4",
          "ticks": 191424,
          "time": 135.9544095,
          "velocity": 0.30708661417322836
        },
        {
          "duration": 0.0852271875000099,
          "durationTicks": 120,
          "midi": 82,
          "name": "A#5",
          "ticks": 191424,
          "time": 135.9544095,
          "velocity": 0.30708661417322836
        },
        {
          "duration": 0.0852271875000099,
          "durationTicks": 120,
          "midi": 49,
          "name": "C#3",
          "ticks": 191424,
          "time": 135.9544095,
          "velocity": 0.30708661417322836
        },
        {
          "duration": 0.0852271875000099,
          "durationTicks": 120,
          "midi": 75,
          "name": "D#5",
          "ticks": 191424,
          "time": 135.9544095,
          "velocity": 0.30708661417322836
        },
        {
          "duration": 0.0852271875000099,
          "durationTicks": 120,
          "midi": 75,
          "name": "D#5",
          "ticks": 191424,
          "time": 135.9544095,
          "velocity": 0.30708661417322836
        },
        {
          "duration": 0.0852271875000099,
          "durationTicks": 120,
          "midi": 53,
          "name": "F3",
          "ticks": 191424,
          "time": 135.9544095,
          "velocity": 0.30708661417322836
        },
        {
          "duration": 0.0852271875000099,
          "durationTicks": 120,
          "midi": 87,
          "name": "D#6",
          "ticks": 191424,
          "time": 135.9544095,
          "velocity": 0.30708661417322836
        },
        {
          "duration": 0.0852271875000099,
          "durationTicks": 120,
          "midi": 63,
          "name": "D#4",
          "ticks": 191424,
          "time": 135.9544095,
          "velocity": 0.30708661417322836
        },
        {
          "duration": 0.0852271875000099,
          "durationTicks": 120,
          "midi": 87,
          "name": "D#6",
          "ticks": 191424,
          "time": 135.9544095,
          "velocity": 0.30708661417322836
        },
        {
          "duration": 0.0852271875000099,
          "durationTicks": 120,
          "midi": 49,
          "name": "C#3",
          "ticks": 191424,
          "time": 135.9544095,
          "velocity": 0.30708661417322836
        },
        {
          "duration": 0.0852271875000099,
          "durationTicks": 120,
          "midi": 70,
          "name": "A#4",
          "ticks": 191424,
          "time": 135.9544095,
          "velocity": 0.30708661417322836
        },
        {
          "duration": 0.0852271875000099,
          "durationTicks": 120,
          "midi": 49,
          "name": "C#3",
          "ticks": 191424,
          "time": 135.9544095,
          "velocity": 0.30708661417322836
        },
        {
          "duration": 0.0852271875000099,
          "durationTicks": 120,
          "midi": 58,
          "name": "A#3",
          "ticks": 191424,
          "time": 135.9544095,
          "velocity": 0.30708661417322836
        },
        {
          "duration": 0.0852271875000099,
          "durationTicks": 120,
          "midi": 49,
          "name": "C#3",
          "ticks": 191424,
          "time": 135.9544095,
          "velocity": 0.30708661417322836
        },
        {
          "duration": 0.0852271875000099,
          "durationTicks": 120,
          "midi": 82,
          "name": "A#5",
          "ticks": 191424,
          "time": 135.9544095,
          "velocity": 0.30708661417322836
        },
        {
          "duration": 0.0852271875000099,
          "durationTicks": 120,
          "midi": 75,
          "name": "D#5",
          "ticks": 191424,
          "time": 135.9544095,
          "velocity": 0.30708661417322836
        },
        {
          "duration": 0.0852271875000099,
          "durationTicks": 120,
          "midi": 63,
          "name": "D#4",
          "ticks": 191448,
          "time": 135.9714549375,
          "velocity": 0.30708661417322836
        },
        {
          "duration": 0.0852271875000099,
          "durationTicks": 120,
          "midi": 49,
          "name": "C#3",
          "ticks": 191448,
          "time": 135.9714549375,
          "velocity": 0.30708661417322836
        },
        {
          "duration": 0.0852271875000099,
          "durationTicks": 120,
          "midi": 53,
          "name": "F3",
          "ticks": 191448,
          "time": 135.9714549375,
          "velocity": 0.30708661417322836
        },
        {
          "duration": 0.0852271875000099,
          "durationTicks": 120,
          "midi": 70,
          "name": "A#4",
          "ticks": 191448,
          "time": 135.9714549375,
          "velocity": 0.30708661417322836
        },
        {
          "duration": 0.0852271875000099,
          "durationTicks": 120,
          "midi": 87,
          "name": "D#6",
          "ticks": 191448,
          "time": 135.9714549375,
          "velocity": 0.30708661417322836
        },
        {
          "duration": 0.0852271875000099,
          "durationTicks": 120,
          "midi": 49,
          "name": "C#3",
          "ticks": 191448,
          "time": 135.9714549375,
          "velocity": 0.30708661417322836
        },
        {
          "duration": 0.0852271875000099,
          "durationTicks": 120,
          "midi": 70,
          "name": "A#4",
          "ticks": 191448,
          "time": 135.9714549375,
          "velocity": 0.30708661417322836
        },
        {
          "duration": 0.0852271875000099,
          "durationTicks": 120,
          "midi": 58,
          "name": "A#3",
          "ticks": 191448,
          "time": 135.9714549375,
          "velocity": 0.30708661417322836
        },
        {
          "duration": 0.0852271875000099,
          "durationTicks": 120,
          "midi": 75,
          "name": "D#5",
          "ticks": 191448,
          "time": 135.9714549375,
          "velocity": 0.30708661417322836
        },
        {
          "duration": 0.0852271875000099,
          "durationTicks": 120,
          "midi": 75,
          "name": "D#5",
          "ticks": 191448,
          "time": 135.9714549375,
          "velocity": 0.30708661417322836
        },
        {
          "duration": 0.0852271875000099,
          "durationTicks": 120,
          "midi": 53,
          "name": "F3",
          "ticks": 191448,
          "time": 135.9714549375,
          "velocity": 0.30708661417322836
        },
        {
          "duration": 0.0852271875000099,
          "durationTicks": 120,
          "midi": 82,
          "name": "A#5",
          "ticks": 191448,
          "time": 135.9714549375,
          "velocity": 0.30708661417322836
        },
        {
          "duration": 0.08522718749998148,
          "durationTicks": 120,
          "midi": 78,
          "name": "F#5",
          "ticks": 191544,
          "time": 136.0396366875,
          "velocity": 0.30708661417322836
        },
        {
          "duration": 0.08522718749998148,
          "durationTicks": 120,
          "midi": 73,
          "name": "C#5",
          "ticks": 191544,
          "time": 136.0396366875,
          "velocity": 0.30708661417322836
        },
        {
          "duration": 0.08522718749998148,
          "durationTicks": 120,
          "midi": 90,
          "name": "F#6",
          "ticks": 191544,
          "time": 136.0396366875,
          "velocity": 0.30708661417322836
        },
        {
          "duration": 0.08522718749998148,
          "durationTicks": 120,
          "midi": 78,
          "name": "F#5",
          "ticks": 191544,
          "time": 136.0396366875,
          "velocity": 0.30708661417322836
        },
        {
          "duration": 0.08522718749998148,
          "durationTicks": 120,
          "midi": 73,
          "name": "C#5",
          "ticks": 191544,
          "time": 136.0396366875,
          "velocity": 0.30708661417322836
        },
        {
          "duration": 0.08522718749998148,
          "durationTicks": 120,
          "midi": 78,
          "name": "F#5",
          "ticks": 191544,
          "time": 136.0396366875,
          "velocity": 0.30708661417322836
        },
        {
          "duration": 0.08522718749998148,
          "durationTicks": 120,
          "midi": 90,
          "name": "F#6",
          "ticks": 191544,
          "time": 136.0396366875,
          "velocity": 0.30708661417322836
        },
        {
          "duration": 0.08522718749998148,
          "durationTicks": 120,
          "midi": 78,
          "name": "F#5",
          "ticks": 191544,
          "time": 136.0396366875,
          "velocity": 0.30708661417322836
        },
        {
          "duration": 0.08522718749998148,
          "durationTicks": 120,
          "midi": 61,
          "name": "C#4",
          "ticks": 191544,
          "time": 136.0396366875,
          "velocity": 0.30708661417322836
        },
        {
          "duration": 0.08522718749998148,
          "durationTicks": 120,
          "midi": 85,
          "name": "C#6",
          "ticks": 191544,
          "time": 136.0396366875,
          "velocity": 0.30708661417322836
        },
        {
          "duration": 0.08522718749998148,
          "durationTicks": 120,
          "midi": 61,
          "name": "C#4",
          "ticks": 191544,
          "time": 136.0396366875,
          "velocity": 0.30708661417322836
        },
        {
          "duration": 0.08522718749998148,
          "durationTicks": 120,
          "midi": 66,
          "name": "F#4",
          "ticks": 191544,
          "time": 136.0396366875,
          "velocity": 0.30708661417322836
        },
        {
          "duration": 0.08522718749998148,
          "durationTicks": 120,
          "midi": 85,
          "name": "C#6",
          "ticks": 191544,
          "time": 136.0396366875,
          "velocity": 0.30708661417322836
        },
        {
          "duration": 0.08522718749998148,
          "durationTicks": 120,
          "midi": 73,
          "name": "C#5",
          "ticks": 191544,
          "time": 136.0396366875,
          "velocity": 0.30708661417322836
        },
        {
          "duration": 0.08522718749998148,
          "durationTicks": 120,
          "midi": 73,
          "name": "C#5",
          "ticks": 191544,
          "time": 136.0396366875,
          "velocity": 0.30708661417322836
        },
        {
          "duration": 0.08522718749998148,
          "durationTicks": 120,
          "midi": 66,
          "name": "F#4",
          "ticks": 191544,
          "time": 136.0396366875,
          "velocity": 0.30708661417322836
        },
        {
          "duration": 0.08522718749998148,
          "durationTicks": 120,
          "midi": 78,
          "name": "F#5",
          "ticks": 191568,
          "time": 136.056682125,
          "velocity": 0.30708661417322836
        },
        {
          "duration": 0.08522718749998148,
          "durationTicks": 120,
          "midi": 85,
          "name": "C#6",
          "ticks": 191568,
          "time": 136.056682125,
          "velocity": 0.30708661417322836
        },
        {
          "duration": 0.08522718749998148,
          "durationTicks": 120,
          "midi": 73,
          "name": "C#5",
          "ticks": 191568,
          "time": 136.056682125,
          "velocity": 0.30708661417322836
        },
        {
          "duration": 0.08522718749998148,
          "durationTicks": 120,
          "midi": 78,
          "name": "F#5",
          "ticks": 191568,
          "time": 136.056682125,
          "velocity": 0.30708661417322836
        },
        {
          "duration": 0.08522718749998148,
          "durationTicks": 120,
          "midi": 90,
          "name": "F#6",
          "ticks": 191568,
          "time": 136.056682125,
          "velocity": 0.30708661417322836
        },
        {
          "duration": 0.08522718749998148,
          "durationTicks": 120,
          "midi": 66,
          "name": "F#4",
          "ticks": 191568,
          "time": 136.056682125,
          "velocity": 0.30708661417322836
        },
        {
          "duration": 0.08522718749998148,
          "durationTicks": 120,
          "midi": 61,
          "name": "C#4",
          "ticks": 191568,
          "time": 136.056682125,
          "velocity": 0.30708661417322836
        },
        {
          "duration": 0.08522718749998148,
          "durationTicks": 120,
          "midi": 73,
          "name": "C#5",
          "ticks": 191568,
          "time": 136.056682125,
          "velocity": 0.30708661417322836
        },
        {
          "duration": 0.0852271875000099,
          "durationTicks": 120,
          "midi": 65,
          "name": "F4",
          "ticks": 191664,
          "time": 136.124863875,
          "velocity": 0.30708661417322836
        },
        {
          "duration": 0.0852271875000099,
          "durationTicks": 120,
          "midi": 65,
          "name": "F4",
          "ticks": 191664,
          "time": 136.124863875,
          "velocity": 0.30708661417322836
        },
        {
          "duration": 0.0852271875000099,
          "durationTicks": 120,
          "midi": 89,
          "name": "F6",
          "ticks": 191664,
          "time": 136.124863875,
          "velocity": 0.30708661417322836
        },
        {
          "duration": 0.0852271875000099,
          "durationTicks": 120,
          "midi": 48,
          "name": "C3",
          "ticks": 191664,
          "time": 136.124863875,
          "velocity": 0.30708661417322836
        },
        {
          "duration": 0.0852271875000099,
          "durationTicks": 120,
          "midi": 69,
          "name": "A4",
          "ticks": 191664,
          "time": 136.124863875,
          "velocity": 0.30708661417322836
        },
        {
          "duration": 0.0852271875000099,
          "durationTicks": 120,
          "midi": 89,
          "name": "F6",
          "ticks": 191664,
          "time": 136.124863875,
          "velocity": 0.30708661417322836
        },
        {
          "duration": 0.0852271875000099,
          "durationTicks": 120,
          "midi": 94,
          "name": "A#6",
          "ticks": 191664,
          "time": 136.124863875,
          "velocity": 0.30708661417322836
        },
        {
          "duration": 0.0852271875000099,
          "durationTicks": 120,
          "midi": 81,
          "name": "A5",
          "ticks": 191664,
          "time": 136.124863875,
          "velocity": 0.30708661417322836
        },
        {
          "duration": 0.0852271875000099,
          "durationTicks": 120,
          "midi": 72,
          "name": "C5",
          "ticks": 191664,
          "time": 136.124863875,
          "velocity": 0.30708661417322836
        },
        {
          "duration": 0.0852271875000099,
          "durationTicks": 120,
          "midi": 72,
          "name": "C5",
          "ticks": 191664,
          "time": 136.124863875,
          "velocity": 0.30708661417322836
        },
        {
          "duration": 0.0852271875000099,
          "durationTicks": 120,
          "midi": 84,
          "name": "C6",
          "ticks": 191664,
          "time": 136.124863875,
          "velocity": 0.30708661417322836
        },
        {
          "duration": 0.0852271875000099,
          "durationTicks": 120,
          "midi": 94,
          "name": "A#6",
          "ticks": 191664,
          "time": 136.124863875,
          "velocity": 0.30708661417322836
        },
        {
          "duration": 0.0852271875000099,
          "durationTicks": 120,
          "midi": 84,
          "name": "C6",
          "ticks": 191664,
          "time": 136.124863875,
          "velocity": 0.30708661417322836
        },
        {
          "duration": 0.0852271875000099,
          "durationTicks": 120,
          "midi": 69,
          "name": "A4",
          "ticks": 191664,
          "time": 136.124863875,
          "velocity": 0.30708661417322836
        },
        {
          "duration": 0.0852271875000099,
          "durationTicks": 120,
          "midi": 60,
          "name": "C4",
          "ticks": 191664,
          "time": 136.124863875,
          "velocity": 0.30708661417322836
        },
        {
          "duration": 0.0852271875000099,
          "durationTicks": 120,
          "midi": 77,
          "name": "F5",
          "ticks": 191664,
          "time": 136.124863875,
          "velocity": 0.30708661417322836
        },
        {
          "duration": 0.0852271875000099,
          "durationTicks": 120,
          "midi": 77,
          "name": "F5",
          "ticks": 191664,
          "time": 136.124863875,
          "velocity": 0.30708661417322836
        },
        {
          "duration": 0.0852271875000099,
          "durationTicks": 120,
          "midi": 81,
          "name": "A5",
          "ticks": 191664,
          "time": 136.124863875,
          "velocity": 0.30708661417322836
        },
        {
          "duration": 0.0852271875000099,
          "durationTicks": 120,
          "midi": 60,
          "name": "C4",
          "ticks": 191664,
          "time": 136.124863875,
          "velocity": 0.30708661417322836
        },
        {
          "duration": 0.0852271875000099,
          "durationTicks": 120,
          "midi": 48,
          "name": "C3",
          "ticks": 191664,
          "time": 136.124863875,
          "velocity": 0.30708661417322836
        },
        {
          "duration": 0.0852271875000099,
          "durationTicks": 120,
          "midi": 69,
          "name": "A4",
          "ticks": 191688,
          "time": 136.1419093125,
          "velocity": 0.30708661417322836
        },
        {
          "duration": 0.0852271875000099,
          "durationTicks": 120,
          "midi": 60,
          "name": "C4",
          "ticks": 191688,
          "time": 136.1419093125,
          "velocity": 0.30708661417322836
        },
        {
          "duration": 0.0852271875000099,
          "durationTicks": 120,
          "midi": 81,
          "name": "A5",
          "ticks": 191688,
          "time": 136.1419093125,
          "velocity": 0.30708661417322836
        },
        {
          "duration": 0.0852271875000099,
          "durationTicks": 120,
          "midi": 94,
          "name": "A#6",
          "ticks": 191688,
          "time": 136.1419093125,
          "velocity": 0.30708661417322836
        },
        {
          "duration": 0.0852271875000099,
          "durationTicks": 120,
          "midi": 65,
          "name": "F4",
          "ticks": 191688,
          "time": 136.1419093125,
          "velocity": 0.30708661417322836
        },
        {
          "duration": 0.0852271875000099,
          "durationTicks": 120,
          "midi": 89,
          "name": "F6",
          "ticks": 191688,
          "time": 136.1419093125,
          "velocity": 0.30708661417322836
        },
        {
          "duration": 0.0852271875000099,
          "durationTicks": 120,
          "midi": 48,
          "name": "C3",
          "ticks": 191688,
          "time": 136.1419093125,
          "velocity": 0.30708661417322836
        },
        {
          "duration": 0.0852271875000099,
          "durationTicks": 120,
          "midi": 72,
          "name": "C5",
          "ticks": 191688,
          "time": 136.1419093125,
          "velocity": 0.30708661417322836
        },
        {
          "duration": 0.0852271875000099,
          "durationTicks": 120,
          "midi": 77,
          "name": "F5",
          "ticks": 191688,
          "time": 136.1419093125,
          "velocity": 0.30708661417322836
        },
        {
          "duration": 0.0852271875000099,
          "durationTicks": 120,
          "midi": 84,
          "name": "C6",
          "ticks": 191688,
          "time": 136.1419093125,
          "velocity": 0.30708661417322836
        },
        {
          "duration": 0.0852271875000099,
          "durationTicks": 120,
          "midi": 89,
          "name": "F6",
          "ticks": 191784,
          "time": 136.2100910625,
          "velocity": 0.30708661417322836
        },
        {
          "duration": 0.0852271875000099,
          "durationTicks": 120,
          "midi": 69,
          "name": "A4",
          "ticks": 191784,
          "time": 136.2100910625,
          "velocity": 0.30708661417322836
        },
        {
          "duration": 0.0852271875000099,
          "durationTicks": 120,
          "midi": 77,
          "name": "F5",
          "ticks": 191784,
          "time": 136.2100910625,
          "velocity": 0.30708661417322836
        },
        {
          "duration": 0.0852271875000099,
          "durationTicks": 120,
          "midi": 69,
          "name": "A4",
          "ticks": 191784,
          "time": 136.2100910625,
          "velocity": 0.30708661417322836
        },
        {
          "duration": 0.0852271875000099,
          "durationTicks": 120,
          "midi": 72,
          "name": "C5",
          "ticks": 191784,
          "time": 136.2100910625,
          "velocity": 0.30708661417322836
        },
        {
          "duration": 0.0852271875000099,
          "durationTicks": 120,
          "midi": 60,
          "name": "C4",
          "ticks": 191784,
          "time": 136.2100910625,
          "velocity": 0.30708661417322836
        },
        {
          "duration": 0.0852271875000099,
          "durationTicks": 120,
          "midi": 84,
          "name": "C6",
          "ticks": 191784,
          "time": 136.2100910625,
          "velocity": 0.30708661417322836
        },
        {
          "duration": 0.0852271875000099,
          "durationTicks": 120,
          "midi": 94,
          "name": "A#6",
          "ticks": 191784,
          "time": 136.2100910625,
          "velocity": 0.30708661417322836
        },
        {
          "duration": 0.0852271875000099,
          "durationTicks": 120,
          "midi": 89,
          "name": "F6",
          "ticks": 191784,
          "time": 136.2100910625,
          "velocity": 0.30708661417322836
        },
        {
          "duration": 0.0852271875000099,
          "durationTicks": 120,
          "midi": 77,
          "name": "F5",
          "ticks": 191784,
          "time": 136.2100910625,
          "velocity": 0.30708661417322836
        },
        {
          "duration": 0.0852271875000099,
          "durationTicks": 120,
          "midi": 65,
          "name": "F4",
          "ticks": 191784,
          "time": 136.2100910625,
          "velocity": 0.30708661417322836
        },
        {
          "duration": 0.0852271875000099,
          "durationTicks": 120,
          "midi": 60,
          "name": "C4",
          "ticks": 191784,
          "time": 136.2100910625,
          "velocity": 0.30708661417322836
        },
        {
          "duration": 0.0852271875000099,
          "durationTicks": 120,
          "midi": 84,
          "name": "C6",
          "ticks": 191784,
          "time": 136.2100910625,
          "velocity": 0.30708661417322836
        },
        {
          "duration": 0.0852271875000099,
          "durationTicks": 120,
          "midi": 72,
          "name": "C5",
          "ticks": 191784,
          "time": 136.2100910625,
          "velocity": 0.30708661417322836
        },
        {
          "duration": 0.0852271875000099,
          "durationTicks": 120,
          "midi": 81,
          "name": "A5",
          "ticks": 191784,
          "time": 136.2100910625,
          "velocity": 0.30708661417322836
        },
        {
          "duration": 0.0852271875000099,
          "durationTicks": 120,
          "midi": 81,
          "name": "A5",
          "ticks": 191784,
          "time": 136.2100910625,
          "velocity": 0.30708661417322836
        },
        {
          "duration": 0.0852271875000099,
          "durationTicks": 120,
          "midi": 65,
          "name": "F4",
          "ticks": 191784,
          "time": 136.2100910625,
          "velocity": 0.30708661417322836
        },
        {
          "duration": 0.0852271875000099,
          "durationTicks": 120,
          "midi": 94,
          "name": "A#6",
          "ticks": 191784,
          "time": 136.2100910625,
          "velocity": 0.30708661417322836
        },
        {
          "duration": 0.0852271875000099,
          "durationTicks": 120,
          "midi": 89,
          "name": "F6",
          "ticks": 191808,
          "time": 136.2271365,
          "velocity": 0.30708661417322836
        },
        {
          "duration": 0.0852271875000099,
          "durationTicks": 120,
          "midi": 69,
          "name": "A4",
          "ticks": 191808,
          "time": 136.2271365,
          "velocity": 0.30708661417322836
        },
        {
          "duration": 0.0852271875000099,
          "durationTicks": 120,
          "midi": 60,
          "name": "C4",
          "ticks": 191808,
          "time": 136.2271365,
          "velocity": 0.30708661417322836
        },
        {
          "duration": 0.0852271875000099,
          "durationTicks": 120,
          "midi": 72,
          "name": "C5",
          "ticks": 191808,
          "time": 136.2271365,
          "velocity": 0.30708661417322836
        },
        {
          "duration": 0.0852271875000099,
          "durationTicks": 120,
          "midi": 94,
          "name": "A#6",
          "ticks": 191808,
          "time": 136.2271365,
          "velocity": 0.30708661417322836
        },
        {
          "duration": 0.0852271875000099,
          "durationTicks": 120,
          "midi": 84,
          "name": "C6",
          "ticks": 191808,
          "time": 136.2271365,
          "velocity": 0.30708661417322836
        },
        {
          "duration": 0.0852271875000099,
          "durationTicks": 120,
          "midi": 81,
          "name": "A5",
          "ticks": 191808,
          "time": 136.2271365,
          "velocity": 0.30708661417322836
        },
        {
          "duration": 0.0852271875000099,
          "durationTicks": 120,
          "midi": 65,
          "name": "F4",
          "ticks": 191808,
          "time": 136.2271365,
          "velocity": 0.30708661417322836
        },
        {
          "duration": 0.0852271875000099,
          "durationTicks": 120,
          "midi": 77,
          "name": "F5",
          "ticks": 191808,
          "time": 136.2271365,
          "velocity": 0.30708661417322836
        },
        {
          "duration": 0.08522718749998148,
          "durationTicks": 120,
          "midi": 69,
          "name": "A4",
          "ticks": 191904,
          "time": 136.29531825,
          "velocity": 0.30708661417322836
        },
        {
          "duration": 0.08522718749998148,
          "durationTicks": 120,
          "midi": 89,
          "name": "F6",
          "ticks": 191904,
          "time": 136.29531825,
          "velocity": 0.30708661417322836
        },
        {
          "duration": 0.08522718749998148,
          "durationTicks": 120,
          "midi": 72,
          "name": "C5",
          "ticks": 191904,
          "time": 136.29531825,
          "velocity": 0.30708661417322836
        },
        {
          "duration": 0.08522718749998148,
          "durationTicks": 120,
          "midi": 72,
          "name": "C5",
          "ticks": 191904,
          "time": 136.29531825,
          "velocity": 0.30708661417322836
        },
        {
          "duration": 0.08522718749998148,
          "durationTicks": 120,
          "midi": 81,
          "name": "A5",
          "ticks": 191904,
          "time": 136.29531825,
          "velocity": 0.30708661417322836
        },
        {
          "duration": 0.08522718749998148,
          "durationTicks": 120,
          "midi": 94,
          "name": "A#6",
          "ticks": 191904,
          "time": 136.29531825,
          "velocity": 0.30708661417322836
        },
        {
          "duration": 0.08522718749998148,
          "durationTicks": 120,
          "midi": 94,
          "name": "A#6",
          "ticks": 191904,
          "time": 136.29531825,
          "velocity": 0.30708661417322836
        },
        {
          "duration": 0.08522718749998148,
          "durationTicks": 120,
          "midi": 60,
          "name": "C4",
          "ticks": 191904,
          "time": 136.29531825,
          "velocity": 0.30708661417322836
        },
        {
          "duration": 0.08522718749998148,
          "durationTicks": 120,
          "midi": 89,
          "name": "F6",
          "ticks": 191904,
          "time": 136.29531825,
          "velocity": 0.30708661417322836
        },
        {
          "duration": 0.08522718749998148,
          "durationTicks": 120,
          "midi": 77,
          "name": "F5",
          "ticks": 191904,
          "time": 136.29531825,
          "velocity": 0.30708661417322836
        },
        {
          "duration": 0.08522718749998148,
          "durationTicks": 120,
          "midi": 81,
          "name": "A5",
          "ticks": 191904,
          "time": 136.29531825,
          "velocity": 0.30708661417322836
        },
        {
          "duration": 0.08522718749998148,
          "durationTicks": 120,
          "midi": 84,
          "name": "C6",
          "ticks": 191904,
          "time": 136.29531825,
          "velocity": 0.30708661417322836
        },
        {
          "duration": 0.08522718749998148,
          "durationTicks": 120,
          "midi": 65,
          "name": "F4",
          "ticks": 191904,
          "time": 136.29531825,
          "velocity": 0.30708661417322836
        },
        {
          "duration": 0.08522718749998148,
          "durationTicks": 120,
          "midi": 60,
          "name": "C4",
          "ticks": 191904,
          "time": 136.29531825,
          "velocity": 0.30708661417322836
        },
        {
          "duration": 0.08522718749998148,
          "durationTicks": 120,
          "midi": 84,
          "name": "C6",
          "ticks": 191904,
          "time": 136.29531825,
          "velocity": 0.30708661417322836
        },
        {
          "duration": 0.08522718749998148,
          "durationTicks": 120,
          "midi": 52,
          "name": "E3",
          "ticks": 191904,
          "time": 136.29531825,
          "velocity": 0.30708661417322836
        },
        {
          "duration": 0.08522718749998148,
          "durationTicks": 120,
          "midi": 69,
          "name": "A4",
          "ticks": 191904,
          "time": 136.29531825,
          "velocity": 0.30708661417322836
        },
        {
          "duration": 0.08522718749998148,
          "durationTicks": 120,
          "midi": 60,
          "name": "C4",
          "ticks": 191904,
          "time": 136.29531825,
          "velocity": 0.30708661417322836
        },
        {
          "duration": 0.08522718749998148,
          "durationTicks": 120,
          "midi": 65,
          "name": "F4",
          "ticks": 191904,
          "time": 136.29531825,
          "velocity": 0.30708661417322836
        },
        {
          "duration": 0.08522718749998148,
          "durationTicks": 120,
          "midi": 52,
          "name": "E3",
          "ticks": 191904,
          "time": 136.29531825,
          "velocity": 0.30708661417322836
        },
        {
          "duration": 0.08522718749998148,
          "durationTicks": 120,
          "midi": 77,
          "name": "F5",
          "ticks": 191904,
          "time": 136.29531825,
          "velocity": 0.30708661417322836
        },
        {
          "duration": 0.08522718749998148,
          "durationTicks": 120,
          "midi": 60,
          "name": "C4",
          "ticks": 191904,
          "time": 136.29531825,
          "velocity": 0.30708661417322836
        },
        {
          "duration": 0.08522718749998148,
          "durationTicks": 120,
          "midi": 52,
          "name": "E3",
          "ticks": 191928,
          "time": 136.3123636875,
          "velocity": 0.30708661417322836
        },
        {
          "duration": 0.08522718749998148,
          "durationTicks": 120,
          "midi": 89,
          "name": "F6",
          "ticks": 191928,
          "time": 136.3123636875,
          "velocity": 0.30708661417322836
        },
        {
          "duration": 0.08522718749998148,
          "durationTicks": 120,
          "midi": 77,
          "name": "F5",
          "ticks": 191928,
          "time": 136.3123636875,
          "velocity": 0.30708661417322836
        },
        {
          "duration": 0.08522718749998148,
          "durationTicks": 120,
          "midi": 72,
          "name": "C5",
          "ticks": 191928,
          "time": 136.3123636875,
          "velocity": 0.30708661417322836
        },
        {
          "duration": 0.08522718749998148,
          "durationTicks": 120,
          "midi": 60,
          "name": "C4",
          "ticks": 191928,
          "time": 136.3123636875,
          "velocity": 0.30708661417322836
        },
        {
          "duration": 0.08522718749998148,
          "durationTicks": 120,
          "midi": 69,
          "name": "A4",
          "ticks": 191928,
          "time": 136.3123636875,
          "velocity": 0.30708661417322836
        },
        {
          "duration": 0.08522718749998148,
          "durationTicks": 120,
          "midi": 60,
          "name": "C4",
          "ticks": 191928,
          "time": 136.3123636875,
          "velocity": 0.30708661417322836
        },
        {
          "duration": 0.08522718749998148,
          "durationTicks": 120,
          "midi": 94,
          "name": "A#6",
          "ticks": 191928,
          "time": 136.3123636875,
          "velocity": 0.30708661417322836
        },
        {
          "duration": 0.08522718749998148,
          "durationTicks": 120,
          "midi": 84,
          "name": "C6",
          "ticks": 191928,
          "time": 136.3123636875,
          "velocity": 0.30708661417322836
        },
        {
          "duration": 0.08522718749998148,
          "durationTicks": 120,
          "midi": 81,
          "name": "A5",
          "ticks": 191928,
          "time": 136.3123636875,
          "velocity": 0.30708661417322836
        },
        {
          "duration": 0.08522718749998148,
          "durationTicks": 120,
          "midi": 65,
          "name": "F4",
          "ticks": 191928,
          "time": 136.3123636875,
          "velocity": 0.30708661417322836
        },
        {
          "duration": 0.0852271875000099,
          "durationTicks": 120,
          "midi": 65,
          "name": "F4",
          "ticks": 192024,
          "time": 136.3805454375,
          "velocity": 0.30708661417322836
        },
        {
          "duration": 0.0852271875000099,
          "durationTicks": 120,
          "midi": 94,
          "name": "A#6",
          "ticks": 192024,
          "time": 136.3805454375,
          "velocity": 0.30708661417322836
        },
        {
          "duration": 0.0852271875000099,
          "durationTicks": 120,
          "midi": 65,
          "name": "F4",
          "ticks": 192024,
          "time": 136.3805454375,
          "velocity": 0.30708661417322836
        },
        {
          "duration": 0.0852271875000099,
          "durationTicks": 120,
          "midi": 89,
          "name": "F6",
          "ticks": 192024,
          "time": 136.3805454375,
          "velocity": 0.30708661417322836
        },
        {
          "duration": 0.0852271875000099,
          "durationTicks": 120,
          "midi": 81,
          "name": "A5",
          "ticks": 192024,
          "time": 136.3805454375,
          "velocity": 0.30708661417322836
        },
        {
          "duration": 0.0852271875000099,
          "durationTicks": 120,
          "midi": 77,
          "name": "F5",
          "ticks": 192024,
          "time": 136.3805454375,
          "velocity": 0.30708661417322836
        },
        {
          "duration": 0.0852271875000099,
          "durationTicks": 120,
          "midi": 84,
          "name": "C6",
          "ticks": 192024,
          "time": 136.3805454375,
          "velocity": 0.30708661417322836
        },
        {
          "duration": 0.0852271875000099,
          "durationTicks": 120,
          "midi": 72,
          "name": "C5",
          "ticks": 192024,
          "time": 136.3805454375,
          "velocity": 0.30708661417322836
        },
        {
          "duration": 0.0852271875000099,
          "durationTicks": 120,
          "midi": 60,
          "name": "C4",
          "ticks": 192024,
          "time": 136.3805454375,
          "velocity": 0.30708661417322836
        },
        {
          "duration": 0.0852271875000099,
          "durationTicks": 120,
          "midi": 89,
          "name": "F6",
          "ticks": 192024,
          "time": 136.3805454375,
          "velocity": 0.30708661417322836
        },
        {
          "duration": 0.0852271875000099,
          "durationTicks": 120,
          "midi": 77,
          "name": "F5",
          "ticks": 192024,
          "time": 136.3805454375,
          "velocity": 0.30708661417322836
        },
        {
          "duration": 0.0852271875000099,
          "durationTicks": 120,
          "midi": 94,
          "name": "A#6",
          "ticks": 192024,
          "time": 136.3805454375,
          "velocity": 0.30708661417322836
        },
        {
          "duration": 0.0852271875000099,
          "durationTicks": 120,
          "midi": 69,
          "name": "A4",
          "ticks": 192024,
          "time": 136.3805454375,
          "velocity": 0.30708661417322836
        },
        {
          "duration": 0.0852271875000099,
          "durationTicks": 120,
          "midi": 84,
          "name": "C6",
          "ticks": 192024,
          "time": 136.3805454375,
          "velocity": 0.30708661417322836
        },
        {
          "duration": 0.0852271875000099,
          "durationTicks": 120,
          "midi": 72,
          "name": "C5",
          "ticks": 192024,
          "time": 136.3805454375,
          "velocity": 0.30708661417322836
        },
        {
          "duration": 0.0852271875000099,
          "durationTicks": 120,
          "midi": 69,
          "name": "A4",
          "ticks": 192024,
          "time": 136.3805454375,
          "velocity": 0.30708661417322836
        },
        {
          "duration": 0.0852271875000099,
          "durationTicks": 120,
          "midi": 81,
          "name": "A5",
          "ticks": 192024,
          "time": 136.3805454375,
          "velocity": 0.30708661417322836
        },
        {
          "duration": 0.0852271875000099,
          "durationTicks": 120,
          "midi": 60,
          "name": "C4",
          "ticks": 192024,
          "time": 136.3805454375,
          "velocity": 0.30708661417322836
        },
        {
          "duration": 0.0852271875000099,
          "durationTicks": 120,
          "midi": 60,
          "name": "C4",
          "ticks": 192048,
          "time": 136.397590875,
          "velocity": 0.30708661417322836
        },
        {
          "duration": 0.0852271875000099,
          "durationTicks": 120,
          "midi": 94,
          "name": "A#6",
          "ticks": 192048,
          "time": 136.397590875,
          "velocity": 0.30708661417322836
        },
        {
          "duration": 0.0852271875000099,
          "durationTicks": 120,
          "midi": 65,
          "name": "F4",
          "ticks": 192048,
          "time": 136.397590875,
          "velocity": 0.30708661417322836
        },
        {
          "duration": 0.0852271875000099,
          "durationTicks": 120,
          "midi": 81,
          "name": "A5",
          "ticks": 192048,
          "time": 136.397590875,
          "velocity": 0.30708661417322836
        },
        {
          "duration": 0.0852271875000099,
          "durationTicks": 120,
          "midi": 89,
          "name": "F6",
          "ticks": 192048,
          "time": 136.397590875,
          "velocity": 0.30708661417322836
        },
        {
          "duration": 0.0852271875000099,
          "durationTicks": 120,
          "midi": 69,
          "name": "A4",
          "ticks": 192048,
          "time": 136.397590875,
          "velocity": 0.30708661417322836
        },
        {
          "duration": 0.0852271875000099,
          "durationTicks": 120,
          "midi": 84,
          "name": "C6",
          "ticks": 192048,
          "time": 136.397590875,
          "velocity": 0.30708661417322836
        },
        {
          "duration": 0.0852271875000099,
          "durationTicks": 120,
          "midi": 72,
          "name": "C5",
          "ticks": 192048,
          "time": 136.397590875,
          "velocity": 0.30708661417322836
        },
        {
          "duration": 0.0852271875000099,
          "durationTicks": 120,
          "midi": 77,
          "name": "F5",
          "ticks": 192048,
          "time": 136.397590875,
          "velocity": 0.30708661417322836
        },
        {
          "duration": 0.0852271875000099,
          "durationTicks": 120,
          "midi": 82,
          "name": "A#5",
          "ticks": 192144,
          "time": 136.465772625,
          "velocity": 0.30708661417322836
        },
        {
          "duration": 0.0852271875000099,
          "durationTicks": 120,
          "midi": 70,
          "name": "A#4",
          "ticks": 192144,
          "time": 136.465772625,
          "velocity": 0.30708661417322836
        },
        {
          "duration": 0.0852271875000099,
          "durationTicks": 120,
          "midi": 82,
          "name": "A#5",
          "ticks": 192144,
          "time": 136.465772625,
          "velocity": 0.30708661417322836
        },
        {
          "duration": 0.0852271875000099,
          "durationTicks": 120,
          "midi": 70,
          "name": "A#4",
          "ticks": 192144,
          "time": 136.465772625,
          "velocity": 0.30708661417322836
        },
        {
          "duration": 0.0852271875000099,
          "durationTicks": 120,
          "midi": 75,
          "name": "D#5",
          "ticks": 192144,
          "time": 136.465772625,
          "velocity": 0.30708661417322836
        },
        {
          "duration": 0.0852271875000099,
          "durationTicks": 120,
          "midi": 79,
          "name": "G5",
          "ticks": 192144,
          "time": 136.465772625,
          "velocity": 0.30708661417322836
        },
        {
          "duration": 0.0852271875000099,
          "durationTicks": 120,
          "midi": 79,
          "name": "G5",
          "ticks": 192144,
          "time": 136.465772625,
          "velocity": 0.30708661417322836
        },
        {
          "duration": 0.0852271875000099,
          "durationTicks": 120,
          "midi": 43,
          "name": "G2",
          "ticks": 192144,
          "time": 136.465772625,
          "velocity": 0.30708661417322836
        },
        {
          "duration": 0.0852271875000099,
          "durationTicks": 120,
          "midi": 75,
          "name": "D#5",
          "ticks": 192144,
          "time": 136.465772625,
          "velocity": 0.30708661417322836
        },
        {
          "duration": 0.0852271875000099,
          "durationTicks": 120,
          "midi": 67,
          "name": "G4",
          "ticks": 192144,
          "time": 136.465772625,
          "velocity": 0.30708661417322836
        },
        {
          "duration": 0.0852271875000099,
          "durationTicks": 120,
          "midi": 43,
          "name": "G2",
          "ticks": 192144,
          "time": 136.465772625,
          "velocity": 0.30708661417322836
        },
        {
          "duration": 0.0852271875000099,
          "durationTicks": 120,
          "midi": 87,
          "name": "D#6",
          "ticks": 192144,
          "time": 136.465772625,
          "velocity": 0.30708661417322836
        },
        {
          "duration": 0.0852271875000099,
          "durationTicks": 120,
          "midi": 67,
          "name": "G4",
          "ticks": 192144,
          "time": 136.465772625,
          "velocity": 0.30708661417322836
        },
        {
          "duration": 0.0852271875000099,
          "durationTicks": 120,
          "midi": 87,
          "name": "D#6",
          "ticks": 192144,
          "time": 136.465772625,
          "velocity": 0.30708661417322836
        },
        {
          "duration": 0.0852271875000099,
          "durationTicks": 120,
          "midi": 43,
          "name": "G2",
          "ticks": 192168,
          "time": 136.4828180625,
          "velocity": 0.30708661417322836
        },
        {
          "duration": 0.0852271875000099,
          "durationTicks": 120,
          "midi": 70,
          "name": "A#4",
          "ticks": 192168,
          "time": 136.4828180625,
          "velocity": 0.30708661417322836
        },
        {
          "duration": 0.0852271875000099,
          "durationTicks": 120,
          "midi": 82,
          "name": "A#5",
          "ticks": 192168,
          "time": 136.4828180625,
          "velocity": 0.30708661417322836
        },
        {
          "duration": 0.0852271875000099,
          "durationTicks": 120,
          "midi": 79,
          "name": "G5",
          "ticks": 192168,
          "time": 136.4828180625,
          "velocity": 0.30708661417322836
        },
        {
          "duration": 0.0852271875000099,
          "durationTicks": 120,
          "midi": 67,
          "name": "G4",
          "ticks": 192168,
          "time": 136.4828180625,
          "velocity": 0.30708661417322836
        },
        {
          "duration": 0.0852271875000099,
          "durationTicks": 120,
          "midi": 75,
          "name": "D#5",
          "ticks": 192168,
          "time": 136.4828180625,
          "velocity": 0.30708661417322836
        },
        {
          "duration": 0.0852271875000099,
          "durationTicks": 120,
          "midi": 87,
          "name": "D#6",
          "ticks": 192168,
          "time": 136.4828180625,
          "velocity": 0.30708661417322836
        },
        {
          "duration": 0.0852271875000099,
          "durationTicks": 120,
          "midi": 87,
          "name": "D#6",
          "ticks": 192384,
          "time": 136.636227,
          "velocity": 0.30708661417322836
        },
        {
          "duration": 0.0852271875000099,
          "durationTicks": 120,
          "midi": 72,
          "name": "C5",
          "ticks": 192384,
          "time": 136.636227,
          "velocity": 0.30708661417322836
        },
        {
          "duration": 0.0852271875000099,
          "durationTicks": 120,
          "midi": 79,
          "name": "G5",
          "ticks": 192384,
          "time": 136.636227,
          "velocity": 0.30708661417322836
        },
        {
          "duration": 0.0852271875000099,
          "durationTicks": 120,
          "midi": 79,
          "name": "G5",
          "ticks": 192384,
          "time": 136.636227,
          "velocity": 0.30708661417322836
        },
        {
          "duration": 0.0852271875000099,
          "durationTicks": 120,
          "midi": 84,
          "name": "C6",
          "ticks": 192384,
          "time": 136.636227,
          "velocity": 0.30708661417322836
        },
        {
          "duration": 0.0852271875000099,
          "durationTicks": 120,
          "midi": 75,
          "name": "D#5",
          "ticks": 192384,
          "time": 136.636227,
          "velocity": 0.30708661417322836
        },
        {
          "duration": 0.0852271875000099,
          "durationTicks": 120,
          "midi": 60,
          "name": "C4",
          "ticks": 192384,
          "time": 136.636227,
          "velocity": 0.30708661417322836
        },
        {
          "duration": 0.0852271875000099,
          "durationTicks": 120,
          "midi": 75,
          "name": "D#5",
          "ticks": 192384,
          "time": 136.636227,
          "velocity": 0.30708661417322836
        },
        {
          "duration": 0.0852271875000099,
          "durationTicks": 120,
          "midi": 52,
          "name": "E3",
          "ticks": 192384,
          "time": 136.636227,
          "velocity": 0.30708661417322836
        },
        {
          "duration": 0.0852271875000099,
          "durationTicks": 120,
          "midi": 91,
          "name": "G6",
          "ticks": 192384,
          "time": 136.636227,
          "velocity": 0.30708661417322836
        },
        {
          "duration": 0.0852271875000099,
          "durationTicks": 120,
          "midi": 91,
          "name": "G6",
          "ticks": 192384,
          "time": 136.636227,
          "velocity": 0.30708661417322836
        },
        {
          "duration": 0.0852271875000099,
          "durationTicks": 120,
          "midi": 52,
          "name": "E3",
          "ticks": 192384,
          "time": 136.636227,
          "velocity": 0.30708661417322836
        },
        {
          "duration": 0.0852271875000099,
          "durationTicks": 120,
          "midi": 84,
          "name": "C6",
          "ticks": 192384,
          "time": 136.636227,
          "velocity": 0.30708661417322836
        },
        {
          "duration": 0.0852271875000099,
          "durationTicks": 120,
          "midi": 60,
          "name": "C4",
          "ticks": 192384,
          "time": 136.636227,
          "velocity": 0.30708661417322836
        },
        {
          "duration": 0.0852271875000099,
          "durationTicks": 120,
          "midi": 87,
          "name": "D#6",
          "ticks": 192384,
          "time": 136.636227,
          "velocity": 0.30708661417322836
        },
        {
          "duration": 0.0852271875000099,
          "durationTicks": 120,
          "midi": 72,
          "name": "C5",
          "ticks": 192384,
          "time": 136.636227,
          "velocity": 0.30708661417322836
        },
        {
          "duration": 0.0852271875000099,
          "durationTicks": 120,
          "midi": 91,
          "name": "G6",
          "ticks": 192408,
          "time": 136.6532724375,
          "velocity": 0.30708661417322836
        },
        {
          "duration": 0.0852271875000099,
          "durationTicks": 120,
          "midi": 72,
          "name": "C5",
          "ticks": 192408,
          "time": 136.6532724375,
          "velocity": 0.30708661417322836
        },
        {
          "duration": 0.0852271875000099,
          "durationTicks": 120,
          "midi": 79,
          "name": "G5",
          "ticks": 192408,
          "time": 136.6532724375,
          "velocity": 0.30708661417322836
        },
        {
          "duration": 0.0852271875000099,
          "durationTicks": 120,
          "midi": 84,
          "name": "C6",
          "ticks": 192408,
          "time": 136.6532724375,
          "velocity": 0.30708661417322836
        },
        {
          "duration": 0.0852271875000099,
          "durationTicks": 120,
          "midi": 52,
          "name": "E3",
          "ticks": 192408,
          "time": 136.6532724375,
          "velocity": 0.30708661417322836
        },
        {
          "duration": 0.0852271875000099,
          "durationTicks": 120,
          "midi": 87,
          "name": "D#6",
          "ticks": 192408,
          "time": 136.6532724375,
          "velocity": 0.30708661417322836
        },
        {
          "duration": 0.0852271875000099,
          "durationTicks": 120,
          "midi": 75,
          "name": "D#5",
          "ticks": 192408,
          "time": 136.6532724375,
          "velocity": 0.30708661417322836
        },
        {
          "duration": 0.0852271875000099,
          "durationTicks": 120,
          "midi": 60,
          "name": "C4",
          "ticks": 192408,
          "time": 136.6532724375,
          "velocity": 0.30708661417322836
        },
        {
          "duration": 0.08522718749998148,
          "durationTicks": 120,
          "midi": 72,
          "name": "C5",
          "ticks": 192624,
          "time": 136.806681375,
          "velocity": 0.30708661417322836
        },
        {
          "duration": 0.08522718749998148,
          "durationTicks": 120,
          "midi": 53,
          "name": "F3",
          "ticks": 192624,
          "time": 136.806681375,
          "velocity": 0.30708661417322836
        },
        {
          "duration": 0.08522718749998148,
          "durationTicks": 120,
          "midi": 77,
          "name": "F5",
          "ticks": 192624,
          "time": 136.806681375,
          "velocity": 0.30708661417322836
        },
        {
          "duration": 0.08522718749998148,
          "durationTicks": 120,
          "midi": 69,
          "name": "A4",
          "ticks": 192624,
          "time": 136.806681375,
          "velocity": 0.30708661417322836
        },
        {
          "duration": 0.08522718749998148,
          "durationTicks": 120,
          "midi": 77,
          "name": "F5",
          "ticks": 192624,
          "time": 136.806681375,
          "velocity": 0.30708661417322836
        },
        {
          "duration": 0.08522718749998148,
          "durationTicks": 120,
          "midi": 89,
          "name": "F6",
          "ticks": 192624,
          "time": 136.806681375,
          "velocity": 0.30708661417322836
        },
        {
          "duration": 0.08522718749998148,
          "durationTicks": 120,
          "midi": 48,
          "name": "C3",
          "ticks": 192624,
          "time": 136.806681375,
          "velocity": 0.30708661417322836
        },
        {
          "duration": 0.08522718749998148,
          "durationTicks": 120,
          "midi": 48,
          "name": "C3",
          "ticks": 192624,
          "time": 136.806681375,
          "velocity": 0.30708661417322836
        },
        {
          "duration": 0.08522718749998148,
          "durationTicks": 120,
          "midi": 84,
          "name": "C6",
          "ticks": 192624,
          "time": 136.806681375,
          "velocity": 0.30708661417322836
        },
        {
          "duration": 0.08522718749998148,
          "durationTicks": 120,
          "midi": 89,
          "name": "F6",
          "ticks": 192624,
          "time": 136.806681375,
          "velocity": 0.30708661417322836
        },
        {
          "duration": 0.08522718749998148,
          "durationTicks": 120,
          "midi": 57,
          "name": "A3",
          "ticks": 192624,
          "time": 136.806681375,
          "velocity": 0.30708661417322836
        },
        {
          "duration": 0.08522718749998148,
          "durationTicks": 120,
          "midi": 72,
          "name": "C5",
          "ticks": 192624,
          "time": 136.806681375,
          "velocity": 0.30708661417322836
        },
        {
          "duration": 0.08522718749998148,
          "durationTicks": 120,
          "midi": 81,
          "name": "A5",
          "ticks": 192624,
          "time": 136.806681375,
          "velocity": 0.30708661417322836
        },
        {
          "duration": 0.08522718749998148,
          "durationTicks": 120,
          "midi": 57,
          "name": "A3",
          "ticks": 192624,
          "time": 136.806681375,
          "velocity": 0.30708661417322836
        },
        {
          "duration": 0.08522718749998148,
          "durationTicks": 120,
          "midi": 53,
          "name": "F3",
          "ticks": 192624,
          "time": 136.806681375,
          "velocity": 0.30708661417322836
        },
        {
          "duration": 0.08522718749998148,
          "durationTicks": 120,
          "midi": 84,
          "name": "C6",
          "ticks": 192624,
          "time": 136.806681375,
          "velocity": 0.30708661417322836
        },
        {
          "duration": 0.08522718749998148,
          "durationTicks": 120,
          "midi": 69,
          "name": "A4",
          "ticks": 192624,
          "time": 136.806681375,
          "velocity": 0.30708661417322836
        },
        {
          "duration": 0.08522718749998148,
          "durationTicks": 120,
          "midi": 81,
          "name": "A5",
          "ticks": 192624,
          "time": 136.806681375,
          "velocity": 0.30708661417322836
        },
        {
          "duration": 0.08522718749998148,
          "durationTicks": 120,
          "midi": 72,
          "name": "C5",
          "ticks": 192648,
          "time": 136.8237268125,
          "velocity": 0.30708661417322836
        },
        {
          "duration": 0.08522718749998148,
          "durationTicks": 120,
          "midi": 89,
          "name": "F6",
          "ticks": 192648,
          "time": 136.8237268125,
          "velocity": 0.30708661417322836
        },
        {
          "duration": 0.08522718749998148,
          "durationTicks": 120,
          "midi": 48,
          "name": "C3",
          "ticks": 192648,
          "time": 136.8237268125,
          "velocity": 0.30708661417322836
        },
        {
          "duration": 0.08522718749998148,
          "durationTicks": 120,
          "midi": 77,
          "name": "F5",
          "ticks": 192648,
          "time": 136.8237268125,
          "velocity": 0.30708661417322836
        },
        {
          "duration": 0.08522718749998148,
          "durationTicks": 120,
          "midi": 69,
          "name": "A4",
          "ticks": 192648,
          "time": 136.8237268125,
          "velocity": 0.30708661417322836
        },
        {
          "duration": 0.08522718749998148,
          "durationTicks": 120,
          "midi": 57,
          "name": "A3",
          "ticks": 192648,
          "time": 136.8237268125,
          "velocity": 0.30708661417322836
        },
        {
          "duration": 0.08522718749998148,
          "durationTicks": 120,
          "midi": 53,
          "name": "F3",
          "ticks": 192648,
          "time": 136.8237268125,
          "velocity": 0.30708661417322836
        },
        {
          "duration": 0.08522718749998148,
          "durationTicks": 120,
          "midi": 84,
          "name": "C6",
          "ticks": 192648,
          "time": 136.8237268125,
          "velocity": 0.30708661417322836
        },
        {
          "duration": 0.08522718749998148,
          "durationTicks": 120,
          "midi": 81,
          "name": "A5",
          "ticks": 192648,
          "time": 136.8237268125,
          "velocity": 0.30708661417322836
        },
        {
          "duration": 0.28977243750000525,
          "durationTicks": 408,
          "midi": 53,
          "name": "F3",
          "ticks": 193104,
          "time": 137.147590125,
          "velocity": 0.30708661417322836
        },
        {
          "duration": 0.4261359374999927,
          "durationTicks": 600,
          "midi": 29,
          "name": "F1",
          "ticks": 193104,
          "time": 137.147590125,
          "velocity": 0.30708661417322836
        },
        {
          "duration": 0.4261359374999927,
          "durationTicks": 600,
          "midi": 29,
          "name": "F1",
          "ticks": 193104,
          "time": 137.147590125,
          "velocity": 0.30708661417322836
        },
        {
          "duration": 0.28977243750000525,
          "durationTicks": 408,
          "midi": 41,
          "name": "F2",
          "ticks": 193104,
          "time": 137.147590125,
          "velocity": 0.30708661417322836
        },
        {
          "duration": 0.4261359374999927,
          "durationTicks": 600,
          "midi": 29,
          "name": "F1",
          "ticks": 193104,
          "time": 137.147590125,
          "velocity": 0.30708661417322836
        },
        {
          "duration": 0.28977243750000525,
          "durationTicks": 408,
          "midi": 41,
          "name": "F2",
          "ticks": 193104,
          "time": 137.147590125,
          "velocity": 0.30708661417322836
        },
        {
          "duration": 0.4261359374999927,
          "durationTicks": 600,
          "midi": 29,
          "name": "F1",
          "ticks": 193104,
          "time": 137.147590125,
          "velocity": 0.30708661417322836
        },
        {
          "duration": 0.28977243750000525,
          "durationTicks": 408,
          "midi": 53,
          "name": "F3",
          "ticks": 193104,
          "time": 137.147590125,
          "velocity": 0.30708661417322836
        },
        {
          "duration": 0.28977243750000525,
          "durationTicks": 408,
          "midi": 41,
          "name": "F2",
          "ticks": 193128,
          "time": 137.1646355625,
          "velocity": 0.30708661417322836
        },
        {
          "duration": 0.28977243750000525,
          "durationTicks": 408,
          "midi": 53,
          "name": "F3",
          "ticks": 193128,
          "time": 137.1646355625,
          "velocity": 0.30708661417322836
        },
        {
          "duration": 0.4261359374999927,
          "durationTicks": 600,
          "midi": 29,
          "name": "F1",
          "ticks": 193128,
          "time": 137.1646355625,
          "velocity": 0.30708661417322836
        },
        {
          "duration": 0.4261359374999927,
          "durationTicks": 600,
          "midi": 29,
          "name": "F1",
          "ticks": 193128,
          "time": 137.1646355625,
          "velocity": 0.30708661417322836
        },
        {
          "duration": 0.15340893750001783,
          "durationTicks": 216,
          "midi": 43,
          "name": "G2",
          "ticks": 193440,
          "time": 137.38622625,
          "velocity": 0.30708661417322836
        },
        {
          "duration": 0.15340893750001783,
          "durationTicks": 216,
          "midi": 55,
          "name": "G3",
          "ticks": 193440,
          "time": 137.38622625,
          "velocity": 0.30708661417322836
        },
        {
          "duration": 0.15340893750001783,
          "durationTicks": 216,
          "midi": 55,
          "name": "G3",
          "ticks": 193440,
          "time": 137.38622625,
          "velocity": 0.30708661417322836
        },
        {
          "duration": 0.15340893750001783,
          "durationTicks": 216,
          "midi": 43,
          "name": "G2",
          "ticks": 193440,
          "time": 137.38622625,
          "velocity": 0.30708661417322836
        },
        {
          "duration": 0.15340893750001783,
          "durationTicks": 216,
          "midi": 43,
          "name": "G2",
          "ticks": 193464,
          "time": 137.4032716875,
          "velocity": 0.30708661417322836
        },
        {
          "duration": 0.15340893750001783,
          "durationTicks": 216,
          "midi": 55,
          "name": "G3",
          "ticks": 193464,
          "time": 137.4032716875,
          "velocity": 0.30708661417322836
        },
        {
          "duration": 0.1534089374999894,
          "durationTicks": 216,
          "midi": 57,
          "name": "A3",
          "ticks": 193536,
          "time": 137.454408,
          "velocity": 0.30708661417322836
        },
        {
          "duration": 0.1534089374999894,
          "durationTicks": 216,
          "midi": 45,
          "name": "A2",
          "ticks": 193536,
          "time": 137.454408,
          "velocity": 0.30708661417322836
        },
        {
          "duration": 0.1534089374999894,
          "durationTicks": 216,
          "midi": 45,
          "name": "A2",
          "ticks": 193536,
          "time": 137.454408,
          "velocity": 0.30708661417322836
        },
        {
          "duration": 0.28977243750000525,
          "durationTicks": 408,
          "midi": 33,
          "name": "A1",
          "ticks": 193536,
          "time": 137.454408,
          "velocity": 0.30708661417322836
        },
        {
          "duration": 0.1534089374999894,
          "durationTicks": 216,
          "midi": 57,
          "name": "A3",
          "ticks": 193536,
          "time": 137.454408,
          "velocity": 0.30708661417322836
        },
        {
          "duration": 0.28977243750000525,
          "durationTicks": 408,
          "midi": 33,
          "name": "A1",
          "ticks": 193536,
          "time": 137.454408,
          "velocity": 0.30708661417322836
        },
        {
          "duration": 0.28977243750000525,
          "durationTicks": 408,
          "midi": 33,
          "name": "A1",
          "ticks": 193560,
          "time": 137.4714534375,
          "velocity": 0.30708661417322836
        },
        {
          "duration": 0.1534089374999894,
          "durationTicks": 216,
          "midi": 57,
          "name": "A3",
          "ticks": 193560,
          "time": 137.4714534375,
          "velocity": 0.30708661417322836
        },
        {
          "duration": 0.1534089374999894,
          "durationTicks": 216,
          "midi": 45,
          "name": "A2",
          "ticks": 193560,
          "time": 137.4714534375,
          "velocity": 0.30708661417322836
        },
        {
          "duration": 0.08522718749998148,
          "durationTicks": 120,
          "midi": 73,
          "name": "C#5",
          "ticks": 193632,
          "time": 137.52258975,
          "velocity": 0.30708661417322836
        },
        {
          "duration": 0.08522718749998148,
          "durationTicks": 120,
          "midi": 49,
          "name": "C#3",
          "ticks": 193632,
          "time": 137.52258975,
          "velocity": 0.30708661417322836
        },
        {
          "duration": 0.08522718749998148,
          "durationTicks": 120,
          "midi": 46,
          "name": "A#2",
          "ticks": 193632,
          "time": 137.52258975,
          "velocity": 0.30708661417322836
        },
        {
          "duration": 0.08522718749998148,
          "durationTicks": 120,
          "midi": 77,
          "name": "F5",
          "ticks": 193632,
          "time": 137.52258975,
          "velocity": 0.30708661417322836
        },
        {
          "duration": 0.08522718749998148,
          "durationTicks": 120,
          "midi": 49,
          "name": "C#3",
          "ticks": 193632,
          "time": 137.52258975,
          "velocity": 0.30708661417322836
        },
        {
          "duration": 0.08522718749998148,
          "durationTicks": 120,
          "midi": 85,
          "name": "C#6",
          "ticks": 193632,
          "time": 137.52258975,
          "velocity": 0.30708661417322836
        },
        {
          "duration": 0.08522718749998148,
          "durationTicks": 120,
          "midi": 53,
          "name": "F3",
          "ticks": 193632,
          "time": 137.52258975,
          "velocity": 0.30708661417322836
        },
        {
          "duration": 0.08522718749998148,
          "durationTicks": 120,
          "midi": 46,
          "name": "A#2",
          "ticks": 193632,
          "time": 137.52258975,
          "velocity": 0.30708661417322836
        },
        {
          "duration": 0.08522718749998148,
          "durationTicks": 120,
          "midi": 65,
          "name": "F4",
          "ticks": 193632,
          "time": 137.52258975,
          "velocity": 0.30708661417322836
        },
        {
          "duration": 0.08522718749998148,
          "durationTicks": 120,
          "midi": 70,
          "name": "A#4",
          "ticks": 193632,
          "time": 137.52258975,
          "velocity": 0.30708661417322836
        },
        {
          "duration": 0.08522718749998148,
          "durationTicks": 120,
          "midi": 85,
          "name": "C#6",
          "ticks": 193632,
          "time": 137.52258975,
          "velocity": 0.30708661417322836
        },
        {
          "duration": 0.08522718749998148,
          "durationTicks": 120,
          "midi": 46,
          "name": "A#2",
          "ticks": 193632,
          "time": 137.52258975,
          "velocity": 0.30708661417322836
        },
        {
          "duration": 0.08522718749998148,
          "durationTicks": 120,
          "midi": 61,
          "name": "C#4",
          "ticks": 193632,
          "time": 137.52258975,
          "velocity": 0.30708661417322836
        },
        {
          "duration": 0.08522718749998148,
          "durationTicks": 120,
          "midi": 77,
          "name": "F5",
          "ticks": 193632,
          "time": 137.52258975,
          "velocity": 0.30708661417322836
        },
        {
          "duration": 0.08522718749998148,
          "durationTicks": 120,
          "midi": 70,
          "name": "A#4",
          "ticks": 193632,
          "time": 137.52258975,
          "velocity": 0.30708661417322836
        },
        {
          "duration": 0.08522718749998148,
          "durationTicks": 120,
          "midi": 65,
          "name": "F4",
          "ticks": 193632,
          "time": 137.52258975,
          "velocity": 0.30708661417322836
        },
        {
          "duration": 0.08522718749998148,
          "durationTicks": 120,
          "midi": 53,
          "name": "F3",
          "ticks": 193632,
          "time": 137.52258975,
          "velocity": 0.30708661417322836
        },
        {
          "duration": 0.08522718749998148,
          "durationTicks": 120,
          "midi": 73,
          "name": "C#5",
          "ticks": 193632,
          "time": 137.52258975,
          "velocity": 0.30708661417322836
        },
        {
          "duration": 0.08522718749998148,
          "durationTicks": 120,
          "midi": 82,
          "name": "A#5",
          "ticks": 193632,
          "time": 137.52258975,
          "velocity": 0.30708661417322836
        },
        {
          "duration": 0.08522718749998148,
          "durationTicks": 120,
          "midi": 61,
          "name": "C#4",
          "ticks": 193632,
          "time": 137.52258975,
          "velocity": 0.30708661417322836
        },
        {
          "duration": 0.08522718749998148,
          "durationTicks": 120,
          "midi": 89,
          "name": "F6",
          "ticks": 193632,
          "time": 137.52258975,
          "velocity": 0.30708661417322836
        },
        {
          "duration": 0.08522718749998148,
          "durationTicks": 120,
          "midi": 82,
          "name": "A#5",
          "ticks": 193632,
          "time": 137.52258975,
          "velocity": 0.30708661417322836
        },
        {
          "duration": 0.08522718749998148,
          "durationTicks": 120,
          "midi": 58,
          "name": "A#3",
          "ticks": 193632,
          "time": 137.52258975,
          "velocity": 0.30708661417322836
        },
        {
          "duration": 0.08522718749998148,
          "durationTicks": 120,
          "midi": 58,
          "name": "A#3",
          "ticks": 193632,
          "time": 137.52258975,
          "velocity": 0.30708661417322836
        },
        {
          "duration": 0.08522718749998148,
          "durationTicks": 120,
          "midi": 46,
          "name": "A#2",
          "ticks": 193632,
          "time": 137.52258975,
          "velocity": 0.30708661417322836
        },
        {
          "duration": 0.08522718749998148,
          "durationTicks": 120,
          "midi": 89,
          "name": "F6",
          "ticks": 193632,
          "time": 137.52258975,
          "velocity": 0.30708661417322836
        },
        {
          "duration": 0.08522718749998148,
          "durationTicks": 120,
          "midi": 41,
          "name": "F2",
          "ticks": 193632,
          "time": 137.52258975,
          "velocity": 0.30708661417322836
        },
        {
          "duration": 0.08522718749998148,
          "durationTicks": 120,
          "midi": 41,
          "name": "F2",
          "ticks": 193632,
          "time": 137.52258975,
          "velocity": 0.30708661417322836
        },
        {
          "duration": 0.08522718749998148,
          "durationTicks": 120,
          "midi": 89,
          "name": "F6",
          "ticks": 193656,
          "time": 137.5396351875,
          "velocity": 0.30708661417322836
        },
        {
          "duration": 0.08522718749998148,
          "durationTicks": 120,
          "midi": 61,
          "name": "C#4",
          "ticks": 193656,
          "time": 137.5396351875,
          "velocity": 0.30708661417322836
        },
        {
          "duration": 0.08522718749998148,
          "durationTicks": 120,
          "midi": 82,
          "name": "A#5",
          "ticks": 193656,
          "time": 137.5396351875,
          "velocity": 0.30708661417322836
        },
        {
          "duration": 0.08522718749998148,
          "durationTicks": 120,
          "midi": 41,
          "name": "F2",
          "ticks": 193656,
          "time": 137.5396351875,
          "velocity": 0.30708661417322836
        },
        {
          "duration": 0.08522718749998148,
          "durationTicks": 120,
          "midi": 85,
          "name": "C#6",
          "ticks": 193656,
          "time": 137.5396351875,
          "velocity": 0.30708661417322836
        },
        {
          "duration": 0.08522718749998148,
          "durationTicks": 120,
          "midi": 73,
          "name": "C#5",
          "ticks": 193656,
          "time": 137.5396351875,
          "velocity": 0.30708661417322836
        },
        {
          "duration": 0.08522718749998148,
          "durationTicks": 120,
          "midi": 77,
          "name": "F5",
          "ticks": 193656,
          "time": 137.5396351875,
          "velocity": 0.30708661417322836
        },
        {
          "duration": 0.08522718749998148,
          "durationTicks": 120,
          "midi": 49,
          "name": "C#3",
          "ticks": 193656,
          "time": 137.5396351875,
          "velocity": 0.30708661417322836
        },
        {
          "duration": 0.08522718749998148,
          "durationTicks": 120,
          "midi": 53,
          "name": "F3",
          "ticks": 193656,
          "time": 137.5396351875,
          "velocity": 0.30708661417322836
        },
        {
          "duration": 0.08522718749998148,
          "durationTicks": 120,
          "midi": 70,
          "name": "A#4",
          "ticks": 193656,
          "time": 137.5396351875,
          "velocity": 0.30708661417322836
        },
        {
          "duration": 0.08522718749998148,
          "durationTicks": 120,
          "midi": 58,
          "name": "A#3",
          "ticks": 193656,
          "time": 137.5396351875,
          "velocity": 0.30708661417322836
        },
        {
          "duration": 0.08522718749998148,
          "durationTicks": 120,
          "midi": 46,
          "name": "A#2",
          "ticks": 193656,
          "time": 137.5396351875,
          "velocity": 0.30708661417322836
        },
        {
          "duration": 0.08522718749998148,
          "durationTicks": 120,
          "midi": 65,
          "name": "F4",
          "ticks": 193656,
          "time": 137.5396351875,
          "velocity": 0.30708661417322836
        },
        {
          "duration": 0.08522718749998148,
          "durationTicks": 120,
          "midi": 46,
          "name": "A#2",
          "ticks": 193656,
          "time": 137.5396351875,
          "velocity": 0.30708661417322836
        },
        {
          "duration": 0.0852271875000099,
          "durationTicks": 120,
          "midi": 85,
          "name": "C#6",
          "ticks": 193752,
          "time": 137.6078169375,
          "velocity": 0.30708661417322836
        },
        {
          "duration": 0.0852271875000099,
          "durationTicks": 120,
          "midi": 65,
          "name": "F4",
          "ticks": 193752,
          "time": 137.6078169375,
          "velocity": 0.30708661417322836
        },
        {
          "duration": 0.0852271875000099,
          "durationTicks": 120,
          "midi": 58,
          "name": "A#3",
          "ticks": 193752,
          "time": 137.6078169375,
          "velocity": 0.30708661417322836
        },
        {
          "duration": 0.0852271875000099,
          "durationTicks": 120,
          "midi": 65,
          "name": "F4",
          "ticks": 193752,
          "time": 137.6078169375,
          "velocity": 0.30708661417322836
        },
        {
          "duration": 0.0852271875000099,
          "durationTicks": 120,
          "midi": 89,
          "name": "F6",
          "ticks": 193752,
          "time": 137.6078169375,
          "velocity": 0.30708661417322836
        },
        {
          "duration": 0.0852271875000099,
          "durationTicks": 120,
          "midi": 58,
          "name": "A#3",
          "ticks": 193752,
          "time": 137.6078169375,
          "velocity": 0.30708661417322836
        },
        {
          "duration": 0.0852271875000099,
          "durationTicks": 120,
          "midi": 53,
          "name": "F3",
          "ticks": 193752,
          "time": 137.6078169375,
          "velocity": 0.30708661417322836
        },
        {
          "duration": 0.0852271875000099,
          "durationTicks": 120,
          "midi": 70,
          "name": "A#4",
          "ticks": 193752,
          "time": 137.6078169375,
          "velocity": 0.30708661417322836
        },
        {
          "duration": 0.0852271875000099,
          "durationTicks": 120,
          "midi": 73,
          "name": "C#5",
          "ticks": 193752,
          "time": 137.6078169375,
          "velocity": 0.30708661417322836
        },
        {
          "duration": 0.0852271875000099,
          "durationTicks": 120,
          "midi": 89,
          "name": "F6",
          "ticks": 193752,
          "time": 137.6078169375,
          "velocity": 0.30708661417322836
        },
        {
          "duration": 0.0852271875000099,
          "durationTicks": 120,
          "midi": 77,
          "name": "F5",
          "ticks": 193752,
          "time": 137.6078169375,
          "velocity": 0.30708661417322836
        },
        {
          "duration": 0.0852271875000099,
          "durationTicks": 120,
          "midi": 46,
          "name": "A#2",
          "ticks": 193752,
          "time": 137.6078169375,
          "velocity": 0.30708661417322836
        },
        {
          "duration": 0.0852271875000099,
          "durationTicks": 120,
          "midi": 41,
          "name": "F2",
          "ticks": 193752,
          "time": 137.6078169375,
          "velocity": 0.30708661417322836
        },
        {
          "duration": 0.0852271875000099,
          "durationTicks": 120,
          "midi": 49,
          "name": "C#3",
          "ticks": 193752,
          "time": 137.6078169375,
          "velocity": 0.30708661417322836
        },
        {
          "duration": 0.0852271875000099,
          "durationTicks": 120,
          "midi": 85,
          "name": "C#6",
          "ticks": 193752,
          "time": 137.6078169375,
          "velocity": 0.30708661417322836
        },
        {
          "duration": 0.0852271875000099,
          "durationTicks": 120,
          "midi": 77,
          "name": "F5",
          "ticks": 193752,
          "time": 137.6078169375,
          "velocity": 0.30708661417322836
        },
        {
          "duration": 0.0852271875000099,
          "durationTicks": 120,
          "midi": 46,
          "name": "A#2",
          "ticks": 193752,
          "time": 137.6078169375,
          "velocity": 0.30708661417322836
        },
        {
          "duration": 0.0852271875000099,
          "durationTicks": 120,
          "midi": 82,
          "name": "A#5",
          "ticks": 193752,
          "time": 137.6078169375,
          "velocity": 0.30708661417322836
        },
        {
          "duration": 0.0852271875000099,
          "durationTicks": 120,
          "midi": 61,
          "name": "C#4",
          "ticks": 193752,
          "time": 137.6078169375,
          "velocity": 0.30708661417322836
        },
        {
          "duration": 0.0852271875000099,
          "durationTicks": 120,
          "midi": 82,
          "name": "A#5",
          "ticks": 193752,
          "time": 137.6078169375,
          "velocity": 0.30708661417322836
        },
        {
          "duration": 0.0852271875000099,
          "durationTicks": 120,
          "midi": 73,
          "name": "C#5",
          "ticks": 193752,
          "time": 137.6078169375,
          "velocity": 0.30708661417322836
        },
        {
          "duration": 0.0852271875000099,
          "durationTicks": 120,
          "midi": 49,
          "name": "C#3",
          "ticks": 193752,
          "time": 137.6078169375,
          "velocity": 0.30708661417322836
        },
        {
          "duration": 0.0852271875000099,
          "durationTicks": 120,
          "midi": 61,
          "name": "C#4",
          "ticks": 193752,
          "time": 137.6078169375,
          "velocity": 0.30708661417322836
        },
        {
          "duration": 0.0852271875000099,
          "durationTicks": 120,
          "midi": 41,
          "name": "F2",
          "ticks": 193752,
          "time": 137.6078169375,
          "velocity": 0.30708661417322836
        },
        {
          "duration": 0.0852271875000099,
          "durationTicks": 120,
          "midi": 70,
          "name": "A#4",
          "ticks": 193752,
          "time": 137.6078169375,
          "velocity": 0.30708661417322836
        },
        {
          "duration": 0.0852271875000099,
          "durationTicks": 120,
          "midi": 53,
          "name": "F3",
          "ticks": 193752,
          "time": 137.6078169375,
          "velocity": 0.30708661417322836
        },
        {
          "duration": 0.0852271875000099,
          "durationTicks": 120,
          "midi": 73,
          "name": "C#5",
          "ticks": 193776,
          "time": 137.624862375,
          "velocity": 0.30708661417322836
        },
        {
          "duration": 0.0852271875000099,
          "durationTicks": 120,
          "midi": 85,
          "name": "C#6",
          "ticks": 193776,
          "time": 137.624862375,
          "velocity": 0.30708661417322836
        },
        {
          "duration": 0.0852271875000099,
          "durationTicks": 120,
          "midi": 58,
          "name": "A#3",
          "ticks": 193776,
          "time": 137.624862375,
          "velocity": 0.30708661417322836
        },
        {
          "duration": 0.0852271875000099,
          "durationTicks": 120,
          "midi": 49,
          "name": "C#3",
          "ticks": 193776,
          "time": 137.624862375,
          "velocity": 0.30708661417322836
        },
        {
          "duration": 0.0852271875000099,
          "durationTicks": 120,
          "midi": 82,
          "name": "A#5",
          "ticks": 193776,
          "time": 137.624862375,
          "velocity": 0.30708661417322836
        },
        {
          "duration": 0.0852271875000099,
          "durationTicks": 120,
          "midi": 77,
          "name": "F5",
          "ticks": 193776,
          "time": 137.624862375,
          "velocity": 0.30708661417322836
        },
        {
          "duration": 0.0852271875000099,
          "durationTicks": 120,
          "midi": 46,
          "name": "A#2",
          "ticks": 193776,
          "time": 137.624862375,
          "velocity": 0.30708661417322836
        },
        {
          "duration": 0.0852271875000099,
          "durationTicks": 120,
          "midi": 70,
          "name": "A#4",
          "ticks": 193776,
          "time": 137.624862375,
          "velocity": 0.30708661417322836
        },
        {
          "duration": 0.0852271875000099,
          "durationTicks": 120,
          "midi": 89,
          "name": "F6",
          "ticks": 193776,
          "time": 137.624862375,
          "velocity": 0.30708661417322836
        },
        {
          "duration": 0.0852271875000099,
          "durationTicks": 120,
          "midi": 65,
          "name": "F4",
          "ticks": 193776,
          "time": 137.624862375,
          "velocity": 0.30708661417322836
        },
        {
          "duration": 0.0852271875000099,
          "durationTicks": 120,
          "midi": 61,
          "name": "C#4",
          "ticks": 193776,
          "time": 137.624862375,
          "velocity": 0.30708661417322836
        },
        {
          "duration": 0.0852271875000099,
          "durationTicks": 120,
          "midi": 41,
          "name": "F2",
          "ticks": 193776,
          "time": 137.624862375,
          "velocity": 0.30708661417322836
        },
        {
          "duration": 0.0852271875000099,
          "durationTicks": 120,
          "midi": 53,
          "name": "F3",
          "ticks": 193776,
          "time": 137.624862375,
          "velocity": 0.30708661417322836
        },
        {
          "duration": 0.0852271875000099,
          "durationTicks": 120,
          "midi": 53,
          "name": "F3",
          "ticks": 193872,
          "time": 137.693044125,
          "velocity": 0.30708661417322836
        },
        {
          "duration": 0.0852271875000099,
          "durationTicks": 120,
          "midi": 82,
          "name": "A#5",
          "ticks": 193872,
          "time": 137.693044125,
          "velocity": 0.30708661417322836
        },
        {
          "duration": 0.0852271875000099,
          "durationTicks": 120,
          "midi": 70,
          "name": "A#4",
          "ticks": 193872,
          "time": 137.693044125,
          "velocity": 0.30708661417322836
        },
        {
          "duration": 0.0852271875000099,
          "durationTicks": 120,
          "midi": 82,
          "name": "A#5",
          "ticks": 193872,
          "time": 137.693044125,
          "velocity": 0.30708661417322836
        },
        {
          "duration": 0.0852271875000099,
          "durationTicks": 120,
          "midi": 58,
          "name": "A#3",
          "ticks": 193872,
          "time": 137.693044125,
          "velocity": 0.30708661417322836
        },
        {
          "duration": 0.0852271875000099,
          "durationTicks": 120,
          "midi": 46,
          "name": "A#2",
          "ticks": 193872,
          "time": 137.693044125,
          "velocity": 0.30708661417322836
        },
        {
          "duration": 0.0852271875000099,
          "durationTicks": 120,
          "midi": 89,
          "name": "F6",
          "ticks": 193872,
          "time": 137.693044125,
          "velocity": 0.30708661417322836
        },
        {
          "duration": 0.0852271875000099,
          "durationTicks": 120,
          "midi": 61,
          "name": "C#4",
          "ticks": 193872,
          "time": 137.693044125,
          "velocity": 0.30708661417322836
        },
        {
          "duration": 0.0852271875000099,
          "durationTicks": 120,
          "midi": 77,
          "name": "F5",
          "ticks": 193872,
          "time": 137.693044125,
          "velocity": 0.30708661417322836
        },
        {
          "duration": 0.0852271875000099,
          "durationTicks": 120,
          "midi": 73,
          "name": "C#5",
          "ticks": 193872,
          "time": 137.693044125,
          "velocity": 0.30708661417322836
        },
        {
          "duration": 0.0852271875000099,
          "durationTicks": 120,
          "midi": 89,
          "name": "F6",
          "ticks": 193872,
          "time": 137.693044125,
          "velocity": 0.30708661417322836
        },
        {
          "duration": 0.0852271875000099,
          "durationTicks": 120,
          "midi": 49,
          "name": "C#3",
          "ticks": 193872,
          "time": 137.693044125,
          "velocity": 0.30708661417322836
        },
        {
          "duration": 0.0852271875000099,
          "durationTicks": 120,
          "midi": 85,
          "name": "C#6",
          "ticks": 193872,
          "time": 137.693044125,
          "velocity": 0.30708661417322836
        },
        {
          "duration": 0.0852271875000099,
          "durationTicks": 120,
          "midi": 41,
          "name": "F2",
          "ticks": 193872,
          "time": 137.693044125,
          "velocity": 0.30708661417322836
        },
        {
          "duration": 0.0852271875000099,
          "durationTicks": 120,
          "midi": 49,
          "name": "C#3",
          "ticks": 193872,
          "time": 137.693044125,
          "velocity": 0.30708661417322836
        },
        {
          "duration": 0.0852271875000099,
          "durationTicks": 120,
          "midi": 70,
          "name": "A#4",
          "ticks": 193872,
          "time": 137.693044125,
          "velocity": 0.30708661417322836
        },
        {
          "duration": 0.0852271875000099,
          "durationTicks": 120,
          "midi": 49,
          "name": "C#3",
          "ticks": 193872,
          "time": 137.693044125,
          "velocity": 0.30708661417322836
        },
        {
          "duration": 0.0852271875000099,
          "durationTicks": 120,
          "midi": 85,
          "name": "C#6",
          "ticks": 193872,
          "time": 137.693044125,
          "velocity": 0.30708661417322836
        },
        {
          "duration": 0.0852271875000099,
          "durationTicks": 120,
          "midi": 73,
          "name": "C#5",
          "ticks": 193872,
          "time": 137.693044125,
          "velocity": 0.30708661417322836
        },
        {
          "duration": 0.0852271875000099,
          "durationTicks": 120,
          "midi": 49,
          "name": "C#3",
          "ticks": 193872,
          "time": 137.693044125,
          "velocity": 0.30708661417322836
        },
        {
          "duration": 0.0852271875000099,
          "durationTicks": 120,
          "midi": 46,
          "name": "A#2",
          "ticks": 193872,
          "time": 137.693044125,
          "velocity": 0.30708661417322836
        },
        {
          "duration": 0.0852271875000099,
          "durationTicks": 120,
          "midi": 58,
          "name": "A#3",
          "ticks": 193872,
          "time": 137.693044125,
          "velocity": 0.30708661417322836
        },
        {
          "duration": 0.0852271875000099,
          "durationTicks": 120,
          "midi": 53,
          "name": "F3",
          "ticks": 193872,
          "time": 137.693044125,
          "velocity": 0.30708661417322836
        },
        {
          "duration": 0.0852271875000099,
          "durationTicks": 120,
          "midi": 65,
          "name": "F4",
          "ticks": 193872,
          "time": 137.693044125,
          "velocity": 0.30708661417322836
        },
        {
          "duration": 0.0852271875000099,
          "durationTicks": 120,
          "midi": 53,
          "name": "F3",
          "ticks": 193872,
          "time": 137.693044125,
          "velocity": 0.30708661417322836
        },
        {
          "duration": 0.0852271875000099,
          "durationTicks": 120,
          "midi": 53,
          "name": "F3",
          "ticks": 193872,
          "time": 137.693044125,
          "velocity": 0.30708661417322836
        },
        {
          "duration": 0.0852271875000099,
          "durationTicks": 120,
          "midi": 41,
          "name": "F2",
          "ticks": 193872,
          "time": 137.693044125,
          "velocity": 0.30708661417322836
        },
        {
          "duration": 0.0852271875000099,
          "durationTicks": 120,
          "midi": 65,
          "name": "F4",
          "ticks": 193872,
          "time": 137.693044125,
          "velocity": 0.30708661417322836
        },
        {
          "duration": 0.0852271875000099,
          "durationTicks": 120,
          "midi": 61,
          "name": "C#4",
          "ticks": 193872,
          "time": 137.693044125,
          "velocity": 0.30708661417322836
        },
        {
          "duration": 0.0852271875000099,
          "durationTicks": 120,
          "midi": 77,
          "name": "F5",
          "ticks": 193872,
          "time": 137.693044125,
          "velocity": 0.30708661417322836
        },
        {
          "duration": 0.0852271875000099,
          "durationTicks": 120,
          "midi": 61,
          "name": "C#4",
          "ticks": 193896,
          "time": 137.7100895625,
          "velocity": 0.30708661417322836
        },
        {
          "duration": 0.0852271875000099,
          "durationTicks": 120,
          "midi": 53,
          "name": "F3",
          "ticks": 193896,
          "time": 137.7100895625,
          "velocity": 0.30708661417322836
        },
        {
          "duration": 0.0852271875000099,
          "durationTicks": 120,
          "midi": 49,
          "name": "C#3",
          "ticks": 193896,
          "time": 137.7100895625,
          "velocity": 0.30708661417322836
        },
        {
          "duration": 0.0852271875000099,
          "durationTicks": 120,
          "midi": 46,
          "name": "A#2",
          "ticks": 193896,
          "time": 137.7100895625,
          "velocity": 0.30708661417322836
        },
        {
          "duration": 0.0852271875000099,
          "durationTicks": 120,
          "midi": 85,
          "name": "C#6",
          "ticks": 193896,
          "time": 137.7100895625,
          "velocity": 0.30708661417322836
        },
        {
          "duration": 0.0852271875000099,
          "durationTicks": 120,
          "midi": 73,
          "name": "C#5",
          "ticks": 193896,
          "time": 137.7100895625,
          "velocity": 0.30708661417322836
        },
        {
          "duration": 0.0852271875000099,
          "durationTicks": 120,
          "midi": 70,
          "name": "A#4",
          "ticks": 193896,
          "time": 137.7100895625,
          "velocity": 0.30708661417322836
        },
        {
          "duration": 0.0852271875000099,
          "durationTicks": 120,
          "midi": 53,
          "name": "F3",
          "ticks": 193896,
          "time": 137.7100895625,
          "velocity": 0.30708661417322836
        },
        {
          "duration": 0.0852271875000099,
          "durationTicks": 120,
          "midi": 82,
          "name": "A#5",
          "ticks": 193896,
          "time": 137.7100895625,
          "velocity": 0.30708661417322836
        },
        {
          "duration": 0.0852271875000099,
          "durationTicks": 120,
          "midi": 77,
          "name": "F5",
          "ticks": 193896,
          "time": 137.7100895625,
          "velocity": 0.30708661417322836
        },
        {
          "duration": 0.0852271875000099,
          "durationTicks": 120,
          "midi": 58,
          "name": "A#3",
          "ticks": 193896,
          "time": 137.7100895625,
          "velocity": 0.30708661417322836
        },
        {
          "duration": 0.0852271875000099,
          "durationTicks": 120,
          "midi": 41,
          "name": "F2",
          "ticks": 193896,
          "time": 137.7100895625,
          "velocity": 0.30708661417322836
        },
        {
          "duration": 0.0852271875000099,
          "durationTicks": 120,
          "midi": 49,
          "name": "C#3",
          "ticks": 193896,
          "time": 137.7100895625,
          "velocity": 0.30708661417322836
        },
        {
          "duration": 0.0852271875000099,
          "durationTicks": 120,
          "midi": 89,
          "name": "F6",
          "ticks": 193896,
          "time": 137.7100895625,
          "velocity": 0.30708661417322836
        },
        {
          "duration": 0.0852271875000099,
          "durationTicks": 120,
          "midi": 65,
          "name": "F4",
          "ticks": 193896,
          "time": 137.7100895625,
          "velocity": 0.30708661417322836
        },
        {
          "duration": 0.08522718749998148,
          "durationTicks": 120,
          "midi": 61,
          "name": "C#4",
          "ticks": 193992,
          "time": 137.7782713125,
          "velocity": 0.30708661417322836
        },
        {
          "duration": 0.08522718749998148,
          "durationTicks": 120,
          "midi": 82,
          "name": "A#5",
          "ticks": 193992,
          "time": 137.7782713125,
          "velocity": 0.30708661417322836
        },
        {
          "duration": 0.08522718749998148,
          "durationTicks": 120,
          "midi": 53,
          "name": "F3",
          "ticks": 193992,
          "time": 137.7782713125,
          "velocity": 0.30708661417322836
        },
        {
          "duration": 0.08522718749998148,
          "durationTicks": 120,
          "midi": 58,
          "name": "A#3",
          "ticks": 193992,
          "time": 137.7782713125,
          "velocity": 0.30708661417322836
        },
        {
          "duration": 0.08522718749998148,
          "durationTicks": 120,
          "midi": 82,
          "name": "A#5",
          "ticks": 193992,
          "time": 137.7782713125,
          "velocity": 0.30708661417322836
        },
        {
          "duration": 0.08522718749998148,
          "durationTicks": 120,
          "midi": 65,
          "name": "F4",
          "ticks": 193992,
          "time": 137.7782713125,
          "velocity": 0.30708661417322836
        },
        {
          "duration": 0.08522718749998148,
          "durationTicks": 120,
          "midi": 49,
          "name": "C#3",
          "ticks": 193992,
          "time": 137.7782713125,
          "velocity": 0.30708661417322836
        },
        {
          "duration": 0.08522718749998148,
          "durationTicks": 120,
          "midi": 70,
          "name": "A#4",
          "ticks": 193992,
          "time": 137.7782713125,
          "velocity": 0.30708661417322836
        },
        {
          "duration": 0.08522718749998148,
          "durationTicks": 120,
          "midi": 85,
          "name": "C#6",
          "ticks": 193992,
          "time": 137.7782713125,
          "velocity": 0.30708661417322836
        },
        {
          "duration": 0.08522718749998148,
          "durationTicks": 120,
          "midi": 41,
          "name": "F2",
          "ticks": 193992,
          "time": 137.7782713125,
          "velocity": 0.30708661417322836
        },
        {
          "duration": 0.08522718749998148,
          "durationTicks": 120,
          "midi": 73,
          "name": "C#5",
          "ticks": 193992,
          "time": 137.7782713125,
          "velocity": 0.30708661417322836
        },
        {
          "duration": 0.08522718749998148,
          "durationTicks": 120,
          "midi": 46,
          "name": "A#2",
          "ticks": 193992,
          "time": 137.7782713125,
          "velocity": 0.30708661417322836
        },
        {
          "duration": 0.08522718749998148,
          "durationTicks": 120,
          "midi": 65,
          "name": "F4",
          "ticks": 193992,
          "time": 137.7782713125,
          "velocity": 0.30708661417322836
        },
        {
          "duration": 0.08522718749998148,
          "durationTicks": 120,
          "midi": 70,
          "name": "A#4",
          "ticks": 193992,
          "time": 137.7782713125,
          "velocity": 0.30708661417322836
        },
        {
          "duration": 0.08522718749998148,
          "durationTicks": 120,
          "midi": 49,
          "name": "C#3",
          "ticks": 193992,
          "time": 137.7782713125,
          "velocity": 0.30708661417322836
        },
        {
          "duration": 0.08522718749998148,
          "durationTicks": 120,
          "midi": 85,
          "name": "C#6",
          "ticks": 193992,
          "time": 137.7782713125,
          "velocity": 0.30708661417322836
        },
        {
          "duration": 0.08522718749998148,
          "durationTicks": 120,
          "midi": 77,
          "name": "F5",
          "ticks": 193992,
          "time": 137.7782713125,
          "velocity": 0.30708661417322836
        },
        {
          "duration": 0.08522718749998148,
          "durationTicks": 120,
          "midi": 41,
          "name": "F2",
          "ticks": 193992,
          "time": 137.7782713125,
          "velocity": 0.30708661417322836
        },
        {
          "duration": 0.08522718749998148,
          "durationTicks": 120,
          "midi": 89,
          "name": "F6",
          "ticks": 193992,
          "time": 137.7782713125,
          "velocity": 0.30708661417322836
        },
        {
          "duration": 0.08522718749998148,
          "durationTicks": 120,
          "midi": 61,
          "name": "C#4",
          "ticks": 193992,
          "time": 137.7782713125,
          "velocity": 0.30708661417322836
        },
        {
          "duration": 0.08522718749998148,
          "durationTicks": 120,
          "midi": 89,
          "name": "F6",
          "ticks": 193992,
          "time": 137.7782713125,
          "velocity": 0.30708661417322836
        },
        {
          "duration": 0.08522718749998148,
          "durationTicks": 120,
          "midi": 73,
          "name": "C#5",
          "ticks": 193992,
          "time": 137.7782713125,
          "velocity": 0.30708661417322836
        },
        {
          "duration": 0.08522718749998148,
          "durationTicks": 120,
          "midi": 58,
          "name": "A#3",
          "ticks": 193992,
          "time": 137.7782713125,
          "velocity": 0.30708661417322836
        },
        {
          "duration": 0.08522718749998148,
          "durationTicks": 120,
          "midi": 77,
          "name": "F5",
          "ticks": 193992,
          "time": 137.7782713125,
          "velocity": 0.30708661417322836
        },
        {
          "duration": 0.08522718749998148,
          "durationTicks": 120,
          "midi": 53,
          "name": "F3",
          "ticks": 193992,
          "time": 137.7782713125,
          "velocity": 0.30708661417322836
        },
        {
          "duration": 0.08522718749998148,
          "durationTicks": 120,
          "midi": 46,
          "name": "A#2",
          "ticks": 193992,
          "time": 137.7782713125,
          "velocity": 0.30708661417322836
        },
        {
          "duration": 0.08522718749998148,
          "durationTicks": 120,
          "midi": 85,
          "name": "C#6",
          "ticks": 194016,
          "time": 137.79531675,
          "velocity": 0.30708661417322836
        },
        {
          "duration": 0.08522718749998148,
          "durationTicks": 120,
          "midi": 61,
          "name": "C#4",
          "ticks": 194016,
          "time": 137.79531675,
          "velocity": 0.30708661417322836
        },
        {
          "duration": 0.08522718749998148,
          "durationTicks": 120,
          "midi": 46,
          "name": "A#2",
          "ticks": 194016,
          "time": 137.79531675,
          "velocity": 0.30708661417322836
        },
        {
          "duration": 0.08522718749998148,
          "durationTicks": 120,
          "midi": 49,
          "name": "C#3",
          "ticks": 194016,
          "time": 137.79531675,
          "velocity": 0.30708661417322836
        },
        {
          "duration": 0.08522718749998148,
          "durationTicks": 120,
          "midi": 58,
          "name": "A#3",
          "ticks": 194016,
          "time": 137.79531675,
          "velocity": 0.30708661417322836
        },
        {
          "duration": 0.08522718749998148,
          "durationTicks": 120,
          "midi": 82,
          "name": "A#5",
          "ticks": 194016,
          "time": 137.79531675,
          "velocity": 0.30708661417322836
        },
        {
          "duration": 0.08522718749998148,
          "durationTicks": 120,
          "midi": 73,
          "name": "C#5",
          "ticks": 194016,
          "time": 137.79531675,
          "velocity": 0.30708661417322836
        },
        {
          "duration": 0.08522718749998148,
          "durationTicks": 120,
          "midi": 41,
          "name": "F2",
          "ticks": 194016,
          "time": 137.79531675,
          "velocity": 0.30708661417322836
        },
        {
          "duration": 0.08522718749998148,
          "durationTicks": 120,
          "midi": 65,
          "name": "F4",
          "ticks": 194016,
          "time": 137.79531675,
          "velocity": 0.30708661417322836
        },
        {
          "duration": 0.08522718749998148,
          "durationTicks": 120,
          "midi": 53,
          "name": "F3",
          "ticks": 194016,
          "time": 137.79531675,
          "velocity": 0.30708661417322836
        },
        {
          "duration": 0.08522718749998148,
          "durationTicks": 120,
          "midi": 70,
          "name": "A#4",
          "ticks": 194016,
          "time": 137.79531675,
          "velocity": 0.30708661417322836
        },
        {
          "duration": 0.08522718749998148,
          "durationTicks": 120,
          "midi": 77,
          "name": "F5",
          "ticks": 194016,
          "time": 137.79531675,
          "velocity": 0.30708661417322836
        },
        {
          "duration": 0.08522718749998148,
          "durationTicks": 120,
          "midi": 89,
          "name": "F6",
          "ticks": 194016,
          "time": 137.79531675,
          "velocity": 0.30708661417322836
        },
        {
          "duration": 0.0852271875000099,
          "durationTicks": 120,
          "midi": 46,
          "name": "A#2",
          "ticks": 194112,
          "time": 137.8634985,
          "velocity": 0.30708661417322836
        },
        {
          "duration": 0.0852271875000099,
          "durationTicks": 120,
          "midi": 41,
          "name": "F2",
          "ticks": 194112,
          "time": 137.8634985,
          "velocity": 0.30708661417322836
        },
        {
          "duration": 0.0852271875000099,
          "durationTicks": 120,
          "midi": 70,
          "name": "A#4",
          "ticks": 194112,
          "time": 137.8634985,
          "velocity": 0.30708661417322836
        },
        {
          "duration": 0.0852271875000099,
          "durationTicks": 120,
          "midi": 77,
          "name": "F5",
          "ticks": 194112,
          "time": 137.8634985,
          "velocity": 0.30708661417322836
        },
        {
          "duration": 0.0852271875000099,
          "durationTicks": 120,
          "midi": 49,
          "name": "C#3",
          "ticks": 194112,
          "time": 137.8634985,
          "velocity": 0.30708661417322836
        },
        {
          "duration": 0.0852271875000099,
          "durationTicks": 120,
          "midi": 41,
          "name": "F2",
          "ticks": 194112,
          "time": 137.8634985,
          "velocity": 0.30708661417322836
        },
        {
          "duration": 0.0852271875000099,
          "durationTicks": 120,
          "midi": 70,
          "name": "A#4",
          "ticks": 194112,
          "time": 137.8634985,
          "velocity": 0.30708661417322836
        },
        {
          "duration": 0.0852271875000099,
          "durationTicks": 120,
          "midi": 53,
          "name": "F3",
          "ticks": 194112,
          "time": 137.8634985,
          "velocity": 0.30708661417322836
        },
        {
          "duration": 0.0852271875000099,
          "durationTicks": 120,
          "midi": 89,
          "name": "F6",
          "ticks": 194112,
          "time": 137.8634985,
          "velocity": 0.30708661417322836
        },
        {
          "duration": 0.0852271875000099,
          "durationTicks": 120,
          "midi": 73,
          "name": "C#5",
          "ticks": 194112,
          "time": 137.8634985,
          "velocity": 0.30708661417322836
        },
        {
          "duration": 0.0852271875000099,
          "durationTicks": 120,
          "midi": 46,
          "name": "A#2",
          "ticks": 194112,
          "time": 137.8634985,
          "velocity": 0.30708661417322836
        },
        {
          "duration": 0.0852271875000099,
          "durationTicks": 120,
          "midi": 49,
          "name": "C#3",
          "ticks": 194112,
          "time": 137.8634985,
          "velocity": 0.30708661417322836
        },
        {
          "duration": 0.0852271875000099,
          "durationTicks": 120,
          "midi": 77,
          "name": "F5",
          "ticks": 194112,
          "time": 137.8634985,
          "velocity": 0.30708661417322836
        },
        {
          "duration": 0.0852271875000099,
          "durationTicks": 120,
          "midi": 61,
          "name": "C#4",
          "ticks": 194112,
          "time": 137.8634985,
          "velocity": 0.30708661417322836
        },
        {
          "duration": 0.0852271875000099,
          "durationTicks": 120,
          "midi": 82,
          "name": "A#5",
          "ticks": 194112,
          "time": 137.8634985,
          "velocity": 0.30708661417322836
        },
        {
          "duration": 0.0852271875000099,
          "durationTicks": 120,
          "midi": 85,
          "name": "C#6",
          "ticks": 194112,
          "time": 137.8634985,
          "velocity": 0.30708661417322836
        },
        {
          "duration": 0.0852271875000099,
          "durationTicks": 120,
          "midi": 65,
          "name": "F4",
          "ticks": 194112,
          "time": 137.8634985,
          "velocity": 0.30708661417322836
        },
        {
          "duration": 0.0852271875000099,
          "durationTicks": 120,
          "midi": 89,
          "name": "F6",
          "ticks": 194112,
          "time": 137.8634985,
          "velocity": 0.30708661417322836
        },
        {
          "duration": 0.0852271875000099,
          "durationTicks": 120,
          "midi": 85,
          "name": "C#6",
          "ticks": 194112,
          "time": 137.8634985,
          "velocity": 0.30708661417322836
        },
        {
          "duration": 0.0852271875000099,
          "durationTicks": 120,
          "midi": 41,
          "name": "F2",
          "ticks": 194112,
          "time": 137.8634985,
          "velocity": 0.30708661417322836
        },
        {
          "duration": 0.0852271875000099,
          "durationTicks": 120,
          "midi": 58,
          "name": "A#3",
          "ticks": 194112,
          "time": 137.8634985,
          "velocity": 0.30708661417322836
        },
        {
          "duration": 0.0852271875000099,
          "durationTicks": 120,
          "midi": 53,
          "name": "F3",
          "ticks": 194112,
          "time": 137.8634985,
          "velocity": 0.30708661417322836
        },
        {
          "duration": 0.0852271875000099,
          "durationTicks": 120,
          "midi": 82,
          "name": "A#5",
          "ticks": 194112,
          "time": 137.8634985,
          "velocity": 0.30708661417322836
        },
        {
          "duration": 0.0852271875000099,
          "durationTicks": 120,
          "midi": 73,
          "name": "C#5",
          "ticks": 194112,
          "time": 137.8634985,
          "velocity": 0.30708661417322836
        },
        {
          "duration": 0.0852271875000099,
          "durationTicks": 120,
          "midi": 61,
          "name": "C#4",
          "ticks": 194112,
          "time": 137.8634985,
          "velocity": 0.30708661417322836
        },
        {
          "duration": 0.0852271875000099,
          "durationTicks": 120,
          "midi": 41,
          "name": "F2",
          "ticks": 194112,
          "time": 137.8634985,
          "velocity": 0.30708661417322836
        },
        {
          "duration": 0.0852271875000099,
          "durationTicks": 120,
          "midi": 65,
          "name": "F4",
          "ticks": 194112,
          "time": 137.8634985,
          "velocity": 0.30708661417322836
        },
        {
          "duration": 0.0852271875000099,
          "durationTicks": 120,
          "midi": 58,
          "name": "A#3",
          "ticks": 194112,
          "time": 137.8634985,
          "velocity": 0.30708661417322836
        },
        {
          "duration": 0.0852271875000099,
          "durationTicks": 120,
          "midi": 46,
          "name": "A#2",
          "ticks": 194136,
          "time": 137.8805439375,
          "velocity": 0.30708661417322836
        },
        {
          "duration": 0.0852271875000099,
          "durationTicks": 120,
          "midi": 41,
          "name": "F2",
          "ticks": 194136,
          "time": 137.8805439375,
          "velocity": 0.30708661417322836
        },
        {
          "duration": 0.0852271875000099,
          "durationTicks": 120,
          "midi": 73,
          "name": "C#5",
          "ticks": 194136,
          "time": 137.8805439375,
          "velocity": 0.30708661417322836
        },
        {
          "duration": 0.0852271875000099,
          "durationTicks": 120,
          "midi": 49,
          "name": "C#3",
          "ticks": 194136,
          "time": 137.8805439375,
          "velocity": 0.30708661417322836
        },
        {
          "duration": 0.0852271875000099,
          "durationTicks": 120,
          "midi": 65,
          "name": "F4",
          "ticks": 194136,
          "time": 137.8805439375,
          "velocity": 0.30708661417322836
        },
        {
          "duration": 0.0852271875000099,
          "durationTicks": 120,
          "midi": 53,
          "name": "F3",
          "ticks": 194136,
          "time": 137.8805439375,
          "velocity": 0.30708661417322836
        },
        {
          "duration": 0.0852271875000099,
          "durationTicks": 120,
          "midi": 85,
          "name": "C#6",
          "ticks": 194136,
          "time": 137.8805439375,
          "velocity": 0.30708661417322836
        },
        {
          "duration": 0.0852271875000099,
          "durationTicks": 120,
          "midi": 61,
          "name": "C#4",
          "ticks": 194136,
          "time": 137.8805439375,
          "velocity": 0.30708661417322836
        },
        {
          "duration": 0.0852271875000099,
          "durationTicks": 120,
          "midi": 89,
          "name": "F6",
          "ticks": 194136,
          "time": 137.8805439375,
          "velocity": 0.30708661417322836
        },
        {
          "duration": 0.0852271875000099,
          "durationTicks": 120,
          "midi": 41,
          "name": "F2",
          "ticks": 194136,
          "time": 137.8805439375,
          "velocity": 0.30708661417322836
        },
        {
          "duration": 0.0852271875000099,
          "durationTicks": 120,
          "midi": 58,
          "name": "A#3",
          "ticks": 194136,
          "time": 137.8805439375,
          "velocity": 0.30708661417322836
        },
        {
          "duration": 0.0852271875000099,
          "durationTicks": 120,
          "midi": 82,
          "name": "A#5",
          "ticks": 194136,
          "time": 137.8805439375,
          "velocity": 0.30708661417322836
        },
        {
          "duration": 0.0852271875000099,
          "durationTicks": 120,
          "midi": 70,
          "name": "A#4",
          "ticks": 194136,
          "time": 137.8805439375,
          "velocity": 0.30708661417322836
        },
        {
          "duration": 0.0852271875000099,
          "durationTicks": 120,
          "midi": 77,
          "name": "F5",
          "ticks": 194136,
          "time": 137.8805439375,
          "velocity": 0.30708661417322836
        },
        {
          "duration": 0.0852271875000099,
          "durationTicks": 120,
          "midi": 41,
          "name": "F2",
          "ticks": 194232,
          "time": 137.9487256875,
          "velocity": 0.30708661417322836
        },
        {
          "duration": 0.0852271875000099,
          "durationTicks": 120,
          "midi": 61,
          "name": "C#4",
          "ticks": 194232,
          "time": 137.9487256875,
          "velocity": 0.30708661417322836
        },
        {
          "duration": 0.0852271875000099,
          "durationTicks": 120,
          "midi": 61,
          "name": "C#4",
          "ticks": 194232,
          "time": 137.9487256875,
          "velocity": 0.30708661417322836
        },
        {
          "duration": 0.0852271875000099,
          "durationTicks": 120,
          "midi": 77,
          "name": "F5",
          "ticks": 194232,
          "time": 137.9487256875,
          "velocity": 0.30708661417322836
        },
        {
          "duration": 0.0852271875000099,
          "durationTicks": 120,
          "midi": 49,
          "name": "C#3",
          "ticks": 194232,
          "time": 137.9487256875,
          "velocity": 0.30708661417322836
        },
        {
          "duration": 0.0852271875000099,
          "durationTicks": 120,
          "midi": 53,
          "name": "F3",
          "ticks": 194232,
          "time": 137.9487256875,
          "velocity": 0.30708661417322836
        },
        {
          "duration": 0.0852271875000099,
          "durationTicks": 120,
          "midi": 89,
          "name": "F6",
          "ticks": 194232,
          "time": 137.9487256875,
          "velocity": 0.30708661417322836
        },
        {
          "duration": 0.0852271875000099,
          "durationTicks": 120,
          "midi": 70,
          "name": "A#4",
          "ticks": 194232,
          "time": 137.9487256875,
          "velocity": 0.30708661417322836
        },
        {
          "duration": 0.0852271875000099,
          "durationTicks": 120,
          "midi": 70,
          "name": "A#4",
          "ticks": 194232,
          "time": 137.9487256875,
          "velocity": 0.30708661417322836
        },
        {
          "duration": 0.0852271875000099,
          "durationTicks": 120,
          "midi": 82,
          "name": "A#5",
          "ticks": 194232,
          "time": 137.9487256875,
          "velocity": 0.30708661417322836
        },
        {
          "duration": 0.0852271875000099,
          "durationTicks": 120,
          "midi": 46,
          "name": "A#2",
          "ticks": 194232,
          "time": 137.9487256875,
          "velocity": 0.30708661417322836
        },
        {
          "duration": 0.0852271875000099,
          "durationTicks": 120,
          "midi": 65,
          "name": "F4",
          "ticks": 194232,
          "time": 137.9487256875,
          "velocity": 0.30708661417322836
        },
        {
          "duration": 0.0852271875000099,
          "durationTicks": 120,
          "midi": 85,
          "name": "C#6",
          "ticks": 194232,
          "time": 137.9487256875,
          "velocity": 0.30708661417322836
        },
        {
          "duration": 0.0852271875000099,
          "durationTicks": 120,
          "midi": 58,
          "name": "A#3",
          "ticks": 194232,
          "time": 137.9487256875,
          "velocity": 0.30708661417322836
        },
        {
          "duration": 0.0852271875000099,
          "durationTicks": 120,
          "midi": 58,
          "name": "A#3",
          "ticks": 194232,
          "time": 137.9487256875,
          "velocity": 0.30708661417322836
        },
        {
          "duration": 0.0852271875000099,
          "durationTicks": 120,
          "midi": 85,
          "name": "C#6",
          "ticks": 194232,
          "time": 137.9487256875,
          "velocity": 0.30708661417322836
        },
        {
          "duration": 0.0852271875000099,
          "durationTicks": 120,
          "midi": 82,
          "name": "A#5",
          "ticks": 194232,
          "time": 137.9487256875,
          "velocity": 0.30708661417322836
        },
        {
          "duration": 0.0852271875000099,
          "durationTicks": 120,
          "midi": 73,
          "name": "C#5",
          "ticks": 194232,
          "time": 137.9487256875,
          "velocity": 0.30708661417322836
        },
        {
          "duration": 0.0852271875000099,
          "durationTicks": 120,
          "midi": 89,
          "name": "F6",
          "ticks": 194232,
          "time": 137.9487256875,
          "velocity": 0.30708661417322836
        },
        {
          "duration": 0.0852271875000099,
          "durationTicks": 120,
          "midi": 65,
          "name": "F4",
          "ticks": 194232,
          "time": 137.9487256875,
          "velocity": 0.30708661417322836
        },
        {
          "duration": 0.0852271875000099,
          "durationTicks": 120,
          "midi": 53,
          "name": "F3",
          "ticks": 194232,
          "time": 137.9487256875,
          "velocity": 0.30708661417322836
        },
        {
          "duration": 0.0852271875000099,
          "durationTicks": 120,
          "midi": 46,
          "name": "A#2",
          "ticks": 194232,
          "time": 137.9487256875,
          "velocity": 0.30708661417322836
        },
        {
          "duration": 0.0852271875000099,
          "durationTicks": 120,
          "midi": 73,
          "name": "C#5",
          "ticks": 194232,
          "time": 137.9487256875,
          "velocity": 0.30708661417322836
        },
        {
          "duration": 0.0852271875000099,
          "durationTicks": 120,
          "midi": 49,
          "name": "C#3",
          "ticks": 194232,
          "time": 137.9487256875,
          "velocity": 0.30708661417322836
        },
        {
          "duration": 0.0852271875000099,
          "durationTicks": 120,
          "midi": 77,
          "name": "F5",
          "ticks": 194232,
          "time": 137.9487256875,
          "velocity": 0.30708661417322836
        },
        {
          "duration": 0.0852271875000099,
          "durationTicks": 120,
          "midi": 41,
          "name": "F2",
          "ticks": 194232,
          "time": 137.9487256875,
          "velocity": 0.30708661417322836
        },
        {
          "duration": 0.08522718749998148,
          "durationTicks": 120,
          "midi": 41,
          "name": "F2",
          "ticks": 194256,
          "time": 137.965771125,
          "velocity": 0.30708661417322836
        },
        {
          "duration": 0.08522718749998148,
          "durationTicks": 120,
          "midi": 65,
          "name": "F4",
          "ticks": 194256,
          "time": 137.965771125,
          "velocity": 0.30708661417322836
        },
        {
          "duration": 0.08522718749998148,
          "durationTicks": 120,
          "midi": 58,
          "name": "A#3",
          "ticks": 194256,
          "time": 137.965771125,
          "velocity": 0.30708661417322836
        },
        {
          "duration": 0.08522718749998148,
          "durationTicks": 120,
          "midi": 77,
          "name": "F5",
          "ticks": 194256,
          "time": 137.965771125,
          "velocity": 0.30708661417322836
        },
        {
          "duration": 0.08522718749998148,
          "durationTicks": 120,
          "midi": 82,
          "name": "A#5",
          "ticks": 194256,
          "time": 137.965771125,
          "velocity": 0.30708661417322836
        },
        {
          "duration": 0.08522718749998148,
          "durationTicks": 120,
          "midi": 89,
          "name": "F6",
          "ticks": 194256,
          "time": 137.965771125,
          "velocity": 0.30708661417322836
        },
        {
          "duration": 0.08522718749998148,
          "durationTicks": 120,
          "midi": 49,
          "name": "C#3",
          "ticks": 194256,
          "time": 137.965771125,
          "velocity": 0.30708661417322836
        },
        {
          "duration": 0.08522718749998148,
          "durationTicks": 120,
          "midi": 73,
          "name": "C#5",
          "ticks": 194256,
          "time": 137.965771125,
          "velocity": 0.30708661417322836
        },
        {
          "duration": 0.08522718749998148,
          "durationTicks": 120,
          "midi": 46,
          "name": "A#2",
          "ticks": 194256,
          "time": 137.965771125,
          "velocity": 0.30708661417322836
        },
        {
          "duration": 0.08522718749998148,
          "durationTicks": 120,
          "midi": 53,
          "name": "F3",
          "ticks": 194256,
          "time": 137.965771125,
          "velocity": 0.30708661417322836
        },
        {
          "duration": 0.08522718749998148,
          "durationTicks": 120,
          "midi": 61,
          "name": "C#4",
          "ticks": 194256,
          "time": 137.965771125,
          "velocity": 0.30708661417322836
        },
        {
          "duration": 0.08522718749998148,
          "durationTicks": 120,
          "midi": 85,
          "name": "C#6",
          "ticks": 194256,
          "time": 137.965771125,
          "velocity": 0.30708661417322836
        },
        {
          "duration": 0.08522718749998148,
          "durationTicks": 120,
          "midi": 70,
          "name": "A#4",
          "ticks": 194256,
          "time": 137.965771125,
          "velocity": 0.30708661417322836
        },
        {
          "duration": 0.08522718749998148,
          "durationTicks": 120,
          "midi": 49,
          "name": "C#3",
          "ticks": 194352,
          "time": 138.033952875,
          "velocity": 0.30708661417322836
        },
        {
          "duration": 0.08522718749998148,
          "durationTicks": 120,
          "midi": 53,
          "name": "F3",
          "ticks": 194352,
          "time": 138.033952875,
          "velocity": 0.30708661417322836
        },
        {
          "duration": 0.08522718749998148,
          "durationTicks": 120,
          "midi": 49,
          "name": "C#3",
          "ticks": 194352,
          "time": 138.033952875,
          "velocity": 0.30708661417322836
        },
        {
          "duration": 0.08522718749998148,
          "durationTicks": 120,
          "midi": 53,
          "name": "F3",
          "ticks": 194352,
          "time": 138.033952875,
          "velocity": 0.30708661417322836
        },
        {
          "duration": 0.08522718749998148,
          "durationTicks": 120,
          "midi": 49,
          "name": "C#3",
          "ticks": 194352,
          "time": 138.033952875,
          "velocity": 0.30708661417322836
        },
        {
          "duration": 0.08522718749998148,
          "durationTicks": 120,
          "midi": 77,
          "name": "F5",
          "ticks": 194352,
          "time": 138.033952875,
          "velocity": 0.30708661417322836
        },
        {
          "duration": 0.08522718749998148,
          "durationTicks": 120,
          "midi": 65,
          "name": "F4",
          "ticks": 194352,
          "time": 138.033952875,
          "velocity": 0.30708661417322836
        },
        {
          "duration": 0.08522718749998148,
          "durationTicks": 120,
          "midi": 46,
          "name": "A#2",
          "ticks": 194352,
          "time": 138.033952875,
          "velocity": 0.30708661417322836
        },
        {
          "duration": 0.08522718749998148,
          "durationTicks": 120,
          "midi": 82,
          "name": "A#5",
          "ticks": 194352,
          "time": 138.033952875,
          "velocity": 0.30708661417322836
        },
        {
          "duration": 0.08522718749998148,
          "durationTicks": 120,
          "midi": 77,
          "name": "F5",
          "ticks": 194352,
          "time": 138.033952875,
          "velocity": 0.30708661417322836
        },
        {
          "duration": 0.08522718749998148,
          "durationTicks": 120,
          "midi": 61,
          "name": "C#4",
          "ticks": 194352,
          "time": 138.033952875,
          "velocity": 0.30708661417322836
        },
        {
          "duration": 0.08522718749998148,
          "durationTicks": 120,
          "midi": 58,
          "name": "A#3",
          "ticks": 194352,
          "time": 138.033952875,
          "velocity": 0.30708661417322836
        },
        {
          "duration": 0.08522718749998148,
          "durationTicks": 120,
          "midi": 89,
          "name": "F6",
          "ticks": 194352,
          "time": 138.033952875,
          "velocity": 0.30708661417322836
        },
        {
          "duration": 0.08522718749998148,
          "durationTicks": 120,
          "midi": 61,
          "name": "C#4",
          "ticks": 194352,
          "time": 138.033952875,
          "velocity": 0.30708661417322836
        },
        {
          "duration": 0.08522718749998148,
          "durationTicks": 120,
          "midi": 53,
          "name": "F3",
          "ticks": 194352,
          "time": 138.033952875,
          "velocity": 0.30708661417322836
        },
        {
          "duration": 0.08522718749998148,
          "durationTicks": 120,
          "midi": 89,
          "name": "F6",
          "ticks": 194352,
          "time": 138.033952875,
          "velocity": 0.30708661417322836
        },
        {
          "duration": 0.08522718749998148,
          "durationTicks": 120,
          "midi": 53,
          "name": "F3",
          "ticks": 194352,
          "time": 138.033952875,
          "velocity": 0.30708661417322836
        },
        {
          "duration": 0.08522718749998148,
          "durationTicks": 120,
          "midi": 49,
          "name": "C#3",
          "ticks": 194352,
          "time": 138.033952875,
          "velocity": 0.30708661417322836
        },
        {
          "duration": 0.08522718749998148,
          "durationTicks": 120,
          "midi": 58,
          "name": "A#3",
          "ticks": 194352,
          "time": 138.033952875,
          "velocity": 0.30708661417322836
        },
        {
          "duration": 0.08522718749998148,
          "durationTicks": 120,
          "midi": 41,
          "name": "F2",
          "ticks": 194352,
          "time": 138.033952875,
          "velocity": 0.30708661417322836
        },
        {
          "duration": 0.08522718749998148,
          "durationTicks": 120,
          "midi": 73,
          "name": "C#5",
          "ticks": 194352,
          "time": 138.033952875,
          "velocity": 0.30708661417322836
        },
        {
          "duration": 0.08522718749998148,
          "durationTicks": 120,
          "midi": 85,
          "name": "C#6",
          "ticks": 194352,
          "time": 138.033952875,
          "velocity": 0.30708661417322836
        },
        {
          "duration": 0.08522718749998148,
          "durationTicks": 120,
          "midi": 46,
          "name": "A#2",
          "ticks": 194352,
          "time": 138.033952875,
          "velocity": 0.30708661417322836
        },
        {
          "duration": 0.08522718749998148,
          "durationTicks": 120,
          "midi": 70,
          "name": "A#4",
          "ticks": 194352,
          "time": 138.033952875,
          "velocity": 0.30708661417322836
        },
        {
          "duration": 0.08522718749998148,
          "durationTicks": 120,
          "midi": 65,
          "name": "F4",
          "ticks": 194352,
          "time": 138.033952875,
          "velocity": 0.30708661417322836
        },
        {
          "duration": 0.08522718749998148,
          "durationTicks": 120,
          "midi": 85,
          "name": "C#6",
          "ticks": 194352,
          "time": 138.033952875,
          "velocity": 0.30708661417322836
        },
        {
          "duration": 0.08522718749998148,
          "durationTicks": 120,
          "midi": 70,
          "name": "A#4",
          "ticks": 194352,
          "time": 138.033952875,
          "velocity": 0.30708661417322836
        },
        {
          "duration": 0.08522718749998148,
          "durationTicks": 120,
          "midi": 73,
          "name": "C#5",
          "ticks": 194352,
          "time": 138.033952875,
          "velocity": 0.30708661417322836
        },
        {
          "duration": 0.08522718749998148,
          "durationTicks": 120,
          "midi": 82,
          "name": "A#5",
          "ticks": 194352,
          "time": 138.033952875,
          "velocity": 0.30708661417322836
        },
        {
          "duration": 0.08522718749998148,
          "durationTicks": 120,
          "midi": 41,
          "name": "F2",
          "ticks": 194352,
          "time": 138.033952875,
          "velocity": 0.30708661417322836
        },
        {
          "duration": 0.0852271875000099,
          "durationTicks": 120,
          "midi": 58,
          "name": "A#3",
          "ticks": 194376,
          "time": 138.05099831249998,
          "velocity": 0.30708661417322836
        },
        {
          "duration": 0.0852271875000099,
          "durationTicks": 120,
          "midi": 53,
          "name": "F3",
          "ticks": 194376,
          "time": 138.05099831249998,
          "velocity": 0.30708661417322836
        },
        {
          "duration": 0.0852271875000099,
          "durationTicks": 120,
          "midi": 53,
          "name": "F3",
          "ticks": 194376,
          "time": 138.05099831249998,
          "velocity": 0.30708661417322836
        },
        {
          "duration": 0.0852271875000099,
          "durationTicks": 120,
          "midi": 61,
          "name": "C#4",
          "ticks": 194376,
          "time": 138.05099831249998,
          "velocity": 0.30708661417322836
        },
        {
          "duration": 0.0852271875000099,
          "durationTicks": 120,
          "midi": 46,
          "name": "A#2",
          "ticks": 194376,
          "time": 138.05099831249998,
          "velocity": 0.30708661417322836
        },
        {
          "duration": 0.0852271875000099,
          "durationTicks": 120,
          "midi": 85,
          "name": "C#6",
          "ticks": 194376,
          "time": 138.05099831249998,
          "velocity": 0.30708661417322836
        },
        {
          "duration": 0.0852271875000099,
          "durationTicks": 120,
          "midi": 49,
          "name": "C#3",
          "ticks": 194376,
          "time": 138.05099831249998,
          "velocity": 0.30708661417322836
        },
        {
          "duration": 0.0852271875000099,
          "durationTicks": 120,
          "midi": 89,
          "name": "F6",
          "ticks": 194376,
          "time": 138.05099831249998,
          "velocity": 0.30708661417322836
        },
        {
          "duration": 0.0852271875000099,
          "durationTicks": 120,
          "midi": 70,
          "name": "A#4",
          "ticks": 194376,
          "time": 138.05099831249998,
          "velocity": 0.30708661417322836
        },
        {
          "duration": 0.0852271875000099,
          "durationTicks": 120,
          "midi": 49,
          "name": "C#3",
          "ticks": 194376,
          "time": 138.05099831249998,
          "velocity": 0.30708661417322836
        },
        {
          "duration": 0.0852271875000099,
          "durationTicks": 120,
          "midi": 65,
          "name": "F4",
          "ticks": 194376,
          "time": 138.05099831249998,
          "velocity": 0.30708661417322836
        },
        {
          "duration": 0.0852271875000099,
          "durationTicks": 120,
          "midi": 82,
          "name": "A#5",
          "ticks": 194376,
          "time": 138.05099831249998,
          "velocity": 0.30708661417322836
        },
        {
          "duration": 0.0852271875000099,
          "durationTicks": 120,
          "midi": 41,
          "name": "F2",
          "ticks": 194376,
          "time": 138.05099831249998,
          "velocity": 0.30708661417322836
        },
        {
          "duration": 0.0852271875000099,
          "durationTicks": 120,
          "midi": 77,
          "name": "F5",
          "ticks": 194376,
          "time": 138.05099831249998,
          "velocity": 0.30708661417322836
        },
        {
          "duration": 0.0852271875000099,
          "durationTicks": 120,
          "midi": 73,
          "name": "C#5",
          "ticks": 194376,
          "time": 138.05099831249998,
          "velocity": 0.30708661417322836
        },
        {
          "duration": 0.0852271875000099,
          "durationTicks": 120,
          "midi": 49,
          "name": "C#3",
          "ticks": 194472,
          "time": 138.1191800625,
          "velocity": 0.30708661417322836
        },
        {
          "duration": 0.0852271875000099,
          "durationTicks": 120,
          "midi": 46,
          "name": "A#2",
          "ticks": 194472,
          "time": 138.1191800625,
          "velocity": 0.30708661417322836
        },
        {
          "duration": 0.0852271875000099,
          "durationTicks": 120,
          "midi": 73,
          "name": "C#5",
          "ticks": 194472,
          "time": 138.1191800625,
          "velocity": 0.30708661417322836
        },
        {
          "duration": 0.0852271875000099,
          "durationTicks": 120,
          "midi": 53,
          "name": "F3",
          "ticks": 194472,
          "time": 138.1191800625,
          "velocity": 0.30708661417322836
        },
        {
          "duration": 0.0852271875000099,
          "durationTicks": 120,
          "midi": 82,
          "name": "A#5",
          "ticks": 194472,
          "time": 138.1191800625,
          "velocity": 0.30708661417322836
        },
        {
          "duration": 0.0852271875000099,
          "durationTicks": 120,
          "midi": 61,
          "name": "C#4",
          "ticks": 194472,
          "time": 138.1191800625,
          "velocity": 0.30708661417322836
        },
        {
          "duration": 0.0852271875000099,
          "durationTicks": 120,
          "midi": 41,
          "name": "F2",
          "ticks": 194472,
          "time": 138.1191800625,
          "velocity": 0.30708661417322836
        },
        {
          "duration": 0.0852271875000099,
          "durationTicks": 120,
          "midi": 89,
          "name": "F6",
          "ticks": 194472,
          "time": 138.1191800625,
          "velocity": 0.30708661417322836
        },
        {
          "duration": 0.0852271875000099,
          "durationTicks": 120,
          "midi": 85,
          "name": "C#6",
          "ticks": 194472,
          "time": 138.1191800625,
          "velocity": 0.30708661417322836
        },
        {
          "duration": 0.0852271875000099,
          "durationTicks": 120,
          "midi": 58,
          "name": "A#3",
          "ticks": 194472,
          "time": 138.1191800625,
          "velocity": 0.30708661417322836
        },
        {
          "duration": 0.0852271875000099,
          "durationTicks": 120,
          "midi": 41,
          "name": "F2",
          "ticks": 194472,
          "time": 138.1191800625,
          "velocity": 0.30708661417322836
        },
        {
          "duration": 0.0852271875000099,
          "durationTicks": 120,
          "midi": 61,
          "name": "C#4",
          "ticks": 194472,
          "time": 138.1191800625,
          "velocity": 0.30708661417322836
        },
        {
          "duration": 0.0852271875000099,
          "durationTicks": 120,
          "midi": 70,
          "name": "A#4",
          "ticks": 194472,
          "time": 138.1191800625,
          "velocity": 0.30708661417322836
        },
        {
          "duration": 0.0852271875000099,
          "durationTicks": 120,
          "midi": 73,
          "name": "C#5",
          "ticks": 194472,
          "time": 138.1191800625,
          "velocity": 0.30708661417322836
        },
        {
          "duration": 0.0852271875000099,
          "durationTicks": 120,
          "midi": 65,
          "name": "F4",
          "ticks": 194472,
          "time": 138.1191800625,
          "velocity": 0.30708661417322836
        },
        {
          "duration": 0.0852271875000099,
          "durationTicks": 120,
          "midi": 77,
          "name": "F5",
          "ticks": 194472,
          "time": 138.1191800625,
          "velocity": 0.30708661417322836
        },
        {
          "duration": 0.0852271875000099,
          "durationTicks": 120,
          "midi": 70,
          "name": "A#4",
          "ticks": 194472,
          "time": 138.1191800625,
          "velocity": 0.30708661417322836
        },
        {
          "duration": 0.0852271875000099,
          "durationTicks": 120,
          "midi": 53,
          "name": "F3",
          "ticks": 194472,
          "time": 138.1191800625,
          "velocity": 0.30708661417322836
        },
        {
          "duration": 0.0852271875000099,
          "durationTicks": 120,
          "midi": 58,
          "name": "A#3",
          "ticks": 194472,
          "time": 138.1191800625,
          "velocity": 0.30708661417322836
        },
        {
          "duration": 0.0852271875000099,
          "durationTicks": 120,
          "midi": 49,
          "name": "C#3",
          "ticks": 194472,
          "time": 138.1191800625,
          "velocity": 0.30708661417322836
        },
        {
          "duration": 0.0852271875000099,
          "durationTicks": 120,
          "midi": 85,
          "name": "C#6",
          "ticks": 194472,
          "time": 138.1191800625,
          "velocity": 0.30708661417322836
        },
        {
          "duration": 0.0852271875000099,
          "durationTicks": 120,
          "midi": 82,
          "name": "A#5",
          "ticks": 194472,
          "time": 138.1191800625,
          "velocity": 0.30708661417322836
        },
        {
          "duration": 0.0852271875000099,
          "durationTicks": 120,
          "midi": 77,
          "name": "F5",
          "ticks": 194472,
          "time": 138.1191800625,
          "velocity": 0.30708661417322836
        },
        {
          "duration": 0.0852271875000099,
          "durationTicks": 120,
          "midi": 46,
          "name": "A#2",
          "ticks": 194472,
          "time": 138.1191800625,
          "velocity": 0.30708661417322836
        },
        {
          "duration": 0.0852271875000099,
          "durationTicks": 120,
          "midi": 65,
          "name": "F4",
          "ticks": 194472,
          "time": 138.1191800625,
          "velocity": 0.30708661417322836
        },
        {
          "duration": 0.0852271875000099,
          "durationTicks": 120,
          "midi": 89,
          "name": "F6",
          "ticks": 194472,
          "time": 138.1191800625,
          "velocity": 0.30708661417322836
        },
        {
          "duration": 0.0852271875000099,
          "durationTicks": 120,
          "midi": 61,
          "name": "C#4",
          "ticks": 194496,
          "time": 138.1362255,
          "velocity": 0.30708661417322836
        },
        {
          "duration": 0.0852271875000099,
          "durationTicks": 120,
          "midi": 73,
          "name": "C#5",
          "ticks": 194496,
          "time": 138.1362255,
          "velocity": 0.30708661417322836
        },
        {
          "duration": 0.0852271875000099,
          "durationTicks": 120,
          "midi": 70,
          "name": "A#4",
          "ticks": 194496,
          "time": 138.1362255,
          "velocity": 0.30708661417322836
        },
        {
          "duration": 0.0852271875000099,
          "durationTicks": 120,
          "midi": 46,
          "name": "A#2",
          "ticks": 194496,
          "time": 138.1362255,
          "velocity": 0.30708661417322836
        },
        {
          "duration": 0.0852271875000099,
          "durationTicks": 120,
          "midi": 41,
          "name": "F2",
          "ticks": 194496,
          "time": 138.1362255,
          "velocity": 0.30708661417322836
        },
        {
          "duration": 0.0852271875000099,
          "durationTicks": 120,
          "midi": 82,
          "name": "A#5",
          "ticks": 194496,
          "time": 138.1362255,
          "velocity": 0.30708661417322836
        },
        {
          "duration": 0.0852271875000099,
          "durationTicks": 120,
          "midi": 58,
          "name": "A#3",
          "ticks": 194496,
          "time": 138.1362255,
          "velocity": 0.30708661417322836
        },
        {
          "duration": 0.0852271875000099,
          "durationTicks": 120,
          "midi": 53,
          "name": "F3",
          "ticks": 194496,
          "time": 138.1362255,
          "velocity": 0.30708661417322836
        },
        {
          "duration": 0.0852271875000099,
          "durationTicks": 120,
          "midi": 77,
          "name": "F5",
          "ticks": 194496,
          "time": 138.1362255,
          "velocity": 0.30708661417322836
        },
        {
          "duration": 0.0852271875000099,
          "durationTicks": 120,
          "midi": 85,
          "name": "C#6",
          "ticks": 194496,
          "time": 138.1362255,
          "velocity": 0.30708661417322836
        },
        {
          "duration": 0.0852271875000099,
          "durationTicks": 120,
          "midi": 65,
          "name": "F4",
          "ticks": 194496,
          "time": 138.1362255,
          "velocity": 0.30708661417322836
        },
        {
          "duration": 0.0852271875000099,
          "durationTicks": 120,
          "midi": 89,
          "name": "F6",
          "ticks": 194496,
          "time": 138.1362255,
          "velocity": 0.30708661417322836
        },
        {
          "duration": 0.0852271875000099,
          "durationTicks": 120,
          "midi": 49,
          "name": "C#3",
          "ticks": 194496,
          "time": 138.1362255,
          "velocity": 0.30708661417322836
        },
        {
          "duration": 0.0852271875000099,
          "durationTicks": 120,
          "midi": 70,
          "name": "A#4",
          "ticks": 194592,
          "time": 138.20440725,
          "velocity": 0.30708661417322836
        },
        {
          "duration": 0.0852271875000099,
          "durationTicks": 120,
          "midi": 41,
          "name": "F2",
          "ticks": 194592,
          "time": 138.20440725,
          "velocity": 0.30708661417322836
        },
        {
          "duration": 0.0852271875000099,
          "durationTicks": 120,
          "midi": 65,
          "name": "F4",
          "ticks": 194592,
          "time": 138.20440725,
          "velocity": 0.30708661417322836
        },
        {
          "duration": 0.0852271875000099,
          "durationTicks": 120,
          "midi": 61,
          "name": "C#4",
          "ticks": 194592,
          "time": 138.20440725,
          "velocity": 0.30708661417322836
        },
        {
          "duration": 0.0852271875000099,
          "durationTicks": 120,
          "midi": 85,
          "name": "C#6",
          "ticks": 194592,
          "time": 138.20440725,
          "velocity": 0.30708661417322836
        },
        {
          "duration": 0.0852271875000099,
          "durationTicks": 120,
          "midi": 49,
          "name": "C#3",
          "ticks": 194592,
          "time": 138.20440725,
          "velocity": 0.30708661417322836
        },
        {
          "duration": 0.0852271875000099,
          "durationTicks": 120,
          "midi": 53,
          "name": "F3",
          "ticks": 194592,
          "time": 138.20440725,
          "velocity": 0.30708661417322836
        },
        {
          "duration": 0.0852271875000099,
          "durationTicks": 120,
          "midi": 89,
          "name": "F6",
          "ticks": 194592,
          "time": 138.20440725,
          "velocity": 0.30708661417322836
        },
        {
          "duration": 0.0852271875000099,
          "durationTicks": 120,
          "midi": 82,
          "name": "A#5",
          "ticks": 194592,
          "time": 138.20440725,
          "velocity": 0.30708661417322836
        },
        {
          "duration": 0.0852271875000099,
          "durationTicks": 120,
          "midi": 58,
          "name": "A#3",
          "ticks": 194592,
          "time": 138.20440725,
          "velocity": 0.30708661417322836
        },
        {
          "duration": 0.0852271875000099,
          "durationTicks": 120,
          "midi": 73,
          "name": "C#5",
          "ticks": 194592,
          "time": 138.20440725,
          "velocity": 0.30708661417322836
        },
        {
          "duration": 0.0852271875000099,
          "durationTicks": 120,
          "midi": 46,
          "name": "A#2",
          "ticks": 194592,
          "time": 138.20440725,
          "velocity": 0.30708661417322836
        },
        {
          "duration": 0.0852271875000099,
          "durationTicks": 120,
          "midi": 41,
          "name": "F2",
          "ticks": 194592,
          "time": 138.20440725,
          "velocity": 0.30708661417322836
        },
        {
          "duration": 0.0852271875000099,
          "durationTicks": 120,
          "midi": 46,
          "name": "A#2",
          "ticks": 194592,
          "time": 138.20440725,
          "velocity": 0.30708661417322836
        },
        {
          "duration": 0.0852271875000099,
          "durationTicks": 120,
          "midi": 73,
          "name": "C#5",
          "ticks": 194592,
          "time": 138.20440725,
          "velocity": 0.30708661417322836
        },
        {
          "duration": 0.0852271875000099,
          "durationTicks": 120,
          "midi": 77,
          "name": "F5",
          "ticks": 194592,
          "time": 138.20440725,
          "velocity": 0.30708661417322836
        },
        {
          "duration": 0.0852271875000099,
          "durationTicks": 120,
          "midi": 61,
          "name": "C#4",
          "ticks": 194592,
          "time": 138.20440725,
          "velocity": 0.30708661417322836
        },
        {
          "duration": 0.0852271875000099,
          "durationTicks": 120,
          "midi": 49,
          "name": "C#3",
          "ticks": 194592,
          "time": 138.20440725,
          "velocity": 0.30708661417322836
        },
        {
          "duration": 0.0852271875000099,
          "durationTicks": 120,
          "midi": 85,
          "name": "C#6",
          "ticks": 194592,
          "time": 138.20440725,
          "velocity": 0.30708661417322836
        },
        {
          "duration": 0.0852271875000099,
          "durationTicks": 120,
          "midi": 58,
          "name": "A#3",
          "ticks": 194592,
          "time": 138.20440725,
          "velocity": 0.30708661417322836
        },
        {
          "duration": 0.0852271875000099,
          "durationTicks": 120,
          "midi": 82,
          "name": "A#5",
          "ticks": 194592,
          "time": 138.20440725,
          "velocity": 0.30708661417322836
        },
        {
          "duration": 0.0852271875000099,
          "durationTicks": 120,
          "midi": 89,
          "name": "F6",
          "ticks": 194592,
          "time": 138.20440725,
          "velocity": 0.30708661417322836
        },
        {
          "duration": 0.0852271875000099,
          "durationTicks": 120,
          "midi": 70,
          "name": "A#4",
          "ticks": 194592,
          "time": 138.20440725,
          "velocity": 0.30708661417322836
        },
        {
          "duration": 0.0852271875000099,
          "durationTicks": 120,
          "midi": 53,
          "name": "F3",
          "ticks": 194592,
          "time": 138.20440725,
          "velocity": 0.30708661417322836
        },
        {
          "duration": 0.0852271875000099,
          "durationTicks": 120,
          "midi": 65,
          "name": "F4",
          "ticks": 194592,
          "time": 138.20440725,
          "velocity": 0.30708661417322836
        },
        {
          "duration": 0.0852271875000099,
          "durationTicks": 120,
          "midi": 77,
          "name": "F5",
          "ticks": 194592,
          "time": 138.20440725,
          "velocity": 0.30708661417322836
        },
        {
          "duration": 0.08522718749998148,
          "durationTicks": 120,
          "midi": 49,
          "name": "C#3",
          "ticks": 194616,
          "time": 138.2214526875,
          "velocity": 0.30708661417322836
        },
        {
          "duration": 0.08522718749998148,
          "durationTicks": 120,
          "midi": 77,
          "name": "F5",
          "ticks": 194616,
          "time": 138.2214526875,
          "velocity": 0.30708661417322836
        },
        {
          "duration": 0.08522718749998148,
          "durationTicks": 120,
          "midi": 61,
          "name": "C#4",
          "ticks": 194616,
          "time": 138.2214526875,
          "velocity": 0.30708661417322836
        },
        {
          "duration": 0.08522718749998148,
          "durationTicks": 120,
          "midi": 65,
          "name": "F4",
          "ticks": 194616,
          "time": 138.2214526875,
          "velocity": 0.30708661417322836
        },
        {
          "duration": 0.08522718749998148,
          "durationTicks": 120,
          "midi": 85,
          "name": "C#6",
          "ticks": 194616,
          "time": 138.2214526875,
          "velocity": 0.30708661417322836
        },
        {
          "duration": 0.08522718749998148,
          "durationTicks": 120,
          "midi": 58,
          "name": "A#3",
          "ticks": 194616,
          "time": 138.2214526875,
          "velocity": 0.30708661417322836
        },
        {
          "duration": 0.08522718749998148,
          "durationTicks": 120,
          "midi": 53,
          "name": "F3",
          "ticks": 194616,
          "time": 138.2214526875,
          "velocity": 0.30708661417322836
        },
        {
          "duration": 0.08522718749998148,
          "durationTicks": 120,
          "midi": 82,
          "name": "A#5",
          "ticks": 194616,
          "time": 138.2214526875,
          "velocity": 0.30708661417322836
        },
        {
          "duration": 0.08522718749998148,
          "durationTicks": 120,
          "midi": 89,
          "name": "F6",
          "ticks": 194616,
          "time": 138.2214526875,
          "velocity": 0.30708661417322836
        },
        {
          "duration": 0.08522718749998148,
          "durationTicks": 120,
          "midi": 41,
          "name": "F2",
          "ticks": 194616,
          "time": 138.2214526875,
          "velocity": 0.30708661417322836
        },
        {
          "duration": 0.08522718749998148,
          "durationTicks": 120,
          "midi": 46,
          "name": "A#2",
          "ticks": 194616,
          "time": 138.2214526875,
          "velocity": 0.30708661417322836
        },
        {
          "duration": 0.08522718749998148,
          "durationTicks": 120,
          "midi": 73,
          "name": "C#5",
          "ticks": 194616,
          "time": 138.2214526875,
          "velocity": 0.30708661417322836
        },
        {
          "duration": 0.08522718749998148,
          "durationTicks": 120,
          "midi": 70,
          "name": "A#4",
          "ticks": 194616,
          "time": 138.2214526875,
          "velocity": 0.30708661417322836
        },
        {
          "duration": 0.08522718749998148,
          "durationTicks": 120,
          "midi": 77,
          "name": "F5",
          "ticks": 194712,
          "time": 138.2896344375,
          "velocity": 0.30708661417322836
        },
        {
          "duration": 0.08522718749998148,
          "durationTicks": 120,
          "midi": 89,
          "name": "F6",
          "ticks": 194712,
          "time": 138.2896344375,
          "velocity": 0.30708661417322836
        },
        {
          "duration": 0.08522718749998148,
          "durationTicks": 120,
          "midi": 70,
          "name": "A#4",
          "ticks": 194712,
          "time": 138.2896344375,
          "velocity": 0.30708661417322836
        },
        {
          "duration": 0.08522718749998148,
          "durationTicks": 120,
          "midi": 53,
          "name": "F3",
          "ticks": 194712,
          "time": 138.2896344375,
          "velocity": 0.30708661417322836
        },
        {
          "duration": 0.08522718749998148,
          "durationTicks": 120,
          "midi": 41,
          "name": "F2",
          "ticks": 194712,
          "time": 138.2896344375,
          "velocity": 0.30708661417322836
        },
        {
          "duration": 0.08522718749998148,
          "durationTicks": 120,
          "midi": 82,
          "name": "A#5",
          "ticks": 194712,
          "time": 138.2896344375,
          "velocity": 0.30708661417322836
        },
        {
          "duration": 0.08522718749998148,
          "durationTicks": 120,
          "midi": 46,
          "name": "A#2",
          "ticks": 194712,
          "time": 138.2896344375,
          "velocity": 0.30708661417322836
        },
        {
          "duration": 0.08522718749998148,
          "durationTicks": 120,
          "midi": 85,
          "name": "C#6",
          "ticks": 194712,
          "time": 138.2896344375,
          "velocity": 0.30708661417322836
        },
        {
          "duration": 0.08522718749998148,
          "durationTicks": 120,
          "midi": 61,
          "name": "C#4",
          "ticks": 194712,
          "time": 138.2896344375,
          "velocity": 0.30708661417322836
        },
        {
          "duration": 0.08522718749998148,
          "durationTicks": 120,
          "midi": 41,
          "name": "F2",
          "ticks": 194712,
          "time": 138.2896344375,
          "velocity": 0.30708661417322836
        },
        {
          "duration": 0.08522718749998148,
          "durationTicks": 120,
          "midi": 58,
          "name": "A#3",
          "ticks": 194712,
          "time": 138.2896344375,
          "velocity": 0.30708661417322836
        },
        {
          "duration": 0.08522718749998148,
          "durationTicks": 120,
          "midi": 85,
          "name": "C#6",
          "ticks": 194712,
          "time": 138.2896344375,
          "velocity": 0.30708661417322836
        },
        {
          "duration": 0.08522718749998148,
          "durationTicks": 120,
          "midi": 82,
          "name": "A#5",
          "ticks": 194712,
          "time": 138.2896344375,
          "velocity": 0.30708661417322836
        },
        {
          "duration": 0.08522718749998148,
          "durationTicks": 120,
          "midi": 58,
          "name": "A#3",
          "ticks": 194712,
          "time": 138.2896344375,
          "velocity": 0.30708661417322836
        },
        {
          "duration": 0.08522718749998148,
          "durationTicks": 120,
          "midi": 46,
          "name": "A#2",
          "ticks": 194712,
          "time": 138.2896344375,
          "velocity": 0.30708661417322836
        },
        {
          "duration": 0.08522718749998148,
          "durationTicks": 120,
          "midi": 89,
          "name": "F6",
          "ticks": 194712,
          "time": 138.2896344375,
          "velocity": 0.30708661417322836
        },
        {
          "duration": 0.08522718749998148,
          "durationTicks": 120,
          "midi": 73,
          "name": "C#5",
          "ticks": 194712,
          "time": 138.2896344375,
          "velocity": 0.30708661417322836
        },
        {
          "duration": 0.08522718749998148,
          "durationTicks": 120,
          "midi": 65,
          "name": "F4",
          "ticks": 194712,
          "time": 138.2896344375,
          "velocity": 0.30708661417322836
        },
        {
          "duration": 0.08522718749998148,
          "durationTicks": 120,
          "midi": 49,
          "name": "C#3",
          "ticks": 194712,
          "time": 138.2896344375,
          "velocity": 0.30708661417322836
        },
        {
          "duration": 0.08522718749998148,
          "durationTicks": 120,
          "midi": 70,
          "name": "A#4",
          "ticks": 194712,
          "time": 138.2896344375,
          "velocity": 0.30708661417322836
        },
        {
          "duration": 0.08522718749998148,
          "durationTicks": 120,
          "midi": 49,
          "name": "C#3",
          "ticks": 194712,
          "time": 138.2896344375,
          "velocity": 0.30708661417322836
        },
        {
          "duration": 0.08522718749998148,
          "durationTicks": 120,
          "midi": 73,
          "name": "C#5",
          "ticks": 194712,
          "time": 138.2896344375,
          "velocity": 0.30708661417322836
        },
        {
          "duration": 0.08522718749998148,
          "durationTicks": 120,
          "midi": 53,
          "name": "F3",
          "ticks": 194712,
          "time": 138.2896344375,
          "velocity": 0.30708661417322836
        },
        {
          "duration": 0.08522718749998148,
          "durationTicks": 120,
          "midi": 61,
          "name": "C#4",
          "ticks": 194712,
          "time": 138.2896344375,
          "velocity": 0.30708661417322836
        },
        {
          "duration": 0.08522718749998148,
          "durationTicks": 120,
          "midi": 65,
          "name": "F4",
          "ticks": 194712,
          "time": 138.2896344375,
          "velocity": 0.30708661417322836
        },
        {
          "duration": 0.08522718749998148,
          "durationTicks": 120,
          "midi": 77,
          "name": "F5",
          "ticks": 194712,
          "time": 138.2896344375,
          "velocity": 0.30708661417322836
        },
        {
          "duration": 0.0852271875000099,
          "durationTicks": 120,
          "midi": 82,
          "name": "A#5",
          "ticks": 194736,
          "time": 138.306679875,
          "velocity": 0.30708661417322836
        },
        {
          "duration": 0.0852271875000099,
          "durationTicks": 120,
          "midi": 49,
          "name": "C#3",
          "ticks": 194736,
          "time": 138.306679875,
          "velocity": 0.30708661417322836
        },
        {
          "duration": 0.0852271875000099,
          "durationTicks": 120,
          "midi": 73,
          "name": "C#5",
          "ticks": 194736,
          "time": 138.306679875,
          "velocity": 0.30708661417322836
        },
        {
          "duration": 0.0852271875000099,
          "durationTicks": 120,
          "midi": 89,
          "name": "F6",
          "ticks": 194736,
          "time": 138.306679875,
          "velocity": 0.30708661417322836
        },
        {
          "duration": 0.0852271875000099,
          "durationTicks": 120,
          "midi": 85,
          "name": "C#6",
          "ticks": 194736,
          "time": 138.306679875,
          "velocity": 0.30708661417322836
        },
        {
          "duration": 0.0852271875000099,
          "durationTicks": 120,
          "midi": 61,
          "name": "C#4",
          "ticks": 194736,
          "time": 138.306679875,
          "velocity": 0.30708661417322836
        },
        {
          "duration": 0.0852271875000099,
          "durationTicks": 120,
          "midi": 41,
          "name": "F2",
          "ticks": 194736,
          "time": 138.306679875,
          "velocity": 0.30708661417322836
        },
        {
          "duration": 0.0852271875000099,
          "durationTicks": 120,
          "midi": 53,
          "name": "F3",
          "ticks": 194736,
          "time": 138.306679875,
          "velocity": 0.30708661417322836
        },
        {
          "duration": 0.0852271875000099,
          "durationTicks": 120,
          "midi": 46,
          "name": "A#2",
          "ticks": 194736,
          "time": 138.306679875,
          "velocity": 0.30708661417322836
        },
        {
          "duration": 0.0852271875000099,
          "durationTicks": 120,
          "midi": 77,
          "name": "F5",
          "ticks": 194736,
          "time": 138.306679875,
          "velocity": 0.30708661417322836
        },
        {
          "duration": 0.0852271875000099,
          "durationTicks": 120,
          "midi": 70,
          "name": "A#4",
          "ticks": 194736,
          "time": 138.306679875,
          "velocity": 0.30708661417322836
        },
        {
          "duration": 0.0852271875000099,
          "durationTicks": 120,
          "midi": 58,
          "name": "A#3",
          "ticks": 194736,
          "time": 138.306679875,
          "velocity": 0.30708661417322836
        },
        {
          "duration": 0.0852271875000099,
          "durationTicks": 120,
          "midi": 65,
          "name": "F4",
          "ticks": 194736,
          "time": 138.306679875,
          "velocity": 0.30708661417322836
        },
        {
          "duration": 0.0852271875000099,
          "durationTicks": 120,
          "midi": 49,
          "name": "C#3",
          "ticks": 194832,
          "time": 138.374861625,
          "velocity": 0.30708661417322836
        },
        {
          "duration": 0.0852271875000099,
          "durationTicks": 120,
          "midi": 46,
          "name": "A#2",
          "ticks": 194832,
          "time": 138.374861625,
          "velocity": 0.30708661417322836
        },
        {
          "duration": 0.0852271875000099,
          "durationTicks": 120,
          "midi": 70,
          "name": "A#4",
          "ticks": 194832,
          "time": 138.374861625,
          "velocity": 0.30708661417322836
        },
        {
          "duration": 0.0852271875000099,
          "durationTicks": 120,
          "midi": 85,
          "name": "C#6",
          "ticks": 194832,
          "time": 138.374861625,
          "velocity": 0.30708661417322836
        },
        {
          "duration": 0.0852271875000099,
          "durationTicks": 120,
          "midi": 89,
          "name": "F6",
          "ticks": 194832,
          "time": 138.374861625,
          "velocity": 0.30708661417322836
        },
        {
          "duration": 0.0852271875000099,
          "durationTicks": 120,
          "midi": 49,
          "name": "C#3",
          "ticks": 194832,
          "time": 138.374861625,
          "velocity": 0.30708661417322836
        },
        {
          "duration": 0.0852271875000099,
          "durationTicks": 120,
          "midi": 65,
          "name": "F4",
          "ticks": 194832,
          "time": 138.374861625,
          "velocity": 0.30708661417322836
        },
        {
          "duration": 0.0852271875000099,
          "durationTicks": 120,
          "midi": 58,
          "name": "A#3",
          "ticks": 194832,
          "time": 138.374861625,
          "velocity": 0.30708661417322836
        },
        {
          "duration": 0.0852271875000099,
          "durationTicks": 120,
          "midi": 46,
          "name": "A#2",
          "ticks": 194832,
          "time": 138.374861625,
          "velocity": 0.30708661417322836
        },
        {
          "duration": 0.0852271875000099,
          "durationTicks": 120,
          "midi": 61,
          "name": "C#4",
          "ticks": 194832,
          "time": 138.374861625,
          "velocity": 0.30708661417322836
        },
        {
          "duration": 0.0852271875000099,
          "durationTicks": 120,
          "midi": 89,
          "name": "F6",
          "ticks": 194832,
          "time": 138.374861625,
          "velocity": 0.30708661417322836
        },
        {
          "duration": 0.0852271875000099,
          "durationTicks": 120,
          "midi": 53,
          "name": "F3",
          "ticks": 194832,
          "time": 138.374861625,
          "velocity": 0.30708661417322836
        },
        {
          "duration": 0.0852271875000099,
          "durationTicks": 120,
          "midi": 46,
          "name": "A#2",
          "ticks": 194832,
          "time": 138.374861625,
          "velocity": 0.30708661417322836
        },
        {
          "duration": 0.0852271875000099,
          "durationTicks": 120,
          "midi": 41,
          "name": "F2",
          "ticks": 194832,
          "time": 138.374861625,
          "velocity": 0.30708661417322836
        },
        {
          "duration": 0.0852271875000099,
          "durationTicks": 120,
          "midi": 77,
          "name": "F5",
          "ticks": 194832,
          "time": 138.374861625,
          "velocity": 0.30708661417322836
        },
        {
          "duration": 0.0852271875000099,
          "durationTicks": 120,
          "midi": 65,
          "name": "F4",
          "ticks": 194832,
          "time": 138.374861625,
          "velocity": 0.30708661417322836
        },
        {
          "duration": 0.0852271875000099,
          "durationTicks": 120,
          "midi": 46,
          "name": "A#2",
          "ticks": 194832,
          "time": 138.374861625,
          "velocity": 0.30708661417322836
        },
        {
          "duration": 0.0852271875000099,
          "durationTicks": 120,
          "midi": 58,
          "name": "A#3",
          "ticks": 194832,
          "time": 138.374861625,
          "velocity": 0.30708661417322836
        },
        {
          "duration": 0.0852271875000099,
          "durationTicks": 120,
          "midi": 82,
          "name": "A#5",
          "ticks": 194832,
          "time": 138.374861625,
          "velocity": 0.30708661417322836
        },
        {
          "duration": 0.0852271875000099,
          "durationTicks": 120,
          "midi": 73,
          "name": "C#5",
          "ticks": 194832,
          "time": 138.374861625,
          "velocity": 0.30708661417322836
        },
        {
          "duration": 0.0852271875000099,
          "durationTicks": 120,
          "midi": 49,
          "name": "C#3",
          "ticks": 194832,
          "time": 138.374861625,
          "velocity": 0.30708661417322836
        },
        {
          "duration": 0.0852271875000099,
          "durationTicks": 120,
          "midi": 61,
          "name": "C#4",
          "ticks": 194832,
          "time": 138.374861625,
          "velocity": 0.30708661417322836
        },
        {
          "duration": 0.0852271875000099,
          "durationTicks": 120,
          "midi": 73,
          "name": "C#5",
          "ticks": 194832,
          "time": 138.374861625,
          "velocity": 0.30708661417322836
        },
        {
          "duration": 0.0852271875000099,
          "durationTicks": 120,
          "midi": 53,
          "name": "F3",
          "ticks": 194832,
          "time": 138.374861625,
          "velocity": 0.30708661417322836
        },
        {
          "duration": 0.0852271875000099,
          "durationTicks": 120,
          "midi": 53,
          "name": "F3",
          "ticks": 194832,
          "time": 138.374861625,
          "velocity": 0.30708661417322836
        },
        {
          "duration": 0.0852271875000099,
          "durationTicks": 120,
          "midi": 82,
          "name": "A#5",
          "ticks": 194832,
          "time": 138.374861625,
          "velocity": 0.30708661417322836
        },
        {
          "duration": 0.0852271875000099,
          "durationTicks": 120,
          "midi": 41,
          "name": "F2",
          "ticks": 194832,
          "time": 138.374861625,
          "velocity": 0.30708661417322836
        },
        {
          "duration": 0.0852271875000099,
          "durationTicks": 120,
          "midi": 49,
          "name": "C#3",
          "ticks": 194832,
          "time": 138.374861625,
          "velocity": 0.30708661417322836
        },
        {
          "duration": 0.0852271875000099,
          "durationTicks": 120,
          "midi": 53,
          "name": "F3",
          "ticks": 194832,
          "time": 138.374861625,
          "velocity": 0.30708661417322836
        },
        {
          "duration": 0.0852271875000099,
          "durationTicks": 120,
          "midi": 77,
          "name": "F5",
          "ticks": 194832,
          "time": 138.374861625,
          "velocity": 0.30708661417322836
        },
        {
          "duration": 0.0852271875000099,
          "durationTicks": 120,
          "midi": 85,
          "name": "C#6",
          "ticks": 194832,
          "time": 138.374861625,
          "velocity": 0.30708661417322836
        },
        {
          "duration": 0.0852271875000099,
          "durationTicks": 120,
          "midi": 70,
          "name": "A#4",
          "ticks": 194832,
          "time": 138.374861625,
          "velocity": 0.30708661417322836
        },
        {
          "duration": 0.0852271875000099,
          "durationTicks": 120,
          "midi": 65,
          "name": "F4",
          "ticks": 194856,
          "time": 138.3919070625,
          "velocity": 0.30708661417322836
        },
        {
          "duration": 0.0852271875000099,
          "durationTicks": 120,
          "midi": 77,
          "name": "F5",
          "ticks": 194856,
          "time": 138.3919070625,
          "velocity": 0.30708661417322836
        },
        {
          "duration": 0.0852271875000099,
          "durationTicks": 120,
          "midi": 53,
          "name": "F3",
          "ticks": 194856,
          "time": 138.3919070625,
          "velocity": 0.30708661417322836
        },
        {
          "duration": 0.0852271875000099,
          "durationTicks": 120,
          "midi": 41,
          "name": "F2",
          "ticks": 194856,
          "time": 138.3919070625,
          "velocity": 0.30708661417322836
        },
        {
          "duration": 0.0852271875000099,
          "durationTicks": 120,
          "midi": 70,
          "name": "A#4",
          "ticks": 194856,
          "time": 138.3919070625,
          "velocity": 0.30708661417322836
        },
        {
          "duration": 0.0852271875000099,
          "durationTicks": 120,
          "midi": 61,
          "name": "C#4",
          "ticks": 194856,
          "time": 138.3919070625,
          "velocity": 0.30708661417322836
        },
        {
          "duration": 0.0852271875000099,
          "durationTicks": 120,
          "midi": 49,
          "name": "C#3",
          "ticks": 194856,
          "time": 138.3919070625,
          "velocity": 0.30708661417322836
        },
        {
          "duration": 0.0852271875000099,
          "durationTicks": 120,
          "midi": 53,
          "name": "F3",
          "ticks": 194856,
          "time": 138.3919070625,
          "velocity": 0.30708661417322836
        },
        {
          "duration": 0.0852271875000099,
          "durationTicks": 120,
          "midi": 49,
          "name": "C#3",
          "ticks": 194856,
          "time": 138.3919070625,
          "velocity": 0.30708661417322836
        },
        {
          "duration": 0.0852271875000099,
          "durationTicks": 120,
          "midi": 85,
          "name": "C#6",
          "ticks": 194856,
          "time": 138.3919070625,
          "velocity": 0.30708661417322836
        },
        {
          "duration": 0.0852271875000099,
          "durationTicks": 120,
          "midi": 46,
          "name": "A#2",
          "ticks": 194856,
          "time": 138.3919070625,
          "velocity": 0.30708661417322836
        },
        {
          "duration": 0.0852271875000099,
          "durationTicks": 120,
          "midi": 58,
          "name": "A#3",
          "ticks": 194856,
          "time": 138.3919070625,
          "velocity": 0.30708661417322836
        },
        {
          "duration": 0.0852271875000099,
          "durationTicks": 120,
          "midi": 82,
          "name": "A#5",
          "ticks": 194856,
          "time": 138.3919070625,
          "velocity": 0.30708661417322836
        },
        {
          "duration": 0.0852271875000099,
          "durationTicks": 120,
          "midi": 89,
          "name": "F6",
          "ticks": 194856,
          "time": 138.3919070625,
          "velocity": 0.30708661417322836
        },
        {
          "duration": 0.0852271875000099,
          "durationTicks": 120,
          "midi": 46,
          "name": "A#2",
          "ticks": 194856,
          "time": 138.3919070625,
          "velocity": 0.30708661417322836
        },
        {
          "duration": 0.0852271875000099,
          "durationTicks": 120,
          "midi": 73,
          "name": "C#5",
          "ticks": 194856,
          "time": 138.3919070625,
          "velocity": 0.30708661417322836
        },
        {
          "duration": 0.08522718749998148,
          "durationTicks": 120,
          "midi": 46,
          "name": "A#2",
          "ticks": 194952,
          "time": 138.4600888125,
          "velocity": 0.30708661417322836
        },
        {
          "duration": 0.08522718749998148,
          "durationTicks": 120,
          "midi": 61,
          "name": "C#4",
          "ticks": 194952,
          "time": 138.4600888125,
          "velocity": 0.30708661417322836
        },
        {
          "duration": 0.08522718749998148,
          "durationTicks": 120,
          "midi": 70,
          "name": "A#4",
          "ticks": 194952,
          "time": 138.4600888125,
          "velocity": 0.30708661417322836
        },
        {
          "duration": 0.08522718749998148,
          "durationTicks": 120,
          "midi": 89,
          "name": "F6",
          "ticks": 194952,
          "time": 138.4600888125,
          "velocity": 0.30708661417322836
        },
        {
          "duration": 0.08522718749998148,
          "durationTicks": 120,
          "midi": 61,
          "name": "C#4",
          "ticks": 194952,
          "time": 138.4600888125,
          "velocity": 0.30708661417322836
        },
        {
          "duration": 0.08522718749998148,
          "durationTicks": 120,
          "midi": 73,
          "name": "C#5",
          "ticks": 194952,
          "time": 138.4600888125,
          "velocity": 0.30708661417322836
        },
        {
          "duration": 0.08522718749998148,
          "durationTicks": 120,
          "midi": 41,
          "name": "F2",
          "ticks": 194952,
          "time": 138.4600888125,
          "velocity": 0.30708661417322836
        },
        {
          "duration": 0.08522718749998148,
          "durationTicks": 120,
          "midi": 46,
          "name": "A#2",
          "ticks": 194952,
          "time": 138.4600888125,
          "velocity": 0.30708661417322836
        },
        {
          "duration": 0.08522718749998148,
          "durationTicks": 120,
          "midi": 85,
          "name": "C#6",
          "ticks": 194952,
          "time": 138.4600888125,
          "velocity": 0.30708661417322836
        },
        {
          "duration": 0.08522718749998148,
          "durationTicks": 120,
          "midi": 70,
          "name": "A#4",
          "ticks": 194952,
          "time": 138.4600888125,
          "velocity": 0.30708661417322836
        },
        {
          "duration": 0.08522718749998148,
          "durationTicks": 120,
          "midi": 82,
          "name": "A#5",
          "ticks": 194952,
          "time": 138.4600888125,
          "velocity": 0.30708661417322836
        },
        {
          "duration": 0.08522718749998148,
          "durationTicks": 120,
          "midi": 53,
          "name": "F3",
          "ticks": 194952,
          "time": 138.4600888125,
          "velocity": 0.30708661417322836
        },
        {
          "duration": 0.08522718749998148,
          "durationTicks": 120,
          "midi": 65,
          "name": "F4",
          "ticks": 194952,
          "time": 138.4600888125,
          "velocity": 0.30708661417322836
        },
        {
          "duration": 0.08522718749998148,
          "durationTicks": 120,
          "midi": 89,
          "name": "F6",
          "ticks": 194952,
          "time": 138.4600888125,
          "velocity": 0.30708661417322836
        },
        {
          "duration": 0.08522718749998148,
          "durationTicks": 120,
          "midi": 58,
          "name": "A#3",
          "ticks": 194952,
          "time": 138.4600888125,
          "velocity": 0.30708661417322836
        },
        {
          "duration": 0.08522718749998148,
          "durationTicks": 120,
          "midi": 49,
          "name": "C#3",
          "ticks": 194952,
          "time": 138.4600888125,
          "velocity": 0.30708661417322836
        },
        {
          "duration": 0.08522718749998148,
          "durationTicks": 120,
          "midi": 58,
          "name": "A#3",
          "ticks": 194952,
          "time": 138.4600888125,
          "velocity": 0.30708661417322836
        },
        {
          "duration": 0.08522718749998148,
          "durationTicks": 120,
          "midi": 82,
          "name": "A#5",
          "ticks": 194952,
          "time": 138.4600888125,
          "velocity": 0.30708661417322836
        },
        {
          "duration": 0.08522718749998148,
          "durationTicks": 120,
          "midi": 49,
          "name": "C#3",
          "ticks": 194952,
          "time": 138.4600888125,
          "velocity": 0.30708661417322836
        },
        {
          "duration": 0.08522718749998148,
          "durationTicks": 120,
          "midi": 53,
          "name": "F3",
          "ticks": 194952,
          "time": 138.4600888125,
          "velocity": 0.30708661417322836
        },
        {
          "duration": 0.08522718749998148,
          "durationTicks": 120,
          "midi": 77,
          "name": "F5",
          "ticks": 194952,
          "time": 138.4600888125,
          "velocity": 0.30708661417322836
        },
        {
          "duration": 0.08522718749998148,
          "durationTicks": 120,
          "midi": 65,
          "name": "F4",
          "ticks": 194952,
          "time": 138.4600888125,
          "velocity": 0.30708661417322836
        },
        {
          "duration": 0.08522718749998148,
          "durationTicks": 120,
          "midi": 41,
          "name": "F2",
          "ticks": 194952,
          "time": 138.4600888125,
          "velocity": 0.30708661417322836
        },
        {
          "duration": 0.08522718749998148,
          "durationTicks": 120,
          "midi": 77,
          "name": "F5",
          "ticks": 194952,
          "time": 138.4600888125,
          "velocity": 0.30708661417322836
        },
        {
          "duration": 0.08522718749998148,
          "durationTicks": 120,
          "midi": 73,
          "name": "C#5",
          "ticks": 194952,
          "time": 138.4600888125,
          "velocity": 0.30708661417322836
        },
        {
          "duration": 0.08522718749998148,
          "durationTicks": 120,
          "midi": 85,
          "name": "C#6",
          "ticks": 194952,
          "time": 138.4600888125,
          "velocity": 0.30708661417322836
        },
        {
          "duration": 0.08522718749998148,
          "durationTicks": 120,
          "midi": 46,
          "name": "A#2",
          "ticks": 194976,
          "time": 138.47713425,
          "velocity": 0.30708661417322836
        },
        {
          "duration": 0.08522718749998148,
          "durationTicks": 120,
          "midi": 65,
          "name": "F4",
          "ticks": 194976,
          "time": 138.47713425,
          "velocity": 0.30708661417322836
        },
        {
          "duration": 0.08522718749998148,
          "durationTicks": 120,
          "midi": 49,
          "name": "C#3",
          "ticks": 194976,
          "time": 138.47713425,
          "velocity": 0.30708661417322836
        },
        {
          "duration": 0.08522718749998148,
          "durationTicks": 120,
          "midi": 58,
          "name": "A#3",
          "ticks": 194976,
          "time": 138.47713425,
          "velocity": 0.30708661417322836
        },
        {
          "duration": 0.08522718749998148,
          "durationTicks": 120,
          "midi": 53,
          "name": "F3",
          "ticks": 194976,
          "time": 138.47713425,
          "velocity": 0.30708661417322836
        },
        {
          "duration": 0.08522718749998148,
          "durationTicks": 120,
          "midi": 70,
          "name": "A#4",
          "ticks": 194976,
          "time": 138.47713425,
          "velocity": 0.30708661417322836
        },
        {
          "duration": 0.08522718749998148,
          "durationTicks": 120,
          "midi": 41,
          "name": "F2",
          "ticks": 194976,
          "time": 138.47713425,
          "velocity": 0.30708661417322836
        },
        {
          "duration": 0.08522718749998148,
          "durationTicks": 120,
          "midi": 77,
          "name": "F5",
          "ticks": 194976,
          "time": 138.47713425,
          "velocity": 0.30708661417322836
        },
        {
          "duration": 0.08522718749998148,
          "durationTicks": 120,
          "midi": 89,
          "name": "F6",
          "ticks": 194976,
          "time": 138.47713425,
          "velocity": 0.30708661417322836
        },
        {
          "duration": 0.08522718749998148,
          "durationTicks": 120,
          "midi": 85,
          "name": "C#6",
          "ticks": 194976,
          "time": 138.47713425,
          "velocity": 0.30708661417322836
        },
        {
          "duration": 0.08522718749998148,
          "durationTicks": 120,
          "midi": 73,
          "name": "C#5",
          "ticks": 194976,
          "time": 138.47713425,
          "velocity": 0.30708661417322836
        },
        {
          "duration": 0.08522718749998148,
          "durationTicks": 120,
          "midi": 61,
          "name": "C#4",
          "ticks": 194976,
          "time": 138.47713425,
          "velocity": 0.30708661417322836
        },
        {
          "duration": 0.08522718749998148,
          "durationTicks": 120,
          "midi": 82,
          "name": "A#5",
          "ticks": 194976,
          "time": 138.47713425,
          "velocity": 0.30708661417322836
        },
        {
          "duration": 0.0852271875000099,
          "durationTicks": 120,
          "midi": 82,
          "name": "A#5",
          "ticks": 195072,
          "time": 138.54531599999999,
          "velocity": 0.30708661417322836
        },
        {
          "duration": 0.0852271875000099,
          "durationTicks": 120,
          "midi": 53,
          "name": "F3",
          "ticks": 195072,
          "time": 138.54531599999999,
          "velocity": 0.30708661417322836
        },
        {
          "duration": 0.0852271875000099,
          "durationTicks": 120,
          "midi": 41,
          "name": "F2",
          "ticks": 195072,
          "time": 138.54531599999999,
          "velocity": 0.30708661417322836
        },
        {
          "duration": 0.0852271875000099,
          "durationTicks": 120,
          "midi": 65,
          "name": "F4",
          "ticks": 195072,
          "time": 138.54531599999999,
          "velocity": 0.30708661417322836
        },
        {
          "duration": 0.0852271875000099,
          "durationTicks": 120,
          "midi": 70,
          "name": "A#4",
          "ticks": 195072,
          "time": 138.54531599999999,
          "velocity": 0.30708661417322836
        },
        {
          "duration": 0.0852271875000099,
          "durationTicks": 120,
          "midi": 89,
          "name": "F6",
          "ticks": 195072,
          "time": 138.54531599999999,
          "velocity": 0.30708661417322836
        },
        {
          "duration": 0.0852271875000099,
          "durationTicks": 120,
          "midi": 77,
          "name": "F5",
          "ticks": 195072,
          "time": 138.54531599999999,
          "velocity": 0.30708661417322836
        },
        {
          "duration": 0.0852271875000099,
          "durationTicks": 120,
          "midi": 41,
          "name": "F2",
          "ticks": 195072,
          "time": 138.54531599999999,
          "velocity": 0.30708661417322836
        },
        {
          "duration": 0.0852271875000099,
          "durationTicks": 120,
          "midi": 70,
          "name": "A#4",
          "ticks": 195072,
          "time": 138.54531599999999,
          "velocity": 0.30708661417322836
        },
        {
          "duration": 0.0852271875000099,
          "durationTicks": 120,
          "midi": 46,
          "name": "A#2",
          "ticks": 195072,
          "time": 138.54531599999999,
          "velocity": 0.30708661417322836
        },
        {
          "duration": 0.0852271875000099,
          "durationTicks": 120,
          "midi": 73,
          "name": "C#5",
          "ticks": 195072,
          "time": 138.54531599999999,
          "velocity": 0.30708661417322836
        },
        {
          "duration": 0.0852271875000099,
          "durationTicks": 120,
          "midi": 41,
          "name": "F2",
          "ticks": 195072,
          "time": 138.54531599999999,
          "velocity": 0.30708661417322836
        },
        {
          "duration": 0.0852271875000099,
          "durationTicks": 120,
          "midi": 53,
          "name": "F3",
          "ticks": 195072,
          "time": 138.54531599999999,
          "velocity": 0.30708661417322836
        },
        {
          "duration": 0.0852271875000099,
          "durationTicks": 120,
          "midi": 49,
          "name": "C#3",
          "ticks": 195072,
          "time": 138.54531599999999,
          "velocity": 0.30708661417322836
        },
        {
          "duration": 0.0852271875000099,
          "durationTicks": 120,
          "midi": 61,
          "name": "C#4",
          "ticks": 195072,
          "time": 138.54531599999999,
          "velocity": 0.30708661417322836
        },
        {
          "duration": 0.0852271875000099,
          "durationTicks": 120,
          "midi": 77,
          "name": "F5",
          "ticks": 195072,
          "time": 138.54531599999999,
          "velocity": 0.30708661417322836
        },
        {
          "duration": 0.0852271875000099,
          "durationTicks": 120,
          "midi": 61,
          "name": "C#4",
          "ticks": 195072,
          "time": 138.54531599999999,
          "velocity": 0.30708661417322836
        },
        {
          "duration": 0.0852271875000099,
          "durationTicks": 120,
          "midi": 49,
          "name": "C#3",
          "ticks": 195072,
          "time": 138.54531599999999,
          "velocity": 0.30708661417322836
        },
        {
          "duration": 0.0852271875000099,
          "durationTicks": 120,
          "midi": 46,
          "name": "A#2",
          "ticks": 195072,
          "time": 138.54531599999999,
          "velocity": 0.30708661417322836
        },
        {
          "duration": 0.0852271875000099,
          "durationTicks": 120,
          "midi": 41,
          "name": "F2",
          "ticks": 195072,
          "time": 138.54531599999999,
          "velocity": 0.30708661417322836
        },
        {
          "duration": 0.0852271875000099,
          "durationTicks": 120,
          "midi": 65,
          "name": "F4",
          "ticks": 195072,
          "time": 138.54531599999999,
          "velocity": 0.30708661417322836
        },
        {
          "duration": 0.0852271875000099,
          "durationTicks": 120,
          "midi": 58,
          "name": "A#3",
          "ticks": 195072,
          "time": 138.54531599999999,
          "velocity": 0.30708661417322836
        },
        {
          "duration": 0.0852271875000099,
          "durationTicks": 120,
          "midi": 85,
          "name": "C#6",
          "ticks": 195072,
          "time": 138.54531599999999,
          "velocity": 0.30708661417322836
        },
        {
          "duration": 0.0852271875000099,
          "durationTicks": 120,
          "midi": 58,
          "name": "A#3",
          "ticks": 195072,
          "time": 138.54531599999999,
          "velocity": 0.30708661417322836
        },
        {
          "duration": 0.0852271875000099,
          "durationTicks": 120,
          "midi": 73,
          "name": "C#5",
          "ticks": 195072,
          "time": 138.54531599999999,
          "velocity": 0.30708661417322836
        },
        {
          "duration": 0.0852271875000099,
          "durationTicks": 120,
          "midi": 89,
          "name": "F6",
          "ticks": 195072,
          "time": 138.54531599999999,
          "velocity": 0.30708661417322836
        },
        {
          "duration": 0.0852271875000099,
          "durationTicks": 120,
          "midi": 82,
          "name": "A#5",
          "ticks": 195072,
          "time": 138.54531599999999,
          "velocity": 0.30708661417322836
        },
        {
          "duration": 0.0852271875000099,
          "durationTicks": 120,
          "midi": 85,
          "name": "C#6",
          "ticks": 195072,
          "time": 138.54531599999999,
          "velocity": 0.30708661417322836
        },
        {
          "duration": 0.0852271875000099,
          "durationTicks": 120,
          "midi": 41,
          "name": "F2",
          "ticks": 195096,
          "time": 138.5623614375,
          "velocity": 0.30708661417322836
        },
        {
          "duration": 0.0852271875000099,
          "durationTicks": 120,
          "midi": 77,
          "name": "F5",
          "ticks": 195096,
          "time": 138.5623614375,
          "velocity": 0.30708661417322836
        },
        {
          "duration": 0.0852271875000099,
          "durationTicks": 120,
          "midi": 53,
          "name": "F3",
          "ticks": 195096,
          "time": 138.5623614375,
          "velocity": 0.30708661417322836
        },
        {
          "duration": 0.0852271875000099,
          "durationTicks": 120,
          "midi": 58,
          "name": "A#3",
          "ticks": 195096,
          "time": 138.5623614375,
          "velocity": 0.30708661417322836
        },
        {
          "duration": 0.0852271875000099,
          "durationTicks": 120,
          "midi": 85,
          "name": "C#6",
          "ticks": 195096,
          "time": 138.5623614375,
          "velocity": 0.30708661417322836
        },
        {
          "duration": 0.0852271875000099,
          "durationTicks": 120,
          "midi": 89,
          "name": "F6",
          "ticks": 195096,
          "time": 138.5623614375,
          "velocity": 0.30708661417322836
        },
        {
          "duration": 0.0852271875000099,
          "durationTicks": 120,
          "midi": 70,
          "name": "A#4",
          "ticks": 195096,
          "time": 138.5623614375,
          "velocity": 0.30708661417322836
        },
        {
          "duration": 0.0852271875000099,
          "durationTicks": 120,
          "midi": 41,
          "name": "F2",
          "ticks": 195096,
          "time": 138.5623614375,
          "velocity": 0.30708661417322836
        },
        {
          "duration": 0.0852271875000099,
          "durationTicks": 120,
          "midi": 49,
          "name": "C#3",
          "ticks": 195096,
          "time": 138.5623614375,
          "velocity": 0.30708661417322836
        },
        {
          "duration": 0.0852271875000099,
          "durationTicks": 120,
          "midi": 46,
          "name": "A#2",
          "ticks": 195096,
          "time": 138.5623614375,
          "velocity": 0.30708661417322836
        },
        {
          "duration": 0.0852271875000099,
          "durationTicks": 120,
          "midi": 73,
          "name": "C#5",
          "ticks": 195096,
          "time": 138.5623614375,
          "velocity": 0.30708661417322836
        },
        {
          "duration": 0.0852271875000099,
          "durationTicks": 120,
          "midi": 65,
          "name": "F4",
          "ticks": 195096,
          "time": 138.5623614375,
          "velocity": 0.30708661417322836
        },
        {
          "duration": 0.0852271875000099,
          "durationTicks": 120,
          "midi": 61,
          "name": "C#4",
          "ticks": 195096,
          "time": 138.5623614375,
          "velocity": 0.30708661417322836
        },
        {
          "duration": 0.0852271875000099,
          "durationTicks": 120,
          "midi": 82,
          "name": "A#5",
          "ticks": 195096,
          "time": 138.5623614375,
          "velocity": 0.30708661417322836
        },
        {
          "duration": 0.0852271875000099,
          "durationTicks": 120,
          "midi": 53,
          "name": "F3",
          "ticks": 195192,
          "time": 138.6305431875,
          "velocity": 0.30708661417322836
        },
        {
          "duration": 0.0852271875000099,
          "durationTicks": 120,
          "midi": 49,
          "name": "C#3",
          "ticks": 195192,
          "time": 138.6305431875,
          "velocity": 0.30708661417322836
        },
        {
          "duration": 0.0852271875000099,
          "durationTicks": 120,
          "midi": 77,
          "name": "F5",
          "ticks": 195192,
          "time": 138.6305431875,
          "velocity": 0.30708661417322836
        },
        {
          "duration": 0.0852271875000099,
          "durationTicks": 120,
          "midi": 73,
          "name": "C#5",
          "ticks": 195192,
          "time": 138.6305431875,
          "velocity": 0.30708661417322836
        },
        {
          "duration": 0.0852271875000099,
          "durationTicks": 120,
          "midi": 89,
          "name": "F6",
          "ticks": 195192,
          "time": 138.6305431875,
          "velocity": 0.30708661417322836
        },
        {
          "duration": 0.0852271875000099,
          "durationTicks": 120,
          "midi": 70,
          "name": "A#4",
          "ticks": 195192,
          "time": 138.6305431875,
          "velocity": 0.30708661417322836
        },
        {
          "duration": 0.0852271875000099,
          "durationTicks": 120,
          "midi": 77,
          "name": "F5",
          "ticks": 195192,
          "time": 138.6305431875,
          "velocity": 0.30708661417322836
        },
        {
          "duration": 0.0852271875000099,
          "durationTicks": 120,
          "midi": 85,
          "name": "C#6",
          "ticks": 195192,
          "time": 138.6305431875,
          "velocity": 0.30708661417322836
        },
        {
          "duration": 0.0852271875000099,
          "durationTicks": 120,
          "midi": 65,
          "name": "F4",
          "ticks": 195192,
          "time": 138.6305431875,
          "velocity": 0.30708661417322836
        },
        {
          "duration": 0.0852271875000099,
          "durationTicks": 120,
          "midi": 41,
          "name": "F2",
          "ticks": 195192,
          "time": 138.6305431875,
          "velocity": 0.30708661417322836
        },
        {
          "duration": 0.0852271875000099,
          "durationTicks": 120,
          "midi": 61,
          "name": "C#4",
          "ticks": 195192,
          "time": 138.6305431875,
          "velocity": 0.30708661417322836
        },
        {
          "duration": 0.0852271875000099,
          "durationTicks": 120,
          "midi": 41,
          "name": "F2",
          "ticks": 195192,
          "time": 138.6305431875,
          "velocity": 0.30708661417322836
        },
        {
          "duration": 0.0852271875000099,
          "durationTicks": 120,
          "midi": 46,
          "name": "A#2",
          "ticks": 195192,
          "time": 138.6305431875,
          "velocity": 0.30708661417322836
        },
        {
          "duration": 0.0852271875000099,
          "durationTicks": 120,
          "midi": 85,
          "name": "C#6",
          "ticks": 195192,
          "time": 138.6305431875,
          "velocity": 0.30708661417322836
        },
        {
          "duration": 0.0852271875000099,
          "durationTicks": 120,
          "midi": 89,
          "name": "F6",
          "ticks": 195192,
          "time": 138.6305431875,
          "velocity": 0.30708661417322836
        },
        {
          "duration": 0.0852271875000099,
          "durationTicks": 120,
          "midi": 58,
          "name": "A#3",
          "ticks": 195192,
          "time": 138.6305431875,
          "velocity": 0.30708661417322836
        },
        {
          "duration": 0.0852271875000099,
          "durationTicks": 120,
          "midi": 46,
          "name": "A#2",
          "ticks": 195192,
          "time": 138.6305431875,
          "velocity": 0.30708661417322836
        },
        {
          "duration": 0.0852271875000099,
          "durationTicks": 120,
          "midi": 70,
          "name": "A#4",
          "ticks": 195192,
          "time": 138.6305431875,
          "velocity": 0.30708661417322836
        },
        {
          "duration": 0.0852271875000099,
          "durationTicks": 120,
          "midi": 61,
          "name": "C#4",
          "ticks": 195192,
          "time": 138.6305431875,
          "velocity": 0.30708661417322836
        },
        {
          "duration": 0.0852271875000099,
          "durationTicks": 120,
          "midi": 82,
          "name": "A#5",
          "ticks": 195192,
          "time": 138.6305431875,
          "velocity": 0.30708661417322836
        },
        {
          "duration": 0.0852271875000099,
          "durationTicks": 120,
          "midi": 65,
          "name": "F4",
          "ticks": 195192,
          "time": 138.6305431875,
          "velocity": 0.30708661417322836
        },
        {
          "duration": 0.0852271875000099,
          "durationTicks": 120,
          "midi": 49,
          "name": "C#3",
          "ticks": 195192,
          "time": 138.6305431875,
          "velocity": 0.30708661417322836
        },
        {
          "duration": 0.0852271875000099,
          "durationTicks": 120,
          "midi": 73,
          "name": "C#5",
          "ticks": 195192,
          "time": 138.6305431875,
          "velocity": 0.30708661417322836
        },
        {
          "duration": 0.0852271875000099,
          "durationTicks": 120,
          "midi": 58,
          "name": "A#3",
          "ticks": 195192,
          "time": 138.6305431875,
          "velocity": 0.30708661417322836
        },
        {
          "duration": 0.0852271875000099,
          "durationTicks": 120,
          "midi": 82,
          "name": "A#5",
          "ticks": 195192,
          "time": 138.6305431875,
          "velocity": 0.30708661417322836
        },
        {
          "duration": 0.0852271875000099,
          "durationTicks": 120,
          "midi": 53,
          "name": "F3",
          "ticks": 195192,
          "time": 138.6305431875,
          "velocity": 0.30708661417322836
        },
        {
          "duration": 0.0852271875000099,
          "durationTicks": 120,
          "midi": 41,
          "name": "F2",
          "ticks": 195216,
          "time": 138.647588625,
          "velocity": 0.30708661417322836
        },
        {
          "duration": 0.0852271875000099,
          "durationTicks": 120,
          "midi": 65,
          "name": "F4",
          "ticks": 195216,
          "time": 138.647588625,
          "velocity": 0.30708661417322836
        },
        {
          "duration": 0.0852271875000099,
          "durationTicks": 120,
          "midi": 85,
          "name": "C#6",
          "ticks": 195216,
          "time": 138.647588625,
          "velocity": 0.30708661417322836
        },
        {
          "duration": 0.0852271875000099,
          "durationTicks": 120,
          "midi": 49,
          "name": "C#3",
          "ticks": 195216,
          "time": 138.647588625,
          "velocity": 0.30708661417322836
        },
        {
          "duration": 0.0852271875000099,
          "durationTicks": 120,
          "midi": 77,
          "name": "F5",
          "ticks": 195216,
          "time": 138.647588625,
          "velocity": 0.30708661417322836
        },
        {
          "duration": 0.0852271875000099,
          "durationTicks": 120,
          "midi": 73,
          "name": "C#5",
          "ticks": 195216,
          "time": 138.647588625,
          "velocity": 0.30708661417322836
        },
        {
          "duration": 0.0852271875000099,
          "durationTicks": 120,
          "midi": 82,
          "name": "A#5",
          "ticks": 195216,
          "time": 138.647588625,
          "velocity": 0.30708661417322836
        },
        {
          "duration": 0.0852271875000099,
          "durationTicks": 120,
          "midi": 89,
          "name": "F6",
          "ticks": 195216,
          "time": 138.647588625,
          "velocity": 0.30708661417322836
        },
        {
          "duration": 0.0852271875000099,
          "durationTicks": 120,
          "midi": 70,
          "name": "A#4",
          "ticks": 195216,
          "time": 138.647588625,
          "velocity": 0.30708661417322836
        },
        {
          "duration": 0.0852271875000099,
          "durationTicks": 120,
          "midi": 61,
          "name": "C#4",
          "ticks": 195216,
          "time": 138.647588625,
          "velocity": 0.30708661417322836
        },
        {
          "duration": 0.0852271875000099,
          "durationTicks": 120,
          "midi": 53,
          "name": "F3",
          "ticks": 195216,
          "time": 138.647588625,
          "velocity": 0.30708661417322836
        },
        {
          "duration": 0.0852271875000099,
          "durationTicks": 120,
          "midi": 58,
          "name": "A#3",
          "ticks": 195216,
          "time": 138.647588625,
          "velocity": 0.30708661417322836
        },
        {
          "duration": 0.0852271875000099,
          "durationTicks": 120,
          "midi": 46,
          "name": "A#2",
          "ticks": 195216,
          "time": 138.647588625,
          "velocity": 0.30708661417322836
        },
        {
          "duration": 0.08522718749998148,
          "durationTicks": 120,
          "midi": 61,
          "name": "C#4",
          "ticks": 195312,
          "time": 138.715770375,
          "velocity": 0.30708661417322836
        },
        {
          "duration": 0.08522718749998148,
          "durationTicks": 120,
          "midi": 46,
          "name": "A#2",
          "ticks": 195312,
          "time": 138.715770375,
          "velocity": 0.30708661417322836
        },
        {
          "duration": 0.08522718749998148,
          "durationTicks": 120,
          "midi": 49,
          "name": "C#3",
          "ticks": 195312,
          "time": 138.715770375,
          "velocity": 0.30708661417322836
        },
        {
          "duration": 0.08522718749998148,
          "durationTicks": 120,
          "midi": 70,
          "name": "A#4",
          "ticks": 195312,
          "time": 138.715770375,
          "velocity": 0.30708661417322836
        },
        {
          "duration": 0.08522718749998148,
          "durationTicks": 120,
          "midi": 85,
          "name": "C#6",
          "ticks": 195312,
          "time": 138.715770375,
          "velocity": 0.30708661417322836
        },
        {
          "duration": 0.08522718749998148,
          "durationTicks": 120,
          "midi": 89,
          "name": "F6",
          "ticks": 195312,
          "time": 138.715770375,
          "velocity": 0.30708661417322836
        },
        {
          "duration": 0.08522718749998148,
          "durationTicks": 120,
          "midi": 82,
          "name": "A#5",
          "ticks": 195312,
          "time": 138.715770375,
          "velocity": 0.30708661417322836
        },
        {
          "duration": 0.08522718749998148,
          "durationTicks": 120,
          "midi": 58,
          "name": "A#3",
          "ticks": 195312,
          "time": 138.715770375,
          "velocity": 0.30708661417322836
        },
        {
          "duration": 0.08522718749998148,
          "durationTicks": 120,
          "midi": 53,
          "name": "F3",
          "ticks": 195312,
          "time": 138.715770375,
          "velocity": 0.30708661417322836
        },
        {
          "duration": 0.08522718749998148,
          "durationTicks": 120,
          "midi": 73,
          "name": "C#5",
          "ticks": 195312,
          "time": 138.715770375,
          "velocity": 0.30708661417322836
        },
        {
          "duration": 0.08522718749998148,
          "durationTicks": 120,
          "midi": 41,
          "name": "F2",
          "ticks": 195312,
          "time": 138.715770375,
          "velocity": 0.30708661417322836
        },
        {
          "duration": 0.08522718749998148,
          "durationTicks": 120,
          "midi": 49,
          "name": "C#3",
          "ticks": 195312,
          "time": 138.715770375,
          "velocity": 0.30708661417322836
        },
        {
          "duration": 0.08522718749998148,
          "durationTicks": 120,
          "midi": 77,
          "name": "F5",
          "ticks": 195312,
          "time": 138.715770375,
          "velocity": 0.30708661417322836
        },
        {
          "duration": 0.08522718749998148,
          "durationTicks": 120,
          "midi": 82,
          "name": "A#5",
          "ticks": 195312,
          "time": 138.715770375,
          "velocity": 0.30708661417322836
        },
        {
          "duration": 0.08522718749998148,
          "durationTicks": 120,
          "midi": 53,
          "name": "F3",
          "ticks": 195312,
          "time": 138.715770375,
          "velocity": 0.30708661417322836
        },
        {
          "duration": 0.08522718749998148,
          "durationTicks": 120,
          "midi": 85,
          "name": "C#6",
          "ticks": 195312,
          "time": 138.715770375,
          "velocity": 0.30708661417322836
        },
        {
          "duration": 0.08522718749998148,
          "durationTicks": 120,
          "midi": 41,
          "name": "F2",
          "ticks": 195312,
          "time": 138.715770375,
          "velocity": 0.30708661417322836
        },
        {
          "duration": 0.08522718749998148,
          "durationTicks": 120,
          "midi": 77,
          "name": "F5",
          "ticks": 195312,
          "time": 138.715770375,
          "velocity": 0.30708661417322836
        },
        {
          "duration": 0.08522718749998148,
          "durationTicks": 120,
          "midi": 49,
          "name": "C#3",
          "ticks": 195312,
          "time": 138.715770375,
          "velocity": 0.30708661417322836
        },
        {
          "duration": 0.08522718749998148,
          "durationTicks": 120,
          "midi": 53,
          "name": "F3",
          "ticks": 195312,
          "time": 138.715770375,
          "velocity": 0.30708661417322836
        },
        {
          "duration": 0.08522718749998148,
          "durationTicks": 120,
          "midi": 70,
          "name": "A#4",
          "ticks": 195312,
          "time": 138.715770375,
          "velocity": 0.30708661417322836
        },
        {
          "duration": 0.08522718749998148,
          "durationTicks": 120,
          "midi": 58,
          "name": "A#3",
          "ticks": 195312,
          "time": 138.715770375,
          "velocity": 0.30708661417322836
        },
        {
          "duration": 0.08522718749998148,
          "durationTicks": 120,
          "midi": 89,
          "name": "F6",
          "ticks": 195312,
          "time": 138.715770375,
          "velocity": 0.30708661417322836
        },
        {
          "duration": 0.08522718749998148,
          "durationTicks": 120,
          "midi": 65,
          "name": "F4",
          "ticks": 195312,
          "time": 138.715770375,
          "velocity": 0.30708661417322836
        },
        {
          "duration": 0.08522718749998148,
          "durationTicks": 120,
          "midi": 65,
          "name": "F4",
          "ticks": 195312,
          "time": 138.715770375,
          "velocity": 0.30708661417322836
        },
        {
          "duration": 0.08522718749998148,
          "durationTicks": 120,
          "midi": 46,
          "name": "A#2",
          "ticks": 195312,
          "time": 138.715770375,
          "velocity": 0.30708661417322836
        },
        {
          "duration": 0.08522718749998148,
          "durationTicks": 120,
          "midi": 53,
          "name": "F3",
          "ticks": 195312,
          "time": 138.715770375,
          "velocity": 0.30708661417322836
        },
        {
          "duration": 0.08522718749998148,
          "durationTicks": 120,
          "midi": 73,
          "name": "C#5",
          "ticks": 195312,
          "time": 138.715770375,
          "velocity": 0.30708661417322836
        },
        {
          "duration": 0.08522718749998148,
          "durationTicks": 120,
          "midi": 49,
          "name": "C#3",
          "ticks": 195312,
          "time": 138.715770375,
          "velocity": 0.30708661417322836
        },
        {
          "duration": 0.08522718749998148,
          "durationTicks": 120,
          "midi": 61,
          "name": "C#4",
          "ticks": 195312,
          "time": 138.715770375,
          "velocity": 0.30708661417322836
        },
        {
          "duration": 0.08522718749998148,
          "durationTicks": 120,
          "midi": 73,
          "name": "C#5",
          "ticks": 195336,
          "time": 138.7328158125,
          "velocity": 0.30708661417322836
        },
        {
          "duration": 0.08522718749998148,
          "durationTicks": 120,
          "midi": 82,
          "name": "A#5",
          "ticks": 195336,
          "time": 138.7328158125,
          "velocity": 0.30708661417322836
        },
        {
          "duration": 0.08522718749998148,
          "durationTicks": 120,
          "midi": 53,
          "name": "F3",
          "ticks": 195336,
          "time": 138.7328158125,
          "velocity": 0.30708661417322836
        },
        {
          "duration": 0.08522718749998148,
          "durationTicks": 120,
          "midi": 41,
          "name": "F2",
          "ticks": 195336,
          "time": 138.7328158125,
          "velocity": 0.30708661417322836
        },
        {
          "duration": 0.08522718749998148,
          "durationTicks": 120,
          "midi": 49,
          "name": "C#3",
          "ticks": 195336,
          "time": 138.7328158125,
          "velocity": 0.30708661417322836
        },
        {
          "duration": 0.08522718749998148,
          "durationTicks": 120,
          "midi": 77,
          "name": "F5",
          "ticks": 195336,
          "time": 138.7328158125,
          "velocity": 0.30708661417322836
        },
        {
          "duration": 0.08522718749998148,
          "durationTicks": 120,
          "midi": 58,
          "name": "A#3",
          "ticks": 195336,
          "time": 138.7328158125,
          "velocity": 0.30708661417322836
        },
        {
          "duration": 0.08522718749998148,
          "durationTicks": 120,
          "midi": 49,
          "name": "C#3",
          "ticks": 195336,
          "time": 138.7328158125,
          "velocity": 0.30708661417322836
        },
        {
          "duration": 0.08522718749998148,
          "durationTicks": 120,
          "midi": 46,
          "name": "A#2",
          "ticks": 195336,
          "time": 138.7328158125,
          "velocity": 0.30708661417322836
        },
        {
          "duration": 0.08522718749998148,
          "durationTicks": 120,
          "midi": 53,
          "name": "F3",
          "ticks": 195336,
          "time": 138.7328158125,
          "velocity": 0.30708661417322836
        },
        {
          "duration": 0.08522718749998148,
          "durationTicks": 120,
          "midi": 89,
          "name": "F6",
          "ticks": 195336,
          "time": 138.7328158125,
          "velocity": 0.30708661417322836
        },
        {
          "duration": 0.08522718749998148,
          "durationTicks": 120,
          "midi": 61,
          "name": "C#4",
          "ticks": 195336,
          "time": 138.7328158125,
          "velocity": 0.30708661417322836
        },
        {
          "duration": 0.08522718749998148,
          "durationTicks": 120,
          "midi": 85,
          "name": "C#6",
          "ticks": 195336,
          "time": 138.7328158125,
          "velocity": 0.30708661417322836
        },
        {
          "duration": 0.08522718749998148,
          "durationTicks": 120,
          "midi": 70,
          "name": "A#4",
          "ticks": 195336,
          "time": 138.7328158125,
          "velocity": 0.30708661417322836
        },
        {
          "duration": 0.08522718749998148,
          "durationTicks": 120,
          "midi": 65,
          "name": "F4",
          "ticks": 195336,
          "time": 138.7328158125,
          "velocity": 0.30708661417322836
        },
        {
          "duration": 0.0852271875000099,
          "durationTicks": 120,
          "midi": 61,
          "name": "C#4",
          "ticks": 195432,
          "time": 138.8009975625,
          "velocity": 0.30708661417322836
        },
        {
          "duration": 0.0852271875000099,
          "durationTicks": 120,
          "midi": 41,
          "name": "F2",
          "ticks": 195432,
          "time": 138.8009975625,
          "velocity": 0.30708661417322836
        },
        {
          "duration": 0.0852271875000099,
          "durationTicks": 120,
          "midi": 70,
          "name": "A#4",
          "ticks": 195432,
          "time": 138.8009975625,
          "velocity": 0.30708661417322836
        },
        {
          "duration": 0.0852271875000099,
          "durationTicks": 120,
          "midi": 58,
          "name": "A#3",
          "ticks": 195432,
          "time": 138.8009975625,
          "velocity": 0.30708661417322836
        },
        {
          "duration": 0.0852271875000099,
          "durationTicks": 120,
          "midi": 82,
          "name": "A#5",
          "ticks": 195432,
          "time": 138.8009975625,
          "velocity": 0.30708661417322836
        },
        {
          "duration": 0.0852271875000099,
          "durationTicks": 120,
          "midi": 77,
          "name": "F5",
          "ticks": 195432,
          "time": 138.8009975625,
          "velocity": 0.30708661417322836
        },
        {
          "duration": 0.0852271875000099,
          "durationTicks": 120,
          "midi": 73,
          "name": "C#5",
          "ticks": 195432,
          "time": 138.8009975625,
          "velocity": 0.30708661417322836
        },
        {
          "duration": 0.0852271875000099,
          "durationTicks": 120,
          "midi": 77,
          "name": "F5",
          "ticks": 195432,
          "time": 138.8009975625,
          "velocity": 0.30708661417322836
        },
        {
          "duration": 0.0852271875000099,
          "durationTicks": 120,
          "midi": 46,
          "name": "A#2",
          "ticks": 195432,
          "time": 138.8009975625,
          "velocity": 0.30708661417322836
        },
        {
          "duration": 0.0852271875000099,
          "durationTicks": 120,
          "midi": 46,
          "name": "A#2",
          "ticks": 195432,
          "time": 138.8009975625,
          "velocity": 0.30708661417322836
        },
        {
          "duration": 0.0852271875000099,
          "durationTicks": 120,
          "midi": 53,
          "name": "F3",
          "ticks": 195432,
          "time": 138.8009975625,
          "velocity": 0.30708661417322836
        },
        {
          "duration": 0.0852271875000099,
          "durationTicks": 120,
          "midi": 65,
          "name": "F4",
          "ticks": 195432,
          "time": 138.8009975625,
          "velocity": 0.30708661417322836
        },
        {
          "duration": 0.0852271875000099,
          "durationTicks": 120,
          "midi": 89,
          "name": "F6",
          "ticks": 195432,
          "time": 138.8009975625,
          "velocity": 0.30708661417322836
        },
        {
          "duration": 0.0852271875000099,
          "durationTicks": 120,
          "midi": 85,
          "name": "C#6",
          "ticks": 195432,
          "time": 138.8009975625,
          "velocity": 0.30708661417322836
        },
        {
          "duration": 0.0852271875000099,
          "durationTicks": 120,
          "midi": 85,
          "name": "C#6",
          "ticks": 195432,
          "time": 138.8009975625,
          "velocity": 0.30708661417322836
        },
        {
          "duration": 0.0852271875000099,
          "durationTicks": 120,
          "midi": 49,
          "name": "C#3",
          "ticks": 195432,
          "time": 138.8009975625,
          "velocity": 0.30708661417322836
        },
        {
          "duration": 0.0852271875000099,
          "durationTicks": 120,
          "midi": 73,
          "name": "C#5",
          "ticks": 195432,
          "time": 138.8009975625,
          "velocity": 0.30708661417322836
        },
        {
          "duration": 0.0852271875000099,
          "durationTicks": 120,
          "midi": 70,
          "name": "A#4",
          "ticks": 195432,
          "time": 138.8009975625,
          "velocity": 0.30708661417322836
        },
        {
          "duration": 0.0852271875000099,
          "durationTicks": 120,
          "midi": 58,
          "name": "A#3",
          "ticks": 195432,
          "time": 138.8009975625,
          "velocity": 0.30708661417322836
        },
        {
          "duration": 0.0852271875000099,
          "durationTicks": 120,
          "midi": 61,
          "name": "C#4",
          "ticks": 195432,
          "time": 138.8009975625,
          "velocity": 0.30708661417322836
        },
        {
          "duration": 0.0852271875000099,
          "durationTicks": 120,
          "midi": 65,
          "name": "F4",
          "ticks": 195432,
          "time": 138.8009975625,
          "velocity": 0.30708661417322836
        },
        {
          "duration": 0.0852271875000099,
          "durationTicks": 120,
          "midi": 89,
          "name": "F6",
          "ticks": 195432,
          "time": 138.8009975625,
          "velocity": 0.30708661417322836
        },
        {
          "duration": 0.0852271875000099,
          "durationTicks": 120,
          "midi": 41,
          "name": "F2",
          "ticks": 195432,
          "time": 138.8009975625,
          "velocity": 0.30708661417322836
        },
        {
          "duration": 0.0852271875000099,
          "durationTicks": 120,
          "midi": 49,
          "name": "C#3",
          "ticks": 195432,
          "time": 138.8009975625,
          "velocity": 0.30708661417322836
        },
        {
          "duration": 0.0852271875000099,
          "durationTicks": 120,
          "midi": 53,
          "name": "F3",
          "ticks": 195432,
          "time": 138.8009975625,
          "velocity": 0.30708661417322836
        },
        {
          "duration": 0.0852271875000099,
          "durationTicks": 120,
          "midi": 82,
          "name": "A#5",
          "ticks": 195432,
          "time": 138.8009975625,
          "velocity": 0.30708661417322836
        },
        {
          "duration": 0.0852271875000099,
          "durationTicks": 120,
          "midi": 65,
          "name": "F4",
          "ticks": 195456,
          "time": 138.818043,
          "velocity": 0.30708661417322836
        },
        {
          "duration": 0.0852271875000099,
          "durationTicks": 120,
          "midi": 53,
          "name": "F3",
          "ticks": 195456,
          "time": 138.818043,
          "velocity": 0.30708661417322836
        },
        {
          "duration": 0.0852271875000099,
          "durationTicks": 120,
          "midi": 58,
          "name": "A#3",
          "ticks": 195456,
          "time": 138.818043,
          "velocity": 0.30708661417322836
        },
        {
          "duration": 0.0852271875000099,
          "durationTicks": 120,
          "midi": 41,
          "name": "F2",
          "ticks": 195456,
          "time": 138.818043,
          "velocity": 0.30708661417322836
        },
        {
          "duration": 0.0852271875000099,
          "durationTicks": 120,
          "midi": 89,
          "name": "F6",
          "ticks": 195456,
          "time": 138.818043,
          "velocity": 0.30708661417322836
        },
        {
          "duration": 0.0852271875000099,
          "durationTicks": 120,
          "midi": 77,
          "name": "F5",
          "ticks": 195456,
          "time": 138.818043,
          "velocity": 0.30708661417322836
        },
        {
          "duration": 0.0852271875000099,
          "durationTicks": 120,
          "midi": 82,
          "name": "A#5",
          "ticks": 195456,
          "time": 138.818043,
          "velocity": 0.30708661417322836
        },
        {
          "duration": 0.0852271875000099,
          "durationTicks": 120,
          "midi": 49,
          "name": "C#3",
          "ticks": 195456,
          "time": 138.818043,
          "velocity": 0.30708661417322836
        },
        {
          "duration": 0.0852271875000099,
          "durationTicks": 120,
          "midi": 61,
          "name": "C#4",
          "ticks": 195456,
          "time": 138.818043,
          "velocity": 0.30708661417322836
        },
        {
          "duration": 0.0852271875000099,
          "durationTicks": 120,
          "midi": 70,
          "name": "A#4",
          "ticks": 195456,
          "time": 138.818043,
          "velocity": 0.30708661417322836
        },
        {
          "duration": 0.0852271875000099,
          "durationTicks": 120,
          "midi": 85,
          "name": "C#6",
          "ticks": 195456,
          "time": 138.818043,
          "velocity": 0.30708661417322836
        },
        {
          "duration": 0.0852271875000099,
          "durationTicks": 120,
          "midi": 73,
          "name": "C#5",
          "ticks": 195456,
          "time": 138.818043,
          "velocity": 0.30708661417322836
        },
        {
          "duration": 0.0852271875000099,
          "durationTicks": 120,
          "midi": 46,
          "name": "A#2",
          "ticks": 195456,
          "time": 138.818043,
          "velocity": 0.30708661417322836
        },
        {
          "duration": 0.0852271875000099,
          "durationTicks": 120,
          "midi": 46,
          "name": "A#2",
          "ticks": 195552,
          "time": 138.88622475,
          "velocity": 0.30708661417322836
        },
        {
          "duration": 0.0852271875000099,
          "durationTicks": 120,
          "midi": 46,
          "name": "A#2",
          "ticks": 195552,
          "time": 138.88622475,
          "velocity": 0.30708661417322836
        },
        {
          "duration": 0.10227262500001189,
          "durationTicks": 144,
          "midi": 46,
          "name": "A#2",
          "ticks": 195552,
          "time": 138.88622475,
          "velocity": 0.30708661417322836
        },
        {
          "duration": 0.0852271875000099,
          "durationTicks": 120,
          "midi": 70,
          "name": "A#4",
          "ticks": 195552,
          "time": 138.88622475,
          "velocity": 0.30708661417322836
        },
        {
          "duration": 0.5624994375000085,
          "durationTicks": 792,
          "midi": 29,
          "name": "F1",
          "ticks": 195552,
          "time": 138.88622475,
          "velocity": 0.30708661417322836
        },
        {
          "duration": 0.0852271875000099,
          "durationTicks": 120,
          "midi": 65,
          "name": "F4",
          "ticks": 195552,
          "time": 138.88622475,
          "velocity": 0.30708661417322836
        },
        {
          "duration": 0.0852271875000099,
          "durationTicks": 120,
          "midi": 58,
          "name": "A#3",
          "ticks": 195552,
          "time": 138.88622475,
          "velocity": 0.30708661417322836
        },
        {
          "duration": 0.0852271875000099,
          "durationTicks": 120,
          "midi": 61,
          "name": "C#4",
          "ticks": 195552,
          "time": 138.88622475,
          "velocity": 0.30708661417322836
        },
        {
          "duration": 0.0852271875000099,
          "durationTicks": 120,
          "midi": 89,
          "name": "F6",
          "ticks": 195552,
          "time": 138.88622475,
          "velocity": 0.30708661417322836
        },
        {
          "duration": 0.5624994375000085,
          "durationTicks": 792,
          "midi": 29,
          "name": "F1",
          "ticks": 195552,
          "time": 138.88622475,
          "velocity": 0.30708661417322836
        },
        {
          "duration": 0.0852271875000099,
          "durationTicks": 120,
          "midi": 85,
          "name": "C#6",
          "ticks": 195552,
          "time": 138.88622475,
          "velocity": 0.30708661417322836
        },
        {
          "duration": 0.0852271875000099,
          "durationTicks": 120,
          "midi": 70,
          "name": "A#4",
          "ticks": 195552,
          "time": 138.88622475,
          "velocity": 0.30708661417322836
        },
        {
          "duration": 0.22159068749999733,
          "durationTicks": 312,
          "midi": 46,
          "name": "A#2",
          "ticks": 195552,
          "time": 138.88622475,
          "velocity": 0.30708661417322836
        },
        {
          "duration": 0.0852271875000099,
          "durationTicks": 120,
          "midi": 61,
          "name": "C#4",
          "ticks": 195552,
          "time": 138.88622475,
          "velocity": 0.30708661417322836
        },
        {
          "duration": 0.0852271875000099,
          "durationTicks": 120,
          "midi": 82,
          "name": "A#5",
          "ticks": 195552,
          "time": 138.88622475,
          "velocity": 0.30708661417322836
        },
        {
          "duration": 0.0852271875000099,
          "durationTicks": 120,
          "midi": 58,
          "name": "A#3",
          "ticks": 195552,
          "time": 138.88622475,
          "velocity": 0.30708661417322836
        },
        {
          "duration": 0.0852271875000099,
          "durationTicks": 120,
          "midi": 77,
          "name": "F5",
          "ticks": 195552,
          "time": 138.88622475,
          "velocity": 0.30708661417322836
        },
        {
          "duration": 0.0852271875000099,
          "durationTicks": 120,
          "midi": 77,
          "name": "F5",
          "ticks": 195552,
          "time": 138.88622475,
          "velocity": 0.30708661417322836
        },
        {
          "duration": 0.0852271875000099,
          "durationTicks": 120,
          "midi": 82,
          "name": "A#5",
          "ticks": 195552,
          "time": 138.88622475,
          "velocity": 0.30708661417322836
        },
        {
          "duration": 0.0852271875000099,
          "durationTicks": 120,
          "midi": 49,
          "name": "C#3",
          "ticks": 195552,
          "time": 138.88622475,
          "velocity": 0.30708661417322836
        },
        {
          "duration": 0.5624994375000085,
          "durationTicks": 792,
          "midi": 29,
          "name": "F1",
          "ticks": 195552,
          "time": 138.88622475,
          "velocity": 0.30708661417322836
        },
        {
          "duration": 0.0852271875000099,
          "durationTicks": 120,
          "midi": 89,
          "name": "F6",
          "ticks": 195552,
          "time": 138.88622475,
          "velocity": 0.30708661417322836
        },
        {
          "duration": 0.5624994375000085,
          "durationTicks": 792,
          "midi": 29,
          "name": "F1",
          "ticks": 195552,
          "time": 138.88622475,
          "velocity": 0.30708661417322836
        },
        {
          "duration": 0.0852271875000099,
          "durationTicks": 120,
          "midi": 73,
          "name": "C#5",
          "ticks": 195552,
          "time": 138.88622475,
          "velocity": 0.30708661417322836
        },
        {
          "duration": 0.0852271875000099,
          "durationTicks": 120,
          "midi": 65,
          "name": "F4",
          "ticks": 195552,
          "time": 138.88622475,
          "velocity": 0.30708661417322836
        },
        {
          "duration": 0.0852271875000099,
          "durationTicks": 120,
          "midi": 49,
          "name": "C#3",
          "ticks": 195552,
          "time": 138.88622475,
          "velocity": 0.30708661417322836
        },
        {
          "duration": 0.0852271875000099,
          "durationTicks": 120,
          "midi": 73,
          "name": "C#5",
          "ticks": 195552,
          "time": 138.88622475,
          "velocity": 0.30708661417322836
        },
        {
          "duration": 0.0852271875000099,
          "durationTicks": 120,
          "midi": 53,
          "name": "F3",
          "ticks": 195552,
          "time": 138.88622475,
          "velocity": 0.30708661417322836
        },
        {
          "duration": 0.0852271875000099,
          "durationTicks": 120,
          "midi": 41,
          "name": "F2",
          "ticks": 195552,
          "time": 138.88622475,
          "velocity": 0.30708661417322836
        },
        {
          "duration": 0.0852271875000099,
          "durationTicks": 120,
          "midi": 85,
          "name": "C#6",
          "ticks": 195552,
          "time": 138.88622475,
          "velocity": 0.30708661417322836
        },
        {
          "duration": 0.0852271875000099,
          "durationTicks": 120,
          "midi": 53,
          "name": "F3",
          "ticks": 195552,
          "time": 138.88622475,
          "velocity": 0.30708661417322836
        },
        {
          "duration": 0.0852271875000099,
          "durationTicks": 120,
          "midi": 41,
          "name": "F2",
          "ticks": 195552,
          "time": 138.88622475,
          "velocity": 0.30708661417322836
        },
        {
          "duration": 0.0852271875000099,
          "durationTicks": 120,
          "midi": 73,
          "name": "C#5",
          "ticks": 195576,
          "time": 138.9032701875,
          "velocity": 0.30708661417322836
        },
        {
          "duration": 0.20454524999999535,
          "durationTicks": 288,
          "midi": 46,
          "name": "A#2",
          "ticks": 195576,
          "time": 138.9032701875,
          "velocity": 0.30708661417322836
        },
        {
          "duration": 0.0852271875000099,
          "durationTicks": 120,
          "midi": 70,
          "name": "A#4",
          "ticks": 195576,
          "time": 138.9032701875,
          "velocity": 0.30708661417322836
        },
        {
          "duration": 0.0852271875000099,
          "durationTicks": 120,
          "midi": 77,
          "name": "F5",
          "ticks": 195576,
          "time": 138.9032701875,
          "velocity": 0.30708661417322836
        },
        {
          "duration": 0.0852271875000099,
          "durationTicks": 120,
          "midi": 41,
          "name": "F2",
          "ticks": 195576,
          "time": 138.9032701875,
          "velocity": 0.30708661417322836
        },
        {
          "duration": 0.0852271875000099,
          "durationTicks": 120,
          "midi": 85,
          "name": "C#6",
          "ticks": 195576,
          "time": 138.9032701875,
          "velocity": 0.30708661417322836
        },
        {
          "duration": 0.0852271875000099,
          "durationTicks": 120,
          "midi": 61,
          "name": "C#4",
          "ticks": 195576,
          "time": 138.9032701875,
          "velocity": 0.30708661417322836
        },
        {
          "duration": 0.0852271875000099,
          "durationTicks": 120,
          "midi": 65,
          "name": "F4",
          "ticks": 195576,
          "time": 138.9032701875,
          "velocity": 0.30708661417322836
        },
        {
          "duration": 0.5624994375000085,
          "durationTicks": 792,
          "midi": 29,
          "name": "F1",
          "ticks": 195576,
          "time": 138.9032701875,
          "velocity": 0.30708661417322836
        },
        {
          "duration": 0.0852271875000099,
          "durationTicks": 120,
          "midi": 53,
          "name": "F3",
          "ticks": 195576,
          "time": 138.9032701875,
          "velocity": 0.30708661417322836
        },
        {
          "duration": 0.0852271875000099,
          "durationTicks": 120,
          "midi": 82,
          "name": "A#5",
          "ticks": 195576,
          "time": 138.9032701875,
          "velocity": 0.30708661417322836
        },
        {
          "duration": 0.22159068749999733,
          "durationTicks": 312,
          "midi": 46,
          "name": "A#2",
          "ticks": 195576,
          "time": 138.9032701875,
          "velocity": 0.30708661417322836
        },
        {
          "duration": 0.0852271875000099,
          "durationTicks": 120,
          "midi": 49,
          "name": "C#3",
          "ticks": 195576,
          "time": 138.9032701875,
          "velocity": 0.30708661417322836
        },
        {
          "duration": 0.0852271875000099,
          "durationTicks": 120,
          "midi": 58,
          "name": "A#3",
          "ticks": 195576,
          "time": 138.9032701875,
          "velocity": 0.30708661417322836
        },
        {
          "duration": 0.5624994375000085,
          "durationTicks": 792,
          "midi": 29,
          "name": "F1",
          "ticks": 195576,
          "time": 138.9032701875,
          "velocity": 0.30708661417322836
        },
        {
          "duration": 0.0852271875000099,
          "durationTicks": 120,
          "midi": 89,
          "name": "F6",
          "ticks": 195576,
          "time": 138.9032701875,
          "velocity": 0.30708661417322836
        },
        {
          "duration": 0.08522718749998148,
          "durationTicks": 120,
          "midi": 78,
          "name": "F#5",
          "ticks": 195672,
          "time": 138.9714519375,
          "velocity": 0.30708661417322836
        },
        {
          "duration": 0.08522718749998148,
          "durationTicks": 120,
          "midi": 90,
          "name": "F#6",
          "ticks": 195672,
          "time": 138.9714519375,
          "velocity": 0.30708661417322836
        },
        {
          "duration": 0.08522718749998148,
          "durationTicks": 120,
          "midi": 90,
          "name": "F#6",
          "ticks": 195672,
          "time": 138.9714519375,
          "velocity": 0.30708661417322836
        },
        {
          "duration": 0.08522718749998148,
          "durationTicks": 120,
          "midi": 78,
          "name": "F#5",
          "ticks": 195672,
          "time": 138.9714519375,
          "velocity": 0.30708661417322836
        },
        {
          "duration": 0.08522718749998148,
          "durationTicks": 120,
          "midi": 78,
          "name": "F#5",
          "ticks": 195672,
          "time": 138.9714519375,
          "velocity": 0.30708661417322836
        },
        {
          "duration": 0.08522718749998148,
          "durationTicks": 120,
          "midi": 78,
          "name": "F#5",
          "ticks": 195672,
          "time": 138.9714519375,
          "velocity": 0.30708661417322836
        },
        {
          "duration": 0.08522718749998148,
          "durationTicks": 120,
          "midi": 66,
          "name": "F#4",
          "ticks": 195672,
          "time": 138.9714519375,
          "velocity": 0.30708661417322836
        },
        {
          "duration": 0.08522718749998148,
          "durationTicks": 120,
          "midi": 66,
          "name": "F#4",
          "ticks": 195672,
          "time": 138.9714519375,
          "velocity": 0.30708661417322836
        },
        {
          "duration": 0.08522718749998148,
          "durationTicks": 120,
          "midi": 78,
          "name": "F#5",
          "ticks": 195696,
          "time": 138.988497375,
          "velocity": 0.30708661417322836
        },
        {
          "duration": 0.08522718749998148,
          "durationTicks": 120,
          "midi": 42,
          "name": "F#2",
          "ticks": 195696,
          "time": 138.988497375,
          "velocity": 0.30708661417322836
        },
        {
          "duration": 0.08522718749998148,
          "durationTicks": 120,
          "midi": 54,
          "name": "F#3",
          "ticks": 195696,
          "time": 138.988497375,
          "velocity": 0.30708661417322836
        },
        {
          "duration": 0.08522718749998148,
          "durationTicks": 120,
          "midi": 42,
          "name": "F#2",
          "ticks": 195696,
          "time": 138.988497375,
          "velocity": 0.30708661417322836
        },
        {
          "duration": 0.08522718749998148,
          "durationTicks": 120,
          "midi": 42,
          "name": "F#2",
          "ticks": 195696,
          "time": 138.988497375,
          "velocity": 0.30708661417322836
        },
        {
          "duration": 0.08522718749998148,
          "durationTicks": 120,
          "midi": 78,
          "name": "F#5",
          "ticks": 195696,
          "time": 138.988497375,
          "velocity": 0.30708661417322836
        },
        {
          "duration": 0.08522718749998148,
          "durationTicks": 120,
          "midi": 54,
          "name": "F#3",
          "ticks": 195696,
          "time": 138.988497375,
          "velocity": 0.30708661417322836
        },
        {
          "duration": 0.08522718749998148,
          "durationTicks": 120,
          "midi": 66,
          "name": "F#4",
          "ticks": 195696,
          "time": 138.988497375,
          "velocity": 0.30708661417322836
        },
        {
          "duration": 0.08522718749998148,
          "durationTicks": 120,
          "midi": 90,
          "name": "F#6",
          "ticks": 195696,
          "time": 138.988497375,
          "velocity": 0.30708661417322836
        },
        {
          "duration": 0.08522718749998148,
          "durationTicks": 120,
          "midi": 42,
          "name": "F#2",
          "ticks": 195696,
          "time": 138.988497375,
          "velocity": 0.30708661417322836
        },
        {
          "duration": 0.08522718749998148,
          "durationTicks": 120,
          "midi": 42,
          "name": "F#2",
          "ticks": 195720,
          "time": 139.0055428125,
          "velocity": 0.30708661417322836
        },
        {
          "duration": 0.08522718749998148,
          "durationTicks": 120,
          "midi": 42,
          "name": "F#2",
          "ticks": 195720,
          "time": 139.0055428125,
          "velocity": 0.30708661417322836
        },
        {
          "duration": 0.08522718749998148,
          "durationTicks": 120,
          "midi": 54,
          "name": "F#3",
          "ticks": 195720,
          "time": 139.0055428125,
          "velocity": 0.30708661417322836
        },
        {
          "duration": 0.0852271875000099,
          "durationTicks": 120,
          "midi": 77,
          "name": "F5",
          "ticks": 195792,
          "time": 139.056679125,
          "velocity": 0.30708661417322836
        },
        {
          "duration": 0.0852271875000099,
          "durationTicks": 120,
          "midi": 49,
          "name": "C#3",
          "ticks": 195792,
          "time": 139.056679125,
          "velocity": 0.30708661417322836
        },
        {
          "duration": 0.0852271875000099,
          "durationTicks": 120,
          "midi": 65,
          "name": "F4",
          "ticks": 195792,
          "time": 139.056679125,
          "velocity": 0.30708661417322836
        },
        {
          "duration": 0.0852271875000099,
          "durationTicks": 120,
          "midi": 65,
          "name": "F4",
          "ticks": 195792,
          "time": 139.056679125,
          "velocity": 0.30708661417322836
        },
        {
          "duration": 0.0852271875000099,
          "durationTicks": 120,
          "midi": 77,
          "name": "F5",
          "ticks": 195792,
          "time": 139.056679125,
          "velocity": 0.30708661417322836
        },
        {
          "duration": 0.0852271875000099,
          "durationTicks": 120,
          "midi": 89,
          "name": "F6",
          "ticks": 195792,
          "time": 139.056679125,
          "velocity": 0.30708661417322836
        },
        {
          "duration": 0.0852271875000099,
          "durationTicks": 120,
          "midi": 77,
          "name": "F5",
          "ticks": 195792,
          "time": 139.056679125,
          "velocity": 0.30708661417322836
        },
        {
          "duration": 0.0852271875000099,
          "durationTicks": 120,
          "midi": 49,
          "name": "C#3",
          "ticks": 195792,
          "time": 139.056679125,
          "velocity": 0.30708661417322836
        },
        {
          "duration": 0.0852271875000099,
          "durationTicks": 120,
          "midi": 89,
          "name": "F6",
          "ticks": 195792,
          "time": 139.056679125,
          "velocity": 0.30708661417322836
        },
        {
          "duration": 0.0852271875000099,
          "durationTicks": 120,
          "midi": 77,
          "name": "F5",
          "ticks": 195792,
          "time": 139.056679125,
          "velocity": 0.30708661417322836
        },
        {
          "duration": 0.0852271875000099,
          "durationTicks": 120,
          "midi": 49,
          "name": "C#3",
          "ticks": 195816,
          "time": 139.0737245625,
          "velocity": 0.30708661417322836
        },
        {
          "duration": 0.0852271875000099,
          "durationTicks": 120,
          "midi": 53,
          "name": "F3",
          "ticks": 195816,
          "time": 139.0737245625,
          "velocity": 0.30708661417322836
        },
        {
          "duration": 0.0852271875000099,
          "durationTicks": 120,
          "midi": 53,
          "name": "F3",
          "ticks": 195816,
          "time": 139.0737245625,
          "velocity": 0.30708661417322836
        },
        {
          "duration": 0.0852271875000099,
          "durationTicks": 120,
          "midi": 65,
          "name": "F4",
          "ticks": 195816,
          "time": 139.0737245625,
          "velocity": 0.30708661417322836
        },
        {
          "duration": 0.0852271875000099,
          "durationTicks": 120,
          "midi": 41,
          "name": "F2",
          "ticks": 195816,
          "time": 139.0737245625,
          "velocity": 0.30708661417322836
        },
        {
          "duration": 0.0852271875000099,
          "durationTicks": 120,
          "midi": 41,
          "name": "F2",
          "ticks": 195816,
          "time": 139.0737245625,
          "velocity": 0.30708661417322836
        },
        {
          "duration": 0.0852271875000099,
          "durationTicks": 120,
          "midi": 89,
          "name": "F6",
          "ticks": 195816,
          "time": 139.0737245625,
          "velocity": 0.30708661417322836
        },
        {
          "duration": 0.0852271875000099,
          "durationTicks": 120,
          "midi": 53,
          "name": "F3",
          "ticks": 195816,
          "time": 139.0737245625,
          "velocity": 0.30708661417322836
        },
        {
          "duration": 0.0852271875000099,
          "durationTicks": 120,
          "midi": 41,
          "name": "F2",
          "ticks": 195816,
          "time": 139.0737245625,
          "velocity": 0.30708661417322836
        },
        {
          "duration": 0.0852271875000099,
          "durationTicks": 120,
          "midi": 41,
          "name": "F2",
          "ticks": 195816,
          "time": 139.0737245625,
          "velocity": 0.30708661417322836
        },
        {
          "duration": 0.0852271875000099,
          "durationTicks": 120,
          "midi": 77,
          "name": "F5",
          "ticks": 195816,
          "time": 139.0737245625,
          "velocity": 0.30708661417322836
        },
        {
          "duration": 0.0852271875000099,
          "durationTicks": 120,
          "midi": 77,
          "name": "F5",
          "ticks": 195816,
          "time": 139.0737245625,
          "velocity": 0.30708661417322836
        },
        {
          "duration": 0.0852271875000099,
          "durationTicks": 120,
          "midi": 53,
          "name": "F3",
          "ticks": 195816,
          "time": 139.0737245625,
          "velocity": 0.30708661417322836
        },
        {
          "duration": 0.0852271875000099,
          "durationTicks": 120,
          "midi": 53,
          "name": "F3",
          "ticks": 195840,
          "time": 139.09077,
          "velocity": 0.30708661417322836
        },
        {
          "duration": 0.0852271875000099,
          "durationTicks": 120,
          "midi": 41,
          "name": "F2",
          "ticks": 195840,
          "time": 139.09077,
          "velocity": 0.30708661417322836
        },
        {
          "duration": 0.0852271875000099,
          "durationTicks": 120,
          "midi": 41,
          "name": "F2",
          "ticks": 195840,
          "time": 139.09077,
          "velocity": 0.30708661417322836
        },
        {
          "duration": 0.0852271875000099,
          "durationTicks": 120,
          "midi": 53,
          "name": "F3",
          "ticks": 195840,
          "time": 139.09077,
          "velocity": 0.30708661417322836
        },
        {
          "duration": 0.0852271875000099,
          "durationTicks": 120,
          "midi": 88,
          "name": "E6",
          "ticks": 195912,
          "time": 139.1419063125,
          "velocity": 0.30708661417322836
        },
        {
          "duration": 0.0852271875000099,
          "durationTicks": 120,
          "midi": 64,
          "name": "E4",
          "ticks": 195912,
          "time": 139.1419063125,
          "velocity": 0.30708661417322836
        },
        {
          "duration": 0.0852271875000099,
          "durationTicks": 120,
          "midi": 76,
          "name": "E5",
          "ticks": 195912,
          "time": 139.1419063125,
          "velocity": 0.30708661417322836
        },
        {
          "duration": 0.0852271875000099,
          "durationTicks": 120,
          "midi": 76,
          "name": "E5",
          "ticks": 195912,
          "time": 139.1419063125,
          "velocity": 0.30708661417322836
        },
        {
          "duration": 0.0852271875000099,
          "durationTicks": 120,
          "midi": 76,
          "name": "E5",
          "ticks": 195912,
          "time": 139.1419063125,
          "velocity": 0.30708661417322836
        },
        {
          "duration": 0.0852271875000099,
          "durationTicks": 120,
          "midi": 64,
          "name": "E4",
          "ticks": 195912,
          "time": 139.1419063125,
          "velocity": 0.30708661417322836
        },
        {
          "duration": 0.0852271875000099,
          "durationTicks": 120,
          "midi": 88,
          "name": "E6",
          "ticks": 195912,
          "time": 139.1419063125,
          "velocity": 0.30708661417322836
        },
        {
          "duration": 0.0852271875000099,
          "durationTicks": 120,
          "midi": 76,
          "name": "E5",
          "ticks": 195912,
          "time": 139.1419063125,
          "velocity": 0.30708661417322836
        },
        {
          "duration": 0.0852271875000099,
          "durationTicks": 120,
          "midi": 64,
          "name": "E4",
          "ticks": 195936,
          "time": 139.15895175,
          "velocity": 0.30708661417322836
        },
        {
          "duration": 0.0852271875000099,
          "durationTicks": 120,
          "midi": 52,
          "name": "E3",
          "ticks": 195936,
          "time": 139.15895175,
          "velocity": 0.30708661417322836
        },
        {
          "duration": 0.0852271875000099,
          "durationTicks": 120,
          "midi": 40,
          "name": "E2",
          "ticks": 195936,
          "time": 139.15895175,
          "velocity": 0.30708661417322836
        },
        {
          "duration": 0.0852271875000099,
          "durationTicks": 120,
          "midi": 40,
          "name": "E2",
          "ticks": 195936,
          "time": 139.15895175,
          "velocity": 0.30708661417322836
        },
        {
          "duration": 0.0852271875000099,
          "durationTicks": 120,
          "midi": 76,
          "name": "E5",
          "ticks": 195936,
          "time": 139.15895175,
          "velocity": 0.30708661417322836
        },
        {
          "duration": 0.0852271875000099,
          "durationTicks": 120,
          "midi": 88,
          "name": "E6",
          "ticks": 195936,
          "time": 139.15895175,
          "velocity": 0.30708661417322836
        },
        {
          "duration": 0.0852271875000099,
          "durationTicks": 120,
          "midi": 52,
          "name": "E3",
          "ticks": 195936,
          "time": 139.15895175,
          "velocity": 0.30708661417322836
        },
        {
          "duration": 0.0852271875000099,
          "durationTicks": 120,
          "midi": 76,
          "name": "E5",
          "ticks": 195936,
          "time": 139.15895175,
          "velocity": 0.30708661417322836
        },
        {
          "duration": 0.0852271875000099,
          "durationTicks": 120,
          "midi": 40,
          "name": "E2",
          "ticks": 195936,
          "time": 139.15895175,
          "velocity": 0.30708661417322836
        },
        {
          "duration": 0.0852271875000099,
          "durationTicks": 120,
          "midi": 40,
          "name": "E2",
          "ticks": 195936,
          "time": 139.15895175,
          "velocity": 0.30708661417322836
        },
        {
          "duration": 0.0852271875000099,
          "durationTicks": 120,
          "midi": 40,
          "name": "E2",
          "ticks": 195960,
          "time": 139.1759971875,
          "velocity": 0.30708661417322836
        },
        {
          "duration": 0.0852271875000099,
          "durationTicks": 120,
          "midi": 40,
          "name": "E2",
          "ticks": 195960,
          "time": 139.1759971875,
          "velocity": 0.30708661417322836
        },
        {
          "duration": 0.0852271875000099,
          "durationTicks": 120,
          "midi": 52,
          "name": "E3",
          "ticks": 195960,
          "time": 139.1759971875,
          "velocity": 0.30708661417322836
        },
        {
          "duration": 0.08522718749998148,
          "durationTicks": 120,
          "midi": 41,
          "name": "F2",
          "ticks": 196032,
          "time": 139.2271335,
          "velocity": 0.30708661417322836
        },
        {
          "duration": 0.22159068749999733,
          "durationTicks": 312,
          "midi": 58,
          "name": "A#3",
          "ticks": 196032,
          "time": 139.2271335,
          "velocity": 0.30708661417322836
        },
        {
          "duration": 0.08522718749998148,
          "durationTicks": 120,
          "midi": 41,
          "name": "F2",
          "ticks": 196032,
          "time": 139.2271335,
          "velocity": 0.30708661417322836
        },
        {
          "duration": 0.22159068749999733,
          "durationTicks": 312,
          "midi": 53,
          "name": "F3",
          "ticks": 196032,
          "time": 139.2271335,
          "velocity": 0.30708661417322836
        },
        {
          "duration": 0.22159068749999733,
          "durationTicks": 312,
          "midi": 49,
          "name": "C#3",
          "ticks": 196032,
          "time": 139.2271335,
          "velocity": 0.30708661417322836
        },
        {
          "duration": 0.22159068749999733,
          "durationTicks": 312,
          "midi": 61,
          "name": "C#4",
          "ticks": 196032,
          "time": 139.2271335,
          "velocity": 0.30708661417322836
        },
        {
          "duration": 0.22159068749999733,
          "durationTicks": 312,
          "midi": 58,
          "name": "A#3",
          "ticks": 196032,
          "time": 139.2271335,
          "velocity": 0.30708661417322836
        },
        {
          "duration": 0.22159068749999733,
          "durationTicks": 312,
          "midi": 53,
          "name": "F3",
          "ticks": 196032,
          "time": 139.2271335,
          "velocity": 0.30708661417322836
        },
        {
          "duration": 0.22159068749999733,
          "durationTicks": 312,
          "midi": 70,
          "name": "A#4",
          "ticks": 196032,
          "time": 139.2271335,
          "velocity": 0.30708661417322836
        },
        {
          "duration": 0.22159068749999733,
          "durationTicks": 312,
          "midi": 65,
          "name": "F4",
          "ticks": 196032,
          "time": 139.2271335,
          "velocity": 0.30708661417322836
        },
        {
          "duration": 0.22159068749999733,
          "durationTicks": 312,
          "midi": 70,
          "name": "A#4",
          "ticks": 196032,
          "time": 139.2271335,
          "velocity": 0.30708661417322836
        },
        {
          "duration": 0.10227262499998346,
          "durationTicks": 144,
          "midi": 41,
          "name": "F2",
          "ticks": 196032,
          "time": 139.2271335,
          "velocity": 0.30708661417322836
        },
        {
          "duration": 0.22159068749999733,
          "durationTicks": 312,
          "midi": 49,
          "name": "C#3",
          "ticks": 196032,
          "time": 139.2271335,
          "velocity": 0.30708661417322836
        },
        {
          "duration": 0.22159068749999733,
          "durationTicks": 312,
          "midi": 61,
          "name": "C#4",
          "ticks": 196032,
          "time": 139.2271335,
          "velocity": 0.30708661417322836
        },
        {
          "duration": 0.22159068749999733,
          "durationTicks": 312,
          "midi": 73,
          "name": "C#5",
          "ticks": 196032,
          "time": 139.2271335,
          "velocity": 0.30708661417322836
        },
        {
          "duration": 0.22159068749999733,
          "durationTicks": 312,
          "midi": 77,
          "name": "F5",
          "ticks": 196032,
          "time": 139.2271335,
          "velocity": 0.30708661417322836
        },
        {
          "duration": 0.22159068749999733,
          "durationTicks": 312,
          "midi": 73,
          "name": "C#5",
          "ticks": 196032,
          "time": 139.2271335,
          "velocity": 0.30708661417322836
        },
        {
          "duration": 0.22159068749999733,
          "durationTicks": 312,
          "midi": 46,
          "name": "A#2",
          "ticks": 196032,
          "time": 139.2271335,
          "velocity": 0.30708661417322836
        },
        {
          "duration": 0.22159068749999733,
          "durationTicks": 312,
          "midi": 46,
          "name": "A#2",
          "ticks": 196032,
          "time": 139.2271335,
          "velocity": 0.30708661417322836
        },
        {
          "duration": 0.22159068749999733,
          "durationTicks": 312,
          "midi": 77,
          "name": "F5",
          "ticks": 196032,
          "time": 139.2271335,
          "velocity": 0.30708661417322836
        },
        {
          "duration": 0.22159068749999733,
          "durationTicks": 312,
          "midi": 41,
          "name": "F2",
          "ticks": 196032,
          "time": 139.2271335,
          "velocity": 0.30708661417322836
        },
        {
          "duration": 0.22159068749999733,
          "durationTicks": 312,
          "midi": 65,
          "name": "F4",
          "ticks": 196032,
          "time": 139.2271335,
          "velocity": 0.30708661417322836
        },
        {
          "duration": 0.22159068749999733,
          "durationTicks": 312,
          "midi": 53,
          "name": "F3",
          "ticks": 196056,
          "time": 139.2441789375,
          "velocity": 0.30708661417322836
        },
        {
          "duration": 0.22159068749999733,
          "durationTicks": 312,
          "midi": 49,
          "name": "C#3",
          "ticks": 196056,
          "time": 139.2441789375,
          "velocity": 0.30708661417322836
        },
        {
          "duration": 0.20454524999999535,
          "durationTicks": 288,
          "midi": 41,
          "name": "F2",
          "ticks": 196056,
          "time": 139.2441789375,
          "velocity": 0.30708661417322836
        },
        {
          "duration": 0.22159068749999733,
          "durationTicks": 312,
          "midi": 70,
          "name": "A#4",
          "ticks": 196056,
          "time": 139.2441789375,
          "velocity": 0.30708661417322836
        },
        {
          "duration": 0.22159068749999733,
          "durationTicks": 312,
          "midi": 73,
          "name": "C#5",
          "ticks": 196056,
          "time": 139.2441789375,
          "velocity": 0.30708661417322836
        },
        {
          "duration": 0.22159068749999733,
          "durationTicks": 312,
          "midi": 61,
          "name": "C#4",
          "ticks": 196056,
          "time": 139.2441789375,
          "velocity": 0.30708661417322836
        },
        {
          "duration": 0.22159068749999733,
          "durationTicks": 312,
          "midi": 58,
          "name": "A#3",
          "ticks": 196056,
          "time": 139.2441789375,
          "velocity": 0.30708661417322836
        },
        {
          "duration": 0.22159068749999733,
          "durationTicks": 312,
          "midi": 65,
          "name": "F4",
          "ticks": 196056,
          "time": 139.2441789375,
          "velocity": 0.30708661417322836
        },
        {
          "duration": 0.22159068749999733,
          "durationTicks": 312,
          "midi": 77,
          "name": "F5",
          "ticks": 196056,
          "time": 139.2441789375,
          "velocity": 0.30708661417322836
        },
        {
          "duration": 0.22159068749999733,
          "durationTicks": 312,
          "midi": 41,
          "name": "F2",
          "ticks": 196056,
          "time": 139.2441789375,
          "velocity": 0.30708661417322836
        },
        {
          "duration": 0.22159068749999733,
          "durationTicks": 312,
          "midi": 46,
          "name": "A#2",
          "ticks": 196056,
          "time": 139.2441789375,
          "velocity": 0.30708661417322836
        },
        {
          "duration": 0.28977243750000525,
          "durationTicks": 408,
          "midi": 31,
          "name": "G1",
          "ticks": 196128,
          "time": 139.29531525,
          "velocity": 0.30708661417322836
        },
        {
          "duration": 0.28977243750000525,
          "durationTicks": 408,
          "midi": 31,
          "name": "G1",
          "ticks": 196128,
          "time": 139.29531525,
          "velocity": 0.30708661417322836
        },
        {
          "duration": 0.28977243750000525,
          "durationTicks": 408,
          "midi": 31,
          "name": "G1",
          "ticks": 196152,
          "time": 139.3123606875,
          "velocity": 0.30708661417322836
        },
        {
          "duration": 0.0852271875000099,
          "durationTicks": 120,
          "midi": 58,
          "name": "A#3",
          "ticks": 196272,
          "time": 139.397587875,
          "velocity": 0.30708661417322836
        },
        {
          "duration": 0.0852271875000099,
          "durationTicks": 120,
          "midi": 46,
          "name": "A#2",
          "ticks": 196272,
          "time": 139.397587875,
          "velocity": 0.30708661417322836
        },
        {
          "duration": 0.0852271875000099,
          "durationTicks": 120,
          "midi": 73,
          "name": "C#5",
          "ticks": 196272,
          "time": 139.397587875,
          "velocity": 0.30708661417322836
        },
        {
          "duration": 0.0852271875000099,
          "durationTicks": 120,
          "midi": 46,
          "name": "A#2",
          "ticks": 196272,
          "time": 139.397587875,
          "velocity": 0.30708661417322836
        },
        {
          "duration": 0.0852271875000099,
          "durationTicks": 120,
          "midi": 70,
          "name": "A#4",
          "ticks": 196272,
          "time": 139.397587875,
          "velocity": 0.30708661417322836
        },
        {
          "duration": 0.0852271875000099,
          "durationTicks": 120,
          "midi": 53,
          "name": "F3",
          "ticks": 196272,
          "time": 139.397587875,
          "velocity": 0.30708661417322836
        },
        {
          "duration": 0.0852271875000099,
          "durationTicks": 120,
          "midi": 61,
          "name": "C#4",
          "ticks": 196272,
          "time": 139.397587875,
          "velocity": 0.30708661417322836
        },
        {
          "duration": 0.0852271875000099,
          "durationTicks": 120,
          "midi": 49,
          "name": "C#3",
          "ticks": 196272,
          "time": 139.397587875,
          "velocity": 0.30708661417322836
        },
        {
          "duration": 0.0852271875000099,
          "durationTicks": 120,
          "midi": 53,
          "name": "F3",
          "ticks": 196272,
          "time": 139.397587875,
          "velocity": 0.30708661417322836
        },
        {
          "duration": 0.0852271875000099,
          "durationTicks": 120,
          "midi": 65,
          "name": "F4",
          "ticks": 196272,
          "time": 139.397587875,
          "velocity": 0.30708661417322836
        },
        {
          "duration": 0.0852271875000099,
          "durationTicks": 120,
          "midi": 82,
          "name": "A#5",
          "ticks": 196272,
          "time": 139.397587875,
          "velocity": 0.30708661417322836
        },
        {
          "duration": 0.0852271875000099,
          "durationTicks": 120,
          "midi": 49,
          "name": "C#3",
          "ticks": 196272,
          "time": 139.397587875,
          "velocity": 0.30708661417322836
        },
        {
          "duration": 0.0852271875000099,
          "durationTicks": 120,
          "midi": 77,
          "name": "F5",
          "ticks": 196272,
          "time": 139.397587875,
          "velocity": 0.30708661417322836
        },
        {
          "duration": 0.0852271875000099,
          "durationTicks": 120,
          "midi": 53,
          "name": "F3",
          "ticks": 196272,
          "time": 139.397587875,
          "velocity": 0.30708661417322836
        },
        {
          "duration": 0.0852271875000099,
          "durationTicks": 120,
          "midi": 58,
          "name": "A#3",
          "ticks": 196272,
          "time": 139.397587875,
          "velocity": 0.30708661417322836
        },
        {
          "duration": 0.0852271875000099,
          "durationTicks": 120,
          "midi": 82,
          "name": "A#5",
          "ticks": 196272,
          "time": 139.397587875,
          "velocity": 0.30708661417322836
        },
        {
          "duration": 0.0852271875000099,
          "durationTicks": 120,
          "midi": 53,
          "name": "F3",
          "ticks": 196272,
          "time": 139.397587875,
          "velocity": 0.30708661417322836
        },
        {
          "duration": 0.0852271875000099,
          "durationTicks": 120,
          "midi": 70,
          "name": "A#4",
          "ticks": 196272,
          "time": 139.397587875,
          "velocity": 0.30708661417322836
        },
        {
          "duration": 0.0852271875000099,
          "durationTicks": 120,
          "midi": 49,
          "name": "C#3",
          "ticks": 196272,
          "time": 139.397587875,
          "velocity": 0.30708661417322836
        },
        {
          "duration": 0.0852271875000099,
          "durationTicks": 120,
          "midi": 65,
          "name": "F4",
          "ticks": 196272,
          "time": 139.397587875,
          "velocity": 0.30708661417322836
        },
        {
          "duration": 0.0852271875000099,
          "durationTicks": 120,
          "midi": 49,
          "name": "C#3",
          "ticks": 196272,
          "time": 139.397587875,
          "velocity": 0.30708661417322836
        },
        {
          "duration": 0.0852271875000099,
          "durationTicks": 120,
          "midi": 77,
          "name": "F5",
          "ticks": 196272,
          "time": 139.397587875,
          "velocity": 0.30708661417322836
        },
        {
          "duration": 0.0852271875000099,
          "durationTicks": 120,
          "midi": 73,
          "name": "C#5",
          "ticks": 196272,
          "time": 139.397587875,
          "velocity": 0.30708661417322836
        },
        {
          "duration": 0.0852271875000099,
          "durationTicks": 120,
          "midi": 61,
          "name": "C#4",
          "ticks": 196272,
          "time": 139.397587875,
          "velocity": 0.30708661417322836
        },
        {
          "duration": 0.0852271875000099,
          "durationTicks": 120,
          "midi": 70,
          "name": "A#4",
          "ticks": 196296,
          "time": 139.4146333125,
          "velocity": 0.30708661417322836
        },
        {
          "duration": 0.0852271875000099,
          "durationTicks": 120,
          "midi": 49,
          "name": "C#3",
          "ticks": 196296,
          "time": 139.4146333125,
          "velocity": 0.30708661417322836
        },
        {
          "duration": 0.0852271875000099,
          "durationTicks": 120,
          "midi": 58,
          "name": "A#3",
          "ticks": 196296,
          "time": 139.4146333125,
          "velocity": 0.30708661417322836
        },
        {
          "duration": 0.0852271875000099,
          "durationTicks": 120,
          "midi": 53,
          "name": "F3",
          "ticks": 196296,
          "time": 139.4146333125,
          "velocity": 0.30708661417322836
        },
        {
          "duration": 0.0852271875000099,
          "durationTicks": 120,
          "midi": 73,
          "name": "C#5",
          "ticks": 196296,
          "time": 139.4146333125,
          "velocity": 0.30708661417322836
        },
        {
          "duration": 0.0852271875000099,
          "durationTicks": 120,
          "midi": 53,
          "name": "F3",
          "ticks": 196296,
          "time": 139.4146333125,
          "velocity": 0.30708661417322836
        },
        {
          "duration": 0.0852271875000099,
          "durationTicks": 120,
          "midi": 61,
          "name": "C#4",
          "ticks": 196296,
          "time": 139.4146333125,
          "velocity": 0.30708661417322836
        },
        {
          "duration": 0.0852271875000099,
          "durationTicks": 120,
          "midi": 65,
          "name": "F4",
          "ticks": 196296,
          "time": 139.4146333125,
          "velocity": 0.30708661417322836
        },
        {
          "duration": 0.0852271875000099,
          "durationTicks": 120,
          "midi": 77,
          "name": "F5",
          "ticks": 196296,
          "time": 139.4146333125,
          "velocity": 0.30708661417322836
        },
        {
          "duration": 0.0852271875000099,
          "durationTicks": 120,
          "midi": 49,
          "name": "C#3",
          "ticks": 196296,
          "time": 139.4146333125,
          "velocity": 0.30708661417322836
        },
        {
          "duration": 0.0852271875000099,
          "durationTicks": 120,
          "midi": 46,
          "name": "A#2",
          "ticks": 196296,
          "time": 139.4146333125,
          "velocity": 0.30708661417322836
        },
        {
          "duration": 0.0852271875000099,
          "durationTicks": 120,
          "midi": 82,
          "name": "A#5",
          "ticks": 196296,
          "time": 139.4146333125,
          "velocity": 0.30708661417322836
        },
        {
          "duration": 0.08522718749998148,
          "durationTicks": 120,
          "midi": 73,
          "name": "C#5",
          "ticks": 196392,
          "time": 139.4828150625,
          "velocity": 0.30708661417322836
        },
        {
          "duration": 0.08522718749998148,
          "durationTicks": 120,
          "midi": 85,
          "name": "C#6",
          "ticks": 196392,
          "time": 139.4828150625,
          "velocity": 0.30708661417322836
        },
        {
          "duration": 0.08522718749998148,
          "durationTicks": 120,
          "midi": 61,
          "name": "C#4",
          "ticks": 196392,
          "time": 139.4828150625,
          "velocity": 0.30708661417322836
        },
        {
          "duration": 0.08522718749998148,
          "durationTicks": 120,
          "midi": 61,
          "name": "C#4",
          "ticks": 196392,
          "time": 139.4828150625,
          "velocity": 0.30708661417322836
        },
        {
          "duration": 0.08522718749998148,
          "durationTicks": 120,
          "midi": 70,
          "name": "A#4",
          "ticks": 196392,
          "time": 139.4828150625,
          "velocity": 0.30708661417322836
        },
        {
          "duration": 0.08522718749998148,
          "durationTicks": 120,
          "midi": 77,
          "name": "F5",
          "ticks": 196392,
          "time": 139.4828150625,
          "velocity": 0.30708661417322836
        },
        {
          "duration": 0.08522718749998148,
          "durationTicks": 120,
          "midi": 65,
          "name": "F4",
          "ticks": 196392,
          "time": 139.4828150625,
          "velocity": 0.30708661417322836
        },
        {
          "duration": 0.08522718749998148,
          "durationTicks": 120,
          "midi": 58,
          "name": "A#3",
          "ticks": 196392,
          "time": 139.4828150625,
          "velocity": 0.30708661417322836
        },
        {
          "duration": 0.08522718749998148,
          "durationTicks": 120,
          "midi": 82,
          "name": "A#5",
          "ticks": 196392,
          "time": 139.4828150625,
          "velocity": 0.30708661417322836
        },
        {
          "duration": 0.08522718749998148,
          "durationTicks": 120,
          "midi": 58,
          "name": "A#3",
          "ticks": 196392,
          "time": 139.4828150625,
          "velocity": 0.30708661417322836
        },
        {
          "duration": 0.08522718749998148,
          "durationTicks": 120,
          "midi": 70,
          "name": "A#4",
          "ticks": 196392,
          "time": 139.4828150625,
          "velocity": 0.30708661417322836
        },
        {
          "duration": 0.08522718749998148,
          "durationTicks": 120,
          "midi": 53,
          "name": "F3",
          "ticks": 196392,
          "time": 139.4828150625,
          "velocity": 0.30708661417322836
        },
        {
          "duration": 0.08522718749998148,
          "durationTicks": 120,
          "midi": 73,
          "name": "C#5",
          "ticks": 196392,
          "time": 139.4828150625,
          "velocity": 0.30708661417322836
        },
        {
          "duration": 0.08522718749998148,
          "durationTicks": 120,
          "midi": 53,
          "name": "F3",
          "ticks": 196392,
          "time": 139.4828150625,
          "velocity": 0.30708661417322836
        },
        {
          "duration": 0.08522718749998148,
          "durationTicks": 120,
          "midi": 49,
          "name": "C#3",
          "ticks": 196392,
          "time": 139.4828150625,
          "velocity": 0.30708661417322836
        },
        {
          "duration": 0.08522718749998148,
          "durationTicks": 120,
          "midi": 85,
          "name": "C#6",
          "ticks": 196392,
          "time": 139.4828150625,
          "velocity": 0.30708661417322836
        },
        {
          "duration": 0.08522718749998148,
          "durationTicks": 120,
          "midi": 82,
          "name": "A#5",
          "ticks": 196392,
          "time": 139.4828150625,
          "velocity": 0.30708661417322836
        },
        {
          "duration": 0.08522718749998148,
          "durationTicks": 120,
          "midi": 49,
          "name": "C#3",
          "ticks": 196392,
          "time": 139.4828150625,
          "velocity": 0.30708661417322836
        },
        {
          "duration": 0.08522718749998148,
          "durationTicks": 120,
          "midi": 77,
          "name": "F5",
          "ticks": 196392,
          "time": 139.4828150625,
          "velocity": 0.30708661417322836
        },
        {
          "duration": 0.08522718749998148,
          "durationTicks": 120,
          "midi": 65,
          "name": "F4",
          "ticks": 196392,
          "time": 139.4828150625,
          "velocity": 0.30708661417322836
        },
        {
          "duration": 0.08522718749998148,
          "durationTicks": 120,
          "midi": 77,
          "name": "F5",
          "ticks": 196416,
          "time": 139.4998605,
          "velocity": 0.30708661417322836
        },
        {
          "duration": 0.08522718749998148,
          "durationTicks": 120,
          "midi": 49,
          "name": "C#3",
          "ticks": 196416,
          "time": 139.4998605,
          "velocity": 0.30708661417322836
        },
        {
          "duration": 0.08522718749998148,
          "durationTicks": 120,
          "midi": 82,
          "name": "A#5",
          "ticks": 196416,
          "time": 139.4998605,
          "velocity": 0.30708661417322836
        },
        {
          "duration": 0.08522718749998148,
          "durationTicks": 120,
          "midi": 53,
          "name": "F3",
          "ticks": 196416,
          "time": 139.4998605,
          "velocity": 0.30708661417322836
        },
        {
          "duration": 0.08522718749998148,
          "durationTicks": 120,
          "midi": 70,
          "name": "A#4",
          "ticks": 196416,
          "time": 139.4998605,
          "velocity": 0.30708661417322836
        },
        {
          "duration": 0.08522718749998148,
          "durationTicks": 120,
          "midi": 85,
          "name": "C#6",
          "ticks": 196416,
          "time": 139.4998605,
          "velocity": 0.30708661417322836
        },
        {
          "duration": 0.08522718749998148,
          "durationTicks": 120,
          "midi": 65,
          "name": "F4",
          "ticks": 196416,
          "time": 139.4998605,
          "velocity": 0.30708661417322836
        },
        {
          "duration": 0.08522718749998148,
          "durationTicks": 120,
          "midi": 73,
          "name": "C#5",
          "ticks": 196416,
          "time": 139.4998605,
          "velocity": 0.30708661417322836
        },
        {
          "duration": 0.08522718749998148,
          "durationTicks": 120,
          "midi": 61,
          "name": "C#4",
          "ticks": 196416,
          "time": 139.4998605,
          "velocity": 0.30708661417322836
        },
        {
          "duration": 0.08522718749998148,
          "durationTicks": 120,
          "midi": 58,
          "name": "A#3",
          "ticks": 196416,
          "time": 139.4998605,
          "velocity": 0.30708661417322836
        },
        {
          "duration": 0.22159068749999733,
          "durationTicks": 312,
          "midi": 61,
          "name": "C#4",
          "ticks": 196512,
          "time": 139.56804225,
          "velocity": 0.30708661417322836
        },
        {
          "duration": 0.22159068749999733,
          "durationTicks": 312,
          "midi": 65,
          "name": "F4",
          "ticks": 196512,
          "time": 139.56804225,
          "velocity": 0.30708661417322836
        },
        {
          "duration": 0.22159068749999733,
          "durationTicks": 312,
          "midi": 85,
          "name": "C#6",
          "ticks": 196512,
          "time": 139.56804225,
          "velocity": 0.30708661417322836
        },
        {
          "duration": 0.22159068749999733,
          "durationTicks": 312,
          "midi": 82,
          "name": "A#5",
          "ticks": 196512,
          "time": 139.56804225,
          "velocity": 0.30708661417322836
        },
        {
          "duration": 0.22159068749999733,
          "durationTicks": 312,
          "midi": 89,
          "name": "F6",
          "ticks": 196512,
          "time": 139.56804225,
          "velocity": 0.30708661417322836
        },
        {
          "duration": 0.22159068749999733,
          "durationTicks": 312,
          "midi": 70,
          "name": "A#4",
          "ticks": 196512,
          "time": 139.56804225,
          "velocity": 0.30708661417322836
        },
        {
          "duration": 0.22159068749999733,
          "durationTicks": 312,
          "midi": 77,
          "name": "F5",
          "ticks": 196512,
          "time": 139.56804225,
          "velocity": 0.30708661417322836
        },
        {
          "duration": 0.22159068749999733,
          "durationTicks": 312,
          "midi": 46,
          "name": "A#2",
          "ticks": 196512,
          "time": 139.56804225,
          "velocity": 0.30708661417322836
        },
        {
          "duration": 0.22159068749999733,
          "durationTicks": 312,
          "midi": 73,
          "name": "C#5",
          "ticks": 196512,
          "time": 139.56804225,
          "velocity": 0.30708661417322836
        },
        {
          "duration": 0.22159068749999733,
          "durationTicks": 312,
          "midi": 61,
          "name": "C#4",
          "ticks": 196512,
          "time": 139.56804225,
          "velocity": 0.30708661417322836
        },
        {
          "duration": 0.22159068749999733,
          "durationTicks": 312,
          "midi": 46,
          "name": "A#2",
          "ticks": 196512,
          "time": 139.56804225,
          "velocity": 0.30708661417322836
        },
        {
          "duration": 0.22159068749999733,
          "durationTicks": 312,
          "midi": 53,
          "name": "F3",
          "ticks": 196512,
          "time": 139.56804225,
          "velocity": 0.30708661417322836
        },
        {
          "duration": 0.22159068749999733,
          "durationTicks": 312,
          "midi": 77,
          "name": "F5",
          "ticks": 196512,
          "time": 139.56804225,
          "velocity": 0.30708661417322836
        },
        {
          "duration": 0.22159068749999733,
          "durationTicks": 312,
          "midi": 73,
          "name": "C#5",
          "ticks": 196512,
          "time": 139.56804225,
          "velocity": 0.30708661417322836
        },
        {
          "duration": 0.22159068749999733,
          "durationTicks": 312,
          "midi": 82,
          "name": "A#5",
          "ticks": 196512,
          "time": 139.56804225,
          "velocity": 0.30708661417322836
        },
        {
          "duration": 0.22159068749999733,
          "durationTicks": 312,
          "midi": 58,
          "name": "A#3",
          "ticks": 196512,
          "time": 139.56804225,
          "velocity": 0.30708661417322836
        },
        {
          "duration": 0.22159068749999733,
          "durationTicks": 312,
          "midi": 65,
          "name": "F4",
          "ticks": 196512,
          "time": 139.56804225,
          "velocity": 0.30708661417322836
        },
        {
          "duration": 0.22159068749999733,
          "durationTicks": 312,
          "midi": 89,
          "name": "F6",
          "ticks": 196512,
          "time": 139.56804225,
          "velocity": 0.30708661417322836
        },
        {
          "duration": 0.22159068749999733,
          "durationTicks": 312,
          "midi": 53,
          "name": "F3",
          "ticks": 196512,
          "time": 139.56804225,
          "velocity": 0.30708661417322836
        },
        {
          "duration": 0.22159068749999733,
          "durationTicks": 312,
          "midi": 70,
          "name": "A#4",
          "ticks": 196512,
          "time": 139.56804225,
          "velocity": 0.30708661417322836
        },
        {
          "duration": 0.22159068749999733,
          "durationTicks": 312,
          "midi": 58,
          "name": "A#3",
          "ticks": 196512,
          "time": 139.56804225,
          "velocity": 0.30708661417322836
        },
        {
          "duration": 0.22159068749999733,
          "durationTicks": 312,
          "midi": 85,
          "name": "C#6",
          "ticks": 196512,
          "time": 139.56804225,
          "velocity": 0.30708661417322836
        },
        {
          "duration": 0.22159068749999733,
          "durationTicks": 312,
          "midi": 77,
          "name": "F5",
          "ticks": 196536,
          "time": 139.5850876875,
          "velocity": 0.30708661417322836
        },
        {
          "duration": 0.22159068749999733,
          "durationTicks": 312,
          "midi": 53,
          "name": "F3",
          "ticks": 196536,
          "time": 139.5850876875,
          "velocity": 0.30708661417322836
        },
        {
          "duration": 0.22159068749999733,
          "durationTicks": 312,
          "midi": 73,
          "name": "C#5",
          "ticks": 196536,
          "time": 139.5850876875,
          "velocity": 0.30708661417322836
        },
        {
          "duration": 0.22159068749999733,
          "durationTicks": 312,
          "midi": 65,
          "name": "F4",
          "ticks": 196536,
          "time": 139.5850876875,
          "velocity": 0.30708661417322836
        },
        {
          "duration": 0.22159068749999733,
          "durationTicks": 312,
          "midi": 85,
          "name": "C#6",
          "ticks": 196536,
          "time": 139.5850876875,
          "velocity": 0.30708661417322836
        },
        {
          "duration": 0.22159068749999733,
          "durationTicks": 312,
          "midi": 61,
          "name": "C#4",
          "ticks": 196536,
          "time": 139.5850876875,
          "velocity": 0.30708661417322836
        },
        {
          "duration": 0.22159068749999733,
          "durationTicks": 312,
          "midi": 89,
          "name": "F6",
          "ticks": 196536,
          "time": 139.5850876875,
          "velocity": 0.30708661417322836
        },
        {
          "duration": 0.22159068749999733,
          "durationTicks": 312,
          "midi": 58,
          "name": "A#3",
          "ticks": 196536,
          "time": 139.5850876875,
          "velocity": 0.30708661417322836
        },
        {
          "duration": 0.22159068749999733,
          "durationTicks": 312,
          "midi": 70,
          "name": "A#4",
          "ticks": 196536,
          "time": 139.5850876875,
          "velocity": 0.30708661417322836
        },
        {
          "duration": 0.22159068749999733,
          "durationTicks": 312,
          "midi": 46,
          "name": "A#2",
          "ticks": 196536,
          "time": 139.5850876875,
          "velocity": 0.30708661417322836
        },
        {
          "duration": 0.22159068749999733,
          "durationTicks": 312,
          "midi": 82,
          "name": "A#5",
          "ticks": 196536,
          "time": 139.5850876875,
          "velocity": 0.30708661417322836
        },
        {
          "duration": 0.08522718749998148,
          "durationTicks": 120,
          "midi": 49,
          "name": "C#3",
          "ticks": 196752,
          "time": 139.738496625,
          "velocity": 0.30708661417322836
        },
        {
          "duration": 0.22159068749999733,
          "durationTicks": 312,
          "midi": 82,
          "name": "A#5",
          "ticks": 196752,
          "time": 139.738496625,
          "velocity": 0.30708661417322836
        },
        {
          "duration": 0.22159068749999733,
          "durationTicks": 312,
          "midi": 65,
          "name": "F4",
          "ticks": 196752,
          "time": 139.738496625,
          "velocity": 0.30708661417322836
        },
        {
          "duration": 0.22159068749999733,
          "durationTicks": 312,
          "midi": 94,
          "name": "A#6",
          "ticks": 196752,
          "time": 139.738496625,
          "velocity": 0.30708661417322836
        },
        {
          "duration": 0.22159068749999733,
          "durationTicks": 312,
          "midi": 89,
          "name": "F6",
          "ticks": 196752,
          "time": 139.738496625,
          "velocity": 0.30708661417322836
        },
        {
          "duration": 0.22159068749999733,
          "durationTicks": 312,
          "midi": 70,
          "name": "A#4",
          "ticks": 196752,
          "time": 139.738496625,
          "velocity": 0.30708661417322836
        },
        {
          "duration": 0.22159068749999733,
          "durationTicks": 312,
          "midi": 58,
          "name": "A#3",
          "ticks": 196752,
          "time": 139.738496625,
          "velocity": 0.30708661417322836
        },
        {
          "duration": 0.22159068749999733,
          "durationTicks": 312,
          "midi": 89,
          "name": "F6",
          "ticks": 196752,
          "time": 139.738496625,
          "velocity": 0.30708661417322836
        },
        {
          "duration": 0.22159068749999733,
          "durationTicks": 312,
          "midi": 77,
          "name": "F5",
          "ticks": 196752,
          "time": 139.738496625,
          "velocity": 0.30708661417322836
        },
        {
          "duration": 0.22159068749999733,
          "durationTicks": 312,
          "midi": 73,
          "name": "C#5",
          "ticks": 196752,
          "time": 139.738496625,
          "velocity": 0.30708661417322836
        },
        {
          "duration": 0.22159068749999733,
          "durationTicks": 312,
          "midi": 58,
          "name": "A#3",
          "ticks": 196752,
          "time": 139.738496625,
          "velocity": 0.30708661417322836
        },
        {
          "duration": 0.22159068749999733,
          "durationTicks": 312,
          "midi": 70,
          "name": "A#4",
          "ticks": 196752,
          "time": 139.738496625,
          "velocity": 0.30708661417322836
        },
        {
          "duration": 0.08522718749998148,
          "durationTicks": 120,
          "midi": 53,
          "name": "F3",
          "ticks": 196752,
          "time": 139.738496625,
          "velocity": 0.30708661417322836
        },
        {
          "duration": 0.22159068749999733,
          "durationTicks": 312,
          "midi": 85,
          "name": "C#6",
          "ticks": 196752,
          "time": 139.738496625,
          "velocity": 0.30708661417322836
        },
        {
          "duration": 0.22159068749999733,
          "durationTicks": 312,
          "midi": 85,
          "name": "C#6",
          "ticks": 196752,
          "time": 139.738496625,
          "velocity": 0.30708661417322836
        },
        {
          "duration": 0.22159068749999733,
          "durationTicks": 312,
          "midi": 94,
          "name": "A#6",
          "ticks": 196752,
          "time": 139.738496625,
          "velocity": 0.30708661417322836
        },
        {
          "duration": 0.22159068749999733,
          "durationTicks": 312,
          "midi": 73,
          "name": "C#5",
          "ticks": 196752,
          "time": 139.738496625,
          "velocity": 0.30708661417322836
        },
        {
          "duration": 0.22159068749999733,
          "durationTicks": 312,
          "midi": 61,
          "name": "C#4",
          "ticks": 196752,
          "time": 139.738496625,
          "velocity": 0.30708661417322836
        },
        {
          "duration": 0.08522718749998148,
          "durationTicks": 120,
          "midi": 53,
          "name": "F3",
          "ticks": 196752,
          "time": 139.738496625,
          "velocity": 0.30708661417322836
        },
        {
          "duration": 0.08522718749998148,
          "durationTicks": 120,
          "midi": 49,
          "name": "C#3",
          "ticks": 196752,
          "time": 139.738496625,
          "velocity": 0.30708661417322836
        },
        {
          "duration": 0.22159068749999733,
          "durationTicks": 312,
          "midi": 82,
          "name": "A#5",
          "ticks": 196752,
          "time": 139.738496625,
          "velocity": 0.30708661417322836
        },
        {
          "duration": 0.22159068749999733,
          "durationTicks": 312,
          "midi": 61,
          "name": "C#4",
          "ticks": 196752,
          "time": 139.738496625,
          "velocity": 0.30708661417322836
        },
        {
          "duration": 0.22159068749999733,
          "durationTicks": 312,
          "midi": 65,
          "name": "F4",
          "ticks": 196752,
          "time": 139.738496625,
          "velocity": 0.30708661417322836
        },
        {
          "duration": 0.22159068749999733,
          "durationTicks": 312,
          "midi": 77,
          "name": "F5",
          "ticks": 196752,
          "time": 139.738496625,
          "velocity": 0.30708661417322836
        },
        {
          "duration": 0.08522718749998148,
          "durationTicks": 120,
          "midi": 53,
          "name": "F3",
          "ticks": 196776,
          "time": 139.7555420625,
          "velocity": 0.30708661417322836
        },
        {
          "duration": 0.22159068749999733,
          "durationTicks": 312,
          "midi": 85,
          "name": "C#6",
          "ticks": 196776,
          "time": 139.7555420625,
          "velocity": 0.30708661417322836
        },
        {
          "duration": 0.22159068749999733,
          "durationTicks": 312,
          "midi": 89,
          "name": "F6",
          "ticks": 196776,
          "time": 139.7555420625,
          "velocity": 0.30708661417322836
        },
        {
          "duration": 0.22159068749999733,
          "durationTicks": 312,
          "midi": 65,
          "name": "F4",
          "ticks": 196776,
          "time": 139.7555420625,
          "velocity": 0.30708661417322836
        },
        {
          "duration": 0.08522718749998148,
          "durationTicks": 120,
          "midi": 49,
          "name": "C#3",
          "ticks": 196776,
          "time": 139.7555420625,
          "velocity": 0.30708661417322836
        },
        {
          "duration": 0.22159068749999733,
          "durationTicks": 312,
          "midi": 70,
          "name": "A#4",
          "ticks": 196776,
          "time": 139.7555420625,
          "velocity": 0.30708661417322836
        },
        {
          "duration": 0.22159068749999733,
          "durationTicks": 312,
          "midi": 58,
          "name": "A#3",
          "ticks": 196776,
          "time": 139.7555420625,
          "velocity": 0.30708661417322836
        },
        {
          "duration": 0.22159068749999733,
          "durationTicks": 312,
          "midi": 77,
          "name": "F5",
          "ticks": 196776,
          "time": 139.7555420625,
          "velocity": 0.30708661417322836
        },
        {
          "duration": 0.22159068749999733,
          "durationTicks": 312,
          "midi": 61,
          "name": "C#4",
          "ticks": 196776,
          "time": 139.7555420625,
          "velocity": 0.30708661417322836
        },
        {
          "duration": 0.22159068749999733,
          "durationTicks": 312,
          "midi": 82,
          "name": "A#5",
          "ticks": 196776,
          "time": 139.7555420625,
          "velocity": 0.30708661417322836
        },
        {
          "duration": 0.22159068749999733,
          "durationTicks": 312,
          "midi": 94,
          "name": "A#6",
          "ticks": 196776,
          "time": 139.7555420625,
          "velocity": 0.30708661417322836
        },
        {
          "duration": 0.22159068749999733,
          "durationTicks": 312,
          "midi": 73,
          "name": "C#5",
          "ticks": 196776,
          "time": 139.7555420625,
          "velocity": 0.30708661417322836
        },
        {
          "duration": 0.4261359374999927,
          "durationTicks": 600,
          "midi": 82,
          "name": "A#5",
          "ticks": 196992,
          "time": 139.908951,
          "velocity": 0.30708661417322836
        },
        {
          "duration": 0.4261359374999927,
          "durationTicks": 600,
          "midi": 85,
          "name": "C#6",
          "ticks": 196992,
          "time": 139.908951,
          "velocity": 0.30708661417322836
        },
        {
          "duration": 0.4261359374999927,
          "durationTicks": 600,
          "midi": 85,
          "name": "C#6",
          "ticks": 196992,
          "time": 139.908951,
          "velocity": 0.30708661417322836
        },
        {
          "duration": 0.4261359374999927,
          "durationTicks": 600,
          "midi": 85,
          "name": "C#6",
          "ticks": 196992,
          "time": 139.908951,
          "velocity": 0.30708661417322836
        },
        {
          "duration": 0.4261359374999927,
          "durationTicks": 600,
          "midi": 70,
          "name": "A#4",
          "ticks": 196992,
          "time": 139.908951,
          "velocity": 0.30708661417322836
        },
        {
          "duration": 0.0852271875000099,
          "durationTicks": 120,
          "midi": 41,
          "name": "F2",
          "ticks": 196992,
          "time": 139.908951,
          "velocity": 0.30708661417322836
        },
        {
          "duration": 0.4261359374999927,
          "durationTicks": 600,
          "midi": 73,
          "name": "C#5",
          "ticks": 196992,
          "time": 139.908951,
          "velocity": 0.30708661417322836
        },
        {
          "duration": 0.4261359374999927,
          "durationTicks": 600,
          "midi": 61,
          "name": "C#4",
          "ticks": 196992,
          "time": 139.908951,
          "velocity": 0.30708661417322836
        },
        {
          "duration": 0.4261359374999927,
          "durationTicks": 600,
          "midi": 61,
          "name": "C#4",
          "ticks": 196992,
          "time": 139.908951,
          "velocity": 0.30708661417322836
        },
        {
          "duration": 0.4261359374999927,
          "durationTicks": 600,
          "midi": 89,
          "name": "F6",
          "ticks": 196992,
          "time": 139.908951,
          "velocity": 0.30708661417322836
        },
        {
          "duration": 0.4261359374999927,
          "durationTicks": 600,
          "midi": 73,
          "name": "C#5",
          "ticks": 196992,
          "time": 139.908951,
          "velocity": 0.30708661417322836
        },
        {
          "duration": 0.4261359374999927,
          "durationTicks": 600,
          "midi": 65,
          "name": "F4",
          "ticks": 196992,
          "time": 139.908951,
          "velocity": 0.30708661417322836
        },
        {
          "duration": 0.0852271875000099,
          "durationTicks": 120,
          "midi": 41,
          "name": "F2",
          "ticks": 196992,
          "time": 139.908951,
          "velocity": 0.30708661417322836
        },
        {
          "duration": 0.4261359374999927,
          "durationTicks": 600,
          "midi": 82,
          "name": "A#5",
          "ticks": 196992,
          "time": 139.908951,
          "velocity": 0.30708661417322836
        },
        {
          "duration": 0.4261359374999927,
          "durationTicks": 600,
          "midi": 77,
          "name": "F5",
          "ticks": 196992,
          "time": 139.908951,
          "velocity": 0.30708661417322836
        },
        {
          "duration": 0.4261359374999927,
          "durationTicks": 600,
          "midi": 77,
          "name": "F5",
          "ticks": 196992,
          "time": 139.908951,
          "velocity": 0.30708661417322836
        },
        {
          "duration": 0.4261359374999927,
          "durationTicks": 600,
          "midi": 61,
          "name": "C#4",
          "ticks": 196992,
          "time": 139.908951,
          "velocity": 0.30708661417322836
        },
        {
          "duration": 0.4261359374999927,
          "durationTicks": 600,
          "midi": 94,
          "name": "A#6",
          "ticks": 196992,
          "time": 139.908951,
          "velocity": 0.30708661417322836
        },
        {
          "duration": 0.4261359374999927,
          "durationTicks": 600,
          "midi": 65,
          "name": "F4",
          "ticks": 196992,
          "time": 139.908951,
          "velocity": 0.30708661417322836
        },
        {
          "duration": 0.4261359374999927,
          "durationTicks": 600,
          "midi": 61,
          "name": "C#4",
          "ticks": 196992,
          "time": 139.908951,
          "velocity": 0.30708661417322836
        },
        {
          "duration": 0.4261359374999927,
          "durationTicks": 600,
          "midi": 70,
          "name": "A#4",
          "ticks": 196992,
          "time": 139.908951,
          "velocity": 0.30708661417322836
        },
        {
          "duration": 0.4261359374999927,
          "durationTicks": 600,
          "midi": 85,
          "name": "C#6",
          "ticks": 196992,
          "time": 139.908951,
          "velocity": 0.30708661417322836
        },
        {
          "duration": 0.4261359374999927,
          "durationTicks": 600,
          "midi": 89,
          "name": "F6",
          "ticks": 196992,
          "time": 139.908951,
          "velocity": 0.30708661417322836
        },
        {
          "duration": 0.4261359374999927,
          "durationTicks": 600,
          "midi": 73,
          "name": "C#5",
          "ticks": 196992,
          "time": 139.908951,
          "velocity": 0.30708661417322836
        },
        {
          "duration": 0.4261359374999927,
          "durationTicks": 600,
          "midi": 73,
          "name": "C#5",
          "ticks": 196992,
          "time": 139.908951,
          "velocity": 0.30708661417322836
        },
        {
          "duration": 0.4261359374999927,
          "durationTicks": 600,
          "midi": 94,
          "name": "A#6",
          "ticks": 196992,
          "time": 139.908951,
          "velocity": 0.30708661417322836
        },
        {
          "duration": 0.4261359374999927,
          "durationTicks": 600,
          "midi": 65,
          "name": "F4",
          "ticks": 197016,
          "time": 139.9259964375,
          "velocity": 0.30708661417322836
        },
        {
          "duration": 0.4261359374999927,
          "durationTicks": 600,
          "midi": 61,
          "name": "C#4",
          "ticks": 197016,
          "time": 139.9259964375,
          "velocity": 0.30708661417322836
        },
        {
          "duration": 0.4261359374999927,
          "durationTicks": 600,
          "midi": 85,
          "name": "C#6",
          "ticks": 197016,
          "time": 139.9259964375,
          "velocity": 0.30708661417322836
        },
        {
          "duration": 0.4261359374999927,
          "durationTicks": 600,
          "midi": 94,
          "name": "A#6",
          "ticks": 197016,
          "time": 139.9259964375,
          "velocity": 0.30708661417322836
        },
        {
          "duration": 0.4261359374999927,
          "durationTicks": 600,
          "midi": 70,
          "name": "A#4",
          "ticks": 197016,
          "time": 139.9259964375,
          "velocity": 0.30708661417322836
        },
        {
          "duration": 0.4261359374999927,
          "durationTicks": 600,
          "midi": 61,
          "name": "C#4",
          "ticks": 197016,
          "time": 139.9259964375,
          "velocity": 0.30708661417322836
        },
        {
          "duration": 0.08522718749998148,
          "durationTicks": 120,
          "midi": 41,
          "name": "F2",
          "ticks": 197016,
          "time": 139.9259964375,
          "velocity": 0.30708661417322836
        },
        {
          "duration": 0.4261359374999927,
          "durationTicks": 600,
          "midi": 77,
          "name": "F5",
          "ticks": 197016,
          "time": 139.9259964375,
          "velocity": 0.30708661417322836
        },
        {
          "duration": 0.4261359374999927,
          "durationTicks": 600,
          "midi": 82,
          "name": "A#5",
          "ticks": 197016,
          "time": 139.9259964375,
          "velocity": 0.30708661417322836
        },
        {
          "duration": 0.4261359374999927,
          "durationTicks": 600,
          "midi": 73,
          "name": "C#5",
          "ticks": 197016,
          "time": 139.9259964375,
          "velocity": 0.30708661417322836
        },
        {
          "duration": 0.4261359374999927,
          "durationTicks": 600,
          "midi": 73,
          "name": "C#5",
          "ticks": 197016,
          "time": 139.9259964375,
          "velocity": 0.30708661417322836
        },
        {
          "duration": 0.4261359374999927,
          "durationTicks": 600,
          "midi": 85,
          "name": "C#6",
          "ticks": 197016,
          "time": 139.9259964375,
          "velocity": 0.30708661417322836
        },
        {
          "duration": 0.4261359374999927,
          "durationTicks": 600,
          "midi": 89,
          "name": "F6",
          "ticks": 197016,
          "time": 139.9259964375,
          "velocity": 0.30708661417322836
        },
        {
          "duration": 0.0852271875000099,
          "durationTicks": 120,
          "midi": 53,
          "name": "F3",
          "ticks": 197232,
          "time": 140.079405375,
          "velocity": 0.30708661417322836
        },
        {
          "duration": 0.0852271875000099,
          "durationTicks": 120,
          "midi": 49,
          "name": "C#3",
          "ticks": 197232,
          "time": 140.079405375,
          "velocity": 0.30708661417322836
        },
        {
          "duration": 0.0852271875000099,
          "durationTicks": 120,
          "midi": 53,
          "name": "F3",
          "ticks": 197232,
          "time": 140.079405375,
          "velocity": 0.30708661417322836
        },
        {
          "duration": 0.0852271875000099,
          "durationTicks": 120,
          "midi": 49,
          "name": "C#3",
          "ticks": 197232,
          "time": 140.079405375,
          "velocity": 0.30708661417322836
        },
        {
          "duration": 0.0852271875000099,
          "durationTicks": 120,
          "midi": 53,
          "name": "F3",
          "ticks": 197256,
          "time": 140.0964508125,
          "velocity": 0.30708661417322836
        },
        {
          "duration": 0.0852271875000099,
          "durationTicks": 120,
          "midi": 49,
          "name": "C#3",
          "ticks": 197256,
          "time": 140.0964508125,
          "velocity": 0.30708661417322836
        },
        {
          "duration": 0.0852271875000099,
          "durationTicks": 120,
          "midi": 51,
          "name": "D#3",
          "ticks": 197472,
          "time": 140.24985974999998,
          "velocity": 0.30708661417322836
        },
        {
          "duration": 0.0852271875000099,
          "durationTicks": 120,
          "midi": 51,
          "name": "D#3",
          "ticks": 197472,
          "time": 140.24985974999998,
          "velocity": 0.30708661417322836
        },
        {
          "duration": 0.0852271875000099,
          "durationTicks": 120,
          "midi": 87,
          "name": "D#6",
          "ticks": 197472,
          "time": 140.24985974999998,
          "velocity": 0.30708661417322836
        },
        {
          "duration": 0.0852271875000099,
          "durationTicks": 120,
          "midi": 87,
          "name": "D#6",
          "ticks": 197472,
          "time": 140.24985974999998,
          "velocity": 0.30708661417322836
        },
        {
          "duration": 0.0852271875000099,
          "durationTicks": 120,
          "midi": 92,
          "name": "G#6",
          "ticks": 197472,
          "time": 140.24985974999998,
          "velocity": 0.30708661417322836
        },
        {
          "duration": 0.0852271875000099,
          "durationTicks": 120,
          "midi": 92,
          "name": "G#6",
          "ticks": 197472,
          "time": 140.24985974999998,
          "velocity": 0.30708661417322836
        },
        {
          "duration": 0.0852271875000099,
          "durationTicks": 120,
          "midi": 87,
          "name": "D#6",
          "ticks": 197496,
          "time": 140.2669051875,
          "velocity": 0.30708661417322836
        },
        {
          "duration": 0.0852271875000099,
          "durationTicks": 120,
          "midi": 92,
          "name": "G#6",
          "ticks": 197496,
          "time": 140.2669051875,
          "velocity": 0.30708661417322836
        },
        {
          "duration": 0.0852271875000099,
          "durationTicks": 120,
          "midi": 51,
          "name": "D#3",
          "ticks": 197496,
          "time": 140.2669051875,
          "velocity": 0.30708661417322836
        },
        {
          "duration": 0.0852271875000099,
          "durationTicks": 120,
          "midi": 94,
          "name": "A#6",
          "ticks": 197592,
          "time": 140.3350869375,
          "velocity": 0.30708661417322836
        },
        {
          "duration": 0.0852271875000099,
          "durationTicks": 120,
          "midi": 82,
          "name": "A#5",
          "ticks": 197592,
          "time": 140.3350869375,
          "velocity": 0.30708661417322836
        },
        {
          "duration": 0.0852271875000099,
          "durationTicks": 120,
          "midi": 73,
          "name": "C#5",
          "ticks": 197592,
          "time": 140.3350869375,
          "velocity": 0.30708661417322836
        },
        {
          "duration": 0.0852271875000099,
          "durationTicks": 120,
          "midi": 94,
          "name": "A#6",
          "ticks": 197592,
          "time": 140.3350869375,
          "velocity": 0.30708661417322836
        },
        {
          "duration": 0.0852271875000099,
          "durationTicks": 120,
          "midi": 77,
          "name": "F5",
          "ticks": 197592,
          "time": 140.3350869375,
          "velocity": 0.30708661417322836
        },
        {
          "duration": 0.0852271875000099,
          "durationTicks": 120,
          "midi": 73,
          "name": "C#5",
          "ticks": 197592,
          "time": 140.3350869375,
          "velocity": 0.30708661417322836
        },
        {
          "duration": 0.0852271875000099,
          "durationTicks": 120,
          "midi": 73,
          "name": "C#5",
          "ticks": 197592,
          "time": 140.3350869375,
          "velocity": 0.30708661417322836
        },
        {
          "duration": 0.0852271875000099,
          "durationTicks": 120,
          "midi": 82,
          "name": "A#5",
          "ticks": 197592,
          "time": 140.3350869375,
          "velocity": 0.30708661417322836
        },
        {
          "duration": 0.0852271875000099,
          "durationTicks": 120,
          "midi": 85,
          "name": "C#6",
          "ticks": 197592,
          "time": 140.3350869375,
          "velocity": 0.30708661417322836
        },
        {
          "duration": 0.0852271875000099,
          "durationTicks": 120,
          "midi": 73,
          "name": "C#5",
          "ticks": 197592,
          "time": 140.3350869375,
          "velocity": 0.30708661417322836
        },
        {
          "duration": 0.0852271875000099,
          "durationTicks": 120,
          "midi": 89,
          "name": "F6",
          "ticks": 197592,
          "time": 140.3350869375,
          "velocity": 0.30708661417322836
        },
        {
          "duration": 0.0852271875000099,
          "durationTicks": 120,
          "midi": 85,
          "name": "C#6",
          "ticks": 197592,
          "time": 140.3350869375,
          "velocity": 0.30708661417322836
        },
        {
          "duration": 0.0852271875000099,
          "durationTicks": 120,
          "midi": 85,
          "name": "C#6",
          "ticks": 197592,
          "time": 140.3350869375,
          "velocity": 0.30708661417322836
        },
        {
          "duration": 0.0852271875000099,
          "durationTicks": 120,
          "midi": 89,
          "name": "F6",
          "ticks": 197592,
          "time": 140.3350869375,
          "velocity": 0.30708661417322836
        },
        {
          "duration": 0.0852271875000099,
          "durationTicks": 120,
          "midi": 85,
          "name": "C#6",
          "ticks": 197592,
          "time": 140.3350869375,
          "velocity": 0.30708661417322836
        },
        {
          "duration": 0.0852271875000099,
          "durationTicks": 120,
          "midi": 77,
          "name": "F5",
          "ticks": 197592,
          "time": 140.3350869375,
          "velocity": 0.30708661417322836
        },
        {
          "duration": 0.0852271875000099,
          "durationTicks": 120,
          "midi": 85,
          "name": "C#6",
          "ticks": 197616,
          "time": 140.352132375,
          "velocity": 0.30708661417322836
        },
        {
          "duration": 0.0852271875000099,
          "durationTicks": 120,
          "midi": 89,
          "name": "F6",
          "ticks": 197616,
          "time": 140.352132375,
          "velocity": 0.30708661417322836
        },
        {
          "duration": 0.0852271875000099,
          "durationTicks": 120,
          "midi": 77,
          "name": "F5",
          "ticks": 197616,
          "time": 140.352132375,
          "velocity": 0.30708661417322836
        },
        {
          "duration": 0.0852271875000099,
          "durationTicks": 120,
          "midi": 73,
          "name": "C#5",
          "ticks": 197616,
          "time": 140.352132375,
          "velocity": 0.30708661417322836
        },
        {
          "duration": 0.0852271875000099,
          "durationTicks": 120,
          "midi": 85,
          "name": "C#6",
          "ticks": 197616,
          "time": 140.352132375,
          "velocity": 0.30708661417322836
        },
        {
          "duration": 0.0852271875000099,
          "durationTicks": 120,
          "midi": 94,
          "name": "A#6",
          "ticks": 197616,
          "time": 140.352132375,
          "velocity": 0.30708661417322836
        },
        {
          "duration": 0.0852271875000099,
          "durationTicks": 120,
          "midi": 73,
          "name": "C#5",
          "ticks": 197616,
          "time": 140.352132375,
          "velocity": 0.30708661417322836
        },
        {
          "duration": 0.0852271875000099,
          "durationTicks": 120,
          "midi": 82,
          "name": "A#5",
          "ticks": 197616,
          "time": 140.352132375,
          "velocity": 0.30708661417322836
        },
        {
          "duration": 0.08522718749998148,
          "durationTicks": 120,
          "midi": 60,
          "name": "C4",
          "ticks": 197712,
          "time": 140.420314125,
          "velocity": 0.30708661417322836
        },
        {
          "duration": 0.08522718749998148,
          "durationTicks": 120,
          "midi": 84,
          "name": "C6",
          "ticks": 197712,
          "time": 140.420314125,
          "velocity": 0.30708661417322836
        },
        {
          "duration": 0.08522718749998148,
          "durationTicks": 120,
          "midi": 54,
          "name": "F#3",
          "ticks": 197712,
          "time": 140.420314125,
          "velocity": 0.30708661417322836
        },
        {
          "duration": 0.08522718749998148,
          "durationTicks": 120,
          "midi": 84,
          "name": "C6",
          "ticks": 197712,
          "time": 140.420314125,
          "velocity": 0.30708661417322836
        },
        {
          "duration": 0.08522718749998148,
          "durationTicks": 120,
          "midi": 92,
          "name": "G#6",
          "ticks": 197712,
          "time": 140.420314125,
          "velocity": 0.30708661417322836
        },
        {
          "duration": 0.08522718749998148,
          "durationTicks": 120,
          "midi": 80,
          "name": "G#5",
          "ticks": 197712,
          "time": 140.420314125,
          "velocity": 0.30708661417322836
        },
        {
          "duration": 0.08522718749998148,
          "durationTicks": 120,
          "midi": 72,
          "name": "C5",
          "ticks": 197712,
          "time": 140.420314125,
          "velocity": 0.30708661417322836
        },
        {
          "duration": 0.08522718749998148,
          "durationTicks": 120,
          "midi": 77,
          "name": "F5",
          "ticks": 197712,
          "time": 140.420314125,
          "velocity": 0.30708661417322836
        },
        {
          "duration": 0.08522718749998148,
          "durationTicks": 120,
          "midi": 80,
          "name": "G#5",
          "ticks": 197712,
          "time": 140.420314125,
          "velocity": 0.30708661417322836
        },
        {
          "duration": 0.08522718749998148,
          "durationTicks": 120,
          "midi": 89,
          "name": "F6",
          "ticks": 197712,
          "time": 140.420314125,
          "velocity": 0.30708661417322836
        },
        {
          "duration": 0.08522718749998148,
          "durationTicks": 120,
          "midi": 89,
          "name": "F6",
          "ticks": 197712,
          "time": 140.420314125,
          "velocity": 0.30708661417322836
        },
        {
          "duration": 0.08522718749998148,
          "durationTicks": 120,
          "midi": 54,
          "name": "F#3",
          "ticks": 197712,
          "time": 140.420314125,
          "velocity": 0.30708661417322836
        },
        {
          "duration": 0.08522718749998148,
          "durationTicks": 120,
          "midi": 92,
          "name": "G#6",
          "ticks": 197712,
          "time": 140.420314125,
          "velocity": 0.30708661417322836
        },
        {
          "duration": 0.08522718749998148,
          "durationTicks": 120,
          "midi": 77,
          "name": "F5",
          "ticks": 197712,
          "time": 140.420314125,
          "velocity": 0.30708661417322836
        },
        {
          "duration": 0.08522718749998148,
          "durationTicks": 120,
          "midi": 60,
          "name": "C4",
          "ticks": 197712,
          "time": 140.420314125,
          "velocity": 0.30708661417322836
        },
        {
          "duration": 0.08522718749998148,
          "durationTicks": 120,
          "midi": 72,
          "name": "C5",
          "ticks": 197712,
          "time": 140.420314125,
          "velocity": 0.30708661417322836
        },
        {
          "duration": 0.08522718749998148,
          "durationTicks": 120,
          "midi": 72,
          "name": "C5",
          "ticks": 197736,
          "time": 140.4373595625,
          "velocity": 0.30708661417322836
        },
        {
          "duration": 0.08522718749998148,
          "durationTicks": 120,
          "midi": 77,
          "name": "F5",
          "ticks": 197736,
          "time": 140.4373595625,
          "velocity": 0.30708661417322836
        },
        {
          "duration": 0.08522718749998148,
          "durationTicks": 120,
          "midi": 80,
          "name": "G#5",
          "ticks": 197736,
          "time": 140.4373595625,
          "velocity": 0.30708661417322836
        },
        {
          "duration": 0.08522718749998148,
          "durationTicks": 120,
          "midi": 92,
          "name": "G#6",
          "ticks": 197736,
          "time": 140.4373595625,
          "velocity": 0.30708661417322836
        },
        {
          "duration": 0.08522718749998148,
          "durationTicks": 120,
          "midi": 89,
          "name": "F6",
          "ticks": 197736,
          "time": 140.4373595625,
          "velocity": 0.30708661417322836
        },
        {
          "duration": 0.08522718749998148,
          "durationTicks": 120,
          "midi": 60,
          "name": "C4",
          "ticks": 197736,
          "time": 140.4373595625,
          "velocity": 0.30708661417322836
        },
        {
          "duration": 0.08522718749998148,
          "durationTicks": 120,
          "midi": 84,
          "name": "C6",
          "ticks": 197736,
          "time": 140.4373595625,
          "velocity": 0.30708661417322836
        },
        {
          "duration": 0.08522718749998148,
          "durationTicks": 120,
          "midi": 54,
          "name": "F#3",
          "ticks": 197736,
          "time": 140.4373595625,
          "velocity": 0.30708661417322836
        },
        {
          "duration": 0.0852271875000099,
          "durationTicks": 120,
          "midi": 87,
          "name": "D#6",
          "ticks": 197832,
          "time": 140.5055413125,
          "velocity": 0.30708661417322836
        },
        {
          "duration": 0.0852271875000099,
          "durationTicks": 120,
          "midi": 87,
          "name": "D#6",
          "ticks": 197832,
          "time": 140.5055413125,
          "velocity": 0.30708661417322836
        },
        {
          "duration": 0.0852271875000099,
          "durationTicks": 120,
          "midi": 75,
          "name": "D#5",
          "ticks": 197832,
          "time": 140.5055413125,
          "velocity": 0.30708661417322836
        },
        {
          "duration": 0.0852271875000099,
          "durationTicks": 120,
          "midi": 75,
          "name": "D#5",
          "ticks": 197832,
          "time": 140.5055413125,
          "velocity": 0.30708661417322836
        },
        {
          "duration": 0.0852271875000099,
          "durationTicks": 120,
          "midi": 75,
          "name": "D#5",
          "ticks": 197856,
          "time": 140.52258675,
          "velocity": 0.30708661417322836
        },
        {
          "duration": 0.0852271875000099,
          "durationTicks": 120,
          "midi": 87,
          "name": "D#6",
          "ticks": 197856,
          "time": 140.52258675,
          "velocity": 0.30708661417322836
        },
        {
          "duration": 0.1534089374999894,
          "durationTicks": 216,
          "midi": 49,
          "name": "C#3",
          "ticks": 197952,
          "time": 140.5907685,
          "velocity": 0.30708661417322836
        },
        {
          "duration": 0.0852271875000099,
          "durationTicks": 120,
          "midi": 73,
          "name": "C#5",
          "ticks": 197952,
          "time": 140.5907685,
          "velocity": 0.30708661417322836
        },
        {
          "duration": 0.0852271875000099,
          "durationTicks": 120,
          "midi": 73,
          "name": "C#5",
          "ticks": 197952,
          "time": 140.5907685,
          "velocity": 0.30708661417322836
        },
        {
          "duration": 0.0852271875000099,
          "durationTicks": 120,
          "midi": 85,
          "name": "C#6",
          "ticks": 197952,
          "time": 140.5907685,
          "velocity": 0.30708661417322836
        },
        {
          "duration": 0.0852271875000099,
          "durationTicks": 120,
          "midi": 85,
          "name": "C#6",
          "ticks": 197952,
          "time": 140.5907685,
          "velocity": 0.30708661417322836
        },
        {
          "duration": 0.0852271875000099,
          "durationTicks": 120,
          "midi": 85,
          "name": "C#6",
          "ticks": 197952,
          "time": 140.5907685,
          "velocity": 0.30708661417322836
        },
        {
          "duration": 0.1534089374999894,
          "durationTicks": 216,
          "midi": 49,
          "name": "C#3",
          "ticks": 197952,
          "time": 140.5907685,
          "velocity": 0.30708661417322836
        },
        {
          "duration": 0.0852271875000099,
          "durationTicks": 120,
          "midi": 73,
          "name": "C#5",
          "ticks": 197952,
          "time": 140.5907685,
          "velocity": 0.30708661417322836
        },
        {
          "duration": 0.0852271875000099,
          "durationTicks": 120,
          "midi": 85,
          "name": "C#6",
          "ticks": 197952,
          "time": 140.5907685,
          "velocity": 0.30708661417322836
        },
        {
          "duration": 0.0852271875000099,
          "durationTicks": 120,
          "midi": 73,
          "name": "C#5",
          "ticks": 197952,
          "time": 140.5907685,
          "velocity": 0.30708661417322836
        },
        {
          "duration": 0.1534089374999894,
          "durationTicks": 216,
          "midi": 49,
          "name": "C#3",
          "ticks": 197976,
          "time": 140.6078139375,
          "velocity": 0.30708661417322836
        },
        {
          "duration": 0.0852271875000099,
          "durationTicks": 120,
          "midi": 73,
          "name": "C#5",
          "ticks": 197976,
          "time": 140.6078139375,
          "velocity": 0.30708661417322836
        },
        {
          "duration": 0.0852271875000099,
          "durationTicks": 120,
          "midi": 73,
          "name": "C#5",
          "ticks": 197976,
          "time": 140.6078139375,
          "velocity": 0.30708661417322836
        },
        {
          "duration": 0.0852271875000099,
          "durationTicks": 120,
          "midi": 85,
          "name": "C#6",
          "ticks": 197976,
          "time": 140.6078139375,
          "velocity": 0.30708661417322836
        },
        {
          "duration": 0.0852271875000099,
          "durationTicks": 120,
          "midi": 85,
          "name": "C#6",
          "ticks": 197976,
          "time": 140.6078139375,
          "velocity": 0.30708661417322836
        },
        {
          "duration": 0.08522718749998148,
          "durationTicks": 120,
          "midi": 72,
          "name": "C5",
          "ticks": 198072,
          "time": 140.6759956875,
          "velocity": 0.30708661417322836
        },
        {
          "duration": 0.08522718749998148,
          "durationTicks": 120,
          "midi": 92,
          "name": "G#6",
          "ticks": 198072,
          "time": 140.6759956875,
          "velocity": 0.30708661417322836
        },
        {
          "duration": 0.08522718749998148,
          "durationTicks": 120,
          "midi": 84,
          "name": "C6",
          "ticks": 198072,
          "time": 140.6759956875,
          "velocity": 0.30708661417322836
        },
        {
          "duration": 0.08522718749998148,
          "durationTicks": 120,
          "midi": 80,
          "name": "G#5",
          "ticks": 198072,
          "time": 140.6759956875,
          "velocity": 0.30708661417322836
        },
        {
          "duration": 0.08522718749998148,
          "durationTicks": 120,
          "midi": 80,
          "name": "G#5",
          "ticks": 198072,
          "time": 140.6759956875,
          "velocity": 0.30708661417322836
        },
        {
          "duration": 0.08522718749998148,
          "durationTicks": 120,
          "midi": 92,
          "name": "G#6",
          "ticks": 198072,
          "time": 140.6759956875,
          "velocity": 0.30708661417322836
        },
        {
          "duration": 0.08522718749998148,
          "durationTicks": 120,
          "midi": 84,
          "name": "C6",
          "ticks": 198072,
          "time": 140.6759956875,
          "velocity": 0.30708661417322836
        },
        {
          "duration": 0.08522718749998148,
          "durationTicks": 120,
          "midi": 72,
          "name": "C5",
          "ticks": 198072,
          "time": 140.6759956875,
          "velocity": 0.30708661417322836
        },
        {
          "duration": 0.08522718749998148,
          "durationTicks": 120,
          "midi": 87,
          "name": "D#6",
          "ticks": 198072,
          "time": 140.6759956875,
          "velocity": 0.30708661417322836
        },
        {
          "duration": 0.08522718749998148,
          "durationTicks": 120,
          "midi": 87,
          "name": "D#6",
          "ticks": 198072,
          "time": 140.6759956875,
          "velocity": 0.30708661417322836
        },
        {
          "duration": 0.08522718749998148,
          "durationTicks": 120,
          "midi": 75,
          "name": "D#5",
          "ticks": 198072,
          "time": 140.6759956875,
          "velocity": 0.30708661417322836
        },
        {
          "duration": 0.08522718749998148,
          "durationTicks": 120,
          "midi": 75,
          "name": "D#5",
          "ticks": 198072,
          "time": 140.6759956875,
          "velocity": 0.30708661417322836
        },
        {
          "duration": 0.08522718749998148,
          "durationTicks": 120,
          "midi": 75,
          "name": "D#5",
          "ticks": 198096,
          "time": 140.693041125,
          "velocity": 0.30708661417322836
        },
        {
          "duration": 0.08522718749998148,
          "durationTicks": 120,
          "midi": 87,
          "name": "D#6",
          "ticks": 198096,
          "time": 140.693041125,
          "velocity": 0.30708661417322836
        },
        {
          "duration": 0.08522718749998148,
          "durationTicks": 120,
          "midi": 84,
          "name": "C6",
          "ticks": 198096,
          "time": 140.693041125,
          "velocity": 0.30708661417322836
        },
        {
          "duration": 0.08522718749998148,
          "durationTicks": 120,
          "midi": 72,
          "name": "C5",
          "ticks": 198096,
          "time": 140.693041125,
          "velocity": 0.30708661417322836
        },
        {
          "duration": 0.08522718749998148,
          "durationTicks": 120,
          "midi": 92,
          "name": "G#6",
          "ticks": 198096,
          "time": 140.693041125,
          "velocity": 0.30708661417322836
        },
        {
          "duration": 0.08522718749998148,
          "durationTicks": 120,
          "midi": 80,
          "name": "G#5",
          "ticks": 198096,
          "time": 140.693041125,
          "velocity": 0.30708661417322836
        },
        {
          "duration": 0.0852271875000099,
          "durationTicks": 120,
          "midi": 94,
          "name": "A#6",
          "ticks": 198192,
          "time": 140.761222875,
          "velocity": 0.30708661417322836
        },
        {
          "duration": 0.0852271875000099,
          "durationTicks": 120,
          "midi": 94,
          "name": "A#6",
          "ticks": 198192,
          "time": 140.761222875,
          "velocity": 0.30708661417322836
        },
        {
          "duration": 0.0852271875000099,
          "durationTicks": 120,
          "midi": 82,
          "name": "A#5",
          "ticks": 198192,
          "time": 140.761222875,
          "velocity": 0.30708661417322836
        },
        {
          "duration": 0.0852271875000099,
          "durationTicks": 120,
          "midi": 61,
          "name": "C#4",
          "ticks": 198192,
          "time": 140.761222875,
          "velocity": 0.30708661417322836
        },
        {
          "duration": 0.0852271875000099,
          "durationTicks": 120,
          "midi": 70,
          "name": "A#4",
          "ticks": 198192,
          "time": 140.761222875,
          "velocity": 0.30708661417322836
        },
        {
          "duration": 0.0852271875000099,
          "durationTicks": 120,
          "midi": 82,
          "name": "A#5",
          "ticks": 198192,
          "time": 140.761222875,
          "velocity": 0.30708661417322836
        },
        {
          "duration": 0.0852271875000099,
          "durationTicks": 120,
          "midi": 82,
          "name": "A#5",
          "ticks": 198192,
          "time": 140.761222875,
          "velocity": 0.30708661417322836
        },
        {
          "duration": 0.0852271875000099,
          "durationTicks": 120,
          "midi": 70,
          "name": "A#4",
          "ticks": 198192,
          "time": 140.761222875,
          "velocity": 0.30708661417322836
        },
        {
          "duration": 0.0852271875000099,
          "durationTicks": 120,
          "midi": 61,
          "name": "C#4",
          "ticks": 198192,
          "time": 140.761222875,
          "velocity": 0.30708661417322836
        },
        {
          "duration": 0.0852271875000099,
          "durationTicks": 120,
          "midi": 82,
          "name": "A#5",
          "ticks": 198192,
          "time": 140.761222875,
          "velocity": 0.30708661417322836
        },
        {
          "duration": 0.0852271875000099,
          "durationTicks": 120,
          "midi": 53,
          "name": "F3",
          "ticks": 198192,
          "time": 140.761222875,
          "velocity": 0.30708661417322836
        },
        {
          "duration": 0.0852271875000099,
          "durationTicks": 120,
          "midi": 53,
          "name": "F3",
          "ticks": 198192,
          "time": 140.761222875,
          "velocity": 0.30708661417322836
        },
        {
          "duration": 0.0852271875000099,
          "durationTicks": 120,
          "midi": 70,
          "name": "A#4",
          "ticks": 198216,
          "time": 140.7782683125,
          "velocity": 0.30708661417322836
        },
        {
          "duration": 0.0852271875000099,
          "durationTicks": 120,
          "midi": 61,
          "name": "C#4",
          "ticks": 198216,
          "time": 140.7782683125,
          "velocity": 0.30708661417322836
        },
        {
          "duration": 0.0852271875000099,
          "durationTicks": 120,
          "midi": 94,
          "name": "A#6",
          "ticks": 198216,
          "time": 140.7782683125,
          "velocity": 0.30708661417322836
        },
        {
          "duration": 0.0852271875000099,
          "durationTicks": 120,
          "midi": 53,
          "name": "F3",
          "ticks": 198216,
          "time": 140.7782683125,
          "velocity": 0.30708661417322836
        },
        {
          "duration": 0.0852271875000099,
          "durationTicks": 120,
          "midi": 82,
          "name": "A#5",
          "ticks": 198216,
          "time": 140.7782683125,
          "velocity": 0.30708661417322836
        },
        {
          "duration": 0.0852271875000099,
          "durationTicks": 120,
          "midi": 82,
          "name": "A#5",
          "ticks": 198216,
          "time": 140.7782683125,
          "velocity": 0.30708661417322836
        },
        {
          "duration": 0.0852271875000099,
          "durationTicks": 120,
          "midi": 73,
          "name": "C#5",
          "ticks": 198288,
          "time": 140.829404625,
          "velocity": 0.30708661417322836
        },
        {
          "duration": 0.0852271875000099,
          "durationTicks": 120,
          "midi": 85,
          "name": "C#6",
          "ticks": 198288,
          "time": 140.829404625,
          "velocity": 0.30708661417322836
        },
        {
          "duration": 0.0852271875000099,
          "durationTicks": 120,
          "midi": 85,
          "name": "C#6",
          "ticks": 198288,
          "time": 140.829404625,
          "velocity": 0.30708661417322836
        },
        {
          "duration": 0.0852271875000099,
          "durationTicks": 120,
          "midi": 73,
          "name": "C#5",
          "ticks": 198288,
          "time": 140.829404625,
          "velocity": 0.30708661417322836
        },
        {
          "duration": 0.0852271875000099,
          "durationTicks": 120,
          "midi": 73,
          "name": "C#5",
          "ticks": 198288,
          "time": 140.829404625,
          "velocity": 0.30708661417322836
        },
        {
          "duration": 0.0852271875000099,
          "durationTicks": 120,
          "midi": 85,
          "name": "C#6",
          "ticks": 198288,
          "time": 140.829404625,
          "velocity": 0.30708661417322836
        },
        {
          "duration": 0.0852271875000099,
          "durationTicks": 120,
          "midi": 85,
          "name": "C#6",
          "ticks": 198288,
          "time": 140.829404625,
          "velocity": 0.30708661417322836
        },
        {
          "duration": 0.0852271875000099,
          "durationTicks": 120,
          "midi": 73,
          "name": "C#5",
          "ticks": 198288,
          "time": 140.829404625,
          "velocity": 0.30708661417322836
        },
        {
          "duration": 0.0852271875000099,
          "durationTicks": 120,
          "midi": 73,
          "name": "C#5",
          "ticks": 198312,
          "time": 140.8464500625,
          "velocity": 0.30708661417322836
        },
        {
          "duration": 0.0852271875000099,
          "durationTicks": 120,
          "midi": 85,
          "name": "C#6",
          "ticks": 198312,
          "time": 140.8464500625,
          "velocity": 0.30708661417322836
        },
        {
          "duration": 0.0852271875000099,
          "durationTicks": 120,
          "midi": 73,
          "name": "C#5",
          "ticks": 198312,
          "time": 140.8464500625,
          "velocity": 0.30708661417322836
        },
        {
          "duration": 0.0852271875000099,
          "durationTicks": 120,
          "midi": 85,
          "name": "C#6",
          "ticks": 198312,
          "time": 140.8464500625,
          "velocity": 0.30708661417322836
        },
        {
          "duration": 0.08522718749998148,
          "durationTicks": 120,
          "midi": 72,
          "name": "C5",
          "ticks": 198408,
          "time": 140.9146318125,
          "velocity": 0.30708661417322836
        },
        {
          "duration": 0.08522718749998148,
          "durationTicks": 120,
          "midi": 84,
          "name": "C6",
          "ticks": 198408,
          "time": 140.9146318125,
          "velocity": 0.30708661417322836
        },
        {
          "duration": 0.08522718749998148,
          "durationTicks": 120,
          "midi": 92,
          "name": "G#6",
          "ticks": 198408,
          "time": 140.9146318125,
          "velocity": 0.30708661417322836
        },
        {
          "duration": 0.08522718749998148,
          "durationTicks": 120,
          "midi": 75,
          "name": "D#5",
          "ticks": 198408,
          "time": 140.9146318125,
          "velocity": 0.30708661417322836
        },
        {
          "duration": 0.08522718749998148,
          "durationTicks": 120,
          "midi": 75,
          "name": "D#5",
          "ticks": 198408,
          "time": 140.9146318125,
          "velocity": 0.30708661417322836
        },
        {
          "duration": 0.08522718749998148,
          "durationTicks": 120,
          "midi": 80,
          "name": "G#5",
          "ticks": 198408,
          "time": 140.9146318125,
          "velocity": 0.30708661417322836
        },
        {
          "duration": 0.08522718749998148,
          "durationTicks": 120,
          "midi": 80,
          "name": "G#5",
          "ticks": 198408,
          "time": 140.9146318125,
          "velocity": 0.30708661417322836
        },
        {
          "duration": 0.08522718749998148,
          "durationTicks": 120,
          "midi": 87,
          "name": "D#6",
          "ticks": 198408,
          "time": 140.9146318125,
          "velocity": 0.30708661417322836
        },
        {
          "duration": 0.08522718749998148,
          "durationTicks": 120,
          "midi": 84,
          "name": "C6",
          "ticks": 198408,
          "time": 140.9146318125,
          "velocity": 0.30708661417322836
        },
        {
          "duration": 0.08522718749998148,
          "durationTicks": 120,
          "midi": 92,
          "name": "G#6",
          "ticks": 198408,
          "time": 140.9146318125,
          "velocity": 0.30708661417322836
        },
        {
          "duration": 0.08522718749998148,
          "durationTicks": 120,
          "midi": 72,
          "name": "C5",
          "ticks": 198408,
          "time": 140.9146318125,
          "velocity": 0.30708661417322836
        },
        {
          "duration": 0.08522718749998148,
          "durationTicks": 120,
          "midi": 87,
          "name": "D#6",
          "ticks": 198408,
          "time": 140.9146318125,
          "velocity": 0.30708661417322836
        },
        {
          "duration": 0.08522718749998148,
          "durationTicks": 120,
          "midi": 84,
          "name": "C6",
          "ticks": 198432,
          "time": 140.93167725,
          "velocity": 0.30708661417322836
        },
        {
          "duration": 0.1534089374999894,
          "durationTicks": 216,
          "midi": 48,
          "name": "C3",
          "ticks": 198432,
          "time": 140.93167725,
          "velocity": 0.30708661417322836
        },
        {
          "duration": 0.08522718749998148,
          "durationTicks": 120,
          "midi": 75,
          "name": "D#5",
          "ticks": 198432,
          "time": 140.93167725,
          "velocity": 0.30708661417322836
        },
        {
          "duration": 0.08522718749998148,
          "durationTicks": 120,
          "midi": 87,
          "name": "D#6",
          "ticks": 198432,
          "time": 140.93167725,
          "velocity": 0.30708661417322836
        },
        {
          "duration": 0.08522718749998148,
          "durationTicks": 120,
          "midi": 80,
          "name": "G#5",
          "ticks": 198432,
          "time": 140.93167725,
          "velocity": 0.30708661417322836
        },
        {
          "duration": 0.08522718749998148,
          "durationTicks": 120,
          "midi": 92,
          "name": "G#6",
          "ticks": 198432,
          "time": 140.93167725,
          "velocity": 0.30708661417322836
        },
        {
          "duration": 0.08522718749998148,
          "durationTicks": 120,
          "midi": 72,
          "name": "C5",
          "ticks": 198432,
          "time": 140.93167725,
          "velocity": 0.30708661417322836
        },
        {
          "duration": 0.1534089374999894,
          "durationTicks": 216,
          "midi": 48,
          "name": "C3",
          "ticks": 198432,
          "time": 140.93167725,
          "velocity": 0.30708661417322836
        },
        {
          "duration": 0.1534089374999894,
          "durationTicks": 216,
          "midi": 48,
          "name": "C3",
          "ticks": 198456,
          "time": 140.9487226875,
          "velocity": 0.30708661417322836
        },
        {
          "duration": 0.0852271875000099,
          "durationTicks": 120,
          "midi": 70,
          "name": "A#4",
          "ticks": 198528,
          "time": 140.999859,
          "velocity": 0.30708661417322836
        },
        {
          "duration": 0.0852271875000099,
          "durationTicks": 120,
          "midi": 82,
          "name": "A#5",
          "ticks": 198528,
          "time": 140.999859,
          "velocity": 0.30708661417322836
        },
        {
          "duration": 0.0852271875000099,
          "durationTicks": 120,
          "midi": 82,
          "name": "A#5",
          "ticks": 198528,
          "time": 140.999859,
          "velocity": 0.30708661417322836
        },
        {
          "duration": 0.0852271875000099,
          "durationTicks": 120,
          "midi": 94,
          "name": "A#6",
          "ticks": 198528,
          "time": 140.999859,
          "velocity": 0.30708661417322836
        },
        {
          "duration": 0.0852271875000099,
          "durationTicks": 120,
          "midi": 94,
          "name": "A#6",
          "ticks": 198528,
          "time": 140.999859,
          "velocity": 0.30708661417322836
        },
        {
          "duration": 0.0852271875000099,
          "durationTicks": 120,
          "midi": 70,
          "name": "A#4",
          "ticks": 198528,
          "time": 140.999859,
          "velocity": 0.30708661417322836
        },
        {
          "duration": 0.0852271875000099,
          "durationTicks": 120,
          "midi": 82,
          "name": "A#5",
          "ticks": 198528,
          "time": 140.999859,
          "velocity": 0.30708661417322836
        },
        {
          "duration": 0.0852271875000099,
          "durationTicks": 120,
          "midi": 82,
          "name": "A#5",
          "ticks": 198528,
          "time": 140.999859,
          "velocity": 0.30708661417322836
        },
        {
          "duration": 0.0852271875000099,
          "durationTicks": 120,
          "midi": 94,
          "name": "A#6",
          "ticks": 198552,
          "time": 141.0169044375,
          "velocity": 0.30708661417322836
        },
        {
          "duration": 0.0852271875000099,
          "durationTicks": 120,
          "midi": 82,
          "name": "A#5",
          "ticks": 198552,
          "time": 141.0169044375,
          "velocity": 0.30708661417322836
        },
        {
          "duration": 0.0852271875000099,
          "durationTicks": 120,
          "midi": 70,
          "name": "A#4",
          "ticks": 198552,
          "time": 141.0169044375,
          "velocity": 0.30708661417322836
        },
        {
          "duration": 0.0852271875000099,
          "durationTicks": 120,
          "midi": 82,
          "name": "A#5",
          "ticks": 198552,
          "time": 141.0169044375,
          "velocity": 0.30708661417322836
        },
        {
          "duration": 0.0852271875000099,
          "durationTicks": 120,
          "midi": 51,
          "name": "D#3",
          "ticks": 198672,
          "time": 141.102131625,
          "velocity": 0.30708661417322836
        },
        {
          "duration": 0.0852271875000099,
          "durationTicks": 120,
          "midi": 69,
          "name": "A4",
          "ticks": 198672,
          "time": 141.102131625,
          "velocity": 0.30708661417322836
        },
        {
          "duration": 0.0852271875000099,
          "durationTicks": 120,
          "midi": 58,
          "name": "A#3",
          "ticks": 198672,
          "time": 141.102131625,
          "velocity": 0.30708661417322836
        },
        {
          "duration": 0.0852271875000099,
          "durationTicks": 120,
          "midi": 81,
          "name": "A5",
          "ticks": 198672,
          "time": 141.102131625,
          "velocity": 0.30708661417322836
        },
        {
          "duration": 0.0852271875000099,
          "durationTicks": 120,
          "midi": 81,
          "name": "A5",
          "ticks": 198672,
          "time": 141.102131625,
          "velocity": 0.30708661417322836
        },
        {
          "duration": 0.0852271875000099,
          "durationTicks": 120,
          "midi": 93,
          "name": "A6",
          "ticks": 198672,
          "time": 141.102131625,
          "velocity": 0.30708661417322836
        },
        {
          "duration": 0.0852271875000099,
          "durationTicks": 120,
          "midi": 69,
          "name": "A4",
          "ticks": 198672,
          "time": 141.102131625,
          "velocity": 0.30708661417322836
        },
        {
          "duration": 0.0852271875000099,
          "durationTicks": 120,
          "midi": 51,
          "name": "D#3",
          "ticks": 198672,
          "time": 141.102131625,
          "velocity": 0.30708661417322836
        },
        {
          "duration": 0.0852271875000099,
          "durationTicks": 120,
          "midi": 93,
          "name": "A6",
          "ticks": 198672,
          "time": 141.102131625,
          "velocity": 0.30708661417322836
        },
        {
          "duration": 0.0852271875000099,
          "durationTicks": 120,
          "midi": 58,
          "name": "A#3",
          "ticks": 198672,
          "time": 141.102131625,
          "velocity": 0.30708661417322836
        },
        {
          "duration": 0.0852271875000099,
          "durationTicks": 120,
          "midi": 81,
          "name": "A5",
          "ticks": 198672,
          "time": 141.102131625,
          "velocity": 0.30708661417322836
        },
        {
          "duration": 0.0852271875000099,
          "durationTicks": 120,
          "midi": 81,
          "name": "A5",
          "ticks": 198672,
          "time": 141.102131625,
          "velocity": 0.30708661417322836
        },
        {
          "duration": 0.0852271875000099,
          "durationTicks": 120,
          "midi": 81,
          "name": "A5",
          "ticks": 198696,
          "time": 141.1191770625,
          "velocity": 0.30708661417322836
        },
        {
          "duration": 0.0852271875000099,
          "durationTicks": 120,
          "midi": 58,
          "name": "A#3",
          "ticks": 198696,
          "time": 141.1191770625,
          "velocity": 0.30708661417322836
        },
        {
          "duration": 0.0852271875000099,
          "durationTicks": 120,
          "midi": 93,
          "name": "A6",
          "ticks": 198696,
          "time": 141.1191770625,
          "velocity": 0.30708661417322836
        },
        {
          "duration": 0.0852271875000099,
          "durationTicks": 120,
          "midi": 81,
          "name": "A5",
          "ticks": 198696,
          "time": 141.1191770625,
          "velocity": 0.30708661417322836
        },
        {
          "duration": 0.0852271875000099,
          "durationTicks": 120,
          "midi": 51,
          "name": "D#3",
          "ticks": 198696,
          "time": 141.1191770625,
          "velocity": 0.30708661417322836
        },
        {
          "duration": 0.0852271875000099,
          "durationTicks": 120,
          "midi": 69,
          "name": "A4",
          "ticks": 198696,
          "time": 141.1191770625,
          "velocity": 0.30708661417322836
        },
        {
          "duration": 0.08522718749998148,
          "durationTicks": 120,
          "midi": 72,
          "name": "C5",
          "ticks": 198792,
          "time": 141.1873588125,
          "velocity": 0.30708661417322836
        },
        {
          "duration": 0.08522718749998148,
          "durationTicks": 120,
          "midi": 87,
          "name": "D#6",
          "ticks": 198792,
          "time": 141.1873588125,
          "velocity": 0.30708661417322836
        },
        {
          "duration": 0.08522718749998148,
          "durationTicks": 120,
          "midi": 92,
          "name": "G#6",
          "ticks": 198792,
          "time": 141.1873588125,
          "velocity": 0.30708661417322836
        },
        {
          "duration": 0.08522718749998148,
          "durationTicks": 120,
          "midi": 84,
          "name": "C6",
          "ticks": 198792,
          "time": 141.1873588125,
          "velocity": 0.30708661417322836
        },
        {
          "duration": 0.08522718749998148,
          "durationTicks": 120,
          "midi": 92,
          "name": "G#6",
          "ticks": 198792,
          "time": 141.1873588125,
          "velocity": 0.30708661417322836
        },
        {
          "duration": 0.08522718749998148,
          "durationTicks": 120,
          "midi": 87,
          "name": "D#6",
          "ticks": 198792,
          "time": 141.1873588125,
          "velocity": 0.30708661417322836
        },
        {
          "duration": 0.08522718749998148,
          "durationTicks": 120,
          "midi": 80,
          "name": "G#5",
          "ticks": 198792,
          "time": 141.1873588125,
          "velocity": 0.30708661417322836
        },
        {
          "duration": 0.08522718749998148,
          "durationTicks": 120,
          "midi": 84,
          "name": "C6",
          "ticks": 198792,
          "time": 141.1873588125,
          "velocity": 0.30708661417322836
        },
        {
          "duration": 0.08522718749998148,
          "durationTicks": 120,
          "midi": 75,
          "name": "D#5",
          "ticks": 198792,
          "time": 141.1873588125,
          "velocity": 0.30708661417322836
        },
        {
          "duration": 0.08522718749998148,
          "durationTicks": 120,
          "midi": 80,
          "name": "G#5",
          "ticks": 198792,
          "time": 141.1873588125,
          "velocity": 0.30708661417322836
        },
        {
          "duration": 0.08522718749998148,
          "durationTicks": 120,
          "midi": 75,
          "name": "D#5",
          "ticks": 198792,
          "time": 141.1873588125,
          "velocity": 0.30708661417322836
        },
        {
          "duration": 0.08522718749998148,
          "durationTicks": 120,
          "midi": 72,
          "name": "C5",
          "ticks": 198792,
          "time": 141.1873588125,
          "velocity": 0.30708661417322836
        },
        {
          "duration": 0.08522718749998148,
          "durationTicks": 120,
          "midi": 84,
          "name": "C6",
          "ticks": 198816,
          "time": 141.20440425,
          "velocity": 0.30708661417322836
        },
        {
          "duration": 0.08522718749998148,
          "durationTicks": 120,
          "midi": 87,
          "name": "D#6",
          "ticks": 198816,
          "time": 141.20440425,
          "velocity": 0.30708661417322836
        },
        {
          "duration": 0.08522718749998148,
          "durationTicks": 120,
          "midi": 75,
          "name": "D#5",
          "ticks": 198816,
          "time": 141.20440425,
          "velocity": 0.30708661417322836
        },
        {
          "duration": 0.08522718749998148,
          "durationTicks": 120,
          "midi": 72,
          "name": "C5",
          "ticks": 198816,
          "time": 141.20440425,
          "velocity": 0.30708661417322836
        },
        {
          "duration": 0.08522718749998148,
          "durationTicks": 120,
          "midi": 92,
          "name": "G#6",
          "ticks": 198816,
          "time": 141.20440425,
          "velocity": 0.30708661417322836
        },
        {
          "duration": 0.08522718749998148,
          "durationTicks": 120,
          "midi": 80,
          "name": "G#5",
          "ticks": 198816,
          "time": 141.20440425,
          "velocity": 0.30708661417322836
        },
        {
          "duration": 0.15340893750001783,
          "durationTicks": 216,
          "midi": 46,
          "name": "A#2",
          "ticks": 198912,
          "time": 141.272586,
          "velocity": 0.30708661417322836
        },
        {
          "duration": 0.0852271875000099,
          "durationTicks": 120,
          "midi": 94,
          "name": "A#6",
          "ticks": 198912,
          "time": 141.272586,
          "velocity": 0.30708661417322836
        },
        {
          "duration": 0.0852271875000099,
          "durationTicks": 120,
          "midi": 70,
          "name": "A#4",
          "ticks": 198912,
          "time": 141.272586,
          "velocity": 0.30708661417322836
        },
        {
          "duration": 0.0852271875000099,
          "durationTicks": 120,
          "midi": 82,
          "name": "A#5",
          "ticks": 198912,
          "time": 141.272586,
          "velocity": 0.30708661417322836
        },
        {
          "duration": 0.0852271875000099,
          "durationTicks": 120,
          "midi": 94,
          "name": "A#6",
          "ticks": 198912,
          "time": 141.272586,
          "velocity": 0.30708661417322836
        },
        {
          "duration": 0.15340893750001783,
          "durationTicks": 216,
          "midi": 46,
          "name": "A#2",
          "ticks": 198912,
          "time": 141.272586,
          "velocity": 0.30708661417322836
        },
        {
          "duration": 0.0852271875000099,
          "durationTicks": 120,
          "midi": 82,
          "name": "A#5",
          "ticks": 198912,
          "time": 141.272586,
          "velocity": 0.30708661417322836
        },
        {
          "duration": 0.0852271875000099,
          "durationTicks": 120,
          "midi": 82,
          "name": "A#5",
          "ticks": 198912,
          "time": 141.272586,
          "velocity": 0.30708661417322836
        },
        {
          "duration": 0.0852271875000099,
          "durationTicks": 120,
          "midi": 82,
          "name": "A#5",
          "ticks": 198912,
          "time": 141.272586,
          "velocity": 0.30708661417322836
        },
        {
          "duration": 0.0852271875000099,
          "durationTicks": 120,
          "midi": 75,
          "name": "D#5",
          "ticks": 198912,
          "time": 141.272586,
          "velocity": 0.30708661417322836
        },
        {
          "duration": 0.0852271875000099,
          "durationTicks": 120,
          "midi": 87,
          "name": "D#6",
          "ticks": 198912,
          "time": 141.272586,
          "velocity": 0.30708661417322836
        },
        {
          "duration": 0.0852271875000099,
          "durationTicks": 120,
          "midi": 75,
          "name": "D#5",
          "ticks": 198912,
          "time": 141.272586,
          "velocity": 0.30708661417322836
        },
        {
          "duration": 0.0852271875000099,
          "durationTicks": 120,
          "midi": 70,
          "name": "A#4",
          "ticks": 198912,
          "time": 141.272586,
          "velocity": 0.30708661417322836
        },
        {
          "duration": 0.0852271875000099,
          "durationTicks": 120,
          "midi": 87,
          "name": "D#6",
          "ticks": 198912,
          "time": 141.272586,
          "velocity": 0.30708661417322836
        },
        {
          "duration": 0.0852271875000099,
          "durationTicks": 120,
          "midi": 94,
          "name": "A#6",
          "ticks": 198936,
          "time": 141.2896314375,
          "velocity": 0.30708661417322836
        },
        {
          "duration": 0.15340893750001783,
          "durationTicks": 216,
          "midi": 46,
          "name": "A#2",
          "ticks": 198936,
          "time": 141.2896314375,
          "velocity": 0.30708661417322836
        },
        {
          "duration": 0.0852271875000099,
          "durationTicks": 120,
          "midi": 75,
          "name": "D#5",
          "ticks": 198936,
          "time": 141.2896314375,
          "velocity": 0.30708661417322836
        },
        {
          "duration": 0.0852271875000099,
          "durationTicks": 120,
          "midi": 82,
          "name": "A#5",
          "ticks": 198936,
          "time": 141.2896314375,
          "velocity": 0.30708661417322836
        },
        {
          "duration": 0.0852271875000099,
          "durationTicks": 120,
          "midi": 82,
          "name": "A#5",
          "ticks": 198936,
          "time": 141.2896314375,
          "velocity": 0.30708661417322836
        },
        {
          "duration": 0.0852271875000099,
          "durationTicks": 120,
          "midi": 70,
          "name": "A#4",
          "ticks": 198936,
          "time": 141.2896314375,
          "velocity": 0.30708661417322836
        },
        {
          "duration": 0.0852271875000099,
          "durationTicks": 120,
          "midi": 87,
          "name": "D#6",
          "ticks": 198936,
          "time": 141.2896314375,
          "velocity": 0.30708661417322836
        },
        {
          "duration": 0.0852271875000099,
          "durationTicks": 120,
          "midi": 77,
          "name": "F5",
          "ticks": 199032,
          "time": 141.3578131875,
          "velocity": 0.30708661417322836
        },
        {
          "duration": 0.0852271875000099,
          "durationTicks": 120,
          "midi": 82,
          "name": "A#5",
          "ticks": 199032,
          "time": 141.3578131875,
          "velocity": 0.30708661417322836
        },
        {
          "duration": 0.0852271875000099,
          "durationTicks": 120,
          "midi": 70,
          "name": "A#4",
          "ticks": 199032,
          "time": 141.3578131875,
          "velocity": 0.30708661417322836
        },
        {
          "duration": 0.0852271875000099,
          "durationTicks": 120,
          "midi": 77,
          "name": "F5",
          "ticks": 199032,
          "time": 141.3578131875,
          "velocity": 0.30708661417322836
        },
        {
          "duration": 0.0852271875000099,
          "durationTicks": 120,
          "midi": 89,
          "name": "F6",
          "ticks": 199032,
          "time": 141.3578131875,
          "velocity": 0.30708661417322836
        },
        {
          "duration": 0.0852271875000099,
          "durationTicks": 120,
          "midi": 77,
          "name": "F5",
          "ticks": 199032,
          "time": 141.3578131875,
          "velocity": 0.30708661417322836
        },
        {
          "duration": 0.0852271875000099,
          "durationTicks": 120,
          "midi": 82,
          "name": "A#5",
          "ticks": 199032,
          "time": 141.3578131875,
          "velocity": 0.30708661417322836
        },
        {
          "duration": 0.0852271875000099,
          "durationTicks": 120,
          "midi": 70,
          "name": "A#4",
          "ticks": 199032,
          "time": 141.3578131875,
          "velocity": 0.30708661417322836
        },
        {
          "duration": 0.0852271875000099,
          "durationTicks": 120,
          "midi": 77,
          "name": "F5",
          "ticks": 199032,
          "time": 141.3578131875,
          "velocity": 0.30708661417322836
        },
        {
          "duration": 0.0852271875000099,
          "durationTicks": 120,
          "midi": 65,
          "name": "F4",
          "ticks": 199032,
          "time": 141.3578131875,
          "velocity": 0.30708661417322836
        },
        {
          "duration": 0.0852271875000099,
          "durationTicks": 120,
          "midi": 65,
          "name": "F4",
          "ticks": 199032,
          "time": 141.3578131875,
          "velocity": 0.30708661417322836
        },
        {
          "duration": 0.0852271875000099,
          "durationTicks": 120,
          "midi": 89,
          "name": "F6",
          "ticks": 199032,
          "time": 141.3578131875,
          "velocity": 0.30708661417322836
        },
        {
          "duration": 0.0852271875000099,
          "durationTicks": 120,
          "midi": 89,
          "name": "F6",
          "ticks": 199056,
          "time": 141.374858625,
          "velocity": 0.30708661417322836
        },
        {
          "duration": 0.0852271875000099,
          "durationTicks": 120,
          "midi": 77,
          "name": "F5",
          "ticks": 199056,
          "time": 141.374858625,
          "velocity": 0.30708661417322836
        },
        {
          "duration": 0.0852271875000099,
          "durationTicks": 120,
          "midi": 77,
          "name": "F5",
          "ticks": 199056,
          "time": 141.374858625,
          "velocity": 0.30708661417322836
        },
        {
          "duration": 0.0852271875000099,
          "durationTicks": 120,
          "midi": 65,
          "name": "F4",
          "ticks": 199056,
          "time": 141.374858625,
          "velocity": 0.30708661417322836
        },
        {
          "duration": 0.0852271875000099,
          "durationTicks": 120,
          "midi": 70,
          "name": "A#4",
          "ticks": 199056,
          "time": 141.374858625,
          "velocity": 0.30708661417322836
        },
        {
          "duration": 0.0852271875000099,
          "durationTicks": 120,
          "midi": 82,
          "name": "A#5",
          "ticks": 199056,
          "time": 141.374858625,
          "velocity": 0.30708661417322836
        },
        {
          "duration": 0.08522718749998148,
          "durationTicks": 120,
          "midi": 78,
          "name": "F#5",
          "ticks": 199152,
          "time": 141.443040375,
          "velocity": 0.30708661417322836
        },
        {
          "duration": 0.08522718749998148,
          "durationTicks": 120,
          "midi": 66,
          "name": "F#4",
          "ticks": 199152,
          "time": 141.443040375,
          "velocity": 0.30708661417322836
        },
        {
          "duration": 0.08522718749998148,
          "durationTicks": 120,
          "midi": 61,
          "name": "C#4",
          "ticks": 199152,
          "time": 141.443040375,
          "velocity": 0.30708661417322836
        },
        {
          "duration": 0.08522718749998148,
          "durationTicks": 120,
          "midi": 49,
          "name": "C#3",
          "ticks": 199152,
          "time": 141.443040375,
          "velocity": 0.30708661417322836
        },
        {
          "duration": 0.08522718749998148,
          "durationTicks": 120,
          "midi": 73,
          "name": "C#5",
          "ticks": 199152,
          "time": 141.443040375,
          "velocity": 0.30708661417322836
        },
        {
          "duration": 0.08522718749998148,
          "durationTicks": 120,
          "midi": 73,
          "name": "C#5",
          "ticks": 199152,
          "time": 141.443040375,
          "velocity": 0.30708661417322836
        },
        {
          "duration": 0.08522718749998148,
          "durationTicks": 120,
          "midi": 78,
          "name": "F#5",
          "ticks": 199152,
          "time": 141.443040375,
          "velocity": 0.30708661417322836
        },
        {
          "duration": 0.08522718749998148,
          "durationTicks": 120,
          "midi": 73,
          "name": "C#5",
          "ticks": 199152,
          "time": 141.443040375,
          "velocity": 0.30708661417322836
        },
        {
          "duration": 0.08522718749998148,
          "durationTicks": 120,
          "midi": 58,
          "name": "A#3",
          "ticks": 199152,
          "time": 141.443040375,
          "velocity": 0.30708661417322836
        },
        {
          "duration": 0.08522718749998148,
          "durationTicks": 120,
          "midi": 61,
          "name": "C#4",
          "ticks": 199152,
          "time": 141.443040375,
          "velocity": 0.30708661417322836
        },
        {
          "duration": 0.08522718749998148,
          "durationTicks": 120,
          "midi": 66,
          "name": "F#4",
          "ticks": 199152,
          "time": 141.443040375,
          "velocity": 0.30708661417322836
        },
        {
          "duration": 0.08522718749998148,
          "durationTicks": 120,
          "midi": 85,
          "name": "C#6",
          "ticks": 199152,
          "time": 141.443040375,
          "velocity": 0.30708661417322836
        },
        {
          "duration": 0.08522718749998148,
          "durationTicks": 120,
          "midi": 85,
          "name": "C#6",
          "ticks": 199152,
          "time": 141.443040375,
          "velocity": 0.30708661417322836
        },
        {
          "duration": 0.08522718749998148,
          "durationTicks": 120,
          "midi": 49,
          "name": "C#3",
          "ticks": 199152,
          "time": 141.443040375,
          "velocity": 0.30708661417322836
        },
        {
          "duration": 0.08522718749998148,
          "durationTicks": 120,
          "midi": 58,
          "name": "A#3",
          "ticks": 199152,
          "time": 141.443040375,
          "velocity": 0.30708661417322836
        },
        {
          "duration": 0.08522718749998148,
          "durationTicks": 120,
          "midi": 73,
          "name": "C#5",
          "ticks": 199152,
          "time": 141.443040375,
          "velocity": 0.30708661417322836
        },
        {
          "duration": 0.08522718749998148,
          "durationTicks": 120,
          "midi": 73,
          "name": "C#5",
          "ticks": 199176,
          "time": 141.4600858125,
          "velocity": 0.30708661417322836
        },
        {
          "duration": 0.08522718749998148,
          "durationTicks": 120,
          "midi": 78,
          "name": "F#5",
          "ticks": 199176,
          "time": 141.4600858125,
          "velocity": 0.30708661417322836
        },
        {
          "duration": 0.08522718749998148,
          "durationTicks": 120,
          "midi": 58,
          "name": "A#3",
          "ticks": 199176,
          "time": 141.4600858125,
          "velocity": 0.30708661417322836
        },
        {
          "duration": 0.08522718749998148,
          "durationTicks": 120,
          "midi": 85,
          "name": "C#6",
          "ticks": 199176,
          "time": 141.4600858125,
          "velocity": 0.30708661417322836
        },
        {
          "duration": 0.08522718749998148,
          "durationTicks": 120,
          "midi": 66,
          "name": "F#4",
          "ticks": 199176,
          "time": 141.4600858125,
          "velocity": 0.30708661417322836
        },
        {
          "duration": 0.08522718749998148,
          "durationTicks": 120,
          "midi": 73,
          "name": "C#5",
          "ticks": 199176,
          "time": 141.4600858125,
          "velocity": 0.30708661417322836
        },
        {
          "duration": 0.08522718749998148,
          "durationTicks": 120,
          "midi": 49,
          "name": "C#3",
          "ticks": 199176,
          "time": 141.4600858125,
          "velocity": 0.30708661417322836
        },
        {
          "duration": 0.08522718749998148,
          "durationTicks": 120,
          "midi": 61,
          "name": "C#4",
          "ticks": 199176,
          "time": 141.4600858125,
          "velocity": 0.30708661417322836
        },
        {
          "duration": 0.0852271875000099,
          "durationTicks": 120,
          "midi": 82,
          "name": "A#5",
          "ticks": 199272,
          "time": 141.5282675625,
          "velocity": 0.30708661417322836
        },
        {
          "duration": 0.0852271875000099,
          "durationTicks": 120,
          "midi": 70,
          "name": "A#4",
          "ticks": 199272,
          "time": 141.5282675625,
          "velocity": 0.30708661417322836
        },
        {
          "duration": 0.0852271875000099,
          "durationTicks": 120,
          "midi": 58,
          "name": "A#3",
          "ticks": 199272,
          "time": 141.5282675625,
          "velocity": 0.30708661417322836
        },
        {
          "duration": 0.0852271875000099,
          "durationTicks": 120,
          "midi": 70,
          "name": "A#4",
          "ticks": 199272,
          "time": 141.5282675625,
          "velocity": 0.30708661417322836
        },
        {
          "duration": 0.0852271875000099,
          "durationTicks": 120,
          "midi": 63,
          "name": "D#4",
          "ticks": 199272,
          "time": 141.5282675625,
          "velocity": 0.30708661417322836
        },
        {
          "duration": 0.0852271875000099,
          "durationTicks": 120,
          "midi": 58,
          "name": "A#3",
          "ticks": 199272,
          "time": 141.5282675625,
          "velocity": 0.30708661417322836
        },
        {
          "duration": 0.0852271875000099,
          "durationTicks": 120,
          "midi": 75,
          "name": "D#5",
          "ticks": 199272,
          "time": 141.5282675625,
          "velocity": 0.30708661417322836
        },
        {
          "duration": 0.0852271875000099,
          "durationTicks": 120,
          "midi": 70,
          "name": "A#4",
          "ticks": 199272,
          "time": 141.5282675625,
          "velocity": 0.30708661417322836
        },
        {
          "duration": 0.0852271875000099,
          "durationTicks": 120,
          "midi": 63,
          "name": "D#4",
          "ticks": 199272,
          "time": 141.5282675625,
          "velocity": 0.30708661417322836
        },
        {
          "duration": 0.0852271875000099,
          "durationTicks": 120,
          "midi": 70,
          "name": "A#4",
          "ticks": 199272,
          "time": 141.5282675625,
          "velocity": 0.30708661417322836
        },
        {
          "duration": 0.0852271875000099,
          "durationTicks": 120,
          "midi": 75,
          "name": "D#5",
          "ticks": 199272,
          "time": 141.5282675625,
          "velocity": 0.30708661417322836
        },
        {
          "duration": 0.0852271875000099,
          "durationTicks": 120,
          "midi": 82,
          "name": "A#5",
          "ticks": 199272,
          "time": 141.5282675625,
          "velocity": 0.30708661417322836
        },
        {
          "duration": 0.0852271875000099,
          "durationTicks": 120,
          "midi": 58,
          "name": "A#3",
          "ticks": 199296,
          "time": 141.545313,
          "velocity": 0.30708661417322836
        },
        {
          "duration": 0.0852271875000099,
          "durationTicks": 120,
          "midi": 70,
          "name": "A#4",
          "ticks": 199296,
          "time": 141.545313,
          "velocity": 0.30708661417322836
        },
        {
          "duration": 0.0852271875000099,
          "durationTicks": 120,
          "midi": 75,
          "name": "D#5",
          "ticks": 199296,
          "time": 141.545313,
          "velocity": 0.30708661417322836
        },
        {
          "duration": 0.0852271875000099,
          "durationTicks": 120,
          "midi": 82,
          "name": "A#5",
          "ticks": 199296,
          "time": 141.545313,
          "velocity": 0.30708661417322836
        },
        {
          "duration": 0.0852271875000099,
          "durationTicks": 120,
          "midi": 63,
          "name": "D#4",
          "ticks": 199296,
          "time": 141.545313,
          "velocity": 0.30708661417322836
        },
        {
          "duration": 0.0852271875000099,
          "durationTicks": 120,
          "midi": 70,
          "name": "A#4",
          "ticks": 199296,
          "time": 141.545313,
          "velocity": 0.30708661417322836
        },
        {
          "duration": 0.0852271875000099,
          "durationTicks": 120,
          "midi": 61,
          "name": "C#4",
          "ticks": 199392,
          "time": 141.61349475,
          "velocity": 0.30708661417322836
        },
        {
          "duration": 0.0852271875000099,
          "durationTicks": 120,
          "midi": 90,
          "name": "F#6",
          "ticks": 199392,
          "time": 141.61349475,
          "velocity": 0.30708661417322836
        },
        {
          "duration": 0.0852271875000099,
          "durationTicks": 120,
          "midi": 53,
          "name": "F3",
          "ticks": 199392,
          "time": 141.61349475,
          "velocity": 0.30708661417322836
        },
        {
          "duration": 0.0852271875000099,
          "durationTicks": 120,
          "midi": 85,
          "name": "C#6",
          "ticks": 199392,
          "time": 141.61349475,
          "velocity": 0.30708661417322836
        },
        {
          "duration": 0.0852271875000099,
          "durationTicks": 120,
          "midi": 78,
          "name": "F#5",
          "ticks": 199392,
          "time": 141.61349475,
          "velocity": 0.30708661417322836
        },
        {
          "duration": 0.0852271875000099,
          "durationTicks": 120,
          "midi": 41,
          "name": "F2",
          "ticks": 199392,
          "time": 141.61349475,
          "velocity": 0.30708661417322836
        },
        {
          "duration": 0.0852271875000099,
          "durationTicks": 120,
          "midi": 73,
          "name": "C#5",
          "ticks": 199392,
          "time": 141.61349475,
          "velocity": 0.30708661417322836
        },
        {
          "duration": 0.0852271875000099,
          "durationTicks": 120,
          "midi": 61,
          "name": "C#4",
          "ticks": 199392,
          "time": 141.61349475,
          "velocity": 0.30708661417322836
        },
        {
          "duration": 0.0852271875000099,
          "durationTicks": 120,
          "midi": 53,
          "name": "F3",
          "ticks": 199392,
          "time": 141.61349475,
          "velocity": 0.30708661417322836
        },
        {
          "duration": 0.0852271875000099,
          "durationTicks": 120,
          "midi": 41,
          "name": "F2",
          "ticks": 199392,
          "time": 141.61349475,
          "velocity": 0.30708661417322836
        },
        {
          "duration": 0.0852271875000099,
          "durationTicks": 120,
          "midi": 73,
          "name": "C#5",
          "ticks": 199392,
          "time": 141.61349475,
          "velocity": 0.30708661417322836
        },
        {
          "duration": 0.0852271875000099,
          "durationTicks": 120,
          "midi": 78,
          "name": "F#5",
          "ticks": 199392,
          "time": 141.61349475,
          "velocity": 0.30708661417322836
        },
        {
          "duration": 0.0852271875000099,
          "durationTicks": 120,
          "midi": 73,
          "name": "C#5",
          "ticks": 199392,
          "time": 141.61349475,
          "velocity": 0.30708661417322836
        },
        {
          "duration": 0.0852271875000099,
          "durationTicks": 120,
          "midi": 78,
          "name": "F#5",
          "ticks": 199392,
          "time": 141.61349475,
          "velocity": 0.30708661417322836
        },
        {
          "duration": 0.0852271875000099,
          "durationTicks": 120,
          "midi": 85,
          "name": "C#6",
          "ticks": 199392,
          "time": 141.61349475,
          "velocity": 0.30708661417322836
        },
        {
          "duration": 0.0852271875000099,
          "durationTicks": 120,
          "midi": 78,
          "name": "F#5",
          "ticks": 199392,
          "time": 141.61349475,
          "velocity": 0.30708661417322836
        },
        {
          "duration": 0.0852271875000099,
          "durationTicks": 120,
          "midi": 90,
          "name": "F#6",
          "ticks": 199392,
          "time": 141.61349475,
          "velocity": 0.30708661417322836
        },
        {
          "duration": 0.0852271875000099,
          "durationTicks": 120,
          "midi": 66,
          "name": "F#4",
          "ticks": 199392,
          "time": 141.61349475,
          "velocity": 0.30708661417322836
        },
        {
          "duration": 0.0852271875000099,
          "durationTicks": 120,
          "midi": 73,
          "name": "C#5",
          "ticks": 199392,
          "time": 141.61349475,
          "velocity": 0.30708661417322836
        },
        {
          "duration": 0.0852271875000099,
          "durationTicks": 120,
          "midi": 66,
          "name": "F#4",
          "ticks": 199392,
          "time": 141.61349475,
          "velocity": 0.30708661417322836
        },
        {
          "duration": 0.08522718749998148,
          "durationTicks": 120,
          "midi": 61,
          "name": "C#4",
          "ticks": 199416,
          "time": 141.6305401875,
          "velocity": 0.30708661417322836
        },
        {
          "duration": 0.08522718749998148,
          "durationTicks": 120,
          "midi": 73,
          "name": "C#5",
          "ticks": 199416,
          "time": 141.6305401875,
          "velocity": 0.30708661417322836
        },
        {
          "duration": 0.08522718749998148,
          "durationTicks": 120,
          "midi": 66,
          "name": "F#4",
          "ticks": 199416,
          "time": 141.6305401875,
          "velocity": 0.30708661417322836
        },
        {
          "duration": 0.08522718749998148,
          "durationTicks": 120,
          "midi": 53,
          "name": "F3",
          "ticks": 199416,
          "time": 141.6305401875,
          "velocity": 0.30708661417322836
        },
        {
          "duration": 0.08522718749998148,
          "durationTicks": 120,
          "midi": 90,
          "name": "F#6",
          "ticks": 199416,
          "time": 141.6305401875,
          "velocity": 0.30708661417322836
        },
        {
          "duration": 0.08522718749998148,
          "durationTicks": 120,
          "midi": 73,
          "name": "C#5",
          "ticks": 199416,
          "time": 141.6305401875,
          "velocity": 0.30708661417322836
        },
        {
          "duration": 0.08522718749998148,
          "durationTicks": 120,
          "midi": 78,
          "name": "F#5",
          "ticks": 199416,
          "time": 141.6305401875,
          "velocity": 0.30708661417322836
        },
        {
          "duration": 0.08522718749998148,
          "durationTicks": 120,
          "midi": 85,
          "name": "C#6",
          "ticks": 199416,
          "time": 141.6305401875,
          "velocity": 0.30708661417322836
        },
        {
          "duration": 0.08522718749998148,
          "durationTicks": 120,
          "midi": 41,
          "name": "F2",
          "ticks": 199416,
          "time": 141.6305401875,
          "velocity": 0.30708661417322836
        },
        {
          "duration": 0.08522718749998148,
          "durationTicks": 120,
          "midi": 78,
          "name": "F#5",
          "ticks": 199416,
          "time": 141.6305401875,
          "velocity": 0.30708661417322836
        },
        {
          "duration": 0.08522718749998148,
          "durationTicks": 120,
          "midi": 72,
          "name": "C5",
          "ticks": 199512,
          "time": 141.6987219375,
          "velocity": 0.30708661417322836
        },
        {
          "duration": 0.08522718749998148,
          "durationTicks": 120,
          "midi": 60,
          "name": "C4",
          "ticks": 199512,
          "time": 141.6987219375,
          "velocity": 0.30708661417322836
        },
        {
          "duration": 0.08522718749998148,
          "durationTicks": 120,
          "midi": 77,
          "name": "F5",
          "ticks": 199512,
          "time": 141.6987219375,
          "velocity": 0.30708661417322836
        },
        {
          "duration": 0.08522718749998148,
          "durationTicks": 120,
          "midi": 89,
          "name": "F6",
          "ticks": 199512,
          "time": 141.6987219375,
          "velocity": 0.30708661417322836
        },
        {
          "duration": 0.08522718749998148,
          "durationTicks": 120,
          "midi": 65,
          "name": "F4",
          "ticks": 199512,
          "time": 141.6987219375,
          "velocity": 0.30708661417322836
        },
        {
          "duration": 0.08522718749998148,
          "durationTicks": 120,
          "midi": 84,
          "name": "C6",
          "ticks": 199512,
          "time": 141.6987219375,
          "velocity": 0.30708661417322836
        },
        {
          "duration": 0.08522718749998148,
          "durationTicks": 120,
          "midi": 77,
          "name": "F5",
          "ticks": 199512,
          "time": 141.6987219375,
          "velocity": 0.30708661417322836
        },
        {
          "duration": 0.08522718749998148,
          "durationTicks": 120,
          "midi": 60,
          "name": "C4",
          "ticks": 199512,
          "time": 141.6987219375,
          "velocity": 0.30708661417322836
        },
        {
          "duration": 0.08522718749998148,
          "durationTicks": 120,
          "midi": 89,
          "name": "F6",
          "ticks": 199512,
          "time": 141.6987219375,
          "velocity": 0.30708661417322836
        },
        {
          "duration": 0.08522718749998148,
          "durationTicks": 120,
          "midi": 65,
          "name": "F4",
          "ticks": 199512,
          "time": 141.6987219375,
          "velocity": 0.30708661417322836
        },
        {
          "duration": 0.08522718749998148,
          "durationTicks": 120,
          "midi": 72,
          "name": "C5",
          "ticks": 199512,
          "time": 141.6987219375,
          "velocity": 0.30708661417322836
        },
        {
          "duration": 0.08522718749998148,
          "durationTicks": 120,
          "midi": 72,
          "name": "C5",
          "ticks": 199512,
          "time": 141.6987219375,
          "velocity": 0.30708661417322836
        },
        {
          "duration": 0.08522718749998148,
          "durationTicks": 120,
          "midi": 84,
          "name": "C6",
          "ticks": 199512,
          "time": 141.6987219375,
          "velocity": 0.30708661417322836
        },
        {
          "duration": 0.08522718749998148,
          "durationTicks": 120,
          "midi": 72,
          "name": "C5",
          "ticks": 199512,
          "time": 141.6987219375,
          "velocity": 0.30708661417322836
        },
        {
          "duration": 0.08522718749998148,
          "durationTicks": 120,
          "midi": 77,
          "name": "F5",
          "ticks": 199512,
          "time": 141.6987219375,
          "velocity": 0.30708661417322836
        },
        {
          "duration": 0.08522718749998148,
          "durationTicks": 120,
          "midi": 77,
          "name": "F5",
          "ticks": 199512,
          "time": 141.6987219375,
          "velocity": 0.30708661417322836
        },
        {
          "duration": 0.0852271875000099,
          "durationTicks": 120,
          "midi": 84,
          "name": "C6",
          "ticks": 199536,
          "time": 141.71576737499998,
          "velocity": 0.30708661417322836
        },
        {
          "duration": 0.0852271875000099,
          "durationTicks": 120,
          "midi": 72,
          "name": "C5",
          "ticks": 199536,
          "time": 141.71576737499998,
          "velocity": 0.30708661417322836
        },
        {
          "duration": 0.0852271875000099,
          "durationTicks": 120,
          "midi": 77,
          "name": "F5",
          "ticks": 199536,
          "time": 141.71576737499998,
          "velocity": 0.30708661417322836
        },
        {
          "duration": 0.0852271875000099,
          "durationTicks": 120,
          "midi": 77,
          "name": "F5",
          "ticks": 199536,
          "time": 141.71576737499998,
          "velocity": 0.30708661417322836
        },
        {
          "duration": 0.0852271875000099,
          "durationTicks": 120,
          "midi": 60,
          "name": "C4",
          "ticks": 199536,
          "time": 141.71576737499998,
          "velocity": 0.30708661417322836
        },
        {
          "duration": 0.0852271875000099,
          "durationTicks": 120,
          "midi": 89,
          "name": "F6",
          "ticks": 199536,
          "time": 141.71576737499998,
          "velocity": 0.30708661417322836
        },
        {
          "duration": 0.0852271875000099,
          "durationTicks": 120,
          "midi": 65,
          "name": "F4",
          "ticks": 199536,
          "time": 141.71576737499998,
          "velocity": 0.30708661417322836
        },
        {
          "duration": 0.0852271875000099,
          "durationTicks": 120,
          "midi": 72,
          "name": "C5",
          "ticks": 199536,
          "time": 141.71576737499998,
          "velocity": 0.30708661417322836
        },
        {
          "duration": 0.0852271875000099,
          "durationTicks": 120,
          "midi": 55,
          "name": "G3",
          "ticks": 199632,
          "time": 141.783949125,
          "velocity": 0.30708661417322836
        },
        {
          "duration": 0.0852271875000099,
          "durationTicks": 120,
          "midi": 58,
          "name": "A#3",
          "ticks": 199632,
          "time": 141.783949125,
          "velocity": 0.30708661417322836
        },
        {
          "duration": 0.0852271875000099,
          "durationTicks": 120,
          "midi": 70,
          "name": "A#4",
          "ticks": 199632,
          "time": 141.783949125,
          "velocity": 0.30708661417322836
        },
        {
          "duration": 0.0852271875000099,
          "durationTicks": 120,
          "midi": 75,
          "name": "D#5",
          "ticks": 199632,
          "time": 141.783949125,
          "velocity": 0.30708661417322836
        },
        {
          "duration": 0.0852271875000099,
          "durationTicks": 120,
          "midi": 75,
          "name": "D#5",
          "ticks": 199632,
          "time": 141.783949125,
          "velocity": 0.30708661417322836
        },
        {
          "duration": 0.0852271875000099,
          "durationTicks": 120,
          "midi": 75,
          "name": "D#5",
          "ticks": 199632,
          "time": 141.783949125,
          "velocity": 0.30708661417322836
        },
        {
          "duration": 0.0852271875000099,
          "durationTicks": 120,
          "midi": 82,
          "name": "A#5",
          "ticks": 199632,
          "time": 141.783949125,
          "velocity": 0.30708661417322836
        },
        {
          "duration": 0.0852271875000099,
          "durationTicks": 120,
          "midi": 55,
          "name": "G3",
          "ticks": 199632,
          "time": 141.783949125,
          "velocity": 0.30708661417322836
        },
        {
          "duration": 0.0852271875000099,
          "durationTicks": 120,
          "midi": 75,
          "name": "D#5",
          "ticks": 199632,
          "time": 141.783949125,
          "velocity": 0.30708661417322836
        },
        {
          "duration": 0.0852271875000099,
          "durationTicks": 120,
          "midi": 87,
          "name": "D#6",
          "ticks": 199632,
          "time": 141.783949125,
          "velocity": 0.30708661417322836
        },
        {
          "duration": 0.0852271875000099,
          "durationTicks": 120,
          "midi": 43,
          "name": "G2",
          "ticks": 199632,
          "time": 141.783949125,
          "velocity": 0.30708661417322836
        },
        {
          "duration": 0.0852271875000099,
          "durationTicks": 120,
          "midi": 70,
          "name": "A#4",
          "ticks": 199632,
          "time": 141.783949125,
          "velocity": 0.30708661417322836
        },
        {
          "duration": 0.0852271875000099,
          "durationTicks": 120,
          "midi": 63,
          "name": "D#4",
          "ticks": 199632,
          "time": 141.783949125,
          "velocity": 0.30708661417322836
        },
        {
          "duration": 0.0852271875000099,
          "durationTicks": 120,
          "midi": 63,
          "name": "D#4",
          "ticks": 199632,
          "time": 141.783949125,
          "velocity": 0.30708661417322836
        },
        {
          "duration": 0.0852271875000099,
          "durationTicks": 120,
          "midi": 43,
          "name": "G2",
          "ticks": 199632,
          "time": 141.783949125,
          "velocity": 0.30708661417322836
        },
        {
          "duration": 0.0852271875000099,
          "durationTicks": 120,
          "midi": 70,
          "name": "A#4",
          "ticks": 199632,
          "time": 141.783949125,
          "velocity": 0.30708661417322836
        },
        {
          "duration": 0.0852271875000099,
          "durationTicks": 120,
          "midi": 82,
          "name": "A#5",
          "ticks": 199632,
          "time": 141.783949125,
          "velocity": 0.30708661417322836
        },
        {
          "duration": 0.0852271875000099,
          "durationTicks": 120,
          "midi": 87,
          "name": "D#6",
          "ticks": 199632,
          "time": 141.783949125,
          "velocity": 0.30708661417322836
        },
        {
          "duration": 0.0852271875000099,
          "durationTicks": 120,
          "midi": 58,
          "name": "A#3",
          "ticks": 199632,
          "time": 141.783949125,
          "velocity": 0.30708661417322836
        },
        {
          "duration": 0.0852271875000099,
          "durationTicks": 120,
          "midi": 70,
          "name": "A#4",
          "ticks": 199632,
          "time": 141.783949125,
          "velocity": 0.30708661417322836
        },
        {
          "duration": 0.0852271875000099,
          "durationTicks": 120,
          "midi": 63,
          "name": "D#4",
          "ticks": 199656,
          "time": 141.8009945625,
          "velocity": 0.30708661417322836
        },
        {
          "duration": 0.0852271875000099,
          "durationTicks": 120,
          "midi": 70,
          "name": "A#4",
          "ticks": 199656,
          "time": 141.8009945625,
          "velocity": 0.30708661417322836
        },
        {
          "duration": 0.0852271875000099,
          "durationTicks": 120,
          "midi": 70,
          "name": "A#4",
          "ticks": 199656,
          "time": 141.8009945625,
          "velocity": 0.30708661417322836
        },
        {
          "duration": 0.0852271875000099,
          "durationTicks": 120,
          "midi": 75,
          "name": "D#5",
          "ticks": 199656,
          "time": 141.8009945625,
          "velocity": 0.30708661417322836
        },
        {
          "duration": 0.0852271875000099,
          "durationTicks": 120,
          "midi": 75,
          "name": "D#5",
          "ticks": 199656,
          "time": 141.8009945625,
          "velocity": 0.30708661417322836
        },
        {
          "duration": 0.0852271875000099,
          "durationTicks": 120,
          "midi": 55,
          "name": "G3",
          "ticks": 199656,
          "time": 141.8009945625,
          "velocity": 0.30708661417322836
        },
        {
          "duration": 0.0852271875000099,
          "durationTicks": 120,
          "midi": 87,
          "name": "D#6",
          "ticks": 199656,
          "time": 141.8009945625,
          "velocity": 0.30708661417322836
        },
        {
          "duration": 0.0852271875000099,
          "durationTicks": 120,
          "midi": 58,
          "name": "A#3",
          "ticks": 199656,
          "time": 141.8009945625,
          "velocity": 0.30708661417322836
        },
        {
          "duration": 0.0852271875000099,
          "durationTicks": 120,
          "midi": 82,
          "name": "A#5",
          "ticks": 199656,
          "time": 141.8009945625,
          "velocity": 0.30708661417322836
        },
        {
          "duration": 0.0852271875000099,
          "durationTicks": 120,
          "midi": 43,
          "name": "G2",
          "ticks": 199656,
          "time": 141.8009945625,
          "velocity": 0.30708661417322836
        },
        {
          "duration": 0.0852271875000099,
          "durationTicks": 120,
          "midi": 73,
          "name": "C#5",
          "ticks": 199752,
          "time": 141.8691763125,
          "velocity": 0.30708661417322836
        },
        {
          "duration": 0.0852271875000099,
          "durationTicks": 120,
          "midi": 85,
          "name": "C#6",
          "ticks": 199752,
          "time": 141.8691763125,
          "velocity": 0.30708661417322836
        },
        {
          "duration": 0.0852271875000099,
          "durationTicks": 120,
          "midi": 80,
          "name": "G#5",
          "ticks": 199752,
          "time": 141.8691763125,
          "velocity": 0.30708661417322836
        },
        {
          "duration": 0.0852271875000099,
          "durationTicks": 120,
          "midi": 61,
          "name": "C#4",
          "ticks": 199752,
          "time": 141.8691763125,
          "velocity": 0.30708661417322836
        },
        {
          "duration": 0.0852271875000099,
          "durationTicks": 120,
          "midi": 73,
          "name": "C#5",
          "ticks": 199752,
          "time": 141.8691763125,
          "velocity": 0.30708661417322836
        },
        {
          "duration": 0.0852271875000099,
          "durationTicks": 120,
          "midi": 56,
          "name": "G#3",
          "ticks": 199752,
          "time": 141.8691763125,
          "velocity": 0.30708661417322836
        },
        {
          "duration": 0.0852271875000099,
          "durationTicks": 120,
          "midi": 85,
          "name": "C#6",
          "ticks": 199752,
          "time": 141.8691763125,
          "velocity": 0.30708661417322836
        },
        {
          "duration": 0.0852271875000099,
          "durationTicks": 120,
          "midi": 68,
          "name": "G#4",
          "ticks": 199752,
          "time": 141.8691763125,
          "velocity": 0.30708661417322836
        },
        {
          "duration": 0.0852271875000099,
          "durationTicks": 120,
          "midi": 80,
          "name": "G#5",
          "ticks": 199752,
          "time": 141.8691763125,
          "velocity": 0.30708661417322836
        },
        {
          "duration": 0.0852271875000099,
          "durationTicks": 120,
          "midi": 73,
          "name": "C#5",
          "ticks": 199752,
          "time": 141.8691763125,
          "velocity": 0.30708661417322836
        },
        {
          "duration": 0.0852271875000099,
          "durationTicks": 120,
          "midi": 61,
          "name": "C#4",
          "ticks": 199752,
          "time": 141.8691763125,
          "velocity": 0.30708661417322836
        },
        {
          "duration": 0.0852271875000099,
          "durationTicks": 120,
          "midi": 68,
          "name": "G#4",
          "ticks": 199752,
          "time": 141.8691763125,
          "velocity": 0.30708661417322836
        },
        {
          "duration": 0.0852271875000099,
          "durationTicks": 120,
          "midi": 68,
          "name": "G#4",
          "ticks": 199752,
          "time": 141.8691763125,
          "velocity": 0.30708661417322836
        },
        {
          "duration": 0.0852271875000099,
          "durationTicks": 120,
          "midi": 56,
          "name": "G#3",
          "ticks": 199752,
          "time": 141.8691763125,
          "velocity": 0.30708661417322836
        },
        {
          "duration": 0.0852271875000099,
          "durationTicks": 120,
          "midi": 68,
          "name": "G#4",
          "ticks": 199752,
          "time": 141.8691763125,
          "velocity": 0.30708661417322836
        },
        {
          "duration": 0.0852271875000099,
          "durationTicks": 120,
          "midi": 73,
          "name": "C#5",
          "ticks": 199752,
          "time": 141.8691763125,
          "velocity": 0.30708661417322836
        },
        {
          "duration": 0.08522718749998148,
          "durationTicks": 120,
          "midi": 68,
          "name": "G#4",
          "ticks": 199776,
          "time": 141.88622175,
          "velocity": 0.30708661417322836
        },
        {
          "duration": 0.08522718749998148,
          "durationTicks": 120,
          "midi": 61,
          "name": "C#4",
          "ticks": 199776,
          "time": 141.88622175,
          "velocity": 0.30708661417322836
        },
        {
          "duration": 0.08522718749998148,
          "durationTicks": 120,
          "midi": 73,
          "name": "C#5",
          "ticks": 199776,
          "time": 141.88622175,
          "velocity": 0.30708661417322836
        },
        {
          "duration": 0.08522718749998148,
          "durationTicks": 120,
          "midi": 80,
          "name": "G#5",
          "ticks": 199776,
          "time": 141.88622175,
          "velocity": 0.30708661417322836
        },
        {
          "duration": 0.08522718749998148,
          "durationTicks": 120,
          "midi": 73,
          "name": "C#5",
          "ticks": 199776,
          "time": 141.88622175,
          "velocity": 0.30708661417322836
        },
        {
          "duration": 0.08522718749998148,
          "durationTicks": 120,
          "midi": 68,
          "name": "G#4",
          "ticks": 199776,
          "time": 141.88622175,
          "velocity": 0.30708661417322836
        },
        {
          "duration": 0.08522718749998148,
          "durationTicks": 120,
          "midi": 85,
          "name": "C#6",
          "ticks": 199776,
          "time": 141.88622175,
          "velocity": 0.30708661417322836
        },
        {
          "duration": 0.08522718749998148,
          "durationTicks": 120,
          "midi": 56,
          "name": "G#3",
          "ticks": 199776,
          "time": 141.88622175,
          "velocity": 0.30708661417322836
        },
        {
          "duration": 0.08522718749998148,
          "durationTicks": 120,
          "midi": 72,
          "name": "C5",
          "ticks": 199872,
          "time": 141.9544035,
          "velocity": 0.30708661417322836
        },
        {
          "duration": 0.08522718749998148,
          "durationTicks": 120,
          "midi": 57,
          "name": "A3",
          "ticks": 199872,
          "time": 141.9544035,
          "velocity": 0.30708661417322836
        },
        {
          "duration": 0.08522718749998148,
          "durationTicks": 120,
          "midi": 72,
          "name": "C5",
          "ticks": 199872,
          "time": 141.9544035,
          "velocity": 0.30708661417322836
        },
        {
          "duration": 0.08522718749998148,
          "durationTicks": 120,
          "midi": 57,
          "name": "A3",
          "ticks": 199872,
          "time": 141.9544035,
          "velocity": 0.30708661417322836
        },
        {
          "duration": 0.08522718749998148,
          "durationTicks": 120,
          "midi": 79,
          "name": "G5",
          "ticks": 199872,
          "time": 141.9544035,
          "velocity": 0.30708661417322836
        },
        {
          "duration": 0.08522718749998148,
          "durationTicks": 120,
          "midi": 45,
          "name": "A2",
          "ticks": 199872,
          "time": 141.9544035,
          "velocity": 0.30708661417322836
        },
        {
          "duration": 0.08522718749998148,
          "durationTicks": 120,
          "midi": 67,
          "name": "G4",
          "ticks": 199872,
          "time": 141.9544035,
          "velocity": 0.30708661417322836
        },
        {
          "duration": 0.08522718749998148,
          "durationTicks": 120,
          "midi": 84,
          "name": "C6",
          "ticks": 199872,
          "time": 141.9544035,
          "velocity": 0.30708661417322836
        },
        {
          "duration": 0.08522718749998148,
          "durationTicks": 120,
          "midi": 72,
          "name": "C5",
          "ticks": 199872,
          "time": 141.9544035,
          "velocity": 0.30708661417322836
        },
        {
          "duration": 0.08522718749998148,
          "durationTicks": 120,
          "midi": 60,
          "name": "C4",
          "ticks": 199872,
          "time": 141.9544035,
          "velocity": 0.30708661417322836
        },
        {
          "duration": 0.08522718749998148,
          "durationTicks": 120,
          "midi": 72,
          "name": "C5",
          "ticks": 199872,
          "time": 141.9544035,
          "velocity": 0.30708661417322836
        },
        {
          "duration": 0.08522718749998148,
          "durationTicks": 120,
          "midi": 60,
          "name": "C4",
          "ticks": 199872,
          "time": 141.9544035,
          "velocity": 0.30708661417322836
        },
        {
          "duration": 0.08522718749998148,
          "durationTicks": 120,
          "midi": 45,
          "name": "A2",
          "ticks": 199872,
          "time": 141.9544035,
          "velocity": 0.30708661417322836
        },
        {
          "duration": 0.08522718749998148,
          "durationTicks": 120,
          "midi": 55,
          "name": "G3",
          "ticks": 199872,
          "time": 141.9544035,
          "velocity": 0.30708661417322836
        },
        {
          "duration": 0.08522718749998148,
          "durationTicks": 120,
          "midi": 67,
          "name": "G4",
          "ticks": 199872,
          "time": 141.9544035,
          "velocity": 0.30708661417322836
        },
        {
          "duration": 0.08522718749998148,
          "durationTicks": 120,
          "midi": 67,
          "name": "G4",
          "ticks": 199872,
          "time": 141.9544035,
          "velocity": 0.30708661417322836
        },
        {
          "duration": 0.08522718749998148,
          "durationTicks": 120,
          "midi": 84,
          "name": "C6",
          "ticks": 199872,
          "time": 141.9544035,
          "velocity": 0.30708661417322836
        },
        {
          "duration": 0.08522718749998148,
          "durationTicks": 120,
          "midi": 67,
          "name": "G4",
          "ticks": 199872,
          "time": 141.9544035,
          "velocity": 0.30708661417322836
        },
        {
          "duration": 0.08522718749998148,
          "durationTicks": 120,
          "midi": 55,
          "name": "G3",
          "ticks": 199872,
          "time": 141.9544035,
          "velocity": 0.30708661417322836
        },
        {
          "duration": 0.08522718749998148,
          "durationTicks": 120,
          "midi": 79,
          "name": "G5",
          "ticks": 199872,
          "time": 141.9544035,
          "velocity": 0.30708661417322836
        },
        {
          "duration": 0.0852271875000099,
          "durationTicks": 120,
          "midi": 67,
          "name": "G4",
          "ticks": 199896,
          "time": 141.97144893749999,
          "velocity": 0.30708661417322836
        },
        {
          "duration": 0.0852271875000099,
          "durationTicks": 120,
          "midi": 60,
          "name": "C4",
          "ticks": 199896,
          "time": 141.97144893749999,
          "velocity": 0.30708661417322836
        },
        {
          "duration": 0.0852271875000099,
          "durationTicks": 120,
          "midi": 79,
          "name": "G5",
          "ticks": 199896,
          "time": 141.97144893749999,
          "velocity": 0.30708661417322836
        },
        {
          "duration": 0.0852271875000099,
          "durationTicks": 120,
          "midi": 72,
          "name": "C5",
          "ticks": 199896,
          "time": 141.97144893749999,
          "velocity": 0.30708661417322836
        },
        {
          "duration": 0.0852271875000099,
          "durationTicks": 120,
          "midi": 55,
          "name": "G3",
          "ticks": 199896,
          "time": 141.97144893749999,
          "velocity": 0.30708661417322836
        },
        {
          "duration": 0.0852271875000099,
          "durationTicks": 120,
          "midi": 57,
          "name": "A3",
          "ticks": 199896,
          "time": 141.97144893749999,
          "velocity": 0.30708661417322836
        },
        {
          "duration": 0.0852271875000099,
          "durationTicks": 120,
          "midi": 45,
          "name": "A2",
          "ticks": 199896,
          "time": 141.97144893749999,
          "velocity": 0.30708661417322836
        },
        {
          "duration": 0.0852271875000099,
          "durationTicks": 120,
          "midi": 67,
          "name": "G4",
          "ticks": 199896,
          "time": 141.97144893749999,
          "velocity": 0.30708661417322836
        },
        {
          "duration": 0.0852271875000099,
          "durationTicks": 120,
          "midi": 84,
          "name": "C6",
          "ticks": 199896,
          "time": 141.97144893749999,
          "velocity": 0.30708661417322836
        },
        {
          "duration": 0.0852271875000099,
          "durationTicks": 120,
          "midi": 72,
          "name": "C5",
          "ticks": 199896,
          "time": 141.97144893749999,
          "velocity": 0.30708661417322836
        },
        {
          "duration": 0.0852271875000099,
          "durationTicks": 120,
          "midi": 65,
          "name": "F4",
          "ticks": 199992,
          "time": 142.0396306875,
          "velocity": 0.30708661417322836
        },
        {
          "duration": 0.0852271875000099,
          "durationTicks": 120,
          "midi": 58,
          "name": "A#3",
          "ticks": 199992,
          "time": 142.0396306875,
          "velocity": 0.30708661417322836
        },
        {
          "duration": 0.0852271875000099,
          "durationTicks": 120,
          "midi": 58,
          "name": "A#3",
          "ticks": 199992,
          "time": 142.0396306875,
          "velocity": 0.30708661417322836
        },
        {
          "duration": 0.0852271875000099,
          "durationTicks": 120,
          "midi": 77,
          "name": "F5",
          "ticks": 199992,
          "time": 142.0396306875,
          "velocity": 0.30708661417322836
        },
        {
          "duration": 0.0852271875000099,
          "durationTicks": 120,
          "midi": 70,
          "name": "A#4",
          "ticks": 199992,
          "time": 142.0396306875,
          "velocity": 0.30708661417322836
        },
        {
          "duration": 0.0852271875000099,
          "durationTicks": 120,
          "midi": 65,
          "name": "F4",
          "ticks": 199992,
          "time": 142.0396306875,
          "velocity": 0.30708661417322836
        },
        {
          "duration": 0.0852271875000099,
          "durationTicks": 120,
          "midi": 70,
          "name": "A#4",
          "ticks": 199992,
          "time": 142.0396306875,
          "velocity": 0.30708661417322836
        },
        {
          "duration": 0.0852271875000099,
          "durationTicks": 120,
          "midi": 77,
          "name": "F5",
          "ticks": 199992,
          "time": 142.0396306875,
          "velocity": 0.30708661417322836
        },
        {
          "duration": 0.0852271875000099,
          "durationTicks": 120,
          "midi": 65,
          "name": "F4",
          "ticks": 199992,
          "time": 142.0396306875,
          "velocity": 0.30708661417322836
        },
        {
          "duration": 0.0852271875000099,
          "durationTicks": 120,
          "midi": 82,
          "name": "A#5",
          "ticks": 199992,
          "time": 142.0396306875,
          "velocity": 0.30708661417322836
        },
        {
          "duration": 0.0852271875000099,
          "durationTicks": 120,
          "midi": 70,
          "name": "A#4",
          "ticks": 199992,
          "time": 142.0396306875,
          "velocity": 0.30708661417322836
        },
        {
          "duration": 0.0852271875000099,
          "durationTicks": 120,
          "midi": 70,
          "name": "A#4",
          "ticks": 199992,
          "time": 142.0396306875,
          "velocity": 0.30708661417322836
        },
        {
          "duration": 0.0852271875000099,
          "durationTicks": 120,
          "midi": 82,
          "name": "A#5",
          "ticks": 199992,
          "time": 142.0396306875,
          "velocity": 0.30708661417322836
        },
        {
          "duration": 0.0852271875000099,
          "durationTicks": 120,
          "midi": 53,
          "name": "F3",
          "ticks": 199992,
          "time": 142.0396306875,
          "velocity": 0.30708661417322836
        },
        {
          "duration": 0.0852271875000099,
          "durationTicks": 120,
          "midi": 65,
          "name": "F4",
          "ticks": 199992,
          "time": 142.0396306875,
          "velocity": 0.30708661417322836
        },
        {
          "duration": 0.0852271875000099,
          "durationTicks": 120,
          "midi": 53,
          "name": "F3",
          "ticks": 199992,
          "time": 142.0396306875,
          "velocity": 0.30708661417322836
        },
        {
          "duration": 0.0852271875000099,
          "durationTicks": 120,
          "midi": 82,
          "name": "A#5",
          "ticks": 200016,
          "time": 142.056676125,
          "velocity": 0.30708661417322836
        },
        {
          "duration": 0.0852271875000099,
          "durationTicks": 120,
          "midi": 77,
          "name": "F5",
          "ticks": 200016,
          "time": 142.056676125,
          "velocity": 0.30708661417322836
        },
        {
          "duration": 0.0852271875000099,
          "durationTicks": 120,
          "midi": 70,
          "name": "A#4",
          "ticks": 200016,
          "time": 142.056676125,
          "velocity": 0.30708661417322836
        },
        {
          "duration": 0.0852271875000099,
          "durationTicks": 120,
          "midi": 65,
          "name": "F4",
          "ticks": 200016,
          "time": 142.056676125,
          "velocity": 0.30708661417322836
        },
        {
          "duration": 0.0852271875000099,
          "durationTicks": 120,
          "midi": 53,
          "name": "F3",
          "ticks": 200016,
          "time": 142.056676125,
          "velocity": 0.30708661417322836
        },
        {
          "duration": 0.0852271875000099,
          "durationTicks": 120,
          "midi": 70,
          "name": "A#4",
          "ticks": 200016,
          "time": 142.056676125,
          "velocity": 0.30708661417322836
        },
        {
          "duration": 0.0852271875000099,
          "durationTicks": 120,
          "midi": 58,
          "name": "A#3",
          "ticks": 200016,
          "time": 142.056676125,
          "velocity": 0.30708661417322836
        },
        {
          "duration": 0.0852271875000099,
          "durationTicks": 120,
          "midi": 65,
          "name": "F4",
          "ticks": 200016,
          "time": 142.056676125,
          "velocity": 0.30708661417322836
        },
        {
          "duration": 0.08522718749998148,
          "durationTicks": 120,
          "midi": 81,
          "name": "A5",
          "ticks": 200112,
          "time": 142.124857875,
          "velocity": 0.30708661417322836
        },
        {
          "duration": 0.08522718749998148,
          "durationTicks": 120,
          "midi": 53,
          "name": "F3",
          "ticks": 200112,
          "time": 142.124857875,
          "velocity": 0.30708661417322836
        },
        {
          "duration": 0.08522718749998148,
          "durationTicks": 120,
          "midi": 76,
          "name": "E5",
          "ticks": 200112,
          "time": 142.124857875,
          "velocity": 0.30708661417322836
        },
        {
          "duration": 0.08522718749998148,
          "durationTicks": 120,
          "midi": 64,
          "name": "E4",
          "ticks": 200112,
          "time": 142.124857875,
          "velocity": 0.30708661417322836
        },
        {
          "duration": 0.08522718749998148,
          "durationTicks": 120,
          "midi": 69,
          "name": "A4",
          "ticks": 200112,
          "time": 142.124857875,
          "velocity": 0.30708661417322836
        },
        {
          "duration": 0.08522718749998148,
          "durationTicks": 120,
          "midi": 69,
          "name": "A4",
          "ticks": 200112,
          "time": 142.124857875,
          "velocity": 0.30708661417322836
        },
        {
          "duration": 0.08522718749998148,
          "durationTicks": 120,
          "midi": 81,
          "name": "A5",
          "ticks": 200112,
          "time": 142.124857875,
          "velocity": 0.30708661417322836
        },
        {
          "duration": 0.08522718749998148,
          "durationTicks": 120,
          "midi": 41,
          "name": "F2",
          "ticks": 200112,
          "time": 142.124857875,
          "velocity": 0.30708661417322836
        },
        {
          "duration": 0.08522718749998148,
          "durationTicks": 120,
          "midi": 53,
          "name": "F3",
          "ticks": 200112,
          "time": 142.124857875,
          "velocity": 0.30708661417322836
        },
        {
          "duration": 0.08522718749998148,
          "durationTicks": 120,
          "midi": 69,
          "name": "A4",
          "ticks": 200112,
          "time": 142.124857875,
          "velocity": 0.30708661417322836
        },
        {
          "duration": 0.08522718749998148,
          "durationTicks": 120,
          "midi": 64,
          "name": "E4",
          "ticks": 200112,
          "time": 142.124857875,
          "velocity": 0.30708661417322836
        },
        {
          "duration": 0.08522718749998148,
          "durationTicks": 120,
          "midi": 57,
          "name": "A3",
          "ticks": 200112,
          "time": 142.124857875,
          "velocity": 0.30708661417322836
        },
        {
          "duration": 0.08522718749998148,
          "durationTicks": 120,
          "midi": 52,
          "name": "E3",
          "ticks": 200112,
          "time": 142.124857875,
          "velocity": 0.30708661417322836
        },
        {
          "duration": 0.08522718749998148,
          "durationTicks": 120,
          "midi": 41,
          "name": "F2",
          "ticks": 200112,
          "time": 142.124857875,
          "velocity": 0.30708661417322836
        },
        {
          "duration": 0.08522718749998148,
          "durationTicks": 120,
          "midi": 57,
          "name": "A3",
          "ticks": 200112,
          "time": 142.124857875,
          "velocity": 0.30708661417322836
        },
        {
          "duration": 0.08522718749998148,
          "durationTicks": 120,
          "midi": 52,
          "name": "E3",
          "ticks": 200112,
          "time": 142.124857875,
          "velocity": 0.30708661417322836
        },
        {
          "duration": 0.08522718749998148,
          "durationTicks": 120,
          "midi": 69,
          "name": "A4",
          "ticks": 200112,
          "time": 142.124857875,
          "velocity": 0.30708661417322836
        },
        {
          "duration": 0.08522718749998148,
          "durationTicks": 120,
          "midi": 64,
          "name": "E4",
          "ticks": 200112,
          "time": 142.124857875,
          "velocity": 0.30708661417322836
        },
        {
          "duration": 0.08522718749998148,
          "durationTicks": 120,
          "midi": 64,
          "name": "E4",
          "ticks": 200112,
          "time": 142.124857875,
          "velocity": 0.30708661417322836
        },
        {
          "duration": 0.08522718749998148,
          "durationTicks": 120,
          "midi": 76,
          "name": "E5",
          "ticks": 200112,
          "time": 142.124857875,
          "velocity": 0.30708661417322836
        },
        {
          "duration": 0.08522718749998148,
          "durationTicks": 120,
          "midi": 41,
          "name": "F2",
          "ticks": 200136,
          "time": 142.1419033125,
          "velocity": 0.30708661417322836
        },
        {
          "duration": 0.08522718749998148,
          "durationTicks": 120,
          "midi": 69,
          "name": "A4",
          "ticks": 200136,
          "time": 142.1419033125,
          "velocity": 0.30708661417322836
        },
        {
          "duration": 0.08522718749998148,
          "durationTicks": 120,
          "midi": 81,
          "name": "A5",
          "ticks": 200136,
          "time": 142.1419033125,
          "velocity": 0.30708661417322836
        },
        {
          "duration": 0.08522718749998148,
          "durationTicks": 120,
          "midi": 64,
          "name": "E4",
          "ticks": 200136,
          "time": 142.1419033125,
          "velocity": 0.30708661417322836
        },
        {
          "duration": 0.08522718749998148,
          "durationTicks": 120,
          "midi": 53,
          "name": "F3",
          "ticks": 200136,
          "time": 142.1419033125,
          "velocity": 0.30708661417322836
        },
        {
          "duration": 0.08522718749998148,
          "durationTicks": 120,
          "midi": 76,
          "name": "E5",
          "ticks": 200136,
          "time": 142.1419033125,
          "velocity": 0.30708661417322836
        },
        {
          "duration": 0.08522718749998148,
          "durationTicks": 120,
          "midi": 52,
          "name": "E3",
          "ticks": 200136,
          "time": 142.1419033125,
          "velocity": 0.30708661417322836
        },
        {
          "duration": 0.08522718749998148,
          "durationTicks": 120,
          "midi": 69,
          "name": "A4",
          "ticks": 200136,
          "time": 142.1419033125,
          "velocity": 0.30708661417322836
        },
        {
          "duration": 0.08522718749998148,
          "durationTicks": 120,
          "midi": 64,
          "name": "E4",
          "ticks": 200136,
          "time": 142.1419033125,
          "velocity": 0.30708661417322836
        },
        {
          "duration": 0.08522718749998148,
          "durationTicks": 120,
          "midi": 57,
          "name": "A3",
          "ticks": 200136,
          "time": 142.1419033125,
          "velocity": 0.30708661417322836
        },
        {
          "duration": 0.0852271875000099,
          "durationTicks": 120,
          "midi": 67,
          "name": "G4",
          "ticks": 200232,
          "time": 142.21008506249999,
          "velocity": 0.30708661417322836
        },
        {
          "duration": 0.0852271875000099,
          "durationTicks": 120,
          "midi": 72,
          "name": "C5",
          "ticks": 200232,
          "time": 142.21008506249999,
          "velocity": 0.30708661417322836
        },
        {
          "duration": 0.0852271875000099,
          "durationTicks": 120,
          "midi": 72,
          "name": "C5",
          "ticks": 200232,
          "time": 142.21008506249999,
          "velocity": 0.30708661417322836
        },
        {
          "duration": 0.0852271875000099,
          "durationTicks": 120,
          "midi": 72,
          "name": "C5",
          "ticks": 200232,
          "time": 142.21008506249999,
          "velocity": 0.30708661417322836
        },
        {
          "duration": 0.0852271875000099,
          "durationTicks": 120,
          "midi": 60,
          "name": "C4",
          "ticks": 200232,
          "time": 142.21008506249999,
          "velocity": 0.30708661417322836
        },
        {
          "duration": 0.0852271875000099,
          "durationTicks": 120,
          "midi": 67,
          "name": "G4",
          "ticks": 200232,
          "time": 142.21008506249999,
          "velocity": 0.30708661417322836
        },
        {
          "duration": 0.0852271875000099,
          "durationTicks": 120,
          "midi": 60,
          "name": "C4",
          "ticks": 200232,
          "time": 142.21008506249999,
          "velocity": 0.30708661417322836
        },
        {
          "duration": 0.0852271875000099,
          "durationTicks": 120,
          "midi": 79,
          "name": "G5",
          "ticks": 200232,
          "time": 142.21008506249999,
          "velocity": 0.30708661417322836
        },
        {
          "duration": 0.0852271875000099,
          "durationTicks": 120,
          "midi": 67,
          "name": "G4",
          "ticks": 200232,
          "time": 142.21008506249999,
          "velocity": 0.30708661417322836
        },
        {
          "duration": 0.0852271875000099,
          "durationTicks": 120,
          "midi": 55,
          "name": "G3",
          "ticks": 200232,
          "time": 142.21008506249999,
          "velocity": 0.30708661417322836
        },
        {
          "duration": 0.0852271875000099,
          "durationTicks": 120,
          "midi": 84,
          "name": "C6",
          "ticks": 200232,
          "time": 142.21008506249999,
          "velocity": 0.30708661417322836
        },
        {
          "duration": 0.0852271875000099,
          "durationTicks": 120,
          "midi": 72,
          "name": "C5",
          "ticks": 200232,
          "time": 142.21008506249999,
          "velocity": 0.30708661417322836
        },
        {
          "duration": 0.0852271875000099,
          "durationTicks": 120,
          "midi": 84,
          "name": "C6",
          "ticks": 200232,
          "time": 142.21008506249999,
          "velocity": 0.30708661417322836
        },
        {
          "duration": 0.0852271875000099,
          "durationTicks": 120,
          "midi": 55,
          "name": "G3",
          "ticks": 200232,
          "time": 142.21008506249999,
          "velocity": 0.30708661417322836
        },
        {
          "duration": 0.0852271875000099,
          "durationTicks": 120,
          "midi": 79,
          "name": "G5",
          "ticks": 200232,
          "time": 142.21008506249999,
          "velocity": 0.30708661417322836
        },
        {
          "duration": 0.0852271875000099,
          "durationTicks": 120,
          "midi": 67,
          "name": "G4",
          "ticks": 200232,
          "time": 142.21008506249999,
          "velocity": 0.30708661417322836
        },
        {
          "duration": 0.0852271875000099,
          "durationTicks": 120,
          "midi": 79,
          "name": "G5",
          "ticks": 200256,
          "time": 142.2271305,
          "velocity": 0.30708661417322836
        },
        {
          "duration": 0.0852271875000099,
          "durationTicks": 120,
          "midi": 60,
          "name": "C4",
          "ticks": 200256,
          "time": 142.2271305,
          "velocity": 0.30708661417322836
        },
        {
          "duration": 0.0852271875000099,
          "durationTicks": 120,
          "midi": 72,
          "name": "C5",
          "ticks": 200256,
          "time": 142.2271305,
          "velocity": 0.30708661417322836
        },
        {
          "duration": 0.0852271875000099,
          "durationTicks": 120,
          "midi": 84,
          "name": "C6",
          "ticks": 200256,
          "time": 142.2271305,
          "velocity": 0.30708661417322836
        },
        {
          "duration": 0.0852271875000099,
          "durationTicks": 120,
          "midi": 72,
          "name": "C5",
          "ticks": 200256,
          "time": 142.2271305,
          "velocity": 0.30708661417322836
        },
        {
          "duration": 0.0852271875000099,
          "durationTicks": 120,
          "midi": 55,
          "name": "G3",
          "ticks": 200256,
          "time": 142.2271305,
          "velocity": 0.30708661417322836
        },
        {
          "duration": 0.0852271875000099,
          "durationTicks": 120,
          "midi": 67,
          "name": "G4",
          "ticks": 200256,
          "time": 142.2271305,
          "velocity": 0.30708661417322836
        },
        {
          "duration": 0.0852271875000099,
          "durationTicks": 120,
          "midi": 67,
          "name": "G4",
          "ticks": 200256,
          "time": 142.2271305,
          "velocity": 0.30708661417322836
        },
        {
          "duration": 0.0852271875000099,
          "durationTicks": 120,
          "midi": 58,
          "name": "A#3",
          "ticks": 200352,
          "time": 142.29531225,
          "velocity": 0.30708661417322836
        },
        {
          "duration": 0.0852271875000099,
          "durationTicks": 120,
          "midi": 58,
          "name": "A#3",
          "ticks": 200352,
          "time": 142.29531225,
          "velocity": 0.30708661417322836
        },
        {
          "duration": 0.0852271875000099,
          "durationTicks": 120,
          "midi": 46,
          "name": "A#2",
          "ticks": 200352,
          "time": 142.29531225,
          "velocity": 0.30708661417322836
        },
        {
          "duration": 0.0852271875000099,
          "durationTicks": 120,
          "midi": 70,
          "name": "A#4",
          "ticks": 200352,
          "time": 142.29531225,
          "velocity": 0.30708661417322836
        },
        {
          "duration": 0.0852271875000099,
          "durationTicks": 120,
          "midi": 82,
          "name": "A#5",
          "ticks": 200352,
          "time": 142.29531225,
          "velocity": 0.30708661417322836
        },
        {
          "duration": 0.0852271875000099,
          "durationTicks": 120,
          "midi": 65,
          "name": "F4",
          "ticks": 200352,
          "time": 142.29531225,
          "velocity": 0.30708661417322836
        },
        {
          "duration": 0.0852271875000099,
          "durationTicks": 120,
          "midi": 70,
          "name": "A#4",
          "ticks": 200352,
          "time": 142.29531225,
          "velocity": 0.30708661417322836
        },
        {
          "duration": 0.0852271875000099,
          "durationTicks": 120,
          "midi": 65,
          "name": "F4",
          "ticks": 200352,
          "time": 142.29531225,
          "velocity": 0.30708661417322836
        },
        {
          "duration": 0.0852271875000099,
          "durationTicks": 120,
          "midi": 46,
          "name": "A#2",
          "ticks": 200352,
          "time": 142.29531225,
          "velocity": 0.30708661417322836
        },
        {
          "duration": 0.0852271875000099,
          "durationTicks": 120,
          "midi": 58,
          "name": "A#3",
          "ticks": 200352,
          "time": 142.29531225,
          "velocity": 0.30708661417322836
        },
        {
          "duration": 0.0852271875000099,
          "durationTicks": 120,
          "midi": 70,
          "name": "A#4",
          "ticks": 200352,
          "time": 142.29531225,
          "velocity": 0.30708661417322836
        },
        {
          "duration": 0.0852271875000099,
          "durationTicks": 120,
          "midi": 77,
          "name": "F5",
          "ticks": 200352,
          "time": 142.29531225,
          "velocity": 0.30708661417322836
        },
        {
          "duration": 0.0852271875000099,
          "durationTicks": 120,
          "midi": 58,
          "name": "A#3",
          "ticks": 200352,
          "time": 142.29531225,
          "velocity": 0.30708661417322836
        },
        {
          "duration": 0.0852271875000099,
          "durationTicks": 120,
          "midi": 82,
          "name": "A#5",
          "ticks": 200352,
          "time": 142.29531225,
          "velocity": 0.30708661417322836
        },
        {
          "duration": 0.0852271875000099,
          "durationTicks": 120,
          "midi": 77,
          "name": "F5",
          "ticks": 200352,
          "time": 142.29531225,
          "velocity": 0.30708661417322836
        },
        {
          "duration": 0.0852271875000099,
          "durationTicks": 120,
          "midi": 70,
          "name": "A#4",
          "ticks": 200352,
          "time": 142.29531225,
          "velocity": 0.30708661417322836
        },
        {
          "duration": 0.0852271875000099,
          "durationTicks": 120,
          "midi": 77,
          "name": "F5",
          "ticks": 200376,
          "time": 142.3123576875,
          "velocity": 0.30708661417322836
        },
        {
          "duration": 0.0852271875000099,
          "durationTicks": 120,
          "midi": 82,
          "name": "A#5",
          "ticks": 200376,
          "time": 142.3123576875,
          "velocity": 0.30708661417322836
        },
        {
          "duration": 0.0852271875000099,
          "durationTicks": 120,
          "midi": 46,
          "name": "A#2",
          "ticks": 200376,
          "time": 142.3123576875,
          "velocity": 0.30708661417322836
        },
        {
          "duration": 0.0852271875000099,
          "durationTicks": 120,
          "midi": 58,
          "name": "A#3",
          "ticks": 200376,
          "time": 142.3123576875,
          "velocity": 0.30708661417322836
        },
        {
          "duration": 0.0852271875000099,
          "durationTicks": 120,
          "midi": 58,
          "name": "A#3",
          "ticks": 200376,
          "time": 142.3123576875,
          "velocity": 0.30708661417322836
        },
        {
          "duration": 0.0852271875000099,
          "durationTicks": 120,
          "midi": 70,
          "name": "A#4",
          "ticks": 200376,
          "time": 142.3123576875,
          "velocity": 0.30708661417322836
        },
        {
          "duration": 0.0852271875000099,
          "durationTicks": 120,
          "midi": 70,
          "name": "A#4",
          "ticks": 200376,
          "time": 142.3123576875,
          "velocity": 0.30708661417322836
        },
        {
          "duration": 0.0852271875000099,
          "durationTicks": 120,
          "midi": 65,
          "name": "F4",
          "ticks": 200376,
          "time": 142.3123576875,
          "velocity": 0.30708661417322836
        },
        {
          "duration": 0.0852271875000099,
          "durationTicks": 120,
          "midi": 75,
          "name": "D#5",
          "ticks": 200688,
          "time": 142.533948375,
          "velocity": 0.30708661417322836
        },
        {
          "duration": 0.0852271875000099,
          "durationTicks": 120,
          "midi": 75,
          "name": "D#5",
          "ticks": 200688,
          "time": 142.533948375,
          "velocity": 0.30708661417322836
        },
        {
          "duration": 0.0852271875000099,
          "durationTicks": 120,
          "midi": 75,
          "name": "D#5",
          "ticks": 200712,
          "time": 142.5509938125,
          "velocity": 0.30708661417322836
        },
        {
          "duration": 0.0852271875000099,
          "durationTicks": 120,
          "midi": 73,
          "name": "C#5",
          "ticks": 200784,
          "time": 142.602130125,
          "velocity": 0.30708661417322836
        },
        {
          "duration": 0.0852271875000099,
          "durationTicks": 120,
          "midi": 73,
          "name": "C#5",
          "ticks": 200784,
          "time": 142.602130125,
          "velocity": 0.30708661417322836
        },
        {
          "duration": 0.08522718749998148,
          "durationTicks": 120,
          "midi": 73,
          "name": "C#5",
          "ticks": 200808,
          "time": 142.6191755625,
          "velocity": 0.30708661417322836
        },
        {
          "duration": 0.08522718749998148,
          "durationTicks": 120,
          "midi": 72,
          "name": "C5",
          "ticks": 200880,
          "time": 142.670311875,
          "velocity": 0.30708661417322836
        },
        {
          "duration": 0.08522718749998148,
          "durationTicks": 120,
          "midi": 72,
          "name": "C5",
          "ticks": 200880,
          "time": 142.670311875,
          "velocity": 0.30708661417322836
        },
        {
          "duration": 0.08522718749998148,
          "durationTicks": 120,
          "midi": 72,
          "name": "C5",
          "ticks": 200904,
          "time": 142.6873573125,
          "velocity": 0.30708661417322836
        },
        {
          "duration": 0.0852271875000099,
          "durationTicks": 120,
          "midi": 75,
          "name": "D#5",
          "ticks": 201072,
          "time": 142.806675375,
          "velocity": 0.30708661417322836
        },
        {
          "duration": 0.0852271875000099,
          "durationTicks": 120,
          "midi": 75,
          "name": "D#5",
          "ticks": 201072,
          "time": 142.806675375,
          "velocity": 0.30708661417322836
        },
        {
          "duration": 0.0852271875000099,
          "durationTicks": 120,
          "midi": 75,
          "name": "D#5",
          "ticks": 201096,
          "time": 142.8237208125,
          "velocity": 0.30708661417322836
        },
        {
          "duration": 0.08522718749998148,
          "durationTicks": 120,
          "midi": 73,
          "name": "C#5",
          "ticks": 201168,
          "time": 142.874857125,
          "velocity": 0.30708661417322836
        },
        {
          "duration": 0.08522718749998148,
          "durationTicks": 120,
          "midi": 73,
          "name": "C#5",
          "ticks": 201168,
          "time": 142.874857125,
          "velocity": 0.30708661417322836
        },
        {
          "duration": 0.08522718749998148,
          "durationTicks": 120,
          "midi": 73,
          "name": "C#5",
          "ticks": 201192,
          "time": 142.8919025625,
          "velocity": 0.30708661417322836
        },
        {
          "duration": 0.0852271875000099,
          "durationTicks": 120,
          "midi": 72,
          "name": "C5",
          "ticks": 201264,
          "time": 142.94303887499998,
          "velocity": 0.30708661417322836
        },
        {
          "duration": 0.0852271875000099,
          "durationTicks": 120,
          "midi": 72,
          "name": "C5",
          "ticks": 201264,
          "time": 142.94303887499998,
          "velocity": 0.30708661417322836
        },
        {
          "duration": 0.0852271875000099,
          "durationTicks": 120,
          "midi": 72,
          "name": "C5",
          "ticks": 201288,
          "time": 142.9600843125,
          "velocity": 0.30708661417322836
        },
        {
          "duration": 0.0852271875000099,
          "durationTicks": 120,
          "midi": 70,
          "name": "A#4",
          "ticks": 201360,
          "time": 143.011220625,
          "velocity": 0.30708661417322836
        },
        {
          "duration": 0.0852271875000099,
          "durationTicks": 120,
          "midi": 70,
          "name": "A#4",
          "ticks": 201360,
          "time": 143.011220625,
          "velocity": 0.30708661417322836
        },
        {
          "duration": 0.0852271875000099,
          "durationTicks": 120,
          "midi": 70,
          "name": "A#4",
          "ticks": 201384,
          "time": 143.0282660625,
          "velocity": 0.30708661417322836
        },
        {
          "duration": 0.0852271875000099,
          "durationTicks": 120,
          "midi": 73,
          "name": "C#5",
          "ticks": 201456,
          "time": 143.079402375,
          "velocity": 0.30708661417322836
        },
        {
          "duration": 0.0852271875000099,
          "durationTicks": 120,
          "midi": 73,
          "name": "C#5",
          "ticks": 201456,
          "time": 143.079402375,
          "velocity": 0.30708661417322836
        },
        {
          "duration": 0.0852271875000099,
          "durationTicks": 120,
          "midi": 73,
          "name": "C#5",
          "ticks": 201480,
          "time": 143.0964478125,
          "velocity": 0.30708661417322836
        },
        {
          "duration": 0.08522718749998148,
          "durationTicks": 120,
          "midi": 72,
          "name": "C5",
          "ticks": 201552,
          "time": 143.147584125,
          "velocity": 0.30708661417322836
        },
        {
          "duration": 0.08522718749998148,
          "durationTicks": 120,
          "midi": 72,
          "name": "C5",
          "ticks": 201552,
          "time": 143.147584125,
          "velocity": 0.30708661417322836
        },
        {
          "duration": 0.08522718749998148,
          "durationTicks": 120,
          "midi": 72,
          "name": "C5",
          "ticks": 201576,
          "time": 143.1646295625,
          "velocity": 0.30708661417322836
        },
        {
          "duration": 0.0852271875000099,
          "durationTicks": 120,
          "midi": 70,
          "name": "A#4",
          "ticks": 201648,
          "time": 143.215765875,
          "velocity": 0.30708661417322836
        },
        {
          "duration": 0.0852271875000099,
          "durationTicks": 120,
          "midi": 70,
          "name": "A#4",
          "ticks": 201648,
          "time": 143.215765875,
          "velocity": 0.30708661417322836
        },
        {
          "duration": 0.0852271875000099,
          "durationTicks": 120,
          "midi": 70,
          "name": "A#4",
          "ticks": 201672,
          "time": 143.2328113125,
          "velocity": 0.30708661417322836
        },
        {
          "duration": 0.0852271875000099,
          "durationTicks": 120,
          "midi": 69,
          "name": "A4",
          "ticks": 201744,
          "time": 143.283947625,
          "velocity": 0.30708661417322836
        },
        {
          "duration": 0.0852271875000099,
          "durationTicks": 120,
          "midi": 69,
          "name": "A4",
          "ticks": 201744,
          "time": 143.283947625,
          "velocity": 0.30708661417322836
        },
        {
          "duration": 0.0852271875000099,
          "durationTicks": 120,
          "midi": 69,
          "name": "A4",
          "ticks": 201768,
          "time": 143.3009930625,
          "velocity": 0.30708661417322836
        },
        {
          "duration": 0.08522718749998148,
          "durationTicks": 120,
          "midi": 72,
          "name": "C5",
          "ticks": 201840,
          "time": 143.352129375,
          "velocity": 0.30708661417322836
        },
        {
          "duration": 0.08522718749998148,
          "durationTicks": 120,
          "midi": 72,
          "name": "C5",
          "ticks": 201840,
          "time": 143.352129375,
          "velocity": 0.30708661417322836
        },
        {
          "duration": 0.08522718749998148,
          "durationTicks": 120,
          "midi": 72,
          "name": "C5",
          "ticks": 201864,
          "time": 143.3691748125,
          "velocity": 0.30708661417322836
        },
        {
          "duration": 0.08522718749998148,
          "durationTicks": 120,
          "midi": 70,
          "name": "A#4",
          "ticks": 201936,
          "time": 143.420311125,
          "velocity": 0.30708661417322836
        },
        {
          "duration": 0.08522718749998148,
          "durationTicks": 120,
          "midi": 70,
          "name": "A#4",
          "ticks": 201936,
          "time": 143.420311125,
          "velocity": 0.30708661417322836
        },
        {
          "duration": 0.0852271875000099,
          "durationTicks": 120,
          "midi": 70,
          "name": "A#4",
          "ticks": 201960,
          "time": 143.43735656249999,
          "velocity": 0.30708661417322836
        },
        {
          "duration": 0.0852271875000099,
          "durationTicks": 120,
          "midi": 65,
          "name": "F4",
          "ticks": 202032,
          "time": 143.488492875,
          "velocity": 0.30708661417322836
        },
        {
          "duration": 0.0852271875000099,
          "durationTicks": 120,
          "midi": 65,
          "name": "F4",
          "ticks": 202032,
          "time": 143.488492875,
          "velocity": 0.30708661417322836
        },
        {
          "duration": 0.0852271875000099,
          "durationTicks": 120,
          "midi": 65,
          "name": "F4",
          "ticks": 202056,
          "time": 143.5055383125,
          "velocity": 0.30708661417322836
        },
        {
          "duration": 0.0852271875000099,
          "durationTicks": 120,
          "midi": 61,
          "name": "C#4",
          "ticks": 202128,
          "time": 143.556674625,
          "velocity": 0.30708661417322836
        },
        {
          "duration": 0.0852271875000099,
          "durationTicks": 120,
          "midi": 61,
          "name": "C#4",
          "ticks": 202128,
          "time": 143.556674625,
          "velocity": 0.30708661417322836
        },
        {
          "duration": 0.0852271875000099,
          "durationTicks": 120,
          "midi": 61,
          "name": "C#4",
          "ticks": 202152,
          "time": 143.5737200625,
          "velocity": 0.30708661417322836
        },
        {
          "duration": 0.08522718749998148,
          "durationTicks": 120,
          "midi": 58,
          "name": "A#3",
          "ticks": 202224,
          "time": 143.624856375,
          "velocity": 0.30708661417322836
        },
        {
          "duration": 0.08522718749998148,
          "durationTicks": 120,
          "midi": 58,
          "name": "A#3",
          "ticks": 202224,
          "time": 143.624856375,
          "velocity": 0.30708661417322836
        },
        {
          "duration": 0.08522718749998148,
          "durationTicks": 120,
          "midi": 58,
          "name": "A#3",
          "ticks": 202248,
          "time": 143.6419018125,
          "velocity": 0.30708661417322836
        },
        {
          "duration": 0.08522718749998148,
          "durationTicks": 120,
          "midi": 90,
          "name": "F#6",
          "ticks": 202608,
          "time": 143.897583375,
          "velocity": 0.30708661417322836
        },
        {
          "duration": 0.08522718749998148,
          "durationTicks": 120,
          "midi": 27,
          "name": "D#1",
          "ticks": 202608,
          "time": 143.897583375,
          "velocity": 0.30708661417322836
        },
        {
          "duration": 0.08522718749998148,
          "durationTicks": 120,
          "midi": 54,
          "name": "F#3",
          "ticks": 202608,
          "time": 143.897583375,
          "velocity": 0.30708661417322836
        },
        {
          "duration": 0.08522718749998148,
          "durationTicks": 120,
          "midi": 39,
          "name": "D#2",
          "ticks": 202608,
          "time": 143.897583375,
          "velocity": 0.30708661417322836
        },
        {
          "duration": 0.08522718749998148,
          "durationTicks": 120,
          "midi": 61,
          "name": "C#4",
          "ticks": 202608,
          "time": 143.897583375,
          "velocity": 0.30708661417322836
        },
        {
          "duration": 0.08522718749998148,
          "durationTicks": 120,
          "midi": 82,
          "name": "A#5",
          "ticks": 202608,
          "time": 143.897583375,
          "velocity": 0.30708661417322836
        },
        {
          "duration": 0.08522718749998148,
          "durationTicks": 120,
          "midi": 70,
          "name": "A#4",
          "ticks": 202608,
          "time": 143.897583375,
          "velocity": 0.30708661417322836
        },
        {
          "duration": 0.08522718749998148,
          "durationTicks": 120,
          "midi": 53,
          "name": "F3",
          "ticks": 202608,
          "time": 143.897583375,
          "velocity": 0.30708661417322836
        },
        {
          "duration": 0.08522718749998148,
          "durationTicks": 120,
          "midi": 85,
          "name": "C#6",
          "ticks": 202608,
          "time": 143.897583375,
          "velocity": 0.30708661417322836
        },
        {
          "duration": 0.08522718749998148,
          "durationTicks": 120,
          "midi": 82,
          "name": "A#5",
          "ticks": 202608,
          "time": 143.897583375,
          "velocity": 0.30708661417322836
        },
        {
          "duration": 0.08522718749998148,
          "durationTicks": 120,
          "midi": 42,
          "name": "F#2",
          "ticks": 202608,
          "time": 143.897583375,
          "velocity": 0.30708661417322836
        },
        {
          "duration": 0.08522718749998148,
          "durationTicks": 120,
          "midi": 66,
          "name": "F#4",
          "ticks": 202608,
          "time": 143.897583375,
          "velocity": 0.30708661417322836
        },
        {
          "duration": 0.08522718749998148,
          "durationTicks": 120,
          "midi": 70,
          "name": "A#4",
          "ticks": 202608,
          "time": 143.897583375,
          "velocity": 0.30708661417322836
        },
        {
          "duration": 0.08522718749998148,
          "durationTicks": 120,
          "midi": 85,
          "name": "C#6",
          "ticks": 202608,
          "time": 143.897583375,
          "velocity": 0.30708661417322836
        },
        {
          "duration": 0.08522718749998148,
          "durationTicks": 120,
          "midi": 54,
          "name": "F#3",
          "ticks": 202608,
          "time": 143.897583375,
          "velocity": 0.30708661417322836
        },
        {
          "duration": 0.08522718749998148,
          "durationTicks": 120,
          "midi": 78,
          "name": "F#5",
          "ticks": 202608,
          "time": 143.897583375,
          "velocity": 0.30708661417322836
        },
        {
          "duration": 0.08522718749998148,
          "durationTicks": 120,
          "midi": 65,
          "name": "F4",
          "ticks": 202608,
          "time": 143.897583375,
          "velocity": 0.30708661417322836
        },
        {
          "duration": 0.08522718749998148,
          "durationTicks": 120,
          "midi": 49,
          "name": "C#3",
          "ticks": 202608,
          "time": 143.897583375,
          "velocity": 0.30708661417322836
        },
        {
          "duration": 0.08522718749998148,
          "durationTicks": 120,
          "midi": 63,
          "name": "D#4",
          "ticks": 202608,
          "time": 143.897583375,
          "velocity": 0.30708661417322836
        },
        {
          "duration": 0.08522718749998148,
          "durationTicks": 120,
          "midi": 51,
          "name": "D#3",
          "ticks": 202608,
          "time": 143.897583375,
          "velocity": 0.30708661417322836
        },
        {
          "duration": 0.08522718749998148,
          "durationTicks": 120,
          "midi": 53,
          "name": "F3",
          "ticks": 202608,
          "time": 143.897583375,
          "velocity": 0.30708661417322836
        },
        {
          "duration": 0.08522718749998148,
          "durationTicks": 120,
          "midi": 73,
          "name": "C#5",
          "ticks": 202608,
          "time": 143.897583375,
          "velocity": 0.30708661417322836
        },
        {
          "duration": 0.08522718749998148,
          "durationTicks": 120,
          "midi": 39,
          "name": "D#2",
          "ticks": 202608,
          "time": 143.897583375,
          "velocity": 0.30708661417322836
        },
        {
          "duration": 0.08522718749998148,
          "durationTicks": 120,
          "midi": 42,
          "name": "F#2",
          "ticks": 202608,
          "time": 143.897583375,
          "velocity": 0.30708661417322836
        },
        {
          "duration": 0.08522718749998148,
          "durationTicks": 120,
          "midi": 78,
          "name": "F#5",
          "ticks": 202608,
          "time": 143.897583375,
          "velocity": 0.30708661417322836
        },
        {
          "duration": 0.08522718749998148,
          "durationTicks": 120,
          "midi": 63,
          "name": "D#4",
          "ticks": 202608,
          "time": 143.897583375,
          "velocity": 0.30708661417322836
        },
        {
          "duration": 0.08522718749998148,
          "durationTicks": 120,
          "midi": 73,
          "name": "C#5",
          "ticks": 202608,
          "time": 143.897583375,
          "velocity": 0.30708661417322836
        },
        {
          "duration": 0.08522718749998148,
          "durationTicks": 120,
          "midi": 51,
          "name": "D#3",
          "ticks": 202608,
          "time": 143.897583375,
          "velocity": 0.30708661417322836
        },
        {
          "duration": 0.08522718749998148,
          "durationTicks": 120,
          "midi": 27,
          "name": "D#1",
          "ticks": 202608,
          "time": 143.897583375,
          "velocity": 0.30708661417322836
        },
        {
          "duration": 0.08522718749998148,
          "durationTicks": 120,
          "midi": 90,
          "name": "F#6",
          "ticks": 202608,
          "time": 143.897583375,
          "velocity": 0.30708661417322836
        },
        {
          "duration": 0.08522718749998148,
          "durationTicks": 120,
          "midi": 66,
          "name": "F#4",
          "ticks": 202608,
          "time": 143.897583375,
          "velocity": 0.30708661417322836
        },
        {
          "duration": 0.08522718749998148,
          "durationTicks": 120,
          "midi": 61,
          "name": "C#4",
          "ticks": 202608,
          "time": 143.897583375,
          "velocity": 0.30708661417322836
        },
        {
          "duration": 0.08522718749998148,
          "durationTicks": 120,
          "midi": 65,
          "name": "F4",
          "ticks": 202608,
          "time": 143.897583375,
          "velocity": 0.30708661417322836
        },
        {
          "duration": 0.08522718749998148,
          "durationTicks": 120,
          "midi": 49,
          "name": "C#3",
          "ticks": 202608,
          "time": 143.897583375,
          "velocity": 0.30708661417322836
        },
        {
          "duration": 0.08522718749998148,
          "durationTicks": 120,
          "midi": 53,
          "name": "F3",
          "ticks": 202632,
          "time": 143.9146288125,
          "velocity": 0.30708661417322836
        },
        {
          "duration": 0.08522718749998148,
          "durationTicks": 120,
          "midi": 65,
          "name": "F4",
          "ticks": 202632,
          "time": 143.9146288125,
          "velocity": 0.30708661417322836
        },
        {
          "duration": 0.08522718749998148,
          "durationTicks": 120,
          "midi": 85,
          "name": "C#6",
          "ticks": 202632,
          "time": 143.9146288125,
          "velocity": 0.30708661417322836
        },
        {
          "duration": 0.08522718749998148,
          "durationTicks": 120,
          "midi": 78,
          "name": "F#5",
          "ticks": 202632,
          "time": 143.9146288125,
          "velocity": 0.30708661417322836
        },
        {
          "duration": 0.08522718749998148,
          "durationTicks": 120,
          "midi": 49,
          "name": "C#3",
          "ticks": 202632,
          "time": 143.9146288125,
          "velocity": 0.30708661417322836
        },
        {
          "duration": 0.08522718749998148,
          "durationTicks": 120,
          "midi": 27,
          "name": "D#1",
          "ticks": 202632,
          "time": 143.9146288125,
          "velocity": 0.30708661417322836
        },
        {
          "duration": 0.08522718749998148,
          "durationTicks": 120,
          "midi": 63,
          "name": "D#4",
          "ticks": 202632,
          "time": 143.9146288125,
          "velocity": 0.30708661417322836
        },
        {
          "duration": 0.08522718749998148,
          "durationTicks": 120,
          "midi": 51,
          "name": "D#3",
          "ticks": 202632,
          "time": 143.9146288125,
          "velocity": 0.30708661417322836
        },
        {
          "duration": 0.08522718749998148,
          "durationTicks": 120,
          "midi": 73,
          "name": "C#5",
          "ticks": 202632,
          "time": 143.9146288125,
          "velocity": 0.30708661417322836
        },
        {
          "duration": 0.08522718749998148,
          "durationTicks": 120,
          "midi": 90,
          "name": "F#6",
          "ticks": 202632,
          "time": 143.9146288125,
          "velocity": 0.30708661417322836
        },
        {
          "duration": 0.08522718749998148,
          "durationTicks": 120,
          "midi": 66,
          "name": "F#4",
          "ticks": 202632,
          "time": 143.9146288125,
          "velocity": 0.30708661417322836
        },
        {
          "duration": 0.08522718749998148,
          "durationTicks": 120,
          "midi": 39,
          "name": "D#2",
          "ticks": 202632,
          "time": 143.9146288125,
          "velocity": 0.30708661417322836
        },
        {
          "duration": 0.08522718749998148,
          "durationTicks": 120,
          "midi": 82,
          "name": "A#5",
          "ticks": 202632,
          "time": 143.9146288125,
          "velocity": 0.30708661417322836
        },
        {
          "duration": 0.08522718749998148,
          "durationTicks": 120,
          "midi": 70,
          "name": "A#4",
          "ticks": 202632,
          "time": 143.9146288125,
          "velocity": 0.30708661417322836
        },
        {
          "duration": 0.08522718749998148,
          "durationTicks": 120,
          "midi": 61,
          "name": "C#4",
          "ticks": 202632,
          "time": 143.9146288125,
          "velocity": 0.30708661417322836
        },
        {
          "duration": 0.08522718749998148,
          "durationTicks": 120,
          "midi": 42,
          "name": "F#2",
          "ticks": 202632,
          "time": 143.9146288125,
          "velocity": 0.30708661417322836
        },
        {
          "duration": 0.08522718749998148,
          "durationTicks": 120,
          "midi": 54,
          "name": "F#3",
          "ticks": 202632,
          "time": 143.9146288125,
          "velocity": 0.30708661417322836
        },
        {
          "duration": 0.0852271875000099,
          "durationTicks": 120,
          "midi": 77,
          "name": "F5",
          "ticks": 202704,
          "time": 143.965765125,
          "velocity": 0.30708661417322836
        },
        {
          "duration": 0.0852271875000099,
          "durationTicks": 120,
          "midi": 65,
          "name": "F4",
          "ticks": 202704,
          "time": 143.965765125,
          "velocity": 0.30708661417322836
        },
        {
          "duration": 0.0852271875000099,
          "durationTicks": 120,
          "midi": 77,
          "name": "F5",
          "ticks": 202704,
          "time": 143.965765125,
          "velocity": 0.30708661417322836
        },
        {
          "duration": 0.0852271875000099,
          "durationTicks": 120,
          "midi": 65,
          "name": "F4",
          "ticks": 202704,
          "time": 143.965765125,
          "velocity": 0.30708661417322836
        },
        {
          "duration": 0.0852271875000099,
          "durationTicks": 120,
          "midi": 53,
          "name": "F3",
          "ticks": 202704,
          "time": 143.965765125,
          "velocity": 0.30708661417322836
        },
        {
          "duration": 0.0852271875000099,
          "durationTicks": 120,
          "midi": 89,
          "name": "F6",
          "ticks": 202704,
          "time": 143.965765125,
          "velocity": 0.30708661417322836
        },
        {
          "duration": 0.0852271875000099,
          "durationTicks": 120,
          "midi": 41,
          "name": "F2",
          "ticks": 202704,
          "time": 143.965765125,
          "velocity": 0.30708661417322836
        },
        {
          "duration": 0.0852271875000099,
          "durationTicks": 120,
          "midi": 89,
          "name": "F6",
          "ticks": 202704,
          "time": 143.965765125,
          "velocity": 0.30708661417322836
        },
        {
          "duration": 0.0852271875000099,
          "durationTicks": 120,
          "midi": 41,
          "name": "F2",
          "ticks": 202704,
          "time": 143.965765125,
          "velocity": 0.30708661417322836
        },
        {
          "duration": 0.0852271875000099,
          "durationTicks": 120,
          "midi": 53,
          "name": "F3",
          "ticks": 202704,
          "time": 143.965765125,
          "velocity": 0.30708661417322836
        },
        {
          "duration": 0.0852271875000099,
          "durationTicks": 120,
          "midi": 89,
          "name": "F6",
          "ticks": 202728,
          "time": 143.9828105625,
          "velocity": 0.30708661417322836
        },
        {
          "duration": 0.0852271875000099,
          "durationTicks": 120,
          "midi": 65,
          "name": "F4",
          "ticks": 202728,
          "time": 143.9828105625,
          "velocity": 0.30708661417322836
        },
        {
          "duration": 0.0852271875000099,
          "durationTicks": 120,
          "midi": 53,
          "name": "F3",
          "ticks": 202728,
          "time": 143.9828105625,
          "velocity": 0.30708661417322836
        },
        {
          "duration": 0.0852271875000099,
          "durationTicks": 120,
          "midi": 41,
          "name": "F2",
          "ticks": 202728,
          "time": 143.9828105625,
          "velocity": 0.30708661417322836
        },
        {
          "duration": 0.0852271875000099,
          "durationTicks": 120,
          "midi": 77,
          "name": "F5",
          "ticks": 202728,
          "time": 143.9828105625,
          "velocity": 0.30708661417322836
        },
        {
          "duration": 0.0852271875000099,
          "durationTicks": 120,
          "midi": 51,
          "name": "D#3",
          "ticks": 202800,
          "time": 144.033946875,
          "velocity": 0.30708661417322836
        },
        {
          "duration": 0.0852271875000099,
          "durationTicks": 120,
          "midi": 75,
          "name": "D#5",
          "ticks": 202800,
          "time": 144.033946875,
          "velocity": 0.30708661417322836
        },
        {
          "duration": 0.0852271875000099,
          "durationTicks": 120,
          "midi": 39,
          "name": "D#2",
          "ticks": 202800,
          "time": 144.033946875,
          "velocity": 0.30708661417322836
        },
        {
          "duration": 0.0852271875000099,
          "durationTicks": 120,
          "midi": 49,
          "name": "C#3",
          "ticks": 202800,
          "time": 144.033946875,
          "velocity": 0.30708661417322836
        },
        {
          "duration": 0.0852271875000099,
          "durationTicks": 120,
          "midi": 49,
          "name": "C#3",
          "ticks": 202800,
          "time": 144.033946875,
          "velocity": 0.30708661417322836
        },
        {
          "duration": 0.0852271875000099,
          "durationTicks": 120,
          "midi": 75,
          "name": "D#5",
          "ticks": 202800,
          "time": 144.033946875,
          "velocity": 0.30708661417322836
        },
        {
          "duration": 0.0852271875000099,
          "durationTicks": 120,
          "midi": 25,
          "name": "C#1",
          "ticks": 202800,
          "time": 144.033946875,
          "velocity": 0.30708661417322836
        },
        {
          "duration": 0.0852271875000099,
          "durationTicks": 120,
          "midi": 25,
          "name": "C#1",
          "ticks": 202800,
          "time": 144.033946875,
          "velocity": 0.30708661417322836
        },
        {
          "duration": 0.0852271875000099,
          "durationTicks": 120,
          "midi": 87,
          "name": "D#6",
          "ticks": 202800,
          "time": 144.033946875,
          "velocity": 0.30708661417322836
        },
        {
          "duration": 0.0852271875000099,
          "durationTicks": 120,
          "midi": 87,
          "name": "D#6",
          "ticks": 202800,
          "time": 144.033946875,
          "velocity": 0.30708661417322836
        },
        {
          "duration": 0.0852271875000099,
          "durationTicks": 120,
          "midi": 51,
          "name": "D#3",
          "ticks": 202800,
          "time": 144.033946875,
          "velocity": 0.30708661417322836
        },
        {
          "duration": 0.0852271875000099,
          "durationTicks": 120,
          "midi": 37,
          "name": "C#2",
          "ticks": 202800,
          "time": 144.033946875,
          "velocity": 0.30708661417322836
        },
        {
          "duration": 0.0852271875000099,
          "durationTicks": 120,
          "midi": 63,
          "name": "D#4",
          "ticks": 202800,
          "time": 144.033946875,
          "velocity": 0.30708661417322836
        },
        {
          "duration": 0.0852271875000099,
          "durationTicks": 120,
          "midi": 39,
          "name": "D#2",
          "ticks": 202800,
          "time": 144.033946875,
          "velocity": 0.30708661417322836
        },
        {
          "duration": 0.0852271875000099,
          "durationTicks": 120,
          "midi": 63,
          "name": "D#4",
          "ticks": 202800,
          "time": 144.033946875,
          "velocity": 0.30708661417322836
        },
        {
          "duration": 0.0852271875000099,
          "durationTicks": 120,
          "midi": 37,
          "name": "C#2",
          "ticks": 202800,
          "time": 144.033946875,
          "velocity": 0.30708661417322836
        },
        {
          "duration": 0.0852271875000099,
          "durationTicks": 120,
          "midi": 75,
          "name": "D#5",
          "ticks": 202824,
          "time": 144.0509923125,
          "velocity": 0.30708661417322836
        },
        {
          "duration": 0.0852271875000099,
          "durationTicks": 120,
          "midi": 51,
          "name": "D#3",
          "ticks": 202824,
          "time": 144.0509923125,
          "velocity": 0.30708661417322836
        },
        {
          "duration": 0.0852271875000099,
          "durationTicks": 120,
          "midi": 37,
          "name": "C#2",
          "ticks": 202824,
          "time": 144.0509923125,
          "velocity": 0.30708661417322836
        },
        {
          "duration": 0.0852271875000099,
          "durationTicks": 120,
          "midi": 63,
          "name": "D#4",
          "ticks": 202824,
          "time": 144.0509923125,
          "velocity": 0.30708661417322836
        },
        {
          "duration": 0.0852271875000099,
          "durationTicks": 120,
          "midi": 39,
          "name": "D#2",
          "ticks": 202824,
          "time": 144.0509923125,
          "velocity": 0.30708661417322836
        },
        {
          "duration": 0.0852271875000099,
          "durationTicks": 120,
          "midi": 25,
          "name": "C#1",
          "ticks": 202824,
          "time": 144.0509923125,
          "velocity": 0.30708661417322836
        },
        {
          "duration": 0.0852271875000099,
          "durationTicks": 120,
          "midi": 87,
          "name": "D#6",
          "ticks": 202824,
          "time": 144.0509923125,
          "velocity": 0.30708661417322836
        },
        {
          "duration": 0.0852271875000099,
          "durationTicks": 120,
          "midi": 49,
          "name": "C#3",
          "ticks": 202824,
          "time": 144.0509923125,
          "velocity": 0.30708661417322836
        },
        {
          "duration": 0.08522718749998148,
          "durationTicks": 120,
          "midi": 37,
          "name": "C#2",
          "ticks": 202896,
          "time": 144.102128625,
          "velocity": 0.30708661417322836
        },
        {
          "duration": 0.08522718749998148,
          "durationTicks": 120,
          "midi": 61,
          "name": "C#4",
          "ticks": 202896,
          "time": 144.102128625,
          "velocity": 0.30708661417322836
        },
        {
          "duration": 0.08522718749998148,
          "durationTicks": 120,
          "midi": 73,
          "name": "C#5",
          "ticks": 202896,
          "time": 144.102128625,
          "velocity": 0.30708661417322836
        },
        {
          "duration": 0.08522718749998148,
          "durationTicks": 120,
          "midi": 73,
          "name": "C#5",
          "ticks": 202896,
          "time": 144.102128625,
          "velocity": 0.30708661417322836
        },
        {
          "duration": 0.08522718749998148,
          "durationTicks": 120,
          "midi": 37,
          "name": "C#2",
          "ticks": 202896,
          "time": 144.102128625,
          "velocity": 0.30708661417322836
        },
        {
          "duration": 0.08522718749998148,
          "durationTicks": 120,
          "midi": 85,
          "name": "C#6",
          "ticks": 202896,
          "time": 144.102128625,
          "velocity": 0.30708661417322836
        },
        {
          "duration": 0.08522718749998148,
          "durationTicks": 120,
          "midi": 61,
          "name": "C#4",
          "ticks": 202896,
          "time": 144.102128625,
          "velocity": 0.30708661417322836
        },
        {
          "duration": 0.08522718749998148,
          "durationTicks": 120,
          "midi": 85,
          "name": "C#6",
          "ticks": 202896,
          "time": 144.102128625,
          "velocity": 0.30708661417322836
        },
        {
          "duration": 0.08522718749998148,
          "durationTicks": 120,
          "midi": 49,
          "name": "C#3",
          "ticks": 202896,
          "time": 144.102128625,
          "velocity": 0.30708661417322836
        },
        {
          "duration": 0.08522718749998148,
          "durationTicks": 120,
          "midi": 49,
          "name": "C#3",
          "ticks": 202896,
          "time": 144.102128625,
          "velocity": 0.30708661417322836
        },
        {
          "duration": 0.08522718749998148,
          "durationTicks": 120,
          "midi": 61,
          "name": "C#4",
          "ticks": 202920,
          "time": 144.1191740625,
          "velocity": 0.30708661417322836
        },
        {
          "duration": 0.08522718749998148,
          "durationTicks": 120,
          "midi": 73,
          "name": "C#5",
          "ticks": 202920,
          "time": 144.1191740625,
          "velocity": 0.30708661417322836
        },
        {
          "duration": 0.08522718749998148,
          "durationTicks": 120,
          "midi": 85,
          "name": "C#6",
          "ticks": 202920,
          "time": 144.1191740625,
          "velocity": 0.30708661417322836
        },
        {
          "duration": 0.08522718749998148,
          "durationTicks": 120,
          "midi": 49,
          "name": "C#3",
          "ticks": 202920,
          "time": 144.1191740625,
          "velocity": 0.30708661417322836
        },
        {
          "duration": 0.08522718749998148,
          "durationTicks": 120,
          "midi": 37,
          "name": "C#2",
          "ticks": 202920,
          "time": 144.1191740625,
          "velocity": 0.30708661417322836
        },
        {
          "duration": 0.0852271875000099,
          "durationTicks": 120,
          "midi": 48,
          "name": "C3",
          "ticks": 202992,
          "time": 144.17031037499999,
          "velocity": 0.30708661417322836
        },
        {
          "duration": 0.0852271875000099,
          "durationTicks": 120,
          "midi": 36,
          "name": "C2",
          "ticks": 202992,
          "time": 144.17031037499999,
          "velocity": 0.30708661417322836
        },
        {
          "duration": 0.0852271875000099,
          "durationTicks": 120,
          "midi": 24,
          "name": "C1",
          "ticks": 202992,
          "time": 144.17031037499999,
          "velocity": 0.30708661417322836
        },
        {
          "duration": 0.0852271875000099,
          "durationTicks": 120,
          "midi": 84,
          "name": "C6",
          "ticks": 202992,
          "time": 144.17031037499999,
          "velocity": 0.30708661417322836
        },
        {
          "duration": 0.0852271875000099,
          "durationTicks": 120,
          "midi": 72,
          "name": "C5",
          "ticks": 202992,
          "time": 144.17031037499999,
          "velocity": 0.30708661417322836
        },
        {
          "duration": 0.0852271875000099,
          "durationTicks": 120,
          "midi": 84,
          "name": "C6",
          "ticks": 202992,
          "time": 144.17031037499999,
          "velocity": 0.30708661417322836
        },
        {
          "duration": 0.0852271875000099,
          "durationTicks": 120,
          "midi": 72,
          "name": "C5",
          "ticks": 202992,
          "time": 144.17031037499999,
          "velocity": 0.30708661417322836
        },
        {
          "duration": 0.0852271875000099,
          "durationTicks": 120,
          "midi": 48,
          "name": "C3",
          "ticks": 202992,
          "time": 144.17031037499999,
          "velocity": 0.30708661417322836
        },
        {
          "duration": 0.0852271875000099,
          "durationTicks": 120,
          "midi": 24,
          "name": "C1",
          "ticks": 202992,
          "time": 144.17031037499999,
          "velocity": 0.30708661417322836
        },
        {
          "duration": 0.0852271875000099,
          "durationTicks": 120,
          "midi": 60,
          "name": "C4",
          "ticks": 202992,
          "time": 144.17031037499999,
          "velocity": 0.30708661417322836
        },
        {
          "duration": 0.0852271875000099,
          "durationTicks": 120,
          "midi": 36,
          "name": "C2",
          "ticks": 202992,
          "time": 144.17031037499999,
          "velocity": 0.30708661417322836
        },
        {
          "duration": 0.0852271875000099,
          "durationTicks": 120,
          "midi": 60,
          "name": "C4",
          "ticks": 202992,
          "time": 144.17031037499999,
          "velocity": 0.30708661417322836
        },
        {
          "duration": 0.0852271875000099,
          "durationTicks": 120,
          "midi": 72,
          "name": "C5",
          "ticks": 203016,
          "time": 144.1873558125,
          "velocity": 0.30708661417322836
        },
        {
          "duration": 0.0852271875000099,
          "durationTicks": 120,
          "midi": 36,
          "name": "C2",
          "ticks": 203016,
          "time": 144.1873558125,
          "velocity": 0.30708661417322836
        },
        {
          "duration": 0.0852271875000099,
          "durationTicks": 120,
          "midi": 48,
          "name": "C3",
          "ticks": 203016,
          "time": 144.1873558125,
          "velocity": 0.30708661417322836
        },
        {
          "duration": 0.0852271875000099,
          "durationTicks": 120,
          "midi": 24,
          "name": "C1",
          "ticks": 203016,
          "time": 144.1873558125,
          "velocity": 0.30708661417322836
        },
        {
          "duration": 0.0852271875000099,
          "durationTicks": 120,
          "midi": 60,
          "name": "C4",
          "ticks": 203016,
          "time": 144.1873558125,
          "velocity": 0.30708661417322836
        },
        {
          "duration": 0.0852271875000099,
          "durationTicks": 120,
          "midi": 84,
          "name": "C6",
          "ticks": 203016,
          "time": 144.1873558125,
          "velocity": 0.30708661417322836
        },
        {
          "duration": 0.0852271875000099,
          "durationTicks": 120,
          "midi": 34,
          "name": "A#1",
          "ticks": 203088,
          "time": 144.238492125,
          "velocity": 0.30708661417322836
        },
        {
          "duration": 0.0852271875000099,
          "durationTicks": 120,
          "midi": 82,
          "name": "A#5",
          "ticks": 203088,
          "time": 144.238492125,
          "velocity": 0.30708661417322836
        },
        {
          "duration": 0.0852271875000099,
          "durationTicks": 120,
          "midi": 34,
          "name": "A#1",
          "ticks": 203088,
          "time": 144.238492125,
          "velocity": 0.30708661417322836
        },
        {
          "duration": 0.0852271875000099,
          "durationTicks": 120,
          "midi": 46,
          "name": "A#2",
          "ticks": 203088,
          "time": 144.238492125,
          "velocity": 0.30708661417322836
        },
        {
          "duration": 0.0852271875000099,
          "durationTicks": 120,
          "midi": 70,
          "name": "A#4",
          "ticks": 203088,
          "time": 144.238492125,
          "velocity": 0.30708661417322836
        },
        {
          "duration": 0.0852271875000099,
          "durationTicks": 120,
          "midi": 70,
          "name": "A#4",
          "ticks": 203088,
          "time": 144.238492125,
          "velocity": 0.30708661417322836
        },
        {
          "duration": 0.0852271875000099,
          "durationTicks": 120,
          "midi": 58,
          "name": "A#3",
          "ticks": 203088,
          "time": 144.238492125,
          "velocity": 0.30708661417322836
        },
        {
          "duration": 0.0852271875000099,
          "durationTicks": 120,
          "midi": 82,
          "name": "A#5",
          "ticks": 203088,
          "time": 144.238492125,
          "velocity": 0.30708661417322836
        },
        {
          "duration": 0.0852271875000099,
          "durationTicks": 120,
          "midi": 46,
          "name": "A#2",
          "ticks": 203088,
          "time": 144.238492125,
          "velocity": 0.30708661417322836
        },
        {
          "duration": 0.0852271875000099,
          "durationTicks": 120,
          "midi": 58,
          "name": "A#3",
          "ticks": 203088,
          "time": 144.238492125,
          "velocity": 0.30708661417322836
        },
        {
          "duration": 0.0852271875000099,
          "durationTicks": 120,
          "midi": 82,
          "name": "A#5",
          "ticks": 203112,
          "time": 144.2555375625,
          "velocity": 0.30708661417322836
        },
        {
          "duration": 0.0852271875000099,
          "durationTicks": 120,
          "midi": 70,
          "name": "A#4",
          "ticks": 203112,
          "time": 144.2555375625,
          "velocity": 0.30708661417322836
        },
        {
          "duration": 0.0852271875000099,
          "durationTicks": 120,
          "midi": 34,
          "name": "A#1",
          "ticks": 203112,
          "time": 144.2555375625,
          "velocity": 0.30708661417322836
        },
        {
          "duration": 0.0852271875000099,
          "durationTicks": 120,
          "midi": 46,
          "name": "A#2",
          "ticks": 203112,
          "time": 144.2555375625,
          "velocity": 0.30708661417322836
        },
        {
          "duration": 0.0852271875000099,
          "durationTicks": 120,
          "midi": 58,
          "name": "A#3",
          "ticks": 203112,
          "time": 144.2555375625,
          "velocity": 0.30708661417322836
        },
        {
          "duration": 0.0852271875000099,
          "durationTicks": 120,
          "midi": 69,
          "name": "A4",
          "ticks": 203184,
          "time": 144.306673875,
          "velocity": 0.30708661417322836
        },
        {
          "duration": 0.0852271875000099,
          "durationTicks": 120,
          "midi": 45,
          "name": "A2",
          "ticks": 203184,
          "time": 144.306673875,
          "velocity": 0.30708661417322836
        },
        {
          "duration": 0.0852271875000099,
          "durationTicks": 120,
          "midi": 69,
          "name": "A4",
          "ticks": 203184,
          "time": 144.306673875,
          "velocity": 0.30708661417322836
        },
        {
          "duration": 0.0852271875000099,
          "durationTicks": 120,
          "midi": 33,
          "name": "A1",
          "ticks": 203184,
          "time": 144.306673875,
          "velocity": 0.30708661417322836
        },
        {
          "duration": 0.0852271875000099,
          "durationTicks": 120,
          "midi": 81,
          "name": "A5",
          "ticks": 203184,
          "time": 144.306673875,
          "velocity": 0.30708661417322836
        },
        {
          "duration": 0.0852271875000099,
          "durationTicks": 120,
          "midi": 45,
          "name": "A2",
          "ticks": 203184,
          "time": 144.306673875,
          "velocity": 0.30708661417322836
        },
        {
          "duration": 0.0852271875000099,
          "durationTicks": 120,
          "midi": 57,
          "name": "A3",
          "ticks": 203184,
          "time": 144.306673875,
          "velocity": 0.30708661417322836
        },
        {
          "duration": 0.0852271875000099,
          "durationTicks": 120,
          "midi": 57,
          "name": "A3",
          "ticks": 203184,
          "time": 144.306673875,
          "velocity": 0.30708661417322836
        },
        {
          "duration": 0.0852271875000099,
          "durationTicks": 120,
          "midi": 81,
          "name": "A5",
          "ticks": 203184,
          "time": 144.306673875,
          "velocity": 0.30708661417322836
        },
        {
          "duration": 0.0852271875000099,
          "durationTicks": 120,
          "midi": 33,
          "name": "A1",
          "ticks": 203184,
          "time": 144.306673875,
          "velocity": 0.30708661417322836
        },
        {
          "duration": 0.08522718749998148,
          "durationTicks": 120,
          "midi": 33,
          "name": "A1",
          "ticks": 203208,
          "time": 144.3237193125,
          "velocity": 0.30708661417322836
        },
        {
          "duration": 0.08522718749998148,
          "durationTicks": 120,
          "midi": 81,
          "name": "A5",
          "ticks": 203208,
          "time": 144.3237193125,
          "velocity": 0.30708661417322836
        },
        {
          "duration": 0.08522718749998148,
          "durationTicks": 120,
          "midi": 45,
          "name": "A2",
          "ticks": 203208,
          "time": 144.3237193125,
          "velocity": 0.30708661417322836
        },
        {
          "duration": 0.08522718749998148,
          "durationTicks": 120,
          "midi": 69,
          "name": "A4",
          "ticks": 203208,
          "time": 144.3237193125,
          "velocity": 0.30708661417322836
        },
        {
          "duration": 0.08522718749998148,
          "durationTicks": 120,
          "midi": 57,
          "name": "A3",
          "ticks": 203208,
          "time": 144.3237193125,
          "velocity": 0.30708661417322836
        },
        {
          "duration": 0.08522718749998148,
          "durationTicks": 120,
          "midi": 84,
          "name": "C6",
          "ticks": 203280,
          "time": 144.374855625,
          "velocity": 0.30708661417322836
        },
        {
          "duration": 0.08522718749998148,
          "durationTicks": 120,
          "midi": 72,
          "name": "C5",
          "ticks": 203280,
          "time": 144.374855625,
          "velocity": 0.30708661417322836
        },
        {
          "duration": 0.08522718749998148,
          "durationTicks": 120,
          "midi": 84,
          "name": "C6",
          "ticks": 203280,
          "time": 144.374855625,
          "velocity": 0.30708661417322836
        },
        {
          "duration": 0.08522718749998148,
          "durationTicks": 120,
          "midi": 60,
          "name": "C4",
          "ticks": 203280,
          "time": 144.374855625,
          "velocity": 0.30708661417322836
        },
        {
          "duration": 0.08522718749998148,
          "durationTicks": 120,
          "midi": 24,
          "name": "C1",
          "ticks": 203280,
          "time": 144.374855625,
          "velocity": 0.30708661417322836
        },
        {
          "duration": 0.08522718749998148,
          "durationTicks": 120,
          "midi": 60,
          "name": "C4",
          "ticks": 203280,
          "time": 144.374855625,
          "velocity": 0.30708661417322836
        },
        {
          "duration": 0.08522718749998148,
          "durationTicks": 120,
          "midi": 72,
          "name": "C5",
          "ticks": 203280,
          "time": 144.374855625,
          "velocity": 0.30708661417322836
        },
        {
          "duration": 0.08522718749998148,
          "durationTicks": 120,
          "midi": 48,
          "name": "C3",
          "ticks": 203280,
          "time": 144.374855625,
          "velocity": 0.30708661417322836
        },
        {
          "duration": 0.08522718749998148,
          "durationTicks": 120,
          "midi": 36,
          "name": "C2",
          "ticks": 203280,
          "time": 144.374855625,
          "velocity": 0.30708661417322836
        },
        {
          "duration": 0.08522718749998148,
          "durationTicks": 120,
          "midi": 24,
          "name": "C1",
          "ticks": 203280,
          "time": 144.374855625,
          "velocity": 0.30708661417322836
        },
        {
          "duration": 0.08522718749998148,
          "durationTicks": 120,
          "midi": 36,
          "name": "C2",
          "ticks": 203280,
          "time": 144.374855625,
          "velocity": 0.30708661417322836
        },
        {
          "duration": 0.08522718749998148,
          "durationTicks": 120,
          "midi": 48,
          "name": "C3",
          "ticks": 203280,
          "time": 144.374855625,
          "velocity": 0.30708661417322836
        },
        {
          "duration": 0.08522718749998148,
          "durationTicks": 120,
          "midi": 48,
          "name": "C3",
          "ticks": 203304,
          "time": 144.3919010625,
          "velocity": 0.30708661417322836
        },
        {
          "duration": 0.08522718749998148,
          "durationTicks": 120,
          "midi": 84,
          "name": "C6",
          "ticks": 203304,
          "time": 144.3919010625,
          "velocity": 0.30708661417322836
        },
        {
          "duration": 0.08522718749998148,
          "durationTicks": 120,
          "midi": 60,
          "name": "C4",
          "ticks": 203304,
          "time": 144.3919010625,
          "velocity": 0.30708661417322836
        },
        {
          "duration": 0.08522718749998148,
          "durationTicks": 120,
          "midi": 36,
          "name": "C2",
          "ticks": 203304,
          "time": 144.3919010625,
          "velocity": 0.30708661417322836
        },
        {
          "duration": 0.08522718749998148,
          "durationTicks": 120,
          "midi": 24,
          "name": "C1",
          "ticks": 203304,
          "time": 144.3919010625,
          "velocity": 0.30708661417322836
        },
        {
          "duration": 0.08522718749998148,
          "durationTicks": 120,
          "midi": 72,
          "name": "C5",
          "ticks": 203304,
          "time": 144.3919010625,
          "velocity": 0.30708661417322836
        },
        {
          "duration": 0.28977243750000525,
          "durationTicks": 408,
          "midi": 70,
          "name": "A#4",
          "ticks": 203376,
          "time": 144.443037375,
          "velocity": 0.30708661417322836
        },
        {
          "duration": 0.28977243750000525,
          "durationTicks": 408,
          "midi": 82,
          "name": "A#5",
          "ticks": 203376,
          "time": 144.443037375,
          "velocity": 0.30708661417322836
        },
        {
          "duration": 0.28977243750000525,
          "durationTicks": 408,
          "midi": 37,
          "name": "C#2",
          "ticks": 203376,
          "time": 144.443037375,
          "velocity": 0.30708661417322836
        },
        {
          "duration": 0.28977243750000525,
          "durationTicks": 408,
          "midi": 77,
          "name": "F5",
          "ticks": 203376,
          "time": 144.443037375,
          "velocity": 0.30708661417322836
        },
        {
          "duration": 0.28977243750000525,
          "durationTicks": 408,
          "midi": 61,
          "name": "C#4",
          "ticks": 203376,
          "time": 144.443037375,
          "velocity": 0.30708661417322836
        },
        {
          "duration": 0.28977243750000525,
          "durationTicks": 408,
          "midi": 53,
          "name": "F3",
          "ticks": 203376,
          "time": 144.443037375,
          "velocity": 0.30708661417322836
        },
        {
          "duration": 0.28977243750000525,
          "durationTicks": 408,
          "midi": 58,
          "name": "A#3",
          "ticks": 203376,
          "time": 144.443037375,
          "velocity": 0.30708661417322836
        },
        {
          "duration": 0.28977243750000525,
          "durationTicks": 408,
          "midi": 70,
          "name": "A#4",
          "ticks": 203376,
          "time": 144.443037375,
          "velocity": 0.30708661417322836
        },
        {
          "duration": 0.28977243750000525,
          "durationTicks": 408,
          "midi": 41,
          "name": "F2",
          "ticks": 203376,
          "time": 144.443037375,
          "velocity": 0.30708661417322836
        },
        {
          "duration": 0.28977243750000525,
          "durationTicks": 408,
          "midi": 29,
          "name": "F1",
          "ticks": 203376,
          "time": 144.443037375,
          "velocity": 0.30708661417322836
        },
        {
          "duration": 0.28977243750000525,
          "durationTicks": 408,
          "midi": 82,
          "name": "A#5",
          "ticks": 203376,
          "time": 144.443037375,
          "velocity": 0.30708661417322836
        },
        {
          "duration": 0.28977243750000525,
          "durationTicks": 408,
          "midi": 34,
          "name": "A#1",
          "ticks": 203376,
          "time": 144.443037375,
          "velocity": 0.30708661417322836
        },
        {
          "duration": 0.28977243750000525,
          "durationTicks": 408,
          "midi": 46,
          "name": "A#2",
          "ticks": 203376,
          "time": 144.443037375,
          "velocity": 0.30708661417322836
        },
        {
          "duration": 0.28977243750000525,
          "durationTicks": 408,
          "midi": 61,
          "name": "C#4",
          "ticks": 203376,
          "time": 144.443037375,
          "velocity": 0.30708661417322836
        },
        {
          "duration": 0.28977243750000525,
          "durationTicks": 408,
          "midi": 46,
          "name": "A#2",
          "ticks": 203376,
          "time": 144.443037375,
          "velocity": 0.30708661417322836
        },
        {
          "duration": 0.28977243750000525,
          "durationTicks": 408,
          "midi": 29,
          "name": "F1",
          "ticks": 203376,
          "time": 144.443037375,
          "velocity": 0.30708661417322836
        },
        {
          "duration": 0.28977243750000525,
          "durationTicks": 408,
          "midi": 25,
          "name": "C#1",
          "ticks": 203376,
          "time": 144.443037375,
          "velocity": 0.30708661417322836
        },
        {
          "duration": 0.28977243750000525,
          "durationTicks": 408,
          "midi": 37,
          "name": "C#2",
          "ticks": 203376,
          "time": 144.443037375,
          "velocity": 0.30708661417322836
        },
        {
          "duration": 0.28977243750000525,
          "durationTicks": 408,
          "midi": 77,
          "name": "F5",
          "ticks": 203376,
          "time": 144.443037375,
          "velocity": 0.30708661417322836
        },
        {
          "duration": 0.28977243750000525,
          "durationTicks": 408,
          "midi": 34,
          "name": "A#1",
          "ticks": 203376,
          "time": 144.443037375,
          "velocity": 0.30708661417322836
        },
        {
          "duration": 0.28977243750000525,
          "durationTicks": 408,
          "midi": 73,
          "name": "C#5",
          "ticks": 203376,
          "time": 144.443037375,
          "velocity": 0.30708661417322836
        },
        {
          "duration": 0.28977243750000525,
          "durationTicks": 408,
          "midi": 58,
          "name": "A#3",
          "ticks": 203376,
          "time": 144.443037375,
          "velocity": 0.30708661417322836
        },
        {
          "duration": 0.28977243750000525,
          "durationTicks": 408,
          "midi": 41,
          "name": "F2",
          "ticks": 203376,
          "time": 144.443037375,
          "velocity": 0.30708661417322836
        },
        {
          "duration": 0.28977243750000525,
          "durationTicks": 408,
          "midi": 49,
          "name": "C#3",
          "ticks": 203376,
          "time": 144.443037375,
          "velocity": 0.30708661417322836
        },
        {
          "duration": 0.28977243750000525,
          "durationTicks": 408,
          "midi": 53,
          "name": "F3",
          "ticks": 203376,
          "time": 144.443037375,
          "velocity": 0.30708661417322836
        },
        {
          "duration": 0.28977243750000525,
          "durationTicks": 408,
          "midi": 73,
          "name": "C#5",
          "ticks": 203376,
          "time": 144.443037375,
          "velocity": 0.30708661417322836
        },
        {
          "duration": 0.28977243750000525,
          "durationTicks": 408,
          "midi": 65,
          "name": "F4",
          "ticks": 203376,
          "time": 144.443037375,
          "velocity": 0.30708661417322836
        },
        {
          "duration": 0.28977243750000525,
          "durationTicks": 408,
          "midi": 49,
          "name": "C#3",
          "ticks": 203376,
          "time": 144.443037375,
          "velocity": 0.30708661417322836
        },
        {
          "duration": 0.28977243750000525,
          "durationTicks": 408,
          "midi": 65,
          "name": "F4",
          "ticks": 203376,
          "time": 144.443037375,
          "velocity": 0.30708661417322836
        },
        {
          "duration": 0.28977243750000525,
          "durationTicks": 408,
          "midi": 25,
          "name": "C#1",
          "ticks": 203376,
          "time": 144.443037375,
          "velocity": 0.30708661417322836
        },
        {
          "duration": 0.28977243750000525,
          "durationTicks": 408,
          "midi": 70,
          "name": "A#4",
          "ticks": 203400,
          "time": 144.4600828125,
          "velocity": 0.30708661417322836
        },
        {
          "duration": 0.28977243750000525,
          "durationTicks": 408,
          "midi": 29,
          "name": "F1",
          "ticks": 203400,
          "time": 144.4600828125,
          "velocity": 0.30708661417322836
        },
        {
          "duration": 0.28977243750000525,
          "durationTicks": 408,
          "midi": 82,
          "name": "A#5",
          "ticks": 203400,
          "time": 144.4600828125,
          "velocity": 0.30708661417322836
        },
        {
          "duration": 0.28977243750000525,
          "durationTicks": 408,
          "midi": 41,
          "name": "F2",
          "ticks": 203400,
          "time": 144.4600828125,
          "velocity": 0.30708661417322836
        },
        {
          "duration": 0.28977243750000525,
          "durationTicks": 408,
          "midi": 65,
          "name": "F4",
          "ticks": 203400,
          "time": 144.4600828125,
          "velocity": 0.30708661417322836
        },
        {
          "duration": 0.28977243750000525,
          "durationTicks": 408,
          "midi": 25,
          "name": "C#1",
          "ticks": 203400,
          "time": 144.4600828125,
          "velocity": 0.30708661417322836
        },
        {
          "duration": 0.28977243750000525,
          "durationTicks": 408,
          "midi": 77,
          "name": "F5",
          "ticks": 203400,
          "time": 144.4600828125,
          "velocity": 0.30708661417322836
        },
        {
          "duration": 0.28977243750000525,
          "durationTicks": 408,
          "midi": 46,
          "name": "A#2",
          "ticks": 203400,
          "time": 144.4600828125,
          "velocity": 0.30708661417322836
        },
        {
          "duration": 0.28977243750000525,
          "durationTicks": 408,
          "midi": 37,
          "name": "C#2",
          "ticks": 203400,
          "time": 144.4600828125,
          "velocity": 0.30708661417322836
        },
        {
          "duration": 0.28977243750000525,
          "durationTicks": 408,
          "midi": 73,
          "name": "C#5",
          "ticks": 203400,
          "time": 144.4600828125,
          "velocity": 0.30708661417322836
        },
        {
          "duration": 0.28977243750000525,
          "durationTicks": 408,
          "midi": 49,
          "name": "C#3",
          "ticks": 203400,
          "time": 144.4600828125,
          "velocity": 0.30708661417322836
        },
        {
          "duration": 0.28977243750000525,
          "durationTicks": 408,
          "midi": 34,
          "name": "A#1",
          "ticks": 203400,
          "time": 144.4600828125,
          "velocity": 0.30708661417322836
        },
        {
          "duration": 0.28977243750000525,
          "durationTicks": 408,
          "midi": 61,
          "name": "C#4",
          "ticks": 203400,
          "time": 144.4600828125,
          "velocity": 0.30708661417322836
        },
        {
          "duration": 0.28977243750000525,
          "durationTicks": 408,
          "midi": 53,
          "name": "F3",
          "ticks": 203400,
          "time": 144.4600828125,
          "velocity": 0.30708661417322836
        },
        {
          "duration": 0.28977243750000525,
          "durationTicks": 408,
          "midi": 58,
          "name": "A#3",
          "ticks": 203400,
          "time": 144.4600828125,
          "velocity": 0.30708661417322836
        },
        {
          "duration": 2.1988614374999997,
          "durationTicks": 3096,
          "midi": 84,
          "name": "C6",
          "ticks": 203760,
          "time": 144.715764375,
          "velocity": 0.30708661417322836
        },
        {
          "duration": 2.1988614374999997,
          "durationTicks": 3096,
          "midi": 46,
          "name": "A#2",
          "ticks": 203760,
          "time": 144.715764375,
          "velocity": 0.30708661417322836
        },
        {
          "duration": 2.1988614374999997,
          "durationTicks": 3096,
          "midi": 35,
          "name": "B1",
          "ticks": 203760,
          "time": 144.715764375,
          "velocity": 0.30708661417322836
        },
        {
          "duration": 2.1988614374999997,
          "durationTicks": 3096,
          "midi": 94,
          "name": "A#6",
          "ticks": 203760,
          "time": 144.715764375,
          "velocity": 0.30708661417322836
        },
        {
          "duration": 2.1988614374999997,
          "durationTicks": 3096,
          "midi": 89,
          "name": "F6",
          "ticks": 203760,
          "time": 144.715764375,
          "velocity": 0.30708661417322836
        },
        {
          "duration": 2.1988614374999997,
          "durationTicks": 3096,
          "midi": 52,
          "name": "E3",
          "ticks": 203760,
          "time": 144.715764375,
          "velocity": 0.30708661417322836
        },
        {
          "duration": 2.1988614374999997,
          "durationTicks": 3096,
          "midi": 28,
          "name": "E1",
          "ticks": 203760,
          "time": 144.715764375,
          "velocity": 0.30708661417322836
        },
        {
          "duration": 2.1988614374999997,
          "durationTicks": 3096,
          "midi": 38,
          "name": "D2",
          "ticks": 203760,
          "time": 144.715764375,
          "velocity": 0.30708661417322836
        },
        {
          "duration": 2.1988614374999997,
          "durationTicks": 3096,
          "midi": 56,
          "name": "G#3",
          "ticks": 203760,
          "time": 144.715764375,
          "velocity": 0.30708661417322836
        },
        {
          "duration": 2.1988614374999997,
          "durationTicks": 3096,
          "midi": 35,
          "name": "B1",
          "ticks": 203760,
          "time": 144.715764375,
          "velocity": 0.30708661417322836
        },
        {
          "duration": 2.1988614374999997,
          "durationTicks": 3096,
          "midi": 34,
          "name": "A#1",
          "ticks": 203760,
          "time": 144.715764375,
          "velocity": 0.30708661417322836
        },
        {
          "duration": 2.1988614374999997,
          "durationTicks": 3096,
          "midi": 71,
          "name": "B4",
          "ticks": 203760,
          "time": 144.715764375,
          "velocity": 0.30708661417322836
        },
        {
          "duration": 2.1988614374999997,
          "durationTicks": 3096,
          "midi": 34,
          "name": "A#1",
          "ticks": 203760,
          "time": 144.715764375,
          "velocity": 0.30708661417322836
        },
        {
          "duration": 2.1988614374999997,
          "durationTicks": 3096,
          "midi": 25,
          "name": "C#1",
          "ticks": 203760,
          "time": 144.715764375,
          "velocity": 0.30708661417322836
        },
        {
          "duration": 2.1988614374999997,
          "durationTicks": 3096,
          "midi": 72,
          "name": "C5",
          "ticks": 203760,
          "time": 144.715764375,
          "velocity": 0.30708661417322836
        },
        {
          "duration": 2.1988614374999997,
          "durationTicks": 3096,
          "midi": 41,
          "name": "F2",
          "ticks": 203760,
          "time": 144.715764375,
          "velocity": 0.30708661417322836
        },
        {
          "duration": 2.1988614374999997,
          "durationTicks": 3096,
          "midi": 62,
          "name": "D4",
          "ticks": 203760,
          "time": 144.715764375,
          "velocity": 0.30708661417322836
        },
        {
          "duration": 2.1988614374999997,
          "durationTicks": 3096,
          "midi": 30,
          "name": "F#1",
          "ticks": 203760,
          "time": 144.715764375,
          "velocity": 0.30708661417322836
        },
        {
          "duration": 2.1988614374999997,
          "durationTicks": 3096,
          "midi": 27,
          "name": "D#1",
          "ticks": 203760,
          "time": 144.715764375,
          "velocity": 0.30708661417322836
        },
        {
          "duration": 2.1988614374999997,
          "durationTicks": 3096,
          "midi": 48,
          "name": "C3",
          "ticks": 203760,
          "time": 144.715764375,
          "velocity": 0.30708661417322836
        },
        {
          "duration": 2.1988614374999997,
          "durationTicks": 3096,
          "midi": 30,
          "name": "F#1",
          "ticks": 203760,
          "time": 144.715764375,
          "velocity": 0.30708661417322836
        },
        {
          "duration": 2.1988614374999997,
          "durationTicks": 3096,
          "midi": 26,
          "name": "D1",
          "ticks": 203760,
          "time": 144.715764375,
          "velocity": 0.30708661417322836
        },
        {
          "duration": 2.1988614374999997,
          "durationTicks": 3096,
          "midi": 73,
          "name": "C#5",
          "ticks": 203760,
          "time": 144.715764375,
          "velocity": 0.30708661417322836
        },
        {
          "duration": 2.1988614374999997,
          "durationTicks": 3096,
          "midi": 89,
          "name": "F6",
          "ticks": 203760,
          "time": 144.715764375,
          "velocity": 0.30708661417322836
        },
        {
          "duration": 2.1988614374999997,
          "durationTicks": 3096,
          "midi": 93,
          "name": "A6",
          "ticks": 203760,
          "time": 144.715764375,
          "velocity": 0.30708661417322836
        },
        {
          "duration": 2.1988614374999997,
          "durationTicks": 3096,
          "midi": 83,
          "name": "B5",
          "ticks": 203760,
          "time": 144.715764375,
          "velocity": 0.30708661417322836
        },
        {
          "duration": 2.1988614374999997,
          "durationTicks": 3096,
          "midi": 27,
          "name": "D#1",
          "ticks": 203760,
          "time": 144.715764375,
          "velocity": 0.30708661417322836
        },
        {
          "duration": 2.1988614374999997,
          "durationTicks": 3096,
          "midi": 94,
          "name": "A#6",
          "ticks": 203760,
          "time": 144.715764375,
          "velocity": 0.30708661417322836
        },
        {
          "duration": 2.1988614374999997,
          "durationTicks": 3096,
          "midi": 85,
          "name": "C#6",
          "ticks": 203760,
          "time": 144.715764375,
          "velocity": 0.30708661417322836
        },
        {
          "duration": 2.1988614374999997,
          "durationTicks": 3096,
          "midi": 31,
          "name": "G1",
          "ticks": 203760,
          "time": 144.715764375,
          "velocity": 0.30708661417322836
        },
        {
          "duration": 2.1988614374999997,
          "durationTicks": 3096,
          "midi": 28,
          "name": "E1",
          "ticks": 203760,
          "time": 144.715764375,
          "velocity": 0.30708661417322836
        },
        {
          "duration": 2.1988614374999997,
          "durationTicks": 3096,
          "midi": 78,
          "name": "F#5",
          "ticks": 203760,
          "time": 144.715764375,
          "velocity": 0.30708661417322836
        },
        {
          "duration": 2.1988614374999997,
          "durationTicks": 3096,
          "midi": 38,
          "name": "D2",
          "ticks": 203760,
          "time": 144.715764375,
          "velocity": 0.30708661417322836
        },
        {
          "duration": 2.1988614374999997,
          "durationTicks": 3096,
          "midi": 94,
          "name": "A#6",
          "ticks": 203760,
          "time": 144.715764375,
          "velocity": 0.30708661417322836
        },
        {
          "duration": 2.1988614374999997,
          "durationTicks": 3096,
          "midi": 73,
          "name": "C#5",
          "ticks": 203760,
          "time": 144.715764375,
          "velocity": 0.30708661417322836
        },
        {
          "duration": 2.1988614374999997,
          "durationTicks": 3096,
          "midi": 34,
          "name": "A#1",
          "ticks": 203760,
          "time": 144.715764375,
          "velocity": 0.30708661417322836
        },
        {
          "duration": 2.1988614374999997,
          "durationTicks": 3096,
          "midi": 88,
          "name": "E6",
          "ticks": 203760,
          "time": 144.715764375,
          "velocity": 0.30708661417322836
        },
        {
          "duration": 2.1988614374999997,
          "durationTicks": 3096,
          "midi": 81,
          "name": "A5",
          "ticks": 203760,
          "time": 144.715764375,
          "velocity": 0.30708661417322836
        },
        {
          "duration": 2.1988614374999997,
          "durationTicks": 3096,
          "midi": 26,
          "name": "D1",
          "ticks": 203760,
          "time": 144.715764375,
          "velocity": 0.30708661417322836
        },
        {
          "duration": 2.1988614374999997,
          "durationTicks": 3096,
          "midi": 94,
          "name": "A#6",
          "ticks": 203760,
          "time": 144.715764375,
          "velocity": 0.30708661417322836
        },
        {
          "duration": 2.1988614374999997,
          "durationTicks": 3096,
          "midi": 43,
          "name": "G2",
          "ticks": 203760,
          "time": 144.715764375,
          "velocity": 0.30708661417322836
        },
        {
          "duration": 2.1988614374999997,
          "durationTicks": 3096,
          "midi": 63,
          "name": "D#4",
          "ticks": 203760,
          "time": 144.715764375,
          "velocity": 0.30708661417322836
        },
        {
          "duration": 2.1988614374999997,
          "durationTicks": 3096,
          "midi": 82,
          "name": "A#5",
          "ticks": 203760,
          "time": 144.715764375,
          "velocity": 0.30708661417322836
        },
        {
          "duration": 2.1988614374999997,
          "durationTicks": 3096,
          "midi": 57,
          "name": "A3",
          "ticks": 203760,
          "time": 144.715764375,
          "velocity": 0.30708661417322836
        },
        {
          "duration": 2.1988614374999997,
          "durationTicks": 3096,
          "midi": 90,
          "name": "F#6",
          "ticks": 203760,
          "time": 144.715764375,
          "velocity": 0.30708661417322836
        },
        {
          "duration": 2.1988614374999997,
          "durationTicks": 3096,
          "midi": 49,
          "name": "C#3",
          "ticks": 203760,
          "time": 144.715764375,
          "velocity": 0.30708661417322836
        },
        {
          "duration": 2.1988614374999997,
          "durationTicks": 3096,
          "midi": 82,
          "name": "A#5",
          "ticks": 203760,
          "time": 144.715764375,
          "velocity": 0.30708661417322836
        },
        {
          "duration": 2.1988614374999997,
          "durationTicks": 3096,
          "midi": 82,
          "name": "A#5",
          "ticks": 203760,
          "time": 144.715764375,
          "velocity": 0.30708661417322836
        },
        {
          "duration": 2.1988614374999997,
          "durationTicks": 3096,
          "midi": 45,
          "name": "A2",
          "ticks": 203760,
          "time": 144.715764375,
          "velocity": 0.30708661417322836
        },
        {
          "duration": 2.1988614374999997,
          "durationTicks": 3096,
          "midi": 89,
          "name": "F6",
          "ticks": 203760,
          "time": 144.715764375,
          "velocity": 0.30708661417322836
        },
        {
          "duration": 2.1988614374999997,
          "durationTicks": 3096,
          "midi": 29,
          "name": "F1",
          "ticks": 203760,
          "time": 144.715764375,
          "velocity": 0.30708661417322836
        },
        {
          "duration": 2.1988614374999997,
          "durationTicks": 3096,
          "midi": 36,
          "name": "C2",
          "ticks": 203760,
          "time": 144.715764375,
          "velocity": 0.30708661417322836
        },
        {
          "duration": 2.1988614374999997,
          "durationTicks": 3096,
          "midi": 81,
          "name": "A5",
          "ticks": 203760,
          "time": 144.715764375,
          "velocity": 0.30708661417322836
        },
        {
          "duration": 2.1988614374999997,
          "durationTicks": 3096,
          "midi": 74,
          "name": "D5",
          "ticks": 203760,
          "time": 144.715764375,
          "velocity": 0.30708661417322836
        },
        {
          "duration": 2.1988614374999997,
          "durationTicks": 3096,
          "midi": 36,
          "name": "C2",
          "ticks": 203760,
          "time": 144.715764375,
          "velocity": 0.30708661417322836
        },
        {
          "duration": 2.1988614374999997,
          "durationTicks": 3096,
          "midi": 64,
          "name": "E4",
          "ticks": 203760,
          "time": 144.715764375,
          "velocity": 0.30708661417322836
        },
        {
          "duration": 2.1988614374999997,
          "durationTicks": 3096,
          "midi": 34,
          "name": "A#1",
          "ticks": 203760,
          "time": 144.715764375,
          "velocity": 0.30708661417322836
        },
        {
          "duration": 2.1988614374999997,
          "durationTicks": 3096,
          "midi": 25,
          "name": "C#1",
          "ticks": 203760,
          "time": 144.715764375,
          "velocity": 0.30708661417322836
        },
        {
          "duration": 2.1988614374999997,
          "durationTicks": 3096,
          "midi": 94,
          "name": "A#6",
          "ticks": 203760,
          "time": 144.715764375,
          "velocity": 0.30708661417322836
        },
        {
          "duration": 2.1988614374999997,
          "durationTicks": 3096,
          "midi": 82,
          "name": "A#5",
          "ticks": 203760,
          "time": 144.715764375,
          "velocity": 0.30708661417322836
        },
        {
          "duration": 2.1988614374999997,
          "durationTicks": 3096,
          "midi": 91,
          "name": "G6",
          "ticks": 203760,
          "time": 144.715764375,
          "velocity": 0.30708661417322836
        },
        {
          "duration": 2.1988614374999997,
          "durationTicks": 3096,
          "midi": 89,
          "name": "F6",
          "ticks": 203760,
          "time": 144.715764375,
          "velocity": 0.30708661417322836
        },
        {
          "duration": 2.1988614374999997,
          "durationTicks": 3096,
          "midi": 83,
          "name": "B5",
          "ticks": 203760,
          "time": 144.715764375,
          "velocity": 0.30708661417322836
        },
        {
          "duration": 2.1988614374999997,
          "durationTicks": 3096,
          "midi": 30,
          "name": "F#1",
          "ticks": 203760,
          "time": 144.715764375,
          "velocity": 0.30708661417322836
        },
        {
          "duration": 2.1988614374999997,
          "durationTicks": 3096,
          "midi": 54,
          "name": "F#3",
          "ticks": 203760,
          "time": 144.715764375,
          "velocity": 0.30708661417322836
        },
        {
          "duration": 2.1988614374999997,
          "durationTicks": 3096,
          "midi": 86,
          "name": "D6",
          "ticks": 203760,
          "time": 144.715764375,
          "velocity": 0.30708661417322836
        },
        {
          "duration": 2.1988614374999997,
          "durationTicks": 3096,
          "midi": 43,
          "name": "G2",
          "ticks": 203760,
          "time": 144.715764375,
          "velocity": 0.30708661417322836
        },
        {
          "duration": 2.1988614374999997,
          "durationTicks": 3096,
          "midi": 75,
          "name": "D#5",
          "ticks": 203760,
          "time": 144.715764375,
          "velocity": 0.30708661417322836
        },
        {
          "duration": 2.1988614374999997,
          "durationTicks": 3096,
          "midi": 89,
          "name": "F6",
          "ticks": 203760,
          "time": 144.715764375,
          "velocity": 0.30708661417322836
        },
        {
          "duration": 2.1988614374999997,
          "durationTicks": 3096,
          "midi": 92,
          "name": "G#6",
          "ticks": 203760,
          "time": 144.715764375,
          "velocity": 0.30708661417322836
        },
        {
          "duration": 2.1988614374999997,
          "durationTicks": 3096,
          "midi": 26,
          "name": "D1",
          "ticks": 203760,
          "time": 144.715764375,
          "velocity": 0.30708661417322836
        },
        {
          "duration": 2.1988614374999997,
          "durationTicks": 3096,
          "midi": 82,
          "name": "A#5",
          "ticks": 203760,
          "time": 144.715764375,
          "velocity": 0.30708661417322836
        },
        {
          "duration": 2.1988614374999997,
          "durationTicks": 3096,
          "midi": 61,
          "name": "C#4",
          "ticks": 203760,
          "time": 144.715764375,
          "velocity": 0.30708661417322836
        },
        {
          "duration": 2.1988614374999997,
          "durationTicks": 3096,
          "midi": 89,
          "name": "F6",
          "ticks": 203760,
          "time": 144.715764375,
          "velocity": 0.30708661417322836
        },
        {
          "duration": 2.1988614374999997,
          "durationTicks": 3096,
          "midi": 72,
          "name": "C5",
          "ticks": 203760,
          "time": 144.715764375,
          "velocity": 0.30708661417322836
        },
        {
          "duration": 2.1988614374999997,
          "durationTicks": 3096,
          "midi": 46,
          "name": "A#2",
          "ticks": 203760,
          "time": 144.715764375,
          "velocity": 0.30708661417322836
        },
        {
          "duration": 2.1988614374999997,
          "durationTicks": 3096,
          "midi": 46,
          "name": "A#2",
          "ticks": 203760,
          "time": 144.715764375,
          "velocity": 0.30708661417322836
        },
        {
          "duration": 2.1988614374999997,
          "durationTicks": 3096,
          "midi": 46,
          "name": "A#2",
          "ticks": 203760,
          "time": 144.715764375,
          "velocity": 0.30708661417322836
        },
        {
          "duration": 2.1988614374999997,
          "durationTicks": 3096,
          "midi": 64,
          "name": "E4",
          "ticks": 203760,
          "time": 144.715764375,
          "velocity": 0.30708661417322836
        },
        {
          "duration": 2.1988614374999997,
          "durationTicks": 3096,
          "midi": 54,
          "name": "F#3",
          "ticks": 203760,
          "time": 144.715764375,
          "velocity": 0.30708661417322836
        },
        {
          "duration": 2.1988614374999997,
          "durationTicks": 3096,
          "midi": 85,
          "name": "C#6",
          "ticks": 203760,
          "time": 144.715764375,
          "velocity": 0.30708661417322836
        },
        {
          "duration": 2.1988614374999997,
          "durationTicks": 3096,
          "midi": 36,
          "name": "C2",
          "ticks": 203760,
          "time": 144.715764375,
          "velocity": 0.30708661417322836
        },
        {
          "duration": 2.1988614374999997,
          "durationTicks": 3096,
          "midi": 83,
          "name": "B5",
          "ticks": 203760,
          "time": 144.715764375,
          "velocity": 0.30708661417322836
        },
        {
          "duration": 2.1988614374999997,
          "durationTicks": 3096,
          "midi": 32,
          "name": "G#1",
          "ticks": 203760,
          "time": 144.715764375,
          "velocity": 0.30708661417322836
        },
        {
          "duration": 2.1988614374999997,
          "durationTicks": 3096,
          "midi": 57,
          "name": "A3",
          "ticks": 203760,
          "time": 144.715764375,
          "velocity": 0.30708661417322836
        },
        {
          "duration": 2.1988614374999997,
          "durationTicks": 3096,
          "midi": 62,
          "name": "D4",
          "ticks": 203760,
          "time": 144.715764375,
          "velocity": 0.30708661417322836
        },
        {
          "duration": 2.1988614374999997,
          "durationTicks": 3096,
          "midi": 71,
          "name": "B4",
          "ticks": 203760,
          "time": 144.715764375,
          "velocity": 0.30708661417322836
        },
        {
          "duration": 2.1988614374999997,
          "durationTicks": 3096,
          "midi": 41,
          "name": "F2",
          "ticks": 203760,
          "time": 144.715764375,
          "velocity": 0.30708661417322836
        },
        {
          "duration": 2.1988614374999997,
          "durationTicks": 3096,
          "midi": 56,
          "name": "G#3",
          "ticks": 203760,
          "time": 144.715764375,
          "velocity": 0.30708661417322836
        },
        {
          "duration": 2.1988614374999997,
          "durationTicks": 3096,
          "midi": 88,
          "name": "E6",
          "ticks": 203760,
          "time": 144.715764375,
          "velocity": 0.30708661417322836
        },
        {
          "duration": 2.1988614374999997,
          "durationTicks": 3096,
          "midi": 82,
          "name": "A#5",
          "ticks": 203760,
          "time": 144.715764375,
          "velocity": 0.30708661417322836
        },
        {
          "duration": 2.1988614374999997,
          "durationTicks": 3096,
          "midi": 91,
          "name": "G6",
          "ticks": 203760,
          "time": 144.715764375,
          "velocity": 0.30708661417322836
        },
        {
          "duration": 2.1988614374999997,
          "durationTicks": 3096,
          "midi": 68,
          "name": "G#4",
          "ticks": 203760,
          "time": 144.715764375,
          "velocity": 0.30708661417322836
        },
        {
          "duration": 2.1988614374999997,
          "durationTicks": 3096,
          "midi": 41,
          "name": "F2",
          "ticks": 203760,
          "time": 144.715764375,
          "velocity": 0.30708661417322836
        },
        {
          "duration": 2.1988614374999997,
          "durationTicks": 3096,
          "midi": 81,
          "name": "A5",
          "ticks": 203760,
          "time": 144.715764375,
          "velocity": 0.30708661417322836
        },
        {
          "duration": 2.1988614374999997,
          "durationTicks": 3096,
          "midi": 42,
          "name": "F#2",
          "ticks": 203760,
          "time": 144.715764375,
          "velocity": 0.30708661417322836
        },
        {
          "duration": 2.1988614374999997,
          "durationTicks": 3096,
          "midi": 55,
          "name": "G3",
          "ticks": 203760,
          "time": 144.715764375,
          "velocity": 0.30708661417322836
        },
        {
          "duration": 2.1988614374999997,
          "durationTicks": 3096,
          "midi": 44,
          "name": "G#2",
          "ticks": 203760,
          "time": 144.715764375,
          "velocity": 0.30708661417322836
        },
        {
          "duration": 2.1988614374999997,
          "durationTicks": 3096,
          "midi": 88,
          "name": "E6",
          "ticks": 203760,
          "time": 144.715764375,
          "velocity": 0.30708661417322836
        },
        {
          "duration": 2.1988614374999997,
          "durationTicks": 3096,
          "midi": 47,
          "name": "B2",
          "ticks": 203760,
          "time": 144.715764375,
          "velocity": 0.30708661417322836
        },
        {
          "duration": 2.1988614374999997,
          "durationTicks": 3096,
          "midi": 80,
          "name": "G#5",
          "ticks": 203760,
          "time": 144.715764375,
          "velocity": 0.30708661417322836
        },
        {
          "duration": 2.1988614374999997,
          "durationTicks": 3096,
          "midi": 46,
          "name": "A#2",
          "ticks": 203760,
          "time": 144.715764375,
          "velocity": 0.30708661417322836
        },
        {
          "duration": 2.1988614374999997,
          "durationTicks": 3096,
          "midi": 48,
          "name": "C3",
          "ticks": 203760,
          "time": 144.715764375,
          "velocity": 0.30708661417322836
        },
        {
          "duration": 2.1988614374999997,
          "durationTicks": 3096,
          "midi": 95,
          "name": "B6",
          "ticks": 203760,
          "time": 144.715764375,
          "velocity": 0.30708661417322836
        },
        {
          "duration": 2.1988614374999997,
          "durationTicks": 3096,
          "midi": 52,
          "name": "E3",
          "ticks": 203760,
          "time": 144.715764375,
          "velocity": 0.30708661417322836
        },
        {
          "duration": 2.1988614374999997,
          "durationTicks": 3096,
          "midi": 24,
          "name": "C1",
          "ticks": 203760,
          "time": 144.715764375,
          "velocity": 0.30708661417322836
        },
        {
          "duration": 2.1988614374999997,
          "durationTicks": 3096,
          "midi": 75,
          "name": "D#5",
          "ticks": 203760,
          "time": 144.715764375,
          "velocity": 0.30708661417322836
        },
        {
          "duration": 2.1988614374999997,
          "durationTicks": 3096,
          "midi": 24,
          "name": "C1",
          "ticks": 203760,
          "time": 144.715764375,
          "velocity": 0.30708661417322836
        },
        {
          "duration": 2.1988614374999997,
          "durationTicks": 3096,
          "midi": 41,
          "name": "F2",
          "ticks": 203760,
          "time": 144.715764375,
          "velocity": 0.30708661417322836
        },
        {
          "duration": 2.1988614374999997,
          "durationTicks": 3096,
          "midi": 29,
          "name": "F1",
          "ticks": 203760,
          "time": 144.715764375,
          "velocity": 0.30708661417322836
        },
        {
          "duration": 2.1988614374999997,
          "durationTicks": 3096,
          "midi": 66,
          "name": "F#4",
          "ticks": 203760,
          "time": 144.715764375,
          "velocity": 0.30708661417322836
        },
        {
          "duration": 2.1988614374999997,
          "durationTicks": 3096,
          "midi": 32,
          "name": "G#1",
          "ticks": 203760,
          "time": 144.715764375,
          "velocity": 0.30708661417322836
        },
        {
          "duration": 2.1988614374999997,
          "durationTicks": 3096,
          "midi": 34,
          "name": "A#1",
          "ticks": 203760,
          "time": 144.715764375,
          "velocity": 0.30708661417322836
        },
        {
          "duration": 2.1988614374999997,
          "durationTicks": 3096,
          "midi": 94,
          "name": "A#6",
          "ticks": 203760,
          "time": 144.715764375,
          "velocity": 0.30708661417322836
        },
        {
          "duration": 2.1988614374999997,
          "durationTicks": 3096,
          "midi": 84,
          "name": "C6",
          "ticks": 203760,
          "time": 144.715764375,
          "velocity": 0.30708661417322836
        },
        {
          "duration": 2.1988614374999997,
          "durationTicks": 3096,
          "midi": 94,
          "name": "A#6",
          "ticks": 203760,
          "time": 144.715764375,
          "velocity": 0.30708661417322836
        },
        {
          "duration": 2.1988614374999997,
          "durationTicks": 3096,
          "midi": 94,
          "name": "A#6",
          "ticks": 203760,
          "time": 144.715764375,
          "velocity": 0.30708661417322836
        },
        {
          "duration": 2.1988614374999997,
          "durationTicks": 3096,
          "midi": 89,
          "name": "F6",
          "ticks": 203760,
          "time": 144.715764375,
          "velocity": 0.30708661417322836
        },
        {
          "duration": 2.1988614374999997,
          "durationTicks": 3096,
          "midi": 33,
          "name": "A1",
          "ticks": 203760,
          "time": 144.715764375,
          "velocity": 0.30708661417322836
        },
        {
          "duration": 2.1988614374999997,
          "durationTicks": 3096,
          "midi": 54,
          "name": "F#3",
          "ticks": 203760,
          "time": 144.715764375,
          "velocity": 0.30708661417322836
        },
        {
          "duration": 2.1988614374999997,
          "durationTicks": 3096,
          "midi": 49,
          "name": "C#3",
          "ticks": 203760,
          "time": 144.715764375,
          "velocity": 0.30708661417322836
        },
        {
          "duration": 2.1988614374999997,
          "durationTicks": 3096,
          "midi": 51,
          "name": "D#3",
          "ticks": 203760,
          "time": 144.715764375,
          "velocity": 0.30708661417322836
        },
        {
          "duration": 2.1988614374999997,
          "durationTicks": 3096,
          "midi": 77,
          "name": "F5",
          "ticks": 203760,
          "time": 144.715764375,
          "velocity": 0.30708661417322836
        },
        {
          "duration": 2.1988614374999997,
          "durationTicks": 3096,
          "midi": 25,
          "name": "C#1",
          "ticks": 203760,
          "time": 144.715764375,
          "velocity": 0.30708661417322836
        },
        {
          "duration": 2.1988614374999997,
          "durationTicks": 3096,
          "midi": 70,
          "name": "A#4",
          "ticks": 203760,
          "time": 144.715764375,
          "velocity": 0.30708661417322836
        },
        {
          "duration": 2.1988614374999997,
          "durationTicks": 3096,
          "midi": 91,
          "name": "G6",
          "ticks": 203760,
          "time": 144.715764375,
          "velocity": 0.30708661417322836
        },
        {
          "duration": 2.1988614374999997,
          "durationTicks": 3096,
          "midi": 78,
          "name": "F#5",
          "ticks": 203760,
          "time": 144.715764375,
          "velocity": 0.30708661417322836
        },
        {
          "duration": 2.1988614374999997,
          "durationTicks": 3096,
          "midi": 84,
          "name": "C6",
          "ticks": 203760,
          "time": 144.715764375,
          "velocity": 0.30708661417322836
        },
        {
          "duration": 2.1988614374999997,
          "durationTicks": 3096,
          "midi": 53,
          "name": "F3",
          "ticks": 203760,
          "time": 144.715764375,
          "velocity": 0.30708661417322836
        },
        {
          "duration": 2.1988614374999997,
          "durationTicks": 3096,
          "midi": 27,
          "name": "D#1",
          "ticks": 203760,
          "time": 144.715764375,
          "velocity": 0.30708661417322836
        },
        {
          "duration": 2.1988614374999997,
          "durationTicks": 3096,
          "midi": 86,
          "name": "D6",
          "ticks": 203760,
          "time": 144.715764375,
          "velocity": 0.30708661417322836
        },
        {
          "duration": 2.1988614374999997,
          "durationTicks": 3096,
          "midi": 31,
          "name": "G1",
          "ticks": 203760,
          "time": 144.715764375,
          "velocity": 0.30708661417322836
        },
        {
          "duration": 2.1988614374999997,
          "durationTicks": 3096,
          "midi": 70,
          "name": "A#4",
          "ticks": 203760,
          "time": 144.715764375,
          "velocity": 0.30708661417322836
        },
        {
          "duration": 2.1988614374999997,
          "durationTicks": 3096,
          "midi": 34,
          "name": "A#1",
          "ticks": 203760,
          "time": 144.715764375,
          "velocity": 0.30708661417322836
        },
        {
          "duration": 2.1988614374999997,
          "durationTicks": 3096,
          "midi": 87,
          "name": "D#6",
          "ticks": 203760,
          "time": 144.715764375,
          "velocity": 0.30708661417322836
        },
        {
          "duration": 2.1988614374999997,
          "durationTicks": 3096,
          "midi": 83,
          "name": "B5",
          "ticks": 203760,
          "time": 144.715764375,
          "velocity": 0.30708661417322836
        },
        {
          "duration": 2.1988614374999997,
          "durationTicks": 3096,
          "midi": 44,
          "name": "G#2",
          "ticks": 203760,
          "time": 144.715764375,
          "velocity": 0.30708661417322836
        },
        {
          "duration": 2.1988614374999997,
          "durationTicks": 3096,
          "midi": 76,
          "name": "E5",
          "ticks": 203760,
          "time": 144.715764375,
          "velocity": 0.30708661417322836
        },
        {
          "duration": 2.1988614374999997,
          "durationTicks": 3096,
          "midi": 85,
          "name": "C#6",
          "ticks": 203760,
          "time": 144.715764375,
          "velocity": 0.30708661417322836
        },
        {
          "duration": 2.1988614374999997,
          "durationTicks": 3096,
          "midi": 79,
          "name": "G5",
          "ticks": 203760,
          "time": 144.715764375,
          "velocity": 0.30708661417322836
        },
        {
          "duration": 2.1988614374999997,
          "durationTicks": 3096,
          "midi": 76,
          "name": "E5",
          "ticks": 203760,
          "time": 144.715764375,
          "velocity": 0.30708661417322836
        },
        {
          "duration": 2.1988614374999997,
          "durationTicks": 3096,
          "midi": 39,
          "name": "D#2",
          "ticks": 203760,
          "time": 144.715764375,
          "velocity": 0.30708661417322836
        },
        {
          "duration": 2.1988614374999997,
          "durationTicks": 3096,
          "midi": 46,
          "name": "A#2",
          "ticks": 203760,
          "time": 144.715764375,
          "velocity": 0.30708661417322836
        },
        {
          "duration": 2.1988614374999997,
          "durationTicks": 3096,
          "midi": 82,
          "name": "A#5",
          "ticks": 203760,
          "time": 144.715764375,
          "velocity": 0.30708661417322836
        },
        {
          "duration": 2.1988614374999997,
          "durationTicks": 3096,
          "midi": 94,
          "name": "A#6",
          "ticks": 203760,
          "time": 144.715764375,
          "velocity": 0.30708661417322836
        },
        {
          "duration": 2.1988614374999997,
          "durationTicks": 3096,
          "midi": 85,
          "name": "C#6",
          "ticks": 203760,
          "time": 144.715764375,
          "velocity": 0.30708661417322836
        },
        {
          "duration": 2.1988614374999997,
          "durationTicks": 3096,
          "midi": 87,
          "name": "D#6",
          "ticks": 203760,
          "time": 144.715764375,
          "velocity": 0.30708661417322836
        },
        {
          "duration": 2.1988614374999997,
          "durationTicks": 3096,
          "midi": 86,
          "name": "D6",
          "ticks": 203760,
          "time": 144.715764375,
          "velocity": 0.30708661417322836
        },
        {
          "duration": 2.1988614374999997,
          "durationTicks": 3096,
          "midi": 34,
          "name": "A#1",
          "ticks": 203760,
          "time": 144.715764375,
          "velocity": 0.30708661417322836
        },
        {
          "duration": 2.1988614374999997,
          "durationTicks": 3096,
          "midi": 39,
          "name": "D#2",
          "ticks": 203760,
          "time": 144.715764375,
          "velocity": 0.30708661417322836
        },
        {
          "duration": 2.1988614374999997,
          "durationTicks": 3096,
          "midi": 36,
          "name": "C2",
          "ticks": 203760,
          "time": 144.715764375,
          "velocity": 0.30708661417322836
        },
        {
          "duration": 2.1988614374999997,
          "durationTicks": 3096,
          "midi": 89,
          "name": "F6",
          "ticks": 203760,
          "time": 144.715764375,
          "velocity": 0.30708661417322836
        },
        {
          "duration": 2.1988614374999997,
          "durationTicks": 3096,
          "midi": 43,
          "name": "G2",
          "ticks": 203760,
          "time": 144.715764375,
          "velocity": 0.30708661417322836
        },
        {
          "duration": 2.1988614374999997,
          "durationTicks": 3096,
          "midi": 50,
          "name": "D3",
          "ticks": 203760,
          "time": 144.715764375,
          "velocity": 0.30708661417322836
        },
        {
          "duration": 2.1988614374999997,
          "durationTicks": 3096,
          "midi": 69,
          "name": "A4",
          "ticks": 203760,
          "time": 144.715764375,
          "velocity": 0.30708661417322836
        },
        {
          "duration": 2.1988614374999997,
          "durationTicks": 3096,
          "midi": 42,
          "name": "F#2",
          "ticks": 203760,
          "time": 144.715764375,
          "velocity": 0.30708661417322836
        },
        {
          "duration": 2.1988614374999997,
          "durationTicks": 3096,
          "midi": 42,
          "name": "F#2",
          "ticks": 203760,
          "time": 144.715764375,
          "velocity": 0.30708661417322836
        },
        {
          "duration": 2.1988614374999997,
          "durationTicks": 3096,
          "midi": 34,
          "name": "A#1",
          "ticks": 203760,
          "time": 144.715764375,
          "velocity": 0.30708661417322836
        },
        {
          "duration": 2.1988614374999997,
          "durationTicks": 3096,
          "midi": 82,
          "name": "A#5",
          "ticks": 203760,
          "time": 144.715764375,
          "velocity": 0.30708661417322836
        },
        {
          "duration": 2.1988614374999997,
          "durationTicks": 3096,
          "midi": 58,
          "name": "A#3",
          "ticks": 203760,
          "time": 144.715764375,
          "velocity": 0.30708661417322836
        },
        {
          "duration": 2.1988614374999997,
          "durationTicks": 3096,
          "midi": 85,
          "name": "C#6",
          "ticks": 203760,
          "time": 144.715764375,
          "velocity": 0.30708661417322836
        },
        {
          "duration": 2.1988614374999997,
          "durationTicks": 3096,
          "midi": 32,
          "name": "G#1",
          "ticks": 203760,
          "time": 144.715764375,
          "velocity": 0.30708661417322836
        },
        {
          "duration": 2.1988614374999997,
          "durationTicks": 3096,
          "midi": 39,
          "name": "D#2",
          "ticks": 203760,
          "time": 144.715764375,
          "velocity": 0.30708661417322836
        },
        {
          "duration": 2.1988614374999997,
          "durationTicks": 3096,
          "midi": 86,
          "name": "D6",
          "ticks": 203760,
          "time": 144.715764375,
          "velocity": 0.30708661417322836
        },
        {
          "duration": 2.1988614374999997,
          "durationTicks": 3096,
          "midi": 87,
          "name": "D#6",
          "ticks": 203760,
          "time": 144.715764375,
          "velocity": 0.30708661417322836
        },
        {
          "duration": 2.1988614374999997,
          "durationTicks": 3096,
          "midi": 75,
          "name": "D#5",
          "ticks": 203760,
          "time": 144.715764375,
          "velocity": 0.30708661417322836
        },
        {
          "duration": 2.1988614374999997,
          "durationTicks": 3096,
          "midi": 61,
          "name": "C#4",
          "ticks": 203760,
          "time": 144.715764375,
          "velocity": 0.30708661417322836
        },
        {
          "duration": 2.1988614374999997,
          "durationTicks": 3096,
          "midi": 92,
          "name": "G#6",
          "ticks": 203760,
          "time": 144.715764375,
          "velocity": 0.30708661417322836
        },
        {
          "duration": 2.1988614374999997,
          "durationTicks": 3096,
          "midi": 69,
          "name": "A4",
          "ticks": 203760,
          "time": 144.715764375,
          "velocity": 0.30708661417322836
        },
        {
          "duration": 2.1988614374999997,
          "durationTicks": 3096,
          "midi": 82,
          "name": "A#5",
          "ticks": 203760,
          "time": 144.715764375,
          "velocity": 0.30708661417322836
        },
        {
          "duration": 2.1988614374999997,
          "durationTicks": 3096,
          "midi": 43,
          "name": "G2",
          "ticks": 203760,
          "time": 144.715764375,
          "velocity": 0.30708661417322836
        },
        {
          "duration": 2.1988614374999997,
          "durationTicks": 3096,
          "midi": 89,
          "name": "F6",
          "ticks": 203760,
          "time": 144.715764375,
          "velocity": 0.30708661417322836
        },
        {
          "duration": 2.1988614374999997,
          "durationTicks": 3096,
          "midi": 45,
          "name": "A2",
          "ticks": 203760,
          "time": 144.715764375,
          "velocity": 0.30708661417322836
        },
        {
          "duration": 2.1988614374999997,
          "durationTicks": 3096,
          "midi": 37,
          "name": "C#2",
          "ticks": 203760,
          "time": 144.715764375,
          "velocity": 0.30708661417322836
        },
        {
          "duration": 2.1988614374999997,
          "durationTicks": 3096,
          "midi": 33,
          "name": "A1",
          "ticks": 203760,
          "time": 144.715764375,
          "velocity": 0.30708661417322836
        },
        {
          "duration": 2.1988614374999997,
          "durationTicks": 3096,
          "midi": 46,
          "name": "A#2",
          "ticks": 203760,
          "time": 144.715764375,
          "velocity": 0.30708661417322836
        },
        {
          "duration": 2.1988614374999997,
          "durationTicks": 3096,
          "midi": 57,
          "name": "A3",
          "ticks": 203760,
          "time": 144.715764375,
          "velocity": 0.30708661417322836
        },
        {
          "duration": 2.1988614374999997,
          "durationTicks": 3096,
          "midi": 54,
          "name": "F#3",
          "ticks": 203760,
          "time": 144.715764375,
          "velocity": 0.30708661417322836
        },
        {
          "duration": 2.1988614374999997,
          "durationTicks": 3096,
          "midi": 40,
          "name": "E2",
          "ticks": 203760,
          "time": 144.715764375,
          "velocity": 0.30708661417322836
        },
        {
          "duration": 2.1988614374999997,
          "durationTicks": 3096,
          "midi": 59,
          "name": "B3",
          "ticks": 203760,
          "time": 144.715764375,
          "velocity": 0.30708661417322836
        },
        {
          "duration": 2.1988614374999997,
          "durationTicks": 3096,
          "midi": 85,
          "name": "C#6",
          "ticks": 203760,
          "time": 144.715764375,
          "velocity": 0.30708661417322836
        },
        {
          "duration": 2.1988614374999997,
          "durationTicks": 3096,
          "midi": 60,
          "name": "C4",
          "ticks": 203760,
          "time": 144.715764375,
          "velocity": 0.30708661417322836
        },
        {
          "duration": 2.1988614374999997,
          "durationTicks": 3096,
          "midi": 53,
          "name": "F3",
          "ticks": 203760,
          "time": 144.715764375,
          "velocity": 0.30708661417322836
        },
        {
          "duration": 2.1988614374999997,
          "durationTicks": 3096,
          "midi": 58,
          "name": "A#3",
          "ticks": 203760,
          "time": 144.715764375,
          "velocity": 0.30708661417322836
        },
        {
          "duration": 2.1988614374999997,
          "durationTicks": 3096,
          "midi": 85,
          "name": "C#6",
          "ticks": 203760,
          "time": 144.715764375,
          "velocity": 0.30708661417322836
        },
        {
          "duration": 2.1988614374999997,
          "durationTicks": 3096,
          "midi": 65,
          "name": "F4",
          "ticks": 203760,
          "time": 144.715764375,
          "velocity": 0.30708661417322836
        },
        {
          "duration": 2.1988614374999997,
          "durationTicks": 3096,
          "midi": 44,
          "name": "G#2",
          "ticks": 203760,
          "time": 144.715764375,
          "velocity": 0.30708661417322836
        },
        {
          "duration": 2.1988614374999997,
          "durationTicks": 3096,
          "midi": 66,
          "name": "F#4",
          "ticks": 203760,
          "time": 144.715764375,
          "velocity": 0.30708661417322836
        },
        {
          "duration": 2.1988614374999997,
          "durationTicks": 3096,
          "midi": 40,
          "name": "E2",
          "ticks": 203760,
          "time": 144.715764375,
          "velocity": 0.30708661417322836
        },
        {
          "duration": 2.1988614374999997,
          "durationTicks": 3096,
          "midi": 85,
          "name": "C#6",
          "ticks": 203760,
          "time": 144.715764375,
          "velocity": 0.30708661417322836
        },
        {
          "duration": 2.1988614374999997,
          "durationTicks": 3096,
          "midi": 70,
          "name": "A#4",
          "ticks": 203760,
          "time": 144.715764375,
          "velocity": 0.30708661417322836
        },
        {
          "duration": 2.1988614374999997,
          "durationTicks": 3096,
          "midi": 46,
          "name": "A#2",
          "ticks": 203760,
          "time": 144.715764375,
          "velocity": 0.30708661417322836
        },
        {
          "duration": 2.1988614374999997,
          "durationTicks": 3096,
          "midi": 51,
          "name": "D#3",
          "ticks": 203760,
          "time": 144.715764375,
          "velocity": 0.30708661417322836
        },
        {
          "duration": 2.1988614374999997,
          "durationTicks": 3096,
          "midi": 73,
          "name": "C#5",
          "ticks": 203760,
          "time": 144.715764375,
          "velocity": 0.30708661417322836
        },
        {
          "duration": 2.1988614374999997,
          "durationTicks": 3096,
          "midi": 89,
          "name": "F6",
          "ticks": 203760,
          "time": 144.715764375,
          "velocity": 0.30708661417322836
        },
        {
          "duration": 2.1988614374999997,
          "durationTicks": 3096,
          "midi": 59,
          "name": "B3",
          "ticks": 203760,
          "time": 144.715764375,
          "velocity": 0.30708661417322836
        },
        {
          "duration": 2.1988614374999997,
          "durationTicks": 3096,
          "midi": 90,
          "name": "F#6",
          "ticks": 203760,
          "time": 144.715764375,
          "velocity": 0.30708661417322836
        },
        {
          "duration": 2.1988614374999997,
          "durationTicks": 3096,
          "midi": 95,
          "name": "B6",
          "ticks": 203760,
          "time": 144.715764375,
          "velocity": 0.30708661417322836
        },
        {
          "duration": 2.1988614374999997,
          "durationTicks": 3096,
          "midi": 87,
          "name": "D#6",
          "ticks": 203760,
          "time": 144.715764375,
          "velocity": 0.30708661417322836
        },
        {
          "duration": 2.1988614374999997,
          "durationTicks": 3096,
          "midi": 34,
          "name": "A#1",
          "ticks": 203760,
          "time": 144.715764375,
          "velocity": 0.30708661417322836
        },
        {
          "duration": 2.1988614374999997,
          "durationTicks": 3096,
          "midi": 77,
          "name": "F5",
          "ticks": 203760,
          "time": 144.715764375,
          "velocity": 0.30708661417322836
        },
        {
          "duration": 2.1988614374999997,
          "durationTicks": 3096,
          "midi": 93,
          "name": "A6",
          "ticks": 203760,
          "time": 144.715764375,
          "velocity": 0.30708661417322836
        },
        {
          "duration": 2.1988614374999997,
          "durationTicks": 3096,
          "midi": 49,
          "name": "C#3",
          "ticks": 203760,
          "time": 144.715764375,
          "velocity": 0.30708661417322836
        },
        {
          "duration": 2.1988614374999997,
          "durationTicks": 3096,
          "midi": 57,
          "name": "A3",
          "ticks": 203760,
          "time": 144.715764375,
          "velocity": 0.30708661417322836
        },
        {
          "duration": 2.1988614374999997,
          "durationTicks": 3096,
          "midi": 44,
          "name": "G#2",
          "ticks": 203760,
          "time": 144.715764375,
          "velocity": 0.30708661417322836
        },
        {
          "duration": 2.1988614374999997,
          "durationTicks": 3096,
          "midi": 60,
          "name": "C4",
          "ticks": 203760,
          "time": 144.715764375,
          "velocity": 0.30708661417322836
        },
        {
          "duration": 2.1988614374999997,
          "durationTicks": 3096,
          "midi": 89,
          "name": "F6",
          "ticks": 203760,
          "time": 144.715764375,
          "velocity": 0.30708661417322836
        },
        {
          "duration": 2.1988614374999997,
          "durationTicks": 3096,
          "midi": 85,
          "name": "C#6",
          "ticks": 203760,
          "time": 144.715764375,
          "velocity": 0.30708661417322836
        },
        {
          "duration": 2.1988614374999997,
          "durationTicks": 3096,
          "midi": 34,
          "name": "A#1",
          "ticks": 203760,
          "time": 144.715764375,
          "velocity": 0.30708661417322836
        },
        {
          "duration": 2.1988614374999997,
          "durationTicks": 3096,
          "midi": 46,
          "name": "A#2",
          "ticks": 203760,
          "time": 144.715764375,
          "velocity": 0.30708661417322836
        },
        {
          "duration": 2.1988614374999997,
          "durationTicks": 3096,
          "midi": 25,
          "name": "C#1",
          "ticks": 203760,
          "time": 144.715764375,
          "velocity": 0.30708661417322836
        },
        {
          "duration": 2.1988614374999997,
          "durationTicks": 3096,
          "midi": 78,
          "name": "F#5",
          "ticks": 203760,
          "time": 144.715764375,
          "velocity": 0.30708661417322836
        },
        {
          "duration": 2.1988614374999997,
          "durationTicks": 3096,
          "midi": 94,
          "name": "A#6",
          "ticks": 203760,
          "time": 144.715764375,
          "velocity": 0.30708661417322836
        },
        {
          "duration": 2.1988614374999997,
          "durationTicks": 3096,
          "midi": 37,
          "name": "C#2",
          "ticks": 203760,
          "time": 144.715764375,
          "velocity": 0.30708661417322836
        },
        {
          "duration": 2.1988614374999997,
          "durationTicks": 3096,
          "midi": 37,
          "name": "C#2",
          "ticks": 203760,
          "time": 144.715764375,
          "velocity": 0.30708661417322836
        },
        {
          "duration": 2.1988614374999997,
          "durationTicks": 3096,
          "midi": 68,
          "name": "G#4",
          "ticks": 203760,
          "time": 144.715764375,
          "velocity": 0.30708661417322836
        },
        {
          "duration": 2.1988614374999997,
          "durationTicks": 3096,
          "midi": 75,
          "name": "D#5",
          "ticks": 203760,
          "time": 144.715764375,
          "velocity": 0.30708661417322836
        },
        {
          "duration": 2.1988614374999997,
          "durationTicks": 3096,
          "midi": 68,
          "name": "G#4",
          "ticks": 203760,
          "time": 144.715764375,
          "velocity": 0.30708661417322836
        },
        {
          "duration": 2.1988614374999997,
          "durationTicks": 3096,
          "midi": 52,
          "name": "E3",
          "ticks": 203760,
          "time": 144.715764375,
          "velocity": 0.30708661417322836
        },
        {
          "duration": 2.1988614374999997,
          "durationTicks": 3096,
          "midi": 73,
          "name": "C#5",
          "ticks": 203760,
          "time": 144.715764375,
          "velocity": 0.30708661417322836
        },
        {
          "duration": 2.1988614374999997,
          "durationTicks": 3096,
          "midi": 69,
          "name": "A4",
          "ticks": 203760,
          "time": 144.715764375,
          "velocity": 0.30708661417322836
        },
        {
          "duration": 2.1988614374999997,
          "durationTicks": 3096,
          "midi": 24,
          "name": "C1",
          "ticks": 203760,
          "time": 144.715764375,
          "velocity": 0.30708661417322836
        },
        {
          "duration": 2.1988614374999997,
          "durationTicks": 3096,
          "midi": 77,
          "name": "F5",
          "ticks": 203760,
          "time": 144.715764375,
          "velocity": 0.30708661417322836
        },
        {
          "duration": 2.1988614374999997,
          "durationTicks": 3096,
          "midi": 33,
          "name": "A1",
          "ticks": 203760,
          "time": 144.715764375,
          "velocity": 0.30708661417322836
        },
        {
          "duration": 2.1988614374999997,
          "durationTicks": 3096,
          "midi": 50,
          "name": "D3",
          "ticks": 203760,
          "time": 144.715764375,
          "velocity": 0.30708661417322836
        },
        {
          "duration": 2.1988614374999997,
          "durationTicks": 3096,
          "midi": 45,
          "name": "A2",
          "ticks": 203760,
          "time": 144.715764375,
          "velocity": 0.30708661417322836
        },
        {
          "duration": 2.1988614374999997,
          "durationTicks": 3096,
          "midi": 50,
          "name": "D3",
          "ticks": 203760,
          "time": 144.715764375,
          "velocity": 0.30708661417322836
        },
        {
          "duration": 2.1988614374999997,
          "durationTicks": 3096,
          "midi": 82,
          "name": "A#5",
          "ticks": 203760,
          "time": 144.715764375,
          "velocity": 0.30708661417322836
        },
        {
          "duration": 2.1988614374999997,
          "durationTicks": 3096,
          "midi": 91,
          "name": "G6",
          "ticks": 203760,
          "time": 144.715764375,
          "velocity": 0.30708661417322836
        },
        {
          "duration": 2.1988614374999997,
          "durationTicks": 3096,
          "midi": 77,
          "name": "F5",
          "ticks": 203760,
          "time": 144.715764375,
          "velocity": 0.30708661417322836
        },
        {
          "duration": 2.1988614374999997,
          "durationTicks": 3096,
          "midi": 88,
          "name": "E6",
          "ticks": 203760,
          "time": 144.715764375,
          "velocity": 0.30708661417322836
        },
        {
          "duration": 2.1988614374999997,
          "durationTicks": 3096,
          "midi": 40,
          "name": "E2",
          "ticks": 203760,
          "time": 144.715764375,
          "velocity": 0.30708661417322836
        },
        {
          "duration": 2.1988614374999997,
          "durationTicks": 3096,
          "midi": 72,
          "name": "C5",
          "ticks": 203760,
          "time": 144.715764375,
          "velocity": 0.30708661417322836
        },
        {
          "duration": 2.1988614374999997,
          "durationTicks": 3096,
          "midi": 95,
          "name": "B6",
          "ticks": 203760,
          "time": 144.715764375,
          "velocity": 0.30708661417322836
        },
        {
          "duration": 2.1988614374999997,
          "durationTicks": 3096,
          "midi": 56,
          "name": "G#3",
          "ticks": 203760,
          "time": 144.715764375,
          "velocity": 0.30708661417322836
        },
        {
          "duration": 2.1988614374999997,
          "durationTicks": 3096,
          "midi": 80,
          "name": "G#5",
          "ticks": 203760,
          "time": 144.715764375,
          "velocity": 0.30708661417322836
        },
        {
          "duration": 2.1988614374999997,
          "durationTicks": 3096,
          "midi": 31,
          "name": "G1",
          "ticks": 203760,
          "time": 144.715764375,
          "velocity": 0.30708661417322836
        },
        {
          "duration": 2.1988614374999997,
          "durationTicks": 3096,
          "midi": 33,
          "name": "A1",
          "ticks": 203760,
          "time": 144.715764375,
          "velocity": 0.30708661417322836
        },
        {
          "duration": 2.1988614374999997,
          "durationTicks": 3096,
          "midi": 84,
          "name": "C6",
          "ticks": 203760,
          "time": 144.715764375,
          "velocity": 0.30708661417322836
        },
        {
          "duration": 2.1988614374999997,
          "durationTicks": 3096,
          "midi": 53,
          "name": "F3",
          "ticks": 203760,
          "time": 144.715764375,
          "velocity": 0.30708661417322836
        },
        {
          "duration": 2.1988614374999997,
          "durationTicks": 3096,
          "midi": 94,
          "name": "A#6",
          "ticks": 203760,
          "time": 144.715764375,
          "velocity": 0.30708661417322836
        },
        {
          "duration": 2.1988614374999997,
          "durationTicks": 3096,
          "midi": 79,
          "name": "G5",
          "ticks": 203760,
          "time": 144.715764375,
          "velocity": 0.30708661417322836
        },
        {
          "duration": 2.1988614374999997,
          "durationTicks": 3096,
          "midi": 55,
          "name": "G3",
          "ticks": 203760,
          "time": 144.715764375,
          "velocity": 0.30708661417322836
        },
        {
          "duration": 2.1988614374999997,
          "durationTicks": 3096,
          "midi": 24,
          "name": "C1",
          "ticks": 203760,
          "time": 144.715764375,
          "velocity": 0.30708661417322836
        },
        {
          "duration": 2.1988614374999997,
          "durationTicks": 3096,
          "midi": 52,
          "name": "E3",
          "ticks": 203760,
          "time": 144.715764375,
          "velocity": 0.30708661417322836
        },
        {
          "duration": 2.1988614374999997,
          "durationTicks": 3096,
          "midi": 67,
          "name": "G4",
          "ticks": 203760,
          "time": 144.715764375,
          "velocity": 0.30708661417322836
        },
        {
          "duration": 2.1988614374999997,
          "durationTicks": 3096,
          "midi": 40,
          "name": "E2",
          "ticks": 203760,
          "time": 144.715764375,
          "velocity": 0.30708661417322836
        },
        {
          "duration": 2.1988614374999997,
          "durationTicks": 3096,
          "midi": 95,
          "name": "B6",
          "ticks": 203760,
          "time": 144.715764375,
          "velocity": 0.30708661417322836
        },
        {
          "duration": 2.1988614374999997,
          "durationTicks": 3096,
          "midi": 71,
          "name": "B4",
          "ticks": 203760,
          "time": 144.715764375,
          "velocity": 0.30708661417322836
        },
        {
          "duration": 2.1988614374999997,
          "durationTicks": 3096,
          "midi": 76,
          "name": "E5",
          "ticks": 203760,
          "time": 144.715764375,
          "velocity": 0.30708661417322836
        },
        {
          "duration": 2.1988614374999997,
          "durationTicks": 3096,
          "midi": 61,
          "name": "C#4",
          "ticks": 203760,
          "time": 144.715764375,
          "velocity": 0.30708661417322836
        },
        {
          "duration": 2.1988614374999997,
          "durationTicks": 3096,
          "midi": 59,
          "name": "B3",
          "ticks": 203760,
          "time": 144.715764375,
          "velocity": 0.30708661417322836
        },
        {
          "duration": 2.1988614374999997,
          "durationTicks": 3096,
          "midi": 47,
          "name": "B2",
          "ticks": 203760,
          "time": 144.715764375,
          "velocity": 0.30708661417322836
        },
        {
          "duration": 2.1988614374999997,
          "durationTicks": 3096,
          "midi": 37,
          "name": "C#2",
          "ticks": 203760,
          "time": 144.715764375,
          "velocity": 0.30708661417322836
        },
        {
          "duration": 2.1988614374999997,
          "durationTicks": 3096,
          "midi": 55,
          "name": "G3",
          "ticks": 203760,
          "time": 144.715764375,
          "velocity": 0.30708661417322836
        },
        {
          "duration": 2.1988614374999997,
          "durationTicks": 3096,
          "midi": 68,
          "name": "G#4",
          "ticks": 203760,
          "time": 144.715764375,
          "velocity": 0.30708661417322836
        },
        {
          "duration": 2.1988614374999997,
          "durationTicks": 3096,
          "midi": 48,
          "name": "C3",
          "ticks": 203760,
          "time": 144.715764375,
          "velocity": 0.30708661417322836
        },
        {
          "duration": 2.1988614374999997,
          "durationTicks": 3096,
          "midi": 74,
          "name": "D5",
          "ticks": 203760,
          "time": 144.715764375,
          "velocity": 0.30708661417322836
        },
        {
          "duration": 2.1988614374999997,
          "durationTicks": 3096,
          "midi": 42,
          "name": "F#2",
          "ticks": 203760,
          "time": 144.715764375,
          "velocity": 0.30708661417322836
        },
        {
          "duration": 2.1988614374999997,
          "durationTicks": 3096,
          "midi": 34,
          "name": "A#1",
          "ticks": 203760,
          "time": 144.715764375,
          "velocity": 0.30708661417322836
        },
        {
          "duration": 2.1988614374999997,
          "durationTicks": 3096,
          "midi": 92,
          "name": "G#6",
          "ticks": 203760,
          "time": 144.715764375,
          "velocity": 0.30708661417322836
        },
        {
          "duration": 2.1988614374999997,
          "durationTicks": 3096,
          "midi": 65,
          "name": "F4",
          "ticks": 203760,
          "time": 144.715764375,
          "velocity": 0.30708661417322836
        },
        {
          "duration": 2.1988614374999997,
          "durationTicks": 3096,
          "midi": 47,
          "name": "B2",
          "ticks": 203760,
          "time": 144.715764375,
          "velocity": 0.30708661417322836
        },
        {
          "duration": 2.1988614374999997,
          "durationTicks": 3096,
          "midi": 93,
          "name": "A6",
          "ticks": 203760,
          "time": 144.715764375,
          "velocity": 0.30708661417322836
        },
        {
          "duration": 2.1988614374999997,
          "durationTicks": 3096,
          "midi": 81,
          "name": "A5",
          "ticks": 203760,
          "time": 144.715764375,
          "velocity": 0.30708661417322836
        },
        {
          "duration": 2.1988614374999997,
          "durationTicks": 3096,
          "midi": 28,
          "name": "E1",
          "ticks": 203760,
          "time": 144.715764375,
          "velocity": 0.30708661417322836
        },
        {
          "duration": 2.1988614374999997,
          "durationTicks": 3096,
          "midi": 64,
          "name": "E4",
          "ticks": 203760,
          "time": 144.715764375,
          "velocity": 0.30708661417322836
        },
        {
          "duration": 2.1988614374999997,
          "durationTicks": 3096,
          "midi": 51,
          "name": "D#3",
          "ticks": 203760,
          "time": 144.715764375,
          "velocity": 0.30708661417322836
        },
        {
          "duration": 2.1988614374999997,
          "durationTicks": 3096,
          "midi": 53,
          "name": "F3",
          "ticks": 203760,
          "time": 144.715764375,
          "velocity": 0.30708661417322836
        },
        {
          "duration": 2.1988614374999997,
          "durationTicks": 3096,
          "midi": 29,
          "name": "F1",
          "ticks": 203760,
          "time": 144.715764375,
          "velocity": 0.30708661417322836
        },
        {
          "duration": 2.1988614374999997,
          "durationTicks": 3096,
          "midi": 29,
          "name": "F1",
          "ticks": 203760,
          "time": 144.715764375,
          "velocity": 0.30708661417322836
        },
        {
          "duration": 2.1988614374999997,
          "durationTicks": 3096,
          "midi": 85,
          "name": "C#6",
          "ticks": 203760,
          "time": 144.715764375,
          "velocity": 0.30708661417322836
        },
        {
          "duration": 2.1988614374999997,
          "durationTicks": 3096,
          "midi": 85,
          "name": "C#6",
          "ticks": 203760,
          "time": 144.715764375,
          "velocity": 0.30708661417322836
        },
        {
          "duration": 2.1988614374999997,
          "durationTicks": 3096,
          "midi": 89,
          "name": "F6",
          "ticks": 203760,
          "time": 144.715764375,
          "velocity": 0.30708661417322836
        },
        {
          "duration": 2.1988614374999997,
          "durationTicks": 3096,
          "midi": 46,
          "name": "A#2",
          "ticks": 203760,
          "time": 144.715764375,
          "velocity": 0.30708661417322836
        },
        {
          "duration": 2.1988614374999997,
          "durationTicks": 3096,
          "midi": 76,
          "name": "E5",
          "ticks": 203760,
          "time": 144.715764375,
          "velocity": 0.30708661417322836
        },
        {
          "duration": 2.1988614374999997,
          "durationTicks": 3096,
          "midi": 93,
          "name": "A6",
          "ticks": 203760,
          "time": 144.715764375,
          "velocity": 0.30708661417322836
        },
        {
          "duration": 2.1988614374999997,
          "durationTicks": 3096,
          "midi": 64,
          "name": "E4",
          "ticks": 203760,
          "time": 144.715764375,
          "velocity": 0.30708661417322836
        },
        {
          "duration": 2.1988614374999997,
          "durationTicks": 3096,
          "midi": 45,
          "name": "A2",
          "ticks": 203760,
          "time": 144.715764375,
          "velocity": 0.30708661417322836
        },
        {
          "duration": 2.1988614374999997,
          "durationTicks": 3096,
          "midi": 78,
          "name": "F#5",
          "ticks": 203760,
          "time": 144.715764375,
          "velocity": 0.30708661417322836
        },
        {
          "duration": 2.1988614374999997,
          "durationTicks": 3096,
          "midi": 66,
          "name": "F#4",
          "ticks": 203760,
          "time": 144.715764375,
          "velocity": 0.30708661417322836
        },
        {
          "duration": 2.1988614374999997,
          "durationTicks": 3096,
          "midi": 70,
          "name": "A#4",
          "ticks": 203760,
          "time": 144.715764375,
          "velocity": 0.30708661417322836
        },
        {
          "duration": 2.1988614374999997,
          "durationTicks": 3096,
          "midi": 35,
          "name": "B1",
          "ticks": 203760,
          "time": 144.715764375,
          "velocity": 0.30708661417322836
        },
        {
          "duration": 2.1988614374999997,
          "durationTicks": 3096,
          "midi": 80,
          "name": "G#5",
          "ticks": 203760,
          "time": 144.715764375,
          "velocity": 0.30708661417322836
        },
        {
          "duration": 2.1988614374999997,
          "durationTicks": 3096,
          "midi": 39,
          "name": "D#2",
          "ticks": 203760,
          "time": 144.715764375,
          "velocity": 0.30708661417322836
        },
        {
          "duration": 2.1988614374999997,
          "durationTicks": 3096,
          "midi": 63,
          "name": "D#4",
          "ticks": 203760,
          "time": 144.715764375,
          "velocity": 0.30708661417322836
        },
        {
          "duration": 2.1988614374999997,
          "durationTicks": 3096,
          "midi": 82,
          "name": "A#5",
          "ticks": 203760,
          "time": 144.715764375,
          "velocity": 0.30708661417322836
        },
        {
          "duration": 2.1988614374999997,
          "durationTicks": 3096,
          "midi": 49,
          "name": "C#3",
          "ticks": 203760,
          "time": 144.715764375,
          "velocity": 0.30708661417322836
        },
        {
          "duration": 2.1988614374999997,
          "durationTicks": 3096,
          "midi": 63,
          "name": "D#4",
          "ticks": 203760,
          "time": 144.715764375,
          "velocity": 0.30708661417322836
        },
        {
          "duration": 2.1988614374999997,
          "durationTicks": 3096,
          "midi": 90,
          "name": "F#6",
          "ticks": 203760,
          "time": 144.715764375,
          "velocity": 0.30708661417322836
        },
        {
          "duration": 2.1988614374999997,
          "durationTicks": 3096,
          "midi": 35,
          "name": "B1",
          "ticks": 203760,
          "time": 144.715764375,
          "velocity": 0.30708661417322836
        },
        {
          "duration": 2.1988614374999997,
          "durationTicks": 3096,
          "midi": 32,
          "name": "G#1",
          "ticks": 203760,
          "time": 144.715764375,
          "velocity": 0.30708661417322836
        },
        {
          "duration": 2.1988614374999997,
          "durationTicks": 3096,
          "midi": 94,
          "name": "A#6",
          "ticks": 203760,
          "time": 144.715764375,
          "velocity": 0.30708661417322836
        },
        {
          "duration": 2.1988614374999997,
          "durationTicks": 3096,
          "midi": 58,
          "name": "A#3",
          "ticks": 203760,
          "time": 144.715764375,
          "velocity": 0.30708661417322836
        },
        {
          "duration": 2.1988614374999997,
          "durationTicks": 3096,
          "midi": 82,
          "name": "A#5",
          "ticks": 203760,
          "time": 144.715764375,
          "velocity": 0.30708661417322836
        },
        {
          "duration": 2.1988614374999997,
          "durationTicks": 3096,
          "midi": 92,
          "name": "G#6",
          "ticks": 203760,
          "time": 144.715764375,
          "velocity": 0.30708661417322836
        },
        {
          "duration": 2.1988614374999997,
          "durationTicks": 3096,
          "midi": 65,
          "name": "F4",
          "ticks": 203760,
          "time": 144.715764375,
          "velocity": 0.30708661417322836
        },
        {
          "duration": 2.1988614374999997,
          "durationTicks": 3096,
          "midi": 31,
          "name": "G1",
          "ticks": 203760,
          "time": 144.715764375,
          "velocity": 0.30708661417322836
        },
        {
          "duration": 2.1988614374999997,
          "durationTicks": 3096,
          "midi": 30,
          "name": "F#1",
          "ticks": 203760,
          "time": 144.715764375,
          "velocity": 0.30708661417322836
        },
        {
          "duration": 2.1988614374999997,
          "durationTicks": 3096,
          "midi": 67,
          "name": "G4",
          "ticks": 203760,
          "time": 144.715764375,
          "velocity": 0.30708661417322836
        },
        {
          "duration": 2.1988614374999997,
          "durationTicks": 3096,
          "midi": 46,
          "name": "A#2",
          "ticks": 203760,
          "time": 144.715764375,
          "velocity": 0.30708661417322836
        },
        {
          "duration": 2.1988614374999997,
          "durationTicks": 3096,
          "midi": 80,
          "name": "G#5",
          "ticks": 203760,
          "time": 144.715764375,
          "velocity": 0.30708661417322836
        },
        {
          "duration": 2.1988614374999997,
          "durationTicks": 3096,
          "midi": 74,
          "name": "D5",
          "ticks": 203760,
          "time": 144.715764375,
          "velocity": 0.30708661417322836
        },
        {
          "duration": 2.1988614374999997,
          "durationTicks": 3096,
          "midi": 62,
          "name": "D4",
          "ticks": 203760,
          "time": 144.715764375,
          "velocity": 0.30708661417322836
        },
        {
          "duration": 2.1988614374999997,
          "durationTicks": 3096,
          "midi": 66,
          "name": "F#4",
          "ticks": 203760,
          "time": 144.715764375,
          "velocity": 0.30708661417322836
        },
        {
          "duration": 2.1988614374999997,
          "durationTicks": 3096,
          "midi": 90,
          "name": "F#6",
          "ticks": 203760,
          "time": 144.715764375,
          "velocity": 0.30708661417322836
        },
        {
          "duration": 2.1988614374999997,
          "durationTicks": 3096,
          "midi": 47,
          "name": "B2",
          "ticks": 203760,
          "time": 144.715764375,
          "velocity": 0.30708661417322836
        },
        {
          "duration": 2.1988614374999997,
          "durationTicks": 3096,
          "midi": 69,
          "name": "A4",
          "ticks": 203760,
          "time": 144.715764375,
          "velocity": 0.30708661417322836
        },
        {
          "duration": 2.1988614374999997,
          "durationTicks": 3096,
          "midi": 72,
          "name": "C5",
          "ticks": 203760,
          "time": 144.715764375,
          "velocity": 0.30708661417322836
        },
        {
          "duration": 2.1988614374999997,
          "durationTicks": 3096,
          "midi": 65,
          "name": "F4",
          "ticks": 203760,
          "time": 144.715764375,
          "velocity": 0.30708661417322836
        },
        {
          "duration": 2.1988614374999997,
          "durationTicks": 3096,
          "midi": 62,
          "name": "D4",
          "ticks": 203760,
          "time": 144.715764375,
          "velocity": 0.30708661417322836
        },
        {
          "duration": 2.1988614374999997,
          "durationTicks": 3096,
          "midi": 48,
          "name": "C3",
          "ticks": 203760,
          "time": 144.715764375,
          "velocity": 0.30708661417322836
        },
        {
          "duration": 2.1988614374999997,
          "durationTicks": 3096,
          "midi": 63,
          "name": "D#4",
          "ticks": 203760,
          "time": 144.715764375,
          "velocity": 0.30708661417322836
        },
        {
          "duration": 2.1988614374999997,
          "durationTicks": 3096,
          "midi": 28,
          "name": "E1",
          "ticks": 203760,
          "time": 144.715764375,
          "velocity": 0.30708661417322836
        },
        {
          "duration": 2.1988614374999997,
          "durationTicks": 3096,
          "midi": 38,
          "name": "D2",
          "ticks": 203760,
          "time": 144.715764375,
          "velocity": 0.30708661417322836
        },
        {
          "duration": 2.1988614374999997,
          "durationTicks": 3096,
          "midi": 71,
          "name": "B4",
          "ticks": 203760,
          "time": 144.715764375,
          "velocity": 0.30708661417322836
        },
        {
          "duration": 2.1988614374999997,
          "durationTicks": 3096,
          "midi": 79,
          "name": "G5",
          "ticks": 203760,
          "time": 144.715764375,
          "velocity": 0.30708661417322836
        },
        {
          "duration": 2.1988614374999997,
          "durationTicks": 3096,
          "midi": 60,
          "name": "C4",
          "ticks": 203760,
          "time": 144.715764375,
          "velocity": 0.30708661417322836
        },
        {
          "duration": 2.1988614374999997,
          "durationTicks": 3096,
          "midi": 67,
          "name": "G4",
          "ticks": 203760,
          "time": 144.715764375,
          "velocity": 0.30708661417322836
        },
        {
          "duration": 2.1988614374999997,
          "durationTicks": 3096,
          "midi": 56,
          "name": "G#3",
          "ticks": 203760,
          "time": 144.715764375,
          "velocity": 0.30708661417322836
        },
        {
          "duration": 2.1988614374999997,
          "durationTicks": 3096,
          "midi": 34,
          "name": "A#1",
          "ticks": 203760,
          "time": 144.715764375,
          "velocity": 0.30708661417322836
        },
        {
          "duration": 2.1988614374999997,
          "durationTicks": 3096,
          "midi": 27,
          "name": "D#1",
          "ticks": 203760,
          "time": 144.715764375,
          "velocity": 0.30708661417322836
        },
        {
          "duration": 2.1988614374999997,
          "durationTicks": 3096,
          "midi": 58,
          "name": "A#3",
          "ticks": 203760,
          "time": 144.715764375,
          "velocity": 0.30708661417322836
        },
        {
          "duration": 2.1988614374999997,
          "durationTicks": 3096,
          "midi": 55,
          "name": "G3",
          "ticks": 203760,
          "time": 144.715764375,
          "velocity": 0.30708661417322836
        },
        {
          "duration": 2.1988614374999997,
          "durationTicks": 3096,
          "midi": 67,
          "name": "G4",
          "ticks": 203760,
          "time": 144.715764375,
          "velocity": 0.30708661417322836
        },
        {
          "duration": 2.1988614374999997,
          "durationTicks": 3096,
          "midi": 61,
          "name": "C#4",
          "ticks": 203760,
          "time": 144.715764375,
          "velocity": 0.30708661417322836
        },
        {
          "duration": 2.1988614374999997,
          "durationTicks": 3096,
          "midi": 46,
          "name": "A#2",
          "ticks": 203760,
          "time": 144.715764375,
          "velocity": 0.30708661417322836
        },
        {
          "duration": 2.1988614374999997,
          "durationTicks": 3096,
          "midi": 85,
          "name": "C#6",
          "ticks": 203760,
          "time": 144.715764375,
          "velocity": 0.30708661417322836
        },
        {
          "duration": 2.1988614374999997,
          "durationTicks": 3096,
          "midi": 60,
          "name": "C4",
          "ticks": 203760,
          "time": 144.715764375,
          "velocity": 0.30708661417322836
        },
        {
          "duration": 2.1988614374999997,
          "durationTicks": 3096,
          "midi": 26,
          "name": "D1",
          "ticks": 203760,
          "time": 144.715764375,
          "velocity": 0.30708661417322836
        },
        {
          "duration": 2.1988614374999997,
          "durationTicks": 3096,
          "midi": 38,
          "name": "D2",
          "ticks": 203760,
          "time": 144.715764375,
          "velocity": 0.30708661417322836
        },
        {
          "duration": 2.1988614374999997,
          "durationTicks": 3096,
          "midi": 50,
          "name": "D3",
          "ticks": 203760,
          "time": 144.715764375,
          "velocity": 0.30708661417322836
        },
        {
          "duration": 2.1988614374999997,
          "durationTicks": 3096,
          "midi": 79,
          "name": "G5",
          "ticks": 203760,
          "time": 144.715764375,
          "velocity": 0.30708661417322836
        },
        {
          "duration": 2.1988614374999997,
          "durationTicks": 3096,
          "midi": 59,
          "name": "B3",
          "ticks": 203760,
          "time": 144.715764375,
          "velocity": 0.30708661417322836
        },
        {
          "duration": 2.1988614374999997,
          "durationTicks": 3096,
          "midi": 51,
          "name": "D#3",
          "ticks": 203760,
          "time": 144.715764375,
          "velocity": 0.30708661417322836
        },
        {
          "duration": 2.1988614374999997,
          "durationTicks": 3096,
          "midi": 74,
          "name": "D5",
          "ticks": 203760,
          "time": 144.715764375,
          "velocity": 0.30708661417322836
        },
        {
          "duration": 2.1988614374999997,
          "durationTicks": 3096,
          "midi": 82,
          "name": "A#5",
          "ticks": 203784,
          "time": 144.7328098125,
          "velocity": 0.30708661417322836
        },
        {
          "duration": 2.1988614374999997,
          "durationTicks": 3096,
          "midi": 80,
          "name": "G#5",
          "ticks": 203784,
          "time": 144.7328098125,
          "velocity": 0.30708661417322836
        },
        {
          "duration": 2.1988614374999997,
          "durationTicks": 3096,
          "midi": 35,
          "name": "B1",
          "ticks": 203784,
          "time": 144.7328098125,
          "velocity": 0.30708661417322836
        },
        {
          "duration": 2.1988614374999997,
          "durationTicks": 3096,
          "midi": 33,
          "name": "A1",
          "ticks": 203784,
          "time": 144.7328098125,
          "velocity": 0.30708661417322836
        },
        {
          "duration": 2.1988614374999997,
          "durationTicks": 3096,
          "midi": 69,
          "name": "A4",
          "ticks": 203784,
          "time": 144.7328098125,
          "velocity": 0.30708661417322836
        },
        {
          "duration": 2.1988614374999997,
          "durationTicks": 3096,
          "midi": 58,
          "name": "A#3",
          "ticks": 203784,
          "time": 144.7328098125,
          "velocity": 0.30708661417322836
        },
        {
          "duration": 2.1988614374999997,
          "durationTicks": 3096,
          "midi": 82,
          "name": "A#5",
          "ticks": 203784,
          "time": 144.7328098125,
          "velocity": 0.30708661417322836
        },
        {
          "duration": 2.1988614374999997,
          "durationTicks": 3096,
          "midi": 60,
          "name": "C4",
          "ticks": 203784,
          "time": 144.7328098125,
          "velocity": 0.30708661417322836
        },
        {
          "duration": 2.1988614374999997,
          "durationTicks": 3096,
          "midi": 74,
          "name": "D5",
          "ticks": 203784,
          "time": 144.7328098125,
          "velocity": 0.30708661417322836
        },
        {
          "duration": 2.1988614374999997,
          "durationTicks": 3096,
          "midi": 67,
          "name": "G4",
          "ticks": 203784,
          "time": 144.7328098125,
          "velocity": 0.30708661417322836
        },
        {
          "duration": 2.1988614374999997,
          "durationTicks": 3096,
          "midi": 91,
          "name": "G6",
          "ticks": 203784,
          "time": 144.7328098125,
          "velocity": 0.30708661417322836
        },
        {
          "duration": 2.1988614374999997,
          "durationTicks": 3096,
          "midi": 89,
          "name": "F6",
          "ticks": 203784,
          "time": 144.7328098125,
          "velocity": 0.30708661417322836
        },
        {
          "duration": 2.1988614374999997,
          "durationTicks": 3096,
          "midi": 93,
          "name": "A6",
          "ticks": 203784,
          "time": 144.7328098125,
          "velocity": 0.30708661417322836
        },
        {
          "duration": 2.1988614374999997,
          "durationTicks": 3096,
          "midi": 79,
          "name": "G5",
          "ticks": 203784,
          "time": 144.7328098125,
          "velocity": 0.30708661417322836
        },
        {
          "duration": 2.1988614374999997,
          "durationTicks": 3096,
          "midi": 75,
          "name": "D#5",
          "ticks": 203784,
          "time": 144.7328098125,
          "velocity": 0.30708661417322836
        },
        {
          "duration": 2.1988614374999997,
          "durationTicks": 3096,
          "midi": 76,
          "name": "E5",
          "ticks": 203784,
          "time": 144.7328098125,
          "velocity": 0.30708661417322836
        },
        {
          "duration": 2.1988614374999997,
          "durationTicks": 3096,
          "midi": 54,
          "name": "F#3",
          "ticks": 203784,
          "time": 144.7328098125,
          "velocity": 0.30708661417322836
        },
        {
          "duration": 2.1988614374999997,
          "durationTicks": 3096,
          "midi": 89,
          "name": "F6",
          "ticks": 203784,
          "time": 144.7328098125,
          "velocity": 0.30708661417322836
        },
        {
          "duration": 2.1988614374999997,
          "durationTicks": 3096,
          "midi": 45,
          "name": "A2",
          "ticks": 203784,
          "time": 144.7328098125,
          "velocity": 0.30708661417322836
        },
        {
          "duration": 2.1988614374999997,
          "durationTicks": 3096,
          "midi": 36,
          "name": "C2",
          "ticks": 203784,
          "time": 144.7328098125,
          "velocity": 0.30708661417322836
        },
        {
          "duration": 2.1988614374999997,
          "durationTicks": 3096,
          "midi": 82,
          "name": "A#5",
          "ticks": 203784,
          "time": 144.7328098125,
          "velocity": 0.30708661417322836
        },
        {
          "duration": 2.1988614374999997,
          "durationTicks": 3096,
          "midi": 47,
          "name": "B2",
          "ticks": 203784,
          "time": 144.7328098125,
          "velocity": 0.30708661417322836
        },
        {
          "duration": 2.1988614374999997,
          "durationTicks": 3096,
          "midi": 68,
          "name": "G#4",
          "ticks": 203784,
          "time": 144.7328098125,
          "velocity": 0.30708661417322836
        },
        {
          "duration": 2.1988614374999997,
          "durationTicks": 3096,
          "midi": 46,
          "name": "A#2",
          "ticks": 203784,
          "time": 144.7328098125,
          "velocity": 0.30708661417322836
        },
        {
          "duration": 2.1988614374999997,
          "durationTicks": 3096,
          "midi": 85,
          "name": "C#6",
          "ticks": 203784,
          "time": 144.7328098125,
          "velocity": 0.30708661417322836
        },
        {
          "duration": 2.1988614374999997,
          "durationTicks": 3096,
          "midi": 85,
          "name": "C#6",
          "ticks": 203784,
          "time": 144.7328098125,
          "velocity": 0.30708661417322836
        },
        {
          "duration": 2.1988614374999997,
          "durationTicks": 3096,
          "midi": 41,
          "name": "F2",
          "ticks": 203784,
          "time": 144.7328098125,
          "velocity": 0.30708661417322836
        },
        {
          "duration": 2.1988614374999997,
          "durationTicks": 3096,
          "midi": 72,
          "name": "C5",
          "ticks": 203784,
          "time": 144.7328098125,
          "velocity": 0.30708661417322836
        },
        {
          "duration": 2.1988614374999997,
          "durationTicks": 3096,
          "midi": 82,
          "name": "A#5",
          "ticks": 203784,
          "time": 144.7328098125,
          "velocity": 0.30708661417322836
        },
        {
          "duration": 2.1988614374999997,
          "durationTicks": 3096,
          "midi": 78,
          "name": "F#5",
          "ticks": 203784,
          "time": 144.7328098125,
          "velocity": 0.30708661417322836
        },
        {
          "duration": 2.1988614374999997,
          "durationTicks": 3096,
          "midi": 55,
          "name": "G3",
          "ticks": 203784,
          "time": 144.7328098125,
          "velocity": 0.30708661417322836
        },
        {
          "duration": 2.1988614374999997,
          "durationTicks": 3096,
          "midi": 77,
          "name": "F5",
          "ticks": 203784,
          "time": 144.7328098125,
          "velocity": 0.30708661417322836
        },
        {
          "duration": 2.1988614374999997,
          "durationTicks": 3096,
          "midi": 89,
          "name": "F6",
          "ticks": 203784,
          "time": 144.7328098125,
          "velocity": 0.30708661417322836
        },
        {
          "duration": 2.1988614374999997,
          "durationTicks": 3096,
          "midi": 81,
          "name": "A5",
          "ticks": 203784,
          "time": 144.7328098125,
          "velocity": 0.30708661417322836
        },
        {
          "duration": 2.1988614374999997,
          "durationTicks": 3096,
          "midi": 34,
          "name": "A#1",
          "ticks": 203784,
          "time": 144.7328098125,
          "velocity": 0.30708661417322836
        },
        {
          "duration": 2.1988614374999997,
          "durationTicks": 3096,
          "midi": 65,
          "name": "F4",
          "ticks": 203784,
          "time": 144.7328098125,
          "velocity": 0.30708661417322836
        },
        {
          "duration": 2.1988614374999997,
          "durationTicks": 3096,
          "midi": 91,
          "name": "G6",
          "ticks": 203784,
          "time": 144.7328098125,
          "velocity": 0.30708661417322836
        },
        {
          "duration": 2.1988614374999997,
          "durationTicks": 3096,
          "midi": 46,
          "name": "A#2",
          "ticks": 203784,
          "time": 144.7328098125,
          "velocity": 0.30708661417322836
        },
        {
          "duration": 2.1988614374999997,
          "durationTicks": 3096,
          "midi": 53,
          "name": "F3",
          "ticks": 203784,
          "time": 144.7328098125,
          "velocity": 0.30708661417322836
        },
        {
          "duration": 2.1988614374999997,
          "durationTicks": 3096,
          "midi": 56,
          "name": "G#3",
          "ticks": 203784,
          "time": 144.7328098125,
          "velocity": 0.30708661417322836
        },
        {
          "duration": 2.1988614374999997,
          "durationTicks": 3096,
          "midi": 37,
          "name": "C#2",
          "ticks": 203784,
          "time": 144.7328098125,
          "velocity": 0.30708661417322836
        },
        {
          "duration": 2.1988614374999997,
          "durationTicks": 3096,
          "midi": 38,
          "name": "D2",
          "ticks": 203784,
          "time": 144.7328098125,
          "velocity": 0.30708661417322836
        },
        {
          "duration": 2.1988614374999997,
          "durationTicks": 3096,
          "midi": 94,
          "name": "A#6",
          "ticks": 203784,
          "time": 144.7328098125,
          "velocity": 0.30708661417322836
        },
        {
          "duration": 2.1988614374999997,
          "durationTicks": 3096,
          "midi": 38,
          "name": "D2",
          "ticks": 203784,
          "time": 144.7328098125,
          "velocity": 0.30708661417322836
        },
        {
          "duration": 2.1988614374999997,
          "durationTicks": 3096,
          "midi": 34,
          "name": "A#1",
          "ticks": 203784,
          "time": 144.7328098125,
          "velocity": 0.30708661417322836
        },
        {
          "duration": 2.1988614374999997,
          "durationTicks": 3096,
          "midi": 30,
          "name": "F#1",
          "ticks": 203784,
          "time": 144.7328098125,
          "velocity": 0.30708661417322836
        },
        {
          "duration": 2.1988614374999997,
          "durationTicks": 3096,
          "midi": 85,
          "name": "C#6",
          "ticks": 203784,
          "time": 144.7328098125,
          "velocity": 0.30708661417322836
        },
        {
          "duration": 2.1988614374999997,
          "durationTicks": 3096,
          "midi": 35,
          "name": "B1",
          "ticks": 203784,
          "time": 144.7328098125,
          "velocity": 0.30708661417322836
        },
        {
          "duration": 2.1988614374999997,
          "durationTicks": 3096,
          "midi": 63,
          "name": "D#4",
          "ticks": 203784,
          "time": 144.7328098125,
          "velocity": 0.30708661417322836
        },
        {
          "duration": 2.1988614374999997,
          "durationTicks": 3096,
          "midi": 84,
          "name": "C6",
          "ticks": 203784,
          "time": 144.7328098125,
          "velocity": 0.30708661417322836
        },
        {
          "duration": 2.1988614374999997,
          "durationTicks": 3096,
          "midi": 57,
          "name": "A3",
          "ticks": 203784,
          "time": 144.7328098125,
          "velocity": 0.30708661417322836
        },
        {
          "duration": 2.1988614374999997,
          "durationTicks": 3096,
          "midi": 37,
          "name": "C#2",
          "ticks": 203784,
          "time": 144.7328098125,
          "velocity": 0.30708661417322836
        },
        {
          "duration": 2.1988614374999997,
          "durationTicks": 3096,
          "midi": 59,
          "name": "B3",
          "ticks": 203784,
          "time": 144.7328098125,
          "velocity": 0.30708661417322836
        },
        {
          "duration": 2.1988614374999997,
          "durationTicks": 3096,
          "midi": 88,
          "name": "E6",
          "ticks": 203784,
          "time": 144.7328098125,
          "velocity": 0.30708661417322836
        },
        {
          "duration": 2.1988614374999997,
          "durationTicks": 3096,
          "midi": 31,
          "name": "G1",
          "ticks": 203784,
          "time": 144.7328098125,
          "velocity": 0.30708661417322836
        },
        {
          "duration": 2.1988614374999997,
          "durationTicks": 3096,
          "midi": 71,
          "name": "B4",
          "ticks": 203784,
          "time": 144.7328098125,
          "velocity": 0.30708661417322836
        },
        {
          "duration": 2.1988614374999997,
          "durationTicks": 3096,
          "midi": 28,
          "name": "E1",
          "ticks": 203784,
          "time": 144.7328098125,
          "velocity": 0.30708661417322836
        },
        {
          "duration": 2.1988614374999997,
          "durationTicks": 3096,
          "midi": 66,
          "name": "F#4",
          "ticks": 203784,
          "time": 144.7328098125,
          "velocity": 0.30708661417322836
        },
        {
          "duration": 2.1988614374999997,
          "durationTicks": 3096,
          "midi": 34,
          "name": "A#1",
          "ticks": 203784,
          "time": 144.7328098125,
          "velocity": 0.30708661417322836
        },
        {
          "duration": 2.1988614374999997,
          "durationTicks": 3096,
          "midi": 65,
          "name": "F4",
          "ticks": 203784,
          "time": 144.7328098125,
          "velocity": 0.30708661417322836
        },
        {
          "duration": 2.1988614374999997,
          "durationTicks": 3096,
          "midi": 27,
          "name": "D#1",
          "ticks": 203784,
          "time": 144.7328098125,
          "velocity": 0.30708661417322836
        },
        {
          "duration": 2.1988614374999997,
          "durationTicks": 3096,
          "midi": 63,
          "name": "D#4",
          "ticks": 203784,
          "time": 144.7328098125,
          "velocity": 0.30708661417322836
        },
        {
          "duration": 2.1988614374999997,
          "durationTicks": 3096,
          "midi": 50,
          "name": "D3",
          "ticks": 203784,
          "time": 144.7328098125,
          "velocity": 0.30708661417322836
        },
        {
          "duration": 2.1988614374999997,
          "durationTicks": 3096,
          "midi": 60,
          "name": "C4",
          "ticks": 203784,
          "time": 144.7328098125,
          "velocity": 0.30708661417322836
        },
        {
          "duration": 2.1988614374999997,
          "durationTicks": 3096,
          "midi": 26,
          "name": "D1",
          "ticks": 203784,
          "time": 144.7328098125,
          "velocity": 0.30708661417322836
        },
        {
          "duration": 2.1988614374999997,
          "durationTicks": 3096,
          "midi": 59,
          "name": "B3",
          "ticks": 203784,
          "time": 144.7328098125,
          "velocity": 0.30708661417322836
        },
        {
          "duration": 2.1988614374999997,
          "durationTicks": 3096,
          "midi": 94,
          "name": "A#6",
          "ticks": 203784,
          "time": 144.7328098125,
          "velocity": 0.30708661417322836
        },
        {
          "duration": 2.1988614374999997,
          "durationTicks": 3096,
          "midi": 57,
          "name": "A3",
          "ticks": 203784,
          "time": 144.7328098125,
          "velocity": 0.30708661417322836
        },
        {
          "duration": 2.1988614374999997,
          "durationTicks": 3096,
          "midi": 94,
          "name": "A#6",
          "ticks": 203784,
          "time": 144.7328098125,
          "velocity": 0.30708661417322836
        },
        {
          "duration": 2.1988614374999997,
          "durationTicks": 3096,
          "midi": 58,
          "name": "A#3",
          "ticks": 203784,
          "time": 144.7328098125,
          "velocity": 0.30708661417322836
        },
        {
          "duration": 2.1988614374999997,
          "durationTicks": 3096,
          "midi": 48,
          "name": "C3",
          "ticks": 203784,
          "time": 144.7328098125,
          "velocity": 0.30708661417322836
        },
        {
          "duration": 2.1988614374999997,
          "durationTicks": 3096,
          "midi": 92,
          "name": "G#6",
          "ticks": 203784,
          "time": 144.7328098125,
          "velocity": 0.30708661417322836
        },
        {
          "duration": 2.1988614374999997,
          "durationTicks": 3096,
          "midi": 94,
          "name": "A#6",
          "ticks": 203784,
          "time": 144.7328098125,
          "velocity": 0.30708661417322836
        },
        {
          "duration": 2.1988614374999997,
          "durationTicks": 3096,
          "midi": 48,
          "name": "C3",
          "ticks": 203784,
          "time": 144.7328098125,
          "velocity": 0.30708661417322836
        },
        {
          "duration": 2.1988614374999997,
          "durationTicks": 3096,
          "midi": 85,
          "name": "C#6",
          "ticks": 203784,
          "time": 144.7328098125,
          "velocity": 0.30708661417322836
        },
        {
          "duration": 2.1988614374999997,
          "durationTicks": 3096,
          "midi": 70,
          "name": "A#4",
          "ticks": 203784,
          "time": 144.7328098125,
          "velocity": 0.30708661417322836
        },
        {
          "duration": 2.1988614374999997,
          "durationTicks": 3096,
          "midi": 94,
          "name": "A#6",
          "ticks": 203784,
          "time": 144.7328098125,
          "velocity": 0.30708661417322836
        },
        {
          "duration": 2.1988614374999997,
          "durationTicks": 3096,
          "midi": 45,
          "name": "A2",
          "ticks": 203784,
          "time": 144.7328098125,
          "velocity": 0.30708661417322836
        },
        {
          "duration": 2.1988614374999997,
          "durationTicks": 3096,
          "midi": 49,
          "name": "C#3",
          "ticks": 203784,
          "time": 144.7328098125,
          "velocity": 0.30708661417322836
        },
        {
          "duration": 2.1988614374999997,
          "durationTicks": 3096,
          "midi": 53,
          "name": "F3",
          "ticks": 203784,
          "time": 144.7328098125,
          "velocity": 0.30708661417322836
        },
        {
          "duration": 2.1988614374999997,
          "durationTicks": 3096,
          "midi": 32,
          "name": "G#1",
          "ticks": 203784,
          "time": 144.7328098125,
          "velocity": 0.30708661417322836
        },
        {
          "duration": 2.1988614374999997,
          "durationTicks": 3096,
          "midi": 64,
          "name": "E4",
          "ticks": 203784,
          "time": 144.7328098125,
          "velocity": 0.30708661417322836
        },
        {
          "duration": 2.1988614374999997,
          "durationTicks": 3096,
          "midi": 34,
          "name": "A#1",
          "ticks": 203784,
          "time": 144.7328098125,
          "velocity": 0.30708661417322836
        },
        {
          "duration": 2.1988614374999997,
          "durationTicks": 3096,
          "midi": 61,
          "name": "C#4",
          "ticks": 203784,
          "time": 144.7328098125,
          "velocity": 0.30708661417322836
        },
        {
          "duration": 2.1988614374999997,
          "durationTicks": 3096,
          "midi": 52,
          "name": "E3",
          "ticks": 203784,
          "time": 144.7328098125,
          "velocity": 0.30708661417322836
        },
        {
          "duration": 2.1988614374999997,
          "durationTicks": 3096,
          "midi": 56,
          "name": "G#3",
          "ticks": 203784,
          "time": 144.7328098125,
          "velocity": 0.30708661417322836
        },
        {
          "duration": 2.1988614374999997,
          "durationTicks": 3096,
          "midi": 29,
          "name": "F1",
          "ticks": 203784,
          "time": 144.7328098125,
          "velocity": 0.30708661417322836
        },
        {
          "duration": 2.1988614374999997,
          "durationTicks": 3096,
          "midi": 52,
          "name": "E3",
          "ticks": 203784,
          "time": 144.7328098125,
          "velocity": 0.30708661417322836
        },
        {
          "duration": 2.1988614374999997,
          "durationTicks": 3096,
          "midi": 46,
          "name": "A#2",
          "ticks": 203784,
          "time": 144.7328098125,
          "velocity": 0.30708661417322836
        },
        {
          "duration": 2.1988614374999997,
          "durationTicks": 3096,
          "midi": 49,
          "name": "C#3",
          "ticks": 203784,
          "time": 144.7328098125,
          "velocity": 0.30708661417322836
        },
        {
          "duration": 2.1988614374999997,
          "durationTicks": 3096,
          "midi": 24,
          "name": "C1",
          "ticks": 203784,
          "time": 144.7328098125,
          "velocity": 0.30708661417322836
        },
        {
          "duration": 2.1988614374999997,
          "durationTicks": 3096,
          "midi": 44,
          "name": "G#2",
          "ticks": 203784,
          "time": 144.7328098125,
          "velocity": 0.30708661417322836
        },
        {
          "duration": 2.1988614374999997,
          "durationTicks": 3096,
          "midi": 34,
          "name": "A#1",
          "ticks": 203784,
          "time": 144.7328098125,
          "velocity": 0.30708661417322836
        },
        {
          "duration": 2.1988614374999997,
          "durationTicks": 3096,
          "midi": 43,
          "name": "G2",
          "ticks": 203784,
          "time": 144.7328098125,
          "velocity": 0.30708661417322836
        },
        {
          "duration": 2.1988614374999997,
          "durationTicks": 3096,
          "midi": 24,
          "name": "C1",
          "ticks": 203784,
          "time": 144.7328098125,
          "velocity": 0.30708661417322836
        },
        {
          "duration": 2.1988614374999997,
          "durationTicks": 3096,
          "midi": 69,
          "name": "A4",
          "ticks": 203784,
          "time": 144.7328098125,
          "velocity": 0.30708661417322836
        },
        {
          "duration": 2.1988614374999997,
          "durationTicks": 3096,
          "midi": 85,
          "name": "C#6",
          "ticks": 203784,
          "time": 144.7328098125,
          "velocity": 0.30708661417322836
        },
        {
          "duration": 2.1988614374999997,
          "durationTicks": 3096,
          "midi": 85,
          "name": "C#6",
          "ticks": 203784,
          "time": 144.7328098125,
          "velocity": 0.30708661417322836
        },
        {
          "duration": 2.1988614374999997,
          "durationTicks": 3096,
          "midi": 95,
          "name": "B6",
          "ticks": 203784,
          "time": 144.7328098125,
          "velocity": 0.30708661417322836
        },
        {
          "duration": 2.1988614374999997,
          "durationTicks": 3096,
          "midi": 77,
          "name": "F5",
          "ticks": 203784,
          "time": 144.7328098125,
          "velocity": 0.30708661417322836
        },
        {
          "duration": 2.1988614374999997,
          "durationTicks": 3096,
          "midi": 68,
          "name": "G#4",
          "ticks": 203784,
          "time": 144.7328098125,
          "velocity": 0.30708661417322836
        },
        {
          "duration": 2.1988614374999997,
          "durationTicks": 3096,
          "midi": 70,
          "name": "A#4",
          "ticks": 203784,
          "time": 144.7328098125,
          "velocity": 0.30708661417322836
        },
        {
          "duration": 2.1988614374999997,
          "durationTicks": 3096,
          "midi": 46,
          "name": "A#2",
          "ticks": 203784,
          "time": 144.7328098125,
          "velocity": 0.30708661417322836
        },
        {
          "duration": 2.1988614374999997,
          "durationTicks": 3096,
          "midi": 31,
          "name": "G1",
          "ticks": 203784,
          "time": 144.7328098125,
          "velocity": 0.30708661417322836
        },
        {
          "duration": 2.1988614374999997,
          "durationTicks": 3096,
          "midi": 33,
          "name": "A1",
          "ticks": 203784,
          "time": 144.7328098125,
          "velocity": 0.30708661417322836
        },
        {
          "duration": 2.1988614374999997,
          "durationTicks": 3096,
          "midi": 34,
          "name": "A#1",
          "ticks": 203784,
          "time": 144.7328098125,
          "velocity": 0.30708661417322836
        },
        {
          "duration": 2.1988614374999997,
          "durationTicks": 3096,
          "midi": 47,
          "name": "B2",
          "ticks": 203784,
          "time": 144.7328098125,
          "velocity": 0.30708661417322836
        },
        {
          "duration": 2.1988614374999997,
          "durationTicks": 3096,
          "midi": 83,
          "name": "B5",
          "ticks": 203784,
          "time": 144.7328098125,
          "velocity": 0.30708661417322836
        },
        {
          "duration": 2.1988614374999997,
          "durationTicks": 3096,
          "midi": 40,
          "name": "E2",
          "ticks": 203784,
          "time": 144.7328098125,
          "velocity": 0.30708661417322836
        },
        {
          "duration": 2.1988614374999997,
          "durationTicks": 3096,
          "midi": 26,
          "name": "D1",
          "ticks": 203784,
          "time": 144.7328098125,
          "velocity": 0.30708661417322836
        },
        {
          "duration": 2.1988614374999997,
          "durationTicks": 3096,
          "midi": 44,
          "name": "G#2",
          "ticks": 203784,
          "time": 144.7328098125,
          "velocity": 0.30708661417322836
        },
        {
          "duration": 2.1988614374999997,
          "durationTicks": 3096,
          "midi": 81,
          "name": "A5",
          "ticks": 203784,
          "time": 144.7328098125,
          "velocity": 0.30708661417322836
        },
        {
          "duration": 2.1988614374999997,
          "durationTicks": 3096,
          "midi": 66,
          "name": "F#4",
          "ticks": 203784,
          "time": 144.7328098125,
          "velocity": 0.30708661417322836
        },
        {
          "duration": 2.1988614374999997,
          "durationTicks": 3096,
          "midi": 83,
          "name": "B5",
          "ticks": 203784,
          "time": 144.7328098125,
          "velocity": 0.30708661417322836
        },
        {
          "duration": 2.1988614374999997,
          "durationTicks": 3096,
          "midi": 42,
          "name": "F#2",
          "ticks": 203784,
          "time": 144.7328098125,
          "velocity": 0.30708661417322836
        },
        {
          "duration": 2.1988614374999997,
          "durationTicks": 3096,
          "midi": 89,
          "name": "F6",
          "ticks": 203784,
          "time": 144.7328098125,
          "velocity": 0.30708661417322836
        },
        {
          "duration": 2.1988614374999997,
          "durationTicks": 3096,
          "midi": 39,
          "name": "D#2",
          "ticks": 203784,
          "time": 144.7328098125,
          "velocity": 0.30708661417322836
        },
        {
          "duration": 2.1988614374999997,
          "durationTicks": 3096,
          "midi": 27,
          "name": "D#1",
          "ticks": 203784,
          "time": 144.7328098125,
          "velocity": 0.30708661417322836
        },
        {
          "duration": 2.1988614374999997,
          "durationTicks": 3096,
          "midi": 95,
          "name": "B6",
          "ticks": 203784,
          "time": 144.7328098125,
          "velocity": 0.30708661417322836
        },
        {
          "duration": 2.1988614374999997,
          "durationTicks": 3096,
          "midi": 84,
          "name": "C6",
          "ticks": 203784,
          "time": 144.7328098125,
          "velocity": 0.30708661417322836
        },
        {
          "duration": 2.1988614374999997,
          "durationTicks": 3096,
          "midi": 90,
          "name": "F#6",
          "ticks": 203784,
          "time": 144.7328098125,
          "velocity": 0.30708661417322836
        },
        {
          "duration": 2.1988614374999997,
          "durationTicks": 3096,
          "midi": 78,
          "name": "F#5",
          "ticks": 203784,
          "time": 144.7328098125,
          "velocity": 0.30708661417322836
        },
        {
          "duration": 2.1988614374999997,
          "durationTicks": 3096,
          "midi": 90,
          "name": "F#6",
          "ticks": 203784,
          "time": 144.7328098125,
          "velocity": 0.30708661417322836
        },
        {
          "duration": 2.1988614374999997,
          "durationTicks": 3096,
          "midi": 73,
          "name": "C#5",
          "ticks": 203784,
          "time": 144.7328098125,
          "velocity": 0.30708661417322836
        },
        {
          "duration": 2.1988614374999997,
          "durationTicks": 3096,
          "midi": 25,
          "name": "C#1",
          "ticks": 203784,
          "time": 144.7328098125,
          "velocity": 0.30708661417322836
        },
        {
          "duration": 2.1988614374999997,
          "durationTicks": 3096,
          "midi": 82,
          "name": "A#5",
          "ticks": 203784,
          "time": 144.7328098125,
          "velocity": 0.30708661417322836
        },
        {
          "duration": 2.1988614374999997,
          "durationTicks": 3096,
          "midi": 89,
          "name": "F6",
          "ticks": 203784,
          "time": 144.7328098125,
          "velocity": 0.30708661417322836
        },
        {
          "duration": 2.1988614374999997,
          "durationTicks": 3096,
          "midi": 80,
          "name": "G#5",
          "ticks": 203784,
          "time": 144.7328098125,
          "velocity": 0.30708661417322836
        },
        {
          "duration": 2.1988614374999997,
          "durationTicks": 3096,
          "midi": 55,
          "name": "G3",
          "ticks": 203784,
          "time": 144.7328098125,
          "velocity": 0.30708661417322836
        },
        {
          "duration": 2.1988614374999997,
          "durationTicks": 3096,
          "midi": 79,
          "name": "G5",
          "ticks": 203784,
          "time": 144.7328098125,
          "velocity": 0.30708661417322836
        },
        {
          "duration": 2.1988614374999997,
          "durationTicks": 3096,
          "midi": 50,
          "name": "D3",
          "ticks": 203784,
          "time": 144.7328098125,
          "velocity": 0.30708661417322836
        },
        {
          "duration": 2.1988614374999997,
          "durationTicks": 3096,
          "midi": 76,
          "name": "E5",
          "ticks": 203784,
          "time": 144.7328098125,
          "velocity": 0.30708661417322836
        },
        {
          "duration": 2.1988614374999997,
          "durationTicks": 3096,
          "midi": 54,
          "name": "F#3",
          "ticks": 203784,
          "time": 144.7328098125,
          "velocity": 0.30708661417322836
        },
        {
          "duration": 2.1988614374999997,
          "durationTicks": 3096,
          "midi": 74,
          "name": "D5",
          "ticks": 203784,
          "time": 144.7328098125,
          "velocity": 0.30708661417322836
        },
        {
          "duration": 2.1988614374999997,
          "durationTicks": 3096,
          "midi": 61,
          "name": "C#4",
          "ticks": 203784,
          "time": 144.7328098125,
          "velocity": 0.30708661417322836
        },
        {
          "duration": 2.1988614374999997,
          "durationTicks": 3096,
          "midi": 28,
          "name": "E1",
          "ticks": 203784,
          "time": 144.7328098125,
          "velocity": 0.30708661417322836
        },
        {
          "duration": 2.1988614374999997,
          "durationTicks": 3096,
          "midi": 73,
          "name": "C#5",
          "ticks": 203784,
          "time": 144.7328098125,
          "velocity": 0.30708661417322836
        },
        {
          "duration": 2.1988614374999997,
          "durationTicks": 3096,
          "midi": 89,
          "name": "F6",
          "ticks": 203784,
          "time": 144.7328098125,
          "velocity": 0.30708661417322836
        },
        {
          "duration": 2.1988614374999997,
          "durationTicks": 3096,
          "midi": 87,
          "name": "D#6",
          "ticks": 203784,
          "time": 144.7328098125,
          "velocity": 0.30708661417322836
        },
        {
          "duration": 2.1988614374999997,
          "durationTicks": 3096,
          "midi": 75,
          "name": "D#5",
          "ticks": 203784,
          "time": 144.7328098125,
          "velocity": 0.30708661417322836
        },
        {
          "duration": 2.1988614374999997,
          "durationTicks": 3096,
          "midi": 86,
          "name": "D6",
          "ticks": 203784,
          "time": 144.7328098125,
          "velocity": 0.30708661417322836
        },
        {
          "duration": 2.1988614374999997,
          "durationTicks": 3096,
          "midi": 43,
          "name": "G2",
          "ticks": 203784,
          "time": 144.7328098125,
          "velocity": 0.30708661417322836
        },
        {
          "duration": 2.1988614374999997,
          "durationTicks": 3096,
          "midi": 62,
          "name": "D4",
          "ticks": 203784,
          "time": 144.7328098125,
          "velocity": 0.30708661417322836
        },
        {
          "duration": 2.1988614374999997,
          "durationTicks": 3096,
          "midi": 62,
          "name": "D4",
          "ticks": 203784,
          "time": 144.7328098125,
          "velocity": 0.30708661417322836
        },
        {
          "duration": 2.1988614374999997,
          "durationTicks": 3096,
          "midi": 41,
          "name": "F2",
          "ticks": 203784,
          "time": 144.7328098125,
          "velocity": 0.30708661417322836
        },
        {
          "duration": 2.1988614374999997,
          "durationTicks": 3096,
          "midi": 93,
          "name": "A6",
          "ticks": 203784,
          "time": 144.7328098125,
          "velocity": 0.30708661417322836
        },
        {
          "duration": 2.1988614374999997,
          "durationTicks": 3096,
          "midi": 36,
          "name": "C2",
          "ticks": 203784,
          "time": 144.7328098125,
          "velocity": 0.30708661417322836
        },
        {
          "duration": 2.1988614374999997,
          "durationTicks": 3096,
          "midi": 64,
          "name": "E4",
          "ticks": 203784,
          "time": 144.7328098125,
          "velocity": 0.30708661417322836
        },
        {
          "duration": 2.1988614374999997,
          "durationTicks": 3096,
          "midi": 88,
          "name": "E6",
          "ticks": 203784,
          "time": 144.7328098125,
          "velocity": 0.30708661417322836
        },
        {
          "duration": 2.1988614374999997,
          "durationTicks": 3096,
          "midi": 71,
          "name": "B4",
          "ticks": 203784,
          "time": 144.7328098125,
          "velocity": 0.30708661417322836
        },
        {
          "duration": 2.1988614374999997,
          "durationTicks": 3096,
          "midi": 40,
          "name": "E2",
          "ticks": 203784,
          "time": 144.7328098125,
          "velocity": 0.30708661417322836
        },
        {
          "duration": 2.1988614374999997,
          "durationTicks": 3096,
          "midi": 67,
          "name": "G4",
          "ticks": 203784,
          "time": 144.7328098125,
          "velocity": 0.30708661417322836
        },
        {
          "duration": 2.1988614374999997,
          "durationTicks": 3096,
          "midi": 25,
          "name": "C#1",
          "ticks": 203784,
          "time": 144.7328098125,
          "velocity": 0.30708661417322836
        },
        {
          "duration": 2.1988614374999997,
          "durationTicks": 3096,
          "midi": 72,
          "name": "C5",
          "ticks": 203784,
          "time": 144.7328098125,
          "velocity": 0.30708661417322836
        },
        {
          "duration": 2.1988614374999997,
          "durationTicks": 3096,
          "midi": 39,
          "name": "D#2",
          "ticks": 203784,
          "time": 144.7328098125,
          "velocity": 0.30708661417322836
        },
        {
          "duration": 2.1988614374999997,
          "durationTicks": 3096,
          "midi": 82,
          "name": "A#5",
          "ticks": 203784,
          "time": 144.7328098125,
          "velocity": 0.30708661417322836
        },
        {
          "duration": 2.1988614374999997,
          "durationTicks": 3096,
          "midi": 32,
          "name": "G#1",
          "ticks": 203784,
          "time": 144.7328098125,
          "velocity": 0.30708661417322836
        },
        {
          "duration": 2.1988614374999997,
          "durationTicks": 3096,
          "midi": 51,
          "name": "D#3",
          "ticks": 203784,
          "time": 144.7328098125,
          "velocity": 0.30708661417322836
        },
        {
          "duration": 2.1988614374999997,
          "durationTicks": 3096,
          "midi": 86,
          "name": "D6",
          "ticks": 203784,
          "time": 144.7328098125,
          "velocity": 0.30708661417322836
        },
        {
          "duration": 2.1988614374999997,
          "durationTicks": 3096,
          "midi": 46,
          "name": "A#2",
          "ticks": 203784,
          "time": 144.7328098125,
          "velocity": 0.30708661417322836
        },
        {
          "duration": 2.1988614374999997,
          "durationTicks": 3096,
          "midi": 30,
          "name": "F#1",
          "ticks": 203784,
          "time": 144.7328098125,
          "velocity": 0.30708661417322836
        },
        {
          "duration": 2.1988614374999997,
          "durationTicks": 3096,
          "midi": 87,
          "name": "D#6",
          "ticks": 203784,
          "time": 144.7328098125,
          "velocity": 0.30708661417322836
        },
        {
          "duration": 2.1988614374999997,
          "durationTicks": 3096,
          "midi": 92,
          "name": "G#6",
          "ticks": 203784,
          "time": 144.7328098125,
          "velocity": 0.30708661417322836
        },
        {
          "duration": 2.1988614374999997,
          "durationTicks": 3096,
          "midi": 42,
          "name": "F#2",
          "ticks": 203784,
          "time": 144.7328098125,
          "velocity": 0.30708661417322836
        },
        {
          "duration": 2.1988614374999997,
          "durationTicks": 3096,
          "midi": 29,
          "name": "F1",
          "ticks": 203784,
          "time": 144.7328098125,
          "velocity": 0.30708661417322836
        },
        {
          "duration": 2.1988614374999997,
          "durationTicks": 3096,
          "midi": 51,
          "name": "D#3",
          "ticks": 203784,
          "time": 144.7328098125,
          "velocity": 0.30708661417322836
        },
        {
          "duration": 2.1988614374999997,
          "durationTicks": 3096,
          "midi": 46,
          "name": "A#2",
          "ticks": 203784,
          "time": 144.7328098125,
          "velocity": 0.30708661417322836
        },
        {
          "duration": 2.1988614374999997,
          "durationTicks": 3096,
          "midi": 94,
          "name": "A#6",
          "ticks": 203784,
          "time": 144.7328098125,
          "velocity": 0.30708661417322836
        },
        {
          "duration": 0.698862937499996,
          "durationTicks": 984,
          "midi": 90,
          "name": "F#6",
          "ticks": 208368,
          "time": 147.988488375,
          "velocity": 0.30708661417322836
        },
        {
          "duration": 0.698862937499996,
          "durationTicks": 984,
          "midi": 85,
          "name": "C#6",
          "ticks": 208368,
          "time": 147.988488375,
          "velocity": 0.30708661417322836
        },
        {
          "duration": 0.698862937499996,
          "durationTicks": 984,
          "midi": 82,
          "name": "A#5",
          "ticks": 208368,
          "time": 147.988488375,
          "velocity": 0.30708661417322836
        },
        {
          "duration": 0.698862937499996,
          "durationTicks": 984,
          "midi": 82,
          "name": "A#5",
          "ticks": 208368,
          "time": 147.988488375,
          "velocity": 0.30708661417322836
        },
        {
          "duration": 0.698862937499996,
          "durationTicks": 984,
          "midi": 94,
          "name": "A#6",
          "ticks": 208368,
          "time": 147.988488375,
          "velocity": 0.30708661417322836
        },
        {
          "duration": 0.698862937499996,
          "durationTicks": 984,
          "midi": 90,
          "name": "F#6",
          "ticks": 208368,
          "time": 147.988488375,
          "velocity": 0.30708661417322836
        },
        {
          "duration": 0.698862937499996,
          "durationTicks": 984,
          "midi": 89,
          "name": "F6",
          "ticks": 208368,
          "time": 147.988488375,
          "velocity": 0.30708661417322836
        },
        {
          "duration": 0.698862937499996,
          "durationTicks": 984,
          "midi": 89,
          "name": "F6",
          "ticks": 208368,
          "time": 147.988488375,
          "velocity": 0.30708661417322836
        },
        {
          "duration": 0.698862937499996,
          "durationTicks": 984,
          "midi": 85,
          "name": "C#6",
          "ticks": 208368,
          "time": 147.988488375,
          "velocity": 0.30708661417322836
        },
        {
          "duration": 0.698862937499996,
          "durationTicks": 984,
          "midi": 94,
          "name": "A#6",
          "ticks": 208368,
          "time": 147.988488375,
          "velocity": 0.30708661417322836
        },
        {
          "duration": 0.698862937499996,
          "durationTicks": 984,
          "midi": 90,
          "name": "F#6",
          "ticks": 208392,
          "time": 148.0055338125,
          "velocity": 0.30708661417322836
        },
        {
          "duration": 0.698862937499996,
          "durationTicks": 984,
          "midi": 94,
          "name": "A#6",
          "ticks": 208392,
          "time": 148.0055338125,
          "velocity": 0.30708661417322836
        },
        {
          "duration": 0.698862937499996,
          "durationTicks": 984,
          "midi": 89,
          "name": "F6",
          "ticks": 208392,
          "time": 148.0055338125,
          "velocity": 0.30708661417322836
        },
        {
          "duration": 0.698862937499996,
          "durationTicks": 984,
          "midi": 85,
          "name": "C#6",
          "ticks": 208392,
          "time": 148.0055338125,
          "velocity": 0.30708661417322836
        },
        {
          "duration": 0.698862937499996,
          "durationTicks": 984,
          "midi": 82,
          "name": "A#5",
          "ticks": 208392,
          "time": 148.0055338125,
          "velocity": 0.30708661417322836
        }
      ],
      "endOfTrackTicks": 209376
    }
  ]
}