{
  "header": {
    "keySignatures": [],
    "meta": [],
    "name": "",
    "ppq": 600,
    "tempos": [
      {
        "bpm": 122.0000691333725,
        "ticks": 0
      }
    ],
    "timeSignatures": [
      {
        "ticks": 0,
        "timeSignature": [
          4,
          4
        ],
        "measures": 0
      }
    ]
  },
  "tracks": [
    {
      "channel": 0,
      "controlChanges": {},
      "pitchBends": [
        {
          "ticks": 38400,
          "time": 31.475392,
          "value": 0
        }
      ],
      "instrument": {
        "family": "piano",
        "number": 0,
        "name": "acoustic grand piano"
      },
      "name": "",
      "notes": [],
      "endOfTrackTicks": 184800
    },
    {
      "channel": 15,
      "controlChanges": {
        "6": [
          {
            "number": 6,
            "ticks": 38400,
            "time": 31.475392,
            "value": 0.09448818897637795
          },
          {
            "number": 6,
            "ticks": 38400,
            "time": 31.475392,
            "value": 0.09448818897637795
          },
          {
            "number": 6,
            "ticks": 184800,
            "time": 151.475324,
            "value": 0.09448818897637795
          },
          {
            "number": 6,
            "ticks": 184800,
            "time": 151.475324,
            "value": 0.09448818897637795
          },
          {
            "number": 6,
            "ticks": 184800,
            "time": 151.475324,
            "value": 0.09448818897637795
          },
          {
            "number": 6,
            "ticks": 184800,
            "time": 151.475324,
            "value": 0.09448818897637795
          }
        ],
        "7": [
          {
            "number": 7,
            "ticks": 38400,
            "time": 31.475392,
            "value": 0.7874015748031497
          },
          {
            "number": 7,
            "ticks": 38400,
            "time": 31.475392,
            "value": 0.7874015748031497
          },
          {
            "number": 7,
            "ticks": 38400,
            "time": 31.475392,
            "value": 1
          },
          {
            "number": 7,
            "ticks": 38400,
            "time": 31.475392,
            "value": 1
          },
          {
            "number": 7,
            "ticks": 184800,
            "time": 151.475324,
            "value": 0.7874015748031497
          },
          {
            "number": 7,
            "ticks": 184800,
            "time": 151.475324,
            "value": 0.7874015748031497
          },
          {
            "number": 7,
            "ticks": 184800,
            "time": 151.475324,
            "value": 1
          },
          {
            "number": 7,
            "ticks": 184800,
            "time": 151.475324,
            "value": 1
          }
        ],
        "10": [
          {
            "number": 10,
            "ticks": 38400,
            "time": 31.475392,
            "value": 0.5039370078740157
          },
          {
            "number": 10,
            "ticks": 38400,
            "time": 31.475392,
            "value": 0.5039370078740157
          },
          {
            "number": 10,
            "ticks": 38400,
            "time": 31.475392,
            "value": 0.5039370078740157
          },
          {
            "number": 10,
            "ticks": 38400,
            "time": 31.475392,
            "value": 0.5039370078740157
          },
          {
            "number": 10,
            "ticks": 184800,
            "time": 151.475324,
            "value": 0.5039370078740157
          },
          {
            "number": 10,
            "ticks": 184800,
            "time": 151.475324,
            "value": 0.5039370078740157
          },
          {
            "number": 10,
            "ticks": 184800,
            "time": 151.475324,
            "value": 0.5039370078740157
          },
          {
            "number": 10,
            "ticks": 184800,
            "time": 151.475324,
            "value": 0.5039370078740157
          }
        ],
        "100": [
          {
            "number": 100,
            "ticks": 38400,
            "time": 31.475392,
            "value": 0
          },
          {
            "number": 100,
            "ticks": 38400,
            "time": 31.475392,
            "value": 0
          },
          {
            "number": 100,
            "ticks": 184800,
            "time": 151.475324,
            "value": 0
          },
          {
            "number": 100,
            "ticks": 184800,
            "time": 151.475324,
            "value": 0
          },
          {
            "number": 100,
            "ticks": 184800,
            "time": 151.475324,
            "value": 0
          },
          {
            "number": 100,
            "ticks": 184800,
            "time": 151.475324,
            "value": 0
          }
        ],
        "101": [
          {
            "number": 101,
            "ticks": 38400,
            "time": 31.475392,
            "value": 0
          },
          {
            "number": 101,
            "ticks": 38400,
            "time": 31.475392,
            "value": 0
          },
          {
            "number": 101,
            "ticks": 184800,
            "time": 151.475324,
            "value": 0
          },
          {
            "number": 101,
            "ticks": 184800,
            "time": 151.475324,
            "value": 0
          },
          {
            "number": 101,
            "ticks": 184800,
            "time": 151.475324,
            "value": 0
          },
          {
            "number": 101,
            "ticks": 184800,
            "time": 151.475324,
            "value": 0
          }
        ]
      },
      "pitchBends": [
        {
          "ticks": 38400,
          "time": 31.475392,
          "value": 0
        },
        {
          "ticks": 38400,
          "time": 31.475392,
          "value": 0
        },
        {
          "ticks": 38400,
          "time": 31.475392,
          "value": 0
        },
        {
          "ticks": 38400,
          "time": 31.475392,
          "value": 0
        },
        {
          "ticks": 38400,
          "time": 31.475392,
          "value": 0
        },
        {
          "ticks": 184800,
          "time": 151.475324,
          "value": 0
        },
        {
          "ticks": 184800,
          "time": 151.475324,
          "value": 0
        },
        {
          "ticks": 184800,
          "time": 151.475324,
          "value": 0
        },
        {
          "ticks": 184800,
          "time": 151.475324,
          "value": 0
        }
      ],
      "instrument": {
        "family": "synth lead",
        "number": 80,
        "name": "lead 1 (square)"
      },
      "name": "",
      "notes": [
        {
          "duration": 0.22540970833333063,
          "durationTicks": 275,
          "midi": 65,
          "name": "F4",
          "ticks": 57600,
          "time": 47.213088,
          "velocity": 0.7795275590551181
        },
        {
          "duration": 0.22540970833333063,
          "durationTicks": 275,
          "midi": 65,
          "name": "F4",
          "ticks": 57600,
          "time": 47.213088,
          "velocity": 0.7795275590551181
        },
        {
          "duration": 0.10245895833332952,
          "durationTicks": 125,
          "midi": 67,
          "name": "G4",
          "ticks": 57900,
          "time": 47.4589895,
          "velocity": 0.7795275590551181
        },
        {
          "duration": 0.10245895833332952,
          "durationTicks": 125,
          "midi": 67,
          "name": "G4",
          "ticks": 57900,
          "time": 47.4589895,
          "velocity": 0.7795275590551181
        },
        {
          "duration": 0.22540970833333063,
          "durationTicks": 275,
          "midi": 65,
          "name": "F4",
          "ticks": 58050,
          "time": 47.58194025,
          "velocity": 0.7795275590551181
        },
        {
          "duration": 0.22540970833333063,
          "durationTicks": 275,
          "midi": 65,
          "name": "F4",
          "ticks": 58050,
          "time": 47.58194025,
          "velocity": 0.7795275590551181
        },
        {
          "duration": 0.10245895833332952,
          "durationTicks": 125,
          "midi": 63,
          "name": "D#4",
          "ticks": 58350,
          "time": 47.82784175,
          "velocity": 0.7795275590551181
        },
        {
          "duration": 0.10245895833332952,
          "durationTicks": 125,
          "midi": 63,
          "name": "D#4",
          "ticks": 58350,
          "time": 47.82784175,
          "velocity": 0.7795275590551181
        },
        {
          "duration": 0.10245895833332952,
          "durationTicks": 125,
          "midi": 63,
          "name": "D#4",
          "ticks": 58500,
          "time": 47.9507925,
          "velocity": 0.7795275590551181
        },
        {
          "duration": 0.22540970833333063,
          "durationTicks": 275,
          "midi": 63,
          "name": "D#4",
          "ticks": 58650,
          "time": 48.07374325,
          "velocity": 0.7795275590551181
        },
        {
          "duration": 0.22540970833333063,
          "durationTicks": 275,
          "midi": 63,
          "name": "D#4",
          "ticks": 58650,
          "time": 48.07374325,
          "velocity": 0.7795275590551181
        },
        {
          "duration": 0.10245895833332952,
          "durationTicks": 125,
          "midi": 63,
          "name": "D#4",
          "ticks": 58950,
          "time": 48.31964475,
          "velocity": 0.7795275590551181
        },
        {
          "duration": 0.22540970833333063,
          "durationTicks": 275,
          "midi": 60,
          "name": "C4",
          "ticks": 59100,
          "time": 48.442595499999996,
          "velocity": 0.7795275590551181
        },
        {
          "duration": 0.22540970833333063,
          "durationTicks": 275,
          "midi": 60,
          "name": "C4",
          "ticks": 59100,
          "time": 48.442595499999996,
          "velocity": 0.7795275590551181
        },
        {
          "duration": 0.22540970833333063,
          "durationTicks": 275,
          "midi": 63,
          "name": "D#4",
          "ticks": 59400,
          "time": 48.688497,
          "velocity": 0.7795275590551181
        },
        {
          "duration": 0.22540970833333063,
          "durationTicks": 275,
          "midi": 63,
          "name": "D#4",
          "ticks": 59400,
          "time": 48.688497,
          "velocity": 0.7795275590551181
        },
        {
          "duration": 0.22540970833333063,
          "durationTicks": 275,
          "midi": 65,
          "name": "F4",
          "ticks": 59700,
          "time": 48.9343985,
          "velocity": 0.7795275590551181
        },
        {
          "duration": 0.22540970833333063,
          "durationTicks": 275,
          "midi": 65,
          "name": "F4",
          "ticks": 59700,
          "time": 48.9343985,
          "velocity": 0.7795275590551181
        },
        {
          "duration": 0.22540970833333063,
          "durationTicks": 275,
          "midi": 65,
          "name": "F4",
          "ticks": 60000,
          "time": 49.1803,
          "velocity": 0.7795275590551181
        },
        {
          "duration": 0.22540970833333063,
          "durationTicks": 275,
          "midi": 65,
          "name": "F4",
          "ticks": 60000,
          "time": 49.1803,
          "velocity": 0.7795275590551181
        },
        {
          "duration": 0.10245895833332952,
          "durationTicks": 125,
          "midi": 67,
          "name": "G4",
          "ticks": 60300,
          "time": 49.4262015,
          "velocity": 0.7795275590551181
        },
        {
          "duration": 0.10245895833332952,
          "durationTicks": 125,
          "midi": 67,
          "name": "G4",
          "ticks": 60300,
          "time": 49.4262015,
          "velocity": 0.7795275590551181
        },
        {
          "duration": 0.22540970833333063,
          "durationTicks": 275,
          "midi": 68,
          "name": "G#4",
          "ticks": 60450,
          "time": 49.54915225,
          "velocity": 0.7795275590551181
        },
        {
          "duration": 0.22540970833333063,
          "durationTicks": 275,
          "midi": 68,
          "name": "G#4",
          "ticks": 60450,
          "time": 49.54915225,
          "velocity": 0.7795275590551181
        },
        {
          "duration": 0.10245895833332952,
          "durationTicks": 125,
          "midi": 67,
          "name": "G4",
          "ticks": 60750,
          "time": 49.79505375,
          "velocity": 0.7795275590551181
        },
        {
          "duration": 0.10245895833332952,
          "durationTicks": 125,
          "midi": 67,
          "name": "G4",
          "ticks": 60900,
          "time": 49.9180045,
          "velocity": 0.7795275590551181
        },
        {
          "duration": 0.10245895833333662,
          "durationTicks": 125,
          "midi": 67,
          "name": "G4",
          "ticks": 61050,
          "time": 50.040955249999996,
          "velocity": 0.7795275590551181
        },
        {
          "duration": 0.22540970833333063,
          "durationTicks": 275,
          "midi": 65,
          "name": "F4",
          "ticks": 61200,
          "time": 50.163906,
          "velocity": 0.7795275590551181
        },
        {
          "duration": 0.22540970833333063,
          "durationTicks": 275,
          "midi": 65,
          "name": "F4",
          "ticks": 61200,
          "time": 50.163906,
          "velocity": 0.7795275590551181
        },
        {
          "duration": 0.10245895833332952,
          "durationTicks": 125,
          "midi": 65,
          "name": "F4",
          "ticks": 61500,
          "time": 50.4098075,
          "velocity": 0.7795275590551181
        },
        {
          "duration": 0.22540970833333063,
          "durationTicks": 275,
          "midi": 63,
          "name": "D#4",
          "ticks": 61650,
          "time": 50.53275825,
          "velocity": 0.7795275590551181
        },
        {
          "duration": 0.22540970833333063,
          "durationTicks": 275,
          "midi": 63,
          "name": "D#4",
          "ticks": 61650,
          "time": 50.53275825,
          "velocity": 0.7795275590551181
        },
        {
          "duration": 0.10245895833333662,
          "durationTicks": 125,
          "midi": 63,
          "name": "D#4",
          "ticks": 61950,
          "time": 50.778659749999996,
          "velocity": 0.7795275590551181
        },
        {
          "duration": 0.22540970833333063,
          "durationTicks": 275,
          "midi": 62,
          "name": "D4",
          "ticks": 62100,
          "time": 50.9016105,
          "velocity": 0.7795275590551181
        },
        {
          "duration": 0.22540970833333063,
          "durationTicks": 275,
          "midi": 62,
          "name": "D4",
          "ticks": 62100,
          "time": 50.9016105,
          "velocity": 0.7795275590551181
        },
        {
          "duration": 0.717212708333328,
          "durationTicks": 875,
          "midi": 63,
          "name": "D#4",
          "ticks": 62400,
          "time": 51.147512,
          "velocity": 0.7795275590551181
        },
        {
          "duration": 0.717212708333328,
          "durationTicks": 875,
          "midi": 63,
          "name": "D#4",
          "ticks": 62400,
          "time": 51.147512,
          "velocity": 0.7795275590551181
        },
        {
          "duration": 0.717212708333328,
          "durationTicks": 875,
          "midi": 60,
          "name": "C4",
          "ticks": 63300,
          "time": 51.8852165,
          "velocity": 0.7795275590551181
        },
        {
          "duration": 0.717212708333328,
          "durationTicks": 875,
          "midi": 60,
          "name": "C4",
          "ticks": 63300,
          "time": 51.8852165,
          "velocity": 0.7795275590551181
        },
        {
          "duration": 0.47131120833333284,
          "durationTicks": 575,
          "midi": 56,
          "name": "G#3",
          "ticks": 64200,
          "time": 52.622921,
          "velocity": 0.7795275590551181
        },
        {
          "duration": 0.47131120833333284,
          "durationTicks": 575,
          "midi": 56,
          "name": "G#3",
          "ticks": 64200,
          "time": 52.622921,
          "velocity": 0.7795275590551181
        },
        {
          "duration": 0.9631142083333373,
          "durationTicks": 1175,
          "midi": 63,
          "name": "D#4",
          "ticks": 64800,
          "time": 53.114723999999995,
          "velocity": 0.7795275590551181
        },
        {
          "duration": 0.9631142083333373,
          "durationTicks": 1175,
          "midi": 63,
          "name": "D#4",
          "ticks": 64800,
          "time": 53.114723999999995,
          "velocity": 0.7795275590551181
        },
        {
          "duration": 0.47131120833333284,
          "durationTicks": 575,
          "midi": 65,
          "name": "F4",
          "ticks": 66000,
          "time": 54.09833,
          "velocity": 0.7795275590551181
        },
        {
          "duration": 0.47131120833333284,
          "durationTicks": 575,
          "midi": 65,
          "name": "F4",
          "ticks": 66000,
          "time": 54.09833,
          "velocity": 0.7795275590551181
        },
        {
          "duration": 0.47131120833332574,
          "durationTicks": 575,
          "midi": 67,
          "name": "G4",
          "ticks": 66600,
          "time": 54.590133,
          "velocity": 0.7874015748031497
        },
        {
          "duration": 0.47131120833332574,
          "durationTicks": 575,
          "midi": 67,
          "name": "G4",
          "ticks": 66600,
          "time": 54.590133,
          "velocity": 0.7874015748031497
        },
        {
          "duration": 0.22540970833333063,
          "durationTicks": 275,
          "midi": 70,
          "name": "A#4",
          "ticks": 67200,
          "time": 55.081936,
          "velocity": 0.7874015748031497
        },
        {
          "duration": 0.22540970833333063,
          "durationTicks": 275,
          "midi": 65,
          "name": "F4",
          "ticks": 67200,
          "time": 55.081936,
          "velocity": 0.7874015748031497
        },
        {
          "duration": 0.22540970833333063,
          "durationTicks": 275,
          "midi": 65,
          "name": "F4",
          "ticks": 67200,
          "time": 55.081936,
          "velocity": 0.7874015748031497
        },
        {
          "duration": 0.22540970833333063,
          "durationTicks": 275,
          "midi": 70,
          "name": "A#4",
          "ticks": 67200,
          "time": 55.081936,
          "velocity": 0.7874015748031497
        },
        {
          "duration": 0.10245895833332952,
          "durationTicks": 125,
          "midi": 72,
          "name": "C5",
          "ticks": 67500,
          "time": 55.3278375,
          "velocity": 0.7874015748031497
        },
        {
          "duration": 0.10245895833332952,
          "durationTicks": 125,
          "midi": 67,
          "name": "G4",
          "ticks": 67500,
          "time": 55.3278375,
          "velocity": 0.7874015748031497
        },
        {
          "duration": 0.10245895833332952,
          "durationTicks": 125,
          "midi": 67,
          "name": "G4",
          "ticks": 67500,
          "time": 55.3278375,
          "velocity": 0.7874015748031497
        },
        {
          "duration": 0.10245895833332952,
          "durationTicks": 125,
          "midi": 72,
          "name": "C5",
          "ticks": 67500,
          "time": 55.3278375,
          "velocity": 0.7874015748031497
        },
        {
          "duration": 0.22540970833333063,
          "durationTicks": 275,
          "midi": 70,
          "name": "A#4",
          "ticks": 67650,
          "time": 55.45078825,
          "velocity": 0.7874015748031497
        },
        {
          "duration": 0.22540970833333063,
          "durationTicks": 275,
          "midi": 65,
          "name": "F4",
          "ticks": 67650,
          "time": 55.45078825,
          "velocity": 0.7874015748031497
        },
        {
          "duration": 0.22540970833333063,
          "durationTicks": 275,
          "midi": 65,
          "name": "F4",
          "ticks": 67650,
          "time": 55.45078825,
          "velocity": 0.7874015748031497
        },
        {
          "duration": 0.22540970833333063,
          "durationTicks": 275,
          "midi": 70,
          "name": "A#4",
          "ticks": 67650,
          "time": 55.45078825,
          "velocity": 0.7874015748031497
        },
        {
          "duration": 0.10245895833332952,
          "durationTicks": 125,
          "midi": 67,
          "name": "G4",
          "ticks": 67950,
          "time": 55.69668975,
          "velocity": 0.7874015748031497
        },
        {
          "duration": 0.10245895833332952,
          "durationTicks": 125,
          "midi": 63,
          "name": "D#4",
          "ticks": 67950,
          "time": 55.69668975,
          "velocity": 0.7874015748031497
        },
        {
          "duration": 0.10245895833332952,
          "durationTicks": 125,
          "midi": 63,
          "name": "D#4",
          "ticks": 67950,
          "time": 55.69668975,
          "velocity": 0.7874015748031497
        },
        {
          "duration": 0.10245895833332952,
          "durationTicks": 125,
          "midi": 67,
          "name": "G4",
          "ticks": 67950,
          "time": 55.69668975,
          "velocity": 0.7874015748031497
        },
        {
          "duration": 0.10245895833332952,
          "durationTicks": 125,
          "midi": 67,
          "name": "G4",
          "ticks": 68100,
          "time": 55.8196405,
          "velocity": 0.7874015748031497
        },
        {
          "duration": 0.10245895833332952,
          "durationTicks": 125,
          "midi": 63,
          "name": "D#4",
          "ticks": 68100,
          "time": 55.8196405,
          "velocity": 0.7874015748031497
        },
        {
          "duration": 0.10245895833332952,
          "durationTicks": 125,
          "midi": 67,
          "name": "G4",
          "ticks": 68100,
          "time": 55.8196405,
          "velocity": 0.7874015748031497
        },
        {
          "duration": 0.22540970833333063,
          "durationTicks": 275,
          "midi": 67,
          "name": "G4",
          "ticks": 68250,
          "time": 55.94259125,
          "velocity": 0.7874015748031497
        },
        {
          "duration": 0.22540970833333063,
          "durationTicks": 275,
          "midi": 63,
          "name": "D#4",
          "ticks": 68250,
          "time": 55.94259125,
          "velocity": 0.7874015748031497
        },
        {
          "duration": 0.22540970833333063,
          "durationTicks": 275,
          "midi": 63,
          "name": "D#4",
          "ticks": 68250,
          "time": 55.94259125,
          "velocity": 0.7874015748031497
        },
        {
          "duration": 0.22540970833333063,
          "durationTicks": 275,
          "midi": 67,
          "name": "G4",
          "ticks": 68250,
          "time": 55.94259125,
          "velocity": 0.7874015748031497
        },
        {
          "duration": 0.10245895833332952,
          "durationTicks": 125,
          "midi": 67,
          "name": "G4",
          "ticks": 68550,
          "time": 56.18849275,
          "velocity": 0.7874015748031497
        },
        {
          "duration": 0.10245895833332952,
          "durationTicks": 125,
          "midi": 67,
          "name": "G4",
          "ticks": 68550,
          "time": 56.18849275,
          "velocity": 0.7874015748031497
        },
        {
          "duration": 0.10245895833332952,
          "durationTicks": 125,
          "midi": 63,
          "name": "D#4",
          "ticks": 68550,
          "time": 56.18849275,
          "velocity": 0.7874015748031497
        },
        {
          "duration": 0.22540970833333063,
          "durationTicks": 275,
          "midi": 60,
          "name": "C4",
          "ticks": 68700,
          "time": 56.311443499999996,
          "velocity": 0.7874015748031497
        },
        {
          "duration": 0.22540970833333063,
          "durationTicks": 275,
          "midi": 60,
          "name": "C4",
          "ticks": 68700,
          "time": 56.311443499999996,
          "velocity": 0.7874015748031497
        },
        {
          "duration": 0.22540970833333063,
          "durationTicks": 275,
          "midi": 63,
          "name": "D#4",
          "ticks": 69000,
          "time": 56.557345,
          "velocity": 0.7874015748031497
        },
        {
          "duration": 0.22540970833333063,
          "durationTicks": 275,
          "midi": 63,
          "name": "D#4",
          "ticks": 69000,
          "time": 56.557345,
          "velocity": 0.7874015748031497
        },
        {
          "duration": 0.22540970833333063,
          "durationTicks": 275,
          "midi": 65,
          "name": "F4",
          "ticks": 69300,
          "time": 56.8032465,
          "velocity": 0.7874015748031497
        },
        {
          "duration": 0.22540970833333063,
          "durationTicks": 275,
          "midi": 65,
          "name": "F4",
          "ticks": 69300,
          "time": 56.8032465,
          "velocity": 0.7874015748031497
        },
        {
          "duration": 0.22540970833333063,
          "durationTicks": 275,
          "midi": 70,
          "name": "A#4",
          "ticks": 69600,
          "time": 57.049148,
          "velocity": 0.7874015748031497
        },
        {
          "duration": 0.22540970833333063,
          "durationTicks": 275,
          "midi": 70,
          "name": "A#4",
          "ticks": 69600,
          "time": 57.049148,
          "velocity": 0.7874015748031497
        },
        {
          "duration": 0.22540970833333063,
          "durationTicks": 275,
          "midi": 65,
          "name": "F4",
          "ticks": 69600,
          "time": 57.049148,
          "velocity": 0.7874015748031497
        },
        {
          "duration": 0.22540970833333063,
          "durationTicks": 275,
          "midi": 65,
          "name": "F4",
          "ticks": 69600,
          "time": 57.049148,
          "velocity": 0.7874015748031497
        },
        {
          "duration": 0.10245895833332952,
          "durationTicks": 125,
          "midi": 67,
          "name": "G4",
          "ticks": 69900,
          "time": 57.2950495,
          "velocity": 0.7874015748031497
        },
        {
          "duration": 0.10245895833332952,
          "durationTicks": 125,
          "midi": 67,
          "name": "G4",
          "ticks": 69900,
          "time": 57.2950495,
          "velocity": 0.7874015748031497
        },
        {
          "duration": 0.10245895833332952,
          "durationTicks": 125,
          "midi": 72,
          "name": "C5",
          "ticks": 69900,
          "time": 57.2950495,
          "velocity": 0.7874015748031497
        },
        {
          "duration": 0.10245895833332952,
          "durationTicks": 125,
          "midi": 72,
          "name": "C5",
          "ticks": 69900,
          "time": 57.2950495,
          "velocity": 0.7874015748031497
        },
        {
          "duration": 0.22540970833333063,
          "durationTicks": 275,
          "midi": 68,
          "name": "G#4",
          "ticks": 70050,
          "time": 57.41800025,
          "velocity": 0.7874015748031497
        },
        {
          "duration": 0.22540970833333063,
          "durationTicks": 275,
          "midi": 68,
          "name": "G#4",
          "ticks": 70050,
          "time": 57.41800025,
          "velocity": 0.7874015748031497
        },
        {
          "duration": 0.22540970833333063,
          "durationTicks": 275,
          "midi": 75,
          "name": "D#5",
          "ticks": 70050,
          "time": 57.41800025,
          "velocity": 0.7874015748031497
        },
        {
          "duration": 0.22540970833333063,
          "durationTicks": 275,
          "midi": 75,
          "name": "D#5",
          "ticks": 70050,
          "time": 57.41800025,
          "velocity": 0.7874015748031497
        },
        {
          "duration": 0.10245895833332952,
          "durationTicks": 125,
          "midi": 70,
          "name": "A#4",
          "ticks": 70350,
          "time": 57.66390175,
          "velocity": 0.7874015748031497
        },
        {
          "duration": 0.10245895833332952,
          "durationTicks": 125,
          "midi": 70,
          "name": "A#4",
          "ticks": 70350,
          "time": 57.66390175,
          "velocity": 0.7874015748031497
        },
        {
          "duration": 0.10245895833332952,
          "durationTicks": 125,
          "midi": 67,
          "name": "G4",
          "ticks": 70350,
          "time": 57.66390175,
          "velocity": 0.7874015748031497
        },
        {
          "duration": 0.10245895833332952,
          "durationTicks": 125,
          "midi": 67,
          "name": "G4",
          "ticks": 70500,
          "time": 57.7868525,
          "velocity": 0.7874015748031497
        },
        {
          "duration": 0.10245895833332952,
          "durationTicks": 125,
          "midi": 70,
          "name": "A#4",
          "ticks": 70500,
          "time": 57.7868525,
          "velocity": 0.7874015748031497
        },
        {
          "duration": 0.10245895833332952,
          "durationTicks": 125,
          "midi": 70,
          "name": "A#4",
          "ticks": 70500,
          "time": 57.7868525,
          "velocity": 0.7874015748031497
        },
        {
          "duration": 0.10245895833333662,
          "durationTicks": 125,
          "midi": 67,
          "name": "G4",
          "ticks": 70650,
          "time": 57.909803249999996,
          "velocity": 0.7874015748031497
        },
        {
          "duration": 0.10245895833333662,
          "durationTicks": 125,
          "midi": 70,
          "name": "A#4",
          "ticks": 70650,
          "time": 57.909803249999996,
          "velocity": 0.7874015748031497
        },
        {
          "duration": 0.10245895833333662,
          "durationTicks": 125,
          "midi": 70,
          "name": "A#4",
          "ticks": 70650,
          "time": 57.909803249999996,
          "velocity": 0.7874015748031497
        },
        {
          "duration": 0.22540970833333063,
          "durationTicks": 275,
          "midi": 68,
          "name": "G#4",
          "ticks": 70800,
          "time": 58.032754,
          "velocity": 0.7874015748031497
        },
        {
          "duration": 0.22540970833333063,
          "durationTicks": 275,
          "midi": 68,
          "name": "G#4",
          "ticks": 70800,
          "time": 58.032754,
          "velocity": 0.7874015748031497
        },
        {
          "duration": 0.22540970833333063,
          "durationTicks": 275,
          "midi": 65,
          "name": "F4",
          "ticks": 70800,
          "time": 58.032754,
          "velocity": 0.7874015748031497
        },
        {
          "duration": 0.22540970833333063,
          "durationTicks": 275,
          "midi": 65,
          "name": "F4",
          "ticks": 70800,
          "time": 58.032754,
          "velocity": 0.7874015748031497
        },
        {
          "duration": 0.10245895833332952,
          "durationTicks": 125,
          "midi": 65,
          "name": "F4",
          "ticks": 71100,
          "time": 58.2786555,
          "velocity": 0.7874015748031497
        },
        {
          "duration": 0.10245895833332952,
          "durationTicks": 125,
          "midi": 68,
          "name": "G#4",
          "ticks": 71100,
          "time": 58.2786555,
          "velocity": 0.7874015748031497
        },
        {
          "duration": 0.10245895833332952,
          "durationTicks": 125,
          "midi": 68,
          "name": "G#4",
          "ticks": 71100,
          "time": 58.2786555,
          "velocity": 0.7874015748031497
        },
        {
          "duration": 0.22540970833333063,
          "durationTicks": 275,
          "midi": 67,
          "name": "G4",
          "ticks": 71250,
          "time": 58.40160625,
          "velocity": 0.7874015748031497
        },
        {
          "duration": 0.22540970833333063,
          "durationTicks": 275,
          "midi": 67,
          "name": "G4",
          "ticks": 71250,
          "time": 58.40160625,
          "velocity": 0.7874015748031497
        },
        {
          "duration": 0.22540970833333063,
          "durationTicks": 275,
          "midi": 63,
          "name": "D#4",
          "ticks": 71250,
          "time": 58.40160625,
          "velocity": 0.7874015748031497
        },
        {
          "duration": 0.22540970833333063,
          "durationTicks": 275,
          "midi": 63,
          "name": "D#4",
          "ticks": 71250,
          "time": 58.40160625,
          "velocity": 0.7874015748031497
        },
        {
          "duration": 0.10245895833333662,
          "durationTicks": 125,
          "midi": 67,
          "name": "G4",
          "ticks": 71550,
          "time": 58.647507749999995,
          "velocity": 0.7874015748031497
        },
        {
          "duration": 0.10245895833333662,
          "durationTicks": 125,
          "midi": 67,
          "name": "G4",
          "ticks": 71550,
          "time": 58.647507749999995,
          "velocity": 0.7874015748031497
        },
        {
          "duration": 0.10245895833333662,
          "durationTicks": 125,
          "midi": 63,
          "name": "D#4",
          "ticks": 71550,
          "time": 58.647507749999995,
          "velocity": 0.7874015748031497
        },
        {
          "duration": 0.22540970833333063,
          "durationTicks": 275,
          "midi": 62,
          "name": "D4",
          "ticks": 71700,
          "time": 58.7704585,
          "velocity": 0.7874015748031497
        },
        {
          "duration": 0.22540970833333063,
          "durationTicks": 275,
          "midi": 62,
          "name": "D4",
          "ticks": 71700,
          "time": 58.7704585,
          "velocity": 0.7874015748031497
        },
        {
          "duration": 0.22540970833333063,
          "durationTicks": 275,
          "midi": 65,
          "name": "F4",
          "ticks": 71700,
          "time": 58.7704585,
          "velocity": 0.7874015748031497
        },
        {
          "duration": 0.22540970833333063,
          "durationTicks": 275,
          "midi": 65,
          "name": "F4",
          "ticks": 71700,
          "time": 58.7704585,
          "velocity": 0.7874015748031497
        },
        {
          "duration": 0.10245895833332952,
          "durationTicks": 125,
          "midi": 72,
          "name": "C5",
          "ticks": 72000,
          "time": 59.01636,
          "velocity": 0.7874015748031497
        },
        {
          "duration": 0.10245895833332952,
          "durationTicks": 125,
          "midi": 72,
          "name": "C5",
          "ticks": 72000,
          "time": 59.01636,
          "velocity": 0.7874015748031497
        },
        {
          "duration": 0.10245895833332952,
          "durationTicks": 125,
          "midi": 70,
          "name": "A#4",
          "ticks": 72150,
          "time": 59.13931075,
          "velocity": 0.7874015748031497
        },
        {
          "duration": 0.10245895833332952,
          "durationTicks": 125,
          "midi": 70,
          "name": "A#4",
          "ticks": 72150,
          "time": 59.13931075,
          "velocity": 0.7874015748031497
        },
        {
          "duration": 0.10245895833332952,
          "durationTicks": 125,
          "midi": 68,
          "name": "G#4",
          "ticks": 72300,
          "time": 59.2622615,
          "velocity": 0.7874015748031497
        },
        {
          "duration": 0.10245895833332952,
          "durationTicks": 125,
          "midi": 68,
          "name": "G#4",
          "ticks": 72300,
          "time": 59.2622615,
          "velocity": 0.7874015748031497
        },
        {
          "duration": 0.10245895833332952,
          "durationTicks": 125,
          "midi": 67,
          "name": "G4",
          "ticks": 72450,
          "time": 59.38521225,
          "velocity": 0.7874015748031497
        },
        {
          "duration": 0.10245895833332952,
          "durationTicks": 125,
          "midi": 67,
          "name": "G4",
          "ticks": 72450,
          "time": 59.38521225,
          "velocity": 0.7874015748031497
        },
        {
          "duration": 0.10245895833333662,
          "durationTicks": 125,
          "midi": 72,
          "name": "C5",
          "ticks": 72600,
          "time": 59.508162999999996,
          "velocity": 0.7874015748031497
        },
        {
          "duration": 0.10245895833333662,
          "durationTicks": 125,
          "midi": 72,
          "name": "C5",
          "ticks": 72600,
          "time": 59.508162999999996,
          "velocity": 0.7874015748031497
        },
        {
          "duration": 0.10245895833332952,
          "durationTicks": 125,
          "midi": 70,
          "name": "A#4",
          "ticks": 72750,
          "time": 59.63111375,
          "velocity": 0.7874015748031497
        },
        {
          "duration": 0.10245895833332952,
          "durationTicks": 125,
          "midi": 70,
          "name": "A#4",
          "ticks": 72750,
          "time": 59.63111375,
          "velocity": 0.7874015748031497
        },
        {
          "duration": 0.10245895833332952,
          "durationTicks": 125,
          "midi": 68,
          "name": "G#4",
          "ticks": 72900,
          "time": 59.7540645,
          "velocity": 0.7874015748031497
        },
        {
          "duration": 0.10245895833332952,
          "durationTicks": 125,
          "midi": 68,
          "name": "G#4",
          "ticks": 72900,
          "time": 59.7540645,
          "velocity": 0.7874015748031497
        },
        {
          "duration": 0.10245895833332952,
          "durationTicks": 125,
          "midi": 67,
          "name": "G4",
          "ticks": 73050,
          "time": 59.87701525,
          "velocity": 0.7874015748031497
        },
        {
          "duration": 0.10245895833332952,
          "durationTicks": 125,
          "midi": 67,
          "name": "G4",
          "ticks": 73050,
          "time": 59.87701525,
          "velocity": 0.7874015748031497
        },
        {
          "duration": 0.061475375000000554,
          "durationTicks": 75,
          "midi": 72,
          "name": "C5",
          "ticks": 73200,
          "time": 59.999966,
          "velocity": 0.7874015748031497
        },
        {
          "duration": 0.061475375000000554,
          "durationTicks": 75,
          "midi": 72,
          "name": "C5",
          "ticks": 73200,
          "time": 59.999966,
          "velocity": 0.7874015748031497
        },
        {
          "duration": 0.061475375000000554,
          "durationTicks": 75,
          "midi": 70,
          "name": "A#4",
          "ticks": 73275,
          "time": 60.061441375,
          "velocity": 0.7874015748031497
        },
        {
          "duration": 0.061475375000000554,
          "durationTicks": 75,
          "midi": 70,
          "name": "A#4",
          "ticks": 73275,
          "time": 60.061441375,
          "velocity": 0.7874015748031497
        },
        {
          "duration": 0.061475375000000554,
          "durationTicks": 75,
          "midi": 68,
          "name": "G#4",
          "ticks": 73350,
          "time": 60.12291675,
          "velocity": 0.7874015748031497
        },
        {
          "duration": 0.061475375000000554,
          "durationTicks": 75,
          "midi": 68,
          "name": "G#4",
          "ticks": 73350,
          "time": 60.12291675,
          "velocity": 0.7874015748031497
        },
        {
          "duration": 0.06147537499999345,
          "durationTicks": 75,
          "midi": 67,
          "name": "G4",
          "ticks": 73425,
          "time": 60.184392125,
          "velocity": 0.7874015748031497
        },
        {
          "duration": 0.06147537499999345,
          "durationTicks": 75,
          "midi": 67,
          "name": "G4",
          "ticks": 73425,
          "time": 60.184392125,
          "velocity": 0.7874015748031497
        },
        {
          "duration": 0.061475375000000554,
          "durationTicks": 75,
          "midi": 72,
          "name": "C5",
          "ticks": 73500,
          "time": 60.245867499999996,
          "velocity": 0.7874015748031497
        },
        {
          "duration": 0.061475375000000554,
          "durationTicks": 75,
          "midi": 72,
          "name": "C5",
          "ticks": 73500,
          "time": 60.245867499999996,
          "velocity": 0.7874015748031497
        },
        {
          "duration": 0.061475375000000554,
          "durationTicks": 75,
          "midi": 70,
          "name": "A#4",
          "ticks": 73575,
          "time": 60.307342874999996,
          "velocity": 0.7874015748031497
        },
        {
          "duration": 0.061475375000000554,
          "durationTicks": 75,
          "midi": 70,
          "name": "A#4",
          "ticks": 73575,
          "time": 60.307342874999996,
          "velocity": 0.7874015748031497
        },
        {
          "duration": 0.061475375000000554,
          "durationTicks": 75,
          "midi": 68,
          "name": "G#4",
          "ticks": 73650,
          "time": 60.36881825,
          "velocity": 0.7874015748031497
        },
        {
          "duration": 0.061475375000000554,
          "durationTicks": 75,
          "midi": 68,
          "name": "G#4",
          "ticks": 73650,
          "time": 60.36881825,
          "velocity": 0.7874015748031497
        },
        {
          "duration": 0.061475375000000554,
          "durationTicks": 75,
          "midi": 67,
          "name": "G4",
          "ticks": 73725,
          "time": 60.430293625,
          "velocity": 0.7874015748031497
        },
        {
          "duration": 0.061475375000000554,
          "durationTicks": 75,
          "midi": 67,
          "name": "G4",
          "ticks": 73725,
          "time": 60.430293625,
          "velocity": 0.7874015748031497
        },
        {
          "duration": 0.061475375000000554,
          "durationTicks": 75,
          "midi": 72,
          "name": "C5",
          "ticks": 73800,
          "time": 60.491769,
          "velocity": 0.7874015748031497
        },
        {
          "duration": 0.061475375000000554,
          "durationTicks": 75,
          "midi": 72,
          "name": "C5",
          "ticks": 73800,
          "time": 60.491769,
          "velocity": 0.7874015748031497
        },
        {
          "duration": 0.061475375000000554,
          "durationTicks": 75,
          "midi": 70,
          "name": "A#4",
          "ticks": 73875,
          "time": 60.553244375,
          "velocity": 0.7874015748031497
        },
        {
          "duration": 0.061475375000000554,
          "durationTicks": 75,
          "midi": 70,
          "name": "A#4",
          "ticks": 73875,
          "time": 60.553244375,
          "velocity": 0.7874015748031497
        },
        {
          "duration": 0.061475375000000554,
          "durationTicks": 75,
          "midi": 68,
          "name": "G#4",
          "ticks": 73950,
          "time": 60.61471975,
          "velocity": 0.7874015748031497
        },
        {
          "duration": 0.061475375000000554,
          "durationTicks": 75,
          "midi": 68,
          "name": "G#4",
          "ticks": 73950,
          "time": 60.61471975,
          "velocity": 0.7874015748031497
        },
        {
          "duration": 0.061475375000000554,
          "durationTicks": 75,
          "midi": 67,
          "name": "G4",
          "ticks": 74025,
          "time": 60.676195125,
          "velocity": 0.7874015748031497
        },
        {
          "duration": 0.061475375000000554,
          "durationTicks": 75,
          "midi": 67,
          "name": "G4",
          "ticks": 74025,
          "time": 60.676195125,
          "velocity": 0.7874015748031497
        },
        {
          "duration": 0.061475375000000554,
          "durationTicks": 75,
          "midi": 72,
          "name": "C5",
          "ticks": 74100,
          "time": 60.7376705,
          "velocity": 0.7874015748031497
        },
        {
          "duration": 0.061475375000000554,
          "durationTicks": 75,
          "midi": 72,
          "name": "C5",
          "ticks": 74100,
          "time": 60.7376705,
          "velocity": 0.7874015748031497
        },
        {
          "duration": 0.061475375000000554,
          "durationTicks": 75,
          "midi": 70,
          "name": "A#4",
          "ticks": 74175,
          "time": 60.799145875,
          "velocity": 0.7874015748031497
        },
        {
          "duration": 0.061475375000000554,
          "durationTicks": 75,
          "midi": 70,
          "name": "A#4",
          "ticks": 74175,
          "time": 60.799145875,
          "velocity": 0.7874015748031497
        },
        {
          "duration": 0.061475375000000554,
          "durationTicks": 75,
          "midi": 68,
          "name": "G#4",
          "ticks": 74250,
          "time": 60.86062125,
          "velocity": 0.7874015748031497
        },
        {
          "duration": 0.061475375000000554,
          "durationTicks": 75,
          "midi": 68,
          "name": "G#4",
          "ticks": 74250,
          "time": 60.86062125,
          "velocity": 0.7874015748031497
        },
        {
          "duration": 0.06147537499999345,
          "durationTicks": 75,
          "midi": 67,
          "name": "G4",
          "ticks": 74325,
          "time": 60.922096625,
          "velocity": 0.7874015748031497
        },
        {
          "duration": 0.06147537499999345,
          "durationTicks": 75,
          "midi": 67,
          "name": "G4",
          "ticks": 74325,
          "time": 60.922096625,
          "velocity": 0.7874015748031497
        },
        {
          "duration": 0.18442612500000166,
          "durationTicks": 225,
          "midi": 72,
          "name": "C5",
          "ticks": 74400,
          "time": 60.983571999999995,
          "velocity": 0.7874015748031497
        },
        {
          "duration": 0.18442612500000166,
          "durationTicks": 225,
          "midi": 75,
          "name": "D#5",
          "ticks": 74400,
          "time": 60.983571999999995,
          "velocity": 0.7874015748031497
        },
        {
          "duration": 0.18442612500000166,
          "durationTicks": 225,
          "midi": 75,
          "name": "D#5",
          "ticks": 74400,
          "time": 60.983571999999995,
          "velocity": 0.7874015748031497
        },
        {
          "duration": 0.061475375000000554,
          "durationTicks": 75,
          "midi": 72,
          "name": "C5",
          "ticks": 74700,
          "time": 61.2294735,
          "velocity": 0.7874015748031497
        },
        {
          "duration": 0.061475375000000554,
          "durationTicks": 75,
          "midi": 67,
          "name": "G4",
          "ticks": 74700,
          "time": 61.2294735,
          "velocity": 0.7874015748031497
        },
        {
          "duration": 0.30737687500000277,
          "durationTicks": 375,
          "midi": 72,
          "name": "C5",
          "ticks": 74850,
          "time": 61.35242425,
          "velocity": 0.7874015748031497
        },
        {
          "duration": 0.30737687500000277,
          "durationTicks": 375,
          "midi": 75,
          "name": "D#5",
          "ticks": 74850,
          "time": 61.35242425,
          "velocity": 0.7874015748031497
        },
        {
          "duration": 0.30737687500000277,
          "durationTicks": 375,
          "midi": 75,
          "name": "D#5",
          "ticks": 74850,
          "time": 61.35242425,
          "velocity": 0.7874015748031497
        },
        {
          "duration": 0.18442612499999456,
          "durationTicks": 225,
          "midi": 74,
          "name": "D5",
          "ticks": 75300,
          "time": 61.7212765,
          "velocity": 0.7874015748031497
        },
        {
          "duration": 0.18442612499999456,
          "durationTicks": 225,
          "midi": 77,
          "name": "F5",
          "ticks": 75300,
          "time": 61.7212765,
          "velocity": 0.7874015748031497
        },
        {
          "duration": 0.18442612499999456,
          "durationTicks": 225,
          "midi": 77,
          "name": "F5",
          "ticks": 75300,
          "time": 61.7212765,
          "velocity": 0.7874015748031497
        },
        {
          "duration": 0.9221306250000012,
          "durationTicks": 1125,
          "midi": 75,
          "name": "D#5",
          "ticks": 75600,
          "time": 61.967178,
          "velocity": 0.7874015748031497
        },
        {
          "duration": 0.9221306250000012,
          "durationTicks": 1125,
          "midi": 79,
          "name": "G5",
          "ticks": 75600,
          "time": 61.967178,
          "velocity": 0.7874015748031497
        },
        {
          "duration": 0.9221306250000012,
          "durationTicks": 1125,
          "midi": 79,
          "name": "G5",
          "ticks": 75600,
          "time": 61.967178,
          "velocity": 0.7874015748031497
        }
      ]
    },
    {
      "channel": 0,
      "controlChanges": {},
      "pitchBends": [
        {
          "ticks": 38400,
          "time": 31.475392,
          "value": 0
        }
      ],
      "instrument": {
        "family": "piano",
        "number": 0,
        "name": "acoustic grand piano"
      },
      "name": "",
      "notes": []
    },
    {
      "channel": 14,
      "controlChanges": {
        "6": [
          {
            "number": 6,
            "ticks": 38400,
            "time": 31.475392,
            "value": 0.09448818897637795
          },
          {
            "number": 6,
            "ticks": 184800,
            "time": 151.475324,
            "value": 0.09448818897637795
          },
          {
            "number": 6,
            "ticks": 184800,
            "time": 151.475324,
            "value": 0.09448818897637795
          }
        ],
        "7": [
          {
            "number": 7,
            "ticks": 38400,
            "time": 31.475392,
            "value": 0.7874015748031497
          },
          {
            "number": 7,
            "ticks": 38400,
            "time": 31.475392,
            "value": 0.7874015748031497
          },
          {
            "number": 7,
            "ticks": 184800,
            "time": 151.475324,
            "value": 0.7874015748031497
          },
          {
            "number": 7,
            "ticks": 184800,
            "time": 151.475324,
            "value": 0.7874015748031497
          }
        ],
        "10": [
          {
            "number": 10,
            "ticks": 38400,
            "time": 31.475392,
            "value": 0.5039370078740157
          },
          {
            "number": 10,
            "ticks": 38400,
            "time": 31.475392,
            "value": 0.5039370078740157
          },
          {
            "number": 10,
            "ticks": 184800,
            "time": 151.475324,
            "value": 0.5039370078740157
          },
          {
            "number": 10,
            "ticks": 184800,
            "time": 151.475324,
            "value": 0.5039370078740157
          }
        ],
        "100": [
          {
            "number": 100,
            "ticks": 38400,
            "time": 31.475392,
            "value": 0
          },
          {
            "number": 100,
            "ticks": 184800,
            "time": 151.475324,
            "value": 0
          },
          {
            "number": 100,
            "ticks": 184800,
            "time": 151.475324,
            "value": 0
          }
        ],
        "101": [
          {
            "number": 101,
            "ticks": 38400,
            "time": 31.475392,
            "value": 0
          },
          {
            "number": 101,
            "ticks": 184800,
            "time": 151.475324,
            "value": 0
          },
          {
            "number": 101,
            "ticks": 184800,
            "time": 151.475324,
            "value": 0
          }
        ]
      },
      "pitchBends": [
        {
          "ticks": 38400,
          "time": 31.475392,
          "value": 0
        },
        {
          "ticks": 38400,
          "time": 31.475392,
          "value": 0
        },
        {
          "ticks": 184800,
          "time": 151.475324,
          "value": 0
        },
        {
          "ticks": 184800,
          "time": 151.475324,
          "value": 0
        }
      ],
      "instrument": {
        "family": "reed",
        "number": 65,
        "name": "alto sax"
      },
      "name": "",
      "notes": [
        {
          "duration": 0.9836059999999947,
          "durationTicks": 1200,
          "midi": 62,
          "name": "D4",
          "ticks": 153600,
          "time": 125.901568,
          "velocity": 0.7165354330708661
        },
        {
          "duration": 0.3688522500000033,
          "durationTicks": 450,
          "midi": 62,
          "name": "D4",
          "ticks": 154800,
          "time": 126.88517399999999,
          "velocity": 0.7165354330708661
        },
        {
          "duration": 0.12295075000000111,
          "durationTicks": 150,
          "midi": 62,
          "name": "D4",
          "ticks": 155250,
          "time": 127.25402625,
          "velocity": 0.7165354330708661
        },
        {
          "duration": 0.49180300000000443,
          "durationTicks": 600,
          "midi": 64,
          "name": "E4",
          "ticks": 155400,
          "time": 127.376977,
          "velocity": 0.7165354330708661
        },
        {
          "duration": 1.475408999999999,
          "durationTicks": 1800,
          "midi": 65,
          "name": "F4",
          "ticks": 156000,
          "time": 127.86878,
          "velocity": 0.7165354330708661
        },
        {
          "duration": 0.49180300000000443,
          "durationTicks": 600,
          "midi": 70,
          "name": "A#4",
          "ticks": 157800,
          "time": 129.344189,
          "velocity": 0.7165354330708661
        },
        {
          "duration": 0.49180300000000443,
          "durationTicks": 600,
          "midi": 69,
          "name": "A4",
          "ticks": 158400,
          "time": 129.835992,
          "velocity": 0.7165354330708661
        },
        {
          "duration": 0.491802999999976,
          "durationTicks": 600,
          "midi": 65,
          "name": "F4",
          "ticks": 159000,
          "time": 130.327795,
          "velocity": 0.7165354330708661
        },
        {
          "duration": 0.49180300000000443,
          "durationTicks": 600,
          "midi": 67,
          "name": "G4",
          "ticks": 159600,
          "time": 130.81959799999998,
          "velocity": 0.7165354330708661
        },
        {
          "duration": 0.49180300000000443,
          "durationTicks": 600,
          "midi": 64,
          "name": "E4",
          "ticks": 160200,
          "time": 131.311401,
          "velocity": 0.7165354330708661
        },
        {
          "duration": 0.9836060000000089,
          "durationTicks": 1200,
          "midi": 65,
          "name": "F4",
          "ticks": 160800,
          "time": 131.803204,
          "velocity": 0.7165354330708661
        },
        {
          "duration": 0.9836060000000089,
          "durationTicks": 1200,
          "midi": 64,
          "name": "E4",
          "ticks": 162000,
          "time": 132.78681,
          "velocity": 0.7165354330708661
        },
        {
          "duration": 0.9836059999999804,
          "durationTicks": 1200,
          "midi": 62,
          "name": "D4",
          "ticks": 163200,
          "time": 133.770416,
          "velocity": 1
        },
        {
          "duration": 0.3688522500000033,
          "durationTicks": 450,
          "midi": 62,
          "name": "D4",
          "ticks": 164400,
          "time": 134.754022,
          "velocity": 1
        },
        {
          "duration": 0.12295075000000111,
          "durationTicks": 150,
          "midi": 62,
          "name": "D4",
          "ticks": 164850,
          "time": 135.12287425,
          "velocity": 1
        },
        {
          "duration": 0.49180300000000443,
          "durationTicks": 600,
          "midi": 64,
          "name": "E4",
          "ticks": 165000,
          "time": 135.245825,
          "velocity": 1
        },
        {
          "duration": 1.4754089999999849,
          "durationTicks": 1800,
          "midi": 65,
          "name": "F4",
          "ticks": 165600,
          "time": 135.737628,
          "velocity": 1
        },
        {
          "duration": 0.49180300000000443,
          "durationTicks": 600,
          "midi": 70,
          "name": "A#4",
          "ticks": 167400,
          "time": 137.21303699999999,
          "velocity": 1
        },
        {
          "duration": 0.49180300000000443,
          "durationTicks": 600,
          "midi": 69,
          "name": "A4",
          "ticks": 168000,
          "time": 137.70484,
          "velocity": 1
        },
        {
          "duration": 0.49180300000000443,
          "durationTicks": 600,
          "midi": 65,
          "name": "F4",
          "ticks": 168600,
          "time": 138.196643,
          "velocity": 1
        },
        {
          "duration": 0.49180300000000443,
          "durationTicks": 600,
          "midi": 67,
          "name": "G4",
          "ticks": 169200,
          "time": 138.688446,
          "velocity": 1
        },
        {
          "duration": 0.49180300000000443,
          "durationTicks": 600,
          "midi": 64,
          "name": "E4",
          "ticks": 169800,
          "time": 139.180249,
          "velocity": 1
        },
        {
          "duration": 1.9672119999999893,
          "durationTicks": 2400,
          "midi": 65,
          "name": "F4",
          "ticks": 170400,
          "time": 139.672052,
          "velocity": 1
        }
      ]
    },
    {
      "channel": 13,
      "controlChanges": {},
      "pitchBends": [
        {
          "ticks": 38400,
          "time": 31.475392,
          "value": 0
        }
      ],
      "instrument": {
        "family": "piano",
        "number": 0,
        "name": "acoustic grand piano"
      },
      "name": "",
      "notes": []
    },
    {
      "channel": 13,
      "controlChanges": {
        "6": [
          {
            "number": 6,
            "ticks": 38400,
            "time": 31.475392,
            "value": 0.09448818897637795
          },
          {
            "number": 6,
            "ticks": 184800,
            "time": 151.475324,
            "value": 0.09448818897637795
          },
          {
            "number": 6,
            "ticks": 184800,
            "time": 151.475324,
            "value": 0.09448818897637795
          }
        ],
        "7": [
          {
            "number": 7,
            "ticks": 38400,
            "time": 31.475392,
            "value": 0.3858267716535433
          },
          {
            "number": 7,
            "ticks": 38400,
            "time": 31.475392,
            "value": 0.3858267716535433
          },
          {
            "number": 7,
            "ticks": 184800,
            "time": 151.475324,
            "value": 0.3858267716535433
          },
          {
            "number": 7,
            "ticks": 184800,
            "time": 151.475324,
            "value": 0.3858267716535433
          }
        ],
        "10": [
          {
            "number": 10,
            "ticks": 38400,
            "time": 31.475392,
            "value": 0.5039370078740157
          },
          {
            "number": 10,
            "ticks": 38400,
            "time": 31.475392,
            "value": 0.5039370078740157
          },
          {
            "number": 10,
            "ticks": 184800,
            "time": 151.475324,
            "value": 0.5039370078740157
          },
          {
            "number": 10,
            "ticks": 184800,
            "time": 151.475324,
            "value": 0.5039370078740157
          }
        ],
        "100": [
          {
            "number": 100,
            "ticks": 38400,
            "time": 31.475392,
            "value": 0
          },
          {
            "number": 100,
            "ticks": 184800,
            "time": 151.475324,
            "value": 0
          },
          {
            "number": 100,
            "ticks": 184800,
            "time": 151.475324,
            "value": 0
          }
        ],
        "101": [
          {
            "number": 101,
            "ticks": 38400,
            "time": 31.475392,
            "value": 0
          },
          {
            "number": 101,
            "ticks": 184800,
            "time": 151.475324,
            "value": 0
          },
          {
            "number": 101,
            "ticks": 184800,
            "time": 151.475324,
            "value": 0
          }
        ]
      },
      "pitchBends": [
        {
          "ticks": 38400,
          "time": 31.475392,
          "value": 0
        },
        {
          "ticks": 38400,
          "time": 31.475392,
          "value": 0
        },
        {
          "ticks": 184800,
          "time": 151.475324,
          "value": 0
        },
        {
          "ticks": 184800,
          "time": 151.475324,
          "value": 0
        }
      ],
      "instrument": {
        "family": "organ",
        "number": 18,
        "name": "rock organ"
      },
      "name": "",
      "notes": [
        {
          "duration": 1.9516382383333308,
          "durationTicks": 2381,
          "midi": 72,
          "name": "C5",
          "ticks": 40800,
          "time": 33.442604,
          "velocity": 0.7637795275590551
        },
        {
          "duration": 1.9516382383333308,
          "durationTicks": 2381,
          "midi": 60,
          "name": "C4",
          "ticks": 40800,
          "time": 33.442604,
          "velocity": 0.7637795275590551
        },
        {
          "duration": 1.9516382383333308,
          "durationTicks": 2381,
          "midi": 67,
          "name": "G4",
          "ticks": 40800,
          "time": 33.442604,
          "velocity": 0.7637795275590551
        },
        {
          "duration": 1.9516382383333308,
          "durationTicks": 2381,
          "midi": 68,
          "name": "G#4",
          "ticks": 43200,
          "time": 35.409816,
          "velocity": 0.7637795275590551
        },
        {
          "duration": 1.9516382383333308,
          "durationTicks": 2381,
          "midi": 56,
          "name": "G#3",
          "ticks": 43200,
          "time": 35.409816,
          "velocity": 0.7637795275590551
        },
        {
          "duration": 1.9516382383333308,
          "durationTicks": 2381,
          "midi": 63,
          "name": "D#4",
          "ticks": 43200,
          "time": 35.409816,
          "velocity": 0.7637795275590551
        },
        {
          "duration": 0.9680322383333362,
          "durationTicks": 1181,
          "midi": 70,
          "name": "A#4",
          "ticks": 45600,
          "time": 37.377027999999996,
          "velocity": 0.7559055118110236
        },
        {
          "duration": 0.9680322383333362,
          "durationTicks": 1181,
          "midi": 58,
          "name": "A#3",
          "ticks": 45600,
          "time": 37.377027999999996,
          "velocity": 0.7559055118110236
        },
        {
          "duration": 0.9680322383333362,
          "durationTicks": 1181,
          "midi": 65,
          "name": "F4",
          "ticks": 45600,
          "time": 37.377027999999996,
          "velocity": 0.7559055118110236
        },
        {
          "duration": 0.9680322383333362,
          "durationTicks": 1181,
          "midi": 71,
          "name": "B4",
          "ticks": 46800,
          "time": 38.360634,
          "velocity": 0.7559055118110236
        },
        {
          "duration": 0.9680322383333362,
          "durationTicks": 1181,
          "midi": 59,
          "name": "B3",
          "ticks": 46800,
          "time": 38.360634,
          "velocity": 0.7559055118110236
        },
        {
          "duration": 0.9680322383333362,
          "durationTicks": 1181,
          "midi": 66,
          "name": "F#4",
          "ticks": 46800,
          "time": 38.360634,
          "velocity": 0.7559055118110236
        },
        {
          "duration": 1.9516382383333308,
          "durationTicks": 2381,
          "midi": 60,
          "name": "C4",
          "ticks": 48000,
          "time": 39.34424,
          "velocity": 0.7716535433070866
        },
        {
          "duration": 1.9516382383333308,
          "durationTicks": 2381,
          "midi": 72,
          "name": "C5",
          "ticks": 48000,
          "time": 39.34424,
          "velocity": 0.7716535433070866
        },
        {
          "duration": 1.9516382383333308,
          "durationTicks": 2381,
          "midi": 67,
          "name": "G4",
          "ticks": 48000,
          "time": 39.34424,
          "velocity": 0.7716535433070866
        },
        {
          "duration": 1.9516382383333308,
          "durationTicks": 2381,
          "midi": 72,
          "name": "C5",
          "ticks": 50400,
          "time": 41.311452,
          "velocity": 0.7637795275590551
        },
        {
          "duration": 1.9516382383333308,
          "durationTicks": 2381,
          "midi": 60,
          "name": "C4",
          "ticks": 50400,
          "time": 41.311452,
          "velocity": 0.7637795275590551
        },
        {
          "duration": 1.9516382383333308,
          "durationTicks": 2381,
          "midi": 67,
          "name": "G4",
          "ticks": 50400,
          "time": 41.311452,
          "velocity": 0.7637795275590551
        },
        {
          "duration": 1.9516382383333308,
          "durationTicks": 2381,
          "midi": 68,
          "name": "G#4",
          "ticks": 52800,
          "time": 43.278664,
          "velocity": 0.7637795275590551
        },
        {
          "duration": 1.9516382383333308,
          "durationTicks": 2381,
          "midi": 56,
          "name": "G#3",
          "ticks": 52800,
          "time": 43.278664,
          "velocity": 0.7637795275590551
        },
        {
          "duration": 1.9516382383333308,
          "durationTicks": 2381,
          "midi": 63,
          "name": "D#4",
          "ticks": 52800,
          "time": 43.278664,
          "velocity": 0.7637795275590551
        },
        {
          "duration": 0.9680322383333362,
          "durationTicks": 1181,
          "midi": 70,
          "name": "A#4",
          "ticks": 55200,
          "time": 45.245875999999996,
          "velocity": 0.7559055118110236
        },
        {
          "duration": 0.9680322383333362,
          "durationTicks": 1181,
          "midi": 58,
          "name": "A#3",
          "ticks": 55200,
          "time": 45.245875999999996,
          "velocity": 0.7559055118110236
        },
        {
          "duration": 0.9680322383333362,
          "durationTicks": 1181,
          "midi": 65,
          "name": "F4",
          "ticks": 55200,
          "time": 45.245875999999996,
          "velocity": 0.7559055118110236
        },
        {
          "duration": 0.9680322383333362,
          "durationTicks": 1181,
          "midi": 71,
          "name": "B4",
          "ticks": 56400,
          "time": 46.229482,
          "velocity": 0.7559055118110236
        },
        {
          "duration": 0.9680322383333362,
          "durationTicks": 1181,
          "midi": 59,
          "name": "B3",
          "ticks": 56400,
          "time": 46.229482,
          "velocity": 0.7559055118110236
        },
        {
          "duration": 0.9680322383333362,
          "durationTicks": 1181,
          "midi": 66,
          "name": "F#4",
          "ticks": 56400,
          "time": 46.229482,
          "velocity": 0.7559055118110236
        },
        {
          "duration": 1.9516382383333308,
          "durationTicks": 2381,
          "midi": 60,
          "name": "C4",
          "ticks": 57600,
          "time": 47.213088,
          "velocity": 0.7716535433070866
        },
        {
          "duration": 1.9516382383333308,
          "durationTicks": 2381,
          "midi": 72,
          "name": "C5",
          "ticks": 57600,
          "time": 47.213088,
          "velocity": 0.7716535433070866
        },
        {
          "duration": 1.9516382383333308,
          "durationTicks": 2381,
          "midi": 67,
          "name": "G4",
          "ticks": 57600,
          "time": 47.213088,
          "velocity": 0.7716535433070866
        },
        {
          "duration": 1.9516382383333308,
          "durationTicks": 2381,
          "midi": 72,
          "name": "C5",
          "ticks": 60000,
          "time": 49.1803,
          "velocity": 0.7637795275590551
        },
        {
          "duration": 1.9516382383333308,
          "durationTicks": 2381,
          "midi": 60,
          "name": "C4",
          "ticks": 60000,
          "time": 49.1803,
          "velocity": 0.7637795275590551
        },
        {
          "duration": 1.9516382383333308,
          "durationTicks": 2381,
          "midi": 67,
          "name": "G4",
          "ticks": 60000,
          "time": 49.1803,
          "velocity": 0.7637795275590551
        },
        {
          "duration": 1.9516382383333308,
          "durationTicks": 2381,
          "midi": 68,
          "name": "G#4",
          "ticks": 62400,
          "time": 51.147512,
          "velocity": 0.7637795275590551
        },
        {
          "duration": 1.9516382383333308,
          "durationTicks": 2381,
          "midi": 56,
          "name": "G#3",
          "ticks": 62400,
          "time": 51.147512,
          "velocity": 0.7637795275590551
        },
        {
          "duration": 1.9516382383333308,
          "durationTicks": 2381,
          "midi": 63,
          "name": "D#4",
          "ticks": 62400,
          "time": 51.147512,
          "velocity": 0.7637795275590551
        },
        {
          "duration": 0.9680322383333362,
          "durationTicks": 1181,
          "midi": 70,
          "name": "A#4",
          "ticks": 64800,
          "time": 53.114723999999995,
          "velocity": 0.7559055118110236
        },
        {
          "duration": 0.9680322383333362,
          "durationTicks": 1181,
          "midi": 58,
          "name": "A#3",
          "ticks": 64800,
          "time": 53.114723999999995,
          "velocity": 0.7559055118110236
        },
        {
          "duration": 0.9680322383333362,
          "durationTicks": 1181,
          "midi": 65,
          "name": "F4",
          "ticks": 64800,
          "time": 53.114723999999995,
          "velocity": 0.7559055118110236
        },
        {
          "duration": 0.9680322383333362,
          "durationTicks": 1181,
          "midi": 71,
          "name": "B4",
          "ticks": 66000,
          "time": 54.09833,
          "velocity": 0.7559055118110236
        },
        {
          "duration": 0.9680322383333362,
          "durationTicks": 1181,
          "midi": 59,
          "name": "B3",
          "ticks": 66000,
          "time": 54.09833,
          "velocity": 0.7559055118110236
        },
        {
          "duration": 0.9680322383333362,
          "durationTicks": 1181,
          "midi": 66,
          "name": "F#4",
          "ticks": 66000,
          "time": 54.09833,
          "velocity": 0.7559055118110236
        },
        {
          "duration": 1.9516382383333308,
          "durationTicks": 2381,
          "midi": 60,
          "name": "C4",
          "ticks": 67200,
          "time": 55.081936,
          "velocity": 0.7716535433070866
        },
        {
          "duration": 1.9516382383333308,
          "durationTicks": 2381,
          "midi": 72,
          "name": "C5",
          "ticks": 67200,
          "time": 55.081936,
          "velocity": 0.7716535433070866
        },
        {
          "duration": 1.9516382383333308,
          "durationTicks": 2381,
          "midi": 67,
          "name": "G4",
          "ticks": 67200,
          "time": 55.081936,
          "velocity": 0.7716535433070866
        },
        {
          "duration": 1.9516382383333308,
          "durationTicks": 2381,
          "midi": 72,
          "name": "C5",
          "ticks": 69600,
          "time": 57.049148,
          "velocity": 0.7637795275590551
        },
        {
          "duration": 1.9516382383333308,
          "durationTicks": 2381,
          "midi": 60,
          "name": "C4",
          "ticks": 69600,
          "time": 57.049148,
          "velocity": 0.7637795275590551
        },
        {
          "duration": 1.9516382383333308,
          "durationTicks": 2381,
          "midi": 67,
          "name": "G4",
          "ticks": 69600,
          "time": 57.049148,
          "velocity": 0.7637795275590551
        },
        {
          "duration": 1.9516382383333308,
          "durationTicks": 2381,
          "midi": 68,
          "name": "G#4",
          "ticks": 72000,
          "time": 59.01636,
          "velocity": 0.7637795275590551
        },
        {
          "duration": 1.9516382383333308,
          "durationTicks": 2381,
          "midi": 56,
          "name": "G#3",
          "ticks": 72000,
          "time": 59.01636,
          "velocity": 0.7637795275590551
        },
        {
          "duration": 1.9516382383333308,
          "durationTicks": 2381,
          "midi": 63,
          "name": "D#4",
          "ticks": 72000,
          "time": 59.01636,
          "velocity": 0.7637795275590551
        },
        {
          "duration": 0.9680322383333362,
          "durationTicks": 1181,
          "midi": 70,
          "name": "A#4",
          "ticks": 74400,
          "time": 60.983571999999995,
          "velocity": 0.7559055118110236
        },
        {
          "duration": 0.9680322383333362,
          "durationTicks": 1181,
          "midi": 58,
          "name": "A#3",
          "ticks": 74400,
          "time": 60.983571999999995,
          "velocity": 0.7559055118110236
        },
        {
          "duration": 0.9680322383333362,
          "durationTicks": 1181,
          "midi": 65,
          "name": "F4",
          "ticks": 74400,
          "time": 60.983571999999995,
          "velocity": 0.7559055118110236
        },
        {
          "duration": 0.9680322383333362,
          "durationTicks": 1181,
          "midi": 71,
          "name": "B4",
          "ticks": 75600,
          "time": 61.967178,
          "velocity": 0.7559055118110236
        },
        {
          "duration": 0.9680322383333362,
          "durationTicks": 1181,
          "midi": 59,
          "name": "B3",
          "ticks": 75600,
          "time": 61.967178,
          "velocity": 0.7559055118110236
        },
        {
          "duration": 0.9680322383333362,
          "durationTicks": 1181,
          "midi": 66,
          "name": "F#4",
          "ticks": 75600,
          "time": 61.967178,
          "velocity": 0.7559055118110236
        },
        {
          "duration": 1.9516382383333308,
          "durationTicks": 2381,
          "midi": 60,
          "name": "C4",
          "ticks": 76800,
          "time": 62.950784,
          "velocity": 0.7795275590551181
        },
        {
          "duration": 1.9516382383333308,
          "durationTicks": 2381,
          "midi": 72,
          "name": "C5",
          "ticks": 76800,
          "time": 62.950784,
          "velocity": 0.7795275590551181
        },
        {
          "duration": 1.9516382383333308,
          "durationTicks": 2381,
          "midi": 67,
          "name": "G4",
          "ticks": 76800,
          "time": 62.950784,
          "velocity": 0.7795275590551181
        },
        {
          "duration": 1.9516382383333308,
          "durationTicks": 2381,
          "midi": 72,
          "name": "C5",
          "ticks": 79200,
          "time": 64.917996,
          "velocity": 0.7795275590551181
        },
        {
          "duration": 1.9516382383333308,
          "durationTicks": 2381,
          "midi": 60,
          "name": "C4",
          "ticks": 79200,
          "time": 64.917996,
          "velocity": 0.7795275590551181
        },
        {
          "duration": 1.9516382383333308,
          "durationTicks": 2381,
          "midi": 67,
          "name": "G4",
          "ticks": 79200,
          "time": 64.917996,
          "velocity": 0.7795275590551181
        },
        {
          "duration": 1.9516382383333308,
          "durationTicks": 2381,
          "midi": 75,
          "name": "D#5",
          "ticks": 81600,
          "time": 66.885208,
          "velocity": 0.7716535433070866
        },
        {
          "duration": 1.9516382383333308,
          "durationTicks": 2381,
          "midi": 63,
          "name": "D#4",
          "ticks": 81600,
          "time": 66.885208,
          "velocity": 0.7716535433070866
        },
        {
          "duration": 1.9516382383333308,
          "durationTicks": 2381,
          "midi": 70,
          "name": "A#4",
          "ticks": 81600,
          "time": 66.885208,
          "velocity": 0.7716535433070866
        },
        {
          "duration": 0.9680322383333362,
          "durationTicks": 1181,
          "midi": 77,
          "name": "F5",
          "ticks": 84000,
          "time": 68.85242,
          "velocity": 0.7637795275590551
        },
        {
          "duration": 0.9680322383333362,
          "durationTicks": 1181,
          "midi": 65,
          "name": "F4",
          "ticks": 84000,
          "time": 68.85242,
          "velocity": 0.7637795275590551
        },
        {
          "duration": 0.9680322383333362,
          "durationTicks": 1181,
          "midi": 72,
          "name": "C5",
          "ticks": 84000,
          "time": 68.85242,
          "velocity": 0.7637795275590551
        },
        {
          "duration": 0.968032238333322,
          "durationTicks": 1181,
          "midi": 79,
          "name": "G5",
          "ticks": 85200,
          "time": 69.836026,
          "velocity": 0.7637795275590551
        },
        {
          "duration": 0.968032238333322,
          "durationTicks": 1181,
          "midi": 67,
          "name": "G4",
          "ticks": 85200,
          "time": 69.836026,
          "velocity": 0.7637795275590551
        },
        {
          "duration": 0.968032238333322,
          "durationTicks": 1181,
          "midi": 74,
          "name": "D5",
          "ticks": 85200,
          "time": 69.836026,
          "velocity": 0.7637795275590551
        },
        {
          "duration": 1.9516382383333308,
          "durationTicks": 2381,
          "midi": 60,
          "name": "C4",
          "ticks": 86400,
          "time": 70.819632,
          "velocity": 0.7795275590551181
        },
        {
          "duration": 1.9516382383333308,
          "durationTicks": 2381,
          "midi": 72,
          "name": "C5",
          "ticks": 86400,
          "time": 70.819632,
          "velocity": 0.7795275590551181
        },
        {
          "duration": 1.9516382383333308,
          "durationTicks": 2381,
          "midi": 67,
          "name": "G4",
          "ticks": 86400,
          "time": 70.819632,
          "velocity": 0.7795275590551181
        },
        {
          "duration": 1.9516382383333308,
          "durationTicks": 2381,
          "midi": 72,
          "name": "C5",
          "ticks": 88800,
          "time": 72.786844,
          "velocity": 0.7795275590551181
        },
        {
          "duration": 1.9516382383333308,
          "durationTicks": 2381,
          "midi": 60,
          "name": "C4",
          "ticks": 88800,
          "time": 72.786844,
          "velocity": 0.7795275590551181
        },
        {
          "duration": 1.9516382383333308,
          "durationTicks": 2381,
          "midi": 67,
          "name": "G4",
          "ticks": 88800,
          "time": 72.786844,
          "velocity": 0.7795275590551181
        },
        {
          "duration": 1.951638238333345,
          "durationTicks": 2381,
          "midi": 75,
          "name": "D#5",
          "ticks": 91200,
          "time": 74.75405599999999,
          "velocity": 0.7716535433070866
        },
        {
          "duration": 1.951638238333345,
          "durationTicks": 2381,
          "midi": 63,
          "name": "D#4",
          "ticks": 91200,
          "time": 74.75405599999999,
          "velocity": 0.7716535433070866
        },
        {
          "duration": 1.951638238333345,
          "durationTicks": 2381,
          "midi": 70,
          "name": "A#4",
          "ticks": 91200,
          "time": 74.75405599999999,
          "velocity": 0.7716535433070866
        },
        {
          "duration": 0.9680322383333362,
          "durationTicks": 1181,
          "midi": 77,
          "name": "F5",
          "ticks": 93600,
          "time": 76.721268,
          "velocity": 0.7637795275590551
        },
        {
          "duration": 0.9680322383333362,
          "durationTicks": 1181,
          "midi": 65,
          "name": "F4",
          "ticks": 93600,
          "time": 76.721268,
          "velocity": 0.7637795275590551
        },
        {
          "duration": 0.9680322383333362,
          "durationTicks": 1181,
          "midi": 72,
          "name": "C5",
          "ticks": 93600,
          "time": 76.721268,
          "velocity": 0.7637795275590551
        },
        {
          "duration": 1.9672120000000035,
          "durationTicks": 2400,
          "midi": 63,
          "name": "D#4",
          "ticks": 96000,
          "time": 78.68848,
          "velocity": 0.8110236220472441
        },
        {
          "duration": 1.9672120000000035,
          "durationTicks": 2400,
          "midi": 68,
          "name": "G#4",
          "ticks": 96000,
          "time": 78.68848,
          "velocity": 0.8110236220472441
        },
        {
          "duration": 1.9672120000000035,
          "durationTicks": 2400,
          "midi": 56,
          "name": "G#3",
          "ticks": 96000,
          "time": 78.68848,
          "velocity": 0.8110236220472441
        },
        {
          "duration": 1.9672120000000035,
          "durationTicks": 2400,
          "midi": 65,
          "name": "F4",
          "ticks": 98400,
          "time": 80.655692,
          "velocity": 0.8110236220472441
        },
        {
          "duration": 1.9672120000000035,
          "durationTicks": 2400,
          "midi": 70,
          "name": "A#4",
          "ticks": 98400,
          "time": 80.655692,
          "velocity": 0.8110236220472441
        },
        {
          "duration": 1.9672120000000035,
          "durationTicks": 2400,
          "midi": 58,
          "name": "A#3",
          "ticks": 98400,
          "time": 80.655692,
          "velocity": 0.8110236220472441
        },
        {
          "duration": 1.9672119999999893,
          "durationTicks": 2400,
          "midi": 62,
          "name": "D4",
          "ticks": 100800,
          "time": 82.622904,
          "velocity": 0.8031496062992126
        },
        {
          "duration": 1.9672119999999893,
          "durationTicks": 2400,
          "midi": 67,
          "name": "G4",
          "ticks": 100800,
          "time": 82.622904,
          "velocity": 0.8031496062992126
        },
        {
          "duration": 1.9672119999999893,
          "durationTicks": 2400,
          "midi": 55,
          "name": "G3",
          "ticks": 100800,
          "time": 82.622904,
          "velocity": 0.8031496062992126
        },
        {
          "duration": 0.8606552500000078,
          "durationTicks": 1050,
          "midi": 67,
          "name": "G4",
          "ticks": 103200,
          "time": 84.590116,
          "velocity": 0.8031496062992126
        },
        {
          "duration": 0.8606552500000078,
          "durationTicks": 1050,
          "midi": 72,
          "name": "C5",
          "ticks": 103200,
          "time": 84.590116,
          "velocity": 0.8031496062992126
        },
        {
          "duration": 0.8606552500000078,
          "durationTicks": 1050,
          "midi": 60,
          "name": "C4",
          "ticks": 103200,
          "time": 84.590116,
          "velocity": 0.8031496062992126
        },
        {
          "duration": 1.1065567499999958,
          "durationTicks": 1350,
          "midi": 70,
          "name": "A#4",
          "ticks": 104250,
          "time": 85.45077125,
          "velocity": 0.8031496062992126
        },
        {
          "duration": 1.1065567499999958,
          "durationTicks": 1350,
          "midi": 75,
          "name": "D#5",
          "ticks": 104250,
          "time": 85.45077125,
          "velocity": 0.8031496062992126
        },
        {
          "duration": 1.1065567499999958,
          "durationTicks": 1350,
          "midi": 63,
          "name": "D#4",
          "ticks": 104250,
          "time": 85.45077125,
          "velocity": 0.8031496062992126
        },
        {
          "duration": 1.9672120000000035,
          "durationTicks": 2400,
          "midi": 63,
          "name": "D#4",
          "ticks": 105600,
          "time": 86.557328,
          "velocity": 0.8110236220472441
        },
        {
          "duration": 1.9672120000000035,
          "durationTicks": 2400,
          "midi": 68,
          "name": "G#4",
          "ticks": 105600,
          "time": 86.557328,
          "velocity": 0.8110236220472441
        },
        {
          "duration": 1.9672120000000035,
          "durationTicks": 2400,
          "midi": 56,
          "name": "G#3",
          "ticks": 105600,
          "time": 86.557328,
          "velocity": 0.8110236220472441
        },
        {
          "duration": 1.9672119999999893,
          "durationTicks": 2400,
          "midi": 65,
          "name": "F4",
          "ticks": 108000,
          "time": 88.52454,
          "velocity": 0.8110236220472441
        },
        {
          "duration": 1.9672119999999893,
          "durationTicks": 2400,
          "midi": 70,
          "name": "A#4",
          "ticks": 108000,
          "time": 88.52454,
          "velocity": 0.8110236220472441
        },
        {
          "duration": 1.9672119999999893,
          "durationTicks": 2400,
          "midi": 58,
          "name": "A#3",
          "ticks": 108000,
          "time": 88.52454,
          "velocity": 0.8110236220472441
        },
        {
          "duration": 1.9672120000000035,
          "durationTicks": 2400,
          "midi": 62,
          "name": "D4",
          "ticks": 110400,
          "time": 90.49175199999999,
          "velocity": 0.8031496062992126
        },
        {
          "duration": 1.9672120000000035,
          "durationTicks": 2400,
          "midi": 67,
          "name": "G4",
          "ticks": 110400,
          "time": 90.49175199999999,
          "velocity": 0.8031496062992126
        },
        {
          "duration": 1.9672120000000035,
          "durationTicks": 2400,
          "midi": 55,
          "name": "G3",
          "ticks": 110400,
          "time": 90.49175199999999,
          "velocity": 0.8031496062992126
        },
        {
          "duration": 0.8606552500000078,
          "durationTicks": 1050,
          "midi": 67,
          "name": "G4",
          "ticks": 112800,
          "time": 92.458964,
          "velocity": 0.8031496062992126
        },
        {
          "duration": 0.8606552500000078,
          "durationTicks": 1050,
          "midi": 72,
          "name": "C5",
          "ticks": 112800,
          "time": 92.458964,
          "velocity": 0.8031496062992126
        },
        {
          "duration": 0.8606552500000078,
          "durationTicks": 1050,
          "midi": 60,
          "name": "C4",
          "ticks": 112800,
          "time": 92.458964,
          "velocity": 0.8031496062992126
        },
        {
          "duration": 1.1065567499999958,
          "durationTicks": 1350,
          "midi": 70,
          "name": "A#4",
          "ticks": 113850,
          "time": 93.31961925,
          "velocity": 0.8031496062992126
        },
        {
          "duration": 1.1065567499999958,
          "durationTicks": 1350,
          "midi": 75,
          "name": "D#5",
          "ticks": 113850,
          "time": 93.31961925,
          "velocity": 0.8031496062992126
        },
        {
          "duration": 1.1065567499999958,
          "durationTicks": 1350,
          "midi": 63,
          "name": "D#4",
          "ticks": 113850,
          "time": 93.31961925,
          "velocity": 0.8031496062992126
        },
        {
          "duration": 1.9672120000000035,
          "durationTicks": 2400,
          "midi": 63,
          "name": "D#4",
          "ticks": 115200,
          "time": 94.426176,
          "velocity": 0.8110236220472441
        },
        {
          "duration": 1.9672120000000035,
          "durationTicks": 2400,
          "midi": 68,
          "name": "G#4",
          "ticks": 115200,
          "time": 94.426176,
          "velocity": 0.8110236220472441
        },
        {
          "duration": 1.9672120000000035,
          "durationTicks": 2400,
          "midi": 56,
          "name": "G#3",
          "ticks": 115200,
          "time": 94.426176,
          "velocity": 0.8110236220472441
        },
        {
          "duration": 1.9672120000000035,
          "durationTicks": 2400,
          "midi": 65,
          "name": "F4",
          "ticks": 117600,
          "time": 96.393388,
          "velocity": 0.8110236220472441
        },
        {
          "duration": 1.9672120000000035,
          "durationTicks": 2400,
          "midi": 70,
          "name": "A#4",
          "ticks": 117600,
          "time": 96.393388,
          "velocity": 0.8110236220472441
        },
        {
          "duration": 1.9672120000000035,
          "durationTicks": 2400,
          "midi": 58,
          "name": "A#3",
          "ticks": 117600,
          "time": 96.393388,
          "velocity": 0.8110236220472441
        },
        {
          "duration": 1.9672119999999893,
          "durationTicks": 2400,
          "midi": 62,
          "name": "D4",
          "ticks": 120000,
          "time": 98.3606,
          "velocity": 0.8031496062992126
        },
        {
          "duration": 1.9672119999999893,
          "durationTicks": 2400,
          "midi": 67,
          "name": "G4",
          "ticks": 120000,
          "time": 98.3606,
          "velocity": 0.8031496062992126
        },
        {
          "duration": 1.9672119999999893,
          "durationTicks": 2400,
          "midi": 55,
          "name": "G3",
          "ticks": 120000,
          "time": 98.3606,
          "velocity": 0.8031496062992126
        },
        {
          "duration": 0.8606552500000078,
          "durationTicks": 1050,
          "midi": 67,
          "name": "G4",
          "ticks": 122400,
          "time": 100.327812,
          "velocity": 0.8031496062992126
        },
        {
          "duration": 0.8606552500000078,
          "durationTicks": 1050,
          "midi": 72,
          "name": "C5",
          "ticks": 122400,
          "time": 100.327812,
          "velocity": 0.8031496062992126
        },
        {
          "duration": 0.8606552500000078,
          "durationTicks": 1050,
          "midi": 60,
          "name": "C4",
          "ticks": 122400,
          "time": 100.327812,
          "velocity": 0.8031496062992126
        },
        {
          "duration": 1.1065567499999958,
          "durationTicks": 1350,
          "midi": 70,
          "name": "A#4",
          "ticks": 123450,
          "time": 101.18846725,
          "velocity": 0.8031496062992126
        },
        {
          "duration": 1.1065567499999958,
          "durationTicks": 1350,
          "midi": 75,
          "name": "D#5",
          "ticks": 123450,
          "time": 101.18846725,
          "velocity": 0.8031496062992126
        },
        {
          "duration": 1.1065567499999958,
          "durationTicks": 1350,
          "midi": 63,
          "name": "D#4",
          "ticks": 123450,
          "time": 101.18846725,
          "velocity": 0.8031496062992126
        },
        {
          "duration": 1.9672120000000035,
          "durationTicks": 2400,
          "midi": 63,
          "name": "D#4",
          "ticks": 124800,
          "time": 102.295024,
          "velocity": 0.8110236220472441
        },
        {
          "duration": 1.9672120000000035,
          "durationTicks": 2400,
          "midi": 68,
          "name": "G#4",
          "ticks": 124800,
          "time": 102.295024,
          "velocity": 0.8110236220472441
        },
        {
          "duration": 1.9672120000000035,
          "durationTicks": 2400,
          "midi": 56,
          "name": "G#3",
          "ticks": 124800,
          "time": 102.295024,
          "velocity": 0.8110236220472441
        },
        {
          "duration": 1.9672119999999893,
          "durationTicks": 2400,
          "midi": 65,
          "name": "F4",
          "ticks": 127200,
          "time": 104.262236,
          "velocity": 0.8110236220472441
        },
        {
          "duration": 1.9672119999999893,
          "durationTicks": 2400,
          "midi": 70,
          "name": "A#4",
          "ticks": 127200,
          "time": 104.262236,
          "velocity": 0.8110236220472441
        },
        {
          "duration": 1.9672119999999893,
          "durationTicks": 2400,
          "midi": 58,
          "name": "A#3",
          "ticks": 127200,
          "time": 104.262236,
          "velocity": 0.8110236220472441
        },
        {
          "duration": 1.9672120000000035,
          "durationTicks": 2400,
          "midi": 62,
          "name": "D4",
          "ticks": 129600,
          "time": 106.22944799999999,
          "velocity": 0.8031496062992126
        },
        {
          "duration": 1.9672120000000035,
          "durationTicks": 2400,
          "midi": 67,
          "name": "G4",
          "ticks": 129600,
          "time": 106.22944799999999,
          "velocity": 0.8031496062992126
        },
        {
          "duration": 1.9672120000000035,
          "durationTicks": 2400,
          "midi": 55,
          "name": "G3",
          "ticks": 129600,
          "time": 106.22944799999999,
          "velocity": 0.8031496062992126
        },
        {
          "duration": 0.8606552500000078,
          "durationTicks": 1050,
          "midi": 67,
          "name": "G4",
          "ticks": 132000,
          "time": 108.19666,
          "velocity": 0.8031496062992126
        },
        {
          "duration": 0.8606552500000078,
          "durationTicks": 1050,
          "midi": 72,
          "name": "C5",
          "ticks": 132000,
          "time": 108.19666,
          "velocity": 0.8031496062992126
        },
        {
          "duration": 0.8606552500000078,
          "durationTicks": 1050,
          "midi": 60,
          "name": "C4",
          "ticks": 132000,
          "time": 108.19666,
          "velocity": 0.8031496062992126
        },
        {
          "duration": 0.12295075000000111,
          "durationTicks": 150,
          "midi": 70,
          "name": "A#4",
          "ticks": 133050,
          "time": 109.05731525,
          "velocity": 0.8031496062992126
        },
        {
          "duration": 0.12295075000000111,
          "durationTicks": 150,
          "midi": 75,
          "name": "D#5",
          "ticks": 133050,
          "time": 109.05731525,
          "velocity": 0.8031496062992126
        },
        {
          "duration": 0.12295075000000111,
          "durationTicks": 150,
          "midi": 63,
          "name": "D#4",
          "ticks": 133050,
          "time": 109.05731525,
          "velocity": 0.8031496062992126
        },
        {
          "duration": 1.9516382383333308,
          "durationTicks": 2381,
          "midi": 62,
          "name": "D4",
          "ticks": 134400,
          "time": 110.163872,
          "velocity": 0.7480314960629921
        },
        {
          "duration": 1.9516382383333308,
          "durationTicks": 2381,
          "midi": 74,
          "name": "D5",
          "ticks": 134400,
          "time": 110.163872,
          "velocity": 0.7480314960629921
        },
        {
          "duration": 1.9516382383333308,
          "durationTicks": 2381,
          "midi": 69,
          "name": "A4",
          "ticks": 134400,
          "time": 110.163872,
          "velocity": 0.7480314960629921
        },
        {
          "duration": 1.9516382383333308,
          "durationTicks": 2381,
          "midi": 74,
          "name": "D5",
          "ticks": 136800,
          "time": 112.131084,
          "velocity": 0.7559055118110236
        },
        {
          "duration": 1.9516382383333308,
          "durationTicks": 2381,
          "midi": 62,
          "name": "D4",
          "ticks": 136800,
          "time": 112.131084,
          "velocity": 0.7559055118110236
        },
        {
          "duration": 1.9516382383333308,
          "durationTicks": 2381,
          "midi": 69,
          "name": "A4",
          "ticks": 136800,
          "time": 112.131084,
          "velocity": 0.7559055118110236
        },
        {
          "duration": 1.9516382383333308,
          "durationTicks": 2381,
          "midi": 70,
          "name": "A#4",
          "ticks": 139200,
          "time": 114.098296,
          "velocity": 0.7559055118110236
        },
        {
          "duration": 1.9516382383333308,
          "durationTicks": 2381,
          "midi": 58,
          "name": "A#3",
          "ticks": 139200,
          "time": 114.098296,
          "velocity": 0.7559055118110236
        },
        {
          "duration": 1.9516382383333308,
          "durationTicks": 2381,
          "midi": 65,
          "name": "F4",
          "ticks": 139200,
          "time": 114.098296,
          "velocity": 0.7559055118110236
        },
        {
          "duration": 0.9680322383333362,
          "durationTicks": 1181,
          "midi": 72,
          "name": "C5",
          "ticks": 141600,
          "time": 116.065508,
          "velocity": 0.7637795275590551
        },
        {
          "duration": 0.9680322383333362,
          "durationTicks": 1181,
          "midi": 60,
          "name": "C4",
          "ticks": 141600,
          "time": 116.065508,
          "velocity": 0.7637795275590551
        },
        {
          "duration": 0.9680322383333362,
          "durationTicks": 1181,
          "midi": 67,
          "name": "G4",
          "ticks": 141600,
          "time": 116.065508,
          "velocity": 0.7637795275590551
        },
        {
          "duration": 0.968032238333322,
          "durationTicks": 1181,
          "midi": 73,
          "name": "C#5",
          "ticks": 142800,
          "time": 117.049114,
          "velocity": 0.7637795275590551
        },
        {
          "duration": 0.968032238333322,
          "durationTicks": 1181,
          "midi": 61,
          "name": "C#4",
          "ticks": 142800,
          "time": 117.049114,
          "velocity": 0.7637795275590551
        },
        {
          "duration": 0.968032238333322,
          "durationTicks": 1181,
          "midi": 68,
          "name": "G#4",
          "ticks": 142800,
          "time": 117.049114,
          "velocity": 0.7637795275590551
        },
        {
          "duration": 1.9516382383333308,
          "durationTicks": 2381,
          "midi": 62,
          "name": "D4",
          "ticks": 144000,
          "time": 118.03272,
          "velocity": 0.7480314960629921
        },
        {
          "duration": 1.9516382383333308,
          "durationTicks": 2381,
          "midi": 74,
          "name": "D5",
          "ticks": 144000,
          "time": 118.03272,
          "velocity": 0.7480314960629921
        },
        {
          "duration": 1.9516382383333308,
          "durationTicks": 2381,
          "midi": 69,
          "name": "A4",
          "ticks": 144000,
          "time": 118.03272,
          "velocity": 0.7480314960629921
        },
        {
          "duration": 1.9516382383333308,
          "durationTicks": 2381,
          "midi": 74,
          "name": "D5",
          "ticks": 146400,
          "time": 119.999932,
          "velocity": 0.7559055118110236
        },
        {
          "duration": 1.9516382383333308,
          "durationTicks": 2381,
          "midi": 62,
          "name": "D4",
          "ticks": 146400,
          "time": 119.999932,
          "velocity": 0.7559055118110236
        },
        {
          "duration": 1.9516382383333308,
          "durationTicks": 2381,
          "midi": 69,
          "name": "A4",
          "ticks": 146400,
          "time": 119.999932,
          "velocity": 0.7559055118110236
        },
        {
          "duration": 1.951638238333345,
          "durationTicks": 2381,
          "midi": 70,
          "name": "A#4",
          "ticks": 148800,
          "time": 121.96714399999999,
          "velocity": 0.7559055118110236
        },
        {
          "duration": 1.951638238333345,
          "durationTicks": 2381,
          "midi": 58,
          "name": "A#3",
          "ticks": 148800,
          "time": 121.96714399999999,
          "velocity": 0.7559055118110236
        },
        {
          "duration": 1.951638238333345,
          "durationTicks": 2381,
          "midi": 65,
          "name": "F4",
          "ticks": 148800,
          "time": 121.96714399999999,
          "velocity": 0.7559055118110236
        },
        {
          "duration": 0.9680322383333362,
          "durationTicks": 1181,
          "midi": 72,
          "name": "C5",
          "ticks": 151200,
          "time": 123.934356,
          "velocity": 0.7637795275590551
        },
        {
          "duration": 0.9680322383333362,
          "durationTicks": 1181,
          "midi": 60,
          "name": "C4",
          "ticks": 151200,
          "time": 123.934356,
          "velocity": 0.7637795275590551
        },
        {
          "duration": 0.9680322383333362,
          "durationTicks": 1181,
          "midi": 67,
          "name": "G4",
          "ticks": 151200,
          "time": 123.934356,
          "velocity": 0.7637795275590551
        },
        {
          "duration": 0.968032238333322,
          "durationTicks": 1181,
          "midi": 73,
          "name": "C#5",
          "ticks": 152400,
          "time": 124.917962,
          "velocity": 0.7637795275590551
        },
        {
          "duration": 0.968032238333322,
          "durationTicks": 1181,
          "midi": 61,
          "name": "C#4",
          "ticks": 152400,
          "time": 124.917962,
          "velocity": 0.7637795275590551
        },
        {
          "duration": 0.968032238333322,
          "durationTicks": 1181,
          "midi": 68,
          "name": "G#4",
          "ticks": 152400,
          "time": 124.917962,
          "velocity": 0.7637795275590551
        },
        {
          "duration": 1.9516382383333166,
          "durationTicks": 2381,
          "midi": 62,
          "name": "D4",
          "ticks": 153600,
          "time": 125.901568,
          "velocity": 0.7480314960629921
        },
        {
          "duration": 1.9516382383333166,
          "durationTicks": 2381,
          "midi": 74,
          "name": "D5",
          "ticks": 153600,
          "time": 125.901568,
          "velocity": 0.7480314960629921
        },
        {
          "duration": 1.9516382383333166,
          "durationTicks": 2381,
          "midi": 69,
          "name": "A4",
          "ticks": 153600,
          "time": 125.901568,
          "velocity": 0.7480314960629921
        },
        {
          "duration": 1.9516382383333024,
          "durationTicks": 2381,
          "midi": 74,
          "name": "D5",
          "ticks": 156000,
          "time": 127.86878,
          "velocity": 0.7559055118110236
        },
        {
          "duration": 1.9516382383333024,
          "durationTicks": 2381,
          "midi": 62,
          "name": "D4",
          "ticks": 156000,
          "time": 127.86878,
          "velocity": 0.7559055118110236
        },
        {
          "duration": 1.9516382383333024,
          "durationTicks": 2381,
          "midi": 69,
          "name": "A4",
          "ticks": 156000,
          "time": 127.86878,
          "velocity": 0.7559055118110236
        },
        {
          "duration": 1.9516382383333166,
          "durationTicks": 2381,
          "midi": 70,
          "name": "A#4",
          "ticks": 158400,
          "time": 129.835992,
          "velocity": 0.7559055118110236
        },
        {
          "duration": 1.9516382383333166,
          "durationTicks": 2381,
          "midi": 58,
          "name": "A#3",
          "ticks": 158400,
          "time": 129.835992,
          "velocity": 0.7559055118110236
        },
        {
          "duration": 1.9516382383333166,
          "durationTicks": 2381,
          "midi": 65,
          "name": "F4",
          "ticks": 158400,
          "time": 129.835992,
          "velocity": 0.7559055118110236
        },
        {
          "duration": 0.9680322383333362,
          "durationTicks": 1181,
          "midi": 72,
          "name": "C5",
          "ticks": 160800,
          "time": 131.803204,
          "velocity": 0.7637795275590551
        },
        {
          "duration": 0.9680322383333362,
          "durationTicks": 1181,
          "midi": 60,
          "name": "C4",
          "ticks": 160800,
          "time": 131.803204,
          "velocity": 0.7637795275590551
        },
        {
          "duration": 0.9680322383333362,
          "durationTicks": 1181,
          "midi": 67,
          "name": "G4",
          "ticks": 160800,
          "time": 131.803204,
          "velocity": 0.7637795275590551
        },
        {
          "duration": 0.9680322383333078,
          "durationTicks": 1181,
          "midi": 73,
          "name": "C#5",
          "ticks": 162000,
          "time": 132.78681,
          "velocity": 0.7637795275590551
        },
        {
          "duration": 0.9680322383333078,
          "durationTicks": 1181,
          "midi": 61,
          "name": "C#4",
          "ticks": 162000,
          "time": 132.78681,
          "velocity": 0.7637795275590551
        },
        {
          "duration": 0.9680322383333078,
          "durationTicks": 1181,
          "midi": 68,
          "name": "G#4",
          "ticks": 162000,
          "time": 132.78681,
          "velocity": 0.7637795275590551
        },
        {
          "duration": 1.9516382383333166,
          "durationTicks": 2381,
          "midi": 62,
          "name": "D4",
          "ticks": 163200,
          "time": 133.770416,
          "velocity": 0.7480314960629921
        },
        {
          "duration": 1.9516382383333166,
          "durationTicks": 2381,
          "midi": 74,
          "name": "D5",
          "ticks": 163200,
          "time": 133.770416,
          "velocity": 0.7480314960629921
        },
        {
          "duration": 1.9516382383333166,
          "durationTicks": 2381,
          "midi": 69,
          "name": "A4",
          "ticks": 163200,
          "time": 133.770416,
          "velocity": 0.7480314960629921
        },
        {
          "duration": 1.9516382383333166,
          "durationTicks": 2381,
          "midi": 74,
          "name": "D5",
          "ticks": 165600,
          "time": 135.737628,
          "velocity": 0.7559055118110236
        },
        {
          "duration": 1.9516382383333166,
          "durationTicks": 2381,
          "midi": 62,
          "name": "D4",
          "ticks": 165600,
          "time": 135.737628,
          "velocity": 0.7559055118110236
        },
        {
          "duration": 1.9516382383333166,
          "durationTicks": 2381,
          "midi": 69,
          "name": "A4",
          "ticks": 165600,
          "time": 135.737628,
          "velocity": 0.7559055118110236
        },
        {
          "duration": 1.9516382383333166,
          "durationTicks": 2381,
          "midi": 70,
          "name": "A#4",
          "ticks": 168000,
          "time": 137.70484,
          "velocity": 0.7559055118110236
        },
        {
          "duration": 1.9516382383333166,
          "durationTicks": 2381,
          "midi": 58,
          "name": "A#3",
          "ticks": 168000,
          "time": 137.70484,
          "velocity": 0.7559055118110236
        },
        {
          "duration": 1.9516382383333166,
          "durationTicks": 2381,
          "midi": 65,
          "name": "F4",
          "ticks": 168000,
          "time": 137.70484,
          "velocity": 0.7559055118110236
        },
        {
          "duration": 0.9680322383333078,
          "durationTicks": 1181,
          "midi": 72,
          "name": "C5",
          "ticks": 170400,
          "time": 139.672052,
          "velocity": 0.7637795275590551
        },
        {
          "duration": 0.9680322383333078,
          "durationTicks": 1181,
          "midi": 60,
          "name": "C4",
          "ticks": 170400,
          "time": 139.672052,
          "velocity": 0.7637795275590551
        },
        {
          "duration": 0.9680322383333078,
          "durationTicks": 1181,
          "midi": 67,
          "name": "G4",
          "ticks": 170400,
          "time": 139.672052,
          "velocity": 0.7637795275590551
        },
        {
          "duration": 0.9680322383333362,
          "durationTicks": 1181,
          "midi": 73,
          "name": "C#5",
          "ticks": 171600,
          "time": 140.655658,
          "velocity": 0.7637795275590551
        },
        {
          "duration": 0.9680322383333362,
          "durationTicks": 1181,
          "midi": 61,
          "name": "C#4",
          "ticks": 171600,
          "time": 140.655658,
          "velocity": 0.7637795275590551
        },
        {
          "duration": 0.9680322383333362,
          "durationTicks": 1181,
          "midi": 68,
          "name": "G#4",
          "ticks": 171600,
          "time": 140.655658,
          "velocity": 0.7637795275590551
        }
      ]
    },
    {
      "channel": 0,
      "controlChanges": {},
      "pitchBends": [
        {
          "ticks": 38400,
          "time": 31.475392,
          "value": 0
        }
      ],
      "instrument": {
        "family": "piano",
        "number": 0,
        "name": "acoustic grand piano"
      },
      "name": "",
      "notes": []
    },
    {
      "channel": 12,
      "controlChanges": {
        "6": [
          {
            "number": 6,
            "ticks": 38400,
            "time": 31.475392,
            "value": 0.09448818897637795
          },
          {
            "number": 6,
            "ticks": 38400,
            "time": 31.475392,
            "value": 0.09448818897637795
          },
          {
            "number": 6,
            "ticks": 184800,
            "time": 151.475324,
            "value": 0.09448818897637795
          },
          {
            "number": 6,
            "ticks": 184800,
            "time": 151.475324,
            "value": 0.09448818897637795
          },
          {
            "number": 6,
            "ticks": 184800,
            "time": 151.475324,
            "value": 0.09448818897637795
          },
          {
            "number": 6,
            "ticks": 184800,
            "time": 151.475324,
            "value": 0.09448818897637795
          }
        ],
        "7": [
          {
            "number": 7,
            "ticks": 38400,
            "time": 31.475392,
            "value": 1
          },
          {
            "number": 7,
            "ticks": 38400,
            "time": 31.475392,
            "value": 1
          },
          {
            "number": 7,
            "ticks": 38400,
            "time": 31.475392,
            "value": 1
          },
          {
            "number": 7,
            "ticks": 38400,
            "time": 31.475392,
            "value": 1
          },
          {
            "number": 7,
            "ticks": 184800,
            "time": 151.475324,
            "value": 1
          },
          {
            "number": 7,
            "ticks": 184800,
            "time": 151.475324,
            "value": 1
          },
          {
            "number": 7,
            "ticks": 184800,
            "time": 151.475324,
            "value": 1
          },
          {
            "number": 7,
            "ticks": 184800,
            "time": 151.475324,
            "value": 1
          }
        ],
        "10": [
          {
            "number": 10,
            "ticks": 38400,
            "time": 31.475392,
            "value": 0.5039370078740157
          },
          {
            "number": 10,
            "ticks": 38400,
            "time": 31.475392,
            "value": 0.5039370078740157
          },
          {
            "number": 10,
            "ticks": 38400,
            "time": 31.475392,
            "value": 0.5039370078740157
          },
          {
            "number": 10,
            "ticks": 38400,
            "time": 31.475392,
            "value": 0.5039370078740157
          },
          {
            "number": 10,
            "ticks": 184800,
            "time": 151.475324,
            "value": 0.5039370078740157
          },
          {
            "number": 10,
            "ticks": 184800,
            "time": 151.475324,
            "value": 0.5039370078740157
          },
          {
            "number": 10,
            "ticks": 184800,
            "time": 151.475324,
            "value": 0.5039370078740157
          },
          {
            "number": 10,
            "ticks": 184800,
            "time": 151.475324,
            "value": 0.5039370078740157
          }
        ],
        "100": [
          {
            "number": 100,
            "ticks": 38400,
            "time": 31.475392,
            "value": 0
          },
          {
            "number": 100,
            "ticks": 38400,
            "time": 31.475392,
            "value": 0
          },
          {
            "number": 100,
            "ticks": 184800,
            "time": 151.475324,
            "value": 0
          },
          {
            "number": 100,
            "ticks": 184800,
            "time": 151.475324,
            "value": 0
          },
          {
            "number": 100,
            "ticks": 184800,
            "time": 151.475324,
            "value": 0
          },
          {
            "number": 100,
            "ticks": 184800,
            "time": 151.475324,
            "value": 0
          }
        ],
        "101": [
          {
            "number": 101,
            "ticks": 38400,
            "time": 31.475392,
            "value": 0
          },
          {
            "number": 101,
            "ticks": 38400,
            "time": 31.475392,
            "value": 0
          },
          {
            "number": 101,
            "ticks": 184800,
            "time": 151.475324,
            "value": 0
          },
          {
            "number": 101,
            "ticks": 184800,
            "time": 151.475324,
            "value": 0
          },
          {
            "number": 101,
            "ticks": 184800,
            "time": 151.475324,
            "value": 0
          },
          {
            "number": 101,
            "ticks": 184800,
            "time": 151.475324,
            "value": 0
          }
        ]
      },
      "pitchBends": [
        {
          "ticks": 38400,
          "time": 31.475392,
          "value": 0
        },
        {
          "ticks": 38400,
          "time": 31.475392,
          "value": 0
        },
        {
          "ticks": 38400,
          "time": 31.475392,
          "value": 0
        },
        {
          "ticks": 38400,
          "time": 31.475392,
          "value": 0
        },
        {
          "ticks": 38400,
          "time": 31.475392,
          "value": 0
        },
        {
          "ticks": 184800,
          "time": 151.475324,
          "value": 0
        },
        {
          "ticks": 184800,
          "time": 151.475324,
          "value": 0
        },
        {
          "ticks": 184800,
          "time": 151.475324,
          "value": 0
        },
        {
          "ticks": 184800,
          "time": 151.475324,
          "value": 0
        }
      ],
      "instrument": {
        "family": "strings",
        "number": 40,
        "name": "violin"
      },
      "name": "",
      "notes": [
        {
          "duration": 0.9680322383333362,
          "durationTicks": 1181,
          "midi": 60,
          "name": "C4",
          "ticks": 96000,
          "time": 78.68848,
          "velocity": 0.7795275590551181
        },
        {
          "duration": 0.9680322383333362,
          "durationTicks": 1181,
          "midi": 60,
          "name": "C4",
          "ticks": 96000,
          "time": 78.68848,
          "velocity": 0.7795275590551181
        },
        {
          "duration": 0.35327848833334485,
          "durationTicks": 431,
          "midi": 60,
          "name": "C4",
          "ticks": 97200,
          "time": 79.672086,
          "velocity": 0.7795275590551181
        },
        {
          "duration": 0.35327848833334485,
          "durationTicks": 431,
          "midi": 60,
          "name": "C4",
          "ticks": 97200,
          "time": 79.672086,
          "velocity": 0.7795275590551181
        },
        {
          "duration": 0.10737698833332843,
          "durationTicks": 131,
          "midi": 60,
          "name": "C4",
          "ticks": 97650,
          "time": 80.04093825,
          "velocity": 0.7795275590551181
        },
        {
          "duration": 0.10737698833332843,
          "durationTicks": 131,
          "midi": 60,
          "name": "C4",
          "ticks": 97650,
          "time": 80.04093825,
          "velocity": 0.7795275590551181
        },
        {
          "duration": 0.47622923833333175,
          "durationTicks": 581,
          "midi": 62,
          "name": "D4",
          "ticks": 97800,
          "time": 80.163889,
          "velocity": 0.7795275590551181
        },
        {
          "duration": 0.47622923833333175,
          "durationTicks": 581,
          "midi": 62,
          "name": "D4",
          "ticks": 97800,
          "time": 80.163889,
          "velocity": 0.7795275590551181
        },
        {
          "duration": 1.4598352383333264,
          "durationTicks": 1781,
          "midi": 63,
          "name": "D#4",
          "ticks": 98400,
          "time": 80.655692,
          "velocity": 0.7795275590551181
        },
        {
          "duration": 1.4598352383333264,
          "durationTicks": 1781,
          "midi": 63,
          "name": "D#4",
          "ticks": 98400,
          "time": 80.655692,
          "velocity": 0.7795275590551181
        },
        {
          "duration": 0.47622923833333175,
          "durationTicks": 581,
          "midi": 68,
          "name": "G#4",
          "ticks": 100200,
          "time": 82.131101,
          "velocity": 0.7795275590551181
        },
        {
          "duration": 0.47622923833333175,
          "durationTicks": 581,
          "midi": 68,
          "name": "G#4",
          "ticks": 100200,
          "time": 82.131101,
          "velocity": 0.7795275590551181
        },
        {
          "duration": 0.47622923833333175,
          "durationTicks": 581,
          "midi": 67,
          "name": "G4",
          "ticks": 100800,
          "time": 82.622904,
          "velocity": 0.7795275590551181
        },
        {
          "duration": 0.47622923833333175,
          "durationTicks": 581,
          "midi": 67,
          "name": "G4",
          "ticks": 100800,
          "time": 82.622904,
          "velocity": 0.7795275590551181
        },
        {
          "duration": 0.47622923833333175,
          "durationTicks": 581,
          "midi": 63,
          "name": "D#4",
          "ticks": 101400,
          "time": 83.114707,
          "velocity": 0.7795275590551181
        },
        {
          "duration": 0.47622923833333175,
          "durationTicks": 581,
          "midi": 63,
          "name": "D#4",
          "ticks": 101400,
          "time": 83.114707,
          "velocity": 0.7795275590551181
        },
        {
          "duration": 0.47622923833333175,
          "durationTicks": 581,
          "midi": 65,
          "name": "F4",
          "ticks": 102000,
          "time": 83.60651,
          "velocity": 0.7795275590551181
        },
        {
          "duration": 0.47622923833333175,
          "durationTicks": 581,
          "midi": 65,
          "name": "F4",
          "ticks": 102000,
          "time": 83.60651,
          "velocity": 0.7795275590551181
        },
        {
          "duration": 0.47622923833333175,
          "durationTicks": 581,
          "midi": 62,
          "name": "D4",
          "ticks": 102600,
          "time": 84.098313,
          "velocity": 0.7795275590551181
        },
        {
          "duration": 0.47622923833333175,
          "durationTicks": 581,
          "midi": 62,
          "name": "D4",
          "ticks": 102600,
          "time": 84.098313,
          "velocity": 0.7795275590551181
        },
        {
          "duration": 0.9680322383333362,
          "durationTicks": 1181,
          "midi": 63,
          "name": "D#4",
          "ticks": 103200,
          "time": 84.590116,
          "velocity": 0.7795275590551181
        },
        {
          "duration": 0.9680322383333362,
          "durationTicks": 1181,
          "midi": 63,
          "name": "D#4",
          "ticks": 103200,
          "time": 84.590116,
          "velocity": 0.7795275590551181
        },
        {
          "duration": 0.968032238333322,
          "durationTicks": 1181,
          "midi": 62,
          "name": "D4",
          "ticks": 104400,
          "time": 85.573722,
          "velocity": 0.7795275590551181
        },
        {
          "duration": 0.968032238333322,
          "durationTicks": 1181,
          "midi": 62,
          "name": "D4",
          "ticks": 104400,
          "time": 85.573722,
          "velocity": 0.7795275590551181
        },
        {
          "duration": 0.9680322383333362,
          "durationTicks": 1181,
          "midi": 60,
          "name": "C4",
          "ticks": 105600,
          "time": 86.557328,
          "velocity": 0.7795275590551181
        },
        {
          "duration": 0.9680322383333362,
          "durationTicks": 1181,
          "midi": 60,
          "name": "C4",
          "ticks": 105600,
          "time": 86.557328,
          "velocity": 0.7795275590551181
        },
        {
          "duration": 0.35327848833334485,
          "durationTicks": 431,
          "midi": 60,
          "name": "C4",
          "ticks": 106800,
          "time": 87.540934,
          "velocity": 0.7795275590551181
        },
        {
          "duration": 0.35327848833334485,
          "durationTicks": 431,
          "midi": 60,
          "name": "C4",
          "ticks": 106800,
          "time": 87.540934,
          "velocity": 0.7795275590551181
        },
        {
          "duration": 0.10737698833332843,
          "durationTicks": 131,
          "midi": 60,
          "name": "C4",
          "ticks": 107250,
          "time": 87.90978625,
          "velocity": 0.7795275590551181
        },
        {
          "duration": 0.10737698833332843,
          "durationTicks": 131,
          "midi": 60,
          "name": "C4",
          "ticks": 107250,
          "time": 87.90978625,
          "velocity": 0.7795275590551181
        },
        {
          "duration": 0.47622923833333175,
          "durationTicks": 581,
          "midi": 62,
          "name": "D4",
          "ticks": 107400,
          "time": 88.032737,
          "velocity": 0.7795275590551181
        },
        {
          "duration": 0.47622923833333175,
          "durationTicks": 581,
          "midi": 62,
          "name": "D4",
          "ticks": 107400,
          "time": 88.032737,
          "velocity": 0.7795275590551181
        },
        {
          "duration": 1.4598352383333264,
          "durationTicks": 1781,
          "midi": 63,
          "name": "D#4",
          "ticks": 108000,
          "time": 88.52454,
          "velocity": 0.7795275590551181
        },
        {
          "duration": 1.4598352383333264,
          "durationTicks": 1781,
          "midi": 63,
          "name": "D#4",
          "ticks": 108000,
          "time": 88.52454,
          "velocity": 0.7795275590551181
        },
        {
          "duration": 0.47622923833333175,
          "durationTicks": 581,
          "midi": 68,
          "name": "G#4",
          "ticks": 109800,
          "time": 89.999949,
          "velocity": 0.7795275590551181
        },
        {
          "duration": 0.47622923833333175,
          "durationTicks": 581,
          "midi": 68,
          "name": "G#4",
          "ticks": 109800,
          "time": 89.999949,
          "velocity": 0.7795275590551181
        },
        {
          "duration": 0.47622923833334596,
          "durationTicks": 581,
          "midi": 71,
          "name": "B4",
          "ticks": 110400,
          "time": 90.49175199999999,
          "velocity": 0.7795275590551181
        },
        {
          "duration": 0.47622923833334596,
          "durationTicks": 581,
          "midi": 71,
          "name": "B4",
          "ticks": 110400,
          "time": 90.49175199999999,
          "velocity": 0.7795275590551181
        },
        {
          "duration": 0.47622923833333175,
          "durationTicks": 581,
          "midi": 67,
          "name": "G4",
          "ticks": 111000,
          "time": 90.983555,
          "velocity": 0.7795275590551181
        },
        {
          "duration": 0.47622923833333175,
          "durationTicks": 581,
          "midi": 67,
          "name": "G4",
          "ticks": 111000,
          "time": 90.983555,
          "velocity": 0.7795275590551181
        },
        {
          "duration": 0.47622923833333175,
          "durationTicks": 581,
          "midi": 71,
          "name": "B4",
          "ticks": 111600,
          "time": 91.475358,
          "velocity": 0.7795275590551181
        },
        {
          "duration": 0.47622923833333175,
          "durationTicks": 581,
          "midi": 71,
          "name": "B4",
          "ticks": 111600,
          "time": 91.475358,
          "velocity": 0.7795275590551181
        },
        {
          "duration": 0.47622923833333175,
          "durationTicks": 581,
          "midi": 72,
          "name": "C5",
          "ticks": 112200,
          "time": 91.967161,
          "velocity": 0.7795275590551181
        },
        {
          "duration": 0.47622923833333175,
          "durationTicks": 581,
          "midi": 72,
          "name": "C5",
          "ticks": 112200,
          "time": 91.967161,
          "velocity": 0.7795275590551181
        },
        {
          "duration": 0.9680322383333362,
          "durationTicks": 1181,
          "midi": 72,
          "name": "C5",
          "ticks": 112800,
          "time": 92.458964,
          "velocity": 0.7795275590551181
        },
        {
          "duration": 0.9680322383333362,
          "durationTicks": 1181,
          "midi": 72,
          "name": "C5",
          "ticks": 112800,
          "time": 92.458964,
          "velocity": 0.7795275590551181
        },
        {
          "duration": 0.968032238333322,
          "durationTicks": 1181,
          "midi": 75,
          "name": "D#5",
          "ticks": 114000,
          "time": 93.44257,
          "velocity": 0.7874015748031497
        },
        {
          "duration": 0.968032238333322,
          "durationTicks": 1181,
          "midi": 75,
          "name": "D#5",
          "ticks": 114000,
          "time": 93.44257,
          "velocity": 0.7874015748031497
        },
        {
          "duration": 0.9680322383333362,
          "durationTicks": 1181,
          "midi": 72,
          "name": "C5",
          "ticks": 115200,
          "time": 94.426176,
          "velocity": 0.7874015748031497
        },
        {
          "duration": 0.9680322383333362,
          "durationTicks": 1181,
          "midi": 60,
          "name": "C4",
          "ticks": 115200,
          "time": 94.426176,
          "velocity": 0.7874015748031497
        },
        {
          "duration": 0.9680322383333362,
          "durationTicks": 1181,
          "midi": 60,
          "name": "C4",
          "ticks": 115200,
          "time": 94.426176,
          "velocity": 0.7874015748031497
        },
        {
          "duration": 0.35327848833334485,
          "durationTicks": 431,
          "midi": 74,
          "name": "D5",
          "ticks": 116400,
          "time": 95.40978199999999,
          "velocity": 0.7874015748031497
        },
        {
          "duration": 0.35327848833334485,
          "durationTicks": 431,
          "midi": 60,
          "name": "C4",
          "ticks": 116400,
          "time": 95.40978199999999,
          "velocity": 0.7874015748031497
        },
        {
          "duration": 0.35327848833334485,
          "durationTicks": 431,
          "midi": 60,
          "name": "C4",
          "ticks": 116400,
          "time": 95.40978199999999,
          "velocity": 0.7874015748031497
        },
        {
          "duration": 0.10737698833332843,
          "durationTicks": 131,
          "midi": 74,
          "name": "D5",
          "ticks": 116850,
          "time": 95.77863425,
          "velocity": 0.7874015748031497
        },
        {
          "duration": 0.10737698833332843,
          "durationTicks": 131,
          "midi": 60,
          "name": "C4",
          "ticks": 116850,
          "time": 95.77863425,
          "velocity": 0.7874015748031497
        },
        {
          "duration": 0.10737698833332843,
          "durationTicks": 131,
          "midi": 60,
          "name": "C4",
          "ticks": 116850,
          "time": 95.77863425,
          "velocity": 0.7874015748031497
        },
        {
          "duration": 0.47622923833333175,
          "durationTicks": 581,
          "midi": 77,
          "name": "F5",
          "ticks": 117000,
          "time": 95.901585,
          "velocity": 0.7874015748031497
        },
        {
          "duration": 0.47622923833333175,
          "durationTicks": 581,
          "midi": 62,
          "name": "D4",
          "ticks": 117000,
          "time": 95.901585,
          "velocity": 0.7874015748031497
        },
        {
          "duration": 0.47622923833333175,
          "durationTicks": 581,
          "midi": 62,
          "name": "D4",
          "ticks": 117000,
          "time": 95.901585,
          "velocity": 0.7874015748031497
        },
        {
          "duration": 1.4598352383333264,
          "durationTicks": 1781,
          "midi": 79,
          "name": "G5",
          "ticks": 117600,
          "time": 96.393388,
          "velocity": 0.7874015748031497
        },
        {
          "duration": 1.4598352383333264,
          "durationTicks": 1781,
          "midi": 63,
          "name": "D#4",
          "ticks": 117600,
          "time": 96.393388,
          "velocity": 0.7874015748031497
        },
        {
          "duration": 1.4598352383333264,
          "durationTicks": 1781,
          "midi": 63,
          "name": "D#4",
          "ticks": 117600,
          "time": 96.393388,
          "velocity": 0.7874015748031497
        },
        {
          "duration": 0.47622923833333175,
          "durationTicks": 581,
          "midi": 77,
          "name": "F5",
          "ticks": 119400,
          "time": 97.868797,
          "velocity": 0.7874015748031497
        },
        {
          "duration": 0.47622923833333175,
          "durationTicks": 581,
          "midi": 68,
          "name": "G#4",
          "ticks": 119400,
          "time": 97.868797,
          "velocity": 0.7874015748031497
        },
        {
          "duration": 0.47622923833333175,
          "durationTicks": 581,
          "midi": 68,
          "name": "G#4",
          "ticks": 119400,
          "time": 97.868797,
          "velocity": 0.7874015748031497
        },
        {
          "duration": 0.47622923833333175,
          "durationTicks": 581,
          "midi": 74,
          "name": "D5",
          "ticks": 120000,
          "time": 98.3606,
          "velocity": 0.7874015748031497
        },
        {
          "duration": 0.47622923833333175,
          "durationTicks": 581,
          "midi": 67,
          "name": "G4",
          "ticks": 120000,
          "time": 98.3606,
          "velocity": 0.7874015748031497
        },
        {
          "duration": 0.47622923833333175,
          "durationTicks": 581,
          "midi": 67,
          "name": "G4",
          "ticks": 120000,
          "time": 98.3606,
          "velocity": 0.7874015748031497
        },
        {
          "duration": 0.47622923833333175,
          "durationTicks": 581,
          "midi": 72,
          "name": "C5",
          "ticks": 120600,
          "time": 98.852403,
          "velocity": 0.7874015748031497
        },
        {
          "duration": 0.47622923833333175,
          "durationTicks": 581,
          "midi": 63,
          "name": "D#4",
          "ticks": 120600,
          "time": 98.852403,
          "velocity": 0.7874015748031497
        },
        {
          "duration": 0.47622923833333175,
          "durationTicks": 581,
          "midi": 63,
          "name": "D#4",
          "ticks": 120600,
          "time": 98.852403,
          "velocity": 0.7874015748031497
        },
        {
          "duration": 0.47622923833333175,
          "durationTicks": 581,
          "midi": 75,
          "name": "D#5",
          "ticks": 121200,
          "time": 99.344206,
          "velocity": 0.7874015748031497
        },
        {
          "duration": 0.47622923833333175,
          "durationTicks": 581,
          "midi": 65,
          "name": "F4",
          "ticks": 121200,
          "time": 99.344206,
          "velocity": 0.7874015748031497
        },
        {
          "duration": 0.47622923833333175,
          "durationTicks": 581,
          "midi": 65,
          "name": "F4",
          "ticks": 121200,
          "time": 99.344206,
          "velocity": 0.7874015748031497
        },
        {
          "duration": 0.47622923833333175,
          "durationTicks": 581,
          "midi": 75,
          "name": "D#5",
          "ticks": 121800,
          "time": 99.836009,
          "velocity": 0.7874015748031497
        },
        {
          "duration": 0.47622923833333175,
          "durationTicks": 581,
          "midi": 65,
          "name": "F4",
          "ticks": 121800,
          "time": 99.836009,
          "velocity": 0.7874015748031497
        },
        {
          "duration": 0.47622923833333175,
          "durationTicks": 581,
          "midi": 65,
          "name": "F4",
          "ticks": 121800,
          "time": 99.836009,
          "velocity": 0.7874015748031497
        },
        {
          "duration": 1.9516382383333308,
          "durationTicks": 2381,
          "midi": 63,
          "name": "D#4",
          "ticks": 122400,
          "time": 100.327812,
          "velocity": 0.7874015748031497
        },
        {
          "duration": 1.9516382383333308,
          "durationTicks": 2381,
          "midi": 63,
          "name": "D#4",
          "ticks": 122400,
          "time": 100.327812,
          "velocity": 0.7874015748031497
        },
        {
          "duration": 1.9516382383333308,
          "durationTicks": 2381,
          "midi": 72,
          "name": "C5",
          "ticks": 122400,
          "time": 100.327812,
          "velocity": 0.7874015748031497
        },
        {
          "duration": 0.9680322383333362,
          "durationTicks": 1181,
          "midi": 75,
          "name": "D#5",
          "ticks": 124800,
          "time": 102.295024,
          "velocity": 0.7874015748031497
        },
        {
          "duration": 0.9680322383333362,
          "durationTicks": 1181,
          "midi": 60,
          "name": "C4",
          "ticks": 124800,
          "time": 102.295024,
          "velocity": 0.7874015748031497
        },
        {
          "duration": 0.9680322383333362,
          "durationTicks": 1181,
          "midi": 60,
          "name": "C4",
          "ticks": 124800,
          "time": 102.295024,
          "velocity": 0.7874015748031497
        },
        {
          "duration": 0.35327848833334485,
          "durationTicks": 431,
          "midi": 75,
          "name": "D#5",
          "ticks": 126000,
          "time": 103.27862999999999,
          "velocity": 0.7874015748031497
        },
        {
          "duration": 0.35327848833334485,
          "durationTicks": 431,
          "midi": 60,
          "name": "C4",
          "ticks": 126000,
          "time": 103.27862999999999,
          "velocity": 0.7874015748031497
        },
        {
          "duration": 0.35327848833334485,
          "durationTicks": 431,
          "midi": 60,
          "name": "C4",
          "ticks": 126000,
          "time": 103.27862999999999,
          "velocity": 0.7874015748031497
        },
        {
          "duration": 0.10737698833332843,
          "durationTicks": 131,
          "midi": 75,
          "name": "D#5",
          "ticks": 126450,
          "time": 103.64748225,
          "velocity": 0.7874015748031497
        },
        {
          "duration": 0.10737698833332843,
          "durationTicks": 131,
          "midi": 60,
          "name": "C4",
          "ticks": 126450,
          "time": 103.64748225,
          "velocity": 0.7874015748031497
        },
        {
          "duration": 0.10737698833332843,
          "durationTicks": 131,
          "midi": 60,
          "name": "C4",
          "ticks": 126450,
          "time": 103.64748225,
          "velocity": 0.7874015748031497
        },
        {
          "duration": 0.47622923833333175,
          "durationTicks": 581,
          "midi": 77,
          "name": "F5",
          "ticks": 126600,
          "time": 103.770433,
          "velocity": 0.7874015748031497
        },
        {
          "duration": 0.47622923833333175,
          "durationTicks": 581,
          "midi": 62,
          "name": "D4",
          "ticks": 126600,
          "time": 103.770433,
          "velocity": 0.7874015748031497
        },
        {
          "duration": 0.47622923833333175,
          "durationTicks": 581,
          "midi": 62,
          "name": "D4",
          "ticks": 126600,
          "time": 103.770433,
          "velocity": 0.7874015748031497
        },
        {
          "duration": 1.4598352383333264,
          "durationTicks": 1781,
          "midi": 70,
          "name": "A#4",
          "ticks": 127200,
          "time": 104.262236,
          "velocity": 0.7874015748031497
        },
        {
          "duration": 1.4598352383333264,
          "durationTicks": 1781,
          "midi": 63,
          "name": "D#4",
          "ticks": 127200,
          "time": 104.262236,
          "velocity": 0.7874015748031497
        },
        {
          "duration": 1.4598352383333264,
          "durationTicks": 1781,
          "midi": 63,
          "name": "D#4",
          "ticks": 127200,
          "time": 104.262236,
          "velocity": 0.7874015748031497
        },
        {
          "duration": 0.47622923833333175,
          "durationTicks": 581,
          "midi": 68,
          "name": "G#4",
          "ticks": 129000,
          "time": 105.737645,
          "velocity": 0.7874015748031497
        },
        {
          "duration": 0.47622923833333175,
          "durationTicks": 581,
          "midi": 68,
          "name": "G#4",
          "ticks": 129000,
          "time": 105.737645,
          "velocity": 0.7874015748031497
        },
        {
          "duration": 0.47622923833334596,
          "durationTicks": 581,
          "midi": 63,
          "name": "D#4",
          "ticks": 129600,
          "time": 106.22944799999999,
          "velocity": 0.7874015748031497
        },
        {
          "duration": 0.47622923833334596,
          "durationTicks": 581,
          "midi": 71,
          "name": "B4",
          "ticks": 129600,
          "time": 106.22944799999999,
          "velocity": 0.7874015748031497
        },
        {
          "duration": 0.47622923833334596,
          "durationTicks": 581,
          "midi": 71,
          "name": "B4",
          "ticks": 129600,
          "time": 106.22944799999999,
          "velocity": 0.7874015748031497
        },
        {
          "duration": 0.47622923833333175,
          "durationTicks": 581,
          "midi": 62,
          "name": "D4",
          "ticks": 130200,
          "time": 106.721251,
          "velocity": 0.7874015748031497
        },
        {
          "duration": 0.47622923833333175,
          "durationTicks": 581,
          "midi": 67,
          "name": "G4",
          "ticks": 130200,
          "time": 106.721251,
          "velocity": 0.7874015748031497
        },
        {
          "duration": 0.47622923833333175,
          "durationTicks": 581,
          "midi": 67,
          "name": "G4",
          "ticks": 130200,
          "time": 106.721251,
          "velocity": 0.7874015748031497
        },
        {
          "duration": 0.47622923833333175,
          "durationTicks": 581,
          "midi": 63,
          "name": "D#4",
          "ticks": 130800,
          "time": 107.213054,
          "velocity": 0.7874015748031497
        },
        {
          "duration": 0.47622923833333175,
          "durationTicks": 581,
          "midi": 71,
          "name": "B4",
          "ticks": 130800,
          "time": 107.213054,
          "velocity": 0.7874015748031497
        },
        {
          "duration": 0.47622923833333175,
          "durationTicks": 581,
          "midi": 71,
          "name": "B4",
          "ticks": 130800,
          "time": 107.213054,
          "velocity": 0.7874015748031497
        },
        {
          "duration": 0.47622923833333175,
          "durationTicks": 581,
          "midi": 67,
          "name": "G4",
          "ticks": 131400,
          "time": 107.704857,
          "velocity": 0.7874015748031497
        },
        {
          "duration": 0.47622923833333175,
          "durationTicks": 581,
          "midi": 72,
          "name": "C5",
          "ticks": 131400,
          "time": 107.704857,
          "velocity": 0.7874015748031497
        },
        {
          "duration": 0.47622923833333175,
          "durationTicks": 581,
          "midi": 72,
          "name": "C5",
          "ticks": 131400,
          "time": 107.704857,
          "velocity": 0.7874015748031497
        },
        {
          "duration": 0.9680322383333362,
          "durationTicks": 1181,
          "midi": 63,
          "name": "D#4",
          "ticks": 132000,
          "time": 108.19666,
          "velocity": 0.7874015748031497
        },
        {
          "duration": 0.9680322383333362,
          "durationTicks": 1181,
          "midi": 72,
          "name": "C5",
          "ticks": 132000,
          "time": 108.19666,
          "velocity": 0.7874015748031497
        },
        {
          "duration": 0.9680322383333362,
          "durationTicks": 1181,
          "midi": 72,
          "name": "C5",
          "ticks": 132000,
          "time": 108.19666,
          "velocity": 0.7874015748031497
        }
      ]
    },
    {
      "channel": 0,
      "controlChanges": {},
      "pitchBends": [
        {
          "ticks": 38400,
          "time": 31.475392,
          "value": 0
        }
      ],
      "instrument": {
        "family": "piano",
        "number": 0,
        "name": "acoustic grand piano"
      },
      "name": "",
      "notes": []
    },
    {
      "channel": 11,
      "controlChanges": {
        "6": [
          {
            "number": 6,
            "ticks": 38400,
            "time": 31.475392,
            "value": 0.09448818897637795
          },
          {
            "number": 6,
            "ticks": 184800,
            "time": 151.475324,
            "value": 0.09448818897637795
          },
          {
            "number": 6,
            "ticks": 184800,
            "time": 151.475324,
            "value": 0.09448818897637795
          }
        ],
        "7": [
          {
            "number": 7,
            "ticks": 38400,
            "time": 31.475392,
            "value": 0.7874015748031497
          },
          {
            "number": 7,
            "ticks": 38400,
            "time": 31.475392,
            "value": 0.7874015748031497
          },
          {
            "number": 7,
            "ticks": 184800,
            "time": 151.475324,
            "value": 0.7874015748031497
          },
          {
            "number": 7,
            "ticks": 184800,
            "time": 151.475324,
            "value": 0.7874015748031497
          }
        ],
        "10": [
          {
            "number": 10,
            "ticks": 38400,
            "time": 31.475392,
            "value": 0.5039370078740157
          },
          {
            "number": 10,
            "ticks": 38400,
            "time": 31.475392,
            "value": 0.5039370078740157
          },
          {
            "number": 10,
            "ticks": 184800,
            "time": 151.475324,
            "value": 0.5039370078740157
          },
          {
            "number": 10,
            "ticks": 184800,
            "time": 151.475324,
            "value": 0.5039370078740157
          }
        ],
        "100": [
          {
            "number": 100,
            "ticks": 38400,
            "time": 31.475392,
            "value": 0
          },
          {
            "number": 100,
            "ticks": 184800,
            "time": 151.475324,
            "value": 0
          },
          {
            "number": 100,
            "ticks": 184800,
            "time": 151.475324,
            "value": 0
          }
        ],
        "101": [
          {
            "number": 101,
            "ticks": 38400,
            "time": 31.475392,
            "value": 0
          },
          {
            "number": 101,
            "ticks": 184800,
            "time": 151.475324,
            "value": 0
          },
          {
            "number": 101,
            "ticks": 184800,
            "time": 151.475324,
            "value": 0
          }
        ]
      },
      "pitchBends": [
        {
          "ticks": 38400,
          "time": 31.475392,
          "value": 0
        },
        {
          "ticks": 38400,
          "time": 31.475392,
          "value": 0
        },
        {
          "ticks": 184800,
          "time": 151.475324,
          "value": 0
        },
        {
          "ticks": 184800,
          "time": 151.475324,
          "value": 0
        }
      ],
      "instrument": {
        "family": "reed",
        "number": 66,
        "name": "tenor sax"
      },
      "name": "",
      "notes": [
        {
          "duration": 0.9680322383333362,
          "durationTicks": 1181,
          "midi": 48,
          "name": "C3",
          "ticks": 96000,
          "time": 78.68848,
          "velocity": 1
        },
        {
          "duration": 0.9680322383333362,
          "durationTicks": 1181,
          "midi": 48,
          "name": "C3",
          "ticks": 96000,
          "time": 78.68848,
          "velocity": 1
        },
        {
          "duration": 0.35327848833334485,
          "durationTicks": 431,
          "midi": 48,
          "name": "C3",
          "ticks": 97200,
          "time": 79.672086,
          "velocity": 1
        },
        {
          "duration": 0.35327848833334485,
          "durationTicks": 431,
          "midi": 48,
          "name": "C3",
          "ticks": 97200,
          "time": 79.672086,
          "velocity": 1
        },
        {
          "duration": 0.10737698833332843,
          "durationTicks": 131,
          "midi": 48,
          "name": "C3",
          "ticks": 97650,
          "time": 80.04093825,
          "velocity": 1
        },
        {
          "duration": 0.10737698833332843,
          "durationTicks": 131,
          "midi": 48,
          "name": "C3",
          "ticks": 97650,
          "time": 80.04093825,
          "velocity": 1
        },
        {
          "duration": 0.47622923833333175,
          "durationTicks": 581,
          "midi": 50,
          "name": "D3",
          "ticks": 97800,
          "time": 80.163889,
          "velocity": 1
        },
        {
          "duration": 0.47622923833333175,
          "durationTicks": 581,
          "midi": 50,
          "name": "D3",
          "ticks": 97800,
          "time": 80.163889,
          "velocity": 1
        },
        {
          "duration": 1.4598352383333264,
          "durationTicks": 1781,
          "midi": 51,
          "name": "D#3",
          "ticks": 98400,
          "time": 80.655692,
          "velocity": 1
        },
        {
          "duration": 1.4598352383333264,
          "durationTicks": 1781,
          "midi": 51,
          "name": "D#3",
          "ticks": 98400,
          "time": 80.655692,
          "velocity": 1
        },
        {
          "duration": 0.47622923833333175,
          "durationTicks": 581,
          "midi": 56,
          "name": "G#3",
          "ticks": 100200,
          "time": 82.131101,
          "velocity": 1
        },
        {
          "duration": 0.47622923833333175,
          "durationTicks": 581,
          "midi": 56,
          "name": "G#3",
          "ticks": 100200,
          "time": 82.131101,
          "velocity": 1
        },
        {
          "duration": 0.47622923833333175,
          "durationTicks": 581,
          "midi": 55,
          "name": "G3",
          "ticks": 100800,
          "time": 82.622904,
          "velocity": 1
        },
        {
          "duration": 0.47622923833333175,
          "durationTicks": 581,
          "midi": 55,
          "name": "G3",
          "ticks": 100800,
          "time": 82.622904,
          "velocity": 1
        },
        {
          "duration": 0.47622923833333175,
          "durationTicks": 581,
          "midi": 51,
          "name": "D#3",
          "ticks": 101400,
          "time": 83.114707,
          "velocity": 1
        },
        {
          "duration": 0.47622923833333175,
          "durationTicks": 581,
          "midi": 51,
          "name": "D#3",
          "ticks": 101400,
          "time": 83.114707,
          "velocity": 1
        },
        {
          "duration": 0.47622923833333175,
          "durationTicks": 581,
          "midi": 53,
          "name": "F3",
          "ticks": 102000,
          "time": 83.60651,
          "velocity": 1
        },
        {
          "duration": 0.47622923833333175,
          "durationTicks": 581,
          "midi": 53,
          "name": "F3",
          "ticks": 102000,
          "time": 83.60651,
          "velocity": 1
        },
        {
          "duration": 0.47622923833333175,
          "durationTicks": 581,
          "midi": 50,
          "name": "D3",
          "ticks": 102600,
          "time": 84.098313,
          "velocity": 1
        },
        {
          "duration": 0.47622923833333175,
          "durationTicks": 581,
          "midi": 50,
          "name": "D3",
          "ticks": 102600,
          "time": 84.098313,
          "velocity": 1
        },
        {
          "duration": 0.9680322383333362,
          "durationTicks": 1181,
          "midi": 51,
          "name": "D#3",
          "ticks": 103200,
          "time": 84.590116,
          "velocity": 1
        },
        {
          "duration": 0.9680322383333362,
          "durationTicks": 1181,
          "midi": 51,
          "name": "D#3",
          "ticks": 103200,
          "time": 84.590116,
          "velocity": 1
        },
        {
          "duration": 0.968032238333322,
          "durationTicks": 1181,
          "midi": 50,
          "name": "D3",
          "ticks": 104400,
          "time": 85.573722,
          "velocity": 1
        },
        {
          "duration": 0.968032238333322,
          "durationTicks": 1181,
          "midi": 50,
          "name": "D3",
          "ticks": 104400,
          "time": 85.573722,
          "velocity": 1
        },
        {
          "duration": 0.9680322383333362,
          "durationTicks": 1181,
          "midi": 48,
          "name": "C3",
          "ticks": 105600,
          "time": 86.557328,
          "velocity": 1
        },
        {
          "duration": 0.9680322383333362,
          "durationTicks": 1181,
          "midi": 48,
          "name": "C3",
          "ticks": 105600,
          "time": 86.557328,
          "velocity": 1
        },
        {
          "duration": 0.35327848833334485,
          "durationTicks": 431,
          "midi": 48,
          "name": "C3",
          "ticks": 106800,
          "time": 87.540934,
          "velocity": 1
        },
        {
          "duration": 0.35327848833334485,
          "durationTicks": 431,
          "midi": 48,
          "name": "C3",
          "ticks": 106800,
          "time": 87.540934,
          "velocity": 1
        },
        {
          "duration": 0.10737698833332843,
          "durationTicks": 131,
          "midi": 48,
          "name": "C3",
          "ticks": 107250,
          "time": 87.90978625,
          "velocity": 1
        },
        {
          "duration": 0.10737698833332843,
          "durationTicks": 131,
          "midi": 48,
          "name": "C3",
          "ticks": 107250,
          "time": 87.90978625,
          "velocity": 1
        },
        {
          "duration": 0.47622923833333175,
          "durationTicks": 581,
          "midi": 50,
          "name": "D3",
          "ticks": 107400,
          "time": 88.032737,
          "velocity": 1
        },
        {
          "duration": 0.47622923833333175,
          "durationTicks": 581,
          "midi": 50,
          "name": "D3",
          "ticks": 107400,
          "time": 88.032737,
          "velocity": 1
        },
        {
          "duration": 1.4598352383333264,
          "durationTicks": 1781,
          "midi": 51,
          "name": "D#3",
          "ticks": 108000,
          "time": 88.52454,
          "velocity": 1
        },
        {
          "duration": 1.4598352383333264,
          "durationTicks": 1781,
          "midi": 51,
          "name": "D#3",
          "ticks": 108000,
          "time": 88.52454,
          "velocity": 1
        },
        {
          "duration": 0.47622923833333175,
          "durationTicks": 581,
          "midi": 56,
          "name": "G#3",
          "ticks": 109800,
          "time": 89.999949,
          "velocity": 1
        },
        {
          "duration": 0.47622923833333175,
          "durationTicks": 581,
          "midi": 56,
          "name": "G#3",
          "ticks": 109800,
          "time": 89.999949,
          "velocity": 1
        },
        {
          "duration": 0.47622923833334596,
          "durationTicks": 581,
          "midi": 59,
          "name": "B3",
          "ticks": 110400,
          "time": 90.49175199999999,
          "velocity": 1
        },
        {
          "duration": 0.47622923833334596,
          "durationTicks": 581,
          "midi": 59,
          "name": "B3",
          "ticks": 110400,
          "time": 90.49175199999999,
          "velocity": 1
        },
        {
          "duration": 0.47622923833333175,
          "durationTicks": 581,
          "midi": 55,
          "name": "G3",
          "ticks": 111000,
          "time": 90.983555,
          "velocity": 1
        },
        {
          "duration": 0.47622923833333175,
          "durationTicks": 581,
          "midi": 55,
          "name": "G3",
          "ticks": 111000,
          "time": 90.983555,
          "velocity": 1
        },
        {
          "duration": 0.47622923833333175,
          "durationTicks": 581,
          "midi": 59,
          "name": "B3",
          "ticks": 111600,
          "time": 91.475358,
          "velocity": 1
        },
        {
          "duration": 0.47622923833333175,
          "durationTicks": 581,
          "midi": 59,
          "name": "B3",
          "ticks": 111600,
          "time": 91.475358,
          "velocity": 1
        },
        {
          "duration": 0.47622923833333175,
          "durationTicks": 581,
          "midi": 60,
          "name": "C4",
          "ticks": 112200,
          "time": 91.967161,
          "velocity": 1
        },
        {
          "duration": 0.47622923833333175,
          "durationTicks": 581,
          "midi": 60,
          "name": "C4",
          "ticks": 112200,
          "time": 91.967161,
          "velocity": 1
        },
        {
          "duration": 0.9680322383333362,
          "durationTicks": 1181,
          "midi": 60,
          "name": "C4",
          "ticks": 112800,
          "time": 92.458964,
          "velocity": 1
        },
        {
          "duration": 0.9680322383333362,
          "durationTicks": 1181,
          "midi": 60,
          "name": "C4",
          "ticks": 112800,
          "time": 92.458964,
          "velocity": 1
        },
        {
          "duration": 0.968032238333322,
          "durationTicks": 1181,
          "midi": 63,
          "name": "D#4",
          "ticks": 114000,
          "time": 93.44257,
          "velocity": 1
        },
        {
          "duration": 0.968032238333322,
          "durationTicks": 1181,
          "midi": 63,
          "name": "D#4",
          "ticks": 114000,
          "time": 93.44257,
          "velocity": 1
        },
        {
          "duration": 0.9680322383333362,
          "durationTicks": 1181,
          "midi": 48,
          "name": "C3",
          "ticks": 115200,
          "time": 94.426176,
          "velocity": 1
        },
        {
          "duration": 0.9680322383333362,
          "durationTicks": 1181,
          "midi": 48,
          "name": "C3",
          "ticks": 115200,
          "time": 94.426176,
          "velocity": 1
        },
        {
          "duration": 0.9680322383333362,
          "durationTicks": 1181,
          "midi": 60,
          "name": "C4",
          "ticks": 115200,
          "time": 94.426176,
          "velocity": 1
        },
        {
          "duration": 0.35327848833334485,
          "durationTicks": 431,
          "midi": 62,
          "name": "D4",
          "ticks": 116400,
          "time": 95.40978199999999,
          "velocity": 1
        },
        {
          "duration": 0.35327848833334485,
          "durationTicks": 431,
          "midi": 48,
          "name": "C3",
          "ticks": 116400,
          "time": 95.40978199999999,
          "velocity": 1
        },
        {
          "duration": 0.35327848833334485,
          "durationTicks": 431,
          "midi": 48,
          "name": "C3",
          "ticks": 116400,
          "time": 95.40978199999999,
          "velocity": 1
        },
        {
          "duration": 0.10737698833332843,
          "durationTicks": 131,
          "midi": 62,
          "name": "D4",
          "ticks": 116850,
          "time": 95.77863425,
          "velocity": 1
        },
        {
          "duration": 0.10737698833332843,
          "durationTicks": 131,
          "midi": 48,
          "name": "C3",
          "ticks": 116850,
          "time": 95.77863425,
          "velocity": 1
        },
        {
          "duration": 0.10737698833332843,
          "durationTicks": 131,
          "midi": 48,
          "name": "C3",
          "ticks": 116850,
          "time": 95.77863425,
          "velocity": 1
        },
        {
          "duration": 0.47622923833333175,
          "durationTicks": 581,
          "midi": 65,
          "name": "F4",
          "ticks": 117000,
          "time": 95.901585,
          "velocity": 1
        },
        {
          "duration": 0.47622923833333175,
          "durationTicks": 581,
          "midi": 50,
          "name": "D3",
          "ticks": 117000,
          "time": 95.901585,
          "velocity": 1
        },
        {
          "duration": 0.47622923833333175,
          "durationTicks": 581,
          "midi": 50,
          "name": "D3",
          "ticks": 117000,
          "time": 95.901585,
          "velocity": 1
        },
        {
          "duration": 1.4598352383333264,
          "durationTicks": 1781,
          "midi": 51,
          "name": "D#3",
          "ticks": 117600,
          "time": 96.393388,
          "velocity": 1
        },
        {
          "duration": 1.4598352383333264,
          "durationTicks": 1781,
          "midi": 51,
          "name": "D#3",
          "ticks": 117600,
          "time": 96.393388,
          "velocity": 1
        },
        {
          "duration": 1.4598352383333264,
          "durationTicks": 1781,
          "midi": 67,
          "name": "G4",
          "ticks": 117600,
          "time": 96.393388,
          "velocity": 1
        },
        {
          "duration": 0.47622923833333175,
          "durationTicks": 581,
          "midi": 65,
          "name": "F4",
          "ticks": 119400,
          "time": 97.868797,
          "velocity": 1
        },
        {
          "duration": 0.47622923833333175,
          "durationTicks": 581,
          "midi": 56,
          "name": "G#3",
          "ticks": 119400,
          "time": 97.868797,
          "velocity": 1
        },
        {
          "duration": 0.47622923833333175,
          "durationTicks": 581,
          "midi": 56,
          "name": "G#3",
          "ticks": 119400,
          "time": 97.868797,
          "velocity": 1
        },
        {
          "duration": 0.47622923833333175,
          "durationTicks": 581,
          "midi": 62,
          "name": "D4",
          "ticks": 120000,
          "time": 98.3606,
          "velocity": 1
        },
        {
          "duration": 0.47622923833333175,
          "durationTicks": 581,
          "midi": 55,
          "name": "G3",
          "ticks": 120000,
          "time": 98.3606,
          "velocity": 1
        },
        {
          "duration": 0.47622923833333175,
          "durationTicks": 581,
          "midi": 55,
          "name": "G3",
          "ticks": 120000,
          "time": 98.3606,
          "velocity": 1
        },
        {
          "duration": 0.47622923833333175,
          "durationTicks": 581,
          "midi": 60,
          "name": "C4",
          "ticks": 120600,
          "time": 98.852403,
          "velocity": 1
        },
        {
          "duration": 0.47622923833333175,
          "durationTicks": 581,
          "midi": 51,
          "name": "D#3",
          "ticks": 120600,
          "time": 98.852403,
          "velocity": 1
        },
        {
          "duration": 0.47622923833333175,
          "durationTicks": 581,
          "midi": 51,
          "name": "D#3",
          "ticks": 120600,
          "time": 98.852403,
          "velocity": 1
        },
        {
          "duration": 0.47622923833333175,
          "durationTicks": 581,
          "midi": 63,
          "name": "D#4",
          "ticks": 121200,
          "time": 99.344206,
          "velocity": 1
        },
        {
          "duration": 0.47622923833333175,
          "durationTicks": 581,
          "midi": 53,
          "name": "F3",
          "ticks": 121200,
          "time": 99.344206,
          "velocity": 1
        },
        {
          "duration": 0.47622923833333175,
          "durationTicks": 581,
          "midi": 53,
          "name": "F3",
          "ticks": 121200,
          "time": 99.344206,
          "velocity": 1
        },
        {
          "duration": 0.47622923833333175,
          "durationTicks": 581,
          "midi": 63,
          "name": "D#4",
          "ticks": 121800,
          "time": 99.836009,
          "velocity": 1
        },
        {
          "duration": 0.47622923833333175,
          "durationTicks": 581,
          "midi": 53,
          "name": "F3",
          "ticks": 121800,
          "time": 99.836009,
          "velocity": 1
        },
        {
          "duration": 0.47622923833333175,
          "durationTicks": 581,
          "midi": 53,
          "name": "F3",
          "ticks": 121800,
          "time": 99.836009,
          "velocity": 1
        },
        {
          "duration": 1.9516382383333308,
          "durationTicks": 2381,
          "midi": 60,
          "name": "C4",
          "ticks": 122400,
          "time": 100.327812,
          "velocity": 1
        },
        {
          "duration": 1.9516382383333308,
          "durationTicks": 2381,
          "midi": 51,
          "name": "D#3",
          "ticks": 122400,
          "time": 100.327812,
          "velocity": 1
        },
        {
          "duration": 1.9516382383333308,
          "durationTicks": 2381,
          "midi": 51,
          "name": "D#3",
          "ticks": 122400,
          "time": 100.327812,
          "velocity": 1
        },
        {
          "duration": 0.9680322383333362,
          "durationTicks": 1181,
          "midi": 48,
          "name": "C3",
          "ticks": 124800,
          "time": 102.295024,
          "velocity": 1
        },
        {
          "duration": 0.9680322383333362,
          "durationTicks": 1181,
          "midi": 48,
          "name": "C3",
          "ticks": 124800,
          "time": 102.295024,
          "velocity": 1
        },
        {
          "duration": 0.9680322383333362,
          "durationTicks": 1181,
          "midi": 63,
          "name": "D#4",
          "ticks": 124800,
          "time": 102.295024,
          "velocity": 1
        },
        {
          "duration": 0.35327848833334485,
          "durationTicks": 431,
          "midi": 63,
          "name": "D#4",
          "ticks": 126000,
          "time": 103.27862999999999,
          "velocity": 1
        },
        {
          "duration": 0.35327848833334485,
          "durationTicks": 431,
          "midi": 48,
          "name": "C3",
          "ticks": 126000,
          "time": 103.27862999999999,
          "velocity": 1
        },
        {
          "duration": 0.35327848833334485,
          "durationTicks": 431,
          "midi": 48,
          "name": "C3",
          "ticks": 126000,
          "time": 103.27862999999999,
          "velocity": 1
        },
        {
          "duration": 0.10737698833332843,
          "durationTicks": 131,
          "midi": 63,
          "name": "D#4",
          "ticks": 126450,
          "time": 103.64748225,
          "velocity": 1
        },
        {
          "duration": 0.10737698833332843,
          "durationTicks": 131,
          "midi": 48,
          "name": "C3",
          "ticks": 126450,
          "time": 103.64748225,
          "velocity": 1
        },
        {
          "duration": 0.10737698833332843,
          "durationTicks": 131,
          "midi": 48,
          "name": "C3",
          "ticks": 126450,
          "time": 103.64748225,
          "velocity": 1
        },
        {
          "duration": 0.47622923833333175,
          "durationTicks": 581,
          "midi": 65,
          "name": "F4",
          "ticks": 126600,
          "time": 103.770433,
          "velocity": 1
        },
        {
          "duration": 0.47622923833333175,
          "durationTicks": 581,
          "midi": 50,
          "name": "D3",
          "ticks": 126600,
          "time": 103.770433,
          "velocity": 1
        },
        {
          "duration": 0.47622923833333175,
          "durationTicks": 581,
          "midi": 50,
          "name": "D3",
          "ticks": 126600,
          "time": 103.770433,
          "velocity": 1
        },
        {
          "duration": 1.4598352383333264,
          "durationTicks": 1781,
          "midi": 51,
          "name": "D#3",
          "ticks": 127200,
          "time": 104.262236,
          "velocity": 1
        },
        {
          "duration": 1.4598352383333264,
          "durationTicks": 1781,
          "midi": 51,
          "name": "D#3",
          "ticks": 127200,
          "time": 104.262236,
          "velocity": 1
        },
        {
          "duration": 1.4598352383333264,
          "durationTicks": 1781,
          "midi": 58,
          "name": "A#3",
          "ticks": 127200,
          "time": 104.262236,
          "velocity": 1
        },
        {
          "duration": 0.47622923833333175,
          "durationTicks": 581,
          "midi": 56,
          "name": "G#3",
          "ticks": 129000,
          "time": 105.737645,
          "velocity": 1
        },
        {
          "duration": 0.47622923833333175,
          "durationTicks": 581,
          "midi": 56,
          "name": "G#3",
          "ticks": 129000,
          "time": 105.737645,
          "velocity": 1
        },
        {
          "duration": 0.47622923833334596,
          "durationTicks": 581,
          "midi": 51,
          "name": "D#3",
          "ticks": 129600,
          "time": 106.22944799999999,
          "velocity": 1
        },
        {
          "duration": 0.47622923833334596,
          "durationTicks": 581,
          "midi": 59,
          "name": "B3",
          "ticks": 129600,
          "time": 106.22944799999999,
          "velocity": 1
        },
        {
          "duration": 0.47622923833334596,
          "durationTicks": 581,
          "midi": 59,
          "name": "B3",
          "ticks": 129600,
          "time": 106.22944799999999,
          "velocity": 1
        },
        {
          "duration": 0.47622923833333175,
          "durationTicks": 581,
          "midi": 50,
          "name": "D3",
          "ticks": 130200,
          "time": 106.721251,
          "velocity": 1
        },
        {
          "duration": 0.47622923833333175,
          "durationTicks": 581,
          "midi": 55,
          "name": "G3",
          "ticks": 130200,
          "time": 106.721251,
          "velocity": 1
        },
        {
          "duration": 0.47622923833333175,
          "durationTicks": 581,
          "midi": 55,
          "name": "G3",
          "ticks": 130200,
          "time": 106.721251,
          "velocity": 1
        },
        {
          "duration": 0.47622923833333175,
          "durationTicks": 581,
          "midi": 51,
          "name": "D#3",
          "ticks": 130800,
          "time": 107.213054,
          "velocity": 1
        },
        {
          "duration": 0.47622923833333175,
          "durationTicks": 581,
          "midi": 59,
          "name": "B3",
          "ticks": 130800,
          "time": 107.213054,
          "velocity": 1
        },
        {
          "duration": 0.47622923833333175,
          "durationTicks": 581,
          "midi": 59,
          "name": "B3",
          "ticks": 130800,
          "time": 107.213054,
          "velocity": 1
        },
        {
          "duration": 0.47622923833333175,
          "durationTicks": 581,
          "midi": 55,
          "name": "G3",
          "ticks": 131400,
          "time": 107.704857,
          "velocity": 1
        },
        {
          "duration": 0.47622923833333175,
          "durationTicks": 581,
          "midi": 60,
          "name": "C4",
          "ticks": 131400,
          "time": 107.704857,
          "velocity": 1
        },
        {
          "duration": 0.47622923833333175,
          "durationTicks": 581,
          "midi": 60,
          "name": "C4",
          "ticks": 131400,
          "time": 107.704857,
          "velocity": 1
        },
        {
          "duration": 0.9680322383333362,
          "durationTicks": 1181,
          "midi": 60,
          "name": "C4",
          "ticks": 132000,
          "time": 108.19666,
          "velocity": 1
        },
        {
          "duration": 0.9680322383333362,
          "durationTicks": 1181,
          "midi": 60,
          "name": "C4",
          "ticks": 132000,
          "time": 108.19666,
          "velocity": 1
        },
        {
          "duration": 0.9680322383333362,
          "durationTicks": 1181,
          "midi": 51,
          "name": "D#3",
          "ticks": 132000,
          "time": 108.19666,
          "velocity": 1
        }
      ]
    },
    {
      "channel": 0,
      "controlChanges": {},
      "pitchBends": [
        {
          "ticks": 38400,
          "time": 31.475392,
          "value": 0
        }
      ],
      "instrument": {
        "family": "piano",
        "number": 0,
        "name": "acoustic grand piano"
      },
      "name": "",
      "notes": []
    },
    {
      "channel": 0,
      "controlChanges": {
        "6": [
          {
            "number": 6,
            "ticks": 38400,
            "time": 31.475392,
            "value": 0.09448818897637795
          },
          {
            "number": 6,
            "ticks": 184800,
            "time": 151.475324,
            "value": 0.09448818897637795
          },
          {
            "number": 6,
            "ticks": 184800,
            "time": 151.475324,
            "value": 0.09448818897637795
          }
        ],
        "7": [
          {
            "number": 7,
            "ticks": 38400,
            "time": 31.475392,
            "value": 0.7874015748031497
          },
          {
            "number": 7,
            "ticks": 38400,
            "time": 31.475392,
            "value": 0.7874015748031497
          },
          {
            "number": 7,
            "ticks": 184800,
            "time": 151.475324,
            "value": 0.7874015748031497
          },
          {
            "number": 7,
            "ticks": 184800,
            "time": 151.475324,
            "value": 0.7874015748031497
          }
        ],
        "10": [
          {
            "number": 10,
            "ticks": 38400,
            "time": 31.475392,
            "value": 0.5039370078740157
          },
          {
            "number": 10,
            "ticks": 38400,
            "time": 31.475392,
            "value": 0.5039370078740157
          },
          {
            "number": 10,
            "ticks": 184800,
            "time": 151.475324,
            "value": 0.5039370078740157
          },
          {
            "number": 10,
            "ticks": 184800,
            "time": 151.475324,
            "value": 0.5039370078740157
          }
        ],
        "100": [
          {
            "number": 100,
            "ticks": 38400,
            "time": 31.475392,
            "value": 0
          },
          {
            "number": 100,
            "ticks": 184800,
            "time": 151.475324,
            "value": 0
          },
          {
            "number": 100,
            "ticks": 184800,
            "time": 151.475324,
            "value": 0
          }
        ],
        "101": [
          {
            "number": 101,
            "ticks": 38400,
            "time": 31.475392,
            "value": 0
          },
          {
            "number": 101,
            "ticks": 184800,
            "time": 151.475324,
            "value": 0
          },
          {
            "number": 101,
            "ticks": 184800,
            "time": 151.475324,
            "value": 0
          }
        ]
      },
      "pitchBends": [
        {
          "ticks": 38400,
          "time": 31.475392,
          "value": 0
        },
        {
          "ticks": 38400,
          "time": 31.475392,
          "value": 0
        },
        {
          "ticks": 184800,
          "time": 151.475324,
          "value": 0
        },
        {
          "ticks": 184800,
          "time": 151.475324,
          "value": 0
        }
      ],
      "instrument": {
        "family": "ensemble",
        "number": 50,
        "name": "synthstrings 1"
      },
      "name": "",
      "notes": []
    },
    {
      "channel": 9,
      "controlChanges": {
        "6": [
          {
            "number": 6,
            "ticks": 38400,
            "time": 31.475392,
            "value": 0.09448818897637795
          },
          {
            "number": 6,
            "ticks": 38400,
            "time": 31.475392,
            "value": 0.09448818897637795
          },
          {
            "number": 6,
            "ticks": 184800,
            "time": 151.475324,
            "value": 0.09448818897637795
          },
          {
            "number": 6,
            "ticks": 184800,
            "time": 151.475324,
            "value": 0.09448818897637795
          },
          {
            "number": 6,
            "ticks": 184800,
            "time": 151.475324,
            "value": 0.09448818897637795
          },
          {
            "number": 6,
            "ticks": 184800,
            "time": 151.475324,
            "value": 0.09448818897637795
          }
        ],
        "7": [
          {
            "number": 7,
            "ticks": 38400,
            "time": 31.475392,
            "value": 0.7874015748031497
          },
          {
            "number": 7,
            "ticks": 38400,
            "time": 31.475392,
            "value": 0.7874015748031497
          },
          {
            "number": 7,
            "ticks": 38400,
            "time": 31.475392,
            "value": 0.7874015748031497
          },
          {
            "number": 7,
            "ticks": 38400,
            "time": 31.475392,
            "value": 0.7874015748031497
          },
          {
            "number": 7,
            "ticks": 184800,
            "time": 151.475324,
            "value": 0.7874015748031497
          },
          {
            "number": 7,
            "ticks": 184800,
            "time": 151.475324,
            "value": 0.7874015748031497
          },
          {
            "number": 7,
            "ticks": 184800,
            "time": 151.475324,
            "value": 0.7874015748031497
          },
          {
            "number": 7,
            "ticks": 184800,
            "time": 151.475324,
            "value": 0.7874015748031497
          }
        ],
        "10": [
          {
            "number": 10,
            "ticks": 38400,
            "time": 31.475392,
            "value": 0.5039370078740157
          },
          {
            "number": 10,
            "ticks": 38400,
            "time": 31.475392,
            "value": 0.5039370078740157
          },
          {
            "number": 10,
            "ticks": 38400,
            "time": 31.475392,
            "value": 0.3858267716535433
          },
          {
            "number": 10,
            "ticks": 38400,
            "time": 31.475392,
            "value": 0.3858267716535433
          },
          {
            "number": 10,
            "ticks": 184800,
            "time": 151.475324,
            "value": 0.5039370078740157
          },
          {
            "number": 10,
            "ticks": 184800,
            "time": 151.475324,
            "value": 0.5039370078740157
          },
          {
            "number": 10,
            "ticks": 184800,
            "time": 151.475324,
            "value": 0.3858267716535433
          },
          {
            "number": 10,
            "ticks": 184800,
            "time": 151.475324,
            "value": 0.3858267716535433
          }
        ],
        "100": [
          {
            "number": 100,
            "ticks": 38400,
            "time": 31.475392,
            "value": 0
          },
          {
            "number": 100,
            "ticks": 38400,
            "time": 31.475392,
            "value": 0
          },
          {
            "number": 100,
            "ticks": 184800,
            "time": 151.475324,
            "value": 0
          },
          {
            "number": 100,
            "ticks": 184800,
            "time": 151.475324,
            "value": 0
          },
          {
            "number": 100,
            "ticks": 184800,
            "time": 151.475324,
            "value": 0
          },
          {
            "number": 100,
            "ticks": 184800,
            "time": 151.475324,
            "value": 0
          }
        ],
        "101": [
          {
            "number": 101,
            "ticks": 38400,
            "time": 31.475392,
            "value": 0
          },
          {
            "number": 101,
            "ticks": 38400,
            "time": 31.475392,
            "value": 0
          },
          {
            "number": 101,
            "ticks": 184800,
            "time": 151.475324,
            "value": 0
          },
          {
            "number": 101,
            "ticks": 184800,
            "time": 151.475324,
            "value": 0
          },
          {
            "number": 101,
            "ticks": 184800,
            "time": 151.475324,
            "value": 0
          },
          {
            "number": 101,
            "ticks": 184800,
            "time": 151.475324,
            "value": 0
          }
        ]
      },
      "pitchBends": [
        {
          "ticks": 38400,
          "time": 31.475392,
          "value": 0
        },
        {
          "ticks": 38400,
          "time": 31.475392,
          "value": 0
        },
        {
          "ticks": 38400,
          "time": 31.475392,
          "value": 0
        },
        {
          "ticks": 38400,
          "time": 31.475392,
          "value": 0
        },
        {
          "ticks": 38400,
          "time": 31.475392,
          "value": 0
        },
        {
          "ticks": 38400,
          "time": 31.475392,
          "value": 0
        },
        {
          "ticks": 184800,
          "time": 151.475324,
          "value": 0
        },
        {
          "ticks": 184800,
          "time": 151.475324,
          "value": 0
        },
        {
          "ticks": 184800,
          "time": 151.475324,
          "value": 0
        },
        {
          "ticks": 184800,
          "time": 151.475324,
          "value": 0
        }
      ],
      "instrument": {
        "family": "drums",
        "number": 0,
        "name": "standard kit"
      },
      "name": "",
      "notes": [
        {
          "duration": 0.47622923833333175,
          "durationTicks": 581,
          "midi": 53,
          "name": "F3",
          "ticks": 38400,
          "time": 31.475392,
          "velocity": 0.7244094488188977
        },
        {
          "duration": 1.9516382383333308,
          "durationTicks": 2381,
          "midi": 52,
          "name": "E3",
          "ticks": 38400,
          "time": 31.475392,
          "velocity": 0.7244094488188977
        },
        {
          "duration": 0.10737698833333198,
          "durationTicks": 131,
          "midi": 36,
          "name": "C2",
          "ticks": 38400,
          "time": 31.475392,
          "velocity": 0.7244094488188977
        },
        {
          "duration": 0.10737698833333198,
          "durationTicks": 131,
          "midi": 36,
          "name": "C2",
          "ticks": 38550,
          "time": 31.59834275,
          "velocity": 0.7244094488188977
        },
        {
          "duration": 0.4762292383333353,
          "durationTicks": 581,
          "midi": 38,
          "name": "D2",
          "ticks": 38700,
          "time": 31.721293499999998,
          "velocity": 0.7244094488188977
        },
        {
          "duration": 0.4762292383333353,
          "durationTicks": 581,
          "midi": 46,
          "name": "A#2",
          "ticks": 38700,
          "time": 31.721293499999998,
          "velocity": 0.7244094488188977
        },
        {
          "duration": 0.10737698833333198,
          "durationTicks": 131,
          "midi": 36,
          "name": "C2",
          "ticks": 38850,
          "time": 31.84424425,
          "velocity": 0.7244094488188977
        },
        {
          "duration": 0.4762292383333353,
          "durationTicks": 581,
          "midi": 53,
          "name": "F3",
          "ticks": 39000,
          "time": 31.967195,
          "velocity": 0.7244094488188977
        },
        {
          "duration": 0.10737698833333198,
          "durationTicks": 131,
          "midi": 36,
          "name": "C2",
          "ticks": 39000,
          "time": 31.967195,
          "velocity": 0.7244094488188977
        },
        {
          "duration": 0.10737698833333553,
          "durationTicks": 131,
          "midi": 36,
          "name": "C2",
          "ticks": 39150,
          "time": 32.09014575,
          "velocity": 0.7244094488188977
        },
        {
          "duration": 0.47622923833333175,
          "durationTicks": 581,
          "midi": 38,
          "name": "D2",
          "ticks": 39300,
          "time": 32.2130965,
          "velocity": 0.7244094488188977
        },
        {
          "duration": 0.47622923833333175,
          "durationTicks": 581,
          "midi": 46,
          "name": "A#2",
          "ticks": 39300,
          "time": 32.2130965,
          "velocity": 0.7244094488188977
        },
        {
          "duration": 0.10737698833333553,
          "durationTicks": 131,
          "midi": 36,
          "name": "C2",
          "ticks": 39450,
          "time": 32.33604725,
          "velocity": 0.7244094488188977
        },
        {
          "duration": 0.47622923833333175,
          "durationTicks": 581,
          "midi": 53,
          "name": "F3",
          "ticks": 39600,
          "time": 32.458998,
          "velocity": 0.7244094488188977
        },
        {
          "duration": 0.10737698833332843,
          "durationTicks": 131,
          "midi": 36,
          "name": "C2",
          "ticks": 39600,
          "time": 32.458998,
          "velocity": 0.7244094488188977
        },
        {
          "duration": 0.10737698833332843,
          "durationTicks": 131,
          "midi": 36,
          "name": "C2",
          "ticks": 39750,
          "time": 32.58194875,
          "velocity": 0.7322834645669292
        },
        {
          "duration": 0.47622923833333886,
          "durationTicks": 581,
          "midi": 38,
          "name": "D2",
          "ticks": 39900,
          "time": 32.704899499999996,
          "velocity": 0.7322834645669292
        },
        {
          "duration": 0.47622923833333886,
          "durationTicks": 581,
          "midi": 46,
          "name": "A#2",
          "ticks": 39900,
          "time": 32.704899499999996,
          "velocity": 0.7322834645669292
        },
        {
          "duration": 0.10737698833333553,
          "durationTicks": 131,
          "midi": 36,
          "name": "C2",
          "ticks": 40050,
          "time": 32.82785025,
          "velocity": 0.7322834645669292
        },
        {
          "duration": 0.47622923833333175,
          "durationTicks": 581,
          "midi": 53,
          "name": "F3",
          "ticks": 40200,
          "time": 32.950801,
          "velocity": 0.7322834645669292
        },
        {
          "duration": 0.10737698833333553,
          "durationTicks": 131,
          "midi": 36,
          "name": "C2",
          "ticks": 40200,
          "time": 32.950801,
          "velocity": 0.7322834645669292
        },
        {
          "duration": 0.10737698833333553,
          "durationTicks": 131,
          "midi": 36,
          "name": "C2",
          "ticks": 40350,
          "time": 33.07375175,
          "velocity": 0.7322834645669292
        },
        {
          "duration": 0.47622923833333175,
          "durationTicks": 581,
          "midi": 38,
          "name": "D2",
          "ticks": 40500,
          "time": 33.1967025,
          "velocity": 0.7322834645669292
        },
        {
          "duration": 0.47622923833333175,
          "durationTicks": 581,
          "midi": 46,
          "name": "A#2",
          "ticks": 40500,
          "time": 33.1967025,
          "velocity": 0.7322834645669292
        },
        {
          "duration": 0.10737698833332843,
          "durationTicks": 131,
          "midi": 36,
          "name": "C2",
          "ticks": 40650,
          "time": 33.31965325,
          "velocity": 0.7322834645669292
        },
        {
          "duration": 0.47622923833333175,
          "durationTicks": 581,
          "midi": 53,
          "name": "F3",
          "ticks": 40800,
          "time": 33.442604,
          "velocity": 0.7322834645669292
        },
        {
          "duration": 1.4598352383333264,
          "durationTicks": 1781,
          "midi": 52,
          "name": "E3",
          "ticks": 40800,
          "time": 33.442604,
          "velocity": 0.7322834645669292
        },
        {
          "duration": 0.10737698833332843,
          "durationTicks": 131,
          "midi": 36,
          "name": "C2",
          "ticks": 40800,
          "time": 33.442604,
          "velocity": 0.7322834645669292
        },
        {
          "duration": 0.10737698833333553,
          "durationTicks": 131,
          "midi": 36,
          "name": "C2",
          "ticks": 40950,
          "time": 33.56555475,
          "velocity": 0.7322834645669292
        },
        {
          "duration": 0.47622923833333175,
          "durationTicks": 581,
          "midi": 38,
          "name": "D2",
          "ticks": 41100,
          "time": 33.6885055,
          "velocity": 0.7322834645669292
        },
        {
          "duration": 0.47622923833333175,
          "durationTicks": 581,
          "midi": 46,
          "name": "A#2",
          "ticks": 41100,
          "time": 33.6885055,
          "velocity": 0.7322834645669292
        },
        {
          "duration": 0.10737698833333553,
          "durationTicks": 131,
          "midi": 36,
          "name": "C2",
          "ticks": 41250,
          "time": 33.81145625,
          "velocity": 0.7322834645669292
        },
        {
          "duration": 0.47622923833333175,
          "durationTicks": 581,
          "midi": 53,
          "name": "F3",
          "ticks": 41400,
          "time": 33.934407,
          "velocity": 0.7322834645669292
        },
        {
          "duration": 0.10737698833333553,
          "durationTicks": 131,
          "midi": 36,
          "name": "C2",
          "ticks": 41400,
          "time": 33.934407,
          "velocity": 0.7322834645669292
        },
        {
          "duration": 0.10737698833332843,
          "durationTicks": 131,
          "midi": 36,
          "name": "C2",
          "ticks": 41550,
          "time": 34.05735775,
          "velocity": 0.7322834645669292
        },
        {
          "duration": 0.47622923833333175,
          "durationTicks": 581,
          "midi": 38,
          "name": "D2",
          "ticks": 41700,
          "time": 34.1803085,
          "velocity": 0.7322834645669292
        },
        {
          "duration": 0.47622923833333175,
          "durationTicks": 581,
          "midi": 46,
          "name": "A#2",
          "ticks": 41700,
          "time": 34.1803085,
          "velocity": 0.7322834645669292
        },
        {
          "duration": 0.10737698833333553,
          "durationTicks": 131,
          "midi": 36,
          "name": "C2",
          "ticks": 41850,
          "time": 34.303259249999996,
          "velocity": 0.7322834645669292
        },
        {
          "duration": 0.47622923833333175,
          "durationTicks": 581,
          "midi": 53,
          "name": "F3",
          "ticks": 42000,
          "time": 34.42621,
          "velocity": 0.7322834645669292
        },
        {
          "duration": 0.10737698833333553,
          "durationTicks": 131,
          "midi": 36,
          "name": "C2",
          "ticks": 42000,
          "time": 34.42621,
          "velocity": 0.7322834645669292
        },
        {
          "duration": 0.10737698833333553,
          "durationTicks": 131,
          "midi": 36,
          "name": "C2",
          "ticks": 42150,
          "time": 34.54916075,
          "velocity": 0.7322834645669292
        },
        {
          "duration": 0.47622923833333175,
          "durationTicks": 581,
          "midi": 38,
          "name": "D2",
          "ticks": 42300,
          "time": 34.6721115,
          "velocity": 0.7322834645669292
        },
        {
          "duration": 0.47622923833333175,
          "durationTicks": 581,
          "midi": 46,
          "name": "A#2",
          "ticks": 42300,
          "time": 34.6721115,
          "velocity": 0.7322834645669292
        },
        {
          "duration": 0.10737698833332843,
          "durationTicks": 131,
          "midi": 36,
          "name": "C2",
          "ticks": 42450,
          "time": 34.79506225,
          "velocity": 0.7322834645669292
        },
        {
          "duration": 0.47622923833333175,
          "durationTicks": 581,
          "midi": 53,
          "name": "F3",
          "ticks": 42600,
          "time": 34.918013,
          "velocity": 0.7401574803149606
        },
        {
          "duration": 0.47622923833333175,
          "durationTicks": 581,
          "midi": 52,
          "name": "E3",
          "ticks": 42600,
          "time": 34.918013,
          "velocity": 0.7401574803149606
        },
        {
          "duration": 0.10737698833332843,
          "durationTicks": 131,
          "midi": 36,
          "name": "C2",
          "ticks": 42600,
          "time": 34.918013,
          "velocity": 0.7401574803149606
        },
        {
          "duration": 0.10737698833333553,
          "durationTicks": 131,
          "midi": 36,
          "name": "C2",
          "ticks": 42750,
          "time": 35.040963749999996,
          "velocity": 0.7401574803149606
        },
        {
          "duration": 0.47622923833333886,
          "durationTicks": 581,
          "midi": 38,
          "name": "D2",
          "ticks": 42900,
          "time": 35.1639145,
          "velocity": 0.7401574803149606
        },
        {
          "duration": 0.47622923833333886,
          "durationTicks": 581,
          "midi": 46,
          "name": "A#2",
          "ticks": 42900,
          "time": 35.1639145,
          "velocity": 0.7401574803149606
        },
        {
          "duration": 0.10737698833333553,
          "durationTicks": 131,
          "midi": 36,
          "name": "C2",
          "ticks": 43050,
          "time": 35.28686525,
          "velocity": 0.7401574803149606
        },
        {
          "duration": 0.47622923833333175,
          "durationTicks": 581,
          "midi": 53,
          "name": "F3",
          "ticks": 43200,
          "time": 35.409816,
          "velocity": 0.7401574803149606
        },
        {
          "duration": 1.9516382383333308,
          "durationTicks": 2381,
          "midi": 52,
          "name": "E3",
          "ticks": 43200,
          "time": 35.409816,
          "velocity": 0.7401574803149606
        },
        {
          "duration": 0.10737698833333553,
          "durationTicks": 131,
          "midi": 36,
          "name": "C2",
          "ticks": 43200,
          "time": 35.409816,
          "velocity": 0.7401574803149606
        },
        {
          "duration": 0.10737698833333553,
          "durationTicks": 131,
          "midi": 36,
          "name": "C2",
          "ticks": 43350,
          "time": 35.53276675,
          "velocity": 0.7401574803149606
        },
        {
          "duration": 0.47622923833333175,
          "durationTicks": 581,
          "midi": 38,
          "name": "D2",
          "ticks": 43500,
          "time": 35.6557175,
          "velocity": 0.7401574803149606
        },
        {
          "duration": 0.47622923833333175,
          "durationTicks": 581,
          "midi": 46,
          "name": "A#2",
          "ticks": 43500,
          "time": 35.6557175,
          "velocity": 0.7401574803149606
        },
        {
          "duration": 0.10737698833332843,
          "durationTicks": 131,
          "midi": 36,
          "name": "C2",
          "ticks": 43650,
          "time": 35.77866825,
          "velocity": 0.7401574803149606
        },
        {
          "duration": 0.47622923833333886,
          "durationTicks": 581,
          "midi": 53,
          "name": "F3",
          "ticks": 43800,
          "time": 35.901619,
          "velocity": 0.7401574803149606
        },
        {
          "duration": 0.10737698833333553,
          "durationTicks": 131,
          "midi": 36,
          "name": "C2",
          "ticks": 43800,
          "time": 35.901619,
          "velocity": 0.7401574803149606
        },
        {
          "duration": 0.10737698833333553,
          "durationTicks": 131,
          "midi": 36,
          "name": "C2",
          "ticks": 43950,
          "time": 36.02456975,
          "velocity": 0.7401574803149606
        },
        {
          "duration": 0.47622923833333175,
          "durationTicks": 581,
          "midi": 38,
          "name": "D2",
          "ticks": 44100,
          "time": 36.1475205,
          "velocity": 0.7401574803149606
        },
        {
          "duration": 0.47622923833333175,
          "durationTicks": 581,
          "midi": 46,
          "name": "A#2",
          "ticks": 44100,
          "time": 36.1475205,
          "velocity": 0.7401574803149606
        },
        {
          "duration": 0.10737698833333553,
          "durationTicks": 131,
          "midi": 36,
          "name": "C2",
          "ticks": 44250,
          "time": 36.27047125,
          "velocity": 0.7401574803149606
        },
        {
          "duration": 0.47622923833333175,
          "durationTicks": 581,
          "midi": 53,
          "name": "F3",
          "ticks": 44400,
          "time": 36.393422,
          "velocity": 0.7401574803149606
        },
        {
          "duration": 0.10737698833332843,
          "durationTicks": 131,
          "midi": 36,
          "name": "C2",
          "ticks": 44400,
          "time": 36.393422,
          "velocity": 0.7401574803149606
        },
        {
          "duration": 0.10737698833332843,
          "durationTicks": 131,
          "midi": 36,
          "name": "C2",
          "ticks": 44550,
          "time": 36.51637275,
          "velocity": 0.7401574803149606
        },
        {
          "duration": 0.47622923833333886,
          "durationTicks": 581,
          "midi": 38,
          "name": "D2",
          "ticks": 44700,
          "time": 36.639323499999996,
          "velocity": 0.7401574803149606
        },
        {
          "duration": 0.47622923833333886,
          "durationTicks": 581,
          "midi": 46,
          "name": "A#2",
          "ticks": 44700,
          "time": 36.639323499999996,
          "velocity": 0.7401574803149606
        },
        {
          "duration": 0.10737698833333553,
          "durationTicks": 131,
          "midi": 36,
          "name": "C2",
          "ticks": 44850,
          "time": 36.76227425,
          "velocity": 0.7401574803149606
        },
        {
          "duration": 0.47622923833333175,
          "durationTicks": 581,
          "midi": 53,
          "name": "F3",
          "ticks": 45000,
          "time": 36.885225,
          "velocity": 0.7401574803149606
        },
        {
          "duration": 0.10737698833333553,
          "durationTicks": 131,
          "midi": 36,
          "name": "C2",
          "ticks": 45000,
          "time": 36.885225,
          "velocity": 0.7401574803149606
        },
        {
          "duration": 0.10737698833333553,
          "durationTicks": 131,
          "midi": 36,
          "name": "C2",
          "ticks": 45150,
          "time": 37.00817575,
          "velocity": 0.7401574803149606
        },
        {
          "duration": 0.47622923833333175,
          "durationTicks": 581,
          "midi": 38,
          "name": "D2",
          "ticks": 45300,
          "time": 37.1311265,
          "velocity": 0.7401574803149606
        },
        {
          "duration": 0.47622923833333175,
          "durationTicks": 581,
          "midi": 46,
          "name": "A#2",
          "ticks": 45300,
          "time": 37.1311265,
          "velocity": 0.7401574803149606
        },
        {
          "duration": 0.10737698833332843,
          "durationTicks": 131,
          "midi": 36,
          "name": "C2",
          "ticks": 45450,
          "time": 37.25407725,
          "velocity": 0.7480314960629921
        },
        {
          "duration": 0.47622923833333886,
          "durationTicks": 581,
          "midi": 53,
          "name": "F3",
          "ticks": 45600,
          "time": 37.377027999999996,
          "velocity": 0.7480314960629921
        },
        {
          "duration": 0.9680322383333362,
          "durationTicks": 1181,
          "midi": 52,
          "name": "E3",
          "ticks": 45600,
          "time": 37.377027999999996,
          "velocity": 0.7480314960629921
        },
        {
          "duration": 0.10737698833333553,
          "durationTicks": 131,
          "midi": 36,
          "name": "C2",
          "ticks": 45600,
          "time": 37.377027999999996,
          "velocity": 0.7480314960629921
        },
        {
          "duration": 0.10737698833333553,
          "durationTicks": 131,
          "midi": 36,
          "name": "C2",
          "ticks": 45750,
          "time": 37.49997875,
          "velocity": 0.7480314960629921
        },
        {
          "duration": 0.47622923833333175,
          "durationTicks": 581,
          "midi": 38,
          "name": "D2",
          "ticks": 45900,
          "time": 37.6229295,
          "velocity": 0.7480314960629921
        },
        {
          "duration": 0.47622923833333175,
          "durationTicks": 581,
          "midi": 46,
          "name": "A#2",
          "ticks": 45900,
          "time": 37.6229295,
          "velocity": 0.7480314960629921
        },
        {
          "duration": 0.10737698833333553,
          "durationTicks": 131,
          "midi": 36,
          "name": "C2",
          "ticks": 46050,
          "time": 37.74588025,
          "velocity": 0.7480314960629921
        },
        {
          "duration": 0.23032773833332953,
          "durationTicks": 281,
          "midi": 53,
          "name": "F3",
          "ticks": 46200,
          "time": 37.868831,
          "velocity": 0.7480314960629921
        },
        {
          "duration": 0.10737698833333553,
          "durationTicks": 131,
          "midi": 36,
          "name": "C2",
          "ticks": 46200,
          "time": 37.868831,
          "velocity": 0.7480314960629921
        },
        {
          "duration": 0.10737698833332843,
          "durationTicks": 131,
          "midi": 36,
          "name": "C2",
          "ticks": 46350,
          "time": 37.99178175,
          "velocity": 0.7480314960629921
        },
        {
          "duration": 0.23032773833332953,
          "durationTicks": 281,
          "midi": 53,
          "name": "F3",
          "ticks": 46500,
          "time": 38.1147325,
          "velocity": 0.7480314960629921
        },
        {
          "duration": 0.23032773833332953,
          "durationTicks": 281,
          "midi": 38,
          "name": "D2",
          "ticks": 46500,
          "time": 38.1147325,
          "velocity": 0.7480314960629921
        },
        {
          "duration": 0.23032773833332953,
          "durationTicks": 281,
          "midi": 46,
          "name": "A#2",
          "ticks": 46500,
          "time": 38.1147325,
          "velocity": 0.7480314960629921
        },
        {
          "duration": 0.10737698833333553,
          "durationTicks": 131,
          "midi": 36,
          "name": "C2",
          "ticks": 46650,
          "time": 38.237683249999996,
          "velocity": 0.7480314960629921
        },
        {
          "duration": 0.10737698833333553,
          "durationTicks": 131,
          "midi": 53,
          "name": "F3",
          "ticks": 46800,
          "time": 38.360634,
          "velocity": 0.7480314960629921
        },
        {
          "duration": 0.35327848833333775,
          "durationTicks": 431,
          "midi": 52,
          "name": "E3",
          "ticks": 46800,
          "time": 38.360634,
          "velocity": 0.7480314960629921
        },
        {
          "duration": 0.23032773833333664,
          "durationTicks": 281,
          "midi": 38,
          "name": "D2",
          "ticks": 46800,
          "time": 38.360634,
          "velocity": 0.7480314960629921
        },
        {
          "duration": 0.23032773833333664,
          "durationTicks": 281,
          "midi": 46,
          "name": "A#2",
          "ticks": 46800,
          "time": 38.360634,
          "velocity": 0.7480314960629921
        },
        {
          "duration": 0.23032773833333664,
          "durationTicks": 281,
          "midi": 53,
          "name": "F3",
          "ticks": 46950,
          "time": 38.48358475,
          "velocity": 0.7480314960629921
        },
        {
          "duration": 0.10737698833333553,
          "durationTicks": 131,
          "midi": 36,
          "name": "C2",
          "ticks": 46950,
          "time": 38.48358475,
          "velocity": 0.7480314960629921
        },
        {
          "duration": 0.10737698833333553,
          "durationTicks": 131,
          "midi": 46,
          "name": "A#2",
          "ticks": 47100,
          "time": 38.6065355,
          "velocity": 0.7480314960629921
        },
        {
          "duration": 0.10737698833333553,
          "durationTicks": 131,
          "midi": 38,
          "name": "D2",
          "ticks": 47100,
          "time": 38.6065355,
          "velocity": 0.7480314960629921
        },
        {
          "duration": 0.10737698833332843,
          "durationTicks": 131,
          "midi": 53,
          "name": "F3",
          "ticks": 47250,
          "time": 38.72948625,
          "velocity": 0.7480314960629921
        },
        {
          "duration": 0.35327848833333064,
          "durationTicks": 431,
          "midi": 52,
          "name": "E3",
          "ticks": 47250,
          "time": 38.72948625,
          "velocity": 0.7480314960629921
        },
        {
          "duration": 0.23032773833332953,
          "durationTicks": 281,
          "midi": 38,
          "name": "D2",
          "ticks": 47250,
          "time": 38.72948625,
          "velocity": 0.7480314960629921
        },
        {
          "duration": 0.23032773833332953,
          "durationTicks": 281,
          "midi": 46,
          "name": "A#2",
          "ticks": 47250,
          "time": 38.72948625,
          "velocity": 0.7480314960629921
        },
        {
          "duration": 0.10737698833332843,
          "durationTicks": 131,
          "midi": 53,
          "name": "F3",
          "ticks": 47400,
          "time": 38.852437,
          "velocity": 0.7480314960629921
        },
        {
          "duration": 0.10737698833332843,
          "durationTicks": 131,
          "midi": 36,
          "name": "C2",
          "ticks": 47400,
          "time": 38.852437,
          "velocity": 0.7480314960629921
        },
        {
          "duration": 0.10737698833333553,
          "durationTicks": 131,
          "midi": 53,
          "name": "F3",
          "ticks": 47550,
          "time": 38.975387749999996,
          "velocity": 0.7480314960629921
        },
        {
          "duration": 0.10737698833333553,
          "durationTicks": 131,
          "midi": 38,
          "name": "D2",
          "ticks": 47550,
          "time": 38.975387749999996,
          "velocity": 0.7480314960629921
        },
        {
          "duration": 0.10737698833333553,
          "durationTicks": 131,
          "midi": 46,
          "name": "A#2",
          "ticks": 47550,
          "time": 38.975387749999996,
          "velocity": 0.7480314960629921
        },
        {
          "duration": 0.10737698833333553,
          "durationTicks": 131,
          "midi": 46,
          "name": "A#2",
          "ticks": 47700,
          "time": 39.0983385,
          "velocity": 0.7480314960629921
        },
        {
          "duration": 0.23032773833333664,
          "durationTicks": 281,
          "midi": 52,
          "name": "E3",
          "ticks": 47700,
          "time": 39.0983385,
          "velocity": 0.7480314960629921
        },
        {
          "duration": 0.10737698833333553,
          "durationTicks": 131,
          "midi": 38,
          "name": "D2",
          "ticks": 47700,
          "time": 39.0983385,
          "velocity": 0.7480314960629921
        },
        {
          "duration": 0.10737698833333553,
          "durationTicks": 131,
          "midi": 38,
          "name": "D2",
          "ticks": 47850,
          "time": 39.22128925,
          "velocity": 0.7480314960629921
        },
        {
          "duration": 0.10737698833333553,
          "durationTicks": 131,
          "midi": 46,
          "name": "A#2",
          "ticks": 47850,
          "time": 39.22128925,
          "velocity": 0.7480314960629921
        },
        {
          "duration": 0.47622923833333175,
          "durationTicks": 581,
          "midi": 53,
          "name": "F3",
          "ticks": 48000,
          "time": 39.34424,
          "velocity": 0.7244094488188977
        },
        {
          "duration": 1.9516382383333308,
          "durationTicks": 2381,
          "midi": 52,
          "name": "E3",
          "ticks": 48000,
          "time": 39.34424,
          "velocity": 0.7244094488188977
        },
        {
          "duration": 0.10737698833333553,
          "durationTicks": 131,
          "midi": 36,
          "name": "C2",
          "ticks": 48000,
          "time": 39.34424,
          "velocity": 0.7244094488188977
        },
        {
          "duration": 0.10737698833333553,
          "durationTicks": 131,
          "midi": 36,
          "name": "C2",
          "ticks": 48150,
          "time": 39.46719075,
          "velocity": 0.7244094488188977
        },
        {
          "duration": 0.47622923833333175,
          "durationTicks": 581,
          "midi": 38,
          "name": "D2",
          "ticks": 48300,
          "time": 39.5901415,
          "velocity": 0.7244094488188977
        },
        {
          "duration": 0.47622923833333175,
          "durationTicks": 581,
          "midi": 46,
          "name": "A#2",
          "ticks": 48300,
          "time": 39.5901415,
          "velocity": 0.7244094488188977
        },
        {
          "duration": 0.10737698833332843,
          "durationTicks": 131,
          "midi": 36,
          "name": "C2",
          "ticks": 48450,
          "time": 39.71309225,
          "velocity": 0.7244094488188977
        },
        {
          "duration": 0.47622923833333886,
          "durationTicks": 581,
          "midi": 53,
          "name": "F3",
          "ticks": 48600,
          "time": 39.836043,
          "velocity": 0.7244094488188977
        },
        {
          "duration": 0.10737698833333553,
          "durationTicks": 131,
          "midi": 36,
          "name": "C2",
          "ticks": 48600,
          "time": 39.836043,
          "velocity": 0.7244094488188977
        },
        {
          "duration": 0.10737698833333553,
          "durationTicks": 131,
          "midi": 36,
          "name": "C2",
          "ticks": 48750,
          "time": 39.95899375,
          "velocity": 0.7244094488188977
        },
        {
          "duration": 0.47622923833333175,
          "durationTicks": 581,
          "midi": 38,
          "name": "D2",
          "ticks": 48900,
          "time": 40.0819445,
          "velocity": 0.7244094488188977
        },
        {
          "duration": 0.47622923833333175,
          "durationTicks": 581,
          "midi": 46,
          "name": "A#2",
          "ticks": 48900,
          "time": 40.0819445,
          "velocity": 0.7244094488188977
        },
        {
          "duration": 0.10737698833333553,
          "durationTicks": 131,
          "midi": 36,
          "name": "C2",
          "ticks": 49050,
          "time": 40.20489525,
          "velocity": 0.7244094488188977
        },
        {
          "duration": 0.47622923833333175,
          "durationTicks": 581,
          "midi": 53,
          "name": "F3",
          "ticks": 49200,
          "time": 40.327846,
          "velocity": 0.7244094488188977
        },
        {
          "duration": 0.10737698833332843,
          "durationTicks": 131,
          "midi": 36,
          "name": "C2",
          "ticks": 49200,
          "time": 40.327846,
          "velocity": 0.7244094488188977
        },
        {
          "duration": 0.10737698833332843,
          "durationTicks": 131,
          "midi": 36,
          "name": "C2",
          "ticks": 49350,
          "time": 40.45079675,
          "velocity": 0.7322834645669292
        },
        {
          "duration": 0.47622923833333886,
          "durationTicks": 581,
          "midi": 38,
          "name": "D2",
          "ticks": 49500,
          "time": 40.573747499999996,
          "velocity": 0.7322834645669292
        },
        {
          "duration": 0.47622923833333886,
          "durationTicks": 581,
          "midi": 46,
          "name": "A#2",
          "ticks": 49500,
          "time": 40.573747499999996,
          "velocity": 0.7322834645669292
        },
        {
          "duration": 0.10737698833333553,
          "durationTicks": 131,
          "midi": 36,
          "name": "C2",
          "ticks": 49650,
          "time": 40.69669825,
          "velocity": 0.7322834645669292
        },
        {
          "duration": 0.47622923833333175,
          "durationTicks": 581,
          "midi": 53,
          "name": "F3",
          "ticks": 49800,
          "time": 40.819649,
          "velocity": 0.7322834645669292
        },
        {
          "duration": 0.10737698833333553,
          "durationTicks": 131,
          "midi": 36,
          "name": "C2",
          "ticks": 49800,
          "time": 40.819649,
          "velocity": 0.7322834645669292
        },
        {
          "duration": 0.10737698833333553,
          "durationTicks": 131,
          "midi": 36,
          "name": "C2",
          "ticks": 49950,
          "time": 40.94259975,
          "velocity": 0.7322834645669292
        },
        {
          "duration": 0.47622923833333175,
          "durationTicks": 581,
          "midi": 38,
          "name": "D2",
          "ticks": 50100,
          "time": 41.0655505,
          "velocity": 0.7322834645669292
        },
        {
          "duration": 0.47622923833333175,
          "durationTicks": 581,
          "midi": 46,
          "name": "A#2",
          "ticks": 50100,
          "time": 41.0655505,
          "velocity": 0.7322834645669292
        },
        {
          "duration": 0.10737698833332843,
          "durationTicks": 131,
          "midi": 36,
          "name": "C2",
          "ticks": 50250,
          "time": 41.18850125,
          "velocity": 0.7322834645669292
        },
        {
          "duration": 0.47622923833333175,
          "durationTicks": 581,
          "midi": 53,
          "name": "F3",
          "ticks": 50400,
          "time": 41.311452,
          "velocity": 0.7322834645669292
        },
        {
          "duration": 1.4598352383333264,
          "durationTicks": 1781,
          "midi": 52,
          "name": "E3",
          "ticks": 50400,
          "time": 41.311452,
          "velocity": 0.7322834645669292
        },
        {
          "duration": 0.10737698833332843,
          "durationTicks": 131,
          "midi": 36,
          "name": "C2",
          "ticks": 50400,
          "time": 41.311452,
          "velocity": 0.7322834645669292
        },
        {
          "duration": 0.10737698833333553,
          "durationTicks": 131,
          "midi": 36,
          "name": "C2",
          "ticks": 50550,
          "time": 41.43440275,
          "velocity": 0.7322834645669292
        },
        {
          "duration": 0.47622923833333175,
          "durationTicks": 581,
          "midi": 38,
          "name": "D2",
          "ticks": 50700,
          "time": 41.5573535,
          "velocity": 0.7322834645669292
        },
        {
          "duration": 0.47622923833333175,
          "durationTicks": 581,
          "midi": 46,
          "name": "A#2",
          "ticks": 50700,
          "time": 41.5573535,
          "velocity": 0.7322834645669292
        },
        {
          "duration": 0.10737698833333553,
          "durationTicks": 131,
          "midi": 36,
          "name": "C2",
          "ticks": 50850,
          "time": 41.68030425,
          "velocity": 0.7322834645669292
        },
        {
          "duration": 0.47622923833333175,
          "durationTicks": 581,
          "midi": 53,
          "name": "F3",
          "ticks": 51000,
          "time": 41.803255,
          "velocity": 0.7322834645669292
        },
        {
          "duration": 0.10737698833333553,
          "durationTicks": 131,
          "midi": 36,
          "name": "C2",
          "ticks": 51000,
          "time": 41.803255,
          "velocity": 0.7322834645669292
        },
        {
          "duration": 0.10737698833332843,
          "durationTicks": 131,
          "midi": 36,
          "name": "C2",
          "ticks": 51150,
          "time": 41.92620575,
          "velocity": 0.7322834645669292
        },
        {
          "duration": 0.47622923833333175,
          "durationTicks": 581,
          "midi": 38,
          "name": "D2",
          "ticks": 51300,
          "time": 42.0491565,
          "velocity": 0.7322834645669292
        },
        {
          "duration": 0.47622923833333175,
          "durationTicks": 581,
          "midi": 46,
          "name": "A#2",
          "ticks": 51300,
          "time": 42.0491565,
          "velocity": 0.7322834645669292
        },
        {
          "duration": 0.10737698833333553,
          "durationTicks": 131,
          "midi": 36,
          "name": "C2",
          "ticks": 51450,
          "time": 42.172107249999996,
          "velocity": 0.7322834645669292
        },
        {
          "duration": 0.47622923833333175,
          "durationTicks": 581,
          "midi": 53,
          "name": "F3",
          "ticks": 51600,
          "time": 42.295058,
          "velocity": 0.7322834645669292
        },
        {
          "duration": 0.10737698833333553,
          "durationTicks": 131,
          "midi": 36,
          "name": "C2",
          "ticks": 51600,
          "time": 42.295058,
          "velocity": 0.7322834645669292
        },
        {
          "duration": 0.10737698833333553,
          "durationTicks": 131,
          "midi": 36,
          "name": "C2",
          "ticks": 51750,
          "time": 42.41800875,
          "velocity": 0.7322834645669292
        },
        {
          "duration": 0.47622923833333175,
          "durationTicks": 581,
          "midi": 38,
          "name": "D2",
          "ticks": 51900,
          "time": 42.5409595,
          "velocity": 0.7322834645669292
        },
        {
          "duration": 0.47622923833333175,
          "durationTicks": 581,
          "midi": 46,
          "name": "A#2",
          "ticks": 51900,
          "time": 42.5409595,
          "velocity": 0.7322834645669292
        },
        {
          "duration": 0.10737698833332843,
          "durationTicks": 131,
          "midi": 36,
          "name": "C2",
          "ticks": 52050,
          "time": 42.66391025,
          "velocity": 0.7322834645669292
        },
        {
          "duration": 0.47622923833333175,
          "durationTicks": 581,
          "midi": 53,
          "name": "F3",
          "ticks": 52200,
          "time": 42.786861,
          "velocity": 0.7401574803149606
        },
        {
          "duration": 0.47622923833333175,
          "durationTicks": 581,
          "midi": 52,
          "name": "E3",
          "ticks": 52200,
          "time": 42.786861,
          "velocity": 0.7401574803149606
        },
        {
          "duration": 0.10737698833332843,
          "durationTicks": 131,
          "midi": 36,
          "name": "C2",
          "ticks": 52200,
          "time": 42.786861,
          "velocity": 0.7401574803149606
        },
        {
          "duration": 0.10737698833333553,
          "durationTicks": 131,
          "midi": 36,
          "name": "C2",
          "ticks": 52350,
          "time": 42.909811749999996,
          "velocity": 0.7401574803149606
        },
        {
          "duration": 0.47622923833333886,
          "durationTicks": 581,
          "midi": 38,
          "name": "D2",
          "ticks": 52500,
          "time": 43.0327625,
          "velocity": 0.7401574803149606
        },
        {
          "duration": 0.47622923833333886,
          "durationTicks": 581,
          "midi": 46,
          "name": "A#2",
          "ticks": 52500,
          "time": 43.0327625,
          "velocity": 0.7401574803149606
        },
        {
          "duration": 0.10737698833333553,
          "durationTicks": 131,
          "midi": 36,
          "name": "C2",
          "ticks": 52650,
          "time": 43.15571325,
          "velocity": 0.7401574803149606
        },
        {
          "duration": 0.47622923833333175,
          "durationTicks": 581,
          "midi": 53,
          "name": "F3",
          "ticks": 52800,
          "time": 43.278664,
          "velocity": 0.7401574803149606
        },
        {
          "duration": 1.9516382383333308,
          "durationTicks": 2381,
          "midi": 52,
          "name": "E3",
          "ticks": 52800,
          "time": 43.278664,
          "velocity": 0.7401574803149606
        },
        {
          "duration": 0.10737698833333553,
          "durationTicks": 131,
          "midi": 36,
          "name": "C2",
          "ticks": 52800,
          "time": 43.278664,
          "velocity": 0.7401574803149606
        },
        {
          "duration": 0.10737698833333553,
          "durationTicks": 131,
          "midi": 36,
          "name": "C2",
          "ticks": 52950,
          "time": 43.40161475,
          "velocity": 0.7401574803149606
        },
        {
          "duration": 0.47622923833333175,
          "durationTicks": 581,
          "midi": 38,
          "name": "D2",
          "ticks": 53100,
          "time": 43.5245655,
          "velocity": 0.7401574803149606
        },
        {
          "duration": 0.47622923833333175,
          "durationTicks": 581,
          "midi": 46,
          "name": "A#2",
          "ticks": 53100,
          "time": 43.5245655,
          "velocity": 0.7401574803149606
        },
        {
          "duration": 0.10737698833332843,
          "durationTicks": 131,
          "midi": 36,
          "name": "C2",
          "ticks": 53250,
          "time": 43.64751625,
          "velocity": 0.7401574803149606
        },
        {
          "duration": 0.47622923833333886,
          "durationTicks": 581,
          "midi": 53,
          "name": "F3",
          "ticks": 53400,
          "time": 43.770467,
          "velocity": 0.7401574803149606
        },
        {
          "duration": 0.10737698833333553,
          "durationTicks": 131,
          "midi": 36,
          "name": "C2",
          "ticks": 53400,
          "time": 43.770467,
          "velocity": 0.7401574803149606
        },
        {
          "duration": 0.10737698833333553,
          "durationTicks": 131,
          "midi": 36,
          "name": "C2",
          "ticks": 53550,
          "time": 43.89341775,
          "velocity": 0.7401574803149606
        },
        {
          "duration": 0.47622923833333175,
          "durationTicks": 581,
          "midi": 38,
          "name": "D2",
          "ticks": 53700,
          "time": 44.0163685,
          "velocity": 0.7401574803149606
        },
        {
          "duration": 0.47622923833333175,
          "durationTicks": 581,
          "midi": 46,
          "name": "A#2",
          "ticks": 53700,
          "time": 44.0163685,
          "velocity": 0.7401574803149606
        },
        {
          "duration": 0.10737698833333553,
          "durationTicks": 131,
          "midi": 36,
          "name": "C2",
          "ticks": 53850,
          "time": 44.13931925,
          "velocity": 0.7401574803149606
        },
        {
          "duration": 0.47622923833333175,
          "durationTicks": 581,
          "midi": 53,
          "name": "F3",
          "ticks": 54000,
          "time": 44.26227,
          "velocity": 0.7401574803149606
        },
        {
          "duration": 0.10737698833332843,
          "durationTicks": 131,
          "midi": 36,
          "name": "C2",
          "ticks": 54000,
          "time": 44.26227,
          "velocity": 0.7401574803149606
        },
        {
          "duration": 0.10737698833332843,
          "durationTicks": 131,
          "midi": 36,
          "name": "C2",
          "ticks": 54150,
          "time": 44.38522075,
          "velocity": 0.7401574803149606
        },
        {
          "duration": 0.47622923833333886,
          "durationTicks": 581,
          "midi": 38,
          "name": "D2",
          "ticks": 54300,
          "time": 44.508171499999996,
          "velocity": 0.7401574803149606
        },
        {
          "duration": 0.47622923833333886,
          "durationTicks": 581,
          "midi": 46,
          "name": "A#2",
          "ticks": 54300,
          "time": 44.508171499999996,
          "velocity": 0.7401574803149606
        },
        {
          "duration": 0.10737698833333553,
          "durationTicks": 131,
          "midi": 36,
          "name": "C2",
          "ticks": 54450,
          "time": 44.63112225,
          "velocity": 0.7401574803149606
        },
        {
          "duration": 0.47622923833333175,
          "durationTicks": 581,
          "midi": 53,
          "name": "F3",
          "ticks": 54600,
          "time": 44.754073,
          "velocity": 0.7401574803149606
        },
        {
          "duration": 0.10737698833333553,
          "durationTicks": 131,
          "midi": 36,
          "name": "C2",
          "ticks": 54600,
          "time": 44.754073,
          "velocity": 0.7401574803149606
        },
        {
          "duration": 0.10737698833333553,
          "durationTicks": 131,
          "midi": 36,
          "name": "C2",
          "ticks": 54750,
          "time": 44.87702375,
          "velocity": 0.7401574803149606
        },
        {
          "duration": 0.47622923833333175,
          "durationTicks": 581,
          "midi": 38,
          "name": "D2",
          "ticks": 54900,
          "time": 44.9999745,
          "velocity": 0.7401574803149606
        },
        {
          "duration": 0.47622923833333175,
          "durationTicks": 581,
          "midi": 46,
          "name": "A#2",
          "ticks": 54900,
          "time": 44.9999745,
          "velocity": 0.7401574803149606
        },
        {
          "duration": 0.10737698833332843,
          "durationTicks": 131,
          "midi": 36,
          "name": "C2",
          "ticks": 55050,
          "time": 45.12292525,
          "velocity": 0.7480314960629921
        },
        {
          "duration": 0.47622923833333886,
          "durationTicks": 581,
          "midi": 53,
          "name": "F3",
          "ticks": 55200,
          "time": 45.245875999999996,
          "velocity": 0.7480314960629921
        },
        {
          "duration": 0.9680322383333362,
          "durationTicks": 1181,
          "midi": 52,
          "name": "E3",
          "ticks": 55200,
          "time": 45.245875999999996,
          "velocity": 0.7480314960629921
        },
        {
          "duration": 0.10737698833333553,
          "durationTicks": 131,
          "midi": 36,
          "name": "C2",
          "ticks": 55200,
          "time": 45.245875999999996,
          "velocity": 0.7480314960629921
        },
        {
          "duration": 0.10737698833333553,
          "durationTicks": 131,
          "midi": 36,
          "name": "C2",
          "ticks": 55350,
          "time": 45.36882675,
          "velocity": 0.7480314960629921
        },
        {
          "duration": 0.47622923833333175,
          "durationTicks": 581,
          "midi": 38,
          "name": "D2",
          "ticks": 55500,
          "time": 45.4917775,
          "velocity": 0.7480314960629921
        },
        {
          "duration": 0.47622923833333175,
          "durationTicks": 581,
          "midi": 46,
          "name": "A#2",
          "ticks": 55500,
          "time": 45.4917775,
          "velocity": 0.7480314960629921
        },
        {
          "duration": 0.10737698833333553,
          "durationTicks": 131,
          "midi": 36,
          "name": "C2",
          "ticks": 55650,
          "time": 45.61472825,
          "velocity": 0.7480314960629921
        },
        {
          "duration": 0.23032773833332953,
          "durationTicks": 281,
          "midi": 53,
          "name": "F3",
          "ticks": 55800,
          "time": 45.737679,
          "velocity": 0.7480314960629921
        },
        {
          "duration": 0.10737698833333553,
          "durationTicks": 131,
          "midi": 36,
          "name": "C2",
          "ticks": 55800,
          "time": 45.737679,
          "velocity": 0.7480314960629921
        },
        {
          "duration": 0.10737698833332843,
          "durationTicks": 131,
          "midi": 36,
          "name": "C2",
          "ticks": 55950,
          "time": 45.86062975,
          "velocity": 0.7480314960629921
        },
        {
          "duration": 0.23032773833332953,
          "durationTicks": 281,
          "midi": 53,
          "name": "F3",
          "ticks": 56100,
          "time": 45.9835805,
          "velocity": 0.7480314960629921
        },
        {
          "duration": 0.23032773833332953,
          "durationTicks": 281,
          "midi": 38,
          "name": "D2",
          "ticks": 56100,
          "time": 45.9835805,
          "velocity": 0.7480314960629921
        },
        {
          "duration": 0.23032773833332953,
          "durationTicks": 281,
          "midi": 46,
          "name": "A#2",
          "ticks": 56100,
          "time": 45.9835805,
          "velocity": 0.7480314960629921
        },
        {
          "duration": 0.10737698833333553,
          "durationTicks": 131,
          "midi": 36,
          "name": "C2",
          "ticks": 56250,
          "time": 46.106531249999996,
          "velocity": 0.7480314960629921
        },
        {
          "duration": 0.10737698833333553,
          "durationTicks": 131,
          "midi": 53,
          "name": "F3",
          "ticks": 56400,
          "time": 46.229482,
          "velocity": 0.7480314960629921
        },
        {
          "duration": 0.35327848833333775,
          "durationTicks": 431,
          "midi": 52,
          "name": "E3",
          "ticks": 56400,
          "time": 46.229482,
          "velocity": 0.7480314960629921
        },
        {
          "duration": 0.23032773833333664,
          "durationTicks": 281,
          "midi": 38,
          "name": "D2",
          "ticks": 56400,
          "time": 46.229482,
          "velocity": 0.7480314960629921
        },
        {
          "duration": 0.23032773833333664,
          "durationTicks": 281,
          "midi": 46,
          "name": "A#2",
          "ticks": 56400,
          "time": 46.229482,
          "velocity": 0.7480314960629921
        },
        {
          "duration": 0.23032773833333664,
          "durationTicks": 281,
          "midi": 53,
          "name": "F3",
          "ticks": 56550,
          "time": 46.35243275,
          "velocity": 0.7480314960629921
        },
        {
          "duration": 0.10737698833333553,
          "durationTicks": 131,
          "midi": 36,
          "name": "C2",
          "ticks": 56550,
          "time": 46.35243275,
          "velocity": 0.7480314960629921
        },
        {
          "duration": 0.10737698833333553,
          "durationTicks": 131,
          "midi": 46,
          "name": "A#2",
          "ticks": 56700,
          "time": 46.4753835,
          "velocity": 0.7480314960629921
        },
        {
          "duration": 0.10737698833333553,
          "durationTicks": 131,
          "midi": 38,
          "name": "D2",
          "ticks": 56700,
          "time": 46.4753835,
          "velocity": 0.7480314960629921
        },
        {
          "duration": 0.10737698833332843,
          "durationTicks": 131,
          "midi": 53,
          "name": "F3",
          "ticks": 56850,
          "time": 46.59833425,
          "velocity": 0.7480314960629921
        },
        {
          "duration": 0.35327848833333064,
          "durationTicks": 431,
          "midi": 52,
          "name": "E3",
          "ticks": 56850,
          "time": 46.59833425,
          "velocity": 0.7480314960629921
        },
        {
          "duration": 0.23032773833332953,
          "durationTicks": 281,
          "midi": 38,
          "name": "D2",
          "ticks": 56850,
          "time": 46.59833425,
          "velocity": 0.7480314960629921
        },
        {
          "duration": 0.23032773833332953,
          "durationTicks": 281,
          "midi": 46,
          "name": "A#2",
          "ticks": 56850,
          "time": 46.59833425,
          "velocity": 0.7480314960629921
        },
        {
          "duration": 0.10737698833332843,
          "durationTicks": 131,
          "midi": 53,
          "name": "F3",
          "ticks": 57000,
          "time": 46.721285,
          "velocity": 0.7480314960629921
        },
        {
          "duration": 0.10737698833332843,
          "durationTicks": 131,
          "midi": 36,
          "name": "C2",
          "ticks": 57000,
          "time": 46.721285,
          "velocity": 0.7480314960629921
        },
        {
          "duration": 0.10737698833333553,
          "durationTicks": 131,
          "midi": 53,
          "name": "F3",
          "ticks": 57150,
          "time": 46.844235749999996,
          "velocity": 0.7480314960629921
        },
        {
          "duration": 0.10737698833333553,
          "durationTicks": 131,
          "midi": 38,
          "name": "D2",
          "ticks": 57150,
          "time": 46.844235749999996,
          "velocity": 0.7480314960629921
        },
        {
          "duration": 0.10737698833333553,
          "durationTicks": 131,
          "midi": 46,
          "name": "A#2",
          "ticks": 57150,
          "time": 46.844235749999996,
          "velocity": 0.7480314960629921
        },
        {
          "duration": 0.10737698833333553,
          "durationTicks": 131,
          "midi": 46,
          "name": "A#2",
          "ticks": 57300,
          "time": 46.9671865,
          "velocity": 0.7480314960629921
        },
        {
          "duration": 0.23032773833333664,
          "durationTicks": 281,
          "midi": 52,
          "name": "E3",
          "ticks": 57300,
          "time": 46.9671865,
          "velocity": 0.7480314960629921
        },
        {
          "duration": 0.10737698833333553,
          "durationTicks": 131,
          "midi": 38,
          "name": "D2",
          "ticks": 57300,
          "time": 46.9671865,
          "velocity": 0.7480314960629921
        },
        {
          "duration": 0.10737698833333553,
          "durationTicks": 131,
          "midi": 38,
          "name": "D2",
          "ticks": 57450,
          "time": 47.09013725,
          "velocity": 0.7480314960629921
        },
        {
          "duration": 0.10737698833333553,
          "durationTicks": 131,
          "midi": 46,
          "name": "A#2",
          "ticks": 57450,
          "time": 47.09013725,
          "velocity": 0.7480314960629921
        },
        {
          "duration": 0.10737698833333553,
          "durationTicks": 131,
          "midi": 78,
          "name": "F#5",
          "ticks": 57600,
          "time": 47.213088,
          "velocity": 1
        },
        {
          "duration": 0.10737698833333553,
          "durationTicks": 131,
          "midi": 78,
          "name": "F#5",
          "ticks": 57600,
          "time": 47.213088,
          "velocity": 1
        },
        {
          "duration": 0.10737698833333553,
          "durationTicks": 131,
          "midi": 78,
          "name": "F#5",
          "ticks": 57600,
          "time": 47.213088,
          "velocity": 1
        },
        {
          "duration": 0.10737698833333553,
          "durationTicks": 131,
          "midi": 78,
          "name": "F#5",
          "ticks": 57600,
          "time": 47.213088,
          "velocity": 1
        },
        {
          "duration": 0.10737698833333553,
          "durationTicks": 131,
          "midi": 78,
          "name": "F#5",
          "ticks": 57600,
          "time": 47.213088,
          "velocity": 1
        },
        {
          "duration": 0.10737698833333553,
          "durationTicks": 131,
          "midi": 78,
          "name": "F#5",
          "ticks": 57600,
          "time": 47.213088,
          "velocity": 1
        },
        {
          "duration": 0.10737698833333553,
          "durationTicks": 131,
          "midi": 78,
          "name": "F#5",
          "ticks": 57600,
          "time": 47.213088,
          "velocity": 1
        },
        {
          "duration": 0.10737698833333553,
          "durationTicks": 131,
          "midi": 78,
          "name": "F#5",
          "ticks": 57600,
          "time": 47.213088,
          "velocity": 1
        },
        {
          "duration": 0.10737698833333553,
          "durationTicks": 131,
          "midi": 78,
          "name": "F#5",
          "ticks": 57600,
          "time": 47.213088,
          "velocity": 1
        },
        {
          "duration": 0.10737698833333553,
          "durationTicks": 131,
          "midi": 78,
          "name": "F#5",
          "ticks": 57600,
          "time": 47.213088,
          "velocity": 1
        },
        {
          "duration": 0.10737698833333553,
          "durationTicks": 131,
          "midi": 78,
          "name": "F#5",
          "ticks": 57600,
          "time": 47.213088,
          "velocity": 1
        },
        {
          "duration": 0.10737698833333553,
          "durationTicks": 131,
          "midi": 78,
          "name": "F#5",
          "ticks": 57600,
          "time": 47.213088,
          "velocity": 1
        },
        {
          "duration": 0.10737698833333553,
          "durationTicks": 131,
          "midi": 78,
          "name": "F#5",
          "ticks": 57600,
          "time": 47.213088,
          "velocity": 1
        },
        {
          "duration": 0.10737698833333553,
          "durationTicks": 131,
          "midi": 78,
          "name": "F#5",
          "ticks": 57600,
          "time": 47.213088,
          "velocity": 1
        },
        {
          "duration": 0.10737698833333553,
          "durationTicks": 131,
          "midi": 78,
          "name": "F#5",
          "ticks": 57600,
          "time": 47.213088,
          "velocity": 1
        },
        {
          "duration": 0.10737698833333553,
          "durationTicks": 131,
          "midi": 78,
          "name": "F#5",
          "ticks": 57600,
          "time": 47.213088,
          "velocity": 1
        },
        {
          "duration": 0.10737698833333553,
          "durationTicks": 131,
          "midi": 36,
          "name": "C2",
          "ticks": 57600,
          "time": 47.213088,
          "velocity": 0.7874015748031497
        },
        {
          "duration": 0.35327848833333064,
          "durationTicks": 431,
          "midi": 46,
          "name": "A#2",
          "ticks": 57600,
          "time": 47.213088,
          "velocity": 0.7007874015748031
        },
        {
          "duration": 0.10737698833332843,
          "durationTicks": 131,
          "midi": 36,
          "name": "C2",
          "ticks": 57900,
          "time": 47.4589895,
          "velocity": 0.7952755905511811
        },
        {
          "duration": 0.35327848833333775,
          "durationTicks": 431,
          "midi": 46,
          "name": "A#2",
          "ticks": 58200,
          "time": 47.704890999999996,
          "velocity": 0.7007874015748031
        },
        {
          "duration": 0.35327848833333775,
          "durationTicks": 431,
          "midi": 38,
          "name": "D2",
          "ticks": 58200,
          "time": 47.704890999999996,
          "velocity": 0.7952755905511811
        },
        {
          "duration": 0.10737698833333553,
          "durationTicks": 131,
          "midi": 36,
          "name": "C2",
          "ticks": 58500,
          "time": 47.9507925,
          "velocity": 0.7952755905511811
        },
        {
          "duration": 0.10737698833332843,
          "durationTicks": 131,
          "midi": 79,
          "name": "G5",
          "ticks": 58800,
          "time": 48.196694,
          "velocity": 1
        },
        {
          "duration": 0.10737698833332843,
          "durationTicks": 131,
          "midi": 79,
          "name": "G5",
          "ticks": 58800,
          "time": 48.196694,
          "velocity": 1
        },
        {
          "duration": 0.10737698833332843,
          "durationTicks": 131,
          "midi": 79,
          "name": "G5",
          "ticks": 58800,
          "time": 48.196694,
          "velocity": 1
        },
        {
          "duration": 0.10737698833332843,
          "durationTicks": 131,
          "midi": 79,
          "name": "G5",
          "ticks": 58800,
          "time": 48.196694,
          "velocity": 1
        },
        {
          "duration": 0.10737698833332843,
          "durationTicks": 131,
          "midi": 79,
          "name": "G5",
          "ticks": 58800,
          "time": 48.196694,
          "velocity": 1
        },
        {
          "duration": 0.10737698833332843,
          "durationTicks": 131,
          "midi": 79,
          "name": "G5",
          "ticks": 58800,
          "time": 48.196694,
          "velocity": 1
        },
        {
          "duration": 0.10737698833332843,
          "durationTicks": 131,
          "midi": 79,
          "name": "G5",
          "ticks": 58800,
          "time": 48.196694,
          "velocity": 1
        },
        {
          "duration": 0.10737698833332843,
          "durationTicks": 131,
          "midi": 79,
          "name": "G5",
          "ticks": 58800,
          "time": 48.196694,
          "velocity": 1
        },
        {
          "duration": 0.10737698833332843,
          "durationTicks": 131,
          "midi": 79,
          "name": "G5",
          "ticks": 58800,
          "time": 48.196694,
          "velocity": 1
        },
        {
          "duration": 0.10737698833332843,
          "durationTicks": 131,
          "midi": 79,
          "name": "G5",
          "ticks": 58800,
          "time": 48.196694,
          "velocity": 1
        },
        {
          "duration": 0.10737698833332843,
          "durationTicks": 131,
          "midi": 79,
          "name": "G5",
          "ticks": 58800,
          "time": 48.196694,
          "velocity": 1
        },
        {
          "duration": 0.10737698833332843,
          "durationTicks": 131,
          "midi": 79,
          "name": "G5",
          "ticks": 58800,
          "time": 48.196694,
          "velocity": 1
        },
        {
          "duration": 0.10737698833332843,
          "durationTicks": 131,
          "midi": 79,
          "name": "G5",
          "ticks": 58800,
          "time": 48.196694,
          "velocity": 1
        },
        {
          "duration": 0.10737698833332843,
          "durationTicks": 131,
          "midi": 79,
          "name": "G5",
          "ticks": 58800,
          "time": 48.196694,
          "velocity": 1
        },
        {
          "duration": 0.10737698833332843,
          "durationTicks": 131,
          "midi": 79,
          "name": "G5",
          "ticks": 58800,
          "time": 48.196694,
          "velocity": 1
        },
        {
          "duration": 0.10737698833332843,
          "durationTicks": 131,
          "midi": 79,
          "name": "G5",
          "ticks": 58800,
          "time": 48.196694,
          "velocity": 1
        },
        {
          "duration": 0.35327848833333064,
          "durationTicks": 431,
          "midi": 46,
          "name": "A#2",
          "ticks": 58800,
          "time": 48.196694,
          "velocity": 0.7086614173228346
        },
        {
          "duration": 0.10737698833332843,
          "durationTicks": 131,
          "midi": 36,
          "name": "C2",
          "ticks": 58800,
          "time": 48.196694,
          "velocity": 0.8031496062992126
        },
        {
          "duration": 0.10737698833333553,
          "durationTicks": 131,
          "midi": 36,
          "name": "C2",
          "ticks": 59100,
          "time": 48.442595499999996,
          "velocity": 0.8031496062992126
        },
        {
          "duration": 0.35327848833333775,
          "durationTicks": 431,
          "midi": 38,
          "name": "D2",
          "ticks": 59400,
          "time": 48.688497,
          "velocity": 0.8031496062992126
        },
        {
          "duration": 0.35327848833333775,
          "durationTicks": 431,
          "midi": 46,
          "name": "A#2",
          "ticks": 59400,
          "time": 48.688497,
          "velocity": 0.7165354330708661
        },
        {
          "duration": 0.10737698833333553,
          "durationTicks": 131,
          "midi": 36,
          "name": "C2",
          "ticks": 59700,
          "time": 48.9343985,
          "velocity": 0.8031496062992126
        },
        {
          "duration": 0.10737698833332843,
          "durationTicks": 131,
          "midi": 78,
          "name": "F#5",
          "ticks": 60000,
          "time": 49.1803,
          "velocity": 0.984251968503937
        },
        {
          "duration": 0.10737698833332843,
          "durationTicks": 131,
          "midi": 78,
          "name": "F#5",
          "ticks": 60000,
          "time": 49.1803,
          "velocity": 0.984251968503937
        },
        {
          "duration": 0.10737698833332843,
          "durationTicks": 131,
          "midi": 78,
          "name": "F#5",
          "ticks": 60000,
          "time": 49.1803,
          "velocity": 0.984251968503937
        },
        {
          "duration": 0.10737698833332843,
          "durationTicks": 131,
          "midi": 78,
          "name": "F#5",
          "ticks": 60000,
          "time": 49.1803,
          "velocity": 0.984251968503937
        },
        {
          "duration": 0.10737698833332843,
          "durationTicks": 131,
          "midi": 78,
          "name": "F#5",
          "ticks": 60000,
          "time": 49.1803,
          "velocity": 0.984251968503937
        },
        {
          "duration": 0.10737698833332843,
          "durationTicks": 131,
          "midi": 78,
          "name": "F#5",
          "ticks": 60000,
          "time": 49.1803,
          "velocity": 0.984251968503937
        },
        {
          "duration": 0.10737698833332843,
          "durationTicks": 131,
          "midi": 78,
          "name": "F#5",
          "ticks": 60000,
          "time": 49.1803,
          "velocity": 0.984251968503937
        },
        {
          "duration": 0.10737698833332843,
          "durationTicks": 131,
          "midi": 78,
          "name": "F#5",
          "ticks": 60000,
          "time": 49.1803,
          "velocity": 0.984251968503937
        },
        {
          "duration": 0.10737698833332843,
          "durationTicks": 131,
          "midi": 78,
          "name": "F#5",
          "ticks": 60000,
          "time": 49.1803,
          "velocity": 0.984251968503937
        },
        {
          "duration": 0.10737698833332843,
          "durationTicks": 131,
          "midi": 78,
          "name": "F#5",
          "ticks": 60000,
          "time": 49.1803,
          "velocity": 0.984251968503937
        },
        {
          "duration": 0.10737698833332843,
          "durationTicks": 131,
          "midi": 78,
          "name": "F#5",
          "ticks": 60000,
          "time": 49.1803,
          "velocity": 0.984251968503937
        },
        {
          "duration": 0.10737698833332843,
          "durationTicks": 131,
          "midi": 78,
          "name": "F#5",
          "ticks": 60000,
          "time": 49.1803,
          "velocity": 0.984251968503937
        },
        {
          "duration": 0.10737698833332843,
          "durationTicks": 131,
          "midi": 78,
          "name": "F#5",
          "ticks": 60000,
          "time": 49.1803,
          "velocity": 0.984251968503937
        },
        {
          "duration": 0.10737698833332843,
          "durationTicks": 131,
          "midi": 78,
          "name": "F#5",
          "ticks": 60000,
          "time": 49.1803,
          "velocity": 0.984251968503937
        },
        {
          "duration": 0.10737698833332843,
          "durationTicks": 131,
          "midi": 78,
          "name": "F#5",
          "ticks": 60000,
          "time": 49.1803,
          "velocity": 0.984251968503937
        },
        {
          "duration": 0.10737698833332843,
          "durationTicks": 131,
          "midi": 78,
          "name": "F#5",
          "ticks": 60000,
          "time": 49.1803,
          "velocity": 0.984251968503937
        },
        {
          "duration": 0.10737698833332843,
          "durationTicks": 131,
          "midi": 36,
          "name": "C2",
          "ticks": 60000,
          "time": 49.1803,
          "velocity": 0.8110236220472441
        },
        {
          "duration": 0.10737698833332843,
          "durationTicks": 131,
          "midi": 78,
          "name": "F#5",
          "ticks": 60000,
          "time": 49.1803,
          "velocity": 1
        },
        {
          "duration": 0.10737698833332843,
          "durationTicks": 131,
          "midi": 78,
          "name": "F#5",
          "ticks": 60000,
          "time": 49.1803,
          "velocity": 1
        },
        {
          "duration": 0.10737698833332843,
          "durationTicks": 131,
          "midi": 78,
          "name": "F#5",
          "ticks": 60000,
          "time": 49.1803,
          "velocity": 1
        },
        {
          "duration": 0.10737698833332843,
          "durationTicks": 131,
          "midi": 78,
          "name": "F#5",
          "ticks": 60000,
          "time": 49.1803,
          "velocity": 1
        },
        {
          "duration": 0.10737698833332843,
          "durationTicks": 131,
          "midi": 78,
          "name": "F#5",
          "ticks": 60000,
          "time": 49.1803,
          "velocity": 1
        },
        {
          "duration": 0.10737698833332843,
          "durationTicks": 131,
          "midi": 78,
          "name": "F#5",
          "ticks": 60000,
          "time": 49.1803,
          "velocity": 1
        },
        {
          "duration": 0.10737698833332843,
          "durationTicks": 131,
          "midi": 78,
          "name": "F#5",
          "ticks": 60000,
          "time": 49.1803,
          "velocity": 1
        },
        {
          "duration": 0.10737698833332843,
          "durationTicks": 131,
          "midi": 78,
          "name": "F#5",
          "ticks": 60000,
          "time": 49.1803,
          "velocity": 1
        },
        {
          "duration": 0.10737698833332843,
          "durationTicks": 131,
          "midi": 78,
          "name": "F#5",
          "ticks": 60000,
          "time": 49.1803,
          "velocity": 1
        },
        {
          "duration": 0.10737698833332843,
          "durationTicks": 131,
          "midi": 78,
          "name": "F#5",
          "ticks": 60000,
          "time": 49.1803,
          "velocity": 1
        },
        {
          "duration": 0.10737698833332843,
          "durationTicks": 131,
          "midi": 78,
          "name": "F#5",
          "ticks": 60000,
          "time": 49.1803,
          "velocity": 1
        },
        {
          "duration": 0.10737698833332843,
          "durationTicks": 131,
          "midi": 78,
          "name": "F#5",
          "ticks": 60000,
          "time": 49.1803,
          "velocity": 1
        },
        {
          "duration": 0.10737698833332843,
          "durationTicks": 131,
          "midi": 78,
          "name": "F#5",
          "ticks": 60000,
          "time": 49.1803,
          "velocity": 1
        },
        {
          "duration": 0.10737698833332843,
          "durationTicks": 131,
          "midi": 78,
          "name": "F#5",
          "ticks": 60000,
          "time": 49.1803,
          "velocity": 1
        },
        {
          "duration": 0.10737698833332843,
          "durationTicks": 131,
          "midi": 78,
          "name": "F#5",
          "ticks": 60000,
          "time": 49.1803,
          "velocity": 1
        },
        {
          "duration": 0.10737698833332843,
          "durationTicks": 131,
          "midi": 78,
          "name": "F#5",
          "ticks": 60000,
          "time": 49.1803,
          "velocity": 1
        },
        {
          "duration": 0.35327848833333064,
          "durationTicks": 431,
          "midi": 46,
          "name": "A#2",
          "ticks": 60000,
          "time": 49.1803,
          "velocity": 0.7244094488188977
        },
        {
          "duration": 0.10737698833333553,
          "durationTicks": 131,
          "midi": 36,
          "name": "C2",
          "ticks": 60300,
          "time": 49.4262015,
          "velocity": 0.8110236220472441
        },
        {
          "duration": 0.10737698833333553,
          "durationTicks": 131,
          "midi": 79,
          "name": "G5",
          "ticks": 60600,
          "time": 49.672103,
          "velocity": 1
        },
        {
          "duration": 0.10737698833333553,
          "durationTicks": 131,
          "midi": 79,
          "name": "G5",
          "ticks": 60600,
          "time": 49.672103,
          "velocity": 1
        },
        {
          "duration": 0.10737698833333553,
          "durationTicks": 131,
          "midi": 79,
          "name": "G5",
          "ticks": 60600,
          "time": 49.672103,
          "velocity": 1
        },
        {
          "duration": 0.10737698833333553,
          "durationTicks": 131,
          "midi": 79,
          "name": "G5",
          "ticks": 60600,
          "time": 49.672103,
          "velocity": 1
        },
        {
          "duration": 0.10737698833333553,
          "durationTicks": 131,
          "midi": 79,
          "name": "G5",
          "ticks": 60600,
          "time": 49.672103,
          "velocity": 1
        },
        {
          "duration": 0.10737698833333553,
          "durationTicks": 131,
          "midi": 79,
          "name": "G5",
          "ticks": 60600,
          "time": 49.672103,
          "velocity": 1
        },
        {
          "duration": 0.10737698833333553,
          "durationTicks": 131,
          "midi": 79,
          "name": "G5",
          "ticks": 60600,
          "time": 49.672103,
          "velocity": 1
        },
        {
          "duration": 0.10737698833333553,
          "durationTicks": 131,
          "midi": 79,
          "name": "G5",
          "ticks": 60600,
          "time": 49.672103,
          "velocity": 1
        },
        {
          "duration": 0.10737698833333553,
          "durationTicks": 131,
          "midi": 79,
          "name": "G5",
          "ticks": 60600,
          "time": 49.672103,
          "velocity": 1
        },
        {
          "duration": 0.10737698833333553,
          "durationTicks": 131,
          "midi": 79,
          "name": "G5",
          "ticks": 60600,
          "time": 49.672103,
          "velocity": 1
        },
        {
          "duration": 0.10737698833333553,
          "durationTicks": 131,
          "midi": 79,
          "name": "G5",
          "ticks": 60600,
          "time": 49.672103,
          "velocity": 1
        },
        {
          "duration": 0.10737698833333553,
          "durationTicks": 131,
          "midi": 79,
          "name": "G5",
          "ticks": 60600,
          "time": 49.672103,
          "velocity": 1
        },
        {
          "duration": 0.10737698833333553,
          "durationTicks": 131,
          "midi": 79,
          "name": "G5",
          "ticks": 60600,
          "time": 49.672103,
          "velocity": 1
        },
        {
          "duration": 0.10737698833333553,
          "durationTicks": 131,
          "midi": 79,
          "name": "G5",
          "ticks": 60600,
          "time": 49.672103,
          "velocity": 1
        },
        {
          "duration": 0.10737698833333553,
          "durationTicks": 131,
          "midi": 79,
          "name": "G5",
          "ticks": 60600,
          "time": 49.672103,
          "velocity": 1
        },
        {
          "duration": 0.10737698833333553,
          "durationTicks": 131,
          "midi": 79,
          "name": "G5",
          "ticks": 60600,
          "time": 49.672103,
          "velocity": 1
        },
        {
          "duration": 0.10737698833333553,
          "durationTicks": 131,
          "midi": 79,
          "name": "G5",
          "ticks": 60600,
          "time": 49.672103,
          "velocity": 1
        },
        {
          "duration": 0.10737698833333553,
          "durationTicks": 131,
          "midi": 79,
          "name": "G5",
          "ticks": 60600,
          "time": 49.672103,
          "velocity": 1
        },
        {
          "duration": 0.10737698833333553,
          "durationTicks": 131,
          "midi": 79,
          "name": "G5",
          "ticks": 60600,
          "time": 49.672103,
          "velocity": 1
        },
        {
          "duration": 0.10737698833333553,
          "durationTicks": 131,
          "midi": 79,
          "name": "G5",
          "ticks": 60600,
          "time": 49.672103,
          "velocity": 1
        },
        {
          "duration": 0.10737698833333553,
          "durationTicks": 131,
          "midi": 79,
          "name": "G5",
          "ticks": 60600,
          "time": 49.672103,
          "velocity": 1
        },
        {
          "duration": 0.10737698833333553,
          "durationTicks": 131,
          "midi": 79,
          "name": "G5",
          "ticks": 60600,
          "time": 49.672103,
          "velocity": 1
        },
        {
          "duration": 0.10737698833333553,
          "durationTicks": 131,
          "midi": 79,
          "name": "G5",
          "ticks": 60600,
          "time": 49.672103,
          "velocity": 1
        },
        {
          "duration": 0.10737698833333553,
          "durationTicks": 131,
          "midi": 79,
          "name": "G5",
          "ticks": 60600,
          "time": 49.672103,
          "velocity": 1
        },
        {
          "duration": 0.10737698833333553,
          "durationTicks": 131,
          "midi": 79,
          "name": "G5",
          "ticks": 60600,
          "time": 49.672103,
          "velocity": 1
        },
        {
          "duration": 0.10737698833333553,
          "durationTicks": 131,
          "midi": 79,
          "name": "G5",
          "ticks": 60600,
          "time": 49.672103,
          "velocity": 1
        },
        {
          "duration": 0.10737698833333553,
          "durationTicks": 131,
          "midi": 79,
          "name": "G5",
          "ticks": 60600,
          "time": 49.672103,
          "velocity": 1
        },
        {
          "duration": 0.10737698833333553,
          "durationTicks": 131,
          "midi": 79,
          "name": "G5",
          "ticks": 60600,
          "time": 49.672103,
          "velocity": 1
        },
        {
          "duration": 0.10737698833333553,
          "durationTicks": 131,
          "midi": 79,
          "name": "G5",
          "ticks": 60600,
          "time": 49.672103,
          "velocity": 1
        },
        {
          "duration": 0.10737698833333553,
          "durationTicks": 131,
          "midi": 79,
          "name": "G5",
          "ticks": 60600,
          "time": 49.672103,
          "velocity": 1
        },
        {
          "duration": 0.10737698833333553,
          "durationTicks": 131,
          "midi": 79,
          "name": "G5",
          "ticks": 60600,
          "time": 49.672103,
          "velocity": 1
        },
        {
          "duration": 0.10737698833333553,
          "durationTicks": 131,
          "midi": 79,
          "name": "G5",
          "ticks": 60600,
          "time": 49.672103,
          "velocity": 1
        },
        {
          "duration": 0.35327848833333064,
          "durationTicks": 431,
          "midi": 38,
          "name": "D2",
          "ticks": 60600,
          "time": 49.672103,
          "velocity": 0.8110236220472441
        },
        {
          "duration": 0.35327848833333064,
          "durationTicks": 431,
          "midi": 46,
          "name": "A#2",
          "ticks": 60600,
          "time": 49.672103,
          "velocity": 0.7322834645669292
        },
        {
          "duration": 0.10737698833332843,
          "durationTicks": 131,
          "midi": 36,
          "name": "C2",
          "ticks": 60900,
          "time": 49.9180045,
          "velocity": 0.8188976377952756
        },
        {
          "duration": 0.10737698833333553,
          "durationTicks": 131,
          "midi": 78,
          "name": "F#5",
          "ticks": 61200,
          "time": 50.163906,
          "velocity": 1
        },
        {
          "duration": 0.10737698833333553,
          "durationTicks": 131,
          "midi": 78,
          "name": "F#5",
          "ticks": 61200,
          "time": 50.163906,
          "velocity": 1
        },
        {
          "duration": 0.10737698833333553,
          "durationTicks": 131,
          "midi": 78,
          "name": "F#5",
          "ticks": 61200,
          "time": 50.163906,
          "velocity": 1
        },
        {
          "duration": 0.10737698833333553,
          "durationTicks": 131,
          "midi": 78,
          "name": "F#5",
          "ticks": 61200,
          "time": 50.163906,
          "velocity": 1
        },
        {
          "duration": 0.10737698833333553,
          "durationTicks": 131,
          "midi": 78,
          "name": "F#5",
          "ticks": 61200,
          "time": 50.163906,
          "velocity": 1
        },
        {
          "duration": 0.10737698833333553,
          "durationTicks": 131,
          "midi": 78,
          "name": "F#5",
          "ticks": 61200,
          "time": 50.163906,
          "velocity": 1
        },
        {
          "duration": 0.10737698833333553,
          "durationTicks": 131,
          "midi": 78,
          "name": "F#5",
          "ticks": 61200,
          "time": 50.163906,
          "velocity": 1
        },
        {
          "duration": 0.10737698833333553,
          "durationTicks": 131,
          "midi": 78,
          "name": "F#5",
          "ticks": 61200,
          "time": 50.163906,
          "velocity": 1
        },
        {
          "duration": 0.10737698833333553,
          "durationTicks": 131,
          "midi": 78,
          "name": "F#5",
          "ticks": 61200,
          "time": 50.163906,
          "velocity": 1
        },
        {
          "duration": 0.10737698833333553,
          "durationTicks": 131,
          "midi": 78,
          "name": "F#5",
          "ticks": 61200,
          "time": 50.163906,
          "velocity": 1
        },
        {
          "duration": 0.10737698833333553,
          "durationTicks": 131,
          "midi": 78,
          "name": "F#5",
          "ticks": 61200,
          "time": 50.163906,
          "velocity": 1
        },
        {
          "duration": 0.10737698833333553,
          "durationTicks": 131,
          "midi": 78,
          "name": "F#5",
          "ticks": 61200,
          "time": 50.163906,
          "velocity": 1
        },
        {
          "duration": 0.10737698833333553,
          "durationTicks": 131,
          "midi": 78,
          "name": "F#5",
          "ticks": 61200,
          "time": 50.163906,
          "velocity": 1
        },
        {
          "duration": 0.10737698833333553,
          "durationTicks": 131,
          "midi": 78,
          "name": "F#5",
          "ticks": 61200,
          "time": 50.163906,
          "velocity": 1
        },
        {
          "duration": 0.10737698833333553,
          "durationTicks": 131,
          "midi": 78,
          "name": "F#5",
          "ticks": 61200,
          "time": 50.163906,
          "velocity": 1
        },
        {
          "duration": 0.10737698833333553,
          "durationTicks": 131,
          "midi": 78,
          "name": "F#5",
          "ticks": 61200,
          "time": 50.163906,
          "velocity": 1
        },
        {
          "duration": 0.10737698833333553,
          "durationTicks": 131,
          "midi": 36,
          "name": "C2",
          "ticks": 61200,
          "time": 50.163906,
          "velocity": 0.8188976377952756
        },
        {
          "duration": 0.10737698833333553,
          "durationTicks": 131,
          "midi": 78,
          "name": "F#5",
          "ticks": 61200,
          "time": 50.163906,
          "velocity": 1
        },
        {
          "duration": 0.10737698833333553,
          "durationTicks": 131,
          "midi": 78,
          "name": "F#5",
          "ticks": 61200,
          "time": 50.163906,
          "velocity": 1
        },
        {
          "duration": 0.10737698833333553,
          "durationTicks": 131,
          "midi": 78,
          "name": "F#5",
          "ticks": 61200,
          "time": 50.163906,
          "velocity": 1
        },
        {
          "duration": 0.10737698833333553,
          "durationTicks": 131,
          "midi": 78,
          "name": "F#5",
          "ticks": 61200,
          "time": 50.163906,
          "velocity": 1
        },
        {
          "duration": 0.10737698833333553,
          "durationTicks": 131,
          "midi": 78,
          "name": "F#5",
          "ticks": 61200,
          "time": 50.163906,
          "velocity": 1
        },
        {
          "duration": 0.10737698833333553,
          "durationTicks": 131,
          "midi": 78,
          "name": "F#5",
          "ticks": 61200,
          "time": 50.163906,
          "velocity": 1
        },
        {
          "duration": 0.10737698833333553,
          "durationTicks": 131,
          "midi": 78,
          "name": "F#5",
          "ticks": 61200,
          "time": 50.163906,
          "velocity": 1
        },
        {
          "duration": 0.10737698833333553,
          "durationTicks": 131,
          "midi": 78,
          "name": "F#5",
          "ticks": 61200,
          "time": 50.163906,
          "velocity": 1
        },
        {
          "duration": 0.10737698833333553,
          "durationTicks": 131,
          "midi": 78,
          "name": "F#5",
          "ticks": 61200,
          "time": 50.163906,
          "velocity": 1
        },
        {
          "duration": 0.10737698833333553,
          "durationTicks": 131,
          "midi": 78,
          "name": "F#5",
          "ticks": 61200,
          "time": 50.163906,
          "velocity": 1
        },
        {
          "duration": 0.10737698833333553,
          "durationTicks": 131,
          "midi": 78,
          "name": "F#5",
          "ticks": 61200,
          "time": 50.163906,
          "velocity": 1
        },
        {
          "duration": 0.10737698833333553,
          "durationTicks": 131,
          "midi": 78,
          "name": "F#5",
          "ticks": 61200,
          "time": 50.163906,
          "velocity": 1
        },
        {
          "duration": 0.10737698833333553,
          "durationTicks": 131,
          "midi": 78,
          "name": "F#5",
          "ticks": 61200,
          "time": 50.163906,
          "velocity": 1
        },
        {
          "duration": 0.10737698833333553,
          "durationTicks": 131,
          "midi": 78,
          "name": "F#5",
          "ticks": 61200,
          "time": 50.163906,
          "velocity": 1
        },
        {
          "duration": 0.10737698833333553,
          "durationTicks": 131,
          "midi": 78,
          "name": "F#5",
          "ticks": 61200,
          "time": 50.163906,
          "velocity": 1
        },
        {
          "duration": 0.10737698833333553,
          "durationTicks": 131,
          "midi": 78,
          "name": "F#5",
          "ticks": 61200,
          "time": 50.163906,
          "velocity": 1
        },
        {
          "duration": 0.35327848833333775,
          "durationTicks": 431,
          "midi": 46,
          "name": "A#2",
          "ticks": 61200,
          "time": 50.163906,
          "velocity": 0.7322834645669292
        },
        {
          "duration": 0.10737698833333553,
          "durationTicks": 131,
          "midi": 36,
          "name": "C2",
          "ticks": 61500,
          "time": 50.4098075,
          "velocity": 0.8188976377952756
        },
        {
          "duration": 0.10737698833332843,
          "durationTicks": 131,
          "midi": 79,
          "name": "G5",
          "ticks": 61800,
          "time": 50.655709,
          "velocity": 1
        },
        {
          "duration": 0.10737698833332843,
          "durationTicks": 131,
          "midi": 79,
          "name": "G5",
          "ticks": 61800,
          "time": 50.655709,
          "velocity": 1
        },
        {
          "duration": 0.10737698833332843,
          "durationTicks": 131,
          "midi": 79,
          "name": "G5",
          "ticks": 61800,
          "time": 50.655709,
          "velocity": 1
        },
        {
          "duration": 0.10737698833332843,
          "durationTicks": 131,
          "midi": 79,
          "name": "G5",
          "ticks": 61800,
          "time": 50.655709,
          "velocity": 1
        },
        {
          "duration": 0.10737698833332843,
          "durationTicks": 131,
          "midi": 79,
          "name": "G5",
          "ticks": 61800,
          "time": 50.655709,
          "velocity": 1
        },
        {
          "duration": 0.10737698833332843,
          "durationTicks": 131,
          "midi": 79,
          "name": "G5",
          "ticks": 61800,
          "time": 50.655709,
          "velocity": 1
        },
        {
          "duration": 0.10737698833332843,
          "durationTicks": 131,
          "midi": 79,
          "name": "G5",
          "ticks": 61800,
          "time": 50.655709,
          "velocity": 1
        },
        {
          "duration": 0.10737698833332843,
          "durationTicks": 131,
          "midi": 79,
          "name": "G5",
          "ticks": 61800,
          "time": 50.655709,
          "velocity": 1
        },
        {
          "duration": 0.10737698833332843,
          "durationTicks": 131,
          "midi": 79,
          "name": "G5",
          "ticks": 61800,
          "time": 50.655709,
          "velocity": 1
        },
        {
          "duration": 0.10737698833332843,
          "durationTicks": 131,
          "midi": 79,
          "name": "G5",
          "ticks": 61800,
          "time": 50.655709,
          "velocity": 1
        },
        {
          "duration": 0.10737698833332843,
          "durationTicks": 131,
          "midi": 79,
          "name": "G5",
          "ticks": 61800,
          "time": 50.655709,
          "velocity": 1
        },
        {
          "duration": 0.10737698833332843,
          "durationTicks": 131,
          "midi": 79,
          "name": "G5",
          "ticks": 61800,
          "time": 50.655709,
          "velocity": 1
        },
        {
          "duration": 0.10737698833332843,
          "durationTicks": 131,
          "midi": 79,
          "name": "G5",
          "ticks": 61800,
          "time": 50.655709,
          "velocity": 1
        },
        {
          "duration": 0.10737698833332843,
          "durationTicks": 131,
          "midi": 79,
          "name": "G5",
          "ticks": 61800,
          "time": 50.655709,
          "velocity": 1
        },
        {
          "duration": 0.10737698833332843,
          "durationTicks": 131,
          "midi": 79,
          "name": "G5",
          "ticks": 61800,
          "time": 50.655709,
          "velocity": 1
        },
        {
          "duration": 0.10737698833332843,
          "durationTicks": 131,
          "midi": 79,
          "name": "G5",
          "ticks": 61800,
          "time": 50.655709,
          "velocity": 1
        },
        {
          "duration": 0.10737698833332843,
          "durationTicks": 131,
          "midi": 79,
          "name": "G5",
          "ticks": 61800,
          "time": 50.655709,
          "velocity": 1
        },
        {
          "duration": 0.10737698833332843,
          "durationTicks": 131,
          "midi": 79,
          "name": "G5",
          "ticks": 61800,
          "time": 50.655709,
          "velocity": 1
        },
        {
          "duration": 0.10737698833332843,
          "durationTicks": 131,
          "midi": 79,
          "name": "G5",
          "ticks": 61800,
          "time": 50.655709,
          "velocity": 1
        },
        {
          "duration": 0.10737698833332843,
          "durationTicks": 131,
          "midi": 79,
          "name": "G5",
          "ticks": 61800,
          "time": 50.655709,
          "velocity": 1
        },
        {
          "duration": 0.10737698833332843,
          "durationTicks": 131,
          "midi": 79,
          "name": "G5",
          "ticks": 61800,
          "time": 50.655709,
          "velocity": 1
        },
        {
          "duration": 0.10737698833332843,
          "durationTicks": 131,
          "midi": 79,
          "name": "G5",
          "ticks": 61800,
          "time": 50.655709,
          "velocity": 1
        },
        {
          "duration": 0.10737698833332843,
          "durationTicks": 131,
          "midi": 79,
          "name": "G5",
          "ticks": 61800,
          "time": 50.655709,
          "velocity": 1
        },
        {
          "duration": 0.10737698833332843,
          "durationTicks": 131,
          "midi": 79,
          "name": "G5",
          "ticks": 61800,
          "time": 50.655709,
          "velocity": 1
        },
        {
          "duration": 0.10737698833332843,
          "durationTicks": 131,
          "midi": 79,
          "name": "G5",
          "ticks": 61800,
          "time": 50.655709,
          "velocity": 1
        },
        {
          "duration": 0.10737698833332843,
          "durationTicks": 131,
          "midi": 79,
          "name": "G5",
          "ticks": 61800,
          "time": 50.655709,
          "velocity": 1
        },
        {
          "duration": 0.10737698833332843,
          "durationTicks": 131,
          "midi": 79,
          "name": "G5",
          "ticks": 61800,
          "time": 50.655709,
          "velocity": 1
        },
        {
          "duration": 0.10737698833332843,
          "durationTicks": 131,
          "midi": 79,
          "name": "G5",
          "ticks": 61800,
          "time": 50.655709,
          "velocity": 1
        },
        {
          "duration": 0.10737698833332843,
          "durationTicks": 131,
          "midi": 79,
          "name": "G5",
          "ticks": 61800,
          "time": 50.655709,
          "velocity": 1
        },
        {
          "duration": 0.10737698833332843,
          "durationTicks": 131,
          "midi": 79,
          "name": "G5",
          "ticks": 61800,
          "time": 50.655709,
          "velocity": 1
        },
        {
          "duration": 0.10737698833332843,
          "durationTicks": 131,
          "midi": 79,
          "name": "G5",
          "ticks": 61800,
          "time": 50.655709,
          "velocity": 1
        },
        {
          "duration": 0.10737698833332843,
          "durationTicks": 131,
          "midi": 79,
          "name": "G5",
          "ticks": 61800,
          "time": 50.655709,
          "velocity": 1
        },
        {
          "duration": 0.35327848833333064,
          "durationTicks": 431,
          "midi": 38,
          "name": "D2",
          "ticks": 61800,
          "time": 50.655709,
          "velocity": 0.8267716535433071
        },
        {
          "duration": 0.35327848833333064,
          "durationTicks": 431,
          "midi": 46,
          "name": "A#2",
          "ticks": 61800,
          "time": 50.655709,
          "velocity": 0.7401574803149606
        },
        {
          "duration": 0.10737698833333553,
          "durationTicks": 131,
          "midi": 36,
          "name": "C2",
          "ticks": 62100,
          "time": 50.9016105,
          "velocity": 0.8267716535433071
        },
        {
          "duration": 0.10737698833333553,
          "durationTicks": 131,
          "midi": 78,
          "name": "F#5",
          "ticks": 62400,
          "time": 51.147512,
          "velocity": 1
        },
        {
          "duration": 0.10737698833333553,
          "durationTicks": 131,
          "midi": 78,
          "name": "F#5",
          "ticks": 62400,
          "time": 51.147512,
          "velocity": 1
        },
        {
          "duration": 0.10737698833333553,
          "durationTicks": 131,
          "midi": 78,
          "name": "F#5",
          "ticks": 62400,
          "time": 51.147512,
          "velocity": 1
        },
        {
          "duration": 0.10737698833333553,
          "durationTicks": 131,
          "midi": 78,
          "name": "F#5",
          "ticks": 62400,
          "time": 51.147512,
          "velocity": 1
        },
        {
          "duration": 0.10737698833333553,
          "durationTicks": 131,
          "midi": 78,
          "name": "F#5",
          "ticks": 62400,
          "time": 51.147512,
          "velocity": 1
        },
        {
          "duration": 0.10737698833333553,
          "durationTicks": 131,
          "midi": 78,
          "name": "F#5",
          "ticks": 62400,
          "time": 51.147512,
          "velocity": 1
        },
        {
          "duration": 0.10737698833333553,
          "durationTicks": 131,
          "midi": 78,
          "name": "F#5",
          "ticks": 62400,
          "time": 51.147512,
          "velocity": 1
        },
        {
          "duration": 0.10737698833333553,
          "durationTicks": 131,
          "midi": 78,
          "name": "F#5",
          "ticks": 62400,
          "time": 51.147512,
          "velocity": 1
        },
        {
          "duration": 0.10737698833333553,
          "durationTicks": 131,
          "midi": 78,
          "name": "F#5",
          "ticks": 62400,
          "time": 51.147512,
          "velocity": 1
        },
        {
          "duration": 0.10737698833333553,
          "durationTicks": 131,
          "midi": 78,
          "name": "F#5",
          "ticks": 62400,
          "time": 51.147512,
          "velocity": 1
        },
        {
          "duration": 0.10737698833333553,
          "durationTicks": 131,
          "midi": 78,
          "name": "F#5",
          "ticks": 62400,
          "time": 51.147512,
          "velocity": 1
        },
        {
          "duration": 0.10737698833333553,
          "durationTicks": 131,
          "midi": 78,
          "name": "F#5",
          "ticks": 62400,
          "time": 51.147512,
          "velocity": 1
        },
        {
          "duration": 0.10737698833333553,
          "durationTicks": 131,
          "midi": 78,
          "name": "F#5",
          "ticks": 62400,
          "time": 51.147512,
          "velocity": 1
        },
        {
          "duration": 0.10737698833333553,
          "durationTicks": 131,
          "midi": 78,
          "name": "F#5",
          "ticks": 62400,
          "time": 51.147512,
          "velocity": 1
        },
        {
          "duration": 0.10737698833333553,
          "durationTicks": 131,
          "midi": 78,
          "name": "F#5",
          "ticks": 62400,
          "time": 51.147512,
          "velocity": 1
        },
        {
          "duration": 0.10737698833333553,
          "durationTicks": 131,
          "midi": 78,
          "name": "F#5",
          "ticks": 62400,
          "time": 51.147512,
          "velocity": 1
        },
        {
          "duration": 0.10737698833333553,
          "durationTicks": 131,
          "midi": 36,
          "name": "C2",
          "ticks": 62400,
          "time": 51.147512,
          "velocity": 0.7874015748031497
        },
        {
          "duration": 0.35327848833333064,
          "durationTicks": 431,
          "midi": 46,
          "name": "A#2",
          "ticks": 62400,
          "time": 51.147512,
          "velocity": 0.7007874015748031
        },
        {
          "duration": 0.10737698833332843,
          "durationTicks": 131,
          "midi": 36,
          "name": "C2",
          "ticks": 62700,
          "time": 51.3934135,
          "velocity": 0.7952755905511811
        },
        {
          "duration": 0.35327848833333775,
          "durationTicks": 431,
          "midi": 46,
          "name": "A#2",
          "ticks": 63000,
          "time": 51.639314999999996,
          "velocity": 0.7007874015748031
        },
        {
          "duration": 0.35327848833333775,
          "durationTicks": 431,
          "midi": 38,
          "name": "D2",
          "ticks": 63000,
          "time": 51.639314999999996,
          "velocity": 0.7952755905511811
        },
        {
          "duration": 0.10737698833333553,
          "durationTicks": 131,
          "midi": 36,
          "name": "C2",
          "ticks": 63300,
          "time": 51.8852165,
          "velocity": 0.7952755905511811
        },
        {
          "duration": 0.10737698833332843,
          "durationTicks": 131,
          "midi": 79,
          "name": "G5",
          "ticks": 63600,
          "time": 52.131118,
          "velocity": 1
        },
        {
          "duration": 0.10737698833332843,
          "durationTicks": 131,
          "midi": 79,
          "name": "G5",
          "ticks": 63600,
          "time": 52.131118,
          "velocity": 1
        },
        {
          "duration": 0.10737698833332843,
          "durationTicks": 131,
          "midi": 79,
          "name": "G5",
          "ticks": 63600,
          "time": 52.131118,
          "velocity": 1
        },
        {
          "duration": 0.10737698833332843,
          "durationTicks": 131,
          "midi": 79,
          "name": "G5",
          "ticks": 63600,
          "time": 52.131118,
          "velocity": 1
        },
        {
          "duration": 0.10737698833332843,
          "durationTicks": 131,
          "midi": 79,
          "name": "G5",
          "ticks": 63600,
          "time": 52.131118,
          "velocity": 1
        },
        {
          "duration": 0.10737698833332843,
          "durationTicks": 131,
          "midi": 79,
          "name": "G5",
          "ticks": 63600,
          "time": 52.131118,
          "velocity": 1
        },
        {
          "duration": 0.10737698833332843,
          "durationTicks": 131,
          "midi": 79,
          "name": "G5",
          "ticks": 63600,
          "time": 52.131118,
          "velocity": 1
        },
        {
          "duration": 0.10737698833332843,
          "durationTicks": 131,
          "midi": 79,
          "name": "G5",
          "ticks": 63600,
          "time": 52.131118,
          "velocity": 1
        },
        {
          "duration": 0.10737698833332843,
          "durationTicks": 131,
          "midi": 79,
          "name": "G5",
          "ticks": 63600,
          "time": 52.131118,
          "velocity": 1
        },
        {
          "duration": 0.10737698833332843,
          "durationTicks": 131,
          "midi": 79,
          "name": "G5",
          "ticks": 63600,
          "time": 52.131118,
          "velocity": 1
        },
        {
          "duration": 0.10737698833332843,
          "durationTicks": 131,
          "midi": 79,
          "name": "G5",
          "ticks": 63600,
          "time": 52.131118,
          "velocity": 1
        },
        {
          "duration": 0.10737698833332843,
          "durationTicks": 131,
          "midi": 79,
          "name": "G5",
          "ticks": 63600,
          "time": 52.131118,
          "velocity": 1
        },
        {
          "duration": 0.10737698833332843,
          "durationTicks": 131,
          "midi": 79,
          "name": "G5",
          "ticks": 63600,
          "time": 52.131118,
          "velocity": 1
        },
        {
          "duration": 0.10737698833332843,
          "durationTicks": 131,
          "midi": 79,
          "name": "G5",
          "ticks": 63600,
          "time": 52.131118,
          "velocity": 1
        },
        {
          "duration": 0.10737698833332843,
          "durationTicks": 131,
          "midi": 79,
          "name": "G5",
          "ticks": 63600,
          "time": 52.131118,
          "velocity": 1
        },
        {
          "duration": 0.10737698833332843,
          "durationTicks": 131,
          "midi": 79,
          "name": "G5",
          "ticks": 63600,
          "time": 52.131118,
          "velocity": 1
        },
        {
          "duration": 0.35327848833333064,
          "durationTicks": 431,
          "midi": 46,
          "name": "A#2",
          "ticks": 63600,
          "time": 52.131118,
          "velocity": 0.7086614173228346
        },
        {
          "duration": 0.10737698833332843,
          "durationTicks": 131,
          "midi": 36,
          "name": "C2",
          "ticks": 63600,
          "time": 52.131118,
          "velocity": 0.8031496062992126
        },
        {
          "duration": 0.10737698833333553,
          "durationTicks": 131,
          "midi": 36,
          "name": "C2",
          "ticks": 63900,
          "time": 52.377019499999996,
          "velocity": 0.8031496062992126
        },
        {
          "duration": 0.35327848833333775,
          "durationTicks": 431,
          "midi": 38,
          "name": "D2",
          "ticks": 64200,
          "time": 52.622921,
          "velocity": 0.8031496062992126
        },
        {
          "duration": 0.35327848833333775,
          "durationTicks": 431,
          "midi": 46,
          "name": "A#2",
          "ticks": 64200,
          "time": 52.622921,
          "velocity": 0.7165354330708661
        },
        {
          "duration": 0.10737698833333553,
          "durationTicks": 131,
          "midi": 36,
          "name": "C2",
          "ticks": 64500,
          "time": 52.8688225,
          "velocity": 0.8031496062992126
        },
        {
          "duration": 0.10737698833333553,
          "durationTicks": 131,
          "midi": 78,
          "name": "F#5",
          "ticks": 64800,
          "time": 53.114723999999995,
          "velocity": 0.984251968503937
        },
        {
          "duration": 0.10737698833333553,
          "durationTicks": 131,
          "midi": 78,
          "name": "F#5",
          "ticks": 64800,
          "time": 53.114723999999995,
          "velocity": 0.984251968503937
        },
        {
          "duration": 0.10737698833333553,
          "durationTicks": 131,
          "midi": 78,
          "name": "F#5",
          "ticks": 64800,
          "time": 53.114723999999995,
          "velocity": 0.984251968503937
        },
        {
          "duration": 0.10737698833333553,
          "durationTicks": 131,
          "midi": 78,
          "name": "F#5",
          "ticks": 64800,
          "time": 53.114723999999995,
          "velocity": 0.984251968503937
        },
        {
          "duration": 0.10737698833333553,
          "durationTicks": 131,
          "midi": 78,
          "name": "F#5",
          "ticks": 64800,
          "time": 53.114723999999995,
          "velocity": 0.984251968503937
        },
        {
          "duration": 0.10737698833333553,
          "durationTicks": 131,
          "midi": 78,
          "name": "F#5",
          "ticks": 64800,
          "time": 53.114723999999995,
          "velocity": 0.984251968503937
        },
        {
          "duration": 0.10737698833333553,
          "durationTicks": 131,
          "midi": 78,
          "name": "F#5",
          "ticks": 64800,
          "time": 53.114723999999995,
          "velocity": 0.984251968503937
        },
        {
          "duration": 0.10737698833333553,
          "durationTicks": 131,
          "midi": 78,
          "name": "F#5",
          "ticks": 64800,
          "time": 53.114723999999995,
          "velocity": 0.984251968503937
        },
        {
          "duration": 0.10737698833333553,
          "durationTicks": 131,
          "midi": 78,
          "name": "F#5",
          "ticks": 64800,
          "time": 53.114723999999995,
          "velocity": 0.984251968503937
        },
        {
          "duration": 0.10737698833333553,
          "durationTicks": 131,
          "midi": 78,
          "name": "F#5",
          "ticks": 64800,
          "time": 53.114723999999995,
          "velocity": 0.984251968503937
        },
        {
          "duration": 0.10737698833333553,
          "durationTicks": 131,
          "midi": 78,
          "name": "F#5",
          "ticks": 64800,
          "time": 53.114723999999995,
          "velocity": 0.984251968503937
        },
        {
          "duration": 0.10737698833333553,
          "durationTicks": 131,
          "midi": 78,
          "name": "F#5",
          "ticks": 64800,
          "time": 53.114723999999995,
          "velocity": 0.984251968503937
        },
        {
          "duration": 0.10737698833333553,
          "durationTicks": 131,
          "midi": 78,
          "name": "F#5",
          "ticks": 64800,
          "time": 53.114723999999995,
          "velocity": 0.984251968503937
        },
        {
          "duration": 0.10737698833333553,
          "durationTicks": 131,
          "midi": 78,
          "name": "F#5",
          "ticks": 64800,
          "time": 53.114723999999995,
          "velocity": 0.984251968503937
        },
        {
          "duration": 0.10737698833333553,
          "durationTicks": 131,
          "midi": 78,
          "name": "F#5",
          "ticks": 64800,
          "time": 53.114723999999995,
          "velocity": 0.984251968503937
        },
        {
          "duration": 0.10737698833333553,
          "durationTicks": 131,
          "midi": 78,
          "name": "F#5",
          "ticks": 64800,
          "time": 53.114723999999995,
          "velocity": 0.984251968503937
        },
        {
          "duration": 0.10737698833333553,
          "durationTicks": 131,
          "midi": 36,
          "name": "C2",
          "ticks": 64800,
          "time": 53.114723999999995,
          "velocity": 0.8110236220472441
        },
        {
          "duration": 0.10737698833333553,
          "durationTicks": 131,
          "midi": 78,
          "name": "F#5",
          "ticks": 64800,
          "time": 53.114723999999995,
          "velocity": 1
        },
        {
          "duration": 0.10737698833333553,
          "durationTicks": 131,
          "midi": 78,
          "name": "F#5",
          "ticks": 64800,
          "time": 53.114723999999995,
          "velocity": 1
        },
        {
          "duration": 0.10737698833333553,
          "durationTicks": 131,
          "midi": 78,
          "name": "F#5",
          "ticks": 64800,
          "time": 53.114723999999995,
          "velocity": 1
        },
        {
          "duration": 0.10737698833333553,
          "durationTicks": 131,
          "midi": 78,
          "name": "F#5",
          "ticks": 64800,
          "time": 53.114723999999995,
          "velocity": 1
        },
        {
          "duration": 0.10737698833333553,
          "durationTicks": 131,
          "midi": 78,
          "name": "F#5",
          "ticks": 64800,
          "time": 53.114723999999995,
          "velocity": 1
        },
        {
          "duration": 0.10737698833333553,
          "durationTicks": 131,
          "midi": 78,
          "name": "F#5",
          "ticks": 64800,
          "time": 53.114723999999995,
          "velocity": 1
        },
        {
          "duration": 0.10737698833333553,
          "durationTicks": 131,
          "midi": 78,
          "name": "F#5",
          "ticks": 64800,
          "time": 53.114723999999995,
          "velocity": 1
        },
        {
          "duration": 0.10737698833333553,
          "durationTicks": 131,
          "midi": 78,
          "name": "F#5",
          "ticks": 64800,
          "time": 53.114723999999995,
          "velocity": 1
        },
        {
          "duration": 0.10737698833333553,
          "durationTicks": 131,
          "midi": 78,
          "name": "F#5",
          "ticks": 64800,
          "time": 53.114723999999995,
          "velocity": 1
        },
        {
          "duration": 0.10737698833333553,
          "durationTicks": 131,
          "midi": 78,
          "name": "F#5",
          "ticks": 64800,
          "time": 53.114723999999995,
          "velocity": 1
        },
        {
          "duration": 0.10737698833333553,
          "durationTicks": 131,
          "midi": 78,
          "name": "F#5",
          "ticks": 64800,
          "time": 53.114723999999995,
          "velocity": 1
        },
        {
          "duration": 0.10737698833333553,
          "durationTicks": 131,
          "midi": 78,
          "name": "F#5",
          "ticks": 64800,
          "time": 53.114723999999995,
          "velocity": 1
        },
        {
          "duration": 0.10737698833333553,
          "durationTicks": 131,
          "midi": 78,
          "name": "F#5",
          "ticks": 64800,
          "time": 53.114723999999995,
          "velocity": 1
        },
        {
          "duration": 0.10737698833333553,
          "durationTicks": 131,
          "midi": 78,
          "name": "F#5",
          "ticks": 64800,
          "time": 53.114723999999995,
          "velocity": 1
        },
        {
          "duration": 0.10737698833333553,
          "durationTicks": 131,
          "midi": 78,
          "name": "F#5",
          "ticks": 64800,
          "time": 53.114723999999995,
          "velocity": 1
        },
        {
          "duration": 0.10737698833333553,
          "durationTicks": 131,
          "midi": 78,
          "name": "F#5",
          "ticks": 64800,
          "time": 53.114723999999995,
          "velocity": 1
        },
        {
          "duration": 0.35327848833333775,
          "durationTicks": 431,
          "midi": 46,
          "name": "A#2",
          "ticks": 64800,
          "time": 53.114723999999995,
          "velocity": 0.7244094488188977
        },
        {
          "duration": 0.10737698833333553,
          "durationTicks": 131,
          "midi": 36,
          "name": "C2",
          "ticks": 65100,
          "time": 53.3606255,
          "velocity": 0.8110236220472441
        },
        {
          "duration": 0.10737698833333553,
          "durationTicks": 131,
          "midi": 79,
          "name": "G5",
          "ticks": 65400,
          "time": 53.606527,
          "velocity": 1
        },
        {
          "duration": 0.10737698833333553,
          "durationTicks": 131,
          "midi": 79,
          "name": "G5",
          "ticks": 65400,
          "time": 53.606527,
          "velocity": 1
        },
        {
          "duration": 0.10737698833333553,
          "durationTicks": 131,
          "midi": 79,
          "name": "G5",
          "ticks": 65400,
          "time": 53.606527,
          "velocity": 1
        },
        {
          "duration": 0.10737698833333553,
          "durationTicks": 131,
          "midi": 79,
          "name": "G5",
          "ticks": 65400,
          "time": 53.606527,
          "velocity": 1
        },
        {
          "duration": 0.10737698833333553,
          "durationTicks": 131,
          "midi": 79,
          "name": "G5",
          "ticks": 65400,
          "time": 53.606527,
          "velocity": 1
        },
        {
          "duration": 0.10737698833333553,
          "durationTicks": 131,
          "midi": 79,
          "name": "G5",
          "ticks": 65400,
          "time": 53.606527,
          "velocity": 1
        },
        {
          "duration": 0.10737698833333553,
          "durationTicks": 131,
          "midi": 79,
          "name": "G5",
          "ticks": 65400,
          "time": 53.606527,
          "velocity": 1
        },
        {
          "duration": 0.10737698833333553,
          "durationTicks": 131,
          "midi": 79,
          "name": "G5",
          "ticks": 65400,
          "time": 53.606527,
          "velocity": 1
        },
        {
          "duration": 0.10737698833333553,
          "durationTicks": 131,
          "midi": 79,
          "name": "G5",
          "ticks": 65400,
          "time": 53.606527,
          "velocity": 1
        },
        {
          "duration": 0.10737698833333553,
          "durationTicks": 131,
          "midi": 79,
          "name": "G5",
          "ticks": 65400,
          "time": 53.606527,
          "velocity": 1
        },
        {
          "duration": 0.10737698833333553,
          "durationTicks": 131,
          "midi": 79,
          "name": "G5",
          "ticks": 65400,
          "time": 53.606527,
          "velocity": 1
        },
        {
          "duration": 0.10737698833333553,
          "durationTicks": 131,
          "midi": 79,
          "name": "G5",
          "ticks": 65400,
          "time": 53.606527,
          "velocity": 1
        },
        {
          "duration": 0.10737698833333553,
          "durationTicks": 131,
          "midi": 79,
          "name": "G5",
          "ticks": 65400,
          "time": 53.606527,
          "velocity": 1
        },
        {
          "duration": 0.10737698833333553,
          "durationTicks": 131,
          "midi": 79,
          "name": "G5",
          "ticks": 65400,
          "time": 53.606527,
          "velocity": 1
        },
        {
          "duration": 0.10737698833333553,
          "durationTicks": 131,
          "midi": 79,
          "name": "G5",
          "ticks": 65400,
          "time": 53.606527,
          "velocity": 1
        },
        {
          "duration": 0.10737698833333553,
          "durationTicks": 131,
          "midi": 79,
          "name": "G5",
          "ticks": 65400,
          "time": 53.606527,
          "velocity": 1
        },
        {
          "duration": 0.10737698833333553,
          "durationTicks": 131,
          "midi": 79,
          "name": "G5",
          "ticks": 65400,
          "time": 53.606527,
          "velocity": 1
        },
        {
          "duration": 0.10737698833333553,
          "durationTicks": 131,
          "midi": 79,
          "name": "G5",
          "ticks": 65400,
          "time": 53.606527,
          "velocity": 1
        },
        {
          "duration": 0.10737698833333553,
          "durationTicks": 131,
          "midi": 79,
          "name": "G5",
          "ticks": 65400,
          "time": 53.606527,
          "velocity": 1
        },
        {
          "duration": 0.10737698833333553,
          "durationTicks": 131,
          "midi": 79,
          "name": "G5",
          "ticks": 65400,
          "time": 53.606527,
          "velocity": 1
        },
        {
          "duration": 0.10737698833333553,
          "durationTicks": 131,
          "midi": 79,
          "name": "G5",
          "ticks": 65400,
          "time": 53.606527,
          "velocity": 1
        },
        {
          "duration": 0.10737698833333553,
          "durationTicks": 131,
          "midi": 79,
          "name": "G5",
          "ticks": 65400,
          "time": 53.606527,
          "velocity": 1
        },
        {
          "duration": 0.10737698833333553,
          "durationTicks": 131,
          "midi": 79,
          "name": "G5",
          "ticks": 65400,
          "time": 53.606527,
          "velocity": 1
        },
        {
          "duration": 0.10737698833333553,
          "durationTicks": 131,
          "midi": 79,
          "name": "G5",
          "ticks": 65400,
          "time": 53.606527,
          "velocity": 1
        },
        {
          "duration": 0.10737698833333553,
          "durationTicks": 131,
          "midi": 79,
          "name": "G5",
          "ticks": 65400,
          "time": 53.606527,
          "velocity": 1
        },
        {
          "duration": 0.10737698833333553,
          "durationTicks": 131,
          "midi": 79,
          "name": "G5",
          "ticks": 65400,
          "time": 53.606527,
          "velocity": 1
        },
        {
          "duration": 0.10737698833333553,
          "durationTicks": 131,
          "midi": 79,
          "name": "G5",
          "ticks": 65400,
          "time": 53.606527,
          "velocity": 1
        },
        {
          "duration": 0.10737698833333553,
          "durationTicks": 131,
          "midi": 79,
          "name": "G5",
          "ticks": 65400,
          "time": 53.606527,
          "velocity": 1
        },
        {
          "duration": 0.10737698833333553,
          "durationTicks": 131,
          "midi": 79,
          "name": "G5",
          "ticks": 65400,
          "time": 53.606527,
          "velocity": 1
        },
        {
          "duration": 0.10737698833333553,
          "durationTicks": 131,
          "midi": 79,
          "name": "G5",
          "ticks": 65400,
          "time": 53.606527,
          "velocity": 1
        },
        {
          "duration": 0.10737698833333553,
          "durationTicks": 131,
          "midi": 79,
          "name": "G5",
          "ticks": 65400,
          "time": 53.606527,
          "velocity": 1
        },
        {
          "duration": 0.10737698833333553,
          "durationTicks": 131,
          "midi": 79,
          "name": "G5",
          "ticks": 65400,
          "time": 53.606527,
          "velocity": 1
        },
        {
          "duration": 0.35327848833333064,
          "durationTicks": 431,
          "midi": 38,
          "name": "D2",
          "ticks": 65400,
          "time": 53.606527,
          "velocity": 0.8110236220472441
        },
        {
          "duration": 0.35327848833333064,
          "durationTicks": 431,
          "midi": 46,
          "name": "A#2",
          "ticks": 65400,
          "time": 53.606527,
          "velocity": 0.7322834645669292
        },
        {
          "duration": 0.10737698833332843,
          "durationTicks": 131,
          "midi": 36,
          "name": "C2",
          "ticks": 65700,
          "time": 53.8524285,
          "velocity": 0.8188976377952756
        },
        {
          "duration": 0.10737698833333553,
          "durationTicks": 131,
          "midi": 78,
          "name": "F#5",
          "ticks": 66000,
          "time": 54.09833,
          "velocity": 1
        },
        {
          "duration": 0.10737698833333553,
          "durationTicks": 131,
          "midi": 78,
          "name": "F#5",
          "ticks": 66000,
          "time": 54.09833,
          "velocity": 1
        },
        {
          "duration": 0.10737698833333553,
          "durationTicks": 131,
          "midi": 78,
          "name": "F#5",
          "ticks": 66000,
          "time": 54.09833,
          "velocity": 1
        },
        {
          "duration": 0.10737698833333553,
          "durationTicks": 131,
          "midi": 78,
          "name": "F#5",
          "ticks": 66000,
          "time": 54.09833,
          "velocity": 1
        },
        {
          "duration": 0.10737698833333553,
          "durationTicks": 131,
          "midi": 78,
          "name": "F#5",
          "ticks": 66000,
          "time": 54.09833,
          "velocity": 1
        },
        {
          "duration": 0.10737698833333553,
          "durationTicks": 131,
          "midi": 78,
          "name": "F#5",
          "ticks": 66000,
          "time": 54.09833,
          "velocity": 1
        },
        {
          "duration": 0.10737698833333553,
          "durationTicks": 131,
          "midi": 78,
          "name": "F#5",
          "ticks": 66000,
          "time": 54.09833,
          "velocity": 1
        },
        {
          "duration": 0.10737698833333553,
          "durationTicks": 131,
          "midi": 78,
          "name": "F#5",
          "ticks": 66000,
          "time": 54.09833,
          "velocity": 1
        },
        {
          "duration": 0.10737698833333553,
          "durationTicks": 131,
          "midi": 78,
          "name": "F#5",
          "ticks": 66000,
          "time": 54.09833,
          "velocity": 1
        },
        {
          "duration": 0.10737698833333553,
          "durationTicks": 131,
          "midi": 78,
          "name": "F#5",
          "ticks": 66000,
          "time": 54.09833,
          "velocity": 1
        },
        {
          "duration": 0.10737698833333553,
          "durationTicks": 131,
          "midi": 78,
          "name": "F#5",
          "ticks": 66000,
          "time": 54.09833,
          "velocity": 1
        },
        {
          "duration": 0.10737698833333553,
          "durationTicks": 131,
          "midi": 78,
          "name": "F#5",
          "ticks": 66000,
          "time": 54.09833,
          "velocity": 1
        },
        {
          "duration": 0.10737698833333553,
          "durationTicks": 131,
          "midi": 78,
          "name": "F#5",
          "ticks": 66000,
          "time": 54.09833,
          "velocity": 1
        },
        {
          "duration": 0.10737698833333553,
          "durationTicks": 131,
          "midi": 78,
          "name": "F#5",
          "ticks": 66000,
          "time": 54.09833,
          "velocity": 1
        },
        {
          "duration": 0.10737698833333553,
          "durationTicks": 131,
          "midi": 78,
          "name": "F#5",
          "ticks": 66000,
          "time": 54.09833,
          "velocity": 1
        },
        {
          "duration": 0.10737698833333553,
          "durationTicks": 131,
          "midi": 78,
          "name": "F#5",
          "ticks": 66000,
          "time": 54.09833,
          "velocity": 1
        },
        {
          "duration": 0.10737698833333553,
          "durationTicks": 131,
          "midi": 36,
          "name": "C2",
          "ticks": 66000,
          "time": 54.09833,
          "velocity": 0.8188976377952756
        },
        {
          "duration": 0.10737698833333553,
          "durationTicks": 131,
          "midi": 78,
          "name": "F#5",
          "ticks": 66000,
          "time": 54.09833,
          "velocity": 1
        },
        {
          "duration": 0.10737698833333553,
          "durationTicks": 131,
          "midi": 78,
          "name": "F#5",
          "ticks": 66000,
          "time": 54.09833,
          "velocity": 1
        },
        {
          "duration": 0.10737698833333553,
          "durationTicks": 131,
          "midi": 78,
          "name": "F#5",
          "ticks": 66000,
          "time": 54.09833,
          "velocity": 1
        },
        {
          "duration": 0.10737698833333553,
          "durationTicks": 131,
          "midi": 78,
          "name": "F#5",
          "ticks": 66000,
          "time": 54.09833,
          "velocity": 1
        },
        {
          "duration": 0.10737698833333553,
          "durationTicks": 131,
          "midi": 78,
          "name": "F#5",
          "ticks": 66000,
          "time": 54.09833,
          "velocity": 1
        },
        {
          "duration": 0.10737698833333553,
          "durationTicks": 131,
          "midi": 78,
          "name": "F#5",
          "ticks": 66000,
          "time": 54.09833,
          "velocity": 1
        },
        {
          "duration": 0.10737698833333553,
          "durationTicks": 131,
          "midi": 78,
          "name": "F#5",
          "ticks": 66000,
          "time": 54.09833,
          "velocity": 1
        },
        {
          "duration": 0.10737698833333553,
          "durationTicks": 131,
          "midi": 78,
          "name": "F#5",
          "ticks": 66000,
          "time": 54.09833,
          "velocity": 1
        },
        {
          "duration": 0.10737698833333553,
          "durationTicks": 131,
          "midi": 78,
          "name": "F#5",
          "ticks": 66000,
          "time": 54.09833,
          "velocity": 1
        },
        {
          "duration": 0.10737698833333553,
          "durationTicks": 131,
          "midi": 78,
          "name": "F#5",
          "ticks": 66000,
          "time": 54.09833,
          "velocity": 1
        },
        {
          "duration": 0.10737698833333553,
          "durationTicks": 131,
          "midi": 78,
          "name": "F#5",
          "ticks": 66000,
          "time": 54.09833,
          "velocity": 1
        },
        {
          "duration": 0.10737698833333553,
          "durationTicks": 131,
          "midi": 78,
          "name": "F#5",
          "ticks": 66000,
          "time": 54.09833,
          "velocity": 1
        },
        {
          "duration": 0.10737698833333553,
          "durationTicks": 131,
          "midi": 78,
          "name": "F#5",
          "ticks": 66000,
          "time": 54.09833,
          "velocity": 1
        },
        {
          "duration": 0.10737698833333553,
          "durationTicks": 131,
          "midi": 78,
          "name": "F#5",
          "ticks": 66000,
          "time": 54.09833,
          "velocity": 1
        },
        {
          "duration": 0.10737698833333553,
          "durationTicks": 131,
          "midi": 78,
          "name": "F#5",
          "ticks": 66000,
          "time": 54.09833,
          "velocity": 1
        },
        {
          "duration": 0.10737698833333553,
          "durationTicks": 131,
          "midi": 78,
          "name": "F#5",
          "ticks": 66000,
          "time": 54.09833,
          "velocity": 1
        },
        {
          "duration": 0.35327848833333775,
          "durationTicks": 431,
          "midi": 46,
          "name": "A#2",
          "ticks": 66000,
          "time": 54.09833,
          "velocity": 0.7322834645669292
        },
        {
          "duration": 0.10737698833333553,
          "durationTicks": 131,
          "midi": 36,
          "name": "C2",
          "ticks": 66300,
          "time": 54.3442315,
          "velocity": 0.8188976377952756
        },
        {
          "duration": 0.10737698833332843,
          "durationTicks": 131,
          "midi": 79,
          "name": "G5",
          "ticks": 66600,
          "time": 54.590133,
          "velocity": 1
        },
        {
          "duration": 0.10737698833332843,
          "durationTicks": 131,
          "midi": 79,
          "name": "G5",
          "ticks": 66600,
          "time": 54.590133,
          "velocity": 1
        },
        {
          "duration": 0.10737698833332843,
          "durationTicks": 131,
          "midi": 79,
          "name": "G5",
          "ticks": 66600,
          "time": 54.590133,
          "velocity": 1
        },
        {
          "duration": 0.10737698833332843,
          "durationTicks": 131,
          "midi": 79,
          "name": "G5",
          "ticks": 66600,
          "time": 54.590133,
          "velocity": 1
        },
        {
          "duration": 0.10737698833332843,
          "durationTicks": 131,
          "midi": 79,
          "name": "G5",
          "ticks": 66600,
          "time": 54.590133,
          "velocity": 1
        },
        {
          "duration": 0.10737698833332843,
          "durationTicks": 131,
          "midi": 79,
          "name": "G5",
          "ticks": 66600,
          "time": 54.590133,
          "velocity": 1
        },
        {
          "duration": 0.10737698833332843,
          "durationTicks": 131,
          "midi": 79,
          "name": "G5",
          "ticks": 66600,
          "time": 54.590133,
          "velocity": 1
        },
        {
          "duration": 0.10737698833332843,
          "durationTicks": 131,
          "midi": 79,
          "name": "G5",
          "ticks": 66600,
          "time": 54.590133,
          "velocity": 1
        },
        {
          "duration": 0.10737698833332843,
          "durationTicks": 131,
          "midi": 79,
          "name": "G5",
          "ticks": 66600,
          "time": 54.590133,
          "velocity": 1
        },
        {
          "duration": 0.10737698833332843,
          "durationTicks": 131,
          "midi": 79,
          "name": "G5",
          "ticks": 66600,
          "time": 54.590133,
          "velocity": 1
        },
        {
          "duration": 0.10737698833332843,
          "durationTicks": 131,
          "midi": 79,
          "name": "G5",
          "ticks": 66600,
          "time": 54.590133,
          "velocity": 1
        },
        {
          "duration": 0.10737698833332843,
          "durationTicks": 131,
          "midi": 79,
          "name": "G5",
          "ticks": 66600,
          "time": 54.590133,
          "velocity": 1
        },
        {
          "duration": 0.10737698833332843,
          "durationTicks": 131,
          "midi": 79,
          "name": "G5",
          "ticks": 66600,
          "time": 54.590133,
          "velocity": 1
        },
        {
          "duration": 0.10737698833332843,
          "durationTicks": 131,
          "midi": 79,
          "name": "G5",
          "ticks": 66600,
          "time": 54.590133,
          "velocity": 1
        },
        {
          "duration": 0.10737698833332843,
          "durationTicks": 131,
          "midi": 79,
          "name": "G5",
          "ticks": 66600,
          "time": 54.590133,
          "velocity": 1
        },
        {
          "duration": 0.10737698833332843,
          "durationTicks": 131,
          "midi": 79,
          "name": "G5",
          "ticks": 66600,
          "time": 54.590133,
          "velocity": 1
        },
        {
          "duration": 0.10737698833332843,
          "durationTicks": 131,
          "midi": 79,
          "name": "G5",
          "ticks": 66600,
          "time": 54.590133,
          "velocity": 1
        },
        {
          "duration": 0.10737698833332843,
          "durationTicks": 131,
          "midi": 79,
          "name": "G5",
          "ticks": 66600,
          "time": 54.590133,
          "velocity": 1
        },
        {
          "duration": 0.10737698833332843,
          "durationTicks": 131,
          "midi": 79,
          "name": "G5",
          "ticks": 66600,
          "time": 54.590133,
          "velocity": 1
        },
        {
          "duration": 0.10737698833332843,
          "durationTicks": 131,
          "midi": 79,
          "name": "G5",
          "ticks": 66600,
          "time": 54.590133,
          "velocity": 1
        },
        {
          "duration": 0.10737698833332843,
          "durationTicks": 131,
          "midi": 79,
          "name": "G5",
          "ticks": 66600,
          "time": 54.590133,
          "velocity": 1
        },
        {
          "duration": 0.10737698833332843,
          "durationTicks": 131,
          "midi": 79,
          "name": "G5",
          "ticks": 66600,
          "time": 54.590133,
          "velocity": 1
        },
        {
          "duration": 0.10737698833332843,
          "durationTicks": 131,
          "midi": 79,
          "name": "G5",
          "ticks": 66600,
          "time": 54.590133,
          "velocity": 1
        },
        {
          "duration": 0.10737698833332843,
          "durationTicks": 131,
          "midi": 79,
          "name": "G5",
          "ticks": 66600,
          "time": 54.590133,
          "velocity": 1
        },
        {
          "duration": 0.10737698833332843,
          "durationTicks": 131,
          "midi": 79,
          "name": "G5",
          "ticks": 66600,
          "time": 54.590133,
          "velocity": 1
        },
        {
          "duration": 0.10737698833332843,
          "durationTicks": 131,
          "midi": 79,
          "name": "G5",
          "ticks": 66600,
          "time": 54.590133,
          "velocity": 1
        },
        {
          "duration": 0.10737698833332843,
          "durationTicks": 131,
          "midi": 79,
          "name": "G5",
          "ticks": 66600,
          "time": 54.590133,
          "velocity": 1
        },
        {
          "duration": 0.10737698833332843,
          "durationTicks": 131,
          "midi": 79,
          "name": "G5",
          "ticks": 66600,
          "time": 54.590133,
          "velocity": 1
        },
        {
          "duration": 0.10737698833332843,
          "durationTicks": 131,
          "midi": 79,
          "name": "G5",
          "ticks": 66600,
          "time": 54.590133,
          "velocity": 1
        },
        {
          "duration": 0.10737698833332843,
          "durationTicks": 131,
          "midi": 79,
          "name": "G5",
          "ticks": 66600,
          "time": 54.590133,
          "velocity": 1
        },
        {
          "duration": 0.10737698833332843,
          "durationTicks": 131,
          "midi": 79,
          "name": "G5",
          "ticks": 66600,
          "time": 54.590133,
          "velocity": 1
        },
        {
          "duration": 0.10737698833332843,
          "durationTicks": 131,
          "midi": 79,
          "name": "G5",
          "ticks": 66600,
          "time": 54.590133,
          "velocity": 1
        },
        {
          "duration": 0.35327848833333064,
          "durationTicks": 431,
          "midi": 38,
          "name": "D2",
          "ticks": 66600,
          "time": 54.590133,
          "velocity": 0.8267716535433071
        },
        {
          "duration": 0.35327848833333064,
          "durationTicks": 431,
          "midi": 46,
          "name": "A#2",
          "ticks": 66600,
          "time": 54.590133,
          "velocity": 0.7401574803149606
        },
        {
          "duration": 0.10737698833333553,
          "durationTicks": 131,
          "midi": 36,
          "name": "C2",
          "ticks": 66900,
          "time": 54.8360345,
          "velocity": 0.8267716535433071
        },
        {
          "duration": 0.47622923833333175,
          "durationTicks": 581,
          "midi": 53,
          "name": "F3",
          "ticks": 67200,
          "time": 55.081936,
          "velocity": 0.7244094488188977
        },
        {
          "duration": 1.9516382383333308,
          "durationTicks": 2381,
          "midi": 52,
          "name": "E3",
          "ticks": 67200,
          "time": 55.081936,
          "velocity": 0.7244094488188977
        },
        {
          "duration": 0.10737698833333553,
          "durationTicks": 131,
          "midi": 36,
          "name": "C2",
          "ticks": 67200,
          "time": 55.081936,
          "velocity": 0.7244094488188977
        },
        {
          "duration": 0.10737698833333553,
          "durationTicks": 131,
          "midi": 36,
          "name": "C2",
          "ticks": 67350,
          "time": 55.20488675,
          "velocity": 0.7244094488188977
        },
        {
          "duration": 0.47622923833333175,
          "durationTicks": 581,
          "midi": 38,
          "name": "D2",
          "ticks": 67500,
          "time": 55.3278375,
          "velocity": 0.7244094488188977
        },
        {
          "duration": 0.47622923833333175,
          "durationTicks": 581,
          "midi": 46,
          "name": "A#2",
          "ticks": 67500,
          "time": 55.3278375,
          "velocity": 0.7244094488188977
        },
        {
          "duration": 0.10737698833332843,
          "durationTicks": 131,
          "midi": 36,
          "name": "C2",
          "ticks": 67650,
          "time": 55.45078825,
          "velocity": 0.7244094488188977
        },
        {
          "duration": 0.47622923833333886,
          "durationTicks": 581,
          "midi": 53,
          "name": "F3",
          "ticks": 67800,
          "time": 55.573738999999996,
          "velocity": 0.7244094488188977
        },
        {
          "duration": 0.10737698833333553,
          "durationTicks": 131,
          "midi": 36,
          "name": "C2",
          "ticks": 67800,
          "time": 55.573738999999996,
          "velocity": 0.7244094488188977
        },
        {
          "duration": 0.10737698833333553,
          "durationTicks": 131,
          "midi": 36,
          "name": "C2",
          "ticks": 67950,
          "time": 55.69668975,
          "velocity": 0.7244094488188977
        },
        {
          "duration": 0.47622923833333175,
          "durationTicks": 581,
          "midi": 38,
          "name": "D2",
          "ticks": 68100,
          "time": 55.8196405,
          "velocity": 0.7244094488188977
        },
        {
          "duration": 0.47622923833333175,
          "durationTicks": 581,
          "midi": 46,
          "name": "A#2",
          "ticks": 68100,
          "time": 55.8196405,
          "velocity": 0.7244094488188977
        },
        {
          "duration": 0.10737698833333553,
          "durationTicks": 131,
          "midi": 36,
          "name": "C2",
          "ticks": 68250,
          "time": 55.94259125,
          "velocity": 0.7244094488188977
        },
        {
          "duration": 0.47622923833333175,
          "durationTicks": 581,
          "midi": 53,
          "name": "F3",
          "ticks": 68400,
          "time": 56.065542,
          "velocity": 0.7244094488188977
        },
        {
          "duration": 0.10737698833332843,
          "durationTicks": 131,
          "midi": 36,
          "name": "C2",
          "ticks": 68400,
          "time": 56.065542,
          "velocity": 0.7244094488188977
        },
        {
          "duration": 0.10737698833332843,
          "durationTicks": 131,
          "midi": 36,
          "name": "C2",
          "ticks": 68550,
          "time": 56.18849275,
          "velocity": 0.7322834645669292
        },
        {
          "duration": 0.47622923833333886,
          "durationTicks": 581,
          "midi": 38,
          "name": "D2",
          "ticks": 68700,
          "time": 56.311443499999996,
          "velocity": 0.7322834645669292
        },
        {
          "duration": 0.47622923833333886,
          "durationTicks": 581,
          "midi": 46,
          "name": "A#2",
          "ticks": 68700,
          "time": 56.311443499999996,
          "velocity": 0.7322834645669292
        },
        {
          "duration": 0.10737698833333553,
          "durationTicks": 131,
          "midi": 36,
          "name": "C2",
          "ticks": 68850,
          "time": 56.43439425,
          "velocity": 0.7322834645669292
        },
        {
          "duration": 0.47622923833333175,
          "durationTicks": 581,
          "midi": 53,
          "name": "F3",
          "ticks": 69000,
          "time": 56.557345,
          "velocity": 0.7322834645669292
        },
        {
          "duration": 0.10737698833333553,
          "durationTicks": 131,
          "midi": 36,
          "name": "C2",
          "ticks": 69000,
          "time": 56.557345,
          "velocity": 0.7322834645669292
        },
        {
          "duration": 0.10737698833333553,
          "durationTicks": 131,
          "midi": 36,
          "name": "C2",
          "ticks": 69150,
          "time": 56.68029575,
          "velocity": 0.7322834645669292
        },
        {
          "duration": 0.47622923833333175,
          "durationTicks": 581,
          "midi": 38,
          "name": "D2",
          "ticks": 69300,
          "time": 56.8032465,
          "velocity": 0.7322834645669292
        },
        {
          "duration": 0.47622923833333175,
          "durationTicks": 581,
          "midi": 46,
          "name": "A#2",
          "ticks": 69300,
          "time": 56.8032465,
          "velocity": 0.7322834645669292
        },
        {
          "duration": 0.10737698833332843,
          "durationTicks": 131,
          "midi": 36,
          "name": "C2",
          "ticks": 69450,
          "time": 56.92619725,
          "velocity": 0.7322834645669292
        },
        {
          "duration": 0.47622923833333175,
          "durationTicks": 581,
          "midi": 53,
          "name": "F3",
          "ticks": 69600,
          "time": 57.049148,
          "velocity": 0.7322834645669292
        },
        {
          "duration": 1.4598352383333264,
          "durationTicks": 1781,
          "midi": 52,
          "name": "E3",
          "ticks": 69600,
          "time": 57.049148,
          "velocity": 0.7322834645669292
        },
        {
          "duration": 0.10737698833332843,
          "durationTicks": 131,
          "midi": 36,
          "name": "C2",
          "ticks": 69600,
          "time": 57.049148,
          "velocity": 0.7322834645669292
        },
        {
          "duration": 0.10737698833333553,
          "durationTicks": 131,
          "midi": 36,
          "name": "C2",
          "ticks": 69750,
          "time": 57.172098749999996,
          "velocity": 0.7322834645669292
        },
        {
          "duration": 0.47622923833333175,
          "durationTicks": 581,
          "midi": 38,
          "name": "D2",
          "ticks": 69900,
          "time": 57.2950495,
          "velocity": 0.7322834645669292
        },
        {
          "duration": 0.47622923833333175,
          "durationTicks": 581,
          "midi": 46,
          "name": "A#2",
          "ticks": 69900,
          "time": 57.2950495,
          "velocity": 0.7322834645669292
        },
        {
          "duration": 0.10737698833333553,
          "durationTicks": 131,
          "midi": 36,
          "name": "C2",
          "ticks": 70050,
          "time": 57.41800025,
          "velocity": 0.7322834645669292
        },
        {
          "duration": 0.47622923833333175,
          "durationTicks": 581,
          "midi": 53,
          "name": "F3",
          "ticks": 70200,
          "time": 57.540951,
          "velocity": 0.7322834645669292
        },
        {
          "duration": 0.10737698833333553,
          "durationTicks": 131,
          "midi": 36,
          "name": "C2",
          "ticks": 70200,
          "time": 57.540951,
          "velocity": 0.7322834645669292
        },
        {
          "duration": 0.10737698833332843,
          "durationTicks": 131,
          "midi": 36,
          "name": "C2",
          "ticks": 70350,
          "time": 57.66390175,
          "velocity": 0.7322834645669292
        },
        {
          "duration": 0.47622923833333175,
          "durationTicks": 581,
          "midi": 38,
          "name": "D2",
          "ticks": 70500,
          "time": 57.7868525,
          "velocity": 0.7322834645669292
        },
        {
          "duration": 0.47622923833333175,
          "durationTicks": 581,
          "midi": 46,
          "name": "A#2",
          "ticks": 70500,
          "time": 57.7868525,
          "velocity": 0.7322834645669292
        },
        {
          "duration": 0.10737698833333553,
          "durationTicks": 131,
          "midi": 36,
          "name": "C2",
          "ticks": 70650,
          "time": 57.909803249999996,
          "velocity": 0.7322834645669292
        },
        {
          "duration": 0.47622923833333175,
          "durationTicks": 581,
          "midi": 53,
          "name": "F3",
          "ticks": 70800,
          "time": 58.032754,
          "velocity": 0.7322834645669292
        },
        {
          "duration": 0.10737698833333553,
          "durationTicks": 131,
          "midi": 36,
          "name": "C2",
          "ticks": 70800,
          "time": 58.032754,
          "velocity": 0.7322834645669292
        },
        {
          "duration": 0.10737698833333553,
          "durationTicks": 131,
          "midi": 36,
          "name": "C2",
          "ticks": 70950,
          "time": 58.15570475,
          "velocity": 0.7322834645669292
        },
        {
          "duration": 0.47622923833333175,
          "durationTicks": 581,
          "midi": 38,
          "name": "D2",
          "ticks": 71100,
          "time": 58.2786555,
          "velocity": 0.7322834645669292
        },
        {
          "duration": 0.47622923833333175,
          "durationTicks": 581,
          "midi": 46,
          "name": "A#2",
          "ticks": 71100,
          "time": 58.2786555,
          "velocity": 0.7322834645669292
        },
        {
          "duration": 0.10737698833332843,
          "durationTicks": 131,
          "midi": 36,
          "name": "C2",
          "ticks": 71250,
          "time": 58.40160625,
          "velocity": 0.7322834645669292
        },
        {
          "duration": 0.47622923833333175,
          "durationTicks": 581,
          "midi": 53,
          "name": "F3",
          "ticks": 71400,
          "time": 58.524557,
          "velocity": 0.7401574803149606
        },
        {
          "duration": 0.47622923833333175,
          "durationTicks": 581,
          "midi": 52,
          "name": "E3",
          "ticks": 71400,
          "time": 58.524557,
          "velocity": 0.7401574803149606
        },
        {
          "duration": 0.10737698833332843,
          "durationTicks": 131,
          "midi": 36,
          "name": "C2",
          "ticks": 71400,
          "time": 58.524557,
          "velocity": 0.7401574803149606
        },
        {
          "duration": 0.10737698833333553,
          "durationTicks": 131,
          "midi": 36,
          "name": "C2",
          "ticks": 71550,
          "time": 58.647507749999995,
          "velocity": 0.7401574803149606
        },
        {
          "duration": 0.47622923833333886,
          "durationTicks": 581,
          "midi": 38,
          "name": "D2",
          "ticks": 71700,
          "time": 58.7704585,
          "velocity": 0.7401574803149606
        },
        {
          "duration": 0.47622923833333886,
          "durationTicks": 581,
          "midi": 46,
          "name": "A#2",
          "ticks": 71700,
          "time": 58.7704585,
          "velocity": 0.7401574803149606
        },
        {
          "duration": 0.10737698833333553,
          "durationTicks": 131,
          "midi": 36,
          "name": "C2",
          "ticks": 71850,
          "time": 58.89340925,
          "velocity": 0.7401574803149606
        },
        {
          "duration": 0.47622923833333175,
          "durationTicks": 581,
          "midi": 53,
          "name": "F3",
          "ticks": 72000,
          "time": 59.01636,
          "velocity": 0.7401574803149606
        },
        {
          "duration": 1.9516382383333308,
          "durationTicks": 2381,
          "midi": 52,
          "name": "E3",
          "ticks": 72000,
          "time": 59.01636,
          "velocity": 0.7401574803149606
        },
        {
          "duration": 0.10737698833333553,
          "durationTicks": 131,
          "midi": 36,
          "name": "C2",
          "ticks": 72000,
          "time": 59.01636,
          "velocity": 0.7401574803149606
        },
        {
          "duration": 0.10737698833333553,
          "durationTicks": 131,
          "midi": 36,
          "name": "C2",
          "ticks": 72150,
          "time": 59.13931075,
          "velocity": 0.7401574803149606
        },
        {
          "duration": 0.47622923833333175,
          "durationTicks": 581,
          "midi": 38,
          "name": "D2",
          "ticks": 72300,
          "time": 59.2622615,
          "velocity": 0.7401574803149606
        },
        {
          "duration": 0.47622923833333175,
          "durationTicks": 581,
          "midi": 46,
          "name": "A#2",
          "ticks": 72300,
          "time": 59.2622615,
          "velocity": 0.7401574803149606
        },
        {
          "duration": 0.10737698833332843,
          "durationTicks": 131,
          "midi": 36,
          "name": "C2",
          "ticks": 72450,
          "time": 59.38521225,
          "velocity": 0.7401574803149606
        },
        {
          "duration": 0.47622923833333886,
          "durationTicks": 581,
          "midi": 53,
          "name": "F3",
          "ticks": 72600,
          "time": 59.508162999999996,
          "velocity": 0.7401574803149606
        },
        {
          "duration": 0.10737698833333553,
          "durationTicks": 131,
          "midi": 36,
          "name": "C2",
          "ticks": 72600,
          "time": 59.508162999999996,
          "velocity": 0.7401574803149606
        },
        {
          "duration": 0.10737698833333553,
          "durationTicks": 131,
          "midi": 36,
          "name": "C2",
          "ticks": 72750,
          "time": 59.63111375,
          "velocity": 0.7401574803149606
        },
        {
          "duration": 0.47622923833333175,
          "durationTicks": 581,
          "midi": 38,
          "name": "D2",
          "ticks": 72900,
          "time": 59.7540645,
          "velocity": 0.7401574803149606
        },
        {
          "duration": 0.47622923833333175,
          "durationTicks": 581,
          "midi": 46,
          "name": "A#2",
          "ticks": 72900,
          "time": 59.7540645,
          "velocity": 0.7401574803149606
        },
        {
          "duration": 0.10737698833333553,
          "durationTicks": 131,
          "midi": 36,
          "name": "C2",
          "ticks": 73050,
          "time": 59.87701525,
          "velocity": 0.7401574803149606
        },
        {
          "duration": 0.47622923833333175,
          "durationTicks": 581,
          "midi": 53,
          "name": "F3",
          "ticks": 73200,
          "time": 59.999966,
          "velocity": 0.7401574803149606
        },
        {
          "duration": 0.10737698833332843,
          "durationTicks": 131,
          "midi": 36,
          "name": "C2",
          "ticks": 73200,
          "time": 59.999966,
          "velocity": 0.7401574803149606
        },
        {
          "duration": 0.10737698833332843,
          "durationTicks": 131,
          "midi": 36,
          "name": "C2",
          "ticks": 73350,
          "time": 60.12291675,
          "velocity": 0.7401574803149606
        },
        {
          "duration": 0.47622923833333886,
          "durationTicks": 581,
          "midi": 38,
          "name": "D2",
          "ticks": 73500,
          "time": 60.245867499999996,
          "velocity": 0.7401574803149606
        },
        {
          "duration": 0.47622923833333886,
          "durationTicks": 581,
          "midi": 46,
          "name": "A#2",
          "ticks": 73500,
          "time": 60.245867499999996,
          "velocity": 0.7401574803149606
        },
        {
          "duration": 0.10737698833333553,
          "durationTicks": 131,
          "midi": 36,
          "name": "C2",
          "ticks": 73650,
          "time": 60.36881825,
          "velocity": 0.7401574803149606
        },
        {
          "duration": 0.47622923833333175,
          "durationTicks": 581,
          "midi": 53,
          "name": "F3",
          "ticks": 73800,
          "time": 60.491769,
          "velocity": 0.7401574803149606
        },
        {
          "duration": 0.10737698833333553,
          "durationTicks": 131,
          "midi": 36,
          "name": "C2",
          "ticks": 73800,
          "time": 60.491769,
          "velocity": 0.7401574803149606
        },
        {
          "duration": 0.10737698833333553,
          "durationTicks": 131,
          "midi": 36,
          "name": "C2",
          "ticks": 73950,
          "time": 60.61471975,
          "velocity": 0.7401574803149606
        },
        {
          "duration": 0.47622923833333175,
          "durationTicks": 581,
          "midi": 38,
          "name": "D2",
          "ticks": 74100,
          "time": 60.7376705,
          "velocity": 0.7401574803149606
        },
        {
          "duration": 0.47622923833333175,
          "durationTicks": 581,
          "midi": 46,
          "name": "A#2",
          "ticks": 74100,
          "time": 60.7376705,
          "velocity": 0.7401574803149606
        },
        {
          "duration": 0.10737698833332843,
          "durationTicks": 131,
          "midi": 36,
          "name": "C2",
          "ticks": 74250,
          "time": 60.86062125,
          "velocity": 0.7480314960629921
        },
        {
          "duration": 0.47622923833333886,
          "durationTicks": 581,
          "midi": 53,
          "name": "F3",
          "ticks": 74400,
          "time": 60.983571999999995,
          "velocity": 0.7480314960629921
        },
        {
          "duration": 0.9680322383333362,
          "durationTicks": 1181,
          "midi": 52,
          "name": "E3",
          "ticks": 74400,
          "time": 60.983571999999995,
          "velocity": 0.7480314960629921
        },
        {
          "duration": 0.10737698833333553,
          "durationTicks": 131,
          "midi": 36,
          "name": "C2",
          "ticks": 74400,
          "time": 60.983571999999995,
          "velocity": 0.7480314960629921
        },
        {
          "duration": 0.10737698833333553,
          "durationTicks": 131,
          "midi": 36,
          "name": "C2",
          "ticks": 74550,
          "time": 61.106522749999996,
          "velocity": 0.7480314960629921
        },
        {
          "duration": 0.47622923833333175,
          "durationTicks": 581,
          "midi": 38,
          "name": "D2",
          "ticks": 74700,
          "time": 61.2294735,
          "velocity": 0.7480314960629921
        },
        {
          "duration": 0.47622923833333175,
          "durationTicks": 581,
          "midi": 46,
          "name": "A#2",
          "ticks": 74700,
          "time": 61.2294735,
          "velocity": 0.7480314960629921
        },
        {
          "duration": 0.10737698833333553,
          "durationTicks": 131,
          "midi": 36,
          "name": "C2",
          "ticks": 74850,
          "time": 61.35242425,
          "velocity": 0.7480314960629921
        },
        {
          "duration": 0.23032773833332953,
          "durationTicks": 281,
          "midi": 53,
          "name": "F3",
          "ticks": 75000,
          "time": 61.475375,
          "velocity": 0.7480314960629921
        },
        {
          "duration": 0.10737698833333553,
          "durationTicks": 131,
          "midi": 36,
          "name": "C2",
          "ticks": 75000,
          "time": 61.475375,
          "velocity": 0.7480314960629921
        },
        {
          "duration": 0.10737698833332843,
          "durationTicks": 131,
          "midi": 36,
          "name": "C2",
          "ticks": 75150,
          "time": 61.59832575,
          "velocity": 0.7480314960629921
        },
        {
          "duration": 0.23032773833332953,
          "durationTicks": 281,
          "midi": 53,
          "name": "F3",
          "ticks": 75300,
          "time": 61.7212765,
          "velocity": 0.7480314960629921
        },
        {
          "duration": 0.23032773833332953,
          "durationTicks": 281,
          "midi": 38,
          "name": "D2",
          "ticks": 75300,
          "time": 61.7212765,
          "velocity": 0.7480314960629921
        },
        {
          "duration": 0.23032773833332953,
          "durationTicks": 281,
          "midi": 46,
          "name": "A#2",
          "ticks": 75300,
          "time": 61.7212765,
          "velocity": 0.7480314960629921
        },
        {
          "duration": 0.10737698833333553,
          "durationTicks": 131,
          "midi": 36,
          "name": "C2",
          "ticks": 75450,
          "time": 61.844227249999996,
          "velocity": 0.7480314960629921
        },
        {
          "duration": 0.10737698833333553,
          "durationTicks": 131,
          "midi": 53,
          "name": "F3",
          "ticks": 75600,
          "time": 61.967178,
          "velocity": 0.7480314960629921
        },
        {
          "duration": 0.35327848833333775,
          "durationTicks": 431,
          "midi": 52,
          "name": "E3",
          "ticks": 75600,
          "time": 61.967178,
          "velocity": 0.7480314960629921
        },
        {
          "duration": 0.23032773833333664,
          "durationTicks": 281,
          "midi": 38,
          "name": "D2",
          "ticks": 75600,
          "time": 61.967178,
          "velocity": 0.7480314960629921
        },
        {
          "duration": 0.23032773833333664,
          "durationTicks": 281,
          "midi": 46,
          "name": "A#2",
          "ticks": 75600,
          "time": 61.967178,
          "velocity": 0.7480314960629921
        },
        {
          "duration": 0.23032773833333664,
          "durationTicks": 281,
          "midi": 53,
          "name": "F3",
          "ticks": 75750,
          "time": 62.09012875,
          "velocity": 0.7480314960629921
        },
        {
          "duration": 0.10737698833333553,
          "durationTicks": 131,
          "midi": 36,
          "name": "C2",
          "ticks": 75750,
          "time": 62.09012875,
          "velocity": 0.7480314960629921
        },
        {
          "duration": 0.10737698833333553,
          "durationTicks": 131,
          "midi": 46,
          "name": "A#2",
          "ticks": 75900,
          "time": 62.2130795,
          "velocity": 0.7480314960629921
        },
        {
          "duration": 0.10737698833333553,
          "durationTicks": 131,
          "midi": 38,
          "name": "D2",
          "ticks": 75900,
          "time": 62.2130795,
          "velocity": 0.7480314960629921
        },
        {
          "duration": 0.10737698833332843,
          "durationTicks": 131,
          "midi": 53,
          "name": "F3",
          "ticks": 76050,
          "time": 62.33603025,
          "velocity": 0.7480314960629921
        },
        {
          "duration": 0.35327848833333064,
          "durationTicks": 431,
          "midi": 52,
          "name": "E3",
          "ticks": 76050,
          "time": 62.33603025,
          "velocity": 0.7480314960629921
        },
        {
          "duration": 0.23032773833332953,
          "durationTicks": 281,
          "midi": 38,
          "name": "D2",
          "ticks": 76050,
          "time": 62.33603025,
          "velocity": 0.7480314960629921
        },
        {
          "duration": 0.23032773833332953,
          "durationTicks": 281,
          "midi": 46,
          "name": "A#2",
          "ticks": 76050,
          "time": 62.33603025,
          "velocity": 0.7480314960629921
        },
        {
          "duration": 0.10737698833332843,
          "durationTicks": 131,
          "midi": 53,
          "name": "F3",
          "ticks": 76200,
          "time": 62.458981,
          "velocity": 0.7480314960629921
        },
        {
          "duration": 0.10737698833332843,
          "durationTicks": 131,
          "midi": 36,
          "name": "C2",
          "ticks": 76200,
          "time": 62.458981,
          "velocity": 0.7480314960629921
        },
        {
          "duration": 0.10737698833333553,
          "durationTicks": 131,
          "midi": 53,
          "name": "F3",
          "ticks": 76350,
          "time": 62.581931749999995,
          "velocity": 0.7480314960629921
        },
        {
          "duration": 0.10737698833333553,
          "durationTicks": 131,
          "midi": 38,
          "name": "D2",
          "ticks": 76350,
          "time": 62.581931749999995,
          "velocity": 0.7480314960629921
        },
        {
          "duration": 0.10737698833333553,
          "durationTicks": 131,
          "midi": 46,
          "name": "A#2",
          "ticks": 76350,
          "time": 62.581931749999995,
          "velocity": 0.7480314960629921
        },
        {
          "duration": 0.10737698833333553,
          "durationTicks": 131,
          "midi": 46,
          "name": "A#2",
          "ticks": 76500,
          "time": 62.7048825,
          "velocity": 0.7480314960629921
        },
        {
          "duration": 0.23032773833333664,
          "durationTicks": 281,
          "midi": 52,
          "name": "E3",
          "ticks": 76500,
          "time": 62.7048825,
          "velocity": 0.7480314960629921
        },
        {
          "duration": 0.10737698833333553,
          "durationTicks": 131,
          "midi": 38,
          "name": "D2",
          "ticks": 76500,
          "time": 62.7048825,
          "velocity": 0.7480314960629921
        },
        {
          "duration": 0.10737698833333553,
          "durationTicks": 131,
          "midi": 38,
          "name": "D2",
          "ticks": 76650,
          "time": 62.82783325,
          "velocity": 0.7480314960629921
        },
        {
          "duration": 0.10737698833333553,
          "durationTicks": 131,
          "midi": 46,
          "name": "A#2",
          "ticks": 76650,
          "time": 62.82783325,
          "velocity": 0.7480314960629921
        },
        {
          "duration": 0.10737698833333553,
          "durationTicks": 131,
          "midi": 78,
          "name": "F#5",
          "ticks": 76800,
          "time": 62.950784,
          "velocity": 1
        },
        {
          "duration": 0.10737698833333553,
          "durationTicks": 131,
          "midi": 78,
          "name": "F#5",
          "ticks": 76800,
          "time": 62.950784,
          "velocity": 1
        },
        {
          "duration": 0.10737698833333553,
          "durationTicks": 131,
          "midi": 78,
          "name": "F#5",
          "ticks": 76800,
          "time": 62.950784,
          "velocity": 1
        },
        {
          "duration": 0.10737698833333553,
          "durationTicks": 131,
          "midi": 78,
          "name": "F#5",
          "ticks": 76800,
          "time": 62.950784,
          "velocity": 1
        },
        {
          "duration": 0.10737698833333553,
          "durationTicks": 131,
          "midi": 78,
          "name": "F#5",
          "ticks": 76800,
          "time": 62.950784,
          "velocity": 1
        },
        {
          "duration": 0.10737698833333553,
          "durationTicks": 131,
          "midi": 78,
          "name": "F#5",
          "ticks": 76800,
          "time": 62.950784,
          "velocity": 1
        },
        {
          "duration": 0.10737698833333553,
          "durationTicks": 131,
          "midi": 78,
          "name": "F#5",
          "ticks": 76800,
          "time": 62.950784,
          "velocity": 1
        },
        {
          "duration": 0.10737698833333553,
          "durationTicks": 131,
          "midi": 78,
          "name": "F#5",
          "ticks": 76800,
          "time": 62.950784,
          "velocity": 1
        },
        {
          "duration": 0.10737698833333553,
          "durationTicks": 131,
          "midi": 78,
          "name": "F#5",
          "ticks": 76800,
          "time": 62.950784,
          "velocity": 1
        },
        {
          "duration": 0.10737698833333553,
          "durationTicks": 131,
          "midi": 78,
          "name": "F#5",
          "ticks": 76800,
          "time": 62.950784,
          "velocity": 1
        },
        {
          "duration": 0.10737698833333553,
          "durationTicks": 131,
          "midi": 78,
          "name": "F#5",
          "ticks": 76800,
          "time": 62.950784,
          "velocity": 1
        },
        {
          "duration": 0.10737698833333553,
          "durationTicks": 131,
          "midi": 78,
          "name": "F#5",
          "ticks": 76800,
          "time": 62.950784,
          "velocity": 1
        },
        {
          "duration": 0.10737698833333553,
          "durationTicks": 131,
          "midi": 78,
          "name": "F#5",
          "ticks": 76800,
          "time": 62.950784,
          "velocity": 1
        },
        {
          "duration": 0.10737698833333553,
          "durationTicks": 131,
          "midi": 78,
          "name": "F#5",
          "ticks": 76800,
          "time": 62.950784,
          "velocity": 1
        },
        {
          "duration": 0.10737698833333553,
          "durationTicks": 131,
          "midi": 78,
          "name": "F#5",
          "ticks": 76800,
          "time": 62.950784,
          "velocity": 1
        },
        {
          "duration": 0.10737698833333553,
          "durationTicks": 131,
          "midi": 78,
          "name": "F#5",
          "ticks": 76800,
          "time": 62.950784,
          "velocity": 1
        },
        {
          "duration": 0.10737698833333553,
          "durationTicks": 131,
          "midi": 36,
          "name": "C2",
          "ticks": 76800,
          "time": 62.950784,
          "velocity": 0.7874015748031497
        },
        {
          "duration": 0.35327848833333064,
          "durationTicks": 431,
          "midi": 46,
          "name": "A#2",
          "ticks": 76800,
          "time": 62.950784,
          "velocity": 0.7007874015748031
        },
        {
          "duration": 0.10737698833332843,
          "durationTicks": 131,
          "midi": 36,
          "name": "C2",
          "ticks": 77100,
          "time": 63.1966855,
          "velocity": 0.7952755905511811
        },
        {
          "duration": 0.35327848833333775,
          "durationTicks": 431,
          "midi": 46,
          "name": "A#2",
          "ticks": 77400,
          "time": 63.442586999999996,
          "velocity": 0.7007874015748031
        },
        {
          "duration": 0.35327848833333775,
          "durationTicks": 431,
          "midi": 38,
          "name": "D2",
          "ticks": 77400,
          "time": 63.442586999999996,
          "velocity": 0.7952755905511811
        },
        {
          "duration": 0.10737698833333553,
          "durationTicks": 131,
          "midi": 36,
          "name": "C2",
          "ticks": 77700,
          "time": 63.6884885,
          "velocity": 0.7952755905511811
        },
        {
          "duration": 0.10737698833333553,
          "durationTicks": 131,
          "midi": 79,
          "name": "G5",
          "ticks": 78000,
          "time": 63.93439,
          "velocity": 1
        },
        {
          "duration": 0.10737698833333553,
          "durationTicks": 131,
          "midi": 79,
          "name": "G5",
          "ticks": 78000,
          "time": 63.93439,
          "velocity": 1
        },
        {
          "duration": 0.10737698833333553,
          "durationTicks": 131,
          "midi": 79,
          "name": "G5",
          "ticks": 78000,
          "time": 63.93439,
          "velocity": 1
        },
        {
          "duration": 0.10737698833333553,
          "durationTicks": 131,
          "midi": 79,
          "name": "G5",
          "ticks": 78000,
          "time": 63.93439,
          "velocity": 1
        },
        {
          "duration": 0.10737698833333553,
          "durationTicks": 131,
          "midi": 79,
          "name": "G5",
          "ticks": 78000,
          "time": 63.93439,
          "velocity": 1
        },
        {
          "duration": 0.10737698833333553,
          "durationTicks": 131,
          "midi": 79,
          "name": "G5",
          "ticks": 78000,
          "time": 63.93439,
          "velocity": 1
        },
        {
          "duration": 0.10737698833333553,
          "durationTicks": 131,
          "midi": 79,
          "name": "G5",
          "ticks": 78000,
          "time": 63.93439,
          "velocity": 1
        },
        {
          "duration": 0.10737698833333553,
          "durationTicks": 131,
          "midi": 79,
          "name": "G5",
          "ticks": 78000,
          "time": 63.93439,
          "velocity": 1
        },
        {
          "duration": 0.10737698833333553,
          "durationTicks": 131,
          "midi": 79,
          "name": "G5",
          "ticks": 78000,
          "time": 63.93439,
          "velocity": 1
        },
        {
          "duration": 0.10737698833333553,
          "durationTicks": 131,
          "midi": 79,
          "name": "G5",
          "ticks": 78000,
          "time": 63.93439,
          "velocity": 1
        },
        {
          "duration": 0.10737698833333553,
          "durationTicks": 131,
          "midi": 79,
          "name": "G5",
          "ticks": 78000,
          "time": 63.93439,
          "velocity": 1
        },
        {
          "duration": 0.10737698833333553,
          "durationTicks": 131,
          "midi": 79,
          "name": "G5",
          "ticks": 78000,
          "time": 63.93439,
          "velocity": 1
        },
        {
          "duration": 0.10737698833333553,
          "durationTicks": 131,
          "midi": 79,
          "name": "G5",
          "ticks": 78000,
          "time": 63.93439,
          "velocity": 1
        },
        {
          "duration": 0.10737698833333553,
          "durationTicks": 131,
          "midi": 79,
          "name": "G5",
          "ticks": 78000,
          "time": 63.93439,
          "velocity": 1
        },
        {
          "duration": 0.10737698833333553,
          "durationTicks": 131,
          "midi": 79,
          "name": "G5",
          "ticks": 78000,
          "time": 63.93439,
          "velocity": 1
        },
        {
          "duration": 0.10737698833333553,
          "durationTicks": 131,
          "midi": 79,
          "name": "G5",
          "ticks": 78000,
          "time": 63.93439,
          "velocity": 1
        },
        {
          "duration": 0.35327848833333775,
          "durationTicks": 431,
          "midi": 46,
          "name": "A#2",
          "ticks": 78000,
          "time": 63.93439,
          "velocity": 0.7086614173228346
        },
        {
          "duration": 0.10737698833333553,
          "durationTicks": 131,
          "midi": 36,
          "name": "C2",
          "ticks": 78000,
          "time": 63.93439,
          "velocity": 0.8031496062992126
        },
        {
          "duration": 0.10737698833334264,
          "durationTicks": 131,
          "midi": 36,
          "name": "C2",
          "ticks": 78300,
          "time": 64.1802915,
          "velocity": 0.8031496062992126
        },
        {
          "duration": 0.35327848833333064,
          "durationTicks": 431,
          "midi": 38,
          "name": "D2",
          "ticks": 78600,
          "time": 64.426193,
          "velocity": 0.8031496062992126
        },
        {
          "duration": 0.35327848833333064,
          "durationTicks": 431,
          "midi": 46,
          "name": "A#2",
          "ticks": 78600,
          "time": 64.426193,
          "velocity": 0.7165354330708661
        },
        {
          "duration": 0.10737698833332843,
          "durationTicks": 131,
          "midi": 36,
          "name": "C2",
          "ticks": 78900,
          "time": 64.6720945,
          "velocity": 0.8031496062992126
        },
        {
          "duration": 0.10737698833332843,
          "durationTicks": 131,
          "midi": 78,
          "name": "F#5",
          "ticks": 79200,
          "time": 64.917996,
          "velocity": 1
        },
        {
          "duration": 0.10737698833332843,
          "durationTicks": 131,
          "midi": 78,
          "name": "F#5",
          "ticks": 79200,
          "time": 64.917996,
          "velocity": 1
        },
        {
          "duration": 0.10737698833332843,
          "durationTicks": 131,
          "midi": 78,
          "name": "F#5",
          "ticks": 79200,
          "time": 64.917996,
          "velocity": 1
        },
        {
          "duration": 0.10737698833332843,
          "durationTicks": 131,
          "midi": 78,
          "name": "F#5",
          "ticks": 79200,
          "time": 64.917996,
          "velocity": 1
        },
        {
          "duration": 0.10737698833332843,
          "durationTicks": 131,
          "midi": 78,
          "name": "F#5",
          "ticks": 79200,
          "time": 64.917996,
          "velocity": 1
        },
        {
          "duration": 0.10737698833332843,
          "durationTicks": 131,
          "midi": 78,
          "name": "F#5",
          "ticks": 79200,
          "time": 64.917996,
          "velocity": 1
        },
        {
          "duration": 0.10737698833332843,
          "durationTicks": 131,
          "midi": 78,
          "name": "F#5",
          "ticks": 79200,
          "time": 64.917996,
          "velocity": 1
        },
        {
          "duration": 0.10737698833332843,
          "durationTicks": 131,
          "midi": 78,
          "name": "F#5",
          "ticks": 79200,
          "time": 64.917996,
          "velocity": 1
        },
        {
          "duration": 0.10737698833332843,
          "durationTicks": 131,
          "midi": 78,
          "name": "F#5",
          "ticks": 79200,
          "time": 64.917996,
          "velocity": 1
        },
        {
          "duration": 0.10737698833332843,
          "durationTicks": 131,
          "midi": 78,
          "name": "F#5",
          "ticks": 79200,
          "time": 64.917996,
          "velocity": 1
        },
        {
          "duration": 0.10737698833332843,
          "durationTicks": 131,
          "midi": 78,
          "name": "F#5",
          "ticks": 79200,
          "time": 64.917996,
          "velocity": 1
        },
        {
          "duration": 0.10737698833332843,
          "durationTicks": 131,
          "midi": 78,
          "name": "F#5",
          "ticks": 79200,
          "time": 64.917996,
          "velocity": 1
        },
        {
          "duration": 0.10737698833332843,
          "durationTicks": 131,
          "midi": 78,
          "name": "F#5",
          "ticks": 79200,
          "time": 64.917996,
          "velocity": 1
        },
        {
          "duration": 0.10737698833332843,
          "durationTicks": 131,
          "midi": 78,
          "name": "F#5",
          "ticks": 79200,
          "time": 64.917996,
          "velocity": 1
        },
        {
          "duration": 0.10737698833332843,
          "durationTicks": 131,
          "midi": 78,
          "name": "F#5",
          "ticks": 79200,
          "time": 64.917996,
          "velocity": 1
        },
        {
          "duration": 0.10737698833332843,
          "durationTicks": 131,
          "midi": 78,
          "name": "F#5",
          "ticks": 79200,
          "time": 64.917996,
          "velocity": 1
        },
        {
          "duration": 0.10737698833332843,
          "durationTicks": 131,
          "midi": 36,
          "name": "C2",
          "ticks": 79200,
          "time": 64.917996,
          "velocity": 0.7874015748031497
        },
        {
          "duration": 0.35327848833333064,
          "durationTicks": 431,
          "midi": 46,
          "name": "A#2",
          "ticks": 79200,
          "time": 64.917996,
          "velocity": 0.7007874015748031
        },
        {
          "duration": 0.10737698833332843,
          "durationTicks": 131,
          "midi": 36,
          "name": "C2",
          "ticks": 79500,
          "time": 65.1638975,
          "velocity": 0.7952755905511811
        },
        {
          "duration": 0.35327848833334485,
          "durationTicks": 431,
          "midi": 46,
          "name": "A#2",
          "ticks": 79800,
          "time": 65.40979899999999,
          "velocity": 0.7007874015748031
        },
        {
          "duration": 0.35327848833334485,
          "durationTicks": 431,
          "midi": 38,
          "name": "D2",
          "ticks": 79800,
          "time": 65.40979899999999,
          "velocity": 0.7952755905511811
        },
        {
          "duration": 0.10737698833334264,
          "durationTicks": 131,
          "midi": 36,
          "name": "C2",
          "ticks": 80100,
          "time": 65.6557005,
          "velocity": 0.7952755905511811
        },
        {
          "duration": 0.10737698833332843,
          "durationTicks": 131,
          "midi": 79,
          "name": "G5",
          "ticks": 80400,
          "time": 65.901602,
          "velocity": 1
        },
        {
          "duration": 0.10737698833332843,
          "durationTicks": 131,
          "midi": 79,
          "name": "G5",
          "ticks": 80400,
          "time": 65.901602,
          "velocity": 1
        },
        {
          "duration": 0.10737698833332843,
          "durationTicks": 131,
          "midi": 79,
          "name": "G5",
          "ticks": 80400,
          "time": 65.901602,
          "velocity": 1
        },
        {
          "duration": 0.10737698833332843,
          "durationTicks": 131,
          "midi": 79,
          "name": "G5",
          "ticks": 80400,
          "time": 65.901602,
          "velocity": 1
        },
        {
          "duration": 0.10737698833332843,
          "durationTicks": 131,
          "midi": 79,
          "name": "G5",
          "ticks": 80400,
          "time": 65.901602,
          "velocity": 1
        },
        {
          "duration": 0.10737698833332843,
          "durationTicks": 131,
          "midi": 79,
          "name": "G5",
          "ticks": 80400,
          "time": 65.901602,
          "velocity": 1
        },
        {
          "duration": 0.10737698833332843,
          "durationTicks": 131,
          "midi": 79,
          "name": "G5",
          "ticks": 80400,
          "time": 65.901602,
          "velocity": 1
        },
        {
          "duration": 0.10737698833332843,
          "durationTicks": 131,
          "midi": 79,
          "name": "G5",
          "ticks": 80400,
          "time": 65.901602,
          "velocity": 1
        },
        {
          "duration": 0.10737698833332843,
          "durationTicks": 131,
          "midi": 79,
          "name": "G5",
          "ticks": 80400,
          "time": 65.901602,
          "velocity": 1
        },
        {
          "duration": 0.10737698833332843,
          "durationTicks": 131,
          "midi": 79,
          "name": "G5",
          "ticks": 80400,
          "time": 65.901602,
          "velocity": 1
        },
        {
          "duration": 0.10737698833332843,
          "durationTicks": 131,
          "midi": 79,
          "name": "G5",
          "ticks": 80400,
          "time": 65.901602,
          "velocity": 1
        },
        {
          "duration": 0.10737698833332843,
          "durationTicks": 131,
          "midi": 79,
          "name": "G5",
          "ticks": 80400,
          "time": 65.901602,
          "velocity": 1
        },
        {
          "duration": 0.10737698833332843,
          "durationTicks": 131,
          "midi": 79,
          "name": "G5",
          "ticks": 80400,
          "time": 65.901602,
          "velocity": 1
        },
        {
          "duration": 0.10737698833332843,
          "durationTicks": 131,
          "midi": 79,
          "name": "G5",
          "ticks": 80400,
          "time": 65.901602,
          "velocity": 1
        },
        {
          "duration": 0.10737698833332843,
          "durationTicks": 131,
          "midi": 79,
          "name": "G5",
          "ticks": 80400,
          "time": 65.901602,
          "velocity": 1
        },
        {
          "duration": 0.10737698833332843,
          "durationTicks": 131,
          "midi": 79,
          "name": "G5",
          "ticks": 80400,
          "time": 65.901602,
          "velocity": 1
        },
        {
          "duration": 0.35327848833333064,
          "durationTicks": 431,
          "midi": 46,
          "name": "A#2",
          "ticks": 80400,
          "time": 65.901602,
          "velocity": 0.7086614173228346
        },
        {
          "duration": 0.10737698833332843,
          "durationTicks": 131,
          "midi": 36,
          "name": "C2",
          "ticks": 80400,
          "time": 65.901602,
          "velocity": 0.8031496062992126
        },
        {
          "duration": 0.10737698833332843,
          "durationTicks": 131,
          "midi": 36,
          "name": "C2",
          "ticks": 80700,
          "time": 66.1475035,
          "velocity": 0.8031496062992126
        },
        {
          "duration": 0.35327848833333064,
          "durationTicks": 431,
          "midi": 38,
          "name": "D2",
          "ticks": 81000,
          "time": 66.393405,
          "velocity": 0.8031496062992126
        },
        {
          "duration": 0.35327848833333064,
          "durationTicks": 431,
          "midi": 46,
          "name": "A#2",
          "ticks": 81000,
          "time": 66.393405,
          "velocity": 0.7165354330708661
        },
        {
          "duration": 0.10737698833332843,
          "durationTicks": 131,
          "midi": 36,
          "name": "C2",
          "ticks": 81300,
          "time": 66.6393065,
          "velocity": 0.8031496062992126
        },
        {
          "duration": 0.10737698833332843,
          "durationTicks": 131,
          "midi": 78,
          "name": "F#5",
          "ticks": 81600,
          "time": 66.885208,
          "velocity": 1
        },
        {
          "duration": 0.10737698833332843,
          "durationTicks": 131,
          "midi": 78,
          "name": "F#5",
          "ticks": 81600,
          "time": 66.885208,
          "velocity": 1
        },
        {
          "duration": 0.10737698833332843,
          "durationTicks": 131,
          "midi": 78,
          "name": "F#5",
          "ticks": 81600,
          "time": 66.885208,
          "velocity": 1
        },
        {
          "duration": 0.10737698833332843,
          "durationTicks": 131,
          "midi": 78,
          "name": "F#5",
          "ticks": 81600,
          "time": 66.885208,
          "velocity": 1
        },
        {
          "duration": 0.10737698833332843,
          "durationTicks": 131,
          "midi": 78,
          "name": "F#5",
          "ticks": 81600,
          "time": 66.885208,
          "velocity": 1
        },
        {
          "duration": 0.10737698833332843,
          "durationTicks": 131,
          "midi": 78,
          "name": "F#5",
          "ticks": 81600,
          "time": 66.885208,
          "velocity": 1
        },
        {
          "duration": 0.10737698833332843,
          "durationTicks": 131,
          "midi": 78,
          "name": "F#5",
          "ticks": 81600,
          "time": 66.885208,
          "velocity": 1
        },
        {
          "duration": 0.10737698833332843,
          "durationTicks": 131,
          "midi": 78,
          "name": "F#5",
          "ticks": 81600,
          "time": 66.885208,
          "velocity": 1
        },
        {
          "duration": 0.10737698833332843,
          "durationTicks": 131,
          "midi": 78,
          "name": "F#5",
          "ticks": 81600,
          "time": 66.885208,
          "velocity": 1
        },
        {
          "duration": 0.10737698833332843,
          "durationTicks": 131,
          "midi": 78,
          "name": "F#5",
          "ticks": 81600,
          "time": 66.885208,
          "velocity": 1
        },
        {
          "duration": 0.10737698833332843,
          "durationTicks": 131,
          "midi": 78,
          "name": "F#5",
          "ticks": 81600,
          "time": 66.885208,
          "velocity": 1
        },
        {
          "duration": 0.10737698833332843,
          "durationTicks": 131,
          "midi": 78,
          "name": "F#5",
          "ticks": 81600,
          "time": 66.885208,
          "velocity": 1
        },
        {
          "duration": 0.10737698833332843,
          "durationTicks": 131,
          "midi": 78,
          "name": "F#5",
          "ticks": 81600,
          "time": 66.885208,
          "velocity": 1
        },
        {
          "duration": 0.10737698833332843,
          "durationTicks": 131,
          "midi": 78,
          "name": "F#5",
          "ticks": 81600,
          "time": 66.885208,
          "velocity": 1
        },
        {
          "duration": 0.10737698833332843,
          "durationTicks": 131,
          "midi": 78,
          "name": "F#5",
          "ticks": 81600,
          "time": 66.885208,
          "velocity": 1
        },
        {
          "duration": 0.10737698833332843,
          "durationTicks": 131,
          "midi": 78,
          "name": "F#5",
          "ticks": 81600,
          "time": 66.885208,
          "velocity": 1
        },
        {
          "duration": 0.10737698833332843,
          "durationTicks": 131,
          "midi": 36,
          "name": "C2",
          "ticks": 81600,
          "time": 66.885208,
          "velocity": 0.7874015748031497
        },
        {
          "duration": 0.35327848833333064,
          "durationTicks": 431,
          "midi": 46,
          "name": "A#2",
          "ticks": 81600,
          "time": 66.885208,
          "velocity": 0.7007874015748031
        },
        {
          "duration": 0.10737698833334264,
          "durationTicks": 131,
          "midi": 36,
          "name": "C2",
          "ticks": 81900,
          "time": 67.1311095,
          "velocity": 0.7952755905511811
        },
        {
          "duration": 0.35327848833333064,
          "durationTicks": 431,
          "midi": 46,
          "name": "A#2",
          "ticks": 82200,
          "time": 67.377011,
          "velocity": 0.7007874015748031
        },
        {
          "duration": 0.35327848833333064,
          "durationTicks": 431,
          "midi": 38,
          "name": "D2",
          "ticks": 82200,
          "time": 67.377011,
          "velocity": 0.7952755905511811
        },
        {
          "duration": 0.10737698833332843,
          "durationTicks": 131,
          "midi": 36,
          "name": "C2",
          "ticks": 82500,
          "time": 67.6229125,
          "velocity": 0.7952755905511811
        },
        {
          "duration": 0.10737698833332843,
          "durationTicks": 131,
          "midi": 79,
          "name": "G5",
          "ticks": 82800,
          "time": 67.868814,
          "velocity": 1
        },
        {
          "duration": 0.10737698833332843,
          "durationTicks": 131,
          "midi": 79,
          "name": "G5",
          "ticks": 82800,
          "time": 67.868814,
          "velocity": 1
        },
        {
          "duration": 0.10737698833332843,
          "durationTicks": 131,
          "midi": 79,
          "name": "G5",
          "ticks": 82800,
          "time": 67.868814,
          "velocity": 1
        },
        {
          "duration": 0.10737698833332843,
          "durationTicks": 131,
          "midi": 79,
          "name": "G5",
          "ticks": 82800,
          "time": 67.868814,
          "velocity": 1
        },
        {
          "duration": 0.10737698833332843,
          "durationTicks": 131,
          "midi": 79,
          "name": "G5",
          "ticks": 82800,
          "time": 67.868814,
          "velocity": 1
        },
        {
          "duration": 0.10737698833332843,
          "durationTicks": 131,
          "midi": 79,
          "name": "G5",
          "ticks": 82800,
          "time": 67.868814,
          "velocity": 1
        },
        {
          "duration": 0.10737698833332843,
          "durationTicks": 131,
          "midi": 79,
          "name": "G5",
          "ticks": 82800,
          "time": 67.868814,
          "velocity": 1
        },
        {
          "duration": 0.10737698833332843,
          "durationTicks": 131,
          "midi": 79,
          "name": "G5",
          "ticks": 82800,
          "time": 67.868814,
          "velocity": 1
        },
        {
          "duration": 0.10737698833332843,
          "durationTicks": 131,
          "midi": 79,
          "name": "G5",
          "ticks": 82800,
          "time": 67.868814,
          "velocity": 1
        },
        {
          "duration": 0.10737698833332843,
          "durationTicks": 131,
          "midi": 79,
          "name": "G5",
          "ticks": 82800,
          "time": 67.868814,
          "velocity": 1
        },
        {
          "duration": 0.10737698833332843,
          "durationTicks": 131,
          "midi": 79,
          "name": "G5",
          "ticks": 82800,
          "time": 67.868814,
          "velocity": 1
        },
        {
          "duration": 0.10737698833332843,
          "durationTicks": 131,
          "midi": 79,
          "name": "G5",
          "ticks": 82800,
          "time": 67.868814,
          "velocity": 1
        },
        {
          "duration": 0.10737698833332843,
          "durationTicks": 131,
          "midi": 79,
          "name": "G5",
          "ticks": 82800,
          "time": 67.868814,
          "velocity": 1
        },
        {
          "duration": 0.10737698833332843,
          "durationTicks": 131,
          "midi": 79,
          "name": "G5",
          "ticks": 82800,
          "time": 67.868814,
          "velocity": 1
        },
        {
          "duration": 0.10737698833332843,
          "durationTicks": 131,
          "midi": 79,
          "name": "G5",
          "ticks": 82800,
          "time": 67.868814,
          "velocity": 1
        },
        {
          "duration": 0.10737698833332843,
          "durationTicks": 131,
          "midi": 79,
          "name": "G5",
          "ticks": 82800,
          "time": 67.868814,
          "velocity": 1
        },
        {
          "duration": 0.35327848833333064,
          "durationTicks": 431,
          "midi": 46,
          "name": "A#2",
          "ticks": 82800,
          "time": 67.868814,
          "velocity": 0.7086614173228346
        },
        {
          "duration": 0.10737698833332843,
          "durationTicks": 131,
          "midi": 36,
          "name": "C2",
          "ticks": 82800,
          "time": 67.868814,
          "velocity": 0.8031496062992126
        },
        {
          "duration": 0.10737698833332843,
          "durationTicks": 131,
          "midi": 36,
          "name": "C2",
          "ticks": 83100,
          "time": 68.1147155,
          "velocity": 0.8031496062992126
        },
        {
          "duration": 0.35327848833333064,
          "durationTicks": 431,
          "midi": 38,
          "name": "D2",
          "ticks": 83400,
          "time": 68.360617,
          "velocity": 0.8031496062992126
        },
        {
          "duration": 0.35327848833333064,
          "durationTicks": 431,
          "midi": 46,
          "name": "A#2",
          "ticks": 83400,
          "time": 68.360617,
          "velocity": 0.7165354330708661
        },
        {
          "duration": 0.10737698833334264,
          "durationTicks": 131,
          "midi": 36,
          "name": "C2",
          "ticks": 83700,
          "time": 68.60651849999999,
          "velocity": 0.8031496062992126
        },
        {
          "duration": 0.10737698833334264,
          "durationTicks": 131,
          "midi": 78,
          "name": "F#5",
          "ticks": 84000,
          "time": 68.85242,
          "velocity": 1
        },
        {
          "duration": 0.10737698833334264,
          "durationTicks": 131,
          "midi": 78,
          "name": "F#5",
          "ticks": 84000,
          "time": 68.85242,
          "velocity": 1
        },
        {
          "duration": 0.10737698833334264,
          "durationTicks": 131,
          "midi": 78,
          "name": "F#5",
          "ticks": 84000,
          "time": 68.85242,
          "velocity": 1
        },
        {
          "duration": 0.10737698833334264,
          "durationTicks": 131,
          "midi": 78,
          "name": "F#5",
          "ticks": 84000,
          "time": 68.85242,
          "velocity": 1
        },
        {
          "duration": 0.10737698833334264,
          "durationTicks": 131,
          "midi": 78,
          "name": "F#5",
          "ticks": 84000,
          "time": 68.85242,
          "velocity": 1
        },
        {
          "duration": 0.10737698833334264,
          "durationTicks": 131,
          "midi": 78,
          "name": "F#5",
          "ticks": 84000,
          "time": 68.85242,
          "velocity": 1
        },
        {
          "duration": 0.10737698833334264,
          "durationTicks": 131,
          "midi": 78,
          "name": "F#5",
          "ticks": 84000,
          "time": 68.85242,
          "velocity": 1
        },
        {
          "duration": 0.10737698833334264,
          "durationTicks": 131,
          "midi": 78,
          "name": "F#5",
          "ticks": 84000,
          "time": 68.85242,
          "velocity": 1
        },
        {
          "duration": 0.10737698833334264,
          "durationTicks": 131,
          "midi": 78,
          "name": "F#5",
          "ticks": 84000,
          "time": 68.85242,
          "velocity": 1
        },
        {
          "duration": 0.10737698833334264,
          "durationTicks": 131,
          "midi": 78,
          "name": "F#5",
          "ticks": 84000,
          "time": 68.85242,
          "velocity": 1
        },
        {
          "duration": 0.10737698833334264,
          "durationTicks": 131,
          "midi": 78,
          "name": "F#5",
          "ticks": 84000,
          "time": 68.85242,
          "velocity": 1
        },
        {
          "duration": 0.10737698833334264,
          "durationTicks": 131,
          "midi": 78,
          "name": "F#5",
          "ticks": 84000,
          "time": 68.85242,
          "velocity": 1
        },
        {
          "duration": 0.10737698833334264,
          "durationTicks": 131,
          "midi": 78,
          "name": "F#5",
          "ticks": 84000,
          "time": 68.85242,
          "velocity": 1
        },
        {
          "duration": 0.10737698833334264,
          "durationTicks": 131,
          "midi": 78,
          "name": "F#5",
          "ticks": 84000,
          "time": 68.85242,
          "velocity": 1
        },
        {
          "duration": 0.10737698833334264,
          "durationTicks": 131,
          "midi": 78,
          "name": "F#5",
          "ticks": 84000,
          "time": 68.85242,
          "velocity": 1
        },
        {
          "duration": 0.10737698833334264,
          "durationTicks": 131,
          "midi": 78,
          "name": "F#5",
          "ticks": 84000,
          "time": 68.85242,
          "velocity": 1
        },
        {
          "duration": 0.10737698833334264,
          "durationTicks": 131,
          "midi": 36,
          "name": "C2",
          "ticks": 84000,
          "time": 68.85242,
          "velocity": 0.7874015748031497
        },
        {
          "duration": 0.35327848833333064,
          "durationTicks": 431,
          "midi": 46,
          "name": "A#2",
          "ticks": 84000,
          "time": 68.85242,
          "velocity": 0.7007874015748031
        },
        {
          "duration": 0.10737698833332843,
          "durationTicks": 131,
          "midi": 36,
          "name": "C2",
          "ticks": 84300,
          "time": 69.0983215,
          "velocity": 0.7952755905511811
        },
        {
          "duration": 0.35327848833333064,
          "durationTicks": 431,
          "midi": 46,
          "name": "A#2",
          "ticks": 84600,
          "time": 69.344223,
          "velocity": 0.7007874015748031
        },
        {
          "duration": 0.35327848833333064,
          "durationTicks": 431,
          "midi": 38,
          "name": "D2",
          "ticks": 84600,
          "time": 69.344223,
          "velocity": 0.7952755905511811
        },
        {
          "duration": 0.10737698833332843,
          "durationTicks": 131,
          "midi": 36,
          "name": "C2",
          "ticks": 84900,
          "time": 69.5901245,
          "velocity": 0.7952755905511811
        },
        {
          "duration": 0.10737698833332843,
          "durationTicks": 131,
          "midi": 79,
          "name": "G5",
          "ticks": 85200,
          "time": 69.836026,
          "velocity": 1
        },
        {
          "duration": 0.10737698833332843,
          "durationTicks": 131,
          "midi": 79,
          "name": "G5",
          "ticks": 85200,
          "time": 69.836026,
          "velocity": 1
        },
        {
          "duration": 0.10737698833332843,
          "durationTicks": 131,
          "midi": 79,
          "name": "G5",
          "ticks": 85200,
          "time": 69.836026,
          "velocity": 1
        },
        {
          "duration": 0.10737698833332843,
          "durationTicks": 131,
          "midi": 79,
          "name": "G5",
          "ticks": 85200,
          "time": 69.836026,
          "velocity": 1
        },
        {
          "duration": 0.10737698833332843,
          "durationTicks": 131,
          "midi": 79,
          "name": "G5",
          "ticks": 85200,
          "time": 69.836026,
          "velocity": 1
        },
        {
          "duration": 0.10737698833332843,
          "durationTicks": 131,
          "midi": 79,
          "name": "G5",
          "ticks": 85200,
          "time": 69.836026,
          "velocity": 1
        },
        {
          "duration": 0.10737698833332843,
          "durationTicks": 131,
          "midi": 79,
          "name": "G5",
          "ticks": 85200,
          "time": 69.836026,
          "velocity": 1
        },
        {
          "duration": 0.10737698833332843,
          "durationTicks": 131,
          "midi": 79,
          "name": "G5",
          "ticks": 85200,
          "time": 69.836026,
          "velocity": 1
        },
        {
          "duration": 0.10737698833332843,
          "durationTicks": 131,
          "midi": 79,
          "name": "G5",
          "ticks": 85200,
          "time": 69.836026,
          "velocity": 1
        },
        {
          "duration": 0.10737698833332843,
          "durationTicks": 131,
          "midi": 79,
          "name": "G5",
          "ticks": 85200,
          "time": 69.836026,
          "velocity": 1
        },
        {
          "duration": 0.10737698833332843,
          "durationTicks": 131,
          "midi": 79,
          "name": "G5",
          "ticks": 85200,
          "time": 69.836026,
          "velocity": 1
        },
        {
          "duration": 0.10737698833332843,
          "durationTicks": 131,
          "midi": 79,
          "name": "G5",
          "ticks": 85200,
          "time": 69.836026,
          "velocity": 1
        },
        {
          "duration": 0.10737698833332843,
          "durationTicks": 131,
          "midi": 79,
          "name": "G5",
          "ticks": 85200,
          "time": 69.836026,
          "velocity": 1
        },
        {
          "duration": 0.10737698833332843,
          "durationTicks": 131,
          "midi": 79,
          "name": "G5",
          "ticks": 85200,
          "time": 69.836026,
          "velocity": 1
        },
        {
          "duration": 0.10737698833332843,
          "durationTicks": 131,
          "midi": 79,
          "name": "G5",
          "ticks": 85200,
          "time": 69.836026,
          "velocity": 1
        },
        {
          "duration": 0.10737698833332843,
          "durationTicks": 131,
          "midi": 79,
          "name": "G5",
          "ticks": 85200,
          "time": 69.836026,
          "velocity": 1
        },
        {
          "duration": 0.35327848833333064,
          "durationTicks": 431,
          "midi": 46,
          "name": "A#2",
          "ticks": 85200,
          "time": 69.836026,
          "velocity": 0.7086614173228346
        },
        {
          "duration": 0.10737698833332843,
          "durationTicks": 131,
          "midi": 36,
          "name": "C2",
          "ticks": 85200,
          "time": 69.836026,
          "velocity": 0.8031496062992126
        },
        {
          "duration": 0.10737698833334264,
          "durationTicks": 131,
          "midi": 36,
          "name": "C2",
          "ticks": 85500,
          "time": 70.08192749999999,
          "velocity": 0.8031496062992126
        },
        {
          "duration": 0.35327848833334485,
          "durationTicks": 431,
          "midi": 38,
          "name": "D2",
          "ticks": 85800,
          "time": 70.327829,
          "velocity": 0.8031496062992126
        },
        {
          "duration": 0.35327848833334485,
          "durationTicks": 431,
          "midi": 46,
          "name": "A#2",
          "ticks": 85800,
          "time": 70.327829,
          "velocity": 0.7165354330708661
        },
        {
          "duration": 0.10737698833334264,
          "durationTicks": 131,
          "midi": 36,
          "name": "C2",
          "ticks": 86100,
          "time": 70.5737305,
          "velocity": 0.8031496062992126
        },
        {
          "duration": 0.10737698833332843,
          "durationTicks": 131,
          "midi": 78,
          "name": "F#5",
          "ticks": 86400,
          "time": 70.819632,
          "velocity": 1
        },
        {
          "duration": 0.10737698833332843,
          "durationTicks": 131,
          "midi": 78,
          "name": "F#5",
          "ticks": 86400,
          "time": 70.819632,
          "velocity": 1
        },
        {
          "duration": 0.10737698833332843,
          "durationTicks": 131,
          "midi": 78,
          "name": "F#5",
          "ticks": 86400,
          "time": 70.819632,
          "velocity": 1
        },
        {
          "duration": 0.10737698833332843,
          "durationTicks": 131,
          "midi": 78,
          "name": "F#5",
          "ticks": 86400,
          "time": 70.819632,
          "velocity": 1
        },
        {
          "duration": 0.10737698833332843,
          "durationTicks": 131,
          "midi": 78,
          "name": "F#5",
          "ticks": 86400,
          "time": 70.819632,
          "velocity": 1
        },
        {
          "duration": 0.10737698833332843,
          "durationTicks": 131,
          "midi": 78,
          "name": "F#5",
          "ticks": 86400,
          "time": 70.819632,
          "velocity": 1
        },
        {
          "duration": 0.10737698833332843,
          "durationTicks": 131,
          "midi": 78,
          "name": "F#5",
          "ticks": 86400,
          "time": 70.819632,
          "velocity": 1
        },
        {
          "duration": 0.10737698833332843,
          "durationTicks": 131,
          "midi": 78,
          "name": "F#5",
          "ticks": 86400,
          "time": 70.819632,
          "velocity": 1
        },
        {
          "duration": 0.10737698833332843,
          "durationTicks": 131,
          "midi": 78,
          "name": "F#5",
          "ticks": 86400,
          "time": 70.819632,
          "velocity": 1
        },
        {
          "duration": 0.10737698833332843,
          "durationTicks": 131,
          "midi": 78,
          "name": "F#5",
          "ticks": 86400,
          "time": 70.819632,
          "velocity": 1
        },
        {
          "duration": 0.10737698833332843,
          "durationTicks": 131,
          "midi": 78,
          "name": "F#5",
          "ticks": 86400,
          "time": 70.819632,
          "velocity": 1
        },
        {
          "duration": 0.10737698833332843,
          "durationTicks": 131,
          "midi": 78,
          "name": "F#5",
          "ticks": 86400,
          "time": 70.819632,
          "velocity": 1
        },
        {
          "duration": 0.10737698833332843,
          "durationTicks": 131,
          "midi": 78,
          "name": "F#5",
          "ticks": 86400,
          "time": 70.819632,
          "velocity": 1
        },
        {
          "duration": 0.10737698833332843,
          "durationTicks": 131,
          "midi": 78,
          "name": "F#5",
          "ticks": 86400,
          "time": 70.819632,
          "velocity": 1
        },
        {
          "duration": 0.10737698833332843,
          "durationTicks": 131,
          "midi": 78,
          "name": "F#5",
          "ticks": 86400,
          "time": 70.819632,
          "velocity": 1
        },
        {
          "duration": 0.10737698833332843,
          "durationTicks": 131,
          "midi": 78,
          "name": "F#5",
          "ticks": 86400,
          "time": 70.819632,
          "velocity": 1
        },
        {
          "duration": 0.10737698833332843,
          "durationTicks": 131,
          "midi": 36,
          "name": "C2",
          "ticks": 86400,
          "time": 70.819632,
          "velocity": 0.7874015748031497
        },
        {
          "duration": 0.35327848833333064,
          "durationTicks": 431,
          "midi": 46,
          "name": "A#2",
          "ticks": 86400,
          "time": 70.819632,
          "velocity": 0.7007874015748031
        },
        {
          "duration": 0.10737698833332843,
          "durationTicks": 131,
          "midi": 36,
          "name": "C2",
          "ticks": 86700,
          "time": 71.0655335,
          "velocity": 0.7952755905511811
        },
        {
          "duration": 0.35327848833333064,
          "durationTicks": 431,
          "midi": 46,
          "name": "A#2",
          "ticks": 87000,
          "time": 71.311435,
          "velocity": 0.7007874015748031
        },
        {
          "duration": 0.35327848833333064,
          "durationTicks": 431,
          "midi": 38,
          "name": "D2",
          "ticks": 87000,
          "time": 71.311435,
          "velocity": 0.7952755905511811
        },
        {
          "duration": 0.10737698833332843,
          "durationTicks": 131,
          "midi": 36,
          "name": "C2",
          "ticks": 87300,
          "time": 71.5573365,
          "velocity": 0.7952755905511811
        },
        {
          "duration": 0.10737698833334264,
          "durationTicks": 131,
          "midi": 79,
          "name": "G5",
          "ticks": 87600,
          "time": 71.803238,
          "velocity": 1
        },
        {
          "duration": 0.10737698833334264,
          "durationTicks": 131,
          "midi": 79,
          "name": "G5",
          "ticks": 87600,
          "time": 71.803238,
          "velocity": 1
        },
        {
          "duration": 0.10737698833334264,
          "durationTicks": 131,
          "midi": 79,
          "name": "G5",
          "ticks": 87600,
          "time": 71.803238,
          "velocity": 1
        },
        {
          "duration": 0.10737698833334264,
          "durationTicks": 131,
          "midi": 79,
          "name": "G5",
          "ticks": 87600,
          "time": 71.803238,
          "velocity": 1
        },
        {
          "duration": 0.10737698833334264,
          "durationTicks": 131,
          "midi": 79,
          "name": "G5",
          "ticks": 87600,
          "time": 71.803238,
          "velocity": 1
        },
        {
          "duration": 0.10737698833334264,
          "durationTicks": 131,
          "midi": 79,
          "name": "G5",
          "ticks": 87600,
          "time": 71.803238,
          "velocity": 1
        },
        {
          "duration": 0.10737698833334264,
          "durationTicks": 131,
          "midi": 79,
          "name": "G5",
          "ticks": 87600,
          "time": 71.803238,
          "velocity": 1
        },
        {
          "duration": 0.10737698833334264,
          "durationTicks": 131,
          "midi": 79,
          "name": "G5",
          "ticks": 87600,
          "time": 71.803238,
          "velocity": 1
        },
        {
          "duration": 0.10737698833334264,
          "durationTicks": 131,
          "midi": 79,
          "name": "G5",
          "ticks": 87600,
          "time": 71.803238,
          "velocity": 1
        },
        {
          "duration": 0.10737698833334264,
          "durationTicks": 131,
          "midi": 79,
          "name": "G5",
          "ticks": 87600,
          "time": 71.803238,
          "velocity": 1
        },
        {
          "duration": 0.10737698833334264,
          "durationTicks": 131,
          "midi": 79,
          "name": "G5",
          "ticks": 87600,
          "time": 71.803238,
          "velocity": 1
        },
        {
          "duration": 0.10737698833334264,
          "durationTicks": 131,
          "midi": 79,
          "name": "G5",
          "ticks": 87600,
          "time": 71.803238,
          "velocity": 1
        },
        {
          "duration": 0.10737698833334264,
          "durationTicks": 131,
          "midi": 79,
          "name": "G5",
          "ticks": 87600,
          "time": 71.803238,
          "velocity": 1
        },
        {
          "duration": 0.10737698833334264,
          "durationTicks": 131,
          "midi": 79,
          "name": "G5",
          "ticks": 87600,
          "time": 71.803238,
          "velocity": 1
        },
        {
          "duration": 0.10737698833334264,
          "durationTicks": 131,
          "midi": 79,
          "name": "G5",
          "ticks": 87600,
          "time": 71.803238,
          "velocity": 1
        },
        {
          "duration": 0.10737698833334264,
          "durationTicks": 131,
          "midi": 79,
          "name": "G5",
          "ticks": 87600,
          "time": 71.803238,
          "velocity": 1
        },
        {
          "duration": 0.35327848833334485,
          "durationTicks": 431,
          "midi": 46,
          "name": "A#2",
          "ticks": 87600,
          "time": 71.803238,
          "velocity": 0.7086614173228346
        },
        {
          "duration": 0.10737698833334264,
          "durationTicks": 131,
          "midi": 36,
          "name": "C2",
          "ticks": 87600,
          "time": 71.803238,
          "velocity": 0.8031496062992126
        },
        {
          "duration": 0.10737698833334264,
          "durationTicks": 131,
          "midi": 36,
          "name": "C2",
          "ticks": 87900,
          "time": 72.0491395,
          "velocity": 0.8031496062992126
        },
        {
          "duration": 0.35327848833333064,
          "durationTicks": 431,
          "midi": 38,
          "name": "D2",
          "ticks": 88200,
          "time": 72.295041,
          "velocity": 0.8031496062992126
        },
        {
          "duration": 0.35327848833333064,
          "durationTicks": 431,
          "midi": 46,
          "name": "A#2",
          "ticks": 88200,
          "time": 72.295041,
          "velocity": 0.7165354330708661
        },
        {
          "duration": 0.10737698833332843,
          "durationTicks": 131,
          "midi": 36,
          "name": "C2",
          "ticks": 88500,
          "time": 72.5409425,
          "velocity": 0.8031496062992126
        },
        {
          "duration": 0.10737698833332843,
          "durationTicks": 131,
          "midi": 78,
          "name": "F#5",
          "ticks": 88800,
          "time": 72.786844,
          "velocity": 1
        },
        {
          "duration": 0.10737698833332843,
          "durationTicks": 131,
          "midi": 78,
          "name": "F#5",
          "ticks": 88800,
          "time": 72.786844,
          "velocity": 1
        },
        {
          "duration": 0.10737698833332843,
          "durationTicks": 131,
          "midi": 78,
          "name": "F#5",
          "ticks": 88800,
          "time": 72.786844,
          "velocity": 1
        },
        {
          "duration": 0.10737698833332843,
          "durationTicks": 131,
          "midi": 78,
          "name": "F#5",
          "ticks": 88800,
          "time": 72.786844,
          "velocity": 1
        },
        {
          "duration": 0.10737698833332843,
          "durationTicks": 131,
          "midi": 78,
          "name": "F#5",
          "ticks": 88800,
          "time": 72.786844,
          "velocity": 1
        },
        {
          "duration": 0.10737698833332843,
          "durationTicks": 131,
          "midi": 78,
          "name": "F#5",
          "ticks": 88800,
          "time": 72.786844,
          "velocity": 1
        },
        {
          "duration": 0.10737698833332843,
          "durationTicks": 131,
          "midi": 78,
          "name": "F#5",
          "ticks": 88800,
          "time": 72.786844,
          "velocity": 1
        },
        {
          "duration": 0.10737698833332843,
          "durationTicks": 131,
          "midi": 78,
          "name": "F#5",
          "ticks": 88800,
          "time": 72.786844,
          "velocity": 1
        },
        {
          "duration": 0.10737698833332843,
          "durationTicks": 131,
          "midi": 78,
          "name": "F#5",
          "ticks": 88800,
          "time": 72.786844,
          "velocity": 1
        },
        {
          "duration": 0.10737698833332843,
          "durationTicks": 131,
          "midi": 78,
          "name": "F#5",
          "ticks": 88800,
          "time": 72.786844,
          "velocity": 1
        },
        {
          "duration": 0.10737698833332843,
          "durationTicks": 131,
          "midi": 78,
          "name": "F#5",
          "ticks": 88800,
          "time": 72.786844,
          "velocity": 1
        },
        {
          "duration": 0.10737698833332843,
          "durationTicks": 131,
          "midi": 78,
          "name": "F#5",
          "ticks": 88800,
          "time": 72.786844,
          "velocity": 1
        },
        {
          "duration": 0.10737698833332843,
          "durationTicks": 131,
          "midi": 78,
          "name": "F#5",
          "ticks": 88800,
          "time": 72.786844,
          "velocity": 1
        },
        {
          "duration": 0.10737698833332843,
          "durationTicks": 131,
          "midi": 78,
          "name": "F#5",
          "ticks": 88800,
          "time": 72.786844,
          "velocity": 1
        },
        {
          "duration": 0.10737698833332843,
          "durationTicks": 131,
          "midi": 78,
          "name": "F#5",
          "ticks": 88800,
          "time": 72.786844,
          "velocity": 1
        },
        {
          "duration": 0.10737698833332843,
          "durationTicks": 131,
          "midi": 78,
          "name": "F#5",
          "ticks": 88800,
          "time": 72.786844,
          "velocity": 1
        },
        {
          "duration": 0.10737698833332843,
          "durationTicks": 131,
          "midi": 36,
          "name": "C2",
          "ticks": 88800,
          "time": 72.786844,
          "velocity": 0.7874015748031497
        },
        {
          "duration": 0.35327848833333064,
          "durationTicks": 431,
          "midi": 46,
          "name": "A#2",
          "ticks": 88800,
          "time": 72.786844,
          "velocity": 0.7007874015748031
        },
        {
          "duration": 0.10737698833332843,
          "durationTicks": 131,
          "midi": 36,
          "name": "C2",
          "ticks": 89100,
          "time": 73.0327455,
          "velocity": 0.7952755905511811
        },
        {
          "duration": 0.35327848833334485,
          "durationTicks": 431,
          "midi": 46,
          "name": "A#2",
          "ticks": 89400,
          "time": 73.27864699999999,
          "velocity": 0.7007874015748031
        },
        {
          "duration": 0.35327848833334485,
          "durationTicks": 431,
          "midi": 38,
          "name": "D2",
          "ticks": 89400,
          "time": 73.27864699999999,
          "velocity": 0.7952755905511811
        },
        {
          "duration": 0.10737698833334264,
          "durationTicks": 131,
          "midi": 36,
          "name": "C2",
          "ticks": 89700,
          "time": 73.5245485,
          "velocity": 0.7952755905511811
        },
        {
          "duration": 0.10737698833332843,
          "durationTicks": 131,
          "midi": 79,
          "name": "G5",
          "ticks": 90000,
          "time": 73.77045,
          "velocity": 1
        },
        {
          "duration": 0.10737698833332843,
          "durationTicks": 131,
          "midi": 79,
          "name": "G5",
          "ticks": 90000,
          "time": 73.77045,
          "velocity": 1
        },
        {
          "duration": 0.10737698833332843,
          "durationTicks": 131,
          "midi": 79,
          "name": "G5",
          "ticks": 90000,
          "time": 73.77045,
          "velocity": 1
        },
        {
          "duration": 0.10737698833332843,
          "durationTicks": 131,
          "midi": 79,
          "name": "G5",
          "ticks": 90000,
          "time": 73.77045,
          "velocity": 1
        },
        {
          "duration": 0.10737698833332843,
          "durationTicks": 131,
          "midi": 79,
          "name": "G5",
          "ticks": 90000,
          "time": 73.77045,
          "velocity": 1
        },
        {
          "duration": 0.10737698833332843,
          "durationTicks": 131,
          "midi": 79,
          "name": "G5",
          "ticks": 90000,
          "time": 73.77045,
          "velocity": 1
        },
        {
          "duration": 0.10737698833332843,
          "durationTicks": 131,
          "midi": 79,
          "name": "G5",
          "ticks": 90000,
          "time": 73.77045,
          "velocity": 1
        },
        {
          "duration": 0.10737698833332843,
          "durationTicks": 131,
          "midi": 79,
          "name": "G5",
          "ticks": 90000,
          "time": 73.77045,
          "velocity": 1
        },
        {
          "duration": 0.10737698833332843,
          "durationTicks": 131,
          "midi": 79,
          "name": "G5",
          "ticks": 90000,
          "time": 73.77045,
          "velocity": 1
        },
        {
          "duration": 0.10737698833332843,
          "durationTicks": 131,
          "midi": 79,
          "name": "G5",
          "ticks": 90000,
          "time": 73.77045,
          "velocity": 1
        },
        {
          "duration": 0.10737698833332843,
          "durationTicks": 131,
          "midi": 79,
          "name": "G5",
          "ticks": 90000,
          "time": 73.77045,
          "velocity": 1
        },
        {
          "duration": 0.10737698833332843,
          "durationTicks": 131,
          "midi": 79,
          "name": "G5",
          "ticks": 90000,
          "time": 73.77045,
          "velocity": 1
        },
        {
          "duration": 0.10737698833332843,
          "durationTicks": 131,
          "midi": 79,
          "name": "G5",
          "ticks": 90000,
          "time": 73.77045,
          "velocity": 1
        },
        {
          "duration": 0.10737698833332843,
          "durationTicks": 131,
          "midi": 79,
          "name": "G5",
          "ticks": 90000,
          "time": 73.77045,
          "velocity": 1
        },
        {
          "duration": 0.10737698833332843,
          "durationTicks": 131,
          "midi": 79,
          "name": "G5",
          "ticks": 90000,
          "time": 73.77045,
          "velocity": 1
        },
        {
          "duration": 0.10737698833332843,
          "durationTicks": 131,
          "midi": 79,
          "name": "G5",
          "ticks": 90000,
          "time": 73.77045,
          "velocity": 1
        },
        {
          "duration": 0.35327848833333064,
          "durationTicks": 431,
          "midi": 46,
          "name": "A#2",
          "ticks": 90000,
          "time": 73.77045,
          "velocity": 0.7086614173228346
        },
        {
          "duration": 0.10737698833332843,
          "durationTicks": 131,
          "midi": 36,
          "name": "C2",
          "ticks": 90000,
          "time": 73.77045,
          "velocity": 0.8031496062992126
        },
        {
          "duration": 0.10737698833332843,
          "durationTicks": 131,
          "midi": 36,
          "name": "C2",
          "ticks": 90300,
          "time": 74.0163515,
          "velocity": 0.8031496062992126
        },
        {
          "duration": 0.35327848833333064,
          "durationTicks": 431,
          "midi": 38,
          "name": "D2",
          "ticks": 90600,
          "time": 74.262253,
          "velocity": 0.8031496062992126
        },
        {
          "duration": 0.35327848833333064,
          "durationTicks": 431,
          "midi": 46,
          "name": "A#2",
          "ticks": 90600,
          "time": 74.262253,
          "velocity": 0.7165354330708661
        },
        {
          "duration": 0.10737698833332843,
          "durationTicks": 131,
          "midi": 36,
          "name": "C2",
          "ticks": 90900,
          "time": 74.5081545,
          "velocity": 0.8031496062992126
        },
        {
          "duration": 0.10737698833334264,
          "durationTicks": 131,
          "midi": 78,
          "name": "F#5",
          "ticks": 91200,
          "time": 74.75405599999999,
          "velocity": 1
        },
        {
          "duration": 0.10737698833334264,
          "durationTicks": 131,
          "midi": 78,
          "name": "F#5",
          "ticks": 91200,
          "time": 74.75405599999999,
          "velocity": 1
        },
        {
          "duration": 0.10737698833334264,
          "durationTicks": 131,
          "midi": 78,
          "name": "F#5",
          "ticks": 91200,
          "time": 74.75405599999999,
          "velocity": 1
        },
        {
          "duration": 0.10737698833334264,
          "durationTicks": 131,
          "midi": 78,
          "name": "F#5",
          "ticks": 91200,
          "time": 74.75405599999999,
          "velocity": 1
        },
        {
          "duration": 0.10737698833334264,
          "durationTicks": 131,
          "midi": 78,
          "name": "F#5",
          "ticks": 91200,
          "time": 74.75405599999999,
          "velocity": 1
        },
        {
          "duration": 0.10737698833334264,
          "durationTicks": 131,
          "midi": 78,
          "name": "F#5",
          "ticks": 91200,
          "time": 74.75405599999999,
          "velocity": 1
        },
        {
          "duration": 0.10737698833334264,
          "durationTicks": 131,
          "midi": 78,
          "name": "F#5",
          "ticks": 91200,
          "time": 74.75405599999999,
          "velocity": 1
        },
        {
          "duration": 0.10737698833334264,
          "durationTicks": 131,
          "midi": 78,
          "name": "F#5",
          "ticks": 91200,
          "time": 74.75405599999999,
          "velocity": 1
        },
        {
          "duration": 0.10737698833334264,
          "durationTicks": 131,
          "midi": 78,
          "name": "F#5",
          "ticks": 91200,
          "time": 74.75405599999999,
          "velocity": 1
        },
        {
          "duration": 0.10737698833334264,
          "durationTicks": 131,
          "midi": 78,
          "name": "F#5",
          "ticks": 91200,
          "time": 74.75405599999999,
          "velocity": 1
        },
        {
          "duration": 0.10737698833334264,
          "durationTicks": 131,
          "midi": 78,
          "name": "F#5",
          "ticks": 91200,
          "time": 74.75405599999999,
          "velocity": 1
        },
        {
          "duration": 0.10737698833334264,
          "durationTicks": 131,
          "midi": 78,
          "name": "F#5",
          "ticks": 91200,
          "time": 74.75405599999999,
          "velocity": 1
        },
        {
          "duration": 0.10737698833334264,
          "durationTicks": 131,
          "midi": 78,
          "name": "F#5",
          "ticks": 91200,
          "time": 74.75405599999999,
          "velocity": 1
        },
        {
          "duration": 0.10737698833334264,
          "durationTicks": 131,
          "midi": 78,
          "name": "F#5",
          "ticks": 91200,
          "time": 74.75405599999999,
          "velocity": 1
        },
        {
          "duration": 0.10737698833334264,
          "durationTicks": 131,
          "midi": 78,
          "name": "F#5",
          "ticks": 91200,
          "time": 74.75405599999999,
          "velocity": 1
        },
        {
          "duration": 0.10737698833334264,
          "durationTicks": 131,
          "midi": 78,
          "name": "F#5",
          "ticks": 91200,
          "time": 74.75405599999999,
          "velocity": 1
        },
        {
          "duration": 0.10737698833334264,
          "durationTicks": 131,
          "midi": 36,
          "name": "C2",
          "ticks": 91200,
          "time": 74.75405599999999,
          "velocity": 0.7874015748031497
        },
        {
          "duration": 0.35327848833334485,
          "durationTicks": 431,
          "midi": 46,
          "name": "A#2",
          "ticks": 91200,
          "time": 74.75405599999999,
          "velocity": 0.7007874015748031
        },
        {
          "duration": 0.10737698833334264,
          "durationTicks": 131,
          "midi": 36,
          "name": "C2",
          "ticks": 91500,
          "time": 74.9999575,
          "velocity": 0.7952755905511811
        },
        {
          "duration": 0.35327848833333064,
          "durationTicks": 431,
          "midi": 46,
          "name": "A#2",
          "ticks": 91800,
          "time": 75.245859,
          "velocity": 0.7007874015748031
        },
        {
          "duration": 0.35327848833333064,
          "durationTicks": 431,
          "midi": 38,
          "name": "D2",
          "ticks": 91800,
          "time": 75.245859,
          "velocity": 0.7952755905511811
        },
        {
          "duration": 0.10737698833332843,
          "durationTicks": 131,
          "midi": 36,
          "name": "C2",
          "ticks": 92100,
          "time": 75.4917605,
          "velocity": 0.7952755905511811
        },
        {
          "duration": 0.10737698833332843,
          "durationTicks": 131,
          "midi": 79,
          "name": "G5",
          "ticks": 92400,
          "time": 75.737662,
          "velocity": 1
        },
        {
          "duration": 0.10737698833332843,
          "durationTicks": 131,
          "midi": 79,
          "name": "G5",
          "ticks": 92400,
          "time": 75.737662,
          "velocity": 1
        },
        {
          "duration": 0.10737698833332843,
          "durationTicks": 131,
          "midi": 79,
          "name": "G5",
          "ticks": 92400,
          "time": 75.737662,
          "velocity": 1
        },
        {
          "duration": 0.10737698833332843,
          "durationTicks": 131,
          "midi": 79,
          "name": "G5",
          "ticks": 92400,
          "time": 75.737662,
          "velocity": 1
        },
        {
          "duration": 0.10737698833332843,
          "durationTicks": 131,
          "midi": 79,
          "name": "G5",
          "ticks": 92400,
          "time": 75.737662,
          "velocity": 1
        },
        {
          "duration": 0.10737698833332843,
          "durationTicks": 131,
          "midi": 79,
          "name": "G5",
          "ticks": 92400,
          "time": 75.737662,
          "velocity": 1
        },
        {
          "duration": 0.10737698833332843,
          "durationTicks": 131,
          "midi": 79,
          "name": "G5",
          "ticks": 92400,
          "time": 75.737662,
          "velocity": 1
        },
        {
          "duration": 0.10737698833332843,
          "durationTicks": 131,
          "midi": 79,
          "name": "G5",
          "ticks": 92400,
          "time": 75.737662,
          "velocity": 1
        },
        {
          "duration": 0.10737698833332843,
          "durationTicks": 131,
          "midi": 79,
          "name": "G5",
          "ticks": 92400,
          "time": 75.737662,
          "velocity": 1
        },
        {
          "duration": 0.10737698833332843,
          "durationTicks": 131,
          "midi": 79,
          "name": "G5",
          "ticks": 92400,
          "time": 75.737662,
          "velocity": 1
        },
        {
          "duration": 0.10737698833332843,
          "durationTicks": 131,
          "midi": 79,
          "name": "G5",
          "ticks": 92400,
          "time": 75.737662,
          "velocity": 1
        },
        {
          "duration": 0.10737698833332843,
          "durationTicks": 131,
          "midi": 79,
          "name": "G5",
          "ticks": 92400,
          "time": 75.737662,
          "velocity": 1
        },
        {
          "duration": 0.10737698833332843,
          "durationTicks": 131,
          "midi": 79,
          "name": "G5",
          "ticks": 92400,
          "time": 75.737662,
          "velocity": 1
        },
        {
          "duration": 0.10737698833332843,
          "durationTicks": 131,
          "midi": 79,
          "name": "G5",
          "ticks": 92400,
          "time": 75.737662,
          "velocity": 1
        },
        {
          "duration": 0.10737698833332843,
          "durationTicks": 131,
          "midi": 79,
          "name": "G5",
          "ticks": 92400,
          "time": 75.737662,
          "velocity": 1
        },
        {
          "duration": 0.10737698833332843,
          "durationTicks": 131,
          "midi": 79,
          "name": "G5",
          "ticks": 92400,
          "time": 75.737662,
          "velocity": 1
        },
        {
          "duration": 0.35327848833333064,
          "durationTicks": 431,
          "midi": 46,
          "name": "A#2",
          "ticks": 92400,
          "time": 75.737662,
          "velocity": 0.7086614173228346
        },
        {
          "duration": 0.10737698833332843,
          "durationTicks": 131,
          "midi": 36,
          "name": "C2",
          "ticks": 92400,
          "time": 75.737662,
          "velocity": 0.8031496062992126
        },
        {
          "duration": 0.10737698833332843,
          "durationTicks": 131,
          "midi": 36,
          "name": "C2",
          "ticks": 92700,
          "time": 75.9835635,
          "velocity": 0.8031496062992126
        },
        {
          "duration": 0.35327848833333064,
          "durationTicks": 431,
          "midi": 38,
          "name": "D2",
          "ticks": 93000,
          "time": 76.229465,
          "velocity": 0.8031496062992126
        },
        {
          "duration": 0.35327848833333064,
          "durationTicks": 431,
          "midi": 46,
          "name": "A#2",
          "ticks": 93000,
          "time": 76.229465,
          "velocity": 0.7165354330708661
        },
        {
          "duration": 0.10737698833334264,
          "durationTicks": 131,
          "midi": 36,
          "name": "C2",
          "ticks": 93300,
          "time": 76.47536649999999,
          "velocity": 0.8031496062992126
        },
        {
          "duration": 0.10737698833334264,
          "durationTicks": 131,
          "midi": 78,
          "name": "F#5",
          "ticks": 93600,
          "time": 76.721268,
          "velocity": 1
        },
        {
          "duration": 0.10737698833334264,
          "durationTicks": 131,
          "midi": 78,
          "name": "F#5",
          "ticks": 93600,
          "time": 76.721268,
          "velocity": 1
        },
        {
          "duration": 0.10737698833334264,
          "durationTicks": 131,
          "midi": 78,
          "name": "F#5",
          "ticks": 93600,
          "time": 76.721268,
          "velocity": 1
        },
        {
          "duration": 0.10737698833334264,
          "durationTicks": 131,
          "midi": 78,
          "name": "F#5",
          "ticks": 93600,
          "time": 76.721268,
          "velocity": 1
        },
        {
          "duration": 0.10737698833334264,
          "durationTicks": 131,
          "midi": 78,
          "name": "F#5",
          "ticks": 93600,
          "time": 76.721268,
          "velocity": 1
        },
        {
          "duration": 0.10737698833334264,
          "durationTicks": 131,
          "midi": 78,
          "name": "F#5",
          "ticks": 93600,
          "time": 76.721268,
          "velocity": 1
        },
        {
          "duration": 0.10737698833334264,
          "durationTicks": 131,
          "midi": 78,
          "name": "F#5",
          "ticks": 93600,
          "time": 76.721268,
          "velocity": 1
        },
        {
          "duration": 0.10737698833334264,
          "durationTicks": 131,
          "midi": 78,
          "name": "F#5",
          "ticks": 93600,
          "time": 76.721268,
          "velocity": 1
        },
        {
          "duration": 0.10737698833334264,
          "durationTicks": 131,
          "midi": 78,
          "name": "F#5",
          "ticks": 93600,
          "time": 76.721268,
          "velocity": 1
        },
        {
          "duration": 0.10737698833334264,
          "durationTicks": 131,
          "midi": 78,
          "name": "F#5",
          "ticks": 93600,
          "time": 76.721268,
          "velocity": 1
        },
        {
          "duration": 0.10737698833334264,
          "durationTicks": 131,
          "midi": 78,
          "name": "F#5",
          "ticks": 93600,
          "time": 76.721268,
          "velocity": 1
        },
        {
          "duration": 0.10737698833334264,
          "durationTicks": 131,
          "midi": 78,
          "name": "F#5",
          "ticks": 93600,
          "time": 76.721268,
          "velocity": 1
        },
        {
          "duration": 0.10737698833334264,
          "durationTicks": 131,
          "midi": 78,
          "name": "F#5",
          "ticks": 93600,
          "time": 76.721268,
          "velocity": 1
        },
        {
          "duration": 0.10737698833334264,
          "durationTicks": 131,
          "midi": 78,
          "name": "F#5",
          "ticks": 93600,
          "time": 76.721268,
          "velocity": 1
        },
        {
          "duration": 0.10737698833334264,
          "durationTicks": 131,
          "midi": 78,
          "name": "F#5",
          "ticks": 93600,
          "time": 76.721268,
          "velocity": 1
        },
        {
          "duration": 0.10737698833334264,
          "durationTicks": 131,
          "midi": 78,
          "name": "F#5",
          "ticks": 93600,
          "time": 76.721268,
          "velocity": 1
        },
        {
          "duration": 0.10737698833334264,
          "durationTicks": 131,
          "midi": 36,
          "name": "C2",
          "ticks": 93600,
          "time": 76.721268,
          "velocity": 0.7874015748031497
        },
        {
          "duration": 0.35327848833333064,
          "durationTicks": 431,
          "midi": 46,
          "name": "A#2",
          "ticks": 93600,
          "time": 76.721268,
          "velocity": 0.7007874015748031
        },
        {
          "duration": 0.10737698833332843,
          "durationTicks": 131,
          "midi": 36,
          "name": "C2",
          "ticks": 93900,
          "time": 76.9671695,
          "velocity": 0.7952755905511811
        },
        {
          "duration": 0.35327848833333064,
          "durationTicks": 431,
          "midi": 46,
          "name": "A#2",
          "ticks": 94200,
          "time": 77.213071,
          "velocity": 0.7007874015748031
        },
        {
          "duration": 0.35327848833333064,
          "durationTicks": 431,
          "midi": 38,
          "name": "D2",
          "ticks": 94200,
          "time": 77.213071,
          "velocity": 0.7952755905511811
        },
        {
          "duration": 0.10737698833332843,
          "durationTicks": 131,
          "midi": 36,
          "name": "C2",
          "ticks": 94500,
          "time": 77.4589725,
          "velocity": 0.7952755905511811
        },
        {
          "duration": 0.35327848833333064,
          "durationTicks": 431,
          "midi": 38,
          "name": "D2",
          "ticks": 94800,
          "time": 77.704874,
          "velocity": 0.8031496062992126
        },
        {
          "duration": 0.35327848833333064,
          "durationTicks": 431,
          "midi": 46,
          "name": "A#2",
          "ticks": 94800,
          "time": 77.704874,
          "velocity": 0.7165354330708661
        },
        {
          "duration": 0.10737698833334264,
          "durationTicks": 131,
          "midi": 36,
          "name": "C2",
          "ticks": 95100,
          "time": 77.95077549999999,
          "velocity": 0.8031496062992126
        },
        {
          "duration": 0.35327848833334485,
          "durationTicks": 431,
          "midi": 38,
          "name": "D2",
          "ticks": 95250,
          "time": 78.07372624999999,
          "velocity": 0.8031496062992126
        },
        {
          "duration": 0.35327848833334485,
          "durationTicks": 431,
          "midi": 46,
          "name": "A#2",
          "ticks": 95250,
          "time": 78.07372624999999,
          "velocity": 0.7165354330708661
        },
        {
          "duration": 0.10737698833334264,
          "durationTicks": 131,
          "midi": 36,
          "name": "C2",
          "ticks": 95550,
          "time": 78.31962775,
          "velocity": 0.8031496062992126
        },
        {
          "duration": 0.24590150000000222,
          "durationTicks": 300,
          "midi": 38,
          "name": "D2",
          "ticks": 95700,
          "time": 78.4425785,
          "velocity": 0.8031496062992126
        },
        {
          "duration": 0.24590150000000222,
          "durationTicks": 300,
          "midi": 46,
          "name": "A#2",
          "ticks": 95700,
          "time": 78.4425785,
          "velocity": 0.7165354330708661
        },
        {
          "duration": 0.10737698833332843,
          "durationTicks": 131,
          "midi": 78,
          "name": "F#5",
          "ticks": 96000,
          "time": 78.68848,
          "velocity": 1
        },
        {
          "duration": 0.10737698833332843,
          "durationTicks": 131,
          "midi": 78,
          "name": "F#5",
          "ticks": 96000,
          "time": 78.68848,
          "velocity": 1
        },
        {
          "duration": 0.10737698833332843,
          "durationTicks": 131,
          "midi": 78,
          "name": "F#5",
          "ticks": 96000,
          "time": 78.68848,
          "velocity": 1
        },
        {
          "duration": 0.10737698833332843,
          "durationTicks": 131,
          "midi": 78,
          "name": "F#5",
          "ticks": 96000,
          "time": 78.68848,
          "velocity": 1
        },
        {
          "duration": 0.10737698833332843,
          "durationTicks": 131,
          "midi": 78,
          "name": "F#5",
          "ticks": 96000,
          "time": 78.68848,
          "velocity": 1
        },
        {
          "duration": 0.10737698833332843,
          "durationTicks": 131,
          "midi": 78,
          "name": "F#5",
          "ticks": 96000,
          "time": 78.68848,
          "velocity": 1
        },
        {
          "duration": 0.10737698833332843,
          "durationTicks": 131,
          "midi": 78,
          "name": "F#5",
          "ticks": 96000,
          "time": 78.68848,
          "velocity": 1
        },
        {
          "duration": 0.10737698833332843,
          "durationTicks": 131,
          "midi": 78,
          "name": "F#5",
          "ticks": 96000,
          "time": 78.68848,
          "velocity": 1
        },
        {
          "duration": 0.10737698833332843,
          "durationTicks": 131,
          "midi": 78,
          "name": "F#5",
          "ticks": 96000,
          "time": 78.68848,
          "velocity": 1
        },
        {
          "duration": 0.10737698833332843,
          "durationTicks": 131,
          "midi": 78,
          "name": "F#5",
          "ticks": 96000,
          "time": 78.68848,
          "velocity": 1
        },
        {
          "duration": 0.10737698833332843,
          "durationTicks": 131,
          "midi": 78,
          "name": "F#5",
          "ticks": 96000,
          "time": 78.68848,
          "velocity": 1
        },
        {
          "duration": 0.10737698833332843,
          "durationTicks": 131,
          "midi": 78,
          "name": "F#5",
          "ticks": 96000,
          "time": 78.68848,
          "velocity": 1
        },
        {
          "duration": 0.10737698833332843,
          "durationTicks": 131,
          "midi": 78,
          "name": "F#5",
          "ticks": 96000,
          "time": 78.68848,
          "velocity": 1
        },
        {
          "duration": 0.10737698833332843,
          "durationTicks": 131,
          "midi": 78,
          "name": "F#5",
          "ticks": 96000,
          "time": 78.68848,
          "velocity": 1
        },
        {
          "duration": 0.10737698833332843,
          "durationTicks": 131,
          "midi": 78,
          "name": "F#5",
          "ticks": 96000,
          "time": 78.68848,
          "velocity": 1
        },
        {
          "duration": 0.10737698833332843,
          "durationTicks": 131,
          "midi": 78,
          "name": "F#5",
          "ticks": 96000,
          "time": 78.68848,
          "velocity": 1
        },
        {
          "duration": 0.10737698833332843,
          "durationTicks": 131,
          "midi": 36,
          "name": "C2",
          "ticks": 96000,
          "time": 78.68848,
          "velocity": 0.7874015748031497
        },
        {
          "duration": 0.35327848833333064,
          "durationTicks": 431,
          "midi": 46,
          "name": "A#2",
          "ticks": 96000,
          "time": 78.68848,
          "velocity": 0.7007874015748031
        },
        {
          "duration": 0.10737698833332843,
          "durationTicks": 131,
          "midi": 36,
          "name": "C2",
          "ticks": 96300,
          "time": 78.9343815,
          "velocity": 0.7952755905511811
        },
        {
          "duration": 0.35327848833333064,
          "durationTicks": 431,
          "midi": 46,
          "name": "A#2",
          "ticks": 96600,
          "time": 79.180283,
          "velocity": 0.7007874015748031
        },
        {
          "duration": 0.35327848833333064,
          "durationTicks": 431,
          "midi": 38,
          "name": "D2",
          "ticks": 96600,
          "time": 79.180283,
          "velocity": 0.7952755905511811
        },
        {
          "duration": 0.10737698833332843,
          "durationTicks": 131,
          "midi": 36,
          "name": "C2",
          "ticks": 96900,
          "time": 79.4261845,
          "velocity": 0.7952755905511811
        },
        {
          "duration": 0.10737698833334264,
          "durationTicks": 131,
          "midi": 79,
          "name": "G5",
          "ticks": 97200,
          "time": 79.672086,
          "velocity": 1
        },
        {
          "duration": 0.10737698833334264,
          "durationTicks": 131,
          "midi": 79,
          "name": "G5",
          "ticks": 97200,
          "time": 79.672086,
          "velocity": 1
        },
        {
          "duration": 0.10737698833334264,
          "durationTicks": 131,
          "midi": 79,
          "name": "G5",
          "ticks": 97200,
          "time": 79.672086,
          "velocity": 1
        },
        {
          "duration": 0.10737698833334264,
          "durationTicks": 131,
          "midi": 79,
          "name": "G5",
          "ticks": 97200,
          "time": 79.672086,
          "velocity": 1
        },
        {
          "duration": 0.10737698833334264,
          "durationTicks": 131,
          "midi": 79,
          "name": "G5",
          "ticks": 97200,
          "time": 79.672086,
          "velocity": 1
        },
        {
          "duration": 0.10737698833334264,
          "durationTicks": 131,
          "midi": 79,
          "name": "G5",
          "ticks": 97200,
          "time": 79.672086,
          "velocity": 1
        },
        {
          "duration": 0.10737698833334264,
          "durationTicks": 131,
          "midi": 79,
          "name": "G5",
          "ticks": 97200,
          "time": 79.672086,
          "velocity": 1
        },
        {
          "duration": 0.10737698833334264,
          "durationTicks": 131,
          "midi": 79,
          "name": "G5",
          "ticks": 97200,
          "time": 79.672086,
          "velocity": 1
        },
        {
          "duration": 0.10737698833334264,
          "durationTicks": 131,
          "midi": 79,
          "name": "G5",
          "ticks": 97200,
          "time": 79.672086,
          "velocity": 1
        },
        {
          "duration": 0.10737698833334264,
          "durationTicks": 131,
          "midi": 79,
          "name": "G5",
          "ticks": 97200,
          "time": 79.672086,
          "velocity": 1
        },
        {
          "duration": 0.10737698833334264,
          "durationTicks": 131,
          "midi": 79,
          "name": "G5",
          "ticks": 97200,
          "time": 79.672086,
          "velocity": 1
        },
        {
          "duration": 0.10737698833334264,
          "durationTicks": 131,
          "midi": 79,
          "name": "G5",
          "ticks": 97200,
          "time": 79.672086,
          "velocity": 1
        },
        {
          "duration": 0.10737698833334264,
          "durationTicks": 131,
          "midi": 79,
          "name": "G5",
          "ticks": 97200,
          "time": 79.672086,
          "velocity": 1
        },
        {
          "duration": 0.10737698833334264,
          "durationTicks": 131,
          "midi": 79,
          "name": "G5",
          "ticks": 97200,
          "time": 79.672086,
          "velocity": 1
        },
        {
          "duration": 0.10737698833334264,
          "durationTicks": 131,
          "midi": 79,
          "name": "G5",
          "ticks": 97200,
          "time": 79.672086,
          "velocity": 1
        },
        {
          "duration": 0.10737698833334264,
          "durationTicks": 131,
          "midi": 79,
          "name": "G5",
          "ticks": 97200,
          "time": 79.672086,
          "velocity": 1
        },
        {
          "duration": 0.35327848833334485,
          "durationTicks": 431,
          "midi": 46,
          "name": "A#2",
          "ticks": 97200,
          "time": 79.672086,
          "velocity": 0.7086614173228346
        },
        {
          "duration": 0.10737698833334264,
          "durationTicks": 131,
          "midi": 36,
          "name": "C2",
          "ticks": 97200,
          "time": 79.672086,
          "velocity": 0.8031496062992126
        },
        {
          "duration": 0.10737698833334264,
          "durationTicks": 131,
          "midi": 36,
          "name": "C2",
          "ticks": 97500,
          "time": 79.9179875,
          "velocity": 0.8031496062992126
        },
        {
          "duration": 0.35327848833333064,
          "durationTicks": 431,
          "midi": 38,
          "name": "D2",
          "ticks": 97800,
          "time": 80.163889,
          "velocity": 0.8031496062992126
        },
        {
          "duration": 0.35327848833333064,
          "durationTicks": 431,
          "midi": 46,
          "name": "A#2",
          "ticks": 97800,
          "time": 80.163889,
          "velocity": 0.7165354330708661
        },
        {
          "duration": 0.10737698833332843,
          "durationTicks": 131,
          "midi": 36,
          "name": "C2",
          "ticks": 98100,
          "time": 80.4097905,
          "velocity": 0.8031496062992126
        },
        {
          "duration": 0.10737698833332843,
          "durationTicks": 131,
          "midi": 78,
          "name": "F#5",
          "ticks": 98400,
          "time": 80.655692,
          "velocity": 1
        },
        {
          "duration": 0.10737698833332843,
          "durationTicks": 131,
          "midi": 78,
          "name": "F#5",
          "ticks": 98400,
          "time": 80.655692,
          "velocity": 1
        },
        {
          "duration": 0.10737698833332843,
          "durationTicks": 131,
          "midi": 78,
          "name": "F#5",
          "ticks": 98400,
          "time": 80.655692,
          "velocity": 1
        },
        {
          "duration": 0.10737698833332843,
          "durationTicks": 131,
          "midi": 78,
          "name": "F#5",
          "ticks": 98400,
          "time": 80.655692,
          "velocity": 1
        },
        {
          "duration": 0.10737698833332843,
          "durationTicks": 131,
          "midi": 78,
          "name": "F#5",
          "ticks": 98400,
          "time": 80.655692,
          "velocity": 1
        },
        {
          "duration": 0.10737698833332843,
          "durationTicks": 131,
          "midi": 78,
          "name": "F#5",
          "ticks": 98400,
          "time": 80.655692,
          "velocity": 1
        },
        {
          "duration": 0.10737698833332843,
          "durationTicks": 131,
          "midi": 78,
          "name": "F#5",
          "ticks": 98400,
          "time": 80.655692,
          "velocity": 1
        },
        {
          "duration": 0.10737698833332843,
          "durationTicks": 131,
          "midi": 78,
          "name": "F#5",
          "ticks": 98400,
          "time": 80.655692,
          "velocity": 1
        },
        {
          "duration": 0.10737698833332843,
          "durationTicks": 131,
          "midi": 78,
          "name": "F#5",
          "ticks": 98400,
          "time": 80.655692,
          "velocity": 1
        },
        {
          "duration": 0.10737698833332843,
          "durationTicks": 131,
          "midi": 78,
          "name": "F#5",
          "ticks": 98400,
          "time": 80.655692,
          "velocity": 1
        },
        {
          "duration": 0.10737698833332843,
          "durationTicks": 131,
          "midi": 78,
          "name": "F#5",
          "ticks": 98400,
          "time": 80.655692,
          "velocity": 1
        },
        {
          "duration": 0.10737698833332843,
          "durationTicks": 131,
          "midi": 78,
          "name": "F#5",
          "ticks": 98400,
          "time": 80.655692,
          "velocity": 1
        },
        {
          "duration": 0.10737698833332843,
          "durationTicks": 131,
          "midi": 78,
          "name": "F#5",
          "ticks": 98400,
          "time": 80.655692,
          "velocity": 1
        },
        {
          "duration": 0.10737698833332843,
          "durationTicks": 131,
          "midi": 78,
          "name": "F#5",
          "ticks": 98400,
          "time": 80.655692,
          "velocity": 1
        },
        {
          "duration": 0.10737698833332843,
          "durationTicks": 131,
          "midi": 78,
          "name": "F#5",
          "ticks": 98400,
          "time": 80.655692,
          "velocity": 1
        },
        {
          "duration": 0.10737698833332843,
          "durationTicks": 131,
          "midi": 78,
          "name": "F#5",
          "ticks": 98400,
          "time": 80.655692,
          "velocity": 1
        },
        {
          "duration": 0.10737698833332843,
          "durationTicks": 131,
          "midi": 36,
          "name": "C2",
          "ticks": 98400,
          "time": 80.655692,
          "velocity": 0.7874015748031497
        },
        {
          "duration": 0.35327848833333064,
          "durationTicks": 431,
          "midi": 46,
          "name": "A#2",
          "ticks": 98400,
          "time": 80.655692,
          "velocity": 0.7007874015748031
        },
        {
          "duration": 0.10737698833332843,
          "durationTicks": 131,
          "midi": 36,
          "name": "C2",
          "ticks": 98700,
          "time": 80.9015935,
          "velocity": 0.7952755905511811
        },
        {
          "duration": 0.35327848833334485,
          "durationTicks": 431,
          "midi": 46,
          "name": "A#2",
          "ticks": 99000,
          "time": 81.14749499999999,
          "velocity": 0.7007874015748031
        },
        {
          "duration": 0.35327848833334485,
          "durationTicks": 431,
          "midi": 38,
          "name": "D2",
          "ticks": 99000,
          "time": 81.14749499999999,
          "velocity": 0.7952755905511811
        },
        {
          "duration": 0.10737698833334264,
          "durationTicks": 131,
          "midi": 36,
          "name": "C2",
          "ticks": 99300,
          "time": 81.3933965,
          "velocity": 0.7952755905511811
        },
        {
          "duration": 0.10737698833332843,
          "durationTicks": 131,
          "midi": 79,
          "name": "G5",
          "ticks": 99600,
          "time": 81.639298,
          "velocity": 1
        },
        {
          "duration": 0.10737698833332843,
          "durationTicks": 131,
          "midi": 79,
          "name": "G5",
          "ticks": 99600,
          "time": 81.639298,
          "velocity": 1
        },
        {
          "duration": 0.10737698833332843,
          "durationTicks": 131,
          "midi": 79,
          "name": "G5",
          "ticks": 99600,
          "time": 81.639298,
          "velocity": 1
        },
        {
          "duration": 0.10737698833332843,
          "durationTicks": 131,
          "midi": 79,
          "name": "G5",
          "ticks": 99600,
          "time": 81.639298,
          "velocity": 1
        },
        {
          "duration": 0.10737698833332843,
          "durationTicks": 131,
          "midi": 79,
          "name": "G5",
          "ticks": 99600,
          "time": 81.639298,
          "velocity": 1
        },
        {
          "duration": 0.10737698833332843,
          "durationTicks": 131,
          "midi": 79,
          "name": "G5",
          "ticks": 99600,
          "time": 81.639298,
          "velocity": 1
        },
        {
          "duration": 0.10737698833332843,
          "durationTicks": 131,
          "midi": 79,
          "name": "G5",
          "ticks": 99600,
          "time": 81.639298,
          "velocity": 1
        },
        {
          "duration": 0.10737698833332843,
          "durationTicks": 131,
          "midi": 79,
          "name": "G5",
          "ticks": 99600,
          "time": 81.639298,
          "velocity": 1
        },
        {
          "duration": 0.10737698833332843,
          "durationTicks": 131,
          "midi": 79,
          "name": "G5",
          "ticks": 99600,
          "time": 81.639298,
          "velocity": 1
        },
        {
          "duration": 0.10737698833332843,
          "durationTicks": 131,
          "midi": 79,
          "name": "G5",
          "ticks": 99600,
          "time": 81.639298,
          "velocity": 1
        },
        {
          "duration": 0.10737698833332843,
          "durationTicks": 131,
          "midi": 79,
          "name": "G5",
          "ticks": 99600,
          "time": 81.639298,
          "velocity": 1
        },
        {
          "duration": 0.10737698833332843,
          "durationTicks": 131,
          "midi": 79,
          "name": "G5",
          "ticks": 99600,
          "time": 81.639298,
          "velocity": 1
        },
        {
          "duration": 0.10737698833332843,
          "durationTicks": 131,
          "midi": 79,
          "name": "G5",
          "ticks": 99600,
          "time": 81.639298,
          "velocity": 1
        },
        {
          "duration": 0.10737698833332843,
          "durationTicks": 131,
          "midi": 79,
          "name": "G5",
          "ticks": 99600,
          "time": 81.639298,
          "velocity": 1
        },
        {
          "duration": 0.10737698833332843,
          "durationTicks": 131,
          "midi": 79,
          "name": "G5",
          "ticks": 99600,
          "time": 81.639298,
          "velocity": 1
        },
        {
          "duration": 0.10737698833332843,
          "durationTicks": 131,
          "midi": 79,
          "name": "G5",
          "ticks": 99600,
          "time": 81.639298,
          "velocity": 1
        },
        {
          "duration": 0.35327848833333064,
          "durationTicks": 431,
          "midi": 46,
          "name": "A#2",
          "ticks": 99600,
          "time": 81.639298,
          "velocity": 0.7086614173228346
        },
        {
          "duration": 0.10737698833332843,
          "durationTicks": 131,
          "midi": 36,
          "name": "C2",
          "ticks": 99600,
          "time": 81.639298,
          "velocity": 0.8031496062992126
        },
        {
          "duration": 0.10737698833332843,
          "durationTicks": 131,
          "midi": 36,
          "name": "C2",
          "ticks": 99900,
          "time": 81.8851995,
          "velocity": 0.8031496062992126
        },
        {
          "duration": 0.35327848833333064,
          "durationTicks": 431,
          "midi": 38,
          "name": "D2",
          "ticks": 100200,
          "time": 82.131101,
          "velocity": 0.8031496062992126
        },
        {
          "duration": 0.35327848833333064,
          "durationTicks": 431,
          "midi": 46,
          "name": "A#2",
          "ticks": 100200,
          "time": 82.131101,
          "velocity": 0.7165354330708661
        },
        {
          "duration": 0.10737698833332843,
          "durationTicks": 131,
          "midi": 36,
          "name": "C2",
          "ticks": 100500,
          "time": 82.3770025,
          "velocity": 0.8031496062992126
        },
        {
          "duration": 0.10737698833332843,
          "durationTicks": 131,
          "midi": 78,
          "name": "F#5",
          "ticks": 100800,
          "time": 82.622904,
          "velocity": 1
        },
        {
          "duration": 0.10737698833332843,
          "durationTicks": 131,
          "midi": 78,
          "name": "F#5",
          "ticks": 100800,
          "time": 82.622904,
          "velocity": 1
        },
        {
          "duration": 0.10737698833332843,
          "durationTicks": 131,
          "midi": 78,
          "name": "F#5",
          "ticks": 100800,
          "time": 82.622904,
          "velocity": 1
        },
        {
          "duration": 0.10737698833332843,
          "durationTicks": 131,
          "midi": 78,
          "name": "F#5",
          "ticks": 100800,
          "time": 82.622904,
          "velocity": 1
        },
        {
          "duration": 0.10737698833332843,
          "durationTicks": 131,
          "midi": 78,
          "name": "F#5",
          "ticks": 100800,
          "time": 82.622904,
          "velocity": 1
        },
        {
          "duration": 0.10737698833332843,
          "durationTicks": 131,
          "midi": 78,
          "name": "F#5",
          "ticks": 100800,
          "time": 82.622904,
          "velocity": 1
        },
        {
          "duration": 0.10737698833332843,
          "durationTicks": 131,
          "midi": 78,
          "name": "F#5",
          "ticks": 100800,
          "time": 82.622904,
          "velocity": 1
        },
        {
          "duration": 0.10737698833332843,
          "durationTicks": 131,
          "midi": 78,
          "name": "F#5",
          "ticks": 100800,
          "time": 82.622904,
          "velocity": 1
        },
        {
          "duration": 0.10737698833332843,
          "durationTicks": 131,
          "midi": 78,
          "name": "F#5",
          "ticks": 100800,
          "time": 82.622904,
          "velocity": 1
        },
        {
          "duration": 0.10737698833332843,
          "durationTicks": 131,
          "midi": 78,
          "name": "F#5",
          "ticks": 100800,
          "time": 82.622904,
          "velocity": 1
        },
        {
          "duration": 0.10737698833332843,
          "durationTicks": 131,
          "midi": 78,
          "name": "F#5",
          "ticks": 100800,
          "time": 82.622904,
          "velocity": 1
        },
        {
          "duration": 0.10737698833332843,
          "durationTicks": 131,
          "midi": 78,
          "name": "F#5",
          "ticks": 100800,
          "time": 82.622904,
          "velocity": 1
        },
        {
          "duration": 0.10737698833332843,
          "durationTicks": 131,
          "midi": 78,
          "name": "F#5",
          "ticks": 100800,
          "time": 82.622904,
          "velocity": 1
        },
        {
          "duration": 0.10737698833332843,
          "durationTicks": 131,
          "midi": 78,
          "name": "F#5",
          "ticks": 100800,
          "time": 82.622904,
          "velocity": 1
        },
        {
          "duration": 0.10737698833332843,
          "durationTicks": 131,
          "midi": 78,
          "name": "F#5",
          "ticks": 100800,
          "time": 82.622904,
          "velocity": 1
        },
        {
          "duration": 0.10737698833332843,
          "durationTicks": 131,
          "midi": 78,
          "name": "F#5",
          "ticks": 100800,
          "time": 82.622904,
          "velocity": 1
        },
        {
          "duration": 0.10737698833332843,
          "durationTicks": 131,
          "midi": 36,
          "name": "C2",
          "ticks": 100800,
          "time": 82.622904,
          "velocity": 0.7874015748031497
        },
        {
          "duration": 0.35327848833333064,
          "durationTicks": 431,
          "midi": 46,
          "name": "A#2",
          "ticks": 100800,
          "time": 82.622904,
          "velocity": 0.7007874015748031
        },
        {
          "duration": 0.10737698833334264,
          "durationTicks": 131,
          "midi": 36,
          "name": "C2",
          "ticks": 101100,
          "time": 82.8688055,
          "velocity": 0.7952755905511811
        },
        {
          "duration": 0.35327848833333064,
          "durationTicks": 431,
          "midi": 46,
          "name": "A#2",
          "ticks": 101400,
          "time": 83.114707,
          "velocity": 0.7007874015748031
        },
        {
          "duration": 0.35327848833333064,
          "durationTicks": 431,
          "midi": 38,
          "name": "D2",
          "ticks": 101400,
          "time": 83.114707,
          "velocity": 0.7952755905511811
        },
        {
          "duration": 0.10737698833332843,
          "durationTicks": 131,
          "midi": 36,
          "name": "C2",
          "ticks": 101700,
          "time": 83.3606085,
          "velocity": 0.7952755905511811
        },
        {
          "duration": 0.10737698833332843,
          "durationTicks": 131,
          "midi": 79,
          "name": "G5",
          "ticks": 102000,
          "time": 83.60651,
          "velocity": 1
        },
        {
          "duration": 0.10737698833332843,
          "durationTicks": 131,
          "midi": 79,
          "name": "G5",
          "ticks": 102000,
          "time": 83.60651,
          "velocity": 1
        },
        {
          "duration": 0.10737698833332843,
          "durationTicks": 131,
          "midi": 79,
          "name": "G5",
          "ticks": 102000,
          "time": 83.60651,
          "velocity": 1
        },
        {
          "duration": 0.10737698833332843,
          "durationTicks": 131,
          "midi": 79,
          "name": "G5",
          "ticks": 102000,
          "time": 83.60651,
          "velocity": 1
        },
        {
          "duration": 0.10737698833332843,
          "durationTicks": 131,
          "midi": 79,
          "name": "G5",
          "ticks": 102000,
          "time": 83.60651,
          "velocity": 1
        },
        {
          "duration": 0.10737698833332843,
          "durationTicks": 131,
          "midi": 79,
          "name": "G5",
          "ticks": 102000,
          "time": 83.60651,
          "velocity": 1
        },
        {
          "duration": 0.10737698833332843,
          "durationTicks": 131,
          "midi": 79,
          "name": "G5",
          "ticks": 102000,
          "time": 83.60651,
          "velocity": 1
        },
        {
          "duration": 0.10737698833332843,
          "durationTicks": 131,
          "midi": 79,
          "name": "G5",
          "ticks": 102000,
          "time": 83.60651,
          "velocity": 1
        },
        {
          "duration": 0.10737698833332843,
          "durationTicks": 131,
          "midi": 79,
          "name": "G5",
          "ticks": 102000,
          "time": 83.60651,
          "velocity": 1
        },
        {
          "duration": 0.10737698833332843,
          "durationTicks": 131,
          "midi": 79,
          "name": "G5",
          "ticks": 102000,
          "time": 83.60651,
          "velocity": 1
        },
        {
          "duration": 0.10737698833332843,
          "durationTicks": 131,
          "midi": 79,
          "name": "G5",
          "ticks": 102000,
          "time": 83.60651,
          "velocity": 1
        },
        {
          "duration": 0.10737698833332843,
          "durationTicks": 131,
          "midi": 79,
          "name": "G5",
          "ticks": 102000,
          "time": 83.60651,
          "velocity": 1
        },
        {
          "duration": 0.10737698833332843,
          "durationTicks": 131,
          "midi": 79,
          "name": "G5",
          "ticks": 102000,
          "time": 83.60651,
          "velocity": 1
        },
        {
          "duration": 0.10737698833332843,
          "durationTicks": 131,
          "midi": 79,
          "name": "G5",
          "ticks": 102000,
          "time": 83.60651,
          "velocity": 1
        },
        {
          "duration": 0.10737698833332843,
          "durationTicks": 131,
          "midi": 79,
          "name": "G5",
          "ticks": 102000,
          "time": 83.60651,
          "velocity": 1
        },
        {
          "duration": 0.10737698833332843,
          "durationTicks": 131,
          "midi": 79,
          "name": "G5",
          "ticks": 102000,
          "time": 83.60651,
          "velocity": 1
        },
        {
          "duration": 0.35327848833333064,
          "durationTicks": 431,
          "midi": 46,
          "name": "A#2",
          "ticks": 102000,
          "time": 83.60651,
          "velocity": 0.7086614173228346
        },
        {
          "duration": 0.10737698833332843,
          "durationTicks": 131,
          "midi": 36,
          "name": "C2",
          "ticks": 102000,
          "time": 83.60651,
          "velocity": 0.8031496062992126
        },
        {
          "duration": 0.10737698833332843,
          "durationTicks": 131,
          "midi": 36,
          "name": "C2",
          "ticks": 102300,
          "time": 83.8524115,
          "velocity": 0.8031496062992126
        },
        {
          "duration": 0.35327848833333064,
          "durationTicks": 431,
          "midi": 38,
          "name": "D2",
          "ticks": 102600,
          "time": 84.098313,
          "velocity": 0.8031496062992126
        },
        {
          "duration": 0.35327848833333064,
          "durationTicks": 431,
          "midi": 46,
          "name": "A#2",
          "ticks": 102600,
          "time": 84.098313,
          "velocity": 0.7165354330708661
        },
        {
          "duration": 0.10737698833334264,
          "durationTicks": 131,
          "midi": 36,
          "name": "C2",
          "ticks": 102900,
          "time": 84.34421449999999,
          "velocity": 0.8031496062992126
        },
        {
          "duration": 0.10737698833334264,
          "durationTicks": 131,
          "midi": 78,
          "name": "F#5",
          "ticks": 103200,
          "time": 84.590116,
          "velocity": 1
        },
        {
          "duration": 0.10737698833334264,
          "durationTicks": 131,
          "midi": 78,
          "name": "F#5",
          "ticks": 103200,
          "time": 84.590116,
          "velocity": 1
        },
        {
          "duration": 0.10737698833334264,
          "durationTicks": 131,
          "midi": 78,
          "name": "F#5",
          "ticks": 103200,
          "time": 84.590116,
          "velocity": 1
        },
        {
          "duration": 0.10737698833334264,
          "durationTicks": 131,
          "midi": 78,
          "name": "F#5",
          "ticks": 103200,
          "time": 84.590116,
          "velocity": 1
        },
        {
          "duration": 0.10737698833334264,
          "durationTicks": 131,
          "midi": 78,
          "name": "F#5",
          "ticks": 103200,
          "time": 84.590116,
          "velocity": 1
        },
        {
          "duration": 0.10737698833334264,
          "durationTicks": 131,
          "midi": 78,
          "name": "F#5",
          "ticks": 103200,
          "time": 84.590116,
          "velocity": 1
        },
        {
          "duration": 0.10737698833334264,
          "durationTicks": 131,
          "midi": 78,
          "name": "F#5",
          "ticks": 103200,
          "time": 84.590116,
          "velocity": 1
        },
        {
          "duration": 0.10737698833334264,
          "durationTicks": 131,
          "midi": 78,
          "name": "F#5",
          "ticks": 103200,
          "time": 84.590116,
          "velocity": 1
        },
        {
          "duration": 0.10737698833334264,
          "durationTicks": 131,
          "midi": 78,
          "name": "F#5",
          "ticks": 103200,
          "time": 84.590116,
          "velocity": 1
        },
        {
          "duration": 0.10737698833334264,
          "durationTicks": 131,
          "midi": 78,
          "name": "F#5",
          "ticks": 103200,
          "time": 84.590116,
          "velocity": 1
        },
        {
          "duration": 0.10737698833334264,
          "durationTicks": 131,
          "midi": 78,
          "name": "F#5",
          "ticks": 103200,
          "time": 84.590116,
          "velocity": 1
        },
        {
          "duration": 0.10737698833334264,
          "durationTicks": 131,
          "midi": 78,
          "name": "F#5",
          "ticks": 103200,
          "time": 84.590116,
          "velocity": 1
        },
        {
          "duration": 0.10737698833334264,
          "durationTicks": 131,
          "midi": 78,
          "name": "F#5",
          "ticks": 103200,
          "time": 84.590116,
          "velocity": 1
        },
        {
          "duration": 0.10737698833334264,
          "durationTicks": 131,
          "midi": 78,
          "name": "F#5",
          "ticks": 103200,
          "time": 84.590116,
          "velocity": 1
        },
        {
          "duration": 0.10737698833334264,
          "durationTicks": 131,
          "midi": 78,
          "name": "F#5",
          "ticks": 103200,
          "time": 84.590116,
          "velocity": 1
        },
        {
          "duration": 0.10737698833334264,
          "durationTicks": 131,
          "midi": 78,
          "name": "F#5",
          "ticks": 103200,
          "time": 84.590116,
          "velocity": 1
        },
        {
          "duration": 0.10737698833334264,
          "durationTicks": 131,
          "midi": 36,
          "name": "C2",
          "ticks": 103200,
          "time": 84.590116,
          "velocity": 0.7874015748031497
        },
        {
          "duration": 0.35327848833333064,
          "durationTicks": 431,
          "midi": 46,
          "name": "A#2",
          "ticks": 103200,
          "time": 84.590116,
          "velocity": 0.7007874015748031
        },
        {
          "duration": 0.10737698833332843,
          "durationTicks": 131,
          "midi": 36,
          "name": "C2",
          "ticks": 103500,
          "time": 84.8360175,
          "velocity": 0.7952755905511811
        },
        {
          "duration": 0.35327848833333064,
          "durationTicks": 431,
          "midi": 46,
          "name": "A#2",
          "ticks": 103800,
          "time": 85.081919,
          "velocity": 0.7007874015748031
        },
        {
          "duration": 0.35327848833333064,
          "durationTicks": 431,
          "midi": 38,
          "name": "D2",
          "ticks": 103800,
          "time": 85.081919,
          "velocity": 0.7952755905511811
        },
        {
          "duration": 0.10737698833332843,
          "durationTicks": 131,
          "midi": 36,
          "name": "C2",
          "ticks": 104100,
          "time": 85.3278205,
          "velocity": 0.7952755905511811
        },
        {
          "duration": 0.10737698833332843,
          "durationTicks": 131,
          "midi": 79,
          "name": "G5",
          "ticks": 104400,
          "time": 85.573722,
          "velocity": 1
        },
        {
          "duration": 0.10737698833332843,
          "durationTicks": 131,
          "midi": 79,
          "name": "G5",
          "ticks": 104400,
          "time": 85.573722,
          "velocity": 1
        },
        {
          "duration": 0.10737698833332843,
          "durationTicks": 131,
          "midi": 79,
          "name": "G5",
          "ticks": 104400,
          "time": 85.573722,
          "velocity": 1
        },
        {
          "duration": 0.10737698833332843,
          "durationTicks": 131,
          "midi": 79,
          "name": "G5",
          "ticks": 104400,
          "time": 85.573722,
          "velocity": 1
        },
        {
          "duration": 0.10737698833332843,
          "durationTicks": 131,
          "midi": 79,
          "name": "G5",
          "ticks": 104400,
          "time": 85.573722,
          "velocity": 1
        },
        {
          "duration": 0.10737698833332843,
          "durationTicks": 131,
          "midi": 79,
          "name": "G5",
          "ticks": 104400,
          "time": 85.573722,
          "velocity": 1
        },
        {
          "duration": 0.10737698833332843,
          "durationTicks": 131,
          "midi": 79,
          "name": "G5",
          "ticks": 104400,
          "time": 85.573722,
          "velocity": 1
        },
        {
          "duration": 0.10737698833332843,
          "durationTicks": 131,
          "midi": 79,
          "name": "G5",
          "ticks": 104400,
          "time": 85.573722,
          "velocity": 1
        },
        {
          "duration": 0.10737698833332843,
          "durationTicks": 131,
          "midi": 79,
          "name": "G5",
          "ticks": 104400,
          "time": 85.573722,
          "velocity": 1
        },
        {
          "duration": 0.10737698833332843,
          "durationTicks": 131,
          "midi": 79,
          "name": "G5",
          "ticks": 104400,
          "time": 85.573722,
          "velocity": 1
        },
        {
          "duration": 0.10737698833332843,
          "durationTicks": 131,
          "midi": 79,
          "name": "G5",
          "ticks": 104400,
          "time": 85.573722,
          "velocity": 1
        },
        {
          "duration": 0.10737698833332843,
          "durationTicks": 131,
          "midi": 79,
          "name": "G5",
          "ticks": 104400,
          "time": 85.573722,
          "velocity": 1
        },
        {
          "duration": 0.10737698833332843,
          "durationTicks": 131,
          "midi": 79,
          "name": "G5",
          "ticks": 104400,
          "time": 85.573722,
          "velocity": 1
        },
        {
          "duration": 0.10737698833332843,
          "durationTicks": 131,
          "midi": 79,
          "name": "G5",
          "ticks": 104400,
          "time": 85.573722,
          "velocity": 1
        },
        {
          "duration": 0.10737698833332843,
          "durationTicks": 131,
          "midi": 79,
          "name": "G5",
          "ticks": 104400,
          "time": 85.573722,
          "velocity": 1
        },
        {
          "duration": 0.10737698833332843,
          "durationTicks": 131,
          "midi": 79,
          "name": "G5",
          "ticks": 104400,
          "time": 85.573722,
          "velocity": 1
        },
        {
          "duration": 0.35327848833333064,
          "durationTicks": 431,
          "midi": 46,
          "name": "A#2",
          "ticks": 104400,
          "time": 85.573722,
          "velocity": 0.7086614173228346
        },
        {
          "duration": 0.10737698833332843,
          "durationTicks": 131,
          "midi": 36,
          "name": "C2",
          "ticks": 104400,
          "time": 85.573722,
          "velocity": 0.8031496062992126
        },
        {
          "duration": 0.10737698833334264,
          "durationTicks": 131,
          "midi": 36,
          "name": "C2",
          "ticks": 104700,
          "time": 85.81962349999999,
          "velocity": 0.8031496062992126
        },
        {
          "duration": 0.35327848833334485,
          "durationTicks": 431,
          "midi": 38,
          "name": "D2",
          "ticks": 105000,
          "time": 86.065525,
          "velocity": 0.8031496062992126
        },
        {
          "duration": 0.35327848833334485,
          "durationTicks": 431,
          "midi": 46,
          "name": "A#2",
          "ticks": 105000,
          "time": 86.065525,
          "velocity": 0.7165354330708661
        },
        {
          "duration": 0.10737698833334264,
          "durationTicks": 131,
          "midi": 36,
          "name": "C2",
          "ticks": 105300,
          "time": 86.3114265,
          "velocity": 0.8031496062992126
        },
        {
          "duration": 0.10737698833332843,
          "durationTicks": 131,
          "midi": 78,
          "name": "F#5",
          "ticks": 105600,
          "time": 86.557328,
          "velocity": 1
        },
        {
          "duration": 0.10737698833332843,
          "durationTicks": 131,
          "midi": 78,
          "name": "F#5",
          "ticks": 105600,
          "time": 86.557328,
          "velocity": 1
        },
        {
          "duration": 0.10737698833332843,
          "durationTicks": 131,
          "midi": 78,
          "name": "F#5",
          "ticks": 105600,
          "time": 86.557328,
          "velocity": 1
        },
        {
          "duration": 0.10737698833332843,
          "durationTicks": 131,
          "midi": 78,
          "name": "F#5",
          "ticks": 105600,
          "time": 86.557328,
          "velocity": 1
        },
        {
          "duration": 0.10737698833332843,
          "durationTicks": 131,
          "midi": 78,
          "name": "F#5",
          "ticks": 105600,
          "time": 86.557328,
          "velocity": 1
        },
        {
          "duration": 0.10737698833332843,
          "durationTicks": 131,
          "midi": 78,
          "name": "F#5",
          "ticks": 105600,
          "time": 86.557328,
          "velocity": 1
        },
        {
          "duration": 0.10737698833332843,
          "durationTicks": 131,
          "midi": 78,
          "name": "F#5",
          "ticks": 105600,
          "time": 86.557328,
          "velocity": 1
        },
        {
          "duration": 0.10737698833332843,
          "durationTicks": 131,
          "midi": 78,
          "name": "F#5",
          "ticks": 105600,
          "time": 86.557328,
          "velocity": 1
        },
        {
          "duration": 0.10737698833332843,
          "durationTicks": 131,
          "midi": 78,
          "name": "F#5",
          "ticks": 105600,
          "time": 86.557328,
          "velocity": 1
        },
        {
          "duration": 0.10737698833332843,
          "durationTicks": 131,
          "midi": 78,
          "name": "F#5",
          "ticks": 105600,
          "time": 86.557328,
          "velocity": 1
        },
        {
          "duration": 0.10737698833332843,
          "durationTicks": 131,
          "midi": 78,
          "name": "F#5",
          "ticks": 105600,
          "time": 86.557328,
          "velocity": 1
        },
        {
          "duration": 0.10737698833332843,
          "durationTicks": 131,
          "midi": 78,
          "name": "F#5",
          "ticks": 105600,
          "time": 86.557328,
          "velocity": 1
        },
        {
          "duration": 0.10737698833332843,
          "durationTicks": 131,
          "midi": 78,
          "name": "F#5",
          "ticks": 105600,
          "time": 86.557328,
          "velocity": 1
        },
        {
          "duration": 0.10737698833332843,
          "durationTicks": 131,
          "midi": 78,
          "name": "F#5",
          "ticks": 105600,
          "time": 86.557328,
          "velocity": 1
        },
        {
          "duration": 0.10737698833332843,
          "durationTicks": 131,
          "midi": 78,
          "name": "F#5",
          "ticks": 105600,
          "time": 86.557328,
          "velocity": 1
        },
        {
          "duration": 0.10737698833332843,
          "durationTicks": 131,
          "midi": 78,
          "name": "F#5",
          "ticks": 105600,
          "time": 86.557328,
          "velocity": 1
        },
        {
          "duration": 0.10737698833332843,
          "durationTicks": 131,
          "midi": 36,
          "name": "C2",
          "ticks": 105600,
          "time": 86.557328,
          "velocity": 0.7874015748031497
        },
        {
          "duration": 0.35327848833333064,
          "durationTicks": 431,
          "midi": 46,
          "name": "A#2",
          "ticks": 105600,
          "time": 86.557328,
          "velocity": 0.7007874015748031
        },
        {
          "duration": 0.10737698833332843,
          "durationTicks": 131,
          "midi": 36,
          "name": "C2",
          "ticks": 105900,
          "time": 86.8032295,
          "velocity": 0.7952755905511811
        },
        {
          "duration": 0.35327848833333064,
          "durationTicks": 431,
          "midi": 46,
          "name": "A#2",
          "ticks": 106200,
          "time": 87.049131,
          "velocity": 0.7007874015748031
        },
        {
          "duration": 0.35327848833333064,
          "durationTicks": 431,
          "midi": 38,
          "name": "D2",
          "ticks": 106200,
          "time": 87.049131,
          "velocity": 0.7952755905511811
        },
        {
          "duration": 0.10737698833332843,
          "durationTicks": 131,
          "midi": 36,
          "name": "C2",
          "ticks": 106500,
          "time": 87.2950325,
          "velocity": 0.7952755905511811
        },
        {
          "duration": 0.10737698833334264,
          "durationTicks": 131,
          "midi": 79,
          "name": "G5",
          "ticks": 106800,
          "time": 87.540934,
          "velocity": 1
        },
        {
          "duration": 0.10737698833334264,
          "durationTicks": 131,
          "midi": 79,
          "name": "G5",
          "ticks": 106800,
          "time": 87.540934,
          "velocity": 1
        },
        {
          "duration": 0.10737698833334264,
          "durationTicks": 131,
          "midi": 79,
          "name": "G5",
          "ticks": 106800,
          "time": 87.540934,
          "velocity": 1
        },
        {
          "duration": 0.10737698833334264,
          "durationTicks": 131,
          "midi": 79,
          "name": "G5",
          "ticks": 106800,
          "time": 87.540934,
          "velocity": 1
        },
        {
          "duration": 0.10737698833334264,
          "durationTicks": 131,
          "midi": 79,
          "name": "G5",
          "ticks": 106800,
          "time": 87.540934,
          "velocity": 1
        },
        {
          "duration": 0.10737698833334264,
          "durationTicks": 131,
          "midi": 79,
          "name": "G5",
          "ticks": 106800,
          "time": 87.540934,
          "velocity": 1
        },
        {
          "duration": 0.10737698833334264,
          "durationTicks": 131,
          "midi": 79,
          "name": "G5",
          "ticks": 106800,
          "time": 87.540934,
          "velocity": 1
        },
        {
          "duration": 0.10737698833334264,
          "durationTicks": 131,
          "midi": 79,
          "name": "G5",
          "ticks": 106800,
          "time": 87.540934,
          "velocity": 1
        },
        {
          "duration": 0.10737698833334264,
          "durationTicks": 131,
          "midi": 79,
          "name": "G5",
          "ticks": 106800,
          "time": 87.540934,
          "velocity": 1
        },
        {
          "duration": 0.10737698833334264,
          "durationTicks": 131,
          "midi": 79,
          "name": "G5",
          "ticks": 106800,
          "time": 87.540934,
          "velocity": 1
        },
        {
          "duration": 0.10737698833334264,
          "durationTicks": 131,
          "midi": 79,
          "name": "G5",
          "ticks": 106800,
          "time": 87.540934,
          "velocity": 1
        },
        {
          "duration": 0.10737698833334264,
          "durationTicks": 131,
          "midi": 79,
          "name": "G5",
          "ticks": 106800,
          "time": 87.540934,
          "velocity": 1
        },
        {
          "duration": 0.10737698833334264,
          "durationTicks": 131,
          "midi": 79,
          "name": "G5",
          "ticks": 106800,
          "time": 87.540934,
          "velocity": 1
        },
        {
          "duration": 0.10737698833334264,
          "durationTicks": 131,
          "midi": 79,
          "name": "G5",
          "ticks": 106800,
          "time": 87.540934,
          "velocity": 1
        },
        {
          "duration": 0.10737698833334264,
          "durationTicks": 131,
          "midi": 79,
          "name": "G5",
          "ticks": 106800,
          "time": 87.540934,
          "velocity": 1
        },
        {
          "duration": 0.10737698833334264,
          "durationTicks": 131,
          "midi": 79,
          "name": "G5",
          "ticks": 106800,
          "time": 87.540934,
          "velocity": 1
        },
        {
          "duration": 0.35327848833334485,
          "durationTicks": 431,
          "midi": 46,
          "name": "A#2",
          "ticks": 106800,
          "time": 87.540934,
          "velocity": 0.7086614173228346
        },
        {
          "duration": 0.10737698833334264,
          "durationTicks": 131,
          "midi": 36,
          "name": "C2",
          "ticks": 106800,
          "time": 87.540934,
          "velocity": 0.8031496062992126
        },
        {
          "duration": 0.10737698833334264,
          "durationTicks": 131,
          "midi": 36,
          "name": "C2",
          "ticks": 107100,
          "time": 87.7868355,
          "velocity": 0.8031496062992126
        },
        {
          "duration": 0.35327848833333064,
          "durationTicks": 431,
          "midi": 38,
          "name": "D2",
          "ticks": 107400,
          "time": 88.032737,
          "velocity": 0.8031496062992126
        },
        {
          "duration": 0.35327848833333064,
          "durationTicks": 431,
          "midi": 46,
          "name": "A#2",
          "ticks": 107400,
          "time": 88.032737,
          "velocity": 0.7165354330708661
        },
        {
          "duration": 0.10737698833332843,
          "durationTicks": 131,
          "midi": 36,
          "name": "C2",
          "ticks": 107700,
          "time": 88.2786385,
          "velocity": 0.8031496062992126
        },
        {
          "duration": 0.10737698833332843,
          "durationTicks": 131,
          "midi": 78,
          "name": "F#5",
          "ticks": 108000,
          "time": 88.52454,
          "velocity": 1
        },
        {
          "duration": 0.10737698833332843,
          "durationTicks": 131,
          "midi": 78,
          "name": "F#5",
          "ticks": 108000,
          "time": 88.52454,
          "velocity": 1
        },
        {
          "duration": 0.10737698833332843,
          "durationTicks": 131,
          "midi": 78,
          "name": "F#5",
          "ticks": 108000,
          "time": 88.52454,
          "velocity": 1
        },
        {
          "duration": 0.10737698833332843,
          "durationTicks": 131,
          "midi": 78,
          "name": "F#5",
          "ticks": 108000,
          "time": 88.52454,
          "velocity": 1
        },
        {
          "duration": 0.10737698833332843,
          "durationTicks": 131,
          "midi": 78,
          "name": "F#5",
          "ticks": 108000,
          "time": 88.52454,
          "velocity": 1
        },
        {
          "duration": 0.10737698833332843,
          "durationTicks": 131,
          "midi": 78,
          "name": "F#5",
          "ticks": 108000,
          "time": 88.52454,
          "velocity": 1
        },
        {
          "duration": 0.10737698833332843,
          "durationTicks": 131,
          "midi": 78,
          "name": "F#5",
          "ticks": 108000,
          "time": 88.52454,
          "velocity": 1
        },
        {
          "duration": 0.10737698833332843,
          "durationTicks": 131,
          "midi": 78,
          "name": "F#5",
          "ticks": 108000,
          "time": 88.52454,
          "velocity": 1
        },
        {
          "duration": 0.10737698833332843,
          "durationTicks": 131,
          "midi": 78,
          "name": "F#5",
          "ticks": 108000,
          "time": 88.52454,
          "velocity": 1
        },
        {
          "duration": 0.10737698833332843,
          "durationTicks": 131,
          "midi": 78,
          "name": "F#5",
          "ticks": 108000,
          "time": 88.52454,
          "velocity": 1
        },
        {
          "duration": 0.10737698833332843,
          "durationTicks": 131,
          "midi": 78,
          "name": "F#5",
          "ticks": 108000,
          "time": 88.52454,
          "velocity": 1
        },
        {
          "duration": 0.10737698833332843,
          "durationTicks": 131,
          "midi": 78,
          "name": "F#5",
          "ticks": 108000,
          "time": 88.52454,
          "velocity": 1
        },
        {
          "duration": 0.10737698833332843,
          "durationTicks": 131,
          "midi": 78,
          "name": "F#5",
          "ticks": 108000,
          "time": 88.52454,
          "velocity": 1
        },
        {
          "duration": 0.10737698833332843,
          "durationTicks": 131,
          "midi": 78,
          "name": "F#5",
          "ticks": 108000,
          "time": 88.52454,
          "velocity": 1
        },
        {
          "duration": 0.10737698833332843,
          "durationTicks": 131,
          "midi": 78,
          "name": "F#5",
          "ticks": 108000,
          "time": 88.52454,
          "velocity": 1
        },
        {
          "duration": 0.10737698833332843,
          "durationTicks": 131,
          "midi": 78,
          "name": "F#5",
          "ticks": 108000,
          "time": 88.52454,
          "velocity": 1
        },
        {
          "duration": 0.10737698833332843,
          "durationTicks": 131,
          "midi": 36,
          "name": "C2",
          "ticks": 108000,
          "time": 88.52454,
          "velocity": 0.7874015748031497
        },
        {
          "duration": 0.35327848833333064,
          "durationTicks": 431,
          "midi": 46,
          "name": "A#2",
          "ticks": 108000,
          "time": 88.52454,
          "velocity": 0.7007874015748031
        },
        {
          "duration": 0.10737698833332843,
          "durationTicks": 131,
          "midi": 36,
          "name": "C2",
          "ticks": 108300,
          "time": 88.7704415,
          "velocity": 0.7952755905511811
        },
        {
          "duration": 0.35327848833334485,
          "durationTicks": 431,
          "midi": 46,
          "name": "A#2",
          "ticks": 108600,
          "time": 89.01634299999999,
          "velocity": 0.7007874015748031
        },
        {
          "duration": 0.35327848833334485,
          "durationTicks": 431,
          "midi": 38,
          "name": "D2",
          "ticks": 108600,
          "time": 89.01634299999999,
          "velocity": 0.7952755905511811
        },
        {
          "duration": 0.10737698833334264,
          "durationTicks": 131,
          "midi": 36,
          "name": "C2",
          "ticks": 108900,
          "time": 89.2622445,
          "velocity": 0.7952755905511811
        },
        {
          "duration": 0.10737698833332843,
          "durationTicks": 131,
          "midi": 79,
          "name": "G5",
          "ticks": 109200,
          "time": 89.508146,
          "velocity": 1
        },
        {
          "duration": 0.10737698833332843,
          "durationTicks": 131,
          "midi": 79,
          "name": "G5",
          "ticks": 109200,
          "time": 89.508146,
          "velocity": 1
        },
        {
          "duration": 0.10737698833332843,
          "durationTicks": 131,
          "midi": 79,
          "name": "G5",
          "ticks": 109200,
          "time": 89.508146,
          "velocity": 1
        },
        {
          "duration": 0.10737698833332843,
          "durationTicks": 131,
          "midi": 79,
          "name": "G5",
          "ticks": 109200,
          "time": 89.508146,
          "velocity": 1
        },
        {
          "duration": 0.10737698833332843,
          "durationTicks": 131,
          "midi": 79,
          "name": "G5",
          "ticks": 109200,
          "time": 89.508146,
          "velocity": 1
        },
        {
          "duration": 0.10737698833332843,
          "durationTicks": 131,
          "midi": 79,
          "name": "G5",
          "ticks": 109200,
          "time": 89.508146,
          "velocity": 1
        },
        {
          "duration": 0.10737698833332843,
          "durationTicks": 131,
          "midi": 79,
          "name": "G5",
          "ticks": 109200,
          "time": 89.508146,
          "velocity": 1
        },
        {
          "duration": 0.10737698833332843,
          "durationTicks": 131,
          "midi": 79,
          "name": "G5",
          "ticks": 109200,
          "time": 89.508146,
          "velocity": 1
        },
        {
          "duration": 0.10737698833332843,
          "durationTicks": 131,
          "midi": 79,
          "name": "G5",
          "ticks": 109200,
          "time": 89.508146,
          "velocity": 1
        },
        {
          "duration": 0.10737698833332843,
          "durationTicks": 131,
          "midi": 79,
          "name": "G5",
          "ticks": 109200,
          "time": 89.508146,
          "velocity": 1
        },
        {
          "duration": 0.10737698833332843,
          "durationTicks": 131,
          "midi": 79,
          "name": "G5",
          "ticks": 109200,
          "time": 89.508146,
          "velocity": 1
        },
        {
          "duration": 0.10737698833332843,
          "durationTicks": 131,
          "midi": 79,
          "name": "G5",
          "ticks": 109200,
          "time": 89.508146,
          "velocity": 1
        },
        {
          "duration": 0.10737698833332843,
          "durationTicks": 131,
          "midi": 79,
          "name": "G5",
          "ticks": 109200,
          "time": 89.508146,
          "velocity": 1
        },
        {
          "duration": 0.10737698833332843,
          "durationTicks": 131,
          "midi": 79,
          "name": "G5",
          "ticks": 109200,
          "time": 89.508146,
          "velocity": 1
        },
        {
          "duration": 0.10737698833332843,
          "durationTicks": 131,
          "midi": 79,
          "name": "G5",
          "ticks": 109200,
          "time": 89.508146,
          "velocity": 1
        },
        {
          "duration": 0.10737698833332843,
          "durationTicks": 131,
          "midi": 79,
          "name": "G5",
          "ticks": 109200,
          "time": 89.508146,
          "velocity": 1
        },
        {
          "duration": 0.35327848833333064,
          "durationTicks": 431,
          "midi": 46,
          "name": "A#2",
          "ticks": 109200,
          "time": 89.508146,
          "velocity": 0.7086614173228346
        },
        {
          "duration": 0.10737698833332843,
          "durationTicks": 131,
          "midi": 36,
          "name": "C2",
          "ticks": 109200,
          "time": 89.508146,
          "velocity": 0.8031496062992126
        },
        {
          "duration": 0.10737698833332843,
          "durationTicks": 131,
          "midi": 36,
          "name": "C2",
          "ticks": 109500,
          "time": 89.7540475,
          "velocity": 0.8031496062992126
        },
        {
          "duration": 0.35327848833333064,
          "durationTicks": 431,
          "midi": 38,
          "name": "D2",
          "ticks": 109800,
          "time": 89.999949,
          "velocity": 0.8031496062992126
        },
        {
          "duration": 0.35327848833333064,
          "durationTicks": 431,
          "midi": 46,
          "name": "A#2",
          "ticks": 109800,
          "time": 89.999949,
          "velocity": 0.7165354330708661
        },
        {
          "duration": 0.10737698833332843,
          "durationTicks": 131,
          "midi": 36,
          "name": "C2",
          "ticks": 110100,
          "time": 90.2458505,
          "velocity": 0.8031496062992126
        },
        {
          "duration": 0.10737698833334264,
          "durationTicks": 131,
          "midi": 78,
          "name": "F#5",
          "ticks": 110400,
          "time": 90.49175199999999,
          "velocity": 1
        },
        {
          "duration": 0.10737698833334264,
          "durationTicks": 131,
          "midi": 78,
          "name": "F#5",
          "ticks": 110400,
          "time": 90.49175199999999,
          "velocity": 1
        },
        {
          "duration": 0.10737698833334264,
          "durationTicks": 131,
          "midi": 78,
          "name": "F#5",
          "ticks": 110400,
          "time": 90.49175199999999,
          "velocity": 1
        },
        {
          "duration": 0.10737698833334264,
          "durationTicks": 131,
          "midi": 78,
          "name": "F#5",
          "ticks": 110400,
          "time": 90.49175199999999,
          "velocity": 1
        },
        {
          "duration": 0.10737698833334264,
          "durationTicks": 131,
          "midi": 78,
          "name": "F#5",
          "ticks": 110400,
          "time": 90.49175199999999,
          "velocity": 1
        },
        {
          "duration": 0.10737698833334264,
          "durationTicks": 131,
          "midi": 78,
          "name": "F#5",
          "ticks": 110400,
          "time": 90.49175199999999,
          "velocity": 1
        },
        {
          "duration": 0.10737698833334264,
          "durationTicks": 131,
          "midi": 78,
          "name": "F#5",
          "ticks": 110400,
          "time": 90.49175199999999,
          "velocity": 1
        },
        {
          "duration": 0.10737698833334264,
          "durationTicks": 131,
          "midi": 78,
          "name": "F#5",
          "ticks": 110400,
          "time": 90.49175199999999,
          "velocity": 1
        },
        {
          "duration": 0.10737698833334264,
          "durationTicks": 131,
          "midi": 78,
          "name": "F#5",
          "ticks": 110400,
          "time": 90.49175199999999,
          "velocity": 1
        },
        {
          "duration": 0.10737698833334264,
          "durationTicks": 131,
          "midi": 78,
          "name": "F#5",
          "ticks": 110400,
          "time": 90.49175199999999,
          "velocity": 1
        },
        {
          "duration": 0.10737698833334264,
          "durationTicks": 131,
          "midi": 78,
          "name": "F#5",
          "ticks": 110400,
          "time": 90.49175199999999,
          "velocity": 1
        },
        {
          "duration": 0.10737698833334264,
          "durationTicks": 131,
          "midi": 78,
          "name": "F#5",
          "ticks": 110400,
          "time": 90.49175199999999,
          "velocity": 1
        },
        {
          "duration": 0.10737698833334264,
          "durationTicks": 131,
          "midi": 78,
          "name": "F#5",
          "ticks": 110400,
          "time": 90.49175199999999,
          "velocity": 1
        },
        {
          "duration": 0.10737698833334264,
          "durationTicks": 131,
          "midi": 78,
          "name": "F#5",
          "ticks": 110400,
          "time": 90.49175199999999,
          "velocity": 1
        },
        {
          "duration": 0.10737698833334264,
          "durationTicks": 131,
          "midi": 78,
          "name": "F#5",
          "ticks": 110400,
          "time": 90.49175199999999,
          "velocity": 1
        },
        {
          "duration": 0.10737698833334264,
          "durationTicks": 131,
          "midi": 78,
          "name": "F#5",
          "ticks": 110400,
          "time": 90.49175199999999,
          "velocity": 1
        },
        {
          "duration": 0.10737698833334264,
          "durationTicks": 131,
          "midi": 36,
          "name": "C2",
          "ticks": 110400,
          "time": 90.49175199999999,
          "velocity": 0.7874015748031497
        },
        {
          "duration": 0.35327848833334485,
          "durationTicks": 431,
          "midi": 46,
          "name": "A#2",
          "ticks": 110400,
          "time": 90.49175199999999,
          "velocity": 0.7007874015748031
        },
        {
          "duration": 0.10737698833334264,
          "durationTicks": 131,
          "midi": 36,
          "name": "C2",
          "ticks": 110700,
          "time": 90.7376535,
          "velocity": 0.7952755905511811
        },
        {
          "duration": 0.35327848833333064,
          "durationTicks": 431,
          "midi": 46,
          "name": "A#2",
          "ticks": 111000,
          "time": 90.983555,
          "velocity": 0.7007874015748031
        },
        {
          "duration": 0.35327848833333064,
          "durationTicks": 431,
          "midi": 38,
          "name": "D2",
          "ticks": 111000,
          "time": 90.983555,
          "velocity": 0.7952755905511811
        },
        {
          "duration": 0.10737698833332843,
          "durationTicks": 131,
          "midi": 36,
          "name": "C2",
          "ticks": 111300,
          "time": 91.2294565,
          "velocity": 0.7952755905511811
        },
        {
          "duration": 0.10737698833332843,
          "durationTicks": 131,
          "midi": 79,
          "name": "G5",
          "ticks": 111600,
          "time": 91.475358,
          "velocity": 1
        },
        {
          "duration": 0.10737698833332843,
          "durationTicks": 131,
          "midi": 79,
          "name": "G5",
          "ticks": 111600,
          "time": 91.475358,
          "velocity": 1
        },
        {
          "duration": 0.10737698833332843,
          "durationTicks": 131,
          "midi": 79,
          "name": "G5",
          "ticks": 111600,
          "time": 91.475358,
          "velocity": 1
        },
        {
          "duration": 0.10737698833332843,
          "durationTicks": 131,
          "midi": 79,
          "name": "G5",
          "ticks": 111600,
          "time": 91.475358,
          "velocity": 1
        },
        {
          "duration": 0.10737698833332843,
          "durationTicks": 131,
          "midi": 79,
          "name": "G5",
          "ticks": 111600,
          "time": 91.475358,
          "velocity": 1
        },
        {
          "duration": 0.10737698833332843,
          "durationTicks": 131,
          "midi": 79,
          "name": "G5",
          "ticks": 111600,
          "time": 91.475358,
          "velocity": 1
        },
        {
          "duration": 0.10737698833332843,
          "durationTicks": 131,
          "midi": 79,
          "name": "G5",
          "ticks": 111600,
          "time": 91.475358,
          "velocity": 1
        },
        {
          "duration": 0.10737698833332843,
          "durationTicks": 131,
          "midi": 79,
          "name": "G5",
          "ticks": 111600,
          "time": 91.475358,
          "velocity": 1
        },
        {
          "duration": 0.10737698833332843,
          "durationTicks": 131,
          "midi": 79,
          "name": "G5",
          "ticks": 111600,
          "time": 91.475358,
          "velocity": 1
        },
        {
          "duration": 0.10737698833332843,
          "durationTicks": 131,
          "midi": 79,
          "name": "G5",
          "ticks": 111600,
          "time": 91.475358,
          "velocity": 1
        },
        {
          "duration": 0.10737698833332843,
          "durationTicks": 131,
          "midi": 79,
          "name": "G5",
          "ticks": 111600,
          "time": 91.475358,
          "velocity": 1
        },
        {
          "duration": 0.10737698833332843,
          "durationTicks": 131,
          "midi": 79,
          "name": "G5",
          "ticks": 111600,
          "time": 91.475358,
          "velocity": 1
        },
        {
          "duration": 0.10737698833332843,
          "durationTicks": 131,
          "midi": 79,
          "name": "G5",
          "ticks": 111600,
          "time": 91.475358,
          "velocity": 1
        },
        {
          "duration": 0.10737698833332843,
          "durationTicks": 131,
          "midi": 79,
          "name": "G5",
          "ticks": 111600,
          "time": 91.475358,
          "velocity": 1
        },
        {
          "duration": 0.10737698833332843,
          "durationTicks": 131,
          "midi": 79,
          "name": "G5",
          "ticks": 111600,
          "time": 91.475358,
          "velocity": 1
        },
        {
          "duration": 0.10737698833332843,
          "durationTicks": 131,
          "midi": 79,
          "name": "G5",
          "ticks": 111600,
          "time": 91.475358,
          "velocity": 1
        },
        {
          "duration": 0.35327848833333064,
          "durationTicks": 431,
          "midi": 46,
          "name": "A#2",
          "ticks": 111600,
          "time": 91.475358,
          "velocity": 0.7086614173228346
        },
        {
          "duration": 0.10737698833332843,
          "durationTicks": 131,
          "midi": 36,
          "name": "C2",
          "ticks": 111600,
          "time": 91.475358,
          "velocity": 0.8031496062992126
        },
        {
          "duration": 0.10737698833332843,
          "durationTicks": 131,
          "midi": 36,
          "name": "C2",
          "ticks": 111900,
          "time": 91.7212595,
          "velocity": 0.8031496062992126
        },
        {
          "duration": 0.35327848833333064,
          "durationTicks": 431,
          "midi": 38,
          "name": "D2",
          "ticks": 112200,
          "time": 91.967161,
          "velocity": 0.8031496062992126
        },
        {
          "duration": 0.35327848833333064,
          "durationTicks": 431,
          "midi": 46,
          "name": "A#2",
          "ticks": 112200,
          "time": 91.967161,
          "velocity": 0.7165354330708661
        },
        {
          "duration": 0.10737698833334264,
          "durationTicks": 131,
          "midi": 36,
          "name": "C2",
          "ticks": 112500,
          "time": 92.21306249999999,
          "velocity": 0.8031496062992126
        },
        {
          "duration": 0.10737698833334264,
          "durationTicks": 131,
          "midi": 78,
          "name": "F#5",
          "ticks": 112800,
          "time": 92.458964,
          "velocity": 1
        },
        {
          "duration": 0.10737698833334264,
          "durationTicks": 131,
          "midi": 78,
          "name": "F#5",
          "ticks": 112800,
          "time": 92.458964,
          "velocity": 1
        },
        {
          "duration": 0.10737698833334264,
          "durationTicks": 131,
          "midi": 78,
          "name": "F#5",
          "ticks": 112800,
          "time": 92.458964,
          "velocity": 1
        },
        {
          "duration": 0.10737698833334264,
          "durationTicks": 131,
          "midi": 78,
          "name": "F#5",
          "ticks": 112800,
          "time": 92.458964,
          "velocity": 1
        },
        {
          "duration": 0.10737698833334264,
          "durationTicks": 131,
          "midi": 78,
          "name": "F#5",
          "ticks": 112800,
          "time": 92.458964,
          "velocity": 1
        },
        {
          "duration": 0.10737698833334264,
          "durationTicks": 131,
          "midi": 78,
          "name": "F#5",
          "ticks": 112800,
          "time": 92.458964,
          "velocity": 1
        },
        {
          "duration": 0.10737698833334264,
          "durationTicks": 131,
          "midi": 78,
          "name": "F#5",
          "ticks": 112800,
          "time": 92.458964,
          "velocity": 1
        },
        {
          "duration": 0.10737698833334264,
          "durationTicks": 131,
          "midi": 78,
          "name": "F#5",
          "ticks": 112800,
          "time": 92.458964,
          "velocity": 1
        },
        {
          "duration": 0.10737698833334264,
          "durationTicks": 131,
          "midi": 78,
          "name": "F#5",
          "ticks": 112800,
          "time": 92.458964,
          "velocity": 1
        },
        {
          "duration": 0.10737698833334264,
          "durationTicks": 131,
          "midi": 78,
          "name": "F#5",
          "ticks": 112800,
          "time": 92.458964,
          "velocity": 1
        },
        {
          "duration": 0.10737698833334264,
          "durationTicks": 131,
          "midi": 78,
          "name": "F#5",
          "ticks": 112800,
          "time": 92.458964,
          "velocity": 1
        },
        {
          "duration": 0.10737698833334264,
          "durationTicks": 131,
          "midi": 78,
          "name": "F#5",
          "ticks": 112800,
          "time": 92.458964,
          "velocity": 1
        },
        {
          "duration": 0.10737698833334264,
          "durationTicks": 131,
          "midi": 78,
          "name": "F#5",
          "ticks": 112800,
          "time": 92.458964,
          "velocity": 1
        },
        {
          "duration": 0.10737698833334264,
          "durationTicks": 131,
          "midi": 78,
          "name": "F#5",
          "ticks": 112800,
          "time": 92.458964,
          "velocity": 1
        },
        {
          "duration": 0.10737698833334264,
          "durationTicks": 131,
          "midi": 78,
          "name": "F#5",
          "ticks": 112800,
          "time": 92.458964,
          "velocity": 1
        },
        {
          "duration": 0.10737698833334264,
          "durationTicks": 131,
          "midi": 78,
          "name": "F#5",
          "ticks": 112800,
          "time": 92.458964,
          "velocity": 1
        },
        {
          "duration": 0.10737698833334264,
          "durationTicks": 131,
          "midi": 36,
          "name": "C2",
          "ticks": 112800,
          "time": 92.458964,
          "velocity": 0.7874015748031497
        },
        {
          "duration": 0.35327848833333064,
          "durationTicks": 431,
          "midi": 46,
          "name": "A#2",
          "ticks": 112800,
          "time": 92.458964,
          "velocity": 0.7007874015748031
        },
        {
          "duration": 0.10737698833332843,
          "durationTicks": 131,
          "midi": 36,
          "name": "C2",
          "ticks": 113100,
          "time": 92.7048655,
          "velocity": 0.7952755905511811
        },
        {
          "duration": 0.35327848833333064,
          "durationTicks": 431,
          "midi": 46,
          "name": "A#2",
          "ticks": 113400,
          "time": 92.950767,
          "velocity": 0.7007874015748031
        },
        {
          "duration": 0.35327848833333064,
          "durationTicks": 431,
          "midi": 38,
          "name": "D2",
          "ticks": 113400,
          "time": 92.950767,
          "velocity": 0.7952755905511811
        },
        {
          "duration": 0.10737698833332843,
          "durationTicks": 131,
          "midi": 36,
          "name": "C2",
          "ticks": 113700,
          "time": 93.1966685,
          "velocity": 0.7952755905511811
        },
        {
          "duration": 0.10737698833332843,
          "durationTicks": 131,
          "midi": 79,
          "name": "G5",
          "ticks": 114000,
          "time": 93.44257,
          "velocity": 1
        },
        {
          "duration": 0.10737698833332843,
          "durationTicks": 131,
          "midi": 79,
          "name": "G5",
          "ticks": 114000,
          "time": 93.44257,
          "velocity": 1
        },
        {
          "duration": 0.10737698833332843,
          "durationTicks": 131,
          "midi": 79,
          "name": "G5",
          "ticks": 114000,
          "time": 93.44257,
          "velocity": 1
        },
        {
          "duration": 0.10737698833332843,
          "durationTicks": 131,
          "midi": 79,
          "name": "G5",
          "ticks": 114000,
          "time": 93.44257,
          "velocity": 1
        },
        {
          "duration": 0.10737698833332843,
          "durationTicks": 131,
          "midi": 79,
          "name": "G5",
          "ticks": 114000,
          "time": 93.44257,
          "velocity": 1
        },
        {
          "duration": 0.10737698833332843,
          "durationTicks": 131,
          "midi": 79,
          "name": "G5",
          "ticks": 114000,
          "time": 93.44257,
          "velocity": 1
        },
        {
          "duration": 0.10737698833332843,
          "durationTicks": 131,
          "midi": 79,
          "name": "G5",
          "ticks": 114000,
          "time": 93.44257,
          "velocity": 1
        },
        {
          "duration": 0.10737698833332843,
          "durationTicks": 131,
          "midi": 79,
          "name": "G5",
          "ticks": 114000,
          "time": 93.44257,
          "velocity": 1
        },
        {
          "duration": 0.10737698833332843,
          "durationTicks": 131,
          "midi": 79,
          "name": "G5",
          "ticks": 114000,
          "time": 93.44257,
          "velocity": 1
        },
        {
          "duration": 0.10737698833332843,
          "durationTicks": 131,
          "midi": 79,
          "name": "G5",
          "ticks": 114000,
          "time": 93.44257,
          "velocity": 1
        },
        {
          "duration": 0.10737698833332843,
          "durationTicks": 131,
          "midi": 79,
          "name": "G5",
          "ticks": 114000,
          "time": 93.44257,
          "velocity": 1
        },
        {
          "duration": 0.10737698833332843,
          "durationTicks": 131,
          "midi": 79,
          "name": "G5",
          "ticks": 114000,
          "time": 93.44257,
          "velocity": 1
        },
        {
          "duration": 0.10737698833332843,
          "durationTicks": 131,
          "midi": 79,
          "name": "G5",
          "ticks": 114000,
          "time": 93.44257,
          "velocity": 1
        },
        {
          "duration": 0.10737698833332843,
          "durationTicks": 131,
          "midi": 79,
          "name": "G5",
          "ticks": 114000,
          "time": 93.44257,
          "velocity": 1
        },
        {
          "duration": 0.10737698833332843,
          "durationTicks": 131,
          "midi": 79,
          "name": "G5",
          "ticks": 114000,
          "time": 93.44257,
          "velocity": 1
        },
        {
          "duration": 0.10737698833332843,
          "durationTicks": 131,
          "midi": 79,
          "name": "G5",
          "ticks": 114000,
          "time": 93.44257,
          "velocity": 1
        },
        {
          "duration": 0.35327848833333064,
          "durationTicks": 431,
          "midi": 46,
          "name": "A#2",
          "ticks": 114000,
          "time": 93.44257,
          "velocity": 0.7086614173228346
        },
        {
          "duration": 0.10737698833332843,
          "durationTicks": 131,
          "midi": 36,
          "name": "C2",
          "ticks": 114000,
          "time": 93.44257,
          "velocity": 0.8031496062992126
        },
        {
          "duration": 0.10737698833334264,
          "durationTicks": 131,
          "midi": 36,
          "name": "C2",
          "ticks": 114300,
          "time": 93.68847149999999,
          "velocity": 0.8031496062992126
        },
        {
          "duration": 0.35327848833334485,
          "durationTicks": 431,
          "midi": 38,
          "name": "D2",
          "ticks": 114600,
          "time": 93.934373,
          "velocity": 0.8031496062992126
        },
        {
          "duration": 0.35327848833334485,
          "durationTicks": 431,
          "midi": 46,
          "name": "A#2",
          "ticks": 114600,
          "time": 93.934373,
          "velocity": 0.7165354330708661
        },
        {
          "duration": 0.10737698833334264,
          "durationTicks": 131,
          "midi": 36,
          "name": "C2",
          "ticks": 114900,
          "time": 94.1802745,
          "velocity": 0.8031496062992126
        },
        {
          "duration": 0.10737698833332843,
          "durationTicks": 131,
          "midi": 78,
          "name": "F#5",
          "ticks": 115200,
          "time": 94.426176,
          "velocity": 1
        },
        {
          "duration": 0.10737698833332843,
          "durationTicks": 131,
          "midi": 78,
          "name": "F#5",
          "ticks": 115200,
          "time": 94.426176,
          "velocity": 1
        },
        {
          "duration": 0.10737698833332843,
          "durationTicks": 131,
          "midi": 78,
          "name": "F#5",
          "ticks": 115200,
          "time": 94.426176,
          "velocity": 1
        },
        {
          "duration": 0.10737698833332843,
          "durationTicks": 131,
          "midi": 78,
          "name": "F#5",
          "ticks": 115200,
          "time": 94.426176,
          "velocity": 1
        },
        {
          "duration": 0.10737698833332843,
          "durationTicks": 131,
          "midi": 78,
          "name": "F#5",
          "ticks": 115200,
          "time": 94.426176,
          "velocity": 1
        },
        {
          "duration": 0.10737698833332843,
          "durationTicks": 131,
          "midi": 78,
          "name": "F#5",
          "ticks": 115200,
          "time": 94.426176,
          "velocity": 1
        },
        {
          "duration": 0.10737698833332843,
          "durationTicks": 131,
          "midi": 78,
          "name": "F#5",
          "ticks": 115200,
          "time": 94.426176,
          "velocity": 1
        },
        {
          "duration": 0.10737698833332843,
          "durationTicks": 131,
          "midi": 78,
          "name": "F#5",
          "ticks": 115200,
          "time": 94.426176,
          "velocity": 1
        },
        {
          "duration": 0.10737698833332843,
          "durationTicks": 131,
          "midi": 78,
          "name": "F#5",
          "ticks": 115200,
          "time": 94.426176,
          "velocity": 1
        },
        {
          "duration": 0.10737698833332843,
          "durationTicks": 131,
          "midi": 78,
          "name": "F#5",
          "ticks": 115200,
          "time": 94.426176,
          "velocity": 1
        },
        {
          "duration": 0.10737698833332843,
          "durationTicks": 131,
          "midi": 78,
          "name": "F#5",
          "ticks": 115200,
          "time": 94.426176,
          "velocity": 1
        },
        {
          "duration": 0.10737698833332843,
          "durationTicks": 131,
          "midi": 78,
          "name": "F#5",
          "ticks": 115200,
          "time": 94.426176,
          "velocity": 1
        },
        {
          "duration": 0.10737698833332843,
          "durationTicks": 131,
          "midi": 78,
          "name": "F#5",
          "ticks": 115200,
          "time": 94.426176,
          "velocity": 1
        },
        {
          "duration": 0.10737698833332843,
          "durationTicks": 131,
          "midi": 78,
          "name": "F#5",
          "ticks": 115200,
          "time": 94.426176,
          "velocity": 1
        },
        {
          "duration": 0.10737698833332843,
          "durationTicks": 131,
          "midi": 78,
          "name": "F#5",
          "ticks": 115200,
          "time": 94.426176,
          "velocity": 1
        },
        {
          "duration": 0.10737698833332843,
          "durationTicks": 131,
          "midi": 78,
          "name": "F#5",
          "ticks": 115200,
          "time": 94.426176,
          "velocity": 1
        },
        {
          "duration": 0.10737698833332843,
          "durationTicks": 131,
          "midi": 36,
          "name": "C2",
          "ticks": 115200,
          "time": 94.426176,
          "velocity": 0.7874015748031497
        },
        {
          "duration": 0.35327848833333064,
          "durationTicks": 431,
          "midi": 46,
          "name": "A#2",
          "ticks": 115200,
          "time": 94.426176,
          "velocity": 0.7007874015748031
        },
        {
          "duration": 0.10737698833332843,
          "durationTicks": 131,
          "midi": 36,
          "name": "C2",
          "ticks": 115500,
          "time": 94.6720775,
          "velocity": 0.7952755905511811
        },
        {
          "duration": 0.35327848833333064,
          "durationTicks": 431,
          "midi": 46,
          "name": "A#2",
          "ticks": 115800,
          "time": 94.917979,
          "velocity": 0.7007874015748031
        },
        {
          "duration": 0.35327848833333064,
          "durationTicks": 431,
          "midi": 38,
          "name": "D2",
          "ticks": 115800,
          "time": 94.917979,
          "velocity": 0.7952755905511811
        },
        {
          "duration": 0.10737698833332843,
          "durationTicks": 131,
          "midi": 36,
          "name": "C2",
          "ticks": 116100,
          "time": 95.1638805,
          "velocity": 0.7952755905511811
        },
        {
          "duration": 0.10737698833334264,
          "durationTicks": 131,
          "midi": 79,
          "name": "G5",
          "ticks": 116400,
          "time": 95.40978199999999,
          "velocity": 1
        },
        {
          "duration": 0.10737698833334264,
          "durationTicks": 131,
          "midi": 79,
          "name": "G5",
          "ticks": 116400,
          "time": 95.40978199999999,
          "velocity": 1
        },
        {
          "duration": 0.10737698833334264,
          "durationTicks": 131,
          "midi": 79,
          "name": "G5",
          "ticks": 116400,
          "time": 95.40978199999999,
          "velocity": 1
        },
        {
          "duration": 0.10737698833334264,
          "durationTicks": 131,
          "midi": 79,
          "name": "G5",
          "ticks": 116400,
          "time": 95.40978199999999,
          "velocity": 1
        },
        {
          "duration": 0.10737698833334264,
          "durationTicks": 131,
          "midi": 79,
          "name": "G5",
          "ticks": 116400,
          "time": 95.40978199999999,
          "velocity": 1
        },
        {
          "duration": 0.10737698833334264,
          "durationTicks": 131,
          "midi": 79,
          "name": "G5",
          "ticks": 116400,
          "time": 95.40978199999999,
          "velocity": 1
        },
        {
          "duration": 0.10737698833334264,
          "durationTicks": 131,
          "midi": 79,
          "name": "G5",
          "ticks": 116400,
          "time": 95.40978199999999,
          "velocity": 1
        },
        {
          "duration": 0.10737698833334264,
          "durationTicks": 131,
          "midi": 79,
          "name": "G5",
          "ticks": 116400,
          "time": 95.40978199999999,
          "velocity": 1
        },
        {
          "duration": 0.10737698833334264,
          "durationTicks": 131,
          "midi": 79,
          "name": "G5",
          "ticks": 116400,
          "time": 95.40978199999999,
          "velocity": 1
        },
        {
          "duration": 0.10737698833334264,
          "durationTicks": 131,
          "midi": 79,
          "name": "G5",
          "ticks": 116400,
          "time": 95.40978199999999,
          "velocity": 1
        },
        {
          "duration": 0.10737698833334264,
          "durationTicks": 131,
          "midi": 79,
          "name": "G5",
          "ticks": 116400,
          "time": 95.40978199999999,
          "velocity": 1
        },
        {
          "duration": 0.10737698833334264,
          "durationTicks": 131,
          "midi": 79,
          "name": "G5",
          "ticks": 116400,
          "time": 95.40978199999999,
          "velocity": 1
        },
        {
          "duration": 0.10737698833334264,
          "durationTicks": 131,
          "midi": 79,
          "name": "G5",
          "ticks": 116400,
          "time": 95.40978199999999,
          "velocity": 1
        },
        {
          "duration": 0.10737698833334264,
          "durationTicks": 131,
          "midi": 79,
          "name": "G5",
          "ticks": 116400,
          "time": 95.40978199999999,
          "velocity": 1
        },
        {
          "duration": 0.10737698833334264,
          "durationTicks": 131,
          "midi": 79,
          "name": "G5",
          "ticks": 116400,
          "time": 95.40978199999999,
          "velocity": 1
        },
        {
          "duration": 0.10737698833334264,
          "durationTicks": 131,
          "midi": 79,
          "name": "G5",
          "ticks": 116400,
          "time": 95.40978199999999,
          "velocity": 1
        },
        {
          "duration": 0.35327848833334485,
          "durationTicks": 431,
          "midi": 46,
          "name": "A#2",
          "ticks": 116400,
          "time": 95.40978199999999,
          "velocity": 0.7086614173228346
        },
        {
          "duration": 0.10737698833334264,
          "durationTicks": 131,
          "midi": 36,
          "name": "C2",
          "ticks": 116400,
          "time": 95.40978199999999,
          "velocity": 0.8031496062992126
        },
        {
          "duration": 0.10737698833334264,
          "durationTicks": 131,
          "midi": 36,
          "name": "C2",
          "ticks": 116700,
          "time": 95.6556835,
          "velocity": 0.8031496062992126
        },
        {
          "duration": 0.35327848833333064,
          "durationTicks": 431,
          "midi": 38,
          "name": "D2",
          "ticks": 117000,
          "time": 95.901585,
          "velocity": 0.8031496062992126
        },
        {
          "duration": 0.35327848833333064,
          "durationTicks": 431,
          "midi": 46,
          "name": "A#2",
          "ticks": 117000,
          "time": 95.901585,
          "velocity": 0.7165354330708661
        },
        {
          "duration": 0.10737698833332843,
          "durationTicks": 131,
          "midi": 36,
          "name": "C2",
          "ticks": 117300,
          "time": 96.1474865,
          "velocity": 0.8031496062992126
        },
        {
          "duration": 0.10737698833332843,
          "durationTicks": 131,
          "midi": 78,
          "name": "F#5",
          "ticks": 117600,
          "time": 96.393388,
          "velocity": 1
        },
        {
          "duration": 0.10737698833332843,
          "durationTicks": 131,
          "midi": 78,
          "name": "F#5",
          "ticks": 117600,
          "time": 96.393388,
          "velocity": 1
        },
        {
          "duration": 0.10737698833332843,
          "durationTicks": 131,
          "midi": 78,
          "name": "F#5",
          "ticks": 117600,
          "time": 96.393388,
          "velocity": 1
        },
        {
          "duration": 0.10737698833332843,
          "durationTicks": 131,
          "midi": 78,
          "name": "F#5",
          "ticks": 117600,
          "time": 96.393388,
          "velocity": 1
        },
        {
          "duration": 0.10737698833332843,
          "durationTicks": 131,
          "midi": 78,
          "name": "F#5",
          "ticks": 117600,
          "time": 96.393388,
          "velocity": 1
        },
        {
          "duration": 0.10737698833332843,
          "durationTicks": 131,
          "midi": 78,
          "name": "F#5",
          "ticks": 117600,
          "time": 96.393388,
          "velocity": 1
        },
        {
          "duration": 0.10737698833332843,
          "durationTicks": 131,
          "midi": 78,
          "name": "F#5",
          "ticks": 117600,
          "time": 96.393388,
          "velocity": 1
        },
        {
          "duration": 0.10737698833332843,
          "durationTicks": 131,
          "midi": 78,
          "name": "F#5",
          "ticks": 117600,
          "time": 96.393388,
          "velocity": 1
        },
        {
          "duration": 0.10737698833332843,
          "durationTicks": 131,
          "midi": 78,
          "name": "F#5",
          "ticks": 117600,
          "time": 96.393388,
          "velocity": 1
        },
        {
          "duration": 0.10737698833332843,
          "durationTicks": 131,
          "midi": 78,
          "name": "F#5",
          "ticks": 117600,
          "time": 96.393388,
          "velocity": 1
        },
        {
          "duration": 0.10737698833332843,
          "durationTicks": 131,
          "midi": 78,
          "name": "F#5",
          "ticks": 117600,
          "time": 96.393388,
          "velocity": 1
        },
        {
          "duration": 0.10737698833332843,
          "durationTicks": 131,
          "midi": 78,
          "name": "F#5",
          "ticks": 117600,
          "time": 96.393388,
          "velocity": 1
        },
        {
          "duration": 0.10737698833332843,
          "durationTicks": 131,
          "midi": 78,
          "name": "F#5",
          "ticks": 117600,
          "time": 96.393388,
          "velocity": 1
        },
        {
          "duration": 0.10737698833332843,
          "durationTicks": 131,
          "midi": 78,
          "name": "F#5",
          "ticks": 117600,
          "time": 96.393388,
          "velocity": 1
        },
        {
          "duration": 0.10737698833332843,
          "durationTicks": 131,
          "midi": 78,
          "name": "F#5",
          "ticks": 117600,
          "time": 96.393388,
          "velocity": 1
        },
        {
          "duration": 0.10737698833332843,
          "durationTicks": 131,
          "midi": 78,
          "name": "F#5",
          "ticks": 117600,
          "time": 96.393388,
          "velocity": 1
        },
        {
          "duration": 0.10737698833332843,
          "durationTicks": 131,
          "midi": 36,
          "name": "C2",
          "ticks": 117600,
          "time": 96.393388,
          "velocity": 0.7874015748031497
        },
        {
          "duration": 0.35327848833333064,
          "durationTicks": 431,
          "midi": 46,
          "name": "A#2",
          "ticks": 117600,
          "time": 96.393388,
          "velocity": 0.7007874015748031
        },
        {
          "duration": 0.10737698833332843,
          "durationTicks": 131,
          "midi": 36,
          "name": "C2",
          "ticks": 117900,
          "time": 96.6392895,
          "velocity": 0.7952755905511811
        },
        {
          "duration": 0.35327848833334485,
          "durationTicks": 431,
          "midi": 46,
          "name": "A#2",
          "ticks": 118200,
          "time": 96.88519099999999,
          "velocity": 0.7007874015748031
        },
        {
          "duration": 0.35327848833334485,
          "durationTicks": 431,
          "midi": 38,
          "name": "D2",
          "ticks": 118200,
          "time": 96.88519099999999,
          "velocity": 0.7952755905511811
        },
        {
          "duration": 0.10737698833334264,
          "durationTicks": 131,
          "midi": 36,
          "name": "C2",
          "ticks": 118500,
          "time": 97.1310925,
          "velocity": 0.7952755905511811
        },
        {
          "duration": 0.10737698833332843,
          "durationTicks": 131,
          "midi": 79,
          "name": "G5",
          "ticks": 118800,
          "time": 97.376994,
          "velocity": 1
        },
        {
          "duration": 0.10737698833332843,
          "durationTicks": 131,
          "midi": 79,
          "name": "G5",
          "ticks": 118800,
          "time": 97.376994,
          "velocity": 1
        },
        {
          "duration": 0.10737698833332843,
          "durationTicks": 131,
          "midi": 79,
          "name": "G5",
          "ticks": 118800,
          "time": 97.376994,
          "velocity": 1
        },
        {
          "duration": 0.10737698833332843,
          "durationTicks": 131,
          "midi": 79,
          "name": "G5",
          "ticks": 118800,
          "time": 97.376994,
          "velocity": 1
        },
        {
          "duration": 0.10737698833332843,
          "durationTicks": 131,
          "midi": 79,
          "name": "G5",
          "ticks": 118800,
          "time": 97.376994,
          "velocity": 1
        },
        {
          "duration": 0.10737698833332843,
          "durationTicks": 131,
          "midi": 79,
          "name": "G5",
          "ticks": 118800,
          "time": 97.376994,
          "velocity": 1
        },
        {
          "duration": 0.10737698833332843,
          "durationTicks": 131,
          "midi": 79,
          "name": "G5",
          "ticks": 118800,
          "time": 97.376994,
          "velocity": 1
        },
        {
          "duration": 0.10737698833332843,
          "durationTicks": 131,
          "midi": 79,
          "name": "G5",
          "ticks": 118800,
          "time": 97.376994,
          "velocity": 1
        },
        {
          "duration": 0.10737698833332843,
          "durationTicks": 131,
          "midi": 79,
          "name": "G5",
          "ticks": 118800,
          "time": 97.376994,
          "velocity": 1
        },
        {
          "duration": 0.10737698833332843,
          "durationTicks": 131,
          "midi": 79,
          "name": "G5",
          "ticks": 118800,
          "time": 97.376994,
          "velocity": 1
        },
        {
          "duration": 0.10737698833332843,
          "durationTicks": 131,
          "midi": 79,
          "name": "G5",
          "ticks": 118800,
          "time": 97.376994,
          "velocity": 1
        },
        {
          "duration": 0.10737698833332843,
          "durationTicks": 131,
          "midi": 79,
          "name": "G5",
          "ticks": 118800,
          "time": 97.376994,
          "velocity": 1
        },
        {
          "duration": 0.10737698833332843,
          "durationTicks": 131,
          "midi": 79,
          "name": "G5",
          "ticks": 118800,
          "time": 97.376994,
          "velocity": 1
        },
        {
          "duration": 0.10737698833332843,
          "durationTicks": 131,
          "midi": 79,
          "name": "G5",
          "ticks": 118800,
          "time": 97.376994,
          "velocity": 1
        },
        {
          "duration": 0.10737698833332843,
          "durationTicks": 131,
          "midi": 79,
          "name": "G5",
          "ticks": 118800,
          "time": 97.376994,
          "velocity": 1
        },
        {
          "duration": 0.10737698833332843,
          "durationTicks": 131,
          "midi": 79,
          "name": "G5",
          "ticks": 118800,
          "time": 97.376994,
          "velocity": 1
        },
        {
          "duration": 0.35327848833333064,
          "durationTicks": 431,
          "midi": 46,
          "name": "A#2",
          "ticks": 118800,
          "time": 97.376994,
          "velocity": 0.7086614173228346
        },
        {
          "duration": 0.10737698833332843,
          "durationTicks": 131,
          "midi": 36,
          "name": "C2",
          "ticks": 118800,
          "time": 97.376994,
          "velocity": 0.8031496062992126
        },
        {
          "duration": 0.10737698833332843,
          "durationTicks": 131,
          "midi": 36,
          "name": "C2",
          "ticks": 119100,
          "time": 97.6228955,
          "velocity": 0.8031496062992126
        },
        {
          "duration": 0.35327848833333064,
          "durationTicks": 431,
          "midi": 38,
          "name": "D2",
          "ticks": 119400,
          "time": 97.868797,
          "velocity": 0.8031496062992126
        },
        {
          "duration": 0.35327848833333064,
          "durationTicks": 431,
          "midi": 46,
          "name": "A#2",
          "ticks": 119400,
          "time": 97.868797,
          "velocity": 0.7165354330708661
        },
        {
          "duration": 0.10737698833332843,
          "durationTicks": 131,
          "midi": 36,
          "name": "C2",
          "ticks": 119700,
          "time": 98.1146985,
          "velocity": 0.8031496062992126
        },
        {
          "duration": 0.10737698833332843,
          "durationTicks": 131,
          "midi": 78,
          "name": "F#5",
          "ticks": 120000,
          "time": 98.3606,
          "velocity": 1
        },
        {
          "duration": 0.10737698833332843,
          "durationTicks": 131,
          "midi": 78,
          "name": "F#5",
          "ticks": 120000,
          "time": 98.3606,
          "velocity": 1
        },
        {
          "duration": 0.10737698833332843,
          "durationTicks": 131,
          "midi": 78,
          "name": "F#5",
          "ticks": 120000,
          "time": 98.3606,
          "velocity": 1
        },
        {
          "duration": 0.10737698833332843,
          "durationTicks": 131,
          "midi": 78,
          "name": "F#5",
          "ticks": 120000,
          "time": 98.3606,
          "velocity": 1
        },
        {
          "duration": 0.10737698833332843,
          "durationTicks": 131,
          "midi": 78,
          "name": "F#5",
          "ticks": 120000,
          "time": 98.3606,
          "velocity": 1
        },
        {
          "duration": 0.10737698833332843,
          "durationTicks": 131,
          "midi": 78,
          "name": "F#5",
          "ticks": 120000,
          "time": 98.3606,
          "velocity": 1
        },
        {
          "duration": 0.10737698833332843,
          "durationTicks": 131,
          "midi": 78,
          "name": "F#5",
          "ticks": 120000,
          "time": 98.3606,
          "velocity": 1
        },
        {
          "duration": 0.10737698833332843,
          "durationTicks": 131,
          "midi": 78,
          "name": "F#5",
          "ticks": 120000,
          "time": 98.3606,
          "velocity": 1
        },
        {
          "duration": 0.10737698833332843,
          "durationTicks": 131,
          "midi": 78,
          "name": "F#5",
          "ticks": 120000,
          "time": 98.3606,
          "velocity": 1
        },
        {
          "duration": 0.10737698833332843,
          "durationTicks": 131,
          "midi": 78,
          "name": "F#5",
          "ticks": 120000,
          "time": 98.3606,
          "velocity": 1
        },
        {
          "duration": 0.10737698833332843,
          "durationTicks": 131,
          "midi": 78,
          "name": "F#5",
          "ticks": 120000,
          "time": 98.3606,
          "velocity": 1
        },
        {
          "duration": 0.10737698833332843,
          "durationTicks": 131,
          "midi": 78,
          "name": "F#5",
          "ticks": 120000,
          "time": 98.3606,
          "velocity": 1
        },
        {
          "duration": 0.10737698833332843,
          "durationTicks": 131,
          "midi": 78,
          "name": "F#5",
          "ticks": 120000,
          "time": 98.3606,
          "velocity": 1
        },
        {
          "duration": 0.10737698833332843,
          "durationTicks": 131,
          "midi": 78,
          "name": "F#5",
          "ticks": 120000,
          "time": 98.3606,
          "velocity": 1
        },
        {
          "duration": 0.10737698833332843,
          "durationTicks": 131,
          "midi": 78,
          "name": "F#5",
          "ticks": 120000,
          "time": 98.3606,
          "velocity": 1
        },
        {
          "duration": 0.10737698833332843,
          "durationTicks": 131,
          "midi": 78,
          "name": "F#5",
          "ticks": 120000,
          "time": 98.3606,
          "velocity": 1
        },
        {
          "duration": 0.10737698833332843,
          "durationTicks": 131,
          "midi": 36,
          "name": "C2",
          "ticks": 120000,
          "time": 98.3606,
          "velocity": 0.7874015748031497
        },
        {
          "duration": 0.35327848833333064,
          "durationTicks": 431,
          "midi": 46,
          "name": "A#2",
          "ticks": 120000,
          "time": 98.3606,
          "velocity": 0.7007874015748031
        },
        {
          "duration": 0.10737698833334264,
          "durationTicks": 131,
          "midi": 36,
          "name": "C2",
          "ticks": 120300,
          "time": 98.6065015,
          "velocity": 0.7952755905511811
        },
        {
          "duration": 0.35327848833333064,
          "durationTicks": 431,
          "midi": 46,
          "name": "A#2",
          "ticks": 120600,
          "time": 98.852403,
          "velocity": 0.7007874015748031
        },
        {
          "duration": 0.35327848833333064,
          "durationTicks": 431,
          "midi": 38,
          "name": "D2",
          "ticks": 120600,
          "time": 98.852403,
          "velocity": 0.7952755905511811
        },
        {
          "duration": 0.10737698833332843,
          "durationTicks": 131,
          "midi": 36,
          "name": "C2",
          "ticks": 120900,
          "time": 99.0983045,
          "velocity": 0.7952755905511811
        },
        {
          "duration": 0.10737698833332843,
          "durationTicks": 131,
          "midi": 79,
          "name": "G5",
          "ticks": 121200,
          "time": 99.344206,
          "velocity": 1
        },
        {
          "duration": 0.10737698833332843,
          "durationTicks": 131,
          "midi": 79,
          "name": "G5",
          "ticks": 121200,
          "time": 99.344206,
          "velocity": 1
        },
        {
          "duration": 0.10737698833332843,
          "durationTicks": 131,
          "midi": 79,
          "name": "G5",
          "ticks": 121200,
          "time": 99.344206,
          "velocity": 1
        },
        {
          "duration": 0.10737698833332843,
          "durationTicks": 131,
          "midi": 79,
          "name": "G5",
          "ticks": 121200,
          "time": 99.344206,
          "velocity": 1
        },
        {
          "duration": 0.10737698833332843,
          "durationTicks": 131,
          "midi": 79,
          "name": "G5",
          "ticks": 121200,
          "time": 99.344206,
          "velocity": 1
        },
        {
          "duration": 0.10737698833332843,
          "durationTicks": 131,
          "midi": 79,
          "name": "G5",
          "ticks": 121200,
          "time": 99.344206,
          "velocity": 1
        },
        {
          "duration": 0.10737698833332843,
          "durationTicks": 131,
          "midi": 79,
          "name": "G5",
          "ticks": 121200,
          "time": 99.344206,
          "velocity": 1
        },
        {
          "duration": 0.10737698833332843,
          "durationTicks": 131,
          "midi": 79,
          "name": "G5",
          "ticks": 121200,
          "time": 99.344206,
          "velocity": 1
        },
        {
          "duration": 0.10737698833332843,
          "durationTicks": 131,
          "midi": 79,
          "name": "G5",
          "ticks": 121200,
          "time": 99.344206,
          "velocity": 1
        },
        {
          "duration": 0.10737698833332843,
          "durationTicks": 131,
          "midi": 79,
          "name": "G5",
          "ticks": 121200,
          "time": 99.344206,
          "velocity": 1
        },
        {
          "duration": 0.10737698833332843,
          "durationTicks": 131,
          "midi": 79,
          "name": "G5",
          "ticks": 121200,
          "time": 99.344206,
          "velocity": 1
        },
        {
          "duration": 0.10737698833332843,
          "durationTicks": 131,
          "midi": 79,
          "name": "G5",
          "ticks": 121200,
          "time": 99.344206,
          "velocity": 1
        },
        {
          "duration": 0.10737698833332843,
          "durationTicks": 131,
          "midi": 79,
          "name": "G5",
          "ticks": 121200,
          "time": 99.344206,
          "velocity": 1
        },
        {
          "duration": 0.10737698833332843,
          "durationTicks": 131,
          "midi": 79,
          "name": "G5",
          "ticks": 121200,
          "time": 99.344206,
          "velocity": 1
        },
        {
          "duration": 0.10737698833332843,
          "durationTicks": 131,
          "midi": 79,
          "name": "G5",
          "ticks": 121200,
          "time": 99.344206,
          "velocity": 1
        },
        {
          "duration": 0.10737698833332843,
          "durationTicks": 131,
          "midi": 79,
          "name": "G5",
          "ticks": 121200,
          "time": 99.344206,
          "velocity": 1
        },
        {
          "duration": 0.35327848833333064,
          "durationTicks": 431,
          "midi": 46,
          "name": "A#2",
          "ticks": 121200,
          "time": 99.344206,
          "velocity": 0.7086614173228346
        },
        {
          "duration": 0.10737698833332843,
          "durationTicks": 131,
          "midi": 36,
          "name": "C2",
          "ticks": 121200,
          "time": 99.344206,
          "velocity": 0.8031496062992126
        },
        {
          "duration": 0.10737698833332843,
          "durationTicks": 131,
          "midi": 36,
          "name": "C2",
          "ticks": 121500,
          "time": 99.5901075,
          "velocity": 0.8031496062992126
        },
        {
          "duration": 0.35327848833333064,
          "durationTicks": 431,
          "midi": 38,
          "name": "D2",
          "ticks": 121800,
          "time": 99.836009,
          "velocity": 0.8031496062992126
        },
        {
          "duration": 0.35327848833333064,
          "durationTicks": 431,
          "midi": 46,
          "name": "A#2",
          "ticks": 121800,
          "time": 99.836009,
          "velocity": 0.7165354330708661
        },
        {
          "duration": 0.10737698833334264,
          "durationTicks": 131,
          "midi": 36,
          "name": "C2",
          "ticks": 122100,
          "time": 100.08191049999999,
          "velocity": 0.8031496062992126
        },
        {
          "duration": 0.10737698833334264,
          "durationTicks": 131,
          "midi": 78,
          "name": "F#5",
          "ticks": 122400,
          "time": 100.327812,
          "velocity": 1
        },
        {
          "duration": 0.10737698833334264,
          "durationTicks": 131,
          "midi": 78,
          "name": "F#5",
          "ticks": 122400,
          "time": 100.327812,
          "velocity": 1
        },
        {
          "duration": 0.10737698833334264,
          "durationTicks": 131,
          "midi": 78,
          "name": "F#5",
          "ticks": 122400,
          "time": 100.327812,
          "velocity": 1
        },
        {
          "duration": 0.10737698833334264,
          "durationTicks": 131,
          "midi": 78,
          "name": "F#5",
          "ticks": 122400,
          "time": 100.327812,
          "velocity": 1
        },
        {
          "duration": 0.10737698833334264,
          "durationTicks": 131,
          "midi": 78,
          "name": "F#5",
          "ticks": 122400,
          "time": 100.327812,
          "velocity": 1
        },
        {
          "duration": 0.10737698833334264,
          "durationTicks": 131,
          "midi": 78,
          "name": "F#5",
          "ticks": 122400,
          "time": 100.327812,
          "velocity": 1
        },
        {
          "duration": 0.10737698833334264,
          "durationTicks": 131,
          "midi": 78,
          "name": "F#5",
          "ticks": 122400,
          "time": 100.327812,
          "velocity": 1
        },
        {
          "duration": 0.10737698833334264,
          "durationTicks": 131,
          "midi": 78,
          "name": "F#5",
          "ticks": 122400,
          "time": 100.327812,
          "velocity": 1
        },
        {
          "duration": 0.10737698833334264,
          "durationTicks": 131,
          "midi": 78,
          "name": "F#5",
          "ticks": 122400,
          "time": 100.327812,
          "velocity": 1
        },
        {
          "duration": 0.10737698833334264,
          "durationTicks": 131,
          "midi": 78,
          "name": "F#5",
          "ticks": 122400,
          "time": 100.327812,
          "velocity": 1
        },
        {
          "duration": 0.10737698833334264,
          "durationTicks": 131,
          "midi": 78,
          "name": "F#5",
          "ticks": 122400,
          "time": 100.327812,
          "velocity": 1
        },
        {
          "duration": 0.10737698833334264,
          "durationTicks": 131,
          "midi": 78,
          "name": "F#5",
          "ticks": 122400,
          "time": 100.327812,
          "velocity": 1
        },
        {
          "duration": 0.10737698833334264,
          "durationTicks": 131,
          "midi": 78,
          "name": "F#5",
          "ticks": 122400,
          "time": 100.327812,
          "velocity": 1
        },
        {
          "duration": 0.10737698833334264,
          "durationTicks": 131,
          "midi": 78,
          "name": "F#5",
          "ticks": 122400,
          "time": 100.327812,
          "velocity": 1
        },
        {
          "duration": 0.10737698833334264,
          "durationTicks": 131,
          "midi": 78,
          "name": "F#5",
          "ticks": 122400,
          "time": 100.327812,
          "velocity": 1
        },
        {
          "duration": 0.10737698833334264,
          "durationTicks": 131,
          "midi": 78,
          "name": "F#5",
          "ticks": 122400,
          "time": 100.327812,
          "velocity": 1
        },
        {
          "duration": 0.10737698833334264,
          "durationTicks": 131,
          "midi": 36,
          "name": "C2",
          "ticks": 122400,
          "time": 100.327812,
          "velocity": 0.7874015748031497
        },
        {
          "duration": 0.35327848833333064,
          "durationTicks": 431,
          "midi": 46,
          "name": "A#2",
          "ticks": 122400,
          "time": 100.327812,
          "velocity": 0.7007874015748031
        },
        {
          "duration": 0.10737698833332843,
          "durationTicks": 131,
          "midi": 36,
          "name": "C2",
          "ticks": 122700,
          "time": 100.5737135,
          "velocity": 0.7952755905511811
        },
        {
          "duration": 0.35327848833333064,
          "durationTicks": 431,
          "midi": 46,
          "name": "A#2",
          "ticks": 123000,
          "time": 100.819615,
          "velocity": 0.7007874015748031
        },
        {
          "duration": 0.35327848833333064,
          "durationTicks": 431,
          "midi": 38,
          "name": "D2",
          "ticks": 123000,
          "time": 100.819615,
          "velocity": 0.7952755905511811
        },
        {
          "duration": 0.10737698833332843,
          "durationTicks": 131,
          "midi": 36,
          "name": "C2",
          "ticks": 123300,
          "time": 101.0655165,
          "velocity": 0.7952755905511811
        },
        {
          "duration": 0.10737698833332843,
          "durationTicks": 131,
          "midi": 79,
          "name": "G5",
          "ticks": 123600,
          "time": 101.311418,
          "velocity": 1
        },
        {
          "duration": 0.10737698833332843,
          "durationTicks": 131,
          "midi": 79,
          "name": "G5",
          "ticks": 123600,
          "time": 101.311418,
          "velocity": 1
        },
        {
          "duration": 0.10737698833332843,
          "durationTicks": 131,
          "midi": 79,
          "name": "G5",
          "ticks": 123600,
          "time": 101.311418,
          "velocity": 1
        },
        {
          "duration": 0.10737698833332843,
          "durationTicks": 131,
          "midi": 79,
          "name": "G5",
          "ticks": 123600,
          "time": 101.311418,
          "velocity": 1
        },
        {
          "duration": 0.10737698833332843,
          "durationTicks": 131,
          "midi": 79,
          "name": "G5",
          "ticks": 123600,
          "time": 101.311418,
          "velocity": 1
        },
        {
          "duration": 0.10737698833332843,
          "durationTicks": 131,
          "midi": 79,
          "name": "G5",
          "ticks": 123600,
          "time": 101.311418,
          "velocity": 1
        },
        {
          "duration": 0.10737698833332843,
          "durationTicks": 131,
          "midi": 79,
          "name": "G5",
          "ticks": 123600,
          "time": 101.311418,
          "velocity": 1
        },
        {
          "duration": 0.10737698833332843,
          "durationTicks": 131,
          "midi": 79,
          "name": "G5",
          "ticks": 123600,
          "time": 101.311418,
          "velocity": 1
        },
        {
          "duration": 0.10737698833332843,
          "durationTicks": 131,
          "midi": 79,
          "name": "G5",
          "ticks": 123600,
          "time": 101.311418,
          "velocity": 1
        },
        {
          "duration": 0.10737698833332843,
          "durationTicks": 131,
          "midi": 79,
          "name": "G5",
          "ticks": 123600,
          "time": 101.311418,
          "velocity": 1
        },
        {
          "duration": 0.10737698833332843,
          "durationTicks": 131,
          "midi": 79,
          "name": "G5",
          "ticks": 123600,
          "time": 101.311418,
          "velocity": 1
        },
        {
          "duration": 0.10737698833332843,
          "durationTicks": 131,
          "midi": 79,
          "name": "G5",
          "ticks": 123600,
          "time": 101.311418,
          "velocity": 1
        },
        {
          "duration": 0.10737698833332843,
          "durationTicks": 131,
          "midi": 79,
          "name": "G5",
          "ticks": 123600,
          "time": 101.311418,
          "velocity": 1
        },
        {
          "duration": 0.10737698833332843,
          "durationTicks": 131,
          "midi": 79,
          "name": "G5",
          "ticks": 123600,
          "time": 101.311418,
          "velocity": 1
        },
        {
          "duration": 0.10737698833332843,
          "durationTicks": 131,
          "midi": 79,
          "name": "G5",
          "ticks": 123600,
          "time": 101.311418,
          "velocity": 1
        },
        {
          "duration": 0.10737698833332843,
          "durationTicks": 131,
          "midi": 79,
          "name": "G5",
          "ticks": 123600,
          "time": 101.311418,
          "velocity": 1
        },
        {
          "duration": 0.35327848833333064,
          "durationTicks": 431,
          "midi": 46,
          "name": "A#2",
          "ticks": 123600,
          "time": 101.311418,
          "velocity": 0.7086614173228346
        },
        {
          "duration": 0.10737698833332843,
          "durationTicks": 131,
          "midi": 36,
          "name": "C2",
          "ticks": 123600,
          "time": 101.311418,
          "velocity": 0.8031496062992126
        },
        {
          "duration": 0.10737698833334264,
          "durationTicks": 131,
          "midi": 36,
          "name": "C2",
          "ticks": 123900,
          "time": 101.55731949999999,
          "velocity": 0.8031496062992126
        },
        {
          "duration": 0.35327848833334485,
          "durationTicks": 431,
          "midi": 38,
          "name": "D2",
          "ticks": 124200,
          "time": 101.803221,
          "velocity": 0.8031496062992126
        },
        {
          "duration": 0.35327848833334485,
          "durationTicks": 431,
          "midi": 46,
          "name": "A#2",
          "ticks": 124200,
          "time": 101.803221,
          "velocity": 0.7165354330708661
        },
        {
          "duration": 0.10737698833334264,
          "durationTicks": 131,
          "midi": 36,
          "name": "C2",
          "ticks": 124500,
          "time": 102.0491225,
          "velocity": 0.8031496062992126
        },
        {
          "duration": 0.10737698833332843,
          "durationTicks": 131,
          "midi": 78,
          "name": "F#5",
          "ticks": 124800,
          "time": 102.295024,
          "velocity": 1
        },
        {
          "duration": 0.10737698833332843,
          "durationTicks": 131,
          "midi": 78,
          "name": "F#5",
          "ticks": 124800,
          "time": 102.295024,
          "velocity": 1
        },
        {
          "duration": 0.10737698833332843,
          "durationTicks": 131,
          "midi": 78,
          "name": "F#5",
          "ticks": 124800,
          "time": 102.295024,
          "velocity": 1
        },
        {
          "duration": 0.10737698833332843,
          "durationTicks": 131,
          "midi": 78,
          "name": "F#5",
          "ticks": 124800,
          "time": 102.295024,
          "velocity": 1
        },
        {
          "duration": 0.10737698833332843,
          "durationTicks": 131,
          "midi": 78,
          "name": "F#5",
          "ticks": 124800,
          "time": 102.295024,
          "velocity": 1
        },
        {
          "duration": 0.10737698833332843,
          "durationTicks": 131,
          "midi": 78,
          "name": "F#5",
          "ticks": 124800,
          "time": 102.295024,
          "velocity": 1
        },
        {
          "duration": 0.10737698833332843,
          "durationTicks": 131,
          "midi": 78,
          "name": "F#5",
          "ticks": 124800,
          "time": 102.295024,
          "velocity": 1
        },
        {
          "duration": 0.10737698833332843,
          "durationTicks": 131,
          "midi": 78,
          "name": "F#5",
          "ticks": 124800,
          "time": 102.295024,
          "velocity": 1
        },
        {
          "duration": 0.10737698833332843,
          "durationTicks": 131,
          "midi": 78,
          "name": "F#5",
          "ticks": 124800,
          "time": 102.295024,
          "velocity": 1
        },
        {
          "duration": 0.10737698833332843,
          "durationTicks": 131,
          "midi": 78,
          "name": "F#5",
          "ticks": 124800,
          "time": 102.295024,
          "velocity": 1
        },
        {
          "duration": 0.10737698833332843,
          "durationTicks": 131,
          "midi": 78,
          "name": "F#5",
          "ticks": 124800,
          "time": 102.295024,
          "velocity": 1
        },
        {
          "duration": 0.10737698833332843,
          "durationTicks": 131,
          "midi": 78,
          "name": "F#5",
          "ticks": 124800,
          "time": 102.295024,
          "velocity": 1
        },
        {
          "duration": 0.10737698833332843,
          "durationTicks": 131,
          "midi": 78,
          "name": "F#5",
          "ticks": 124800,
          "time": 102.295024,
          "velocity": 1
        },
        {
          "duration": 0.10737698833332843,
          "durationTicks": 131,
          "midi": 78,
          "name": "F#5",
          "ticks": 124800,
          "time": 102.295024,
          "velocity": 1
        },
        {
          "duration": 0.10737698833332843,
          "durationTicks": 131,
          "midi": 78,
          "name": "F#5",
          "ticks": 124800,
          "time": 102.295024,
          "velocity": 1
        },
        {
          "duration": 0.10737698833332843,
          "durationTicks": 131,
          "midi": 78,
          "name": "F#5",
          "ticks": 124800,
          "time": 102.295024,
          "velocity": 1
        },
        {
          "duration": 0.10737698833332843,
          "durationTicks": 131,
          "midi": 36,
          "name": "C2",
          "ticks": 124800,
          "time": 102.295024,
          "velocity": 0.7874015748031497
        },
        {
          "duration": 0.35327848833333064,
          "durationTicks": 431,
          "midi": 46,
          "name": "A#2",
          "ticks": 124800,
          "time": 102.295024,
          "velocity": 0.7007874015748031
        },
        {
          "duration": 0.10737698833332843,
          "durationTicks": 131,
          "midi": 36,
          "name": "C2",
          "ticks": 125100,
          "time": 102.5409255,
          "velocity": 0.7952755905511811
        },
        {
          "duration": 0.35327848833333064,
          "durationTicks": 431,
          "midi": 46,
          "name": "A#2",
          "ticks": 125400,
          "time": 102.786827,
          "velocity": 0.7007874015748031
        },
        {
          "duration": 0.35327848833333064,
          "durationTicks": 431,
          "midi": 38,
          "name": "D2",
          "ticks": 125400,
          "time": 102.786827,
          "velocity": 0.7952755905511811
        },
        {
          "duration": 0.10737698833332843,
          "durationTicks": 131,
          "midi": 36,
          "name": "C2",
          "ticks": 125700,
          "time": 103.0327285,
          "velocity": 0.7952755905511811
        },
        {
          "duration": 0.10737698833334264,
          "durationTicks": 131,
          "midi": 79,
          "name": "G5",
          "ticks": 126000,
          "time": 103.27862999999999,
          "velocity": 1
        },
        {
          "duration": 0.10737698833334264,
          "durationTicks": 131,
          "midi": 79,
          "name": "G5",
          "ticks": 126000,
          "time": 103.27862999999999,
          "velocity": 1
        },
        {
          "duration": 0.10737698833334264,
          "durationTicks": 131,
          "midi": 79,
          "name": "G5",
          "ticks": 126000,
          "time": 103.27862999999999,
          "velocity": 1
        },
        {
          "duration": 0.10737698833334264,
          "durationTicks": 131,
          "midi": 79,
          "name": "G5",
          "ticks": 126000,
          "time": 103.27862999999999,
          "velocity": 1
        },
        {
          "duration": 0.10737698833334264,
          "durationTicks": 131,
          "midi": 79,
          "name": "G5",
          "ticks": 126000,
          "time": 103.27862999999999,
          "velocity": 1
        },
        {
          "duration": 0.10737698833334264,
          "durationTicks": 131,
          "midi": 79,
          "name": "G5",
          "ticks": 126000,
          "time": 103.27862999999999,
          "velocity": 1
        },
        {
          "duration": 0.10737698833334264,
          "durationTicks": 131,
          "midi": 79,
          "name": "G5",
          "ticks": 126000,
          "time": 103.27862999999999,
          "velocity": 1
        },
        {
          "duration": 0.10737698833334264,
          "durationTicks": 131,
          "midi": 79,
          "name": "G5",
          "ticks": 126000,
          "time": 103.27862999999999,
          "velocity": 1
        },
        {
          "duration": 0.10737698833334264,
          "durationTicks": 131,
          "midi": 79,
          "name": "G5",
          "ticks": 126000,
          "time": 103.27862999999999,
          "velocity": 1
        },
        {
          "duration": 0.10737698833334264,
          "durationTicks": 131,
          "midi": 79,
          "name": "G5",
          "ticks": 126000,
          "time": 103.27862999999999,
          "velocity": 1
        },
        {
          "duration": 0.10737698833334264,
          "durationTicks": 131,
          "midi": 79,
          "name": "G5",
          "ticks": 126000,
          "time": 103.27862999999999,
          "velocity": 1
        },
        {
          "duration": 0.10737698833334264,
          "durationTicks": 131,
          "midi": 79,
          "name": "G5",
          "ticks": 126000,
          "time": 103.27862999999999,
          "velocity": 1
        },
        {
          "duration": 0.10737698833334264,
          "durationTicks": 131,
          "midi": 79,
          "name": "G5",
          "ticks": 126000,
          "time": 103.27862999999999,
          "velocity": 1
        },
        {
          "duration": 0.10737698833334264,
          "durationTicks": 131,
          "midi": 79,
          "name": "G5",
          "ticks": 126000,
          "time": 103.27862999999999,
          "velocity": 1
        },
        {
          "duration": 0.10737698833334264,
          "durationTicks": 131,
          "midi": 79,
          "name": "G5",
          "ticks": 126000,
          "time": 103.27862999999999,
          "velocity": 1
        },
        {
          "duration": 0.10737698833334264,
          "durationTicks": 131,
          "midi": 79,
          "name": "G5",
          "ticks": 126000,
          "time": 103.27862999999999,
          "velocity": 1
        },
        {
          "duration": 0.35327848833334485,
          "durationTicks": 431,
          "midi": 46,
          "name": "A#2",
          "ticks": 126000,
          "time": 103.27862999999999,
          "velocity": 0.7086614173228346
        },
        {
          "duration": 0.10737698833334264,
          "durationTicks": 131,
          "midi": 36,
          "name": "C2",
          "ticks": 126000,
          "time": 103.27862999999999,
          "velocity": 0.8031496062992126
        },
        {
          "duration": 0.10737698833334264,
          "durationTicks": 131,
          "midi": 36,
          "name": "C2",
          "ticks": 126300,
          "time": 103.5245315,
          "velocity": 0.8031496062992126
        },
        {
          "duration": 0.35327848833333064,
          "durationTicks": 431,
          "midi": 38,
          "name": "D2",
          "ticks": 126600,
          "time": 103.770433,
          "velocity": 0.8031496062992126
        },
        {
          "duration": 0.35327848833333064,
          "durationTicks": 431,
          "midi": 46,
          "name": "A#2",
          "ticks": 126600,
          "time": 103.770433,
          "velocity": 0.7165354330708661
        },
        {
          "duration": 0.10737698833332843,
          "durationTicks": 131,
          "midi": 36,
          "name": "C2",
          "ticks": 126900,
          "time": 104.0163345,
          "velocity": 0.8031496062992126
        },
        {
          "duration": 0.10737698833332843,
          "durationTicks": 131,
          "midi": 78,
          "name": "F#5",
          "ticks": 127200,
          "time": 104.262236,
          "velocity": 1
        },
        {
          "duration": 0.10737698833332843,
          "durationTicks": 131,
          "midi": 78,
          "name": "F#5",
          "ticks": 127200,
          "time": 104.262236,
          "velocity": 1
        },
        {
          "duration": 0.10737698833332843,
          "durationTicks": 131,
          "midi": 78,
          "name": "F#5",
          "ticks": 127200,
          "time": 104.262236,
          "velocity": 1
        },
        {
          "duration": 0.10737698833332843,
          "durationTicks": 131,
          "midi": 78,
          "name": "F#5",
          "ticks": 127200,
          "time": 104.262236,
          "velocity": 1
        },
        {
          "duration": 0.10737698833332843,
          "durationTicks": 131,
          "midi": 78,
          "name": "F#5",
          "ticks": 127200,
          "time": 104.262236,
          "velocity": 1
        },
        {
          "duration": 0.10737698833332843,
          "durationTicks": 131,
          "midi": 78,
          "name": "F#5",
          "ticks": 127200,
          "time": 104.262236,
          "velocity": 1
        },
        {
          "duration": 0.10737698833332843,
          "durationTicks": 131,
          "midi": 78,
          "name": "F#5",
          "ticks": 127200,
          "time": 104.262236,
          "velocity": 1
        },
        {
          "duration": 0.10737698833332843,
          "durationTicks": 131,
          "midi": 78,
          "name": "F#5",
          "ticks": 127200,
          "time": 104.262236,
          "velocity": 1
        },
        {
          "duration": 0.10737698833332843,
          "durationTicks": 131,
          "midi": 78,
          "name": "F#5",
          "ticks": 127200,
          "time": 104.262236,
          "velocity": 1
        },
        {
          "duration": 0.10737698833332843,
          "durationTicks": 131,
          "midi": 78,
          "name": "F#5",
          "ticks": 127200,
          "time": 104.262236,
          "velocity": 1
        },
        {
          "duration": 0.10737698833332843,
          "durationTicks": 131,
          "midi": 78,
          "name": "F#5",
          "ticks": 127200,
          "time": 104.262236,
          "velocity": 1
        },
        {
          "duration": 0.10737698833332843,
          "durationTicks": 131,
          "midi": 78,
          "name": "F#5",
          "ticks": 127200,
          "time": 104.262236,
          "velocity": 1
        },
        {
          "duration": 0.10737698833332843,
          "durationTicks": 131,
          "midi": 78,
          "name": "F#5",
          "ticks": 127200,
          "time": 104.262236,
          "velocity": 1
        },
        {
          "duration": 0.10737698833332843,
          "durationTicks": 131,
          "midi": 78,
          "name": "F#5",
          "ticks": 127200,
          "time": 104.262236,
          "velocity": 1
        },
        {
          "duration": 0.10737698833332843,
          "durationTicks": 131,
          "midi": 78,
          "name": "F#5",
          "ticks": 127200,
          "time": 104.262236,
          "velocity": 1
        },
        {
          "duration": 0.10737698833332843,
          "durationTicks": 131,
          "midi": 78,
          "name": "F#5",
          "ticks": 127200,
          "time": 104.262236,
          "velocity": 1
        },
        {
          "duration": 0.10737698833332843,
          "durationTicks": 131,
          "midi": 36,
          "name": "C2",
          "ticks": 127200,
          "time": 104.262236,
          "velocity": 0.7874015748031497
        },
        {
          "duration": 0.35327848833333064,
          "durationTicks": 431,
          "midi": 46,
          "name": "A#2",
          "ticks": 127200,
          "time": 104.262236,
          "velocity": 0.7007874015748031
        },
        {
          "duration": 0.10737698833332843,
          "durationTicks": 131,
          "midi": 36,
          "name": "C2",
          "ticks": 127500,
          "time": 104.5081375,
          "velocity": 0.7952755905511811
        },
        {
          "duration": 0.35327848833334485,
          "durationTicks": 431,
          "midi": 46,
          "name": "A#2",
          "ticks": 127800,
          "time": 104.75403899999999,
          "velocity": 0.7007874015748031
        },
        {
          "duration": 0.35327848833334485,
          "durationTicks": 431,
          "midi": 38,
          "name": "D2",
          "ticks": 127800,
          "time": 104.75403899999999,
          "velocity": 0.7952755905511811
        },
        {
          "duration": 0.10737698833334264,
          "durationTicks": 131,
          "midi": 36,
          "name": "C2",
          "ticks": 128100,
          "time": 104.9999405,
          "velocity": 0.7952755905511811
        },
        {
          "duration": 0.10737698833332843,
          "durationTicks": 131,
          "midi": 79,
          "name": "G5",
          "ticks": 128400,
          "time": 105.245842,
          "velocity": 1
        },
        {
          "duration": 0.10737698833332843,
          "durationTicks": 131,
          "midi": 79,
          "name": "G5",
          "ticks": 128400,
          "time": 105.245842,
          "velocity": 1
        },
        {
          "duration": 0.10737698833332843,
          "durationTicks": 131,
          "midi": 79,
          "name": "G5",
          "ticks": 128400,
          "time": 105.245842,
          "velocity": 1
        },
        {
          "duration": 0.10737698833332843,
          "durationTicks": 131,
          "midi": 79,
          "name": "G5",
          "ticks": 128400,
          "time": 105.245842,
          "velocity": 1
        },
        {
          "duration": 0.10737698833332843,
          "durationTicks": 131,
          "midi": 79,
          "name": "G5",
          "ticks": 128400,
          "time": 105.245842,
          "velocity": 1
        },
        {
          "duration": 0.10737698833332843,
          "durationTicks": 131,
          "midi": 79,
          "name": "G5",
          "ticks": 128400,
          "time": 105.245842,
          "velocity": 1
        },
        {
          "duration": 0.10737698833332843,
          "durationTicks": 131,
          "midi": 79,
          "name": "G5",
          "ticks": 128400,
          "time": 105.245842,
          "velocity": 1
        },
        {
          "duration": 0.10737698833332843,
          "durationTicks": 131,
          "midi": 79,
          "name": "G5",
          "ticks": 128400,
          "time": 105.245842,
          "velocity": 1
        },
        {
          "duration": 0.10737698833332843,
          "durationTicks": 131,
          "midi": 79,
          "name": "G5",
          "ticks": 128400,
          "time": 105.245842,
          "velocity": 1
        },
        {
          "duration": 0.10737698833332843,
          "durationTicks": 131,
          "midi": 79,
          "name": "G5",
          "ticks": 128400,
          "time": 105.245842,
          "velocity": 1
        },
        {
          "duration": 0.10737698833332843,
          "durationTicks": 131,
          "midi": 79,
          "name": "G5",
          "ticks": 128400,
          "time": 105.245842,
          "velocity": 1
        },
        {
          "duration": 0.10737698833332843,
          "durationTicks": 131,
          "midi": 79,
          "name": "G5",
          "ticks": 128400,
          "time": 105.245842,
          "velocity": 1
        },
        {
          "duration": 0.10737698833332843,
          "durationTicks": 131,
          "midi": 79,
          "name": "G5",
          "ticks": 128400,
          "time": 105.245842,
          "velocity": 1
        },
        {
          "duration": 0.10737698833332843,
          "durationTicks": 131,
          "midi": 79,
          "name": "G5",
          "ticks": 128400,
          "time": 105.245842,
          "velocity": 1
        },
        {
          "duration": 0.10737698833332843,
          "durationTicks": 131,
          "midi": 79,
          "name": "G5",
          "ticks": 128400,
          "time": 105.245842,
          "velocity": 1
        },
        {
          "duration": 0.10737698833332843,
          "durationTicks": 131,
          "midi": 79,
          "name": "G5",
          "ticks": 128400,
          "time": 105.245842,
          "velocity": 1
        },
        {
          "duration": 0.35327848833333064,
          "durationTicks": 431,
          "midi": 46,
          "name": "A#2",
          "ticks": 128400,
          "time": 105.245842,
          "velocity": 0.7086614173228346
        },
        {
          "duration": 0.10737698833332843,
          "durationTicks": 131,
          "midi": 36,
          "name": "C2",
          "ticks": 128400,
          "time": 105.245842,
          "velocity": 0.8031496062992126
        },
        {
          "duration": 0.10737698833332843,
          "durationTicks": 131,
          "midi": 36,
          "name": "C2",
          "ticks": 128700,
          "time": 105.4917435,
          "velocity": 0.8031496062992126
        },
        {
          "duration": 0.35327848833333064,
          "durationTicks": 431,
          "midi": 38,
          "name": "D2",
          "ticks": 129000,
          "time": 105.737645,
          "velocity": 0.8031496062992126
        },
        {
          "duration": 0.35327848833333064,
          "durationTicks": 431,
          "midi": 46,
          "name": "A#2",
          "ticks": 129000,
          "time": 105.737645,
          "velocity": 0.7165354330708661
        },
        {
          "duration": 0.10737698833332843,
          "durationTicks": 131,
          "midi": 36,
          "name": "C2",
          "ticks": 129300,
          "time": 105.9835465,
          "velocity": 0.8031496062992126
        },
        {
          "duration": 0.10737698833334264,
          "durationTicks": 131,
          "midi": 78,
          "name": "F#5",
          "ticks": 129600,
          "time": 106.22944799999999,
          "velocity": 1
        },
        {
          "duration": 0.10737698833334264,
          "durationTicks": 131,
          "midi": 78,
          "name": "F#5",
          "ticks": 129600,
          "time": 106.22944799999999,
          "velocity": 1
        },
        {
          "duration": 0.10737698833334264,
          "durationTicks": 131,
          "midi": 78,
          "name": "F#5",
          "ticks": 129600,
          "time": 106.22944799999999,
          "velocity": 1
        },
        {
          "duration": 0.10737698833334264,
          "durationTicks": 131,
          "midi": 78,
          "name": "F#5",
          "ticks": 129600,
          "time": 106.22944799999999,
          "velocity": 1
        },
        {
          "duration": 0.10737698833334264,
          "durationTicks": 131,
          "midi": 78,
          "name": "F#5",
          "ticks": 129600,
          "time": 106.22944799999999,
          "velocity": 1
        },
        {
          "duration": 0.10737698833334264,
          "durationTicks": 131,
          "midi": 78,
          "name": "F#5",
          "ticks": 129600,
          "time": 106.22944799999999,
          "velocity": 1
        },
        {
          "duration": 0.10737698833334264,
          "durationTicks": 131,
          "midi": 78,
          "name": "F#5",
          "ticks": 129600,
          "time": 106.22944799999999,
          "velocity": 1
        },
        {
          "duration": 0.10737698833334264,
          "durationTicks": 131,
          "midi": 78,
          "name": "F#5",
          "ticks": 129600,
          "time": 106.22944799999999,
          "velocity": 1
        },
        {
          "duration": 0.10737698833334264,
          "durationTicks": 131,
          "midi": 78,
          "name": "F#5",
          "ticks": 129600,
          "time": 106.22944799999999,
          "velocity": 1
        },
        {
          "duration": 0.10737698833334264,
          "durationTicks": 131,
          "midi": 78,
          "name": "F#5",
          "ticks": 129600,
          "time": 106.22944799999999,
          "velocity": 1
        },
        {
          "duration": 0.10737698833334264,
          "durationTicks": 131,
          "midi": 78,
          "name": "F#5",
          "ticks": 129600,
          "time": 106.22944799999999,
          "velocity": 1
        },
        {
          "duration": 0.10737698833334264,
          "durationTicks": 131,
          "midi": 78,
          "name": "F#5",
          "ticks": 129600,
          "time": 106.22944799999999,
          "velocity": 1
        },
        {
          "duration": 0.10737698833334264,
          "durationTicks": 131,
          "midi": 78,
          "name": "F#5",
          "ticks": 129600,
          "time": 106.22944799999999,
          "velocity": 1
        },
        {
          "duration": 0.10737698833334264,
          "durationTicks": 131,
          "midi": 78,
          "name": "F#5",
          "ticks": 129600,
          "time": 106.22944799999999,
          "velocity": 1
        },
        {
          "duration": 0.10737698833334264,
          "durationTicks": 131,
          "midi": 78,
          "name": "F#5",
          "ticks": 129600,
          "time": 106.22944799999999,
          "velocity": 1
        },
        {
          "duration": 0.10737698833334264,
          "durationTicks": 131,
          "midi": 78,
          "name": "F#5",
          "ticks": 129600,
          "time": 106.22944799999999,
          "velocity": 1
        },
        {
          "duration": 0.10737698833334264,
          "durationTicks": 131,
          "midi": 36,
          "name": "C2",
          "ticks": 129600,
          "time": 106.22944799999999,
          "velocity": 0.7874015748031497
        },
        {
          "duration": 0.35327848833334485,
          "durationTicks": 431,
          "midi": 46,
          "name": "A#2",
          "ticks": 129600,
          "time": 106.22944799999999,
          "velocity": 0.7007874015748031
        },
        {
          "duration": 0.10737698833334264,
          "durationTicks": 131,
          "midi": 36,
          "name": "C2",
          "ticks": 129900,
          "time": 106.4753495,
          "velocity": 0.7952755905511811
        },
        {
          "duration": 0.35327848833333064,
          "durationTicks": 431,
          "midi": 46,
          "name": "A#2",
          "ticks": 130200,
          "time": 106.721251,
          "velocity": 0.7007874015748031
        },
        {
          "duration": 0.35327848833333064,
          "durationTicks": 431,
          "midi": 38,
          "name": "D2",
          "ticks": 130200,
          "time": 106.721251,
          "velocity": 0.7952755905511811
        },
        {
          "duration": 0.10737698833332843,
          "durationTicks": 131,
          "midi": 36,
          "name": "C2",
          "ticks": 130500,
          "time": 106.9671525,
          "velocity": 0.7952755905511811
        },
        {
          "duration": 0.10737698833332843,
          "durationTicks": 131,
          "midi": 79,
          "name": "G5",
          "ticks": 130800,
          "time": 107.213054,
          "velocity": 1
        },
        {
          "duration": 0.10737698833332843,
          "durationTicks": 131,
          "midi": 79,
          "name": "G5",
          "ticks": 130800,
          "time": 107.213054,
          "velocity": 1
        },
        {
          "duration": 0.10737698833332843,
          "durationTicks": 131,
          "midi": 79,
          "name": "G5",
          "ticks": 130800,
          "time": 107.213054,
          "velocity": 1
        },
        {
          "duration": 0.10737698833332843,
          "durationTicks": 131,
          "midi": 79,
          "name": "G5",
          "ticks": 130800,
          "time": 107.213054,
          "velocity": 1
        },
        {
          "duration": 0.10737698833332843,
          "durationTicks": 131,
          "midi": 79,
          "name": "G5",
          "ticks": 130800,
          "time": 107.213054,
          "velocity": 1
        },
        {
          "duration": 0.10737698833332843,
          "durationTicks": 131,
          "midi": 79,
          "name": "G5",
          "ticks": 130800,
          "time": 107.213054,
          "velocity": 1
        },
        {
          "duration": 0.10737698833332843,
          "durationTicks": 131,
          "midi": 79,
          "name": "G5",
          "ticks": 130800,
          "time": 107.213054,
          "velocity": 1
        },
        {
          "duration": 0.10737698833332843,
          "durationTicks": 131,
          "midi": 79,
          "name": "G5",
          "ticks": 130800,
          "time": 107.213054,
          "velocity": 1
        },
        {
          "duration": 0.10737698833332843,
          "durationTicks": 131,
          "midi": 79,
          "name": "G5",
          "ticks": 130800,
          "time": 107.213054,
          "velocity": 1
        },
        {
          "duration": 0.10737698833332843,
          "durationTicks": 131,
          "midi": 79,
          "name": "G5",
          "ticks": 130800,
          "time": 107.213054,
          "velocity": 1
        },
        {
          "duration": 0.10737698833332843,
          "durationTicks": 131,
          "midi": 79,
          "name": "G5",
          "ticks": 130800,
          "time": 107.213054,
          "velocity": 1
        },
        {
          "duration": 0.10737698833332843,
          "durationTicks": 131,
          "midi": 79,
          "name": "G5",
          "ticks": 130800,
          "time": 107.213054,
          "velocity": 1
        },
        {
          "duration": 0.10737698833332843,
          "durationTicks": 131,
          "midi": 79,
          "name": "G5",
          "ticks": 130800,
          "time": 107.213054,
          "velocity": 1
        },
        {
          "duration": 0.10737698833332843,
          "durationTicks": 131,
          "midi": 79,
          "name": "G5",
          "ticks": 130800,
          "time": 107.213054,
          "velocity": 1
        },
        {
          "duration": 0.10737698833332843,
          "durationTicks": 131,
          "midi": 79,
          "name": "G5",
          "ticks": 130800,
          "time": 107.213054,
          "velocity": 1
        },
        {
          "duration": 0.10737698833332843,
          "durationTicks": 131,
          "midi": 79,
          "name": "G5",
          "ticks": 130800,
          "time": 107.213054,
          "velocity": 1
        },
        {
          "duration": 0.35327848833333064,
          "durationTicks": 431,
          "midi": 46,
          "name": "A#2",
          "ticks": 130800,
          "time": 107.213054,
          "velocity": 0.7086614173228346
        },
        {
          "duration": 0.10737698833332843,
          "durationTicks": 131,
          "midi": 36,
          "name": "C2",
          "ticks": 130800,
          "time": 107.213054,
          "velocity": 0.8031496062992126
        },
        {
          "duration": 0.10737698833332843,
          "durationTicks": 131,
          "midi": 36,
          "name": "C2",
          "ticks": 131100,
          "time": 107.4589555,
          "velocity": 0.8031496062992126
        },
        {
          "duration": 0.35327848833333064,
          "durationTicks": 431,
          "midi": 38,
          "name": "D2",
          "ticks": 131400,
          "time": 107.704857,
          "velocity": 0.8031496062992126
        },
        {
          "duration": 0.35327848833333064,
          "durationTicks": 431,
          "midi": 46,
          "name": "A#2",
          "ticks": 131400,
          "time": 107.704857,
          "velocity": 0.7165354330708661
        },
        {
          "duration": 0.10737698833334264,
          "durationTicks": 131,
          "midi": 36,
          "name": "C2",
          "ticks": 131700,
          "time": 107.95075849999999,
          "velocity": 0.8031496062992126
        },
        {
          "duration": 0.10737698833334264,
          "durationTicks": 131,
          "midi": 78,
          "name": "F#5",
          "ticks": 132000,
          "time": 108.19666,
          "velocity": 1
        },
        {
          "duration": 0.10737698833334264,
          "durationTicks": 131,
          "midi": 78,
          "name": "F#5",
          "ticks": 132000,
          "time": 108.19666,
          "velocity": 1
        },
        {
          "duration": 0.10737698833334264,
          "durationTicks": 131,
          "midi": 78,
          "name": "F#5",
          "ticks": 132000,
          "time": 108.19666,
          "velocity": 1
        },
        {
          "duration": 0.10737698833334264,
          "durationTicks": 131,
          "midi": 78,
          "name": "F#5",
          "ticks": 132000,
          "time": 108.19666,
          "velocity": 1
        },
        {
          "duration": 0.10737698833334264,
          "durationTicks": 131,
          "midi": 78,
          "name": "F#5",
          "ticks": 132000,
          "time": 108.19666,
          "velocity": 1
        },
        {
          "duration": 0.10737698833334264,
          "durationTicks": 131,
          "midi": 78,
          "name": "F#5",
          "ticks": 132000,
          "time": 108.19666,
          "velocity": 1
        },
        {
          "duration": 0.10737698833334264,
          "durationTicks": 131,
          "midi": 78,
          "name": "F#5",
          "ticks": 132000,
          "time": 108.19666,
          "velocity": 1
        },
        {
          "duration": 0.10737698833334264,
          "durationTicks": 131,
          "midi": 78,
          "name": "F#5",
          "ticks": 132000,
          "time": 108.19666,
          "velocity": 1
        },
        {
          "duration": 0.10737698833334264,
          "durationTicks": 131,
          "midi": 78,
          "name": "F#5",
          "ticks": 132000,
          "time": 108.19666,
          "velocity": 1
        },
        {
          "duration": 0.10737698833334264,
          "durationTicks": 131,
          "midi": 78,
          "name": "F#5",
          "ticks": 132000,
          "time": 108.19666,
          "velocity": 1
        },
        {
          "duration": 0.10737698833334264,
          "durationTicks": 131,
          "midi": 78,
          "name": "F#5",
          "ticks": 132000,
          "time": 108.19666,
          "velocity": 1
        },
        {
          "duration": 0.10737698833334264,
          "durationTicks": 131,
          "midi": 78,
          "name": "F#5",
          "ticks": 132000,
          "time": 108.19666,
          "velocity": 1
        },
        {
          "duration": 0.10737698833334264,
          "durationTicks": 131,
          "midi": 78,
          "name": "F#5",
          "ticks": 132000,
          "time": 108.19666,
          "velocity": 1
        },
        {
          "duration": 0.10737698833334264,
          "durationTicks": 131,
          "midi": 78,
          "name": "F#5",
          "ticks": 132000,
          "time": 108.19666,
          "velocity": 1
        },
        {
          "duration": 0.10737698833334264,
          "durationTicks": 131,
          "midi": 78,
          "name": "F#5",
          "ticks": 132000,
          "time": 108.19666,
          "velocity": 1
        },
        {
          "duration": 0.10737698833334264,
          "durationTicks": 131,
          "midi": 78,
          "name": "F#5",
          "ticks": 132000,
          "time": 108.19666,
          "velocity": 1
        },
        {
          "duration": 0.10737698833334264,
          "durationTicks": 131,
          "midi": 36,
          "name": "C2",
          "ticks": 132000,
          "time": 108.19666,
          "velocity": 0.7874015748031497
        },
        {
          "duration": 0.35327848833333064,
          "durationTicks": 431,
          "midi": 46,
          "name": "A#2",
          "ticks": 132000,
          "time": 108.19666,
          "velocity": 0.7007874015748031
        },
        {
          "duration": 0.10737698833332843,
          "durationTicks": 131,
          "midi": 36,
          "name": "C2",
          "ticks": 132300,
          "time": 108.4425615,
          "velocity": 0.7952755905511811
        },
        {
          "duration": 0.35327848833333064,
          "durationTicks": 431,
          "midi": 46,
          "name": "A#2",
          "ticks": 132600,
          "time": 108.688463,
          "velocity": 0.7007874015748031
        },
        {
          "duration": 0.35327848833333064,
          "durationTicks": 431,
          "midi": 38,
          "name": "D2",
          "ticks": 132600,
          "time": 108.688463,
          "velocity": 0.7952755905511811
        },
        {
          "duration": 0.10737698833332843,
          "durationTicks": 131,
          "midi": 36,
          "name": "C2",
          "ticks": 132900,
          "time": 108.9343645,
          "velocity": 0.7952755905511811
        },
        {
          "duration": 0.10737698833332843,
          "durationTicks": 131,
          "midi": 53,
          "name": "F3",
          "ticks": 133200,
          "time": 109.180266,
          "velocity": 0.7480314960629921
        },
        {
          "duration": 0.35327848833333064,
          "durationTicks": 431,
          "midi": 52,
          "name": "E3",
          "ticks": 133200,
          "time": 109.180266,
          "velocity": 0.7480314960629921
        },
        {
          "duration": 0.23032773833332953,
          "durationTicks": 281,
          "midi": 38,
          "name": "D2",
          "ticks": 133200,
          "time": 109.180266,
          "velocity": 0.7480314960629921
        },
        {
          "duration": 0.23032773833332953,
          "durationTicks": 281,
          "midi": 46,
          "name": "A#2",
          "ticks": 133200,
          "time": 109.180266,
          "velocity": 0.7480314960629921
        },
        {
          "duration": 0.23032773833332953,
          "durationTicks": 281,
          "midi": 53,
          "name": "F3",
          "ticks": 133350,
          "time": 109.30321675,
          "velocity": 0.7480314960629921
        },
        {
          "duration": 0.10737698833332843,
          "durationTicks": 131,
          "midi": 36,
          "name": "C2",
          "ticks": 133350,
          "time": 109.30321675,
          "velocity": 0.7480314960629921
        },
        {
          "duration": 0.10737698833334264,
          "durationTicks": 131,
          "midi": 46,
          "name": "A#2",
          "ticks": 133500,
          "time": 109.42616749999999,
          "velocity": 0.7480314960629921
        },
        {
          "duration": 0.10737698833334264,
          "durationTicks": 131,
          "midi": 38,
          "name": "D2",
          "ticks": 133500,
          "time": 109.42616749999999,
          "velocity": 0.7480314960629921
        },
        {
          "duration": 0.10737698833334264,
          "durationTicks": 131,
          "midi": 53,
          "name": "F3",
          "ticks": 133650,
          "time": 109.54911824999999,
          "velocity": 0.7480314960629921
        },
        {
          "duration": 0.35327848833334485,
          "durationTicks": 431,
          "midi": 52,
          "name": "E3",
          "ticks": 133650,
          "time": 109.54911824999999,
          "velocity": 0.7480314960629921
        },
        {
          "duration": 0.23032773833334375,
          "durationTicks": 281,
          "midi": 38,
          "name": "D2",
          "ticks": 133650,
          "time": 109.54911824999999,
          "velocity": 0.7480314960629921
        },
        {
          "duration": 0.23032773833334375,
          "durationTicks": 281,
          "midi": 46,
          "name": "A#2",
          "ticks": 133650,
          "time": 109.54911824999999,
          "velocity": 0.7480314960629921
        },
        {
          "duration": 0.10737698833334264,
          "durationTicks": 131,
          "midi": 53,
          "name": "F3",
          "ticks": 133800,
          "time": 109.672069,
          "velocity": 0.7480314960629921
        },
        {
          "duration": 0.10737698833334264,
          "durationTicks": 131,
          "midi": 36,
          "name": "C2",
          "ticks": 133800,
          "time": 109.672069,
          "velocity": 0.7480314960629921
        },
        {
          "duration": 0.10737698833334264,
          "durationTicks": 131,
          "midi": 53,
          "name": "F3",
          "ticks": 133950,
          "time": 109.79501975,
          "velocity": 0.7480314960629921
        },
        {
          "duration": 0.10737698833334264,
          "durationTicks": 131,
          "midi": 38,
          "name": "D2",
          "ticks": 133950,
          "time": 109.79501975,
          "velocity": 0.7480314960629921
        },
        {
          "duration": 0.10737698833334264,
          "durationTicks": 131,
          "midi": 46,
          "name": "A#2",
          "ticks": 133950,
          "time": 109.79501975,
          "velocity": 0.7480314960629921
        },
        {
          "duration": 0.10737698833334264,
          "durationTicks": 131,
          "midi": 46,
          "name": "A#2",
          "ticks": 134100,
          "time": 109.9179705,
          "velocity": 0.7480314960629921
        },
        {
          "duration": 0.23032773833332953,
          "durationTicks": 281,
          "midi": 52,
          "name": "E3",
          "ticks": 134100,
          "time": 109.9179705,
          "velocity": 0.7480314960629921
        },
        {
          "duration": 0.10737698833334264,
          "durationTicks": 131,
          "midi": 38,
          "name": "D2",
          "ticks": 134100,
          "time": 109.9179705,
          "velocity": 0.7480314960629921
        },
        {
          "duration": 0.10737698833332843,
          "durationTicks": 131,
          "midi": 38,
          "name": "D2",
          "ticks": 134250,
          "time": 110.04092125,
          "velocity": 0.7480314960629921
        },
        {
          "duration": 0.10737698833332843,
          "durationTicks": 131,
          "midi": 46,
          "name": "A#2",
          "ticks": 134250,
          "time": 110.04092125,
          "velocity": 0.7480314960629921
        },
        {
          "duration": 0.47622923833333175,
          "durationTicks": 581,
          "midi": 53,
          "name": "F3",
          "ticks": 134400,
          "time": 110.163872,
          "velocity": 0.7244094488188977
        },
        {
          "duration": 1.9516382383333308,
          "durationTicks": 2381,
          "midi": 52,
          "name": "E3",
          "ticks": 134400,
          "time": 110.163872,
          "velocity": 0.7244094488188977
        },
        {
          "duration": 0.10737698833332843,
          "durationTicks": 131,
          "midi": 36,
          "name": "C2",
          "ticks": 134400,
          "time": 110.163872,
          "velocity": 0.7244094488188977
        },
        {
          "duration": 0.10737698833332843,
          "durationTicks": 131,
          "midi": 36,
          "name": "C2",
          "ticks": 134550,
          "time": 110.28682275,
          "velocity": 0.7244094488188977
        },
        {
          "duration": 0.47622923833333175,
          "durationTicks": 581,
          "midi": 38,
          "name": "D2",
          "ticks": 134700,
          "time": 110.4097735,
          "velocity": 0.7244094488188977
        },
        {
          "duration": 0.47622923833333175,
          "durationTicks": 581,
          "midi": 46,
          "name": "A#2",
          "ticks": 134700,
          "time": 110.4097735,
          "velocity": 0.7244094488188977
        },
        {
          "duration": 0.10737698833332843,
          "durationTicks": 131,
          "midi": 36,
          "name": "C2",
          "ticks": 134850,
          "time": 110.53272425,
          "velocity": 0.7244094488188977
        },
        {
          "duration": 0.47622923833333175,
          "durationTicks": 581,
          "midi": 53,
          "name": "F3",
          "ticks": 135000,
          "time": 110.655675,
          "velocity": 0.7244094488188977
        },
        {
          "duration": 0.10737698833332843,
          "durationTicks": 131,
          "midi": 36,
          "name": "C2",
          "ticks": 135000,
          "time": 110.655675,
          "velocity": 0.7244094488188977
        },
        {
          "duration": 0.10737698833332843,
          "durationTicks": 131,
          "midi": 36,
          "name": "C2",
          "ticks": 135150,
          "time": 110.77862575,
          "velocity": 0.7244094488188977
        },
        {
          "duration": 0.47622923833333175,
          "durationTicks": 581,
          "midi": 38,
          "name": "D2",
          "ticks": 135300,
          "time": 110.9015765,
          "velocity": 0.7244094488188977
        },
        {
          "duration": 0.47622923833333175,
          "durationTicks": 581,
          "midi": 46,
          "name": "A#2",
          "ticks": 135300,
          "time": 110.9015765,
          "velocity": 0.7244094488188977
        },
        {
          "duration": 0.10737698833334264,
          "durationTicks": 131,
          "midi": 36,
          "name": "C2",
          "ticks": 135450,
          "time": 111.02452724999999,
          "velocity": 0.7244094488188977
        },
        {
          "duration": 0.47622923833333175,
          "durationTicks": 581,
          "midi": 53,
          "name": "F3",
          "ticks": 135600,
          "time": 111.14747799999999,
          "velocity": 0.7244094488188977
        },
        {
          "duration": 0.10737698833334264,
          "durationTicks": 131,
          "midi": 36,
          "name": "C2",
          "ticks": 135600,
          "time": 111.14747799999999,
          "velocity": 0.7244094488188977
        },
        {
          "duration": 0.10737698833334264,
          "durationTicks": 131,
          "midi": 36,
          "name": "C2",
          "ticks": 135750,
          "time": 111.27042875,
          "velocity": 0.7322834645669292
        },
        {
          "duration": 0.47622923833333175,
          "durationTicks": 581,
          "midi": 38,
          "name": "D2",
          "ticks": 135900,
          "time": 111.3933795,
          "velocity": 0.7322834645669292
        },
        {
          "duration": 0.47622923833333175,
          "durationTicks": 581,
          "midi": 46,
          "name": "A#2",
          "ticks": 135900,
          "time": 111.3933795,
          "velocity": 0.7322834645669292
        },
        {
          "duration": 0.10737698833332843,
          "durationTicks": 131,
          "midi": 36,
          "name": "C2",
          "ticks": 136050,
          "time": 111.51633025,
          "velocity": 0.7322834645669292
        },
        {
          "duration": 0.47622923833333175,
          "durationTicks": 581,
          "midi": 53,
          "name": "F3",
          "ticks": 136200,
          "time": 111.639281,
          "velocity": 0.7322834645669292
        },
        {
          "duration": 0.10737698833332843,
          "durationTicks": 131,
          "midi": 36,
          "name": "C2",
          "ticks": 136200,
          "time": 111.639281,
          "velocity": 0.7322834645669292
        },
        {
          "duration": 0.10737698833332843,
          "durationTicks": 131,
          "midi": 36,
          "name": "C2",
          "ticks": 136350,
          "time": 111.76223175,
          "velocity": 0.7322834645669292
        },
        {
          "duration": 0.47622923833333175,
          "durationTicks": 581,
          "midi": 38,
          "name": "D2",
          "ticks": 136500,
          "time": 111.8851825,
          "velocity": 0.7322834645669292
        },
        {
          "duration": 0.47622923833333175,
          "durationTicks": 581,
          "midi": 46,
          "name": "A#2",
          "ticks": 136500,
          "time": 111.8851825,
          "velocity": 0.7322834645669292
        },
        {
          "duration": 0.10737698833332843,
          "durationTicks": 131,
          "midi": 36,
          "name": "C2",
          "ticks": 136650,
          "time": 112.00813325,
          "velocity": 0.7322834645669292
        },
        {
          "duration": 0.47622923833333175,
          "durationTicks": 581,
          "midi": 53,
          "name": "F3",
          "ticks": 136800,
          "time": 112.131084,
          "velocity": 0.7322834645669292
        },
        {
          "duration": 1.4598352383333264,
          "durationTicks": 1781,
          "midi": 52,
          "name": "E3",
          "ticks": 136800,
          "time": 112.131084,
          "velocity": 0.7322834645669292
        },
        {
          "duration": 0.10737698833332843,
          "durationTicks": 131,
          "midi": 36,
          "name": "C2",
          "ticks": 136800,
          "time": 112.131084,
          "velocity": 0.7322834645669292
        },
        {
          "duration": 0.10737698833332843,
          "durationTicks": 131,
          "midi": 36,
          "name": "C2",
          "ticks": 136950,
          "time": 112.25403475,
          "velocity": 0.7322834645669292
        },
        {
          "duration": 0.47622923833333175,
          "durationTicks": 581,
          "midi": 38,
          "name": "D2",
          "ticks": 137100,
          "time": 112.3769855,
          "velocity": 0.7322834645669292
        },
        {
          "duration": 0.47622923833333175,
          "durationTicks": 581,
          "midi": 46,
          "name": "A#2",
          "ticks": 137100,
          "time": 112.3769855,
          "velocity": 0.7322834645669292
        },
        {
          "duration": 0.10737698833332843,
          "durationTicks": 131,
          "midi": 36,
          "name": "C2",
          "ticks": 137250,
          "time": 112.49993625,
          "velocity": 0.7322834645669292
        },
        {
          "duration": 0.47622923833334596,
          "durationTicks": 581,
          "midi": 53,
          "name": "F3",
          "ticks": 137400,
          "time": 112.62288699999999,
          "velocity": 0.7322834645669292
        },
        {
          "duration": 0.10737698833334264,
          "durationTicks": 131,
          "midi": 36,
          "name": "C2",
          "ticks": 137400,
          "time": 112.62288699999999,
          "velocity": 0.7322834645669292
        },
        {
          "duration": 0.10737698833334264,
          "durationTicks": 131,
          "midi": 36,
          "name": "C2",
          "ticks": 137550,
          "time": 112.74583774999999,
          "velocity": 0.7322834645669292
        },
        {
          "duration": 0.47622923833333175,
          "durationTicks": 581,
          "midi": 38,
          "name": "D2",
          "ticks": 137700,
          "time": 112.8687885,
          "velocity": 0.7322834645669292
        },
        {
          "duration": 0.47622923833333175,
          "durationTicks": 581,
          "midi": 46,
          "name": "A#2",
          "ticks": 137700,
          "time": 112.8687885,
          "velocity": 0.7322834645669292
        },
        {
          "duration": 0.10737698833334264,
          "durationTicks": 131,
          "midi": 36,
          "name": "C2",
          "ticks": 137850,
          "time": 112.99173925,
          "velocity": 0.7322834645669292
        },
        {
          "duration": 0.47622923833333175,
          "durationTicks": 581,
          "midi": 53,
          "name": "F3",
          "ticks": 138000,
          "time": 113.11469,
          "velocity": 0.7322834645669292
        },
        {
          "duration": 0.10737698833332843,
          "durationTicks": 131,
          "midi": 36,
          "name": "C2",
          "ticks": 138000,
          "time": 113.11469,
          "velocity": 0.7322834645669292
        },
        {
          "duration": 0.10737698833332843,
          "durationTicks": 131,
          "midi": 36,
          "name": "C2",
          "ticks": 138150,
          "time": 113.23764075,
          "velocity": 0.7322834645669292
        },
        {
          "duration": 0.47622923833333175,
          "durationTicks": 581,
          "midi": 38,
          "name": "D2",
          "ticks": 138300,
          "time": 113.3605915,
          "velocity": 0.7322834645669292
        },
        {
          "duration": 0.47622923833333175,
          "durationTicks": 581,
          "midi": 46,
          "name": "A#2",
          "ticks": 138300,
          "time": 113.3605915,
          "velocity": 0.7322834645669292
        },
        {
          "duration": 0.10737698833332843,
          "durationTicks": 131,
          "midi": 36,
          "name": "C2",
          "ticks": 138450,
          "time": 113.48354225,
          "velocity": 0.7322834645669292
        },
        {
          "duration": 0.47622923833333175,
          "durationTicks": 581,
          "midi": 53,
          "name": "F3",
          "ticks": 138600,
          "time": 113.606493,
          "velocity": 0.7401574803149606
        },
        {
          "duration": 0.47622923833333175,
          "durationTicks": 581,
          "midi": 52,
          "name": "E3",
          "ticks": 138600,
          "time": 113.606493,
          "velocity": 0.7401574803149606
        },
        {
          "duration": 0.10737698833332843,
          "durationTicks": 131,
          "midi": 36,
          "name": "C2",
          "ticks": 138600,
          "time": 113.606493,
          "velocity": 0.7401574803149606
        },
        {
          "duration": 0.10737698833332843,
          "durationTicks": 131,
          "midi": 36,
          "name": "C2",
          "ticks": 138750,
          "time": 113.72944375,
          "velocity": 0.7401574803149606
        },
        {
          "duration": 0.47622923833333175,
          "durationTicks": 581,
          "midi": 38,
          "name": "D2",
          "ticks": 138900,
          "time": 113.8523945,
          "velocity": 0.7401574803149606
        },
        {
          "duration": 0.47622923833333175,
          "durationTicks": 581,
          "midi": 46,
          "name": "A#2",
          "ticks": 138900,
          "time": 113.8523945,
          "velocity": 0.7401574803149606
        },
        {
          "duration": 0.10737698833332843,
          "durationTicks": 131,
          "midi": 36,
          "name": "C2",
          "ticks": 139050,
          "time": 113.97534525,
          "velocity": 0.7401574803149606
        },
        {
          "duration": 0.47622923833333175,
          "durationTicks": 581,
          "midi": 53,
          "name": "F3",
          "ticks": 139200,
          "time": 114.098296,
          "velocity": 0.7401574803149606
        },
        {
          "duration": 1.9516382383333308,
          "durationTicks": 2381,
          "midi": 52,
          "name": "E3",
          "ticks": 139200,
          "time": 114.098296,
          "velocity": 0.7401574803149606
        },
        {
          "duration": 0.10737698833332843,
          "durationTicks": 131,
          "midi": 36,
          "name": "C2",
          "ticks": 139200,
          "time": 114.098296,
          "velocity": 0.7401574803149606
        },
        {
          "duration": 0.10737698833334264,
          "durationTicks": 131,
          "midi": 36,
          "name": "C2",
          "ticks": 139350,
          "time": 114.22124674999999,
          "velocity": 0.7401574803149606
        },
        {
          "duration": 0.47622923833333175,
          "durationTicks": 581,
          "midi": 38,
          "name": "D2",
          "ticks": 139500,
          "time": 114.34419749999999,
          "velocity": 0.7401574803149606
        },
        {
          "duration": 0.47622923833333175,
          "durationTicks": 581,
          "midi": 46,
          "name": "A#2",
          "ticks": 139500,
          "time": 114.34419749999999,
          "velocity": 0.7401574803149606
        },
        {
          "duration": 0.10737698833334264,
          "durationTicks": 131,
          "midi": 36,
          "name": "C2",
          "ticks": 139650,
          "time": 114.46714825,
          "velocity": 0.7401574803149606
        },
        {
          "duration": 0.47622923833333175,
          "durationTicks": 581,
          "midi": 53,
          "name": "F3",
          "ticks": 139800,
          "time": 114.590099,
          "velocity": 0.7401574803149606
        },
        {
          "duration": 0.10737698833334264,
          "durationTicks": 131,
          "midi": 36,
          "name": "C2",
          "ticks": 139800,
          "time": 114.590099,
          "velocity": 0.7401574803149606
        },
        {
          "duration": 0.10737698833332843,
          "durationTicks": 131,
          "midi": 36,
          "name": "C2",
          "ticks": 139950,
          "time": 114.71304975,
          "velocity": 0.7401574803149606
        },
        {
          "duration": 0.47622923833333175,
          "durationTicks": 581,
          "midi": 38,
          "name": "D2",
          "ticks": 140100,
          "time": 114.8360005,
          "velocity": 0.7401574803149606
        },
        {
          "duration": 0.47622923833333175,
          "durationTicks": 581,
          "midi": 46,
          "name": "A#2",
          "ticks": 140100,
          "time": 114.8360005,
          "velocity": 0.7401574803149606
        },
        {
          "duration": 0.10737698833332843,
          "durationTicks": 131,
          "midi": 36,
          "name": "C2",
          "ticks": 140250,
          "time": 114.95895125,
          "velocity": 0.7401574803149606
        },
        {
          "duration": 0.47622923833333175,
          "durationTicks": 581,
          "midi": 53,
          "name": "F3",
          "ticks": 140400,
          "time": 115.081902,
          "velocity": 0.7401574803149606
        },
        {
          "duration": 0.10737698833332843,
          "durationTicks": 131,
          "midi": 36,
          "name": "C2",
          "ticks": 140400,
          "time": 115.081902,
          "velocity": 0.7401574803149606
        },
        {
          "duration": 0.10737698833332843,
          "durationTicks": 131,
          "midi": 36,
          "name": "C2",
          "ticks": 140550,
          "time": 115.20485275,
          "velocity": 0.7401574803149606
        },
        {
          "duration": 0.47622923833333175,
          "durationTicks": 581,
          "midi": 38,
          "name": "D2",
          "ticks": 140700,
          "time": 115.3278035,
          "velocity": 0.7401574803149606
        },
        {
          "duration": 0.47622923833333175,
          "durationTicks": 581,
          "midi": 46,
          "name": "A#2",
          "ticks": 140700,
          "time": 115.3278035,
          "velocity": 0.7401574803149606
        },
        {
          "duration": 0.10737698833332843,
          "durationTicks": 131,
          "midi": 36,
          "name": "C2",
          "ticks": 140850,
          "time": 115.45075425,
          "velocity": 0.7401574803149606
        },
        {
          "duration": 0.47622923833333175,
          "durationTicks": 581,
          "midi": 53,
          "name": "F3",
          "ticks": 141000,
          "time": 115.573705,
          "velocity": 0.7401574803149606
        },
        {
          "duration": 0.10737698833332843,
          "durationTicks": 131,
          "midi": 36,
          "name": "C2",
          "ticks": 141000,
          "time": 115.573705,
          "velocity": 0.7401574803149606
        },
        {
          "duration": 0.10737698833334264,
          "durationTicks": 131,
          "midi": 36,
          "name": "C2",
          "ticks": 141150,
          "time": 115.69665574999999,
          "velocity": 0.7401574803149606
        },
        {
          "duration": 0.47622923833334596,
          "durationTicks": 581,
          "midi": 38,
          "name": "D2",
          "ticks": 141300,
          "time": 115.81960649999999,
          "velocity": 0.7401574803149606
        },
        {
          "duration": 0.47622923833334596,
          "durationTicks": 581,
          "midi": 46,
          "name": "A#2",
          "ticks": 141300,
          "time": 115.81960649999999,
          "velocity": 0.7401574803149606
        },
        {
          "duration": 0.10737698833334264,
          "durationTicks": 131,
          "midi": 36,
          "name": "C2",
          "ticks": 141450,
          "time": 115.94255725,
          "velocity": 0.7480314960629921
        },
        {
          "duration": 0.47622923833333175,
          "durationTicks": 581,
          "midi": 53,
          "name": "F3",
          "ticks": 141600,
          "time": 116.065508,
          "velocity": 0.7480314960629921
        },
        {
          "duration": 0.9680322383333362,
          "durationTicks": 1181,
          "midi": 52,
          "name": "E3",
          "ticks": 141600,
          "time": 116.065508,
          "velocity": 0.7480314960629921
        },
        {
          "duration": 0.10737698833334264,
          "durationTicks": 131,
          "midi": 36,
          "name": "C2",
          "ticks": 141600,
          "time": 116.065508,
          "velocity": 0.7480314960629921
        },
        {
          "duration": 0.10737698833334264,
          "durationTicks": 131,
          "midi": 36,
          "name": "C2",
          "ticks": 141750,
          "time": 116.18845875,
          "velocity": 0.7480314960629921
        },
        {
          "duration": 0.47622923833333175,
          "durationTicks": 581,
          "midi": 38,
          "name": "D2",
          "ticks": 141900,
          "time": 116.3114095,
          "velocity": 0.7480314960629921
        },
        {
          "duration": 0.47622923833333175,
          "durationTicks": 581,
          "midi": 46,
          "name": "A#2",
          "ticks": 141900,
          "time": 116.3114095,
          "velocity": 0.7480314960629921
        },
        {
          "duration": 0.10737698833332843,
          "durationTicks": 131,
          "midi": 36,
          "name": "C2",
          "ticks": 142050,
          "time": 116.43436025,
          "velocity": 0.7480314960629921
        },
        {
          "duration": 0.23032773833332953,
          "durationTicks": 281,
          "midi": 53,
          "name": "F3",
          "ticks": 142200,
          "time": 116.557311,
          "velocity": 0.7480314960629921
        },
        {
          "duration": 0.10737698833332843,
          "durationTicks": 131,
          "midi": 36,
          "name": "C2",
          "ticks": 142200,
          "time": 116.557311,
          "velocity": 0.7480314960629921
        },
        {
          "duration": 0.10737698833332843,
          "durationTicks": 131,
          "midi": 36,
          "name": "C2",
          "ticks": 142350,
          "time": 116.68026175,
          "velocity": 0.7480314960629921
        },
        {
          "duration": 0.23032773833332953,
          "durationTicks": 281,
          "midi": 53,
          "name": "F3",
          "ticks": 142500,
          "time": 116.8032125,
          "velocity": 0.7480314960629921
        },
        {
          "duration": 0.23032773833332953,
          "durationTicks": 281,
          "midi": 38,
          "name": "D2",
          "ticks": 142500,
          "time": 116.8032125,
          "velocity": 0.7480314960629921
        },
        {
          "duration": 0.23032773833332953,
          "durationTicks": 281,
          "midi": 46,
          "name": "A#2",
          "ticks": 142500,
          "time": 116.8032125,
          "velocity": 0.7480314960629921
        },
        {
          "duration": 0.10737698833332843,
          "durationTicks": 131,
          "midi": 36,
          "name": "C2",
          "ticks": 142650,
          "time": 116.92616325,
          "velocity": 0.7480314960629921
        },
        {
          "duration": 0.10737698833332843,
          "durationTicks": 131,
          "midi": 53,
          "name": "F3",
          "ticks": 142800,
          "time": 117.049114,
          "velocity": 0.7480314960629921
        },
        {
          "duration": 0.35327848833333064,
          "durationTicks": 431,
          "midi": 52,
          "name": "E3",
          "ticks": 142800,
          "time": 117.049114,
          "velocity": 0.7480314960629921
        },
        {
          "duration": 0.23032773833332953,
          "durationTicks": 281,
          "midi": 38,
          "name": "D2",
          "ticks": 142800,
          "time": 117.049114,
          "velocity": 0.7480314960629921
        },
        {
          "duration": 0.23032773833332953,
          "durationTicks": 281,
          "midi": 46,
          "name": "A#2",
          "ticks": 142800,
          "time": 117.049114,
          "velocity": 0.7480314960629921
        },
        {
          "duration": 0.23032773833332953,
          "durationTicks": 281,
          "midi": 53,
          "name": "F3",
          "ticks": 142950,
          "time": 117.17206475,
          "velocity": 0.7480314960629921
        },
        {
          "duration": 0.10737698833332843,
          "durationTicks": 131,
          "midi": 36,
          "name": "C2",
          "ticks": 142950,
          "time": 117.17206475,
          "velocity": 0.7480314960629921
        },
        {
          "duration": 0.10737698833334264,
          "durationTicks": 131,
          "midi": 46,
          "name": "A#2",
          "ticks": 143100,
          "time": 117.29501549999999,
          "velocity": 0.7480314960629921
        },
        {
          "duration": 0.10737698833334264,
          "durationTicks": 131,
          "midi": 38,
          "name": "D2",
          "ticks": 143100,
          "time": 117.29501549999999,
          "velocity": 0.7480314960629921
        },
        {
          "duration": 0.10737698833334264,
          "durationTicks": 131,
          "midi": 53,
          "name": "F3",
          "ticks": 143250,
          "time": 117.41796624999999,
          "velocity": 0.7480314960629921
        },
        {
          "duration": 0.35327848833334485,
          "durationTicks": 431,
          "midi": 52,
          "name": "E3",
          "ticks": 143250,
          "time": 117.41796624999999,
          "velocity": 0.7480314960629921
        },
        {
          "duration": 0.23032773833334375,
          "durationTicks": 281,
          "midi": 38,
          "name": "D2",
          "ticks": 143250,
          "time": 117.41796624999999,
          "velocity": 0.7480314960629921
        },
        {
          "duration": 0.23032773833334375,
          "durationTicks": 281,
          "midi": 46,
          "name": "A#2",
          "ticks": 143250,
          "time": 117.41796624999999,
          "velocity": 0.7480314960629921
        },
        {
          "duration": 0.10737698833334264,
          "durationTicks": 131,
          "midi": 53,
          "name": "F3",
          "ticks": 143400,
          "time": 117.540917,
          "velocity": 0.7480314960629921
        },
        {
          "duration": 0.10737698833334264,
          "durationTicks": 131,
          "midi": 36,
          "name": "C2",
          "ticks": 143400,
          "time": 117.540917,
          "velocity": 0.7480314960629921
        },
        {
          "duration": 0.10737698833334264,
          "durationTicks": 131,
          "midi": 53,
          "name": "F3",
          "ticks": 143550,
          "time": 117.66386775,
          "velocity": 0.7480314960629921
        },
        {
          "duration": 0.10737698833334264,
          "durationTicks": 131,
          "midi": 38,
          "name": "D2",
          "ticks": 143550,
          "time": 117.66386775,
          "velocity": 0.7480314960629921
        },
        {
          "duration": 0.10737698833334264,
          "durationTicks": 131,
          "midi": 46,
          "name": "A#2",
          "ticks": 143550,
          "time": 117.66386775,
          "velocity": 0.7480314960629921
        },
        {
          "duration": 0.10737698833334264,
          "durationTicks": 131,
          "midi": 46,
          "name": "A#2",
          "ticks": 143700,
          "time": 117.7868185,
          "velocity": 0.7480314960629921
        },
        {
          "duration": 0.23032773833332953,
          "durationTicks": 281,
          "midi": 52,
          "name": "E3",
          "ticks": 143700,
          "time": 117.7868185,
          "velocity": 0.7480314960629921
        },
        {
          "duration": 0.10737698833334264,
          "durationTicks": 131,
          "midi": 38,
          "name": "D2",
          "ticks": 143700,
          "time": 117.7868185,
          "velocity": 0.7480314960629921
        },
        {
          "duration": 0.10737698833332843,
          "durationTicks": 131,
          "midi": 38,
          "name": "D2",
          "ticks": 143850,
          "time": 117.90976925,
          "velocity": 0.7480314960629921
        },
        {
          "duration": 0.10737698833332843,
          "durationTicks": 131,
          "midi": 46,
          "name": "A#2",
          "ticks": 143850,
          "time": 117.90976925,
          "velocity": 0.7480314960629921
        },
        {
          "duration": 0.47622923833333175,
          "durationTicks": 581,
          "midi": 53,
          "name": "F3",
          "ticks": 144000,
          "time": 118.03272,
          "velocity": 0.7244094488188977
        },
        {
          "duration": 1.9516382383333308,
          "durationTicks": 2381,
          "midi": 52,
          "name": "E3",
          "ticks": 144000,
          "time": 118.03272,
          "velocity": 0.7244094488188977
        },
        {
          "duration": 0.10737698833332843,
          "durationTicks": 131,
          "midi": 36,
          "name": "C2",
          "ticks": 144000,
          "time": 118.03272,
          "velocity": 0.7244094488188977
        },
        {
          "duration": 0.10737698833332843,
          "durationTicks": 131,
          "midi": 36,
          "name": "C2",
          "ticks": 144150,
          "time": 118.15567075,
          "velocity": 0.7244094488188977
        },
        {
          "duration": 0.47622923833333175,
          "durationTicks": 581,
          "midi": 38,
          "name": "D2",
          "ticks": 144300,
          "time": 118.2786215,
          "velocity": 0.7244094488188977
        },
        {
          "duration": 0.47622923833333175,
          "durationTicks": 581,
          "midi": 46,
          "name": "A#2",
          "ticks": 144300,
          "time": 118.2786215,
          "velocity": 0.7244094488188977
        },
        {
          "duration": 0.10737698833332843,
          "durationTicks": 131,
          "midi": 36,
          "name": "C2",
          "ticks": 144450,
          "time": 118.40157225,
          "velocity": 0.7244094488188977
        },
        {
          "duration": 0.47622923833333175,
          "durationTicks": 581,
          "midi": 53,
          "name": "F3",
          "ticks": 144600,
          "time": 118.524523,
          "velocity": 0.7244094488188977
        },
        {
          "duration": 0.10737698833332843,
          "durationTicks": 131,
          "midi": 36,
          "name": "C2",
          "ticks": 144600,
          "time": 118.524523,
          "velocity": 0.7244094488188977
        },
        {
          "duration": 0.10737698833332843,
          "durationTicks": 131,
          "midi": 36,
          "name": "C2",
          "ticks": 144750,
          "time": 118.64747375,
          "velocity": 0.7244094488188977
        },
        {
          "duration": 0.47622923833333175,
          "durationTicks": 581,
          "midi": 38,
          "name": "D2",
          "ticks": 144900,
          "time": 118.7704245,
          "velocity": 0.7244094488188977
        },
        {
          "duration": 0.47622923833333175,
          "durationTicks": 581,
          "midi": 46,
          "name": "A#2",
          "ticks": 144900,
          "time": 118.7704245,
          "velocity": 0.7244094488188977
        },
        {
          "duration": 0.10737698833334264,
          "durationTicks": 131,
          "midi": 36,
          "name": "C2",
          "ticks": 145050,
          "time": 118.89337524999999,
          "velocity": 0.7244094488188977
        },
        {
          "duration": 0.47622923833333175,
          "durationTicks": 581,
          "midi": 53,
          "name": "F3",
          "ticks": 145200,
          "time": 119.01632599999999,
          "velocity": 0.7244094488188977
        },
        {
          "duration": 0.10737698833334264,
          "durationTicks": 131,
          "midi": 36,
          "name": "C2",
          "ticks": 145200,
          "time": 119.01632599999999,
          "velocity": 0.7244094488188977
        },
        {
          "duration": 0.10737698833334264,
          "durationTicks": 131,
          "midi": 36,
          "name": "C2",
          "ticks": 145350,
          "time": 119.13927675,
          "velocity": 0.7322834645669292
        },
        {
          "duration": 0.47622923833333175,
          "durationTicks": 581,
          "midi": 38,
          "name": "D2",
          "ticks": 145500,
          "time": 119.2622275,
          "velocity": 0.7322834645669292
        },
        {
          "duration": 0.47622923833333175,
          "durationTicks": 581,
          "midi": 46,
          "name": "A#2",
          "ticks": 145500,
          "time": 119.2622275,
          "velocity": 0.7322834645669292
        },
        {
          "duration": 0.10737698833332843,
          "durationTicks": 131,
          "midi": 36,
          "name": "C2",
          "ticks": 145650,
          "time": 119.38517825,
          "velocity": 0.7322834645669292
        },
        {
          "duration": 0.47622923833333175,
          "durationTicks": 581,
          "midi": 53,
          "name": "F3",
          "ticks": 145800,
          "time": 119.508129,
          "velocity": 0.7322834645669292
        },
        {
          "duration": 0.10737698833332843,
          "durationTicks": 131,
          "midi": 36,
          "name": "C2",
          "ticks": 145800,
          "time": 119.508129,
          "velocity": 0.7322834645669292
        },
        {
          "duration": 0.10737698833332843,
          "durationTicks": 131,
          "midi": 36,
          "name": "C2",
          "ticks": 145950,
          "time": 119.63107975,
          "velocity": 0.7322834645669292
        },
        {
          "duration": 0.47622923833333175,
          "durationTicks": 581,
          "midi": 38,
          "name": "D2",
          "ticks": 146100,
          "time": 119.7540305,
          "velocity": 0.7322834645669292
        },
        {
          "duration": 0.47622923833333175,
          "durationTicks": 581,
          "midi": 46,
          "name": "A#2",
          "ticks": 146100,
          "time": 119.7540305,
          "velocity": 0.7322834645669292
        },
        {
          "duration": 0.10737698833332843,
          "durationTicks": 131,
          "midi": 36,
          "name": "C2",
          "ticks": 146250,
          "time": 119.87698125,
          "velocity": 0.7322834645669292
        },
        {
          "duration": 0.47622923833333175,
          "durationTicks": 581,
          "midi": 53,
          "name": "F3",
          "ticks": 146400,
          "time": 119.999932,
          "velocity": 0.7322834645669292
        },
        {
          "duration": 1.4598352383333264,
          "durationTicks": 1781,
          "midi": 52,
          "name": "E3",
          "ticks": 146400,
          "time": 119.999932,
          "velocity": 0.7322834645669292
        },
        {
          "duration": 0.10737698833332843,
          "durationTicks": 131,
          "midi": 36,
          "name": "C2",
          "ticks": 146400,
          "time": 119.999932,
          "velocity": 0.7322834645669292
        },
        {
          "duration": 0.10737698833332843,
          "durationTicks": 131,
          "midi": 36,
          "name": "C2",
          "ticks": 146550,
          "time": 120.12288275,
          "velocity": 0.7322834645669292
        },
        {
          "duration": 0.47622923833333175,
          "durationTicks": 581,
          "midi": 38,
          "name": "D2",
          "ticks": 146700,
          "time": 120.2458335,
          "velocity": 0.7322834645669292
        },
        {
          "duration": 0.47622923833333175,
          "durationTicks": 581,
          "midi": 46,
          "name": "A#2",
          "ticks": 146700,
          "time": 120.2458335,
          "velocity": 0.7322834645669292
        },
        {
          "duration": 0.10737698833332843,
          "durationTicks": 131,
          "midi": 36,
          "name": "C2",
          "ticks": 146850,
          "time": 120.36878425,
          "velocity": 0.7322834645669292
        },
        {
          "duration": 0.47622923833334596,
          "durationTicks": 581,
          "midi": 53,
          "name": "F3",
          "ticks": 147000,
          "time": 120.49173499999999,
          "velocity": 0.7322834645669292
        },
        {
          "duration": 0.10737698833334264,
          "durationTicks": 131,
          "midi": 36,
          "name": "C2",
          "ticks": 147000,
          "time": 120.49173499999999,
          "velocity": 0.7322834645669292
        },
        {
          "duration": 0.10737698833334264,
          "durationTicks": 131,
          "midi": 36,
          "name": "C2",
          "ticks": 147150,
          "time": 120.61468574999999,
          "velocity": 0.7322834645669292
        },
        {
          "duration": 0.47622923833333175,
          "durationTicks": 581,
          "midi": 38,
          "name": "D2",
          "ticks": 147300,
          "time": 120.7376365,
          "velocity": 0.7322834645669292
        },
        {
          "duration": 0.47622923833333175,
          "durationTicks": 581,
          "midi": 46,
          "name": "A#2",
          "ticks": 147300,
          "time": 120.7376365,
          "velocity": 0.7322834645669292
        },
        {
          "duration": 0.10737698833334264,
          "durationTicks": 131,
          "midi": 36,
          "name": "C2",
          "ticks": 147450,
          "time": 120.86058725,
          "velocity": 0.7322834645669292
        },
        {
          "duration": 0.47622923833333175,
          "durationTicks": 581,
          "midi": 53,
          "name": "F3",
          "ticks": 147600,
          "time": 120.983538,
          "velocity": 0.7322834645669292
        },
        {
          "duration": 0.10737698833332843,
          "durationTicks": 131,
          "midi": 36,
          "name": "C2",
          "ticks": 147600,
          "time": 120.983538,
          "velocity": 0.7322834645669292
        },
        {
          "duration": 0.10737698833332843,
          "durationTicks": 131,
          "midi": 36,
          "name": "C2",
          "ticks": 147750,
          "time": 121.10648875,
          "velocity": 0.7322834645669292
        },
        {
          "duration": 0.47622923833333175,
          "durationTicks": 581,
          "midi": 38,
          "name": "D2",
          "ticks": 147900,
          "time": 121.2294395,
          "velocity": 0.7322834645669292
        },
        {
          "duration": 0.47622923833333175,
          "durationTicks": 581,
          "midi": 46,
          "name": "A#2",
          "ticks": 147900,
          "time": 121.2294395,
          "velocity": 0.7322834645669292
        },
        {
          "duration": 0.10737698833332843,
          "durationTicks": 131,
          "midi": 36,
          "name": "C2",
          "ticks": 148050,
          "time": 121.35239025,
          "velocity": 0.7322834645669292
        },
        {
          "duration": 0.47622923833333175,
          "durationTicks": 581,
          "midi": 53,
          "name": "F3",
          "ticks": 148200,
          "time": 121.475341,
          "velocity": 0.7401574803149606
        },
        {
          "duration": 0.47622923833333175,
          "durationTicks": 581,
          "midi": 52,
          "name": "E3",
          "ticks": 148200,
          "time": 121.475341,
          "velocity": 0.7401574803149606
        },
        {
          "duration": 0.10737698833332843,
          "durationTicks": 131,
          "midi": 36,
          "name": "C2",
          "ticks": 148200,
          "time": 121.475341,
          "velocity": 0.7401574803149606
        },
        {
          "duration": 0.10737698833332843,
          "durationTicks": 131,
          "midi": 36,
          "name": "C2",
          "ticks": 148350,
          "time": 121.59829175,
          "velocity": 0.7401574803149606
        },
        {
          "duration": 0.47622923833333175,
          "durationTicks": 581,
          "midi": 38,
          "name": "D2",
          "ticks": 148500,
          "time": 121.7212425,
          "velocity": 0.7401574803149606
        },
        {
          "duration": 0.47622923833333175,
          "durationTicks": 581,
          "midi": 46,
          "name": "A#2",
          "ticks": 148500,
          "time": 121.7212425,
          "velocity": 0.7401574803149606
        },
        {
          "duration": 0.10737698833332843,
          "durationTicks": 131,
          "midi": 36,
          "name": "C2",
          "ticks": 148650,
          "time": 121.84419325,
          "velocity": 0.7401574803149606
        },
        {
          "duration": 0.47622923833334596,
          "durationTicks": 581,
          "midi": 53,
          "name": "F3",
          "ticks": 148800,
          "time": 121.96714399999999,
          "velocity": 0.7401574803149606
        },
        {
          "duration": 1.951638238333345,
          "durationTicks": 2381,
          "midi": 52,
          "name": "E3",
          "ticks": 148800,
          "time": 121.96714399999999,
          "velocity": 0.7401574803149606
        },
        {
          "duration": 0.10737698833334264,
          "durationTicks": 131,
          "midi": 36,
          "name": "C2",
          "ticks": 148800,
          "time": 121.96714399999999,
          "velocity": 0.7401574803149606
        },
        {
          "duration": 0.10737698833334264,
          "durationTicks": 131,
          "midi": 36,
          "name": "C2",
          "ticks": 148950,
          "time": 122.09009474999999,
          "velocity": 0.7401574803149606
        },
        {
          "duration": 0.47622923833333175,
          "durationTicks": 581,
          "midi": 38,
          "name": "D2",
          "ticks": 149100,
          "time": 122.21304549999999,
          "velocity": 0.7401574803149606
        },
        {
          "duration": 0.47622923833333175,
          "durationTicks": 581,
          "midi": 46,
          "name": "A#2",
          "ticks": 149100,
          "time": 122.21304549999999,
          "velocity": 0.7401574803149606
        },
        {
          "duration": 0.10737698833334264,
          "durationTicks": 131,
          "midi": 36,
          "name": "C2",
          "ticks": 149250,
          "time": 122.33599625,
          "velocity": 0.7401574803149606
        },
        {
          "duration": 0.47622923833333175,
          "durationTicks": 581,
          "midi": 53,
          "name": "F3",
          "ticks": 149400,
          "time": 122.458947,
          "velocity": 0.7401574803149606
        },
        {
          "duration": 0.10737698833334264,
          "durationTicks": 131,
          "midi": 36,
          "name": "C2",
          "ticks": 149400,
          "time": 122.458947,
          "velocity": 0.7401574803149606
        },
        {
          "duration": 0.10737698833332843,
          "durationTicks": 131,
          "midi": 36,
          "name": "C2",
          "ticks": 149550,
          "time": 122.58189775,
          "velocity": 0.7401574803149606
        },
        {
          "duration": 0.47622923833333175,
          "durationTicks": 581,
          "midi": 38,
          "name": "D2",
          "ticks": 149700,
          "time": 122.7048485,
          "velocity": 0.7401574803149606
        },
        {
          "duration": 0.47622923833333175,
          "durationTicks": 581,
          "midi": 46,
          "name": "A#2",
          "ticks": 149700,
          "time": 122.7048485,
          "velocity": 0.7401574803149606
        },
        {
          "duration": 0.10737698833332843,
          "durationTicks": 131,
          "midi": 36,
          "name": "C2",
          "ticks": 149850,
          "time": 122.82779925,
          "velocity": 0.7401574803149606
        },
        {
          "duration": 0.47622923833333175,
          "durationTicks": 581,
          "midi": 53,
          "name": "F3",
          "ticks": 150000,
          "time": 122.95075,
          "velocity": 0.7401574803149606
        },
        {
          "duration": 0.10737698833332843,
          "durationTicks": 131,
          "midi": 36,
          "name": "C2",
          "ticks": 150000,
          "time": 122.95075,
          "velocity": 0.7401574803149606
        },
        {
          "duration": 0.10737698833332843,
          "durationTicks": 131,
          "midi": 36,
          "name": "C2",
          "ticks": 150150,
          "time": 123.07370075,
          "velocity": 0.7401574803149606
        },
        {
          "duration": 0.47622923833333175,
          "durationTicks": 581,
          "midi": 38,
          "name": "D2",
          "ticks": 150300,
          "time": 123.1966515,
          "velocity": 0.7401574803149606
        },
        {
          "duration": 0.47622923833333175,
          "durationTicks": 581,
          "midi": 46,
          "name": "A#2",
          "ticks": 150300,
          "time": 123.1966515,
          "velocity": 0.7401574803149606
        },
        {
          "duration": 0.10737698833332843,
          "durationTicks": 131,
          "midi": 36,
          "name": "C2",
          "ticks": 150450,
          "time": 123.31960225,
          "velocity": 0.7401574803149606
        },
        {
          "duration": 0.47622923833333175,
          "durationTicks": 581,
          "midi": 53,
          "name": "F3",
          "ticks": 150600,
          "time": 123.442553,
          "velocity": 0.7401574803149606
        },
        {
          "duration": 0.10737698833332843,
          "durationTicks": 131,
          "midi": 36,
          "name": "C2",
          "ticks": 150600,
          "time": 123.442553,
          "velocity": 0.7401574803149606
        },
        {
          "duration": 0.10737698833334264,
          "durationTicks": 131,
          "midi": 36,
          "name": "C2",
          "ticks": 150750,
          "time": 123.56550374999999,
          "velocity": 0.7401574803149606
        },
        {
          "duration": 0.47622923833334596,
          "durationTicks": 581,
          "midi": 38,
          "name": "D2",
          "ticks": 150900,
          "time": 123.68845449999999,
          "velocity": 0.7401574803149606
        },
        {
          "duration": 0.47622923833334596,
          "durationTicks": 581,
          "midi": 46,
          "name": "A#2",
          "ticks": 150900,
          "time": 123.68845449999999,
          "velocity": 0.7401574803149606
        },
        {
          "duration": 0.10737698833334264,
          "durationTicks": 131,
          "midi": 36,
          "name": "C2",
          "ticks": 151050,
          "time": 123.81140524999999,
          "velocity": 0.7480314960629921
        },
        {
          "duration": 0.47622923833333175,
          "durationTicks": 581,
          "midi": 53,
          "name": "F3",
          "ticks": 151200,
          "time": 123.934356,
          "velocity": 0.7480314960629921
        },
        {
          "duration": 0.9680322383333362,
          "durationTicks": 1181,
          "midi": 52,
          "name": "E3",
          "ticks": 151200,
          "time": 123.934356,
          "velocity": 0.7480314960629921
        },
        {
          "duration": 0.10737698833334264,
          "durationTicks": 131,
          "midi": 36,
          "name": "C2",
          "ticks": 151200,
          "time": 123.934356,
          "velocity": 0.7480314960629921
        },
        {
          "duration": 0.10737698833334264,
          "durationTicks": 131,
          "midi": 36,
          "name": "C2",
          "ticks": 151350,
          "time": 124.05730675,
          "velocity": 0.7480314960629921
        },
        {
          "duration": 0.47622923833333175,
          "durationTicks": 581,
          "midi": 38,
          "name": "D2",
          "ticks": 151500,
          "time": 124.1802575,
          "velocity": 0.7480314960629921
        },
        {
          "duration": 0.47622923833333175,
          "durationTicks": 581,
          "midi": 46,
          "name": "A#2",
          "ticks": 151500,
          "time": 124.1802575,
          "velocity": 0.7480314960629921
        },
        {
          "duration": 0.10737698833332843,
          "durationTicks": 131,
          "midi": 36,
          "name": "C2",
          "ticks": 151650,
          "time": 124.30320825,
          "velocity": 0.7480314960629921
        },
        {
          "duration": 0.23032773833332953,
          "durationTicks": 281,
          "midi": 53,
          "name": "F3",
          "ticks": 151800,
          "time": 124.426159,
          "velocity": 0.7480314960629921
        },
        {
          "duration": 0.10737698833332843,
          "durationTicks": 131,
          "midi": 36,
          "name": "C2",
          "ticks": 151800,
          "time": 124.426159,
          "velocity": 0.7480314960629921
        },
        {
          "duration": 0.10737698833332843,
          "durationTicks": 131,
          "midi": 36,
          "name": "C2",
          "ticks": 151950,
          "time": 124.54910975,
          "velocity": 0.7480314960629921
        },
        {
          "duration": 0.23032773833332953,
          "durationTicks": 281,
          "midi": 53,
          "name": "F3",
          "ticks": 152100,
          "time": 124.6720605,
          "velocity": 0.7480314960629921
        },
        {
          "duration": 0.23032773833332953,
          "durationTicks": 281,
          "midi": 38,
          "name": "D2",
          "ticks": 152100,
          "time": 124.6720605,
          "velocity": 0.7480314960629921
        },
        {
          "duration": 0.23032773833332953,
          "durationTicks": 281,
          "midi": 46,
          "name": "A#2",
          "ticks": 152100,
          "time": 124.6720605,
          "velocity": 0.7480314960629921
        },
        {
          "duration": 0.10737698833332843,
          "durationTicks": 131,
          "midi": 36,
          "name": "C2",
          "ticks": 152250,
          "time": 124.79501125,
          "velocity": 0.7480314960629921
        },
        {
          "duration": 0.10737698833332843,
          "durationTicks": 131,
          "midi": 53,
          "name": "F3",
          "ticks": 152400,
          "time": 124.917962,
          "velocity": 0.7480314960629921
        },
        {
          "duration": 0.35327848833333064,
          "durationTicks": 431,
          "midi": 52,
          "name": "E3",
          "ticks": 152400,
          "time": 124.917962,
          "velocity": 0.7480314960629921
        },
        {
          "duration": 0.23032773833332953,
          "durationTicks": 281,
          "midi": 38,
          "name": "D2",
          "ticks": 152400,
          "time": 124.917962,
          "velocity": 0.7480314960629921
        },
        {
          "duration": 0.23032773833332953,
          "durationTicks": 281,
          "midi": 46,
          "name": "A#2",
          "ticks": 152400,
          "time": 124.917962,
          "velocity": 0.7480314960629921
        },
        {
          "duration": 0.23032773833332953,
          "durationTicks": 281,
          "midi": 53,
          "name": "F3",
          "ticks": 152550,
          "time": 125.04091275,
          "velocity": 0.7480314960629921
        },
        {
          "duration": 0.10737698833332843,
          "durationTicks": 131,
          "midi": 36,
          "name": "C2",
          "ticks": 152550,
          "time": 125.04091275,
          "velocity": 0.7480314960629921
        },
        {
          "duration": 0.10737698833334264,
          "durationTicks": 131,
          "midi": 46,
          "name": "A#2",
          "ticks": 152700,
          "time": 125.16386349999999,
          "velocity": 0.7480314960629921
        },
        {
          "duration": 0.10737698833334264,
          "durationTicks": 131,
          "midi": 38,
          "name": "D2",
          "ticks": 152700,
          "time": 125.16386349999999,
          "velocity": 0.7480314960629921
        },
        {
          "duration": 0.10737698833334264,
          "durationTicks": 131,
          "midi": 53,
          "name": "F3",
          "ticks": 152850,
          "time": 125.28681424999999,
          "velocity": 0.7480314960629921
        },
        {
          "duration": 0.35327848833334485,
          "durationTicks": 431,
          "midi": 52,
          "name": "E3",
          "ticks": 152850,
          "time": 125.28681424999999,
          "velocity": 0.7480314960629921
        },
        {
          "duration": 0.23032773833334375,
          "durationTicks": 281,
          "midi": 38,
          "name": "D2",
          "ticks": 152850,
          "time": 125.28681424999999,
          "velocity": 0.7480314960629921
        },
        {
          "duration": 0.23032773833334375,
          "durationTicks": 281,
          "midi": 46,
          "name": "A#2",
          "ticks": 152850,
          "time": 125.28681424999999,
          "velocity": 0.7480314960629921
        },
        {
          "duration": 0.10737698833334264,
          "durationTicks": 131,
          "midi": 53,
          "name": "F3",
          "ticks": 153000,
          "time": 125.409765,
          "velocity": 0.7480314960629921
        },
        {
          "duration": 0.10737698833334264,
          "durationTicks": 131,
          "midi": 36,
          "name": "C2",
          "ticks": 153000,
          "time": 125.409765,
          "velocity": 0.7480314960629921
        },
        {
          "duration": 0.10737698833334264,
          "durationTicks": 131,
          "midi": 53,
          "name": "F3",
          "ticks": 153150,
          "time": 125.53271575,
          "velocity": 0.7480314960629921
        },
        {
          "duration": 0.10737698833334264,
          "durationTicks": 131,
          "midi": 38,
          "name": "D2",
          "ticks": 153150,
          "time": 125.53271575,
          "velocity": 0.7480314960629921
        },
        {
          "duration": 0.10737698833334264,
          "durationTicks": 131,
          "midi": 46,
          "name": "A#2",
          "ticks": 153150,
          "time": 125.53271575,
          "velocity": 0.7480314960629921
        },
        {
          "duration": 0.10737698833334264,
          "durationTicks": 131,
          "midi": 46,
          "name": "A#2",
          "ticks": 153300,
          "time": 125.6556665,
          "velocity": 0.7480314960629921
        },
        {
          "duration": 0.23032773833332953,
          "durationTicks": 281,
          "midi": 52,
          "name": "E3",
          "ticks": 153300,
          "time": 125.6556665,
          "velocity": 0.7480314960629921
        },
        {
          "duration": 0.10737698833334264,
          "durationTicks": 131,
          "midi": 38,
          "name": "D2",
          "ticks": 153300,
          "time": 125.6556665,
          "velocity": 0.7480314960629921
        },
        {
          "duration": 0.10737698833332843,
          "durationTicks": 131,
          "midi": 38,
          "name": "D2",
          "ticks": 153450,
          "time": 125.77861725,
          "velocity": 0.7480314960629921
        },
        {
          "duration": 0.10737698833332843,
          "durationTicks": 131,
          "midi": 46,
          "name": "A#2",
          "ticks": 153450,
          "time": 125.77861725,
          "velocity": 0.7480314960629921
        },
        {
          "duration": 0.47622923833331754,
          "durationTicks": 581,
          "midi": 53,
          "name": "F3",
          "ticks": 153600,
          "time": 125.901568,
          "velocity": 0.7244094488188977
        },
        {
          "duration": 1.9516382383333166,
          "durationTicks": 2381,
          "midi": 52,
          "name": "E3",
          "ticks": 153600,
          "time": 125.901568,
          "velocity": 0.7244094488188977
        },
        {
          "duration": 0.10737698833331422,
          "durationTicks": 131,
          "midi": 36,
          "name": "C2",
          "ticks": 153600,
          "time": 125.901568,
          "velocity": 0.7244094488188977
        },
        {
          "duration": 0.10737698833331422,
          "durationTicks": 131,
          "midi": 36,
          "name": "C2",
          "ticks": 153750,
          "time": 126.02451875,
          "velocity": 0.7244094488188977
        },
        {
          "duration": 0.47622923833331754,
          "durationTicks": 581,
          "midi": 38,
          "name": "D2",
          "ticks": 153900,
          "time": 126.1474695,
          "velocity": 0.7244094488188977
        },
        {
          "duration": 0.47622923833331754,
          "durationTicks": 581,
          "midi": 46,
          "name": "A#2",
          "ticks": 153900,
          "time": 126.1474695,
          "velocity": 0.7244094488188977
        },
        {
          "duration": 0.10737698833331422,
          "durationTicks": 131,
          "midi": 36,
          "name": "C2",
          "ticks": 154050,
          "time": 126.27042025,
          "velocity": 0.7244094488188977
        },
        {
          "duration": 0.47622923833331754,
          "durationTicks": 581,
          "midi": 53,
          "name": "F3",
          "ticks": 154200,
          "time": 126.393371,
          "velocity": 0.7244094488188977
        },
        {
          "duration": 0.10737698833331422,
          "durationTicks": 131,
          "midi": 36,
          "name": "C2",
          "ticks": 154200,
          "time": 126.393371,
          "velocity": 0.7244094488188977
        },
        {
          "duration": 0.10737698833331422,
          "durationTicks": 131,
          "midi": 36,
          "name": "C2",
          "ticks": 154350,
          "time": 126.51632175,
          "velocity": 0.7244094488188977
        },
        {
          "duration": 0.47622923833331754,
          "durationTicks": 581,
          "midi": 38,
          "name": "D2",
          "ticks": 154500,
          "time": 126.6392725,
          "velocity": 0.7244094488188977
        },
        {
          "duration": 0.47622923833331754,
          "durationTicks": 581,
          "midi": 46,
          "name": "A#2",
          "ticks": 154500,
          "time": 126.6392725,
          "velocity": 0.7244094488188977
        },
        {
          "duration": 0.10737698833332843,
          "durationTicks": 131,
          "midi": 36,
          "name": "C2",
          "ticks": 154650,
          "time": 126.76222324999999,
          "velocity": 0.7244094488188977
        },
        {
          "duration": 0.47622923833333175,
          "durationTicks": 581,
          "midi": 53,
          "name": "F3",
          "ticks": 154800,
          "time": 126.88517399999999,
          "velocity": 0.7244094488188977
        },
        {
          "duration": 0.10737698833332843,
          "durationTicks": 131,
          "midi": 36,
          "name": "C2",
          "ticks": 154800,
          "time": 126.88517399999999,
          "velocity": 0.7244094488188977
        },
        {
          "duration": 0.10737698833332843,
          "durationTicks": 131,
          "midi": 36,
          "name": "C2",
          "ticks": 154950,
          "time": 127.00812475,
          "velocity": 0.7322834645669292
        },
        {
          "duration": 0.47622923833331754,
          "durationTicks": 581,
          "midi": 38,
          "name": "D2",
          "ticks": 155100,
          "time": 127.1310755,
          "velocity": 0.7322834645669292
        },
        {
          "duration": 0.47622923833331754,
          "durationTicks": 581,
          "midi": 46,
          "name": "A#2",
          "ticks": 155100,
          "time": 127.1310755,
          "velocity": 0.7322834645669292
        },
        {
          "duration": 0.10737698833332843,
          "durationTicks": 131,
          "midi": 36,
          "name": "C2",
          "ticks": 155250,
          "time": 127.25402625,
          "velocity": 0.7322834645669292
        },
        {
          "duration": 0.47622923833331754,
          "durationTicks": 581,
          "midi": 53,
          "name": "F3",
          "ticks": 155400,
          "time": 127.376977,
          "velocity": 0.7322834645669292
        },
        {
          "duration": 0.10737698833331422,
          "durationTicks": 131,
          "midi": 36,
          "name": "C2",
          "ticks": 155400,
          "time": 127.376977,
          "velocity": 0.7322834645669292
        },
        {
          "duration": 0.10737698833331422,
          "durationTicks": 131,
          "midi": 36,
          "name": "C2",
          "ticks": 155550,
          "time": 127.49992775,
          "velocity": 0.7322834645669292
        },
        {
          "duration": 0.47622923833331754,
          "durationTicks": 581,
          "midi": 38,
          "name": "D2",
          "ticks": 155700,
          "time": 127.6228785,
          "velocity": 0.7322834645669292
        },
        {
          "duration": 0.47622923833331754,
          "durationTicks": 581,
          "midi": 46,
          "name": "A#2",
          "ticks": 155700,
          "time": 127.6228785,
          "velocity": 0.7322834645669292
        },
        {
          "duration": 0.10737698833331422,
          "durationTicks": 131,
          "midi": 36,
          "name": "C2",
          "ticks": 155850,
          "time": 127.74582925,
          "velocity": 0.7322834645669292
        },
        {
          "duration": 0.47622923833331754,
          "durationTicks": 581,
          "midi": 53,
          "name": "F3",
          "ticks": 156000,
          "time": 127.86878,
          "velocity": 0.7322834645669292
        },
        {
          "duration": 1.4598352383333264,
          "durationTicks": 1781,
          "midi": 52,
          "name": "E3",
          "ticks": 156000,
          "time": 127.86878,
          "velocity": 0.7322834645669292
        },
        {
          "duration": 0.10737698833331422,
          "durationTicks": 131,
          "midi": 36,
          "name": "C2",
          "ticks": 156000,
          "time": 127.86878,
          "velocity": 0.7322834645669292
        },
        {
          "duration": 0.10737698833331422,
          "durationTicks": 131,
          "midi": 36,
          "name": "C2",
          "ticks": 156150,
          "time": 127.99173075,
          "velocity": 0.7322834645669292
        },
        {
          "duration": 0.47622923833333175,
          "durationTicks": 581,
          "midi": 38,
          "name": "D2",
          "ticks": 156300,
          "time": 128.1146815,
          "velocity": 0.7322834645669292
        },
        {
          "duration": 0.47622923833333175,
          "durationTicks": 581,
          "midi": 46,
          "name": "A#2",
          "ticks": 156300,
          "time": 128.1146815,
          "velocity": 0.7322834645669292
        },
        {
          "duration": 0.10737698833332843,
          "durationTicks": 131,
          "midi": 36,
          "name": "C2",
          "ticks": 156450,
          "time": 128.23763225,
          "velocity": 0.7322834645669292
        },
        {
          "duration": 0.47622923833333175,
          "durationTicks": 581,
          "midi": 53,
          "name": "F3",
          "ticks": 156600,
          "time": 128.360583,
          "velocity": 0.7322834645669292
        },
        {
          "duration": 0.10737698833332843,
          "durationTicks": 131,
          "midi": 36,
          "name": "C2",
          "ticks": 156600,
          "time": 128.360583,
          "velocity": 0.7322834645669292
        },
        {
          "duration": 0.10737698833332843,
          "durationTicks": 131,
          "midi": 36,
          "name": "C2",
          "ticks": 156750,
          "time": 128.48353375,
          "velocity": 0.7322834645669292
        },
        {
          "duration": 0.47622923833333175,
          "durationTicks": 581,
          "midi": 38,
          "name": "D2",
          "ticks": 156900,
          "time": 128.6064845,
          "velocity": 0.7322834645669292
        },
        {
          "duration": 0.47622923833333175,
          "durationTicks": 581,
          "midi": 46,
          "name": "A#2",
          "ticks": 156900,
          "time": 128.6064845,
          "velocity": 0.7322834645669292
        },
        {
          "duration": 0.10737698833332843,
          "durationTicks": 131,
          "midi": 36,
          "name": "C2",
          "ticks": 157050,
          "time": 128.72943525,
          "velocity": 0.7322834645669292
        },
        {
          "duration": 0.47622923833333175,
          "durationTicks": 581,
          "midi": 53,
          "name": "F3",
          "ticks": 157200,
          "time": 128.852386,
          "velocity": 0.7322834645669292
        },
        {
          "duration": 0.10737698833332843,
          "durationTicks": 131,
          "midi": 36,
          "name": "C2",
          "ticks": 157200,
          "time": 128.852386,
          "velocity": 0.7322834645669292
        },
        {
          "duration": 0.10737698833332843,
          "durationTicks": 131,
          "midi": 36,
          "name": "C2",
          "ticks": 157350,
          "time": 128.97533675,
          "velocity": 0.7322834645669292
        },
        {
          "duration": 0.47622923833333175,
          "durationTicks": 581,
          "midi": 38,
          "name": "D2",
          "ticks": 157500,
          "time": 129.0982875,
          "velocity": 0.7322834645669292
        },
        {
          "duration": 0.47622923833333175,
          "durationTicks": 581,
          "midi": 46,
          "name": "A#2",
          "ticks": 157500,
          "time": 129.0982875,
          "velocity": 0.7322834645669292
        },
        {
          "duration": 0.10737698833332843,
          "durationTicks": 131,
          "midi": 36,
          "name": "C2",
          "ticks": 157650,
          "time": 129.22123825,
          "velocity": 0.7322834645669292
        },
        {
          "duration": 0.47622923833330333,
          "durationTicks": 581,
          "midi": 53,
          "name": "F3",
          "ticks": 157800,
          "time": 129.344189,
          "velocity": 0.7401574803149606
        },
        {
          "duration": 0.47622923833330333,
          "durationTicks": 581,
          "midi": 52,
          "name": "E3",
          "ticks": 157800,
          "time": 129.344189,
          "velocity": 0.7401574803149606
        },
        {
          "duration": 0.10737698833332843,
          "durationTicks": 131,
          "midi": 36,
          "name": "C2",
          "ticks": 157800,
          "time": 129.344189,
          "velocity": 0.7401574803149606
        },
        {
          "duration": 0.10737698833332843,
          "durationTicks": 131,
          "midi": 36,
          "name": "C2",
          "ticks": 157950,
          "time": 129.46713975,
          "velocity": 0.7401574803149606
        },
        {
          "duration": 0.47622923833330333,
          "durationTicks": 581,
          "midi": 38,
          "name": "D2",
          "ticks": 158100,
          "time": 129.5900905,
          "velocity": 0.7401574803149606
        },
        {
          "duration": 0.47622923833330333,
          "durationTicks": 581,
          "midi": 46,
          "name": "A#2",
          "ticks": 158100,
          "time": 129.5900905,
          "velocity": 0.7401574803149606
        },
        {
          "duration": 0.1073769883333,
          "durationTicks": 131,
          "midi": 36,
          "name": "C2",
          "ticks": 158250,
          "time": 129.71304125,
          "velocity": 0.7401574803149606
        },
        {
          "duration": 0.47622923833330333,
          "durationTicks": 581,
          "midi": 53,
          "name": "F3",
          "ticks": 158400,
          "time": 129.835992,
          "velocity": 0.7401574803149606
        },
        {
          "duration": 1.9516382383333166,
          "durationTicks": 2381,
          "midi": 52,
          "name": "E3",
          "ticks": 158400,
          "time": 129.835992,
          "velocity": 0.7401574803149606
        },
        {
          "duration": 0.1073769883333,
          "durationTicks": 131,
          "midi": 36,
          "name": "C2",
          "ticks": 158400,
          "time": 129.835992,
          "velocity": 0.7401574803149606
        },
        {
          "duration": 0.1073769883333,
          "durationTicks": 131,
          "midi": 36,
          "name": "C2",
          "ticks": 158550,
          "time": 129.95894275,
          "velocity": 0.7401574803149606
        },
        {
          "duration": 0.47622923833330333,
          "durationTicks": 581,
          "midi": 38,
          "name": "D2",
          "ticks": 158700,
          "time": 130.0818935,
          "velocity": 0.7401574803149606
        },
        {
          "duration": 0.47622923833330333,
          "durationTicks": 581,
          "midi": 46,
          "name": "A#2",
          "ticks": 158700,
          "time": 130.0818935,
          "velocity": 0.7401574803149606
        },
        {
          "duration": 0.1073769883333,
          "durationTicks": 131,
          "midi": 36,
          "name": "C2",
          "ticks": 158850,
          "time": 130.20484425,
          "velocity": 0.7401574803149606
        },
        {
          "duration": 0.47622923833330333,
          "durationTicks": 581,
          "midi": 53,
          "name": "F3",
          "ticks": 159000,
          "time": 130.327795,
          "velocity": 0.7401574803149606
        },
        {
          "duration": 0.1073769883333,
          "durationTicks": 131,
          "midi": 36,
          "name": "C2",
          "ticks": 159000,
          "time": 130.327795,
          "velocity": 0.7401574803149606
        },
        {
          "duration": 0.1073769883333,
          "durationTicks": 131,
          "midi": 36,
          "name": "C2",
          "ticks": 159150,
          "time": 130.45074575,
          "velocity": 0.7401574803149606
        },
        {
          "duration": 0.47622923833330333,
          "durationTicks": 581,
          "midi": 38,
          "name": "D2",
          "ticks": 159300,
          "time": 130.5736965,
          "velocity": 0.7401574803149606
        },
        {
          "duration": 0.47622923833330333,
          "durationTicks": 581,
          "midi": 46,
          "name": "A#2",
          "ticks": 159300,
          "time": 130.5736965,
          "velocity": 0.7401574803149606
        },
        {
          "duration": 0.10737698833332843,
          "durationTicks": 131,
          "midi": 36,
          "name": "C2",
          "ticks": 159450,
          "time": 130.69664724999998,
          "velocity": 0.7401574803149606
        },
        {
          "duration": 0.47622923833333175,
          "durationTicks": 581,
          "midi": 53,
          "name": "F3",
          "ticks": 159600,
          "time": 130.81959799999998,
          "velocity": 0.7401574803149606
        },
        {
          "duration": 0.10737698833332843,
          "durationTicks": 131,
          "midi": 36,
          "name": "C2",
          "ticks": 159600,
          "time": 130.81959799999998,
          "velocity": 0.7401574803149606
        },
        {
          "duration": 0.10737698833332843,
          "durationTicks": 131,
          "midi": 36,
          "name": "C2",
          "ticks": 159750,
          "time": 130.94254875,
          "velocity": 0.7401574803149606
        },
        {
          "duration": 0.47622923833333175,
          "durationTicks": 581,
          "midi": 38,
          "name": "D2",
          "ticks": 159900,
          "time": 131.0654995,
          "velocity": 0.7401574803149606
        },
        {
          "duration": 0.47622923833333175,
          "durationTicks": 581,
          "midi": 46,
          "name": "A#2",
          "ticks": 159900,
          "time": 131.0654995,
          "velocity": 0.7401574803149606
        },
        {
          "duration": 0.10737698833332843,
          "durationTicks": 131,
          "midi": 36,
          "name": "C2",
          "ticks": 160050,
          "time": 131.18845025,
          "velocity": 0.7401574803149606
        },
        {
          "duration": 0.47622923833333175,
          "durationTicks": 581,
          "midi": 53,
          "name": "F3",
          "ticks": 160200,
          "time": 131.311401,
          "velocity": 0.7401574803149606
        },
        {
          "duration": 0.10737698833332843,
          "durationTicks": 131,
          "midi": 36,
          "name": "C2",
          "ticks": 160200,
          "time": 131.311401,
          "velocity": 0.7401574803149606
        },
        {
          "duration": 0.10737698833332843,
          "durationTicks": 131,
          "midi": 36,
          "name": "C2",
          "ticks": 160350,
          "time": 131.43435175,
          "velocity": 0.7401574803149606
        },
        {
          "duration": 0.47622923833333175,
          "durationTicks": 581,
          "midi": 38,
          "name": "D2",
          "ticks": 160500,
          "time": 131.5573025,
          "velocity": 0.7401574803149606
        },
        {
          "duration": 0.47622923833333175,
          "durationTicks": 581,
          "midi": 46,
          "name": "A#2",
          "ticks": 160500,
          "time": 131.5573025,
          "velocity": 0.7401574803149606
        },
        {
          "duration": 0.10737698833332843,
          "durationTicks": 131,
          "midi": 36,
          "name": "C2",
          "ticks": 160650,
          "time": 131.68025325,
          "velocity": 0.7480314960629921
        },
        {
          "duration": 0.47622923833333175,
          "durationTicks": 581,
          "midi": 53,
          "name": "F3",
          "ticks": 160800,
          "time": 131.803204,
          "velocity": 0.7480314960629921
        },
        {
          "duration": 0.9680322383333362,
          "durationTicks": 1181,
          "midi": 52,
          "name": "E3",
          "ticks": 160800,
          "time": 131.803204,
          "velocity": 0.7480314960629921
        },
        {
          "duration": 0.10737698833332843,
          "durationTicks": 131,
          "midi": 36,
          "name": "C2",
          "ticks": 160800,
          "time": 131.803204,
          "velocity": 0.7480314960629921
        },
        {
          "duration": 0.10737698833332843,
          "durationTicks": 131,
          "midi": 36,
          "name": "C2",
          "ticks": 160950,
          "time": 131.92615475,
          "velocity": 0.7480314960629921
        },
        {
          "duration": 0.47622923833333175,
          "durationTicks": 581,
          "midi": 38,
          "name": "D2",
          "ticks": 161100,
          "time": 132.0491055,
          "velocity": 0.7480314960629921
        },
        {
          "duration": 0.47622923833333175,
          "durationTicks": 581,
          "midi": 46,
          "name": "A#2",
          "ticks": 161100,
          "time": 132.0491055,
          "velocity": 0.7480314960629921
        },
        {
          "duration": 0.10737698833332843,
          "durationTicks": 131,
          "midi": 36,
          "name": "C2",
          "ticks": 161250,
          "time": 132.17205625,
          "velocity": 0.7480314960629921
        },
        {
          "duration": 0.23032773833332953,
          "durationTicks": 281,
          "midi": 53,
          "name": "F3",
          "ticks": 161400,
          "time": 132.295007,
          "velocity": 0.7480314960629921
        },
        {
          "duration": 0.10737698833332843,
          "durationTicks": 131,
          "midi": 36,
          "name": "C2",
          "ticks": 161400,
          "time": 132.295007,
          "velocity": 0.7480314960629921
        },
        {
          "duration": 0.10737698833332843,
          "durationTicks": 131,
          "midi": 36,
          "name": "C2",
          "ticks": 161550,
          "time": 132.41795775,
          "velocity": 0.7480314960629921
        },
        {
          "duration": 0.23032773833332953,
          "durationTicks": 281,
          "midi": 53,
          "name": "F3",
          "ticks": 161700,
          "time": 132.5409085,
          "velocity": 0.7480314960629921
        },
        {
          "duration": 0.23032773833332953,
          "durationTicks": 281,
          "midi": 38,
          "name": "D2",
          "ticks": 161700,
          "time": 132.5409085,
          "velocity": 0.7480314960629921
        },
        {
          "duration": 0.23032773833332953,
          "durationTicks": 281,
          "midi": 46,
          "name": "A#2",
          "ticks": 161700,
          "time": 132.5409085,
          "velocity": 0.7480314960629921
        },
        {
          "duration": 0.10737698833332843,
          "durationTicks": 131,
          "midi": 36,
          "name": "C2",
          "ticks": 161850,
          "time": 132.66385925,
          "velocity": 0.7480314960629921
        },
        {
          "duration": 0.1073769883333,
          "durationTicks": 131,
          "midi": 53,
          "name": "F3",
          "ticks": 162000,
          "time": 132.78681,
          "velocity": 0.7480314960629921
        },
        {
          "duration": 0.3532784883333022,
          "durationTicks": 431,
          "midi": 52,
          "name": "E3",
          "ticks": 162000,
          "time": 132.78681,
          "velocity": 0.7480314960629921
        },
        {
          "duration": 0.2303277383333011,
          "durationTicks": 281,
          "midi": 38,
          "name": "D2",
          "ticks": 162000,
          "time": 132.78681,
          "velocity": 0.7480314960629921
        },
        {
          "duration": 0.2303277383333011,
          "durationTicks": 281,
          "midi": 46,
          "name": "A#2",
          "ticks": 162000,
          "time": 132.78681,
          "velocity": 0.7480314960629921
        },
        {
          "duration": 0.2303277383333011,
          "durationTicks": 281,
          "midi": 53,
          "name": "F3",
          "ticks": 162150,
          "time": 132.90976075,
          "velocity": 0.7480314960629921
        },
        {
          "duration": 0.1073769883333,
          "durationTicks": 131,
          "midi": 36,
          "name": "C2",
          "ticks": 162150,
          "time": 132.90976075,
          "velocity": 0.7480314960629921
        },
        {
          "duration": 0.1073769883333,
          "durationTicks": 131,
          "midi": 46,
          "name": "A#2",
          "ticks": 162300,
          "time": 133.0327115,
          "velocity": 0.7480314960629921
        },
        {
          "duration": 0.1073769883333,
          "durationTicks": 131,
          "midi": 38,
          "name": "D2",
          "ticks": 162300,
          "time": 133.0327115,
          "velocity": 0.7480314960629921
        },
        {
          "duration": 0.1073769883333,
          "durationTicks": 131,
          "midi": 53,
          "name": "F3",
          "ticks": 162450,
          "time": 133.15566225,
          "velocity": 0.7480314960629921
        },
        {
          "duration": 0.3532784883333022,
          "durationTicks": 431,
          "midi": 52,
          "name": "E3",
          "ticks": 162450,
          "time": 133.15566225,
          "velocity": 0.7480314960629921
        },
        {
          "duration": 0.2303277383333011,
          "durationTicks": 281,
          "midi": 38,
          "name": "D2",
          "ticks": 162450,
          "time": 133.15566225,
          "velocity": 0.7480314960629921
        },
        {
          "duration": 0.2303277383333011,
          "durationTicks": 281,
          "midi": 46,
          "name": "A#2",
          "ticks": 162450,
          "time": 133.15566225,
          "velocity": 0.7480314960629921
        },
        {
          "duration": 0.1073769883333,
          "durationTicks": 131,
          "midi": 53,
          "name": "F3",
          "ticks": 162600,
          "time": 133.278613,
          "velocity": 0.7480314960629921
        },
        {
          "duration": 0.1073769883333,
          "durationTicks": 131,
          "midi": 36,
          "name": "C2",
          "ticks": 162600,
          "time": 133.278613,
          "velocity": 0.7480314960629921
        },
        {
          "duration": 0.1073769883333,
          "durationTicks": 131,
          "midi": 53,
          "name": "F3",
          "ticks": 162750,
          "time": 133.40156375,
          "velocity": 0.7480314960629921
        },
        {
          "duration": 0.1073769883333,
          "durationTicks": 131,
          "midi": 38,
          "name": "D2",
          "ticks": 162750,
          "time": 133.40156375,
          "velocity": 0.7480314960629921
        },
        {
          "duration": 0.1073769883333,
          "durationTicks": 131,
          "midi": 46,
          "name": "A#2",
          "ticks": 162750,
          "time": 133.40156375,
          "velocity": 0.7480314960629921
        },
        {
          "duration": 0.1073769883333,
          "durationTicks": 131,
          "midi": 46,
          "name": "A#2",
          "ticks": 162900,
          "time": 133.5245145,
          "velocity": 0.7480314960629921
        },
        {
          "duration": 0.2303277383333011,
          "durationTicks": 281,
          "midi": 52,
          "name": "E3",
          "ticks": 162900,
          "time": 133.5245145,
          "velocity": 0.7480314960629921
        },
        {
          "duration": 0.1073769883333,
          "durationTicks": 131,
          "midi": 38,
          "name": "D2",
          "ticks": 162900,
          "time": 133.5245145,
          "velocity": 0.7480314960629921
        },
        {
          "duration": 0.1073769883333,
          "durationTicks": 131,
          "midi": 38,
          "name": "D2",
          "ticks": 163050,
          "time": 133.64746525,
          "velocity": 0.7480314960629921
        },
        {
          "duration": 0.1073769883333,
          "durationTicks": 131,
          "midi": 46,
          "name": "A#2",
          "ticks": 163050,
          "time": 133.64746525,
          "velocity": 0.7480314960629921
        },
        {
          "duration": 0.47622923833330333,
          "durationTicks": 581,
          "midi": 53,
          "name": "F3",
          "ticks": 163200,
          "time": 133.770416,
          "velocity": 0.7244094488188977
        },
        {
          "duration": 1.9516382383333166,
          "durationTicks": 2381,
          "midi": 52,
          "name": "E3",
          "ticks": 163200,
          "time": 133.770416,
          "velocity": 0.7244094488188977
        },
        {
          "duration": 0.1073769883333,
          "durationTicks": 131,
          "midi": 36,
          "name": "C2",
          "ticks": 163200,
          "time": 133.770416,
          "velocity": 0.7244094488188977
        },
        {
          "duration": 0.10737698833332843,
          "durationTicks": 131,
          "midi": 36,
          "name": "C2",
          "ticks": 163350,
          "time": 133.89336674999998,
          "velocity": 0.7244094488188977
        },
        {
          "duration": 0.47622923833333175,
          "durationTicks": 581,
          "midi": 38,
          "name": "D2",
          "ticks": 163500,
          "time": 134.01631749999999,
          "velocity": 0.7244094488188977
        },
        {
          "duration": 0.47622923833333175,
          "durationTicks": 581,
          "midi": 46,
          "name": "A#2",
          "ticks": 163500,
          "time": 134.01631749999999,
          "velocity": 0.7244094488188977
        },
        {
          "duration": 0.10737698833332843,
          "durationTicks": 131,
          "midi": 36,
          "name": "C2",
          "ticks": 163650,
          "time": 134.13926825,
          "velocity": 0.7244094488188977
        },
        {
          "duration": 0.47622923833333175,
          "durationTicks": 581,
          "midi": 53,
          "name": "F3",
          "ticks": 163800,
          "time": 134.262219,
          "velocity": 0.7244094488188977
        },
        {
          "duration": 0.10737698833332843,
          "durationTicks": 131,
          "midi": 36,
          "name": "C2",
          "ticks": 163800,
          "time": 134.262219,
          "velocity": 0.7244094488188977
        },
        {
          "duration": 0.10737698833332843,
          "durationTicks": 131,
          "midi": 36,
          "name": "C2",
          "ticks": 163950,
          "time": 134.38516975,
          "velocity": 0.7244094488188977
        },
        {
          "duration": 0.47622923833333175,
          "durationTicks": 581,
          "midi": 38,
          "name": "D2",
          "ticks": 164100,
          "time": 134.5081205,
          "velocity": 0.7244094488188977
        },
        {
          "duration": 0.47622923833333175,
          "durationTicks": 581,
          "midi": 46,
          "name": "A#2",
          "ticks": 164100,
          "time": 134.5081205,
          "velocity": 0.7244094488188977
        },
        {
          "duration": 0.10737698833332843,
          "durationTicks": 131,
          "midi": 36,
          "name": "C2",
          "ticks": 164250,
          "time": 134.63107125,
          "velocity": 0.7244094488188977
        },
        {
          "duration": 0.47622923833333175,
          "durationTicks": 581,
          "midi": 53,
          "name": "F3",
          "ticks": 164400,
          "time": 134.754022,
          "velocity": 0.7244094488188977
        },
        {
          "duration": 0.10737698833332843,
          "durationTicks": 131,
          "midi": 36,
          "name": "C2",
          "ticks": 164400,
          "time": 134.754022,
          "velocity": 0.7244094488188977
        },
        {
          "duration": 0.10737698833332843,
          "durationTicks": 131,
          "midi": 36,
          "name": "C2",
          "ticks": 164550,
          "time": 134.87697275,
          "velocity": 0.7322834645669292
        },
        {
          "duration": 0.47622923833333175,
          "durationTicks": 581,
          "midi": 38,
          "name": "D2",
          "ticks": 164700,
          "time": 134.9999235,
          "velocity": 0.7322834645669292
        },
        {
          "duration": 0.47622923833333175,
          "durationTicks": 581,
          "midi": 46,
          "name": "A#2",
          "ticks": 164700,
          "time": 134.9999235,
          "velocity": 0.7322834645669292
        },
        {
          "duration": 0.10737698833332843,
          "durationTicks": 131,
          "midi": 36,
          "name": "C2",
          "ticks": 164850,
          "time": 135.12287425,
          "velocity": 0.7322834645669292
        },
        {
          "duration": 0.47622923833333175,
          "durationTicks": 581,
          "midi": 53,
          "name": "F3",
          "ticks": 165000,
          "time": 135.245825,
          "velocity": 0.7322834645669292
        },
        {
          "duration": 0.10737698833332843,
          "durationTicks": 131,
          "midi": 36,
          "name": "C2",
          "ticks": 165000,
          "time": 135.245825,
          "velocity": 0.7322834645669292
        },
        {
          "duration": 0.10737698833332843,
          "durationTicks": 131,
          "midi": 36,
          "name": "C2",
          "ticks": 165150,
          "time": 135.36877575,
          "velocity": 0.7322834645669292
        },
        {
          "duration": 0.47622923833333175,
          "durationTicks": 581,
          "midi": 38,
          "name": "D2",
          "ticks": 165300,
          "time": 135.4917265,
          "velocity": 0.7322834645669292
        },
        {
          "duration": 0.47622923833333175,
          "durationTicks": 581,
          "midi": 46,
          "name": "A#2",
          "ticks": 165300,
          "time": 135.4917265,
          "velocity": 0.7322834645669292
        },
        {
          "duration": 0.10737698833332843,
          "durationTicks": 131,
          "midi": 36,
          "name": "C2",
          "ticks": 165450,
          "time": 135.61467725,
          "velocity": 0.7322834645669292
        },
        {
          "duration": 0.47622923833330333,
          "durationTicks": 581,
          "midi": 53,
          "name": "F3",
          "ticks": 165600,
          "time": 135.737628,
          "velocity": 0.7322834645669292
        },
        {
          "duration": 1.4598352383333122,
          "durationTicks": 1781,
          "midi": 52,
          "name": "E3",
          "ticks": 165600,
          "time": 135.737628,
          "velocity": 0.7322834645669292
        },
        {
          "duration": 0.10737698833332843,
          "durationTicks": 131,
          "midi": 36,
          "name": "C2",
          "ticks": 165600,
          "time": 135.737628,
          "velocity": 0.7322834645669292
        },
        {
          "duration": 0.10737698833332843,
          "durationTicks": 131,
          "midi": 36,
          "name": "C2",
          "ticks": 165750,
          "time": 135.86057875,
          "velocity": 0.7322834645669292
        },
        {
          "duration": 0.47622923833330333,
          "durationTicks": 581,
          "midi": 38,
          "name": "D2",
          "ticks": 165900,
          "time": 135.9835295,
          "velocity": 0.7322834645669292
        },
        {
          "duration": 0.47622923833330333,
          "durationTicks": 581,
          "midi": 46,
          "name": "A#2",
          "ticks": 165900,
          "time": 135.9835295,
          "velocity": 0.7322834645669292
        },
        {
          "duration": 0.1073769883333,
          "durationTicks": 131,
          "midi": 36,
          "name": "C2",
          "ticks": 166050,
          "time": 136.10648025,
          "velocity": 0.7322834645669292
        },
        {
          "duration": 0.47622923833330333,
          "durationTicks": 581,
          "midi": 53,
          "name": "F3",
          "ticks": 166200,
          "time": 136.229431,
          "velocity": 0.7322834645669292
        },
        {
          "duration": 0.1073769883333,
          "durationTicks": 131,
          "midi": 36,
          "name": "C2",
          "ticks": 166200,
          "time": 136.229431,
          "velocity": 0.7322834645669292
        },
        {
          "duration": 0.1073769883333,
          "durationTicks": 131,
          "midi": 36,
          "name": "C2",
          "ticks": 166350,
          "time": 136.35238175,
          "velocity": 0.7322834645669292
        },
        {
          "duration": 0.47622923833330333,
          "durationTicks": 581,
          "midi": 38,
          "name": "D2",
          "ticks": 166500,
          "time": 136.4753325,
          "velocity": 0.7322834645669292
        },
        {
          "duration": 0.47622923833330333,
          "durationTicks": 581,
          "midi": 46,
          "name": "A#2",
          "ticks": 166500,
          "time": 136.4753325,
          "velocity": 0.7322834645669292
        },
        {
          "duration": 0.1073769883333,
          "durationTicks": 131,
          "midi": 36,
          "name": "C2",
          "ticks": 166650,
          "time": 136.59828325,
          "velocity": 0.7322834645669292
        },
        {
          "duration": 0.47622923833330333,
          "durationTicks": 581,
          "midi": 53,
          "name": "F3",
          "ticks": 166800,
          "time": 136.721234,
          "velocity": 0.7322834645669292
        },
        {
          "duration": 0.1073769883333,
          "durationTicks": 131,
          "midi": 36,
          "name": "C2",
          "ticks": 166800,
          "time": 136.721234,
          "velocity": 0.7322834645669292
        },
        {
          "duration": 0.1073769883333,
          "durationTicks": 131,
          "midi": 36,
          "name": "C2",
          "ticks": 166950,
          "time": 136.84418475,
          "velocity": 0.7322834645669292
        },
        {
          "duration": 0.47622923833333175,
          "durationTicks": 581,
          "midi": 38,
          "name": "D2",
          "ticks": 167100,
          "time": 136.96713549999998,
          "velocity": 0.7322834645669292
        },
        {
          "duration": 0.47622923833333175,
          "durationTicks": 581,
          "midi": 46,
          "name": "A#2",
          "ticks": 167100,
          "time": 136.96713549999998,
          "velocity": 0.7322834645669292
        },
        {
          "duration": 0.10737698833332843,
          "durationTicks": 131,
          "midi": 36,
          "name": "C2",
          "ticks": 167250,
          "time": 137.09008624999998,
          "velocity": 0.7322834645669292
        },
        {
          "duration": 0.47622923833333175,
          "durationTicks": 581,
          "midi": 53,
          "name": "F3",
          "ticks": 167400,
          "time": 137.21303699999999,
          "velocity": 0.7401574803149606
        },
        {
          "duration": 0.47622923833333175,
          "durationTicks": 581,
          "midi": 52,
          "name": "E3",
          "ticks": 167400,
          "time": 137.21303699999999,
          "velocity": 0.7401574803149606
        },
        {
          "duration": 0.10737698833332843,
          "durationTicks": 131,
          "midi": 36,
          "name": "C2",
          "ticks": 167400,
          "time": 137.21303699999999,
          "velocity": 0.7401574803149606
        },
        {
          "duration": 0.10737698833332843,
          "durationTicks": 131,
          "midi": 36,
          "name": "C2",
          "ticks": 167550,
          "time": 137.33598775,
          "velocity": 0.7401574803149606
        },
        {
          "duration": 0.47622923833333175,
          "durationTicks": 581,
          "midi": 38,
          "name": "D2",
          "ticks": 167700,
          "time": 137.4589385,
          "velocity": 0.7401574803149606
        },
        {
          "duration": 0.47622923833333175,
          "durationTicks": 581,
          "midi": 46,
          "name": "A#2",
          "ticks": 167700,
          "time": 137.4589385,
          "velocity": 0.7401574803149606
        },
        {
          "duration": 0.10737698833332843,
          "durationTicks": 131,
          "midi": 36,
          "name": "C2",
          "ticks": 167850,
          "time": 137.58188925,
          "velocity": 0.7401574803149606
        },
        {
          "duration": 0.47622923833333175,
          "durationTicks": 581,
          "midi": 53,
          "name": "F3",
          "ticks": 168000,
          "time": 137.70484,
          "velocity": 0.7401574803149606
        },
        {
          "duration": 1.9516382383333166,
          "durationTicks": 2381,
          "midi": 52,
          "name": "E3",
          "ticks": 168000,
          "time": 137.70484,
          "velocity": 0.7401574803149606
        },
        {
          "duration": 0.10737698833332843,
          "durationTicks": 131,
          "midi": 36,
          "name": "C2",
          "ticks": 168000,
          "time": 137.70484,
          "velocity": 0.7401574803149606
        },
        {
          "duration": 0.10737698833332843,
          "durationTicks": 131,
          "midi": 36,
          "name": "C2",
          "ticks": 168150,
          "time": 137.82779075,
          "velocity": 0.7401574803149606
        },
        {
          "duration": 0.47622923833333175,
          "durationTicks": 581,
          "midi": 38,
          "name": "D2",
          "ticks": 168300,
          "time": 137.9507415,
          "velocity": 0.7401574803149606
        },
        {
          "duration": 0.47622923833333175,
          "durationTicks": 581,
          "midi": 46,
          "name": "A#2",
          "ticks": 168300,
          "time": 137.9507415,
          "velocity": 0.7401574803149606
        },
        {
          "duration": 0.10737698833332843,
          "durationTicks": 131,
          "midi": 36,
          "name": "C2",
          "ticks": 168450,
          "time": 138.07369225,
          "velocity": 0.7401574803149606
        },
        {
          "duration": 0.47622923833333175,
          "durationTicks": 581,
          "midi": 53,
          "name": "F3",
          "ticks": 168600,
          "time": 138.196643,
          "velocity": 0.7401574803149606
        },
        {
          "duration": 0.10737698833332843,
          "durationTicks": 131,
          "midi": 36,
          "name": "C2",
          "ticks": 168600,
          "time": 138.196643,
          "velocity": 0.7401574803149606
        },
        {
          "duration": 0.10737698833332843,
          "durationTicks": 131,
          "midi": 36,
          "name": "C2",
          "ticks": 168750,
          "time": 138.31959375,
          "velocity": 0.7401574803149606
        },
        {
          "duration": 0.47622923833333175,
          "durationTicks": 581,
          "midi": 38,
          "name": "D2",
          "ticks": 168900,
          "time": 138.4425445,
          "velocity": 0.7401574803149606
        },
        {
          "duration": 0.47622923833333175,
          "durationTicks": 581,
          "midi": 46,
          "name": "A#2",
          "ticks": 168900,
          "time": 138.4425445,
          "velocity": 0.7401574803149606
        },
        {
          "duration": 0.10737698833332843,
          "durationTicks": 131,
          "midi": 36,
          "name": "C2",
          "ticks": 169050,
          "time": 138.56549525,
          "velocity": 0.7401574803149606
        },
        {
          "duration": 0.47622923833333175,
          "durationTicks": 581,
          "midi": 53,
          "name": "F3",
          "ticks": 169200,
          "time": 138.688446,
          "velocity": 0.7401574803149606
        },
        {
          "duration": 0.10737698833332843,
          "durationTicks": 131,
          "midi": 36,
          "name": "C2",
          "ticks": 169200,
          "time": 138.688446,
          "velocity": 0.7401574803149606
        },
        {
          "duration": 0.10737698833332843,
          "durationTicks": 131,
          "midi": 36,
          "name": "C2",
          "ticks": 169350,
          "time": 138.81139675,
          "velocity": 0.7401574803149606
        },
        {
          "duration": 0.47622923833330333,
          "durationTicks": 581,
          "midi": 38,
          "name": "D2",
          "ticks": 169500,
          "time": 138.9343475,
          "velocity": 0.7401574803149606
        },
        {
          "duration": 0.47622923833330333,
          "durationTicks": 581,
          "midi": 46,
          "name": "A#2",
          "ticks": 169500,
          "time": 138.9343475,
          "velocity": 0.7401574803149606
        },
        {
          "duration": 0.10737698833332843,
          "durationTicks": 131,
          "midi": 36,
          "name": "C2",
          "ticks": 169650,
          "time": 139.05729825,
          "velocity": 0.7401574803149606
        },
        {
          "duration": 0.47622923833330333,
          "durationTicks": 581,
          "midi": 53,
          "name": "F3",
          "ticks": 169800,
          "time": 139.180249,
          "velocity": 0.7401574803149606
        },
        {
          "duration": 0.1073769883333,
          "durationTicks": 131,
          "midi": 36,
          "name": "C2",
          "ticks": 169800,
          "time": 139.180249,
          "velocity": 0.7401574803149606
        },
        {
          "duration": 0.1073769883333,
          "durationTicks": 131,
          "midi": 36,
          "name": "C2",
          "ticks": 169950,
          "time": 139.30319975,
          "velocity": 0.7401574803149606
        },
        {
          "duration": 0.47622923833330333,
          "durationTicks": 581,
          "midi": 38,
          "name": "D2",
          "ticks": 170100,
          "time": 139.4261505,
          "velocity": 0.7401574803149606
        },
        {
          "duration": 0.47622923833330333,
          "durationTicks": 581,
          "midi": 46,
          "name": "A#2",
          "ticks": 170100,
          "time": 139.4261505,
          "velocity": 0.7401574803149606
        },
        {
          "duration": 0.1073769883333,
          "durationTicks": 131,
          "midi": 36,
          "name": "C2",
          "ticks": 170250,
          "time": 139.54910125,
          "velocity": 0.7480314960629921
        },
        {
          "duration": 0.47622923833330333,
          "durationTicks": 581,
          "midi": 53,
          "name": "F3",
          "ticks": 170400,
          "time": 139.672052,
          "velocity": 0.7480314960629921
        },
        {
          "duration": 0.9680322383333078,
          "durationTicks": 1181,
          "midi": 52,
          "name": "E3",
          "ticks": 170400,
          "time": 139.672052,
          "velocity": 0.7480314960629921
        },
        {
          "duration": 0.1073769883333,
          "durationTicks": 131,
          "midi": 36,
          "name": "C2",
          "ticks": 170400,
          "time": 139.672052,
          "velocity": 0.7480314960629921
        },
        {
          "duration": 0.1073769883333,
          "durationTicks": 131,
          "midi": 36,
          "name": "C2",
          "ticks": 170550,
          "time": 139.79500275,
          "velocity": 0.7480314960629921
        },
        {
          "duration": 0.47622923833330333,
          "durationTicks": 581,
          "midi": 38,
          "name": "D2",
          "ticks": 170700,
          "time": 139.9179535,
          "velocity": 0.7480314960629921
        },
        {
          "duration": 0.47622923833330333,
          "durationTicks": 581,
          "midi": 46,
          "name": "A#2",
          "ticks": 170700,
          "time": 139.9179535,
          "velocity": 0.7480314960629921
        },
        {
          "duration": 0.1073769883333,
          "durationTicks": 131,
          "midi": 36,
          "name": "C2",
          "ticks": 170850,
          "time": 140.04090425,
          "velocity": 0.7480314960629921
        },
        {
          "duration": 0.23032773833332953,
          "durationTicks": 281,
          "midi": 53,
          "name": "F3",
          "ticks": 171000,
          "time": 140.16385499999998,
          "velocity": 0.7480314960629921
        },
        {
          "duration": 0.10737698833332843,
          "durationTicks": 131,
          "midi": 36,
          "name": "C2",
          "ticks": 171000,
          "time": 140.16385499999998,
          "velocity": 0.7480314960629921
        },
        {
          "duration": 0.10737698833332843,
          "durationTicks": 131,
          "midi": 36,
          "name": "C2",
          "ticks": 171150,
          "time": 140.28680574999998,
          "velocity": 0.7480314960629921
        },
        {
          "duration": 0.23032773833332953,
          "durationTicks": 281,
          "midi": 53,
          "name": "F3",
          "ticks": 171300,
          "time": 140.4097565,
          "velocity": 0.7480314960629921
        },
        {
          "duration": 0.23032773833332953,
          "durationTicks": 281,
          "midi": 38,
          "name": "D2",
          "ticks": 171300,
          "time": 140.4097565,
          "velocity": 0.7480314960629921
        },
        {
          "duration": 0.23032773833332953,
          "durationTicks": 281,
          "midi": 46,
          "name": "A#2",
          "ticks": 171300,
          "time": 140.4097565,
          "velocity": 0.7480314960629921
        },
        {
          "duration": 0.10737698833332843,
          "durationTicks": 131,
          "midi": 36,
          "name": "C2",
          "ticks": 171450,
          "time": 140.53270725,
          "velocity": 0.7480314960629921
        },
        {
          "duration": 0.10737698833332843,
          "durationTicks": 131,
          "midi": 53,
          "name": "F3",
          "ticks": 171600,
          "time": 140.655658,
          "velocity": 0.7480314960629921
        },
        {
          "duration": 0.35327848833333064,
          "durationTicks": 431,
          "midi": 52,
          "name": "E3",
          "ticks": 171600,
          "time": 140.655658,
          "velocity": 0.7480314960629921
        },
        {
          "duration": 0.23032773833332953,
          "durationTicks": 281,
          "midi": 38,
          "name": "D2",
          "ticks": 171600,
          "time": 140.655658,
          "velocity": 0.7480314960629921
        },
        {
          "duration": 0.23032773833332953,
          "durationTicks": 281,
          "midi": 46,
          "name": "A#2",
          "ticks": 171600,
          "time": 140.655658,
          "velocity": 0.7480314960629921
        },
        {
          "duration": 0.23032773833332953,
          "durationTicks": 281,
          "midi": 53,
          "name": "F3",
          "ticks": 171750,
          "time": 140.77860875,
          "velocity": 0.7480314960629921
        },
        {
          "duration": 0.10737698833332843,
          "durationTicks": 131,
          "midi": 36,
          "name": "C2",
          "ticks": 171750,
          "time": 140.77860875,
          "velocity": 0.7480314960629921
        },
        {
          "duration": 0.10737698833332843,
          "durationTicks": 131,
          "midi": 46,
          "name": "A#2",
          "ticks": 171900,
          "time": 140.9015595,
          "velocity": 0.7480314960629921
        },
        {
          "duration": 0.10737698833332843,
          "durationTicks": 131,
          "midi": 38,
          "name": "D2",
          "ticks": 171900,
          "time": 140.9015595,
          "velocity": 0.7480314960629921
        },
        {
          "duration": 0.10737698833332843,
          "durationTicks": 131,
          "midi": 53,
          "name": "F3",
          "ticks": 172050,
          "time": 141.02451025,
          "velocity": 0.7480314960629921
        },
        {
          "duration": 0.35327848833333064,
          "durationTicks": 431,
          "midi": 52,
          "name": "E3",
          "ticks": 172050,
          "time": 141.02451025,
          "velocity": 0.7480314960629921
        },
        {
          "duration": 0.23032773833332953,
          "durationTicks": 281,
          "midi": 38,
          "name": "D2",
          "ticks": 172050,
          "time": 141.02451025,
          "velocity": 0.7480314960629921
        },
        {
          "duration": 0.23032773833332953,
          "durationTicks": 281,
          "midi": 46,
          "name": "A#2",
          "ticks": 172050,
          "time": 141.02451025,
          "velocity": 0.7480314960629921
        },
        {
          "duration": 0.10737698833332843,
          "durationTicks": 131,
          "midi": 53,
          "name": "F3",
          "ticks": 172200,
          "time": 141.147461,
          "velocity": 0.7480314960629921
        },
        {
          "duration": 0.10737698833332843,
          "durationTicks": 131,
          "midi": 36,
          "name": "C2",
          "ticks": 172200,
          "time": 141.147461,
          "velocity": 0.7480314960629921
        },
        {
          "duration": 0.10737698833332843,
          "durationTicks": 131,
          "midi": 53,
          "name": "F3",
          "ticks": 172350,
          "time": 141.27041175,
          "velocity": 0.7480314960629921
        },
        {
          "duration": 0.10737698833332843,
          "durationTicks": 131,
          "midi": 38,
          "name": "D2",
          "ticks": 172350,
          "time": 141.27041175,
          "velocity": 0.7480314960629921
        },
        {
          "duration": 0.10737698833332843,
          "durationTicks": 131,
          "midi": 46,
          "name": "A#2",
          "ticks": 172350,
          "time": 141.27041175,
          "velocity": 0.7480314960629921
        },
        {
          "duration": 0.10737698833332843,
          "durationTicks": 131,
          "midi": 46,
          "name": "A#2",
          "ticks": 172500,
          "time": 141.3933625,
          "velocity": 0.7480314960629921
        },
        {
          "duration": 0.23032773833332953,
          "durationTicks": 281,
          "midi": 52,
          "name": "E3",
          "ticks": 172500,
          "time": 141.3933625,
          "velocity": 0.7480314960629921
        },
        {
          "duration": 0.10737698833332843,
          "durationTicks": 131,
          "midi": 38,
          "name": "D2",
          "ticks": 172500,
          "time": 141.3933625,
          "velocity": 0.7480314960629921
        },
        {
          "duration": 0.10737698833332843,
          "durationTicks": 131,
          "midi": 38,
          "name": "D2",
          "ticks": 172650,
          "time": 141.51631325,
          "velocity": 0.7480314960629921
        },
        {
          "duration": 0.10737698833332843,
          "durationTicks": 131,
          "midi": 46,
          "name": "A#2",
          "ticks": 172650,
          "time": 141.51631325,
          "velocity": 0.7480314960629921
        }
      ]
    },
    {
      "channel": 0,
      "controlChanges": {},
      "pitchBends": [
        {
          "ticks": 38400,
          "time": 31.475392,
          "value": 0
        }
      ],
      "instrument": {
        "family": "piano",
        "number": 0,
        "name": "acoustic grand piano"
      },
      "name": "",
      "notes": []
    },
    {
      "channel": 0,
      "controlChanges": {
        "6": [
          {
            "number": 6,
            "ticks": 38400,
            "time": 31.475392,
            "value": 0.09448818897637795
          },
          {
            "number": 6,
            "ticks": 184800,
            "time": 151.475324,
            "value": 0.09448818897637795
          },
          {
            "number": 6,
            "ticks": 184800,
            "time": 151.475324,
            "value": 0.09448818897637795
          }
        ],
        "7": [
          {
            "number": 7,
            "ticks": 38400,
            "time": 31.475392,
            "value": 0.7874015748031497
          },
          {
            "number": 7,
            "ticks": 38400,
            "time": 31.475392,
            "value": 0.7874015748031497
          },
          {
            "number": 7,
            "ticks": 184800,
            "time": 151.475324,
            "value": 0.7874015748031497
          },
          {
            "number": 7,
            "ticks": 184800,
            "time": 151.475324,
            "value": 0.7874015748031497
          }
        ],
        "10": [
          {
            "number": 10,
            "ticks": 38400,
            "time": 31.475392,
            "value": 0.5039370078740157
          },
          {
            "number": 10,
            "ticks": 38400,
            "time": 31.475392,
            "value": 0.5039370078740157
          },
          {
            "number": 10,
            "ticks": 184800,
            "time": 151.475324,
            "value": 0.5039370078740157
          },
          {
            "number": 10,
            "ticks": 184800,
            "time": 151.475324,
            "value": 0.5039370078740157
          }
        ],
        "100": [
          {
            "number": 100,
            "ticks": 38400,
            "time": 31.475392,
            "value": 0
          },
          {
            "number": 100,
            "ticks": 184800,
            "time": 151.475324,
            "value": 0
          },
          {
            "number": 100,
            "ticks": 184800,
            "time": 151.475324,
            "value": 0
          }
        ],
        "101": [
          {
            "number": 101,
            "ticks": 38400,
            "time": 31.475392,
            "value": 0
          },
          {
            "number": 101,
            "ticks": 184800,
            "time": 151.475324,
            "value": 0
          },
          {
            "number": 101,
            "ticks": 184800,
            "time": 151.475324,
            "value": 0
          }
        ]
      },
      "pitchBends": [
        {
          "ticks": 38400,
          "time": 31.475392,
          "value": 0
        },
        {
          "ticks": 38400,
          "time": 31.475392,
          "value": 0
        },
        {
          "ticks": 184800,
          "time": 151.475324,
          "value": 0
        },
        {
          "ticks": 184800,
          "time": 151.475324,
          "value": 0
        }
      ],
      "instrument": {
        "family": "organ",
        "number": 21,
        "name": "accordion"
      },
      "name": "",
      "notes": []
    },
    {
      "channel": 7,
      "controlChanges": {},
      "pitchBends": [
        {
          "ticks": 38400,
          "time": 31.475392,
          "value": 0
        }
      ],
      "instrument": {
        "family": "piano",
        "number": 0,
        "name": "acoustic grand piano"
      },
      "name": "",
      "notes": []
    },
    {
      "channel": 7,
      "controlChanges": {
        "6": [
          {
            "number": 6,
            "ticks": 38400,
            "time": 31.475392,
            "value": 0.09448818897637795
          },
          {
            "number": 6,
            "ticks": 38400,
            "time": 31.475392,
            "value": 0.09448818897637795
          },
          {
            "number": 6,
            "ticks": 184800,
            "time": 151.475324,
            "value": 0.09448818897637795
          },
          {
            "number": 6,
            "ticks": 184800,
            "time": 151.475324,
            "value": 0.09448818897637795
          },
          {
            "number": 6,
            "ticks": 184800,
            "time": 151.475324,
            "value": 0.09448818897637795
          },
          {
            "number": 6,
            "ticks": 184800,
            "time": 151.475324,
            "value": 0.09448818897637795
          }
        ],
        "7": [
          {
            "number": 7,
            "ticks": 38400,
            "time": 31.475392,
            "value": 0.7874015748031497
          },
          {
            "number": 7,
            "ticks": 38400,
            "time": 31.475392,
            "value": 0.7874015748031497
          },
          {
            "number": 7,
            "ticks": 38400,
            "time": 31.475392,
            "value": 0.7874015748031497
          },
          {
            "number": 7,
            "ticks": 38400,
            "time": 31.475392,
            "value": 0.7874015748031497
          },
          {
            "number": 7,
            "ticks": 184800,
            "time": 151.475324,
            "value": 0.7874015748031497
          },
          {
            "number": 7,
            "ticks": 184800,
            "time": 151.475324,
            "value": 0.7874015748031497
          },
          {
            "number": 7,
            "ticks": 184800,
            "time": 151.475324,
            "value": 0.7874015748031497
          },
          {
            "number": 7,
            "ticks": 184800,
            "time": 151.475324,
            "value": 0.7874015748031497
          }
        ],
        "10": [
          {
            "number": 10,
            "ticks": 38400,
            "time": 31.475392,
            "value": 0.5039370078740157
          },
          {
            "number": 10,
            "ticks": 38400,
            "time": 31.475392,
            "value": 0.5039370078740157
          },
          {
            "number": 10,
            "ticks": 38400,
            "time": 31.475392,
            "value": 0.5039370078740157
          },
          {
            "number": 10,
            "ticks": 38400,
            "time": 31.475392,
            "value": 0.5039370078740157
          },
          {
            "number": 10,
            "ticks": 184800,
            "time": 151.475324,
            "value": 0.5039370078740157
          },
          {
            "number": 10,
            "ticks": 184800,
            "time": 151.475324,
            "value": 0.5039370078740157
          },
          {
            "number": 10,
            "ticks": 184800,
            "time": 151.475324,
            "value": 0.5039370078740157
          },
          {
            "number": 10,
            "ticks": 184800,
            "time": 151.475324,
            "value": 0.5039370078740157
          }
        ],
        "100": [
          {
            "number": 100,
            "ticks": 38400,
            "time": 31.475392,
            "value": 0
          },
          {
            "number": 100,
            "ticks": 38400,
            "time": 31.475392,
            "value": 0
          },
          {
            "number": 100,
            "ticks": 184800,
            "time": 151.475324,
            "value": 0
          },
          {
            "number": 100,
            "ticks": 184800,
            "time": 151.475324,
            "value": 0
          },
          {
            "number": 100,
            "ticks": 184800,
            "time": 151.475324,
            "value": 0
          },
          {
            "number": 100,
            "ticks": 184800,
            "time": 151.475324,
            "value": 0
          }
        ],
        "101": [
          {
            "number": 101,
            "ticks": 38400,
            "time": 31.475392,
            "value": 0
          },
          {
            "number": 101,
            "ticks": 38400,
            "time": 31.475392,
            "value": 0
          },
          {
            "number": 101,
            "ticks": 184800,
            "time": 151.475324,
            "value": 0
          },
          {
            "number": 101,
            "ticks": 184800,
            "time": 151.475324,
            "value": 0
          },
          {
            "number": 101,
            "ticks": 184800,
            "time": 151.475324,
            "value": 0
          },
          {
            "number": 101,
            "ticks": 184800,
            "time": 151.475324,
            "value": 0
          }
        ]
      },
      "pitchBends": [
        {
          "ticks": 38400,
          "time": 31.475392,
          "value": 0
        },
        {
          "ticks": 38400,
          "time": 31.475392,
          "value": 0
        },
        {
          "ticks": 38400,
          "time": 31.475392,
          "value": 0
        },
        {
          "ticks": 38400,
          "time": 31.475392,
          "value": 0
        },
        {
          "ticks": 38400,
          "time": 31.475392,
          "value": 0
        },
        {
          "ticks": 184800,
          "time": 151.475324,
          "value": 0
        },
        {
          "ticks": 184800,
          "time": 151.475324,
          "value": 0
        },
        {
          "ticks": 184800,
          "time": 151.475324,
          "value": 0
        },
        {
          "ticks": 184800,
          "time": 151.475324,
          "value": 0
        }
      ],
      "instrument": {
        "family": "guitar",
        "number": 30,
        "name": "distortion guitar"
      },
      "name": "",
      "notes": [
        {
          "duration": 0,
          "durationTicks": 0,
          "midi": 48,
          "name": "C3",
          "ticks": 38550,
          "time": 31.59834275,
          "velocity": 0.3858267716535433
        },
        {
          "duration": 0,
          "durationTicks": 0,
          "midi": 36,
          "name": "C2",
          "ticks": 38550,
          "time": 31.59834275,
          "velocity": 0.3858267716535433
        },
        {
          "duration": 0,
          "durationTicks": 0,
          "midi": 48,
          "name": "C3",
          "ticks": 38700,
          "time": 31.721293499999998,
          "velocity": 0.6299212598425197
        },
        {
          "duration": 0,
          "durationTicks": 0,
          "midi": 36,
          "name": "C2",
          "ticks": 38700,
          "time": 31.721293499999998,
          "velocity": 0.6299212598425197
        },
        {
          "duration": 0,
          "durationTicks": 0,
          "midi": 48,
          "name": "C3",
          "ticks": 38850,
          "time": 31.84424425,
          "velocity": 0.3858267716535433
        },
        {
          "duration": 0,
          "durationTicks": 0,
          "midi": 36,
          "name": "C2",
          "ticks": 38850,
          "time": 31.84424425,
          "velocity": 0.3858267716535433
        },
        {
          "duration": 0,
          "durationTicks": 0,
          "midi": 48,
          "name": "C3",
          "ticks": 39000,
          "time": 31.967195,
          "velocity": 0.6299212598425197
        },
        {
          "duration": 0,
          "durationTicks": 0,
          "midi": 36,
          "name": "C2",
          "ticks": 39000,
          "time": 31.967195,
          "velocity": 0.6299212598425197
        },
        {
          "duration": 0,
          "durationTicks": 0,
          "midi": 48,
          "name": "C3",
          "ticks": 39150,
          "time": 32.09014575,
          "velocity": 0.3858267716535433
        },
        {
          "duration": 0,
          "durationTicks": 0,
          "midi": 36,
          "name": "C2",
          "ticks": 39150,
          "time": 32.09014575,
          "velocity": 0.3858267716535433
        },
        {
          "duration": 0,
          "durationTicks": 0,
          "midi": 48,
          "name": "C3",
          "ticks": 39300,
          "time": 32.2130965,
          "velocity": 0.6299212598425197
        },
        {
          "duration": 0,
          "durationTicks": 0,
          "midi": 36,
          "name": "C2",
          "ticks": 39300,
          "time": 32.2130965,
          "velocity": 0.6299212598425197
        },
        {
          "duration": 0,
          "durationTicks": 0,
          "midi": 48,
          "name": "C3",
          "ticks": 39450,
          "time": 32.33604725,
          "velocity": 0.6299212598425197
        },
        {
          "duration": 0,
          "durationTicks": 0,
          "midi": 36,
          "name": "C2",
          "ticks": 39450,
          "time": 32.33604725,
          "velocity": 0.6299212598425197
        },
        {
          "duration": 0,
          "durationTicks": 0,
          "midi": 48,
          "name": "C3",
          "ticks": 39750,
          "time": 32.58194875,
          "velocity": 0.3858267716535433
        },
        {
          "duration": 0,
          "durationTicks": 0,
          "midi": 36,
          "name": "C2",
          "ticks": 39750,
          "time": 32.58194875,
          "velocity": 0.3858267716535433
        },
        {
          "duration": 0,
          "durationTicks": 0,
          "midi": 48,
          "name": "C3",
          "ticks": 39900,
          "time": 32.704899499999996,
          "velocity": 0.6377952755905512
        },
        {
          "duration": 0,
          "durationTicks": 0,
          "midi": 36,
          "name": "C2",
          "ticks": 39900,
          "time": 32.704899499999996,
          "velocity": 0.6377952755905512
        },
        {
          "duration": 0,
          "durationTicks": 0,
          "midi": 48,
          "name": "C3",
          "ticks": 40050,
          "time": 32.82785025,
          "velocity": 0.3858267716535433
        },
        {
          "duration": 0,
          "durationTicks": 0,
          "midi": 36,
          "name": "C2",
          "ticks": 40050,
          "time": 32.82785025,
          "velocity": 0.3858267716535433
        },
        {
          "duration": 0,
          "durationTicks": 0,
          "midi": 48,
          "name": "C3",
          "ticks": 40200,
          "time": 32.950801,
          "velocity": 0.6377952755905512
        },
        {
          "duration": 0,
          "durationTicks": 0,
          "midi": 36,
          "name": "C2",
          "ticks": 40200,
          "time": 32.950801,
          "velocity": 0.6377952755905512
        },
        {
          "duration": 0,
          "durationTicks": 0,
          "midi": 48,
          "name": "C3",
          "ticks": 40350,
          "time": 33.07375175,
          "velocity": 0.3858267716535433
        },
        {
          "duration": 0,
          "durationTicks": 0,
          "midi": 36,
          "name": "C2",
          "ticks": 40350,
          "time": 33.07375175,
          "velocity": 0.3858267716535433
        },
        {
          "duration": 0,
          "durationTicks": 0,
          "midi": 48,
          "name": "C3",
          "ticks": 40500,
          "time": 33.1967025,
          "velocity": 0.6377952755905512
        },
        {
          "duration": 0,
          "durationTicks": 0,
          "midi": 36,
          "name": "C2",
          "ticks": 40500,
          "time": 33.1967025,
          "velocity": 0.6377952755905512
        },
        {
          "duration": 0,
          "durationTicks": 0,
          "midi": 48,
          "name": "C3",
          "ticks": 40650,
          "time": 33.31965325,
          "velocity": 0.3937007874015748
        },
        {
          "duration": 0,
          "durationTicks": 0,
          "midi": 36,
          "name": "C2",
          "ticks": 40650,
          "time": 33.31965325,
          "velocity": 0.3937007874015748
        },
        {
          "duration": 0,
          "durationTicks": 0,
          "midi": 48,
          "name": "C3",
          "ticks": 40800,
          "time": 33.442604,
          "velocity": 0.6299212598425197
        },
        {
          "duration": 0,
          "durationTicks": 0,
          "midi": 36,
          "name": "C2",
          "ticks": 40800,
          "time": 33.442604,
          "velocity": 0.6299212598425197
        },
        {
          "duration": 0,
          "durationTicks": 0,
          "midi": 48,
          "name": "C3",
          "ticks": 40950,
          "time": 33.56555475,
          "velocity": 0.3858267716535433
        },
        {
          "duration": 0,
          "durationTicks": 0,
          "midi": 36,
          "name": "C2",
          "ticks": 40950,
          "time": 33.56555475,
          "velocity": 0.3858267716535433
        },
        {
          "duration": 0,
          "durationTicks": 0,
          "midi": 48,
          "name": "C3",
          "ticks": 41100,
          "time": 33.6885055,
          "velocity": 0.6299212598425197
        },
        {
          "duration": 0,
          "durationTicks": 0,
          "midi": 36,
          "name": "C2",
          "ticks": 41100,
          "time": 33.6885055,
          "velocity": 0.6299212598425197
        },
        {
          "duration": 0,
          "durationTicks": 0,
          "midi": 48,
          "name": "C3",
          "ticks": 41250,
          "time": 33.81145625,
          "velocity": 0.3858267716535433
        },
        {
          "duration": 0,
          "durationTicks": 0,
          "midi": 36,
          "name": "C2",
          "ticks": 41250,
          "time": 33.81145625,
          "velocity": 0.3858267716535433
        },
        {
          "duration": 0,
          "durationTicks": 0,
          "midi": 48,
          "name": "C3",
          "ticks": 41400,
          "time": 33.934407,
          "velocity": 0.6299212598425197
        },
        {
          "duration": 0,
          "durationTicks": 0,
          "midi": 36,
          "name": "C2",
          "ticks": 41400,
          "time": 33.934407,
          "velocity": 0.6299212598425197
        },
        {
          "duration": 0,
          "durationTicks": 0,
          "midi": 48,
          "name": "C3",
          "ticks": 41550,
          "time": 34.05735775,
          "velocity": 0.3858267716535433
        },
        {
          "duration": 0,
          "durationTicks": 0,
          "midi": 36,
          "name": "C2",
          "ticks": 41550,
          "time": 34.05735775,
          "velocity": 0.3858267716535433
        },
        {
          "duration": 0,
          "durationTicks": 0,
          "midi": 48,
          "name": "C3",
          "ticks": 41700,
          "time": 34.1803085,
          "velocity": 0.6299212598425197
        },
        {
          "duration": 0,
          "durationTicks": 0,
          "midi": 36,
          "name": "C2",
          "ticks": 41700,
          "time": 34.1803085,
          "velocity": 0.6299212598425197
        },
        {
          "duration": 0,
          "durationTicks": 0,
          "midi": 48,
          "name": "C3",
          "ticks": 41850,
          "time": 34.303259249999996,
          "velocity": 0.6299212598425197
        },
        {
          "duration": 0,
          "durationTicks": 0,
          "midi": 36,
          "name": "C2",
          "ticks": 41850,
          "time": 34.303259249999996,
          "velocity": 0.6299212598425197
        },
        {
          "duration": 0,
          "durationTicks": 0,
          "midi": 48,
          "name": "C3",
          "ticks": 42150,
          "time": 34.54916075,
          "velocity": 0.3858267716535433
        },
        {
          "duration": 0,
          "durationTicks": 0,
          "midi": 36,
          "name": "C2",
          "ticks": 42150,
          "time": 34.54916075,
          "velocity": 0.3858267716535433
        },
        {
          "duration": 0,
          "durationTicks": 0,
          "midi": 48,
          "name": "C3",
          "ticks": 42300,
          "time": 34.6721115,
          "velocity": 0.6377952755905512
        },
        {
          "duration": 0,
          "durationTicks": 0,
          "midi": 36,
          "name": "C2",
          "ticks": 42300,
          "time": 34.6721115,
          "velocity": 0.6377952755905512
        },
        {
          "duration": 0,
          "durationTicks": 0,
          "midi": 48,
          "name": "C3",
          "ticks": 42450,
          "time": 34.79506225,
          "velocity": 0.3858267716535433
        },
        {
          "duration": 0,
          "durationTicks": 0,
          "midi": 36,
          "name": "C2",
          "ticks": 42450,
          "time": 34.79506225,
          "velocity": 0.3858267716535433
        },
        {
          "duration": 0,
          "durationTicks": 0,
          "midi": 48,
          "name": "C3",
          "ticks": 42600,
          "time": 34.918013,
          "velocity": 0.6377952755905512
        },
        {
          "duration": 0,
          "durationTicks": 0,
          "midi": 36,
          "name": "C2",
          "ticks": 42600,
          "time": 34.918013,
          "velocity": 0.6377952755905512
        },
        {
          "duration": 0,
          "durationTicks": 0,
          "midi": 48,
          "name": "C3",
          "ticks": 42750,
          "time": 35.040963749999996,
          "velocity": 0.3858267716535433
        },
        {
          "duration": 0,
          "durationTicks": 0,
          "midi": 36,
          "name": "C2",
          "ticks": 42750,
          "time": 35.040963749999996,
          "velocity": 0.3858267716535433
        },
        {
          "duration": 0,
          "durationTicks": 0,
          "midi": 48,
          "name": "C3",
          "ticks": 42900,
          "time": 35.1639145,
          "velocity": 0.6377952755905512
        },
        {
          "duration": 0,
          "durationTicks": 0,
          "midi": 36,
          "name": "C2",
          "ticks": 42900,
          "time": 35.1639145,
          "velocity": 0.6377952755905512
        },
        {
          "duration": 0,
          "durationTicks": 0,
          "midi": 48,
          "name": "C3",
          "ticks": 43050,
          "time": 35.28686525,
          "velocity": 0.3937007874015748
        },
        {
          "duration": 0,
          "durationTicks": 0,
          "midi": 36,
          "name": "C2",
          "ticks": 43050,
          "time": 35.28686525,
          "velocity": 0.3937007874015748
        },
        {
          "duration": 0.12295075000000111,
          "durationTicks": 150,
          "midi": 44,
          "name": "G#2",
          "ticks": 43200,
          "time": 35.409816,
          "velocity": 0.6299212598425197
        },
        {
          "duration": 0.12295075000000111,
          "durationTicks": 150,
          "midi": 32,
          "name": "G#1",
          "ticks": 43200,
          "time": 35.409816,
          "velocity": 0.6299212598425197
        },
        {
          "duration": 0.12295075000000111,
          "durationTicks": 150,
          "midi": 44,
          "name": "G#2",
          "ticks": 43350,
          "time": 35.53276675,
          "velocity": 0.3858267716535433
        },
        {
          "duration": 0.12295075000000111,
          "durationTicks": 150,
          "midi": 32,
          "name": "G#1",
          "ticks": 43350,
          "time": 35.53276675,
          "velocity": 0.3858267716535433
        },
        {
          "duration": 0.12295075000000111,
          "durationTicks": 150,
          "midi": 44,
          "name": "G#2",
          "ticks": 43500,
          "time": 35.6557175,
          "velocity": 0.6299212598425197
        },
        {
          "duration": 0.12295075000000111,
          "durationTicks": 150,
          "midi": 32,
          "name": "G#1",
          "ticks": 43500,
          "time": 35.6557175,
          "velocity": 0.6299212598425197
        },
        {
          "duration": 0.122950749999994,
          "durationTicks": 150,
          "midi": 44,
          "name": "G#2",
          "ticks": 43650,
          "time": 35.77866825,
          "velocity": 0.3858267716535433
        },
        {
          "duration": 0.122950749999994,
          "durationTicks": 150,
          "midi": 32,
          "name": "G#1",
          "ticks": 43650,
          "time": 35.77866825,
          "velocity": 0.3858267716535433
        },
        {
          "duration": 0.12295075000000111,
          "durationTicks": 150,
          "midi": 44,
          "name": "G#2",
          "ticks": 43800,
          "time": 35.901619,
          "velocity": 0.6299212598425197
        },
        {
          "duration": 0.12295075000000111,
          "durationTicks": 150,
          "midi": 32,
          "name": "G#1",
          "ticks": 43800,
          "time": 35.901619,
          "velocity": 0.6299212598425197
        },
        {
          "duration": 0.12295075000000111,
          "durationTicks": 150,
          "midi": 44,
          "name": "G#2",
          "ticks": 43950,
          "time": 36.02456975,
          "velocity": 0.3858267716535433
        },
        {
          "duration": 0.12295075000000111,
          "durationTicks": 150,
          "midi": 32,
          "name": "G#1",
          "ticks": 43950,
          "time": 36.02456975,
          "velocity": 0.3858267716535433
        },
        {
          "duration": 0.12295075000000111,
          "durationTicks": 150,
          "midi": 44,
          "name": "G#2",
          "ticks": 44100,
          "time": 36.1475205,
          "velocity": 0.6299212598425197
        },
        {
          "duration": 0.12295075000000111,
          "durationTicks": 150,
          "midi": 32,
          "name": "G#1",
          "ticks": 44100,
          "time": 36.1475205,
          "velocity": 0.6299212598425197
        },
        {
          "duration": 0.24590150000000222,
          "durationTicks": 300,
          "midi": 44,
          "name": "G#2",
          "ticks": 44250,
          "time": 36.27047125,
          "velocity": 0.6299212598425197
        },
        {
          "duration": 0.24590150000000222,
          "durationTicks": 300,
          "midi": 32,
          "name": "G#1",
          "ticks": 44250,
          "time": 36.27047125,
          "velocity": 0.6299212598425197
        },
        {
          "duration": 0.122950749999994,
          "durationTicks": 150,
          "midi": 44,
          "name": "G#2",
          "ticks": 44550,
          "time": 36.51637275,
          "velocity": 0.3858267716535433
        },
        {
          "duration": 0.122950749999994,
          "durationTicks": 150,
          "midi": 32,
          "name": "G#1",
          "ticks": 44550,
          "time": 36.51637275,
          "velocity": 0.3858267716535433
        },
        {
          "duration": 0.12295075000000111,
          "durationTicks": 150,
          "midi": 44,
          "name": "G#2",
          "ticks": 44700,
          "time": 36.639323499999996,
          "velocity": 0.6377952755905512
        },
        {
          "duration": 0.12295075000000111,
          "durationTicks": 150,
          "midi": 32,
          "name": "G#1",
          "ticks": 44700,
          "time": 36.639323499999996,
          "velocity": 0.6377952755905512
        },
        {
          "duration": 0.12295075000000111,
          "durationTicks": 150,
          "midi": 44,
          "name": "G#2",
          "ticks": 44850,
          "time": 36.76227425,
          "velocity": 0.3858267716535433
        },
        {
          "duration": 0.12295075000000111,
          "durationTicks": 150,
          "midi": 32,
          "name": "G#1",
          "ticks": 44850,
          "time": 36.76227425,
          "velocity": 0.3858267716535433
        },
        {
          "duration": 0.12295075000000111,
          "durationTicks": 150,
          "midi": 44,
          "name": "G#2",
          "ticks": 45000,
          "time": 36.885225,
          "velocity": 0.6377952755905512
        },
        {
          "duration": 0.12295075000000111,
          "durationTicks": 150,
          "midi": 32,
          "name": "G#1",
          "ticks": 45000,
          "time": 36.885225,
          "velocity": 0.6377952755905512
        },
        {
          "duration": 0.12295075000000111,
          "durationTicks": 150,
          "midi": 44,
          "name": "G#2",
          "ticks": 45150,
          "time": 37.00817575,
          "velocity": 0.3858267716535433
        },
        {
          "duration": 0.12295075000000111,
          "durationTicks": 150,
          "midi": 32,
          "name": "G#1",
          "ticks": 45150,
          "time": 37.00817575,
          "velocity": 0.3858267716535433
        },
        {
          "duration": 0.12295075000000111,
          "durationTicks": 150,
          "midi": 44,
          "name": "G#2",
          "ticks": 45300,
          "time": 37.1311265,
          "velocity": 0.6377952755905512
        },
        {
          "duration": 0.12295075000000111,
          "durationTicks": 150,
          "midi": 32,
          "name": "G#1",
          "ticks": 45300,
          "time": 37.1311265,
          "velocity": 0.6377952755905512
        },
        {
          "duration": 0.122950749999994,
          "durationTicks": 150,
          "midi": 44,
          "name": "G#2",
          "ticks": 45450,
          "time": 37.25407725,
          "velocity": 0.3937007874015748
        },
        {
          "duration": 0.122950749999994,
          "durationTicks": 150,
          "midi": 32,
          "name": "G#1",
          "ticks": 45450,
          "time": 37.25407725,
          "velocity": 0.3937007874015748
        },
        {
          "duration": 0.12295075000000111,
          "durationTicks": 150,
          "midi": 46,
          "name": "A#2",
          "ticks": 45600,
          "time": 37.377027999999996,
          "velocity": 0.6299212598425197
        },
        {
          "duration": 0.12295075000000111,
          "durationTicks": 150,
          "midi": 34,
          "name": "A#1",
          "ticks": 45600,
          "time": 37.377027999999996,
          "velocity": 0.6299212598425197
        },
        {
          "duration": 0.12295075000000111,
          "durationTicks": 150,
          "midi": 46,
          "name": "A#2",
          "ticks": 45750,
          "time": 37.49997875,
          "velocity": 0.3858267716535433
        },
        {
          "duration": 0.12295075000000111,
          "durationTicks": 150,
          "midi": 34,
          "name": "A#1",
          "ticks": 45750,
          "time": 37.49997875,
          "velocity": 0.3858267716535433
        },
        {
          "duration": 0.12295075000000111,
          "durationTicks": 150,
          "midi": 46,
          "name": "A#2",
          "ticks": 45900,
          "time": 37.6229295,
          "velocity": 0.6299212598425197
        },
        {
          "duration": 0.12295075000000111,
          "durationTicks": 150,
          "midi": 34,
          "name": "A#1",
          "ticks": 45900,
          "time": 37.6229295,
          "velocity": 0.6299212598425197
        },
        {
          "duration": 0.12295075000000111,
          "durationTicks": 150,
          "midi": 46,
          "name": "A#2",
          "ticks": 46050,
          "time": 37.74588025,
          "velocity": 0.3858267716535433
        },
        {
          "duration": 0.12295075000000111,
          "durationTicks": 150,
          "midi": 34,
          "name": "A#1",
          "ticks": 46050,
          "time": 37.74588025,
          "velocity": 0.3858267716535433
        },
        {
          "duration": 0.12295075000000111,
          "durationTicks": 150,
          "midi": 46,
          "name": "A#2",
          "ticks": 46200,
          "time": 37.868831,
          "velocity": 0.6299212598425197
        },
        {
          "duration": 0.12295075000000111,
          "durationTicks": 150,
          "midi": 34,
          "name": "A#1",
          "ticks": 46200,
          "time": 37.868831,
          "velocity": 0.6299212598425197
        },
        {
          "duration": 0.12295075000000111,
          "durationTicks": 150,
          "midi": 46,
          "name": "A#2",
          "ticks": 46350,
          "time": 37.99178175,
          "velocity": 0.3858267716535433
        },
        {
          "duration": 0.12295075000000111,
          "durationTicks": 150,
          "midi": 34,
          "name": "A#1",
          "ticks": 46350,
          "time": 37.99178175,
          "velocity": 0.3858267716535433
        },
        {
          "duration": 0.122950749999994,
          "durationTicks": 150,
          "midi": 46,
          "name": "A#2",
          "ticks": 46500,
          "time": 38.1147325,
          "velocity": 0.6299212598425197
        },
        {
          "duration": 0.122950749999994,
          "durationTicks": 150,
          "midi": 34,
          "name": "A#1",
          "ticks": 46500,
          "time": 38.1147325,
          "velocity": 0.6299212598425197
        },
        {
          "duration": 0.24590150000000222,
          "durationTicks": 300,
          "midi": 47,
          "name": "B2",
          "ticks": 46650,
          "time": 38.237683249999996,
          "velocity": 0.6299212598425197
        },
        {
          "duration": 0.24590150000000222,
          "durationTicks": 300,
          "midi": 35,
          "name": "B1",
          "ticks": 46650,
          "time": 38.237683249999996,
          "velocity": 0.6299212598425197
        },
        {
          "duration": 0.12295075000000111,
          "durationTicks": 150,
          "midi": 47,
          "name": "B2",
          "ticks": 46950,
          "time": 38.48358475,
          "velocity": 0.3858267716535433
        },
        {
          "duration": 0.12295075000000111,
          "durationTicks": 150,
          "midi": 35,
          "name": "B1",
          "ticks": 46950,
          "time": 38.48358475,
          "velocity": 0.3858267716535433
        },
        {
          "duration": 0.12295075000000111,
          "durationTicks": 150,
          "midi": 47,
          "name": "B2",
          "ticks": 47100,
          "time": 38.6065355,
          "velocity": 0.6377952755905512
        },
        {
          "duration": 0.12295075000000111,
          "durationTicks": 150,
          "midi": 35,
          "name": "B1",
          "ticks": 47100,
          "time": 38.6065355,
          "velocity": 0.6377952755905512
        },
        {
          "duration": 0.12295075000000111,
          "durationTicks": 150,
          "midi": 47,
          "name": "B2",
          "ticks": 47250,
          "time": 38.72948625,
          "velocity": 0.3858267716535433
        },
        {
          "duration": 0.12295075000000111,
          "durationTicks": 150,
          "midi": 35,
          "name": "B1",
          "ticks": 47250,
          "time": 38.72948625,
          "velocity": 0.3858267716535433
        },
        {
          "duration": 0.122950749999994,
          "durationTicks": 150,
          "midi": 47,
          "name": "B2",
          "ticks": 47400,
          "time": 38.852437,
          "velocity": 0.6377952755905512
        },
        {
          "duration": 0.122950749999994,
          "durationTicks": 150,
          "midi": 35,
          "name": "B1",
          "ticks": 47400,
          "time": 38.852437,
          "velocity": 0.6377952755905512
        },
        {
          "duration": 0.12295075000000111,
          "durationTicks": 150,
          "midi": 47,
          "name": "B2",
          "ticks": 47550,
          "time": 38.975387749999996,
          "velocity": 0.3858267716535433
        },
        {
          "duration": 0.12295075000000111,
          "durationTicks": 150,
          "midi": 35,
          "name": "B1",
          "ticks": 47550,
          "time": 38.975387749999996,
          "velocity": 0.3858267716535433
        },
        {
          "duration": 0.12295075000000111,
          "durationTicks": 150,
          "midi": 47,
          "name": "B2",
          "ticks": 47700,
          "time": 39.0983385,
          "velocity": 0.6377952755905512
        },
        {
          "duration": 0.12295075000000111,
          "durationTicks": 150,
          "midi": 35,
          "name": "B1",
          "ticks": 47700,
          "time": 39.0983385,
          "velocity": 0.6377952755905512
        },
        {
          "duration": 0.12295075000000111,
          "durationTicks": 150,
          "midi": 47,
          "name": "B2",
          "ticks": 47850,
          "time": 39.22128925,
          "velocity": 0.3937007874015748
        },
        {
          "duration": 0.12295075000000111,
          "durationTicks": 150,
          "midi": 35,
          "name": "B1",
          "ticks": 47850,
          "time": 39.22128925,
          "velocity": 0.3937007874015748
        },
        {
          "duration": 0.12295075000000111,
          "durationTicks": 150,
          "midi": 48,
          "name": "C3",
          "ticks": 48000,
          "time": 39.34424,
          "velocity": 0.6299212598425197
        },
        {
          "duration": 0.12295075000000111,
          "durationTicks": 150,
          "midi": 36,
          "name": "C2",
          "ticks": 48000,
          "time": 39.34424,
          "velocity": 0.6299212598425197
        },
        {
          "duration": 0.12295075000000111,
          "durationTicks": 150,
          "midi": 48,
          "name": "C3",
          "ticks": 48150,
          "time": 39.46719075,
          "velocity": 0.3858267716535433
        },
        {
          "duration": 0.12295075000000111,
          "durationTicks": 150,
          "midi": 36,
          "name": "C2",
          "ticks": 48150,
          "time": 39.46719075,
          "velocity": 0.3858267716535433
        },
        {
          "duration": 0.12295075000000111,
          "durationTicks": 150,
          "midi": 48,
          "name": "C3",
          "ticks": 48300,
          "time": 39.5901415,
          "velocity": 0.6299212598425197
        },
        {
          "duration": 0.12295075000000111,
          "durationTicks": 150,
          "midi": 36,
          "name": "C2",
          "ticks": 48300,
          "time": 39.5901415,
          "velocity": 0.6299212598425197
        },
        {
          "duration": 0.122950749999994,
          "durationTicks": 150,
          "midi": 48,
          "name": "C3",
          "ticks": 48450,
          "time": 39.71309225,
          "velocity": 0.3858267716535433
        },
        {
          "duration": 0.122950749999994,
          "durationTicks": 150,
          "midi": 36,
          "name": "C2",
          "ticks": 48450,
          "time": 39.71309225,
          "velocity": 0.3858267716535433
        },
        {
          "duration": 0.12295075000000111,
          "durationTicks": 150,
          "midi": 48,
          "name": "C3",
          "ticks": 48600,
          "time": 39.836043,
          "velocity": 0.6299212598425197
        },
        {
          "duration": 0.12295075000000111,
          "durationTicks": 150,
          "midi": 36,
          "name": "C2",
          "ticks": 48600,
          "time": 39.836043,
          "velocity": 0.6299212598425197
        },
        {
          "duration": 0.12295075000000111,
          "durationTicks": 150,
          "midi": 48,
          "name": "C3",
          "ticks": 48750,
          "time": 39.95899375,
          "velocity": 0.3858267716535433
        },
        {
          "duration": 0.12295075000000111,
          "durationTicks": 150,
          "midi": 36,
          "name": "C2",
          "ticks": 48750,
          "time": 39.95899375,
          "velocity": 0.3858267716535433
        },
        {
          "duration": 0.12295075000000111,
          "durationTicks": 150,
          "midi": 48,
          "name": "C3",
          "ticks": 48900,
          "time": 40.0819445,
          "velocity": 0.6299212598425197
        },
        {
          "duration": 0.12295075000000111,
          "durationTicks": 150,
          "midi": 36,
          "name": "C2",
          "ticks": 48900,
          "time": 40.0819445,
          "velocity": 0.6299212598425197
        },
        {
          "duration": 0.24590150000000222,
          "durationTicks": 300,
          "midi": 48,
          "name": "C3",
          "ticks": 49050,
          "time": 40.20489525,
          "velocity": 0.6299212598425197
        },
        {
          "duration": 0.24590150000000222,
          "durationTicks": 300,
          "midi": 36,
          "name": "C2",
          "ticks": 49050,
          "time": 40.20489525,
          "velocity": 0.6299212598425197
        },
        {
          "duration": 0.122950749999994,
          "durationTicks": 150,
          "midi": 48,
          "name": "C3",
          "ticks": 49350,
          "time": 40.45079675,
          "velocity": 0.3858267716535433
        },
        {
          "duration": 0.122950749999994,
          "durationTicks": 150,
          "midi": 36,
          "name": "C2",
          "ticks": 49350,
          "time": 40.45079675,
          "velocity": 0.3858267716535433
        },
        {
          "duration": 0.12295075000000111,
          "durationTicks": 150,
          "midi": 48,
          "name": "C3",
          "ticks": 49500,
          "time": 40.573747499999996,
          "velocity": 0.6377952755905512
        },
        {
          "duration": 0.12295075000000111,
          "durationTicks": 150,
          "midi": 36,
          "name": "C2",
          "ticks": 49500,
          "time": 40.573747499999996,
          "velocity": 0.6377952755905512
        },
        {
          "duration": 0.12295075000000111,
          "durationTicks": 150,
          "midi": 48,
          "name": "C3",
          "ticks": 49650,
          "time": 40.69669825,
          "velocity": 0.3858267716535433
        },
        {
          "duration": 0.12295075000000111,
          "durationTicks": 150,
          "midi": 36,
          "name": "C2",
          "ticks": 49650,
          "time": 40.69669825,
          "velocity": 0.3858267716535433
        },
        {
          "duration": 0.12295075000000111,
          "durationTicks": 150,
          "midi": 48,
          "name": "C3",
          "ticks": 49800,
          "time": 40.819649,
          "velocity": 0.6377952755905512
        },
        {
          "duration": 0.12295075000000111,
          "durationTicks": 150,
          "midi": 36,
          "name": "C2",
          "ticks": 49800,
          "time": 40.819649,
          "velocity": 0.6377952755905512
        },
        {
          "duration": 0.12295075000000111,
          "durationTicks": 150,
          "midi": 48,
          "name": "C3",
          "ticks": 49950,
          "time": 40.94259975,
          "velocity": 0.3858267716535433
        },
        {
          "duration": 0.12295075000000111,
          "durationTicks": 150,
          "midi": 36,
          "name": "C2",
          "ticks": 49950,
          "time": 40.94259975,
          "velocity": 0.3858267716535433
        },
        {
          "duration": 0.12295075000000111,
          "durationTicks": 150,
          "midi": 48,
          "name": "C3",
          "ticks": 50100,
          "time": 41.0655505,
          "velocity": 0.6377952755905512
        },
        {
          "duration": 0.12295075000000111,
          "durationTicks": 150,
          "midi": 36,
          "name": "C2",
          "ticks": 50100,
          "time": 41.0655505,
          "velocity": 0.6377952755905512
        },
        {
          "duration": 0.12295075000000111,
          "durationTicks": 150,
          "midi": 48,
          "name": "C3",
          "ticks": 50250,
          "time": 41.18850125,
          "velocity": 0.3937007874015748
        },
        {
          "duration": 0.12295075000000111,
          "durationTicks": 150,
          "midi": 36,
          "name": "C2",
          "ticks": 50250,
          "time": 41.18850125,
          "velocity": 0.3937007874015748
        },
        {
          "duration": 0.122950749999994,
          "durationTicks": 150,
          "midi": 48,
          "name": "C3",
          "ticks": 50400,
          "time": 41.311452,
          "velocity": 0.6299212598425197
        },
        {
          "duration": 0.122950749999994,
          "durationTicks": 150,
          "midi": 36,
          "name": "C2",
          "ticks": 50400,
          "time": 41.311452,
          "velocity": 0.6299212598425197
        },
        {
          "duration": 0.12295075000000111,
          "durationTicks": 150,
          "midi": 48,
          "name": "C3",
          "ticks": 50550,
          "time": 41.43440275,
          "velocity": 0.3858267716535433
        },
        {
          "duration": 0.12295075000000111,
          "durationTicks": 150,
          "midi": 36,
          "name": "C2",
          "ticks": 50550,
          "time": 41.43440275,
          "velocity": 0.3858267716535433
        },
        {
          "duration": 0.12295075000000111,
          "durationTicks": 150,
          "midi": 48,
          "name": "C3",
          "ticks": 50700,
          "time": 41.5573535,
          "velocity": 0.6299212598425197
        },
        {
          "duration": 0.12295075000000111,
          "durationTicks": 150,
          "midi": 36,
          "name": "C2",
          "ticks": 50700,
          "time": 41.5573535,
          "velocity": 0.6299212598425197
        },
        {
          "duration": 0.12295075000000111,
          "durationTicks": 150,
          "midi": 48,
          "name": "C3",
          "ticks": 50850,
          "time": 41.68030425,
          "velocity": 0.3858267716535433
        },
        {
          "duration": 0.12295075000000111,
          "durationTicks": 150,
          "midi": 36,
          "name": "C2",
          "ticks": 50850,
          "time": 41.68030425,
          "velocity": 0.3858267716535433
        },
        {
          "duration": 0.12295075000000111,
          "durationTicks": 150,
          "midi": 48,
          "name": "C3",
          "ticks": 51000,
          "time": 41.803255,
          "velocity": 0.6299212598425197
        },
        {
          "duration": 0.12295075000000111,
          "durationTicks": 150,
          "midi": 36,
          "name": "C2",
          "ticks": 51000,
          "time": 41.803255,
          "velocity": 0.6299212598425197
        },
        {
          "duration": 0.12295075000000111,
          "durationTicks": 150,
          "midi": 48,
          "name": "C3",
          "ticks": 51150,
          "time": 41.92620575,
          "velocity": 0.3858267716535433
        },
        {
          "duration": 0.12295075000000111,
          "durationTicks": 150,
          "midi": 36,
          "name": "C2",
          "ticks": 51150,
          "time": 41.92620575,
          "velocity": 0.3858267716535433
        },
        {
          "duration": 0.122950749999994,
          "durationTicks": 150,
          "midi": 48,
          "name": "C3",
          "ticks": 51300,
          "time": 42.0491565,
          "velocity": 0.6299212598425197
        },
        {
          "duration": 0.122950749999994,
          "durationTicks": 150,
          "midi": 36,
          "name": "C2",
          "ticks": 51300,
          "time": 42.0491565,
          "velocity": 0.6299212598425197
        },
        {
          "duration": 0.24590150000000222,
          "durationTicks": 300,
          "midi": 48,
          "name": "C3",
          "ticks": 51450,
          "time": 42.172107249999996,
          "velocity": 0.6299212598425197
        },
        {
          "duration": 0.24590150000000222,
          "durationTicks": 300,
          "midi": 36,
          "name": "C2",
          "ticks": 51450,
          "time": 42.172107249999996,
          "velocity": 0.6299212598425197
        },
        {
          "duration": 0.12295075000000111,
          "durationTicks": 150,
          "midi": 48,
          "name": "C3",
          "ticks": 51750,
          "time": 42.41800875,
          "velocity": 0.3858267716535433
        },
        {
          "duration": 0.12295075000000111,
          "durationTicks": 150,
          "midi": 36,
          "name": "C2",
          "ticks": 51750,
          "time": 42.41800875,
          "velocity": 0.3858267716535433
        },
        {
          "duration": 0.12295075000000111,
          "durationTicks": 150,
          "midi": 48,
          "name": "C3",
          "ticks": 51900,
          "time": 42.5409595,
          "velocity": 0.6377952755905512
        },
        {
          "duration": 0.12295075000000111,
          "durationTicks": 150,
          "midi": 36,
          "name": "C2",
          "ticks": 51900,
          "time": 42.5409595,
          "velocity": 0.6377952755905512
        },
        {
          "duration": 0.12295075000000111,
          "durationTicks": 150,
          "midi": 48,
          "name": "C3",
          "ticks": 52050,
          "time": 42.66391025,
          "velocity": 0.3858267716535433
        },
        {
          "duration": 0.12295075000000111,
          "durationTicks": 150,
          "midi": 36,
          "name": "C2",
          "ticks": 52050,
          "time": 42.66391025,
          "velocity": 0.3858267716535433
        },
        {
          "duration": 0.122950749999994,
          "durationTicks": 150,
          "midi": 48,
          "name": "C3",
          "ticks": 52200,
          "time": 42.786861,
          "velocity": 0.6377952755905512
        },
        {
          "duration": 0.122950749999994,
          "durationTicks": 150,
          "midi": 36,
          "name": "C2",
          "ticks": 52200,
          "time": 42.786861,
          "velocity": 0.6377952755905512
        },
        {
          "duration": 0.12295075000000111,
          "durationTicks": 150,
          "midi": 48,
          "name": "C3",
          "ticks": 52350,
          "time": 42.909811749999996,
          "velocity": 0.3858267716535433
        },
        {
          "duration": 0.12295075000000111,
          "durationTicks": 150,
          "midi": 36,
          "name": "C2",
          "ticks": 52350,
          "time": 42.909811749999996,
          "velocity": 0.3858267716535433
        },
        {
          "duration": 0.12295075000000111,
          "durationTicks": 150,
          "midi": 48,
          "name": "C3",
          "ticks": 52500,
          "time": 43.0327625,
          "velocity": 0.6377952755905512
        },
        {
          "duration": 0.12295075000000111,
          "durationTicks": 150,
          "midi": 36,
          "name": "C2",
          "ticks": 52500,
          "time": 43.0327625,
          "velocity": 0.6377952755905512
        },
        {
          "duration": 0.12295075000000111,
          "durationTicks": 150,
          "midi": 48,
          "name": "C3",
          "ticks": 52650,
          "time": 43.15571325,
          "velocity": 0.3937007874015748
        },
        {
          "duration": 0.12295075000000111,
          "durationTicks": 150,
          "midi": 36,
          "name": "C2",
          "ticks": 52650,
          "time": 43.15571325,
          "velocity": 0.3937007874015748
        },
        {
          "duration": 0.12295075000000111,
          "durationTicks": 150,
          "midi": 44,
          "name": "G#2",
          "ticks": 52800,
          "time": 43.278664,
          "velocity": 0.6299212598425197
        },
        {
          "duration": 0.12295075000000111,
          "durationTicks": 150,
          "midi": 32,
          "name": "G#1",
          "ticks": 52800,
          "time": 43.278664,
          "velocity": 0.6299212598425197
        },
        {
          "duration": 0.12295075000000111,
          "durationTicks": 150,
          "midi": 44,
          "name": "G#2",
          "ticks": 52950,
          "time": 43.40161475,
          "velocity": 0.3858267716535433
        },
        {
          "duration": 0.12295075000000111,
          "durationTicks": 150,
          "midi": 32,
          "name": "G#1",
          "ticks": 52950,
          "time": 43.40161475,
          "velocity": 0.3858267716535433
        },
        {
          "duration": 0.12295075000000111,
          "durationTicks": 150,
          "midi": 44,
          "name": "G#2",
          "ticks": 53100,
          "time": 43.5245655,
          "velocity": 0.6299212598425197
        },
        {
          "duration": 0.12295075000000111,
          "durationTicks": 150,
          "midi": 32,
          "name": "G#1",
          "ticks": 53100,
          "time": 43.5245655,
          "velocity": 0.6299212598425197
        },
        {
          "duration": 0.122950749999994,
          "durationTicks": 150,
          "midi": 44,
          "name": "G#2",
          "ticks": 53250,
          "time": 43.64751625,
          "velocity": 0.3858267716535433
        },
        {
          "duration": 0.122950749999994,
          "durationTicks": 150,
          "midi": 32,
          "name": "G#1",
          "ticks": 53250,
          "time": 43.64751625,
          "velocity": 0.3858267716535433
        },
        {
          "duration": 0.12295075000000111,
          "durationTicks": 150,
          "midi": 44,
          "name": "G#2",
          "ticks": 53400,
          "time": 43.770467,
          "velocity": 0.6299212598425197
        },
        {
          "duration": 0.12295075000000111,
          "durationTicks": 150,
          "midi": 32,
          "name": "G#1",
          "ticks": 53400,
          "time": 43.770467,
          "velocity": 0.6299212598425197
        },
        {
          "duration": 0.12295075000000111,
          "durationTicks": 150,
          "midi": 44,
          "name": "G#2",
          "ticks": 53550,
          "time": 43.89341775,
          "velocity": 0.3858267716535433
        },
        {
          "duration": 0.12295075000000111,
          "durationTicks": 150,
          "midi": 32,
          "name": "G#1",
          "ticks": 53550,
          "time": 43.89341775,
          "velocity": 0.3858267716535433
        },
        {
          "duration": 0.12295075000000111,
          "durationTicks": 150,
          "midi": 44,
          "name": "G#2",
          "ticks": 53700,
          "time": 44.0163685,
          "velocity": 0.6299212598425197
        },
        {
          "duration": 0.12295075000000111,
          "durationTicks": 150,
          "midi": 32,
          "name": "G#1",
          "ticks": 53700,
          "time": 44.0163685,
          "velocity": 0.6299212598425197
        },
        {
          "duration": 0.24590150000000222,
          "durationTicks": 300,
          "midi": 44,
          "name": "G#2",
          "ticks": 53850,
          "time": 44.13931925,
          "velocity": 0.6299212598425197
        },
        {
          "duration": 0.24590150000000222,
          "durationTicks": 300,
          "midi": 32,
          "name": "G#1",
          "ticks": 53850,
          "time": 44.13931925,
          "velocity": 0.6299212598425197
        },
        {
          "duration": 0.122950749999994,
          "durationTicks": 150,
          "midi": 44,
          "name": "G#2",
          "ticks": 54150,
          "time": 44.38522075,
          "velocity": 0.3858267716535433
        },
        {
          "duration": 0.122950749999994,
          "durationTicks": 150,
          "midi": 32,
          "name": "G#1",
          "ticks": 54150,
          "time": 44.38522075,
          "velocity": 0.3858267716535433
        },
        {
          "duration": 0.12295075000000111,
          "durationTicks": 150,
          "midi": 44,
          "name": "G#2",
          "ticks": 54300,
          "time": 44.508171499999996,
          "velocity": 0.6377952755905512
        },
        {
          "duration": 0.12295075000000111,
          "durationTicks": 150,
          "midi": 32,
          "name": "G#1",
          "ticks": 54300,
          "time": 44.508171499999996,
          "velocity": 0.6377952755905512
        },
        {
          "duration": 0.12295075000000111,
          "durationTicks": 150,
          "midi": 44,
          "name": "G#2",
          "ticks": 54450,
          "time": 44.63112225,
          "velocity": 0.3858267716535433
        },
        {
          "duration": 0.12295075000000111,
          "durationTicks": 150,
          "midi": 32,
          "name": "G#1",
          "ticks": 54450,
          "time": 44.63112225,
          "velocity": 0.3858267716535433
        },
        {
          "duration": 0.12295075000000111,
          "durationTicks": 150,
          "midi": 44,
          "name": "G#2",
          "ticks": 54600,
          "time": 44.754073,
          "velocity": 0.6377952755905512
        },
        {
          "duration": 0.12295075000000111,
          "durationTicks": 150,
          "midi": 32,
          "name": "G#1",
          "ticks": 54600,
          "time": 44.754073,
          "velocity": 0.6377952755905512
        },
        {
          "duration": 0.12295075000000111,
          "durationTicks": 150,
          "midi": 44,
          "name": "G#2",
          "ticks": 54750,
          "time": 44.87702375,
          "velocity": 0.3858267716535433
        },
        {
          "duration": 0.12295075000000111,
          "durationTicks": 150,
          "midi": 32,
          "name": "G#1",
          "ticks": 54750,
          "time": 44.87702375,
          "velocity": 0.3858267716535433
        },
        {
          "duration": 0.12295075000000111,
          "durationTicks": 150,
          "midi": 44,
          "name": "G#2",
          "ticks": 54900,
          "time": 44.9999745,
          "velocity": 0.6377952755905512
        },
        {
          "duration": 0.12295075000000111,
          "durationTicks": 150,
          "midi": 32,
          "name": "G#1",
          "ticks": 54900,
          "time": 44.9999745,
          "velocity": 0.6377952755905512
        },
        {
          "duration": 0.122950749999994,
          "durationTicks": 150,
          "midi": 44,
          "name": "G#2",
          "ticks": 55050,
          "time": 45.12292525,
          "velocity": 0.3937007874015748
        },
        {
          "duration": 0.122950749999994,
          "durationTicks": 150,
          "midi": 32,
          "name": "G#1",
          "ticks": 55050,
          "time": 45.12292525,
          "velocity": 0.3937007874015748
        },
        {
          "duration": 0.12295075000000111,
          "durationTicks": 150,
          "midi": 46,
          "name": "A#2",
          "ticks": 55200,
          "time": 45.245875999999996,
          "velocity": 0.6299212598425197
        },
        {
          "duration": 0.12295075000000111,
          "durationTicks": 150,
          "midi": 34,
          "name": "A#1",
          "ticks": 55200,
          "time": 45.245875999999996,
          "velocity": 0.6299212598425197
        },
        {
          "duration": 0.12295075000000111,
          "durationTicks": 150,
          "midi": 46,
          "name": "A#2",
          "ticks": 55350,
          "time": 45.36882675,
          "velocity": 0.3858267716535433
        },
        {
          "duration": 0.12295075000000111,
          "durationTicks": 150,
          "midi": 34,
          "name": "A#1",
          "ticks": 55350,
          "time": 45.36882675,
          "velocity": 0.3858267716535433
        },
        {
          "duration": 0.12295075000000111,
          "durationTicks": 150,
          "midi": 46,
          "name": "A#2",
          "ticks": 55500,
          "time": 45.4917775,
          "velocity": 0.6299212598425197
        },
        {
          "duration": 0.12295075000000111,
          "durationTicks": 150,
          "midi": 34,
          "name": "A#1",
          "ticks": 55500,
          "time": 45.4917775,
          "velocity": 0.6299212598425197
        },
        {
          "duration": 0.12295075000000111,
          "durationTicks": 150,
          "midi": 46,
          "name": "A#2",
          "ticks": 55650,
          "time": 45.61472825,
          "velocity": 0.3858267716535433
        },
        {
          "duration": 0.12295075000000111,
          "durationTicks": 150,
          "midi": 34,
          "name": "A#1",
          "ticks": 55650,
          "time": 45.61472825,
          "velocity": 0.3858267716535433
        },
        {
          "duration": 0.12295075000000111,
          "durationTicks": 150,
          "midi": 46,
          "name": "A#2",
          "ticks": 55800,
          "time": 45.737679,
          "velocity": 0.6299212598425197
        },
        {
          "duration": 0.12295075000000111,
          "durationTicks": 150,
          "midi": 34,
          "name": "A#1",
          "ticks": 55800,
          "time": 45.737679,
          "velocity": 0.6299212598425197
        },
        {
          "duration": 0.12295075000000111,
          "durationTicks": 150,
          "midi": 46,
          "name": "A#2",
          "ticks": 55950,
          "time": 45.86062975,
          "velocity": 0.3858267716535433
        },
        {
          "duration": 0.12295075000000111,
          "durationTicks": 150,
          "midi": 34,
          "name": "A#1",
          "ticks": 55950,
          "time": 45.86062975,
          "velocity": 0.3858267716535433
        },
        {
          "duration": 0.122950749999994,
          "durationTicks": 150,
          "midi": 46,
          "name": "A#2",
          "ticks": 56100,
          "time": 45.9835805,
          "velocity": 0.6299212598425197
        },
        {
          "duration": 0.122950749999994,
          "durationTicks": 150,
          "midi": 34,
          "name": "A#1",
          "ticks": 56100,
          "time": 45.9835805,
          "velocity": 0.6299212598425197
        },
        {
          "duration": 0.24590150000000222,
          "durationTicks": 300,
          "midi": 47,
          "name": "B2",
          "ticks": 56250,
          "time": 46.106531249999996,
          "velocity": 0.6299212598425197
        },
        {
          "duration": 0.24590150000000222,
          "durationTicks": 300,
          "midi": 35,
          "name": "B1",
          "ticks": 56250,
          "time": 46.106531249999996,
          "velocity": 0.6299212598425197
        },
        {
          "duration": 0.12295075000000111,
          "durationTicks": 150,
          "midi": 47,
          "name": "B2",
          "ticks": 56550,
          "time": 46.35243275,
          "velocity": 0.3858267716535433
        },
        {
          "duration": 0.12295075000000111,
          "durationTicks": 150,
          "midi": 35,
          "name": "B1",
          "ticks": 56550,
          "time": 46.35243275,
          "velocity": 0.3858267716535433
        },
        {
          "duration": 0.12295075000000111,
          "durationTicks": 150,
          "midi": 47,
          "name": "B2",
          "ticks": 56700,
          "time": 46.4753835,
          "velocity": 0.6377952755905512
        },
        {
          "duration": 0.12295075000000111,
          "durationTicks": 150,
          "midi": 35,
          "name": "B1",
          "ticks": 56700,
          "time": 46.4753835,
          "velocity": 0.6377952755905512
        },
        {
          "duration": 0.12295075000000111,
          "durationTicks": 150,
          "midi": 47,
          "name": "B2",
          "ticks": 56850,
          "time": 46.59833425,
          "velocity": 0.3858267716535433
        },
        {
          "duration": 0.12295075000000111,
          "durationTicks": 150,
          "midi": 35,
          "name": "B1",
          "ticks": 56850,
          "time": 46.59833425,
          "velocity": 0.3858267716535433
        },
        {
          "duration": 0.122950749999994,
          "durationTicks": 150,
          "midi": 47,
          "name": "B2",
          "ticks": 57000,
          "time": 46.721285,
          "velocity": 0.6377952755905512
        },
        {
          "duration": 0.122950749999994,
          "durationTicks": 150,
          "midi": 35,
          "name": "B1",
          "ticks": 57000,
          "time": 46.721285,
          "velocity": 0.6377952755905512
        },
        {
          "duration": 0.12295075000000111,
          "durationTicks": 150,
          "midi": 47,
          "name": "B2",
          "ticks": 57150,
          "time": 46.844235749999996,
          "velocity": 0.3858267716535433
        },
        {
          "duration": 0.12295075000000111,
          "durationTicks": 150,
          "midi": 35,
          "name": "B1",
          "ticks": 57150,
          "time": 46.844235749999996,
          "velocity": 0.3858267716535433
        },
        {
          "duration": 0.12295075000000111,
          "durationTicks": 150,
          "midi": 47,
          "name": "B2",
          "ticks": 57300,
          "time": 46.9671865,
          "velocity": 0.6377952755905512
        },
        {
          "duration": 0.12295075000000111,
          "durationTicks": 150,
          "midi": 35,
          "name": "B1",
          "ticks": 57300,
          "time": 46.9671865,
          "velocity": 0.6377952755905512
        },
        {
          "duration": 0.12295075000000111,
          "durationTicks": 150,
          "midi": 47,
          "name": "B2",
          "ticks": 57450,
          "time": 47.09013725,
          "velocity": 0.3937007874015748
        },
        {
          "duration": 0.12295075000000111,
          "durationTicks": 150,
          "midi": 35,
          "name": "B1",
          "ticks": 57450,
          "time": 47.09013725,
          "velocity": 0.3937007874015748
        },
        {
          "duration": 0.12295075000000111,
          "durationTicks": 150,
          "midi": 48,
          "name": "C3",
          "ticks": 57600,
          "time": 47.213088,
          "velocity": 0.6299212598425197
        },
        {
          "duration": 0.12295075000000111,
          "durationTicks": 150,
          "midi": 36,
          "name": "C2",
          "ticks": 57600,
          "time": 47.213088,
          "velocity": 0.6299212598425197
        },
        {
          "duration": 0.12295075000000111,
          "durationTicks": 150,
          "midi": 48,
          "name": "C3",
          "ticks": 57750,
          "time": 47.33603875,
          "velocity": 0.3858267716535433
        },
        {
          "duration": 0.12295075000000111,
          "durationTicks": 150,
          "midi": 36,
          "name": "C2",
          "ticks": 57750,
          "time": 47.33603875,
          "velocity": 0.3858267716535433
        },
        {
          "duration": 0.12295075000000111,
          "durationTicks": 150,
          "midi": 48,
          "name": "C3",
          "ticks": 57900,
          "time": 47.4589895,
          "velocity": 0.6299212598425197
        },
        {
          "duration": 0.12295075000000111,
          "durationTicks": 150,
          "midi": 36,
          "name": "C2",
          "ticks": 57900,
          "time": 47.4589895,
          "velocity": 0.6299212598425197
        },
        {
          "duration": 0.122950749999994,
          "durationTicks": 150,
          "midi": 48,
          "name": "C3",
          "ticks": 58050,
          "time": 47.58194025,
          "velocity": 0.3858267716535433
        },
        {
          "duration": 0.122950749999994,
          "durationTicks": 150,
          "midi": 36,
          "name": "C2",
          "ticks": 58050,
          "time": 47.58194025,
          "velocity": 0.3858267716535433
        },
        {
          "duration": 0.12295075000000111,
          "durationTicks": 150,
          "midi": 48,
          "name": "C3",
          "ticks": 58200,
          "time": 47.704890999999996,
          "velocity": 0.6299212598425197
        },
        {
          "duration": 0.12295075000000111,
          "durationTicks": 150,
          "midi": 36,
          "name": "C2",
          "ticks": 58200,
          "time": 47.704890999999996,
          "velocity": 0.6299212598425197
        },
        {
          "duration": 0.12295075000000111,
          "durationTicks": 150,
          "midi": 48,
          "name": "C3",
          "ticks": 58350,
          "time": 47.82784175,
          "velocity": 0.3858267716535433
        },
        {
          "duration": 0.12295075000000111,
          "durationTicks": 150,
          "midi": 36,
          "name": "C2",
          "ticks": 58350,
          "time": 47.82784175,
          "velocity": 0.3858267716535433
        },
        {
          "duration": 0.12295075000000111,
          "durationTicks": 150,
          "midi": 48,
          "name": "C3",
          "ticks": 58500,
          "time": 47.9507925,
          "velocity": 0.6299212598425197
        },
        {
          "duration": 0.12295075000000111,
          "durationTicks": 150,
          "midi": 36,
          "name": "C2",
          "ticks": 58500,
          "time": 47.9507925,
          "velocity": 0.6299212598425197
        },
        {
          "duration": 0.24590150000000222,
          "durationTicks": 300,
          "midi": 48,
          "name": "C3",
          "ticks": 58650,
          "time": 48.07374325,
          "velocity": 0.6299212598425197
        },
        {
          "duration": 0.24590150000000222,
          "durationTicks": 300,
          "midi": 36,
          "name": "C2",
          "ticks": 58650,
          "time": 48.07374325,
          "velocity": 0.6299212598425197
        },
        {
          "duration": 0.122950749999994,
          "durationTicks": 150,
          "midi": 48,
          "name": "C3",
          "ticks": 58950,
          "time": 48.31964475,
          "velocity": 0.3858267716535433
        },
        {
          "duration": 0.122950749999994,
          "durationTicks": 150,
          "midi": 36,
          "name": "C2",
          "ticks": 58950,
          "time": 48.31964475,
          "velocity": 0.3858267716535433
        },
        {
          "duration": 0.12295075000000111,
          "durationTicks": 150,
          "midi": 48,
          "name": "C3",
          "ticks": 59100,
          "time": 48.442595499999996,
          "velocity": 0.6377952755905512
        },
        {
          "duration": 0.12295075000000111,
          "durationTicks": 150,
          "midi": 36,
          "name": "C2",
          "ticks": 59100,
          "time": 48.442595499999996,
          "velocity": 0.6377952755905512
        },
        {
          "duration": 0.12295075000000111,
          "durationTicks": 150,
          "midi": 48,
          "name": "C3",
          "ticks": 59250,
          "time": 48.56554625,
          "velocity": 0.3858267716535433
        },
        {
          "duration": 0.12295075000000111,
          "durationTicks": 150,
          "midi": 36,
          "name": "C2",
          "ticks": 59250,
          "time": 48.56554625,
          "velocity": 0.3858267716535433
        },
        {
          "duration": 0.12295075000000111,
          "durationTicks": 150,
          "midi": 48,
          "name": "C3",
          "ticks": 59400,
          "time": 48.688497,
          "velocity": 0.6377952755905512
        },
        {
          "duration": 0.12295075000000111,
          "durationTicks": 150,
          "midi": 36,
          "name": "C2",
          "ticks": 59400,
          "time": 48.688497,
          "velocity": 0.6377952755905512
        },
        {
          "duration": 0.12295075000000111,
          "durationTicks": 150,
          "midi": 48,
          "name": "C3",
          "ticks": 59550,
          "time": 48.81144775,
          "velocity": 0.3858267716535433
        },
        {
          "duration": 0.12295075000000111,
          "durationTicks": 150,
          "midi": 36,
          "name": "C2",
          "ticks": 59550,
          "time": 48.81144775,
          "velocity": 0.3858267716535433
        },
        {
          "duration": 0.12295075000000111,
          "durationTicks": 150,
          "midi": 48,
          "name": "C3",
          "ticks": 59700,
          "time": 48.9343985,
          "velocity": 0.6377952755905512
        },
        {
          "duration": 0.12295075000000111,
          "durationTicks": 150,
          "midi": 36,
          "name": "C2",
          "ticks": 59700,
          "time": 48.9343985,
          "velocity": 0.6377952755905512
        },
        {
          "duration": 0.12295075000000111,
          "durationTicks": 150,
          "midi": 48,
          "name": "C3",
          "ticks": 59850,
          "time": 49.05734925,
          "velocity": 0.3937007874015748
        },
        {
          "duration": 0.12295075000000111,
          "durationTicks": 150,
          "midi": 36,
          "name": "C2",
          "ticks": 59850,
          "time": 49.05734925,
          "velocity": 0.3937007874015748
        },
        {
          "duration": 0.122950749999994,
          "durationTicks": 150,
          "midi": 48,
          "name": "C3",
          "ticks": 60000,
          "time": 49.1803,
          "velocity": 0.6299212598425197
        },
        {
          "duration": 0.122950749999994,
          "durationTicks": 150,
          "midi": 36,
          "name": "C2",
          "ticks": 60000,
          "time": 49.1803,
          "velocity": 0.6299212598425197
        },
        {
          "duration": 0.12295075000000111,
          "durationTicks": 150,
          "midi": 48,
          "name": "C3",
          "ticks": 60150,
          "time": 49.30325075,
          "velocity": 0.3858267716535433
        },
        {
          "duration": 0.12295075000000111,
          "durationTicks": 150,
          "midi": 36,
          "name": "C2",
          "ticks": 60150,
          "time": 49.30325075,
          "velocity": 0.3858267716535433
        },
        {
          "duration": 0.12295075000000111,
          "durationTicks": 150,
          "midi": 48,
          "name": "C3",
          "ticks": 60300,
          "time": 49.4262015,
          "velocity": 0.6299212598425197
        },
        {
          "duration": 0.12295075000000111,
          "durationTicks": 150,
          "midi": 36,
          "name": "C2",
          "ticks": 60300,
          "time": 49.4262015,
          "velocity": 0.6299212598425197
        },
        {
          "duration": 0.12295075000000111,
          "durationTicks": 150,
          "midi": 48,
          "name": "C3",
          "ticks": 60450,
          "time": 49.54915225,
          "velocity": 0.3858267716535433
        },
        {
          "duration": 0.12295075000000111,
          "durationTicks": 150,
          "midi": 36,
          "name": "C2",
          "ticks": 60450,
          "time": 49.54915225,
          "velocity": 0.3858267716535433
        },
        {
          "duration": 0.12295075000000111,
          "durationTicks": 150,
          "midi": 48,
          "name": "C3",
          "ticks": 60600,
          "time": 49.672103,
          "velocity": 0.6299212598425197
        },
        {
          "duration": 0.12295075000000111,
          "durationTicks": 150,
          "midi": 36,
          "name": "C2",
          "ticks": 60600,
          "time": 49.672103,
          "velocity": 0.6299212598425197
        },
        {
          "duration": 0.12295075000000111,
          "durationTicks": 150,
          "midi": 48,
          "name": "C3",
          "ticks": 60750,
          "time": 49.79505375,
          "velocity": 0.3858267716535433
        },
        {
          "duration": 0.12295075000000111,
          "durationTicks": 150,
          "midi": 36,
          "name": "C2",
          "ticks": 60750,
          "time": 49.79505375,
          "velocity": 0.3858267716535433
        },
        {
          "duration": 0.122950749999994,
          "durationTicks": 150,
          "midi": 48,
          "name": "C3",
          "ticks": 60900,
          "time": 49.9180045,
          "velocity": 0.6299212598425197
        },
        {
          "duration": 0.122950749999994,
          "durationTicks": 150,
          "midi": 36,
          "name": "C2",
          "ticks": 60900,
          "time": 49.9180045,
          "velocity": 0.6299212598425197
        },
        {
          "duration": 0.24590150000000222,
          "durationTicks": 300,
          "midi": 48,
          "name": "C3",
          "ticks": 61050,
          "time": 50.040955249999996,
          "velocity": 0.6299212598425197
        },
        {
          "duration": 0.24590150000000222,
          "durationTicks": 300,
          "midi": 36,
          "name": "C2",
          "ticks": 61050,
          "time": 50.040955249999996,
          "velocity": 0.6299212598425197
        },
        {
          "duration": 0.12295075000000111,
          "durationTicks": 150,
          "midi": 48,
          "name": "C3",
          "ticks": 61350,
          "time": 50.28685675,
          "velocity": 0.3858267716535433
        },
        {
          "duration": 0.12295075000000111,
          "durationTicks": 150,
          "midi": 36,
          "name": "C2",
          "ticks": 61350,
          "time": 50.28685675,
          "velocity": 0.3858267716535433
        },
        {
          "duration": 0.12295075000000111,
          "durationTicks": 150,
          "midi": 48,
          "name": "C3",
          "ticks": 61500,
          "time": 50.4098075,
          "velocity": 0.6377952755905512
        },
        {
          "duration": 0.12295075000000111,
          "durationTicks": 150,
          "midi": 36,
          "name": "C2",
          "ticks": 61500,
          "time": 50.4098075,
          "velocity": 0.6377952755905512
        },
        {
          "duration": 0.12295075000000111,
          "durationTicks": 150,
          "midi": 48,
          "name": "C3",
          "ticks": 61650,
          "time": 50.53275825,
          "velocity": 0.3858267716535433
        },
        {
          "duration": 0.12295075000000111,
          "durationTicks": 150,
          "midi": 36,
          "name": "C2",
          "ticks": 61650,
          "time": 50.53275825,
          "velocity": 0.3858267716535433
        },
        {
          "duration": 0.122950749999994,
          "durationTicks": 150,
          "midi": 48,
          "name": "C3",
          "ticks": 61800,
          "time": 50.655709,
          "velocity": 0.6377952755905512
        },
        {
          "duration": 0.122950749999994,
          "durationTicks": 150,
          "midi": 36,
          "name": "C2",
          "ticks": 61800,
          "time": 50.655709,
          "velocity": 0.6377952755905512
        },
        {
          "duration": 0.12295075000000111,
          "durationTicks": 150,
          "midi": 48,
          "name": "C3",
          "ticks": 61950,
          "time": 50.778659749999996,
          "velocity": 0.3858267716535433
        },
        {
          "duration": 0.12295075000000111,
          "durationTicks": 150,
          "midi": 36,
          "name": "C2",
          "ticks": 61950,
          "time": 50.778659749999996,
          "velocity": 0.3858267716535433
        },
        {
          "duration": 0.12295075000000111,
          "durationTicks": 150,
          "midi": 48,
          "name": "C3",
          "ticks": 62100,
          "time": 50.9016105,
          "velocity": 0.6377952755905512
        },
        {
          "duration": 0.12295075000000111,
          "durationTicks": 150,
          "midi": 36,
          "name": "C2",
          "ticks": 62100,
          "time": 50.9016105,
          "velocity": 0.6377952755905512
        },
        {
          "duration": 0.12295075000000111,
          "durationTicks": 150,
          "midi": 48,
          "name": "C3",
          "ticks": 62250,
          "time": 51.02456125,
          "velocity": 0.3937007874015748
        },
        {
          "duration": 0.12295075000000111,
          "durationTicks": 150,
          "midi": 36,
          "name": "C2",
          "ticks": 62250,
          "time": 51.02456125,
          "velocity": 0.3937007874015748
        },
        {
          "duration": 0.12295075000000111,
          "durationTicks": 150,
          "midi": 44,
          "name": "G#2",
          "ticks": 62400,
          "time": 51.147512,
          "velocity": 0.6299212598425197
        },
        {
          "duration": 0.12295075000000111,
          "durationTicks": 150,
          "midi": 32,
          "name": "G#1",
          "ticks": 62400,
          "time": 51.147512,
          "velocity": 0.6299212598425197
        },
        {
          "duration": 0.12295075000000111,
          "durationTicks": 150,
          "midi": 44,
          "name": "G#2",
          "ticks": 62550,
          "time": 51.27046275,
          "velocity": 0.3858267716535433
        },
        {
          "duration": 0.12295075000000111,
          "durationTicks": 150,
          "midi": 32,
          "name": "G#1",
          "ticks": 62550,
          "time": 51.27046275,
          "velocity": 0.3858267716535433
        },
        {
          "duration": 0.12295075000000111,
          "durationTicks": 150,
          "midi": 44,
          "name": "G#2",
          "ticks": 62700,
          "time": 51.3934135,
          "velocity": 0.6299212598425197
        },
        {
          "duration": 0.12295075000000111,
          "durationTicks": 150,
          "midi": 32,
          "name": "G#1",
          "ticks": 62700,
          "time": 51.3934135,
          "velocity": 0.6299212598425197
        },
        {
          "duration": 0.122950749999994,
          "durationTicks": 150,
          "midi": 44,
          "name": "G#2",
          "ticks": 62850,
          "time": 51.51636425,
          "velocity": 0.3858267716535433
        },
        {
          "duration": 0.122950749999994,
          "durationTicks": 150,
          "midi": 32,
          "name": "G#1",
          "ticks": 62850,
          "time": 51.51636425,
          "velocity": 0.3858267716535433
        },
        {
          "duration": 0.12295075000000111,
          "durationTicks": 150,
          "midi": 44,
          "name": "G#2",
          "ticks": 63000,
          "time": 51.639314999999996,
          "velocity": 0.6299212598425197
        },
        {
          "duration": 0.12295075000000111,
          "durationTicks": 150,
          "midi": 32,
          "name": "G#1",
          "ticks": 63000,
          "time": 51.639314999999996,
          "velocity": 0.6299212598425197
        },
        {
          "duration": 0.12295075000000111,
          "durationTicks": 150,
          "midi": 44,
          "name": "G#2",
          "ticks": 63150,
          "time": 51.76226575,
          "velocity": 0.3858267716535433
        },
        {
          "duration": 0.12295075000000111,
          "durationTicks": 150,
          "midi": 32,
          "name": "G#1",
          "ticks": 63150,
          "time": 51.76226575,
          "velocity": 0.3858267716535433
        },
        {
          "duration": 0.12295075000000111,
          "durationTicks": 150,
          "midi": 44,
          "name": "G#2",
          "ticks": 63300,
          "time": 51.8852165,
          "velocity": 0.6299212598425197
        },
        {
          "duration": 0.12295075000000111,
          "durationTicks": 150,
          "midi": 32,
          "name": "G#1",
          "ticks": 63300,
          "time": 51.8852165,
          "velocity": 0.6299212598425197
        },
        {
          "duration": 0.24590150000000222,
          "durationTicks": 300,
          "midi": 44,
          "name": "G#2",
          "ticks": 63450,
          "time": 52.00816725,
          "velocity": 0.6299212598425197
        },
        {
          "duration": 0.24590150000000222,
          "durationTicks": 300,
          "midi": 32,
          "name": "G#1",
          "ticks": 63450,
          "time": 52.00816725,
          "velocity": 0.6299212598425197
        },
        {
          "duration": 0.122950749999994,
          "durationTicks": 150,
          "midi": 44,
          "name": "G#2",
          "ticks": 63750,
          "time": 52.25406875,
          "velocity": 0.3858267716535433
        },
        {
          "duration": 0.122950749999994,
          "durationTicks": 150,
          "midi": 32,
          "name": "G#1",
          "ticks": 63750,
          "time": 52.25406875,
          "velocity": 0.3858267716535433
        },
        {
          "duration": 0.12295075000000111,
          "durationTicks": 150,
          "midi": 44,
          "name": "G#2",
          "ticks": 63900,
          "time": 52.377019499999996,
          "velocity": 0.6377952755905512
        },
        {
          "duration": 0.12295075000000111,
          "durationTicks": 150,
          "midi": 32,
          "name": "G#1",
          "ticks": 63900,
          "time": 52.377019499999996,
          "velocity": 0.6377952755905512
        },
        {
          "duration": 0.12295075000000111,
          "durationTicks": 150,
          "midi": 44,
          "name": "G#2",
          "ticks": 64050,
          "time": 52.49997025,
          "velocity": 0.3858267716535433
        },
        {
          "duration": 0.12295075000000111,
          "durationTicks": 150,
          "midi": 32,
          "name": "G#1",
          "ticks": 64050,
          "time": 52.49997025,
          "velocity": 0.3858267716535433
        },
        {
          "duration": 0.12295075000000111,
          "durationTicks": 150,
          "midi": 44,
          "name": "G#2",
          "ticks": 64200,
          "time": 52.622921,
          "velocity": 0.6377952755905512
        },
        {
          "duration": 0.12295075000000111,
          "durationTicks": 150,
          "midi": 32,
          "name": "G#1",
          "ticks": 64200,
          "time": 52.622921,
          "velocity": 0.6377952755905512
        },
        {
          "duration": 0.12295075000000111,
          "durationTicks": 150,
          "midi": 44,
          "name": "G#2",
          "ticks": 64350,
          "time": 52.74587175,
          "velocity": 0.3858267716535433
        },
        {
          "duration": 0.12295075000000111,
          "durationTicks": 150,
          "midi": 32,
          "name": "G#1",
          "ticks": 64350,
          "time": 52.74587175,
          "velocity": 0.3858267716535433
        },
        {
          "duration": 0.12295075000000111,
          "durationTicks": 150,
          "midi": 44,
          "name": "G#2",
          "ticks": 64500,
          "time": 52.8688225,
          "velocity": 0.6377952755905512
        },
        {
          "duration": 0.12295075000000111,
          "durationTicks": 150,
          "midi": 32,
          "name": "G#1",
          "ticks": 64500,
          "time": 52.8688225,
          "velocity": 0.6377952755905512
        },
        {
          "duration": 0.122950749999994,
          "durationTicks": 150,
          "midi": 44,
          "name": "G#2",
          "ticks": 64650,
          "time": 52.99177325,
          "velocity": 0.3937007874015748
        },
        {
          "duration": 0.122950749999994,
          "durationTicks": 150,
          "midi": 32,
          "name": "G#1",
          "ticks": 64650,
          "time": 52.99177325,
          "velocity": 0.3937007874015748
        },
        {
          "duration": 0.12295075000000111,
          "durationTicks": 150,
          "midi": 46,
          "name": "A#2",
          "ticks": 64800,
          "time": 53.114723999999995,
          "velocity": 0.6299212598425197
        },
        {
          "duration": 0.12295075000000111,
          "durationTicks": 150,
          "midi": 34,
          "name": "A#1",
          "ticks": 64800,
          "time": 53.114723999999995,
          "velocity": 0.6299212598425197
        },
        {
          "duration": 0.12295075000000111,
          "durationTicks": 150,
          "midi": 46,
          "name": "A#2",
          "ticks": 64950,
          "time": 53.23767475,
          "velocity": 0.3858267716535433
        },
        {
          "duration": 0.12295075000000111,
          "durationTicks": 150,
          "midi": 34,
          "name": "A#1",
          "ticks": 64950,
          "time": 53.23767475,
          "velocity": 0.3858267716535433
        },
        {
          "duration": 0.12295075000000111,
          "durationTicks": 150,
          "midi": 46,
          "name": "A#2",
          "ticks": 65100,
          "time": 53.3606255,
          "velocity": 0.6299212598425197
        },
        {
          "duration": 0.12295075000000111,
          "durationTicks": 150,
          "midi": 34,
          "name": "A#1",
          "ticks": 65100,
          "time": 53.3606255,
          "velocity": 0.6299212598425197
        },
        {
          "duration": 0.12295075000000111,
          "durationTicks": 150,
          "midi": 46,
          "name": "A#2",
          "ticks": 65250,
          "time": 53.48357625,
          "velocity": 0.3858267716535433
        },
        {
          "duration": 0.12295075000000111,
          "durationTicks": 150,
          "midi": 34,
          "name": "A#1",
          "ticks": 65250,
          "time": 53.48357625,
          "velocity": 0.3858267716535433
        },
        {
          "duration": 0.12295075000000111,
          "durationTicks": 150,
          "midi": 46,
          "name": "A#2",
          "ticks": 65400,
          "time": 53.606527,
          "velocity": 0.6299212598425197
        },
        {
          "duration": 0.12295075000000111,
          "durationTicks": 150,
          "midi": 34,
          "name": "A#1",
          "ticks": 65400,
          "time": 53.606527,
          "velocity": 0.6299212598425197
        },
        {
          "duration": 0.12295075000000111,
          "durationTicks": 150,
          "midi": 46,
          "name": "A#2",
          "ticks": 65550,
          "time": 53.72947775,
          "velocity": 0.3858267716535433
        },
        {
          "duration": 0.12295075000000111,
          "durationTicks": 150,
          "midi": 34,
          "name": "A#1",
          "ticks": 65550,
          "time": 53.72947775,
          "velocity": 0.3858267716535433
        },
        {
          "duration": 0.122950749999994,
          "durationTicks": 150,
          "midi": 46,
          "name": "A#2",
          "ticks": 65700,
          "time": 53.8524285,
          "velocity": 0.6299212598425197
        },
        {
          "duration": 0.122950749999994,
          "durationTicks": 150,
          "midi": 34,
          "name": "A#1",
          "ticks": 65700,
          "time": 53.8524285,
          "velocity": 0.6299212598425197
        },
        {
          "duration": 0.24590150000000222,
          "durationTicks": 300,
          "midi": 47,
          "name": "B2",
          "ticks": 65850,
          "time": 53.975379249999996,
          "velocity": 0.6299212598425197
        },
        {
          "duration": 0.24590150000000222,
          "durationTicks": 300,
          "midi": 35,
          "name": "B1",
          "ticks": 65850,
          "time": 53.975379249999996,
          "velocity": 0.6299212598425197
        },
        {
          "duration": 0.12295075000000111,
          "durationTicks": 150,
          "midi": 47,
          "name": "B2",
          "ticks": 66150,
          "time": 54.22128075,
          "velocity": 0.3858267716535433
        },
        {
          "duration": 0.12295075000000111,
          "durationTicks": 150,
          "midi": 35,
          "name": "B1",
          "ticks": 66150,
          "time": 54.22128075,
          "velocity": 0.3858267716535433
        },
        {
          "duration": 0.12295075000000111,
          "durationTicks": 150,
          "midi": 47,
          "name": "B2",
          "ticks": 66300,
          "time": 54.3442315,
          "velocity": 0.6377952755905512
        },
        {
          "duration": 0.12295075000000111,
          "durationTicks": 150,
          "midi": 35,
          "name": "B1",
          "ticks": 66300,
          "time": 54.3442315,
          "velocity": 0.6377952755905512
        },
        {
          "duration": 0.12295075000000111,
          "durationTicks": 150,
          "midi": 47,
          "name": "B2",
          "ticks": 66450,
          "time": 54.46718225,
          "velocity": 0.3858267716535433
        },
        {
          "duration": 0.12295075000000111,
          "durationTicks": 150,
          "midi": 35,
          "name": "B1",
          "ticks": 66450,
          "time": 54.46718225,
          "velocity": 0.3858267716535433
        },
        {
          "duration": 0.122950749999994,
          "durationTicks": 150,
          "midi": 47,
          "name": "B2",
          "ticks": 66600,
          "time": 54.590133,
          "velocity": 0.6377952755905512
        },
        {
          "duration": 0.122950749999994,
          "durationTicks": 150,
          "midi": 35,
          "name": "B1",
          "ticks": 66600,
          "time": 54.590133,
          "velocity": 0.6377952755905512
        },
        {
          "duration": 0.12295075000000111,
          "durationTicks": 150,
          "midi": 47,
          "name": "B2",
          "ticks": 66750,
          "time": 54.713083749999996,
          "velocity": 0.3858267716535433
        },
        {
          "duration": 0.12295075000000111,
          "durationTicks": 150,
          "midi": 35,
          "name": "B1",
          "ticks": 66750,
          "time": 54.713083749999996,
          "velocity": 0.3858267716535433
        },
        {
          "duration": 0.12295075000000111,
          "durationTicks": 150,
          "midi": 47,
          "name": "B2",
          "ticks": 66900,
          "time": 54.8360345,
          "velocity": 0.6377952755905512
        },
        {
          "duration": 0.12295075000000111,
          "durationTicks": 150,
          "midi": 35,
          "name": "B1",
          "ticks": 66900,
          "time": 54.8360345,
          "velocity": 0.6377952755905512
        },
        {
          "duration": 0.12295075000000111,
          "durationTicks": 150,
          "midi": 47,
          "name": "B2",
          "ticks": 67050,
          "time": 54.95898525,
          "velocity": 0.3937007874015748
        },
        {
          "duration": 0.12295075000000111,
          "durationTicks": 150,
          "midi": 35,
          "name": "B1",
          "ticks": 67050,
          "time": 54.95898525,
          "velocity": 0.3937007874015748
        },
        {
          "duration": 0.12295075000000111,
          "durationTicks": 150,
          "midi": 48,
          "name": "C3",
          "ticks": 67200,
          "time": 55.081936,
          "velocity": 0.6299212598425197
        },
        {
          "duration": 0.12295075000000111,
          "durationTicks": 150,
          "midi": 36,
          "name": "C2",
          "ticks": 67200,
          "time": 55.081936,
          "velocity": 0.6299212598425197
        },
        {
          "duration": 0.12295075000000111,
          "durationTicks": 150,
          "midi": 48,
          "name": "C3",
          "ticks": 67350,
          "time": 55.20488675,
          "velocity": 0.3858267716535433
        },
        {
          "duration": 0.12295075000000111,
          "durationTicks": 150,
          "midi": 36,
          "name": "C2",
          "ticks": 67350,
          "time": 55.20488675,
          "velocity": 0.3858267716535433
        },
        {
          "duration": 0.12295075000000111,
          "durationTicks": 150,
          "midi": 48,
          "name": "C3",
          "ticks": 67500,
          "time": 55.3278375,
          "velocity": 0.6299212598425197
        },
        {
          "duration": 0.12295075000000111,
          "durationTicks": 150,
          "midi": 36,
          "name": "C2",
          "ticks": 67500,
          "time": 55.3278375,
          "velocity": 0.6299212598425197
        },
        {
          "duration": 0.122950749999994,
          "durationTicks": 150,
          "midi": 48,
          "name": "C3",
          "ticks": 67650,
          "time": 55.45078825,
          "velocity": 0.3858267716535433
        },
        {
          "duration": 0.122950749999994,
          "durationTicks": 150,
          "midi": 36,
          "name": "C2",
          "ticks": 67650,
          "time": 55.45078825,
          "velocity": 0.3858267716535433
        },
        {
          "duration": 0.12295075000000111,
          "durationTicks": 150,
          "midi": 48,
          "name": "C3",
          "ticks": 67800,
          "time": 55.573738999999996,
          "velocity": 0.6299212598425197
        },
        {
          "duration": 0.12295075000000111,
          "durationTicks": 150,
          "midi": 36,
          "name": "C2",
          "ticks": 67800,
          "time": 55.573738999999996,
          "velocity": 0.6299212598425197
        },
        {
          "duration": 0.12295075000000111,
          "durationTicks": 150,
          "midi": 48,
          "name": "C3",
          "ticks": 67950,
          "time": 55.69668975,
          "velocity": 0.3858267716535433
        },
        {
          "duration": 0.12295075000000111,
          "durationTicks": 150,
          "midi": 36,
          "name": "C2",
          "ticks": 67950,
          "time": 55.69668975,
          "velocity": 0.3858267716535433
        },
        {
          "duration": 0.12295075000000111,
          "durationTicks": 150,
          "midi": 48,
          "name": "C3",
          "ticks": 68100,
          "time": 55.8196405,
          "velocity": 0.6299212598425197
        },
        {
          "duration": 0.12295075000000111,
          "durationTicks": 150,
          "midi": 36,
          "name": "C2",
          "ticks": 68100,
          "time": 55.8196405,
          "velocity": 0.6299212598425197
        },
        {
          "duration": 0.24590150000000222,
          "durationTicks": 300,
          "midi": 48,
          "name": "C3",
          "ticks": 68250,
          "time": 55.94259125,
          "velocity": 0.6299212598425197
        },
        {
          "duration": 0.24590150000000222,
          "durationTicks": 300,
          "midi": 36,
          "name": "C2",
          "ticks": 68250,
          "time": 55.94259125,
          "velocity": 0.6299212598425197
        },
        {
          "duration": 0.122950749999994,
          "durationTicks": 150,
          "midi": 48,
          "name": "C3",
          "ticks": 68550,
          "time": 56.18849275,
          "velocity": 0.3858267716535433
        },
        {
          "duration": 0.122950749999994,
          "durationTicks": 150,
          "midi": 36,
          "name": "C2",
          "ticks": 68550,
          "time": 56.18849275,
          "velocity": 0.3858267716535433
        },
        {
          "duration": 0.12295075000000111,
          "durationTicks": 150,
          "midi": 48,
          "name": "C3",
          "ticks": 68700,
          "time": 56.311443499999996,
          "velocity": 0.6377952755905512
        },
        {
          "duration": 0.12295075000000111,
          "durationTicks": 150,
          "midi": 36,
          "name": "C2",
          "ticks": 68700,
          "time": 56.311443499999996,
          "velocity": 0.6377952755905512
        },
        {
          "duration": 0.12295075000000111,
          "durationTicks": 150,
          "midi": 48,
          "name": "C3",
          "ticks": 68850,
          "time": 56.43439425,
          "velocity": 0.3858267716535433
        },
        {
          "duration": 0.12295075000000111,
          "durationTicks": 150,
          "midi": 36,
          "name": "C2",
          "ticks": 68850,
          "time": 56.43439425,
          "velocity": 0.3858267716535433
        },
        {
          "duration": 0.12295075000000111,
          "durationTicks": 150,
          "midi": 48,
          "name": "C3",
          "ticks": 69000,
          "time": 56.557345,
          "velocity": 0.6377952755905512
        },
        {
          "duration": 0.12295075000000111,
          "durationTicks": 150,
          "midi": 36,
          "name": "C2",
          "ticks": 69000,
          "time": 56.557345,
          "velocity": 0.6377952755905512
        },
        {
          "duration": 0.12295075000000111,
          "durationTicks": 150,
          "midi": 48,
          "name": "C3",
          "ticks": 69150,
          "time": 56.68029575,
          "velocity": 0.3858267716535433
        },
        {
          "duration": 0.12295075000000111,
          "durationTicks": 150,
          "midi": 36,
          "name": "C2",
          "ticks": 69150,
          "time": 56.68029575,
          "velocity": 0.3858267716535433
        },
        {
          "duration": 0.12295075000000111,
          "durationTicks": 150,
          "midi": 48,
          "name": "C3",
          "ticks": 69300,
          "time": 56.8032465,
          "velocity": 0.6377952755905512
        },
        {
          "duration": 0.12295075000000111,
          "durationTicks": 150,
          "midi": 36,
          "name": "C2",
          "ticks": 69300,
          "time": 56.8032465,
          "velocity": 0.6377952755905512
        },
        {
          "duration": 0.12295075000000111,
          "durationTicks": 150,
          "midi": 48,
          "name": "C3",
          "ticks": 69450,
          "time": 56.92619725,
          "velocity": 0.3937007874015748
        },
        {
          "duration": 0.12295075000000111,
          "durationTicks": 150,
          "midi": 36,
          "name": "C2",
          "ticks": 69450,
          "time": 56.92619725,
          "velocity": 0.3937007874015748
        },
        {
          "duration": 0.122950749999994,
          "durationTicks": 150,
          "midi": 48,
          "name": "C3",
          "ticks": 69600,
          "time": 57.049148,
          "velocity": 0.6299212598425197
        },
        {
          "duration": 0.122950749999994,
          "durationTicks": 150,
          "midi": 36,
          "name": "C2",
          "ticks": 69600,
          "time": 57.049148,
          "velocity": 0.6299212598425197
        },
        {
          "duration": 0.12295075000000111,
          "durationTicks": 150,
          "midi": 48,
          "name": "C3",
          "ticks": 69750,
          "time": 57.172098749999996,
          "velocity": 0.3858267716535433
        },
        {
          "duration": 0.12295075000000111,
          "durationTicks": 150,
          "midi": 36,
          "name": "C2",
          "ticks": 69750,
          "time": 57.172098749999996,
          "velocity": 0.3858267716535433
        },
        {
          "duration": 0.12295075000000111,
          "durationTicks": 150,
          "midi": 48,
          "name": "C3",
          "ticks": 69900,
          "time": 57.2950495,
          "velocity": 0.6299212598425197
        },
        {
          "duration": 0.12295075000000111,
          "durationTicks": 150,
          "midi": 36,
          "name": "C2",
          "ticks": 69900,
          "time": 57.2950495,
          "velocity": 0.6299212598425197
        },
        {
          "duration": 0.12295075000000111,
          "durationTicks": 150,
          "midi": 48,
          "name": "C3",
          "ticks": 70050,
          "time": 57.41800025,
          "velocity": 0.3858267716535433
        },
        {
          "duration": 0.12295075000000111,
          "durationTicks": 150,
          "midi": 36,
          "name": "C2",
          "ticks": 70050,
          "time": 57.41800025,
          "velocity": 0.3858267716535433
        },
        {
          "duration": 0.12295075000000111,
          "durationTicks": 150,
          "midi": 48,
          "name": "C3",
          "ticks": 70200,
          "time": 57.540951,
          "velocity": 0.6299212598425197
        },
        {
          "duration": 0.12295075000000111,
          "durationTicks": 150,
          "midi": 36,
          "name": "C2",
          "ticks": 70200,
          "time": 57.540951,
          "velocity": 0.6299212598425197
        },
        {
          "duration": 0.12295075000000111,
          "durationTicks": 150,
          "midi": 48,
          "name": "C3",
          "ticks": 70350,
          "time": 57.66390175,
          "velocity": 0.3858267716535433
        },
        {
          "duration": 0.12295075000000111,
          "durationTicks": 150,
          "midi": 36,
          "name": "C2",
          "ticks": 70350,
          "time": 57.66390175,
          "velocity": 0.3858267716535433
        },
        {
          "duration": 0.122950749999994,
          "durationTicks": 150,
          "midi": 48,
          "name": "C3",
          "ticks": 70500,
          "time": 57.7868525,
          "velocity": 0.6299212598425197
        },
        {
          "duration": 0.122950749999994,
          "durationTicks": 150,
          "midi": 36,
          "name": "C2",
          "ticks": 70500,
          "time": 57.7868525,
          "velocity": 0.6299212598425197
        },
        {
          "duration": 0.24590150000000222,
          "durationTicks": 300,
          "midi": 48,
          "name": "C3",
          "ticks": 70650,
          "time": 57.909803249999996,
          "velocity": 0.6299212598425197
        },
        {
          "duration": 0.24590150000000222,
          "durationTicks": 300,
          "midi": 36,
          "name": "C2",
          "ticks": 70650,
          "time": 57.909803249999996,
          "velocity": 0.6299212598425197
        },
        {
          "duration": 0.12295075000000111,
          "durationTicks": 150,
          "midi": 48,
          "name": "C3",
          "ticks": 70950,
          "time": 58.15570475,
          "velocity": 0.3858267716535433
        },
        {
          "duration": 0.12295075000000111,
          "durationTicks": 150,
          "midi": 36,
          "name": "C2",
          "ticks": 70950,
          "time": 58.15570475,
          "velocity": 0.3858267716535433
        },
        {
          "duration": 0.12295075000000111,
          "durationTicks": 150,
          "midi": 48,
          "name": "C3",
          "ticks": 71100,
          "time": 58.2786555,
          "velocity": 0.6377952755905512
        },
        {
          "duration": 0.12295075000000111,
          "durationTicks": 150,
          "midi": 36,
          "name": "C2",
          "ticks": 71100,
          "time": 58.2786555,
          "velocity": 0.6377952755905512
        },
        {
          "duration": 0.12295075000000111,
          "durationTicks": 150,
          "midi": 48,
          "name": "C3",
          "ticks": 71250,
          "time": 58.40160625,
          "velocity": 0.3858267716535433
        },
        {
          "duration": 0.12295075000000111,
          "durationTicks": 150,
          "midi": 36,
          "name": "C2",
          "ticks": 71250,
          "time": 58.40160625,
          "velocity": 0.3858267716535433
        },
        {
          "duration": 0.122950749999994,
          "durationTicks": 150,
          "midi": 48,
          "name": "C3",
          "ticks": 71400,
          "time": 58.524557,
          "velocity": 0.6377952755905512
        },
        {
          "duration": 0.122950749999994,
          "durationTicks": 150,
          "midi": 36,
          "name": "C2",
          "ticks": 71400,
          "time": 58.524557,
          "velocity": 0.6377952755905512
        },
        {
          "duration": 0.12295075000000111,
          "durationTicks": 150,
          "midi": 48,
          "name": "C3",
          "ticks": 71550,
          "time": 58.647507749999995,
          "velocity": 0.3858267716535433
        },
        {
          "duration": 0.12295075000000111,
          "durationTicks": 150,
          "midi": 36,
          "name": "C2",
          "ticks": 71550,
          "time": 58.647507749999995,
          "velocity": 0.3858267716535433
        },
        {
          "duration": 0.12295075000000111,
          "durationTicks": 150,
          "midi": 48,
          "name": "C3",
          "ticks": 71700,
          "time": 58.7704585,
          "velocity": 0.6377952755905512
        },
        {
          "duration": 0.12295075000000111,
          "durationTicks": 150,
          "midi": 36,
          "name": "C2",
          "ticks": 71700,
          "time": 58.7704585,
          "velocity": 0.6377952755905512
        },
        {
          "duration": 0.12295075000000111,
          "durationTicks": 150,
          "midi": 48,
          "name": "C3",
          "ticks": 71850,
          "time": 58.89340925,
          "velocity": 0.3937007874015748
        },
        {
          "duration": 0.12295075000000111,
          "durationTicks": 150,
          "midi": 36,
          "name": "C2",
          "ticks": 71850,
          "time": 58.89340925,
          "velocity": 0.3937007874015748
        },
        {
          "duration": 0.12295075000000111,
          "durationTicks": 150,
          "midi": 44,
          "name": "G#2",
          "ticks": 72000,
          "time": 59.01636,
          "velocity": 0.6299212598425197
        },
        {
          "duration": 0.12295075000000111,
          "durationTicks": 150,
          "midi": 32,
          "name": "G#1",
          "ticks": 72000,
          "time": 59.01636,
          "velocity": 0.6299212598425197
        },
        {
          "duration": 0.12295075000000111,
          "durationTicks": 150,
          "midi": 44,
          "name": "G#2",
          "ticks": 72150,
          "time": 59.13931075,
          "velocity": 0.3858267716535433
        },
        {
          "duration": 0.12295075000000111,
          "durationTicks": 150,
          "midi": 32,
          "name": "G#1",
          "ticks": 72150,
          "time": 59.13931075,
          "velocity": 0.3858267716535433
        },
        {
          "duration": 0.12295075000000111,
          "durationTicks": 150,
          "midi": 44,
          "name": "G#2",
          "ticks": 72300,
          "time": 59.2622615,
          "velocity": 0.6299212598425197
        },
        {
          "duration": 0.12295075000000111,
          "durationTicks": 150,
          "midi": 32,
          "name": "G#1",
          "ticks": 72300,
          "time": 59.2622615,
          "velocity": 0.6299212598425197
        },
        {
          "duration": 0.122950749999994,
          "durationTicks": 150,
          "midi": 44,
          "name": "G#2",
          "ticks": 72450,
          "time": 59.38521225,
          "velocity": 0.3858267716535433
        },
        {
          "duration": 0.122950749999994,
          "durationTicks": 150,
          "midi": 32,
          "name": "G#1",
          "ticks": 72450,
          "time": 59.38521225,
          "velocity": 0.3858267716535433
        },
        {
          "duration": 0.12295075000000111,
          "durationTicks": 150,
          "midi": 44,
          "name": "G#2",
          "ticks": 72600,
          "time": 59.508162999999996,
          "velocity": 0.6299212598425197
        },
        {
          "duration": 0.12295075000000111,
          "durationTicks": 150,
          "midi": 32,
          "name": "G#1",
          "ticks": 72600,
          "time": 59.508162999999996,
          "velocity": 0.6299212598425197
        },
        {
          "duration": 0.12295075000000111,
          "durationTicks": 150,
          "midi": 44,
          "name": "G#2",
          "ticks": 72750,
          "time": 59.63111375,
          "velocity": 0.3858267716535433
        },
        {
          "duration": 0.12295075000000111,
          "durationTicks": 150,
          "midi": 32,
          "name": "G#1",
          "ticks": 72750,
          "time": 59.63111375,
          "velocity": 0.3858267716535433
        },
        {
          "duration": 0.12295075000000111,
          "durationTicks": 150,
          "midi": 44,
          "name": "G#2",
          "ticks": 72900,
          "time": 59.7540645,
          "velocity": 0.6299212598425197
        },
        {
          "duration": 0.12295075000000111,
          "durationTicks": 150,
          "midi": 32,
          "name": "G#1",
          "ticks": 72900,
          "time": 59.7540645,
          "velocity": 0.6299212598425197
        },
        {
          "duration": 0.24590150000000222,
          "durationTicks": 300,
          "midi": 44,
          "name": "G#2",
          "ticks": 73050,
          "time": 59.87701525,
          "velocity": 0.6299212598425197
        },
        {
          "duration": 0.24590150000000222,
          "durationTicks": 300,
          "midi": 32,
          "name": "G#1",
          "ticks": 73050,
          "time": 59.87701525,
          "velocity": 0.6299212598425197
        },
        {
          "duration": 0.122950749999994,
          "durationTicks": 150,
          "midi": 44,
          "name": "G#2",
          "ticks": 73350,
          "time": 60.12291675,
          "velocity": 0.3858267716535433
        },
        {
          "duration": 0.122950749999994,
          "durationTicks": 150,
          "midi": 32,
          "name": "G#1",
          "ticks": 73350,
          "time": 60.12291675,
          "velocity": 0.3858267716535433
        },
        {
          "duration": 0.12295075000000111,
          "durationTicks": 150,
          "midi": 44,
          "name": "G#2",
          "ticks": 73500,
          "time": 60.245867499999996,
          "velocity": 0.6377952755905512
        },
        {
          "duration": 0.12295075000000111,
          "durationTicks": 150,
          "midi": 32,
          "name": "G#1",
          "ticks": 73500,
          "time": 60.245867499999996,
          "velocity": 0.6377952755905512
        },
        {
          "duration": 0.12295075000000111,
          "durationTicks": 150,
          "midi": 44,
          "name": "G#2",
          "ticks": 73650,
          "time": 60.36881825,
          "velocity": 0.3858267716535433
        },
        {
          "duration": 0.12295075000000111,
          "durationTicks": 150,
          "midi": 32,
          "name": "G#1",
          "ticks": 73650,
          "time": 60.36881825,
          "velocity": 0.3858267716535433
        },
        {
          "duration": 0.12295075000000111,
          "durationTicks": 150,
          "midi": 44,
          "name": "G#2",
          "ticks": 73800,
          "time": 60.491769,
          "velocity": 0.6377952755905512
        },
        {
          "duration": 0.12295075000000111,
          "durationTicks": 150,
          "midi": 32,
          "name": "G#1",
          "ticks": 73800,
          "time": 60.491769,
          "velocity": 0.6377952755905512
        },
        {
          "duration": 0.12295075000000111,
          "durationTicks": 150,
          "midi": 44,
          "name": "G#2",
          "ticks": 73950,
          "time": 60.61471975,
          "velocity": 0.3858267716535433
        },
        {
          "duration": 0.12295075000000111,
          "durationTicks": 150,
          "midi": 32,
          "name": "G#1",
          "ticks": 73950,
          "time": 60.61471975,
          "velocity": 0.3858267716535433
        },
        {
          "duration": 0.12295075000000111,
          "durationTicks": 150,
          "midi": 44,
          "name": "G#2",
          "ticks": 74100,
          "time": 60.7376705,
          "velocity": 0.6377952755905512
        },
        {
          "duration": 0.12295075000000111,
          "durationTicks": 150,
          "midi": 32,
          "name": "G#1",
          "ticks": 74100,
          "time": 60.7376705,
          "velocity": 0.6377952755905512
        },
        {
          "duration": 0.122950749999994,
          "durationTicks": 150,
          "midi": 44,
          "name": "G#2",
          "ticks": 74250,
          "time": 60.86062125,
          "velocity": 0.3937007874015748
        },
        {
          "duration": 0.122950749999994,
          "durationTicks": 150,
          "midi": 32,
          "name": "G#1",
          "ticks": 74250,
          "time": 60.86062125,
          "velocity": 0.3937007874015748
        },
        {
          "duration": 0.12295075000000111,
          "durationTicks": 150,
          "midi": 46,
          "name": "A#2",
          "ticks": 74400,
          "time": 60.983571999999995,
          "velocity": 0.6299212598425197
        },
        {
          "duration": 0.12295075000000111,
          "durationTicks": 150,
          "midi": 34,
          "name": "A#1",
          "ticks": 74400,
          "time": 60.983571999999995,
          "velocity": 0.6299212598425197
        },
        {
          "duration": 0.12295075000000111,
          "durationTicks": 150,
          "midi": 46,
          "name": "A#2",
          "ticks": 74550,
          "time": 61.106522749999996,
          "velocity": 0.3858267716535433
        },
        {
          "duration": 0.12295075000000111,
          "durationTicks": 150,
          "midi": 34,
          "name": "A#1",
          "ticks": 74550,
          "time": 61.106522749999996,
          "velocity": 0.3858267716535433
        },
        {
          "duration": 0.12295075000000111,
          "durationTicks": 150,
          "midi": 46,
          "name": "A#2",
          "ticks": 74700,
          "time": 61.2294735,
          "velocity": 0.6299212598425197
        },
        {
          "duration": 0.12295075000000111,
          "durationTicks": 150,
          "midi": 34,
          "name": "A#1",
          "ticks": 74700,
          "time": 61.2294735,
          "velocity": 0.6299212598425197
        },
        {
          "duration": 0.12295075000000111,
          "durationTicks": 150,
          "midi": 46,
          "name": "A#2",
          "ticks": 74850,
          "time": 61.35242425,
          "velocity": 0.3858267716535433
        },
        {
          "duration": 0.12295075000000111,
          "durationTicks": 150,
          "midi": 34,
          "name": "A#1",
          "ticks": 74850,
          "time": 61.35242425,
          "velocity": 0.3858267716535433
        },
        {
          "duration": 0.12295075000000111,
          "durationTicks": 150,
          "midi": 46,
          "name": "A#2",
          "ticks": 75000,
          "time": 61.475375,
          "velocity": 0.6299212598425197
        },
        {
          "duration": 0.12295075000000111,
          "durationTicks": 150,
          "midi": 34,
          "name": "A#1",
          "ticks": 75000,
          "time": 61.475375,
          "velocity": 0.6299212598425197
        },
        {
          "duration": 0.12295075000000111,
          "durationTicks": 150,
          "midi": 46,
          "name": "A#2",
          "ticks": 75150,
          "time": 61.59832575,
          "velocity": 0.3858267716535433
        },
        {
          "duration": 0.12295075000000111,
          "durationTicks": 150,
          "midi": 34,
          "name": "A#1",
          "ticks": 75150,
          "time": 61.59832575,
          "velocity": 0.3858267716535433
        },
        {
          "duration": 0.122950749999994,
          "durationTicks": 150,
          "midi": 46,
          "name": "A#2",
          "ticks": 75300,
          "time": 61.7212765,
          "velocity": 0.6299212598425197
        },
        {
          "duration": 0.122950749999994,
          "durationTicks": 150,
          "midi": 34,
          "name": "A#1",
          "ticks": 75300,
          "time": 61.7212765,
          "velocity": 0.6299212598425197
        },
        {
          "duration": 0.24590150000000222,
          "durationTicks": 300,
          "midi": 47,
          "name": "B2",
          "ticks": 75450,
          "time": 61.844227249999996,
          "velocity": 0.6299212598425197
        },
        {
          "duration": 0.24590150000000222,
          "durationTicks": 300,
          "midi": 35,
          "name": "B1",
          "ticks": 75450,
          "time": 61.844227249999996,
          "velocity": 0.6299212598425197
        },
        {
          "duration": 0.12295075000000111,
          "durationTicks": 150,
          "midi": 47,
          "name": "B2",
          "ticks": 75750,
          "time": 62.09012875,
          "velocity": 0.3858267716535433
        },
        {
          "duration": 0.12295075000000111,
          "durationTicks": 150,
          "midi": 35,
          "name": "B1",
          "ticks": 75750,
          "time": 62.09012875,
          "velocity": 0.3858267716535433
        },
        {
          "duration": 0.12295075000000111,
          "durationTicks": 150,
          "midi": 47,
          "name": "B2",
          "ticks": 75900,
          "time": 62.2130795,
          "velocity": 0.6377952755905512
        },
        {
          "duration": 0.12295075000000111,
          "durationTicks": 150,
          "midi": 35,
          "name": "B1",
          "ticks": 75900,
          "time": 62.2130795,
          "velocity": 0.6377952755905512
        },
        {
          "duration": 0.12295075000000111,
          "durationTicks": 150,
          "midi": 47,
          "name": "B2",
          "ticks": 76050,
          "time": 62.33603025,
          "velocity": 0.3858267716535433
        },
        {
          "duration": 0.12295075000000111,
          "durationTicks": 150,
          "midi": 35,
          "name": "B1",
          "ticks": 76050,
          "time": 62.33603025,
          "velocity": 0.3858267716535433
        },
        {
          "duration": 0.122950749999994,
          "durationTicks": 150,
          "midi": 47,
          "name": "B2",
          "ticks": 76200,
          "time": 62.458981,
          "velocity": 0.6377952755905512
        },
        {
          "duration": 0.122950749999994,
          "durationTicks": 150,
          "midi": 35,
          "name": "B1",
          "ticks": 76200,
          "time": 62.458981,
          "velocity": 0.6377952755905512
        },
        {
          "duration": 0.12295075000000111,
          "durationTicks": 150,
          "midi": 47,
          "name": "B2",
          "ticks": 76350,
          "time": 62.581931749999995,
          "velocity": 0.3858267716535433
        },
        {
          "duration": 0.12295075000000111,
          "durationTicks": 150,
          "midi": 35,
          "name": "B1",
          "ticks": 76350,
          "time": 62.581931749999995,
          "velocity": 0.3858267716535433
        },
        {
          "duration": 0.12295075000000111,
          "durationTicks": 150,
          "midi": 47,
          "name": "B2",
          "ticks": 76500,
          "time": 62.7048825,
          "velocity": 0.6377952755905512
        },
        {
          "duration": 0.12295075000000111,
          "durationTicks": 150,
          "midi": 35,
          "name": "B1",
          "ticks": 76500,
          "time": 62.7048825,
          "velocity": 0.6377952755905512
        },
        {
          "duration": 0.12295075000000111,
          "durationTicks": 150,
          "midi": 47,
          "name": "B2",
          "ticks": 76650,
          "time": 62.82783325,
          "velocity": 0.3937007874015748
        },
        {
          "duration": 0.12295075000000111,
          "durationTicks": 150,
          "midi": 35,
          "name": "B1",
          "ticks": 76650,
          "time": 62.82783325,
          "velocity": 0.3937007874015748
        },
        {
          "duration": 0.12295075000000111,
          "durationTicks": 150,
          "midi": 48,
          "name": "C3",
          "ticks": 76800,
          "time": 62.950784,
          "velocity": 0.6299212598425197
        },
        {
          "duration": 0.12295075000000111,
          "durationTicks": 150,
          "midi": 36,
          "name": "C2",
          "ticks": 76800,
          "time": 62.950784,
          "velocity": 0.6299212598425197
        },
        {
          "duration": 0.12295075000000111,
          "durationTicks": 150,
          "midi": 48,
          "name": "C3",
          "ticks": 76950,
          "time": 63.07373475,
          "velocity": 0.3858267716535433
        },
        {
          "duration": 0.12295075000000111,
          "durationTicks": 150,
          "midi": 36,
          "name": "C2",
          "ticks": 76950,
          "time": 63.07373475,
          "velocity": 0.3858267716535433
        },
        {
          "duration": 0.12295075000000111,
          "durationTicks": 150,
          "midi": 48,
          "name": "C3",
          "ticks": 77100,
          "time": 63.1966855,
          "velocity": 0.6299212598425197
        },
        {
          "duration": 0.12295075000000111,
          "durationTicks": 150,
          "midi": 36,
          "name": "C2",
          "ticks": 77100,
          "time": 63.1966855,
          "velocity": 0.6299212598425197
        },
        {
          "duration": 0.122950749999994,
          "durationTicks": 150,
          "midi": 48,
          "name": "C3",
          "ticks": 77250,
          "time": 63.31963625,
          "velocity": 0.3858267716535433
        },
        {
          "duration": 0.122950749999994,
          "durationTicks": 150,
          "midi": 36,
          "name": "C2",
          "ticks": 77250,
          "time": 63.31963625,
          "velocity": 0.3858267716535433
        },
        {
          "duration": 0.12295075000000111,
          "durationTicks": 150,
          "midi": 48,
          "name": "C3",
          "ticks": 77400,
          "time": 63.442586999999996,
          "velocity": 0.6299212598425197
        },
        {
          "duration": 0.12295075000000111,
          "durationTicks": 150,
          "midi": 36,
          "name": "C2",
          "ticks": 77400,
          "time": 63.442586999999996,
          "velocity": 0.6299212598425197
        },
        {
          "duration": 0.12295075000000111,
          "durationTicks": 150,
          "midi": 48,
          "name": "C3",
          "ticks": 77550,
          "time": 63.56553775,
          "velocity": 0.3858267716535433
        },
        {
          "duration": 0.12295075000000111,
          "durationTicks": 150,
          "midi": 36,
          "name": "C2",
          "ticks": 77550,
          "time": 63.56553775,
          "velocity": 0.3858267716535433
        },
        {
          "duration": 0.12295075000000111,
          "durationTicks": 150,
          "midi": 48,
          "name": "C3",
          "ticks": 77700,
          "time": 63.6884885,
          "velocity": 0.6299212598425197
        },
        {
          "duration": 0.12295075000000111,
          "durationTicks": 150,
          "midi": 36,
          "name": "C2",
          "ticks": 77700,
          "time": 63.6884885,
          "velocity": 0.6299212598425197
        },
        {
          "duration": 0.2459014999999951,
          "durationTicks": 300,
          "midi": 48,
          "name": "C3",
          "ticks": 77850,
          "time": 63.81143925,
          "velocity": 0.6299212598425197
        },
        {
          "duration": 0.2459014999999951,
          "durationTicks": 300,
          "midi": 36,
          "name": "C2",
          "ticks": 77850,
          "time": 63.81143925,
          "velocity": 0.6299212598425197
        },
        {
          "duration": 0.12295075000000111,
          "durationTicks": 150,
          "midi": 48,
          "name": "C3",
          "ticks": 78150,
          "time": 64.05734075,
          "velocity": 0.3858267716535433
        },
        {
          "duration": 0.12295075000000111,
          "durationTicks": 150,
          "midi": 36,
          "name": "C2",
          "ticks": 78150,
          "time": 64.05734075,
          "velocity": 0.3858267716535433
        },
        {
          "duration": 0.12295075000000111,
          "durationTicks": 150,
          "midi": 48,
          "name": "C3",
          "ticks": 78300,
          "time": 64.1802915,
          "velocity": 0.6377952755905512
        },
        {
          "duration": 0.12295075000000111,
          "durationTicks": 150,
          "midi": 36,
          "name": "C2",
          "ticks": 78300,
          "time": 64.1802915,
          "velocity": 0.6377952755905512
        },
        {
          "duration": 0.12295075000000111,
          "durationTicks": 150,
          "midi": 48,
          "name": "C3",
          "ticks": 78450,
          "time": 64.30324225,
          "velocity": 0.3858267716535433
        },
        {
          "duration": 0.12295075000000111,
          "durationTicks": 150,
          "midi": 36,
          "name": "C2",
          "ticks": 78450,
          "time": 64.30324225,
          "velocity": 0.3858267716535433
        },
        {
          "duration": 0.12295075000000111,
          "durationTicks": 150,
          "midi": 48,
          "name": "C3",
          "ticks": 78600,
          "time": 64.426193,
          "velocity": 0.6377952755905512
        },
        {
          "duration": 0.12295075000000111,
          "durationTicks": 150,
          "midi": 36,
          "name": "C2",
          "ticks": 78600,
          "time": 64.426193,
          "velocity": 0.6377952755905512
        },
        {
          "duration": 0.12295075000000111,
          "durationTicks": 150,
          "midi": 48,
          "name": "C3",
          "ticks": 78750,
          "time": 64.54914375,
          "velocity": 0.3858267716535433
        },
        {
          "duration": 0.12295075000000111,
          "durationTicks": 150,
          "midi": 36,
          "name": "C2",
          "ticks": 78750,
          "time": 64.54914375,
          "velocity": 0.3858267716535433
        },
        {
          "duration": 0.12295075000000111,
          "durationTicks": 150,
          "midi": 48,
          "name": "C3",
          "ticks": 78900,
          "time": 64.6720945,
          "velocity": 0.6377952755905512
        },
        {
          "duration": 0.12295075000000111,
          "durationTicks": 150,
          "midi": 36,
          "name": "C2",
          "ticks": 78900,
          "time": 64.6720945,
          "velocity": 0.6377952755905512
        },
        {
          "duration": 0.12295075000000111,
          "durationTicks": 150,
          "midi": 48,
          "name": "C3",
          "ticks": 79050,
          "time": 64.79504525,
          "velocity": 0.3937007874015748
        },
        {
          "duration": 0.12295075000000111,
          "durationTicks": 150,
          "midi": 36,
          "name": "C2",
          "ticks": 79050,
          "time": 64.79504525,
          "velocity": 0.3937007874015748
        },
        {
          "duration": 0.12295075000000111,
          "durationTicks": 150,
          "midi": 48,
          "name": "C3",
          "ticks": 79200,
          "time": 64.917996,
          "velocity": 0.6299212598425197
        },
        {
          "duration": 0.12295075000000111,
          "durationTicks": 150,
          "midi": 36,
          "name": "C2",
          "ticks": 79200,
          "time": 64.917996,
          "velocity": 0.6299212598425197
        },
        {
          "duration": 0.12295075000000111,
          "durationTicks": 150,
          "midi": 48,
          "name": "C3",
          "ticks": 79350,
          "time": 65.04094675,
          "velocity": 0.3858267716535433
        },
        {
          "duration": 0.12295075000000111,
          "durationTicks": 150,
          "midi": 36,
          "name": "C2",
          "ticks": 79350,
          "time": 65.04094675,
          "velocity": 0.3858267716535433
        },
        {
          "duration": 0.12295075000000111,
          "durationTicks": 150,
          "midi": 48,
          "name": "C3",
          "ticks": 79500,
          "time": 65.1638975,
          "velocity": 0.6299212598425197
        },
        {
          "duration": 0.12295075000000111,
          "durationTicks": 150,
          "midi": 36,
          "name": "C2",
          "ticks": 79500,
          "time": 65.1638975,
          "velocity": 0.6299212598425197
        },
        {
          "duration": 0.1229507499999869,
          "durationTicks": 150,
          "midi": 48,
          "name": "C3",
          "ticks": 79650,
          "time": 65.28684825,
          "velocity": 0.3858267716535433
        },
        {
          "duration": 0.1229507499999869,
          "durationTicks": 150,
          "midi": 36,
          "name": "C2",
          "ticks": 79650,
          "time": 65.28684825,
          "velocity": 0.3858267716535433
        },
        {
          "duration": 0.12295075000000111,
          "durationTicks": 150,
          "midi": 48,
          "name": "C3",
          "ticks": 79800,
          "time": 65.40979899999999,
          "velocity": 0.6299212598425197
        },
        {
          "duration": 0.12295075000000111,
          "durationTicks": 150,
          "midi": 36,
          "name": "C2",
          "ticks": 79800,
          "time": 65.40979899999999,
          "velocity": 0.6299212598425197
        },
        {
          "duration": 0.12295075000000111,
          "durationTicks": 150,
          "midi": 48,
          "name": "C3",
          "ticks": 79950,
          "time": 65.53274975,
          "velocity": 0.3858267716535433
        },
        {
          "duration": 0.12295075000000111,
          "durationTicks": 150,
          "midi": 36,
          "name": "C2",
          "ticks": 79950,
          "time": 65.53274975,
          "velocity": 0.3858267716535433
        },
        {
          "duration": 0.12295075000000111,
          "durationTicks": 150,
          "midi": 48,
          "name": "C3",
          "ticks": 80100,
          "time": 65.6557005,
          "velocity": 0.6299212598425197
        },
        {
          "duration": 0.12295075000000111,
          "durationTicks": 150,
          "midi": 36,
          "name": "C2",
          "ticks": 80100,
          "time": 65.6557005,
          "velocity": 0.6299212598425197
        },
        {
          "duration": 0.24590150000000222,
          "durationTicks": 300,
          "midi": 48,
          "name": "C3",
          "ticks": 80250,
          "time": 65.77865125,
          "velocity": 0.6299212598425197
        },
        {
          "duration": 0.24590150000000222,
          "durationTicks": 300,
          "midi": 36,
          "name": "C2",
          "ticks": 80250,
          "time": 65.77865125,
          "velocity": 0.6299212598425197
        },
        {
          "duration": 0.12295075000000111,
          "durationTicks": 150,
          "midi": 48,
          "name": "C3",
          "ticks": 80550,
          "time": 66.02455275,
          "velocity": 0.3858267716535433
        },
        {
          "duration": 0.12295075000000111,
          "durationTicks": 150,
          "midi": 36,
          "name": "C2",
          "ticks": 80550,
          "time": 66.02455275,
          "velocity": 0.3858267716535433
        },
        {
          "duration": 0.12295075000000111,
          "durationTicks": 150,
          "midi": 48,
          "name": "C3",
          "ticks": 80700,
          "time": 66.1475035,
          "velocity": 0.6377952755905512
        },
        {
          "duration": 0.12295075000000111,
          "durationTicks": 150,
          "midi": 36,
          "name": "C2",
          "ticks": 80700,
          "time": 66.1475035,
          "velocity": 0.6377952755905512
        },
        {
          "duration": 0.12295075000000111,
          "durationTicks": 150,
          "midi": 48,
          "name": "C3",
          "ticks": 80850,
          "time": 66.27045425,
          "velocity": 0.3858267716535433
        },
        {
          "duration": 0.12295075000000111,
          "durationTicks": 150,
          "midi": 36,
          "name": "C2",
          "ticks": 80850,
          "time": 66.27045425,
          "velocity": 0.3858267716535433
        },
        {
          "duration": 0.12295075000000111,
          "durationTicks": 150,
          "midi": 48,
          "name": "C3",
          "ticks": 81000,
          "time": 66.393405,
          "velocity": 0.6377952755905512
        },
        {
          "duration": 0.12295075000000111,
          "durationTicks": 150,
          "midi": 36,
          "name": "C2",
          "ticks": 81000,
          "time": 66.393405,
          "velocity": 0.6377952755905512
        },
        {
          "duration": 0.12295075000000111,
          "durationTicks": 150,
          "midi": 48,
          "name": "C3",
          "ticks": 81150,
          "time": 66.51635575,
          "velocity": 0.3858267716535433
        },
        {
          "duration": 0.12295075000000111,
          "durationTicks": 150,
          "midi": 36,
          "name": "C2",
          "ticks": 81150,
          "time": 66.51635575,
          "velocity": 0.3858267716535433
        },
        {
          "duration": 0.12295075000000111,
          "durationTicks": 150,
          "midi": 48,
          "name": "C3",
          "ticks": 81300,
          "time": 66.6393065,
          "velocity": 0.6377952755905512
        },
        {
          "duration": 0.12295075000000111,
          "durationTicks": 150,
          "midi": 36,
          "name": "C2",
          "ticks": 81300,
          "time": 66.6393065,
          "velocity": 0.6377952755905512
        },
        {
          "duration": 0.12295075000000111,
          "durationTicks": 150,
          "midi": 48,
          "name": "C3",
          "ticks": 81450,
          "time": 66.76225725,
          "velocity": 0.3937007874015748
        },
        {
          "duration": 0.12295075000000111,
          "durationTicks": 150,
          "midi": 36,
          "name": "C2",
          "ticks": 81450,
          "time": 66.76225725,
          "velocity": 0.3937007874015748
        },
        {
          "duration": 0.1229507499999869,
          "durationTicks": 150,
          "midi": 44,
          "name": "G#2",
          "ticks": 81600,
          "time": 66.885208,
          "velocity": 0.6299212598425197
        },
        {
          "duration": 0.1229507499999869,
          "durationTicks": 150,
          "midi": 32,
          "name": "G#1",
          "ticks": 81600,
          "time": 66.885208,
          "velocity": 0.6299212598425197
        },
        {
          "duration": 0.12295075000000111,
          "durationTicks": 150,
          "midi": 44,
          "name": "G#2",
          "ticks": 81750,
          "time": 67.00815874999999,
          "velocity": 0.3858267716535433
        },
        {
          "duration": 0.12295075000000111,
          "durationTicks": 150,
          "midi": 32,
          "name": "G#1",
          "ticks": 81750,
          "time": 67.00815874999999,
          "velocity": 0.3858267716535433
        },
        {
          "duration": 0.12295075000000111,
          "durationTicks": 150,
          "midi": 44,
          "name": "G#2",
          "ticks": 81900,
          "time": 67.1311095,
          "velocity": 0.6299212598425197
        },
        {
          "duration": 0.12295075000000111,
          "durationTicks": 150,
          "midi": 32,
          "name": "G#1",
          "ticks": 81900,
          "time": 67.1311095,
          "velocity": 0.6299212598425197
        },
        {
          "duration": 0.12295075000000111,
          "durationTicks": 150,
          "midi": 44,
          "name": "G#2",
          "ticks": 82050,
          "time": 67.25406025,
          "velocity": 0.3858267716535433
        },
        {
          "duration": 0.12295075000000111,
          "durationTicks": 150,
          "midi": 32,
          "name": "G#1",
          "ticks": 82050,
          "time": 67.25406025,
          "velocity": 0.3858267716535433
        },
        {
          "duration": 0.12295075000000111,
          "durationTicks": 150,
          "midi": 44,
          "name": "G#2",
          "ticks": 82200,
          "time": 67.377011,
          "velocity": 0.6299212598425197
        },
        {
          "duration": 0.12295075000000111,
          "durationTicks": 150,
          "midi": 32,
          "name": "G#1",
          "ticks": 82200,
          "time": 67.377011,
          "velocity": 0.6299212598425197
        },
        {
          "duration": 0.12295075000000111,
          "durationTicks": 150,
          "midi": 44,
          "name": "G#2",
          "ticks": 82350,
          "time": 67.49996175,
          "velocity": 0.3858267716535433
        },
        {
          "duration": 0.12295075000000111,
          "durationTicks": 150,
          "midi": 32,
          "name": "G#1",
          "ticks": 82350,
          "time": 67.49996175,
          "velocity": 0.3858267716535433
        },
        {
          "duration": 0.12295075000000111,
          "durationTicks": 150,
          "midi": 44,
          "name": "G#2",
          "ticks": 82500,
          "time": 67.6229125,
          "velocity": 0.6299212598425197
        },
        {
          "duration": 0.12295075000000111,
          "durationTicks": 150,
          "midi": 32,
          "name": "G#1",
          "ticks": 82500,
          "time": 67.6229125,
          "velocity": 0.6299212598425197
        },
        {
          "duration": 0.24590150000000222,
          "durationTicks": 300,
          "midi": 44,
          "name": "G#2",
          "ticks": 82650,
          "time": 67.74586325,
          "velocity": 0.6299212598425197
        },
        {
          "duration": 0.24590150000000222,
          "durationTicks": 300,
          "midi": 32,
          "name": "G#1",
          "ticks": 82650,
          "time": 67.74586325,
          "velocity": 0.6299212598425197
        },
        {
          "duration": 0.12295075000000111,
          "durationTicks": 150,
          "midi": 44,
          "name": "G#2",
          "ticks": 82950,
          "time": 67.99176475,
          "velocity": 0.3858267716535433
        },
        {
          "duration": 0.12295075000000111,
          "durationTicks": 150,
          "midi": 32,
          "name": "G#1",
          "ticks": 82950,
          "time": 67.99176475,
          "velocity": 0.3858267716535433
        },
        {
          "duration": 0.12295075000000111,
          "durationTicks": 150,
          "midi": 44,
          "name": "G#2",
          "ticks": 83100,
          "time": 68.1147155,
          "velocity": 0.6377952755905512
        },
        {
          "duration": 0.12295075000000111,
          "durationTicks": 150,
          "midi": 32,
          "name": "G#1",
          "ticks": 83100,
          "time": 68.1147155,
          "velocity": 0.6377952755905512
        },
        {
          "duration": 0.12295075000000111,
          "durationTicks": 150,
          "midi": 44,
          "name": "G#2",
          "ticks": 83250,
          "time": 68.23766625,
          "velocity": 0.3858267716535433
        },
        {
          "duration": 0.12295075000000111,
          "durationTicks": 150,
          "midi": 32,
          "name": "G#1",
          "ticks": 83250,
          "time": 68.23766625,
          "velocity": 0.3858267716535433
        },
        {
          "duration": 0.1229507499999869,
          "durationTicks": 150,
          "midi": 44,
          "name": "G#2",
          "ticks": 83400,
          "time": 68.360617,
          "velocity": 0.6377952755905512
        },
        {
          "duration": 0.1229507499999869,
          "durationTicks": 150,
          "midi": 32,
          "name": "G#1",
          "ticks": 83400,
          "time": 68.360617,
          "velocity": 0.6377952755905512
        },
        {
          "duration": 0.12295075000000111,
          "durationTicks": 150,
          "midi": 44,
          "name": "G#2",
          "ticks": 83550,
          "time": 68.48356774999999,
          "velocity": 0.3858267716535433
        },
        {
          "duration": 0.12295075000000111,
          "durationTicks": 150,
          "midi": 32,
          "name": "G#1",
          "ticks": 83550,
          "time": 68.48356774999999,
          "velocity": 0.3858267716535433
        },
        {
          "duration": 0.12295075000000111,
          "durationTicks": 150,
          "midi": 44,
          "name": "G#2",
          "ticks": 83700,
          "time": 68.60651849999999,
          "velocity": 0.6377952755905512
        },
        {
          "duration": 0.12295075000000111,
          "durationTicks": 150,
          "midi": 32,
          "name": "G#1",
          "ticks": 83700,
          "time": 68.60651849999999,
          "velocity": 0.6377952755905512
        },
        {
          "duration": 0.12295075000000111,
          "durationTicks": 150,
          "midi": 44,
          "name": "G#2",
          "ticks": 83850,
          "time": 68.72946925,
          "velocity": 0.3937007874015748
        },
        {
          "duration": 0.12295075000000111,
          "durationTicks": 150,
          "midi": 32,
          "name": "G#1",
          "ticks": 83850,
          "time": 68.72946925,
          "velocity": 0.3937007874015748
        },
        {
          "duration": 0.12295075000000111,
          "durationTicks": 150,
          "midi": 46,
          "name": "A#2",
          "ticks": 84000,
          "time": 68.85242,
          "velocity": 0.6299212598425197
        },
        {
          "duration": 0.12295075000000111,
          "durationTicks": 150,
          "midi": 34,
          "name": "A#1",
          "ticks": 84000,
          "time": 68.85242,
          "velocity": 0.6299212598425197
        },
        {
          "duration": 0.12295075000000111,
          "durationTicks": 150,
          "midi": 46,
          "name": "A#2",
          "ticks": 84150,
          "time": 68.97537075,
          "velocity": 0.3858267716535433
        },
        {
          "duration": 0.12295075000000111,
          "durationTicks": 150,
          "midi": 34,
          "name": "A#1",
          "ticks": 84150,
          "time": 68.97537075,
          "velocity": 0.3858267716535433
        },
        {
          "duration": 0.12295075000000111,
          "durationTicks": 150,
          "midi": 46,
          "name": "A#2",
          "ticks": 84300,
          "time": 69.0983215,
          "velocity": 0.6299212598425197
        },
        {
          "duration": 0.12295075000000111,
          "durationTicks": 150,
          "midi": 34,
          "name": "A#1",
          "ticks": 84300,
          "time": 69.0983215,
          "velocity": 0.6299212598425197
        },
        {
          "duration": 0.12295075000000111,
          "durationTicks": 150,
          "midi": 46,
          "name": "A#2",
          "ticks": 84450,
          "time": 69.22127225,
          "velocity": 0.3858267716535433
        },
        {
          "duration": 0.12295075000000111,
          "durationTicks": 150,
          "midi": 34,
          "name": "A#1",
          "ticks": 84450,
          "time": 69.22127225,
          "velocity": 0.3858267716535433
        },
        {
          "duration": 0.12295075000000111,
          "durationTicks": 150,
          "midi": 46,
          "name": "A#2",
          "ticks": 84600,
          "time": 69.344223,
          "velocity": 0.6299212598425197
        },
        {
          "duration": 0.12295075000000111,
          "durationTicks": 150,
          "midi": 34,
          "name": "A#1",
          "ticks": 84600,
          "time": 69.344223,
          "velocity": 0.6299212598425197
        },
        {
          "duration": 0.12295075000000111,
          "durationTicks": 150,
          "midi": 46,
          "name": "A#2",
          "ticks": 84750,
          "time": 69.46717375,
          "velocity": 0.3858267716535433
        },
        {
          "duration": 0.12295075000000111,
          "durationTicks": 150,
          "midi": 34,
          "name": "A#1",
          "ticks": 84750,
          "time": 69.46717375,
          "velocity": 0.3858267716535433
        },
        {
          "duration": 0.12295075000000111,
          "durationTicks": 150,
          "midi": 46,
          "name": "A#2",
          "ticks": 84900,
          "time": 69.5901245,
          "velocity": 0.6299212598425197
        },
        {
          "duration": 0.12295075000000111,
          "durationTicks": 150,
          "midi": 34,
          "name": "A#1",
          "ticks": 84900,
          "time": 69.5901245,
          "velocity": 0.6299212598425197
        },
        {
          "duration": 0.24590150000000222,
          "durationTicks": 300,
          "midi": 47,
          "name": "B2",
          "ticks": 85050,
          "time": 69.71307525,
          "velocity": 0.6299212598425197
        },
        {
          "duration": 0.24590150000000222,
          "durationTicks": 300,
          "midi": 35,
          "name": "B1",
          "ticks": 85050,
          "time": 69.71307525,
          "velocity": 0.6299212598425197
        },
        {
          "duration": 0.1229507499999869,
          "durationTicks": 150,
          "midi": 47,
          "name": "B2",
          "ticks": 85350,
          "time": 69.95897675,
          "velocity": 0.3858267716535433
        },
        {
          "duration": 0.1229507499999869,
          "durationTicks": 150,
          "midi": 35,
          "name": "B1",
          "ticks": 85350,
          "time": 69.95897675,
          "velocity": 0.3858267716535433
        },
        {
          "duration": 0.12295075000000111,
          "durationTicks": 150,
          "midi": 47,
          "name": "B2",
          "ticks": 85500,
          "time": 70.08192749999999,
          "velocity": 0.6377952755905512
        },
        {
          "duration": 0.12295075000000111,
          "durationTicks": 150,
          "midi": 35,
          "name": "B1",
          "ticks": 85500,
          "time": 70.08192749999999,
          "velocity": 0.6377952755905512
        },
        {
          "duration": 0.12295075000000111,
          "durationTicks": 150,
          "midi": 47,
          "name": "B2",
          "ticks": 85650,
          "time": 70.20487825,
          "velocity": 0.3858267716535433
        },
        {
          "duration": 0.12295075000000111,
          "durationTicks": 150,
          "midi": 35,
          "name": "B1",
          "ticks": 85650,
          "time": 70.20487825,
          "velocity": 0.3858267716535433
        },
        {
          "duration": 0.12295075000000111,
          "durationTicks": 150,
          "midi": 47,
          "name": "B2",
          "ticks": 85800,
          "time": 70.327829,
          "velocity": 0.6377952755905512
        },
        {
          "duration": 0.12295075000000111,
          "durationTicks": 150,
          "midi": 35,
          "name": "B1",
          "ticks": 85800,
          "time": 70.327829,
          "velocity": 0.6377952755905512
        },
        {
          "duration": 0.12295075000000111,
          "durationTicks": 150,
          "midi": 47,
          "name": "B2",
          "ticks": 85950,
          "time": 70.45077975,
          "velocity": 0.3858267716535433
        },
        {
          "duration": 0.12295075000000111,
          "durationTicks": 150,
          "midi": 35,
          "name": "B1",
          "ticks": 85950,
          "time": 70.45077975,
          "velocity": 0.3858267716535433
        },
        {
          "duration": 0.12295075000000111,
          "durationTicks": 150,
          "midi": 47,
          "name": "B2",
          "ticks": 86100,
          "time": 70.5737305,
          "velocity": 0.6377952755905512
        },
        {
          "duration": 0.12295075000000111,
          "durationTicks": 150,
          "midi": 35,
          "name": "B1",
          "ticks": 86100,
          "time": 70.5737305,
          "velocity": 0.6377952755905512
        },
        {
          "duration": 0.12295075000000111,
          "durationTicks": 150,
          "midi": 47,
          "name": "B2",
          "ticks": 86250,
          "time": 70.69668125,
          "velocity": 0.3937007874015748
        },
        {
          "duration": 0.12295075000000111,
          "durationTicks": 150,
          "midi": 35,
          "name": "B1",
          "ticks": 86250,
          "time": 70.69668125,
          "velocity": 0.3937007874015748
        },
        {
          "duration": 0.12295075000000111,
          "durationTicks": 150,
          "midi": 48,
          "name": "C3",
          "ticks": 86400,
          "time": 70.819632,
          "velocity": 0.6299212598425197
        },
        {
          "duration": 0.12295075000000111,
          "durationTicks": 150,
          "midi": 36,
          "name": "C2",
          "ticks": 86400,
          "time": 70.819632,
          "velocity": 0.6299212598425197
        },
        {
          "duration": 0.12295075000000111,
          "durationTicks": 150,
          "midi": 48,
          "name": "C3",
          "ticks": 86550,
          "time": 70.94258275,
          "velocity": 0.3858267716535433
        },
        {
          "duration": 0.12295075000000111,
          "durationTicks": 150,
          "midi": 36,
          "name": "C2",
          "ticks": 86550,
          "time": 70.94258275,
          "velocity": 0.3858267716535433
        },
        {
          "duration": 0.12295075000000111,
          "durationTicks": 150,
          "midi": 48,
          "name": "C3",
          "ticks": 86700,
          "time": 71.0655335,
          "velocity": 0.6299212598425197
        },
        {
          "duration": 0.12295075000000111,
          "durationTicks": 150,
          "midi": 36,
          "name": "C2",
          "ticks": 86700,
          "time": 71.0655335,
          "velocity": 0.6299212598425197
        },
        {
          "duration": 0.12295075000000111,
          "durationTicks": 150,
          "midi": 48,
          "name": "C3",
          "ticks": 86850,
          "time": 71.18848425,
          "velocity": 0.3858267716535433
        },
        {
          "duration": 0.12295075000000111,
          "durationTicks": 150,
          "midi": 36,
          "name": "C2",
          "ticks": 86850,
          "time": 71.18848425,
          "velocity": 0.3858267716535433
        },
        {
          "duration": 0.12295075000000111,
          "durationTicks": 150,
          "midi": 48,
          "name": "C3",
          "ticks": 87000,
          "time": 71.311435,
          "velocity": 0.6299212598425197
        },
        {
          "duration": 0.12295075000000111,
          "durationTicks": 150,
          "midi": 36,
          "name": "C2",
          "ticks": 87000,
          "time": 71.311435,
          "velocity": 0.6299212598425197
        },
        {
          "duration": 0.12295075000000111,
          "durationTicks": 150,
          "midi": 48,
          "name": "C3",
          "ticks": 87150,
          "time": 71.43438575,
          "velocity": 0.3858267716535433
        },
        {
          "duration": 0.12295075000000111,
          "durationTicks": 150,
          "midi": 36,
          "name": "C2",
          "ticks": 87150,
          "time": 71.43438575,
          "velocity": 0.3858267716535433
        },
        {
          "duration": 0.1229507499999869,
          "durationTicks": 150,
          "midi": 48,
          "name": "C3",
          "ticks": 87300,
          "time": 71.5573365,
          "velocity": 0.6299212598425197
        },
        {
          "duration": 0.1229507499999869,
          "durationTicks": 150,
          "midi": 36,
          "name": "C2",
          "ticks": 87300,
          "time": 71.5573365,
          "velocity": 0.6299212598425197
        },
        {
          "duration": 0.24590150000000222,
          "durationTicks": 300,
          "midi": 48,
          "name": "C3",
          "ticks": 87450,
          "time": 71.68028724999999,
          "velocity": 0.6299212598425197
        },
        {
          "duration": 0.24590150000000222,
          "durationTicks": 300,
          "midi": 36,
          "name": "C2",
          "ticks": 87450,
          "time": 71.68028724999999,
          "velocity": 0.6299212598425197
        },
        {
          "duration": 0.12295075000000111,
          "durationTicks": 150,
          "midi": 48,
          "name": "C3",
          "ticks": 87750,
          "time": 71.92618875,
          "velocity": 0.3858267716535433
        },
        {
          "duration": 0.12295075000000111,
          "durationTicks": 150,
          "midi": 36,
          "name": "C2",
          "ticks": 87750,
          "time": 71.92618875,
          "velocity": 0.3858267716535433
        },
        {
          "duration": 0.12295075000000111,
          "durationTicks": 150,
          "midi": 48,
          "name": "C3",
          "ticks": 87900,
          "time": 72.0491395,
          "velocity": 0.6377952755905512
        },
        {
          "duration": 0.12295075000000111,
          "durationTicks": 150,
          "midi": 36,
          "name": "C2",
          "ticks": 87900,
          "time": 72.0491395,
          "velocity": 0.6377952755905512
        },
        {
          "duration": 0.12295075000000111,
          "durationTicks": 150,
          "midi": 48,
          "name": "C3",
          "ticks": 88050,
          "time": 72.17209025,
          "velocity": 0.3858267716535433
        },
        {
          "duration": 0.12295075000000111,
          "durationTicks": 150,
          "midi": 36,
          "name": "C2",
          "ticks": 88050,
          "time": 72.17209025,
          "velocity": 0.3858267716535433
        },
        {
          "duration": 0.12295075000000111,
          "durationTicks": 150,
          "midi": 48,
          "name": "C3",
          "ticks": 88200,
          "time": 72.295041,
          "velocity": 0.6377952755905512
        },
        {
          "duration": 0.12295075000000111,
          "durationTicks": 150,
          "midi": 36,
          "name": "C2",
          "ticks": 88200,
          "time": 72.295041,
          "velocity": 0.6377952755905512
        },
        {
          "duration": 0.12295075000000111,
          "durationTicks": 150,
          "midi": 48,
          "name": "C3",
          "ticks": 88350,
          "time": 72.41799175,
          "velocity": 0.3858267716535433
        },
        {
          "duration": 0.12295075000000111,
          "durationTicks": 150,
          "midi": 36,
          "name": "C2",
          "ticks": 88350,
          "time": 72.41799175,
          "velocity": 0.3858267716535433
        },
        {
          "duration": 0.12295075000000111,
          "durationTicks": 150,
          "midi": 48,
          "name": "C3",
          "ticks": 88500,
          "time": 72.5409425,
          "velocity": 0.6377952755905512
        },
        {
          "duration": 0.12295075000000111,
          "durationTicks": 150,
          "midi": 36,
          "name": "C2",
          "ticks": 88500,
          "time": 72.5409425,
          "velocity": 0.6377952755905512
        },
        {
          "duration": 0.12295075000000111,
          "durationTicks": 150,
          "midi": 48,
          "name": "C3",
          "ticks": 88650,
          "time": 72.66389325,
          "velocity": 0.3937007874015748
        },
        {
          "duration": 0.12295075000000111,
          "durationTicks": 150,
          "midi": 36,
          "name": "C2",
          "ticks": 88650,
          "time": 72.66389325,
          "velocity": 0.3937007874015748
        },
        {
          "duration": 0.12295075000000111,
          "durationTicks": 150,
          "midi": 48,
          "name": "C3",
          "ticks": 88800,
          "time": 72.786844,
          "velocity": 0.6299212598425197
        },
        {
          "duration": 0.12295075000000111,
          "durationTicks": 150,
          "midi": 36,
          "name": "C2",
          "ticks": 88800,
          "time": 72.786844,
          "velocity": 0.6299212598425197
        },
        {
          "duration": 0.12295075000000111,
          "durationTicks": 150,
          "midi": 48,
          "name": "C3",
          "ticks": 88950,
          "time": 72.90979475,
          "velocity": 0.3858267716535433
        },
        {
          "duration": 0.12295075000000111,
          "durationTicks": 150,
          "midi": 36,
          "name": "C2",
          "ticks": 88950,
          "time": 72.90979475,
          "velocity": 0.3858267716535433
        },
        {
          "duration": 0.12295075000000111,
          "durationTicks": 150,
          "midi": 48,
          "name": "C3",
          "ticks": 89100,
          "time": 73.0327455,
          "velocity": 0.6299212598425197
        },
        {
          "duration": 0.12295075000000111,
          "durationTicks": 150,
          "midi": 36,
          "name": "C2",
          "ticks": 89100,
          "time": 73.0327455,
          "velocity": 0.6299212598425197
        },
        {
          "duration": 0.1229507499999869,
          "durationTicks": 150,
          "midi": 48,
          "name": "C3",
          "ticks": 89250,
          "time": 73.15569625,
          "velocity": 0.3858267716535433
        },
        {
          "duration": 0.1229507499999869,
          "durationTicks": 150,
          "midi": 36,
          "name": "C2",
          "ticks": 89250,
          "time": 73.15569625,
          "velocity": 0.3858267716535433
        },
        {
          "duration": 0.12295075000000111,
          "durationTicks": 150,
          "midi": 48,
          "name": "C3",
          "ticks": 89400,
          "time": 73.27864699999999,
          "velocity": 0.6299212598425197
        },
        {
          "duration": 0.12295075000000111,
          "durationTicks": 150,
          "midi": 36,
          "name": "C2",
          "ticks": 89400,
          "time": 73.27864699999999,
          "velocity": 0.6299212598425197
        },
        {
          "duration": 0.12295075000000111,
          "durationTicks": 150,
          "midi": 48,
          "name": "C3",
          "ticks": 89550,
          "time": 73.40159775,
          "velocity": 0.3858267716535433
        },
        {
          "duration": 0.12295075000000111,
          "durationTicks": 150,
          "midi": 36,
          "name": "C2",
          "ticks": 89550,
          "time": 73.40159775,
          "velocity": 0.3858267716535433
        },
        {
          "duration": 0.12295075000000111,
          "durationTicks": 150,
          "midi": 48,
          "name": "C3",
          "ticks": 89700,
          "time": 73.5245485,
          "velocity": 0.6299212598425197
        },
        {
          "duration": 0.12295075000000111,
          "durationTicks": 150,
          "midi": 36,
          "name": "C2",
          "ticks": 89700,
          "time": 73.5245485,
          "velocity": 0.6299212598425197
        },
        {
          "duration": 0.24590150000000222,
          "durationTicks": 300,
          "midi": 48,
          "name": "C3",
          "ticks": 89850,
          "time": 73.64749925,
          "velocity": 0.6299212598425197
        },
        {
          "duration": 0.24590150000000222,
          "durationTicks": 300,
          "midi": 36,
          "name": "C2",
          "ticks": 89850,
          "time": 73.64749925,
          "velocity": 0.6299212598425197
        },
        {
          "duration": 0.12295075000000111,
          "durationTicks": 150,
          "midi": 48,
          "name": "C3",
          "ticks": 90150,
          "time": 73.89340075,
          "velocity": 0.3858267716535433
        },
        {
          "duration": 0.12295075000000111,
          "durationTicks": 150,
          "midi": 36,
          "name": "C2",
          "ticks": 90150,
          "time": 73.89340075,
          "velocity": 0.3858267716535433
        },
        {
          "duration": 0.12295075000000111,
          "durationTicks": 150,
          "midi": 48,
          "name": "C3",
          "ticks": 90300,
          "time": 74.0163515,
          "velocity": 0.6377952755905512
        },
        {
          "duration": 0.12295075000000111,
          "durationTicks": 150,
          "midi": 36,
          "name": "C2",
          "ticks": 90300,
          "time": 74.0163515,
          "velocity": 0.6377952755905512
        },
        {
          "duration": 0.12295075000000111,
          "durationTicks": 150,
          "midi": 48,
          "name": "C3",
          "ticks": 90450,
          "time": 74.13930225,
          "velocity": 0.3858267716535433
        },
        {
          "duration": 0.12295075000000111,
          "durationTicks": 150,
          "midi": 36,
          "name": "C2",
          "ticks": 90450,
          "time": 74.13930225,
          "velocity": 0.3858267716535433
        },
        {
          "duration": 0.12295075000000111,
          "durationTicks": 150,
          "midi": 48,
          "name": "C3",
          "ticks": 90600,
          "time": 74.262253,
          "velocity": 0.6377952755905512
        },
        {
          "duration": 0.12295075000000111,
          "durationTicks": 150,
          "midi": 36,
          "name": "C2",
          "ticks": 90600,
          "time": 74.262253,
          "velocity": 0.6377952755905512
        },
        {
          "duration": 0.12295075000000111,
          "durationTicks": 150,
          "midi": 48,
          "name": "C3",
          "ticks": 90750,
          "time": 74.38520375,
          "velocity": 0.3858267716535433
        },
        {
          "duration": 0.12295075000000111,
          "durationTicks": 150,
          "midi": 36,
          "name": "C2",
          "ticks": 90750,
          "time": 74.38520375,
          "velocity": 0.3858267716535433
        },
        {
          "duration": 0.12295075000000111,
          "durationTicks": 150,
          "midi": 48,
          "name": "C3",
          "ticks": 90900,
          "time": 74.5081545,
          "velocity": 0.6377952755905512
        },
        {
          "duration": 0.12295075000000111,
          "durationTicks": 150,
          "midi": 36,
          "name": "C2",
          "ticks": 90900,
          "time": 74.5081545,
          "velocity": 0.6377952755905512
        },
        {
          "duration": 0.1229507499999869,
          "durationTicks": 150,
          "midi": 48,
          "name": "C3",
          "ticks": 91050,
          "time": 74.63110525,
          "velocity": 0.3937007874015748
        },
        {
          "duration": 0.1229507499999869,
          "durationTicks": 150,
          "midi": 36,
          "name": "C2",
          "ticks": 91050,
          "time": 74.63110525,
          "velocity": 0.3937007874015748
        },
        {
          "duration": 0.12295075000000111,
          "durationTicks": 150,
          "midi": 44,
          "name": "G#2",
          "ticks": 91200,
          "time": 74.75405599999999,
          "velocity": 0.6299212598425197
        },
        {
          "duration": 0.12295075000000111,
          "durationTicks": 150,
          "midi": 32,
          "name": "G#1",
          "ticks": 91200,
          "time": 74.75405599999999,
          "velocity": 0.6299212598425197
        },
        {
          "duration": 0.12295075000000111,
          "durationTicks": 150,
          "midi": 44,
          "name": "G#2",
          "ticks": 91350,
          "time": 74.87700674999999,
          "velocity": 0.3858267716535433
        },
        {
          "duration": 0.12295075000000111,
          "durationTicks": 150,
          "midi": 32,
          "name": "G#1",
          "ticks": 91350,
          "time": 74.87700674999999,
          "velocity": 0.3858267716535433
        },
        {
          "duration": 0.12295075000000111,
          "durationTicks": 150,
          "midi": 44,
          "name": "G#2",
          "ticks": 91500,
          "time": 74.9999575,
          "velocity": 0.6299212598425197
        },
        {
          "duration": 0.12295075000000111,
          "durationTicks": 150,
          "midi": 32,
          "name": "G#1",
          "ticks": 91500,
          "time": 74.9999575,
          "velocity": 0.6299212598425197
        },
        {
          "duration": 0.12295075000000111,
          "durationTicks": 150,
          "midi": 44,
          "name": "G#2",
          "ticks": 91650,
          "time": 75.12290825,
          "velocity": 0.3858267716535433
        },
        {
          "duration": 0.12295075000000111,
          "durationTicks": 150,
          "midi": 32,
          "name": "G#1",
          "ticks": 91650,
          "time": 75.12290825,
          "velocity": 0.3858267716535433
        },
        {
          "duration": 0.12295075000000111,
          "durationTicks": 150,
          "midi": 44,
          "name": "G#2",
          "ticks": 91800,
          "time": 75.245859,
          "velocity": 0.6299212598425197
        },
        {
          "duration": 0.12295075000000111,
          "durationTicks": 150,
          "midi": 32,
          "name": "G#1",
          "ticks": 91800,
          "time": 75.245859,
          "velocity": 0.6299212598425197
        },
        {
          "duration": 0.12295075000000111,
          "durationTicks": 150,
          "midi": 44,
          "name": "G#2",
          "ticks": 91950,
          "time": 75.36880975,
          "velocity": 0.3858267716535433
        },
        {
          "duration": 0.12295075000000111,
          "durationTicks": 150,
          "midi": 32,
          "name": "G#1",
          "ticks": 91950,
          "time": 75.36880975,
          "velocity": 0.3858267716535433
        },
        {
          "duration": 0.12295075000000111,
          "durationTicks": 150,
          "midi": 44,
          "name": "G#2",
          "ticks": 92100,
          "time": 75.4917605,
          "velocity": 0.6299212598425197
        },
        {
          "duration": 0.12295075000000111,
          "durationTicks": 150,
          "midi": 32,
          "name": "G#1",
          "ticks": 92100,
          "time": 75.4917605,
          "velocity": 0.6299212598425197
        },
        {
          "duration": 0.24590150000000222,
          "durationTicks": 300,
          "midi": 44,
          "name": "G#2",
          "ticks": 92250,
          "time": 75.61471125,
          "velocity": 0.6299212598425197
        },
        {
          "duration": 0.24590150000000222,
          "durationTicks": 300,
          "midi": 32,
          "name": "G#1",
          "ticks": 92250,
          "time": 75.61471125,
          "velocity": 0.6299212598425197
        },
        {
          "duration": 0.12295075000000111,
          "durationTicks": 150,
          "midi": 44,
          "name": "G#2",
          "ticks": 92550,
          "time": 75.86061275,
          "velocity": 0.3858267716535433
        },
        {
          "duration": 0.12295075000000111,
          "durationTicks": 150,
          "midi": 32,
          "name": "G#1",
          "ticks": 92550,
          "time": 75.86061275,
          "velocity": 0.3858267716535433
        },
        {
          "duration": 0.12295075000000111,
          "durationTicks": 150,
          "midi": 44,
          "name": "G#2",
          "ticks": 92700,
          "time": 75.9835635,
          "velocity": 0.6377952755905512
        },
        {
          "duration": 0.12295075000000111,
          "durationTicks": 150,
          "midi": 32,
          "name": "G#1",
          "ticks": 92700,
          "time": 75.9835635,
          "velocity": 0.6377952755905512
        },
        {
          "duration": 0.12295075000000111,
          "durationTicks": 150,
          "midi": 44,
          "name": "G#2",
          "ticks": 92850,
          "time": 76.10651425,
          "velocity": 0.3858267716535433
        },
        {
          "duration": 0.12295075000000111,
          "durationTicks": 150,
          "midi": 32,
          "name": "G#1",
          "ticks": 92850,
          "time": 76.10651425,
          "velocity": 0.3858267716535433
        },
        {
          "duration": 0.1229507499999869,
          "durationTicks": 150,
          "midi": 44,
          "name": "G#2",
          "ticks": 93000,
          "time": 76.229465,
          "velocity": 0.6377952755905512
        },
        {
          "duration": 0.1229507499999869,
          "durationTicks": 150,
          "midi": 32,
          "name": "G#1",
          "ticks": 93000,
          "time": 76.229465,
          "velocity": 0.6377952755905512
        },
        {
          "duration": 0.12295075000000111,
          "durationTicks": 150,
          "midi": 44,
          "name": "G#2",
          "ticks": 93150,
          "time": 76.35241574999999,
          "velocity": 0.3858267716535433
        },
        {
          "duration": 0.12295075000000111,
          "durationTicks": 150,
          "midi": 32,
          "name": "G#1",
          "ticks": 93150,
          "time": 76.35241574999999,
          "velocity": 0.3858267716535433
        },
        {
          "duration": 0.12295075000000111,
          "durationTicks": 150,
          "midi": 44,
          "name": "G#2",
          "ticks": 93300,
          "time": 76.47536649999999,
          "velocity": 0.6377952755905512
        },
        {
          "duration": 0.12295075000000111,
          "durationTicks": 150,
          "midi": 32,
          "name": "G#1",
          "ticks": 93300,
          "time": 76.47536649999999,
          "velocity": 0.6377952755905512
        },
        {
          "duration": 0.12295075000000111,
          "durationTicks": 150,
          "midi": 44,
          "name": "G#2",
          "ticks": 93450,
          "time": 76.59831725,
          "velocity": 0.3937007874015748
        },
        {
          "duration": 0.12295075000000111,
          "durationTicks": 150,
          "midi": 32,
          "name": "G#1",
          "ticks": 93450,
          "time": 76.59831725,
          "velocity": 0.3937007874015748
        },
        {
          "duration": 0.12295075000000111,
          "durationTicks": 150,
          "midi": 46,
          "name": "A#2",
          "ticks": 93600,
          "time": 76.721268,
          "velocity": 0.6299212598425197
        },
        {
          "duration": 0.12295075000000111,
          "durationTicks": 150,
          "midi": 34,
          "name": "A#1",
          "ticks": 93600,
          "time": 76.721268,
          "velocity": 0.6299212598425197
        },
        {
          "duration": 0.12295075000000111,
          "durationTicks": 150,
          "midi": 46,
          "name": "A#2",
          "ticks": 93750,
          "time": 76.84421875,
          "velocity": 0.3858267716535433
        },
        {
          "duration": 0.12295075000000111,
          "durationTicks": 150,
          "midi": 34,
          "name": "A#1",
          "ticks": 93750,
          "time": 76.84421875,
          "velocity": 0.3858267716535433
        },
        {
          "duration": 0.12295075000000111,
          "durationTicks": 150,
          "midi": 46,
          "name": "A#2",
          "ticks": 93900,
          "time": 76.9671695,
          "velocity": 0.6299212598425197
        },
        {
          "duration": 0.12295075000000111,
          "durationTicks": 150,
          "midi": 34,
          "name": "A#1",
          "ticks": 93900,
          "time": 76.9671695,
          "velocity": 0.6299212598425197
        },
        {
          "duration": 0.12295075000000111,
          "durationTicks": 150,
          "midi": 46,
          "name": "A#2",
          "ticks": 94050,
          "time": 77.09012025,
          "velocity": 0.3858267716535433
        },
        {
          "duration": 0.12295075000000111,
          "durationTicks": 150,
          "midi": 34,
          "name": "A#1",
          "ticks": 94050,
          "time": 77.09012025,
          "velocity": 0.3858267716535433
        },
        {
          "duration": 0.12295075000000111,
          "durationTicks": 150,
          "midi": 46,
          "name": "A#2",
          "ticks": 94200,
          "time": 77.213071,
          "velocity": 0.6299212598425197
        },
        {
          "duration": 0.12295075000000111,
          "durationTicks": 150,
          "midi": 34,
          "name": "A#1",
          "ticks": 94200,
          "time": 77.213071,
          "velocity": 0.6299212598425197
        },
        {
          "duration": 0.12295075000000111,
          "durationTicks": 150,
          "midi": 46,
          "name": "A#2",
          "ticks": 94350,
          "time": 77.33602175,
          "velocity": 0.3858267716535433
        },
        {
          "duration": 0.12295075000000111,
          "durationTicks": 150,
          "midi": 34,
          "name": "A#1",
          "ticks": 94350,
          "time": 77.33602175,
          "velocity": 0.3858267716535433
        },
        {
          "duration": 0.12295075000000111,
          "durationTicks": 150,
          "midi": 46,
          "name": "A#2",
          "ticks": 94500,
          "time": 77.4589725,
          "velocity": 0.6299212598425197
        },
        {
          "duration": 0.12295075000000111,
          "durationTicks": 150,
          "midi": 34,
          "name": "A#1",
          "ticks": 94500,
          "time": 77.4589725,
          "velocity": 0.6299212598425197
        },
        {
          "duration": 0.12295075000000111,
          "durationTicks": 150,
          "midi": 47,
          "name": "B2",
          "ticks": 94650,
          "time": 77.58192325,
          "velocity": 0.6299212598425197
        },
        {
          "duration": 0.12295075000000111,
          "durationTicks": 150,
          "midi": 35,
          "name": "B1",
          "ticks": 94650,
          "time": 77.58192325,
          "velocity": 0.6299212598425197
        },
        {
          "duration": 0.12295075000000111,
          "durationTicks": 150,
          "midi": 32,
          "name": "G#1",
          "ticks": 96000,
          "time": 78.68848,
          "velocity": 0.6141732283464567
        },
        {
          "duration": 0.12295075000000111,
          "durationTicks": 150,
          "midi": 44,
          "name": "G#2",
          "ticks": 96000,
          "time": 78.68848,
          "velocity": 0.6141732283464567
        },
        {
          "duration": 0.12295075000000111,
          "durationTicks": 150,
          "midi": 32,
          "name": "G#1",
          "ticks": 96150,
          "time": 78.81143075,
          "velocity": 0.3228346456692913
        },
        {
          "duration": 0.12295075000000111,
          "durationTicks": 150,
          "midi": 44,
          "name": "G#2",
          "ticks": 96150,
          "time": 78.81143075,
          "velocity": 0.3228346456692913
        },
        {
          "duration": 0.12295075000000111,
          "durationTicks": 150,
          "midi": 32,
          "name": "G#1",
          "ticks": 96300,
          "time": 78.9343815,
          "velocity": 0.6141732283464567
        },
        {
          "duration": 0.12295075000000111,
          "durationTicks": 150,
          "midi": 44,
          "name": "G#2",
          "ticks": 96300,
          "time": 78.9343815,
          "velocity": 0.6141732283464567
        },
        {
          "duration": 0.12295075000000111,
          "durationTicks": 150,
          "midi": 32,
          "name": "G#1",
          "ticks": 96450,
          "time": 79.05733225,
          "velocity": 0.3228346456692913
        },
        {
          "duration": 0.12295075000000111,
          "durationTicks": 150,
          "midi": 44,
          "name": "G#2",
          "ticks": 96450,
          "time": 79.05733225,
          "velocity": 0.3228346456692913
        },
        {
          "duration": 0.12295075000000111,
          "durationTicks": 150,
          "midi": 32,
          "name": "G#1",
          "ticks": 96600,
          "time": 79.180283,
          "velocity": 0.6141732283464567
        },
        {
          "duration": 0.12295075000000111,
          "durationTicks": 150,
          "midi": 44,
          "name": "G#2",
          "ticks": 96600,
          "time": 79.180283,
          "velocity": 0.6141732283464567
        },
        {
          "duration": 0.12295075000000111,
          "durationTicks": 150,
          "midi": 32,
          "name": "G#1",
          "ticks": 96750,
          "time": 79.30323375,
          "velocity": 0.3228346456692913
        },
        {
          "duration": 0.12295075000000111,
          "durationTicks": 150,
          "midi": 44,
          "name": "G#2",
          "ticks": 96750,
          "time": 79.30323375,
          "velocity": 0.3228346456692913
        },
        {
          "duration": 0.1229507499999869,
          "durationTicks": 150,
          "midi": 32,
          "name": "G#1",
          "ticks": 96900,
          "time": 79.4261845,
          "velocity": 0.6141732283464567
        },
        {
          "duration": 0.1229507499999869,
          "durationTicks": 150,
          "midi": 44,
          "name": "G#2",
          "ticks": 96900,
          "time": 79.4261845,
          "velocity": 0.6141732283464567
        },
        {
          "duration": 0.24590150000000222,
          "durationTicks": 300,
          "midi": 32,
          "name": "G#1",
          "ticks": 97050,
          "time": 79.54913524999999,
          "velocity": 0.6141732283464567
        },
        {
          "duration": 0.24590150000000222,
          "durationTicks": 300,
          "midi": 44,
          "name": "G#2",
          "ticks": 97050,
          "time": 79.54913524999999,
          "velocity": 0.6141732283464567
        },
        {
          "duration": 0.12295075000000111,
          "durationTicks": 150,
          "midi": 32,
          "name": "G#1",
          "ticks": 97350,
          "time": 79.79503675,
          "velocity": 0.3228346456692913
        },
        {
          "duration": 0.12295075000000111,
          "durationTicks": 150,
          "midi": 44,
          "name": "G#2",
          "ticks": 97350,
          "time": 79.79503675,
          "velocity": 0.3228346456692913
        },
        {
          "duration": 0.12295075000000111,
          "durationTicks": 150,
          "midi": 32,
          "name": "G#1",
          "ticks": 97500,
          "time": 79.9179875,
          "velocity": 0.6220472440944882
        },
        {
          "duration": 0.12295075000000111,
          "durationTicks": 150,
          "midi": 44,
          "name": "G#2",
          "ticks": 97500,
          "time": 79.9179875,
          "velocity": 0.6220472440944882
        },
        {
          "duration": 0.12295075000000111,
          "durationTicks": 150,
          "midi": 32,
          "name": "G#1",
          "ticks": 97650,
          "time": 80.04093825,
          "velocity": 0.3228346456692913
        },
        {
          "duration": 0.12295075000000111,
          "durationTicks": 150,
          "midi": 44,
          "name": "G#2",
          "ticks": 97650,
          "time": 80.04093825,
          "velocity": 0.3228346456692913
        },
        {
          "duration": 0.12295075000000111,
          "durationTicks": 150,
          "midi": 32,
          "name": "G#1",
          "ticks": 97800,
          "time": 80.163889,
          "velocity": 0.6220472440944882
        },
        {
          "duration": 0.12295075000000111,
          "durationTicks": 150,
          "midi": 44,
          "name": "G#2",
          "ticks": 97800,
          "time": 80.163889,
          "velocity": 0.6220472440944882
        },
        {
          "duration": 0.12295075000000111,
          "durationTicks": 150,
          "midi": 32,
          "name": "G#1",
          "ticks": 97950,
          "time": 80.28683975,
          "velocity": 0.3228346456692913
        },
        {
          "duration": 0.12295075000000111,
          "durationTicks": 150,
          "midi": 44,
          "name": "G#2",
          "ticks": 97950,
          "time": 80.28683975,
          "velocity": 0.3228346456692913
        },
        {
          "duration": 0.12295075000000111,
          "durationTicks": 150,
          "midi": 32,
          "name": "G#1",
          "ticks": 98100,
          "time": 80.4097905,
          "velocity": 0.6220472440944882
        },
        {
          "duration": 0.12295075000000111,
          "durationTicks": 150,
          "midi": 44,
          "name": "G#2",
          "ticks": 98100,
          "time": 80.4097905,
          "velocity": 0.6220472440944882
        },
        {
          "duration": 0.12295075000000111,
          "durationTicks": 150,
          "midi": 32,
          "name": "G#1",
          "ticks": 98250,
          "time": 80.53274125,
          "velocity": 0.3228346456692913
        },
        {
          "duration": 0.12295075000000111,
          "durationTicks": 150,
          "midi": 44,
          "name": "G#2",
          "ticks": 98250,
          "time": 80.53274125,
          "velocity": 0.3228346456692913
        },
        {
          "duration": 0.12295075000000111,
          "durationTicks": 150,
          "midi": 34,
          "name": "A#1",
          "ticks": 98400,
          "time": 80.655692,
          "velocity": 0.6141732283464567
        },
        {
          "duration": 0.12295075000000111,
          "durationTicks": 150,
          "midi": 46,
          "name": "A#2",
          "ticks": 98400,
          "time": 80.655692,
          "velocity": 0.6141732283464567
        },
        {
          "duration": 0.12295075000000111,
          "durationTicks": 150,
          "midi": 34,
          "name": "A#1",
          "ticks": 98550,
          "time": 80.77864275,
          "velocity": 0.3228346456692913
        },
        {
          "duration": 0.12295075000000111,
          "durationTicks": 150,
          "midi": 46,
          "name": "A#2",
          "ticks": 98550,
          "time": 80.77864275,
          "velocity": 0.3228346456692913
        },
        {
          "duration": 0.12295075000000111,
          "durationTicks": 150,
          "midi": 34,
          "name": "A#1",
          "ticks": 98700,
          "time": 80.9015935,
          "velocity": 0.6141732283464567
        },
        {
          "duration": 0.12295075000000111,
          "durationTicks": 150,
          "midi": 46,
          "name": "A#2",
          "ticks": 98700,
          "time": 80.9015935,
          "velocity": 0.6141732283464567
        },
        {
          "duration": 0.1229507499999869,
          "durationTicks": 150,
          "midi": 34,
          "name": "A#1",
          "ticks": 98850,
          "time": 81.02454425,
          "velocity": 0.3228346456692913
        },
        {
          "duration": 0.1229507499999869,
          "durationTicks": 150,
          "midi": 46,
          "name": "A#2",
          "ticks": 98850,
          "time": 81.02454425,
          "velocity": 0.3228346456692913
        },
        {
          "duration": 0.12295075000000111,
          "durationTicks": 150,
          "midi": 34,
          "name": "A#1",
          "ticks": 99000,
          "time": 81.14749499999999,
          "velocity": 0.6141732283464567
        },
        {
          "duration": 0.12295075000000111,
          "durationTicks": 150,
          "midi": 46,
          "name": "A#2",
          "ticks": 99000,
          "time": 81.14749499999999,
          "velocity": 0.6141732283464567
        },
        {
          "duration": 0.12295075000000111,
          "durationTicks": 150,
          "midi": 34,
          "name": "A#1",
          "ticks": 99150,
          "time": 81.27044575,
          "velocity": 0.3228346456692913
        },
        {
          "duration": 0.12295075000000111,
          "durationTicks": 150,
          "midi": 46,
          "name": "A#2",
          "ticks": 99150,
          "time": 81.27044575,
          "velocity": 0.3228346456692913
        },
        {
          "duration": 0.12295075000000111,
          "durationTicks": 150,
          "midi": 34,
          "name": "A#1",
          "ticks": 99300,
          "time": 81.3933965,
          "velocity": 0.6141732283464567
        },
        {
          "duration": 0.12295075000000111,
          "durationTicks": 150,
          "midi": 46,
          "name": "A#2",
          "ticks": 99300,
          "time": 81.3933965,
          "velocity": 0.6141732283464567
        },
        {
          "duration": 0.24590150000000222,
          "durationTicks": 300,
          "midi": 34,
          "name": "A#1",
          "ticks": 99450,
          "time": 81.51634725,
          "velocity": 0.6141732283464567
        },
        {
          "duration": 0.24590150000000222,
          "durationTicks": 300,
          "midi": 46,
          "name": "A#2",
          "ticks": 99450,
          "time": 81.51634725,
          "velocity": 0.6141732283464567
        },
        {
          "duration": 0.12295075000000111,
          "durationTicks": 150,
          "midi": 34,
          "name": "A#1",
          "ticks": 99750,
          "time": 81.76224875,
          "velocity": 0.3228346456692913
        },
        {
          "duration": 0.12295075000000111,
          "durationTicks": 150,
          "midi": 46,
          "name": "A#2",
          "ticks": 99750,
          "time": 81.76224875,
          "velocity": 0.3228346456692913
        },
        {
          "duration": 0.12295075000000111,
          "durationTicks": 150,
          "midi": 34,
          "name": "A#1",
          "ticks": 99900,
          "time": 81.8851995,
          "velocity": 0.6220472440944882
        },
        {
          "duration": 0.12295075000000111,
          "durationTicks": 150,
          "midi": 46,
          "name": "A#2",
          "ticks": 99900,
          "time": 81.8851995,
          "velocity": 0.6220472440944882
        },
        {
          "duration": 0.12295075000000111,
          "durationTicks": 150,
          "midi": 34,
          "name": "A#1",
          "ticks": 100050,
          "time": 82.00815025,
          "velocity": 0.3228346456692913
        },
        {
          "duration": 0.12295075000000111,
          "durationTicks": 150,
          "midi": 46,
          "name": "A#2",
          "ticks": 100050,
          "time": 82.00815025,
          "velocity": 0.3228346456692913
        },
        {
          "duration": 0.12295075000000111,
          "durationTicks": 150,
          "midi": 34,
          "name": "A#1",
          "ticks": 100200,
          "time": 82.131101,
          "velocity": 0.6220472440944882
        },
        {
          "duration": 0.12295075000000111,
          "durationTicks": 150,
          "midi": 46,
          "name": "A#2",
          "ticks": 100200,
          "time": 82.131101,
          "velocity": 0.6220472440944882
        },
        {
          "duration": 0.12295075000000111,
          "durationTicks": 150,
          "midi": 34,
          "name": "A#1",
          "ticks": 100350,
          "time": 82.25405175,
          "velocity": 0.3228346456692913
        },
        {
          "duration": 0.12295075000000111,
          "durationTicks": 150,
          "midi": 46,
          "name": "A#2",
          "ticks": 100350,
          "time": 82.25405175,
          "velocity": 0.3228346456692913
        },
        {
          "duration": 0.12295075000000111,
          "durationTicks": 150,
          "midi": 34,
          "name": "A#1",
          "ticks": 100500,
          "time": 82.3770025,
          "velocity": 0.6220472440944882
        },
        {
          "duration": 0.12295075000000111,
          "durationTicks": 150,
          "midi": 46,
          "name": "A#2",
          "ticks": 100500,
          "time": 82.3770025,
          "velocity": 0.6220472440944882
        },
        {
          "duration": 0.12295075000000111,
          "durationTicks": 150,
          "midi": 34,
          "name": "A#1",
          "ticks": 100650,
          "time": 82.49995325,
          "velocity": 0.3228346456692913
        },
        {
          "duration": 0.12295075000000111,
          "durationTicks": 150,
          "midi": 46,
          "name": "A#2",
          "ticks": 100650,
          "time": 82.49995325,
          "velocity": 0.3228346456692913
        },
        {
          "duration": 0.1229507499999869,
          "durationTicks": 150,
          "midi": 31,
          "name": "G1",
          "ticks": 100800,
          "time": 82.622904,
          "velocity": 0.6141732283464567
        },
        {
          "duration": 0.1229507499999869,
          "durationTicks": 150,
          "midi": 43,
          "name": "G2",
          "ticks": 100800,
          "time": 82.622904,
          "velocity": 0.6141732283464567
        },
        {
          "duration": 0.12295075000000111,
          "durationTicks": 150,
          "midi": 31,
          "name": "G1",
          "ticks": 100950,
          "time": 82.74585474999999,
          "velocity": 0.3228346456692913
        },
        {
          "duration": 0.12295075000000111,
          "durationTicks": 150,
          "midi": 43,
          "name": "G2",
          "ticks": 100950,
          "time": 82.74585474999999,
          "velocity": 0.3228346456692913
        },
        {
          "duration": 0.12295075000000111,
          "durationTicks": 150,
          "midi": 31,
          "name": "G1",
          "ticks": 101100,
          "time": 82.8688055,
          "velocity": 0.6141732283464567
        },
        {
          "duration": 0.12295075000000111,
          "durationTicks": 150,
          "midi": 43,
          "name": "G2",
          "ticks": 101100,
          "time": 82.8688055,
          "velocity": 0.6141732283464567
        },
        {
          "duration": 0.12295075000000111,
          "durationTicks": 150,
          "midi": 31,
          "name": "G1",
          "ticks": 101250,
          "time": 82.99175625,
          "velocity": 0.3228346456692913
        },
        {
          "duration": 0.12295075000000111,
          "durationTicks": 150,
          "midi": 43,
          "name": "G2",
          "ticks": 101250,
          "time": 82.99175625,
          "velocity": 0.3228346456692913
        },
        {
          "duration": 0.12295075000000111,
          "durationTicks": 150,
          "midi": 31,
          "name": "G1",
          "ticks": 101400,
          "time": 83.114707,
          "velocity": 0.6141732283464567
        },
        {
          "duration": 0.12295075000000111,
          "durationTicks": 150,
          "midi": 43,
          "name": "G2",
          "ticks": 101400,
          "time": 83.114707,
          "velocity": 0.6141732283464567
        },
        {
          "duration": 0.12295075000000111,
          "durationTicks": 150,
          "midi": 31,
          "name": "G1",
          "ticks": 101550,
          "time": 83.23765775,
          "velocity": 0.3228346456692913
        },
        {
          "duration": 0.12295075000000111,
          "durationTicks": 150,
          "midi": 43,
          "name": "G2",
          "ticks": 101550,
          "time": 83.23765775,
          "velocity": 0.3228346456692913
        },
        {
          "duration": 0.12295075000000111,
          "durationTicks": 150,
          "midi": 31,
          "name": "G1",
          "ticks": 101700,
          "time": 83.3606085,
          "velocity": 0.6141732283464567
        },
        {
          "duration": 0.12295075000000111,
          "durationTicks": 150,
          "midi": 43,
          "name": "G2",
          "ticks": 101700,
          "time": 83.3606085,
          "velocity": 0.6141732283464567
        },
        {
          "duration": 0.24590150000000222,
          "durationTicks": 300,
          "midi": 31,
          "name": "G1",
          "ticks": 101850,
          "time": 83.48355925,
          "velocity": 0.6141732283464567
        },
        {
          "duration": 0.24590150000000222,
          "durationTicks": 300,
          "midi": 43,
          "name": "G2",
          "ticks": 101850,
          "time": 83.48355925,
          "velocity": 0.6141732283464567
        },
        {
          "duration": 0.12295075000000111,
          "durationTicks": 150,
          "midi": 31,
          "name": "G1",
          "ticks": 102150,
          "time": 83.72946075,
          "velocity": 0.3228346456692913
        },
        {
          "duration": 0.12295075000000111,
          "durationTicks": 150,
          "midi": 43,
          "name": "G2",
          "ticks": 102150,
          "time": 83.72946075,
          "velocity": 0.3228346456692913
        },
        {
          "duration": 0.12295075000000111,
          "durationTicks": 150,
          "midi": 31,
          "name": "G1",
          "ticks": 102300,
          "time": 83.8524115,
          "velocity": 0.6220472440944882
        },
        {
          "duration": 0.12295075000000111,
          "durationTicks": 150,
          "midi": 43,
          "name": "G2",
          "ticks": 102300,
          "time": 83.8524115,
          "velocity": 0.6220472440944882
        },
        {
          "duration": 0.12295075000000111,
          "durationTicks": 150,
          "midi": 31,
          "name": "G1",
          "ticks": 102450,
          "time": 83.97536225,
          "velocity": 0.3228346456692913
        },
        {
          "duration": 0.12295075000000111,
          "durationTicks": 150,
          "midi": 43,
          "name": "G2",
          "ticks": 102450,
          "time": 83.97536225,
          "velocity": 0.3228346456692913
        },
        {
          "duration": 0.1229507499999869,
          "durationTicks": 150,
          "midi": 31,
          "name": "G1",
          "ticks": 102600,
          "time": 84.098313,
          "velocity": 0.6220472440944882
        },
        {
          "duration": 0.1229507499999869,
          "durationTicks": 150,
          "midi": 43,
          "name": "G2",
          "ticks": 102600,
          "time": 84.098313,
          "velocity": 0.6220472440944882
        },
        {
          "duration": 0.12295075000000111,
          "durationTicks": 150,
          "midi": 31,
          "name": "G1",
          "ticks": 102750,
          "time": 84.22126374999999,
          "velocity": 0.3228346456692913
        },
        {
          "duration": 0.12295075000000111,
          "durationTicks": 150,
          "midi": 43,
          "name": "G2",
          "ticks": 102750,
          "time": 84.22126374999999,
          "velocity": 0.3228346456692913
        },
        {
          "duration": 0.12295075000000111,
          "durationTicks": 150,
          "midi": 31,
          "name": "G1",
          "ticks": 102900,
          "time": 84.34421449999999,
          "velocity": 0.6220472440944882
        },
        {
          "duration": 0.12295075000000111,
          "durationTicks": 150,
          "midi": 43,
          "name": "G2",
          "ticks": 102900,
          "time": 84.34421449999999,
          "velocity": 0.6220472440944882
        },
        {
          "duration": 0.12295075000000111,
          "durationTicks": 150,
          "midi": 31,
          "name": "G1",
          "ticks": 103050,
          "time": 84.46716525,
          "velocity": 0.3228346456692913
        },
        {
          "duration": 0.12295075000000111,
          "durationTicks": 150,
          "midi": 43,
          "name": "G2",
          "ticks": 103050,
          "time": 84.46716525,
          "velocity": 0.3228346456692913
        },
        {
          "duration": 0.12295075000000111,
          "durationTicks": 150,
          "midi": 36,
          "name": "C2",
          "ticks": 103200,
          "time": 84.590116,
          "velocity": 0.6141732283464567
        },
        {
          "duration": 0.12295075000000111,
          "durationTicks": 150,
          "midi": 48,
          "name": "C3",
          "ticks": 103200,
          "time": 84.590116,
          "velocity": 0.6141732283464567
        },
        {
          "duration": 0.12295075000000111,
          "durationTicks": 150,
          "midi": 36,
          "name": "C2",
          "ticks": 103350,
          "time": 84.71306675,
          "velocity": 0.3228346456692913
        },
        {
          "duration": 0.12295075000000111,
          "durationTicks": 150,
          "midi": 48,
          "name": "C3",
          "ticks": 103350,
          "time": 84.71306675,
          "velocity": 0.3228346456692913
        },
        {
          "duration": 0.12295075000000111,
          "durationTicks": 150,
          "midi": 36,
          "name": "C2",
          "ticks": 103500,
          "time": 84.8360175,
          "velocity": 0.6141732283464567
        },
        {
          "duration": 0.12295075000000111,
          "durationTicks": 150,
          "midi": 48,
          "name": "C3",
          "ticks": 103500,
          "time": 84.8360175,
          "velocity": 0.6141732283464567
        },
        {
          "duration": 0.12295075000000111,
          "durationTicks": 150,
          "midi": 36,
          "name": "C2",
          "ticks": 103650,
          "time": 84.95896825,
          "velocity": 0.3228346456692913
        },
        {
          "duration": 0.12295075000000111,
          "durationTicks": 150,
          "midi": 48,
          "name": "C3",
          "ticks": 103650,
          "time": 84.95896825,
          "velocity": 0.3228346456692913
        },
        {
          "duration": 0.12295075000000111,
          "durationTicks": 150,
          "midi": 36,
          "name": "C2",
          "ticks": 103800,
          "time": 85.081919,
          "velocity": 0.6141732283464567
        },
        {
          "duration": 0.12295075000000111,
          "durationTicks": 150,
          "midi": 48,
          "name": "C3",
          "ticks": 103800,
          "time": 85.081919,
          "velocity": 0.6141732283464567
        },
        {
          "duration": 0.12295075000000111,
          "durationTicks": 150,
          "midi": 36,
          "name": "C2",
          "ticks": 103950,
          "time": 85.20486975,
          "velocity": 0.3228346456692913
        },
        {
          "duration": 0.12295075000000111,
          "durationTicks": 150,
          "midi": 48,
          "name": "C3",
          "ticks": 103950,
          "time": 85.20486975,
          "velocity": 0.3228346456692913
        },
        {
          "duration": 0.12295075000000111,
          "durationTicks": 150,
          "midi": 36,
          "name": "C2",
          "ticks": 104100,
          "time": 85.3278205,
          "velocity": 0.6141732283464567
        },
        {
          "duration": 0.12295075000000111,
          "durationTicks": 150,
          "midi": 48,
          "name": "C3",
          "ticks": 104100,
          "time": 85.3278205,
          "velocity": 0.6141732283464567
        },
        {
          "duration": 0.24590150000000222,
          "durationTicks": 300,
          "midi": 39,
          "name": "D#2",
          "ticks": 104250,
          "time": 85.45077125,
          "velocity": 0.6141732283464567
        },
        {
          "duration": 0.24590150000000222,
          "durationTicks": 300,
          "midi": 51,
          "name": "D#3",
          "ticks": 104250,
          "time": 85.45077125,
          "velocity": 0.6141732283464567
        },
        {
          "duration": 0.1229507499999869,
          "durationTicks": 150,
          "midi": 39,
          "name": "D#2",
          "ticks": 104550,
          "time": 85.69667275,
          "velocity": 0.3228346456692913
        },
        {
          "duration": 0.1229507499999869,
          "durationTicks": 150,
          "midi": 51,
          "name": "D#3",
          "ticks": 104550,
          "time": 85.69667275,
          "velocity": 0.3228346456692913
        },
        {
          "duration": 0.12295075000000111,
          "durationTicks": 150,
          "midi": 39,
          "name": "D#2",
          "ticks": 104700,
          "time": 85.81962349999999,
          "velocity": 0.6220472440944882
        },
        {
          "duration": 0.12295075000000111,
          "durationTicks": 150,
          "midi": 51,
          "name": "D#3",
          "ticks": 104700,
          "time": 85.81962349999999,
          "velocity": 0.6220472440944882
        },
        {
          "duration": 0.12295075000000111,
          "durationTicks": 150,
          "midi": 39,
          "name": "D#2",
          "ticks": 104850,
          "time": 85.94257424999999,
          "velocity": 0.3228346456692913
        },
        {
          "duration": 0.12295075000000111,
          "durationTicks": 150,
          "midi": 51,
          "name": "D#3",
          "ticks": 104850,
          "time": 85.94257424999999,
          "velocity": 0.3228346456692913
        },
        {
          "duration": 0.12295075000000111,
          "durationTicks": 150,
          "midi": 39,
          "name": "D#2",
          "ticks": 105000,
          "time": 86.065525,
          "velocity": 0.6220472440944882
        },
        {
          "duration": 0.12295075000000111,
          "durationTicks": 150,
          "midi": 51,
          "name": "D#3",
          "ticks": 105000,
          "time": 86.065525,
          "velocity": 0.6220472440944882
        },
        {
          "duration": 0.12295075000000111,
          "durationTicks": 150,
          "midi": 39,
          "name": "D#2",
          "ticks": 105150,
          "time": 86.18847575,
          "velocity": 0.3228346456692913
        },
        {
          "duration": 0.12295075000000111,
          "durationTicks": 150,
          "midi": 51,
          "name": "D#3",
          "ticks": 105150,
          "time": 86.18847575,
          "velocity": 0.3228346456692913
        },
        {
          "duration": 0.12295075000000111,
          "durationTicks": 150,
          "midi": 39,
          "name": "D#2",
          "ticks": 105300,
          "time": 86.3114265,
          "velocity": 0.6220472440944882
        },
        {
          "duration": 0.12295075000000111,
          "durationTicks": 150,
          "midi": 51,
          "name": "D#3",
          "ticks": 105300,
          "time": 86.3114265,
          "velocity": 0.6220472440944882
        },
        {
          "duration": 0.12295075000000111,
          "durationTicks": 150,
          "midi": 39,
          "name": "D#2",
          "ticks": 105450,
          "time": 86.43437725,
          "velocity": 0.3228346456692913
        },
        {
          "duration": 0.12295075000000111,
          "durationTicks": 150,
          "midi": 51,
          "name": "D#3",
          "ticks": 105450,
          "time": 86.43437725,
          "velocity": 0.3228346456692913
        },
        {
          "duration": 0.12295075000000111,
          "durationTicks": 150,
          "midi": 32,
          "name": "G#1",
          "ticks": 105600,
          "time": 86.557328,
          "velocity": 0.6141732283464567
        },
        {
          "duration": 0.12295075000000111,
          "durationTicks": 150,
          "midi": 44,
          "name": "G#2",
          "ticks": 105600,
          "time": 86.557328,
          "velocity": 0.6141732283464567
        },
        {
          "duration": 0.12295075000000111,
          "durationTicks": 150,
          "midi": 32,
          "name": "G#1",
          "ticks": 105750,
          "time": 86.68027875,
          "velocity": 0.3228346456692913
        },
        {
          "duration": 0.12295075000000111,
          "durationTicks": 150,
          "midi": 44,
          "name": "G#2",
          "ticks": 105750,
          "time": 86.68027875,
          "velocity": 0.3228346456692913
        },
        {
          "duration": 0.12295075000000111,
          "durationTicks": 150,
          "midi": 32,
          "name": "G#1",
          "ticks": 105900,
          "time": 86.8032295,
          "velocity": 0.6141732283464567
        },
        {
          "duration": 0.12295075000000111,
          "durationTicks": 150,
          "midi": 44,
          "name": "G#2",
          "ticks": 105900,
          "time": 86.8032295,
          "velocity": 0.6141732283464567
        },
        {
          "duration": 0.12295075000000111,
          "durationTicks": 150,
          "midi": 32,
          "name": "G#1",
          "ticks": 106050,
          "time": 86.92618025,
          "velocity": 0.3228346456692913
        },
        {
          "duration": 0.12295075000000111,
          "durationTicks": 150,
          "midi": 44,
          "name": "G#2",
          "ticks": 106050,
          "time": 86.92618025,
          "velocity": 0.3228346456692913
        },
        {
          "duration": 0.12295075000000111,
          "durationTicks": 150,
          "midi": 32,
          "name": "G#1",
          "ticks": 106200,
          "time": 87.049131,
          "velocity": 0.6141732283464567
        },
        {
          "duration": 0.12295075000000111,
          "durationTicks": 150,
          "midi": 44,
          "name": "G#2",
          "ticks": 106200,
          "time": 87.049131,
          "velocity": 0.6141732283464567
        },
        {
          "duration": 0.12295075000000111,
          "durationTicks": 150,
          "midi": 32,
          "name": "G#1",
          "ticks": 106350,
          "time": 87.17208175,
          "velocity": 0.3228346456692913
        },
        {
          "duration": 0.12295075000000111,
          "durationTicks": 150,
          "midi": 44,
          "name": "G#2",
          "ticks": 106350,
          "time": 87.17208175,
          "velocity": 0.3228346456692913
        },
        {
          "duration": 0.1229507499999869,
          "durationTicks": 150,
          "midi": 32,
          "name": "G#1",
          "ticks": 106500,
          "time": 87.2950325,
          "velocity": 0.6141732283464567
        },
        {
          "duration": 0.1229507499999869,
          "durationTicks": 150,
          "midi": 44,
          "name": "G#2",
          "ticks": 106500,
          "time": 87.2950325,
          "velocity": 0.6141732283464567
        },
        {
          "duration": 0.24590150000000222,
          "durationTicks": 300,
          "midi": 32,
          "name": "G#1",
          "ticks": 106650,
          "time": 87.41798324999999,
          "velocity": 0.6141732283464567
        },
        {
          "duration": 0.24590150000000222,
          "durationTicks": 300,
          "midi": 44,
          "name": "G#2",
          "ticks": 106650,
          "time": 87.41798324999999,
          "velocity": 0.6141732283464567
        },
        {
          "duration": 0.12295075000000111,
          "durationTicks": 150,
          "midi": 32,
          "name": "G#1",
          "ticks": 106950,
          "time": 87.66388475,
          "velocity": 0.3228346456692913
        },
        {
          "duration": 0.12295075000000111,
          "durationTicks": 150,
          "midi": 44,
          "name": "G#2",
          "ticks": 106950,
          "time": 87.66388475,
          "velocity": 0.3228346456692913
        },
        {
          "duration": 0.12295075000000111,
          "durationTicks": 150,
          "midi": 32,
          "name": "G#1",
          "ticks": 107100,
          "time": 87.7868355,
          "velocity": 0.6220472440944882
        },
        {
          "duration": 0.12295075000000111,
          "durationTicks": 150,
          "midi": 44,
          "name": "G#2",
          "ticks": 107100,
          "time": 87.7868355,
          "velocity": 0.6220472440944882
        },
        {
          "duration": 0.12295075000000111,
          "durationTicks": 150,
          "midi": 32,
          "name": "G#1",
          "ticks": 107250,
          "time": 87.90978625,
          "velocity": 0.3228346456692913
        },
        {
          "duration": 0.12295075000000111,
          "durationTicks": 150,
          "midi": 44,
          "name": "G#2",
          "ticks": 107250,
          "time": 87.90978625,
          "velocity": 0.3228346456692913
        },
        {
          "duration": 0.12295075000000111,
          "durationTicks": 150,
          "midi": 32,
          "name": "G#1",
          "ticks": 107400,
          "time": 88.032737,
          "velocity": 0.6220472440944882
        },
        {
          "duration": 0.12295075000000111,
          "durationTicks": 150,
          "midi": 44,
          "name": "G#2",
          "ticks": 107400,
          "time": 88.032737,
          "velocity": 0.6220472440944882
        },
        {
          "duration": 0.12295075000000111,
          "durationTicks": 150,
          "midi": 32,
          "name": "G#1",
          "ticks": 107550,
          "time": 88.15568775,
          "velocity": 0.3228346456692913
        },
        {
          "duration": 0.12295075000000111,
          "durationTicks": 150,
          "midi": 44,
          "name": "G#2",
          "ticks": 107550,
          "time": 88.15568775,
          "velocity": 0.3228346456692913
        },
        {
          "duration": 0.12295075000000111,
          "durationTicks": 150,
          "midi": 32,
          "name": "G#1",
          "ticks": 107700,
          "time": 88.2786385,
          "velocity": 0.6220472440944882
        },
        {
          "duration": 0.12295075000000111,
          "durationTicks": 150,
          "midi": 44,
          "name": "G#2",
          "ticks": 107700,
          "time": 88.2786385,
          "velocity": 0.6220472440944882
        },
        {
          "duration": 0.12295075000000111,
          "durationTicks": 150,
          "midi": 32,
          "name": "G#1",
          "ticks": 107850,
          "time": 88.40158925,
          "velocity": 0.3228346456692913
        },
        {
          "duration": 0.12295075000000111,
          "durationTicks": 150,
          "midi": 44,
          "name": "G#2",
          "ticks": 107850,
          "time": 88.40158925,
          "velocity": 0.3228346456692913
        },
        {
          "duration": 0.12295075000000111,
          "durationTicks": 150,
          "midi": 34,
          "name": "A#1",
          "ticks": 108000,
          "time": 88.52454,
          "velocity": 0.6141732283464567
        },
        {
          "duration": 0.12295075000000111,
          "durationTicks": 150,
          "midi": 46,
          "name": "A#2",
          "ticks": 108000,
          "time": 88.52454,
          "velocity": 0.6141732283464567
        },
        {
          "duration": 0.12295075000000111,
          "durationTicks": 150,
          "midi": 34,
          "name": "A#1",
          "ticks": 108150,
          "time": 88.64749075,
          "velocity": 0.3228346456692913
        },
        {
          "duration": 0.12295075000000111,
          "durationTicks": 150,
          "midi": 46,
          "name": "A#2",
          "ticks": 108150,
          "time": 88.64749075,
          "velocity": 0.3228346456692913
        },
        {
          "duration": 0.12295075000000111,
          "durationTicks": 150,
          "midi": 34,
          "name": "A#1",
          "ticks": 108300,
          "time": 88.7704415,
          "velocity": 0.6141732283464567
        },
        {
          "duration": 0.12295075000000111,
          "durationTicks": 150,
          "midi": 46,
          "name": "A#2",
          "ticks": 108300,
          "time": 88.7704415,
          "velocity": 0.6141732283464567
        },
        {
          "duration": 0.1229507499999869,
          "durationTicks": 150,
          "midi": 34,
          "name": "A#1",
          "ticks": 108450,
          "time": 88.89339225,
          "velocity": 0.3228346456692913
        },
        {
          "duration": 0.1229507499999869,
          "durationTicks": 150,
          "midi": 46,
          "name": "A#2",
          "ticks": 108450,
          "time": 88.89339225,
          "velocity": 0.3228346456692913
        },
        {
          "duration": 0.12295075000000111,
          "durationTicks": 150,
          "midi": 34,
          "name": "A#1",
          "ticks": 108600,
          "time": 89.01634299999999,
          "velocity": 0.6141732283464567
        },
        {
          "duration": 0.12295075000000111,
          "durationTicks": 150,
          "midi": 46,
          "name": "A#2",
          "ticks": 108600,
          "time": 89.01634299999999,
          "velocity": 0.6141732283464567
        },
        {
          "duration": 0.12295075000000111,
          "durationTicks": 150,
          "midi": 34,
          "name": "A#1",
          "ticks": 108750,
          "time": 89.13929375,
          "velocity": 0.3228346456692913
        },
        {
          "duration": 0.12295075000000111,
          "durationTicks": 150,
          "midi": 46,
          "name": "A#2",
          "ticks": 108750,
          "time": 89.13929375,
          "velocity": 0.3228346456692913
        },
        {
          "duration": 0.12295075000000111,
          "durationTicks": 150,
          "midi": 34,
          "name": "A#1",
          "ticks": 108900,
          "time": 89.2622445,
          "velocity": 0.6141732283464567
        },
        {
          "duration": 0.12295075000000111,
          "durationTicks": 150,
          "midi": 46,
          "name": "A#2",
          "ticks": 108900,
          "time": 89.2622445,
          "velocity": 0.6141732283464567
        },
        {
          "duration": 0.24590150000000222,
          "durationTicks": 300,
          "midi": 34,
          "name": "A#1",
          "ticks": 109050,
          "time": 89.38519525,
          "velocity": 0.6141732283464567
        },
        {
          "duration": 0.24590150000000222,
          "durationTicks": 300,
          "midi": 46,
          "name": "A#2",
          "ticks": 109050,
          "time": 89.38519525,
          "velocity": 0.6141732283464567
        },
        {
          "duration": 0.12295075000000111,
          "durationTicks": 150,
          "midi": 34,
          "name": "A#1",
          "ticks": 109350,
          "time": 89.63109675,
          "velocity": 0.3228346456692913
        },
        {
          "duration": 0.12295075000000111,
          "durationTicks": 150,
          "midi": 46,
          "name": "A#2",
          "ticks": 109350,
          "time": 89.63109675,
          "velocity": 0.3228346456692913
        },
        {
          "duration": 0.12295075000000111,
          "durationTicks": 150,
          "midi": 34,
          "name": "A#1",
          "ticks": 109500,
          "time": 89.7540475,
          "velocity": 0.6220472440944882
        },
        {
          "duration": 0.12295075000000111,
          "durationTicks": 150,
          "midi": 46,
          "name": "A#2",
          "ticks": 109500,
          "time": 89.7540475,
          "velocity": 0.6220472440944882
        },
        {
          "duration": 0.12295075000000111,
          "durationTicks": 150,
          "midi": 34,
          "name": "A#1",
          "ticks": 109650,
          "time": 89.87699825,
          "velocity": 0.3228346456692913
        },
        {
          "duration": 0.12295075000000111,
          "durationTicks": 150,
          "midi": 46,
          "name": "A#2",
          "ticks": 109650,
          "time": 89.87699825,
          "velocity": 0.3228346456692913
        },
        {
          "duration": 0.12295075000000111,
          "durationTicks": 150,
          "midi": 34,
          "name": "A#1",
          "ticks": 109800,
          "time": 89.999949,
          "velocity": 0.6220472440944882
        },
        {
          "duration": 0.12295075000000111,
          "durationTicks": 150,
          "midi": 46,
          "name": "A#2",
          "ticks": 109800,
          "time": 89.999949,
          "velocity": 0.6220472440944882
        },
        {
          "duration": 0.12295075000000111,
          "durationTicks": 150,
          "midi": 34,
          "name": "A#1",
          "ticks": 109950,
          "time": 90.12289975,
          "velocity": 0.3228346456692913
        },
        {
          "duration": 0.12295075000000111,
          "durationTicks": 150,
          "midi": 46,
          "name": "A#2",
          "ticks": 109950,
          "time": 90.12289975,
          "velocity": 0.3228346456692913
        },
        {
          "duration": 0.12295075000000111,
          "durationTicks": 150,
          "midi": 34,
          "name": "A#1",
          "ticks": 110100,
          "time": 90.2458505,
          "velocity": 0.6220472440944882
        },
        {
          "duration": 0.12295075000000111,
          "durationTicks": 150,
          "midi": 46,
          "name": "A#2",
          "ticks": 110100,
          "time": 90.2458505,
          "velocity": 0.6220472440944882
        },
        {
          "duration": 0.1229507499999869,
          "durationTicks": 150,
          "midi": 34,
          "name": "A#1",
          "ticks": 110250,
          "time": 90.36880125,
          "velocity": 0.3228346456692913
        },
        {
          "duration": 0.1229507499999869,
          "durationTicks": 150,
          "midi": 46,
          "name": "A#2",
          "ticks": 110250,
          "time": 90.36880125,
          "velocity": 0.3228346456692913
        },
        {
          "duration": 0.12295075000000111,
          "durationTicks": 150,
          "midi": 31,
          "name": "G1",
          "ticks": 110400,
          "time": 90.49175199999999,
          "velocity": 0.6141732283464567
        },
        {
          "duration": 0.12295075000000111,
          "durationTicks": 150,
          "midi": 43,
          "name": "G2",
          "ticks": 110400,
          "time": 90.49175199999999,
          "velocity": 0.6141732283464567
        },
        {
          "duration": 0.12295075000000111,
          "durationTicks": 150,
          "midi": 31,
          "name": "G1",
          "ticks": 110550,
          "time": 90.61470274999999,
          "velocity": 0.3228346456692913
        },
        {
          "duration": 0.12295075000000111,
          "durationTicks": 150,
          "midi": 43,
          "name": "G2",
          "ticks": 110550,
          "time": 90.61470274999999,
          "velocity": 0.3228346456692913
        },
        {
          "duration": 0.12295075000000111,
          "durationTicks": 150,
          "midi": 31,
          "name": "G1",
          "ticks": 110700,
          "time": 90.7376535,
          "velocity": 0.6141732283464567
        },
        {
          "duration": 0.12295075000000111,
          "durationTicks": 150,
          "midi": 43,
          "name": "G2",
          "ticks": 110700,
          "time": 90.7376535,
          "velocity": 0.6141732283464567
        },
        {
          "duration": 0.12295075000000111,
          "durationTicks": 150,
          "midi": 31,
          "name": "G1",
          "ticks": 110850,
          "time": 90.86060425,
          "velocity": 0.3228346456692913
        },
        {
          "duration": 0.12295075000000111,
          "durationTicks": 150,
          "midi": 43,
          "name": "G2",
          "ticks": 110850,
          "time": 90.86060425,
          "velocity": 0.3228346456692913
        },
        {
          "duration": 0.12295075000000111,
          "durationTicks": 150,
          "midi": 31,
          "name": "G1",
          "ticks": 111000,
          "time": 90.983555,
          "velocity": 0.6141732283464567
        },
        {
          "duration": 0.12295075000000111,
          "durationTicks": 150,
          "midi": 43,
          "name": "G2",
          "ticks": 111000,
          "time": 90.983555,
          "velocity": 0.6141732283464567
        },
        {
          "duration": 0.12295075000000111,
          "durationTicks": 150,
          "midi": 31,
          "name": "G1",
          "ticks": 111150,
          "time": 91.10650575,
          "velocity": 0.3228346456692913
        },
        {
          "duration": 0.12295075000000111,
          "durationTicks": 150,
          "midi": 43,
          "name": "G2",
          "ticks": 111150,
          "time": 91.10650575,
          "velocity": 0.3228346456692913
        },
        {
          "duration": 0.12295075000000111,
          "durationTicks": 150,
          "midi": 31,
          "name": "G1",
          "ticks": 111300,
          "time": 91.2294565,
          "velocity": 0.6141732283464567
        },
        {
          "duration": 0.12295075000000111,
          "durationTicks": 150,
          "midi": 43,
          "name": "G2",
          "ticks": 111300,
          "time": 91.2294565,
          "velocity": 0.6141732283464567
        },
        {
          "duration": 0.24590150000000222,
          "durationTicks": 300,
          "midi": 31,
          "name": "G1",
          "ticks": 111450,
          "time": 91.35240725,
          "velocity": 0.6141732283464567
        },
        {
          "duration": 0.24590150000000222,
          "durationTicks": 300,
          "midi": 43,
          "name": "G2",
          "ticks": 111450,
          "time": 91.35240725,
          "velocity": 0.6141732283464567
        },
        {
          "duration": 0.12295075000000111,
          "durationTicks": 150,
          "midi": 31,
          "name": "G1",
          "ticks": 111750,
          "time": 91.59830875,
          "velocity": 0.3228346456692913
        },
        {
          "duration": 0.12295075000000111,
          "durationTicks": 150,
          "midi": 43,
          "name": "G2",
          "ticks": 111750,
          "time": 91.59830875,
          "velocity": 0.3228346456692913
        },
        {
          "duration": 0.12295075000000111,
          "durationTicks": 150,
          "midi": 31,
          "name": "G1",
          "ticks": 111900,
          "time": 91.7212595,
          "velocity": 0.6220472440944882
        },
        {
          "duration": 0.12295075000000111,
          "durationTicks": 150,
          "midi": 43,
          "name": "G2",
          "ticks": 111900,
          "time": 91.7212595,
          "velocity": 0.6220472440944882
        },
        {
          "duration": 0.12295075000000111,
          "durationTicks": 150,
          "midi": 31,
          "name": "G1",
          "ticks": 112050,
          "time": 91.84421025,
          "velocity": 0.3228346456692913
        },
        {
          "duration": 0.12295075000000111,
          "durationTicks": 150,
          "midi": 43,
          "name": "G2",
          "ticks": 112050,
          "time": 91.84421025,
          "velocity": 0.3228346456692913
        },
        {
          "duration": 0.1229507499999869,
          "durationTicks": 150,
          "midi": 31,
          "name": "G1",
          "ticks": 112200,
          "time": 91.967161,
          "velocity": 0.6220472440944882
        },
        {
          "duration": 0.1229507499999869,
          "durationTicks": 150,
          "midi": 43,
          "name": "G2",
          "ticks": 112200,
          "time": 91.967161,
          "velocity": 0.6220472440944882
        },
        {
          "duration": 0.12295075000000111,
          "durationTicks": 150,
          "midi": 31,
          "name": "G1",
          "ticks": 112350,
          "time": 92.09011174999999,
          "velocity": 0.3228346456692913
        },
        {
          "duration": 0.12295075000000111,
          "durationTicks": 150,
          "midi": 43,
          "name": "G2",
          "ticks": 112350,
          "time": 92.09011174999999,
          "velocity": 0.3228346456692913
        },
        {
          "duration": 0.12295075000000111,
          "durationTicks": 150,
          "midi": 31,
          "name": "G1",
          "ticks": 112500,
          "time": 92.21306249999999,
          "velocity": 0.6220472440944882
        },
        {
          "duration": 0.12295075000000111,
          "durationTicks": 150,
          "midi": 43,
          "name": "G2",
          "ticks": 112500,
          "time": 92.21306249999999,
          "velocity": 0.6220472440944882
        },
        {
          "duration": 0.12295075000000111,
          "durationTicks": 150,
          "midi": 31,
          "name": "G1",
          "ticks": 112650,
          "time": 92.33601325,
          "velocity": 0.3228346456692913
        },
        {
          "duration": 0.12295075000000111,
          "durationTicks": 150,
          "midi": 43,
          "name": "G2",
          "ticks": 112650,
          "time": 92.33601325,
          "velocity": 0.3228346456692913
        },
        {
          "duration": 0.12295075000000111,
          "durationTicks": 150,
          "midi": 36,
          "name": "C2",
          "ticks": 112800,
          "time": 92.458964,
          "velocity": 0.6141732283464567
        },
        {
          "duration": 0.12295075000000111,
          "durationTicks": 150,
          "midi": 48,
          "name": "C3",
          "ticks": 112800,
          "time": 92.458964,
          "velocity": 0.6141732283464567
        },
        {
          "duration": 0.12295075000000111,
          "durationTicks": 150,
          "midi": 36,
          "name": "C2",
          "ticks": 112950,
          "time": 92.58191475,
          "velocity": 0.3228346456692913
        },
        {
          "duration": 0.12295075000000111,
          "durationTicks": 150,
          "midi": 48,
          "name": "C3",
          "ticks": 112950,
          "time": 92.58191475,
          "velocity": 0.3228346456692913
        },
        {
          "duration": 0.12295075000000111,
          "durationTicks": 150,
          "midi": 36,
          "name": "C2",
          "ticks": 113100,
          "time": 92.7048655,
          "velocity": 0.6141732283464567
        },
        {
          "duration": 0.12295075000000111,
          "durationTicks": 150,
          "midi": 48,
          "name": "C3",
          "ticks": 113100,
          "time": 92.7048655,
          "velocity": 0.6141732283464567
        },
        {
          "duration": 0.12295075000000111,
          "durationTicks": 150,
          "midi": 36,
          "name": "C2",
          "ticks": 113250,
          "time": 92.82781625,
          "velocity": 0.3228346456692913
        },
        {
          "duration": 0.12295075000000111,
          "durationTicks": 150,
          "midi": 48,
          "name": "C3",
          "ticks": 113250,
          "time": 92.82781625,
          "velocity": 0.3228346456692913
        },
        {
          "duration": 0.12295075000000111,
          "durationTicks": 150,
          "midi": 36,
          "name": "C2",
          "ticks": 113400,
          "time": 92.950767,
          "velocity": 0.6141732283464567
        },
        {
          "duration": 0.12295075000000111,
          "durationTicks": 150,
          "midi": 48,
          "name": "C3",
          "ticks": 113400,
          "time": 92.950767,
          "velocity": 0.6141732283464567
        },
        {
          "duration": 0.12295075000000111,
          "durationTicks": 150,
          "midi": 36,
          "name": "C2",
          "ticks": 113550,
          "time": 93.07371775,
          "velocity": 0.3228346456692913
        },
        {
          "duration": 0.12295075000000111,
          "durationTicks": 150,
          "midi": 48,
          "name": "C3",
          "ticks": 113550,
          "time": 93.07371775,
          "velocity": 0.3228346456692913
        },
        {
          "duration": 0.12295075000000111,
          "durationTicks": 150,
          "midi": 36,
          "name": "C2",
          "ticks": 113700,
          "time": 93.1966685,
          "velocity": 0.6141732283464567
        },
        {
          "duration": 0.12295075000000111,
          "durationTicks": 150,
          "midi": 48,
          "name": "C3",
          "ticks": 113700,
          "time": 93.1966685,
          "velocity": 0.6141732283464567
        },
        {
          "duration": 0.24590150000000222,
          "durationTicks": 300,
          "midi": 39,
          "name": "D#2",
          "ticks": 113850,
          "time": 93.31961925,
          "velocity": 0.6141732283464567
        },
        {
          "duration": 0.24590150000000222,
          "durationTicks": 300,
          "midi": 51,
          "name": "D#3",
          "ticks": 113850,
          "time": 93.31961925,
          "velocity": 0.6141732283464567
        },
        {
          "duration": 0.1229507499999869,
          "durationTicks": 150,
          "midi": 39,
          "name": "D#2",
          "ticks": 114150,
          "time": 93.56552075,
          "velocity": 0.3228346456692913
        },
        {
          "duration": 0.1229507499999869,
          "durationTicks": 150,
          "midi": 51,
          "name": "D#3",
          "ticks": 114150,
          "time": 93.56552075,
          "velocity": 0.3228346456692913
        },
        {
          "duration": 0.12295075000000111,
          "durationTicks": 150,
          "midi": 39,
          "name": "D#2",
          "ticks": 114300,
          "time": 93.68847149999999,
          "velocity": 0.6220472440944882
        },
        {
          "duration": 0.12295075000000111,
          "durationTicks": 150,
          "midi": 51,
          "name": "D#3",
          "ticks": 114300,
          "time": 93.68847149999999,
          "velocity": 0.6220472440944882
        },
        {
          "duration": 0.12295075000000111,
          "durationTicks": 150,
          "midi": 39,
          "name": "D#2",
          "ticks": 114450,
          "time": 93.81142224999999,
          "velocity": 0.3228346456692913
        },
        {
          "duration": 0.12295075000000111,
          "durationTicks": 150,
          "midi": 51,
          "name": "D#3",
          "ticks": 114450,
          "time": 93.81142224999999,
          "velocity": 0.3228346456692913
        },
        {
          "duration": 0.12295075000000111,
          "durationTicks": 150,
          "midi": 39,
          "name": "D#2",
          "ticks": 114600,
          "time": 93.934373,
          "velocity": 0.6220472440944882
        },
        {
          "duration": 0.12295075000000111,
          "durationTicks": 150,
          "midi": 51,
          "name": "D#3",
          "ticks": 114600,
          "time": 93.934373,
          "velocity": 0.6220472440944882
        },
        {
          "duration": 0.12295075000000111,
          "durationTicks": 150,
          "midi": 39,
          "name": "D#2",
          "ticks": 114750,
          "time": 94.05732375,
          "velocity": 0.3228346456692913
        },
        {
          "duration": 0.12295075000000111,
          "durationTicks": 150,
          "midi": 51,
          "name": "D#3",
          "ticks": 114750,
          "time": 94.05732375,
          "velocity": 0.3228346456692913
        },
        {
          "duration": 0.12295075000000111,
          "durationTicks": 150,
          "midi": 39,
          "name": "D#2",
          "ticks": 114900,
          "time": 94.1802745,
          "velocity": 0.6220472440944882
        },
        {
          "duration": 0.12295075000000111,
          "durationTicks": 150,
          "midi": 51,
          "name": "D#3",
          "ticks": 114900,
          "time": 94.1802745,
          "velocity": 0.6220472440944882
        },
        {
          "duration": 0.12295075000000111,
          "durationTicks": 150,
          "midi": 39,
          "name": "D#2",
          "ticks": 115050,
          "time": 94.30322525,
          "velocity": 0.3228346456692913
        },
        {
          "duration": 0.12295075000000111,
          "durationTicks": 150,
          "midi": 51,
          "name": "D#3",
          "ticks": 115050,
          "time": 94.30322525,
          "velocity": 0.3228346456692913
        },
        {
          "duration": 0.12295075000000111,
          "durationTicks": 150,
          "midi": 32,
          "name": "G#1",
          "ticks": 115200,
          "time": 94.426176,
          "velocity": 0.6141732283464567
        },
        {
          "duration": 0.12295075000000111,
          "durationTicks": 150,
          "midi": 44,
          "name": "G#2",
          "ticks": 115200,
          "time": 94.426176,
          "velocity": 0.6141732283464567
        },
        {
          "duration": 0.12295075000000111,
          "durationTicks": 150,
          "midi": 32,
          "name": "G#1",
          "ticks": 115350,
          "time": 94.54912675,
          "velocity": 0.3228346456692913
        },
        {
          "duration": 0.12295075000000111,
          "durationTicks": 150,
          "midi": 44,
          "name": "G#2",
          "ticks": 115350,
          "time": 94.54912675,
          "velocity": 0.3228346456692913
        },
        {
          "duration": 0.12295075000000111,
          "durationTicks": 150,
          "midi": 32,
          "name": "G#1",
          "ticks": 115500,
          "time": 94.6720775,
          "velocity": 0.6141732283464567
        },
        {
          "duration": 0.12295075000000111,
          "durationTicks": 150,
          "midi": 44,
          "name": "G#2",
          "ticks": 115500,
          "time": 94.6720775,
          "velocity": 0.6141732283464567
        },
        {
          "duration": 0.12295075000000111,
          "durationTicks": 150,
          "midi": 32,
          "name": "G#1",
          "ticks": 115650,
          "time": 94.79502825,
          "velocity": 0.3228346456692913
        },
        {
          "duration": 0.12295075000000111,
          "durationTicks": 150,
          "midi": 44,
          "name": "G#2",
          "ticks": 115650,
          "time": 94.79502825,
          "velocity": 0.3228346456692913
        },
        {
          "duration": 0.12295075000000111,
          "durationTicks": 150,
          "midi": 32,
          "name": "G#1",
          "ticks": 115800,
          "time": 94.917979,
          "velocity": 0.6141732283464567
        },
        {
          "duration": 0.12295075000000111,
          "durationTicks": 150,
          "midi": 44,
          "name": "G#2",
          "ticks": 115800,
          "time": 94.917979,
          "velocity": 0.6141732283464567
        },
        {
          "duration": 0.12295075000000111,
          "durationTicks": 150,
          "midi": 32,
          "name": "G#1",
          "ticks": 115950,
          "time": 95.04092975,
          "velocity": 0.3228346456692913
        },
        {
          "duration": 0.12295075000000111,
          "durationTicks": 150,
          "midi": 44,
          "name": "G#2",
          "ticks": 115950,
          "time": 95.04092975,
          "velocity": 0.3228346456692913
        },
        {
          "duration": 0.1229507499999869,
          "durationTicks": 150,
          "midi": 32,
          "name": "G#1",
          "ticks": 116100,
          "time": 95.1638805,
          "velocity": 0.6141732283464567
        },
        {
          "duration": 0.1229507499999869,
          "durationTicks": 150,
          "midi": 44,
          "name": "G#2",
          "ticks": 116100,
          "time": 95.1638805,
          "velocity": 0.6141732283464567
        },
        {
          "duration": 0.24590150000000222,
          "durationTicks": 300,
          "midi": 32,
          "name": "G#1",
          "ticks": 116250,
          "time": 95.28683124999999,
          "velocity": 0.6141732283464567
        },
        {
          "duration": 0.24590150000000222,
          "durationTicks": 300,
          "midi": 44,
          "name": "G#2",
          "ticks": 116250,
          "time": 95.28683124999999,
          "velocity": 0.6141732283464567
        },
        {
          "duration": 0.12295075000000111,
          "durationTicks": 150,
          "midi": 32,
          "name": "G#1",
          "ticks": 116550,
          "time": 95.53273275,
          "velocity": 0.3228346456692913
        },
        {
          "duration": 0.12295075000000111,
          "durationTicks": 150,
          "midi": 44,
          "name": "G#2",
          "ticks": 116550,
          "time": 95.53273275,
          "velocity": 0.3228346456692913
        },
        {
          "duration": 0.12295075000000111,
          "durationTicks": 150,
          "midi": 32,
          "name": "G#1",
          "ticks": 116700,
          "time": 95.6556835,
          "velocity": 0.6220472440944882
        },
        {
          "duration": 0.12295075000000111,
          "durationTicks": 150,
          "midi": 44,
          "name": "G#2",
          "ticks": 116700,
          "time": 95.6556835,
          "velocity": 0.6220472440944882
        },
        {
          "duration": 0.12295075000000111,
          "durationTicks": 150,
          "midi": 32,
          "name": "G#1",
          "ticks": 116850,
          "time": 95.77863425,
          "velocity": 0.3228346456692913
        },
        {
          "duration": 0.12295075000000111,
          "durationTicks": 150,
          "midi": 44,
          "name": "G#2",
          "ticks": 116850,
          "time": 95.77863425,
          "velocity": 0.3228346456692913
        },
        {
          "duration": 0.12295075000000111,
          "durationTicks": 150,
          "midi": 32,
          "name": "G#1",
          "ticks": 117000,
          "time": 95.901585,
          "velocity": 0.6220472440944882
        },
        {
          "duration": 0.12295075000000111,
          "durationTicks": 150,
          "midi": 44,
          "name": "G#2",
          "ticks": 117000,
          "time": 95.901585,
          "velocity": 0.6220472440944882
        },
        {
          "duration": 0.12295075000000111,
          "durationTicks": 150,
          "midi": 32,
          "name": "G#1",
          "ticks": 117150,
          "time": 96.02453575,
          "velocity": 0.3228346456692913
        },
        {
          "duration": 0.12295075000000111,
          "durationTicks": 150,
          "midi": 44,
          "name": "G#2",
          "ticks": 117150,
          "time": 96.02453575,
          "velocity": 0.3228346456692913
        },
        {
          "duration": 0.12295075000000111,
          "durationTicks": 150,
          "midi": 32,
          "name": "G#1",
          "ticks": 117300,
          "time": 96.1474865,
          "velocity": 0.6220472440944882
        },
        {
          "duration": 0.12295075000000111,
          "durationTicks": 150,
          "midi": 44,
          "name": "G#2",
          "ticks": 117300,
          "time": 96.1474865,
          "velocity": 0.6220472440944882
        },
        {
          "duration": 0.12295075000000111,
          "durationTicks": 150,
          "midi": 32,
          "name": "G#1",
          "ticks": 117450,
          "time": 96.27043725,
          "velocity": 0.3228346456692913
        },
        {
          "duration": 0.12295075000000111,
          "durationTicks": 150,
          "midi": 44,
          "name": "G#2",
          "ticks": 117450,
          "time": 96.27043725,
          "velocity": 0.3228346456692913
        },
        {
          "duration": 0.12295075000000111,
          "durationTicks": 150,
          "midi": 34,
          "name": "A#1",
          "ticks": 117600,
          "time": 96.393388,
          "velocity": 0.6141732283464567
        },
        {
          "duration": 0.12295075000000111,
          "durationTicks": 150,
          "midi": 46,
          "name": "A#2",
          "ticks": 117600,
          "time": 96.393388,
          "velocity": 0.6141732283464567
        },
        {
          "duration": 0.12295075000000111,
          "durationTicks": 150,
          "midi": 34,
          "name": "A#1",
          "ticks": 117750,
          "time": 96.51633875,
          "velocity": 0.3228346456692913
        },
        {
          "duration": 0.12295075000000111,
          "durationTicks": 150,
          "midi": 46,
          "name": "A#2",
          "ticks": 117750,
          "time": 96.51633875,
          "velocity": 0.3228346456692913
        },
        {
          "duration": 0.12295075000000111,
          "durationTicks": 150,
          "midi": 34,
          "name": "A#1",
          "ticks": 117900,
          "time": 96.6392895,
          "velocity": 0.6141732283464567
        },
        {
          "duration": 0.12295075000000111,
          "durationTicks": 150,
          "midi": 46,
          "name": "A#2",
          "ticks": 117900,
          "time": 96.6392895,
          "velocity": 0.6141732283464567
        },
        {
          "duration": 0.1229507499999869,
          "durationTicks": 150,
          "midi": 34,
          "name": "A#1",
          "ticks": 118050,
          "time": 96.76224025,
          "velocity": 0.3228346456692913
        },
        {
          "duration": 0.1229507499999869,
          "durationTicks": 150,
          "midi": 46,
          "name": "A#2",
          "ticks": 118050,
          "time": 96.76224025,
          "velocity": 0.3228346456692913
        },
        {
          "duration": 0.12295075000000111,
          "durationTicks": 150,
          "midi": 34,
          "name": "A#1",
          "ticks": 118200,
          "time": 96.88519099999999,
          "velocity": 0.6141732283464567
        },
        {
          "duration": 0.12295075000000111,
          "durationTicks": 150,
          "midi": 46,
          "name": "A#2",
          "ticks": 118200,
          "time": 96.88519099999999,
          "velocity": 0.6141732283464567
        },
        {
          "duration": 0.12295075000000111,
          "durationTicks": 150,
          "midi": 34,
          "name": "A#1",
          "ticks": 118350,
          "time": 97.00814175,
          "velocity": 0.3228346456692913
        },
        {
          "duration": 0.12295075000000111,
          "durationTicks": 150,
          "midi": 46,
          "name": "A#2",
          "ticks": 118350,
          "time": 97.00814175,
          "velocity": 0.3228346456692913
        },
        {
          "duration": 0.12295075000000111,
          "durationTicks": 150,
          "midi": 34,
          "name": "A#1",
          "ticks": 118500,
          "time": 97.1310925,
          "velocity": 0.6141732283464567
        },
        {
          "duration": 0.12295075000000111,
          "durationTicks": 150,
          "midi": 46,
          "name": "A#2",
          "ticks": 118500,
          "time": 97.1310925,
          "velocity": 0.6141732283464567
        },
        {
          "duration": 0.24590150000000222,
          "durationTicks": 300,
          "midi": 34,
          "name": "A#1",
          "ticks": 118650,
          "time": 97.25404325,
          "velocity": 0.6141732283464567
        },
        {
          "duration": 0.24590150000000222,
          "durationTicks": 300,
          "midi": 46,
          "name": "A#2",
          "ticks": 118650,
          "time": 97.25404325,
          "velocity": 0.6141732283464567
        },
        {
          "duration": 0.12295075000000111,
          "durationTicks": 150,
          "midi": 34,
          "name": "A#1",
          "ticks": 118950,
          "time": 97.49994475,
          "velocity": 0.3228346456692913
        },
        {
          "duration": 0.12295075000000111,
          "durationTicks": 150,
          "midi": 46,
          "name": "A#2",
          "ticks": 118950,
          "time": 97.49994475,
          "velocity": 0.3228346456692913
        },
        {
          "duration": 0.12295075000000111,
          "durationTicks": 150,
          "midi": 34,
          "name": "A#1",
          "ticks": 119100,
          "time": 97.6228955,
          "velocity": 0.6220472440944882
        },
        {
          "duration": 0.12295075000000111,
          "durationTicks": 150,
          "midi": 46,
          "name": "A#2",
          "ticks": 119100,
          "time": 97.6228955,
          "velocity": 0.6220472440944882
        },
        {
          "duration": 0.12295075000000111,
          "durationTicks": 150,
          "midi": 34,
          "name": "A#1",
          "ticks": 119250,
          "time": 97.74584625,
          "velocity": 0.3228346456692913
        },
        {
          "duration": 0.12295075000000111,
          "durationTicks": 150,
          "midi": 46,
          "name": "A#2",
          "ticks": 119250,
          "time": 97.74584625,
          "velocity": 0.3228346456692913
        },
        {
          "duration": 0.12295075000000111,
          "durationTicks": 150,
          "midi": 34,
          "name": "A#1",
          "ticks": 119400,
          "time": 97.868797,
          "velocity": 0.6220472440944882
        },
        {
          "duration": 0.12295075000000111,
          "durationTicks": 150,
          "midi": 46,
          "name": "A#2",
          "ticks": 119400,
          "time": 97.868797,
          "velocity": 0.6220472440944882
        },
        {
          "duration": 0.12295075000000111,
          "durationTicks": 150,
          "midi": 34,
          "name": "A#1",
          "ticks": 119550,
          "time": 97.99174775,
          "velocity": 0.3228346456692913
        },
        {
          "duration": 0.12295075000000111,
          "durationTicks": 150,
          "midi": 46,
          "name": "A#2",
          "ticks": 119550,
          "time": 97.99174775,
          "velocity": 0.3228346456692913
        },
        {
          "duration": 0.12295075000000111,
          "durationTicks": 150,
          "midi": 34,
          "name": "A#1",
          "ticks": 119700,
          "time": 98.1146985,
          "velocity": 0.6220472440944882
        },
        {
          "duration": 0.12295075000000111,
          "durationTicks": 150,
          "midi": 46,
          "name": "A#2",
          "ticks": 119700,
          "time": 98.1146985,
          "velocity": 0.6220472440944882
        },
        {
          "duration": 0.12295075000000111,
          "durationTicks": 150,
          "midi": 34,
          "name": "A#1",
          "ticks": 119850,
          "time": 98.23764925,
          "velocity": 0.3228346456692913
        },
        {
          "duration": 0.12295075000000111,
          "durationTicks": 150,
          "midi": 46,
          "name": "A#2",
          "ticks": 119850,
          "time": 98.23764925,
          "velocity": 0.3228346456692913
        },
        {
          "duration": 0.1229507499999869,
          "durationTicks": 150,
          "midi": 31,
          "name": "G1",
          "ticks": 120000,
          "time": 98.3606,
          "velocity": 0.6141732283464567
        },
        {
          "duration": 0.1229507499999869,
          "durationTicks": 150,
          "midi": 43,
          "name": "G2",
          "ticks": 120000,
          "time": 98.3606,
          "velocity": 0.6141732283464567
        },
        {
          "duration": 0.12295075000000111,
          "durationTicks": 150,
          "midi": 31,
          "name": "G1",
          "ticks": 120150,
          "time": 98.48355074999999,
          "velocity": 0.3228346456692913
        },
        {
          "duration": 0.12295075000000111,
          "durationTicks": 150,
          "midi": 43,
          "name": "G2",
          "ticks": 120150,
          "time": 98.48355074999999,
          "velocity": 0.3228346456692913
        },
        {
          "duration": 0.12295075000000111,
          "durationTicks": 150,
          "midi": 31,
          "name": "G1",
          "ticks": 120300,
          "time": 98.6065015,
          "velocity": 0.6141732283464567
        },
        {
          "duration": 0.12295075000000111,
          "durationTicks": 150,
          "midi": 43,
          "name": "G2",
          "ticks": 120300,
          "time": 98.6065015,
          "velocity": 0.6141732283464567
        },
        {
          "duration": 0.12295075000000111,
          "durationTicks": 150,
          "midi": 31,
          "name": "G1",
          "ticks": 120450,
          "time": 98.72945225,
          "velocity": 0.3228346456692913
        },
        {
          "duration": 0.12295075000000111,
          "durationTicks": 150,
          "midi": 43,
          "name": "G2",
          "ticks": 120450,
          "time": 98.72945225,
          "velocity": 0.3228346456692913
        },
        {
          "duration": 0.12295075000000111,
          "durationTicks": 150,
          "midi": 31,
          "name": "G1",
          "ticks": 120600,
          "time": 98.852403,
          "velocity": 0.6141732283464567
        },
        {
          "duration": 0.12295075000000111,
          "durationTicks": 150,
          "midi": 43,
          "name": "G2",
          "ticks": 120600,
          "time": 98.852403,
          "velocity": 0.6141732283464567
        },
        {
          "duration": 0.12295075000000111,
          "durationTicks": 150,
          "midi": 31,
          "name": "G1",
          "ticks": 120750,
          "time": 98.97535375,
          "velocity": 0.3228346456692913
        },
        {
          "duration": 0.12295075000000111,
          "durationTicks": 150,
          "midi": 43,
          "name": "G2",
          "ticks": 120750,
          "time": 98.97535375,
          "velocity": 0.3228346456692913
        },
        {
          "duration": 0.12295075000000111,
          "durationTicks": 150,
          "midi": 31,
          "name": "G1",
          "ticks": 120900,
          "time": 99.0983045,
          "velocity": 0.6141732283464567
        },
        {
          "duration": 0.12295075000000111,
          "durationTicks": 150,
          "midi": 43,
          "name": "G2",
          "ticks": 120900,
          "time": 99.0983045,
          "velocity": 0.6141732283464567
        },
        {
          "duration": 0.24590150000000222,
          "durationTicks": 300,
          "midi": 31,
          "name": "G1",
          "ticks": 121050,
          "time": 99.22125525,
          "velocity": 0.6141732283464567
        },
        {
          "duration": 0.24590150000000222,
          "durationTicks": 300,
          "midi": 43,
          "name": "G2",
          "ticks": 121050,
          "time": 99.22125525,
          "velocity": 0.6141732283464567
        },
        {
          "duration": 0.12295075000000111,
          "durationTicks": 150,
          "midi": 31,
          "name": "G1",
          "ticks": 121350,
          "time": 99.46715675,
          "velocity": 0.3228346456692913
        },
        {
          "duration": 0.12295075000000111,
          "durationTicks": 150,
          "midi": 43,
          "name": "G2",
          "ticks": 121350,
          "time": 99.46715675,
          "velocity": 0.3228346456692913
        },
        {
          "duration": 0.12295075000000111,
          "durationTicks": 150,
          "midi": 31,
          "name": "G1",
          "ticks": 121500,
          "time": 99.5901075,
          "velocity": 0.6220472440944882
        },
        {
          "duration": 0.12295075000000111,
          "durationTicks": 150,
          "midi": 43,
          "name": "G2",
          "ticks": 121500,
          "time": 99.5901075,
          "velocity": 0.6220472440944882
        },
        {
          "duration": 0.12295075000000111,
          "durationTicks": 150,
          "midi": 31,
          "name": "G1",
          "ticks": 121650,
          "time": 99.71305825,
          "velocity": 0.3228346456692913
        },
        {
          "duration": 0.12295075000000111,
          "durationTicks": 150,
          "midi": 43,
          "name": "G2",
          "ticks": 121650,
          "time": 99.71305825,
          "velocity": 0.3228346456692913
        },
        {
          "duration": 0.1229507499999869,
          "durationTicks": 150,
          "midi": 31,
          "name": "G1",
          "ticks": 121800,
          "time": 99.836009,
          "velocity": 0.6220472440944882
        },
        {
          "duration": 0.1229507499999869,
          "durationTicks": 150,
          "midi": 43,
          "name": "G2",
          "ticks": 121800,
          "time": 99.836009,
          "velocity": 0.6220472440944882
        },
        {
          "duration": 0.12295075000000111,
          "durationTicks": 150,
          "midi": 31,
          "name": "G1",
          "ticks": 121950,
          "time": 99.95895974999999,
          "velocity": 0.3228346456692913
        },
        {
          "duration": 0.12295075000000111,
          "durationTicks": 150,
          "midi": 43,
          "name": "G2",
          "ticks": 121950,
          "time": 99.95895974999999,
          "velocity": 0.3228346456692913
        },
        {
          "duration": 0.12295075000000111,
          "durationTicks": 150,
          "midi": 31,
          "name": "G1",
          "ticks": 122100,
          "time": 100.08191049999999,
          "velocity": 0.6220472440944882
        },
        {
          "duration": 0.12295075000000111,
          "durationTicks": 150,
          "midi": 43,
          "name": "G2",
          "ticks": 122100,
          "time": 100.08191049999999,
          "velocity": 0.6220472440944882
        },
        {
          "duration": 0.12295075000000111,
          "durationTicks": 150,
          "midi": 31,
          "name": "G1",
          "ticks": 122250,
          "time": 100.20486125,
          "velocity": 0.3228346456692913
        },
        {
          "duration": 0.12295075000000111,
          "durationTicks": 150,
          "midi": 43,
          "name": "G2",
          "ticks": 122250,
          "time": 100.20486125,
          "velocity": 0.3228346456692913
        },
        {
          "duration": 0.12295075000000111,
          "durationTicks": 150,
          "midi": 36,
          "name": "C2",
          "ticks": 122400,
          "time": 100.327812,
          "velocity": 0.6141732283464567
        },
        {
          "duration": 0.12295075000000111,
          "durationTicks": 150,
          "midi": 48,
          "name": "C3",
          "ticks": 122400,
          "time": 100.327812,
          "velocity": 0.6141732283464567
        },
        {
          "duration": 0.12295075000000111,
          "durationTicks": 150,
          "midi": 36,
          "name": "C2",
          "ticks": 122550,
          "time": 100.45076275,
          "velocity": 0.3228346456692913
        },
        {
          "duration": 0.12295075000000111,
          "durationTicks": 150,
          "midi": 48,
          "name": "C3",
          "ticks": 122550,
          "time": 100.45076275,
          "velocity": 0.3228346456692913
        },
        {
          "duration": 0.12295075000000111,
          "durationTicks": 150,
          "midi": 36,
          "name": "C2",
          "ticks": 122700,
          "time": 100.5737135,
          "velocity": 0.6141732283464567
        },
        {
          "duration": 0.12295075000000111,
          "durationTicks": 150,
          "midi": 48,
          "name": "C3",
          "ticks": 122700,
          "time": 100.5737135,
          "velocity": 0.6141732283464567
        },
        {
          "duration": 0.12295075000000111,
          "durationTicks": 150,
          "midi": 36,
          "name": "C2",
          "ticks": 122850,
          "time": 100.69666425,
          "velocity": 0.3228346456692913
        },
        {
          "duration": 0.12295075000000111,
          "durationTicks": 150,
          "midi": 48,
          "name": "C3",
          "ticks": 122850,
          "time": 100.69666425,
          "velocity": 0.3228346456692913
        },
        {
          "duration": 0.12295075000000111,
          "durationTicks": 150,
          "midi": 36,
          "name": "C2",
          "ticks": 123000,
          "time": 100.819615,
          "velocity": 0.6141732283464567
        },
        {
          "duration": 0.12295075000000111,
          "durationTicks": 150,
          "midi": 48,
          "name": "C3",
          "ticks": 123000,
          "time": 100.819615,
          "velocity": 0.6141732283464567
        },
        {
          "duration": 0.12295075000000111,
          "durationTicks": 150,
          "midi": 36,
          "name": "C2",
          "ticks": 123150,
          "time": 100.94256575,
          "velocity": 0.3228346456692913
        },
        {
          "duration": 0.12295075000000111,
          "durationTicks": 150,
          "midi": 48,
          "name": "C3",
          "ticks": 123150,
          "time": 100.94256575,
          "velocity": 0.3228346456692913
        },
        {
          "duration": 0.12295075000000111,
          "durationTicks": 150,
          "midi": 36,
          "name": "C2",
          "ticks": 123300,
          "time": 101.0655165,
          "velocity": 0.6141732283464567
        },
        {
          "duration": 0.12295075000000111,
          "durationTicks": 150,
          "midi": 48,
          "name": "C3",
          "ticks": 123300,
          "time": 101.0655165,
          "velocity": 0.6141732283464567
        },
        {
          "duration": 0.24590150000000222,
          "durationTicks": 300,
          "midi": 39,
          "name": "D#2",
          "ticks": 123450,
          "time": 101.18846725,
          "velocity": 0.6141732283464567
        },
        {
          "duration": 0.24590150000000222,
          "durationTicks": 300,
          "midi": 51,
          "name": "D#3",
          "ticks": 123450,
          "time": 101.18846725,
          "velocity": 0.6141732283464567
        },
        {
          "duration": 0.1229507499999869,
          "durationTicks": 150,
          "midi": 39,
          "name": "D#2",
          "ticks": 123750,
          "time": 101.43436875,
          "velocity": 0.3228346456692913
        },
        {
          "duration": 0.1229507499999869,
          "durationTicks": 150,
          "midi": 51,
          "name": "D#3",
          "ticks": 123750,
          "time": 101.43436875,
          "velocity": 0.3228346456692913
        },
        {
          "duration": 0.12295075000000111,
          "durationTicks": 150,
          "midi": 39,
          "name": "D#2",
          "ticks": 123900,
          "time": 101.55731949999999,
          "velocity": 0.6220472440944882
        },
        {
          "duration": 0.12295075000000111,
          "durationTicks": 150,
          "midi": 51,
          "name": "D#3",
          "ticks": 123900,
          "time": 101.55731949999999,
          "velocity": 0.6220472440944882
        },
        {
          "duration": 0.12295075000000111,
          "durationTicks": 150,
          "midi": 39,
          "name": "D#2",
          "ticks": 124050,
          "time": 101.68027024999999,
          "velocity": 0.3228346456692913
        },
        {
          "duration": 0.12295075000000111,
          "durationTicks": 150,
          "midi": 51,
          "name": "D#3",
          "ticks": 124050,
          "time": 101.68027024999999,
          "velocity": 0.3228346456692913
        },
        {
          "duration": 0.12295075000000111,
          "durationTicks": 150,
          "midi": 39,
          "name": "D#2",
          "ticks": 124200,
          "time": 101.803221,
          "velocity": 0.6220472440944882
        },
        {
          "duration": 0.12295075000000111,
          "durationTicks": 150,
          "midi": 51,
          "name": "D#3",
          "ticks": 124200,
          "time": 101.803221,
          "velocity": 0.6220472440944882
        },
        {
          "duration": 0.12295075000000111,
          "durationTicks": 150,
          "midi": 39,
          "name": "D#2",
          "ticks": 124350,
          "time": 101.92617175,
          "velocity": 0.3228346456692913
        },
        {
          "duration": 0.12295075000000111,
          "durationTicks": 150,
          "midi": 51,
          "name": "D#3",
          "ticks": 124350,
          "time": 101.92617175,
          "velocity": 0.3228346456692913
        },
        {
          "duration": 0.12295075000000111,
          "durationTicks": 150,
          "midi": 39,
          "name": "D#2",
          "ticks": 124500,
          "time": 102.0491225,
          "velocity": 0.6220472440944882
        },
        {
          "duration": 0.12295075000000111,
          "durationTicks": 150,
          "midi": 51,
          "name": "D#3",
          "ticks": 124500,
          "time": 102.0491225,
          "velocity": 0.6220472440944882
        },
        {
          "duration": 0.12295075000000111,
          "durationTicks": 150,
          "midi": 39,
          "name": "D#2",
          "ticks": 124650,
          "time": 102.17207325,
          "velocity": 0.3228346456692913
        },
        {
          "duration": 0.12295075000000111,
          "durationTicks": 150,
          "midi": 51,
          "name": "D#3",
          "ticks": 124650,
          "time": 102.17207325,
          "velocity": 0.3228346456692913
        },
        {
          "duration": 0.12295075000000111,
          "durationTicks": 150,
          "midi": 32,
          "name": "G#1",
          "ticks": 124800,
          "time": 102.295024,
          "velocity": 0.6141732283464567
        },
        {
          "duration": 0.12295075000000111,
          "durationTicks": 150,
          "midi": 44,
          "name": "G#2",
          "ticks": 124800,
          "time": 102.295024,
          "velocity": 0.6141732283464567
        },
        {
          "duration": 0.12295075000000111,
          "durationTicks": 150,
          "midi": 32,
          "name": "G#1",
          "ticks": 124950,
          "time": 102.41797475,
          "velocity": 0.3228346456692913
        },
        {
          "duration": 0.12295075000000111,
          "durationTicks": 150,
          "midi": 44,
          "name": "G#2",
          "ticks": 124950,
          "time": 102.41797475,
          "velocity": 0.3228346456692913
        },
        {
          "duration": 0.12295075000000111,
          "durationTicks": 150,
          "midi": 32,
          "name": "G#1",
          "ticks": 125100,
          "time": 102.5409255,
          "velocity": 0.6141732283464567
        },
        {
          "duration": 0.12295075000000111,
          "durationTicks": 150,
          "midi": 44,
          "name": "G#2",
          "ticks": 125100,
          "time": 102.5409255,
          "velocity": 0.6141732283464567
        },
        {
          "duration": 0.12295075000000111,
          "durationTicks": 150,
          "midi": 32,
          "name": "G#1",
          "ticks": 125250,
          "time": 102.66387625,
          "velocity": 0.3228346456692913
        },
        {
          "duration": 0.12295075000000111,
          "durationTicks": 150,
          "midi": 44,
          "name": "G#2",
          "ticks": 125250,
          "time": 102.66387625,
          "velocity": 0.3228346456692913
        },
        {
          "duration": 0.12295075000000111,
          "durationTicks": 150,
          "midi": 32,
          "name": "G#1",
          "ticks": 125400,
          "time": 102.786827,
          "velocity": 0.6141732283464567
        },
        {
          "duration": 0.12295075000000111,
          "durationTicks": 150,
          "midi": 44,
          "name": "G#2",
          "ticks": 125400,
          "time": 102.786827,
          "velocity": 0.6141732283464567
        },
        {
          "duration": 0.12295075000000111,
          "durationTicks": 150,
          "midi": 32,
          "name": "G#1",
          "ticks": 125550,
          "time": 102.90977775,
          "velocity": 0.3228346456692913
        },
        {
          "duration": 0.12295075000000111,
          "durationTicks": 150,
          "midi": 44,
          "name": "G#2",
          "ticks": 125550,
          "time": 102.90977775,
          "velocity": 0.3228346456692913
        },
        {
          "duration": 0.1229507499999869,
          "durationTicks": 150,
          "midi": 32,
          "name": "G#1",
          "ticks": 125700,
          "time": 103.0327285,
          "velocity": 0.6141732283464567
        },
        {
          "duration": 0.1229507499999869,
          "durationTicks": 150,
          "midi": 44,
          "name": "G#2",
          "ticks": 125700,
          "time": 103.0327285,
          "velocity": 0.6141732283464567
        },
        {
          "duration": 0.24590150000000222,
          "durationTicks": 300,
          "midi": 32,
          "name": "G#1",
          "ticks": 125850,
          "time": 103.15567924999999,
          "velocity": 0.6141732283464567
        },
        {
          "duration": 0.24590150000000222,
          "durationTicks": 300,
          "midi": 44,
          "name": "G#2",
          "ticks": 125850,
          "time": 103.15567924999999,
          "velocity": 0.6141732283464567
        },
        {
          "duration": 0.12295075000000111,
          "durationTicks": 150,
          "midi": 32,
          "name": "G#1",
          "ticks": 126150,
          "time": 103.40158075,
          "velocity": 0.3228346456692913
        },
        {
          "duration": 0.12295075000000111,
          "durationTicks": 150,
          "midi": 44,
          "name": "G#2",
          "ticks": 126150,
          "time": 103.40158075,
          "velocity": 0.3228346456692913
        },
        {
          "duration": 0.12295075000000111,
          "durationTicks": 150,
          "midi": 32,
          "name": "G#1",
          "ticks": 126300,
          "time": 103.5245315,
          "velocity": 0.6220472440944882
        },
        {
          "duration": 0.12295075000000111,
          "durationTicks": 150,
          "midi": 44,
          "name": "G#2",
          "ticks": 126300,
          "time": 103.5245315,
          "velocity": 0.6220472440944882
        },
        {
          "duration": 0.12295075000000111,
          "durationTicks": 150,
          "midi": 32,
          "name": "G#1",
          "ticks": 126450,
          "time": 103.64748225,
          "velocity": 0.3228346456692913
        },
        {
          "duration": 0.12295075000000111,
          "durationTicks": 150,
          "midi": 44,
          "name": "G#2",
          "ticks": 126450,
          "time": 103.64748225,
          "velocity": 0.3228346456692913
        },
        {
          "duration": 0.12295075000000111,
          "durationTicks": 150,
          "midi": 32,
          "name": "G#1",
          "ticks": 126600,
          "time": 103.770433,
          "velocity": 0.6220472440944882
        },
        {
          "duration": 0.12295075000000111,
          "durationTicks": 150,
          "midi": 44,
          "name": "G#2",
          "ticks": 126600,
          "time": 103.770433,
          "velocity": 0.6220472440944882
        },
        {
          "duration": 0.12295075000000111,
          "durationTicks": 150,
          "midi": 32,
          "name": "G#1",
          "ticks": 126750,
          "time": 103.89338375,
          "velocity": 0.3228346456692913
        },
        {
          "duration": 0.12295075000000111,
          "durationTicks": 150,
          "midi": 44,
          "name": "G#2",
          "ticks": 126750,
          "time": 103.89338375,
          "velocity": 0.3228346456692913
        },
        {
          "duration": 0.12295075000000111,
          "durationTicks": 150,
          "midi": 32,
          "name": "G#1",
          "ticks": 126900,
          "time": 104.0163345,
          "velocity": 0.6220472440944882
        },
        {
          "duration": 0.12295075000000111,
          "durationTicks": 150,
          "midi": 44,
          "name": "G#2",
          "ticks": 126900,
          "time": 104.0163345,
          "velocity": 0.6220472440944882
        },
        {
          "duration": 0.12295075000000111,
          "durationTicks": 150,
          "midi": 32,
          "name": "G#1",
          "ticks": 127050,
          "time": 104.13928525,
          "velocity": 0.3228346456692913
        },
        {
          "duration": 0.12295075000000111,
          "durationTicks": 150,
          "midi": 44,
          "name": "G#2",
          "ticks": 127050,
          "time": 104.13928525,
          "velocity": 0.3228346456692913
        },
        {
          "duration": 0.12295075000000111,
          "durationTicks": 150,
          "midi": 34,
          "name": "A#1",
          "ticks": 127200,
          "time": 104.262236,
          "velocity": 0.6141732283464567
        },
        {
          "duration": 0.12295075000000111,
          "durationTicks": 150,
          "midi": 46,
          "name": "A#2",
          "ticks": 127200,
          "time": 104.262236,
          "velocity": 0.6141732283464567
        },
        {
          "duration": 0.12295075000000111,
          "durationTicks": 150,
          "midi": 34,
          "name": "A#1",
          "ticks": 127350,
          "time": 104.38518675,
          "velocity": 0.3228346456692913
        },
        {
          "duration": 0.12295075000000111,
          "durationTicks": 150,
          "midi": 46,
          "name": "A#2",
          "ticks": 127350,
          "time": 104.38518675,
          "velocity": 0.3228346456692913
        },
        {
          "duration": 0.12295075000000111,
          "durationTicks": 150,
          "midi": 34,
          "name": "A#1",
          "ticks": 127500,
          "time": 104.5081375,
          "velocity": 0.6141732283464567
        },
        {
          "duration": 0.12295075000000111,
          "durationTicks": 150,
          "midi": 46,
          "name": "A#2",
          "ticks": 127500,
          "time": 104.5081375,
          "velocity": 0.6141732283464567
        },
        {
          "duration": 0.1229507499999869,
          "durationTicks": 150,
          "midi": 34,
          "name": "A#1",
          "ticks": 127650,
          "time": 104.63108825,
          "velocity": 0.3228346456692913
        },
        {
          "duration": 0.1229507499999869,
          "durationTicks": 150,
          "midi": 46,
          "name": "A#2",
          "ticks": 127650,
          "time": 104.63108825,
          "velocity": 0.3228346456692913
        },
        {
          "duration": 0.12295075000000111,
          "durationTicks": 150,
          "midi": 34,
          "name": "A#1",
          "ticks": 127800,
          "time": 104.75403899999999,
          "velocity": 0.6141732283464567
        },
        {
          "duration": 0.12295075000000111,
          "durationTicks": 150,
          "midi": 46,
          "name": "A#2",
          "ticks": 127800,
          "time": 104.75403899999999,
          "velocity": 0.6141732283464567
        },
        {
          "duration": 0.12295075000000111,
          "durationTicks": 150,
          "midi": 34,
          "name": "A#1",
          "ticks": 127950,
          "time": 104.87698974999999,
          "velocity": 0.3228346456692913
        },
        {
          "duration": 0.12295075000000111,
          "durationTicks": 150,
          "midi": 46,
          "name": "A#2",
          "ticks": 127950,
          "time": 104.87698974999999,
          "velocity": 0.3228346456692913
        },
        {
          "duration": 0.12295075000000111,
          "durationTicks": 150,
          "midi": 34,
          "name": "A#1",
          "ticks": 128100,
          "time": 104.9999405,
          "velocity": 0.6141732283464567
        },
        {
          "duration": 0.12295075000000111,
          "durationTicks": 150,
          "midi": 46,
          "name": "A#2",
          "ticks": 128100,
          "time": 104.9999405,
          "velocity": 0.6141732283464567
        },
        {
          "duration": 0.24590150000000222,
          "durationTicks": 300,
          "midi": 34,
          "name": "A#1",
          "ticks": 128250,
          "time": 105.12289125,
          "velocity": 0.6141732283464567
        },
        {
          "duration": 0.24590150000000222,
          "durationTicks": 300,
          "midi": 46,
          "name": "A#2",
          "ticks": 128250,
          "time": 105.12289125,
          "velocity": 0.6141732283464567
        },
        {
          "duration": 0.12295075000000111,
          "durationTicks": 150,
          "midi": 34,
          "name": "A#1",
          "ticks": 128550,
          "time": 105.36879275,
          "velocity": 0.3228346456692913
        },
        {
          "duration": 0.12295075000000111,
          "durationTicks": 150,
          "midi": 46,
          "name": "A#2",
          "ticks": 128550,
          "time": 105.36879275,
          "velocity": 0.3228346456692913
        },
        {
          "duration": 0.12295075000000111,
          "durationTicks": 150,
          "midi": 34,
          "name": "A#1",
          "ticks": 128700,
          "time": 105.4917435,
          "velocity": 0.6220472440944882
        },
        {
          "duration": 0.12295075000000111,
          "durationTicks": 150,
          "midi": 46,
          "name": "A#2",
          "ticks": 128700,
          "time": 105.4917435,
          "velocity": 0.6220472440944882
        },
        {
          "duration": 0.12295075000000111,
          "durationTicks": 150,
          "midi": 34,
          "name": "A#1",
          "ticks": 128850,
          "time": 105.61469425,
          "velocity": 0.3228346456692913
        },
        {
          "duration": 0.12295075000000111,
          "durationTicks": 150,
          "midi": 46,
          "name": "A#2",
          "ticks": 128850,
          "time": 105.61469425,
          "velocity": 0.3228346456692913
        },
        {
          "duration": 0.12295075000000111,
          "durationTicks": 150,
          "midi": 34,
          "name": "A#1",
          "ticks": 129000,
          "time": 105.737645,
          "velocity": 0.6220472440944882
        },
        {
          "duration": 0.12295075000000111,
          "durationTicks": 150,
          "midi": 46,
          "name": "A#2",
          "ticks": 129000,
          "time": 105.737645,
          "velocity": 0.6220472440944882
        },
        {
          "duration": 0.12295075000000111,
          "durationTicks": 150,
          "midi": 34,
          "name": "A#1",
          "ticks": 129150,
          "time": 105.86059575,
          "velocity": 0.3228346456692913
        },
        {
          "duration": 0.12295075000000111,
          "durationTicks": 150,
          "midi": 46,
          "name": "A#2",
          "ticks": 129150,
          "time": 105.86059575,
          "velocity": 0.3228346456692913
        },
        {
          "duration": 0.12295075000000111,
          "durationTicks": 150,
          "midi": 34,
          "name": "A#1",
          "ticks": 129300,
          "time": 105.9835465,
          "velocity": 0.6220472440944882
        },
        {
          "duration": 0.12295075000000111,
          "durationTicks": 150,
          "midi": 46,
          "name": "A#2",
          "ticks": 129300,
          "time": 105.9835465,
          "velocity": 0.6220472440944882
        },
        {
          "duration": 0.1229507499999869,
          "durationTicks": 150,
          "midi": 34,
          "name": "A#1",
          "ticks": 129450,
          "time": 106.10649725,
          "velocity": 0.3228346456692913
        },
        {
          "duration": 0.1229507499999869,
          "durationTicks": 150,
          "midi": 46,
          "name": "A#2",
          "ticks": 129450,
          "time": 106.10649725,
          "velocity": 0.3228346456692913
        },
        {
          "duration": 0.12295075000000111,
          "durationTicks": 150,
          "midi": 31,
          "name": "G1",
          "ticks": 129600,
          "time": 106.22944799999999,
          "velocity": 0.6141732283464567
        },
        {
          "duration": 0.12295075000000111,
          "durationTicks": 150,
          "midi": 43,
          "name": "G2",
          "ticks": 129600,
          "time": 106.22944799999999,
          "velocity": 0.6141732283464567
        },
        {
          "duration": 0.12295075000000111,
          "durationTicks": 150,
          "midi": 31,
          "name": "G1",
          "ticks": 129750,
          "time": 106.35239874999999,
          "velocity": 0.3228346456692913
        },
        {
          "duration": 0.12295075000000111,
          "durationTicks": 150,
          "midi": 43,
          "name": "G2",
          "ticks": 129750,
          "time": 106.35239874999999,
          "velocity": 0.3228346456692913
        },
        {
          "duration": 0.12295075000000111,
          "durationTicks": 150,
          "midi": 31,
          "name": "G1",
          "ticks": 129900,
          "time": 106.4753495,
          "velocity": 0.6141732283464567
        },
        {
          "duration": 0.12295075000000111,
          "durationTicks": 150,
          "midi": 43,
          "name": "G2",
          "ticks": 129900,
          "time": 106.4753495,
          "velocity": 0.6141732283464567
        },
        {
          "duration": 0.12295075000000111,
          "durationTicks": 150,
          "midi": 31,
          "name": "G1",
          "ticks": 130050,
          "time": 106.59830025,
          "velocity": 0.3228346456692913
        },
        {
          "duration": 0.12295075000000111,
          "durationTicks": 150,
          "midi": 43,
          "name": "G2",
          "ticks": 130050,
          "time": 106.59830025,
          "velocity": 0.3228346456692913
        },
        {
          "duration": 0.12295075000000111,
          "durationTicks": 150,
          "midi": 31,
          "name": "G1",
          "ticks": 130200,
          "time": 106.721251,
          "velocity": 0.6141732283464567
        },
        {
          "duration": 0.12295075000000111,
          "durationTicks": 150,
          "midi": 43,
          "name": "G2",
          "ticks": 130200,
          "time": 106.721251,
          "velocity": 0.6141732283464567
        },
        {
          "duration": 0.12295075000000111,
          "durationTicks": 150,
          "midi": 31,
          "name": "G1",
          "ticks": 130350,
          "time": 106.84420175,
          "velocity": 0.3228346456692913
        },
        {
          "duration": 0.12295075000000111,
          "durationTicks": 150,
          "midi": 43,
          "name": "G2",
          "ticks": 130350,
          "time": 106.84420175,
          "velocity": 0.3228346456692913
        },
        {
          "duration": 0.12295075000000111,
          "durationTicks": 150,
          "midi": 31,
          "name": "G1",
          "ticks": 130500,
          "time": 106.9671525,
          "velocity": 0.6141732283464567
        },
        {
          "duration": 0.12295075000000111,
          "durationTicks": 150,
          "midi": 43,
          "name": "G2",
          "ticks": 130500,
          "time": 106.9671525,
          "velocity": 0.6141732283464567
        },
        {
          "duration": 0.24590150000000222,
          "durationTicks": 300,
          "midi": 31,
          "name": "G1",
          "ticks": 130650,
          "time": 107.09010325,
          "velocity": 0.6141732283464567
        },
        {
          "duration": 0.24590150000000222,
          "durationTicks": 300,
          "midi": 43,
          "name": "G2",
          "ticks": 130650,
          "time": 107.09010325,
          "velocity": 0.6141732283464567
        },
        {
          "duration": 0.12295075000000111,
          "durationTicks": 150,
          "midi": 31,
          "name": "G1",
          "ticks": 130950,
          "time": 107.33600475,
          "velocity": 0.3228346456692913
        },
        {
          "duration": 0.12295075000000111,
          "durationTicks": 150,
          "midi": 43,
          "name": "G2",
          "ticks": 130950,
          "time": 107.33600475,
          "velocity": 0.3228346456692913
        },
        {
          "duration": 0.12295075000000111,
          "durationTicks": 150,
          "midi": 31,
          "name": "G1",
          "ticks": 131100,
          "time": 107.4589555,
          "velocity": 0.6220472440944882
        },
        {
          "duration": 0.12295075000000111,
          "durationTicks": 150,
          "midi": 43,
          "name": "G2",
          "ticks": 131100,
          "time": 107.4589555,
          "velocity": 0.6220472440944882
        },
        {
          "duration": 0.12295075000000111,
          "durationTicks": 150,
          "midi": 31,
          "name": "G1",
          "ticks": 131250,
          "time": 107.58190625,
          "velocity": 0.3228346456692913
        },
        {
          "duration": 0.12295075000000111,
          "durationTicks": 150,
          "midi": 43,
          "name": "G2",
          "ticks": 131250,
          "time": 107.58190625,
          "velocity": 0.3228346456692913
        },
        {
          "duration": 0.1229507499999869,
          "durationTicks": 150,
          "midi": 31,
          "name": "G1",
          "ticks": 131400,
          "time": 107.704857,
          "velocity": 0.6220472440944882
        },
        {
          "duration": 0.1229507499999869,
          "durationTicks": 150,
          "midi": 43,
          "name": "G2",
          "ticks": 131400,
          "time": 107.704857,
          "velocity": 0.6220472440944882
        },
        {
          "duration": 0.12295075000000111,
          "durationTicks": 150,
          "midi": 31,
          "name": "G1",
          "ticks": 131550,
          "time": 107.82780774999999,
          "velocity": 0.3228346456692913
        },
        {
          "duration": 0.12295075000000111,
          "durationTicks": 150,
          "midi": 43,
          "name": "G2",
          "ticks": 131550,
          "time": 107.82780774999999,
          "velocity": 0.3228346456692913
        },
        {
          "duration": 0.12295075000000111,
          "durationTicks": 150,
          "midi": 31,
          "name": "G1",
          "ticks": 131700,
          "time": 107.95075849999999,
          "velocity": 0.6220472440944882
        },
        {
          "duration": 0.12295075000000111,
          "durationTicks": 150,
          "midi": 43,
          "name": "G2",
          "ticks": 131700,
          "time": 107.95075849999999,
          "velocity": 0.6220472440944882
        },
        {
          "duration": 0.12295075000000111,
          "durationTicks": 150,
          "midi": 31,
          "name": "G1",
          "ticks": 131850,
          "time": 108.07370925,
          "velocity": 0.3228346456692913
        },
        {
          "duration": 0.12295075000000111,
          "durationTicks": 150,
          "midi": 43,
          "name": "G2",
          "ticks": 131850,
          "time": 108.07370925,
          "velocity": 0.3228346456692913
        },
        {
          "duration": 0.12295075000000111,
          "durationTicks": 150,
          "midi": 36,
          "name": "C2",
          "ticks": 132000,
          "time": 108.19666,
          "velocity": 0.6141732283464567
        },
        {
          "duration": 0.12295075000000111,
          "durationTicks": 150,
          "midi": 48,
          "name": "C3",
          "ticks": 132000,
          "time": 108.19666,
          "velocity": 0.6141732283464567
        },
        {
          "duration": 0.12295075000000111,
          "durationTicks": 150,
          "midi": 36,
          "name": "C2",
          "ticks": 132150,
          "time": 108.31961075,
          "velocity": 0.3228346456692913
        },
        {
          "duration": 0.12295075000000111,
          "durationTicks": 150,
          "midi": 48,
          "name": "C3",
          "ticks": 132150,
          "time": 108.31961075,
          "velocity": 0.3228346456692913
        },
        {
          "duration": 0.12295075000000111,
          "durationTicks": 150,
          "midi": 36,
          "name": "C2",
          "ticks": 132300,
          "time": 108.4425615,
          "velocity": 0.6141732283464567
        },
        {
          "duration": 0.12295075000000111,
          "durationTicks": 150,
          "midi": 48,
          "name": "C3",
          "ticks": 132300,
          "time": 108.4425615,
          "velocity": 0.6141732283464567
        },
        {
          "duration": 0.12295075000000111,
          "durationTicks": 150,
          "midi": 36,
          "name": "C2",
          "ticks": 132450,
          "time": 108.56551225,
          "velocity": 0.3228346456692913
        },
        {
          "duration": 0.12295075000000111,
          "durationTicks": 150,
          "midi": 48,
          "name": "C3",
          "ticks": 132450,
          "time": 108.56551225,
          "velocity": 0.3228346456692913
        },
        {
          "duration": 0.12295075000000111,
          "durationTicks": 150,
          "midi": 36,
          "name": "C2",
          "ticks": 132600,
          "time": 108.688463,
          "velocity": 0.6141732283464567
        },
        {
          "duration": 0.12295075000000111,
          "durationTicks": 150,
          "midi": 48,
          "name": "C3",
          "ticks": 132600,
          "time": 108.688463,
          "velocity": 0.6141732283464567
        },
        {
          "duration": 0.12295075000000111,
          "durationTicks": 150,
          "midi": 36,
          "name": "C2",
          "ticks": 132750,
          "time": 108.81141375,
          "velocity": 0.3228346456692913
        },
        {
          "duration": 0.12295075000000111,
          "durationTicks": 150,
          "midi": 48,
          "name": "C3",
          "ticks": 132750,
          "time": 108.81141375,
          "velocity": 0.3228346456692913
        },
        {
          "duration": 0.12295075000000111,
          "durationTicks": 150,
          "midi": 36,
          "name": "C2",
          "ticks": 132900,
          "time": 108.9343645,
          "velocity": 0.6141732283464567
        },
        {
          "duration": 0.12295075000000111,
          "durationTicks": 150,
          "midi": 48,
          "name": "C3",
          "ticks": 132900,
          "time": 108.9343645,
          "velocity": 0.6141732283464567
        },
        {
          "duration": 0.12295075000000111,
          "durationTicks": 150,
          "midi": 39,
          "name": "D#2",
          "ticks": 133050,
          "time": 109.05731525,
          "velocity": 0.6141732283464567
        },
        {
          "duration": 0.12295075000000111,
          "durationTicks": 150,
          "midi": 51,
          "name": "D#3",
          "ticks": 133050,
          "time": 109.05731525,
          "velocity": 0.6141732283464567
        },
        {
          "duration": 0.12295075000000111,
          "durationTicks": 150,
          "midi": 38,
          "name": "D2",
          "ticks": 134400,
          "time": 110.163872,
          "velocity": 0.6299212598425197
        },
        {
          "duration": 0.12295075000000111,
          "durationTicks": 150,
          "midi": 50,
          "name": "D3",
          "ticks": 134400,
          "time": 110.163872,
          "velocity": 0.6299212598425197
        },
        {
          "duration": 0.12295075000000111,
          "durationTicks": 150,
          "midi": 38,
          "name": "D2",
          "ticks": 134550,
          "time": 110.28682275,
          "velocity": 0.3858267716535433
        },
        {
          "duration": 0.12295075000000111,
          "durationTicks": 150,
          "midi": 50,
          "name": "D3",
          "ticks": 134550,
          "time": 110.28682275,
          "velocity": 0.3858267716535433
        },
        {
          "duration": 0.12295075000000111,
          "durationTicks": 150,
          "midi": 38,
          "name": "D2",
          "ticks": 134700,
          "time": 110.4097735,
          "velocity": 0.6299212598425197
        },
        {
          "duration": 0.12295075000000111,
          "durationTicks": 150,
          "midi": 50,
          "name": "D3",
          "ticks": 134700,
          "time": 110.4097735,
          "velocity": 0.6299212598425197
        },
        {
          "duration": 0.12295075000000111,
          "durationTicks": 150,
          "midi": 38,
          "name": "D2",
          "ticks": 134850,
          "time": 110.53272425,
          "velocity": 0.3858267716535433
        },
        {
          "duration": 0.12295075000000111,
          "durationTicks": 150,
          "midi": 50,
          "name": "D3",
          "ticks": 134850,
          "time": 110.53272425,
          "velocity": 0.3858267716535433
        },
        {
          "duration": 0.12295075000000111,
          "durationTicks": 150,
          "midi": 38,
          "name": "D2",
          "ticks": 135000,
          "time": 110.655675,
          "velocity": 0.6299212598425197
        },
        {
          "duration": 0.12295075000000111,
          "durationTicks": 150,
          "midi": 50,
          "name": "D3",
          "ticks": 135000,
          "time": 110.655675,
          "velocity": 0.6299212598425197
        },
        {
          "duration": 0.12295075000000111,
          "durationTicks": 150,
          "midi": 38,
          "name": "D2",
          "ticks": 135150,
          "time": 110.77862575,
          "velocity": 0.3858267716535433
        },
        {
          "duration": 0.12295075000000111,
          "durationTicks": 150,
          "midi": 50,
          "name": "D3",
          "ticks": 135150,
          "time": 110.77862575,
          "velocity": 0.3858267716535433
        },
        {
          "duration": 0.1229507499999869,
          "durationTicks": 150,
          "midi": 38,
          "name": "D2",
          "ticks": 135300,
          "time": 110.9015765,
          "velocity": 0.6299212598425197
        },
        {
          "duration": 0.1229507499999869,
          "durationTicks": 150,
          "midi": 50,
          "name": "D3",
          "ticks": 135300,
          "time": 110.9015765,
          "velocity": 0.6299212598425197
        },
        {
          "duration": 0.24590150000000222,
          "durationTicks": 300,
          "midi": 38,
          "name": "D2",
          "ticks": 135450,
          "time": 111.02452724999999,
          "velocity": 0.6299212598425197
        },
        {
          "duration": 0.24590150000000222,
          "durationTicks": 300,
          "midi": 50,
          "name": "D3",
          "ticks": 135450,
          "time": 111.02452724999999,
          "velocity": 0.6299212598425197
        },
        {
          "duration": 0.12295075000000111,
          "durationTicks": 150,
          "midi": 38,
          "name": "D2",
          "ticks": 135750,
          "time": 111.27042875,
          "velocity": 0.3858267716535433
        },
        {
          "duration": 0.12295075000000111,
          "durationTicks": 150,
          "midi": 50,
          "name": "D3",
          "ticks": 135750,
          "time": 111.27042875,
          "velocity": 0.3858267716535433
        },
        {
          "duration": 0.12295075000000111,
          "durationTicks": 150,
          "midi": 38,
          "name": "D2",
          "ticks": 135900,
          "time": 111.3933795,
          "velocity": 0.6377952755905512
        },
        {
          "duration": 0.12295075000000111,
          "durationTicks": 150,
          "midi": 50,
          "name": "D3",
          "ticks": 135900,
          "time": 111.3933795,
          "velocity": 0.6377952755905512
        },
        {
          "duration": 0.12295075000000111,
          "durationTicks": 150,
          "midi": 38,
          "name": "D2",
          "ticks": 136050,
          "time": 111.51633025,
          "velocity": 0.3858267716535433
        },
        {
          "duration": 0.12295075000000111,
          "durationTicks": 150,
          "midi": 50,
          "name": "D3",
          "ticks": 136050,
          "time": 111.51633025,
          "velocity": 0.3858267716535433
        },
        {
          "duration": 0.12295075000000111,
          "durationTicks": 150,
          "midi": 38,
          "name": "D2",
          "ticks": 136200,
          "time": 111.639281,
          "velocity": 0.6377952755905512
        },
        {
          "duration": 0.12295075000000111,
          "durationTicks": 150,
          "midi": 50,
          "name": "D3",
          "ticks": 136200,
          "time": 111.639281,
          "velocity": 0.6377952755905512
        },
        {
          "duration": 0.12295075000000111,
          "durationTicks": 150,
          "midi": 38,
          "name": "D2",
          "ticks": 136350,
          "time": 111.76223175,
          "velocity": 0.3858267716535433
        },
        {
          "duration": 0.12295075000000111,
          "durationTicks": 150,
          "midi": 50,
          "name": "D3",
          "ticks": 136350,
          "time": 111.76223175,
          "velocity": 0.3858267716535433
        },
        {
          "duration": 0.12295075000000111,
          "durationTicks": 150,
          "midi": 38,
          "name": "D2",
          "ticks": 136500,
          "time": 111.8851825,
          "velocity": 0.6377952755905512
        },
        {
          "duration": 0.12295075000000111,
          "durationTicks": 150,
          "midi": 50,
          "name": "D3",
          "ticks": 136500,
          "time": 111.8851825,
          "velocity": 0.6377952755905512
        },
        {
          "duration": 0.12295075000000111,
          "durationTicks": 150,
          "midi": 38,
          "name": "D2",
          "ticks": 136650,
          "time": 112.00813325,
          "velocity": 0.3937007874015748
        },
        {
          "duration": 0.12295075000000111,
          "durationTicks": 150,
          "midi": 50,
          "name": "D3",
          "ticks": 136650,
          "time": 112.00813325,
          "velocity": 0.3937007874015748
        },
        {
          "duration": 0.12295075000000111,
          "durationTicks": 150,
          "midi": 38,
          "name": "D2",
          "ticks": 136800,
          "time": 112.131084,
          "velocity": 0.6299212598425197
        },
        {
          "duration": 0.12295075000000111,
          "durationTicks": 150,
          "midi": 50,
          "name": "D3",
          "ticks": 136800,
          "time": 112.131084,
          "velocity": 0.6299212598425197
        },
        {
          "duration": 0.12295075000000111,
          "durationTicks": 150,
          "midi": 38,
          "name": "D2",
          "ticks": 136950,
          "time": 112.25403475,
          "velocity": 0.3858267716535433
        },
        {
          "duration": 0.12295075000000111,
          "durationTicks": 150,
          "midi": 50,
          "name": "D3",
          "ticks": 136950,
          "time": 112.25403475,
          "velocity": 0.3858267716535433
        },
        {
          "duration": 0.12295075000000111,
          "durationTicks": 150,
          "midi": 38,
          "name": "D2",
          "ticks": 137100,
          "time": 112.3769855,
          "velocity": 0.6299212598425197
        },
        {
          "duration": 0.12295075000000111,
          "durationTicks": 150,
          "midi": 50,
          "name": "D3",
          "ticks": 137100,
          "time": 112.3769855,
          "velocity": 0.6299212598425197
        },
        {
          "duration": 0.1229507499999869,
          "durationTicks": 150,
          "midi": 38,
          "name": "D2",
          "ticks": 137250,
          "time": 112.49993625,
          "velocity": 0.3858267716535433
        },
        {
          "duration": 0.1229507499999869,
          "durationTicks": 150,
          "midi": 50,
          "name": "D3",
          "ticks": 137250,
          "time": 112.49993625,
          "velocity": 0.3858267716535433
        },
        {
          "duration": 0.12295075000000111,
          "durationTicks": 150,
          "midi": 38,
          "name": "D2",
          "ticks": 137400,
          "time": 112.62288699999999,
          "velocity": 0.6299212598425197
        },
        {
          "duration": 0.12295075000000111,
          "durationTicks": 150,
          "midi": 50,
          "name": "D3",
          "ticks": 137400,
          "time": 112.62288699999999,
          "velocity": 0.6299212598425197
        },
        {
          "duration": 0.12295075000000111,
          "durationTicks": 150,
          "midi": 38,
          "name": "D2",
          "ticks": 137550,
          "time": 112.74583774999999,
          "velocity": 0.3858267716535433
        },
        {
          "duration": 0.12295075000000111,
          "durationTicks": 150,
          "midi": 50,
          "name": "D3",
          "ticks": 137550,
          "time": 112.74583774999999,
          "velocity": 0.3858267716535433
        },
        {
          "duration": 0.12295075000000111,
          "durationTicks": 150,
          "midi": 38,
          "name": "D2",
          "ticks": 137700,
          "time": 112.8687885,
          "velocity": 0.6299212598425197
        },
        {
          "duration": 0.12295075000000111,
          "durationTicks": 150,
          "midi": 50,
          "name": "D3",
          "ticks": 137700,
          "time": 112.8687885,
          "velocity": 0.6299212598425197
        },
        {
          "duration": 0.24590150000000222,
          "durationTicks": 300,
          "midi": 38,
          "name": "D2",
          "ticks": 137850,
          "time": 112.99173925,
          "velocity": 0.6299212598425197
        },
        {
          "duration": 0.24590150000000222,
          "durationTicks": 300,
          "midi": 50,
          "name": "D3",
          "ticks": 137850,
          "time": 112.99173925,
          "velocity": 0.6299212598425197
        },
        {
          "duration": 0.12295075000000111,
          "durationTicks": 150,
          "midi": 38,
          "name": "D2",
          "ticks": 138150,
          "time": 113.23764075,
          "velocity": 0.3858267716535433
        },
        {
          "duration": 0.12295075000000111,
          "durationTicks": 150,
          "midi": 50,
          "name": "D3",
          "ticks": 138150,
          "time": 113.23764075,
          "velocity": 0.3858267716535433
        },
        {
          "duration": 0.12295075000000111,
          "durationTicks": 150,
          "midi": 38,
          "name": "D2",
          "ticks": 138300,
          "time": 113.3605915,
          "velocity": 0.6377952755905512
        },
        {
          "duration": 0.12295075000000111,
          "durationTicks": 150,
          "midi": 50,
          "name": "D3",
          "ticks": 138300,
          "time": 113.3605915,
          "velocity": 0.6377952755905512
        },
        {
          "duration": 0.12295075000000111,
          "durationTicks": 150,
          "midi": 38,
          "name": "D2",
          "ticks": 138450,
          "time": 113.48354225,
          "velocity": 0.3858267716535433
        },
        {
          "duration": 0.12295075000000111,
          "durationTicks": 150,
          "midi": 50,
          "name": "D3",
          "ticks": 138450,
          "time": 113.48354225,
          "velocity": 0.3858267716535433
        },
        {
          "duration": 0.12295075000000111,
          "durationTicks": 150,
          "midi": 38,
          "name": "D2",
          "ticks": 138600,
          "time": 113.606493,
          "velocity": 0.6377952755905512
        },
        {
          "duration": 0.12295075000000111,
          "durationTicks": 150,
          "midi": 50,
          "name": "D3",
          "ticks": 138600,
          "time": 113.606493,
          "velocity": 0.6377952755905512
        },
        {
          "duration": 0.12295075000000111,
          "durationTicks": 150,
          "midi": 38,
          "name": "D2",
          "ticks": 138750,
          "time": 113.72944375,
          "velocity": 0.3858267716535433
        },
        {
          "duration": 0.12295075000000111,
          "durationTicks": 150,
          "midi": 50,
          "name": "D3",
          "ticks": 138750,
          "time": 113.72944375,
          "velocity": 0.3858267716535433
        },
        {
          "duration": 0.12295075000000111,
          "durationTicks": 150,
          "midi": 38,
          "name": "D2",
          "ticks": 138900,
          "time": 113.8523945,
          "velocity": 0.6377952755905512
        },
        {
          "duration": 0.12295075000000111,
          "durationTicks": 150,
          "midi": 50,
          "name": "D3",
          "ticks": 138900,
          "time": 113.8523945,
          "velocity": 0.6377952755905512
        },
        {
          "duration": 0.12295075000000111,
          "durationTicks": 150,
          "midi": 38,
          "name": "D2",
          "ticks": 139050,
          "time": 113.97534525,
          "velocity": 0.3937007874015748
        },
        {
          "duration": 0.12295075000000111,
          "durationTicks": 150,
          "midi": 50,
          "name": "D3",
          "ticks": 139050,
          "time": 113.97534525,
          "velocity": 0.3937007874015748
        },
        {
          "duration": 0.1229507499999869,
          "durationTicks": 150,
          "midi": 34,
          "name": "A#1",
          "ticks": 139200,
          "time": 114.098296,
          "velocity": 0.6299212598425197
        },
        {
          "duration": 0.1229507499999869,
          "durationTicks": 150,
          "midi": 46,
          "name": "A#2",
          "ticks": 139200,
          "time": 114.098296,
          "velocity": 0.6299212598425197
        },
        {
          "duration": 0.12295075000000111,
          "durationTicks": 150,
          "midi": 34,
          "name": "A#1",
          "ticks": 139350,
          "time": 114.22124674999999,
          "velocity": 0.3858267716535433
        },
        {
          "duration": 0.12295075000000111,
          "durationTicks": 150,
          "midi": 46,
          "name": "A#2",
          "ticks": 139350,
          "time": 114.22124674999999,
          "velocity": 0.3858267716535433
        },
        {
          "duration": 0.12295075000000111,
          "durationTicks": 150,
          "midi": 34,
          "name": "A#1",
          "ticks": 139500,
          "time": 114.34419749999999,
          "velocity": 0.6299212598425197
        },
        {
          "duration": 0.12295075000000111,
          "durationTicks": 150,
          "midi": 46,
          "name": "A#2",
          "ticks": 139500,
          "time": 114.34419749999999,
          "velocity": 0.6299212598425197
        },
        {
          "duration": 0.12295075000000111,
          "durationTicks": 150,
          "midi": 34,
          "name": "A#1",
          "ticks": 139650,
          "time": 114.46714825,
          "velocity": 0.3858267716535433
        },
        {
          "duration": 0.12295075000000111,
          "durationTicks": 150,
          "midi": 46,
          "name": "A#2",
          "ticks": 139650,
          "time": 114.46714825,
          "velocity": 0.3858267716535433
        },
        {
          "duration": 0.12295075000000111,
          "durationTicks": 150,
          "midi": 34,
          "name": "A#1",
          "ticks": 139800,
          "time": 114.590099,
          "velocity": 0.6299212598425197
        },
        {
          "duration": 0.12295075000000111,
          "durationTicks": 150,
          "midi": 46,
          "name": "A#2",
          "ticks": 139800,
          "time": 114.590099,
          "velocity": 0.6299212598425197
        },
        {
          "duration": 0.12295075000000111,
          "durationTicks": 150,
          "midi": 34,
          "name": "A#1",
          "ticks": 139950,
          "time": 114.71304975,
          "velocity": 0.3858267716535433
        },
        {
          "duration": 0.12295075000000111,
          "durationTicks": 150,
          "midi": 46,
          "name": "A#2",
          "ticks": 139950,
          "time": 114.71304975,
          "velocity": 0.3858267716535433
        },
        {
          "duration": 0.12295075000000111,
          "durationTicks": 150,
          "midi": 34,
          "name": "A#1",
          "ticks": 140100,
          "time": 114.8360005,
          "velocity": 0.6299212598425197
        },
        {
          "duration": 0.12295075000000111,
          "durationTicks": 150,
          "midi": 46,
          "name": "A#2",
          "ticks": 140100,
          "time": 114.8360005,
          "velocity": 0.6299212598425197
        },
        {
          "duration": 0.24590150000000222,
          "durationTicks": 300,
          "midi": 34,
          "name": "A#1",
          "ticks": 140250,
          "time": 114.95895125,
          "velocity": 0.6299212598425197
        },
        {
          "duration": 0.24590150000000222,
          "durationTicks": 300,
          "midi": 46,
          "name": "A#2",
          "ticks": 140250,
          "time": 114.95895125,
          "velocity": 0.6299212598425197
        },
        {
          "duration": 0.12295075000000111,
          "durationTicks": 150,
          "midi": 34,
          "name": "A#1",
          "ticks": 140550,
          "time": 115.20485275,
          "velocity": 0.3858267716535433
        },
        {
          "duration": 0.12295075000000111,
          "durationTicks": 150,
          "midi": 46,
          "name": "A#2",
          "ticks": 140550,
          "time": 115.20485275,
          "velocity": 0.3858267716535433
        },
        {
          "duration": 0.12295075000000111,
          "durationTicks": 150,
          "midi": 34,
          "name": "A#1",
          "ticks": 140700,
          "time": 115.3278035,
          "velocity": 0.6377952755905512
        },
        {
          "duration": 0.12295075000000111,
          "durationTicks": 150,
          "midi": 46,
          "name": "A#2",
          "ticks": 140700,
          "time": 115.3278035,
          "velocity": 0.6377952755905512
        },
        {
          "duration": 0.12295075000000111,
          "durationTicks": 150,
          "midi": 34,
          "name": "A#1",
          "ticks": 140850,
          "time": 115.45075425,
          "velocity": 0.3858267716535433
        },
        {
          "duration": 0.12295075000000111,
          "durationTicks": 150,
          "midi": 46,
          "name": "A#2",
          "ticks": 140850,
          "time": 115.45075425,
          "velocity": 0.3858267716535433
        },
        {
          "duration": 0.1229507499999869,
          "durationTicks": 150,
          "midi": 34,
          "name": "A#1",
          "ticks": 141000,
          "time": 115.573705,
          "velocity": 0.6377952755905512
        },
        {
          "duration": 0.1229507499999869,
          "durationTicks": 150,
          "midi": 46,
          "name": "A#2",
          "ticks": 141000,
          "time": 115.573705,
          "velocity": 0.6377952755905512
        },
        {
          "duration": 0.12295075000000111,
          "durationTicks": 150,
          "midi": 34,
          "name": "A#1",
          "ticks": 141150,
          "time": 115.69665574999999,
          "velocity": 0.3858267716535433
        },
        {
          "duration": 0.12295075000000111,
          "durationTicks": 150,
          "midi": 46,
          "name": "A#2",
          "ticks": 141150,
          "time": 115.69665574999999,
          "velocity": 0.3858267716535433
        },
        {
          "duration": 0.12295075000000111,
          "durationTicks": 150,
          "midi": 34,
          "name": "A#1",
          "ticks": 141300,
          "time": 115.81960649999999,
          "velocity": 0.6377952755905512
        },
        {
          "duration": 0.12295075000000111,
          "durationTicks": 150,
          "midi": 46,
          "name": "A#2",
          "ticks": 141300,
          "time": 115.81960649999999,
          "velocity": 0.6377952755905512
        },
        {
          "duration": 0.12295075000000111,
          "durationTicks": 150,
          "midi": 34,
          "name": "A#1",
          "ticks": 141450,
          "time": 115.94255725,
          "velocity": 0.3937007874015748
        },
        {
          "duration": 0.12295075000000111,
          "durationTicks": 150,
          "midi": 46,
          "name": "A#2",
          "ticks": 141450,
          "time": 115.94255725,
          "velocity": 0.3937007874015748
        },
        {
          "duration": 0.12295075000000111,
          "durationTicks": 150,
          "midi": 36,
          "name": "C2",
          "ticks": 141600,
          "time": 116.065508,
          "velocity": 0.6299212598425197
        },
        {
          "duration": 0.12295075000000111,
          "durationTicks": 150,
          "midi": 48,
          "name": "C3",
          "ticks": 141600,
          "time": 116.065508,
          "velocity": 0.6299212598425197
        },
        {
          "duration": 0.12295075000000111,
          "durationTicks": 150,
          "midi": 36,
          "name": "C2",
          "ticks": 141750,
          "time": 116.18845875,
          "velocity": 0.3858267716535433
        },
        {
          "duration": 0.12295075000000111,
          "durationTicks": 150,
          "midi": 48,
          "name": "C3",
          "ticks": 141750,
          "time": 116.18845875,
          "velocity": 0.3858267716535433
        },
        {
          "duration": 0.12295075000000111,
          "durationTicks": 150,
          "midi": 36,
          "name": "C2",
          "ticks": 141900,
          "time": 116.3114095,
          "velocity": 0.6299212598425197
        },
        {
          "duration": 0.12295075000000111,
          "durationTicks": 150,
          "midi": 48,
          "name": "C3",
          "ticks": 141900,
          "time": 116.3114095,
          "velocity": 0.6299212598425197
        },
        {
          "duration": 0.12295075000000111,
          "durationTicks": 150,
          "midi": 36,
          "name": "C2",
          "ticks": 142050,
          "time": 116.43436025,
          "velocity": 0.3858267716535433
        },
        {
          "duration": 0.12295075000000111,
          "durationTicks": 150,
          "midi": 48,
          "name": "C3",
          "ticks": 142050,
          "time": 116.43436025,
          "velocity": 0.3858267716535433
        },
        {
          "duration": 0.12295075000000111,
          "durationTicks": 150,
          "midi": 36,
          "name": "C2",
          "ticks": 142200,
          "time": 116.557311,
          "velocity": 0.6299212598425197
        },
        {
          "duration": 0.12295075000000111,
          "durationTicks": 150,
          "midi": 48,
          "name": "C3",
          "ticks": 142200,
          "time": 116.557311,
          "velocity": 0.6299212598425197
        },
        {
          "duration": 0.12295075000000111,
          "durationTicks": 150,
          "midi": 36,
          "name": "C2",
          "ticks": 142350,
          "time": 116.68026175,
          "velocity": 0.3858267716535433
        },
        {
          "duration": 0.12295075000000111,
          "durationTicks": 150,
          "midi": 48,
          "name": "C3",
          "ticks": 142350,
          "time": 116.68026175,
          "velocity": 0.3858267716535433
        },
        {
          "duration": 0.12295075000000111,
          "durationTicks": 150,
          "midi": 36,
          "name": "C2",
          "ticks": 142500,
          "time": 116.8032125,
          "velocity": 0.6299212598425197
        },
        {
          "duration": 0.12295075000000111,
          "durationTicks": 150,
          "midi": 48,
          "name": "C3",
          "ticks": 142500,
          "time": 116.8032125,
          "velocity": 0.6299212598425197
        },
        {
          "duration": 0.24590150000000222,
          "durationTicks": 300,
          "midi": 37,
          "name": "C#2",
          "ticks": 142650,
          "time": 116.92616325,
          "velocity": 0.6299212598425197
        },
        {
          "duration": 0.24590150000000222,
          "durationTicks": 300,
          "midi": 49,
          "name": "C#3",
          "ticks": 142650,
          "time": 116.92616325,
          "velocity": 0.6299212598425197
        },
        {
          "duration": 0.1229507499999869,
          "durationTicks": 150,
          "midi": 37,
          "name": "C#2",
          "ticks": 142950,
          "time": 117.17206475,
          "velocity": 0.3858267716535433
        },
        {
          "duration": 0.1229507499999869,
          "durationTicks": 150,
          "midi": 49,
          "name": "C#3",
          "ticks": 142950,
          "time": 117.17206475,
          "velocity": 0.3858267716535433
        },
        {
          "duration": 0.12295075000000111,
          "durationTicks": 150,
          "midi": 37,
          "name": "C#2",
          "ticks": 143100,
          "time": 117.29501549999999,
          "velocity": 0.6377952755905512
        },
        {
          "duration": 0.12295075000000111,
          "durationTicks": 150,
          "midi": 49,
          "name": "C#3",
          "ticks": 143100,
          "time": 117.29501549999999,
          "velocity": 0.6377952755905512
        },
        {
          "duration": 0.12295075000000111,
          "durationTicks": 150,
          "midi": 37,
          "name": "C#2",
          "ticks": 143250,
          "time": 117.41796624999999,
          "velocity": 0.3858267716535433
        },
        {
          "duration": 0.12295075000000111,
          "durationTicks": 150,
          "midi": 49,
          "name": "C#3",
          "ticks": 143250,
          "time": 117.41796624999999,
          "velocity": 0.3858267716535433
        },
        {
          "duration": 0.12295075000000111,
          "durationTicks": 150,
          "midi": 37,
          "name": "C#2",
          "ticks": 143400,
          "time": 117.540917,
          "velocity": 0.6377952755905512
        },
        {
          "duration": 0.12295075000000111,
          "durationTicks": 150,
          "midi": 49,
          "name": "C#3",
          "ticks": 143400,
          "time": 117.540917,
          "velocity": 0.6377952755905512
        },
        {
          "duration": 0.12295075000000111,
          "durationTicks": 150,
          "midi": 37,
          "name": "C#2",
          "ticks": 143550,
          "time": 117.66386775,
          "velocity": 0.3858267716535433
        },
        {
          "duration": 0.12295075000000111,
          "durationTicks": 150,
          "midi": 49,
          "name": "C#3",
          "ticks": 143550,
          "time": 117.66386775,
          "velocity": 0.3858267716535433
        },
        {
          "duration": 0.12295075000000111,
          "durationTicks": 150,
          "midi": 37,
          "name": "C#2",
          "ticks": 143700,
          "time": 117.7868185,
          "velocity": 0.6377952755905512
        },
        {
          "duration": 0.12295075000000111,
          "durationTicks": 150,
          "midi": 49,
          "name": "C#3",
          "ticks": 143700,
          "time": 117.7868185,
          "velocity": 0.6377952755905512
        },
        {
          "duration": 0.12295075000000111,
          "durationTicks": 150,
          "midi": 37,
          "name": "C#2",
          "ticks": 143850,
          "time": 117.90976925,
          "velocity": 0.3937007874015748
        },
        {
          "duration": 0.12295075000000111,
          "durationTicks": 150,
          "midi": 49,
          "name": "C#3",
          "ticks": 143850,
          "time": 117.90976925,
          "velocity": 0.3937007874015748
        },
        {
          "duration": 0.12295075000000111,
          "durationTicks": 150,
          "midi": 38,
          "name": "D2",
          "ticks": 144000,
          "time": 118.03272,
          "velocity": 0.6299212598425197
        },
        {
          "duration": 0.12295075000000111,
          "durationTicks": 150,
          "midi": 50,
          "name": "D3",
          "ticks": 144000,
          "time": 118.03272,
          "velocity": 0.6299212598425197
        },
        {
          "duration": 0.12295075000000111,
          "durationTicks": 150,
          "midi": 38,
          "name": "D2",
          "ticks": 144150,
          "time": 118.15567075,
          "velocity": 0.3858267716535433
        },
        {
          "duration": 0.12295075000000111,
          "durationTicks": 150,
          "midi": 50,
          "name": "D3",
          "ticks": 144150,
          "time": 118.15567075,
          "velocity": 0.3858267716535433
        },
        {
          "duration": 0.12295075000000111,
          "durationTicks": 150,
          "midi": 38,
          "name": "D2",
          "ticks": 144300,
          "time": 118.2786215,
          "velocity": 0.6299212598425197
        },
        {
          "duration": 0.12295075000000111,
          "durationTicks": 150,
          "midi": 50,
          "name": "D3",
          "ticks": 144300,
          "time": 118.2786215,
          "velocity": 0.6299212598425197
        },
        {
          "duration": 0.12295075000000111,
          "durationTicks": 150,
          "midi": 38,
          "name": "D2",
          "ticks": 144450,
          "time": 118.40157225,
          "velocity": 0.3858267716535433
        },
        {
          "duration": 0.12295075000000111,
          "durationTicks": 150,
          "midi": 50,
          "name": "D3",
          "ticks": 144450,
          "time": 118.40157225,
          "velocity": 0.3858267716535433
        },
        {
          "duration": 0.12295075000000111,
          "durationTicks": 150,
          "midi": 38,
          "name": "D2",
          "ticks": 144600,
          "time": 118.524523,
          "velocity": 0.6299212598425197
        },
        {
          "duration": 0.12295075000000111,
          "durationTicks": 150,
          "midi": 50,
          "name": "D3",
          "ticks": 144600,
          "time": 118.524523,
          "velocity": 0.6299212598425197
        },
        {
          "duration": 0.12295075000000111,
          "durationTicks": 150,
          "midi": 38,
          "name": "D2",
          "ticks": 144750,
          "time": 118.64747375,
          "velocity": 0.3858267716535433
        },
        {
          "duration": 0.12295075000000111,
          "durationTicks": 150,
          "midi": 50,
          "name": "D3",
          "ticks": 144750,
          "time": 118.64747375,
          "velocity": 0.3858267716535433
        },
        {
          "duration": 0.1229507499999869,
          "durationTicks": 150,
          "midi": 38,
          "name": "D2",
          "ticks": 144900,
          "time": 118.7704245,
          "velocity": 0.6299212598425197
        },
        {
          "duration": 0.1229507499999869,
          "durationTicks": 150,
          "midi": 50,
          "name": "D3",
          "ticks": 144900,
          "time": 118.7704245,
          "velocity": 0.6299212598425197
        },
        {
          "duration": 0.24590150000000222,
          "durationTicks": 300,
          "midi": 38,
          "name": "D2",
          "ticks": 145050,
          "time": 118.89337524999999,
          "velocity": 0.6299212598425197
        },
        {
          "duration": 0.24590150000000222,
          "durationTicks": 300,
          "midi": 50,
          "name": "D3",
          "ticks": 145050,
          "time": 118.89337524999999,
          "velocity": 0.6299212598425197
        },
        {
          "duration": 0.12295075000000111,
          "durationTicks": 150,
          "midi": 38,
          "name": "D2",
          "ticks": 145350,
          "time": 119.13927675,
          "velocity": 0.3858267716535433
        },
        {
          "duration": 0.12295075000000111,
          "durationTicks": 150,
          "midi": 50,
          "name": "D3",
          "ticks": 145350,
          "time": 119.13927675,
          "velocity": 0.3858267716535433
        },
        {
          "duration": 0.12295075000000111,
          "durationTicks": 150,
          "midi": 38,
          "name": "D2",
          "ticks": 145500,
          "time": 119.2622275,
          "velocity": 0.6377952755905512
        },
        {
          "duration": 0.12295075000000111,
          "durationTicks": 150,
          "midi": 50,
          "name": "D3",
          "ticks": 145500,
          "time": 119.2622275,
          "velocity": 0.6377952755905512
        },
        {
          "duration": 0.12295075000000111,
          "durationTicks": 150,
          "midi": 38,
          "name": "D2",
          "ticks": 145650,
          "time": 119.38517825,
          "velocity": 0.3858267716535433
        },
        {
          "duration": 0.12295075000000111,
          "durationTicks": 150,
          "midi": 50,
          "name": "D3",
          "ticks": 145650,
          "time": 119.38517825,
          "velocity": 0.3858267716535433
        },
        {
          "duration": 0.12295075000000111,
          "durationTicks": 150,
          "midi": 38,
          "name": "D2",
          "ticks": 145800,
          "time": 119.508129,
          "velocity": 0.6377952755905512
        },
        {
          "duration": 0.12295075000000111,
          "durationTicks": 150,
          "midi": 50,
          "name": "D3",
          "ticks": 145800,
          "time": 119.508129,
          "velocity": 0.6377952755905512
        },
        {
          "duration": 0.12295075000000111,
          "durationTicks": 150,
          "midi": 38,
          "name": "D2",
          "ticks": 145950,
          "time": 119.63107975,
          "velocity": 0.3858267716535433
        },
        {
          "duration": 0.12295075000000111,
          "durationTicks": 150,
          "midi": 50,
          "name": "D3",
          "ticks": 145950,
          "time": 119.63107975,
          "velocity": 0.3858267716535433
        },
        {
          "duration": 0.12295075000000111,
          "durationTicks": 150,
          "midi": 38,
          "name": "D2",
          "ticks": 146100,
          "time": 119.7540305,
          "velocity": 0.6377952755905512
        },
        {
          "duration": 0.12295075000000111,
          "durationTicks": 150,
          "midi": 50,
          "name": "D3",
          "ticks": 146100,
          "time": 119.7540305,
          "velocity": 0.6377952755905512
        },
        {
          "duration": 0.12295075000000111,
          "durationTicks": 150,
          "midi": 38,
          "name": "D2",
          "ticks": 146250,
          "time": 119.87698125,
          "velocity": 0.3937007874015748
        },
        {
          "duration": 0.12295075000000111,
          "durationTicks": 150,
          "midi": 50,
          "name": "D3",
          "ticks": 146250,
          "time": 119.87698125,
          "velocity": 0.3937007874015748
        },
        {
          "duration": 0.12295075000000111,
          "durationTicks": 150,
          "midi": 38,
          "name": "D2",
          "ticks": 146400,
          "time": 119.999932,
          "velocity": 0.6299212598425197
        },
        {
          "duration": 0.12295075000000111,
          "durationTicks": 150,
          "midi": 50,
          "name": "D3",
          "ticks": 146400,
          "time": 119.999932,
          "velocity": 0.6299212598425197
        },
        {
          "duration": 0.12295075000000111,
          "durationTicks": 150,
          "midi": 38,
          "name": "D2",
          "ticks": 146550,
          "time": 120.12288275,
          "velocity": 0.3858267716535433
        },
        {
          "duration": 0.12295075000000111,
          "durationTicks": 150,
          "midi": 50,
          "name": "D3",
          "ticks": 146550,
          "time": 120.12288275,
          "velocity": 0.3858267716535433
        },
        {
          "duration": 0.12295075000000111,
          "durationTicks": 150,
          "midi": 38,
          "name": "D2",
          "ticks": 146700,
          "time": 120.2458335,
          "velocity": 0.6299212598425197
        },
        {
          "duration": 0.12295075000000111,
          "durationTicks": 150,
          "midi": 50,
          "name": "D3",
          "ticks": 146700,
          "time": 120.2458335,
          "velocity": 0.6299212598425197
        },
        {
          "duration": 0.1229507499999869,
          "durationTicks": 150,
          "midi": 38,
          "name": "D2",
          "ticks": 146850,
          "time": 120.36878425,
          "velocity": 0.3858267716535433
        },
        {
          "duration": 0.1229507499999869,
          "durationTicks": 150,
          "midi": 50,
          "name": "D3",
          "ticks": 146850,
          "time": 120.36878425,
          "velocity": 0.3858267716535433
        },
        {
          "duration": 0.12295075000000111,
          "durationTicks": 150,
          "midi": 38,
          "name": "D2",
          "ticks": 147000,
          "time": 120.49173499999999,
          "velocity": 0.6299212598425197
        },
        {
          "duration": 0.12295075000000111,
          "durationTicks": 150,
          "midi": 50,
          "name": "D3",
          "ticks": 147000,
          "time": 120.49173499999999,
          "velocity": 0.6299212598425197
        },
        {
          "duration": 0.12295075000000111,
          "durationTicks": 150,
          "midi": 38,
          "name": "D2",
          "ticks": 147150,
          "time": 120.61468574999999,
          "velocity": 0.3858267716535433
        },
        {
          "duration": 0.12295075000000111,
          "durationTicks": 150,
          "midi": 50,
          "name": "D3",
          "ticks": 147150,
          "time": 120.61468574999999,
          "velocity": 0.3858267716535433
        },
        {
          "duration": 0.12295075000000111,
          "durationTicks": 150,
          "midi": 38,
          "name": "D2",
          "ticks": 147300,
          "time": 120.7376365,
          "velocity": 0.6299212598425197
        },
        {
          "duration": 0.12295075000000111,
          "durationTicks": 150,
          "midi": 50,
          "name": "D3",
          "ticks": 147300,
          "time": 120.7376365,
          "velocity": 0.6299212598425197
        },
        {
          "duration": 0.24590150000000222,
          "durationTicks": 300,
          "midi": 38,
          "name": "D2",
          "ticks": 147450,
          "time": 120.86058725,
          "velocity": 0.6299212598425197
        },
        {
          "duration": 0.24590150000000222,
          "durationTicks": 300,
          "midi": 50,
          "name": "D3",
          "ticks": 147450,
          "time": 120.86058725,
          "velocity": 0.6299212598425197
        },
        {
          "duration": 0.12295075000000111,
          "durationTicks": 150,
          "midi": 38,
          "name": "D2",
          "ticks": 147750,
          "time": 121.10648875,
          "velocity": 0.3858267716535433
        },
        {
          "duration": 0.12295075000000111,
          "durationTicks": 150,
          "midi": 50,
          "name": "D3",
          "ticks": 147750,
          "time": 121.10648875,
          "velocity": 0.3858267716535433
        },
        {
          "duration": 0.12295075000000111,
          "durationTicks": 150,
          "midi": 38,
          "name": "D2",
          "ticks": 147900,
          "time": 121.2294395,
          "velocity": 0.6377952755905512
        },
        {
          "duration": 0.12295075000000111,
          "durationTicks": 150,
          "midi": 50,
          "name": "D3",
          "ticks": 147900,
          "time": 121.2294395,
          "velocity": 0.6377952755905512
        },
        {
          "duration": 0.12295075000000111,
          "durationTicks": 150,
          "midi": 38,
          "name": "D2",
          "ticks": 148050,
          "time": 121.35239025,
          "velocity": 0.3858267716535433
        },
        {
          "duration": 0.12295075000000111,
          "durationTicks": 150,
          "midi": 50,
          "name": "D3",
          "ticks": 148050,
          "time": 121.35239025,
          "velocity": 0.3858267716535433
        },
        {
          "duration": 0.12295075000000111,
          "durationTicks": 150,
          "midi": 38,
          "name": "D2",
          "ticks": 148200,
          "time": 121.475341,
          "velocity": 0.6377952755905512
        },
        {
          "duration": 0.12295075000000111,
          "durationTicks": 150,
          "midi": 50,
          "name": "D3",
          "ticks": 148200,
          "time": 121.475341,
          "velocity": 0.6377952755905512
        },
        {
          "duration": 0.12295075000000111,
          "durationTicks": 150,
          "midi": 38,
          "name": "D2",
          "ticks": 148350,
          "time": 121.59829175,
          "velocity": 0.3858267716535433
        },
        {
          "duration": 0.12295075000000111,
          "durationTicks": 150,
          "midi": 50,
          "name": "D3",
          "ticks": 148350,
          "time": 121.59829175,
          "velocity": 0.3858267716535433
        },
        {
          "duration": 0.12295075000000111,
          "durationTicks": 150,
          "midi": 38,
          "name": "D2",
          "ticks": 148500,
          "time": 121.7212425,
          "velocity": 0.6377952755905512
        },
        {
          "duration": 0.12295075000000111,
          "durationTicks": 150,
          "midi": 50,
          "name": "D3",
          "ticks": 148500,
          "time": 121.7212425,
          "velocity": 0.6377952755905512
        },
        {
          "duration": 0.1229507499999869,
          "durationTicks": 150,
          "midi": 38,
          "name": "D2",
          "ticks": 148650,
          "time": 121.84419325,
          "velocity": 0.3937007874015748
        },
        {
          "duration": 0.1229507499999869,
          "durationTicks": 150,
          "midi": 50,
          "name": "D3",
          "ticks": 148650,
          "time": 121.84419325,
          "velocity": 0.3937007874015748
        },
        {
          "duration": 0.12295075000000111,
          "durationTicks": 150,
          "midi": 34,
          "name": "A#1",
          "ticks": 148800,
          "time": 121.96714399999999,
          "velocity": 0.6299212598425197
        },
        {
          "duration": 0.12295075000000111,
          "durationTicks": 150,
          "midi": 46,
          "name": "A#2",
          "ticks": 148800,
          "time": 121.96714399999999,
          "velocity": 0.6299212598425197
        },
        {
          "duration": 0.12295075000000111,
          "durationTicks": 150,
          "midi": 34,
          "name": "A#1",
          "ticks": 148950,
          "time": 122.09009474999999,
          "velocity": 0.3858267716535433
        },
        {
          "duration": 0.12295075000000111,
          "durationTicks": 150,
          "midi": 46,
          "name": "A#2",
          "ticks": 148950,
          "time": 122.09009474999999,
          "velocity": 0.3858267716535433
        },
        {
          "duration": 0.12295075000000111,
          "durationTicks": 150,
          "midi": 34,
          "name": "A#1",
          "ticks": 149100,
          "time": 122.21304549999999,
          "velocity": 0.6299212598425197
        },
        {
          "duration": 0.12295075000000111,
          "durationTicks": 150,
          "midi": 46,
          "name": "A#2",
          "ticks": 149100,
          "time": 122.21304549999999,
          "velocity": 0.6299212598425197
        },
        {
          "duration": 0.12295075000000111,
          "durationTicks": 150,
          "midi": 34,
          "name": "A#1",
          "ticks": 149250,
          "time": 122.33599625,
          "velocity": 0.3858267716535433
        },
        {
          "duration": 0.12295075000000111,
          "durationTicks": 150,
          "midi": 46,
          "name": "A#2",
          "ticks": 149250,
          "time": 122.33599625,
          "velocity": 0.3858267716535433
        },
        {
          "duration": 0.12295075000000111,
          "durationTicks": 150,
          "midi": 34,
          "name": "A#1",
          "ticks": 149400,
          "time": 122.458947,
          "velocity": 0.6299212598425197
        },
        {
          "duration": 0.12295075000000111,
          "durationTicks": 150,
          "midi": 46,
          "name": "A#2",
          "ticks": 149400,
          "time": 122.458947,
          "velocity": 0.6299212598425197
        },
        {
          "duration": 0.12295075000000111,
          "durationTicks": 150,
          "midi": 34,
          "name": "A#1",
          "ticks": 149550,
          "time": 122.58189775,
          "velocity": 0.3858267716535433
        },
        {
          "duration": 0.12295075000000111,
          "durationTicks": 150,
          "midi": 46,
          "name": "A#2",
          "ticks": 149550,
          "time": 122.58189775,
          "velocity": 0.3858267716535433
        },
        {
          "duration": 0.12295075000000111,
          "durationTicks": 150,
          "midi": 34,
          "name": "A#1",
          "ticks": 149700,
          "time": 122.7048485,
          "velocity": 0.6299212598425197
        },
        {
          "duration": 0.12295075000000111,
          "durationTicks": 150,
          "midi": 46,
          "name": "A#2",
          "ticks": 149700,
          "time": 122.7048485,
          "velocity": 0.6299212598425197
        },
        {
          "duration": 0.24590150000000222,
          "durationTicks": 300,
          "midi": 34,
          "name": "A#1",
          "ticks": 149850,
          "time": 122.82779925,
          "velocity": 0.6299212598425197
        },
        {
          "duration": 0.24590150000000222,
          "durationTicks": 300,
          "midi": 46,
          "name": "A#2",
          "ticks": 149850,
          "time": 122.82779925,
          "velocity": 0.6299212598425197
        },
        {
          "duration": 0.12295075000000111,
          "durationTicks": 150,
          "midi": 34,
          "name": "A#1",
          "ticks": 150150,
          "time": 123.07370075,
          "velocity": 0.3858267716535433
        },
        {
          "duration": 0.12295075000000111,
          "durationTicks": 150,
          "midi": 46,
          "name": "A#2",
          "ticks": 150150,
          "time": 123.07370075,
          "velocity": 0.3858267716535433
        },
        {
          "duration": 0.12295075000000111,
          "durationTicks": 150,
          "midi": 34,
          "name": "A#1",
          "ticks": 150300,
          "time": 123.1966515,
          "velocity": 0.6377952755905512
        },
        {
          "duration": 0.12295075000000111,
          "durationTicks": 150,
          "midi": 46,
          "name": "A#2",
          "ticks": 150300,
          "time": 123.1966515,
          "velocity": 0.6377952755905512
        },
        {
          "duration": 0.12295075000000111,
          "durationTicks": 150,
          "midi": 34,
          "name": "A#1",
          "ticks": 150450,
          "time": 123.31960225,
          "velocity": 0.3858267716535433
        },
        {
          "duration": 0.12295075000000111,
          "durationTicks": 150,
          "midi": 46,
          "name": "A#2",
          "ticks": 150450,
          "time": 123.31960225,
          "velocity": 0.3858267716535433
        },
        {
          "duration": 0.1229507499999869,
          "durationTicks": 150,
          "midi": 34,
          "name": "A#1",
          "ticks": 150600,
          "time": 123.442553,
          "velocity": 0.6377952755905512
        },
        {
          "duration": 0.1229507499999869,
          "durationTicks": 150,
          "midi": 46,
          "name": "A#2",
          "ticks": 150600,
          "time": 123.442553,
          "velocity": 0.6377952755905512
        },
        {
          "duration": 0.12295075000000111,
          "durationTicks": 150,
          "midi": 34,
          "name": "A#1",
          "ticks": 150750,
          "time": 123.56550374999999,
          "velocity": 0.3858267716535433
        },
        {
          "duration": 0.12295075000000111,
          "durationTicks": 150,
          "midi": 46,
          "name": "A#2",
          "ticks": 150750,
          "time": 123.56550374999999,
          "velocity": 0.3858267716535433
        },
        {
          "duration": 0.12295075000000111,
          "durationTicks": 150,
          "midi": 34,
          "name": "A#1",
          "ticks": 150900,
          "time": 123.68845449999999,
          "velocity": 0.6377952755905512
        },
        {
          "duration": 0.12295075000000111,
          "durationTicks": 150,
          "midi": 46,
          "name": "A#2",
          "ticks": 150900,
          "time": 123.68845449999999,
          "velocity": 0.6377952755905512
        },
        {
          "duration": 0.12295075000000111,
          "durationTicks": 150,
          "midi": 34,
          "name": "A#1",
          "ticks": 151050,
          "time": 123.81140524999999,
          "velocity": 0.3937007874015748
        },
        {
          "duration": 0.12295075000000111,
          "durationTicks": 150,
          "midi": 46,
          "name": "A#2",
          "ticks": 151050,
          "time": 123.81140524999999,
          "velocity": 0.3937007874015748
        },
        {
          "duration": 0.12295075000000111,
          "durationTicks": 150,
          "midi": 36,
          "name": "C2",
          "ticks": 151200,
          "time": 123.934356,
          "velocity": 0.6299212598425197
        },
        {
          "duration": 0.12295075000000111,
          "durationTicks": 150,
          "midi": 48,
          "name": "C3",
          "ticks": 151200,
          "time": 123.934356,
          "velocity": 0.6299212598425197
        },
        {
          "duration": 0.12295075000000111,
          "durationTicks": 150,
          "midi": 36,
          "name": "C2",
          "ticks": 151350,
          "time": 124.05730675,
          "velocity": 0.3858267716535433
        },
        {
          "duration": 0.12295075000000111,
          "durationTicks": 150,
          "midi": 48,
          "name": "C3",
          "ticks": 151350,
          "time": 124.05730675,
          "velocity": 0.3858267716535433
        },
        {
          "duration": 0.12295075000000111,
          "durationTicks": 150,
          "midi": 36,
          "name": "C2",
          "ticks": 151500,
          "time": 124.1802575,
          "velocity": 0.6299212598425197
        },
        {
          "duration": 0.12295075000000111,
          "durationTicks": 150,
          "midi": 48,
          "name": "C3",
          "ticks": 151500,
          "time": 124.1802575,
          "velocity": 0.6299212598425197
        },
        {
          "duration": 0.12295075000000111,
          "durationTicks": 150,
          "midi": 36,
          "name": "C2",
          "ticks": 151650,
          "time": 124.30320825,
          "velocity": 0.3858267716535433
        },
        {
          "duration": 0.12295075000000111,
          "durationTicks": 150,
          "midi": 48,
          "name": "C3",
          "ticks": 151650,
          "time": 124.30320825,
          "velocity": 0.3858267716535433
        },
        {
          "duration": 0.12295075000000111,
          "durationTicks": 150,
          "midi": 36,
          "name": "C2",
          "ticks": 151800,
          "time": 124.426159,
          "velocity": 0.6299212598425197
        },
        {
          "duration": 0.12295075000000111,
          "durationTicks": 150,
          "midi": 48,
          "name": "C3",
          "ticks": 151800,
          "time": 124.426159,
          "velocity": 0.6299212598425197
        },
        {
          "duration": 0.12295075000000111,
          "durationTicks": 150,
          "midi": 36,
          "name": "C2",
          "ticks": 151950,
          "time": 124.54910975,
          "velocity": 0.3858267716535433
        },
        {
          "duration": 0.12295075000000111,
          "durationTicks": 150,
          "midi": 48,
          "name": "C3",
          "ticks": 151950,
          "time": 124.54910975,
          "velocity": 0.3858267716535433
        },
        {
          "duration": 0.12295075000000111,
          "durationTicks": 150,
          "midi": 36,
          "name": "C2",
          "ticks": 152100,
          "time": 124.6720605,
          "velocity": 0.6299212598425197
        },
        {
          "duration": 0.12295075000000111,
          "durationTicks": 150,
          "midi": 48,
          "name": "C3",
          "ticks": 152100,
          "time": 124.6720605,
          "velocity": 0.6299212598425197
        },
        {
          "duration": 0.24590150000000222,
          "durationTicks": 300,
          "midi": 37,
          "name": "C#2",
          "ticks": 152250,
          "time": 124.79501125,
          "velocity": 0.6299212598425197
        },
        {
          "duration": 0.24590150000000222,
          "durationTicks": 300,
          "midi": 49,
          "name": "C#3",
          "ticks": 152250,
          "time": 124.79501125,
          "velocity": 0.6299212598425197
        },
        {
          "duration": 0.1229507499999869,
          "durationTicks": 150,
          "midi": 37,
          "name": "C#2",
          "ticks": 152550,
          "time": 125.04091275,
          "velocity": 0.3858267716535433
        },
        {
          "duration": 0.1229507499999869,
          "durationTicks": 150,
          "midi": 49,
          "name": "C#3",
          "ticks": 152550,
          "time": 125.04091275,
          "velocity": 0.3858267716535433
        },
        {
          "duration": 0.12295075000000111,
          "durationTicks": 150,
          "midi": 37,
          "name": "C#2",
          "ticks": 152700,
          "time": 125.16386349999999,
          "velocity": 0.6377952755905512
        },
        {
          "duration": 0.12295075000000111,
          "durationTicks": 150,
          "midi": 49,
          "name": "C#3",
          "ticks": 152700,
          "time": 125.16386349999999,
          "velocity": 0.6377952755905512
        },
        {
          "duration": 0.12295075000000111,
          "durationTicks": 150,
          "midi": 37,
          "name": "C#2",
          "ticks": 152850,
          "time": 125.28681424999999,
          "velocity": 0.3858267716535433
        },
        {
          "duration": 0.12295075000000111,
          "durationTicks": 150,
          "midi": 49,
          "name": "C#3",
          "ticks": 152850,
          "time": 125.28681424999999,
          "velocity": 0.3858267716535433
        },
        {
          "duration": 0.12295075000000111,
          "durationTicks": 150,
          "midi": 37,
          "name": "C#2",
          "ticks": 153000,
          "time": 125.409765,
          "velocity": 0.6377952755905512
        },
        {
          "duration": 0.12295075000000111,
          "durationTicks": 150,
          "midi": 49,
          "name": "C#3",
          "ticks": 153000,
          "time": 125.409765,
          "velocity": 0.6377952755905512
        },
        {
          "duration": 0.12295075000000111,
          "durationTicks": 150,
          "midi": 37,
          "name": "C#2",
          "ticks": 153150,
          "time": 125.53271575,
          "velocity": 0.3858267716535433
        },
        {
          "duration": 0.12295075000000111,
          "durationTicks": 150,
          "midi": 49,
          "name": "C#3",
          "ticks": 153150,
          "time": 125.53271575,
          "velocity": 0.3858267716535433
        },
        {
          "duration": 0.12295075000000111,
          "durationTicks": 150,
          "midi": 37,
          "name": "C#2",
          "ticks": 153300,
          "time": 125.6556665,
          "velocity": 0.6377952755905512
        },
        {
          "duration": 0.12295075000000111,
          "durationTicks": 150,
          "midi": 49,
          "name": "C#3",
          "ticks": 153300,
          "time": 125.6556665,
          "velocity": 0.6377952755905512
        },
        {
          "duration": 0.12295075000000111,
          "durationTicks": 150,
          "midi": 37,
          "name": "C#2",
          "ticks": 153450,
          "time": 125.77861725,
          "velocity": 0.3937007874015748
        },
        {
          "duration": 0.12295075000000111,
          "durationTicks": 150,
          "midi": 49,
          "name": "C#3",
          "ticks": 153450,
          "time": 125.77861725,
          "velocity": 0.3937007874015748
        },
        {
          "duration": 0.12295075000000111,
          "durationTicks": 150,
          "midi": 38,
          "name": "D2",
          "ticks": 153600,
          "time": 125.901568,
          "velocity": 0.6299212598425197
        },
        {
          "duration": 0.12295075000000111,
          "durationTicks": 150,
          "midi": 50,
          "name": "D3",
          "ticks": 153600,
          "time": 125.901568,
          "velocity": 0.6299212598425197
        },
        {
          "duration": 0.12295075000000111,
          "durationTicks": 150,
          "midi": 38,
          "name": "D2",
          "ticks": 153750,
          "time": 126.02451875,
          "velocity": 0.3858267716535433
        },
        {
          "duration": 0.12295075000000111,
          "durationTicks": 150,
          "midi": 50,
          "name": "D3",
          "ticks": 153750,
          "time": 126.02451875,
          "velocity": 0.3858267716535433
        },
        {
          "duration": 0.12295075000000111,
          "durationTicks": 150,
          "midi": 38,
          "name": "D2",
          "ticks": 153900,
          "time": 126.1474695,
          "velocity": 0.6299212598425197
        },
        {
          "duration": 0.12295075000000111,
          "durationTicks": 150,
          "midi": 50,
          "name": "D3",
          "ticks": 153900,
          "time": 126.1474695,
          "velocity": 0.6299212598425197
        },
        {
          "duration": 0.12295075000000111,
          "durationTicks": 150,
          "midi": 38,
          "name": "D2",
          "ticks": 154050,
          "time": 126.27042025,
          "velocity": 0.3858267716535433
        },
        {
          "duration": 0.12295075000000111,
          "durationTicks": 150,
          "midi": 50,
          "name": "D3",
          "ticks": 154050,
          "time": 126.27042025,
          "velocity": 0.3858267716535433
        },
        {
          "duration": 0.12295075000000111,
          "durationTicks": 150,
          "midi": 38,
          "name": "D2",
          "ticks": 154200,
          "time": 126.393371,
          "velocity": 0.6299212598425197
        },
        {
          "duration": 0.12295075000000111,
          "durationTicks": 150,
          "midi": 50,
          "name": "D3",
          "ticks": 154200,
          "time": 126.393371,
          "velocity": 0.6299212598425197
        },
        {
          "duration": 0.12295075000000111,
          "durationTicks": 150,
          "midi": 38,
          "name": "D2",
          "ticks": 154350,
          "time": 126.51632175,
          "velocity": 0.3858267716535433
        },
        {
          "duration": 0.12295075000000111,
          "durationTicks": 150,
          "midi": 50,
          "name": "D3",
          "ticks": 154350,
          "time": 126.51632175,
          "velocity": 0.3858267716535433
        },
        {
          "duration": 0.1229507499999869,
          "durationTicks": 150,
          "midi": 38,
          "name": "D2",
          "ticks": 154500,
          "time": 126.6392725,
          "velocity": 0.6299212598425197
        },
        {
          "duration": 0.1229507499999869,
          "durationTicks": 150,
          "midi": 50,
          "name": "D3",
          "ticks": 154500,
          "time": 126.6392725,
          "velocity": 0.6299212598425197
        },
        {
          "duration": 0.24590150000000222,
          "durationTicks": 300,
          "midi": 38,
          "name": "D2",
          "ticks": 154650,
          "time": 126.76222324999999,
          "velocity": 0.6299212598425197
        },
        {
          "duration": 0.24590150000000222,
          "durationTicks": 300,
          "midi": 50,
          "name": "D3",
          "ticks": 154650,
          "time": 126.76222324999999,
          "velocity": 0.6299212598425197
        },
        {
          "duration": 0.12295075000000111,
          "durationTicks": 150,
          "midi": 38,
          "name": "D2",
          "ticks": 154950,
          "time": 127.00812475,
          "velocity": 0.3858267716535433
        },
        {
          "duration": 0.12295075000000111,
          "durationTicks": 150,
          "midi": 50,
          "name": "D3",
          "ticks": 154950,
          "time": 127.00812475,
          "velocity": 0.3858267716535433
        },
        {
          "duration": 0.12295075000000111,
          "durationTicks": 150,
          "midi": 38,
          "name": "D2",
          "ticks": 155100,
          "time": 127.1310755,
          "velocity": 0.6377952755905512
        },
        {
          "duration": 0.12295075000000111,
          "durationTicks": 150,
          "midi": 50,
          "name": "D3",
          "ticks": 155100,
          "time": 127.1310755,
          "velocity": 0.6377952755905512
        },
        {
          "duration": 0.12295075000000111,
          "durationTicks": 150,
          "midi": 38,
          "name": "D2",
          "ticks": 155250,
          "time": 127.25402625,
          "velocity": 0.3858267716535433
        },
        {
          "duration": 0.12295075000000111,
          "durationTicks": 150,
          "midi": 50,
          "name": "D3",
          "ticks": 155250,
          "time": 127.25402625,
          "velocity": 0.3858267716535433
        },
        {
          "duration": 0.12295075000000111,
          "durationTicks": 150,
          "midi": 38,
          "name": "D2",
          "ticks": 155400,
          "time": 127.376977,
          "velocity": 0.6377952755905512
        },
        {
          "duration": 0.12295075000000111,
          "durationTicks": 150,
          "midi": 50,
          "name": "D3",
          "ticks": 155400,
          "time": 127.376977,
          "velocity": 0.6377952755905512
        },
        {
          "duration": 0.12295075000000111,
          "durationTicks": 150,
          "midi": 38,
          "name": "D2",
          "ticks": 155550,
          "time": 127.49992775,
          "velocity": 0.3858267716535433
        },
        {
          "duration": 0.12295075000000111,
          "durationTicks": 150,
          "midi": 50,
          "name": "D3",
          "ticks": 155550,
          "time": 127.49992775,
          "velocity": 0.3858267716535433
        },
        {
          "duration": 0.12295075000000111,
          "durationTicks": 150,
          "midi": 38,
          "name": "D2",
          "ticks": 155700,
          "time": 127.6228785,
          "velocity": 0.6377952755905512
        },
        {
          "duration": 0.12295075000000111,
          "durationTicks": 150,
          "midi": 50,
          "name": "D3",
          "ticks": 155700,
          "time": 127.6228785,
          "velocity": 0.6377952755905512
        },
        {
          "duration": 0.12295075000000111,
          "durationTicks": 150,
          "midi": 38,
          "name": "D2",
          "ticks": 155850,
          "time": 127.74582925,
          "velocity": 0.3937007874015748
        },
        {
          "duration": 0.12295075000000111,
          "durationTicks": 150,
          "midi": 50,
          "name": "D3",
          "ticks": 155850,
          "time": 127.74582925,
          "velocity": 0.3937007874015748
        },
        {
          "duration": 0.12295075000000111,
          "durationTicks": 150,
          "midi": 38,
          "name": "D2",
          "ticks": 156000,
          "time": 127.86878,
          "velocity": 0.6299212598425197
        },
        {
          "duration": 0.12295075000000111,
          "durationTicks": 150,
          "midi": 50,
          "name": "D3",
          "ticks": 156000,
          "time": 127.86878,
          "velocity": 0.6299212598425197
        },
        {
          "duration": 0.1229507499999869,
          "durationTicks": 150,
          "midi": 38,
          "name": "D2",
          "ticks": 156150,
          "time": 127.99173075,
          "velocity": 0.3858267716535433
        },
        {
          "duration": 0.1229507499999869,
          "durationTicks": 150,
          "midi": 50,
          "name": "D3",
          "ticks": 156150,
          "time": 127.99173075,
          "velocity": 0.3858267716535433
        },
        {
          "duration": 0.12295075000000111,
          "durationTicks": 150,
          "midi": 38,
          "name": "D2",
          "ticks": 156300,
          "time": 128.1146815,
          "velocity": 0.6299212598425197
        },
        {
          "duration": 0.12295075000000111,
          "durationTicks": 150,
          "midi": 50,
          "name": "D3",
          "ticks": 156300,
          "time": 128.1146815,
          "velocity": 0.6299212598425197
        },
        {
          "duration": 0.12295075000000111,
          "durationTicks": 150,
          "midi": 38,
          "name": "D2",
          "ticks": 156450,
          "time": 128.23763225,
          "velocity": 0.3858267716535433
        },
        {
          "duration": 0.12295075000000111,
          "durationTicks": 150,
          "midi": 50,
          "name": "D3",
          "ticks": 156450,
          "time": 128.23763225,
          "velocity": 0.3858267716535433
        },
        {
          "duration": 0.12295075000000111,
          "durationTicks": 150,
          "midi": 38,
          "name": "D2",
          "ticks": 156600,
          "time": 128.360583,
          "velocity": 0.6299212598425197
        },
        {
          "duration": 0.12295075000000111,
          "durationTicks": 150,
          "midi": 50,
          "name": "D3",
          "ticks": 156600,
          "time": 128.360583,
          "velocity": 0.6299212598425197
        },
        {
          "duration": 0.12295075000000111,
          "durationTicks": 150,
          "midi": 38,
          "name": "D2",
          "ticks": 156750,
          "time": 128.48353375,
          "velocity": 0.3858267716535433
        },
        {
          "duration": 0.12295075000000111,
          "durationTicks": 150,
          "midi": 50,
          "name": "D3",
          "ticks": 156750,
          "time": 128.48353375,
          "velocity": 0.3858267716535433
        },
        {
          "duration": 0.12295075000000111,
          "durationTicks": 150,
          "midi": 38,
          "name": "D2",
          "ticks": 156900,
          "time": 128.6064845,
          "velocity": 0.6299212598425197
        },
        {
          "duration": 0.12295075000000111,
          "durationTicks": 150,
          "midi": 50,
          "name": "D3",
          "ticks": 156900,
          "time": 128.6064845,
          "velocity": 0.6299212598425197
        },
        {
          "duration": 0.24590150000000222,
          "durationTicks": 300,
          "midi": 38,
          "name": "D2",
          "ticks": 157050,
          "time": 128.72943525,
          "velocity": 0.6299212598425197
        },
        {
          "duration": 0.24590150000000222,
          "durationTicks": 300,
          "midi": 50,
          "name": "D3",
          "ticks": 157050,
          "time": 128.72943525,
          "velocity": 0.6299212598425197
        },
        {
          "duration": 0.12295075000000111,
          "durationTicks": 150,
          "midi": 38,
          "name": "D2",
          "ticks": 157350,
          "time": 128.97533675,
          "velocity": 0.3858267716535433
        },
        {
          "duration": 0.12295075000000111,
          "durationTicks": 150,
          "midi": 50,
          "name": "D3",
          "ticks": 157350,
          "time": 128.97533675,
          "velocity": 0.3858267716535433
        },
        {
          "duration": 0.12295075000000111,
          "durationTicks": 150,
          "midi": 38,
          "name": "D2",
          "ticks": 157500,
          "time": 129.0982875,
          "velocity": 0.6377952755905512
        },
        {
          "duration": 0.12295075000000111,
          "durationTicks": 150,
          "midi": 50,
          "name": "D3",
          "ticks": 157500,
          "time": 129.0982875,
          "velocity": 0.6377952755905512
        },
        {
          "duration": 0.12295075000000111,
          "durationTicks": 150,
          "midi": 38,
          "name": "D2",
          "ticks": 157650,
          "time": 129.22123825,
          "velocity": 0.3858267716535433
        },
        {
          "duration": 0.12295075000000111,
          "durationTicks": 150,
          "midi": 50,
          "name": "D3",
          "ticks": 157650,
          "time": 129.22123825,
          "velocity": 0.3858267716535433
        },
        {
          "duration": 0.12295075000000111,
          "durationTicks": 150,
          "midi": 38,
          "name": "D2",
          "ticks": 157800,
          "time": 129.344189,
          "velocity": 0.6377952755905512
        },
        {
          "duration": 0.12295075000000111,
          "durationTicks": 150,
          "midi": 50,
          "name": "D3",
          "ticks": 157800,
          "time": 129.344189,
          "velocity": 0.6377952755905512
        },
        {
          "duration": 0.12295075000000111,
          "durationTicks": 150,
          "midi": 38,
          "name": "D2",
          "ticks": 157950,
          "time": 129.46713975,
          "velocity": 0.3858267716535433
        },
        {
          "duration": 0.12295075000000111,
          "durationTicks": 150,
          "midi": 50,
          "name": "D3",
          "ticks": 157950,
          "time": 129.46713975,
          "velocity": 0.3858267716535433
        },
        {
          "duration": 0.12295075000000111,
          "durationTicks": 150,
          "midi": 38,
          "name": "D2",
          "ticks": 158100,
          "time": 129.5900905,
          "velocity": 0.6377952755905512
        },
        {
          "duration": 0.12295075000000111,
          "durationTicks": 150,
          "midi": 50,
          "name": "D3",
          "ticks": 158100,
          "time": 129.5900905,
          "velocity": 0.6377952755905512
        },
        {
          "duration": 0.12295075000000111,
          "durationTicks": 150,
          "midi": 38,
          "name": "D2",
          "ticks": 158250,
          "time": 129.71304125,
          "velocity": 0.3937007874015748
        },
        {
          "duration": 0.12295075000000111,
          "durationTicks": 150,
          "midi": 50,
          "name": "D3",
          "ticks": 158250,
          "time": 129.71304125,
          "velocity": 0.3937007874015748
        },
        {
          "duration": 0.12295075000000111,
          "durationTicks": 150,
          "midi": 34,
          "name": "A#1",
          "ticks": 158400,
          "time": 129.835992,
          "velocity": 0.6299212598425197
        },
        {
          "duration": 0.12295075000000111,
          "durationTicks": 150,
          "midi": 46,
          "name": "A#2",
          "ticks": 158400,
          "time": 129.835992,
          "velocity": 0.6299212598425197
        },
        {
          "duration": 0.12295075000000111,
          "durationTicks": 150,
          "midi": 34,
          "name": "A#1",
          "ticks": 158550,
          "time": 129.95894275,
          "velocity": 0.3858267716535433
        },
        {
          "duration": 0.12295075000000111,
          "durationTicks": 150,
          "midi": 46,
          "name": "A#2",
          "ticks": 158550,
          "time": 129.95894275,
          "velocity": 0.3858267716535433
        },
        {
          "duration": 0.12295075000000111,
          "durationTicks": 150,
          "midi": 34,
          "name": "A#1",
          "ticks": 158700,
          "time": 130.0818935,
          "velocity": 0.6299212598425197
        },
        {
          "duration": 0.12295075000000111,
          "durationTicks": 150,
          "midi": 46,
          "name": "A#2",
          "ticks": 158700,
          "time": 130.0818935,
          "velocity": 0.6299212598425197
        },
        {
          "duration": 0.12295075000000111,
          "durationTicks": 150,
          "midi": 34,
          "name": "A#1",
          "ticks": 158850,
          "time": 130.20484425,
          "velocity": 0.3858267716535433
        },
        {
          "duration": 0.12295075000000111,
          "durationTicks": 150,
          "midi": 46,
          "name": "A#2",
          "ticks": 158850,
          "time": 130.20484425,
          "velocity": 0.3858267716535433
        },
        {
          "duration": 0.12295075000000111,
          "durationTicks": 150,
          "midi": 34,
          "name": "A#1",
          "ticks": 159000,
          "time": 130.327795,
          "velocity": 0.6299212598425197
        },
        {
          "duration": 0.12295075000000111,
          "durationTicks": 150,
          "midi": 46,
          "name": "A#2",
          "ticks": 159000,
          "time": 130.327795,
          "velocity": 0.6299212598425197
        },
        {
          "duration": 0.12295075000000111,
          "durationTicks": 150,
          "midi": 34,
          "name": "A#1",
          "ticks": 159150,
          "time": 130.45074575,
          "velocity": 0.3858267716535433
        },
        {
          "duration": 0.12295075000000111,
          "durationTicks": 150,
          "midi": 46,
          "name": "A#2",
          "ticks": 159150,
          "time": 130.45074575,
          "velocity": 0.3858267716535433
        },
        {
          "duration": 0.12295074999997269,
          "durationTicks": 150,
          "midi": 34,
          "name": "A#1",
          "ticks": 159300,
          "time": 130.5736965,
          "velocity": 0.6299212598425197
        },
        {
          "duration": 0.12295074999997269,
          "durationTicks": 150,
          "midi": 46,
          "name": "A#2",
          "ticks": 159300,
          "time": 130.5736965,
          "velocity": 0.6299212598425197
        },
        {
          "duration": 0.24590150000000222,
          "durationTicks": 300,
          "midi": 34,
          "name": "A#1",
          "ticks": 159450,
          "time": 130.69664724999998,
          "velocity": 0.6299212598425197
        },
        {
          "duration": 0.24590150000000222,
          "durationTicks": 300,
          "midi": 46,
          "name": "A#2",
          "ticks": 159450,
          "time": 130.69664724999998,
          "velocity": 0.6299212598425197
        },
        {
          "duration": 0.12295075000000111,
          "durationTicks": 150,
          "midi": 34,
          "name": "A#1",
          "ticks": 159750,
          "time": 130.94254875,
          "velocity": 0.3858267716535433
        },
        {
          "duration": 0.12295075000000111,
          "durationTicks": 150,
          "midi": 46,
          "name": "A#2",
          "ticks": 159750,
          "time": 130.94254875,
          "velocity": 0.3858267716535433
        },
        {
          "duration": 0.12295075000000111,
          "durationTicks": 150,
          "midi": 34,
          "name": "A#1",
          "ticks": 159900,
          "time": 131.0654995,
          "velocity": 0.6377952755905512
        },
        {
          "duration": 0.12295075000000111,
          "durationTicks": 150,
          "midi": 46,
          "name": "A#2",
          "ticks": 159900,
          "time": 131.0654995,
          "velocity": 0.6377952755905512
        },
        {
          "duration": 0.12295075000000111,
          "durationTicks": 150,
          "midi": 34,
          "name": "A#1",
          "ticks": 160050,
          "time": 131.18845025,
          "velocity": 0.3858267716535433
        },
        {
          "duration": 0.12295075000000111,
          "durationTicks": 150,
          "midi": 46,
          "name": "A#2",
          "ticks": 160050,
          "time": 131.18845025,
          "velocity": 0.3858267716535433
        },
        {
          "duration": 0.12295075000000111,
          "durationTicks": 150,
          "midi": 34,
          "name": "A#1",
          "ticks": 160200,
          "time": 131.311401,
          "velocity": 0.6377952755905512
        },
        {
          "duration": 0.12295075000000111,
          "durationTicks": 150,
          "midi": 46,
          "name": "A#2",
          "ticks": 160200,
          "time": 131.311401,
          "velocity": 0.6377952755905512
        },
        {
          "duration": 0.12295075000000111,
          "durationTicks": 150,
          "midi": 34,
          "name": "A#1",
          "ticks": 160350,
          "time": 131.43435175,
          "velocity": 0.3858267716535433
        },
        {
          "duration": 0.12295075000000111,
          "durationTicks": 150,
          "midi": 46,
          "name": "A#2",
          "ticks": 160350,
          "time": 131.43435175,
          "velocity": 0.3858267716535433
        },
        {
          "duration": 0.12295075000000111,
          "durationTicks": 150,
          "midi": 34,
          "name": "A#1",
          "ticks": 160500,
          "time": 131.5573025,
          "velocity": 0.6377952755905512
        },
        {
          "duration": 0.12295075000000111,
          "durationTicks": 150,
          "midi": 46,
          "name": "A#2",
          "ticks": 160500,
          "time": 131.5573025,
          "velocity": 0.6377952755905512
        },
        {
          "duration": 0.12295075000000111,
          "durationTicks": 150,
          "midi": 34,
          "name": "A#1",
          "ticks": 160650,
          "time": 131.68025325,
          "velocity": 0.3937007874015748
        },
        {
          "duration": 0.12295075000000111,
          "durationTicks": 150,
          "midi": 46,
          "name": "A#2",
          "ticks": 160650,
          "time": 131.68025325,
          "velocity": 0.3937007874015748
        },
        {
          "duration": 0.12295075000000111,
          "durationTicks": 150,
          "midi": 36,
          "name": "C2",
          "ticks": 160800,
          "time": 131.803204,
          "velocity": 0.6299212598425197
        },
        {
          "duration": 0.12295075000000111,
          "durationTicks": 150,
          "midi": 48,
          "name": "C3",
          "ticks": 160800,
          "time": 131.803204,
          "velocity": 0.6299212598425197
        },
        {
          "duration": 0.12295075000000111,
          "durationTicks": 150,
          "midi": 36,
          "name": "C2",
          "ticks": 160950,
          "time": 131.92615475,
          "velocity": 0.3858267716535433
        },
        {
          "duration": 0.12295075000000111,
          "durationTicks": 150,
          "midi": 48,
          "name": "C3",
          "ticks": 160950,
          "time": 131.92615475,
          "velocity": 0.3858267716535433
        },
        {
          "duration": 0.12295075000000111,
          "durationTicks": 150,
          "midi": 36,
          "name": "C2",
          "ticks": 161100,
          "time": 132.0491055,
          "velocity": 0.6299212598425197
        },
        {
          "duration": 0.12295075000000111,
          "durationTicks": 150,
          "midi": 48,
          "name": "C3",
          "ticks": 161100,
          "time": 132.0491055,
          "velocity": 0.6299212598425197
        },
        {
          "duration": 0.12295075000000111,
          "durationTicks": 150,
          "midi": 36,
          "name": "C2",
          "ticks": 161250,
          "time": 132.17205625,
          "velocity": 0.3858267716535433
        },
        {
          "duration": 0.12295075000000111,
          "durationTicks": 150,
          "midi": 48,
          "name": "C3",
          "ticks": 161250,
          "time": 132.17205625,
          "velocity": 0.3858267716535433
        },
        {
          "duration": 0.12295075000000111,
          "durationTicks": 150,
          "midi": 36,
          "name": "C2",
          "ticks": 161400,
          "time": 132.295007,
          "velocity": 0.6299212598425197
        },
        {
          "duration": 0.12295075000000111,
          "durationTicks": 150,
          "midi": 48,
          "name": "C3",
          "ticks": 161400,
          "time": 132.295007,
          "velocity": 0.6299212598425197
        },
        {
          "duration": 0.12295075000000111,
          "durationTicks": 150,
          "midi": 36,
          "name": "C2",
          "ticks": 161550,
          "time": 132.41795775,
          "velocity": 0.3858267716535433
        },
        {
          "duration": 0.12295075000000111,
          "durationTicks": 150,
          "midi": 48,
          "name": "C3",
          "ticks": 161550,
          "time": 132.41795775,
          "velocity": 0.3858267716535433
        },
        {
          "duration": 0.12295075000000111,
          "durationTicks": 150,
          "midi": 36,
          "name": "C2",
          "ticks": 161700,
          "time": 132.5409085,
          "velocity": 0.6299212598425197
        },
        {
          "duration": 0.12295075000000111,
          "durationTicks": 150,
          "midi": 48,
          "name": "C3",
          "ticks": 161700,
          "time": 132.5409085,
          "velocity": 0.6299212598425197
        },
        {
          "duration": 0.24590150000000222,
          "durationTicks": 300,
          "midi": 37,
          "name": "C#2",
          "ticks": 161850,
          "time": 132.66385925,
          "velocity": 0.6299212598425197
        },
        {
          "duration": 0.24590150000000222,
          "durationTicks": 300,
          "midi": 49,
          "name": "C#3",
          "ticks": 161850,
          "time": 132.66385925,
          "velocity": 0.6299212598425197
        },
        {
          "duration": 0.12295075000000111,
          "durationTicks": 150,
          "midi": 37,
          "name": "C#2",
          "ticks": 162150,
          "time": 132.90976075,
          "velocity": 0.3858267716535433
        },
        {
          "duration": 0.12295075000000111,
          "durationTicks": 150,
          "midi": 49,
          "name": "C#3",
          "ticks": 162150,
          "time": 132.90976075,
          "velocity": 0.3858267716535433
        },
        {
          "duration": 0.12295075000000111,
          "durationTicks": 150,
          "midi": 37,
          "name": "C#2",
          "ticks": 162300,
          "time": 133.0327115,
          "velocity": 0.6377952755905512
        },
        {
          "duration": 0.12295075000000111,
          "durationTicks": 150,
          "midi": 49,
          "name": "C#3",
          "ticks": 162300,
          "time": 133.0327115,
          "velocity": 0.6377952755905512
        },
        {
          "duration": 0.12295075000000111,
          "durationTicks": 150,
          "midi": 37,
          "name": "C#2",
          "ticks": 162450,
          "time": 133.15566225,
          "velocity": 0.3858267716535433
        },
        {
          "duration": 0.12295075000000111,
          "durationTicks": 150,
          "midi": 49,
          "name": "C#3",
          "ticks": 162450,
          "time": 133.15566225,
          "velocity": 0.3858267716535433
        },
        {
          "duration": 0.12295075000000111,
          "durationTicks": 150,
          "midi": 37,
          "name": "C#2",
          "ticks": 162600,
          "time": 133.278613,
          "velocity": 0.6377952755905512
        },
        {
          "duration": 0.12295075000000111,
          "durationTicks": 150,
          "midi": 49,
          "name": "C#3",
          "ticks": 162600,
          "time": 133.278613,
          "velocity": 0.6377952755905512
        },
        {
          "duration": 0.12295075000000111,
          "durationTicks": 150,
          "midi": 37,
          "name": "C#2",
          "ticks": 162750,
          "time": 133.40156375,
          "velocity": 0.3858267716535433
        },
        {
          "duration": 0.12295075000000111,
          "durationTicks": 150,
          "midi": 49,
          "name": "C#3",
          "ticks": 162750,
          "time": 133.40156375,
          "velocity": 0.3858267716535433
        },
        {
          "duration": 0.12295075000000111,
          "durationTicks": 150,
          "midi": 37,
          "name": "C#2",
          "ticks": 162900,
          "time": 133.5245145,
          "velocity": 0.6377952755905512
        },
        {
          "duration": 0.12295075000000111,
          "durationTicks": 150,
          "midi": 49,
          "name": "C#3",
          "ticks": 162900,
          "time": 133.5245145,
          "velocity": 0.6377952755905512
        },
        {
          "duration": 0.12295075000000111,
          "durationTicks": 150,
          "midi": 37,
          "name": "C#2",
          "ticks": 163050,
          "time": 133.64746525,
          "velocity": 0.3937007874015748
        },
        {
          "duration": 0.12295075000000111,
          "durationTicks": 150,
          "midi": 49,
          "name": "C#3",
          "ticks": 163050,
          "time": 133.64746525,
          "velocity": 0.3937007874015748
        },
        {
          "duration": 0.12295074999997269,
          "durationTicks": 150,
          "midi": 38,
          "name": "D2",
          "ticks": 163200,
          "time": 133.770416,
          "velocity": 0.6299212598425197
        },
        {
          "duration": 0.12295074999997269,
          "durationTicks": 150,
          "midi": 50,
          "name": "D3",
          "ticks": 163200,
          "time": 133.770416,
          "velocity": 0.6299212598425197
        },
        {
          "duration": 0.12295075000000111,
          "durationTicks": 150,
          "midi": 38,
          "name": "D2",
          "ticks": 163350,
          "time": 133.89336674999998,
          "velocity": 0.3858267716535433
        },
        {
          "duration": 0.12295075000000111,
          "durationTicks": 150,
          "midi": 50,
          "name": "D3",
          "ticks": 163350,
          "time": 133.89336674999998,
          "velocity": 0.3858267716535433
        },
        {
          "duration": 0.12295075000000111,
          "durationTicks": 150,
          "midi": 38,
          "name": "D2",
          "ticks": 163500,
          "time": 134.01631749999999,
          "velocity": 0.6299212598425197
        },
        {
          "duration": 0.12295075000000111,
          "durationTicks": 150,
          "midi": 50,
          "name": "D3",
          "ticks": 163500,
          "time": 134.01631749999999,
          "velocity": 0.6299212598425197
        },
        {
          "duration": 0.12295075000000111,
          "durationTicks": 150,
          "midi": 38,
          "name": "D2",
          "ticks": 163650,
          "time": 134.13926825,
          "velocity": 0.3858267716535433
        },
        {
          "duration": 0.12295075000000111,
          "durationTicks": 150,
          "midi": 50,
          "name": "D3",
          "ticks": 163650,
          "time": 134.13926825,
          "velocity": 0.3858267716535433
        },
        {
          "duration": 0.12295075000000111,
          "durationTicks": 150,
          "midi": 38,
          "name": "D2",
          "ticks": 163800,
          "time": 134.262219,
          "velocity": 0.6299212598425197
        },
        {
          "duration": 0.12295075000000111,
          "durationTicks": 150,
          "midi": 50,
          "name": "D3",
          "ticks": 163800,
          "time": 134.262219,
          "velocity": 0.6299212598425197
        },
        {
          "duration": 0.12295075000000111,
          "durationTicks": 150,
          "midi": 38,
          "name": "D2",
          "ticks": 163950,
          "time": 134.38516975,
          "velocity": 0.3858267716535433
        },
        {
          "duration": 0.12295075000000111,
          "durationTicks": 150,
          "midi": 50,
          "name": "D3",
          "ticks": 163950,
          "time": 134.38516975,
          "velocity": 0.3858267716535433
        },
        {
          "duration": 0.12295075000000111,
          "durationTicks": 150,
          "midi": 38,
          "name": "D2",
          "ticks": 164100,
          "time": 134.5081205,
          "velocity": 0.6299212598425197
        },
        {
          "duration": 0.12295075000000111,
          "durationTicks": 150,
          "midi": 50,
          "name": "D3",
          "ticks": 164100,
          "time": 134.5081205,
          "velocity": 0.6299212598425197
        },
        {
          "duration": 0.24590150000000222,
          "durationTicks": 300,
          "midi": 38,
          "name": "D2",
          "ticks": 164250,
          "time": 134.63107125,
          "velocity": 0.6299212598425197
        },
        {
          "duration": 0.24590150000000222,
          "durationTicks": 300,
          "midi": 50,
          "name": "D3",
          "ticks": 164250,
          "time": 134.63107125,
          "velocity": 0.6299212598425197
        },
        {
          "duration": 0.12295075000000111,
          "durationTicks": 150,
          "midi": 38,
          "name": "D2",
          "ticks": 164550,
          "time": 134.87697275,
          "velocity": 0.3858267716535433
        },
        {
          "duration": 0.12295075000000111,
          "durationTicks": 150,
          "midi": 50,
          "name": "D3",
          "ticks": 164550,
          "time": 134.87697275,
          "velocity": 0.3858267716535433
        },
        {
          "duration": 0.12295075000000111,
          "durationTicks": 150,
          "midi": 38,
          "name": "D2",
          "ticks": 164700,
          "time": 134.9999235,
          "velocity": 0.6377952755905512
        },
        {
          "duration": 0.12295075000000111,
          "durationTicks": 150,
          "midi": 50,
          "name": "D3",
          "ticks": 164700,
          "time": 134.9999235,
          "velocity": 0.6377952755905512
        },
        {
          "duration": 0.12295075000000111,
          "durationTicks": 150,
          "midi": 38,
          "name": "D2",
          "ticks": 164850,
          "time": 135.12287425,
          "velocity": 0.3858267716535433
        },
        {
          "duration": 0.12295075000000111,
          "durationTicks": 150,
          "midi": 50,
          "name": "D3",
          "ticks": 164850,
          "time": 135.12287425,
          "velocity": 0.3858267716535433
        },
        {
          "duration": 0.12295075000000111,
          "durationTicks": 150,
          "midi": 38,
          "name": "D2",
          "ticks": 165000,
          "time": 135.245825,
          "velocity": 0.6377952755905512
        },
        {
          "duration": 0.12295075000000111,
          "durationTicks": 150,
          "midi": 50,
          "name": "D3",
          "ticks": 165000,
          "time": 135.245825,
          "velocity": 0.6377952755905512
        },
        {
          "duration": 0.12295075000000111,
          "durationTicks": 150,
          "midi": 38,
          "name": "D2",
          "ticks": 165150,
          "time": 135.36877575,
          "velocity": 0.3858267716535433
        },
        {
          "duration": 0.12295075000000111,
          "durationTicks": 150,
          "midi": 50,
          "name": "D3",
          "ticks": 165150,
          "time": 135.36877575,
          "velocity": 0.3858267716535433
        },
        {
          "duration": 0.12295075000000111,
          "durationTicks": 150,
          "midi": 38,
          "name": "D2",
          "ticks": 165300,
          "time": 135.4917265,
          "velocity": 0.6377952755905512
        },
        {
          "duration": 0.12295075000000111,
          "durationTicks": 150,
          "midi": 50,
          "name": "D3",
          "ticks": 165300,
          "time": 135.4917265,
          "velocity": 0.6377952755905512
        },
        {
          "duration": 0.12295075000000111,
          "durationTicks": 150,
          "midi": 38,
          "name": "D2",
          "ticks": 165450,
          "time": 135.61467725,
          "velocity": 0.3937007874015748
        },
        {
          "duration": 0.12295075000000111,
          "durationTicks": 150,
          "midi": 50,
          "name": "D3",
          "ticks": 165450,
          "time": 135.61467725,
          "velocity": 0.3937007874015748
        },
        {
          "duration": 0.12295075000000111,
          "durationTicks": 150,
          "midi": 38,
          "name": "D2",
          "ticks": 165600,
          "time": 135.737628,
          "velocity": 0.6299212598425197
        },
        {
          "duration": 0.12295075000000111,
          "durationTicks": 150,
          "midi": 50,
          "name": "D3",
          "ticks": 165600,
          "time": 135.737628,
          "velocity": 0.6299212598425197
        },
        {
          "duration": 0.12295075000000111,
          "durationTicks": 150,
          "midi": 38,
          "name": "D2",
          "ticks": 165750,
          "time": 135.86057875,
          "velocity": 0.3858267716535433
        },
        {
          "duration": 0.12295075000000111,
          "durationTicks": 150,
          "midi": 50,
          "name": "D3",
          "ticks": 165750,
          "time": 135.86057875,
          "velocity": 0.3858267716535433
        },
        {
          "duration": 0.12295075000000111,
          "durationTicks": 150,
          "midi": 38,
          "name": "D2",
          "ticks": 165900,
          "time": 135.9835295,
          "velocity": 0.6299212598425197
        },
        {
          "duration": 0.12295075000000111,
          "durationTicks": 150,
          "midi": 50,
          "name": "D3",
          "ticks": 165900,
          "time": 135.9835295,
          "velocity": 0.6299212598425197
        },
        {
          "duration": 0.12295075000000111,
          "durationTicks": 150,
          "midi": 38,
          "name": "D2",
          "ticks": 166050,
          "time": 136.10648025,
          "velocity": 0.3858267716535433
        },
        {
          "duration": 0.12295075000000111,
          "durationTicks": 150,
          "midi": 50,
          "name": "D3",
          "ticks": 166050,
          "time": 136.10648025,
          "velocity": 0.3858267716535433
        },
        {
          "duration": 0.12295075000000111,
          "durationTicks": 150,
          "midi": 38,
          "name": "D2",
          "ticks": 166200,
          "time": 136.229431,
          "velocity": 0.6299212598425197
        },
        {
          "duration": 0.12295075000000111,
          "durationTicks": 150,
          "midi": 50,
          "name": "D3",
          "ticks": 166200,
          "time": 136.229431,
          "velocity": 0.6299212598425197
        },
        {
          "duration": 0.12295075000000111,
          "durationTicks": 150,
          "midi": 38,
          "name": "D2",
          "ticks": 166350,
          "time": 136.35238175,
          "velocity": 0.3858267716535433
        },
        {
          "duration": 0.12295075000000111,
          "durationTicks": 150,
          "midi": 50,
          "name": "D3",
          "ticks": 166350,
          "time": 136.35238175,
          "velocity": 0.3858267716535433
        },
        {
          "duration": 0.12295075000000111,
          "durationTicks": 150,
          "midi": 38,
          "name": "D2",
          "ticks": 166500,
          "time": 136.4753325,
          "velocity": 0.6299212598425197
        },
        {
          "duration": 0.12295075000000111,
          "durationTicks": 150,
          "midi": 50,
          "name": "D3",
          "ticks": 166500,
          "time": 136.4753325,
          "velocity": 0.6299212598425197
        },
        {
          "duration": 0.24590150000000222,
          "durationTicks": 300,
          "midi": 38,
          "name": "D2",
          "ticks": 166650,
          "time": 136.59828325,
          "velocity": 0.6299212598425197
        },
        {
          "duration": 0.24590150000000222,
          "durationTicks": 300,
          "midi": 50,
          "name": "D3",
          "ticks": 166650,
          "time": 136.59828325,
          "velocity": 0.6299212598425197
        },
        {
          "duration": 0.12295074999997269,
          "durationTicks": 150,
          "midi": 38,
          "name": "D2",
          "ticks": 166950,
          "time": 136.84418475,
          "velocity": 0.3858267716535433
        },
        {
          "duration": 0.12295074999997269,
          "durationTicks": 150,
          "midi": 50,
          "name": "D3",
          "ticks": 166950,
          "time": 136.84418475,
          "velocity": 0.3858267716535433
        },
        {
          "duration": 0.12295075000000111,
          "durationTicks": 150,
          "midi": 38,
          "name": "D2",
          "ticks": 167100,
          "time": 136.96713549999998,
          "velocity": 0.6377952755905512
        },
        {
          "duration": 0.12295075000000111,
          "durationTicks": 150,
          "midi": 50,
          "name": "D3",
          "ticks": 167100,
          "time": 136.96713549999998,
          "velocity": 0.6377952755905512
        },
        {
          "duration": 0.12295075000000111,
          "durationTicks": 150,
          "midi": 38,
          "name": "D2",
          "ticks": 167250,
          "time": 137.09008624999998,
          "velocity": 0.3858267716535433
        },
        {
          "duration": 0.12295075000000111,
          "durationTicks": 150,
          "midi": 50,
          "name": "D3",
          "ticks": 167250,
          "time": 137.09008624999998,
          "velocity": 0.3858267716535433
        },
        {
          "duration": 0.12295075000000111,
          "durationTicks": 150,
          "midi": 38,
          "name": "D2",
          "ticks": 167400,
          "time": 137.21303699999999,
          "velocity": 0.6377952755905512
        },
        {
          "duration": 0.12295075000000111,
          "durationTicks": 150,
          "midi": 50,
          "name": "D3",
          "ticks": 167400,
          "time": 137.21303699999999,
          "velocity": 0.6377952755905512
        },
        {
          "duration": 0.12295075000000111,
          "durationTicks": 150,
          "midi": 38,
          "name": "D2",
          "ticks": 167550,
          "time": 137.33598775,
          "velocity": 0.3858267716535433
        },
        {
          "duration": 0.12295075000000111,
          "durationTicks": 150,
          "midi": 50,
          "name": "D3",
          "ticks": 167550,
          "time": 137.33598775,
          "velocity": 0.3858267716535433
        },
        {
          "duration": 0.12295075000000111,
          "durationTicks": 150,
          "midi": 38,
          "name": "D2",
          "ticks": 167700,
          "time": 137.4589385,
          "velocity": 0.6377952755905512
        },
        {
          "duration": 0.12295075000000111,
          "durationTicks": 150,
          "midi": 50,
          "name": "D3",
          "ticks": 167700,
          "time": 137.4589385,
          "velocity": 0.6377952755905512
        },
        {
          "duration": 0.12295075000000111,
          "durationTicks": 150,
          "midi": 38,
          "name": "D2",
          "ticks": 167850,
          "time": 137.58188925,
          "velocity": 0.3937007874015748
        },
        {
          "duration": 0.12295075000000111,
          "durationTicks": 150,
          "midi": 50,
          "name": "D3",
          "ticks": 167850,
          "time": 137.58188925,
          "velocity": 0.3937007874015748
        },
        {
          "duration": 0.12295075000000111,
          "durationTicks": 150,
          "midi": 34,
          "name": "A#1",
          "ticks": 168000,
          "time": 137.70484,
          "velocity": 0.6299212598425197
        },
        {
          "duration": 0.12295075000000111,
          "durationTicks": 150,
          "midi": 46,
          "name": "A#2",
          "ticks": 168000,
          "time": 137.70484,
          "velocity": 0.6299212598425197
        },
        {
          "duration": 0.12295075000000111,
          "durationTicks": 150,
          "midi": 34,
          "name": "A#1",
          "ticks": 168150,
          "time": 137.82779075,
          "velocity": 0.3858267716535433
        },
        {
          "duration": 0.12295075000000111,
          "durationTicks": 150,
          "midi": 46,
          "name": "A#2",
          "ticks": 168150,
          "time": 137.82779075,
          "velocity": 0.3858267716535433
        },
        {
          "duration": 0.12295075000000111,
          "durationTicks": 150,
          "midi": 34,
          "name": "A#1",
          "ticks": 168300,
          "time": 137.9507415,
          "velocity": 0.6299212598425197
        },
        {
          "duration": 0.12295075000000111,
          "durationTicks": 150,
          "midi": 46,
          "name": "A#2",
          "ticks": 168300,
          "time": 137.9507415,
          "velocity": 0.6299212598425197
        },
        {
          "duration": 0.12295075000000111,
          "durationTicks": 150,
          "midi": 34,
          "name": "A#1",
          "ticks": 168450,
          "time": 138.07369225,
          "velocity": 0.3858267716535433
        },
        {
          "duration": 0.12295075000000111,
          "durationTicks": 150,
          "midi": 46,
          "name": "A#2",
          "ticks": 168450,
          "time": 138.07369225,
          "velocity": 0.3858267716535433
        },
        {
          "duration": 0.12295075000000111,
          "durationTicks": 150,
          "midi": 34,
          "name": "A#1",
          "ticks": 168600,
          "time": 138.196643,
          "velocity": 0.6299212598425197
        },
        {
          "duration": 0.12295075000000111,
          "durationTicks": 150,
          "midi": 46,
          "name": "A#2",
          "ticks": 168600,
          "time": 138.196643,
          "velocity": 0.6299212598425197
        },
        {
          "duration": 0.12295075000000111,
          "durationTicks": 150,
          "midi": 34,
          "name": "A#1",
          "ticks": 168750,
          "time": 138.31959375,
          "velocity": 0.3858267716535433
        },
        {
          "duration": 0.12295075000000111,
          "durationTicks": 150,
          "midi": 46,
          "name": "A#2",
          "ticks": 168750,
          "time": 138.31959375,
          "velocity": 0.3858267716535433
        },
        {
          "duration": 0.12295075000000111,
          "durationTicks": 150,
          "midi": 34,
          "name": "A#1",
          "ticks": 168900,
          "time": 138.4425445,
          "velocity": 0.6299212598425197
        },
        {
          "duration": 0.12295075000000111,
          "durationTicks": 150,
          "midi": 46,
          "name": "A#2",
          "ticks": 168900,
          "time": 138.4425445,
          "velocity": 0.6299212598425197
        },
        {
          "duration": 0.24590150000000222,
          "durationTicks": 300,
          "midi": 34,
          "name": "A#1",
          "ticks": 169050,
          "time": 138.56549525,
          "velocity": 0.6299212598425197
        },
        {
          "duration": 0.24590150000000222,
          "durationTicks": 300,
          "midi": 46,
          "name": "A#2",
          "ticks": 169050,
          "time": 138.56549525,
          "velocity": 0.6299212598425197
        },
        {
          "duration": 0.12295075000000111,
          "durationTicks": 150,
          "midi": 34,
          "name": "A#1",
          "ticks": 169350,
          "time": 138.81139675,
          "velocity": 0.3858267716535433
        },
        {
          "duration": 0.12295075000000111,
          "durationTicks": 150,
          "midi": 46,
          "name": "A#2",
          "ticks": 169350,
          "time": 138.81139675,
          "velocity": 0.3858267716535433
        },
        {
          "duration": 0.12295075000000111,
          "durationTicks": 150,
          "midi": 34,
          "name": "A#1",
          "ticks": 169500,
          "time": 138.9343475,
          "velocity": 0.6377952755905512
        },
        {
          "duration": 0.12295075000000111,
          "durationTicks": 150,
          "midi": 46,
          "name": "A#2",
          "ticks": 169500,
          "time": 138.9343475,
          "velocity": 0.6377952755905512
        },
        {
          "duration": 0.12295075000000111,
          "durationTicks": 150,
          "midi": 34,
          "name": "A#1",
          "ticks": 169650,
          "time": 139.05729825,
          "velocity": 0.3858267716535433
        },
        {
          "duration": 0.12295075000000111,
          "durationTicks": 150,
          "midi": 46,
          "name": "A#2",
          "ticks": 169650,
          "time": 139.05729825,
          "velocity": 0.3858267716535433
        },
        {
          "duration": 0.12295075000000111,
          "durationTicks": 150,
          "midi": 34,
          "name": "A#1",
          "ticks": 169800,
          "time": 139.180249,
          "velocity": 0.6377952755905512
        },
        {
          "duration": 0.12295075000000111,
          "durationTicks": 150,
          "midi": 46,
          "name": "A#2",
          "ticks": 169800,
          "time": 139.180249,
          "velocity": 0.6377952755905512
        },
        {
          "duration": 0.12295075000000111,
          "durationTicks": 150,
          "midi": 34,
          "name": "A#1",
          "ticks": 169950,
          "time": 139.30319975,
          "velocity": 0.3858267716535433
        },
        {
          "duration": 0.12295075000000111,
          "durationTicks": 150,
          "midi": 46,
          "name": "A#2",
          "ticks": 169950,
          "time": 139.30319975,
          "velocity": 0.3858267716535433
        },
        {
          "duration": 0.12295075000000111,
          "durationTicks": 150,
          "midi": 34,
          "name": "A#1",
          "ticks": 170100,
          "time": 139.4261505,
          "velocity": 0.6377952755905512
        },
        {
          "duration": 0.12295075000000111,
          "durationTicks": 150,
          "midi": 46,
          "name": "A#2",
          "ticks": 170100,
          "time": 139.4261505,
          "velocity": 0.6377952755905512
        },
        {
          "duration": 0.12295075000000111,
          "durationTicks": 150,
          "midi": 34,
          "name": "A#1",
          "ticks": 170250,
          "time": 139.54910125,
          "velocity": 0.3937007874015748
        },
        {
          "duration": 0.12295075000000111,
          "durationTicks": 150,
          "midi": 46,
          "name": "A#2",
          "ticks": 170250,
          "time": 139.54910125,
          "velocity": 0.3937007874015748
        },
        {
          "duration": 0.12295075000000111,
          "durationTicks": 150,
          "midi": 36,
          "name": "C2",
          "ticks": 170400,
          "time": 139.672052,
          "velocity": 0.6299212598425197
        },
        {
          "duration": 0.12295075000000111,
          "durationTicks": 150,
          "midi": 48,
          "name": "C3",
          "ticks": 170400,
          "time": 139.672052,
          "velocity": 0.6299212598425197
        },
        {
          "duration": 0.12295075000000111,
          "durationTicks": 150,
          "midi": 36,
          "name": "C2",
          "ticks": 170550,
          "time": 139.79500275,
          "velocity": 0.3858267716535433
        },
        {
          "duration": 0.12295075000000111,
          "durationTicks": 150,
          "midi": 48,
          "name": "C3",
          "ticks": 170550,
          "time": 139.79500275,
          "velocity": 0.3858267716535433
        },
        {
          "duration": 0.12295075000000111,
          "durationTicks": 150,
          "midi": 36,
          "name": "C2",
          "ticks": 170700,
          "time": 139.9179535,
          "velocity": 0.6299212598425197
        },
        {
          "duration": 0.12295075000000111,
          "durationTicks": 150,
          "midi": 48,
          "name": "C3",
          "ticks": 170700,
          "time": 139.9179535,
          "velocity": 0.6299212598425197
        },
        {
          "duration": 0.12295074999997269,
          "durationTicks": 150,
          "midi": 36,
          "name": "C2",
          "ticks": 170850,
          "time": 140.04090425,
          "velocity": 0.3858267716535433
        },
        {
          "duration": 0.12295074999997269,
          "durationTicks": 150,
          "midi": 48,
          "name": "C3",
          "ticks": 170850,
          "time": 140.04090425,
          "velocity": 0.3858267716535433
        },
        {
          "duration": 0.12295075000000111,
          "durationTicks": 150,
          "midi": 36,
          "name": "C2",
          "ticks": 171000,
          "time": 140.16385499999998,
          "velocity": 0.6299212598425197
        },
        {
          "duration": 0.12295075000000111,
          "durationTicks": 150,
          "midi": 48,
          "name": "C3",
          "ticks": 171000,
          "time": 140.16385499999998,
          "velocity": 0.6299212598425197
        },
        {
          "duration": 0.12295075000000111,
          "durationTicks": 150,
          "midi": 36,
          "name": "C2",
          "ticks": 171150,
          "time": 140.28680574999998,
          "velocity": 0.3858267716535433
        },
        {
          "duration": 0.12295075000000111,
          "durationTicks": 150,
          "midi": 48,
          "name": "C3",
          "ticks": 171150,
          "time": 140.28680574999998,
          "velocity": 0.3858267716535433
        },
        {
          "duration": 0.12295075000000111,
          "durationTicks": 150,
          "midi": 36,
          "name": "C2",
          "ticks": 171300,
          "time": 140.4097565,
          "velocity": 0.6299212598425197
        },
        {
          "duration": 0.12295075000000111,
          "durationTicks": 150,
          "midi": 48,
          "name": "C3",
          "ticks": 171300,
          "time": 140.4097565,
          "velocity": 0.6299212598425197
        },
        {
          "duration": 0.24590150000000222,
          "durationTicks": 300,
          "midi": 37,
          "name": "C#2",
          "ticks": 171450,
          "time": 140.53270725,
          "velocity": 0.6299212598425197
        },
        {
          "duration": 0.24590150000000222,
          "durationTicks": 300,
          "midi": 49,
          "name": "C#3",
          "ticks": 171450,
          "time": 140.53270725,
          "velocity": 0.6299212598425197
        },
        {
          "duration": 0.12295075000000111,
          "durationTicks": 150,
          "midi": 37,
          "name": "C#2",
          "ticks": 171750,
          "time": 140.77860875,
          "velocity": 0.3858267716535433
        },
        {
          "duration": 0.12295075000000111,
          "durationTicks": 150,
          "midi": 49,
          "name": "C#3",
          "ticks": 171750,
          "time": 140.77860875,
          "velocity": 0.3858267716535433
        },
        {
          "duration": 0.12295075000000111,
          "durationTicks": 150,
          "midi": 37,
          "name": "C#2",
          "ticks": 171900,
          "time": 140.9015595,
          "velocity": 0.6377952755905512
        },
        {
          "duration": 0.12295075000000111,
          "durationTicks": 150,
          "midi": 49,
          "name": "C#3",
          "ticks": 171900,
          "time": 140.9015595,
          "velocity": 0.6377952755905512
        },
        {
          "duration": 0.12295075000000111,
          "durationTicks": 150,
          "midi": 37,
          "name": "C#2",
          "ticks": 172050,
          "time": 141.02451025,
          "velocity": 0.3858267716535433
        },
        {
          "duration": 0.12295075000000111,
          "durationTicks": 150,
          "midi": 49,
          "name": "C#3",
          "ticks": 172050,
          "time": 141.02451025,
          "velocity": 0.3858267716535433
        },
        {
          "duration": 0.12295075000000111,
          "durationTicks": 150,
          "midi": 37,
          "name": "C#2",
          "ticks": 172200,
          "time": 141.147461,
          "velocity": 0.6377952755905512
        },
        {
          "duration": 0.12295075000000111,
          "durationTicks": 150,
          "midi": 49,
          "name": "C#3",
          "ticks": 172200,
          "time": 141.147461,
          "velocity": 0.6377952755905512
        },
        {
          "duration": 0.12295075000000111,
          "durationTicks": 150,
          "midi": 37,
          "name": "C#2",
          "ticks": 172350,
          "time": 141.27041175,
          "velocity": 0.3858267716535433
        },
        {
          "duration": 0.12295075000000111,
          "durationTicks": 150,
          "midi": 49,
          "name": "C#3",
          "ticks": 172350,
          "time": 141.27041175,
          "velocity": 0.3858267716535433
        },
        {
          "duration": 0.12295075000000111,
          "durationTicks": 150,
          "midi": 37,
          "name": "C#2",
          "ticks": 172500,
          "time": 141.3933625,
          "velocity": 0.6377952755905512
        },
        {
          "duration": 0.12295075000000111,
          "durationTicks": 150,
          "midi": 49,
          "name": "C#3",
          "ticks": 172500,
          "time": 141.3933625,
          "velocity": 0.6377952755905512
        },
        {
          "duration": 0.12295075000000111,
          "durationTicks": 150,
          "midi": 37,
          "name": "C#2",
          "ticks": 172650,
          "time": 141.51631325,
          "velocity": 0.3937007874015748
        },
        {
          "duration": 0.12295075000000111,
          "durationTicks": 150,
          "midi": 49,
          "name": "C#3",
          "ticks": 172650,
          "time": 141.51631325,
          "velocity": 0.3937007874015748
        }
      ]
    },
    {
      "channel": 6,
      "controlChanges": {},
      "pitchBends": [
        {
          "ticks": 38400,
          "time": 31.475392,
          "value": 0
        }
      ],
      "instrument": {
        "family": "piano",
        "number": 0,
        "name": "acoustic grand piano"
      },
      "name": "",
      "notes": []
    },
    {
      "channel": 6,
      "controlChanges": {
        "6": [
          {
            "number": 6,
            "ticks": 38400,
            "time": 31.475392,
            "value": 0.09448818897637795
          },
          {
            "number": 6,
            "ticks": 184800,
            "time": 151.475324,
            "value": 0.09448818897637795
          },
          {
            "number": 6,
            "ticks": 184800,
            "time": 151.475324,
            "value": 0.09448818897637795
          }
        ],
        "7": [
          {
            "number": 7,
            "ticks": 38400,
            "time": 31.475392,
            "value": 0.7874015748031497
          },
          {
            "number": 7,
            "ticks": 38400,
            "time": 31.475392,
            "value": 0.7874015748031497
          },
          {
            "number": 7,
            "ticks": 184800,
            "time": 151.475324,
            "value": 0.7874015748031497
          },
          {
            "number": 7,
            "ticks": 184800,
            "time": 151.475324,
            "value": 0.7874015748031497
          }
        ],
        "10": [
          {
            "number": 10,
            "ticks": 38400,
            "time": 31.475392,
            "value": 0.5039370078740157
          },
          {
            "number": 10,
            "ticks": 38400,
            "time": 31.475392,
            "value": 0.5039370078740157
          },
          {
            "number": 10,
            "ticks": 184800,
            "time": 151.475324,
            "value": 0.5039370078740157
          },
          {
            "number": 10,
            "ticks": 184800,
            "time": 151.475324,
            "value": 0.5039370078740157
          }
        ],
        "100": [
          {
            "number": 100,
            "ticks": 38400,
            "time": 31.475392,
            "value": 0
          },
          {
            "number": 100,
            "ticks": 184800,
            "time": 151.475324,
            "value": 0
          },
          {
            "number": 100,
            "ticks": 184800,
            "time": 151.475324,
            "value": 0
          }
        ],
        "101": [
          {
            "number": 101,
            "ticks": 38400,
            "time": 31.475392,
            "value": 0
          },
          {
            "number": 101,
            "ticks": 184800,
            "time": 151.475324,
            "value": 0
          },
          {
            "number": 101,
            "ticks": 184800,
            "time": 151.475324,
            "value": 0
          }
        ]
      },
      "pitchBends": [
        {
          "ticks": 38400,
          "time": 31.475392,
          "value": 0
        },
        {
          "ticks": 38400,
          "time": 31.475392,
          "value": 0
        },
        {
          "ticks": 184800,
          "time": 151.475324,
          "value": 0
        },
        {
          "ticks": 184800,
          "time": 151.475324,
          "value": 0
        }
      ],
      "instrument": {
        "family": "bass",
        "number": 33,
        "name": "electric bass (finger)"
      },
      "name": "",
      "notes": [
        {
          "duration": 0,
          "durationTicks": 0,
          "midi": 36,
          "name": "C2",
          "ticks": 38550,
          "time": 31.59834275,
          "velocity": 0.3858267716535433
        },
        {
          "duration": 0,
          "durationTicks": 0,
          "midi": 36,
          "name": "C2",
          "ticks": 38700,
          "time": 31.721293499999998,
          "velocity": 0.6299212598425197
        },
        {
          "duration": 0,
          "durationTicks": 0,
          "midi": 36,
          "name": "C2",
          "ticks": 38850,
          "time": 31.84424425,
          "velocity": 0.3858267716535433
        },
        {
          "duration": 0,
          "durationTicks": 0,
          "midi": 36,
          "name": "C2",
          "ticks": 39000,
          "time": 31.967195,
          "velocity": 0.6299212598425197
        },
        {
          "duration": 0,
          "durationTicks": 0,
          "midi": 36,
          "name": "C2",
          "ticks": 39150,
          "time": 32.09014575,
          "velocity": 0.3858267716535433
        },
        {
          "duration": 0,
          "durationTicks": 0,
          "midi": 36,
          "name": "C2",
          "ticks": 39300,
          "time": 32.2130965,
          "velocity": 0.6299212598425197
        },
        {
          "duration": 0,
          "durationTicks": 0,
          "midi": 36,
          "name": "C2",
          "ticks": 39450,
          "time": 32.33604725,
          "velocity": 0.6299212598425197
        },
        {
          "duration": 0,
          "durationTicks": 0,
          "midi": 36,
          "name": "C2",
          "ticks": 39750,
          "time": 32.58194875,
          "velocity": 0.3858267716535433
        },
        {
          "duration": 0,
          "durationTicks": 0,
          "midi": 36,
          "name": "C2",
          "ticks": 39900,
          "time": 32.704899499999996,
          "velocity": 0.6377952755905512
        },
        {
          "duration": 0,
          "durationTicks": 0,
          "midi": 36,
          "name": "C2",
          "ticks": 40050,
          "time": 32.82785025,
          "velocity": 0.3858267716535433
        },
        {
          "duration": 0,
          "durationTicks": 0,
          "midi": 36,
          "name": "C2",
          "ticks": 40200,
          "time": 32.950801,
          "velocity": 0.6377952755905512
        },
        {
          "duration": 0,
          "durationTicks": 0,
          "midi": 36,
          "name": "C2",
          "ticks": 40350,
          "time": 33.07375175,
          "velocity": 0.3858267716535433
        },
        {
          "duration": 0,
          "durationTicks": 0,
          "midi": 36,
          "name": "C2",
          "ticks": 40500,
          "time": 33.1967025,
          "velocity": 0.6377952755905512
        },
        {
          "duration": 0,
          "durationTicks": 0,
          "midi": 36,
          "name": "C2",
          "ticks": 40650,
          "time": 33.31965325,
          "velocity": 0.3937007874015748
        },
        {
          "duration": 0,
          "durationTicks": 0,
          "midi": 36,
          "name": "C2",
          "ticks": 40800,
          "time": 33.442604,
          "velocity": 0.6299212598425197
        },
        {
          "duration": 0,
          "durationTicks": 0,
          "midi": 36,
          "name": "C2",
          "ticks": 40950,
          "time": 33.56555475,
          "velocity": 0.3858267716535433
        },
        {
          "duration": 0,
          "durationTicks": 0,
          "midi": 36,
          "name": "C2",
          "ticks": 41100,
          "time": 33.6885055,
          "velocity": 0.6299212598425197
        },
        {
          "duration": 0,
          "durationTicks": 0,
          "midi": 36,
          "name": "C2",
          "ticks": 41250,
          "time": 33.81145625,
          "velocity": 0.3858267716535433
        },
        {
          "duration": 0,
          "durationTicks": 0,
          "midi": 36,
          "name": "C2",
          "ticks": 41400,
          "time": 33.934407,
          "velocity": 0.6299212598425197
        },
        {
          "duration": 0,
          "durationTicks": 0,
          "midi": 36,
          "name": "C2",
          "ticks": 41550,
          "time": 34.05735775,
          "velocity": 0.3858267716535433
        },
        {
          "duration": 0,
          "durationTicks": 0,
          "midi": 36,
          "name": "C2",
          "ticks": 41700,
          "time": 34.1803085,
          "velocity": 0.6299212598425197
        },
        {
          "duration": 0,
          "durationTicks": 0,
          "midi": 36,
          "name": "C2",
          "ticks": 41850,
          "time": 34.303259249999996,
          "velocity": 0.6299212598425197
        },
        {
          "duration": 0,
          "durationTicks": 0,
          "midi": 36,
          "name": "C2",
          "ticks": 42150,
          "time": 34.54916075,
          "velocity": 0.3858267716535433
        },
        {
          "duration": 0,
          "durationTicks": 0,
          "midi": 36,
          "name": "C2",
          "ticks": 42300,
          "time": 34.6721115,
          "velocity": 0.6377952755905512
        },
        {
          "duration": 0,
          "durationTicks": 0,
          "midi": 36,
          "name": "C2",
          "ticks": 42450,
          "time": 34.79506225,
          "velocity": 0.3858267716535433
        },
        {
          "duration": 0,
          "durationTicks": 0,
          "midi": 36,
          "name": "C2",
          "ticks": 42600,
          "time": 34.918013,
          "velocity": 0.6377952755905512
        },
        {
          "duration": 0,
          "durationTicks": 0,
          "midi": 36,
          "name": "C2",
          "ticks": 42750,
          "time": 35.040963749999996,
          "velocity": 0.3858267716535433
        },
        {
          "duration": 0,
          "durationTicks": 0,
          "midi": 36,
          "name": "C2",
          "ticks": 42900,
          "time": 35.1639145,
          "velocity": 0.6377952755905512
        },
        {
          "duration": 0,
          "durationTicks": 0,
          "midi": 36,
          "name": "C2",
          "ticks": 43050,
          "time": 35.28686525,
          "velocity": 0.3937007874015748
        },
        {
          "duration": 0.12295075000000111,
          "durationTicks": 150,
          "midi": 32,
          "name": "G#1",
          "ticks": 43200,
          "time": 35.409816,
          "velocity": 0.6299212598425197
        },
        {
          "duration": 0.12295075000000111,
          "durationTicks": 150,
          "midi": 32,
          "name": "G#1",
          "ticks": 43350,
          "time": 35.53276675,
          "velocity": 0.3858267716535433
        },
        {
          "duration": 0.12295075000000111,
          "durationTicks": 150,
          "midi": 32,
          "name": "G#1",
          "ticks": 43500,
          "time": 35.6557175,
          "velocity": 0.6299212598425197
        },
        {
          "duration": 0.122950749999994,
          "durationTicks": 150,
          "midi": 32,
          "name": "G#1",
          "ticks": 43650,
          "time": 35.77866825,
          "velocity": 0.3858267716535433
        },
        {
          "duration": 0.12295075000000111,
          "durationTicks": 150,
          "midi": 32,
          "name": "G#1",
          "ticks": 43800,
          "time": 35.901619,
          "velocity": 0.6299212598425197
        },
        {
          "duration": 0.12295075000000111,
          "durationTicks": 150,
          "midi": 32,
          "name": "G#1",
          "ticks": 43950,
          "time": 36.02456975,
          "velocity": 0.3858267716535433
        },
        {
          "duration": 0.12295075000000111,
          "durationTicks": 150,
          "midi": 32,
          "name": "G#1",
          "ticks": 44100,
          "time": 36.1475205,
          "velocity": 0.6299212598425197
        },
        {
          "duration": 0.24590150000000222,
          "durationTicks": 300,
          "midi": 32,
          "name": "G#1",
          "ticks": 44250,
          "time": 36.27047125,
          "velocity": 0.6299212598425197
        },
        {
          "duration": 0.122950749999994,
          "durationTicks": 150,
          "midi": 32,
          "name": "G#1",
          "ticks": 44550,
          "time": 36.51637275,
          "velocity": 0.3858267716535433
        },
        {
          "duration": 0.12295075000000111,
          "durationTicks": 150,
          "midi": 32,
          "name": "G#1",
          "ticks": 44700,
          "time": 36.639323499999996,
          "velocity": 0.6377952755905512
        },
        {
          "duration": 0.12295075000000111,
          "durationTicks": 150,
          "midi": 32,
          "name": "G#1",
          "ticks": 44850,
          "time": 36.76227425,
          "velocity": 0.3858267716535433
        },
        {
          "duration": 0.12295075000000111,
          "durationTicks": 150,
          "midi": 32,
          "name": "G#1",
          "ticks": 45000,
          "time": 36.885225,
          "velocity": 0.6377952755905512
        },
        {
          "duration": 0.12295075000000111,
          "durationTicks": 150,
          "midi": 32,
          "name": "G#1",
          "ticks": 45150,
          "time": 37.00817575,
          "velocity": 0.3858267716535433
        },
        {
          "duration": 0.12295075000000111,
          "durationTicks": 150,
          "midi": 32,
          "name": "G#1",
          "ticks": 45300,
          "time": 37.1311265,
          "velocity": 0.6377952755905512
        },
        {
          "duration": 0.122950749999994,
          "durationTicks": 150,
          "midi": 32,
          "name": "G#1",
          "ticks": 45450,
          "time": 37.25407725,
          "velocity": 0.3937007874015748
        },
        {
          "duration": 0.12295075000000111,
          "durationTicks": 150,
          "midi": 34,
          "name": "A#1",
          "ticks": 45600,
          "time": 37.377027999999996,
          "velocity": 0.6299212598425197
        },
        {
          "duration": 0.12295075000000111,
          "durationTicks": 150,
          "midi": 34,
          "name": "A#1",
          "ticks": 45750,
          "time": 37.49997875,
          "velocity": 0.3858267716535433
        },
        {
          "duration": 0.12295075000000111,
          "durationTicks": 150,
          "midi": 34,
          "name": "A#1",
          "ticks": 45900,
          "time": 37.6229295,
          "velocity": 0.6299212598425197
        },
        {
          "duration": 0.12295075000000111,
          "durationTicks": 150,
          "midi": 34,
          "name": "A#1",
          "ticks": 46050,
          "time": 37.74588025,
          "velocity": 0.3858267716535433
        },
        {
          "duration": 0.12295075000000111,
          "durationTicks": 150,
          "midi": 34,
          "name": "A#1",
          "ticks": 46200,
          "time": 37.868831,
          "velocity": 0.6299212598425197
        },
        {
          "duration": 0.12295075000000111,
          "durationTicks": 150,
          "midi": 34,
          "name": "A#1",
          "ticks": 46350,
          "time": 37.99178175,
          "velocity": 0.3858267716535433
        },
        {
          "duration": 0.122950749999994,
          "durationTicks": 150,
          "midi": 34,
          "name": "A#1",
          "ticks": 46500,
          "time": 38.1147325,
          "velocity": 0.6299212598425197
        },
        {
          "duration": 0.24590150000000222,
          "durationTicks": 300,
          "midi": 35,
          "name": "B1",
          "ticks": 46650,
          "time": 38.237683249999996,
          "velocity": 0.6299212598425197
        },
        {
          "duration": 0.12295075000000111,
          "durationTicks": 150,
          "midi": 35,
          "name": "B1",
          "ticks": 46950,
          "time": 38.48358475,
          "velocity": 0.3858267716535433
        },
        {
          "duration": 0.12295075000000111,
          "durationTicks": 150,
          "midi": 35,
          "name": "B1",
          "ticks": 47100,
          "time": 38.6065355,
          "velocity": 0.6377952755905512
        },
        {
          "duration": 0.12295075000000111,
          "durationTicks": 150,
          "midi": 35,
          "name": "B1",
          "ticks": 47250,
          "time": 38.72948625,
          "velocity": 0.3858267716535433
        },
        {
          "duration": 0.122950749999994,
          "durationTicks": 150,
          "midi": 35,
          "name": "B1",
          "ticks": 47400,
          "time": 38.852437,
          "velocity": 0.6377952755905512
        },
        {
          "duration": 0.12295075000000111,
          "durationTicks": 150,
          "midi": 35,
          "name": "B1",
          "ticks": 47550,
          "time": 38.975387749999996,
          "velocity": 0.3858267716535433
        },
        {
          "duration": 0.12295075000000111,
          "durationTicks": 150,
          "midi": 35,
          "name": "B1",
          "ticks": 47700,
          "time": 39.0983385,
          "velocity": 0.6377952755905512
        },
        {
          "duration": 0.12295075000000111,
          "durationTicks": 150,
          "midi": 35,
          "name": "B1",
          "ticks": 47850,
          "time": 39.22128925,
          "velocity": 0.3937007874015748
        },
        {
          "duration": 0.12295075000000111,
          "durationTicks": 150,
          "midi": 36,
          "name": "C2",
          "ticks": 48000,
          "time": 39.34424,
          "velocity": 0.6299212598425197
        },
        {
          "duration": 0.12295075000000111,
          "durationTicks": 150,
          "midi": 36,
          "name": "C2",
          "ticks": 48150,
          "time": 39.46719075,
          "velocity": 0.3858267716535433
        },
        {
          "duration": 0.12295075000000111,
          "durationTicks": 150,
          "midi": 36,
          "name": "C2",
          "ticks": 48300,
          "time": 39.5901415,
          "velocity": 0.6299212598425197
        },
        {
          "duration": 0.122950749999994,
          "durationTicks": 150,
          "midi": 36,
          "name": "C2",
          "ticks": 48450,
          "time": 39.71309225,
          "velocity": 0.3858267716535433
        },
        {
          "duration": 0.12295075000000111,
          "durationTicks": 150,
          "midi": 36,
          "name": "C2",
          "ticks": 48600,
          "time": 39.836043,
          "velocity": 0.6299212598425197
        },
        {
          "duration": 0.12295075000000111,
          "durationTicks": 150,
          "midi": 36,
          "name": "C2",
          "ticks": 48750,
          "time": 39.95899375,
          "velocity": 0.3858267716535433
        },
        {
          "duration": 0.12295075000000111,
          "durationTicks": 150,
          "midi": 36,
          "name": "C2",
          "ticks": 48900,
          "time": 40.0819445,
          "velocity": 0.6299212598425197
        },
        {
          "duration": 0.24590150000000222,
          "durationTicks": 300,
          "midi": 36,
          "name": "C2",
          "ticks": 49050,
          "time": 40.20489525,
          "velocity": 0.6299212598425197
        },
        {
          "duration": 0.122950749999994,
          "durationTicks": 150,
          "midi": 36,
          "name": "C2",
          "ticks": 49350,
          "time": 40.45079675,
          "velocity": 0.3858267716535433
        },
        {
          "duration": 0.12295075000000111,
          "durationTicks": 150,
          "midi": 36,
          "name": "C2",
          "ticks": 49500,
          "time": 40.573747499999996,
          "velocity": 0.6377952755905512
        },
        {
          "duration": 0.12295075000000111,
          "durationTicks": 150,
          "midi": 36,
          "name": "C2",
          "ticks": 49650,
          "time": 40.69669825,
          "velocity": 0.3858267716535433
        },
        {
          "duration": 0.12295075000000111,
          "durationTicks": 150,
          "midi": 36,
          "name": "C2",
          "ticks": 49800,
          "time": 40.819649,
          "velocity": 0.6377952755905512
        },
        {
          "duration": 0.12295075000000111,
          "durationTicks": 150,
          "midi": 36,
          "name": "C2",
          "ticks": 49950,
          "time": 40.94259975,
          "velocity": 0.3858267716535433
        },
        {
          "duration": 0.12295075000000111,
          "durationTicks": 150,
          "midi": 36,
          "name": "C2",
          "ticks": 50100,
          "time": 41.0655505,
          "velocity": 0.6377952755905512
        },
        {
          "duration": 0.12295075000000111,
          "durationTicks": 150,
          "midi": 36,
          "name": "C2",
          "ticks": 50250,
          "time": 41.18850125,
          "velocity": 0.3937007874015748
        },
        {
          "duration": 0.122950749999994,
          "durationTicks": 150,
          "midi": 36,
          "name": "C2",
          "ticks": 50400,
          "time": 41.311452,
          "velocity": 0.6299212598425197
        },
        {
          "duration": 0.12295075000000111,
          "durationTicks": 150,
          "midi": 36,
          "name": "C2",
          "ticks": 50550,
          "time": 41.43440275,
          "velocity": 0.3858267716535433
        },
        {
          "duration": 0.12295075000000111,
          "durationTicks": 150,
          "midi": 36,
          "name": "C2",
          "ticks": 50700,
          "time": 41.5573535,
          "velocity": 0.6299212598425197
        },
        {
          "duration": 0.12295075000000111,
          "durationTicks": 150,
          "midi": 36,
          "name": "C2",
          "ticks": 50850,
          "time": 41.68030425,
          "velocity": 0.3858267716535433
        },
        {
          "duration": 0.12295075000000111,
          "durationTicks": 150,
          "midi": 36,
          "name": "C2",
          "ticks": 51000,
          "time": 41.803255,
          "velocity": 0.6299212598425197
        },
        {
          "duration": 0.12295075000000111,
          "durationTicks": 150,
          "midi": 36,
          "name": "C2",
          "ticks": 51150,
          "time": 41.92620575,
          "velocity": 0.3858267716535433
        },
        {
          "duration": 0.122950749999994,
          "durationTicks": 150,
          "midi": 36,
          "name": "C2",
          "ticks": 51300,
          "time": 42.0491565,
          "velocity": 0.6299212598425197
        },
        {
          "duration": 0.24590150000000222,
          "durationTicks": 300,
          "midi": 36,
          "name": "C2",
          "ticks": 51450,
          "time": 42.172107249999996,
          "velocity": 0.6299212598425197
        },
        {
          "duration": 0.12295075000000111,
          "durationTicks": 150,
          "midi": 36,
          "name": "C2",
          "ticks": 51750,
          "time": 42.41800875,
          "velocity": 0.3858267716535433
        },
        {
          "duration": 0.12295075000000111,
          "durationTicks": 150,
          "midi": 36,
          "name": "C2",
          "ticks": 51900,
          "time": 42.5409595,
          "velocity": 0.6377952755905512
        },
        {
          "duration": 0.12295075000000111,
          "durationTicks": 150,
          "midi": 36,
          "name": "C2",
          "ticks": 52050,
          "time": 42.66391025,
          "velocity": 0.3858267716535433
        },
        {
          "duration": 0.122950749999994,
          "durationTicks": 150,
          "midi": 36,
          "name": "C2",
          "ticks": 52200,
          "time": 42.786861,
          "velocity": 0.6377952755905512
        },
        {
          "duration": 0.12295075000000111,
          "durationTicks": 150,
          "midi": 36,
          "name": "C2",
          "ticks": 52350,
          "time": 42.909811749999996,
          "velocity": 0.3858267716535433
        },
        {
          "duration": 0.12295075000000111,
          "durationTicks": 150,
          "midi": 36,
          "name": "C2",
          "ticks": 52500,
          "time": 43.0327625,
          "velocity": 0.6377952755905512
        },
        {
          "duration": 0.12295075000000111,
          "durationTicks": 150,
          "midi": 36,
          "name": "C2",
          "ticks": 52650,
          "time": 43.15571325,
          "velocity": 0.3937007874015748
        },
        {
          "duration": 0.12295075000000111,
          "durationTicks": 150,
          "midi": 32,
          "name": "G#1",
          "ticks": 52800,
          "time": 43.278664,
          "velocity": 0.6299212598425197
        },
        {
          "duration": 0.12295075000000111,
          "durationTicks": 150,
          "midi": 32,
          "name": "G#1",
          "ticks": 52950,
          "time": 43.40161475,
          "velocity": 0.3858267716535433
        },
        {
          "duration": 0.12295075000000111,
          "durationTicks": 150,
          "midi": 32,
          "name": "G#1",
          "ticks": 53100,
          "time": 43.5245655,
          "velocity": 0.6299212598425197
        },
        {
          "duration": 0.122950749999994,
          "durationTicks": 150,
          "midi": 32,
          "name": "G#1",
          "ticks": 53250,
          "time": 43.64751625,
          "velocity": 0.3858267716535433
        },
        {
          "duration": 0.12295075000000111,
          "durationTicks": 150,
          "midi": 32,
          "name": "G#1",
          "ticks": 53400,
          "time": 43.770467,
          "velocity": 0.6299212598425197
        },
        {
          "duration": 0.12295075000000111,
          "durationTicks": 150,
          "midi": 32,
          "name": "G#1",
          "ticks": 53550,
          "time": 43.89341775,
          "velocity": 0.3858267716535433
        },
        {
          "duration": 0.12295075000000111,
          "durationTicks": 150,
          "midi": 32,
          "name": "G#1",
          "ticks": 53700,
          "time": 44.0163685,
          "velocity": 0.6299212598425197
        },
        {
          "duration": 0.24590150000000222,
          "durationTicks": 300,
          "midi": 32,
          "name": "G#1",
          "ticks": 53850,
          "time": 44.13931925,
          "velocity": 0.6299212598425197
        },
        {
          "duration": 0.122950749999994,
          "durationTicks": 150,
          "midi": 32,
          "name": "G#1",
          "ticks": 54150,
          "time": 44.38522075,
          "velocity": 0.3858267716535433
        },
        {
          "duration": 0.12295075000000111,
          "durationTicks": 150,
          "midi": 32,
          "name": "G#1",
          "ticks": 54300,
          "time": 44.508171499999996,
          "velocity": 0.6377952755905512
        },
        {
          "duration": 0.12295075000000111,
          "durationTicks": 150,
          "midi": 32,
          "name": "G#1",
          "ticks": 54450,
          "time": 44.63112225,
          "velocity": 0.3858267716535433
        },
        {
          "duration": 0.12295075000000111,
          "durationTicks": 150,
          "midi": 32,
          "name": "G#1",
          "ticks": 54600,
          "time": 44.754073,
          "velocity": 0.6377952755905512
        },
        {
          "duration": 0.12295075000000111,
          "durationTicks": 150,
          "midi": 32,
          "name": "G#1",
          "ticks": 54750,
          "time": 44.87702375,
          "velocity": 0.3858267716535433
        },
        {
          "duration": 0.12295075000000111,
          "durationTicks": 150,
          "midi": 32,
          "name": "G#1",
          "ticks": 54900,
          "time": 44.9999745,
          "velocity": 0.6377952755905512
        },
        {
          "duration": 0.122950749999994,
          "durationTicks": 150,
          "midi": 32,
          "name": "G#1",
          "ticks": 55050,
          "time": 45.12292525,
          "velocity": 0.3937007874015748
        },
        {
          "duration": 0.12295075000000111,
          "durationTicks": 150,
          "midi": 34,
          "name": "A#1",
          "ticks": 55200,
          "time": 45.245875999999996,
          "velocity": 0.6299212598425197
        },
        {
          "duration": 0.12295075000000111,
          "durationTicks": 150,
          "midi": 34,
          "name": "A#1",
          "ticks": 55350,
          "time": 45.36882675,
          "velocity": 0.3858267716535433
        },
        {
          "duration": 0.12295075000000111,
          "durationTicks": 150,
          "midi": 34,
          "name": "A#1",
          "ticks": 55500,
          "time": 45.4917775,
          "velocity": 0.6299212598425197
        },
        {
          "duration": 0.12295075000000111,
          "durationTicks": 150,
          "midi": 34,
          "name": "A#1",
          "ticks": 55650,
          "time": 45.61472825,
          "velocity": 0.3858267716535433
        },
        {
          "duration": 0.12295075000000111,
          "durationTicks": 150,
          "midi": 34,
          "name": "A#1",
          "ticks": 55800,
          "time": 45.737679,
          "velocity": 0.6299212598425197
        },
        {
          "duration": 0.12295075000000111,
          "durationTicks": 150,
          "midi": 34,
          "name": "A#1",
          "ticks": 55950,
          "time": 45.86062975,
          "velocity": 0.3858267716535433
        },
        {
          "duration": 0.122950749999994,
          "durationTicks": 150,
          "midi": 34,
          "name": "A#1",
          "ticks": 56100,
          "time": 45.9835805,
          "velocity": 0.6299212598425197
        },
        {
          "duration": 0.24590150000000222,
          "durationTicks": 300,
          "midi": 35,
          "name": "B1",
          "ticks": 56250,
          "time": 46.106531249999996,
          "velocity": 0.6299212598425197
        },
        {
          "duration": 0.12295075000000111,
          "durationTicks": 150,
          "midi": 35,
          "name": "B1",
          "ticks": 56550,
          "time": 46.35243275,
          "velocity": 0.3858267716535433
        },
        {
          "duration": 0.12295075000000111,
          "durationTicks": 150,
          "midi": 35,
          "name": "B1",
          "ticks": 56700,
          "time": 46.4753835,
          "velocity": 0.6377952755905512
        },
        {
          "duration": 0.12295075000000111,
          "durationTicks": 150,
          "midi": 35,
          "name": "B1",
          "ticks": 56850,
          "time": 46.59833425,
          "velocity": 0.3858267716535433
        },
        {
          "duration": 0.122950749999994,
          "durationTicks": 150,
          "midi": 35,
          "name": "B1",
          "ticks": 57000,
          "time": 46.721285,
          "velocity": 0.6377952755905512
        },
        {
          "duration": 0.12295075000000111,
          "durationTicks": 150,
          "midi": 35,
          "name": "B1",
          "ticks": 57150,
          "time": 46.844235749999996,
          "velocity": 0.3858267716535433
        },
        {
          "duration": 0.12295075000000111,
          "durationTicks": 150,
          "midi": 35,
          "name": "B1",
          "ticks": 57300,
          "time": 46.9671865,
          "velocity": 0.6377952755905512
        },
        {
          "duration": 0.12295075000000111,
          "durationTicks": 150,
          "midi": 35,
          "name": "B1",
          "ticks": 57450,
          "time": 47.09013725,
          "velocity": 0.3937007874015748
        },
        {
          "duration": 0.12295075000000111,
          "durationTicks": 150,
          "midi": 36,
          "name": "C2",
          "ticks": 57600,
          "time": 47.213088,
          "velocity": 0.6299212598425197
        },
        {
          "duration": 0.12295075000000111,
          "durationTicks": 150,
          "midi": 36,
          "name": "C2",
          "ticks": 57750,
          "time": 47.33603875,
          "velocity": 0.3858267716535433
        },
        {
          "duration": 0.12295075000000111,
          "durationTicks": 150,
          "midi": 36,
          "name": "C2",
          "ticks": 57900,
          "time": 47.4589895,
          "velocity": 0.6299212598425197
        },
        {
          "duration": 0.122950749999994,
          "durationTicks": 150,
          "midi": 36,
          "name": "C2",
          "ticks": 58050,
          "time": 47.58194025,
          "velocity": 0.3858267716535433
        },
        {
          "duration": 0.12295075000000111,
          "durationTicks": 150,
          "midi": 36,
          "name": "C2",
          "ticks": 58200,
          "time": 47.704890999999996,
          "velocity": 0.6299212598425197
        },
        {
          "duration": 0.12295075000000111,
          "durationTicks": 150,
          "midi": 36,
          "name": "C2",
          "ticks": 58350,
          "time": 47.82784175,
          "velocity": 0.3858267716535433
        },
        {
          "duration": 0.12295075000000111,
          "durationTicks": 150,
          "midi": 36,
          "name": "C2",
          "ticks": 58500,
          "time": 47.9507925,
          "velocity": 0.6299212598425197
        },
        {
          "duration": 0.24590150000000222,
          "durationTicks": 300,
          "midi": 36,
          "name": "C2",
          "ticks": 58650,
          "time": 48.07374325,
          "velocity": 0.6299212598425197
        },
        {
          "duration": 0.122950749999994,
          "durationTicks": 150,
          "midi": 36,
          "name": "C2",
          "ticks": 58950,
          "time": 48.31964475,
          "velocity": 0.3858267716535433
        },
        {
          "duration": 0.12295075000000111,
          "durationTicks": 150,
          "midi": 36,
          "name": "C2",
          "ticks": 59100,
          "time": 48.442595499999996,
          "velocity": 0.6377952755905512
        },
        {
          "duration": 0.12295075000000111,
          "durationTicks": 150,
          "midi": 36,
          "name": "C2",
          "ticks": 59250,
          "time": 48.56554625,
          "velocity": 0.3858267716535433
        },
        {
          "duration": 0.12295075000000111,
          "durationTicks": 150,
          "midi": 36,
          "name": "C2",
          "ticks": 59400,
          "time": 48.688497,
          "velocity": 0.6377952755905512
        },
        {
          "duration": 0.12295075000000111,
          "durationTicks": 150,
          "midi": 36,
          "name": "C2",
          "ticks": 59550,
          "time": 48.81144775,
          "velocity": 0.3858267716535433
        },
        {
          "duration": 0.12295075000000111,
          "durationTicks": 150,
          "midi": 36,
          "name": "C2",
          "ticks": 59700,
          "time": 48.9343985,
          "velocity": 0.6377952755905512
        },
        {
          "duration": 0.12295075000000111,
          "durationTicks": 150,
          "midi": 36,
          "name": "C2",
          "ticks": 59850,
          "time": 49.05734925,
          "velocity": 0.3937007874015748
        },
        {
          "duration": 0.122950749999994,
          "durationTicks": 150,
          "midi": 36,
          "name": "C2",
          "ticks": 60000,
          "time": 49.1803,
          "velocity": 0.6299212598425197
        },
        {
          "duration": 0.12295075000000111,
          "durationTicks": 150,
          "midi": 36,
          "name": "C2",
          "ticks": 60150,
          "time": 49.30325075,
          "velocity": 0.3858267716535433
        },
        {
          "duration": 0.12295075000000111,
          "durationTicks": 150,
          "midi": 36,
          "name": "C2",
          "ticks": 60300,
          "time": 49.4262015,
          "velocity": 0.6299212598425197
        },
        {
          "duration": 0.12295075000000111,
          "durationTicks": 150,
          "midi": 36,
          "name": "C2",
          "ticks": 60450,
          "time": 49.54915225,
          "velocity": 0.3858267716535433
        },
        {
          "duration": 0.12295075000000111,
          "durationTicks": 150,
          "midi": 36,
          "name": "C2",
          "ticks": 60600,
          "time": 49.672103,
          "velocity": 0.6299212598425197
        },
        {
          "duration": 0.12295075000000111,
          "durationTicks": 150,
          "midi": 36,
          "name": "C2",
          "ticks": 60750,
          "time": 49.79505375,
          "velocity": 0.3858267716535433
        },
        {
          "duration": 0.122950749999994,
          "durationTicks": 150,
          "midi": 36,
          "name": "C2",
          "ticks": 60900,
          "time": 49.9180045,
          "velocity": 0.6299212598425197
        },
        {
          "duration": 0.24590150000000222,
          "durationTicks": 300,
          "midi": 36,
          "name": "C2",
          "ticks": 61050,
          "time": 50.040955249999996,
          "velocity": 0.6299212598425197
        },
        {
          "duration": 0.12295075000000111,
          "durationTicks": 150,
          "midi": 36,
          "name": "C2",
          "ticks": 61350,
          "time": 50.28685675,
          "velocity": 0.3858267716535433
        },
        {
          "duration": 0.12295075000000111,
          "durationTicks": 150,
          "midi": 36,
          "name": "C2",
          "ticks": 61500,
          "time": 50.4098075,
          "velocity": 0.6377952755905512
        },
        {
          "duration": 0.12295075000000111,
          "durationTicks": 150,
          "midi": 36,
          "name": "C2",
          "ticks": 61650,
          "time": 50.53275825,
          "velocity": 0.3858267716535433
        },
        {
          "duration": 0.122950749999994,
          "durationTicks": 150,
          "midi": 36,
          "name": "C2",
          "ticks": 61800,
          "time": 50.655709,
          "velocity": 0.6377952755905512
        },
        {
          "duration": 0.12295075000000111,
          "durationTicks": 150,
          "midi": 36,
          "name": "C2",
          "ticks": 61950,
          "time": 50.778659749999996,
          "velocity": 0.3858267716535433
        },
        {
          "duration": 0.12295075000000111,
          "durationTicks": 150,
          "midi": 36,
          "name": "C2",
          "ticks": 62100,
          "time": 50.9016105,
          "velocity": 0.6377952755905512
        },
        {
          "duration": 0.12295075000000111,
          "durationTicks": 150,
          "midi": 36,
          "name": "C2",
          "ticks": 62250,
          "time": 51.02456125,
          "velocity": 0.3937007874015748
        },
        {
          "duration": 0.12295075000000111,
          "durationTicks": 150,
          "midi": 32,
          "name": "G#1",
          "ticks": 62400,
          "time": 51.147512,
          "velocity": 0.6299212598425197
        },
        {
          "duration": 0.12295075000000111,
          "durationTicks": 150,
          "midi": 32,
          "name": "G#1",
          "ticks": 62550,
          "time": 51.27046275,
          "velocity": 0.3858267716535433
        },
        {
          "duration": 0.12295075000000111,
          "durationTicks": 150,
          "midi": 32,
          "name": "G#1",
          "ticks": 62700,
          "time": 51.3934135,
          "velocity": 0.6299212598425197
        },
        {
          "duration": 0.122950749999994,
          "durationTicks": 150,
          "midi": 32,
          "name": "G#1",
          "ticks": 62850,
          "time": 51.51636425,
          "velocity": 0.3858267716535433
        },
        {
          "duration": 0.12295075000000111,
          "durationTicks": 150,
          "midi": 32,
          "name": "G#1",
          "ticks": 63000,
          "time": 51.639314999999996,
          "velocity": 0.6299212598425197
        },
        {
          "duration": 0.12295075000000111,
          "durationTicks": 150,
          "midi": 32,
          "name": "G#1",
          "ticks": 63150,
          "time": 51.76226575,
          "velocity": 0.3858267716535433
        },
        {
          "duration": 0.12295075000000111,
          "durationTicks": 150,
          "midi": 32,
          "name": "G#1",
          "ticks": 63300,
          "time": 51.8852165,
          "velocity": 0.6299212598425197
        },
        {
          "duration": 0.24590150000000222,
          "durationTicks": 300,
          "midi": 32,
          "name": "G#1",
          "ticks": 63450,
          "time": 52.00816725,
          "velocity": 0.6299212598425197
        },
        {
          "duration": 0.122950749999994,
          "durationTicks": 150,
          "midi": 32,
          "name": "G#1",
          "ticks": 63750,
          "time": 52.25406875,
          "velocity": 0.3858267716535433
        },
        {
          "duration": 0.12295075000000111,
          "durationTicks": 150,
          "midi": 32,
          "name": "G#1",
          "ticks": 63900,
          "time": 52.377019499999996,
          "velocity": 0.6377952755905512
        },
        {
          "duration": 0.12295075000000111,
          "durationTicks": 150,
          "midi": 32,
          "name": "G#1",
          "ticks": 64050,
          "time": 52.49997025,
          "velocity": 0.3858267716535433
        },
        {
          "duration": 0.12295075000000111,
          "durationTicks": 150,
          "midi": 32,
          "name": "G#1",
          "ticks": 64200,
          "time": 52.622921,
          "velocity": 0.6377952755905512
        },
        {
          "duration": 0.12295075000000111,
          "durationTicks": 150,
          "midi": 32,
          "name": "G#1",
          "ticks": 64350,
          "time": 52.74587175,
          "velocity": 0.3858267716535433
        },
        {
          "duration": 0.12295075000000111,
          "durationTicks": 150,
          "midi": 32,
          "name": "G#1",
          "ticks": 64500,
          "time": 52.8688225,
          "velocity": 0.6377952755905512
        },
        {
          "duration": 0.122950749999994,
          "durationTicks": 150,
          "midi": 32,
          "name": "G#1",
          "ticks": 64650,
          "time": 52.99177325,
          "velocity": 0.3937007874015748
        },
        {
          "duration": 0.12295075000000111,
          "durationTicks": 150,
          "midi": 34,
          "name": "A#1",
          "ticks": 64800,
          "time": 53.114723999999995,
          "velocity": 0.6299212598425197
        },
        {
          "duration": 0.12295075000000111,
          "durationTicks": 150,
          "midi": 34,
          "name": "A#1",
          "ticks": 64950,
          "time": 53.23767475,
          "velocity": 0.3858267716535433
        },
        {
          "duration": 0.12295075000000111,
          "durationTicks": 150,
          "midi": 34,
          "name": "A#1",
          "ticks": 65100,
          "time": 53.3606255,
          "velocity": 0.6299212598425197
        },
        {
          "duration": 0.12295075000000111,
          "durationTicks": 150,
          "midi": 34,
          "name": "A#1",
          "ticks": 65250,
          "time": 53.48357625,
          "velocity": 0.3858267716535433
        },
        {
          "duration": 0.12295075000000111,
          "durationTicks": 150,
          "midi": 34,
          "name": "A#1",
          "ticks": 65400,
          "time": 53.606527,
          "velocity": 0.6299212598425197
        },
        {
          "duration": 0.12295075000000111,
          "durationTicks": 150,
          "midi": 34,
          "name": "A#1",
          "ticks": 65550,
          "time": 53.72947775,
          "velocity": 0.3858267716535433
        },
        {
          "duration": 0.122950749999994,
          "durationTicks": 150,
          "midi": 34,
          "name": "A#1",
          "ticks": 65700,
          "time": 53.8524285,
          "velocity": 0.6299212598425197
        },
        {
          "duration": 0.24590150000000222,
          "durationTicks": 300,
          "midi": 35,
          "name": "B1",
          "ticks": 65850,
          "time": 53.975379249999996,
          "velocity": 0.6299212598425197
        },
        {
          "duration": 0.12295075000000111,
          "durationTicks": 150,
          "midi": 35,
          "name": "B1",
          "ticks": 66150,
          "time": 54.22128075,
          "velocity": 0.3858267716535433
        },
        {
          "duration": 0.12295075000000111,
          "durationTicks": 150,
          "midi": 35,
          "name": "B1",
          "ticks": 66300,
          "time": 54.3442315,
          "velocity": 0.6377952755905512
        },
        {
          "duration": 0.12295075000000111,
          "durationTicks": 150,
          "midi": 35,
          "name": "B1",
          "ticks": 66450,
          "time": 54.46718225,
          "velocity": 0.3858267716535433
        },
        {
          "duration": 0.122950749999994,
          "durationTicks": 150,
          "midi": 35,
          "name": "B1",
          "ticks": 66600,
          "time": 54.590133,
          "velocity": 0.6377952755905512
        },
        {
          "duration": 0.12295075000000111,
          "durationTicks": 150,
          "midi": 35,
          "name": "B1",
          "ticks": 66750,
          "time": 54.713083749999996,
          "velocity": 0.3858267716535433
        },
        {
          "duration": 0.12295075000000111,
          "durationTicks": 150,
          "midi": 35,
          "name": "B1",
          "ticks": 66900,
          "time": 54.8360345,
          "velocity": 0.6377952755905512
        },
        {
          "duration": 0.12295075000000111,
          "durationTicks": 150,
          "midi": 35,
          "name": "B1",
          "ticks": 67050,
          "time": 54.95898525,
          "velocity": 0.3937007874015748
        },
        {
          "duration": 0.12295075000000111,
          "durationTicks": 150,
          "midi": 36,
          "name": "C2",
          "ticks": 67200,
          "time": 55.081936,
          "velocity": 0.6299212598425197
        },
        {
          "duration": 0.12295075000000111,
          "durationTicks": 150,
          "midi": 36,
          "name": "C2",
          "ticks": 67350,
          "time": 55.20488675,
          "velocity": 0.3858267716535433
        },
        {
          "duration": 0.12295075000000111,
          "durationTicks": 150,
          "midi": 36,
          "name": "C2",
          "ticks": 67500,
          "time": 55.3278375,
          "velocity": 0.6299212598425197
        },
        {
          "duration": 0.122950749999994,
          "durationTicks": 150,
          "midi": 36,
          "name": "C2",
          "ticks": 67650,
          "time": 55.45078825,
          "velocity": 0.3858267716535433
        },
        {
          "duration": 0.12295075000000111,
          "durationTicks": 150,
          "midi": 36,
          "name": "C2",
          "ticks": 67800,
          "time": 55.573738999999996,
          "velocity": 0.6299212598425197
        },
        {
          "duration": 0.12295075000000111,
          "durationTicks": 150,
          "midi": 36,
          "name": "C2",
          "ticks": 67950,
          "time": 55.69668975,
          "velocity": 0.3858267716535433
        },
        {
          "duration": 0.12295075000000111,
          "durationTicks": 150,
          "midi": 36,
          "name": "C2",
          "ticks": 68100,
          "time": 55.8196405,
          "velocity": 0.6299212598425197
        },
        {
          "duration": 0.24590150000000222,
          "durationTicks": 300,
          "midi": 36,
          "name": "C2",
          "ticks": 68250,
          "time": 55.94259125,
          "velocity": 0.6299212598425197
        },
        {
          "duration": 0.122950749999994,
          "durationTicks": 150,
          "midi": 36,
          "name": "C2",
          "ticks": 68550,
          "time": 56.18849275,
          "velocity": 0.3858267716535433
        },
        {
          "duration": 0.12295075000000111,
          "durationTicks": 150,
          "midi": 36,
          "name": "C2",
          "ticks": 68700,
          "time": 56.311443499999996,
          "velocity": 0.6377952755905512
        },
        {
          "duration": 0.12295075000000111,
          "durationTicks": 150,
          "midi": 36,
          "name": "C2",
          "ticks": 68850,
          "time": 56.43439425,
          "velocity": 0.3858267716535433
        },
        {
          "duration": 0.12295075000000111,
          "durationTicks": 150,
          "midi": 36,
          "name": "C2",
          "ticks": 69000,
          "time": 56.557345,
          "velocity": 0.6377952755905512
        },
        {
          "duration": 0.12295075000000111,
          "durationTicks": 150,
          "midi": 36,
          "name": "C2",
          "ticks": 69150,
          "time": 56.68029575,
          "velocity": 0.3858267716535433
        },
        {
          "duration": 0.12295075000000111,
          "durationTicks": 150,
          "midi": 36,
          "name": "C2",
          "ticks": 69300,
          "time": 56.8032465,
          "velocity": 0.6377952755905512
        },
        {
          "duration": 0.12295075000000111,
          "durationTicks": 150,
          "midi": 36,
          "name": "C2",
          "ticks": 69450,
          "time": 56.92619725,
          "velocity": 0.3937007874015748
        },
        {
          "duration": 0.122950749999994,
          "durationTicks": 150,
          "midi": 36,
          "name": "C2",
          "ticks": 69600,
          "time": 57.049148,
          "velocity": 0.6299212598425197
        },
        {
          "duration": 0.12295075000000111,
          "durationTicks": 150,
          "midi": 36,
          "name": "C2",
          "ticks": 69750,
          "time": 57.172098749999996,
          "velocity": 0.3858267716535433
        },
        {
          "duration": 0.12295075000000111,
          "durationTicks": 150,
          "midi": 36,
          "name": "C2",
          "ticks": 69900,
          "time": 57.2950495,
          "velocity": 0.6299212598425197
        },
        {
          "duration": 0.12295075000000111,
          "durationTicks": 150,
          "midi": 36,
          "name": "C2",
          "ticks": 70050,
          "time": 57.41800025,
          "velocity": 0.3858267716535433
        },
        {
          "duration": 0.12295075000000111,
          "durationTicks": 150,
          "midi": 36,
          "name": "C2",
          "ticks": 70200,
          "time": 57.540951,
          "velocity": 0.6299212598425197
        },
        {
          "duration": 0.12295075000000111,
          "durationTicks": 150,
          "midi": 36,
          "name": "C2",
          "ticks": 70350,
          "time": 57.66390175,
          "velocity": 0.3858267716535433
        },
        {
          "duration": 0.122950749999994,
          "durationTicks": 150,
          "midi": 36,
          "name": "C2",
          "ticks": 70500,
          "time": 57.7868525,
          "velocity": 0.6299212598425197
        },
        {
          "duration": 0.24590150000000222,
          "durationTicks": 300,
          "midi": 36,
          "name": "C2",
          "ticks": 70650,
          "time": 57.909803249999996,
          "velocity": 0.6299212598425197
        },
        {
          "duration": 0.12295075000000111,
          "durationTicks": 150,
          "midi": 36,
          "name": "C2",
          "ticks": 70950,
          "time": 58.15570475,
          "velocity": 0.3858267716535433
        },
        {
          "duration": 0.12295075000000111,
          "durationTicks": 150,
          "midi": 36,
          "name": "C2",
          "ticks": 71100,
          "time": 58.2786555,
          "velocity": 0.6377952755905512
        },
        {
          "duration": 0.12295075000000111,
          "durationTicks": 150,
          "midi": 36,
          "name": "C2",
          "ticks": 71250,
          "time": 58.40160625,
          "velocity": 0.3858267716535433
        },
        {
          "duration": 0.122950749999994,
          "durationTicks": 150,
          "midi": 36,
          "name": "C2",
          "ticks": 71400,
          "time": 58.524557,
          "velocity": 0.6377952755905512
        },
        {
          "duration": 0.12295075000000111,
          "durationTicks": 150,
          "midi": 36,
          "name": "C2",
          "ticks": 71550,
          "time": 58.647507749999995,
          "velocity": 0.3858267716535433
        },
        {
          "duration": 0.12295075000000111,
          "durationTicks": 150,
          "midi": 36,
          "name": "C2",
          "ticks": 71700,
          "time": 58.7704585,
          "velocity": 0.6377952755905512
        },
        {
          "duration": 0.12295075000000111,
          "durationTicks": 150,
          "midi": 36,
          "name": "C2",
          "ticks": 71850,
          "time": 58.89340925,
          "velocity": 0.3937007874015748
        },
        {
          "duration": 0.12295075000000111,
          "durationTicks": 150,
          "midi": 32,
          "name": "G#1",
          "ticks": 72000,
          "time": 59.01636,
          "velocity": 0.6299212598425197
        },
        {
          "duration": 0.12295075000000111,
          "durationTicks": 150,
          "midi": 32,
          "name": "G#1",
          "ticks": 72150,
          "time": 59.13931075,
          "velocity": 0.3858267716535433
        },
        {
          "duration": 0.12295075000000111,
          "durationTicks": 150,
          "midi": 32,
          "name": "G#1",
          "ticks": 72300,
          "time": 59.2622615,
          "velocity": 0.6299212598425197
        },
        {
          "duration": 0.122950749999994,
          "durationTicks": 150,
          "midi": 32,
          "name": "G#1",
          "ticks": 72450,
          "time": 59.38521225,
          "velocity": 0.3858267716535433
        },
        {
          "duration": 0.12295075000000111,
          "durationTicks": 150,
          "midi": 32,
          "name": "G#1",
          "ticks": 72600,
          "time": 59.508162999999996,
          "velocity": 0.6299212598425197
        },
        {
          "duration": 0.12295075000000111,
          "durationTicks": 150,
          "midi": 32,
          "name": "G#1",
          "ticks": 72750,
          "time": 59.63111375,
          "velocity": 0.3858267716535433
        },
        {
          "duration": 0.12295075000000111,
          "durationTicks": 150,
          "midi": 32,
          "name": "G#1",
          "ticks": 72900,
          "time": 59.7540645,
          "velocity": 0.6299212598425197
        },
        {
          "duration": 0.24590150000000222,
          "durationTicks": 300,
          "midi": 32,
          "name": "G#1",
          "ticks": 73050,
          "time": 59.87701525,
          "velocity": 0.6299212598425197
        },
        {
          "duration": 0.122950749999994,
          "durationTicks": 150,
          "midi": 32,
          "name": "G#1",
          "ticks": 73350,
          "time": 60.12291675,
          "velocity": 0.3858267716535433
        },
        {
          "duration": 0.12295075000000111,
          "durationTicks": 150,
          "midi": 32,
          "name": "G#1",
          "ticks": 73500,
          "time": 60.245867499999996,
          "velocity": 0.6377952755905512
        },
        {
          "duration": 0.12295075000000111,
          "durationTicks": 150,
          "midi": 32,
          "name": "G#1",
          "ticks": 73650,
          "time": 60.36881825,
          "velocity": 0.3858267716535433
        },
        {
          "duration": 0.12295075000000111,
          "durationTicks": 150,
          "midi": 32,
          "name": "G#1",
          "ticks": 73800,
          "time": 60.491769,
          "velocity": 0.6377952755905512
        },
        {
          "duration": 0.12295075000000111,
          "durationTicks": 150,
          "midi": 32,
          "name": "G#1",
          "ticks": 73950,
          "time": 60.61471975,
          "velocity": 0.3858267716535433
        },
        {
          "duration": 0.12295075000000111,
          "durationTicks": 150,
          "midi": 32,
          "name": "G#1",
          "ticks": 74100,
          "time": 60.7376705,
          "velocity": 0.6377952755905512
        },
        {
          "duration": 0.122950749999994,
          "durationTicks": 150,
          "midi": 32,
          "name": "G#1",
          "ticks": 74250,
          "time": 60.86062125,
          "velocity": 0.3937007874015748
        },
        {
          "duration": 0.12295075000000111,
          "durationTicks": 150,
          "midi": 34,
          "name": "A#1",
          "ticks": 74400,
          "time": 60.983571999999995,
          "velocity": 0.6299212598425197
        },
        {
          "duration": 0.12295075000000111,
          "durationTicks": 150,
          "midi": 34,
          "name": "A#1",
          "ticks": 74550,
          "time": 61.106522749999996,
          "velocity": 0.3858267716535433
        },
        {
          "duration": 0.12295075000000111,
          "durationTicks": 150,
          "midi": 34,
          "name": "A#1",
          "ticks": 74700,
          "time": 61.2294735,
          "velocity": 0.6299212598425197
        },
        {
          "duration": 0.12295075000000111,
          "durationTicks": 150,
          "midi": 34,
          "name": "A#1",
          "ticks": 74850,
          "time": 61.35242425,
          "velocity": 0.3858267716535433
        },
        {
          "duration": 0.12295075000000111,
          "durationTicks": 150,
          "midi": 34,
          "name": "A#1",
          "ticks": 75000,
          "time": 61.475375,
          "velocity": 0.6299212598425197
        },
        {
          "duration": 0.12295075000000111,
          "durationTicks": 150,
          "midi": 34,
          "name": "A#1",
          "ticks": 75150,
          "time": 61.59832575,
          "velocity": 0.3858267716535433
        },
        {
          "duration": 0.122950749999994,
          "durationTicks": 150,
          "midi": 34,
          "name": "A#1",
          "ticks": 75300,
          "time": 61.7212765,
          "velocity": 0.6299212598425197
        },
        {
          "duration": 0.24590150000000222,
          "durationTicks": 300,
          "midi": 35,
          "name": "B1",
          "ticks": 75450,
          "time": 61.844227249999996,
          "velocity": 0.6299212598425197
        },
        {
          "duration": 0.12295075000000111,
          "durationTicks": 150,
          "midi": 35,
          "name": "B1",
          "ticks": 75750,
          "time": 62.09012875,
          "velocity": 0.3858267716535433
        },
        {
          "duration": 0.12295075000000111,
          "durationTicks": 150,
          "midi": 35,
          "name": "B1",
          "ticks": 75900,
          "time": 62.2130795,
          "velocity": 0.6377952755905512
        },
        {
          "duration": 0.12295075000000111,
          "durationTicks": 150,
          "midi": 35,
          "name": "B1",
          "ticks": 76050,
          "time": 62.33603025,
          "velocity": 0.3858267716535433
        },
        {
          "duration": 0.122950749999994,
          "durationTicks": 150,
          "midi": 35,
          "name": "B1",
          "ticks": 76200,
          "time": 62.458981,
          "velocity": 0.6377952755905512
        },
        {
          "duration": 0.12295075000000111,
          "durationTicks": 150,
          "midi": 35,
          "name": "B1",
          "ticks": 76350,
          "time": 62.581931749999995,
          "velocity": 0.3858267716535433
        },
        {
          "duration": 0.12295075000000111,
          "durationTicks": 150,
          "midi": 35,
          "name": "B1",
          "ticks": 76500,
          "time": 62.7048825,
          "velocity": 0.6377952755905512
        },
        {
          "duration": 0.12295075000000111,
          "durationTicks": 150,
          "midi": 35,
          "name": "B1",
          "ticks": 76650,
          "time": 62.82783325,
          "velocity": 0.3937007874015748
        },
        {
          "duration": 0.12295075000000111,
          "durationTicks": 150,
          "midi": 36,
          "name": "C2",
          "ticks": 76800,
          "time": 62.950784,
          "velocity": 1
        },
        {
          "duration": 0.12295075000000111,
          "durationTicks": 150,
          "midi": 36,
          "name": "C2",
          "ticks": 76950,
          "time": 63.07373475,
          "velocity": 0.6141732283464567
        },
        {
          "duration": 0.12295075000000111,
          "durationTicks": 150,
          "midi": 36,
          "name": "C2",
          "ticks": 77100,
          "time": 63.1966855,
          "velocity": 1
        },
        {
          "duration": 0.122950749999994,
          "durationTicks": 150,
          "midi": 36,
          "name": "C2",
          "ticks": 77250,
          "time": 63.31963625,
          "velocity": 0.6141732283464567
        },
        {
          "duration": 0.12295075000000111,
          "durationTicks": 150,
          "midi": 36,
          "name": "C2",
          "ticks": 77400,
          "time": 63.442586999999996,
          "velocity": 1
        },
        {
          "duration": 0.12295075000000111,
          "durationTicks": 150,
          "midi": 36,
          "name": "C2",
          "ticks": 77550,
          "time": 63.56553775,
          "velocity": 0.6141732283464567
        },
        {
          "duration": 0.12295075000000111,
          "durationTicks": 150,
          "midi": 36,
          "name": "C2",
          "ticks": 77700,
          "time": 63.6884885,
          "velocity": 1
        },
        {
          "duration": 0.2459014999999951,
          "durationTicks": 300,
          "midi": 36,
          "name": "C2",
          "ticks": 77850,
          "time": 63.81143925,
          "velocity": 1
        },
        {
          "duration": 0.12295075000000111,
          "durationTicks": 150,
          "midi": 36,
          "name": "C2",
          "ticks": 78150,
          "time": 64.05734075,
          "velocity": 0.6141732283464567
        },
        {
          "duration": 0.12295075000000111,
          "durationTicks": 150,
          "midi": 36,
          "name": "C2",
          "ticks": 78300,
          "time": 64.1802915,
          "velocity": 1
        },
        {
          "duration": 0.12295075000000111,
          "durationTicks": 150,
          "midi": 36,
          "name": "C2",
          "ticks": 78450,
          "time": 64.30324225,
          "velocity": 0.6141732283464567
        },
        {
          "duration": 0.12295075000000111,
          "durationTicks": 150,
          "midi": 36,
          "name": "C2",
          "ticks": 78600,
          "time": 64.426193,
          "velocity": 1
        },
        {
          "duration": 0.12295075000000111,
          "durationTicks": 150,
          "midi": 36,
          "name": "C2",
          "ticks": 78750,
          "time": 64.54914375,
          "velocity": 0.6141732283464567
        },
        {
          "duration": 0.12295075000000111,
          "durationTicks": 150,
          "midi": 36,
          "name": "C2",
          "ticks": 78900,
          "time": 64.6720945,
          "velocity": 1
        },
        {
          "duration": 0.12295075000000111,
          "durationTicks": 150,
          "midi": 36,
          "name": "C2",
          "ticks": 79050,
          "time": 64.79504525,
          "velocity": 0.6141732283464567
        },
        {
          "duration": 0.12295075000000111,
          "durationTicks": 150,
          "midi": 36,
          "name": "C2",
          "ticks": 79200,
          "time": 64.917996,
          "velocity": 1
        },
        {
          "duration": 0.12295075000000111,
          "durationTicks": 150,
          "midi": 36,
          "name": "C2",
          "ticks": 79350,
          "time": 65.04094675,
          "velocity": 0.6141732283464567
        },
        {
          "duration": 0.12295075000000111,
          "durationTicks": 150,
          "midi": 36,
          "name": "C2",
          "ticks": 79500,
          "time": 65.1638975,
          "velocity": 1
        },
        {
          "duration": 0.1229507499999869,
          "durationTicks": 150,
          "midi": 36,
          "name": "C2",
          "ticks": 79650,
          "time": 65.28684825,
          "velocity": 0.6141732283464567
        },
        {
          "duration": 0.12295075000000111,
          "durationTicks": 150,
          "midi": 36,
          "name": "C2",
          "ticks": 79800,
          "time": 65.40979899999999,
          "velocity": 1
        },
        {
          "duration": 0.12295075000000111,
          "durationTicks": 150,
          "midi": 36,
          "name": "C2",
          "ticks": 79950,
          "time": 65.53274975,
          "velocity": 0.6141732283464567
        },
        {
          "duration": 0.12295075000000111,
          "durationTicks": 150,
          "midi": 36,
          "name": "C2",
          "ticks": 80100,
          "time": 65.6557005,
          "velocity": 1
        },
        {
          "duration": 0.24590150000000222,
          "durationTicks": 300,
          "midi": 36,
          "name": "C2",
          "ticks": 80250,
          "time": 65.77865125,
          "velocity": 1
        },
        {
          "duration": 0.12295075000000111,
          "durationTicks": 150,
          "midi": 36,
          "name": "C2",
          "ticks": 80550,
          "time": 66.02455275,
          "velocity": 0.6141732283464567
        },
        {
          "duration": 0.12295075000000111,
          "durationTicks": 150,
          "midi": 36,
          "name": "C2",
          "ticks": 80700,
          "time": 66.1475035,
          "velocity": 1
        },
        {
          "duration": 0.12295075000000111,
          "durationTicks": 150,
          "midi": 36,
          "name": "C2",
          "ticks": 80850,
          "time": 66.27045425,
          "velocity": 0.6141732283464567
        },
        {
          "duration": 0.12295075000000111,
          "durationTicks": 150,
          "midi": 36,
          "name": "C2",
          "ticks": 81000,
          "time": 66.393405,
          "velocity": 1
        },
        {
          "duration": 0.12295075000000111,
          "durationTicks": 150,
          "midi": 36,
          "name": "C2",
          "ticks": 81150,
          "time": 66.51635575,
          "velocity": 0.6141732283464567
        },
        {
          "duration": 0.12295075000000111,
          "durationTicks": 150,
          "midi": 36,
          "name": "C2",
          "ticks": 81300,
          "time": 66.6393065,
          "velocity": 1
        },
        {
          "duration": 0.12295075000000111,
          "durationTicks": 150,
          "midi": 36,
          "name": "C2",
          "ticks": 81450,
          "time": 66.76225725,
          "velocity": 0.6141732283464567
        },
        {
          "duration": 0.1229507499999869,
          "durationTicks": 150,
          "midi": 39,
          "name": "D#2",
          "ticks": 81600,
          "time": 66.885208,
          "velocity": 1
        },
        {
          "duration": 0.12295075000000111,
          "durationTicks": 150,
          "midi": 39,
          "name": "D#2",
          "ticks": 81750,
          "time": 67.00815874999999,
          "velocity": 0.6141732283464567
        },
        {
          "duration": 0.12295075000000111,
          "durationTicks": 150,
          "midi": 39,
          "name": "D#2",
          "ticks": 81900,
          "time": 67.1311095,
          "velocity": 1
        },
        {
          "duration": 0.12295075000000111,
          "durationTicks": 150,
          "midi": 39,
          "name": "D#2",
          "ticks": 82050,
          "time": 67.25406025,
          "velocity": 0.6141732283464567
        },
        {
          "duration": 0.12295075000000111,
          "durationTicks": 150,
          "midi": 39,
          "name": "D#2",
          "ticks": 82200,
          "time": 67.377011,
          "velocity": 1
        },
        {
          "duration": 0.12295075000000111,
          "durationTicks": 150,
          "midi": 39,
          "name": "D#2",
          "ticks": 82350,
          "time": 67.49996175,
          "velocity": 0.6141732283464567
        },
        {
          "duration": 0.12295075000000111,
          "durationTicks": 150,
          "midi": 39,
          "name": "D#2",
          "ticks": 82500,
          "time": 67.6229125,
          "velocity": 1
        },
        {
          "duration": 0.24590150000000222,
          "durationTicks": 300,
          "midi": 39,
          "name": "D#2",
          "ticks": 82650,
          "time": 67.74586325,
          "velocity": 1
        },
        {
          "duration": 0.12295075000000111,
          "durationTicks": 150,
          "midi": 39,
          "name": "D#2",
          "ticks": 82950,
          "time": 67.99176475,
          "velocity": 0.6141732283464567
        },
        {
          "duration": 0.12295075000000111,
          "durationTicks": 150,
          "midi": 39,
          "name": "D#2",
          "ticks": 83100,
          "time": 68.1147155,
          "velocity": 1
        },
        {
          "duration": 0.12295075000000111,
          "durationTicks": 150,
          "midi": 39,
          "name": "D#2",
          "ticks": 83250,
          "time": 68.23766625,
          "velocity": 0.6141732283464567
        },
        {
          "duration": 0.1229507499999869,
          "durationTicks": 150,
          "midi": 39,
          "name": "D#2",
          "ticks": 83400,
          "time": 68.360617,
          "velocity": 1
        },
        {
          "duration": 0.12295075000000111,
          "durationTicks": 150,
          "midi": 39,
          "name": "D#2",
          "ticks": 83550,
          "time": 68.48356774999999,
          "velocity": 0.6141732283464567
        },
        {
          "duration": 0.12295075000000111,
          "durationTicks": 150,
          "midi": 39,
          "name": "D#2",
          "ticks": 83700,
          "time": 68.60651849999999,
          "velocity": 1
        },
        {
          "duration": 0.12295075000000111,
          "durationTicks": 150,
          "midi": 39,
          "name": "D#2",
          "ticks": 83850,
          "time": 68.72946925,
          "velocity": 0.6141732283464567
        },
        {
          "duration": 0.12295075000000111,
          "durationTicks": 150,
          "midi": 41,
          "name": "F2",
          "ticks": 84000,
          "time": 68.85242,
          "velocity": 1
        },
        {
          "duration": 0.12295075000000111,
          "durationTicks": 150,
          "midi": 41,
          "name": "F2",
          "ticks": 84150,
          "time": 68.97537075,
          "velocity": 0.6141732283464567
        },
        {
          "duration": 0.12295075000000111,
          "durationTicks": 150,
          "midi": 41,
          "name": "F2",
          "ticks": 84300,
          "time": 69.0983215,
          "velocity": 1
        },
        {
          "duration": 0.12295075000000111,
          "durationTicks": 150,
          "midi": 41,
          "name": "F2",
          "ticks": 84450,
          "time": 69.22127225,
          "velocity": 0.6141732283464567
        },
        {
          "duration": 0.12295075000000111,
          "durationTicks": 150,
          "midi": 41,
          "name": "F2",
          "ticks": 84600,
          "time": 69.344223,
          "velocity": 1
        },
        {
          "duration": 0.12295075000000111,
          "durationTicks": 150,
          "midi": 41,
          "name": "F2",
          "ticks": 84750,
          "time": 69.46717375,
          "velocity": 0.6141732283464567
        },
        {
          "duration": 0.12295075000000111,
          "durationTicks": 150,
          "midi": 41,
          "name": "F2",
          "ticks": 84900,
          "time": 69.5901245,
          "velocity": 1
        },
        {
          "duration": 0.12295075000000111,
          "durationTicks": 150,
          "midi": 41,
          "name": "F2",
          "ticks": 85050,
          "time": 69.71307525,
          "velocity": 1
        },
        {
          "duration": 0.12295075000000111,
          "durationTicks": 150,
          "midi": 43,
          "name": "G2",
          "ticks": 85200,
          "time": 69.836026,
          "velocity": 1
        },
        {
          "duration": 0.1229507499999869,
          "durationTicks": 150,
          "midi": 43,
          "name": "G2",
          "ticks": 85350,
          "time": 69.95897675,
          "velocity": 0.6141732283464567
        },
        {
          "duration": 0.12295075000000111,
          "durationTicks": 150,
          "midi": 43,
          "name": "G2",
          "ticks": 85500,
          "time": 70.08192749999999,
          "velocity": 1
        },
        {
          "duration": 0.12295075000000111,
          "durationTicks": 150,
          "midi": 43,
          "name": "G2",
          "ticks": 85650,
          "time": 70.20487825,
          "velocity": 0.6141732283464567
        },
        {
          "duration": 0.12295075000000111,
          "durationTicks": 150,
          "midi": 43,
          "name": "G2",
          "ticks": 85800,
          "time": 70.327829,
          "velocity": 1
        },
        {
          "duration": 0.12295075000000111,
          "durationTicks": 150,
          "midi": 43,
          "name": "G2",
          "ticks": 85950,
          "time": 70.45077975,
          "velocity": 0.6141732283464567
        },
        {
          "duration": 0.12295075000000111,
          "durationTicks": 150,
          "midi": 43,
          "name": "G2",
          "ticks": 86100,
          "time": 70.5737305,
          "velocity": 1
        },
        {
          "duration": 0.12295075000000111,
          "durationTicks": 150,
          "midi": 43,
          "name": "G2",
          "ticks": 86250,
          "time": 70.69668125,
          "velocity": 0.6141732283464567
        },
        {
          "duration": 0.12295075000000111,
          "durationTicks": 150,
          "midi": 36,
          "name": "C2",
          "ticks": 86400,
          "time": 70.819632,
          "velocity": 1
        },
        {
          "duration": 0.12295075000000111,
          "durationTicks": 150,
          "midi": 36,
          "name": "C2",
          "ticks": 86550,
          "time": 70.94258275,
          "velocity": 0.6141732283464567
        },
        {
          "duration": 0.12295075000000111,
          "durationTicks": 150,
          "midi": 36,
          "name": "C2",
          "ticks": 86700,
          "time": 71.0655335,
          "velocity": 1
        },
        {
          "duration": 0.12295075000000111,
          "durationTicks": 150,
          "midi": 36,
          "name": "C2",
          "ticks": 86850,
          "time": 71.18848425,
          "velocity": 0.6141732283464567
        },
        {
          "duration": 0.12295075000000111,
          "durationTicks": 150,
          "midi": 36,
          "name": "C2",
          "ticks": 87000,
          "time": 71.311435,
          "velocity": 1
        },
        {
          "duration": 0.12295075000000111,
          "durationTicks": 150,
          "midi": 36,
          "name": "C2",
          "ticks": 87150,
          "time": 71.43438575,
          "velocity": 0.6141732283464567
        },
        {
          "duration": 0.1229507499999869,
          "durationTicks": 150,
          "midi": 36,
          "name": "C2",
          "ticks": 87300,
          "time": 71.5573365,
          "velocity": 1
        },
        {
          "duration": 0.24590150000000222,
          "durationTicks": 300,
          "midi": 36,
          "name": "C2",
          "ticks": 87450,
          "time": 71.68028724999999,
          "velocity": 1
        },
        {
          "duration": 0.12295075000000111,
          "durationTicks": 150,
          "midi": 36,
          "name": "C2",
          "ticks": 87750,
          "time": 71.92618875,
          "velocity": 0.6141732283464567
        },
        {
          "duration": 0.12295075000000111,
          "durationTicks": 150,
          "midi": 36,
          "name": "C2",
          "ticks": 87900,
          "time": 72.0491395,
          "velocity": 1
        },
        {
          "duration": 0.12295075000000111,
          "durationTicks": 150,
          "midi": 36,
          "name": "C2",
          "ticks": 88050,
          "time": 72.17209025,
          "velocity": 0.6141732283464567
        },
        {
          "duration": 0.12295075000000111,
          "durationTicks": 150,
          "midi": 36,
          "name": "C2",
          "ticks": 88200,
          "time": 72.295041,
          "velocity": 1
        },
        {
          "duration": 0.12295075000000111,
          "durationTicks": 150,
          "midi": 36,
          "name": "C2",
          "ticks": 88350,
          "time": 72.41799175,
          "velocity": 0.6141732283464567
        },
        {
          "duration": 0.12295075000000111,
          "durationTicks": 150,
          "midi": 36,
          "name": "C2",
          "ticks": 88500,
          "time": 72.5409425,
          "velocity": 1
        },
        {
          "duration": 0.12295075000000111,
          "durationTicks": 150,
          "midi": 36,
          "name": "C2",
          "ticks": 88650,
          "time": 72.66389325,
          "velocity": 0.6141732283464567
        },
        {
          "duration": 0.12295075000000111,
          "durationTicks": 150,
          "midi": 36,
          "name": "C2",
          "ticks": 88800,
          "time": 72.786844,
          "velocity": 1
        },
        {
          "duration": 0.12295075000000111,
          "durationTicks": 150,
          "midi": 36,
          "name": "C2",
          "ticks": 88950,
          "time": 72.90979475,
          "velocity": 0.6141732283464567
        },
        {
          "duration": 0.12295075000000111,
          "durationTicks": 150,
          "midi": 36,
          "name": "C2",
          "ticks": 89100,
          "time": 73.0327455,
          "velocity": 1
        },
        {
          "duration": 0.1229507499999869,
          "durationTicks": 150,
          "midi": 36,
          "name": "C2",
          "ticks": 89250,
          "time": 73.15569625,
          "velocity": 0.6141732283464567
        },
        {
          "duration": 0.12295075000000111,
          "durationTicks": 150,
          "midi": 36,
          "name": "C2",
          "ticks": 89400,
          "time": 73.27864699999999,
          "velocity": 1
        },
        {
          "duration": 0.12295075000000111,
          "durationTicks": 150,
          "midi": 36,
          "name": "C2",
          "ticks": 89550,
          "time": 73.40159775,
          "velocity": 0.6141732283464567
        },
        {
          "duration": 0.12295075000000111,
          "durationTicks": 150,
          "midi": 36,
          "name": "C2",
          "ticks": 89700,
          "time": 73.5245485,
          "velocity": 1
        },
        {
          "duration": 0.24590150000000222,
          "durationTicks": 300,
          "midi": 36,
          "name": "C2",
          "ticks": 89850,
          "time": 73.64749925,
          "velocity": 1
        },
        {
          "duration": 0.12295075000000111,
          "durationTicks": 150,
          "midi": 36,
          "name": "C2",
          "ticks": 90150,
          "time": 73.89340075,
          "velocity": 0.6141732283464567
        },
        {
          "duration": 0.12295075000000111,
          "durationTicks": 150,
          "midi": 36,
          "name": "C2",
          "ticks": 90300,
          "time": 74.0163515,
          "velocity": 1
        },
        {
          "duration": 0.12295075000000111,
          "durationTicks": 150,
          "midi": 36,
          "name": "C2",
          "ticks": 90450,
          "time": 74.13930225,
          "velocity": 0.6141732283464567
        },
        {
          "duration": 0.12295075000000111,
          "durationTicks": 150,
          "midi": 36,
          "name": "C2",
          "ticks": 90600,
          "time": 74.262253,
          "velocity": 1
        },
        {
          "duration": 0.12295075000000111,
          "durationTicks": 150,
          "midi": 36,
          "name": "C2",
          "ticks": 90750,
          "time": 74.38520375,
          "velocity": 0.6141732283464567
        },
        {
          "duration": 0.12295075000000111,
          "durationTicks": 150,
          "midi": 36,
          "name": "C2",
          "ticks": 90900,
          "time": 74.5081545,
          "velocity": 1
        },
        {
          "duration": 0.1229507499999869,
          "durationTicks": 150,
          "midi": 36,
          "name": "C2",
          "ticks": 91050,
          "time": 74.63110525,
          "velocity": 0.6141732283464567
        },
        {
          "duration": 0.12295075000000111,
          "durationTicks": 150,
          "midi": 39,
          "name": "D#2",
          "ticks": 91200,
          "time": 74.75405599999999,
          "velocity": 1
        },
        {
          "duration": 0.12295075000000111,
          "durationTicks": 150,
          "midi": 39,
          "name": "D#2",
          "ticks": 91350,
          "time": 74.87700674999999,
          "velocity": 0.6141732283464567
        },
        {
          "duration": 0.12295075000000111,
          "durationTicks": 150,
          "midi": 39,
          "name": "D#2",
          "ticks": 91500,
          "time": 74.9999575,
          "velocity": 1
        },
        {
          "duration": 0.12295075000000111,
          "durationTicks": 150,
          "midi": 39,
          "name": "D#2",
          "ticks": 91650,
          "time": 75.12290825,
          "velocity": 0.6141732283464567
        },
        {
          "duration": 0.12295075000000111,
          "durationTicks": 150,
          "midi": 39,
          "name": "D#2",
          "ticks": 91800,
          "time": 75.245859,
          "velocity": 1
        },
        {
          "duration": 0.12295075000000111,
          "durationTicks": 150,
          "midi": 39,
          "name": "D#2",
          "ticks": 91950,
          "time": 75.36880975,
          "velocity": 0.6141732283464567
        },
        {
          "duration": 0.12295075000000111,
          "durationTicks": 150,
          "midi": 39,
          "name": "D#2",
          "ticks": 92100,
          "time": 75.4917605,
          "velocity": 1
        },
        {
          "duration": 0.24590150000000222,
          "durationTicks": 300,
          "midi": 39,
          "name": "D#2",
          "ticks": 92250,
          "time": 75.61471125,
          "velocity": 1
        },
        {
          "duration": 0.12295075000000111,
          "durationTicks": 150,
          "midi": 39,
          "name": "D#2",
          "ticks": 92550,
          "time": 75.86061275,
          "velocity": 0.6141732283464567
        },
        {
          "duration": 0.12295075000000111,
          "durationTicks": 150,
          "midi": 39,
          "name": "D#2",
          "ticks": 92700,
          "time": 75.9835635,
          "velocity": 1
        },
        {
          "duration": 0.12295075000000111,
          "durationTicks": 150,
          "midi": 39,
          "name": "D#2",
          "ticks": 92850,
          "time": 76.10651425,
          "velocity": 0.6141732283464567
        },
        {
          "duration": 0.1229507499999869,
          "durationTicks": 150,
          "midi": 39,
          "name": "D#2",
          "ticks": 93000,
          "time": 76.229465,
          "velocity": 1
        },
        {
          "duration": 0.12295075000000111,
          "durationTicks": 150,
          "midi": 39,
          "name": "D#2",
          "ticks": 93150,
          "time": 76.35241574999999,
          "velocity": 0.6141732283464567
        },
        {
          "duration": 0.12295075000000111,
          "durationTicks": 150,
          "midi": 39,
          "name": "D#2",
          "ticks": 93300,
          "time": 76.47536649999999,
          "velocity": 1
        },
        {
          "duration": 0.12295075000000111,
          "durationTicks": 150,
          "midi": 39,
          "name": "D#2",
          "ticks": 93450,
          "time": 76.59831725,
          "velocity": 0.6141732283464567
        },
        {
          "duration": 0.12295075000000111,
          "durationTicks": 150,
          "midi": 41,
          "name": "F2",
          "ticks": 93600,
          "time": 76.721268,
          "velocity": 1
        },
        {
          "duration": 0.12295075000000111,
          "durationTicks": 150,
          "midi": 41,
          "name": "F2",
          "ticks": 93750,
          "time": 76.84421875,
          "velocity": 0.6141732283464567
        },
        {
          "duration": 0.12295075000000111,
          "durationTicks": 150,
          "midi": 41,
          "name": "F2",
          "ticks": 93900,
          "time": 76.9671695,
          "velocity": 1
        },
        {
          "duration": 0.12295075000000111,
          "durationTicks": 150,
          "midi": 41,
          "name": "F2",
          "ticks": 94050,
          "time": 77.09012025,
          "velocity": 0.6141732283464567
        },
        {
          "duration": 0.12295075000000111,
          "durationTicks": 150,
          "midi": 41,
          "name": "F2",
          "ticks": 94200,
          "time": 77.213071,
          "velocity": 1
        },
        {
          "duration": 0.12295075000000111,
          "durationTicks": 150,
          "midi": 41,
          "name": "F2",
          "ticks": 94350,
          "time": 77.33602175,
          "velocity": 0.6141732283464567
        },
        {
          "duration": 0.12295075000000111,
          "durationTicks": 150,
          "midi": 41,
          "name": "F2",
          "ticks": 94500,
          "time": 77.4589725,
          "velocity": 1
        },
        {
          "duration": 0.12295075000000111,
          "durationTicks": 150,
          "midi": 41,
          "name": "F2",
          "ticks": 94650,
          "time": 77.58192325,
          "velocity": 1
        },
        {
          "duration": 0.12295075000000111,
          "durationTicks": 150,
          "midi": 32,
          "name": "G#1",
          "ticks": 96000,
          "time": 78.68848,
          "velocity": 1
        },
        {
          "duration": 0.12295075000000111,
          "durationTicks": 150,
          "midi": 32,
          "name": "G#1",
          "ticks": 96150,
          "time": 78.81143075,
          "velocity": 0.6141732283464567
        },
        {
          "duration": 0.12295075000000111,
          "durationTicks": 150,
          "midi": 32,
          "name": "G#1",
          "ticks": 96300,
          "time": 78.9343815,
          "velocity": 1
        },
        {
          "duration": 0.12295075000000111,
          "durationTicks": 150,
          "midi": 32,
          "name": "G#1",
          "ticks": 96450,
          "time": 79.05733225,
          "velocity": 0.6141732283464567
        },
        {
          "duration": 0.12295075000000111,
          "durationTicks": 150,
          "midi": 32,
          "name": "G#1",
          "ticks": 96600,
          "time": 79.180283,
          "velocity": 1
        },
        {
          "duration": 0.12295075000000111,
          "durationTicks": 150,
          "midi": 32,
          "name": "G#1",
          "ticks": 96750,
          "time": 79.30323375,
          "velocity": 0.6141732283464567
        },
        {
          "duration": 0.1229507499999869,
          "durationTicks": 150,
          "midi": 32,
          "name": "G#1",
          "ticks": 96900,
          "time": 79.4261845,
          "velocity": 1
        },
        {
          "duration": 0.24590150000000222,
          "durationTicks": 300,
          "midi": 32,
          "name": "G#1",
          "ticks": 97050,
          "time": 79.54913524999999,
          "velocity": 1
        },
        {
          "duration": 0.12295075000000111,
          "durationTicks": 150,
          "midi": 32,
          "name": "G#1",
          "ticks": 97350,
          "time": 79.79503675,
          "velocity": 0.6141732283464567
        },
        {
          "duration": 0.12295075000000111,
          "durationTicks": 150,
          "midi": 32,
          "name": "G#1",
          "ticks": 97500,
          "time": 79.9179875,
          "velocity": 1
        },
        {
          "duration": 0.12295075000000111,
          "durationTicks": 150,
          "midi": 32,
          "name": "G#1",
          "ticks": 97650,
          "time": 80.04093825,
          "velocity": 0.6141732283464567
        },
        {
          "duration": 0.12295075000000111,
          "durationTicks": 150,
          "midi": 32,
          "name": "G#1",
          "ticks": 97800,
          "time": 80.163889,
          "velocity": 1
        },
        {
          "duration": 0.12295075000000111,
          "durationTicks": 150,
          "midi": 32,
          "name": "G#1",
          "ticks": 97950,
          "time": 80.28683975,
          "velocity": 0.6141732283464567
        },
        {
          "duration": 0.12295075000000111,
          "durationTicks": 150,
          "midi": 32,
          "name": "G#1",
          "ticks": 98100,
          "time": 80.4097905,
          "velocity": 1
        },
        {
          "duration": 0.12295075000000111,
          "durationTicks": 150,
          "midi": 32,
          "name": "G#1",
          "ticks": 98250,
          "time": 80.53274125,
          "velocity": 0.6141732283464567
        },
        {
          "duration": 0.12295075000000111,
          "durationTicks": 150,
          "midi": 34,
          "name": "A#1",
          "ticks": 98400,
          "time": 80.655692,
          "velocity": 1
        },
        {
          "duration": 0.12295075000000111,
          "durationTicks": 150,
          "midi": 34,
          "name": "A#1",
          "ticks": 98550,
          "time": 80.77864275,
          "velocity": 0.6141732283464567
        },
        {
          "duration": 0.12295075000000111,
          "durationTicks": 150,
          "midi": 34,
          "name": "A#1",
          "ticks": 98700,
          "time": 80.9015935,
          "velocity": 1
        },
        {
          "duration": 0.1229507499999869,
          "durationTicks": 150,
          "midi": 34,
          "name": "A#1",
          "ticks": 98850,
          "time": 81.02454425,
          "velocity": 0.6141732283464567
        },
        {
          "duration": 0.12295075000000111,
          "durationTicks": 150,
          "midi": 34,
          "name": "A#1",
          "ticks": 99000,
          "time": 81.14749499999999,
          "velocity": 1
        },
        {
          "duration": 0.12295075000000111,
          "durationTicks": 150,
          "midi": 34,
          "name": "A#1",
          "ticks": 99150,
          "time": 81.27044575,
          "velocity": 0.6141732283464567
        },
        {
          "duration": 0.12295075000000111,
          "durationTicks": 150,
          "midi": 34,
          "name": "A#1",
          "ticks": 99300,
          "time": 81.3933965,
          "velocity": 1
        },
        {
          "duration": 0.24590150000000222,
          "durationTicks": 300,
          "midi": 34,
          "name": "A#1",
          "ticks": 99450,
          "time": 81.51634725,
          "velocity": 1
        },
        {
          "duration": 0.12295075000000111,
          "durationTicks": 150,
          "midi": 34,
          "name": "A#1",
          "ticks": 99750,
          "time": 81.76224875,
          "velocity": 0.6141732283464567
        },
        {
          "duration": 0.12295075000000111,
          "durationTicks": 150,
          "midi": 34,
          "name": "A#1",
          "ticks": 99900,
          "time": 81.8851995,
          "velocity": 1
        },
        {
          "duration": 0.12295075000000111,
          "durationTicks": 150,
          "midi": 34,
          "name": "A#1",
          "ticks": 100050,
          "time": 82.00815025,
          "velocity": 0.6141732283464567
        },
        {
          "duration": 0.12295075000000111,
          "durationTicks": 150,
          "midi": 34,
          "name": "A#1",
          "ticks": 100200,
          "time": 82.131101,
          "velocity": 1
        },
        {
          "duration": 0.12295075000000111,
          "durationTicks": 150,
          "midi": 34,
          "name": "A#1",
          "ticks": 100350,
          "time": 82.25405175,
          "velocity": 0.6141732283464567
        },
        {
          "duration": 0.12295075000000111,
          "durationTicks": 150,
          "midi": 34,
          "name": "A#1",
          "ticks": 100500,
          "time": 82.3770025,
          "velocity": 1
        },
        {
          "duration": 0.12295075000000111,
          "durationTicks": 150,
          "midi": 34,
          "name": "A#1",
          "ticks": 100650,
          "time": 82.49995325,
          "velocity": 0.6141732283464567
        },
        {
          "duration": 0.1229507499999869,
          "durationTicks": 150,
          "midi": 31,
          "name": "G1",
          "ticks": 100800,
          "time": 82.622904,
          "velocity": 1
        },
        {
          "duration": 0.12295075000000111,
          "durationTicks": 150,
          "midi": 31,
          "name": "G1",
          "ticks": 100950,
          "time": 82.74585474999999,
          "velocity": 0.6141732283464567
        },
        {
          "duration": 0.12295075000000111,
          "durationTicks": 150,
          "midi": 31,
          "name": "G1",
          "ticks": 101100,
          "time": 82.8688055,
          "velocity": 1
        },
        {
          "duration": 0.12295075000000111,
          "durationTicks": 150,
          "midi": 31,
          "name": "G1",
          "ticks": 101250,
          "time": 82.99175625,
          "velocity": 0.6141732283464567
        },
        {
          "duration": 0.12295075000000111,
          "durationTicks": 150,
          "midi": 31,
          "name": "G1",
          "ticks": 101400,
          "time": 83.114707,
          "velocity": 1
        },
        {
          "duration": 0.12295075000000111,
          "durationTicks": 150,
          "midi": 31,
          "name": "G1",
          "ticks": 101550,
          "time": 83.23765775,
          "velocity": 0.6141732283464567
        },
        {
          "duration": 0.12295075000000111,
          "durationTicks": 150,
          "midi": 31,
          "name": "G1",
          "ticks": 101700,
          "time": 83.3606085,
          "velocity": 1
        },
        {
          "duration": 0.24590150000000222,
          "durationTicks": 300,
          "midi": 31,
          "name": "G1",
          "ticks": 101850,
          "time": 83.48355925,
          "velocity": 1
        },
        {
          "duration": 0.12295075000000111,
          "durationTicks": 150,
          "midi": 31,
          "name": "G1",
          "ticks": 102150,
          "time": 83.72946075,
          "velocity": 0.6141732283464567
        },
        {
          "duration": 0.12295075000000111,
          "durationTicks": 150,
          "midi": 31,
          "name": "G1",
          "ticks": 102300,
          "time": 83.8524115,
          "velocity": 1
        },
        {
          "duration": 0.12295075000000111,
          "durationTicks": 150,
          "midi": 31,
          "name": "G1",
          "ticks": 102450,
          "time": 83.97536225,
          "velocity": 0.6141732283464567
        },
        {
          "duration": 0.1229507499999869,
          "durationTicks": 150,
          "midi": 31,
          "name": "G1",
          "ticks": 102600,
          "time": 84.098313,
          "velocity": 1
        },
        {
          "duration": 0.12295075000000111,
          "durationTicks": 150,
          "midi": 31,
          "name": "G1",
          "ticks": 102750,
          "time": 84.22126374999999,
          "velocity": 0.6141732283464567
        },
        {
          "duration": 0.12295075000000111,
          "durationTicks": 150,
          "midi": 31,
          "name": "G1",
          "ticks": 102900,
          "time": 84.34421449999999,
          "velocity": 1
        },
        {
          "duration": 0.12295075000000111,
          "durationTicks": 150,
          "midi": 31,
          "name": "G1",
          "ticks": 103050,
          "time": 84.46716525,
          "velocity": 0.6141732283464567
        },
        {
          "duration": 0.12295075000000111,
          "durationTicks": 150,
          "midi": 36,
          "name": "C2",
          "ticks": 103200,
          "time": 84.590116,
          "velocity": 1
        },
        {
          "duration": 0.12295075000000111,
          "durationTicks": 150,
          "midi": 36,
          "name": "C2",
          "ticks": 103350,
          "time": 84.71306675,
          "velocity": 0.6141732283464567
        },
        {
          "duration": 0.12295075000000111,
          "durationTicks": 150,
          "midi": 36,
          "name": "C2",
          "ticks": 103500,
          "time": 84.8360175,
          "velocity": 1
        },
        {
          "duration": 0.12295075000000111,
          "durationTicks": 150,
          "midi": 36,
          "name": "C2",
          "ticks": 103650,
          "time": 84.95896825,
          "velocity": 0.6141732283464567
        },
        {
          "duration": 0.12295075000000111,
          "durationTicks": 150,
          "midi": 36,
          "name": "C2",
          "ticks": 103800,
          "time": 85.081919,
          "velocity": 1
        },
        {
          "duration": 0.12295075000000111,
          "durationTicks": 150,
          "midi": 36,
          "name": "C2",
          "ticks": 103950,
          "time": 85.20486975,
          "velocity": 0.6141732283464567
        },
        {
          "duration": 0.12295075000000111,
          "durationTicks": 150,
          "midi": 36,
          "name": "C2",
          "ticks": 104100,
          "time": 85.3278205,
          "velocity": 1
        },
        {
          "duration": 0.24590150000000222,
          "durationTicks": 300,
          "midi": 39,
          "name": "D#2",
          "ticks": 104250,
          "time": 85.45077125,
          "velocity": 1
        },
        {
          "duration": 0.1229507499999869,
          "durationTicks": 150,
          "midi": 39,
          "name": "D#2",
          "ticks": 104550,
          "time": 85.69667275,
          "velocity": 0.6141732283464567
        },
        {
          "duration": 0.12295075000000111,
          "durationTicks": 150,
          "midi": 39,
          "name": "D#2",
          "ticks": 104700,
          "time": 85.81962349999999,
          "velocity": 1
        },
        {
          "duration": 0.12295075000000111,
          "durationTicks": 150,
          "midi": 39,
          "name": "D#2",
          "ticks": 104850,
          "time": 85.94257424999999,
          "velocity": 0.6141732283464567
        },
        {
          "duration": 0.12295075000000111,
          "durationTicks": 150,
          "midi": 39,
          "name": "D#2",
          "ticks": 105000,
          "time": 86.065525,
          "velocity": 1
        },
        {
          "duration": 0.12295075000000111,
          "durationTicks": 150,
          "midi": 39,
          "name": "D#2",
          "ticks": 105150,
          "time": 86.18847575,
          "velocity": 0.6141732283464567
        },
        {
          "duration": 0.12295075000000111,
          "durationTicks": 150,
          "midi": 39,
          "name": "D#2",
          "ticks": 105300,
          "time": 86.3114265,
          "velocity": 1
        },
        {
          "duration": 0.12295075000000111,
          "durationTicks": 150,
          "midi": 39,
          "name": "D#2",
          "ticks": 105450,
          "time": 86.43437725,
          "velocity": 0.6141732283464567
        },
        {
          "duration": 0.12295075000000111,
          "durationTicks": 150,
          "midi": 32,
          "name": "G#1",
          "ticks": 105600,
          "time": 86.557328,
          "velocity": 1
        },
        {
          "duration": 0.12295075000000111,
          "durationTicks": 150,
          "midi": 32,
          "name": "G#1",
          "ticks": 105750,
          "time": 86.68027875,
          "velocity": 0.6141732283464567
        },
        {
          "duration": 0.12295075000000111,
          "durationTicks": 150,
          "midi": 32,
          "name": "G#1",
          "ticks": 105900,
          "time": 86.8032295,
          "velocity": 1
        },
        {
          "duration": 0.12295075000000111,
          "durationTicks": 150,
          "midi": 32,
          "name": "G#1",
          "ticks": 106050,
          "time": 86.92618025,
          "velocity": 0.6141732283464567
        },
        {
          "duration": 0.12295075000000111,
          "durationTicks": 150,
          "midi": 32,
          "name": "G#1",
          "ticks": 106200,
          "time": 87.049131,
          "velocity": 1
        },
        {
          "duration": 0.12295075000000111,
          "durationTicks": 150,
          "midi": 32,
          "name": "G#1",
          "ticks": 106350,
          "time": 87.17208175,
          "velocity": 0.6141732283464567
        },
        {
          "duration": 0.1229507499999869,
          "durationTicks": 150,
          "midi": 32,
          "name": "G#1",
          "ticks": 106500,
          "time": 87.2950325,
          "velocity": 1
        },
        {
          "duration": 0.24590150000000222,
          "durationTicks": 300,
          "midi": 32,
          "name": "G#1",
          "ticks": 106650,
          "time": 87.41798324999999,
          "velocity": 1
        },
        {
          "duration": 0.12295075000000111,
          "durationTicks": 150,
          "midi": 32,
          "name": "G#1",
          "ticks": 106950,
          "time": 87.66388475,
          "velocity": 0.6141732283464567
        },
        {
          "duration": 0.12295075000000111,
          "durationTicks": 150,
          "midi": 32,
          "name": "G#1",
          "ticks": 107100,
          "time": 87.7868355,
          "velocity": 1
        },
        {
          "duration": 0.12295075000000111,
          "durationTicks": 150,
          "midi": 32,
          "name": "G#1",
          "ticks": 107250,
          "time": 87.90978625,
          "velocity": 0.6141732283464567
        },
        {
          "duration": 0.12295075000000111,
          "durationTicks": 150,
          "midi": 32,
          "name": "G#1",
          "ticks": 107400,
          "time": 88.032737,
          "velocity": 1
        },
        {
          "duration": 0.12295075000000111,
          "durationTicks": 150,
          "midi": 32,
          "name": "G#1",
          "ticks": 107550,
          "time": 88.15568775,
          "velocity": 0.6141732283464567
        },
        {
          "duration": 0.12295075000000111,
          "durationTicks": 150,
          "midi": 32,
          "name": "G#1",
          "ticks": 107700,
          "time": 88.2786385,
          "velocity": 1
        },
        {
          "duration": 0.12295075000000111,
          "durationTicks": 150,
          "midi": 32,
          "name": "G#1",
          "ticks": 107850,
          "time": 88.40158925,
          "velocity": 0.6141732283464567
        },
        {
          "duration": 0.12295075000000111,
          "durationTicks": 150,
          "midi": 34,
          "name": "A#1",
          "ticks": 108000,
          "time": 88.52454,
          "velocity": 1
        },
        {
          "duration": 0.12295075000000111,
          "durationTicks": 150,
          "midi": 34,
          "name": "A#1",
          "ticks": 108150,
          "time": 88.64749075,
          "velocity": 0.6141732283464567
        },
        {
          "duration": 0.12295075000000111,
          "durationTicks": 150,
          "midi": 34,
          "name": "A#1",
          "ticks": 108300,
          "time": 88.7704415,
          "velocity": 1
        },
        {
          "duration": 0.1229507499999869,
          "durationTicks": 150,
          "midi": 34,
          "name": "A#1",
          "ticks": 108450,
          "time": 88.89339225,
          "velocity": 0.6141732283464567
        },
        {
          "duration": 0.12295075000000111,
          "durationTicks": 150,
          "midi": 34,
          "name": "A#1",
          "ticks": 108600,
          "time": 89.01634299999999,
          "velocity": 1
        },
        {
          "duration": 0.12295075000000111,
          "durationTicks": 150,
          "midi": 34,
          "name": "A#1",
          "ticks": 108750,
          "time": 89.13929375,
          "velocity": 0.6141732283464567
        },
        {
          "duration": 0.12295075000000111,
          "durationTicks": 150,
          "midi": 34,
          "name": "A#1",
          "ticks": 108900,
          "time": 89.2622445,
          "velocity": 1
        },
        {
          "duration": 0.24590150000000222,
          "durationTicks": 300,
          "midi": 34,
          "name": "A#1",
          "ticks": 109050,
          "time": 89.38519525,
          "velocity": 1
        },
        {
          "duration": 0.12295075000000111,
          "durationTicks": 150,
          "midi": 34,
          "name": "A#1",
          "ticks": 109350,
          "time": 89.63109675,
          "velocity": 0.6141732283464567
        },
        {
          "duration": 0.12295075000000111,
          "durationTicks": 150,
          "midi": 34,
          "name": "A#1",
          "ticks": 109500,
          "time": 89.7540475,
          "velocity": 1
        },
        {
          "duration": 0.12295075000000111,
          "durationTicks": 150,
          "midi": 34,
          "name": "A#1",
          "ticks": 109650,
          "time": 89.87699825,
          "velocity": 0.6141732283464567
        },
        {
          "duration": 0.12295075000000111,
          "durationTicks": 150,
          "midi": 34,
          "name": "A#1",
          "ticks": 109800,
          "time": 89.999949,
          "velocity": 1
        },
        {
          "duration": 0.12295075000000111,
          "durationTicks": 150,
          "midi": 34,
          "name": "A#1",
          "ticks": 109950,
          "time": 90.12289975,
          "velocity": 0.6141732283464567
        },
        {
          "duration": 0.12295075000000111,
          "durationTicks": 150,
          "midi": 34,
          "name": "A#1",
          "ticks": 110100,
          "time": 90.2458505,
          "velocity": 1
        },
        {
          "duration": 0.1229507499999869,
          "durationTicks": 150,
          "midi": 34,
          "name": "A#1",
          "ticks": 110250,
          "time": 90.36880125,
          "velocity": 0.6141732283464567
        },
        {
          "duration": 0.12295075000000111,
          "durationTicks": 150,
          "midi": 31,
          "name": "G1",
          "ticks": 110400,
          "time": 90.49175199999999,
          "velocity": 1
        },
        {
          "duration": 0.12295075000000111,
          "durationTicks": 150,
          "midi": 31,
          "name": "G1",
          "ticks": 110550,
          "time": 90.61470274999999,
          "velocity": 0.6141732283464567
        },
        {
          "duration": 0.12295075000000111,
          "durationTicks": 150,
          "midi": 31,
          "name": "G1",
          "ticks": 110700,
          "time": 90.7376535,
          "velocity": 1
        },
        {
          "duration": 0.12295075000000111,
          "durationTicks": 150,
          "midi": 31,
          "name": "G1",
          "ticks": 110850,
          "time": 90.86060425,
          "velocity": 0.6141732283464567
        },
        {
          "duration": 0.12295075000000111,
          "durationTicks": 150,
          "midi": 31,
          "name": "G1",
          "ticks": 111000,
          "time": 90.983555,
          "velocity": 1
        },
        {
          "duration": 0.12295075000000111,
          "durationTicks": 150,
          "midi": 31,
          "name": "G1",
          "ticks": 111150,
          "time": 91.10650575,
          "velocity": 0.6141732283464567
        },
        {
          "duration": 0.12295075000000111,
          "durationTicks": 150,
          "midi": 31,
          "name": "G1",
          "ticks": 111300,
          "time": 91.2294565,
          "velocity": 1
        },
        {
          "duration": 0.24590150000000222,
          "durationTicks": 300,
          "midi": 31,
          "name": "G1",
          "ticks": 111450,
          "time": 91.35240725,
          "velocity": 1
        },
        {
          "duration": 0.12295075000000111,
          "durationTicks": 150,
          "midi": 31,
          "name": "G1",
          "ticks": 111750,
          "time": 91.59830875,
          "velocity": 0.6141732283464567
        },
        {
          "duration": 0.12295075000000111,
          "durationTicks": 150,
          "midi": 31,
          "name": "G1",
          "ticks": 111900,
          "time": 91.7212595,
          "velocity": 1
        },
        {
          "duration": 0.12295075000000111,
          "durationTicks": 150,
          "midi": 31,
          "name": "G1",
          "ticks": 112050,
          "time": 91.84421025,
          "velocity": 0.6141732283464567
        },
        {
          "duration": 0.1229507499999869,
          "durationTicks": 150,
          "midi": 31,
          "name": "G1",
          "ticks": 112200,
          "time": 91.967161,
          "velocity": 1
        },
        {
          "duration": 0.12295075000000111,
          "durationTicks": 150,
          "midi": 31,
          "name": "G1",
          "ticks": 112350,
          "time": 92.09011174999999,
          "velocity": 0.6141732283464567
        },
        {
          "duration": 0.12295075000000111,
          "durationTicks": 150,
          "midi": 31,
          "name": "G1",
          "ticks": 112500,
          "time": 92.21306249999999,
          "velocity": 1
        },
        {
          "duration": 0.12295075000000111,
          "durationTicks": 150,
          "midi": 31,
          "name": "G1",
          "ticks": 112650,
          "time": 92.33601325,
          "velocity": 0.6141732283464567
        },
        {
          "duration": 0.12295075000000111,
          "durationTicks": 150,
          "midi": 36,
          "name": "C2",
          "ticks": 112800,
          "time": 92.458964,
          "velocity": 1
        },
        {
          "duration": 0.12295075000000111,
          "durationTicks": 150,
          "midi": 36,
          "name": "C2",
          "ticks": 112950,
          "time": 92.58191475,
          "velocity": 0.6141732283464567
        },
        {
          "duration": 0.12295075000000111,
          "durationTicks": 150,
          "midi": 36,
          "name": "C2",
          "ticks": 113100,
          "time": 92.7048655,
          "velocity": 1
        },
        {
          "duration": 0.12295075000000111,
          "durationTicks": 150,
          "midi": 36,
          "name": "C2",
          "ticks": 113250,
          "time": 92.82781625,
          "velocity": 0.6141732283464567
        },
        {
          "duration": 0.12295075000000111,
          "durationTicks": 150,
          "midi": 36,
          "name": "C2",
          "ticks": 113400,
          "time": 92.950767,
          "velocity": 1
        },
        {
          "duration": 0.12295075000000111,
          "durationTicks": 150,
          "midi": 36,
          "name": "C2",
          "ticks": 113550,
          "time": 93.07371775,
          "velocity": 0.6141732283464567
        },
        {
          "duration": 0.12295075000000111,
          "durationTicks": 150,
          "midi": 36,
          "name": "C2",
          "ticks": 113700,
          "time": 93.1966685,
          "velocity": 1
        },
        {
          "duration": 0.24590150000000222,
          "durationTicks": 300,
          "midi": 39,
          "name": "D#2",
          "ticks": 113850,
          "time": 93.31961925,
          "velocity": 1
        },
        {
          "duration": 0.1229507499999869,
          "durationTicks": 150,
          "midi": 39,
          "name": "D#2",
          "ticks": 114150,
          "time": 93.56552075,
          "velocity": 0.6141732283464567
        },
        {
          "duration": 0.12295075000000111,
          "durationTicks": 150,
          "midi": 39,
          "name": "D#2",
          "ticks": 114300,
          "time": 93.68847149999999,
          "velocity": 1
        },
        {
          "duration": 0.12295075000000111,
          "durationTicks": 150,
          "midi": 39,
          "name": "D#2",
          "ticks": 114450,
          "time": 93.81142224999999,
          "velocity": 0.6141732283464567
        },
        {
          "duration": 0.12295075000000111,
          "durationTicks": 150,
          "midi": 39,
          "name": "D#2",
          "ticks": 114600,
          "time": 93.934373,
          "velocity": 1
        },
        {
          "duration": 0.12295075000000111,
          "durationTicks": 150,
          "midi": 39,
          "name": "D#2",
          "ticks": 114750,
          "time": 94.05732375,
          "velocity": 0.6141732283464567
        },
        {
          "duration": 0.12295075000000111,
          "durationTicks": 150,
          "midi": 39,
          "name": "D#2",
          "ticks": 114900,
          "time": 94.1802745,
          "velocity": 1
        },
        {
          "duration": 0.12295075000000111,
          "durationTicks": 150,
          "midi": 39,
          "name": "D#2",
          "ticks": 115050,
          "time": 94.30322525,
          "velocity": 0.6141732283464567
        },
        {
          "duration": 0.12295075000000111,
          "durationTicks": 150,
          "midi": 32,
          "name": "G#1",
          "ticks": 115200,
          "time": 94.426176,
          "velocity": 1
        },
        {
          "duration": 0.12295075000000111,
          "durationTicks": 150,
          "midi": 32,
          "name": "G#1",
          "ticks": 115350,
          "time": 94.54912675,
          "velocity": 0.6141732283464567
        },
        {
          "duration": 0.12295075000000111,
          "durationTicks": 150,
          "midi": 32,
          "name": "G#1",
          "ticks": 115500,
          "time": 94.6720775,
          "velocity": 1
        },
        {
          "duration": 0.12295075000000111,
          "durationTicks": 150,
          "midi": 32,
          "name": "G#1",
          "ticks": 115650,
          "time": 94.79502825,
          "velocity": 0.6141732283464567
        },
        {
          "duration": 0.12295075000000111,
          "durationTicks": 150,
          "midi": 32,
          "name": "G#1",
          "ticks": 115800,
          "time": 94.917979,
          "velocity": 1
        },
        {
          "duration": 0.12295075000000111,
          "durationTicks": 150,
          "midi": 32,
          "name": "G#1",
          "ticks": 115950,
          "time": 95.04092975,
          "velocity": 0.6141732283464567
        },
        {
          "duration": 0.1229507499999869,
          "durationTicks": 150,
          "midi": 32,
          "name": "G#1",
          "ticks": 116100,
          "time": 95.1638805,
          "velocity": 1
        },
        {
          "duration": 0.24590150000000222,
          "durationTicks": 300,
          "midi": 32,
          "name": "G#1",
          "ticks": 116250,
          "time": 95.28683124999999,
          "velocity": 1
        },
        {
          "duration": 0.12295075000000111,
          "durationTicks": 150,
          "midi": 32,
          "name": "G#1",
          "ticks": 116550,
          "time": 95.53273275,
          "velocity": 0.6141732283464567
        },
        {
          "duration": 0.12295075000000111,
          "durationTicks": 150,
          "midi": 32,
          "name": "G#1",
          "ticks": 116700,
          "time": 95.6556835,
          "velocity": 1
        },
        {
          "duration": 0.12295075000000111,
          "durationTicks": 150,
          "midi": 32,
          "name": "G#1",
          "ticks": 116850,
          "time": 95.77863425,
          "velocity": 0.6141732283464567
        },
        {
          "duration": 0.12295075000000111,
          "durationTicks": 150,
          "midi": 32,
          "name": "G#1",
          "ticks": 117000,
          "time": 95.901585,
          "velocity": 1
        },
        {
          "duration": 0.12295075000000111,
          "durationTicks": 150,
          "midi": 32,
          "name": "G#1",
          "ticks": 117150,
          "time": 96.02453575,
          "velocity": 0.6141732283464567
        },
        {
          "duration": 0.12295075000000111,
          "durationTicks": 150,
          "midi": 32,
          "name": "G#1",
          "ticks": 117300,
          "time": 96.1474865,
          "velocity": 1
        },
        {
          "duration": 0.12295075000000111,
          "durationTicks": 150,
          "midi": 32,
          "name": "G#1",
          "ticks": 117450,
          "time": 96.27043725,
          "velocity": 0.6141732283464567
        },
        {
          "duration": 0.12295075000000111,
          "durationTicks": 150,
          "midi": 34,
          "name": "A#1",
          "ticks": 117600,
          "time": 96.393388,
          "velocity": 1
        },
        {
          "duration": 0.12295075000000111,
          "durationTicks": 150,
          "midi": 34,
          "name": "A#1",
          "ticks": 117750,
          "time": 96.51633875,
          "velocity": 0.6141732283464567
        },
        {
          "duration": 0.12295075000000111,
          "durationTicks": 150,
          "midi": 34,
          "name": "A#1",
          "ticks": 117900,
          "time": 96.6392895,
          "velocity": 1
        },
        {
          "duration": 0.1229507499999869,
          "durationTicks": 150,
          "midi": 34,
          "name": "A#1",
          "ticks": 118050,
          "time": 96.76224025,
          "velocity": 0.6141732283464567
        },
        {
          "duration": 0.12295075000000111,
          "durationTicks": 150,
          "midi": 34,
          "name": "A#1",
          "ticks": 118200,
          "time": 96.88519099999999,
          "velocity": 1
        },
        {
          "duration": 0.12295075000000111,
          "durationTicks": 150,
          "midi": 34,
          "name": "A#1",
          "ticks": 118350,
          "time": 97.00814175,
          "velocity": 0.6141732283464567
        },
        {
          "duration": 0.12295075000000111,
          "durationTicks": 150,
          "midi": 34,
          "name": "A#1",
          "ticks": 118500,
          "time": 97.1310925,
          "velocity": 1
        },
        {
          "duration": 0.24590150000000222,
          "durationTicks": 300,
          "midi": 34,
          "name": "A#1",
          "ticks": 118650,
          "time": 97.25404325,
          "velocity": 1
        },
        {
          "duration": 0.12295075000000111,
          "durationTicks": 150,
          "midi": 34,
          "name": "A#1",
          "ticks": 118950,
          "time": 97.49994475,
          "velocity": 0.6141732283464567
        },
        {
          "duration": 0.12295075000000111,
          "durationTicks": 150,
          "midi": 34,
          "name": "A#1",
          "ticks": 119100,
          "time": 97.6228955,
          "velocity": 1
        },
        {
          "duration": 0.12295075000000111,
          "durationTicks": 150,
          "midi": 34,
          "name": "A#1",
          "ticks": 119250,
          "time": 97.74584625,
          "velocity": 0.6141732283464567
        },
        {
          "duration": 0.12295075000000111,
          "durationTicks": 150,
          "midi": 34,
          "name": "A#1",
          "ticks": 119400,
          "time": 97.868797,
          "velocity": 1
        },
        {
          "duration": 0.12295075000000111,
          "durationTicks": 150,
          "midi": 34,
          "name": "A#1",
          "ticks": 119550,
          "time": 97.99174775,
          "velocity": 0.6141732283464567
        },
        {
          "duration": 0.12295075000000111,
          "durationTicks": 150,
          "midi": 34,
          "name": "A#1",
          "ticks": 119700,
          "time": 98.1146985,
          "velocity": 1
        },
        {
          "duration": 0.12295075000000111,
          "durationTicks": 150,
          "midi": 34,
          "name": "A#1",
          "ticks": 119850,
          "time": 98.23764925,
          "velocity": 0.6141732283464567
        },
        {
          "duration": 0.1229507499999869,
          "durationTicks": 150,
          "midi": 31,
          "name": "G1",
          "ticks": 120000,
          "time": 98.3606,
          "velocity": 1
        },
        {
          "duration": 0.12295075000000111,
          "durationTicks": 150,
          "midi": 31,
          "name": "G1",
          "ticks": 120150,
          "time": 98.48355074999999,
          "velocity": 0.6141732283464567
        },
        {
          "duration": 0.12295075000000111,
          "durationTicks": 150,
          "midi": 31,
          "name": "G1",
          "ticks": 120300,
          "time": 98.6065015,
          "velocity": 1
        },
        {
          "duration": 0.12295075000000111,
          "durationTicks": 150,
          "midi": 31,
          "name": "G1",
          "ticks": 120450,
          "time": 98.72945225,
          "velocity": 0.6141732283464567
        },
        {
          "duration": 0.12295075000000111,
          "durationTicks": 150,
          "midi": 31,
          "name": "G1",
          "ticks": 120600,
          "time": 98.852403,
          "velocity": 1
        },
        {
          "duration": 0.12295075000000111,
          "durationTicks": 150,
          "midi": 31,
          "name": "G1",
          "ticks": 120750,
          "time": 98.97535375,
          "velocity": 0.6141732283464567
        },
        {
          "duration": 0.12295075000000111,
          "durationTicks": 150,
          "midi": 31,
          "name": "G1",
          "ticks": 120900,
          "time": 99.0983045,
          "velocity": 1
        },
        {
          "duration": 0.24590150000000222,
          "durationTicks": 300,
          "midi": 31,
          "name": "G1",
          "ticks": 121050,
          "time": 99.22125525,
          "velocity": 1
        },
        {
          "duration": 0.12295075000000111,
          "durationTicks": 150,
          "midi": 31,
          "name": "G1",
          "ticks": 121350,
          "time": 99.46715675,
          "velocity": 0.6141732283464567
        },
        {
          "duration": 0.12295075000000111,
          "durationTicks": 150,
          "midi": 31,
          "name": "G1",
          "ticks": 121500,
          "time": 99.5901075,
          "velocity": 1
        },
        {
          "duration": 0.12295075000000111,
          "durationTicks": 150,
          "midi": 31,
          "name": "G1",
          "ticks": 121650,
          "time": 99.71305825,
          "velocity": 0.6141732283464567
        },
        {
          "duration": 0.1229507499999869,
          "durationTicks": 150,
          "midi": 31,
          "name": "G1",
          "ticks": 121800,
          "time": 99.836009,
          "velocity": 1
        },
        {
          "duration": 0.12295075000000111,
          "durationTicks": 150,
          "midi": 31,
          "name": "G1",
          "ticks": 121950,
          "time": 99.95895974999999,
          "velocity": 0.6141732283464567
        },
        {
          "duration": 0.12295075000000111,
          "durationTicks": 150,
          "midi": 31,
          "name": "G1",
          "ticks": 122100,
          "time": 100.08191049999999,
          "velocity": 1
        },
        {
          "duration": 0.12295075000000111,
          "durationTicks": 150,
          "midi": 31,
          "name": "G1",
          "ticks": 122250,
          "time": 100.20486125,
          "velocity": 0.6141732283464567
        },
        {
          "duration": 0.12295075000000111,
          "durationTicks": 150,
          "midi": 36,
          "name": "C2",
          "ticks": 122400,
          "time": 100.327812,
          "velocity": 1
        },
        {
          "duration": 0.12295075000000111,
          "durationTicks": 150,
          "midi": 36,
          "name": "C2",
          "ticks": 122550,
          "time": 100.45076275,
          "velocity": 0.6141732283464567
        },
        {
          "duration": 0.12295075000000111,
          "durationTicks": 150,
          "midi": 36,
          "name": "C2",
          "ticks": 122700,
          "time": 100.5737135,
          "velocity": 1
        },
        {
          "duration": 0.12295075000000111,
          "durationTicks": 150,
          "midi": 36,
          "name": "C2",
          "ticks": 122850,
          "time": 100.69666425,
          "velocity": 0.6141732283464567
        },
        {
          "duration": 0.12295075000000111,
          "durationTicks": 150,
          "midi": 36,
          "name": "C2",
          "ticks": 123000,
          "time": 100.819615,
          "velocity": 1
        },
        {
          "duration": 0.12295075000000111,
          "durationTicks": 150,
          "midi": 36,
          "name": "C2",
          "ticks": 123150,
          "time": 100.94256575,
          "velocity": 0.6141732283464567
        },
        {
          "duration": 0.12295075000000111,
          "durationTicks": 150,
          "midi": 36,
          "name": "C2",
          "ticks": 123300,
          "time": 101.0655165,
          "velocity": 1
        },
        {
          "duration": 0.24590150000000222,
          "durationTicks": 300,
          "midi": 39,
          "name": "D#2",
          "ticks": 123450,
          "time": 101.18846725,
          "velocity": 1
        },
        {
          "duration": 0.1229507499999869,
          "durationTicks": 150,
          "midi": 39,
          "name": "D#2",
          "ticks": 123750,
          "time": 101.43436875,
          "velocity": 0.6141732283464567
        },
        {
          "duration": 0.12295075000000111,
          "durationTicks": 150,
          "midi": 39,
          "name": "D#2",
          "ticks": 123900,
          "time": 101.55731949999999,
          "velocity": 1
        },
        {
          "duration": 0.12295075000000111,
          "durationTicks": 150,
          "midi": 39,
          "name": "D#2",
          "ticks": 124050,
          "time": 101.68027024999999,
          "velocity": 0.6141732283464567
        },
        {
          "duration": 0.12295075000000111,
          "durationTicks": 150,
          "midi": 39,
          "name": "D#2",
          "ticks": 124200,
          "time": 101.803221,
          "velocity": 1
        },
        {
          "duration": 0.12295075000000111,
          "durationTicks": 150,
          "midi": 39,
          "name": "D#2",
          "ticks": 124350,
          "time": 101.92617175,
          "velocity": 0.6141732283464567
        },
        {
          "duration": 0.12295075000000111,
          "durationTicks": 150,
          "midi": 39,
          "name": "D#2",
          "ticks": 124500,
          "time": 102.0491225,
          "velocity": 1
        },
        {
          "duration": 0.12295075000000111,
          "durationTicks": 150,
          "midi": 39,
          "name": "D#2",
          "ticks": 124650,
          "time": 102.17207325,
          "velocity": 0.6141732283464567
        },
        {
          "duration": 0.12295075000000111,
          "durationTicks": 150,
          "midi": 32,
          "name": "G#1",
          "ticks": 124800,
          "time": 102.295024,
          "velocity": 1
        },
        {
          "duration": 0.12295075000000111,
          "durationTicks": 150,
          "midi": 32,
          "name": "G#1",
          "ticks": 124950,
          "time": 102.41797475,
          "velocity": 0.6141732283464567
        },
        {
          "duration": 0.12295075000000111,
          "durationTicks": 150,
          "midi": 32,
          "name": "G#1",
          "ticks": 125100,
          "time": 102.5409255,
          "velocity": 1
        },
        {
          "duration": 0.12295075000000111,
          "durationTicks": 150,
          "midi": 32,
          "name": "G#1",
          "ticks": 125250,
          "time": 102.66387625,
          "velocity": 0.6141732283464567
        },
        {
          "duration": 0.12295075000000111,
          "durationTicks": 150,
          "midi": 32,
          "name": "G#1",
          "ticks": 125400,
          "time": 102.786827,
          "velocity": 1
        },
        {
          "duration": 0.12295075000000111,
          "durationTicks": 150,
          "midi": 32,
          "name": "G#1",
          "ticks": 125550,
          "time": 102.90977775,
          "velocity": 0.6141732283464567
        },
        {
          "duration": 0.1229507499999869,
          "durationTicks": 150,
          "midi": 32,
          "name": "G#1",
          "ticks": 125700,
          "time": 103.0327285,
          "velocity": 1
        },
        {
          "duration": 0.24590150000000222,
          "durationTicks": 300,
          "midi": 32,
          "name": "G#1",
          "ticks": 125850,
          "time": 103.15567924999999,
          "velocity": 1
        },
        {
          "duration": 0.12295075000000111,
          "durationTicks": 150,
          "midi": 32,
          "name": "G#1",
          "ticks": 126150,
          "time": 103.40158075,
          "velocity": 0.6141732283464567
        },
        {
          "duration": 0.12295075000000111,
          "durationTicks": 150,
          "midi": 32,
          "name": "G#1",
          "ticks": 126300,
          "time": 103.5245315,
          "velocity": 1
        },
        {
          "duration": 0.12295075000000111,
          "durationTicks": 150,
          "midi": 32,
          "name": "G#1",
          "ticks": 126450,
          "time": 103.64748225,
          "velocity": 0.6141732283464567
        },
        {
          "duration": 0.12295075000000111,
          "durationTicks": 150,
          "midi": 32,
          "name": "G#1",
          "ticks": 126600,
          "time": 103.770433,
          "velocity": 1
        },
        {
          "duration": 0.12295075000000111,
          "durationTicks": 150,
          "midi": 32,
          "name": "G#1",
          "ticks": 126750,
          "time": 103.89338375,
          "velocity": 0.6141732283464567
        },
        {
          "duration": 0.12295075000000111,
          "durationTicks": 150,
          "midi": 32,
          "name": "G#1",
          "ticks": 126900,
          "time": 104.0163345,
          "velocity": 1
        },
        {
          "duration": 0.12295075000000111,
          "durationTicks": 150,
          "midi": 32,
          "name": "G#1",
          "ticks": 127050,
          "time": 104.13928525,
          "velocity": 0.6141732283464567
        },
        {
          "duration": 0.12295075000000111,
          "durationTicks": 150,
          "midi": 34,
          "name": "A#1",
          "ticks": 127200,
          "time": 104.262236,
          "velocity": 1
        },
        {
          "duration": 0.12295075000000111,
          "durationTicks": 150,
          "midi": 34,
          "name": "A#1",
          "ticks": 127350,
          "time": 104.38518675,
          "velocity": 0.6141732283464567
        },
        {
          "duration": 0.12295075000000111,
          "durationTicks": 150,
          "midi": 34,
          "name": "A#1",
          "ticks": 127500,
          "time": 104.5081375,
          "velocity": 1
        },
        {
          "duration": 0.1229507499999869,
          "durationTicks": 150,
          "midi": 34,
          "name": "A#1",
          "ticks": 127650,
          "time": 104.63108825,
          "velocity": 0.6141732283464567
        },
        {
          "duration": 0.12295075000000111,
          "durationTicks": 150,
          "midi": 34,
          "name": "A#1",
          "ticks": 127800,
          "time": 104.75403899999999,
          "velocity": 1
        },
        {
          "duration": 0.12295075000000111,
          "durationTicks": 150,
          "midi": 34,
          "name": "A#1",
          "ticks": 127950,
          "time": 104.87698974999999,
          "velocity": 0.6141732283464567
        },
        {
          "duration": 0.12295075000000111,
          "durationTicks": 150,
          "midi": 34,
          "name": "A#1",
          "ticks": 128100,
          "time": 104.9999405,
          "velocity": 1
        },
        {
          "duration": 0.24590150000000222,
          "durationTicks": 300,
          "midi": 34,
          "name": "A#1",
          "ticks": 128250,
          "time": 105.12289125,
          "velocity": 1
        },
        {
          "duration": 0.12295075000000111,
          "durationTicks": 150,
          "midi": 34,
          "name": "A#1",
          "ticks": 128550,
          "time": 105.36879275,
          "velocity": 0.6141732283464567
        },
        {
          "duration": 0.12295075000000111,
          "durationTicks": 150,
          "midi": 34,
          "name": "A#1",
          "ticks": 128700,
          "time": 105.4917435,
          "velocity": 1
        },
        {
          "duration": 0.12295075000000111,
          "durationTicks": 150,
          "midi": 34,
          "name": "A#1",
          "ticks": 128850,
          "time": 105.61469425,
          "velocity": 0.6141732283464567
        },
        {
          "duration": 0.12295075000000111,
          "durationTicks": 150,
          "midi": 34,
          "name": "A#1",
          "ticks": 129000,
          "time": 105.737645,
          "velocity": 1
        },
        {
          "duration": 0.12295075000000111,
          "durationTicks": 150,
          "midi": 34,
          "name": "A#1",
          "ticks": 129150,
          "time": 105.86059575,
          "velocity": 0.6141732283464567
        },
        {
          "duration": 0.12295075000000111,
          "durationTicks": 150,
          "midi": 34,
          "name": "A#1",
          "ticks": 129300,
          "time": 105.9835465,
          "velocity": 1
        },
        {
          "duration": 0.1229507499999869,
          "durationTicks": 150,
          "midi": 34,
          "name": "A#1",
          "ticks": 129450,
          "time": 106.10649725,
          "velocity": 0.6141732283464567
        },
        {
          "duration": 0.12295075000000111,
          "durationTicks": 150,
          "midi": 31,
          "name": "G1",
          "ticks": 129600,
          "time": 106.22944799999999,
          "velocity": 1
        },
        {
          "duration": 0.12295075000000111,
          "durationTicks": 150,
          "midi": 31,
          "name": "G1",
          "ticks": 129750,
          "time": 106.35239874999999,
          "velocity": 0.6141732283464567
        },
        {
          "duration": 0.12295075000000111,
          "durationTicks": 150,
          "midi": 31,
          "name": "G1",
          "ticks": 129900,
          "time": 106.4753495,
          "velocity": 1
        },
        {
          "duration": 0.12295075000000111,
          "durationTicks": 150,
          "midi": 31,
          "name": "G1",
          "ticks": 130050,
          "time": 106.59830025,
          "velocity": 0.6141732283464567
        },
        {
          "duration": 0.12295075000000111,
          "durationTicks": 150,
          "midi": 31,
          "name": "G1",
          "ticks": 130200,
          "time": 106.721251,
          "velocity": 1
        },
        {
          "duration": 0.12295075000000111,
          "durationTicks": 150,
          "midi": 31,
          "name": "G1",
          "ticks": 130350,
          "time": 106.84420175,
          "velocity": 0.6141732283464567
        },
        {
          "duration": 0.12295075000000111,
          "durationTicks": 150,
          "midi": 31,
          "name": "G1",
          "ticks": 130500,
          "time": 106.9671525,
          "velocity": 1
        },
        {
          "duration": 0.24590150000000222,
          "durationTicks": 300,
          "midi": 31,
          "name": "G1",
          "ticks": 130650,
          "time": 107.09010325,
          "velocity": 1
        },
        {
          "duration": 0.12295075000000111,
          "durationTicks": 150,
          "midi": 31,
          "name": "G1",
          "ticks": 130950,
          "time": 107.33600475,
          "velocity": 0.6141732283464567
        },
        {
          "duration": 0.12295075000000111,
          "durationTicks": 150,
          "midi": 31,
          "name": "G1",
          "ticks": 131100,
          "time": 107.4589555,
          "velocity": 1
        },
        {
          "duration": 0.12295075000000111,
          "durationTicks": 150,
          "midi": 31,
          "name": "G1",
          "ticks": 131250,
          "time": 107.58190625,
          "velocity": 0.6141732283464567
        },
        {
          "duration": 0.1229507499999869,
          "durationTicks": 150,
          "midi": 31,
          "name": "G1",
          "ticks": 131400,
          "time": 107.704857,
          "velocity": 1
        },
        {
          "duration": 0.12295075000000111,
          "durationTicks": 150,
          "midi": 31,
          "name": "G1",
          "ticks": 131550,
          "time": 107.82780774999999,
          "velocity": 0.6141732283464567
        },
        {
          "duration": 0.12295075000000111,
          "durationTicks": 150,
          "midi": 31,
          "name": "G1",
          "ticks": 131700,
          "time": 107.95075849999999,
          "velocity": 1
        },
        {
          "duration": 0.12295075000000111,
          "durationTicks": 150,
          "midi": 31,
          "name": "G1",
          "ticks": 131850,
          "time": 108.07370925,
          "velocity": 0.6141732283464567
        },
        {
          "duration": 0.12295075000000111,
          "durationTicks": 150,
          "midi": 36,
          "name": "C2",
          "ticks": 132000,
          "time": 108.19666,
          "velocity": 1
        },
        {
          "duration": 0.12295075000000111,
          "durationTicks": 150,
          "midi": 36,
          "name": "C2",
          "ticks": 132150,
          "time": 108.31961075,
          "velocity": 0.6141732283464567
        },
        {
          "duration": 0.12295075000000111,
          "durationTicks": 150,
          "midi": 36,
          "name": "C2",
          "ticks": 132300,
          "time": 108.4425615,
          "velocity": 1
        },
        {
          "duration": 0.12295075000000111,
          "durationTicks": 150,
          "midi": 36,
          "name": "C2",
          "ticks": 132450,
          "time": 108.56551225,
          "velocity": 0.6141732283464567
        },
        {
          "duration": 0.12295075000000111,
          "durationTicks": 150,
          "midi": 36,
          "name": "C2",
          "ticks": 132600,
          "time": 108.688463,
          "velocity": 1
        },
        {
          "duration": 0.12295075000000111,
          "durationTicks": 150,
          "midi": 36,
          "name": "C2",
          "ticks": 132750,
          "time": 108.81141375,
          "velocity": 0.6141732283464567
        },
        {
          "duration": 0.12295075000000111,
          "durationTicks": 150,
          "midi": 36,
          "name": "C2",
          "ticks": 132900,
          "time": 108.9343645,
          "velocity": 1
        },
        {
          "duration": 0.12295075000000111,
          "durationTicks": 150,
          "midi": 39,
          "name": "D#2",
          "ticks": 133050,
          "time": 109.05731525,
          "velocity": 1
        },
        {
          "duration": 0.12295075000000111,
          "durationTicks": 150,
          "midi": 38,
          "name": "D2",
          "ticks": 134400,
          "time": 110.163872,
          "velocity": 0.6299212598425197
        },
        {
          "duration": 0.12295075000000111,
          "durationTicks": 150,
          "midi": 38,
          "name": "D2",
          "ticks": 134550,
          "time": 110.28682275,
          "velocity": 0.3858267716535433
        },
        {
          "duration": 0.12295075000000111,
          "durationTicks": 150,
          "midi": 38,
          "name": "D2",
          "ticks": 134700,
          "time": 110.4097735,
          "velocity": 0.6299212598425197
        },
        {
          "duration": 0.12295075000000111,
          "durationTicks": 150,
          "midi": 38,
          "name": "D2",
          "ticks": 134850,
          "time": 110.53272425,
          "velocity": 0.3858267716535433
        },
        {
          "duration": 0.12295075000000111,
          "durationTicks": 150,
          "midi": 38,
          "name": "D2",
          "ticks": 135000,
          "time": 110.655675,
          "velocity": 0.6299212598425197
        },
        {
          "duration": 0.12295075000000111,
          "durationTicks": 150,
          "midi": 38,
          "name": "D2",
          "ticks": 135150,
          "time": 110.77862575,
          "velocity": 0.3858267716535433
        },
        {
          "duration": 0.1229507499999869,
          "durationTicks": 150,
          "midi": 38,
          "name": "D2",
          "ticks": 135300,
          "time": 110.9015765,
          "velocity": 0.6299212598425197
        },
        {
          "duration": 0.24590150000000222,
          "durationTicks": 300,
          "midi": 38,
          "name": "D2",
          "ticks": 135450,
          "time": 111.02452724999999,
          "velocity": 0.6299212598425197
        },
        {
          "duration": 0.12295075000000111,
          "durationTicks": 150,
          "midi": 38,
          "name": "D2",
          "ticks": 135750,
          "time": 111.27042875,
          "velocity": 0.3858267716535433
        },
        {
          "duration": 0.12295075000000111,
          "durationTicks": 150,
          "midi": 38,
          "name": "D2",
          "ticks": 135900,
          "time": 111.3933795,
          "velocity": 0.6377952755905512
        },
        {
          "duration": 0.12295075000000111,
          "durationTicks": 150,
          "midi": 38,
          "name": "D2",
          "ticks": 136050,
          "time": 111.51633025,
          "velocity": 0.3858267716535433
        },
        {
          "duration": 0.12295075000000111,
          "durationTicks": 150,
          "midi": 38,
          "name": "D2",
          "ticks": 136200,
          "time": 111.639281,
          "velocity": 0.6377952755905512
        },
        {
          "duration": 0.12295075000000111,
          "durationTicks": 150,
          "midi": 38,
          "name": "D2",
          "ticks": 136350,
          "time": 111.76223175,
          "velocity": 0.3858267716535433
        },
        {
          "duration": 0.12295075000000111,
          "durationTicks": 150,
          "midi": 38,
          "name": "D2",
          "ticks": 136500,
          "time": 111.8851825,
          "velocity": 0.6377952755905512
        },
        {
          "duration": 0.12295075000000111,
          "durationTicks": 150,
          "midi": 38,
          "name": "D2",
          "ticks": 136650,
          "time": 112.00813325,
          "velocity": 0.3937007874015748
        },
        {
          "duration": 0.12295075000000111,
          "durationTicks": 150,
          "midi": 38,
          "name": "D2",
          "ticks": 136800,
          "time": 112.131084,
          "velocity": 0.6299212598425197
        },
        {
          "duration": 0.12295075000000111,
          "durationTicks": 150,
          "midi": 38,
          "name": "D2",
          "ticks": 136950,
          "time": 112.25403475,
          "velocity": 0.3858267716535433
        },
        {
          "duration": 0.12295075000000111,
          "durationTicks": 150,
          "midi": 38,
          "name": "D2",
          "ticks": 137100,
          "time": 112.3769855,
          "velocity": 0.6299212598425197
        },
        {
          "duration": 0.1229507499999869,
          "durationTicks": 150,
          "midi": 38,
          "name": "D2",
          "ticks": 137250,
          "time": 112.49993625,
          "velocity": 0.3858267716535433
        },
        {
          "duration": 0.12295075000000111,
          "durationTicks": 150,
          "midi": 38,
          "name": "D2",
          "ticks": 137400,
          "time": 112.62288699999999,
          "velocity": 0.6299212598425197
        },
        {
          "duration": 0.12295075000000111,
          "durationTicks": 150,
          "midi": 38,
          "name": "D2",
          "ticks": 137550,
          "time": 112.74583774999999,
          "velocity": 0.3858267716535433
        },
        {
          "duration": 0.12295075000000111,
          "durationTicks": 150,
          "midi": 38,
          "name": "D2",
          "ticks": 137700,
          "time": 112.8687885,
          "velocity": 0.6299212598425197
        },
        {
          "duration": 0.24590150000000222,
          "durationTicks": 300,
          "midi": 38,
          "name": "D2",
          "ticks": 137850,
          "time": 112.99173925,
          "velocity": 0.6299212598425197
        },
        {
          "duration": 0.12295075000000111,
          "durationTicks": 150,
          "midi": 38,
          "name": "D2",
          "ticks": 138150,
          "time": 113.23764075,
          "velocity": 0.3858267716535433
        },
        {
          "duration": 0.12295075000000111,
          "durationTicks": 150,
          "midi": 38,
          "name": "D2",
          "ticks": 138300,
          "time": 113.3605915,
          "velocity": 0.6377952755905512
        },
        {
          "duration": 0.12295075000000111,
          "durationTicks": 150,
          "midi": 38,
          "name": "D2",
          "ticks": 138450,
          "time": 113.48354225,
          "velocity": 0.3858267716535433
        },
        {
          "duration": 0.12295075000000111,
          "durationTicks": 150,
          "midi": 38,
          "name": "D2",
          "ticks": 138600,
          "time": 113.606493,
          "velocity": 0.6377952755905512
        },
        {
          "duration": 0.12295075000000111,
          "durationTicks": 150,
          "midi": 38,
          "name": "D2",
          "ticks": 138750,
          "time": 113.72944375,
          "velocity": 0.3858267716535433
        },
        {
          "duration": 0.12295075000000111,
          "durationTicks": 150,
          "midi": 38,
          "name": "D2",
          "ticks": 138900,
          "time": 113.8523945,
          "velocity": 0.6377952755905512
        },
        {
          "duration": 0.12295075000000111,
          "durationTicks": 150,
          "midi": 38,
          "name": "D2",
          "ticks": 139050,
          "time": 113.97534525,
          "velocity": 0.3937007874015748
        },
        {
          "duration": 0.1229507499999869,
          "durationTicks": 150,
          "midi": 34,
          "name": "A#1",
          "ticks": 139200,
          "time": 114.098296,
          "velocity": 0.6299212598425197
        },
        {
          "duration": 0.12295075000000111,
          "durationTicks": 150,
          "midi": 34,
          "name": "A#1",
          "ticks": 139350,
          "time": 114.22124674999999,
          "velocity": 0.3858267716535433
        },
        {
          "duration": 0.12295075000000111,
          "durationTicks": 150,
          "midi": 34,
          "name": "A#1",
          "ticks": 139500,
          "time": 114.34419749999999,
          "velocity": 0.6299212598425197
        },
        {
          "duration": 0.12295075000000111,
          "durationTicks": 150,
          "midi": 34,
          "name": "A#1",
          "ticks": 139650,
          "time": 114.46714825,
          "velocity": 0.3858267716535433
        },
        {
          "duration": 0.12295075000000111,
          "durationTicks": 150,
          "midi": 34,
          "name": "A#1",
          "ticks": 139800,
          "time": 114.590099,
          "velocity": 0.6299212598425197
        },
        {
          "duration": 0.12295075000000111,
          "durationTicks": 150,
          "midi": 34,
          "name": "A#1",
          "ticks": 139950,
          "time": 114.71304975,
          "velocity": 0.3858267716535433
        },
        {
          "duration": 0.12295075000000111,
          "durationTicks": 150,
          "midi": 34,
          "name": "A#1",
          "ticks": 140100,
          "time": 114.8360005,
          "velocity": 0.6299212598425197
        },
        {
          "duration": 0.24590150000000222,
          "durationTicks": 300,
          "midi": 34,
          "name": "A#1",
          "ticks": 140250,
          "time": 114.95895125,
          "velocity": 0.6299212598425197
        },
        {
          "duration": 0.12295075000000111,
          "durationTicks": 150,
          "midi": 34,
          "name": "A#1",
          "ticks": 140550,
          "time": 115.20485275,
          "velocity": 0.3858267716535433
        },
        {
          "duration": 0.12295075000000111,
          "durationTicks": 150,
          "midi": 34,
          "name": "A#1",
          "ticks": 140700,
          "time": 115.3278035,
          "velocity": 0.6377952755905512
        },
        {
          "duration": 0.12295075000000111,
          "durationTicks": 150,
          "midi": 34,
          "name": "A#1",
          "ticks": 140850,
          "time": 115.45075425,
          "velocity": 0.3858267716535433
        },
        {
          "duration": 0.1229507499999869,
          "durationTicks": 150,
          "midi": 34,
          "name": "A#1",
          "ticks": 141000,
          "time": 115.573705,
          "velocity": 0.6377952755905512
        },
        {
          "duration": 0.12295075000000111,
          "durationTicks": 150,
          "midi": 34,
          "name": "A#1",
          "ticks": 141150,
          "time": 115.69665574999999,
          "velocity": 0.3858267716535433
        },
        {
          "duration": 0.12295075000000111,
          "durationTicks": 150,
          "midi": 34,
          "name": "A#1",
          "ticks": 141300,
          "time": 115.81960649999999,
          "velocity": 0.6377952755905512
        },
        {
          "duration": 0.12295075000000111,
          "durationTicks": 150,
          "midi": 34,
          "name": "A#1",
          "ticks": 141450,
          "time": 115.94255725,
          "velocity": 0.3937007874015748
        },
        {
          "duration": 0.12295075000000111,
          "durationTicks": 150,
          "midi": 36,
          "name": "C2",
          "ticks": 141600,
          "time": 116.065508,
          "velocity": 0.6299212598425197
        },
        {
          "duration": 0.12295075000000111,
          "durationTicks": 150,
          "midi": 36,
          "name": "C2",
          "ticks": 141750,
          "time": 116.18845875,
          "velocity": 0.3858267716535433
        },
        {
          "duration": 0.12295075000000111,
          "durationTicks": 150,
          "midi": 36,
          "name": "C2",
          "ticks": 141900,
          "time": 116.3114095,
          "velocity": 0.6299212598425197
        },
        {
          "duration": 0.12295075000000111,
          "durationTicks": 150,
          "midi": 36,
          "name": "C2",
          "ticks": 142050,
          "time": 116.43436025,
          "velocity": 0.3858267716535433
        },
        {
          "duration": 0.12295075000000111,
          "durationTicks": 150,
          "midi": 36,
          "name": "C2",
          "ticks": 142200,
          "time": 116.557311,
          "velocity": 0.6299212598425197
        },
        {
          "duration": 0.12295075000000111,
          "durationTicks": 150,
          "midi": 36,
          "name": "C2",
          "ticks": 142350,
          "time": 116.68026175,
          "velocity": 0.3858267716535433
        },
        {
          "duration": 0.12295075000000111,
          "durationTicks": 150,
          "midi": 36,
          "name": "C2",
          "ticks": 142500,
          "time": 116.8032125,
          "velocity": 0.6299212598425197
        },
        {
          "duration": 0.24590150000000222,
          "durationTicks": 300,
          "midi": 37,
          "name": "C#2",
          "ticks": 142650,
          "time": 116.92616325,
          "velocity": 0.6299212598425197
        },
        {
          "duration": 0.1229507499999869,
          "durationTicks": 150,
          "midi": 37,
          "name": "C#2",
          "ticks": 142950,
          "time": 117.17206475,
          "velocity": 0.3858267716535433
        },
        {
          "duration": 0.12295075000000111,
          "durationTicks": 150,
          "midi": 37,
          "name": "C#2",
          "ticks": 143100,
          "time": 117.29501549999999,
          "velocity": 0.6377952755905512
        },
        {
          "duration": 0.12295075000000111,
          "durationTicks": 150,
          "midi": 37,
          "name": "C#2",
          "ticks": 143250,
          "time": 117.41796624999999,
          "velocity": 0.3858267716535433
        },
        {
          "duration": 0.12295075000000111,
          "durationTicks": 150,
          "midi": 37,
          "name": "C#2",
          "ticks": 143400,
          "time": 117.540917,
          "velocity": 0.6377952755905512
        },
        {
          "duration": 0.12295075000000111,
          "durationTicks": 150,
          "midi": 37,
          "name": "C#2",
          "ticks": 143550,
          "time": 117.66386775,
          "velocity": 0.3858267716535433
        },
        {
          "duration": 0.12295075000000111,
          "durationTicks": 150,
          "midi": 37,
          "name": "C#2",
          "ticks": 143700,
          "time": 117.7868185,
          "velocity": 0.6377952755905512
        },
        {
          "duration": 0.12295075000000111,
          "durationTicks": 150,
          "midi": 37,
          "name": "C#2",
          "ticks": 143850,
          "time": 117.90976925,
          "velocity": 0.3937007874015748
        },
        {
          "duration": 0.12295075000000111,
          "durationTicks": 150,
          "midi": 38,
          "name": "D2",
          "ticks": 144000,
          "time": 118.03272,
          "velocity": 0.6299212598425197
        },
        {
          "duration": 0.12295075000000111,
          "durationTicks": 150,
          "midi": 38,
          "name": "D2",
          "ticks": 144150,
          "time": 118.15567075,
          "velocity": 0.3858267716535433
        },
        {
          "duration": 0.12295075000000111,
          "durationTicks": 150,
          "midi": 38,
          "name": "D2",
          "ticks": 144300,
          "time": 118.2786215,
          "velocity": 0.6299212598425197
        },
        {
          "duration": 0.12295075000000111,
          "durationTicks": 150,
          "midi": 38,
          "name": "D2",
          "ticks": 144450,
          "time": 118.40157225,
          "velocity": 0.3858267716535433
        },
        {
          "duration": 0.12295075000000111,
          "durationTicks": 150,
          "midi": 38,
          "name": "D2",
          "ticks": 144600,
          "time": 118.524523,
          "velocity": 0.6299212598425197
        },
        {
          "duration": 0.12295075000000111,
          "durationTicks": 150,
          "midi": 38,
          "name": "D2",
          "ticks": 144750,
          "time": 118.64747375,
          "velocity": 0.3858267716535433
        },
        {
          "duration": 0.1229507499999869,
          "durationTicks": 150,
          "midi": 38,
          "name": "D2",
          "ticks": 144900,
          "time": 118.7704245,
          "velocity": 0.6299212598425197
        },
        {
          "duration": 0.24590150000000222,
          "durationTicks": 300,
          "midi": 38,
          "name": "D2",
          "ticks": 145050,
          "time": 118.89337524999999,
          "velocity": 0.6299212598425197
        },
        {
          "duration": 0.12295075000000111,
          "durationTicks": 150,
          "midi": 38,
          "name": "D2",
          "ticks": 145350,
          "time": 119.13927675,
          "velocity": 0.3858267716535433
        },
        {
          "duration": 0.12295075000000111,
          "durationTicks": 150,
          "midi": 38,
          "name": "D2",
          "ticks": 145500,
          "time": 119.2622275,
          "velocity": 0.6377952755905512
        },
        {
          "duration": 0.12295075000000111,
          "durationTicks": 150,
          "midi": 38,
          "name": "D2",
          "ticks": 145650,
          "time": 119.38517825,
          "velocity": 0.3858267716535433
        },
        {
          "duration": 0.12295075000000111,
          "durationTicks": 150,
          "midi": 38,
          "name": "D2",
          "ticks": 145800,
          "time": 119.508129,
          "velocity": 0.6377952755905512
        },
        {
          "duration": 0.12295075000000111,
          "durationTicks": 150,
          "midi": 38,
          "name": "D2",
          "ticks": 145950,
          "time": 119.63107975,
          "velocity": 0.3858267716535433
        },
        {
          "duration": 0.12295075000000111,
          "durationTicks": 150,
          "midi": 38,
          "name": "D2",
          "ticks": 146100,
          "time": 119.7540305,
          "velocity": 0.6377952755905512
        },
        {
          "duration": 0.12295075000000111,
          "durationTicks": 150,
          "midi": 38,
          "name": "D2",
          "ticks": 146250,
          "time": 119.87698125,
          "velocity": 0.3937007874015748
        },
        {
          "duration": 0.12295075000000111,
          "durationTicks": 150,
          "midi": 38,
          "name": "D2",
          "ticks": 146400,
          "time": 119.999932,
          "velocity": 0.6299212598425197
        },
        {
          "duration": 0.12295075000000111,
          "durationTicks": 150,
          "midi": 38,
          "name": "D2",
          "ticks": 146550,
          "time": 120.12288275,
          "velocity": 0.3858267716535433
        },
        {
          "duration": 0.12295075000000111,
          "durationTicks": 150,
          "midi": 38,
          "name": "D2",
          "ticks": 146700,
          "time": 120.2458335,
          "velocity": 0.6299212598425197
        },
        {
          "duration": 0.1229507499999869,
          "durationTicks": 150,
          "midi": 38,
          "name": "D2",
          "ticks": 146850,
          "time": 120.36878425,
          "velocity": 0.3858267716535433
        },
        {
          "duration": 0.12295075000000111,
          "durationTicks": 150,
          "midi": 38,
          "name": "D2",
          "ticks": 147000,
          "time": 120.49173499999999,
          "velocity": 0.6299212598425197
        },
        {
          "duration": 0.12295075000000111,
          "durationTicks": 150,
          "midi": 38,
          "name": "D2",
          "ticks": 147150,
          "time": 120.61468574999999,
          "velocity": 0.3858267716535433
        },
        {
          "duration": 0.12295075000000111,
          "durationTicks": 150,
          "midi": 38,
          "name": "D2",
          "ticks": 147300,
          "time": 120.7376365,
          "velocity": 0.6299212598425197
        },
        {
          "duration": 0.24590150000000222,
          "durationTicks": 300,
          "midi": 38,
          "name": "D2",
          "ticks": 147450,
          "time": 120.86058725,
          "velocity": 0.6299212598425197
        },
        {
          "duration": 0.12295075000000111,
          "durationTicks": 150,
          "midi": 38,
          "name": "D2",
          "ticks": 147750,
          "time": 121.10648875,
          "velocity": 0.3858267716535433
        },
        {
          "duration": 0.12295075000000111,
          "durationTicks": 150,
          "midi": 38,
          "name": "D2",
          "ticks": 147900,
          "time": 121.2294395,
          "velocity": 0.6377952755905512
        },
        {
          "duration": 0.12295075000000111,
          "durationTicks": 150,
          "midi": 38,
          "name": "D2",
          "ticks": 148050,
          "time": 121.35239025,
          "velocity": 0.3858267716535433
        },
        {
          "duration": 0.12295075000000111,
          "durationTicks": 150,
          "midi": 38,
          "name": "D2",
          "ticks": 148200,
          "time": 121.475341,
          "velocity": 0.6377952755905512
        },
        {
          "duration": 0.12295075000000111,
          "durationTicks": 150,
          "midi": 38,
          "name": "D2",
          "ticks": 148350,
          "time": 121.59829175,
          "velocity": 0.3858267716535433
        },
        {
          "duration": 0.12295075000000111,
          "durationTicks": 150,
          "midi": 38,
          "name": "D2",
          "ticks": 148500,
          "time": 121.7212425,
          "velocity": 0.6377952755905512
        },
        {
          "duration": 0.1229507499999869,
          "durationTicks": 150,
          "midi": 38,
          "name": "D2",
          "ticks": 148650,
          "time": 121.84419325,
          "velocity": 0.3937007874015748
        },
        {
          "duration": 0.12295075000000111,
          "durationTicks": 150,
          "midi": 34,
          "name": "A#1",
          "ticks": 148800,
          "time": 121.96714399999999,
          "velocity": 0.6299212598425197
        },
        {
          "duration": 0.12295075000000111,
          "durationTicks": 150,
          "midi": 34,
          "name": "A#1",
          "ticks": 148950,
          "time": 122.09009474999999,
          "velocity": 0.3858267716535433
        },
        {
          "duration": 0.12295075000000111,
          "durationTicks": 150,
          "midi": 34,
          "name": "A#1",
          "ticks": 149100,
          "time": 122.21304549999999,
          "velocity": 0.6299212598425197
        },
        {
          "duration": 0.12295075000000111,
          "durationTicks": 150,
          "midi": 34,
          "name": "A#1",
          "ticks": 149250,
          "time": 122.33599625,
          "velocity": 0.3858267716535433
        },
        {
          "duration": 0.12295075000000111,
          "durationTicks": 150,
          "midi": 34,
          "name": "A#1",
          "ticks": 149400,
          "time": 122.458947,
          "velocity": 0.6299212598425197
        },
        {
          "duration": 0.12295075000000111,
          "durationTicks": 150,
          "midi": 34,
          "name": "A#1",
          "ticks": 149550,
          "time": 122.58189775,
          "velocity": 0.3858267716535433
        },
        {
          "duration": 0.12295075000000111,
          "durationTicks": 150,
          "midi": 34,
          "name": "A#1",
          "ticks": 149700,
          "time": 122.7048485,
          "velocity": 0.6299212598425197
        },
        {
          "duration": 0.24590150000000222,
          "durationTicks": 300,
          "midi": 34,
          "name": "A#1",
          "ticks": 149850,
          "time": 122.82779925,
          "velocity": 0.6299212598425197
        },
        {
          "duration": 0.12295075000000111,
          "durationTicks": 150,
          "midi": 34,
          "name": "A#1",
          "ticks": 150150,
          "time": 123.07370075,
          "velocity": 0.3858267716535433
        },
        {
          "duration": 0.12295075000000111,
          "durationTicks": 150,
          "midi": 34,
          "name": "A#1",
          "ticks": 150300,
          "time": 123.1966515,
          "velocity": 0.6377952755905512
        },
        {
          "duration": 0.12295075000000111,
          "durationTicks": 150,
          "midi": 34,
          "name": "A#1",
          "ticks": 150450,
          "time": 123.31960225,
          "velocity": 0.3858267716535433
        },
        {
          "duration": 0.1229507499999869,
          "durationTicks": 150,
          "midi": 34,
          "name": "A#1",
          "ticks": 150600,
          "time": 123.442553,
          "velocity": 0.6377952755905512
        },
        {
          "duration": 0.12295075000000111,
          "durationTicks": 150,
          "midi": 34,
          "name": "A#1",
          "ticks": 150750,
          "time": 123.56550374999999,
          "velocity": 0.3858267716535433
        },
        {
          "duration": 0.12295075000000111,
          "durationTicks": 150,
          "midi": 34,
          "name": "A#1",
          "ticks": 150900,
          "time": 123.68845449999999,
          "velocity": 0.6377952755905512
        },
        {
          "duration": 0.12295075000000111,
          "durationTicks": 150,
          "midi": 34,
          "name": "A#1",
          "ticks": 151050,
          "time": 123.81140524999999,
          "velocity": 0.3937007874015748
        },
        {
          "duration": 0.12295075000000111,
          "durationTicks": 150,
          "midi": 36,
          "name": "C2",
          "ticks": 151200,
          "time": 123.934356,
          "velocity": 0.6299212598425197
        },
        {
          "duration": 0.12295075000000111,
          "durationTicks": 150,
          "midi": 36,
          "name": "C2",
          "ticks": 151350,
          "time": 124.05730675,
          "velocity": 0.3858267716535433
        },
        {
          "duration": 0.12295075000000111,
          "durationTicks": 150,
          "midi": 36,
          "name": "C2",
          "ticks": 151500,
          "time": 124.1802575,
          "velocity": 0.6299212598425197
        },
        {
          "duration": 0.12295075000000111,
          "durationTicks": 150,
          "midi": 36,
          "name": "C2",
          "ticks": 151650,
          "time": 124.30320825,
          "velocity": 0.3858267716535433
        },
        {
          "duration": 0.12295075000000111,
          "durationTicks": 150,
          "midi": 36,
          "name": "C2",
          "ticks": 151800,
          "time": 124.426159,
          "velocity": 0.6299212598425197
        },
        {
          "duration": 0.12295075000000111,
          "durationTicks": 150,
          "midi": 36,
          "name": "C2",
          "ticks": 151950,
          "time": 124.54910975,
          "velocity": 0.3858267716535433
        },
        {
          "duration": 0.12295075000000111,
          "durationTicks": 150,
          "midi": 36,
          "name": "C2",
          "ticks": 152100,
          "time": 124.6720605,
          "velocity": 0.6299212598425197
        },
        {
          "duration": 0.24590150000000222,
          "durationTicks": 300,
          "midi": 37,
          "name": "C#2",
          "ticks": 152250,
          "time": 124.79501125,
          "velocity": 0.6299212598425197
        },
        {
          "duration": 0.1229507499999869,
          "durationTicks": 150,
          "midi": 37,
          "name": "C#2",
          "ticks": 152550,
          "time": 125.04091275,
          "velocity": 0.3858267716535433
        },
        {
          "duration": 0.12295075000000111,
          "durationTicks": 150,
          "midi": 37,
          "name": "C#2",
          "ticks": 152700,
          "time": 125.16386349999999,
          "velocity": 0.6377952755905512
        },
        {
          "duration": 0.12295075000000111,
          "durationTicks": 150,
          "midi": 37,
          "name": "C#2",
          "ticks": 152850,
          "time": 125.28681424999999,
          "velocity": 0.3858267716535433
        },
        {
          "duration": 0.12295075000000111,
          "durationTicks": 150,
          "midi": 37,
          "name": "C#2",
          "ticks": 153000,
          "time": 125.409765,
          "velocity": 0.6377952755905512
        },
        {
          "duration": 0.12295075000000111,
          "durationTicks": 150,
          "midi": 37,
          "name": "C#2",
          "ticks": 153150,
          "time": 125.53271575,
          "velocity": 0.3858267716535433
        },
        {
          "duration": 0.12295075000000111,
          "durationTicks": 150,
          "midi": 37,
          "name": "C#2",
          "ticks": 153300,
          "time": 125.6556665,
          "velocity": 0.6377952755905512
        },
        {
          "duration": 0.12295075000000111,
          "durationTicks": 150,
          "midi": 37,
          "name": "C#2",
          "ticks": 153450,
          "time": 125.77861725,
          "velocity": 0.3937007874015748
        },
        {
          "duration": 0.12295075000000111,
          "durationTicks": 150,
          "midi": 38,
          "name": "D2",
          "ticks": 153600,
          "time": 125.901568,
          "velocity": 0.6299212598425197
        },
        {
          "duration": 0.12295075000000111,
          "durationTicks": 150,
          "midi": 38,
          "name": "D2",
          "ticks": 153750,
          "time": 126.02451875,
          "velocity": 0.3858267716535433
        },
        {
          "duration": 0.12295075000000111,
          "durationTicks": 150,
          "midi": 38,
          "name": "D2",
          "ticks": 153900,
          "time": 126.1474695,
          "velocity": 0.6299212598425197
        },
        {
          "duration": 0.12295075000000111,
          "durationTicks": 150,
          "midi": 38,
          "name": "D2",
          "ticks": 154050,
          "time": 126.27042025,
          "velocity": 0.3858267716535433
        },
        {
          "duration": 0.12295075000000111,
          "durationTicks": 150,
          "midi": 38,
          "name": "D2",
          "ticks": 154200,
          "time": 126.393371,
          "velocity": 0.6299212598425197
        },
        {
          "duration": 0.12295075000000111,
          "durationTicks": 150,
          "midi": 38,
          "name": "D2",
          "ticks": 154350,
          "time": 126.51632175,
          "velocity": 0.3858267716535433
        },
        {
          "duration": 0.1229507499999869,
          "durationTicks": 150,
          "midi": 38,
          "name": "D2",
          "ticks": 154500,
          "time": 126.6392725,
          "velocity": 0.6299212598425197
        },
        {
          "duration": 0.24590150000000222,
          "durationTicks": 300,
          "midi": 38,
          "name": "D2",
          "ticks": 154650,
          "time": 126.76222324999999,
          "velocity": 0.6299212598425197
        },
        {
          "duration": 0.12295075000000111,
          "durationTicks": 150,
          "midi": 38,
          "name": "D2",
          "ticks": 154950,
          "time": 127.00812475,
          "velocity": 0.3858267716535433
        },
        {
          "duration": 0.12295075000000111,
          "durationTicks": 150,
          "midi": 38,
          "name": "D2",
          "ticks": 155100,
          "time": 127.1310755,
          "velocity": 0.6377952755905512
        },
        {
          "duration": 0.12295075000000111,
          "durationTicks": 150,
          "midi": 38,
          "name": "D2",
          "ticks": 155250,
          "time": 127.25402625,
          "velocity": 0.3858267716535433
        },
        {
          "duration": 0.12295075000000111,
          "durationTicks": 150,
          "midi": 38,
          "name": "D2",
          "ticks": 155400,
          "time": 127.376977,
          "velocity": 0.6377952755905512
        },
        {
          "duration": 0.12295075000000111,
          "durationTicks": 150,
          "midi": 38,
          "name": "D2",
          "ticks": 155550,
          "time": 127.49992775,
          "velocity": 0.3858267716535433
        },
        {
          "duration": 0.12295075000000111,
          "durationTicks": 150,
          "midi": 38,
          "name": "D2",
          "ticks": 155700,
          "time": 127.6228785,
          "velocity": 0.6377952755905512
        },
        {
          "duration": 0.12295075000000111,
          "durationTicks": 150,
          "midi": 38,
          "name": "D2",
          "ticks": 155850,
          "time": 127.74582925,
          "velocity": 0.3937007874015748
        },
        {
          "duration": 0.12295075000000111,
          "durationTicks": 150,
          "midi": 38,
          "name": "D2",
          "ticks": 156000,
          "time": 127.86878,
          "velocity": 0.6299212598425197
        },
        {
          "duration": 0.1229507499999869,
          "durationTicks": 150,
          "midi": 38,
          "name": "D2",
          "ticks": 156150,
          "time": 127.99173075,
          "velocity": 0.3858267716535433
        },
        {
          "duration": 0.12295075000000111,
          "durationTicks": 150,
          "midi": 38,
          "name": "D2",
          "ticks": 156300,
          "time": 128.1146815,
          "velocity": 0.6299212598425197
        },
        {
          "duration": 0.12295075000000111,
          "durationTicks": 150,
          "midi": 38,
          "name": "D2",
          "ticks": 156450,
          "time": 128.23763225,
          "velocity": 0.3858267716535433
        },
        {
          "duration": 0.12295075000000111,
          "durationTicks": 150,
          "midi": 38,
          "name": "D2",
          "ticks": 156600,
          "time": 128.360583,
          "velocity": 0.6299212598425197
        },
        {
          "duration": 0.12295075000000111,
          "durationTicks": 150,
          "midi": 38,
          "name": "D2",
          "ticks": 156750,
          "time": 128.48353375,
          "velocity": 0.3858267716535433
        },
        {
          "duration": 0.12295075000000111,
          "durationTicks": 150,
          "midi": 38,
          "name": "D2",
          "ticks": 156900,
          "time": 128.6064845,
          "velocity": 0.6299212598425197
        },
        {
          "duration": 0.24590150000000222,
          "durationTicks": 300,
          "midi": 38,
          "name": "D2",
          "ticks": 157050,
          "time": 128.72943525,
          "velocity": 0.6299212598425197
        },
        {
          "duration": 0.12295075000000111,
          "durationTicks": 150,
          "midi": 38,
          "name": "D2",
          "ticks": 157350,
          "time": 128.97533675,
          "velocity": 0.3858267716535433
        },
        {
          "duration": 0.12295075000000111,
          "durationTicks": 150,
          "midi": 38,
          "name": "D2",
          "ticks": 157500,
          "time": 129.0982875,
          "velocity": 0.6377952755905512
        },
        {
          "duration": 0.12295075000000111,
          "durationTicks": 150,
          "midi": 38,
          "name": "D2",
          "ticks": 157650,
          "time": 129.22123825,
          "velocity": 0.3858267716535433
        },
        {
          "duration": 0.12295075000000111,
          "durationTicks": 150,
          "midi": 38,
          "name": "D2",
          "ticks": 157800,
          "time": 129.344189,
          "velocity": 0.6377952755905512
        },
        {
          "duration": 0.12295075000000111,
          "durationTicks": 150,
          "midi": 38,
          "name": "D2",
          "ticks": 157950,
          "time": 129.46713975,
          "velocity": 0.3858267716535433
        },
        {
          "duration": 0.12295075000000111,
          "durationTicks": 150,
          "midi": 38,
          "name": "D2",
          "ticks": 158100,
          "time": 129.5900905,
          "velocity": 0.6377952755905512
        },
        {
          "duration": 0.12295075000000111,
          "durationTicks": 150,
          "midi": 38,
          "name": "D2",
          "ticks": 158250,
          "time": 129.71304125,
          "velocity": 0.3937007874015748
        },
        {
          "duration": 0.12295075000000111,
          "durationTicks": 150,
          "midi": 34,
          "name": "A#1",
          "ticks": 158400,
          "time": 129.835992,
          "velocity": 0.6299212598425197
        },
        {
          "duration": 0.12295075000000111,
          "durationTicks": 150,
          "midi": 34,
          "name": "A#1",
          "ticks": 158550,
          "time": 129.95894275,
          "velocity": 0.3858267716535433
        },
        {
          "duration": 0.12295075000000111,
          "durationTicks": 150,
          "midi": 34,
          "name": "A#1",
          "ticks": 158700,
          "time": 130.0818935,
          "velocity": 0.6299212598425197
        },
        {
          "duration": 0.12295075000000111,
          "durationTicks": 150,
          "midi": 34,
          "name": "A#1",
          "ticks": 158850,
          "time": 130.20484425,
          "velocity": 0.3858267716535433
        },
        {
          "duration": 0.12295075000000111,
          "durationTicks": 150,
          "midi": 34,
          "name": "A#1",
          "ticks": 159000,
          "time": 130.327795,
          "velocity": 0.6299212598425197
        },
        {
          "duration": 0.12295075000000111,
          "durationTicks": 150,
          "midi": 34,
          "name": "A#1",
          "ticks": 159150,
          "time": 130.45074575,
          "velocity": 0.3858267716535433
        },
        {
          "duration": 0.12295074999997269,
          "durationTicks": 150,
          "midi": 34,
          "name": "A#1",
          "ticks": 159300,
          "time": 130.5736965,
          "velocity": 0.6299212598425197
        },
        {
          "duration": 0.24590150000000222,
          "durationTicks": 300,
          "midi": 34,
          "name": "A#1",
          "ticks": 159450,
          "time": 130.69664724999998,
          "velocity": 0.6299212598425197
        },
        {
          "duration": 0.12295075000000111,
          "durationTicks": 150,
          "midi": 34,
          "name": "A#1",
          "ticks": 159750,
          "time": 130.94254875,
          "velocity": 0.3858267716535433
        },
        {
          "duration": 0.12295075000000111,
          "durationTicks": 150,
          "midi": 34,
          "name": "A#1",
          "ticks": 159900,
          "time": 131.0654995,
          "velocity": 0.6377952755905512
        },
        {
          "duration": 0.12295075000000111,
          "durationTicks": 150,
          "midi": 34,
          "name": "A#1",
          "ticks": 160050,
          "time": 131.18845025,
          "velocity": 0.3858267716535433
        },
        {
          "duration": 0.12295075000000111,
          "durationTicks": 150,
          "midi": 34,
          "name": "A#1",
          "ticks": 160200,
          "time": 131.311401,
          "velocity": 0.6377952755905512
        },
        {
          "duration": 0.12295075000000111,
          "durationTicks": 150,
          "midi": 34,
          "name": "A#1",
          "ticks": 160350,
          "time": 131.43435175,
          "velocity": 0.3858267716535433
        },
        {
          "duration": 0.12295075000000111,
          "durationTicks": 150,
          "midi": 34,
          "name": "A#1",
          "ticks": 160500,
          "time": 131.5573025,
          "velocity": 0.6377952755905512
        },
        {
          "duration": 0.12295075000000111,
          "durationTicks": 150,
          "midi": 34,
          "name": "A#1",
          "ticks": 160650,
          "time": 131.68025325,
          "velocity": 0.3937007874015748
        },
        {
          "duration": 0.12295075000000111,
          "durationTicks": 150,
          "midi": 36,
          "name": "C2",
          "ticks": 160800,
          "time": 131.803204,
          "velocity": 0.6299212598425197
        },
        {
          "duration": 0.12295075000000111,
          "durationTicks": 150,
          "midi": 36,
          "name": "C2",
          "ticks": 160950,
          "time": 131.92615475,
          "velocity": 0.3858267716535433
        },
        {
          "duration": 0.12295075000000111,
          "durationTicks": 150,
          "midi": 36,
          "name": "C2",
          "ticks": 161100,
          "time": 132.0491055,
          "velocity": 0.6299212598425197
        },
        {
          "duration": 0.12295075000000111,
          "durationTicks": 150,
          "midi": 36,
          "name": "C2",
          "ticks": 161250,
          "time": 132.17205625,
          "velocity": 0.3858267716535433
        },
        {
          "duration": 0.12295075000000111,
          "durationTicks": 150,
          "midi": 36,
          "name": "C2",
          "ticks": 161400,
          "time": 132.295007,
          "velocity": 0.6299212598425197
        },
        {
          "duration": 0.12295075000000111,
          "durationTicks": 150,
          "midi": 36,
          "name": "C2",
          "ticks": 161550,
          "time": 132.41795775,
          "velocity": 0.3858267716535433
        },
        {
          "duration": 0.12295075000000111,
          "durationTicks": 150,
          "midi": 36,
          "name": "C2",
          "ticks": 161700,
          "time": 132.5409085,
          "velocity": 0.6299212598425197
        },
        {
          "duration": 0.24590150000000222,
          "durationTicks": 300,
          "midi": 37,
          "name": "C#2",
          "ticks": 161850,
          "time": 132.66385925,
          "velocity": 0.6299212598425197
        },
        {
          "duration": 0.12295075000000111,
          "durationTicks": 150,
          "midi": 37,
          "name": "C#2",
          "ticks": 162150,
          "time": 132.90976075,
          "velocity": 0.3858267716535433
        },
        {
          "duration": 0.12295075000000111,
          "durationTicks": 150,
          "midi": 37,
          "name": "C#2",
          "ticks": 162300,
          "time": 133.0327115,
          "velocity": 0.6377952755905512
        },
        {
          "duration": 0.12295075000000111,
          "durationTicks": 150,
          "midi": 37,
          "name": "C#2",
          "ticks": 162450,
          "time": 133.15566225,
          "velocity": 0.3858267716535433
        },
        {
          "duration": 0.12295075000000111,
          "durationTicks": 150,
          "midi": 37,
          "name": "C#2",
          "ticks": 162600,
          "time": 133.278613,
          "velocity": 0.6377952755905512
        },
        {
          "duration": 0.12295075000000111,
          "durationTicks": 150,
          "midi": 37,
          "name": "C#2",
          "ticks": 162750,
          "time": 133.40156375,
          "velocity": 0.3858267716535433
        },
        {
          "duration": 0.12295075000000111,
          "durationTicks": 150,
          "midi": 37,
          "name": "C#2",
          "ticks": 162900,
          "time": 133.5245145,
          "velocity": 0.6377952755905512
        },
        {
          "duration": 0.12295075000000111,
          "durationTicks": 150,
          "midi": 37,
          "name": "C#2",
          "ticks": 163050,
          "time": 133.64746525,
          "velocity": 0.3937007874015748
        },
        {
          "duration": 0.12295074999997269,
          "durationTicks": 150,
          "midi": 38,
          "name": "D2",
          "ticks": 163200,
          "time": 133.770416,
          "velocity": 0.6299212598425197
        },
        {
          "duration": 0.12295075000000111,
          "durationTicks": 150,
          "midi": 38,
          "name": "D2",
          "ticks": 163350,
          "time": 133.89336674999998,
          "velocity": 0.3858267716535433
        },
        {
          "duration": 0.12295075000000111,
          "durationTicks": 150,
          "midi": 38,
          "name": "D2",
          "ticks": 163500,
          "time": 134.01631749999999,
          "velocity": 0.6299212598425197
        },
        {
          "duration": 0.12295075000000111,
          "durationTicks": 150,
          "midi": 38,
          "name": "D2",
          "ticks": 163650,
          "time": 134.13926825,
          "velocity": 0.3858267716535433
        },
        {
          "duration": 0.12295075000000111,
          "durationTicks": 150,
          "midi": 38,
          "name": "D2",
          "ticks": 163800,
          "time": 134.262219,
          "velocity": 0.6299212598425197
        },
        {
          "duration": 0.12295075000000111,
          "durationTicks": 150,
          "midi": 38,
          "name": "D2",
          "ticks": 163950,
          "time": 134.38516975,
          "velocity": 0.3858267716535433
        },
        {
          "duration": 0.12295075000000111,
          "durationTicks": 150,
          "midi": 38,
          "name": "D2",
          "ticks": 164100,
          "time": 134.5081205,
          "velocity": 0.6299212598425197
        },
        {
          "duration": 0.24590150000000222,
          "durationTicks": 300,
          "midi": 38,
          "name": "D2",
          "ticks": 164250,
          "time": 134.63107125,
          "velocity": 0.6299212598425197
        },
        {
          "duration": 0.12295075000000111,
          "durationTicks": 150,
          "midi": 38,
          "name": "D2",
          "ticks": 164550,
          "time": 134.87697275,
          "velocity": 0.3858267716535433
        },
        {
          "duration": 0.12295075000000111,
          "durationTicks": 150,
          "midi": 38,
          "name": "D2",
          "ticks": 164700,
          "time": 134.9999235,
          "velocity": 0.6377952755905512
        },
        {
          "duration": 0.12295075000000111,
          "durationTicks": 150,
          "midi": 38,
          "name": "D2",
          "ticks": 164850,
          "time": 135.12287425,
          "velocity": 0.3858267716535433
        },
        {
          "duration": 0.12295075000000111,
          "durationTicks": 150,
          "midi": 38,
          "name": "D2",
          "ticks": 165000,
          "time": 135.245825,
          "velocity": 0.6377952755905512
        },
        {
          "duration": 0.12295075000000111,
          "durationTicks": 150,
          "midi": 38,
          "name": "D2",
          "ticks": 165150,
          "time": 135.36877575,
          "velocity": 0.3858267716535433
        },
        {
          "duration": 0.12295075000000111,
          "durationTicks": 150,
          "midi": 38,
          "name": "D2",
          "ticks": 165300,
          "time": 135.4917265,
          "velocity": 0.6377952755905512
        },
        {
          "duration": 0.12295075000000111,
          "durationTicks": 150,
          "midi": 38,
          "name": "D2",
          "ticks": 165450,
          "time": 135.61467725,
          "velocity": 0.3937007874015748
        },
        {
          "duration": 0.12295075000000111,
          "durationTicks": 150,
          "midi": 38,
          "name": "D2",
          "ticks": 165600,
          "time": 135.737628,
          "velocity": 0.6299212598425197
        },
        {
          "duration": 0.12295075000000111,
          "durationTicks": 150,
          "midi": 38,
          "name": "D2",
          "ticks": 165750,
          "time": 135.86057875,
          "velocity": 0.3858267716535433
        },
        {
          "duration": 0.12295075000000111,
          "durationTicks": 150,
          "midi": 38,
          "name": "D2",
          "ticks": 165900,
          "time": 135.9835295,
          "velocity": 0.6299212598425197
        },
        {
          "duration": 0.12295075000000111,
          "durationTicks": 150,
          "midi": 38,
          "name": "D2",
          "ticks": 166050,
          "time": 136.10648025,
          "velocity": 0.3858267716535433
        },
        {
          "duration": 0.12295075000000111,
          "durationTicks": 150,
          "midi": 38,
          "name": "D2",
          "ticks": 166200,
          "time": 136.229431,
          "velocity": 0.6299212598425197
        },
        {
          "duration": 0.12295075000000111,
          "durationTicks": 150,
          "midi": 38,
          "name": "D2",
          "ticks": 166350,
          "time": 136.35238175,
          "velocity": 0.3858267716535433
        },
        {
          "duration": 0.12295075000000111,
          "durationTicks": 150,
          "midi": 38,
          "name": "D2",
          "ticks": 166500,
          "time": 136.4753325,
          "velocity": 0.6299212598425197
        },
        {
          "duration": 0.24590150000000222,
          "durationTicks": 300,
          "midi": 38,
          "name": "D2",
          "ticks": 166650,
          "time": 136.59828325,
          "velocity": 0.6299212598425197
        },
        {
          "duration": 0.12295074999997269,
          "durationTicks": 150,
          "midi": 38,
          "name": "D2",
          "ticks": 166950,
          "time": 136.84418475,
          "velocity": 0.3858267716535433
        },
        {
          "duration": 0.12295075000000111,
          "durationTicks": 150,
          "midi": 38,
          "name": "D2",
          "ticks": 167100,
          "time": 136.96713549999998,
          "velocity": 0.6377952755905512
        },
        {
          "duration": 0.12295075000000111,
          "durationTicks": 150,
          "midi": 38,
          "name": "D2",
          "ticks": 167250,
          "time": 137.09008624999998,
          "velocity": 0.3858267716535433
        },
        {
          "duration": 0.12295075000000111,
          "durationTicks": 150,
          "midi": 38,
          "name": "D2",
          "ticks": 167400,
          "time": 137.21303699999999,
          "velocity": 0.6377952755905512
        },
        {
          "duration": 0.12295075000000111,
          "durationTicks": 150,
          "midi": 38,
          "name": "D2",
          "ticks": 167550,
          "time": 137.33598775,
          "velocity": 0.3858267716535433
        },
        {
          "duration": 0.12295075000000111,
          "durationTicks": 150,
          "midi": 38,
          "name": "D2",
          "ticks": 167700,
          "time": 137.4589385,
          "velocity": 0.6377952755905512
        },
        {
          "duration": 0.12295075000000111,
          "durationTicks": 150,
          "midi": 38,
          "name": "D2",
          "ticks": 167850,
          "time": 137.58188925,
          "velocity": 0.3937007874015748
        },
        {
          "duration": 0.12295075000000111,
          "durationTicks": 150,
          "midi": 34,
          "name": "A#1",
          "ticks": 168000,
          "time": 137.70484,
          "velocity": 0.6299212598425197
        },
        {
          "duration": 0.12295075000000111,
          "durationTicks": 150,
          "midi": 34,
          "name": "A#1",
          "ticks": 168150,
          "time": 137.82779075,
          "velocity": 0.3858267716535433
        },
        {
          "duration": 0.12295075000000111,
          "durationTicks": 150,
          "midi": 34,
          "name": "A#1",
          "ticks": 168300,
          "time": 137.9507415,
          "velocity": 0.6299212598425197
        },
        {
          "duration": 0.12295075000000111,
          "durationTicks": 150,
          "midi": 34,
          "name": "A#1",
          "ticks": 168450,
          "time": 138.07369225,
          "velocity": 0.3858267716535433
        },
        {
          "duration": 0.12295075000000111,
          "durationTicks": 150,
          "midi": 34,
          "name": "A#1",
          "ticks": 168600,
          "time": 138.196643,
          "velocity": 0.6299212598425197
        },
        {
          "duration": 0.12295075000000111,
          "durationTicks": 150,
          "midi": 34,
          "name": "A#1",
          "ticks": 168750,
          "time": 138.31959375,
          "velocity": 0.3858267716535433
        },
        {
          "duration": 0.12295075000000111,
          "durationTicks": 150,
          "midi": 34,
          "name": "A#1",
          "ticks": 168900,
          "time": 138.4425445,
          "velocity": 0.6299212598425197
        },
        {
          "duration": 0.24590150000000222,
          "durationTicks": 300,
          "midi": 34,
          "name": "A#1",
          "ticks": 169050,
          "time": 138.56549525,
          "velocity": 0.6299212598425197
        },
        {
          "duration": 0.12295075000000111,
          "durationTicks": 150,
          "midi": 34,
          "name": "A#1",
          "ticks": 169350,
          "time": 138.81139675,
          "velocity": 0.3858267716535433
        },
        {
          "duration": 0.12295075000000111,
          "durationTicks": 150,
          "midi": 34,
          "name": "A#1",
          "ticks": 169500,
          "time": 138.9343475,
          "velocity": 0.6377952755905512
        },
        {
          "duration": 0.12295075000000111,
          "durationTicks": 150,
          "midi": 34,
          "name": "A#1",
          "ticks": 169650,
          "time": 139.05729825,
          "velocity": 0.3858267716535433
        },
        {
          "duration": 0.12295075000000111,
          "durationTicks": 150,
          "midi": 34,
          "name": "A#1",
          "ticks": 169800,
          "time": 139.180249,
          "velocity": 0.6377952755905512
        },
        {
          "duration": 0.12295075000000111,
          "durationTicks": 150,
          "midi": 34,
          "name": "A#1",
          "ticks": 169950,
          "time": 139.30319975,
          "velocity": 0.3858267716535433
        },
        {
          "duration": 0.12295075000000111,
          "durationTicks": 150,
          "midi": 34,
          "name": "A#1",
          "ticks": 170100,
          "time": 139.4261505,
          "velocity": 0.6377952755905512
        },
        {
          "duration": 0.12295075000000111,
          "durationTicks": 150,
          "midi": 34,
          "name": "A#1",
          "ticks": 170250,
          "time": 139.54910125,
          "velocity": 0.3937007874015748
        },
        {
          "duration": 0.12295075000000111,
          "durationTicks": 150,
          "midi": 36,
          "name": "C2",
          "ticks": 170400,
          "time": 139.672052,
          "velocity": 0.6299212598425197
        },
        {
          "duration": 0.12295075000000111,
          "durationTicks": 150,
          "midi": 36,
          "name": "C2",
          "ticks": 170550,
          "time": 139.79500275,
          "velocity": 0.3858267716535433
        },
        {
          "duration": 0.12295075000000111,
          "durationTicks": 150,
          "midi": 36,
          "name": "C2",
          "ticks": 170700,
          "time": 139.9179535,
          "velocity": 0.6299212598425197
        },
        {
          "duration": 0.12295074999997269,
          "durationTicks": 150,
          "midi": 36,
          "name": "C2",
          "ticks": 170850,
          "time": 140.04090425,
          "velocity": 0.3858267716535433
        },
        {
          "duration": 0.12295075000000111,
          "durationTicks": 150,
          "midi": 36,
          "name": "C2",
          "ticks": 171000,
          "time": 140.16385499999998,
          "velocity": 0.6299212598425197
        },
        {
          "duration": 0.12295075000000111,
          "durationTicks": 150,
          "midi": 36,
          "name": "C2",
          "ticks": 171150,
          "time": 140.28680574999998,
          "velocity": 0.3858267716535433
        },
        {
          "duration": 0.12295075000000111,
          "durationTicks": 150,
          "midi": 36,
          "name": "C2",
          "ticks": 171300,
          "time": 140.4097565,
          "velocity": 0.6299212598425197
        },
        {
          "duration": 0.24590150000000222,
          "durationTicks": 300,
          "midi": 37,
          "name": "C#2",
          "ticks": 171450,
          "time": 140.53270725,
          "velocity": 0.6299212598425197
        },
        {
          "duration": 0.12295075000000111,
          "durationTicks": 150,
          "midi": 37,
          "name": "C#2",
          "ticks": 171750,
          "time": 140.77860875,
          "velocity": 0.3858267716535433
        },
        {
          "duration": 0.12295075000000111,
          "durationTicks": 150,
          "midi": 37,
          "name": "C#2",
          "ticks": 171900,
          "time": 140.9015595,
          "velocity": 0.6377952755905512
        },
        {
          "duration": 0.12295075000000111,
          "durationTicks": 150,
          "midi": 37,
          "name": "C#2",
          "ticks": 172050,
          "time": 141.02451025,
          "velocity": 0.3858267716535433
        },
        {
          "duration": 0.12295075000000111,
          "durationTicks": 150,
          "midi": 37,
          "name": "C#2",
          "ticks": 172200,
          "time": 141.147461,
          "velocity": 0.6377952755905512
        },
        {
          "duration": 0.12295075000000111,
          "durationTicks": 150,
          "midi": 37,
          "name": "C#2",
          "ticks": 172350,
          "time": 141.27041175,
          "velocity": 0.3858267716535433
        },
        {
          "duration": 0.12295075000000111,
          "durationTicks": 150,
          "midi": 37,
          "name": "C#2",
          "ticks": 172500,
          "time": 141.3933625,
          "velocity": 0.6377952755905512
        },
        {
          "duration": 0.12295075000000111,
          "durationTicks": 150,
          "midi": 37,
          "name": "C#2",
          "ticks": 172650,
          "time": 141.51631325,
          "velocity": 0.3937007874015748
        }
      ]
    },
    {
      "channel": 5,
      "controlChanges": {},
      "pitchBends": [
        {
          "ticks": 38400,
          "time": 31.475392,
          "value": 0
        }
      ],
      "instrument": {
        "family": "piano",
        "number": 0,
        "name": "acoustic grand piano"
      },
      "name": "",
      "notes": []
    },
    {
      "channel": 5,
      "controlChanges": {
        "6": [
          {
            "number": 6,
            "ticks": 38400,
            "time": 31.475392,
            "value": 0.09448818897637795
          },
          {
            "number": 6,
            "ticks": 38400,
            "time": 31.475392,
            "value": 0.09448818897637795
          },
          {
            "number": 6,
            "ticks": 184800,
            "time": 151.475324,
            "value": 0.09448818897637795
          },
          {
            "number": 6,
            "ticks": 184800,
            "time": 151.475324,
            "value": 0.09448818897637795
          },
          {
            "number": 6,
            "ticks": 184800,
            "time": 151.475324,
            "value": 0.09448818897637795
          },
          {
            "number": 6,
            "ticks": 184800,
            "time": 151.475324,
            "value": 0.09448818897637795
          }
        ],
        "7": [
          {
            "number": 7,
            "ticks": 38400,
            "time": 31.475392,
            "value": 0.7874015748031497
          },
          {
            "number": 7,
            "ticks": 38400,
            "time": 31.475392,
            "value": 0.7874015748031497
          },
          {
            "number": 7,
            "ticks": 38400,
            "time": 31.475392,
            "value": 0.7874015748031497
          },
          {
            "number": 7,
            "ticks": 38400,
            "time": 31.475392,
            "value": 0.7874015748031497
          },
          {
            "number": 7,
            "ticks": 184800,
            "time": 151.475324,
            "value": 0.7874015748031497
          },
          {
            "number": 7,
            "ticks": 184800,
            "time": 151.475324,
            "value": 0.7874015748031497
          },
          {
            "number": 7,
            "ticks": 184800,
            "time": 151.475324,
            "value": 0.7874015748031497
          },
          {
            "number": 7,
            "ticks": 184800,
            "time": 151.475324,
            "value": 0.7874015748031497
          }
        ],
        "10": [
          {
            "number": 10,
            "ticks": 38400,
            "time": 31.475392,
            "value": 0.5039370078740157
          },
          {
            "number": 10,
            "ticks": 38400,
            "time": 31.475392,
            "value": 0.5039370078740157
          },
          {
            "number": 10,
            "ticks": 38400,
            "time": 31.475392,
            "value": 0.5039370078740157
          },
          {
            "number": 10,
            "ticks": 38400,
            "time": 31.475392,
            "value": 0.5039370078740157
          },
          {
            "number": 10,
            "ticks": 184800,
            "time": 151.475324,
            "value": 0.5039370078740157
          },
          {
            "number": 10,
            "ticks": 184800,
            "time": 151.475324,
            "value": 0.5039370078740157
          },
          {
            "number": 10,
            "ticks": 184800,
            "time": 151.475324,
            "value": 0.5039370078740157
          },
          {
            "number": 10,
            "ticks": 184800,
            "time": 151.475324,
            "value": 0.5039370078740157
          }
        ],
        "100": [
          {
            "number": 100,
            "ticks": 38400,
            "time": 31.475392,
            "value": 0
          },
          {
            "number": 100,
            "ticks": 38400,
            "time": 31.475392,
            "value": 0
          },
          {
            "number": 100,
            "ticks": 184800,
            "time": 151.475324,
            "value": 0
          },
          {
            "number": 100,
            "ticks": 184800,
            "time": 151.475324,
            "value": 0
          },
          {
            "number": 100,
            "ticks": 184800,
            "time": 151.475324,
            "value": 0
          },
          {
            "number": 100,
            "ticks": 184800,
            "time": 151.475324,
            "value": 0
          }
        ],
        "101": [
          {
            "number": 101,
            "ticks": 38400,
            "time": 31.475392,
            "value": 0
          },
          {
            "number": 101,
            "ticks": 38400,
            "time": 31.475392,
            "value": 0
          },
          {
            "number": 101,
            "ticks": 184800,
            "time": 151.475324,
            "value": 0
          },
          {
            "number": 101,
            "ticks": 184800,
            "time": 151.475324,
            "value": 0
          },
          {
            "number": 101,
            "ticks": 184800,
            "time": 151.475324,
            "value": 0
          },
          {
            "number": 101,
            "ticks": 184800,
            "time": 151.475324,
            "value": 0
          }
        ]
      },
      "pitchBends": [
        {
          "ticks": 38400,
          "time": 31.475392,
          "value": 0
        },
        {
          "ticks": 38400,
          "time": 31.475392,
          "value": 0
        },
        {
          "ticks": 38400,
          "time": 31.475392,
          "value": 0
        },
        {
          "ticks": 38400,
          "time": 31.475392,
          "value": 0
        },
        {
          "ticks": 38400,
          "time": 31.475392,
          "value": 0
        },
        {
          "ticks": 184800,
          "time": 151.475324,
          "value": 0
        },
        {
          "ticks": 184800,
          "time": 151.475324,
          "value": 0
        },
        {
          "ticks": 184800,
          "time": 151.475324,
          "value": 0
        },
        {
          "ticks": 184800,
          "time": 151.475324,
          "value": 0
        }
      ],
      "instrument": {
        "family": "organ",
        "number": 22,
        "name": "harmonica"
      },
      "name": "",
      "notes": [
        {
          "duration": 0.12295075000000111,
          "durationTicks": 150,
          "midi": 48,
          "name": "C3",
          "ticks": 38400,
          "time": 31.475392,
          "velocity": 0.6299212598425197
        },
        {
          "duration": 0.12295074999999756,
          "durationTicks": 150,
          "midi": 48,
          "name": "C3",
          "ticks": 38550,
          "time": 31.59834275,
          "velocity": 0.3858267716535433
        },
        {
          "duration": 0.12295075000000111,
          "durationTicks": 150,
          "midi": 48,
          "name": "C3",
          "ticks": 38700,
          "time": 31.721293499999998,
          "velocity": 0.6299212598425197
        },
        {
          "duration": 0.12295075000000111,
          "durationTicks": 150,
          "midi": 48,
          "name": "C3",
          "ticks": 38850,
          "time": 31.84424425,
          "velocity": 0.3858267716535433
        },
        {
          "duration": 0.12295074999999756,
          "durationTicks": 150,
          "midi": 48,
          "name": "C3",
          "ticks": 39000,
          "time": 31.967195,
          "velocity": 0.6299212598425197
        },
        {
          "duration": 0.12295075000000111,
          "durationTicks": 150,
          "midi": 48,
          "name": "C3",
          "ticks": 39150,
          "time": 32.09014575,
          "velocity": 0.3858267716535433
        },
        {
          "duration": 0.12295075000000111,
          "durationTicks": 150,
          "midi": 48,
          "name": "C3",
          "ticks": 39300,
          "time": 32.2130965,
          "velocity": 0.6299212598425197
        },
        {
          "duration": 0.24590150000000222,
          "durationTicks": 300,
          "midi": 48,
          "name": "C3",
          "ticks": 39450,
          "time": 32.33604725,
          "velocity": 0.6299212598425197
        },
        {
          "duration": 0,
          "durationTicks": 0,
          "midi": 84,
          "name": "C6",
          "ticks": 39600,
          "time": 32.458998,
          "velocity": 0.7480314960629921
        },
        {
          "duration": 0.122950749999994,
          "durationTicks": 150,
          "midi": 48,
          "name": "C3",
          "ticks": 39750,
          "time": 32.58194875,
          "velocity": 0.3858267716535433
        },
        {
          "duration": 0.12295075000000111,
          "durationTicks": 150,
          "midi": 48,
          "name": "C3",
          "ticks": 39900,
          "time": 32.704899499999996,
          "velocity": 0.6377952755905512
        },
        {
          "duration": 0,
          "durationTicks": 0,
          "midi": 84,
          "name": "C6",
          "ticks": 40050,
          "time": 32.82785025,
          "velocity": 0.7559055118110236
        },
        {
          "duration": 0.12295075000000111,
          "durationTicks": 150,
          "midi": 48,
          "name": "C3",
          "ticks": 40050,
          "time": 32.82785025,
          "velocity": 0.3858267716535433
        },
        {
          "duration": 0.49180300000000443,
          "durationTicks": 600,
          "midi": 86,
          "name": "D6",
          "ticks": 40200,
          "time": 32.950801,
          "velocity": 0.7559055118110236
        },
        {
          "duration": 0.12295075000000111,
          "durationTicks": 150,
          "midi": 48,
          "name": "C3",
          "ticks": 40200,
          "time": 32.950801,
          "velocity": 0.6377952755905512
        },
        {
          "duration": 0.12295075000000111,
          "durationTicks": 150,
          "midi": 48,
          "name": "C3",
          "ticks": 40350,
          "time": 33.07375175,
          "velocity": 0.3858267716535433
        },
        {
          "duration": 0.12295075000000111,
          "durationTicks": 150,
          "midi": 48,
          "name": "C3",
          "ticks": 40500,
          "time": 33.1967025,
          "velocity": 0.6377952755905512
        },
        {
          "duration": 0.12295075000000111,
          "durationTicks": 150,
          "midi": 48,
          "name": "C3",
          "ticks": 40650,
          "time": 33.31965325,
          "velocity": 0.3937007874015748
        },
        {
          "duration": 1.475408999999999,
          "durationTicks": 1800,
          "midi": 87,
          "name": "D#6",
          "ticks": 40800,
          "time": 33.442604,
          "velocity": 0.7559055118110236
        },
        {
          "duration": 0.122950749999994,
          "durationTicks": 150,
          "midi": 48,
          "name": "C3",
          "ticks": 40800,
          "time": 33.442604,
          "velocity": 0.6299212598425197
        },
        {
          "duration": 0.12295075000000111,
          "durationTicks": 150,
          "midi": 48,
          "name": "C3",
          "ticks": 40950,
          "time": 33.56555475,
          "velocity": 0.3858267716535433
        },
        {
          "duration": 0.12295075000000111,
          "durationTicks": 150,
          "midi": 48,
          "name": "C3",
          "ticks": 41100,
          "time": 33.6885055,
          "velocity": 0.6299212598425197
        },
        {
          "duration": 0.12295075000000111,
          "durationTicks": 150,
          "midi": 48,
          "name": "C3",
          "ticks": 41250,
          "time": 33.81145625,
          "velocity": 0.3858267716535433
        },
        {
          "duration": 0.12295075000000111,
          "durationTicks": 150,
          "midi": 48,
          "name": "C3",
          "ticks": 41400,
          "time": 33.934407,
          "velocity": 0.6299212598425197
        },
        {
          "duration": 0.12295075000000111,
          "durationTicks": 150,
          "midi": 48,
          "name": "C3",
          "ticks": 41550,
          "time": 34.05735775,
          "velocity": 0.3858267716535433
        },
        {
          "duration": 0.122950749999994,
          "durationTicks": 150,
          "midi": 48,
          "name": "C3",
          "ticks": 41700,
          "time": 34.1803085,
          "velocity": 0.6299212598425197
        },
        {
          "duration": 0.24590150000000222,
          "durationTicks": 300,
          "midi": 48,
          "name": "C3",
          "ticks": 41850,
          "time": 34.303259249999996,
          "velocity": 0.6299212598425197
        },
        {
          "duration": 0.12295075000000111,
          "durationTicks": 150,
          "midi": 48,
          "name": "C3",
          "ticks": 42150,
          "time": 34.54916075,
          "velocity": 0.3858267716535433
        },
        {
          "duration": 0.12295075000000111,
          "durationTicks": 150,
          "midi": 48,
          "name": "C3",
          "ticks": 42300,
          "time": 34.6721115,
          "velocity": 0.6377952755905512
        },
        {
          "duration": 0.12295075000000111,
          "durationTicks": 150,
          "midi": 48,
          "name": "C3",
          "ticks": 42450,
          "time": 34.79506225,
          "velocity": 0.3858267716535433
        },
        {
          "duration": 0.4918029999999973,
          "durationTicks": 600,
          "midi": 92,
          "name": "G#6",
          "ticks": 42600,
          "time": 34.918013,
          "velocity": 0.7637795275590551
        },
        {
          "duration": 0.122950749999994,
          "durationTicks": 150,
          "midi": 48,
          "name": "C3",
          "ticks": 42600,
          "time": 34.918013,
          "velocity": 0.6377952755905512
        },
        {
          "duration": 0.12295075000000111,
          "durationTicks": 150,
          "midi": 48,
          "name": "C3",
          "ticks": 42750,
          "time": 35.040963749999996,
          "velocity": 0.3858267716535433
        },
        {
          "duration": 0.12295075000000111,
          "durationTicks": 150,
          "midi": 48,
          "name": "C3",
          "ticks": 42900,
          "time": 35.1639145,
          "velocity": 0.6377952755905512
        },
        {
          "duration": 0.12295075000000111,
          "durationTicks": 150,
          "midi": 48,
          "name": "C3",
          "ticks": 43050,
          "time": 35.28686525,
          "velocity": 0.3937007874015748
        },
        {
          "duration": 0.4918029999999973,
          "durationTicks": 600,
          "midi": 91,
          "name": "G6",
          "ticks": 43200,
          "time": 35.409816,
          "velocity": 0.7637795275590551
        },
        {
          "duration": 0.12295075000000111,
          "durationTicks": 150,
          "midi": 44,
          "name": "G#2",
          "ticks": 43200,
          "time": 35.409816,
          "velocity": 0.6299212598425197
        },
        {
          "duration": 0.12295075000000111,
          "durationTicks": 150,
          "midi": 44,
          "name": "G#2",
          "ticks": 43350,
          "time": 35.53276675,
          "velocity": 0.3858267716535433
        },
        {
          "duration": 0.12295075000000111,
          "durationTicks": 150,
          "midi": 44,
          "name": "G#2",
          "ticks": 43500,
          "time": 35.6557175,
          "velocity": 0.6299212598425197
        },
        {
          "duration": 0.122950749999994,
          "durationTicks": 150,
          "midi": 44,
          "name": "G#2",
          "ticks": 43650,
          "time": 35.77866825,
          "velocity": 0.3858267716535433
        },
        {
          "duration": 0.49180300000000443,
          "durationTicks": 600,
          "midi": 87,
          "name": "D#6",
          "ticks": 43800,
          "time": 35.901619,
          "velocity": 0.7637795275590551
        },
        {
          "duration": 0.12295075000000111,
          "durationTicks": 150,
          "midi": 44,
          "name": "G#2",
          "ticks": 43800,
          "time": 35.901619,
          "velocity": 0.6299212598425197
        },
        {
          "duration": 0.12295075000000111,
          "durationTicks": 150,
          "midi": 44,
          "name": "G#2",
          "ticks": 43950,
          "time": 36.02456975,
          "velocity": 0.3858267716535433
        },
        {
          "duration": 0.12295075000000111,
          "durationTicks": 150,
          "midi": 44,
          "name": "G#2",
          "ticks": 44100,
          "time": 36.1475205,
          "velocity": 0.6299212598425197
        },
        {
          "duration": 0.24590150000000222,
          "durationTicks": 300,
          "midi": 44,
          "name": "G#2",
          "ticks": 44250,
          "time": 36.27047125,
          "velocity": 0.6299212598425197
        },
        {
          "duration": 0.4918029999999973,
          "durationTicks": 600,
          "midi": 89,
          "name": "F6",
          "ticks": 44400,
          "time": 36.393422,
          "velocity": 0.7637795275590551
        },
        {
          "duration": 0.122950749999994,
          "durationTicks": 150,
          "midi": 44,
          "name": "G#2",
          "ticks": 44550,
          "time": 36.51637275,
          "velocity": 0.3858267716535433
        },
        {
          "duration": 0.12295075000000111,
          "durationTicks": 150,
          "midi": 44,
          "name": "G#2",
          "ticks": 44700,
          "time": 36.639323499999996,
          "velocity": 0.6377952755905512
        },
        {
          "duration": 0.12295075000000111,
          "durationTicks": 150,
          "midi": 44,
          "name": "G#2",
          "ticks": 44850,
          "time": 36.76227425,
          "velocity": 0.3858267716535433
        },
        {
          "duration": 0.4918029999999973,
          "durationTicks": 600,
          "midi": 86,
          "name": "D6",
          "ticks": 45000,
          "time": 36.885225,
          "velocity": 0.7716535433070866
        },
        {
          "duration": 0.12295075000000111,
          "durationTicks": 150,
          "midi": 44,
          "name": "G#2",
          "ticks": 45000,
          "time": 36.885225,
          "velocity": 0.6377952755905512
        },
        {
          "duration": 0.12295075000000111,
          "durationTicks": 150,
          "midi": 44,
          "name": "G#2",
          "ticks": 45150,
          "time": 37.00817575,
          "velocity": 0.3858267716535433
        },
        {
          "duration": 0.12295075000000111,
          "durationTicks": 150,
          "midi": 44,
          "name": "G#2",
          "ticks": 45300,
          "time": 37.1311265,
          "velocity": 0.6377952755905512
        },
        {
          "duration": 0.122950749999994,
          "durationTicks": 150,
          "midi": 44,
          "name": "G#2",
          "ticks": 45450,
          "time": 37.25407725,
          "velocity": 0.3937007874015748
        },
        {
          "duration": 1.9672120000000035,
          "durationTicks": 2400,
          "midi": 87,
          "name": "D#6",
          "ticks": 45600,
          "time": 37.377027999999996,
          "velocity": 0.7716535433070866
        },
        {
          "duration": 0.12295075000000111,
          "durationTicks": 150,
          "midi": 46,
          "name": "A#2",
          "ticks": 45600,
          "time": 37.377027999999996,
          "velocity": 0.6299212598425197
        },
        {
          "duration": 0.12295075000000111,
          "durationTicks": 150,
          "midi": 46,
          "name": "A#2",
          "ticks": 45750,
          "time": 37.49997875,
          "velocity": 0.3858267716535433
        },
        {
          "duration": 0.12295075000000111,
          "durationTicks": 150,
          "midi": 46,
          "name": "A#2",
          "ticks": 45900,
          "time": 37.6229295,
          "velocity": 0.6299212598425197
        },
        {
          "duration": 0.12295075000000111,
          "durationTicks": 150,
          "midi": 46,
          "name": "A#2",
          "ticks": 46050,
          "time": 37.74588025,
          "velocity": 0.3858267716535433
        },
        {
          "duration": 0.12295075000000111,
          "durationTicks": 150,
          "midi": 46,
          "name": "A#2",
          "ticks": 46200,
          "time": 37.868831,
          "velocity": 0.6299212598425197
        },
        {
          "duration": 0.12295075000000111,
          "durationTicks": 150,
          "midi": 46,
          "name": "A#2",
          "ticks": 46350,
          "time": 37.99178175,
          "velocity": 0.3858267716535433
        },
        {
          "duration": 0.122950749999994,
          "durationTicks": 150,
          "midi": 46,
          "name": "A#2",
          "ticks": 46500,
          "time": 38.1147325,
          "velocity": 0.6299212598425197
        },
        {
          "duration": 0.24590150000000222,
          "durationTicks": 300,
          "midi": 47,
          "name": "B2",
          "ticks": 46650,
          "time": 38.237683249999996,
          "velocity": 0.6299212598425197
        },
        {
          "duration": 0.12295075000000111,
          "durationTicks": 150,
          "midi": 47,
          "name": "B2",
          "ticks": 46950,
          "time": 38.48358475,
          "velocity": 0.3858267716535433
        },
        {
          "duration": 0.12295075000000111,
          "durationTicks": 150,
          "midi": 47,
          "name": "B2",
          "ticks": 47100,
          "time": 38.6065355,
          "velocity": 0.6377952755905512
        },
        {
          "duration": 0.12295075000000111,
          "durationTicks": 150,
          "midi": 47,
          "name": "B2",
          "ticks": 47250,
          "time": 38.72948625,
          "velocity": 0.3858267716535433
        },
        {
          "duration": 0.122950749999994,
          "durationTicks": 150,
          "midi": 47,
          "name": "B2",
          "ticks": 47400,
          "time": 38.852437,
          "velocity": 0.6377952755905512
        },
        {
          "duration": 0.12295075000000111,
          "durationTicks": 150,
          "midi": 47,
          "name": "B2",
          "ticks": 47550,
          "time": 38.975387749999996,
          "velocity": 0.3858267716535433
        },
        {
          "duration": 0.12295075000000111,
          "durationTicks": 150,
          "midi": 47,
          "name": "B2",
          "ticks": 47700,
          "time": 39.0983385,
          "velocity": 0.6377952755905512
        },
        {
          "duration": 0.12295075000000111,
          "durationTicks": 150,
          "midi": 47,
          "name": "B2",
          "ticks": 47850,
          "time": 39.22128925,
          "velocity": 0.3937007874015748
        },
        {
          "duration": 0.9836060000000018,
          "durationTicks": 1200,
          "midi": 84,
          "name": "C6",
          "ticks": 48000,
          "time": 39.34424,
          "velocity": 0.7480314960629921
        },
        {
          "duration": 0.12295075000000111,
          "durationTicks": 150,
          "midi": 48,
          "name": "C3",
          "ticks": 48000,
          "time": 39.34424,
          "velocity": 0.6299212598425197
        },
        {
          "duration": 0.12295075000000111,
          "durationTicks": 150,
          "midi": 48,
          "name": "C3",
          "ticks": 48150,
          "time": 39.46719075,
          "velocity": 0.3858267716535433
        },
        {
          "duration": 0.12295075000000111,
          "durationTicks": 150,
          "midi": 48,
          "name": "C3",
          "ticks": 48300,
          "time": 39.5901415,
          "velocity": 0.6299212598425197
        },
        {
          "duration": 0.122950749999994,
          "durationTicks": 150,
          "midi": 48,
          "name": "C3",
          "ticks": 48450,
          "time": 39.71309225,
          "velocity": 0.3858267716535433
        },
        {
          "duration": 0.12295075000000111,
          "durationTicks": 150,
          "midi": 48,
          "name": "C3",
          "ticks": 48600,
          "time": 39.836043,
          "velocity": 0.6299212598425197
        },
        {
          "duration": 0.12295075000000111,
          "durationTicks": 150,
          "midi": 48,
          "name": "C3",
          "ticks": 48750,
          "time": 39.95899375,
          "velocity": 0.3858267716535433
        },
        {
          "duration": 0.12295075000000111,
          "durationTicks": 150,
          "midi": 48,
          "name": "C3",
          "ticks": 48900,
          "time": 40.0819445,
          "velocity": 0.6299212598425197
        },
        {
          "duration": 0.24590150000000222,
          "durationTicks": 300,
          "midi": 48,
          "name": "C3",
          "ticks": 49050,
          "time": 40.20489525,
          "velocity": 0.6299212598425197
        },
        {
          "duration": 0.3688522499999962,
          "durationTicks": 450,
          "midi": 84,
          "name": "C6",
          "ticks": 49200,
          "time": 40.327846,
          "velocity": 0.7480314960629921
        },
        {
          "duration": 0.122950749999994,
          "durationTicks": 150,
          "midi": 48,
          "name": "C3",
          "ticks": 49350,
          "time": 40.45079675,
          "velocity": 0.3858267716535433
        },
        {
          "duration": 0.12295075000000111,
          "durationTicks": 150,
          "midi": 48,
          "name": "C3",
          "ticks": 49500,
          "time": 40.573747499999996,
          "velocity": 0.6377952755905512
        },
        {
          "duration": 0.12295075000000111,
          "durationTicks": 150,
          "midi": 84,
          "name": "C6",
          "ticks": 49650,
          "time": 40.69669825,
          "velocity": 0.7559055118110236
        },
        {
          "duration": 0.12295075000000111,
          "durationTicks": 150,
          "midi": 48,
          "name": "C3",
          "ticks": 49650,
          "time": 40.69669825,
          "velocity": 0.3858267716535433
        },
        {
          "duration": 0.49180300000000443,
          "durationTicks": 600,
          "midi": 86,
          "name": "D6",
          "ticks": 49800,
          "time": 40.819649,
          "velocity": 0.7559055118110236
        },
        {
          "duration": 0.12295075000000111,
          "durationTicks": 150,
          "midi": 48,
          "name": "C3",
          "ticks": 49800,
          "time": 40.819649,
          "velocity": 0.6377952755905512
        },
        {
          "duration": 0.12295075000000111,
          "durationTicks": 150,
          "midi": 48,
          "name": "C3",
          "ticks": 49950,
          "time": 40.94259975,
          "velocity": 0.3858267716535433
        },
        {
          "duration": 0.12295075000000111,
          "durationTicks": 150,
          "midi": 48,
          "name": "C3",
          "ticks": 50100,
          "time": 41.0655505,
          "velocity": 0.6377952755905512
        },
        {
          "duration": 0.12295075000000111,
          "durationTicks": 150,
          "midi": 48,
          "name": "C3",
          "ticks": 50250,
          "time": 41.18850125,
          "velocity": 0.3937007874015748
        },
        {
          "duration": 1.475408999999999,
          "durationTicks": 1800,
          "midi": 87,
          "name": "D#6",
          "ticks": 50400,
          "time": 41.311452,
          "velocity": 0.7559055118110236
        },
        {
          "duration": 0.122950749999994,
          "durationTicks": 150,
          "midi": 48,
          "name": "C3",
          "ticks": 50400,
          "time": 41.311452,
          "velocity": 0.6299212598425197
        },
        {
          "duration": 0.12295075000000111,
          "durationTicks": 150,
          "midi": 48,
          "name": "C3",
          "ticks": 50550,
          "time": 41.43440275,
          "velocity": 0.3858267716535433
        },
        {
          "duration": 0.12295075000000111,
          "durationTicks": 150,
          "midi": 48,
          "name": "C3",
          "ticks": 50700,
          "time": 41.5573535,
          "velocity": 0.6299212598425197
        },
        {
          "duration": 0.12295075000000111,
          "durationTicks": 150,
          "midi": 48,
          "name": "C3",
          "ticks": 50850,
          "time": 41.68030425,
          "velocity": 0.3858267716535433
        },
        {
          "duration": 0.12295075000000111,
          "durationTicks": 150,
          "midi": 48,
          "name": "C3",
          "ticks": 51000,
          "time": 41.803255,
          "velocity": 0.6299212598425197
        },
        {
          "duration": 0.12295075000000111,
          "durationTicks": 150,
          "midi": 48,
          "name": "C3",
          "ticks": 51150,
          "time": 41.92620575,
          "velocity": 0.3858267716535433
        },
        {
          "duration": 0.122950749999994,
          "durationTicks": 150,
          "midi": 48,
          "name": "C3",
          "ticks": 51300,
          "time": 42.0491565,
          "velocity": 0.6299212598425197
        },
        {
          "duration": 0.24590150000000222,
          "durationTicks": 300,
          "midi": 48,
          "name": "C3",
          "ticks": 51450,
          "time": 42.172107249999996,
          "velocity": 0.6299212598425197
        },
        {
          "duration": 0.12295075000000111,
          "durationTicks": 150,
          "midi": 48,
          "name": "C3",
          "ticks": 51750,
          "time": 42.41800875,
          "velocity": 0.3858267716535433
        },
        {
          "duration": 0.12295075000000111,
          "durationTicks": 150,
          "midi": 48,
          "name": "C3",
          "ticks": 51900,
          "time": 42.5409595,
          "velocity": 0.6377952755905512
        },
        {
          "duration": 0.12295075000000111,
          "durationTicks": 150,
          "midi": 48,
          "name": "C3",
          "ticks": 52050,
          "time": 42.66391025,
          "velocity": 0.3858267716535433
        },
        {
          "duration": 0.4918029999999973,
          "durationTicks": 600,
          "midi": 92,
          "name": "G#6",
          "ticks": 52200,
          "time": 42.786861,
          "velocity": 0.7637795275590551
        },
        {
          "duration": 0.122950749999994,
          "durationTicks": 150,
          "midi": 48,
          "name": "C3",
          "ticks": 52200,
          "time": 42.786861,
          "velocity": 0.6377952755905512
        },
        {
          "duration": 0.12295075000000111,
          "durationTicks": 150,
          "midi": 48,
          "name": "C3",
          "ticks": 52350,
          "time": 42.909811749999996,
          "velocity": 0.3858267716535433
        },
        {
          "duration": 0.12295075000000111,
          "durationTicks": 150,
          "midi": 48,
          "name": "C3",
          "ticks": 52500,
          "time": 43.0327625,
          "velocity": 0.6377952755905512
        },
        {
          "duration": 0.12295075000000111,
          "durationTicks": 150,
          "midi": 48,
          "name": "C3",
          "ticks": 52650,
          "time": 43.15571325,
          "velocity": 0.3937007874015748
        },
        {
          "duration": 0.4918029999999973,
          "durationTicks": 600,
          "midi": 91,
          "name": "G6",
          "ticks": 52800,
          "time": 43.278664,
          "velocity": 0.7637795275590551
        },
        {
          "duration": 0.12295075000000111,
          "durationTicks": 150,
          "midi": 44,
          "name": "G#2",
          "ticks": 52800,
          "time": 43.278664,
          "velocity": 0.6299212598425197
        },
        {
          "duration": 0.12295075000000111,
          "durationTicks": 150,
          "midi": 44,
          "name": "G#2",
          "ticks": 52950,
          "time": 43.40161475,
          "velocity": 0.3858267716535433
        },
        {
          "duration": 0.12295075000000111,
          "durationTicks": 150,
          "midi": 44,
          "name": "G#2",
          "ticks": 53100,
          "time": 43.5245655,
          "velocity": 0.6299212598425197
        },
        {
          "duration": 0.122950749999994,
          "durationTicks": 150,
          "midi": 44,
          "name": "G#2",
          "ticks": 53250,
          "time": 43.64751625,
          "velocity": 0.3858267716535433
        },
        {
          "duration": 0.49180300000000443,
          "durationTicks": 600,
          "midi": 87,
          "name": "D#6",
          "ticks": 53400,
          "time": 43.770467,
          "velocity": 0.7637795275590551
        },
        {
          "duration": 0.12295075000000111,
          "durationTicks": 150,
          "midi": 44,
          "name": "G#2",
          "ticks": 53400,
          "time": 43.770467,
          "velocity": 0.6299212598425197
        },
        {
          "duration": 0.12295075000000111,
          "durationTicks": 150,
          "midi": 44,
          "name": "G#2",
          "ticks": 53550,
          "time": 43.89341775,
          "velocity": 0.3858267716535433
        },
        {
          "duration": 0.12295075000000111,
          "durationTicks": 150,
          "midi": 44,
          "name": "G#2",
          "ticks": 53700,
          "time": 44.0163685,
          "velocity": 0.6299212598425197
        },
        {
          "duration": 0.24590150000000222,
          "durationTicks": 300,
          "midi": 44,
          "name": "G#2",
          "ticks": 53850,
          "time": 44.13931925,
          "velocity": 0.6299212598425197
        },
        {
          "duration": 0.4918029999999973,
          "durationTicks": 600,
          "midi": 89,
          "name": "F6",
          "ticks": 54000,
          "time": 44.26227,
          "velocity": 0.7637795275590551
        },
        {
          "duration": 0.122950749999994,
          "durationTicks": 150,
          "midi": 44,
          "name": "G#2",
          "ticks": 54150,
          "time": 44.38522075,
          "velocity": 0.3858267716535433
        },
        {
          "duration": 0.12295075000000111,
          "durationTicks": 150,
          "midi": 44,
          "name": "G#2",
          "ticks": 54300,
          "time": 44.508171499999996,
          "velocity": 0.6377952755905512
        },
        {
          "duration": 0.12295075000000111,
          "durationTicks": 150,
          "midi": 44,
          "name": "G#2",
          "ticks": 54450,
          "time": 44.63112225,
          "velocity": 0.3858267716535433
        },
        {
          "duration": 0.4918029999999973,
          "durationTicks": 600,
          "midi": 86,
          "name": "D6",
          "ticks": 54600,
          "time": 44.754073,
          "velocity": 0.7716535433070866
        },
        {
          "duration": 0.12295075000000111,
          "durationTicks": 150,
          "midi": 44,
          "name": "G#2",
          "ticks": 54600,
          "time": 44.754073,
          "velocity": 0.6377952755905512
        },
        {
          "duration": 0.12295075000000111,
          "durationTicks": 150,
          "midi": 44,
          "name": "G#2",
          "ticks": 54750,
          "time": 44.87702375,
          "velocity": 0.3858267716535433
        },
        {
          "duration": 0.12295075000000111,
          "durationTicks": 150,
          "midi": 44,
          "name": "G#2",
          "ticks": 54900,
          "time": 44.9999745,
          "velocity": 0.6377952755905512
        },
        {
          "duration": 0.122950749999994,
          "durationTicks": 150,
          "midi": 44,
          "name": "G#2",
          "ticks": 55050,
          "time": 45.12292525,
          "velocity": 0.3937007874015748
        },
        {
          "duration": 1.9672120000000035,
          "durationTicks": 2400,
          "midi": 87,
          "name": "D#6",
          "ticks": 55200,
          "time": 45.245875999999996,
          "velocity": 0.7716535433070866
        },
        {
          "duration": 0.12295075000000111,
          "durationTicks": 150,
          "midi": 46,
          "name": "A#2",
          "ticks": 55200,
          "time": 45.245875999999996,
          "velocity": 0.6299212598425197
        },
        {
          "duration": 0.12295075000000111,
          "durationTicks": 150,
          "midi": 46,
          "name": "A#2",
          "ticks": 55350,
          "time": 45.36882675,
          "velocity": 0.3858267716535433
        },
        {
          "duration": 0.12295075000000111,
          "durationTicks": 150,
          "midi": 46,
          "name": "A#2",
          "ticks": 55500,
          "time": 45.4917775,
          "velocity": 0.6299212598425197
        },
        {
          "duration": 0.12295075000000111,
          "durationTicks": 150,
          "midi": 46,
          "name": "A#2",
          "ticks": 55650,
          "time": 45.61472825,
          "velocity": 0.3858267716535433
        },
        {
          "duration": 0.12295075000000111,
          "durationTicks": 150,
          "midi": 46,
          "name": "A#2",
          "ticks": 55800,
          "time": 45.737679,
          "velocity": 0.6299212598425197
        },
        {
          "duration": 0.12295075000000111,
          "durationTicks": 150,
          "midi": 46,
          "name": "A#2",
          "ticks": 55950,
          "time": 45.86062975,
          "velocity": 0.3858267716535433
        },
        {
          "duration": 0.122950749999994,
          "durationTicks": 150,
          "midi": 46,
          "name": "A#2",
          "ticks": 56100,
          "time": 45.9835805,
          "velocity": 0.6299212598425197
        },
        {
          "duration": 0.24590150000000222,
          "durationTicks": 300,
          "midi": 47,
          "name": "B2",
          "ticks": 56250,
          "time": 46.106531249999996,
          "velocity": 0.6299212598425197
        },
        {
          "duration": 0.12295075000000111,
          "durationTicks": 150,
          "midi": 47,
          "name": "B2",
          "ticks": 56550,
          "time": 46.35243275,
          "velocity": 0.3858267716535433
        },
        {
          "duration": 0.12295075000000111,
          "durationTicks": 150,
          "midi": 47,
          "name": "B2",
          "ticks": 56700,
          "time": 46.4753835,
          "velocity": 0.6377952755905512
        },
        {
          "duration": 0.12295075000000111,
          "durationTicks": 150,
          "midi": 47,
          "name": "B2",
          "ticks": 56850,
          "time": 46.59833425,
          "velocity": 0.3858267716535433
        },
        {
          "duration": 0.122950749999994,
          "durationTicks": 150,
          "midi": 47,
          "name": "B2",
          "ticks": 57000,
          "time": 46.721285,
          "velocity": 0.6377952755905512
        },
        {
          "duration": 0.12295075000000111,
          "durationTicks": 150,
          "midi": 47,
          "name": "B2",
          "ticks": 57150,
          "time": 46.844235749999996,
          "velocity": 0.3858267716535433
        },
        {
          "duration": 0.12295075000000111,
          "durationTicks": 150,
          "midi": 47,
          "name": "B2",
          "ticks": 57300,
          "time": 46.9671865,
          "velocity": 0.6377952755905512
        },
        {
          "duration": 0.12295075000000111,
          "durationTicks": 150,
          "midi": 47,
          "name": "B2",
          "ticks": 57450,
          "time": 47.09013725,
          "velocity": 0.3937007874015748
        },
        {
          "duration": 0.12295075000000111,
          "durationTicks": 150,
          "midi": 48,
          "name": "C3",
          "ticks": 57600,
          "time": 47.213088,
          "velocity": 0.6299212598425197
        },
        {
          "duration": 0.12295075000000111,
          "durationTicks": 150,
          "midi": 48,
          "name": "C3",
          "ticks": 57750,
          "time": 47.33603875,
          "velocity": 0.3858267716535433
        },
        {
          "duration": 0.12295075000000111,
          "durationTicks": 150,
          "midi": 48,
          "name": "C3",
          "ticks": 57900,
          "time": 47.4589895,
          "velocity": 0.6299212598425197
        },
        {
          "duration": 0.122950749999994,
          "durationTicks": 150,
          "midi": 48,
          "name": "C3",
          "ticks": 58050,
          "time": 47.58194025,
          "velocity": 0.3858267716535433
        },
        {
          "duration": 0.12295075000000111,
          "durationTicks": 150,
          "midi": 48,
          "name": "C3",
          "ticks": 58200,
          "time": 47.704890999999996,
          "velocity": 0.6299212598425197
        },
        {
          "duration": 0.12295075000000111,
          "durationTicks": 150,
          "midi": 48,
          "name": "C3",
          "ticks": 58350,
          "time": 47.82784175,
          "velocity": 0.3858267716535433
        },
        {
          "duration": 0.12295075000000111,
          "durationTicks": 150,
          "midi": 48,
          "name": "C3",
          "ticks": 58500,
          "time": 47.9507925,
          "velocity": 0.6299212598425197
        },
        {
          "duration": 0.24590150000000222,
          "durationTicks": 300,
          "midi": 48,
          "name": "C3",
          "ticks": 58650,
          "time": 48.07374325,
          "velocity": 0.6299212598425197
        },
        {
          "duration": 0.122950749999994,
          "durationTicks": 150,
          "midi": 48,
          "name": "C3",
          "ticks": 58950,
          "time": 48.31964475,
          "velocity": 0.3858267716535433
        },
        {
          "duration": 0.12295075000000111,
          "durationTicks": 150,
          "midi": 48,
          "name": "C3",
          "ticks": 59100,
          "time": 48.442595499999996,
          "velocity": 0.6377952755905512
        },
        {
          "duration": 0.12295075000000111,
          "durationTicks": 150,
          "midi": 48,
          "name": "C3",
          "ticks": 59250,
          "time": 48.56554625,
          "velocity": 0.3858267716535433
        },
        {
          "duration": 0.12295075000000111,
          "durationTicks": 150,
          "midi": 48,
          "name": "C3",
          "ticks": 59400,
          "time": 48.688497,
          "velocity": 0.6377952755905512
        },
        {
          "duration": 0.12295075000000111,
          "durationTicks": 150,
          "midi": 48,
          "name": "C3",
          "ticks": 59550,
          "time": 48.81144775,
          "velocity": 0.3858267716535433
        },
        {
          "duration": 0.12295075000000111,
          "durationTicks": 150,
          "midi": 48,
          "name": "C3",
          "ticks": 59700,
          "time": 48.9343985,
          "velocity": 0.6377952755905512
        },
        {
          "duration": 0.12295075000000111,
          "durationTicks": 150,
          "midi": 48,
          "name": "C3",
          "ticks": 59850,
          "time": 49.05734925,
          "velocity": 0.3937007874015748
        },
        {
          "duration": 0.122950749999994,
          "durationTicks": 150,
          "midi": 48,
          "name": "C3",
          "ticks": 60000,
          "time": 49.1803,
          "velocity": 0.6299212598425197
        },
        {
          "duration": 0.12295075000000111,
          "durationTicks": 150,
          "midi": 48,
          "name": "C3",
          "ticks": 60150,
          "time": 49.30325075,
          "velocity": 0.3858267716535433
        },
        {
          "duration": 0.12295075000000111,
          "durationTicks": 150,
          "midi": 48,
          "name": "C3",
          "ticks": 60300,
          "time": 49.4262015,
          "velocity": 0.6299212598425197
        },
        {
          "duration": 0.12295075000000111,
          "durationTicks": 150,
          "midi": 48,
          "name": "C3",
          "ticks": 60450,
          "time": 49.54915225,
          "velocity": 0.3858267716535433
        },
        {
          "duration": 0.12295075000000111,
          "durationTicks": 150,
          "midi": 48,
          "name": "C3",
          "ticks": 60600,
          "time": 49.672103,
          "velocity": 0.6299212598425197
        },
        {
          "duration": 0.12295075000000111,
          "durationTicks": 150,
          "midi": 48,
          "name": "C3",
          "ticks": 60750,
          "time": 49.79505375,
          "velocity": 0.3858267716535433
        },
        {
          "duration": 0.122950749999994,
          "durationTicks": 150,
          "midi": 48,
          "name": "C3",
          "ticks": 60900,
          "time": 49.9180045,
          "velocity": 0.6299212598425197
        },
        {
          "duration": 0.24590150000000222,
          "durationTicks": 300,
          "midi": 48,
          "name": "C3",
          "ticks": 61050,
          "time": 50.040955249999996,
          "velocity": 0.6299212598425197
        },
        {
          "duration": 0.12295075000000111,
          "durationTicks": 150,
          "midi": 48,
          "name": "C3",
          "ticks": 61350,
          "time": 50.28685675,
          "velocity": 0.3858267716535433
        },
        {
          "duration": 0.12295075000000111,
          "durationTicks": 150,
          "midi": 48,
          "name": "C3",
          "ticks": 61500,
          "time": 50.4098075,
          "velocity": 0.6377952755905512
        },
        {
          "duration": 0.12295075000000111,
          "durationTicks": 150,
          "midi": 48,
          "name": "C3",
          "ticks": 61650,
          "time": 50.53275825,
          "velocity": 0.3858267716535433
        },
        {
          "duration": 0.122950749999994,
          "durationTicks": 150,
          "midi": 48,
          "name": "C3",
          "ticks": 61800,
          "time": 50.655709,
          "velocity": 0.6377952755905512
        },
        {
          "duration": 0.12295075000000111,
          "durationTicks": 150,
          "midi": 48,
          "name": "C3",
          "ticks": 61950,
          "time": 50.778659749999996,
          "velocity": 0.3858267716535433
        },
        {
          "duration": 0.12295075000000111,
          "durationTicks": 150,
          "midi": 48,
          "name": "C3",
          "ticks": 62100,
          "time": 50.9016105,
          "velocity": 0.6377952755905512
        },
        {
          "duration": 0.12295075000000111,
          "durationTicks": 150,
          "midi": 48,
          "name": "C3",
          "ticks": 62250,
          "time": 51.02456125,
          "velocity": 0.3937007874015748
        },
        {
          "duration": 0.12295075000000111,
          "durationTicks": 150,
          "midi": 44,
          "name": "G#2",
          "ticks": 62400,
          "time": 51.147512,
          "velocity": 0.6299212598425197
        },
        {
          "duration": 0.12295075000000111,
          "durationTicks": 150,
          "midi": 44,
          "name": "G#2",
          "ticks": 62550,
          "time": 51.27046275,
          "velocity": 0.3858267716535433
        },
        {
          "duration": 0.12295075000000111,
          "durationTicks": 150,
          "midi": 44,
          "name": "G#2",
          "ticks": 62700,
          "time": 51.3934135,
          "velocity": 0.6299212598425197
        },
        {
          "duration": 0.122950749999994,
          "durationTicks": 150,
          "midi": 44,
          "name": "G#2",
          "ticks": 62850,
          "time": 51.51636425,
          "velocity": 0.3858267716535433
        },
        {
          "duration": 0.12295075000000111,
          "durationTicks": 150,
          "midi": 44,
          "name": "G#2",
          "ticks": 63000,
          "time": 51.639314999999996,
          "velocity": 0.6299212598425197
        },
        {
          "duration": 0.12295075000000111,
          "durationTicks": 150,
          "midi": 44,
          "name": "G#2",
          "ticks": 63150,
          "time": 51.76226575,
          "velocity": 0.3858267716535433
        },
        {
          "duration": 0.12295075000000111,
          "durationTicks": 150,
          "midi": 44,
          "name": "G#2",
          "ticks": 63300,
          "time": 51.8852165,
          "velocity": 0.6299212598425197
        },
        {
          "duration": 0.24590150000000222,
          "durationTicks": 300,
          "midi": 44,
          "name": "G#2",
          "ticks": 63450,
          "time": 52.00816725,
          "velocity": 0.6299212598425197
        },
        {
          "duration": 0.122950749999994,
          "durationTicks": 150,
          "midi": 44,
          "name": "G#2",
          "ticks": 63750,
          "time": 52.25406875,
          "velocity": 0.3858267716535433
        },
        {
          "duration": 0.12295075000000111,
          "durationTicks": 150,
          "midi": 44,
          "name": "G#2",
          "ticks": 63900,
          "time": 52.377019499999996,
          "velocity": 0.6377952755905512
        },
        {
          "duration": 0.12295075000000111,
          "durationTicks": 150,
          "midi": 44,
          "name": "G#2",
          "ticks": 64050,
          "time": 52.49997025,
          "velocity": 0.3858267716535433
        },
        {
          "duration": 0.12295075000000111,
          "durationTicks": 150,
          "midi": 44,
          "name": "G#2",
          "ticks": 64200,
          "time": 52.622921,
          "velocity": 0.6377952755905512
        },
        {
          "duration": 0.12295075000000111,
          "durationTicks": 150,
          "midi": 44,
          "name": "G#2",
          "ticks": 64350,
          "time": 52.74587175,
          "velocity": 0.3858267716535433
        },
        {
          "duration": 0.12295075000000111,
          "durationTicks": 150,
          "midi": 44,
          "name": "G#2",
          "ticks": 64500,
          "time": 52.8688225,
          "velocity": 0.6377952755905512
        },
        {
          "duration": 0.122950749999994,
          "durationTicks": 150,
          "midi": 44,
          "name": "G#2",
          "ticks": 64650,
          "time": 52.99177325,
          "velocity": 0.3937007874015748
        },
        {
          "duration": 0.12295075000000111,
          "durationTicks": 150,
          "midi": 46,
          "name": "A#2",
          "ticks": 64800,
          "time": 53.114723999999995,
          "velocity": 0.6299212598425197
        },
        {
          "duration": 0.12295075000000111,
          "durationTicks": 150,
          "midi": 46,
          "name": "A#2",
          "ticks": 64950,
          "time": 53.23767475,
          "velocity": 0.3858267716535433
        },
        {
          "duration": 0.12295075000000111,
          "durationTicks": 150,
          "midi": 46,
          "name": "A#2",
          "ticks": 65100,
          "time": 53.3606255,
          "velocity": 0.6299212598425197
        },
        {
          "duration": 0.12295075000000111,
          "durationTicks": 150,
          "midi": 46,
          "name": "A#2",
          "ticks": 65250,
          "time": 53.48357625,
          "velocity": 0.3858267716535433
        },
        {
          "duration": 0.12295075000000111,
          "durationTicks": 150,
          "midi": 46,
          "name": "A#2",
          "ticks": 65400,
          "time": 53.606527,
          "velocity": 0.6299212598425197
        },
        {
          "duration": 0.12295075000000111,
          "durationTicks": 150,
          "midi": 46,
          "name": "A#2",
          "ticks": 65550,
          "time": 53.72947775,
          "velocity": 0.3858267716535433
        },
        {
          "duration": 0.122950749999994,
          "durationTicks": 150,
          "midi": 46,
          "name": "A#2",
          "ticks": 65700,
          "time": 53.8524285,
          "velocity": 0.6299212598425197
        },
        {
          "duration": 0.24590150000000222,
          "durationTicks": 300,
          "midi": 47,
          "name": "B2",
          "ticks": 65850,
          "time": 53.975379249999996,
          "velocity": 0.6299212598425197
        },
        {
          "duration": 0.12295075000000111,
          "durationTicks": 150,
          "midi": 47,
          "name": "B2",
          "ticks": 66150,
          "time": 54.22128075,
          "velocity": 0.3858267716535433
        },
        {
          "duration": 0.12295075000000111,
          "durationTicks": 150,
          "midi": 47,
          "name": "B2",
          "ticks": 66300,
          "time": 54.3442315,
          "velocity": 0.6377952755905512
        },
        {
          "duration": 0.12295075000000111,
          "durationTicks": 150,
          "midi": 47,
          "name": "B2",
          "ticks": 66450,
          "time": 54.46718225,
          "velocity": 0.3858267716535433
        },
        {
          "duration": 0.122950749999994,
          "durationTicks": 150,
          "midi": 47,
          "name": "B2",
          "ticks": 66600,
          "time": 54.590133,
          "velocity": 0.6377952755905512
        },
        {
          "duration": 0.12295075000000111,
          "durationTicks": 150,
          "midi": 47,
          "name": "B2",
          "ticks": 66750,
          "time": 54.713083749999996,
          "velocity": 0.3858267716535433
        },
        {
          "duration": 0.12295075000000111,
          "durationTicks": 150,
          "midi": 47,
          "name": "B2",
          "ticks": 66900,
          "time": 54.8360345,
          "velocity": 0.6377952755905512
        },
        {
          "duration": 0.12295075000000111,
          "durationTicks": 150,
          "midi": 47,
          "name": "B2",
          "ticks": 67050,
          "time": 54.95898525,
          "velocity": 0.3937007874015748
        },
        {
          "duration": 0.12295075000000111,
          "durationTicks": 150,
          "midi": 48,
          "name": "C3",
          "ticks": 67200,
          "time": 55.081936,
          "velocity": 0.6299212598425197
        },
        {
          "duration": 0.12295075000000111,
          "durationTicks": 150,
          "midi": 48,
          "name": "C3",
          "ticks": 67350,
          "time": 55.20488675,
          "velocity": 0.3858267716535433
        },
        {
          "duration": 0.12295075000000111,
          "durationTicks": 150,
          "midi": 48,
          "name": "C3",
          "ticks": 67500,
          "time": 55.3278375,
          "velocity": 0.6299212598425197
        },
        {
          "duration": 0.122950749999994,
          "durationTicks": 150,
          "midi": 48,
          "name": "C3",
          "ticks": 67650,
          "time": 55.45078825,
          "velocity": 0.3858267716535433
        },
        {
          "duration": 0.12295075000000111,
          "durationTicks": 150,
          "midi": 48,
          "name": "C3",
          "ticks": 67800,
          "time": 55.573738999999996,
          "velocity": 0.6299212598425197
        },
        {
          "duration": 0.12295075000000111,
          "durationTicks": 150,
          "midi": 48,
          "name": "C3",
          "ticks": 67950,
          "time": 55.69668975,
          "velocity": 0.3858267716535433
        },
        {
          "duration": 0.12295075000000111,
          "durationTicks": 150,
          "midi": 48,
          "name": "C3",
          "ticks": 68100,
          "time": 55.8196405,
          "velocity": 0.6299212598425197
        },
        {
          "duration": 0.24590150000000222,
          "durationTicks": 300,
          "midi": 48,
          "name": "C3",
          "ticks": 68250,
          "time": 55.94259125,
          "velocity": 0.6299212598425197
        },
        {
          "duration": 0.122950749999994,
          "durationTicks": 150,
          "midi": 48,
          "name": "C3",
          "ticks": 68550,
          "time": 56.18849275,
          "velocity": 0.3858267716535433
        },
        {
          "duration": 0.12295075000000111,
          "durationTicks": 150,
          "midi": 48,
          "name": "C3",
          "ticks": 68700,
          "time": 56.311443499999996,
          "velocity": 0.6377952755905512
        },
        {
          "duration": 0.12295075000000111,
          "durationTicks": 150,
          "midi": 48,
          "name": "C3",
          "ticks": 68850,
          "time": 56.43439425,
          "velocity": 0.3858267716535433
        },
        {
          "duration": 0.12295075000000111,
          "durationTicks": 150,
          "midi": 48,
          "name": "C3",
          "ticks": 69000,
          "time": 56.557345,
          "velocity": 0.6377952755905512
        },
        {
          "duration": 0.12295075000000111,
          "durationTicks": 150,
          "midi": 48,
          "name": "C3",
          "ticks": 69150,
          "time": 56.68029575,
          "velocity": 0.3858267716535433
        },
        {
          "duration": 0.12295075000000111,
          "durationTicks": 150,
          "midi": 48,
          "name": "C3",
          "ticks": 69300,
          "time": 56.8032465,
          "velocity": 0.6377952755905512
        },
        {
          "duration": 0.12295075000000111,
          "durationTicks": 150,
          "midi": 48,
          "name": "C3",
          "ticks": 69450,
          "time": 56.92619725,
          "velocity": 0.3937007874015748
        },
        {
          "duration": 0.122950749999994,
          "durationTicks": 150,
          "midi": 48,
          "name": "C3",
          "ticks": 69600,
          "time": 57.049148,
          "velocity": 0.6299212598425197
        },
        {
          "duration": 0.12295075000000111,
          "durationTicks": 150,
          "midi": 48,
          "name": "C3",
          "ticks": 69750,
          "time": 57.172098749999996,
          "velocity": 0.3858267716535433
        },
        {
          "duration": 0.12295075000000111,
          "durationTicks": 150,
          "midi": 48,
          "name": "C3",
          "ticks": 69900,
          "time": 57.2950495,
          "velocity": 0.6299212598425197
        },
        {
          "duration": 0.12295075000000111,
          "durationTicks": 150,
          "midi": 48,
          "name": "C3",
          "ticks": 70050,
          "time": 57.41800025,
          "velocity": 0.3858267716535433
        },
        {
          "duration": 0.12295075000000111,
          "durationTicks": 150,
          "midi": 48,
          "name": "C3",
          "ticks": 70200,
          "time": 57.540951,
          "velocity": 0.6299212598425197
        },
        {
          "duration": 0.12295075000000111,
          "durationTicks": 150,
          "midi": 48,
          "name": "C3",
          "ticks": 70350,
          "time": 57.66390175,
          "velocity": 0.3858267716535433
        },
        {
          "duration": 0.122950749999994,
          "durationTicks": 150,
          "midi": 48,
          "name": "C3",
          "ticks": 70500,
          "time": 57.7868525,
          "velocity": 0.6299212598425197
        },
        {
          "duration": 0.24590150000000222,
          "durationTicks": 300,
          "midi": 48,
          "name": "C3",
          "ticks": 70650,
          "time": 57.909803249999996,
          "velocity": 0.6299212598425197
        },
        {
          "duration": 0.12295075000000111,
          "durationTicks": 150,
          "midi": 48,
          "name": "C3",
          "ticks": 70950,
          "time": 58.15570475,
          "velocity": 0.3858267716535433
        },
        {
          "duration": 0.12295075000000111,
          "durationTicks": 150,
          "midi": 48,
          "name": "C3",
          "ticks": 71100,
          "time": 58.2786555,
          "velocity": 0.6377952755905512
        },
        {
          "duration": 0.12295075000000111,
          "durationTicks": 150,
          "midi": 48,
          "name": "C3",
          "ticks": 71250,
          "time": 58.40160625,
          "velocity": 0.3858267716535433
        },
        {
          "duration": 0.122950749999994,
          "durationTicks": 150,
          "midi": 48,
          "name": "C3",
          "ticks": 71400,
          "time": 58.524557,
          "velocity": 0.6377952755905512
        },
        {
          "duration": 0.12295075000000111,
          "durationTicks": 150,
          "midi": 48,
          "name": "C3",
          "ticks": 71550,
          "time": 58.647507749999995,
          "velocity": 0.3858267716535433
        },
        {
          "duration": 0.12295075000000111,
          "durationTicks": 150,
          "midi": 48,
          "name": "C3",
          "ticks": 71700,
          "time": 58.7704585,
          "velocity": 0.6377952755905512
        },
        {
          "duration": 0.12295075000000111,
          "durationTicks": 150,
          "midi": 48,
          "name": "C3",
          "ticks": 71850,
          "time": 58.89340925,
          "velocity": 0.3937007874015748
        },
        {
          "duration": 0.12295075000000111,
          "durationTicks": 150,
          "midi": 44,
          "name": "G#2",
          "ticks": 72000,
          "time": 59.01636,
          "velocity": 0.6299212598425197
        },
        {
          "duration": 0.12295075000000111,
          "durationTicks": 150,
          "midi": 44,
          "name": "G#2",
          "ticks": 72150,
          "time": 59.13931075,
          "velocity": 0.3858267716535433
        },
        {
          "duration": 0.12295075000000111,
          "durationTicks": 150,
          "midi": 44,
          "name": "G#2",
          "ticks": 72300,
          "time": 59.2622615,
          "velocity": 0.6299212598425197
        },
        {
          "duration": 0.122950749999994,
          "durationTicks": 150,
          "midi": 44,
          "name": "G#2",
          "ticks": 72450,
          "time": 59.38521225,
          "velocity": 0.3858267716535433
        },
        {
          "duration": 0.12295075000000111,
          "durationTicks": 150,
          "midi": 44,
          "name": "G#2",
          "ticks": 72600,
          "time": 59.508162999999996,
          "velocity": 0.6299212598425197
        },
        {
          "duration": 0.12295075000000111,
          "durationTicks": 150,
          "midi": 44,
          "name": "G#2",
          "ticks": 72750,
          "time": 59.63111375,
          "velocity": 0.3858267716535433
        },
        {
          "duration": 0.12295075000000111,
          "durationTicks": 150,
          "midi": 44,
          "name": "G#2",
          "ticks": 72900,
          "time": 59.7540645,
          "velocity": 0.6299212598425197
        },
        {
          "duration": 0.24590150000000222,
          "durationTicks": 300,
          "midi": 44,
          "name": "G#2",
          "ticks": 73050,
          "time": 59.87701525,
          "velocity": 0.6299212598425197
        },
        {
          "duration": 0.122950749999994,
          "durationTicks": 150,
          "midi": 44,
          "name": "G#2",
          "ticks": 73350,
          "time": 60.12291675,
          "velocity": 0.3858267716535433
        },
        {
          "duration": 0.12295075000000111,
          "durationTicks": 150,
          "midi": 44,
          "name": "G#2",
          "ticks": 73500,
          "time": 60.245867499999996,
          "velocity": 0.6377952755905512
        },
        {
          "duration": 0.12295075000000111,
          "durationTicks": 150,
          "midi": 44,
          "name": "G#2",
          "ticks": 73650,
          "time": 60.36881825,
          "velocity": 0.3858267716535433
        },
        {
          "duration": 0.12295075000000111,
          "durationTicks": 150,
          "midi": 44,
          "name": "G#2",
          "ticks": 73800,
          "time": 60.491769,
          "velocity": 0.6377952755905512
        },
        {
          "duration": 0.12295075000000111,
          "durationTicks": 150,
          "midi": 44,
          "name": "G#2",
          "ticks": 73950,
          "time": 60.61471975,
          "velocity": 0.3858267716535433
        },
        {
          "duration": 0.12295075000000111,
          "durationTicks": 150,
          "midi": 44,
          "name": "G#2",
          "ticks": 74100,
          "time": 60.7376705,
          "velocity": 0.6377952755905512
        },
        {
          "duration": 0.122950749999994,
          "durationTicks": 150,
          "midi": 44,
          "name": "G#2",
          "ticks": 74250,
          "time": 60.86062125,
          "velocity": 0.3937007874015748
        },
        {
          "duration": 0.12295075000000111,
          "durationTicks": 150,
          "midi": 46,
          "name": "A#2",
          "ticks": 74400,
          "time": 60.983571999999995,
          "velocity": 0.6299212598425197
        },
        {
          "duration": 0.12295075000000111,
          "durationTicks": 150,
          "midi": 46,
          "name": "A#2",
          "ticks": 74550,
          "time": 61.106522749999996,
          "velocity": 0.3858267716535433
        },
        {
          "duration": 0.12295075000000111,
          "durationTicks": 150,
          "midi": 46,
          "name": "A#2",
          "ticks": 74700,
          "time": 61.2294735,
          "velocity": 0.6299212598425197
        },
        {
          "duration": 0.12295075000000111,
          "durationTicks": 150,
          "midi": 46,
          "name": "A#2",
          "ticks": 74850,
          "time": 61.35242425,
          "velocity": 0.3858267716535433
        },
        {
          "duration": 0.12295075000000111,
          "durationTicks": 150,
          "midi": 46,
          "name": "A#2",
          "ticks": 75000,
          "time": 61.475375,
          "velocity": 0.6299212598425197
        },
        {
          "duration": 0.12295075000000111,
          "durationTicks": 150,
          "midi": 46,
          "name": "A#2",
          "ticks": 75150,
          "time": 61.59832575,
          "velocity": 0.3858267716535433
        },
        {
          "duration": 0.122950749999994,
          "durationTicks": 150,
          "midi": 46,
          "name": "A#2",
          "ticks": 75300,
          "time": 61.7212765,
          "velocity": 0.6299212598425197
        },
        {
          "duration": 0.24590150000000222,
          "durationTicks": 300,
          "midi": 47,
          "name": "B2",
          "ticks": 75450,
          "time": 61.844227249999996,
          "velocity": 0.6299212598425197
        },
        {
          "duration": 0.12295075000000111,
          "durationTicks": 150,
          "midi": 47,
          "name": "B2",
          "ticks": 75750,
          "time": 62.09012875,
          "velocity": 0.3858267716535433
        },
        {
          "duration": 0.12295075000000111,
          "durationTicks": 150,
          "midi": 47,
          "name": "B2",
          "ticks": 75900,
          "time": 62.2130795,
          "velocity": 0.6377952755905512
        },
        {
          "duration": 0.12295075000000111,
          "durationTicks": 150,
          "midi": 47,
          "name": "B2",
          "ticks": 76050,
          "time": 62.33603025,
          "velocity": 0.3858267716535433
        },
        {
          "duration": 0.122950749999994,
          "durationTicks": 150,
          "midi": 47,
          "name": "B2",
          "ticks": 76200,
          "time": 62.458981,
          "velocity": 0.6377952755905512
        },
        {
          "duration": 0.12295075000000111,
          "durationTicks": 150,
          "midi": 47,
          "name": "B2",
          "ticks": 76350,
          "time": 62.581931749999995,
          "velocity": 0.3858267716535433
        },
        {
          "duration": 0.12295075000000111,
          "durationTicks": 150,
          "midi": 47,
          "name": "B2",
          "ticks": 76500,
          "time": 62.7048825,
          "velocity": 0.6377952755905512
        },
        {
          "duration": 0.12295075000000111,
          "durationTicks": 150,
          "midi": 47,
          "name": "B2",
          "ticks": 76650,
          "time": 62.82783325,
          "velocity": 0.3937007874015748
        },
        {
          "duration": 0.12295075000000111,
          "durationTicks": 150,
          "midi": 48,
          "name": "C3",
          "ticks": 76800,
          "time": 62.950784,
          "velocity": 1
        },
        {
          "duration": 0.12295075000000111,
          "durationTicks": 150,
          "midi": 48,
          "name": "C3",
          "ticks": 76950,
          "time": 63.07373475,
          "velocity": 0.6141732283464567
        },
        {
          "duration": 0.12295075000000111,
          "durationTicks": 150,
          "midi": 48,
          "name": "C3",
          "ticks": 77100,
          "time": 63.1966855,
          "velocity": 1
        },
        {
          "duration": 0.122950749999994,
          "durationTicks": 150,
          "midi": 48,
          "name": "C3",
          "ticks": 77250,
          "time": 63.31963625,
          "velocity": 0.6141732283464567
        },
        {
          "duration": 0.12295075000000111,
          "durationTicks": 150,
          "midi": 48,
          "name": "C3",
          "ticks": 77400,
          "time": 63.442586999999996,
          "velocity": 1
        },
        {
          "duration": 0.12295075000000111,
          "durationTicks": 150,
          "midi": 48,
          "name": "C3",
          "ticks": 77550,
          "time": 63.56553775,
          "velocity": 0.6141732283464567
        },
        {
          "duration": 0.12295075000000111,
          "durationTicks": 150,
          "midi": 48,
          "name": "C3",
          "ticks": 77700,
          "time": 63.6884885,
          "velocity": 1
        },
        {
          "duration": 0.2459014999999951,
          "durationTicks": 300,
          "midi": 48,
          "name": "C3",
          "ticks": 77850,
          "time": 63.81143925,
          "velocity": 1
        },
        {
          "duration": 0.12295075000000111,
          "durationTicks": 150,
          "midi": 48,
          "name": "C3",
          "ticks": 78150,
          "time": 64.05734075,
          "velocity": 0.6141732283464567
        },
        {
          "duration": 0.12295075000000111,
          "durationTicks": 150,
          "midi": 48,
          "name": "C3",
          "ticks": 78300,
          "time": 64.1802915,
          "velocity": 1
        },
        {
          "duration": 0.12295075000000111,
          "durationTicks": 150,
          "midi": 48,
          "name": "C3",
          "ticks": 78450,
          "time": 64.30324225,
          "velocity": 0.6141732283464567
        },
        {
          "duration": 0.12295075000000111,
          "durationTicks": 150,
          "midi": 48,
          "name": "C3",
          "ticks": 78600,
          "time": 64.426193,
          "velocity": 1
        },
        {
          "duration": 0.12295075000000111,
          "durationTicks": 150,
          "midi": 48,
          "name": "C3",
          "ticks": 78750,
          "time": 64.54914375,
          "velocity": 0.6141732283464567
        },
        {
          "duration": 0.12295075000000111,
          "durationTicks": 150,
          "midi": 48,
          "name": "C3",
          "ticks": 78900,
          "time": 64.6720945,
          "velocity": 1
        },
        {
          "duration": 0.12295075000000111,
          "durationTicks": 150,
          "midi": 48,
          "name": "C3",
          "ticks": 79050,
          "time": 64.79504525,
          "velocity": 0.6141732283464567
        },
        {
          "duration": 0.12295075000000111,
          "durationTicks": 150,
          "midi": 48,
          "name": "C3",
          "ticks": 79200,
          "time": 64.917996,
          "velocity": 1
        },
        {
          "duration": 0.12295075000000111,
          "durationTicks": 150,
          "midi": 48,
          "name": "C3",
          "ticks": 79350,
          "time": 65.04094675,
          "velocity": 0.6141732283464567
        },
        {
          "duration": 0.12295075000000111,
          "durationTicks": 150,
          "midi": 48,
          "name": "C3",
          "ticks": 79500,
          "time": 65.1638975,
          "velocity": 1
        },
        {
          "duration": 0.1229507499999869,
          "durationTicks": 150,
          "midi": 48,
          "name": "C3",
          "ticks": 79650,
          "time": 65.28684825,
          "velocity": 0.6141732283464567
        },
        {
          "duration": 0.12295075000000111,
          "durationTicks": 150,
          "midi": 48,
          "name": "C3",
          "ticks": 79800,
          "time": 65.40979899999999,
          "velocity": 1
        },
        {
          "duration": 0.12295075000000111,
          "durationTicks": 150,
          "midi": 48,
          "name": "C3",
          "ticks": 79950,
          "time": 65.53274975,
          "velocity": 0.6141732283464567
        },
        {
          "duration": 0.12295075000000111,
          "durationTicks": 150,
          "midi": 48,
          "name": "C3",
          "ticks": 80100,
          "time": 65.6557005,
          "velocity": 1
        },
        {
          "duration": 0.24590150000000222,
          "durationTicks": 300,
          "midi": 48,
          "name": "C3",
          "ticks": 80250,
          "time": 65.77865125,
          "velocity": 1
        },
        {
          "duration": 0.12295075000000111,
          "durationTicks": 150,
          "midi": 48,
          "name": "C3",
          "ticks": 80550,
          "time": 66.02455275,
          "velocity": 0.6141732283464567
        },
        {
          "duration": 0.12295075000000111,
          "durationTicks": 150,
          "midi": 48,
          "name": "C3",
          "ticks": 80700,
          "time": 66.1475035,
          "velocity": 1
        },
        {
          "duration": 0.12295075000000111,
          "durationTicks": 150,
          "midi": 48,
          "name": "C3",
          "ticks": 80850,
          "time": 66.27045425,
          "velocity": 0.6141732283464567
        },
        {
          "duration": 0.12295075000000111,
          "durationTicks": 150,
          "midi": 48,
          "name": "C3",
          "ticks": 81000,
          "time": 66.393405,
          "velocity": 1
        },
        {
          "duration": 0.12295075000000111,
          "durationTicks": 150,
          "midi": 48,
          "name": "C3",
          "ticks": 81150,
          "time": 66.51635575,
          "velocity": 0.6141732283464567
        },
        {
          "duration": 0.12295075000000111,
          "durationTicks": 150,
          "midi": 48,
          "name": "C3",
          "ticks": 81300,
          "time": 66.6393065,
          "velocity": 1
        },
        {
          "duration": 0.12295075000000111,
          "durationTicks": 150,
          "midi": 48,
          "name": "C3",
          "ticks": 81450,
          "time": 66.76225725,
          "velocity": 0.6141732283464567
        },
        {
          "duration": 0.1229507499999869,
          "durationTicks": 150,
          "midi": 51,
          "name": "D#3",
          "ticks": 81600,
          "time": 66.885208,
          "velocity": 1
        },
        {
          "duration": 0.12295075000000111,
          "durationTicks": 150,
          "midi": 51,
          "name": "D#3",
          "ticks": 81750,
          "time": 67.00815874999999,
          "velocity": 0.6141732283464567
        },
        {
          "duration": 0.12295075000000111,
          "durationTicks": 150,
          "midi": 51,
          "name": "D#3",
          "ticks": 81900,
          "time": 67.1311095,
          "velocity": 1
        },
        {
          "duration": 0.12295075000000111,
          "durationTicks": 150,
          "midi": 51,
          "name": "D#3",
          "ticks": 82050,
          "time": 67.25406025,
          "velocity": 0.6141732283464567
        },
        {
          "duration": 0.12295075000000111,
          "durationTicks": 150,
          "midi": 51,
          "name": "D#3",
          "ticks": 82200,
          "time": 67.377011,
          "velocity": 1
        },
        {
          "duration": 0.12295075000000111,
          "durationTicks": 150,
          "midi": 51,
          "name": "D#3",
          "ticks": 82350,
          "time": 67.49996175,
          "velocity": 0.6141732283464567
        },
        {
          "duration": 0.12295075000000111,
          "durationTicks": 150,
          "midi": 51,
          "name": "D#3",
          "ticks": 82500,
          "time": 67.6229125,
          "velocity": 1
        },
        {
          "duration": 0.24590150000000222,
          "durationTicks": 300,
          "midi": 51,
          "name": "D#3",
          "ticks": 82650,
          "time": 67.74586325,
          "velocity": 1
        },
        {
          "duration": 0.12295075000000111,
          "durationTicks": 150,
          "midi": 51,
          "name": "D#3",
          "ticks": 82950,
          "time": 67.99176475,
          "velocity": 0.6141732283464567
        },
        {
          "duration": 0.12295075000000111,
          "durationTicks": 150,
          "midi": 51,
          "name": "D#3",
          "ticks": 83100,
          "time": 68.1147155,
          "velocity": 1
        },
        {
          "duration": 0.12295075000000111,
          "durationTicks": 150,
          "midi": 51,
          "name": "D#3",
          "ticks": 83250,
          "time": 68.23766625,
          "velocity": 0.6141732283464567
        },
        {
          "duration": 0.1229507499999869,
          "durationTicks": 150,
          "midi": 51,
          "name": "D#3",
          "ticks": 83400,
          "time": 68.360617,
          "velocity": 1
        },
        {
          "duration": 0.12295075000000111,
          "durationTicks": 150,
          "midi": 51,
          "name": "D#3",
          "ticks": 83550,
          "time": 68.48356774999999,
          "velocity": 0.6141732283464567
        },
        {
          "duration": 0.12295075000000111,
          "durationTicks": 150,
          "midi": 51,
          "name": "D#3",
          "ticks": 83700,
          "time": 68.60651849999999,
          "velocity": 1
        },
        {
          "duration": 0.12295075000000111,
          "durationTicks": 150,
          "midi": 51,
          "name": "D#3",
          "ticks": 83850,
          "time": 68.72946925,
          "velocity": 0.6141732283464567
        },
        {
          "duration": 0.12295075000000111,
          "durationTicks": 150,
          "midi": 53,
          "name": "F3",
          "ticks": 84000,
          "time": 68.85242,
          "velocity": 1
        },
        {
          "duration": 0.12295075000000111,
          "durationTicks": 150,
          "midi": 53,
          "name": "F3",
          "ticks": 84150,
          "time": 68.97537075,
          "velocity": 0.6141732283464567
        },
        {
          "duration": 0.12295075000000111,
          "durationTicks": 150,
          "midi": 53,
          "name": "F3",
          "ticks": 84300,
          "time": 69.0983215,
          "velocity": 1
        },
        {
          "duration": 0.12295075000000111,
          "durationTicks": 150,
          "midi": 53,
          "name": "F3",
          "ticks": 84450,
          "time": 69.22127225,
          "velocity": 0.6141732283464567
        },
        {
          "duration": 0.12295075000000111,
          "durationTicks": 150,
          "midi": 53,
          "name": "F3",
          "ticks": 84600,
          "time": 69.344223,
          "velocity": 1
        },
        {
          "duration": 0.12295075000000111,
          "durationTicks": 150,
          "midi": 53,
          "name": "F3",
          "ticks": 84750,
          "time": 69.46717375,
          "velocity": 0.6141732283464567
        },
        {
          "duration": 0.12295075000000111,
          "durationTicks": 150,
          "midi": 53,
          "name": "F3",
          "ticks": 84900,
          "time": 69.5901245,
          "velocity": 1
        },
        {
          "duration": 0.12295075000000111,
          "durationTicks": 150,
          "midi": 53,
          "name": "F3",
          "ticks": 85050,
          "time": 69.71307525,
          "velocity": 1
        },
        {
          "duration": 0.12295075000000111,
          "durationTicks": 150,
          "midi": 55,
          "name": "G3",
          "ticks": 85200,
          "time": 69.836026,
          "velocity": 1
        },
        {
          "duration": 0.1229507499999869,
          "durationTicks": 150,
          "midi": 55,
          "name": "G3",
          "ticks": 85350,
          "time": 69.95897675,
          "velocity": 0.6141732283464567
        },
        {
          "duration": 0.12295075000000111,
          "durationTicks": 150,
          "midi": 55,
          "name": "G3",
          "ticks": 85500,
          "time": 70.08192749999999,
          "velocity": 1
        },
        {
          "duration": 0.12295075000000111,
          "durationTicks": 150,
          "midi": 55,
          "name": "G3",
          "ticks": 85650,
          "time": 70.20487825,
          "velocity": 0.6141732283464567
        },
        {
          "duration": 0.12295075000000111,
          "durationTicks": 150,
          "midi": 55,
          "name": "G3",
          "ticks": 85800,
          "time": 70.327829,
          "velocity": 1
        },
        {
          "duration": 0.12295075000000111,
          "durationTicks": 150,
          "midi": 55,
          "name": "G3",
          "ticks": 85950,
          "time": 70.45077975,
          "velocity": 0.6141732283464567
        },
        {
          "duration": 0.12295075000000111,
          "durationTicks": 150,
          "midi": 55,
          "name": "G3",
          "ticks": 86100,
          "time": 70.5737305,
          "velocity": 1
        },
        {
          "duration": 0.12295075000000111,
          "durationTicks": 150,
          "midi": 55,
          "name": "G3",
          "ticks": 86250,
          "time": 70.69668125,
          "velocity": 0.6141732283464567
        },
        {
          "duration": 0.12295075000000111,
          "durationTicks": 150,
          "midi": 48,
          "name": "C3",
          "ticks": 86400,
          "time": 70.819632,
          "velocity": 1
        },
        {
          "duration": 0.12295075000000111,
          "durationTicks": 150,
          "midi": 48,
          "name": "C3",
          "ticks": 86550,
          "time": 70.94258275,
          "velocity": 0.6141732283464567
        },
        {
          "duration": 0.12295075000000111,
          "durationTicks": 150,
          "midi": 48,
          "name": "C3",
          "ticks": 86700,
          "time": 71.0655335,
          "velocity": 1
        },
        {
          "duration": 0.12295075000000111,
          "durationTicks": 150,
          "midi": 48,
          "name": "C3",
          "ticks": 86850,
          "time": 71.18848425,
          "velocity": 0.6141732283464567
        },
        {
          "duration": 0.12295075000000111,
          "durationTicks": 150,
          "midi": 48,
          "name": "C3",
          "ticks": 87000,
          "time": 71.311435,
          "velocity": 1
        },
        {
          "duration": 0.12295075000000111,
          "durationTicks": 150,
          "midi": 48,
          "name": "C3",
          "ticks": 87150,
          "time": 71.43438575,
          "velocity": 0.6141732283464567
        },
        {
          "duration": 0.1229507499999869,
          "durationTicks": 150,
          "midi": 48,
          "name": "C3",
          "ticks": 87300,
          "time": 71.5573365,
          "velocity": 1
        },
        {
          "duration": 0.24590150000000222,
          "durationTicks": 300,
          "midi": 48,
          "name": "C3",
          "ticks": 87450,
          "time": 71.68028724999999,
          "velocity": 1
        },
        {
          "duration": 0.12295075000000111,
          "durationTicks": 150,
          "midi": 48,
          "name": "C3",
          "ticks": 87750,
          "time": 71.92618875,
          "velocity": 0.6141732283464567
        },
        {
          "duration": 0.12295075000000111,
          "durationTicks": 150,
          "midi": 48,
          "name": "C3",
          "ticks": 87900,
          "time": 72.0491395,
          "velocity": 1
        },
        {
          "duration": 0.12295075000000111,
          "durationTicks": 150,
          "midi": 48,
          "name": "C3",
          "ticks": 88050,
          "time": 72.17209025,
          "velocity": 0.6141732283464567
        },
        {
          "duration": 0.12295075000000111,
          "durationTicks": 150,
          "midi": 48,
          "name": "C3",
          "ticks": 88200,
          "time": 72.295041,
          "velocity": 1
        },
        {
          "duration": 0.12295075000000111,
          "durationTicks": 150,
          "midi": 48,
          "name": "C3",
          "ticks": 88350,
          "time": 72.41799175,
          "velocity": 0.6141732283464567
        },
        {
          "duration": 0.12295075000000111,
          "durationTicks": 150,
          "midi": 48,
          "name": "C3",
          "ticks": 88500,
          "time": 72.5409425,
          "velocity": 1
        },
        {
          "duration": 0.12295075000000111,
          "durationTicks": 150,
          "midi": 48,
          "name": "C3",
          "ticks": 88650,
          "time": 72.66389325,
          "velocity": 0.6141732283464567
        },
        {
          "duration": 0.12295075000000111,
          "durationTicks": 150,
          "midi": 48,
          "name": "C3",
          "ticks": 88800,
          "time": 72.786844,
          "velocity": 1
        },
        {
          "duration": 0.12295075000000111,
          "durationTicks": 150,
          "midi": 48,
          "name": "C3",
          "ticks": 88950,
          "time": 72.90979475,
          "velocity": 0.6141732283464567
        },
        {
          "duration": 0.12295075000000111,
          "durationTicks": 150,
          "midi": 48,
          "name": "C3",
          "ticks": 89100,
          "time": 73.0327455,
          "velocity": 1
        },
        {
          "duration": 0.1229507499999869,
          "durationTicks": 150,
          "midi": 48,
          "name": "C3",
          "ticks": 89250,
          "time": 73.15569625,
          "velocity": 0.6141732283464567
        },
        {
          "duration": 0.12295075000000111,
          "durationTicks": 150,
          "midi": 48,
          "name": "C3",
          "ticks": 89400,
          "time": 73.27864699999999,
          "velocity": 1
        },
        {
          "duration": 0.12295075000000111,
          "durationTicks": 150,
          "midi": 48,
          "name": "C3",
          "ticks": 89550,
          "time": 73.40159775,
          "velocity": 0.6141732283464567
        },
        {
          "duration": 0.12295075000000111,
          "durationTicks": 150,
          "midi": 48,
          "name": "C3",
          "ticks": 89700,
          "time": 73.5245485,
          "velocity": 1
        },
        {
          "duration": 0.24590150000000222,
          "durationTicks": 300,
          "midi": 48,
          "name": "C3",
          "ticks": 89850,
          "time": 73.64749925,
          "velocity": 1
        },
        {
          "duration": 0.12295075000000111,
          "durationTicks": 150,
          "midi": 48,
          "name": "C3",
          "ticks": 90150,
          "time": 73.89340075,
          "velocity": 0.6141732283464567
        },
        {
          "duration": 0.12295075000000111,
          "durationTicks": 150,
          "midi": 48,
          "name": "C3",
          "ticks": 90300,
          "time": 74.0163515,
          "velocity": 1
        },
        {
          "duration": 0.12295075000000111,
          "durationTicks": 150,
          "midi": 48,
          "name": "C3",
          "ticks": 90450,
          "time": 74.13930225,
          "velocity": 0.6141732283464567
        },
        {
          "duration": 0.12295075000000111,
          "durationTicks": 150,
          "midi": 48,
          "name": "C3",
          "ticks": 90600,
          "time": 74.262253,
          "velocity": 1
        },
        {
          "duration": 0.12295075000000111,
          "durationTicks": 150,
          "midi": 48,
          "name": "C3",
          "ticks": 90750,
          "time": 74.38520375,
          "velocity": 0.6141732283464567
        },
        {
          "duration": 0.12295075000000111,
          "durationTicks": 150,
          "midi": 48,
          "name": "C3",
          "ticks": 90900,
          "time": 74.5081545,
          "velocity": 1
        },
        {
          "duration": 0.1229507499999869,
          "durationTicks": 150,
          "midi": 48,
          "name": "C3",
          "ticks": 91050,
          "time": 74.63110525,
          "velocity": 0.6141732283464567
        },
        {
          "duration": 0.12295075000000111,
          "durationTicks": 150,
          "midi": 51,
          "name": "D#3",
          "ticks": 91200,
          "time": 74.75405599999999,
          "velocity": 1
        },
        {
          "duration": 0.12295075000000111,
          "durationTicks": 150,
          "midi": 51,
          "name": "D#3",
          "ticks": 91350,
          "time": 74.87700674999999,
          "velocity": 0.6141732283464567
        },
        {
          "duration": 0.12295075000000111,
          "durationTicks": 150,
          "midi": 51,
          "name": "D#3",
          "ticks": 91500,
          "time": 74.9999575,
          "velocity": 1
        },
        {
          "duration": 0.12295075000000111,
          "durationTicks": 150,
          "midi": 51,
          "name": "D#3",
          "ticks": 91650,
          "time": 75.12290825,
          "velocity": 0.6141732283464567
        },
        {
          "duration": 0.12295075000000111,
          "durationTicks": 150,
          "midi": 51,
          "name": "D#3",
          "ticks": 91800,
          "time": 75.245859,
          "velocity": 1
        },
        {
          "duration": 0.12295075000000111,
          "durationTicks": 150,
          "midi": 51,
          "name": "D#3",
          "ticks": 91950,
          "time": 75.36880975,
          "velocity": 0.6141732283464567
        },
        {
          "duration": 0.12295075000000111,
          "durationTicks": 150,
          "midi": 51,
          "name": "D#3",
          "ticks": 92100,
          "time": 75.4917605,
          "velocity": 1
        },
        {
          "duration": 0.24590150000000222,
          "durationTicks": 300,
          "midi": 51,
          "name": "D#3",
          "ticks": 92250,
          "time": 75.61471125,
          "velocity": 1
        },
        {
          "duration": 0.12295075000000111,
          "durationTicks": 150,
          "midi": 51,
          "name": "D#3",
          "ticks": 92550,
          "time": 75.86061275,
          "velocity": 0.6141732283464567
        },
        {
          "duration": 0.12295075000000111,
          "durationTicks": 150,
          "midi": 51,
          "name": "D#3",
          "ticks": 92700,
          "time": 75.9835635,
          "velocity": 1
        },
        {
          "duration": 0.12295075000000111,
          "durationTicks": 150,
          "midi": 51,
          "name": "D#3",
          "ticks": 92850,
          "time": 76.10651425,
          "velocity": 0.6141732283464567
        },
        {
          "duration": 0.1229507499999869,
          "durationTicks": 150,
          "midi": 51,
          "name": "D#3",
          "ticks": 93000,
          "time": 76.229465,
          "velocity": 1
        },
        {
          "duration": 0.12295075000000111,
          "durationTicks": 150,
          "midi": 51,
          "name": "D#3",
          "ticks": 93150,
          "time": 76.35241574999999,
          "velocity": 0.6141732283464567
        },
        {
          "duration": 0.12295075000000111,
          "durationTicks": 150,
          "midi": 51,
          "name": "D#3",
          "ticks": 93300,
          "time": 76.47536649999999,
          "velocity": 1
        },
        {
          "duration": 0.12295075000000111,
          "durationTicks": 150,
          "midi": 51,
          "name": "D#3",
          "ticks": 93450,
          "time": 76.59831725,
          "velocity": 0.6141732283464567
        },
        {
          "duration": 0.12295075000000111,
          "durationTicks": 150,
          "midi": 53,
          "name": "F3",
          "ticks": 93600,
          "time": 76.721268,
          "velocity": 1
        },
        {
          "duration": 0.12295075000000111,
          "durationTicks": 150,
          "midi": 53,
          "name": "F3",
          "ticks": 93750,
          "time": 76.84421875,
          "velocity": 0.6141732283464567
        },
        {
          "duration": 0.12295075000000111,
          "durationTicks": 150,
          "midi": 53,
          "name": "F3",
          "ticks": 93900,
          "time": 76.9671695,
          "velocity": 1
        },
        {
          "duration": 0.12295075000000111,
          "durationTicks": 150,
          "midi": 53,
          "name": "F3",
          "ticks": 94050,
          "time": 77.09012025,
          "velocity": 0.6141732283464567
        },
        {
          "duration": 0.12295075000000111,
          "durationTicks": 150,
          "midi": 53,
          "name": "F3",
          "ticks": 94200,
          "time": 77.213071,
          "velocity": 1
        },
        {
          "duration": 0.12295075000000111,
          "durationTicks": 150,
          "midi": 53,
          "name": "F3",
          "ticks": 94350,
          "time": 77.33602175,
          "velocity": 0.6141732283464567
        },
        {
          "duration": 0.12295075000000111,
          "durationTicks": 150,
          "midi": 53,
          "name": "F3",
          "ticks": 94500,
          "time": 77.4589725,
          "velocity": 1
        },
        {
          "duration": 0.12295075000000111,
          "durationTicks": 150,
          "midi": 53,
          "name": "F3",
          "ticks": 94650,
          "time": 77.58192325,
          "velocity": 1
        },
        {
          "duration": 0.12295075000000111,
          "durationTicks": 150,
          "midi": 44,
          "name": "G#2",
          "ticks": 96000,
          "time": 78.68848,
          "velocity": 0.6141732283464567
        },
        {
          "duration": 0.12295075000000111,
          "durationTicks": 150,
          "midi": 44,
          "name": "G#2",
          "ticks": 96150,
          "time": 78.81143075,
          "velocity": 0.3228346456692913
        },
        {
          "duration": 0.12295075000000111,
          "durationTicks": 150,
          "midi": 44,
          "name": "G#2",
          "ticks": 96300,
          "time": 78.9343815,
          "velocity": 0.6141732283464567
        },
        {
          "duration": 0.12295075000000111,
          "durationTicks": 150,
          "midi": 44,
          "name": "G#2",
          "ticks": 96450,
          "time": 79.05733225,
          "velocity": 0.3228346456692913
        },
        {
          "duration": 0.12295075000000111,
          "durationTicks": 150,
          "midi": 44,
          "name": "G#2",
          "ticks": 96600,
          "time": 79.180283,
          "velocity": 0.6141732283464567
        },
        {
          "duration": 0.12295075000000111,
          "durationTicks": 150,
          "midi": 44,
          "name": "G#2",
          "ticks": 96750,
          "time": 79.30323375,
          "velocity": 0.3228346456692913
        },
        {
          "duration": 0.1229507499999869,
          "durationTicks": 150,
          "midi": 44,
          "name": "G#2",
          "ticks": 96900,
          "time": 79.4261845,
          "velocity": 0.6141732283464567
        },
        {
          "duration": 0.24590150000000222,
          "durationTicks": 300,
          "midi": 44,
          "name": "G#2",
          "ticks": 97050,
          "time": 79.54913524999999,
          "velocity": 0.6141732283464567
        },
        {
          "duration": 0.12295075000000111,
          "durationTicks": 150,
          "midi": 44,
          "name": "G#2",
          "ticks": 97350,
          "time": 79.79503675,
          "velocity": 0.3228346456692913
        },
        {
          "duration": 0.12295075000000111,
          "durationTicks": 150,
          "midi": 44,
          "name": "G#2",
          "ticks": 97500,
          "time": 79.9179875,
          "velocity": 0.6220472440944882
        },
        {
          "duration": 0.12295075000000111,
          "durationTicks": 150,
          "midi": 44,
          "name": "G#2",
          "ticks": 97650,
          "time": 80.04093825,
          "velocity": 0.3228346456692913
        },
        {
          "duration": 0.12295075000000111,
          "durationTicks": 150,
          "midi": 44,
          "name": "G#2",
          "ticks": 97800,
          "time": 80.163889,
          "velocity": 0.6220472440944882
        },
        {
          "duration": 0.12295075000000111,
          "durationTicks": 150,
          "midi": 44,
          "name": "G#2",
          "ticks": 97950,
          "time": 80.28683975,
          "velocity": 0.3228346456692913
        },
        {
          "duration": 0.12295075000000111,
          "durationTicks": 150,
          "midi": 44,
          "name": "G#2",
          "ticks": 98100,
          "time": 80.4097905,
          "velocity": 0.6220472440944882
        },
        {
          "duration": 0.12295075000000111,
          "durationTicks": 150,
          "midi": 44,
          "name": "G#2",
          "ticks": 98250,
          "time": 80.53274125,
          "velocity": 0.3228346456692913
        },
        {
          "duration": 0.12295075000000111,
          "durationTicks": 150,
          "midi": 46,
          "name": "A#2",
          "ticks": 98400,
          "time": 80.655692,
          "velocity": 0.6141732283464567
        },
        {
          "duration": 0.12295075000000111,
          "durationTicks": 150,
          "midi": 46,
          "name": "A#2",
          "ticks": 98550,
          "time": 80.77864275,
          "velocity": 0.3228346456692913
        },
        {
          "duration": 0.12295075000000111,
          "durationTicks": 150,
          "midi": 46,
          "name": "A#2",
          "ticks": 98700,
          "time": 80.9015935,
          "velocity": 0.6141732283464567
        },
        {
          "duration": 0.1229507499999869,
          "durationTicks": 150,
          "midi": 46,
          "name": "A#2",
          "ticks": 98850,
          "time": 81.02454425,
          "velocity": 0.3228346456692913
        },
        {
          "duration": 0.12295075000000111,
          "durationTicks": 150,
          "midi": 46,
          "name": "A#2",
          "ticks": 99000,
          "time": 81.14749499999999,
          "velocity": 0.6141732283464567
        },
        {
          "duration": 0.12295075000000111,
          "durationTicks": 150,
          "midi": 46,
          "name": "A#2",
          "ticks": 99150,
          "time": 81.27044575,
          "velocity": 0.3228346456692913
        },
        {
          "duration": 0.12295075000000111,
          "durationTicks": 150,
          "midi": 46,
          "name": "A#2",
          "ticks": 99300,
          "time": 81.3933965,
          "velocity": 0.6141732283464567
        },
        {
          "duration": 0.24590150000000222,
          "durationTicks": 300,
          "midi": 46,
          "name": "A#2",
          "ticks": 99450,
          "time": 81.51634725,
          "velocity": 0.6141732283464567
        },
        {
          "duration": 0.12295075000000111,
          "durationTicks": 150,
          "midi": 46,
          "name": "A#2",
          "ticks": 99750,
          "time": 81.76224875,
          "velocity": 0.3228346456692913
        },
        {
          "duration": 0.12295075000000111,
          "durationTicks": 150,
          "midi": 46,
          "name": "A#2",
          "ticks": 99900,
          "time": 81.8851995,
          "velocity": 0.6220472440944882
        },
        {
          "duration": 0.12295075000000111,
          "durationTicks": 150,
          "midi": 46,
          "name": "A#2",
          "ticks": 100050,
          "time": 82.00815025,
          "velocity": 0.3228346456692913
        },
        {
          "duration": 0.12295075000000111,
          "durationTicks": 150,
          "midi": 46,
          "name": "A#2",
          "ticks": 100200,
          "time": 82.131101,
          "velocity": 0.6220472440944882
        },
        {
          "duration": 0.12295075000000111,
          "durationTicks": 150,
          "midi": 46,
          "name": "A#2",
          "ticks": 100350,
          "time": 82.25405175,
          "velocity": 0.3228346456692913
        },
        {
          "duration": 0.12295075000000111,
          "durationTicks": 150,
          "midi": 46,
          "name": "A#2",
          "ticks": 100500,
          "time": 82.3770025,
          "velocity": 0.6220472440944882
        },
        {
          "duration": 0.12295075000000111,
          "durationTicks": 150,
          "midi": 46,
          "name": "A#2",
          "ticks": 100650,
          "time": 82.49995325,
          "velocity": 0.3228346456692913
        },
        {
          "duration": 0.1229507499999869,
          "durationTicks": 150,
          "midi": 43,
          "name": "G2",
          "ticks": 100800,
          "time": 82.622904,
          "velocity": 0.6141732283464567
        },
        {
          "duration": 0.12295075000000111,
          "durationTicks": 150,
          "midi": 43,
          "name": "G2",
          "ticks": 100950,
          "time": 82.74585474999999,
          "velocity": 0.3228346456692913
        },
        {
          "duration": 0.12295075000000111,
          "durationTicks": 150,
          "midi": 43,
          "name": "G2",
          "ticks": 101100,
          "time": 82.8688055,
          "velocity": 0.6141732283464567
        },
        {
          "duration": 0.12295075000000111,
          "durationTicks": 150,
          "midi": 43,
          "name": "G2",
          "ticks": 101250,
          "time": 82.99175625,
          "velocity": 0.3228346456692913
        },
        {
          "duration": 0.12295075000000111,
          "durationTicks": 150,
          "midi": 43,
          "name": "G2",
          "ticks": 101400,
          "time": 83.114707,
          "velocity": 0.6141732283464567
        },
        {
          "duration": 0.12295075000000111,
          "durationTicks": 150,
          "midi": 43,
          "name": "G2",
          "ticks": 101550,
          "time": 83.23765775,
          "velocity": 0.3228346456692913
        },
        {
          "duration": 0.12295075000000111,
          "durationTicks": 150,
          "midi": 43,
          "name": "G2",
          "ticks": 101700,
          "time": 83.3606085,
          "velocity": 0.6141732283464567
        },
        {
          "duration": 0.24590150000000222,
          "durationTicks": 300,
          "midi": 43,
          "name": "G2",
          "ticks": 101850,
          "time": 83.48355925,
          "velocity": 0.6141732283464567
        },
        {
          "duration": 0.12295075000000111,
          "durationTicks": 150,
          "midi": 43,
          "name": "G2",
          "ticks": 102150,
          "time": 83.72946075,
          "velocity": 0.3228346456692913
        },
        {
          "duration": 0.12295075000000111,
          "durationTicks": 150,
          "midi": 43,
          "name": "G2",
          "ticks": 102300,
          "time": 83.8524115,
          "velocity": 0.6220472440944882
        },
        {
          "duration": 0.12295075000000111,
          "durationTicks": 150,
          "midi": 43,
          "name": "G2",
          "ticks": 102450,
          "time": 83.97536225,
          "velocity": 0.3228346456692913
        },
        {
          "duration": 0.1229507499999869,
          "durationTicks": 150,
          "midi": 43,
          "name": "G2",
          "ticks": 102600,
          "time": 84.098313,
          "velocity": 0.6220472440944882
        },
        {
          "duration": 0.12295075000000111,
          "durationTicks": 150,
          "midi": 43,
          "name": "G2",
          "ticks": 102750,
          "time": 84.22126374999999,
          "velocity": 0.3228346456692913
        },
        {
          "duration": 0.12295075000000111,
          "durationTicks": 150,
          "midi": 43,
          "name": "G2",
          "ticks": 102900,
          "time": 84.34421449999999,
          "velocity": 0.6220472440944882
        },
        {
          "duration": 0.12295075000000111,
          "durationTicks": 150,
          "midi": 43,
          "name": "G2",
          "ticks": 103050,
          "time": 84.46716525,
          "velocity": 0.3228346456692913
        },
        {
          "duration": 0.12295075000000111,
          "durationTicks": 150,
          "midi": 48,
          "name": "C3",
          "ticks": 103200,
          "time": 84.590116,
          "velocity": 0.6141732283464567
        },
        {
          "duration": 0.12295075000000111,
          "durationTicks": 150,
          "midi": 48,
          "name": "C3",
          "ticks": 103350,
          "time": 84.71306675,
          "velocity": 0.3228346456692913
        },
        {
          "duration": 0.12295075000000111,
          "durationTicks": 150,
          "midi": 48,
          "name": "C3",
          "ticks": 103500,
          "time": 84.8360175,
          "velocity": 0.6141732283464567
        },
        {
          "duration": 0.12295075000000111,
          "durationTicks": 150,
          "midi": 48,
          "name": "C3",
          "ticks": 103650,
          "time": 84.95896825,
          "velocity": 0.3228346456692913
        },
        {
          "duration": 0.12295075000000111,
          "durationTicks": 150,
          "midi": 48,
          "name": "C3",
          "ticks": 103800,
          "time": 85.081919,
          "velocity": 0.6141732283464567
        },
        {
          "duration": 0.12295075000000111,
          "durationTicks": 150,
          "midi": 48,
          "name": "C3",
          "ticks": 103950,
          "time": 85.20486975,
          "velocity": 0.3228346456692913
        },
        {
          "duration": 0.12295075000000111,
          "durationTicks": 150,
          "midi": 48,
          "name": "C3",
          "ticks": 104100,
          "time": 85.3278205,
          "velocity": 0.6141732283464567
        },
        {
          "duration": 0.24590150000000222,
          "durationTicks": 300,
          "midi": 51,
          "name": "D#3",
          "ticks": 104250,
          "time": 85.45077125,
          "velocity": 0.6141732283464567
        },
        {
          "duration": 0.1229507499999869,
          "durationTicks": 150,
          "midi": 51,
          "name": "D#3",
          "ticks": 104550,
          "time": 85.69667275,
          "velocity": 0.3228346456692913
        },
        {
          "duration": 0.12295075000000111,
          "durationTicks": 150,
          "midi": 51,
          "name": "D#3",
          "ticks": 104700,
          "time": 85.81962349999999,
          "velocity": 0.6220472440944882
        },
        {
          "duration": 0.12295075000000111,
          "durationTicks": 150,
          "midi": 51,
          "name": "D#3",
          "ticks": 104850,
          "time": 85.94257424999999,
          "velocity": 0.3228346456692913
        },
        {
          "duration": 0.12295075000000111,
          "durationTicks": 150,
          "midi": 51,
          "name": "D#3",
          "ticks": 105000,
          "time": 86.065525,
          "velocity": 0.6220472440944882
        },
        {
          "duration": 0.12295075000000111,
          "durationTicks": 150,
          "midi": 51,
          "name": "D#3",
          "ticks": 105150,
          "time": 86.18847575,
          "velocity": 0.3228346456692913
        },
        {
          "duration": 0.12295075000000111,
          "durationTicks": 150,
          "midi": 51,
          "name": "D#3",
          "ticks": 105300,
          "time": 86.3114265,
          "velocity": 0.6220472440944882
        },
        {
          "duration": 0.12295075000000111,
          "durationTicks": 150,
          "midi": 51,
          "name": "D#3",
          "ticks": 105450,
          "time": 86.43437725,
          "velocity": 0.3228346456692913
        },
        {
          "duration": 0.12295075000000111,
          "durationTicks": 150,
          "midi": 44,
          "name": "G#2",
          "ticks": 105600,
          "time": 86.557328,
          "velocity": 0.6141732283464567
        },
        {
          "duration": 0.12295075000000111,
          "durationTicks": 150,
          "midi": 44,
          "name": "G#2",
          "ticks": 105750,
          "time": 86.68027875,
          "velocity": 0.3228346456692913
        },
        {
          "duration": 0.12295075000000111,
          "durationTicks": 150,
          "midi": 44,
          "name": "G#2",
          "ticks": 105900,
          "time": 86.8032295,
          "velocity": 0.6141732283464567
        },
        {
          "duration": 0.12295075000000111,
          "durationTicks": 150,
          "midi": 44,
          "name": "G#2",
          "ticks": 106050,
          "time": 86.92618025,
          "velocity": 0.3228346456692913
        },
        {
          "duration": 0.12295075000000111,
          "durationTicks": 150,
          "midi": 44,
          "name": "G#2",
          "ticks": 106200,
          "time": 87.049131,
          "velocity": 0.6141732283464567
        },
        {
          "duration": 0.12295075000000111,
          "durationTicks": 150,
          "midi": 44,
          "name": "G#2",
          "ticks": 106350,
          "time": 87.17208175,
          "velocity": 0.3228346456692913
        },
        {
          "duration": 0.1229507499999869,
          "durationTicks": 150,
          "midi": 44,
          "name": "G#2",
          "ticks": 106500,
          "time": 87.2950325,
          "velocity": 0.6141732283464567
        },
        {
          "duration": 0.24590150000000222,
          "durationTicks": 300,
          "midi": 44,
          "name": "G#2",
          "ticks": 106650,
          "time": 87.41798324999999,
          "velocity": 0.6141732283464567
        },
        {
          "duration": 0.12295075000000111,
          "durationTicks": 150,
          "midi": 44,
          "name": "G#2",
          "ticks": 106950,
          "time": 87.66388475,
          "velocity": 0.3228346456692913
        },
        {
          "duration": 0.12295075000000111,
          "durationTicks": 150,
          "midi": 44,
          "name": "G#2",
          "ticks": 107100,
          "time": 87.7868355,
          "velocity": 0.6220472440944882
        },
        {
          "duration": 0.12295075000000111,
          "durationTicks": 150,
          "midi": 44,
          "name": "G#2",
          "ticks": 107250,
          "time": 87.90978625,
          "velocity": 0.3228346456692913
        },
        {
          "duration": 0.12295075000000111,
          "durationTicks": 150,
          "midi": 44,
          "name": "G#2",
          "ticks": 107400,
          "time": 88.032737,
          "velocity": 0.6220472440944882
        },
        {
          "duration": 0.12295075000000111,
          "durationTicks": 150,
          "midi": 44,
          "name": "G#2",
          "ticks": 107550,
          "time": 88.15568775,
          "velocity": 0.3228346456692913
        },
        {
          "duration": 0.12295075000000111,
          "durationTicks": 150,
          "midi": 44,
          "name": "G#2",
          "ticks": 107700,
          "time": 88.2786385,
          "velocity": 0.6220472440944882
        },
        {
          "duration": 0.12295075000000111,
          "durationTicks": 150,
          "midi": 44,
          "name": "G#2",
          "ticks": 107850,
          "time": 88.40158925,
          "velocity": 0.3228346456692913
        },
        {
          "duration": 0.12295075000000111,
          "durationTicks": 150,
          "midi": 46,
          "name": "A#2",
          "ticks": 108000,
          "time": 88.52454,
          "velocity": 0.6141732283464567
        },
        {
          "duration": 0.12295075000000111,
          "durationTicks": 150,
          "midi": 46,
          "name": "A#2",
          "ticks": 108150,
          "time": 88.64749075,
          "velocity": 0.3228346456692913
        },
        {
          "duration": 0.12295075000000111,
          "durationTicks": 150,
          "midi": 46,
          "name": "A#2",
          "ticks": 108300,
          "time": 88.7704415,
          "velocity": 0.6141732283464567
        },
        {
          "duration": 0.1229507499999869,
          "durationTicks": 150,
          "midi": 46,
          "name": "A#2",
          "ticks": 108450,
          "time": 88.89339225,
          "velocity": 0.3228346456692913
        },
        {
          "duration": 0.12295075000000111,
          "durationTicks": 150,
          "midi": 46,
          "name": "A#2",
          "ticks": 108600,
          "time": 89.01634299999999,
          "velocity": 0.6141732283464567
        },
        {
          "duration": 0.12295075000000111,
          "durationTicks": 150,
          "midi": 46,
          "name": "A#2",
          "ticks": 108750,
          "time": 89.13929375,
          "velocity": 0.3228346456692913
        },
        {
          "duration": 0.12295075000000111,
          "durationTicks": 150,
          "midi": 46,
          "name": "A#2",
          "ticks": 108900,
          "time": 89.2622445,
          "velocity": 0.6141732283464567
        },
        {
          "duration": 0.24590150000000222,
          "durationTicks": 300,
          "midi": 46,
          "name": "A#2",
          "ticks": 109050,
          "time": 89.38519525,
          "velocity": 0.6141732283464567
        },
        {
          "duration": 0.12295075000000111,
          "durationTicks": 150,
          "midi": 46,
          "name": "A#2",
          "ticks": 109350,
          "time": 89.63109675,
          "velocity": 0.3228346456692913
        },
        {
          "duration": 0.12295075000000111,
          "durationTicks": 150,
          "midi": 46,
          "name": "A#2",
          "ticks": 109500,
          "time": 89.7540475,
          "velocity": 0.6220472440944882
        },
        {
          "duration": 0.12295075000000111,
          "durationTicks": 150,
          "midi": 46,
          "name": "A#2",
          "ticks": 109650,
          "time": 89.87699825,
          "velocity": 0.3228346456692913
        },
        {
          "duration": 0.12295075000000111,
          "durationTicks": 150,
          "midi": 46,
          "name": "A#2",
          "ticks": 109800,
          "time": 89.999949,
          "velocity": 0.6220472440944882
        },
        {
          "duration": 0.12295075000000111,
          "durationTicks": 150,
          "midi": 46,
          "name": "A#2",
          "ticks": 109950,
          "time": 90.12289975,
          "velocity": 0.3228346456692913
        },
        {
          "duration": 0.12295075000000111,
          "durationTicks": 150,
          "midi": 46,
          "name": "A#2",
          "ticks": 110100,
          "time": 90.2458505,
          "velocity": 0.6220472440944882
        },
        {
          "duration": 0.1229507499999869,
          "durationTicks": 150,
          "midi": 46,
          "name": "A#2",
          "ticks": 110250,
          "time": 90.36880125,
          "velocity": 0.3228346456692913
        },
        {
          "duration": 0.12295075000000111,
          "durationTicks": 150,
          "midi": 43,
          "name": "G2",
          "ticks": 110400,
          "time": 90.49175199999999,
          "velocity": 0.6141732283464567
        },
        {
          "duration": 0.12295075000000111,
          "durationTicks": 150,
          "midi": 43,
          "name": "G2",
          "ticks": 110550,
          "time": 90.61470274999999,
          "velocity": 0.3228346456692913
        },
        {
          "duration": 0.12295075000000111,
          "durationTicks": 150,
          "midi": 43,
          "name": "G2",
          "ticks": 110700,
          "time": 90.7376535,
          "velocity": 0.6141732283464567
        },
        {
          "duration": 0.12295075000000111,
          "durationTicks": 150,
          "midi": 43,
          "name": "G2",
          "ticks": 110850,
          "time": 90.86060425,
          "velocity": 0.3228346456692913
        },
        {
          "duration": 0.12295075000000111,
          "durationTicks": 150,
          "midi": 43,
          "name": "G2",
          "ticks": 111000,
          "time": 90.983555,
          "velocity": 0.6141732283464567
        },
        {
          "duration": 0.12295075000000111,
          "durationTicks": 150,
          "midi": 43,
          "name": "G2",
          "ticks": 111150,
          "time": 91.10650575,
          "velocity": 0.3228346456692913
        },
        {
          "duration": 0.12295075000000111,
          "durationTicks": 150,
          "midi": 43,
          "name": "G2",
          "ticks": 111300,
          "time": 91.2294565,
          "velocity": 0.6141732283464567
        },
        {
          "duration": 0.24590150000000222,
          "durationTicks": 300,
          "midi": 43,
          "name": "G2",
          "ticks": 111450,
          "time": 91.35240725,
          "velocity": 0.6141732283464567
        },
        {
          "duration": 0.12295075000000111,
          "durationTicks": 150,
          "midi": 43,
          "name": "G2",
          "ticks": 111750,
          "time": 91.59830875,
          "velocity": 0.3228346456692913
        },
        {
          "duration": 0.12295075000000111,
          "durationTicks": 150,
          "midi": 43,
          "name": "G2",
          "ticks": 111900,
          "time": 91.7212595,
          "velocity": 0.6220472440944882
        },
        {
          "duration": 0.12295075000000111,
          "durationTicks": 150,
          "midi": 43,
          "name": "G2",
          "ticks": 112050,
          "time": 91.84421025,
          "velocity": 0.3228346456692913
        },
        {
          "duration": 0.1229507499999869,
          "durationTicks": 150,
          "midi": 43,
          "name": "G2",
          "ticks": 112200,
          "time": 91.967161,
          "velocity": 0.6220472440944882
        },
        {
          "duration": 0.12295075000000111,
          "durationTicks": 150,
          "midi": 43,
          "name": "G2",
          "ticks": 112350,
          "time": 92.09011174999999,
          "velocity": 0.3228346456692913
        },
        {
          "duration": 0.12295075000000111,
          "durationTicks": 150,
          "midi": 43,
          "name": "G2",
          "ticks": 112500,
          "time": 92.21306249999999,
          "velocity": 0.6220472440944882
        },
        {
          "duration": 0.12295075000000111,
          "durationTicks": 150,
          "midi": 43,
          "name": "G2",
          "ticks": 112650,
          "time": 92.33601325,
          "velocity": 0.3228346456692913
        },
        {
          "duration": 0.12295075000000111,
          "durationTicks": 150,
          "midi": 48,
          "name": "C3",
          "ticks": 112800,
          "time": 92.458964,
          "velocity": 0.6141732283464567
        },
        {
          "duration": 0.12295075000000111,
          "durationTicks": 150,
          "midi": 48,
          "name": "C3",
          "ticks": 112950,
          "time": 92.58191475,
          "velocity": 0.3228346456692913
        },
        {
          "duration": 0.12295075000000111,
          "durationTicks": 150,
          "midi": 48,
          "name": "C3",
          "ticks": 113100,
          "time": 92.7048655,
          "velocity": 0.6141732283464567
        },
        {
          "duration": 0.12295075000000111,
          "durationTicks": 150,
          "midi": 48,
          "name": "C3",
          "ticks": 113250,
          "time": 92.82781625,
          "velocity": 0.3228346456692913
        },
        {
          "duration": 0.12295075000000111,
          "durationTicks": 150,
          "midi": 48,
          "name": "C3",
          "ticks": 113400,
          "time": 92.950767,
          "velocity": 0.6141732283464567
        },
        {
          "duration": 0.12295075000000111,
          "durationTicks": 150,
          "midi": 48,
          "name": "C3",
          "ticks": 113550,
          "time": 93.07371775,
          "velocity": 0.3228346456692913
        },
        {
          "duration": 0.12295075000000111,
          "durationTicks": 150,
          "midi": 48,
          "name": "C3",
          "ticks": 113700,
          "time": 93.1966685,
          "velocity": 0.6141732283464567
        },
        {
          "duration": 0.24590150000000222,
          "durationTicks": 300,
          "midi": 51,
          "name": "D#3",
          "ticks": 113850,
          "time": 93.31961925,
          "velocity": 0.6141732283464567
        },
        {
          "duration": 0.1229507499999869,
          "durationTicks": 150,
          "midi": 51,
          "name": "D#3",
          "ticks": 114150,
          "time": 93.56552075,
          "velocity": 0.3228346456692913
        },
        {
          "duration": 0.12295075000000111,
          "durationTicks": 150,
          "midi": 51,
          "name": "D#3",
          "ticks": 114300,
          "time": 93.68847149999999,
          "velocity": 0.6220472440944882
        },
        {
          "duration": 0.12295075000000111,
          "durationTicks": 150,
          "midi": 51,
          "name": "D#3",
          "ticks": 114450,
          "time": 93.81142224999999,
          "velocity": 0.3228346456692913
        },
        {
          "duration": 0.12295075000000111,
          "durationTicks": 150,
          "midi": 51,
          "name": "D#3",
          "ticks": 114600,
          "time": 93.934373,
          "velocity": 0.6220472440944882
        },
        {
          "duration": 0.12295075000000111,
          "durationTicks": 150,
          "midi": 51,
          "name": "D#3",
          "ticks": 114750,
          "time": 94.05732375,
          "velocity": 0.3228346456692913
        },
        {
          "duration": 0.12295075000000111,
          "durationTicks": 150,
          "midi": 51,
          "name": "D#3",
          "ticks": 114900,
          "time": 94.1802745,
          "velocity": 0.6220472440944882
        },
        {
          "duration": 0.12295075000000111,
          "durationTicks": 150,
          "midi": 51,
          "name": "D#3",
          "ticks": 115050,
          "time": 94.30322525,
          "velocity": 0.3228346456692913
        },
        {
          "duration": 0.12295075000000111,
          "durationTicks": 150,
          "midi": 44,
          "name": "G#2",
          "ticks": 115200,
          "time": 94.426176,
          "velocity": 0.6141732283464567
        },
        {
          "duration": 0.12295075000000111,
          "durationTicks": 150,
          "midi": 44,
          "name": "G#2",
          "ticks": 115350,
          "time": 94.54912675,
          "velocity": 0.3228346456692913
        },
        {
          "duration": 0.12295075000000111,
          "durationTicks": 150,
          "midi": 44,
          "name": "G#2",
          "ticks": 115500,
          "time": 94.6720775,
          "velocity": 0.6141732283464567
        },
        {
          "duration": 0.12295075000000111,
          "durationTicks": 150,
          "midi": 44,
          "name": "G#2",
          "ticks": 115650,
          "time": 94.79502825,
          "velocity": 0.3228346456692913
        },
        {
          "duration": 0.12295075000000111,
          "durationTicks": 150,
          "midi": 44,
          "name": "G#2",
          "ticks": 115800,
          "time": 94.917979,
          "velocity": 0.6141732283464567
        },
        {
          "duration": 0.12295075000000111,
          "durationTicks": 150,
          "midi": 44,
          "name": "G#2",
          "ticks": 115950,
          "time": 95.04092975,
          "velocity": 0.3228346456692913
        },
        {
          "duration": 0.1229507499999869,
          "durationTicks": 150,
          "midi": 44,
          "name": "G#2",
          "ticks": 116100,
          "time": 95.1638805,
          "velocity": 0.6141732283464567
        },
        {
          "duration": 0.24590150000000222,
          "durationTicks": 300,
          "midi": 44,
          "name": "G#2",
          "ticks": 116250,
          "time": 95.28683124999999,
          "velocity": 0.6141732283464567
        },
        {
          "duration": 0.12295075000000111,
          "durationTicks": 150,
          "midi": 44,
          "name": "G#2",
          "ticks": 116550,
          "time": 95.53273275,
          "velocity": 0.3228346456692913
        },
        {
          "duration": 0.12295075000000111,
          "durationTicks": 150,
          "midi": 44,
          "name": "G#2",
          "ticks": 116700,
          "time": 95.6556835,
          "velocity": 0.6220472440944882
        },
        {
          "duration": 0.12295075000000111,
          "durationTicks": 150,
          "midi": 44,
          "name": "G#2",
          "ticks": 116850,
          "time": 95.77863425,
          "velocity": 0.3228346456692913
        },
        {
          "duration": 0.12295075000000111,
          "durationTicks": 150,
          "midi": 44,
          "name": "G#2",
          "ticks": 117000,
          "time": 95.901585,
          "velocity": 0.6220472440944882
        },
        {
          "duration": 0.12295075000000111,
          "durationTicks": 150,
          "midi": 44,
          "name": "G#2",
          "ticks": 117150,
          "time": 96.02453575,
          "velocity": 0.3228346456692913
        },
        {
          "duration": 0.12295075000000111,
          "durationTicks": 150,
          "midi": 44,
          "name": "G#2",
          "ticks": 117300,
          "time": 96.1474865,
          "velocity": 0.6220472440944882
        },
        {
          "duration": 0.12295075000000111,
          "durationTicks": 150,
          "midi": 44,
          "name": "G#2",
          "ticks": 117450,
          "time": 96.27043725,
          "velocity": 0.3228346456692913
        },
        {
          "duration": 0.12295075000000111,
          "durationTicks": 150,
          "midi": 46,
          "name": "A#2",
          "ticks": 117600,
          "time": 96.393388,
          "velocity": 0.6141732283464567
        },
        {
          "duration": 0.12295075000000111,
          "durationTicks": 150,
          "midi": 46,
          "name": "A#2",
          "ticks": 117750,
          "time": 96.51633875,
          "velocity": 0.3228346456692913
        },
        {
          "duration": 0.12295075000000111,
          "durationTicks": 150,
          "midi": 46,
          "name": "A#2",
          "ticks": 117900,
          "time": 96.6392895,
          "velocity": 0.6141732283464567
        },
        {
          "duration": 0.1229507499999869,
          "durationTicks": 150,
          "midi": 46,
          "name": "A#2",
          "ticks": 118050,
          "time": 96.76224025,
          "velocity": 0.3228346456692913
        },
        {
          "duration": 0.12295075000000111,
          "durationTicks": 150,
          "midi": 46,
          "name": "A#2",
          "ticks": 118200,
          "time": 96.88519099999999,
          "velocity": 0.6141732283464567
        },
        {
          "duration": 0.12295075000000111,
          "durationTicks": 150,
          "midi": 46,
          "name": "A#2",
          "ticks": 118350,
          "time": 97.00814175,
          "velocity": 0.3228346456692913
        },
        {
          "duration": 0.12295075000000111,
          "durationTicks": 150,
          "midi": 46,
          "name": "A#2",
          "ticks": 118500,
          "time": 97.1310925,
          "velocity": 0.6141732283464567
        },
        {
          "duration": 0.24590150000000222,
          "durationTicks": 300,
          "midi": 46,
          "name": "A#2",
          "ticks": 118650,
          "time": 97.25404325,
          "velocity": 0.6141732283464567
        },
        {
          "duration": 0.12295075000000111,
          "durationTicks": 150,
          "midi": 46,
          "name": "A#2",
          "ticks": 118950,
          "time": 97.49994475,
          "velocity": 0.3228346456692913
        },
        {
          "duration": 0.12295075000000111,
          "durationTicks": 150,
          "midi": 46,
          "name": "A#2",
          "ticks": 119100,
          "time": 97.6228955,
          "velocity": 0.6220472440944882
        },
        {
          "duration": 0.12295075000000111,
          "durationTicks": 150,
          "midi": 46,
          "name": "A#2",
          "ticks": 119250,
          "time": 97.74584625,
          "velocity": 0.3228346456692913
        },
        {
          "duration": 0.12295075000000111,
          "durationTicks": 150,
          "midi": 46,
          "name": "A#2",
          "ticks": 119400,
          "time": 97.868797,
          "velocity": 0.6220472440944882
        },
        {
          "duration": 0.12295075000000111,
          "durationTicks": 150,
          "midi": 46,
          "name": "A#2",
          "ticks": 119550,
          "time": 97.99174775,
          "velocity": 0.3228346456692913
        },
        {
          "duration": 0.12295075000000111,
          "durationTicks": 150,
          "midi": 46,
          "name": "A#2",
          "ticks": 119700,
          "time": 98.1146985,
          "velocity": 0.6220472440944882
        },
        {
          "duration": 0.12295075000000111,
          "durationTicks": 150,
          "midi": 46,
          "name": "A#2",
          "ticks": 119850,
          "time": 98.23764925,
          "velocity": 0.3228346456692913
        },
        {
          "duration": 0.1229507499999869,
          "durationTicks": 150,
          "midi": 43,
          "name": "G2",
          "ticks": 120000,
          "time": 98.3606,
          "velocity": 0.6141732283464567
        },
        {
          "duration": 0.12295075000000111,
          "durationTicks": 150,
          "midi": 43,
          "name": "G2",
          "ticks": 120150,
          "time": 98.48355074999999,
          "velocity": 0.3228346456692913
        },
        {
          "duration": 0.12295075000000111,
          "durationTicks": 150,
          "midi": 43,
          "name": "G2",
          "ticks": 120300,
          "time": 98.6065015,
          "velocity": 0.6141732283464567
        },
        {
          "duration": 0.12295075000000111,
          "durationTicks": 150,
          "midi": 43,
          "name": "G2",
          "ticks": 120450,
          "time": 98.72945225,
          "velocity": 0.3228346456692913
        },
        {
          "duration": 0.12295075000000111,
          "durationTicks": 150,
          "midi": 43,
          "name": "G2",
          "ticks": 120600,
          "time": 98.852403,
          "velocity": 0.6141732283464567
        },
        {
          "duration": 0.12295075000000111,
          "durationTicks": 150,
          "midi": 43,
          "name": "G2",
          "ticks": 120750,
          "time": 98.97535375,
          "velocity": 0.3228346456692913
        },
        {
          "duration": 0.12295075000000111,
          "durationTicks": 150,
          "midi": 43,
          "name": "G2",
          "ticks": 120900,
          "time": 99.0983045,
          "velocity": 0.6141732283464567
        },
        {
          "duration": 0.24590150000000222,
          "durationTicks": 300,
          "midi": 43,
          "name": "G2",
          "ticks": 121050,
          "time": 99.22125525,
          "velocity": 0.6141732283464567
        },
        {
          "duration": 0.12295075000000111,
          "durationTicks": 150,
          "midi": 43,
          "name": "G2",
          "ticks": 121350,
          "time": 99.46715675,
          "velocity": 0.3228346456692913
        },
        {
          "duration": 0.12295075000000111,
          "durationTicks": 150,
          "midi": 43,
          "name": "G2",
          "ticks": 121500,
          "time": 99.5901075,
          "velocity": 0.6220472440944882
        },
        {
          "duration": 0.12295075000000111,
          "durationTicks": 150,
          "midi": 43,
          "name": "G2",
          "ticks": 121650,
          "time": 99.71305825,
          "velocity": 0.3228346456692913
        },
        {
          "duration": 0.1229507499999869,
          "durationTicks": 150,
          "midi": 43,
          "name": "G2",
          "ticks": 121800,
          "time": 99.836009,
          "velocity": 0.6220472440944882
        },
        {
          "duration": 0.12295075000000111,
          "durationTicks": 150,
          "midi": 43,
          "name": "G2",
          "ticks": 121950,
          "time": 99.95895974999999,
          "velocity": 0.3228346456692913
        },
        {
          "duration": 0.12295075000000111,
          "durationTicks": 150,
          "midi": 43,
          "name": "G2",
          "ticks": 122100,
          "time": 100.08191049999999,
          "velocity": 0.6220472440944882
        },
        {
          "duration": 0.12295075000000111,
          "durationTicks": 150,
          "midi": 43,
          "name": "G2",
          "ticks": 122250,
          "time": 100.20486125,
          "velocity": 0.3228346456692913
        },
        {
          "duration": 0.12295075000000111,
          "durationTicks": 150,
          "midi": 48,
          "name": "C3",
          "ticks": 122400,
          "time": 100.327812,
          "velocity": 0.6141732283464567
        },
        {
          "duration": 0.12295075000000111,
          "durationTicks": 150,
          "midi": 48,
          "name": "C3",
          "ticks": 122550,
          "time": 100.45076275,
          "velocity": 0.3228346456692913
        },
        {
          "duration": 0.12295075000000111,
          "durationTicks": 150,
          "midi": 48,
          "name": "C3",
          "ticks": 122700,
          "time": 100.5737135,
          "velocity": 0.6141732283464567
        },
        {
          "duration": 0.12295075000000111,
          "durationTicks": 150,
          "midi": 48,
          "name": "C3",
          "ticks": 122850,
          "time": 100.69666425,
          "velocity": 0.3228346456692913
        },
        {
          "duration": 0.12295075000000111,
          "durationTicks": 150,
          "midi": 48,
          "name": "C3",
          "ticks": 123000,
          "time": 100.819615,
          "velocity": 0.6141732283464567
        },
        {
          "duration": 0.12295075000000111,
          "durationTicks": 150,
          "midi": 48,
          "name": "C3",
          "ticks": 123150,
          "time": 100.94256575,
          "velocity": 0.3228346456692913
        },
        {
          "duration": 0.12295075000000111,
          "durationTicks": 150,
          "midi": 48,
          "name": "C3",
          "ticks": 123300,
          "time": 101.0655165,
          "velocity": 0.6141732283464567
        },
        {
          "duration": 0.24590150000000222,
          "durationTicks": 300,
          "midi": 51,
          "name": "D#3",
          "ticks": 123450,
          "time": 101.18846725,
          "velocity": 0.6141732283464567
        },
        {
          "duration": 0.1229507499999869,
          "durationTicks": 150,
          "midi": 51,
          "name": "D#3",
          "ticks": 123750,
          "time": 101.43436875,
          "velocity": 0.3228346456692913
        },
        {
          "duration": 0.12295075000000111,
          "durationTicks": 150,
          "midi": 51,
          "name": "D#3",
          "ticks": 123900,
          "time": 101.55731949999999,
          "velocity": 0.6220472440944882
        },
        {
          "duration": 0.12295075000000111,
          "durationTicks": 150,
          "midi": 51,
          "name": "D#3",
          "ticks": 124050,
          "time": 101.68027024999999,
          "velocity": 0.3228346456692913
        },
        {
          "duration": 0.12295075000000111,
          "durationTicks": 150,
          "midi": 51,
          "name": "D#3",
          "ticks": 124200,
          "time": 101.803221,
          "velocity": 0.6220472440944882
        },
        {
          "duration": 0.12295075000000111,
          "durationTicks": 150,
          "midi": 51,
          "name": "D#3",
          "ticks": 124350,
          "time": 101.92617175,
          "velocity": 0.3228346456692913
        },
        {
          "duration": 0.12295075000000111,
          "durationTicks": 150,
          "midi": 51,
          "name": "D#3",
          "ticks": 124500,
          "time": 102.0491225,
          "velocity": 0.6220472440944882
        },
        {
          "duration": 0.12295075000000111,
          "durationTicks": 150,
          "midi": 51,
          "name": "D#3",
          "ticks": 124650,
          "time": 102.17207325,
          "velocity": 0.3228346456692913
        },
        {
          "duration": 0.12295075000000111,
          "durationTicks": 150,
          "midi": 44,
          "name": "G#2",
          "ticks": 124800,
          "time": 102.295024,
          "velocity": 0.6141732283464567
        },
        {
          "duration": 0.12295075000000111,
          "durationTicks": 150,
          "midi": 44,
          "name": "G#2",
          "ticks": 124950,
          "time": 102.41797475,
          "velocity": 0.3228346456692913
        },
        {
          "duration": 0.12295075000000111,
          "durationTicks": 150,
          "midi": 44,
          "name": "G#2",
          "ticks": 125100,
          "time": 102.5409255,
          "velocity": 0.6141732283464567
        },
        {
          "duration": 0.12295075000000111,
          "durationTicks": 150,
          "midi": 44,
          "name": "G#2",
          "ticks": 125250,
          "time": 102.66387625,
          "velocity": 0.3228346456692913
        },
        {
          "duration": 0.12295075000000111,
          "durationTicks": 150,
          "midi": 44,
          "name": "G#2",
          "ticks": 125400,
          "time": 102.786827,
          "velocity": 0.6141732283464567
        },
        {
          "duration": 0.12295075000000111,
          "durationTicks": 150,
          "midi": 44,
          "name": "G#2",
          "ticks": 125550,
          "time": 102.90977775,
          "velocity": 0.3228346456692913
        },
        {
          "duration": 0.1229507499999869,
          "durationTicks": 150,
          "midi": 44,
          "name": "G#2",
          "ticks": 125700,
          "time": 103.0327285,
          "velocity": 0.6141732283464567
        },
        {
          "duration": 0.24590150000000222,
          "durationTicks": 300,
          "midi": 44,
          "name": "G#2",
          "ticks": 125850,
          "time": 103.15567924999999,
          "velocity": 0.6141732283464567
        },
        {
          "duration": 0.12295075000000111,
          "durationTicks": 150,
          "midi": 44,
          "name": "G#2",
          "ticks": 126150,
          "time": 103.40158075,
          "velocity": 0.3228346456692913
        },
        {
          "duration": 0.12295075000000111,
          "durationTicks": 150,
          "midi": 44,
          "name": "G#2",
          "ticks": 126300,
          "time": 103.5245315,
          "velocity": 0.6220472440944882
        },
        {
          "duration": 0.12295075000000111,
          "durationTicks": 150,
          "midi": 44,
          "name": "G#2",
          "ticks": 126450,
          "time": 103.64748225,
          "velocity": 0.3228346456692913
        },
        {
          "duration": 0.12295075000000111,
          "durationTicks": 150,
          "midi": 44,
          "name": "G#2",
          "ticks": 126600,
          "time": 103.770433,
          "velocity": 0.6220472440944882
        },
        {
          "duration": 0.12295075000000111,
          "durationTicks": 150,
          "midi": 44,
          "name": "G#2",
          "ticks": 126750,
          "time": 103.89338375,
          "velocity": 0.3228346456692913
        },
        {
          "duration": 0.12295075000000111,
          "durationTicks": 150,
          "midi": 44,
          "name": "G#2",
          "ticks": 126900,
          "time": 104.0163345,
          "velocity": 0.6220472440944882
        },
        {
          "duration": 0.12295075000000111,
          "durationTicks": 150,
          "midi": 44,
          "name": "G#2",
          "ticks": 127050,
          "time": 104.13928525,
          "velocity": 0.3228346456692913
        },
        {
          "duration": 0.12295075000000111,
          "durationTicks": 150,
          "midi": 46,
          "name": "A#2",
          "ticks": 127200,
          "time": 104.262236,
          "velocity": 0.6141732283464567
        },
        {
          "duration": 0.12295075000000111,
          "durationTicks": 150,
          "midi": 46,
          "name": "A#2",
          "ticks": 127350,
          "time": 104.38518675,
          "velocity": 0.3228346456692913
        },
        {
          "duration": 0.12295075000000111,
          "durationTicks": 150,
          "midi": 46,
          "name": "A#2",
          "ticks": 127500,
          "time": 104.5081375,
          "velocity": 0.6141732283464567
        },
        {
          "duration": 0.1229507499999869,
          "durationTicks": 150,
          "midi": 46,
          "name": "A#2",
          "ticks": 127650,
          "time": 104.63108825,
          "velocity": 0.3228346456692913
        },
        {
          "duration": 0.12295075000000111,
          "durationTicks": 150,
          "midi": 46,
          "name": "A#2",
          "ticks": 127800,
          "time": 104.75403899999999,
          "velocity": 0.6141732283464567
        },
        {
          "duration": 0.12295075000000111,
          "durationTicks": 150,
          "midi": 46,
          "name": "A#2",
          "ticks": 127950,
          "time": 104.87698974999999,
          "velocity": 0.3228346456692913
        },
        {
          "duration": 0.12295075000000111,
          "durationTicks": 150,
          "midi": 46,
          "name": "A#2",
          "ticks": 128100,
          "time": 104.9999405,
          "velocity": 0.6141732283464567
        },
        {
          "duration": 0.24590150000000222,
          "durationTicks": 300,
          "midi": 46,
          "name": "A#2",
          "ticks": 128250,
          "time": 105.12289125,
          "velocity": 0.6141732283464567
        },
        {
          "duration": 0.12295075000000111,
          "durationTicks": 150,
          "midi": 46,
          "name": "A#2",
          "ticks": 128550,
          "time": 105.36879275,
          "velocity": 0.3228346456692913
        },
        {
          "duration": 0.12295075000000111,
          "durationTicks": 150,
          "midi": 46,
          "name": "A#2",
          "ticks": 128700,
          "time": 105.4917435,
          "velocity": 0.6220472440944882
        },
        {
          "duration": 0.12295075000000111,
          "durationTicks": 150,
          "midi": 46,
          "name": "A#2",
          "ticks": 128850,
          "time": 105.61469425,
          "velocity": 0.3228346456692913
        },
        {
          "duration": 0.12295075000000111,
          "durationTicks": 150,
          "midi": 46,
          "name": "A#2",
          "ticks": 129000,
          "time": 105.737645,
          "velocity": 0.6220472440944882
        },
        {
          "duration": 0.12295075000000111,
          "durationTicks": 150,
          "midi": 46,
          "name": "A#2",
          "ticks": 129150,
          "time": 105.86059575,
          "velocity": 0.3228346456692913
        },
        {
          "duration": 0.12295075000000111,
          "durationTicks": 150,
          "midi": 46,
          "name": "A#2",
          "ticks": 129300,
          "time": 105.9835465,
          "velocity": 0.6220472440944882
        },
        {
          "duration": 0.1229507499999869,
          "durationTicks": 150,
          "midi": 46,
          "name": "A#2",
          "ticks": 129450,
          "time": 106.10649725,
          "velocity": 0.3228346456692913
        },
        {
          "duration": 0.12295075000000111,
          "durationTicks": 150,
          "midi": 43,
          "name": "G2",
          "ticks": 129600,
          "time": 106.22944799999999,
          "velocity": 0.6141732283464567
        },
        {
          "duration": 0.12295075000000111,
          "durationTicks": 150,
          "midi": 43,
          "name": "G2",
          "ticks": 129750,
          "time": 106.35239874999999,
          "velocity": 0.3228346456692913
        },
        {
          "duration": 0.12295075000000111,
          "durationTicks": 150,
          "midi": 43,
          "name": "G2",
          "ticks": 129900,
          "time": 106.4753495,
          "velocity": 0.6141732283464567
        },
        {
          "duration": 0.12295075000000111,
          "durationTicks": 150,
          "midi": 43,
          "name": "G2",
          "ticks": 130050,
          "time": 106.59830025,
          "velocity": 0.3228346456692913
        },
        {
          "duration": 0.12295075000000111,
          "durationTicks": 150,
          "midi": 43,
          "name": "G2",
          "ticks": 130200,
          "time": 106.721251,
          "velocity": 0.6141732283464567
        },
        {
          "duration": 0.12295075000000111,
          "durationTicks": 150,
          "midi": 43,
          "name": "G2",
          "ticks": 130350,
          "time": 106.84420175,
          "velocity": 0.3228346456692913
        },
        {
          "duration": 0.12295075000000111,
          "durationTicks": 150,
          "midi": 43,
          "name": "G2",
          "ticks": 130500,
          "time": 106.9671525,
          "velocity": 0.6141732283464567
        },
        {
          "duration": 0.24590150000000222,
          "durationTicks": 300,
          "midi": 43,
          "name": "G2",
          "ticks": 130650,
          "time": 107.09010325,
          "velocity": 0.6141732283464567
        },
        {
          "duration": 0.12295075000000111,
          "durationTicks": 150,
          "midi": 43,
          "name": "G2",
          "ticks": 130950,
          "time": 107.33600475,
          "velocity": 0.3228346456692913
        },
        {
          "duration": 0.12295075000000111,
          "durationTicks": 150,
          "midi": 43,
          "name": "G2",
          "ticks": 131100,
          "time": 107.4589555,
          "velocity": 0.6220472440944882
        },
        {
          "duration": 0.12295075000000111,
          "durationTicks": 150,
          "midi": 43,
          "name": "G2",
          "ticks": 131250,
          "time": 107.58190625,
          "velocity": 0.3228346456692913
        },
        {
          "duration": 0.1229507499999869,
          "durationTicks": 150,
          "midi": 43,
          "name": "G2",
          "ticks": 131400,
          "time": 107.704857,
          "velocity": 0.6220472440944882
        },
        {
          "duration": 0.12295075000000111,
          "durationTicks": 150,
          "midi": 43,
          "name": "G2",
          "ticks": 131550,
          "time": 107.82780774999999,
          "velocity": 0.3228346456692913
        },
        {
          "duration": 0.12295075000000111,
          "durationTicks": 150,
          "midi": 43,
          "name": "G2",
          "ticks": 131700,
          "time": 107.95075849999999,
          "velocity": 0.6220472440944882
        },
        {
          "duration": 0.12295075000000111,
          "durationTicks": 150,
          "midi": 43,
          "name": "G2",
          "ticks": 131850,
          "time": 108.07370925,
          "velocity": 0.3228346456692913
        },
        {
          "duration": 0.12295075000000111,
          "durationTicks": 150,
          "midi": 48,
          "name": "C3",
          "ticks": 132000,
          "time": 108.19666,
          "velocity": 0.6141732283464567
        },
        {
          "duration": 0.12295075000000111,
          "durationTicks": 150,
          "midi": 48,
          "name": "C3",
          "ticks": 132150,
          "time": 108.31961075,
          "velocity": 0.3228346456692913
        },
        {
          "duration": 0.12295075000000111,
          "durationTicks": 150,
          "midi": 48,
          "name": "C3",
          "ticks": 132300,
          "time": 108.4425615,
          "velocity": 0.6141732283464567
        },
        {
          "duration": 0.12295075000000111,
          "durationTicks": 150,
          "midi": 48,
          "name": "C3",
          "ticks": 132450,
          "time": 108.56551225,
          "velocity": 0.3228346456692913
        },
        {
          "duration": 0.12295075000000111,
          "durationTicks": 150,
          "midi": 48,
          "name": "C3",
          "ticks": 132600,
          "time": 108.688463,
          "velocity": 0.6141732283464567
        },
        {
          "duration": 0.12295075000000111,
          "durationTicks": 150,
          "midi": 48,
          "name": "C3",
          "ticks": 132750,
          "time": 108.81141375,
          "velocity": 0.3228346456692913
        },
        {
          "duration": 0.12295075000000111,
          "durationTicks": 150,
          "midi": 48,
          "name": "C3",
          "ticks": 132900,
          "time": 108.9343645,
          "velocity": 0.6141732283464567
        },
        {
          "duration": 0.12295075000000111,
          "durationTicks": 150,
          "midi": 51,
          "name": "D#3",
          "ticks": 133050,
          "time": 109.05731525,
          "velocity": 0.6141732283464567
        },
        {
          "duration": 0.12295075000000111,
          "durationTicks": 150,
          "midi": 50,
          "name": "D3",
          "ticks": 134400,
          "time": 110.163872,
          "velocity": 0.6299212598425197
        },
        {
          "duration": 0.12295075000000111,
          "durationTicks": 150,
          "midi": 50,
          "name": "D3",
          "ticks": 134550,
          "time": 110.28682275,
          "velocity": 0.3858267716535433
        },
        {
          "duration": 0.12295075000000111,
          "durationTicks": 150,
          "midi": 50,
          "name": "D3",
          "ticks": 134700,
          "time": 110.4097735,
          "velocity": 0.6299212598425197
        },
        {
          "duration": 0.12295075000000111,
          "durationTicks": 150,
          "midi": 50,
          "name": "D3",
          "ticks": 134850,
          "time": 110.53272425,
          "velocity": 0.3858267716535433
        },
        {
          "duration": 0.12295075000000111,
          "durationTicks": 150,
          "midi": 50,
          "name": "D3",
          "ticks": 135000,
          "time": 110.655675,
          "velocity": 0.6299212598425197
        },
        {
          "duration": 0.12295075000000111,
          "durationTicks": 150,
          "midi": 50,
          "name": "D3",
          "ticks": 135150,
          "time": 110.77862575,
          "velocity": 0.3858267716535433
        },
        {
          "duration": 0.1229507499999869,
          "durationTicks": 150,
          "midi": 50,
          "name": "D3",
          "ticks": 135300,
          "time": 110.9015765,
          "velocity": 0.6299212598425197
        },
        {
          "duration": 0.24590150000000222,
          "durationTicks": 300,
          "midi": 50,
          "name": "D3",
          "ticks": 135450,
          "time": 111.02452724999999,
          "velocity": 0.6299212598425197
        },
        {
          "duration": 0.12295075000000111,
          "durationTicks": 150,
          "midi": 50,
          "name": "D3",
          "ticks": 135750,
          "time": 111.27042875,
          "velocity": 0.3858267716535433
        },
        {
          "duration": 0.12295075000000111,
          "durationTicks": 150,
          "midi": 50,
          "name": "D3",
          "ticks": 135900,
          "time": 111.3933795,
          "velocity": 0.6377952755905512
        },
        {
          "duration": 0.12295075000000111,
          "durationTicks": 150,
          "midi": 50,
          "name": "D3",
          "ticks": 136050,
          "time": 111.51633025,
          "velocity": 0.3858267716535433
        },
        {
          "duration": 0.12295075000000111,
          "durationTicks": 150,
          "midi": 50,
          "name": "D3",
          "ticks": 136200,
          "time": 111.639281,
          "velocity": 0.6377952755905512
        },
        {
          "duration": 0.12295075000000111,
          "durationTicks": 150,
          "midi": 50,
          "name": "D3",
          "ticks": 136350,
          "time": 111.76223175,
          "velocity": 0.3858267716535433
        },
        {
          "duration": 0.12295075000000111,
          "durationTicks": 150,
          "midi": 50,
          "name": "D3",
          "ticks": 136500,
          "time": 111.8851825,
          "velocity": 0.6377952755905512
        },
        {
          "duration": 0.12295075000000111,
          "durationTicks": 150,
          "midi": 50,
          "name": "D3",
          "ticks": 136650,
          "time": 112.00813325,
          "velocity": 0.3937007874015748
        },
        {
          "duration": 0.12295075000000111,
          "durationTicks": 150,
          "midi": 50,
          "name": "D3",
          "ticks": 136800,
          "time": 112.131084,
          "velocity": 0.6299212598425197
        },
        {
          "duration": 0.12295075000000111,
          "durationTicks": 150,
          "midi": 50,
          "name": "D3",
          "ticks": 136950,
          "time": 112.25403475,
          "velocity": 0.3858267716535433
        },
        {
          "duration": 0.12295075000000111,
          "durationTicks": 150,
          "midi": 50,
          "name": "D3",
          "ticks": 137100,
          "time": 112.3769855,
          "velocity": 0.6299212598425197
        },
        {
          "duration": 0.1229507499999869,
          "durationTicks": 150,
          "midi": 50,
          "name": "D3",
          "ticks": 137250,
          "time": 112.49993625,
          "velocity": 0.3858267716535433
        },
        {
          "duration": 0.12295075000000111,
          "durationTicks": 150,
          "midi": 50,
          "name": "D3",
          "ticks": 137400,
          "time": 112.62288699999999,
          "velocity": 0.6299212598425197
        },
        {
          "duration": 0.12295075000000111,
          "durationTicks": 150,
          "midi": 50,
          "name": "D3",
          "ticks": 137550,
          "time": 112.74583774999999,
          "velocity": 0.3858267716535433
        },
        {
          "duration": 0.12295075000000111,
          "durationTicks": 150,
          "midi": 50,
          "name": "D3",
          "ticks": 137700,
          "time": 112.8687885,
          "velocity": 0.6299212598425197
        },
        {
          "duration": 0.24590150000000222,
          "durationTicks": 300,
          "midi": 50,
          "name": "D3",
          "ticks": 137850,
          "time": 112.99173925,
          "velocity": 0.6299212598425197
        },
        {
          "duration": 0.12295075000000111,
          "durationTicks": 150,
          "midi": 50,
          "name": "D3",
          "ticks": 138150,
          "time": 113.23764075,
          "velocity": 0.3858267716535433
        },
        {
          "duration": 0.12295075000000111,
          "durationTicks": 150,
          "midi": 50,
          "name": "D3",
          "ticks": 138300,
          "time": 113.3605915,
          "velocity": 0.6377952755905512
        },
        {
          "duration": 0.12295075000000111,
          "durationTicks": 150,
          "midi": 50,
          "name": "D3",
          "ticks": 138450,
          "time": 113.48354225,
          "velocity": 0.3858267716535433
        },
        {
          "duration": 0.12295075000000111,
          "durationTicks": 150,
          "midi": 50,
          "name": "D3",
          "ticks": 138600,
          "time": 113.606493,
          "velocity": 0.6377952755905512
        },
        {
          "duration": 0.12295075000000111,
          "durationTicks": 150,
          "midi": 50,
          "name": "D3",
          "ticks": 138750,
          "time": 113.72944375,
          "velocity": 0.3858267716535433
        },
        {
          "duration": 0.12295075000000111,
          "durationTicks": 150,
          "midi": 50,
          "name": "D3",
          "ticks": 138900,
          "time": 113.8523945,
          "velocity": 0.6377952755905512
        },
        {
          "duration": 0.12295075000000111,
          "durationTicks": 150,
          "midi": 50,
          "name": "D3",
          "ticks": 139050,
          "time": 113.97534525,
          "velocity": 0.3937007874015748
        },
        {
          "duration": 0.1229507499999869,
          "durationTicks": 150,
          "midi": 46,
          "name": "A#2",
          "ticks": 139200,
          "time": 114.098296,
          "velocity": 0.6299212598425197
        },
        {
          "duration": 0.12295075000000111,
          "durationTicks": 150,
          "midi": 46,
          "name": "A#2",
          "ticks": 139350,
          "time": 114.22124674999999,
          "velocity": 0.3858267716535433
        },
        {
          "duration": 0.12295075000000111,
          "durationTicks": 150,
          "midi": 46,
          "name": "A#2",
          "ticks": 139500,
          "time": 114.34419749999999,
          "velocity": 0.6299212598425197
        },
        {
          "duration": 0.12295075000000111,
          "durationTicks": 150,
          "midi": 46,
          "name": "A#2",
          "ticks": 139650,
          "time": 114.46714825,
          "velocity": 0.3858267716535433
        },
        {
          "duration": 0.12295075000000111,
          "durationTicks": 150,
          "midi": 46,
          "name": "A#2",
          "ticks": 139800,
          "time": 114.590099,
          "velocity": 0.6299212598425197
        },
        {
          "duration": 0.12295075000000111,
          "durationTicks": 150,
          "midi": 46,
          "name": "A#2",
          "ticks": 139950,
          "time": 114.71304975,
          "velocity": 0.3858267716535433
        },
        {
          "duration": 0.12295075000000111,
          "durationTicks": 150,
          "midi": 46,
          "name": "A#2",
          "ticks": 140100,
          "time": 114.8360005,
          "velocity": 0.6299212598425197
        },
        {
          "duration": 0.24590150000000222,
          "durationTicks": 300,
          "midi": 46,
          "name": "A#2",
          "ticks": 140250,
          "time": 114.95895125,
          "velocity": 0.6299212598425197
        },
        {
          "duration": 0.12295075000000111,
          "durationTicks": 150,
          "midi": 46,
          "name": "A#2",
          "ticks": 140550,
          "time": 115.20485275,
          "velocity": 0.3858267716535433
        },
        {
          "duration": 0.12295075000000111,
          "durationTicks": 150,
          "midi": 46,
          "name": "A#2",
          "ticks": 140700,
          "time": 115.3278035,
          "velocity": 0.6377952755905512
        },
        {
          "duration": 0.12295075000000111,
          "durationTicks": 150,
          "midi": 46,
          "name": "A#2",
          "ticks": 140850,
          "time": 115.45075425,
          "velocity": 0.3858267716535433
        },
        {
          "duration": 0.1229507499999869,
          "durationTicks": 150,
          "midi": 46,
          "name": "A#2",
          "ticks": 141000,
          "time": 115.573705,
          "velocity": 0.6377952755905512
        },
        {
          "duration": 0.12295075000000111,
          "durationTicks": 150,
          "midi": 46,
          "name": "A#2",
          "ticks": 141150,
          "time": 115.69665574999999,
          "velocity": 0.3858267716535433
        },
        {
          "duration": 0.12295075000000111,
          "durationTicks": 150,
          "midi": 46,
          "name": "A#2",
          "ticks": 141300,
          "time": 115.81960649999999,
          "velocity": 0.6377952755905512
        },
        {
          "duration": 0.12295075000000111,
          "durationTicks": 150,
          "midi": 46,
          "name": "A#2",
          "ticks": 141450,
          "time": 115.94255725,
          "velocity": 0.3937007874015748
        },
        {
          "duration": 0.12295075000000111,
          "durationTicks": 150,
          "midi": 48,
          "name": "C3",
          "ticks": 141600,
          "time": 116.065508,
          "velocity": 0.6299212598425197
        },
        {
          "duration": 0.12295075000000111,
          "durationTicks": 150,
          "midi": 48,
          "name": "C3",
          "ticks": 141750,
          "time": 116.18845875,
          "velocity": 0.3858267716535433
        },
        {
          "duration": 0.12295075000000111,
          "durationTicks": 150,
          "midi": 48,
          "name": "C3",
          "ticks": 141900,
          "time": 116.3114095,
          "velocity": 0.6299212598425197
        },
        {
          "duration": 0.12295075000000111,
          "durationTicks": 150,
          "midi": 48,
          "name": "C3",
          "ticks": 142050,
          "time": 116.43436025,
          "velocity": 0.3858267716535433
        },
        {
          "duration": 0.12295075000000111,
          "durationTicks": 150,
          "midi": 48,
          "name": "C3",
          "ticks": 142200,
          "time": 116.557311,
          "velocity": 0.6299212598425197
        },
        {
          "duration": 0.12295075000000111,
          "durationTicks": 150,
          "midi": 48,
          "name": "C3",
          "ticks": 142350,
          "time": 116.68026175,
          "velocity": 0.3858267716535433
        },
        {
          "duration": 0.12295075000000111,
          "durationTicks": 150,
          "midi": 48,
          "name": "C3",
          "ticks": 142500,
          "time": 116.8032125,
          "velocity": 0.6299212598425197
        },
        {
          "duration": 0.24590150000000222,
          "durationTicks": 300,
          "midi": 49,
          "name": "C#3",
          "ticks": 142650,
          "time": 116.92616325,
          "velocity": 0.6299212598425197
        },
        {
          "duration": 0.1229507499999869,
          "durationTicks": 150,
          "midi": 49,
          "name": "C#3",
          "ticks": 142950,
          "time": 117.17206475,
          "velocity": 0.3858267716535433
        },
        {
          "duration": 0.12295075000000111,
          "durationTicks": 150,
          "midi": 49,
          "name": "C#3",
          "ticks": 143100,
          "time": 117.29501549999999,
          "velocity": 0.6377952755905512
        },
        {
          "duration": 0.12295075000000111,
          "durationTicks": 150,
          "midi": 49,
          "name": "C#3",
          "ticks": 143250,
          "time": 117.41796624999999,
          "velocity": 0.3858267716535433
        },
        {
          "duration": 0.12295075000000111,
          "durationTicks": 150,
          "midi": 49,
          "name": "C#3",
          "ticks": 143400,
          "time": 117.540917,
          "velocity": 0.6377952755905512
        },
        {
          "duration": 0.12295075000000111,
          "durationTicks": 150,
          "midi": 49,
          "name": "C#3",
          "ticks": 143550,
          "time": 117.66386775,
          "velocity": 0.3858267716535433
        },
        {
          "duration": 0.12295075000000111,
          "durationTicks": 150,
          "midi": 49,
          "name": "C#3",
          "ticks": 143700,
          "time": 117.7868185,
          "velocity": 0.6377952755905512
        },
        {
          "duration": 0.12295075000000111,
          "durationTicks": 150,
          "midi": 49,
          "name": "C#3",
          "ticks": 143850,
          "time": 117.90976925,
          "velocity": 0.3937007874015748
        },
        {
          "duration": 0.12295075000000111,
          "durationTicks": 150,
          "midi": 50,
          "name": "D3",
          "ticks": 144000,
          "time": 118.03272,
          "velocity": 0.6299212598425197
        },
        {
          "duration": 0.12295075000000111,
          "durationTicks": 150,
          "midi": 50,
          "name": "D3",
          "ticks": 144150,
          "time": 118.15567075,
          "velocity": 0.3858267716535433
        },
        {
          "duration": 0.12295075000000111,
          "durationTicks": 150,
          "midi": 50,
          "name": "D3",
          "ticks": 144300,
          "time": 118.2786215,
          "velocity": 0.6299212598425197
        },
        {
          "duration": 0.12295075000000111,
          "durationTicks": 150,
          "midi": 50,
          "name": "D3",
          "ticks": 144450,
          "time": 118.40157225,
          "velocity": 0.3858267716535433
        },
        {
          "duration": 0.12295075000000111,
          "durationTicks": 150,
          "midi": 50,
          "name": "D3",
          "ticks": 144600,
          "time": 118.524523,
          "velocity": 0.6299212598425197
        },
        {
          "duration": 0.12295075000000111,
          "durationTicks": 150,
          "midi": 50,
          "name": "D3",
          "ticks": 144750,
          "time": 118.64747375,
          "velocity": 0.3858267716535433
        },
        {
          "duration": 0.1229507499999869,
          "durationTicks": 150,
          "midi": 50,
          "name": "D3",
          "ticks": 144900,
          "time": 118.7704245,
          "velocity": 0.6299212598425197
        },
        {
          "duration": 0.24590150000000222,
          "durationTicks": 300,
          "midi": 50,
          "name": "D3",
          "ticks": 145050,
          "time": 118.89337524999999,
          "velocity": 0.6299212598425197
        },
        {
          "duration": 0.12295075000000111,
          "durationTicks": 150,
          "midi": 50,
          "name": "D3",
          "ticks": 145350,
          "time": 119.13927675,
          "velocity": 0.3858267716535433
        },
        {
          "duration": 0.12295075000000111,
          "durationTicks": 150,
          "midi": 50,
          "name": "D3",
          "ticks": 145500,
          "time": 119.2622275,
          "velocity": 0.6377952755905512
        },
        {
          "duration": 0.12295075000000111,
          "durationTicks": 150,
          "midi": 50,
          "name": "D3",
          "ticks": 145650,
          "time": 119.38517825,
          "velocity": 0.3858267716535433
        },
        {
          "duration": 0.12295075000000111,
          "durationTicks": 150,
          "midi": 50,
          "name": "D3",
          "ticks": 145800,
          "time": 119.508129,
          "velocity": 0.6377952755905512
        },
        {
          "duration": 0.12295075000000111,
          "durationTicks": 150,
          "midi": 50,
          "name": "D3",
          "ticks": 145950,
          "time": 119.63107975,
          "velocity": 0.3858267716535433
        },
        {
          "duration": 0.12295075000000111,
          "durationTicks": 150,
          "midi": 50,
          "name": "D3",
          "ticks": 146100,
          "time": 119.7540305,
          "velocity": 0.6377952755905512
        },
        {
          "duration": 0.12295075000000111,
          "durationTicks": 150,
          "midi": 50,
          "name": "D3",
          "ticks": 146250,
          "time": 119.87698125,
          "velocity": 0.3937007874015748
        },
        {
          "duration": 0.12295075000000111,
          "durationTicks": 150,
          "midi": 50,
          "name": "D3",
          "ticks": 146400,
          "time": 119.999932,
          "velocity": 0.6299212598425197
        },
        {
          "duration": 0.12295075000000111,
          "durationTicks": 150,
          "midi": 50,
          "name": "D3",
          "ticks": 146550,
          "time": 120.12288275,
          "velocity": 0.3858267716535433
        },
        {
          "duration": 0.12295075000000111,
          "durationTicks": 150,
          "midi": 50,
          "name": "D3",
          "ticks": 146700,
          "time": 120.2458335,
          "velocity": 0.6299212598425197
        },
        {
          "duration": 0.1229507499999869,
          "durationTicks": 150,
          "midi": 50,
          "name": "D3",
          "ticks": 146850,
          "time": 120.36878425,
          "velocity": 0.3858267716535433
        },
        {
          "duration": 0.12295075000000111,
          "durationTicks": 150,
          "midi": 50,
          "name": "D3",
          "ticks": 147000,
          "time": 120.49173499999999,
          "velocity": 0.6299212598425197
        },
        {
          "duration": 0.12295075000000111,
          "durationTicks": 150,
          "midi": 50,
          "name": "D3",
          "ticks": 147150,
          "time": 120.61468574999999,
          "velocity": 0.3858267716535433
        },
        {
          "duration": 0.12295075000000111,
          "durationTicks": 150,
          "midi": 50,
          "name": "D3",
          "ticks": 147300,
          "time": 120.7376365,
          "velocity": 0.6299212598425197
        },
        {
          "duration": 0.24590150000000222,
          "durationTicks": 300,
          "midi": 50,
          "name": "D3",
          "ticks": 147450,
          "time": 120.86058725,
          "velocity": 0.6299212598425197
        },
        {
          "duration": 0.12295075000000111,
          "durationTicks": 150,
          "midi": 50,
          "name": "D3",
          "ticks": 147750,
          "time": 121.10648875,
          "velocity": 0.3858267716535433
        },
        {
          "duration": 0.12295075000000111,
          "durationTicks": 150,
          "midi": 50,
          "name": "D3",
          "ticks": 147900,
          "time": 121.2294395,
          "velocity": 0.6377952755905512
        },
        {
          "duration": 0.12295075000000111,
          "durationTicks": 150,
          "midi": 50,
          "name": "D3",
          "ticks": 148050,
          "time": 121.35239025,
          "velocity": 0.3858267716535433
        },
        {
          "duration": 0.12295075000000111,
          "durationTicks": 150,
          "midi": 50,
          "name": "D3",
          "ticks": 148200,
          "time": 121.475341,
          "velocity": 0.6377952755905512
        },
        {
          "duration": 0.12295075000000111,
          "durationTicks": 150,
          "midi": 50,
          "name": "D3",
          "ticks": 148350,
          "time": 121.59829175,
          "velocity": 0.3858267716535433
        },
        {
          "duration": 0.12295075000000111,
          "durationTicks": 150,
          "midi": 50,
          "name": "D3",
          "ticks": 148500,
          "time": 121.7212425,
          "velocity": 0.6377952755905512
        },
        {
          "duration": 0.1229507499999869,
          "durationTicks": 150,
          "midi": 50,
          "name": "D3",
          "ticks": 148650,
          "time": 121.84419325,
          "velocity": 0.3937007874015748
        },
        {
          "duration": 0.12295075000000111,
          "durationTicks": 150,
          "midi": 46,
          "name": "A#2",
          "ticks": 148800,
          "time": 121.96714399999999,
          "velocity": 0.6299212598425197
        },
        {
          "duration": 0.12295075000000111,
          "durationTicks": 150,
          "midi": 46,
          "name": "A#2",
          "ticks": 148950,
          "time": 122.09009474999999,
          "velocity": 0.3858267716535433
        },
        {
          "duration": 0.12295075000000111,
          "durationTicks": 150,
          "midi": 46,
          "name": "A#2",
          "ticks": 149100,
          "time": 122.21304549999999,
          "velocity": 0.6299212598425197
        },
        {
          "duration": 0.12295075000000111,
          "durationTicks": 150,
          "midi": 46,
          "name": "A#2",
          "ticks": 149250,
          "time": 122.33599625,
          "velocity": 0.3858267716535433
        },
        {
          "duration": 0.12295075000000111,
          "durationTicks": 150,
          "midi": 46,
          "name": "A#2",
          "ticks": 149400,
          "time": 122.458947,
          "velocity": 0.6299212598425197
        },
        {
          "duration": 0.12295075000000111,
          "durationTicks": 150,
          "midi": 46,
          "name": "A#2",
          "ticks": 149550,
          "time": 122.58189775,
          "velocity": 0.3858267716535433
        },
        {
          "duration": 0.12295075000000111,
          "durationTicks": 150,
          "midi": 46,
          "name": "A#2",
          "ticks": 149700,
          "time": 122.7048485,
          "velocity": 0.6299212598425197
        },
        {
          "duration": 0.24590150000000222,
          "durationTicks": 300,
          "midi": 46,
          "name": "A#2",
          "ticks": 149850,
          "time": 122.82779925,
          "velocity": 0.6299212598425197
        },
        {
          "duration": 0.12295075000000111,
          "durationTicks": 150,
          "midi": 46,
          "name": "A#2",
          "ticks": 150150,
          "time": 123.07370075,
          "velocity": 0.3858267716535433
        },
        {
          "duration": 0.12295075000000111,
          "durationTicks": 150,
          "midi": 46,
          "name": "A#2",
          "ticks": 150300,
          "time": 123.1966515,
          "velocity": 0.6377952755905512
        },
        {
          "duration": 0.12295075000000111,
          "durationTicks": 150,
          "midi": 46,
          "name": "A#2",
          "ticks": 150450,
          "time": 123.31960225,
          "velocity": 0.3858267716535433
        },
        {
          "duration": 0.1229507499999869,
          "durationTicks": 150,
          "midi": 46,
          "name": "A#2",
          "ticks": 150600,
          "time": 123.442553,
          "velocity": 0.6377952755905512
        },
        {
          "duration": 0.12295075000000111,
          "durationTicks": 150,
          "midi": 46,
          "name": "A#2",
          "ticks": 150750,
          "time": 123.56550374999999,
          "velocity": 0.3858267716535433
        },
        {
          "duration": 0.12295075000000111,
          "durationTicks": 150,
          "midi": 46,
          "name": "A#2",
          "ticks": 150900,
          "time": 123.68845449999999,
          "velocity": 0.6377952755905512
        },
        {
          "duration": 0.12295075000000111,
          "durationTicks": 150,
          "midi": 46,
          "name": "A#2",
          "ticks": 151050,
          "time": 123.81140524999999,
          "velocity": 0.3937007874015748
        },
        {
          "duration": 0.12295075000000111,
          "durationTicks": 150,
          "midi": 48,
          "name": "C3",
          "ticks": 151200,
          "time": 123.934356,
          "velocity": 0.6299212598425197
        },
        {
          "duration": 0.12295075000000111,
          "durationTicks": 150,
          "midi": 48,
          "name": "C3",
          "ticks": 151350,
          "time": 124.05730675,
          "velocity": 0.3858267716535433
        },
        {
          "duration": 0.12295075000000111,
          "durationTicks": 150,
          "midi": 48,
          "name": "C3",
          "ticks": 151500,
          "time": 124.1802575,
          "velocity": 0.6299212598425197
        },
        {
          "duration": 0.12295075000000111,
          "durationTicks": 150,
          "midi": 48,
          "name": "C3",
          "ticks": 151650,
          "time": 124.30320825,
          "velocity": 0.3858267716535433
        },
        {
          "duration": 0.12295075000000111,
          "durationTicks": 150,
          "midi": 48,
          "name": "C3",
          "ticks": 151800,
          "time": 124.426159,
          "velocity": 0.6299212598425197
        },
        {
          "duration": 0.12295075000000111,
          "durationTicks": 150,
          "midi": 48,
          "name": "C3",
          "ticks": 151950,
          "time": 124.54910975,
          "velocity": 0.3858267716535433
        },
        {
          "duration": 0.12295075000000111,
          "durationTicks": 150,
          "midi": 48,
          "name": "C3",
          "ticks": 152100,
          "time": 124.6720605,
          "velocity": 0.6299212598425197
        },
        {
          "duration": 0.24590150000000222,
          "durationTicks": 300,
          "midi": 49,
          "name": "C#3",
          "ticks": 152250,
          "time": 124.79501125,
          "velocity": 0.6299212598425197
        },
        {
          "duration": 0.1229507499999869,
          "durationTicks": 150,
          "midi": 49,
          "name": "C#3",
          "ticks": 152550,
          "time": 125.04091275,
          "velocity": 0.3858267716535433
        },
        {
          "duration": 0.12295075000000111,
          "durationTicks": 150,
          "midi": 49,
          "name": "C#3",
          "ticks": 152700,
          "time": 125.16386349999999,
          "velocity": 0.6377952755905512
        },
        {
          "duration": 0.12295075000000111,
          "durationTicks": 150,
          "midi": 49,
          "name": "C#3",
          "ticks": 152850,
          "time": 125.28681424999999,
          "velocity": 0.3858267716535433
        },
        {
          "duration": 0.12295075000000111,
          "durationTicks": 150,
          "midi": 49,
          "name": "C#3",
          "ticks": 153000,
          "time": 125.409765,
          "velocity": 0.6377952755905512
        },
        {
          "duration": 0.12295075000000111,
          "durationTicks": 150,
          "midi": 49,
          "name": "C#3",
          "ticks": 153150,
          "time": 125.53271575,
          "velocity": 0.3858267716535433
        },
        {
          "duration": 0.12295075000000111,
          "durationTicks": 150,
          "midi": 49,
          "name": "C#3",
          "ticks": 153300,
          "time": 125.6556665,
          "velocity": 0.6377952755905512
        },
        {
          "duration": 0.12295075000000111,
          "durationTicks": 150,
          "midi": 49,
          "name": "C#3",
          "ticks": 153450,
          "time": 125.77861725,
          "velocity": 0.3937007874015748
        },
        {
          "duration": 0.12295075000000111,
          "durationTicks": 150,
          "midi": 50,
          "name": "D3",
          "ticks": 153600,
          "time": 125.901568,
          "velocity": 0.6299212598425197
        },
        {
          "duration": 0.12295075000000111,
          "durationTicks": 150,
          "midi": 50,
          "name": "D3",
          "ticks": 153750,
          "time": 126.02451875,
          "velocity": 0.3858267716535433
        },
        {
          "duration": 0.12295075000000111,
          "durationTicks": 150,
          "midi": 50,
          "name": "D3",
          "ticks": 153900,
          "time": 126.1474695,
          "velocity": 0.6299212598425197
        },
        {
          "duration": 0.12295075000000111,
          "durationTicks": 150,
          "midi": 50,
          "name": "D3",
          "ticks": 154050,
          "time": 126.27042025,
          "velocity": 0.3858267716535433
        },
        {
          "duration": 0.12295075000000111,
          "durationTicks": 150,
          "midi": 50,
          "name": "D3",
          "ticks": 154200,
          "time": 126.393371,
          "velocity": 0.6299212598425197
        },
        {
          "duration": 0.12295075000000111,
          "durationTicks": 150,
          "midi": 50,
          "name": "D3",
          "ticks": 154350,
          "time": 126.51632175,
          "velocity": 0.3858267716535433
        },
        {
          "duration": 0.1229507499999869,
          "durationTicks": 150,
          "midi": 50,
          "name": "D3",
          "ticks": 154500,
          "time": 126.6392725,
          "velocity": 0.6299212598425197
        },
        {
          "duration": 0.24590150000000222,
          "durationTicks": 300,
          "midi": 50,
          "name": "D3",
          "ticks": 154650,
          "time": 126.76222324999999,
          "velocity": 0.6299212598425197
        },
        {
          "duration": 0.12295075000000111,
          "durationTicks": 150,
          "midi": 50,
          "name": "D3",
          "ticks": 154950,
          "time": 127.00812475,
          "velocity": 0.3858267716535433
        },
        {
          "duration": 0.12295075000000111,
          "durationTicks": 150,
          "midi": 50,
          "name": "D3",
          "ticks": 155100,
          "time": 127.1310755,
          "velocity": 0.6377952755905512
        },
        {
          "duration": 0.12295075000000111,
          "durationTicks": 150,
          "midi": 50,
          "name": "D3",
          "ticks": 155250,
          "time": 127.25402625,
          "velocity": 0.3858267716535433
        },
        {
          "duration": 0.12295075000000111,
          "durationTicks": 150,
          "midi": 50,
          "name": "D3",
          "ticks": 155400,
          "time": 127.376977,
          "velocity": 0.6377952755905512
        },
        {
          "duration": 0.12295075000000111,
          "durationTicks": 150,
          "midi": 50,
          "name": "D3",
          "ticks": 155550,
          "time": 127.49992775,
          "velocity": 0.3858267716535433
        },
        {
          "duration": 0.12295075000000111,
          "durationTicks": 150,
          "midi": 50,
          "name": "D3",
          "ticks": 155700,
          "time": 127.6228785,
          "velocity": 0.6377952755905512
        },
        {
          "duration": 0.12295075000000111,
          "durationTicks": 150,
          "midi": 50,
          "name": "D3",
          "ticks": 155850,
          "time": 127.74582925,
          "velocity": 0.3937007874015748
        },
        {
          "duration": 0.12295075000000111,
          "durationTicks": 150,
          "midi": 50,
          "name": "D3",
          "ticks": 156000,
          "time": 127.86878,
          "velocity": 0.6299212598425197
        },
        {
          "duration": 0.1229507499999869,
          "durationTicks": 150,
          "midi": 50,
          "name": "D3",
          "ticks": 156150,
          "time": 127.99173075,
          "velocity": 0.3858267716535433
        },
        {
          "duration": 0.12295075000000111,
          "durationTicks": 150,
          "midi": 50,
          "name": "D3",
          "ticks": 156300,
          "time": 128.1146815,
          "velocity": 0.6299212598425197
        },
        {
          "duration": 0.12295075000000111,
          "durationTicks": 150,
          "midi": 50,
          "name": "D3",
          "ticks": 156450,
          "time": 128.23763225,
          "velocity": 0.3858267716535433
        },
        {
          "duration": 0.12295075000000111,
          "durationTicks": 150,
          "midi": 50,
          "name": "D3",
          "ticks": 156600,
          "time": 128.360583,
          "velocity": 0.6299212598425197
        },
        {
          "duration": 0.12295075000000111,
          "durationTicks": 150,
          "midi": 50,
          "name": "D3",
          "ticks": 156750,
          "time": 128.48353375,
          "velocity": 0.3858267716535433
        },
        {
          "duration": 0.12295075000000111,
          "durationTicks": 150,
          "midi": 50,
          "name": "D3",
          "ticks": 156900,
          "time": 128.6064845,
          "velocity": 0.6299212598425197
        },
        {
          "duration": 0.24590150000000222,
          "durationTicks": 300,
          "midi": 50,
          "name": "D3",
          "ticks": 157050,
          "time": 128.72943525,
          "velocity": 0.6299212598425197
        },
        {
          "duration": 0.12295075000000111,
          "durationTicks": 150,
          "midi": 50,
          "name": "D3",
          "ticks": 157350,
          "time": 128.97533675,
          "velocity": 0.3858267716535433
        },
        {
          "duration": 0.12295075000000111,
          "durationTicks": 150,
          "midi": 50,
          "name": "D3",
          "ticks": 157500,
          "time": 129.0982875,
          "velocity": 0.6377952755905512
        },
        {
          "duration": 0.12295075000000111,
          "durationTicks": 150,
          "midi": 50,
          "name": "D3",
          "ticks": 157650,
          "time": 129.22123825,
          "velocity": 0.3858267716535433
        },
        {
          "duration": 0.12295075000000111,
          "durationTicks": 150,
          "midi": 50,
          "name": "D3",
          "ticks": 157800,
          "time": 129.344189,
          "velocity": 0.6377952755905512
        },
        {
          "duration": 0.12295075000000111,
          "durationTicks": 150,
          "midi": 50,
          "name": "D3",
          "ticks": 157950,
          "time": 129.46713975,
          "velocity": 0.3858267716535433
        },
        {
          "duration": 0.12295075000000111,
          "durationTicks": 150,
          "midi": 50,
          "name": "D3",
          "ticks": 158100,
          "time": 129.5900905,
          "velocity": 0.6377952755905512
        },
        {
          "duration": 0.12295075000000111,
          "durationTicks": 150,
          "midi": 50,
          "name": "D3",
          "ticks": 158250,
          "time": 129.71304125,
          "velocity": 0.3937007874015748
        },
        {
          "duration": 0.12295075000000111,
          "durationTicks": 150,
          "midi": 46,
          "name": "A#2",
          "ticks": 158400,
          "time": 129.835992,
          "velocity": 0.6299212598425197
        },
        {
          "duration": 0.12295075000000111,
          "durationTicks": 150,
          "midi": 46,
          "name": "A#2",
          "ticks": 158550,
          "time": 129.95894275,
          "velocity": 0.3858267716535433
        },
        {
          "duration": 0.12295075000000111,
          "durationTicks": 150,
          "midi": 46,
          "name": "A#2",
          "ticks": 158700,
          "time": 130.0818935,
          "velocity": 0.6299212598425197
        },
        {
          "duration": 0.12295075000000111,
          "durationTicks": 150,
          "midi": 46,
          "name": "A#2",
          "ticks": 158850,
          "time": 130.20484425,
          "velocity": 0.3858267716535433
        },
        {
          "duration": 0.12295075000000111,
          "durationTicks": 150,
          "midi": 46,
          "name": "A#2",
          "ticks": 159000,
          "time": 130.327795,
          "velocity": 0.6299212598425197
        },
        {
          "duration": 0.12295075000000111,
          "durationTicks": 150,
          "midi": 46,
          "name": "A#2",
          "ticks": 159150,
          "time": 130.45074575,
          "velocity": 0.3858267716535433
        },
        {
          "duration": 0.12295074999997269,
          "durationTicks": 150,
          "midi": 46,
          "name": "A#2",
          "ticks": 159300,
          "time": 130.5736965,
          "velocity": 0.6299212598425197
        },
        {
          "duration": 0.24590150000000222,
          "durationTicks": 300,
          "midi": 46,
          "name": "A#2",
          "ticks": 159450,
          "time": 130.69664724999998,
          "velocity": 0.6299212598425197
        },
        {
          "duration": 0.12295075000000111,
          "durationTicks": 150,
          "midi": 46,
          "name": "A#2",
          "ticks": 159750,
          "time": 130.94254875,
          "velocity": 0.3858267716535433
        },
        {
          "duration": 0.12295075000000111,
          "durationTicks": 150,
          "midi": 46,
          "name": "A#2",
          "ticks": 159900,
          "time": 131.0654995,
          "velocity": 0.6377952755905512
        },
        {
          "duration": 0.12295075000000111,
          "durationTicks": 150,
          "midi": 46,
          "name": "A#2",
          "ticks": 160050,
          "time": 131.18845025,
          "velocity": 0.3858267716535433
        },
        {
          "duration": 0.12295075000000111,
          "durationTicks": 150,
          "midi": 46,
          "name": "A#2",
          "ticks": 160200,
          "time": 131.311401,
          "velocity": 0.6377952755905512
        },
        {
          "duration": 0.12295075000000111,
          "durationTicks": 150,
          "midi": 46,
          "name": "A#2",
          "ticks": 160350,
          "time": 131.43435175,
          "velocity": 0.3858267716535433
        },
        {
          "duration": 0.12295075000000111,
          "durationTicks": 150,
          "midi": 46,
          "name": "A#2",
          "ticks": 160500,
          "time": 131.5573025,
          "velocity": 0.6377952755905512
        },
        {
          "duration": 0.12295075000000111,
          "durationTicks": 150,
          "midi": 46,
          "name": "A#2",
          "ticks": 160650,
          "time": 131.68025325,
          "velocity": 0.3937007874015748
        },
        {
          "duration": 0.12295075000000111,
          "durationTicks": 150,
          "midi": 48,
          "name": "C3",
          "ticks": 160800,
          "time": 131.803204,
          "velocity": 0.6299212598425197
        },
        {
          "duration": 0.12295075000000111,
          "durationTicks": 150,
          "midi": 48,
          "name": "C3",
          "ticks": 160950,
          "time": 131.92615475,
          "velocity": 0.3858267716535433
        },
        {
          "duration": 0.12295075000000111,
          "durationTicks": 150,
          "midi": 48,
          "name": "C3",
          "ticks": 161100,
          "time": 132.0491055,
          "velocity": 0.6299212598425197
        },
        {
          "duration": 0.12295075000000111,
          "durationTicks": 150,
          "midi": 48,
          "name": "C3",
          "ticks": 161250,
          "time": 132.17205625,
          "velocity": 0.3858267716535433
        },
        {
          "duration": 0.12295075000000111,
          "durationTicks": 150,
          "midi": 48,
          "name": "C3",
          "ticks": 161400,
          "time": 132.295007,
          "velocity": 0.6299212598425197
        },
        {
          "duration": 0.12295075000000111,
          "durationTicks": 150,
          "midi": 48,
          "name": "C3",
          "ticks": 161550,
          "time": 132.41795775,
          "velocity": 0.3858267716535433
        },
        {
          "duration": 0.12295075000000111,
          "durationTicks": 150,
          "midi": 48,
          "name": "C3",
          "ticks": 161700,
          "time": 132.5409085,
          "velocity": 0.6299212598425197
        },
        {
          "duration": 0.24590150000000222,
          "durationTicks": 300,
          "midi": 49,
          "name": "C#3",
          "ticks": 161850,
          "time": 132.66385925,
          "velocity": 0.6299212598425197
        },
        {
          "duration": 0.12295075000000111,
          "durationTicks": 150,
          "midi": 49,
          "name": "C#3",
          "ticks": 162150,
          "time": 132.90976075,
          "velocity": 0.3858267716535433
        },
        {
          "duration": 0.12295075000000111,
          "durationTicks": 150,
          "midi": 49,
          "name": "C#3",
          "ticks": 162300,
          "time": 133.0327115,
          "velocity": 0.6377952755905512
        },
        {
          "duration": 0.12295075000000111,
          "durationTicks": 150,
          "midi": 49,
          "name": "C#3",
          "ticks": 162450,
          "time": 133.15566225,
          "velocity": 0.3858267716535433
        },
        {
          "duration": 0.12295075000000111,
          "durationTicks": 150,
          "midi": 49,
          "name": "C#3",
          "ticks": 162600,
          "time": 133.278613,
          "velocity": 0.6377952755905512
        },
        {
          "duration": 0.12295075000000111,
          "durationTicks": 150,
          "midi": 49,
          "name": "C#3",
          "ticks": 162750,
          "time": 133.40156375,
          "velocity": 0.3858267716535433
        },
        {
          "duration": 0.12295075000000111,
          "durationTicks": 150,
          "midi": 49,
          "name": "C#3",
          "ticks": 162900,
          "time": 133.5245145,
          "velocity": 0.6377952755905512
        },
        {
          "duration": 0.12295075000000111,
          "durationTicks": 150,
          "midi": 49,
          "name": "C#3",
          "ticks": 163050,
          "time": 133.64746525,
          "velocity": 0.3937007874015748
        },
        {
          "duration": 0.12295074999997269,
          "durationTicks": 150,
          "midi": 50,
          "name": "D3",
          "ticks": 163200,
          "time": 133.770416,
          "velocity": 0.6299212598425197
        },
        {
          "duration": 0.12295075000000111,
          "durationTicks": 150,
          "midi": 50,
          "name": "D3",
          "ticks": 163350,
          "time": 133.89336674999998,
          "velocity": 0.3858267716535433
        },
        {
          "duration": 0.12295075000000111,
          "durationTicks": 150,
          "midi": 50,
          "name": "D3",
          "ticks": 163500,
          "time": 134.01631749999999,
          "velocity": 0.6299212598425197
        },
        {
          "duration": 0.12295075000000111,
          "durationTicks": 150,
          "midi": 50,
          "name": "D3",
          "ticks": 163650,
          "time": 134.13926825,
          "velocity": 0.3858267716535433
        },
        {
          "duration": 0.12295075000000111,
          "durationTicks": 150,
          "midi": 50,
          "name": "D3",
          "ticks": 163800,
          "time": 134.262219,
          "velocity": 0.6299212598425197
        },
        {
          "duration": 0.12295075000000111,
          "durationTicks": 150,
          "midi": 50,
          "name": "D3",
          "ticks": 163950,
          "time": 134.38516975,
          "velocity": 0.3858267716535433
        },
        {
          "duration": 0.12295075000000111,
          "durationTicks": 150,
          "midi": 50,
          "name": "D3",
          "ticks": 164100,
          "time": 134.5081205,
          "velocity": 0.6299212598425197
        },
        {
          "duration": 0.24590150000000222,
          "durationTicks": 300,
          "midi": 50,
          "name": "D3",
          "ticks": 164250,
          "time": 134.63107125,
          "velocity": 0.6299212598425197
        },
        {
          "duration": 0.12295075000000111,
          "durationTicks": 150,
          "midi": 50,
          "name": "D3",
          "ticks": 164550,
          "time": 134.87697275,
          "velocity": 0.3858267716535433
        },
        {
          "duration": 0.12295075000000111,
          "durationTicks": 150,
          "midi": 50,
          "name": "D3",
          "ticks": 164700,
          "time": 134.9999235,
          "velocity": 0.6377952755905512
        },
        {
          "duration": 0.12295075000000111,
          "durationTicks": 150,
          "midi": 50,
          "name": "D3",
          "ticks": 164850,
          "time": 135.12287425,
          "velocity": 0.3858267716535433
        },
        {
          "duration": 0.12295075000000111,
          "durationTicks": 150,
          "midi": 50,
          "name": "D3",
          "ticks": 165000,
          "time": 135.245825,
          "velocity": 0.6377952755905512
        },
        {
          "duration": 0.12295075000000111,
          "durationTicks": 150,
          "midi": 50,
          "name": "D3",
          "ticks": 165150,
          "time": 135.36877575,
          "velocity": 0.3858267716535433
        },
        {
          "duration": 0.12295075000000111,
          "durationTicks": 150,
          "midi": 50,
          "name": "D3",
          "ticks": 165300,
          "time": 135.4917265,
          "velocity": 0.6377952755905512
        },
        {
          "duration": 0.12295075000000111,
          "durationTicks": 150,
          "midi": 50,
          "name": "D3",
          "ticks": 165450,
          "time": 135.61467725,
          "velocity": 0.3937007874015748
        },
        {
          "duration": 0.12295075000000111,
          "durationTicks": 150,
          "midi": 50,
          "name": "D3",
          "ticks": 165600,
          "time": 135.737628,
          "velocity": 0.6299212598425197
        },
        {
          "duration": 0.12295075000000111,
          "durationTicks": 150,
          "midi": 50,
          "name": "D3",
          "ticks": 165750,
          "time": 135.86057875,
          "velocity": 0.3858267716535433
        },
        {
          "duration": 0.12295075000000111,
          "durationTicks": 150,
          "midi": 50,
          "name": "D3",
          "ticks": 165900,
          "time": 135.9835295,
          "velocity": 0.6299212598425197
        },
        {
          "duration": 0.12295075000000111,
          "durationTicks": 150,
          "midi": 50,
          "name": "D3",
          "ticks": 166050,
          "time": 136.10648025,
          "velocity": 0.3858267716535433
        },
        {
          "duration": 0.12295075000000111,
          "durationTicks": 150,
          "midi": 50,
          "name": "D3",
          "ticks": 166200,
          "time": 136.229431,
          "velocity": 0.6299212598425197
        },
        {
          "duration": 0.12295075000000111,
          "durationTicks": 150,
          "midi": 50,
          "name": "D3",
          "ticks": 166350,
          "time": 136.35238175,
          "velocity": 0.3858267716535433
        },
        {
          "duration": 0.12295075000000111,
          "durationTicks": 150,
          "midi": 50,
          "name": "D3",
          "ticks": 166500,
          "time": 136.4753325,
          "velocity": 0.6299212598425197
        },
        {
          "duration": 0.24590150000000222,
          "durationTicks": 300,
          "midi": 50,
          "name": "D3",
          "ticks": 166650,
          "time": 136.59828325,
          "velocity": 0.6299212598425197
        },
        {
          "duration": 0.12295074999997269,
          "durationTicks": 150,
          "midi": 50,
          "name": "D3",
          "ticks": 166950,
          "time": 136.84418475,
          "velocity": 0.3858267716535433
        },
        {
          "duration": 0.12295075000000111,
          "durationTicks": 150,
          "midi": 50,
          "name": "D3",
          "ticks": 167100,
          "time": 136.96713549999998,
          "velocity": 0.6377952755905512
        },
        {
          "duration": 0.12295075000000111,
          "durationTicks": 150,
          "midi": 50,
          "name": "D3",
          "ticks": 167250,
          "time": 137.09008624999998,
          "velocity": 0.3858267716535433
        },
        {
          "duration": 0.12295075000000111,
          "durationTicks": 150,
          "midi": 50,
          "name": "D3",
          "ticks": 167400,
          "time": 137.21303699999999,
          "velocity": 0.6377952755905512
        },
        {
          "duration": 0.12295075000000111,
          "durationTicks": 150,
          "midi": 50,
          "name": "D3",
          "ticks": 167550,
          "time": 137.33598775,
          "velocity": 0.3858267716535433
        },
        {
          "duration": 0.12295075000000111,
          "durationTicks": 150,
          "midi": 50,
          "name": "D3",
          "ticks": 167700,
          "time": 137.4589385,
          "velocity": 0.6377952755905512
        },
        {
          "duration": 0.12295075000000111,
          "durationTicks": 150,
          "midi": 50,
          "name": "D3",
          "ticks": 167850,
          "time": 137.58188925,
          "velocity": 0.3937007874015748
        },
        {
          "duration": 0.12295075000000111,
          "durationTicks": 150,
          "midi": 46,
          "name": "A#2",
          "ticks": 168000,
          "time": 137.70484,
          "velocity": 0.6299212598425197
        },
        {
          "duration": 0.12295075000000111,
          "durationTicks": 150,
          "midi": 46,
          "name": "A#2",
          "ticks": 168150,
          "time": 137.82779075,
          "velocity": 0.3858267716535433
        },
        {
          "duration": 0.12295075000000111,
          "durationTicks": 150,
          "midi": 46,
          "name": "A#2",
          "ticks": 168300,
          "time": 137.9507415,
          "velocity": 0.6299212598425197
        },
        {
          "duration": 0.12295075000000111,
          "durationTicks": 150,
          "midi": 46,
          "name": "A#2",
          "ticks": 168450,
          "time": 138.07369225,
          "velocity": 0.3858267716535433
        },
        {
          "duration": 0.12295075000000111,
          "durationTicks": 150,
          "midi": 46,
          "name": "A#2",
          "ticks": 168600,
          "time": 138.196643,
          "velocity": 0.6299212598425197
        },
        {
          "duration": 0.12295075000000111,
          "durationTicks": 150,
          "midi": 46,
          "name": "A#2",
          "ticks": 168750,
          "time": 138.31959375,
          "velocity": 0.3858267716535433
        },
        {
          "duration": 0.12295075000000111,
          "durationTicks": 150,
          "midi": 46,
          "name": "A#2",
          "ticks": 168900,
          "time": 138.4425445,
          "velocity": 0.6299212598425197
        },
        {
          "duration": 0.24590150000000222,
          "durationTicks": 300,
          "midi": 46,
          "name": "A#2",
          "ticks": 169050,
          "time": 138.56549525,
          "velocity": 0.6299212598425197
        },
        {
          "duration": 0.12295075000000111,
          "durationTicks": 150,
          "midi": 46,
          "name": "A#2",
          "ticks": 169350,
          "time": 138.81139675,
          "velocity": 0.3858267716535433
        },
        {
          "duration": 0.12295075000000111,
          "durationTicks": 150,
          "midi": 46,
          "name": "A#2",
          "ticks": 169500,
          "time": 138.9343475,
          "velocity": 0.6377952755905512
        },
        {
          "duration": 0.12295075000000111,
          "durationTicks": 150,
          "midi": 46,
          "name": "A#2",
          "ticks": 169650,
          "time": 139.05729825,
          "velocity": 0.3858267716535433
        },
        {
          "duration": 0.12295075000000111,
          "durationTicks": 150,
          "midi": 46,
          "name": "A#2",
          "ticks": 169800,
          "time": 139.180249,
          "velocity": 0.6377952755905512
        },
        {
          "duration": 0.12295075000000111,
          "durationTicks": 150,
          "midi": 46,
          "name": "A#2",
          "ticks": 169950,
          "time": 139.30319975,
          "velocity": 0.3858267716535433
        },
        {
          "duration": 0.12295075000000111,
          "durationTicks": 150,
          "midi": 46,
          "name": "A#2",
          "ticks": 170100,
          "time": 139.4261505,
          "velocity": 0.6377952755905512
        },
        {
          "duration": 0.12295075000000111,
          "durationTicks": 150,
          "midi": 46,
          "name": "A#2",
          "ticks": 170250,
          "time": 139.54910125,
          "velocity": 0.3937007874015748
        },
        {
          "duration": 0.12295075000000111,
          "durationTicks": 150,
          "midi": 48,
          "name": "C3",
          "ticks": 170400,
          "time": 139.672052,
          "velocity": 0.6299212598425197
        },
        {
          "duration": 0.12295075000000111,
          "durationTicks": 150,
          "midi": 48,
          "name": "C3",
          "ticks": 170550,
          "time": 139.79500275,
          "velocity": 0.3858267716535433
        },
        {
          "duration": 0.12295075000000111,
          "durationTicks": 150,
          "midi": 48,
          "name": "C3",
          "ticks": 170700,
          "time": 139.9179535,
          "velocity": 0.6299212598425197
        },
        {
          "duration": 0.12295074999997269,
          "durationTicks": 150,
          "midi": 48,
          "name": "C3",
          "ticks": 170850,
          "time": 140.04090425,
          "velocity": 0.3858267716535433
        },
        {
          "duration": 0.12295075000000111,
          "durationTicks": 150,
          "midi": 48,
          "name": "C3",
          "ticks": 171000,
          "time": 140.16385499999998,
          "velocity": 0.6299212598425197
        },
        {
          "duration": 0.12295075000000111,
          "durationTicks": 150,
          "midi": 48,
          "name": "C3",
          "ticks": 171150,
          "time": 140.28680574999998,
          "velocity": 0.3858267716535433
        },
        {
          "duration": 0.12295075000000111,
          "durationTicks": 150,
          "midi": 48,
          "name": "C3",
          "ticks": 171300,
          "time": 140.4097565,
          "velocity": 0.6299212598425197
        },
        {
          "duration": 0.24590150000000222,
          "durationTicks": 300,
          "midi": 49,
          "name": "C#3",
          "ticks": 171450,
          "time": 140.53270725,
          "velocity": 0.6299212598425197
        },
        {
          "duration": 0.12295075000000111,
          "durationTicks": 150,
          "midi": 49,
          "name": "C#3",
          "ticks": 171750,
          "time": 140.77860875,
          "velocity": 0.3858267716535433
        },
        {
          "duration": 0.12295075000000111,
          "durationTicks": 150,
          "midi": 49,
          "name": "C#3",
          "ticks": 171900,
          "time": 140.9015595,
          "velocity": 0.6377952755905512
        },
        {
          "duration": 0.12295075000000111,
          "durationTicks": 150,
          "midi": 49,
          "name": "C#3",
          "ticks": 172050,
          "time": 141.02451025,
          "velocity": 0.3858267716535433
        },
        {
          "duration": 0.12295075000000111,
          "durationTicks": 150,
          "midi": 49,
          "name": "C#3",
          "ticks": 172200,
          "time": 141.147461,
          "velocity": 0.6377952755905512
        },
        {
          "duration": 0.12295075000000111,
          "durationTicks": 150,
          "midi": 49,
          "name": "C#3",
          "ticks": 172350,
          "time": 141.27041175,
          "velocity": 0.3858267716535433
        },
        {
          "duration": 0.12295075000000111,
          "durationTicks": 150,
          "midi": 49,
          "name": "C#3",
          "ticks": 172500,
          "time": 141.3933625,
          "velocity": 0.6377952755905512
        },
        {
          "duration": 0.12295075000000111,
          "durationTicks": 150,
          "midi": 49,
          "name": "C#3",
          "ticks": 172650,
          "time": 141.51631325,
          "velocity": 0.3937007874015748
        }
      ]
    },
    {
      "channel": 4,
      "controlChanges": {},
      "pitchBends": [
        {
          "ticks": 38400,
          "time": 31.475392,
          "value": 0
        }
      ],
      "instrument": {
        "family": "piano",
        "number": 0,
        "name": "acoustic grand piano"
      },
      "name": "",
      "notes": []
    },
    {
      "channel": 4,
      "controlChanges": {
        "6": [
          {
            "number": 6,
            "ticks": 38400,
            "time": 31.475392,
            "value": 0.09448818897637795
          },
          {
            "number": 6,
            "ticks": 38400,
            "time": 31.475392,
            "value": 0.09448818897637795
          },
          {
            "number": 6,
            "ticks": 184800,
            "time": 151.475324,
            "value": 0.09448818897637795
          },
          {
            "number": 6,
            "ticks": 184800,
            "time": 151.475324,
            "value": 0.09448818897637795
          },
          {
            "number": 6,
            "ticks": 184800,
            "time": 151.475324,
            "value": 0.09448818897637795
          },
          {
            "number": 6,
            "ticks": 184800,
            "time": 151.475324,
            "value": 0.09448818897637795
          }
        ],
        "7": [
          {
            "number": 7,
            "ticks": 38400,
            "time": 31.475392,
            "value": 0.8976377952755905
          },
          {
            "number": 7,
            "ticks": 38400,
            "time": 31.475392,
            "value": 0.8976377952755905
          },
          {
            "number": 7,
            "ticks": 38400,
            "time": 31.475392,
            "value": 0.7874015748031497
          },
          {
            "number": 7,
            "ticks": 38400,
            "time": 31.475392,
            "value": 0.7874015748031497
          },
          {
            "number": 7,
            "ticks": 184800,
            "time": 151.475324,
            "value": 0.8976377952755905
          },
          {
            "number": 7,
            "ticks": 184800,
            "time": 151.475324,
            "value": 0.8976377952755905
          },
          {
            "number": 7,
            "ticks": 184800,
            "time": 151.475324,
            "value": 0.7874015748031497
          },
          {
            "number": 7,
            "ticks": 184800,
            "time": 151.475324,
            "value": 0.7874015748031497
          }
        ],
        "10": [
          {
            "number": 10,
            "ticks": 38400,
            "time": 31.475392,
            "value": 0.5039370078740157
          },
          {
            "number": 10,
            "ticks": 38400,
            "time": 31.475392,
            "value": 0.5039370078740157
          },
          {
            "number": 10,
            "ticks": 38400,
            "time": 31.475392,
            "value": 0.5039370078740157
          },
          {
            "number": 10,
            "ticks": 38400,
            "time": 31.475392,
            "value": 0.5039370078740157
          },
          {
            "number": 10,
            "ticks": 184800,
            "time": 151.475324,
            "value": 0.5039370078740157
          },
          {
            "number": 10,
            "ticks": 184800,
            "time": 151.475324,
            "value": 0.5039370078740157
          },
          {
            "number": 10,
            "ticks": 184800,
            "time": 151.475324,
            "value": 0.5039370078740157
          },
          {
            "number": 10,
            "ticks": 184800,
            "time": 151.475324,
            "value": 0.5039370078740157
          }
        ],
        "100": [
          {
            "number": 100,
            "ticks": 38400,
            "time": 31.475392,
            "value": 0
          },
          {
            "number": 100,
            "ticks": 38400,
            "time": 31.475392,
            "value": 0
          },
          {
            "number": 100,
            "ticks": 184800,
            "time": 151.475324,
            "value": 0
          },
          {
            "number": 100,
            "ticks": 184800,
            "time": 151.475324,
            "value": 0
          },
          {
            "number": 100,
            "ticks": 184800,
            "time": 151.475324,
            "value": 0
          },
          {
            "number": 100,
            "ticks": 184800,
            "time": 151.475324,
            "value": 0
          }
        ],
        "101": [
          {
            "number": 101,
            "ticks": 38400,
            "time": 31.475392,
            "value": 0
          },
          {
            "number": 101,
            "ticks": 38400,
            "time": 31.475392,
            "value": 0
          },
          {
            "number": 101,
            "ticks": 184800,
            "time": 151.475324,
            "value": 0
          },
          {
            "number": 101,
            "ticks": 184800,
            "time": 151.475324,
            "value": 0
          },
          {
            "number": 101,
            "ticks": 184800,
            "time": 151.475324,
            "value": 0
          },
          {
            "number": 101,
            "ticks": 184800,
            "time": 151.475324,
            "value": 0
          }
        ]
      },
      "pitchBends": [
        {
          "ticks": 38400,
          "time": 31.475392,
          "value": 0
        },
        {
          "ticks": 38400,
          "time": 31.475392,
          "value": 0
        },
        {
          "ticks": 38400,
          "time": 31.475392,
          "value": 0
        },
        {
          "ticks": 38400,
          "time": 31.475392,
          "value": 0
        },
        {
          "ticks": 38400,
          "time": 31.475392,
          "value": 0
        },
        {
          "ticks": 184800,
          "time": 151.475324,
          "value": 0
        },
        {
          "ticks": 184800,
          "time": 151.475324,
          "value": 0
        },
        {
          "ticks": 184800,
          "time": 151.475324,
          "value": 0
        },
        {
          "ticks": 184800,
          "time": 151.475324,
          "value": 0
        }
      ],
      "instrument": {
        "family": "ensemble",
        "number": 48,
        "name": "string ensemble 1"
      },
      "name": "",
      "notes": [
        {
          "duration": 1.9516382383333308,
          "durationTicks": 2381,
          "midi": 48,
          "name": "C3",
          "ticks": 38400,
          "time": 31.475392,
          "velocity": 0.7165354330708661
        },
        {
          "duration": 1.9516382383333308,
          "durationTicks": 2381,
          "midi": 36,
          "name": "C2",
          "ticks": 38400,
          "time": 31.475392,
          "velocity": 0.7165354330708661
        },
        {
          "duration": 0,
          "durationTicks": 0,
          "midi": 72,
          "name": "C5",
          "ticks": 39600,
          "time": 32.458998,
          "velocity": 0.8110236220472441
        },
        {
          "duration": 0,
          "durationTicks": 0,
          "midi": 72,
          "name": "C5",
          "ticks": 40050,
          "time": 32.82785025,
          "velocity": 0.8110236220472441
        },
        {
          "duration": 0.49180300000000443,
          "durationTicks": 600,
          "midi": 74,
          "name": "D5",
          "ticks": 40200,
          "time": 32.950801,
          "velocity": 0.8110236220472441
        },
        {
          "duration": 1.475408999999999,
          "durationTicks": 1800,
          "midi": 75,
          "name": "D#5",
          "ticks": 40800,
          "time": 33.442604,
          "velocity": 0.8110236220472441
        },
        {
          "duration": 1.9516382383333308,
          "durationTicks": 2381,
          "midi": 36,
          "name": "C2",
          "ticks": 40800,
          "time": 33.442604,
          "velocity": 0.8110236220472441
        },
        {
          "duration": 1.9516382383333308,
          "durationTicks": 2381,
          "midi": 48,
          "name": "C3",
          "ticks": 40800,
          "time": 33.442604,
          "velocity": 0.7165354330708661
        },
        {
          "duration": 1.9516382383333308,
          "durationTicks": 2381,
          "midi": 36,
          "name": "C2",
          "ticks": 40800,
          "time": 33.442604,
          "velocity": 0.7165354330708661
        },
        {
          "duration": 0.4918029999999973,
          "durationTicks": 600,
          "midi": 80,
          "name": "G#5",
          "ticks": 42600,
          "time": 34.918013,
          "velocity": 0.8031496062992126
        },
        {
          "duration": 0.4918029999999973,
          "durationTicks": 600,
          "midi": 79,
          "name": "G5",
          "ticks": 43200,
          "time": 35.409816,
          "velocity": 0.8031496062992126
        },
        {
          "duration": 1.9516382383333308,
          "durationTicks": 2381,
          "midi": 32,
          "name": "G#1",
          "ticks": 43200,
          "time": 35.409816,
          "velocity": 0.8031496062992126
        },
        {
          "duration": 1.9516382383333308,
          "durationTicks": 2381,
          "midi": 44,
          "name": "G#2",
          "ticks": 43200,
          "time": 35.409816,
          "velocity": 0.7244094488188977
        },
        {
          "duration": 1.9516382383333308,
          "durationTicks": 2381,
          "midi": 32,
          "name": "G#1",
          "ticks": 43200,
          "time": 35.409816,
          "velocity": 0.7244094488188977
        },
        {
          "duration": 0.49180300000000443,
          "durationTicks": 600,
          "midi": 75,
          "name": "D#5",
          "ticks": 43800,
          "time": 35.901619,
          "velocity": 0.7952755905511811
        },
        {
          "duration": 0.4918029999999973,
          "durationTicks": 600,
          "midi": 77,
          "name": "F5",
          "ticks": 44400,
          "time": 36.393422,
          "velocity": 0.7952755905511811
        },
        {
          "duration": 0.4918029999999973,
          "durationTicks": 600,
          "midi": 74,
          "name": "D5",
          "ticks": 45000,
          "time": 36.885225,
          "velocity": 0.7952755905511811
        },
        {
          "duration": 1.9672120000000035,
          "durationTicks": 2400,
          "midi": 75,
          "name": "D#5",
          "ticks": 45600,
          "time": 37.377027999999996,
          "velocity": 0.7874015748031497
        },
        {
          "duration": 0.9680322383333362,
          "durationTicks": 1181,
          "midi": 34,
          "name": "A#1",
          "ticks": 45600,
          "time": 37.377027999999996,
          "velocity": 0.7874015748031497
        },
        {
          "duration": 0.9680322383333362,
          "durationTicks": 1181,
          "midi": 46,
          "name": "A#2",
          "ticks": 45600,
          "time": 37.377027999999996,
          "velocity": 0.7244094488188977
        },
        {
          "duration": 0.9680322383333362,
          "durationTicks": 1181,
          "midi": 34,
          "name": "A#1",
          "ticks": 45600,
          "time": 37.377027999999996,
          "velocity": 0.7244094488188977
        },
        {
          "duration": 0.9680322383333362,
          "durationTicks": 1181,
          "midi": 35,
          "name": "B1",
          "ticks": 46800,
          "time": 38.360634,
          "velocity": 0.7874015748031497
        },
        {
          "duration": 0.9680322383333362,
          "durationTicks": 1181,
          "midi": 35,
          "name": "B1",
          "ticks": 46800,
          "time": 38.360634,
          "velocity": 0.7244094488188977
        },
        {
          "duration": 0.9680322383333362,
          "durationTicks": 1181,
          "midi": 47,
          "name": "B2",
          "ticks": 46800,
          "time": 38.360634,
          "velocity": 0.7244094488188977
        },
        {
          "duration": 0.9836060000000018,
          "durationTicks": 1200,
          "midi": 72,
          "name": "C5",
          "ticks": 48000,
          "time": 39.34424,
          "velocity": 0.8188976377952756
        },
        {
          "duration": 1.9516382383333308,
          "durationTicks": 2381,
          "midi": 36,
          "name": "C2",
          "ticks": 48000,
          "time": 39.34424,
          "velocity": 0.8188976377952756
        },
        {
          "duration": 1.9516382383333308,
          "durationTicks": 2381,
          "midi": 48,
          "name": "C3",
          "ticks": 48000,
          "time": 39.34424,
          "velocity": 0.7165354330708661
        },
        {
          "duration": 1.9516382383333308,
          "durationTicks": 2381,
          "midi": 36,
          "name": "C2",
          "ticks": 48000,
          "time": 39.34424,
          "velocity": 0.7165354330708661
        },
        {
          "duration": 0.3688522499999962,
          "durationTicks": 450,
          "midi": 72,
          "name": "C5",
          "ticks": 49200,
          "time": 40.327846,
          "velocity": 0.8110236220472441
        },
        {
          "duration": 0.12295075000000111,
          "durationTicks": 150,
          "midi": 72,
          "name": "C5",
          "ticks": 49650,
          "time": 40.69669825,
          "velocity": 0.8110236220472441
        },
        {
          "duration": 0.49180300000000443,
          "durationTicks": 600,
          "midi": 74,
          "name": "D5",
          "ticks": 49800,
          "time": 40.819649,
          "velocity": 0.8110236220472441
        },
        {
          "duration": 1.475408999999999,
          "durationTicks": 1800,
          "midi": 75,
          "name": "D#5",
          "ticks": 50400,
          "time": 41.311452,
          "velocity": 0.8110236220472441
        },
        {
          "duration": 1.9516382383333308,
          "durationTicks": 2381,
          "midi": 36,
          "name": "C2",
          "ticks": 50400,
          "time": 41.311452,
          "velocity": 0.8110236220472441
        },
        {
          "duration": 1.9516382383333308,
          "durationTicks": 2381,
          "midi": 48,
          "name": "C3",
          "ticks": 50400,
          "time": 41.311452,
          "velocity": 0.7165354330708661
        },
        {
          "duration": 1.9516382383333308,
          "durationTicks": 2381,
          "midi": 36,
          "name": "C2",
          "ticks": 50400,
          "time": 41.311452,
          "velocity": 0.7165354330708661
        },
        {
          "duration": 0.4918029999999973,
          "durationTicks": 600,
          "midi": 80,
          "name": "G#5",
          "ticks": 52200,
          "time": 42.786861,
          "velocity": 0.8031496062992126
        },
        {
          "duration": 0.4918029999999973,
          "durationTicks": 600,
          "midi": 79,
          "name": "G5",
          "ticks": 52800,
          "time": 43.278664,
          "velocity": 0.8031496062992126
        },
        {
          "duration": 1.9516382383333308,
          "durationTicks": 2381,
          "midi": 32,
          "name": "G#1",
          "ticks": 52800,
          "time": 43.278664,
          "velocity": 0.8031496062992126
        },
        {
          "duration": 1.9516382383333308,
          "durationTicks": 2381,
          "midi": 44,
          "name": "G#2",
          "ticks": 52800,
          "time": 43.278664,
          "velocity": 0.7244094488188977
        },
        {
          "duration": 1.9516382383333308,
          "durationTicks": 2381,
          "midi": 32,
          "name": "G#1",
          "ticks": 52800,
          "time": 43.278664,
          "velocity": 0.7244094488188977
        },
        {
          "duration": 0.49180300000000443,
          "durationTicks": 600,
          "midi": 75,
          "name": "D#5",
          "ticks": 53400,
          "time": 43.770467,
          "velocity": 0.7952755905511811
        },
        {
          "duration": 0.4918029999999973,
          "durationTicks": 600,
          "midi": 77,
          "name": "F5",
          "ticks": 54000,
          "time": 44.26227,
          "velocity": 0.7952755905511811
        },
        {
          "duration": 0.4918029999999973,
          "durationTicks": 600,
          "midi": 74,
          "name": "D5",
          "ticks": 54600,
          "time": 44.754073,
          "velocity": 0.7952755905511811
        },
        {
          "duration": 1.9672120000000035,
          "durationTicks": 2400,
          "midi": 75,
          "name": "D#5",
          "ticks": 55200,
          "time": 45.245875999999996,
          "velocity": 0.7874015748031497
        },
        {
          "duration": 0.9680322383333362,
          "durationTicks": 1181,
          "midi": 34,
          "name": "A#1",
          "ticks": 55200,
          "time": 45.245875999999996,
          "velocity": 0.7874015748031497
        },
        {
          "duration": 0.9680322383333362,
          "durationTicks": 1181,
          "midi": 46,
          "name": "A#2",
          "ticks": 55200,
          "time": 45.245875999999996,
          "velocity": 0.7244094488188977
        },
        {
          "duration": 0.9680322383333362,
          "durationTicks": 1181,
          "midi": 34,
          "name": "A#1",
          "ticks": 55200,
          "time": 45.245875999999996,
          "velocity": 0.7244094488188977
        },
        {
          "duration": 0.9680322383333362,
          "durationTicks": 1181,
          "midi": 35,
          "name": "B1",
          "ticks": 56400,
          "time": 46.229482,
          "velocity": 0.7874015748031497
        },
        {
          "duration": 0.9680322383333362,
          "durationTicks": 1181,
          "midi": 35,
          "name": "B1",
          "ticks": 56400,
          "time": 46.229482,
          "velocity": 0.7244094488188977
        },
        {
          "duration": 0.9680322383333362,
          "durationTicks": 1181,
          "midi": 47,
          "name": "B2",
          "ticks": 56400,
          "time": 46.229482,
          "velocity": 0.7244094488188977
        },
        {
          "duration": 1.9516382383333308,
          "durationTicks": 2381,
          "midi": 60,
          "name": "C4",
          "ticks": 57600,
          "time": 47.213088,
          "velocity": 0.6692913385826772
        },
        {
          "duration": 1.9516382383333308,
          "durationTicks": 2381,
          "midi": 48,
          "name": "C3",
          "ticks": 57600,
          "time": 47.213088,
          "velocity": 0.6692913385826772
        },
        {
          "duration": 1.9516382383333308,
          "durationTicks": 2381,
          "midi": 36,
          "name": "C2",
          "ticks": 57600,
          "time": 47.213088,
          "velocity": 0.6692913385826772
        },
        {
          "duration": 1.9516382383333308,
          "durationTicks": 2381,
          "midi": 48,
          "name": "C3",
          "ticks": 57600,
          "time": 47.213088,
          "velocity": 0.7165354330708661
        },
        {
          "duration": 1.9516382383333308,
          "durationTicks": 2381,
          "midi": 36,
          "name": "C2",
          "ticks": 57600,
          "time": 47.213088,
          "velocity": 0.7165354330708661
        },
        {
          "duration": 1.9516382383333308,
          "durationTicks": 2381,
          "midi": 60,
          "name": "C4",
          "ticks": 60000,
          "time": 49.1803,
          "velocity": 0.6850393700787402
        },
        {
          "duration": 1.9516382383333308,
          "durationTicks": 2381,
          "midi": 48,
          "name": "C3",
          "ticks": 60000,
          "time": 49.1803,
          "velocity": 0.6850393700787402
        },
        {
          "duration": 1.9516382383333308,
          "durationTicks": 2381,
          "midi": 36,
          "name": "C2",
          "ticks": 60000,
          "time": 49.1803,
          "velocity": 0.6850393700787402
        },
        {
          "duration": 1.9516382383333308,
          "durationTicks": 2381,
          "midi": 48,
          "name": "C3",
          "ticks": 60000,
          "time": 49.1803,
          "velocity": 0.7165354330708661
        },
        {
          "duration": 1.9516382383333308,
          "durationTicks": 2381,
          "midi": 36,
          "name": "C2",
          "ticks": 60000,
          "time": 49.1803,
          "velocity": 0.7165354330708661
        },
        {
          "duration": 1.9516382383333308,
          "durationTicks": 2381,
          "midi": 56,
          "name": "G#3",
          "ticks": 62400,
          "time": 51.147512,
          "velocity": 0.6929133858267716
        },
        {
          "duration": 1.9516382383333308,
          "durationTicks": 2381,
          "midi": 44,
          "name": "G#2",
          "ticks": 62400,
          "time": 51.147512,
          "velocity": 0.6929133858267716
        },
        {
          "duration": 1.9516382383333308,
          "durationTicks": 2381,
          "midi": 32,
          "name": "G#1",
          "ticks": 62400,
          "time": 51.147512,
          "velocity": 0.6929133858267716
        },
        {
          "duration": 1.9516382383333308,
          "durationTicks": 2381,
          "midi": 44,
          "name": "G#2",
          "ticks": 62400,
          "time": 51.147512,
          "velocity": 0.7244094488188977
        },
        {
          "duration": 1.9516382383333308,
          "durationTicks": 2381,
          "midi": 32,
          "name": "G#1",
          "ticks": 62400,
          "time": 51.147512,
          "velocity": 0.7244094488188977
        },
        {
          "duration": 0.9680322383333362,
          "durationTicks": 1181,
          "midi": 58,
          "name": "A#3",
          "ticks": 64800,
          "time": 53.114723999999995,
          "velocity": 0.7007874015748031
        },
        {
          "duration": 0.9680322383333362,
          "durationTicks": 1181,
          "midi": 46,
          "name": "A#2",
          "ticks": 64800,
          "time": 53.114723999999995,
          "velocity": 0.7007874015748031
        },
        {
          "duration": 0.9680322383333362,
          "durationTicks": 1181,
          "midi": 34,
          "name": "A#1",
          "ticks": 64800,
          "time": 53.114723999999995,
          "velocity": 0.7007874015748031
        },
        {
          "duration": 0.9680322383333362,
          "durationTicks": 1181,
          "midi": 46,
          "name": "A#2",
          "ticks": 64800,
          "time": 53.114723999999995,
          "velocity": 0.7244094488188977
        },
        {
          "duration": 0.9680322383333362,
          "durationTicks": 1181,
          "midi": 34,
          "name": "A#1",
          "ticks": 64800,
          "time": 53.114723999999995,
          "velocity": 0.7244094488188977
        },
        {
          "duration": 0.9680322383333362,
          "durationTicks": 1181,
          "midi": 59,
          "name": "B3",
          "ticks": 66000,
          "time": 54.09833,
          "velocity": 0.7086614173228346
        },
        {
          "duration": 0.9680322383333362,
          "durationTicks": 1181,
          "midi": 47,
          "name": "B2",
          "ticks": 66000,
          "time": 54.09833,
          "velocity": 0.7086614173228346
        },
        {
          "duration": 0.9680322383333362,
          "durationTicks": 1181,
          "midi": 35,
          "name": "B1",
          "ticks": 66000,
          "time": 54.09833,
          "velocity": 0.7086614173228346
        },
        {
          "duration": 0.9680322383333362,
          "durationTicks": 1181,
          "midi": 35,
          "name": "B1",
          "ticks": 66000,
          "time": 54.09833,
          "velocity": 0.7244094488188977
        },
        {
          "duration": 0.9680322383333362,
          "durationTicks": 1181,
          "midi": 47,
          "name": "B2",
          "ticks": 66000,
          "time": 54.09833,
          "velocity": 0.7244094488188977
        },
        {
          "duration": 1.9516382383333308,
          "durationTicks": 2381,
          "midi": 60,
          "name": "C4",
          "ticks": 67200,
          "time": 55.081936,
          "velocity": 0.6692913385826772
        },
        {
          "duration": 1.9516382383333308,
          "durationTicks": 2381,
          "midi": 48,
          "name": "C3",
          "ticks": 67200,
          "time": 55.081936,
          "velocity": 0.6692913385826772
        },
        {
          "duration": 1.9516382383333308,
          "durationTicks": 2381,
          "midi": 36,
          "name": "C2",
          "ticks": 67200,
          "time": 55.081936,
          "velocity": 0.6692913385826772
        },
        {
          "duration": 1.9516382383333308,
          "durationTicks": 2381,
          "midi": 48,
          "name": "C3",
          "ticks": 67200,
          "time": 55.081936,
          "velocity": 0.7165354330708661
        },
        {
          "duration": 1.9516382383333308,
          "durationTicks": 2381,
          "midi": 36,
          "name": "C2",
          "ticks": 67200,
          "time": 55.081936,
          "velocity": 0.7165354330708661
        },
        {
          "duration": 1.9516382383333308,
          "durationTicks": 2381,
          "midi": 60,
          "name": "C4",
          "ticks": 69600,
          "time": 57.049148,
          "velocity": 0.6850393700787402
        },
        {
          "duration": 1.9516382383333308,
          "durationTicks": 2381,
          "midi": 48,
          "name": "C3",
          "ticks": 69600,
          "time": 57.049148,
          "velocity": 0.6850393700787402
        },
        {
          "duration": 1.9516382383333308,
          "durationTicks": 2381,
          "midi": 36,
          "name": "C2",
          "ticks": 69600,
          "time": 57.049148,
          "velocity": 0.6850393700787402
        },
        {
          "duration": 1.9516382383333308,
          "durationTicks": 2381,
          "midi": 48,
          "name": "C3",
          "ticks": 69600,
          "time": 57.049148,
          "velocity": 0.7165354330708661
        },
        {
          "duration": 1.9516382383333308,
          "durationTicks": 2381,
          "midi": 36,
          "name": "C2",
          "ticks": 69600,
          "time": 57.049148,
          "velocity": 0.7165354330708661
        },
        {
          "duration": 1.9516382383333308,
          "durationTicks": 2381,
          "midi": 56,
          "name": "G#3",
          "ticks": 72000,
          "time": 59.01636,
          "velocity": 0.6929133858267716
        },
        {
          "duration": 1.9516382383333308,
          "durationTicks": 2381,
          "midi": 44,
          "name": "G#2",
          "ticks": 72000,
          "time": 59.01636,
          "velocity": 0.6929133858267716
        },
        {
          "duration": 1.9516382383333308,
          "durationTicks": 2381,
          "midi": 32,
          "name": "G#1",
          "ticks": 72000,
          "time": 59.01636,
          "velocity": 0.6929133858267716
        },
        {
          "duration": 1.9516382383333308,
          "durationTicks": 2381,
          "midi": 44,
          "name": "G#2",
          "ticks": 72000,
          "time": 59.01636,
          "velocity": 0.7244094488188977
        },
        {
          "duration": 1.9516382383333308,
          "durationTicks": 2381,
          "midi": 32,
          "name": "G#1",
          "ticks": 72000,
          "time": 59.01636,
          "velocity": 0.7244094488188977
        },
        {
          "duration": 0.9680322383333362,
          "durationTicks": 1181,
          "midi": 58,
          "name": "A#3",
          "ticks": 74400,
          "time": 60.983571999999995,
          "velocity": 0.7007874015748031
        },
        {
          "duration": 0.9680322383333362,
          "durationTicks": 1181,
          "midi": 46,
          "name": "A#2",
          "ticks": 74400,
          "time": 60.983571999999995,
          "velocity": 0.7007874015748031
        },
        {
          "duration": 0.9680322383333362,
          "durationTicks": 1181,
          "midi": 34,
          "name": "A#1",
          "ticks": 74400,
          "time": 60.983571999999995,
          "velocity": 0.7007874015748031
        },
        {
          "duration": 0.9680322383333362,
          "durationTicks": 1181,
          "midi": 46,
          "name": "A#2",
          "ticks": 74400,
          "time": 60.983571999999995,
          "velocity": 0.7244094488188977
        },
        {
          "duration": 0.9680322383333362,
          "durationTicks": 1181,
          "midi": 34,
          "name": "A#1",
          "ticks": 74400,
          "time": 60.983571999999995,
          "velocity": 0.7244094488188977
        },
        {
          "duration": 0.9680322383333362,
          "durationTicks": 1181,
          "midi": 59,
          "name": "B3",
          "ticks": 75600,
          "time": 61.967178,
          "velocity": 0.7086614173228346
        },
        {
          "duration": 0.9680322383333362,
          "durationTicks": 1181,
          "midi": 47,
          "name": "B2",
          "ticks": 75600,
          "time": 61.967178,
          "velocity": 0.7086614173228346
        },
        {
          "duration": 0.9680322383333362,
          "durationTicks": 1181,
          "midi": 35,
          "name": "B1",
          "ticks": 75600,
          "time": 61.967178,
          "velocity": 0.7086614173228346
        },
        {
          "duration": 0.9680322383333362,
          "durationTicks": 1181,
          "midi": 35,
          "name": "B1",
          "ticks": 75600,
          "time": 61.967178,
          "velocity": 0.7244094488188977
        },
        {
          "duration": 0.9680322383333362,
          "durationTicks": 1181,
          "midi": 47,
          "name": "B2",
          "ticks": 75600,
          "time": 61.967178,
          "velocity": 0.7244094488188977
        },
        {
          "duration": 1.9516382383333308,
          "durationTicks": 2381,
          "midi": 60,
          "name": "C4",
          "ticks": 76800,
          "time": 62.950784,
          "velocity": 0.7637795275590551
        },
        {
          "duration": 1.9516382383333308,
          "durationTicks": 2381,
          "midi": 48,
          "name": "C3",
          "ticks": 76800,
          "time": 62.950784,
          "velocity": 0.7637795275590551
        },
        {
          "duration": 1.9516382383333308,
          "durationTicks": 2381,
          "midi": 36,
          "name": "C2",
          "ticks": 76800,
          "time": 62.950784,
          "velocity": 0.7637795275590551
        },
        {
          "duration": 1.9516382383333308,
          "durationTicks": 2381,
          "midi": 48,
          "name": "C3",
          "ticks": 76800,
          "time": 62.950784,
          "velocity": 0.7874015748031497
        },
        {
          "duration": 1.9516382383333308,
          "durationTicks": 2381,
          "midi": 36,
          "name": "C2",
          "ticks": 76800,
          "time": 62.950784,
          "velocity": 0.7874015748031497
        },
        {
          "duration": 1.9516382383333308,
          "durationTicks": 2381,
          "midi": 60,
          "name": "C4",
          "ticks": 79200,
          "time": 64.917996,
          "velocity": 0.7480314960629921
        },
        {
          "duration": 1.9516382383333308,
          "durationTicks": 2381,
          "midi": 48,
          "name": "C3",
          "ticks": 79200,
          "time": 64.917996,
          "velocity": 0.7480314960629921
        },
        {
          "duration": 1.9516382383333308,
          "durationTicks": 2381,
          "midi": 36,
          "name": "C2",
          "ticks": 79200,
          "time": 64.917996,
          "velocity": 0.7480314960629921
        },
        {
          "duration": 1.9516382383333308,
          "durationTicks": 2381,
          "midi": 48,
          "name": "C3",
          "ticks": 79200,
          "time": 64.917996,
          "velocity": 0.7874015748031497
        },
        {
          "duration": 1.9516382383333308,
          "durationTicks": 2381,
          "midi": 36,
          "name": "C2",
          "ticks": 79200,
          "time": 64.917996,
          "velocity": 0.7874015748031497
        },
        {
          "duration": 1.9516382383333308,
          "durationTicks": 2381,
          "midi": 63,
          "name": "D#4",
          "ticks": 81600,
          "time": 66.885208,
          "velocity": 0.7401574803149606
        },
        {
          "duration": 1.9516382383333308,
          "durationTicks": 2381,
          "midi": 51,
          "name": "D#3",
          "ticks": 81600,
          "time": 66.885208,
          "velocity": 0.7401574803149606
        },
        {
          "duration": 1.9516382383333308,
          "durationTicks": 2381,
          "midi": 39,
          "name": "D#2",
          "ticks": 81600,
          "time": 66.885208,
          "velocity": 0.7401574803149606
        },
        {
          "duration": 1.9516382383333308,
          "durationTicks": 2381,
          "midi": 39,
          "name": "D#2",
          "ticks": 81600,
          "time": 66.885208,
          "velocity": 0.7874015748031497
        },
        {
          "duration": 1.9516382383333308,
          "durationTicks": 2381,
          "midi": 51,
          "name": "D#3",
          "ticks": 81600,
          "time": 66.885208,
          "velocity": 0.7874015748031497
        },
        {
          "duration": 0.9680322383333362,
          "durationTicks": 1181,
          "midi": 53,
          "name": "F3",
          "ticks": 84000,
          "time": 68.85242,
          "velocity": 0.7322834645669292
        },
        {
          "duration": 0.9680322383333362,
          "durationTicks": 1181,
          "midi": 41,
          "name": "F2",
          "ticks": 84000,
          "time": 68.85242,
          "velocity": 0.7322834645669292
        },
        {
          "duration": 0.9680322383333362,
          "durationTicks": 1181,
          "midi": 65,
          "name": "F4",
          "ticks": 84000,
          "time": 68.85242,
          "velocity": 0.7322834645669292
        },
        {
          "duration": 0.9680322383333362,
          "durationTicks": 1181,
          "midi": 53,
          "name": "F3",
          "ticks": 84000,
          "time": 68.85242,
          "velocity": 0.7874015748031497
        },
        {
          "duration": 0.9680322383333362,
          "durationTicks": 1181,
          "midi": 41,
          "name": "F2",
          "ticks": 84000,
          "time": 68.85242,
          "velocity": 0.7874015748031497
        },
        {
          "duration": 0.968032238333322,
          "durationTicks": 1181,
          "midi": 55,
          "name": "G3",
          "ticks": 85200,
          "time": 69.836026,
          "velocity": 0.7244094488188977
        },
        {
          "duration": 0.968032238333322,
          "durationTicks": 1181,
          "midi": 43,
          "name": "G2",
          "ticks": 85200,
          "time": 69.836026,
          "velocity": 0.7244094488188977
        },
        {
          "duration": 0.968032238333322,
          "durationTicks": 1181,
          "midi": 67,
          "name": "G4",
          "ticks": 85200,
          "time": 69.836026,
          "velocity": 0.7244094488188977
        },
        {
          "duration": 0.968032238333322,
          "durationTicks": 1181,
          "midi": 43,
          "name": "G2",
          "ticks": 85200,
          "time": 69.836026,
          "velocity": 0.7874015748031497
        },
        {
          "duration": 0.968032238333322,
          "durationTicks": 1181,
          "midi": 55,
          "name": "G3",
          "ticks": 85200,
          "time": 69.836026,
          "velocity": 0.7874015748031497
        },
        {
          "duration": 1.9516382383333308,
          "durationTicks": 2381,
          "midi": 60,
          "name": "C4",
          "ticks": 86400,
          "time": 70.819632,
          "velocity": 0.7637795275590551
        },
        {
          "duration": 1.9516382383333308,
          "durationTicks": 2381,
          "midi": 48,
          "name": "C3",
          "ticks": 86400,
          "time": 70.819632,
          "velocity": 0.7637795275590551
        },
        {
          "duration": 1.9516382383333308,
          "durationTicks": 2381,
          "midi": 36,
          "name": "C2",
          "ticks": 86400,
          "time": 70.819632,
          "velocity": 0.7637795275590551
        },
        {
          "duration": 1.9516382383333308,
          "durationTicks": 2381,
          "midi": 48,
          "name": "C3",
          "ticks": 86400,
          "time": 70.819632,
          "velocity": 0.7874015748031497
        },
        {
          "duration": 1.9516382383333308,
          "durationTicks": 2381,
          "midi": 36,
          "name": "C2",
          "ticks": 86400,
          "time": 70.819632,
          "velocity": 0.7874015748031497
        },
        {
          "duration": 1.9516382383333308,
          "durationTicks": 2381,
          "midi": 60,
          "name": "C4",
          "ticks": 88800,
          "time": 72.786844,
          "velocity": 0.7480314960629921
        },
        {
          "duration": 1.9516382383333308,
          "durationTicks": 2381,
          "midi": 48,
          "name": "C3",
          "ticks": 88800,
          "time": 72.786844,
          "velocity": 0.7480314960629921
        },
        {
          "duration": 1.9516382383333308,
          "durationTicks": 2381,
          "midi": 36,
          "name": "C2",
          "ticks": 88800,
          "time": 72.786844,
          "velocity": 0.7480314960629921
        },
        {
          "duration": 1.9516382383333308,
          "durationTicks": 2381,
          "midi": 48,
          "name": "C3",
          "ticks": 88800,
          "time": 72.786844,
          "velocity": 0.7874015748031497
        },
        {
          "duration": 1.9516382383333308,
          "durationTicks": 2381,
          "midi": 36,
          "name": "C2",
          "ticks": 88800,
          "time": 72.786844,
          "velocity": 0.7874015748031497
        },
        {
          "duration": 1.951638238333345,
          "durationTicks": 2381,
          "midi": 63,
          "name": "D#4",
          "ticks": 91200,
          "time": 74.75405599999999,
          "velocity": 0.7401574803149606
        },
        {
          "duration": 1.951638238333345,
          "durationTicks": 2381,
          "midi": 51,
          "name": "D#3",
          "ticks": 91200,
          "time": 74.75405599999999,
          "velocity": 0.7401574803149606
        },
        {
          "duration": 1.951638238333345,
          "durationTicks": 2381,
          "midi": 39,
          "name": "D#2",
          "ticks": 91200,
          "time": 74.75405599999999,
          "velocity": 0.7401574803149606
        },
        {
          "duration": 1.951638238333345,
          "durationTicks": 2381,
          "midi": 39,
          "name": "D#2",
          "ticks": 91200,
          "time": 74.75405599999999,
          "velocity": 0.7874015748031497
        },
        {
          "duration": 1.951638238333345,
          "durationTicks": 2381,
          "midi": 51,
          "name": "D#3",
          "ticks": 91200,
          "time": 74.75405599999999,
          "velocity": 0.7874015748031497
        },
        {
          "duration": 0.9680322383333362,
          "durationTicks": 1181,
          "midi": 53,
          "name": "F3",
          "ticks": 93600,
          "time": 76.721268,
          "velocity": 0.7322834645669292
        },
        {
          "duration": 0.9680322383333362,
          "durationTicks": 1181,
          "midi": 41,
          "name": "F2",
          "ticks": 93600,
          "time": 76.721268,
          "velocity": 0.7322834645669292
        },
        {
          "duration": 0.9680322383333362,
          "durationTicks": 1181,
          "midi": 65,
          "name": "F4",
          "ticks": 93600,
          "time": 76.721268,
          "velocity": 0.7322834645669292
        },
        {
          "duration": 0.9680322383333362,
          "durationTicks": 1181,
          "midi": 53,
          "name": "F3",
          "ticks": 93600,
          "time": 76.721268,
          "velocity": 0.7874015748031497
        },
        {
          "duration": 0.9680322383333362,
          "durationTicks": 1181,
          "midi": 41,
          "name": "F2",
          "ticks": 93600,
          "time": 76.721268,
          "velocity": 0.7874015748031497
        },
        {
          "duration": 1.9672120000000035,
          "durationTicks": 2400,
          "midi": 44,
          "name": "G#2",
          "ticks": 96000,
          "time": 78.68848,
          "velocity": 0.7322834645669292
        },
        {
          "duration": 1.9672120000000035,
          "durationTicks": 2400,
          "midi": 32,
          "name": "G#1",
          "ticks": 96000,
          "time": 78.68848,
          "velocity": 0.7322834645669292
        },
        {
          "duration": 0.9680322383333362,
          "durationTicks": 1181,
          "midi": 72,
          "name": "C5",
          "ticks": 96000,
          "time": 78.68848,
          "velocity": 0.8582677165354331
        },
        {
          "duration": 0.9680322383333362,
          "durationTicks": 1181,
          "midi": 72,
          "name": "C5",
          "ticks": 96000,
          "time": 78.68848,
          "velocity": 0.8582677165354331
        },
        {
          "duration": 0.35327848833334485,
          "durationTicks": 431,
          "midi": 72,
          "name": "C5",
          "ticks": 97200,
          "time": 79.672086,
          "velocity": 0.8661417322834646
        },
        {
          "duration": 0.35327848833334485,
          "durationTicks": 431,
          "midi": 72,
          "name": "C5",
          "ticks": 97200,
          "time": 79.672086,
          "velocity": 0.8661417322834646
        },
        {
          "duration": 0.10737698833332843,
          "durationTicks": 131,
          "midi": 72,
          "name": "C5",
          "ticks": 97650,
          "time": 80.04093825,
          "velocity": 0.8661417322834646
        },
        {
          "duration": 0.10737698833332843,
          "durationTicks": 131,
          "midi": 72,
          "name": "C5",
          "ticks": 97650,
          "time": 80.04093825,
          "velocity": 0.8661417322834646
        },
        {
          "duration": 0.47622923833333175,
          "durationTicks": 581,
          "midi": 74,
          "name": "D5",
          "ticks": 97800,
          "time": 80.163889,
          "velocity": 0.8661417322834646
        },
        {
          "duration": 0.47622923833333175,
          "durationTicks": 581,
          "midi": 74,
          "name": "D5",
          "ticks": 97800,
          "time": 80.163889,
          "velocity": 0.8661417322834646
        },
        {
          "duration": 1.9672120000000035,
          "durationTicks": 2400,
          "midi": 34,
          "name": "A#1",
          "ticks": 98400,
          "time": 80.655692,
          "velocity": 0.7322834645669292
        },
        {
          "duration": 1.9672120000000035,
          "durationTicks": 2400,
          "midi": 46,
          "name": "A#2",
          "ticks": 98400,
          "time": 80.655692,
          "velocity": 0.7322834645669292
        },
        {
          "duration": 1.4598352383333264,
          "durationTicks": 1781,
          "midi": 75,
          "name": "D#5",
          "ticks": 98400,
          "time": 80.655692,
          "velocity": 0.8661417322834646
        },
        {
          "duration": 1.4598352383333264,
          "durationTicks": 1781,
          "midi": 75,
          "name": "D#5",
          "ticks": 98400,
          "time": 80.655692,
          "velocity": 0.8661417322834646
        },
        {
          "duration": 0.47622923833333175,
          "durationTicks": 581,
          "midi": 80,
          "name": "G#5",
          "ticks": 100200,
          "time": 82.131101,
          "velocity": 0.8661417322834646
        },
        {
          "duration": 0.47622923833333175,
          "durationTicks": 581,
          "midi": 80,
          "name": "G#5",
          "ticks": 100200,
          "time": 82.131101,
          "velocity": 0.8661417322834646
        },
        {
          "duration": 1.9672119999999893,
          "durationTicks": 2400,
          "midi": 43,
          "name": "G2",
          "ticks": 100800,
          "time": 82.622904,
          "velocity": 0.7322834645669292
        },
        {
          "duration": 1.9672119999999893,
          "durationTicks": 2400,
          "midi": 31,
          "name": "G1",
          "ticks": 100800,
          "time": 82.622904,
          "velocity": 0.7322834645669292
        },
        {
          "duration": 0.47622923833333175,
          "durationTicks": 581,
          "midi": 79,
          "name": "G5",
          "ticks": 100800,
          "time": 82.622904,
          "velocity": 0.8740157480314961
        },
        {
          "duration": 0.47622923833333175,
          "durationTicks": 581,
          "midi": 79,
          "name": "G5",
          "ticks": 100800,
          "time": 82.622904,
          "velocity": 0.8740157480314961
        },
        {
          "duration": 0.47622923833333175,
          "durationTicks": 581,
          "midi": 75,
          "name": "D#5",
          "ticks": 101400,
          "time": 83.114707,
          "velocity": 0.8740157480314961
        },
        {
          "duration": 0.47622923833333175,
          "durationTicks": 581,
          "midi": 75,
          "name": "D#5",
          "ticks": 101400,
          "time": 83.114707,
          "velocity": 0.8740157480314961
        },
        {
          "duration": 0.47622923833333175,
          "durationTicks": 581,
          "midi": 77,
          "name": "F5",
          "ticks": 102000,
          "time": 83.60651,
          "velocity": 0.8740157480314961
        },
        {
          "duration": 0.47622923833333175,
          "durationTicks": 581,
          "midi": 77,
          "name": "F5",
          "ticks": 102000,
          "time": 83.60651,
          "velocity": 0.8740157480314961
        },
        {
          "duration": 0.47622923833333175,
          "durationTicks": 581,
          "midi": 74,
          "name": "D5",
          "ticks": 102600,
          "time": 84.098313,
          "velocity": 0.8740157480314961
        },
        {
          "duration": 0.47622923833333175,
          "durationTicks": 581,
          "midi": 74,
          "name": "D5",
          "ticks": 102600,
          "time": 84.098313,
          "velocity": 0.8740157480314961
        },
        {
          "duration": 0.8606552500000078,
          "durationTicks": 1050,
          "midi": 48,
          "name": "C3",
          "ticks": 103200,
          "time": 84.590116,
          "velocity": 0.7322834645669292
        },
        {
          "duration": 0.8606552500000078,
          "durationTicks": 1050,
          "midi": 36,
          "name": "C2",
          "ticks": 103200,
          "time": 84.590116,
          "velocity": 0.7322834645669292
        },
        {
          "duration": 0.9680322383333362,
          "durationTicks": 1181,
          "midi": 75,
          "name": "D#5",
          "ticks": 103200,
          "time": 84.590116,
          "velocity": 0.8740157480314961
        },
        {
          "duration": 0.9680322383333362,
          "durationTicks": 1181,
          "midi": 75,
          "name": "D#5",
          "ticks": 103200,
          "time": 84.590116,
          "velocity": 0.8740157480314961
        },
        {
          "duration": 1.1065567499999958,
          "durationTicks": 1350,
          "midi": 51,
          "name": "D#3",
          "ticks": 104250,
          "time": 85.45077125,
          "velocity": 0.7322834645669292
        },
        {
          "duration": 1.1065567499999958,
          "durationTicks": 1350,
          "midi": 39,
          "name": "D#2",
          "ticks": 104250,
          "time": 85.45077125,
          "velocity": 0.7322834645669292
        },
        {
          "duration": 0.968032238333322,
          "durationTicks": 1181,
          "midi": 74,
          "name": "D5",
          "ticks": 104400,
          "time": 85.573722,
          "velocity": 0.8818897637795275
        },
        {
          "duration": 0.968032238333322,
          "durationTicks": 1181,
          "midi": 74,
          "name": "D5",
          "ticks": 104400,
          "time": 85.573722,
          "velocity": 0.8818897637795275
        },
        {
          "duration": 1.9672120000000035,
          "durationTicks": 2400,
          "midi": 44,
          "name": "G#2",
          "ticks": 105600,
          "time": 86.557328,
          "velocity": 0.7322834645669292
        },
        {
          "duration": 1.9672120000000035,
          "durationTicks": 2400,
          "midi": 32,
          "name": "G#1",
          "ticks": 105600,
          "time": 86.557328,
          "velocity": 0.7322834645669292
        },
        {
          "duration": 0.9680322383333362,
          "durationTicks": 1181,
          "midi": 72,
          "name": "C5",
          "ticks": 105600,
          "time": 86.557328,
          "velocity": 0.8818897637795275
        },
        {
          "duration": 0.9680322383333362,
          "durationTicks": 1181,
          "midi": 72,
          "name": "C5",
          "ticks": 105600,
          "time": 86.557328,
          "velocity": 0.8818897637795275
        },
        {
          "duration": 0.35327848833334485,
          "durationTicks": 431,
          "midi": 72,
          "name": "C5",
          "ticks": 106800,
          "time": 87.540934,
          "velocity": 0.8818897637795275
        },
        {
          "duration": 0.35327848833334485,
          "durationTicks": 431,
          "midi": 72,
          "name": "C5",
          "ticks": 106800,
          "time": 87.540934,
          "velocity": 0.8818897637795275
        },
        {
          "duration": 0.10737698833332843,
          "durationTicks": 131,
          "midi": 72,
          "name": "C5",
          "ticks": 107250,
          "time": 87.90978625,
          "velocity": 0.8818897637795275
        },
        {
          "duration": 0.10737698833332843,
          "durationTicks": 131,
          "midi": 72,
          "name": "C5",
          "ticks": 107250,
          "time": 87.90978625,
          "velocity": 0.8818897637795275
        },
        {
          "duration": 0.47622923833333175,
          "durationTicks": 581,
          "midi": 74,
          "name": "D5",
          "ticks": 107400,
          "time": 88.032737,
          "velocity": 0.8818897637795275
        },
        {
          "duration": 0.47622923833333175,
          "durationTicks": 581,
          "midi": 74,
          "name": "D5",
          "ticks": 107400,
          "time": 88.032737,
          "velocity": 0.8818897637795275
        },
        {
          "duration": 1.9672119999999893,
          "durationTicks": 2400,
          "midi": 34,
          "name": "A#1",
          "ticks": 108000,
          "time": 88.52454,
          "velocity": 0.7322834645669292
        },
        {
          "duration": 1.9672119999999893,
          "durationTicks": 2400,
          "midi": 46,
          "name": "A#2",
          "ticks": 108000,
          "time": 88.52454,
          "velocity": 0.7322834645669292
        },
        {
          "duration": 1.4598352383333264,
          "durationTicks": 1781,
          "midi": 75,
          "name": "D#5",
          "ticks": 108000,
          "time": 88.52454,
          "velocity": 0.889763779527559
        },
        {
          "duration": 1.4598352383333264,
          "durationTicks": 1781,
          "midi": 75,
          "name": "D#5",
          "ticks": 108000,
          "time": 88.52454,
          "velocity": 0.889763779527559
        },
        {
          "duration": 0.47622923833333175,
          "durationTicks": 581,
          "midi": 80,
          "name": "G#5",
          "ticks": 109800,
          "time": 89.999949,
          "velocity": 0.889763779527559
        },
        {
          "duration": 0.47622923833333175,
          "durationTicks": 581,
          "midi": 80,
          "name": "G#5",
          "ticks": 109800,
          "time": 89.999949,
          "velocity": 0.889763779527559
        },
        {
          "duration": 1.9672120000000035,
          "durationTicks": 2400,
          "midi": 43,
          "name": "G2",
          "ticks": 110400,
          "time": 90.49175199999999,
          "velocity": 0.7322834645669292
        },
        {
          "duration": 1.9672120000000035,
          "durationTicks": 2400,
          "midi": 31,
          "name": "G1",
          "ticks": 110400,
          "time": 90.49175199999999,
          "velocity": 0.7322834645669292
        },
        {
          "duration": 0.47622923833334596,
          "durationTicks": 581,
          "midi": 83,
          "name": "B5",
          "ticks": 110400,
          "time": 90.49175199999999,
          "velocity": 0.889763779527559
        },
        {
          "duration": 0.47622923833334596,
          "durationTicks": 581,
          "midi": 83,
          "name": "B5",
          "ticks": 110400,
          "time": 90.49175199999999,
          "velocity": 0.889763779527559
        },
        {
          "duration": 0.47622923833333175,
          "durationTicks": 581,
          "midi": 79,
          "name": "G5",
          "ticks": 111000,
          "time": 90.983555,
          "velocity": 0.889763779527559
        },
        {
          "duration": 0.47622923833333175,
          "durationTicks": 581,
          "midi": 79,
          "name": "G5",
          "ticks": 111000,
          "time": 90.983555,
          "velocity": 0.889763779527559
        },
        {
          "duration": 0.47622923833333175,
          "durationTicks": 581,
          "midi": 83,
          "name": "B5",
          "ticks": 111600,
          "time": 91.475358,
          "velocity": 0.8976377952755905
        },
        {
          "duration": 0.47622923833333175,
          "durationTicks": 581,
          "midi": 83,
          "name": "B5",
          "ticks": 111600,
          "time": 91.475358,
          "velocity": 0.8976377952755905
        },
        {
          "duration": 0.47622923833333175,
          "durationTicks": 581,
          "midi": 84,
          "name": "C6",
          "ticks": 112200,
          "time": 91.967161,
          "velocity": 0.8976377952755905
        },
        {
          "duration": 0.47622923833333175,
          "durationTicks": 581,
          "midi": 84,
          "name": "C6",
          "ticks": 112200,
          "time": 91.967161,
          "velocity": 0.8976377952755905
        },
        {
          "duration": 0.8606552500000078,
          "durationTicks": 1050,
          "midi": 48,
          "name": "C3",
          "ticks": 112800,
          "time": 92.458964,
          "velocity": 0.7322834645669292
        },
        {
          "duration": 0.8606552500000078,
          "durationTicks": 1050,
          "midi": 36,
          "name": "C2",
          "ticks": 112800,
          "time": 92.458964,
          "velocity": 0.7322834645669292
        },
        {
          "duration": 0.9680322383333362,
          "durationTicks": 1181,
          "midi": 84,
          "name": "C6",
          "ticks": 112800,
          "time": 92.458964,
          "velocity": 0.8976377952755905
        },
        {
          "duration": 0.9680322383333362,
          "durationTicks": 1181,
          "midi": 84,
          "name": "C6",
          "ticks": 112800,
          "time": 92.458964,
          "velocity": 0.8976377952755905
        },
        {
          "duration": 1.1065567499999958,
          "durationTicks": 1350,
          "midi": 51,
          "name": "D#3",
          "ticks": 113850,
          "time": 93.31961925,
          "velocity": 0.7322834645669292
        },
        {
          "duration": 1.1065567499999958,
          "durationTicks": 1350,
          "midi": 39,
          "name": "D#2",
          "ticks": 113850,
          "time": 93.31961925,
          "velocity": 0.7322834645669292
        },
        {
          "duration": 0.968032238333322,
          "durationTicks": 1181,
          "midi": 87,
          "name": "D#6",
          "ticks": 114000,
          "time": 93.44257,
          "velocity": 0.8976377952755905
        },
        {
          "duration": 0.968032238333322,
          "durationTicks": 1181,
          "midi": 87,
          "name": "D#6",
          "ticks": 114000,
          "time": 93.44257,
          "velocity": 0.8976377952755905
        },
        {
          "duration": 1.9672120000000035,
          "durationTicks": 2400,
          "midi": 44,
          "name": "G#2",
          "ticks": 115200,
          "time": 94.426176,
          "velocity": 0.7322834645669292
        },
        {
          "duration": 1.9672120000000035,
          "durationTicks": 2400,
          "midi": 32,
          "name": "G#1",
          "ticks": 115200,
          "time": 94.426176,
          "velocity": 0.7322834645669292
        },
        {
          "duration": 0.9680322383333362,
          "durationTicks": 1181,
          "midi": 72,
          "name": "C5",
          "ticks": 115200,
          "time": 94.426176,
          "velocity": 0.905511811023622
        },
        {
          "duration": 0.9680322383333362,
          "durationTicks": 1181,
          "midi": 72,
          "name": "C5",
          "ticks": 115200,
          "time": 94.426176,
          "velocity": 0.905511811023622
        },
        {
          "duration": 0.9680322383333362,
          "durationTicks": 1181,
          "midi": 84,
          "name": "C6",
          "ticks": 115200,
          "time": 94.426176,
          "velocity": 0.905511811023622
        },
        {
          "duration": 0.35327848833334485,
          "durationTicks": 431,
          "midi": 86,
          "name": "D6",
          "ticks": 116400,
          "time": 95.40978199999999,
          "velocity": 0.905511811023622
        },
        {
          "duration": 0.35327848833334485,
          "durationTicks": 431,
          "midi": 72,
          "name": "C5",
          "ticks": 116400,
          "time": 95.40978199999999,
          "velocity": 0.905511811023622
        },
        {
          "duration": 0.35327848833334485,
          "durationTicks": 431,
          "midi": 72,
          "name": "C5",
          "ticks": 116400,
          "time": 95.40978199999999,
          "velocity": 0.905511811023622
        },
        {
          "duration": 0.10737698833332843,
          "durationTicks": 131,
          "midi": 86,
          "name": "D6",
          "ticks": 116850,
          "time": 95.77863425,
          "velocity": 0.905511811023622
        },
        {
          "duration": 0.10737698833332843,
          "durationTicks": 131,
          "midi": 72,
          "name": "C5",
          "ticks": 116850,
          "time": 95.77863425,
          "velocity": 0.905511811023622
        },
        {
          "duration": 0.10737698833332843,
          "durationTicks": 131,
          "midi": 72,
          "name": "C5",
          "ticks": 116850,
          "time": 95.77863425,
          "velocity": 0.905511811023622
        },
        {
          "duration": 0.47622923833333175,
          "durationTicks": 581,
          "midi": 74,
          "name": "D5",
          "ticks": 117000,
          "time": 95.901585,
          "velocity": 0.905511811023622
        },
        {
          "duration": 0.47622923833333175,
          "durationTicks": 581,
          "midi": 74,
          "name": "D5",
          "ticks": 117000,
          "time": 95.901585,
          "velocity": 0.905511811023622
        },
        {
          "duration": 0.47622923833333175,
          "durationTicks": 581,
          "midi": 89,
          "name": "F6",
          "ticks": 117000,
          "time": 95.901585,
          "velocity": 0.905511811023622
        },
        {
          "duration": 1.9672120000000035,
          "durationTicks": 2400,
          "midi": 34,
          "name": "A#1",
          "ticks": 117600,
          "time": 96.393388,
          "velocity": 0.7322834645669292
        },
        {
          "duration": 1.9672120000000035,
          "durationTicks": 2400,
          "midi": 46,
          "name": "A#2",
          "ticks": 117600,
          "time": 96.393388,
          "velocity": 0.7322834645669292
        },
        {
          "duration": 1.4598352383333264,
          "durationTicks": 1781,
          "midi": 75,
          "name": "D#5",
          "ticks": 117600,
          "time": 96.393388,
          "velocity": 0.905511811023622
        },
        {
          "duration": 1.4598352383333264,
          "durationTicks": 1781,
          "midi": 75,
          "name": "D#5",
          "ticks": 117600,
          "time": 96.393388,
          "velocity": 0.905511811023622
        },
        {
          "duration": 1.4598352383333264,
          "durationTicks": 1781,
          "midi": 91,
          "name": "G6",
          "ticks": 117600,
          "time": 96.393388,
          "velocity": 0.905511811023622
        },
        {
          "duration": 0.47622923833333175,
          "durationTicks": 581,
          "midi": 89,
          "name": "F6",
          "ticks": 119400,
          "time": 97.868797,
          "velocity": 0.9133858267716536
        },
        {
          "duration": 0.47622923833333175,
          "durationTicks": 581,
          "midi": 80,
          "name": "G#5",
          "ticks": 119400,
          "time": 97.868797,
          "velocity": 0.9133858267716536
        },
        {
          "duration": 0.47622923833333175,
          "durationTicks": 581,
          "midi": 80,
          "name": "G#5",
          "ticks": 119400,
          "time": 97.868797,
          "velocity": 0.9133858267716536
        },
        {
          "duration": 1.9672119999999893,
          "durationTicks": 2400,
          "midi": 43,
          "name": "G2",
          "ticks": 120000,
          "time": 98.3606,
          "velocity": 0.7322834645669292
        },
        {
          "duration": 1.9672119999999893,
          "durationTicks": 2400,
          "midi": 31,
          "name": "G1",
          "ticks": 120000,
          "time": 98.3606,
          "velocity": 0.7322834645669292
        },
        {
          "duration": 0.47622923833333175,
          "durationTicks": 581,
          "midi": 86,
          "name": "D6",
          "ticks": 120000,
          "time": 98.3606,
          "velocity": 0.9133858267716536
        },
        {
          "duration": 0.47622923833333175,
          "durationTicks": 581,
          "midi": 79,
          "name": "G5",
          "ticks": 120000,
          "time": 98.3606,
          "velocity": 0.9133858267716536
        },
        {
          "duration": 0.47622923833333175,
          "durationTicks": 581,
          "midi": 79,
          "name": "G5",
          "ticks": 120000,
          "time": 98.3606,
          "velocity": 0.9133858267716536
        },
        {
          "duration": 0.47622923833333175,
          "durationTicks": 581,
          "midi": 84,
          "name": "C6",
          "ticks": 120600,
          "time": 98.852403,
          "velocity": 0.9133858267716536
        },
        {
          "duration": 0.47622923833333175,
          "durationTicks": 581,
          "midi": 75,
          "name": "D#5",
          "ticks": 120600,
          "time": 98.852403,
          "velocity": 0.9133858267716536
        },
        {
          "duration": 0.47622923833333175,
          "durationTicks": 581,
          "midi": 75,
          "name": "D#5",
          "ticks": 120600,
          "time": 98.852403,
          "velocity": 0.9133858267716536
        },
        {
          "duration": 0.47622923833333175,
          "durationTicks": 581,
          "midi": 87,
          "name": "D#6",
          "ticks": 121200,
          "time": 99.344206,
          "velocity": 0.9133858267716536
        },
        {
          "duration": 0.47622923833333175,
          "durationTicks": 581,
          "midi": 77,
          "name": "F5",
          "ticks": 121200,
          "time": 99.344206,
          "velocity": 0.9133858267716536
        },
        {
          "duration": 0.47622923833333175,
          "durationTicks": 581,
          "midi": 77,
          "name": "F5",
          "ticks": 121200,
          "time": 99.344206,
          "velocity": 0.9133858267716536
        },
        {
          "duration": 0.47622923833333175,
          "durationTicks": 581,
          "midi": 77,
          "name": "F5",
          "ticks": 121800,
          "time": 99.836009,
          "velocity": 0.9133858267716536
        },
        {
          "duration": 0.47622923833333175,
          "durationTicks": 581,
          "midi": 77,
          "name": "F5",
          "ticks": 121800,
          "time": 99.836009,
          "velocity": 0.9133858267716536
        },
        {
          "duration": 0.47622923833333175,
          "durationTicks": 581,
          "midi": 87,
          "name": "D#6",
          "ticks": 121800,
          "time": 99.836009,
          "velocity": 0.9133858267716536
        },
        {
          "duration": 0.8606552500000078,
          "durationTicks": 1050,
          "midi": 48,
          "name": "C3",
          "ticks": 122400,
          "time": 100.327812,
          "velocity": 0.7322834645669292
        },
        {
          "duration": 0.8606552500000078,
          "durationTicks": 1050,
          "midi": 36,
          "name": "C2",
          "ticks": 122400,
          "time": 100.327812,
          "velocity": 0.7322834645669292
        },
        {
          "duration": 1.9516382383333308,
          "durationTicks": 2381,
          "midi": 84,
          "name": "C6",
          "ticks": 122400,
          "time": 100.327812,
          "velocity": 0.9212598425196851
        },
        {
          "duration": 1.9516382383333308,
          "durationTicks": 2381,
          "midi": 75,
          "name": "D#5",
          "ticks": 122400,
          "time": 100.327812,
          "velocity": 0.9212598425196851
        },
        {
          "duration": 1.9516382383333308,
          "durationTicks": 2381,
          "midi": 75,
          "name": "D#5",
          "ticks": 122400,
          "time": 100.327812,
          "velocity": 0.9212598425196851
        },
        {
          "duration": 1.1065567499999958,
          "durationTicks": 1350,
          "midi": 51,
          "name": "D#3",
          "ticks": 123450,
          "time": 101.18846725,
          "velocity": 0.7322834645669292
        },
        {
          "duration": 1.1065567499999958,
          "durationTicks": 1350,
          "midi": 39,
          "name": "D#2",
          "ticks": 123450,
          "time": 101.18846725,
          "velocity": 0.7322834645669292
        },
        {
          "duration": 1.9672120000000035,
          "durationTicks": 2400,
          "midi": 44,
          "name": "G#2",
          "ticks": 124800,
          "time": 102.295024,
          "velocity": 0.7322834645669292
        },
        {
          "duration": 1.9672120000000035,
          "durationTicks": 2400,
          "midi": 32,
          "name": "G#1",
          "ticks": 124800,
          "time": 102.295024,
          "velocity": 0.7322834645669292
        },
        {
          "duration": 0.9680322383333362,
          "durationTicks": 1181,
          "midi": 72,
          "name": "C5",
          "ticks": 124800,
          "time": 102.295024,
          "velocity": 0.9212598425196851
        },
        {
          "duration": 0.9680322383333362,
          "durationTicks": 1181,
          "midi": 72,
          "name": "C5",
          "ticks": 124800,
          "time": 102.295024,
          "velocity": 0.9212598425196851
        },
        {
          "duration": 0.9680322383333362,
          "durationTicks": 1181,
          "midi": 87,
          "name": "D#6",
          "ticks": 124800,
          "time": 102.295024,
          "velocity": 0.9212598425196851
        },
        {
          "duration": 0.35327848833334485,
          "durationTicks": 431,
          "midi": 87,
          "name": "D#6",
          "ticks": 126000,
          "time": 103.27862999999999,
          "velocity": 0.9291338582677166
        },
        {
          "duration": 0.35327848833334485,
          "durationTicks": 431,
          "midi": 72,
          "name": "C5",
          "ticks": 126000,
          "time": 103.27862999999999,
          "velocity": 0.9291338582677166
        },
        {
          "duration": 0.35327848833334485,
          "durationTicks": 431,
          "midi": 72,
          "name": "C5",
          "ticks": 126000,
          "time": 103.27862999999999,
          "velocity": 0.9291338582677166
        },
        {
          "duration": 0.10737698833332843,
          "durationTicks": 131,
          "midi": 87,
          "name": "D#6",
          "ticks": 126450,
          "time": 103.64748225,
          "velocity": 0.9291338582677166
        },
        {
          "duration": 0.10737698833332843,
          "durationTicks": 131,
          "midi": 72,
          "name": "C5",
          "ticks": 126450,
          "time": 103.64748225,
          "velocity": 0.9291338582677166
        },
        {
          "duration": 0.10737698833332843,
          "durationTicks": 131,
          "midi": 72,
          "name": "C5",
          "ticks": 126450,
          "time": 103.64748225,
          "velocity": 0.9291338582677166
        },
        {
          "duration": 0.47622923833333175,
          "durationTicks": 581,
          "midi": 74,
          "name": "D5",
          "ticks": 126600,
          "time": 103.770433,
          "velocity": 0.9291338582677166
        },
        {
          "duration": 0.47622923833333175,
          "durationTicks": 581,
          "midi": 74,
          "name": "D5",
          "ticks": 126600,
          "time": 103.770433,
          "velocity": 0.9291338582677166
        },
        {
          "duration": 0.47622923833333175,
          "durationTicks": 581,
          "midi": 89,
          "name": "F6",
          "ticks": 126600,
          "time": 103.770433,
          "velocity": 0.9291338582677166
        },
        {
          "duration": 1.9672119999999893,
          "durationTicks": 2400,
          "midi": 34,
          "name": "A#1",
          "ticks": 127200,
          "time": 104.262236,
          "velocity": 0.7322834645669292
        },
        {
          "duration": 1.9672119999999893,
          "durationTicks": 2400,
          "midi": 46,
          "name": "A#2",
          "ticks": 127200,
          "time": 104.262236,
          "velocity": 0.7322834645669292
        },
        {
          "duration": 1.4598352383333264,
          "durationTicks": 1781,
          "midi": 75,
          "name": "D#5",
          "ticks": 127200,
          "time": 104.262236,
          "velocity": 0.9291338582677166
        },
        {
          "duration": 1.4598352383333264,
          "durationTicks": 1781,
          "midi": 75,
          "name": "D#5",
          "ticks": 127200,
          "time": 104.262236,
          "velocity": 0.9291338582677166
        },
        {
          "duration": 1.4598352383333264,
          "durationTicks": 1781,
          "midi": 82,
          "name": "A#5",
          "ticks": 127200,
          "time": 104.262236,
          "velocity": 0.9291338582677166
        },
        {
          "duration": 0.47622923833333175,
          "durationTicks": 581,
          "midi": 80,
          "name": "G#5",
          "ticks": 129000,
          "time": 105.737645,
          "velocity": 0.9291338582677166
        },
        {
          "duration": 0.47622923833333175,
          "durationTicks": 581,
          "midi": 80,
          "name": "G#5",
          "ticks": 129000,
          "time": 105.737645,
          "velocity": 0.9291338582677166
        },
        {
          "duration": 1.9672120000000035,
          "durationTicks": 2400,
          "midi": 43,
          "name": "G2",
          "ticks": 129600,
          "time": 106.22944799999999,
          "velocity": 0.7322834645669292
        },
        {
          "duration": 1.9672120000000035,
          "durationTicks": 2400,
          "midi": 31,
          "name": "G1",
          "ticks": 129600,
          "time": 106.22944799999999,
          "velocity": 0.7322834645669292
        },
        {
          "duration": 0.47622923833334596,
          "durationTicks": 581,
          "midi": 75,
          "name": "D#5",
          "ticks": 129600,
          "time": 106.22944799999999,
          "velocity": 0.937007874015748
        },
        {
          "duration": 0.47622923833334596,
          "durationTicks": 581,
          "midi": 83,
          "name": "B5",
          "ticks": 129600,
          "time": 106.22944799999999,
          "velocity": 0.937007874015748
        },
        {
          "duration": 0.47622923833334596,
          "durationTicks": 581,
          "midi": 83,
          "name": "B5",
          "ticks": 129600,
          "time": 106.22944799999999,
          "velocity": 0.937007874015748
        },
        {
          "duration": 0.47622923833333175,
          "durationTicks": 581,
          "midi": 74,
          "name": "D5",
          "ticks": 130200,
          "time": 106.721251,
          "velocity": 0.937007874015748
        },
        {
          "duration": 0.47622923833333175,
          "durationTicks": 581,
          "midi": 79,
          "name": "G5",
          "ticks": 130200,
          "time": 106.721251,
          "velocity": 0.937007874015748
        },
        {
          "duration": 0.47622923833333175,
          "durationTicks": 581,
          "midi": 79,
          "name": "G5",
          "ticks": 130200,
          "time": 106.721251,
          "velocity": 0.937007874015748
        },
        {
          "duration": 0.47622923833333175,
          "durationTicks": 581,
          "midi": 75,
          "name": "D#5",
          "ticks": 130800,
          "time": 107.213054,
          "velocity": 0.937007874015748
        },
        {
          "duration": 0.47622923833333175,
          "durationTicks": 581,
          "midi": 83,
          "name": "B5",
          "ticks": 130800,
          "time": 107.213054,
          "velocity": 0.937007874015748
        },
        {
          "duration": 0.47622923833333175,
          "durationTicks": 581,
          "midi": 83,
          "name": "B5",
          "ticks": 130800,
          "time": 107.213054,
          "velocity": 0.937007874015748
        },
        {
          "duration": 0.47622923833333175,
          "durationTicks": 581,
          "midi": 84,
          "name": "C6",
          "ticks": 131400,
          "time": 107.704857,
          "velocity": 0.937007874015748
        },
        {
          "duration": 0.47622923833333175,
          "durationTicks": 581,
          "midi": 84,
          "name": "C6",
          "ticks": 131400,
          "time": 107.704857,
          "velocity": 0.937007874015748
        },
        {
          "duration": 0.47622923833333175,
          "durationTicks": 581,
          "midi": 79,
          "name": "G5",
          "ticks": 131400,
          "time": 107.704857,
          "velocity": 0.937007874015748
        },
        {
          "duration": 0.8606552500000078,
          "durationTicks": 1050,
          "midi": 48,
          "name": "C3",
          "ticks": 132000,
          "time": 108.19666,
          "velocity": 0.7322834645669292
        },
        {
          "duration": 0.8606552500000078,
          "durationTicks": 1050,
          "midi": 36,
          "name": "C2",
          "ticks": 132000,
          "time": 108.19666,
          "velocity": 0.7322834645669292
        },
        {
          "duration": 0.9680322383333362,
          "durationTicks": 1181,
          "midi": 84,
          "name": "C6",
          "ticks": 132000,
          "time": 108.19666,
          "velocity": 0.937007874015748
        },
        {
          "duration": 0.9680322383333362,
          "durationTicks": 1181,
          "midi": 84,
          "name": "C6",
          "ticks": 132000,
          "time": 108.19666,
          "velocity": 0.937007874015748
        },
        {
          "duration": 0.9680322383333362,
          "durationTicks": 1181,
          "midi": 75,
          "name": "D#5",
          "ticks": 132000,
          "time": 108.19666,
          "velocity": 0.937007874015748
        },
        {
          "duration": 0.12295075000000111,
          "durationTicks": 150,
          "midi": 51,
          "name": "D#3",
          "ticks": 133050,
          "time": 109.05731525,
          "velocity": 0.7322834645669292
        },
        {
          "duration": 0.12295075000000111,
          "durationTicks": 150,
          "midi": 39,
          "name": "D#2",
          "ticks": 133050,
          "time": 109.05731525,
          "velocity": 0.7322834645669292
        },
        {
          "duration": 1.9516382383333308,
          "durationTicks": 2381,
          "midi": 50,
          "name": "D3",
          "ticks": 134400,
          "time": 110.163872,
          "velocity": 0.7401574803149606
        },
        {
          "duration": 1.9516382383333308,
          "durationTicks": 2381,
          "midi": 38,
          "name": "D2",
          "ticks": 134400,
          "time": 110.163872,
          "velocity": 0.7401574803149606
        },
        {
          "duration": 1.9516382383333308,
          "durationTicks": 2381,
          "midi": 50,
          "name": "D3",
          "ticks": 136800,
          "time": 112.131084,
          "velocity": 0.7401574803149606
        },
        {
          "duration": 1.9516382383333308,
          "durationTicks": 2381,
          "midi": 38,
          "name": "D2",
          "ticks": 136800,
          "time": 112.131084,
          "velocity": 0.7401574803149606
        },
        {
          "duration": 1.9516382383333308,
          "durationTicks": 2381,
          "midi": 46,
          "name": "A#2",
          "ticks": 139200,
          "time": 114.098296,
          "velocity": 0.7401574803149606
        },
        {
          "duration": 1.9516382383333308,
          "durationTicks": 2381,
          "midi": 34,
          "name": "A#1",
          "ticks": 139200,
          "time": 114.098296,
          "velocity": 0.7401574803149606
        },
        {
          "duration": 0.9680322383333362,
          "durationTicks": 1181,
          "midi": 48,
          "name": "C3",
          "ticks": 141600,
          "time": 116.065508,
          "velocity": 0.7401574803149606
        },
        {
          "duration": 0.9680322383333362,
          "durationTicks": 1181,
          "midi": 36,
          "name": "C2",
          "ticks": 141600,
          "time": 116.065508,
          "velocity": 0.7401574803149606
        },
        {
          "duration": 0.968032238333322,
          "durationTicks": 1181,
          "midi": 37,
          "name": "C#2",
          "ticks": 142800,
          "time": 117.049114,
          "velocity": 0.7401574803149606
        },
        {
          "duration": 0.968032238333322,
          "durationTicks": 1181,
          "midi": 49,
          "name": "C#3",
          "ticks": 142800,
          "time": 117.049114,
          "velocity": 0.7401574803149606
        },
        {
          "duration": 1.9516382383333308,
          "durationTicks": 2381,
          "midi": 50,
          "name": "D3",
          "ticks": 144000,
          "time": 118.03272,
          "velocity": 0.7401574803149606
        },
        {
          "duration": 1.9516382383333308,
          "durationTicks": 2381,
          "midi": 38,
          "name": "D2",
          "ticks": 144000,
          "time": 118.03272,
          "velocity": 0.7401574803149606
        },
        {
          "duration": 1.9516382383333308,
          "durationTicks": 2381,
          "midi": 50,
          "name": "D3",
          "ticks": 146400,
          "time": 119.999932,
          "velocity": 0.7401574803149606
        },
        {
          "duration": 1.9516382383333308,
          "durationTicks": 2381,
          "midi": 38,
          "name": "D2",
          "ticks": 146400,
          "time": 119.999932,
          "velocity": 0.7401574803149606
        },
        {
          "duration": 1.951638238333345,
          "durationTicks": 2381,
          "midi": 46,
          "name": "A#2",
          "ticks": 148800,
          "time": 121.96714399999999,
          "velocity": 0.7401574803149606
        },
        {
          "duration": 1.951638238333345,
          "durationTicks": 2381,
          "midi": 34,
          "name": "A#1",
          "ticks": 148800,
          "time": 121.96714399999999,
          "velocity": 0.7401574803149606
        },
        {
          "duration": 0.9680322383333362,
          "durationTicks": 1181,
          "midi": 48,
          "name": "C3",
          "ticks": 151200,
          "time": 123.934356,
          "velocity": 0.7401574803149606
        },
        {
          "duration": 0.9680322383333362,
          "durationTicks": 1181,
          "midi": 36,
          "name": "C2",
          "ticks": 151200,
          "time": 123.934356,
          "velocity": 0.7401574803149606
        },
        {
          "duration": 0.968032238333322,
          "durationTicks": 1181,
          "midi": 37,
          "name": "C#2",
          "ticks": 152400,
          "time": 124.917962,
          "velocity": 0.7401574803149606
        },
        {
          "duration": 0.968032238333322,
          "durationTicks": 1181,
          "midi": 49,
          "name": "C#3",
          "ticks": 152400,
          "time": 124.917962,
          "velocity": 0.7401574803149606
        },
        {
          "duration": 0.9836059999999947,
          "durationTicks": 1200,
          "midi": 74,
          "name": "D5",
          "ticks": 153600,
          "time": 125.901568,
          "velocity": 0.6929133858267716
        },
        {
          "duration": 1.9516382383333166,
          "durationTicks": 2381,
          "midi": 38,
          "name": "D2",
          "ticks": 153600,
          "time": 125.901568,
          "velocity": 0.6929133858267716
        },
        {
          "duration": 1.9516382383333166,
          "durationTicks": 2381,
          "midi": 50,
          "name": "D3",
          "ticks": 153600,
          "time": 125.901568,
          "velocity": 0.7401574803149606
        },
        {
          "duration": 1.9516382383333166,
          "durationTicks": 2381,
          "midi": 38,
          "name": "D2",
          "ticks": 153600,
          "time": 125.901568,
          "velocity": 0.7401574803149606
        },
        {
          "duration": 0.3688522500000033,
          "durationTicks": 450,
          "midi": 74,
          "name": "D5",
          "ticks": 154800,
          "time": 126.88517399999999,
          "velocity": 0.6929133858267716
        },
        {
          "duration": 0.12295075000000111,
          "durationTicks": 150,
          "midi": 74,
          "name": "D5",
          "ticks": 155250,
          "time": 127.25402625,
          "velocity": 0.6929133858267716
        },
        {
          "duration": 0.49180300000000443,
          "durationTicks": 600,
          "midi": 76,
          "name": "E5",
          "ticks": 155400,
          "time": 127.376977,
          "velocity": 0.6929133858267716
        },
        {
          "duration": 1.475408999999999,
          "durationTicks": 1800,
          "midi": 77,
          "name": "F5",
          "ticks": 156000,
          "time": 127.86878,
          "velocity": 0.6929133858267716
        },
        {
          "duration": 1.9516382383333024,
          "durationTicks": 2381,
          "midi": 38,
          "name": "D2",
          "ticks": 156000,
          "time": 127.86878,
          "velocity": 0.6929133858267716
        },
        {
          "duration": 1.9516382383333024,
          "durationTicks": 2381,
          "midi": 50,
          "name": "D3",
          "ticks": 156000,
          "time": 127.86878,
          "velocity": 0.7401574803149606
        },
        {
          "duration": 1.9516382383333024,
          "durationTicks": 2381,
          "midi": 38,
          "name": "D2",
          "ticks": 156000,
          "time": 127.86878,
          "velocity": 0.7401574803149606
        },
        {
          "duration": 0.49180300000000443,
          "durationTicks": 600,
          "midi": 82,
          "name": "A#5",
          "ticks": 157800,
          "time": 129.344189,
          "velocity": 0.7007874015748031
        },
        {
          "duration": 0.49180300000000443,
          "durationTicks": 600,
          "midi": 81,
          "name": "A5",
          "ticks": 158400,
          "time": 129.835992,
          "velocity": 0.7007874015748031
        },
        {
          "duration": 1.9516382383333166,
          "durationTicks": 2381,
          "midi": 34,
          "name": "A#1",
          "ticks": 158400,
          "time": 129.835992,
          "velocity": 0.7007874015748031
        },
        {
          "duration": 1.9516382383333166,
          "durationTicks": 2381,
          "midi": 46,
          "name": "A#2",
          "ticks": 158400,
          "time": 129.835992,
          "velocity": 0.7401574803149606
        },
        {
          "duration": 1.9516382383333166,
          "durationTicks": 2381,
          "midi": 34,
          "name": "A#1",
          "ticks": 158400,
          "time": 129.835992,
          "velocity": 0.7401574803149606
        },
        {
          "duration": 0.491802999999976,
          "durationTicks": 600,
          "midi": 77,
          "name": "F5",
          "ticks": 159000,
          "time": 130.327795,
          "velocity": 0.7007874015748031
        },
        {
          "duration": 0.49180300000000443,
          "durationTicks": 600,
          "midi": 79,
          "name": "G5",
          "ticks": 159600,
          "time": 130.81959799999998,
          "velocity": 0.7007874015748031
        },
        {
          "duration": 0.49180300000000443,
          "durationTicks": 600,
          "midi": 76,
          "name": "E5",
          "ticks": 160200,
          "time": 131.311401,
          "velocity": 0.7007874015748031
        },
        {
          "duration": 0.9680322383333362,
          "durationTicks": 1181,
          "midi": 36,
          "name": "C2",
          "ticks": 160800,
          "time": 131.803204,
          "velocity": 0.7007874015748031
        },
        {
          "duration": 0.9836060000000089,
          "durationTicks": 1200,
          "midi": 77,
          "name": "F5",
          "ticks": 160800,
          "time": 131.803204,
          "velocity": 0.7007874015748031
        },
        {
          "duration": 0.9680322383333362,
          "durationTicks": 1181,
          "midi": 48,
          "name": "C3",
          "ticks": 160800,
          "time": 131.803204,
          "velocity": 0.7401574803149606
        },
        {
          "duration": 0.9680322383333362,
          "durationTicks": 1181,
          "midi": 36,
          "name": "C2",
          "ticks": 160800,
          "time": 131.803204,
          "velocity": 0.7401574803149606
        },
        {
          "duration": 0.9680322383333078,
          "durationTicks": 1181,
          "midi": 37,
          "name": "C#2",
          "ticks": 162000,
          "time": 132.78681,
          "velocity": 0.7007874015748031
        },
        {
          "duration": 0.9836060000000089,
          "durationTicks": 1200,
          "midi": 76,
          "name": "E5",
          "ticks": 162000,
          "time": 132.78681,
          "velocity": 0.7007874015748031
        },
        {
          "duration": 0.9680322383333078,
          "durationTicks": 1181,
          "midi": 37,
          "name": "C#2",
          "ticks": 162000,
          "time": 132.78681,
          "velocity": 0.7401574803149606
        },
        {
          "duration": 0.9680322383333078,
          "durationTicks": 1181,
          "midi": 49,
          "name": "C#3",
          "ticks": 162000,
          "time": 132.78681,
          "velocity": 0.7401574803149606
        },
        {
          "duration": 0.9836059999999804,
          "durationTicks": 1200,
          "midi": 74,
          "name": "D5",
          "ticks": 163200,
          "time": 133.770416,
          "velocity": 1
        },
        {
          "duration": 1.9516382383333166,
          "durationTicks": 2381,
          "midi": 38,
          "name": "D2",
          "ticks": 163200,
          "time": 133.770416,
          "velocity": 1
        },
        {
          "duration": 1.9516382383333166,
          "durationTicks": 2381,
          "midi": 50,
          "name": "D3",
          "ticks": 163200,
          "time": 133.770416,
          "velocity": 0.7401574803149606
        },
        {
          "duration": 1.9516382383333166,
          "durationTicks": 2381,
          "midi": 38,
          "name": "D2",
          "ticks": 163200,
          "time": 133.770416,
          "velocity": 0.7401574803149606
        },
        {
          "duration": 0.3688522500000033,
          "durationTicks": 450,
          "midi": 74,
          "name": "D5",
          "ticks": 164400,
          "time": 134.754022,
          "velocity": 1
        },
        {
          "duration": 0.12295075000000111,
          "durationTicks": 150,
          "midi": 74,
          "name": "D5",
          "ticks": 164850,
          "time": 135.12287425,
          "velocity": 1
        },
        {
          "duration": 0.49180300000000443,
          "durationTicks": 600,
          "midi": 76,
          "name": "E5",
          "ticks": 165000,
          "time": 135.245825,
          "velocity": 1
        },
        {
          "duration": 1.4754089999999849,
          "durationTicks": 1800,
          "midi": 77,
          "name": "F5",
          "ticks": 165600,
          "time": 135.737628,
          "velocity": 1
        },
        {
          "duration": 1.9516382383333166,
          "durationTicks": 2381,
          "midi": 38,
          "name": "D2",
          "ticks": 165600,
          "time": 135.737628,
          "velocity": 1
        },
        {
          "duration": 1.9516382383333166,
          "durationTicks": 2381,
          "midi": 50,
          "name": "D3",
          "ticks": 165600,
          "time": 135.737628,
          "velocity": 0.7401574803149606
        },
        {
          "duration": 1.9516382383333166,
          "durationTicks": 2381,
          "midi": 38,
          "name": "D2",
          "ticks": 165600,
          "time": 135.737628,
          "velocity": 0.7401574803149606
        },
        {
          "duration": 0.49180300000000443,
          "durationTicks": 600,
          "midi": 82,
          "name": "A#5",
          "ticks": 167400,
          "time": 137.21303699999999,
          "velocity": 1
        },
        {
          "duration": 0.49180300000000443,
          "durationTicks": 600,
          "midi": 81,
          "name": "A5",
          "ticks": 168000,
          "time": 137.70484,
          "velocity": 1
        },
        {
          "duration": 1.9516382383333166,
          "durationTicks": 2381,
          "midi": 34,
          "name": "A#1",
          "ticks": 168000,
          "time": 137.70484,
          "velocity": 1
        },
        {
          "duration": 1.9516382383333166,
          "durationTicks": 2381,
          "midi": 46,
          "name": "A#2",
          "ticks": 168000,
          "time": 137.70484,
          "velocity": 0.7401574803149606
        },
        {
          "duration": 1.9516382383333166,
          "durationTicks": 2381,
          "midi": 34,
          "name": "A#1",
          "ticks": 168000,
          "time": 137.70484,
          "velocity": 0.7401574803149606
        },
        {
          "duration": 0.49180300000000443,
          "durationTicks": 600,
          "midi": 77,
          "name": "F5",
          "ticks": 168600,
          "time": 138.196643,
          "velocity": 1
        },
        {
          "duration": 0.49180300000000443,
          "durationTicks": 600,
          "midi": 79,
          "name": "G5",
          "ticks": 169200,
          "time": 138.688446,
          "velocity": 1
        },
        {
          "duration": 0.49180300000000443,
          "durationTicks": 600,
          "midi": 76,
          "name": "E5",
          "ticks": 169800,
          "time": 139.180249,
          "velocity": 1
        },
        {
          "duration": 1.9672119999999893,
          "durationTicks": 2400,
          "midi": 77,
          "name": "F5",
          "ticks": 170400,
          "time": 139.672052,
          "velocity": 1
        },
        {
          "duration": 0.9680322383333078,
          "durationTicks": 1181,
          "midi": 36,
          "name": "C2",
          "ticks": 170400,
          "time": 139.672052,
          "velocity": 1
        },
        {
          "duration": 0.9680322383333078,
          "durationTicks": 1181,
          "midi": 48,
          "name": "C3",
          "ticks": 170400,
          "time": 139.672052,
          "velocity": 0.7401574803149606
        },
        {
          "duration": 0.9680322383333078,
          "durationTicks": 1181,
          "midi": 36,
          "name": "C2",
          "ticks": 170400,
          "time": 139.672052,
          "velocity": 0.7401574803149606
        },
        {
          "duration": 0.9680322383333362,
          "durationTicks": 1181,
          "midi": 37,
          "name": "C#2",
          "ticks": 171600,
          "time": 140.655658,
          "velocity": 1
        },
        {
          "duration": 0.9680322383333362,
          "durationTicks": 1181,
          "midi": 37,
          "name": "C#2",
          "ticks": 171600,
          "time": 140.655658,
          "velocity": 0.7401574803149606
        },
        {
          "duration": 0.9680322383333362,
          "durationTicks": 1181,
          "midi": 49,
          "name": "C#3",
          "ticks": 171600,
          "time": 140.655658,
          "velocity": 0.7401574803149606
        }
      ]
    },
    {
      "channel": 0,
      "controlChanges": {},
      "pitchBends": [
        {
          "ticks": 38400,
          "time": 31.475392,
          "value": 0
        }
      ],
      "instrument": {
        "family": "piano",
        "number": 0,
        "name": "acoustic grand piano"
      },
      "name": "",
      "notes": []
    },
    {
      "channel": 3,
      "controlChanges": {
        "6": [
          {
            "number": 6,
            "ticks": 38400,
            "time": 31.475392,
            "value": 0.09448818897637795
          },
          {
            "number": 6,
            "ticks": 184800,
            "time": 151.475324,
            "value": 0.09448818897637795
          },
          {
            "number": 6,
            "ticks": 184800,
            "time": 151.475324,
            "value": 0.09448818897637795
          }
        ],
        "7": [
          {
            "number": 7,
            "ticks": 38400,
            "time": 31.475392,
            "value": 1
          },
          {
            "number": 7,
            "ticks": 38400,
            "time": 31.475392,
            "value": 1
          },
          {
            "number": 7,
            "ticks": 184800,
            "time": 151.475324,
            "value": 1
          },
          {
            "number": 7,
            "ticks": 184800,
            "time": 151.475324,
            "value": 1
          }
        ],
        "10": [
          {
            "number": 10,
            "ticks": 38400,
            "time": 31.475392,
            "value": 0.5039370078740157
          },
          {
            "number": 10,
            "ticks": 38400,
            "time": 31.475392,
            "value": 0.5039370078740157
          },
          {
            "number": 10,
            "ticks": 184800,
            "time": 151.475324,
            "value": 0.5039370078740157
          },
          {
            "number": 10,
            "ticks": 184800,
            "time": 151.475324,
            "value": 0.5039370078740157
          }
        ],
        "100": [
          {
            "number": 100,
            "ticks": 38400,
            "time": 31.475392,
            "value": 0
          },
          {
            "number": 100,
            "ticks": 184800,
            "time": 151.475324,
            "value": 0
          },
          {
            "number": 100,
            "ticks": 184800,
            "time": 151.475324,
            "value": 0
          }
        ],
        "101": [
          {
            "number": 101,
            "ticks": 38400,
            "time": 31.475392,
            "value": 0
          },
          {
            "number": 101,
            "ticks": 184800,
            "time": 151.475324,
            "value": 0
          },
          {
            "number": 101,
            "ticks": 184800,
            "time": 151.475324,
            "value": 0
          }
        ]
      },
      "pitchBends": [
        {
          "ticks": 38400,
          "time": 31.475392,
          "value": 0
        },
        {
          "ticks": 38400,
          "time": 31.475392,
          "value": 0
        },
        {
          "ticks": 184800,
          "time": 151.475324,
          "value": 0
        },
        {
          "ticks": 184800,
          "time": 151.475324,
          "value": 0
        }
      ],
      "instrument": {
        "family": "chromatic percussion",
        "number": 10,
        "name": "music box"
      },
      "name": "",
      "notes": [
        {
          "duration": 0.24590150000000222,
          "durationTicks": 300,
          "midi": 60,
          "name": "C4",
          "ticks": 67200,
          "time": 55.081936,
          "velocity": 0.8188976377952756
        },
        {
          "duration": 0.2459014999999951,
          "durationTicks": 300,
          "midi": 67,
          "name": "G4",
          "ticks": 67500,
          "time": 55.3278375,
          "velocity": 0.8188976377952756
        },
        {
          "duration": 0.49180300000000443,
          "durationTicks": 600,
          "midi": 65,
          "name": "F4",
          "ticks": 67800,
          "time": 55.573738999999996,
          "velocity": 0.8188976377952756
        },
        {
          "duration": 0.2459014999999951,
          "durationTicks": 300,
          "midi": 60,
          "name": "C4",
          "ticks": 68400,
          "time": 56.065542,
          "velocity": 0.8188976377952756
        },
        {
          "duration": 0.24590150000000222,
          "durationTicks": 300,
          "midi": 67,
          "name": "G4",
          "ticks": 68700,
          "time": 56.311443499999996,
          "velocity": 0.8188976377952756
        },
        {
          "duration": 0.49180300000000443,
          "durationTicks": 600,
          "midi": 65,
          "name": "F4",
          "ticks": 69000,
          "time": 56.557345,
          "velocity": 0.8188976377952756
        },
        {
          "duration": 0.2459014999999951,
          "durationTicks": 300,
          "midi": 60,
          "name": "C4",
          "ticks": 69600,
          "time": 57.049148,
          "velocity": 0.8188976377952756
        },
        {
          "duration": 0.24590150000000222,
          "durationTicks": 300,
          "midi": 67,
          "name": "G4",
          "ticks": 69900,
          "time": 57.2950495,
          "velocity": 0.8267716535433071
        },
        {
          "duration": 0.24590150000000222,
          "durationTicks": 300,
          "midi": 65,
          "name": "F4",
          "ticks": 70200,
          "time": 57.540951,
          "velocity": 0.8267716535433071
        },
        {
          "duration": 0.2459014999999951,
          "durationTicks": 300,
          "midi": 63,
          "name": "D#4",
          "ticks": 70500,
          "time": 57.7868525,
          "velocity": 0.8267716535433071
        },
        {
          "duration": 0.24590150000000222,
          "durationTicks": 300,
          "midi": 60,
          "name": "C4",
          "ticks": 70800,
          "time": 58.032754,
          "velocity": 0.8267716535433071
        },
        {
          "duration": 0.24590150000000222,
          "durationTicks": 300,
          "midi": 67,
          "name": "G4",
          "ticks": 71100,
          "time": 58.2786555,
          "velocity": 0.8267716535433071
        },
        {
          "duration": 0.2459014999999951,
          "durationTicks": 300,
          "midi": 65,
          "name": "F4",
          "ticks": 71400,
          "time": 58.524557,
          "velocity": 0.8267716535433071
        },
        {
          "duration": 0.12295075000000111,
          "durationTicks": 150,
          "midi": 62,
          "name": "D4",
          "ticks": 71700,
          "time": 58.7704585,
          "velocity": 0.8267716535433071
        },
        {
          "duration": 0.12295075000000111,
          "durationTicks": 150,
          "midi": 62,
          "name": "D4",
          "ticks": 71850,
          "time": 58.89340925,
          "velocity": 0.8267716535433071
        },
        {
          "duration": 0.24590150000000222,
          "durationTicks": 300,
          "midi": 63,
          "name": "D#4",
          "ticks": 72000,
          "time": 59.01636,
          "velocity": 0.8267716535433071
        },
        {
          "duration": 0.2459014999999951,
          "durationTicks": 300,
          "midi": 60,
          "name": "C4",
          "ticks": 72300,
          "time": 59.2622615,
          "velocity": 0.8267716535433071
        },
        {
          "duration": 0.24590150000000222,
          "durationTicks": 300,
          "midi": 60,
          "name": "C4",
          "ticks": 72600,
          "time": 59.508162999999996,
          "velocity": 0.8267716535433071
        },
        {
          "duration": 0.24590150000000222,
          "durationTicks": 300,
          "midi": 60,
          "name": "C4",
          "ticks": 72900,
          "time": 59.7540645,
          "velocity": 0.8267716535433071
        },
        {
          "duration": 0.2459014999999951,
          "durationTicks": 300,
          "midi": 63,
          "name": "D#4",
          "ticks": 73200,
          "time": 59.999966,
          "velocity": 0.8267716535433071
        },
        {
          "duration": 0.24590150000000222,
          "durationTicks": 300,
          "midi": 60,
          "name": "C4",
          "ticks": 73500,
          "time": 60.245867499999996,
          "velocity": 0.8346456692913385
        },
        {
          "duration": 0.24590150000000222,
          "durationTicks": 300,
          "midi": 60,
          "name": "C4",
          "ticks": 73800,
          "time": 60.491769,
          "velocity": 0.8346456692913385
        },
        {
          "duration": 0.2459014999999951,
          "durationTicks": 300,
          "midi": 60,
          "name": "C4",
          "ticks": 74100,
          "time": 60.7376705,
          "velocity": 0.8346456692913385
        },
        {
          "duration": 0.24590150000000222,
          "durationTicks": 300,
          "midi": 65,
          "name": "F4",
          "ticks": 74400,
          "time": 60.983571999999995,
          "velocity": 0.8346456692913385
        },
        {
          "duration": 0.24590150000000222,
          "durationTicks": 300,
          "midi": 63,
          "name": "D#4",
          "ticks": 74700,
          "time": 61.2294735,
          "velocity": 0.8346456692913385
        },
        {
          "duration": 0.24590150000000222,
          "durationTicks": 300,
          "midi": 62,
          "name": "D4",
          "ticks": 75000,
          "time": 61.475375,
          "velocity": 0.8346456692913385
        },
        {
          "duration": 0.2459014999999951,
          "durationTicks": 300,
          "midi": 63,
          "name": "D#4",
          "ticks": 75300,
          "time": 61.7212765,
          "velocity": 0.8346456692913385
        },
        {
          "duration": 0.24590150000000222,
          "durationTicks": 300,
          "midi": 62,
          "name": "D4",
          "ticks": 75600,
          "time": 61.967178,
          "velocity": 0.8346456692913385
        },
        {
          "duration": 0.24590150000000222,
          "durationTicks": 300,
          "midi": 60,
          "name": "C4",
          "ticks": 75900,
          "time": 62.2130795,
          "velocity": 0.8346456692913385
        },
        {
          "duration": 0.2459014999999951,
          "durationTicks": 300,
          "midi": 60,
          "name": "C4",
          "ticks": 76200,
          "time": 62.458981,
          "velocity": 0.8346456692913385
        },
        {
          "duration": 0.24590150000000222,
          "durationTicks": 300,
          "midi": 59,
          "name": "B3",
          "ticks": 76500,
          "time": 62.7048825,
          "velocity": 0.8346456692913385
        },
        {
          "duration": 0.24590150000000222,
          "durationTicks": 300,
          "midi": 60,
          "name": "C4",
          "ticks": 175200,
          "time": 143.606476,
          "velocity": 0.8188976377952756
        },
        {
          "duration": 0.24590150000000222,
          "durationTicks": 300,
          "midi": 67,
          "name": "G4",
          "ticks": 175500,
          "time": 143.8523775,
          "velocity": 0.8188976377952756
        },
        {
          "duration": 0.49180300000000443,
          "durationTicks": 600,
          "midi": 65,
          "name": "F4",
          "ticks": 175800,
          "time": 144.098279,
          "velocity": 0.8188976377952756
        },
        {
          "duration": 0.24590150000000222,
          "durationTicks": 300,
          "midi": 60,
          "name": "C4",
          "ticks": 176400,
          "time": 144.590082,
          "velocity": 0.8188976377952756
        },
        {
          "duration": 0.24590150000000222,
          "durationTicks": 300,
          "midi": 67,
          "name": "G4",
          "ticks": 176700,
          "time": 144.8359835,
          "velocity": 0.8188976377952756
        },
        {
          "duration": 0.49180300000000443,
          "durationTicks": 600,
          "midi": 65,
          "name": "F4",
          "ticks": 177000,
          "time": 145.081885,
          "velocity": 0.8188976377952756
        },
        {
          "duration": 0.24590150000000222,
          "durationTicks": 300,
          "midi": 60,
          "name": "C4",
          "ticks": 177600,
          "time": 145.573688,
          "velocity": 0.8188976377952756
        },
        {
          "duration": 0.24590150000000222,
          "durationTicks": 300,
          "midi": 67,
          "name": "G4",
          "ticks": 177900,
          "time": 145.8195895,
          "velocity": 0.8267716535433071
        },
        {
          "duration": 0.24590150000000222,
          "durationTicks": 300,
          "midi": 65,
          "name": "F4",
          "ticks": 178200,
          "time": 146.065491,
          "velocity": 0.8267716535433071
        },
        {
          "duration": 0.2459014999999738,
          "durationTicks": 300,
          "midi": 63,
          "name": "D#4",
          "ticks": 178500,
          "time": 146.3113925,
          "velocity": 0.8267716535433071
        },
        {
          "duration": 0.24590150000000222,
          "durationTicks": 300,
          "midi": 60,
          "name": "C4",
          "ticks": 178800,
          "time": 146.55729399999998,
          "velocity": 0.8267716535433071
        },
        {
          "duration": 0.24590150000000222,
          "durationTicks": 300,
          "midi": 67,
          "name": "G4",
          "ticks": 179100,
          "time": 146.8031955,
          "velocity": 0.8267716535433071
        },
        {
          "duration": 0.24590150000000222,
          "durationTicks": 300,
          "midi": 65,
          "name": "F4",
          "ticks": 179400,
          "time": 147.049097,
          "velocity": 0.8267716535433071
        },
        {
          "duration": 0.12295075000000111,
          "durationTicks": 150,
          "midi": 62,
          "name": "D4",
          "ticks": 179700,
          "time": 147.2949985,
          "velocity": 0.8267716535433071
        },
        {
          "duration": 0.12295075000000111,
          "durationTicks": 150,
          "midi": 62,
          "name": "D4",
          "ticks": 179850,
          "time": 147.41794925,
          "velocity": 0.8267716535433071
        },
        {
          "duration": 0.24590150000000222,
          "durationTicks": 300,
          "midi": 63,
          "name": "D#4",
          "ticks": 180000,
          "time": 147.5409,
          "velocity": 0.8267716535433071
        },
        {
          "duration": 0.24590150000000222,
          "durationTicks": 300,
          "midi": 60,
          "name": "C4",
          "ticks": 180300,
          "time": 147.7868015,
          "velocity": 0.8267716535433071
        },
        {
          "duration": 0.24590150000000222,
          "durationTicks": 300,
          "midi": 60,
          "name": "C4",
          "ticks": 180600,
          "time": 148.032703,
          "velocity": 0.8267716535433071
        },
        {
          "duration": 0.24590150000000222,
          "durationTicks": 300,
          "midi": 60,
          "name": "C4",
          "ticks": 180900,
          "time": 148.2786045,
          "velocity": 0.8267716535433071
        },
        {
          "duration": 0.24590150000000222,
          "durationTicks": 300,
          "midi": 63,
          "name": "D#4",
          "ticks": 181200,
          "time": 148.524506,
          "velocity": 0.8267716535433071
        },
        {
          "duration": 0.24590150000000222,
          "durationTicks": 300,
          "midi": 60,
          "name": "C4",
          "ticks": 181500,
          "time": 148.7704075,
          "velocity": 0.8346456692913385
        },
        {
          "duration": 0.24590150000000222,
          "durationTicks": 300,
          "midi": 60,
          "name": "C4",
          "ticks": 181800,
          "time": 149.016309,
          "velocity": 0.8346456692913385
        },
        {
          "duration": 0.2459014999999738,
          "durationTicks": 300,
          "midi": 60,
          "name": "C4",
          "ticks": 182100,
          "time": 149.2622105,
          "velocity": 0.8346456692913385
        },
        {
          "duration": 0.24590150000000222,
          "durationTicks": 300,
          "midi": 65,
          "name": "F4",
          "ticks": 182400,
          "time": 149.50811199999998,
          "velocity": 0.8346456692913385
        },
        {
          "duration": 0.24590150000000222,
          "durationTicks": 300,
          "midi": 63,
          "name": "D#4",
          "ticks": 182700,
          "time": 149.75401349999999,
          "velocity": 0.8346456692913385
        },
        {
          "duration": 0.24590150000000222,
          "durationTicks": 300,
          "midi": 62,
          "name": "D4",
          "ticks": 183000,
          "time": 149.999915,
          "velocity": 0.8346456692913385
        },
        {
          "duration": 0.24590150000000222,
          "durationTicks": 300,
          "midi": 63,
          "name": "D#4",
          "ticks": 183300,
          "time": 150.2458165,
          "velocity": 0.8346456692913385
        },
        {
          "duration": 0.24590150000000222,
          "durationTicks": 300,
          "midi": 62,
          "name": "D4",
          "ticks": 183600,
          "time": 150.491718,
          "velocity": 0.8346456692913385
        },
        {
          "duration": 0.24590150000000222,
          "durationTicks": 300,
          "midi": 60,
          "name": "C4",
          "ticks": 183900,
          "time": 150.7376195,
          "velocity": 0.8346456692913385
        },
        {
          "duration": 0.24590150000000222,
          "durationTicks": 300,
          "midi": 60,
          "name": "C4",
          "ticks": 184200,
          "time": 150.983521,
          "velocity": 0.8346456692913385
        },
        {
          "duration": 0.24590150000000222,
          "durationTicks": 300,
          "midi": 59,
          "name": "B3",
          "ticks": 184500,
          "time": 151.2294225,
          "velocity": 0.8346456692913385
        }
      ]
    },
    {
      "channel": 0,
      "controlChanges": {},
      "pitchBends": [
        {
          "ticks": 38400,
          "time": 31.475392,
          "value": 0
        }
      ],
      "instrument": {
        "family": "piano",
        "number": 0,
        "name": "acoustic grand piano"
      },
      "name": "",
      "notes": []
    },
    {
      "channel": 2,
      "controlChanges": {
        "6": [
          {
            "number": 6,
            "ticks": 38400,
            "time": 31.475392,
            "value": 0.09448818897637795
          },
          {
            "number": 6,
            "ticks": 38400,
            "time": 31.475392,
            "value": 0.09448818897637795
          },
          {
            "number": 6,
            "ticks": 184800,
            "time": 151.475324,
            "value": 0.09448818897637795
          },
          {
            "number": 6,
            "ticks": 184800,
            "time": 151.475324,
            "value": 0.09448818897637795
          },
          {
            "number": 6,
            "ticks": 184800,
            "time": 151.475324,
            "value": 0.09448818897637795
          },
          {
            "number": 6,
            "ticks": 184800,
            "time": 151.475324,
            "value": 0.09448818897637795
          }
        ],
        "7": [
          {
            "number": 7,
            "ticks": 38400,
            "time": 31.475392,
            "value": 0.7874015748031497
          },
          {
            "number": 7,
            "ticks": 38400,
            "time": 31.475392,
            "value": 0.7874015748031497
          },
          {
            "number": 7,
            "ticks": 38400,
            "time": 31.475392,
            "value": 0.7086614173228346
          },
          {
            "number": 7,
            "ticks": 38400,
            "time": 31.475392,
            "value": 0.7086614173228346
          },
          {
            "number": 7,
            "ticks": 184800,
            "time": 151.475324,
            "value": 0.7874015748031497
          },
          {
            "number": 7,
            "ticks": 184800,
            "time": 151.475324,
            "value": 0.7874015748031497
          },
          {
            "number": 7,
            "ticks": 184800,
            "time": 151.475324,
            "value": 0.7086614173228346
          },
          {
            "number": 7,
            "ticks": 184800,
            "time": 151.475324,
            "value": 0.7086614173228346
          }
        ],
        "10": [
          {
            "number": 10,
            "ticks": 38400,
            "time": 31.475392,
            "value": 0.5039370078740157
          },
          {
            "number": 10,
            "ticks": 38400,
            "time": 31.475392,
            "value": 0.5039370078740157
          },
          {
            "number": 10,
            "ticks": 38400,
            "time": 31.475392,
            "value": 0.5039370078740157
          },
          {
            "number": 10,
            "ticks": 38400,
            "time": 31.475392,
            "value": 0.5039370078740157
          },
          {
            "number": 10,
            "ticks": 184800,
            "time": 151.475324,
            "value": 0.5039370078740157
          },
          {
            "number": 10,
            "ticks": 184800,
            "time": 151.475324,
            "value": 0.5039370078740157
          },
          {
            "number": 10,
            "ticks": 184800,
            "time": 151.475324,
            "value": 0.5039370078740157
          },
          {
            "number": 10,
            "ticks": 184800,
            "time": 151.475324,
            "value": 0.5039370078740157
          }
        ],
        "100": [
          {
            "number": 100,
            "ticks": 38400,
            "time": 31.475392,
            "value": 0
          },
          {
            "number": 100,
            "ticks": 38400,
            "time": 31.475392,
            "value": 0
          },
          {
            "number": 100,
            "ticks": 184800,
            "time": 151.475324,
            "value": 0
          },
          {
            "number": 100,
            "ticks": 184800,
            "time": 151.475324,
            "value": 0
          },
          {
            "number": 100,
            "ticks": 184800,
            "time": 151.475324,
            "value": 0
          },
          {
            "number": 100,
            "ticks": 184800,
            "time": 151.475324,
            "value": 0
          }
        ],
        "101": [
          {
            "number": 101,
            "ticks": 38400,
            "time": 31.475392,
            "value": 0
          },
          {
            "number": 101,
            "ticks": 38400,
            "time": 31.475392,
            "value": 0
          },
          {
            "number": 101,
            "ticks": 184800,
            "time": 151.475324,
            "value": 0
          },
          {
            "number": 101,
            "ticks": 184800,
            "time": 151.475324,
            "value": 0
          },
          {
            "number": 101,
            "ticks": 184800,
            "time": 151.475324,
            "value": 0
          },
          {
            "number": 101,
            "ticks": 184800,
            "time": 151.475324,
            "value": 0
          }
        ]
      },
      "pitchBends": [
        {
          "ticks": 38400,
          "time": 31.475392,
          "value": 0
        },
        {
          "ticks": 38400,
          "time": 31.475392,
          "value": 0
        },
        {
          "ticks": 38400,
          "time": 31.475392,
          "value": 0
        },
        {
          "ticks": 38400,
          "time": 31.475392,
          "value": 0
        },
        {
          "ticks": 38400,
          "time": 31.475392,
          "value": 0
        },
        {
          "ticks": 184800,
          "time": 151.475324,
          "value": 0
        },
        {
          "ticks": 184800,
          "time": 151.475324,
          "value": 0
        },
        {
          "ticks": 184800,
          "time": 151.475324,
          "value": 0
        },
        {
          "ticks": 184800,
          "time": 151.475324,
          "value": 0
        }
      ],
      "instrument": {
        "family": "strings",
        "number": 46,
        "name": "orchestral harp"
      },
      "name": "",
      "notes": [
        {
          "duration": 0.10737698833333198,
          "durationTicks": 131,
          "midi": 60,
          "name": "C4",
          "ticks": 38400,
          "time": 31.475392,
          "velocity": 0.7952755905511811
        },
        {
          "duration": 0.10737698833333198,
          "durationTicks": 131,
          "midi": 63,
          "name": "D#4",
          "ticks": 38550,
          "time": 31.59834275,
          "velocity": 0.7952755905511811
        },
        {
          "duration": 0.10737698833333553,
          "durationTicks": 131,
          "midi": 67,
          "name": "G4",
          "ticks": 38700,
          "time": 31.721293499999998,
          "velocity": 0.7952755905511811
        },
        {
          "duration": 0.10737698833333198,
          "durationTicks": 131,
          "midi": 63,
          "name": "D#4",
          "ticks": 38850,
          "time": 31.84424425,
          "velocity": 0.7952755905511811
        },
        {
          "duration": 0.10737698833333198,
          "durationTicks": 131,
          "midi": 60,
          "name": "C4",
          "ticks": 39000,
          "time": 31.967195,
          "velocity": 0.7952755905511811
        },
        {
          "duration": 0.10737698833333553,
          "durationTicks": 131,
          "midi": 63,
          "name": "D#4",
          "ticks": 39150,
          "time": 32.09014575,
          "velocity": 0.7952755905511811
        },
        {
          "duration": 0.10737698833333553,
          "durationTicks": 131,
          "midi": 67,
          "name": "G4",
          "ticks": 39300,
          "time": 32.2130965,
          "velocity": 0.7952755905511811
        },
        {
          "duration": 0.10737698833333553,
          "durationTicks": 131,
          "midi": 63,
          "name": "D#4",
          "ticks": 39450,
          "time": 32.33604725,
          "velocity": 0.8031496062992126
        },
        {
          "duration": 0.10737698833332843,
          "durationTicks": 131,
          "midi": 60,
          "name": "C4",
          "ticks": 39600,
          "time": 32.458998,
          "velocity": 0.8031496062992126
        },
        {
          "duration": 0.10737698833332843,
          "durationTicks": 131,
          "midi": 63,
          "name": "D#4",
          "ticks": 39750,
          "time": 32.58194875,
          "velocity": 0.8031496062992126
        },
        {
          "duration": 0.10737698833333553,
          "durationTicks": 131,
          "midi": 67,
          "name": "G4",
          "ticks": 39900,
          "time": 32.704899499999996,
          "velocity": 0.8031496062992126
        },
        {
          "duration": 0.10737698833333553,
          "durationTicks": 131,
          "midi": 63,
          "name": "D#4",
          "ticks": 40050,
          "time": 32.82785025,
          "velocity": 0.8031496062992126
        },
        {
          "duration": 0.10737698833333553,
          "durationTicks": 131,
          "midi": 60,
          "name": "C4",
          "ticks": 40200,
          "time": 32.950801,
          "velocity": 0.8031496062992126
        },
        {
          "duration": 0.10737698833333553,
          "durationTicks": 131,
          "midi": 63,
          "name": "D#4",
          "ticks": 40350,
          "time": 33.07375175,
          "velocity": 0.8031496062992126
        },
        {
          "duration": 0.10737698833333553,
          "durationTicks": 131,
          "midi": 67,
          "name": "G4",
          "ticks": 40500,
          "time": 33.1967025,
          "velocity": 0.8031496062992126
        },
        {
          "duration": 0.10737698833332843,
          "durationTicks": 131,
          "midi": 63,
          "name": "D#4",
          "ticks": 40650,
          "time": 33.31965325,
          "velocity": 0.8031496062992126
        },
        {
          "duration": 0.10737698833332843,
          "durationTicks": 131,
          "midi": 60,
          "name": "C4",
          "ticks": 40800,
          "time": 33.442604,
          "velocity": 0.8031496062992126
        },
        {
          "duration": 0.10737698833333553,
          "durationTicks": 131,
          "midi": 63,
          "name": "D#4",
          "ticks": 40950,
          "time": 33.56555475,
          "velocity": 0.8031496062992126
        },
        {
          "duration": 0.10737698833333553,
          "durationTicks": 131,
          "midi": 67,
          "name": "G4",
          "ticks": 41100,
          "time": 33.6885055,
          "velocity": 0.8031496062992126
        },
        {
          "duration": 0.10737698833333553,
          "durationTicks": 131,
          "midi": 63,
          "name": "D#4",
          "ticks": 41250,
          "time": 33.81145625,
          "velocity": 0.8031496062992126
        },
        {
          "duration": 0.10737698833333553,
          "durationTicks": 131,
          "midi": 60,
          "name": "C4",
          "ticks": 41400,
          "time": 33.934407,
          "velocity": 0.8031496062992126
        },
        {
          "duration": 0.10737698833332843,
          "durationTicks": 131,
          "midi": 63,
          "name": "D#4",
          "ticks": 41550,
          "time": 34.05735775,
          "velocity": 0.8031496062992126
        },
        {
          "duration": 0.10737698833332843,
          "durationTicks": 131,
          "midi": 67,
          "name": "G4",
          "ticks": 41700,
          "time": 34.1803085,
          "velocity": 0.8110236220472441
        },
        {
          "duration": 0.10737698833333553,
          "durationTicks": 131,
          "midi": 63,
          "name": "D#4",
          "ticks": 41850,
          "time": 34.303259249999996,
          "velocity": 0.8110236220472441
        },
        {
          "duration": 0.10737698833333553,
          "durationTicks": 131,
          "midi": 60,
          "name": "C4",
          "ticks": 42000,
          "time": 34.42621,
          "velocity": 0.8110236220472441
        },
        {
          "duration": 0.10737698833333553,
          "durationTicks": 131,
          "midi": 63,
          "name": "D#4",
          "ticks": 42150,
          "time": 34.54916075,
          "velocity": 0.8110236220472441
        },
        {
          "duration": 0.10737698833333553,
          "durationTicks": 131,
          "midi": 67,
          "name": "G4",
          "ticks": 42300,
          "time": 34.6721115,
          "velocity": 0.8110236220472441
        },
        {
          "duration": 0.10737698833332843,
          "durationTicks": 131,
          "midi": 63,
          "name": "D#4",
          "ticks": 42450,
          "time": 34.79506225,
          "velocity": 0.8110236220472441
        },
        {
          "duration": 0.10737698833332843,
          "durationTicks": 131,
          "midi": 60,
          "name": "C4",
          "ticks": 42600,
          "time": 34.918013,
          "velocity": 0.8110236220472441
        },
        {
          "duration": 0.10737698833333553,
          "durationTicks": 131,
          "midi": 63,
          "name": "D#4",
          "ticks": 42750,
          "time": 35.040963749999996,
          "velocity": 0.8110236220472441
        },
        {
          "duration": 0.10737698833333553,
          "durationTicks": 131,
          "midi": 67,
          "name": "G4",
          "ticks": 42900,
          "time": 35.1639145,
          "velocity": 0.8110236220472441
        },
        {
          "duration": 0.10737698833333553,
          "durationTicks": 131,
          "midi": 63,
          "name": "D#4",
          "ticks": 43050,
          "time": 35.28686525,
          "velocity": 0.8110236220472441
        },
        {
          "duration": 0.10737698833333553,
          "durationTicks": 131,
          "midi": 56,
          "name": "G#3",
          "ticks": 43200,
          "time": 35.409816,
          "velocity": 0.8110236220472441
        },
        {
          "duration": 0.10737698833333553,
          "durationTicks": 131,
          "midi": 63,
          "name": "D#4",
          "ticks": 43350,
          "time": 35.53276675,
          "velocity": 0.8110236220472441
        },
        {
          "duration": 0.10737698833332843,
          "durationTicks": 131,
          "midi": 67,
          "name": "G4",
          "ticks": 43500,
          "time": 35.6557175,
          "velocity": 0.8110236220472441
        },
        {
          "duration": 0.10737698833332843,
          "durationTicks": 131,
          "midi": 63,
          "name": "D#4",
          "ticks": 43650,
          "time": 35.77866825,
          "velocity": 0.8110236220472441
        },
        {
          "duration": 0.10737698833333553,
          "durationTicks": 131,
          "midi": 56,
          "name": "G#3",
          "ticks": 43800,
          "time": 35.901619,
          "velocity": 0.8110236220472441
        },
        {
          "duration": 0.10737698833333553,
          "durationTicks": 131,
          "midi": 63,
          "name": "D#4",
          "ticks": 43950,
          "time": 36.02456975,
          "velocity": 0.8188976377952756
        },
        {
          "duration": 0.10737698833333553,
          "durationTicks": 131,
          "midi": 67,
          "name": "G4",
          "ticks": 44100,
          "time": 36.1475205,
          "velocity": 0.8188976377952756
        },
        {
          "duration": 0.10737698833333553,
          "durationTicks": 131,
          "midi": 63,
          "name": "D#4",
          "ticks": 44250,
          "time": 36.27047125,
          "velocity": 0.8188976377952756
        },
        {
          "duration": 0.10737698833332843,
          "durationTicks": 131,
          "midi": 56,
          "name": "G#3",
          "ticks": 44400,
          "time": 36.393422,
          "velocity": 0.8188976377952756
        },
        {
          "duration": 0.10737698833332843,
          "durationTicks": 131,
          "midi": 63,
          "name": "D#4",
          "ticks": 44550,
          "time": 36.51637275,
          "velocity": 0.8188976377952756
        },
        {
          "duration": 0.10737698833333553,
          "durationTicks": 131,
          "midi": 67,
          "name": "G4",
          "ticks": 44700,
          "time": 36.639323499999996,
          "velocity": 0.8188976377952756
        },
        {
          "duration": 0.10737698833333553,
          "durationTicks": 131,
          "midi": 63,
          "name": "D#4",
          "ticks": 44850,
          "time": 36.76227425,
          "velocity": 0.8188976377952756
        },
        {
          "duration": 0.10737698833333553,
          "durationTicks": 131,
          "midi": 56,
          "name": "G#3",
          "ticks": 45000,
          "time": 36.885225,
          "velocity": 0.8188976377952756
        },
        {
          "duration": 0.10737698833333553,
          "durationTicks": 131,
          "midi": 63,
          "name": "D#4",
          "ticks": 45150,
          "time": 37.00817575,
          "velocity": 0.8188976377952756
        },
        {
          "duration": 0.10737698833333553,
          "durationTicks": 131,
          "midi": 67,
          "name": "G4",
          "ticks": 45300,
          "time": 37.1311265,
          "velocity": 0.8188976377952756
        },
        {
          "duration": 0.10737698833332843,
          "durationTicks": 131,
          "midi": 63,
          "name": "D#4",
          "ticks": 45450,
          "time": 37.25407725,
          "velocity": 0.8188976377952756
        },
        {
          "duration": 0.10737698833333553,
          "durationTicks": 131,
          "midi": 58,
          "name": "A#3",
          "ticks": 45600,
          "time": 37.377027999999996,
          "velocity": 0.8188976377952756
        },
        {
          "duration": 0.10737698833333553,
          "durationTicks": 131,
          "midi": 63,
          "name": "D#4",
          "ticks": 45750,
          "time": 37.49997875,
          "velocity": 0.8188976377952756
        },
        {
          "duration": 0.10737698833333553,
          "durationTicks": 131,
          "midi": 67,
          "name": "G4",
          "ticks": 45900,
          "time": 37.6229295,
          "velocity": 0.8188976377952756
        },
        {
          "duration": 0.10737698833333553,
          "durationTicks": 131,
          "midi": 63,
          "name": "D#4",
          "ticks": 46050,
          "time": 37.74588025,
          "velocity": 0.8188976377952756
        },
        {
          "duration": 0.10737698833333553,
          "durationTicks": 131,
          "midi": 58,
          "name": "A#3",
          "ticks": 46200,
          "time": 37.868831,
          "velocity": 0.8267716535433071
        },
        {
          "duration": 0.10737698833332843,
          "durationTicks": 131,
          "midi": 63,
          "name": "D#4",
          "ticks": 46350,
          "time": 37.99178175,
          "velocity": 0.8267716535433071
        },
        {
          "duration": 0.10737698833332843,
          "durationTicks": 131,
          "midi": 67,
          "name": "G4",
          "ticks": 46500,
          "time": 38.1147325,
          "velocity": 0.8267716535433071
        },
        {
          "duration": 0.10737698833333553,
          "durationTicks": 131,
          "midi": 63,
          "name": "D#4",
          "ticks": 46650,
          "time": 38.237683249999996,
          "velocity": 0.8267716535433071
        },
        {
          "duration": 0.10737698833333553,
          "durationTicks": 131,
          "midi": 59,
          "name": "B3",
          "ticks": 46800,
          "time": 38.360634,
          "velocity": 0.8267716535433071
        },
        {
          "duration": 0.10737698833333553,
          "durationTicks": 131,
          "midi": 63,
          "name": "D#4",
          "ticks": 46950,
          "time": 38.48358475,
          "velocity": 0.8267716535433071
        },
        {
          "duration": 0.10737698833333553,
          "durationTicks": 131,
          "midi": 67,
          "name": "G4",
          "ticks": 47100,
          "time": 38.6065355,
          "velocity": 0.8267716535433071
        },
        {
          "duration": 0.10737698833332843,
          "durationTicks": 131,
          "midi": 63,
          "name": "D#4",
          "ticks": 47250,
          "time": 38.72948625,
          "velocity": 0.8267716535433071
        },
        {
          "duration": 0.10737698833332843,
          "durationTicks": 131,
          "midi": 59,
          "name": "B3",
          "ticks": 47400,
          "time": 38.852437,
          "velocity": 0.8267716535433071
        },
        {
          "duration": 0.10737698833333553,
          "durationTicks": 131,
          "midi": 63,
          "name": "D#4",
          "ticks": 47550,
          "time": 38.975387749999996,
          "velocity": 0.8267716535433071
        },
        {
          "duration": 0.10737698833333553,
          "durationTicks": 131,
          "midi": 67,
          "name": "G4",
          "ticks": 47700,
          "time": 39.0983385,
          "velocity": 0.8267716535433071
        },
        {
          "duration": 0.10737698833333553,
          "durationTicks": 131,
          "midi": 63,
          "name": "D#4",
          "ticks": 47850,
          "time": 39.22128925,
          "velocity": 0.8267716535433071
        },
        {
          "duration": 0.10737698833333553,
          "durationTicks": 131,
          "midi": 60,
          "name": "C4",
          "ticks": 48000,
          "time": 39.34424,
          "velocity": 0.7952755905511811
        },
        {
          "duration": 0.10737698833333553,
          "durationTicks": 131,
          "midi": 63,
          "name": "D#4",
          "ticks": 48150,
          "time": 39.46719075,
          "velocity": 0.7952755905511811
        },
        {
          "duration": 0.10737698833332843,
          "durationTicks": 131,
          "midi": 67,
          "name": "G4",
          "ticks": 48300,
          "time": 39.5901415,
          "velocity": 0.7952755905511811
        },
        {
          "duration": 0.10737698833332843,
          "durationTicks": 131,
          "midi": 63,
          "name": "D#4",
          "ticks": 48450,
          "time": 39.71309225,
          "velocity": 0.7952755905511811
        },
        {
          "duration": 0.10737698833333553,
          "durationTicks": 131,
          "midi": 60,
          "name": "C4",
          "ticks": 48600,
          "time": 39.836043,
          "velocity": 0.7952755905511811
        },
        {
          "duration": 0.10737698833333553,
          "durationTicks": 131,
          "midi": 63,
          "name": "D#4",
          "ticks": 48750,
          "time": 39.95899375,
          "velocity": 0.7952755905511811
        },
        {
          "duration": 0.10737698833333553,
          "durationTicks": 131,
          "midi": 67,
          "name": "G4",
          "ticks": 48900,
          "time": 40.0819445,
          "velocity": 0.7952755905511811
        },
        {
          "duration": 0.10737698833333553,
          "durationTicks": 131,
          "midi": 63,
          "name": "D#4",
          "ticks": 49050,
          "time": 40.20489525,
          "velocity": 0.8031496062992126
        },
        {
          "duration": 0.10737698833332843,
          "durationTicks": 131,
          "midi": 60,
          "name": "C4",
          "ticks": 49200,
          "time": 40.327846,
          "velocity": 0.8031496062992126
        },
        {
          "duration": 0.10737698833332843,
          "durationTicks": 131,
          "midi": 63,
          "name": "D#4",
          "ticks": 49350,
          "time": 40.45079675,
          "velocity": 0.8031496062992126
        },
        {
          "duration": 0.10737698833333553,
          "durationTicks": 131,
          "midi": 67,
          "name": "G4",
          "ticks": 49500,
          "time": 40.573747499999996,
          "velocity": 0.8031496062992126
        },
        {
          "duration": 0.10737698833333553,
          "durationTicks": 131,
          "midi": 63,
          "name": "D#4",
          "ticks": 49650,
          "time": 40.69669825,
          "velocity": 0.8031496062992126
        },
        {
          "duration": 0.10737698833333553,
          "durationTicks": 131,
          "midi": 60,
          "name": "C4",
          "ticks": 49800,
          "time": 40.819649,
          "velocity": 0.8031496062992126
        },
        {
          "duration": 0.10737698833333553,
          "durationTicks": 131,
          "midi": 63,
          "name": "D#4",
          "ticks": 49950,
          "time": 40.94259975,
          "velocity": 0.8031496062992126
        },
        {
          "duration": 0.10737698833333553,
          "durationTicks": 131,
          "midi": 67,
          "name": "G4",
          "ticks": 50100,
          "time": 41.0655505,
          "velocity": 0.8031496062992126
        },
        {
          "duration": 0.10737698833332843,
          "durationTicks": 131,
          "midi": 63,
          "name": "D#4",
          "ticks": 50250,
          "time": 41.18850125,
          "velocity": 0.8031496062992126
        },
        {
          "duration": 0.10737698833332843,
          "durationTicks": 131,
          "midi": 60,
          "name": "C4",
          "ticks": 50400,
          "time": 41.311452,
          "velocity": 0.8031496062992126
        },
        {
          "duration": 0.10737698833333553,
          "durationTicks": 131,
          "midi": 63,
          "name": "D#4",
          "ticks": 50550,
          "time": 41.43440275,
          "velocity": 0.8031496062992126
        },
        {
          "duration": 0.10737698833333553,
          "durationTicks": 131,
          "midi": 67,
          "name": "G4",
          "ticks": 50700,
          "time": 41.5573535,
          "velocity": 0.8031496062992126
        },
        {
          "duration": 0.10737698833333553,
          "durationTicks": 131,
          "midi": 63,
          "name": "D#4",
          "ticks": 50850,
          "time": 41.68030425,
          "velocity": 0.8031496062992126
        },
        {
          "duration": 0.10737698833333553,
          "durationTicks": 131,
          "midi": 60,
          "name": "C4",
          "ticks": 51000,
          "time": 41.803255,
          "velocity": 0.8031496062992126
        },
        {
          "duration": 0.10737698833332843,
          "durationTicks": 131,
          "midi": 63,
          "name": "D#4",
          "ticks": 51150,
          "time": 41.92620575,
          "velocity": 0.8031496062992126
        },
        {
          "duration": 0.10737698833332843,
          "durationTicks": 131,
          "midi": 67,
          "name": "G4",
          "ticks": 51300,
          "time": 42.0491565,
          "velocity": 0.8110236220472441
        },
        {
          "duration": 0.10737698833333553,
          "durationTicks": 131,
          "midi": 63,
          "name": "D#4",
          "ticks": 51450,
          "time": 42.172107249999996,
          "velocity": 0.8110236220472441
        },
        {
          "duration": 0.10737698833333553,
          "durationTicks": 131,
          "midi": 60,
          "name": "C4",
          "ticks": 51600,
          "time": 42.295058,
          "velocity": 0.8110236220472441
        },
        {
          "duration": 0.10737698833333553,
          "durationTicks": 131,
          "midi": 63,
          "name": "D#4",
          "ticks": 51750,
          "time": 42.41800875,
          "velocity": 0.8110236220472441
        },
        {
          "duration": 0.10737698833333553,
          "durationTicks": 131,
          "midi": 67,
          "name": "G4",
          "ticks": 51900,
          "time": 42.5409595,
          "velocity": 0.8110236220472441
        },
        {
          "duration": 0.10737698833332843,
          "durationTicks": 131,
          "midi": 63,
          "name": "D#4",
          "ticks": 52050,
          "time": 42.66391025,
          "velocity": 0.8110236220472441
        },
        {
          "duration": 0.10737698833332843,
          "durationTicks": 131,
          "midi": 60,
          "name": "C4",
          "ticks": 52200,
          "time": 42.786861,
          "velocity": 0.8110236220472441
        },
        {
          "duration": 0.10737698833333553,
          "durationTicks": 131,
          "midi": 63,
          "name": "D#4",
          "ticks": 52350,
          "time": 42.909811749999996,
          "velocity": 0.8110236220472441
        },
        {
          "duration": 0.10737698833333553,
          "durationTicks": 131,
          "midi": 67,
          "name": "G4",
          "ticks": 52500,
          "time": 43.0327625,
          "velocity": 0.8110236220472441
        },
        {
          "duration": 0.10737698833333553,
          "durationTicks": 131,
          "midi": 63,
          "name": "D#4",
          "ticks": 52650,
          "time": 43.15571325,
          "velocity": 0.8110236220472441
        },
        {
          "duration": 0.10737698833333553,
          "durationTicks": 131,
          "midi": 56,
          "name": "G#3",
          "ticks": 52800,
          "time": 43.278664,
          "velocity": 0.8110236220472441
        },
        {
          "duration": 0.10737698833333553,
          "durationTicks": 131,
          "midi": 63,
          "name": "D#4",
          "ticks": 52950,
          "time": 43.40161475,
          "velocity": 0.8110236220472441
        },
        {
          "duration": 0.10737698833332843,
          "durationTicks": 131,
          "midi": 67,
          "name": "G4",
          "ticks": 53100,
          "time": 43.5245655,
          "velocity": 0.8110236220472441
        },
        {
          "duration": 0.10737698833332843,
          "durationTicks": 131,
          "midi": 63,
          "name": "D#4",
          "ticks": 53250,
          "time": 43.64751625,
          "velocity": 0.8110236220472441
        },
        {
          "duration": 0.10737698833333553,
          "durationTicks": 131,
          "midi": 56,
          "name": "G#3",
          "ticks": 53400,
          "time": 43.770467,
          "velocity": 0.8110236220472441
        },
        {
          "duration": 0.10737698833333553,
          "durationTicks": 131,
          "midi": 63,
          "name": "D#4",
          "ticks": 53550,
          "time": 43.89341775,
          "velocity": 0.8188976377952756
        },
        {
          "duration": 0.10737698833333553,
          "durationTicks": 131,
          "midi": 67,
          "name": "G4",
          "ticks": 53700,
          "time": 44.0163685,
          "velocity": 0.8188976377952756
        },
        {
          "duration": 0.10737698833333553,
          "durationTicks": 131,
          "midi": 63,
          "name": "D#4",
          "ticks": 53850,
          "time": 44.13931925,
          "velocity": 0.8188976377952756
        },
        {
          "duration": 0.10737698833332843,
          "durationTicks": 131,
          "midi": 56,
          "name": "G#3",
          "ticks": 54000,
          "time": 44.26227,
          "velocity": 0.8188976377952756
        },
        {
          "duration": 0.10737698833332843,
          "durationTicks": 131,
          "midi": 63,
          "name": "D#4",
          "ticks": 54150,
          "time": 44.38522075,
          "velocity": 0.8188976377952756
        },
        {
          "duration": 0.10737698833333553,
          "durationTicks": 131,
          "midi": 67,
          "name": "G4",
          "ticks": 54300,
          "time": 44.508171499999996,
          "velocity": 0.8188976377952756
        },
        {
          "duration": 0.10737698833333553,
          "durationTicks": 131,
          "midi": 63,
          "name": "D#4",
          "ticks": 54450,
          "time": 44.63112225,
          "velocity": 0.8188976377952756
        },
        {
          "duration": 0.10737698833333553,
          "durationTicks": 131,
          "midi": 56,
          "name": "G#3",
          "ticks": 54600,
          "time": 44.754073,
          "velocity": 0.8188976377952756
        },
        {
          "duration": 0.10737698833333553,
          "durationTicks": 131,
          "midi": 63,
          "name": "D#4",
          "ticks": 54750,
          "time": 44.87702375,
          "velocity": 0.8188976377952756
        },
        {
          "duration": 0.10737698833333553,
          "durationTicks": 131,
          "midi": 67,
          "name": "G4",
          "ticks": 54900,
          "time": 44.9999745,
          "velocity": 0.8188976377952756
        },
        {
          "duration": 0.10737698833332843,
          "durationTicks": 131,
          "midi": 63,
          "name": "D#4",
          "ticks": 55050,
          "time": 45.12292525,
          "velocity": 0.8188976377952756
        },
        {
          "duration": 0.10737698833333553,
          "durationTicks": 131,
          "midi": 58,
          "name": "A#3",
          "ticks": 55200,
          "time": 45.245875999999996,
          "velocity": 0.8188976377952756
        },
        {
          "duration": 0.10737698833333553,
          "durationTicks": 131,
          "midi": 63,
          "name": "D#4",
          "ticks": 55350,
          "time": 45.36882675,
          "velocity": 0.8188976377952756
        },
        {
          "duration": 0.10737698833333553,
          "durationTicks": 131,
          "midi": 67,
          "name": "G4",
          "ticks": 55500,
          "time": 45.4917775,
          "velocity": 0.8188976377952756
        },
        {
          "duration": 0.10737698833333553,
          "durationTicks": 131,
          "midi": 63,
          "name": "D#4",
          "ticks": 55650,
          "time": 45.61472825,
          "velocity": 0.8188976377952756
        },
        {
          "duration": 0.10737698833333553,
          "durationTicks": 131,
          "midi": 58,
          "name": "A#3",
          "ticks": 55800,
          "time": 45.737679,
          "velocity": 0.8267716535433071
        },
        {
          "duration": 0.10737698833332843,
          "durationTicks": 131,
          "midi": 63,
          "name": "D#4",
          "ticks": 55950,
          "time": 45.86062975,
          "velocity": 0.8267716535433071
        },
        {
          "duration": 0.10737698833332843,
          "durationTicks": 131,
          "midi": 67,
          "name": "G4",
          "ticks": 56100,
          "time": 45.9835805,
          "velocity": 0.8267716535433071
        },
        {
          "duration": 0.10737698833333553,
          "durationTicks": 131,
          "midi": 63,
          "name": "D#4",
          "ticks": 56250,
          "time": 46.106531249999996,
          "velocity": 0.8267716535433071
        },
        {
          "duration": 0.10737698833333553,
          "durationTicks": 131,
          "midi": 59,
          "name": "B3",
          "ticks": 56400,
          "time": 46.229482,
          "velocity": 0.8267716535433071
        },
        {
          "duration": 0.10737698833333553,
          "durationTicks": 131,
          "midi": 63,
          "name": "D#4",
          "ticks": 56550,
          "time": 46.35243275,
          "velocity": 0.8267716535433071
        },
        {
          "duration": 0.10737698833333553,
          "durationTicks": 131,
          "midi": 67,
          "name": "G4",
          "ticks": 56700,
          "time": 46.4753835,
          "velocity": 0.8267716535433071
        },
        {
          "duration": 0.10737698833332843,
          "durationTicks": 131,
          "midi": 63,
          "name": "D#4",
          "ticks": 56850,
          "time": 46.59833425,
          "velocity": 0.8267716535433071
        },
        {
          "duration": 0.10737698833332843,
          "durationTicks": 131,
          "midi": 59,
          "name": "B3",
          "ticks": 57000,
          "time": 46.721285,
          "velocity": 0.8267716535433071
        },
        {
          "duration": 0.10737698833333553,
          "durationTicks": 131,
          "midi": 63,
          "name": "D#4",
          "ticks": 57150,
          "time": 46.844235749999996,
          "velocity": 0.8267716535433071
        },
        {
          "duration": 0.10737698833333553,
          "durationTicks": 131,
          "midi": 67,
          "name": "G4",
          "ticks": 57300,
          "time": 46.9671865,
          "velocity": 0.8267716535433071
        },
        {
          "duration": 0.10737698833333553,
          "durationTicks": 131,
          "midi": 63,
          "name": "D#4",
          "ticks": 57450,
          "time": 47.09013725,
          "velocity": 0.8267716535433071
        },
        {
          "duration": 0.10737698833333553,
          "durationTicks": 131,
          "midi": 60,
          "name": "C4",
          "ticks": 57600,
          "time": 47.213088,
          "velocity": 0.7952755905511811
        },
        {
          "duration": 0.10737698833333553,
          "durationTicks": 131,
          "midi": 63,
          "name": "D#4",
          "ticks": 57750,
          "time": 47.33603875,
          "velocity": 0.7952755905511811
        },
        {
          "duration": 0.10737698833332843,
          "durationTicks": 131,
          "midi": 67,
          "name": "G4",
          "ticks": 57900,
          "time": 47.4589895,
          "velocity": 0.7952755905511811
        },
        {
          "duration": 0.10737698833332843,
          "durationTicks": 131,
          "midi": 63,
          "name": "D#4",
          "ticks": 58050,
          "time": 47.58194025,
          "velocity": 0.7952755905511811
        },
        {
          "duration": 0.10737698833333553,
          "durationTicks": 131,
          "midi": 60,
          "name": "C4",
          "ticks": 58200,
          "time": 47.704890999999996,
          "velocity": 0.7952755905511811
        },
        {
          "duration": 0.10737698833333553,
          "durationTicks": 131,
          "midi": 63,
          "name": "D#4",
          "ticks": 58350,
          "time": 47.82784175,
          "velocity": 0.7952755905511811
        },
        {
          "duration": 0.10737698833333553,
          "durationTicks": 131,
          "midi": 67,
          "name": "G4",
          "ticks": 58500,
          "time": 47.9507925,
          "velocity": 0.7952755905511811
        },
        {
          "duration": 0.10737698833333553,
          "durationTicks": 131,
          "midi": 63,
          "name": "D#4",
          "ticks": 58650,
          "time": 48.07374325,
          "velocity": 0.8031496062992126
        },
        {
          "duration": 0.10737698833332843,
          "durationTicks": 131,
          "midi": 60,
          "name": "C4",
          "ticks": 58800,
          "time": 48.196694,
          "velocity": 0.8031496062992126
        },
        {
          "duration": 0.10737698833332843,
          "durationTicks": 131,
          "midi": 63,
          "name": "D#4",
          "ticks": 58950,
          "time": 48.31964475,
          "velocity": 0.8031496062992126
        },
        {
          "duration": 0.10737698833333553,
          "durationTicks": 131,
          "midi": 67,
          "name": "G4",
          "ticks": 59100,
          "time": 48.442595499999996,
          "velocity": 0.8031496062992126
        },
        {
          "duration": 0.10737698833333553,
          "durationTicks": 131,
          "midi": 63,
          "name": "D#4",
          "ticks": 59250,
          "time": 48.56554625,
          "velocity": 0.8031496062992126
        },
        {
          "duration": 0.10737698833333553,
          "durationTicks": 131,
          "midi": 60,
          "name": "C4",
          "ticks": 59400,
          "time": 48.688497,
          "velocity": 0.8031496062992126
        },
        {
          "duration": 0.10737698833333553,
          "durationTicks": 131,
          "midi": 63,
          "name": "D#4",
          "ticks": 59550,
          "time": 48.81144775,
          "velocity": 0.8031496062992126
        },
        {
          "duration": 0.10737698833333553,
          "durationTicks": 131,
          "midi": 67,
          "name": "G4",
          "ticks": 59700,
          "time": 48.9343985,
          "velocity": 0.8031496062992126
        },
        {
          "duration": 0.10737698833332843,
          "durationTicks": 131,
          "midi": 63,
          "name": "D#4",
          "ticks": 59850,
          "time": 49.05734925,
          "velocity": 0.8031496062992126
        },
        {
          "duration": 0.10737698833332843,
          "durationTicks": 131,
          "midi": 60,
          "name": "C4",
          "ticks": 60000,
          "time": 49.1803,
          "velocity": 0.8031496062992126
        },
        {
          "duration": 0.10737698833333553,
          "durationTicks": 131,
          "midi": 63,
          "name": "D#4",
          "ticks": 60150,
          "time": 49.30325075,
          "velocity": 0.8031496062992126
        },
        {
          "duration": 0.10737698833333553,
          "durationTicks": 131,
          "midi": 67,
          "name": "G4",
          "ticks": 60300,
          "time": 49.4262015,
          "velocity": 0.8031496062992126
        },
        {
          "duration": 0.10737698833333553,
          "durationTicks": 131,
          "midi": 63,
          "name": "D#4",
          "ticks": 60450,
          "time": 49.54915225,
          "velocity": 0.8031496062992126
        },
        {
          "duration": 0.10737698833333553,
          "durationTicks": 131,
          "midi": 60,
          "name": "C4",
          "ticks": 60600,
          "time": 49.672103,
          "velocity": 0.8031496062992126
        },
        {
          "duration": 0.10737698833332843,
          "durationTicks": 131,
          "midi": 63,
          "name": "D#4",
          "ticks": 60750,
          "time": 49.79505375,
          "velocity": 0.8031496062992126
        },
        {
          "duration": 0.10737698833332843,
          "durationTicks": 131,
          "midi": 67,
          "name": "G4",
          "ticks": 60900,
          "time": 49.9180045,
          "velocity": 0.8110236220472441
        },
        {
          "duration": 0.10737698833333553,
          "durationTicks": 131,
          "midi": 63,
          "name": "D#4",
          "ticks": 61050,
          "time": 50.040955249999996,
          "velocity": 0.8110236220472441
        },
        {
          "duration": 0.10737698833333553,
          "durationTicks": 131,
          "midi": 60,
          "name": "C4",
          "ticks": 61200,
          "time": 50.163906,
          "velocity": 0.8110236220472441
        },
        {
          "duration": 0.10737698833333553,
          "durationTicks": 131,
          "midi": 63,
          "name": "D#4",
          "ticks": 61350,
          "time": 50.28685675,
          "velocity": 0.8110236220472441
        },
        {
          "duration": 0.10737698833333553,
          "durationTicks": 131,
          "midi": 67,
          "name": "G4",
          "ticks": 61500,
          "time": 50.4098075,
          "velocity": 0.8110236220472441
        },
        {
          "duration": 0.10737698833332843,
          "durationTicks": 131,
          "midi": 63,
          "name": "D#4",
          "ticks": 61650,
          "time": 50.53275825,
          "velocity": 0.8110236220472441
        },
        {
          "duration": 0.10737698833332843,
          "durationTicks": 131,
          "midi": 60,
          "name": "C4",
          "ticks": 61800,
          "time": 50.655709,
          "velocity": 0.8110236220472441
        },
        {
          "duration": 0.10737698833333553,
          "durationTicks": 131,
          "midi": 63,
          "name": "D#4",
          "ticks": 61950,
          "time": 50.778659749999996,
          "velocity": 0.8110236220472441
        },
        {
          "duration": 0.10737698833333553,
          "durationTicks": 131,
          "midi": 67,
          "name": "G4",
          "ticks": 62100,
          "time": 50.9016105,
          "velocity": 0.8110236220472441
        },
        {
          "duration": 0.10737698833333553,
          "durationTicks": 131,
          "midi": 63,
          "name": "D#4",
          "ticks": 62250,
          "time": 51.02456125,
          "velocity": 0.8110236220472441
        },
        {
          "duration": 0.10737698833333553,
          "durationTicks": 131,
          "midi": 56,
          "name": "G#3",
          "ticks": 62400,
          "time": 51.147512,
          "velocity": 0.8110236220472441
        },
        {
          "duration": 0.10737698833333553,
          "durationTicks": 131,
          "midi": 63,
          "name": "D#4",
          "ticks": 62550,
          "time": 51.27046275,
          "velocity": 0.8110236220472441
        },
        {
          "duration": 0.10737698833332843,
          "durationTicks": 131,
          "midi": 67,
          "name": "G4",
          "ticks": 62700,
          "time": 51.3934135,
          "velocity": 0.8110236220472441
        },
        {
          "duration": 0.10737698833332843,
          "durationTicks": 131,
          "midi": 63,
          "name": "D#4",
          "ticks": 62850,
          "time": 51.51636425,
          "velocity": 0.8110236220472441
        },
        {
          "duration": 0.10737698833333553,
          "durationTicks": 131,
          "midi": 56,
          "name": "G#3",
          "ticks": 63000,
          "time": 51.639314999999996,
          "velocity": 0.8110236220472441
        },
        {
          "duration": 0.10737698833333553,
          "durationTicks": 131,
          "midi": 63,
          "name": "D#4",
          "ticks": 63150,
          "time": 51.76226575,
          "velocity": 0.8188976377952756
        },
        {
          "duration": 0.10737698833333553,
          "durationTicks": 131,
          "midi": 67,
          "name": "G4",
          "ticks": 63300,
          "time": 51.8852165,
          "velocity": 0.8188976377952756
        },
        {
          "duration": 0.10737698833333553,
          "durationTicks": 131,
          "midi": 63,
          "name": "D#4",
          "ticks": 63450,
          "time": 52.00816725,
          "velocity": 0.8188976377952756
        },
        {
          "duration": 0.10737698833332843,
          "durationTicks": 131,
          "midi": 56,
          "name": "G#3",
          "ticks": 63600,
          "time": 52.131118,
          "velocity": 0.8188976377952756
        },
        {
          "duration": 0.10737698833332843,
          "durationTicks": 131,
          "midi": 63,
          "name": "D#4",
          "ticks": 63750,
          "time": 52.25406875,
          "velocity": 0.8188976377952756
        },
        {
          "duration": 0.10737698833333553,
          "durationTicks": 131,
          "midi": 67,
          "name": "G4",
          "ticks": 63900,
          "time": 52.377019499999996,
          "velocity": 0.8188976377952756
        },
        {
          "duration": 0.10737698833333553,
          "durationTicks": 131,
          "midi": 63,
          "name": "D#4",
          "ticks": 64050,
          "time": 52.49997025,
          "velocity": 0.8188976377952756
        },
        {
          "duration": 0.10737698833333553,
          "durationTicks": 131,
          "midi": 56,
          "name": "G#3",
          "ticks": 64200,
          "time": 52.622921,
          "velocity": 0.8188976377952756
        },
        {
          "duration": 0.10737698833333553,
          "durationTicks": 131,
          "midi": 63,
          "name": "D#4",
          "ticks": 64350,
          "time": 52.74587175,
          "velocity": 0.8188976377952756
        },
        {
          "duration": 0.10737698833333553,
          "durationTicks": 131,
          "midi": 67,
          "name": "G4",
          "ticks": 64500,
          "time": 52.8688225,
          "velocity": 0.8188976377952756
        },
        {
          "duration": 0.10737698833332843,
          "durationTicks": 131,
          "midi": 63,
          "name": "D#4",
          "ticks": 64650,
          "time": 52.99177325,
          "velocity": 0.8188976377952756
        },
        {
          "duration": 0.10737698833333553,
          "durationTicks": 131,
          "midi": 58,
          "name": "A#3",
          "ticks": 64800,
          "time": 53.114723999999995,
          "velocity": 0.8188976377952756
        },
        {
          "duration": 0.10737698833333553,
          "durationTicks": 131,
          "midi": 63,
          "name": "D#4",
          "ticks": 64950,
          "time": 53.23767475,
          "velocity": 0.8188976377952756
        },
        {
          "duration": 0.10737698833333553,
          "durationTicks": 131,
          "midi": 67,
          "name": "G4",
          "ticks": 65100,
          "time": 53.3606255,
          "velocity": 0.8188976377952756
        },
        {
          "duration": 0.10737698833333553,
          "durationTicks": 131,
          "midi": 63,
          "name": "D#4",
          "ticks": 65250,
          "time": 53.48357625,
          "velocity": 0.8188976377952756
        },
        {
          "duration": 0.10737698833333553,
          "durationTicks": 131,
          "midi": 58,
          "name": "A#3",
          "ticks": 65400,
          "time": 53.606527,
          "velocity": 0.8267716535433071
        },
        {
          "duration": 0.10737698833332843,
          "durationTicks": 131,
          "midi": 63,
          "name": "D#4",
          "ticks": 65550,
          "time": 53.72947775,
          "velocity": 0.8267716535433071
        },
        {
          "duration": 0.10737698833332843,
          "durationTicks": 131,
          "midi": 67,
          "name": "G4",
          "ticks": 65700,
          "time": 53.8524285,
          "velocity": 0.8267716535433071
        },
        {
          "duration": 0.10737698833333553,
          "durationTicks": 131,
          "midi": 63,
          "name": "D#4",
          "ticks": 65850,
          "time": 53.975379249999996,
          "velocity": 0.8267716535433071
        },
        {
          "duration": 0.10737698833333553,
          "durationTicks": 131,
          "midi": 59,
          "name": "B3",
          "ticks": 66000,
          "time": 54.09833,
          "velocity": 0.8267716535433071
        },
        {
          "duration": 0.10737698833333553,
          "durationTicks": 131,
          "midi": 63,
          "name": "D#4",
          "ticks": 66150,
          "time": 54.22128075,
          "velocity": 0.8267716535433071
        },
        {
          "duration": 0.10737698833333553,
          "durationTicks": 131,
          "midi": 67,
          "name": "G4",
          "ticks": 66300,
          "time": 54.3442315,
          "velocity": 0.8267716535433071
        },
        {
          "duration": 0.10737698833332843,
          "durationTicks": 131,
          "midi": 63,
          "name": "D#4",
          "ticks": 66450,
          "time": 54.46718225,
          "velocity": 0.8267716535433071
        },
        {
          "duration": 0.10737698833332843,
          "durationTicks": 131,
          "midi": 59,
          "name": "B3",
          "ticks": 66600,
          "time": 54.590133,
          "velocity": 0.8267716535433071
        },
        {
          "duration": 0.10737698833333553,
          "durationTicks": 131,
          "midi": 63,
          "name": "D#4",
          "ticks": 66750,
          "time": 54.713083749999996,
          "velocity": 0.8267716535433071
        },
        {
          "duration": 0.10737698833333553,
          "durationTicks": 131,
          "midi": 67,
          "name": "G4",
          "ticks": 66900,
          "time": 54.8360345,
          "velocity": 0.8267716535433071
        },
        {
          "duration": 0.10737698833333553,
          "durationTicks": 131,
          "midi": 63,
          "name": "D#4",
          "ticks": 67050,
          "time": 54.95898525,
          "velocity": 0.8267716535433071
        },
        {
          "duration": 0.10737698833333553,
          "durationTicks": 131,
          "midi": 60,
          "name": "C4",
          "ticks": 67200,
          "time": 55.081936,
          "velocity": 0.7952755905511811
        },
        {
          "duration": 0.10737698833333553,
          "durationTicks": 131,
          "midi": 63,
          "name": "D#4",
          "ticks": 67350,
          "time": 55.20488675,
          "velocity": 0.7952755905511811
        },
        {
          "duration": 0.10737698833332843,
          "durationTicks": 131,
          "midi": 67,
          "name": "G4",
          "ticks": 67500,
          "time": 55.3278375,
          "velocity": 0.7952755905511811
        },
        {
          "duration": 0.10737698833332843,
          "durationTicks": 131,
          "midi": 63,
          "name": "D#4",
          "ticks": 67650,
          "time": 55.45078825,
          "velocity": 0.7952755905511811
        },
        {
          "duration": 0.10737698833333553,
          "durationTicks": 131,
          "midi": 60,
          "name": "C4",
          "ticks": 67800,
          "time": 55.573738999999996,
          "velocity": 0.7952755905511811
        },
        {
          "duration": 0.10737698833333553,
          "durationTicks": 131,
          "midi": 63,
          "name": "D#4",
          "ticks": 67950,
          "time": 55.69668975,
          "velocity": 0.7952755905511811
        },
        {
          "duration": 0.10737698833333553,
          "durationTicks": 131,
          "midi": 67,
          "name": "G4",
          "ticks": 68100,
          "time": 55.8196405,
          "velocity": 0.7952755905511811
        },
        {
          "duration": 0.10737698833333553,
          "durationTicks": 131,
          "midi": 63,
          "name": "D#4",
          "ticks": 68250,
          "time": 55.94259125,
          "velocity": 0.8031496062992126
        },
        {
          "duration": 0.10737698833332843,
          "durationTicks": 131,
          "midi": 60,
          "name": "C4",
          "ticks": 68400,
          "time": 56.065542,
          "velocity": 0.8031496062992126
        },
        {
          "duration": 0.10737698833332843,
          "durationTicks": 131,
          "midi": 63,
          "name": "D#4",
          "ticks": 68550,
          "time": 56.18849275,
          "velocity": 0.8031496062992126
        },
        {
          "duration": 0.10737698833333553,
          "durationTicks": 131,
          "midi": 67,
          "name": "G4",
          "ticks": 68700,
          "time": 56.311443499999996,
          "velocity": 0.8031496062992126
        },
        {
          "duration": 0.10737698833333553,
          "durationTicks": 131,
          "midi": 63,
          "name": "D#4",
          "ticks": 68850,
          "time": 56.43439425,
          "velocity": 0.8031496062992126
        },
        {
          "duration": 0.10737698833333553,
          "durationTicks": 131,
          "midi": 60,
          "name": "C4",
          "ticks": 69000,
          "time": 56.557345,
          "velocity": 0.8031496062992126
        },
        {
          "duration": 0.10737698833333553,
          "durationTicks": 131,
          "midi": 63,
          "name": "D#4",
          "ticks": 69150,
          "time": 56.68029575,
          "velocity": 0.8031496062992126
        },
        {
          "duration": 0.10737698833333553,
          "durationTicks": 131,
          "midi": 67,
          "name": "G4",
          "ticks": 69300,
          "time": 56.8032465,
          "velocity": 0.8031496062992126
        },
        {
          "duration": 0.10737698833332843,
          "durationTicks": 131,
          "midi": 63,
          "name": "D#4",
          "ticks": 69450,
          "time": 56.92619725,
          "velocity": 0.8031496062992126
        },
        {
          "duration": 0.10737698833332843,
          "durationTicks": 131,
          "midi": 60,
          "name": "C4",
          "ticks": 69600,
          "time": 57.049148,
          "velocity": 0.8031496062992126
        },
        {
          "duration": 0.10737698833333553,
          "durationTicks": 131,
          "midi": 63,
          "name": "D#4",
          "ticks": 69750,
          "time": 57.172098749999996,
          "velocity": 0.8031496062992126
        },
        {
          "duration": 0.10737698833333553,
          "durationTicks": 131,
          "midi": 67,
          "name": "G4",
          "ticks": 69900,
          "time": 57.2950495,
          "velocity": 0.8031496062992126
        },
        {
          "duration": 0.10737698833333553,
          "durationTicks": 131,
          "midi": 63,
          "name": "D#4",
          "ticks": 70050,
          "time": 57.41800025,
          "velocity": 0.8031496062992126
        },
        {
          "duration": 0.10737698833333553,
          "durationTicks": 131,
          "midi": 60,
          "name": "C4",
          "ticks": 70200,
          "time": 57.540951,
          "velocity": 0.8031496062992126
        },
        {
          "duration": 0.10737698833332843,
          "durationTicks": 131,
          "midi": 63,
          "name": "D#4",
          "ticks": 70350,
          "time": 57.66390175,
          "velocity": 0.8031496062992126
        },
        {
          "duration": 0.10737698833332843,
          "durationTicks": 131,
          "midi": 67,
          "name": "G4",
          "ticks": 70500,
          "time": 57.7868525,
          "velocity": 0.8110236220472441
        },
        {
          "duration": 0.10737698833333553,
          "durationTicks": 131,
          "midi": 63,
          "name": "D#4",
          "ticks": 70650,
          "time": 57.909803249999996,
          "velocity": 0.8110236220472441
        },
        {
          "duration": 0.10737698833333553,
          "durationTicks": 131,
          "midi": 60,
          "name": "C4",
          "ticks": 70800,
          "time": 58.032754,
          "velocity": 0.8110236220472441
        },
        {
          "duration": 0.10737698833333553,
          "durationTicks": 131,
          "midi": 63,
          "name": "D#4",
          "ticks": 70950,
          "time": 58.15570475,
          "velocity": 0.8110236220472441
        },
        {
          "duration": 0.10737698833333553,
          "durationTicks": 131,
          "midi": 67,
          "name": "G4",
          "ticks": 71100,
          "time": 58.2786555,
          "velocity": 0.8110236220472441
        },
        {
          "duration": 0.10737698833332843,
          "durationTicks": 131,
          "midi": 63,
          "name": "D#4",
          "ticks": 71250,
          "time": 58.40160625,
          "velocity": 0.8110236220472441
        },
        {
          "duration": 0.10737698833332843,
          "durationTicks": 131,
          "midi": 60,
          "name": "C4",
          "ticks": 71400,
          "time": 58.524557,
          "velocity": 0.8110236220472441
        },
        {
          "duration": 0.10737698833333553,
          "durationTicks": 131,
          "midi": 63,
          "name": "D#4",
          "ticks": 71550,
          "time": 58.647507749999995,
          "velocity": 0.8110236220472441
        },
        {
          "duration": 0.10737698833333553,
          "durationTicks": 131,
          "midi": 67,
          "name": "G4",
          "ticks": 71700,
          "time": 58.7704585,
          "velocity": 0.8110236220472441
        },
        {
          "duration": 0.10737698833333553,
          "durationTicks": 131,
          "midi": 63,
          "name": "D#4",
          "ticks": 71850,
          "time": 58.89340925,
          "velocity": 0.8110236220472441
        },
        {
          "duration": 0.10737698833333553,
          "durationTicks": 131,
          "midi": 56,
          "name": "G#3",
          "ticks": 72000,
          "time": 59.01636,
          "velocity": 0.8110236220472441
        },
        {
          "duration": 0.10737698833333553,
          "durationTicks": 131,
          "midi": 63,
          "name": "D#4",
          "ticks": 72150,
          "time": 59.13931075,
          "velocity": 0.8110236220472441
        },
        {
          "duration": 0.10737698833332843,
          "durationTicks": 131,
          "midi": 67,
          "name": "G4",
          "ticks": 72300,
          "time": 59.2622615,
          "velocity": 0.8110236220472441
        },
        {
          "duration": 0.10737698833332843,
          "durationTicks": 131,
          "midi": 63,
          "name": "D#4",
          "ticks": 72450,
          "time": 59.38521225,
          "velocity": 0.8110236220472441
        },
        {
          "duration": 0.10737698833333553,
          "durationTicks": 131,
          "midi": 56,
          "name": "G#3",
          "ticks": 72600,
          "time": 59.508162999999996,
          "velocity": 0.8110236220472441
        },
        {
          "duration": 0.10737698833333553,
          "durationTicks": 131,
          "midi": 63,
          "name": "D#4",
          "ticks": 72750,
          "time": 59.63111375,
          "velocity": 0.8188976377952756
        },
        {
          "duration": 0.10737698833333553,
          "durationTicks": 131,
          "midi": 67,
          "name": "G4",
          "ticks": 72900,
          "time": 59.7540645,
          "velocity": 0.8188976377952756
        },
        {
          "duration": 0.10737698833333553,
          "durationTicks": 131,
          "midi": 63,
          "name": "D#4",
          "ticks": 73050,
          "time": 59.87701525,
          "velocity": 0.8188976377952756
        },
        {
          "duration": 0.10737698833332843,
          "durationTicks": 131,
          "midi": 56,
          "name": "G#3",
          "ticks": 73200,
          "time": 59.999966,
          "velocity": 0.8188976377952756
        },
        {
          "duration": 0.10737698833332843,
          "durationTicks": 131,
          "midi": 63,
          "name": "D#4",
          "ticks": 73350,
          "time": 60.12291675,
          "velocity": 0.8188976377952756
        },
        {
          "duration": 0.10737698833333553,
          "durationTicks": 131,
          "midi": 67,
          "name": "G4",
          "ticks": 73500,
          "time": 60.245867499999996,
          "velocity": 0.8188976377952756
        },
        {
          "duration": 0.10737698833333553,
          "durationTicks": 131,
          "midi": 63,
          "name": "D#4",
          "ticks": 73650,
          "time": 60.36881825,
          "velocity": 0.8188976377952756
        },
        {
          "duration": 0.10737698833333553,
          "durationTicks": 131,
          "midi": 56,
          "name": "G#3",
          "ticks": 73800,
          "time": 60.491769,
          "velocity": 0.8188976377952756
        },
        {
          "duration": 0.10737698833333553,
          "durationTicks": 131,
          "midi": 63,
          "name": "D#4",
          "ticks": 73950,
          "time": 60.61471975,
          "velocity": 0.8188976377952756
        },
        {
          "duration": 0.10737698833333553,
          "durationTicks": 131,
          "midi": 67,
          "name": "G4",
          "ticks": 74100,
          "time": 60.7376705,
          "velocity": 0.8188976377952756
        },
        {
          "duration": 0.10737698833332843,
          "durationTicks": 131,
          "midi": 63,
          "name": "D#4",
          "ticks": 74250,
          "time": 60.86062125,
          "velocity": 0.8188976377952756
        },
        {
          "duration": 0.10737698833333553,
          "durationTicks": 131,
          "midi": 58,
          "name": "A#3",
          "ticks": 74400,
          "time": 60.983571999999995,
          "velocity": 0.8188976377952756
        },
        {
          "duration": 0.10737698833333553,
          "durationTicks": 131,
          "midi": 63,
          "name": "D#4",
          "ticks": 74550,
          "time": 61.106522749999996,
          "velocity": 0.8188976377952756
        },
        {
          "duration": 0.10737698833333553,
          "durationTicks": 131,
          "midi": 67,
          "name": "G4",
          "ticks": 74700,
          "time": 61.2294735,
          "velocity": 0.8188976377952756
        },
        {
          "duration": 0.10737698833333553,
          "durationTicks": 131,
          "midi": 63,
          "name": "D#4",
          "ticks": 74850,
          "time": 61.35242425,
          "velocity": 0.8188976377952756
        },
        {
          "duration": 0.10737698833333553,
          "durationTicks": 131,
          "midi": 58,
          "name": "A#3",
          "ticks": 75000,
          "time": 61.475375,
          "velocity": 0.8267716535433071
        },
        {
          "duration": 0.10737698833332843,
          "durationTicks": 131,
          "midi": 63,
          "name": "D#4",
          "ticks": 75150,
          "time": 61.59832575,
          "velocity": 0.8267716535433071
        },
        {
          "duration": 0.10737698833332843,
          "durationTicks": 131,
          "midi": 67,
          "name": "G4",
          "ticks": 75300,
          "time": 61.7212765,
          "velocity": 0.8267716535433071
        },
        {
          "duration": 0.10737698833333553,
          "durationTicks": 131,
          "midi": 63,
          "name": "D#4",
          "ticks": 75450,
          "time": 61.844227249999996,
          "velocity": 0.8267716535433071
        },
        {
          "duration": 0.10737698833333553,
          "durationTicks": 131,
          "midi": 59,
          "name": "B3",
          "ticks": 75600,
          "time": 61.967178,
          "velocity": 0.8267716535433071
        },
        {
          "duration": 0.10737698833333553,
          "durationTicks": 131,
          "midi": 63,
          "name": "D#4",
          "ticks": 75750,
          "time": 62.09012875,
          "velocity": 0.8267716535433071
        },
        {
          "duration": 0.10737698833333553,
          "durationTicks": 131,
          "midi": 67,
          "name": "G4",
          "ticks": 75900,
          "time": 62.2130795,
          "velocity": 0.8267716535433071
        },
        {
          "duration": 0.10737698833332843,
          "durationTicks": 131,
          "midi": 63,
          "name": "D#4",
          "ticks": 76050,
          "time": 62.33603025,
          "velocity": 0.8267716535433071
        },
        {
          "duration": 0.10737698833332843,
          "durationTicks": 131,
          "midi": 59,
          "name": "B3",
          "ticks": 76200,
          "time": 62.458981,
          "velocity": 0.8267716535433071
        },
        {
          "duration": 0.10737698833333553,
          "durationTicks": 131,
          "midi": 63,
          "name": "D#4",
          "ticks": 76350,
          "time": 62.581931749999995,
          "velocity": 0.8267716535433071
        },
        {
          "duration": 0.10737698833333553,
          "durationTicks": 131,
          "midi": 67,
          "name": "G4",
          "ticks": 76500,
          "time": 62.7048825,
          "velocity": 0.8267716535433071
        },
        {
          "duration": 0.10737698833333553,
          "durationTicks": 131,
          "midi": 63,
          "name": "D#4",
          "ticks": 76650,
          "time": 62.82783325,
          "velocity": 0.8267716535433071
        },
        {
          "duration": 0.10737698833332843,
          "durationTicks": 131,
          "midi": 56,
          "name": "G#3",
          "ticks": 96000,
          "time": 78.68848,
          "velocity": 0.8188976377952756
        },
        {
          "duration": 0.10737698833332843,
          "durationTicks": 131,
          "midi": 63,
          "name": "D#4",
          "ticks": 96150,
          "time": 78.81143075,
          "velocity": 0.8188976377952756
        },
        {
          "duration": 0.10737698833332843,
          "durationTicks": 131,
          "midi": 67,
          "name": "G4",
          "ticks": 96300,
          "time": 78.9343815,
          "velocity": 0.8188976377952756
        },
        {
          "duration": 0.10737698833332843,
          "durationTicks": 131,
          "midi": 63,
          "name": "D#4",
          "ticks": 96450,
          "time": 79.05733225,
          "velocity": 0.8188976377952756
        },
        {
          "duration": 0.10737698833332843,
          "durationTicks": 131,
          "midi": 56,
          "name": "G#3",
          "ticks": 96600,
          "time": 79.180283,
          "velocity": 0.8188976377952756
        },
        {
          "duration": 0.10737698833332843,
          "durationTicks": 131,
          "midi": 63,
          "name": "D#4",
          "ticks": 96750,
          "time": 79.30323375,
          "velocity": 0.8188976377952756
        },
        {
          "duration": 0.10737698833332843,
          "durationTicks": 131,
          "midi": 67,
          "name": "G4",
          "ticks": 96900,
          "time": 79.4261845,
          "velocity": 0.8188976377952756
        },
        {
          "duration": 0.10737698833334264,
          "durationTicks": 131,
          "midi": 63,
          "name": "D#4",
          "ticks": 97050,
          "time": 79.54913524999999,
          "velocity": 0.8188976377952756
        },
        {
          "duration": 0.10737698833334264,
          "durationTicks": 131,
          "midi": 56,
          "name": "G#3",
          "ticks": 97200,
          "time": 79.672086,
          "velocity": 0.8188976377952756
        },
        {
          "duration": 0.10737698833334264,
          "durationTicks": 131,
          "midi": 63,
          "name": "D#4",
          "ticks": 97350,
          "time": 79.79503675,
          "velocity": 0.8188976377952756
        },
        {
          "duration": 0.10737698833334264,
          "durationTicks": 131,
          "midi": 67,
          "name": "G4",
          "ticks": 97500,
          "time": 79.9179875,
          "velocity": 0.8188976377952756
        },
        {
          "duration": 0.10737698833332843,
          "durationTicks": 131,
          "midi": 63,
          "name": "D#4",
          "ticks": 97650,
          "time": 80.04093825,
          "velocity": 0.8188976377952756
        },
        {
          "duration": 0.10737698833332843,
          "durationTicks": 131,
          "midi": 56,
          "name": "G#3",
          "ticks": 97800,
          "time": 80.163889,
          "velocity": 0.8188976377952756
        },
        {
          "duration": 0.10737698833332843,
          "durationTicks": 131,
          "midi": 63,
          "name": "D#4",
          "ticks": 97950,
          "time": 80.28683975,
          "velocity": 0.8188976377952756
        },
        {
          "duration": 0.10737698833332843,
          "durationTicks": 131,
          "midi": 67,
          "name": "G4",
          "ticks": 98100,
          "time": 80.4097905,
          "velocity": 0.8188976377952756
        },
        {
          "duration": 0.10737698833332843,
          "durationTicks": 131,
          "midi": 63,
          "name": "D#4",
          "ticks": 98250,
          "time": 80.53274125,
          "velocity": 0.8188976377952756
        },
        {
          "duration": 0.10737698833332843,
          "durationTicks": 131,
          "midi": 58,
          "name": "A#3",
          "ticks": 98400,
          "time": 80.655692,
          "velocity": 0.8188976377952756
        },
        {
          "duration": 0.10737698833332843,
          "durationTicks": 131,
          "midi": 63,
          "name": "D#4",
          "ticks": 98550,
          "time": 80.77864275,
          "velocity": 0.8188976377952756
        },
        {
          "duration": 0.10737698833332843,
          "durationTicks": 131,
          "midi": 67,
          "name": "G4",
          "ticks": 98700,
          "time": 80.9015935,
          "velocity": 0.8188976377952756
        },
        {
          "duration": 0.10737698833332843,
          "durationTicks": 131,
          "midi": 63,
          "name": "D#4",
          "ticks": 98850,
          "time": 81.02454425,
          "velocity": 0.8188976377952756
        },
        {
          "duration": 0.10737698833334264,
          "durationTicks": 131,
          "midi": 58,
          "name": "A#3",
          "ticks": 99000,
          "time": 81.14749499999999,
          "velocity": 0.8188976377952756
        },
        {
          "duration": 0.10737698833334264,
          "durationTicks": 131,
          "midi": 63,
          "name": "D#4",
          "ticks": 99150,
          "time": 81.27044575,
          "velocity": 0.8188976377952756
        },
        {
          "duration": 0.10737698833334264,
          "durationTicks": 131,
          "midi": 67,
          "name": "G4",
          "ticks": 99300,
          "time": 81.3933965,
          "velocity": 0.8188976377952756
        },
        {
          "duration": 0.10737698833334264,
          "durationTicks": 131,
          "midi": 63,
          "name": "D#4",
          "ticks": 99450,
          "time": 81.51634725,
          "velocity": 0.8188976377952756
        },
        {
          "duration": 0.10737698833332843,
          "durationTicks": 131,
          "midi": 58,
          "name": "A#3",
          "ticks": 99600,
          "time": 81.639298,
          "velocity": 0.8188976377952756
        },
        {
          "duration": 0.10737698833332843,
          "durationTicks": 131,
          "midi": 63,
          "name": "D#4",
          "ticks": 99750,
          "time": 81.76224875,
          "velocity": 0.8188976377952756
        },
        {
          "duration": 0.10737698833332843,
          "durationTicks": 131,
          "midi": 67,
          "name": "G4",
          "ticks": 99900,
          "time": 81.8851995,
          "velocity": 0.8188976377952756
        },
        {
          "duration": 0.10737698833332843,
          "durationTicks": 131,
          "midi": 63,
          "name": "D#4",
          "ticks": 100050,
          "time": 82.00815025,
          "velocity": 0.8188976377952756
        },
        {
          "duration": 0.10737698833332843,
          "durationTicks": 131,
          "midi": 58,
          "name": "A#3",
          "ticks": 100200,
          "time": 82.131101,
          "velocity": 0.8188976377952756
        },
        {
          "duration": 0.10737698833332843,
          "durationTicks": 131,
          "midi": 63,
          "name": "D#4",
          "ticks": 100350,
          "time": 82.25405175,
          "velocity": 0.8188976377952756
        },
        {
          "duration": 0.10737698833332843,
          "durationTicks": 131,
          "midi": 67,
          "name": "G4",
          "ticks": 100500,
          "time": 82.3770025,
          "velocity": 0.8188976377952756
        },
        {
          "duration": 0.10737698833332843,
          "durationTicks": 131,
          "midi": 63,
          "name": "D#4",
          "ticks": 100650,
          "time": 82.49995325,
          "velocity": 0.8188976377952756
        },
        {
          "duration": 0.10737698833332843,
          "durationTicks": 131,
          "midi": 55,
          "name": "G3",
          "ticks": 100800,
          "time": 82.622904,
          "velocity": 0.8188976377952756
        },
        {
          "duration": 0.10737698833334264,
          "durationTicks": 131,
          "midi": 63,
          "name": "D#4",
          "ticks": 100950,
          "time": 82.74585474999999,
          "velocity": 0.8188976377952756
        },
        {
          "duration": 0.10737698833334264,
          "durationTicks": 131,
          "midi": 67,
          "name": "G4",
          "ticks": 101100,
          "time": 82.8688055,
          "velocity": 0.8188976377952756
        },
        {
          "duration": 0.10737698833334264,
          "durationTicks": 131,
          "midi": 63,
          "name": "D#4",
          "ticks": 101250,
          "time": 82.99175625,
          "velocity": 0.8188976377952756
        },
        {
          "duration": 0.10737698833334264,
          "durationTicks": 131,
          "midi": 55,
          "name": "G3",
          "ticks": 101400,
          "time": 83.114707,
          "velocity": 0.8188976377952756
        },
        {
          "duration": 0.10737698833332843,
          "durationTicks": 131,
          "midi": 63,
          "name": "D#4",
          "ticks": 101550,
          "time": 83.23765775,
          "velocity": 0.8188976377952756
        },
        {
          "duration": 0.10737698833332843,
          "durationTicks": 131,
          "midi": 67,
          "name": "G4",
          "ticks": 101700,
          "time": 83.3606085,
          "velocity": 0.8188976377952756
        },
        {
          "duration": 0.10737698833332843,
          "durationTicks": 131,
          "midi": 63,
          "name": "D#4",
          "ticks": 101850,
          "time": 83.48355925,
          "velocity": 0.8188976377952756
        },
        {
          "duration": 0.10737698833332843,
          "durationTicks": 131,
          "midi": 55,
          "name": "G3",
          "ticks": 102000,
          "time": 83.60651,
          "velocity": 0.8188976377952756
        },
        {
          "duration": 0.10737698833332843,
          "durationTicks": 131,
          "midi": 63,
          "name": "D#4",
          "ticks": 102150,
          "time": 83.72946075,
          "velocity": 0.8188976377952756
        },
        {
          "duration": 0.10737698833332843,
          "durationTicks": 131,
          "midi": 67,
          "name": "G4",
          "ticks": 102300,
          "time": 83.8524115,
          "velocity": 0.8188976377952756
        },
        {
          "duration": 0.10737698833332843,
          "durationTicks": 131,
          "midi": 63,
          "name": "D#4",
          "ticks": 102450,
          "time": 83.97536225,
          "velocity": 0.8188976377952756
        },
        {
          "duration": 0.10737698833332843,
          "durationTicks": 131,
          "midi": 55,
          "name": "G3",
          "ticks": 102600,
          "time": 84.098313,
          "velocity": 0.8188976377952756
        },
        {
          "duration": 0.10737698833334264,
          "durationTicks": 131,
          "midi": 63,
          "name": "D#4",
          "ticks": 102750,
          "time": 84.22126374999999,
          "velocity": 0.8188976377952756
        },
        {
          "duration": 0.10737698833334264,
          "durationTicks": 131,
          "midi": 67,
          "name": "G4",
          "ticks": 102900,
          "time": 84.34421449999999,
          "velocity": 0.8188976377952756
        },
        {
          "duration": 0.10737698833334264,
          "durationTicks": 131,
          "midi": 63,
          "name": "D#4",
          "ticks": 103050,
          "time": 84.46716525,
          "velocity": 0.8188976377952756
        },
        {
          "duration": 0.10737698833334264,
          "durationTicks": 131,
          "midi": 60,
          "name": "C4",
          "ticks": 103200,
          "time": 84.590116,
          "velocity": 0.8188976377952756
        },
        {
          "duration": 0.10737698833334264,
          "durationTicks": 131,
          "midi": 63,
          "name": "D#4",
          "ticks": 103350,
          "time": 84.71306675,
          "velocity": 0.8188976377952756
        },
        {
          "duration": 0.10737698833332843,
          "durationTicks": 131,
          "midi": 67,
          "name": "G4",
          "ticks": 103500,
          "time": 84.8360175,
          "velocity": 0.8188976377952756
        },
        {
          "duration": 0.10737698833332843,
          "durationTicks": 131,
          "midi": 63,
          "name": "D#4",
          "ticks": 103650,
          "time": 84.95896825,
          "velocity": 0.8188976377952756
        },
        {
          "duration": 0.10737698833332843,
          "durationTicks": 131,
          "midi": 60,
          "name": "C4",
          "ticks": 103800,
          "time": 85.081919,
          "velocity": 0.8188976377952756
        },
        {
          "duration": 0.10737698833332843,
          "durationTicks": 131,
          "midi": 63,
          "name": "D#4",
          "ticks": 103950,
          "time": 85.20486975,
          "velocity": 0.8188976377952756
        },
        {
          "duration": 0.10737698833332843,
          "durationTicks": 131,
          "midi": 67,
          "name": "G4",
          "ticks": 104100,
          "time": 85.3278205,
          "velocity": 0.8188976377952756
        },
        {
          "duration": 0.10737698833332843,
          "durationTicks": 131,
          "midi": 63,
          "name": "D#4",
          "ticks": 104250,
          "time": 85.45077125,
          "velocity": 0.8188976377952756
        },
        {
          "duration": 0.10737698833332843,
          "durationTicks": 131,
          "midi": 63,
          "name": "D#4",
          "ticks": 104400,
          "time": 85.573722,
          "velocity": 0.8188976377952756
        },
        {
          "duration": 0.10737698833332843,
          "durationTicks": 131,
          "midi": 63,
          "name": "D#4",
          "ticks": 104550,
          "time": 85.69667275,
          "velocity": 0.8188976377952756
        },
        {
          "duration": 0.10737698833334264,
          "durationTicks": 131,
          "midi": 67,
          "name": "G4",
          "ticks": 104700,
          "time": 85.81962349999999,
          "velocity": 0.8188976377952756
        },
        {
          "duration": 0.10737698833334264,
          "durationTicks": 131,
          "midi": 63,
          "name": "D#4",
          "ticks": 104850,
          "time": 85.94257424999999,
          "velocity": 0.8188976377952756
        },
        {
          "duration": 0.10737698833334264,
          "durationTicks": 131,
          "midi": 63,
          "name": "D#4",
          "ticks": 105000,
          "time": 86.065525,
          "velocity": 0.8188976377952756
        },
        {
          "duration": 0.10737698833334264,
          "durationTicks": 131,
          "midi": 63,
          "name": "D#4",
          "ticks": 105150,
          "time": 86.18847575,
          "velocity": 0.8188976377952756
        },
        {
          "duration": 0.10737698833334264,
          "durationTicks": 131,
          "midi": 67,
          "name": "G4",
          "ticks": 105300,
          "time": 86.3114265,
          "velocity": 0.8188976377952756
        },
        {
          "duration": 0.10737698833332843,
          "durationTicks": 131,
          "midi": 63,
          "name": "D#4",
          "ticks": 105450,
          "time": 86.43437725,
          "velocity": 0.8188976377952756
        },
        {
          "duration": 0.10737698833332843,
          "durationTicks": 131,
          "midi": 56,
          "name": "G#3",
          "ticks": 105600,
          "time": 86.557328,
          "velocity": 0.8188976377952756
        },
        {
          "duration": 0.10737698833332843,
          "durationTicks": 131,
          "midi": 63,
          "name": "D#4",
          "ticks": 105750,
          "time": 86.68027875,
          "velocity": 0.8188976377952756
        },
        {
          "duration": 0.10737698833332843,
          "durationTicks": 131,
          "midi": 67,
          "name": "G4",
          "ticks": 105900,
          "time": 86.8032295,
          "velocity": 0.8188976377952756
        },
        {
          "duration": 0.10737698833332843,
          "durationTicks": 131,
          "midi": 63,
          "name": "D#4",
          "ticks": 106050,
          "time": 86.92618025,
          "velocity": 0.8188976377952756
        },
        {
          "duration": 0.10737698833332843,
          "durationTicks": 131,
          "midi": 56,
          "name": "G#3",
          "ticks": 106200,
          "time": 87.049131,
          "velocity": 0.8188976377952756
        },
        {
          "duration": 0.10737698833332843,
          "durationTicks": 131,
          "midi": 63,
          "name": "D#4",
          "ticks": 106350,
          "time": 87.17208175,
          "velocity": 0.8188976377952756
        },
        {
          "duration": 0.10737698833332843,
          "durationTicks": 131,
          "midi": 67,
          "name": "G4",
          "ticks": 106500,
          "time": 87.2950325,
          "velocity": 0.8188976377952756
        },
        {
          "duration": 0.10737698833334264,
          "durationTicks": 131,
          "midi": 63,
          "name": "D#4",
          "ticks": 106650,
          "time": 87.41798324999999,
          "velocity": 0.8188976377952756
        },
        {
          "duration": 0.10737698833334264,
          "durationTicks": 131,
          "midi": 56,
          "name": "G#3",
          "ticks": 106800,
          "time": 87.540934,
          "velocity": 0.8188976377952756
        },
        {
          "duration": 0.10737698833334264,
          "durationTicks": 131,
          "midi": 63,
          "name": "D#4",
          "ticks": 106950,
          "time": 87.66388475,
          "velocity": 0.8188976377952756
        },
        {
          "duration": 0.10737698833334264,
          "durationTicks": 131,
          "midi": 67,
          "name": "G4",
          "ticks": 107100,
          "time": 87.7868355,
          "velocity": 0.8188976377952756
        },
        {
          "duration": 0.10737698833332843,
          "durationTicks": 131,
          "midi": 63,
          "name": "D#4",
          "ticks": 107250,
          "time": 87.90978625,
          "velocity": 0.8188976377952756
        },
        {
          "duration": 0.10737698833332843,
          "durationTicks": 131,
          "midi": 56,
          "name": "G#3",
          "ticks": 107400,
          "time": 88.032737,
          "velocity": 0.8188976377952756
        },
        {
          "duration": 0.10737698833332843,
          "durationTicks": 131,
          "midi": 63,
          "name": "D#4",
          "ticks": 107550,
          "time": 88.15568775,
          "velocity": 0.8188976377952756
        },
        {
          "duration": 0.10737698833332843,
          "durationTicks": 131,
          "midi": 67,
          "name": "G4",
          "ticks": 107700,
          "time": 88.2786385,
          "velocity": 0.8188976377952756
        },
        {
          "duration": 0.10737698833332843,
          "durationTicks": 131,
          "midi": 63,
          "name": "D#4",
          "ticks": 107850,
          "time": 88.40158925,
          "velocity": 0.8188976377952756
        },
        {
          "duration": 0.10737698833332843,
          "durationTicks": 131,
          "midi": 58,
          "name": "A#3",
          "ticks": 108000,
          "time": 88.52454,
          "velocity": 0.8188976377952756
        },
        {
          "duration": 0.10737698833332843,
          "durationTicks": 131,
          "midi": 63,
          "name": "D#4",
          "ticks": 108150,
          "time": 88.64749075,
          "velocity": 0.8188976377952756
        },
        {
          "duration": 0.10737698833332843,
          "durationTicks": 131,
          "midi": 67,
          "name": "G4",
          "ticks": 108300,
          "time": 88.7704415,
          "velocity": 0.8188976377952756
        },
        {
          "duration": 0.10737698833332843,
          "durationTicks": 131,
          "midi": 63,
          "name": "D#4",
          "ticks": 108450,
          "time": 88.89339225,
          "velocity": 0.8188976377952756
        },
        {
          "duration": 0.10737698833334264,
          "durationTicks": 131,
          "midi": 58,
          "name": "A#3",
          "ticks": 108600,
          "time": 89.01634299999999,
          "velocity": 0.8188976377952756
        },
        {
          "duration": 0.10737698833334264,
          "durationTicks": 131,
          "midi": 63,
          "name": "D#4",
          "ticks": 108750,
          "time": 89.13929375,
          "velocity": 0.8188976377952756
        },
        {
          "duration": 0.10737698833334264,
          "durationTicks": 131,
          "midi": 67,
          "name": "G4",
          "ticks": 108900,
          "time": 89.2622445,
          "velocity": 0.8188976377952756
        },
        {
          "duration": 0.10737698833334264,
          "durationTicks": 131,
          "midi": 63,
          "name": "D#4",
          "ticks": 109050,
          "time": 89.38519525,
          "velocity": 0.8188976377952756
        },
        {
          "duration": 0.10737698833332843,
          "durationTicks": 131,
          "midi": 58,
          "name": "A#3",
          "ticks": 109200,
          "time": 89.508146,
          "velocity": 0.8188976377952756
        },
        {
          "duration": 0.10737698833332843,
          "durationTicks": 131,
          "midi": 63,
          "name": "D#4",
          "ticks": 109350,
          "time": 89.63109675,
          "velocity": 0.8188976377952756
        },
        {
          "duration": 0.10737698833332843,
          "durationTicks": 131,
          "midi": 67,
          "name": "G4",
          "ticks": 109500,
          "time": 89.7540475,
          "velocity": 0.8188976377952756
        },
        {
          "duration": 0.10737698833332843,
          "durationTicks": 131,
          "midi": 63,
          "name": "D#4",
          "ticks": 109650,
          "time": 89.87699825,
          "velocity": 0.8188976377952756
        },
        {
          "duration": 0.10737698833332843,
          "durationTicks": 131,
          "midi": 58,
          "name": "A#3",
          "ticks": 109800,
          "time": 89.999949,
          "velocity": 0.8188976377952756
        },
        {
          "duration": 0.10737698833332843,
          "durationTicks": 131,
          "midi": 63,
          "name": "D#4",
          "ticks": 109950,
          "time": 90.12289975,
          "velocity": 0.8188976377952756
        },
        {
          "duration": 0.10737698833332843,
          "durationTicks": 131,
          "midi": 67,
          "name": "G4",
          "ticks": 110100,
          "time": 90.2458505,
          "velocity": 0.8188976377952756
        },
        {
          "duration": 0.10737698833332843,
          "durationTicks": 131,
          "midi": 63,
          "name": "D#4",
          "ticks": 110250,
          "time": 90.36880125,
          "velocity": 0.8188976377952756
        },
        {
          "duration": 0.10737698833334264,
          "durationTicks": 131,
          "midi": 55,
          "name": "G3",
          "ticks": 110400,
          "time": 90.49175199999999,
          "velocity": 0.8188976377952756
        },
        {
          "duration": 0.10737698833334264,
          "durationTicks": 131,
          "midi": 63,
          "name": "D#4",
          "ticks": 110550,
          "time": 90.61470274999999,
          "velocity": 0.8188976377952756
        },
        {
          "duration": 0.10737698833334264,
          "durationTicks": 131,
          "midi": 67,
          "name": "G4",
          "ticks": 110700,
          "time": 90.7376535,
          "velocity": 0.8188976377952756
        },
        {
          "duration": 0.10737698833334264,
          "durationTicks": 131,
          "midi": 63,
          "name": "D#4",
          "ticks": 110850,
          "time": 90.86060425,
          "velocity": 0.8188976377952756
        },
        {
          "duration": 0.10737698833334264,
          "durationTicks": 131,
          "midi": 55,
          "name": "G3",
          "ticks": 111000,
          "time": 90.983555,
          "velocity": 0.8188976377952756
        },
        {
          "duration": 0.10737698833332843,
          "durationTicks": 131,
          "midi": 63,
          "name": "D#4",
          "ticks": 111150,
          "time": 91.10650575,
          "velocity": 0.8188976377952756
        },
        {
          "duration": 0.10737698833332843,
          "durationTicks": 131,
          "midi": 67,
          "name": "G4",
          "ticks": 111300,
          "time": 91.2294565,
          "velocity": 0.8188976377952756
        },
        {
          "duration": 0.10737698833332843,
          "durationTicks": 131,
          "midi": 63,
          "name": "D#4",
          "ticks": 111450,
          "time": 91.35240725,
          "velocity": 0.8188976377952756
        },
        {
          "duration": 0.10737698833332843,
          "durationTicks": 131,
          "midi": 55,
          "name": "G3",
          "ticks": 111600,
          "time": 91.475358,
          "velocity": 0.8188976377952756
        },
        {
          "duration": 0.10737698833332843,
          "durationTicks": 131,
          "midi": 63,
          "name": "D#4",
          "ticks": 111750,
          "time": 91.59830875,
          "velocity": 0.8188976377952756
        },
        {
          "duration": 0.10737698833332843,
          "durationTicks": 131,
          "midi": 67,
          "name": "G4",
          "ticks": 111900,
          "time": 91.7212595,
          "velocity": 0.8188976377952756
        },
        {
          "duration": 0.10737698833332843,
          "durationTicks": 131,
          "midi": 63,
          "name": "D#4",
          "ticks": 112050,
          "time": 91.84421025,
          "velocity": 0.8188976377952756
        },
        {
          "duration": 0.10737698833332843,
          "durationTicks": 131,
          "midi": 55,
          "name": "G3",
          "ticks": 112200,
          "time": 91.967161,
          "velocity": 0.8188976377952756
        },
        {
          "duration": 0.10737698833334264,
          "durationTicks": 131,
          "midi": 63,
          "name": "D#4",
          "ticks": 112350,
          "time": 92.09011174999999,
          "velocity": 0.8188976377952756
        },
        {
          "duration": 0.10737698833334264,
          "durationTicks": 131,
          "midi": 67,
          "name": "G4",
          "ticks": 112500,
          "time": 92.21306249999999,
          "velocity": 0.8188976377952756
        },
        {
          "duration": 0.10737698833334264,
          "durationTicks": 131,
          "midi": 63,
          "name": "D#4",
          "ticks": 112650,
          "time": 92.33601325,
          "velocity": 0.8188976377952756
        },
        {
          "duration": 0.10737698833334264,
          "durationTicks": 131,
          "midi": 60,
          "name": "C4",
          "ticks": 112800,
          "time": 92.458964,
          "velocity": 0.8188976377952756
        },
        {
          "duration": 0.10737698833334264,
          "durationTicks": 131,
          "midi": 63,
          "name": "D#4",
          "ticks": 112950,
          "time": 92.58191475,
          "velocity": 0.8188976377952756
        },
        {
          "duration": 0.10737698833332843,
          "durationTicks": 131,
          "midi": 67,
          "name": "G4",
          "ticks": 113100,
          "time": 92.7048655,
          "velocity": 0.8188976377952756
        },
        {
          "duration": 0.10737698833332843,
          "durationTicks": 131,
          "midi": 63,
          "name": "D#4",
          "ticks": 113250,
          "time": 92.82781625,
          "velocity": 0.8188976377952756
        },
        {
          "duration": 0.10737698833332843,
          "durationTicks": 131,
          "midi": 60,
          "name": "C4",
          "ticks": 113400,
          "time": 92.950767,
          "velocity": 0.8188976377952756
        },
        {
          "duration": 0.10737698833332843,
          "durationTicks": 131,
          "midi": 63,
          "name": "D#4",
          "ticks": 113550,
          "time": 93.07371775,
          "velocity": 0.8188976377952756
        },
        {
          "duration": 0.10737698833332843,
          "durationTicks": 131,
          "midi": 67,
          "name": "G4",
          "ticks": 113700,
          "time": 93.1966685,
          "velocity": 0.8188976377952756
        },
        {
          "duration": 0.10737698833332843,
          "durationTicks": 131,
          "midi": 63,
          "name": "D#4",
          "ticks": 113850,
          "time": 93.31961925,
          "velocity": 0.8188976377952756
        },
        {
          "duration": 0.10737698833332843,
          "durationTicks": 131,
          "midi": 63,
          "name": "D#4",
          "ticks": 114000,
          "time": 93.44257,
          "velocity": 0.8188976377952756
        },
        {
          "duration": 0.10737698833332843,
          "durationTicks": 131,
          "midi": 63,
          "name": "D#4",
          "ticks": 114150,
          "time": 93.56552075,
          "velocity": 0.8188976377952756
        },
        {
          "duration": 0.10737698833334264,
          "durationTicks": 131,
          "midi": 67,
          "name": "G4",
          "ticks": 114300,
          "time": 93.68847149999999,
          "velocity": 0.8188976377952756
        },
        {
          "duration": 0.10737698833334264,
          "durationTicks": 131,
          "midi": 63,
          "name": "D#4",
          "ticks": 114450,
          "time": 93.81142224999999,
          "velocity": 0.8188976377952756
        },
        {
          "duration": 0.10737698833334264,
          "durationTicks": 131,
          "midi": 63,
          "name": "D#4",
          "ticks": 114600,
          "time": 93.934373,
          "velocity": 0.8188976377952756
        },
        {
          "duration": 0.10737698833334264,
          "durationTicks": 131,
          "midi": 63,
          "name": "D#4",
          "ticks": 114750,
          "time": 94.05732375,
          "velocity": 0.8188976377952756
        },
        {
          "duration": 0.10737698833334264,
          "durationTicks": 131,
          "midi": 67,
          "name": "G4",
          "ticks": 114900,
          "time": 94.1802745,
          "velocity": 0.8188976377952756
        },
        {
          "duration": 0.10737698833332843,
          "durationTicks": 131,
          "midi": 63,
          "name": "D#4",
          "ticks": 115050,
          "time": 94.30322525,
          "velocity": 0.8188976377952756
        },
        {
          "duration": 0.10737698833332843,
          "durationTicks": 131,
          "midi": 56,
          "name": "G#3",
          "ticks": 115200,
          "time": 94.426176,
          "velocity": 0.8188976377952756
        },
        {
          "duration": 0.10737698833332843,
          "durationTicks": 131,
          "midi": 63,
          "name": "D#4",
          "ticks": 115350,
          "time": 94.54912675,
          "velocity": 0.8188976377952756
        },
        {
          "duration": 0.10737698833332843,
          "durationTicks": 131,
          "midi": 67,
          "name": "G4",
          "ticks": 115500,
          "time": 94.6720775,
          "velocity": 0.8188976377952756
        },
        {
          "duration": 0.10737698833332843,
          "durationTicks": 131,
          "midi": 63,
          "name": "D#4",
          "ticks": 115650,
          "time": 94.79502825,
          "velocity": 0.8188976377952756
        },
        {
          "duration": 0.10737698833332843,
          "durationTicks": 131,
          "midi": 56,
          "name": "G#3",
          "ticks": 115800,
          "time": 94.917979,
          "velocity": 0.8188976377952756
        },
        {
          "duration": 0.10737698833332843,
          "durationTicks": 131,
          "midi": 63,
          "name": "D#4",
          "ticks": 115950,
          "time": 95.04092975,
          "velocity": 0.8188976377952756
        },
        {
          "duration": 0.10737698833332843,
          "durationTicks": 131,
          "midi": 67,
          "name": "G4",
          "ticks": 116100,
          "time": 95.1638805,
          "velocity": 0.8188976377952756
        },
        {
          "duration": 0.10737698833334264,
          "durationTicks": 131,
          "midi": 63,
          "name": "D#4",
          "ticks": 116250,
          "time": 95.28683124999999,
          "velocity": 0.8188976377952756
        },
        {
          "duration": 0.10737698833334264,
          "durationTicks": 131,
          "midi": 56,
          "name": "G#3",
          "ticks": 116400,
          "time": 95.40978199999999,
          "velocity": 0.8188976377952756
        },
        {
          "duration": 0.10737698833334264,
          "durationTicks": 131,
          "midi": 63,
          "name": "D#4",
          "ticks": 116550,
          "time": 95.53273275,
          "velocity": 0.8188976377952756
        },
        {
          "duration": 0.10737698833334264,
          "durationTicks": 131,
          "midi": 67,
          "name": "G4",
          "ticks": 116700,
          "time": 95.6556835,
          "velocity": 0.8188976377952756
        },
        {
          "duration": 0.10737698833332843,
          "durationTicks": 131,
          "midi": 63,
          "name": "D#4",
          "ticks": 116850,
          "time": 95.77863425,
          "velocity": 0.8188976377952756
        },
        {
          "duration": 0.10737698833332843,
          "durationTicks": 131,
          "midi": 56,
          "name": "G#3",
          "ticks": 117000,
          "time": 95.901585,
          "velocity": 0.8188976377952756
        },
        {
          "duration": 0.10737698833332843,
          "durationTicks": 131,
          "midi": 63,
          "name": "D#4",
          "ticks": 117150,
          "time": 96.02453575,
          "velocity": 0.8188976377952756
        },
        {
          "duration": 0.10737698833332843,
          "durationTicks": 131,
          "midi": 67,
          "name": "G4",
          "ticks": 117300,
          "time": 96.1474865,
          "velocity": 0.8188976377952756
        },
        {
          "duration": 0.10737698833332843,
          "durationTicks": 131,
          "midi": 63,
          "name": "D#4",
          "ticks": 117450,
          "time": 96.27043725,
          "velocity": 0.8188976377952756
        },
        {
          "duration": 0.10737698833332843,
          "durationTicks": 131,
          "midi": 58,
          "name": "A#3",
          "ticks": 117600,
          "time": 96.393388,
          "velocity": 0.8188976377952756
        },
        {
          "duration": 0.10737698833332843,
          "durationTicks": 131,
          "midi": 63,
          "name": "D#4",
          "ticks": 117750,
          "time": 96.51633875,
          "velocity": 0.8188976377952756
        },
        {
          "duration": 0.10737698833332843,
          "durationTicks": 131,
          "midi": 67,
          "name": "G4",
          "ticks": 117900,
          "time": 96.6392895,
          "velocity": 0.8188976377952756
        },
        {
          "duration": 0.10737698833332843,
          "durationTicks": 131,
          "midi": 63,
          "name": "D#4",
          "ticks": 118050,
          "time": 96.76224025,
          "velocity": 0.8188976377952756
        },
        {
          "duration": 0.10737698833334264,
          "durationTicks": 131,
          "midi": 58,
          "name": "A#3",
          "ticks": 118200,
          "time": 96.88519099999999,
          "velocity": 0.8188976377952756
        },
        {
          "duration": 0.10737698833334264,
          "durationTicks": 131,
          "midi": 63,
          "name": "D#4",
          "ticks": 118350,
          "time": 97.00814175,
          "velocity": 0.8188976377952756
        },
        {
          "duration": 0.10737698833334264,
          "durationTicks": 131,
          "midi": 67,
          "name": "G4",
          "ticks": 118500,
          "time": 97.1310925,
          "velocity": 0.8188976377952756
        },
        {
          "duration": 0.10737698833334264,
          "durationTicks": 131,
          "midi": 63,
          "name": "D#4",
          "ticks": 118650,
          "time": 97.25404325,
          "velocity": 0.8188976377952756
        },
        {
          "duration": 0.10737698833332843,
          "durationTicks": 131,
          "midi": 58,
          "name": "A#3",
          "ticks": 118800,
          "time": 97.376994,
          "velocity": 0.8188976377952756
        },
        {
          "duration": 0.10737698833332843,
          "durationTicks": 131,
          "midi": 63,
          "name": "D#4",
          "ticks": 118950,
          "time": 97.49994475,
          "velocity": 0.8188976377952756
        },
        {
          "duration": 0.10737698833332843,
          "durationTicks": 131,
          "midi": 67,
          "name": "G4",
          "ticks": 119100,
          "time": 97.6228955,
          "velocity": 0.8188976377952756
        },
        {
          "duration": 0.10737698833332843,
          "durationTicks": 131,
          "midi": 63,
          "name": "D#4",
          "ticks": 119250,
          "time": 97.74584625,
          "velocity": 0.8188976377952756
        },
        {
          "duration": 0.10737698833332843,
          "durationTicks": 131,
          "midi": 58,
          "name": "A#3",
          "ticks": 119400,
          "time": 97.868797,
          "velocity": 0.8188976377952756
        },
        {
          "duration": 0.10737698833332843,
          "durationTicks": 131,
          "midi": 63,
          "name": "D#4",
          "ticks": 119550,
          "time": 97.99174775,
          "velocity": 0.8188976377952756
        },
        {
          "duration": 0.10737698833332843,
          "durationTicks": 131,
          "midi": 67,
          "name": "G4",
          "ticks": 119700,
          "time": 98.1146985,
          "velocity": 0.8188976377952756
        },
        {
          "duration": 0.10737698833332843,
          "durationTicks": 131,
          "midi": 63,
          "name": "D#4",
          "ticks": 119850,
          "time": 98.23764925,
          "velocity": 0.8188976377952756
        },
        {
          "duration": 0.10737698833332843,
          "durationTicks": 131,
          "midi": 55,
          "name": "G3",
          "ticks": 120000,
          "time": 98.3606,
          "velocity": 0.8188976377952756
        },
        {
          "duration": 0.10737698833334264,
          "durationTicks": 131,
          "midi": 63,
          "name": "D#4",
          "ticks": 120150,
          "time": 98.48355074999999,
          "velocity": 0.8188976377952756
        },
        {
          "duration": 0.10737698833334264,
          "durationTicks": 131,
          "midi": 67,
          "name": "G4",
          "ticks": 120300,
          "time": 98.6065015,
          "velocity": 0.8188976377952756
        },
        {
          "duration": 0.10737698833334264,
          "durationTicks": 131,
          "midi": 63,
          "name": "D#4",
          "ticks": 120450,
          "time": 98.72945225,
          "velocity": 0.8188976377952756
        },
        {
          "duration": 0.10737698833334264,
          "durationTicks": 131,
          "midi": 55,
          "name": "G3",
          "ticks": 120600,
          "time": 98.852403,
          "velocity": 0.8188976377952756
        },
        {
          "duration": 0.10737698833332843,
          "durationTicks": 131,
          "midi": 63,
          "name": "D#4",
          "ticks": 120750,
          "time": 98.97535375,
          "velocity": 0.8188976377952756
        },
        {
          "duration": 0.10737698833332843,
          "durationTicks": 131,
          "midi": 67,
          "name": "G4",
          "ticks": 120900,
          "time": 99.0983045,
          "velocity": 0.8188976377952756
        },
        {
          "duration": 0.10737698833332843,
          "durationTicks": 131,
          "midi": 63,
          "name": "D#4",
          "ticks": 121050,
          "time": 99.22125525,
          "velocity": 0.8188976377952756
        },
        {
          "duration": 0.10737698833332843,
          "durationTicks": 131,
          "midi": 55,
          "name": "G3",
          "ticks": 121200,
          "time": 99.344206,
          "velocity": 0.8188976377952756
        },
        {
          "duration": 0.10737698833332843,
          "durationTicks": 131,
          "midi": 63,
          "name": "D#4",
          "ticks": 121350,
          "time": 99.46715675,
          "velocity": 0.8188976377952756
        },
        {
          "duration": 0.10737698833332843,
          "durationTicks": 131,
          "midi": 67,
          "name": "G4",
          "ticks": 121500,
          "time": 99.5901075,
          "velocity": 0.8188976377952756
        },
        {
          "duration": 0.10737698833332843,
          "durationTicks": 131,
          "midi": 63,
          "name": "D#4",
          "ticks": 121650,
          "time": 99.71305825,
          "velocity": 0.8188976377952756
        },
        {
          "duration": 0.10737698833332843,
          "durationTicks": 131,
          "midi": 55,
          "name": "G3",
          "ticks": 121800,
          "time": 99.836009,
          "velocity": 0.8188976377952756
        },
        {
          "duration": 0.10737698833334264,
          "durationTicks": 131,
          "midi": 63,
          "name": "D#4",
          "ticks": 121950,
          "time": 99.95895974999999,
          "velocity": 0.8188976377952756
        },
        {
          "duration": 0.10737698833334264,
          "durationTicks": 131,
          "midi": 67,
          "name": "G4",
          "ticks": 122100,
          "time": 100.08191049999999,
          "velocity": 0.8188976377952756
        },
        {
          "duration": 0.10737698833334264,
          "durationTicks": 131,
          "midi": 63,
          "name": "D#4",
          "ticks": 122250,
          "time": 100.20486125,
          "velocity": 0.8188976377952756
        },
        {
          "duration": 0.10737698833334264,
          "durationTicks": 131,
          "midi": 60,
          "name": "C4",
          "ticks": 122400,
          "time": 100.327812,
          "velocity": 0.8188976377952756
        },
        {
          "duration": 0.10737698833334264,
          "durationTicks": 131,
          "midi": 63,
          "name": "D#4",
          "ticks": 122550,
          "time": 100.45076275,
          "velocity": 0.8188976377952756
        },
        {
          "duration": 0.10737698833332843,
          "durationTicks": 131,
          "midi": 67,
          "name": "G4",
          "ticks": 122700,
          "time": 100.5737135,
          "velocity": 0.8188976377952756
        },
        {
          "duration": 0.10737698833332843,
          "durationTicks": 131,
          "midi": 63,
          "name": "D#4",
          "ticks": 122850,
          "time": 100.69666425,
          "velocity": 0.8188976377952756
        },
        {
          "duration": 0.10737698833332843,
          "durationTicks": 131,
          "midi": 60,
          "name": "C4",
          "ticks": 123000,
          "time": 100.819615,
          "velocity": 0.8188976377952756
        },
        {
          "duration": 0.10737698833332843,
          "durationTicks": 131,
          "midi": 63,
          "name": "D#4",
          "ticks": 123150,
          "time": 100.94256575,
          "velocity": 0.8188976377952756
        },
        {
          "duration": 0.10737698833332843,
          "durationTicks": 131,
          "midi": 67,
          "name": "G4",
          "ticks": 123300,
          "time": 101.0655165,
          "velocity": 0.8188976377952756
        },
        {
          "duration": 0.10737698833332843,
          "durationTicks": 131,
          "midi": 63,
          "name": "D#4",
          "ticks": 123450,
          "time": 101.18846725,
          "velocity": 0.8188976377952756
        },
        {
          "duration": 0.10737698833332843,
          "durationTicks": 131,
          "midi": 63,
          "name": "D#4",
          "ticks": 123600,
          "time": 101.311418,
          "velocity": 0.8188976377952756
        },
        {
          "duration": 0.10737698833332843,
          "durationTicks": 131,
          "midi": 63,
          "name": "D#4",
          "ticks": 123750,
          "time": 101.43436875,
          "velocity": 0.8188976377952756
        },
        {
          "duration": 0.10737698833334264,
          "durationTicks": 131,
          "midi": 67,
          "name": "G4",
          "ticks": 123900,
          "time": 101.55731949999999,
          "velocity": 0.8188976377952756
        },
        {
          "duration": 0.10737698833334264,
          "durationTicks": 131,
          "midi": 63,
          "name": "D#4",
          "ticks": 124050,
          "time": 101.68027024999999,
          "velocity": 0.8188976377952756
        },
        {
          "duration": 0.10737698833334264,
          "durationTicks": 131,
          "midi": 63,
          "name": "D#4",
          "ticks": 124200,
          "time": 101.803221,
          "velocity": 0.8188976377952756
        },
        {
          "duration": 0.10737698833334264,
          "durationTicks": 131,
          "midi": 63,
          "name": "D#4",
          "ticks": 124350,
          "time": 101.92617175,
          "velocity": 0.8188976377952756
        },
        {
          "duration": 0.10737698833334264,
          "durationTicks": 131,
          "midi": 67,
          "name": "G4",
          "ticks": 124500,
          "time": 102.0491225,
          "velocity": 0.8188976377952756
        },
        {
          "duration": 0.10737698833332843,
          "durationTicks": 131,
          "midi": 63,
          "name": "D#4",
          "ticks": 124650,
          "time": 102.17207325,
          "velocity": 0.8188976377952756
        },
        {
          "duration": 0.10737698833332843,
          "durationTicks": 131,
          "midi": 56,
          "name": "G#3",
          "ticks": 124800,
          "time": 102.295024,
          "velocity": 0.8188976377952756
        },
        {
          "duration": 0.10737698833332843,
          "durationTicks": 131,
          "midi": 63,
          "name": "D#4",
          "ticks": 124950,
          "time": 102.41797475,
          "velocity": 0.8188976377952756
        },
        {
          "duration": 0.10737698833332843,
          "durationTicks": 131,
          "midi": 67,
          "name": "G4",
          "ticks": 125100,
          "time": 102.5409255,
          "velocity": 0.8188976377952756
        },
        {
          "duration": 0.10737698833332843,
          "durationTicks": 131,
          "midi": 63,
          "name": "D#4",
          "ticks": 125250,
          "time": 102.66387625,
          "velocity": 0.8188976377952756
        },
        {
          "duration": 0.10737698833332843,
          "durationTicks": 131,
          "midi": 56,
          "name": "G#3",
          "ticks": 125400,
          "time": 102.786827,
          "velocity": 0.8188976377952756
        },
        {
          "duration": 0.10737698833332843,
          "durationTicks": 131,
          "midi": 63,
          "name": "D#4",
          "ticks": 125550,
          "time": 102.90977775,
          "velocity": 0.8188976377952756
        },
        {
          "duration": 0.10737698833332843,
          "durationTicks": 131,
          "midi": 67,
          "name": "G4",
          "ticks": 125700,
          "time": 103.0327285,
          "velocity": 0.8188976377952756
        },
        {
          "duration": 0.10737698833334264,
          "durationTicks": 131,
          "midi": 63,
          "name": "D#4",
          "ticks": 125850,
          "time": 103.15567924999999,
          "velocity": 0.8188976377952756
        },
        {
          "duration": 0.10737698833334264,
          "durationTicks": 131,
          "midi": 56,
          "name": "G#3",
          "ticks": 126000,
          "time": 103.27862999999999,
          "velocity": 0.8188976377952756
        },
        {
          "duration": 0.10737698833334264,
          "durationTicks": 131,
          "midi": 63,
          "name": "D#4",
          "ticks": 126150,
          "time": 103.40158075,
          "velocity": 0.8188976377952756
        },
        {
          "duration": 0.10737698833334264,
          "durationTicks": 131,
          "midi": 67,
          "name": "G4",
          "ticks": 126300,
          "time": 103.5245315,
          "velocity": 0.8188976377952756
        },
        {
          "duration": 0.10737698833332843,
          "durationTicks": 131,
          "midi": 63,
          "name": "D#4",
          "ticks": 126450,
          "time": 103.64748225,
          "velocity": 0.8188976377952756
        },
        {
          "duration": 0.10737698833332843,
          "durationTicks": 131,
          "midi": 56,
          "name": "G#3",
          "ticks": 126600,
          "time": 103.770433,
          "velocity": 0.8188976377952756
        },
        {
          "duration": 0.10737698833332843,
          "durationTicks": 131,
          "midi": 63,
          "name": "D#4",
          "ticks": 126750,
          "time": 103.89338375,
          "velocity": 0.8188976377952756
        },
        {
          "duration": 0.10737698833332843,
          "durationTicks": 131,
          "midi": 67,
          "name": "G4",
          "ticks": 126900,
          "time": 104.0163345,
          "velocity": 0.8188976377952756
        },
        {
          "duration": 0.10737698833332843,
          "durationTicks": 131,
          "midi": 63,
          "name": "D#4",
          "ticks": 127050,
          "time": 104.13928525,
          "velocity": 0.8188976377952756
        },
        {
          "duration": 0.10737698833332843,
          "durationTicks": 131,
          "midi": 58,
          "name": "A#3",
          "ticks": 127200,
          "time": 104.262236,
          "velocity": 0.8188976377952756
        },
        {
          "duration": 0.10737698833332843,
          "durationTicks": 131,
          "midi": 63,
          "name": "D#4",
          "ticks": 127350,
          "time": 104.38518675,
          "velocity": 0.8188976377952756
        },
        {
          "duration": 0.10737698833332843,
          "durationTicks": 131,
          "midi": 67,
          "name": "G4",
          "ticks": 127500,
          "time": 104.5081375,
          "velocity": 0.8188976377952756
        },
        {
          "duration": 0.10737698833332843,
          "durationTicks": 131,
          "midi": 63,
          "name": "D#4",
          "ticks": 127650,
          "time": 104.63108825,
          "velocity": 0.8188976377952756
        },
        {
          "duration": 0.10737698833334264,
          "durationTicks": 131,
          "midi": 58,
          "name": "A#3",
          "ticks": 127800,
          "time": 104.75403899999999,
          "velocity": 0.8188976377952756
        },
        {
          "duration": 0.10737698833334264,
          "durationTicks": 131,
          "midi": 63,
          "name": "D#4",
          "ticks": 127950,
          "time": 104.87698974999999,
          "velocity": 0.8188976377952756
        },
        {
          "duration": 0.10737698833334264,
          "durationTicks": 131,
          "midi": 67,
          "name": "G4",
          "ticks": 128100,
          "time": 104.9999405,
          "velocity": 0.8188976377952756
        },
        {
          "duration": 0.10737698833334264,
          "durationTicks": 131,
          "midi": 63,
          "name": "D#4",
          "ticks": 128250,
          "time": 105.12289125,
          "velocity": 0.8188976377952756
        },
        {
          "duration": 0.10737698833332843,
          "durationTicks": 131,
          "midi": 58,
          "name": "A#3",
          "ticks": 128400,
          "time": 105.245842,
          "velocity": 0.8188976377952756
        },
        {
          "duration": 0.10737698833332843,
          "durationTicks": 131,
          "midi": 63,
          "name": "D#4",
          "ticks": 128550,
          "time": 105.36879275,
          "velocity": 0.8188976377952756
        },
        {
          "duration": 0.10737698833332843,
          "durationTicks": 131,
          "midi": 67,
          "name": "G4",
          "ticks": 128700,
          "time": 105.4917435,
          "velocity": 0.8188976377952756
        },
        {
          "duration": 0.10737698833332843,
          "durationTicks": 131,
          "midi": 63,
          "name": "D#4",
          "ticks": 128850,
          "time": 105.61469425,
          "velocity": 0.8188976377952756
        },
        {
          "duration": 0.10737698833332843,
          "durationTicks": 131,
          "midi": 58,
          "name": "A#3",
          "ticks": 129000,
          "time": 105.737645,
          "velocity": 0.8188976377952756
        },
        {
          "duration": 0.10737698833332843,
          "durationTicks": 131,
          "midi": 63,
          "name": "D#4",
          "ticks": 129150,
          "time": 105.86059575,
          "velocity": 0.8188976377952756
        },
        {
          "duration": 0.10737698833332843,
          "durationTicks": 131,
          "midi": 67,
          "name": "G4",
          "ticks": 129300,
          "time": 105.9835465,
          "velocity": 0.8188976377952756
        },
        {
          "duration": 0.10737698833332843,
          "durationTicks": 131,
          "midi": 63,
          "name": "D#4",
          "ticks": 129450,
          "time": 106.10649725,
          "velocity": 0.8188976377952756
        },
        {
          "duration": 0.10737698833334264,
          "durationTicks": 131,
          "midi": 55,
          "name": "G3",
          "ticks": 129600,
          "time": 106.22944799999999,
          "velocity": 0.8188976377952756
        },
        {
          "duration": 0.10737698833334264,
          "durationTicks": 131,
          "midi": 63,
          "name": "D#4",
          "ticks": 129750,
          "time": 106.35239874999999,
          "velocity": 0.8188976377952756
        },
        {
          "duration": 0.10737698833334264,
          "durationTicks": 131,
          "midi": 67,
          "name": "G4",
          "ticks": 129900,
          "time": 106.4753495,
          "velocity": 0.8188976377952756
        },
        {
          "duration": 0.10737698833334264,
          "durationTicks": 131,
          "midi": 63,
          "name": "D#4",
          "ticks": 130050,
          "time": 106.59830025,
          "velocity": 0.8188976377952756
        },
        {
          "duration": 0.10737698833334264,
          "durationTicks": 131,
          "midi": 55,
          "name": "G3",
          "ticks": 130200,
          "time": 106.721251,
          "velocity": 0.8188976377952756
        },
        {
          "duration": 0.10737698833332843,
          "durationTicks": 131,
          "midi": 63,
          "name": "D#4",
          "ticks": 130350,
          "time": 106.84420175,
          "velocity": 0.8188976377952756
        },
        {
          "duration": 0.10737698833332843,
          "durationTicks": 131,
          "midi": 67,
          "name": "G4",
          "ticks": 130500,
          "time": 106.9671525,
          "velocity": 0.8188976377952756
        },
        {
          "duration": 0.10737698833332843,
          "durationTicks": 131,
          "midi": 63,
          "name": "D#4",
          "ticks": 130650,
          "time": 107.09010325,
          "velocity": 0.8188976377952756
        },
        {
          "duration": 0.10737698833332843,
          "durationTicks": 131,
          "midi": 55,
          "name": "G3",
          "ticks": 130800,
          "time": 107.213054,
          "velocity": 0.8188976377952756
        },
        {
          "duration": 0.10737698833332843,
          "durationTicks": 131,
          "midi": 63,
          "name": "D#4",
          "ticks": 130950,
          "time": 107.33600475,
          "velocity": 0.8188976377952756
        },
        {
          "duration": 0.10737698833332843,
          "durationTicks": 131,
          "midi": 67,
          "name": "G4",
          "ticks": 131100,
          "time": 107.4589555,
          "velocity": 0.8188976377952756
        },
        {
          "duration": 0.10737698833332843,
          "durationTicks": 131,
          "midi": 63,
          "name": "D#4",
          "ticks": 131250,
          "time": 107.58190625,
          "velocity": 0.8188976377952756
        },
        {
          "duration": 0.10737698833332843,
          "durationTicks": 131,
          "midi": 55,
          "name": "G3",
          "ticks": 131400,
          "time": 107.704857,
          "velocity": 0.8188976377952756
        },
        {
          "duration": 0.10737698833334264,
          "durationTicks": 131,
          "midi": 63,
          "name": "D#4",
          "ticks": 131550,
          "time": 107.82780774999999,
          "velocity": 0.8188976377952756
        },
        {
          "duration": 0.10737698833334264,
          "durationTicks": 131,
          "midi": 67,
          "name": "G4",
          "ticks": 131700,
          "time": 107.95075849999999,
          "velocity": 0.8188976377952756
        },
        {
          "duration": 0.10737698833334264,
          "durationTicks": 131,
          "midi": 63,
          "name": "D#4",
          "ticks": 131850,
          "time": 108.07370925,
          "velocity": 0.8188976377952756
        },
        {
          "duration": 0.10737698833334264,
          "durationTicks": 131,
          "midi": 60,
          "name": "C4",
          "ticks": 132000,
          "time": 108.19666,
          "velocity": 0.8188976377952756
        },
        {
          "duration": 0.10737698833334264,
          "durationTicks": 131,
          "midi": 63,
          "name": "D#4",
          "ticks": 132150,
          "time": 108.31961075,
          "velocity": 0.8188976377952756
        },
        {
          "duration": 0.10737698833332843,
          "durationTicks": 131,
          "midi": 67,
          "name": "G4",
          "ticks": 132300,
          "time": 108.4425615,
          "velocity": 0.8188976377952756
        },
        {
          "duration": 0.10737698833332843,
          "durationTicks": 131,
          "midi": 63,
          "name": "D#4",
          "ticks": 132450,
          "time": 108.56551225,
          "velocity": 0.8188976377952756
        },
        {
          "duration": 0.10737698833332843,
          "durationTicks": 131,
          "midi": 60,
          "name": "C4",
          "ticks": 132600,
          "time": 108.688463,
          "velocity": 0.8188976377952756
        },
        {
          "duration": 0.10737698833332843,
          "durationTicks": 131,
          "midi": 63,
          "name": "D#4",
          "ticks": 132750,
          "time": 108.81141375,
          "velocity": 0.8188976377952756
        },
        {
          "duration": 0.10737698833332843,
          "durationTicks": 131,
          "midi": 67,
          "name": "G4",
          "ticks": 132900,
          "time": 108.9343645,
          "velocity": 0.8188976377952756
        },
        {
          "duration": 0.10737698833332843,
          "durationTicks": 131,
          "midi": 63,
          "name": "D#4",
          "ticks": 133050,
          "time": 109.05731525,
          "velocity": 0.8188976377952756
        },
        {
          "duration": 0.10737698833332843,
          "durationTicks": 131,
          "midi": 62,
          "name": "D4",
          "ticks": 134400,
          "time": 110.163872,
          "velocity": 0.8110236220472441
        },
        {
          "duration": 0.10737698833332843,
          "durationTicks": 131,
          "midi": 65,
          "name": "F4",
          "ticks": 134550,
          "time": 110.28682275,
          "velocity": 0.8110236220472441
        },
        {
          "duration": 0.10737698833332843,
          "durationTicks": 131,
          "midi": 69,
          "name": "A4",
          "ticks": 134700,
          "time": 110.4097735,
          "velocity": 0.8110236220472441
        },
        {
          "duration": 0.10737698833332843,
          "durationTicks": 131,
          "midi": 65,
          "name": "F4",
          "ticks": 134850,
          "time": 110.53272425,
          "velocity": 0.8110236220472441
        },
        {
          "duration": 0.10737698833332843,
          "durationTicks": 131,
          "midi": 62,
          "name": "D4",
          "ticks": 135000,
          "time": 110.655675,
          "velocity": 0.8110236220472441
        },
        {
          "duration": 0.10737698833332843,
          "durationTicks": 131,
          "midi": 65,
          "name": "F4",
          "ticks": 135150,
          "time": 110.77862575,
          "velocity": 0.8110236220472441
        },
        {
          "duration": 0.10737698833332843,
          "durationTicks": 131,
          "midi": 69,
          "name": "A4",
          "ticks": 135300,
          "time": 110.9015765,
          "velocity": 0.8110236220472441
        },
        {
          "duration": 0.10737698833334264,
          "durationTicks": 131,
          "midi": 65,
          "name": "F4",
          "ticks": 135450,
          "time": 111.02452724999999,
          "velocity": 0.8188976377952756
        },
        {
          "duration": 0.10737698833334264,
          "durationTicks": 131,
          "midi": 62,
          "name": "D4",
          "ticks": 135600,
          "time": 111.14747799999999,
          "velocity": 0.8188976377952756
        },
        {
          "duration": 0.10737698833334264,
          "durationTicks": 131,
          "midi": 65,
          "name": "F4",
          "ticks": 135750,
          "time": 111.27042875,
          "velocity": 0.8188976377952756
        },
        {
          "duration": 0.10737698833334264,
          "durationTicks": 131,
          "midi": 69,
          "name": "A4",
          "ticks": 135900,
          "time": 111.3933795,
          "velocity": 0.8188976377952756
        },
        {
          "duration": 0.10737698833332843,
          "durationTicks": 131,
          "midi": 65,
          "name": "F4",
          "ticks": 136050,
          "time": 111.51633025,
          "velocity": 0.8188976377952756
        },
        {
          "duration": 0.10737698833332843,
          "durationTicks": 131,
          "midi": 62,
          "name": "D4",
          "ticks": 136200,
          "time": 111.639281,
          "velocity": 0.8188976377952756
        },
        {
          "duration": 0.10737698833332843,
          "durationTicks": 131,
          "midi": 65,
          "name": "F4",
          "ticks": 136350,
          "time": 111.76223175,
          "velocity": 0.8188976377952756
        },
        {
          "duration": 0.10737698833332843,
          "durationTicks": 131,
          "midi": 69,
          "name": "A4",
          "ticks": 136500,
          "time": 111.8851825,
          "velocity": 0.8188976377952756
        },
        {
          "duration": 0.10737698833332843,
          "durationTicks": 131,
          "midi": 65,
          "name": "F4",
          "ticks": 136650,
          "time": 112.00813325,
          "velocity": 0.8188976377952756
        },
        {
          "duration": 0.10737698833332843,
          "durationTicks": 131,
          "midi": 62,
          "name": "D4",
          "ticks": 136800,
          "time": 112.131084,
          "velocity": 0.8188976377952756
        },
        {
          "duration": 0.10737698833332843,
          "durationTicks": 131,
          "midi": 65,
          "name": "F4",
          "ticks": 136950,
          "time": 112.25403475,
          "velocity": 0.8188976377952756
        },
        {
          "duration": 0.10737698833332843,
          "durationTicks": 131,
          "midi": 69,
          "name": "A4",
          "ticks": 137100,
          "time": 112.3769855,
          "velocity": 0.8188976377952756
        },
        {
          "duration": 0.10737698833332843,
          "durationTicks": 131,
          "midi": 65,
          "name": "F4",
          "ticks": 137250,
          "time": 112.49993625,
          "velocity": 0.8188976377952756
        },
        {
          "duration": 0.10737698833334264,
          "durationTicks": 131,
          "midi": 62,
          "name": "D4",
          "ticks": 137400,
          "time": 112.62288699999999,
          "velocity": 0.8188976377952756
        },
        {
          "duration": 0.10737698833334264,
          "durationTicks": 131,
          "midi": 65,
          "name": "F4",
          "ticks": 137550,
          "time": 112.74583774999999,
          "velocity": 0.8188976377952756
        },
        {
          "duration": 0.10737698833334264,
          "durationTicks": 131,
          "midi": 69,
          "name": "A4",
          "ticks": 137700,
          "time": 112.8687885,
          "velocity": 0.8267716535433071
        },
        {
          "duration": 0.10737698833334264,
          "durationTicks": 131,
          "midi": 65,
          "name": "F4",
          "ticks": 137850,
          "time": 112.99173925,
          "velocity": 0.8267716535433071
        },
        {
          "duration": 0.10737698833332843,
          "durationTicks": 131,
          "midi": 62,
          "name": "D4",
          "ticks": 138000,
          "time": 113.11469,
          "velocity": 0.8267716535433071
        },
        {
          "duration": 0.10737698833332843,
          "durationTicks": 131,
          "midi": 65,
          "name": "F4",
          "ticks": 138150,
          "time": 113.23764075,
          "velocity": 0.8267716535433071
        },
        {
          "duration": 0.10737698833332843,
          "durationTicks": 131,
          "midi": 69,
          "name": "A4",
          "ticks": 138300,
          "time": 113.3605915,
          "velocity": 0.8267716535433071
        },
        {
          "duration": 0.10737698833332843,
          "durationTicks": 131,
          "midi": 65,
          "name": "F4",
          "ticks": 138450,
          "time": 113.48354225,
          "velocity": 0.8267716535433071
        },
        {
          "duration": 0.10737698833332843,
          "durationTicks": 131,
          "midi": 62,
          "name": "D4",
          "ticks": 138600,
          "time": 113.606493,
          "velocity": 0.8267716535433071
        },
        {
          "duration": 0.10737698833332843,
          "durationTicks": 131,
          "midi": 65,
          "name": "F4",
          "ticks": 138750,
          "time": 113.72944375,
          "velocity": 0.8267716535433071
        },
        {
          "duration": 0.10737698833332843,
          "durationTicks": 131,
          "midi": 69,
          "name": "A4",
          "ticks": 138900,
          "time": 113.8523945,
          "velocity": 0.8267716535433071
        },
        {
          "duration": 0.10737698833332843,
          "durationTicks": 131,
          "midi": 65,
          "name": "F4",
          "ticks": 139050,
          "time": 113.97534525,
          "velocity": 0.8267716535433071
        },
        {
          "duration": 0.10737698833332843,
          "durationTicks": 131,
          "midi": 58,
          "name": "A#3",
          "ticks": 139200,
          "time": 114.098296,
          "velocity": 0.8267716535433071
        },
        {
          "duration": 0.10737698833334264,
          "durationTicks": 131,
          "midi": 65,
          "name": "F4",
          "ticks": 139350,
          "time": 114.22124674999999,
          "velocity": 0.8267716535433071
        },
        {
          "duration": 0.10737698833334264,
          "durationTicks": 131,
          "midi": 69,
          "name": "A4",
          "ticks": 139500,
          "time": 114.34419749999999,
          "velocity": 0.8267716535433071
        },
        {
          "duration": 0.10737698833334264,
          "durationTicks": 131,
          "midi": 65,
          "name": "F4",
          "ticks": 139650,
          "time": 114.46714825,
          "velocity": 0.8267716535433071
        },
        {
          "duration": 0.10737698833334264,
          "durationTicks": 131,
          "midi": 58,
          "name": "A#3",
          "ticks": 139800,
          "time": 114.590099,
          "velocity": 0.8346456692913385
        },
        {
          "duration": 0.10737698833332843,
          "durationTicks": 131,
          "midi": 65,
          "name": "F4",
          "ticks": 139950,
          "time": 114.71304975,
          "velocity": 0.8346456692913385
        },
        {
          "duration": 0.10737698833332843,
          "durationTicks": 131,
          "midi": 69,
          "name": "A4",
          "ticks": 140100,
          "time": 114.8360005,
          "velocity": 0.8346456692913385
        },
        {
          "duration": 0.10737698833332843,
          "durationTicks": 131,
          "midi": 65,
          "name": "F4",
          "ticks": 140250,
          "time": 114.95895125,
          "velocity": 0.8346456692913385
        },
        {
          "duration": 0.10737698833332843,
          "durationTicks": 131,
          "midi": 58,
          "name": "A#3",
          "ticks": 140400,
          "time": 115.081902,
          "velocity": 0.8346456692913385
        },
        {
          "duration": 0.10737698833332843,
          "durationTicks": 131,
          "midi": 65,
          "name": "F4",
          "ticks": 140550,
          "time": 115.20485275,
          "velocity": 0.8346456692913385
        },
        {
          "duration": 0.10737698833332843,
          "durationTicks": 131,
          "midi": 69,
          "name": "A4",
          "ticks": 140700,
          "time": 115.3278035,
          "velocity": 0.8346456692913385
        },
        {
          "duration": 0.10737698833332843,
          "durationTicks": 131,
          "midi": 65,
          "name": "F4",
          "ticks": 140850,
          "time": 115.45075425,
          "velocity": 0.8346456692913385
        },
        {
          "duration": 0.10737698833332843,
          "durationTicks": 131,
          "midi": 58,
          "name": "A#3",
          "ticks": 141000,
          "time": 115.573705,
          "velocity": 0.8346456692913385
        },
        {
          "duration": 0.10737698833334264,
          "durationTicks": 131,
          "midi": 65,
          "name": "F4",
          "ticks": 141150,
          "time": 115.69665574999999,
          "velocity": 0.8346456692913385
        },
        {
          "duration": 0.10737698833334264,
          "durationTicks": 131,
          "midi": 69,
          "name": "A4",
          "ticks": 141300,
          "time": 115.81960649999999,
          "velocity": 0.8346456692913385
        },
        {
          "duration": 0.10737698833334264,
          "durationTicks": 131,
          "midi": 65,
          "name": "F4",
          "ticks": 141450,
          "time": 115.94255725,
          "velocity": 0.8346456692913385
        },
        {
          "duration": 0.10737698833334264,
          "durationTicks": 131,
          "midi": 60,
          "name": "C4",
          "ticks": 141600,
          "time": 116.065508,
          "velocity": 0.8346456692913385
        },
        {
          "duration": 0.10737698833334264,
          "durationTicks": 131,
          "midi": 65,
          "name": "F4",
          "ticks": 141750,
          "time": 116.18845875,
          "velocity": 0.8346456692913385
        },
        {
          "duration": 0.10737698833332843,
          "durationTicks": 131,
          "midi": 69,
          "name": "A4",
          "ticks": 141900,
          "time": 116.3114095,
          "velocity": 0.8346456692913385
        },
        {
          "duration": 0.10737698833332843,
          "durationTicks": 131,
          "midi": 65,
          "name": "F4",
          "ticks": 142050,
          "time": 116.43436025,
          "velocity": 0.84251968503937
        },
        {
          "duration": 0.10737698833332843,
          "durationTicks": 131,
          "midi": 60,
          "name": "C4",
          "ticks": 142200,
          "time": 116.557311,
          "velocity": 0.84251968503937
        },
        {
          "duration": 0.10737698833332843,
          "durationTicks": 131,
          "midi": 65,
          "name": "F4",
          "ticks": 142350,
          "time": 116.68026175,
          "velocity": 0.84251968503937
        },
        {
          "duration": 0.10737698833332843,
          "durationTicks": 131,
          "midi": 69,
          "name": "A4",
          "ticks": 142500,
          "time": 116.8032125,
          "velocity": 0.84251968503937
        },
        {
          "duration": 0.10737698833332843,
          "durationTicks": 131,
          "midi": 65,
          "name": "F4",
          "ticks": 142650,
          "time": 116.92616325,
          "velocity": 0.84251968503937
        },
        {
          "duration": 0.10737698833332843,
          "durationTicks": 131,
          "midi": 61,
          "name": "C#4",
          "ticks": 142800,
          "time": 117.049114,
          "velocity": 0.84251968503937
        },
        {
          "duration": 0.10737698833332843,
          "durationTicks": 131,
          "midi": 65,
          "name": "F4",
          "ticks": 142950,
          "time": 117.17206475,
          "velocity": 0.84251968503937
        },
        {
          "duration": 0.10737698833334264,
          "durationTicks": 131,
          "midi": 69,
          "name": "A4",
          "ticks": 143100,
          "time": 117.29501549999999,
          "velocity": 0.84251968503937
        },
        {
          "duration": 0.10737698833334264,
          "durationTicks": 131,
          "midi": 65,
          "name": "F4",
          "ticks": 143250,
          "time": 117.41796624999999,
          "velocity": 0.84251968503937
        },
        {
          "duration": 0.10737698833334264,
          "durationTicks": 131,
          "midi": 61,
          "name": "C#4",
          "ticks": 143400,
          "time": 117.540917,
          "velocity": 0.84251968503937
        },
        {
          "duration": 0.10737698833334264,
          "durationTicks": 131,
          "midi": 65,
          "name": "F4",
          "ticks": 143550,
          "time": 117.66386775,
          "velocity": 0.84251968503937
        },
        {
          "duration": 0.10737698833334264,
          "durationTicks": 131,
          "midi": 69,
          "name": "A4",
          "ticks": 143700,
          "time": 117.7868185,
          "velocity": 0.84251968503937
        },
        {
          "duration": 0.10737698833332843,
          "durationTicks": 131,
          "midi": 65,
          "name": "F4",
          "ticks": 143850,
          "time": 117.90976925,
          "velocity": 0.84251968503937
        },
        {
          "duration": 0.10737698833332843,
          "durationTicks": 131,
          "midi": 62,
          "name": "D4",
          "ticks": 144000,
          "time": 118.03272,
          "velocity": 0.8110236220472441
        },
        {
          "duration": 0.10737698833332843,
          "durationTicks": 131,
          "midi": 65,
          "name": "F4",
          "ticks": 144150,
          "time": 118.15567075,
          "velocity": 0.8110236220472441
        },
        {
          "duration": 0.10737698833332843,
          "durationTicks": 131,
          "midi": 69,
          "name": "A4",
          "ticks": 144300,
          "time": 118.2786215,
          "velocity": 0.8110236220472441
        },
        {
          "duration": 0.10737698833332843,
          "durationTicks": 131,
          "midi": 65,
          "name": "F4",
          "ticks": 144450,
          "time": 118.40157225,
          "velocity": 0.8110236220472441
        },
        {
          "duration": 0.10737698833332843,
          "durationTicks": 131,
          "midi": 62,
          "name": "D4",
          "ticks": 144600,
          "time": 118.524523,
          "velocity": 0.8110236220472441
        },
        {
          "duration": 0.10737698833332843,
          "durationTicks": 131,
          "midi": 65,
          "name": "F4",
          "ticks": 144750,
          "time": 118.64747375,
          "velocity": 0.8110236220472441
        },
        {
          "duration": 0.10737698833332843,
          "durationTicks": 131,
          "midi": 69,
          "name": "A4",
          "ticks": 144900,
          "time": 118.7704245,
          "velocity": 0.8110236220472441
        },
        {
          "duration": 0.10737698833334264,
          "durationTicks": 131,
          "midi": 65,
          "name": "F4",
          "ticks": 145050,
          "time": 118.89337524999999,
          "velocity": 0.8188976377952756
        },
        {
          "duration": 0.10737698833334264,
          "durationTicks": 131,
          "midi": 62,
          "name": "D4",
          "ticks": 145200,
          "time": 119.01632599999999,
          "velocity": 0.8188976377952756
        },
        {
          "duration": 0.10737698833334264,
          "durationTicks": 131,
          "midi": 65,
          "name": "F4",
          "ticks": 145350,
          "time": 119.13927675,
          "velocity": 0.8188976377952756
        },
        {
          "duration": 0.10737698833334264,
          "durationTicks": 131,
          "midi": 69,
          "name": "A4",
          "ticks": 145500,
          "time": 119.2622275,
          "velocity": 0.8188976377952756
        },
        {
          "duration": 0.10737698833332843,
          "durationTicks": 131,
          "midi": 65,
          "name": "F4",
          "ticks": 145650,
          "time": 119.38517825,
          "velocity": 0.8188976377952756
        },
        {
          "duration": 0.10737698833332843,
          "durationTicks": 131,
          "midi": 62,
          "name": "D4",
          "ticks": 145800,
          "time": 119.508129,
          "velocity": 0.8188976377952756
        },
        {
          "duration": 0.10737698833332843,
          "durationTicks": 131,
          "midi": 65,
          "name": "F4",
          "ticks": 145950,
          "time": 119.63107975,
          "velocity": 0.8188976377952756
        },
        {
          "duration": 0.10737698833332843,
          "durationTicks": 131,
          "midi": 69,
          "name": "A4",
          "ticks": 146100,
          "time": 119.7540305,
          "velocity": 0.8188976377952756
        },
        {
          "duration": 0.10737698833332843,
          "durationTicks": 131,
          "midi": 65,
          "name": "F4",
          "ticks": 146250,
          "time": 119.87698125,
          "velocity": 0.8188976377952756
        },
        {
          "duration": 0.10737698833332843,
          "durationTicks": 131,
          "midi": 62,
          "name": "D4",
          "ticks": 146400,
          "time": 119.999932,
          "velocity": 0.8188976377952756
        },
        {
          "duration": 0.10737698833332843,
          "durationTicks": 131,
          "midi": 65,
          "name": "F4",
          "ticks": 146550,
          "time": 120.12288275,
          "velocity": 0.8188976377952756
        },
        {
          "duration": 0.10737698833332843,
          "durationTicks": 131,
          "midi": 69,
          "name": "A4",
          "ticks": 146700,
          "time": 120.2458335,
          "velocity": 0.8188976377952756
        },
        {
          "duration": 0.10737698833332843,
          "durationTicks": 131,
          "midi": 65,
          "name": "F4",
          "ticks": 146850,
          "time": 120.36878425,
          "velocity": 0.8188976377952756
        },
        {
          "duration": 0.10737698833334264,
          "durationTicks": 131,
          "midi": 62,
          "name": "D4",
          "ticks": 147000,
          "time": 120.49173499999999,
          "velocity": 0.8188976377952756
        },
        {
          "duration": 0.10737698833334264,
          "durationTicks": 131,
          "midi": 65,
          "name": "F4",
          "ticks": 147150,
          "time": 120.61468574999999,
          "velocity": 0.8188976377952756
        },
        {
          "duration": 0.10737698833334264,
          "durationTicks": 131,
          "midi": 69,
          "name": "A4",
          "ticks": 147300,
          "time": 120.7376365,
          "velocity": 0.8267716535433071
        },
        {
          "duration": 0.10737698833334264,
          "durationTicks": 131,
          "midi": 65,
          "name": "F4",
          "ticks": 147450,
          "time": 120.86058725,
          "velocity": 0.8267716535433071
        },
        {
          "duration": 0.10737698833332843,
          "durationTicks": 131,
          "midi": 62,
          "name": "D4",
          "ticks": 147600,
          "time": 120.983538,
          "velocity": 0.8267716535433071
        },
        {
          "duration": 0.10737698833332843,
          "durationTicks": 131,
          "midi": 65,
          "name": "F4",
          "ticks": 147750,
          "time": 121.10648875,
          "velocity": 0.8267716535433071
        },
        {
          "duration": 0.10737698833332843,
          "durationTicks": 131,
          "midi": 69,
          "name": "A4",
          "ticks": 147900,
          "time": 121.2294395,
          "velocity": 0.8267716535433071
        },
        {
          "duration": 0.10737698833332843,
          "durationTicks": 131,
          "midi": 65,
          "name": "F4",
          "ticks": 148050,
          "time": 121.35239025,
          "velocity": 0.8267716535433071
        },
        {
          "duration": 0.10737698833332843,
          "durationTicks": 131,
          "midi": 62,
          "name": "D4",
          "ticks": 148200,
          "time": 121.475341,
          "velocity": 0.8267716535433071
        },
        {
          "duration": 0.10737698833332843,
          "durationTicks": 131,
          "midi": 65,
          "name": "F4",
          "ticks": 148350,
          "time": 121.59829175,
          "velocity": 0.8267716535433071
        },
        {
          "duration": 0.10737698833332843,
          "durationTicks": 131,
          "midi": 69,
          "name": "A4",
          "ticks": 148500,
          "time": 121.7212425,
          "velocity": 0.8267716535433071
        },
        {
          "duration": 0.10737698833332843,
          "durationTicks": 131,
          "midi": 65,
          "name": "F4",
          "ticks": 148650,
          "time": 121.84419325,
          "velocity": 0.8267716535433071
        },
        {
          "duration": 0.10737698833334264,
          "durationTicks": 131,
          "midi": 58,
          "name": "A#3",
          "ticks": 148800,
          "time": 121.96714399999999,
          "velocity": 0.8267716535433071
        },
        {
          "duration": 0.10737698833334264,
          "durationTicks": 131,
          "midi": 65,
          "name": "F4",
          "ticks": 148950,
          "time": 122.09009474999999,
          "velocity": 0.8267716535433071
        },
        {
          "duration": 0.10737698833334264,
          "durationTicks": 131,
          "midi": 69,
          "name": "A4",
          "ticks": 149100,
          "time": 122.21304549999999,
          "velocity": 0.8267716535433071
        },
        {
          "duration": 0.10737698833334264,
          "durationTicks": 131,
          "midi": 65,
          "name": "F4",
          "ticks": 149250,
          "time": 122.33599625,
          "velocity": 0.8267716535433071
        },
        {
          "duration": 0.10737698833334264,
          "durationTicks": 131,
          "midi": 58,
          "name": "A#3",
          "ticks": 149400,
          "time": 122.458947,
          "velocity": 0.8346456692913385
        },
        {
          "duration": 0.10737698833332843,
          "durationTicks": 131,
          "midi": 65,
          "name": "F4",
          "ticks": 149550,
          "time": 122.58189775,
          "velocity": 0.8346456692913385
        },
        {
          "duration": 0.10737698833332843,
          "durationTicks": 131,
          "midi": 69,
          "name": "A4",
          "ticks": 149700,
          "time": 122.7048485,
          "velocity": 0.8346456692913385
        },
        {
          "duration": 0.10737698833332843,
          "durationTicks": 131,
          "midi": 65,
          "name": "F4",
          "ticks": 149850,
          "time": 122.82779925,
          "velocity": 0.8346456692913385
        },
        {
          "duration": 0.10737698833332843,
          "durationTicks": 131,
          "midi": 58,
          "name": "A#3",
          "ticks": 150000,
          "time": 122.95075,
          "velocity": 0.8346456692913385
        },
        {
          "duration": 0.10737698833332843,
          "durationTicks": 131,
          "midi": 65,
          "name": "F4",
          "ticks": 150150,
          "time": 123.07370075,
          "velocity": 0.8346456692913385
        },
        {
          "duration": 0.10737698833332843,
          "durationTicks": 131,
          "midi": 69,
          "name": "A4",
          "ticks": 150300,
          "time": 123.1966515,
          "velocity": 0.8346456692913385
        },
        {
          "duration": 0.10737698833332843,
          "durationTicks": 131,
          "midi": 65,
          "name": "F4",
          "ticks": 150450,
          "time": 123.31960225,
          "velocity": 0.8346456692913385
        },
        {
          "duration": 0.10737698833332843,
          "durationTicks": 131,
          "midi": 58,
          "name": "A#3",
          "ticks": 150600,
          "time": 123.442553,
          "velocity": 0.8346456692913385
        },
        {
          "duration": 0.10737698833334264,
          "durationTicks": 131,
          "midi": 65,
          "name": "F4",
          "ticks": 150750,
          "time": 123.56550374999999,
          "velocity": 0.8346456692913385
        },
        {
          "duration": 0.10737698833334264,
          "durationTicks": 131,
          "midi": 69,
          "name": "A4",
          "ticks": 150900,
          "time": 123.68845449999999,
          "velocity": 0.8346456692913385
        },
        {
          "duration": 0.10737698833334264,
          "durationTicks": 131,
          "midi": 65,
          "name": "F4",
          "ticks": 151050,
          "time": 123.81140524999999,
          "velocity": 0.8346456692913385
        },
        {
          "duration": 0.10737698833334264,
          "durationTicks": 131,
          "midi": 60,
          "name": "C4",
          "ticks": 151200,
          "time": 123.934356,
          "velocity": 0.8346456692913385
        },
        {
          "duration": 0.10737698833334264,
          "durationTicks": 131,
          "midi": 65,
          "name": "F4",
          "ticks": 151350,
          "time": 124.05730675,
          "velocity": 0.8346456692913385
        },
        {
          "duration": 0.10737698833332843,
          "durationTicks": 131,
          "midi": 69,
          "name": "A4",
          "ticks": 151500,
          "time": 124.1802575,
          "velocity": 0.8346456692913385
        },
        {
          "duration": 0.10737698833332843,
          "durationTicks": 131,
          "midi": 65,
          "name": "F4",
          "ticks": 151650,
          "time": 124.30320825,
          "velocity": 0.84251968503937
        },
        {
          "duration": 0.10737698833332843,
          "durationTicks": 131,
          "midi": 60,
          "name": "C4",
          "ticks": 151800,
          "time": 124.426159,
          "velocity": 0.84251968503937
        },
        {
          "duration": 0.10737698833332843,
          "durationTicks": 131,
          "midi": 65,
          "name": "F4",
          "ticks": 151950,
          "time": 124.54910975,
          "velocity": 0.84251968503937
        },
        {
          "duration": 0.10737698833332843,
          "durationTicks": 131,
          "midi": 69,
          "name": "A4",
          "ticks": 152100,
          "time": 124.6720605,
          "velocity": 0.84251968503937
        },
        {
          "duration": 0.10737698833332843,
          "durationTicks": 131,
          "midi": 65,
          "name": "F4",
          "ticks": 152250,
          "time": 124.79501125,
          "velocity": 0.84251968503937
        },
        {
          "duration": 0.10737698833332843,
          "durationTicks": 131,
          "midi": 61,
          "name": "C#4",
          "ticks": 152400,
          "time": 124.917962,
          "velocity": 0.84251968503937
        },
        {
          "duration": 0.10737698833332843,
          "durationTicks": 131,
          "midi": 65,
          "name": "F4",
          "ticks": 152550,
          "time": 125.04091275,
          "velocity": 0.84251968503937
        },
        {
          "duration": 0.10737698833334264,
          "durationTicks": 131,
          "midi": 69,
          "name": "A4",
          "ticks": 152700,
          "time": 125.16386349999999,
          "velocity": 0.84251968503937
        },
        {
          "duration": 0.10737698833334264,
          "durationTicks": 131,
          "midi": 65,
          "name": "F4",
          "ticks": 152850,
          "time": 125.28681424999999,
          "velocity": 0.84251968503937
        },
        {
          "duration": 0.10737698833334264,
          "durationTicks": 131,
          "midi": 61,
          "name": "C#4",
          "ticks": 153000,
          "time": 125.409765,
          "velocity": 0.84251968503937
        },
        {
          "duration": 0.10737698833334264,
          "durationTicks": 131,
          "midi": 65,
          "name": "F4",
          "ticks": 153150,
          "time": 125.53271575,
          "velocity": 0.84251968503937
        },
        {
          "duration": 0.10737698833334264,
          "durationTicks": 131,
          "midi": 69,
          "name": "A4",
          "ticks": 153300,
          "time": 125.6556665,
          "velocity": 0.84251968503937
        },
        {
          "duration": 0.10737698833332843,
          "durationTicks": 131,
          "midi": 65,
          "name": "F4",
          "ticks": 153450,
          "time": 125.77861725,
          "velocity": 0.84251968503937
        },
        {
          "duration": 0.10737698833331422,
          "durationTicks": 131,
          "midi": 62,
          "name": "D4",
          "ticks": 153600,
          "time": 125.901568,
          "velocity": 0.8110236220472441
        },
        {
          "duration": 0.10737698833331422,
          "durationTicks": 131,
          "midi": 65,
          "name": "F4",
          "ticks": 153750,
          "time": 126.02451875,
          "velocity": 0.8110236220472441
        },
        {
          "duration": 0.10737698833331422,
          "durationTicks": 131,
          "midi": 69,
          "name": "A4",
          "ticks": 153900,
          "time": 126.1474695,
          "velocity": 0.8110236220472441
        },
        {
          "duration": 0.10737698833331422,
          "durationTicks": 131,
          "midi": 65,
          "name": "F4",
          "ticks": 154050,
          "time": 126.27042025,
          "velocity": 0.8110236220472441
        },
        {
          "duration": 0.10737698833331422,
          "durationTicks": 131,
          "midi": 62,
          "name": "D4",
          "ticks": 154200,
          "time": 126.393371,
          "velocity": 0.8110236220472441
        },
        {
          "duration": 0.10737698833331422,
          "durationTicks": 131,
          "midi": 65,
          "name": "F4",
          "ticks": 154350,
          "time": 126.51632175,
          "velocity": 0.8110236220472441
        },
        {
          "duration": 0.10737698833331422,
          "durationTicks": 131,
          "midi": 69,
          "name": "A4",
          "ticks": 154500,
          "time": 126.6392725,
          "velocity": 0.8110236220472441
        },
        {
          "duration": 0.10737698833332843,
          "durationTicks": 131,
          "midi": 65,
          "name": "F4",
          "ticks": 154650,
          "time": 126.76222324999999,
          "velocity": 0.8188976377952756
        },
        {
          "duration": 0.10737698833332843,
          "durationTicks": 131,
          "midi": 62,
          "name": "D4",
          "ticks": 154800,
          "time": 126.88517399999999,
          "velocity": 0.8188976377952756
        },
        {
          "duration": 0.10737698833332843,
          "durationTicks": 131,
          "midi": 65,
          "name": "F4",
          "ticks": 154950,
          "time": 127.00812475,
          "velocity": 0.8188976377952756
        },
        {
          "duration": 0.10737698833332843,
          "durationTicks": 131,
          "midi": 69,
          "name": "A4",
          "ticks": 155100,
          "time": 127.1310755,
          "velocity": 0.8188976377952756
        },
        {
          "duration": 0.10737698833332843,
          "durationTicks": 131,
          "midi": 65,
          "name": "F4",
          "ticks": 155250,
          "time": 127.25402625,
          "velocity": 0.8188976377952756
        },
        {
          "duration": 0.10737698833331422,
          "durationTicks": 131,
          "midi": 62,
          "name": "D4",
          "ticks": 155400,
          "time": 127.376977,
          "velocity": 0.8188976377952756
        },
        {
          "duration": 0.10737698833331422,
          "durationTicks": 131,
          "midi": 65,
          "name": "F4",
          "ticks": 155550,
          "time": 127.49992775,
          "velocity": 0.8188976377952756
        },
        {
          "duration": 0.10737698833331422,
          "durationTicks": 131,
          "midi": 69,
          "name": "A4",
          "ticks": 155700,
          "time": 127.6228785,
          "velocity": 0.8188976377952756
        },
        {
          "duration": 0.10737698833331422,
          "durationTicks": 131,
          "midi": 65,
          "name": "F4",
          "ticks": 155850,
          "time": 127.74582925,
          "velocity": 0.8188976377952756
        },
        {
          "duration": 0.10737698833331422,
          "durationTicks": 131,
          "midi": 62,
          "name": "D4",
          "ticks": 156000,
          "time": 127.86878,
          "velocity": 0.8188976377952756
        },
        {
          "duration": 0.10737698833331422,
          "durationTicks": 131,
          "midi": 65,
          "name": "F4",
          "ticks": 156150,
          "time": 127.99173075,
          "velocity": 0.8188976377952756
        },
        {
          "duration": 0.10737698833332843,
          "durationTicks": 131,
          "midi": 69,
          "name": "A4",
          "ticks": 156300,
          "time": 128.1146815,
          "velocity": 0.8188976377952756
        },
        {
          "duration": 0.10737698833332843,
          "durationTicks": 131,
          "midi": 65,
          "name": "F4",
          "ticks": 156450,
          "time": 128.23763225,
          "velocity": 0.8188976377952756
        },
        {
          "duration": 0.10737698833332843,
          "durationTicks": 131,
          "midi": 62,
          "name": "D4",
          "ticks": 156600,
          "time": 128.360583,
          "velocity": 0.8188976377952756
        },
        {
          "duration": 0.10737698833332843,
          "durationTicks": 131,
          "midi": 65,
          "name": "F4",
          "ticks": 156750,
          "time": 128.48353375,
          "velocity": 0.8188976377952756
        },
        {
          "duration": 0.10737698833332843,
          "durationTicks": 131,
          "midi": 69,
          "name": "A4",
          "ticks": 156900,
          "time": 128.6064845,
          "velocity": 0.8267716535433071
        },
        {
          "duration": 0.10737698833332843,
          "durationTicks": 131,
          "midi": 65,
          "name": "F4",
          "ticks": 157050,
          "time": 128.72943525,
          "velocity": 0.8267716535433071
        },
        {
          "duration": 0.10737698833332843,
          "durationTicks": 131,
          "midi": 62,
          "name": "D4",
          "ticks": 157200,
          "time": 128.852386,
          "velocity": 0.8267716535433071
        },
        {
          "duration": 0.10737698833332843,
          "durationTicks": 131,
          "midi": 65,
          "name": "F4",
          "ticks": 157350,
          "time": 128.97533675,
          "velocity": 0.8267716535433071
        },
        {
          "duration": 0.10737698833332843,
          "durationTicks": 131,
          "midi": 69,
          "name": "A4",
          "ticks": 157500,
          "time": 129.0982875,
          "velocity": 0.8267716535433071
        },
        {
          "duration": 0.10737698833332843,
          "durationTicks": 131,
          "midi": 65,
          "name": "F4",
          "ticks": 157650,
          "time": 129.22123825,
          "velocity": 0.8267716535433071
        },
        {
          "duration": 0.10737698833332843,
          "durationTicks": 131,
          "midi": 62,
          "name": "D4",
          "ticks": 157800,
          "time": 129.344189,
          "velocity": 0.8267716535433071
        },
        {
          "duration": 0.10737698833332843,
          "durationTicks": 131,
          "midi": 65,
          "name": "F4",
          "ticks": 157950,
          "time": 129.46713975,
          "velocity": 0.8267716535433071
        },
        {
          "duration": 0.10737698833332843,
          "durationTicks": 131,
          "midi": 69,
          "name": "A4",
          "ticks": 158100,
          "time": 129.5900905,
          "velocity": 0.8267716535433071
        },
        {
          "duration": 0.1073769883333,
          "durationTicks": 131,
          "midi": 65,
          "name": "F4",
          "ticks": 158250,
          "time": 129.71304125,
          "velocity": 0.8267716535433071
        },
        {
          "duration": 0.1073769883333,
          "durationTicks": 131,
          "midi": 58,
          "name": "A#3",
          "ticks": 158400,
          "time": 129.835992,
          "velocity": 0.8267716535433071
        },
        {
          "duration": 0.1073769883333,
          "durationTicks": 131,
          "midi": 65,
          "name": "F4",
          "ticks": 158550,
          "time": 129.95894275,
          "velocity": 0.8267716535433071
        },
        {
          "duration": 0.1073769883333,
          "durationTicks": 131,
          "midi": 69,
          "name": "A4",
          "ticks": 158700,
          "time": 130.0818935,
          "velocity": 0.8267716535433071
        },
        {
          "duration": 0.1073769883333,
          "durationTicks": 131,
          "midi": 65,
          "name": "F4",
          "ticks": 158850,
          "time": 130.20484425,
          "velocity": 0.8267716535433071
        },
        {
          "duration": 0.1073769883333,
          "durationTicks": 131,
          "midi": 58,
          "name": "A#3",
          "ticks": 159000,
          "time": 130.327795,
          "velocity": 0.8346456692913385
        },
        {
          "duration": 0.1073769883333,
          "durationTicks": 131,
          "midi": 65,
          "name": "F4",
          "ticks": 159150,
          "time": 130.45074575,
          "velocity": 0.8346456692913385
        },
        {
          "duration": 0.1073769883333,
          "durationTicks": 131,
          "midi": 69,
          "name": "A4",
          "ticks": 159300,
          "time": 130.5736965,
          "velocity": 0.8346456692913385
        },
        {
          "duration": 0.10737698833332843,
          "durationTicks": 131,
          "midi": 65,
          "name": "F4",
          "ticks": 159450,
          "time": 130.69664724999998,
          "velocity": 0.8346456692913385
        },
        {
          "duration": 0.10737698833332843,
          "durationTicks": 131,
          "midi": 58,
          "name": "A#3",
          "ticks": 159600,
          "time": 130.81959799999998,
          "velocity": 0.8346456692913385
        },
        {
          "duration": 0.10737698833332843,
          "durationTicks": 131,
          "midi": 65,
          "name": "F4",
          "ticks": 159750,
          "time": 130.94254875,
          "velocity": 0.8346456692913385
        },
        {
          "duration": 0.10737698833332843,
          "durationTicks": 131,
          "midi": 69,
          "name": "A4",
          "ticks": 159900,
          "time": 131.0654995,
          "velocity": 0.8346456692913385
        },
        {
          "duration": 0.10737698833332843,
          "durationTicks": 131,
          "midi": 65,
          "name": "F4",
          "ticks": 160050,
          "time": 131.18845025,
          "velocity": 0.8346456692913385
        },
        {
          "duration": 0.10737698833332843,
          "durationTicks": 131,
          "midi": 58,
          "name": "A#3",
          "ticks": 160200,
          "time": 131.311401,
          "velocity": 0.8346456692913385
        },
        {
          "duration": 0.10737698833332843,
          "durationTicks": 131,
          "midi": 65,
          "name": "F4",
          "ticks": 160350,
          "time": 131.43435175,
          "velocity": 0.8346456692913385
        },
        {
          "duration": 0.10737698833332843,
          "durationTicks": 131,
          "midi": 69,
          "name": "A4",
          "ticks": 160500,
          "time": 131.5573025,
          "velocity": 0.8346456692913385
        },
        {
          "duration": 0.10737698833332843,
          "durationTicks": 131,
          "midi": 65,
          "name": "F4",
          "ticks": 160650,
          "time": 131.68025325,
          "velocity": 0.8346456692913385
        },
        {
          "duration": 0.10737698833332843,
          "durationTicks": 131,
          "midi": 60,
          "name": "C4",
          "ticks": 160800,
          "time": 131.803204,
          "velocity": 0.8346456692913385
        },
        {
          "duration": 0.10737698833332843,
          "durationTicks": 131,
          "midi": 65,
          "name": "F4",
          "ticks": 160950,
          "time": 131.92615475,
          "velocity": 0.8346456692913385
        },
        {
          "duration": 0.10737698833332843,
          "durationTicks": 131,
          "midi": 69,
          "name": "A4",
          "ticks": 161100,
          "time": 132.0491055,
          "velocity": 0.8346456692913385
        },
        {
          "duration": 0.10737698833332843,
          "durationTicks": 131,
          "midi": 65,
          "name": "F4",
          "ticks": 161250,
          "time": 132.17205625,
          "velocity": 0.84251968503937
        },
        {
          "duration": 0.10737698833332843,
          "durationTicks": 131,
          "midi": 60,
          "name": "C4",
          "ticks": 161400,
          "time": 132.295007,
          "velocity": 0.84251968503937
        },
        {
          "duration": 0.10737698833332843,
          "durationTicks": 131,
          "midi": 65,
          "name": "F4",
          "ticks": 161550,
          "time": 132.41795775,
          "velocity": 0.84251968503937
        },
        {
          "duration": 0.10737698833332843,
          "durationTicks": 131,
          "midi": 69,
          "name": "A4",
          "ticks": 161700,
          "time": 132.5409085,
          "velocity": 0.84251968503937
        },
        {
          "duration": 0.10737698833332843,
          "durationTicks": 131,
          "midi": 65,
          "name": "F4",
          "ticks": 161850,
          "time": 132.66385925,
          "velocity": 0.84251968503937
        },
        {
          "duration": 0.1073769883333,
          "durationTicks": 131,
          "midi": 61,
          "name": "C#4",
          "ticks": 162000,
          "time": 132.78681,
          "velocity": 0.84251968503937
        },
        {
          "duration": 0.1073769883333,
          "durationTicks": 131,
          "midi": 65,
          "name": "F4",
          "ticks": 162150,
          "time": 132.90976075,
          "velocity": 0.84251968503937
        },
        {
          "duration": 0.1073769883333,
          "durationTicks": 131,
          "midi": 69,
          "name": "A4",
          "ticks": 162300,
          "time": 133.0327115,
          "velocity": 0.84251968503937
        },
        {
          "duration": 0.1073769883333,
          "durationTicks": 131,
          "midi": 65,
          "name": "F4",
          "ticks": 162450,
          "time": 133.15566225,
          "velocity": 0.84251968503937
        },
        {
          "duration": 0.1073769883333,
          "durationTicks": 131,
          "midi": 61,
          "name": "C#4",
          "ticks": 162600,
          "time": 133.278613,
          "velocity": 0.84251968503937
        },
        {
          "duration": 0.1073769883333,
          "durationTicks": 131,
          "midi": 65,
          "name": "F4",
          "ticks": 162750,
          "time": 133.40156375,
          "velocity": 0.84251968503937
        },
        {
          "duration": 0.1073769883333,
          "durationTicks": 131,
          "midi": 69,
          "name": "A4",
          "ticks": 162900,
          "time": 133.5245145,
          "velocity": 0.84251968503937
        },
        {
          "duration": 0.1073769883333,
          "durationTicks": 131,
          "midi": 65,
          "name": "F4",
          "ticks": 163050,
          "time": 133.64746525,
          "velocity": 0.84251968503937
        },
        {
          "duration": 0.1073769883333,
          "durationTicks": 131,
          "midi": 62,
          "name": "D4",
          "ticks": 163200,
          "time": 133.770416,
          "velocity": 0.8110236220472441
        },
        {
          "duration": 0.10737698833332843,
          "durationTicks": 131,
          "midi": 65,
          "name": "F4",
          "ticks": 163350,
          "time": 133.89336674999998,
          "velocity": 0.8110236220472441
        },
        {
          "duration": 0.10737698833332843,
          "durationTicks": 131,
          "midi": 69,
          "name": "A4",
          "ticks": 163500,
          "time": 134.01631749999999,
          "velocity": 0.8110236220472441
        },
        {
          "duration": 0.10737698833332843,
          "durationTicks": 131,
          "midi": 65,
          "name": "F4",
          "ticks": 163650,
          "time": 134.13926825,
          "velocity": 0.8110236220472441
        },
        {
          "duration": 0.10737698833332843,
          "durationTicks": 131,
          "midi": 62,
          "name": "D4",
          "ticks": 163800,
          "time": 134.262219,
          "velocity": 0.8110236220472441
        },
        {
          "duration": 0.10737698833332843,
          "durationTicks": 131,
          "midi": 65,
          "name": "F4",
          "ticks": 163950,
          "time": 134.38516975,
          "velocity": 0.8110236220472441
        },
        {
          "duration": 0.10737698833332843,
          "durationTicks": 131,
          "midi": 69,
          "name": "A4",
          "ticks": 164100,
          "time": 134.5081205,
          "velocity": 0.8110236220472441
        },
        {
          "duration": 0.10737698833332843,
          "durationTicks": 131,
          "midi": 65,
          "name": "F4",
          "ticks": 164250,
          "time": 134.63107125,
          "velocity": 0.8188976377952756
        },
        {
          "duration": 0.10737698833332843,
          "durationTicks": 131,
          "midi": 62,
          "name": "D4",
          "ticks": 164400,
          "time": 134.754022,
          "velocity": 0.8188976377952756
        },
        {
          "duration": 0.10737698833332843,
          "durationTicks": 131,
          "midi": 65,
          "name": "F4",
          "ticks": 164550,
          "time": 134.87697275,
          "velocity": 0.8188976377952756
        },
        {
          "duration": 0.10737698833332843,
          "durationTicks": 131,
          "midi": 69,
          "name": "A4",
          "ticks": 164700,
          "time": 134.9999235,
          "velocity": 0.8188976377952756
        },
        {
          "duration": 0.10737698833332843,
          "durationTicks": 131,
          "midi": 65,
          "name": "F4",
          "ticks": 164850,
          "time": 135.12287425,
          "velocity": 0.8188976377952756
        },
        {
          "duration": 0.10737698833332843,
          "durationTicks": 131,
          "midi": 62,
          "name": "D4",
          "ticks": 165000,
          "time": 135.245825,
          "velocity": 0.8188976377952756
        },
        {
          "duration": 0.10737698833332843,
          "durationTicks": 131,
          "midi": 65,
          "name": "F4",
          "ticks": 165150,
          "time": 135.36877575,
          "velocity": 0.8188976377952756
        },
        {
          "duration": 0.10737698833332843,
          "durationTicks": 131,
          "midi": 69,
          "name": "A4",
          "ticks": 165300,
          "time": 135.4917265,
          "velocity": 0.8188976377952756
        },
        {
          "duration": 0.10737698833332843,
          "durationTicks": 131,
          "midi": 65,
          "name": "F4",
          "ticks": 165450,
          "time": 135.61467725,
          "velocity": 0.8188976377952756
        },
        {
          "duration": 0.10737698833332843,
          "durationTicks": 131,
          "midi": 62,
          "name": "D4",
          "ticks": 165600,
          "time": 135.737628,
          "velocity": 0.8188976377952756
        },
        {
          "duration": 0.10737698833332843,
          "durationTicks": 131,
          "midi": 65,
          "name": "F4",
          "ticks": 165750,
          "time": 135.86057875,
          "velocity": 0.8188976377952756
        },
        {
          "duration": 0.1073769883333,
          "durationTicks": 131,
          "midi": 69,
          "name": "A4",
          "ticks": 165900,
          "time": 135.9835295,
          "velocity": 0.8188976377952756
        },
        {
          "duration": 0.1073769883333,
          "durationTicks": 131,
          "midi": 65,
          "name": "F4",
          "ticks": 166050,
          "time": 136.10648025,
          "velocity": 0.8188976377952756
        },
        {
          "duration": 0.1073769883333,
          "durationTicks": 131,
          "midi": 62,
          "name": "D4",
          "ticks": 166200,
          "time": 136.229431,
          "velocity": 0.8188976377952756
        },
        {
          "duration": 0.1073769883333,
          "durationTicks": 131,
          "midi": 65,
          "name": "F4",
          "ticks": 166350,
          "time": 136.35238175,
          "velocity": 0.8188976377952756
        },
        {
          "duration": 0.1073769883333,
          "durationTicks": 131,
          "midi": 69,
          "name": "A4",
          "ticks": 166500,
          "time": 136.4753325,
          "velocity": 0.8267716535433071
        },
        {
          "duration": 0.1073769883333,
          "durationTicks": 131,
          "midi": 65,
          "name": "F4",
          "ticks": 166650,
          "time": 136.59828325,
          "velocity": 0.8267716535433071
        },
        {
          "duration": 0.1073769883333,
          "durationTicks": 131,
          "midi": 62,
          "name": "D4",
          "ticks": 166800,
          "time": 136.721234,
          "velocity": 0.8267716535433071
        },
        {
          "duration": 0.1073769883333,
          "durationTicks": 131,
          "midi": 65,
          "name": "F4",
          "ticks": 166950,
          "time": 136.84418475,
          "velocity": 0.8267716535433071
        },
        {
          "duration": 0.10737698833332843,
          "durationTicks": 131,
          "midi": 69,
          "name": "A4",
          "ticks": 167100,
          "time": 136.96713549999998,
          "velocity": 0.8267716535433071
        },
        {
          "duration": 0.10737698833332843,
          "durationTicks": 131,
          "midi": 65,
          "name": "F4",
          "ticks": 167250,
          "time": 137.09008624999998,
          "velocity": 0.8267716535433071
        },
        {
          "duration": 0.10737698833332843,
          "durationTicks": 131,
          "midi": 62,
          "name": "D4",
          "ticks": 167400,
          "time": 137.21303699999999,
          "velocity": 0.8267716535433071
        },
        {
          "duration": 0.10737698833332843,
          "durationTicks": 131,
          "midi": 65,
          "name": "F4",
          "ticks": 167550,
          "time": 137.33598775,
          "velocity": 0.8267716535433071
        },
        {
          "duration": 0.10737698833332843,
          "durationTicks": 131,
          "midi": 69,
          "name": "A4",
          "ticks": 167700,
          "time": 137.4589385,
          "velocity": 0.8267716535433071
        },
        {
          "duration": 0.10737698833332843,
          "durationTicks": 131,
          "midi": 65,
          "name": "F4",
          "ticks": 167850,
          "time": 137.58188925,
          "velocity": 0.8267716535433071
        },
        {
          "duration": 0.10737698833332843,
          "durationTicks": 131,
          "midi": 58,
          "name": "A#3",
          "ticks": 168000,
          "time": 137.70484,
          "velocity": 0.8267716535433071
        },
        {
          "duration": 0.10737698833332843,
          "durationTicks": 131,
          "midi": 65,
          "name": "F4",
          "ticks": 168150,
          "time": 137.82779075,
          "velocity": 0.8267716535433071
        },
        {
          "duration": 0.10737698833332843,
          "durationTicks": 131,
          "midi": 69,
          "name": "A4",
          "ticks": 168300,
          "time": 137.9507415,
          "velocity": 0.8267716535433071
        },
        {
          "duration": 0.10737698833332843,
          "durationTicks": 131,
          "midi": 65,
          "name": "F4",
          "ticks": 168450,
          "time": 138.07369225,
          "velocity": 0.8267716535433071
        },
        {
          "duration": 0.10737698833332843,
          "durationTicks": 131,
          "midi": 58,
          "name": "A#3",
          "ticks": 168600,
          "time": 138.196643,
          "velocity": 0.8346456692913385
        },
        {
          "duration": 0.10737698833332843,
          "durationTicks": 131,
          "midi": 65,
          "name": "F4",
          "ticks": 168750,
          "time": 138.31959375,
          "velocity": 0.8346456692913385
        },
        {
          "duration": 0.10737698833332843,
          "durationTicks": 131,
          "midi": 69,
          "name": "A4",
          "ticks": 168900,
          "time": 138.4425445,
          "velocity": 0.8346456692913385
        },
        {
          "duration": 0.10737698833332843,
          "durationTicks": 131,
          "midi": 65,
          "name": "F4",
          "ticks": 169050,
          "time": 138.56549525,
          "velocity": 0.8346456692913385
        },
        {
          "duration": 0.10737698833332843,
          "durationTicks": 131,
          "midi": 58,
          "name": "A#3",
          "ticks": 169200,
          "time": 138.688446,
          "velocity": 0.8346456692913385
        },
        {
          "duration": 0.10737698833332843,
          "durationTicks": 131,
          "midi": 65,
          "name": "F4",
          "ticks": 169350,
          "time": 138.81139675,
          "velocity": 0.8346456692913385
        },
        {
          "duration": 0.10737698833332843,
          "durationTicks": 131,
          "midi": 69,
          "name": "A4",
          "ticks": 169500,
          "time": 138.9343475,
          "velocity": 0.8346456692913385
        },
        {
          "duration": 0.10737698833332843,
          "durationTicks": 131,
          "midi": 65,
          "name": "F4",
          "ticks": 169650,
          "time": 139.05729825,
          "velocity": 0.8346456692913385
        },
        {
          "duration": 0.1073769883333,
          "durationTicks": 131,
          "midi": 58,
          "name": "A#3",
          "ticks": 169800,
          "time": 139.180249,
          "velocity": 0.8346456692913385
        },
        {
          "duration": 0.1073769883333,
          "durationTicks": 131,
          "midi": 65,
          "name": "F4",
          "ticks": 169950,
          "time": 139.30319975,
          "velocity": 0.8346456692913385
        },
        {
          "duration": 0.1073769883333,
          "durationTicks": 131,
          "midi": 69,
          "name": "A4",
          "ticks": 170100,
          "time": 139.4261505,
          "velocity": 0.8346456692913385
        },
        {
          "duration": 0.1073769883333,
          "durationTicks": 131,
          "midi": 65,
          "name": "F4",
          "ticks": 170250,
          "time": 139.54910125,
          "velocity": 0.8346456692913385
        },
        {
          "duration": 0.1073769883333,
          "durationTicks": 131,
          "midi": 60,
          "name": "C4",
          "ticks": 170400,
          "time": 139.672052,
          "velocity": 0.8346456692913385
        },
        {
          "duration": 0.1073769883333,
          "durationTicks": 131,
          "midi": 65,
          "name": "F4",
          "ticks": 170550,
          "time": 139.79500275,
          "velocity": 0.8346456692913385
        },
        {
          "duration": 0.1073769883333,
          "durationTicks": 131,
          "midi": 69,
          "name": "A4",
          "ticks": 170700,
          "time": 139.9179535,
          "velocity": 0.8346456692913385
        },
        {
          "duration": 0.1073769883333,
          "durationTicks": 131,
          "midi": 65,
          "name": "F4",
          "ticks": 170850,
          "time": 140.04090425,
          "velocity": 0.84251968503937
        },
        {
          "duration": 0.10737698833332843,
          "durationTicks": 131,
          "midi": 60,
          "name": "C4",
          "ticks": 171000,
          "time": 140.16385499999998,
          "velocity": 0.84251968503937
        },
        {
          "duration": 0.10737698833332843,
          "durationTicks": 131,
          "midi": 65,
          "name": "F4",
          "ticks": 171150,
          "time": 140.28680574999998,
          "velocity": 0.84251968503937
        },
        {
          "duration": 0.10737698833332843,
          "durationTicks": 131,
          "midi": 69,
          "name": "A4",
          "ticks": 171300,
          "time": 140.4097565,
          "velocity": 0.84251968503937
        },
        {
          "duration": 0.10737698833332843,
          "durationTicks": 131,
          "midi": 65,
          "name": "F4",
          "ticks": 171450,
          "time": 140.53270725,
          "velocity": 0.84251968503937
        },
        {
          "duration": 0.10737698833332843,
          "durationTicks": 131,
          "midi": 61,
          "name": "C#4",
          "ticks": 171600,
          "time": 140.655658,
          "velocity": 0.84251968503937
        },
        {
          "duration": 0.10737698833332843,
          "durationTicks": 131,
          "midi": 65,
          "name": "F4",
          "ticks": 171750,
          "time": 140.77860875,
          "velocity": 0.84251968503937
        },
        {
          "duration": 0.10737698833332843,
          "durationTicks": 131,
          "midi": 69,
          "name": "A4",
          "ticks": 171900,
          "time": 140.9015595,
          "velocity": 0.84251968503937
        },
        {
          "duration": 0.10737698833332843,
          "durationTicks": 131,
          "midi": 65,
          "name": "F4",
          "ticks": 172050,
          "time": 141.02451025,
          "velocity": 0.84251968503937
        },
        {
          "duration": 0.10737698833332843,
          "durationTicks": 131,
          "midi": 61,
          "name": "C#4",
          "ticks": 172200,
          "time": 141.147461,
          "velocity": 0.84251968503937
        },
        {
          "duration": 0.10737698833332843,
          "durationTicks": 131,
          "midi": 65,
          "name": "F4",
          "ticks": 172350,
          "time": 141.27041175,
          "velocity": 0.84251968503937
        },
        {
          "duration": 0.10737698833332843,
          "durationTicks": 131,
          "midi": 69,
          "name": "A4",
          "ticks": 172500,
          "time": 141.3933625,
          "velocity": 0.84251968503937
        },
        {
          "duration": 0.10737698833332843,
          "durationTicks": 131,
          "midi": 65,
          "name": "F4",
          "ticks": 172650,
          "time": 141.51631325,
          "velocity": 0.84251968503937
        }
      ]
    },
    {
      "channel": 0,
      "controlChanges": {},
      "pitchBends": [
        {
          "ticks": 38400,
          "time": 31.475392,
          "value": 0
        }
      ],
      "instrument": {
        "family": "piano",
        "number": 0,
        "name": "acoustic grand piano"
      },
      "name": "",
      "notes": []
    },
    {
      "channel": 1,
      "controlChanges": {
        "6": [
          {
            "number": 6,
            "ticks": 38400,
            "time": 31.475392,
            "value": 0.09448818897637795
          },
          {
            "number": 6,
            "ticks": 184800,
            "time": 151.475324,
            "value": 0.09448818897637795
          },
          {
            "number": 6,
            "ticks": 184800,
            "time": 151.475324,
            "value": 0.09448818897637795
          }
        ],
        "7": [
          {
            "number": 7,
            "ticks": 38400,
            "time": 31.475392,
            "value": 1
          },
          {
            "number": 7,
            "ticks": 38400,
            "time": 31.475392,
            "value": 1
          },
          {
            "number": 7,
            "ticks": 184800,
            "time": 151.475324,
            "value": 1
          },
          {
            "number": 7,
            "ticks": 184800,
            "time": 151.475324,
            "value": 1
          }
        ],
        "10": [
          {
            "number": 10,
            "ticks": 38400,
            "time": 31.475392,
            "value": 0.5039370078740157
          },
          {
            "number": 10,
            "ticks": 38400,
            "time": 31.475392,
            "value": 0.5039370078740157
          },
          {
            "number": 10,
            "ticks": 184800,
            "time": 151.475324,
            "value": 0.5039370078740157
          },
          {
            "number": 10,
            "ticks": 184800,
            "time": 151.475324,
            "value": 0.5039370078740157
          }
        ],
        "100": [
          {
            "number": 100,
            "ticks": 38400,
            "time": 31.475392,
            "value": 0
          },
          {
            "number": 100,
            "ticks": 184800,
            "time": 151.475324,
            "value": 0
          },
          {
            "number": 100,
            "ticks": 184800,
            "time": 151.475324,
            "value": 0
          }
        ],
        "101": [
          {
            "number": 101,
            "ticks": 38400,
            "time": 31.475392,
            "value": 0
          },
          {
            "number": 101,
            "ticks": 184800,
            "time": 151.475324,
            "value": 0
          },
          {
            "number": 101,
            "ticks": 184800,
            "time": 151.475324,
            "value": 0
          }
        ]
      },
      "pitchBends": [
        {
          "ticks": 38400,
          "time": 31.475392,
          "value": 0
        },
        {
          "ticks": 38400,
          "time": 31.475392,
          "value": 0
        },
        {
          "ticks": 184800,
          "time": 151.475324,
          "value": 0
        },
        {
          "ticks": 184800,
          "time": 151.475324,
          "value": 0
        }
      ],
      "instrument": {
        "family": "guitar",
        "number": 29,
        "name": "overdriven guitar"
      },
      "name": "",
      "notes": [
        {
          "duration": 0.22540970833333063,
          "durationTicks": 275,
          "midi": 77,
          "name": "F5",
          "ticks": 57600,
          "time": 47.213088,
          "velocity": 0.7559055118110236
        },
        {
          "duration": 0.22540970833333063,
          "durationTicks": 275,
          "midi": 77,
          "name": "F5",
          "ticks": 57600,
          "time": 47.213088,
          "velocity": 0.7559055118110236
        },
        {
          "duration": 0.10245895833332952,
          "durationTicks": 125,
          "midi": 79,
          "name": "G5",
          "ticks": 57900,
          "time": 47.4589895,
          "velocity": 0.7559055118110236
        },
        {
          "duration": 0.10245895833332952,
          "durationTicks": 125,
          "midi": 79,
          "name": "G5",
          "ticks": 57900,
          "time": 47.4589895,
          "velocity": 0.7559055118110236
        },
        {
          "duration": 0.22540970833333063,
          "durationTicks": 275,
          "midi": 77,
          "name": "F5",
          "ticks": 58050,
          "time": 47.58194025,
          "velocity": 0.7559055118110236
        },
        {
          "duration": 0.22540970833333063,
          "durationTicks": 275,
          "midi": 77,
          "name": "F5",
          "ticks": 58050,
          "time": 47.58194025,
          "velocity": 0.7559055118110236
        },
        {
          "duration": 0.10245895833332952,
          "durationTicks": 125,
          "midi": 75,
          "name": "D#5",
          "ticks": 58350,
          "time": 47.82784175,
          "velocity": 0.7559055118110236
        },
        {
          "duration": 0.10245895833332952,
          "durationTicks": 125,
          "midi": 75,
          "name": "D#5",
          "ticks": 58350,
          "time": 47.82784175,
          "velocity": 0.7559055118110236
        },
        {
          "duration": 0.10245895833332952,
          "durationTicks": 125,
          "midi": 75,
          "name": "D#5",
          "ticks": 58500,
          "time": 47.9507925,
          "velocity": 0.7559055118110236
        },
        {
          "duration": 0.22540970833333063,
          "durationTicks": 275,
          "midi": 75,
          "name": "D#5",
          "ticks": 58650,
          "time": 48.07374325,
          "velocity": 0.7559055118110236
        },
        {
          "duration": 0.22540970833333063,
          "durationTicks": 275,
          "midi": 75,
          "name": "D#5",
          "ticks": 58650,
          "time": 48.07374325,
          "velocity": 0.7559055118110236
        },
        {
          "duration": 0.10245895833332952,
          "durationTicks": 125,
          "midi": 75,
          "name": "D#5",
          "ticks": 58950,
          "time": 48.31964475,
          "velocity": 0.7559055118110236
        },
        {
          "duration": 0.22540970833333063,
          "durationTicks": 275,
          "midi": 72,
          "name": "C5",
          "ticks": 59100,
          "time": 48.442595499999996,
          "velocity": 0.7559055118110236
        },
        {
          "duration": 0.22540970833333063,
          "durationTicks": 275,
          "midi": 72,
          "name": "C5",
          "ticks": 59100,
          "time": 48.442595499999996,
          "velocity": 0.7559055118110236
        },
        {
          "duration": 0.22540970833333063,
          "durationTicks": 275,
          "midi": 75,
          "name": "D#5",
          "ticks": 59400,
          "time": 48.688497,
          "velocity": 0.7559055118110236
        },
        {
          "duration": 0.22540970833333063,
          "durationTicks": 275,
          "midi": 75,
          "name": "D#5",
          "ticks": 59400,
          "time": 48.688497,
          "velocity": 0.7559055118110236
        },
        {
          "duration": 0.22540970833333063,
          "durationTicks": 275,
          "midi": 77,
          "name": "F5",
          "ticks": 59700,
          "time": 48.9343985,
          "velocity": 0.7559055118110236
        },
        {
          "duration": 0.22540970833333063,
          "durationTicks": 275,
          "midi": 77,
          "name": "F5",
          "ticks": 59700,
          "time": 48.9343985,
          "velocity": 0.7559055118110236
        },
        {
          "duration": 0.22540970833333063,
          "durationTicks": 275,
          "midi": 77,
          "name": "F5",
          "ticks": 60000,
          "time": 49.1803,
          "velocity": 0.7637795275590551
        },
        {
          "duration": 0.22540970833333063,
          "durationTicks": 275,
          "midi": 77,
          "name": "F5",
          "ticks": 60000,
          "time": 49.1803,
          "velocity": 0.7637795275590551
        },
        {
          "duration": 0.10245895833332952,
          "durationTicks": 125,
          "midi": 79,
          "name": "G5",
          "ticks": 60300,
          "time": 49.4262015,
          "velocity": 0.7637795275590551
        },
        {
          "duration": 0.10245895833332952,
          "durationTicks": 125,
          "midi": 79,
          "name": "G5",
          "ticks": 60300,
          "time": 49.4262015,
          "velocity": 0.7637795275590551
        },
        {
          "duration": 0.22540970833333063,
          "durationTicks": 275,
          "midi": 80,
          "name": "G#5",
          "ticks": 60450,
          "time": 49.54915225,
          "velocity": 0.7637795275590551
        },
        {
          "duration": 0.22540970833333063,
          "durationTicks": 275,
          "midi": 80,
          "name": "G#5",
          "ticks": 60450,
          "time": 49.54915225,
          "velocity": 0.7637795275590551
        },
        {
          "duration": 0.10245895833332952,
          "durationTicks": 125,
          "midi": 79,
          "name": "G5",
          "ticks": 60750,
          "time": 49.79505375,
          "velocity": 0.7637795275590551
        },
        {
          "duration": 0.10245895833332952,
          "durationTicks": 125,
          "midi": 79,
          "name": "G5",
          "ticks": 60900,
          "time": 49.9180045,
          "velocity": 0.7637795275590551
        },
        {
          "duration": 0.10245895833333662,
          "durationTicks": 125,
          "midi": 79,
          "name": "G5",
          "ticks": 61050,
          "time": 50.040955249999996,
          "velocity": 0.7637795275590551
        },
        {
          "duration": 0.22540970833333063,
          "durationTicks": 275,
          "midi": 77,
          "name": "F5",
          "ticks": 61200,
          "time": 50.163906,
          "velocity": 0.7637795275590551
        },
        {
          "duration": 0.22540970833333063,
          "durationTicks": 275,
          "midi": 77,
          "name": "F5",
          "ticks": 61200,
          "time": 50.163906,
          "velocity": 0.7637795275590551
        },
        {
          "duration": 0.10245895833332952,
          "durationTicks": 125,
          "midi": 77,
          "name": "F5",
          "ticks": 61500,
          "time": 50.4098075,
          "velocity": 0.7637795275590551
        },
        {
          "duration": 0.22540970833333063,
          "durationTicks": 275,
          "midi": 75,
          "name": "D#5",
          "ticks": 61650,
          "time": 50.53275825,
          "velocity": 0.7637795275590551
        },
        {
          "duration": 0.22540970833333063,
          "durationTicks": 275,
          "midi": 75,
          "name": "D#5",
          "ticks": 61650,
          "time": 50.53275825,
          "velocity": 0.7637795275590551
        },
        {
          "duration": 0.10245895833333662,
          "durationTicks": 125,
          "midi": 75,
          "name": "D#5",
          "ticks": 61950,
          "time": 50.778659749999996,
          "velocity": 0.7637795275590551
        },
        {
          "duration": 0.22540970833333063,
          "durationTicks": 275,
          "midi": 74,
          "name": "D5",
          "ticks": 62100,
          "time": 50.9016105,
          "velocity": 0.7637795275590551
        },
        {
          "duration": 0.22540970833333063,
          "durationTicks": 275,
          "midi": 74,
          "name": "D5",
          "ticks": 62100,
          "time": 50.9016105,
          "velocity": 0.7637795275590551
        },
        {
          "duration": 0.717212708333328,
          "durationTicks": 875,
          "midi": 75,
          "name": "D#5",
          "ticks": 62400,
          "time": 51.147512,
          "velocity": 0.7637795275590551
        },
        {
          "duration": 0.717212708333328,
          "durationTicks": 875,
          "midi": 75,
          "name": "D#5",
          "ticks": 62400,
          "time": 51.147512,
          "velocity": 0.7637795275590551
        },
        {
          "duration": 0.717212708333328,
          "durationTicks": 875,
          "midi": 72,
          "name": "C5",
          "ticks": 63300,
          "time": 51.8852165,
          "velocity": 0.7637795275590551
        },
        {
          "duration": 0.717212708333328,
          "durationTicks": 875,
          "midi": 72,
          "name": "C5",
          "ticks": 63300,
          "time": 51.8852165,
          "velocity": 0.7637795275590551
        },
        {
          "duration": 0.47131120833333284,
          "durationTicks": 575,
          "midi": 68,
          "name": "G#4",
          "ticks": 64200,
          "time": 52.622921,
          "velocity": 0.7716535433070866
        },
        {
          "duration": 0.47131120833333284,
          "durationTicks": 575,
          "midi": 68,
          "name": "G#4",
          "ticks": 64200,
          "time": 52.622921,
          "velocity": 0.7716535433070866
        },
        {
          "duration": 0.9631142083333373,
          "durationTicks": 1175,
          "midi": 75,
          "name": "D#5",
          "ticks": 64800,
          "time": 53.114723999999995,
          "velocity": 0.7716535433070866
        },
        {
          "duration": 0.9631142083333373,
          "durationTicks": 1175,
          "midi": 75,
          "name": "D#5",
          "ticks": 64800,
          "time": 53.114723999999995,
          "velocity": 0.7716535433070866
        },
        {
          "duration": 0.47131120833333284,
          "durationTicks": 575,
          "midi": 77,
          "name": "F5",
          "ticks": 66000,
          "time": 54.09833,
          "velocity": 0.7716535433070866
        },
        {
          "duration": 0.47131120833333284,
          "durationTicks": 575,
          "midi": 77,
          "name": "F5",
          "ticks": 66000,
          "time": 54.09833,
          "velocity": 0.7716535433070866
        },
        {
          "duration": 0.47131120833332574,
          "durationTicks": 575,
          "midi": 79,
          "name": "G5",
          "ticks": 66600,
          "time": 54.590133,
          "velocity": 0.7716535433070866
        },
        {
          "duration": 0.47131120833332574,
          "durationTicks": 575,
          "midi": 79,
          "name": "G5",
          "ticks": 66600,
          "time": 54.590133,
          "velocity": 0.7716535433070866
        },
        {
          "duration": 0.22540970833333063,
          "durationTicks": 275,
          "midi": 82,
          "name": "A#5",
          "ticks": 67200,
          "time": 55.081936,
          "velocity": 0.7716535433070866
        },
        {
          "duration": 0.22540970833333063,
          "durationTicks": 275,
          "midi": 77,
          "name": "F5",
          "ticks": 67200,
          "time": 55.081936,
          "velocity": 0.7716535433070866
        },
        {
          "duration": 0.22540970833333063,
          "durationTicks": 275,
          "midi": 77,
          "name": "F5",
          "ticks": 67200,
          "time": 55.081936,
          "velocity": 0.7716535433070866
        },
        {
          "duration": 0.22540970833333063,
          "durationTicks": 275,
          "midi": 82,
          "name": "A#5",
          "ticks": 67200,
          "time": 55.081936,
          "velocity": 0.7716535433070866
        },
        {
          "duration": 0.10245895833332952,
          "durationTicks": 125,
          "midi": 84,
          "name": "C6",
          "ticks": 67500,
          "time": 55.3278375,
          "velocity": 0.7716535433070866
        },
        {
          "duration": 0.10245895833332952,
          "durationTicks": 125,
          "midi": 79,
          "name": "G5",
          "ticks": 67500,
          "time": 55.3278375,
          "velocity": 0.7716535433070866
        },
        {
          "duration": 0.10245895833332952,
          "durationTicks": 125,
          "midi": 79,
          "name": "G5",
          "ticks": 67500,
          "time": 55.3278375,
          "velocity": 0.7716535433070866
        },
        {
          "duration": 0.10245895833332952,
          "durationTicks": 125,
          "midi": 84,
          "name": "C6",
          "ticks": 67500,
          "time": 55.3278375,
          "velocity": 0.7716535433070866
        },
        {
          "duration": 0.22540970833333063,
          "durationTicks": 275,
          "midi": 82,
          "name": "A#5",
          "ticks": 67650,
          "time": 55.45078825,
          "velocity": 0.7716535433070866
        },
        {
          "duration": 0.22540970833333063,
          "durationTicks": 275,
          "midi": 77,
          "name": "F5",
          "ticks": 67650,
          "time": 55.45078825,
          "velocity": 0.7716535433070866
        },
        {
          "duration": 0.22540970833333063,
          "durationTicks": 275,
          "midi": 77,
          "name": "F5",
          "ticks": 67650,
          "time": 55.45078825,
          "velocity": 0.7716535433070866
        },
        {
          "duration": 0.22540970833333063,
          "durationTicks": 275,
          "midi": 82,
          "name": "A#5",
          "ticks": 67650,
          "time": 55.45078825,
          "velocity": 0.7716535433070866
        },
        {
          "duration": 0.10245895833332952,
          "durationTicks": 125,
          "midi": 79,
          "name": "G5",
          "ticks": 67950,
          "time": 55.69668975,
          "velocity": 0.7716535433070866
        },
        {
          "duration": 0.10245895833332952,
          "durationTicks": 125,
          "midi": 75,
          "name": "D#5",
          "ticks": 67950,
          "time": 55.69668975,
          "velocity": 0.7716535433070866
        },
        {
          "duration": 0.10245895833332952,
          "durationTicks": 125,
          "midi": 75,
          "name": "D#5",
          "ticks": 67950,
          "time": 55.69668975,
          "velocity": 0.7716535433070866
        },
        {
          "duration": 0.10245895833332952,
          "durationTicks": 125,
          "midi": 79,
          "name": "G5",
          "ticks": 67950,
          "time": 55.69668975,
          "velocity": 0.7716535433070866
        },
        {
          "duration": 0.10245895833332952,
          "durationTicks": 125,
          "midi": 79,
          "name": "G5",
          "ticks": 68100,
          "time": 55.8196405,
          "velocity": 0.7795275590551181
        },
        {
          "duration": 0.10245895833332952,
          "durationTicks": 125,
          "midi": 75,
          "name": "D#5",
          "ticks": 68100,
          "time": 55.8196405,
          "velocity": 0.7795275590551181
        },
        {
          "duration": 0.10245895833332952,
          "durationTicks": 125,
          "midi": 79,
          "name": "G5",
          "ticks": 68100,
          "time": 55.8196405,
          "velocity": 0.7795275590551181
        },
        {
          "duration": 0.22540970833333063,
          "durationTicks": 275,
          "midi": 79,
          "name": "G5",
          "ticks": 68250,
          "time": 55.94259125,
          "velocity": 0.7795275590551181
        },
        {
          "duration": 0.22540970833333063,
          "durationTicks": 275,
          "midi": 75,
          "name": "D#5",
          "ticks": 68250,
          "time": 55.94259125,
          "velocity": 0.7795275590551181
        },
        {
          "duration": 0.22540970833333063,
          "durationTicks": 275,
          "midi": 75,
          "name": "D#5",
          "ticks": 68250,
          "time": 55.94259125,
          "velocity": 0.7795275590551181
        },
        {
          "duration": 0.22540970833333063,
          "durationTicks": 275,
          "midi": 79,
          "name": "G5",
          "ticks": 68250,
          "time": 55.94259125,
          "velocity": 0.7795275590551181
        },
        {
          "duration": 0.10245895833332952,
          "durationTicks": 125,
          "midi": 79,
          "name": "G5",
          "ticks": 68550,
          "time": 56.18849275,
          "velocity": 0.7795275590551181
        },
        {
          "duration": 0.10245895833332952,
          "durationTicks": 125,
          "midi": 79,
          "name": "G5",
          "ticks": 68550,
          "time": 56.18849275,
          "velocity": 0.7795275590551181
        },
        {
          "duration": 0.10245895833332952,
          "durationTicks": 125,
          "midi": 75,
          "name": "D#5",
          "ticks": 68550,
          "time": 56.18849275,
          "velocity": 0.7795275590551181
        },
        {
          "duration": 0.22540970833333063,
          "durationTicks": 275,
          "midi": 72,
          "name": "C5",
          "ticks": 68700,
          "time": 56.311443499999996,
          "velocity": 0.7795275590551181
        },
        {
          "duration": 0.22540970833333063,
          "durationTicks": 275,
          "midi": 72,
          "name": "C5",
          "ticks": 68700,
          "time": 56.311443499999996,
          "velocity": 0.7795275590551181
        },
        {
          "duration": 0.22540970833333063,
          "durationTicks": 275,
          "midi": 75,
          "name": "D#5",
          "ticks": 69000,
          "time": 56.557345,
          "velocity": 0.7795275590551181
        },
        {
          "duration": 0.22540970833333063,
          "durationTicks": 275,
          "midi": 75,
          "name": "D#5",
          "ticks": 69000,
          "time": 56.557345,
          "velocity": 0.7795275590551181
        },
        {
          "duration": 0.22540970833333063,
          "durationTicks": 275,
          "midi": 77,
          "name": "F5",
          "ticks": 69300,
          "time": 56.8032465,
          "velocity": 0.7795275590551181
        },
        {
          "duration": 0.22540970833333063,
          "durationTicks": 275,
          "midi": 77,
          "name": "F5",
          "ticks": 69300,
          "time": 56.8032465,
          "velocity": 0.7795275590551181
        },
        {
          "duration": 0.22540970833333063,
          "durationTicks": 275,
          "midi": 82,
          "name": "A#5",
          "ticks": 69600,
          "time": 57.049148,
          "velocity": 0.7795275590551181
        },
        {
          "duration": 0.22540970833333063,
          "durationTicks": 275,
          "midi": 82,
          "name": "A#5",
          "ticks": 69600,
          "time": 57.049148,
          "velocity": 0.7795275590551181
        },
        {
          "duration": 0.22540970833333063,
          "durationTicks": 275,
          "midi": 77,
          "name": "F5",
          "ticks": 69600,
          "time": 57.049148,
          "velocity": 0.7795275590551181
        },
        {
          "duration": 0.22540970833333063,
          "durationTicks": 275,
          "midi": 77,
          "name": "F5",
          "ticks": 69600,
          "time": 57.049148,
          "velocity": 0.7795275590551181
        },
        {
          "duration": 0.10245895833332952,
          "durationTicks": 125,
          "midi": 79,
          "name": "G5",
          "ticks": 69900,
          "time": 57.2950495,
          "velocity": 0.7795275590551181
        },
        {
          "duration": 0.10245895833332952,
          "durationTicks": 125,
          "midi": 79,
          "name": "G5",
          "ticks": 69900,
          "time": 57.2950495,
          "velocity": 0.7795275590551181
        },
        {
          "duration": 0.10245895833332952,
          "durationTicks": 125,
          "midi": 84,
          "name": "C6",
          "ticks": 69900,
          "time": 57.2950495,
          "velocity": 0.7795275590551181
        },
        {
          "duration": 0.10245895833332952,
          "durationTicks": 125,
          "midi": 84,
          "name": "C6",
          "ticks": 69900,
          "time": 57.2950495,
          "velocity": 0.7795275590551181
        },
        {
          "duration": 0.22540970833333063,
          "durationTicks": 275,
          "midi": 80,
          "name": "G#5",
          "ticks": 70050,
          "time": 57.41800025,
          "velocity": 0.7795275590551181
        },
        {
          "duration": 0.22540970833333063,
          "durationTicks": 275,
          "midi": 80,
          "name": "G#5",
          "ticks": 70050,
          "time": 57.41800025,
          "velocity": 0.7795275590551181
        },
        {
          "duration": 0.22540970833333063,
          "durationTicks": 275,
          "midi": 87,
          "name": "D#6",
          "ticks": 70050,
          "time": 57.41800025,
          "velocity": 0.7795275590551181
        },
        {
          "duration": 0.22540970833333063,
          "durationTicks": 275,
          "midi": 87,
          "name": "D#6",
          "ticks": 70050,
          "time": 57.41800025,
          "velocity": 0.7795275590551181
        },
        {
          "duration": 0.10245895833332952,
          "durationTicks": 125,
          "midi": 82,
          "name": "A#5",
          "ticks": 70350,
          "time": 57.66390175,
          "velocity": 0.7795275590551181
        },
        {
          "duration": 0.10245895833332952,
          "durationTicks": 125,
          "midi": 82,
          "name": "A#5",
          "ticks": 70350,
          "time": 57.66390175,
          "velocity": 0.7795275590551181
        },
        {
          "duration": 0.10245895833332952,
          "durationTicks": 125,
          "midi": 79,
          "name": "G5",
          "ticks": 70350,
          "time": 57.66390175,
          "velocity": 0.7795275590551181
        },
        {
          "duration": 0.10245895833332952,
          "durationTicks": 125,
          "midi": 79,
          "name": "G5",
          "ticks": 70500,
          "time": 57.7868525,
          "velocity": 0.7795275590551181
        },
        {
          "duration": 0.10245895833332952,
          "durationTicks": 125,
          "midi": 82,
          "name": "A#5",
          "ticks": 70500,
          "time": 57.7868525,
          "velocity": 0.7795275590551181
        },
        {
          "duration": 0.10245895833332952,
          "durationTicks": 125,
          "midi": 82,
          "name": "A#5",
          "ticks": 70500,
          "time": 57.7868525,
          "velocity": 0.7795275590551181
        },
        {
          "duration": 0.10245895833333662,
          "durationTicks": 125,
          "midi": 79,
          "name": "G5",
          "ticks": 70650,
          "time": 57.909803249999996,
          "velocity": 0.7795275590551181
        },
        {
          "duration": 0.10245895833333662,
          "durationTicks": 125,
          "midi": 82,
          "name": "A#5",
          "ticks": 70650,
          "time": 57.909803249999996,
          "velocity": 0.7795275590551181
        },
        {
          "duration": 0.10245895833333662,
          "durationTicks": 125,
          "midi": 82,
          "name": "A#5",
          "ticks": 70650,
          "time": 57.909803249999996,
          "velocity": 0.7795275590551181
        },
        {
          "duration": 0.22540970833333063,
          "durationTicks": 275,
          "midi": 80,
          "name": "G#5",
          "ticks": 70800,
          "time": 58.032754,
          "velocity": 0.7795275590551181
        },
        {
          "duration": 0.22540970833333063,
          "durationTicks": 275,
          "midi": 80,
          "name": "G#5",
          "ticks": 70800,
          "time": 58.032754,
          "velocity": 0.7795275590551181
        },
        {
          "duration": 0.22540970833333063,
          "durationTicks": 275,
          "midi": 77,
          "name": "F5",
          "ticks": 70800,
          "time": 58.032754,
          "velocity": 0.7795275590551181
        },
        {
          "duration": 0.22540970833333063,
          "durationTicks": 275,
          "midi": 77,
          "name": "F5",
          "ticks": 70800,
          "time": 58.032754,
          "velocity": 0.7795275590551181
        },
        {
          "duration": 0.10245895833332952,
          "durationTicks": 125,
          "midi": 77,
          "name": "F5",
          "ticks": 71100,
          "time": 58.2786555,
          "velocity": 0.7795275590551181
        },
        {
          "duration": 0.10245895833332952,
          "durationTicks": 125,
          "midi": 80,
          "name": "G#5",
          "ticks": 71100,
          "time": 58.2786555,
          "velocity": 0.7795275590551181
        },
        {
          "duration": 0.10245895833332952,
          "durationTicks": 125,
          "midi": 80,
          "name": "G#5",
          "ticks": 71100,
          "time": 58.2786555,
          "velocity": 0.7795275590551181
        },
        {
          "duration": 0.22540970833333063,
          "durationTicks": 275,
          "midi": 79,
          "name": "G5",
          "ticks": 71250,
          "time": 58.40160625,
          "velocity": 0.7795275590551181
        },
        {
          "duration": 0.22540970833333063,
          "durationTicks": 275,
          "midi": 79,
          "name": "G5",
          "ticks": 71250,
          "time": 58.40160625,
          "velocity": 0.7795275590551181
        },
        {
          "duration": 0.22540970833333063,
          "durationTicks": 275,
          "midi": 75,
          "name": "D#5",
          "ticks": 71250,
          "time": 58.40160625,
          "velocity": 0.7795275590551181
        },
        {
          "duration": 0.22540970833333063,
          "durationTicks": 275,
          "midi": 75,
          "name": "D#5",
          "ticks": 71250,
          "time": 58.40160625,
          "velocity": 0.7795275590551181
        },
        {
          "duration": 0.10245895833333662,
          "durationTicks": 125,
          "midi": 79,
          "name": "G5",
          "ticks": 71550,
          "time": 58.647507749999995,
          "velocity": 0.7795275590551181
        },
        {
          "duration": 0.10245895833333662,
          "durationTicks": 125,
          "midi": 79,
          "name": "G5",
          "ticks": 71550,
          "time": 58.647507749999995,
          "velocity": 0.7795275590551181
        },
        {
          "duration": 0.10245895833333662,
          "durationTicks": 125,
          "midi": 75,
          "name": "D#5",
          "ticks": 71550,
          "time": 58.647507749999995,
          "velocity": 0.7795275590551181
        },
        {
          "duration": 0.22540970833333063,
          "durationTicks": 275,
          "midi": 74,
          "name": "D5",
          "ticks": 71700,
          "time": 58.7704585,
          "velocity": 0.7795275590551181
        },
        {
          "duration": 0.22540970833333063,
          "durationTicks": 275,
          "midi": 74,
          "name": "D5",
          "ticks": 71700,
          "time": 58.7704585,
          "velocity": 0.7795275590551181
        },
        {
          "duration": 0.22540970833333063,
          "durationTicks": 275,
          "midi": 77,
          "name": "F5",
          "ticks": 71700,
          "time": 58.7704585,
          "velocity": 0.7795275590551181
        },
        {
          "duration": 0.22540970833333063,
          "durationTicks": 275,
          "midi": 77,
          "name": "F5",
          "ticks": 71700,
          "time": 58.7704585,
          "velocity": 0.7795275590551181
        },
        {
          "duration": 0.10245895833332952,
          "durationTicks": 125,
          "midi": 84,
          "name": "C6",
          "ticks": 72000,
          "time": 59.01636,
          "velocity": 0.7795275590551181
        },
        {
          "duration": 0.10245895833332952,
          "durationTicks": 125,
          "midi": 84,
          "name": "C6",
          "ticks": 72000,
          "time": 59.01636,
          "velocity": 0.7795275590551181
        },
        {
          "duration": 0.10245895833332952,
          "durationTicks": 125,
          "midi": 82,
          "name": "A#5",
          "ticks": 72150,
          "time": 59.13931075,
          "velocity": 0.7874015748031497
        },
        {
          "duration": 0.10245895833332952,
          "durationTicks": 125,
          "midi": 82,
          "name": "A#5",
          "ticks": 72150,
          "time": 59.13931075,
          "velocity": 0.7874015748031497
        },
        {
          "duration": 0.10245895833332952,
          "durationTicks": 125,
          "midi": 80,
          "name": "G#5",
          "ticks": 72300,
          "time": 59.2622615,
          "velocity": 0.7874015748031497
        },
        {
          "duration": 0.10245895833332952,
          "durationTicks": 125,
          "midi": 80,
          "name": "G#5",
          "ticks": 72300,
          "time": 59.2622615,
          "velocity": 0.7874015748031497
        },
        {
          "duration": 0.10245895833332952,
          "durationTicks": 125,
          "midi": 79,
          "name": "G5",
          "ticks": 72450,
          "time": 59.38521225,
          "velocity": 0.7874015748031497
        },
        {
          "duration": 0.10245895833332952,
          "durationTicks": 125,
          "midi": 79,
          "name": "G5",
          "ticks": 72450,
          "time": 59.38521225,
          "velocity": 0.7874015748031497
        },
        {
          "duration": 0.10245895833333662,
          "durationTicks": 125,
          "midi": 84,
          "name": "C6",
          "ticks": 72600,
          "time": 59.508162999999996,
          "velocity": 0.7874015748031497
        },
        {
          "duration": 0.10245895833333662,
          "durationTicks": 125,
          "midi": 84,
          "name": "C6",
          "ticks": 72600,
          "time": 59.508162999999996,
          "velocity": 0.7874015748031497
        },
        {
          "duration": 0.10245895833332952,
          "durationTicks": 125,
          "midi": 82,
          "name": "A#5",
          "ticks": 72750,
          "time": 59.63111375,
          "velocity": 0.7874015748031497
        },
        {
          "duration": 0.10245895833332952,
          "durationTicks": 125,
          "midi": 82,
          "name": "A#5",
          "ticks": 72750,
          "time": 59.63111375,
          "velocity": 0.7874015748031497
        },
        {
          "duration": 0.10245895833332952,
          "durationTicks": 125,
          "midi": 80,
          "name": "G#5",
          "ticks": 72900,
          "time": 59.7540645,
          "velocity": 0.7874015748031497
        },
        {
          "duration": 0.10245895833332952,
          "durationTicks": 125,
          "midi": 80,
          "name": "G#5",
          "ticks": 72900,
          "time": 59.7540645,
          "velocity": 0.7874015748031497
        },
        {
          "duration": 0.10245895833332952,
          "durationTicks": 125,
          "midi": 79,
          "name": "G5",
          "ticks": 73050,
          "time": 59.87701525,
          "velocity": 0.7874015748031497
        },
        {
          "duration": 0.10245895833332952,
          "durationTicks": 125,
          "midi": 79,
          "name": "G5",
          "ticks": 73050,
          "time": 59.87701525,
          "velocity": 0.7874015748031497
        },
        {
          "duration": 0.061475375000000554,
          "durationTicks": 75,
          "midi": 84,
          "name": "C6",
          "ticks": 73200,
          "time": 59.999966,
          "velocity": 0.7874015748031497
        },
        {
          "duration": 0.061475375000000554,
          "durationTicks": 75,
          "midi": 84,
          "name": "C6",
          "ticks": 73200,
          "time": 59.999966,
          "velocity": 0.7874015748031497
        },
        {
          "duration": 0.061475375000000554,
          "durationTicks": 75,
          "midi": 82,
          "name": "A#5",
          "ticks": 73275,
          "time": 60.061441375,
          "velocity": 0.7874015748031497
        },
        {
          "duration": 0.061475375000000554,
          "durationTicks": 75,
          "midi": 82,
          "name": "A#5",
          "ticks": 73275,
          "time": 60.061441375,
          "velocity": 0.7874015748031497
        },
        {
          "duration": 0.061475375000000554,
          "durationTicks": 75,
          "midi": 80,
          "name": "G#5",
          "ticks": 73350,
          "time": 60.12291675,
          "velocity": 0.7874015748031497
        },
        {
          "duration": 0.061475375000000554,
          "durationTicks": 75,
          "midi": 80,
          "name": "G#5",
          "ticks": 73350,
          "time": 60.12291675,
          "velocity": 0.7874015748031497
        },
        {
          "duration": 0.06147537499999345,
          "durationTicks": 75,
          "midi": 79,
          "name": "G5",
          "ticks": 73425,
          "time": 60.184392125,
          "velocity": 0.7874015748031497
        },
        {
          "duration": 0.06147537499999345,
          "durationTicks": 75,
          "midi": 79,
          "name": "G5",
          "ticks": 73425,
          "time": 60.184392125,
          "velocity": 0.7874015748031497
        },
        {
          "duration": 0.061475375000000554,
          "durationTicks": 75,
          "midi": 84,
          "name": "C6",
          "ticks": 73500,
          "time": 60.245867499999996,
          "velocity": 0.7874015748031497
        },
        {
          "duration": 0.061475375000000554,
          "durationTicks": 75,
          "midi": 84,
          "name": "C6",
          "ticks": 73500,
          "time": 60.245867499999996,
          "velocity": 0.7874015748031497
        },
        {
          "duration": 0.061475375000000554,
          "durationTicks": 75,
          "midi": 82,
          "name": "A#5",
          "ticks": 73575,
          "time": 60.307342874999996,
          "velocity": 0.7874015748031497
        },
        {
          "duration": 0.061475375000000554,
          "durationTicks": 75,
          "midi": 82,
          "name": "A#5",
          "ticks": 73575,
          "time": 60.307342874999996,
          "velocity": 0.7874015748031497
        },
        {
          "duration": 0.061475375000000554,
          "durationTicks": 75,
          "midi": 80,
          "name": "G#5",
          "ticks": 73650,
          "time": 60.36881825,
          "velocity": 0.7874015748031497
        },
        {
          "duration": 0.061475375000000554,
          "durationTicks": 75,
          "midi": 80,
          "name": "G#5",
          "ticks": 73650,
          "time": 60.36881825,
          "velocity": 0.7874015748031497
        },
        {
          "duration": 0.061475375000000554,
          "durationTicks": 75,
          "midi": 79,
          "name": "G5",
          "ticks": 73725,
          "time": 60.430293625,
          "velocity": 0.7874015748031497
        },
        {
          "duration": 0.061475375000000554,
          "durationTicks": 75,
          "midi": 79,
          "name": "G5",
          "ticks": 73725,
          "time": 60.430293625,
          "velocity": 0.7874015748031497
        },
        {
          "duration": 0.061475375000000554,
          "durationTicks": 75,
          "midi": 84,
          "name": "C6",
          "ticks": 73800,
          "time": 60.491769,
          "velocity": 0.7874015748031497
        },
        {
          "duration": 0.061475375000000554,
          "durationTicks": 75,
          "midi": 84,
          "name": "C6",
          "ticks": 73800,
          "time": 60.491769,
          "velocity": 0.7874015748031497
        },
        {
          "duration": 0.061475375000000554,
          "durationTicks": 75,
          "midi": 82,
          "name": "A#5",
          "ticks": 73875,
          "time": 60.553244375,
          "velocity": 0.7874015748031497
        },
        {
          "duration": 0.061475375000000554,
          "durationTicks": 75,
          "midi": 82,
          "name": "A#5",
          "ticks": 73875,
          "time": 60.553244375,
          "velocity": 0.7874015748031497
        },
        {
          "duration": 0.061475375000000554,
          "durationTicks": 75,
          "midi": 80,
          "name": "G#5",
          "ticks": 73950,
          "time": 60.61471975,
          "velocity": 0.7874015748031497
        },
        {
          "duration": 0.061475375000000554,
          "durationTicks": 75,
          "midi": 80,
          "name": "G#5",
          "ticks": 73950,
          "time": 60.61471975,
          "velocity": 0.7874015748031497
        },
        {
          "duration": 0.061475375000000554,
          "durationTicks": 75,
          "midi": 79,
          "name": "G5",
          "ticks": 74025,
          "time": 60.676195125,
          "velocity": 0.7874015748031497
        },
        {
          "duration": 0.061475375000000554,
          "durationTicks": 75,
          "midi": 79,
          "name": "G5",
          "ticks": 74025,
          "time": 60.676195125,
          "velocity": 0.7874015748031497
        },
        {
          "duration": 0.061475375000000554,
          "durationTicks": 75,
          "midi": 84,
          "name": "C6",
          "ticks": 74100,
          "time": 60.7376705,
          "velocity": 0.7874015748031497
        },
        {
          "duration": 0.061475375000000554,
          "durationTicks": 75,
          "midi": 84,
          "name": "C6",
          "ticks": 74100,
          "time": 60.7376705,
          "velocity": 0.7874015748031497
        },
        {
          "duration": 0.061475375000000554,
          "durationTicks": 75,
          "midi": 82,
          "name": "A#5",
          "ticks": 74175,
          "time": 60.799145875,
          "velocity": 0.7874015748031497
        },
        {
          "duration": 0.061475375000000554,
          "durationTicks": 75,
          "midi": 82,
          "name": "A#5",
          "ticks": 74175,
          "time": 60.799145875,
          "velocity": 0.7874015748031497
        },
        {
          "duration": 0.061475375000000554,
          "durationTicks": 75,
          "midi": 80,
          "name": "G#5",
          "ticks": 74250,
          "time": 60.86062125,
          "velocity": 0.7874015748031497
        },
        {
          "duration": 0.061475375000000554,
          "durationTicks": 75,
          "midi": 80,
          "name": "G#5",
          "ticks": 74250,
          "time": 60.86062125,
          "velocity": 0.7874015748031497
        },
        {
          "duration": 0.06147537499999345,
          "durationTicks": 75,
          "midi": 79,
          "name": "G5",
          "ticks": 74325,
          "time": 60.922096625,
          "velocity": 0.7874015748031497
        },
        {
          "duration": 0.06147537499999345,
          "durationTicks": 75,
          "midi": 79,
          "name": "G5",
          "ticks": 74325,
          "time": 60.922096625,
          "velocity": 0.7874015748031497
        },
        {
          "duration": 0.18442612500000166,
          "durationTicks": 225,
          "midi": 84,
          "name": "C6",
          "ticks": 74400,
          "time": 60.983571999999995,
          "velocity": 0.7874015748031497
        },
        {
          "duration": 0.18442612500000166,
          "durationTicks": 225,
          "midi": 87,
          "name": "D#6",
          "ticks": 74400,
          "time": 60.983571999999995,
          "velocity": 0.7874015748031497
        },
        {
          "duration": 0.18442612500000166,
          "durationTicks": 225,
          "midi": 87,
          "name": "D#6",
          "ticks": 74400,
          "time": 60.983571999999995,
          "velocity": 0.7874015748031497
        },
        {
          "duration": 0.061475375000000554,
          "durationTicks": 75,
          "midi": 84,
          "name": "C6",
          "ticks": 74700,
          "time": 61.2294735,
          "velocity": 0.7874015748031497
        },
        {
          "duration": 0.061475375000000554,
          "durationTicks": 75,
          "midi": 79,
          "name": "G5",
          "ticks": 74700,
          "time": 61.2294735,
          "velocity": 0.7874015748031497
        },
        {
          "duration": 0.30737687500000277,
          "durationTicks": 375,
          "midi": 84,
          "name": "C6",
          "ticks": 74850,
          "time": 61.35242425,
          "velocity": 0.7874015748031497
        },
        {
          "duration": 0.30737687500000277,
          "durationTicks": 375,
          "midi": 87,
          "name": "D#6",
          "ticks": 74850,
          "time": 61.35242425,
          "velocity": 0.7874015748031497
        },
        {
          "duration": 0.30737687500000277,
          "durationTicks": 375,
          "midi": 87,
          "name": "D#6",
          "ticks": 74850,
          "time": 61.35242425,
          "velocity": 0.7874015748031497
        },
        {
          "duration": 0.18442612499999456,
          "durationTicks": 225,
          "midi": 86,
          "name": "D6",
          "ticks": 75300,
          "time": 61.7212765,
          "velocity": 0.7874015748031497
        },
        {
          "duration": 0.18442612499999456,
          "durationTicks": 225,
          "midi": 89,
          "name": "F6",
          "ticks": 75300,
          "time": 61.7212765,
          "velocity": 0.7874015748031497
        },
        {
          "duration": 0.18442612499999456,
          "durationTicks": 225,
          "midi": 89,
          "name": "F6",
          "ticks": 75300,
          "time": 61.7212765,
          "velocity": 0.7874015748031497
        },
        {
          "duration": 0.9221306250000012,
          "durationTicks": 1125,
          "midi": 87,
          "name": "D#6",
          "ticks": 75600,
          "time": 61.967178,
          "velocity": 0.7874015748031497
        },
        {
          "duration": 0.9221306250000012,
          "durationTicks": 1125,
          "midi": 91,
          "name": "G6",
          "ticks": 75600,
          "time": 61.967178,
          "velocity": 0.7874015748031497
        },
        {
          "duration": 0.9221306250000012,
          "durationTicks": 1125,
          "midi": 91,
          "name": "G6",
          "ticks": 75600,
          "time": 61.967178,
          "velocity": 0.7874015748031497
        },
        {
          "duration": 0.10737698833333553,
          "durationTicks": 131,
          "midi": 60,
          "name": "C4",
          "ticks": 76800,
          "time": 62.950784,
          "velocity": 0.889763779527559
        },
        {
          "duration": 0.10737698833333553,
          "durationTicks": 131,
          "midi": 67,
          "name": "G4",
          "ticks": 76950,
          "time": 63.07373475,
          "velocity": 0.889763779527559
        },
        {
          "duration": 0.10737698833332843,
          "durationTicks": 131,
          "midi": 72,
          "name": "C5",
          "ticks": 77100,
          "time": 63.1966855,
          "velocity": 0.889763779527559
        },
        {
          "duration": 0.10737698833332843,
          "durationTicks": 131,
          "midi": 60,
          "name": "C4",
          "ticks": 77250,
          "time": 63.31963625,
          "velocity": 0.889763779527559
        },
        {
          "duration": 0.10737698833333553,
          "durationTicks": 131,
          "midi": 67,
          "name": "G4",
          "ticks": 77400,
          "time": 63.442586999999996,
          "velocity": 0.889763779527559
        },
        {
          "duration": 0.10737698833333553,
          "durationTicks": 131,
          "midi": 72,
          "name": "C5",
          "ticks": 77550,
          "time": 63.56553775,
          "velocity": 0.889763779527559
        },
        {
          "duration": 0.10737698833333553,
          "durationTicks": 131,
          "midi": 60,
          "name": "C4",
          "ticks": 77700,
          "time": 63.6884885,
          "velocity": 0.889763779527559
        },
        {
          "duration": 0.10737698833333553,
          "durationTicks": 131,
          "midi": 67,
          "name": "G4",
          "ticks": 77850,
          "time": 63.81143925,
          "velocity": 0.889763779527559
        },
        {
          "duration": 0.10737698833333553,
          "durationTicks": 131,
          "midi": 60,
          "name": "C4",
          "ticks": 78000,
          "time": 63.93439,
          "velocity": 0.889763779527559
        },
        {
          "duration": 0.10737698833334264,
          "durationTicks": 131,
          "midi": 67,
          "name": "G4",
          "ticks": 78150,
          "time": 64.05734075,
          "velocity": 0.889763779527559
        },
        {
          "duration": 0.10737698833334264,
          "durationTicks": 131,
          "midi": 72,
          "name": "C5",
          "ticks": 78300,
          "time": 64.1802915,
          "velocity": 0.889763779527559
        },
        {
          "duration": 0.10737698833332843,
          "durationTicks": 131,
          "midi": 60,
          "name": "C4",
          "ticks": 78450,
          "time": 64.30324225,
          "velocity": 0.889763779527559
        },
        {
          "duration": 0.10737698833332843,
          "durationTicks": 131,
          "midi": 67,
          "name": "G4",
          "ticks": 78600,
          "time": 64.426193,
          "velocity": 0.889763779527559
        },
        {
          "duration": 0.10737698833332843,
          "durationTicks": 131,
          "midi": 72,
          "name": "C5",
          "ticks": 78750,
          "time": 64.54914375,
          "velocity": 0.889763779527559
        },
        {
          "duration": 0.10737698833332843,
          "durationTicks": 131,
          "midi": 60,
          "name": "C4",
          "ticks": 78900,
          "time": 64.6720945,
          "velocity": 0.889763779527559
        },
        {
          "duration": 0.10737698833332843,
          "durationTicks": 131,
          "midi": 67,
          "name": "G4",
          "ticks": 79050,
          "time": 64.79504525,
          "velocity": 0.889763779527559
        },
        {
          "duration": 0.10737698833332843,
          "durationTicks": 131,
          "midi": 60,
          "name": "C4",
          "ticks": 79200,
          "time": 64.917996,
          "velocity": 0.889763779527559
        },
        {
          "duration": 0.10737698833332843,
          "durationTicks": 131,
          "midi": 67,
          "name": "G4",
          "ticks": 79350,
          "time": 65.04094675,
          "velocity": 0.889763779527559
        },
        {
          "duration": 0.10737698833332843,
          "durationTicks": 131,
          "midi": 72,
          "name": "C5",
          "ticks": 79500,
          "time": 65.1638975,
          "velocity": 0.889763779527559
        },
        {
          "duration": 0.10737698833332843,
          "durationTicks": 131,
          "midi": 60,
          "name": "C4",
          "ticks": 79650,
          "time": 65.28684825,
          "velocity": 0.889763779527559
        },
        {
          "duration": 0.10737698833334264,
          "durationTicks": 131,
          "midi": 67,
          "name": "G4",
          "ticks": 79800,
          "time": 65.40979899999999,
          "velocity": 0.889763779527559
        },
        {
          "duration": 0.10737698833334264,
          "durationTicks": 131,
          "midi": 72,
          "name": "C5",
          "ticks": 79950,
          "time": 65.53274975,
          "velocity": 0.889763779527559
        },
        {
          "duration": 0.10737698833334264,
          "durationTicks": 131,
          "midi": 60,
          "name": "C4",
          "ticks": 80100,
          "time": 65.6557005,
          "velocity": 0.889763779527559
        },
        {
          "duration": 0.10737698833334264,
          "durationTicks": 131,
          "midi": 67,
          "name": "G4",
          "ticks": 80250,
          "time": 65.77865125,
          "velocity": 0.889763779527559
        },
        {
          "duration": 0.10737698833332843,
          "durationTicks": 131,
          "midi": 60,
          "name": "C4",
          "ticks": 80400,
          "time": 65.901602,
          "velocity": 0.889763779527559
        },
        {
          "duration": 0.10737698833332843,
          "durationTicks": 131,
          "midi": 67,
          "name": "G4",
          "ticks": 80550,
          "time": 66.02455275,
          "velocity": 0.889763779527559
        },
        {
          "duration": 0.10737698833332843,
          "durationTicks": 131,
          "midi": 72,
          "name": "C5",
          "ticks": 80700,
          "time": 66.1475035,
          "velocity": 0.889763779527559
        },
        {
          "duration": 0.10737698833332843,
          "durationTicks": 131,
          "midi": 60,
          "name": "C4",
          "ticks": 80850,
          "time": 66.27045425,
          "velocity": 0.889763779527559
        },
        {
          "duration": 0.10737698833332843,
          "durationTicks": 131,
          "midi": 67,
          "name": "G4",
          "ticks": 81000,
          "time": 66.393405,
          "velocity": 0.889763779527559
        },
        {
          "duration": 0.10737698833332843,
          "durationTicks": 131,
          "midi": 72,
          "name": "C5",
          "ticks": 81150,
          "time": 66.51635575,
          "velocity": 0.8976377952755905
        },
        {
          "duration": 0.10737698833332843,
          "durationTicks": 131,
          "midi": 60,
          "name": "C4",
          "ticks": 81300,
          "time": 66.6393065,
          "velocity": 0.8976377952755905
        },
        {
          "duration": 0.10737698833332843,
          "durationTicks": 131,
          "midi": 67,
          "name": "G4",
          "ticks": 81450,
          "time": 66.76225725,
          "velocity": 0.8976377952755905
        },
        {
          "duration": 0.10737698833332843,
          "durationTicks": 131,
          "midi": 63,
          "name": "D#4",
          "ticks": 81600,
          "time": 66.885208,
          "velocity": 0.8976377952755905
        },
        {
          "duration": 0.10737698833334264,
          "durationTicks": 131,
          "midi": 70,
          "name": "A#4",
          "ticks": 81750,
          "time": 67.00815874999999,
          "velocity": 0.8976377952755905
        },
        {
          "duration": 0.10737698833334264,
          "durationTicks": 131,
          "midi": 75,
          "name": "D#5",
          "ticks": 81900,
          "time": 67.1311095,
          "velocity": 0.8976377952755905
        },
        {
          "duration": 0.10737698833334264,
          "durationTicks": 131,
          "midi": 63,
          "name": "D#4",
          "ticks": 82050,
          "time": 67.25406025,
          "velocity": 0.8976377952755905
        },
        {
          "duration": 0.10737698833334264,
          "durationTicks": 131,
          "midi": 70,
          "name": "A#4",
          "ticks": 82200,
          "time": 67.377011,
          "velocity": 0.8976377952755905
        },
        {
          "duration": 0.10737698833332843,
          "durationTicks": 131,
          "midi": 75,
          "name": "D#5",
          "ticks": 82350,
          "time": 67.49996175,
          "velocity": 0.8976377952755905
        },
        {
          "duration": 0.10737698833332843,
          "durationTicks": 131,
          "midi": 63,
          "name": "D#4",
          "ticks": 82500,
          "time": 67.6229125,
          "velocity": 0.8976377952755905
        },
        {
          "duration": 0.10737698833332843,
          "durationTicks": 131,
          "midi": 70,
          "name": "A#4",
          "ticks": 82650,
          "time": 67.74586325,
          "velocity": 0.8976377952755905
        },
        {
          "duration": 0.10737698833332843,
          "durationTicks": 131,
          "midi": 63,
          "name": "D#4",
          "ticks": 82800,
          "time": 67.868814,
          "velocity": 0.8976377952755905
        },
        {
          "duration": 0.10737698833332843,
          "durationTicks": 131,
          "midi": 70,
          "name": "A#4",
          "ticks": 82950,
          "time": 67.99176475,
          "velocity": 0.8976377952755905
        },
        {
          "duration": 0.10737698833332843,
          "durationTicks": 131,
          "midi": 75,
          "name": "D#5",
          "ticks": 83100,
          "time": 68.1147155,
          "velocity": 0.8976377952755905
        },
        {
          "duration": 0.10737698833332843,
          "durationTicks": 131,
          "midi": 63,
          "name": "D#4",
          "ticks": 83250,
          "time": 68.23766625,
          "velocity": 0.8976377952755905
        },
        {
          "duration": 0.10737698833332843,
          "durationTicks": 131,
          "midi": 70,
          "name": "A#4",
          "ticks": 83400,
          "time": 68.360617,
          "velocity": 0.8976377952755905
        },
        {
          "duration": 0.10737698833334264,
          "durationTicks": 131,
          "midi": 75,
          "name": "D#5",
          "ticks": 83550,
          "time": 68.48356774999999,
          "velocity": 0.8976377952755905
        },
        {
          "duration": 0.10737698833334264,
          "durationTicks": 131,
          "midi": 63,
          "name": "D#4",
          "ticks": 83700,
          "time": 68.60651849999999,
          "velocity": 0.8976377952755905
        },
        {
          "duration": 0.10737698833334264,
          "durationTicks": 131,
          "midi": 70,
          "name": "A#4",
          "ticks": 83850,
          "time": 68.72946925,
          "velocity": 0.8976377952755905
        },
        {
          "duration": 0.10737698833334264,
          "durationTicks": 131,
          "midi": 65,
          "name": "F4",
          "ticks": 84000,
          "time": 68.85242,
          "velocity": 0.8976377952755905
        },
        {
          "duration": 0.10737698833334264,
          "durationTicks": 131,
          "midi": 72,
          "name": "C5",
          "ticks": 84150,
          "time": 68.97537075,
          "velocity": 0.8976377952755905
        },
        {
          "duration": 0.10737698833332843,
          "durationTicks": 131,
          "midi": 77,
          "name": "F5",
          "ticks": 84300,
          "time": 69.0983215,
          "velocity": 0.8976377952755905
        },
        {
          "duration": 0.10737698833332843,
          "durationTicks": 131,
          "midi": 65,
          "name": "F4",
          "ticks": 84450,
          "time": 69.22127225,
          "velocity": 0.8976377952755905
        },
        {
          "duration": 0.10737698833332843,
          "durationTicks": 131,
          "midi": 72,
          "name": "C5",
          "ticks": 84600,
          "time": 69.344223,
          "velocity": 0.8976377952755905
        },
        {
          "duration": 0.10737698833332843,
          "durationTicks": 131,
          "midi": 77,
          "name": "F5",
          "ticks": 84750,
          "time": 69.46717375,
          "velocity": 0.8976377952755905
        },
        {
          "duration": 0.10737698833332843,
          "durationTicks": 131,
          "midi": 65,
          "name": "F4",
          "ticks": 84900,
          "time": 69.5901245,
          "velocity": 0.8976377952755905
        },
        {
          "duration": 0.10737698833332843,
          "durationTicks": 131,
          "midi": 72,
          "name": "C5",
          "ticks": 85050,
          "time": 69.71307525,
          "velocity": 0.8976377952755905
        },
        {
          "duration": 0.10737698833332843,
          "durationTicks": 131,
          "midi": 67,
          "name": "G4",
          "ticks": 85200,
          "time": 69.836026,
          "velocity": 0.8976377952755905
        },
        {
          "duration": 0.10737698833332843,
          "durationTicks": 131,
          "midi": 74,
          "name": "D5",
          "ticks": 85350,
          "time": 69.95897675,
          "velocity": 0.8976377952755905
        },
        {
          "duration": 0.10737698833334264,
          "durationTicks": 131,
          "midi": 79,
          "name": "G5",
          "ticks": 85500,
          "time": 70.08192749999999,
          "velocity": 0.8976377952755905
        },
        {
          "duration": 0.10737698833334264,
          "durationTicks": 131,
          "midi": 67,
          "name": "G4",
          "ticks": 85650,
          "time": 70.20487825,
          "velocity": 0.8976377952755905
        },
        {
          "duration": 0.10737698833334264,
          "durationTicks": 131,
          "midi": 74,
          "name": "D5",
          "ticks": 85800,
          "time": 70.327829,
          "velocity": 0.8976377952755905
        },
        {
          "duration": 0.10737698833334264,
          "durationTicks": 131,
          "midi": 79,
          "name": "G5",
          "ticks": 85950,
          "time": 70.45077975,
          "velocity": 0.8976377952755905
        },
        {
          "duration": 0.10737698833334264,
          "durationTicks": 131,
          "midi": 67,
          "name": "G4",
          "ticks": 86100,
          "time": 70.5737305,
          "velocity": 0.8976377952755905
        },
        {
          "duration": 0.10737698833332843,
          "durationTicks": 131,
          "midi": 74,
          "name": "D5",
          "ticks": 86250,
          "time": 70.69668125,
          "velocity": 0.8976377952755905
        },
        {
          "duration": 0.10737698833332843,
          "durationTicks": 131,
          "midi": 60,
          "name": "C4",
          "ticks": 86400,
          "time": 70.819632,
          "velocity": 0.889763779527559
        },
        {
          "duration": 0.10737698833332843,
          "durationTicks": 131,
          "midi": 67,
          "name": "G4",
          "ticks": 86550,
          "time": 70.94258275,
          "velocity": 0.889763779527559
        },
        {
          "duration": 0.10737698833332843,
          "durationTicks": 131,
          "midi": 72,
          "name": "C5",
          "ticks": 86700,
          "time": 71.0655335,
          "velocity": 0.889763779527559
        },
        {
          "duration": 0.10737698833332843,
          "durationTicks": 131,
          "midi": 60,
          "name": "C4",
          "ticks": 86850,
          "time": 71.18848425,
          "velocity": 0.889763779527559
        },
        {
          "duration": 0.10737698833332843,
          "durationTicks": 131,
          "midi": 67,
          "name": "G4",
          "ticks": 87000,
          "time": 71.311435,
          "velocity": 0.889763779527559
        },
        {
          "duration": 0.10737698833332843,
          "durationTicks": 131,
          "midi": 72,
          "name": "C5",
          "ticks": 87150,
          "time": 71.43438575,
          "velocity": 0.889763779527559
        },
        {
          "duration": 0.10737698833332843,
          "durationTicks": 131,
          "midi": 60,
          "name": "C4",
          "ticks": 87300,
          "time": 71.5573365,
          "velocity": 0.889763779527559
        },
        {
          "duration": 0.10737698833334264,
          "durationTicks": 131,
          "midi": 67,
          "name": "G4",
          "ticks": 87450,
          "time": 71.68028724999999,
          "velocity": 0.889763779527559
        },
        {
          "duration": 0.10737698833334264,
          "durationTicks": 131,
          "midi": 60,
          "name": "C4",
          "ticks": 87600,
          "time": 71.803238,
          "velocity": 0.889763779527559
        },
        {
          "duration": 0.10737698833334264,
          "durationTicks": 131,
          "midi": 67,
          "name": "G4",
          "ticks": 87750,
          "time": 71.92618875,
          "velocity": 0.889763779527559
        },
        {
          "duration": 0.10737698833334264,
          "durationTicks": 131,
          "midi": 72,
          "name": "C5",
          "ticks": 87900,
          "time": 72.0491395,
          "velocity": 0.889763779527559
        },
        {
          "duration": 0.10737698833332843,
          "durationTicks": 131,
          "midi": 60,
          "name": "C4",
          "ticks": 88050,
          "time": 72.17209025,
          "velocity": 0.889763779527559
        },
        {
          "duration": 0.10737698833332843,
          "durationTicks": 131,
          "midi": 67,
          "name": "G4",
          "ticks": 88200,
          "time": 72.295041,
          "velocity": 0.889763779527559
        },
        {
          "duration": 0.10737698833332843,
          "durationTicks": 131,
          "midi": 72,
          "name": "C5",
          "ticks": 88350,
          "time": 72.41799175,
          "velocity": 0.889763779527559
        },
        {
          "duration": 0.10737698833332843,
          "durationTicks": 131,
          "midi": 60,
          "name": "C4",
          "ticks": 88500,
          "time": 72.5409425,
          "velocity": 0.889763779527559
        },
        {
          "duration": 0.10737698833332843,
          "durationTicks": 131,
          "midi": 67,
          "name": "G4",
          "ticks": 88650,
          "time": 72.66389325,
          "velocity": 0.889763779527559
        },
        {
          "duration": 0.10737698833332843,
          "durationTicks": 131,
          "midi": 60,
          "name": "C4",
          "ticks": 88800,
          "time": 72.786844,
          "velocity": 0.889763779527559
        },
        {
          "duration": 0.10737698833332843,
          "durationTicks": 131,
          "midi": 67,
          "name": "G4",
          "ticks": 88950,
          "time": 72.90979475,
          "velocity": 0.889763779527559
        },
        {
          "duration": 0.10737698833332843,
          "durationTicks": 131,
          "midi": 72,
          "name": "C5",
          "ticks": 89100,
          "time": 73.0327455,
          "velocity": 0.889763779527559
        },
        {
          "duration": 0.10737698833332843,
          "durationTicks": 131,
          "midi": 60,
          "name": "C4",
          "ticks": 89250,
          "time": 73.15569625,
          "velocity": 0.889763779527559
        },
        {
          "duration": 0.10737698833334264,
          "durationTicks": 131,
          "midi": 67,
          "name": "G4",
          "ticks": 89400,
          "time": 73.27864699999999,
          "velocity": 0.889763779527559
        },
        {
          "duration": 0.10737698833334264,
          "durationTicks": 131,
          "midi": 72,
          "name": "C5",
          "ticks": 89550,
          "time": 73.40159775,
          "velocity": 0.889763779527559
        },
        {
          "duration": 0.10737698833334264,
          "durationTicks": 131,
          "midi": 60,
          "name": "C4",
          "ticks": 89700,
          "time": 73.5245485,
          "velocity": 0.889763779527559
        },
        {
          "duration": 0.10737698833334264,
          "durationTicks": 131,
          "midi": 67,
          "name": "G4",
          "ticks": 89850,
          "time": 73.64749925,
          "velocity": 0.889763779527559
        },
        {
          "duration": 0.10737698833332843,
          "durationTicks": 131,
          "midi": 60,
          "name": "C4",
          "ticks": 90000,
          "time": 73.77045,
          "velocity": 0.889763779527559
        },
        {
          "duration": 0.10737698833332843,
          "durationTicks": 131,
          "midi": 67,
          "name": "G4",
          "ticks": 90150,
          "time": 73.89340075,
          "velocity": 0.889763779527559
        },
        {
          "duration": 0.10737698833332843,
          "durationTicks": 131,
          "midi": 72,
          "name": "C5",
          "ticks": 90300,
          "time": 74.0163515,
          "velocity": 0.889763779527559
        },
        {
          "duration": 0.10737698833332843,
          "durationTicks": 131,
          "midi": 60,
          "name": "C4",
          "ticks": 90450,
          "time": 74.13930225,
          "velocity": 0.889763779527559
        },
        {
          "duration": 0.10737698833332843,
          "durationTicks": 131,
          "midi": 67,
          "name": "G4",
          "ticks": 90600,
          "time": 74.262253,
          "velocity": 0.889763779527559
        },
        {
          "duration": 0.10737698833332843,
          "durationTicks": 131,
          "midi": 72,
          "name": "C5",
          "ticks": 90750,
          "time": 74.38520375,
          "velocity": 0.8976377952755905
        },
        {
          "duration": 0.10737698833332843,
          "durationTicks": 131,
          "midi": 60,
          "name": "C4",
          "ticks": 90900,
          "time": 74.5081545,
          "velocity": 0.8976377952755905
        },
        {
          "duration": 0.10737698833332843,
          "durationTicks": 131,
          "midi": 67,
          "name": "G4",
          "ticks": 91050,
          "time": 74.63110525,
          "velocity": 0.8976377952755905
        },
        {
          "duration": 0.10737698833334264,
          "durationTicks": 131,
          "midi": 63,
          "name": "D#4",
          "ticks": 91200,
          "time": 74.75405599999999,
          "velocity": 0.8976377952755905
        },
        {
          "duration": 0.10737698833334264,
          "durationTicks": 131,
          "midi": 70,
          "name": "A#4",
          "ticks": 91350,
          "time": 74.87700674999999,
          "velocity": 0.8976377952755905
        },
        {
          "duration": 0.10737698833334264,
          "durationTicks": 131,
          "midi": 75,
          "name": "D#5",
          "ticks": 91500,
          "time": 74.9999575,
          "velocity": 0.8976377952755905
        },
        {
          "duration": 0.10737698833334264,
          "durationTicks": 131,
          "midi": 63,
          "name": "D#4",
          "ticks": 91650,
          "time": 75.12290825,
          "velocity": 0.8976377952755905
        },
        {
          "duration": 0.10737698833334264,
          "durationTicks": 131,
          "midi": 70,
          "name": "A#4",
          "ticks": 91800,
          "time": 75.245859,
          "velocity": 0.8976377952755905
        },
        {
          "duration": 0.10737698833332843,
          "durationTicks": 131,
          "midi": 75,
          "name": "D#5",
          "ticks": 91950,
          "time": 75.36880975,
          "velocity": 0.8976377952755905
        },
        {
          "duration": 0.10737698833332843,
          "durationTicks": 131,
          "midi": 63,
          "name": "D#4",
          "ticks": 92100,
          "time": 75.4917605,
          "velocity": 0.8976377952755905
        },
        {
          "duration": 0.10737698833332843,
          "durationTicks": 131,
          "midi": 70,
          "name": "A#4",
          "ticks": 92250,
          "time": 75.61471125,
          "velocity": 0.8976377952755905
        },
        {
          "duration": 0.10737698833332843,
          "durationTicks": 131,
          "midi": 63,
          "name": "D#4",
          "ticks": 92400,
          "time": 75.737662,
          "velocity": 0.8976377952755905
        },
        {
          "duration": 0.10737698833332843,
          "durationTicks": 131,
          "midi": 70,
          "name": "A#4",
          "ticks": 92550,
          "time": 75.86061275,
          "velocity": 0.8976377952755905
        },
        {
          "duration": 0.10737698833332843,
          "durationTicks": 131,
          "midi": 75,
          "name": "D#5",
          "ticks": 92700,
          "time": 75.9835635,
          "velocity": 0.8976377952755905
        },
        {
          "duration": 0.10737698833332843,
          "durationTicks": 131,
          "midi": 63,
          "name": "D#4",
          "ticks": 92850,
          "time": 76.10651425,
          "velocity": 0.8976377952755905
        },
        {
          "duration": 0.10737698833332843,
          "durationTicks": 131,
          "midi": 70,
          "name": "A#4",
          "ticks": 93000,
          "time": 76.229465,
          "velocity": 0.8976377952755905
        },
        {
          "duration": 0.10737698833334264,
          "durationTicks": 131,
          "midi": 75,
          "name": "D#5",
          "ticks": 93150,
          "time": 76.35241574999999,
          "velocity": 0.8976377952755905
        },
        {
          "duration": 0.10737698833334264,
          "durationTicks": 131,
          "midi": 63,
          "name": "D#4",
          "ticks": 93300,
          "time": 76.47536649999999,
          "velocity": 0.8976377952755905
        },
        {
          "duration": 0.10737698833334264,
          "durationTicks": 131,
          "midi": 70,
          "name": "A#4",
          "ticks": 93450,
          "time": 76.59831725,
          "velocity": 0.8976377952755905
        },
        {
          "duration": 0.10737698833334264,
          "durationTicks": 131,
          "midi": 65,
          "name": "F4",
          "ticks": 93600,
          "time": 76.721268,
          "velocity": 0.8976377952755905
        },
        {
          "duration": 0.10737698833334264,
          "durationTicks": 131,
          "midi": 72,
          "name": "C5",
          "ticks": 93750,
          "time": 76.84421875,
          "velocity": 0.8976377952755905
        },
        {
          "duration": 0.10737698833332843,
          "durationTicks": 131,
          "midi": 77,
          "name": "F5",
          "ticks": 93900,
          "time": 76.9671695,
          "velocity": 0.8976377952755905
        },
        {
          "duration": 0.10737698833332843,
          "durationTicks": 131,
          "midi": 65,
          "name": "F4",
          "ticks": 94050,
          "time": 77.09012025,
          "velocity": 0.8976377952755905
        },
        {
          "duration": 0.10737698833332843,
          "durationTicks": 131,
          "midi": 72,
          "name": "C5",
          "ticks": 94200,
          "time": 77.213071,
          "velocity": 0.8976377952755905
        },
        {
          "duration": 0.10737698833332843,
          "durationTicks": 131,
          "midi": 77,
          "name": "F5",
          "ticks": 94350,
          "time": 77.33602175,
          "velocity": 0.8976377952755905
        },
        {
          "duration": 0.10737698833332843,
          "durationTicks": 131,
          "midi": 65,
          "name": "F4",
          "ticks": 94500,
          "time": 77.4589725,
          "velocity": 0.8976377952755905
        },
        {
          "duration": 0.10737698833332843,
          "durationTicks": 131,
          "midi": 72,
          "name": "C5",
          "ticks": 94650,
          "time": 77.58192325,
          "velocity": 0.8976377952755905
        },
        {
          "duration": 0.9680322383333362,
          "durationTicks": 1181,
          "midi": 72,
          "name": "C5",
          "ticks": 96000,
          "time": 78.68848,
          "velocity": 0.7795275590551181
        },
        {
          "duration": 0.9680322383333362,
          "durationTicks": 1181,
          "midi": 72,
          "name": "C5",
          "ticks": 96000,
          "time": 78.68848,
          "velocity": 0.7795275590551181
        },
        {
          "duration": 0.35327848833334485,
          "durationTicks": 431,
          "midi": 72,
          "name": "C5",
          "ticks": 97200,
          "time": 79.672086,
          "velocity": 0.7795275590551181
        },
        {
          "duration": 0.35327848833334485,
          "durationTicks": 431,
          "midi": 72,
          "name": "C5",
          "ticks": 97200,
          "time": 79.672086,
          "velocity": 0.7795275590551181
        },
        {
          "duration": 0.10737698833332843,
          "durationTicks": 131,
          "midi": 72,
          "name": "C5",
          "ticks": 97650,
          "time": 80.04093825,
          "velocity": 0.7795275590551181
        },
        {
          "duration": 0.10737698833332843,
          "durationTicks": 131,
          "midi": 72,
          "name": "C5",
          "ticks": 97650,
          "time": 80.04093825,
          "velocity": 0.7795275590551181
        },
        {
          "duration": 0.47622923833333175,
          "durationTicks": 581,
          "midi": 74,
          "name": "D5",
          "ticks": 97800,
          "time": 80.163889,
          "velocity": 0.7795275590551181
        },
        {
          "duration": 0.47622923833333175,
          "durationTicks": 581,
          "midi": 74,
          "name": "D5",
          "ticks": 97800,
          "time": 80.163889,
          "velocity": 0.7795275590551181
        },
        {
          "duration": 1.4598352383333264,
          "durationTicks": 1781,
          "midi": 75,
          "name": "D#5",
          "ticks": 98400,
          "time": 80.655692,
          "velocity": 0.7795275590551181
        },
        {
          "duration": 1.4598352383333264,
          "durationTicks": 1781,
          "midi": 75,
          "name": "D#5",
          "ticks": 98400,
          "time": 80.655692,
          "velocity": 0.7795275590551181
        },
        {
          "duration": 0.47622923833333175,
          "durationTicks": 581,
          "midi": 80,
          "name": "G#5",
          "ticks": 100200,
          "time": 82.131101,
          "velocity": 0.7795275590551181
        },
        {
          "duration": 0.47622923833333175,
          "durationTicks": 581,
          "midi": 80,
          "name": "G#5",
          "ticks": 100200,
          "time": 82.131101,
          "velocity": 0.7795275590551181
        },
        {
          "duration": 0.47622923833333175,
          "durationTicks": 581,
          "midi": 79,
          "name": "G5",
          "ticks": 100800,
          "time": 82.622904,
          "velocity": 0.7795275590551181
        },
        {
          "duration": 0.47622923833333175,
          "durationTicks": 581,
          "midi": 79,
          "name": "G5",
          "ticks": 100800,
          "time": 82.622904,
          "velocity": 0.7795275590551181
        },
        {
          "duration": 0.47622923833333175,
          "durationTicks": 581,
          "midi": 75,
          "name": "D#5",
          "ticks": 101400,
          "time": 83.114707,
          "velocity": 0.7795275590551181
        },
        {
          "duration": 0.47622923833333175,
          "durationTicks": 581,
          "midi": 75,
          "name": "D#5",
          "ticks": 101400,
          "time": 83.114707,
          "velocity": 0.7795275590551181
        },
        {
          "duration": 0.47622923833333175,
          "durationTicks": 581,
          "midi": 77,
          "name": "F5",
          "ticks": 102000,
          "time": 83.60651,
          "velocity": 0.7795275590551181
        },
        {
          "duration": 0.47622923833333175,
          "durationTicks": 581,
          "midi": 77,
          "name": "F5",
          "ticks": 102000,
          "time": 83.60651,
          "velocity": 0.7795275590551181
        },
        {
          "duration": 0.47622923833333175,
          "durationTicks": 581,
          "midi": 74,
          "name": "D5",
          "ticks": 102600,
          "time": 84.098313,
          "velocity": 0.7795275590551181
        },
        {
          "duration": 0.47622923833333175,
          "durationTicks": 581,
          "midi": 74,
          "name": "D5",
          "ticks": 102600,
          "time": 84.098313,
          "velocity": 0.7795275590551181
        },
        {
          "duration": 0.9680322383333362,
          "durationTicks": 1181,
          "midi": 75,
          "name": "D#5",
          "ticks": 103200,
          "time": 84.590116,
          "velocity": 0.7795275590551181
        },
        {
          "duration": 0.9680322383333362,
          "durationTicks": 1181,
          "midi": 75,
          "name": "D#5",
          "ticks": 103200,
          "time": 84.590116,
          "velocity": 0.7795275590551181
        },
        {
          "duration": 0.968032238333322,
          "durationTicks": 1181,
          "midi": 74,
          "name": "D5",
          "ticks": 104400,
          "time": 85.573722,
          "velocity": 0.7795275590551181
        },
        {
          "duration": 0.968032238333322,
          "durationTicks": 1181,
          "midi": 74,
          "name": "D5",
          "ticks": 104400,
          "time": 85.573722,
          "velocity": 0.7795275590551181
        },
        {
          "duration": 0.9680322383333362,
          "durationTicks": 1181,
          "midi": 72,
          "name": "C5",
          "ticks": 105600,
          "time": 86.557328,
          "velocity": 0.7795275590551181
        },
        {
          "duration": 0.9680322383333362,
          "durationTicks": 1181,
          "midi": 72,
          "name": "C5",
          "ticks": 105600,
          "time": 86.557328,
          "velocity": 0.7795275590551181
        },
        {
          "duration": 0.35327848833334485,
          "durationTicks": 431,
          "midi": 72,
          "name": "C5",
          "ticks": 106800,
          "time": 87.540934,
          "velocity": 0.7795275590551181
        },
        {
          "duration": 0.35327848833334485,
          "durationTicks": 431,
          "midi": 72,
          "name": "C5",
          "ticks": 106800,
          "time": 87.540934,
          "velocity": 0.7795275590551181
        },
        {
          "duration": 0.10737698833332843,
          "durationTicks": 131,
          "midi": 72,
          "name": "C5",
          "ticks": 107250,
          "time": 87.90978625,
          "velocity": 0.7795275590551181
        },
        {
          "duration": 0.10737698833332843,
          "durationTicks": 131,
          "midi": 72,
          "name": "C5",
          "ticks": 107250,
          "time": 87.90978625,
          "velocity": 0.7795275590551181
        },
        {
          "duration": 0.47622923833333175,
          "durationTicks": 581,
          "midi": 74,
          "name": "D5",
          "ticks": 107400,
          "time": 88.032737,
          "velocity": 0.7795275590551181
        },
        {
          "duration": 0.47622923833333175,
          "durationTicks": 581,
          "midi": 74,
          "name": "D5",
          "ticks": 107400,
          "time": 88.032737,
          "velocity": 0.7795275590551181
        },
        {
          "duration": 1.4598352383333264,
          "durationTicks": 1781,
          "midi": 75,
          "name": "D#5",
          "ticks": 108000,
          "time": 88.52454,
          "velocity": 0.7795275590551181
        },
        {
          "duration": 1.4598352383333264,
          "durationTicks": 1781,
          "midi": 75,
          "name": "D#5",
          "ticks": 108000,
          "time": 88.52454,
          "velocity": 0.7795275590551181
        },
        {
          "duration": 0.47622923833333175,
          "durationTicks": 581,
          "midi": 80,
          "name": "G#5",
          "ticks": 109800,
          "time": 89.999949,
          "velocity": 0.7795275590551181
        },
        {
          "duration": 0.47622923833333175,
          "durationTicks": 581,
          "midi": 80,
          "name": "G#5",
          "ticks": 109800,
          "time": 89.999949,
          "velocity": 0.7795275590551181
        },
        {
          "duration": 0.47622923833334596,
          "durationTicks": 581,
          "midi": 83,
          "name": "B5",
          "ticks": 110400,
          "time": 90.49175199999999,
          "velocity": 0.7795275590551181
        },
        {
          "duration": 0.47622923833334596,
          "durationTicks": 581,
          "midi": 83,
          "name": "B5",
          "ticks": 110400,
          "time": 90.49175199999999,
          "velocity": 0.7795275590551181
        },
        {
          "duration": 0.47622923833333175,
          "durationTicks": 581,
          "midi": 79,
          "name": "G5",
          "ticks": 111000,
          "time": 90.983555,
          "velocity": 0.7795275590551181
        },
        {
          "duration": 0.47622923833333175,
          "durationTicks": 581,
          "midi": 79,
          "name": "G5",
          "ticks": 111000,
          "time": 90.983555,
          "velocity": 0.7795275590551181
        },
        {
          "duration": 0.47622923833333175,
          "durationTicks": 581,
          "midi": 83,
          "name": "B5",
          "ticks": 111600,
          "time": 91.475358,
          "velocity": 0.7795275590551181
        },
        {
          "duration": 0.47622923833333175,
          "durationTicks": 581,
          "midi": 83,
          "name": "B5",
          "ticks": 111600,
          "time": 91.475358,
          "velocity": 0.7795275590551181
        },
        {
          "duration": 0.47622923833333175,
          "durationTicks": 581,
          "midi": 84,
          "name": "C6",
          "ticks": 112200,
          "time": 91.967161,
          "velocity": 0.7795275590551181
        },
        {
          "duration": 0.47622923833333175,
          "durationTicks": 581,
          "midi": 84,
          "name": "C6",
          "ticks": 112200,
          "time": 91.967161,
          "velocity": 0.7795275590551181
        },
        {
          "duration": 0.9680322383333362,
          "durationTicks": 1181,
          "midi": 84,
          "name": "C6",
          "ticks": 112800,
          "time": 92.458964,
          "velocity": 0.7795275590551181
        },
        {
          "duration": 0.9680322383333362,
          "durationTicks": 1181,
          "midi": 84,
          "name": "C6",
          "ticks": 112800,
          "time": 92.458964,
          "velocity": 0.7795275590551181
        },
        {
          "duration": 0.968032238333322,
          "durationTicks": 1181,
          "midi": 87,
          "name": "D#6",
          "ticks": 114000,
          "time": 93.44257,
          "velocity": 0.7874015748031497
        },
        {
          "duration": 0.968032238333322,
          "durationTicks": 1181,
          "midi": 87,
          "name": "D#6",
          "ticks": 114000,
          "time": 93.44257,
          "velocity": 0.7874015748031497
        },
        {
          "duration": 0.9680322383333362,
          "durationTicks": 1181,
          "midi": 84,
          "name": "C6",
          "ticks": 115200,
          "time": 94.426176,
          "velocity": 0.7874015748031497
        },
        {
          "duration": 0.9680322383333362,
          "durationTicks": 1181,
          "midi": 72,
          "name": "C5",
          "ticks": 115200,
          "time": 94.426176,
          "velocity": 0.7874015748031497
        },
        {
          "duration": 0.9680322383333362,
          "durationTicks": 1181,
          "midi": 72,
          "name": "C5",
          "ticks": 115200,
          "time": 94.426176,
          "velocity": 0.7874015748031497
        },
        {
          "duration": 0.35327848833334485,
          "durationTicks": 431,
          "midi": 86,
          "name": "D6",
          "ticks": 116400,
          "time": 95.40978199999999,
          "velocity": 0.7874015748031497
        },
        {
          "duration": 0.35327848833334485,
          "durationTicks": 431,
          "midi": 72,
          "name": "C5",
          "ticks": 116400,
          "time": 95.40978199999999,
          "velocity": 0.7874015748031497
        },
        {
          "duration": 0.35327848833334485,
          "durationTicks": 431,
          "midi": 72,
          "name": "C5",
          "ticks": 116400,
          "time": 95.40978199999999,
          "velocity": 0.7874015748031497
        },
        {
          "duration": 0.10737698833332843,
          "durationTicks": 131,
          "midi": 86,
          "name": "D6",
          "ticks": 116850,
          "time": 95.77863425,
          "velocity": 0.7874015748031497
        },
        {
          "duration": 0.10737698833332843,
          "durationTicks": 131,
          "midi": 72,
          "name": "C5",
          "ticks": 116850,
          "time": 95.77863425,
          "velocity": 0.7874015748031497
        },
        {
          "duration": 0.10737698833332843,
          "durationTicks": 131,
          "midi": 72,
          "name": "C5",
          "ticks": 116850,
          "time": 95.77863425,
          "velocity": 0.7874015748031497
        },
        {
          "duration": 0.47622923833333175,
          "durationTicks": 581,
          "midi": 89,
          "name": "F6",
          "ticks": 117000,
          "time": 95.901585,
          "velocity": 0.7874015748031497
        },
        {
          "duration": 0.47622923833333175,
          "durationTicks": 581,
          "midi": 74,
          "name": "D5",
          "ticks": 117000,
          "time": 95.901585,
          "velocity": 0.7874015748031497
        },
        {
          "duration": 0.47622923833333175,
          "durationTicks": 581,
          "midi": 74,
          "name": "D5",
          "ticks": 117000,
          "time": 95.901585,
          "velocity": 0.7874015748031497
        },
        {
          "duration": 1.4598352383333264,
          "durationTicks": 1781,
          "midi": 91,
          "name": "G6",
          "ticks": 117600,
          "time": 96.393388,
          "velocity": 0.7874015748031497
        },
        {
          "duration": 1.4598352383333264,
          "durationTicks": 1781,
          "midi": 75,
          "name": "D#5",
          "ticks": 117600,
          "time": 96.393388,
          "velocity": 0.7874015748031497
        },
        {
          "duration": 1.4598352383333264,
          "durationTicks": 1781,
          "midi": 75,
          "name": "D#5",
          "ticks": 117600,
          "time": 96.393388,
          "velocity": 0.7874015748031497
        },
        {
          "duration": 0.47622923833333175,
          "durationTicks": 581,
          "midi": 89,
          "name": "F6",
          "ticks": 119400,
          "time": 97.868797,
          "velocity": 0.7874015748031497
        },
        {
          "duration": 0.47622923833333175,
          "durationTicks": 581,
          "midi": 80,
          "name": "G#5",
          "ticks": 119400,
          "time": 97.868797,
          "velocity": 0.7874015748031497
        },
        {
          "duration": 0.47622923833333175,
          "durationTicks": 581,
          "midi": 80,
          "name": "G#5",
          "ticks": 119400,
          "time": 97.868797,
          "velocity": 0.7874015748031497
        },
        {
          "duration": 0.47622923833333175,
          "durationTicks": 581,
          "midi": 86,
          "name": "D6",
          "ticks": 120000,
          "time": 98.3606,
          "velocity": 0.7874015748031497
        },
        {
          "duration": 0.47622923833333175,
          "durationTicks": 581,
          "midi": 79,
          "name": "G5",
          "ticks": 120000,
          "time": 98.3606,
          "velocity": 0.7874015748031497
        },
        {
          "duration": 0.47622923833333175,
          "durationTicks": 581,
          "midi": 79,
          "name": "G5",
          "ticks": 120000,
          "time": 98.3606,
          "velocity": 0.7874015748031497
        },
        {
          "duration": 0.47622923833333175,
          "durationTicks": 581,
          "midi": 84,
          "name": "C6",
          "ticks": 120600,
          "time": 98.852403,
          "velocity": 0.7874015748031497
        },
        {
          "duration": 0.47622923833333175,
          "durationTicks": 581,
          "midi": 75,
          "name": "D#5",
          "ticks": 120600,
          "time": 98.852403,
          "velocity": 0.7874015748031497
        },
        {
          "duration": 0.47622923833333175,
          "durationTicks": 581,
          "midi": 75,
          "name": "D#5",
          "ticks": 120600,
          "time": 98.852403,
          "velocity": 0.7874015748031497
        },
        {
          "duration": 0.47622923833333175,
          "durationTicks": 581,
          "midi": 87,
          "name": "D#6",
          "ticks": 121200,
          "time": 99.344206,
          "velocity": 0.7874015748031497
        },
        {
          "duration": 0.47622923833333175,
          "durationTicks": 581,
          "midi": 77,
          "name": "F5",
          "ticks": 121200,
          "time": 99.344206,
          "velocity": 0.7874015748031497
        },
        {
          "duration": 0.47622923833333175,
          "durationTicks": 581,
          "midi": 77,
          "name": "F5",
          "ticks": 121200,
          "time": 99.344206,
          "velocity": 0.7874015748031497
        },
        {
          "duration": 0.47622923833333175,
          "durationTicks": 581,
          "midi": 87,
          "name": "D#6",
          "ticks": 121800,
          "time": 99.836009,
          "velocity": 0.7874015748031497
        },
        {
          "duration": 0.47622923833333175,
          "durationTicks": 581,
          "midi": 77,
          "name": "F5",
          "ticks": 121800,
          "time": 99.836009,
          "velocity": 0.7874015748031497
        },
        {
          "duration": 0.47622923833333175,
          "durationTicks": 581,
          "midi": 77,
          "name": "F5",
          "ticks": 121800,
          "time": 99.836009,
          "velocity": 0.7874015748031497
        },
        {
          "duration": 1.9516382383333308,
          "durationTicks": 2381,
          "midi": 75,
          "name": "D#5",
          "ticks": 122400,
          "time": 100.327812,
          "velocity": 0.7874015748031497
        },
        {
          "duration": 1.9516382383333308,
          "durationTicks": 2381,
          "midi": 75,
          "name": "D#5",
          "ticks": 122400,
          "time": 100.327812,
          "velocity": 0.7874015748031497
        },
        {
          "duration": 1.9516382383333308,
          "durationTicks": 2381,
          "midi": 84,
          "name": "C6",
          "ticks": 122400,
          "time": 100.327812,
          "velocity": 0.7874015748031497
        },
        {
          "duration": 0.9680322383333362,
          "durationTicks": 1181,
          "midi": 87,
          "name": "D#6",
          "ticks": 124800,
          "time": 102.295024,
          "velocity": 0.7874015748031497
        },
        {
          "duration": 0.9680322383333362,
          "durationTicks": 1181,
          "midi": 72,
          "name": "C5",
          "ticks": 124800,
          "time": 102.295024,
          "velocity": 0.7874015748031497
        },
        {
          "duration": 0.9680322383333362,
          "durationTicks": 1181,
          "midi": 72,
          "name": "C5",
          "ticks": 124800,
          "time": 102.295024,
          "velocity": 0.7874015748031497
        },
        {
          "duration": 0.35327848833334485,
          "durationTicks": 431,
          "midi": 87,
          "name": "D#6",
          "ticks": 126000,
          "time": 103.27862999999999,
          "velocity": 0.7874015748031497
        },
        {
          "duration": 0.35327848833334485,
          "durationTicks": 431,
          "midi": 72,
          "name": "C5",
          "ticks": 126000,
          "time": 103.27862999999999,
          "velocity": 0.7874015748031497
        },
        {
          "duration": 0.35327848833334485,
          "durationTicks": 431,
          "midi": 72,
          "name": "C5",
          "ticks": 126000,
          "time": 103.27862999999999,
          "velocity": 0.7874015748031497
        },
        {
          "duration": 0.10737698833332843,
          "durationTicks": 131,
          "midi": 87,
          "name": "D#6",
          "ticks": 126450,
          "time": 103.64748225,
          "velocity": 0.7874015748031497
        },
        {
          "duration": 0.10737698833332843,
          "durationTicks": 131,
          "midi": 72,
          "name": "C5",
          "ticks": 126450,
          "time": 103.64748225,
          "velocity": 0.7874015748031497
        },
        {
          "duration": 0.10737698833332843,
          "durationTicks": 131,
          "midi": 72,
          "name": "C5",
          "ticks": 126450,
          "time": 103.64748225,
          "velocity": 0.7874015748031497
        },
        {
          "duration": 0.47622923833333175,
          "durationTicks": 581,
          "midi": 89,
          "name": "F6",
          "ticks": 126600,
          "time": 103.770433,
          "velocity": 0.7874015748031497
        },
        {
          "duration": 0.47622923833333175,
          "durationTicks": 581,
          "midi": 74,
          "name": "D5",
          "ticks": 126600,
          "time": 103.770433,
          "velocity": 0.7874015748031497
        },
        {
          "duration": 0.47622923833333175,
          "durationTicks": 581,
          "midi": 74,
          "name": "D5",
          "ticks": 126600,
          "time": 103.770433,
          "velocity": 0.7874015748031497
        },
        {
          "duration": 1.4598352383333264,
          "durationTicks": 1781,
          "midi": 82,
          "name": "A#5",
          "ticks": 127200,
          "time": 104.262236,
          "velocity": 0.7874015748031497
        },
        {
          "duration": 1.4598352383333264,
          "durationTicks": 1781,
          "midi": 75,
          "name": "D#5",
          "ticks": 127200,
          "time": 104.262236,
          "velocity": 0.7874015748031497
        },
        {
          "duration": 1.4598352383333264,
          "durationTicks": 1781,
          "midi": 75,
          "name": "D#5",
          "ticks": 127200,
          "time": 104.262236,
          "velocity": 0.7874015748031497
        },
        {
          "duration": 0.47622923833333175,
          "durationTicks": 581,
          "midi": 80,
          "name": "G#5",
          "ticks": 129000,
          "time": 105.737645,
          "velocity": 0.7874015748031497
        },
        {
          "duration": 0.47622923833333175,
          "durationTicks": 581,
          "midi": 80,
          "name": "G#5",
          "ticks": 129000,
          "time": 105.737645,
          "velocity": 0.7874015748031497
        },
        {
          "duration": 0.47622923833334596,
          "durationTicks": 581,
          "midi": 75,
          "name": "D#5",
          "ticks": 129600,
          "time": 106.22944799999999,
          "velocity": 0.7874015748031497
        },
        {
          "duration": 0.47622923833334596,
          "durationTicks": 581,
          "midi": 83,
          "name": "B5",
          "ticks": 129600,
          "time": 106.22944799999999,
          "velocity": 0.7874015748031497
        },
        {
          "duration": 0.47622923833334596,
          "durationTicks": 581,
          "midi": 83,
          "name": "B5",
          "ticks": 129600,
          "time": 106.22944799999999,
          "velocity": 0.7874015748031497
        },
        {
          "duration": 0.47622923833333175,
          "durationTicks": 581,
          "midi": 74,
          "name": "D5",
          "ticks": 130200,
          "time": 106.721251,
          "velocity": 0.7874015748031497
        },
        {
          "duration": 0.47622923833333175,
          "durationTicks": 581,
          "midi": 79,
          "name": "G5",
          "ticks": 130200,
          "time": 106.721251,
          "velocity": 0.7874015748031497
        },
        {
          "duration": 0.47622923833333175,
          "durationTicks": 581,
          "midi": 79,
          "name": "G5",
          "ticks": 130200,
          "time": 106.721251,
          "velocity": 0.7874015748031497
        },
        {
          "duration": 0.47622923833333175,
          "durationTicks": 581,
          "midi": 75,
          "name": "D#5",
          "ticks": 130800,
          "time": 107.213054,
          "velocity": 0.7874015748031497
        },
        {
          "duration": 0.47622923833333175,
          "durationTicks": 581,
          "midi": 83,
          "name": "B5",
          "ticks": 130800,
          "time": 107.213054,
          "velocity": 0.7874015748031497
        },
        {
          "duration": 0.47622923833333175,
          "durationTicks": 581,
          "midi": 83,
          "name": "B5",
          "ticks": 130800,
          "time": 107.213054,
          "velocity": 0.7874015748031497
        },
        {
          "duration": 0.47622923833333175,
          "durationTicks": 581,
          "midi": 79,
          "name": "G5",
          "ticks": 131400,
          "time": 107.704857,
          "velocity": 0.7874015748031497
        },
        {
          "duration": 0.47622923833333175,
          "durationTicks": 581,
          "midi": 84,
          "name": "C6",
          "ticks": 131400,
          "time": 107.704857,
          "velocity": 0.7874015748031497
        },
        {
          "duration": 0.47622923833333175,
          "durationTicks": 581,
          "midi": 84,
          "name": "C6",
          "ticks": 131400,
          "time": 107.704857,
          "velocity": 0.7874015748031497
        },
        {
          "duration": 0.9680322383333362,
          "durationTicks": 1181,
          "midi": 75,
          "name": "D#5",
          "ticks": 132000,
          "time": 108.19666,
          "velocity": 0.7874015748031497
        },
        {
          "duration": 0.9680322383333362,
          "durationTicks": 1181,
          "midi": 84,
          "name": "C6",
          "ticks": 132000,
          "time": 108.19666,
          "velocity": 0.7874015748031497
        },
        {
          "duration": 0.9680322383333362,
          "durationTicks": 1181,
          "midi": 84,
          "name": "C6",
          "ticks": 132000,
          "time": 108.19666,
          "velocity": 0.7874015748031497
        },
        {
          "duration": 0.10245895833334373,
          "durationTicks": 125,
          "midi": 74,
          "name": "D5",
          "ticks": 134400,
          "time": 110.163872,
          "velocity": 0.8582677165354331
        },
        {
          "duration": 0.04590161333332787,
          "durationTicks": 56,
          "midi": 74,
          "name": "D5",
          "ticks": 134550,
          "time": 110.28682275,
          "velocity": 0.8582677165354331
        },
        {
          "duration": 0.10245895833332952,
          "durationTicks": 125,
          "midi": 74,
          "name": "D5",
          "ticks": 134700,
          "time": 110.4097735,
          "velocity": 0.8582677165354331
        },
        {
          "duration": 0.10245895833332952,
          "durationTicks": 125,
          "midi": 62,
          "name": "D4",
          "ticks": 134850,
          "time": 110.53272425,
          "velocity": 0.8661417322834646
        },
        {
          "duration": 0.10245895833332952,
          "durationTicks": 125,
          "midi": 74,
          "name": "D5",
          "ticks": 135000,
          "time": 110.655675,
          "velocity": 0.8661417322834646
        },
        {
          "duration": 0.10245895833332952,
          "durationTicks": 125,
          "midi": 72,
          "name": "C5",
          "ticks": 135150,
          "time": 110.77862575,
          "velocity": 0.8661417322834646
        },
        {
          "duration": 0.10245895833332952,
          "durationTicks": 125,
          "midi": 76,
          "name": "E5",
          "ticks": 135300,
          "time": 110.9015765,
          "velocity": 0.8661417322834646
        },
        {
          "duration": 0.10245895833334373,
          "durationTicks": 125,
          "midi": 74,
          "name": "D5",
          "ticks": 135450,
          "time": 111.02452724999999,
          "velocity": 0.8661417322834646
        },
        {
          "duration": 0.34836045833334595,
          "durationTicks": 425,
          "midi": 77,
          "name": "F5",
          "ticks": 135600,
          "time": 111.14747799999999,
          "velocity": 0.8661417322834646
        },
        {
          "duration": 0.34836045833334595,
          "durationTicks": 425,
          "midi": 76,
          "name": "E5",
          "ticks": 136050,
          "time": 111.51633025,
          "velocity": 0.8661417322834646
        },
        {
          "duration": 0.22540970833333063,
          "durationTicks": 275,
          "midi": 77,
          "name": "F5",
          "ticks": 136500,
          "time": 111.8851825,
          "velocity": 0.8740157480314961
        },
        {
          "duration": 0.10245895833332952,
          "durationTicks": 125,
          "midi": 74,
          "name": "D5",
          "ticks": 136800,
          "time": 112.131084,
          "velocity": 0.8740157480314961
        },
        {
          "duration": 0.04590161333332787,
          "durationTicks": 56,
          "midi": 74,
          "name": "D5",
          "ticks": 136950,
          "time": 112.25403475,
          "velocity": 0.8740157480314961
        },
        {
          "duration": 0.10245895833332952,
          "durationTicks": 125,
          "midi": 74,
          "name": "D5",
          "ticks": 137100,
          "time": 112.3769855,
          "velocity": 0.8740157480314961
        },
        {
          "duration": 0.10245895833332952,
          "durationTicks": 125,
          "midi": 62,
          "name": "D4",
          "ticks": 137250,
          "time": 112.49993625,
          "velocity": 0.8740157480314961
        },
        {
          "duration": 0.10245895833334373,
          "durationTicks": 125,
          "midi": 74,
          "name": "D5",
          "ticks": 137400,
          "time": 112.62288699999999,
          "velocity": 0.8740157480314961
        },
        {
          "duration": 0.10245895833334373,
          "durationTicks": 125,
          "midi": 74,
          "name": "D5",
          "ticks": 137550,
          "time": 112.74583774999999,
          "velocity": 0.8740157480314961
        },
        {
          "duration": 0.10245895833334373,
          "durationTicks": 125,
          "midi": 76,
          "name": "E5",
          "ticks": 137700,
          "time": 112.8687885,
          "velocity": 0.8740157480314961
        },
        {
          "duration": 0.10245895833334373,
          "durationTicks": 125,
          "midi": 74,
          "name": "D5",
          "ticks": 137850,
          "time": 112.99173925,
          "velocity": 0.8740157480314961
        },
        {
          "duration": 0.34836045833334595,
          "durationTicks": 425,
          "midi": 77,
          "name": "F5",
          "ticks": 138000,
          "time": 113.11469,
          "velocity": 0.8818897637795275
        },
        {
          "duration": 0.34836045833333174,
          "durationTicks": 425,
          "midi": 76,
          "name": "E5",
          "ticks": 138450,
          "time": 113.48354225,
          "velocity": 0.8818897637795275
        },
        {
          "duration": 0.22540970833333063,
          "durationTicks": 275,
          "midi": 77,
          "name": "F5",
          "ticks": 138900,
          "time": 113.8523945,
          "velocity": 0.8818897637795275
        },
        {
          "duration": 0.10245895833334373,
          "durationTicks": 125,
          "midi": 74,
          "name": "D5",
          "ticks": 139500,
          "time": 114.34419749999999,
          "velocity": 0.8818897637795275
        },
        {
          "duration": 0.10245895833334373,
          "durationTicks": 125,
          "midi": 74,
          "name": "D5",
          "ticks": 139650,
          "time": 114.46714825,
          "velocity": 0.889763779527559
        },
        {
          "duration": 0.10245895833334373,
          "durationTicks": 125,
          "midi": 76,
          "name": "E5",
          "ticks": 139800,
          "time": 114.590099,
          "velocity": 0.889763779527559
        },
        {
          "duration": 0.10245895833334373,
          "durationTicks": 125,
          "midi": 74,
          "name": "D5",
          "ticks": 139950,
          "time": 114.71304975,
          "velocity": 0.889763779527559
        },
        {
          "duration": 0.10245895833334373,
          "durationTicks": 125,
          "midi": 77,
          "name": "F5",
          "ticks": 140100,
          "time": 114.8360005,
          "velocity": 0.889763779527559
        },
        {
          "duration": 0.10245895833334373,
          "durationTicks": 125,
          "midi": 79,
          "name": "G5",
          "ticks": 140250,
          "time": 114.95895125,
          "velocity": 0.889763779527559
        },
        {
          "duration": 0.34836045833333174,
          "durationTicks": 425,
          "midi": 77,
          "name": "F5",
          "ticks": 140400,
          "time": 115.081902,
          "velocity": 0.889763779527559
        },
        {
          "duration": 0.34836045833333174,
          "durationTicks": 425,
          "midi": 79,
          "name": "G5",
          "ticks": 140850,
          "time": 115.45075425,
          "velocity": 0.889763779527559
        },
        {
          "duration": 0.22540970833334484,
          "durationTicks": 275,
          "midi": 81,
          "name": "A5",
          "ticks": 141300,
          "time": 115.81960649999999,
          "velocity": 0.8976377952755905
        },
        {
          "duration": 0.10245895833334373,
          "durationTicks": 125,
          "midi": 72,
          "name": "C5",
          "ticks": 141600,
          "time": 116.065508,
          "velocity": 0.8976377952755905
        },
        {
          "duration": 0.045901613333342084,
          "durationTicks": 56,
          "midi": 72,
          "name": "C5",
          "ticks": 141750,
          "time": 116.18845875,
          "velocity": 0.8976377952755905
        },
        {
          "duration": 0.10245895833334373,
          "durationTicks": 125,
          "midi": 72,
          "name": "C5",
          "ticks": 141900,
          "time": 116.3114095,
          "velocity": 0.8976377952755905
        },
        {
          "duration": 0.10245895833334373,
          "durationTicks": 125,
          "midi": 72,
          "name": "C5",
          "ticks": 142050,
          "time": 116.43436025,
          "velocity": 0.8976377952755905
        },
        {
          "duration": 0.10245895833334373,
          "durationTicks": 125,
          "midi": 74,
          "name": "D5",
          "ticks": 142200,
          "time": 116.557311,
          "velocity": 0.8976377952755905
        },
        {
          "duration": 0.10245895833332952,
          "durationTicks": 125,
          "midi": 72,
          "name": "C5",
          "ticks": 142350,
          "time": 116.68026175,
          "velocity": 0.8976377952755905
        },
        {
          "duration": 0.10245895833332952,
          "durationTicks": 125,
          "midi": 76,
          "name": "E5",
          "ticks": 142500,
          "time": 116.8032125,
          "velocity": 0.8976377952755905
        },
        {
          "duration": 0.10245895833332952,
          "durationTicks": 125,
          "midi": 74,
          "name": "D5",
          "ticks": 142650,
          "time": 116.92616325,
          "velocity": 0.8976377952755905
        },
        {
          "duration": 0.10245895833332952,
          "durationTicks": 125,
          "midi": 76,
          "name": "E5",
          "ticks": 142800,
          "time": 117.049114,
          "velocity": 0.8976377952755905
        },
        {
          "duration": 0.05163931499998853,
          "durationTicks": 63,
          "midi": 77,
          "name": "F5",
          "ticks": 142950,
          "time": 117.17206475,
          "velocity": 0.905511811023622
        },
        {
          "duration": 0.030327851666669403,
          "durationTicks": 37,
          "midi": 76,
          "name": "E5",
          "ticks": 143038,
          "time": 117.24419585666666,
          "velocity": 0.905511811023622
        },
        {
          "duration": 0.10245895833334373,
          "durationTicks": 125,
          "midi": 76,
          "name": "E5",
          "ticks": 143100,
          "time": 117.29501549999999,
          "velocity": 0.905511811023622
        },
        {
          "duration": 0.10245895833334373,
          "durationTicks": 125,
          "midi": 74,
          "name": "D5",
          "ticks": 143250,
          "time": 117.41796624999999,
          "velocity": 0.905511811023622
        },
        {
          "duration": 0.10245895833334373,
          "durationTicks": 125,
          "midi": 77,
          "name": "F5",
          "ticks": 143400,
          "time": 117.540917,
          "velocity": 0.905511811023622
        },
        {
          "duration": 0.10245895833334373,
          "durationTicks": 125,
          "midi": 79,
          "name": "G5",
          "ticks": 143550,
          "time": 117.66386775,
          "velocity": 0.905511811023622
        },
        {
          "duration": 0.10245895833334373,
          "durationTicks": 125,
          "midi": 77,
          "name": "F5",
          "ticks": 143700,
          "time": 117.7868185,
          "velocity": 0.905511811023622
        },
        {
          "duration": 0.10245895833334373,
          "durationTicks": 125,
          "midi": 76,
          "name": "E5",
          "ticks": 143850,
          "time": 117.90976925,
          "velocity": 0.905511811023622
        },
        {
          "duration": 0.10245895833334373,
          "durationTicks": 125,
          "midi": 74,
          "name": "D5",
          "ticks": 144000,
          "time": 118.03272,
          "velocity": 0.8031496062992126
        },
        {
          "duration": 0.10245895833334373,
          "durationTicks": 125,
          "midi": 74,
          "name": "D5",
          "ticks": 144000,
          "time": 118.03272,
          "velocity": 0.8031496062992126
        },
        {
          "duration": 0.10245895833334373,
          "durationTicks": 125,
          "midi": 74,
          "name": "D5",
          "ticks": 144000,
          "time": 118.03272,
          "velocity": 0.905511811023622
        },
        {
          "duration": 0.04590161333332787,
          "durationTicks": 56,
          "midi": 74,
          "name": "D5",
          "ticks": 144150,
          "time": 118.15567075,
          "velocity": 0.8031496062992126
        },
        {
          "duration": 0.04590161333332787,
          "durationTicks": 56,
          "midi": 74,
          "name": "D5",
          "ticks": 144150,
          "time": 118.15567075,
          "velocity": 0.8031496062992126
        },
        {
          "duration": 0.10245895833332952,
          "durationTicks": 125,
          "midi": 74,
          "name": "D5",
          "ticks": 144300,
          "time": 118.2786215,
          "velocity": 0.8031496062992126
        },
        {
          "duration": 0.10245895833332952,
          "durationTicks": 125,
          "midi": 74,
          "name": "D5",
          "ticks": 144300,
          "time": 118.2786215,
          "velocity": 0.8031496062992126
        },
        {
          "duration": 0.10245895833332952,
          "durationTicks": 125,
          "midi": 62,
          "name": "D4",
          "ticks": 144450,
          "time": 118.40157225,
          "velocity": 0.8031496062992126
        },
        {
          "duration": 0.10245895833332952,
          "durationTicks": 125,
          "midi": 62,
          "name": "D4",
          "ticks": 144450,
          "time": 118.40157225,
          "velocity": 0.8031496062992126
        },
        {
          "duration": 0.10245895833332952,
          "durationTicks": 125,
          "midi": 74,
          "name": "D5",
          "ticks": 144600,
          "time": 118.524523,
          "velocity": 0.8031496062992126
        },
        {
          "duration": 0.10245895833332952,
          "durationTicks": 125,
          "midi": 74,
          "name": "D5",
          "ticks": 144600,
          "time": 118.524523,
          "velocity": 0.8031496062992126
        },
        {
          "duration": 0.10245895833332952,
          "durationTicks": 125,
          "midi": 72,
          "name": "C5",
          "ticks": 144750,
          "time": 118.64747375,
          "velocity": 0.8031496062992126
        },
        {
          "duration": 0.10245895833332952,
          "durationTicks": 125,
          "midi": 72,
          "name": "C5",
          "ticks": 144750,
          "time": 118.64747375,
          "velocity": 0.8031496062992126
        },
        {
          "duration": 0.10245895833332952,
          "durationTicks": 125,
          "midi": 76,
          "name": "E5",
          "ticks": 144900,
          "time": 118.7704245,
          "velocity": 0.8031496062992126
        },
        {
          "duration": 0.10245895833332952,
          "durationTicks": 125,
          "midi": 76,
          "name": "E5",
          "ticks": 144900,
          "time": 118.7704245,
          "velocity": 0.8031496062992126
        },
        {
          "duration": 0.10245895833334373,
          "durationTicks": 125,
          "midi": 74,
          "name": "D5",
          "ticks": 145050,
          "time": 118.89337524999999,
          "velocity": 0.8031496062992126
        },
        {
          "duration": 0.10245895833334373,
          "durationTicks": 125,
          "midi": 74,
          "name": "D5",
          "ticks": 145050,
          "time": 118.89337524999999,
          "velocity": 0.8031496062992126
        },
        {
          "duration": 0.34836045833334595,
          "durationTicks": 425,
          "midi": 77,
          "name": "F5",
          "ticks": 145200,
          "time": 119.01632599999999,
          "velocity": 0.8031496062992126
        },
        {
          "duration": 0.34836045833334595,
          "durationTicks": 425,
          "midi": 77,
          "name": "F5",
          "ticks": 145200,
          "time": 119.01632599999999,
          "velocity": 0.8031496062992126
        },
        {
          "duration": 0.34836045833334595,
          "durationTicks": 425,
          "midi": 76,
          "name": "E5",
          "ticks": 145650,
          "time": 119.38517825,
          "velocity": 0.8031496062992126
        },
        {
          "duration": 0.34836045833334595,
          "durationTicks": 425,
          "midi": 76,
          "name": "E5",
          "ticks": 145650,
          "time": 119.38517825,
          "velocity": 0.8031496062992126
        },
        {
          "duration": 0.22540970833333063,
          "durationTicks": 275,
          "midi": 77,
          "name": "F5",
          "ticks": 146100,
          "time": 119.7540305,
          "velocity": 0.8031496062992126
        },
        {
          "duration": 0.22540970833333063,
          "durationTicks": 275,
          "midi": 77,
          "name": "F5",
          "ticks": 146100,
          "time": 119.7540305,
          "velocity": 0.8031496062992126
        },
        {
          "duration": 0.10245895833332952,
          "durationTicks": 125,
          "midi": 74,
          "name": "D5",
          "ticks": 146400,
          "time": 119.999932,
          "velocity": 0.8031496062992126
        },
        {
          "duration": 0.10245895833332952,
          "durationTicks": 125,
          "midi": 74,
          "name": "D5",
          "ticks": 146400,
          "time": 119.999932,
          "velocity": 0.8031496062992126
        },
        {
          "duration": 0.04590161333332787,
          "durationTicks": 56,
          "midi": 74,
          "name": "D5",
          "ticks": 146550,
          "time": 120.12288275,
          "velocity": 0.8031496062992126
        },
        {
          "duration": 0.04590161333332787,
          "durationTicks": 56,
          "midi": 74,
          "name": "D5",
          "ticks": 146550,
          "time": 120.12288275,
          "velocity": 0.8031496062992126
        },
        {
          "duration": 0.10245895833332952,
          "durationTicks": 125,
          "midi": 74,
          "name": "D5",
          "ticks": 146700,
          "time": 120.2458335,
          "velocity": 0.8031496062992126
        },
        {
          "duration": 0.10245895833332952,
          "durationTicks": 125,
          "midi": 74,
          "name": "D5",
          "ticks": 146700,
          "time": 120.2458335,
          "velocity": 0.8031496062992126
        },
        {
          "duration": 0.10245895833332952,
          "durationTicks": 125,
          "midi": 62,
          "name": "D4",
          "ticks": 146850,
          "time": 120.36878425,
          "velocity": 0.8031496062992126
        },
        {
          "duration": 0.10245895833332952,
          "durationTicks": 125,
          "midi": 62,
          "name": "D4",
          "ticks": 146850,
          "time": 120.36878425,
          "velocity": 0.8031496062992126
        },
        {
          "duration": 0.10245895833334373,
          "durationTicks": 125,
          "midi": 74,
          "name": "D5",
          "ticks": 147000,
          "time": 120.49173499999999,
          "velocity": 0.8031496062992126
        },
        {
          "duration": 0.10245895833334373,
          "durationTicks": 125,
          "midi": 74,
          "name": "D5",
          "ticks": 147000,
          "time": 120.49173499999999,
          "velocity": 0.8031496062992126
        },
        {
          "duration": 0.10245895833334373,
          "durationTicks": 125,
          "midi": 74,
          "name": "D5",
          "ticks": 147150,
          "time": 120.61468574999999,
          "velocity": 0.8031496062992126
        },
        {
          "duration": 0.10245895833334373,
          "durationTicks": 125,
          "midi": 74,
          "name": "D5",
          "ticks": 147150,
          "time": 120.61468574999999,
          "velocity": 0.8031496062992126
        },
        {
          "duration": 0.10245895833334373,
          "durationTicks": 125,
          "midi": 76,
          "name": "E5",
          "ticks": 147300,
          "time": 120.7376365,
          "velocity": 0.8031496062992126
        },
        {
          "duration": 0.10245895833334373,
          "durationTicks": 125,
          "midi": 76,
          "name": "E5",
          "ticks": 147300,
          "time": 120.7376365,
          "velocity": 0.8031496062992126
        },
        {
          "duration": 0.10245895833334373,
          "durationTicks": 125,
          "midi": 74,
          "name": "D5",
          "ticks": 147450,
          "time": 120.86058725,
          "velocity": 0.8031496062992126
        },
        {
          "duration": 0.10245895833334373,
          "durationTicks": 125,
          "midi": 74,
          "name": "D5",
          "ticks": 147450,
          "time": 120.86058725,
          "velocity": 0.8031496062992126
        },
        {
          "duration": 0.34836045833334595,
          "durationTicks": 425,
          "midi": 77,
          "name": "F5",
          "ticks": 147600,
          "time": 120.983538,
          "velocity": 0.8031496062992126
        },
        {
          "duration": 0.34836045833334595,
          "durationTicks": 425,
          "midi": 77,
          "name": "F5",
          "ticks": 147600,
          "time": 120.983538,
          "velocity": 0.8031496062992126
        },
        {
          "duration": 0.34836045833333174,
          "durationTicks": 425,
          "midi": 76,
          "name": "E5",
          "ticks": 148050,
          "time": 121.35239025,
          "velocity": 0.8031496062992126
        },
        {
          "duration": 0.34836045833333174,
          "durationTicks": 425,
          "midi": 76,
          "name": "E5",
          "ticks": 148050,
          "time": 121.35239025,
          "velocity": 0.8031496062992126
        },
        {
          "duration": 0.22540970833333063,
          "durationTicks": 275,
          "midi": 77,
          "name": "F5",
          "ticks": 148500,
          "time": 121.7212425,
          "velocity": 0.8031496062992126
        },
        {
          "duration": 0.22540970833333063,
          "durationTicks": 275,
          "midi": 77,
          "name": "F5",
          "ticks": 148500,
          "time": 121.7212425,
          "velocity": 0.8031496062992126
        },
        {
          "duration": 0.10245895833334373,
          "durationTicks": 125,
          "midi": 74,
          "name": "D5",
          "ticks": 149100,
          "time": 122.21304549999999,
          "velocity": 0.8031496062992126
        },
        {
          "duration": 0.10245895833334373,
          "durationTicks": 125,
          "midi": 74,
          "name": "D5",
          "ticks": 149100,
          "time": 122.21304549999999,
          "velocity": 0.8031496062992126
        },
        {
          "duration": 0.10245895833334373,
          "durationTicks": 125,
          "midi": 74,
          "name": "D5",
          "ticks": 149250,
          "time": 122.33599625,
          "velocity": 0.8031496062992126
        },
        {
          "duration": 0.10245895833334373,
          "durationTicks": 125,
          "midi": 74,
          "name": "D5",
          "ticks": 149250,
          "time": 122.33599625,
          "velocity": 0.8031496062992126
        },
        {
          "duration": 0.10245895833334373,
          "durationTicks": 125,
          "midi": 76,
          "name": "E5",
          "ticks": 149400,
          "time": 122.458947,
          "velocity": 0.8031496062992126
        },
        {
          "duration": 0.10245895833334373,
          "durationTicks": 125,
          "midi": 76,
          "name": "E5",
          "ticks": 149400,
          "time": 122.458947,
          "velocity": 0.8031496062992126
        },
        {
          "duration": 0.10245895833334373,
          "durationTicks": 125,
          "midi": 74,
          "name": "D5",
          "ticks": 149550,
          "time": 122.58189775,
          "velocity": 0.8031496062992126
        },
        {
          "duration": 0.10245895833334373,
          "durationTicks": 125,
          "midi": 74,
          "name": "D5",
          "ticks": 149550,
          "time": 122.58189775,
          "velocity": 0.8031496062992126
        },
        {
          "duration": 0.10245895833334373,
          "durationTicks": 125,
          "midi": 77,
          "name": "F5",
          "ticks": 149700,
          "time": 122.7048485,
          "velocity": 0.8031496062992126
        },
        {
          "duration": 0.10245895833334373,
          "durationTicks": 125,
          "midi": 77,
          "name": "F5",
          "ticks": 149700,
          "time": 122.7048485,
          "velocity": 0.8031496062992126
        },
        {
          "duration": 0.10245895833334373,
          "durationTicks": 125,
          "midi": 79,
          "name": "G5",
          "ticks": 149850,
          "time": 122.82779925,
          "velocity": 0.8031496062992126
        },
        {
          "duration": 0.10245895833334373,
          "durationTicks": 125,
          "midi": 79,
          "name": "G5",
          "ticks": 149850,
          "time": 122.82779925,
          "velocity": 0.8031496062992126
        },
        {
          "duration": 0.34836045833333174,
          "durationTicks": 425,
          "midi": 77,
          "name": "F5",
          "ticks": 150000,
          "time": 122.95075,
          "velocity": 0.8031496062992126
        },
        {
          "duration": 0.34836045833333174,
          "durationTicks": 425,
          "midi": 77,
          "name": "F5",
          "ticks": 150000,
          "time": 122.95075,
          "velocity": 0.8031496062992126
        },
        {
          "duration": 0.34836045833333174,
          "durationTicks": 425,
          "midi": 79,
          "name": "G5",
          "ticks": 150450,
          "time": 123.31960225,
          "velocity": 0.8031496062992126
        },
        {
          "duration": 0.34836045833333174,
          "durationTicks": 425,
          "midi": 79,
          "name": "G5",
          "ticks": 150450,
          "time": 123.31960225,
          "velocity": 0.8031496062992126
        },
        {
          "duration": 0.22540970833334484,
          "durationTicks": 275,
          "midi": 81,
          "name": "A5",
          "ticks": 150900,
          "time": 123.68845449999999,
          "velocity": 0.8031496062992126
        },
        {
          "duration": 0.22540970833334484,
          "durationTicks": 275,
          "midi": 81,
          "name": "A5",
          "ticks": 150900,
          "time": 123.68845449999999,
          "velocity": 0.8031496062992126
        },
        {
          "duration": 0.10245895833334373,
          "durationTicks": 125,
          "midi": 72,
          "name": "C5",
          "ticks": 151200,
          "time": 123.934356,
          "velocity": 0.8031496062992126
        },
        {
          "duration": 0.47131120833334705,
          "durationTicks": 575,
          "midi": 82,
          "name": "A#5",
          "ticks": 151200,
          "time": 123.934356,
          "velocity": 0.7401574803149606
        },
        {
          "duration": 0.10245895833334373,
          "durationTicks": 125,
          "midi": 72,
          "name": "C5",
          "ticks": 151200,
          "time": 123.934356,
          "velocity": 0.8031496062992126
        },
        {
          "duration": 0.47131120833334705,
          "durationTicks": 575,
          "midi": 82,
          "name": "A#5",
          "ticks": 151200,
          "time": 123.934356,
          "velocity": 0.7401574803149606
        },
        {
          "duration": 0.045901613333342084,
          "durationTicks": 56,
          "midi": 72,
          "name": "C5",
          "ticks": 151350,
          "time": 124.05730675,
          "velocity": 0.8031496062992126
        },
        {
          "duration": 0.045901613333342084,
          "durationTicks": 56,
          "midi": 72,
          "name": "C5",
          "ticks": 151350,
          "time": 124.05730675,
          "velocity": 0.8031496062992126
        },
        {
          "duration": 0.10245895833334373,
          "durationTicks": 125,
          "midi": 72,
          "name": "C5",
          "ticks": 151500,
          "time": 124.1802575,
          "velocity": 0.8031496062992126
        },
        {
          "duration": 0.10245895833334373,
          "durationTicks": 125,
          "midi": 72,
          "name": "C5",
          "ticks": 151500,
          "time": 124.1802575,
          "velocity": 0.8031496062992126
        },
        {
          "duration": 0.10245895833334373,
          "durationTicks": 125,
          "midi": 72,
          "name": "C5",
          "ticks": 151650,
          "time": 124.30320825,
          "velocity": 0.8031496062992126
        },
        {
          "duration": 0.10245895833334373,
          "durationTicks": 125,
          "midi": 72,
          "name": "C5",
          "ticks": 151650,
          "time": 124.30320825,
          "velocity": 0.8031496062992126
        },
        {
          "duration": 0.10245895833334373,
          "durationTicks": 125,
          "midi": 74,
          "name": "D5",
          "ticks": 151800,
          "time": 124.426159,
          "velocity": 0.8031496062992126
        },
        {
          "duration": 0.47131120833333284,
          "durationTicks": 575,
          "midi": 84,
          "name": "C6",
          "ticks": 151800,
          "time": 124.426159,
          "velocity": 0.7401574803149606
        },
        {
          "duration": 0.10245895833334373,
          "durationTicks": 125,
          "midi": 74,
          "name": "D5",
          "ticks": 151800,
          "time": 124.426159,
          "velocity": 0.8031496062992126
        },
        {
          "duration": 0.47131120833333284,
          "durationTicks": 575,
          "midi": 84,
          "name": "C6",
          "ticks": 151800,
          "time": 124.426159,
          "velocity": 0.7401574803149606
        },
        {
          "duration": 0.10245895833332952,
          "durationTicks": 125,
          "midi": 72,
          "name": "C5",
          "ticks": 151950,
          "time": 124.54910975,
          "velocity": 0.8031496062992126
        },
        {
          "duration": 0.10245895833332952,
          "durationTicks": 125,
          "midi": 72,
          "name": "C5",
          "ticks": 151950,
          "time": 124.54910975,
          "velocity": 0.8031496062992126
        },
        {
          "duration": 0.10245895833332952,
          "durationTicks": 125,
          "midi": 76,
          "name": "E5",
          "ticks": 152100,
          "time": 124.6720605,
          "velocity": 0.8031496062992126
        },
        {
          "duration": 0.10245895833332952,
          "durationTicks": 125,
          "midi": 76,
          "name": "E5",
          "ticks": 152100,
          "time": 124.6720605,
          "velocity": 0.8031496062992126
        },
        {
          "duration": 0.10245895833332952,
          "durationTicks": 125,
          "midi": 74,
          "name": "D5",
          "ticks": 152250,
          "time": 124.79501125,
          "velocity": 0.8031496062992126
        },
        {
          "duration": 0.10245895833332952,
          "durationTicks": 125,
          "midi": 74,
          "name": "D5",
          "ticks": 152250,
          "time": 124.79501125,
          "velocity": 0.8031496062992126
        },
        {
          "duration": 0.10245895833332952,
          "durationTicks": 125,
          "midi": 76,
          "name": "E5",
          "ticks": 152400,
          "time": 124.917962,
          "velocity": 0.8031496062992126
        },
        {
          "duration": 0.47131120833333284,
          "durationTicks": 575,
          "midi": 82,
          "name": "A#5",
          "ticks": 152400,
          "time": 124.917962,
          "velocity": 0.7401574803149606
        },
        {
          "duration": 0.10245895833332952,
          "durationTicks": 125,
          "midi": 76,
          "name": "E5",
          "ticks": 152400,
          "time": 124.917962,
          "velocity": 0.8031496062992126
        },
        {
          "duration": 0.47131120833333284,
          "durationTicks": 575,
          "midi": 82,
          "name": "A#5",
          "ticks": 152400,
          "time": 124.917962,
          "velocity": 0.7401574803149606
        },
        {
          "duration": 0.05163931499998853,
          "durationTicks": 63,
          "midi": 77,
          "name": "F5",
          "ticks": 152550,
          "time": 125.04091275,
          "velocity": 0.8031496062992126
        },
        {
          "duration": 0.05163931499998853,
          "durationTicks": 63,
          "midi": 77,
          "name": "F5",
          "ticks": 152550,
          "time": 125.04091275,
          "velocity": 0.8031496062992126
        },
        {
          "duration": 0.030327851666669403,
          "durationTicks": 37,
          "midi": 76,
          "name": "E5",
          "ticks": 152638,
          "time": 125.11304385666666,
          "velocity": 0.8031496062992126
        },
        {
          "duration": 0.030327851666669403,
          "durationTicks": 37,
          "midi": 76,
          "name": "E5",
          "ticks": 152638,
          "time": 125.11304385666666,
          "velocity": 0.8031496062992126
        },
        {
          "duration": 0.10245895833334373,
          "durationTicks": 125,
          "midi": 76,
          "name": "E5",
          "ticks": 152700,
          "time": 125.16386349999999,
          "velocity": 0.8031496062992126
        },
        {
          "duration": 0.10245895833334373,
          "durationTicks": 125,
          "midi": 76,
          "name": "E5",
          "ticks": 152700,
          "time": 125.16386349999999,
          "velocity": 0.8031496062992126
        },
        {
          "duration": 0.10245895833334373,
          "durationTicks": 125,
          "midi": 74,
          "name": "D5",
          "ticks": 152850,
          "time": 125.28681424999999,
          "velocity": 0.8031496062992126
        },
        {
          "duration": 0.10245895833334373,
          "durationTicks": 125,
          "midi": 74,
          "name": "D5",
          "ticks": 152850,
          "time": 125.28681424999999,
          "velocity": 0.8031496062992126
        },
        {
          "duration": 0.10245895833334373,
          "durationTicks": 125,
          "midi": 77,
          "name": "F5",
          "ticks": 153000,
          "time": 125.409765,
          "velocity": 0.8031496062992126
        },
        {
          "duration": 0.47131120833334705,
          "durationTicks": 575,
          "midi": 81,
          "name": "A5",
          "ticks": 153000,
          "time": 125.409765,
          "velocity": 0.7401574803149606
        },
        {
          "duration": 0.10245895833334373,
          "durationTicks": 125,
          "midi": 77,
          "name": "F5",
          "ticks": 153000,
          "time": 125.409765,
          "velocity": 0.8031496062992126
        },
        {
          "duration": 0.47131120833334705,
          "durationTicks": 575,
          "midi": 81,
          "name": "A5",
          "ticks": 153000,
          "time": 125.409765,
          "velocity": 0.7401574803149606
        },
        {
          "duration": 0.10245895833334373,
          "durationTicks": 125,
          "midi": 79,
          "name": "G5",
          "ticks": 153150,
          "time": 125.53271575,
          "velocity": 0.8031496062992126
        },
        {
          "duration": 0.10245895833334373,
          "durationTicks": 125,
          "midi": 79,
          "name": "G5",
          "ticks": 153150,
          "time": 125.53271575,
          "velocity": 0.8031496062992126
        },
        {
          "duration": 0.10245895833334373,
          "durationTicks": 125,
          "midi": 77,
          "name": "F5",
          "ticks": 153300,
          "time": 125.6556665,
          "velocity": 0.8031496062992126
        },
        {
          "duration": 0.10245895833334373,
          "durationTicks": 125,
          "midi": 77,
          "name": "F5",
          "ticks": 153300,
          "time": 125.6556665,
          "velocity": 0.8031496062992126
        },
        {
          "duration": 0.10245895833334373,
          "durationTicks": 125,
          "midi": 76,
          "name": "E5",
          "ticks": 153450,
          "time": 125.77861725,
          "velocity": 0.8031496062992126
        },
        {
          "duration": 0.10245895833334373,
          "durationTicks": 125,
          "midi": 76,
          "name": "E5",
          "ticks": 153450,
          "time": 125.77861725,
          "velocity": 0.8031496062992126
        },
        {
          "duration": 0.9836059999999947,
          "durationTicks": 1200,
          "midi": 74,
          "name": "D5",
          "ticks": 153600,
          "time": 125.901568,
          "velocity": 1
        },
        {
          "duration": 0.3688522500000033,
          "durationTicks": 450,
          "midi": 74,
          "name": "D5",
          "ticks": 154800,
          "time": 126.88517399999999,
          "velocity": 1
        },
        {
          "duration": 0.12295075000000111,
          "durationTicks": 150,
          "midi": 74,
          "name": "D5",
          "ticks": 155250,
          "time": 127.25402625,
          "velocity": 1
        },
        {
          "duration": 0.49180300000000443,
          "durationTicks": 600,
          "midi": 76,
          "name": "E5",
          "ticks": 155400,
          "time": 127.376977,
          "velocity": 1
        },
        {
          "duration": 1.475408999999999,
          "durationTicks": 1800,
          "midi": 77,
          "name": "F5",
          "ticks": 156000,
          "time": 127.86878,
          "velocity": 1
        },
        {
          "duration": 0.49180300000000443,
          "durationTicks": 600,
          "midi": 82,
          "name": "A#5",
          "ticks": 157800,
          "time": 129.344189,
          "velocity": 1
        },
        {
          "duration": 0.49180300000000443,
          "durationTicks": 600,
          "midi": 81,
          "name": "A5",
          "ticks": 158400,
          "time": 129.835992,
          "velocity": 1
        },
        {
          "duration": 0.491802999999976,
          "durationTicks": 600,
          "midi": 77,
          "name": "F5",
          "ticks": 159000,
          "time": 130.327795,
          "velocity": 1
        },
        {
          "duration": 0.49180300000000443,
          "durationTicks": 600,
          "midi": 79,
          "name": "G5",
          "ticks": 159600,
          "time": 130.81959799999998,
          "velocity": 1
        },
        {
          "duration": 0.49180300000000443,
          "durationTicks": 600,
          "midi": 76,
          "name": "E5",
          "ticks": 160200,
          "time": 131.311401,
          "velocity": 1
        },
        {
          "duration": 0.9836060000000089,
          "durationTicks": 1200,
          "midi": 77,
          "name": "F5",
          "ticks": 160800,
          "time": 131.803204,
          "velocity": 1
        },
        {
          "duration": 0.9836060000000089,
          "durationTicks": 1200,
          "midi": 76,
          "name": "E5",
          "ticks": 162000,
          "time": 132.78681,
          "velocity": 1
        },
        {
          "duration": 0.9836059999999804,
          "durationTicks": 1200,
          "midi": 74,
          "name": "D5",
          "ticks": 163200,
          "time": 133.770416,
          "velocity": 1
        },
        {
          "duration": 0.3688522500000033,
          "durationTicks": 450,
          "midi": 74,
          "name": "D5",
          "ticks": 164400,
          "time": 134.754022,
          "velocity": 1
        },
        {
          "duration": 0.12295075000000111,
          "durationTicks": 150,
          "midi": 74,
          "name": "D5",
          "ticks": 164850,
          "time": 135.12287425,
          "velocity": 1
        },
        {
          "duration": 0.49180300000000443,
          "durationTicks": 600,
          "midi": 76,
          "name": "E5",
          "ticks": 165000,
          "time": 135.245825,
          "velocity": 1
        },
        {
          "duration": 1.4754089999999849,
          "durationTicks": 1800,
          "midi": 77,
          "name": "F5",
          "ticks": 165600,
          "time": 135.737628,
          "velocity": 1
        },
        {
          "duration": 0.49180300000000443,
          "durationTicks": 600,
          "midi": 82,
          "name": "A#5",
          "ticks": 167400,
          "time": 137.21303699999999,
          "velocity": 1
        },
        {
          "duration": 0.49180300000000443,
          "durationTicks": 600,
          "midi": 81,
          "name": "A5",
          "ticks": 168000,
          "time": 137.70484,
          "velocity": 1
        },
        {
          "duration": 0.49180300000000443,
          "durationTicks": 600,
          "midi": 77,
          "name": "F5",
          "ticks": 168600,
          "time": 138.196643,
          "velocity": 1
        },
        {
          "duration": 0.49180300000000443,
          "durationTicks": 600,
          "midi": 79,
          "name": "G5",
          "ticks": 169200,
          "time": 138.688446,
          "velocity": 1
        },
        {
          "duration": 0.49180300000000443,
          "durationTicks": 600,
          "midi": 76,
          "name": "E5",
          "ticks": 169800,
          "time": 139.180249,
          "velocity": 1
        },
        {
          "duration": 0.9836059999999804,
          "durationTicks": 1200,
          "midi": 77,
          "name": "F5",
          "ticks": 170400,
          "time": 139.672052,
          "velocity": 1
        },
        {
          "duration": 0.9836060000000089,
          "durationTicks": 1200,
          "midi": 76,
          "name": "E5",
          "ticks": 171600,
          "time": 140.655658,
          "velocity": 1
        },
        {
          "duration": 1.9467202083333177,
          "durationTicks": 2375,
          "midi": 74,
          "name": "D5",
          "ticks": 172800,
          "time": 141.639264,
          "velocity": 0.6850393700787402
        }
      ]
    },
    {
      "channel": 0,
      "controlChanges": {
        "6": [
          {
            "number": 6,
            "ticks": 38400,
            "time": 31.475392,
            "value": 0.09448818897637795
          },
          {
            "number": 6,
            "ticks": 184800,
            "time": 151.475324,
            "value": 0.09448818897637795
          },
          {
            "number": 6,
            "ticks": 184800,
            "time": 151.475324,
            "value": 0.09448818897637795
          }
        ],
        "7": [
          {
            "number": 7,
            "ticks": 38400,
            "time": 31.475392,
            "value": 0.7874015748031497
          },
          {
            "number": 7,
            "ticks": 38400,
            "time": 31.475392,
            "value": 0.7874015748031497
          },
          {
            "number": 7,
            "ticks": 184800,
            "time": 151.475324,
            "value": 0.7874015748031497
          },
          {
            "number": 7,
            "ticks": 184800,
            "time": 151.475324,
            "value": 0.7874015748031497
          }
        ],
        "10": [
          {
            "number": 10,
            "ticks": 38400,
            "time": 31.475392,
            "value": 0.5039370078740157
          },
          {
            "number": 10,
            "ticks": 38400,
            "time": 31.475392,
            "value": 0.5039370078740157
          },
          {
            "number": 10,
            "ticks": 184800,
            "time": 151.475324,
            "value": 0.5039370078740157
          },
          {
            "number": 10,
            "ticks": 184800,
            "time": 151.475324,
            "value": 0.5039370078740157
          }
        ],
        "100": [
          {
            "number": 100,
            "ticks": 38400,
            "time": 31.475392,
            "value": 0
          },
          {
            "number": 100,
            "ticks": 184800,
            "time": 151.475324,
            "value": 0
          },
          {
            "number": 100,
            "ticks": 184800,
            "time": 151.475324,
            "value": 0
          }
        ],
        "101": [
          {
            "number": 101,
            "ticks": 38400,
            "time": 31.475392,
            "value": 0
          },
          {
            "number": 101,
            "ticks": 184800,
            "time": 151.475324,
            "value": 0
          },
          {
            "number": 101,
            "ticks": 184800,
            "time": 151.475324,
            "value": 0
          }
        ]
      },
      "pitchBends": [
        {
          "ticks": 38400,
          "time": 31.475392,
          "value": 0
        },
        {
          "ticks": 38400,
          "time": 31.475392,
          "value": 0
        },
        {
          "ticks": 38400,
          "time": 31.475392,
          "value": 0
        },
        {
          "ticks": 184800,
          "time": 151.475324,
          "value": 0
        },
        {
          "ticks": 184800,
          "time": 151.475324,
          "value": 0
        }
      ],
      "instrument": {
        "family": "piano",
        "number": 0,
        "name": "acoustic grand piano"
      },
      "name": "",
      "notes": []
    },
    {
      "channel": 0,
      "controlChanges": {
        "6": [
          {
            "number": 6,
            "ticks": 0,
            "time": 0,
            "value": 0.09448818897637795
          },
          {
            "number": 6,
            "ticks": 38400,
            "time": 31.475392,
            "value": 0.09448818897637795
          },
          {
            "number": 6,
            "ticks": 38400,
            "time": 31.475392,
            "value": 0.09448818897637795
          }
        ],
        "7": [
          {
            "number": 7,
            "ticks": 0,
            "time": 0,
            "value": 0.7874015748031497
          },
          {
            "number": 7,
            "ticks": 0,
            "time": 0,
            "value": 0.7874015748031497
          },
          {
            "number": 7,
            "ticks": 38400,
            "time": 31.475392,
            "value": 0.7874015748031497
          },
          {
            "number": 7,
            "ticks": 38400,
            "time": 31.475392,
            "value": 0.7874015748031497
          }
        ],
        "10": [
          {
            "number": 10,
            "ticks": 0,
            "time": 0,
            "value": 0.5039370078740157
          },
          {
            "number": 10,
            "ticks": 0,
            "time": 0,
            "value": 0.5039370078740157
          },
          {
            "number": 10,
            "ticks": 38400,
            "time": 31.475392,
            "value": 0.5039370078740157
          },
          {
            "number": 10,
            "ticks": 38400,
            "time": 31.475392,
            "value": 0.5039370078740157
          }
        ],
        "100": [
          {
            "number": 100,
            "ticks": 0,
            "time": 0,
            "value": 0
          },
          {
            "number": 100,
            "ticks": 38400,
            "time": 31.475392,
            "value": 0
          },
          {
            "number": 100,
            "ticks": 38400,
            "time": 31.475392,
            "value": 0
          }
        ],
        "101": [
          {
            "number": 101,
            "ticks": 0,
            "time": 0,
            "value": 0
          },
          {
            "number": 101,
            "ticks": 38400,
            "time": 31.475392,
            "value": 0
          },
          {
            "number": 101,
            "ticks": 38400,
            "time": 31.475392,
            "value": 0
          }
        ]
      },
      "pitchBends": [
        {
          "ticks": 0,
          "time": 0,
          "value": 0
        },
        {
          "ticks": 0,
          "time": 0,
          "value": 0
        },
        {
          "ticks": 0,
          "time": 0,
          "value": 0
        },
        {
          "ticks": 38400,
          "time": 31.475392,
          "value": 0
        },
        {
          "ticks": 38400,
          "time": 31.475392,
          "value": 0
        }
      ],
      "instrument": {
        "family": "piano",
        "number": 0,
        "name": "acoustic grand piano"
      },
      "name": "AtomPro",
      "notes": [
        {
          "duration": 1.9516382383333333,
          "durationTicks": 2381,
          "midi": 36,
          "name": "C2",
          "ticks": 0,
          "time": 0,
          "velocity": 0.8346456692913385
        },
        {
          "duration": 0.983606,
          "durationTicks": 1200,
          "midi": 72,
          "name": "C5",
          "ticks": 0,
          "time": 0,
          "velocity": 0.8346456692913385
        },
        {
          "duration": 0.2459015,
          "durationTicks": 300,
          "midi": 48,
          "name": "C3",
          "ticks": 0,
          "time": 0,
          "velocity": 0.8346456692913385
        },
        {
          "duration": 0.12295075,
          "durationTicks": 150,
          "midi": 60,
          "name": "C4",
          "ticks": 300,
          "time": 0.2459015,
          "velocity": 0.8346456692913385
        },
        {
          "duration": 0.2459015,
          "durationTicks": 300,
          "midi": 48,
          "name": "C3",
          "ticks": 600,
          "time": 0.491803,
          "velocity": 0.8346456692913385
        },
        {
          "duration": 0.12295075,
          "durationTicks": 150,
          "midi": 60,
          "name": "C4",
          "ticks": 900,
          "time": 0.7377045,
          "velocity": 0.8346456692913385
        },
        {
          "duration": 0.2459015,
          "durationTicks": 300,
          "midi": 48,
          "name": "C3",
          "ticks": 1200,
          "time": 0.983606,
          "velocity": 0.8346456692913385
        },
        {
          "duration": 0.36885225,
          "durationTicks": 450,
          "midi": 72,
          "name": "C5",
          "ticks": 1200,
          "time": 0.983606,
          "velocity": 0.8346456692913385
        },
        {
          "duration": 0.12295075,
          "durationTicks": 150,
          "midi": 60,
          "name": "C4",
          "ticks": 1500,
          "time": 1.2295075,
          "velocity": 0.8346456692913385
        },
        {
          "duration": 0.12295075,
          "durationTicks": 150,
          "midi": 72,
          "name": "C5",
          "ticks": 1650,
          "time": 1.35245825,
          "velocity": 0.8346456692913385
        },
        {
          "duration": 0.491803,
          "durationTicks": 600,
          "midi": 74,
          "name": "D5",
          "ticks": 1800,
          "time": 1.475409,
          "velocity": 0.8346456692913385
        },
        {
          "duration": 0.2459015,
          "durationTicks": 300,
          "midi": 48,
          "name": "C3",
          "ticks": 1800,
          "time": 1.475409,
          "velocity": 0.8346456692913385
        },
        {
          "duration": 0.12295075,
          "durationTicks": 150,
          "midi": 60,
          "name": "C4",
          "ticks": 2100,
          "time": 1.7213105,
          "velocity": 0.8346456692913385
        },
        {
          "duration": 0.2459015,
          "durationTicks": 300,
          "midi": 48,
          "name": "C3",
          "ticks": 2400,
          "time": 1.967212,
          "velocity": 0.8346456692913385
        },
        {
          "duration": 1.475409,
          "durationTicks": 1800,
          "midi": 75,
          "name": "D#5",
          "ticks": 2400,
          "time": 1.967212,
          "velocity": 0.8346456692913385
        },
        {
          "duration": 1.9516382383333335,
          "durationTicks": 2381,
          "midi": 36,
          "name": "C2",
          "ticks": 2400,
          "time": 1.967212,
          "velocity": 0.8346456692913385
        },
        {
          "duration": 0.12295074999999978,
          "durationTicks": 150,
          "midi": 60,
          "name": "C4",
          "ticks": 2700,
          "time": 2.2131135,
          "velocity": 0.8346456692913385
        },
        {
          "duration": 0.2459015,
          "durationTicks": 300,
          "midi": 48,
          "name": "C3",
          "ticks": 3000,
          "time": 2.459015,
          "velocity": 0.8346456692913385
        },
        {
          "duration": 0.12295074999999978,
          "durationTicks": 150,
          "midi": 60,
          "name": "C4",
          "ticks": 3300,
          "time": 2.7049165,
          "velocity": 0.8346456692913385
        },
        {
          "duration": 0.2459015,
          "durationTicks": 300,
          "midi": 48,
          "name": "C3",
          "ticks": 3600,
          "time": 2.950818,
          "velocity": 0.8346456692913385
        },
        {
          "duration": 0.12295074999999978,
          "durationTicks": 150,
          "midi": 60,
          "name": "C4",
          "ticks": 3900,
          "time": 3.1967195,
          "velocity": 0.8346456692913385
        },
        {
          "duration": 0.2459015,
          "durationTicks": 300,
          "midi": 48,
          "name": "C3",
          "ticks": 4200,
          "time": 3.442621,
          "velocity": 0.8346456692913385
        },
        {
          "duration": 0.491803,
          "durationTicks": 600,
          "midi": 80,
          "name": "G#5",
          "ticks": 4200,
          "time": 3.442621,
          "velocity": 0.8346456692913385
        },
        {
          "duration": 0.12295074999999978,
          "durationTicks": 150,
          "midi": 60,
          "name": "C4",
          "ticks": 4500,
          "time": 3.6885225,
          "velocity": 0.8346456692913385
        },
        {
          "duration": 0.491803,
          "durationTicks": 600,
          "midi": 79,
          "name": "G5",
          "ticks": 4800,
          "time": 3.934424,
          "velocity": 0.8346456692913385
        },
        {
          "duration": 1.9516382383333335,
          "durationTicks": 2381,
          "midi": 32,
          "name": "G#1",
          "ticks": 4800,
          "time": 3.934424,
          "velocity": 0.8346456692913385
        },
        {
          "duration": 0.24590150000000044,
          "durationTicks": 300,
          "midi": 44,
          "name": "G#2",
          "ticks": 4800,
          "time": 3.934424,
          "velocity": 0.8346456692913385
        },
        {
          "duration": 0.12295074999999933,
          "durationTicks": 150,
          "midi": 56,
          "name": "G#3",
          "ticks": 5100,
          "time": 4.1803255,
          "velocity": 0.8346456692913385
        },
        {
          "duration": 0.24590149999999955,
          "durationTicks": 300,
          "midi": 44,
          "name": "G#2",
          "ticks": 5400,
          "time": 4.426227,
          "velocity": 0.84251968503937
        },
        {
          "duration": 0.491803,
          "durationTicks": 600,
          "midi": 75,
          "name": "D#5",
          "ticks": 5400,
          "time": 4.426227,
          "velocity": 0.84251968503937
        },
        {
          "duration": 0.12295075000000022,
          "durationTicks": 150,
          "midi": 56,
          "name": "G#3",
          "ticks": 5700,
          "time": 4.6721284999999995,
          "velocity": 0.84251968503937
        },
        {
          "duration": 0.24590150000000044,
          "durationTicks": 300,
          "midi": 44,
          "name": "G#2",
          "ticks": 6000,
          "time": 4.91803,
          "velocity": 0.84251968503937
        },
        {
          "duration": 0.491803,
          "durationTicks": 600,
          "midi": 77,
          "name": "F5",
          "ticks": 6000,
          "time": 4.91803,
          "velocity": 0.84251968503937
        },
        {
          "duration": 0.12295074999999933,
          "durationTicks": 150,
          "midi": 56,
          "name": "G#3",
          "ticks": 6300,
          "time": 5.1639315,
          "velocity": 0.84251968503937
        },
        {
          "duration": 0.491803,
          "durationTicks": 600,
          "midi": 74,
          "name": "D5",
          "ticks": 6600,
          "time": 5.409833,
          "velocity": 0.84251968503937
        },
        {
          "duration": 0.24590149999999955,
          "durationTicks": 300,
          "midi": 44,
          "name": "G#2",
          "ticks": 6600,
          "time": 5.409833,
          "velocity": 0.84251968503937
        },
        {
          "duration": 0.12295075000000022,
          "durationTicks": 150,
          "midi": 56,
          "name": "G#3",
          "ticks": 6900,
          "time": 5.655734499999999,
          "velocity": 0.84251968503937
        },
        {
          "duration": 0.24590150000000044,
          "durationTicks": 300,
          "midi": 46,
          "name": "A#2",
          "ticks": 7200,
          "time": 5.901636,
          "velocity": 0.84251968503937
        },
        {
          "duration": 0.9680322383333335,
          "durationTicks": 1181,
          "midi": 34,
          "name": "A#1",
          "ticks": 7200,
          "time": 5.901636,
          "velocity": 0.84251968503937
        },
        {
          "duration": 1.967212,
          "durationTicks": 2400,
          "midi": 75,
          "name": "D#5",
          "ticks": 7200,
          "time": 5.901636,
          "velocity": 0.84251968503937
        },
        {
          "duration": 0.12295074999999933,
          "durationTicks": 150,
          "midi": 58,
          "name": "A#3",
          "ticks": 7500,
          "time": 6.1475375,
          "velocity": 0.84251968503937
        },
        {
          "duration": 0.24590149999999955,
          "durationTicks": 300,
          "midi": 46,
          "name": "A#2",
          "ticks": 7800,
          "time": 6.393439,
          "velocity": 0.84251968503937
        },
        {
          "duration": 0.12295075000000022,
          "durationTicks": 150,
          "midi": 58,
          "name": "A#3",
          "ticks": 8100,
          "time": 6.639340499999999,
          "velocity": 0.84251968503937
        },
        {
          "duration": 0.24590150000000044,
          "durationTicks": 300,
          "midi": 47,
          "name": "B2",
          "ticks": 8400,
          "time": 6.885242,
          "velocity": 0.84251968503937
        },
        {
          "duration": 0.9680322383333335,
          "durationTicks": 1181,
          "midi": 35,
          "name": "B1",
          "ticks": 8400,
          "time": 6.885242,
          "velocity": 0.84251968503937
        },
        {
          "duration": 0.12295074999999933,
          "durationTicks": 150,
          "midi": 59,
          "name": "B3",
          "ticks": 8700,
          "time": 7.1311435,
          "velocity": 0.84251968503937
        },
        {
          "duration": 0.24590149999999955,
          "durationTicks": 300,
          "midi": 47,
          "name": "B2",
          "ticks": 9000,
          "time": 7.377045,
          "velocity": 0.84251968503937
        },
        {
          "duration": 0.12295075000000022,
          "durationTicks": 150,
          "midi": 59,
          "name": "B3",
          "ticks": 9300,
          "time": 7.622946499999999,
          "velocity": 0.84251968503937
        },
        {
          "duration": 0.983606,
          "durationTicks": 1200,
          "midi": 77,
          "name": "F5",
          "ticks": 9600,
          "time": 7.868848,
          "velocity": 0.84251968503937
        },
        {
          "duration": 0.983606,
          "durationTicks": 1200,
          "midi": 72,
          "name": "C5",
          "ticks": 9600,
          "time": 7.868848,
          "velocity": 0.84251968503937
        },
        {
          "duration": 1.9516382383333326,
          "durationTicks": 2381,
          "midi": 36,
          "name": "C2",
          "ticks": 9600,
          "time": 7.868848,
          "velocity": 0.84251968503937
        },
        {
          "duration": 0.24590150000000044,
          "durationTicks": 300,
          "midi": 48,
          "name": "C3",
          "ticks": 9600,
          "time": 7.868848,
          "velocity": 0.84251968503937
        },
        {
          "duration": 0.12295074999999933,
          "durationTicks": 150,
          "midi": 60,
          "name": "C4",
          "ticks": 9900,
          "time": 8.1147495,
          "velocity": 0.84251968503937
        },
        {
          "duration": 0.24590149999999866,
          "durationTicks": 300,
          "midi": 48,
          "name": "C3",
          "ticks": 10200,
          "time": 8.360651,
          "velocity": 0.84251968503937
        },
        {
          "duration": 0.12295075000000111,
          "durationTicks": 150,
          "midi": 60,
          "name": "C4",
          "ticks": 10500,
          "time": 8.6065525,
          "velocity": 0.84251968503937
        },
        {
          "duration": 0.36885224999999977,
          "durationTicks": 450,
          "midi": 77,
          "name": "F5",
          "ticks": 10800,
          "time": 8.852454,
          "velocity": 0.84251968503937
        },
        {
          "duration": 0.24590150000000044,
          "durationTicks": 300,
          "midi": 48,
          "name": "C3",
          "ticks": 10800,
          "time": 8.852454,
          "velocity": 0.84251968503937
        },
        {
          "duration": 0.36885224999999977,
          "durationTicks": 450,
          "midi": 72,
          "name": "C5",
          "ticks": 10800,
          "time": 8.852454,
          "velocity": 0.84251968503937
        },
        {
          "duration": 0.12295074999999933,
          "durationTicks": 150,
          "midi": 60,
          "name": "C4",
          "ticks": 11100,
          "time": 9.0983555,
          "velocity": 0.84251968503937
        },
        {
          "duration": 0.08196716666666681,
          "durationTicks": 100,
          "midi": 77,
          "name": "F5",
          "ticks": 11250,
          "time": 9.22130625,
          "velocity": 0.84251968503937
        },
        {
          "duration": 0.12295074999999933,
          "durationTicks": 150,
          "midi": 72,
          "name": "C5",
          "ticks": 11250,
          "time": 9.22130625,
          "velocity": 0.84251968503937
        },
        {
          "duration": 0.03032785166666585,
          "durationTicks": 37,
          "midi": 77,
          "name": "F5",
          "ticks": 11363,
          "time": 9.313929148333333,
          "velocity": 0.84251968503937
        },
        {
          "duration": 0.4918030000000009,
          "durationTicks": 600,
          "midi": 79,
          "name": "G5",
          "ticks": 11400,
          "time": 9.344256999999999,
          "velocity": 0.84251968503937
        },
        {
          "duration": 0.4918030000000009,
          "durationTicks": 600,
          "midi": 74,
          "name": "D5",
          "ticks": 11400,
          "time": 9.344256999999999,
          "velocity": 0.84251968503937
        },
        {
          "duration": 0.24590150000000044,
          "durationTicks": 300,
          "midi": 48,
          "name": "C3",
          "ticks": 11400,
          "time": 9.344256999999999,
          "velocity": 0.84251968503937
        },
        {
          "duration": 0.12295075000000111,
          "durationTicks": 150,
          "midi": 60,
          "name": "C4",
          "ticks": 11700,
          "time": 9.5901585,
          "velocity": 0.84251968503937
        },
        {
          "duration": 1.475408999999999,
          "durationTicks": 1800,
          "midi": 75,
          "name": "D#5",
          "ticks": 12000,
          "time": 9.83606,
          "velocity": 0.84251968503937
        },
        {
          "duration": 1.475408999999999,
          "durationTicks": 1800,
          "midi": 72,
          "name": "C5",
          "ticks": 12000,
          "time": 9.83606,
          "velocity": 0.84251968503937
        },
        {
          "duration": 1.9516382383333326,
          "durationTicks": 2381,
          "midi": 36,
          "name": "C2",
          "ticks": 12000,
          "time": 9.83606,
          "velocity": 0.84251968503937
        },
        {
          "duration": 0.24590150000000044,
          "durationTicks": 300,
          "midi": 48,
          "name": "C3",
          "ticks": 12000,
          "time": 9.83606,
          "velocity": 0.84251968503937
        },
        {
          "duration": 0.12295074999999933,
          "durationTicks": 150,
          "midi": 60,
          "name": "C4",
          "ticks": 12300,
          "time": 10.0819615,
          "velocity": 0.84251968503937
        },
        {
          "duration": 0.24590149999999866,
          "durationTicks": 300,
          "midi": 48,
          "name": "C3",
          "ticks": 12600,
          "time": 10.327863,
          "velocity": 0.8503937007874016
        },
        {
          "duration": 0.12295075000000111,
          "durationTicks": 150,
          "midi": 60,
          "name": "C4",
          "ticks": 12900,
          "time": 10.5737645,
          "velocity": 0.8503937007874016
        },
        {
          "duration": 0.24590150000000044,
          "durationTicks": 300,
          "midi": 48,
          "name": "C3",
          "ticks": 13200,
          "time": 10.819666,
          "velocity": 0.8503937007874016
        },
        {
          "duration": 0.12295074999999933,
          "durationTicks": 150,
          "midi": 60,
          "name": "C4",
          "ticks": 13500,
          "time": 11.0655675,
          "velocity": 0.8503937007874016
        },
        {
          "duration": 0.03032785166666585,
          "durationTicks": 37,
          "midi": 75,
          "name": "D#5",
          "ticks": 13763,
          "time": 11.281141148333333,
          "velocity": 0.8503937007874016
        },
        {
          "duration": 0.4918030000000009,
          "durationTicks": 600,
          "midi": 77,
          "name": "F5",
          "ticks": 13800,
          "time": 11.311468999999999,
          "velocity": 0.8503937007874016
        },
        {
          "duration": 0.4918030000000009,
          "durationTicks": 600,
          "midi": 80,
          "name": "G#5",
          "ticks": 13800,
          "time": 11.311468999999999,
          "velocity": 0.8503937007874016
        },
        {
          "duration": 0.24590150000000044,
          "durationTicks": 300,
          "midi": 48,
          "name": "C3",
          "ticks": 13800,
          "time": 11.311468999999999,
          "velocity": 0.8503937007874016
        },
        {
          "duration": 0.12295075000000111,
          "durationTicks": 150,
          "midi": 60,
          "name": "C4",
          "ticks": 14100,
          "time": 11.5573705,
          "velocity": 0.8503937007874016
        },
        {
          "duration": 0.030327851666667627,
          "durationTicks": 37,
          "midi": 80,
          "name": "G#5",
          "ticks": 14363,
          "time": 11.772944148333332,
          "velocity": 0.8503937007874016
        },
        {
          "duration": 0.4918030000000009,
          "durationTicks": 600,
          "midi": 82,
          "name": "A#5",
          "ticks": 14400,
          "time": 11.803272,
          "velocity": 0.8503937007874016
        },
        {
          "duration": 0.4918030000000009,
          "durationTicks": 600,
          "midi": 79,
          "name": "G5",
          "ticks": 14400,
          "time": 11.803272,
          "velocity": 0.8503937007874016
        },
        {
          "duration": 1.9516382383333326,
          "durationTicks": 2381,
          "midi": 32,
          "name": "G#1",
          "ticks": 14400,
          "time": 11.803272,
          "velocity": 0.8503937007874016
        },
        {
          "duration": 0.24590150000000044,
          "durationTicks": 300,
          "midi": 44,
          "name": "G#2",
          "ticks": 14400,
          "time": 11.803272,
          "velocity": 0.8503937007874016
        },
        {
          "duration": 0.12295074999999933,
          "durationTicks": 150,
          "midi": 56,
          "name": "G#3",
          "ticks": 14700,
          "time": 12.0491735,
          "velocity": 0.8503937007874016
        },
        {
          "duration": 0.4918029999999991,
          "durationTicks": 600,
          "midi": 80,
          "name": "G#5",
          "ticks": 15000,
          "time": 12.295075,
          "velocity": 0.8503937007874016
        },
        {
          "duration": 0.4918029999999991,
          "durationTicks": 600,
          "midi": 75,
          "name": "D#5",
          "ticks": 15000,
          "time": 12.295075,
          "velocity": 0.8503937007874016
        },
        {
          "duration": 0.24590149999999866,
          "durationTicks": 300,
          "midi": 44,
          "name": "G#2",
          "ticks": 15000,
          "time": 12.295075,
          "velocity": 0.8503937007874016
        },
        {
          "duration": 0.12295075000000111,
          "durationTicks": 150,
          "midi": 56,
          "name": "G#3",
          "ticks": 15300,
          "time": 12.5409765,
          "velocity": 0.8503937007874016
        },
        {
          "duration": 0.030327851666667627,
          "durationTicks": 37,
          "midi": 80,
          "name": "G#5",
          "ticks": 15563,
          "time": 12.756550148333332,
          "velocity": 0.8503937007874016
        },
        {
          "duration": 0.4918029999999991,
          "durationTicks": 600,
          "midi": 82,
          "name": "A#5",
          "ticks": 15600,
          "time": 12.786878,
          "velocity": 0.8503937007874016
        },
        {
          "duration": 0.4918029999999991,
          "durationTicks": 600,
          "midi": 77,
          "name": "F5",
          "ticks": 15600,
          "time": 12.786878,
          "velocity": 0.8503937007874016
        },
        {
          "duration": 0.24590150000000044,
          "durationTicks": 300,
          "midi": 44,
          "name": "G#2",
          "ticks": 15600,
          "time": 12.786878,
          "velocity": 0.8503937007874016
        },
        {
          "duration": 0.12295074999999933,
          "durationTicks": 150,
          "midi": 56,
          "name": "G#3",
          "ticks": 15900,
          "time": 13.0327795,
          "velocity": 0.8503937007874016
        },
        {
          "duration": 0.4918030000000009,
          "durationTicks": 600,
          "midi": 80,
          "name": "G#5",
          "ticks": 16200,
          "time": 13.278680999999999,
          "velocity": 0.8503937007874016
        },
        {
          "duration": 0.4918030000000009,
          "durationTicks": 600,
          "midi": 74,
          "name": "D5",
          "ticks": 16200,
          "time": 13.278680999999999,
          "velocity": 0.8503937007874016
        },
        {
          "duration": 0.24590150000000044,
          "durationTicks": 300,
          "midi": 44,
          "name": "G#2",
          "ticks": 16200,
          "time": 13.278680999999999,
          "velocity": 0.8503937007874016
        },
        {
          "duration": 0.12295075000000111,
          "durationTicks": 150,
          "midi": 56,
          "name": "G#3",
          "ticks": 16500,
          "time": 13.5245825,
          "velocity": 0.8503937007874016
        },
        {
          "duration": 1.967212,
          "durationTicks": 2400,
          "midi": 79,
          "name": "G5",
          "ticks": 16800,
          "time": 13.770484,
          "velocity": 0.8503937007874016
        },
        {
          "duration": 1.967212,
          "durationTicks": 2400,
          "midi": 75,
          "name": "D#5",
          "ticks": 16800,
          "time": 13.770484,
          "velocity": 0.8503937007874016
        },
        {
          "duration": 0.9680322383333326,
          "durationTicks": 1181,
          "midi": 34,
          "name": "A#1",
          "ticks": 16800,
          "time": 13.770484,
          "velocity": 0.8503937007874016
        },
        {
          "duration": 0.24590150000000044,
          "durationTicks": 300,
          "midi": 46,
          "name": "A#2",
          "ticks": 16800,
          "time": 13.770484,
          "velocity": 0.8503937007874016
        },
        {
          "duration": 0.12295074999999933,
          "durationTicks": 150,
          "midi": 58,
          "name": "A#3",
          "ticks": 17100,
          "time": 14.0163855,
          "velocity": 0.8503937007874016
        },
        {
          "duration": 0.24590149999999866,
          "durationTicks": 300,
          "midi": 46,
          "name": "A#2",
          "ticks": 17400,
          "time": 14.262287,
          "velocity": 0.8503937007874016
        },
        {
          "duration": 0.12295075000000111,
          "durationTicks": 150,
          "midi": 58,
          "name": "A#3",
          "ticks": 17700,
          "time": 14.5081885,
          "velocity": 0.8503937007874016
        },
        {
          "duration": 0.9680322383333326,
          "durationTicks": 1181,
          "midi": 35,
          "name": "B1",
          "ticks": 18000,
          "time": 14.75409,
          "velocity": 0.8503937007874016
        },
        {
          "duration": 0.24590150000000044,
          "durationTicks": 300,
          "midi": 47,
          "name": "B2",
          "ticks": 18000,
          "time": 14.75409,
          "velocity": 0.8503937007874016
        },
        {
          "duration": 0.12295074999999933,
          "durationTicks": 150,
          "midi": 59,
          "name": "B3",
          "ticks": 18300,
          "time": 14.9999915,
          "velocity": 0.8503937007874016
        },
        {
          "duration": 0.24590150000000044,
          "durationTicks": 300,
          "midi": 47,
          "name": "B2",
          "ticks": 18600,
          "time": 15.245892999999999,
          "velocity": 0.8503937007874016
        },
        {
          "duration": 0.12295075000000111,
          "durationTicks": 150,
          "midi": 59,
          "name": "B3",
          "ticks": 18900,
          "time": 15.4917945,
          "velocity": 0.8503937007874016
        },
        {
          "duration": 1.9516382383333344,
          "durationTicks": 2381,
          "midi": 36,
          "name": "C2",
          "ticks": 19200,
          "time": 15.737696,
          "velocity": 0.8346456692913385
        },
        {
          "duration": 0.9836060000000018,
          "durationTicks": 1200,
          "midi": 72,
          "name": "C5",
          "ticks": 19200,
          "time": 15.737696,
          "velocity": 0.8346456692913385
        },
        {
          "duration": 0.24590150000000044,
          "durationTicks": 300,
          "midi": 48,
          "name": "C3",
          "ticks": 19200,
          "time": 15.737696,
          "velocity": 0.8346456692913385
        },
        {
          "duration": 0.12295074999999933,
          "durationTicks": 150,
          "midi": 60,
          "name": "C4",
          "ticks": 19500,
          "time": 15.9835975,
          "velocity": 0.8346456692913385
        },
        {
          "duration": 0.24590149999999866,
          "durationTicks": 300,
          "midi": 48,
          "name": "C3",
          "ticks": 19800,
          "time": 16.229499,
          "velocity": 0.8346456692913385
        },
        {
          "duration": 0.12295075000000111,
          "durationTicks": 150,
          "midi": 60,
          "name": "C4",
          "ticks": 20100,
          "time": 16.4754005,
          "velocity": 0.8346456692913385
        },
        {
          "duration": 0.24590149999999866,
          "durationTicks": 300,
          "midi": 48,
          "name": "C3",
          "ticks": 20400,
          "time": 16.721302,
          "velocity": 0.8346456692913385
        },
        {
          "duration": 0.36885224999999977,
          "durationTicks": 450,
          "midi": 72,
          "name": "C5",
          "ticks": 20400,
          "time": 16.721302,
          "velocity": 0.8346456692913385
        },
        {
          "duration": 0.12295075000000111,
          "durationTicks": 150,
          "midi": 60,
          "name": "C4",
          "ticks": 20700,
          "time": 16.9672035,
          "velocity": 0.8346456692913385
        },
        {
          "duration": 0.12295074999999756,
          "durationTicks": 150,
          "midi": 72,
          "name": "C5",
          "ticks": 20850,
          "time": 17.09015425,
          "velocity": 0.8346456692913385
        },
        {
          "duration": 0.4918030000000009,
          "durationTicks": 600,
          "midi": 74,
          "name": "D5",
          "ticks": 21000,
          "time": 17.213105,
          "velocity": 0.8346456692913385
        },
        {
          "duration": 0.24590150000000222,
          "durationTicks": 300,
          "midi": 48,
          "name": "C3",
          "ticks": 21000,
          "time": 17.213105,
          "velocity": 0.8346456692913385
        },
        {
          "duration": 0.12295074999999756,
          "durationTicks": 150,
          "midi": 60,
          "name": "C4",
          "ticks": 21300,
          "time": 17.4590065,
          "velocity": 0.8346456692913385
        },
        {
          "duration": 0.24590149999999866,
          "durationTicks": 300,
          "midi": 48,
          "name": "C3",
          "ticks": 21600,
          "time": 17.704908,
          "velocity": 0.8346456692913385
        },
        {
          "duration": 1.475408999999999,
          "durationTicks": 1800,
          "midi": 75,
          "name": "D#5",
          "ticks": 21600,
          "time": 17.704908,
          "velocity": 0.8346456692913385
        },
        {
          "duration": 1.9516382383333344,
          "durationTicks": 2381,
          "midi": 36,
          "name": "C2",
          "ticks": 21600,
          "time": 17.704908,
          "velocity": 0.8346456692913385
        },
        {
          "duration": 0.12295075000000111,
          "durationTicks": 150,
          "midi": 60,
          "name": "C4",
          "ticks": 21900,
          "time": 17.9508095,
          "velocity": 0.8346456692913385
        },
        {
          "duration": 0.24590149999999866,
          "durationTicks": 300,
          "midi": 48,
          "name": "C3",
          "ticks": 22200,
          "time": 18.196711,
          "velocity": 0.8346456692913385
        },
        {
          "duration": 0.12295075000000111,
          "durationTicks": 150,
          "midi": 60,
          "name": "C4",
          "ticks": 22500,
          "time": 18.4426125,
          "velocity": 0.8346456692913385
        },
        {
          "duration": 0.24590150000000222,
          "durationTicks": 300,
          "midi": 48,
          "name": "C3",
          "ticks": 22800,
          "time": 18.688513999999998,
          "velocity": 0.8346456692913385
        },
        {
          "duration": 0.12295075000000111,
          "durationTicks": 150,
          "midi": 60,
          "name": "C4",
          "ticks": 23100,
          "time": 18.9344155,
          "velocity": 0.8346456692913385
        },
        {
          "duration": 0.24590150000000222,
          "durationTicks": 300,
          "midi": 48,
          "name": "C3",
          "ticks": 23400,
          "time": 19.180317,
          "velocity": 0.8346456692913385
        },
        {
          "duration": 0.4918030000000009,
          "durationTicks": 600,
          "midi": 80,
          "name": "G#5",
          "ticks": 23400,
          "time": 19.180317,
          "velocity": 0.8346456692913385
        },
        {
          "duration": 0.12295074999999756,
          "durationTicks": 150,
          "midi": 60,
          "name": "C4",
          "ticks": 23700,
          "time": 19.4262185,
          "velocity": 0.8346456692913385
        },
        {
          "duration": 0.4918030000000009,
          "durationTicks": 600,
          "midi": 79,
          "name": "G5",
          "ticks": 24000,
          "time": 19.67212,
          "velocity": 0.8346456692913385
        },
        {
          "duration": 1.9516382383333344,
          "durationTicks": 2381,
          "midi": 32,
          "name": "G#1",
          "ticks": 24000,
          "time": 19.67212,
          "velocity": 0.8346456692913385
        },
        {
          "duration": 0.24590149999999866,
          "durationTicks": 300,
          "midi": 44,
          "name": "G#2",
          "ticks": 24000,
          "time": 19.67212,
          "velocity": 0.8346456692913385
        },
        {
          "duration": 0.12295075000000111,
          "durationTicks": 150,
          "midi": 56,
          "name": "G#3",
          "ticks": 24300,
          "time": 19.9180215,
          "velocity": 0.8346456692913385
        },
        {
          "duration": 0.24590149999999866,
          "durationTicks": 300,
          "midi": 44,
          "name": "G#2",
          "ticks": 24600,
          "time": 20.163923,
          "velocity": 0.84251968503937
        },
        {
          "duration": 0.4918030000000009,
          "durationTicks": 600,
          "midi": 75,
          "name": "D#5",
          "ticks": 24600,
          "time": 20.163923,
          "velocity": 0.84251968503937
        },
        {
          "duration": 0.12295075000000111,
          "durationTicks": 150,
          "midi": 56,
          "name": "G#3",
          "ticks": 24900,
          "time": 20.4098245,
          "velocity": 0.84251968503937
        },
        {
          "duration": 0.24590149999999866,
          "durationTicks": 300,
          "midi": 44,
          "name": "G#2",
          "ticks": 25200,
          "time": 20.655726,
          "velocity": 0.84251968503937
        },
        {
          "duration": 0.4918029999999973,
          "durationTicks": 600,
          "midi": 77,
          "name": "F5",
          "ticks": 25200,
          "time": 20.655726,
          "velocity": 0.84251968503937
        },
        {
          "duration": 0.12295075000000111,
          "durationTicks": 150,
          "midi": 56,
          "name": "G#3",
          "ticks": 25500,
          "time": 20.9016275,
          "velocity": 0.84251968503937
        },
        {
          "duration": 0.4918030000000009,
          "durationTicks": 600,
          "midi": 74,
          "name": "D5",
          "ticks": 25800,
          "time": 21.147529,
          "velocity": 0.84251968503937
        },
        {
          "duration": 0.24590150000000222,
          "durationTicks": 300,
          "midi": 44,
          "name": "G#2",
          "ticks": 25800,
          "time": 21.147529,
          "velocity": 0.84251968503937
        },
        {
          "duration": 0.12295074999999756,
          "durationTicks": 150,
          "midi": 56,
          "name": "G#3",
          "ticks": 26100,
          "time": 21.3934305,
          "velocity": 0.84251968503937
        },
        {
          "duration": 0.24590149999999866,
          "durationTicks": 300,
          "midi": 46,
          "name": "A#2",
          "ticks": 26400,
          "time": 21.639332,
          "velocity": 0.84251968503937
        },
        {
          "duration": 0.9680322383333326,
          "durationTicks": 1181,
          "midi": 34,
          "name": "A#1",
          "ticks": 26400,
          "time": 21.639332,
          "velocity": 0.84251968503937
        },
        {
          "duration": 1.967212,
          "durationTicks": 2400,
          "midi": 75,
          "name": "D#5",
          "ticks": 26400,
          "time": 21.639332,
          "velocity": 0.84251968503937
        },
        {
          "duration": 0.12295075000000111,
          "durationTicks": 150,
          "midi": 58,
          "name": "A#3",
          "ticks": 26700,
          "time": 21.8852335,
          "velocity": 0.84251968503937
        },
        {
          "duration": 0.24590149999999866,
          "durationTicks": 300,
          "midi": 46,
          "name": "A#2",
          "ticks": 27000,
          "time": 22.131135,
          "velocity": 0.84251968503937
        },
        {
          "duration": 0.12295075000000111,
          "durationTicks": 150,
          "midi": 58,
          "name": "A#3",
          "ticks": 27300,
          "time": 22.3770365,
          "velocity": 0.84251968503937
        },
        {
          "duration": 0.24590150000000222,
          "durationTicks": 300,
          "midi": 47,
          "name": "B2",
          "ticks": 27600,
          "time": 22.622937999999998,
          "velocity": 0.84251968503937
        },
        {
          "duration": 0.9680322383333362,
          "durationTicks": 1181,
          "midi": 35,
          "name": "B1",
          "ticks": 27600,
          "time": 22.622937999999998,
          "velocity": 0.84251968503937
        },
        {
          "duration": 0.12295075000000111,
          "durationTicks": 150,
          "midi": 59,
          "name": "B3",
          "ticks": 27900,
          "time": 22.8688395,
          "velocity": 0.84251968503937
        },
        {
          "duration": 0.24590150000000222,
          "durationTicks": 300,
          "midi": 47,
          "name": "B2",
          "ticks": 28200,
          "time": 23.114741,
          "velocity": 0.84251968503937
        },
        {
          "duration": 0.12295074999999756,
          "durationTicks": 150,
          "midi": 59,
          "name": "B3",
          "ticks": 28500,
          "time": 23.3606425,
          "velocity": 0.84251968503937
        },
        {
          "duration": 0.9836060000000018,
          "durationTicks": 1200,
          "midi": 77,
          "name": "F5",
          "ticks": 28800,
          "time": 23.606544,
          "velocity": 0.84251968503937
        },
        {
          "duration": 0.9836060000000018,
          "durationTicks": 1200,
          "midi": 72,
          "name": "C5",
          "ticks": 28800,
          "time": 23.606544,
          "velocity": 0.84251968503937
        },
        {
          "duration": 1.9516382383333344,
          "durationTicks": 2381,
          "midi": 36,
          "name": "C2",
          "ticks": 28800,
          "time": 23.606544,
          "velocity": 0.84251968503937
        },
        {
          "duration": 0.24590149999999866,
          "durationTicks": 300,
          "midi": 48,
          "name": "C3",
          "ticks": 28800,
          "time": 23.606544,
          "velocity": 0.84251968503937
        },
        {
          "duration": 0.12295075000000111,
          "durationTicks": 150,
          "midi": 60,
          "name": "C4",
          "ticks": 29100,
          "time": 23.852445499999998,
          "velocity": 0.84251968503937
        },
        {
          "duration": 0.24590149999999866,
          "durationTicks": 300,
          "midi": 48,
          "name": "C3",
          "ticks": 29400,
          "time": 24.098347,
          "velocity": 0.84251968503937
        },
        {
          "duration": 0.12295075000000111,
          "durationTicks": 150,
          "midi": 60,
          "name": "C4",
          "ticks": 29700,
          "time": 24.3442485,
          "velocity": 0.84251968503937
        },
        {
          "duration": 0.36885224999999977,
          "durationTicks": 450,
          "midi": 77,
          "name": "F5",
          "ticks": 30000,
          "time": 24.59015,
          "velocity": 0.84251968503937
        },
        {
          "duration": 0.24590149999999866,
          "durationTicks": 300,
          "midi": 48,
          "name": "C3",
          "ticks": 30000,
          "time": 24.59015,
          "velocity": 0.84251968503937
        },
        {
          "duration": 0.36885224999999977,
          "durationTicks": 450,
          "midi": 72,
          "name": "C5",
          "ticks": 30000,
          "time": 24.59015,
          "velocity": 0.84251968503937
        },
        {
          "duration": 0.12295075000000111,
          "durationTicks": 150,
          "midi": 60,
          "name": "C4",
          "ticks": 30300,
          "time": 24.8360515,
          "velocity": 0.84251968503937
        },
        {
          "duration": 0.08196716666666504,
          "durationTicks": 100,
          "midi": 77,
          "name": "F5",
          "ticks": 30450,
          "time": 24.95900225,
          "velocity": 0.84251968503937
        },
        {
          "duration": 0.12295074999999756,
          "durationTicks": 150,
          "midi": 72,
          "name": "C5",
          "ticks": 30450,
          "time": 24.95900225,
          "velocity": 0.84251968503937
        },
        {
          "duration": 0.03032785166666585,
          "durationTicks": 37,
          "midi": 77,
          "name": "F5",
          "ticks": 30563,
          "time": 25.051625148333333,
          "velocity": 0.84251968503937
        },
        {
          "duration": 0.4918030000000009,
          "durationTicks": 600,
          "midi": 79,
          "name": "G5",
          "ticks": 30600,
          "time": 25.081953,
          "velocity": 0.84251968503937
        },
        {
          "duration": 0.4918030000000009,
          "durationTicks": 600,
          "midi": 74,
          "name": "D5",
          "ticks": 30600,
          "time": 25.081953,
          "velocity": 0.84251968503937
        },
        {
          "duration": 0.24590150000000222,
          "durationTicks": 300,
          "midi": 48,
          "name": "C3",
          "ticks": 30600,
          "time": 25.081953,
          "velocity": 0.84251968503937
        },
        {
          "duration": 0.12295074999999756,
          "durationTicks": 150,
          "midi": 60,
          "name": "C4",
          "ticks": 30900,
          "time": 25.3278545,
          "velocity": 0.84251968503937
        },
        {
          "duration": 1.475408999999999,
          "durationTicks": 1800,
          "midi": 75,
          "name": "D#5",
          "ticks": 31200,
          "time": 25.573756,
          "velocity": 0.84251968503937
        },
        {
          "duration": 1.475408999999999,
          "durationTicks": 1800,
          "midi": 72,
          "name": "C5",
          "ticks": 31200,
          "time": 25.573756,
          "velocity": 0.84251968503937
        },
        {
          "duration": 1.9516382383333344,
          "durationTicks": 2381,
          "midi": 36,
          "name": "C2",
          "ticks": 31200,
          "time": 25.573756,
          "velocity": 0.84251968503937
        },
        {
          "duration": 0.24590149999999866,
          "durationTicks": 300,
          "midi": 48,
          "name": "C3",
          "ticks": 31200,
          "time": 25.573756,
          "velocity": 0.84251968503937
        },
        {
          "duration": 0.12295075000000111,
          "durationTicks": 150,
          "midi": 60,
          "name": "C4",
          "ticks": 31500,
          "time": 25.819657499999998,
          "velocity": 0.84251968503937
        },
        {
          "duration": 0.24590149999999866,
          "durationTicks": 300,
          "midi": 48,
          "name": "C3",
          "ticks": 31800,
          "time": 26.065559,
          "velocity": 0.8503937007874016
        },
        {
          "duration": 0.12295075000000111,
          "durationTicks": 150,
          "midi": 60,
          "name": "C4",
          "ticks": 32100,
          "time": 26.3114605,
          "velocity": 0.8503937007874016
        },
        {
          "duration": 0.24590150000000222,
          "durationTicks": 300,
          "midi": 48,
          "name": "C3",
          "ticks": 32400,
          "time": 26.557361999999998,
          "velocity": 0.8503937007874016
        },
        {
          "duration": 0.12295075000000111,
          "durationTicks": 150,
          "midi": 60,
          "name": "C4",
          "ticks": 32700,
          "time": 26.8032635,
          "velocity": 0.8503937007874016
        },
        {
          "duration": 0.03032785166666585,
          "durationTicks": 37,
          "midi": 75,
          "name": "D#5",
          "ticks": 32963,
          "time": 27.018837148333333,
          "velocity": 0.8503937007874016
        },
        {
          "duration": 0.4918030000000009,
          "durationTicks": 600,
          "midi": 77,
          "name": "F5",
          "ticks": 33000,
          "time": 27.049165,
          "velocity": 0.8503937007874016
        },
        {
          "duration": 0.4918030000000009,
          "durationTicks": 600,
          "midi": 80,
          "name": "G#5",
          "ticks": 33000,
          "time": 27.049165,
          "velocity": 0.8503937007874016
        },
        {
          "duration": 0.24590150000000222,
          "durationTicks": 300,
          "midi": 48,
          "name": "C3",
          "ticks": 33000,
          "time": 27.049165,
          "velocity": 0.8503937007874016
        },
        {
          "duration": 0.12295074999999756,
          "durationTicks": 150,
          "midi": 60,
          "name": "C4",
          "ticks": 33300,
          "time": 27.2950665,
          "velocity": 0.8503937007874016
        },
        {
          "duration": 0.03032785166666585,
          "durationTicks": 37,
          "midi": 80,
          "name": "G#5",
          "ticks": 33563,
          "time": 27.510640148333334,
          "velocity": 0.8503937007874016
        },
        {
          "duration": 0.4918030000000009,
          "durationTicks": 600,
          "midi": 82,
          "name": "A#5",
          "ticks": 33600,
          "time": 27.540968,
          "velocity": 0.8503937007874016
        },
        {
          "duration": 0.4918030000000009,
          "durationTicks": 600,
          "midi": 79,
          "name": "G5",
          "ticks": 33600,
          "time": 27.540968,
          "velocity": 0.8503937007874016
        },
        {
          "duration": 1.9516382383333344,
          "durationTicks": 2381,
          "midi": 32,
          "name": "G#1",
          "ticks": 33600,
          "time": 27.540968,
          "velocity": 0.8503937007874016
        },
        {
          "duration": 0.24590149999999866,
          "durationTicks": 300,
          "midi": 44,
          "name": "G#2",
          "ticks": 33600,
          "time": 27.540968,
          "velocity": 0.8503937007874016
        },
        {
          "duration": 0.12295075000000111,
          "durationTicks": 150,
          "midi": 56,
          "name": "G#3",
          "ticks": 33900,
          "time": 27.786869499999998,
          "velocity": 0.8503937007874016
        },
        {
          "duration": 0.4918030000000009,
          "durationTicks": 600,
          "midi": 80,
          "name": "G#5",
          "ticks": 34200,
          "time": 28.032771,
          "velocity": 0.8503937007874016
        },
        {
          "duration": 0.4918030000000009,
          "durationTicks": 600,
          "midi": 75,
          "name": "D#5",
          "ticks": 34200,
          "time": 28.032771,
          "velocity": 0.8503937007874016
        },
        {
          "duration": 0.24590149999999866,
          "durationTicks": 300,
          "midi": 44,
          "name": "G#2",
          "ticks": 34200,
          "time": 28.032771,
          "velocity": 0.8503937007874016
        },
        {
          "duration": 0.12295075000000111,
          "durationTicks": 150,
          "midi": 56,
          "name": "G#3",
          "ticks": 34500,
          "time": 28.2786725,
          "velocity": 0.8503937007874016
        },
        {
          "duration": 0.030327851666669403,
          "durationTicks": 37,
          "midi": 80,
          "name": "G#5",
          "ticks": 34763,
          "time": 28.494246148333332,
          "velocity": 0.8503937007874016
        },
        {
          "duration": 0.4918029999999973,
          "durationTicks": 600,
          "midi": 82,
          "name": "A#5",
          "ticks": 34800,
          "time": 28.524574,
          "velocity": 0.8503937007874016
        },
        {
          "duration": 0.4918029999999973,
          "durationTicks": 600,
          "midi": 77,
          "name": "F5",
          "ticks": 34800,
          "time": 28.524574,
          "velocity": 0.8503937007874016
        },
        {
          "duration": 0.24590149999999866,
          "durationTicks": 300,
          "midi": 44,
          "name": "G#2",
          "ticks": 34800,
          "time": 28.524574,
          "velocity": 0.8503937007874016
        },
        {
          "duration": 0.12295075000000111,
          "durationTicks": 150,
          "midi": 56,
          "name": "G#3",
          "ticks": 35100,
          "time": 28.7704755,
          "velocity": 0.8503937007874016
        },
        {
          "duration": 0.4918030000000009,
          "durationTicks": 600,
          "midi": 80,
          "name": "G#5",
          "ticks": 35400,
          "time": 29.016377,
          "velocity": 0.8503937007874016
        },
        {
          "duration": 0.4918030000000009,
          "durationTicks": 600,
          "midi": 74,
          "name": "D5",
          "ticks": 35400,
          "time": 29.016377,
          "velocity": 0.8503937007874016
        },
        {
          "duration": 0.24590150000000222,
          "durationTicks": 300,
          "midi": 44,
          "name": "G#2",
          "ticks": 35400,
          "time": 29.016377,
          "velocity": 0.8503937007874016
        },
        {
          "duration": 0.12295074999999756,
          "durationTicks": 150,
          "midi": 56,
          "name": "G#3",
          "ticks": 35700,
          "time": 29.2622785,
          "velocity": 0.8503937007874016
        }
      ],
      "endOfTrackTicks": 38400
    },
    {
      "channel": 0,
      "controlChanges": {
        "6": [
          {
            "number": 6,
            "ticks": 0,
            "time": 0,
            "value": 0.09448818897637795
          }
        ],
        "7": [
          {
            "number": 7,
            "ticks": 0,
            "time": 0,
            "value": 1
          },
          {
            "number": 7,
            "ticks": 0,
            "time": 0,
            "value": 1
          }
        ],
        "10": [
          {
            "number": 10,
            "ticks": 0,
            "time": 0,
            "value": 0.5039370078740157
          },
          {
            "number": 10,
            "ticks": 0,
            "time": 0,
            "value": 0.5039370078740157
          }
        ],
        "100": [
          {
            "number": 100,
            "ticks": 0,
            "time": 0,
            "value": 0
          }
        ],
        "101": [
          {
            "number": 101,
            "ticks": 0,
            "time": 0,
            "value": 0
          }
        ]
      },
      "pitchBends": [
        {
          "ticks": 0,
          "time": 0,
          "value": 0
        },
        {
          "ticks": 0,
          "time": 0,
          "value": 0
        }
      ],
      "instrument": {
        "family": "piano",
        "number": 0,
        "name": "acoustic grand piano"
      },
      "name": "AtomPro",
      "notes": [],
      "endOfTrackTicks": 38400
    },
    {
      "channel": 1,
      "controlChanges": {
        "6": [
          {
            "number": 6,
            "ticks": 38400,
            "time": 31.475392,
            "value": 0.09448818897637795
          },
          {
            "number": 6,
            "ticks": 38400,
            "time": 31.475392,
            "value": 0.09448818897637795
          }
        ],
        "7": [
          {
            "number": 7,
            "ticks": 38400,
            "time": 31.475392,
            "value": 1
          },
          {
            "number": 7,
            "ticks": 38400,
            "time": 31.475392,
            "value": 1
          }
        ],
        "10": [
          {
            "number": 10,
            "ticks": 38400,
            "time": 31.475392,
            "value": 0.5039370078740157
          },
          {
            "number": 10,
            "ticks": 38400,
            "time": 31.475392,
            "value": 0.5039370078740157
          }
        ],
        "100": [
          {
            "number": 100,
            "ticks": 38400,
            "time": 31.475392,
            "value": 0
          },
          {
            "number": 100,
            "ticks": 38400,
            "time": 31.475392,
            "value": 0
          }
        ],
        "101": [
          {
            "number": 101,
            "ticks": 38400,
            "time": 31.475392,
            "value": 0
          },
          {
            "number": 101,
            "ticks": 38400,
            "time": 31.475392,
            "value": 0
          }
        ]
      },
      "pitchBends": [
        {
          "ticks": 0,
          "time": 0,
          "value": 0
        },
        {
          "ticks": 38400,
          "time": 31.475392,
          "value": 0
        },
        {
          "ticks": 38400,
          "time": 31.475392,
          "value": 0
        }
      ],
      "instrument": {
        "family": "guitar",
        "number": 29,
        "name": "overdriven guitar"
      },
      "name": "",
      "notes": [
        {
          "duration": 0.10245895833333485,
          "durationTicks": 125,
          "midi": 60,
          "name": "C4",
          "ticks": 19200,
          "time": 15.737696,
          "velocity": 0.84251968503937
        },
        {
          "duration": 0.04590161333333498,
          "durationTicks": 56,
          "midi": 60,
          "name": "C4",
          "ticks": 19350,
          "time": 15.860646749999999,
          "velocity": 0.84251968503937
        },
        {
          "duration": 0.10245895833333485,
          "durationTicks": 125,
          "midi": 60,
          "name": "C4",
          "ticks": 19500,
          "time": 15.9835975,
          "velocity": 0.84251968503937
        },
        {
          "duration": 0.10245895833333307,
          "durationTicks": 125,
          "midi": 48,
          "name": "C3",
          "ticks": 19650,
          "time": 16.10654825,
          "velocity": 0.84251968503937
        },
        {
          "duration": 0.10245895833333307,
          "durationTicks": 125,
          "midi": 60,
          "name": "C4",
          "ticks": 19800,
          "time": 16.229499,
          "velocity": 0.84251968503937
        },
        {
          "duration": 0.10245895833333662,
          "durationTicks": 125,
          "midi": 58,
          "name": "A#3",
          "ticks": 19950,
          "time": 16.352449749999998,
          "velocity": 0.84251968503937
        },
        {
          "duration": 0.10245895833333662,
          "durationTicks": 125,
          "midi": 62,
          "name": "D4",
          "ticks": 20100,
          "time": 16.4754005,
          "velocity": 0.84251968503937
        },
        {
          "duration": 0.10245895833333307,
          "durationTicks": 125,
          "midi": 60,
          "name": "C4",
          "ticks": 20250,
          "time": 16.59835125,
          "velocity": 0.8503937007874016
        },
        {
          "duration": 0.34836045833333174,
          "durationTicks": 425,
          "midi": 63,
          "name": "D#4",
          "ticks": 20400,
          "time": 16.721302,
          "velocity": 0.8503937007874016
        },
        {
          "duration": 0.34836045833333174,
          "durationTicks": 425,
          "midi": 62,
          "name": "D4",
          "ticks": 20850,
          "time": 17.09015425,
          "velocity": 0.8503937007874016
        },
        {
          "duration": 0.22540970833333418,
          "durationTicks": 275,
          "midi": 63,
          "name": "D#4",
          "ticks": 21300,
          "time": 17.4590065,
          "velocity": 0.8503937007874016
        },
        {
          "duration": 0.10245895833333307,
          "durationTicks": 125,
          "midi": 60,
          "name": "C4",
          "ticks": 21600,
          "time": 17.704908,
          "velocity": 0.8503937007874016
        },
        {
          "duration": 0.045901613333331426,
          "durationTicks": 56,
          "midi": 60,
          "name": "C4",
          "ticks": 21750,
          "time": 17.82785875,
          "velocity": 0.8503937007874016
        },
        {
          "duration": 0.10245895833333662,
          "durationTicks": 125,
          "midi": 60,
          "name": "C4",
          "ticks": 21900,
          "time": 17.9508095,
          "velocity": 0.8503937007874016
        },
        {
          "duration": 0.10245895833333307,
          "durationTicks": 125,
          "midi": 48,
          "name": "C3",
          "ticks": 22050,
          "time": 18.07376025,
          "velocity": 0.8503937007874016
        },
        {
          "duration": 0.10245895833333307,
          "durationTicks": 125,
          "midi": 60,
          "name": "C4",
          "ticks": 22200,
          "time": 18.196711,
          "velocity": 0.8503937007874016
        },
        {
          "duration": 0.10245895833333662,
          "durationTicks": 125,
          "midi": 60,
          "name": "C4",
          "ticks": 22350,
          "time": 18.319661749999998,
          "velocity": 0.8503937007874016
        },
        {
          "duration": 0.10245895833333662,
          "durationTicks": 125,
          "midi": 62,
          "name": "D4",
          "ticks": 22500,
          "time": 18.4426125,
          "velocity": 0.8582677165354331
        },
        {
          "duration": 0.10245895833333307,
          "durationTicks": 125,
          "midi": 60,
          "name": "C4",
          "ticks": 22650,
          "time": 18.56556325,
          "velocity": 0.8582677165354331
        },
        {
          "duration": 0.3483604583333353,
          "durationTicks": 425,
          "midi": 63,
          "name": "D#4",
          "ticks": 22800,
          "time": 18.688513999999998,
          "velocity": 0.8582677165354331
        },
        {
          "duration": 0.34836045833333174,
          "durationTicks": 425,
          "midi": 62,
          "name": "D4",
          "ticks": 23250,
          "time": 19.05736625,
          "velocity": 0.8582677165354331
        },
        {
          "duration": 0.22540970833333418,
          "durationTicks": 275,
          "midi": 63,
          "name": "D#4",
          "ticks": 23700,
          "time": 19.4262185,
          "velocity": 0.8582677165354331
        },
        {
          "duration": 0.10245895833333662,
          "durationTicks": 125,
          "midi": 60,
          "name": "C4",
          "ticks": 24300,
          "time": 19.9180215,
          "velocity": 0.8582677165354331
        },
        {
          "duration": 0.10245895833333307,
          "durationTicks": 125,
          "midi": 60,
          "name": "C4",
          "ticks": 24450,
          "time": 20.04097225,
          "velocity": 0.8582677165354331
        },
        {
          "duration": 0.10245895833333307,
          "durationTicks": 125,
          "midi": 62,
          "name": "D4",
          "ticks": 24600,
          "time": 20.163923,
          "velocity": 0.8582677165354331
        },
        {
          "duration": 0.10245895833333662,
          "durationTicks": 125,
          "midi": 60,
          "name": "C4",
          "ticks": 24750,
          "time": 20.286873749999998,
          "velocity": 0.8661417322834646
        },
        {
          "duration": 0.10245895833333662,
          "durationTicks": 125,
          "midi": 63,
          "name": "D#4",
          "ticks": 24900,
          "time": 20.4098245,
          "velocity": 0.8661417322834646
        },
        {
          "duration": 0.10245895833333307,
          "durationTicks": 125,
          "midi": 65,
          "name": "F4",
          "ticks": 25050,
          "time": 20.53277525,
          "velocity": 0.8661417322834646
        },
        {
          "duration": 0.34836045833333174,
          "durationTicks": 425,
          "midi": 63,
          "name": "D#4",
          "ticks": 25200,
          "time": 20.655726,
          "velocity": 0.8661417322834646
        },
        {
          "duration": 0.34836045833333174,
          "durationTicks": 425,
          "midi": 65,
          "name": "F4",
          "ticks": 25650,
          "time": 21.02457825,
          "velocity": 0.8661417322834646
        },
        {
          "duration": 0.22540970833333418,
          "durationTicks": 275,
          "midi": 67,
          "name": "G4",
          "ticks": 26100,
          "time": 21.3934305,
          "velocity": 0.8661417322834646
        },
        {
          "duration": 0.10245895833333307,
          "durationTicks": 125,
          "midi": 58,
          "name": "A#3",
          "ticks": 26400,
          "time": 21.639332,
          "velocity": 0.8661417322834646
        },
        {
          "duration": 0.045901613333331426,
          "durationTicks": 56,
          "midi": 58,
          "name": "A#3",
          "ticks": 26550,
          "time": 21.76228275,
          "velocity": 0.8661417322834646
        },
        {
          "duration": 0.10245895833333662,
          "durationTicks": 125,
          "midi": 58,
          "name": "A#3",
          "ticks": 26700,
          "time": 21.8852335,
          "velocity": 0.8661417322834646
        },
        {
          "duration": 0.10245895833333307,
          "durationTicks": 125,
          "midi": 58,
          "name": "A#3",
          "ticks": 26850,
          "time": 22.00818425,
          "velocity": 0.8661417322834646
        },
        {
          "duration": 0.10245895833333307,
          "durationTicks": 125,
          "midi": 60,
          "name": "C4",
          "ticks": 27000,
          "time": 22.131135,
          "velocity": 0.8740157480314961
        },
        {
          "duration": 0.10245895833333662,
          "durationTicks": 125,
          "midi": 58,
          "name": "A#3",
          "ticks": 27150,
          "time": 22.254085749999998,
          "velocity": 0.8740157480314961
        },
        {
          "duration": 0.10245895833333662,
          "durationTicks": 125,
          "midi": 62,
          "name": "D4",
          "ticks": 27300,
          "time": 22.3770365,
          "velocity": 0.8740157480314961
        },
        {
          "duration": 0.10245895833333307,
          "durationTicks": 125,
          "midi": 60,
          "name": "C4",
          "ticks": 27450,
          "time": 22.49998725,
          "velocity": 0.8740157480314961
        },
        {
          "duration": 0.10245895833333662,
          "durationTicks": 125,
          "midi": 62,
          "name": "D4",
          "ticks": 27600,
          "time": 22.622937999999998,
          "velocity": 0.8740157480314961
        },
        {
          "duration": 0.051639314999999186,
          "durationTicks": 63,
          "midi": 63,
          "name": "D#4",
          "ticks": 27750,
          "time": 22.74588875,
          "velocity": 0.8740157480314961
        },
        {
          "duration": 0.030327851666669403,
          "durationTicks": 37,
          "midi": 62,
          "name": "D4",
          "ticks": 27838,
          "time": 22.818019856666666,
          "velocity": 0.8740157480314961
        },
        {
          "duration": 0.10245895833333307,
          "durationTicks": 125,
          "midi": 62,
          "name": "D4",
          "ticks": 27900,
          "time": 22.8688395,
          "velocity": 0.8740157480314961
        },
        {
          "duration": 0.10245895833333307,
          "durationTicks": 125,
          "midi": 60,
          "name": "C4",
          "ticks": 28050,
          "time": 22.99179025,
          "velocity": 0.8740157480314961
        },
        {
          "duration": 0.10245895833333662,
          "durationTicks": 125,
          "midi": 63,
          "name": "D#4",
          "ticks": 28200,
          "time": 23.114741,
          "velocity": 0.8740157480314961
        },
        {
          "duration": 0.10245895833333307,
          "durationTicks": 125,
          "midi": 65,
          "name": "F4",
          "ticks": 28350,
          "time": 23.23769175,
          "velocity": 0.8740157480314961
        },
        {
          "duration": 0.10245895833333307,
          "durationTicks": 125,
          "midi": 63,
          "name": "D#4",
          "ticks": 28500,
          "time": 23.3606425,
          "velocity": 0.8740157480314961
        },
        {
          "duration": 0.10245895833333662,
          "durationTicks": 125,
          "midi": 62,
          "name": "D4",
          "ticks": 28650,
          "time": 23.48359325,
          "velocity": 0.8740157480314961
        },
        {
          "duration": 0.10245895833333307,
          "durationTicks": 125,
          "midi": 60,
          "name": "C4",
          "ticks": 28800,
          "time": 23.606544,
          "velocity": 1
        },
        {
          "duration": 0.045901613333331426,
          "durationTicks": 56,
          "midi": 60,
          "name": "C4",
          "ticks": 28950,
          "time": 23.72949475,
          "velocity": 1
        },
        {
          "duration": 0.10245895833333662,
          "durationTicks": 125,
          "midi": 60,
          "name": "C4",
          "ticks": 29100,
          "time": 23.852445499999998,
          "velocity": 1
        },
        {
          "duration": 0.10245895833333307,
          "durationTicks": 125,
          "midi": 48,
          "name": "C3",
          "ticks": 29250,
          "time": 23.97539625,
          "velocity": 1
        },
        {
          "duration": 0.10245895833333307,
          "durationTicks": 125,
          "midi": 60,
          "name": "C4",
          "ticks": 29400,
          "time": 24.098347,
          "velocity": 1
        },
        {
          "duration": 0.10245895833333662,
          "durationTicks": 125,
          "midi": 58,
          "name": "A#3",
          "ticks": 29550,
          "time": 24.221297749999998,
          "velocity": 1
        },
        {
          "duration": 0.10245895833333662,
          "durationTicks": 125,
          "midi": 62,
          "name": "D4",
          "ticks": 29700,
          "time": 24.3442485,
          "velocity": 1
        },
        {
          "duration": 0.10245895833333307,
          "durationTicks": 125,
          "midi": 60,
          "name": "C4",
          "ticks": 29850,
          "time": 24.46719925,
          "velocity": 1
        },
        {
          "duration": 0.34836045833333174,
          "durationTicks": 425,
          "midi": 63,
          "name": "D#4",
          "ticks": 30000,
          "time": 24.59015,
          "velocity": 1
        },
        {
          "duration": 0.34836045833333174,
          "durationTicks": 425,
          "midi": 62,
          "name": "D4",
          "ticks": 30450,
          "time": 24.95900225,
          "velocity": 1
        },
        {
          "duration": 0.22540970833333418,
          "durationTicks": 275,
          "midi": 63,
          "name": "D#4",
          "ticks": 30900,
          "time": 25.3278545,
          "velocity": 1
        },
        {
          "duration": 0.10245895833333307,
          "durationTicks": 125,
          "midi": 60,
          "name": "C4",
          "ticks": 31200,
          "time": 25.573756,
          "velocity": 1
        },
        {
          "duration": 0.045901613333331426,
          "durationTicks": 56,
          "midi": 60,
          "name": "C4",
          "ticks": 31350,
          "time": 25.69670675,
          "velocity": 1
        },
        {
          "duration": 0.10245895833333662,
          "durationTicks": 125,
          "midi": 60,
          "name": "C4",
          "ticks": 31500,
          "time": 25.819657499999998,
          "velocity": 1
        },
        {
          "duration": 0.10245895833333307,
          "durationTicks": 125,
          "midi": 48,
          "name": "C3",
          "ticks": 31650,
          "time": 25.94260825,
          "velocity": 1
        },
        {
          "duration": 0.10245895833333307,
          "durationTicks": 125,
          "midi": 60,
          "name": "C4",
          "ticks": 31800,
          "time": 26.065559,
          "velocity": 1
        },
        {
          "duration": 0.10245895833333662,
          "durationTicks": 125,
          "midi": 60,
          "name": "C4",
          "ticks": 31950,
          "time": 26.188509749999998,
          "velocity": 1
        },
        {
          "duration": 0.10245895833333662,
          "durationTicks": 125,
          "midi": 62,
          "name": "D4",
          "ticks": 32100,
          "time": 26.3114605,
          "velocity": 1
        },
        {
          "duration": 0.10245895833333307,
          "durationTicks": 125,
          "midi": 60,
          "name": "C4",
          "ticks": 32250,
          "time": 26.43441125,
          "velocity": 1
        },
        {
          "duration": 0.3483604583333353,
          "durationTicks": 425,
          "midi": 63,
          "name": "D#4",
          "ticks": 32400,
          "time": 26.557361999999998,
          "velocity": 1
        },
        {
          "duration": 0.34836045833333174,
          "durationTicks": 425,
          "midi": 62,
          "name": "D4",
          "ticks": 32850,
          "time": 26.92621425,
          "velocity": 1
        },
        {
          "duration": 0.22540970833333418,
          "durationTicks": 275,
          "midi": 63,
          "name": "D#4",
          "ticks": 33300,
          "time": 27.2950665,
          "velocity": 1
        },
        {
          "duration": 0.10245895833333662,
          "durationTicks": 125,
          "midi": 60,
          "name": "C4",
          "ticks": 33900,
          "time": 27.786869499999998,
          "velocity": 1
        },
        {
          "duration": 0.10245895833333307,
          "durationTicks": 125,
          "midi": 60,
          "name": "C4",
          "ticks": 34050,
          "time": 27.90982025,
          "velocity": 1
        },
        {
          "duration": 0.10245895833333307,
          "durationTicks": 125,
          "midi": 62,
          "name": "D4",
          "ticks": 34200,
          "time": 28.032771,
          "velocity": 1
        },
        {
          "duration": 0.10245895833333662,
          "durationTicks": 125,
          "midi": 60,
          "name": "C4",
          "ticks": 34350,
          "time": 28.155721749999998,
          "velocity": 1
        },
        {
          "duration": 0.10245895833333662,
          "durationTicks": 125,
          "midi": 63,
          "name": "D#4",
          "ticks": 34500,
          "time": 28.2786725,
          "velocity": 1
        },
        {
          "duration": 0.10245895833333307,
          "durationTicks": 125,
          "midi": 65,
          "name": "F4",
          "ticks": 34650,
          "time": 28.40162325,
          "velocity": 1
        },
        {
          "duration": 0.34836045833333174,
          "durationTicks": 425,
          "midi": 63,
          "name": "D#4",
          "ticks": 34800,
          "time": 28.524574,
          "velocity": 1
        },
        {
          "duration": 0.34836045833333174,
          "durationTicks": 425,
          "midi": 65,
          "name": "F4",
          "ticks": 35250,
          "time": 28.89342625,
          "velocity": 1
        },
        {
          "duration": 0.22540970833333418,
          "durationTicks": 275,
          "midi": 67,
          "name": "G4",
          "ticks": 35700,
          "time": 29.2622785,
          "velocity": 1
        }
      ]
    },
    {
      "channel": 0,
      "controlChanges": {
        "6": [
          {
            "number": 6,
            "ticks": 0,
            "time": 0,
            "value": 0.09448818897637795
          }
        ],
        "7": [
          {
            "number": 7,
            "ticks": 0,
            "time": 0,
            "value": 0.7086614173228346
          },
          {
            "number": 7,
            "ticks": 0,
            "time": 0,
            "value": 0.7086614173228346
          }
        ],
        "10": [
          {
            "number": 10,
            "ticks": 0,
            "time": 0,
            "value": 0.5039370078740157
          },
          {
            "number": 10,
            "ticks": 0,
            "time": 0,
            "value": 0.5039370078740157
          }
        ],
        "100": [
          {
            "number": 100,
            "ticks": 0,
            "time": 0,
            "value": 0
          }
        ],
        "101": [
          {
            "number": 101,
            "ticks": 0,
            "time": 0,
            "value": 0
          }
        ]
      },
      "pitchBends": [
        {
          "ticks": 0,
          "time": 0,
          "value": 0
        },
        {
          "ticks": 0,
          "time": 0,
          "value": 0
        }
      ],
      "instrument": {
        "family": "piano",
        "number": 0,
        "name": "acoustic grand piano"
      },
      "name": "AtomPro",
      "notes": [],
      "endOfTrackTicks": 38400
    },
    {
      "channel": 2,
      "controlChanges": {
        "6": [
          {
            "number": 6,
            "ticks": 38400,
            "time": 31.475392,
            "value": 0.09448818897637795
          },
          {
            "number": 6,
            "ticks": 38400,
            "time": 31.475392,
            "value": 0.09448818897637795
          }
        ],
        "7": [
          {
            "number": 7,
            "ticks": 38400,
            "time": 31.475392,
            "value": 0.7086614173228346
          },
          {
            "number": 7,
            "ticks": 38400,
            "time": 31.475392,
            "value": 0.7086614173228346
          }
        ],
        "10": [
          {
            "number": 10,
            "ticks": 38400,
            "time": 31.475392,
            "value": 0.5039370078740157
          },
          {
            "number": 10,
            "ticks": 38400,
            "time": 31.475392,
            "value": 0.5039370078740157
          }
        ],
        "100": [
          {
            "number": 100,
            "ticks": 38400,
            "time": 31.475392,
            "value": 0
          },
          {
            "number": 100,
            "ticks": 38400,
            "time": 31.475392,
            "value": 0
          }
        ],
        "101": [
          {
            "number": 101,
            "ticks": 38400,
            "time": 31.475392,
            "value": 0
          },
          {
            "number": 101,
            "ticks": 38400,
            "time": 31.475392,
            "value": 0
          }
        ]
      },
      "pitchBends": [
        {
          "ticks": 0,
          "time": 0,
          "value": 0
        },
        {
          "ticks": 38400,
          "time": 31.475392,
          "value": 0
        },
        {
          "ticks": 38400,
          "time": 31.475392,
          "value": 0
        }
      ],
      "instrument": {
        "family": "strings",
        "number": 46,
        "name": "orchestral harp"
      },
      "name": "",
      "notes": [
        {
          "duration": 0.10737698833333376,
          "durationTicks": 131,
          "midi": 60,
          "name": "C4",
          "ticks": 19200,
          "time": 15.737696,
          "velocity": 0.7952755905511811
        },
        {
          "duration": 0.10737698833333376,
          "durationTicks": 131,
          "midi": 63,
          "name": "D#4",
          "ticks": 19350,
          "time": 15.860646749999999,
          "velocity": 0.7952755905511811
        },
        {
          "duration": 0.10737698833333376,
          "durationTicks": 131,
          "midi": 67,
          "name": "G4",
          "ticks": 19500,
          "time": 15.9835975,
          "velocity": 0.7952755905511811
        },
        {
          "duration": 0.10737698833333198,
          "durationTicks": 131,
          "midi": 63,
          "name": "D#4",
          "ticks": 19650,
          "time": 16.10654825,
          "velocity": 0.7952755905511811
        },
        {
          "duration": 0.10737698833333198,
          "durationTicks": 131,
          "midi": 60,
          "name": "C4",
          "ticks": 19800,
          "time": 16.229499,
          "velocity": 0.7952755905511811
        },
        {
          "duration": 0.10737698833333553,
          "durationTicks": 131,
          "midi": 63,
          "name": "D#4",
          "ticks": 19950,
          "time": 16.352449749999998,
          "velocity": 0.7952755905511811
        },
        {
          "duration": 0.10737698833333553,
          "durationTicks": 131,
          "midi": 67,
          "name": "G4",
          "ticks": 20100,
          "time": 16.4754005,
          "velocity": 0.7952755905511811
        },
        {
          "duration": 0.10737698833333198,
          "durationTicks": 131,
          "midi": 63,
          "name": "D#4",
          "ticks": 20250,
          "time": 16.59835125,
          "velocity": 0.8031496062992126
        },
        {
          "duration": 0.10737698833333198,
          "durationTicks": 131,
          "midi": 60,
          "name": "C4",
          "ticks": 20400,
          "time": 16.721302,
          "velocity": 0.8031496062992126
        },
        {
          "duration": 0.10737698833333553,
          "durationTicks": 131,
          "midi": 63,
          "name": "D#4",
          "ticks": 20550,
          "time": 16.84425275,
          "velocity": 0.8031496062992126
        },
        {
          "duration": 0.10737698833333198,
          "durationTicks": 131,
          "midi": 67,
          "name": "G4",
          "ticks": 20700,
          "time": 16.9672035,
          "velocity": 0.8031496062992126
        },
        {
          "duration": 0.10737698833333198,
          "durationTicks": 131,
          "midi": 63,
          "name": "D#4",
          "ticks": 20850,
          "time": 17.09015425,
          "velocity": 0.8031496062992126
        },
        {
          "duration": 0.10737698833333553,
          "durationTicks": 131,
          "midi": 60,
          "name": "C4",
          "ticks": 21000,
          "time": 17.213105,
          "velocity": 0.8031496062992126
        },
        {
          "duration": 0.10737698833333198,
          "durationTicks": 131,
          "midi": 63,
          "name": "D#4",
          "ticks": 21150,
          "time": 17.33605575,
          "velocity": 0.8031496062992126
        },
        {
          "duration": 0.10737698833333198,
          "durationTicks": 131,
          "midi": 67,
          "name": "G4",
          "ticks": 21300,
          "time": 17.4590065,
          "velocity": 0.8031496062992126
        },
        {
          "duration": 0.10737698833333553,
          "durationTicks": 131,
          "midi": 63,
          "name": "D#4",
          "ticks": 21450,
          "time": 17.58195725,
          "velocity": 0.8031496062992126
        },
        {
          "duration": 0.10737698833333198,
          "durationTicks": 131,
          "midi": 60,
          "name": "C4",
          "ticks": 21600,
          "time": 17.704908,
          "velocity": 0.8031496062992126
        },
        {
          "duration": 0.10737698833333198,
          "durationTicks": 131,
          "midi": 63,
          "name": "D#4",
          "ticks": 21750,
          "time": 17.82785875,
          "velocity": 0.8031496062992126
        },
        {
          "duration": 0.10737698833333553,
          "durationTicks": 131,
          "midi": 67,
          "name": "G4",
          "ticks": 21900,
          "time": 17.9508095,
          "velocity": 0.8031496062992126
        },
        {
          "duration": 0.10737698833333198,
          "durationTicks": 131,
          "midi": 63,
          "name": "D#4",
          "ticks": 22050,
          "time": 18.07376025,
          "velocity": 0.8031496062992126
        },
        {
          "duration": 0.10737698833333198,
          "durationTicks": 131,
          "midi": 60,
          "name": "C4",
          "ticks": 22200,
          "time": 18.196711,
          "velocity": 0.8031496062992126
        },
        {
          "duration": 0.10737698833333553,
          "durationTicks": 131,
          "midi": 63,
          "name": "D#4",
          "ticks": 22350,
          "time": 18.319661749999998,
          "velocity": 0.8031496062992126
        },
        {
          "duration": 0.10737698833333553,
          "durationTicks": 131,
          "midi": 67,
          "name": "G4",
          "ticks": 22500,
          "time": 18.4426125,
          "velocity": 0.8110236220472441
        },
        {
          "duration": 0.10737698833333198,
          "durationTicks": 131,
          "midi": 63,
          "name": "D#4",
          "ticks": 22650,
          "time": 18.56556325,
          "velocity": 0.8110236220472441
        },
        {
          "duration": 0.10737698833333553,
          "durationTicks": 131,
          "midi": 60,
          "name": "C4",
          "ticks": 22800,
          "time": 18.688513999999998,
          "velocity": 0.8110236220472441
        },
        {
          "duration": 0.10737698833333553,
          "durationTicks": 131,
          "midi": 63,
          "name": "D#4",
          "ticks": 22950,
          "time": 18.81146475,
          "velocity": 0.8110236220472441
        },
        {
          "duration": 0.10737698833333198,
          "durationTicks": 131,
          "midi": 67,
          "name": "G4",
          "ticks": 23100,
          "time": 18.9344155,
          "velocity": 0.8110236220472441
        },
        {
          "duration": 0.10737698833333198,
          "durationTicks": 131,
          "midi": 63,
          "name": "D#4",
          "ticks": 23250,
          "time": 19.05736625,
          "velocity": 0.8110236220472441
        },
        {
          "duration": 0.10737698833333553,
          "durationTicks": 131,
          "midi": 60,
          "name": "C4",
          "ticks": 23400,
          "time": 19.180317,
          "velocity": 0.8110236220472441
        },
        {
          "duration": 0.10737698833333198,
          "durationTicks": 131,
          "midi": 63,
          "name": "D#4",
          "ticks": 23550,
          "time": 19.30326775,
          "velocity": 0.8110236220472441
        },
        {
          "duration": 0.10737698833333198,
          "durationTicks": 131,
          "midi": 67,
          "name": "G4",
          "ticks": 23700,
          "time": 19.4262185,
          "velocity": 0.8110236220472441
        },
        {
          "duration": 0.10737698833333553,
          "durationTicks": 131,
          "midi": 63,
          "name": "D#4",
          "ticks": 23850,
          "time": 19.54916925,
          "velocity": 0.8110236220472441
        },
        {
          "duration": 0.10737698833333198,
          "durationTicks": 131,
          "midi": 56,
          "name": "G#3",
          "ticks": 24000,
          "time": 19.67212,
          "velocity": 0.8110236220472441
        },
        {
          "duration": 0.10737698833333198,
          "durationTicks": 131,
          "midi": 63,
          "name": "D#4",
          "ticks": 24150,
          "time": 19.79507075,
          "velocity": 0.8110236220472441
        },
        {
          "duration": 0.10737698833333553,
          "durationTicks": 131,
          "midi": 67,
          "name": "G4",
          "ticks": 24300,
          "time": 19.9180215,
          "velocity": 0.8110236220472441
        },
        {
          "duration": 0.10737698833333198,
          "durationTicks": 131,
          "midi": 63,
          "name": "D#4",
          "ticks": 24450,
          "time": 20.04097225,
          "velocity": 0.8110236220472441
        },
        {
          "duration": 0.10737698833333198,
          "durationTicks": 131,
          "midi": 56,
          "name": "G#3",
          "ticks": 24600,
          "time": 20.163923,
          "velocity": 0.8110236220472441
        },
        {
          "duration": 0.10737698833333553,
          "durationTicks": 131,
          "midi": 63,
          "name": "D#4",
          "ticks": 24750,
          "time": 20.286873749999998,
          "velocity": 0.8188976377952756
        },
        {
          "duration": 0.10737698833333553,
          "durationTicks": 131,
          "midi": 67,
          "name": "G4",
          "ticks": 24900,
          "time": 20.4098245,
          "velocity": 0.8188976377952756
        },
        {
          "duration": 0.10737698833333198,
          "durationTicks": 131,
          "midi": 63,
          "name": "D#4",
          "ticks": 25050,
          "time": 20.53277525,
          "velocity": 0.8188976377952756
        },
        {
          "duration": 0.10737698833333198,
          "durationTicks": 131,
          "midi": 56,
          "name": "G#3",
          "ticks": 25200,
          "time": 20.655726,
          "velocity": 0.8188976377952756
        },
        {
          "duration": 0.10737698833333553,
          "durationTicks": 131,
          "midi": 63,
          "name": "D#4",
          "ticks": 25350,
          "time": 20.77867675,
          "velocity": 0.8188976377952756
        },
        {
          "duration": 0.10737698833333198,
          "durationTicks": 131,
          "midi": 67,
          "name": "G4",
          "ticks": 25500,
          "time": 20.9016275,
          "velocity": 0.8188976377952756
        },
        {
          "duration": 0.10737698833333198,
          "durationTicks": 131,
          "midi": 63,
          "name": "D#4",
          "ticks": 25650,
          "time": 21.02457825,
          "velocity": 0.8188976377952756
        },
        {
          "duration": 0.10737698833333553,
          "durationTicks": 131,
          "midi": 56,
          "name": "G#3",
          "ticks": 25800,
          "time": 21.147529,
          "velocity": 0.8188976377952756
        },
        {
          "duration": 0.10737698833333198,
          "durationTicks": 131,
          "midi": 63,
          "name": "D#4",
          "ticks": 25950,
          "time": 21.27047975,
          "velocity": 0.8188976377952756
        },
        {
          "duration": 0.10737698833333198,
          "durationTicks": 131,
          "midi": 67,
          "name": "G4",
          "ticks": 26100,
          "time": 21.3934305,
          "velocity": 0.8188976377952756
        },
        {
          "duration": 0.10737698833333553,
          "durationTicks": 131,
          "midi": 63,
          "name": "D#4",
          "ticks": 26250,
          "time": 21.51638125,
          "velocity": 0.8188976377952756
        },
        {
          "duration": 0.10737698833333198,
          "durationTicks": 131,
          "midi": 58,
          "name": "A#3",
          "ticks": 26400,
          "time": 21.639332,
          "velocity": 0.8188976377952756
        },
        {
          "duration": 0.10737698833333198,
          "durationTicks": 131,
          "midi": 63,
          "name": "D#4",
          "ticks": 26550,
          "time": 21.76228275,
          "velocity": 0.8188976377952756
        },
        {
          "duration": 0.10737698833333553,
          "durationTicks": 131,
          "midi": 67,
          "name": "G4",
          "ticks": 26700,
          "time": 21.8852335,
          "velocity": 0.8188976377952756
        },
        {
          "duration": 0.10737698833333198,
          "durationTicks": 131,
          "midi": 63,
          "name": "D#4",
          "ticks": 26850,
          "time": 22.00818425,
          "velocity": 0.8188976377952756
        },
        {
          "duration": 0.10737698833333198,
          "durationTicks": 131,
          "midi": 58,
          "name": "A#3",
          "ticks": 27000,
          "time": 22.131135,
          "velocity": 0.8267716535433071
        },
        {
          "duration": 0.10737698833333553,
          "durationTicks": 131,
          "midi": 63,
          "name": "D#4",
          "ticks": 27150,
          "time": 22.254085749999998,
          "velocity": 0.8267716535433071
        },
        {
          "duration": 0.10737698833333553,
          "durationTicks": 131,
          "midi": 67,
          "name": "G4",
          "ticks": 27300,
          "time": 22.3770365,
          "velocity": 0.8267716535433071
        },
        {
          "duration": 0.10737698833333198,
          "durationTicks": 131,
          "midi": 63,
          "name": "D#4",
          "ticks": 27450,
          "time": 22.49998725,
          "velocity": 0.8267716535433071
        },
        {
          "duration": 0.10737698833333553,
          "durationTicks": 131,
          "midi": 59,
          "name": "B3",
          "ticks": 27600,
          "time": 22.622937999999998,
          "velocity": 0.8267716535433071
        },
        {
          "duration": 0.10737698833333553,
          "durationTicks": 131,
          "midi": 63,
          "name": "D#4",
          "ticks": 27750,
          "time": 22.74588875,
          "velocity": 0.8267716535433071
        },
        {
          "duration": 0.10737698833333198,
          "durationTicks": 131,
          "midi": 67,
          "name": "G4",
          "ticks": 27900,
          "time": 22.8688395,
          "velocity": 0.8267716535433071
        },
        {
          "duration": 0.10737698833333198,
          "durationTicks": 131,
          "midi": 63,
          "name": "D#4",
          "ticks": 28050,
          "time": 22.99179025,
          "velocity": 0.8267716535433071
        },
        {
          "duration": 0.10737698833333553,
          "durationTicks": 131,
          "midi": 59,
          "name": "B3",
          "ticks": 28200,
          "time": 23.114741,
          "velocity": 0.8267716535433071
        },
        {
          "duration": 0.10737698833333198,
          "durationTicks": 131,
          "midi": 63,
          "name": "D#4",
          "ticks": 28350,
          "time": 23.23769175,
          "velocity": 0.8267716535433071
        },
        {
          "duration": 0.10737698833333198,
          "durationTicks": 131,
          "midi": 67,
          "name": "G4",
          "ticks": 28500,
          "time": 23.3606425,
          "velocity": 0.8267716535433071
        },
        {
          "duration": 0.10737698833333553,
          "durationTicks": 131,
          "midi": 63,
          "name": "D#4",
          "ticks": 28650,
          "time": 23.48359325,
          "velocity": 0.8267716535433071
        },
        {
          "duration": 0.10737698833333198,
          "durationTicks": 131,
          "midi": 60,
          "name": "C4",
          "ticks": 28800,
          "time": 23.606544,
          "velocity": 0.7952755905511811
        },
        {
          "duration": 0.10737698833333198,
          "durationTicks": 131,
          "midi": 63,
          "name": "D#4",
          "ticks": 28950,
          "time": 23.72949475,
          "velocity": 0.7952755905511811
        },
        {
          "duration": 0.10737698833333553,
          "durationTicks": 131,
          "midi": 67,
          "name": "G4",
          "ticks": 29100,
          "time": 23.852445499999998,
          "velocity": 0.7952755905511811
        },
        {
          "duration": 0.10737698833333198,
          "durationTicks": 131,
          "midi": 63,
          "name": "D#4",
          "ticks": 29250,
          "time": 23.97539625,
          "velocity": 0.7952755905511811
        },
        {
          "duration": 0.10737698833333198,
          "durationTicks": 131,
          "midi": 60,
          "name": "C4",
          "ticks": 29400,
          "time": 24.098347,
          "velocity": 0.7952755905511811
        },
        {
          "duration": 0.10737698833333553,
          "durationTicks": 131,
          "midi": 63,
          "name": "D#4",
          "ticks": 29550,
          "time": 24.221297749999998,
          "velocity": 0.7952755905511811
        },
        {
          "duration": 0.10737698833333553,
          "durationTicks": 131,
          "midi": 67,
          "name": "G4",
          "ticks": 29700,
          "time": 24.3442485,
          "velocity": 0.7952755905511811
        },
        {
          "duration": 0.10737698833333198,
          "durationTicks": 131,
          "midi": 63,
          "name": "D#4",
          "ticks": 29850,
          "time": 24.46719925,
          "velocity": 0.8031496062992126
        },
        {
          "duration": 0.10737698833333198,
          "durationTicks": 131,
          "midi": 60,
          "name": "C4",
          "ticks": 30000,
          "time": 24.59015,
          "velocity": 0.8031496062992126
        },
        {
          "duration": 0.10737698833333553,
          "durationTicks": 131,
          "midi": 63,
          "name": "D#4",
          "ticks": 30150,
          "time": 24.71310075,
          "velocity": 0.8031496062992126
        },
        {
          "duration": 0.10737698833333198,
          "durationTicks": 131,
          "midi": 67,
          "name": "G4",
          "ticks": 30300,
          "time": 24.8360515,
          "velocity": 0.8031496062992126
        },
        {
          "duration": 0.10737698833333198,
          "durationTicks": 131,
          "midi": 63,
          "name": "D#4",
          "ticks": 30450,
          "time": 24.95900225,
          "velocity": 0.8031496062992126
        },
        {
          "duration": 0.10737698833333553,
          "durationTicks": 131,
          "midi": 60,
          "name": "C4",
          "ticks": 30600,
          "time": 25.081953,
          "velocity": 0.8031496062992126
        },
        {
          "duration": 0.10737698833333198,
          "durationTicks": 131,
          "midi": 63,
          "name": "D#4",
          "ticks": 30750,
          "time": 25.20490375,
          "velocity": 0.8031496062992126
        },
        {
          "duration": 0.10737698833333198,
          "durationTicks": 131,
          "midi": 67,
          "name": "G4",
          "ticks": 30900,
          "time": 25.3278545,
          "velocity": 0.8031496062992126
        },
        {
          "duration": 0.10737698833333553,
          "durationTicks": 131,
          "midi": 63,
          "name": "D#4",
          "ticks": 31050,
          "time": 25.45080525,
          "velocity": 0.8031496062992126
        },
        {
          "duration": 0.10737698833333198,
          "durationTicks": 131,
          "midi": 60,
          "name": "C4",
          "ticks": 31200,
          "time": 25.573756,
          "velocity": 0.8031496062992126
        },
        {
          "duration": 0.10737698833333198,
          "durationTicks": 131,
          "midi": 63,
          "name": "D#4",
          "ticks": 31350,
          "time": 25.69670675,
          "velocity": 0.8031496062992126
        },
        {
          "duration": 0.10737698833333553,
          "durationTicks": 131,
          "midi": 67,
          "name": "G4",
          "ticks": 31500,
          "time": 25.819657499999998,
          "velocity": 0.8031496062992126
        },
        {
          "duration": 0.10737698833333198,
          "durationTicks": 131,
          "midi": 63,
          "name": "D#4",
          "ticks": 31650,
          "time": 25.94260825,
          "velocity": 0.8031496062992126
        },
        {
          "duration": 0.10737698833333198,
          "durationTicks": 131,
          "midi": 60,
          "name": "C4",
          "ticks": 31800,
          "time": 26.065559,
          "velocity": 0.8031496062992126
        },
        {
          "duration": 0.10737698833333553,
          "durationTicks": 131,
          "midi": 63,
          "name": "D#4",
          "ticks": 31950,
          "time": 26.188509749999998,
          "velocity": 0.8031496062992126
        },
        {
          "duration": 0.10737698833333553,
          "durationTicks": 131,
          "midi": 67,
          "name": "G4",
          "ticks": 32100,
          "time": 26.3114605,
          "velocity": 0.8110236220472441
        },
        {
          "duration": 0.10737698833333198,
          "durationTicks": 131,
          "midi": 63,
          "name": "D#4",
          "ticks": 32250,
          "time": 26.43441125,
          "velocity": 0.8110236220472441
        },
        {
          "duration": 0.10737698833333553,
          "durationTicks": 131,
          "midi": 60,
          "name": "C4",
          "ticks": 32400,
          "time": 26.557361999999998,
          "velocity": 0.8110236220472441
        },
        {
          "duration": 0.10737698833333553,
          "durationTicks": 131,
          "midi": 63,
          "name": "D#4",
          "ticks": 32550,
          "time": 26.68031275,
          "velocity": 0.8110236220472441
        },
        {
          "duration": 0.10737698833333198,
          "durationTicks": 131,
          "midi": 67,
          "name": "G4",
          "ticks": 32700,
          "time": 26.8032635,
          "velocity": 0.8110236220472441
        },
        {
          "duration": 0.10737698833333198,
          "durationTicks": 131,
          "midi": 63,
          "name": "D#4",
          "ticks": 32850,
          "time": 26.92621425,
          "velocity": 0.8110236220472441
        },
        {
          "duration": 0.10737698833333553,
          "durationTicks": 131,
          "midi": 60,
          "name": "C4",
          "ticks": 33000,
          "time": 27.049165,
          "velocity": 0.8110236220472441
        },
        {
          "duration": 0.10737698833333198,
          "durationTicks": 131,
          "midi": 63,
          "name": "D#4",
          "ticks": 33150,
          "time": 27.17211575,
          "velocity": 0.8110236220472441
        },
        {
          "duration": 0.10737698833333198,
          "durationTicks": 131,
          "midi": 67,
          "name": "G4",
          "ticks": 33300,
          "time": 27.2950665,
          "velocity": 0.8110236220472441
        },
        {
          "duration": 0.10737698833333553,
          "durationTicks": 131,
          "midi": 63,
          "name": "D#4",
          "ticks": 33450,
          "time": 27.41801725,
          "velocity": 0.8110236220472441
        },
        {
          "duration": 0.10737698833333198,
          "durationTicks": 131,
          "midi": 56,
          "name": "G#3",
          "ticks": 33600,
          "time": 27.540968,
          "velocity": 0.8110236220472441
        },
        {
          "duration": 0.10737698833333198,
          "durationTicks": 131,
          "midi": 63,
          "name": "D#4",
          "ticks": 33750,
          "time": 27.66391875,
          "velocity": 0.8110236220472441
        },
        {
          "duration": 0.10737698833333553,
          "durationTicks": 131,
          "midi": 67,
          "name": "G4",
          "ticks": 33900,
          "time": 27.786869499999998,
          "velocity": 0.8110236220472441
        },
        {
          "duration": 0.10737698833333198,
          "durationTicks": 131,
          "midi": 63,
          "name": "D#4",
          "ticks": 34050,
          "time": 27.90982025,
          "velocity": 0.8110236220472441
        },
        {
          "duration": 0.10737698833333198,
          "durationTicks": 131,
          "midi": 56,
          "name": "G#3",
          "ticks": 34200,
          "time": 28.032771,
          "velocity": 0.8110236220472441
        },
        {
          "duration": 0.10737698833333553,
          "durationTicks": 131,
          "midi": 63,
          "name": "D#4",
          "ticks": 34350,
          "time": 28.155721749999998,
          "velocity": 0.8188976377952756
        },
        {
          "duration": 0.10737698833333553,
          "durationTicks": 131,
          "midi": 67,
          "name": "G4",
          "ticks": 34500,
          "time": 28.2786725,
          "velocity": 0.8188976377952756
        },
        {
          "duration": 0.10737698833333198,
          "durationTicks": 131,
          "midi": 63,
          "name": "D#4",
          "ticks": 34650,
          "time": 28.40162325,
          "velocity": 0.8188976377952756
        },
        {
          "duration": 0.10737698833333198,
          "durationTicks": 131,
          "midi": 56,
          "name": "G#3",
          "ticks": 34800,
          "time": 28.524574,
          "velocity": 0.8188976377952756
        },
        {
          "duration": 0.10737698833333553,
          "durationTicks": 131,
          "midi": 63,
          "name": "D#4",
          "ticks": 34950,
          "time": 28.64752475,
          "velocity": 0.8188976377952756
        },
        {
          "duration": 0.10737698833333198,
          "durationTicks": 131,
          "midi": 67,
          "name": "G4",
          "ticks": 35100,
          "time": 28.7704755,
          "velocity": 0.8188976377952756
        },
        {
          "duration": 0.10737698833333198,
          "durationTicks": 131,
          "midi": 63,
          "name": "D#4",
          "ticks": 35250,
          "time": 28.89342625,
          "velocity": 0.8188976377952756
        },
        {
          "duration": 0.10737698833333553,
          "durationTicks": 131,
          "midi": 56,
          "name": "G#3",
          "ticks": 35400,
          "time": 29.016377,
          "velocity": 0.8188976377952756
        },
        {
          "duration": 0.10737698833333198,
          "durationTicks": 131,
          "midi": 63,
          "name": "D#4",
          "ticks": 35550,
          "time": 29.13932775,
          "velocity": 0.8188976377952756
        },
        {
          "duration": 0.10737698833333198,
          "durationTicks": 131,
          "midi": 67,
          "name": "G4",
          "ticks": 35700,
          "time": 29.2622785,
          "velocity": 0.8188976377952756
        },
        {
          "duration": 0.10737698833333553,
          "durationTicks": 131,
          "midi": 63,
          "name": "D#4",
          "ticks": 35850,
          "time": 29.38522925,
          "velocity": 0.8188976377952756
        }
      ]
    },
    {
      "channel": 0,
      "controlChanges": {
        "6": [
          {
            "number": 6,
            "ticks": 0,
            "time": 0,
            "value": 0.09448818897637795
          }
        ],
        "7": [
          {
            "number": 7,
            "ticks": 0,
            "time": 0,
            "value": 1
          },
          {
            "number": 7,
            "ticks": 0,
            "time": 0,
            "value": 1
          }
        ],
        "10": [
          {
            "number": 10,
            "ticks": 0,
            "time": 0,
            "value": 0.5039370078740157
          },
          {
            "number": 10,
            "ticks": 0,
            "time": 0,
            "value": 0.5039370078740157
          }
        ],
        "100": [
          {
            "number": 100,
            "ticks": 0,
            "time": 0,
            "value": 0
          }
        ],
        "101": [
          {
            "number": 101,
            "ticks": 0,
            "time": 0,
            "value": 0
          }
        ]
      },
      "pitchBends": [
        {
          "ticks": 0,
          "time": 0,
          "value": 0
        },
        {
          "ticks": 0,
          "time": 0,
          "value": 0
        }
      ],
      "instrument": {
        "family": "piano",
        "number": 0,
        "name": "acoustic grand piano"
      },
      "name": "AtomPro",
      "notes": [],
      "endOfTrackTicks": 38400
    },
    {
      "channel": 3,
      "controlChanges": {
        "6": [
          {
            "number": 6,
            "ticks": 38400,
            "time": 31.475392,
            "value": 0.09448818897637795
          },
          {
            "number": 6,
            "ticks": 38400,
            "time": 31.475392,
            "value": 0.09448818897637795
          }
        ],
        "7": [
          {
            "number": 7,
            "ticks": 38400,
            "time": 31.475392,
            "value": 1
          },
          {
            "number": 7,
            "ticks": 38400,
            "time": 31.475392,
            "value": 1
          }
        ],
        "10": [
          {
            "number": 10,
            "ticks": 38400,
            "time": 31.475392,
            "value": 0.5039370078740157
          },
          {
            "number": 10,
            "ticks": 38400,
            "time": 31.475392,
            "value": 0.5039370078740157
          }
        ],
        "100": [
          {
            "number": 100,
            "ticks": 38400,
            "time": 31.475392,
            "value": 0
          },
          {
            "number": 100,
            "ticks": 38400,
            "time": 31.475392,
            "value": 0
          }
        ],
        "101": [
          {
            "number": 101,
            "ticks": 38400,
            "time": 31.475392,
            "value": 0
          },
          {
            "number": 101,
            "ticks": 38400,
            "time": 31.475392,
            "value": 0
          }
        ]
      },
      "pitchBends": [
        {
          "ticks": 0,
          "time": 0,
          "value": 0
        },
        {
          "ticks": 38400,
          "time": 31.475392,
          "value": 0
        },
        {
          "ticks": 38400,
          "time": 31.475392,
          "value": 0
        }
      ],
      "instrument": {
        "family": "chromatic percussion",
        "number": 10,
        "name": "music box"
      },
      "name": "",
      "notes": [
        {
          "duration": 0.47131120833333334,
          "durationTicks": 575,
          "midi": 60,
          "name": "C4",
          "ticks": 0,
          "time": 0,
          "velocity": 0.8503937007874016
        },
        {
          "duration": 0.24590149999999866,
          "durationTicks": 300,
          "midi": 60,
          "name": "C4",
          "ticks": 28800,
          "time": 23.606544,
          "velocity": 0.8188976377952756
        },
        {
          "duration": 0.24590150000000222,
          "durationTicks": 300,
          "midi": 67,
          "name": "G4",
          "ticks": 29100,
          "time": 23.852445499999998,
          "velocity": 0.8188976377952756
        },
        {
          "duration": 0.4918030000000009,
          "durationTicks": 600,
          "midi": 65,
          "name": "F4",
          "ticks": 29400,
          "time": 24.098347,
          "velocity": 0.8188976377952756
        },
        {
          "duration": 0.24590149999999866,
          "durationTicks": 300,
          "midi": 60,
          "name": "C4",
          "ticks": 30000,
          "time": 24.59015,
          "velocity": 0.8188976377952756
        },
        {
          "duration": 0.24590149999999866,
          "durationTicks": 300,
          "midi": 67,
          "name": "G4",
          "ticks": 30300,
          "time": 24.8360515,
          "velocity": 0.8188976377952756
        },
        {
          "duration": 0.4918030000000009,
          "durationTicks": 600,
          "midi": 65,
          "name": "F4",
          "ticks": 30600,
          "time": 25.081953,
          "velocity": 0.8188976377952756
        },
        {
          "duration": 0.24590149999999866,
          "durationTicks": 300,
          "midi": 60,
          "name": "C4",
          "ticks": 31200,
          "time": 25.573756,
          "velocity": 0.8188976377952756
        },
        {
          "duration": 0.24590150000000222,
          "durationTicks": 300,
          "midi": 67,
          "name": "G4",
          "ticks": 31500,
          "time": 25.819657499999998,
          "velocity": 0.8267716535433071
        },
        {
          "duration": 0.24590149999999866,
          "durationTicks": 300,
          "midi": 65,
          "name": "F4",
          "ticks": 31800,
          "time": 26.065559,
          "velocity": 0.8267716535433071
        },
        {
          "duration": 0.24590149999999866,
          "durationTicks": 300,
          "midi": 63,
          "name": "D#4",
          "ticks": 32100,
          "time": 26.3114605,
          "velocity": 0.8267716535433071
        },
        {
          "duration": 0.24590150000000222,
          "durationTicks": 300,
          "midi": 60,
          "name": "C4",
          "ticks": 32400,
          "time": 26.557361999999998,
          "velocity": 0.8267716535433071
        },
        {
          "duration": 0.24590149999999866,
          "durationTicks": 300,
          "midi": 67,
          "name": "G4",
          "ticks": 32700,
          "time": 26.8032635,
          "velocity": 0.8267716535433071
        },
        {
          "duration": 0.24590150000000222,
          "durationTicks": 300,
          "midi": 65,
          "name": "F4",
          "ticks": 33000,
          "time": 27.049165,
          "velocity": 0.8267716535433071
        },
        {
          "duration": 0.12295074999999756,
          "durationTicks": 150,
          "midi": 62,
          "name": "D4",
          "ticks": 33300,
          "time": 27.2950665,
          "velocity": 0.8267716535433071
        },
        {
          "duration": 0.12295075000000111,
          "durationTicks": 150,
          "midi": 62,
          "name": "D4",
          "ticks": 33450,
          "time": 27.41801725,
          "velocity": 0.8267716535433071
        },
        {
          "duration": 0.24590149999999866,
          "durationTicks": 300,
          "midi": 63,
          "name": "D#4",
          "ticks": 33600,
          "time": 27.540968,
          "velocity": 0.8267716535433071
        },
        {
          "duration": 0.24590150000000222,
          "durationTicks": 300,
          "midi": 60,
          "name": "C4",
          "ticks": 33900,
          "time": 27.786869499999998,
          "velocity": 0.8267716535433071
        },
        {
          "duration": 0.24590149999999866,
          "durationTicks": 300,
          "midi": 60,
          "name": "C4",
          "ticks": 34200,
          "time": 28.032771,
          "velocity": 0.8267716535433071
        },
        {
          "duration": 0.24590150000000222,
          "durationTicks": 300,
          "midi": 60,
          "name": "C4",
          "ticks": 34500,
          "time": 28.2786725,
          "velocity": 0.8267716535433071
        },
        {
          "duration": 0.24590149999999866,
          "durationTicks": 300,
          "midi": 63,
          "name": "D#4",
          "ticks": 34800,
          "time": 28.524574,
          "velocity": 0.8267716535433071
        },
        {
          "duration": 0.24590149999999866,
          "durationTicks": 300,
          "midi": 60,
          "name": "C4",
          "ticks": 35100,
          "time": 28.7704755,
          "velocity": 0.8346456692913385
        },
        {
          "duration": 0.24590150000000222,
          "durationTicks": 300,
          "midi": 60,
          "name": "C4",
          "ticks": 35400,
          "time": 29.016377,
          "velocity": 0.8346456692913385
        },
        {
          "duration": 0.24590149999999866,
          "durationTicks": 300,
          "midi": 60,
          "name": "C4",
          "ticks": 35700,
          "time": 29.2622785,
          "velocity": 0.8346456692913385
        },
        {
          "duration": 0.24590149999999866,
          "durationTicks": 300,
          "midi": 65,
          "name": "F4",
          "ticks": 36000,
          "time": 29.50818,
          "velocity": 0.8346456692913385
        },
        {
          "duration": 0.24590150000000222,
          "durationTicks": 300,
          "midi": 63,
          "name": "D#4",
          "ticks": 36300,
          "time": 29.754081499999998,
          "velocity": 0.8346456692913385
        },
        {
          "duration": 0.24590149999999866,
          "durationTicks": 300,
          "midi": 62,
          "name": "D4",
          "ticks": 36600,
          "time": 29.999983,
          "velocity": 0.8346456692913385
        },
        {
          "duration": 0.24590149999999866,
          "durationTicks": 300,
          "midi": 63,
          "name": "D#4",
          "ticks": 36900,
          "time": 30.2458845,
          "velocity": 0.8346456692913385
        },
        {
          "duration": 0.24590150000000222,
          "durationTicks": 300,
          "midi": 62,
          "name": "D4",
          "ticks": 37200,
          "time": 30.491785999999998,
          "velocity": 0.8346456692913385
        },
        {
          "duration": 0.24590149999999866,
          "durationTicks": 300,
          "midi": 60,
          "name": "C4",
          "ticks": 37500,
          "time": 30.7376875,
          "velocity": 0.8346456692913385
        },
        {
          "duration": 0.24590150000000222,
          "durationTicks": 300,
          "midi": 60,
          "name": "C4",
          "ticks": 37800,
          "time": 30.983589,
          "velocity": 0.8346456692913385
        },
        {
          "duration": 0.24098346999999976,
          "durationTicks": 294,
          "midi": 59,
          "name": "B3",
          "ticks": 38100,
          "time": 31.2294905,
          "velocity": 0.8346456692913385
        }
      ]
    },
    {
      "channel": 0,
      "controlChanges": {
        "6": [
          {
            "number": 6,
            "ticks": 0,
            "time": 0,
            "value": 0.09448818897637795
          }
        ],
        "7": [
          {
            "number": 7,
            "ticks": 0,
            "time": 0,
            "value": 0.7874015748031497
          },
          {
            "number": 7,
            "ticks": 0,
            "time": 0,
            "value": 0.7874015748031497
          }
        ],
        "10": [
          {
            "number": 10,
            "ticks": 0,
            "time": 0,
            "value": 0.5039370078740157
          },
          {
            "number": 10,
            "ticks": 0,
            "time": 0,
            "value": 0.5039370078740157
          }
        ],
        "100": [
          {
            "number": 100,
            "ticks": 0,
            "time": 0,
            "value": 0
          }
        ],
        "101": [
          {
            "number": 101,
            "ticks": 0,
            "time": 0,
            "value": 0
          }
        ]
      },
      "pitchBends": [
        {
          "ticks": 0,
          "time": 0,
          "value": 0
        },
        {
          "ticks": 0,
          "time": 0,
          "value": 0
        }
      ],
      "instrument": {
        "family": "piano",
        "number": 0,
        "name": "acoustic grand piano"
      },
      "name": "AtomPro",
      "notes": [],
      "endOfTrackTicks": 38400
    },
    {
      "channel": 4,
      "controlChanges": {
        "6": [
          {
            "number": 6,
            "ticks": 38400,
            "time": 31.475392,
            "value": 0.09448818897637795
          },
          {
            "number": 6,
            "ticks": 38400,
            "time": 31.475392,
            "value": 0.09448818897637795
          }
        ],
        "7": [
          {
            "number": 7,
            "ticks": 38400,
            "time": 31.475392,
            "value": 0.7874015748031497
          },
          {
            "number": 7,
            "ticks": 38400,
            "time": 31.475392,
            "value": 0.7874015748031497
          }
        ],
        "10": [
          {
            "number": 10,
            "ticks": 38400,
            "time": 31.475392,
            "value": 0.5039370078740157
          },
          {
            "number": 10,
            "ticks": 38400,
            "time": 31.475392,
            "value": 0.5039370078740157
          }
        ],
        "100": [
          {
            "number": 100,
            "ticks": 38400,
            "time": 31.475392,
            "value": 0
          },
          {
            "number": 100,
            "ticks": 38400,
            "time": 31.475392,
            "value": 0
          }
        ],
        "101": [
          {
            "number": 101,
            "ticks": 38400,
            "time": 31.475392,
            "value": 0
          },
          {
            "number": 101,
            "ticks": 38400,
            "time": 31.475392,
            "value": 0
          }
        ]
      },
      "pitchBends": [
        {
          "ticks": 0,
          "time": 0,
          "value": 0
        },
        {
          "ticks": 38400,
          "time": 31.475392,
          "value": 0
        },
        {
          "ticks": 38400,
          "time": 31.475392,
          "value": 0
        }
      ],
      "instrument": {
        "family": "ensemble",
        "number": 48,
        "name": "string ensemble 1"
      },
      "name": "",
      "notes": [
        {
          "duration": 1.9516382383333344,
          "durationTicks": 2381,
          "midi": 36,
          "name": "C2",
          "ticks": 28800,
          "time": 23.606544,
          "velocity": 0.7165354330708661
        },
        {
          "duration": 1.9516382383333344,
          "durationTicks": 2381,
          "midi": 48,
          "name": "C3",
          "ticks": 28800,
          "time": 23.606544,
          "velocity": 0.7165354330708661
        },
        {
          "duration": 1.9516382383333344,
          "durationTicks": 2381,
          "midi": 36,
          "name": "C2",
          "ticks": 31200,
          "time": 25.573756,
          "velocity": 0.7165354330708661
        },
        {
          "duration": 1.9516382383333344,
          "durationTicks": 2381,
          "midi": 48,
          "name": "C3",
          "ticks": 31200,
          "time": 25.573756,
          "velocity": 0.7165354330708661
        },
        {
          "duration": 1.9516382383333344,
          "durationTicks": 2381,
          "midi": 32,
          "name": "G#1",
          "ticks": 33600,
          "time": 27.540968,
          "velocity": 0.7244094488188977
        },
        {
          "duration": 1.9516382383333344,
          "durationTicks": 2381,
          "midi": 44,
          "name": "G#2",
          "ticks": 33600,
          "time": 27.540968,
          "velocity": 0.7244094488188977
        }
      ]
    },
    {
      "channel": 0,
      "controlChanges": {
        "6": [
          {
            "number": 6,
            "ticks": 0,
            "time": 0,
            "value": 0.09448818897637795
          }
        ],
        "7": [
          {
            "number": 7,
            "ticks": 0,
            "time": 0,
            "value": 0.7874015748031497
          },
          {
            "number": 7,
            "ticks": 0,
            "time": 0,
            "value": 0.7874015748031497
          }
        ],
        "10": [
          {
            "number": 10,
            "ticks": 0,
            "time": 0,
            "value": 0.5039370078740157
          },
          {
            "number": 10,
            "ticks": 0,
            "time": 0,
            "value": 0.5039370078740157
          }
        ],
        "100": [
          {
            "number": 100,
            "ticks": 0,
            "time": 0,
            "value": 0
          }
        ],
        "101": [
          {
            "number": 101,
            "ticks": 0,
            "time": 0,
            "value": 0
          }
        ]
      },
      "pitchBends": [
        {
          "ticks": 0,
          "time": 0,
          "value": 0
        },
        {
          "ticks": 0,
          "time": 0,
          "value": 0
        }
      ],
      "instrument": {
        "family": "piano",
        "number": 0,
        "name": "acoustic grand piano"
      },
      "name": "AtomPro",
      "notes": [],
      "endOfTrackTicks": 38400
    },
    {
      "channel": 5,
      "controlChanges": {
        "6": [
          {
            "number": 6,
            "ticks": 38400,
            "time": 31.475392,
            "value": 0.09448818897637795
          },
          {
            "number": 6,
            "ticks": 38400,
            "time": 31.475392,
            "value": 0.09448818897637795
          }
        ],
        "7": [
          {
            "number": 7,
            "ticks": 38400,
            "time": 31.475392,
            "value": 0.7874015748031497
          },
          {
            "number": 7,
            "ticks": 38400,
            "time": 31.475392,
            "value": 0.7874015748031497
          }
        ],
        "10": [
          {
            "number": 10,
            "ticks": 38400,
            "time": 31.475392,
            "value": 0.5039370078740157
          },
          {
            "number": 10,
            "ticks": 38400,
            "time": 31.475392,
            "value": 0.5039370078740157
          }
        ],
        "100": [
          {
            "number": 100,
            "ticks": 38400,
            "time": 31.475392,
            "value": 0
          },
          {
            "number": 100,
            "ticks": 38400,
            "time": 31.475392,
            "value": 0
          }
        ],
        "101": [
          {
            "number": 101,
            "ticks": 38400,
            "time": 31.475392,
            "value": 0
          },
          {
            "number": 101,
            "ticks": 38400,
            "time": 31.475392,
            "value": 0
          }
        ]
      },
      "pitchBends": [
        {
          "ticks": 0,
          "time": 0,
          "value": 0
        },
        {
          "ticks": 38400,
          "time": 31.475392,
          "value": 0
        },
        {
          "ticks": 38400,
          "time": 31.475392,
          "value": 0
        }
      ],
      "instrument": {
        "family": "organ",
        "number": 22,
        "name": "harmonica"
      },
      "name": "",
      "notes": [
        {
          "duration": 0.12295074999999933,
          "durationTicks": 150,
          "midi": 48,
          "name": "C3",
          "ticks": 19200,
          "time": 15.737696,
          "velocity": 0.6299212598425197
        },
        {
          "duration": 0.12295075000000111,
          "durationTicks": 150,
          "midi": 48,
          "name": "C3",
          "ticks": 19350,
          "time": 15.860646749999999,
          "velocity": 0.3858267716535433
        },
        {
          "duration": 0.12295074999999933,
          "durationTicks": 150,
          "midi": 48,
          "name": "C3",
          "ticks": 19500,
          "time": 15.9835975,
          "velocity": 0.6299212598425197
        },
        {
          "duration": 0.12295075000000111,
          "durationTicks": 150,
          "midi": 48,
          "name": "C3",
          "ticks": 19650,
          "time": 16.10654825,
          "velocity": 0.3858267716535433
        },
        {
          "duration": 0.12295074999999756,
          "durationTicks": 150,
          "midi": 48,
          "name": "C3",
          "ticks": 19800,
          "time": 16.229499,
          "velocity": 0.6299212598425197
        },
        {
          "duration": 0.12295075000000111,
          "durationTicks": 150,
          "midi": 48,
          "name": "C3",
          "ticks": 19950,
          "time": 16.352449749999998,
          "velocity": 0.3858267716535433
        },
        {
          "duration": 0.12295075000000111,
          "durationTicks": 150,
          "midi": 48,
          "name": "C3",
          "ticks": 20100,
          "time": 16.4754005,
          "velocity": 0.6299212598425197
        },
        {
          "duration": 0.24590149999999866,
          "durationTicks": 300,
          "midi": 48,
          "name": "C3",
          "ticks": 20250,
          "time": 16.59835125,
          "velocity": 0.6299212598425197
        },
        {
          "duration": 0.12295075000000111,
          "durationTicks": 150,
          "midi": 48,
          "name": "C3",
          "ticks": 20550,
          "time": 16.84425275,
          "velocity": 0.3858267716535433
        },
        {
          "duration": 0.12295075000000111,
          "durationTicks": 150,
          "midi": 48,
          "name": "C3",
          "ticks": 20700,
          "time": 16.9672035,
          "velocity": 0.6377952755905512
        },
        {
          "duration": 0.12295074999999756,
          "durationTicks": 150,
          "midi": 48,
          "name": "C3",
          "ticks": 20850,
          "time": 17.09015425,
          "velocity": 0.3858267716535433
        },
        {
          "duration": 0.12295075000000111,
          "durationTicks": 150,
          "midi": 48,
          "name": "C3",
          "ticks": 21000,
          "time": 17.213105,
          "velocity": 0.6377952755905512
        },
        {
          "duration": 0.12295075000000111,
          "durationTicks": 150,
          "midi": 48,
          "name": "C3",
          "ticks": 21150,
          "time": 17.33605575,
          "velocity": 0.3858267716535433
        },
        {
          "duration": 0.12295074999999756,
          "durationTicks": 150,
          "midi": 48,
          "name": "C3",
          "ticks": 21300,
          "time": 17.4590065,
          "velocity": 0.6377952755905512
        },
        {
          "duration": 0.12295075000000111,
          "durationTicks": 150,
          "midi": 48,
          "name": "C3",
          "ticks": 21450,
          "time": 17.58195725,
          "velocity": 0.3937007874015748
        },
        {
          "duration": 0.12295075000000111,
          "durationTicks": 150,
          "midi": 48,
          "name": "C3",
          "ticks": 21600,
          "time": 17.704908,
          "velocity": 0.6299212598425197
        },
        {
          "duration": 0.12295074999999756,
          "durationTicks": 150,
          "midi": 48,
          "name": "C3",
          "ticks": 21750,
          "time": 17.82785875,
          "velocity": 0.3858267716535433
        },
        {
          "duration": 0.12295075000000111,
          "durationTicks": 150,
          "midi": 48,
          "name": "C3",
          "ticks": 21900,
          "time": 17.9508095,
          "velocity": 0.6299212598425197
        },
        {
          "duration": 0.12295075000000111,
          "durationTicks": 150,
          "midi": 48,
          "name": "C3",
          "ticks": 22050,
          "time": 18.07376025,
          "velocity": 0.3858267716535433
        },
        {
          "duration": 0.12295074999999756,
          "durationTicks": 150,
          "midi": 48,
          "name": "C3",
          "ticks": 22200,
          "time": 18.196711,
          "velocity": 0.6299212598425197
        },
        {
          "duration": 0.12295075000000111,
          "durationTicks": 150,
          "midi": 48,
          "name": "C3",
          "ticks": 22350,
          "time": 18.319661749999998,
          "velocity": 0.3858267716535433
        },
        {
          "duration": 0.12295075000000111,
          "durationTicks": 150,
          "midi": 48,
          "name": "C3",
          "ticks": 22500,
          "time": 18.4426125,
          "velocity": 0.6299212598425197
        },
        {
          "duration": 0.24590149999999866,
          "durationTicks": 300,
          "midi": 48,
          "name": "C3",
          "ticks": 22650,
          "time": 18.56556325,
          "velocity": 0.6299212598425197
        },
        {
          "duration": 0.12295075000000111,
          "durationTicks": 150,
          "midi": 48,
          "name": "C3",
          "ticks": 22950,
          "time": 18.81146475,
          "velocity": 0.3858267716535433
        },
        {
          "duration": 0.12295075000000111,
          "durationTicks": 150,
          "midi": 48,
          "name": "C3",
          "ticks": 23100,
          "time": 18.9344155,
          "velocity": 0.6377952755905512
        },
        {
          "duration": 0.12295074999999756,
          "durationTicks": 150,
          "midi": 48,
          "name": "C3",
          "ticks": 23250,
          "time": 19.05736625,
          "velocity": 0.3858267716535433
        },
        {
          "duration": 0.12295075000000111,
          "durationTicks": 150,
          "midi": 48,
          "name": "C3",
          "ticks": 23400,
          "time": 19.180317,
          "velocity": 0.6377952755905512
        },
        {
          "duration": 0.12295075000000111,
          "durationTicks": 150,
          "midi": 48,
          "name": "C3",
          "ticks": 23550,
          "time": 19.30326775,
          "velocity": 0.3858267716535433
        },
        {
          "duration": 0.12295074999999756,
          "durationTicks": 150,
          "midi": 48,
          "name": "C3",
          "ticks": 23700,
          "time": 19.4262185,
          "velocity": 0.6377952755905512
        },
        {
          "duration": 0.12295075000000111,
          "durationTicks": 150,
          "midi": 48,
          "name": "C3",
          "ticks": 23850,
          "time": 19.54916925,
          "velocity": 0.3937007874015748
        },
        {
          "duration": 0.12295075000000111,
          "durationTicks": 150,
          "midi": 44,
          "name": "G#2",
          "ticks": 24000,
          "time": 19.67212,
          "velocity": 0.6299212598425197
        },
        {
          "duration": 0.12295074999999756,
          "durationTicks": 150,
          "midi": 44,
          "name": "G#2",
          "ticks": 24150,
          "time": 19.79507075,
          "velocity": 0.3858267716535433
        },
        {
          "duration": 0.12295075000000111,
          "durationTicks": 150,
          "midi": 44,
          "name": "G#2",
          "ticks": 24300,
          "time": 19.9180215,
          "velocity": 0.6299212598425197
        },
        {
          "duration": 0.12295075000000111,
          "durationTicks": 150,
          "midi": 44,
          "name": "G#2",
          "ticks": 24450,
          "time": 20.04097225,
          "velocity": 0.3858267716535433
        },
        {
          "duration": 0.12295074999999756,
          "durationTicks": 150,
          "midi": 44,
          "name": "G#2",
          "ticks": 24600,
          "time": 20.163923,
          "velocity": 0.6299212598425197
        },
        {
          "duration": 0.12295075000000111,
          "durationTicks": 150,
          "midi": 44,
          "name": "G#2",
          "ticks": 24750,
          "time": 20.286873749999998,
          "velocity": 0.3858267716535433
        },
        {
          "duration": 0.12295075000000111,
          "durationTicks": 150,
          "midi": 44,
          "name": "G#2",
          "ticks": 24900,
          "time": 20.4098245,
          "velocity": 0.6299212598425197
        },
        {
          "duration": 0.24590149999999866,
          "durationTicks": 300,
          "midi": 44,
          "name": "G#2",
          "ticks": 25050,
          "time": 20.53277525,
          "velocity": 0.6299212598425197
        },
        {
          "duration": 0.12295075000000111,
          "durationTicks": 150,
          "midi": 44,
          "name": "G#2",
          "ticks": 25350,
          "time": 20.77867675,
          "velocity": 0.3858267716535433
        },
        {
          "duration": 0.12295075000000111,
          "durationTicks": 150,
          "midi": 44,
          "name": "G#2",
          "ticks": 25500,
          "time": 20.9016275,
          "velocity": 0.6377952755905512
        },
        {
          "duration": 0.12295074999999756,
          "durationTicks": 150,
          "midi": 44,
          "name": "G#2",
          "ticks": 25650,
          "time": 21.02457825,
          "velocity": 0.3858267716535433
        },
        {
          "duration": 0.12295075000000111,
          "durationTicks": 150,
          "midi": 44,
          "name": "G#2",
          "ticks": 25800,
          "time": 21.147529,
          "velocity": 0.6377952755905512
        },
        {
          "duration": 0.12295075000000111,
          "durationTicks": 150,
          "midi": 44,
          "name": "G#2",
          "ticks": 25950,
          "time": 21.27047975,
          "velocity": 0.3858267716535433
        },
        {
          "duration": 0.12295074999999756,
          "durationTicks": 150,
          "midi": 44,
          "name": "G#2",
          "ticks": 26100,
          "time": 21.3934305,
          "velocity": 0.6377952755905512
        },
        {
          "duration": 0.12295075000000111,
          "durationTicks": 150,
          "midi": 44,
          "name": "G#2",
          "ticks": 26250,
          "time": 21.51638125,
          "velocity": 0.3937007874015748
        },
        {
          "duration": 0.12295075000000111,
          "durationTicks": 150,
          "midi": 46,
          "name": "A#2",
          "ticks": 26400,
          "time": 21.639332,
          "velocity": 0.6299212598425197
        },
        {
          "duration": 0.12295074999999756,
          "durationTicks": 150,
          "midi": 46,
          "name": "A#2",
          "ticks": 26550,
          "time": 21.76228275,
          "velocity": 0.3858267716535433
        },
        {
          "duration": 0.12295075000000111,
          "durationTicks": 150,
          "midi": 46,
          "name": "A#2",
          "ticks": 26700,
          "time": 21.8852335,
          "velocity": 0.6299212598425197
        },
        {
          "duration": 0.12295075000000111,
          "durationTicks": 150,
          "midi": 46,
          "name": "A#2",
          "ticks": 26850,
          "time": 22.00818425,
          "velocity": 0.3858267716535433
        },
        {
          "duration": 0.12295074999999756,
          "durationTicks": 150,
          "midi": 46,
          "name": "A#2",
          "ticks": 27000,
          "time": 22.131135,
          "velocity": 0.6299212598425197
        },
        {
          "duration": 0.12295075000000111,
          "durationTicks": 150,
          "midi": 46,
          "name": "A#2",
          "ticks": 27150,
          "time": 22.254085749999998,
          "velocity": 0.3858267716535433
        },
        {
          "duration": 0.12295075000000111,
          "durationTicks": 150,
          "midi": 46,
          "name": "A#2",
          "ticks": 27300,
          "time": 22.3770365,
          "velocity": 0.6299212598425197
        },
        {
          "duration": 0.24590149999999866,
          "durationTicks": 300,
          "midi": 47,
          "name": "B2",
          "ticks": 27450,
          "time": 22.49998725,
          "velocity": 0.6299212598425197
        },
        {
          "duration": 0.12295075000000111,
          "durationTicks": 150,
          "midi": 47,
          "name": "B2",
          "ticks": 27750,
          "time": 22.74588875,
          "velocity": 0.3858267716535433
        },
        {
          "duration": 0.12295075000000111,
          "durationTicks": 150,
          "midi": 47,
          "name": "B2",
          "ticks": 27900,
          "time": 22.8688395,
          "velocity": 0.6377952755905512
        },
        {
          "duration": 0.12295074999999756,
          "durationTicks": 150,
          "midi": 47,
          "name": "B2",
          "ticks": 28050,
          "time": 22.99179025,
          "velocity": 0.3858267716535433
        },
        {
          "duration": 0.12295075000000111,
          "durationTicks": 150,
          "midi": 47,
          "name": "B2",
          "ticks": 28200,
          "time": 23.114741,
          "velocity": 0.6377952755905512
        },
        {
          "duration": 0.12295075000000111,
          "durationTicks": 150,
          "midi": 47,
          "name": "B2",
          "ticks": 28350,
          "time": 23.23769175,
          "velocity": 0.3858267716535433
        },
        {
          "duration": 0.12295074999999756,
          "durationTicks": 150,
          "midi": 47,
          "name": "B2",
          "ticks": 28500,
          "time": 23.3606425,
          "velocity": 0.6377952755905512
        },
        {
          "duration": 0.12295075000000111,
          "durationTicks": 150,
          "midi": 47,
          "name": "B2",
          "ticks": 28650,
          "time": 23.48359325,
          "velocity": 0.3937007874015748
        },
        {
          "duration": 0.12295075000000111,
          "durationTicks": 150,
          "midi": 48,
          "name": "C3",
          "ticks": 28800,
          "time": 23.606544,
          "velocity": 0.6299212598425197
        },
        {
          "duration": 0.12295074999999756,
          "durationTicks": 150,
          "midi": 48,
          "name": "C3",
          "ticks": 28950,
          "time": 23.72949475,
          "velocity": 0.3858267716535433
        },
        {
          "duration": 0.12295075000000111,
          "durationTicks": 150,
          "midi": 48,
          "name": "C3",
          "ticks": 29100,
          "time": 23.852445499999998,
          "velocity": 0.6299212598425197
        },
        {
          "duration": 0.12295075000000111,
          "durationTicks": 150,
          "midi": 48,
          "name": "C3",
          "ticks": 29250,
          "time": 23.97539625,
          "velocity": 0.3858267716535433
        },
        {
          "duration": 0.12295074999999756,
          "durationTicks": 150,
          "midi": 48,
          "name": "C3",
          "ticks": 29400,
          "time": 24.098347,
          "velocity": 0.6299212598425197
        },
        {
          "duration": 0.12295075000000111,
          "durationTicks": 150,
          "midi": 48,
          "name": "C3",
          "ticks": 29550,
          "time": 24.221297749999998,
          "velocity": 0.3858267716535433
        },
        {
          "duration": 0.12295075000000111,
          "durationTicks": 150,
          "midi": 48,
          "name": "C3",
          "ticks": 29700,
          "time": 24.3442485,
          "velocity": 0.6299212598425197
        },
        {
          "duration": 0.24590149999999866,
          "durationTicks": 300,
          "midi": 48,
          "name": "C3",
          "ticks": 29850,
          "time": 24.46719925,
          "velocity": 0.6299212598425197
        },
        {
          "duration": 0.12295075000000111,
          "durationTicks": 150,
          "midi": 48,
          "name": "C3",
          "ticks": 30150,
          "time": 24.71310075,
          "velocity": 0.3858267716535433
        },
        {
          "duration": 0.12295075000000111,
          "durationTicks": 150,
          "midi": 48,
          "name": "C3",
          "ticks": 30300,
          "time": 24.8360515,
          "velocity": 0.6377952755905512
        },
        {
          "duration": 0.12295074999999756,
          "durationTicks": 150,
          "midi": 48,
          "name": "C3",
          "ticks": 30450,
          "time": 24.95900225,
          "velocity": 0.3858267716535433
        },
        {
          "duration": 0.12295075000000111,
          "durationTicks": 150,
          "midi": 48,
          "name": "C3",
          "ticks": 30600,
          "time": 25.081953,
          "velocity": 0.6377952755905512
        },
        {
          "duration": 0.12295075000000111,
          "durationTicks": 150,
          "midi": 48,
          "name": "C3",
          "ticks": 30750,
          "time": 25.20490375,
          "velocity": 0.3858267716535433
        },
        {
          "duration": 0.12295074999999756,
          "durationTicks": 150,
          "midi": 48,
          "name": "C3",
          "ticks": 30900,
          "time": 25.3278545,
          "velocity": 0.6377952755905512
        },
        {
          "duration": 0.12295075000000111,
          "durationTicks": 150,
          "midi": 48,
          "name": "C3",
          "ticks": 31050,
          "time": 25.45080525,
          "velocity": 0.3937007874015748
        },
        {
          "duration": 0.12295075000000111,
          "durationTicks": 150,
          "midi": 48,
          "name": "C3",
          "ticks": 31200,
          "time": 25.573756,
          "velocity": 0.6299212598425197
        },
        {
          "duration": 0.12295074999999756,
          "durationTicks": 150,
          "midi": 48,
          "name": "C3",
          "ticks": 31350,
          "time": 25.69670675,
          "velocity": 0.3858267716535433
        },
        {
          "duration": 0.12295075000000111,
          "durationTicks": 150,
          "midi": 48,
          "name": "C3",
          "ticks": 31500,
          "time": 25.819657499999998,
          "velocity": 0.6299212598425197
        },
        {
          "duration": 0.12295075000000111,
          "durationTicks": 150,
          "midi": 48,
          "name": "C3",
          "ticks": 31650,
          "time": 25.94260825,
          "velocity": 0.3858267716535433
        },
        {
          "duration": 0.12295074999999756,
          "durationTicks": 150,
          "midi": 48,
          "name": "C3",
          "ticks": 31800,
          "time": 26.065559,
          "velocity": 0.6299212598425197
        },
        {
          "duration": 0.12295075000000111,
          "durationTicks": 150,
          "midi": 48,
          "name": "C3",
          "ticks": 31950,
          "time": 26.188509749999998,
          "velocity": 0.3858267716535433
        },
        {
          "duration": 0.12295075000000111,
          "durationTicks": 150,
          "midi": 48,
          "name": "C3",
          "ticks": 32100,
          "time": 26.3114605,
          "velocity": 0.6299212598425197
        },
        {
          "duration": 0.24590149999999866,
          "durationTicks": 300,
          "midi": 48,
          "name": "C3",
          "ticks": 32250,
          "time": 26.43441125,
          "velocity": 0.6299212598425197
        },
        {
          "duration": 0.12295075000000111,
          "durationTicks": 150,
          "midi": 48,
          "name": "C3",
          "ticks": 32550,
          "time": 26.68031275,
          "velocity": 0.3858267716535433
        },
        {
          "duration": 0.12295075000000111,
          "durationTicks": 150,
          "midi": 48,
          "name": "C3",
          "ticks": 32700,
          "time": 26.8032635,
          "velocity": 0.6377952755905512
        },
        {
          "duration": 0.12295074999999756,
          "durationTicks": 150,
          "midi": 48,
          "name": "C3",
          "ticks": 32850,
          "time": 26.92621425,
          "velocity": 0.3858267716535433
        },
        {
          "duration": 0.12295075000000111,
          "durationTicks": 150,
          "midi": 48,
          "name": "C3",
          "ticks": 33000,
          "time": 27.049165,
          "velocity": 0.6377952755905512
        },
        {
          "duration": 0.12295075000000111,
          "durationTicks": 150,
          "midi": 48,
          "name": "C3",
          "ticks": 33150,
          "time": 27.17211575,
          "velocity": 0.3858267716535433
        },
        {
          "duration": 0.12295074999999756,
          "durationTicks": 150,
          "midi": 48,
          "name": "C3",
          "ticks": 33300,
          "time": 27.2950665,
          "velocity": 0.6377952755905512
        },
        {
          "duration": 0.12295075000000111,
          "durationTicks": 150,
          "midi": 48,
          "name": "C3",
          "ticks": 33450,
          "time": 27.41801725,
          "velocity": 0.3937007874015748
        },
        {
          "duration": 0.12295075000000111,
          "durationTicks": 150,
          "midi": 44,
          "name": "G#2",
          "ticks": 33600,
          "time": 27.540968,
          "velocity": 0.6299212598425197
        },
        {
          "duration": 0.12295074999999756,
          "durationTicks": 150,
          "midi": 44,
          "name": "G#2",
          "ticks": 33750,
          "time": 27.66391875,
          "velocity": 0.3858267716535433
        },
        {
          "duration": 0.12295075000000111,
          "durationTicks": 150,
          "midi": 44,
          "name": "G#2",
          "ticks": 33900,
          "time": 27.786869499999998,
          "velocity": 0.6299212598425197
        },
        {
          "duration": 0.12295075000000111,
          "durationTicks": 150,
          "midi": 44,
          "name": "G#2",
          "ticks": 34050,
          "time": 27.90982025,
          "velocity": 0.3858267716535433
        },
        {
          "duration": 0.12295074999999756,
          "durationTicks": 150,
          "midi": 44,
          "name": "G#2",
          "ticks": 34200,
          "time": 28.032771,
          "velocity": 0.6299212598425197
        },
        {
          "duration": 0.12295075000000111,
          "durationTicks": 150,
          "midi": 44,
          "name": "G#2",
          "ticks": 34350,
          "time": 28.155721749999998,
          "velocity": 0.3858267716535433
        },
        {
          "duration": 0.12295075000000111,
          "durationTicks": 150,
          "midi": 44,
          "name": "G#2",
          "ticks": 34500,
          "time": 28.2786725,
          "velocity": 0.6299212598425197
        },
        {
          "duration": 0.24590149999999866,
          "durationTicks": 300,
          "midi": 44,
          "name": "G#2",
          "ticks": 34650,
          "time": 28.40162325,
          "velocity": 0.6299212598425197
        },
        {
          "duration": 0.12295075000000111,
          "durationTicks": 150,
          "midi": 44,
          "name": "G#2",
          "ticks": 34950,
          "time": 28.64752475,
          "velocity": 0.3858267716535433
        },
        {
          "duration": 0.12295075000000111,
          "durationTicks": 150,
          "midi": 44,
          "name": "G#2",
          "ticks": 35100,
          "time": 28.7704755,
          "velocity": 0.6377952755905512
        },
        {
          "duration": 0.12295074999999756,
          "durationTicks": 150,
          "midi": 44,
          "name": "G#2",
          "ticks": 35250,
          "time": 28.89342625,
          "velocity": 0.3858267716535433
        },
        {
          "duration": 0.12295075000000111,
          "durationTicks": 150,
          "midi": 44,
          "name": "G#2",
          "ticks": 35400,
          "time": 29.016377,
          "velocity": 0.6377952755905512
        },
        {
          "duration": 0.12295075000000111,
          "durationTicks": 150,
          "midi": 44,
          "name": "G#2",
          "ticks": 35550,
          "time": 29.13932775,
          "velocity": 0.3858267716535433
        },
        {
          "duration": 0.12295074999999756,
          "durationTicks": 150,
          "midi": 44,
          "name": "G#2",
          "ticks": 35700,
          "time": 29.2622785,
          "velocity": 0.6377952755905512
        },
        {
          "duration": 0.12295075000000111,
          "durationTicks": 150,
          "midi": 44,
          "name": "G#2",
          "ticks": 35850,
          "time": 29.38522925,
          "velocity": 0.3937007874015748
        }
      ]
    },
    {
      "channel": 0,
      "controlChanges": {
        "6": [
          {
            "number": 6,
            "ticks": 0,
            "time": 0,
            "value": 0.09448818897637795
          }
        ],
        "7": [
          {
            "number": 7,
            "ticks": 0,
            "time": 0,
            "value": 0.7874015748031497
          },
          {
            "number": 7,
            "ticks": 0,
            "time": 0,
            "value": 0.7874015748031497
          }
        ],
        "10": [
          {
            "number": 10,
            "ticks": 0,
            "time": 0,
            "value": 0.5039370078740157
          },
          {
            "number": 10,
            "ticks": 0,
            "time": 0,
            "value": 0.5039370078740157
          }
        ],
        "100": [
          {
            "number": 100,
            "ticks": 0,
            "time": 0,
            "value": 0
          }
        ],
        "101": [
          {
            "number": 101,
            "ticks": 0,
            "time": 0,
            "value": 0
          }
        ]
      },
      "pitchBends": [
        {
          "ticks": 0,
          "time": 0,
          "value": 0
        },
        {
          "ticks": 0,
          "time": 0,
          "value": 0
        }
      ],
      "instrument": {
        "family": "piano",
        "number": 0,
        "name": "acoustic grand piano"
      },
      "name": "AtomPro",
      "notes": [],
      "endOfTrackTicks": 38400
    },
    {
      "channel": 6,
      "controlChanges": {
        "6": [
          {
            "number": 6,
            "ticks": 38400,
            "time": 31.475392,
            "value": 0.09448818897637795
          },
          {
            "number": 6,
            "ticks": 38400,
            "time": 31.475392,
            "value": 0.09448818897637795
          }
        ],
        "7": [
          {
            "number": 7,
            "ticks": 38400,
            "time": 31.475392,
            "value": 0.7874015748031497
          },
          {
            "number": 7,
            "ticks": 38400,
            "time": 31.475392,
            "value": 0.7874015748031497
          }
        ],
        "10": [
          {
            "number": 10,
            "ticks": 38400,
            "time": 31.475392,
            "value": 0.5039370078740157
          },
          {
            "number": 10,
            "ticks": 38400,
            "time": 31.475392,
            "value": 0.5039370078740157
          }
        ],
        "100": [
          {
            "number": 100,
            "ticks": 38400,
            "time": 31.475392,
            "value": 0
          },
          {
            "number": 100,
            "ticks": 38400,
            "time": 31.475392,
            "value": 0
          }
        ],
        "101": [
          {
            "number": 101,
            "ticks": 38400,
            "time": 31.475392,
            "value": 0
          },
          {
            "number": 101,
            "ticks": 38400,
            "time": 31.475392,
            "value": 0
          }
        ]
      },
      "pitchBends": [
        {
          "ticks": 0,
          "time": 0,
          "value": 0
        },
        {
          "ticks": 38400,
          "time": 31.475392,
          "value": 0
        },
        {
          "ticks": 38400,
          "time": 31.475392,
          "value": 0
        }
      ],
      "instrument": {
        "family": "bass",
        "number": 33,
        "name": "electric bass (finger)"
      },
      "name": "",
      "notes": [
        {
          "duration": 0.12295075000000111,
          "durationTicks": 150,
          "midi": 36,
          "name": "C2",
          "ticks": 28800,
          "time": 23.606544,
          "velocity": 0.6299212598425197
        },
        {
          "duration": 0.12295074999999756,
          "durationTicks": 150,
          "midi": 36,
          "name": "C2",
          "ticks": 28950,
          "time": 23.72949475,
          "velocity": 0.3858267716535433
        },
        {
          "duration": 0.12295075000000111,
          "durationTicks": 150,
          "midi": 36,
          "name": "C2",
          "ticks": 29100,
          "time": 23.852445499999998,
          "velocity": 0.6299212598425197
        },
        {
          "duration": 0.12295075000000111,
          "durationTicks": 150,
          "midi": 36,
          "name": "C2",
          "ticks": 29250,
          "time": 23.97539625,
          "velocity": 0.3858267716535433
        },
        {
          "duration": 0.12295074999999756,
          "durationTicks": 150,
          "midi": 36,
          "name": "C2",
          "ticks": 29400,
          "time": 24.098347,
          "velocity": 0.6299212598425197
        },
        {
          "duration": 0.12295075000000111,
          "durationTicks": 150,
          "midi": 36,
          "name": "C2",
          "ticks": 29550,
          "time": 24.221297749999998,
          "velocity": 0.3858267716535433
        },
        {
          "duration": 0.12295075000000111,
          "durationTicks": 150,
          "midi": 36,
          "name": "C2",
          "ticks": 29700,
          "time": 24.3442485,
          "velocity": 0.6299212598425197
        },
        {
          "duration": 0.24590149999999866,
          "durationTicks": 300,
          "midi": 36,
          "name": "C2",
          "ticks": 29850,
          "time": 24.46719925,
          "velocity": 0.6299212598425197
        },
        {
          "duration": 0.12295075000000111,
          "durationTicks": 150,
          "midi": 36,
          "name": "C2",
          "ticks": 30150,
          "time": 24.71310075,
          "velocity": 0.3858267716535433
        },
        {
          "duration": 0.12295075000000111,
          "durationTicks": 150,
          "midi": 36,
          "name": "C2",
          "ticks": 30300,
          "time": 24.8360515,
          "velocity": 0.6377952755905512
        },
        {
          "duration": 0.12295074999999756,
          "durationTicks": 150,
          "midi": 36,
          "name": "C2",
          "ticks": 30450,
          "time": 24.95900225,
          "velocity": 0.3858267716535433
        },
        {
          "duration": 0.12295075000000111,
          "durationTicks": 150,
          "midi": 36,
          "name": "C2",
          "ticks": 30600,
          "time": 25.081953,
          "velocity": 0.6377952755905512
        },
        {
          "duration": 0.12295075000000111,
          "durationTicks": 150,
          "midi": 36,
          "name": "C2",
          "ticks": 30750,
          "time": 25.20490375,
          "velocity": 0.3858267716535433
        },
        {
          "duration": 0.12295074999999756,
          "durationTicks": 150,
          "midi": 36,
          "name": "C2",
          "ticks": 30900,
          "time": 25.3278545,
          "velocity": 0.6377952755905512
        },
        {
          "duration": 0.12295075000000111,
          "durationTicks": 150,
          "midi": 36,
          "name": "C2",
          "ticks": 31050,
          "time": 25.45080525,
          "velocity": 0.3937007874015748
        },
        {
          "duration": 0.12295075000000111,
          "durationTicks": 150,
          "midi": 36,
          "name": "C2",
          "ticks": 31200,
          "time": 25.573756,
          "velocity": 0.6299212598425197
        },
        {
          "duration": 0.12295074999999756,
          "durationTicks": 150,
          "midi": 36,
          "name": "C2",
          "ticks": 31350,
          "time": 25.69670675,
          "velocity": 0.3858267716535433
        },
        {
          "duration": 0.12295075000000111,
          "durationTicks": 150,
          "midi": 36,
          "name": "C2",
          "ticks": 31500,
          "time": 25.819657499999998,
          "velocity": 0.6299212598425197
        },
        {
          "duration": 0.12295075000000111,
          "durationTicks": 150,
          "midi": 36,
          "name": "C2",
          "ticks": 31650,
          "time": 25.94260825,
          "velocity": 0.3858267716535433
        },
        {
          "duration": 0.12295074999999756,
          "durationTicks": 150,
          "midi": 36,
          "name": "C2",
          "ticks": 31800,
          "time": 26.065559,
          "velocity": 0.6299212598425197
        },
        {
          "duration": 0.12295075000000111,
          "durationTicks": 150,
          "midi": 36,
          "name": "C2",
          "ticks": 31950,
          "time": 26.188509749999998,
          "velocity": 0.3858267716535433
        },
        {
          "duration": 0.12295075000000111,
          "durationTicks": 150,
          "midi": 36,
          "name": "C2",
          "ticks": 32100,
          "time": 26.3114605,
          "velocity": 0.6299212598425197
        },
        {
          "duration": 0.24590149999999866,
          "durationTicks": 300,
          "midi": 36,
          "name": "C2",
          "ticks": 32250,
          "time": 26.43441125,
          "velocity": 0.6299212598425197
        },
        {
          "duration": 0.12295075000000111,
          "durationTicks": 150,
          "midi": 36,
          "name": "C2",
          "ticks": 32550,
          "time": 26.68031275,
          "velocity": 0.3858267716535433
        },
        {
          "duration": 0.12295075000000111,
          "durationTicks": 150,
          "midi": 36,
          "name": "C2",
          "ticks": 32700,
          "time": 26.8032635,
          "velocity": 0.6377952755905512
        },
        {
          "duration": 0.12295074999999756,
          "durationTicks": 150,
          "midi": 36,
          "name": "C2",
          "ticks": 32850,
          "time": 26.92621425,
          "velocity": 0.3858267716535433
        },
        {
          "duration": 0.12295075000000111,
          "durationTicks": 150,
          "midi": 36,
          "name": "C2",
          "ticks": 33000,
          "time": 27.049165,
          "velocity": 0.6377952755905512
        },
        {
          "duration": 0.12295075000000111,
          "durationTicks": 150,
          "midi": 36,
          "name": "C2",
          "ticks": 33150,
          "time": 27.17211575,
          "velocity": 0.3858267716535433
        },
        {
          "duration": 0.12295074999999756,
          "durationTicks": 150,
          "midi": 36,
          "name": "C2",
          "ticks": 33300,
          "time": 27.2950665,
          "velocity": 0.6377952755905512
        },
        {
          "duration": 0.12295075000000111,
          "durationTicks": 150,
          "midi": 36,
          "name": "C2",
          "ticks": 33450,
          "time": 27.41801725,
          "velocity": 0.3937007874015748
        },
        {
          "duration": 0.12295075000000111,
          "durationTicks": 150,
          "midi": 32,
          "name": "G#1",
          "ticks": 33600,
          "time": 27.540968,
          "velocity": 0.6299212598425197
        },
        {
          "duration": 0.12295074999999756,
          "durationTicks": 150,
          "midi": 32,
          "name": "G#1",
          "ticks": 33750,
          "time": 27.66391875,
          "velocity": 0.3858267716535433
        },
        {
          "duration": 0.12295075000000111,
          "durationTicks": 150,
          "midi": 32,
          "name": "G#1",
          "ticks": 33900,
          "time": 27.786869499999998,
          "velocity": 0.6299212598425197
        },
        {
          "duration": 0.12295075000000111,
          "durationTicks": 150,
          "midi": 32,
          "name": "G#1",
          "ticks": 34050,
          "time": 27.90982025,
          "velocity": 0.3858267716535433
        },
        {
          "duration": 0.12295074999999756,
          "durationTicks": 150,
          "midi": 32,
          "name": "G#1",
          "ticks": 34200,
          "time": 28.032771,
          "velocity": 0.6299212598425197
        },
        {
          "duration": 0.12295075000000111,
          "durationTicks": 150,
          "midi": 32,
          "name": "G#1",
          "ticks": 34350,
          "time": 28.155721749999998,
          "velocity": 0.3858267716535433
        },
        {
          "duration": 0.12295075000000111,
          "durationTicks": 150,
          "midi": 32,
          "name": "G#1",
          "ticks": 34500,
          "time": 28.2786725,
          "velocity": 0.6299212598425197
        },
        {
          "duration": 0.24590149999999866,
          "durationTicks": 300,
          "midi": 32,
          "name": "G#1",
          "ticks": 34650,
          "time": 28.40162325,
          "velocity": 0.6299212598425197
        },
        {
          "duration": 0.12295075000000111,
          "durationTicks": 150,
          "midi": 32,
          "name": "G#1",
          "ticks": 34950,
          "time": 28.64752475,
          "velocity": 0.3858267716535433
        },
        {
          "duration": 0.12295075000000111,
          "durationTicks": 150,
          "midi": 32,
          "name": "G#1",
          "ticks": 35100,
          "time": 28.7704755,
          "velocity": 0.6377952755905512
        },
        {
          "duration": 0.12295074999999756,
          "durationTicks": 150,
          "midi": 32,
          "name": "G#1",
          "ticks": 35250,
          "time": 28.89342625,
          "velocity": 0.3858267716535433
        },
        {
          "duration": 0.12295075000000111,
          "durationTicks": 150,
          "midi": 32,
          "name": "G#1",
          "ticks": 35400,
          "time": 29.016377,
          "velocity": 0.6377952755905512
        },
        {
          "duration": 0.12295075000000111,
          "durationTicks": 150,
          "midi": 32,
          "name": "G#1",
          "ticks": 35550,
          "time": 29.13932775,
          "velocity": 0.3858267716535433
        },
        {
          "duration": 0.12295074999999756,
          "durationTicks": 150,
          "midi": 32,
          "name": "G#1",
          "ticks": 35700,
          "time": 29.2622785,
          "velocity": 0.6377952755905512
        },
        {
          "duration": 0.12295075000000111,
          "durationTicks": 150,
          "midi": 32,
          "name": "G#1",
          "ticks": 35850,
          "time": 29.38522925,
          "velocity": 0.3937007874015748
        }
      ]
    },
    {
      "channel": 0,
      "controlChanges": {
        "6": [
          {
            "number": 6,
            "ticks": 0,
            "time": 0,
            "value": 0.09448818897637795
          }
        ],
        "7": [
          {
            "number": 7,
            "ticks": 0,
            "time": 0,
            "value": 0.7874015748031497
          },
          {
            "number": 7,
            "ticks": 0,
            "time": 0,
            "value": 0.7874015748031497
          }
        ],
        "10": [
          {
            "number": 10,
            "ticks": 0,
            "time": 0,
            "value": 0.5039370078740157
          },
          {
            "number": 10,
            "ticks": 0,
            "time": 0,
            "value": 0.5039370078740157
          }
        ],
        "100": [
          {
            "number": 100,
            "ticks": 0,
            "time": 0,
            "value": 0
          }
        ],
        "101": [
          {
            "number": 101,
            "ticks": 0,
            "time": 0,
            "value": 0
          }
        ]
      },
      "pitchBends": [
        {
          "ticks": 0,
          "time": 0,
          "value": 0
        },
        {
          "ticks": 0,
          "time": 0,
          "value": 0
        }
      ],
      "instrument": {
        "family": "piano",
        "number": 0,
        "name": "acoustic grand piano"
      },
      "name": "AtomPro",
      "notes": [],
      "endOfTrackTicks": 38400
    },
    {
      "channel": 0,
      "controlChanges": {
        "6": [
          {
            "number": 6,
            "ticks": 38400,
            "time": 31.475392,
            "value": 0.09448818897637795
          },
          {
            "number": 6,
            "ticks": 38400,
            "time": 31.475392,
            "value": 0.09448818897637795
          }
        ],
        "7": [
          {
            "number": 7,
            "ticks": 38400,
            "time": 31.475392,
            "value": 0.7874015748031497
          },
          {
            "number": 7,
            "ticks": 38400,
            "time": 31.475392,
            "value": 0.7874015748031497
          }
        ],
        "10": [
          {
            "number": 10,
            "ticks": 38400,
            "time": 31.475392,
            "value": 0.5039370078740157
          },
          {
            "number": 10,
            "ticks": 38400,
            "time": 31.475392,
            "value": 0.5039370078740157
          }
        ],
        "100": [
          {
            "number": 100,
            "ticks": 38400,
            "time": 31.475392,
            "value": 0
          },
          {
            "number": 100,
            "ticks": 38400,
            "time": 31.475392,
            "value": 0
          }
        ],
        "101": [
          {
            "number": 101,
            "ticks": 38400,
            "time": 31.475392,
            "value": 0
          },
          {
            "number": 101,
            "ticks": 38400,
            "time": 31.475392,
            "value": 0
          }
        ]
      },
      "pitchBends": [
        {
          "ticks": 0,
          "time": 0,
          "value": 0
        },
        {
          "ticks": 38400,
          "time": 31.475392,
          "value": 0
        },
        {
          "ticks": 38400,
          "time": 31.475392,
          "value": 0
        }
      ],
      "instrument": {
        "family": "guitar",
        "number": 30,
        "name": "distortion guitar"
      },
      "name": "",
      "notes": []
    },
    {
      "channel": 0,
      "controlChanges": {
        "6": [
          {
            "number": 6,
            "ticks": 0,
            "time": 0,
            "value": 0.09448818897637795
          }
        ],
        "7": [
          {
            "number": 7,
            "ticks": 0,
            "time": 0,
            "value": 0.7874015748031497
          },
          {
            "number": 7,
            "ticks": 0,
            "time": 0,
            "value": 0.7874015748031497
          }
        ],
        "10": [
          {
            "number": 10,
            "ticks": 0,
            "time": 0,
            "value": 0.5039370078740157
          },
          {
            "number": 10,
            "ticks": 0,
            "time": 0,
            "value": 0.5039370078740157
          }
        ],
        "100": [
          {
            "number": 100,
            "ticks": 0,
            "time": 0,
            "value": 0
          }
        ],
        "101": [
          {
            "number": 101,
            "ticks": 0,
            "time": 0,
            "value": 0
          }
        ]
      },
      "pitchBends": [
        {
          "ticks": 0,
          "time": 0,
          "value": 0
        },
        {
          "ticks": 0,
          "time": 0,
          "value": 0
        }
      ],
      "instrument": {
        "family": "piano",
        "number": 0,
        "name": "acoustic grand piano"
      },
      "name": "AtomPro",
      "notes": [],
      "endOfTrackTicks": 38400
    },
    {
      "channel": 0,
      "controlChanges": {
        "6": [
          {
            "number": 6,
            "ticks": 38400,
            "time": 31.475392,
            "value": 0.09448818897637795
          },
          {
            "number": 6,
            "ticks": 38400,
            "time": 31.475392,
            "value": 0.09448818897637795
          }
        ],
        "7": [
          {
            "number": 7,
            "ticks": 38400,
            "time": 31.475392,
            "value": 0.7874015748031497
          },
          {
            "number": 7,
            "ticks": 38400,
            "time": 31.475392,
            "value": 0.7874015748031497
          }
        ],
        "10": [
          {
            "number": 10,
            "ticks": 38400,
            "time": 31.475392,
            "value": 0.5039370078740157
          },
          {
            "number": 10,
            "ticks": 38400,
            "time": 31.475392,
            "value": 0.5039370078740157
          }
        ],
        "100": [
          {
            "number": 100,
            "ticks": 38400,
            "time": 31.475392,
            "value": 0
          },
          {
            "number": 100,
            "ticks": 38400,
            "time": 31.475392,
            "value": 0
          }
        ],
        "101": [
          {
            "number": 101,
            "ticks": 38400,
            "time": 31.475392,
            "value": 0
          },
          {
            "number": 101,
            "ticks": 38400,
            "time": 31.475392,
            "value": 0
          }
        ]
      },
      "pitchBends": [
        {
          "ticks": 0,
          "time": 0,
          "value": 0
        },
        {
          "ticks": 38400,
          "time": 31.475392,
          "value": 0
        },
        {
          "ticks": 38400,
          "time": 31.475392,
          "value": 0
        }
      ],
      "instrument": {
        "family": "organ",
        "number": 22,
        "name": "harmonica"
      },
      "name": "",
      "notes": []
    },
    {
      "channel": 0,
      "controlChanges": {
        "6": [
          {
            "number": 6,
            "ticks": 0,
            "time": 0,
            "value": 0.09448818897637795
          }
        ],
        "7": [
          {
            "number": 7,
            "ticks": 0,
            "time": 0,
            "value": 0.7874015748031497
          },
          {
            "number": 7,
            "ticks": 0,
            "time": 0,
            "value": 0.7874015748031497
          }
        ],
        "10": [
          {
            "number": 10,
            "ticks": 0,
            "time": 0,
            "value": 0.5039370078740157
          },
          {
            "number": 10,
            "ticks": 0,
            "time": 0,
            "value": 0.5039370078740157
          }
        ],
        "100": [
          {
            "number": 100,
            "ticks": 0,
            "time": 0,
            "value": 0
          }
        ],
        "101": [
          {
            "number": 101,
            "ticks": 0,
            "time": 0,
            "value": 0
          }
        ]
      },
      "pitchBends": [
        {
          "ticks": 0,
          "time": 0,
          "value": 0
        },
        {
          "ticks": 0,
          "time": 0,
          "value": 0
        }
      ],
      "instrument": {
        "family": "piano",
        "number": 0,
        "name": "acoustic grand piano"
      },
      "name": "AtomPro",
      "notes": [],
      "endOfTrackTicks": 38400
    },
    {
      "channel": 0,
      "controlChanges": {
        "6": [
          {
            "number": 6,
            "ticks": 38400,
            "time": 31.475392,
            "value": 0.09448818897637795
          },
          {
            "number": 6,
            "ticks": 38400,
            "time": 31.475392,
            "value": 0.09448818897637795
          }
        ],
        "7": [
          {
            "number": 7,
            "ticks": 38400,
            "time": 31.475392,
            "value": 0.7874015748031497
          },
          {
            "number": 7,
            "ticks": 38400,
            "time": 31.475392,
            "value": 0.7874015748031497
          }
        ],
        "10": [
          {
            "number": 10,
            "ticks": 38400,
            "time": 31.475392,
            "value": 0.5039370078740157
          },
          {
            "number": 10,
            "ticks": 38400,
            "time": 31.475392,
            "value": 0.5039370078740157
          }
        ],
        "100": [
          {
            "number": 100,
            "ticks": 38400,
            "time": 31.475392,
            "value": 0
          },
          {
            "number": 100,
            "ticks": 38400,
            "time": 31.475392,
            "value": 0
          }
        ],
        "101": [
          {
            "number": 101,
            "ticks": 38400,
            "time": 31.475392,
            "value": 0
          },
          {
            "number": 101,
            "ticks": 38400,
            "time": 31.475392,
            "value": 0
          }
        ]
      },
      "pitchBends": [
        {
          "ticks": 0,
          "time": 0,
          "value": 0
        },
        {
          "ticks": 38400,
          "time": 31.475392,
          "value": 0
        },
        {
          "ticks": 38400,
          "time": 31.475392,
          "value": 0
        }
      ],
      "instrument": {
        "family": "organ",
        "number": 21,
        "name": "accordion"
      },
      "name": "",
      "notes": []
    },
    {
      "channel": 0,
      "controlChanges": {
        "6": [
          {
            "number": 6,
            "ticks": 0,
            "time": 0,
            "value": 0.09448818897637795
          }
        ],
        "7": [
          {
            "number": 7,
            "ticks": 0,
            "time": 0,
            "value": 0.7874015748031497
          },
          {
            "number": 7,
            "ticks": 0,
            "time": 0,
            "value": 0.7874015748031497
          }
        ],
        "10": [
          {
            "number": 10,
            "ticks": 0,
            "time": 0,
            "value": 0.5039370078740157
          },
          {
            "number": 10,
            "ticks": 0,
            "time": 0,
            "value": 0.5039370078740157
          }
        ],
        "100": [
          {
            "number": 100,
            "ticks": 0,
            "time": 0,
            "value": 0
          }
        ],
        "101": [
          {
            "number": 101,
            "ticks": 0,
            "time": 0,
            "value": 0
          }
        ]
      },
      "pitchBends": [
        {
          "ticks": 0,
          "time": 0,
          "value": 0
        },
        {
          "ticks": 0,
          "time": 0,
          "value": 0
        }
      ],
      "instrument": {
        "family": "piano",
        "number": 0,
        "name": "acoustic grand piano"
      },
      "name": "AtomPro",
      "notes": [],
      "endOfTrackTicks": 38400
    },
    {
      "channel": 0,
      "controlChanges": {
        "6": [
          {
            "number": 6,
            "ticks": 38400,
            "time": 31.475392,
            "value": 0.09448818897637795
          },
          {
            "number": 6,
            "ticks": 38400,
            "time": 31.475392,
            "value": 0.09448818897637795
          }
        ],
        "7": [
          {
            "number": 7,
            "ticks": 38400,
            "time": 31.475392,
            "value": 0.7874015748031497
          },
          {
            "number": 7,
            "ticks": 38400,
            "time": 31.475392,
            "value": 0.7874015748031497
          }
        ],
        "10": [
          {
            "number": 10,
            "ticks": 38400,
            "time": 31.475392,
            "value": 0.5039370078740157
          },
          {
            "number": 10,
            "ticks": 38400,
            "time": 31.475392,
            "value": 0.5039370078740157
          }
        ],
        "100": [
          {
            "number": 100,
            "ticks": 38400,
            "time": 31.475392,
            "value": 0
          },
          {
            "number": 100,
            "ticks": 38400,
            "time": 31.475392,
            "value": 0
          }
        ],
        "101": [
          {
            "number": 101,
            "ticks": 38400,
            "time": 31.475392,
            "value": 0
          },
          {
            "number": 101,
            "ticks": 38400,
            "time": 31.475392,
            "value": 0
          }
        ]
      },
      "pitchBends": [
        {
          "ticks": 0,
          "time": 0,
          "value": 0
        },
        {
          "ticks": 38400,
          "time": 31.475392,
          "value": 0
        },
        {
          "ticks": 38400,
          "time": 31.475392,
          "value": 0
        }
      ],
      "instrument": {
        "family": "ensemble",
        "number": 50,
        "name": "synthstrings 1"
      },
      "name": "",
      "notes": []
    },
    {
      "channel": 0,
      "controlChanges": {
        "6": [
          {
            "number": 6,
            "ticks": 0,
            "time": 0,
            "value": 0.09448818897637795
          }
        ],
        "7": [
          {
            "number": 7,
            "ticks": 0,
            "time": 0,
            "value": 0.7874015748031497
          },
          {
            "number": 7,
            "ticks": 0,
            "time": 0,
            "value": 0.7874015748031497
          }
        ],
        "10": [
          {
            "number": 10,
            "ticks": 0,
            "time": 0,
            "value": 0.5039370078740157
          },
          {
            "number": 10,
            "ticks": 0,
            "time": 0,
            "value": 0.5039370078740157
          }
        ],
        "100": [
          {
            "number": 100,
            "ticks": 0,
            "time": 0,
            "value": 0
          }
        ],
        "101": [
          {
            "number": 101,
            "ticks": 0,
            "time": 0,
            "value": 0
          }
        ]
      },
      "pitchBends": [
        {
          "ticks": 0,
          "time": 0,
          "value": 0
        },
        {
          "ticks": 0,
          "time": 0,
          "value": 0
        }
      ],
      "instrument": {
        "family": "piano",
        "number": 0,
        "name": "acoustic grand piano"
      },
      "name": "AtomPro",
      "notes": [],
      "endOfTrackTicks": 38400
    },
    {
      "channel": 0,
      "controlChanges": {
        "6": [
          {
            "number": 6,
            "ticks": 38400,
            "time": 31.475392,
            "value": 0.09448818897637795
          },
          {
            "number": 6,
            "ticks": 38400,
            "time": 31.475392,
            "value": 0.09448818897637795
          }
        ],
        "7": [
          {
            "number": 7,
            "ticks": 38400,
            "time": 31.475392,
            "value": 0.7874015748031497
          },
          {
            "number": 7,
            "ticks": 38400,
            "time": 31.475392,
            "value": 0.7874015748031497
          }
        ],
        "10": [
          {
            "number": 10,
            "ticks": 38400,
            "time": 31.475392,
            "value": 0.5039370078740157
          },
          {
            "number": 10,
            "ticks": 38400,
            "time": 31.475392,
            "value": 0.5039370078740157
          }
        ],
        "100": [
          {
            "number": 100,
            "ticks": 38400,
            "time": 31.475392,
            "value": 0
          },
          {
            "number": 100,
            "ticks": 38400,
            "time": 31.475392,
            "value": 0
          }
        ],
        "101": [
          {
            "number": 101,
            "ticks": 38400,
            "time": 31.475392,
            "value": 0
          },
          {
            "number": 101,
            "ticks": 38400,
            "time": 31.475392,
            "value": 0
          }
        ]
      },
      "pitchBends": [
        {
          "ticks": 0,
          "time": 0,
          "value": 0
        },
        {
          "ticks": 38400,
          "time": 31.475392,
          "value": 0
        },
        {
          "ticks": 38400,
          "time": 31.475392,
          "value": 0
        }
      ],
      "instrument": {
        "family": "reed",
        "number": 66,
        "name": "tenor sax"
      },
      "name": "",
      "notes": []
    },
    {
      "channel": 0,
      "controlChanges": {
        "6": [
          {
            "number": 6,
            "ticks": 0,
            "time": 0,
            "value": 0.09448818897637795
          }
        ],
        "7": [
          {
            "number": 7,
            "ticks": 0,
            "time": 0,
            "value": 0.3858267716535433
          },
          {
            "number": 7,
            "ticks": 0,
            "time": 0,
            "value": 0.3858267716535433
          }
        ],
        "10": [
          {
            "number": 10,
            "ticks": 0,
            "time": 0,
            "value": 0.5039370078740157
          },
          {
            "number": 10,
            "ticks": 0,
            "time": 0,
            "value": 0.5039370078740157
          }
        ],
        "100": [
          {
            "number": 100,
            "ticks": 0,
            "time": 0,
            "value": 0
          }
        ],
        "101": [
          {
            "number": 101,
            "ticks": 0,
            "time": 0,
            "value": 0
          }
        ]
      },
      "pitchBends": [
        {
          "ticks": 0,
          "time": 0,
          "value": 0
        },
        {
          "ticks": 0,
          "time": 0,
          "value": 0
        }
      ],
      "instrument": {
        "family": "piano",
        "number": 0,
        "name": "acoustic grand piano"
      },
      "name": "AtomPro",
      "notes": [],
      "endOfTrackTicks": 38400
    },
    {
      "channel": 0,
      "controlChanges": {
        "6": [
          {
            "number": 6,
            "ticks": 38400,
            "time": 31.475392,
            "value": 0.09448818897637795
          },
          {
            "number": 6,
            "ticks": 38400,
            "time": 31.475392,
            "value": 0.09448818897637795
          }
        ],
        "7": [
          {
            "number": 7,
            "ticks": 38400,
            "time": 31.475392,
            "value": 0.3858267716535433
          },
          {
            "number": 7,
            "ticks": 38400,
            "time": 31.475392,
            "value": 0.3858267716535433
          }
        ],
        "10": [
          {
            "number": 10,
            "ticks": 38400,
            "time": 31.475392,
            "value": 0.5039370078740157
          },
          {
            "number": 10,
            "ticks": 38400,
            "time": 31.475392,
            "value": 0.5039370078740157
          }
        ],
        "100": [
          {
            "number": 100,
            "ticks": 38400,
            "time": 31.475392,
            "value": 0
          },
          {
            "number": 100,
            "ticks": 38400,
            "time": 31.475392,
            "value": 0
          }
        ],
        "101": [
          {
            "number": 101,
            "ticks": 38400,
            "time": 31.475392,
            "value": 0
          },
          {
            "number": 101,
            "ticks": 38400,
            "time": 31.475392,
            "value": 0
          }
        ]
      },
      "pitchBends": [
        {
          "ticks": 0,
          "time": 0,
          "value": 0
        },
        {
          "ticks": 38400,
          "time": 31.475392,
          "value": 0
        },
        {
          "ticks": 38400,
          "time": 31.475392,
          "value": 0
        }
      ],
      "instrument": {
        "family": "organ",
        "number": 18,
        "name": "rock organ"
      },
      "name": "",
      "notes": []
    },
    {
      "channel": 0,
      "controlChanges": {
        "6": [
          {
            "number": 6,
            "ticks": 0,
            "time": 0,
            "value": 0.09448818897637795
          }
        ],
        "7": [
          {
            "number": 7,
            "ticks": 0,
            "time": 0,
            "value": 0.7874015748031497
          },
          {
            "number": 7,
            "ticks": 0,
            "time": 0,
            "value": 0.7874015748031497
          }
        ],
        "10": [
          {
            "number": 10,
            "ticks": 0,
            "time": 0,
            "value": 0.5039370078740157
          },
          {
            "number": 10,
            "ticks": 0,
            "time": 0,
            "value": 0.5039370078740157
          }
        ],
        "100": [
          {
            "number": 100,
            "ticks": 0,
            "time": 0,
            "value": 0
          }
        ],
        "101": [
          {
            "number": 101,
            "ticks": 0,
            "time": 0,
            "value": 0
          }
        ]
      },
      "pitchBends": [
        {
          "ticks": 0,
          "time": 0,
          "value": 0
        },
        {
          "ticks": 0,
          "time": 0,
          "value": 0
        }
      ],
      "instrument": {
        "family": "piano",
        "number": 0,
        "name": "acoustic grand piano"
      },
      "name": "AtomPro",
      "notes": [],
      "endOfTrackTicks": 38400
    },
    {
      "channel": 7,
      "controlChanges": {
        "6": [
          {
            "number": 6,
            "ticks": 38400,
            "time": 31.475392,
            "value": 0.09448818897637795
          },
          {
            "number": 6,
            "ticks": 38400,
            "time": 31.475392,
            "value": 0.09448818897637795
          }
        ],
        "7": [
          {
            "number": 7,
            "ticks": 38400,
            "time": 31.475392,
            "value": 0.7874015748031497
          },
          {
            "number": 7,
            "ticks": 38400,
            "time": 31.475392,
            "value": 0.7874015748031497
          }
        ],
        "10": [
          {
            "number": 10,
            "ticks": 38400,
            "time": 31.475392,
            "value": 0.5039370078740157
          },
          {
            "number": 10,
            "ticks": 38400,
            "time": 31.475392,
            "value": 0.5039370078740157
          }
        ],
        "100": [
          {
            "number": 100,
            "ticks": 38400,
            "time": 31.475392,
            "value": 0
          },
          {
            "number": 100,
            "ticks": 38400,
            "time": 31.475392,
            "value": 0
          }
        ],
        "101": [
          {
            "number": 101,
            "ticks": 38400,
            "time": 31.475392,
            "value": 0
          },
          {
            "number": 101,
            "ticks": 38400,
            "time": 31.475392,
            "value": 0
          }
        ]
      },
      "pitchBends": [
        {
          "ticks": 0,
          "time": 0,
          "value": 0
        },
        {
          "ticks": 38400,
          "time": 31.475392,
          "value": 0
        },
        {
          "ticks": 38400,
          "time": 31.475392,
          "value": 0
        }
      ],
      "instrument": {
        "family": "guitar",
        "number": 30,
        "name": "distortion guitar"
      },
      "name": "",
      "notes": [
        {
          "duration": 0.12295075000000111,
          "durationTicks": 150,
          "midi": 36,
          "name": "C2",
          "ticks": 28800,
          "time": 23.606544,
          "velocity": 0.6299212598425197
        },
        {
          "duration": 0.12295075000000111,
          "durationTicks": 150,
          "midi": 48,
          "name": "C3",
          "ticks": 28800,
          "time": 23.606544,
          "velocity": 0.6299212598425197
        },
        {
          "duration": 0.12295074999999756,
          "durationTicks": 150,
          "midi": 36,
          "name": "C2",
          "ticks": 28950,
          "time": 23.72949475,
          "velocity": 0.3858267716535433
        },
        {
          "duration": 0.12295074999999756,
          "durationTicks": 150,
          "midi": 48,
          "name": "C3",
          "ticks": 28950,
          "time": 23.72949475,
          "velocity": 0.3858267716535433
        },
        {
          "duration": 0.12295075000000111,
          "durationTicks": 150,
          "midi": 36,
          "name": "C2",
          "ticks": 29100,
          "time": 23.852445499999998,
          "velocity": 0.6299212598425197
        },
        {
          "duration": 0.12295075000000111,
          "durationTicks": 150,
          "midi": 48,
          "name": "C3",
          "ticks": 29100,
          "time": 23.852445499999998,
          "velocity": 0.6299212598425197
        },
        {
          "duration": 0.12295075000000111,
          "durationTicks": 150,
          "midi": 36,
          "name": "C2",
          "ticks": 29250,
          "time": 23.97539625,
          "velocity": 0.3858267716535433
        },
        {
          "duration": 0.12295075000000111,
          "durationTicks": 150,
          "midi": 48,
          "name": "C3",
          "ticks": 29250,
          "time": 23.97539625,
          "velocity": 0.3858267716535433
        },
        {
          "duration": 0.12295074999999756,
          "durationTicks": 150,
          "midi": 36,
          "name": "C2",
          "ticks": 29400,
          "time": 24.098347,
          "velocity": 0.6299212598425197
        },
        {
          "duration": 0.12295074999999756,
          "durationTicks": 150,
          "midi": 48,
          "name": "C3",
          "ticks": 29400,
          "time": 24.098347,
          "velocity": 0.6299212598425197
        },
        {
          "duration": 0.12295075000000111,
          "durationTicks": 150,
          "midi": 36,
          "name": "C2",
          "ticks": 29550,
          "time": 24.221297749999998,
          "velocity": 0.3858267716535433
        },
        {
          "duration": 0.12295075000000111,
          "durationTicks": 150,
          "midi": 48,
          "name": "C3",
          "ticks": 29550,
          "time": 24.221297749999998,
          "velocity": 0.3858267716535433
        },
        {
          "duration": 0.12295075000000111,
          "durationTicks": 150,
          "midi": 36,
          "name": "C2",
          "ticks": 29700,
          "time": 24.3442485,
          "velocity": 0.6299212598425197
        },
        {
          "duration": 0.12295075000000111,
          "durationTicks": 150,
          "midi": 48,
          "name": "C3",
          "ticks": 29700,
          "time": 24.3442485,
          "velocity": 0.6299212598425197
        },
        {
          "duration": 0.24590149999999866,
          "durationTicks": 300,
          "midi": 36,
          "name": "C2",
          "ticks": 29850,
          "time": 24.46719925,
          "velocity": 0.6299212598425197
        },
        {
          "duration": 0.24590149999999866,
          "durationTicks": 300,
          "midi": 48,
          "name": "C3",
          "ticks": 29850,
          "time": 24.46719925,
          "velocity": 0.6299212598425197
        },
        {
          "duration": 0.12295075000000111,
          "durationTicks": 150,
          "midi": 36,
          "name": "C2",
          "ticks": 30150,
          "time": 24.71310075,
          "velocity": 0.3858267716535433
        },
        {
          "duration": 0.12295075000000111,
          "durationTicks": 150,
          "midi": 48,
          "name": "C3",
          "ticks": 30150,
          "time": 24.71310075,
          "velocity": 0.3858267716535433
        },
        {
          "duration": 0.12295075000000111,
          "durationTicks": 150,
          "midi": 36,
          "name": "C2",
          "ticks": 30300,
          "time": 24.8360515,
          "velocity": 0.6377952755905512
        },
        {
          "duration": 0.12295075000000111,
          "durationTicks": 150,
          "midi": 48,
          "name": "C3",
          "ticks": 30300,
          "time": 24.8360515,
          "velocity": 0.6377952755905512
        },
        {
          "duration": 0.12295074999999756,
          "durationTicks": 150,
          "midi": 36,
          "name": "C2",
          "ticks": 30450,
          "time": 24.95900225,
          "velocity": 0.3858267716535433
        },
        {
          "duration": 0.12295074999999756,
          "durationTicks": 150,
          "midi": 48,
          "name": "C3",
          "ticks": 30450,
          "time": 24.95900225,
          "velocity": 0.3858267716535433
        },
        {
          "duration": 0.12295075000000111,
          "durationTicks": 150,
          "midi": 36,
          "name": "C2",
          "ticks": 30600,
          "time": 25.081953,
          "velocity": 0.6377952755905512
        },
        {
          "duration": 0.12295075000000111,
          "durationTicks": 150,
          "midi": 48,
          "name": "C3",
          "ticks": 30600,
          "time": 25.081953,
          "velocity": 0.6377952755905512
        },
        {
          "duration": 0.12295075000000111,
          "durationTicks": 150,
          "midi": 36,
          "name": "C2",
          "ticks": 30750,
          "time": 25.20490375,
          "velocity": 0.3858267716535433
        },
        {
          "duration": 0.12295075000000111,
          "durationTicks": 150,
          "midi": 48,
          "name": "C3",
          "ticks": 30750,
          "time": 25.20490375,
          "velocity": 0.3858267716535433
        },
        {
          "duration": 0.12295074999999756,
          "durationTicks": 150,
          "midi": 36,
          "name": "C2",
          "ticks": 30900,
          "time": 25.3278545,
          "velocity": 0.6377952755905512
        },
        {
          "duration": 0.12295074999999756,
          "durationTicks": 150,
          "midi": 48,
          "name": "C3",
          "ticks": 30900,
          "time": 25.3278545,
          "velocity": 0.6377952755905512
        },
        {
          "duration": 0.12295075000000111,
          "durationTicks": 150,
          "midi": 36,
          "name": "C2",
          "ticks": 31050,
          "time": 25.45080525,
          "velocity": 0.3937007874015748
        },
        {
          "duration": 0.12295075000000111,
          "durationTicks": 150,
          "midi": 48,
          "name": "C3",
          "ticks": 31050,
          "time": 25.45080525,
          "velocity": 0.3937007874015748
        },
        {
          "duration": 0.12295075000000111,
          "durationTicks": 150,
          "midi": 36,
          "name": "C2",
          "ticks": 31200,
          "time": 25.573756,
          "velocity": 0.6299212598425197
        },
        {
          "duration": 0.12295075000000111,
          "durationTicks": 150,
          "midi": 48,
          "name": "C3",
          "ticks": 31200,
          "time": 25.573756,
          "velocity": 0.6299212598425197
        },
        {
          "duration": 0.12295074999999756,
          "durationTicks": 150,
          "midi": 36,
          "name": "C2",
          "ticks": 31350,
          "time": 25.69670675,
          "velocity": 0.3858267716535433
        },
        {
          "duration": 0.12295074999999756,
          "durationTicks": 150,
          "midi": 48,
          "name": "C3",
          "ticks": 31350,
          "time": 25.69670675,
          "velocity": 0.3858267716535433
        },
        {
          "duration": 0.12295075000000111,
          "durationTicks": 150,
          "midi": 36,
          "name": "C2",
          "ticks": 31500,
          "time": 25.819657499999998,
          "velocity": 0.6299212598425197
        },
        {
          "duration": 0.12295075000000111,
          "durationTicks": 150,
          "midi": 48,
          "name": "C3",
          "ticks": 31500,
          "time": 25.819657499999998,
          "velocity": 0.6299212598425197
        },
        {
          "duration": 0.12295075000000111,
          "durationTicks": 150,
          "midi": 36,
          "name": "C2",
          "ticks": 31650,
          "time": 25.94260825,
          "velocity": 0.3858267716535433
        },
        {
          "duration": 0.12295075000000111,
          "durationTicks": 150,
          "midi": 48,
          "name": "C3",
          "ticks": 31650,
          "time": 25.94260825,
          "velocity": 0.3858267716535433
        },
        {
          "duration": 0.12295074999999756,
          "durationTicks": 150,
          "midi": 36,
          "name": "C2",
          "ticks": 31800,
          "time": 26.065559,
          "velocity": 0.6299212598425197
        },
        {
          "duration": 0.12295074999999756,
          "durationTicks": 150,
          "midi": 48,
          "name": "C3",
          "ticks": 31800,
          "time": 26.065559,
          "velocity": 0.6299212598425197
        },
        {
          "duration": 0.12295075000000111,
          "durationTicks": 150,
          "midi": 36,
          "name": "C2",
          "ticks": 31950,
          "time": 26.188509749999998,
          "velocity": 0.3858267716535433
        },
        {
          "duration": 0.12295075000000111,
          "durationTicks": 150,
          "midi": 48,
          "name": "C3",
          "ticks": 31950,
          "time": 26.188509749999998,
          "velocity": 0.3858267716535433
        },
        {
          "duration": 0.12295075000000111,
          "durationTicks": 150,
          "midi": 36,
          "name": "C2",
          "ticks": 32100,
          "time": 26.3114605,
          "velocity": 0.6299212598425197
        },
        {
          "duration": 0.12295075000000111,
          "durationTicks": 150,
          "midi": 48,
          "name": "C3",
          "ticks": 32100,
          "time": 26.3114605,
          "velocity": 0.6299212598425197
        },
        {
          "duration": 0.24590149999999866,
          "durationTicks": 300,
          "midi": 36,
          "name": "C2",
          "ticks": 32250,
          "time": 26.43441125,
          "velocity": 0.6299212598425197
        },
        {
          "duration": 0.24590149999999866,
          "durationTicks": 300,
          "midi": 48,
          "name": "C3",
          "ticks": 32250,
          "time": 26.43441125,
          "velocity": 0.6299212598425197
        },
        {
          "duration": 0.12295075000000111,
          "durationTicks": 150,
          "midi": 36,
          "name": "C2",
          "ticks": 32550,
          "time": 26.68031275,
          "velocity": 0.3858267716535433
        },
        {
          "duration": 0.12295075000000111,
          "durationTicks": 150,
          "midi": 48,
          "name": "C3",
          "ticks": 32550,
          "time": 26.68031275,
          "velocity": 0.3858267716535433
        },
        {
          "duration": 0.12295075000000111,
          "durationTicks": 150,
          "midi": 36,
          "name": "C2",
          "ticks": 32700,
          "time": 26.8032635,
          "velocity": 0.6377952755905512
        },
        {
          "duration": 0.12295075000000111,
          "durationTicks": 150,
          "midi": 48,
          "name": "C3",
          "ticks": 32700,
          "time": 26.8032635,
          "velocity": 0.6377952755905512
        },
        {
          "duration": 0.12295074999999756,
          "durationTicks": 150,
          "midi": 36,
          "name": "C2",
          "ticks": 32850,
          "time": 26.92621425,
          "velocity": 0.3858267716535433
        },
        {
          "duration": 0.12295074999999756,
          "durationTicks": 150,
          "midi": 48,
          "name": "C3",
          "ticks": 32850,
          "time": 26.92621425,
          "velocity": 0.3858267716535433
        },
        {
          "duration": 0.12295075000000111,
          "durationTicks": 150,
          "midi": 36,
          "name": "C2",
          "ticks": 33000,
          "time": 27.049165,
          "velocity": 0.6377952755905512
        },
        {
          "duration": 0.12295075000000111,
          "durationTicks": 150,
          "midi": 48,
          "name": "C3",
          "ticks": 33000,
          "time": 27.049165,
          "velocity": 0.6377952755905512
        },
        {
          "duration": 0.12295075000000111,
          "durationTicks": 150,
          "midi": 36,
          "name": "C2",
          "ticks": 33150,
          "time": 27.17211575,
          "velocity": 0.3858267716535433
        },
        {
          "duration": 0.12295075000000111,
          "durationTicks": 150,
          "midi": 48,
          "name": "C3",
          "ticks": 33150,
          "time": 27.17211575,
          "velocity": 0.3858267716535433
        },
        {
          "duration": 0.12295074999999756,
          "durationTicks": 150,
          "midi": 36,
          "name": "C2",
          "ticks": 33300,
          "time": 27.2950665,
          "velocity": 0.6377952755905512
        },
        {
          "duration": 0.12295074999999756,
          "durationTicks": 150,
          "midi": 48,
          "name": "C3",
          "ticks": 33300,
          "time": 27.2950665,
          "velocity": 0.6377952755905512
        },
        {
          "duration": 0.12295075000000111,
          "durationTicks": 150,
          "midi": 36,
          "name": "C2",
          "ticks": 33450,
          "time": 27.41801725,
          "velocity": 0.3937007874015748
        },
        {
          "duration": 0.12295075000000111,
          "durationTicks": 150,
          "midi": 48,
          "name": "C3",
          "ticks": 33450,
          "time": 27.41801725,
          "velocity": 0.3937007874015748
        },
        {
          "duration": 0.12295075000000111,
          "durationTicks": 150,
          "midi": 32,
          "name": "G#1",
          "ticks": 33600,
          "time": 27.540968,
          "velocity": 0.6299212598425197
        },
        {
          "duration": 0.12295075000000111,
          "durationTicks": 150,
          "midi": 44,
          "name": "G#2",
          "ticks": 33600,
          "time": 27.540968,
          "velocity": 0.6299212598425197
        },
        {
          "duration": 0.12295074999999756,
          "durationTicks": 150,
          "midi": 32,
          "name": "G#1",
          "ticks": 33750,
          "time": 27.66391875,
          "velocity": 0.3858267716535433
        },
        {
          "duration": 0.12295074999999756,
          "durationTicks": 150,
          "midi": 44,
          "name": "G#2",
          "ticks": 33750,
          "time": 27.66391875,
          "velocity": 0.3858267716535433
        },
        {
          "duration": 0.12295075000000111,
          "durationTicks": 150,
          "midi": 32,
          "name": "G#1",
          "ticks": 33900,
          "time": 27.786869499999998,
          "velocity": 0.6299212598425197
        },
        {
          "duration": 0.12295075000000111,
          "durationTicks": 150,
          "midi": 44,
          "name": "G#2",
          "ticks": 33900,
          "time": 27.786869499999998,
          "velocity": 0.6299212598425197
        },
        {
          "duration": 0.12295075000000111,
          "durationTicks": 150,
          "midi": 32,
          "name": "G#1",
          "ticks": 34050,
          "time": 27.90982025,
          "velocity": 0.3858267716535433
        },
        {
          "duration": 0.12295075000000111,
          "durationTicks": 150,
          "midi": 44,
          "name": "G#2",
          "ticks": 34050,
          "time": 27.90982025,
          "velocity": 0.3858267716535433
        },
        {
          "duration": 0.12295074999999756,
          "durationTicks": 150,
          "midi": 32,
          "name": "G#1",
          "ticks": 34200,
          "time": 28.032771,
          "velocity": 0.6299212598425197
        },
        {
          "duration": 0.12295074999999756,
          "durationTicks": 150,
          "midi": 44,
          "name": "G#2",
          "ticks": 34200,
          "time": 28.032771,
          "velocity": 0.6299212598425197
        },
        {
          "duration": 0.12295075000000111,
          "durationTicks": 150,
          "midi": 32,
          "name": "G#1",
          "ticks": 34350,
          "time": 28.155721749999998,
          "velocity": 0.3858267716535433
        },
        {
          "duration": 0.12295075000000111,
          "durationTicks": 150,
          "midi": 44,
          "name": "G#2",
          "ticks": 34350,
          "time": 28.155721749999998,
          "velocity": 0.3858267716535433
        },
        {
          "duration": 0.12295075000000111,
          "durationTicks": 150,
          "midi": 32,
          "name": "G#1",
          "ticks": 34500,
          "time": 28.2786725,
          "velocity": 0.6299212598425197
        },
        {
          "duration": 0.12295075000000111,
          "durationTicks": 150,
          "midi": 44,
          "name": "G#2",
          "ticks": 34500,
          "time": 28.2786725,
          "velocity": 0.6299212598425197
        },
        {
          "duration": 0.24590149999999866,
          "durationTicks": 300,
          "midi": 32,
          "name": "G#1",
          "ticks": 34650,
          "time": 28.40162325,
          "velocity": 0.6299212598425197
        },
        {
          "duration": 0.24590149999999866,
          "durationTicks": 300,
          "midi": 44,
          "name": "G#2",
          "ticks": 34650,
          "time": 28.40162325,
          "velocity": 0.6299212598425197
        },
        {
          "duration": 0.12295075000000111,
          "durationTicks": 150,
          "midi": 32,
          "name": "G#1",
          "ticks": 34950,
          "time": 28.64752475,
          "velocity": 0.3858267716535433
        },
        {
          "duration": 0.12295075000000111,
          "durationTicks": 150,
          "midi": 44,
          "name": "G#2",
          "ticks": 34950,
          "time": 28.64752475,
          "velocity": 0.3858267716535433
        },
        {
          "duration": 0.12295075000000111,
          "durationTicks": 150,
          "midi": 32,
          "name": "G#1",
          "ticks": 35100,
          "time": 28.7704755,
          "velocity": 0.6377952755905512
        },
        {
          "duration": 0.12295075000000111,
          "durationTicks": 150,
          "midi": 44,
          "name": "G#2",
          "ticks": 35100,
          "time": 28.7704755,
          "velocity": 0.6377952755905512
        },
        {
          "duration": 0.12295074999999756,
          "durationTicks": 150,
          "midi": 32,
          "name": "G#1",
          "ticks": 35250,
          "time": 28.89342625,
          "velocity": 0.3858267716535433
        },
        {
          "duration": 0.12295074999999756,
          "durationTicks": 150,
          "midi": 44,
          "name": "G#2",
          "ticks": 35250,
          "time": 28.89342625,
          "velocity": 0.3858267716535433
        },
        {
          "duration": 0.12295075000000111,
          "durationTicks": 150,
          "midi": 32,
          "name": "G#1",
          "ticks": 35400,
          "time": 29.016377,
          "velocity": 0.6377952755905512
        },
        {
          "duration": 0.12295075000000111,
          "durationTicks": 150,
          "midi": 44,
          "name": "G#2",
          "ticks": 35400,
          "time": 29.016377,
          "velocity": 0.6377952755905512
        },
        {
          "duration": 0.12295075000000111,
          "durationTicks": 150,
          "midi": 32,
          "name": "G#1",
          "ticks": 35550,
          "time": 29.13932775,
          "velocity": 0.3858267716535433
        },
        {
          "duration": 0.12295075000000111,
          "durationTicks": 150,
          "midi": 44,
          "name": "G#2",
          "ticks": 35550,
          "time": 29.13932775,
          "velocity": 0.3858267716535433
        },
        {
          "duration": 0.12295074999999756,
          "durationTicks": 150,
          "midi": 32,
          "name": "G#1",
          "ticks": 35700,
          "time": 29.2622785,
          "velocity": 0.6377952755905512
        },
        {
          "duration": 0.12295074999999756,
          "durationTicks": 150,
          "midi": 44,
          "name": "G#2",
          "ticks": 35700,
          "time": 29.2622785,
          "velocity": 0.6377952755905512
        },
        {
          "duration": 0.12295075000000111,
          "durationTicks": 150,
          "midi": 32,
          "name": "G#1",
          "ticks": 35850,
          "time": 29.38522925,
          "velocity": 0.3937007874015748
        },
        {
          "duration": 0.12295075000000111,
          "durationTicks": 150,
          "midi": 44,
          "name": "G#2",
          "ticks": 35850,
          "time": 29.38522925,
          "velocity": 0.3937007874015748
        }
      ]
    },
    {
      "channel": 9,
      "controlChanges": {
        "6": [
          {
            "number": 6,
            "ticks": 0,
            "time": 0,
            "value": 0.09448818897637795
          },
          {
            "number": 6,
            "ticks": 38400,
            "time": 31.475392,
            "value": 0.09448818897637795
          },
          {
            "number": 6,
            "ticks": 38400,
            "time": 31.475392,
            "value": 0.09448818897637795
          }
        ],
        "7": [
          {
            "number": 7,
            "ticks": 0,
            "time": 0,
            "value": 0.7874015748031497
          },
          {
            "number": 7,
            "ticks": 0,
            "time": 0,
            "value": 0.7874015748031497
          },
          {
            "number": 7,
            "ticks": 38400,
            "time": 31.475392,
            "value": 0.7874015748031497
          },
          {
            "number": 7,
            "ticks": 38400,
            "time": 31.475392,
            "value": 0.7874015748031497
          }
        ],
        "10": [
          {
            "number": 10,
            "ticks": 0,
            "time": 0,
            "value": 0.3858267716535433
          },
          {
            "number": 10,
            "ticks": 0,
            "time": 0,
            "value": 0.3858267716535433
          },
          {
            "number": 10,
            "ticks": 38400,
            "time": 31.475392,
            "value": 0.3858267716535433
          },
          {
            "number": 10,
            "ticks": 38400,
            "time": 31.475392,
            "value": 0.3858267716535433
          }
        ],
        "100": [
          {
            "number": 100,
            "ticks": 0,
            "time": 0,
            "value": 0
          },
          {
            "number": 100,
            "ticks": 38400,
            "time": 31.475392,
            "value": 0
          },
          {
            "number": 100,
            "ticks": 38400,
            "time": 31.475392,
            "value": 0
          }
        ],
        "101": [
          {
            "number": 101,
            "ticks": 0,
            "time": 0,
            "value": 0
          },
          {
            "number": 101,
            "ticks": 38400,
            "time": 31.475392,
            "value": 0
          },
          {
            "number": 101,
            "ticks": 38400,
            "time": 31.475392,
            "value": 0
          }
        ]
      },
      "pitchBends": [
        {
          "ticks": 0,
          "time": 0,
          "value": 0
        },
        {
          "ticks": 0,
          "time": 0,
          "value": 0
        },
        {
          "ticks": 0,
          "time": 0,
          "value": 0
        },
        {
          "ticks": 38400,
          "time": 31.475392,
          "value": 0
        },
        {
          "ticks": 38400,
          "time": 31.475392,
          "value": 0
        }
      ],
      "instrument": {
        "family": "drums",
        "number": 0,
        "name": "standard kit"
      },
      "name": "AtomPro",
      "notes": [
        {
          "duration": 0.10737698833333198,
          "durationTicks": 131,
          "midi": 78,
          "name": "F#5",
          "ticks": 28800,
          "time": 23.606544,
          "velocity": 0.6535433070866141
        },
        {
          "duration": 0.3532784883333342,
          "durationTicks": 431,
          "midi": 46,
          "name": "A#2",
          "ticks": 28800,
          "time": 23.606544,
          "velocity": 0.6535433070866141
        },
        {
          "duration": 0.10737698833333198,
          "durationTicks": 131,
          "midi": 36,
          "name": "C2",
          "ticks": 28800,
          "time": 23.606544,
          "velocity": 0.6535433070866141
        },
        {
          "duration": 0.10737698833333198,
          "durationTicks": 131,
          "midi": 78,
          "name": "F#5",
          "ticks": 28800,
          "time": 23.606544,
          "velocity": 0.6535433070866141
        },
        {
          "duration": 0.10737698833333198,
          "durationTicks": 131,
          "midi": 78,
          "name": "F#5",
          "ticks": 28800,
          "time": 23.606544,
          "velocity": 0.6535433070866141
        },
        {
          "duration": 0.10737698833333198,
          "durationTicks": 131,
          "midi": 78,
          "name": "F#5",
          "ticks": 28800,
          "time": 23.606544,
          "velocity": 0.6535433070866141
        },
        {
          "duration": 0.10737698833333198,
          "durationTicks": 131,
          "midi": 78,
          "name": "F#5",
          "ticks": 28800,
          "time": 23.606544,
          "velocity": 0.6535433070866141
        },
        {
          "duration": 0.10737698833333198,
          "durationTicks": 131,
          "midi": 78,
          "name": "F#5",
          "ticks": 28800,
          "time": 23.606544,
          "velocity": 0.6535433070866141
        },
        {
          "duration": 0.10737698833333198,
          "durationTicks": 131,
          "midi": 78,
          "name": "F#5",
          "ticks": 28800,
          "time": 23.606544,
          "velocity": 0.6535433070866141
        },
        {
          "duration": 0.10737698833333198,
          "durationTicks": 131,
          "midi": 78,
          "name": "F#5",
          "ticks": 28800,
          "time": 23.606544,
          "velocity": 0.6535433070866141
        },
        {
          "duration": 0.10737698833333198,
          "durationTicks": 131,
          "midi": 78,
          "name": "F#5",
          "ticks": 28800,
          "time": 23.606544,
          "velocity": 0.6535433070866141
        },
        {
          "duration": 0.10737698833333198,
          "durationTicks": 131,
          "midi": 78,
          "name": "F#5",
          "ticks": 28800,
          "time": 23.606544,
          "velocity": 0.6535433070866141
        },
        {
          "duration": 0.10737698833333198,
          "durationTicks": 131,
          "midi": 78,
          "name": "F#5",
          "ticks": 28800,
          "time": 23.606544,
          "velocity": 0.6535433070866141
        },
        {
          "duration": 0.10737698833333198,
          "durationTicks": 131,
          "midi": 78,
          "name": "F#5",
          "ticks": 28800,
          "time": 23.606544,
          "velocity": 0.6535433070866141
        },
        {
          "duration": 0.10737698833333198,
          "durationTicks": 131,
          "midi": 78,
          "name": "F#5",
          "ticks": 28800,
          "time": 23.606544,
          "velocity": 0.6535433070866141
        },
        {
          "duration": 0.10737698833333198,
          "durationTicks": 131,
          "midi": 78,
          "name": "F#5",
          "ticks": 28800,
          "time": 23.606544,
          "velocity": 0.6535433070866141
        },
        {
          "duration": 0.10737698833333198,
          "durationTicks": 131,
          "midi": 78,
          "name": "F#5",
          "ticks": 28800,
          "time": 23.606544,
          "velocity": 0.6535433070866141
        },
        {
          "duration": 0.10737698833333198,
          "durationTicks": 131,
          "midi": 78,
          "name": "F#5",
          "ticks": 28800,
          "time": 23.606544,
          "velocity": 0.6535433070866141
        },
        {
          "duration": 0.10737698833333553,
          "durationTicks": 131,
          "midi": 36,
          "name": "C2",
          "ticks": 29100,
          "time": 23.852445499999998,
          "velocity": 0.6535433070866141
        },
        {
          "duration": 0.3532784883333342,
          "durationTicks": 431,
          "midi": 38,
          "name": "D2",
          "ticks": 29400,
          "time": 24.098347,
          "velocity": 0.6535433070866141
        },
        {
          "duration": 0.3532784883333342,
          "durationTicks": 431,
          "midi": 46,
          "name": "A#2",
          "ticks": 29400,
          "time": 24.098347,
          "velocity": 0.6535433070866141
        },
        {
          "duration": 0.10737698833333553,
          "durationTicks": 131,
          "midi": 36,
          "name": "C2",
          "ticks": 29700,
          "time": 24.3442485,
          "velocity": 0.6535433070866141
        },
        {
          "duration": 0.10737698833333198,
          "durationTicks": 131,
          "midi": 79,
          "name": "G5",
          "ticks": 30000,
          "time": 24.59015,
          "velocity": 0.6535433070866141
        },
        {
          "duration": 0.10737698833333198,
          "durationTicks": 131,
          "midi": 36,
          "name": "C2",
          "ticks": 30000,
          "time": 24.59015,
          "velocity": 0.6535433070866141
        },
        {
          "duration": 0.35327848833333064,
          "durationTicks": 431,
          "midi": 46,
          "name": "A#2",
          "ticks": 30000,
          "time": 24.59015,
          "velocity": 0.6535433070866141
        },
        {
          "duration": 0.10737698833333198,
          "durationTicks": 131,
          "midi": 36,
          "name": "C2",
          "ticks": 30300,
          "time": 24.8360515,
          "velocity": 0.6535433070866141
        },
        {
          "duration": 0.3532784883333342,
          "durationTicks": 431,
          "midi": 46,
          "name": "A#2",
          "ticks": 30600,
          "time": 25.081953,
          "velocity": 0.6535433070866141
        },
        {
          "duration": 0.3532784883333342,
          "durationTicks": 431,
          "midi": 38,
          "name": "D2",
          "ticks": 30600,
          "time": 25.081953,
          "velocity": 0.6535433070866141
        },
        {
          "duration": 0.10737698833333198,
          "durationTicks": 131,
          "midi": 36,
          "name": "C2",
          "ticks": 30900,
          "time": 25.3278545,
          "velocity": 0.6535433070866141
        },
        {
          "duration": 0.3532784883333342,
          "durationTicks": 431,
          "midi": 46,
          "name": "A#2",
          "ticks": 31200,
          "time": 25.573756,
          "velocity": 0.6535433070866141
        },
        {
          "duration": 0.10737698833333198,
          "durationTicks": 131,
          "midi": 78,
          "name": "F#5",
          "ticks": 31200,
          "time": 25.573756,
          "velocity": 0.6535433070866141
        },
        {
          "duration": 0.10737698833333198,
          "durationTicks": 131,
          "midi": 78,
          "name": "F#5",
          "ticks": 31200,
          "time": 25.573756,
          "velocity": 0.6535433070866141
        },
        {
          "duration": 0.10737698833333198,
          "durationTicks": 131,
          "midi": 78,
          "name": "F#5",
          "ticks": 31200,
          "time": 25.573756,
          "velocity": 0.6535433070866141
        },
        {
          "duration": 0.10737698833333198,
          "durationTicks": 131,
          "midi": 78,
          "name": "F#5",
          "ticks": 31200,
          "time": 25.573756,
          "velocity": 0.6535433070866141
        },
        {
          "duration": 0.10737698833333198,
          "durationTicks": 131,
          "midi": 78,
          "name": "F#5",
          "ticks": 31200,
          "time": 25.573756,
          "velocity": 0.6535433070866141
        },
        {
          "duration": 0.10737698833333198,
          "durationTicks": 131,
          "midi": 78,
          "name": "F#5",
          "ticks": 31200,
          "time": 25.573756,
          "velocity": 0.6535433070866141
        },
        {
          "duration": 0.10737698833333198,
          "durationTicks": 131,
          "midi": 78,
          "name": "F#5",
          "ticks": 31200,
          "time": 25.573756,
          "velocity": 0.6535433070866141
        },
        {
          "duration": 0.10737698833333198,
          "durationTicks": 131,
          "midi": 78,
          "name": "F#5",
          "ticks": 31200,
          "time": 25.573756,
          "velocity": 0.6535433070866141
        },
        {
          "duration": 0.10737698833333198,
          "durationTicks": 131,
          "midi": 78,
          "name": "F#5",
          "ticks": 31200,
          "time": 25.573756,
          "velocity": 0.6535433070866141
        },
        {
          "duration": 0.10737698833333198,
          "durationTicks": 131,
          "midi": 78,
          "name": "F#5",
          "ticks": 31200,
          "time": 25.573756,
          "velocity": 0.6535433070866141
        },
        {
          "duration": 0.10737698833333198,
          "durationTicks": 131,
          "midi": 78,
          "name": "F#5",
          "ticks": 31200,
          "time": 25.573756,
          "velocity": 0.6535433070866141
        },
        {
          "duration": 0.10737698833333198,
          "durationTicks": 131,
          "midi": 78,
          "name": "F#5",
          "ticks": 31200,
          "time": 25.573756,
          "velocity": 0.6535433070866141
        },
        {
          "duration": 0.10737698833333198,
          "durationTicks": 131,
          "midi": 78,
          "name": "F#5",
          "ticks": 31200,
          "time": 25.573756,
          "velocity": 0.6535433070866141
        },
        {
          "duration": 0.10737698833333198,
          "durationTicks": 131,
          "midi": 78,
          "name": "F#5",
          "ticks": 31200,
          "time": 25.573756,
          "velocity": 0.6535433070866141
        },
        {
          "duration": 0.10737698833333198,
          "durationTicks": 131,
          "midi": 78,
          "name": "F#5",
          "ticks": 31200,
          "time": 25.573756,
          "velocity": 0.6535433070866141
        },
        {
          "duration": 0.10737698833333198,
          "durationTicks": 131,
          "midi": 78,
          "name": "F#5",
          "ticks": 31200,
          "time": 25.573756,
          "velocity": 0.6535433070866141
        },
        {
          "duration": 0.10737698833333198,
          "durationTicks": 131,
          "midi": 36,
          "name": "C2",
          "ticks": 31200,
          "time": 25.573756,
          "velocity": 0.6535433070866141
        },
        {
          "duration": 0.10737698833333553,
          "durationTicks": 131,
          "midi": 36,
          "name": "C2",
          "ticks": 31500,
          "time": 25.819657499999998,
          "velocity": 0.6535433070866141
        },
        {
          "duration": 0.3532784883333342,
          "durationTicks": 431,
          "midi": 46,
          "name": "A#2",
          "ticks": 31800,
          "time": 26.065559,
          "velocity": 0.6535433070866141
        },
        {
          "duration": 0.3532784883333342,
          "durationTicks": 431,
          "midi": 38,
          "name": "D2",
          "ticks": 31800,
          "time": 26.065559,
          "velocity": 0.6535433070866141
        },
        {
          "duration": 0.10737698833333198,
          "durationTicks": 131,
          "midi": 79,
          "name": "G5",
          "ticks": 31800,
          "time": 26.065559,
          "velocity": 0.6535433070866141
        },
        {
          "duration": 0.10737698833333198,
          "durationTicks": 131,
          "midi": 79,
          "name": "G5",
          "ticks": 31800,
          "time": 26.065559,
          "velocity": 0.6535433070866141
        },
        {
          "duration": 0.10737698833333198,
          "durationTicks": 131,
          "midi": 79,
          "name": "G5",
          "ticks": 31800,
          "time": 26.065559,
          "velocity": 0.6535433070866141
        },
        {
          "duration": 0.10737698833333198,
          "durationTicks": 131,
          "midi": 79,
          "name": "G5",
          "ticks": 31800,
          "time": 26.065559,
          "velocity": 0.6535433070866141
        },
        {
          "duration": 0.10737698833333198,
          "durationTicks": 131,
          "midi": 79,
          "name": "G5",
          "ticks": 31800,
          "time": 26.065559,
          "velocity": 0.6535433070866141
        },
        {
          "duration": 0.10737698833333198,
          "durationTicks": 131,
          "midi": 79,
          "name": "G5",
          "ticks": 31800,
          "time": 26.065559,
          "velocity": 0.6535433070866141
        },
        {
          "duration": 0.10737698833333198,
          "durationTicks": 131,
          "midi": 79,
          "name": "G5",
          "ticks": 31800,
          "time": 26.065559,
          "velocity": 0.6535433070866141
        },
        {
          "duration": 0.10737698833333198,
          "durationTicks": 131,
          "midi": 79,
          "name": "G5",
          "ticks": 31800,
          "time": 26.065559,
          "velocity": 0.6535433070866141
        },
        {
          "duration": 0.10737698833333198,
          "durationTicks": 131,
          "midi": 79,
          "name": "G5",
          "ticks": 31800,
          "time": 26.065559,
          "velocity": 0.6535433070866141
        },
        {
          "duration": 0.10737698833333198,
          "durationTicks": 131,
          "midi": 79,
          "name": "G5",
          "ticks": 31800,
          "time": 26.065559,
          "velocity": 0.6535433070866141
        },
        {
          "duration": 0.10737698833333198,
          "durationTicks": 131,
          "midi": 79,
          "name": "G5",
          "ticks": 31800,
          "time": 26.065559,
          "velocity": 0.6535433070866141
        },
        {
          "duration": 0.10737698833333198,
          "durationTicks": 131,
          "midi": 79,
          "name": "G5",
          "ticks": 31800,
          "time": 26.065559,
          "velocity": 0.6535433070866141
        },
        {
          "duration": 0.10737698833333198,
          "durationTicks": 131,
          "midi": 79,
          "name": "G5",
          "ticks": 31800,
          "time": 26.065559,
          "velocity": 0.6535433070866141
        },
        {
          "duration": 0.10737698833333198,
          "durationTicks": 131,
          "midi": 79,
          "name": "G5",
          "ticks": 31800,
          "time": 26.065559,
          "velocity": 0.6535433070866141
        },
        {
          "duration": 0.10737698833333198,
          "durationTicks": 131,
          "midi": 79,
          "name": "G5",
          "ticks": 31800,
          "time": 26.065559,
          "velocity": 0.6535433070866141
        },
        {
          "duration": 0.10737698833333198,
          "durationTicks": 131,
          "midi": 79,
          "name": "G5",
          "ticks": 31800,
          "time": 26.065559,
          "velocity": 0.6535433070866141
        },
        {
          "duration": 0.10737698833333553,
          "durationTicks": 131,
          "midi": 36,
          "name": "C2",
          "ticks": 32100,
          "time": 26.3114605,
          "velocity": 0.6535433070866141
        },
        {
          "duration": 0.3532784883333342,
          "durationTicks": 431,
          "midi": 46,
          "name": "A#2",
          "ticks": 32400,
          "time": 26.557361999999998,
          "velocity": 0.6535433070866141
        },
        {
          "duration": 0.10737698833333553,
          "durationTicks": 131,
          "midi": 78,
          "name": "F#5",
          "ticks": 32400,
          "time": 26.557361999999998,
          "velocity": 0.6535433070866141
        },
        {
          "duration": 0.10737698833333553,
          "durationTicks": 131,
          "midi": 78,
          "name": "F#5",
          "ticks": 32400,
          "time": 26.557361999999998,
          "velocity": 0.6535433070866141
        },
        {
          "duration": 0.10737698833333553,
          "durationTicks": 131,
          "midi": 78,
          "name": "F#5",
          "ticks": 32400,
          "time": 26.557361999999998,
          "velocity": 0.6535433070866141
        },
        {
          "duration": 0.10737698833333553,
          "durationTicks": 131,
          "midi": 78,
          "name": "F#5",
          "ticks": 32400,
          "time": 26.557361999999998,
          "velocity": 0.6535433070866141
        },
        {
          "duration": 0.10737698833333553,
          "durationTicks": 131,
          "midi": 78,
          "name": "F#5",
          "ticks": 32400,
          "time": 26.557361999999998,
          "velocity": 0.6535433070866141
        },
        {
          "duration": 0.10737698833333553,
          "durationTicks": 131,
          "midi": 78,
          "name": "F#5",
          "ticks": 32400,
          "time": 26.557361999999998,
          "velocity": 0.6535433070866141
        },
        {
          "duration": 0.10737698833333553,
          "durationTicks": 131,
          "midi": 78,
          "name": "F#5",
          "ticks": 32400,
          "time": 26.557361999999998,
          "velocity": 0.6535433070866141
        },
        {
          "duration": 0.10737698833333553,
          "durationTicks": 131,
          "midi": 78,
          "name": "F#5",
          "ticks": 32400,
          "time": 26.557361999999998,
          "velocity": 0.6535433070866141
        },
        {
          "duration": 0.10737698833333553,
          "durationTicks": 131,
          "midi": 78,
          "name": "F#5",
          "ticks": 32400,
          "time": 26.557361999999998,
          "velocity": 0.6535433070866141
        },
        {
          "duration": 0.10737698833333553,
          "durationTicks": 131,
          "midi": 78,
          "name": "F#5",
          "ticks": 32400,
          "time": 26.557361999999998,
          "velocity": 0.6535433070866141
        },
        {
          "duration": 0.10737698833333553,
          "durationTicks": 131,
          "midi": 78,
          "name": "F#5",
          "ticks": 32400,
          "time": 26.557361999999998,
          "velocity": 0.6535433070866141
        },
        {
          "duration": 0.10737698833333553,
          "durationTicks": 131,
          "midi": 78,
          "name": "F#5",
          "ticks": 32400,
          "time": 26.557361999999998,
          "velocity": 0.6535433070866141
        },
        {
          "duration": 0.10737698833333553,
          "durationTicks": 131,
          "midi": 78,
          "name": "F#5",
          "ticks": 32400,
          "time": 26.557361999999998,
          "velocity": 0.6535433070866141
        },
        {
          "duration": 0.10737698833333553,
          "durationTicks": 131,
          "midi": 78,
          "name": "F#5",
          "ticks": 32400,
          "time": 26.557361999999998,
          "velocity": 0.6535433070866141
        },
        {
          "duration": 0.10737698833333553,
          "durationTicks": 131,
          "midi": 78,
          "name": "F#5",
          "ticks": 32400,
          "time": 26.557361999999998,
          "velocity": 0.6535433070866141
        },
        {
          "duration": 0.10737698833333553,
          "durationTicks": 131,
          "midi": 78,
          "name": "F#5",
          "ticks": 32400,
          "time": 26.557361999999998,
          "velocity": 0.6535433070866141
        },
        {
          "duration": 0.10737698833333553,
          "durationTicks": 131,
          "midi": 36,
          "name": "C2",
          "ticks": 32400,
          "time": 26.557361999999998,
          "velocity": 0.6535433070866141
        },
        {
          "duration": 0.10737698833333198,
          "durationTicks": 131,
          "midi": 36,
          "name": "C2",
          "ticks": 32700,
          "time": 26.8032635,
          "velocity": 0.6535433070866141
        },
        {
          "duration": 0.3532784883333342,
          "durationTicks": 431,
          "midi": 46,
          "name": "A#2",
          "ticks": 33000,
          "time": 27.049165,
          "velocity": 0.6614173228346457
        },
        {
          "duration": 0.3532784883333342,
          "durationTicks": 431,
          "midi": 38,
          "name": "D2",
          "ticks": 33000,
          "time": 27.049165,
          "velocity": 0.6614173228346457
        },
        {
          "duration": 0.10737698833333553,
          "durationTicks": 131,
          "midi": 79,
          "name": "G5",
          "ticks": 33000,
          "time": 27.049165,
          "velocity": 0.6614173228346457
        },
        {
          "duration": 0.10737698833333553,
          "durationTicks": 131,
          "midi": 79,
          "name": "G5",
          "ticks": 33000,
          "time": 27.049165,
          "velocity": 0.6614173228346457
        },
        {
          "duration": 0.10737698833333553,
          "durationTicks": 131,
          "midi": 79,
          "name": "G5",
          "ticks": 33000,
          "time": 27.049165,
          "velocity": 0.6614173228346457
        },
        {
          "duration": 0.10737698833333553,
          "durationTicks": 131,
          "midi": 79,
          "name": "G5",
          "ticks": 33000,
          "time": 27.049165,
          "velocity": 0.6614173228346457
        },
        {
          "duration": 0.10737698833333553,
          "durationTicks": 131,
          "midi": 79,
          "name": "G5",
          "ticks": 33000,
          "time": 27.049165,
          "velocity": 0.6614173228346457
        },
        {
          "duration": 0.10737698833333553,
          "durationTicks": 131,
          "midi": 79,
          "name": "G5",
          "ticks": 33000,
          "time": 27.049165,
          "velocity": 0.6614173228346457
        },
        {
          "duration": 0.10737698833333553,
          "durationTicks": 131,
          "midi": 79,
          "name": "G5",
          "ticks": 33000,
          "time": 27.049165,
          "velocity": 0.6614173228346457
        },
        {
          "duration": 0.10737698833333553,
          "durationTicks": 131,
          "midi": 79,
          "name": "G5",
          "ticks": 33000,
          "time": 27.049165,
          "velocity": 0.6614173228346457
        },
        {
          "duration": 0.10737698833333553,
          "durationTicks": 131,
          "midi": 79,
          "name": "G5",
          "ticks": 33000,
          "time": 27.049165,
          "velocity": 0.6614173228346457
        },
        {
          "duration": 0.10737698833333553,
          "durationTicks": 131,
          "midi": 79,
          "name": "G5",
          "ticks": 33000,
          "time": 27.049165,
          "velocity": 0.6614173228346457
        },
        {
          "duration": 0.10737698833333553,
          "durationTicks": 131,
          "midi": 79,
          "name": "G5",
          "ticks": 33000,
          "time": 27.049165,
          "velocity": 0.6614173228346457
        },
        {
          "duration": 0.10737698833333553,
          "durationTicks": 131,
          "midi": 79,
          "name": "G5",
          "ticks": 33000,
          "time": 27.049165,
          "velocity": 0.6614173228346457
        },
        {
          "duration": 0.10737698833333553,
          "durationTicks": 131,
          "midi": 79,
          "name": "G5",
          "ticks": 33000,
          "time": 27.049165,
          "velocity": 0.6614173228346457
        },
        {
          "duration": 0.10737698833333553,
          "durationTicks": 131,
          "midi": 79,
          "name": "G5",
          "ticks": 33000,
          "time": 27.049165,
          "velocity": 0.6614173228346457
        },
        {
          "duration": 0.10737698833333553,
          "durationTicks": 131,
          "midi": 79,
          "name": "G5",
          "ticks": 33000,
          "time": 27.049165,
          "velocity": 0.6614173228346457
        },
        {
          "duration": 0.10737698833333553,
          "durationTicks": 131,
          "midi": 79,
          "name": "G5",
          "ticks": 33000,
          "time": 27.049165,
          "velocity": 0.6614173228346457
        },
        {
          "duration": 0.10737698833333198,
          "durationTicks": 131,
          "midi": 36,
          "name": "C2",
          "ticks": 33300,
          "time": 27.2950665,
          "velocity": 0.6614173228346457
        },
        {
          "duration": 0.3532784883333342,
          "durationTicks": 431,
          "midi": 46,
          "name": "A#2",
          "ticks": 33600,
          "time": 27.540968,
          "velocity": 0.6614173228346457
        },
        {
          "duration": 0.10737698833333198,
          "durationTicks": 131,
          "midi": 78,
          "name": "F#5",
          "ticks": 33600,
          "time": 27.540968,
          "velocity": 0.6614173228346457
        },
        {
          "duration": 0.10737698833333198,
          "durationTicks": 131,
          "midi": 78,
          "name": "F#5",
          "ticks": 33600,
          "time": 27.540968,
          "velocity": 0.6614173228346457
        },
        {
          "duration": 0.10737698833333198,
          "durationTicks": 131,
          "midi": 78,
          "name": "F#5",
          "ticks": 33600,
          "time": 27.540968,
          "velocity": 0.6614173228346457
        },
        {
          "duration": 0.10737698833333198,
          "durationTicks": 131,
          "midi": 78,
          "name": "F#5",
          "ticks": 33600,
          "time": 27.540968,
          "velocity": 0.6614173228346457
        },
        {
          "duration": 0.10737698833333198,
          "durationTicks": 131,
          "midi": 78,
          "name": "F#5",
          "ticks": 33600,
          "time": 27.540968,
          "velocity": 0.6614173228346457
        },
        {
          "duration": 0.10737698833333198,
          "durationTicks": 131,
          "midi": 78,
          "name": "F#5",
          "ticks": 33600,
          "time": 27.540968,
          "velocity": 0.6614173228346457
        },
        {
          "duration": 0.10737698833333198,
          "durationTicks": 131,
          "midi": 78,
          "name": "F#5",
          "ticks": 33600,
          "time": 27.540968,
          "velocity": 0.6614173228346457
        },
        {
          "duration": 0.10737698833333198,
          "durationTicks": 131,
          "midi": 78,
          "name": "F#5",
          "ticks": 33600,
          "time": 27.540968,
          "velocity": 0.6614173228346457
        },
        {
          "duration": 0.10737698833333198,
          "durationTicks": 131,
          "midi": 78,
          "name": "F#5",
          "ticks": 33600,
          "time": 27.540968,
          "velocity": 0.6614173228346457
        },
        {
          "duration": 0.10737698833333198,
          "durationTicks": 131,
          "midi": 78,
          "name": "F#5",
          "ticks": 33600,
          "time": 27.540968,
          "velocity": 0.6614173228346457
        },
        {
          "duration": 0.10737698833333198,
          "durationTicks": 131,
          "midi": 78,
          "name": "F#5",
          "ticks": 33600,
          "time": 27.540968,
          "velocity": 0.6614173228346457
        },
        {
          "duration": 0.10737698833333198,
          "durationTicks": 131,
          "midi": 78,
          "name": "F#5",
          "ticks": 33600,
          "time": 27.540968,
          "velocity": 0.6614173228346457
        },
        {
          "duration": 0.10737698833333198,
          "durationTicks": 131,
          "midi": 78,
          "name": "F#5",
          "ticks": 33600,
          "time": 27.540968,
          "velocity": 0.6614173228346457
        },
        {
          "duration": 0.10737698833333198,
          "durationTicks": 131,
          "midi": 78,
          "name": "F#5",
          "ticks": 33600,
          "time": 27.540968,
          "velocity": 0.6614173228346457
        },
        {
          "duration": 0.10737698833333198,
          "durationTicks": 131,
          "midi": 78,
          "name": "F#5",
          "ticks": 33600,
          "time": 27.540968,
          "velocity": 0.6614173228346457
        },
        {
          "duration": 0.10737698833333198,
          "durationTicks": 131,
          "midi": 78,
          "name": "F#5",
          "ticks": 33600,
          "time": 27.540968,
          "velocity": 0.6614173228346457
        },
        {
          "duration": 0.10737698833333198,
          "durationTicks": 131,
          "midi": 36,
          "name": "C2",
          "ticks": 33600,
          "time": 27.540968,
          "velocity": 0.6614173228346457
        },
        {
          "duration": 0.10737698833333553,
          "durationTicks": 131,
          "midi": 36,
          "name": "C2",
          "ticks": 33900,
          "time": 27.786869499999998,
          "velocity": 0.6614173228346457
        },
        {
          "duration": 0.3532784883333342,
          "durationTicks": 431,
          "midi": 46,
          "name": "A#2",
          "ticks": 34200,
          "time": 28.032771,
          "velocity": 0.6614173228346457
        },
        {
          "duration": 0.10737698833333198,
          "durationTicks": 131,
          "midi": 79,
          "name": "G5",
          "ticks": 34200,
          "time": 28.032771,
          "velocity": 0.6614173228346457
        },
        {
          "duration": 0.10737698833333198,
          "durationTicks": 131,
          "midi": 79,
          "name": "G5",
          "ticks": 34200,
          "time": 28.032771,
          "velocity": 0.6614173228346457
        },
        {
          "duration": 0.10737698833333198,
          "durationTicks": 131,
          "midi": 79,
          "name": "G5",
          "ticks": 34200,
          "time": 28.032771,
          "velocity": 0.6614173228346457
        },
        {
          "duration": 0.10737698833333198,
          "durationTicks": 131,
          "midi": 79,
          "name": "G5",
          "ticks": 34200,
          "time": 28.032771,
          "velocity": 0.6614173228346457
        },
        {
          "duration": 0.10737698833333198,
          "durationTicks": 131,
          "midi": 79,
          "name": "G5",
          "ticks": 34200,
          "time": 28.032771,
          "velocity": 0.6614173228346457
        },
        {
          "duration": 0.10737698833333198,
          "durationTicks": 131,
          "midi": 79,
          "name": "G5",
          "ticks": 34200,
          "time": 28.032771,
          "velocity": 0.6614173228346457
        },
        {
          "duration": 0.10737698833333198,
          "durationTicks": 131,
          "midi": 79,
          "name": "G5",
          "ticks": 34200,
          "time": 28.032771,
          "velocity": 0.6614173228346457
        },
        {
          "duration": 0.10737698833333198,
          "durationTicks": 131,
          "midi": 79,
          "name": "G5",
          "ticks": 34200,
          "time": 28.032771,
          "velocity": 0.6614173228346457
        },
        {
          "duration": 0.10737698833333198,
          "durationTicks": 131,
          "midi": 79,
          "name": "G5",
          "ticks": 34200,
          "time": 28.032771,
          "velocity": 0.6614173228346457
        },
        {
          "duration": 0.10737698833333198,
          "durationTicks": 131,
          "midi": 79,
          "name": "G5",
          "ticks": 34200,
          "time": 28.032771,
          "velocity": 0.6614173228346457
        },
        {
          "duration": 0.10737698833333198,
          "durationTicks": 131,
          "midi": 79,
          "name": "G5",
          "ticks": 34200,
          "time": 28.032771,
          "velocity": 0.6614173228346457
        },
        {
          "duration": 0.10737698833333198,
          "durationTicks": 131,
          "midi": 79,
          "name": "G5",
          "ticks": 34200,
          "time": 28.032771,
          "velocity": 0.6614173228346457
        },
        {
          "duration": 0.10737698833333198,
          "durationTicks": 131,
          "midi": 79,
          "name": "G5",
          "ticks": 34200,
          "time": 28.032771,
          "velocity": 0.6614173228346457
        },
        {
          "duration": 0.10737698833333198,
          "durationTicks": 131,
          "midi": 79,
          "name": "G5",
          "ticks": 34200,
          "time": 28.032771,
          "velocity": 0.6614173228346457
        },
        {
          "duration": 0.10737698833333198,
          "durationTicks": 131,
          "midi": 79,
          "name": "G5",
          "ticks": 34200,
          "time": 28.032771,
          "velocity": 0.6614173228346457
        },
        {
          "duration": 0.10737698833333198,
          "durationTicks": 131,
          "midi": 79,
          "name": "G5",
          "ticks": 34200,
          "time": 28.032771,
          "velocity": 0.6614173228346457
        },
        {
          "duration": 0.3532784883333342,
          "durationTicks": 431,
          "midi": 38,
          "name": "D2",
          "ticks": 34200,
          "time": 28.032771,
          "velocity": 0.6614173228346457
        },
        {
          "duration": 0.10737698833333553,
          "durationTicks": 131,
          "midi": 36,
          "name": "C2",
          "ticks": 34500,
          "time": 28.2786725,
          "velocity": 0.6614173228346457
        },
        {
          "duration": 0.35327848833333064,
          "durationTicks": 431,
          "midi": 46,
          "name": "A#2",
          "ticks": 34800,
          "time": 28.524574,
          "velocity": 0.6614173228346457
        },
        {
          "duration": 0.10737698833333198,
          "durationTicks": 131,
          "midi": 78,
          "name": "F#5",
          "ticks": 34800,
          "time": 28.524574,
          "velocity": 0.6614173228346457
        },
        {
          "duration": 0.10737698833333198,
          "durationTicks": 131,
          "midi": 78,
          "name": "F#5",
          "ticks": 34800,
          "time": 28.524574,
          "velocity": 0.6614173228346457
        },
        {
          "duration": 0.10737698833333198,
          "durationTicks": 131,
          "midi": 78,
          "name": "F#5",
          "ticks": 34800,
          "time": 28.524574,
          "velocity": 0.6614173228346457
        },
        {
          "duration": 0.10737698833333198,
          "durationTicks": 131,
          "midi": 78,
          "name": "F#5",
          "ticks": 34800,
          "time": 28.524574,
          "velocity": 0.6614173228346457
        },
        {
          "duration": 0.10737698833333198,
          "durationTicks": 131,
          "midi": 78,
          "name": "F#5",
          "ticks": 34800,
          "time": 28.524574,
          "velocity": 0.6614173228346457
        },
        {
          "duration": 0.10737698833333198,
          "durationTicks": 131,
          "midi": 78,
          "name": "F#5",
          "ticks": 34800,
          "time": 28.524574,
          "velocity": 0.6614173228346457
        },
        {
          "duration": 0.10737698833333198,
          "durationTicks": 131,
          "midi": 78,
          "name": "F#5",
          "ticks": 34800,
          "time": 28.524574,
          "velocity": 0.6614173228346457
        },
        {
          "duration": 0.10737698833333198,
          "durationTicks": 131,
          "midi": 78,
          "name": "F#5",
          "ticks": 34800,
          "time": 28.524574,
          "velocity": 0.6614173228346457
        },
        {
          "duration": 0.10737698833333198,
          "durationTicks": 131,
          "midi": 78,
          "name": "F#5",
          "ticks": 34800,
          "time": 28.524574,
          "velocity": 0.6614173228346457
        },
        {
          "duration": 0.10737698833333198,
          "durationTicks": 131,
          "midi": 78,
          "name": "F#5",
          "ticks": 34800,
          "time": 28.524574,
          "velocity": 0.6614173228346457
        },
        {
          "duration": 0.10737698833333198,
          "durationTicks": 131,
          "midi": 78,
          "name": "F#5",
          "ticks": 34800,
          "time": 28.524574,
          "velocity": 0.6614173228346457
        },
        {
          "duration": 0.10737698833333198,
          "durationTicks": 131,
          "midi": 78,
          "name": "F#5",
          "ticks": 34800,
          "time": 28.524574,
          "velocity": 0.6614173228346457
        },
        {
          "duration": 0.10737698833333198,
          "durationTicks": 131,
          "midi": 78,
          "name": "F#5",
          "ticks": 34800,
          "time": 28.524574,
          "velocity": 0.6614173228346457
        },
        {
          "duration": 0.10737698833333198,
          "durationTicks": 131,
          "midi": 78,
          "name": "F#5",
          "ticks": 34800,
          "time": 28.524574,
          "velocity": 0.6614173228346457
        },
        {
          "duration": 0.10737698833333198,
          "durationTicks": 131,
          "midi": 78,
          "name": "F#5",
          "ticks": 34800,
          "time": 28.524574,
          "velocity": 0.6614173228346457
        },
        {
          "duration": 0.10737698833333198,
          "durationTicks": 131,
          "midi": 78,
          "name": "F#5",
          "ticks": 34800,
          "time": 28.524574,
          "velocity": 0.6614173228346457
        },
        {
          "duration": 0.10737698833333198,
          "durationTicks": 131,
          "midi": 36,
          "name": "C2",
          "ticks": 34800,
          "time": 28.524574,
          "velocity": 0.6614173228346457
        },
        {
          "duration": 0.10737698833333198,
          "durationTicks": 131,
          "midi": 36,
          "name": "C2",
          "ticks": 35100,
          "time": 28.7704755,
          "velocity": 0.6614173228346457
        },
        {
          "duration": 0.3532784883333342,
          "durationTicks": 431,
          "midi": 46,
          "name": "A#2",
          "ticks": 35400,
          "time": 29.016377,
          "velocity": 0.6614173228346457
        },
        {
          "duration": 0.10737698833333553,
          "durationTicks": 131,
          "midi": 79,
          "name": "G5",
          "ticks": 35400,
          "time": 29.016377,
          "velocity": 0.6614173228346457
        },
        {
          "duration": 0.10737698833333553,
          "durationTicks": 131,
          "midi": 79,
          "name": "G5",
          "ticks": 35400,
          "time": 29.016377,
          "velocity": 0.6614173228346457
        },
        {
          "duration": 0.10737698833333553,
          "durationTicks": 131,
          "midi": 79,
          "name": "G5",
          "ticks": 35400,
          "time": 29.016377,
          "velocity": 0.6614173228346457
        },
        {
          "duration": 0.10737698833333553,
          "durationTicks": 131,
          "midi": 79,
          "name": "G5",
          "ticks": 35400,
          "time": 29.016377,
          "velocity": 0.6614173228346457
        },
        {
          "duration": 0.10737698833333553,
          "durationTicks": 131,
          "midi": 79,
          "name": "G5",
          "ticks": 35400,
          "time": 29.016377,
          "velocity": 0.6614173228346457
        },
        {
          "duration": 0.10737698833333553,
          "durationTicks": 131,
          "midi": 79,
          "name": "G5",
          "ticks": 35400,
          "time": 29.016377,
          "velocity": 0.6614173228346457
        },
        {
          "duration": 0.10737698833333553,
          "durationTicks": 131,
          "midi": 79,
          "name": "G5",
          "ticks": 35400,
          "time": 29.016377,
          "velocity": 0.6614173228346457
        },
        {
          "duration": 0.10737698833333553,
          "durationTicks": 131,
          "midi": 79,
          "name": "G5",
          "ticks": 35400,
          "time": 29.016377,
          "velocity": 0.6614173228346457
        },
        {
          "duration": 0.10737698833333553,
          "durationTicks": 131,
          "midi": 79,
          "name": "G5",
          "ticks": 35400,
          "time": 29.016377,
          "velocity": 0.6614173228346457
        },
        {
          "duration": 0.10737698833333553,
          "durationTicks": 131,
          "midi": 79,
          "name": "G5",
          "ticks": 35400,
          "time": 29.016377,
          "velocity": 0.6614173228346457
        },
        {
          "duration": 0.10737698833333553,
          "durationTicks": 131,
          "midi": 79,
          "name": "G5",
          "ticks": 35400,
          "time": 29.016377,
          "velocity": 0.6614173228346457
        },
        {
          "duration": 0.10737698833333553,
          "durationTicks": 131,
          "midi": 79,
          "name": "G5",
          "ticks": 35400,
          "time": 29.016377,
          "velocity": 0.6614173228346457
        },
        {
          "duration": 0.10737698833333553,
          "durationTicks": 131,
          "midi": 79,
          "name": "G5",
          "ticks": 35400,
          "time": 29.016377,
          "velocity": 0.6614173228346457
        },
        {
          "duration": 0.10737698833333553,
          "durationTicks": 131,
          "midi": 79,
          "name": "G5",
          "ticks": 35400,
          "time": 29.016377,
          "velocity": 0.6614173228346457
        },
        {
          "duration": 0.10737698833333553,
          "durationTicks": 131,
          "midi": 79,
          "name": "G5",
          "ticks": 35400,
          "time": 29.016377,
          "velocity": 0.6614173228346457
        },
        {
          "duration": 0.10737698833333553,
          "durationTicks": 131,
          "midi": 79,
          "name": "G5",
          "ticks": 35400,
          "time": 29.016377,
          "velocity": 0.6614173228346457
        },
        {
          "duration": 0.3532784883333342,
          "durationTicks": 431,
          "midi": 38,
          "name": "D2",
          "ticks": 35400,
          "time": 29.016377,
          "velocity": 0.6614173228346457
        },
        {
          "duration": 0.10737698833333198,
          "durationTicks": 131,
          "midi": 36,
          "name": "C2",
          "ticks": 35700,
          "time": 29.2622785,
          "velocity": 0.6614173228346457
        },
        {
          "duration": 0.10737698833333553,
          "durationTicks": 131,
          "midi": 46,
          "name": "A#2",
          "ticks": 37800,
          "time": 30.983589,
          "velocity": 0.7480314960629921
        },
        {
          "duration": 0.10737698833333553,
          "durationTicks": 131,
          "midi": 38,
          "name": "D2",
          "ticks": 37800,
          "time": 30.983589,
          "velocity": 0.7480314960629921
        },
        {
          "duration": 0.2303277383333331,
          "durationTicks": 281,
          "midi": 52,
          "name": "E3",
          "ticks": 37800,
          "time": 30.983589,
          "velocity": 0.7480314960629921
        },
        {
          "duration": 0.10737698833333553,
          "durationTicks": 131,
          "midi": 36,
          "name": "C2",
          "ticks": 37800,
          "time": 30.983589,
          "velocity": 0.7480314960629921
        },
        {
          "duration": 0.10737698833333553,
          "durationTicks": 131,
          "midi": 53,
          "name": "F3",
          "ticks": 37800,
          "time": 30.983589,
          "velocity": 0.7480314960629921
        },
        {
          "duration": 0.10737698833333198,
          "durationTicks": 131,
          "midi": 46,
          "name": "A#2",
          "ticks": 37950,
          "time": 31.10653975,
          "velocity": 0.7480314960629921
        },
        {
          "duration": 0.10737698833333198,
          "durationTicks": 131,
          "midi": 38,
          "name": "D2",
          "ticks": 37950,
          "time": 31.10653975,
          "velocity": 0.7480314960629921
        },
        {
          "duration": 0.10737698833333198,
          "durationTicks": 131,
          "midi": 53,
          "name": "F3",
          "ticks": 37950,
          "time": 31.10653975,
          "velocity": 0.7480314960629921
        },
        {
          "duration": 0.10737698833333198,
          "durationTicks": 131,
          "midi": 38,
          "name": "D2",
          "ticks": 38100,
          "time": 31.2294905,
          "velocity": 0.7480314960629921
        },
        {
          "duration": 0.2303277383333331,
          "durationTicks": 281,
          "midi": 52,
          "name": "E3",
          "ticks": 38100,
          "time": 31.2294905,
          "velocity": 0.7480314960629921
        },
        {
          "duration": 0.10737698833333198,
          "durationTicks": 131,
          "midi": 46,
          "name": "A#2",
          "ticks": 38100,
          "time": 31.2294905,
          "velocity": 0.7480314960629921
        },
        {
          "duration": 0.10737698833333553,
          "durationTicks": 131,
          "midi": 46,
          "name": "A#2",
          "ticks": 38250,
          "time": 31.35244125,
          "velocity": 0.7480314960629921
        },
        {
          "duration": 0.10737698833333553,
          "durationTicks": 131,
          "midi": 38,
          "name": "D2",
          "ticks": 38250,
          "time": 31.35244125,
          "velocity": 0.7480314960629921
        }
      ],
      "endOfTrackTicks": 38400
    },
    {
      "channel": 9,
      "controlChanges": {
        "6": [
          {
            "number": 6,
            "ticks": 0,
            "time": 0,
            "value": 0.09448818897637795
          },
          {
            "number": 6,
            "ticks": 38400,
            "time": 31.475392,
            "value": 0.09448818897637795
          },
          {
            "number": 6,
            "ticks": 38400,
            "time": 31.475392,
            "value": 0.09448818897637795
          }
        ],
        "7": [
          {
            "number": 7,
            "ticks": 0,
            "time": 0,
            "value": 0.7874015748031497
          },
          {
            "number": 7,
            "ticks": 0,
            "time": 0,
            "value": 0.7874015748031497
          },
          {
            "number": 7,
            "ticks": 38400,
            "time": 31.475392,
            "value": 0.7874015748031497
          },
          {
            "number": 7,
            "ticks": 38400,
            "time": 31.475392,
            "value": 0.7874015748031497
          }
        ],
        "10": [
          {
            "number": 10,
            "ticks": 0,
            "time": 0,
            "value": 0.5039370078740157
          },
          {
            "number": 10,
            "ticks": 0,
            "time": 0,
            "value": 0.5039370078740157
          },
          {
            "number": 10,
            "ticks": 38400,
            "time": 31.475392,
            "value": 0.5039370078740157
          },
          {
            "number": 10,
            "ticks": 38400,
            "time": 31.475392,
            "value": 0.5039370078740157
          }
        ],
        "100": [
          {
            "number": 100,
            "ticks": 0,
            "time": 0,
            "value": 0
          },
          {
            "number": 100,
            "ticks": 38400,
            "time": 31.475392,
            "value": 0
          },
          {
            "number": 100,
            "ticks": 38400,
            "time": 31.475392,
            "value": 0
          }
        ],
        "101": [
          {
            "number": 101,
            "ticks": 0,
            "time": 0,
            "value": 0
          },
          {
            "number": 101,
            "ticks": 38400,
            "time": 31.475392,
            "value": 0
          },
          {
            "number": 101,
            "ticks": 38400,
            "time": 31.475392,
            "value": 0
          }
        ]
      },
      "pitchBends": [
        {
          "ticks": 0,
          "time": 0,
          "value": 0
        },
        {
          "ticks": 0,
          "time": 0,
          "value": 0
        },
        {
          "ticks": 0,
          "time": 0,
          "value": 0
        },
        {
          "ticks": 38400,
          "time": 31.475392,
          "value": 0
        },
        {
          "ticks": 38400,
          "time": 31.475392,
          "value": 0
        }
      ],
      "instrument": {
        "family": "drums",
        "number": 0,
        "name": "standard kit"
      },
      "name": "AtomPro",
      "notes": [
        {
          "duration": 0.10737698833333198,
          "durationTicks": 131,
          "midi": 78,
          "name": "F#5",
          "ticks": 28800,
          "time": 23.606544,
          "velocity": 1
        },
        {
          "duration": 0.10737698833333198,
          "durationTicks": 131,
          "midi": 78,
          "name": "F#5",
          "ticks": 28800,
          "time": 23.606544,
          "velocity": 1
        },
        {
          "duration": 0.10737698833333198,
          "durationTicks": 131,
          "midi": 78,
          "name": "F#5",
          "ticks": 28800,
          "time": 23.606544,
          "velocity": 1
        },
        {
          "duration": 0.10737698833333198,
          "durationTicks": 131,
          "midi": 78,
          "name": "F#5",
          "ticks": 28800,
          "time": 23.606544,
          "velocity": 1
        },
        {
          "duration": 0.10737698833333198,
          "durationTicks": 131,
          "midi": 78,
          "name": "F#5",
          "ticks": 28800,
          "time": 23.606544,
          "velocity": 1
        },
        {
          "duration": 0.10737698833333198,
          "durationTicks": 131,
          "midi": 78,
          "name": "F#5",
          "ticks": 28800,
          "time": 23.606544,
          "velocity": 1
        },
        {
          "duration": 0.10737698833333198,
          "durationTicks": 131,
          "midi": 78,
          "name": "F#5",
          "ticks": 28800,
          "time": 23.606544,
          "velocity": 1
        },
        {
          "duration": 0.10737698833333198,
          "durationTicks": 131,
          "midi": 78,
          "name": "F#5",
          "ticks": 28800,
          "time": 23.606544,
          "velocity": 1
        },
        {
          "duration": 0.10737698833333198,
          "durationTicks": 131,
          "midi": 78,
          "name": "F#5",
          "ticks": 28800,
          "time": 23.606544,
          "velocity": 1
        },
        {
          "duration": 0.10737698833333198,
          "durationTicks": 131,
          "midi": 78,
          "name": "F#5",
          "ticks": 28800,
          "time": 23.606544,
          "velocity": 1
        },
        {
          "duration": 0.10737698833333198,
          "durationTicks": 131,
          "midi": 78,
          "name": "F#5",
          "ticks": 28800,
          "time": 23.606544,
          "velocity": 1
        },
        {
          "duration": 0.10737698833333198,
          "durationTicks": 131,
          "midi": 78,
          "name": "F#5",
          "ticks": 28800,
          "time": 23.606544,
          "velocity": 1
        },
        {
          "duration": 0.10737698833333198,
          "durationTicks": 131,
          "midi": 78,
          "name": "F#5",
          "ticks": 28800,
          "time": 23.606544,
          "velocity": 1
        },
        {
          "duration": 0.10737698833333198,
          "durationTicks": 131,
          "midi": 78,
          "name": "F#5",
          "ticks": 28800,
          "time": 23.606544,
          "velocity": 1
        },
        {
          "duration": 0.10737698833333198,
          "durationTicks": 131,
          "midi": 78,
          "name": "F#5",
          "ticks": 28800,
          "time": 23.606544,
          "velocity": 1
        },
        {
          "duration": 0.10737698833333198,
          "durationTicks": 131,
          "midi": 78,
          "name": "F#5",
          "ticks": 28800,
          "time": 23.606544,
          "velocity": 1
        },
        {
          "duration": 0.10737698833333198,
          "durationTicks": 131,
          "midi": 79,
          "name": "G5",
          "ticks": 30000,
          "time": 24.59015,
          "velocity": 1
        },
        {
          "duration": 0.10737698833333198,
          "durationTicks": 131,
          "midi": 79,
          "name": "G5",
          "ticks": 30000,
          "time": 24.59015,
          "velocity": 1
        },
        {
          "duration": 0.10737698833333198,
          "durationTicks": 131,
          "midi": 79,
          "name": "G5",
          "ticks": 30000,
          "time": 24.59015,
          "velocity": 1
        },
        {
          "duration": 0.10737698833333198,
          "durationTicks": 131,
          "midi": 79,
          "name": "G5",
          "ticks": 30000,
          "time": 24.59015,
          "velocity": 1
        },
        {
          "duration": 0.10737698833333198,
          "durationTicks": 131,
          "midi": 79,
          "name": "G5",
          "ticks": 30000,
          "time": 24.59015,
          "velocity": 1
        },
        {
          "duration": 0.10737698833333198,
          "durationTicks": 131,
          "midi": 79,
          "name": "G5",
          "ticks": 30000,
          "time": 24.59015,
          "velocity": 1
        },
        {
          "duration": 0.10737698833333198,
          "durationTicks": 131,
          "midi": 79,
          "name": "G5",
          "ticks": 30000,
          "time": 24.59015,
          "velocity": 1
        },
        {
          "duration": 0.10737698833333198,
          "durationTicks": 131,
          "midi": 79,
          "name": "G5",
          "ticks": 30000,
          "time": 24.59015,
          "velocity": 1
        },
        {
          "duration": 0.10737698833333198,
          "durationTicks": 131,
          "midi": 79,
          "name": "G5",
          "ticks": 30000,
          "time": 24.59015,
          "velocity": 1
        },
        {
          "duration": 0.10737698833333198,
          "durationTicks": 131,
          "midi": 79,
          "name": "G5",
          "ticks": 30000,
          "time": 24.59015,
          "velocity": 1
        },
        {
          "duration": 0.10737698833333198,
          "durationTicks": 131,
          "midi": 79,
          "name": "G5",
          "ticks": 30000,
          "time": 24.59015,
          "velocity": 1
        },
        {
          "duration": 0.10737698833333198,
          "durationTicks": 131,
          "midi": 79,
          "name": "G5",
          "ticks": 30000,
          "time": 24.59015,
          "velocity": 1
        },
        {
          "duration": 0.10737698833333198,
          "durationTicks": 131,
          "midi": 79,
          "name": "G5",
          "ticks": 30000,
          "time": 24.59015,
          "velocity": 1
        },
        {
          "duration": 0.10737698833333198,
          "durationTicks": 131,
          "midi": 79,
          "name": "G5",
          "ticks": 30000,
          "time": 24.59015,
          "velocity": 1
        },
        {
          "duration": 0.10737698833333198,
          "durationTicks": 131,
          "midi": 79,
          "name": "G5",
          "ticks": 30000,
          "time": 24.59015,
          "velocity": 1
        },
        {
          "duration": 0.10737698833333198,
          "durationTicks": 131,
          "midi": 79,
          "name": "G5",
          "ticks": 30000,
          "time": 24.59015,
          "velocity": 1
        },
        {
          "duration": 0.10737698833333198,
          "durationTicks": 131,
          "midi": 78,
          "name": "F#5",
          "ticks": 31200,
          "time": 25.573756,
          "velocity": 1
        },
        {
          "duration": 0.10737698833333198,
          "durationTicks": 131,
          "midi": 78,
          "name": "F#5",
          "ticks": 31200,
          "time": 25.573756,
          "velocity": 1
        },
        {
          "duration": 0.10737698833333198,
          "durationTicks": 131,
          "midi": 78,
          "name": "F#5",
          "ticks": 31200,
          "time": 25.573756,
          "velocity": 1
        },
        {
          "duration": 0.10737698833333198,
          "durationTicks": 131,
          "midi": 78,
          "name": "F#5",
          "ticks": 31200,
          "time": 25.573756,
          "velocity": 1
        },
        {
          "duration": 0.10737698833333198,
          "durationTicks": 131,
          "midi": 78,
          "name": "F#5",
          "ticks": 31200,
          "time": 25.573756,
          "velocity": 1
        },
        {
          "duration": 0.10737698833333198,
          "durationTicks": 131,
          "midi": 78,
          "name": "F#5",
          "ticks": 31200,
          "time": 25.573756,
          "velocity": 1
        },
        {
          "duration": 0.10737698833333198,
          "durationTicks": 131,
          "midi": 78,
          "name": "F#5",
          "ticks": 31200,
          "time": 25.573756,
          "velocity": 1
        },
        {
          "duration": 0.10737698833333198,
          "durationTicks": 131,
          "midi": 78,
          "name": "F#5",
          "ticks": 31200,
          "time": 25.573756,
          "velocity": 1
        },
        {
          "duration": 0.10737698833333198,
          "durationTicks": 131,
          "midi": 78,
          "name": "F#5",
          "ticks": 31200,
          "time": 25.573756,
          "velocity": 1
        },
        {
          "duration": 0.10737698833333198,
          "durationTicks": 131,
          "midi": 78,
          "name": "F#5",
          "ticks": 31200,
          "time": 25.573756,
          "velocity": 1
        },
        {
          "duration": 0.10737698833333198,
          "durationTicks": 131,
          "midi": 78,
          "name": "F#5",
          "ticks": 31200,
          "time": 25.573756,
          "velocity": 1
        },
        {
          "duration": 0.10737698833333198,
          "durationTicks": 131,
          "midi": 78,
          "name": "F#5",
          "ticks": 31200,
          "time": 25.573756,
          "velocity": 1
        },
        {
          "duration": 0.10737698833333198,
          "durationTicks": 131,
          "midi": 78,
          "name": "F#5",
          "ticks": 31200,
          "time": 25.573756,
          "velocity": 1
        },
        {
          "duration": 0.10737698833333198,
          "durationTicks": 131,
          "midi": 78,
          "name": "F#5",
          "ticks": 31200,
          "time": 25.573756,
          "velocity": 1
        },
        {
          "duration": 0.10737698833333198,
          "durationTicks": 131,
          "midi": 78,
          "name": "F#5",
          "ticks": 31200,
          "time": 25.573756,
          "velocity": 1
        },
        {
          "duration": 0.10737698833333198,
          "durationTicks": 131,
          "midi": 78,
          "name": "F#5",
          "ticks": 31200,
          "time": 25.573756,
          "velocity": 1
        },
        {
          "duration": 0.10737698833333198,
          "durationTicks": 131,
          "midi": 79,
          "name": "G5",
          "ticks": 31800,
          "time": 26.065559,
          "velocity": 1
        },
        {
          "duration": 0.10737698833333198,
          "durationTicks": 131,
          "midi": 79,
          "name": "G5",
          "ticks": 31800,
          "time": 26.065559,
          "velocity": 1
        },
        {
          "duration": 0.10737698833333198,
          "durationTicks": 131,
          "midi": 79,
          "name": "G5",
          "ticks": 31800,
          "time": 26.065559,
          "velocity": 1
        },
        {
          "duration": 0.10737698833333198,
          "durationTicks": 131,
          "midi": 79,
          "name": "G5",
          "ticks": 31800,
          "time": 26.065559,
          "velocity": 1
        },
        {
          "duration": 0.10737698833333198,
          "durationTicks": 131,
          "midi": 79,
          "name": "G5",
          "ticks": 31800,
          "time": 26.065559,
          "velocity": 1
        },
        {
          "duration": 0.10737698833333198,
          "durationTicks": 131,
          "midi": 79,
          "name": "G5",
          "ticks": 31800,
          "time": 26.065559,
          "velocity": 1
        },
        {
          "duration": 0.10737698833333198,
          "durationTicks": 131,
          "midi": 79,
          "name": "G5",
          "ticks": 31800,
          "time": 26.065559,
          "velocity": 1
        },
        {
          "duration": 0.10737698833333198,
          "durationTicks": 131,
          "midi": 79,
          "name": "G5",
          "ticks": 31800,
          "time": 26.065559,
          "velocity": 1
        },
        {
          "duration": 0.10737698833333198,
          "durationTicks": 131,
          "midi": 79,
          "name": "G5",
          "ticks": 31800,
          "time": 26.065559,
          "velocity": 1
        },
        {
          "duration": 0.10737698833333198,
          "durationTicks": 131,
          "midi": 79,
          "name": "G5",
          "ticks": 31800,
          "time": 26.065559,
          "velocity": 1
        },
        {
          "duration": 0.10737698833333198,
          "durationTicks": 131,
          "midi": 79,
          "name": "G5",
          "ticks": 31800,
          "time": 26.065559,
          "velocity": 1
        },
        {
          "duration": 0.10737698833333198,
          "durationTicks": 131,
          "midi": 79,
          "name": "G5",
          "ticks": 31800,
          "time": 26.065559,
          "velocity": 1
        },
        {
          "duration": 0.10737698833333198,
          "durationTicks": 131,
          "midi": 79,
          "name": "G5",
          "ticks": 31800,
          "time": 26.065559,
          "velocity": 1
        },
        {
          "duration": 0.10737698833333198,
          "durationTicks": 131,
          "midi": 79,
          "name": "G5",
          "ticks": 31800,
          "time": 26.065559,
          "velocity": 1
        },
        {
          "duration": 0.10737698833333198,
          "durationTicks": 131,
          "midi": 79,
          "name": "G5",
          "ticks": 31800,
          "time": 26.065559,
          "velocity": 1
        },
        {
          "duration": 0.10737698833333198,
          "durationTicks": 131,
          "midi": 79,
          "name": "G5",
          "ticks": 31800,
          "time": 26.065559,
          "velocity": 1
        },
        {
          "duration": 0.10737698833333553,
          "durationTicks": 131,
          "midi": 78,
          "name": "F#5",
          "ticks": 32400,
          "time": 26.557361999999998,
          "velocity": 1
        },
        {
          "duration": 0.10737698833333553,
          "durationTicks": 131,
          "midi": 78,
          "name": "F#5",
          "ticks": 32400,
          "time": 26.557361999999998,
          "velocity": 1
        },
        {
          "duration": 0.10737698833333553,
          "durationTicks": 131,
          "midi": 78,
          "name": "F#5",
          "ticks": 32400,
          "time": 26.557361999999998,
          "velocity": 1
        },
        {
          "duration": 0.10737698833333553,
          "durationTicks": 131,
          "midi": 78,
          "name": "F#5",
          "ticks": 32400,
          "time": 26.557361999999998,
          "velocity": 1
        },
        {
          "duration": 0.10737698833333553,
          "durationTicks": 131,
          "midi": 78,
          "name": "F#5",
          "ticks": 32400,
          "time": 26.557361999999998,
          "velocity": 1
        },
        {
          "duration": 0.10737698833333553,
          "durationTicks": 131,
          "midi": 78,
          "name": "F#5",
          "ticks": 32400,
          "time": 26.557361999999998,
          "velocity": 1
        },
        {
          "duration": 0.10737698833333553,
          "durationTicks": 131,
          "midi": 78,
          "name": "F#5",
          "ticks": 32400,
          "time": 26.557361999999998,
          "velocity": 1
        },
        {
          "duration": 0.10737698833333553,
          "durationTicks": 131,
          "midi": 78,
          "name": "F#5",
          "ticks": 32400,
          "time": 26.557361999999998,
          "velocity": 1
        },
        {
          "duration": 0.10737698833333553,
          "durationTicks": 131,
          "midi": 78,
          "name": "F#5",
          "ticks": 32400,
          "time": 26.557361999999998,
          "velocity": 1
        },
        {
          "duration": 0.10737698833333553,
          "durationTicks": 131,
          "midi": 78,
          "name": "F#5",
          "ticks": 32400,
          "time": 26.557361999999998,
          "velocity": 1
        },
        {
          "duration": 0.10737698833333553,
          "durationTicks": 131,
          "midi": 78,
          "name": "F#5",
          "ticks": 32400,
          "time": 26.557361999999998,
          "velocity": 1
        },
        {
          "duration": 0.10737698833333553,
          "durationTicks": 131,
          "midi": 78,
          "name": "F#5",
          "ticks": 32400,
          "time": 26.557361999999998,
          "velocity": 1
        },
        {
          "duration": 0.10737698833333553,
          "durationTicks": 131,
          "midi": 78,
          "name": "F#5",
          "ticks": 32400,
          "time": 26.557361999999998,
          "velocity": 1
        },
        {
          "duration": 0.10737698833333553,
          "durationTicks": 131,
          "midi": 78,
          "name": "F#5",
          "ticks": 32400,
          "time": 26.557361999999998,
          "velocity": 1
        },
        {
          "duration": 0.10737698833333553,
          "durationTicks": 131,
          "midi": 78,
          "name": "F#5",
          "ticks": 32400,
          "time": 26.557361999999998,
          "velocity": 1
        },
        {
          "duration": 0.10737698833333553,
          "durationTicks": 131,
          "midi": 78,
          "name": "F#5",
          "ticks": 32400,
          "time": 26.557361999999998,
          "velocity": 1
        },
        {
          "duration": 0.10737698833333553,
          "durationTicks": 131,
          "midi": 79,
          "name": "G5",
          "ticks": 33000,
          "time": 27.049165,
          "velocity": 1
        },
        {
          "duration": 0.10737698833333553,
          "durationTicks": 131,
          "midi": 79,
          "name": "G5",
          "ticks": 33000,
          "time": 27.049165,
          "velocity": 1
        },
        {
          "duration": 0.10737698833333553,
          "durationTicks": 131,
          "midi": 79,
          "name": "G5",
          "ticks": 33000,
          "time": 27.049165,
          "velocity": 1
        },
        {
          "duration": 0.10737698833333553,
          "durationTicks": 131,
          "midi": 79,
          "name": "G5",
          "ticks": 33000,
          "time": 27.049165,
          "velocity": 1
        },
        {
          "duration": 0.10737698833333553,
          "durationTicks": 131,
          "midi": 79,
          "name": "G5",
          "ticks": 33000,
          "time": 27.049165,
          "velocity": 1
        },
        {
          "duration": 0.10737698833333553,
          "durationTicks": 131,
          "midi": 79,
          "name": "G5",
          "ticks": 33000,
          "time": 27.049165,
          "velocity": 1
        },
        {
          "duration": 0.10737698833333553,
          "durationTicks": 131,
          "midi": 79,
          "name": "G5",
          "ticks": 33000,
          "time": 27.049165,
          "velocity": 1
        },
        {
          "duration": 0.10737698833333553,
          "durationTicks": 131,
          "midi": 79,
          "name": "G5",
          "ticks": 33000,
          "time": 27.049165,
          "velocity": 1
        },
        {
          "duration": 0.10737698833333553,
          "durationTicks": 131,
          "midi": 79,
          "name": "G5",
          "ticks": 33000,
          "time": 27.049165,
          "velocity": 1
        },
        {
          "duration": 0.10737698833333553,
          "durationTicks": 131,
          "midi": 79,
          "name": "G5",
          "ticks": 33000,
          "time": 27.049165,
          "velocity": 1
        },
        {
          "duration": 0.10737698833333553,
          "durationTicks": 131,
          "midi": 79,
          "name": "G5",
          "ticks": 33000,
          "time": 27.049165,
          "velocity": 1
        },
        {
          "duration": 0.10737698833333553,
          "durationTicks": 131,
          "midi": 79,
          "name": "G5",
          "ticks": 33000,
          "time": 27.049165,
          "velocity": 1
        },
        {
          "duration": 0.10737698833333553,
          "durationTicks": 131,
          "midi": 79,
          "name": "G5",
          "ticks": 33000,
          "time": 27.049165,
          "velocity": 1
        },
        {
          "duration": 0.10737698833333553,
          "durationTicks": 131,
          "midi": 79,
          "name": "G5",
          "ticks": 33000,
          "time": 27.049165,
          "velocity": 1
        },
        {
          "duration": 0.10737698833333553,
          "durationTicks": 131,
          "midi": 79,
          "name": "G5",
          "ticks": 33000,
          "time": 27.049165,
          "velocity": 1
        },
        {
          "duration": 0.10737698833333553,
          "durationTicks": 131,
          "midi": 79,
          "name": "G5",
          "ticks": 33000,
          "time": 27.049165,
          "velocity": 1
        },
        {
          "duration": 0.10737698833333198,
          "durationTicks": 131,
          "midi": 78,
          "name": "F#5",
          "ticks": 33600,
          "time": 27.540968,
          "velocity": 1
        },
        {
          "duration": 0.10737698833333198,
          "durationTicks": 131,
          "midi": 78,
          "name": "F#5",
          "ticks": 33600,
          "time": 27.540968,
          "velocity": 1
        },
        {
          "duration": 0.10737698833333198,
          "durationTicks": 131,
          "midi": 78,
          "name": "F#5",
          "ticks": 33600,
          "time": 27.540968,
          "velocity": 1
        },
        {
          "duration": 0.10737698833333198,
          "durationTicks": 131,
          "midi": 78,
          "name": "F#5",
          "ticks": 33600,
          "time": 27.540968,
          "velocity": 1
        },
        {
          "duration": 0.10737698833333198,
          "durationTicks": 131,
          "midi": 78,
          "name": "F#5",
          "ticks": 33600,
          "time": 27.540968,
          "velocity": 1
        },
        {
          "duration": 0.10737698833333198,
          "durationTicks": 131,
          "midi": 78,
          "name": "F#5",
          "ticks": 33600,
          "time": 27.540968,
          "velocity": 1
        },
        {
          "duration": 0.10737698833333198,
          "durationTicks": 131,
          "midi": 78,
          "name": "F#5",
          "ticks": 33600,
          "time": 27.540968,
          "velocity": 1
        },
        {
          "duration": 0.10737698833333198,
          "durationTicks": 131,
          "midi": 78,
          "name": "F#5",
          "ticks": 33600,
          "time": 27.540968,
          "velocity": 1
        },
        {
          "duration": 0.10737698833333198,
          "durationTicks": 131,
          "midi": 78,
          "name": "F#5",
          "ticks": 33600,
          "time": 27.540968,
          "velocity": 1
        },
        {
          "duration": 0.10737698833333198,
          "durationTicks": 131,
          "midi": 78,
          "name": "F#5",
          "ticks": 33600,
          "time": 27.540968,
          "velocity": 1
        },
        {
          "duration": 0.10737698833333198,
          "durationTicks": 131,
          "midi": 78,
          "name": "F#5",
          "ticks": 33600,
          "time": 27.540968,
          "velocity": 1
        },
        {
          "duration": 0.10737698833333198,
          "durationTicks": 131,
          "midi": 78,
          "name": "F#5",
          "ticks": 33600,
          "time": 27.540968,
          "velocity": 1
        },
        {
          "duration": 0.10737698833333198,
          "durationTicks": 131,
          "midi": 78,
          "name": "F#5",
          "ticks": 33600,
          "time": 27.540968,
          "velocity": 1
        },
        {
          "duration": 0.10737698833333198,
          "durationTicks": 131,
          "midi": 78,
          "name": "F#5",
          "ticks": 33600,
          "time": 27.540968,
          "velocity": 1
        },
        {
          "duration": 0.10737698833333198,
          "durationTicks": 131,
          "midi": 78,
          "name": "F#5",
          "ticks": 33600,
          "time": 27.540968,
          "velocity": 1
        },
        {
          "duration": 0.10737698833333198,
          "durationTicks": 131,
          "midi": 78,
          "name": "F#5",
          "ticks": 33600,
          "time": 27.540968,
          "velocity": 1
        },
        {
          "duration": 0.10737698833333198,
          "durationTicks": 131,
          "midi": 79,
          "name": "G5",
          "ticks": 34200,
          "time": 28.032771,
          "velocity": 1
        },
        {
          "duration": 0.10737698833333198,
          "durationTicks": 131,
          "midi": 79,
          "name": "G5",
          "ticks": 34200,
          "time": 28.032771,
          "velocity": 1
        },
        {
          "duration": 0.10737698833333198,
          "durationTicks": 131,
          "midi": 79,
          "name": "G5",
          "ticks": 34200,
          "time": 28.032771,
          "velocity": 1
        },
        {
          "duration": 0.10737698833333198,
          "durationTicks": 131,
          "midi": 79,
          "name": "G5",
          "ticks": 34200,
          "time": 28.032771,
          "velocity": 1
        },
        {
          "duration": 0.10737698833333198,
          "durationTicks": 131,
          "midi": 79,
          "name": "G5",
          "ticks": 34200,
          "time": 28.032771,
          "velocity": 1
        },
        {
          "duration": 0.10737698833333198,
          "durationTicks": 131,
          "midi": 79,
          "name": "G5",
          "ticks": 34200,
          "time": 28.032771,
          "velocity": 1
        },
        {
          "duration": 0.10737698833333198,
          "durationTicks": 131,
          "midi": 79,
          "name": "G5",
          "ticks": 34200,
          "time": 28.032771,
          "velocity": 1
        },
        {
          "duration": 0.10737698833333198,
          "durationTicks": 131,
          "midi": 79,
          "name": "G5",
          "ticks": 34200,
          "time": 28.032771,
          "velocity": 1
        },
        {
          "duration": 0.10737698833333198,
          "durationTicks": 131,
          "midi": 79,
          "name": "G5",
          "ticks": 34200,
          "time": 28.032771,
          "velocity": 1
        },
        {
          "duration": 0.10737698833333198,
          "durationTicks": 131,
          "midi": 79,
          "name": "G5",
          "ticks": 34200,
          "time": 28.032771,
          "velocity": 1
        },
        {
          "duration": 0.10737698833333198,
          "durationTicks": 131,
          "midi": 79,
          "name": "G5",
          "ticks": 34200,
          "time": 28.032771,
          "velocity": 1
        },
        {
          "duration": 0.10737698833333198,
          "durationTicks": 131,
          "midi": 79,
          "name": "G5",
          "ticks": 34200,
          "time": 28.032771,
          "velocity": 1
        },
        {
          "duration": 0.10737698833333198,
          "durationTicks": 131,
          "midi": 79,
          "name": "G5",
          "ticks": 34200,
          "time": 28.032771,
          "velocity": 1
        },
        {
          "duration": 0.10737698833333198,
          "durationTicks": 131,
          "midi": 79,
          "name": "G5",
          "ticks": 34200,
          "time": 28.032771,
          "velocity": 1
        },
        {
          "duration": 0.10737698833333198,
          "durationTicks": 131,
          "midi": 79,
          "name": "G5",
          "ticks": 34200,
          "time": 28.032771,
          "velocity": 1
        },
        {
          "duration": 0.10737698833333198,
          "durationTicks": 131,
          "midi": 79,
          "name": "G5",
          "ticks": 34200,
          "time": 28.032771,
          "velocity": 1
        },
        {
          "duration": 0.10737698833333198,
          "durationTicks": 131,
          "midi": 78,
          "name": "F#5",
          "ticks": 34800,
          "time": 28.524574,
          "velocity": 1
        },
        {
          "duration": 0.10737698833333198,
          "durationTicks": 131,
          "midi": 78,
          "name": "F#5",
          "ticks": 34800,
          "time": 28.524574,
          "velocity": 1
        },
        {
          "duration": 0.10737698833333198,
          "durationTicks": 131,
          "midi": 78,
          "name": "F#5",
          "ticks": 34800,
          "time": 28.524574,
          "velocity": 1
        },
        {
          "duration": 0.10737698833333198,
          "durationTicks": 131,
          "midi": 78,
          "name": "F#5",
          "ticks": 34800,
          "time": 28.524574,
          "velocity": 1
        },
        {
          "duration": 0.10737698833333198,
          "durationTicks": 131,
          "midi": 78,
          "name": "F#5",
          "ticks": 34800,
          "time": 28.524574,
          "velocity": 1
        },
        {
          "duration": 0.10737698833333198,
          "durationTicks": 131,
          "midi": 78,
          "name": "F#5",
          "ticks": 34800,
          "time": 28.524574,
          "velocity": 1
        },
        {
          "duration": 0.10737698833333198,
          "durationTicks": 131,
          "midi": 78,
          "name": "F#5",
          "ticks": 34800,
          "time": 28.524574,
          "velocity": 1
        },
        {
          "duration": 0.10737698833333198,
          "durationTicks": 131,
          "midi": 78,
          "name": "F#5",
          "ticks": 34800,
          "time": 28.524574,
          "velocity": 1
        },
        {
          "duration": 0.10737698833333198,
          "durationTicks": 131,
          "midi": 78,
          "name": "F#5",
          "ticks": 34800,
          "time": 28.524574,
          "velocity": 1
        },
        {
          "duration": 0.10737698833333198,
          "durationTicks": 131,
          "midi": 78,
          "name": "F#5",
          "ticks": 34800,
          "time": 28.524574,
          "velocity": 1
        },
        {
          "duration": 0.10737698833333198,
          "durationTicks": 131,
          "midi": 78,
          "name": "F#5",
          "ticks": 34800,
          "time": 28.524574,
          "velocity": 1
        },
        {
          "duration": 0.10737698833333198,
          "durationTicks": 131,
          "midi": 78,
          "name": "F#5",
          "ticks": 34800,
          "time": 28.524574,
          "velocity": 1
        },
        {
          "duration": 0.10737698833333198,
          "durationTicks": 131,
          "midi": 78,
          "name": "F#5",
          "ticks": 34800,
          "time": 28.524574,
          "velocity": 1
        },
        {
          "duration": 0.10737698833333198,
          "durationTicks": 131,
          "midi": 78,
          "name": "F#5",
          "ticks": 34800,
          "time": 28.524574,
          "velocity": 1
        },
        {
          "duration": 0.10737698833333198,
          "durationTicks": 131,
          "midi": 78,
          "name": "F#5",
          "ticks": 34800,
          "time": 28.524574,
          "velocity": 1
        },
        {
          "duration": 0.10737698833333198,
          "durationTicks": 131,
          "midi": 78,
          "name": "F#5",
          "ticks": 34800,
          "time": 28.524574,
          "velocity": 1
        },
        {
          "duration": 0.10737698833333553,
          "durationTicks": 131,
          "midi": 79,
          "name": "G5",
          "ticks": 35400,
          "time": 29.016377,
          "velocity": 1
        },
        {
          "duration": 0.10737698833333553,
          "durationTicks": 131,
          "midi": 79,
          "name": "G5",
          "ticks": 35400,
          "time": 29.016377,
          "velocity": 1
        },
        {
          "duration": 0.10737698833333553,
          "durationTicks": 131,
          "midi": 79,
          "name": "G5",
          "ticks": 35400,
          "time": 29.016377,
          "velocity": 1
        },
        {
          "duration": 0.10737698833333553,
          "durationTicks": 131,
          "midi": 79,
          "name": "G5",
          "ticks": 35400,
          "time": 29.016377,
          "velocity": 1
        },
        {
          "duration": 0.10737698833333553,
          "durationTicks": 131,
          "midi": 79,
          "name": "G5",
          "ticks": 35400,
          "time": 29.016377,
          "velocity": 1
        },
        {
          "duration": 0.10737698833333553,
          "durationTicks": 131,
          "midi": 79,
          "name": "G5",
          "ticks": 35400,
          "time": 29.016377,
          "velocity": 1
        },
        {
          "duration": 0.10737698833333553,
          "durationTicks": 131,
          "midi": 79,
          "name": "G5",
          "ticks": 35400,
          "time": 29.016377,
          "velocity": 1
        },
        {
          "duration": 0.10737698833333553,
          "durationTicks": 131,
          "midi": 79,
          "name": "G5",
          "ticks": 35400,
          "time": 29.016377,
          "velocity": 1
        },
        {
          "duration": 0.10737698833333553,
          "durationTicks": 131,
          "midi": 79,
          "name": "G5",
          "ticks": 35400,
          "time": 29.016377,
          "velocity": 1
        },
        {
          "duration": 0.10737698833333553,
          "durationTicks": 131,
          "midi": 79,
          "name": "G5",
          "ticks": 35400,
          "time": 29.016377,
          "velocity": 1
        },
        {
          "duration": 0.10737698833333553,
          "durationTicks": 131,
          "midi": 79,
          "name": "G5",
          "ticks": 35400,
          "time": 29.016377,
          "velocity": 1
        },
        {
          "duration": 0.10737698833333553,
          "durationTicks": 131,
          "midi": 79,
          "name": "G5",
          "ticks": 35400,
          "time": 29.016377,
          "velocity": 1
        },
        {
          "duration": 0.10737698833333553,
          "durationTicks": 131,
          "midi": 79,
          "name": "G5",
          "ticks": 35400,
          "time": 29.016377,
          "velocity": 1
        },
        {
          "duration": 0.10737698833333553,
          "durationTicks": 131,
          "midi": 79,
          "name": "G5",
          "ticks": 35400,
          "time": 29.016377,
          "velocity": 1
        },
        {
          "duration": 0.10737698833333553,
          "durationTicks": 131,
          "midi": 79,
          "name": "G5",
          "ticks": 35400,
          "time": 29.016377,
          "velocity": 1
        },
        {
          "duration": 0.10737698833333553,
          "durationTicks": 131,
          "midi": 79,
          "name": "G5",
          "ticks": 35400,
          "time": 29.016377,
          "velocity": 1
        }
      ],
      "endOfTrackTicks": 38400
    },
    {
      "channel": 0,
      "controlChanges": {
        "6": [
          {
            "number": 6,
            "ticks": 0,
            "time": 0,
            "value": 0.09448818897637795
          }
        ],
        "7": [
          {
            "number": 7,
            "ticks": 0,
            "time": 0,
            "value": 0.7874015748031497
          },
          {
            "number": 7,
            "ticks": 0,
            "time": 0,
            "value": 0.7874015748031497
          }
        ],
        "10": [
          {
            "number": 10,
            "ticks": 0,
            "time": 0,
            "value": 0.5039370078740157
          },
          {
            "number": 10,
            "ticks": 0,
            "time": 0,
            "value": 0.5039370078740157
          }
        ],
        "100": [
          {
            "number": 100,
            "ticks": 0,
            "time": 0,
            "value": 0
          }
        ],
        "101": [
          {
            "number": 101,
            "ticks": 0,
            "time": 0,
            "value": 0
          }
        ]
      },
      "pitchBends": [
        {
          "ticks": 0,
          "time": 0,
          "value": 0
        },
        {
          "ticks": 0,
          "time": 0,
          "value": 0
        }
      ],
      "instrument": {
        "family": "piano",
        "number": 0,
        "name": "acoustic grand piano"
      },
      "name": "AtomPro",
      "notes": [],
      "endOfTrackTicks": 38400
    },
    {
      "channel": 0,
      "controlChanges": {
        "6": [
          {
            "number": 6,
            "ticks": 38400,
            "time": 31.475392,
            "value": 0.09448818897637795
          },
          {
            "number": 6,
            "ticks": 38400,
            "time": 31.475392,
            "value": 0.09448818897637795
          }
        ],
        "7": [
          {
            "number": 7,
            "ticks": 38400,
            "time": 31.475392,
            "value": 0.7874015748031497
          },
          {
            "number": 7,
            "ticks": 38400,
            "time": 31.475392,
            "value": 0.7874015748031497
          }
        ],
        "10": [
          {
            "number": 10,
            "ticks": 38400,
            "time": 31.475392,
            "value": 0.5039370078740157
          },
          {
            "number": 10,
            "ticks": 38400,
            "time": 31.475392,
            "value": 0.5039370078740157
          }
        ],
        "100": [
          {
            "number": 100,
            "ticks": 38400,
            "time": 31.475392,
            "value": 0
          },
          {
            "number": 100,
            "ticks": 38400,
            "time": 31.475392,
            "value": 0
          }
        ],
        "101": [
          {
            "number": 101,
            "ticks": 38400,
            "time": 31.475392,
            "value": 0
          },
          {
            "number": 101,
            "ticks": 38400,
            "time": 31.475392,
            "value": 0
          }
        ]
      },
      "pitchBends": [
        {
          "ticks": 0,
          "time": 0,
          "value": 0
        },
        {
          "ticks": 38400,
          "time": 31.475392,
          "value": 0
        },
        {
          "ticks": 38400,
          "time": 31.475392,
          "value": 0
        }
      ],
      "instrument": {
        "family": "reed",
        "number": 65,
        "name": "alto sax"
      },
      "name": "",
      "notes": []
    },
    {
      "channel": 0,
      "controlChanges": {
        "6": [
          {
            "number": 6,
            "ticks": 0,
            "time": 0,
            "value": 0.09448818897637795
          }
        ],
        "7": [
          {
            "number": 7,
            "ticks": 0,
            "time": 0,
            "value": 0.8976377952755905
          },
          {
            "number": 7,
            "ticks": 0,
            "time": 0,
            "value": 0.8976377952755905
          }
        ],
        "10": [
          {
            "number": 10,
            "ticks": 0,
            "time": 0,
            "value": 0.5039370078740157
          },
          {
            "number": 10,
            "ticks": 0,
            "time": 0,
            "value": 0.5039370078740157
          }
        ],
        "100": [
          {
            "number": 100,
            "ticks": 0,
            "time": 0,
            "value": 0
          }
        ],
        "101": [
          {
            "number": 101,
            "ticks": 0,
            "time": 0,
            "value": 0
          }
        ]
      },
      "pitchBends": [
        {
          "ticks": 0,
          "time": 0,
          "value": 0
        },
        {
          "ticks": 0,
          "time": 0,
          "value": 0
        }
      ],
      "instrument": {
        "family": "piano",
        "number": 0,
        "name": "acoustic grand piano"
      },
      "name": "AtomPro",
      "notes": [],
      "endOfTrackTicks": 38400
    },
    {
      "channel": 0,
      "controlChanges": {
        "6": [
          {
            "number": 6,
            "ticks": 38400,
            "time": 31.475392,
            "value": 0.09448818897637795
          },
          {
            "number": 6,
            "ticks": 38400,
            "time": 31.475392,
            "value": 0.09448818897637795
          }
        ],
        "7": [
          {
            "number": 7,
            "ticks": 38400,
            "time": 31.475392,
            "value": 0.8976377952755905
          },
          {
            "number": 7,
            "ticks": 38400,
            "time": 31.475392,
            "value": 0.8976377952755905
          }
        ],
        "10": [
          {
            "number": 10,
            "ticks": 38400,
            "time": 31.475392,
            "value": 0.5039370078740157
          },
          {
            "number": 10,
            "ticks": 38400,
            "time": 31.475392,
            "value": 0.5039370078740157
          }
        ],
        "100": [
          {
            "number": 100,
            "ticks": 38400,
            "time": 31.475392,
            "value": 0
          },
          {
            "number": 100,
            "ticks": 38400,
            "time": 31.475392,
            "value": 0
          }
        ],
        "101": [
          {
            "number": 101,
            "ticks": 38400,
            "time": 31.475392,
            "value": 0
          },
          {
            "number": 101,
            "ticks": 38400,
            "time": 31.475392,
            "value": 0
          }
        ]
      },
      "pitchBends": [
        {
          "ticks": 0,
          "time": 0,
          "value": 0
        },
        {
          "ticks": 38400,
          "time": 31.475392,
          "value": 0
        },
        {
          "ticks": 38400,
          "time": 31.475392,
          "value": 0
        }
      ],
      "instrument": {
        "family": "ensemble",
        "number": 48,
        "name": "string ensemble 1"
      },
      "name": "",
      "notes": []
    },
    {
      "channel": 0,
      "controlChanges": {
        "6": [
          {
            "number": 6,
            "ticks": 0,
            "time": 0,
            "value": 0.09448818897637795
          }
        ],
        "7": [
          {
            "number": 7,
            "ticks": 0,
            "time": 0,
            "value": 1
          },
          {
            "number": 7,
            "ticks": 0,
            "time": 0,
            "value": 1
          }
        ],
        "10": [
          {
            "number": 10,
            "ticks": 0,
            "time": 0,
            "value": 0.5039370078740157
          },
          {
            "number": 10,
            "ticks": 0,
            "time": 0,
            "value": 0.5039370078740157
          }
        ],
        "100": [
          {
            "number": 100,
            "ticks": 0,
            "time": 0,
            "value": 0
          }
        ],
        "101": [
          {
            "number": 101,
            "ticks": 0,
            "time": 0,
            "value": 0
          }
        ]
      },
      "pitchBends": [
        {
          "ticks": 0,
          "time": 0,
          "value": 0
        },
        {
          "ticks": 0,
          "time": 0,
          "value": 0
        }
      ],
      "instrument": {
        "family": "piano",
        "number": 0,
        "name": "acoustic grand piano"
      },
      "name": "AtomPro",
      "notes": [],
      "endOfTrackTicks": 38400
    },
    {
      "channel": 0,
      "controlChanges": {
        "6": [
          {
            "number": 6,
            "ticks": 38400,
            "time": 31.475392,
            "value": 0.09448818897637795
          },
          {
            "number": 6,
            "ticks": 38400,
            "time": 31.475392,
            "value": 0.09448818897637795
          }
        ],
        "7": [
          {
            "number": 7,
            "ticks": 38400,
            "time": 31.475392,
            "value": 1
          },
          {
            "number": 7,
            "ticks": 38400,
            "time": 31.475392,
            "value": 1
          }
        ],
        "10": [
          {
            "number": 10,
            "ticks": 38400,
            "time": 31.475392,
            "value": 0.5039370078740157
          },
          {
            "number": 10,
            "ticks": 38400,
            "time": 31.475392,
            "value": 0.5039370078740157
          }
        ],
        "100": [
          {
            "number": 100,
            "ticks": 38400,
            "time": 31.475392,
            "value": 0
          },
          {
            "number": 100,
            "ticks": 38400,
            "time": 31.475392,
            "value": 0
          }
        ],
        "101": [
          {
            "number": 101,
            "ticks": 38400,
            "time": 31.475392,
            "value": 0
          },
          {
            "number": 101,
            "ticks": 38400,
            "time": 31.475392,
            "value": 0
          }
        ]
      },
      "pitchBends": [
        {
          "ticks": 0,
          "time": 0,
          "value": 0
        },
        {
          "ticks": 38400,
          "time": 31.475392,
          "value": 0
        },
        {
          "ticks": 38400,
          "time": 31.475392,
          "value": 0
        }
      ],
      "instrument": {
        "family": "synth lead",
        "number": 80,
        "name": "lead 1 (square)"
      },
      "name": "",
      "notes": []
    },
    {
      "channel": 0,
      "controlChanges": {
        "6": [
          {
            "number": 6,
            "ticks": 0,
            "time": 0,
            "value": 0.09448818897637795
          }
        ],
        "7": [
          {
            "number": 7,
            "ticks": 0,
            "time": 0,
            "value": 0.7874015748031497
          },
          {
            "number": 7,
            "ticks": 0,
            "time": 0,
            "value": 0.7874015748031497
          }
        ],
        "10": [
          {
            "number": 10,
            "ticks": 0,
            "time": 0,
            "value": 0.5039370078740157
          },
          {
            "number": 10,
            "ticks": 0,
            "time": 0,
            "value": 0.5039370078740157
          }
        ],
        "100": [
          {
            "number": 100,
            "ticks": 0,
            "time": 0,
            "value": 0
          }
        ],
        "101": [
          {
            "number": 101,
            "ticks": 0,
            "time": 0,
            "value": 0
          }
        ]
      },
      "pitchBends": [
        {
          "ticks": 0,
          "time": 0,
          "value": 0
        },
        {
          "ticks": 0,
          "time": 0,
          "value": 0
        }
      ],
      "instrument": {
        "family": "piano",
        "number": 0,
        "name": "acoustic grand piano"
      },
      "name": "AtomPro",
      "notes": [],
      "endOfTrackTicks": 38400
    },
    {
      "channel": 0,
      "controlChanges": {
        "6": [
          {
            "number": 6,
            "ticks": 38400,
            "time": 31.475392,
            "value": 0.09448818897637795
          },
          {
            "number": 6,
            "ticks": 38400,
            "time": 31.475392,
            "value": 0.09448818897637795
          }
        ],
        "7": [
          {
            "number": 7,
            "ticks": 38400,
            "time": 31.475392,
            "value": 0.7874015748031497
          },
          {
            "number": 7,
            "ticks": 38400,
            "time": 31.475392,
            "value": 0.7874015748031497
          }
        ],
        "10": [
          {
            "number": 10,
            "ticks": 38400,
            "time": 31.475392,
            "value": 0.5039370078740157
          },
          {
            "number": 10,
            "ticks": 38400,
            "time": 31.475392,
            "value": 0.5039370078740157
          }
        ],
        "100": [
          {
            "number": 100,
            "ticks": 38400,
            "time": 31.475392,
            "value": 0
          },
          {
            "number": 100,
            "ticks": 38400,
            "time": 31.475392,
            "value": 0
          }
        ],
        "101": [
          {
            "number": 101,
            "ticks": 38400,
            "time": 31.475392,
            "value": 0
          },
          {
            "number": 101,
            "ticks": 38400,
            "time": 31.475392,
            "value": 0
          }
        ]
      },
      "pitchBends": [
        {
          "ticks": 0,
          "time": 0,
          "value": 0
        },
        {
          "ticks": 38400,
          "time": 31.475392,
          "value": 0
        },
        {
          "ticks": 38400,
          "time": 31.475392,
          "value": 0
        }
      ],
      "instrument": {
        "family": "strings",
        "number": 46,
        "name": "orchestral harp"
      },
      "name": "",
      "notes": []
    },
    {
      "channel": 0,
      "controlChanges": {
        "6": [
          {
            "number": 6,
            "ticks": 0,
            "time": 0,
            "value": 0.09448818897637795
          }
        ],
        "7": [
          {
            "number": 7,
            "ticks": 0,
            "time": 0,
            "value": 1
          },
          {
            "number": 7,
            "ticks": 0,
            "time": 0,
            "value": 1
          }
        ],
        "10": [
          {
            "number": 10,
            "ticks": 0,
            "time": 0,
            "value": 0.5039370078740157
          },
          {
            "number": 10,
            "ticks": 0,
            "time": 0,
            "value": 0.5039370078740157
          }
        ],
        "100": [
          {
            "number": 100,
            "ticks": 0,
            "time": 0,
            "value": 0
          }
        ],
        "101": [
          {
            "number": 101,
            "ticks": 0,
            "time": 0,
            "value": 0
          }
        ]
      },
      "pitchBends": [
        {
          "ticks": 0,
          "time": 0,
          "value": 0
        },
        {
          "ticks": 0,
          "time": 0,
          "value": 0
        }
      ],
      "instrument": {
        "family": "piano",
        "number": 0,
        "name": "acoustic grand piano"
      },
      "name": "AtomPro",
      "notes": [],
      "endOfTrackTicks": 38400
    },
    {
      "channel": 0,
      "controlChanges": {
        "6": [
          {
            "number": 6,
            "ticks": 38400,
            "time": 31.475392,
            "value": 0.09448818897637795
          },
          {
            "number": 6,
            "ticks": 38400,
            "time": 31.475392,
            "value": 0.09448818897637795
          }
        ],
        "7": [
          {
            "number": 7,
            "ticks": 38400,
            "time": 31.475392,
            "value": 1
          },
          {
            "number": 7,
            "ticks": 38400,
            "time": 31.475392,
            "value": 1
          }
        ],
        "10": [
          {
            "number": 10,
            "ticks": 38400,
            "time": 31.475392,
            "value": 0.5039370078740157
          },
          {
            "number": 10,
            "ticks": 38400,
            "time": 31.475392,
            "value": 0.5039370078740157
          }
        ],
        "100": [
          {
            "number": 100,
            "ticks": 38400,
            "time": 31.475392,
            "value": 0
          },
          {
            "number": 100,
            "ticks": 38400,
            "time": 31.475392,
            "value": 0
          }
        ],
        "101": [
          {
            "number": 101,
            "ticks": 38400,
            "time": 31.475392,
            "value": 0
          },
          {
            "number": 101,
            "ticks": 38400,
            "time": 31.475392,
            "value": 0
          }
        ]
      },
      "pitchBends": [
        {
          "ticks": 0,
          "time": 0,
          "value": 0
        },
        {
          "ticks": 38400,
          "time": 31.475392,
          "value": 0
        },
        {
          "ticks": 38400,
          "time": 31.475392,
          "value": 0
        }
      ],
      "instrument": {
        "family": "strings",
        "number": 40,
        "name": "violin"
      },
      "name": "",
      "notes": []
    },
    {
      "channel": 0,
      "controlChanges": {
        "6": [
          {
            "number": 6,
            "ticks": 0,
            "time": 0,
            "value": 0.09448818897637795
          }
        ],
        "7": [
          {
            "number": 7,
            "ticks": 0,
            "time": 0,
            "value": 1
          },
          {
            "number": 7,
            "ticks": 0,
            "time": 0,
            "value": 1
          }
        ],
        "10": [
          {
            "number": 10,
            "ticks": 0,
            "time": 0,
            "value": 0.5039370078740157
          },
          {
            "number": 10,
            "ticks": 0,
            "time": 0,
            "value": 0.5039370078740157
          }
        ],
        "100": [
          {
            "number": 100,
            "ticks": 0,
            "time": 0,
            "value": 0
          }
        ],
        "101": [
          {
            "number": 101,
            "ticks": 0,
            "time": 0,
            "value": 0
          }
        ]
      },
      "pitchBends": [
        {
          "ticks": 0,
          "time": 0,
          "value": 0
        },
        {
          "ticks": 0,
          "time": 0,
          "value": 0
        }
      ],
      "instrument": {
        "family": "piano",
        "number": 0,
        "name": "acoustic grand piano"
      },
      "name": "AtomPro #2",
      "notes": [],
      "endOfTrackTicks": 38400
    },
    {
      "channel": 0,
      "controlChanges": {
        "6": [
          {
            "number": 6,
            "ticks": 38400,
            "time": 31.475392,
            "value": 0.09448818897637795
          },
          {
            "number": 6,
            "ticks": 38400,
            "time": 31.475392,
            "value": 0.09448818897637795
          }
        ],
        "7": [
          {
            "number": 7,
            "ticks": 38400,
            "time": 31.475392,
            "value": 1
          },
          {
            "number": 7,
            "ticks": 38400,
            "time": 31.475392,
            "value": 1
          }
        ],
        "10": [
          {
            "number": 10,
            "ticks": 38400,
            "time": 31.475392,
            "value": 0.5039370078740157
          },
          {
            "number": 10,
            "ticks": 38400,
            "time": 31.475392,
            "value": 0.5039370078740157
          }
        ],
        "100": [
          {
            "number": 100,
            "ticks": 38400,
            "time": 31.475392,
            "value": 0
          },
          {
            "number": 100,
            "ticks": 38400,
            "time": 31.475392,
            "value": 0
          }
        ],
        "101": [
          {
            "number": 101,
            "ticks": 38400,
            "time": 31.475392,
            "value": 0
          },
          {
            "number": 101,
            "ticks": 38400,
            "time": 31.475392,
            "value": 0
          }
        ]
      },
      "pitchBends": [
        {
          "ticks": 0,
          "time": 0,
          "value": 0
        },
        {
          "ticks": 38400,
          "time": 31.475392,
          "value": 0
        },
        {
          "ticks": 38400,
          "time": 31.475392,
          "value": 0
        }
      ],
      "instrument": {
        "family": "strings",
        "number": 40,
        "name": "violin"
      },
      "name": "",
      "notes": []
    },
    {
      "channel": 0,
      "controlChanges": {
        "6": [
          {
            "number": 6,
            "ticks": 0,
            "time": 0,
            "value": 0.09448818897637795
          }
        ],
        "7": [
          {
            "number": 7,
            "ticks": 0,
            "time": 0,
            "value": 0.7874015748031497
          },
          {
            "number": 7,
            "ticks": 0,
            "time": 0,
            "value": 0.7874015748031497
          }
        ],
        "10": [
          {
            "number": 10,
            "ticks": 0,
            "time": 0,
            "value": 0.5039370078740157
          },
          {
            "number": 10,
            "ticks": 0,
            "time": 0,
            "value": 0.5039370078740157
          }
        ],
        "100": [
          {
            "number": 100,
            "ticks": 0,
            "time": 0,
            "value": 0
          }
        ],
        "101": [
          {
            "number": 101,
            "ticks": 0,
            "time": 0,
            "value": 0
          }
        ]
      },
      "pitchBends": [
        {
          "ticks": 0,
          "time": 0,
          "value": 0
        },
        {
          "ticks": 0,
          "time": 0,
          "value": 0
        }
      ],
      "instrument": {
        "family": "piano",
        "number": 0,
        "name": "acoustic grand piano"
      },
      "name": "AtomPro",
      "notes": [],
      "endOfTrackTicks": 38400
    },
    {
      "channel": 0,
      "controlChanges": {
        "6": [
          {
            "number": 6,
            "ticks": 38400,
            "time": 31.475392,
            "value": 0.09448818897637795
          },
          {
            "number": 6,
            "ticks": 38400,
            "time": 31.475392,
            "value": 0.09448818897637795
          }
        ],
        "7": [
          {
            "number": 7,
            "ticks": 38400,
            "time": 31.475392,
            "value": 0.7874015748031497
          },
          {
            "number": 7,
            "ticks": 38400,
            "time": 31.475392,
            "value": 0.7874015748031497
          }
        ],
        "10": [
          {
            "number": 10,
            "ticks": 38400,
            "time": 31.475392,
            "value": 0.5039370078740157
          },
          {
            "number": 10,
            "ticks": 38400,
            "time": 31.475392,
            "value": 0.5039370078740157
          }
        ],
        "100": [
          {
            "number": 100,
            "ticks": 38400,
            "time": 31.475392,
            "value": 0
          },
          {
            "number": 100,
            "ticks": 38400,
            "time": 31.475392,
            "value": 0
          }
        ],
        "101": [
          {
            "number": 101,
            "ticks": 38400,
            "time": 31.475392,
            "value": 0
          },
          {
            "number": 101,
            "ticks": 38400,
            "time": 31.475392,
            "value": 0
          }
        ]
      },
      "pitchBends": [
        {
          "ticks": 0,
          "time": 0,
          "value": 0
        },
        {
          "ticks": 38400,
          "time": 31.475392,
          "value": 0
        },
        {
          "ticks": 38400,
          "time": 31.475392,
          "value": 0
        }
      ],
      "instrument": {
        "family": "synth lead",
        "number": 80,
        "name": "lead 1 (square)"
      },
      "name": "",
      "notes": []
    }
  ]
}