{
  "header": {
    "keySignatures": [],
    "meta": [],
    "name": "",
    "ppq": 384,
    "tempos": [
      {
        "bpm": 167.00020318358054,
        "ticks": 0
      }
    ],
    "timeSignatures": [
      {
        "ticks": 0,
        "timeSignature": [
          1,
          4
        ],
        "measures": 0
      }
    ]
  },
  "tracks": [
    {
      "channel": 0,
      "controlChanges": {},
      "pitchBends": [],
      "instrument": {
        "family": "synth lead",
        "number": 87,
        "name": "lead 8 (bass + lead)"
      },
      "name": "Synth Pluck",
      "notes": [
        {
          "duration": 0.1796405,
          "durationTicks": 192,
          "midi": 29,
          "name": "F1",
          "ticks": 0,
          "time": 0,
          "velocity": 0.3937007874015748
        },
        {
          "duration": 0.1796405,
          "durationTicks": 192,
          "midi": 53,
          "name": "F3",
          "ticks": 0,
          "time": 0,
          "velocity": 0.3937007874015748
        },
        {
          "duration": 0.1796405,
          "durationTicks": 192,
          "midi": 48,
          "name": "C3",
          "ticks": 0,
          "time": 0,
          "velocity": 0.3937007874015748
        },
        {
          "duration": 0.1796405,
          "durationTicks": 192,
          "midi": 29,
          "name": "F1",
          "ticks": 192,
          "time": 0.1796405,
          "velocity": 0.3937007874015748
        },
        {
          "duration": 0.1796405,
          "durationTicks": 192,
          "midi": 48,
          "name": "C3",
          "ticks": 192,
          "time": 0.1796405,
          "velocity": 0.3937007874015748
        },
        {
          "duration": 0.1796405,
          "durationTicks": 192,
          "midi": 53,
          "name": "F3",
          "ticks": 192,
          "time": 0.1796405,
          "velocity": 0.3937007874015748
        },
        {
          "duration": 0.17964049999999998,
          "durationTicks": 192,
          "midi": 31,
          "name": "G1",
          "ticks": 576,
          "time": 0.5389215,
          "velocity": 0.3937007874015748
        },
        {
          "duration": 0.17964049999999998,
          "durationTicks": 192,
          "midi": 55,
          "name": "G3",
          "ticks": 576,
          "time": 0.5389215,
          "velocity": 0.3937007874015748
        },
        {
          "duration": 0.17964049999999998,
          "durationTicks": 192,
          "midi": 50,
          "name": "D3",
          "ticks": 576,
          "time": 0.5389215,
          "velocity": 0.3937007874015748
        },
        {
          "duration": 0.17964049999999998,
          "durationTicks": 192,
          "midi": 50,
          "name": "D3",
          "ticks": 768,
          "time": 0.718562,
          "velocity": 0.3937007874015748
        },
        {
          "duration": 0.17964049999999998,
          "durationTicks": 192,
          "midi": 55,
          "name": "G3",
          "ticks": 768,
          "time": 0.718562,
          "velocity": 0.3937007874015748
        },
        {
          "duration": 0.17964049999999998,
          "durationTicks": 192,
          "midi": 31,
          "name": "G1",
          "ticks": 768,
          "time": 0.718562,
          "velocity": 0.3937007874015748
        },
        {
          "duration": 0.17964049999999987,
          "durationTicks": 192,
          "midi": 50,
          "name": "D3",
          "ticks": 1152,
          "time": 1.077843,
          "velocity": 0.3937007874015748
        },
        {
          "duration": 0.17964049999999987,
          "durationTicks": 192,
          "midi": 55,
          "name": "G3",
          "ticks": 1152,
          "time": 1.077843,
          "velocity": 0.3937007874015748
        },
        {
          "duration": 0.17964049999999987,
          "durationTicks": 192,
          "midi": 31,
          "name": "G1",
          "ticks": 1152,
          "time": 1.077843,
          "velocity": 0.3937007874015748
        },
        {
          "duration": 2.24550625,
          "durationTicks": 2400,
          "midi": 52,
          "name": "E3",
          "ticks": 1344,
          "time": 1.2574835,
          "velocity": 0.3937007874015748
        },
        {
          "duration": 1.6167645000000002,
          "durationTicks": 1728,
          "midi": 57,
          "name": "A3",
          "ticks": 1344,
          "time": 1.2574835,
          "velocity": 0.3937007874015748
        },
        {
          "duration": 2.24550625,
          "durationTicks": 2400,
          "midi": 33,
          "name": "A1",
          "ticks": 1344,
          "time": 1.2574835,
          "velocity": 0.3937007874015748
        },
        {
          "duration": 0.7185620000000001,
          "durationTicks": 768,
          "midi": 60,
          "name": "C4",
          "ticks": 1344,
          "time": 1.2574835,
          "velocity": 0.3937007874015748
        },
        {
          "duration": 0.7185620000000001,
          "durationTicks": 768,
          "midi": 69,
          "name": "A4",
          "ticks": 1344,
          "time": 1.2574835,
          "velocity": 0.3937007874015748
        },
        {
          "duration": 0.5389214999999998,
          "durationTicks": 576,
          "midi": 59,
          "name": "B3",
          "ticks": 2112,
          "time": 1.9760455000000001,
          "velocity": 0.3937007874015748
        },
        {
          "duration": 0.5389214999999998,
          "durationTicks": 576,
          "midi": 67,
          "name": "G4",
          "ticks": 2112,
          "time": 1.9760455000000001,
          "velocity": 0.3937007874015748
        },
        {
          "duration": 0.3592810000000002,
          "durationTicks": 384,
          "midi": 64,
          "name": "E4",
          "ticks": 2688,
          "time": 2.514967,
          "velocity": 0.3937007874015748
        },
        {
          "duration": 0.9880227500000003,
          "durationTicks": 1056,
          "midi": 57,
          "name": "A3",
          "ticks": 2688,
          "time": 2.514967,
          "velocity": 0.3937007874015748
        },
        {
          "duration": 0.5389214999999998,
          "durationTicks": 576,
          "midi": 72,
          "name": "C5",
          "ticks": 3072,
          "time": 2.874248,
          "velocity": 0.3937007874015748
        },
        {
          "duration": 0.5389214999999998,
          "durationTicks": 576,
          "midi": 64,
          "name": "E4",
          "ticks": 3072,
          "time": 2.874248,
          "velocity": 0.3937007874015748
        },
        {
          "duration": 0.5389215000000003,
          "durationTicks": 576,
          "midi": 69,
          "name": "A4",
          "ticks": 3648,
          "time": 3.4131695,
          "velocity": 0.3937007874015748
        },
        {
          "duration": 0.5389215000000003,
          "durationTicks": 576,
          "midi": 60,
          "name": "C4",
          "ticks": 3648,
          "time": 3.4131695,
          "velocity": 0.3937007874015748
        },
        {
          "duration": 0.1796405000000001,
          "durationTicks": 192,
          "midi": 33,
          "name": "A1",
          "ticks": 3840,
          "time": 3.59281,
          "velocity": 0.3937007874015748
        },
        {
          "duration": 0.1796405000000001,
          "durationTicks": 192,
          "midi": 52,
          "name": "E3",
          "ticks": 3840,
          "time": 3.59281,
          "velocity": 0.3937007874015748
        },
        {
          "duration": 0.1796405000000001,
          "durationTicks": 192,
          "midi": 57,
          "name": "A3",
          "ticks": 3840,
          "time": 3.59281,
          "velocity": 0.3937007874015748
        },
        {
          "duration": 0.1796405000000001,
          "durationTicks": 192,
          "midi": 50,
          "name": "D3",
          "ticks": 4032,
          "time": 3.7724505,
          "velocity": 0.3937007874015748
        },
        {
          "duration": 0.1796405000000001,
          "durationTicks": 192,
          "midi": 55,
          "name": "G3",
          "ticks": 4032,
          "time": 3.7724505,
          "velocity": 0.3937007874015748
        },
        {
          "duration": 0.1796405000000001,
          "durationTicks": 192,
          "midi": 31,
          "name": "G1",
          "ticks": 4032,
          "time": 3.7724505,
          "velocity": 0.3937007874015748
        },
        {
          "duration": 2.24550625,
          "durationTicks": 2400,
          "midi": 29,
          "name": "F1",
          "ticks": 4416,
          "time": 4.1317315,
          "velocity": 0.3937007874015748
        },
        {
          "duration": 2.24550625,
          "durationTicks": 2400,
          "midi": 48,
          "name": "C3",
          "ticks": 4416,
          "time": 4.1317315,
          "velocity": 0.3937007874015748
        },
        {
          "duration": 0.7185620000000004,
          "durationTicks": 768,
          "midi": 69,
          "name": "A4",
          "ticks": 4416,
          "time": 4.1317315,
          "velocity": 0.3937007874015748
        },
        {
          "duration": 2.24550625,
          "durationTicks": 2400,
          "midi": 53,
          "name": "F3",
          "ticks": 4416,
          "time": 4.1317315,
          "velocity": 0.3937007874015748
        },
        {
          "duration": 0.7185620000000004,
          "durationTicks": 768,
          "midi": 60,
          "name": "C4",
          "ticks": 4416,
          "time": 4.1317315,
          "velocity": 0.3937007874015748
        },
        {
          "duration": 0.5389214999999998,
          "durationTicks": 576,
          "midi": 67,
          "name": "G4",
          "ticks": 5184,
          "time": 4.8502935,
          "velocity": 0.3937007874015748
        },
        {
          "duration": 0.5389214999999998,
          "durationTicks": 576,
          "midi": 59,
          "name": "B3",
          "ticks": 5184,
          "time": 4.8502935,
          "velocity": 0.3937007874015748
        },
        {
          "duration": 0.3592810000000002,
          "durationTicks": 384,
          "midi": 64,
          "name": "E4",
          "ticks": 5760,
          "time": 5.389215,
          "velocity": 0.3937007874015748
        },
        {
          "duration": 0.3592810000000002,
          "durationTicks": 384,
          "midi": 57,
          "name": "A3",
          "ticks": 5760,
          "time": 5.389215,
          "velocity": 0.3937007874015748
        },
        {
          "duration": 0.5389214999999998,
          "durationTicks": 576,
          "midi": 72,
          "name": "C5",
          "ticks": 6144,
          "time": 5.748496,
          "velocity": 0.3937007874015748
        },
        {
          "duration": 0.5389214999999998,
          "durationTicks": 576,
          "midi": 64,
          "name": "E4",
          "ticks": 6144,
          "time": 5.748496,
          "velocity": 0.3937007874015748
        },
        {
          "duration": 0.5389214999999998,
          "durationTicks": 576,
          "midi": 60,
          "name": "C4",
          "ticks": 6720,
          "time": 6.2874175,
          "velocity": 0.3937007874015748
        },
        {
          "duration": 0.5389214999999998,
          "durationTicks": 576,
          "midi": 69,
          "name": "A4",
          "ticks": 6720,
          "time": 6.2874175,
          "velocity": 0.3937007874015748
        },
        {
          "duration": 0.17964049999999965,
          "durationTicks": 192,
          "midi": 53,
          "name": "F3",
          "ticks": 6912,
          "time": 6.467058000000001,
          "velocity": 0.3937007874015748
        },
        {
          "duration": 0.17964049999999965,
          "durationTicks": 192,
          "midi": 48,
          "name": "C3",
          "ticks": 6912,
          "time": 6.467058000000001,
          "velocity": 0.3937007874015748
        },
        {
          "duration": 0.17964049999999965,
          "durationTicks": 192,
          "midi": 29,
          "name": "F1",
          "ticks": 6912,
          "time": 6.467058000000001,
          "velocity": 0.3937007874015748
        },
        {
          "duration": 0.17964049999999965,
          "durationTicks": 192,
          "midi": 47,
          "name": "B2",
          "ticks": 7104,
          "time": 6.6466985,
          "velocity": 0.3937007874015748
        },
        {
          "duration": 0.17964049999999965,
          "durationTicks": 192,
          "midi": 52,
          "name": "E3",
          "ticks": 7104,
          "time": 6.6466985,
          "velocity": 0.3937007874015748
        },
        {
          "duration": 0.17964049999999965,
          "durationTicks": 192,
          "midi": 28,
          "name": "E1",
          "ticks": 7104,
          "time": 6.6466985,
          "velocity": 0.3937007874015748
        },
        {
          "duration": 1.4371240000000007,
          "durationTicks": 1536,
          "midi": 26,
          "name": "D1",
          "ticks": 7488,
          "time": 7.0059795000000005,
          "velocity": 0.3937007874015748
        },
        {
          "duration": 0.7185619999999995,
          "durationTicks": 768,
          "midi": 60,
          "name": "C4",
          "ticks": 7488,
          "time": 7.0059795000000005,
          "velocity": 0.3937007874015748
        },
        {
          "duration": 0.7185619999999995,
          "durationTicks": 768,
          "midi": 69,
          "name": "A4",
          "ticks": 7488,
          "time": 7.0059795000000005,
          "velocity": 0.3937007874015748
        },
        {
          "duration": 1.4371240000000007,
          "durationTicks": 1536,
          "midi": 45,
          "name": "A2",
          "ticks": 7488,
          "time": 7.0059795000000005,
          "velocity": 0.3937007874015748
        },
        {
          "duration": 1.4371240000000007,
          "durationTicks": 1536,
          "midi": 50,
          "name": "D3",
          "ticks": 7488,
          "time": 7.0059795000000005,
          "velocity": 0.3937007874015748
        },
        {
          "duration": 0.5389214999999998,
          "durationTicks": 576,
          "midi": 71,
          "name": "B4",
          "ticks": 8256,
          "time": 7.7245415,
          "velocity": 0.3937007874015748
        },
        {
          "duration": 0.5389214999999998,
          "durationTicks": 576,
          "midi": 62,
          "name": "D4",
          "ticks": 8256,
          "time": 7.7245415,
          "velocity": 0.3937007874015748
        },
        {
          "duration": 0.35928100000000107,
          "durationTicks": 384,
          "midi": 72,
          "name": "C5",
          "ticks": 8832,
          "time": 8.263463,
          "velocity": 0.3937007874015748
        },
        {
          "duration": 0.35928100000000107,
          "durationTicks": 384,
          "midi": 64,
          "name": "E4",
          "ticks": 8832,
          "time": 8.263463,
          "velocity": 0.3937007874015748
        },
        {
          "duration": 0.7185620000000004,
          "durationTicks": 768,
          "midi": 51,
          "name": "D#3",
          "ticks": 9216,
          "time": 8.622744,
          "velocity": 0.3937007874015748
        },
        {
          "duration": 0.7185620000000004,
          "durationTicks": 768,
          "midi": 46,
          "name": "A#2",
          "ticks": 9216,
          "time": 8.622744,
          "velocity": 0.3937007874015748
        },
        {
          "duration": 0.44910125,
          "durationTicks": 480,
          "midi": 75,
          "name": "D#5",
          "ticks": 9216,
          "time": 8.622744,
          "velocity": 0.3937007874015748
        },
        {
          "duration": 0.44910125,
          "durationTicks": 480,
          "midi": 66,
          "name": "F#4",
          "ticks": 9216,
          "time": 8.622744,
          "velocity": 0.3937007874015748
        },
        {
          "duration": 1.2574834999999993,
          "durationTicks": 1344,
          "midi": 27,
          "name": "D#1",
          "ticks": 9216,
          "time": 8.622744,
          "velocity": 0.3937007874015748
        },
        {
          "duration": 0.7185619999999986,
          "durationTicks": 768,
          "midi": 69,
          "name": "A4",
          "ticks": 9984,
          "time": 9.341306000000001,
          "velocity": 0.3937007874015748
        },
        {
          "duration": 0.7185619999999986,
          "durationTicks": 768,
          "midi": 78,
          "name": "F#5",
          "ticks": 9984,
          "time": 9.341306000000001,
          "velocity": 0.3937007874015748
        },
        {
          "duration": 0.7185619999999986,
          "durationTicks": 768,
          "midi": 54,
          "name": "F#3",
          "ticks": 9984,
          "time": 9.341306000000001,
          "velocity": 0.3937007874015748
        },
        {
          "duration": 0.7185619999999986,
          "durationTicks": 768,
          "midi": 49,
          "name": "C#3",
          "ticks": 9984,
          "time": 9.341306000000001,
          "velocity": 0.3937007874015748
        },
        {
          "duration": 2.6946075,
          "durationTicks": 2880,
          "midi": 76,
          "name": "E5",
          "ticks": 10752,
          "time": 10.059868,
          "velocity": 0.3937007874015748
        },
        {
          "duration": 2.6946075,
          "durationTicks": 2880,
          "midi": 68,
          "name": "G#4",
          "ticks": 10752,
          "time": 10.059868,
          "velocity": 0.3937007874015748
        },
        {
          "duration": 0.17964050000000142,
          "durationTicks": 192,
          "midi": 52,
          "name": "E3",
          "ticks": 10752,
          "time": 10.059868,
          "velocity": 0.3937007874015748
        },
        {
          "duration": 2.6946075,
          "durationTicks": 2880,
          "midi": 28,
          "name": "E1",
          "ticks": 10752,
          "time": 10.059868,
          "velocity": 0.3937007874015748
        },
        {
          "duration": 0.17964050000000142,
          "durationTicks": 192,
          "midi": 47,
          "name": "B2",
          "ticks": 10752,
          "time": 10.059868,
          "velocity": 0.3937007874015748
        },
        {
          "duration": 0.08982024999999894,
          "durationTicks": 96,
          "midi": 40,
          "name": "E2",
          "ticks": 10944,
          "time": 10.239508500000001,
          "velocity": 0.3937007874015748
        },
        {
          "duration": 0.08982025000000071,
          "durationTicks": 96,
          "midi": 40,
          "name": "E2",
          "ticks": 11040,
          "time": 10.32932875,
          "velocity": 0.3937007874015748
        },
        {
          "duration": 0.08982024999999894,
          "durationTicks": 96,
          "midi": 40,
          "name": "E2",
          "ticks": 11136,
          "time": 10.419149,
          "velocity": 0.3937007874015748
        },
        {
          "duration": 0.17964049999999965,
          "durationTicks": 192,
          "midi": 47,
          "name": "B2",
          "ticks": 11328,
          "time": 10.5987895,
          "velocity": 0.3937007874015748
        },
        {
          "duration": 0.17964049999999965,
          "durationTicks": 192,
          "midi": 52,
          "name": "E3",
          "ticks": 11328,
          "time": 10.5987895,
          "velocity": 0.3937007874015748
        },
        {
          "duration": 0.08982025000000071,
          "durationTicks": 96,
          "midi": 40,
          "name": "E2",
          "ticks": 11520,
          "time": 10.77843,
          "velocity": 0.3937007874015748
        },
        {
          "duration": 0.08982024999999894,
          "durationTicks": 96,
          "midi": 40,
          "name": "E2",
          "ticks": 11616,
          "time": 10.868250250000001,
          "velocity": 0.3937007874015748
        },
        {
          "duration": 0.08982025000000071,
          "durationTicks": 96,
          "midi": 40,
          "name": "E2",
          "ticks": 11712,
          "time": 10.9580705,
          "velocity": 0.3937007874015748
        },
        {
          "duration": 0.17964049999999965,
          "durationTicks": 192,
          "midi": 47,
          "name": "B2",
          "ticks": 11904,
          "time": 11.137711000000001,
          "velocity": 0.3937007874015748
        },
        {
          "duration": 0.17964049999999965,
          "durationTicks": 192,
          "midi": 52,
          "name": "E3",
          "ticks": 11904,
          "time": 11.137711000000001,
          "velocity": 0.3937007874015748
        },
        {
          "duration": 0.08982024999999894,
          "durationTicks": 96,
          "midi": 40,
          "name": "E2",
          "ticks": 12096,
          "time": 11.317351500000001,
          "velocity": 0.3937007874015748
        },
        {
          "duration": 0.08982025000000071,
          "durationTicks": 96,
          "midi": 40,
          "name": "E2",
          "ticks": 12192,
          "time": 11.40717175,
          "velocity": 0.3937007874015748
        },
        {
          "duration": 0.17964049999999965,
          "durationTicks": 192,
          "midi": 52,
          "name": "E3",
          "ticks": 12288,
          "time": 11.496992,
          "velocity": 0.3937007874015748
        },
        {
          "duration": 0.17964049999999965,
          "durationTicks": 192,
          "midi": 47,
          "name": "B2",
          "ticks": 12288,
          "time": 11.496992,
          "velocity": 0.3937007874015748
        },
        {
          "duration": 0.08982025000000071,
          "durationTicks": 96,
          "midi": 40,
          "name": "E2",
          "ticks": 12480,
          "time": 11.6766325,
          "velocity": 0.3937007874015748
        },
        {
          "duration": 0.08982024999999894,
          "durationTicks": 96,
          "midi": 40,
          "name": "E2",
          "ticks": 12576,
          "time": 11.766452750000001,
          "velocity": 0.3937007874015748
        },
        {
          "duration": 0.08982025000000071,
          "durationTicks": 96,
          "midi": 40,
          "name": "E2",
          "ticks": 12672,
          "time": 11.856273,
          "velocity": 0.3937007874015748
        },
        {
          "duration": 0.17964049999999965,
          "durationTicks": 192,
          "midi": 47,
          "name": "B2",
          "ticks": 12864,
          "time": 12.035913500000001,
          "velocity": 0.3937007874015748
        },
        {
          "duration": 0.17964049999999965,
          "durationTicks": 192,
          "midi": 52,
          "name": "E3",
          "ticks": 12864,
          "time": 12.035913500000001,
          "velocity": 0.3937007874015748
        },
        {
          "duration": 0.08982024999999894,
          "durationTicks": 96,
          "midi": 40,
          "name": "E2",
          "ticks": 13056,
          "time": 12.215554000000001,
          "velocity": 0.3937007874015748
        },
        {
          "duration": 0.08982025000000071,
          "durationTicks": 96,
          "midi": 40,
          "name": "E2",
          "ticks": 13152,
          "time": 12.30537425,
          "velocity": 0.3937007874015748
        },
        {
          "duration": 0.08982025000000071,
          "durationTicks": 96,
          "midi": 40,
          "name": "E2",
          "ticks": 13248,
          "time": 12.3951945,
          "velocity": 0.3937007874015748
        },
        {
          "duration": 0.17964049999999965,
          "durationTicks": 192,
          "midi": 52,
          "name": "E3",
          "ticks": 13440,
          "time": 12.574835,
          "velocity": 0.3937007874015748
        },
        {
          "duration": 0.17964049999999965,
          "durationTicks": 192,
          "midi": 47,
          "name": "B2",
          "ticks": 13440,
          "time": 12.574835,
          "velocity": 0.3937007874015748
        },
        {
          "duration": 0.08982025000000071,
          "durationTicks": 96,
          "midi": 40,
          "name": "E2",
          "ticks": 13632,
          "time": 12.7544755,
          "velocity": 0.3937007874015748
        },
        {
          "duration": 0.08982025000000071,
          "durationTicks": 96,
          "midi": 40,
          "name": "E2",
          "ticks": 13728,
          "time": 12.84429575,
          "velocity": 0.3937007874015748
        },
        {
          "duration": 1.2574834999999993,
          "durationTicks": 1344,
          "midi": 35,
          "name": "B1",
          "ticks": 13824,
          "time": 12.934116000000001,
          "velocity": 0.3937007874015748
        },
        {
          "duration": 0.08982024999999894,
          "durationTicks": 96,
          "midi": 68,
          "name": "G#4",
          "ticks": 13824,
          "time": 12.934116000000001,
          "velocity": 0.3937007874015748
        },
        {
          "duration": 1.2574834999999993,
          "durationTicks": 1344,
          "midi": 40,
          "name": "E2",
          "ticks": 13824,
          "time": 12.934116000000001,
          "velocity": 0.3937007874015748
        },
        {
          "duration": 0.08982024999999894,
          "durationTicks": 96,
          "midi": 80,
          "name": "G#5",
          "ticks": 13824,
          "time": 12.934116000000001,
          "velocity": 0.3937007874015748
        },
        {
          "duration": 1.2574834999999993,
          "durationTicks": 1344,
          "midi": 28,
          "name": "E1",
          "ticks": 13824,
          "time": 12.934116000000001,
          "velocity": 0.3937007874015748
        },
        {
          "duration": 0.08982025000000071,
          "durationTicks": 96,
          "midi": 76,
          "name": "E5",
          "ticks": 13920,
          "time": 13.02393625,
          "velocity": 0.3937007874015748
        },
        {
          "duration": 0.08982025000000071,
          "durationTicks": 96,
          "midi": 64,
          "name": "E4",
          "ticks": 13920,
          "time": 13.02393625,
          "velocity": 0.3937007874015748
        },
        {
          "duration": 0.08982024999999894,
          "durationTicks": 96,
          "midi": 80,
          "name": "G#5",
          "ticks": 14016,
          "time": 13.113756500000001,
          "velocity": 0.3937007874015748
        },
        {
          "duration": 0.08982024999999894,
          "durationTicks": 96,
          "midi": 68,
          "name": "G#4",
          "ticks": 14016,
          "time": 13.113756500000001,
          "velocity": 0.3937007874015748
        },
        {
          "duration": 0.08982025000000071,
          "durationTicks": 96,
          "midi": 76,
          "name": "E5",
          "ticks": 14112,
          "time": 13.20357675,
          "velocity": 0.3937007874015748
        },
        {
          "duration": 0.08982025000000071,
          "durationTicks": 96,
          "midi": 64,
          "name": "E4",
          "ticks": 14112,
          "time": 13.20357675,
          "velocity": 0.3937007874015748
        },
        {
          "duration": 0.08982025000000071,
          "durationTicks": 96,
          "midi": 79,
          "name": "G5",
          "ticks": 14208,
          "time": 13.293397,
          "velocity": 0.3937007874015748
        },
        {
          "duration": 0.08982025000000071,
          "durationTicks": 96,
          "midi": 67,
          "name": "G4",
          "ticks": 14208,
          "time": 13.293397,
          "velocity": 0.3937007874015748
        },
        {
          "duration": 0.08982024999999894,
          "durationTicks": 96,
          "midi": 75,
          "name": "D#5",
          "ticks": 14304,
          "time": 13.383217250000001,
          "velocity": 0.3937007874015748
        },
        {
          "duration": 0.08982024999999894,
          "durationTicks": 96,
          "midi": 63,
          "name": "D#4",
          "ticks": 14304,
          "time": 13.383217250000001,
          "velocity": 0.3937007874015748
        },
        {
          "duration": 0.08982025000000071,
          "durationTicks": 96,
          "midi": 79,
          "name": "G5",
          "ticks": 14400,
          "time": 13.4730375,
          "velocity": 0.3937007874015748
        },
        {
          "duration": 0.08982025000000071,
          "durationTicks": 96,
          "midi": 67,
          "name": "G4",
          "ticks": 14400,
          "time": 13.4730375,
          "velocity": 0.3937007874015748
        },
        {
          "duration": 0.08982024999999894,
          "durationTicks": 96,
          "midi": 75,
          "name": "D#5",
          "ticks": 14496,
          "time": 13.562857750000001,
          "velocity": 0.3937007874015748
        },
        {
          "duration": 0.08982024999999894,
          "durationTicks": 96,
          "midi": 63,
          "name": "D#4",
          "ticks": 14496,
          "time": 13.562857750000001,
          "velocity": 0.3937007874015748
        },
        {
          "duration": 0.08982025000000071,
          "durationTicks": 96,
          "midi": 78,
          "name": "F#5",
          "ticks": 14592,
          "time": 13.652678,
          "velocity": 0.3937007874015748
        },
        {
          "duration": 0.08982025000000071,
          "durationTicks": 96,
          "midi": 66,
          "name": "F#4",
          "ticks": 14592,
          "time": 13.652678,
          "velocity": 0.3937007874015748
        },
        {
          "duration": 0.08982025000000071,
          "durationTicks": 96,
          "midi": 74,
          "name": "D5",
          "ticks": 14688,
          "time": 13.74249825,
          "velocity": 0.3937007874015748
        },
        {
          "duration": 0.08982025000000071,
          "durationTicks": 96,
          "midi": 62,
          "name": "D4",
          "ticks": 14688,
          "time": 13.74249825,
          "velocity": 0.3937007874015748
        },
        {
          "duration": 0.08982024999999894,
          "durationTicks": 96,
          "midi": 66,
          "name": "F#4",
          "ticks": 14784,
          "time": 13.832318500000001,
          "velocity": 0.3937007874015748
        },
        {
          "duration": 0.08982024999999894,
          "durationTicks": 96,
          "midi": 78,
          "name": "F#5",
          "ticks": 14784,
          "time": 13.832318500000001,
          "velocity": 0.3937007874015748
        },
        {
          "duration": 0.08982025000000071,
          "durationTicks": 96,
          "midi": 74,
          "name": "D5",
          "ticks": 14880,
          "time": 13.92213875,
          "velocity": 0.3937007874015748
        },
        {
          "duration": 0.08982025000000071,
          "durationTicks": 96,
          "midi": 62,
          "name": "D4",
          "ticks": 14880,
          "time": 13.92213875,
          "velocity": 0.3937007874015748
        },
        {
          "duration": 0.08982024999999894,
          "durationTicks": 96,
          "midi": 65,
          "name": "F4",
          "ticks": 14976,
          "time": 14.011959000000001,
          "velocity": 0.3937007874015748
        },
        {
          "duration": 0.08982024999999894,
          "durationTicks": 96,
          "midi": 77,
          "name": "F5",
          "ticks": 14976,
          "time": 14.011959000000001,
          "velocity": 0.3937007874015748
        },
        {
          "duration": 0.08982025000000071,
          "durationTicks": 96,
          "midi": 73,
          "name": "C#5",
          "ticks": 15072,
          "time": 14.10177925,
          "velocity": 0.3937007874015748
        },
        {
          "duration": 0.08982025000000071,
          "durationTicks": 96,
          "midi": 61,
          "name": "C#4",
          "ticks": 15072,
          "time": 14.10177925,
          "velocity": 0.3937007874015748
        },
        {
          "duration": 0.08982025000000071,
          "durationTicks": 96,
          "midi": 65,
          "name": "F4",
          "ticks": 15168,
          "time": 14.1915995,
          "velocity": 0.3937007874015748
        },
        {
          "duration": 0.08982025000000071,
          "durationTicks": 96,
          "midi": 77,
          "name": "F5",
          "ticks": 15168,
          "time": 14.1915995,
          "velocity": 0.3937007874015748
        },
        {
          "duration": 0.08982024999999894,
          "durationTicks": 96,
          "midi": 61,
          "name": "C#4",
          "ticks": 15264,
          "time": 14.281419750000001,
          "velocity": 0.3937007874015748
        },
        {
          "duration": 0.08982024999999894,
          "durationTicks": 96,
          "midi": 73,
          "name": "C#5",
          "ticks": 15264,
          "time": 14.281419750000001,
          "velocity": 0.3937007874015748
        },
        {
          "duration": 0.35928100000000107,
          "durationTicks": 384,
          "midi": 52,
          "name": "E3",
          "ticks": 15360,
          "time": 14.37124,
          "velocity": 0.3937007874015748
        },
        {
          "duration": 1.0778429999999997,
          "durationTicks": 1152,
          "midi": 47,
          "name": "B2",
          "ticks": 15360,
          "time": 14.37124,
          "velocity": 0.3937007874015748
        },
        {
          "duration": 1.257483500000001,
          "durationTicks": 1344,
          "midi": 52,
          "name": "E3",
          "ticks": 15360,
          "time": 14.37124,
          "velocity": 0.3937007874015748
        },
        {
          "duration": 0.08982025000000071,
          "durationTicks": 96,
          "midi": 76,
          "name": "E5",
          "ticks": 15360,
          "time": 14.37124,
          "velocity": 0.3937007874015748
        },
        {
          "duration": 0.08982025000000071,
          "durationTicks": 96,
          "midi": 64,
          "name": "E4",
          "ticks": 15360,
          "time": 14.37124,
          "velocity": 0.3937007874015748
        },
        {
          "duration": 0.08982024999999894,
          "durationTicks": 96,
          "midi": 60,
          "name": "C4",
          "ticks": 15456,
          "time": 14.461060250000001,
          "velocity": 0.3937007874015748
        },
        {
          "duration": 0.08982024999999894,
          "durationTicks": 96,
          "midi": 72,
          "name": "C5",
          "ticks": 15456,
          "time": 14.461060250000001,
          "velocity": 0.3937007874015748
        },
        {
          "duration": 0.08982025000000071,
          "durationTicks": 96,
          "midi": 76,
          "name": "E5",
          "ticks": 15552,
          "time": 14.5508805,
          "velocity": 0.3937007874015748
        },
        {
          "duration": 0.08982025000000071,
          "durationTicks": 96,
          "midi": 64,
          "name": "E4",
          "ticks": 15552,
          "time": 14.5508805,
          "velocity": 0.3937007874015748
        },
        {
          "duration": 0.08982025000000071,
          "durationTicks": 96,
          "midi": 60,
          "name": "C4",
          "ticks": 15648,
          "time": 14.64070075,
          "velocity": 0.3937007874015748
        },
        {
          "duration": 0.08982025000000071,
          "durationTicks": 96,
          "midi": 72,
          "name": "C5",
          "ticks": 15648,
          "time": 14.64070075,
          "velocity": 0.3937007874015748
        },
        {
          "duration": 0.3592809999999993,
          "durationTicks": 384,
          "midi": 50,
          "name": "D3",
          "ticks": 15744,
          "time": 14.730521000000001,
          "velocity": 0.3937007874015748
        },
        {
          "duration": 0.08982024999999894,
          "durationTicks": 96,
          "midi": 75,
          "name": "D#5",
          "ticks": 15744,
          "time": 14.730521000000001,
          "velocity": 0.3937007874015748
        },
        {
          "duration": 0.08982024999999894,
          "durationTicks": 96,
          "midi": 63,
          "name": "D#4",
          "ticks": 15744,
          "time": 14.730521000000001,
          "velocity": 0.3937007874015748
        },
        {
          "duration": 0.08982025000000071,
          "durationTicks": 96,
          "midi": 59,
          "name": "B3",
          "ticks": 15840,
          "time": 14.82034125,
          "velocity": 0.3937007874015748
        },
        {
          "duration": 0.08982025000000071,
          "durationTicks": 96,
          "midi": 71,
          "name": "B4",
          "ticks": 15840,
          "time": 14.82034125,
          "velocity": 0.3937007874015748
        },
        {
          "duration": 0.08982024999999894,
          "durationTicks": 96,
          "midi": 63,
          "name": "D#4",
          "ticks": 15936,
          "time": 14.910161500000001,
          "velocity": 0.3937007874015748
        },
        {
          "duration": 0.08982024999999894,
          "durationTicks": 96,
          "midi": 75,
          "name": "D#5",
          "ticks": 15936,
          "time": 14.910161500000001,
          "velocity": 0.3937007874015748
        },
        {
          "duration": 0.08982025000000071,
          "durationTicks": 96,
          "midi": 59,
          "name": "B3",
          "ticks": 16032,
          "time": 14.99998175,
          "velocity": 0.3937007874015748
        },
        {
          "duration": 0.08982025000000071,
          "durationTicks": 96,
          "midi": 71,
          "name": "B4",
          "ticks": 16032,
          "time": 14.99998175,
          "velocity": 0.3937007874015748
        },
        {
          "duration": 0.44910125,
          "durationTicks": 480,
          "midi": 64,
          "name": "E4",
          "ticks": 16128,
          "time": 15.089802,
          "velocity": 0.3937007874015748
        },
        {
          "duration": 0.5389215000000007,
          "durationTicks": 576,
          "midi": 47,
          "name": "B2",
          "ticks": 16128,
          "time": 15.089802,
          "velocity": 0.3937007874015748
        },
        {
          "duration": 0.17964050000000142,
          "durationTicks": 192,
          "midi": 45,
          "name": "A2",
          "ticks": 16512,
          "time": 15.449083,
          "velocity": 0.3937007874015748
        },
        {
          "duration": 0.3592809999999993,
          "durationTicks": 384,
          "midi": 33,
          "name": "A1",
          "ticks": 16704,
          "time": 15.628723500000001,
          "velocity": 0.3937007874015748
        },
        {
          "duration": 0.3592809999999993,
          "durationTicks": 384,
          "midi": 45,
          "name": "A2",
          "ticks": 16704,
          "time": 15.628723500000001,
          "velocity": 0.3937007874015748
        },
        {
          "duration": 0.17964049999999965,
          "durationTicks": 192,
          "midi": 33,
          "name": "A1",
          "ticks": 17088,
          "time": 15.9880045,
          "velocity": 0.3937007874015748
        },
        {
          "duration": 0.17964049999999965,
          "durationTicks": 192,
          "midi": 45,
          "name": "A2",
          "ticks": 17088,
          "time": 15.9880045,
          "velocity": 0.3937007874015748
        },
        {
          "duration": 0.17964050000000142,
          "durationTicks": 192,
          "midi": 52,
          "name": "E3",
          "ticks": 17280,
          "time": 16.167645,
          "velocity": 0.3937007874015748
        },
        {
          "duration": 0.17964050000000142,
          "durationTicks": 192,
          "midi": 33,
          "name": "A1",
          "ticks": 17280,
          "time": 16.167645,
          "velocity": 0.3937007874015748
        },
        {
          "duration": 0.3592809999999993,
          "durationTicks": 384,
          "midi": 64,
          "name": "E4",
          "ticks": 17280,
          "time": 16.167645,
          "velocity": 0.3937007874015748
        },
        {
          "duration": 0.17964049999999787,
          "durationTicks": 192,
          "midi": 33,
          "name": "A1",
          "ticks": 17472,
          "time": 16.3472855,
          "velocity": 0.3937007874015748
        },
        {
          "duration": 0.17964049999999787,
          "durationTicks": 192,
          "midi": 45,
          "name": "A2",
          "ticks": 17472,
          "time": 16.3472855,
          "velocity": 0.3937007874015748
        },
        {
          "duration": 0.17964050000000142,
          "durationTicks": 192,
          "midi": 52,
          "name": "E3",
          "ticks": 17664,
          "time": 16.526926,
          "velocity": 0.3937007874015748
        },
        {
          "duration": 0.17964050000000142,
          "durationTicks": 192,
          "midi": 57,
          "name": "A3",
          "ticks": 17664,
          "time": 16.526926,
          "velocity": 0.3937007874015748
        },
        {
          "duration": 0.17964050000000142,
          "durationTicks": 192,
          "midi": 33,
          "name": "A1",
          "ticks": 17664,
          "time": 16.526926,
          "velocity": 0.3937007874015748
        },
        {
          "duration": 0.35928100000000285,
          "durationTicks": 384,
          "midi": 69,
          "name": "A4",
          "ticks": 17664,
          "time": 16.526926,
          "velocity": 0.3937007874015748
        },
        {
          "duration": 0.17964050000000142,
          "durationTicks": 192,
          "midi": 45,
          "name": "A2",
          "ticks": 17856,
          "time": 16.7065665,
          "velocity": 0.3937007874015748
        },
        {
          "duration": 0.17964050000000142,
          "durationTicks": 192,
          "midi": 33,
          "name": "A1",
          "ticks": 17856,
          "time": 16.7065665,
          "velocity": 0.3937007874015748
        },
        {
          "duration": 0.3592809999999993,
          "durationTicks": 384,
          "midi": 71,
          "name": "B4",
          "ticks": 18048,
          "time": 16.886207000000002,
          "velocity": 0.3937007874015748
        },
        {
          "duration": 0.17964049999999787,
          "durationTicks": 192,
          "midi": 45,
          "name": "A2",
          "ticks": 18048,
          "time": 16.886207000000002,
          "velocity": 0.3937007874015748
        },
        {
          "duration": 0.17964049999999787,
          "durationTicks": 192,
          "midi": 33,
          "name": "A1",
          "ticks": 18048,
          "time": 16.886207000000002,
          "velocity": 0.3937007874015748
        },
        {
          "duration": 0.17964050000000142,
          "durationTicks": 192,
          "midi": 33,
          "name": "A1",
          "ticks": 18240,
          "time": 17.0658475,
          "velocity": 0.3937007874015748
        },
        {
          "duration": 0.3592809999999993,
          "durationTicks": 384,
          "midi": 45,
          "name": "A2",
          "ticks": 18240,
          "time": 17.0658475,
          "velocity": 0.3937007874015748
        },
        {
          "duration": 0.3592809999999993,
          "durationTicks": 384,
          "midi": 72,
          "name": "C5",
          "ticks": 18432,
          "time": 17.245488,
          "velocity": 0.3937007874015748
        },
        {
          "duration": 0.17964049999999787,
          "durationTicks": 192,
          "midi": 33,
          "name": "A1",
          "ticks": 18432,
          "time": 17.245488,
          "velocity": 0.3937007874015748
        },
        {
          "duration": 0.17964050000000142,
          "durationTicks": 192,
          "midi": 45,
          "name": "A2",
          "ticks": 18624,
          "time": 17.4251285,
          "velocity": 0.3937007874015748
        },
        {
          "duration": 0.17964050000000142,
          "durationTicks": 192,
          "midi": 33,
          "name": "A1",
          "ticks": 18624,
          "time": 17.4251285,
          "velocity": 0.3937007874015748
        },
        {
          "duration": 0.17964050000000142,
          "durationTicks": 192,
          "midi": 33,
          "name": "A1",
          "ticks": 18816,
          "time": 17.604769,
          "velocity": 0.3937007874015748
        },
        {
          "duration": 0.3592809999999993,
          "durationTicks": 384,
          "midi": 71,
          "name": "B4",
          "ticks": 18816,
          "time": 17.604769,
          "velocity": 0.3937007874015748
        },
        {
          "duration": 0.17964050000000142,
          "durationTicks": 192,
          "midi": 52,
          "name": "E3",
          "ticks": 18816,
          "time": 17.604769,
          "velocity": 0.3937007874015748
        },
        {
          "duration": 0.17964049999999787,
          "durationTicks": 192,
          "midi": 33,
          "name": "A1",
          "ticks": 19008,
          "time": 17.784409500000002,
          "velocity": 0.3937007874015748
        },
        {
          "duration": 0.17964049999999787,
          "durationTicks": 192,
          "midi": 45,
          "name": "A2",
          "ticks": 19008,
          "time": 17.784409500000002,
          "velocity": 0.3937007874015748
        },
        {
          "duration": 0.17964050000000142,
          "durationTicks": 192,
          "midi": 57,
          "name": "A3",
          "ticks": 19200,
          "time": 17.96405,
          "velocity": 0.3937007874015748
        },
        {
          "duration": 0.17964050000000142,
          "durationTicks": 192,
          "midi": 52,
          "name": "E3",
          "ticks": 19200,
          "time": 17.96405,
          "velocity": 0.3937007874015748
        },
        {
          "duration": 0.17964050000000142,
          "durationTicks": 192,
          "midi": 33,
          "name": "A1",
          "ticks": 19200,
          "time": 17.96405,
          "velocity": 0.3937007874015748
        },
        {
          "duration": 0.3592809999999993,
          "durationTicks": 384,
          "midi": 67,
          "name": "G4",
          "ticks": 19200,
          "time": 17.96405,
          "velocity": 0.3937007874015748
        },
        {
          "duration": 0.17964049999999787,
          "durationTicks": 192,
          "midi": 33,
          "name": "A1",
          "ticks": 19392,
          "time": 18.1436905,
          "velocity": 0.3937007874015748
        },
        {
          "duration": 0.17964049999999787,
          "durationTicks": 192,
          "midi": 40,
          "name": "E2",
          "ticks": 19392,
          "time": 18.1436905,
          "velocity": 0.3937007874015748
        },
        {
          "duration": 0.17964050000000142,
          "durationTicks": 192,
          "midi": 33,
          "name": "A1",
          "ticks": 19584,
          "time": 18.323331,
          "velocity": 0.3937007874015748
        },
        {
          "duration": 0.17964050000000142,
          "durationTicks": 192,
          "midi": 43,
          "name": "G2",
          "ticks": 19584,
          "time": 18.323331,
          "velocity": 0.3937007874015748
        },
        {
          "duration": 0.35928100000000285,
          "durationTicks": 384,
          "midi": 64,
          "name": "E4",
          "ticks": 19584,
          "time": 18.323331,
          "velocity": 0.3937007874015748
        },
        {
          "duration": 0.17964050000000142,
          "durationTicks": 192,
          "midi": 40,
          "name": "E2",
          "ticks": 19776,
          "time": 18.5029715,
          "velocity": 0.3937007874015748
        },
        {
          "duration": 0.17964050000000142,
          "durationTicks": 192,
          "midi": 33,
          "name": "A1",
          "ticks": 19776,
          "time": 18.5029715,
          "velocity": 0.3937007874015748
        },
        {
          "duration": 0.44910124999999823,
          "durationTicks": 480,
          "midi": 69,
          "name": "A4",
          "ticks": 19968,
          "time": 18.682612000000002,
          "velocity": 0.3937007874015748
        },
        {
          "duration": 0.3592809999999993,
          "durationTicks": 384,
          "midi": 40,
          "name": "E2",
          "ticks": 19968,
          "time": 18.682612000000002,
          "velocity": 0.3937007874015748
        },
        {
          "duration": 0.17964049999999787,
          "durationTicks": 192,
          "midi": 28,
          "name": "E1",
          "ticks": 19968,
          "time": 18.682612000000002,
          "velocity": 0.3937007874015748
        },
        {
          "duration": 0.17964050000000142,
          "durationTicks": 192,
          "midi": 28,
          "name": "E1",
          "ticks": 20160,
          "time": 18.8622525,
          "velocity": 0.3937007874015748
        },
        {
          "duration": 0.17964049999999787,
          "durationTicks": 192,
          "midi": 43,
          "name": "G2",
          "ticks": 20352,
          "time": 19.041893,
          "velocity": 0.3937007874015748
        },
        {
          "duration": 0.17964049999999787,
          "durationTicks": 192,
          "midi": 28,
          "name": "E1",
          "ticks": 20352,
          "time": 19.041893,
          "velocity": 0.3937007874015748
        },
        {
          "duration": 1.5269442499999997,
          "durationTicks": 1632,
          "midi": 67,
          "name": "G4",
          "ticks": 20544,
          "time": 19.2215335,
          "velocity": 0.3937007874015748
        },
        {
          "duration": 0.17964050000000142,
          "durationTicks": 192,
          "midi": 40,
          "name": "E2",
          "ticks": 20544,
          "time": 19.2215335,
          "velocity": 0.3937007874015748
        },
        {
          "duration": 0.17964050000000142,
          "durationTicks": 192,
          "midi": 28,
          "name": "E1",
          "ticks": 20544,
          "time": 19.2215335,
          "velocity": 0.3937007874015748
        },
        {
          "duration": 0.17964050000000142,
          "durationTicks": 192,
          "midi": 45,
          "name": "A2",
          "ticks": 20736,
          "time": 19.401174,
          "velocity": 0.3937007874015748
        },
        {
          "duration": 0.17964050000000142,
          "durationTicks": 192,
          "midi": 50,
          "name": "D3",
          "ticks": 20736,
          "time": 19.401174,
          "velocity": 0.3937007874015748
        },
        {
          "duration": 0.17964050000000142,
          "durationTicks": 192,
          "midi": 28,
          "name": "E1",
          "ticks": 20736,
          "time": 19.401174,
          "velocity": 0.3937007874015748
        },
        {
          "duration": 0.17964049999999787,
          "durationTicks": 192,
          "midi": 28,
          "name": "E1",
          "ticks": 20928,
          "time": 19.580814500000002,
          "velocity": 0.3937007874015748
        },
        {
          "duration": 0.17964049999999787,
          "durationTicks": 192,
          "midi": 40,
          "name": "E2",
          "ticks": 20928,
          "time": 19.580814500000002,
          "velocity": 0.3937007874015748
        },
        {
          "duration": 0.17964050000000142,
          "durationTicks": 192,
          "midi": 40,
          "name": "E2",
          "ticks": 21120,
          "time": 19.760455,
          "velocity": 0.3937007874015748
        },
        {
          "duration": 0.17964050000000142,
          "durationTicks": 192,
          "midi": 28,
          "name": "E1",
          "ticks": 21120,
          "time": 19.760455,
          "velocity": 0.3937007874015748
        },
        {
          "duration": 0.3592809999999993,
          "durationTicks": 384,
          "midi": 40,
          "name": "E2",
          "ticks": 21312,
          "time": 19.9400955,
          "velocity": 0.3937007874015748
        },
        {
          "duration": 0.17964049999999787,
          "durationTicks": 192,
          "midi": 28,
          "name": "E1",
          "ticks": 21312,
          "time": 19.9400955,
          "velocity": 0.3937007874015748
        },
        {
          "duration": 0.17964050000000142,
          "durationTicks": 192,
          "midi": 28,
          "name": "E1",
          "ticks": 21504,
          "time": 20.119736,
          "velocity": 0.3937007874015748
        },
        {
          "duration": 0.17964050000000142,
          "durationTicks": 192,
          "midi": 28,
          "name": "E1",
          "ticks": 21696,
          "time": 20.2993765,
          "velocity": 0.3937007874015748
        },
        {
          "duration": 0.17964050000000142,
          "durationTicks": 192,
          "midi": 40,
          "name": "E2",
          "ticks": 21696,
          "time": 20.2993765,
          "velocity": 0.3937007874015748
        },
        {
          "duration": 0.17964049999999787,
          "durationTicks": 192,
          "midi": 28,
          "name": "E1",
          "ticks": 21888,
          "time": 20.479017000000002,
          "velocity": 0.3937007874015748
        },
        {
          "duration": 0.17964049999999787,
          "durationTicks": 192,
          "midi": 43,
          "name": "G2",
          "ticks": 21888,
          "time": 20.479017000000002,
          "velocity": 0.3937007874015748
        },
        {
          "duration": 0.17964050000000142,
          "durationTicks": 192,
          "midi": 28,
          "name": "E1",
          "ticks": 22080,
          "time": 20.6586575,
          "velocity": 0.3937007874015748
        },
        {
          "duration": 0.17964050000000142,
          "durationTicks": 192,
          "midi": 40,
          "name": "E2",
          "ticks": 22080,
          "time": 20.6586575,
          "velocity": 0.3937007874015748
        },
        {
          "duration": 0.17964049999999787,
          "durationTicks": 192,
          "midi": 45,
          "name": "A2",
          "ticks": 22272,
          "time": 20.838298,
          "velocity": 0.3937007874015748
        },
        {
          "duration": 0.17964049999999787,
          "durationTicks": 192,
          "midi": 50,
          "name": "D3",
          "ticks": 22272,
          "time": 20.838298,
          "velocity": 0.3937007874015748
        },
        {
          "duration": 0.17964049999999787,
          "durationTicks": 192,
          "midi": 28,
          "name": "E1",
          "ticks": 22272,
          "time": 20.838298,
          "velocity": 0.3937007874015748
        },
        {
          "duration": 0.17964050000000142,
          "durationTicks": 192,
          "midi": 28,
          "name": "E1",
          "ticks": 22464,
          "time": 21.0179385,
          "velocity": 0.3937007874015748
        },
        {
          "duration": 0.17964050000000142,
          "durationTicks": 192,
          "midi": 40,
          "name": "E2",
          "ticks": 22464,
          "time": 21.0179385,
          "velocity": 0.3937007874015748
        },
        {
          "duration": 0.17964050000000142,
          "durationTicks": 192,
          "midi": 43,
          "name": "G2",
          "ticks": 22656,
          "time": 21.197579,
          "velocity": 0.3937007874015748
        },
        {
          "duration": 0.17964050000000142,
          "durationTicks": 192,
          "midi": 28,
          "name": "E1",
          "ticks": 22656,
          "time": 21.197579,
          "velocity": 0.3937007874015748
        },
        {
          "duration": 0.3592809999999993,
          "durationTicks": 384,
          "midi": 33,
          "name": "A1",
          "ticks": 22848,
          "time": 21.377219500000002,
          "velocity": 0.3937007874015748
        },
        {
          "duration": 0.3592809999999993,
          "durationTicks": 384,
          "midi": 45,
          "name": "A2",
          "ticks": 22848,
          "time": 21.377219500000002,
          "velocity": 0.3937007874015748
        },
        {
          "duration": 0.17964049999999787,
          "durationTicks": 192,
          "midi": 45,
          "name": "A2",
          "ticks": 23232,
          "time": 21.736500500000002,
          "velocity": 0.3937007874015748
        },
        {
          "duration": 0.17964049999999787,
          "durationTicks": 192,
          "midi": 33,
          "name": "A1",
          "ticks": 23232,
          "time": 21.736500500000002,
          "velocity": 0.3937007874015748
        },
        {
          "duration": 0.35928100000000285,
          "durationTicks": 384,
          "midi": 64,
          "name": "E4",
          "ticks": 23424,
          "time": 21.916141,
          "velocity": 0.3937007874015748
        },
        {
          "duration": 0.17964050000000142,
          "durationTicks": 192,
          "midi": 33,
          "name": "A1",
          "ticks": 23424,
          "time": 21.916141,
          "velocity": 0.3937007874015748
        },
        {
          "duration": 0.17964050000000142,
          "durationTicks": 192,
          "midi": 52,
          "name": "E3",
          "ticks": 23424,
          "time": 21.916141,
          "velocity": 0.3937007874015748
        },
        {
          "duration": 0.17964050000000142,
          "durationTicks": 192,
          "midi": 33,
          "name": "A1",
          "ticks": 23616,
          "time": 22.0957815,
          "velocity": 0.3937007874015748
        },
        {
          "duration": 0.17964050000000142,
          "durationTicks": 192,
          "midi": 45,
          "name": "A2",
          "ticks": 23616,
          "time": 22.0957815,
          "velocity": 0.3937007874015748
        },
        {
          "duration": 0.17964049999999787,
          "durationTicks": 192,
          "midi": 33,
          "name": "A1",
          "ticks": 23808,
          "time": 22.275422000000002,
          "velocity": 0.3937007874015748
        },
        {
          "duration": 0.17964049999999787,
          "durationTicks": 192,
          "midi": 52,
          "name": "E3",
          "ticks": 23808,
          "time": 22.275422000000002,
          "velocity": 0.3937007874015748
        },
        {
          "duration": 0.3592809999999993,
          "durationTicks": 384,
          "midi": 69,
          "name": "A4",
          "ticks": 23808,
          "time": 22.275422000000002,
          "velocity": 0.3937007874015748
        },
        {
          "duration": 0.17964049999999787,
          "durationTicks": 192,
          "midi": 57,
          "name": "A3",
          "ticks": 23808,
          "time": 22.275422000000002,
          "velocity": 0.3937007874015748
        },
        {
          "duration": 0.17964050000000142,
          "durationTicks": 192,
          "midi": 33,
          "name": "A1",
          "ticks": 24000,
          "time": 22.4550625,
          "velocity": 0.3937007874015748
        },
        {
          "duration": 0.17964050000000142,
          "durationTicks": 192,
          "midi": 45,
          "name": "A2",
          "ticks": 24000,
          "time": 22.4550625,
          "velocity": 0.3937007874015748
        },
        {
          "duration": 0.17964049999999787,
          "durationTicks": 192,
          "midi": 33,
          "name": "A1",
          "ticks": 24192,
          "time": 22.634703000000002,
          "velocity": 0.3937007874015748
        },
        {
          "duration": 0.17964049999999787,
          "durationTicks": 192,
          "midi": 45,
          "name": "A2",
          "ticks": 24192,
          "time": 22.634703000000002,
          "velocity": 0.3937007874015748
        },
        {
          "duration": 0.3592809999999993,
          "durationTicks": 384,
          "midi": 71,
          "name": "B4",
          "ticks": 24192,
          "time": 22.634703000000002,
          "velocity": 0.3937007874015748
        },
        {
          "duration": 0.17964050000000142,
          "durationTicks": 192,
          "midi": 33,
          "name": "A1",
          "ticks": 24384,
          "time": 22.8143435,
          "velocity": 0.3937007874015748
        },
        {
          "duration": 0.35928100000000285,
          "durationTicks": 384,
          "midi": 45,
          "name": "A2",
          "ticks": 24384,
          "time": 22.8143435,
          "velocity": 0.3937007874015748
        },
        {
          "duration": 0.17964050000000142,
          "durationTicks": 192,
          "midi": 33,
          "name": "A1",
          "ticks": 24576,
          "time": 22.993984,
          "velocity": 0.3937007874015748
        },
        {
          "duration": 0.3592809999999993,
          "durationTicks": 384,
          "midi": 72,
          "name": "C5",
          "ticks": 24576,
          "time": 22.993984,
          "velocity": 0.3937007874015748
        },
        {
          "duration": 0.17964049999999787,
          "durationTicks": 192,
          "midi": 45,
          "name": "A2",
          "ticks": 24768,
          "time": 23.173624500000003,
          "velocity": 0.3937007874015748
        },
        {
          "duration": 0.17964049999999787,
          "durationTicks": 192,
          "midi": 33,
          "name": "A1",
          "ticks": 24768,
          "time": 23.173624500000003,
          "velocity": 0.3937007874015748
        },
        {
          "duration": 0.17964050000000142,
          "durationTicks": 192,
          "midi": 52,
          "name": "E3",
          "ticks": 24960,
          "time": 23.353265,
          "velocity": 0.3937007874015748
        },
        {
          "duration": 0.3592809999999993,
          "durationTicks": 384,
          "midi": 71,
          "name": "B4",
          "ticks": 24960,
          "time": 23.353265,
          "velocity": 0.3937007874015748
        },
        {
          "duration": 0.17964050000000142,
          "durationTicks": 192,
          "midi": 33,
          "name": "A1",
          "ticks": 24960,
          "time": 23.353265,
          "velocity": 0.3937007874015748
        },
        {
          "duration": 0.17964049999999787,
          "durationTicks": 192,
          "midi": 45,
          "name": "A2",
          "ticks": 25152,
          "time": 23.532905500000002,
          "velocity": 0.3937007874015748
        },
        {
          "duration": 0.17964049999999787,
          "durationTicks": 192,
          "midi": 33,
          "name": "A1",
          "ticks": 25152,
          "time": 23.532905500000002,
          "velocity": 0.3937007874015748
        },
        {
          "duration": 0.35928100000000285,
          "durationTicks": 384,
          "midi": 69,
          "name": "A4",
          "ticks": 25344,
          "time": 23.712546,
          "velocity": 0.3937007874015748
        },
        {
          "duration": 0.17964050000000142,
          "durationTicks": 192,
          "midi": 33,
          "name": "A1",
          "ticks": 25344,
          "time": 23.712546,
          "velocity": 0.3937007874015748
        },
        {
          "duration": 0.17964050000000142,
          "durationTicks": 192,
          "midi": 57,
          "name": "A3",
          "ticks": 25344,
          "time": 23.712546,
          "velocity": 0.3937007874015748
        },
        {
          "duration": 0.17964050000000142,
          "durationTicks": 192,
          "midi": 52,
          "name": "E3",
          "ticks": 25344,
          "time": 23.712546,
          "velocity": 0.3937007874015748
        },
        {
          "duration": 0.17964050000000142,
          "durationTicks": 192,
          "midi": 40,
          "name": "E2",
          "ticks": 25536,
          "time": 23.8921865,
          "velocity": 0.3937007874015748
        },
        {
          "duration": 0.17964050000000142,
          "durationTicks": 192,
          "midi": 33,
          "name": "A1",
          "ticks": 25536,
          "time": 23.8921865,
          "velocity": 0.3937007874015748
        },
        {
          "duration": 0.17964049999999787,
          "durationTicks": 192,
          "midi": 33,
          "name": "A1",
          "ticks": 25728,
          "time": 24.071827000000003,
          "velocity": 0.3937007874015748
        },
        {
          "duration": 0.3592809999999993,
          "durationTicks": 384,
          "midi": 64,
          "name": "E4",
          "ticks": 25728,
          "time": 24.071827000000003,
          "velocity": 0.3937007874015748
        },
        {
          "duration": 0.17964049999999787,
          "durationTicks": 192,
          "midi": 43,
          "name": "G2",
          "ticks": 25728,
          "time": 24.071827000000003,
          "velocity": 0.3937007874015748
        },
        {
          "duration": 0.17964050000000142,
          "durationTicks": 192,
          "midi": 33,
          "name": "A1",
          "ticks": 25920,
          "time": 24.2514675,
          "velocity": 0.3937007874015748
        },
        {
          "duration": 0.17964050000000142,
          "durationTicks": 192,
          "midi": 40,
          "name": "E2",
          "ticks": 25920,
          "time": 24.2514675,
          "velocity": 0.3937007874015748
        },
        {
          "duration": 0.44910124999999823,
          "durationTicks": 480,
          "midi": 41,
          "name": "F2",
          "ticks": 26112,
          "time": 24.431108000000002,
          "velocity": 0.3937007874015748
        },
        {
          "duration": 0.44910124999999823,
          "durationTicks": 480,
          "midi": 36,
          "name": "C2",
          "ticks": 26112,
          "time": 24.431108000000002,
          "velocity": 0.3937007874015748
        },
        {
          "duration": 0.44910124999999823,
          "durationTicks": 480,
          "midi": 65,
          "name": "F4",
          "ticks": 26112,
          "time": 24.431108000000002,
          "velocity": 0.3937007874015748
        },
        {
          "duration": 0.17964049999999787,
          "durationTicks": 192,
          "midi": 29,
          "name": "F1",
          "ticks": 26112,
          "time": 24.431108000000002,
          "velocity": 0.3937007874015748
        },
        {
          "duration": 0.17964050000000142,
          "durationTicks": 192,
          "midi": 29,
          "name": "F1",
          "ticks": 26304,
          "time": 24.6107485,
          "velocity": 0.3937007874015748
        },
        {
          "duration": 0.17964050000000142,
          "durationTicks": 192,
          "midi": 29,
          "name": "F1",
          "ticks": 26496,
          "time": 24.790389,
          "velocity": 0.3937007874015748
        },
        {
          "duration": 0.17964049999999787,
          "durationTicks": 192,
          "midi": 74,
          "name": "D5",
          "ticks": 26688,
          "time": 24.970029500000003,
          "velocity": 0.3937007874015748
        },
        {
          "duration": 0.17964049999999787,
          "durationTicks": 192,
          "midi": 36,
          "name": "C2",
          "ticks": 26688,
          "time": 24.970029500000003,
          "velocity": 0.3937007874015748
        },
        {
          "duration": 0.17964049999999787,
          "durationTicks": 192,
          "midi": 41,
          "name": "F2",
          "ticks": 26688,
          "time": 24.970029500000003,
          "velocity": 0.3937007874015748
        },
        {
          "duration": 0.17964049999999787,
          "durationTicks": 192,
          "midi": 77,
          "name": "F5",
          "ticks": 26688,
          "time": 24.970029500000003,
          "velocity": 0.3937007874015748
        },
        {
          "duration": 0.17964049999999787,
          "durationTicks": 192,
          "midi": 29,
          "name": "F1",
          "ticks": 26688,
          "time": 24.970029500000003,
          "velocity": 0.3937007874015748
        },
        {
          "duration": 0.17964050000000142,
          "durationTicks": 192,
          "midi": 29,
          "name": "F1",
          "ticks": 26880,
          "time": 25.14967,
          "velocity": 0.3937007874015748
        },
        {
          "duration": 0.3592809999999993,
          "durationTicks": 384,
          "midi": 77,
          "name": "F5",
          "ticks": 26880,
          "time": 25.14967,
          "velocity": 0.3937007874015748
        },
        {
          "duration": 0.3592809999999993,
          "durationTicks": 384,
          "midi": 74,
          "name": "D5",
          "ticks": 26880,
          "time": 25.14967,
          "velocity": 0.3937007874015748
        },
        {
          "duration": 0.6287417499999997,
          "durationTicks": 672,
          "midi": 36,
          "name": "C2",
          "ticks": 26880,
          "time": 25.14967,
          "velocity": 0.3937007874015748
        },
        {
          "duration": 0.6287417499999997,
          "durationTicks": 672,
          "midi": 41,
          "name": "F2",
          "ticks": 26880,
          "time": 25.14967,
          "velocity": 0.3937007874015748
        },
        {
          "duration": 0.17964049999999787,
          "durationTicks": 192,
          "midi": 29,
          "name": "F1",
          "ticks": 27072,
          "time": 25.329310500000002,
          "velocity": 0.3937007874015748
        },
        {
          "duration": 0.35928100000000285,
          "durationTicks": 384,
          "midi": 65,
          "name": "F4",
          "ticks": 27264,
          "time": 25.508951,
          "velocity": 0.3937007874015748
        },
        {
          "duration": 0.17964050000000142,
          "durationTicks": 192,
          "midi": 29,
          "name": "F1",
          "ticks": 27264,
          "time": 25.508951,
          "velocity": 0.3937007874015748
        },
        {
          "duration": 0.17964050000000142,
          "durationTicks": 192,
          "midi": 29,
          "name": "F1",
          "ticks": 27456,
          "time": 25.6885915,
          "velocity": 0.3937007874015748
        },
        {
          "duration": 0.17964049999999787,
          "durationTicks": 192,
          "midi": 31,
          "name": "G1",
          "ticks": 27648,
          "time": 25.868232000000003,
          "velocity": 0.3937007874015748
        },
        {
          "duration": 0.44910124999999823,
          "durationTicks": 480,
          "midi": 67,
          "name": "G4",
          "ticks": 27648,
          "time": 25.868232000000003,
          "velocity": 0.3937007874015748
        },
        {
          "duration": 0.44910124999999823,
          "durationTicks": 480,
          "midi": 38,
          "name": "D2",
          "ticks": 27648,
          "time": 25.868232000000003,
          "velocity": 0.3937007874015748
        },
        {
          "duration": 0.44910124999999823,
          "durationTicks": 480,
          "midi": 43,
          "name": "G2",
          "ticks": 27648,
          "time": 25.868232000000003,
          "velocity": 0.3937007874015748
        },
        {
          "duration": 0.17964050000000142,
          "durationTicks": 192,
          "midi": 31,
          "name": "G1",
          "ticks": 27840,
          "time": 26.0478725,
          "velocity": 0.3937007874015748
        },
        {
          "duration": 0.17964049999999787,
          "durationTicks": 192,
          "midi": 31,
          "name": "G1",
          "ticks": 28032,
          "time": 26.227513000000002,
          "velocity": 0.3937007874015748
        },
        {
          "duration": 0.17964050000000142,
          "durationTicks": 192,
          "midi": 31,
          "name": "G1",
          "ticks": 28224,
          "time": 26.4071535,
          "velocity": 0.3937007874015748
        },
        {
          "duration": 0.17964050000000142,
          "durationTicks": 192,
          "midi": 76,
          "name": "E5",
          "ticks": 28224,
          "time": 26.4071535,
          "velocity": 0.3937007874015748
        },
        {
          "duration": 0.17964050000000142,
          "durationTicks": 192,
          "midi": 43,
          "name": "G2",
          "ticks": 28224,
          "time": 26.4071535,
          "velocity": 0.3937007874015748
        },
        {
          "duration": 0.17964050000000142,
          "durationTicks": 192,
          "midi": 79,
          "name": "G5",
          "ticks": 28224,
          "time": 26.4071535,
          "velocity": 0.3937007874015748
        },
        {
          "duration": 0.17964050000000142,
          "durationTicks": 192,
          "midi": 38,
          "name": "D2",
          "ticks": 28224,
          "time": 26.4071535,
          "velocity": 0.3937007874015748
        },
        {
          "duration": 0.17964050000000142,
          "durationTicks": 192,
          "midi": 31,
          "name": "G1",
          "ticks": 28416,
          "time": 26.586794,
          "velocity": 0.3937007874015748
        },
        {
          "duration": 0.6287417499999997,
          "durationTicks": 672,
          "midi": 79,
          "name": "G5",
          "ticks": 28416,
          "time": 26.586794,
          "velocity": 0.3937007874015748
        },
        {
          "duration": 0.6287417499999997,
          "durationTicks": 672,
          "midi": 76,
          "name": "E5",
          "ticks": 28416,
          "time": 26.586794,
          "velocity": 0.3937007874015748
        },
        {
          "duration": 0.4491012500000018,
          "durationTicks": 480,
          "midi": 38,
          "name": "D2",
          "ticks": 28416,
          "time": 26.586794,
          "velocity": 0.3937007874015748
        },
        {
          "duration": 0.4491012500000018,
          "durationTicks": 480,
          "midi": 43,
          "name": "G2",
          "ticks": 28416,
          "time": 26.586794,
          "velocity": 0.3937007874015748
        },
        {
          "duration": 0.17964049999999787,
          "durationTicks": 192,
          "midi": 31,
          "name": "G1",
          "ticks": 28608,
          "time": 26.766434500000003,
          "velocity": 0.3937007874015748
        },
        {
          "duration": 0.17964050000000142,
          "durationTicks": 192,
          "midi": 31,
          "name": "G1",
          "ticks": 28800,
          "time": 26.946075,
          "velocity": 0.3937007874015748
        },
        {
          "duration": 0.3592809999999993,
          "durationTicks": 384,
          "midi": 33,
          "name": "A1",
          "ticks": 28992,
          "time": 27.125715500000002,
          "velocity": 0.3937007874015748
        },
        {
          "duration": 0.3592809999999993,
          "durationTicks": 384,
          "midi": 45,
          "name": "A2",
          "ticks": 28992,
          "time": 27.125715500000002,
          "velocity": 0.3937007874015748
        },
        {
          "duration": 0.17964050000000142,
          "durationTicks": 192,
          "midi": 33,
          "name": "A1",
          "ticks": 29376,
          "time": 27.4849965,
          "velocity": 0.3937007874015748
        },
        {
          "duration": 0.17964050000000142,
          "durationTicks": 192,
          "midi": 45,
          "name": "A2",
          "ticks": 29376,
          "time": 27.4849965,
          "velocity": 0.3937007874015748
        },
        {
          "duration": 0.17964049999999787,
          "durationTicks": 192,
          "midi": 52,
          "name": "E3",
          "ticks": 29568,
          "time": 27.664637000000003,
          "velocity": 0.3937007874015748
        },
        {
          "duration": 0.3592809999999993,
          "durationTicks": 384,
          "midi": 64,
          "name": "E4",
          "ticks": 29568,
          "time": 27.664637000000003,
          "velocity": 0.3937007874015748
        },
        {
          "duration": 0.17964049999999787,
          "durationTicks": 192,
          "midi": 33,
          "name": "A1",
          "ticks": 29568,
          "time": 27.664637000000003,
          "velocity": 0.3937007874015748
        },
        {
          "duration": 0.17964050000000142,
          "durationTicks": 192,
          "midi": 45,
          "name": "A2",
          "ticks": 29760,
          "time": 27.8442775,
          "velocity": 0.3937007874015748
        },
        {
          "duration": 0.17964050000000142,
          "durationTicks": 192,
          "midi": 33,
          "name": "A1",
          "ticks": 29760,
          "time": 27.8442775,
          "velocity": 0.3937007874015748
        },
        {
          "duration": 0.17964049999999787,
          "durationTicks": 192,
          "midi": 57,
          "name": "A3",
          "ticks": 29952,
          "time": 28.023918000000002,
          "velocity": 0.3937007874015748
        },
        {
          "duration": 0.17964049999999787,
          "durationTicks": 192,
          "midi": 33,
          "name": "A1",
          "ticks": 29952,
          "time": 28.023918000000002,
          "velocity": 0.3937007874015748
        },
        {
          "duration": 0.17964049999999787,
          "durationTicks": 192,
          "midi": 52,
          "name": "E3",
          "ticks": 29952,
          "time": 28.023918000000002,
          "velocity": 0.3937007874015748
        },
        {
          "duration": 0.3592809999999993,
          "durationTicks": 384,
          "midi": 69,
          "name": "A4",
          "ticks": 29952,
          "time": 28.023918000000002,
          "velocity": 0.3937007874015748
        },
        {
          "duration": 0.17964050000000142,
          "durationTicks": 192,
          "midi": 45,
          "name": "A2",
          "ticks": 30144,
          "time": 28.2035585,
          "velocity": 0.3937007874015748
        },
        {
          "duration": 0.17964050000000142,
          "durationTicks": 192,
          "midi": 33,
          "name": "A1",
          "ticks": 30144,
          "time": 28.2035585,
          "velocity": 0.3937007874015748
        },
        {
          "duration": 0.17964050000000142,
          "durationTicks": 192,
          "midi": 45,
          "name": "A2",
          "ticks": 30336,
          "time": 28.383199,
          "velocity": 0.3937007874015748
        },
        {
          "duration": 0.17964050000000142,
          "durationTicks": 192,
          "midi": 33,
          "name": "A1",
          "ticks": 30336,
          "time": 28.383199,
          "velocity": 0.3937007874015748
        },
        {
          "duration": 0.3592809999999993,
          "durationTicks": 384,
          "midi": 71,
          "name": "B4",
          "ticks": 30336,
          "time": 28.383199,
          "velocity": 0.3937007874015748
        },
        {
          "duration": 0.17964049999999787,
          "durationTicks": 192,
          "midi": 33,
          "name": "A1",
          "ticks": 30528,
          "time": 28.562839500000003,
          "velocity": 0.3937007874015748
        },
        {
          "duration": 0.3592809999999993,
          "durationTicks": 384,
          "midi": 45,
          "name": "A2",
          "ticks": 30528,
          "time": 28.562839500000003,
          "velocity": 0.3937007874015748
        },
        {
          "duration": 0.17964050000000142,
          "durationTicks": 192,
          "midi": 33,
          "name": "A1",
          "ticks": 30720,
          "time": 28.74248,
          "velocity": 0.3937007874015748
        },
        {
          "duration": 0.3592809999999993,
          "durationTicks": 384,
          "midi": 72,
          "name": "C5",
          "ticks": 30720,
          "time": 28.74248,
          "velocity": 0.3937007874015748
        },
        {
          "duration": 0.17964049999999787,
          "durationTicks": 192,
          "midi": 45,
          "name": "A2",
          "ticks": 30912,
          "time": 28.922120500000002,
          "velocity": 0.3937007874015748
        },
        {
          "duration": 0.17964049999999787,
          "durationTicks": 192,
          "midi": 33,
          "name": "A1",
          "ticks": 30912,
          "time": 28.922120500000002,
          "velocity": 0.3937007874015748
        },
        {
          "duration": 0.35928100000000285,
          "durationTicks": 384,
          "midi": 71,
          "name": "B4",
          "ticks": 31104,
          "time": 29.101761,
          "velocity": 0.3937007874015748
        },
        {
          "duration": 0.17964050000000142,
          "durationTicks": 192,
          "midi": 33,
          "name": "A1",
          "ticks": 31104,
          "time": 29.101761,
          "velocity": 0.3937007874015748
        },
        {
          "duration": 0.17964050000000142,
          "durationTicks": 192,
          "midi": 52,
          "name": "E3",
          "ticks": 31104,
          "time": 29.101761,
          "velocity": 0.3937007874015748
        },
        {
          "duration": 0.17964050000000142,
          "durationTicks": 192,
          "midi": 33,
          "name": "A1",
          "ticks": 31296,
          "time": 29.2814015,
          "velocity": 0.3937007874015748
        },
        {
          "duration": 0.17964050000000142,
          "durationTicks": 192,
          "midi": 45,
          "name": "A2",
          "ticks": 31296,
          "time": 29.2814015,
          "velocity": 0.3937007874015748
        },
        {
          "duration": 0.17964049999999787,
          "durationTicks": 192,
          "midi": 57,
          "name": "A3",
          "ticks": 31488,
          "time": 29.461042000000003,
          "velocity": 0.3937007874015748
        },
        {
          "duration": 0.17964049999999787,
          "durationTicks": 192,
          "midi": 52,
          "name": "E3",
          "ticks": 31488,
          "time": 29.461042000000003,
          "velocity": 0.3937007874015748
        },
        {
          "duration": 0.17964049999999787,
          "durationTicks": 192,
          "midi": 33,
          "name": "A1",
          "ticks": 31488,
          "time": 29.461042000000003,
          "velocity": 0.3937007874015748
        },
        {
          "duration": 0.3592809999999993,
          "durationTicks": 384,
          "midi": 67,
          "name": "G4",
          "ticks": 31488,
          "time": 29.461042000000003,
          "velocity": 0.3937007874015748
        },
        {
          "duration": 0.17964050000000142,
          "durationTicks": 192,
          "midi": 33,
          "name": "A1",
          "ticks": 31680,
          "time": 29.6406825,
          "velocity": 0.3937007874015748
        },
        {
          "duration": 0.17964050000000142,
          "durationTicks": 192,
          "midi": 40,
          "name": "E2",
          "ticks": 31680,
          "time": 29.6406825,
          "velocity": 0.3937007874015748
        },
        {
          "duration": 0.17964049999999787,
          "durationTicks": 192,
          "midi": 43,
          "name": "G2",
          "ticks": 31872,
          "time": 29.820323000000002,
          "velocity": 0.3937007874015748
        },
        {
          "duration": 0.3592809999999993,
          "durationTicks": 384,
          "midi": 64,
          "name": "E4",
          "ticks": 31872,
          "time": 29.820323000000002,
          "velocity": 0.3937007874015748
        },
        {
          "duration": 0.17964049999999787,
          "durationTicks": 192,
          "midi": 33,
          "name": "A1",
          "ticks": 31872,
          "time": 29.820323000000002,
          "velocity": 0.3937007874015748
        },
        {
          "duration": 0.17964050000000142,
          "durationTicks": 192,
          "midi": 40,
          "name": "E2",
          "ticks": 32064,
          "time": 29.9999635,
          "velocity": 0.3937007874015748
        },
        {
          "duration": 0.17964050000000142,
          "durationTicks": 192,
          "midi": 33,
          "name": "A1",
          "ticks": 32064,
          "time": 29.9999635,
          "velocity": 0.3937007874015748
        },
        {
          "duration": 0.17964050000000142,
          "durationTicks": 192,
          "midi": 28,
          "name": "E1",
          "ticks": 32256,
          "time": 30.179604,
          "velocity": 0.3937007874015748
        },
        {
          "duration": 0.3592809999999993,
          "durationTicks": 384,
          "midi": 40,
          "name": "E2",
          "ticks": 32256,
          "time": 30.179604,
          "velocity": 0.3937007874015748
        },
        {
          "duration": 0.4491012500000018,
          "durationTicks": 480,
          "midi": 69,
          "name": "A4",
          "ticks": 32256,
          "time": 30.179604,
          "velocity": 0.3937007874015748
        },
        {
          "duration": 0.17964049999999787,
          "durationTicks": 192,
          "midi": 28,
          "name": "E1",
          "ticks": 32448,
          "time": 30.359244500000003,
          "velocity": 0.3937007874015748
        },
        {
          "duration": 0.17964050000000142,
          "durationTicks": 192,
          "midi": 28,
          "name": "E1",
          "ticks": 32640,
          "time": 30.538885,
          "velocity": 0.3937007874015748
        },
        {
          "duration": 0.17964050000000142,
          "durationTicks": 192,
          "midi": 43,
          "name": "G2",
          "ticks": 32640,
          "time": 30.538885,
          "velocity": 0.3937007874015748
        },
        {
          "duration": 0.17964049999999787,
          "durationTicks": 192,
          "midi": 40,
          "name": "E2",
          "ticks": 32832,
          "time": 30.718525500000002,
          "velocity": 0.3937007874015748
        },
        {
          "duration": 0.17964049999999787,
          "durationTicks": 192,
          "midi": 28,
          "name": "E1",
          "ticks": 32832,
          "time": 30.718525500000002,
          "velocity": 0.3937007874015748
        },
        {
          "duration": 1.5269442499999961,
          "durationTicks": 1632,
          "midi": 67,
          "name": "G4",
          "ticks": 32832,
          "time": 30.718525500000002,
          "velocity": 0.3937007874015748
        },
        {
          "duration": 0.17964050000000142,
          "durationTicks": 192,
          "midi": 50,
          "name": "D3",
          "ticks": 33024,
          "time": 30.898166,
          "velocity": 0.3937007874015748
        },
        {
          "duration": 0.17964050000000142,
          "durationTicks": 192,
          "midi": 28,
          "name": "E1",
          "ticks": 33024,
          "time": 30.898166,
          "velocity": 0.3937007874015748
        },
        {
          "duration": 0.17964050000000142,
          "durationTicks": 192,
          "midi": 45,
          "name": "A2",
          "ticks": 33024,
          "time": 30.898166,
          "velocity": 0.3937007874015748
        },
        {
          "duration": 0.17964050000000142,
          "durationTicks": 192,
          "midi": 40,
          "name": "E2",
          "ticks": 33216,
          "time": 31.0778065,
          "velocity": 0.3937007874015748
        },
        {
          "duration": 0.17964050000000142,
          "durationTicks": 192,
          "midi": 28,
          "name": "E1",
          "ticks": 33216,
          "time": 31.0778065,
          "velocity": 0.3937007874015748
        },
        {
          "duration": 0.17964049999999787,
          "durationTicks": 192,
          "midi": 40,
          "name": "E2",
          "ticks": 33408,
          "time": 31.257447000000003,
          "velocity": 0.3937007874015748
        },
        {
          "duration": 0.17964049999999787,
          "durationTicks": 192,
          "midi": 28,
          "name": "E1",
          "ticks": 33408,
          "time": 31.257447000000003,
          "velocity": 0.3937007874015748
        },
        {
          "duration": 0.3592809999999993,
          "durationTicks": 384,
          "midi": 40,
          "name": "E2",
          "ticks": 33600,
          "time": 31.4370875,
          "velocity": 0.3937007874015748
        },
        {
          "duration": 0.17964050000000142,
          "durationTicks": 192,
          "midi": 28,
          "name": "E1",
          "ticks": 33600,
          "time": 31.4370875,
          "velocity": 0.3937007874015748
        },
        {
          "duration": 0.17964049999999787,
          "durationTicks": 192,
          "midi": 28,
          "name": "E1",
          "ticks": 33792,
          "time": 31.616728000000002,
          "velocity": 0.3937007874015748
        },
        {
          "duration": 0.17964050000000142,
          "durationTicks": 192,
          "midi": 28,
          "name": "E1",
          "ticks": 33984,
          "time": 31.7963685,
          "velocity": 0.3937007874015748
        },
        {
          "duration": 0.17964050000000142,
          "durationTicks": 192,
          "midi": 40,
          "name": "E2",
          "ticks": 33984,
          "time": 31.7963685,
          "velocity": 0.3937007874015748
        },
        {
          "duration": 0.17964050000000142,
          "durationTicks": 192,
          "midi": 28,
          "name": "E1",
          "ticks": 34176,
          "time": 31.976009,
          "velocity": 0.3937007874015748
        },
        {
          "duration": 0.17964050000000142,
          "durationTicks": 192,
          "midi": 43,
          "name": "G2",
          "ticks": 34176,
          "time": 31.976009,
          "velocity": 0.3937007874015748
        },
        {
          "duration": 0.17964049999999787,
          "durationTicks": 192,
          "midi": 28,
          "name": "E1",
          "ticks": 34368,
          "time": 32.1556495,
          "velocity": 0.3937007874015748
        },
        {
          "duration": 0.17964049999999787,
          "durationTicks": 192,
          "midi": 40,
          "name": "E2",
          "ticks": 34368,
          "time": 32.1556495,
          "velocity": 0.3937007874015748
        },
        {
          "duration": 0.17964049999999787,
          "durationTicks": 192,
          "midi": 28,
          "name": "E1",
          "ticks": 34560,
          "time": 32.33529,
          "velocity": 0.3937007874015748
        },
        {
          "duration": 0.17964049999999787,
          "durationTicks": 192,
          "midi": 50,
          "name": "D3",
          "ticks": 34560,
          "time": 32.33529,
          "velocity": 0.3937007874015748
        },
        {
          "duration": 0.17964049999999787,
          "durationTicks": 192,
          "midi": 45,
          "name": "A2",
          "ticks": 34560,
          "time": 32.33529,
          "velocity": 0.3937007874015748
        },
        {
          "duration": 0.17964050000000498,
          "durationTicks": 192,
          "midi": 40,
          "name": "E2",
          "ticks": 34752,
          "time": 32.5149305,
          "velocity": 0.3937007874015748
        },
        {
          "duration": 0.17964050000000498,
          "durationTicks": 192,
          "midi": 28,
          "name": "E1",
          "ticks": 34752,
          "time": 32.5149305,
          "velocity": 0.3937007874015748
        },
        {
          "duration": 0.17964049999999787,
          "durationTicks": 192,
          "midi": 64,
          "name": "E4",
          "ticks": 34944,
          "time": 32.694571,
          "velocity": 0.3937007874015748
        },
        {
          "duration": 0.17964049999999787,
          "durationTicks": 192,
          "midi": 28,
          "name": "E1",
          "ticks": 34944,
          "time": 32.694571,
          "velocity": 0.3937007874015748
        },
        {
          "duration": 0.17964049999999787,
          "durationTicks": 192,
          "midi": 43,
          "name": "G2",
          "ticks": 34944,
          "time": 32.694571,
          "velocity": 0.3937007874015748
        },
        {
          "duration": 0.17964049999999787,
          "durationTicks": 192,
          "midi": 40,
          "name": "E2",
          "ticks": 35136,
          "time": 32.8742115,
          "velocity": 0.3937007874015748
        },
        {
          "duration": 0.17964049999999787,
          "durationTicks": 192,
          "midi": 28,
          "name": "E1",
          "ticks": 35136,
          "time": 32.8742115,
          "velocity": 0.3937007874015748
        },
        {
          "duration": 0.17964049999999787,
          "durationTicks": 192,
          "midi": 67,
          "name": "G4",
          "ticks": 35136,
          "time": 32.8742115,
          "velocity": 0.3937007874015748
        },
        {
          "duration": 0.6287417500000032,
          "durationTicks": 672,
          "midi": 69,
          "name": "A4",
          "ticks": 35328,
          "time": 33.053852,
          "velocity": 0.3937007874015748
        },
        {
          "duration": 0.17964050000000498,
          "durationTicks": 192,
          "midi": 29,
          "name": "F1",
          "ticks": 35328,
          "time": 33.053852,
          "velocity": 0.3937007874015748
        },
        {
          "duration": 0.17964050000000498,
          "durationTicks": 192,
          "midi": 41,
          "name": "F2",
          "ticks": 35328,
          "time": 33.053852,
          "velocity": 0.3937007874015748
        },
        {
          "duration": 0.6287417500000032,
          "durationTicks": 672,
          "midi": 77,
          "name": "F5",
          "ticks": 35328,
          "time": 33.053852,
          "velocity": 0.3937007874015748
        },
        {
          "duration": 0.17964050000000498,
          "durationTicks": 192,
          "midi": 36,
          "name": "C2",
          "ticks": 35328,
          "time": 33.053852,
          "velocity": 0.3937007874015748
        },
        {
          "duration": 0.17964049999999787,
          "durationTicks": 192,
          "midi": 41,
          "name": "F2",
          "ticks": 35520,
          "time": 33.233492500000004,
          "velocity": 0.3937007874015748
        },
        {
          "duration": 0.17964049999999787,
          "durationTicks": 192,
          "midi": 36,
          "name": "C2",
          "ticks": 35520,
          "time": 33.233492500000004,
          "velocity": 0.3937007874015748
        },
        {
          "duration": 0.17964049999999787,
          "durationTicks": 192,
          "midi": 29,
          "name": "F1",
          "ticks": 35520,
          "time": 33.233492500000004,
          "velocity": 0.3937007874015748
        },
        {
          "duration": 0.17964049999999787,
          "durationTicks": 192,
          "midi": 29,
          "name": "F1",
          "ticks": 35712,
          "time": 33.413133,
          "velocity": 0.3937007874015748
        },
        {
          "duration": 0.17964050000000498,
          "durationTicks": 192,
          "midi": 29,
          "name": "F1",
          "ticks": 35904,
          "time": 33.5927735,
          "velocity": 0.3937007874015748
        },
        {
          "duration": 0.17964050000000498,
          "durationTicks": 192,
          "midi": 36,
          "name": "C2",
          "ticks": 35904,
          "time": 33.5927735,
          "velocity": 0.3937007874015748
        },
        {
          "duration": 0.17964050000000498,
          "durationTicks": 192,
          "midi": 41,
          "name": "F2",
          "ticks": 35904,
          "time": 33.5927735,
          "velocity": 0.3937007874015748
        },
        {
          "duration": 0.44910124999999823,
          "durationTicks": 480,
          "midi": 36,
          "name": "C2",
          "ticks": 36096,
          "time": 33.772414000000005,
          "velocity": 0.3937007874015748
        },
        {
          "duration": 0.44910124999999823,
          "durationTicks": 480,
          "midi": 41,
          "name": "F2",
          "ticks": 36096,
          "time": 33.772414000000005,
          "velocity": 0.3937007874015748
        },
        {
          "duration": 0.17964049999999787,
          "durationTicks": 192,
          "midi": 29,
          "name": "F1",
          "ticks": 36096,
          "time": 33.772414000000005,
          "velocity": 0.3937007874015748
        },
        {
          "duration": 0.17964049999999787,
          "durationTicks": 192,
          "midi": 29,
          "name": "F1",
          "ticks": 36288,
          "time": 33.9520545,
          "velocity": 0.3937007874015748
        },
        {
          "duration": 0.35928100000000285,
          "durationTicks": 384,
          "midi": 72,
          "name": "C5",
          "ticks": 36480,
          "time": 34.131695,
          "velocity": 0.3937007874015748
        },
        {
          "duration": 0.17964049999999787,
          "durationTicks": 192,
          "midi": 29,
          "name": "F1",
          "ticks": 36480,
          "time": 34.131695,
          "velocity": 0.3937007874015748
        },
        {
          "duration": 0.35928100000000285,
          "durationTicks": 384,
          "midi": 77,
          "name": "F5",
          "ticks": 36480,
          "time": 34.131695,
          "velocity": 0.3937007874015748
        },
        {
          "duration": 0.17964050000000498,
          "durationTicks": 192,
          "midi": 41,
          "name": "F2",
          "ticks": 36672,
          "time": 34.3113355,
          "velocity": 0.3937007874015748
        },
        {
          "duration": 0.17964050000000498,
          "durationTicks": 192,
          "midi": 29,
          "name": "F1",
          "ticks": 36672,
          "time": 34.3113355,
          "velocity": 0.3937007874015748
        },
        {
          "duration": 0.17964050000000498,
          "durationTicks": 192,
          "midi": 36,
          "name": "C2",
          "ticks": 36672,
          "time": 34.3113355,
          "velocity": 0.3937007874015748
        },
        {
          "duration": 0.35928099999999574,
          "durationTicks": 384,
          "midi": 79,
          "name": "G5",
          "ticks": 36864,
          "time": 34.490976,
          "velocity": 0.3937007874015748
        },
        {
          "duration": 0.17964049999999787,
          "durationTicks": 192,
          "midi": 43,
          "name": "G2",
          "ticks": 36864,
          "time": 34.490976,
          "velocity": 0.3937007874015748
        },
        {
          "duration": 0.35928099999999574,
          "durationTicks": 384,
          "midi": 74,
          "name": "D5",
          "ticks": 36864,
          "time": 34.490976,
          "velocity": 0.3937007874015748
        },
        {
          "duration": 0.17964049999999787,
          "durationTicks": 192,
          "midi": 38,
          "name": "D2",
          "ticks": 36864,
          "time": 34.490976,
          "velocity": 0.3937007874015748
        },
        {
          "duration": 0.17964049999999787,
          "durationTicks": 192,
          "midi": 31,
          "name": "G1",
          "ticks": 36864,
          "time": 34.490976,
          "velocity": 0.3937007874015748
        },
        {
          "duration": 0.17964049999999787,
          "durationTicks": 192,
          "midi": 31,
          "name": "G1",
          "ticks": 37056,
          "time": 34.6706165,
          "velocity": 0.3937007874015748
        },
        {
          "duration": 0.17964049999999787,
          "durationTicks": 192,
          "midi": 38,
          "name": "D2",
          "ticks": 37056,
          "time": 34.6706165,
          "velocity": 0.3937007874015748
        },
        {
          "duration": 0.17964049999999787,
          "durationTicks": 192,
          "midi": 43,
          "name": "G2",
          "ticks": 37056,
          "time": 34.6706165,
          "velocity": 0.3937007874015748
        },
        {
          "duration": 0.35928100000000285,
          "durationTicks": 384,
          "midi": 72,
          "name": "C5",
          "ticks": 37248,
          "time": 34.850257,
          "velocity": 0.3937007874015748
        },
        {
          "duration": 0.17964050000000498,
          "durationTicks": 192,
          "midi": 31,
          "name": "G1",
          "ticks": 37248,
          "time": 34.850257,
          "velocity": 0.3937007874015748
        },
        {
          "duration": 0.35928100000000285,
          "durationTicks": 384,
          "midi": 77,
          "name": "F5",
          "ticks": 37248,
          "time": 34.850257,
          "velocity": 0.3937007874015748
        },
        {
          "duration": 0.17964049999999787,
          "durationTicks": 192,
          "midi": 31,
          "name": "G1",
          "ticks": 37440,
          "time": 35.029897500000004,
          "velocity": 0.3937007874015748
        },
        {
          "duration": 0.17964049999999787,
          "durationTicks": 192,
          "midi": 38,
          "name": "D2",
          "ticks": 37440,
          "time": 35.029897500000004,
          "velocity": 0.3937007874015748
        },
        {
          "duration": 0.17964049999999787,
          "durationTicks": 192,
          "midi": 43,
          "name": "G2",
          "ticks": 37440,
          "time": 35.029897500000004,
          "velocity": 0.3937007874015748
        },
        {
          "duration": 0.17964049999999787,
          "durationTicks": 192,
          "midi": 31,
          "name": "G1",
          "ticks": 37632,
          "time": 35.209538,
          "velocity": 0.3937007874015748
        },
        {
          "duration": 0.35928100000000285,
          "durationTicks": 384,
          "midi": 76,
          "name": "E5",
          "ticks": 37632,
          "time": 35.209538,
          "velocity": 0.3937007874015748
        },
        {
          "duration": 0.44910124999999823,
          "durationTicks": 480,
          "midi": 43,
          "name": "G2",
          "ticks": 37632,
          "time": 35.209538,
          "velocity": 0.3937007874015748
        },
        {
          "duration": 0.35928100000000285,
          "durationTicks": 384,
          "midi": 71,
          "name": "B4",
          "ticks": 37632,
          "time": 35.209538,
          "velocity": 0.3937007874015748
        },
        {
          "duration": 0.44910124999999823,
          "durationTicks": 480,
          "midi": 38,
          "name": "D2",
          "ticks": 37632,
          "time": 35.209538,
          "velocity": 0.3937007874015748
        },
        {
          "duration": 0.17964050000000498,
          "durationTicks": 192,
          "midi": 31,
          "name": "G1",
          "ticks": 37824,
          "time": 35.3891785,
          "velocity": 0.3937007874015748
        },
        {
          "duration": 0.35928099999999574,
          "durationTicks": 384,
          "midi": 64,
          "name": "E4",
          "ticks": 38016,
          "time": 35.568819000000005,
          "velocity": 0.3937007874015748
        },
        {
          "duration": 0.17964049999999787,
          "durationTicks": 192,
          "midi": 31,
          "name": "G1",
          "ticks": 38016,
          "time": 35.568819000000005,
          "velocity": 0.3937007874015748
        },
        {
          "duration": 0.35928099999999574,
          "durationTicks": 384,
          "midi": 69,
          "name": "A4",
          "ticks": 38016,
          "time": 35.568819000000005,
          "velocity": 0.3937007874015748
        },
        {
          "duration": 0.17964049999999787,
          "durationTicks": 192,
          "midi": 43,
          "name": "G2",
          "ticks": 38208,
          "time": 35.7484595,
          "velocity": 0.3937007874015748
        },
        {
          "duration": 0.17964049999999787,
          "durationTicks": 192,
          "midi": 38,
          "name": "D2",
          "ticks": 38208,
          "time": 35.7484595,
          "velocity": 0.3937007874015748
        },
        {
          "duration": 0.17964049999999787,
          "durationTicks": 192,
          "midi": 31,
          "name": "G1",
          "ticks": 38208,
          "time": 35.7484595,
          "velocity": 0.3937007874015748
        },
        {
          "duration": 0.35928100000000285,
          "durationTicks": 384,
          "midi": 45,
          "name": "A2",
          "ticks": 38400,
          "time": 35.9281,
          "velocity": 0.3937007874015748
        },
        {
          "duration": 0.17964049999999787,
          "durationTicks": 192,
          "midi": 76,
          "name": "E5",
          "ticks": 38400,
          "time": 35.9281,
          "velocity": 0.3937007874015748
        },
        {
          "duration": 0.17964049999999787,
          "durationTicks": 192,
          "midi": 33,
          "name": "A1",
          "ticks": 38400,
          "time": 35.9281,
          "velocity": 0.3937007874015748
        },
        {
          "duration": 0.35928100000000285,
          "durationTicks": 384,
          "midi": 40,
          "name": "E2",
          "ticks": 38400,
          "time": 35.9281,
          "velocity": 0.3937007874015748
        },
        {
          "duration": 0.17964049999999787,
          "durationTicks": 192,
          "midi": 71,
          "name": "B4",
          "ticks": 38400,
          "time": 35.9281,
          "velocity": 0.3937007874015748
        },
        {
          "duration": 0.17964050000000498,
          "durationTicks": 192,
          "midi": 33,
          "name": "A1",
          "ticks": 38592,
          "time": 36.1077405,
          "velocity": 0.3937007874015748
        },
        {
          "duration": 0.35928100000000285,
          "durationTicks": 384,
          "midi": 72,
          "name": "C5",
          "ticks": 38592,
          "time": 36.1077405,
          "velocity": 0.3937007874015748
        },
        {
          "duration": 0.35928100000000285,
          "durationTicks": 384,
          "midi": 76,
          "name": "E5",
          "ticks": 38592,
          "time": 36.1077405,
          "velocity": 0.3937007874015748
        },
        {
          "duration": 0.35928099999999574,
          "durationTicks": 384,
          "midi": 43,
          "name": "G2",
          "ticks": 38784,
          "time": 36.287381,
          "velocity": 0.3937007874015748
        },
        {
          "duration": 0.17964049999999787,
          "durationTicks": 192,
          "midi": 36,
          "name": "C2",
          "ticks": 38784,
          "time": 36.287381,
          "velocity": 0.3937007874015748
        },
        {
          "duration": 0.35928099999999574,
          "durationTicks": 384,
          "midi": 48,
          "name": "C3",
          "ticks": 38784,
          "time": 36.287381,
          "velocity": 0.3937007874015748
        },
        {
          "duration": 0.17964049999999787,
          "durationTicks": 192,
          "midi": 36,
          "name": "C2",
          "ticks": 38976,
          "time": 36.4670215,
          "velocity": 0.3937007874015748
        },
        {
          "duration": 1.167663250000004,
          "durationTicks": 1248,
          "midi": 69,
          "name": "A4",
          "ticks": 38976,
          "time": 36.4670215,
          "velocity": 0.3937007874015748
        },
        {
          "duration": 1.167663250000004,
          "durationTicks": 1248,
          "midi": 72,
          "name": "C5",
          "ticks": 38976,
          "time": 36.4670215,
          "velocity": 0.3937007874015748
        },
        {
          "duration": 0.17964050000000498,
          "durationTicks": 192,
          "midi": 38,
          "name": "D2",
          "ticks": 39168,
          "time": 36.646662,
          "velocity": 0.3937007874015748
        },
        {
          "duration": 0.35928100000000285,
          "durationTicks": 384,
          "midi": 50,
          "name": "D3",
          "ticks": 39168,
          "time": 36.646662,
          "velocity": 0.3937007874015748
        },
        {
          "duration": 0.35928100000000285,
          "durationTicks": 384,
          "midi": 45,
          "name": "A2",
          "ticks": 39168,
          "time": 36.646662,
          "velocity": 0.3937007874015748
        },
        {
          "duration": 0.17964049999999787,
          "durationTicks": 192,
          "midi": 38,
          "name": "D2",
          "ticks": 39360,
          "time": 36.826302500000004,
          "velocity": 0.3937007874015748
        },
        {
          "duration": 0.35928100000000285,
          "durationTicks": 384,
          "midi": 46,
          "name": "A#2",
          "ticks": 39552,
          "time": 37.005943,
          "velocity": 0.3937007874015748
        },
        {
          "duration": 0.17964049999999787,
          "durationTicks": 192,
          "midi": 39,
          "name": "D#2",
          "ticks": 39552,
          "time": 37.005943,
          "velocity": 0.3937007874015748
        },
        {
          "duration": 0.35928100000000285,
          "durationTicks": 384,
          "midi": 51,
          "name": "D#3",
          "ticks": 39552,
          "time": 37.005943,
          "velocity": 0.3937007874015748
        },
        {
          "duration": 0.17964050000000498,
          "durationTicks": 192,
          "midi": 39,
          "name": "D#2",
          "ticks": 39744,
          "time": 37.1855835,
          "velocity": 0.3937007874015748
        },
        {
          "duration": 0.35928099999999574,
          "durationTicks": 384,
          "midi": 47,
          "name": "B2",
          "ticks": 39936,
          "time": 37.365224000000005,
          "velocity": 0.3937007874015748
        },
        {
          "duration": 0.35928099999999574,
          "durationTicks": 384,
          "midi": 52,
          "name": "E3",
          "ticks": 39936,
          "time": 37.365224000000005,
          "velocity": 0.3937007874015748
        },
        {
          "duration": 0.17964049999999787,
          "durationTicks": 192,
          "midi": 40,
          "name": "E2",
          "ticks": 39936,
          "time": 37.365224000000005,
          "velocity": 0.3937007874015748
        },
        {
          "duration": 0.17964049999999787,
          "durationTicks": 192,
          "midi": 40,
          "name": "E2",
          "ticks": 40128,
          "time": 37.5448645,
          "velocity": 0.3937007874015748
        },
        {
          "duration": 0.35928100000000285,
          "durationTicks": 384,
          "midi": 46,
          "name": "A#2",
          "ticks": 40320,
          "time": 37.724505,
          "velocity": 0.3937007874015748
        },
        {
          "duration": 0.17964049999999787,
          "durationTicks": 192,
          "midi": 39,
          "name": "D#2",
          "ticks": 40320,
          "time": 37.724505,
          "velocity": 0.3937007874015748
        },
        {
          "duration": 0.35928100000000285,
          "durationTicks": 384,
          "midi": 51,
          "name": "D#3",
          "ticks": 40320,
          "time": 37.724505,
          "velocity": 0.3937007874015748
        },
        {
          "duration": 0.17964050000000498,
          "durationTicks": 192,
          "midi": 39,
          "name": "D#2",
          "ticks": 40512,
          "time": 37.9041455,
          "velocity": 0.3937007874015748
        },
        {
          "duration": 0.35928100000000285,
          "durationTicks": 384,
          "midi": 69,
          "name": "A4",
          "ticks": 40512,
          "time": 37.9041455,
          "velocity": 0.3937007874015748
        },
        {
          "duration": 0.17964049999999787,
          "durationTicks": 192,
          "midi": 38,
          "name": "D2",
          "ticks": 40704,
          "time": 38.083786,
          "velocity": 0.3937007874015748
        },
        {
          "duration": 0.35928099999999574,
          "durationTicks": 384,
          "midi": 45,
          "name": "A2",
          "ticks": 40704,
          "time": 38.083786,
          "velocity": 0.3937007874015748
        },
        {
          "duration": 0.35928099999999574,
          "durationTicks": 384,
          "midi": 50,
          "name": "D3",
          "ticks": 40704,
          "time": 38.083786,
          "velocity": 0.3937007874015748
        },
        {
          "duration": 0.17964049999999787,
          "durationTicks": 192,
          "midi": 71,
          "name": "B4",
          "ticks": 40896,
          "time": 38.2634265,
          "velocity": 0.3937007874015748
        },
        {
          "duration": 0.17964049999999787,
          "durationTicks": 192,
          "midi": 38,
          "name": "D2",
          "ticks": 40896,
          "time": 38.2634265,
          "velocity": 0.3937007874015748
        },
        {
          "duration": 0.17964050000000498,
          "durationTicks": 192,
          "midi": 36,
          "name": "C2",
          "ticks": 41088,
          "time": 38.443067,
          "velocity": 0.3937007874015748
        },
        {
          "duration": 0.35928100000000285,
          "durationTicks": 384,
          "midi": 43,
          "name": "G2",
          "ticks": 41088,
          "time": 38.443067,
          "velocity": 0.3937007874015748
        },
        {
          "duration": 0.17964050000000498,
          "durationTicks": 192,
          "midi": 72,
          "name": "C5",
          "ticks": 41088,
          "time": 38.443067,
          "velocity": 0.3937007874015748
        },
        {
          "duration": 0.35928100000000285,
          "durationTicks": 384,
          "midi": 48,
          "name": "C3",
          "ticks": 41088,
          "time": 38.443067,
          "velocity": 0.3937007874015748
        },
        {
          "duration": 0.17964049999999787,
          "durationTicks": 192,
          "midi": 36,
          "name": "C2",
          "ticks": 41280,
          "time": 38.622707500000004,
          "velocity": 0.3937007874015748
        },
        {
          "duration": 0.17964049999999787,
          "durationTicks": 192,
          "midi": 74,
          "name": "D5",
          "ticks": 41280,
          "time": 38.622707500000004,
          "velocity": 0.3937007874015748
        },
        {
          "duration": 0.17964049999999787,
          "durationTicks": 192,
          "midi": 41,
          "name": "F2",
          "ticks": 41472,
          "time": 38.802348,
          "velocity": 0.3937007874015748
        },
        {
          "duration": 0.17964049999999787,
          "durationTicks": 192,
          "midi": 29,
          "name": "F1",
          "ticks": 41472,
          "time": 38.802348,
          "velocity": 0.3937007874015748
        },
        {
          "duration": 0.6287417500000032,
          "durationTicks": 672,
          "midi": 76,
          "name": "E5",
          "ticks": 41472,
          "time": 38.802348,
          "velocity": 0.3937007874015748
        },
        {
          "duration": 0.17964050000000498,
          "durationTicks": 192,
          "midi": 48,
          "name": "C3",
          "ticks": 41664,
          "time": 38.9819885,
          "velocity": 0.3937007874015748
        },
        {
          "duration": 0.17964050000000498,
          "durationTicks": 192,
          "midi": 29,
          "name": "F1",
          "ticks": 41664,
          "time": 38.9819885,
          "velocity": 0.3937007874015748
        },
        {
          "duration": 0.17964049999999787,
          "durationTicks": 192,
          "midi": 47,
          "name": "B2",
          "ticks": 41856,
          "time": 39.161629000000005,
          "velocity": 0.3937007874015748
        },
        {
          "duration": 0.17964049999999787,
          "durationTicks": 192,
          "midi": 29,
          "name": "F1",
          "ticks": 42048,
          "time": 39.3412695,
          "velocity": 0.3937007874015748
        },
        {
          "duration": 0.17964049999999787,
          "durationTicks": 192,
          "midi": 41,
          "name": "F2",
          "ticks": 42048,
          "time": 39.3412695,
          "velocity": 0.3937007874015748
        },
        {
          "duration": 0.17964049999999787,
          "durationTicks": 192,
          "midi": 47,
          "name": "B2",
          "ticks": 42240,
          "time": 39.52091,
          "velocity": 0.3937007874015748
        },
        {
          "duration": 0.17964049999999787,
          "durationTicks": 192,
          "midi": 29,
          "name": "F1",
          "ticks": 42240,
          "time": 39.52091,
          "velocity": 0.3937007874015748
        },
        {
          "duration": 0.17964050000000498,
          "durationTicks": 192,
          "midi": 69,
          "name": "A4",
          "ticks": 42432,
          "time": 39.7005505,
          "velocity": 0.3937007874015748
        },
        {
          "duration": 0.17964050000000498,
          "durationTicks": 192,
          "midi": 48,
          "name": "C3",
          "ticks": 42432,
          "time": 39.7005505,
          "velocity": 0.3937007874015748
        },
        {
          "duration": 0.17964050000000498,
          "durationTicks": 192,
          "midi": 29,
          "name": "F1",
          "ticks": 42432,
          "time": 39.7005505,
          "velocity": 0.3937007874015748
        },
        {
          "duration": 0.17964049999999787,
          "durationTicks": 192,
          "midi": 76,
          "name": "E5",
          "ticks": 42624,
          "time": 39.880191,
          "velocity": 0.3937007874015748
        },
        {
          "duration": 0.17964049999999787,
          "durationTicks": 192,
          "midi": 38,
          "name": "D2",
          "ticks": 42816,
          "time": 40.0598315,
          "velocity": 0.3937007874015748
        },
        {
          "duration": 0.17964049999999787,
          "durationTicks": 192,
          "midi": 43,
          "name": "G2",
          "ticks": 42816,
          "time": 40.0598315,
          "velocity": 0.3937007874015748
        },
        {
          "duration": 0.5389215000000007,
          "durationTicks": 576,
          "midi": 74,
          "name": "D5",
          "ticks": 42816,
          "time": 40.0598315,
          "velocity": 0.3937007874015748
        },
        {
          "duration": 0.17964049999999787,
          "durationTicks": 192,
          "midi": 31,
          "name": "G1",
          "ticks": 42816,
          "time": 40.0598315,
          "velocity": 0.3937007874015748
        },
        {
          "duration": 0.17964049999999787,
          "durationTicks": 192,
          "midi": 43,
          "name": "G2",
          "ticks": 43200,
          "time": 40.419112500000004,
          "velocity": 0.3937007874015748
        },
        {
          "duration": 0.17964049999999787,
          "durationTicks": 192,
          "midi": 38,
          "name": "D2",
          "ticks": 43200,
          "time": 40.419112500000004,
          "velocity": 0.3937007874015748
        },
        {
          "duration": 0.17964049999999787,
          "durationTicks": 192,
          "midi": 31,
          "name": "G1",
          "ticks": 43200,
          "time": 40.419112500000004,
          "velocity": 0.3937007874015748
        },
        {
          "duration": 0.35928100000000285,
          "durationTicks": 384,
          "midi": 74,
          "name": "D5",
          "ticks": 43584,
          "time": 40.7783935,
          "velocity": 0.3937007874015748
        },
        {
          "duration": 0.17964050000000498,
          "durationTicks": 192,
          "midi": 43,
          "name": "G2",
          "ticks": 43584,
          "time": 40.7783935,
          "velocity": 0.3937007874015748
        },
        {
          "duration": 0.17964050000000498,
          "durationTicks": 192,
          "midi": 31,
          "name": "G1",
          "ticks": 43584,
          "time": 40.7783935,
          "velocity": 0.3937007874015748
        },
        {
          "duration": 0.17964050000000498,
          "durationTicks": 192,
          "midi": 38,
          "name": "D2",
          "ticks": 43584,
          "time": 40.7783935,
          "velocity": 0.3937007874015748
        },
        {
          "duration": 0.17964049999999787,
          "durationTicks": 192,
          "midi": 31,
          "name": "G1",
          "ticks": 43968,
          "time": 41.1376745,
          "velocity": 0.3937007874015748
        },
        {
          "duration": 0.17964049999999787,
          "durationTicks": 192,
          "midi": 38,
          "name": "D2",
          "ticks": 43968,
          "time": 41.1376745,
          "velocity": 0.3937007874015748
        },
        {
          "duration": 0.17964049999999787,
          "durationTicks": 192,
          "midi": 43,
          "name": "G2",
          "ticks": 43968,
          "time": 41.1376745,
          "velocity": 0.3937007874015748
        },
        {
          "duration": 0.17964049999999787,
          "durationTicks": 192,
          "midi": 72,
          "name": "C5",
          "ticks": 43968,
          "time": 41.1376745,
          "velocity": 0.3937007874015748
        },
        {
          "duration": 0.35928100000000285,
          "durationTicks": 384,
          "midi": 43,
          "name": "G2",
          "ticks": 44160,
          "time": 41.317315,
          "velocity": 0.3937007874015748
        },
        {
          "duration": 0.35928100000000285,
          "durationTicks": 384,
          "midi": 31,
          "name": "G1",
          "ticks": 44160,
          "time": 41.317315,
          "velocity": 0.3937007874015748
        },
        {
          "duration": 0.35928100000000285,
          "durationTicks": 384,
          "midi": 38,
          "name": "D2",
          "ticks": 44160,
          "time": 41.317315,
          "velocity": 0.3937007874015748
        },
        {
          "duration": 0.17964049999999787,
          "durationTicks": 192,
          "midi": 71,
          "name": "B4",
          "ticks": 44160,
          "time": 41.317315,
          "velocity": 0.3937007874015748
        },
        {
          "duration": 0.17964050000000498,
          "durationTicks": 192,
          "midi": 69,
          "name": "A4",
          "ticks": 44352,
          "time": 41.4969555,
          "velocity": 0.3937007874015748
        },
        {
          "duration": 0.6287417499999961,
          "durationTicks": 672,
          "midi": 67,
          "name": "G4",
          "ticks": 44544,
          "time": 41.676596,
          "velocity": 0.3937007874015748
        },
        {
          "duration": 1.2574834999999993,
          "durationTicks": 1344,
          "midi": 83,
          "name": "B5",
          "ticks": 44544,
          "time": 41.676596,
          "velocity": 0.3937007874015748
        },
        {
          "duration": 1.2574834999999993,
          "durationTicks": 1344,
          "midi": 79,
          "name": "G5",
          "ticks": 44544,
          "time": 41.676596,
          "velocity": 0.3937007874015748
        },
        {
          "duration": 0.17964049999999787,
          "durationTicks": 192,
          "midi": 40,
          "name": "E2",
          "ticks": 44544,
          "time": 41.676596,
          "velocity": 0.3937007874015748
        },
        {
          "duration": 0.17964049999999787,
          "durationTicks": 192,
          "midi": 28,
          "name": "E1",
          "ticks": 44544,
          "time": 41.676596,
          "velocity": 0.3937007874015748
        },
        {
          "duration": 0.17964049999999787,
          "durationTicks": 192,
          "midi": 47,
          "name": "B2",
          "ticks": 44736,
          "time": 41.8562365,
          "velocity": 0.3937007874015748
        },
        {
          "duration": 0.17964049999999787,
          "durationTicks": 192,
          "midi": 28,
          "name": "E1",
          "ticks": 44736,
          "time": 41.8562365,
          "velocity": 0.3937007874015748
        },
        {
          "duration": 0.17964050000000498,
          "durationTicks": 192,
          "midi": 45,
          "name": "A2",
          "ticks": 44928,
          "time": 42.035877,
          "velocity": 0.3937007874015748
        },
        {
          "duration": 0.17964049999999787,
          "durationTicks": 192,
          "midi": 40,
          "name": "E2",
          "ticks": 45120,
          "time": 42.215517500000004,
          "velocity": 0.3937007874015748
        },
        {
          "duration": 0.17964049999999787,
          "durationTicks": 192,
          "midi": 28,
          "name": "E1",
          "ticks": 45120,
          "time": 42.215517500000004,
          "velocity": 0.3937007874015748
        },
        {
          "duration": 0.17964049999999787,
          "durationTicks": 192,
          "midi": 28,
          "name": "E1",
          "ticks": 45312,
          "time": 42.395158,
          "velocity": 0.3937007874015748
        },
        {
          "duration": 0.17964049999999787,
          "durationTicks": 192,
          "midi": 45,
          "name": "A2",
          "ticks": 45312,
          "time": 42.395158,
          "velocity": 0.3937007874015748
        },
        {
          "duration": 0.17964050000000498,
          "durationTicks": 192,
          "midi": 28,
          "name": "E1",
          "ticks": 45504,
          "time": 42.5747985,
          "velocity": 0.3937007874015748
        },
        {
          "duration": 0.17964050000000498,
          "durationTicks": 192,
          "midi": 64,
          "name": "E4",
          "ticks": 45504,
          "time": 42.5747985,
          "velocity": 0.3937007874015748
        },
        {
          "duration": 0.17964050000000498,
          "durationTicks": 192,
          "midi": 47,
          "name": "B2",
          "ticks": 45504,
          "time": 42.5747985,
          "velocity": 0.3937007874015748
        },
        {
          "duration": 0.17964049999999787,
          "durationTicks": 192,
          "midi": 74,
          "name": "D5",
          "ticks": 45696,
          "time": 42.754439000000005,
          "velocity": 0.3937007874015748
        },
        {
          "duration": 0.8083822500000011,
          "durationTicks": 864,
          "midi": 84,
          "name": "C6",
          "ticks": 45888,
          "time": 42.9340795,
          "velocity": 0.3937007874015748
        },
        {
          "duration": 0.17964049999999787,
          "durationTicks": 192,
          "midi": 40,
          "name": "E2",
          "ticks": 45888,
          "time": 42.9340795,
          "velocity": 0.3937007874015748
        },
        {
          "duration": 0.17964049999999787,
          "durationTicks": 192,
          "midi": 33,
          "name": "A1",
          "ticks": 45888,
          "time": 42.9340795,
          "velocity": 0.3937007874015748
        },
        {
          "duration": 0.17964049999999787,
          "durationTicks": 192,
          "midi": 45,
          "name": "A2",
          "ticks": 45888,
          "time": 42.9340795,
          "velocity": 0.3937007874015748
        },
        {
          "duration": 0.6287417499999961,
          "durationTicks": 672,
          "midi": 72,
          "name": "C5",
          "ticks": 45888,
          "time": 42.9340795,
          "velocity": 0.3937007874015748
        },
        {
          "duration": 0.8083822500000011,
          "durationTicks": 864,
          "midi": 81,
          "name": "A5",
          "ticks": 45888,
          "time": 42.9340795,
          "velocity": 0.3937007874015748
        },
        {
          "duration": 0.17964050000000498,
          "durationTicks": 192,
          "midi": 33,
          "name": "A1",
          "ticks": 46272,
          "time": 43.2933605,
          "velocity": 0.3937007874015748
        },
        {
          "duration": 0.17964050000000498,
          "durationTicks": 192,
          "midi": 42,
          "name": "F#2",
          "ticks": 46272,
          "time": 43.2933605,
          "velocity": 0.3937007874015748
        },
        {
          "duration": 0.17964050000000498,
          "durationTicks": 192,
          "midi": 47,
          "name": "B2",
          "ticks": 46272,
          "time": 43.2933605,
          "velocity": 0.3937007874015748
        },
        {
          "duration": 0.17964049999999787,
          "durationTicks": 192,
          "midi": 43,
          "name": "G2",
          "ticks": 46656,
          "time": 43.6526415,
          "velocity": 0.3937007874015748
        },
        {
          "duration": 0.17964049999999787,
          "durationTicks": 192,
          "midi": 48,
          "name": "C3",
          "ticks": 46656,
          "time": 43.6526415,
          "velocity": 0.3937007874015748
        },
        {
          "duration": 0.17964049999999787,
          "durationTicks": 192,
          "midi": 33,
          "name": "A1",
          "ticks": 46656,
          "time": 43.6526415,
          "velocity": 0.3937007874015748
        },
        {
          "duration": 0.35928100000000285,
          "durationTicks": 384,
          "midi": 76,
          "name": "E5",
          "ticks": 46848,
          "time": 43.832282,
          "velocity": 0.3937007874015748
        },
        {
          "duration": 0.35928100000000285,
          "durationTicks": 384,
          "midi": 72,
          "name": "C5",
          "ticks": 46848,
          "time": 43.832282,
          "velocity": 0.3937007874015748
        },
        {
          "duration": 0.17964049999999787,
          "durationTicks": 192,
          "midi": 38,
          "name": "D2",
          "ticks": 47040,
          "time": 44.011922500000004,
          "velocity": 0.3937007874015748
        },
        {
          "duration": 0.17964049999999787,
          "durationTicks": 192,
          "midi": 31,
          "name": "G1",
          "ticks": 47040,
          "time": 44.011922500000004,
          "velocity": 0.3937007874015748
        },
        {
          "duration": 0.17964049999999787,
          "durationTicks": 192,
          "midi": 43,
          "name": "G2",
          "ticks": 47040,
          "time": 44.011922500000004,
          "velocity": 0.3937007874015748
        },
        {
          "duration": 0.35928100000000285,
          "durationTicks": 384,
          "midi": 74,
          "name": "D5",
          "ticks": 47232,
          "time": 44.191563,
          "velocity": 0.3937007874015748
        },
        {
          "duration": 0.35928100000000285,
          "durationTicks": 384,
          "midi": 71,
          "name": "B4",
          "ticks": 47232,
          "time": 44.191563,
          "velocity": 0.3937007874015748
        },
        {
          "duration": 0.35928100000000285,
          "durationTicks": 384,
          "midi": 43,
          "name": "G2",
          "ticks": 47232,
          "time": 44.191563,
          "velocity": 0.3937007874015748
        },
        {
          "duration": 0.35928100000000285,
          "durationTicks": 384,
          "midi": 38,
          "name": "D2",
          "ticks": 47232,
          "time": 44.191563,
          "velocity": 0.3937007874015748
        },
        {
          "duration": 0.35928100000000285,
          "durationTicks": 384,
          "midi": 31,
          "name": "G1",
          "ticks": 47232,
          "time": 44.191563,
          "velocity": 0.3937007874015748
        },
        {
          "duration": 0.17964049999999787,
          "durationTicks": 192,
          "midi": 43,
          "name": "G2",
          "ticks": 47616,
          "time": 44.550844000000005,
          "velocity": 0.3937007874015748
        },
        {
          "duration": 0.17964049999999787,
          "durationTicks": 192,
          "midi": 31,
          "name": "G1",
          "ticks": 47616,
          "time": 44.550844000000005,
          "velocity": 0.3937007874015748
        },
        {
          "duration": 0.6287417499999961,
          "durationTicks": 672,
          "midi": 72,
          "name": "C5",
          "ticks": 47616,
          "time": 44.550844000000005,
          "velocity": 0.3937007874015748
        },
        {
          "duration": 0.6287417499999961,
          "durationTicks": 672,
          "midi": 69,
          "name": "A4",
          "ticks": 47616,
          "time": 44.550844000000005,
          "velocity": 0.3937007874015748
        },
        {
          "duration": 0.17964049999999787,
          "durationTicks": 192,
          "midi": 33,
          "name": "A1",
          "ticks": 47808,
          "time": 44.7304845,
          "velocity": 0.3937007874015748
        },
        {
          "duration": 0.17964049999999787,
          "durationTicks": 192,
          "midi": 45,
          "name": "A2",
          "ticks": 47808,
          "time": 44.7304845,
          "velocity": 0.3937007874015748
        },
        {
          "duration": 0.17964049999999787,
          "durationTicks": 192,
          "midi": 48,
          "name": "C3",
          "ticks": 48000,
          "time": 44.910125,
          "velocity": 0.3937007874015748
        },
        {
          "duration": 0.17964049999999787,
          "durationTicks": 192,
          "midi": 36,
          "name": "C2",
          "ticks": 48000,
          "time": 44.910125,
          "velocity": 0.3937007874015748
        },
        {
          "duration": 0.17964050000000498,
          "durationTicks": 192,
          "midi": 40,
          "name": "E2",
          "ticks": 48192,
          "time": 45.0897655,
          "velocity": 0.3937007874015748
        },
        {
          "duration": 0.17964050000000498,
          "durationTicks": 192,
          "midi": 52,
          "name": "E3",
          "ticks": 48192,
          "time": 45.0897655,
          "velocity": 0.3937007874015748
        },
        {
          "duration": 0.17964049999999787,
          "durationTicks": 192,
          "midi": 43,
          "name": "G2",
          "ticks": 48384,
          "time": 45.269406000000004,
          "velocity": 0.3937007874015748
        },
        {
          "duration": 0.17964049999999787,
          "durationTicks": 192,
          "midi": 55,
          "name": "G3",
          "ticks": 48384,
          "time": 45.269406000000004,
          "velocity": 0.3937007874015748
        },
        {
          "duration": 0.17964049999999787,
          "durationTicks": 192,
          "midi": 57,
          "name": "A3",
          "ticks": 48576,
          "time": 45.4490465,
          "velocity": 0.3937007874015748
        },
        {
          "duration": 0.17964049999999787,
          "durationTicks": 192,
          "midi": 40,
          "name": "E2",
          "ticks": 48576,
          "time": 45.4490465,
          "velocity": 0.3937007874015748
        },
        {
          "duration": 0.17964049999999787,
          "durationTicks": 192,
          "midi": 69,
          "name": "A4",
          "ticks": 48576,
          "time": 45.4490465,
          "velocity": 0.3937007874015748
        },
        {
          "duration": 0.17964050000000498,
          "durationTicks": 192,
          "midi": 36,
          "name": "C2",
          "ticks": 48768,
          "time": 45.628687,
          "velocity": 0.3937007874015748
        },
        {
          "duration": 0.17964050000000498,
          "durationTicks": 192,
          "midi": 60,
          "name": "C4",
          "ticks": 48768,
          "time": 45.628687,
          "velocity": 0.3937007874015748
        },
        {
          "duration": 0.17964050000000498,
          "durationTicks": 192,
          "midi": 71,
          "name": "B4",
          "ticks": 48768,
          "time": 45.628687,
          "velocity": 0.3937007874015748
        },
        {
          "duration": 0.17964049999999787,
          "durationTicks": 192,
          "midi": 31,
          "name": "G1",
          "ticks": 48960,
          "time": 45.808327500000004,
          "velocity": 0.3937007874015748
        },
        {
          "duration": 0.17964049999999787,
          "durationTicks": 192,
          "midi": 64,
          "name": "E4",
          "ticks": 48960,
          "time": 45.808327500000004,
          "velocity": 0.3937007874015748
        },
        {
          "duration": 0.17964049999999787,
          "durationTicks": 192,
          "midi": 72,
          "name": "C5",
          "ticks": 48960,
          "time": 45.808327500000004,
          "velocity": 0.3937007874015748
        },
        {
          "duration": 0.17964049999999787,
          "durationTicks": 192,
          "midi": 35,
          "name": "B1",
          "ticks": 49152,
          "time": 45.987968,
          "velocity": 0.3937007874015748
        },
        {
          "duration": 0.44910124999999823,
          "durationTicks": 480,
          "midi": 75,
          "name": "D#5",
          "ticks": 49152,
          "time": 45.987968,
          "velocity": 0.3937007874015748
        },
        {
          "duration": 0.17964049999999787,
          "durationTicks": 192,
          "midi": 47,
          "name": "B2",
          "ticks": 49152,
          "time": 45.987968,
          "velocity": 0.3937007874015748
        },
        {
          "duration": 0.17964050000000498,
          "durationTicks": 192,
          "midi": 51,
          "name": "D#3",
          "ticks": 49344,
          "time": 46.1676085,
          "velocity": 0.3937007874015748
        },
        {
          "duration": 0.17964050000000498,
          "durationTicks": 192,
          "midi": 39,
          "name": "D#2",
          "ticks": 49344,
          "time": 46.1676085,
          "velocity": 0.3937007874015748
        },
        {
          "duration": 0.17964049999999787,
          "durationTicks": 192,
          "midi": 42,
          "name": "F#2",
          "ticks": 49536,
          "time": 46.347249000000005,
          "velocity": 0.3937007874015748
        },
        {
          "duration": 0.17964049999999787,
          "durationTicks": 192,
          "midi": 54,
          "name": "F#3",
          "ticks": 49536,
          "time": 46.347249000000005,
          "velocity": 0.3937007874015748
        },
        {
          "duration": 0.17964049999999787,
          "durationTicks": 192,
          "midi": 57,
          "name": "A3",
          "ticks": 49728,
          "time": 46.5268895,
          "velocity": 0.3937007874015748
        },
        {
          "duration": 0.17964049999999787,
          "durationTicks": 192,
          "midi": 45,
          "name": "A2",
          "ticks": 49728,
          "time": 46.5268895,
          "velocity": 0.3937007874015748
        },
        {
          "duration": 0.17964050000000498,
          "durationTicks": 192,
          "midi": 47,
          "name": "B2",
          "ticks": 49920,
          "time": 46.70653,
          "velocity": 0.3937007874015748
        },
        {
          "duration": 0.6287417500000032,
          "durationTicks": 672,
          "midi": 78,
          "name": "F#5",
          "ticks": 49920,
          "time": 46.70653,
          "velocity": 0.3937007874015748
        },
        {
          "duration": 0.17964050000000498,
          "durationTicks": 192,
          "midi": 59,
          "name": "B3",
          "ticks": 49920,
          "time": 46.70653,
          "velocity": 0.3937007874015748
        },
        {
          "duration": 0.17964049999999787,
          "durationTicks": 192,
          "midi": 63,
          "name": "D#4",
          "ticks": 50112,
          "time": 46.886170500000006,
          "velocity": 0.3937007874015748
        },
        {
          "duration": 0.17964049999999787,
          "durationTicks": 192,
          "midi": 44,
          "name": "G#2",
          "ticks": 50112,
          "time": 46.886170500000006,
          "velocity": 0.3937007874015748
        },
        {
          "duration": 0.17964049999999787,
          "durationTicks": 192,
          "midi": 42,
          "name": "F#2",
          "ticks": 50304,
          "time": 47.065811000000004,
          "velocity": 0.3937007874015748
        },
        {
          "duration": 0.17964049999999787,
          "durationTicks": 192,
          "midi": 66,
          "name": "F#4",
          "ticks": 50304,
          "time": 47.065811000000004,
          "velocity": 0.3937007874015748
        },
        {
          "duration": 0.17964049999999787,
          "durationTicks": 192,
          "midi": 69,
          "name": "A4",
          "ticks": 50496,
          "time": 47.2454515,
          "velocity": 0.3937007874015748
        },
        {
          "duration": 0.17964049999999787,
          "durationTicks": 192,
          "midi": 35,
          "name": "B1",
          "ticks": 50496,
          "time": 47.2454515,
          "velocity": 0.3937007874015748
        },
        {
          "duration": 0.17964050000000498,
          "durationTicks": 192,
          "midi": 28,
          "name": "E1",
          "ticks": 50688,
          "time": 47.425092,
          "velocity": 0.3937007874015748
        },
        {
          "duration": 2.424211122395839,
          "durationTicks": 2591,
          "midi": 76,
          "name": "E5",
          "ticks": 50688,
          "time": 47.425092,
          "velocity": 0.3937007874015748
        },
        {
          "duration": 0.17964050000000498,
          "durationTicks": 192,
          "midi": 52,
          "name": "E3",
          "ticks": 50688,
          "time": 47.425092,
          "velocity": 0.3937007874015748
        },
        {
          "duration": 0.17964050000000498,
          "durationTicks": 192,
          "midi": 47,
          "name": "B2",
          "ticks": 50688,
          "time": 47.425092,
          "velocity": 0.3937007874015748
        },
        {
          "duration": 0.17964050000000498,
          "durationTicks": 192,
          "midi": 47,
          "name": "B2",
          "ticks": 50976,
          "time": 47.69455275,
          "velocity": 0.3937007874015748
        },
        {
          "duration": 0.17964050000000498,
          "durationTicks": 192,
          "midi": 28,
          "name": "E1",
          "ticks": 50976,
          "time": 47.69455275,
          "velocity": 0.3937007874015748
        },
        {
          "duration": 0.17964050000000498,
          "durationTicks": 192,
          "midi": 52,
          "name": "E3",
          "ticks": 50976,
          "time": 47.69455275,
          "velocity": 0.3937007874015748
        },
        {
          "duration": 0.08982025000000249,
          "durationTicks": 96,
          "midi": 52,
          "name": "E3",
          "ticks": 51264,
          "time": 47.9640135,
          "velocity": 0.3937007874015748
        },
        {
          "duration": 0.08982025000000249,
          "durationTicks": 96,
          "midi": 47,
          "name": "B2",
          "ticks": 51264,
          "time": 47.9640135,
          "velocity": 0.3937007874015748
        },
        {
          "duration": 0.08982025000000249,
          "durationTicks": 96,
          "midi": 47,
          "name": "B2",
          "ticks": 51360,
          "time": 48.05383375,
          "velocity": 0.3937007874015748
        },
        {
          "duration": 0.08982025000000249,
          "durationTicks": 96,
          "midi": 52,
          "name": "E3",
          "ticks": 51360,
          "time": 48.05383375,
          "velocity": 0.3937007874015748
        },
        {
          "duration": 0.17964049999999787,
          "durationTicks": 192,
          "midi": 49,
          "name": "C#3",
          "ticks": 51456,
          "time": 48.143654000000005,
          "velocity": 0.3937007874015748
        },
        {
          "duration": 0.17964049999999787,
          "durationTicks": 192,
          "midi": 54,
          "name": "F#3",
          "ticks": 51456,
          "time": 48.143654000000005,
          "velocity": 0.3937007874015748
        },
        {
          "duration": 0.17964049999999787,
          "durationTicks": 192,
          "midi": 30,
          "name": "F#1",
          "ticks": 51456,
          "time": 48.143654000000005,
          "velocity": 0.3937007874015748
        },
        {
          "duration": 0.17964049999999787,
          "durationTicks": 192,
          "midi": 49,
          "name": "C#3",
          "ticks": 51744,
          "time": 48.413114750000005,
          "velocity": 0.3937007874015748
        },
        {
          "duration": 0.17964049999999787,
          "durationTicks": 192,
          "midi": 30,
          "name": "F#1",
          "ticks": 51744,
          "time": 48.413114750000005,
          "velocity": 0.3937007874015748
        },
        {
          "duration": 0.17964049999999787,
          "durationTicks": 192,
          "midi": 54,
          "name": "F#3",
          "ticks": 51744,
          "time": 48.413114750000005,
          "velocity": 0.3937007874015748
        },
        {
          "duration": 0.08982024999999538,
          "durationTicks": 96,
          "midi": 54,
          "name": "F#3",
          "ticks": 52032,
          "time": 48.682575500000006,
          "velocity": 0.3937007874015748
        },
        {
          "duration": 0.08982024999999538,
          "durationTicks": 96,
          "midi": 49,
          "name": "C#3",
          "ticks": 52032,
          "time": 48.682575500000006,
          "velocity": 0.3937007874015748
        },
        {
          "duration": 0.08982025000000249,
          "durationTicks": 96,
          "midi": 54,
          "name": "F#3",
          "ticks": 52128,
          "time": 48.77239575,
          "velocity": 0.3937007874015748
        },
        {
          "duration": 0.08982025000000249,
          "durationTicks": 96,
          "midi": 49,
          "name": "C#3",
          "ticks": 52128,
          "time": 48.77239575,
          "velocity": 0.3937007874015748
        },
        {
          "duration": 0.17964049999999787,
          "durationTicks": 192,
          "midi": 51,
          "name": "D#3",
          "ticks": 52224,
          "time": 48.862216000000004,
          "velocity": 0.3937007874015748
        },
        {
          "duration": 0.17964049999999787,
          "durationTicks": 192,
          "midi": 32,
          "name": "G#1",
          "ticks": 52224,
          "time": 48.862216000000004,
          "velocity": 0.3937007874015748
        },
        {
          "duration": 1.4352527447916614,
          "durationTicks": 1534,
          "midi": 64,
          "name": "E4",
          "ticks": 52224,
          "time": 48.862216000000004,
          "velocity": 0.3937007874015748
        },
        {
          "duration": 0.17964049999999787,
          "durationTicks": 192,
          "midi": 56,
          "name": "G#3",
          "ticks": 52224,
          "time": 48.862216000000004,
          "velocity": 0.3937007874015748
        },
        {
          "duration": 1.4352527447916614,
          "durationTicks": 1534,
          "midi": 59,
          "name": "B3",
          "ticks": 52224,
          "time": 48.862216000000004,
          "velocity": 0.3937007874015748
        },
        {
          "duration": 0.17964049999999787,
          "durationTicks": 192,
          "midi": 56,
          "name": "G#3",
          "ticks": 52480,
          "time": 49.10173666666667,
          "velocity": 0.3937007874015748
        },
        {
          "duration": 0.17964049999999787,
          "durationTicks": 192,
          "midi": 51,
          "name": "D#3",
          "ticks": 52480,
          "time": 49.10173666666667,
          "velocity": 0.3937007874015748
        },
        {
          "duration": 0.17964049999999787,
          "durationTicks": 192,
          "midi": 32,
          "name": "G#1",
          "ticks": 52480,
          "time": 49.10173666666667,
          "velocity": 0.3937007874015748
        },
        {
          "duration": 0.17964049999999787,
          "durationTicks": 192,
          "midi": 32,
          "name": "G#1",
          "ticks": 52735,
          "time": 49.34032170572917,
          "velocity": 0.3937007874015748
        },
        {
          "duration": 0.17964049999999787,
          "durationTicks": 192,
          "midi": 51,
          "name": "D#3",
          "ticks": 52735,
          "time": 49.34032170572917,
          "velocity": 0.3937007874015748
        },
        {
          "duration": 0.17964049999999787,
          "durationTicks": 192,
          "midi": 56,
          "name": "G#3",
          "ticks": 52735,
          "time": 49.34032170572917,
          "velocity": 0.3937007874015748
        },
        {
          "duration": 0.17964049999999787,
          "durationTicks": 192,
          "midi": 56,
          "name": "G#3",
          "ticks": 52991,
          "time": 49.57984237239584,
          "velocity": 0.3937007874015748
        },
        {
          "duration": 0.17964049999999787,
          "durationTicks": 192,
          "midi": 32,
          "name": "G#1",
          "ticks": 52991,
          "time": 49.57984237239584,
          "velocity": 0.3937007874015748
        },
        {
          "duration": 0.17964049999999787,
          "durationTicks": 192,
          "midi": 51,
          "name": "D#3",
          "ticks": 52991,
          "time": 49.57984237239584,
          "velocity": 0.3937007874015748
        },
        {
          "duration": 0.17964049999999787,
          "durationTicks": 192,
          "midi": 56,
          "name": "G#3",
          "ticks": 53247,
          "time": 49.8193630390625,
          "velocity": 0.3937007874015748
        },
        {
          "duration": 0.17964049999999787,
          "durationTicks": 192,
          "midi": 51,
          "name": "D#3",
          "ticks": 53247,
          "time": 49.8193630390625,
          "velocity": 0.3937007874015748
        },
        {
          "duration": 0.17964049999999787,
          "durationTicks": 192,
          "midi": 32,
          "name": "G#1",
          "ticks": 53247,
          "time": 49.8193630390625,
          "velocity": 0.3937007874015748
        },
        {
          "duration": 0.17964049999999787,
          "durationTicks": 192,
          "midi": 56,
          "name": "G#3",
          "ticks": 53502,
          "time": 50.057948078125,
          "velocity": 0.3937007874015748
        },
        {
          "duration": 0.17964049999999787,
          "durationTicks": 192,
          "midi": 32,
          "name": "G#1",
          "ticks": 53502,
          "time": 50.057948078125,
          "velocity": 0.3937007874015748
        },
        {
          "duration": 0.17964049999999787,
          "durationTicks": 192,
          "midi": 51,
          "name": "D#3",
          "ticks": 53502,
          "time": 50.057948078125,
          "velocity": 0.3937007874015748
        },
        {
          "duration": 0.08982025000000249,
          "durationTicks": 96,
          "midi": 56,
          "name": "G#3",
          "ticks": 53758,
          "time": 50.297468744791665,
          "velocity": 0.3937007874015748
        },
        {
          "duration": 0.08982025000000249,
          "durationTicks": 96,
          "midi": 59,
          "name": "B3",
          "ticks": 53758,
          "time": 50.297468744791665,
          "velocity": 0.3937007874015748
        },
        {
          "duration": 0.08982024999999538,
          "durationTicks": 96,
          "midi": 59,
          "name": "B3",
          "ticks": 53854,
          "time": 50.38728899479167,
          "velocity": 0.3937007874015748
        },
        {
          "duration": 0.08982024999999538,
          "durationTicks": 96,
          "midi": 56,
          "name": "G#3",
          "ticks": 53854,
          "time": 50.38728899479167,
          "velocity": 0.3937007874015748
        },
        {
          "duration": 0.08982025000000249,
          "durationTicks": 96,
          "midi": 59,
          "name": "B3",
          "ticks": 53950,
          "time": 50.47710924479166,
          "velocity": 0.3937007874015748
        },
        {
          "duration": 0.08982025000000249,
          "durationTicks": 96,
          "midi": 56,
          "name": "G#3",
          "ticks": 53950,
          "time": 50.47710924479166,
          "velocity": 0.3937007874015748
        },
        {
          "duration": 0.08982025000000249,
          "durationTicks": 96,
          "midi": 59,
          "name": "B3",
          "ticks": 54046,
          "time": 50.566929494791665,
          "velocity": 0.3937007874015748
        },
        {
          "duration": 0.08982025000000249,
          "durationTicks": 96,
          "midi": 56,
          "name": "G#3",
          "ticks": 54046,
          "time": 50.566929494791665,
          "velocity": 0.3937007874015748
        },
        {
          "duration": 0.08982024999999538,
          "durationTicks": 96,
          "midi": 59,
          "name": "B3",
          "ticks": 54142,
          "time": 50.65674974479167,
          "velocity": 0.3937007874015748
        },
        {
          "duration": 0.08982024999999538,
          "durationTicks": 96,
          "midi": 56,
          "name": "G#3",
          "ticks": 54142,
          "time": 50.65674974479167,
          "velocity": 0.3937007874015748
        },
        {
          "duration": 0.08982025000000249,
          "durationTicks": 96,
          "midi": 56,
          "name": "G#3",
          "ticks": 54238,
          "time": 50.74656999479166,
          "velocity": 0.3937007874015748
        },
        {
          "duration": 0.08982025000000249,
          "durationTicks": 96,
          "midi": 59,
          "name": "B3",
          "ticks": 54238,
          "time": 50.74656999479166,
          "velocity": 0.3937007874015748
        },
        {
          "duration": 0.08982025000000249,
          "durationTicks": 96,
          "midi": 59,
          "name": "B3",
          "ticks": 54334,
          "time": 50.836390244791666,
          "velocity": 0.3937007874015748
        },
        {
          "duration": 0.08982025000000249,
          "durationTicks": 96,
          "midi": 56,
          "name": "G#3",
          "ticks": 54334,
          "time": 50.836390244791666,
          "velocity": 0.3937007874015748
        },
        {
          "duration": 0.08982024999999538,
          "durationTicks": 96,
          "midi": 56,
          "name": "G#3",
          "ticks": 54430,
          "time": 50.92621049479167,
          "velocity": 0.3937007874015748
        },
        {
          "duration": 0.08982024999999538,
          "durationTicks": 96,
          "midi": 59,
          "name": "B3",
          "ticks": 54430,
          "time": 50.92621049479167,
          "velocity": 0.3937007874015748
        },
        {
          "duration": 0.08982025000000249,
          "durationTicks": 96,
          "midi": 56,
          "name": "G#3",
          "ticks": 54526,
          "time": 51.016030744791664,
          "velocity": 0.3937007874015748
        },
        {
          "duration": 0.08982025000000249,
          "durationTicks": 96,
          "midi": 59,
          "name": "B3",
          "ticks": 54526,
          "time": 51.016030744791664,
          "velocity": 0.3937007874015748
        },
        {
          "duration": 0.08982025000000249,
          "durationTicks": 96,
          "midi": 56,
          "name": "G#3",
          "ticks": 54622,
          "time": 51.105850994791666,
          "velocity": 0.3937007874015748
        },
        {
          "duration": 0.08982025000000249,
          "durationTicks": 96,
          "midi": 59,
          "name": "B3",
          "ticks": 54622,
          "time": 51.105850994791666,
          "velocity": 0.3937007874015748
        },
        {
          "duration": 0.08982024999999538,
          "durationTicks": 96,
          "midi": 56,
          "name": "G#3",
          "ticks": 54718,
          "time": 51.19567124479167,
          "velocity": 0.3937007874015748
        },
        {
          "duration": 0.08982024999999538,
          "durationTicks": 96,
          "midi": 59,
          "name": "B3",
          "ticks": 54718,
          "time": 51.19567124479167,
          "velocity": 0.3937007874015748
        },
        {
          "duration": 0.08982025000000249,
          "durationTicks": 96,
          "midi": 56,
          "name": "G#3",
          "ticks": 54814,
          "time": 51.285491494791664,
          "velocity": 0.3937007874015748
        },
        {
          "duration": 0.08982025000000249,
          "durationTicks": 96,
          "midi": 59,
          "name": "B3",
          "ticks": 54814,
          "time": 51.285491494791664,
          "velocity": 0.3937007874015748
        },
        {
          "duration": 0.08982025000000249,
          "durationTicks": 96,
          "midi": 59,
          "name": "B3",
          "ticks": 54910,
          "time": 51.37531174479167,
          "velocity": 0.3937007874015748
        },
        {
          "duration": 0.08982025000000249,
          "durationTicks": 96,
          "midi": 56,
          "name": "G#3",
          "ticks": 54910,
          "time": 51.37531174479167,
          "velocity": 0.3937007874015748
        },
        {
          "duration": 0.17964049999999787,
          "durationTicks": 192,
          "midi": 69,
          "name": "A4",
          "ticks": 55102,
          "time": 51.554952244791664,
          "velocity": 0.3937007874015748
        },
        {
          "duration": 0.17964049999999787,
          "durationTicks": 192,
          "midi": 64,
          "name": "E4",
          "ticks": 55102,
          "time": 51.554952244791664,
          "velocity": 0.3937007874015748
        },
        {
          "duration": 2.6946075000000036,
          "durationTicks": 2880,
          "midi": 57,
          "name": "A3",
          "ticks": 55294,
          "time": 51.73459274479166,
          "velocity": 0.3937007874015748
        },
        {
          "duration": 0.17964050000000498,
          "durationTicks": 192,
          "midi": 71,
          "name": "B4",
          "ticks": 55294,
          "time": 51.73459274479166,
          "velocity": 0.3937007874015748
        },
        {
          "duration": 0.35928100000000285,
          "durationTicks": 384,
          "midi": 72,
          "name": "C5",
          "ticks": 55294,
          "time": 51.73459274479166,
          "velocity": 0.3937007874015748
        },
        {
          "duration": 0.17964050000000498,
          "durationTicks": 192,
          "midi": 67,
          "name": "G4",
          "ticks": 55294,
          "time": 51.73459274479166,
          "velocity": 0.3937007874015748
        },
        {
          "duration": 0.17964050000000498,
          "durationTicks": 192,
          "midi": 33,
          "name": "A1",
          "ticks": 55294,
          "time": 51.73459274479166,
          "velocity": 0.3937007874015748
        },
        {
          "duration": 2.6946075000000036,
          "durationTicks": 2880,
          "midi": 52,
          "name": "E3",
          "ticks": 55294,
          "time": 51.73459274479166,
          "velocity": 0.3937007874015748
        },
        {
          "duration": 0.8982024999999965,
          "durationTicks": 960,
          "midi": 72,
          "name": "C5",
          "ticks": 55486,
          "time": 51.91423324479167,
          "velocity": 0.3937007874015748
        },
        {
          "duration": 0.17964049999999787,
          "durationTicks": 192,
          "midi": 33,
          "name": "A1",
          "ticks": 55486,
          "time": 51.91423324479167,
          "velocity": 0.3937007874015748
        },
        {
          "duration": 0.17964049999999787,
          "durationTicks": 192,
          "midi": 69,
          "name": "A4",
          "ticks": 55486,
          "time": 51.91423324479167,
          "velocity": 0.3937007874015748
        },
        {
          "duration": 0.17964049999999787,
          "durationTicks": 192,
          "midi": 33,
          "name": "A1",
          "ticks": 55678,
          "time": 52.093873744791665,
          "velocity": 0.3937007874015748
        },
        {
          "duration": 0.17964050000000498,
          "durationTicks": 192,
          "midi": 69,
          "name": "A4",
          "ticks": 55870,
          "time": 52.27351424479166,
          "velocity": 0.3937007874015748
        },
        {
          "duration": 0.17964050000000498,
          "durationTicks": 192,
          "midi": 33,
          "name": "A1",
          "ticks": 55870,
          "time": 52.27351424479166,
          "velocity": 0.3937007874015748
        },
        {
          "duration": 0.17964050000000498,
          "durationTicks": 192,
          "midi": 64,
          "name": "E4",
          "ticks": 55870,
          "time": 52.27351424479166,
          "velocity": 0.3937007874015748
        },
        {
          "duration": 0.17964049999999787,
          "durationTicks": 192,
          "midi": 33,
          "name": "A1",
          "ticks": 56062,
          "time": 52.45315474479167,
          "velocity": 0.3937007874015748
        },
        {
          "duration": 0.17964049999999787,
          "durationTicks": 192,
          "midi": 67,
          "name": "G4",
          "ticks": 56062,
          "time": 52.45315474479167,
          "velocity": 0.3937007874015748
        },
        {
          "duration": 0.17964049999999787,
          "durationTicks": 192,
          "midi": 71,
          "name": "B4",
          "ticks": 56062,
          "time": 52.45315474479167,
          "velocity": 0.3937007874015748
        },
        {
          "duration": 0.17964049999999787,
          "durationTicks": 192,
          "midi": 69,
          "name": "A4",
          "ticks": 56254,
          "time": 52.632795244791666,
          "velocity": 0.3937007874015748
        },
        {
          "duration": 0.17964049999999787,
          "durationTicks": 192,
          "midi": 33,
          "name": "A1",
          "ticks": 56254,
          "time": 52.632795244791666,
          "velocity": 0.3937007874015748
        },
        {
          "duration": 0.5389215000000007,
          "durationTicks": 576,
          "midi": 72,
          "name": "C5",
          "ticks": 56254,
          "time": 52.632795244791666,
          "velocity": 0.3937007874015748
        },
        {
          "duration": 0.17964050000000498,
          "durationTicks": 192,
          "midi": 33,
          "name": "A1",
          "ticks": 56446,
          "time": 52.812435744791664,
          "velocity": 0.3937007874015748
        },
        {
          "duration": 0.17964049999999787,
          "durationTicks": 192,
          "midi": 64,
          "name": "E4",
          "ticks": 56638,
          "time": 52.99207624479167,
          "velocity": 0.3937007874015748
        },
        {
          "duration": 0.17964049999999787,
          "durationTicks": 192,
          "midi": 69,
          "name": "A4",
          "ticks": 56638,
          "time": 52.99207624479167,
          "velocity": 0.3937007874015748
        },
        {
          "duration": 0.17964049999999787,
          "durationTicks": 192,
          "midi": 33,
          "name": "A1",
          "ticks": 56638,
          "time": 52.99207624479167,
          "velocity": 0.3937007874015748
        },
        {
          "duration": 0.17964049999999787,
          "durationTicks": 192,
          "midi": 67,
          "name": "G4",
          "ticks": 56830,
          "time": 53.17171674479167,
          "velocity": 0.3937007874015748
        },
        {
          "duration": 0.17964049999999787,
          "durationTicks": 192,
          "midi": 71,
          "name": "B4",
          "ticks": 56830,
          "time": 53.17171674479167,
          "velocity": 0.3937007874015748
        },
        {
          "duration": 0.17964049999999787,
          "durationTicks": 192,
          "midi": 33,
          "name": "A1",
          "ticks": 56830,
          "time": 53.17171674479167,
          "velocity": 0.3937007874015748
        },
        {
          "duration": 0.35928099999999574,
          "durationTicks": 384,
          "midi": 72,
          "name": "C5",
          "ticks": 56830,
          "time": 53.17171674479167,
          "velocity": 0.3937007874015748
        },
        {
          "duration": 0.17964049999999787,
          "durationTicks": 192,
          "midi": 69,
          "name": "A4",
          "ticks": 57022,
          "time": 53.351357244791664,
          "velocity": 0.3937007874015748
        },
        {
          "duration": 0.17964049999999787,
          "durationTicks": 192,
          "midi": 33,
          "name": "A1",
          "ticks": 57022,
          "time": 53.351357244791664,
          "velocity": 0.3937007874015748
        },
        {
          "duration": 0.17964049999999787,
          "durationTicks": 192,
          "midi": 72,
          "name": "C5",
          "ticks": 57022,
          "time": 53.351357244791664,
          "velocity": 0.3937007874015748
        },
        {
          "duration": 0.17964050000000498,
          "durationTicks": 192,
          "midi": 33,
          "name": "A1",
          "ticks": 57214,
          "time": 53.53099774479166,
          "velocity": 0.3937007874015748
        },
        {
          "duration": 0.17964050000000498,
          "durationTicks": 192,
          "midi": 71,
          "name": "B4",
          "ticks": 57214,
          "time": 53.53099774479166,
          "velocity": 0.3937007874015748
        },
        {
          "duration": 0.17964049999999787,
          "durationTicks": 192,
          "midi": 33,
          "name": "A1",
          "ticks": 57406,
          "time": 53.71063824479167,
          "velocity": 0.3937007874015748
        },
        {
          "duration": 0.17964049999999787,
          "durationTicks": 192,
          "midi": 69,
          "name": "A4",
          "ticks": 57406,
          "time": 53.71063824479167,
          "velocity": 0.3937007874015748
        },
        {
          "duration": 0.35928100000000285,
          "durationTicks": 384,
          "midi": 64,
          "name": "E4",
          "ticks": 57598,
          "time": 53.890278744791665,
          "velocity": 0.3937007874015748
        },
        {
          "duration": 0.35928100000000285,
          "durationTicks": 384,
          "midi": 69,
          "name": "A4",
          "ticks": 57598,
          "time": 53.890278744791665,
          "velocity": 0.3937007874015748
        },
        {
          "duration": 0.6287417500000032,
          "durationTicks": 672,
          "midi": 69,
          "name": "A4",
          "ticks": 57598,
          "time": 53.890278744791665,
          "velocity": 0.3937007874015748
        },
        {
          "duration": 0.17964049999999787,
          "durationTicks": 192,
          "midi": 33,
          "name": "A1",
          "ticks": 57598,
          "time": 53.890278744791665,
          "velocity": 0.3937007874015748
        },
        {
          "duration": 0.17964050000000498,
          "durationTicks": 192,
          "midi": 33,
          "name": "A1",
          "ticks": 57790,
          "time": 54.06991924479166,
          "velocity": 0.3937007874015748
        },
        {
          "duration": 0.35928099999999574,
          "durationTicks": 384,
          "midi": 72,
          "name": "C5",
          "ticks": 57982,
          "time": 54.24955974479167,
          "velocity": 0.3937007874015748
        },
        {
          "duration": 0.17964049999999787,
          "durationTicks": 192,
          "midi": 33,
          "name": "A1",
          "ticks": 57982,
          "time": 54.24955974479167,
          "velocity": 0.3937007874015748
        },
        {
          "duration": 0.35928099999999574,
          "durationTicks": 384,
          "midi": 76,
          "name": "E5",
          "ticks": 57982,
          "time": 54.24955974479167,
          "velocity": 0.3937007874015748
        },
        {
          "duration": 0.17964049999999787,
          "durationTicks": 192,
          "midi": 33,
          "name": "A1",
          "ticks": 58174,
          "time": 54.429200244791666,
          "velocity": 0.3937007874015748
        },
        {
          "duration": 2.6946075000000036,
          "durationTicks": 2880,
          "midi": 53,
          "name": "F3",
          "ticks": 58366,
          "time": 54.608840744791664,
          "velocity": 0.3937007874015748
        },
        {
          "duration": 0.8982025000000036,
          "durationTicks": 960,
          "midi": 76,
          "name": "E5",
          "ticks": 58366,
          "time": 54.608840744791664,
          "velocity": 0.3937007874015748
        },
        {
          "duration": 0.8982025000000036,
          "durationTicks": 960,
          "midi": 72,
          "name": "C5",
          "ticks": 58366,
          "time": 54.608840744791664,
          "velocity": 0.3937007874015748
        },
        {
          "duration": 0.17964050000000498,
          "durationTicks": 192,
          "midi": 29,
          "name": "F1",
          "ticks": 58366,
          "time": 54.608840744791664,
          "velocity": 0.3937007874015748
        },
        {
          "duration": 2.6946075000000036,
          "durationTicks": 2880,
          "midi": 48,
          "name": "C3",
          "ticks": 58366,
          "time": 54.608840744791664,
          "velocity": 0.3937007874015748
        },
        {
          "duration": 1.2574834999999993,
          "durationTicks": 1344,
          "midi": 72,
          "name": "C5",
          "ticks": 58366,
          "time": 54.608840744791664,
          "velocity": 0.3937007874015748
        },
        {
          "duration": 0.17964049999999787,
          "durationTicks": 192,
          "midi": 29,
          "name": "F1",
          "ticks": 58558,
          "time": 54.78848124479167,
          "velocity": 0.3937007874015748
        },
        {
          "duration": 0.17964049999999787,
          "durationTicks": 192,
          "midi": 29,
          "name": "F1",
          "ticks": 58750,
          "time": 54.96812174479167,
          "velocity": 0.3937007874015748
        },
        {
          "duration": 0.17964050000000498,
          "durationTicks": 192,
          "midi": 29,
          "name": "F1",
          "ticks": 58942,
          "time": 55.147762244791664,
          "velocity": 0.3937007874015748
        },
        {
          "duration": 0.17964049999999787,
          "durationTicks": 192,
          "midi": 29,
          "name": "F1",
          "ticks": 59134,
          "time": 55.32740274479167,
          "velocity": 0.3937007874015748
        },
        {
          "duration": 0.17964049999999787,
          "durationTicks": 192,
          "midi": 74,
          "name": "D5",
          "ticks": 59326,
          "time": 55.50704324479167,
          "velocity": 0.3937007874015748
        },
        {
          "duration": 0.17964049999999787,
          "durationTicks": 192,
          "midi": 71,
          "name": "B4",
          "ticks": 59326,
          "time": 55.50704324479167,
          "velocity": 0.3937007874015748
        },
        {
          "duration": 0.17964049999999787,
          "durationTicks": 192,
          "midi": 29,
          "name": "F1",
          "ticks": 59326,
          "time": 55.50704324479167,
          "velocity": 0.3937007874015748
        },
        {
          "duration": 0.17964049999999787,
          "durationTicks": 192,
          "midi": 69,
          "name": "A4",
          "ticks": 59518,
          "time": 55.686683744791665,
          "velocity": 0.3937007874015748
        },
        {
          "duration": 0.17964049999999787,
          "durationTicks": 192,
          "midi": 72,
          "name": "C5",
          "ticks": 59518,
          "time": 55.686683744791665,
          "velocity": 0.3937007874015748
        },
        {
          "duration": 0.17964049999999787,
          "durationTicks": 192,
          "midi": 29,
          "name": "F1",
          "ticks": 59518,
          "time": 55.686683744791665,
          "velocity": 0.3937007874015748
        },
        {
          "duration": 1.167663250000004,
          "durationTicks": 1248,
          "midi": 71,
          "name": "B4",
          "ticks": 59710,
          "time": 55.86632424479166,
          "velocity": 0.3937007874015748
        },
        {
          "duration": 0.17964050000000498,
          "durationTicks": 192,
          "midi": 29,
          "name": "F1",
          "ticks": 59710,
          "time": 55.86632424479166,
          "velocity": 0.3937007874015748
        },
        {
          "duration": 1.167663250000004,
          "durationTicks": 1248,
          "midi": 74,
          "name": "D5",
          "ticks": 59710,
          "time": 55.86632424479166,
          "velocity": 0.3937007874015748
        },
        {
          "duration": 1.2574834999999993,
          "durationTicks": 1344,
          "midi": 71,
          "name": "B4",
          "ticks": 59902,
          "time": 56.04596474479167,
          "velocity": 0.3937007874015748
        },
        {
          "duration": 0.17964049999999787,
          "durationTicks": 192,
          "midi": 29,
          "name": "F1",
          "ticks": 59902,
          "time": 56.04596474479167,
          "velocity": 0.3937007874015748
        },
        {
          "duration": 0.17964049999999787,
          "durationTicks": 192,
          "midi": 29,
          "name": "F1",
          "ticks": 60094,
          "time": 56.225605244791666,
          "velocity": 0.3937007874015748
        },
        {
          "duration": 0.17964050000000498,
          "durationTicks": 192,
          "midi": 29,
          "name": "F1",
          "ticks": 60286,
          "time": 56.405245744791664,
          "velocity": 0.3937007874015748
        },
        {
          "duration": 0.17964049999999787,
          "durationTicks": 192,
          "midi": 29,
          "name": "F1",
          "ticks": 60478,
          "time": 56.58488624479167,
          "velocity": 0.3937007874015748
        },
        {
          "duration": 0.17964049999999787,
          "durationTicks": 192,
          "midi": 29,
          "name": "F1",
          "ticks": 60670,
          "time": 56.76452674479167,
          "velocity": 0.3937007874015748
        },
        {
          "duration": 0.17964050000000498,
          "durationTicks": 192,
          "midi": 29,
          "name": "F1",
          "ticks": 60862,
          "time": 56.944167244791664,
          "velocity": 0.3937007874015748
        },
        {
          "duration": 0.17964049999999787,
          "durationTicks": 192,
          "midi": 29,
          "name": "F1",
          "ticks": 61054,
          "time": 57.12380774479167,
          "velocity": 0.3937007874015748
        },
        {
          "duration": 0.17964049999999787,
          "durationTicks": 192,
          "midi": 29,
          "name": "F1",
          "ticks": 61246,
          "time": 57.30344824479167,
          "velocity": 0.3937007874015748
        },
        {
          "duration": 0.08982024999999538,
          "durationTicks": 96,
          "midi": 67,
          "name": "G4",
          "ticks": 61246,
          "time": 57.30344824479167,
          "velocity": 0.3937007874015748
        },
        {
          "duration": 0.08982024999999538,
          "durationTicks": 96,
          "midi": 62,
          "name": "D4",
          "ticks": 61246,
          "time": 57.30344824479167,
          "velocity": 0.3937007874015748
        },
        {
          "duration": 2.6946075000000036,
          "durationTicks": 2880,
          "midi": 55,
          "name": "G3",
          "ticks": 61438,
          "time": 57.483088744791665,
          "velocity": 0.3937007874015748
        },
        {
          "duration": 0.44910124999999823,
          "durationTicks": 480,
          "midi": 71,
          "name": "B4",
          "ticks": 61438,
          "time": 57.483088744791665,
          "velocity": 0.3937007874015748
        },
        {
          "duration": 2.6946075000000036,
          "durationTicks": 2880,
          "midi": 50,
          "name": "D3",
          "ticks": 61438,
          "time": 57.483088744791665,
          "velocity": 0.3937007874015748
        },
        {
          "duration": 0.44910124999999823,
          "durationTicks": 480,
          "midi": 67,
          "name": "G4",
          "ticks": 61438,
          "time": 57.483088744791665,
          "velocity": 0.3937007874015748
        },
        {
          "duration": 0.17964049999999787,
          "durationTicks": 192,
          "midi": 31,
          "name": "G1",
          "ticks": 61438,
          "time": 57.483088744791665,
          "velocity": 0.3937007874015748
        },
        {
          "duration": 1.2574834999999993,
          "durationTicks": 1344,
          "midi": 74,
          "name": "D5",
          "ticks": 61438,
          "time": 57.483088744791665,
          "velocity": 0.3937007874015748
        },
        {
          "duration": 0.17964050000000498,
          "durationTicks": 192,
          "midi": 31,
          "name": "G1",
          "ticks": 61630,
          "time": 57.66272924479166,
          "velocity": 0.3937007874015748
        },
        {
          "duration": 0.17964049999999787,
          "durationTicks": 192,
          "midi": 31,
          "name": "G1",
          "ticks": 61822,
          "time": 57.84236974479167,
          "velocity": 0.3937007874015748
        },
        {
          "duration": 0.08982025000000249,
          "durationTicks": 96,
          "midi": 62,
          "name": "D4",
          "ticks": 62014,
          "time": 58.022010244791666,
          "velocity": 0.3937007874015748
        },
        {
          "duration": 0.08982025000000249,
          "durationTicks": 96,
          "midi": 67,
          "name": "G4",
          "ticks": 62014,
          "time": 58.022010244791666,
          "velocity": 0.3937007874015748
        },
        {
          "duration": 0.17964049999999787,
          "durationTicks": 192,
          "midi": 31,
          "name": "G1",
          "ticks": 62014,
          "time": 58.022010244791666,
          "velocity": 0.3937007874015748
        },
        {
          "duration": 0.44910125000000534,
          "durationTicks": 480,
          "midi": 71,
          "name": "B4",
          "ticks": 62206,
          "time": 58.201650744791664,
          "velocity": 0.3937007874015748
        },
        {
          "duration": 0.17964050000000498,
          "durationTicks": 192,
          "midi": 31,
          "name": "G1",
          "ticks": 62206,
          "time": 58.201650744791664,
          "velocity": 0.3937007874015748
        },
        {
          "duration": 0.44910125000000534,
          "durationTicks": 480,
          "midi": 67,
          "name": "G4",
          "ticks": 62206,
          "time": 58.201650744791664,
          "velocity": 0.3937007874015748
        },
        {
          "duration": 0.17964049999999787,
          "durationTicks": 192,
          "midi": 31,
          "name": "G1",
          "ticks": 62398,
          "time": 58.38129124479167,
          "velocity": 0.3937007874015748
        },
        {
          "duration": 0.17964049999999787,
          "durationTicks": 192,
          "midi": 31,
          "name": "G1",
          "ticks": 62590,
          "time": 58.56093174479167,
          "velocity": 0.3937007874015748
        },
        {
          "duration": 0.08982025000000249,
          "durationTicks": 96,
          "midi": 62,
          "name": "D4",
          "ticks": 62782,
          "time": 58.740572244791665,
          "velocity": 0.3937007874015748
        },
        {
          "duration": 0.08982025000000249,
          "durationTicks": 96,
          "midi": 67,
          "name": "G4",
          "ticks": 62782,
          "time": 58.740572244791665,
          "velocity": 0.3937007874015748
        },
        {
          "duration": 0.17964050000000498,
          "durationTicks": 192,
          "midi": 31,
          "name": "G1",
          "ticks": 62782,
          "time": 58.740572244791665,
          "velocity": 0.3937007874015748
        },
        {
          "duration": 0.44910124999999823,
          "durationTicks": 480,
          "midi": 71,
          "name": "B4",
          "ticks": 62974,
          "time": 58.92021274479167,
          "velocity": 0.3937007874015748
        },
        {
          "duration": 0.44910124999999823,
          "durationTicks": 480,
          "midi": 67,
          "name": "G4",
          "ticks": 62974,
          "time": 58.92021274479167,
          "velocity": 0.3937007874015748
        },
        {
          "duration": 0.6287417499999961,
          "durationTicks": 672,
          "midi": 74,
          "name": "D5",
          "ticks": 62974,
          "time": 58.92021274479167,
          "velocity": 0.3937007874015748
        },
        {
          "duration": 0.17964049999999787,
          "durationTicks": 192,
          "midi": 31,
          "name": "G1",
          "ticks": 62974,
          "time": 58.92021274479167,
          "velocity": 0.3937007874015748
        },
        {
          "duration": 0.17964049999999787,
          "durationTicks": 192,
          "midi": 31,
          "name": "G1",
          "ticks": 63166,
          "time": 59.09985324479167,
          "velocity": 0.3937007874015748
        },
        {
          "duration": 0.17964049999999787,
          "durationTicks": 192,
          "midi": 31,
          "name": "G1",
          "ticks": 63358,
          "time": 59.279493744791665,
          "velocity": 0.3937007874015748
        },
        {
          "duration": 0.17964050000000498,
          "durationTicks": 192,
          "midi": 31,
          "name": "G1",
          "ticks": 63550,
          "time": 59.45913424479166,
          "velocity": 0.3937007874015748
        },
        {
          "duration": 0.35928099999999574,
          "durationTicks": 384,
          "midi": 67,
          "name": "G4",
          "ticks": 63742,
          "time": 59.63877474479167,
          "velocity": 0.3937007874015748
        },
        {
          "duration": 0.6287417499999961,
          "durationTicks": 672,
          "midi": 71,
          "name": "B4",
          "ticks": 63742,
          "time": 59.63877474479167,
          "velocity": 0.3937007874015748
        },
        {
          "duration": 0.35928099999999574,
          "durationTicks": 384,
          "midi": 62,
          "name": "D4",
          "ticks": 63742,
          "time": 59.63877474479167,
          "velocity": 0.3937007874015748
        },
        {
          "duration": 0.17964049999999787,
          "durationTicks": 192,
          "midi": 31,
          "name": "G1",
          "ticks": 63742,
          "time": 59.63877474479167,
          "velocity": 0.3937007874015748
        },
        {
          "duration": 0.17964049999999787,
          "durationTicks": 192,
          "midi": 31,
          "name": "G1",
          "ticks": 63934,
          "time": 59.818415244791666,
          "velocity": 0.3937007874015748
        },
        {
          "duration": 0.17964050000000498,
          "durationTicks": 192,
          "midi": 31,
          "name": "G1",
          "ticks": 64126,
          "time": 59.998055744791664,
          "velocity": 0.3937007874015748
        },
        {
          "duration": 0.35928100000000285,
          "durationTicks": 384,
          "midi": 67,
          "name": "G4",
          "ticks": 64126,
          "time": 59.998055744791664,
          "velocity": 0.3937007874015748
        },
        {
          "duration": 0.35928100000000285,
          "durationTicks": 384,
          "midi": 74,
          "name": "D5",
          "ticks": 64126,
          "time": 59.998055744791664,
          "velocity": 0.3937007874015748
        },
        {
          "duration": 0.17964049999999787,
          "durationTicks": 192,
          "midi": 31,
          "name": "G1",
          "ticks": 64318,
          "time": 60.17769624479167,
          "velocity": 0.3937007874015748
        },
        {
          "duration": 0.8982024999999965,
          "durationTicks": 960,
          "midi": 71,
          "name": "B4",
          "ticks": 64510,
          "time": 60.35733674479167,
          "velocity": 0.3937007874015748
        },
        {
          "duration": 1.2574834999999993,
          "durationTicks": 1344,
          "midi": 59,
          "name": "B3",
          "ticks": 64510,
          "time": 60.35733674479167,
          "velocity": 0.3937007874015748
        },
        {
          "duration": 1.2574834999999993,
          "durationTicks": 1344,
          "midi": 54,
          "name": "F#3",
          "ticks": 64510,
          "time": 60.35733674479167,
          "velocity": 0.3937007874015748
        },
        {
          "duration": 0.8982024999999965,
          "durationTicks": 960,
          "midi": 77,
          "name": "F5",
          "ticks": 64510,
          "time": 60.35733674479167,
          "velocity": 0.3937007874015748
        },
        {
          "duration": 0.17964049999999787,
          "durationTicks": 192,
          "midi": 35,
          "name": "B1",
          "ticks": 64510,
          "time": 60.35733674479167,
          "velocity": 0.3937007874015748
        },
        {
          "duration": 1.2574834999999993,
          "durationTicks": 1344,
          "midi": 77,
          "name": "F5",
          "ticks": 64510,
          "time": 60.35733674479167,
          "velocity": 0.3937007874015748
        },
        {
          "duration": 0.17964050000000498,
          "durationTicks": 192,
          "midi": 35,
          "name": "B1",
          "ticks": 64702,
          "time": 60.536977244791665,
          "velocity": 0.3937007874015748
        },
        {
          "duration": 0.17964049999999787,
          "durationTicks": 192,
          "midi": 35,
          "name": "B1",
          "ticks": 64894,
          "time": 60.71661774479167,
          "velocity": 0.3937007874015748
        },
        {
          "duration": 0.17964049999999787,
          "durationTicks": 192,
          "midi": 35,
          "name": "B1",
          "ticks": 65086,
          "time": 60.89625824479167,
          "velocity": 0.3937007874015748
        },
        {
          "duration": 0.17964049999999787,
          "durationTicks": 192,
          "midi": 35,
          "name": "B1",
          "ticks": 65278,
          "time": 61.075898744791665,
          "velocity": 0.3937007874015748
        },
        {
          "duration": 0.17964050000000498,
          "durationTicks": 192,
          "midi": 74,
          "name": "D5",
          "ticks": 65470,
          "time": 61.25553924479166,
          "velocity": 0.3937007874015748
        },
        {
          "duration": 0.17964050000000498,
          "durationTicks": 192,
          "midi": 35,
          "name": "B1",
          "ticks": 65470,
          "time": 61.25553924479166,
          "velocity": 0.3937007874015748
        },
        {
          "duration": 0.17964050000000498,
          "durationTicks": 192,
          "midi": 79,
          "name": "G5",
          "ticks": 65470,
          "time": 61.25553924479166,
          "velocity": 0.3937007874015748
        },
        {
          "duration": 0.17964049999999787,
          "durationTicks": 192,
          "midi": 72,
          "name": "C5",
          "ticks": 65662,
          "time": 61.43517974479167,
          "velocity": 0.3937007874015748
        },
        {
          "duration": 0.17964049999999787,
          "durationTicks": 192,
          "midi": 35,
          "name": "B1",
          "ticks": 65662,
          "time": 61.43517974479167,
          "velocity": 0.3937007874015748
        },
        {
          "duration": 0.17964049999999787,
          "durationTicks": 192,
          "midi": 77,
          "name": "F5",
          "ticks": 65662,
          "time": 61.43517974479167,
          "velocity": 0.3937007874015748
        },
        {
          "duration": 0.17964049999999787,
          "durationTicks": 192,
          "midi": 35,
          "name": "B1",
          "ticks": 65854,
          "time": 61.614820244791666,
          "velocity": 0.3937007874015748
        },
        {
          "duration": 0.8083822500000011,
          "durationTicks": 864,
          "midi": 71,
          "name": "B4",
          "ticks": 65854,
          "time": 61.614820244791666,
          "velocity": 0.3937007874015748
        },
        {
          "duration": 0.8083822500000011,
          "durationTicks": 864,
          "midi": 76,
          "name": "E5",
          "ticks": 65854,
          "time": 61.614820244791666,
          "velocity": 0.3937007874015748
        },
        {
          "duration": 0.17964050000000498,
          "durationTicks": 192,
          "midi": 53,
          "name": "F3",
          "ticks": 66046,
          "time": 61.794460744791664,
          "velocity": 0.3937007874015748
        },
        {
          "duration": 0.17964050000000498,
          "durationTicks": 192,
          "midi": 29,
          "name": "F1",
          "ticks": 66046,
          "time": 61.794460744791664,
          "velocity": 0.3937007874015748
        },
        {
          "duration": 0.17964050000000498,
          "durationTicks": 192,
          "midi": 48,
          "name": "C3",
          "ticks": 66046,
          "time": 61.794460744791664,
          "velocity": 0.3937007874015748
        },
        {
          "duration": 0.17964050000000498,
          "durationTicks": 192,
          "midi": 65,
          "name": "F4",
          "ticks": 66046,
          "time": 61.794460744791664,
          "velocity": 0.3937007874015748
        },
        {
          "duration": 0.17964049999999787,
          "durationTicks": 192,
          "midi": 47,
          "name": "B2",
          "ticks": 66238,
          "time": 61.97410124479167,
          "velocity": 0.3937007874015748
        },
        {
          "duration": 0.17964049999999787,
          "durationTicks": 192,
          "midi": 64,
          "name": "E4",
          "ticks": 66238,
          "time": 61.97410124479167,
          "velocity": 0.3937007874015748
        },
        {
          "duration": 0.17964049999999787,
          "durationTicks": 192,
          "midi": 28,
          "name": "E1",
          "ticks": 66238,
          "time": 61.97410124479167,
          "velocity": 0.3937007874015748
        },
        {
          "duration": 0.17964049999999787,
          "durationTicks": 192,
          "midi": 52,
          "name": "E3",
          "ticks": 66238,
          "time": 61.97410124479167,
          "velocity": 0.3937007874015748
        },
        {
          "duration": 0.17964050000000498,
          "durationTicks": 192,
          "midi": 29,
          "name": "F1",
          "ticks": 66622,
          "time": 62.333382244791665,
          "velocity": 0.3937007874015748
        },
        {
          "duration": 0.17964050000000498,
          "durationTicks": 192,
          "midi": 48,
          "name": "C3",
          "ticks": 66622,
          "time": 62.333382244791665,
          "velocity": 0.3937007874015748
        },
        {
          "duration": 0.17964050000000498,
          "durationTicks": 192,
          "midi": 53,
          "name": "F3",
          "ticks": 66622,
          "time": 62.333382244791665,
          "velocity": 0.3937007874015748
        },
        {
          "duration": 0.17964050000000498,
          "durationTicks": 192,
          "midi": 65,
          "name": "F4",
          "ticks": 66622,
          "time": 62.333382244791665,
          "velocity": 0.3937007874015748
        },
        {
          "duration": 0.17964049999999787,
          "durationTicks": 192,
          "midi": 64,
          "name": "E4",
          "ticks": 66814,
          "time": 62.51302274479167,
          "velocity": 0.3937007874015748
        },
        {
          "duration": 0.17964049999999787,
          "durationTicks": 192,
          "midi": 52,
          "name": "E3",
          "ticks": 66814,
          "time": 62.51302274479167,
          "velocity": 0.3937007874015748
        },
        {
          "duration": 0.17964049999999787,
          "durationTicks": 192,
          "midi": 28,
          "name": "E1",
          "ticks": 66814,
          "time": 62.51302274479167,
          "velocity": 0.3937007874015748
        },
        {
          "duration": 0.17964049999999787,
          "durationTicks": 192,
          "midi": 47,
          "name": "B2",
          "ticks": 66814,
          "time": 62.51302274479167,
          "velocity": 0.3937007874015748
        },
        {
          "duration": 0.17964049999999787,
          "durationTicks": 192,
          "midi": 65,
          "name": "F4",
          "ticks": 67198,
          "time": 62.872303744791665,
          "velocity": 0.3937007874015748
        },
        {
          "duration": 0.17964049999999787,
          "durationTicks": 192,
          "midi": 53,
          "name": "F3",
          "ticks": 67198,
          "time": 62.872303744791665,
          "velocity": 0.3937007874015748
        },
        {
          "duration": 0.17964049999999787,
          "durationTicks": 192,
          "midi": 29,
          "name": "F1",
          "ticks": 67198,
          "time": 62.872303744791665,
          "velocity": 0.3937007874015748
        },
        {
          "duration": 0.17964049999999787,
          "durationTicks": 192,
          "midi": 48,
          "name": "C3",
          "ticks": 67198,
          "time": 62.872303744791665,
          "velocity": 0.3937007874015748
        },
        {
          "duration": 0.17964050000000498,
          "durationTicks": 192,
          "midi": 64,
          "name": "E4",
          "ticks": 67390,
          "time": 63.05194424479166,
          "velocity": 0.3937007874015748
        },
        {
          "duration": 0.17964050000000498,
          "durationTicks": 192,
          "midi": 47,
          "name": "B2",
          "ticks": 67390,
          "time": 63.05194424479166,
          "velocity": 0.3937007874015748
        },
        {
          "duration": 0.17964050000000498,
          "durationTicks": 192,
          "midi": 69,
          "name": "A4",
          "ticks": 67390,
          "time": 63.05194424479166,
          "velocity": 0.3937007874015748
        },
        {
          "duration": 0.17964050000000498,
          "durationTicks": 192,
          "midi": 52,
          "name": "E3",
          "ticks": 67390,
          "time": 63.05194424479166,
          "velocity": 0.3937007874015748
        },
        {
          "duration": 0.17964050000000498,
          "durationTicks": 192,
          "midi": 64,
          "name": "E4",
          "ticks": 67390,
          "time": 63.05194424479166,
          "velocity": 0.3937007874015748
        },
        {
          "duration": 0.17964050000000498,
          "durationTicks": 192,
          "midi": 28,
          "name": "E1",
          "ticks": 67390,
          "time": 63.05194424479166,
          "velocity": 0.3937007874015748
        },
        {
          "duration": 0.17964049999999787,
          "durationTicks": 192,
          "midi": 67,
          "name": "G4",
          "ticks": 67582,
          "time": 63.23158474479167,
          "velocity": 0.3937007874015748
        },
        {
          "duration": 0.17964049999999787,
          "durationTicks": 192,
          "midi": 71,
          "name": "B4",
          "ticks": 67582,
          "time": 63.23158474479167,
          "velocity": 0.3937007874015748
        },
        {
          "duration": 0.35928099999999574,
          "durationTicks": 384,
          "midi": 72,
          "name": "C5",
          "ticks": 67582,
          "time": 63.23158474479167,
          "velocity": 0.3937007874015748
        },
        {
          "duration": 0.17964049999999787,
          "durationTicks": 192,
          "midi": 33,
          "name": "A1",
          "ticks": 67582,
          "time": 63.23158474479167,
          "velocity": 0.3937007874015748
        },
        {
          "duration": 1.2574834999999993,
          "durationTicks": 1344,
          "midi": 57,
          "name": "A3",
          "ticks": 67582,
          "time": 63.23158474479167,
          "velocity": 0.3937007874015748
        },
        {
          "duration": 1.2574834999999993,
          "durationTicks": 1344,
          "midi": 52,
          "name": "E3",
          "ticks": 67582,
          "time": 63.23158474479167,
          "velocity": 0.3937007874015748
        },
        {
          "duration": 0.8982024999999965,
          "durationTicks": 960,
          "midi": 72,
          "name": "C5",
          "ticks": 67774,
          "time": 63.411225244791666,
          "velocity": 0.3937007874015748
        },
        {
          "duration": 0.17964049999999787,
          "durationTicks": 192,
          "midi": 33,
          "name": "A1",
          "ticks": 67774,
          "time": 63.411225244791666,
          "velocity": 0.3937007874015748
        },
        {
          "duration": 0.17964049999999787,
          "durationTicks": 192,
          "midi": 69,
          "name": "A4",
          "ticks": 67774,
          "time": 63.411225244791666,
          "velocity": 0.3937007874015748
        },
        {
          "duration": 0.17964050000000498,
          "durationTicks": 192,
          "midi": 33,
          "name": "A1",
          "ticks": 67966,
          "time": 63.590865744791664,
          "velocity": 0.3937007874015748
        },
        {
          "duration": 0.17964049999999787,
          "durationTicks": 192,
          "midi": 33,
          "name": "A1",
          "ticks": 68158,
          "time": 63.77050624479167,
          "velocity": 0.3937007874015748
        },
        {
          "duration": 0.17964049999999787,
          "durationTicks": 192,
          "midi": 64,
          "name": "E4",
          "ticks": 68158,
          "time": 63.77050624479167,
          "velocity": 0.3937007874015748
        },
        {
          "duration": 0.17964049999999787,
          "durationTicks": 192,
          "midi": 69,
          "name": "A4",
          "ticks": 68158,
          "time": 63.77050624479167,
          "velocity": 0.3937007874015748
        },
        {
          "duration": 0.17964050000000498,
          "durationTicks": 192,
          "midi": 33,
          "name": "A1",
          "ticks": 68350,
          "time": 63.95014674479167,
          "velocity": 0.3937007874015748
        },
        {
          "duration": 0.17964050000000498,
          "durationTicks": 192,
          "midi": 67,
          "name": "G4",
          "ticks": 68350,
          "time": 63.95014674479167,
          "velocity": 0.3937007874015748
        },
        {
          "duration": 0.17964050000000498,
          "durationTicks": 192,
          "midi": 71,
          "name": "B4",
          "ticks": 68350,
          "time": 63.95014674479167,
          "velocity": 0.3937007874015748
        },
        {
          "duration": 0.17964049999999077,
          "durationTicks": 192,
          "midi": 33,
          "name": "A1",
          "ticks": 68542,
          "time": 64.12978724479167,
          "velocity": 0.3937007874015748
        },
        {
          "duration": 0.17964049999999077,
          "durationTicks": 192,
          "midi": 69,
          "name": "A4",
          "ticks": 68542,
          "time": 64.12978724479167,
          "velocity": 0.3937007874015748
        },
        {
          "duration": 0.35928099999999574,
          "durationTicks": 384,
          "midi": 72,
          "name": "C5",
          "ticks": 68542,
          "time": 64.12978724479167,
          "velocity": 0.3937007874015748
        },
        {
          "duration": 0.17964050000000498,
          "durationTicks": 192,
          "midi": 33,
          "name": "A1",
          "ticks": 68734,
          "time": 64.30942774479166,
          "velocity": 0.3937007874015748
        },
        {
          "duration": 0.17964050000000498,
          "durationTicks": 192,
          "midi": 64,
          "name": "E4",
          "ticks": 68926,
          "time": 64.48906824479167,
          "velocity": 0.3937007874015748
        },
        {
          "duration": 0.17964050000000498,
          "durationTicks": 192,
          "midi": 33,
          "name": "A1",
          "ticks": 68926,
          "time": 64.48906824479167,
          "velocity": 0.3937007874015748
        },
        {
          "duration": 0.17964050000000498,
          "durationTicks": 192,
          "midi": 69,
          "name": "A4",
          "ticks": 68926,
          "time": 64.48906824479167,
          "velocity": 0.3937007874015748
        },
        {
          "duration": 0.17964049999999077,
          "durationTicks": 192,
          "midi": 67,
          "name": "G4",
          "ticks": 69118,
          "time": 64.66870874479167,
          "velocity": 0.3937007874015748
        },
        {
          "duration": 0.17964049999999077,
          "durationTicks": 192,
          "midi": 71,
          "name": "B4",
          "ticks": 69118,
          "time": 64.66870874479167,
          "velocity": 0.3937007874015748
        },
        {
          "duration": 1.2574834999999922,
          "durationTicks": 1344,
          "midi": 50,
          "name": "D3",
          "ticks": 69118,
          "time": 64.66870874479167,
          "velocity": 0.3937007874015748
        },
        {
          "duration": 1.2574834999999922,
          "durationTicks": 1344,
          "midi": 55,
          "name": "G3",
          "ticks": 69118,
          "time": 64.66870874479167,
          "velocity": 0.3937007874015748
        },
        {
          "duration": 0.628741749999989,
          "durationTicks": 672,
          "midi": 71,
          "name": "B4",
          "ticks": 69118,
          "time": 64.66870874479167,
          "velocity": 0.3937007874015748
        },
        {
          "duration": 0.17964049999999077,
          "durationTicks": 192,
          "midi": 31,
          "name": "G1",
          "ticks": 69118,
          "time": 64.66870874479167,
          "velocity": 0.3937007874015748
        },
        {
          "duration": 0.17964050000000498,
          "durationTicks": 192,
          "midi": 31,
          "name": "G1",
          "ticks": 69310,
          "time": 64.84834924479166,
          "velocity": 0.3937007874015748
        },
        {
          "duration": 0.17964050000000498,
          "durationTicks": 192,
          "midi": 72,
          "name": "C5",
          "ticks": 69310,
          "time": 64.84834924479166,
          "velocity": 0.3937007874015748
        },
        {
          "duration": 0.17964050000000498,
          "durationTicks": 192,
          "midi": 69,
          "name": "A4",
          "ticks": 69310,
          "time": 64.84834924479166,
          "velocity": 0.3937007874015748
        },
        {
          "duration": 0.17964050000000498,
          "durationTicks": 192,
          "midi": 31,
          "name": "G1",
          "ticks": 69502,
          "time": 65.02798974479167,
          "velocity": 0.3937007874015748
        },
        {
          "duration": 0.17964049999999077,
          "durationTicks": 192,
          "midi": 31,
          "name": "G1",
          "ticks": 69694,
          "time": 65.20763024479167,
          "velocity": 0.3937007874015748
        },
        {
          "duration": 0.35928099999999574,
          "durationTicks": 384,
          "midi": 64,
          "name": "E4",
          "ticks": 69886,
          "time": 65.38727074479166,
          "velocity": 0.3937007874015748
        },
        {
          "duration": 0.35928099999999574,
          "durationTicks": 384,
          "midi": 69,
          "name": "A4",
          "ticks": 69886,
          "time": 65.38727074479166,
          "velocity": 0.3937007874015748
        },
        {
          "duration": 0.6287417500000032,
          "durationTicks": 672,
          "midi": 74,
          "name": "D5",
          "ticks": 69886,
          "time": 65.38727074479166,
          "velocity": 0.3937007874015748
        },
        {
          "duration": 0.17964050000000498,
          "durationTicks": 192,
          "midi": 31,
          "name": "G1",
          "ticks": 69886,
          "time": 65.38727074479166,
          "velocity": 0.3937007874015748
        },
        {
          "duration": 0.17964049999999077,
          "durationTicks": 192,
          "midi": 31,
          "name": "G1",
          "ticks": 70078,
          "time": 65.56691124479167,
          "velocity": 0.3937007874015748
        },
        {
          "duration": 0.35928100000000995,
          "durationTicks": 384,
          "midi": 72,
          "name": "C5",
          "ticks": 70270,
          "time": 65.74655174479166,
          "velocity": 0.3937007874015748
        },
        {
          "duration": 0.17964050000000498,
          "durationTicks": 192,
          "midi": 31,
          "name": "G1",
          "ticks": 70270,
          "time": 65.74655174479166,
          "velocity": 0.3937007874015748
        },
        {
          "duration": 0.35928100000000995,
          "durationTicks": 384,
          "midi": 76,
          "name": "E5",
          "ticks": 70270,
          "time": 65.74655174479166,
          "velocity": 0.3937007874015748
        },
        {
          "duration": 0.17964050000000498,
          "durationTicks": 192,
          "midi": 31,
          "name": "G1",
          "ticks": 70462,
          "time": 65.92619224479166,
          "velocity": 0.3937007874015748
        },
        {
          "duration": 0.8982024999999965,
          "durationTicks": 960,
          "midi": 72,
          "name": "C5",
          "ticks": 70654,
          "time": 66.10583274479167,
          "velocity": 0.3937007874015748
        },
        {
          "duration": 0.17964049999999077,
          "durationTicks": 192,
          "midi": 29,
          "name": "F1",
          "ticks": 70654,
          "time": 66.10583274479167,
          "velocity": 0.3937007874015748
        },
        {
          "duration": 2.0658657500000004,
          "durationTicks": 2208,
          "midi": 53,
          "name": "F3",
          "ticks": 70654,
          "time": 66.10583274479167,
          "velocity": 0.3937007874015748
        },
        {
          "duration": 0.8982024999999965,
          "durationTicks": 960,
          "midi": 76,
          "name": "E5",
          "ticks": 70654,
          "time": 66.10583274479167,
          "velocity": 0.3937007874015748
        },
        {
          "duration": 2.0658657500000004,
          "durationTicks": 2208,
          "midi": 76,
          "name": "E5",
          "ticks": 70654,
          "time": 66.10583274479167,
          "velocity": 0.3937007874015748
        },
        {
          "duration": 2.0658657500000004,
          "durationTicks": 2208,
          "midi": 48,
          "name": "C3",
          "ticks": 70654,
          "time": 66.10583274479167,
          "velocity": 0.3937007874015748
        },
        {
          "duration": 0.17964050000000498,
          "durationTicks": 192,
          "midi": 29,
          "name": "F1",
          "ticks": 70846,
          "time": 66.28547324479166,
          "velocity": 0.3937007874015748
        },
        {
          "duration": 0.17964050000000498,
          "durationTicks": 192,
          "midi": 29,
          "name": "F1",
          "ticks": 71038,
          "time": 66.46511374479167,
          "velocity": 0.3937007874015748
        },
        {
          "duration": 0.17964049999999077,
          "durationTicks": 192,
          "midi": 29,
          "name": "F1",
          "ticks": 71230,
          "time": 66.64475424479167,
          "velocity": 0.3937007874015748
        },
        {
          "duration": 0.17964050000000498,
          "durationTicks": 192,
          "midi": 29,
          "name": "F1",
          "ticks": 71422,
          "time": 66.82439474479166,
          "velocity": 0.3937007874015748
        },
        {
          "duration": 0.17964050000000498,
          "durationTicks": 192,
          "midi": 74,
          "name": "D5",
          "ticks": 71614,
          "time": 67.00403524479167,
          "velocity": 0.3937007874015748
        },
        {
          "duration": 0.17964050000000498,
          "durationTicks": 192,
          "midi": 29,
          "name": "F1",
          "ticks": 71614,
          "time": 67.00403524479167,
          "velocity": 0.3937007874015748
        },
        {
          "duration": 0.17964050000000498,
          "durationTicks": 192,
          "midi": 79,
          "name": "G5",
          "ticks": 71614,
          "time": 67.00403524479167,
          "velocity": 0.3937007874015748
        },
        {
          "duration": 0.17964049999999077,
          "durationTicks": 192,
          "midi": 77,
          "name": "F5",
          "ticks": 71806,
          "time": 67.18367574479167,
          "velocity": 0.3937007874015748
        },
        {
          "duration": 0.17964049999999077,
          "durationTicks": 192,
          "midi": 72,
          "name": "C5",
          "ticks": 71806,
          "time": 67.18367574479167,
          "velocity": 0.3937007874015748
        },
        {
          "duration": 0.17964049999999077,
          "durationTicks": 192,
          "midi": 29,
          "name": "F1",
          "ticks": 71806,
          "time": 67.18367574479167,
          "velocity": 0.3937007874015748
        },
        {
          "duration": 0.8083822500000082,
          "durationTicks": 864,
          "midi": 74,
          "name": "D5",
          "ticks": 71998,
          "time": 67.36331624479166,
          "velocity": 0.3937007874015748
        },
        {
          "duration": 0.8083822500000082,
          "durationTicks": 864,
          "midi": 69,
          "name": "A4",
          "ticks": 71998,
          "time": 67.36331624479166,
          "velocity": 0.3937007874015748
        },
        {
          "duration": 0.17964050000000498,
          "durationTicks": 192,
          "midi": 29,
          "name": "F1",
          "ticks": 71998,
          "time": 67.36331624479166,
          "velocity": 0.3937007874015748
        },
        {
          "duration": 0.17964050000000498,
          "durationTicks": 192,
          "midi": 29,
          "name": "F1",
          "ticks": 72190,
          "time": 67.54295674479167,
          "velocity": 0.3937007874015748
        },
        {
          "duration": 0.17964049999999077,
          "durationTicks": 192,
          "midi": 29,
          "name": "F1",
          "ticks": 72382,
          "time": 67.72259724479167,
          "velocity": 0.3937007874015748
        },
        {
          "duration": 0.17964050000000498,
          "durationTicks": 192,
          "midi": 24,
          "name": "C1",
          "ticks": 72574,
          "time": 67.90223774479166,
          "velocity": 0.3937007874015748
        },
        {
          "duration": 0.17964050000000498,
          "durationTicks": 192,
          "midi": 24,
          "name": "C1",
          "ticks": 72766,
          "time": 68.08187824479167,
          "velocity": 0.3937007874015748
        },
        {
          "duration": 0.35928099999999574,
          "durationTicks": 384,
          "midi": 48,
          "name": "C3",
          "ticks": 72958,
          "time": 68.26151874479167,
          "velocity": 0.3937007874015748
        },
        {
          "duration": 0.35928099999999574,
          "durationTicks": 384,
          "midi": 76,
          "name": "E5",
          "ticks": 72958,
          "time": 68.26151874479167,
          "velocity": 0.3937007874015748
        },
        {
          "duration": 0.17964049999999077,
          "durationTicks": 192,
          "midi": 29,
          "name": "F1",
          "ticks": 72958,
          "time": 68.26151874479167,
          "velocity": 0.3937007874015748
        },
        {
          "duration": 0.35928099999999574,
          "durationTicks": 384,
          "midi": 53,
          "name": "F3",
          "ticks": 72958,
          "time": 68.26151874479167,
          "velocity": 0.3937007874015748
        },
        {
          "duration": 0.17964050000000498,
          "durationTicks": 192,
          "midi": 29,
          "name": "F1",
          "ticks": 73150,
          "time": 68.44115924479166,
          "velocity": 0.3937007874015748
        },
        {
          "duration": 0.17964050000000498,
          "durationTicks": 192,
          "midi": 69,
          "name": "A4",
          "ticks": 73342,
          "time": 68.62079974479167,
          "velocity": 0.3937007874015748
        },
        {
          "duration": 0.17964050000000498,
          "durationTicks": 192,
          "midi": 64,
          "name": "E4",
          "ticks": 73342,
          "time": 68.62079974479167,
          "velocity": 0.3937007874015748
        },
        {
          "duration": 0.35928099999999574,
          "durationTicks": 384,
          "midi": 69,
          "name": "A4",
          "ticks": 73342,
          "time": 68.62079974479167,
          "velocity": 0.3937007874015748
        },
        {
          "duration": 0.17964050000000498,
          "durationTicks": 192,
          "midi": 28,
          "name": "E1",
          "ticks": 73342,
          "time": 68.62079974479167,
          "velocity": 0.3937007874015748
        },
        {
          "duration": 0.35928099999999574,
          "durationTicks": 384,
          "midi": 52,
          "name": "E3",
          "ticks": 73342,
          "time": 68.62079974479167,
          "velocity": 0.3937007874015748
        },
        {
          "duration": 0.35928099999999574,
          "durationTicks": 384,
          "midi": 47,
          "name": "B2",
          "ticks": 73342,
          "time": 68.62079974479167,
          "velocity": 0.3937007874015748
        },
        {
          "duration": 0.17964049999999077,
          "durationTicks": 192,
          "midi": 28,
          "name": "E1",
          "ticks": 73534,
          "time": 68.80044024479167,
          "velocity": 0.3937007874015748
        },
        {
          "duration": 0.17964049999999077,
          "durationTicks": 192,
          "midi": 71,
          "name": "B4",
          "ticks": 73534,
          "time": 68.80044024479167,
          "velocity": 0.3937007874015748
        },
        {
          "duration": 0.17964049999999077,
          "durationTicks": 192,
          "midi": 67,
          "name": "G4",
          "ticks": 73534,
          "time": 68.80044024479167,
          "velocity": 0.3937007874015748
        },
        {
          "duration": 0.8982024999999965,
          "durationTicks": 960,
          "midi": 72,
          "name": "C5",
          "ticks": 73726,
          "time": 68.98008074479166,
          "velocity": 0.3937007874015748
        },
        {
          "duration": 1.2574835000000064,
          "durationTicks": 1344,
          "midi": 50,
          "name": "D3",
          "ticks": 73726,
          "time": 68.98008074479166,
          "velocity": 0.3937007874015748
        },
        {
          "duration": 1.2574835000000064,
          "durationTicks": 1344,
          "midi": 72,
          "name": "C5",
          "ticks": 73726,
          "time": 68.98008074479166,
          "velocity": 0.3937007874015748
        },
        {
          "duration": 0.8982024999999965,
          "durationTicks": 960,
          "midi": 69,
          "name": "A4",
          "ticks": 73726,
          "time": 68.98008074479166,
          "velocity": 0.3937007874015748
        },
        {
          "duration": 0.17964050000000498,
          "durationTicks": 192,
          "midi": 26,
          "name": "D1",
          "ticks": 73726,
          "time": 68.98008074479166,
          "velocity": 0.3937007874015748
        },
        {
          "duration": 1.2574835000000064,
          "durationTicks": 1344,
          "midi": 45,
          "name": "A2",
          "ticks": 73726,
          "time": 68.98008074479166,
          "velocity": 0.3937007874015748
        },
        {
          "duration": 0.17964049999999077,
          "durationTicks": 192,
          "midi": 26,
          "name": "D1",
          "ticks": 73918,
          "time": 69.15972124479167,
          "velocity": 0.3937007874015748
        },
        {
          "duration": 0.17964050000000498,
          "durationTicks": 192,
          "midi": 26,
          "name": "D1",
          "ticks": 74110,
          "time": 69.33936174479166,
          "velocity": 0.3937007874015748
        },
        {
          "duration": 0.17964050000000498,
          "durationTicks": 192,
          "midi": 26,
          "name": "D1",
          "ticks": 74302,
          "time": 69.51900224479166,
          "velocity": 0.3937007874015748
        },
        {
          "duration": 0.17964049999999077,
          "durationTicks": 192,
          "midi": 26,
          "name": "D1",
          "ticks": 74494,
          "time": 69.69864274479167,
          "velocity": 0.3937007874015748
        },
        {
          "duration": 0.17964050000000498,
          "durationTicks": 192,
          "midi": 26,
          "name": "D1",
          "ticks": 74686,
          "time": 69.87828324479166,
          "velocity": 0.3937007874015748
        },
        {
          "duration": 0.35928099999999574,
          "durationTicks": 384,
          "midi": 74,
          "name": "D5",
          "ticks": 74878,
          "time": 70.05792374479167,
          "velocity": 0.3937007874015748
        },
        {
          "duration": 0.35928099999999574,
          "durationTicks": 384,
          "midi": 71,
          "name": "B4",
          "ticks": 74878,
          "time": 70.05792374479167,
          "velocity": 0.3937007874015748
        },
        {
          "duration": 0.17964050000000498,
          "durationTicks": 192,
          "midi": 26,
          "name": "D1",
          "ticks": 74878,
          "time": 70.05792374479167,
          "velocity": 0.3937007874015748
        },
        {
          "duration": 0.17964049999999077,
          "durationTicks": 192,
          "midi": 26,
          "name": "D1",
          "ticks": 75070,
          "time": 70.23756424479167,
          "velocity": 0.3937007874015748
        },
        {
          "duration": 0.26946075000000747,
          "durationTicks": 288,
          "midi": 52,
          "name": "E3",
          "ticks": 75262,
          "time": 70.41720474479166,
          "velocity": 0.3937007874015748
        },
        {
          "duration": 0.26946075000000747,
          "durationTicks": 288,
          "midi": 28,
          "name": "E1",
          "ticks": 75262,
          "time": 70.41720474479166,
          "velocity": 0.3937007874015748
        },
        {
          "duration": 0.17964050000000498,
          "durationTicks": 192,
          "midi": 71,
          "name": "B4",
          "ticks": 75262,
          "time": 70.41720474479166,
          "velocity": 0.3937007874015748
        },
        {
          "duration": 0.17964050000000498,
          "durationTicks": 192,
          "midi": 68,
          "name": "G#4",
          "ticks": 75262,
          "time": 70.41720474479166,
          "velocity": 0.3937007874015748
        },
        {
          "duration": 0.26946075000000747,
          "durationTicks": 288,
          "midi": 47,
          "name": "B2",
          "ticks": 75262,
          "time": 70.41720474479166,
          "velocity": 0.3937007874015748
        },
        {
          "duration": 0.26946075000000747,
          "durationTicks": 288,
          "midi": 71,
          "name": "B4",
          "ticks": 75262,
          "time": 70.41720474479166,
          "velocity": 0.3937007874015748
        },
        {
          "duration": 0.35928099999999574,
          "durationTicks": 384,
          "midi": 74,
          "name": "D5",
          "ticks": 75646,
          "time": 70.77648574479167,
          "velocity": 0.3937007874015748
        },
        {
          "duration": 0.35928099999999574,
          "durationTicks": 384,
          "midi": 76,
          "name": "E5",
          "ticks": 76030,
          "time": 71.13576674479167,
          "velocity": 0.3937007874015748
        },
        {
          "duration": 0.35928100000000995,
          "durationTicks": 384,
          "midi": 80,
          "name": "G#5",
          "ticks": 76414,
          "time": 71.49504774479166,
          "velocity": 0.3937007874015748
        },
        {
          "duration": 2.6946074999999894,
          "durationTicks": 2880,
          "midi": 81,
          "name": "A5",
          "ticks": 76798,
          "time": 71.85432874479167,
          "velocity": 0.3937007874015748
        },
        {
          "duration": 0.17964049999999077,
          "durationTicks": 192,
          "midi": 48,
          "name": "C3",
          "ticks": 76798,
          "time": 71.85432874479167,
          "velocity": 0.3937007874015748
        },
        {
          "duration": 0.17964049999999077,
          "durationTicks": 192,
          "midi": 29,
          "name": "F1",
          "ticks": 76798,
          "time": 71.85432874479167,
          "velocity": 0.3937007874015748
        },
        {
          "duration": 0.17964049999999077,
          "durationTicks": 192,
          "midi": 53,
          "name": "F3",
          "ticks": 76798,
          "time": 71.85432874479167,
          "velocity": 0.3937007874015748
        },
        {
          "duration": 0.17964050000000498,
          "durationTicks": 192,
          "midi": 48,
          "name": "C3",
          "ticks": 76990,
          "time": 72.03396924479166,
          "velocity": 0.3937007874015748
        },
        {
          "duration": 0.17964050000000498,
          "durationTicks": 192,
          "midi": 29,
          "name": "F1",
          "ticks": 76990,
          "time": 72.03396924479166,
          "velocity": 0.3937007874015748
        },
        {
          "duration": 0.17964050000000498,
          "durationTicks": 192,
          "midi": 53,
          "name": "F3",
          "ticks": 76990,
          "time": 72.03396924479166,
          "velocity": 0.3937007874015748
        },
        {
          "duration": 0.17964049999999077,
          "durationTicks": 192,
          "midi": 50,
          "name": "D3",
          "ticks": 77374,
          "time": 72.39325024479167,
          "velocity": 0.3937007874015748
        },
        {
          "duration": 0.17964049999999077,
          "durationTicks": 192,
          "midi": 55,
          "name": "G3",
          "ticks": 77374,
          "time": 72.39325024479167,
          "velocity": 0.3937007874015748
        },
        {
          "duration": 0.17964049999999077,
          "durationTicks": 192,
          "midi": 31,
          "name": "G1",
          "ticks": 77374,
          "time": 72.39325024479167,
          "velocity": 0.3937007874015748
        },
        {
          "duration": 0.17964050000000498,
          "durationTicks": 192,
          "midi": 55,
          "name": "G3",
          "ticks": 77566,
          "time": 72.57289074479166,
          "velocity": 0.3937007874015748
        },
        {
          "duration": 0.17964050000000498,
          "durationTicks": 192,
          "midi": 50,
          "name": "D3",
          "ticks": 77566,
          "time": 72.57289074479166,
          "velocity": 0.3937007874015748
        },
        {
          "duration": 0.17964050000000498,
          "durationTicks": 192,
          "midi": 31,
          "name": "G1",
          "ticks": 77566,
          "time": 72.57289074479166,
          "velocity": 0.3937007874015748
        },
        {
          "duration": 0.17964050000000498,
          "durationTicks": 192,
          "midi": 50,
          "name": "D3",
          "ticks": 77950,
          "time": 72.93217174479166,
          "velocity": 0.3937007874015748
        },
        {
          "duration": 0.17964050000000498,
          "durationTicks": 192,
          "midi": 31,
          "name": "G1",
          "ticks": 77950,
          "time": 72.93217174479166,
          "velocity": 0.3937007874015748
        },
        {
          "duration": 0.17964050000000498,
          "durationTicks": 192,
          "midi": 55,
          "name": "G3",
          "ticks": 77950,
          "time": 72.93217174479166,
          "velocity": 0.3937007874015748
        },
        {
          "duration": 1.6167645000000022,
          "durationTicks": 1728,
          "midi": 57,
          "name": "A3",
          "ticks": 78142,
          "time": 73.11181224479166,
          "velocity": 0.3937007874015748
        },
        {
          "duration": 2.2455062500000054,
          "durationTicks": 2400,
          "midi": 33,
          "name": "A1",
          "ticks": 78142,
          "time": 73.11181224479166,
          "velocity": 0.3937007874015748
        },
        {
          "duration": 0.7185620000000057,
          "durationTicks": 768,
          "midi": 69,
          "name": "A4",
          "ticks": 78142,
          "time": 73.11181224479166,
          "velocity": 0.3937007874015748
        },
        {
          "duration": 2.2455062500000054,
          "durationTicks": 2400,
          "midi": 52,
          "name": "E3",
          "ticks": 78142,
          "time": 73.11181224479166,
          "velocity": 0.3937007874015748
        },
        {
          "duration": 0.7185620000000057,
          "durationTicks": 768,
          "midi": 60,
          "name": "C4",
          "ticks": 78142,
          "time": 73.11181224479166,
          "velocity": 0.3937007874015748
        },
        {
          "duration": 0.5389215000000007,
          "durationTicks": 576,
          "midi": 67,
          "name": "G4",
          "ticks": 78910,
          "time": 73.83037424479167,
          "velocity": 0.3937007874015748
        },
        {
          "duration": 0.5389215000000007,
          "durationTicks": 576,
          "midi": 59,
          "name": "B3",
          "ticks": 78910,
          "time": 73.83037424479167,
          "velocity": 0.3937007874015748
        },
        {
          "duration": 0.988022749999999,
          "durationTicks": 1056,
          "midi": 57,
          "name": "A3",
          "ticks": 79486,
          "time": 74.36929574479167,
          "velocity": 0.3937007874015748
        },
        {
          "duration": 0.35928099999999574,
          "durationTicks": 384,
          "midi": 64,
          "name": "E4",
          "ticks": 79486,
          "time": 74.36929574479167,
          "velocity": 0.3937007874015748
        },
        {
          "duration": 0.5389215000000007,
          "durationTicks": 576,
          "midi": 64,
          "name": "E4",
          "ticks": 79870,
          "time": 74.72857674479167,
          "velocity": 0.3937007874015748
        },
        {
          "duration": 0.5389215000000007,
          "durationTicks": 576,
          "midi": 72,
          "name": "C5",
          "ticks": 79870,
          "time": 74.72857674479167,
          "velocity": 0.3937007874015748
        },
        {
          "duration": 0.5389215000000007,
          "durationTicks": 576,
          "midi": 69,
          "name": "A4",
          "ticks": 80446,
          "time": 75.26749824479167,
          "velocity": 0.3937007874015748
        },
        {
          "duration": 0.5389215000000007,
          "durationTicks": 576,
          "midi": 60,
          "name": "C4",
          "ticks": 80446,
          "time": 75.26749824479167,
          "velocity": 0.3937007874015748
        },
        {
          "duration": 0.17964049999999077,
          "durationTicks": 192,
          "midi": 33,
          "name": "A1",
          "ticks": 80638,
          "time": 75.44713874479167,
          "velocity": 0.3937007874015748
        },
        {
          "duration": 0.17964049999999077,
          "durationTicks": 192,
          "midi": 57,
          "name": "A3",
          "ticks": 80638,
          "time": 75.44713874479167,
          "velocity": 0.3937007874015748
        },
        {
          "duration": 0.17964049999999077,
          "durationTicks": 192,
          "midi": 52,
          "name": "E3",
          "ticks": 80638,
          "time": 75.44713874479167,
          "velocity": 0.3937007874015748
        },
        {
          "duration": 0.17964050000000498,
          "durationTicks": 192,
          "midi": 31,
          "name": "G1",
          "ticks": 80830,
          "time": 75.62677924479166,
          "velocity": 0.3937007874015748
        },
        {
          "duration": 0.17964050000000498,
          "durationTicks": 192,
          "midi": 50,
          "name": "D3",
          "ticks": 80830,
          "time": 75.62677924479166,
          "velocity": 0.3937007874015748
        },
        {
          "duration": 0.17964050000000498,
          "durationTicks": 192,
          "midi": 55,
          "name": "G3",
          "ticks": 80830,
          "time": 75.62677924479166,
          "velocity": 0.3937007874015748
        },
        {
          "duration": 2.245506249999991,
          "durationTicks": 2400,
          "midi": 48,
          "name": "C3",
          "ticks": 81214,
          "time": 75.98606024479167,
          "velocity": 0.3937007874015748
        },
        {
          "duration": 0.7185619999999915,
          "durationTicks": 768,
          "midi": 69,
          "name": "A4",
          "ticks": 81214,
          "time": 75.98606024479167,
          "velocity": 0.3937007874015748
        },
        {
          "duration": 2.245506249999991,
          "durationTicks": 2400,
          "midi": 29,
          "name": "F1",
          "ticks": 81214,
          "time": 75.98606024479167,
          "velocity": 0.3937007874015748
        },
        {
          "duration": 0.7185619999999915,
          "durationTicks": 768,
          "midi": 60,
          "name": "C4",
          "ticks": 81214,
          "time": 75.98606024479167,
          "velocity": 0.3937007874015748
        },
        {
          "duration": 2.245506249999991,
          "durationTicks": 2400,
          "midi": 53,
          "name": "F3",
          "ticks": 81214,
          "time": 75.98606024479167,
          "velocity": 0.3937007874015748
        },
        {
          "duration": 0.5389215000000007,
          "durationTicks": 576,
          "midi": 67,
          "name": "G4",
          "ticks": 81982,
          "time": 76.70462224479166,
          "velocity": 0.3937007874015748
        },
        {
          "duration": 0.5389215000000007,
          "durationTicks": 576,
          "midi": 59,
          "name": "B3",
          "ticks": 81982,
          "time": 76.70462224479166,
          "velocity": 0.3937007874015748
        },
        {
          "duration": 0.35928099999999574,
          "durationTicks": 384,
          "midi": 57,
          "name": "A3",
          "ticks": 82558,
          "time": 77.24354374479167,
          "velocity": 0.3937007874015748
        },
        {
          "duration": 0.35928099999999574,
          "durationTicks": 384,
          "midi": 64,
          "name": "E4",
          "ticks": 82558,
          "time": 77.24354374479167,
          "velocity": 0.3937007874015748
        },
        {
          "duration": 0.5389215000000007,
          "durationTicks": 576,
          "midi": 72,
          "name": "C5",
          "ticks": 82942,
          "time": 77.60282474479166,
          "velocity": 0.3937007874015748
        },
        {
          "duration": 0.5389215000000007,
          "durationTicks": 576,
          "midi": 64,
          "name": "E4",
          "ticks": 82942,
          "time": 77.60282474479166,
          "velocity": 0.3937007874015748
        },
        {
          "duration": 0.5389215000000007,
          "durationTicks": 576,
          "midi": 69,
          "name": "A4",
          "ticks": 83518,
          "time": 78.14174624479166,
          "velocity": 0.3937007874015748
        },
        {
          "duration": 0.5389215000000007,
          "durationTicks": 576,
          "midi": 60,
          "name": "C4",
          "ticks": 83518,
          "time": 78.14174624479166,
          "velocity": 0.3937007874015748
        },
        {
          "duration": 0.17964050000000498,
          "durationTicks": 192,
          "midi": 48,
          "name": "C3",
          "ticks": 83710,
          "time": 78.32138674479167,
          "velocity": 0.3937007874015748
        },
        {
          "duration": 0.17964050000000498,
          "durationTicks": 192,
          "midi": 29,
          "name": "F1",
          "ticks": 83710,
          "time": 78.32138674479167,
          "velocity": 0.3937007874015748
        },
        {
          "duration": 0.17964050000000498,
          "durationTicks": 192,
          "midi": 53,
          "name": "F3",
          "ticks": 83710,
          "time": 78.32138674479167,
          "velocity": 0.3937007874015748
        },
        {
          "duration": 0.17964049999999077,
          "durationTicks": 192,
          "midi": 28,
          "name": "E1",
          "ticks": 83902,
          "time": 78.50102724479167,
          "velocity": 0.3937007874015748
        },
        {
          "duration": 0.17964049999999077,
          "durationTicks": 192,
          "midi": 52,
          "name": "E3",
          "ticks": 83902,
          "time": 78.50102724479167,
          "velocity": 0.3937007874015748
        },
        {
          "duration": 0.17964049999999077,
          "durationTicks": 192,
          "midi": 47,
          "name": "B2",
          "ticks": 83902,
          "time": 78.50102724479167,
          "velocity": 0.3937007874015748
        },
        {
          "duration": 0.7185620000000057,
          "durationTicks": 768,
          "midi": 60,
          "name": "C4",
          "ticks": 84286,
          "time": 78.86030824479167,
          "velocity": 0.3937007874015748
        },
        {
          "duration": 1.4371239999999972,
          "durationTicks": 1536,
          "midi": 45,
          "name": "A2",
          "ticks": 84286,
          "time": 78.86030824479167,
          "velocity": 0.3937007874015748
        },
        {
          "duration": 1.4371239999999972,
          "durationTicks": 1536,
          "midi": 50,
          "name": "D3",
          "ticks": 84286,
          "time": 78.86030824479167,
          "velocity": 0.3937007874015748
        },
        {
          "duration": 1.4371239999999972,
          "durationTicks": 1536,
          "midi": 26,
          "name": "D1",
          "ticks": 84286,
          "time": 78.86030824479167,
          "velocity": 0.3937007874015748
        },
        {
          "duration": 0.7185620000000057,
          "durationTicks": 768,
          "midi": 69,
          "name": "A4",
          "ticks": 84286,
          "time": 78.86030824479167,
          "velocity": 0.3937007874015748
        },
        {
          "duration": 0.5389215000000007,
          "durationTicks": 576,
          "midi": 71,
          "name": "B4",
          "ticks": 85054,
          "time": 79.57887024479167,
          "velocity": 0.3937007874015748
        },
        {
          "duration": 0.5389215000000007,
          "durationTicks": 576,
          "midi": 62,
          "name": "D4",
          "ticks": 85054,
          "time": 79.57887024479167,
          "velocity": 0.3937007874015748
        },
        {
          "duration": 0.35928099999999574,
          "durationTicks": 384,
          "midi": 64,
          "name": "E4",
          "ticks": 85630,
          "time": 80.11779174479167,
          "velocity": 0.3937007874015748
        },
        {
          "duration": 0.35928099999999574,
          "durationTicks": 384,
          "midi": 72,
          "name": "C5",
          "ticks": 85630,
          "time": 80.11779174479167,
          "velocity": 0.3937007874015748
        },
        {
          "duration": 0.44910124999999823,
          "durationTicks": 480,
          "midi": 66,
          "name": "F#4",
          "ticks": 86014,
          "time": 80.47707274479167,
          "velocity": 0.3937007874015748
        },
        {
          "duration": 1.2574834999999922,
          "durationTicks": 1344,
          "midi": 46,
          "name": "A#2",
          "ticks": 86014,
          "time": 80.47707274479167,
          "velocity": 0.3937007874015748
        },
        {
          "duration": 1.2574834999999922,
          "durationTicks": 1344,
          "midi": 51,
          "name": "D#3",
          "ticks": 86014,
          "time": 80.47707274479167,
          "velocity": 0.3937007874015748
        },
        {
          "duration": 1.2574834999999922,
          "durationTicks": 1344,
          "midi": 27,
          "name": "D#1",
          "ticks": 86014,
          "time": 80.47707274479167,
          "velocity": 0.3937007874015748
        },
        {
          "duration": 0.44910124999999823,
          "durationTicks": 480,
          "midi": 75,
          "name": "D#5",
          "ticks": 86014,
          "time": 80.47707274479167,
          "velocity": 0.3937007874015748
        },
        {
          "duration": 0.7185620000000057,
          "durationTicks": 768,
          "midi": 78,
          "name": "F#5",
          "ticks": 86782,
          "time": 81.19563474479166,
          "velocity": 0.3937007874015748
        },
        {
          "duration": 0.7185620000000057,
          "durationTicks": 768,
          "midi": 69,
          "name": "A4",
          "ticks": 86782,
          "time": 81.19563474479166,
          "velocity": 0.3937007874015748
        },
        {
          "duration": 0.17964050000000498,
          "durationTicks": 192,
          "midi": 52,
          "name": "E3",
          "ticks": 87550,
          "time": 81.91419674479167,
          "velocity": 0.3937007874015748
        },
        {
          "duration": 2.6946075000000036,
          "durationTicks": 2880,
          "midi": 28,
          "name": "E1",
          "ticks": 87550,
          "time": 81.91419674479167,
          "velocity": 0.3937007874015748
        },
        {
          "duration": 2.6946075000000036,
          "durationTicks": 2880,
          "midi": 68,
          "name": "G#4",
          "ticks": 87550,
          "time": 81.91419674479167,
          "velocity": 0.3937007874015748
        },
        {
          "duration": 2.6946075000000036,
          "durationTicks": 2880,
          "midi": 76,
          "name": "E5",
          "ticks": 87550,
          "time": 81.91419674479167,
          "velocity": 0.3937007874015748
        },
        {
          "duration": 0.17964050000000498,
          "durationTicks": 192,
          "midi": 47,
          "name": "B2",
          "ticks": 87550,
          "time": 81.91419674479167,
          "velocity": 0.3937007874015748
        },
        {
          "duration": 0.08982024999998828,
          "durationTicks": 96,
          "midi": 40,
          "name": "E2",
          "ticks": 87742,
          "time": 82.09383724479167,
          "velocity": 0.3937007874015748
        },
        {
          "duration": 0.08982025000000249,
          "durationTicks": 96,
          "midi": 40,
          "name": "E2",
          "ticks": 87838,
          "time": 82.18365749479166,
          "velocity": 0.3937007874015748
        },
        {
          "duration": 0.08982025000000249,
          "durationTicks": 96,
          "midi": 40,
          "name": "E2",
          "ticks": 87934,
          "time": 82.27347774479166,
          "velocity": 0.3937007874015748
        },
        {
          "duration": 0.17964050000000498,
          "durationTicks": 192,
          "midi": 52,
          "name": "E3",
          "ticks": 88126,
          "time": 82.45311824479167,
          "velocity": 0.3937007874015748
        },
        {
          "duration": 0.17964050000000498,
          "durationTicks": 192,
          "midi": 47,
          "name": "B2",
          "ticks": 88126,
          "time": 82.45311824479167,
          "velocity": 0.3937007874015748
        },
        {
          "duration": 0.08982024999998828,
          "durationTicks": 96,
          "midi": 40,
          "name": "E2",
          "ticks": 88318,
          "time": 82.63275874479167,
          "velocity": 0.3937007874015748
        },
        {
          "duration": 0.08982025000000249,
          "durationTicks": 96,
          "midi": 40,
          "name": "E2",
          "ticks": 88414,
          "time": 82.72257899479166,
          "velocity": 0.3937007874015748
        },
        {
          "duration": 0.08982025000000249,
          "durationTicks": 96,
          "midi": 40,
          "name": "E2",
          "ticks": 88510,
          "time": 82.81239924479166,
          "velocity": 0.3937007874015748
        },
        {
          "duration": 0.17964050000000498,
          "durationTicks": 192,
          "midi": 52,
          "name": "E3",
          "ticks": 88702,
          "time": 82.99203974479167,
          "velocity": 0.3937007874015748
        },
        {
          "duration": 0.17964050000000498,
          "durationTicks": 192,
          "midi": 47,
          "name": "B2",
          "ticks": 88702,
          "time": 82.99203974479167,
          "velocity": 0.3937007874015748
        },
        {
          "duration": 0.08982024999998828,
          "durationTicks": 96,
          "midi": 40,
          "name": "E2",
          "ticks": 88894,
          "time": 83.17168024479167,
          "velocity": 0.3937007874015748
        },
        {
          "duration": 0.08982025000000249,
          "durationTicks": 96,
          "midi": 40,
          "name": "E2",
          "ticks": 88990,
          "time": 83.26150049479166,
          "velocity": 0.3937007874015748
        },
        {
          "duration": 0.17964050000000498,
          "durationTicks": 192,
          "midi": 52,
          "name": "E3",
          "ticks": 89086,
          "time": 83.35132074479166,
          "velocity": 0.3937007874015748
        },
        {
          "duration": 0.17964050000000498,
          "durationTicks": 192,
          "midi": 47,
          "name": "B2",
          "ticks": 89086,
          "time": 83.35132074479166,
          "velocity": 0.3937007874015748
        },
        {
          "duration": 0.08982025000000249,
          "durationTicks": 96,
          "midi": 40,
          "name": "E2",
          "ticks": 89278,
          "time": 83.53096124479167,
          "velocity": 0.3937007874015748
        },
        {
          "duration": 0.08982025000000249,
          "durationTicks": 96,
          "midi": 40,
          "name": "E2",
          "ticks": 89374,
          "time": 83.62078149479167,
          "velocity": 0.3937007874015748
        },
        {
          "duration": 0.08982024999998828,
          "durationTicks": 96,
          "midi": 40,
          "name": "E2",
          "ticks": 89470,
          "time": 83.71060174479167,
          "velocity": 0.3937007874015748
        },
        {
          "duration": 0.17964050000000498,
          "durationTicks": 192,
          "midi": 52,
          "name": "E3",
          "ticks": 89662,
          "time": 83.89024224479166,
          "velocity": 0.3937007874015748
        },
        {
          "duration": 0.17964050000000498,
          "durationTicks": 192,
          "midi": 47,
          "name": "B2",
          "ticks": 89662,
          "time": 83.89024224479166,
          "velocity": 0.3937007874015748
        },
        {
          "duration": 0.08982025000000249,
          "durationTicks": 96,
          "midi": 40,
          "name": "E2",
          "ticks": 89854,
          "time": 84.06988274479167,
          "velocity": 0.3937007874015748
        },
        {
          "duration": 0.08982024999998828,
          "durationTicks": 96,
          "midi": 40,
          "name": "E2",
          "ticks": 89950,
          "time": 84.15970299479167,
          "velocity": 0.3937007874015748
        },
        {
          "duration": 0.08982025000000249,
          "durationTicks": 96,
          "midi": 40,
          "name": "E2",
          "ticks": 90046,
          "time": 84.24952324479166,
          "velocity": 0.3937007874015748
        },
        {
          "duration": 0.17964050000000498,
          "durationTicks": 192,
          "midi": 52,
          "name": "E3",
          "ticks": 90238,
          "time": 84.42916374479167,
          "velocity": 0.3937007874015748
        },
        {
          "duration": 0.17964050000000498,
          "durationTicks": 192,
          "midi": 47,
          "name": "B2",
          "ticks": 90238,
          "time": 84.42916374479167,
          "velocity": 0.3937007874015748
        },
        {
          "duration": 4.041911249999998,
          "durationTicks": 4320,
          "midi": 81,
          "name": "A5",
          "ticks": 90430,
          "time": 84.60880424479167,
          "velocity": 0.3937007874015748
        },
        {
          "duration": 4.041911249999998,
          "durationTicks": 4320,
          "midi": 57,
          "name": "A3",
          "ticks": 90430,
          "time": 84.60880424479167,
          "velocity": 0.3937007874015748
        },
        {
          "duration": 4.041911249999998,
          "durationTicks": 4320,
          "midi": 33,
          "name": "A1",
          "ticks": 90430,
          "time": 84.60880424479167,
          "velocity": 0.3937007874015748
        },
        {
          "duration": 4.041911249999998,
          "durationTicks": 4320,
          "midi": 52,
          "name": "E3",
          "ticks": 90430,
          "time": 84.60880424479167,
          "velocity": 0.3937007874015748
        }
      ],
      "endOfTrackTicks": 94750
    }
  ]
}
