{
  "header": {
    "keySignatures": [],
    "meta": [],
    "name": "",
    "ppq": 96,
    "tempos": [
      {
        "bpm": 145.00003625000906,
        "ticks": 0
      }
    ],
    "timeSignatures": [
      {
        "ticks": 0,
        "timeSignature": [
          4,
          4
        ],
        "measures": 0
      }
    ]
  },
  "tracks": [
    {
      "channel": 0,
      "controlChanges": {},
      "pitchBends": [],
      "instrument": {
        "family": "piano",
        "number": 0,
        "name": "acoustic grand piano"
      },
      "name": "",
      "notes": [],
      "endOfTrackTicks": 0
    },
    {
      "channel": 0,
      "controlChanges": {
        "6": [
          {
            "number": 6,
            "ticks": 0,
            "time": 0,
            "value": 0.09448818897637795
          },
          {
            "number": 6,
            "ticks": 0,
            "time": 0,
            "value": 0.09448818897637795
          },
          {
            "number": 6,
            "ticks": 0,
            "time": 0,
            "value": 0.09448818897637795
          },
          {
            "number": 6,
            "ticks": 32640,
            "time": 140.68962000000002,
            "value": 0.09448818897637795
          },
          {
            "number": 6,
            "ticks": 32641,
            "time": 140.69393034375003,
            "value": 0.09448818897637795
          }
        ],
        "7": [
          {
            "number": 7,
            "ticks": 0,
            "time": 0,
            "value": 0.4566929133858268
          },
          {
            "number": 7,
            "ticks": 0,
            "time": 0,
            "value": 0.4566929133858268
          },
          {
            "number": 7,
            "ticks": 0,
            "time": 0,
            "value": 0.4566929133858268
          },
          {
            "number": 7,
            "ticks": 0,
            "time": 0,
            "value": 0.4566929133858268
          },
          {
            "number": 7,
            "ticks": 32640,
            "time": 140.68962000000002,
            "value": 0.4566929133858268
          },
          {
            "number": 7,
            "ticks": 32641,
            "time": 140.69393034375003,
            "value": 0.4566929133858268
          }
        ],
        "10": [
          {
            "number": 10,
            "ticks": 0,
            "time": 0,
            "value": 0
          }
        ],
        "100": [
          {
            "number": 100,
            "ticks": 0,
            "time": 0,
            "value": 0
          },
          {
            "number": 100,
            "ticks": 0,
            "time": 0,
            "value": 0
          },
          {
            "number": 100,
            "ticks": 0,
            "time": 0,
            "value": 0
          },
          {
            "number": 100,
            "ticks": 32640,
            "time": 140.68962000000002,
            "value": 0
          },
          {
            "number": 100,
            "ticks": 32641,
            "time": 140.69393034375003,
            "value": 0
          }
        ],
        "101": [
          {
            "number": 101,
            "ticks": 0,
            "time": 0,
            "value": 0
          },
          {
            "number": 101,
            "ticks": 0,
            "time": 0,
            "value": 0
          },
          {
            "number": 101,
            "ticks": 0,
            "time": 0,
            "value": 0
          },
          {
            "number": 101,
            "ticks": 32640,
            "time": 140.68962000000002,
            "value": 0
          },
          {
            "number": 101,
            "ticks": 32641,
            "time": 140.69393034375003,
            "value": 0
          }
        ]
      },
      "pitchBends": [
        {
          "ticks": 0,
          "time": 0,
          "value": 0
        },
        {
          "ticks": 0,
          "time": 0,
          "value": 0
        },
        {
          "ticks": 0,
          "time": 0,
          "value": 0
        },
        {
          "ticks": 0,
          "time": 0,
          "value": 0
        },
        {
          "ticks": 32640,
          "time": 140.68962000000002,
          "value": 0
        },
        {
          "ticks": 32641,
          "time": 140.69393034375003,
          "value": 0
        }
      ],
      "instrument": {
        "family": "piano",
        "number": 0,
        "name": "acoustic grand piano"
      },
      "name": "FL Keys #3",
      "notes": [
        {
          "duration": 0.4137929999999983,
          "durationTicks": 96,
          "midi": 80,
          "name": "G#5",
          "ticks": 13056,
          "time": 56.275848,
          "velocity": 0.7874015748031497
        },
        {
          "duration": 0.4137929999999983,
          "durationTicks": 96,
          "midi": 68,
          "name": "G#4",
          "ticks": 13056,
          "time": 56.275848,
          "velocity": 0.7874015748031497
        },
        {
          "duration": 0.20689649999999915,
          "durationTicks": 48,
          "midi": 75,
          "name": "D#5",
          "ticks": 13152,
          "time": 56.689641,
          "velocity": 0.7874015748031497
        },
        {
          "duration": 0.20689649999999915,
          "durationTicks": 48,
          "midi": 63,
          "name": "D#4",
          "ticks": 13152,
          "time": 56.689641,
          "velocity": 0.7874015748031497
        },
        {
          "duration": 0.20689649999999915,
          "durationTicks": 48,
          "midi": 76,
          "name": "E5",
          "ticks": 13200,
          "time": 56.8965375,
          "velocity": 0.7874015748031497
        },
        {
          "duration": 0.20689649999999915,
          "durationTicks": 48,
          "midi": 64,
          "name": "E4",
          "ticks": 13200,
          "time": 56.8965375,
          "velocity": 0.7874015748031497
        },
        {
          "duration": 0.4137930000000054,
          "durationTicks": 96,
          "midi": 73,
          "name": "C#5",
          "ticks": 13248,
          "time": 57.103434,
          "velocity": 0.7874015748031497
        },
        {
          "duration": 0.4137930000000054,
          "durationTicks": 96,
          "midi": 61,
          "name": "C#4",
          "ticks": 13248,
          "time": 57.103434,
          "velocity": 0.7874015748031497
        },
        {
          "duration": 0.20689649999999915,
          "durationTicks": 48,
          "midi": 64,
          "name": "E4",
          "ticks": 13344,
          "time": 57.517227000000005,
          "velocity": 0.7874015748031497
        },
        {
          "duration": 0.20689649999999915,
          "durationTicks": 48,
          "midi": 76,
          "name": "E5",
          "ticks": 13344,
          "time": 57.517227000000005,
          "velocity": 0.7874015748031497
        },
        {
          "duration": 0.20689649999999915,
          "durationTicks": 48,
          "midi": 73,
          "name": "C#5",
          "ticks": 13392,
          "time": 57.724123500000005,
          "velocity": 0.7874015748031497
        },
        {
          "duration": 0.20689649999999915,
          "durationTicks": 48,
          "midi": 61,
          "name": "C#4",
          "ticks": 13392,
          "time": 57.724123500000005,
          "velocity": 0.7874015748031497
        },
        {
          "duration": 0.4137929999999983,
          "durationTicks": 96,
          "midi": 68,
          "name": "G#4",
          "ticks": 13440,
          "time": 57.931020000000004,
          "velocity": 0.7874015748031497
        },
        {
          "duration": 0.4137929999999983,
          "durationTicks": 96,
          "midi": 80,
          "name": "G#5",
          "ticks": 13440,
          "time": 57.931020000000004,
          "velocity": 0.7874015748031497
        },
        {
          "duration": 0.20689649999999915,
          "durationTicks": 48,
          "midi": 75,
          "name": "D#5",
          "ticks": 13536,
          "time": 58.344813,
          "velocity": 0.7874015748031497
        },
        {
          "duration": 0.20689649999999915,
          "durationTicks": 48,
          "midi": 63,
          "name": "D#4",
          "ticks": 13536,
          "time": 58.344813,
          "velocity": 0.7874015748031497
        },
        {
          "duration": 0.20689649999999915,
          "durationTicks": 48,
          "midi": 64,
          "name": "E4",
          "ticks": 13584,
          "time": 58.5517095,
          "velocity": 0.7874015748031497
        },
        {
          "duration": 0.20689649999999915,
          "durationTicks": 48,
          "midi": 76,
          "name": "E5",
          "ticks": 13584,
          "time": 58.5517095,
          "velocity": 0.7874015748031497
        },
        {
          "duration": 0.4137930000000054,
          "durationTicks": 96,
          "midi": 61,
          "name": "C#4",
          "ticks": 13632,
          "time": 58.758606,
          "velocity": 0.7874015748031497
        },
        {
          "duration": 0.4137930000000054,
          "durationTicks": 96,
          "midi": 73,
          "name": "C#5",
          "ticks": 13632,
          "time": 58.758606,
          "velocity": 0.7874015748031497
        },
        {
          "duration": 0.20689649999999915,
          "durationTicks": 48,
          "midi": 76,
          "name": "E5",
          "ticks": 13728,
          "time": 59.172399000000006,
          "velocity": 0.7874015748031497
        },
        {
          "duration": 0.20689649999999915,
          "durationTicks": 48,
          "midi": 64,
          "name": "E4",
          "ticks": 13728,
          "time": 59.172399000000006,
          "velocity": 0.7874015748031497
        },
        {
          "duration": 0.20689649999999915,
          "durationTicks": 48,
          "midi": 73,
          "name": "C#5",
          "ticks": 13776,
          "time": 59.379295500000005,
          "velocity": 0.7874015748031497
        },
        {
          "duration": 0.20689649999999915,
          "durationTicks": 48,
          "midi": 61,
          "name": "C#4",
          "ticks": 13776,
          "time": 59.379295500000005,
          "velocity": 0.7874015748031497
        },
        {
          "duration": 0.4137929999999983,
          "durationTicks": 96,
          "midi": 68,
          "name": "G#4",
          "ticks": 13824,
          "time": 59.586192000000004,
          "velocity": 0.7874015748031497
        },
        {
          "duration": 0.4137929999999983,
          "durationTicks": 96,
          "midi": 80,
          "name": "G#5",
          "ticks": 13824,
          "time": 59.586192000000004,
          "velocity": 0.7874015748031497
        },
        {
          "duration": 0.20689649999999915,
          "durationTicks": 48,
          "midi": 63,
          "name": "D#4",
          "ticks": 13920,
          "time": 59.999985,
          "velocity": 0.7874015748031497
        },
        {
          "duration": 0.20689649999999915,
          "durationTicks": 48,
          "midi": 75,
          "name": "D#5",
          "ticks": 13920,
          "time": 59.999985,
          "velocity": 0.7874015748031497
        },
        {
          "duration": 0.20689649999999915,
          "durationTicks": 48,
          "midi": 64,
          "name": "E4",
          "ticks": 13968,
          "time": 60.2068815,
          "velocity": 0.7874015748031497
        },
        {
          "duration": 0.20689649999999915,
          "durationTicks": 48,
          "midi": 76,
          "name": "E5",
          "ticks": 13968,
          "time": 60.2068815,
          "velocity": 0.7874015748031497
        },
        {
          "duration": 0.4137930000000054,
          "durationTicks": 96,
          "midi": 73,
          "name": "C#5",
          "ticks": 14016,
          "time": 60.413778,
          "velocity": 0.7874015748031497
        },
        {
          "duration": 0.4137930000000054,
          "durationTicks": 96,
          "midi": 61,
          "name": "C#4",
          "ticks": 14016,
          "time": 60.413778,
          "velocity": 0.7874015748031497
        },
        {
          "duration": 0.20689649999999915,
          "durationTicks": 48,
          "midi": 76,
          "name": "E5",
          "ticks": 14112,
          "time": 60.827571000000006,
          "velocity": 0.7874015748031497
        },
        {
          "duration": 0.20689649999999915,
          "durationTicks": 48,
          "midi": 64,
          "name": "E4",
          "ticks": 14112,
          "time": 60.827571000000006,
          "velocity": 0.7874015748031497
        },
        {
          "duration": 0.20689649999999915,
          "durationTicks": 48,
          "midi": 73,
          "name": "C#5",
          "ticks": 14160,
          "time": 61.034467500000005,
          "velocity": 0.7874015748031497
        },
        {
          "duration": 0.20689649999999915,
          "durationTicks": 48,
          "midi": 61,
          "name": "C#4",
          "ticks": 14160,
          "time": 61.034467500000005,
          "velocity": 0.7874015748031497
        },
        {
          "duration": 0.20689649999999915,
          "durationTicks": 48,
          "midi": 68,
          "name": "G#4",
          "ticks": 14208,
          "time": 61.241364000000004,
          "velocity": 0.7874015748031497
        },
        {
          "duration": 0.20689649999999915,
          "durationTicks": 48,
          "midi": 80,
          "name": "G#5",
          "ticks": 14208,
          "time": 61.241364000000004,
          "velocity": 0.7874015748031497
        },
        {
          "duration": 0.20689649999999915,
          "durationTicks": 48,
          "midi": 64,
          "name": "E4",
          "ticks": 14256,
          "time": 61.4482605,
          "velocity": 0.7874015748031497
        },
        {
          "duration": 0.20689649999999915,
          "durationTicks": 48,
          "midi": 76,
          "name": "E5",
          "ticks": 14256,
          "time": 61.4482605,
          "velocity": 0.7874015748031497
        },
        {
          "duration": 0.4137929999999983,
          "durationTicks": 96,
          "midi": 68,
          "name": "G#4",
          "ticks": 14592,
          "time": 62.896536000000005,
          "velocity": 0.7874015748031497
        },
        {
          "duration": 0.4137929999999983,
          "durationTicks": 96,
          "midi": 80,
          "name": "G#5",
          "ticks": 14592,
          "time": 62.896536000000005,
          "velocity": 0.7874015748031497
        },
        {
          "duration": 0.20689649999999915,
          "durationTicks": 48,
          "midi": 63,
          "name": "D#4",
          "ticks": 14688,
          "time": 63.310329,
          "velocity": 0.7874015748031497
        },
        {
          "duration": 0.20689649999999915,
          "durationTicks": 48,
          "midi": 75,
          "name": "D#5",
          "ticks": 14688,
          "time": 63.310329,
          "velocity": 0.7874015748031497
        },
        {
          "duration": 0.20689649999999915,
          "durationTicks": 48,
          "midi": 64,
          "name": "E4",
          "ticks": 14736,
          "time": 63.5172255,
          "velocity": 0.7874015748031497
        },
        {
          "duration": 0.20689649999999915,
          "durationTicks": 48,
          "midi": 76,
          "name": "E5",
          "ticks": 14736,
          "time": 63.5172255,
          "velocity": 0.7874015748031497
        },
        {
          "duration": 0.4137930000000054,
          "durationTicks": 96,
          "midi": 61,
          "name": "C#4",
          "ticks": 14784,
          "time": 63.724122,
          "velocity": 0.7874015748031497
        },
        {
          "duration": 0.4137930000000054,
          "durationTicks": 96,
          "midi": 73,
          "name": "C#5",
          "ticks": 14784,
          "time": 63.724122,
          "velocity": 0.7874015748031497
        },
        {
          "duration": 0.20689649999999915,
          "durationTicks": 48,
          "midi": 64,
          "name": "E4",
          "ticks": 14880,
          "time": 64.137915,
          "velocity": 0.7874015748031497
        },
        {
          "duration": 0.20689649999999915,
          "durationTicks": 48,
          "midi": 76,
          "name": "E5",
          "ticks": 14880,
          "time": 64.137915,
          "velocity": 0.7874015748031497
        },
        {
          "duration": 0.20689649999999915,
          "durationTicks": 48,
          "midi": 61,
          "name": "C#4",
          "ticks": 14928,
          "time": 64.3448115,
          "velocity": 0.7874015748031497
        },
        {
          "duration": 0.20689649999999915,
          "durationTicks": 48,
          "midi": 73,
          "name": "C#5",
          "ticks": 14928,
          "time": 64.3448115,
          "velocity": 0.7874015748031497
        },
        {
          "duration": 0.4137929999999983,
          "durationTicks": 96,
          "midi": 68,
          "name": "G#4",
          "ticks": 14976,
          "time": 64.551708,
          "velocity": 0.7874015748031497
        },
        {
          "duration": 0.4137929999999983,
          "durationTicks": 96,
          "midi": 80,
          "name": "G#5",
          "ticks": 14976,
          "time": 64.551708,
          "velocity": 0.7874015748031497
        },
        {
          "duration": 0.20689649999999915,
          "durationTicks": 48,
          "midi": 63,
          "name": "D#4",
          "ticks": 15072,
          "time": 64.965501,
          "velocity": 0.7874015748031497
        },
        {
          "duration": 0.20689649999999915,
          "durationTicks": 48,
          "midi": 75,
          "name": "D#5",
          "ticks": 15072,
          "time": 64.965501,
          "velocity": 0.7874015748031497
        },
        {
          "duration": 0.20689649999999915,
          "durationTicks": 48,
          "midi": 64,
          "name": "E4",
          "ticks": 15120,
          "time": 65.1723975,
          "velocity": 0.7874015748031497
        },
        {
          "duration": 0.20689649999999915,
          "durationTicks": 48,
          "midi": 76,
          "name": "E5",
          "ticks": 15120,
          "time": 65.1723975,
          "velocity": 0.7874015748031497
        },
        {
          "duration": 0.4137929999999983,
          "durationTicks": 96,
          "midi": 61,
          "name": "C#4",
          "ticks": 15168,
          "time": 65.379294,
          "velocity": 0.7874015748031497
        },
        {
          "duration": 0.4137929999999983,
          "durationTicks": 96,
          "midi": 73,
          "name": "C#5",
          "ticks": 15168,
          "time": 65.379294,
          "velocity": 0.7874015748031497
        },
        {
          "duration": 0.20689649999999915,
          "durationTicks": 48,
          "midi": 64,
          "name": "E4",
          "ticks": 15264,
          "time": 65.793087,
          "velocity": 0.7874015748031497
        },
        {
          "duration": 0.20689649999999915,
          "durationTicks": 48,
          "midi": 76,
          "name": "E5",
          "ticks": 15264,
          "time": 65.793087,
          "velocity": 0.7874015748031497
        },
        {
          "duration": 0.20689649999999915,
          "durationTicks": 48,
          "midi": 61,
          "name": "C#4",
          "ticks": 15312,
          "time": 65.9999835,
          "velocity": 0.7874015748031497
        },
        {
          "duration": 0.20689649999999915,
          "durationTicks": 48,
          "midi": 73,
          "name": "C#5",
          "ticks": 15312,
          "time": 65.9999835,
          "velocity": 0.7874015748031497
        },
        {
          "duration": 0.4137929999999983,
          "durationTicks": 96,
          "midi": 68,
          "name": "G#4",
          "ticks": 15360,
          "time": 66.20688,
          "velocity": 0.7874015748031497
        },
        {
          "duration": 0.4137929999999983,
          "durationTicks": 96,
          "midi": 80,
          "name": "G#5",
          "ticks": 15360,
          "time": 66.20688,
          "velocity": 0.7874015748031497
        },
        {
          "duration": 0.20689650000001336,
          "durationTicks": 48,
          "midi": 63,
          "name": "D#4",
          "ticks": 15456,
          "time": 66.620673,
          "velocity": 0.7874015748031497
        },
        {
          "duration": 0.20689650000001336,
          "durationTicks": 48,
          "midi": 75,
          "name": "D#5",
          "ticks": 15456,
          "time": 66.620673,
          "velocity": 0.7874015748031497
        },
        {
          "duration": 0.20689649999999915,
          "durationTicks": 48,
          "midi": 64,
          "name": "E4",
          "ticks": 15504,
          "time": 66.82756950000001,
          "velocity": 0.7874015748031497
        },
        {
          "duration": 0.20689649999999915,
          "durationTicks": 48,
          "midi": 76,
          "name": "E5",
          "ticks": 15504,
          "time": 66.82756950000001,
          "velocity": 0.7874015748031497
        },
        {
          "duration": 0.4137929999999983,
          "durationTicks": 96,
          "midi": 61,
          "name": "C#4",
          "ticks": 15552,
          "time": 67.03446600000001,
          "velocity": 0.7874015748031497
        },
        {
          "duration": 0.4137929999999983,
          "durationTicks": 96,
          "midi": 73,
          "name": "C#5",
          "ticks": 15552,
          "time": 67.03446600000001,
          "velocity": 0.7874015748031497
        },
        {
          "duration": 0.20689649999999915,
          "durationTicks": 48,
          "midi": 64,
          "name": "E4",
          "ticks": 15648,
          "time": 67.44825900000001,
          "velocity": 0.7874015748031497
        },
        {
          "duration": 0.20689649999999915,
          "durationTicks": 48,
          "midi": 76,
          "name": "E5",
          "ticks": 15648,
          "time": 67.44825900000001,
          "velocity": 0.7874015748031497
        },
        {
          "duration": 0.20689649999999915,
          "durationTicks": 48,
          "midi": 61,
          "name": "C#4",
          "ticks": 15696,
          "time": 67.6551555,
          "velocity": 0.7874015748031497
        },
        {
          "duration": 0.20689649999999915,
          "durationTicks": 48,
          "midi": 73,
          "name": "C#5",
          "ticks": 15696,
          "time": 67.6551555,
          "velocity": 0.7874015748031497
        },
        {
          "duration": 0.4137929999999983,
          "durationTicks": 96,
          "midi": 68,
          "name": "G#4",
          "ticks": 15744,
          "time": 67.862052,
          "velocity": 0.7874015748031497
        },
        {
          "duration": 0.4137929999999983,
          "durationTicks": 96,
          "midi": 80,
          "name": "G#5",
          "ticks": 15744,
          "time": 67.862052,
          "velocity": 0.7874015748031497
        },
        {
          "duration": 0.20689649999999915,
          "durationTicks": 48,
          "midi": 63,
          "name": "D#4",
          "ticks": 15840,
          "time": 68.275845,
          "velocity": 0.7874015748031497
        },
        {
          "duration": 0.20689649999999915,
          "durationTicks": 48,
          "midi": 75,
          "name": "D#5",
          "ticks": 15840,
          "time": 68.275845,
          "velocity": 0.7874015748031497
        },
        {
          "duration": 0.20689649999999915,
          "durationTicks": 48,
          "midi": 64,
          "name": "E4",
          "ticks": 15888,
          "time": 68.4827415,
          "velocity": 0.7874015748031497
        },
        {
          "duration": 0.20689649999999915,
          "durationTicks": 48,
          "midi": 76,
          "name": "E5",
          "ticks": 15888,
          "time": 68.4827415,
          "velocity": 0.7874015748031497
        },
        {
          "duration": 0.20689649999999915,
          "durationTicks": 48,
          "midi": 68,
          "name": "G#4",
          "ticks": 16128,
          "time": 69.517224,
          "velocity": 0.7874015748031497
        },
        {
          "duration": 0.20689649999999915,
          "durationTicks": 48,
          "midi": 80,
          "name": "G#5",
          "ticks": 16128,
          "time": 69.517224,
          "velocity": 0.7874015748031497
        },
        {
          "duration": 0.20689650000001336,
          "durationTicks": 48,
          "midi": 63,
          "name": "D#4",
          "ticks": 16224,
          "time": 69.931017,
          "velocity": 0.7874015748031497
        },
        {
          "duration": 0.20689650000001336,
          "durationTicks": 48,
          "midi": 75,
          "name": "D#5",
          "ticks": 16224,
          "time": 69.931017,
          "velocity": 0.7874015748031497
        },
        {
          "duration": 0.20689649999999915,
          "durationTicks": 48,
          "midi": 64,
          "name": "E4",
          "ticks": 16272,
          "time": 70.13791350000001,
          "velocity": 0.7874015748031497
        },
        {
          "duration": 0.20689649999999915,
          "durationTicks": 48,
          "midi": 76,
          "name": "E5",
          "ticks": 16272,
          "time": 70.13791350000001,
          "velocity": 0.7874015748031497
        },
        {
          "duration": 0.20689649999999915,
          "durationTicks": 48,
          "midi": 61,
          "name": "C#4",
          "ticks": 16320,
          "time": 70.34481000000001,
          "velocity": 0.7874015748031497
        },
        {
          "duration": 0.20689649999999915,
          "durationTicks": 48,
          "midi": 73,
          "name": "C#5",
          "ticks": 16320,
          "time": 70.34481000000001,
          "velocity": 0.7874015748031497
        },
        {
          "duration": 0.20689649999999915,
          "durationTicks": 48,
          "midi": 64,
          "name": "E4",
          "ticks": 16416,
          "time": 70.75860300000001,
          "velocity": 0.7874015748031497
        },
        {
          "duration": 0.20689649999999915,
          "durationTicks": 48,
          "midi": 76,
          "name": "E5",
          "ticks": 16416,
          "time": 70.75860300000001,
          "velocity": 0.7874015748031497
        },
        {
          "duration": 0.20689649999999915,
          "durationTicks": 48,
          "midi": 61,
          "name": "C#4",
          "ticks": 16464,
          "time": 70.9654995,
          "velocity": 0.7874015748031497
        },
        {
          "duration": 0.20689649999999915,
          "durationTicks": 48,
          "midi": 73,
          "name": "C#5",
          "ticks": 16464,
          "time": 70.9654995,
          "velocity": 0.7874015748031497
        },
        {
          "duration": 0.20689649999999915,
          "durationTicks": 48,
          "midi": 80,
          "name": "G#5",
          "ticks": 16512,
          "time": 71.172396,
          "velocity": 0.7874015748031497
        },
        {
          "duration": 0.20689649999999915,
          "durationTicks": 48,
          "midi": 68,
          "name": "G#4",
          "ticks": 16512,
          "time": 71.172396,
          "velocity": 0.7874015748031497
        },
        {
          "duration": 0.20689649999999915,
          "durationTicks": 48,
          "midi": 75,
          "name": "D#5",
          "ticks": 16608,
          "time": 71.586189,
          "velocity": 0.7874015748031497
        },
        {
          "duration": 0.20689649999999915,
          "durationTicks": 48,
          "midi": 63,
          "name": "D#4",
          "ticks": 16608,
          "time": 71.586189,
          "velocity": 0.7874015748031497
        },
        {
          "duration": 0.20689649999999915,
          "durationTicks": 48,
          "midi": 76,
          "name": "E5",
          "ticks": 16656,
          "time": 71.7930855,
          "velocity": 0.7874015748031497
        },
        {
          "duration": 0.20689649999999915,
          "durationTicks": 48,
          "midi": 64,
          "name": "E4",
          "ticks": 16656,
          "time": 71.7930855,
          "velocity": 0.7874015748031497
        },
        {
          "duration": 0.20689649999999915,
          "durationTicks": 48,
          "midi": 61,
          "name": "C#4",
          "ticks": 16704,
          "time": 71.999982,
          "velocity": 0.7874015748031497
        },
        {
          "duration": 0.20689649999999915,
          "durationTicks": 48,
          "midi": 73,
          "name": "C#5",
          "ticks": 16704,
          "time": 71.999982,
          "velocity": 0.7874015748031497
        },
        {
          "duration": 0.20689649999999915,
          "durationTicks": 48,
          "midi": 64,
          "name": "E4",
          "ticks": 16800,
          "time": 72.413775,
          "velocity": 0.7874015748031497
        },
        {
          "duration": 0.20689649999999915,
          "durationTicks": 48,
          "midi": 76,
          "name": "E5",
          "ticks": 16800,
          "time": 72.413775,
          "velocity": 0.7874015748031497
        },
        {
          "duration": 0.20689649999999915,
          "durationTicks": 48,
          "midi": 61,
          "name": "C#4",
          "ticks": 16848,
          "time": 72.6206715,
          "velocity": 0.7874015748031497
        },
        {
          "duration": 0.20689649999999915,
          "durationTicks": 48,
          "midi": 73,
          "name": "C#5",
          "ticks": 16848,
          "time": 72.6206715,
          "velocity": 0.7874015748031497
        },
        {
          "duration": 0.20689649999999915,
          "durationTicks": 48,
          "midi": 68,
          "name": "G#4",
          "ticks": 16896,
          "time": 72.827568,
          "velocity": 0.7874015748031497
        },
        {
          "duration": 0.20689649999999915,
          "durationTicks": 48,
          "midi": 80,
          "name": "G#5",
          "ticks": 16896,
          "time": 72.827568,
          "velocity": 0.7874015748031497
        },
        {
          "duration": 0.20689649999999915,
          "durationTicks": 48,
          "midi": 75,
          "name": "D#5",
          "ticks": 16992,
          "time": 73.241361,
          "velocity": 0.7874015748031497
        },
        {
          "duration": 0.20689649999999915,
          "durationTicks": 48,
          "midi": 63,
          "name": "D#4",
          "ticks": 16992,
          "time": 73.241361,
          "velocity": 0.7874015748031497
        },
        {
          "duration": 0.20689650000001336,
          "durationTicks": 48,
          "midi": 76,
          "name": "E5",
          "ticks": 17040,
          "time": 73.4482575,
          "velocity": 0.7874015748031497
        },
        {
          "duration": 0.20689650000001336,
          "durationTicks": 48,
          "midi": 64,
          "name": "E4",
          "ticks": 17040,
          "time": 73.4482575,
          "velocity": 0.7874015748031497
        },
        {
          "duration": 0.20689649999999915,
          "durationTicks": 48,
          "midi": 61,
          "name": "C#4",
          "ticks": 17088,
          "time": 73.65515400000001,
          "velocity": 0.7874015748031497
        },
        {
          "duration": 0.20689649999999915,
          "durationTicks": 48,
          "midi": 73,
          "name": "C#5",
          "ticks": 17088,
          "time": 73.65515400000001,
          "velocity": 0.7874015748031497
        },
        {
          "duration": 0.20689649999999915,
          "durationTicks": 48,
          "midi": 76,
          "name": "E5",
          "ticks": 17184,
          "time": 74.06894700000001,
          "velocity": 0.7874015748031497
        },
        {
          "duration": 0.20689649999999915,
          "durationTicks": 48,
          "midi": 64,
          "name": "E4",
          "ticks": 17184,
          "time": 74.06894700000001,
          "velocity": 0.7874015748031497
        },
        {
          "duration": 0.20689649999999915,
          "durationTicks": 48,
          "midi": 73,
          "name": "C#5",
          "ticks": 17232,
          "time": 74.27584350000001,
          "velocity": 0.7874015748031497
        },
        {
          "duration": 0.20689649999999915,
          "durationTicks": 48,
          "midi": 61,
          "name": "C#4",
          "ticks": 17232,
          "time": 74.27584350000001,
          "velocity": 0.7874015748031497
        },
        {
          "duration": 0.20689649999999915,
          "durationTicks": 48,
          "midi": 68,
          "name": "G#4",
          "ticks": 17280,
          "time": 74.48274,
          "velocity": 0.7874015748031497
        },
        {
          "duration": 0.20689649999999915,
          "durationTicks": 48,
          "midi": 80,
          "name": "G#5",
          "ticks": 17280,
          "time": 74.48274,
          "velocity": 0.7874015748031497
        },
        {
          "duration": 0.20689649999999915,
          "durationTicks": 48,
          "midi": 66,
          "name": "F#4",
          "ticks": 17376,
          "time": 74.896533,
          "velocity": 0.6614173228346457
        },
        {
          "duration": 0.20689649999999915,
          "durationTicks": 48,
          "midi": 78,
          "name": "F#5",
          "ticks": 17376,
          "time": 74.896533,
          "velocity": 0.6614173228346457
        },
        {
          "duration": 0.20689649999999915,
          "durationTicks": 48,
          "midi": 76,
          "name": "E5",
          "ticks": 17424,
          "time": 75.1034295,
          "velocity": 0.6614173228346457
        },
        {
          "duration": 0.20689649999999915,
          "durationTicks": 48,
          "midi": 64,
          "name": "E4",
          "ticks": 17424,
          "time": 75.1034295,
          "velocity": 0.6614173228346457
        },
        {
          "duration": 0.20689649999999915,
          "durationTicks": 48,
          "midi": 63,
          "name": "D#4",
          "ticks": 17472,
          "time": 75.310326,
          "velocity": 0.6614173228346457
        },
        {
          "duration": 0.20689649999999915,
          "durationTicks": 48,
          "midi": 75,
          "name": "D#5",
          "ticks": 17472,
          "time": 75.310326,
          "velocity": 0.6614173228346457
        },
        {
          "duration": 0.20689649999999915,
          "durationTicks": 48,
          "midi": 64,
          "name": "E4",
          "ticks": 17568,
          "time": 75.724119,
          "velocity": 0.6614173228346457
        },
        {
          "duration": 0.20689649999999915,
          "durationTicks": 48,
          "midi": 76,
          "name": "E5",
          "ticks": 17568,
          "time": 75.724119,
          "velocity": 0.6614173228346457
        },
        {
          "duration": 0.20689649999999915,
          "durationTicks": 48,
          "midi": 63,
          "name": "D#4",
          "ticks": 17616,
          "time": 75.9310155,
          "velocity": 0.6614173228346457
        },
        {
          "duration": 0.20689649999999915,
          "durationTicks": 48,
          "midi": 75,
          "name": "D#5",
          "ticks": 17616,
          "time": 75.9310155,
          "velocity": 0.6614173228346457
        },
        {
          "duration": 0.20689649999999915,
          "durationTicks": 48,
          "midi": 56,
          "name": "G#3",
          "ticks": 18816,
          "time": 81.10342800000001,
          "velocity": 0.4881889763779528
        },
        {
          "duration": 0.20689649999999915,
          "durationTicks": 48,
          "midi": 68,
          "name": "G#4",
          "ticks": 18816,
          "time": 81.10342800000001,
          "velocity": 0.4881889763779528
        },
        {
          "duration": 0.20689649999999915,
          "durationTicks": 48,
          "midi": 68,
          "name": "G#4",
          "ticks": 18864,
          "time": 81.31032450000001,
          "velocity": 0.4881889763779528
        },
        {
          "duration": 0.20689649999999915,
          "durationTicks": 48,
          "midi": 56,
          "name": "G#3",
          "ticks": 18864,
          "time": 81.31032450000001,
          "velocity": 0.4881889763779528
        },
        {
          "duration": 0.20689649999999915,
          "durationTicks": 48,
          "midi": 51,
          "name": "D#3",
          "ticks": 18912,
          "time": 81.517221,
          "velocity": 0.4881889763779528
        },
        {
          "duration": 0.20689649999999915,
          "durationTicks": 48,
          "midi": 63,
          "name": "D#4",
          "ticks": 18912,
          "time": 81.517221,
          "velocity": 0.4881889763779528
        },
        {
          "duration": 0.20689649999999915,
          "durationTicks": 48,
          "midi": 52,
          "name": "E3",
          "ticks": 18960,
          "time": 81.7241175,
          "velocity": 0.4881889763779528
        },
        {
          "duration": 0.20689649999999915,
          "durationTicks": 48,
          "midi": 64,
          "name": "E4",
          "ticks": 18960,
          "time": 81.7241175,
          "velocity": 0.4881889763779528
        },
        {
          "duration": 0.20689649999999915,
          "durationTicks": 48,
          "midi": 49,
          "name": "C#3",
          "ticks": 19008,
          "time": 81.931014,
          "velocity": 0.4881889763779528
        },
        {
          "duration": 0.20689649999999915,
          "durationTicks": 48,
          "midi": 61,
          "name": "C#4",
          "ticks": 19008,
          "time": 81.931014,
          "velocity": 0.4881889763779528
        },
        {
          "duration": 0.20689649999999915,
          "durationTicks": 48,
          "midi": 49,
          "name": "C#3",
          "ticks": 19056,
          "time": 82.1379105,
          "velocity": 0.4881889763779528
        },
        {
          "duration": 0.20689649999999915,
          "durationTicks": 48,
          "midi": 61,
          "name": "C#4",
          "ticks": 19056,
          "time": 82.1379105,
          "velocity": 0.4881889763779528
        },
        {
          "duration": 0.20689649999999915,
          "durationTicks": 48,
          "midi": 52,
          "name": "E3",
          "ticks": 19104,
          "time": 82.344807,
          "velocity": 0.4881889763779528
        },
        {
          "duration": 0.20689649999999915,
          "durationTicks": 48,
          "midi": 64,
          "name": "E4",
          "ticks": 19104,
          "time": 82.344807,
          "velocity": 0.4881889763779528
        },
        {
          "duration": 0.20689649999999915,
          "durationTicks": 48,
          "midi": 61,
          "name": "C#4",
          "ticks": 19152,
          "time": 82.5517035,
          "velocity": 0.4881889763779528
        },
        {
          "duration": 0.20689649999999915,
          "durationTicks": 48,
          "midi": 49,
          "name": "C#3",
          "ticks": 19152,
          "time": 82.5517035,
          "velocity": 0.4881889763779528
        }
      ],
      "endOfTrackTicks": 32641
    },
    {
      "channel": 1,
      "controlChanges": {
        "6": [
          {
            "number": 6,
            "ticks": 0,
            "time": 0,
            "value": 0.09448818897637795
          },
          {
            "number": 6,
            "ticks": 0,
            "time": 0,
            "value": 0.09448818897637795
          },
          {
            "number": 6,
            "ticks": 0,
            "time": 0,
            "value": 0.09448818897637795
          },
          {
            "number": 6,
            "ticks": 32640,
            "time": 140.68962000000002,
            "value": 0.09448818897637795
          },
          {
            "number": 6,
            "ticks": 32641,
            "time": 140.69393034375003,
            "value": 0.09448818897637795
          }
        ],
        "7": [
          {
            "number": 7,
            "ticks": 0,
            "time": 0,
            "value": 0.4645669291338583
          },
          {
            "number": 7,
            "ticks": 0,
            "time": 0,
            "value": 0.4645669291338583
          },
          {
            "number": 7,
            "ticks": 0,
            "time": 0,
            "value": 0.4645669291338583
          },
          {
            "number": 7,
            "ticks": 0,
            "time": 0,
            "value": 0.4645669291338583
          },
          {
            "number": 7,
            "ticks": 32640,
            "time": 140.68962000000002,
            "value": 0.4645669291338583
          },
          {
            "number": 7,
            "ticks": 32641,
            "time": 140.69393034375003,
            "value": 0.4645669291338583
          }
        ],
        "10": [
          {
            "number": 10,
            "ticks": 0,
            "time": 0,
            "value": 1
          },
          {
            "number": 10,
            "ticks": 0,
            "time": 0,
            "value": 1
          },
          {
            "number": 10,
            "ticks": 0,
            "time": 0,
            "value": 1
          },
          {
            "number": 10,
            "ticks": 0,
            "time": 0,
            "value": 1
          },
          {
            "number": 10,
            "ticks": 32640,
            "time": 140.68962000000002,
            "value": 1
          },
          {
            "number": 10,
            "ticks": 32641,
            "time": 140.69393034375003,
            "value": 1
          }
        ],
        "100": [
          {
            "number": 100,
            "ticks": 0,
            "time": 0,
            "value": 0
          },
          {
            "number": 100,
            "ticks": 0,
            "time": 0,
            "value": 0
          },
          {
            "number": 100,
            "ticks": 0,
            "time": 0,
            "value": 0
          },
          {
            "number": 100,
            "ticks": 32640,
            "time": 140.68962000000002,
            "value": 0
          },
          {
            "number": 100,
            "ticks": 32641,
            "time": 140.69393034375003,
            "value": 0
          }
        ],
        "101": [
          {
            "number": 101,
            "ticks": 0,
            "time": 0,
            "value": 0
          },
          {
            "number": 101,
            "ticks": 0,
            "time": 0,
            "value": 0
          },
          {
            "number": 101,
            "ticks": 0,
            "time": 0,
            "value": 0
          },
          {
            "number": 101,
            "ticks": 32640,
            "time": 140.68962000000002,
            "value": 0
          },
          {
            "number": 101,
            "ticks": 32641,
            "time": 140.69393034375003,
            "value": 0
          }
        ]
      },
      "pitchBends": [
        {
          "ticks": 0,
          "time": 0,
          "value": 0
        },
        {
          "ticks": 0,
          "time": 0,
          "value": 0
        },
        {
          "ticks": 0,
          "time": 0,
          "value": 0
        },
        {
          "ticks": 0,
          "time": 0,
          "value": 0
        },
        {
          "ticks": 32640,
          "time": 140.68962000000002,
          "value": 0
        },
        {
          "ticks": 32641,
          "time": 140.69393034375003,
          "value": 0
        }
      ],
      "instrument": {
        "family": "piano",
        "number": 0,
        "name": "acoustic grand piano"
      },
      "name": "FL Keys #4",
      "notes": [
        {
          "duration": 0.4137929999999983,
          "durationTicks": 96,
          "midi": 80,
          "name": "G#5",
          "ticks": 13056,
          "time": 56.275848,
          "velocity": 0.7874015748031497
        },
        {
          "duration": 0.4137929999999983,
          "durationTicks": 96,
          "midi": 68,
          "name": "G#4",
          "ticks": 13056,
          "time": 56.275848,
          "velocity": 0.7874015748031497
        },
        {
          "duration": 0.20689649999999915,
          "durationTicks": 48,
          "midi": 75,
          "name": "D#5",
          "ticks": 13152,
          "time": 56.689641,
          "velocity": 0.7874015748031497
        },
        {
          "duration": 0.20689649999999915,
          "durationTicks": 48,
          "midi": 63,
          "name": "D#4",
          "ticks": 13152,
          "time": 56.689641,
          "velocity": 0.7874015748031497
        },
        {
          "duration": 0.20689649999999915,
          "durationTicks": 48,
          "midi": 76,
          "name": "E5",
          "ticks": 13200,
          "time": 56.8965375,
          "velocity": 0.7874015748031497
        },
        {
          "duration": 0.20689649999999915,
          "durationTicks": 48,
          "midi": 64,
          "name": "E4",
          "ticks": 13200,
          "time": 56.8965375,
          "velocity": 0.7874015748031497
        },
        {
          "duration": 0.4137930000000054,
          "durationTicks": 96,
          "midi": 73,
          "name": "C#5",
          "ticks": 13248,
          "time": 57.103434,
          "velocity": 0.7874015748031497
        },
        {
          "duration": 0.4137930000000054,
          "durationTicks": 96,
          "midi": 61,
          "name": "C#4",
          "ticks": 13248,
          "time": 57.103434,
          "velocity": 0.7874015748031497
        },
        {
          "duration": 0.20689649999999915,
          "durationTicks": 48,
          "midi": 64,
          "name": "E4",
          "ticks": 13344,
          "time": 57.517227000000005,
          "velocity": 0.7874015748031497
        },
        {
          "duration": 0.20689649999999915,
          "durationTicks": 48,
          "midi": 76,
          "name": "E5",
          "ticks": 13344,
          "time": 57.517227000000005,
          "velocity": 0.7874015748031497
        },
        {
          "duration": 0.20689649999999915,
          "durationTicks": 48,
          "midi": 73,
          "name": "C#5",
          "ticks": 13392,
          "time": 57.724123500000005,
          "velocity": 0.7874015748031497
        },
        {
          "duration": 0.20689649999999915,
          "durationTicks": 48,
          "midi": 61,
          "name": "C#4",
          "ticks": 13392,
          "time": 57.724123500000005,
          "velocity": 0.7874015748031497
        },
        {
          "duration": 0.4137929999999983,
          "durationTicks": 96,
          "midi": 68,
          "name": "G#4",
          "ticks": 13440,
          "time": 57.931020000000004,
          "velocity": 0.7874015748031497
        },
        {
          "duration": 0.4137929999999983,
          "durationTicks": 96,
          "midi": 80,
          "name": "G#5",
          "ticks": 13440,
          "time": 57.931020000000004,
          "velocity": 0.7874015748031497
        },
        {
          "duration": 0.20689649999999915,
          "durationTicks": 48,
          "midi": 75,
          "name": "D#5",
          "ticks": 13536,
          "time": 58.344813,
          "velocity": 0.7874015748031497
        },
        {
          "duration": 0.20689649999999915,
          "durationTicks": 48,
          "midi": 63,
          "name": "D#4",
          "ticks": 13536,
          "time": 58.344813,
          "velocity": 0.7874015748031497
        },
        {
          "duration": 0.20689649999999915,
          "durationTicks": 48,
          "midi": 64,
          "name": "E4",
          "ticks": 13584,
          "time": 58.5517095,
          "velocity": 0.7874015748031497
        },
        {
          "duration": 0.20689649999999915,
          "durationTicks": 48,
          "midi": 76,
          "name": "E5",
          "ticks": 13584,
          "time": 58.5517095,
          "velocity": 0.7874015748031497
        },
        {
          "duration": 0.4137930000000054,
          "durationTicks": 96,
          "midi": 61,
          "name": "C#4",
          "ticks": 13632,
          "time": 58.758606,
          "velocity": 0.7874015748031497
        },
        {
          "duration": 0.4137930000000054,
          "durationTicks": 96,
          "midi": 73,
          "name": "C#5",
          "ticks": 13632,
          "time": 58.758606,
          "velocity": 0.7874015748031497
        },
        {
          "duration": 0.20689649999999915,
          "durationTicks": 48,
          "midi": 76,
          "name": "E5",
          "ticks": 13728,
          "time": 59.172399000000006,
          "velocity": 0.7874015748031497
        },
        {
          "duration": 0.20689649999999915,
          "durationTicks": 48,
          "midi": 64,
          "name": "E4",
          "ticks": 13728,
          "time": 59.172399000000006,
          "velocity": 0.7874015748031497
        },
        {
          "duration": 0.20689649999999915,
          "durationTicks": 48,
          "midi": 73,
          "name": "C#5",
          "ticks": 13776,
          "time": 59.379295500000005,
          "velocity": 0.7874015748031497
        },
        {
          "duration": 0.20689649999999915,
          "durationTicks": 48,
          "midi": 61,
          "name": "C#4",
          "ticks": 13776,
          "time": 59.379295500000005,
          "velocity": 0.7874015748031497
        },
        {
          "duration": 0.4137929999999983,
          "durationTicks": 96,
          "midi": 68,
          "name": "G#4",
          "ticks": 13824,
          "time": 59.586192000000004,
          "velocity": 0.7874015748031497
        },
        {
          "duration": 0.4137929999999983,
          "durationTicks": 96,
          "midi": 80,
          "name": "G#5",
          "ticks": 13824,
          "time": 59.586192000000004,
          "velocity": 0.7874015748031497
        },
        {
          "duration": 0.20689649999999915,
          "durationTicks": 48,
          "midi": 63,
          "name": "D#4",
          "ticks": 13920,
          "time": 59.999985,
          "velocity": 0.7874015748031497
        },
        {
          "duration": 0.20689649999999915,
          "durationTicks": 48,
          "midi": 75,
          "name": "D#5",
          "ticks": 13920,
          "time": 59.999985,
          "velocity": 0.7874015748031497
        },
        {
          "duration": 0.20689649999999915,
          "durationTicks": 48,
          "midi": 64,
          "name": "E4",
          "ticks": 13968,
          "time": 60.2068815,
          "velocity": 0.7874015748031497
        },
        {
          "duration": 0.20689649999999915,
          "durationTicks": 48,
          "midi": 76,
          "name": "E5",
          "ticks": 13968,
          "time": 60.2068815,
          "velocity": 0.7874015748031497
        },
        {
          "duration": 0.4137930000000054,
          "durationTicks": 96,
          "midi": 73,
          "name": "C#5",
          "ticks": 14016,
          "time": 60.413778,
          "velocity": 0.7874015748031497
        },
        {
          "duration": 0.4137930000000054,
          "durationTicks": 96,
          "midi": 61,
          "name": "C#4",
          "ticks": 14016,
          "time": 60.413778,
          "velocity": 0.7874015748031497
        },
        {
          "duration": 0.20689649999999915,
          "durationTicks": 48,
          "midi": 76,
          "name": "E5",
          "ticks": 14112,
          "time": 60.827571000000006,
          "velocity": 0.7874015748031497
        },
        {
          "duration": 0.20689649999999915,
          "durationTicks": 48,
          "midi": 64,
          "name": "E4",
          "ticks": 14112,
          "time": 60.827571000000006,
          "velocity": 0.7874015748031497
        },
        {
          "duration": 0.20689649999999915,
          "durationTicks": 48,
          "midi": 73,
          "name": "C#5",
          "ticks": 14160,
          "time": 61.034467500000005,
          "velocity": 0.7874015748031497
        },
        {
          "duration": 0.20689649999999915,
          "durationTicks": 48,
          "midi": 61,
          "name": "C#4",
          "ticks": 14160,
          "time": 61.034467500000005,
          "velocity": 0.7874015748031497
        },
        {
          "duration": 0.20689649999999915,
          "durationTicks": 48,
          "midi": 68,
          "name": "G#4",
          "ticks": 14208,
          "time": 61.241364000000004,
          "velocity": 0.7874015748031497
        },
        {
          "duration": 0.20689649999999915,
          "durationTicks": 48,
          "midi": 80,
          "name": "G#5",
          "ticks": 14208,
          "time": 61.241364000000004,
          "velocity": 0.7874015748031497
        },
        {
          "duration": 0.20689649999999915,
          "durationTicks": 48,
          "midi": 64,
          "name": "E4",
          "ticks": 14256,
          "time": 61.4482605,
          "velocity": 0.7874015748031497
        },
        {
          "duration": 0.20689649999999915,
          "durationTicks": 48,
          "midi": 76,
          "name": "E5",
          "ticks": 14256,
          "time": 61.4482605,
          "velocity": 0.7874015748031497
        },
        {
          "duration": 0.4137929999999983,
          "durationTicks": 96,
          "midi": 68,
          "name": "G#4",
          "ticks": 14592,
          "time": 62.896536000000005,
          "velocity": 0.7874015748031497
        },
        {
          "duration": 0.4137929999999983,
          "durationTicks": 96,
          "midi": 80,
          "name": "G#5",
          "ticks": 14592,
          "time": 62.896536000000005,
          "velocity": 0.7874015748031497
        },
        {
          "duration": 0.20689649999999915,
          "durationTicks": 48,
          "midi": 63,
          "name": "D#4",
          "ticks": 14688,
          "time": 63.310329,
          "velocity": 0.7874015748031497
        },
        {
          "duration": 0.20689649999999915,
          "durationTicks": 48,
          "midi": 75,
          "name": "D#5",
          "ticks": 14688,
          "time": 63.310329,
          "velocity": 0.7874015748031497
        },
        {
          "duration": 0.20689649999999915,
          "durationTicks": 48,
          "midi": 64,
          "name": "E4",
          "ticks": 14736,
          "time": 63.5172255,
          "velocity": 0.7874015748031497
        },
        {
          "duration": 0.20689649999999915,
          "durationTicks": 48,
          "midi": 76,
          "name": "E5",
          "ticks": 14736,
          "time": 63.5172255,
          "velocity": 0.7874015748031497
        },
        {
          "duration": 0.4137930000000054,
          "durationTicks": 96,
          "midi": 61,
          "name": "C#4",
          "ticks": 14784,
          "time": 63.724122,
          "velocity": 0.7874015748031497
        },
        {
          "duration": 0.4137930000000054,
          "durationTicks": 96,
          "midi": 73,
          "name": "C#5",
          "ticks": 14784,
          "time": 63.724122,
          "velocity": 0.7874015748031497
        },
        {
          "duration": 0.20689649999999915,
          "durationTicks": 48,
          "midi": 64,
          "name": "E4",
          "ticks": 14880,
          "time": 64.137915,
          "velocity": 0.7874015748031497
        },
        {
          "duration": 0.20689649999999915,
          "durationTicks": 48,
          "midi": 76,
          "name": "E5",
          "ticks": 14880,
          "time": 64.137915,
          "velocity": 0.7874015748031497
        },
        {
          "duration": 0.20689649999999915,
          "durationTicks": 48,
          "midi": 61,
          "name": "C#4",
          "ticks": 14928,
          "time": 64.3448115,
          "velocity": 0.7874015748031497
        },
        {
          "duration": 0.20689649999999915,
          "durationTicks": 48,
          "midi": 73,
          "name": "C#5",
          "ticks": 14928,
          "time": 64.3448115,
          "velocity": 0.7874015748031497
        },
        {
          "duration": 0.4137929999999983,
          "durationTicks": 96,
          "midi": 68,
          "name": "G#4",
          "ticks": 14976,
          "time": 64.551708,
          "velocity": 0.7874015748031497
        },
        {
          "duration": 0.4137929999999983,
          "durationTicks": 96,
          "midi": 80,
          "name": "G#5",
          "ticks": 14976,
          "time": 64.551708,
          "velocity": 0.7874015748031497
        },
        {
          "duration": 0.20689649999999915,
          "durationTicks": 48,
          "midi": 63,
          "name": "D#4",
          "ticks": 15072,
          "time": 64.965501,
          "velocity": 0.7874015748031497
        },
        {
          "duration": 0.20689649999999915,
          "durationTicks": 48,
          "midi": 75,
          "name": "D#5",
          "ticks": 15072,
          "time": 64.965501,
          "velocity": 0.7874015748031497
        },
        {
          "duration": 0.20689649999999915,
          "durationTicks": 48,
          "midi": 64,
          "name": "E4",
          "ticks": 15120,
          "time": 65.1723975,
          "velocity": 0.7874015748031497
        },
        {
          "duration": 0.20689649999999915,
          "durationTicks": 48,
          "midi": 76,
          "name": "E5",
          "ticks": 15120,
          "time": 65.1723975,
          "velocity": 0.7874015748031497
        },
        {
          "duration": 0.4137929999999983,
          "durationTicks": 96,
          "midi": 61,
          "name": "C#4",
          "ticks": 15168,
          "time": 65.379294,
          "velocity": 0.7874015748031497
        },
        {
          "duration": 0.4137929999999983,
          "durationTicks": 96,
          "midi": 73,
          "name": "C#5",
          "ticks": 15168,
          "time": 65.379294,
          "velocity": 0.7874015748031497
        },
        {
          "duration": 0.20689649999999915,
          "durationTicks": 48,
          "midi": 64,
          "name": "E4",
          "ticks": 15264,
          "time": 65.793087,
          "velocity": 0.7874015748031497
        },
        {
          "duration": 0.20689649999999915,
          "durationTicks": 48,
          "midi": 76,
          "name": "E5",
          "ticks": 15264,
          "time": 65.793087,
          "velocity": 0.7874015748031497
        },
        {
          "duration": 0.20689649999999915,
          "durationTicks": 48,
          "midi": 61,
          "name": "C#4",
          "ticks": 15312,
          "time": 65.9999835,
          "velocity": 0.7874015748031497
        },
        {
          "duration": 0.20689649999999915,
          "durationTicks": 48,
          "midi": 73,
          "name": "C#5",
          "ticks": 15312,
          "time": 65.9999835,
          "velocity": 0.7874015748031497
        },
        {
          "duration": 0.4137929999999983,
          "durationTicks": 96,
          "midi": 68,
          "name": "G#4",
          "ticks": 15360,
          "time": 66.20688,
          "velocity": 0.7874015748031497
        },
        {
          "duration": 0.4137929999999983,
          "durationTicks": 96,
          "midi": 80,
          "name": "G#5",
          "ticks": 15360,
          "time": 66.20688,
          "velocity": 0.7874015748031497
        },
        {
          "duration": 0.20689650000001336,
          "durationTicks": 48,
          "midi": 63,
          "name": "D#4",
          "ticks": 15456,
          "time": 66.620673,
          "velocity": 0.7874015748031497
        },
        {
          "duration": 0.20689650000001336,
          "durationTicks": 48,
          "midi": 75,
          "name": "D#5",
          "ticks": 15456,
          "time": 66.620673,
          "velocity": 0.7874015748031497
        },
        {
          "duration": 0.20689649999999915,
          "durationTicks": 48,
          "midi": 64,
          "name": "E4",
          "ticks": 15504,
          "time": 66.82756950000001,
          "velocity": 0.7874015748031497
        },
        {
          "duration": 0.20689649999999915,
          "durationTicks": 48,
          "midi": 76,
          "name": "E5",
          "ticks": 15504,
          "time": 66.82756950000001,
          "velocity": 0.7874015748031497
        },
        {
          "duration": 0.4137929999999983,
          "durationTicks": 96,
          "midi": 61,
          "name": "C#4",
          "ticks": 15552,
          "time": 67.03446600000001,
          "velocity": 0.7874015748031497
        },
        {
          "duration": 0.4137929999999983,
          "durationTicks": 96,
          "midi": 73,
          "name": "C#5",
          "ticks": 15552,
          "time": 67.03446600000001,
          "velocity": 0.7874015748031497
        },
        {
          "duration": 0.20689649999999915,
          "durationTicks": 48,
          "midi": 64,
          "name": "E4",
          "ticks": 15648,
          "time": 67.44825900000001,
          "velocity": 0.7874015748031497
        },
        {
          "duration": 0.20689649999999915,
          "durationTicks": 48,
          "midi": 76,
          "name": "E5",
          "ticks": 15648,
          "time": 67.44825900000001,
          "velocity": 0.7874015748031497
        },
        {
          "duration": 0.20689649999999915,
          "durationTicks": 48,
          "midi": 61,
          "name": "C#4",
          "ticks": 15696,
          "time": 67.6551555,
          "velocity": 0.7874015748031497
        },
        {
          "duration": 0.20689649999999915,
          "durationTicks": 48,
          "midi": 73,
          "name": "C#5",
          "ticks": 15696,
          "time": 67.6551555,
          "velocity": 0.7874015748031497
        },
        {
          "duration": 0.4137929999999983,
          "durationTicks": 96,
          "midi": 68,
          "name": "G#4",
          "ticks": 15744,
          "time": 67.862052,
          "velocity": 0.7874015748031497
        },
        {
          "duration": 0.4137929999999983,
          "durationTicks": 96,
          "midi": 80,
          "name": "G#5",
          "ticks": 15744,
          "time": 67.862052,
          "velocity": 0.7874015748031497
        },
        {
          "duration": 0.20689649999999915,
          "durationTicks": 48,
          "midi": 63,
          "name": "D#4",
          "ticks": 15840,
          "time": 68.275845,
          "velocity": 0.7874015748031497
        },
        {
          "duration": 0.20689649999999915,
          "durationTicks": 48,
          "midi": 75,
          "name": "D#5",
          "ticks": 15840,
          "time": 68.275845,
          "velocity": 0.7874015748031497
        },
        {
          "duration": 0.20689649999999915,
          "durationTicks": 48,
          "midi": 64,
          "name": "E4",
          "ticks": 15888,
          "time": 68.4827415,
          "velocity": 0.7874015748031497
        },
        {
          "duration": 0.20689649999999915,
          "durationTicks": 48,
          "midi": 76,
          "name": "E5",
          "ticks": 15888,
          "time": 68.4827415,
          "velocity": 0.7874015748031497
        },
        {
          "duration": 0.20689649999999915,
          "durationTicks": 48,
          "midi": 68,
          "name": "G#4",
          "ticks": 16128,
          "time": 69.517224,
          "velocity": 0.7874015748031497
        },
        {
          "duration": 0.20689649999999915,
          "durationTicks": 48,
          "midi": 80,
          "name": "G#5",
          "ticks": 16128,
          "time": 69.517224,
          "velocity": 0.7874015748031497
        },
        {
          "duration": 0.20689650000001336,
          "durationTicks": 48,
          "midi": 63,
          "name": "D#4",
          "ticks": 16224,
          "time": 69.931017,
          "velocity": 0.7874015748031497
        },
        {
          "duration": 0.20689650000001336,
          "durationTicks": 48,
          "midi": 75,
          "name": "D#5",
          "ticks": 16224,
          "time": 69.931017,
          "velocity": 0.7874015748031497
        },
        {
          "duration": 0.20689649999999915,
          "durationTicks": 48,
          "midi": 64,
          "name": "E4",
          "ticks": 16272,
          "time": 70.13791350000001,
          "velocity": 0.7874015748031497
        },
        {
          "duration": 0.20689649999999915,
          "durationTicks": 48,
          "midi": 76,
          "name": "E5",
          "ticks": 16272,
          "time": 70.13791350000001,
          "velocity": 0.7874015748031497
        },
        {
          "duration": 0.20689649999999915,
          "durationTicks": 48,
          "midi": 61,
          "name": "C#4",
          "ticks": 16320,
          "time": 70.34481000000001,
          "velocity": 0.7874015748031497
        },
        {
          "duration": 0.20689649999999915,
          "durationTicks": 48,
          "midi": 73,
          "name": "C#5",
          "ticks": 16320,
          "time": 70.34481000000001,
          "velocity": 0.7874015748031497
        },
        {
          "duration": 0.20689649999999915,
          "durationTicks": 48,
          "midi": 64,
          "name": "E4",
          "ticks": 16416,
          "time": 70.75860300000001,
          "velocity": 0.7874015748031497
        },
        {
          "duration": 0.20689649999999915,
          "durationTicks": 48,
          "midi": 76,
          "name": "E5",
          "ticks": 16416,
          "time": 70.75860300000001,
          "velocity": 0.7874015748031497
        },
        {
          "duration": 0.20689649999999915,
          "durationTicks": 48,
          "midi": 61,
          "name": "C#4",
          "ticks": 16464,
          "time": 70.9654995,
          "velocity": 0.7874015748031497
        },
        {
          "duration": 0.20689649999999915,
          "durationTicks": 48,
          "midi": 73,
          "name": "C#5",
          "ticks": 16464,
          "time": 70.9654995,
          "velocity": 0.7874015748031497
        },
        {
          "duration": 0.20689649999999915,
          "durationTicks": 48,
          "midi": 80,
          "name": "G#5",
          "ticks": 16512,
          "time": 71.172396,
          "velocity": 0.7874015748031497
        },
        {
          "duration": 0.20689649999999915,
          "durationTicks": 48,
          "midi": 68,
          "name": "G#4",
          "ticks": 16512,
          "time": 71.172396,
          "velocity": 0.7874015748031497
        },
        {
          "duration": 0.20689649999999915,
          "durationTicks": 48,
          "midi": 75,
          "name": "D#5",
          "ticks": 16608,
          "time": 71.586189,
          "velocity": 0.7874015748031497
        },
        {
          "duration": 0.20689649999999915,
          "durationTicks": 48,
          "midi": 63,
          "name": "D#4",
          "ticks": 16608,
          "time": 71.586189,
          "velocity": 0.7874015748031497
        },
        {
          "duration": 0.20689649999999915,
          "durationTicks": 48,
          "midi": 76,
          "name": "E5",
          "ticks": 16656,
          "time": 71.7930855,
          "velocity": 0.7874015748031497
        },
        {
          "duration": 0.20689649999999915,
          "durationTicks": 48,
          "midi": 64,
          "name": "E4",
          "ticks": 16656,
          "time": 71.7930855,
          "velocity": 0.7874015748031497
        },
        {
          "duration": 0.20689649999999915,
          "durationTicks": 48,
          "midi": 61,
          "name": "C#4",
          "ticks": 16704,
          "time": 71.999982,
          "velocity": 0.7874015748031497
        },
        {
          "duration": 0.20689649999999915,
          "durationTicks": 48,
          "midi": 73,
          "name": "C#5",
          "ticks": 16704,
          "time": 71.999982,
          "velocity": 0.7874015748031497
        },
        {
          "duration": 0.20689649999999915,
          "durationTicks": 48,
          "midi": 64,
          "name": "E4",
          "ticks": 16800,
          "time": 72.413775,
          "velocity": 0.7874015748031497
        },
        {
          "duration": 0.20689649999999915,
          "durationTicks": 48,
          "midi": 76,
          "name": "E5",
          "ticks": 16800,
          "time": 72.413775,
          "velocity": 0.7874015748031497
        },
        {
          "duration": 0.20689649999999915,
          "durationTicks": 48,
          "midi": 61,
          "name": "C#4",
          "ticks": 16848,
          "time": 72.6206715,
          "velocity": 0.7874015748031497
        },
        {
          "duration": 0.20689649999999915,
          "durationTicks": 48,
          "midi": 73,
          "name": "C#5",
          "ticks": 16848,
          "time": 72.6206715,
          "velocity": 0.7874015748031497
        },
        {
          "duration": 0.20689649999999915,
          "durationTicks": 48,
          "midi": 68,
          "name": "G#4",
          "ticks": 16896,
          "time": 72.827568,
          "velocity": 0.7874015748031497
        },
        {
          "duration": 0.20689649999999915,
          "durationTicks": 48,
          "midi": 80,
          "name": "G#5",
          "ticks": 16896,
          "time": 72.827568,
          "velocity": 0.7874015748031497
        },
        {
          "duration": 0.20689649999999915,
          "durationTicks": 48,
          "midi": 75,
          "name": "D#5",
          "ticks": 16992,
          "time": 73.241361,
          "velocity": 0.7874015748031497
        },
        {
          "duration": 0.20689649999999915,
          "durationTicks": 48,
          "midi": 63,
          "name": "D#4",
          "ticks": 16992,
          "time": 73.241361,
          "velocity": 0.7874015748031497
        },
        {
          "duration": 0.20689650000001336,
          "durationTicks": 48,
          "midi": 76,
          "name": "E5",
          "ticks": 17040,
          "time": 73.4482575,
          "velocity": 0.7874015748031497
        },
        {
          "duration": 0.20689650000001336,
          "durationTicks": 48,
          "midi": 64,
          "name": "E4",
          "ticks": 17040,
          "time": 73.4482575,
          "velocity": 0.7874015748031497
        },
        {
          "duration": 0.20689649999999915,
          "durationTicks": 48,
          "midi": 61,
          "name": "C#4",
          "ticks": 17088,
          "time": 73.65515400000001,
          "velocity": 0.7874015748031497
        },
        {
          "duration": 0.20689649999999915,
          "durationTicks": 48,
          "midi": 73,
          "name": "C#5",
          "ticks": 17088,
          "time": 73.65515400000001,
          "velocity": 0.7874015748031497
        },
        {
          "duration": 0.20689649999999915,
          "durationTicks": 48,
          "midi": 76,
          "name": "E5",
          "ticks": 17184,
          "time": 74.06894700000001,
          "velocity": 0.7874015748031497
        },
        {
          "duration": 0.20689649999999915,
          "durationTicks": 48,
          "midi": 64,
          "name": "E4",
          "ticks": 17184,
          "time": 74.06894700000001,
          "velocity": 0.7874015748031497
        },
        {
          "duration": 0.20689649999999915,
          "durationTicks": 48,
          "midi": 73,
          "name": "C#5",
          "ticks": 17232,
          "time": 74.27584350000001,
          "velocity": 0.7874015748031497
        },
        {
          "duration": 0.20689649999999915,
          "durationTicks": 48,
          "midi": 61,
          "name": "C#4",
          "ticks": 17232,
          "time": 74.27584350000001,
          "velocity": 0.7874015748031497
        },
        {
          "duration": 0.20689649999999915,
          "durationTicks": 48,
          "midi": 68,
          "name": "G#4",
          "ticks": 17280,
          "time": 74.48274,
          "velocity": 0.7874015748031497
        },
        {
          "duration": 0.20689649999999915,
          "durationTicks": 48,
          "midi": 80,
          "name": "G#5",
          "ticks": 17280,
          "time": 74.48274,
          "velocity": 0.7874015748031497
        },
        {
          "duration": 0.20689649999999915,
          "durationTicks": 48,
          "midi": 66,
          "name": "F#4",
          "ticks": 17376,
          "time": 74.896533,
          "velocity": 0.6614173228346457
        },
        {
          "duration": 0.20689649999999915,
          "durationTicks": 48,
          "midi": 78,
          "name": "F#5",
          "ticks": 17376,
          "time": 74.896533,
          "velocity": 0.6614173228346457
        },
        {
          "duration": 0.20689649999999915,
          "durationTicks": 48,
          "midi": 76,
          "name": "E5",
          "ticks": 17424,
          "time": 75.1034295,
          "velocity": 0.6614173228346457
        },
        {
          "duration": 0.20689649999999915,
          "durationTicks": 48,
          "midi": 64,
          "name": "E4",
          "ticks": 17424,
          "time": 75.1034295,
          "velocity": 0.6614173228346457
        },
        {
          "duration": 0.20689649999999915,
          "durationTicks": 48,
          "midi": 63,
          "name": "D#4",
          "ticks": 17472,
          "time": 75.310326,
          "velocity": 0.6614173228346457
        },
        {
          "duration": 0.20689649999999915,
          "durationTicks": 48,
          "midi": 75,
          "name": "D#5",
          "ticks": 17472,
          "time": 75.310326,
          "velocity": 0.6614173228346457
        },
        {
          "duration": 0.20689649999999915,
          "durationTicks": 48,
          "midi": 64,
          "name": "E4",
          "ticks": 17568,
          "time": 75.724119,
          "velocity": 0.6614173228346457
        },
        {
          "duration": 0.20689649999999915,
          "durationTicks": 48,
          "midi": 76,
          "name": "E5",
          "ticks": 17568,
          "time": 75.724119,
          "velocity": 0.6614173228346457
        },
        {
          "duration": 0.20689649999999915,
          "durationTicks": 48,
          "midi": 63,
          "name": "D#4",
          "ticks": 17616,
          "time": 75.9310155,
          "velocity": 0.6614173228346457
        },
        {
          "duration": 0.20689649999999915,
          "durationTicks": 48,
          "midi": 75,
          "name": "D#5",
          "ticks": 17616,
          "time": 75.9310155,
          "velocity": 0.6614173228346457
        },
        {
          "duration": 0.20689649999999915,
          "durationTicks": 48,
          "midi": 68,
          "name": "G#4",
          "ticks": 18816,
          "time": 81.10342800000001,
          "velocity": 0.48031496062992124
        },
        {
          "duration": 0.20689649999999915,
          "durationTicks": 48,
          "midi": 56,
          "name": "G#3",
          "ticks": 18816,
          "time": 81.10342800000001,
          "velocity": 0.48031496062992124
        },
        {
          "duration": 0.20689649999999915,
          "durationTicks": 48,
          "midi": 68,
          "name": "G#4",
          "ticks": 18864,
          "time": 81.31032450000001,
          "velocity": 0.48031496062992124
        },
        {
          "duration": 0.20689649999999915,
          "durationTicks": 48,
          "midi": 56,
          "name": "G#3",
          "ticks": 18864,
          "time": 81.31032450000001,
          "velocity": 0.48031496062992124
        },
        {
          "duration": 0.20689649999999915,
          "durationTicks": 48,
          "midi": 51,
          "name": "D#3",
          "ticks": 18912,
          "time": 81.517221,
          "velocity": 0.48031496062992124
        },
        {
          "duration": 0.20689649999999915,
          "durationTicks": 48,
          "midi": 63,
          "name": "D#4",
          "ticks": 18912,
          "time": 81.517221,
          "velocity": 0.48031496062992124
        },
        {
          "duration": 0.20689649999999915,
          "durationTicks": 48,
          "midi": 52,
          "name": "E3",
          "ticks": 18960,
          "time": 81.7241175,
          "velocity": 0.48031496062992124
        },
        {
          "duration": 0.20689649999999915,
          "durationTicks": 48,
          "midi": 64,
          "name": "E4",
          "ticks": 18960,
          "time": 81.7241175,
          "velocity": 0.48031496062992124
        },
        {
          "duration": 0.20689649999999915,
          "durationTicks": 48,
          "midi": 49,
          "name": "C#3",
          "ticks": 19008,
          "time": 81.931014,
          "velocity": 0.48031496062992124
        },
        {
          "duration": 0.20689649999999915,
          "durationTicks": 48,
          "midi": 61,
          "name": "C#4",
          "ticks": 19008,
          "time": 81.931014,
          "velocity": 0.48031496062992124
        },
        {
          "duration": 0.20689649999999915,
          "durationTicks": 48,
          "midi": 49,
          "name": "C#3",
          "ticks": 19056,
          "time": 82.1379105,
          "velocity": 0.48031496062992124
        },
        {
          "duration": 0.20689649999999915,
          "durationTicks": 48,
          "midi": 61,
          "name": "C#4",
          "ticks": 19056,
          "time": 82.1379105,
          "velocity": 0.48031496062992124
        },
        {
          "duration": 0.20689649999999915,
          "durationTicks": 48,
          "midi": 52,
          "name": "E3",
          "ticks": 19104,
          "time": 82.344807,
          "velocity": 0.48031496062992124
        },
        {
          "duration": 0.20689649999999915,
          "durationTicks": 48,
          "midi": 64,
          "name": "E4",
          "ticks": 19104,
          "time": 82.344807,
          "velocity": 0.48031496062992124
        },
        {
          "duration": 0.20689649999999915,
          "durationTicks": 48,
          "midi": 61,
          "name": "C#4",
          "ticks": 19152,
          "time": 82.5517035,
          "velocity": 0.48031496062992124
        },
        {
          "duration": 0.20689649999999915,
          "durationTicks": 48,
          "midi": 49,
          "name": "C#3",
          "ticks": 19152,
          "time": 82.5517035,
          "velocity": 0.48031496062992124
        }
      ],
      "endOfTrackTicks": 32641
    },
    {
      "channel": 2,
      "controlChanges": {
        "6": [
          {
            "number": 6,
            "ticks": 0,
            "time": 0,
            "value": 0.09448818897637795
          },
          {
            "number": 6,
            "ticks": 0,
            "time": 0,
            "value": 0.09448818897637795
          },
          {
            "number": 6,
            "ticks": 0,
            "time": 0,
            "value": 0.09448818897637795
          },
          {
            "number": 6,
            "ticks": 32640,
            "time": 140.68962000000002,
            "value": 0.09448818897637795
          },
          {
            "number": 6,
            "ticks": 32641,
            "time": 140.69393034375003,
            "value": 0.09448818897637795
          }
        ],
        "7": [
          {
            "number": 7,
            "ticks": 0,
            "time": 0,
            "value": 0.7244094488188977
          },
          {
            "number": 7,
            "ticks": 0,
            "time": 0,
            "value": 0.7244094488188977
          },
          {
            "number": 7,
            "ticks": 0,
            "time": 0,
            "value": 0.7244094488188977
          },
          {
            "number": 7,
            "ticks": 0,
            "time": 0,
            "value": 0.7244094488188977
          },
          {
            "number": 7,
            "ticks": 32640,
            "time": 140.68962000000002,
            "value": 0.7244094488188977
          },
          {
            "number": 7,
            "ticks": 32641,
            "time": 140.69393034375003,
            "value": 0.7244094488188977
          }
        ],
        "10": [
          {
            "number": 10,
            "ticks": 0,
            "time": 0,
            "value": 0.5039370078740157
          },
          {
            "number": 10,
            "ticks": 0,
            "time": 0,
            "value": 0.5039370078740157
          },
          {
            "number": 10,
            "ticks": 0,
            "time": 0,
            "value": 0.5039370078740157
          },
          {
            "number": 10,
            "ticks": 0,
            "time": 0,
            "value": 0.5039370078740157
          },
          {
            "number": 10,
            "ticks": 32640,
            "time": 140.68962000000002,
            "value": 0.5039370078740157
          },
          {
            "number": 10,
            "ticks": 32641,
            "time": 140.69393034375003,
            "value": 0.5039370078740157
          }
        ],
        "100": [
          {
            "number": 100,
            "ticks": 0,
            "time": 0,
            "value": 0
          },
          {
            "number": 100,
            "ticks": 0,
            "time": 0,
            "value": 0
          },
          {
            "number": 100,
            "ticks": 0,
            "time": 0,
            "value": 0
          },
          {
            "number": 100,
            "ticks": 32640,
            "time": 140.68962000000002,
            "value": 0
          },
          {
            "number": 100,
            "ticks": 32641,
            "time": 140.69393034375003,
            "value": 0
          }
        ],
        "101": [
          {
            "number": 101,
            "ticks": 0,
            "time": 0,
            "value": 0
          },
          {
            "number": 101,
            "ticks": 0,
            "time": 0,
            "value": 0
          },
          {
            "number": 101,
            "ticks": 0,
            "time": 0,
            "value": 0
          },
          {
            "number": 101,
            "ticks": 32640,
            "time": 140.68962000000002,
            "value": 0
          },
          {
            "number": 101,
            "ticks": 32641,
            "time": 140.69393034375003,
            "value": 0
          }
        ]
      },
      "pitchBends": [
        {
          "ticks": 0,
          "time": 0,
          "value": 0
        },
        {
          "ticks": 0,
          "time": 0,
          "value": 0
        },
        {
          "ticks": 0,
          "time": 0,
          "value": 0
        },
        {
          "ticks": 0,
          "time": 0,
          "value": 0
        },
        {
          "ticks": 32640,
          "time": 140.68962000000002,
          "value": 0
        },
        {
          "ticks": 32641,
          "time": 140.69393034375003,
          "value": 0
        }
      ],
      "instrument": {
        "family": "piano",
        "number": 0,
        "name": "acoustic grand piano"
      },
      "name": "FL Keys",
      "notes": [
        {
          "duration": 1.241379,
          "durationTicks": 288,
          "midi": 44,
          "name": "G#2",
          "ticks": 0,
          "time": 0,
          "velocity": 0.7874015748031497
        },
        {
          "duration": 1.241379,
          "durationTicks": 288,
          "midi": 37,
          "name": "C#2",
          "ticks": 0,
          "time": 0,
          "velocity": 0.7874015748031497
        },
        {
          "duration": 0.051724125,
          "durationTicks": 12,
          "midi": 61,
          "name": "C#4",
          "ticks": 0,
          "time": 0,
          "velocity": 0.7874015748031497
        },
        {
          "duration": 0.051724125,
          "durationTicks": 12,
          "midi": 49,
          "name": "C#3",
          "ticks": 0,
          "time": 0,
          "velocity": 0.7874015748031497
        },
        {
          "duration": 0.051724124999999996,
          "durationTicks": 12,
          "midi": 49,
          "name": "C#3",
          "ticks": 24,
          "time": 0.10344825,
          "velocity": 0.7874015748031497
        },
        {
          "duration": 0.051724124999999996,
          "durationTicks": 12,
          "midi": 61,
          "name": "C#4",
          "ticks": 24,
          "time": 0.10344825,
          "velocity": 0.7874015748031497
        },
        {
          "duration": 0.05172412499999998,
          "durationTicks": 12,
          "midi": 61,
          "name": "C#4",
          "ticks": 48,
          "time": 0.2068965,
          "velocity": 0.7874015748031497
        },
        {
          "duration": 0.05172412499999998,
          "durationTicks": 12,
          "midi": 49,
          "name": "C#3",
          "ticks": 48,
          "time": 0.2068965,
          "velocity": 0.7874015748031497
        },
        {
          "duration": 0.05172412500000001,
          "durationTicks": 12,
          "midi": 61,
          "name": "C#4",
          "ticks": 72,
          "time": 0.31034475,
          "velocity": 0.7874015748031497
        },
        {
          "duration": 0.05172412500000001,
          "durationTicks": 12,
          "midi": 49,
          "name": "C#3",
          "ticks": 72,
          "time": 0.31034475,
          "velocity": 0.7874015748031497
        },
        {
          "duration": 0.05172412500000001,
          "durationTicks": 12,
          "midi": 61,
          "name": "C#4",
          "ticks": 96,
          "time": 0.413793,
          "velocity": 0.7874015748031497
        },
        {
          "duration": 0.05172412500000001,
          "durationTicks": 12,
          "midi": 49,
          "name": "C#3",
          "ticks": 96,
          "time": 0.413793,
          "velocity": 0.7874015748031497
        },
        {
          "duration": 0.05172412500000001,
          "durationTicks": 12,
          "midi": 61,
          "name": "C#4",
          "ticks": 120,
          "time": 0.51724125,
          "velocity": 0.7874015748031497
        },
        {
          "duration": 0.05172412500000001,
          "durationTicks": 12,
          "midi": 49,
          "name": "C#3",
          "ticks": 120,
          "time": 0.51724125,
          "velocity": 0.7874015748031497
        },
        {
          "duration": 0.05172412500000001,
          "durationTicks": 12,
          "midi": 61,
          "name": "C#4",
          "ticks": 144,
          "time": 0.6206895,
          "velocity": 0.7874015748031497
        },
        {
          "duration": 0.05172412500000001,
          "durationTicks": 12,
          "midi": 49,
          "name": "C#3",
          "ticks": 144,
          "time": 0.6206895,
          "velocity": 0.7874015748031497
        },
        {
          "duration": 0.05172412500000001,
          "durationTicks": 12,
          "midi": 49,
          "name": "C#3",
          "ticks": 168,
          "time": 0.72413775,
          "velocity": 0.7874015748031497
        },
        {
          "duration": 0.05172412500000001,
          "durationTicks": 12,
          "midi": 61,
          "name": "C#4",
          "ticks": 168,
          "time": 0.72413775,
          "velocity": 0.7874015748031497
        },
        {
          "duration": 0.025862062500000005,
          "durationTicks": 6,
          "midi": 90,
          "name": "F#6",
          "ticks": 180,
          "time": 0.775861875,
          "velocity": 0.7874015748031497
        },
        {
          "duration": 0.025862062500000005,
          "durationTicks": 6,
          "midi": 78,
          "name": "F#5",
          "ticks": 180,
          "time": 0.775861875,
          "velocity": 0.7874015748031497
        },
        {
          "duration": 0.025862062500000005,
          "durationTicks": 6,
          "midi": 79,
          "name": "G5",
          "ticks": 186,
          "time": 0.8017239375,
          "velocity": 0.7874015748031497
        },
        {
          "duration": 0.025862062500000005,
          "durationTicks": 6,
          "midi": 91,
          "name": "G6",
          "ticks": 186,
          "time": 0.8017239375,
          "velocity": 0.7874015748031497
        },
        {
          "duration": 0.20689649999999993,
          "durationTicks": 48,
          "midi": 92,
          "name": "G#6",
          "ticks": 192,
          "time": 0.827586,
          "velocity": 0.7874015748031497
        },
        {
          "duration": 0.41379299999999997,
          "durationTicks": 96,
          "midi": 49,
          "name": "C#3",
          "ticks": 192,
          "time": 0.827586,
          "velocity": 0.7874015748031497
        },
        {
          "duration": 0.41379299999999997,
          "durationTicks": 96,
          "midi": 61,
          "name": "C#4",
          "ticks": 192,
          "time": 0.827586,
          "velocity": 0.7874015748031497
        },
        {
          "duration": 0.20689649999999993,
          "durationTicks": 48,
          "midi": 80,
          "name": "G#5",
          "ticks": 192,
          "time": 0.827586,
          "velocity": 0.7874015748031497
        },
        {
          "duration": 0.20689650000000004,
          "durationTicks": 48,
          "midi": 79,
          "name": "G5",
          "ticks": 240,
          "time": 1.0344825,
          "velocity": 0.7874015748031497
        },
        {
          "duration": 0.20689650000000004,
          "durationTicks": 48,
          "midi": 91,
          "name": "G6",
          "ticks": 240,
          "time": 1.0344825,
          "velocity": 0.7874015748031497
        },
        {
          "duration": 2.0689650000000004,
          "durationTicks": 480,
          "midi": 80,
          "name": "G#5",
          "ticks": 288,
          "time": 1.241379,
          "velocity": 0.8031496062992126
        },
        {
          "duration": 2.0689650000000004,
          "durationTicks": 480,
          "midi": 92,
          "name": "G#6",
          "ticks": 288,
          "time": 1.241379,
          "velocity": 0.8031496062992126
        },
        {
          "duration": 0.05172412500000001,
          "durationTicks": 12,
          "midi": 50,
          "name": "D3",
          "ticks": 384,
          "time": 1.655172,
          "velocity": 0.7874015748031497
        },
        {
          "duration": 0.05172412500000001,
          "durationTicks": 12,
          "midi": 62,
          "name": "D4",
          "ticks": 384,
          "time": 1.655172,
          "velocity": 0.7874015748031497
        },
        {
          "duration": 1.241379,
          "durationTicks": 288,
          "midi": 45,
          "name": "A2",
          "ticks": 384,
          "time": 1.655172,
          "velocity": 0.7874015748031497
        },
        {
          "duration": 1.241379,
          "durationTicks": 288,
          "midi": 38,
          "name": "D2",
          "ticks": 384,
          "time": 1.655172,
          "velocity": 0.7874015748031497
        },
        {
          "duration": 0.05172412500000001,
          "durationTicks": 12,
          "midi": 62,
          "name": "D4",
          "ticks": 408,
          "time": 1.75862025,
          "velocity": 0.7874015748031497
        },
        {
          "duration": 0.05172412500000001,
          "durationTicks": 12,
          "midi": 50,
          "name": "D3",
          "ticks": 408,
          "time": 1.75862025,
          "velocity": 0.7874015748031497
        },
        {
          "duration": 0.05172412500000001,
          "durationTicks": 12,
          "midi": 50,
          "name": "D3",
          "ticks": 432,
          "time": 1.8620685000000001,
          "velocity": 0.7874015748031497
        },
        {
          "duration": 0.05172412500000001,
          "durationTicks": 12,
          "midi": 62,
          "name": "D4",
          "ticks": 432,
          "time": 1.8620685000000001,
          "velocity": 0.7874015748031497
        },
        {
          "duration": 0.05172412500000001,
          "durationTicks": 12,
          "midi": 50,
          "name": "D3",
          "ticks": 456,
          "time": 1.9655167500000001,
          "velocity": 0.7874015748031497
        },
        {
          "duration": 0.05172412500000001,
          "durationTicks": 12,
          "midi": 62,
          "name": "D4",
          "ticks": 456,
          "time": 1.9655167500000001,
          "velocity": 0.7874015748031497
        },
        {
          "duration": 0.05172412500000023,
          "durationTicks": 12,
          "midi": 62,
          "name": "D4",
          "ticks": 480,
          "time": 2.068965,
          "velocity": 0.7874015748031497
        },
        {
          "duration": 0.05172412500000023,
          "durationTicks": 12,
          "midi": 50,
          "name": "D3",
          "ticks": 480,
          "time": 2.068965,
          "velocity": 0.7874015748031497
        },
        {
          "duration": 0.05172412500000023,
          "durationTicks": 12,
          "midi": 50,
          "name": "D3",
          "ticks": 504,
          "time": 2.17241325,
          "velocity": 0.7874015748031497
        },
        {
          "duration": 0.05172412500000023,
          "durationTicks": 12,
          "midi": 62,
          "name": "D4",
          "ticks": 504,
          "time": 2.17241325,
          "velocity": 0.7874015748031497
        },
        {
          "duration": 0.05172412500000023,
          "durationTicks": 12,
          "midi": 62,
          "name": "D4",
          "ticks": 528,
          "time": 2.2758615,
          "velocity": 0.7874015748031497
        },
        {
          "duration": 0.05172412500000023,
          "durationTicks": 12,
          "midi": 50,
          "name": "D3",
          "ticks": 528,
          "time": 2.2758615,
          "velocity": 0.7874015748031497
        },
        {
          "duration": 0.05172412500000023,
          "durationTicks": 12,
          "midi": 50,
          "name": "D3",
          "ticks": 552,
          "time": 2.37930975,
          "velocity": 0.7874015748031497
        },
        {
          "duration": 0.05172412500000023,
          "durationTicks": 12,
          "midi": 62,
          "name": "D4",
          "ticks": 552,
          "time": 2.37930975,
          "velocity": 0.7874015748031497
        },
        {
          "duration": 0.4137930000000001,
          "durationTicks": 96,
          "midi": 62,
          "name": "D4",
          "ticks": 576,
          "time": 2.482758,
          "velocity": 0.7874015748031497
        },
        {
          "duration": 0.4137930000000001,
          "durationTicks": 96,
          "midi": 50,
          "name": "D3",
          "ticks": 576,
          "time": 2.482758,
          "velocity": 0.7874015748031497
        },
        {
          "duration": 1.2413789999999998,
          "durationTicks": 288,
          "midi": 40,
          "name": "E2",
          "ticks": 768,
          "time": 3.310344,
          "velocity": 0.7874015748031497
        },
        {
          "duration": 0.05172412499999979,
          "durationTicks": 12,
          "midi": 52,
          "name": "E3",
          "ticks": 768,
          "time": 3.310344,
          "velocity": 0.7874015748031497
        },
        {
          "duration": 0.05172412499999979,
          "durationTicks": 12,
          "midi": 64,
          "name": "E4",
          "ticks": 768,
          "time": 3.310344,
          "velocity": 0.7874015748031497
        },
        {
          "duration": 1.2413789999999998,
          "durationTicks": 288,
          "midi": 47,
          "name": "B2",
          "ticks": 768,
          "time": 3.310344,
          "velocity": 0.7874015748031497
        },
        {
          "duration": 0.05172412499999979,
          "durationTicks": 12,
          "midi": 52,
          "name": "E3",
          "ticks": 792,
          "time": 3.41379225,
          "velocity": 0.7874015748031497
        },
        {
          "duration": 0.05172412499999979,
          "durationTicks": 12,
          "midi": 64,
          "name": "E4",
          "ticks": 792,
          "time": 3.41379225,
          "velocity": 0.7874015748031497
        },
        {
          "duration": 0.05172412499999979,
          "durationTicks": 12,
          "midi": 52,
          "name": "E3",
          "ticks": 816,
          "time": 3.5172405,
          "velocity": 0.7874015748031497
        },
        {
          "duration": 0.05172412499999979,
          "durationTicks": 12,
          "midi": 64,
          "name": "E4",
          "ticks": 816,
          "time": 3.5172405,
          "velocity": 0.7874015748031497
        },
        {
          "duration": 0.05172412499999979,
          "durationTicks": 12,
          "midi": 52,
          "name": "E3",
          "ticks": 840,
          "time": 3.6206887500000002,
          "velocity": 0.7874015748031497
        },
        {
          "duration": 0.05172412499999979,
          "durationTicks": 12,
          "midi": 64,
          "name": "E4",
          "ticks": 840,
          "time": 3.6206887500000002,
          "velocity": 0.7874015748031497
        },
        {
          "duration": 0.05172412499999979,
          "durationTicks": 12,
          "midi": 52,
          "name": "E3",
          "ticks": 864,
          "time": 3.7241370000000003,
          "velocity": 0.7874015748031497
        },
        {
          "duration": 0.05172412499999979,
          "durationTicks": 12,
          "midi": 64,
          "name": "E4",
          "ticks": 864,
          "time": 3.7241370000000003,
          "velocity": 0.7874015748031497
        },
        {
          "duration": 0.05172412499999979,
          "durationTicks": 12,
          "midi": 52,
          "name": "E3",
          "ticks": 888,
          "time": 3.8275852500000003,
          "velocity": 0.7874015748031497
        },
        {
          "duration": 0.05172412499999979,
          "durationTicks": 12,
          "midi": 64,
          "name": "E4",
          "ticks": 888,
          "time": 3.8275852500000003,
          "velocity": 0.7874015748031497
        },
        {
          "duration": 0.05172412499999979,
          "durationTicks": 12,
          "midi": 52,
          "name": "E3",
          "ticks": 912,
          "time": 3.9310335000000003,
          "velocity": 0.7874015748031497
        },
        {
          "duration": 0.05172412499999979,
          "durationTicks": 12,
          "midi": 64,
          "name": "E4",
          "ticks": 912,
          "time": 3.9310335000000003,
          "velocity": 0.7874015748031497
        },
        {
          "duration": 0.05172412499999979,
          "durationTicks": 12,
          "midi": 52,
          "name": "E3",
          "ticks": 936,
          "time": 4.03448175,
          "velocity": 0.7874015748031497
        },
        {
          "duration": 0.05172412499999979,
          "durationTicks": 12,
          "midi": 64,
          "name": "E4",
          "ticks": 936,
          "time": 4.03448175,
          "velocity": 0.7874015748031497
        },
        {
          "duration": 0.4137930000000001,
          "durationTicks": 96,
          "midi": 64,
          "name": "E4",
          "ticks": 960,
          "time": 4.13793,
          "velocity": 0.7874015748031497
        },
        {
          "duration": 0.4137930000000001,
          "durationTicks": 96,
          "midi": 52,
          "name": "E3",
          "ticks": 960,
          "time": 4.13793,
          "velocity": 0.7874015748031497
        },
        {
          "duration": 0.05172412499999979,
          "durationTicks": 12,
          "midi": 50,
          "name": "D3",
          "ticks": 1152,
          "time": 4.965516,
          "velocity": 0.7874015748031497
        },
        {
          "duration": 0.05172412499999979,
          "durationTicks": 12,
          "midi": 62,
          "name": "D4",
          "ticks": 1152,
          "time": 4.965516,
          "velocity": 0.7874015748031497
        },
        {
          "duration": 0.4137930000000001,
          "durationTicks": 96,
          "midi": 38,
          "name": "D2",
          "ticks": 1152,
          "time": 4.965516,
          "velocity": 0.7874015748031497
        },
        {
          "duration": 0.4137930000000001,
          "durationTicks": 96,
          "midi": 45,
          "name": "A2",
          "ticks": 1152,
          "time": 4.965516,
          "velocity": 0.7874015748031497
        },
        {
          "duration": 0.05172412499999979,
          "durationTicks": 12,
          "midi": 50,
          "name": "D3",
          "ticks": 1176,
          "time": 5.0689642500000005,
          "velocity": 0.7874015748031497
        },
        {
          "duration": 0.05172412499999979,
          "durationTicks": 12,
          "midi": 62,
          "name": "D4",
          "ticks": 1176,
          "time": 5.0689642500000005,
          "velocity": 0.7874015748031497
        },
        {
          "duration": 0.05172412499999979,
          "durationTicks": 12,
          "midi": 50,
          "name": "D3",
          "ticks": 1200,
          "time": 5.1724125,
          "velocity": 0.7874015748031497
        },
        {
          "duration": 0.05172412499999979,
          "durationTicks": 12,
          "midi": 62,
          "name": "D4",
          "ticks": 1200,
          "time": 5.1724125,
          "velocity": 0.7874015748031497
        },
        {
          "duration": 0.05172412499999979,
          "durationTicks": 12,
          "midi": 50,
          "name": "D3",
          "ticks": 1224,
          "time": 5.2758607500000005,
          "velocity": 0.7874015748031497
        },
        {
          "duration": 0.05172412499999979,
          "durationTicks": 12,
          "midi": 62,
          "name": "D4",
          "ticks": 1224,
          "time": 5.2758607500000005,
          "velocity": 0.7874015748031497
        },
        {
          "duration": 0.05172412499999979,
          "durationTicks": 12,
          "midi": 50,
          "name": "D3",
          "ticks": 1248,
          "time": 5.379309,
          "velocity": 0.7874015748031497
        },
        {
          "duration": 0.05172412499999979,
          "durationTicks": 12,
          "midi": 62,
          "name": "D4",
          "ticks": 1248,
          "time": 5.379309,
          "velocity": 0.7874015748031497
        },
        {
          "duration": 0.05172412499999979,
          "durationTicks": 12,
          "midi": 50,
          "name": "D3",
          "ticks": 1272,
          "time": 5.482757250000001,
          "velocity": 0.7874015748031497
        },
        {
          "duration": 0.05172412499999979,
          "durationTicks": 12,
          "midi": 62,
          "name": "D4",
          "ticks": 1272,
          "time": 5.482757250000001,
          "velocity": 0.7874015748031497
        },
        {
          "duration": 0.05172412499999979,
          "durationTicks": 12,
          "midi": 50,
          "name": "D3",
          "ticks": 1296,
          "time": 5.5862055,
          "velocity": 0.7874015748031497
        },
        {
          "duration": 0.05172412499999979,
          "durationTicks": 12,
          "midi": 62,
          "name": "D4",
          "ticks": 1296,
          "time": 5.5862055,
          "velocity": 0.7874015748031497
        },
        {
          "duration": 0.05172412499999979,
          "durationTicks": 12,
          "midi": 50,
          "name": "D3",
          "ticks": 1320,
          "time": 5.689653750000001,
          "velocity": 0.7874015748031497
        },
        {
          "duration": 0.05172412499999979,
          "durationTicks": 12,
          "midi": 62,
          "name": "D4",
          "ticks": 1320,
          "time": 5.689653750000001,
          "velocity": 0.7874015748031497
        },
        {
          "duration": 0.8275860000000002,
          "durationTicks": 192,
          "midi": 38,
          "name": "D2",
          "ticks": 1344,
          "time": 5.793102,
          "velocity": 0.7874015748031497
        },
        {
          "duration": 0.8275860000000002,
          "durationTicks": 192,
          "midi": 45,
          "name": "A2",
          "ticks": 1344,
          "time": 5.793102,
          "velocity": 0.7874015748031497
        },
        {
          "duration": 0.4137930000000001,
          "durationTicks": 96,
          "midi": 50,
          "name": "D3",
          "ticks": 1344,
          "time": 5.793102,
          "velocity": 0.7874015748031497
        },
        {
          "duration": 0.4137930000000001,
          "durationTicks": 96,
          "midi": 62,
          "name": "D4",
          "ticks": 1344,
          "time": 5.793102,
          "velocity": 0.7874015748031497
        },
        {
          "duration": 0.5431033125000004,
          "durationTicks": 126,
          "midi": 44,
          "name": "G#2",
          "ticks": 1536,
          "time": 6.620688,
          "velocity": 0.7874015748031497
        },
        {
          "duration": 0.5431033125000004,
          "durationTicks": 126,
          "midi": 37,
          "name": "C#2",
          "ticks": 1536,
          "time": 6.620688,
          "velocity": 0.7874015748031497
        },
        {
          "duration": 0.05172412499999979,
          "durationTicks": 12,
          "midi": 49,
          "name": "C#3",
          "ticks": 1536,
          "time": 6.620688,
          "velocity": 0.7874015748031497
        },
        {
          "duration": 0.05172412499999979,
          "durationTicks": 12,
          "midi": 61,
          "name": "C#4",
          "ticks": 1536,
          "time": 6.620688,
          "velocity": 0.7874015748031497
        },
        {
          "duration": 0.051724125000000676,
          "durationTicks": 12,
          "midi": 61,
          "name": "C#4",
          "ticks": 1560,
          "time": 6.72413625,
          "velocity": 0.7874015748031497
        },
        {
          "duration": 0.051724125000000676,
          "durationTicks": 12,
          "midi": 49,
          "name": "C#3",
          "ticks": 1560,
          "time": 6.72413625,
          "velocity": 0.7874015748031497
        },
        {
          "duration": 0.05172412499999979,
          "durationTicks": 12,
          "midi": 61,
          "name": "C#4",
          "ticks": 1584,
          "time": 6.8275845,
          "velocity": 0.7874015748031497
        },
        {
          "duration": 0.05172412499999979,
          "durationTicks": 12,
          "midi": 49,
          "name": "C#3",
          "ticks": 1584,
          "time": 6.8275845,
          "velocity": 0.7874015748031497
        },
        {
          "duration": 0.051724125000000676,
          "durationTicks": 12,
          "midi": 61,
          "name": "C#4",
          "ticks": 1608,
          "time": 6.93103275,
          "velocity": 0.7874015748031497
        },
        {
          "duration": 0.051724125000000676,
          "durationTicks": 12,
          "midi": 49,
          "name": "C#3",
          "ticks": 1608,
          "time": 6.93103275,
          "velocity": 0.7874015748031497
        },
        {
          "duration": 0.05172412499999979,
          "durationTicks": 12,
          "midi": 61,
          "name": "C#4",
          "ticks": 1632,
          "time": 7.034481,
          "velocity": 0.7874015748031497
        },
        {
          "duration": 0.05172412499999979,
          "durationTicks": 12,
          "midi": 49,
          "name": "C#3",
          "ticks": 1632,
          "time": 7.034481,
          "velocity": 0.7874015748031497
        },
        {
          "duration": 0.051724125000000676,
          "durationTicks": 12,
          "midi": 61,
          "name": "C#4",
          "ticks": 1656,
          "time": 7.13792925,
          "velocity": 0.7874015748031497
        },
        {
          "duration": 0.051724125000000676,
          "durationTicks": 12,
          "midi": 49,
          "name": "C#3",
          "ticks": 1656,
          "time": 7.13792925,
          "velocity": 0.7874015748031497
        },
        {
          "duration": 0.05172412499999979,
          "durationTicks": 12,
          "midi": 61,
          "name": "C#4",
          "ticks": 1680,
          "time": 7.2413775000000005,
          "velocity": 0.7874015748031497
        },
        {
          "duration": 0.05172412499999979,
          "durationTicks": 12,
          "midi": 49,
          "name": "C#3",
          "ticks": 1680,
          "time": 7.2413775000000005,
          "velocity": 0.7874015748031497
        },
        {
          "duration": 0.051724125000000676,
          "durationTicks": 12,
          "midi": 61,
          "name": "C#4",
          "ticks": 1704,
          "time": 7.34482575,
          "velocity": 0.7874015748031497
        },
        {
          "duration": 0.051724125000000676,
          "durationTicks": 12,
          "midi": 49,
          "name": "C#3",
          "ticks": 1704,
          "time": 7.34482575,
          "velocity": 0.7874015748031497
        },
        {
          "duration": 0.025862062499999894,
          "durationTicks": 6,
          "midi": 91,
          "name": "G6",
          "ticks": 1722,
          "time": 7.422411937500001,
          "velocity": 0.7874015748031497
        },
        {
          "duration": 0.025862062499999894,
          "durationTicks": 6,
          "midi": 79,
          "name": "G5",
          "ticks": 1722,
          "time": 7.422411937500001,
          "velocity": 0.7874015748031497
        },
        {
          "duration": 1.6551719999999994,
          "durationTicks": 384,
          "midi": 92,
          "name": "G#6",
          "ticks": 1728,
          "time": 7.4482740000000005,
          "velocity": 0.7874015748031497
        },
        {
          "duration": 0.5431033124999995,
          "durationTicks": 126,
          "midi": 44,
          "name": "G#2",
          "ticks": 1728,
          "time": 7.4482740000000005,
          "velocity": 0.7874015748031497
        },
        {
          "duration": 0.5431033124999995,
          "durationTicks": 126,
          "midi": 37,
          "name": "C#2",
          "ticks": 1728,
          "time": 7.4482740000000005,
          "velocity": 0.7874015748031497
        },
        {
          "duration": 0.4137930000000001,
          "durationTicks": 96,
          "midi": 49,
          "name": "C#3",
          "ticks": 1728,
          "time": 7.4482740000000005,
          "velocity": 0.7874015748031497
        },
        {
          "duration": 0.4137930000000001,
          "durationTicks": 96,
          "midi": 61,
          "name": "C#4",
          "ticks": 1728,
          "time": 7.4482740000000005,
          "velocity": 0.7874015748031497
        },
        {
          "duration": 1.6551719999999994,
          "durationTicks": 384,
          "midi": 80,
          "name": "G#5",
          "ticks": 1728,
          "time": 7.4482740000000005,
          "velocity": 0.7874015748031497
        },
        {
          "duration": 0.5431033125000013,
          "durationTicks": 126,
          "midi": 38,
          "name": "D2",
          "ticks": 1920,
          "time": 8.27586,
          "velocity": 0.7874015748031497
        },
        {
          "duration": 0.5431033125000013,
          "durationTicks": 126,
          "midi": 45,
          "name": "A2",
          "ticks": 1920,
          "time": 8.27586,
          "velocity": 0.7874015748031497
        },
        {
          "duration": 0.05172412499999979,
          "durationTicks": 12,
          "midi": 50,
          "name": "D3",
          "ticks": 1920,
          "time": 8.27586,
          "velocity": 0.7874015748031497
        },
        {
          "duration": 0.05172412499999979,
          "durationTicks": 12,
          "midi": 62,
          "name": "D4",
          "ticks": 1920,
          "time": 8.27586,
          "velocity": 0.7874015748031497
        },
        {
          "duration": 0.05172412499999979,
          "durationTicks": 12,
          "midi": 62,
          "name": "D4",
          "ticks": 1944,
          "time": 8.379308250000001,
          "velocity": 0.7874015748031497
        },
        {
          "duration": 0.05172412499999979,
          "durationTicks": 12,
          "midi": 50,
          "name": "D3",
          "ticks": 1944,
          "time": 8.379308250000001,
          "velocity": 0.7874015748031497
        },
        {
          "duration": 0.05172412499999979,
          "durationTicks": 12,
          "midi": 62,
          "name": "D4",
          "ticks": 1968,
          "time": 8.4827565,
          "velocity": 0.7874015748031497
        },
        {
          "duration": 0.05172412499999979,
          "durationTicks": 12,
          "midi": 50,
          "name": "D3",
          "ticks": 1968,
          "time": 8.4827565,
          "velocity": 0.7874015748031497
        },
        {
          "duration": 0.05172412499999979,
          "durationTicks": 12,
          "midi": 62,
          "name": "D4",
          "ticks": 1992,
          "time": 8.58620475,
          "velocity": 0.7874015748031497
        },
        {
          "duration": 0.05172412499999979,
          "durationTicks": 12,
          "midi": 50,
          "name": "D3",
          "ticks": 1992,
          "time": 8.58620475,
          "velocity": 0.7874015748031497
        },
        {
          "duration": 0.05172412499999979,
          "durationTicks": 12,
          "midi": 62,
          "name": "D4",
          "ticks": 2016,
          "time": 8.689653,
          "velocity": 0.7874015748031497
        },
        {
          "duration": 0.05172412499999979,
          "durationTicks": 12,
          "midi": 50,
          "name": "D3",
          "ticks": 2016,
          "time": 8.689653,
          "velocity": 0.7874015748031497
        },
        {
          "duration": 0.05172412499999979,
          "durationTicks": 12,
          "midi": 62,
          "name": "D4",
          "ticks": 2040,
          "time": 8.793101250000001,
          "velocity": 0.7874015748031497
        },
        {
          "duration": 0.05172412499999979,
          "durationTicks": 12,
          "midi": 50,
          "name": "D3",
          "ticks": 2040,
          "time": 8.793101250000001,
          "velocity": 0.7874015748031497
        },
        {
          "duration": 0.05172412499999979,
          "durationTicks": 12,
          "midi": 62,
          "name": "D4",
          "ticks": 2064,
          "time": 8.8965495,
          "velocity": 0.7874015748031497
        },
        {
          "duration": 0.05172412499999979,
          "durationTicks": 12,
          "midi": 50,
          "name": "D3",
          "ticks": 2064,
          "time": 8.8965495,
          "velocity": 0.7874015748031497
        },
        {
          "duration": 0.05172412499999979,
          "durationTicks": 12,
          "midi": 62,
          "name": "D4",
          "ticks": 2088,
          "time": 8.99999775,
          "velocity": 0.7874015748031497
        },
        {
          "duration": 0.05172412499999979,
          "durationTicks": 12,
          "midi": 50,
          "name": "D3",
          "ticks": 2088,
          "time": 8.99999775,
          "velocity": 0.7874015748031497
        },
        {
          "duration": 0.4137930000000001,
          "durationTicks": 96,
          "midi": 62,
          "name": "D4",
          "ticks": 2112,
          "time": 9.103446,
          "velocity": 0.7874015748031497
        },
        {
          "duration": 0.4137930000000001,
          "durationTicks": 96,
          "midi": 50,
          "name": "D3",
          "ticks": 2112,
          "time": 9.103446,
          "velocity": 0.7874015748031497
        },
        {
          "duration": 0.5431033125000013,
          "durationTicks": 126,
          "midi": 38,
          "name": "D2",
          "ticks": 2112,
          "time": 9.103446,
          "velocity": 0.7874015748031497
        },
        {
          "duration": 0.5431033125000013,
          "durationTicks": 126,
          "midi": 45,
          "name": "A2",
          "ticks": 2112,
          "time": 9.103446,
          "velocity": 0.7874015748031497
        },
        {
          "duration": 0.05172412499999979,
          "durationTicks": 12,
          "midi": 64,
          "name": "E4",
          "ticks": 2304,
          "time": 9.931032,
          "velocity": 0.7874015748031497
        },
        {
          "duration": 0.05172412499999979,
          "durationTicks": 12,
          "midi": 52,
          "name": "E3",
          "ticks": 2304,
          "time": 9.931032,
          "velocity": 0.7874015748031497
        },
        {
          "duration": 0.4137930000000001,
          "durationTicks": 96,
          "midi": 47,
          "name": "B2",
          "ticks": 2304,
          "time": 9.931032,
          "velocity": 0.7874015748031497
        },
        {
          "duration": 0.4137930000000001,
          "durationTicks": 96,
          "midi": 40,
          "name": "E2",
          "ticks": 2304,
          "time": 9.931032,
          "velocity": 0.7874015748031497
        },
        {
          "duration": 0.051724125000001564,
          "durationTicks": 12,
          "midi": 52,
          "name": "E3",
          "ticks": 2328,
          "time": 10.03448025,
          "velocity": 0.7874015748031497
        },
        {
          "duration": 0.051724125000001564,
          "durationTicks": 12,
          "midi": 64,
          "name": "E4",
          "ticks": 2328,
          "time": 10.03448025,
          "velocity": 0.7874015748031497
        },
        {
          "duration": 0.05172412499999979,
          "durationTicks": 12,
          "midi": 52,
          "name": "E3",
          "ticks": 2352,
          "time": 10.137928500000001,
          "velocity": 0.7874015748031497
        },
        {
          "duration": 0.05172412499999979,
          "durationTicks": 12,
          "midi": 64,
          "name": "E4",
          "ticks": 2352,
          "time": 10.137928500000001,
          "velocity": 0.7874015748031497
        },
        {
          "duration": 0.05172412499999979,
          "durationTicks": 12,
          "midi": 52,
          "name": "E3",
          "ticks": 2376,
          "time": 10.24137675,
          "velocity": 0.7874015748031497
        },
        {
          "duration": 0.05172412499999979,
          "durationTicks": 12,
          "midi": 64,
          "name": "E4",
          "ticks": 2376,
          "time": 10.24137675,
          "velocity": 0.7874015748031497
        },
        {
          "duration": 0.05172412499999979,
          "durationTicks": 12,
          "midi": 52,
          "name": "E3",
          "ticks": 2400,
          "time": 10.344825,
          "velocity": 0.7874015748031497
        },
        {
          "duration": 0.05172412499999979,
          "durationTicks": 12,
          "midi": 64,
          "name": "E4",
          "ticks": 2400,
          "time": 10.344825,
          "velocity": 0.7874015748031497
        },
        {
          "duration": 0.4137930000000001,
          "durationTicks": 96,
          "midi": 47,
          "name": "B2",
          "ticks": 2400,
          "time": 10.344825,
          "velocity": 0.6929133858267716
        },
        {
          "duration": 0.4137930000000001,
          "durationTicks": 96,
          "midi": 40,
          "name": "E2",
          "ticks": 2400,
          "time": 10.344825,
          "velocity": 0.6929133858267716
        },
        {
          "duration": 0.051724125000001564,
          "durationTicks": 12,
          "midi": 64,
          "name": "E4",
          "ticks": 2424,
          "time": 10.44827325,
          "velocity": 0.7874015748031497
        },
        {
          "duration": 0.051724125000001564,
          "durationTicks": 12,
          "midi": 52,
          "name": "E3",
          "ticks": 2424,
          "time": 10.44827325,
          "velocity": 0.7874015748031497
        },
        {
          "duration": 0.05172412499999979,
          "durationTicks": 12,
          "midi": 64,
          "name": "E4",
          "ticks": 2448,
          "time": 10.551721500000001,
          "velocity": 0.7874015748031497
        },
        {
          "duration": 0.05172412499999979,
          "durationTicks": 12,
          "midi": 52,
          "name": "E3",
          "ticks": 2448,
          "time": 10.551721500000001,
          "velocity": 0.7874015748031497
        },
        {
          "duration": 0.05172412499999979,
          "durationTicks": 12,
          "midi": 64,
          "name": "E4",
          "ticks": 2472,
          "time": 10.65516975,
          "velocity": 0.7874015748031497
        },
        {
          "duration": 0.05172412499999979,
          "durationTicks": 12,
          "midi": 52,
          "name": "E3",
          "ticks": 2472,
          "time": 10.65516975,
          "velocity": 0.7874015748031497
        },
        {
          "duration": 0.025862062499999894,
          "durationTicks": 6,
          "midi": 90,
          "name": "F#6",
          "ticks": 2484,
          "time": 10.706893875,
          "velocity": 0.7874015748031497
        },
        {
          "duration": 0.025862062499999894,
          "durationTicks": 6,
          "midi": 78,
          "name": "F#5",
          "ticks": 2484,
          "time": 10.706893875,
          "velocity": 0.7874015748031497
        },
        {
          "duration": 0.025862062499999894,
          "durationTicks": 6,
          "midi": 91,
          "name": "G6",
          "ticks": 2490,
          "time": 10.7327559375,
          "velocity": 0.7874015748031497
        },
        {
          "duration": 0.025862062499999894,
          "durationTicks": 6,
          "midi": 79,
          "name": "G5",
          "ticks": 2490,
          "time": 10.7327559375,
          "velocity": 0.7874015748031497
        },
        {
          "duration": 0.3879309375000002,
          "durationTicks": 90,
          "midi": 80,
          "name": "G#5",
          "ticks": 2496,
          "time": 10.758618,
          "velocity": 0.7874015748031497
        },
        {
          "duration": 0.3879309375000002,
          "durationTicks": 90,
          "midi": 92,
          "name": "G#6",
          "ticks": 2496,
          "time": 10.758618,
          "velocity": 0.7874015748031497
        },
        {
          "duration": 0.4137930000000001,
          "durationTicks": 96,
          "midi": 47,
          "name": "B2",
          "ticks": 2496,
          "time": 10.758618,
          "velocity": 0.7874015748031497
        },
        {
          "duration": 0.4137930000000001,
          "durationTicks": 96,
          "midi": 40,
          "name": "E2",
          "ticks": 2496,
          "time": 10.758618,
          "velocity": 0.7874015748031497
        },
        {
          "duration": 0.4137930000000001,
          "durationTicks": 96,
          "midi": 64,
          "name": "E4",
          "ticks": 2496,
          "time": 10.758618,
          "velocity": 0.7874015748031497
        },
        {
          "duration": 0.4137930000000001,
          "durationTicks": 96,
          "midi": 52,
          "name": "E3",
          "ticks": 2496,
          "time": 10.758618,
          "velocity": 0.7874015748031497
        },
        {
          "duration": 0.025862062499999894,
          "durationTicks": 6,
          "midi": 79,
          "name": "G5",
          "ticks": 2586,
          "time": 11.1465489375,
          "velocity": 0.7874015748031497
        },
        {
          "duration": 0.025862062499999894,
          "durationTicks": 6,
          "midi": 91,
          "name": "G6",
          "ticks": 2586,
          "time": 11.1465489375,
          "velocity": 0.7874015748031497
        },
        {
          "duration": 1.2413790000000002,
          "durationTicks": 288,
          "midi": 78,
          "name": "F#5",
          "ticks": 2592,
          "time": 11.172411,
          "velocity": 0.7874015748031497
        },
        {
          "duration": 1.2413790000000002,
          "durationTicks": 288,
          "midi": 90,
          "name": "F#6",
          "ticks": 2592,
          "time": 11.172411,
          "velocity": 0.7874015748031497
        },
        {
          "duration": 0.4137930000000001,
          "durationTicks": 96,
          "midi": 47,
          "name": "B2",
          "ticks": 2592,
          "time": 11.172411,
          "velocity": 0.6929133858267716
        },
        {
          "duration": 0.4137930000000001,
          "durationTicks": 96,
          "midi": 40,
          "name": "E2",
          "ticks": 2592,
          "time": 11.172411,
          "velocity": 0.6929133858267716
        },
        {
          "duration": 0.4137930000000001,
          "durationTicks": 96,
          "midi": 45,
          "name": "A2",
          "ticks": 2688,
          "time": 11.586204,
          "velocity": 0.7874015748031497
        },
        {
          "duration": 0.05172412499999979,
          "durationTicks": 12,
          "midi": 50,
          "name": "D3",
          "ticks": 2688,
          "time": 11.586204,
          "velocity": 0.7874015748031497
        },
        {
          "duration": 0.05172412499999979,
          "durationTicks": 12,
          "midi": 62,
          "name": "D4",
          "ticks": 2688,
          "time": 11.586204,
          "velocity": 0.7874015748031497
        },
        {
          "duration": 0.4137930000000001,
          "durationTicks": 96,
          "midi": 38,
          "name": "D2",
          "ticks": 2688,
          "time": 11.586204,
          "velocity": 0.7874015748031497
        },
        {
          "duration": 0.05172412499999979,
          "durationTicks": 12,
          "midi": 50,
          "name": "D3",
          "ticks": 2712,
          "time": 11.68965225,
          "velocity": 0.7874015748031497
        },
        {
          "duration": 0.05172412499999979,
          "durationTicks": 12,
          "midi": 62,
          "name": "D4",
          "ticks": 2712,
          "time": 11.68965225,
          "velocity": 0.7874015748031497
        },
        {
          "duration": 0.05172412499999979,
          "durationTicks": 12,
          "midi": 50,
          "name": "D3",
          "ticks": 2736,
          "time": 11.793100500000001,
          "velocity": 0.7874015748031497
        },
        {
          "duration": 0.05172412499999979,
          "durationTicks": 12,
          "midi": 62,
          "name": "D4",
          "ticks": 2736,
          "time": 11.793100500000001,
          "velocity": 0.7874015748031497
        },
        {
          "duration": 0.05172412499999979,
          "durationTicks": 12,
          "midi": 50,
          "name": "D3",
          "ticks": 2760,
          "time": 11.896548750000001,
          "velocity": 0.7874015748031497
        },
        {
          "duration": 0.05172412499999979,
          "durationTicks": 12,
          "midi": 62,
          "name": "D4",
          "ticks": 2760,
          "time": 11.896548750000001,
          "velocity": 0.7874015748031497
        },
        {
          "duration": 0.4137930000000001,
          "durationTicks": 96,
          "midi": 45,
          "name": "A2",
          "ticks": 2784,
          "time": 11.999997,
          "velocity": 0.7874015748031497
        },
        {
          "duration": 0.4137930000000001,
          "durationTicks": 96,
          "midi": 38,
          "name": "D2",
          "ticks": 2784,
          "time": 11.999997,
          "velocity": 0.7874015748031497
        },
        {
          "duration": 0.05172412499999979,
          "durationTicks": 12,
          "midi": 62,
          "name": "D4",
          "ticks": 2784,
          "time": 11.999997,
          "velocity": 0.7874015748031497
        },
        {
          "duration": 0.05172412499999979,
          "durationTicks": 12,
          "midi": 50,
          "name": "D3",
          "ticks": 2784,
          "time": 11.999997,
          "velocity": 0.7874015748031497
        },
        {
          "duration": 0.05172412499999979,
          "durationTicks": 12,
          "midi": 50,
          "name": "D3",
          "ticks": 2808,
          "time": 12.10344525,
          "velocity": 0.7874015748031497
        },
        {
          "duration": 0.05172412499999979,
          "durationTicks": 12,
          "midi": 62,
          "name": "D4",
          "ticks": 2808,
          "time": 12.10344525,
          "velocity": 0.7874015748031497
        },
        {
          "duration": 0.05172412499999979,
          "durationTicks": 12,
          "midi": 50,
          "name": "D3",
          "ticks": 2832,
          "time": 12.206893500000001,
          "velocity": 0.7874015748031497
        },
        {
          "duration": 0.05172412499999979,
          "durationTicks": 12,
          "midi": 62,
          "name": "D4",
          "ticks": 2832,
          "time": 12.206893500000001,
          "velocity": 0.7874015748031497
        },
        {
          "duration": 0.05172412499999979,
          "durationTicks": 12,
          "midi": 50,
          "name": "D3",
          "ticks": 2856,
          "time": 12.310341750000001,
          "velocity": 0.7874015748031497
        },
        {
          "duration": 0.05172412499999979,
          "durationTicks": 12,
          "midi": 62,
          "name": "D4",
          "ticks": 2856,
          "time": 12.310341750000001,
          "velocity": 0.7874015748031497
        },
        {
          "duration": 0.8275860000000002,
          "durationTicks": 192,
          "midi": 40,
          "name": "E2",
          "ticks": 2880,
          "time": 12.41379,
          "velocity": 0.7874015748031497
        },
        {
          "duration": 0.8275860000000002,
          "durationTicks": 192,
          "midi": 64,
          "name": "E4",
          "ticks": 2880,
          "time": 12.41379,
          "velocity": 0.7874015748031497
        },
        {
          "duration": 0.8275860000000002,
          "durationTicks": 192,
          "midi": 52,
          "name": "E3",
          "ticks": 2880,
          "time": 12.41379,
          "velocity": 0.7874015748031497
        },
        {
          "duration": 0.05172412499999979,
          "durationTicks": 12,
          "midi": 49,
          "name": "C#3",
          "ticks": 3072,
          "time": 13.241376,
          "velocity": 0.7165354330708661
        },
        {
          "duration": 0.05172412499999979,
          "durationTicks": 12,
          "midi": 61,
          "name": "C#4",
          "ticks": 3072,
          "time": 13.241376,
          "velocity": 0.7165354330708661
        },
        {
          "duration": 0.20689649999999915,
          "durationTicks": 48,
          "midi": 44,
          "name": "G#2",
          "ticks": 3072,
          "time": 13.241376,
          "velocity": 0.6614173228346457
        },
        {
          "duration": 0.05172412499999979,
          "durationTicks": 12,
          "midi": 61,
          "name": "C#4",
          "ticks": 3096,
          "time": 13.34482425,
          "velocity": 0.7165354330708661
        },
        {
          "duration": 0.05172412499999979,
          "durationTicks": 12,
          "midi": 49,
          "name": "C#3",
          "ticks": 3096,
          "time": 13.34482425,
          "velocity": 0.7165354330708661
        },
        {
          "duration": 0.20689650000000093,
          "durationTicks": 48,
          "midi": 37,
          "name": "C#2",
          "ticks": 3120,
          "time": 13.4482725,
          "velocity": 0.6614173228346457
        },
        {
          "duration": 0.051724125000001564,
          "durationTicks": 12,
          "midi": 49,
          "name": "C#3",
          "ticks": 3120,
          "time": 13.4482725,
          "velocity": 0.7165354330708661
        },
        {
          "duration": 0.051724125000001564,
          "durationTicks": 12,
          "midi": 61,
          "name": "C#4",
          "ticks": 3120,
          "time": 13.4482725,
          "velocity": 0.7165354330708661
        },
        {
          "duration": 0.05172412499999979,
          "durationTicks": 12,
          "midi": 49,
          "name": "C#3",
          "ticks": 3144,
          "time": 13.551720750000001,
          "velocity": 0.7165354330708661
        },
        {
          "duration": 0.05172412499999979,
          "durationTicks": 12,
          "midi": 61,
          "name": "C#4",
          "ticks": 3144,
          "time": 13.551720750000001,
          "velocity": 0.7165354330708661
        },
        {
          "duration": 0.05172412499999979,
          "durationTicks": 12,
          "midi": 49,
          "name": "C#3",
          "ticks": 3168,
          "time": 13.655169,
          "velocity": 0.7165354330708661
        },
        {
          "duration": 0.05172412499999979,
          "durationTicks": 12,
          "midi": 61,
          "name": "C#4",
          "ticks": 3168,
          "time": 13.655169,
          "velocity": 0.7165354330708661
        },
        {
          "duration": 0.20689649999999915,
          "durationTicks": 48,
          "midi": 44,
          "name": "G#2",
          "ticks": 3168,
          "time": 13.655169,
          "velocity": 0.6614173228346457
        },
        {
          "duration": 0.05172412499999979,
          "durationTicks": 12,
          "midi": 49,
          "name": "C#3",
          "ticks": 3192,
          "time": 13.75861725,
          "velocity": 0.7165354330708661
        },
        {
          "duration": 0.05172412499999979,
          "durationTicks": 12,
          "midi": 61,
          "name": "C#4",
          "ticks": 3192,
          "time": 13.75861725,
          "velocity": 0.7165354330708661
        },
        {
          "duration": 0.051724125000001564,
          "durationTicks": 12,
          "midi": 61,
          "name": "C#4",
          "ticks": 3216,
          "time": 13.8620655,
          "velocity": 0.7165354330708661
        },
        {
          "duration": 0.051724125000001564,
          "durationTicks": 12,
          "midi": 49,
          "name": "C#3",
          "ticks": 3216,
          "time": 13.8620655,
          "velocity": 0.7165354330708661
        },
        {
          "duration": 0.20689650000000093,
          "durationTicks": 48,
          "midi": 37,
          "name": "C#2",
          "ticks": 3216,
          "time": 13.8620655,
          "velocity": 0.6614173228346457
        },
        {
          "duration": 0.05172412499999979,
          "durationTicks": 12,
          "midi": 61,
          "name": "C#4",
          "ticks": 3240,
          "time": 13.965513750000001,
          "velocity": 0.7165354330708661
        },
        {
          "duration": 0.05172412499999979,
          "durationTicks": 12,
          "midi": 49,
          "name": "C#3",
          "ticks": 3240,
          "time": 13.965513750000001,
          "velocity": 0.7165354330708661
        },
        {
          "duration": 0.3103447500000005,
          "durationTicks": 72,
          "midi": 61,
          "name": "C#4",
          "ticks": 3264,
          "time": 14.068962,
          "velocity": 0.7874015748031497
        },
        {
          "duration": 0.3103447500000005,
          "durationTicks": 72,
          "midi": 49,
          "name": "C#3",
          "ticks": 3264,
          "time": 14.068962,
          "velocity": 0.7874015748031497
        },
        {
          "duration": 0.20689649999999915,
          "durationTicks": 48,
          "midi": 44,
          "name": "G#2",
          "ticks": 3264,
          "time": 14.068962,
          "velocity": 0.6614173228346457
        },
        {
          "duration": 0.20689650000000093,
          "durationTicks": 48,
          "midi": 37,
          "name": "C#2",
          "ticks": 3312,
          "time": 14.2758585,
          "velocity": 0.6614173228346457
        },
        {
          "duration": 0.3103447499999987,
          "durationTicks": 72,
          "midi": 52,
          "name": "E3",
          "ticks": 3336,
          "time": 14.379306750000001,
          "velocity": 0.7874015748031497
        },
        {
          "duration": 0.3103447499999987,
          "durationTicks": 72,
          "midi": 64,
          "name": "E4",
          "ticks": 3336,
          "time": 14.379306750000001,
          "velocity": 0.7874015748031497
        },
        {
          "duration": 0.20689649999999915,
          "durationTicks": 48,
          "midi": 44,
          "name": "G#2",
          "ticks": 3360,
          "time": 14.482755000000001,
          "velocity": 0.6614173228346457
        },
        {
          "duration": 0.20689650000000093,
          "durationTicks": 48,
          "midi": 37,
          "name": "C#2",
          "ticks": 3408,
          "time": 14.6896515,
          "velocity": 0.6614173228346457
        },
        {
          "duration": 0.20689650000000093,
          "durationTicks": 48,
          "midi": 47,
          "name": "B2",
          "ticks": 3408,
          "time": 14.6896515,
          "velocity": 0.7874015748031497
        },
        {
          "duration": 0.20689650000000093,
          "durationTicks": 48,
          "midi": 59,
          "name": "B3",
          "ticks": 3408,
          "time": 14.6896515,
          "velocity": 0.7874015748031497
        },
        {
          "duration": 0.20689649999999915,
          "durationTicks": 48,
          "midi": 45,
          "name": "A2",
          "ticks": 3456,
          "time": 14.896548000000001,
          "velocity": 0.6614173228346457
        },
        {
          "duration": 0.05172412499999979,
          "durationTicks": 12,
          "midi": 62,
          "name": "D4",
          "ticks": 3456,
          "time": 14.896548000000001,
          "velocity": 0.7165354330708661
        },
        {
          "duration": 0.05172412499999979,
          "durationTicks": 12,
          "midi": 50,
          "name": "D3",
          "ticks": 3456,
          "time": 14.896548000000001,
          "velocity": 0.7165354330708661
        },
        {
          "duration": 0.05172412499999979,
          "durationTicks": 12,
          "midi": 50,
          "name": "D3",
          "ticks": 3480,
          "time": 14.99999625,
          "velocity": 0.7165354330708661
        },
        {
          "duration": 0.05172412499999979,
          "durationTicks": 12,
          "midi": 62,
          "name": "D4",
          "ticks": 3480,
          "time": 14.99999625,
          "velocity": 0.7165354330708661
        },
        {
          "duration": 0.05172412499999979,
          "durationTicks": 12,
          "midi": 50,
          "name": "D3",
          "ticks": 3504,
          "time": 15.1034445,
          "velocity": 0.7165354330708661
        },
        {
          "duration": 0.05172412499999979,
          "durationTicks": 12,
          "midi": 62,
          "name": "D4",
          "ticks": 3504,
          "time": 15.1034445,
          "velocity": 0.7165354330708661
        },
        {
          "duration": 0.20689650000000093,
          "durationTicks": 48,
          "midi": 38,
          "name": "D2",
          "ticks": 3504,
          "time": 15.1034445,
          "velocity": 0.6614173228346457
        },
        {
          "duration": 0.05172412499999979,
          "durationTicks": 12,
          "midi": 62,
          "name": "D4",
          "ticks": 3528,
          "time": 15.206892750000002,
          "velocity": 0.7165354330708661
        },
        {
          "duration": 0.05172412499999979,
          "durationTicks": 12,
          "midi": 50,
          "name": "D3",
          "ticks": 3528,
          "time": 15.206892750000002,
          "velocity": 0.7165354330708661
        },
        {
          "duration": 0.05172412499999979,
          "durationTicks": 12,
          "midi": 62,
          "name": "D4",
          "ticks": 3552,
          "time": 15.310341000000001,
          "velocity": 0.7165354330708661
        },
        {
          "duration": 0.05172412499999979,
          "durationTicks": 12,
          "midi": 50,
          "name": "D3",
          "ticks": 3552,
          "time": 15.310341000000001,
          "velocity": 0.7165354330708661
        },
        {
          "duration": 0.20689649999999915,
          "durationTicks": 48,
          "midi": 45,
          "name": "A2",
          "ticks": 3552,
          "time": 15.310341000000001,
          "velocity": 0.6614173228346457
        },
        {
          "duration": 0.05172412499999979,
          "durationTicks": 12,
          "midi": 62,
          "name": "D4",
          "ticks": 3576,
          "time": 15.41378925,
          "velocity": 0.7165354330708661
        },
        {
          "duration": 0.05172412499999979,
          "durationTicks": 12,
          "midi": 50,
          "name": "D3",
          "ticks": 3576,
          "time": 15.41378925,
          "velocity": 0.7165354330708661
        },
        {
          "duration": 0.05172412499999979,
          "durationTicks": 12,
          "midi": 62,
          "name": "D4",
          "ticks": 3600,
          "time": 15.5172375,
          "velocity": 0.7165354330708661
        },
        {
          "duration": 0.05172412499999979,
          "durationTicks": 12,
          "midi": 50,
          "name": "D3",
          "ticks": 3600,
          "time": 15.5172375,
          "velocity": 0.7165354330708661
        },
        {
          "duration": 0.20689650000000093,
          "durationTicks": 48,
          "midi": 38,
          "name": "D2",
          "ticks": 3600,
          "time": 15.5172375,
          "velocity": 0.6614173228346457
        },
        {
          "duration": 0.05172412499999979,
          "durationTicks": 12,
          "midi": 62,
          "name": "D4",
          "ticks": 3624,
          "time": 15.620685750000002,
          "velocity": 0.7165354330708661
        },
        {
          "duration": 0.05172412499999979,
          "durationTicks": 12,
          "midi": 50,
          "name": "D3",
          "ticks": 3624,
          "time": 15.620685750000002,
          "velocity": 0.7165354330708661
        },
        {
          "duration": 0.20689649999999915,
          "durationTicks": 48,
          "midi": 45,
          "name": "A2",
          "ticks": 3648,
          "time": 15.724134000000001,
          "velocity": 0.6614173228346457
        },
        {
          "duration": 0.3103447500000005,
          "durationTicks": 72,
          "midi": 71,
          "name": "B4",
          "ticks": 3648,
          "time": 15.724134000000001,
          "velocity": 0.7874015748031497
        },
        {
          "duration": 0.3103447500000005,
          "durationTicks": 72,
          "midi": 59,
          "name": "B3",
          "ticks": 3648,
          "time": 15.724134000000001,
          "velocity": 0.7874015748031497
        },
        {
          "duration": 0.20689650000000093,
          "durationTicks": 48,
          "midi": 38,
          "name": "D2",
          "ticks": 3696,
          "time": 15.9310305,
          "velocity": 0.6614173228346457
        },
        {
          "duration": 0.3103447499999987,
          "durationTicks": 72,
          "midi": 69,
          "name": "A4",
          "ticks": 3720,
          "time": 16.03447875,
          "velocity": 0.7874015748031497
        },
        {
          "duration": 0.3103447499999987,
          "durationTicks": 72,
          "midi": 57,
          "name": "A3",
          "ticks": 3720,
          "time": 16.03447875,
          "velocity": 0.7874015748031497
        },
        {
          "duration": 0.20689649999999915,
          "durationTicks": 48,
          "midi": 45,
          "name": "A2",
          "ticks": 3744,
          "time": 16.137927,
          "velocity": 0.6614173228346457
        },
        {
          "duration": 0.20689649999999915,
          "durationTicks": 48,
          "midi": 56,
          "name": "G#3",
          "ticks": 3792,
          "time": 16.3448235,
          "velocity": 0.7874015748031497
        },
        {
          "duration": 0.20689649999999915,
          "durationTicks": 48,
          "midi": 68,
          "name": "G#4",
          "ticks": 3792,
          "time": 16.3448235,
          "velocity": 0.7874015748031497
        },
        {
          "duration": 0.20689649999999915,
          "durationTicks": 48,
          "midi": 38,
          "name": "D2",
          "ticks": 3792,
          "time": 16.3448235,
          "velocity": 0.6614173228346457
        },
        {
          "duration": 0.05172412499999979,
          "durationTicks": 12,
          "midi": 52,
          "name": "E3",
          "ticks": 3840,
          "time": 16.55172,
          "velocity": 0.7165354330708661
        },
        {
          "duration": 0.05172412499999979,
          "durationTicks": 12,
          "midi": 64,
          "name": "E4",
          "ticks": 3840,
          "time": 16.55172,
          "velocity": 0.7165354330708661
        },
        {
          "duration": 0.2068965000000027,
          "durationTicks": 48,
          "midi": 47,
          "name": "B2",
          "ticks": 3840,
          "time": 16.55172,
          "velocity": 0.6614173228346457
        },
        {
          "duration": 0.05172412500000334,
          "durationTicks": 12,
          "midi": 52,
          "name": "E3",
          "ticks": 3864,
          "time": 16.65516825,
          "velocity": 0.7165354330708661
        },
        {
          "duration": 0.05172412500000334,
          "durationTicks": 12,
          "midi": 64,
          "name": "E4",
          "ticks": 3864,
          "time": 16.65516825,
          "velocity": 0.7165354330708661
        },
        {
          "duration": 0.20689649999999915,
          "durationTicks": 48,
          "midi": 40,
          "name": "E2",
          "ticks": 3888,
          "time": 16.758616500000002,
          "velocity": 0.6614173228346457
        },
        {
          "duration": 0.05172412499999979,
          "durationTicks": 12,
          "midi": 64,
          "name": "E4",
          "ticks": 3888,
          "time": 16.758616500000002,
          "velocity": 0.7165354330708661
        },
        {
          "duration": 0.05172412499999979,
          "durationTicks": 12,
          "midi": 52,
          "name": "E3",
          "ticks": 3888,
          "time": 16.758616500000002,
          "velocity": 0.7165354330708661
        },
        {
          "duration": 0.05172412499999979,
          "durationTicks": 12,
          "midi": 52,
          "name": "E3",
          "ticks": 3912,
          "time": 16.862064750000002,
          "velocity": 0.7165354330708661
        },
        {
          "duration": 0.05172412499999979,
          "durationTicks": 12,
          "midi": 64,
          "name": "E4",
          "ticks": 3912,
          "time": 16.862064750000002,
          "velocity": 0.7165354330708661
        },
        {
          "duration": 0.20689649999999915,
          "durationTicks": 48,
          "midi": 47,
          "name": "B2",
          "ticks": 3936,
          "time": 16.965513,
          "velocity": 0.6614173228346457
        },
        {
          "duration": 0.05172412499999979,
          "durationTicks": 12,
          "midi": 52,
          "name": "E3",
          "ticks": 3936,
          "time": 16.965513,
          "velocity": 0.7244094488188977
        },
        {
          "duration": 0.05172412499999979,
          "durationTicks": 12,
          "midi": 64,
          "name": "E4",
          "ticks": 3936,
          "time": 16.965513,
          "velocity": 0.7244094488188977
        },
        {
          "duration": 0.05172412499999979,
          "durationTicks": 12,
          "midi": 64,
          "name": "E4",
          "ticks": 3960,
          "time": 17.06896125,
          "velocity": 0.7244094488188977
        },
        {
          "duration": 0.05172412499999979,
          "durationTicks": 12,
          "midi": 52,
          "name": "E3",
          "ticks": 3960,
          "time": 17.06896125,
          "velocity": 0.7244094488188977
        },
        {
          "duration": 0.20689649999999915,
          "durationTicks": 48,
          "midi": 40,
          "name": "E2",
          "ticks": 3984,
          "time": 17.1724095,
          "velocity": 0.6614173228346457
        },
        {
          "duration": 0.05172412499999979,
          "durationTicks": 12,
          "midi": 52,
          "name": "E3",
          "ticks": 3984,
          "time": 17.1724095,
          "velocity": 0.7244094488188977
        },
        {
          "duration": 0.05172412499999979,
          "durationTicks": 12,
          "midi": 64,
          "name": "E4",
          "ticks": 3984,
          "time": 17.1724095,
          "velocity": 0.7244094488188977
        },
        {
          "duration": 0.05172412499999979,
          "durationTicks": 12,
          "midi": 64,
          "name": "E4",
          "ticks": 4008,
          "time": 17.27585775,
          "velocity": 0.7244094488188977
        },
        {
          "duration": 0.05172412499999979,
          "durationTicks": 12,
          "midi": 52,
          "name": "E3",
          "ticks": 4008,
          "time": 17.27585775,
          "velocity": 0.7244094488188977
        },
        {
          "duration": 0.2068965000000027,
          "durationTicks": 48,
          "midi": 47,
          "name": "B2",
          "ticks": 4032,
          "time": 17.379306,
          "velocity": 0.6692913385826772
        },
        {
          "duration": 0.3103447500000023,
          "durationTicks": 72,
          "midi": 56,
          "name": "G#3",
          "ticks": 4032,
          "time": 17.379306,
          "velocity": 0.7874015748031497
        },
        {
          "duration": 0.3103447500000023,
          "durationTicks": 72,
          "midi": 68,
          "name": "G#4",
          "ticks": 4032,
          "time": 17.379306,
          "velocity": 0.7874015748031497
        },
        {
          "duration": 0.20689649999999915,
          "durationTicks": 48,
          "midi": 40,
          "name": "E2",
          "ticks": 4080,
          "time": 17.586202500000002,
          "velocity": 0.6692913385826772
        },
        {
          "duration": 0.3103447499999987,
          "durationTicks": 72,
          "midi": 71,
          "name": "B4",
          "ticks": 4104,
          "time": 17.689650750000002,
          "velocity": 0.7874015748031497
        },
        {
          "duration": 0.3103447499999987,
          "durationTicks": 72,
          "midi": 59,
          "name": "B3",
          "ticks": 4104,
          "time": 17.689650750000002,
          "velocity": 0.7874015748031497
        },
        {
          "duration": 0.20689649999999915,
          "durationTicks": 48,
          "midi": 47,
          "name": "B2",
          "ticks": 4128,
          "time": 17.793099,
          "velocity": 0.6692913385826772
        },
        {
          "duration": 0.20689649999999915,
          "durationTicks": 48,
          "midi": 66,
          "name": "F#4",
          "ticks": 4176,
          "time": 17.9999955,
          "velocity": 0.7874015748031497
        },
        {
          "duration": 0.20689649999999915,
          "durationTicks": 48,
          "midi": 54,
          "name": "F#3",
          "ticks": 4176,
          "time": 17.9999955,
          "velocity": 0.7874015748031497
        },
        {
          "duration": 0.20689649999999915,
          "durationTicks": 48,
          "midi": 40,
          "name": "E2",
          "ticks": 4176,
          "time": 17.9999955,
          "velocity": 0.6692913385826772
        },
        {
          "duration": 0.2068965000000027,
          "durationTicks": 48,
          "midi": 45,
          "name": "A2",
          "ticks": 4224,
          "time": 18.206892,
          "velocity": 0.6692913385826772
        },
        {
          "duration": 0.05172412499999979,
          "durationTicks": 12,
          "midi": 50,
          "name": "D3",
          "ticks": 4224,
          "time": 18.206892,
          "velocity": 0.7244094488188977
        },
        {
          "duration": 0.05172412499999979,
          "durationTicks": 12,
          "midi": 62,
          "name": "D4",
          "ticks": 4224,
          "time": 18.206892,
          "velocity": 0.7244094488188977
        },
        {
          "duration": 0.05172412499999979,
          "durationTicks": 12,
          "midi": 50,
          "name": "D3",
          "ticks": 4248,
          "time": 18.31034025,
          "velocity": 0.7244094488188977
        },
        {
          "duration": 0.05172412499999979,
          "durationTicks": 12,
          "midi": 62,
          "name": "D4",
          "ticks": 4248,
          "time": 18.31034025,
          "velocity": 0.7244094488188977
        },
        {
          "duration": 0.05172412499999979,
          "durationTicks": 12,
          "midi": 50,
          "name": "D3",
          "ticks": 4272,
          "time": 18.413788500000003,
          "velocity": 0.7244094488188977
        },
        {
          "duration": 0.05172412499999979,
          "durationTicks": 12,
          "midi": 62,
          "name": "D4",
          "ticks": 4272,
          "time": 18.413788500000003,
          "velocity": 0.7244094488188977
        },
        {
          "duration": 0.20689649999999915,
          "durationTicks": 48,
          "midi": 38,
          "name": "D2",
          "ticks": 4272,
          "time": 18.413788500000003,
          "velocity": 0.6692913385826772
        },
        {
          "duration": 0.05172412499999979,
          "durationTicks": 12,
          "midi": 62,
          "name": "D4",
          "ticks": 4296,
          "time": 18.517236750000002,
          "velocity": 0.7244094488188977
        },
        {
          "duration": 0.05172412499999979,
          "durationTicks": 12,
          "midi": 50,
          "name": "D3",
          "ticks": 4296,
          "time": 18.517236750000002,
          "velocity": 0.7244094488188977
        },
        {
          "duration": 0.20689649999999915,
          "durationTicks": 48,
          "midi": 45,
          "name": "A2",
          "ticks": 4320,
          "time": 18.620685,
          "velocity": 0.6692913385826772
        },
        {
          "duration": 0.05172412499999979,
          "durationTicks": 12,
          "midi": 50,
          "name": "D3",
          "ticks": 4320,
          "time": 18.620685,
          "velocity": 0.7244094488188977
        },
        {
          "duration": 0.05172412499999979,
          "durationTicks": 12,
          "midi": 62,
          "name": "D4",
          "ticks": 4320,
          "time": 18.620685,
          "velocity": 0.7244094488188977
        },
        {
          "duration": 0.05172412499999979,
          "durationTicks": 12,
          "midi": 50,
          "name": "D3",
          "ticks": 4344,
          "time": 18.72413325,
          "velocity": 0.7244094488188977
        },
        {
          "duration": 0.05172412499999979,
          "durationTicks": 12,
          "midi": 62,
          "name": "D4",
          "ticks": 4344,
          "time": 18.72413325,
          "velocity": 0.7244094488188977
        },
        {
          "duration": 0.20689649999999915,
          "durationTicks": 48,
          "midi": 38,
          "name": "D2",
          "ticks": 4368,
          "time": 18.8275815,
          "velocity": 0.6692913385826772
        },
        {
          "duration": 0.05172412499999979,
          "durationTicks": 12,
          "midi": 50,
          "name": "D3",
          "ticks": 4368,
          "time": 18.8275815,
          "velocity": 0.7244094488188977
        },
        {
          "duration": 0.05172412499999979,
          "durationTicks": 12,
          "midi": 62,
          "name": "D4",
          "ticks": 4368,
          "time": 18.8275815,
          "velocity": 0.7244094488188977
        },
        {
          "duration": 0.05172412499999979,
          "durationTicks": 12,
          "midi": 50,
          "name": "D3",
          "ticks": 4392,
          "time": 18.93102975,
          "velocity": 0.7244094488188977
        },
        {
          "duration": 0.05172412499999979,
          "durationTicks": 12,
          "midi": 62,
          "name": "D4",
          "ticks": 4392,
          "time": 18.93102975,
          "velocity": 0.7244094488188977
        },
        {
          "duration": 0.3103447500000023,
          "durationTicks": 72,
          "midi": 62,
          "name": "D4",
          "ticks": 4416,
          "time": 19.034478,
          "velocity": 0.7874015748031497
        },
        {
          "duration": 0.3103447500000023,
          "durationTicks": 72,
          "midi": 50,
          "name": "D3",
          "ticks": 4416,
          "time": 19.034478,
          "velocity": 0.7874015748031497
        },
        {
          "duration": 0.2068965000000027,
          "durationTicks": 48,
          "midi": 45,
          "name": "A2",
          "ticks": 4416,
          "time": 19.034478,
          "velocity": 0.6692913385826772
        },
        {
          "duration": 0.20689649999999915,
          "durationTicks": 48,
          "midi": 38,
          "name": "D2",
          "ticks": 4464,
          "time": 19.241374500000003,
          "velocity": 0.6692913385826772
        },
        {
          "duration": 0.3103447499999987,
          "durationTicks": 72,
          "midi": 53,
          "name": "F3",
          "ticks": 4488,
          "time": 19.344822750000002,
          "velocity": 0.7874015748031497
        },
        {
          "duration": 0.3103447499999987,
          "durationTicks": 72,
          "midi": 65,
          "name": "F4",
          "ticks": 4488,
          "time": 19.344822750000002,
          "velocity": 0.7874015748031497
        },
        {
          "duration": 0.20689649999999915,
          "durationTicks": 48,
          "midi": 45,
          "name": "A2",
          "ticks": 4512,
          "time": 19.448271000000002,
          "velocity": 0.6692913385826772
        },
        {
          "duration": 0.20689649999999915,
          "durationTicks": 48,
          "midi": 38,
          "name": "D2",
          "ticks": 4560,
          "time": 19.6551675,
          "velocity": 0.6692913385826772
        },
        {
          "duration": 0.20689649999999915,
          "durationTicks": 48,
          "midi": 50,
          "name": "D3",
          "ticks": 4560,
          "time": 19.6551675,
          "velocity": 0.7874015748031497
        },
        {
          "duration": 0.20689649999999915,
          "durationTicks": 48,
          "midi": 62,
          "name": "D4",
          "ticks": 4560,
          "time": 19.6551675,
          "velocity": 0.7874015748031497
        },
        {
          "duration": 1.6551720000000003,
          "durationTicks": 384,
          "midi": 68,
          "name": "G#4",
          "ticks": 4608,
          "time": 19.862064,
          "velocity": 0.7874015748031497
        },
        {
          "duration": 0.05172412499999979,
          "durationTicks": 12,
          "midi": 61,
          "name": "C#4",
          "ticks": 4608,
          "time": 19.862064,
          "velocity": 0.7244094488188977
        },
        {
          "duration": 1.6551720000000003,
          "durationTicks": 384,
          "midi": 73,
          "name": "C#5",
          "ticks": 4608,
          "time": 19.862064,
          "velocity": 0.7874015748031497
        },
        {
          "duration": 0.05172412499999979,
          "durationTicks": 12,
          "midi": 49,
          "name": "C#3",
          "ticks": 4608,
          "time": 19.862064,
          "velocity": 0.7244094488188977
        },
        {
          "duration": 0.20689649999999915,
          "durationTicks": 48,
          "midi": 44,
          "name": "G#2",
          "ticks": 4608,
          "time": 19.862064,
          "velocity": 0.6692913385826772
        },
        {
          "duration": 0.05172412499999979,
          "durationTicks": 12,
          "midi": 49,
          "name": "C#3",
          "ticks": 4632,
          "time": 19.96551225,
          "velocity": 0.7244094488188977
        },
        {
          "duration": 0.05172412499999979,
          "durationTicks": 12,
          "midi": 61,
          "name": "C#4",
          "ticks": 4632,
          "time": 19.96551225,
          "velocity": 0.7244094488188977
        },
        {
          "duration": 0.05172412500000334,
          "durationTicks": 12,
          "midi": 61,
          "name": "C#4",
          "ticks": 4656,
          "time": 20.0689605,
          "velocity": 0.7244094488188977
        },
        {
          "duration": 0.05172412500000334,
          "durationTicks": 12,
          "midi": 49,
          "name": "C#3",
          "ticks": 4656,
          "time": 20.0689605,
          "velocity": 0.7244094488188977
        },
        {
          "duration": 0.2068965000000027,
          "durationTicks": 48,
          "midi": 37,
          "name": "C#2",
          "ticks": 4656,
          "time": 20.0689605,
          "velocity": 0.6692913385826772
        },
        {
          "duration": 0.05172412499999979,
          "durationTicks": 12,
          "midi": 49,
          "name": "C#3",
          "ticks": 4680,
          "time": 20.172408750000002,
          "velocity": 0.7244094488188977
        },
        {
          "duration": 0.05172412499999979,
          "durationTicks": 12,
          "midi": 61,
          "name": "C#4",
          "ticks": 4680,
          "time": 20.172408750000002,
          "velocity": 0.7244094488188977
        },
        {
          "duration": 0.20689649999999915,
          "durationTicks": 48,
          "midi": 44,
          "name": "G#2",
          "ticks": 4704,
          "time": 20.275857000000002,
          "velocity": 0.6692913385826772
        },
        {
          "duration": 0.05172412499999979,
          "durationTicks": 12,
          "midi": 49,
          "name": "C#3",
          "ticks": 4704,
          "time": 20.275857000000002,
          "velocity": 0.7244094488188977
        },
        {
          "duration": 0.05172412499999979,
          "durationTicks": 12,
          "midi": 61,
          "name": "C#4",
          "ticks": 4704,
          "time": 20.275857000000002,
          "velocity": 0.7244094488188977
        },
        {
          "duration": 0.05172412499999979,
          "durationTicks": 12,
          "midi": 61,
          "name": "C#4",
          "ticks": 4728,
          "time": 20.37930525,
          "velocity": 0.7244094488188977
        },
        {
          "duration": 0.05172412499999979,
          "durationTicks": 12,
          "midi": 49,
          "name": "C#3",
          "ticks": 4728,
          "time": 20.37930525,
          "velocity": 0.7244094488188977
        },
        {
          "duration": 0.20689649999999915,
          "durationTicks": 48,
          "midi": 37,
          "name": "C#2",
          "ticks": 4752,
          "time": 20.4827535,
          "velocity": 0.6692913385826772
        },
        {
          "duration": 0.05172412499999979,
          "durationTicks": 12,
          "midi": 61,
          "name": "C#4",
          "ticks": 4752,
          "time": 20.4827535,
          "velocity": 0.7244094488188977
        },
        {
          "duration": 0.05172412499999979,
          "durationTicks": 12,
          "midi": 49,
          "name": "C#3",
          "ticks": 4752,
          "time": 20.4827535,
          "velocity": 0.7244094488188977
        },
        {
          "duration": 0.05172412499999979,
          "durationTicks": 12,
          "midi": 49,
          "name": "C#3",
          "ticks": 4776,
          "time": 20.58620175,
          "velocity": 0.7244094488188977
        },
        {
          "duration": 0.05172412499999979,
          "durationTicks": 12,
          "midi": 61,
          "name": "C#4",
          "ticks": 4776,
          "time": 20.58620175,
          "velocity": 0.7244094488188977
        },
        {
          "duration": 0.3103447500000023,
          "durationTicks": 72,
          "midi": 61,
          "name": "C#4",
          "ticks": 4800,
          "time": 20.68965,
          "velocity": 0.7874015748031497
        },
        {
          "duration": 0.3103447500000023,
          "durationTicks": 72,
          "midi": 49,
          "name": "C#3",
          "ticks": 4800,
          "time": 20.68965,
          "velocity": 0.7874015748031497
        },
        {
          "duration": 0.20689649999999915,
          "durationTicks": 48,
          "midi": 44,
          "name": "G#2",
          "ticks": 4800,
          "time": 20.68965,
          "velocity": 0.6692913385826772
        },
        {
          "duration": 0.2068965000000027,
          "durationTicks": 48,
          "midi": 37,
          "name": "C#2",
          "ticks": 4848,
          "time": 20.8965465,
          "velocity": 0.6692913385826772
        },
        {
          "duration": 0.3103447499999987,
          "durationTicks": 72,
          "midi": 52,
          "name": "E3",
          "ticks": 4872,
          "time": 20.999994750000003,
          "velocity": 0.7874015748031497
        },
        {
          "duration": 0.3103447499999987,
          "durationTicks": 72,
          "midi": 64,
          "name": "E4",
          "ticks": 4872,
          "time": 20.999994750000003,
          "velocity": 0.7874015748031497
        },
        {
          "duration": 0.20689649999999915,
          "durationTicks": 48,
          "midi": 44,
          "name": "G#2",
          "ticks": 4896,
          "time": 21.103443000000002,
          "velocity": 0.6692913385826772
        },
        {
          "duration": 0.20689649999999915,
          "durationTicks": 48,
          "midi": 37,
          "name": "C#2",
          "ticks": 4944,
          "time": 21.3103395,
          "velocity": 0.6692913385826772
        },
        {
          "duration": 0.20689649999999915,
          "durationTicks": 48,
          "midi": 47,
          "name": "B2",
          "ticks": 4944,
          "time": 21.3103395,
          "velocity": 0.7874015748031497
        },
        {
          "duration": 0.20689649999999915,
          "durationTicks": 48,
          "midi": 59,
          "name": "B3",
          "ticks": 4944,
          "time": 21.3103395,
          "velocity": 0.7874015748031497
        },
        {
          "duration": 0.20689649999999915,
          "durationTicks": 48,
          "midi": 45,
          "name": "A2",
          "ticks": 4992,
          "time": 21.517236,
          "velocity": 0.6614173228346457
        },
        {
          "duration": 0.8275860000000002,
          "durationTicks": 192,
          "midi": 74,
          "name": "D5",
          "ticks": 4992,
          "time": 21.517236,
          "velocity": 0.7874015748031497
        },
        {
          "duration": 0.05172412499999979,
          "durationTicks": 12,
          "midi": 50,
          "name": "D3",
          "ticks": 4992,
          "time": 21.517236,
          "velocity": 0.7165354330708661
        },
        {
          "duration": 0.05172412499999979,
          "durationTicks": 12,
          "midi": 62,
          "name": "D4",
          "ticks": 4992,
          "time": 21.517236,
          "velocity": 0.7165354330708661
        },
        {
          "duration": 0.8275860000000002,
          "durationTicks": 192,
          "midi": 69,
          "name": "A4",
          "ticks": 4992,
          "time": 21.517236,
          "velocity": 0.7874015748031497
        },
        {
          "duration": 0.05172412499999979,
          "durationTicks": 12,
          "midi": 62,
          "name": "D4",
          "ticks": 5016,
          "time": 21.62068425,
          "velocity": 0.7165354330708661
        },
        {
          "duration": 0.05172412499999979,
          "durationTicks": 12,
          "midi": 50,
          "name": "D3",
          "ticks": 5016,
          "time": 21.62068425,
          "velocity": 0.7165354330708661
        },
        {
          "duration": 0.2068965000000027,
          "durationTicks": 48,
          "midi": 38,
          "name": "D2",
          "ticks": 5040,
          "time": 21.7241325,
          "velocity": 0.6614173228346457
        },
        {
          "duration": 0.05172412499999979,
          "durationTicks": 12,
          "midi": 62,
          "name": "D4",
          "ticks": 5040,
          "time": 21.7241325,
          "velocity": 0.7165354330708661
        },
        {
          "duration": 0.05172412499999979,
          "durationTicks": 12,
          "midi": 50,
          "name": "D3",
          "ticks": 5040,
          "time": 21.7241325,
          "velocity": 0.7165354330708661
        },
        {
          "duration": 0.05172412499999979,
          "durationTicks": 12,
          "midi": 50,
          "name": "D3",
          "ticks": 5064,
          "time": 21.827580750000003,
          "velocity": 0.7165354330708661
        },
        {
          "duration": 0.05172412499999979,
          "durationTicks": 12,
          "midi": 62,
          "name": "D4",
          "ticks": 5064,
          "time": 21.827580750000003,
          "velocity": 0.7165354330708661
        },
        {
          "duration": 0.20689649999999915,
          "durationTicks": 48,
          "midi": 45,
          "name": "A2",
          "ticks": 5088,
          "time": 21.931029000000002,
          "velocity": 0.6614173228346457
        },
        {
          "duration": 0.05172412499999979,
          "durationTicks": 12,
          "midi": 62,
          "name": "D4",
          "ticks": 5088,
          "time": 21.931029000000002,
          "velocity": 0.7165354330708661
        },
        {
          "duration": 0.05172412499999979,
          "durationTicks": 12,
          "midi": 50,
          "name": "D3",
          "ticks": 5088,
          "time": 21.931029000000002,
          "velocity": 0.7165354330708661
        },
        {
          "duration": 0.05172412499999979,
          "durationTicks": 12,
          "midi": 50,
          "name": "D3",
          "ticks": 5112,
          "time": 22.034477250000002,
          "velocity": 0.7165354330708661
        },
        {
          "duration": 0.05172412499999979,
          "durationTicks": 12,
          "midi": 62,
          "name": "D4",
          "ticks": 5112,
          "time": 22.034477250000002,
          "velocity": 0.7165354330708661
        },
        {
          "duration": 0.20689649999999915,
          "durationTicks": 48,
          "midi": 38,
          "name": "D2",
          "ticks": 5136,
          "time": 22.1379255,
          "velocity": 0.6614173228346457
        },
        {
          "duration": 0.05172412499999979,
          "durationTicks": 12,
          "midi": 50,
          "name": "D3",
          "ticks": 5136,
          "time": 22.1379255,
          "velocity": 0.7165354330708661
        },
        {
          "duration": 0.05172412499999979,
          "durationTicks": 12,
          "midi": 62,
          "name": "D4",
          "ticks": 5136,
          "time": 22.1379255,
          "velocity": 0.7165354330708661
        },
        {
          "duration": 0.05172412499999979,
          "durationTicks": 12,
          "midi": 62,
          "name": "D4",
          "ticks": 5160,
          "time": 22.24137375,
          "velocity": 0.7165354330708661
        },
        {
          "duration": 0.05172412499999979,
          "durationTicks": 12,
          "midi": 50,
          "name": "D3",
          "ticks": 5160,
          "time": 22.24137375,
          "velocity": 0.7165354330708661
        },
        {
          "duration": 0.27586200000000005,
          "durationTicks": 64,
          "midi": 76,
          "name": "E5",
          "ticks": 5184,
          "time": 22.344822,
          "velocity": 0.7874015748031497
        },
        {
          "duration": 0.27586200000000005,
          "durationTicks": 64,
          "midi": 88,
          "name": "E6",
          "ticks": 5184,
          "time": 22.344822,
          "velocity": 0.7086614173228346
        },
        {
          "duration": 0.20689649999999915,
          "durationTicks": 48,
          "midi": 45,
          "name": "A2",
          "ticks": 5184,
          "time": 22.344822,
          "velocity": 0.6614173228346457
        },
        {
          "duration": 0.3103447500000023,
          "durationTicks": 72,
          "midi": 78,
          "name": "F#5",
          "ticks": 5184,
          "time": 22.344822,
          "velocity": 0.7874015748031497
        },
        {
          "duration": 0.3103447500000023,
          "durationTicks": 72,
          "midi": 83,
          "name": "B5",
          "ticks": 5184,
          "time": 22.344822,
          "velocity": 0.7874015748031497
        },
        {
          "duration": 0.3103447500000023,
          "durationTicks": 72,
          "midi": 71,
          "name": "B4",
          "ticks": 5184,
          "time": 22.344822,
          "velocity": 0.7874015748031497
        },
        {
          "duration": 0.3103447500000023,
          "durationTicks": 72,
          "midi": 59,
          "name": "B3",
          "ticks": 5184,
          "time": 22.344822,
          "velocity": 0.7874015748031497
        },
        {
          "duration": 0.2068965000000027,
          "durationTicks": 48,
          "midi": 38,
          "name": "D2",
          "ticks": 5232,
          "time": 22.5517185,
          "velocity": 0.6614173228346457
        },
        {
          "duration": 0.27586200000000005,
          "durationTicks": 64,
          "midi": 74,
          "name": "D5",
          "ticks": 5248,
          "time": 22.620684,
          "velocity": 0.7874015748031497
        },
        {
          "duration": 0.27586200000000005,
          "durationTicks": 64,
          "midi": 86,
          "name": "D6",
          "ticks": 5248,
          "time": 22.620684,
          "velocity": 0.7086614173228346
        },
        {
          "duration": 0.3103447499999987,
          "durationTicks": 72,
          "midi": 76,
          "name": "E5",
          "ticks": 5256,
          "time": 22.655166750000003,
          "velocity": 0.7874015748031497
        },
        {
          "duration": 0.3103447499999987,
          "durationTicks": 72,
          "midi": 81,
          "name": "A5",
          "ticks": 5256,
          "time": 22.655166750000003,
          "velocity": 0.7874015748031497
        },
        {
          "duration": 0.3103447499999987,
          "durationTicks": 72,
          "midi": 69,
          "name": "A4",
          "ticks": 5256,
          "time": 22.655166750000003,
          "velocity": 0.7874015748031497
        },
        {
          "duration": 0.3103447499999987,
          "durationTicks": 72,
          "midi": 57,
          "name": "A3",
          "ticks": 5256,
          "time": 22.655166750000003,
          "velocity": 0.7874015748031497
        },
        {
          "duration": 0.20689649999999915,
          "durationTicks": 48,
          "midi": 45,
          "name": "A2",
          "ticks": 5280,
          "time": 22.758615000000002,
          "velocity": 0.6614173228346457
        },
        {
          "duration": 0.27586200000000005,
          "durationTicks": 64,
          "midi": 73,
          "name": "C#5",
          "ticks": 5312,
          "time": 22.896546,
          "velocity": 0.7874015748031497
        },
        {
          "duration": 0.27586200000000005,
          "durationTicks": 64,
          "midi": 85,
          "name": "C#6",
          "ticks": 5312,
          "time": 22.896546,
          "velocity": 0.7086614173228346
        },
        {
          "duration": 0.20689649999999915,
          "durationTicks": 48,
          "midi": 38,
          "name": "D2",
          "ticks": 5328,
          "time": 22.9655115,
          "velocity": 0.6614173228346457
        },
        {
          "duration": 0.20689649999999915,
          "durationTicks": 48,
          "midi": 75,
          "name": "D#5",
          "ticks": 5328,
          "time": 22.9655115,
          "velocity": 0.7874015748031497
        },
        {
          "duration": 0.20689649999999915,
          "durationTicks": 48,
          "midi": 80,
          "name": "G#5",
          "ticks": 5328,
          "time": 22.9655115,
          "velocity": 0.7874015748031497
        },
        {
          "duration": 0.20689649999999915,
          "durationTicks": 48,
          "midi": 68,
          "name": "G#4",
          "ticks": 5328,
          "time": 22.9655115,
          "velocity": 0.7874015748031497
        },
        {
          "duration": 0.20689649999999915,
          "durationTicks": 48,
          "midi": 56,
          "name": "G#3",
          "ticks": 5328,
          "time": 22.9655115,
          "velocity": 0.7874015748031497
        },
        {
          "duration": 0.20689649999999915,
          "durationTicks": 48,
          "midi": 47,
          "name": "B2",
          "ticks": 5376,
          "time": 23.172408,
          "velocity": 0.6614173228346457
        },
        {
          "duration": 0.05172412499999979,
          "durationTicks": 12,
          "midi": 52,
          "name": "E3",
          "ticks": 5376,
          "time": 23.172408,
          "velocity": 0.7244094488188977
        },
        {
          "duration": 0.05172412499999979,
          "durationTicks": 12,
          "midi": 64,
          "name": "E4",
          "ticks": 5376,
          "time": 23.172408,
          "velocity": 0.7244094488188977
        },
        {
          "duration": 0.8275860000000002,
          "durationTicks": 192,
          "midi": 76,
          "name": "E5",
          "ticks": 5376,
          "time": 23.172408,
          "velocity": 0.7874015748031497
        },
        {
          "duration": 0.8275860000000002,
          "durationTicks": 192,
          "midi": 71,
          "name": "B4",
          "ticks": 5376,
          "time": 23.172408,
          "velocity": 0.7874015748031497
        },
        {
          "duration": 0.05172412499999979,
          "durationTicks": 12,
          "midi": 52,
          "name": "E3",
          "ticks": 5400,
          "time": 23.27585625,
          "velocity": 0.7244094488188977
        },
        {
          "duration": 0.05172412499999979,
          "durationTicks": 12,
          "midi": 64,
          "name": "E4",
          "ticks": 5400,
          "time": 23.27585625,
          "velocity": 0.7244094488188977
        },
        {
          "duration": 0.2068965000000027,
          "durationTicks": 48,
          "midi": 40,
          "name": "E2",
          "ticks": 5424,
          "time": 23.3793045,
          "velocity": 0.6614173228346457
        },
        {
          "duration": 0.05172412499999979,
          "durationTicks": 12,
          "midi": 64,
          "name": "E4",
          "ticks": 5424,
          "time": 23.3793045,
          "velocity": 0.7244094488188977
        },
        {
          "duration": 0.05172412499999979,
          "durationTicks": 12,
          "midi": 52,
          "name": "E3",
          "ticks": 5424,
          "time": 23.3793045,
          "velocity": 0.7244094488188977
        },
        {
          "duration": 0.05172412500000334,
          "durationTicks": 12,
          "midi": 64,
          "name": "E4",
          "ticks": 5448,
          "time": 23.48275275,
          "velocity": 0.7244094488188977
        },
        {
          "duration": 0.05172412500000334,
          "durationTicks": 12,
          "midi": 52,
          "name": "E3",
          "ticks": 5448,
          "time": 23.48275275,
          "velocity": 0.7244094488188977
        },
        {
          "duration": 0.20689649999999915,
          "durationTicks": 48,
          "midi": 47,
          "name": "B2",
          "ticks": 5472,
          "time": 23.586201000000003,
          "velocity": 0.6614173228346457
        },
        {
          "duration": 0.05172412499999979,
          "durationTicks": 12,
          "midi": 52,
          "name": "E3",
          "ticks": 5472,
          "time": 23.586201000000003,
          "velocity": 0.7244094488188977
        },
        {
          "duration": 0.05172412499999979,
          "durationTicks": 12,
          "midi": 64,
          "name": "E4",
          "ticks": 5472,
          "time": 23.586201000000003,
          "velocity": 0.7244094488188977
        },
        {
          "duration": 0.05172412499999979,
          "durationTicks": 12,
          "midi": 52,
          "name": "E3",
          "ticks": 5496,
          "time": 23.689649250000002,
          "velocity": 0.7244094488188977
        },
        {
          "duration": 0.05172412499999979,
          "durationTicks": 12,
          "midi": 64,
          "name": "E4",
          "ticks": 5496,
          "time": 23.689649250000002,
          "velocity": 0.7244094488188977
        },
        {
          "duration": 0.20689649999999915,
          "durationTicks": 48,
          "midi": 40,
          "name": "E2",
          "ticks": 5520,
          "time": 23.793097500000002,
          "velocity": 0.6614173228346457
        },
        {
          "duration": 0.05172412499999979,
          "durationTicks": 12,
          "midi": 64,
          "name": "E4",
          "ticks": 5520,
          "time": 23.793097500000002,
          "velocity": 0.7244094488188977
        },
        {
          "duration": 0.05172412499999979,
          "durationTicks": 12,
          "midi": 52,
          "name": "E3",
          "ticks": 5520,
          "time": 23.793097500000002,
          "velocity": 0.7244094488188977
        },
        {
          "duration": 0.05172412499999979,
          "durationTicks": 12,
          "midi": 64,
          "name": "E4",
          "ticks": 5544,
          "time": 23.89654575,
          "velocity": 0.7244094488188977
        },
        {
          "duration": 0.05172412499999979,
          "durationTicks": 12,
          "midi": 52,
          "name": "E3",
          "ticks": 5544,
          "time": 23.89654575,
          "velocity": 0.7244094488188977
        },
        {
          "duration": 0.27586200000000005,
          "durationTicks": 64,
          "midi": 76,
          "name": "E5",
          "ticks": 5568,
          "time": 23.999994,
          "velocity": 0.7874015748031497
        },
        {
          "duration": 0.27586200000000005,
          "durationTicks": 64,
          "midi": 88,
          "name": "E6",
          "ticks": 5568,
          "time": 23.999994,
          "velocity": 0.7007874015748031
        },
        {
          "duration": 0.20689649999999915,
          "durationTicks": 48,
          "midi": 47,
          "name": "B2",
          "ticks": 5568,
          "time": 23.999994,
          "velocity": 0.6692913385826772
        },
        {
          "duration": 0.3103447499999987,
          "durationTicks": 72,
          "midi": 56,
          "name": "G#3",
          "ticks": 5568,
          "time": 23.999994,
          "velocity": 0.7874015748031497
        },
        {
          "duration": 0.3103447499999987,
          "durationTicks": 72,
          "midi": 68,
          "name": "G#4",
          "ticks": 5568,
          "time": 23.999994,
          "velocity": 0.7874015748031497
        },
        {
          "duration": 0.3103447499999987,
          "durationTicks": 72,
          "midi": 80,
          "name": "G#5",
          "ticks": 5568,
          "time": 23.999994,
          "velocity": 0.7874015748031497
        },
        {
          "duration": 0.3103447499999987,
          "durationTicks": 72,
          "midi": 75,
          "name": "D#5",
          "ticks": 5568,
          "time": 23.999994,
          "velocity": 0.7874015748031497
        },
        {
          "duration": 0.2068965000000027,
          "durationTicks": 48,
          "midi": 40,
          "name": "E2",
          "ticks": 5616,
          "time": 24.2068905,
          "velocity": 0.6692913385826772
        },
        {
          "duration": 0.27586200000000005,
          "durationTicks": 64,
          "midi": 78,
          "name": "F#5",
          "ticks": 5632,
          "time": 24.275856,
          "velocity": 0.7874015748031497
        },
        {
          "duration": 0.27586200000000005,
          "durationTicks": 64,
          "midi": 90,
          "name": "F#6",
          "ticks": 5632,
          "time": 24.275856,
          "velocity": 0.7007874015748031
        },
        {
          "duration": 0.3103447500000023,
          "durationTicks": 72,
          "midi": 83,
          "name": "B5",
          "ticks": 5640,
          "time": 24.31033875,
          "velocity": 0.7874015748031497
        },
        {
          "duration": 0.3103447500000023,
          "durationTicks": 72,
          "midi": 78,
          "name": "F#5",
          "ticks": 5640,
          "time": 24.31033875,
          "velocity": 0.7874015748031497
        },
        {
          "duration": 0.3103447500000023,
          "durationTicks": 72,
          "midi": 71,
          "name": "B4",
          "ticks": 5640,
          "time": 24.31033875,
          "velocity": 0.7874015748031497
        },
        {
          "duration": 0.3103447500000023,
          "durationTicks": 72,
          "midi": 59,
          "name": "B3",
          "ticks": 5640,
          "time": 24.31033875,
          "velocity": 0.7874015748031497
        },
        {
          "duration": 0.20689649999999915,
          "durationTicks": 48,
          "midi": 47,
          "name": "B2",
          "ticks": 5664,
          "time": 24.413787000000003,
          "velocity": 0.6692913385826772
        },
        {
          "duration": 0.27586200000000005,
          "durationTicks": 64,
          "midi": 81,
          "name": "A5",
          "ticks": 5696,
          "time": 24.551718,
          "velocity": 0.7874015748031497
        },
        {
          "duration": 0.27586200000000005,
          "durationTicks": 64,
          "midi": 93,
          "name": "A6",
          "ticks": 5696,
          "time": 24.551718,
          "velocity": 0.7007874015748031
        },
        {
          "duration": 0.20689649999999915,
          "durationTicks": 48,
          "midi": 40,
          "name": "E2",
          "ticks": 5712,
          "time": 24.620683500000002,
          "velocity": 0.6692913385826772
        },
        {
          "duration": 0.20689649999999915,
          "durationTicks": 48,
          "midi": 73,
          "name": "C#5",
          "ticks": 5712,
          "time": 24.620683500000002,
          "velocity": 0.7874015748031497
        },
        {
          "duration": 0.20689649999999915,
          "durationTicks": 48,
          "midi": 78,
          "name": "F#5",
          "ticks": 5712,
          "time": 24.620683500000002,
          "velocity": 0.7874015748031497
        },
        {
          "duration": 0.20689649999999915,
          "durationTicks": 48,
          "midi": 66,
          "name": "F#4",
          "ticks": 5712,
          "time": 24.620683500000002,
          "velocity": 0.7874015748031497
        },
        {
          "duration": 0.20689649999999915,
          "durationTicks": 48,
          "midi": 54,
          "name": "F#3",
          "ticks": 5712,
          "time": 24.620683500000002,
          "velocity": 0.7874015748031497
        },
        {
          "duration": 0.41379300000000185,
          "durationTicks": 96,
          "midi": 93,
          "name": "A6",
          "ticks": 5760,
          "time": 24.82758,
          "velocity": 0.7007874015748031
        },
        {
          "duration": 0.05172412499999979,
          "durationTicks": 12,
          "midi": 81,
          "name": "A5",
          "ticks": 5760,
          "time": 24.82758,
          "velocity": 0.7874015748031497
        },
        {
          "duration": 0.8275860000000002,
          "durationTicks": 192,
          "midi": 57,
          "name": "A3",
          "ticks": 5760,
          "time": 24.82758,
          "velocity": 0.7874015748031497
        },
        {
          "duration": 0.15517237499999936,
          "durationTicks": 36,
          "midi": 81,
          "name": "A5",
          "ticks": 5760,
          "time": 24.82758,
          "velocity": 0.5196850393700787
        },
        {
          "duration": 0.05172412499999979,
          "durationTicks": 12,
          "midi": 69,
          "name": "A4",
          "ticks": 5760,
          "time": 24.82758,
          "velocity": 0.5196850393700787
        },
        {
          "duration": 0.05172412499999979,
          "durationTicks": 12,
          "midi": 69,
          "name": "A4",
          "ticks": 5784,
          "time": 24.93102825,
          "velocity": 0.5196850393700787
        },
        {
          "duration": 0.15517237499999936,
          "durationTicks": 36,
          "midi": 81,
          "name": "A5",
          "ticks": 5784,
          "time": 24.93102825,
          "velocity": 0.5196850393700787
        },
        {
          "duration": 0.05172412499999979,
          "durationTicks": 12,
          "midi": 69,
          "name": "A4",
          "ticks": 5808,
          "time": 25.0344765,
          "velocity": 0.5196850393700787
        },
        {
          "duration": 0.15517237499999936,
          "durationTicks": 36,
          "midi": 81,
          "name": "A5",
          "ticks": 5808,
          "time": 25.0344765,
          "velocity": 0.5196850393700787
        },
        {
          "duration": 0.15517237500000292,
          "durationTicks": 36,
          "midi": 81,
          "name": "A5",
          "ticks": 5832,
          "time": 25.13792475,
          "velocity": 0.5275590551181102
        },
        {
          "duration": 0.05172412499999979,
          "durationTicks": 12,
          "midi": 69,
          "name": "A4",
          "ticks": 5832,
          "time": 25.13792475,
          "velocity": 0.5196850393700787
        },
        {
          "duration": 0.15517237499999936,
          "durationTicks": 36,
          "midi": 81,
          "name": "A5",
          "ticks": 5856,
          "time": 25.241373000000003,
          "velocity": 0.5275590551181102
        },
        {
          "duration": 0.05172412499999979,
          "durationTicks": 12,
          "midi": 69,
          "name": "A4",
          "ticks": 5856,
          "time": 25.241373000000003,
          "velocity": 0.5196850393700787
        },
        {
          "duration": 0.15517237499999936,
          "durationTicks": 36,
          "midi": 81,
          "name": "A5",
          "ticks": 5880,
          "time": 25.344821250000003,
          "velocity": 0.5275590551181102
        },
        {
          "duration": 0.05172412499999979,
          "durationTicks": 12,
          "midi": 69,
          "name": "A4",
          "ticks": 5880,
          "time": 25.344821250000003,
          "velocity": 0.5196850393700787
        },
        {
          "duration": 0.15517237499999936,
          "durationTicks": 36,
          "midi": 81,
          "name": "A5",
          "ticks": 5904,
          "time": 25.448269500000002,
          "velocity": 0.5354330708661418
        },
        {
          "duration": 0.05172412499999979,
          "durationTicks": 12,
          "midi": 69,
          "name": "A4",
          "ticks": 5904,
          "time": 25.448269500000002,
          "velocity": 0.5196850393700787
        },
        {
          "duration": 0.9310342499999997,
          "durationTicks": 216,
          "midi": 81,
          "name": "A5",
          "ticks": 5928,
          "time": 25.55171775,
          "velocity": 0.5354330708661418
        },
        {
          "duration": 0.05172412499999979,
          "durationTicks": 12,
          "midi": 69,
          "name": "A4",
          "ticks": 5928,
          "time": 25.55171775,
          "velocity": 0.5196850393700787
        },
        {
          "duration": 0.05172412499999979,
          "durationTicks": 12,
          "midi": 69,
          "name": "A4",
          "ticks": 5952,
          "time": 25.655166,
          "velocity": 0.15748031496062992
        },
        {
          "duration": 0.05172412499999979,
          "durationTicks": 12,
          "midi": 69,
          "name": "A4",
          "ticks": 5964,
          "time": 25.706890125,
          "velocity": 0.18110236220472442
        },
        {
          "duration": 0.05172412499999979,
          "durationTicks": 12,
          "midi": 69,
          "name": "A4",
          "ticks": 5976,
          "time": 25.75861425,
          "velocity": 0.2047244094488189
        },
        {
          "duration": 0.05172412499999979,
          "durationTicks": 12,
          "midi": 69,
          "name": "A4",
          "ticks": 5988,
          "time": 25.810338375,
          "velocity": 0.23622047244094488
        },
        {
          "duration": 0.05172412499999979,
          "durationTicks": 12,
          "midi": 69,
          "name": "A4",
          "ticks": 6000,
          "time": 25.8620625,
          "velocity": 0.25984251968503935
        },
        {
          "duration": 0.05172412499999979,
          "durationTicks": 12,
          "midi": 69,
          "name": "A4",
          "ticks": 6012,
          "time": 25.913786625,
          "velocity": 0.28346456692913385
        },
        {
          "duration": 0.05172412499999979,
          "durationTicks": 12,
          "midi": 69,
          "name": "A4",
          "ticks": 6024,
          "time": 25.96551075,
          "velocity": 0.31496062992125984
        },
        {
          "duration": 0.05172412500000334,
          "durationTicks": 12,
          "midi": 69,
          "name": "A4",
          "ticks": 6036,
          "time": 26.017234875,
          "velocity": 0.33858267716535434
        },
        {
          "duration": 0.05172412499999979,
          "durationTicks": 12,
          "midi": 69,
          "name": "A4",
          "ticks": 6048,
          "time": 26.068959000000003,
          "velocity": 0.36220472440944884
        },
        {
          "duration": 0.05172412499999979,
          "durationTicks": 12,
          "midi": 69,
          "name": "A4",
          "ticks": 6060,
          "time": 26.120683125000003,
          "velocity": 0.3858267716535433
        },
        {
          "duration": 0.05172412499999979,
          "durationTicks": 12,
          "midi": 69,
          "name": "A4",
          "ticks": 6072,
          "time": 26.172407250000003,
          "velocity": 0.41732283464566927
        },
        {
          "duration": 0.05172412499999979,
          "durationTicks": 12,
          "midi": 69,
          "name": "A4",
          "ticks": 6084,
          "time": 26.224131375000002,
          "velocity": 0.4409448818897638
        },
        {
          "duration": 0.05172412499999979,
          "durationTicks": 12,
          "midi": 69,
          "name": "A4",
          "ticks": 6096,
          "time": 26.275855500000002,
          "velocity": 0.4645669291338583
        },
        {
          "duration": 0.05172412499999979,
          "durationTicks": 12,
          "midi": 69,
          "name": "A4",
          "ticks": 6108,
          "time": 26.327579625000002,
          "velocity": 0.49606299212598426
        },
        {
          "duration": 0.05172412499999979,
          "durationTicks": 12,
          "midi": 69,
          "name": "A4",
          "ticks": 6120,
          "time": 26.379303750000002,
          "velocity": 0.5196850393700787
        },
        {
          "duration": 0.05172412499999979,
          "durationTicks": 12,
          "midi": 69,
          "name": "A4",
          "ticks": 6132,
          "time": 26.431027875,
          "velocity": 0.5433070866141733
        },
        {
          "duration": 0.10344824999999958,
          "durationTicks": 24,
          "midi": 73,
          "name": "C#5",
          "ticks": 6144,
          "time": 26.482752,
          "velocity": 0.7874015748031497
        },
        {
          "duration": 0.5172412500000014,
          "durationTicks": 120,
          "midi": 73,
          "name": "C#5",
          "ticks": 6144,
          "time": 26.482752,
          "velocity": 0.6062992125984252
        },
        {
          "duration": 0.20689649999999915,
          "durationTicks": 48,
          "midi": 61,
          "name": "C#4",
          "ticks": 6144,
          "time": 26.482752,
          "velocity": 0.7874015748031497
        },
        {
          "duration": 2.4827580000000005,
          "durationTicks": 576,
          "midi": 44,
          "name": "G#2",
          "ticks": 6144,
          "time": 26.482752,
          "velocity": 0.6929133858267716
        },
        {
          "duration": 2.4827580000000005,
          "durationTicks": 576,
          "midi": 37,
          "name": "C#2",
          "ticks": 6144,
          "time": 26.482752,
          "velocity": 0.6929133858267716
        },
        {
          "duration": 0.3103447499999987,
          "durationTicks": 72,
          "midi": 61,
          "name": "C#4",
          "ticks": 6168,
          "time": 26.58620025,
          "velocity": 0.6062992125984252
        },
        {
          "duration": 0.10344824999999958,
          "durationTicks": 24,
          "midi": 49,
          "name": "C#3",
          "ticks": 6192,
          "time": 26.6896485,
          "velocity": 0.6062992125984252
        },
        {
          "duration": 0.3103447500000023,
          "durationTicks": 72,
          "midi": 61,
          "name": "C#4",
          "ticks": 6216,
          "time": 26.79309675,
          "velocity": 0.6062992125984252
        },
        {
          "duration": 0.5172412500000014,
          "durationTicks": 120,
          "midi": 73,
          "name": "C#5",
          "ticks": 6240,
          "time": 26.896545,
          "velocity": 0.6062992125984252
        },
        {
          "duration": 0.3103447499999987,
          "durationTicks": 72,
          "midi": 61,
          "name": "C#4",
          "ticks": 6264,
          "time": 26.999993250000003,
          "velocity": 0.6062992125984252
        },
        {
          "duration": 0.10344824999999958,
          "durationTicks": 24,
          "midi": 49,
          "name": "C#3",
          "ticks": 6288,
          "time": 27.103441500000002,
          "velocity": 0.6062992125984252
        },
        {
          "duration": 0.5172412499999979,
          "durationTicks": 120,
          "midi": 61,
          "name": "C#4",
          "ticks": 6312,
          "time": 27.206889750000002,
          "velocity": 0.6062992125984252
        },
        {
          "duration": 0.3103447499999987,
          "durationTicks": 72,
          "midi": 73,
          "name": "C#5",
          "ticks": 6336,
          "time": 27.310338,
          "velocity": 0.6062992125984252
        },
        {
          "duration": 0.10344824999999958,
          "durationTicks": 24,
          "midi": 49,
          "name": "C#3",
          "ticks": 6360,
          "time": 27.41378625,
          "velocity": 0.6062992125984252
        },
        {
          "duration": 2.068965000000002,
          "durationTicks": 480,
          "midi": 73,
          "name": "C#5",
          "ticks": 6384,
          "time": 27.5172345,
          "velocity": 0.6062992125984252
        },
        {
          "duration": 1.9655167500000026,
          "durationTicks": 456,
          "midi": 61,
          "name": "C#4",
          "ticks": 6408,
          "time": 27.62068275,
          "velocity": 0.6062992125984252
        },
        {
          "duration": 0.10344825000000313,
          "durationTicks": 24,
          "midi": 78,
          "name": "F#5",
          "ticks": 6432,
          "time": 27.724131,
          "velocity": 0.6062992125984252
        },
        {
          "duration": 0.10344824999999958,
          "durationTicks": 24,
          "midi": 80,
          "name": "G#5",
          "ticks": 6456,
          "time": 27.827579250000003,
          "velocity": 0.6062992125984252
        },
        {
          "duration": 0.10344824999999958,
          "durationTicks": 24,
          "midi": 83,
          "name": "B5",
          "ticks": 6480,
          "time": 27.931027500000003,
          "velocity": 0.6062992125984252
        },
        {
          "duration": 0.10344824999999958,
          "durationTicks": 24,
          "midi": 85,
          "name": "C#6",
          "ticks": 6504,
          "time": 28.034475750000002,
          "velocity": 0.6062992125984252
        },
        {
          "duration": 0.20689649999999915,
          "durationTicks": 48,
          "midi": 78,
          "name": "F#5",
          "ticks": 6528,
          "time": 28.137924,
          "velocity": 0.7322834645669292
        },
        {
          "duration": 0.20689649999999915,
          "durationTicks": 48,
          "midi": 90,
          "name": "F#6",
          "ticks": 6528,
          "time": 28.137924,
          "velocity": 0.7322834645669292
        },
        {
          "duration": 1.241379000000002,
          "durationTicks": 288,
          "midi": 80,
          "name": "G#5",
          "ticks": 6576,
          "time": 28.3448205,
          "velocity": 0.7322834645669292
        },
        {
          "duration": 1.241379000000002,
          "durationTicks": 288,
          "midi": 92,
          "name": "G#6",
          "ticks": 6576,
          "time": 28.3448205,
          "velocity": 0.7322834645669292
        },
        {
          "duration": 0.2068965000000027,
          "durationTicks": 48,
          "midi": 49,
          "name": "C#3",
          "ticks": 6816,
          "time": 29.379303,
          "velocity": 0.6850393700787402
        },
        {
          "duration": 0.2068965000000027,
          "durationTicks": 48,
          "midi": 37,
          "name": "C#2",
          "ticks": 6816,
          "time": 29.379303,
          "velocity": 0.6850393700787402
        },
        {
          "duration": 0.2068965000000027,
          "durationTicks": 48,
          "midi": 44,
          "name": "G#2",
          "ticks": 6816,
          "time": 29.379303,
          "velocity": 0.6850393700787402
        },
        {
          "duration": 0.4137929999999983,
          "durationTicks": 96,
          "midi": 49,
          "name": "C#3",
          "ticks": 6912,
          "time": 29.793096000000002,
          "velocity": 0.7874015748031497
        },
        {
          "duration": 0.4137929999999983,
          "durationTicks": 96,
          "midi": 61,
          "name": "C#4",
          "ticks": 6912,
          "time": 29.793096000000002,
          "velocity": 0.7874015748031497
        },
        {
          "duration": 0.20689649999999915,
          "durationTicks": 48,
          "midi": 37,
          "name": "C#2",
          "ticks": 6912,
          "time": 29.793096000000002,
          "velocity": 0.6929133858267716
        },
        {
          "duration": 0.20689649999999915,
          "durationTicks": 48,
          "midi": 49,
          "name": "C#3",
          "ticks": 6960,
          "time": 29.9999925,
          "velocity": 0.6929133858267716
        },
        {
          "duration": 0.2068965000000027,
          "durationTicks": 48,
          "midi": 37,
          "name": "C#2",
          "ticks": 7008,
          "time": 30.206889,
          "velocity": 0.6929133858267716
        },
        {
          "duration": 0.20689649999999915,
          "durationTicks": 48,
          "midi": 49,
          "name": "C#3",
          "ticks": 7056,
          "time": 30.413785500000003,
          "velocity": 0.6929133858267716
        },
        {
          "duration": 0.05172412499999979,
          "durationTicks": 12,
          "midi": 61,
          "name": "C#4",
          "ticks": 7068,
          "time": 30.465509625000003,
          "velocity": 0.2677165354330709
        },
        {
          "duration": 0.05172412499999979,
          "durationTicks": 12,
          "midi": 61,
          "name": "C#4",
          "ticks": 7092,
          "time": 30.568957875000002,
          "velocity": 0.2677165354330709
        },
        {
          "duration": 0.20689649999999915,
          "durationTicks": 48,
          "midi": 37,
          "name": "C#2",
          "ticks": 7104,
          "time": 30.620682000000002,
          "velocity": 0.6929133858267716
        },
        {
          "duration": 0.05172412499999979,
          "durationTicks": 12,
          "midi": 61,
          "name": "C#4",
          "ticks": 7116,
          "time": 30.672406125000002,
          "velocity": 0.2677165354330709
        },
        {
          "duration": 0.05172412499999979,
          "durationTicks": 12,
          "midi": 61,
          "name": "C#4",
          "ticks": 7140,
          "time": 30.775854375,
          "velocity": 0.2677165354330709
        },
        {
          "duration": 0.20689649999999915,
          "durationTicks": 48,
          "midi": 49,
          "name": "C#3",
          "ticks": 7152,
          "time": 30.8275785,
          "velocity": 0.6929133858267716
        },
        {
          "duration": 0.05172412499999979,
          "durationTicks": 12,
          "midi": 61,
          "name": "C#4",
          "ticks": 7164,
          "time": 30.879302625,
          "velocity": 0.2677165354330709
        },
        {
          "duration": 0.2068965000000027,
          "durationTicks": 48,
          "midi": 61,
          "name": "C#4",
          "ticks": 7200,
          "time": 31.034475,
          "velocity": 0.7874015748031497
        },
        {
          "duration": 0.2068965000000027,
          "durationTicks": 48,
          "midi": 49,
          "name": "C#3",
          "ticks": 7200,
          "time": 31.034475,
          "velocity": 0.7874015748031497
        },
        {
          "duration": 0.2068965000000027,
          "durationTicks": 48,
          "midi": 37,
          "name": "C#2",
          "ticks": 7200,
          "time": 31.034475,
          "velocity": 0.6929133858267716
        },
        {
          "duration": 0.20689649999999915,
          "durationTicks": 48,
          "midi": 63,
          "name": "D#4",
          "ticks": 7248,
          "time": 31.241371500000003,
          "velocity": 0.7874015748031497
        },
        {
          "duration": 0.20689649999999915,
          "durationTicks": 48,
          "midi": 51,
          "name": "D#3",
          "ticks": 7248,
          "time": 31.241371500000003,
          "velocity": 0.7874015748031497
        },
        {
          "duration": 0.20689649999999915,
          "durationTicks": 48,
          "midi": 49,
          "name": "C#3",
          "ticks": 7248,
          "time": 31.241371500000003,
          "velocity": 0.6929133858267716
        },
        {
          "duration": 0.4137929999999983,
          "durationTicks": 96,
          "midi": 52,
          "name": "E3",
          "ticks": 7296,
          "time": 31.448268000000002,
          "velocity": 0.7874015748031497
        },
        {
          "duration": 0.4137929999999983,
          "durationTicks": 96,
          "midi": 64,
          "name": "E4",
          "ticks": 7296,
          "time": 31.448268000000002,
          "velocity": 0.7874015748031497
        },
        {
          "duration": 0.20689649999999915,
          "durationTicks": 48,
          "midi": 40,
          "name": "E2",
          "ticks": 7296,
          "time": 31.448268000000002,
          "velocity": 0.6929133858267716
        },
        {
          "duration": 0.20689649999999915,
          "durationTicks": 48,
          "midi": 52,
          "name": "E3",
          "ticks": 7344,
          "time": 31.6551645,
          "velocity": 0.6929133858267716
        },
        {
          "duration": 0.2068965000000027,
          "durationTicks": 48,
          "midi": 40,
          "name": "E2",
          "ticks": 7392,
          "time": 31.862061,
          "velocity": 0.6929133858267716
        },
        {
          "duration": 0.05172412499999979,
          "durationTicks": 12,
          "midi": 61,
          "name": "C#4",
          "ticks": 7404,
          "time": 31.913785125,
          "velocity": 0.2677165354330709
        },
        {
          "duration": 0.05172412499999979,
          "durationTicks": 12,
          "midi": 61,
          "name": "C#4",
          "ticks": 7428,
          "time": 32.017233375,
          "velocity": 0.2677165354330709
        },
        {
          "duration": 0.20689649999999915,
          "durationTicks": 48,
          "midi": 52,
          "name": "E3",
          "ticks": 7440,
          "time": 32.0689575,
          "velocity": 0.6929133858267716
        },
        {
          "duration": 0.05172412499999979,
          "durationTicks": 12,
          "midi": 61,
          "name": "C#4",
          "ticks": 7452,
          "time": 32.120681625,
          "velocity": 0.2677165354330709
        },
        {
          "duration": 0.05172412499999979,
          "durationTicks": 12,
          "midi": 61,
          "name": "C#4",
          "ticks": 7476,
          "time": 32.224129875,
          "velocity": 0.2677165354330709
        },
        {
          "duration": 0.20689649999999915,
          "durationTicks": 48,
          "midi": 40,
          "name": "E2",
          "ticks": 7488,
          "time": 32.275854,
          "velocity": 0.6929133858267716
        },
        {
          "duration": 0.05172412499999979,
          "durationTicks": 12,
          "midi": 61,
          "name": "C#4",
          "ticks": 7500,
          "time": 32.327578125,
          "velocity": 0.2677165354330709
        },
        {
          "duration": 0.05172412499999979,
          "durationTicks": 12,
          "midi": 61,
          "name": "C#4",
          "ticks": 7524,
          "time": 32.431026375,
          "velocity": 0.2677165354330709
        },
        {
          "duration": 0.20689649999999915,
          "durationTicks": 48,
          "midi": 52,
          "name": "E3",
          "ticks": 7536,
          "time": 32.4827505,
          "velocity": 0.6929133858267716
        },
        {
          "duration": 0.05172412499999979,
          "durationTicks": 12,
          "midi": 61,
          "name": "C#4",
          "ticks": 7548,
          "time": 32.534474625,
          "velocity": 0.2677165354330709
        },
        {
          "duration": 0.05172412499999979,
          "durationTicks": 12,
          "midi": 61,
          "name": "C#4",
          "ticks": 7572,
          "time": 32.637922875,
          "velocity": 0.2677165354330709
        },
        {
          "duration": 0.20689649999999915,
          "durationTicks": 48,
          "midi": 54,
          "name": "F#3",
          "ticks": 7584,
          "time": 32.689647,
          "velocity": 0.7874015748031497
        },
        {
          "duration": 0.20689649999999915,
          "durationTicks": 48,
          "midi": 66,
          "name": "F#4",
          "ticks": 7584,
          "time": 32.689647,
          "velocity": 0.7874015748031497
        },
        {
          "duration": 0.20689649999999915,
          "durationTicks": 48,
          "midi": 40,
          "name": "E2",
          "ticks": 7584,
          "time": 32.689647,
          "velocity": 0.6929133858267716
        },
        {
          "duration": 0.20689649999999915,
          "durationTicks": 48,
          "midi": 56,
          "name": "G#3",
          "ticks": 7632,
          "time": 32.8965435,
          "velocity": 0.7874015748031497
        },
        {
          "duration": 0.20689649999999915,
          "durationTicks": 48,
          "midi": 68,
          "name": "G#4",
          "ticks": 7632,
          "time": 32.8965435,
          "velocity": 0.7874015748031497
        },
        {
          "duration": 0.20689649999999915,
          "durationTicks": 48,
          "midi": 52,
          "name": "E3",
          "ticks": 7632,
          "time": 32.8965435,
          "velocity": 0.6929133858267716
        },
        {
          "duration": 0.2844826875000024,
          "durationTicks": 66,
          "midi": 66,
          "name": "F#4",
          "ticks": 7680,
          "time": 33.10344,
          "velocity": 0.7874015748031497
        },
        {
          "duration": 0.4137930000000054,
          "durationTicks": 96,
          "midi": 54,
          "name": "F#3",
          "ticks": 7680,
          "time": 33.10344,
          "velocity": 0.7874015748031497
        },
        {
          "duration": 0.20689649999999915,
          "durationTicks": 48,
          "midi": 42,
          "name": "F#2",
          "ticks": 7680,
          "time": 33.10344,
          "velocity": 0.6929133858267716
        },
        {
          "duration": 0.20689650000000626,
          "durationTicks": 48,
          "midi": 54,
          "name": "F#3",
          "ticks": 7728,
          "time": 33.3103365,
          "velocity": 0.6929133858267716
        },
        {
          "duration": 0.15517237499999936,
          "durationTicks": 36,
          "midi": 66,
          "name": "F#4",
          "ticks": 7734,
          "time": 33.3361985625,
          "velocity": 0.2677165354330709
        },
        {
          "duration": 0.07758618750000323,
          "durationTicks": 18,
          "midi": 66,
          "name": "F#4",
          "ticks": 7758,
          "time": 33.4396468125,
          "velocity": 0.2677165354330709
        },
        {
          "duration": 0.20689649999999915,
          "durationTicks": 48,
          "midi": 42,
          "name": "F#2",
          "ticks": 7776,
          "time": 33.517233000000004,
          "velocity": 0.6929133858267716
        },
        {
          "duration": 0.05172412499999979,
          "durationTicks": 12,
          "midi": 66,
          "name": "F#4",
          "ticks": 7782,
          "time": 33.5430950625,
          "velocity": 0.2677165354330709
        },
        {
          "duration": 0.05172412499999979,
          "durationTicks": 12,
          "midi": 66,
          "name": "F#4",
          "ticks": 7806,
          "time": 33.6465433125,
          "velocity": 0.2677165354330709
        },
        {
          "duration": 0.20689649999999915,
          "durationTicks": 48,
          "midi": 54,
          "name": "F#3",
          "ticks": 7824,
          "time": 33.724129500000004,
          "velocity": 0.6929133858267716
        },
        {
          "duration": 0.05172412499999979,
          "durationTicks": 12,
          "midi": 66,
          "name": "F#4",
          "ticks": 7830,
          "time": 33.7499915625,
          "velocity": 0.2677165354330709
        },
        {
          "duration": 0.05172412499999979,
          "durationTicks": 12,
          "midi": 66,
          "name": "F#4",
          "ticks": 7854,
          "time": 33.8534398125,
          "velocity": 0.2677165354330709
        },
        {
          "duration": 0.20689649999999915,
          "durationTicks": 48,
          "midi": 42,
          "name": "F#2",
          "ticks": 7872,
          "time": 33.931026,
          "velocity": 0.6929133858267716
        },
        {
          "duration": 0.05172412499999979,
          "durationTicks": 12,
          "midi": 66,
          "name": "F#4",
          "ticks": 7878,
          "time": 33.9568880625,
          "velocity": 0.2677165354330709
        },
        {
          "duration": 0.05172412499999979,
          "durationTicks": 12,
          "midi": 66,
          "name": "F#4",
          "ticks": 7902,
          "time": 34.0603363125,
          "velocity": 0.2677165354330709
        },
        {
          "duration": 0.20689649999999915,
          "durationTicks": 48,
          "midi": 54,
          "name": "F#3",
          "ticks": 7920,
          "time": 34.1379225,
          "velocity": 0.6929133858267716
        },
        {
          "duration": 0.05172412500000689,
          "durationTicks": 12,
          "midi": 66,
          "name": "F#4",
          "ticks": 7926,
          "time": 34.1637845625,
          "velocity": 0.2677165354330709
        },
        {
          "duration": 0.05172412499999979,
          "durationTicks": 12,
          "midi": 66,
          "name": "F#4",
          "ticks": 7950,
          "time": 34.267232812500005,
          "velocity": 0.2677165354330709
        },
        {
          "duration": 0.20689649999999915,
          "durationTicks": 48,
          "midi": 42,
          "name": "F#2",
          "ticks": 7968,
          "time": 34.344819,
          "velocity": 0.6929133858267716
        },
        {
          "duration": 0.20689649999999915,
          "durationTicks": 48,
          "midi": 54,
          "name": "F#3",
          "ticks": 7968,
          "time": 34.344819,
          "velocity": 0.7874015748031497
        },
        {
          "duration": 0.20689649999999915,
          "durationTicks": 48,
          "midi": 66,
          "name": "F#4",
          "ticks": 7968,
          "time": 34.344819,
          "velocity": 0.7874015748031497
        },
        {
          "duration": 0.20689649999999915,
          "durationTicks": 48,
          "midi": 56,
          "name": "G#3",
          "ticks": 8016,
          "time": 34.5517155,
          "velocity": 0.7874015748031497
        },
        {
          "duration": 0.20689649999999915,
          "durationTicks": 48,
          "midi": 68,
          "name": "G#4",
          "ticks": 8016,
          "time": 34.5517155,
          "velocity": 0.7874015748031497
        },
        {
          "duration": 0.20689649999999915,
          "durationTicks": 48,
          "midi": 54,
          "name": "F#3",
          "ticks": 8016,
          "time": 34.5517155,
          "velocity": 0.6929133858267716
        },
        {
          "duration": 0.10344824999999958,
          "durationTicks": 24,
          "midi": 61,
          "name": "C#4",
          "ticks": 8064,
          "time": 34.758612,
          "velocity": 0.7874015748031497
        },
        {
          "duration": 0.20689649999999915,
          "durationTicks": 48,
          "midi": 44,
          "name": "G#2",
          "ticks": 8064,
          "time": 34.758612,
          "velocity": 0.6929133858267716
        },
        {
          "duration": 0.10344824999999958,
          "durationTicks": 24,
          "midi": 73,
          "name": "C#5",
          "ticks": 8064,
          "time": 34.758612,
          "velocity": 0.7874015748031497
        },
        {
          "duration": 0.10344824999999958,
          "durationTicks": 24,
          "midi": 59,
          "name": "B3",
          "ticks": 8088,
          "time": 34.86206025,
          "velocity": 0.7874015748031497
        },
        {
          "duration": 0.10344824999999958,
          "durationTicks": 24,
          "midi": 71,
          "name": "B4",
          "ticks": 8088,
          "time": 34.86206025,
          "velocity": 0.7874015748031497
        },
        {
          "duration": 0.20689650000000626,
          "durationTicks": 48,
          "midi": 56,
          "name": "G#3",
          "ticks": 8112,
          "time": 34.9655085,
          "velocity": 0.6929133858267716
        },
        {
          "duration": 0.20689650000000626,
          "durationTicks": 48,
          "midi": 68,
          "name": "G#4",
          "ticks": 8112,
          "time": 34.9655085,
          "velocity": 0.7874015748031497
        },
        {
          "duration": 0.4137929999999983,
          "durationTicks": 96,
          "midi": 78,
          "name": "F#5",
          "ticks": 8160,
          "time": 35.172405000000005,
          "velocity": 0.7480314960629921
        },
        {
          "duration": 0.4137929999999983,
          "durationTicks": 96,
          "midi": 90,
          "name": "F#6",
          "ticks": 8160,
          "time": 35.172405000000005,
          "velocity": 0.7480314960629921
        },
        {
          "duration": 0.10344824999999958,
          "durationTicks": 24,
          "midi": 71,
          "name": "B4",
          "ticks": 8160,
          "time": 35.172405000000005,
          "velocity": 0.6456692913385826
        },
        {
          "duration": 0.20689649999999915,
          "durationTicks": 48,
          "midi": 44,
          "name": "G#2",
          "ticks": 8160,
          "time": 35.172405000000005,
          "velocity": 0.6929133858267716
        },
        {
          "duration": 0.10344824999999958,
          "durationTicks": 24,
          "midi": 68,
          "name": "G#4",
          "ticks": 8184,
          "time": 35.275853250000004,
          "velocity": 0.6456692913385826
        },
        {
          "duration": 0.10344824999999958,
          "durationTicks": 24,
          "midi": 61,
          "name": "C#4",
          "ticks": 8208,
          "time": 35.379301500000004,
          "velocity": 0.6456692913385826
        },
        {
          "duration": 0.20689649999999915,
          "durationTicks": 48,
          "midi": 56,
          "name": "G#3",
          "ticks": 8208,
          "time": 35.379301500000004,
          "velocity": 0.6929133858267716
        },
        {
          "duration": 0.10344824999999958,
          "durationTicks": 24,
          "midi": 59,
          "name": "B3",
          "ticks": 8232,
          "time": 35.48274975,
          "velocity": 0.6456692913385826
        },
        {
          "duration": 0.4137929999999983,
          "durationTicks": 96,
          "midi": 80,
          "name": "G#5",
          "ticks": 8256,
          "time": 35.586198,
          "velocity": 0.7480314960629921
        },
        {
          "duration": 0.4137929999999983,
          "durationTicks": 96,
          "midi": 92,
          "name": "G#6",
          "ticks": 8256,
          "time": 35.586198,
          "velocity": 0.7480314960629921
        },
        {
          "duration": 0.10344824999999958,
          "durationTicks": 24,
          "midi": 68,
          "name": "G#4",
          "ticks": 8256,
          "time": 35.586198,
          "velocity": 0.6456692913385826
        },
        {
          "duration": 0.20689649999999915,
          "durationTicks": 48,
          "midi": 44,
          "name": "G#2",
          "ticks": 8256,
          "time": 35.586198,
          "velocity": 0.6929133858267716
        },
        {
          "duration": 0.10344824999999958,
          "durationTicks": 24,
          "midi": 61,
          "name": "C#4",
          "ticks": 8280,
          "time": 35.68964625,
          "velocity": 0.6456692913385826
        },
        {
          "duration": 0.10344824999999958,
          "durationTicks": 24,
          "midi": 59,
          "name": "B3",
          "ticks": 8304,
          "time": 35.7930945,
          "velocity": 0.6456692913385826
        },
        {
          "duration": 0.20689649999999915,
          "durationTicks": 48,
          "midi": 56,
          "name": "G#3",
          "ticks": 8304,
          "time": 35.7930945,
          "velocity": 0.6929133858267716
        },
        {
          "duration": 0.10344824999999958,
          "durationTicks": 24,
          "midi": 61,
          "name": "C#4",
          "ticks": 8328,
          "time": 35.89654275,
          "velocity": 0.6456692913385826
        },
        {
          "duration": 0.10344824999999958,
          "durationTicks": 24,
          "midi": 59,
          "name": "B3",
          "ticks": 8352,
          "time": 35.999991,
          "velocity": 0.6456692913385826
        },
        {
          "duration": 0.20689649999999915,
          "durationTicks": 48,
          "midi": 44,
          "name": "G#2",
          "ticks": 8352,
          "time": 35.999991,
          "velocity": 0.6929133858267716
        },
        {
          "duration": 0.10344824999999958,
          "durationTicks": 24,
          "midi": 61,
          "name": "C#4",
          "ticks": 8376,
          "time": 36.10343925,
          "velocity": 0.6456692913385826
        },
        {
          "duration": 0.10344824999999958,
          "durationTicks": 24,
          "midi": 64,
          "name": "E4",
          "ticks": 8400,
          "time": 36.2068875,
          "velocity": 0.6456692913385826
        },
        {
          "duration": 0.20689649999999915,
          "durationTicks": 48,
          "midi": 56,
          "name": "G#3",
          "ticks": 8400,
          "time": 36.2068875,
          "velocity": 0.6929133858267716
        },
        {
          "duration": 0.10344824999999958,
          "durationTicks": 24,
          "midi": 66,
          "name": "F#4",
          "ticks": 8424,
          "time": 36.31033575,
          "velocity": 0.6456692913385826
        },
        {
          "duration": 0.6206895000000046,
          "durationTicks": 144,
          "midi": 37,
          "name": "C#2",
          "ticks": 8448,
          "time": 36.413784,
          "velocity": 0.6850393700787402
        },
        {
          "duration": 0.4137930000000054,
          "durationTicks": 96,
          "midi": 61,
          "name": "C#4",
          "ticks": 8448,
          "time": 36.413784,
          "velocity": 0.7874015748031497
        },
        {
          "duration": 0.4137930000000054,
          "durationTicks": 96,
          "midi": 49,
          "name": "C#3",
          "ticks": 8448,
          "time": 36.413784,
          "velocity": 0.7874015748031497
        },
        {
          "duration": 0.20689650000000626,
          "durationTicks": 48,
          "midi": 49,
          "name": "C#3",
          "ticks": 8496,
          "time": 36.6206805,
          "velocity": 0.6850393700787402
        },
        {
          "duration": 0.05172412499999979,
          "durationTicks": 12,
          "midi": 61,
          "name": "C#4",
          "ticks": 8544,
          "time": 36.827577000000005,
          "velocity": 0.5826771653543307
        },
        {
          "duration": 0.6206894999999975,
          "durationTicks": 144,
          "midi": 37,
          "name": "C#2",
          "ticks": 8544,
          "time": 36.827577000000005,
          "velocity": 0.6850393700787402
        },
        {
          "duration": 0.05172412499999979,
          "durationTicks": 12,
          "midi": 61,
          "name": "C#4",
          "ticks": 8568,
          "time": 36.931025250000005,
          "velocity": 0.5826771653543307
        },
        {
          "duration": 0.20689649999999915,
          "durationTicks": 48,
          "midi": 49,
          "name": "C#3",
          "ticks": 8592,
          "time": 37.034473500000004,
          "velocity": 0.6850393700787402
        },
        {
          "duration": 0.05172412499999979,
          "durationTicks": 12,
          "midi": 61,
          "name": "C#4",
          "ticks": 8640,
          "time": 37.24137,
          "velocity": 0.5826771653543307
        },
        {
          "duration": 0.20689649999999915,
          "durationTicks": 48,
          "midi": 37,
          "name": "C#2",
          "ticks": 8640,
          "time": 37.24137,
          "velocity": 0.6850393700787402
        },
        {
          "duration": 0.05172412499999979,
          "durationTicks": 12,
          "midi": 61,
          "name": "C#4",
          "ticks": 8664,
          "time": 37.34481825,
          "velocity": 0.5826771653543307
        },
        {
          "duration": 0.20689649999999915,
          "durationTicks": 48,
          "midi": 61,
          "name": "C#4",
          "ticks": 8736,
          "time": 37.655163,
          "velocity": 0.7874015748031497
        },
        {
          "duration": 0.20689649999999915,
          "durationTicks": 48,
          "midi": 49,
          "name": "C#3",
          "ticks": 8736,
          "time": 37.655163,
          "velocity": 0.7874015748031497
        },
        {
          "duration": 0.20689649999999915,
          "durationTicks": 48,
          "midi": 37,
          "name": "C#2",
          "ticks": 8736,
          "time": 37.655163,
          "velocity": 0.6850393700787402
        },
        {
          "duration": 0.20689649999999915,
          "durationTicks": 48,
          "midi": 51,
          "name": "D#3",
          "ticks": 8784,
          "time": 37.8620595,
          "velocity": 0.7874015748031497
        },
        {
          "duration": 0.20689649999999915,
          "durationTicks": 48,
          "midi": 63,
          "name": "D#4",
          "ticks": 8784,
          "time": 37.8620595,
          "velocity": 0.7874015748031497
        },
        {
          "duration": 0.6206895000000046,
          "durationTicks": 144,
          "midi": 40,
          "name": "E2",
          "ticks": 8832,
          "time": 38.068956,
          "velocity": 0.6850393700787402
        },
        {
          "duration": 0.4137930000000054,
          "durationTicks": 96,
          "midi": 52,
          "name": "E3",
          "ticks": 8832,
          "time": 38.068956,
          "velocity": 0.7874015748031497
        },
        {
          "duration": 0.4137930000000054,
          "durationTicks": 96,
          "midi": 64,
          "name": "E4",
          "ticks": 8832,
          "time": 38.068956,
          "velocity": 0.7874015748031497
        },
        {
          "duration": 0.20689650000000626,
          "durationTicks": 48,
          "midi": 52,
          "name": "E3",
          "ticks": 8880,
          "time": 38.2758525,
          "velocity": 0.6850393700787402
        },
        {
          "duration": 0.6206894999999975,
          "durationTicks": 144,
          "midi": 40,
          "name": "E2",
          "ticks": 8928,
          "time": 38.482749000000005,
          "velocity": 0.6850393700787402
        },
        {
          "duration": 0.05172412499999979,
          "durationTicks": 12,
          "midi": 64,
          "name": "E4",
          "ticks": 8928,
          "time": 38.482749000000005,
          "velocity": 0.5826771653543307
        },
        {
          "duration": 0.05172412499999979,
          "durationTicks": 12,
          "midi": 64,
          "name": "E4",
          "ticks": 8952,
          "time": 38.586197250000005,
          "velocity": 0.5826771653543307
        },
        {
          "duration": 0.20689649999999915,
          "durationTicks": 48,
          "midi": 52,
          "name": "E3",
          "ticks": 8976,
          "time": 38.689645500000005,
          "velocity": 0.6850393700787402
        },
        {
          "duration": 0.20689649999999915,
          "durationTicks": 48,
          "midi": 40,
          "name": "E2",
          "ticks": 9024,
          "time": 38.896542000000004,
          "velocity": 0.6850393700787402
        },
        {
          "duration": 0.20689649999999915,
          "durationTicks": 48,
          "midi": 40,
          "name": "E2",
          "ticks": 9120,
          "time": 39.310335,
          "velocity": 0.6850393700787402
        },
        {
          "duration": 0.20689649999999915,
          "durationTicks": 48,
          "midi": 66,
          "name": "F#4",
          "ticks": 9120,
          "time": 39.310335,
          "velocity": 0.7874015748031497
        },
        {
          "duration": 0.20689649999999915,
          "durationTicks": 48,
          "midi": 54,
          "name": "F#3",
          "ticks": 9120,
          "time": 39.310335,
          "velocity": 0.7874015748031497
        },
        {
          "duration": 0.20689649999999915,
          "durationTicks": 48,
          "midi": 68,
          "name": "G#4",
          "ticks": 9168,
          "time": 39.5172315,
          "velocity": 0.7874015748031497
        },
        {
          "duration": 0.20689649999999915,
          "durationTicks": 48,
          "midi": 56,
          "name": "G#3",
          "ticks": 9168,
          "time": 39.5172315,
          "velocity": 0.7874015748031497
        },
        {
          "duration": 0.6206895000000046,
          "durationTicks": 144,
          "midi": 42,
          "name": "F#2",
          "ticks": 9216,
          "time": 39.724128,
          "velocity": 0.6850393700787402
        },
        {
          "duration": 0.4137929999999983,
          "durationTicks": 96,
          "midi": 54,
          "name": "F#3",
          "ticks": 9216,
          "time": 39.724128,
          "velocity": 0.7874015748031497
        },
        {
          "duration": 0.4137929999999983,
          "durationTicks": 96,
          "midi": 66,
          "name": "F#4",
          "ticks": 9216,
          "time": 39.724128,
          "velocity": 0.7874015748031497
        },
        {
          "duration": 0.20689649999999915,
          "durationTicks": 48,
          "midi": 54,
          "name": "F#3",
          "ticks": 9264,
          "time": 39.9310245,
          "velocity": 0.6850393700787402
        },
        {
          "duration": 0.6206895000000046,
          "durationTicks": 144,
          "midi": 42,
          "name": "F#2",
          "ticks": 9312,
          "time": 40.137921,
          "velocity": 0.6850393700787402
        },
        {
          "duration": 0.05172412499999979,
          "durationTicks": 12,
          "midi": 66,
          "name": "F#4",
          "ticks": 9324,
          "time": 40.189645125000006,
          "velocity": 0.5905511811023622
        },
        {
          "duration": 0.20689649999999915,
          "durationTicks": 48,
          "midi": 54,
          "name": "F#3",
          "ticks": 9360,
          "time": 40.344817500000005,
          "velocity": 0.6850393700787402
        },
        {
          "duration": 0.05172412499999979,
          "durationTicks": 12,
          "midi": 66,
          "name": "F#4",
          "ticks": 9384,
          "time": 40.448265750000004,
          "velocity": 0.5905511811023622
        },
        {
          "duration": 0.05172412499999979,
          "durationTicks": 12,
          "midi": 66,
          "name": "F#4",
          "ticks": 9444,
          "time": 40.706886375,
          "velocity": 0.5905511811023622
        },
        {
          "duration": 0.20689649999999915,
          "durationTicks": 48,
          "midi": 42,
          "name": "F#2",
          "ticks": 9504,
          "time": 40.965507,
          "velocity": 0.6850393700787402
        },
        {
          "duration": 0.20689649999999915,
          "durationTicks": 48,
          "midi": 66,
          "name": "F#4",
          "ticks": 9504,
          "time": 40.965507,
          "velocity": 0.7874015748031497
        },
        {
          "duration": 0.20689649999999915,
          "durationTicks": 48,
          "midi": 54,
          "name": "F#3",
          "ticks": 9504,
          "time": 40.965507,
          "velocity": 0.7874015748031497
        },
        {
          "duration": 0.20689649999999915,
          "durationTicks": 48,
          "midi": 68,
          "name": "G#4",
          "ticks": 9552,
          "time": 41.1724035,
          "velocity": 0.7874015748031497
        },
        {
          "duration": 0.20689649999999915,
          "durationTicks": 48,
          "midi": 56,
          "name": "G#3",
          "ticks": 9552,
          "time": 41.1724035,
          "velocity": 0.7874015748031497
        },
        {
          "duration": 0.20689649999999915,
          "durationTicks": 48,
          "midi": 73,
          "name": "C#5",
          "ticks": 9600,
          "time": 41.3793,
          "velocity": 0.7874015748031497
        },
        {
          "duration": 1.0344825000000029,
          "durationTicks": 240,
          "midi": 44,
          "name": "G#2",
          "ticks": 9600,
          "time": 41.3793,
          "velocity": 0.6062992125984252
        },
        {
          "duration": 1.0344825000000029,
          "durationTicks": 240,
          "midi": 49,
          "name": "C#3",
          "ticks": 9600,
          "time": 41.3793,
          "velocity": 0.6062992125984252
        },
        {
          "duration": 1.0344825000000029,
          "durationTicks": 240,
          "midi": 37,
          "name": "C#2",
          "ticks": 9600,
          "time": 41.3793,
          "velocity": 0.6062992125984252
        },
        {
          "duration": 0.20689649999999915,
          "durationTicks": 48,
          "midi": 61,
          "name": "C#4",
          "ticks": 9600,
          "time": 41.3793,
          "velocity": 0.7874015748031497
        },
        {
          "duration": 0.20689649999999915,
          "durationTicks": 48,
          "midi": 80,
          "name": "G#5",
          "ticks": 9648,
          "time": 41.5861965,
          "velocity": 0.7874015748031497
        },
        {
          "duration": 0.20689649999999915,
          "durationTicks": 48,
          "midi": 68,
          "name": "G#4",
          "ticks": 9648,
          "time": 41.5861965,
          "velocity": 0.7874015748031497
        },
        {
          "duration": 0.4137930000000054,
          "durationTicks": 96,
          "midi": 85,
          "name": "C#6",
          "ticks": 9696,
          "time": 41.793093,
          "velocity": 0.7874015748031497
        },
        {
          "duration": 0.4137930000000054,
          "durationTicks": 96,
          "midi": 73,
          "name": "C#5",
          "ticks": 9696,
          "time": 41.793093,
          "velocity": 0.7874015748031497
        },
        {
          "duration": 0.20689649999999915,
          "durationTicks": 48,
          "midi": 40,
          "name": "E2",
          "ticks": 9840,
          "time": 42.4137825,
          "velocity": 0.6850393700787402
        },
        {
          "duration": 0.20689649999999915,
          "durationTicks": 48,
          "midi": 42,
          "name": "F#2",
          "ticks": 9840,
          "time": 42.4137825,
          "velocity": 0.6850393700787402
        },
        {
          "duration": 0.20689649999999915,
          "durationTicks": 48,
          "midi": 37,
          "name": "C#2",
          "ticks": 9888,
          "time": 42.620679,
          "velocity": 0.6850393700787402
        },
        {
          "duration": 0.20689649999999915,
          "durationTicks": 48,
          "midi": 44,
          "name": "G#2",
          "ticks": 9888,
          "time": 42.620679,
          "velocity": 0.7007874015748031
        },
        {
          "duration": 0.20689649999999915,
          "durationTicks": 48,
          "midi": 42,
          "name": "F#2",
          "ticks": 9936,
          "time": 42.8275755,
          "velocity": 0.6850393700787402
        },
        {
          "duration": 0.20689649999999915,
          "durationTicks": 48,
          "midi": 40,
          "name": "E2",
          "ticks": 9936,
          "time": 42.8275755,
          "velocity": 0.7401574803149606
        },
        {
          "duration": 0.05172412499999979,
          "durationTicks": 12,
          "midi": 37,
          "name": "C#2",
          "ticks": 9984,
          "time": 43.034472,
          "velocity": 0.6692913385826772
        },
        {
          "duration": 0.3620688749999985,
          "durationTicks": 84,
          "midi": 49,
          "name": "C#3",
          "ticks": 9984,
          "time": 43.034472,
          "velocity": 0.7874015748031497
        },
        {
          "duration": 0.3620688749999985,
          "durationTicks": 84,
          "midi": 61,
          "name": "C#4",
          "ticks": 9984,
          "time": 43.034472,
          "velocity": 0.7874015748031497
        },
        {
          "duration": 0.05172412499999979,
          "durationTicks": 12,
          "midi": 37,
          "name": "C#2",
          "ticks": 10008,
          "time": 43.13792025,
          "velocity": 0.6692913385826772
        },
        {
          "duration": 0.05172412499999979,
          "durationTicks": 12,
          "midi": 37,
          "name": "C#2",
          "ticks": 10032,
          "time": 43.2413685,
          "velocity": 0.6692913385826772
        },
        {
          "duration": 0.05172412499999979,
          "durationTicks": 12,
          "midi": 37,
          "name": "C#2",
          "ticks": 10056,
          "time": 43.34481675,
          "velocity": 0.6692913385826772
        },
        {
          "duration": 0.15517237500000647,
          "durationTicks": 36,
          "midi": 61,
          "name": "C#4",
          "ticks": 10080,
          "time": 43.448265,
          "velocity": 0.7874015748031497
        },
        {
          "duration": 0.15517237500000647,
          "durationTicks": 36,
          "midi": 49,
          "name": "C#3",
          "ticks": 10080,
          "time": 43.448265,
          "velocity": 0.7874015748031497
        },
        {
          "duration": 0.05172412499999979,
          "durationTicks": 12,
          "midi": 37,
          "name": "C#2",
          "ticks": 10080,
          "time": 43.448265,
          "velocity": 0.6692913385826772
        },
        {
          "duration": 0.05172412500000689,
          "durationTicks": 12,
          "midi": 37,
          "name": "C#2",
          "ticks": 10104,
          "time": 43.55171325,
          "velocity": 0.6692913385826772
        },
        {
          "duration": 0.15517237499999936,
          "durationTicks": 36,
          "midi": 61,
          "name": "C#4",
          "ticks": 10128,
          "time": 43.655161500000006,
          "velocity": 0.7874015748031497
        },
        {
          "duration": 0.15517237499999936,
          "durationTicks": 36,
          "midi": 49,
          "name": "C#3",
          "ticks": 10128,
          "time": 43.655161500000006,
          "velocity": 0.7874015748031497
        },
        {
          "duration": 0.05172412499999979,
          "durationTicks": 12,
          "midi": 37,
          "name": "C#2",
          "ticks": 10128,
          "time": 43.655161500000006,
          "velocity": 0.6692913385826772
        },
        {
          "duration": 0.05172412499999979,
          "durationTicks": 12,
          "midi": 37,
          "name": "C#2",
          "ticks": 10152,
          "time": 43.758609750000005,
          "velocity": 0.6692913385826772
        },
        {
          "duration": 0.15517237499999936,
          "durationTicks": 36,
          "midi": 61,
          "name": "C#4",
          "ticks": 10176,
          "time": 43.862058000000005,
          "velocity": 0.7874015748031497
        },
        {
          "duration": 0.15517237499999936,
          "durationTicks": 36,
          "midi": 49,
          "name": "C#3",
          "ticks": 10176,
          "time": 43.862058000000005,
          "velocity": 0.7874015748031497
        },
        {
          "duration": 0.05172412499999979,
          "durationTicks": 12,
          "midi": 37,
          "name": "C#2",
          "ticks": 10176,
          "time": 43.862058000000005,
          "velocity": 0.6692913385826772
        },
        {
          "duration": 0.05172412499999979,
          "durationTicks": 12,
          "midi": 37,
          "name": "C#2",
          "ticks": 10200,
          "time": 43.965506250000004,
          "velocity": 0.6692913385826772
        },
        {
          "duration": 0.05172412499999979,
          "durationTicks": 12,
          "midi": 37,
          "name": "C#2",
          "ticks": 10224,
          "time": 44.068954500000004,
          "velocity": 0.6692913385826772
        },
        {
          "duration": 0.05172412499999979,
          "durationTicks": 12,
          "midi": 37,
          "name": "C#2",
          "ticks": 10248,
          "time": 44.17240275,
          "velocity": 0.6692913385826772
        },
        {
          "duration": 0.4137929999999983,
          "durationTicks": 96,
          "midi": 64,
          "name": "E4",
          "ticks": 10272,
          "time": 44.275851,
          "velocity": 0.7874015748031497
        },
        {
          "duration": 0.4137929999999983,
          "durationTicks": 96,
          "midi": 49,
          "name": "C#3",
          "ticks": 10272,
          "time": 44.275851,
          "velocity": 0.7874015748031497
        },
        {
          "duration": 0.4137929999999983,
          "durationTicks": 96,
          "midi": 56,
          "name": "G#3",
          "ticks": 10272,
          "time": 44.275851,
          "velocity": 0.7874015748031497
        },
        {
          "duration": 0.4137929999999983,
          "durationTicks": 96,
          "midi": 61,
          "name": "C#4",
          "ticks": 10272,
          "time": 44.275851,
          "velocity": 0.7874015748031497
        },
        {
          "duration": 0.05172412499999979,
          "durationTicks": 12,
          "midi": 37,
          "name": "C#2",
          "ticks": 10272,
          "time": 44.275851,
          "velocity": 0.6692913385826772
        },
        {
          "duration": 0.05172412499999979,
          "durationTicks": 12,
          "midi": 37,
          "name": "C#2",
          "ticks": 10296,
          "time": 44.37929925,
          "velocity": 0.6692913385826772
        },
        {
          "duration": 0.05172412499999979,
          "durationTicks": 12,
          "midi": 37,
          "name": "C#2",
          "ticks": 10320,
          "time": 44.4827475,
          "velocity": 0.6692913385826772
        },
        {
          "duration": 0.05172412499999979,
          "durationTicks": 12,
          "midi": 37,
          "name": "C#2",
          "ticks": 10344,
          "time": 44.58619575,
          "velocity": 0.6692913385826772
        },
        {
          "duration": 0.3620688749999985,
          "durationTicks": 84,
          "midi": 64,
          "name": "E4",
          "ticks": 10368,
          "time": 44.689644,
          "velocity": 0.7874015748031497
        },
        {
          "duration": 0.3620688749999985,
          "durationTicks": 84,
          "midi": 52,
          "name": "E3",
          "ticks": 10368,
          "time": 44.689644,
          "velocity": 0.7874015748031497
        },
        {
          "duration": 0.05172412499999979,
          "durationTicks": 12,
          "midi": 40,
          "name": "E2",
          "ticks": 10368,
          "time": 44.689644,
          "velocity": 0.6692913385826772
        },
        {
          "duration": 0.05172412499999979,
          "durationTicks": 12,
          "midi": 40,
          "name": "E2",
          "ticks": 10392,
          "time": 44.79309225,
          "velocity": 0.6692913385826772
        },
        {
          "duration": 0.05172412499999979,
          "durationTicks": 12,
          "midi": 40,
          "name": "E2",
          "ticks": 10416,
          "time": 44.8965405,
          "velocity": 0.6692913385826772
        },
        {
          "duration": 0.05172412499999979,
          "durationTicks": 12,
          "midi": 40,
          "name": "E2",
          "ticks": 10440,
          "time": 44.99998875,
          "velocity": 0.6692913385826772
        },
        {
          "duration": 0.05172412499999979,
          "durationTicks": 12,
          "midi": 40,
          "name": "E2",
          "ticks": 10464,
          "time": 45.103437,
          "velocity": 0.6692913385826772
        },
        {
          "duration": 0.15517237499999936,
          "durationTicks": 36,
          "midi": 52,
          "name": "E3",
          "ticks": 10464,
          "time": 45.103437,
          "velocity": 0.7874015748031497
        },
        {
          "duration": 0.15517237499999936,
          "durationTicks": 36,
          "midi": 64,
          "name": "E4",
          "ticks": 10464,
          "time": 45.103437,
          "velocity": 0.7874015748031497
        },
        {
          "duration": 0.05172412499999979,
          "durationTicks": 12,
          "midi": 40,
          "name": "E2",
          "ticks": 10488,
          "time": 45.20688525,
          "velocity": 0.6692913385826772
        },
        {
          "duration": 0.15517237499999936,
          "durationTicks": 36,
          "midi": 64,
          "name": "E4",
          "ticks": 10512,
          "time": 45.310333500000006,
          "velocity": 0.7874015748031497
        },
        {
          "duration": 0.15517237499999936,
          "durationTicks": 36,
          "midi": 52,
          "name": "E3",
          "ticks": 10512,
          "time": 45.310333500000006,
          "velocity": 0.7874015748031497
        },
        {
          "duration": 0.05172412499999979,
          "durationTicks": 12,
          "midi": 40,
          "name": "E2",
          "ticks": 10512,
          "time": 45.310333500000006,
          "velocity": 0.6692913385826772
        },
        {
          "duration": 0.05172412499999979,
          "durationTicks": 12,
          "midi": 40,
          "name": "E2",
          "ticks": 10536,
          "time": 45.413781750000005,
          "velocity": 0.6692913385826772
        },
        {
          "duration": 0.15517237499999936,
          "durationTicks": 36,
          "midi": 64,
          "name": "E4",
          "ticks": 10560,
          "time": 45.517230000000005,
          "velocity": 0.7874015748031497
        },
        {
          "duration": 0.15517237499999936,
          "durationTicks": 36,
          "midi": 52,
          "name": "E3",
          "ticks": 10560,
          "time": 45.517230000000005,
          "velocity": 0.7874015748031497
        },
        {
          "duration": 0.05172412499999979,
          "durationTicks": 12,
          "midi": 40,
          "name": "E2",
          "ticks": 10560,
          "time": 45.517230000000005,
          "velocity": 0.6692913385826772
        },
        {
          "duration": 0.05172412499999979,
          "durationTicks": 12,
          "midi": 40,
          "name": "E2",
          "ticks": 10584,
          "time": 45.620678250000005,
          "velocity": 0.6692913385826772
        },
        {
          "duration": 0.05172412499999979,
          "durationTicks": 12,
          "midi": 40,
          "name": "E2",
          "ticks": 10608,
          "time": 45.724126500000004,
          "velocity": 0.6692913385826772
        },
        {
          "duration": 0.05172412499999979,
          "durationTicks": 12,
          "midi": 40,
          "name": "E2",
          "ticks": 10632,
          "time": 45.827574750000004,
          "velocity": 0.6692913385826772
        },
        {
          "duration": 0.4137929999999983,
          "durationTicks": 96,
          "midi": 64,
          "name": "E4",
          "ticks": 10656,
          "time": 45.931023,
          "velocity": 0.7874015748031497
        },
        {
          "duration": 0.4137929999999983,
          "durationTicks": 96,
          "midi": 52,
          "name": "E3",
          "ticks": 10656,
          "time": 45.931023,
          "velocity": 0.7874015748031497
        },
        {
          "duration": 0.4137929999999983,
          "durationTicks": 96,
          "midi": 59,
          "name": "B3",
          "ticks": 10656,
          "time": 45.931023,
          "velocity": 0.7874015748031497
        },
        {
          "duration": 0.05172412499999979,
          "durationTicks": 12,
          "midi": 40,
          "name": "E2",
          "ticks": 10656,
          "time": 45.931023,
          "velocity": 0.6692913385826772
        },
        {
          "duration": 0.4137929999999983,
          "durationTicks": 96,
          "midi": 56,
          "name": "G#3",
          "ticks": 10656,
          "time": 45.931023,
          "velocity": 0.7874015748031497
        },
        {
          "duration": 0.4137929999999983,
          "durationTicks": 96,
          "midi": 68,
          "name": "G#4",
          "ticks": 10656,
          "time": 45.931023,
          "velocity": 0.7874015748031497
        },
        {
          "duration": 0.05172412499999979,
          "durationTicks": 12,
          "midi": 40,
          "name": "E2",
          "ticks": 10680,
          "time": 46.03447125,
          "velocity": 0.6692913385826772
        },
        {
          "duration": 0.05172412499999979,
          "durationTicks": 12,
          "midi": 40,
          "name": "E2",
          "ticks": 10704,
          "time": 46.1379195,
          "velocity": 0.6692913385826772
        },
        {
          "duration": 0.05172412499999979,
          "durationTicks": 12,
          "midi": 40,
          "name": "E2",
          "ticks": 10728,
          "time": 46.24136775,
          "velocity": 0.6692913385826772
        },
        {
          "duration": 0.05172412499999979,
          "durationTicks": 12,
          "midi": 42,
          "name": "F#2",
          "ticks": 10752,
          "time": 46.344816,
          "velocity": 0.6692913385826772
        },
        {
          "duration": 0.3620688749999985,
          "durationTicks": 84,
          "midi": 54,
          "name": "F#3",
          "ticks": 10752,
          "time": 46.344816,
          "velocity": 0.7874015748031497
        },
        {
          "duration": 0.3620688749999985,
          "durationTicks": 84,
          "midi": 66,
          "name": "F#4",
          "ticks": 10752,
          "time": 46.344816,
          "velocity": 0.7874015748031497
        },
        {
          "duration": 0.05172412499999979,
          "durationTicks": 12,
          "midi": 42,
          "name": "F#2",
          "ticks": 10776,
          "time": 46.44826425,
          "velocity": 0.6692913385826772
        },
        {
          "duration": 0.05172412499999979,
          "durationTicks": 12,
          "midi": 42,
          "name": "F#2",
          "ticks": 10800,
          "time": 46.5517125,
          "velocity": 0.6692913385826772
        },
        {
          "duration": 0.05172412499999979,
          "durationTicks": 12,
          "midi": 42,
          "name": "F#2",
          "ticks": 10824,
          "time": 46.65516075,
          "velocity": 0.6692913385826772
        },
        {
          "duration": 0.05172412499999979,
          "durationTicks": 12,
          "midi": 42,
          "name": "F#2",
          "ticks": 10848,
          "time": 46.758609,
          "velocity": 0.6692913385826772
        },
        {
          "duration": 0.15517237499999936,
          "durationTicks": 36,
          "midi": 66,
          "name": "F#4",
          "ticks": 10848,
          "time": 46.758609,
          "velocity": 0.7874015748031497
        },
        {
          "duration": 0.15517237499999936,
          "durationTicks": 36,
          "midi": 54,
          "name": "F#3",
          "ticks": 10848,
          "time": 46.758609,
          "velocity": 0.7874015748031497
        },
        {
          "duration": 0.05172412499999979,
          "durationTicks": 12,
          "midi": 42,
          "name": "F#2",
          "ticks": 10872,
          "time": 46.86205725,
          "velocity": 0.6692913385826772
        },
        {
          "duration": 0.05172412500000689,
          "durationTicks": 12,
          "midi": 42,
          "name": "F#2",
          "ticks": 10896,
          "time": 46.9655055,
          "velocity": 0.6692913385826772
        },
        {
          "duration": 0.15517237500000647,
          "durationTicks": 36,
          "midi": 54,
          "name": "F#3",
          "ticks": 10896,
          "time": 46.9655055,
          "velocity": 0.7874015748031497
        },
        {
          "duration": 0.15517237500000647,
          "durationTicks": 36,
          "midi": 66,
          "name": "F#4",
          "ticks": 10896,
          "time": 46.9655055,
          "velocity": 0.7874015748031497
        },
        {
          "duration": 0.05172412499999979,
          "durationTicks": 12,
          "midi": 42,
          "name": "F#2",
          "ticks": 10920,
          "time": 47.068953750000006,
          "velocity": 0.6692913385826772
        },
        {
          "duration": 0.05172412499999979,
          "durationTicks": 12,
          "midi": 42,
          "name": "F#2",
          "ticks": 10944,
          "time": 47.172402000000005,
          "velocity": 0.6692913385826772
        },
        {
          "duration": 0.15517237499999936,
          "durationTicks": 36,
          "midi": 66,
          "name": "F#4",
          "ticks": 10944,
          "time": 47.172402000000005,
          "velocity": 0.7874015748031497
        },
        {
          "duration": 0.15517237499999936,
          "durationTicks": 36,
          "midi": 54,
          "name": "F#3",
          "ticks": 10944,
          "time": 47.172402000000005,
          "velocity": 0.7874015748031497
        },
        {
          "duration": 0.05172412499999979,
          "durationTicks": 12,
          "midi": 42,
          "name": "F#2",
          "ticks": 10968,
          "time": 47.275850250000005,
          "velocity": 0.6692913385826772
        },
        {
          "duration": 0.05172412499999979,
          "durationTicks": 12,
          "midi": 42,
          "name": "F#2",
          "ticks": 10992,
          "time": 47.379298500000004,
          "velocity": 0.6692913385826772
        },
        {
          "duration": 0.05172412499999979,
          "durationTicks": 12,
          "midi": 42,
          "name": "F#2",
          "ticks": 11016,
          "time": 47.482746750000004,
          "velocity": 0.6692913385826772
        },
        {
          "duration": 0.20689649999999915,
          "durationTicks": 48,
          "midi": 56,
          "name": "G#3",
          "ticks": 11040,
          "time": 47.586195000000004,
          "velocity": 0.7874015748031497
        },
        {
          "duration": 0.20689649999999915,
          "durationTicks": 48,
          "midi": 61,
          "name": "C#4",
          "ticks": 11040,
          "time": 47.586195000000004,
          "velocity": 0.7874015748031497
        },
        {
          "duration": 0.05172412499999979,
          "durationTicks": 12,
          "midi": 42,
          "name": "F#2",
          "ticks": 11040,
          "time": 47.586195000000004,
          "velocity": 0.6692913385826772
        },
        {
          "duration": 0.20689649999999915,
          "durationTicks": 48,
          "midi": 66,
          "name": "F#4",
          "ticks": 11040,
          "time": 47.586195000000004,
          "velocity": 0.7874015748031497
        },
        {
          "duration": 0.20689649999999915,
          "durationTicks": 48,
          "midi": 54,
          "name": "F#3",
          "ticks": 11040,
          "time": 47.586195000000004,
          "velocity": 0.7874015748031497
        },
        {
          "duration": 0.05172412499999979,
          "durationTicks": 12,
          "midi": 42,
          "name": "F#2",
          "ticks": 11064,
          "time": 47.68964325,
          "velocity": 0.6692913385826772
        },
        {
          "duration": 0.20689649999999915,
          "durationTicks": 48,
          "midi": 61,
          "name": "C#4",
          "ticks": 11088,
          "time": 47.7930915,
          "velocity": 0.7874015748031497
        },
        {
          "duration": 0.05172412499999979,
          "durationTicks": 12,
          "midi": 42,
          "name": "F#2",
          "ticks": 11088,
          "time": 47.7930915,
          "velocity": 0.6692913385826772
        },
        {
          "duration": 0.20689649999999915,
          "durationTicks": 48,
          "midi": 68,
          "name": "G#4",
          "ticks": 11088,
          "time": 47.7930915,
          "velocity": 0.7874015748031497
        },
        {
          "duration": 0.20689649999999915,
          "durationTicks": 48,
          "midi": 56,
          "name": "G#3",
          "ticks": 11088,
          "time": 47.7930915,
          "velocity": 0.7874015748031497
        },
        {
          "duration": 0.20689649999999915,
          "durationTicks": 48,
          "midi": 64,
          "name": "E4",
          "ticks": 11088,
          "time": 47.7930915,
          "velocity": 0.7874015748031497
        },
        {
          "duration": 0.05172412499999979,
          "durationTicks": 12,
          "midi": 42,
          "name": "F#2",
          "ticks": 11112,
          "time": 47.89653975,
          "velocity": 0.6692913385826772
        },
        {
          "duration": 0.4137929999999983,
          "durationTicks": 96,
          "midi": 44,
          "name": "G#2",
          "ticks": 11136,
          "time": 47.999988,
          "velocity": 0.7007874015748031
        },
        {
          "duration": 0.05172412499999979,
          "durationTicks": 12,
          "midi": 61,
          "name": "C#4",
          "ticks": 11136,
          "time": 47.999988,
          "velocity": 0.6456692913385826
        },
        {
          "duration": 0.05172412499999979,
          "durationTicks": 12,
          "midi": 61,
          "name": "C#4",
          "ticks": 11148,
          "time": 48.051712125,
          "velocity": 0.4094488188976378
        },
        {
          "duration": 0.05172412499999979,
          "durationTicks": 12,
          "midi": 61,
          "name": "C#4",
          "ticks": 11160,
          "time": 48.10343625,
          "velocity": 0.6456692913385826
        },
        {
          "duration": 0.05172412499999979,
          "durationTicks": 12,
          "midi": 61,
          "name": "C#4",
          "ticks": 11172,
          "time": 48.155160375,
          "velocity": 0.4094488188976378
        },
        {
          "duration": 0.05172412499999979,
          "durationTicks": 12,
          "midi": 61,
          "name": "C#4",
          "ticks": 11184,
          "time": 48.2068845,
          "velocity": 0.6456692913385826
        },
        {
          "duration": 0.05172412499999979,
          "durationTicks": 12,
          "midi": 61,
          "name": "C#4",
          "ticks": 11196,
          "time": 48.258608625,
          "velocity": 0.4094488188976378
        },
        {
          "duration": 0.05172412499999979,
          "durationTicks": 12,
          "midi": 61,
          "name": "C#4",
          "ticks": 11208,
          "time": 48.31033275,
          "velocity": 0.6456692913385826
        },
        {
          "duration": 0.05172412499999979,
          "durationTicks": 12,
          "midi": 61,
          "name": "C#4",
          "ticks": 11220,
          "time": 48.362056875,
          "velocity": 0.4094488188976378
        },
        {
          "duration": 0.20689649999999915,
          "durationTicks": 48,
          "midi": 42,
          "name": "F#2",
          "ticks": 11232,
          "time": 48.413781,
          "velocity": 0.7086614173228346
        },
        {
          "duration": 0.4137930000000054,
          "durationTicks": 96,
          "midi": 85,
          "name": "C#6",
          "ticks": 11232,
          "time": 48.413781,
          "velocity": 0.7874015748031497
        },
        {
          "duration": 0.4137930000000054,
          "durationTicks": 96,
          "midi": 73,
          "name": "C#5",
          "ticks": 11232,
          "time": 48.413781,
          "velocity": 0.7874015748031497
        },
        {
          "duration": 0.20689650000000626,
          "durationTicks": 48,
          "midi": 44,
          "name": "G#2",
          "ticks": 11280,
          "time": 48.6206775,
          "velocity": 0.7165354330708661
        },
        {
          "duration": 0.3103447499999987,
          "durationTicks": 72,
          "midi": 40,
          "name": "E2",
          "ticks": 11328,
          "time": 48.827574000000006,
          "velocity": 0.7244094488188977
        },
        {
          "duration": 0.4137929999999983,
          "durationTicks": 96,
          "midi": 88,
          "name": "E6",
          "ticks": 11328,
          "time": 48.827574000000006,
          "velocity": 0.7874015748031497
        },
        {
          "duration": 0.4137929999999983,
          "durationTicks": 96,
          "midi": 76,
          "name": "E5",
          "ticks": 11328,
          "time": 48.827574000000006,
          "velocity": 0.7874015748031497
        },
        {
          "duration": 0.10344824999999958,
          "durationTicks": 24,
          "midi": 42,
          "name": "F#2",
          "ticks": 11400,
          "time": 49.137918750000004,
          "velocity": 0.7322834645669292
        },
        {
          "duration": 0.4137929999999983,
          "durationTicks": 96,
          "midi": 37,
          "name": "C#2",
          "ticks": 11424,
          "time": 49.241367000000004,
          "velocity": 0.7322834645669292
        },
        {
          "duration": 0.4137929999999983,
          "durationTicks": 96,
          "midi": 90,
          "name": "F#6",
          "ticks": 11424,
          "time": 49.241367000000004,
          "velocity": 0.7874015748031497
        },
        {
          "duration": 0.4137929999999983,
          "durationTicks": 96,
          "midi": 78,
          "name": "F#5",
          "ticks": 11424,
          "time": 49.241367000000004,
          "velocity": 0.7874015748031497
        },
        {
          "duration": 0.05172412499999979,
          "durationTicks": 12,
          "midi": 80,
          "name": "G#5",
          "ticks": 11520,
          "time": 49.65516,
          "velocity": 0.7874015748031497
        },
        {
          "duration": 0.05172412499999979,
          "durationTicks": 12,
          "midi": 92,
          "name": "G#6",
          "ticks": 11520,
          "time": 49.65516,
          "velocity": 0.7874015748031497
        },
        {
          "duration": 0.8275860000000037,
          "durationTicks": 192,
          "midi": 37,
          "name": "C#2",
          "ticks": 11520,
          "time": 49.65516,
          "velocity": 0.6614173228346457
        },
        {
          "duration": 0.8275860000000037,
          "durationTicks": 192,
          "midi": 44,
          "name": "G#2",
          "ticks": 11520,
          "time": 49.65516,
          "velocity": 0.6614173228346457
        },
        {
          "duration": 0.8275860000000037,
          "durationTicks": 192,
          "midi": 49,
          "name": "C#3",
          "ticks": 11520,
          "time": 49.65516,
          "velocity": 0.7874015748031497
        },
        {
          "duration": 0.20689649999999915,
          "durationTicks": 48,
          "midi": 80,
          "name": "G#5",
          "ticks": 11520,
          "time": 49.65516,
          "velocity": 0.5669291338582677
        },
        {
          "duration": 0.8275860000000037,
          "durationTicks": 192,
          "midi": 61,
          "name": "C#4",
          "ticks": 11520,
          "time": 49.65516,
          "velocity": 0.7874015748031497
        },
        {
          "duration": 0.20689649999999915,
          "durationTicks": 48,
          "midi": 92,
          "name": "G#6",
          "ticks": 11520,
          "time": 49.65516,
          "velocity": 0.5669291338582677
        },
        {
          "duration": 0.05172412499999979,
          "durationTicks": 12,
          "midi": 78,
          "name": "F#5",
          "ticks": 11532,
          "time": 49.706884125,
          "velocity": 0.5669291338582677
        },
        {
          "duration": 0.05172412499999979,
          "durationTicks": 12,
          "midi": 90,
          "name": "F#6",
          "ticks": 11532,
          "time": 49.706884125,
          "velocity": 0.5669291338582677
        },
        {
          "duration": 0.05172412499999979,
          "durationTicks": 12,
          "midi": 76,
          "name": "E5",
          "ticks": 11544,
          "time": 49.75860825,
          "velocity": 0.5669291338582677
        },
        {
          "duration": 0.05172412499999979,
          "durationTicks": 12,
          "midi": 88,
          "name": "E6",
          "ticks": 11544,
          "time": 49.75860825,
          "velocity": 0.5669291338582677
        },
        {
          "duration": 0.05172412499999979,
          "durationTicks": 12,
          "midi": 73,
          "name": "C#5",
          "ticks": 11556,
          "time": 49.810332375,
          "velocity": 0.5669291338582677
        },
        {
          "duration": 0.05172412499999979,
          "durationTicks": 12,
          "midi": 85,
          "name": "C#6",
          "ticks": 11556,
          "time": 49.810332375,
          "velocity": 0.5669291338582677
        },
        {
          "duration": 0.20689649999999915,
          "durationTicks": 48,
          "midi": 73,
          "name": "C#5",
          "ticks": 11568,
          "time": 49.8620565,
          "velocity": 0.7874015748031497
        },
        {
          "duration": 0.20689649999999915,
          "durationTicks": 48,
          "midi": 85,
          "name": "C#6",
          "ticks": 11568,
          "time": 49.8620565,
          "velocity": 0.7874015748031497
        },
        {
          "duration": 0.20689649999999915,
          "durationTicks": 48,
          "midi": 85,
          "name": "C#6",
          "ticks": 11568,
          "time": 49.8620565,
          "velocity": 0.7874015748031497
        },
        {
          "duration": 0.05172412499999979,
          "durationTicks": 12,
          "midi": 80,
          "name": "G#5",
          "ticks": 11616,
          "time": 50.068953,
          "velocity": 0.5669291338582677
        },
        {
          "duration": 0.05172412499999979,
          "durationTicks": 12,
          "midi": 92,
          "name": "G#6",
          "ticks": 11616,
          "time": 50.068953,
          "velocity": 0.5669291338582677
        },
        {
          "duration": 0.05172412499999979,
          "durationTicks": 12,
          "midi": 78,
          "name": "F#5",
          "ticks": 11628,
          "time": 50.120677125,
          "velocity": 0.5669291338582677
        },
        {
          "duration": 0.05172412499999979,
          "durationTicks": 12,
          "midi": 90,
          "name": "F#6",
          "ticks": 11628,
          "time": 50.120677125,
          "velocity": 0.5669291338582677
        },
        {
          "duration": 0.05172412499999979,
          "durationTicks": 12,
          "midi": 76,
          "name": "E5",
          "ticks": 11640,
          "time": 50.17240125,
          "velocity": 0.5669291338582677
        },
        {
          "duration": 0.05172412499999979,
          "durationTicks": 12,
          "midi": 88,
          "name": "E6",
          "ticks": 11640,
          "time": 50.17240125,
          "velocity": 0.5669291338582677
        },
        {
          "duration": 0.05172412499999979,
          "durationTicks": 12,
          "midi": 73,
          "name": "C#5",
          "ticks": 11652,
          "time": 50.224125375,
          "velocity": 0.5669291338582677
        },
        {
          "duration": 0.05172412499999979,
          "durationTicks": 12,
          "midi": 85,
          "name": "C#6",
          "ticks": 11652,
          "time": 50.224125375,
          "velocity": 0.5669291338582677
        },
        {
          "duration": 0.05172412499999979,
          "durationTicks": 12,
          "midi": 80,
          "name": "G#5",
          "ticks": 11712,
          "time": 50.482746000000006,
          "velocity": 0.5669291338582677
        },
        {
          "duration": 0.05172412499999979,
          "durationTicks": 12,
          "midi": 92,
          "name": "G#6",
          "ticks": 11712,
          "time": 50.482746000000006,
          "velocity": 0.5669291338582677
        },
        {
          "duration": 0.05172412499999979,
          "durationTicks": 12,
          "midi": 78,
          "name": "F#5",
          "ticks": 11724,
          "time": 50.534470125000006,
          "velocity": 0.5669291338582677
        },
        {
          "duration": 0.05172412499999979,
          "durationTicks": 12,
          "midi": 90,
          "name": "F#6",
          "ticks": 11724,
          "time": 50.534470125000006,
          "velocity": 0.5669291338582677
        },
        {
          "duration": 0.05172412499999979,
          "durationTicks": 12,
          "midi": 76,
          "name": "E5",
          "ticks": 11736,
          "time": 50.586194250000005,
          "velocity": 0.5669291338582677
        },
        {
          "duration": 0.05172412499999979,
          "durationTicks": 12,
          "midi": 88,
          "name": "E6",
          "ticks": 11736,
          "time": 50.586194250000005,
          "velocity": 0.5669291338582677
        },
        {
          "duration": 0.05172412499999979,
          "durationTicks": 12,
          "midi": 73,
          "name": "C#5",
          "ticks": 11748,
          "time": 50.637918375000005,
          "velocity": 0.5669291338582677
        },
        {
          "duration": 0.05172412499999979,
          "durationTicks": 12,
          "midi": 85,
          "name": "C#6",
          "ticks": 11748,
          "time": 50.637918375000005,
          "velocity": 0.5669291338582677
        },
        {
          "duration": 0.20689649999999915,
          "durationTicks": 48,
          "midi": 49,
          "name": "C#3",
          "ticks": 11808,
          "time": 50.896539000000004,
          "velocity": 0.7874015748031497
        },
        {
          "duration": 0.20689649999999915,
          "durationTicks": 48,
          "midi": 61,
          "name": "C#4",
          "ticks": 11808,
          "time": 50.896539000000004,
          "velocity": 0.7874015748031497
        },
        {
          "duration": 0.05172412499999979,
          "durationTicks": 12,
          "midi": 80,
          "name": "G#5",
          "ticks": 11808,
          "time": 50.896539000000004,
          "velocity": 0.5669291338582677
        },
        {
          "duration": 0.20689649999999915,
          "durationTicks": 48,
          "midi": 37,
          "name": "C#2",
          "ticks": 11808,
          "time": 50.896539000000004,
          "velocity": 0.6614173228346457
        },
        {
          "duration": 0.20689649999999915,
          "durationTicks": 48,
          "midi": 44,
          "name": "G#2",
          "ticks": 11808,
          "time": 50.896539000000004,
          "velocity": 0.6614173228346457
        },
        {
          "duration": 0.05172412499999979,
          "durationTicks": 12,
          "midi": 92,
          "name": "G#6",
          "ticks": 11808,
          "time": 50.896539000000004,
          "velocity": 0.5669291338582677
        },
        {
          "duration": 0.05172412499999979,
          "durationTicks": 12,
          "midi": 78,
          "name": "F#5",
          "ticks": 11820,
          "time": 50.948263125000004,
          "velocity": 0.5669291338582677
        },
        {
          "duration": 0.05172412499999979,
          "durationTicks": 12,
          "midi": 90,
          "name": "F#6",
          "ticks": 11820,
          "time": 50.948263125000004,
          "velocity": 0.5669291338582677
        },
        {
          "duration": 0.05172412499999979,
          "durationTicks": 12,
          "midi": 76,
          "name": "E5",
          "ticks": 11832,
          "time": 50.999987250000004,
          "velocity": 0.5669291338582677
        },
        {
          "duration": 0.05172412499999979,
          "durationTicks": 12,
          "midi": 88,
          "name": "E6",
          "ticks": 11832,
          "time": 50.999987250000004,
          "velocity": 0.5669291338582677
        },
        {
          "duration": 0.05172412499999979,
          "durationTicks": 12,
          "midi": 73,
          "name": "C#5",
          "ticks": 11844,
          "time": 51.051711375000004,
          "velocity": 0.5669291338582677
        },
        {
          "duration": 0.05172412499999979,
          "durationTicks": 12,
          "midi": 85,
          "name": "C#6",
          "ticks": 11844,
          "time": 51.051711375000004,
          "velocity": 0.5669291338582677
        },
        {
          "duration": 0.20689649999999915,
          "durationTicks": 48,
          "midi": 51,
          "name": "D#3",
          "ticks": 11856,
          "time": 51.1034355,
          "velocity": 0.7874015748031497
        },
        {
          "duration": 0.20689649999999915,
          "durationTicks": 48,
          "midi": 63,
          "name": "D#4",
          "ticks": 11856,
          "time": 51.1034355,
          "velocity": 0.7874015748031497
        },
        {
          "duration": 0.20689649999999915,
          "durationTicks": 48,
          "midi": 37,
          "name": "C#2",
          "ticks": 11856,
          "time": 51.1034355,
          "velocity": 0.6614173228346457
        },
        {
          "duration": 0.20689649999999915,
          "durationTicks": 48,
          "midi": 44,
          "name": "G#2",
          "ticks": 11856,
          "time": 51.1034355,
          "velocity": 0.6614173228346457
        },
        {
          "duration": 0.8275860000000037,
          "durationTicks": 192,
          "midi": 40,
          "name": "E2",
          "ticks": 11904,
          "time": 51.310332,
          "velocity": 0.6614173228346457
        },
        {
          "duration": 0.8275860000000037,
          "durationTicks": 192,
          "midi": 47,
          "name": "B2",
          "ticks": 11904,
          "time": 51.310332,
          "velocity": 0.6614173228346457
        },
        {
          "duration": 0.05172412499999979,
          "durationTicks": 12,
          "midi": 80,
          "name": "G#5",
          "ticks": 11904,
          "time": 51.310332,
          "velocity": 0.5669291338582677
        },
        {
          "duration": 0.8275860000000037,
          "durationTicks": 192,
          "midi": 52,
          "name": "E3",
          "ticks": 11904,
          "time": 51.310332,
          "velocity": 0.7874015748031497
        },
        {
          "duration": 0.8275860000000037,
          "durationTicks": 192,
          "midi": 64,
          "name": "E4",
          "ticks": 11904,
          "time": 51.310332,
          "velocity": 0.7874015748031497
        },
        {
          "duration": 0.05172412499999979,
          "durationTicks": 12,
          "midi": 92,
          "name": "G#6",
          "ticks": 11904,
          "time": 51.310332,
          "velocity": 0.5669291338582677
        },
        {
          "duration": 0.05172412499999979,
          "durationTicks": 12,
          "midi": 78,
          "name": "F#5",
          "ticks": 11916,
          "time": 51.362056125,
          "velocity": 0.5669291338582677
        },
        {
          "duration": 0.05172412499999979,
          "durationTicks": 12,
          "midi": 90,
          "name": "F#6",
          "ticks": 11916,
          "time": 51.362056125,
          "velocity": 0.5669291338582677
        },
        {
          "duration": 0.05172412499999979,
          "durationTicks": 12,
          "midi": 76,
          "name": "E5",
          "ticks": 11928,
          "time": 51.41378025,
          "velocity": 0.5748031496062992
        },
        {
          "duration": 0.05172412499999979,
          "durationTicks": 12,
          "midi": 88,
          "name": "E6",
          "ticks": 11928,
          "time": 51.41378025,
          "velocity": 0.5748031496062992
        },
        {
          "duration": 0.05172412499999979,
          "durationTicks": 12,
          "midi": 73,
          "name": "C#5",
          "ticks": 11940,
          "time": 51.465504375,
          "velocity": 0.5748031496062992
        },
        {
          "duration": 0.05172412499999979,
          "durationTicks": 12,
          "midi": 85,
          "name": "C#6",
          "ticks": 11940,
          "time": 51.465504375,
          "velocity": 0.5748031496062992
        },
        {
          "duration": 0.05172412499999979,
          "durationTicks": 12,
          "midi": 80,
          "name": "G#5",
          "ticks": 12000,
          "time": 51.724125,
          "velocity": 0.5748031496062992
        },
        {
          "duration": 0.05172412499999979,
          "durationTicks": 12,
          "midi": 92,
          "name": "G#6",
          "ticks": 12000,
          "time": 51.724125,
          "velocity": 0.5748031496062992
        },
        {
          "duration": 0.05172412499999979,
          "durationTicks": 12,
          "midi": 78,
          "name": "F#5",
          "ticks": 12012,
          "time": 51.775849125,
          "velocity": 0.5748031496062992
        },
        {
          "duration": 0.05172412499999979,
          "durationTicks": 12,
          "midi": 90,
          "name": "F#6",
          "ticks": 12012,
          "time": 51.775849125,
          "velocity": 0.5748031496062992
        },
        {
          "duration": 0.05172412499999979,
          "durationTicks": 12,
          "midi": 76,
          "name": "E5",
          "ticks": 12024,
          "time": 51.82757325,
          "velocity": 0.5748031496062992
        },
        {
          "duration": 0.05172412499999979,
          "durationTicks": 12,
          "midi": 88,
          "name": "E6",
          "ticks": 12024,
          "time": 51.82757325,
          "velocity": 0.5748031496062992
        },
        {
          "duration": 0.05172412499999979,
          "durationTicks": 12,
          "midi": 73,
          "name": "C#5",
          "ticks": 12036,
          "time": 51.879297375,
          "velocity": 0.5748031496062992
        },
        {
          "duration": 0.05172412499999979,
          "durationTicks": 12,
          "midi": 85,
          "name": "C#6",
          "ticks": 12036,
          "time": 51.879297375,
          "velocity": 0.5748031496062992
        },
        {
          "duration": 0.05172412499999979,
          "durationTicks": 12,
          "midi": 80,
          "name": "G#5",
          "ticks": 12096,
          "time": 52.137918000000006,
          "velocity": 0.5748031496062992
        },
        {
          "duration": 0.05172412499999979,
          "durationTicks": 12,
          "midi": 92,
          "name": "G#6",
          "ticks": 12096,
          "time": 52.137918000000006,
          "velocity": 0.5748031496062992
        },
        {
          "duration": 0.05172412499999979,
          "durationTicks": 12,
          "midi": 78,
          "name": "F#5",
          "ticks": 12108,
          "time": 52.189642125000006,
          "velocity": 0.5748031496062992
        },
        {
          "duration": 0.05172412499999979,
          "durationTicks": 12,
          "midi": 90,
          "name": "F#6",
          "ticks": 12108,
          "time": 52.189642125000006,
          "velocity": 0.5748031496062992
        },
        {
          "duration": 0.05172412499999979,
          "durationTicks": 12,
          "midi": 76,
          "name": "E5",
          "ticks": 12120,
          "time": 52.241366250000006,
          "velocity": 0.5748031496062992
        },
        {
          "duration": 0.05172412499999979,
          "durationTicks": 12,
          "midi": 88,
          "name": "E6",
          "ticks": 12120,
          "time": 52.241366250000006,
          "velocity": 0.5748031496062992
        },
        {
          "duration": 0.05172412499999979,
          "durationTicks": 12,
          "midi": 73,
          "name": "C#5",
          "ticks": 12132,
          "time": 52.293090375000006,
          "velocity": 0.5748031496062992
        },
        {
          "duration": 0.05172412499999979,
          "durationTicks": 12,
          "midi": 85,
          "name": "C#6",
          "ticks": 12132,
          "time": 52.293090375000006,
          "velocity": 0.5748031496062992
        },
        {
          "duration": 0.20689649999999915,
          "durationTicks": 48,
          "midi": 40,
          "name": "E2",
          "ticks": 12192,
          "time": 52.551711000000005,
          "velocity": 0.6692913385826772
        },
        {
          "duration": 0.20689649999999915,
          "durationTicks": 48,
          "midi": 47,
          "name": "B2",
          "ticks": 12192,
          "time": 52.551711000000005,
          "velocity": 0.6692913385826772
        },
        {
          "duration": 0.05172412499999979,
          "durationTicks": 12,
          "midi": 80,
          "name": "G#5",
          "ticks": 12192,
          "time": 52.551711000000005,
          "velocity": 0.5748031496062992
        },
        {
          "duration": 0.20689649999999915,
          "durationTicks": 48,
          "midi": 54,
          "name": "F#3",
          "ticks": 12192,
          "time": 52.551711000000005,
          "velocity": 0.7874015748031497
        },
        {
          "duration": 0.20689649999999915,
          "durationTicks": 48,
          "midi": 66,
          "name": "F#4",
          "ticks": 12192,
          "time": 52.551711000000005,
          "velocity": 0.7874015748031497
        },
        {
          "duration": 0.05172412499999979,
          "durationTicks": 12,
          "midi": 92,
          "name": "G#6",
          "ticks": 12192,
          "time": 52.551711000000005,
          "velocity": 0.5748031496062992
        },
        {
          "duration": 0.05172412499999979,
          "durationTicks": 12,
          "midi": 78,
          "name": "F#5",
          "ticks": 12204,
          "time": 52.603435125000004,
          "velocity": 0.5748031496062992
        },
        {
          "duration": 0.05172412499999979,
          "durationTicks": 12,
          "midi": 90,
          "name": "F#6",
          "ticks": 12204,
          "time": 52.603435125000004,
          "velocity": 0.5748031496062992
        },
        {
          "duration": 0.05172412499999979,
          "durationTicks": 12,
          "midi": 76,
          "name": "E5",
          "ticks": 12216,
          "time": 52.655159250000004,
          "velocity": 0.5748031496062992
        },
        {
          "duration": 0.05172412499999979,
          "durationTicks": 12,
          "midi": 88,
          "name": "E6",
          "ticks": 12216,
          "time": 52.655159250000004,
          "velocity": 0.5748031496062992
        },
        {
          "duration": 0.05172412499999979,
          "durationTicks": 12,
          "midi": 73,
          "name": "C#5",
          "ticks": 12228,
          "time": 52.706883375000004,
          "velocity": 0.5748031496062992
        },
        {
          "duration": 0.05172412499999979,
          "durationTicks": 12,
          "midi": 85,
          "name": "C#6",
          "ticks": 12228,
          "time": 52.706883375000004,
          "velocity": 0.5748031496062992
        },
        {
          "duration": 0.20689649999999915,
          "durationTicks": 48,
          "midi": 56,
          "name": "G#3",
          "ticks": 12240,
          "time": 52.758607500000004,
          "velocity": 0.7874015748031497
        },
        {
          "duration": 0.20689649999999915,
          "durationTicks": 48,
          "midi": 68,
          "name": "G#4",
          "ticks": 12240,
          "time": 52.758607500000004,
          "velocity": 0.7874015748031497
        },
        {
          "duration": 0.20689649999999915,
          "durationTicks": 48,
          "midi": 47,
          "name": "B2",
          "ticks": 12240,
          "time": 52.758607500000004,
          "velocity": 0.6692913385826772
        },
        {
          "duration": 0.20689649999999915,
          "durationTicks": 48,
          "midi": 40,
          "name": "E2",
          "ticks": 12240,
          "time": 52.758607500000004,
          "velocity": 0.6692913385826772
        },
        {
          "duration": 0.05172412499999979,
          "durationTicks": 12,
          "midi": 95,
          "name": "B6",
          "ticks": 12288,
          "time": 52.965504,
          "velocity": 0.5669291338582677
        },
        {
          "duration": 0.8275859999999966,
          "durationTicks": 192,
          "midi": 66,
          "name": "F#4",
          "ticks": 12288,
          "time": 52.965504,
          "velocity": 0.7874015748031497
        },
        {
          "duration": 0.8275859999999966,
          "durationTicks": 192,
          "midi": 54,
          "name": "F#3",
          "ticks": 12288,
          "time": 52.965504,
          "velocity": 0.7874015748031497
        },
        {
          "duration": 0.20689649999999915,
          "durationTicks": 48,
          "midi": 42,
          "name": "F#2",
          "ticks": 12288,
          "time": 52.965504,
          "velocity": 0.6692913385826772
        },
        {
          "duration": 0.20689649999999915,
          "durationTicks": 48,
          "midi": 49,
          "name": "C#3",
          "ticks": 12288,
          "time": 52.965504,
          "velocity": 0.6692913385826772
        },
        {
          "duration": 0.05172412499999979,
          "durationTicks": 12,
          "midi": 83,
          "name": "B5",
          "ticks": 12288,
          "time": 52.965504,
          "velocity": 0.5669291338582677
        },
        {
          "duration": 0.05172412499999979,
          "durationTicks": 12,
          "midi": 92,
          "name": "G#6",
          "ticks": 12300,
          "time": 53.017228125,
          "velocity": 0.5669291338582677
        },
        {
          "duration": 0.05172412499999979,
          "durationTicks": 12,
          "midi": 80,
          "name": "G#5",
          "ticks": 12300,
          "time": 53.017228125,
          "velocity": 0.5669291338582677
        },
        {
          "duration": 0.05172412499999979,
          "durationTicks": 12,
          "midi": 90,
          "name": "F#6",
          "ticks": 12312,
          "time": 53.06895225,
          "velocity": 0.5748031496062992
        },
        {
          "duration": 0.05172412499999979,
          "durationTicks": 12,
          "midi": 78,
          "name": "F#5",
          "ticks": 12312,
          "time": 53.06895225,
          "velocity": 0.5748031496062992
        },
        {
          "duration": 0.05172412499999979,
          "durationTicks": 12,
          "midi": 88,
          "name": "E6",
          "ticks": 12324,
          "time": 53.120676375,
          "velocity": 0.5748031496062992
        },
        {
          "duration": 0.05172412499999979,
          "durationTicks": 12,
          "midi": 76,
          "name": "E5",
          "ticks": 12324,
          "time": 53.120676375,
          "velocity": 0.5748031496062992
        },
        {
          "duration": 0.20689649999999915,
          "durationTicks": 48,
          "midi": 49,
          "name": "C#3",
          "ticks": 12336,
          "time": 53.1724005,
          "velocity": 0.6692913385826772
        },
        {
          "duration": 0.20689649999999915,
          "durationTicks": 48,
          "midi": 42,
          "name": "F#2",
          "ticks": 12336,
          "time": 53.1724005,
          "velocity": 0.6692913385826772
        },
        {
          "duration": 0.05172412499999979,
          "durationTicks": 12,
          "midi": 95,
          "name": "B6",
          "ticks": 12384,
          "time": 53.379297,
          "velocity": 0.5905511811023622
        },
        {
          "duration": 0.20689649999999915,
          "durationTicks": 48,
          "midi": 49,
          "name": "C#3",
          "ticks": 12384,
          "time": 53.379297,
          "velocity": 0.6692913385826772
        },
        {
          "duration": 0.20689649999999915,
          "durationTicks": 48,
          "midi": 42,
          "name": "F#2",
          "ticks": 12384,
          "time": 53.379297,
          "velocity": 0.6692913385826772
        },
        {
          "duration": 0.05172412499999979,
          "durationTicks": 12,
          "midi": 83,
          "name": "B5",
          "ticks": 12384,
          "time": 53.379297,
          "velocity": 0.5905511811023622
        },
        {
          "duration": 0.05172412499999979,
          "durationTicks": 12,
          "midi": 92,
          "name": "G#6",
          "ticks": 12396,
          "time": 53.431021125,
          "velocity": 0.5905511811023622
        },
        {
          "duration": 0.05172412499999979,
          "durationTicks": 12,
          "midi": 80,
          "name": "G#5",
          "ticks": 12396,
          "time": 53.431021125,
          "velocity": 0.5905511811023622
        },
        {
          "duration": 0.05172412499999979,
          "durationTicks": 12,
          "midi": 90,
          "name": "F#6",
          "ticks": 12408,
          "time": 53.48274525,
          "velocity": 0.5905511811023622
        },
        {
          "duration": 0.05172412499999979,
          "durationTicks": 12,
          "midi": 78,
          "name": "F#5",
          "ticks": 12408,
          "time": 53.48274525,
          "velocity": 0.5905511811023622
        },
        {
          "duration": 0.05172412499999979,
          "durationTicks": 12,
          "midi": 88,
          "name": "E6",
          "ticks": 12420,
          "time": 53.534469375,
          "velocity": 0.5984251968503937
        },
        {
          "duration": 0.05172412499999979,
          "durationTicks": 12,
          "midi": 76,
          "name": "E5",
          "ticks": 12420,
          "time": 53.534469375,
          "velocity": 0.5984251968503937
        },
        {
          "duration": 0.20689649999999915,
          "durationTicks": 48,
          "midi": 42,
          "name": "F#2",
          "ticks": 12432,
          "time": 53.5861935,
          "velocity": 0.6692913385826772
        },
        {
          "duration": 0.20689649999999915,
          "durationTicks": 48,
          "midi": 49,
          "name": "C#3",
          "ticks": 12432,
          "time": 53.5861935,
          "velocity": 0.6692913385826772
        },
        {
          "duration": 0.05172412500000689,
          "durationTicks": 12,
          "midi": 95,
          "name": "B6",
          "ticks": 12480,
          "time": 53.79309,
          "velocity": 0.6141732283464567
        },
        {
          "duration": 0.05172412500000689,
          "durationTicks": 12,
          "midi": 83,
          "name": "B5",
          "ticks": 12480,
          "time": 53.79309,
          "velocity": 0.6141732283464567
        },
        {
          "duration": 0.20689650000000626,
          "durationTicks": 48,
          "midi": 42,
          "name": "F#2",
          "ticks": 12480,
          "time": 53.79309,
          "velocity": 0.6692913385826772
        },
        {
          "duration": 0.20689650000000626,
          "durationTicks": 48,
          "midi": 49,
          "name": "C#3",
          "ticks": 12480,
          "time": 53.79309,
          "velocity": 0.6692913385826772
        },
        {
          "duration": 0.05172412499999979,
          "durationTicks": 12,
          "midi": 92,
          "name": "G#6",
          "ticks": 12492,
          "time": 53.844814125000006,
          "velocity": 0.6141732283464567
        },
        {
          "duration": 0.05172412499999979,
          "durationTicks": 12,
          "midi": 80,
          "name": "G#5",
          "ticks": 12492,
          "time": 53.844814125000006,
          "velocity": 0.6141732283464567
        },
        {
          "duration": 0.05172412499999979,
          "durationTicks": 12,
          "midi": 90,
          "name": "F#6",
          "ticks": 12504,
          "time": 53.896538250000006,
          "velocity": 0.6141732283464567
        },
        {
          "duration": 0.05172412499999979,
          "durationTicks": 12,
          "midi": 78,
          "name": "F#5",
          "ticks": 12504,
          "time": 53.896538250000006,
          "velocity": 0.6141732283464567
        },
        {
          "duration": 0.05172412499999979,
          "durationTicks": 12,
          "midi": 88,
          "name": "E6",
          "ticks": 12516,
          "time": 53.948262375000006,
          "velocity": 0.6220472440944882
        },
        {
          "duration": 0.05172412499999979,
          "durationTicks": 12,
          "midi": 76,
          "name": "E5",
          "ticks": 12516,
          "time": 53.948262375000006,
          "velocity": 0.6220472440944882
        },
        {
          "duration": 0.20689649999999915,
          "durationTicks": 48,
          "midi": 42,
          "name": "F#2",
          "ticks": 12528,
          "time": 53.999986500000006,
          "velocity": 0.6692913385826772
        },
        {
          "duration": 0.20689649999999915,
          "durationTicks": 48,
          "midi": 49,
          "name": "C#3",
          "ticks": 12528,
          "time": 53.999986500000006,
          "velocity": 0.6692913385826772
        },
        {
          "duration": 0.20689649999999915,
          "durationTicks": 48,
          "midi": 54,
          "name": "F#3",
          "ticks": 12576,
          "time": 54.206883000000005,
          "velocity": 0.7874015748031497
        },
        {
          "duration": 0.20689649999999915,
          "durationTicks": 48,
          "midi": 66,
          "name": "F#4",
          "ticks": 12576,
          "time": 54.206883000000005,
          "velocity": 0.7874015748031497
        },
        {
          "duration": 0.05172412499999979,
          "durationTicks": 12,
          "midi": 83,
          "name": "B5",
          "ticks": 12576,
          "time": 54.206883000000005,
          "velocity": 0.6299212598425197
        },
        {
          "duration": 0.20689649999999915,
          "durationTicks": 48,
          "midi": 49,
          "name": "C#3",
          "ticks": 12576,
          "time": 54.206883000000005,
          "velocity": 0.6692913385826772
        },
        {
          "duration": 0.20689649999999915,
          "durationTicks": 48,
          "midi": 42,
          "name": "F#2",
          "ticks": 12576,
          "time": 54.206883000000005,
          "velocity": 0.6692913385826772
        },
        {
          "duration": 0.05172412499999979,
          "durationTicks": 12,
          "midi": 95,
          "name": "B6",
          "ticks": 12576,
          "time": 54.206883000000005,
          "velocity": 0.6299212598425197
        },
        {
          "duration": 0.05172412499999979,
          "durationTicks": 12,
          "midi": 80,
          "name": "G#5",
          "ticks": 12588,
          "time": 54.258607125000005,
          "velocity": 0.6377952755905512
        },
        {
          "duration": 0.05172412499999979,
          "durationTicks": 12,
          "midi": 92,
          "name": "G#6",
          "ticks": 12588,
          "time": 54.258607125000005,
          "velocity": 0.6377952755905512
        },
        {
          "duration": 0.05172412499999979,
          "durationTicks": 12,
          "midi": 78,
          "name": "F#5",
          "ticks": 12600,
          "time": 54.310331250000004,
          "velocity": 0.6377952755905512
        },
        {
          "duration": 0.05172412499999979,
          "durationTicks": 12,
          "midi": 90,
          "name": "F#6",
          "ticks": 12600,
          "time": 54.310331250000004,
          "velocity": 0.6377952755905512
        },
        {
          "duration": 0.05172412499999979,
          "durationTicks": 12,
          "midi": 76,
          "name": "E5",
          "ticks": 12612,
          "time": 54.362055375000004,
          "velocity": 0.6377952755905512
        },
        {
          "duration": 0.05172412499999979,
          "durationTicks": 12,
          "midi": 88,
          "name": "E6",
          "ticks": 12612,
          "time": 54.362055375000004,
          "velocity": 0.6377952755905512
        },
        {
          "duration": 0.20689649999999915,
          "durationTicks": 48,
          "midi": 56,
          "name": "G#3",
          "ticks": 12624,
          "time": 54.413779500000004,
          "velocity": 0.7874015748031497
        },
        {
          "duration": 0.20689649999999915,
          "durationTicks": 48,
          "midi": 68,
          "name": "G#4",
          "ticks": 12624,
          "time": 54.413779500000004,
          "velocity": 0.7874015748031497
        },
        {
          "duration": 0.20689649999999915,
          "durationTicks": 48,
          "midi": 49,
          "name": "C#3",
          "ticks": 12624,
          "time": 54.413779500000004,
          "velocity": 0.6692913385826772
        },
        {
          "duration": 0.20689649999999915,
          "durationTicks": 48,
          "midi": 42,
          "name": "F#2",
          "ticks": 12624,
          "time": 54.413779500000004,
          "velocity": 0.6692913385826772
        },
        {
          "duration": 0.05172412499999979,
          "durationTicks": 12,
          "midi": 95,
          "name": "B6",
          "ticks": 12672,
          "time": 54.620676,
          "velocity": 0.6535433070866141
        },
        {
          "duration": 0.05172412499999979,
          "durationTicks": 12,
          "midi": 59,
          "name": "B3",
          "ticks": 12672,
          "time": 54.620676,
          "velocity": 0.3543307086614173
        },
        {
          "duration": 0.05172412499999979,
          "durationTicks": 12,
          "midi": 83,
          "name": "B5",
          "ticks": 12672,
          "time": 54.620676,
          "velocity": 0.6535433070866141
        },
        {
          "duration": 1.6551720000000003,
          "durationTicks": 384,
          "midi": 83,
          "name": "B5",
          "ticks": 12672,
          "time": 54.620676,
          "velocity": 0.7874015748031497
        },
        {
          "duration": 1.6551720000000003,
          "durationTicks": 384,
          "midi": 71,
          "name": "B4",
          "ticks": 12672,
          "time": 54.620676,
          "velocity": 0.7874015748031497
        },
        {
          "duration": 0.05172412499999979,
          "durationTicks": 12,
          "midi": 92,
          "name": "G#6",
          "ticks": 12684,
          "time": 54.672400125,
          "velocity": 0.6614173228346457
        },
        {
          "duration": 0.05172412499999979,
          "durationTicks": 12,
          "midi": 80,
          "name": "G#5",
          "ticks": 12684,
          "time": 54.672400125,
          "velocity": 0.6614173228346457
        },
        {
          "duration": 0.05172412499999979,
          "durationTicks": 12,
          "midi": 90,
          "name": "F#6",
          "ticks": 12696,
          "time": 54.72412425,
          "velocity": 0.6614173228346457
        },
        {
          "duration": 0.05172412499999979,
          "durationTicks": 12,
          "midi": 59,
          "name": "B3",
          "ticks": 12696,
          "time": 54.72412425,
          "velocity": 0.3779527559055118
        },
        {
          "duration": 0.05172412499999979,
          "durationTicks": 12,
          "midi": 78,
          "name": "F#5",
          "ticks": 12696,
          "time": 54.72412425,
          "velocity": 0.6614173228346457
        },
        {
          "duration": 0.05172412499999979,
          "durationTicks": 12,
          "midi": 76,
          "name": "E5",
          "ticks": 12708,
          "time": 54.775848375,
          "velocity": 0.6614173228346457
        },
        {
          "duration": 0.05172412499999979,
          "durationTicks": 12,
          "midi": 88,
          "name": "E6",
          "ticks": 12708,
          "time": 54.775848375,
          "velocity": 0.6614173228346457
        },
        {
          "duration": 0.05172412499999979,
          "durationTicks": 12,
          "midi": 59,
          "name": "B3",
          "ticks": 12720,
          "time": 54.8275725,
          "velocity": 0.4015748031496063
        },
        {
          "duration": 0.05172412499999979,
          "durationTicks": 12,
          "midi": 59,
          "name": "B3",
          "ticks": 12744,
          "time": 54.93102075,
          "velocity": 0.4251968503937008
        },
        {
          "duration": 0.05172412499999979,
          "durationTicks": 12,
          "midi": 59,
          "name": "B3",
          "ticks": 12768,
          "time": 55.034469,
          "velocity": 0.4566929133858268
        },
        {
          "duration": 0.05172412499999979,
          "durationTicks": 12,
          "midi": 59,
          "name": "B3",
          "ticks": 12792,
          "time": 55.13791725,
          "velocity": 0.48031496062992124
        },
        {
          "duration": 0.05172412499999979,
          "durationTicks": 12,
          "midi": 59,
          "name": "B3",
          "ticks": 12816,
          "time": 55.2413655,
          "velocity": 0.5039370078740157
        },
        {
          "duration": 0.05172412499999979,
          "durationTicks": 12,
          "midi": 59,
          "name": "B3",
          "ticks": 12840,
          "time": 55.34481375,
          "velocity": 0.5275590551181102
        },
        {
          "duration": 0.05172412499999979,
          "durationTicks": 12,
          "midi": 59,
          "name": "B3",
          "ticks": 12864,
          "time": 55.448262,
          "velocity": 0.5511811023622047
        },
        {
          "duration": 0.05172412500000689,
          "durationTicks": 12,
          "midi": 59,
          "name": "B3",
          "ticks": 12876,
          "time": 55.499986125,
          "velocity": 0.5669291338582677
        },
        {
          "duration": 0.05172412499999979,
          "durationTicks": 12,
          "midi": 59,
          "name": "B3",
          "ticks": 12888,
          "time": 55.551710250000006,
          "velocity": 0.5748031496062992
        },
        {
          "duration": 0.05172412499999979,
          "durationTicks": 12,
          "midi": 59,
          "name": "B3",
          "ticks": 12900,
          "time": 55.603434375000006,
          "velocity": 0.5905511811023622
        },
        {
          "duration": 0.05172412499999979,
          "durationTicks": 12,
          "midi": 59,
          "name": "B3",
          "ticks": 12912,
          "time": 55.655158500000006,
          "velocity": 0.5984251968503937
        },
        {
          "duration": 0.05172412499999979,
          "durationTicks": 12,
          "midi": 59,
          "name": "B3",
          "ticks": 12924,
          "time": 55.706882625000006,
          "velocity": 0.6141732283464567
        },
        {
          "duration": 0.05172412499999979,
          "durationTicks": 12,
          "midi": 59,
          "name": "B3",
          "ticks": 12936,
          "time": 55.758606750000006,
          "velocity": 0.6220472440944882
        },
        {
          "duration": 0.05172412499999979,
          "durationTicks": 12,
          "midi": 59,
          "name": "B3",
          "ticks": 12948,
          "time": 55.810330875000005,
          "velocity": 0.6377952755905512
        },
        {
          "duration": 0.05172412499999979,
          "durationTicks": 12,
          "midi": 61,
          "name": "C#4",
          "ticks": 12960,
          "time": 55.862055000000005,
          "velocity": 0.6535433070866141
        },
        {
          "duration": 0.05172412499999979,
          "durationTicks": 12,
          "midi": 61,
          "name": "C#4",
          "ticks": 12972,
          "time": 55.913779125000005,
          "velocity": 0.6614173228346457
        },
        {
          "duration": 0.05172412499999979,
          "durationTicks": 12,
          "midi": 61,
          "name": "C#4",
          "ticks": 12984,
          "time": 55.965503250000005,
          "velocity": 0.6771653543307087
        },
        {
          "duration": 0.05172412499999979,
          "durationTicks": 12,
          "midi": 61,
          "name": "C#4",
          "ticks": 12996,
          "time": 56.017227375000004,
          "velocity": 0.6850393700787402
        },
        {
          "duration": 0.05172412499999979,
          "durationTicks": 12,
          "midi": 61,
          "name": "C#4",
          "ticks": 13008,
          "time": 56.068951500000004,
          "velocity": 0.7007874015748031
        },
        {
          "duration": 0.05172412499999979,
          "durationTicks": 12,
          "midi": 61,
          "name": "C#4",
          "ticks": 13020,
          "time": 56.120675625000004,
          "velocity": 0.7086614173228346
        },
        {
          "duration": 0.05172412499999979,
          "durationTicks": 12,
          "midi": 61,
          "name": "C#4",
          "ticks": 13032,
          "time": 56.172399750000004,
          "velocity": 0.7244094488188977
        },
        {
          "duration": 0.05172412499999979,
          "durationTicks": 12,
          "midi": 61,
          "name": "C#4",
          "ticks": 13044,
          "time": 56.224123875000004,
          "velocity": 0.7401574803149606
        },
        {
          "duration": 0.8275859999999966,
          "durationTicks": 192,
          "midi": 49,
          "name": "C#3",
          "ticks": 13056,
          "time": 56.275848,
          "velocity": 0.7874015748031497
        },
        {
          "duration": 0.8275859999999966,
          "durationTicks": 192,
          "midi": 61,
          "name": "C#4",
          "ticks": 13056,
          "time": 56.275848,
          "velocity": 0.7874015748031497
        },
        {
          "duration": 1.6551720000000003,
          "durationTicks": 384,
          "midi": 37,
          "name": "C#2",
          "ticks": 13056,
          "time": 56.275848,
          "velocity": 0.7165354330708661
        },
        {
          "duration": 1.6551720000000003,
          "durationTicks": 384,
          "midi": 44,
          "name": "G#2",
          "ticks": 13056,
          "time": 56.275848,
          "velocity": 0.7165354330708661
        },
        {
          "duration": 0.05172412499999979,
          "durationTicks": 12,
          "midi": 90,
          "name": "F#6",
          "ticks": 13116,
          "time": 56.534468625,
          "velocity": 0.7401574803149606
        },
        {
          "duration": 0.05172412499999979,
          "durationTicks": 12,
          "midi": 78,
          "name": "F#5",
          "ticks": 13116,
          "time": 56.534468625,
          "velocity": 0.7401574803149606
        },
        {
          "duration": 0.05172412499999979,
          "durationTicks": 12,
          "midi": 92,
          "name": "G#6",
          "ticks": 13128,
          "time": 56.58619275,
          "velocity": 0.7401574803149606
        },
        {
          "duration": 0.05172412499999979,
          "durationTicks": 12,
          "midi": 80,
          "name": "G#5",
          "ticks": 13128,
          "time": 56.58619275,
          "velocity": 0.7401574803149606
        },
        {
          "duration": 0.05172412499999979,
          "durationTicks": 12,
          "midi": 95,
          "name": "B6",
          "ticks": 13140,
          "time": 56.637916875,
          "velocity": 0.7401574803149606
        },
        {
          "duration": 0.05172412499999979,
          "durationTicks": 12,
          "midi": 83,
          "name": "B5",
          "ticks": 13140,
          "time": 56.637916875,
          "velocity": 0.7401574803149606
        },
        {
          "duration": 0.20689649999999915,
          "durationTicks": 48,
          "midi": 80,
          "name": "G#5",
          "ticks": 13152,
          "time": 56.689641,
          "velocity": 0.7401574803149606
        },
        {
          "duration": 0.20689649999999915,
          "durationTicks": 48,
          "midi": 92,
          "name": "G#6",
          "ticks": 13152,
          "time": 56.689641,
          "velocity": 0.7401574803149606
        },
        {
          "duration": 1.4482755000000012,
          "durationTicks": 336,
          "midi": 78,
          "name": "F#5",
          "ticks": 13200,
          "time": 56.8965375,
          "velocity": 0.7401574803149606
        },
        {
          "duration": 1.4482755000000012,
          "durationTicks": 336,
          "midi": 90,
          "name": "F#6",
          "ticks": 13200,
          "time": 56.8965375,
          "velocity": 0.7401574803149606
        },
        {
          "duration": 0.20689649999999915,
          "durationTicks": 48,
          "midi": 49,
          "name": "C#3",
          "ticks": 13344,
          "time": 57.517227000000005,
          "velocity": 0.7874015748031497
        },
        {
          "duration": 0.20689649999999915,
          "durationTicks": 48,
          "midi": 61,
          "name": "C#4",
          "ticks": 13344,
          "time": 57.517227000000005,
          "velocity": 0.7874015748031497
        },
        {
          "duration": 0.20689649999999915,
          "durationTicks": 48,
          "midi": 63,
          "name": "D#4",
          "ticks": 13392,
          "time": 57.724123500000005,
          "velocity": 0.7874015748031497
        },
        {
          "duration": 0.20689649999999915,
          "durationTicks": 48,
          "midi": 51,
          "name": "D#3",
          "ticks": 13392,
          "time": 57.724123500000005,
          "velocity": 0.7874015748031497
        },
        {
          "duration": 1.6551720000000003,
          "durationTicks": 384,
          "midi": 40,
          "name": "E2",
          "ticks": 13440,
          "time": 57.931020000000004,
          "velocity": 0.7165354330708661
        },
        {
          "duration": 1.6551720000000003,
          "durationTicks": 384,
          "midi": 47,
          "name": "B2",
          "ticks": 13440,
          "time": 57.931020000000004,
          "velocity": 0.7165354330708661
        },
        {
          "duration": 0.8275859999999966,
          "durationTicks": 192,
          "midi": 64,
          "name": "E4",
          "ticks": 13440,
          "time": 57.931020000000004,
          "velocity": 0.7874015748031497
        },
        {
          "duration": 0.8275859999999966,
          "durationTicks": 192,
          "midi": 52,
          "name": "E3",
          "ticks": 13440,
          "time": 57.931020000000004,
          "velocity": 0.7874015748031497
        },
        {
          "duration": 0.05172412499999979,
          "durationTicks": 12,
          "midi": 76,
          "name": "E5",
          "ticks": 13536,
          "time": 58.344813,
          "velocity": 0.7401574803149606
        },
        {
          "duration": 0.05172412499999979,
          "durationTicks": 12,
          "midi": 88,
          "name": "E6",
          "ticks": 13536,
          "time": 58.344813,
          "velocity": 0.7401574803149606
        },
        {
          "duration": 0.05172412499999979,
          "durationTicks": 12,
          "midi": 78,
          "name": "F#5",
          "ticks": 13548,
          "time": 58.396537125,
          "velocity": 0.7401574803149606
        },
        {
          "duration": 0.05172412499999979,
          "durationTicks": 12,
          "midi": 90,
          "name": "F#6",
          "ticks": 13548,
          "time": 58.396537125,
          "velocity": 0.7401574803149606
        },
        {
          "duration": 0.05172412499999979,
          "durationTicks": 12,
          "midi": 80,
          "name": "G#5",
          "ticks": 13560,
          "time": 58.44826125,
          "velocity": 0.7401574803149606
        },
        {
          "duration": 0.05172412499999979,
          "durationTicks": 12,
          "midi": 92,
          "name": "G#6",
          "ticks": 13560,
          "time": 58.44826125,
          "velocity": 0.7401574803149606
        },
        {
          "duration": 0.05172412499999979,
          "durationTicks": 12,
          "midi": 90,
          "name": "F#6",
          "ticks": 13572,
          "time": 58.499985375,
          "velocity": 0.7401574803149606
        },
        {
          "duration": 0.05172412499999979,
          "durationTicks": 12,
          "midi": 78,
          "name": "F#5",
          "ticks": 13572,
          "time": 58.499985375,
          "velocity": 0.7401574803149606
        },
        {
          "duration": 1.0344825000000029,
          "durationTicks": 240,
          "midi": 88,
          "name": "E6",
          "ticks": 13584,
          "time": 58.5517095,
          "velocity": 0.7401574803149606
        },
        {
          "duration": 1.0344825000000029,
          "durationTicks": 240,
          "midi": 76,
          "name": "E5",
          "ticks": 13584,
          "time": 58.5517095,
          "velocity": 0.7401574803149606
        },
        {
          "duration": 0.20689649999999915,
          "durationTicks": 48,
          "midi": 66,
          "name": "F#4",
          "ticks": 13728,
          "time": 59.172399000000006,
          "velocity": 0.7874015748031497
        },
        {
          "duration": 0.20689649999999915,
          "durationTicks": 48,
          "midi": 54,
          "name": "F#3",
          "ticks": 13728,
          "time": 59.172399000000006,
          "velocity": 0.7874015748031497
        },
        {
          "duration": 0.20689649999999915,
          "durationTicks": 48,
          "midi": 56,
          "name": "G#3",
          "ticks": 13776,
          "time": 59.379295500000005,
          "velocity": 0.7874015748031497
        },
        {
          "duration": 0.20689649999999915,
          "durationTicks": 48,
          "midi": 68,
          "name": "G#4",
          "ticks": 13776,
          "time": 59.379295500000005,
          "velocity": 0.7874015748031497
        },
        {
          "duration": 1.241379000000002,
          "durationTicks": 288,
          "midi": 66,
          "name": "F#4",
          "ticks": 13824,
          "time": 59.586192000000004,
          "velocity": 0.7874015748031497
        },
        {
          "duration": 1.241379000000002,
          "durationTicks": 288,
          "midi": 54,
          "name": "F#3",
          "ticks": 13824,
          "time": 59.586192000000004,
          "velocity": 0.7874015748031497
        },
        {
          "duration": 1.6551720000000003,
          "durationTicks": 384,
          "midi": 49,
          "name": "C#3",
          "ticks": 13824,
          "time": 59.586192000000004,
          "velocity": 0.7165354330708661
        },
        {
          "duration": 1.6551720000000003,
          "durationTicks": 384,
          "midi": 42,
          "name": "F#2",
          "ticks": 13824,
          "time": 59.586192000000004,
          "velocity": 0.7165354330708661
        },
        {
          "duration": 0.20689649999999915,
          "durationTicks": 48,
          "midi": 56,
          "name": "G#3",
          "ticks": 14112,
          "time": 60.827571000000006,
          "velocity": 0.7874015748031497
        },
        {
          "duration": 0.20689649999999915,
          "durationTicks": 48,
          "midi": 68,
          "name": "G#4",
          "ticks": 14112,
          "time": 60.827571000000006,
          "velocity": 0.7874015748031497
        },
        {
          "duration": 0.20689649999999915,
          "durationTicks": 48,
          "midi": 66,
          "name": "F#4",
          "ticks": 14160,
          "time": 61.034467500000005,
          "velocity": 0.7874015748031497
        },
        {
          "duration": 0.20689649999999915,
          "durationTicks": 48,
          "midi": 54,
          "name": "F#3",
          "ticks": 14160,
          "time": 61.034467500000005,
          "velocity": 0.7874015748031497
        },
        {
          "duration": 1.6551720000000003,
          "durationTicks": 384,
          "midi": 40,
          "name": "E2",
          "ticks": 14208,
          "time": 61.241364000000004,
          "velocity": 0.7165354330708661
        },
        {
          "duration": 1.6551720000000003,
          "durationTicks": 384,
          "midi": 47,
          "name": "B2",
          "ticks": 14208,
          "time": 61.241364000000004,
          "velocity": 0.7165354330708661
        },
        {
          "duration": 0.4137929999999983,
          "durationTicks": 96,
          "midi": 64,
          "name": "E4",
          "ticks": 14208,
          "time": 61.241364000000004,
          "velocity": 0.7874015748031497
        },
        {
          "duration": 0.4137929999999983,
          "durationTicks": 96,
          "midi": 52,
          "name": "E3",
          "ticks": 14208,
          "time": 61.241364000000004,
          "velocity": 0.7874015748031497
        },
        {
          "duration": 0.20689649999999915,
          "durationTicks": 48,
          "midi": 54,
          "name": "F#3",
          "ticks": 14304,
          "time": 61.655157,
          "velocity": 0.7874015748031497
        },
        {
          "duration": 0.20689649999999915,
          "durationTicks": 48,
          "midi": 66,
          "name": "F#4",
          "ticks": 14304,
          "time": 61.655157,
          "velocity": 0.7874015748031497
        },
        {
          "duration": 0.20689649999999915,
          "durationTicks": 48,
          "midi": 64,
          "name": "E4",
          "ticks": 14352,
          "time": 61.8620535,
          "velocity": 0.7874015748031497
        },
        {
          "duration": 0.20689649999999915,
          "durationTicks": 48,
          "midi": 52,
          "name": "E3",
          "ticks": 14352,
          "time": 61.8620535,
          "velocity": 0.7874015748031497
        },
        {
          "duration": 0.4137930000000054,
          "durationTicks": 96,
          "midi": 63,
          "name": "D#4",
          "ticks": 14400,
          "time": 62.06895,
          "velocity": 0.7874015748031497
        },
        {
          "duration": 0.4137930000000054,
          "durationTicks": 96,
          "midi": 51,
          "name": "D#3",
          "ticks": 14400,
          "time": 62.06895,
          "velocity": 0.7874015748031497
        },
        {
          "duration": 0.20689649999999915,
          "durationTicks": 48,
          "midi": 52,
          "name": "E3",
          "ticks": 14496,
          "time": 62.482743000000006,
          "velocity": 0.7874015748031497
        },
        {
          "duration": 0.20689649999999915,
          "durationTicks": 48,
          "midi": 64,
          "name": "E4",
          "ticks": 14496,
          "time": 62.482743000000006,
          "velocity": 0.7874015748031497
        },
        {
          "duration": 0.20689649999999915,
          "durationTicks": 48,
          "midi": 51,
          "name": "D#3",
          "ticks": 14544,
          "time": 62.689639500000006,
          "velocity": 0.7874015748031497
        },
        {
          "duration": 0.20689649999999915,
          "durationTicks": 48,
          "midi": 63,
          "name": "D#4",
          "ticks": 14544,
          "time": 62.689639500000006,
          "velocity": 0.7874015748031497
        },
        {
          "duration": 0.8275859999999966,
          "durationTicks": 192,
          "midi": 49,
          "name": "C#3",
          "ticks": 14592,
          "time": 62.896536000000005,
          "velocity": 0.7874015748031497
        },
        {
          "duration": 0.8275859999999966,
          "durationTicks": 192,
          "midi": 61,
          "name": "C#4",
          "ticks": 14592,
          "time": 62.896536000000005,
          "velocity": 0.7874015748031497
        },
        {
          "duration": 1.6551720000000003,
          "durationTicks": 384,
          "midi": 37,
          "name": "C#2",
          "ticks": 14592,
          "time": 62.896536000000005,
          "velocity": 0.7165354330708661
        },
        {
          "duration": 1.6551720000000003,
          "durationTicks": 384,
          "midi": 44,
          "name": "G#2",
          "ticks": 14592,
          "time": 62.896536000000005,
          "velocity": 0.7165354330708661
        },
        {
          "duration": 0.05172412499999979,
          "durationTicks": 12,
          "midi": 90,
          "name": "F#6",
          "ticks": 14652,
          "time": 63.155156625000004,
          "velocity": 0.7401574803149606
        },
        {
          "duration": 0.05172412499999979,
          "durationTicks": 12,
          "midi": 78,
          "name": "F#5",
          "ticks": 14652,
          "time": 63.155156625000004,
          "velocity": 0.7401574803149606
        },
        {
          "duration": 0.05172412499999979,
          "durationTicks": 12,
          "midi": 80,
          "name": "G#5",
          "ticks": 14664,
          "time": 63.20688075,
          "velocity": 0.7401574803149606
        },
        {
          "duration": 0.05172412499999979,
          "durationTicks": 12,
          "midi": 92,
          "name": "G#6",
          "ticks": 14664,
          "time": 63.20688075,
          "velocity": 0.7401574803149606
        },
        {
          "duration": 0.05172412499999979,
          "durationTicks": 12,
          "midi": 95,
          "name": "B6",
          "ticks": 14676,
          "time": 63.258604875,
          "velocity": 0.7401574803149606
        },
        {
          "duration": 0.05172412499999979,
          "durationTicks": 12,
          "midi": 83,
          "name": "B5",
          "ticks": 14676,
          "time": 63.258604875,
          "velocity": 0.7401574803149606
        },
        {
          "duration": 0.20689649999999915,
          "durationTicks": 48,
          "midi": 92,
          "name": "G#6",
          "ticks": 14688,
          "time": 63.310329,
          "velocity": 0.7401574803149606
        },
        {
          "duration": 0.20689649999999915,
          "durationTicks": 48,
          "midi": 80,
          "name": "G#5",
          "ticks": 14688,
          "time": 63.310329,
          "velocity": 0.7401574803149606
        },
        {
          "duration": 1.4482755000000012,
          "durationTicks": 336,
          "midi": 90,
          "name": "F#6",
          "ticks": 14736,
          "time": 63.5172255,
          "velocity": 0.7401574803149606
        },
        {
          "duration": 1.4482755000000012,
          "durationTicks": 336,
          "midi": 78,
          "name": "F#5",
          "ticks": 14736,
          "time": 63.5172255,
          "velocity": 0.7401574803149606
        },
        {
          "duration": 0.20689649999999915,
          "durationTicks": 48,
          "midi": 49,
          "name": "C#3",
          "ticks": 14880,
          "time": 64.137915,
          "velocity": 0.7874015748031497
        },
        {
          "duration": 0.20689649999999915,
          "durationTicks": 48,
          "midi": 61,
          "name": "C#4",
          "ticks": 14880,
          "time": 64.137915,
          "velocity": 0.7874015748031497
        },
        {
          "duration": 0.20689649999999915,
          "durationTicks": 48,
          "midi": 63,
          "name": "D#4",
          "ticks": 14928,
          "time": 64.3448115,
          "velocity": 0.7874015748031497
        },
        {
          "duration": 0.20689649999999915,
          "durationTicks": 48,
          "midi": 51,
          "name": "D#3",
          "ticks": 14928,
          "time": 64.3448115,
          "velocity": 0.7874015748031497
        },
        {
          "duration": 0.8275859999999966,
          "durationTicks": 192,
          "midi": 52,
          "name": "E3",
          "ticks": 14976,
          "time": 64.551708,
          "velocity": 0.7874015748031497
        },
        {
          "duration": 0.8275859999999966,
          "durationTicks": 192,
          "midi": 64,
          "name": "E4",
          "ticks": 14976,
          "time": 64.551708,
          "velocity": 0.7874015748031497
        },
        {
          "duration": 1.6551719999999932,
          "durationTicks": 384,
          "midi": 47,
          "name": "B2",
          "ticks": 14976,
          "time": 64.551708,
          "velocity": 0.7165354330708661
        },
        {
          "duration": 1.6551719999999932,
          "durationTicks": 384,
          "midi": 40,
          "name": "E2",
          "ticks": 14976,
          "time": 64.551708,
          "velocity": 0.7165354330708661
        },
        {
          "duration": 0.05172412500000689,
          "durationTicks": 12,
          "midi": 88,
          "name": "E6",
          "ticks": 15072,
          "time": 64.965501,
          "velocity": 0.7401574803149606
        },
        {
          "duration": 0.05172412500000689,
          "durationTicks": 12,
          "midi": 76,
          "name": "E5",
          "ticks": 15072,
          "time": 64.965501,
          "velocity": 0.7401574803149606
        },
        {
          "duration": 0.05172412499999268,
          "durationTicks": 12,
          "midi": 90,
          "name": "F#6",
          "ticks": 15084,
          "time": 65.01722512500001,
          "velocity": 0.7401574803149606
        },
        {
          "duration": 0.05172412499999268,
          "durationTicks": 12,
          "midi": 78,
          "name": "F#5",
          "ticks": 15084,
          "time": 65.01722512500001,
          "velocity": 0.7401574803149606
        },
        {
          "duration": 0.05172412500000689,
          "durationTicks": 12,
          "midi": 92,
          "name": "G#6",
          "ticks": 15096,
          "time": 65.06894925,
          "velocity": 0.7401574803149606
        },
        {
          "duration": 0.05172412500000689,
          "durationTicks": 12,
          "midi": 80,
          "name": "G#5",
          "ticks": 15096,
          "time": 65.06894925,
          "velocity": 0.7401574803149606
        },
        {
          "duration": 0.05172412499999268,
          "durationTicks": 12,
          "midi": 90,
          "name": "F#6",
          "ticks": 15108,
          "time": 65.12067337500001,
          "velocity": 0.7401574803149606
        },
        {
          "duration": 0.05172412499999268,
          "durationTicks": 12,
          "midi": 78,
          "name": "F#5",
          "ticks": 15108,
          "time": 65.12067337500001,
          "velocity": 0.7401574803149606
        },
        {
          "duration": 1.0344824999999958,
          "durationTicks": 240,
          "midi": 88,
          "name": "E6",
          "ticks": 15120,
          "time": 65.1723975,
          "velocity": 0.7401574803149606
        },
        {
          "duration": 1.0344824999999958,
          "durationTicks": 240,
          "midi": 76,
          "name": "E5",
          "ticks": 15120,
          "time": 65.1723975,
          "velocity": 0.7401574803149606
        },
        {
          "duration": 0.20689649999999915,
          "durationTicks": 48,
          "midi": 66,
          "name": "F#4",
          "ticks": 15264,
          "time": 65.793087,
          "velocity": 0.7874015748031497
        },
        {
          "duration": 0.20689649999999915,
          "durationTicks": 48,
          "midi": 54,
          "name": "F#3",
          "ticks": 15264,
          "time": 65.793087,
          "velocity": 0.7874015748031497
        },
        {
          "duration": 0.20689649999999915,
          "durationTicks": 48,
          "midi": 68,
          "name": "G#4",
          "ticks": 15312,
          "time": 65.9999835,
          "velocity": 0.7874015748031497
        },
        {
          "duration": 0.20689649999999915,
          "durationTicks": 48,
          "midi": 56,
          "name": "G#3",
          "ticks": 15312,
          "time": 65.9999835,
          "velocity": 0.7874015748031497
        },
        {
          "duration": 1.2413790000000091,
          "durationTicks": 288,
          "midi": 54,
          "name": "F#3",
          "ticks": 15360,
          "time": 66.20688,
          "velocity": 0.7874015748031497
        },
        {
          "duration": 1.6551720000000074,
          "durationTicks": 384,
          "midi": 49,
          "name": "C#3",
          "ticks": 15360,
          "time": 66.20688,
          "velocity": 0.7244094488188977
        },
        {
          "duration": 1.6551720000000074,
          "durationTicks": 384,
          "midi": 42,
          "name": "F#2",
          "ticks": 15360,
          "time": 66.20688,
          "velocity": 0.7244094488188977
        },
        {
          "duration": 1.2413790000000091,
          "durationTicks": 288,
          "midi": 66,
          "name": "F#4",
          "ticks": 15360,
          "time": 66.20688,
          "velocity": 0.7874015748031497
        },
        {
          "duration": 0.20689649999999915,
          "durationTicks": 48,
          "midi": 54,
          "name": "F#3",
          "ticks": 15648,
          "time": 67.44825900000001,
          "velocity": 0.7874015748031497
        },
        {
          "duration": 0.20689649999999915,
          "durationTicks": 48,
          "midi": 66,
          "name": "F#4",
          "ticks": 15648,
          "time": 67.44825900000001,
          "velocity": 0.7874015748031497
        },
        {
          "duration": 0.20689649999999915,
          "durationTicks": 48,
          "midi": 54,
          "name": "F#3",
          "ticks": 15696,
          "time": 67.6551555,
          "velocity": 0.7874015748031497
        },
        {
          "duration": 0.20689649999999915,
          "durationTicks": 48,
          "midi": 66,
          "name": "F#4",
          "ticks": 15696,
          "time": 67.6551555,
          "velocity": 0.7874015748031497
        },
        {
          "duration": 0.20689649999999915,
          "durationTicks": 48,
          "midi": 66,
          "name": "F#4",
          "ticks": 15744,
          "time": 67.862052,
          "velocity": 0.7874015748031497
        },
        {
          "duration": 0.20689649999999915,
          "durationTicks": 48,
          "midi": 54,
          "name": "F#3",
          "ticks": 15744,
          "time": 67.862052,
          "velocity": 0.7874015748031497
        },
        {
          "duration": 0.8275859999999966,
          "durationTicks": 192,
          "midi": 42,
          "name": "F#2",
          "ticks": 15744,
          "time": 67.862052,
          "velocity": 0.7244094488188977
        },
        {
          "duration": 0.8275859999999966,
          "durationTicks": 192,
          "midi": 49,
          "name": "C#3",
          "ticks": 15744,
          "time": 67.862052,
          "velocity": 0.7244094488188977
        },
        {
          "duration": 0.20689649999999915,
          "durationTicks": 48,
          "midi": 54,
          "name": "F#3",
          "ticks": 15792,
          "time": 68.0689485,
          "velocity": 0.7086614173228346
        },
        {
          "duration": 0.20689649999999915,
          "durationTicks": 48,
          "midi": 66,
          "name": "F#4",
          "ticks": 15792,
          "time": 68.0689485,
          "velocity": 0.7086614173228346
        },
        {
          "duration": 0.20689649999999915,
          "durationTicks": 48,
          "midi": 54,
          "name": "F#3",
          "ticks": 15840,
          "time": 68.275845,
          "velocity": 0.6141732283464567
        },
        {
          "duration": 0.20689649999999915,
          "durationTicks": 48,
          "midi": 66,
          "name": "F#4",
          "ticks": 15840,
          "time": 68.275845,
          "velocity": 0.6141732283464567
        },
        {
          "duration": 0.20689649999999915,
          "durationTicks": 48,
          "midi": 54,
          "name": "F#3",
          "ticks": 15888,
          "time": 68.4827415,
          "velocity": 0.5275590551181102
        },
        {
          "duration": 0.20689649999999915,
          "durationTicks": 48,
          "midi": 66,
          "name": "F#4",
          "ticks": 15888,
          "time": 68.4827415,
          "velocity": 0.5275590551181102
        },
        {
          "duration": 0.20689649999999915,
          "durationTicks": 48,
          "midi": 49,
          "name": "C#3",
          "ticks": 15936,
          "time": 68.689638,
          "velocity": 0.4094488188976378
        },
        {
          "duration": 0.20689649999999915,
          "durationTicks": 48,
          "midi": 42,
          "name": "F#2",
          "ticks": 15936,
          "time": 68.689638,
          "velocity": 0.4094488188976378
        },
        {
          "duration": 0.20689649999999915,
          "durationTicks": 48,
          "midi": 42,
          "name": "F#2",
          "ticks": 15984,
          "time": 68.8965345,
          "velocity": 0.5039370078740157
        },
        {
          "duration": 0.20689649999999915,
          "durationTicks": 48,
          "midi": 49,
          "name": "C#3",
          "ticks": 15984,
          "time": 68.8965345,
          "velocity": 0.5039370078740157
        },
        {
          "duration": 0.10344824999999958,
          "durationTicks": 24,
          "midi": 42,
          "name": "F#2",
          "ticks": 16032,
          "time": 69.103431,
          "velocity": 0.5905511811023622
        },
        {
          "duration": 0.10344824999999958,
          "durationTicks": 24,
          "midi": 49,
          "name": "C#3",
          "ticks": 16032,
          "time": 69.103431,
          "velocity": 0.5905511811023622
        },
        {
          "duration": 0.10344824999999958,
          "durationTicks": 24,
          "midi": 49,
          "name": "C#3",
          "ticks": 16056,
          "time": 69.20687925,
          "velocity": 0.6377952755905512
        },
        {
          "duration": 0.10344824999999958,
          "durationTicks": 24,
          "midi": 42,
          "name": "F#2",
          "ticks": 16056,
          "time": 69.20687925,
          "velocity": 0.6377952755905512
        },
        {
          "duration": 0.10344824999999958,
          "durationTicks": 24,
          "midi": 42,
          "name": "F#2",
          "ticks": 16080,
          "time": 69.3103275,
          "velocity": 0.6850393700787402
        },
        {
          "duration": 0.10344824999999958,
          "durationTicks": 24,
          "midi": 49,
          "name": "C#3",
          "ticks": 16080,
          "time": 69.3103275,
          "velocity": 0.6850393700787402
        },
        {
          "duration": 0.10344824999999958,
          "durationTicks": 24,
          "midi": 42,
          "name": "F#2",
          "ticks": 16104,
          "time": 69.41377575,
          "velocity": 0.7322834645669292
        },
        {
          "duration": 0.10344824999999958,
          "durationTicks": 24,
          "midi": 49,
          "name": "C#3",
          "ticks": 16104,
          "time": 69.41377575,
          "velocity": 0.7322834645669292
        },
        {
          "duration": 0.8275860000000108,
          "durationTicks": 192,
          "midi": 49,
          "name": "C#3",
          "ticks": 16128,
          "time": 69.517224,
          "velocity": 0.7874015748031497
        },
        {
          "duration": 0.8275860000000108,
          "durationTicks": 192,
          "midi": 61,
          "name": "C#4",
          "ticks": 16128,
          "time": 69.517224,
          "velocity": 0.7874015748031497
        },
        {
          "duration": 0.5689653750000048,
          "durationTicks": 132,
          "midi": 44,
          "name": "G#2",
          "ticks": 16128,
          "time": 69.517224,
          "velocity": 0.7244094488188977
        },
        {
          "duration": 0.5689653750000048,
          "durationTicks": 132,
          "midi": 37,
          "name": "C#2",
          "ticks": 16128,
          "time": 69.517224,
          "velocity": 0.7244094488188977
        },
        {
          "duration": 0.5689653749999906,
          "durationTicks": 132,
          "midi": 37,
          "name": "C#2",
          "ticks": 16272,
          "time": 70.13791350000001,
          "velocity": 0.7244094488188977
        },
        {
          "duration": 0.5689653749999906,
          "durationTicks": 132,
          "midi": 44,
          "name": "G#2",
          "ticks": 16272,
          "time": 70.13791350000001,
          "velocity": 0.7244094488188977
        },
        {
          "duration": 0.15517237499999226,
          "durationTicks": 36,
          "midi": 44,
          "name": "G#2",
          "ticks": 16416,
          "time": 70.75860300000001,
          "velocity": 0.7244094488188977
        },
        {
          "duration": 0.15517237499999226,
          "durationTicks": 36,
          "midi": 37,
          "name": "C#2",
          "ticks": 16416,
          "time": 70.75860300000001,
          "velocity": 0.7244094488188977
        },
        {
          "duration": 0.20689649999999915,
          "durationTicks": 48,
          "midi": 61,
          "name": "C#4",
          "ticks": 16416,
          "time": 70.75860300000001,
          "velocity": 0.7874015748031497
        },
        {
          "duration": 0.20689649999999915,
          "durationTicks": 48,
          "midi": 49,
          "name": "C#3",
          "ticks": 16416,
          "time": 70.75860300000001,
          "velocity": 0.7874015748031497
        },
        {
          "duration": 0.15517237499999226,
          "durationTicks": 36,
          "midi": 39,
          "name": "D#2",
          "ticks": 16464,
          "time": 70.9654995,
          "velocity": 0.7244094488188977
        },
        {
          "duration": 0.15517237499999226,
          "durationTicks": 36,
          "midi": 44,
          "name": "G#2",
          "ticks": 16464,
          "time": 70.9654995,
          "velocity": 0.7244094488188977
        },
        {
          "duration": 0.20689649999999915,
          "durationTicks": 48,
          "midi": 51,
          "name": "D#3",
          "ticks": 16464,
          "time": 70.9654995,
          "velocity": 0.7874015748031497
        },
        {
          "duration": 0.20689649999999915,
          "durationTicks": 48,
          "midi": 63,
          "name": "D#4",
          "ticks": 16464,
          "time": 70.9654995,
          "velocity": 0.7874015748031497
        },
        {
          "duration": 0.8275859999999966,
          "durationTicks": 192,
          "midi": 52,
          "name": "E3",
          "ticks": 16512,
          "time": 71.172396,
          "velocity": 0.7874015748031497
        },
        {
          "duration": 0.8275859999999966,
          "durationTicks": 192,
          "midi": 64,
          "name": "E4",
          "ticks": 16512,
          "time": 71.172396,
          "velocity": 0.7874015748031497
        },
        {
          "duration": 0.5689653749999906,
          "durationTicks": 132,
          "midi": 47,
          "name": "B2",
          "ticks": 16512,
          "time": 71.172396,
          "velocity": 0.7244094488188977
        },
        {
          "duration": 0.5689653749999906,
          "durationTicks": 132,
          "midi": 40,
          "name": "E2",
          "ticks": 16512,
          "time": 71.172396,
          "velocity": 0.7244094488188977
        },
        {
          "duration": 0.5689653750000048,
          "durationTicks": 132,
          "midi": 47,
          "name": "B2",
          "ticks": 16656,
          "time": 71.7930855,
          "velocity": 0.7244094488188977
        },
        {
          "duration": 0.5689653750000048,
          "durationTicks": 132,
          "midi": 40,
          "name": "E2",
          "ticks": 16656,
          "time": 71.7930855,
          "velocity": 0.7244094488188977
        },
        {
          "duration": 0.20689649999999915,
          "durationTicks": 48,
          "midi": 66,
          "name": "F#4",
          "ticks": 16800,
          "time": 72.413775,
          "velocity": 0.7874015748031497
        },
        {
          "duration": 0.20689649999999915,
          "durationTicks": 48,
          "midi": 54,
          "name": "F#3",
          "ticks": 16800,
          "time": 72.413775,
          "velocity": 0.7874015748031497
        },
        {
          "duration": 0.15517237500000647,
          "durationTicks": 36,
          "midi": 40,
          "name": "E2",
          "ticks": 16800,
          "time": 72.413775,
          "velocity": 0.7244094488188977
        },
        {
          "duration": 0.15517237500000647,
          "durationTicks": 36,
          "midi": 47,
          "name": "B2",
          "ticks": 16800,
          "time": 72.413775,
          "velocity": 0.7244094488188977
        },
        {
          "duration": 0.15517237500000647,
          "durationTicks": 36,
          "midi": 47,
          "name": "B2",
          "ticks": 16848,
          "time": 72.6206715,
          "velocity": 0.7244094488188977
        },
        {
          "duration": 0.20689649999999915,
          "durationTicks": 48,
          "midi": 56,
          "name": "G#3",
          "ticks": 16848,
          "time": 72.6206715,
          "velocity": 0.7874015748031497
        },
        {
          "duration": 0.20689649999999915,
          "durationTicks": 48,
          "midi": 68,
          "name": "G#4",
          "ticks": 16848,
          "time": 72.6206715,
          "velocity": 0.7874015748031497
        },
        {
          "duration": 0.5689653750000048,
          "durationTicks": 132,
          "midi": 49,
          "name": "C#3",
          "ticks": 16896,
          "time": 72.827568,
          "velocity": 0.7244094488188977
        },
        {
          "duration": 0.5689653750000048,
          "durationTicks": 132,
          "midi": 42,
          "name": "F#2",
          "ticks": 16896,
          "time": 72.827568,
          "velocity": 0.7244094488188977
        },
        {
          "duration": 1.2413790000000091,
          "durationTicks": 288,
          "midi": 66,
          "name": "F#4",
          "ticks": 16896,
          "time": 72.827568,
          "velocity": 0.7874015748031497
        },
        {
          "duration": 1.2413790000000091,
          "durationTicks": 288,
          "midi": 54,
          "name": "F#3",
          "ticks": 16896,
          "time": 72.827568,
          "velocity": 0.7874015748031497
        },
        {
          "duration": 0.5689653750000048,
          "durationTicks": 132,
          "midi": 42,
          "name": "F#2",
          "ticks": 17040,
          "time": 73.4482575,
          "velocity": 0.7244094488188977
        },
        {
          "duration": 0.5689653750000048,
          "durationTicks": 132,
          "midi": 49,
          "name": "C#3",
          "ticks": 17040,
          "time": 73.4482575,
          "velocity": 0.7244094488188977
        },
        {
          "duration": 0.15517237499999226,
          "durationTicks": 36,
          "midi": 42,
          "name": "F#2",
          "ticks": 17184,
          "time": 74.06894700000001,
          "velocity": 0.7244094488188977
        },
        {
          "duration": 0.20689649999999915,
          "durationTicks": 48,
          "midi": 68,
          "name": "G#4",
          "ticks": 17184,
          "time": 74.06894700000001,
          "velocity": 0.7874015748031497
        },
        {
          "duration": 0.20689649999999915,
          "durationTicks": 48,
          "midi": 56,
          "name": "G#3",
          "ticks": 17184,
          "time": 74.06894700000001,
          "velocity": 0.7874015748031497
        },
        {
          "duration": 0.15517237499999226,
          "durationTicks": 36,
          "midi": 49,
          "name": "C#3",
          "ticks": 17184,
          "time": 74.06894700000001,
          "velocity": 0.7244094488188977
        },
        {
          "duration": 0.20689649999999915,
          "durationTicks": 48,
          "midi": 66,
          "name": "F#4",
          "ticks": 17232,
          "time": 74.27584350000001,
          "velocity": 0.7874015748031497
        },
        {
          "duration": 0.20689649999999915,
          "durationTicks": 48,
          "midi": 54,
          "name": "F#3",
          "ticks": 17232,
          "time": 74.27584350000001,
          "velocity": 0.7874015748031497
        },
        {
          "duration": 0.15517237499999226,
          "durationTicks": 36,
          "midi": 42,
          "name": "F#2",
          "ticks": 17232,
          "time": 74.27584350000001,
          "velocity": 0.7244094488188977
        },
        {
          "duration": 0.15517237499999226,
          "durationTicks": 36,
          "midi": 49,
          "name": "C#3",
          "ticks": 17232,
          "time": 74.27584350000001,
          "velocity": 0.7244094488188977
        },
        {
          "duration": 0.20689649999999915,
          "durationTicks": 48,
          "midi": 64,
          "name": "E4",
          "ticks": 17280,
          "time": 74.48274,
          "velocity": 0.7874015748031497
        },
        {
          "duration": 0.20689649999999915,
          "durationTicks": 48,
          "midi": 52,
          "name": "E3",
          "ticks": 17280,
          "time": 74.48274,
          "velocity": 0.7874015748031497
        },
        {
          "duration": 0.5689653749999906,
          "durationTicks": 132,
          "midi": 40,
          "name": "E2",
          "ticks": 17280,
          "time": 74.48274,
          "velocity": 0.7244094488188977
        },
        {
          "duration": 0.5689653749999906,
          "durationTicks": 132,
          "midi": 47,
          "name": "B2",
          "ticks": 17280,
          "time": 74.48274,
          "velocity": 0.7244094488188977
        },
        {
          "duration": 0.20689649999999915,
          "durationTicks": 48,
          "midi": 54,
          "name": "F#3",
          "ticks": 17376,
          "time": 74.896533,
          "velocity": 0.7874015748031497
        },
        {
          "duration": 0.20689649999999915,
          "durationTicks": 48,
          "midi": 66,
          "name": "F#4",
          "ticks": 17376,
          "time": 74.896533,
          "velocity": 0.7874015748031497
        },
        {
          "duration": 0.20689649999999915,
          "durationTicks": 48,
          "midi": 64,
          "name": "E4",
          "ticks": 17424,
          "time": 75.1034295,
          "velocity": 0.7874015748031497
        },
        {
          "duration": 0.20689649999999915,
          "durationTicks": 48,
          "midi": 52,
          "name": "E3",
          "ticks": 17424,
          "time": 75.1034295,
          "velocity": 0.7874015748031497
        },
        {
          "duration": 0.5689653750000048,
          "durationTicks": 132,
          "midi": 40,
          "name": "E2",
          "ticks": 17424,
          "time": 75.1034295,
          "velocity": 0.7244094488188977
        },
        {
          "duration": 0.5689653750000048,
          "durationTicks": 132,
          "midi": 47,
          "name": "B2",
          "ticks": 17424,
          "time": 75.1034295,
          "velocity": 0.7244094488188977
        },
        {
          "duration": 0.20689649999999915,
          "durationTicks": 48,
          "midi": 51,
          "name": "D#3",
          "ticks": 17472,
          "time": 75.310326,
          "velocity": 0.7874015748031497
        },
        {
          "duration": 0.20689649999999915,
          "durationTicks": 48,
          "midi": 63,
          "name": "D#4",
          "ticks": 17472,
          "time": 75.310326,
          "velocity": 0.7874015748031497
        },
        {
          "duration": 0.15517237500000647,
          "durationTicks": 36,
          "midi": 40,
          "name": "E2",
          "ticks": 17568,
          "time": 75.724119,
          "velocity": 0.7244094488188977
        },
        {
          "duration": 0.15517237500000647,
          "durationTicks": 36,
          "midi": 47,
          "name": "B2",
          "ticks": 17568,
          "time": 75.724119,
          "velocity": 0.7244094488188977
        },
        {
          "duration": 0.20689649999999915,
          "durationTicks": 48,
          "midi": 64,
          "name": "E4",
          "ticks": 17568,
          "time": 75.724119,
          "velocity": 0.7874015748031497
        },
        {
          "duration": 0.20689649999999915,
          "durationTicks": 48,
          "midi": 52,
          "name": "E3",
          "ticks": 17568,
          "time": 75.724119,
          "velocity": 0.7874015748031497
        },
        {
          "duration": 0.20689649999999915,
          "durationTicks": 48,
          "midi": 63,
          "name": "D#4",
          "ticks": 17616,
          "time": 75.9310155,
          "velocity": 0.7874015748031497
        },
        {
          "duration": 0.20689649999999915,
          "durationTicks": 48,
          "midi": 51,
          "name": "D#3",
          "ticks": 17616,
          "time": 75.9310155,
          "velocity": 0.7874015748031497
        },
        {
          "duration": 0.05172412500000689,
          "durationTicks": 12,
          "midi": 37,
          "name": "C#2",
          "ticks": 17664,
          "time": 76.137912,
          "velocity": 0.6929133858267716
        },
        {
          "duration": 0.05172412500000689,
          "durationTicks": 12,
          "midi": 44,
          "name": "G#2",
          "ticks": 17664,
          "time": 76.137912,
          "velocity": 0.6929133858267716
        },
        {
          "duration": 0.6206894999999975,
          "durationTicks": 144,
          "midi": 61,
          "name": "C#4",
          "ticks": 17664,
          "time": 76.137912,
          "velocity": 0.7874015748031497
        },
        {
          "duration": 1.6551720000000074,
          "durationTicks": 384,
          "midi": 49,
          "name": "C#3",
          "ticks": 17664,
          "time": 76.137912,
          "velocity": 0.7874015748031497
        },
        {
          "duration": 0.05172412500000689,
          "durationTicks": 12,
          "midi": 44,
          "name": "G#2",
          "ticks": 17688,
          "time": 76.24136025,
          "velocity": 0.6929133858267716
        },
        {
          "duration": 0.05172412500000689,
          "durationTicks": 12,
          "midi": 37,
          "name": "C#2",
          "ticks": 17688,
          "time": 76.24136025,
          "velocity": 0.6929133858267716
        },
        {
          "duration": 0.05172412500000689,
          "durationTicks": 12,
          "midi": 44,
          "name": "G#2",
          "ticks": 17712,
          "time": 76.3448085,
          "velocity": 0.6929133858267716
        },
        {
          "duration": 0.05172412500000689,
          "durationTicks": 12,
          "midi": 37,
          "name": "C#2",
          "ticks": 17712,
          "time": 76.3448085,
          "velocity": 0.6929133858267716
        },
        {
          "duration": 0.05172412500000689,
          "durationTicks": 12,
          "midi": 44,
          "name": "G#2",
          "ticks": 17736,
          "time": 76.44825675,
          "velocity": 0.6929133858267716
        },
        {
          "duration": 0.05172412500000689,
          "durationTicks": 12,
          "midi": 37,
          "name": "C#2",
          "ticks": 17736,
          "time": 76.44825675,
          "velocity": 0.6929133858267716
        },
        {
          "duration": 0.05172412500000689,
          "durationTicks": 12,
          "midi": 44,
          "name": "G#2",
          "ticks": 17760,
          "time": 76.551705,
          "velocity": 0.6929133858267716
        },
        {
          "duration": 0.05172412500000689,
          "durationTicks": 12,
          "midi": 37,
          "name": "C#2",
          "ticks": 17760,
          "time": 76.551705,
          "velocity": 0.6929133858267716
        },
        {
          "duration": 0.05172412500000689,
          "durationTicks": 12,
          "midi": 44,
          "name": "G#2",
          "ticks": 17784,
          "time": 76.65515325,
          "velocity": 0.6929133858267716
        },
        {
          "duration": 0.05172412500000689,
          "durationTicks": 12,
          "midi": 37,
          "name": "C#2",
          "ticks": 17784,
          "time": 76.65515325,
          "velocity": 0.6929133858267716
        },
        {
          "duration": 0.05172412500000689,
          "durationTicks": 12,
          "midi": 44,
          "name": "G#2",
          "ticks": 17808,
          "time": 76.7586015,
          "velocity": 0.6929133858267716
        },
        {
          "duration": 0.05172412500000689,
          "durationTicks": 12,
          "midi": 37,
          "name": "C#2",
          "ticks": 17808,
          "time": 76.7586015,
          "velocity": 0.6929133858267716
        },
        {
          "duration": 0.05172412500000689,
          "durationTicks": 12,
          "midi": 44,
          "name": "G#2",
          "ticks": 17832,
          "time": 76.86204975,
          "velocity": 0.6929133858267716
        },
        {
          "duration": 0.05172412500000689,
          "durationTicks": 12,
          "midi": 37,
          "name": "C#2",
          "ticks": 17832,
          "time": 76.86204975,
          "velocity": 0.6929133858267716
        },
        {
          "duration": 0.8275859999999966,
          "durationTicks": 192,
          "midi": 61,
          "name": "C#4",
          "ticks": 17856,
          "time": 76.96549800000001,
          "velocity": 0.7874015748031497
        },
        {
          "duration": 0.8275859999999966,
          "durationTicks": 192,
          "midi": 73,
          "name": "C#5",
          "ticks": 17856,
          "time": 76.96549800000001,
          "velocity": 0.7874015748031497
        },
        {
          "duration": 0.8275859999999966,
          "durationTicks": 192,
          "midi": 68,
          "name": "G#4",
          "ticks": 17856,
          "time": 76.96549800000001,
          "velocity": 0.7874015748031497
        },
        {
          "duration": 0.05172412499999268,
          "durationTicks": 12,
          "midi": 40,
          "name": "E2",
          "ticks": 18048,
          "time": 77.79308400000001,
          "velocity": 0.6929133858267716
        },
        {
          "duration": 0.05172412499999268,
          "durationTicks": 12,
          "midi": 47,
          "name": "B2",
          "ticks": 18048,
          "time": 77.79308400000001,
          "velocity": 0.6929133858267716
        },
        {
          "duration": 1.6551719999999932,
          "durationTicks": 384,
          "midi": 52,
          "name": "E3",
          "ticks": 18048,
          "time": 77.79308400000001,
          "velocity": 0.7874015748031497
        },
        {
          "duration": 0.05172412499999268,
          "durationTicks": 12,
          "midi": 47,
          "name": "B2",
          "ticks": 18072,
          "time": 77.89653225,
          "velocity": 0.6929133858267716
        },
        {
          "duration": 0.05172412499999268,
          "durationTicks": 12,
          "midi": 40,
          "name": "E2",
          "ticks": 18072,
          "time": 77.89653225,
          "velocity": 0.6929133858267716
        },
        {
          "duration": 0.05172412499999268,
          "durationTicks": 12,
          "midi": 47,
          "name": "B2",
          "ticks": 18096,
          "time": 77.9999805,
          "velocity": 0.6929133858267716
        },
        {
          "duration": 0.05172412499999268,
          "durationTicks": 12,
          "midi": 40,
          "name": "E2",
          "ticks": 18096,
          "time": 77.9999805,
          "velocity": 0.6929133858267716
        },
        {
          "duration": 0.05172412499999268,
          "durationTicks": 12,
          "midi": 47,
          "name": "B2",
          "ticks": 18120,
          "time": 78.10342875,
          "velocity": 0.6929133858267716
        },
        {
          "duration": 0.05172412499999268,
          "durationTicks": 12,
          "midi": 40,
          "name": "E2",
          "ticks": 18120,
          "time": 78.10342875,
          "velocity": 0.6929133858267716
        },
        {
          "duration": 0.05172412499999268,
          "durationTicks": 12,
          "midi": 47,
          "name": "B2",
          "ticks": 18144,
          "time": 78.206877,
          "velocity": 0.6929133858267716
        },
        {
          "duration": 0.05172412499999268,
          "durationTicks": 12,
          "midi": 40,
          "name": "E2",
          "ticks": 18144,
          "time": 78.206877,
          "velocity": 0.6929133858267716
        },
        {
          "duration": 0.05172412499999268,
          "durationTicks": 12,
          "midi": 40,
          "name": "E2",
          "ticks": 18168,
          "time": 78.31032525,
          "velocity": 0.6929133858267716
        },
        {
          "duration": 0.05172412499999268,
          "durationTicks": 12,
          "midi": 47,
          "name": "B2",
          "ticks": 18168,
          "time": 78.31032525,
          "velocity": 0.6929133858267716
        },
        {
          "duration": 0.05172412499999268,
          "durationTicks": 12,
          "midi": 40,
          "name": "E2",
          "ticks": 18192,
          "time": 78.4137735,
          "velocity": 0.6929133858267716
        },
        {
          "duration": 0.05172412499999268,
          "durationTicks": 12,
          "midi": 47,
          "name": "B2",
          "ticks": 18192,
          "time": 78.4137735,
          "velocity": 0.6929133858267716
        },
        {
          "duration": 0.05172412499999268,
          "durationTicks": 12,
          "midi": 47,
          "name": "B2",
          "ticks": 18216,
          "time": 78.51722175,
          "velocity": 0.6929133858267716
        },
        {
          "duration": 0.05172412499999268,
          "durationTicks": 12,
          "midi": 40,
          "name": "E2",
          "ticks": 18216,
          "time": 78.51722175,
          "velocity": 0.6929133858267716
        },
        {
          "duration": 0.8275859999999966,
          "durationTicks": 192,
          "midi": 64,
          "name": "E4",
          "ticks": 18240,
          "time": 78.62067,
          "velocity": 0.7874015748031497
        },
        {
          "duration": 0.8275860000000108,
          "durationTicks": 192,
          "midi": 71,
          "name": "B4",
          "ticks": 18246,
          "time": 78.6465320625,
          "velocity": 0.7874015748031497
        },
        {
          "duration": 0.8275859999999966,
          "durationTicks": 192,
          "midi": 76,
          "name": "E5",
          "ticks": 18252,
          "time": 78.67239412500001,
          "velocity": 0.7874015748031497
        },
        {
          "duration": 2.689654500000003,
          "durationTicks": 624,
          "midi": 54,
          "name": "F#3",
          "ticks": 18432,
          "time": 79.448256,
          "velocity": 0.7874015748031497
        },
        {
          "duration": 2.689654500000003,
          "durationTicks": 624,
          "midi": 66,
          "name": "F#4",
          "ticks": 18432,
          "time": 79.448256,
          "velocity": 0.7874015748031497
        },
        {
          "duration": 0.05172412500000689,
          "durationTicks": 12,
          "midi": 42,
          "name": "F#2",
          "ticks": 18432,
          "time": 79.448256,
          "velocity": 0.08661417322834646
        },
        {
          "duration": 0.05172412500000689,
          "durationTicks": 12,
          "midi": 42,
          "name": "F#2",
          "ticks": 18456,
          "time": 79.55170425,
          "velocity": 0.13385826771653545
        },
        {
          "duration": 0.05172412500000689,
          "durationTicks": 12,
          "midi": 42,
          "name": "F#2",
          "ticks": 18480,
          "time": 79.6551525,
          "velocity": 0.16535433070866143
        },
        {
          "duration": 0.05172412500000689,
          "durationTicks": 12,
          "midi": 42,
          "name": "F#2",
          "ticks": 18504,
          "time": 79.75860075,
          "velocity": 0.1889763779527559
        },
        {
          "duration": 0.05172412500000689,
          "durationTicks": 12,
          "midi": 42,
          "name": "F#2",
          "ticks": 18528,
          "time": 79.862049,
          "velocity": 0.2047244094488189
        },
        {
          "duration": 0.05172412500000689,
          "durationTicks": 12,
          "midi": 42,
          "name": "F#2",
          "ticks": 18552,
          "time": 79.96549725,
          "velocity": 0.2204724409448819
        },
        {
          "duration": 0.05172412500000689,
          "durationTicks": 12,
          "midi": 42,
          "name": "F#2",
          "ticks": 18576,
          "time": 80.0689455,
          "velocity": 0.2440944881889764
        },
        {
          "duration": 0.05172412500000689,
          "durationTicks": 12,
          "midi": 42,
          "name": "F#2",
          "ticks": 18600,
          "time": 80.17239375,
          "velocity": 0.25984251968503935
        },
        {
          "duration": 0.05172412500000689,
          "durationTicks": 12,
          "midi": 42,
          "name": "F#2",
          "ticks": 18624,
          "time": 80.275842,
          "velocity": 0.2755905511811024
        },
        {
          "duration": 0.05172412499999268,
          "durationTicks": 12,
          "midi": 42,
          "name": "F#2",
          "ticks": 18648,
          "time": 80.37929025000001,
          "velocity": 0.2992125984251969
        },
        {
          "duration": 0.05172412499999268,
          "durationTicks": 12,
          "midi": 42,
          "name": "F#2",
          "ticks": 18672,
          "time": 80.48273850000001,
          "velocity": 0.31496062992125984
        },
        {
          "duration": 0.05172412499999268,
          "durationTicks": 12,
          "midi": 42,
          "name": "F#2",
          "ticks": 18696,
          "time": 80.58618675000001,
          "velocity": 0.33070866141732286
        },
        {
          "duration": 0.05172412499999268,
          "durationTicks": 12,
          "midi": 42,
          "name": "F#2",
          "ticks": 18720,
          "time": 80.68963500000001,
          "velocity": 0.3543307086614173
        },
        {
          "duration": 0.05172412499999268,
          "durationTicks": 12,
          "midi": 42,
          "name": "F#2",
          "ticks": 18744,
          "time": 80.79308325000001,
          "velocity": 0.3700787401574803
        },
        {
          "duration": 0.05172412499999268,
          "durationTicks": 12,
          "midi": 42,
          "name": "F#2",
          "ticks": 18768,
          "time": 80.89653150000001,
          "velocity": 0.3858267716535433
        },
        {
          "duration": 0.05172412500000689,
          "durationTicks": 12,
          "midi": 88,
          "name": "E6",
          "ticks": 18780,
          "time": 80.948255625,
          "velocity": 0.7874015748031497
        },
        {
          "duration": 0.05172412500000689,
          "durationTicks": 12,
          "midi": 76,
          "name": "E5",
          "ticks": 18780,
          "time": 80.948255625,
          "velocity": 0.7874015748031497
        },
        {
          "duration": 0.05172412499999268,
          "durationTicks": 12,
          "midi": 78,
          "name": "F#5",
          "ticks": 18792,
          "time": 80.99997975000001,
          "velocity": 0.7874015748031497
        },
        {
          "duration": 0.05172412499999268,
          "durationTicks": 12,
          "midi": 90,
          "name": "F#6",
          "ticks": 18792,
          "time": 80.99997975000001,
          "velocity": 0.7874015748031497
        },
        {
          "duration": 0.05172412499999268,
          "durationTicks": 12,
          "midi": 42,
          "name": "F#2",
          "ticks": 18792,
          "time": 80.99997975000001,
          "velocity": 0.4094488188976378
        },
        {
          "duration": 1.706896125,
          "durationTicks": 396,
          "midi": 88,
          "name": "E6",
          "ticks": 18804,
          "time": 81.051703875,
          "velocity": 0.7874015748031497
        },
        {
          "duration": 1.706896125,
          "durationTicks": 396,
          "midi": 76,
          "name": "E5",
          "ticks": 18804,
          "time": 81.051703875,
          "velocity": 0.7874015748031497
        },
        {
          "duration": 0.05172412499999268,
          "durationTicks": 12,
          "midi": 42,
          "name": "F#2",
          "ticks": 18816,
          "time": 81.10342800000001,
          "velocity": 0.4251968503937008
        },
        {
          "duration": 0.05172412499999268,
          "durationTicks": 12,
          "midi": 42,
          "name": "F#2",
          "ticks": 18840,
          "time": 81.20687625000001,
          "velocity": 0.4409448818897638
        },
        {
          "duration": 0.05172412499999268,
          "durationTicks": 12,
          "midi": 42,
          "name": "F#2",
          "ticks": 18864,
          "time": 81.31032450000001,
          "velocity": 0.4645669291338583
        },
        {
          "duration": 0.05172412499999268,
          "durationTicks": 12,
          "midi": 42,
          "name": "F#2",
          "ticks": 18888,
          "time": 81.41377275,
          "velocity": 0.48031496062992124
        },
        {
          "duration": 0.05172412499999268,
          "durationTicks": 12,
          "midi": 42,
          "name": "F#2",
          "ticks": 18912,
          "time": 81.517221,
          "velocity": 0.49606299212598426
        },
        {
          "duration": 0.05172412499999268,
          "durationTicks": 12,
          "midi": 42,
          "name": "F#2",
          "ticks": 18936,
          "time": 81.62066925,
          "velocity": 0.5196850393700787
        },
        {
          "duration": 0.05172412499999268,
          "durationTicks": 12,
          "midi": 42,
          "name": "F#2",
          "ticks": 18960,
          "time": 81.7241175,
          "velocity": 0.5354330708661418
        },
        {
          "duration": 0.05172412499999268,
          "durationTicks": 12,
          "midi": 42,
          "name": "F#2",
          "ticks": 18984,
          "time": 81.82756575,
          "velocity": 0.5511811023622047
        },
        {
          "duration": 0.05172412499999268,
          "durationTicks": 12,
          "midi": 42,
          "name": "F#2",
          "ticks": 19008,
          "time": 81.931014,
          "velocity": 0.5748031496062992
        },
        {
          "duration": 0.05172412500000689,
          "durationTicks": 12,
          "midi": 42,
          "name": "F#2",
          "ticks": 19032,
          "time": 82.03446225,
          "velocity": 0.5905511811023622
        },
        {
          "duration": 0.05172412500000689,
          "durationTicks": 12,
          "midi": 40,
          "name": "E2",
          "ticks": 19104,
          "time": 82.344807,
          "velocity": 0.6456692913385826
        },
        {
          "duration": 0.4137929999999983,
          "durationTicks": 96,
          "midi": 52,
          "name": "E3",
          "ticks": 19104,
          "time": 82.344807,
          "velocity": 0.7874015748031497
        },
        {
          "duration": 0.4137929999999983,
          "durationTicks": 96,
          "midi": 64,
          "name": "E4",
          "ticks": 19104,
          "time": 82.344807,
          "velocity": 0.7874015748031497
        },
        {
          "duration": 0.05172412500000689,
          "durationTicks": 12,
          "midi": 40,
          "name": "E2",
          "ticks": 19128,
          "time": 82.44825525,
          "velocity": 0.6614173228346457
        },
        {
          "duration": 0.05172412500000689,
          "durationTicks": 12,
          "midi": 40,
          "name": "E2",
          "ticks": 19152,
          "time": 82.5517035,
          "velocity": 0.6850393700787402
        },
        {
          "duration": 0.05172412500000689,
          "durationTicks": 12,
          "midi": 40,
          "name": "E2",
          "ticks": 19176,
          "time": 82.65515175,
          "velocity": 0.7007874015748031
        },
        {
          "duration": 0.8793101250000035,
          "durationTicks": 204,
          "midi": 49,
          "name": "C#3",
          "ticks": 19200,
          "time": 82.7586,
          "velocity": 0.7874015748031497
        },
        {
          "duration": 0.3103447499999987,
          "durationTicks": 72,
          "midi": 73,
          "name": "C#5",
          "ticks": 19200,
          "time": 82.7586,
          "velocity": 0.7874015748031497
        },
        {
          "duration": 0.3103447499999987,
          "durationTicks": 72,
          "midi": 85,
          "name": "C#6",
          "ticks": 19200,
          "time": 82.7586,
          "velocity": 0.7874015748031497
        },
        {
          "duration": 1.2413790000000091,
          "durationTicks": 288,
          "midi": 61,
          "name": "C#4",
          "ticks": 19200,
          "time": 82.7586,
          "velocity": 0.7874015748031497
        },
        {
          "duration": 1.3448272500000087,
          "durationTicks": 312,
          "midi": 85,
          "name": "C#6",
          "ticks": 19272,
          "time": 83.06894475,
          "velocity": 0.7874015748031497
        },
        {
          "duration": 1.3448272500000087,
          "durationTicks": 312,
          "midi": 73,
          "name": "C#5",
          "ticks": 19272,
          "time": 83.06894475,
          "velocity": 0.7874015748031497
        },
        {
          "duration": 0.10344824999999958,
          "durationTicks": 24,
          "midi": 49,
          "name": "C#3",
          "ticks": 19392,
          "time": 83.586186,
          "velocity": 0.1968503937007874
        },
        {
          "duration": 0.10344824999999958,
          "durationTicks": 24,
          "midi": 49,
          "name": "C#3",
          "ticks": 19404,
          "time": 83.637910125,
          "velocity": 0.2283464566929134
        },
        {
          "duration": 0.10344825000001379,
          "durationTicks": 24,
          "midi": 49,
          "name": "C#3",
          "ticks": 19416,
          "time": 83.68963425,
          "velocity": 0.2677165354330709
        },
        {
          "duration": 0.10344824999999958,
          "durationTicks": 24,
          "midi": 49,
          "name": "C#3",
          "ticks": 19428,
          "time": 83.741358375,
          "velocity": 0.30708661417322836
        },
        {
          "duration": 0.10344824999999958,
          "durationTicks": 24,
          "midi": 49,
          "name": "C#3",
          "ticks": 19440,
          "time": 83.79308250000001,
          "velocity": 0.33858267716535434
        },
        {
          "duration": 0.10344824999999958,
          "durationTicks": 24,
          "midi": 49,
          "name": "C#3",
          "ticks": 19452,
          "time": 83.844806625,
          "velocity": 0.3779527559055118
        },
        {
          "duration": 0.10344824999999958,
          "durationTicks": 24,
          "midi": 49,
          "name": "C#3",
          "ticks": 19464,
          "time": 83.89653075000001,
          "velocity": 0.4094488188976378
        },
        {
          "duration": 0.05172412500000689,
          "durationTicks": 12,
          "midi": 49,
          "name": "C#3",
          "ticks": 19476,
          "time": 83.948254875,
          "velocity": 0.44881889763779526
        },
        {
          "duration": 0.05172412499999268,
          "durationTicks": 12,
          "midi": 49,
          "name": "C#3",
          "ticks": 19488,
          "time": 83.99997900000001,
          "velocity": 0.4881889763779528
        },
        {
          "duration": 0.05172412500000689,
          "durationTicks": 12,
          "midi": 49,
          "name": "C#3",
          "ticks": 19500,
          "time": 84.051703125,
          "velocity": 0.5196850393700787
        },
        {
          "duration": 0.05172412499999268,
          "durationTicks": 12,
          "midi": 49,
          "name": "C#3",
          "ticks": 19512,
          "time": 84.10342725000001,
          "velocity": 0.5590551181102362
        },
        {
          "duration": 0.05172412500000689,
          "durationTicks": 12,
          "midi": 49,
          "name": "C#3",
          "ticks": 19524,
          "time": 84.155151375,
          "velocity": 0.5905511811023622
        },
        {
          "duration": 0.05172412499999268,
          "durationTicks": 12,
          "midi": 49,
          "name": "C#3",
          "ticks": 19536,
          "time": 84.20687550000001,
          "velocity": 0.6299212598425197
        },
        {
          "duration": 0.05172412500000689,
          "durationTicks": 12,
          "midi": 49,
          "name": "C#3",
          "ticks": 19548,
          "time": 84.258599625,
          "velocity": 0.6692913385826772
        },
        {
          "duration": 0.05172412499999268,
          "durationTicks": 12,
          "midi": 49,
          "name": "C#3",
          "ticks": 19560,
          "time": 84.31032375000001,
          "velocity": 0.7007874015748031
        },
        {
          "duration": 0.05172412500000689,
          "durationTicks": 12,
          "midi": 49,
          "name": "C#3",
          "ticks": 19572,
          "time": 84.362047875,
          "velocity": 0.7401574803149606
        },
        {
          "duration": 0.33620681249999507,
          "durationTicks": 78,
          "midi": 44,
          "name": "G#2",
          "ticks": 19584,
          "time": 84.41377200000001,
          "velocity": 0.7165354330708661
        },
        {
          "duration": 0.05172412499999268,
          "durationTicks": 12,
          "midi": 61,
          "name": "C#4",
          "ticks": 19584,
          "time": 84.41377200000001,
          "velocity": 0.7874015748031497
        },
        {
          "duration": 0.33620681249999507,
          "durationTicks": 78,
          "midi": 37,
          "name": "C#2",
          "ticks": 19584,
          "time": 84.41377200000001,
          "velocity": 0.7165354330708661
        },
        {
          "duration": 0.9568963124999925,
          "durationTicks": 222,
          "midi": 37,
          "name": "C#2",
          "ticks": 19584,
          "time": 84.41377200000001,
          "velocity": 0.7874015748031497
        },
        {
          "duration": 0.05172412499999268,
          "durationTicks": 12,
          "midi": 49,
          "name": "C#3",
          "ticks": 19584,
          "time": 84.41377200000001,
          "velocity": 0.7874015748031497
        },
        {
          "duration": 0.05172412499999268,
          "durationTicks": 12,
          "midi": 61,
          "name": "C#4",
          "ticks": 19608,
          "time": 84.51722025000001,
          "velocity": 0.7874015748031497
        },
        {
          "duration": 0.05172412499999268,
          "durationTicks": 12,
          "midi": 49,
          "name": "C#3",
          "ticks": 19608,
          "time": 84.51722025000001,
          "velocity": 0.7874015748031497
        },
        {
          "duration": 0.05172412499999268,
          "durationTicks": 12,
          "midi": 61,
          "name": "C#4",
          "ticks": 19632,
          "time": 84.62066850000001,
          "velocity": 0.7874015748031497
        },
        {
          "duration": 0.05172412499999268,
          "durationTicks": 12,
          "midi": 49,
          "name": "C#3",
          "ticks": 19632,
          "time": 84.62066850000001,
          "velocity": 0.7874015748031497
        },
        {
          "duration": 0.05172412499999268,
          "durationTicks": 12,
          "midi": 61,
          "name": "C#4",
          "ticks": 19656,
          "time": 84.72411675000001,
          "velocity": 0.7874015748031497
        },
        {
          "duration": 0.05172412499999268,
          "durationTicks": 12,
          "midi": 49,
          "name": "C#3",
          "ticks": 19656,
          "time": 84.72411675000001,
          "velocity": 0.7874015748031497
        },
        {
          "duration": 0.05172412499999268,
          "durationTicks": 12,
          "midi": 61,
          "name": "C#4",
          "ticks": 19680,
          "time": 84.827565,
          "velocity": 0.7874015748031497
        },
        {
          "duration": 0.05172412499999268,
          "durationTicks": 12,
          "midi": 49,
          "name": "C#3",
          "ticks": 19680,
          "time": 84.827565,
          "velocity": 0.7874015748031497
        },
        {
          "duration": 0.05172412499999268,
          "durationTicks": 12,
          "midi": 61,
          "name": "C#4",
          "ticks": 19704,
          "time": 84.93101325,
          "velocity": 0.7874015748031497
        },
        {
          "duration": 0.05172412499999268,
          "durationTicks": 12,
          "midi": 49,
          "name": "C#3",
          "ticks": 19704,
          "time": 84.93101325,
          "velocity": 0.7874015748031497
        },
        {
          "duration": 0.05172412499999268,
          "durationTicks": 12,
          "midi": 49,
          "name": "C#3",
          "ticks": 19728,
          "time": 85.0344615,
          "velocity": 0.7874015748031497
        },
        {
          "duration": 0.05172412499999268,
          "durationTicks": 12,
          "midi": 61,
          "name": "C#4",
          "ticks": 19728,
          "time": 85.0344615,
          "velocity": 0.7874015748031497
        },
        {
          "duration": 0.6206894999999975,
          "durationTicks": 144,
          "midi": 37,
          "name": "C#2",
          "ticks": 19728,
          "time": 85.0344615,
          "velocity": 0.7165354330708661
        },
        {
          "duration": 0.33620681249999507,
          "durationTicks": 78,
          "midi": 44,
          "name": "G#2",
          "ticks": 19728,
          "time": 85.0344615,
          "velocity": 0.7165354330708661
        },
        {
          "duration": 0.05172412499999268,
          "durationTicks": 12,
          "midi": 49,
          "name": "C#3",
          "ticks": 19752,
          "time": 85.13790975,
          "velocity": 0.7874015748031497
        },
        {
          "duration": 0.05172412499999268,
          "durationTicks": 12,
          "midi": 61,
          "name": "C#4",
          "ticks": 19752,
          "time": 85.13790975,
          "velocity": 0.7874015748031497
        },
        {
          "duration": 0.10344824999999958,
          "durationTicks": 24,
          "midi": 52,
          "name": "E3",
          "ticks": 19776,
          "time": 85.241358,
          "velocity": 0.7874015748031497
        },
        {
          "duration": 0.10344824999999958,
          "durationTicks": 24,
          "midi": 64,
          "name": "E4",
          "ticks": 19776,
          "time": 85.241358,
          "velocity": 0.7874015748031497
        },
        {
          "duration": 0.10344824999999958,
          "durationTicks": 24,
          "midi": 51,
          "name": "D#3",
          "ticks": 19800,
          "time": 85.34480625,
          "velocity": 0.7874015748031497
        },
        {
          "duration": 0.10344824999999958,
          "durationTicks": 24,
          "midi": 63,
          "name": "D#4",
          "ticks": 19800,
          "time": 85.34480625,
          "velocity": 0.7874015748031497
        },
        {
          "duration": 0.10344824999999958,
          "durationTicks": 24,
          "midi": 49,
          "name": "C#3",
          "ticks": 19824,
          "time": 85.4482545,
          "velocity": 0.7874015748031497
        },
        {
          "duration": 0.10344824999999958,
          "durationTicks": 24,
          "midi": 61,
          "name": "C#4",
          "ticks": 19824,
          "time": 85.4482545,
          "velocity": 0.7874015748031497
        },
        {
          "duration": 0.05172412500000689,
          "durationTicks": 12,
          "midi": 49,
          "name": "C#3",
          "ticks": 19848,
          "time": 85.55170275,
          "velocity": 0.7874015748031497
        },
        {
          "duration": 0.05172412500000689,
          "durationTicks": 12,
          "midi": 61,
          "name": "C#4",
          "ticks": 19848,
          "time": 85.55170275,
          "velocity": 0.7874015748031497
        },
        {
          "duration": 0.05172412500000689,
          "durationTicks": 12,
          "midi": 49,
          "name": "C#3",
          "ticks": 19872,
          "time": 85.655151,
          "velocity": 0.7874015748031497
        },
        {
          "duration": 0.33620681249999507,
          "durationTicks": 78,
          "midi": 37,
          "name": "C#2",
          "ticks": 19872,
          "time": 85.655151,
          "velocity": 0.7165354330708661
        },
        {
          "duration": 0.05172412500000689,
          "durationTicks": 12,
          "midi": 61,
          "name": "C#4",
          "ticks": 19872,
          "time": 85.655151,
          "velocity": 0.7874015748031497
        },
        {
          "duration": 0.33620681249999507,
          "durationTicks": 78,
          "midi": 44,
          "name": "G#2",
          "ticks": 19872,
          "time": 85.655151,
          "velocity": 0.7165354330708661
        },
        {
          "duration": 0.05172412500000689,
          "durationTicks": 12,
          "midi": 49,
          "name": "C#3",
          "ticks": 19896,
          "time": 85.75859925,
          "velocity": 0.7874015748031497
        },
        {
          "duration": 0.05172412500000689,
          "durationTicks": 12,
          "midi": 61,
          "name": "C#4",
          "ticks": 19896,
          "time": 85.75859925,
          "velocity": 0.7874015748031497
        },
        {
          "duration": 0.05172412500000689,
          "durationTicks": 12,
          "midi": 49,
          "name": "C#3",
          "ticks": 19920,
          "time": 85.8620475,
          "velocity": 0.7874015748031497
        },
        {
          "duration": 0.05172412500000689,
          "durationTicks": 12,
          "midi": 61,
          "name": "C#4",
          "ticks": 19920,
          "time": 85.8620475,
          "velocity": 0.7874015748031497
        },
        {
          "duration": 0.05172412500000689,
          "durationTicks": 12,
          "midi": 49,
          "name": "C#3",
          "ticks": 19944,
          "time": 85.96549575,
          "velocity": 0.7874015748031497
        },
        {
          "duration": 0.05172412500000689,
          "durationTicks": 12,
          "midi": 61,
          "name": "C#4",
          "ticks": 19944,
          "time": 85.96549575,
          "velocity": 0.7874015748031497
        },
        {
          "duration": 0.05172412500000689,
          "durationTicks": 12,
          "midi": 49,
          "name": "C#3",
          "ticks": 19968,
          "time": 86.068944,
          "velocity": 0.7874015748031497
        },
        {
          "duration": 0.3362068125000093,
          "durationTicks": 78,
          "midi": 37,
          "name": "C#2",
          "ticks": 19968,
          "time": 86.068944,
          "velocity": 0.7874015748031497
        },
        {
          "duration": 0.9568963125000067,
          "durationTicks": 222,
          "midi": 37,
          "name": "C#2",
          "ticks": 19968,
          "time": 86.068944,
          "velocity": 0.7165354330708661
        },
        {
          "duration": 0.05172412500000689,
          "durationTicks": 12,
          "midi": 61,
          "name": "C#4",
          "ticks": 19968,
          "time": 86.068944,
          "velocity": 0.7874015748031497
        },
        {
          "duration": 0.3362068125000093,
          "durationTicks": 78,
          "midi": 44,
          "name": "G#2",
          "ticks": 19968,
          "time": 86.068944,
          "velocity": 0.7165354330708661
        },
        {
          "duration": 0.05172412500000689,
          "durationTicks": 12,
          "midi": 49,
          "name": "C#3",
          "ticks": 19992,
          "time": 86.17239225,
          "velocity": 0.7874015748031497
        },
        {
          "duration": 0.05172412500000689,
          "durationTicks": 12,
          "midi": 61,
          "name": "C#4",
          "ticks": 19992,
          "time": 86.17239225,
          "velocity": 0.7874015748031497
        },
        {
          "duration": 0.10344824999999958,
          "durationTicks": 24,
          "midi": 52,
          "name": "E3",
          "ticks": 20016,
          "time": 86.2758405,
          "velocity": 0.7874015748031497
        },
        {
          "duration": 0.10344824999999958,
          "durationTicks": 24,
          "midi": 64,
          "name": "E4",
          "ticks": 20016,
          "time": 86.2758405,
          "velocity": 0.7874015748031497
        },
        {
          "duration": 0.10344824999999958,
          "durationTicks": 24,
          "midi": 51,
          "name": "D#3",
          "ticks": 20040,
          "time": 86.37928875,
          "velocity": 0.7874015748031497
        },
        {
          "duration": 0.10344824999999958,
          "durationTicks": 24,
          "midi": 63,
          "name": "D#4",
          "ticks": 20040,
          "time": 86.37928875,
          "velocity": 0.7874015748031497
        },
        {
          "duration": 0.05172412500000689,
          "durationTicks": 12,
          "midi": 49,
          "name": "C#3",
          "ticks": 20064,
          "time": 86.482737,
          "velocity": 0.7874015748031497
        },
        {
          "duration": 0.05172412500000689,
          "durationTicks": 12,
          "midi": 61,
          "name": "C#4",
          "ticks": 20064,
          "time": 86.482737,
          "velocity": 0.7874015748031497
        },
        {
          "duration": 0.05172412500000689,
          "durationTicks": 12,
          "midi": 49,
          "name": "C#3",
          "ticks": 20088,
          "time": 86.58618525,
          "velocity": 0.7874015748031497
        },
        {
          "duration": 0.05172412500000689,
          "durationTicks": 12,
          "midi": 61,
          "name": "C#4",
          "ticks": 20088,
          "time": 86.58618525,
          "velocity": 0.7874015748031497
        },
        {
          "duration": 0.3362068125000093,
          "durationTicks": 78,
          "midi": 44,
          "name": "G#2",
          "ticks": 20112,
          "time": 86.6896335,
          "velocity": 0.7165354330708661
        },
        {
          "duration": 0.6206895000000117,
          "durationTicks": 144,
          "midi": 37,
          "name": "C#2",
          "ticks": 20112,
          "time": 86.6896335,
          "velocity": 0.7165354330708661
        },
        {
          "duration": 0.05172412500000689,
          "durationTicks": 12,
          "midi": 61,
          "name": "C#4",
          "ticks": 20112,
          "time": 86.6896335,
          "velocity": 0.7874015748031497
        },
        {
          "duration": 0.05172412500000689,
          "durationTicks": 12,
          "midi": 49,
          "name": "C#3",
          "ticks": 20112,
          "time": 86.6896335,
          "velocity": 0.7874015748031497
        },
        {
          "duration": 0.05172412500000689,
          "durationTicks": 12,
          "midi": 61,
          "name": "C#4",
          "ticks": 20136,
          "time": 86.79308175,
          "velocity": 0.7874015748031497
        },
        {
          "duration": 0.05172412500000689,
          "durationTicks": 12,
          "midi": 49,
          "name": "C#3",
          "ticks": 20136,
          "time": 86.79308175,
          "velocity": 0.7874015748031497
        },
        {
          "duration": 0.05172412500000689,
          "durationTicks": 12,
          "midi": 61,
          "name": "C#4",
          "ticks": 20160,
          "time": 86.89653,
          "velocity": 0.7874015748031497
        },
        {
          "duration": 0.05172412500000689,
          "durationTicks": 12,
          "midi": 49,
          "name": "C#3",
          "ticks": 20160,
          "time": 86.89653,
          "velocity": 0.7874015748031497
        },
        {
          "duration": 0.05172412500000689,
          "durationTicks": 12,
          "midi": 61,
          "name": "C#4",
          "ticks": 20184,
          "time": 86.99997825,
          "velocity": 0.7874015748031497
        },
        {
          "duration": 0.05172412500000689,
          "durationTicks": 12,
          "midi": 49,
          "name": "C#3",
          "ticks": 20184,
          "time": 86.99997825,
          "velocity": 0.7874015748031497
        },
        {
          "duration": 0.05172412500000689,
          "durationTicks": 12,
          "midi": 61,
          "name": "C#4",
          "ticks": 20208,
          "time": 87.1034265,
          "velocity": 0.7874015748031497
        },
        {
          "duration": 0.05172412500000689,
          "durationTicks": 12,
          "midi": 49,
          "name": "C#3",
          "ticks": 20208,
          "time": 87.1034265,
          "velocity": 0.7874015748031497
        },
        {
          "duration": 0.05172412499999268,
          "durationTicks": 12,
          "midi": 49,
          "name": "C#3",
          "ticks": 20232,
          "time": 87.20687475000001,
          "velocity": 0.7874015748031497
        },
        {
          "duration": 0.05172412499999268,
          "durationTicks": 12,
          "midi": 61,
          "name": "C#4",
          "ticks": 20232,
          "time": 87.20687475000001,
          "velocity": 0.7874015748031497
        },
        {
          "duration": 0.10344824999999958,
          "durationTicks": 24,
          "midi": 56,
          "name": "G#3",
          "ticks": 20256,
          "time": 87.31032300000001,
          "velocity": 0.7874015748031497
        },
        {
          "duration": 0.33620681249999507,
          "durationTicks": 78,
          "midi": 37,
          "name": "C#2",
          "ticks": 20256,
          "time": 87.31032300000001,
          "velocity": 0.7165354330708661
        },
        {
          "duration": 0.10344824999999958,
          "durationTicks": 24,
          "midi": 68,
          "name": "G#4",
          "ticks": 20256,
          "time": 87.31032300000001,
          "velocity": 0.7874015748031497
        },
        {
          "duration": 0.33620681249999507,
          "durationTicks": 78,
          "midi": 44,
          "name": "G#2",
          "ticks": 20256,
          "time": 87.31032300000001,
          "velocity": 0.7165354330708661
        },
        {
          "duration": 0.10344824999999958,
          "durationTicks": 24,
          "midi": 54,
          "name": "F#3",
          "ticks": 20280,
          "time": 87.41377125000001,
          "velocity": 0.7874015748031497
        },
        {
          "duration": 0.10344824999999958,
          "durationTicks": 24,
          "midi": 66,
          "name": "F#4",
          "ticks": 20280,
          "time": 87.41377125000001,
          "velocity": 0.7874015748031497
        },
        {
          "duration": 0.10344824999999958,
          "durationTicks": 24,
          "midi": 52,
          "name": "E3",
          "ticks": 20304,
          "time": 87.51721950000001,
          "velocity": 0.7874015748031497
        },
        {
          "duration": 0.10344824999999958,
          "durationTicks": 24,
          "midi": 64,
          "name": "E4",
          "ticks": 20304,
          "time": 87.51721950000001,
          "velocity": 0.7874015748031497
        },
        {
          "duration": 0.10344824999999958,
          "durationTicks": 24,
          "midi": 51,
          "name": "D#3",
          "ticks": 20328,
          "time": 87.62066775000001,
          "velocity": 0.7874015748031497
        },
        {
          "duration": 0.10344824999999958,
          "durationTicks": 24,
          "midi": 63,
          "name": "D#4",
          "ticks": 20328,
          "time": 87.62066775000001,
          "velocity": 0.7874015748031497
        },
        {
          "duration": 0.05172412499999268,
          "durationTicks": 12,
          "midi": 49,
          "name": "C#3",
          "ticks": 20352,
          "time": 87.72411600000001,
          "velocity": 0.7874015748031497
        },
        {
          "duration": 0.33620681249999507,
          "durationTicks": 78,
          "midi": 37,
          "name": "C#2",
          "ticks": 20352,
          "time": 87.72411600000001,
          "velocity": 0.7874015748031497
        },
        {
          "duration": 0.9568963124999925,
          "durationTicks": 222,
          "midi": 37,
          "name": "C#2",
          "ticks": 20352,
          "time": 87.72411600000001,
          "velocity": 0.7165354330708661
        },
        {
          "duration": 0.05172412499999268,
          "durationTicks": 12,
          "midi": 61,
          "name": "C#4",
          "ticks": 20352,
          "time": 87.72411600000001,
          "velocity": 0.7874015748031497
        },
        {
          "duration": 0.33620681249999507,
          "durationTicks": 78,
          "midi": 44,
          "name": "G#2",
          "ticks": 20352,
          "time": 87.72411600000001,
          "velocity": 0.7165354330708661
        },
        {
          "duration": 0.05172412499999268,
          "durationTicks": 12,
          "midi": 49,
          "name": "C#3",
          "ticks": 20376,
          "time": 87.82756425000001,
          "velocity": 0.7874015748031497
        },
        {
          "duration": 0.05172412499999268,
          "durationTicks": 12,
          "midi": 61,
          "name": "C#4",
          "ticks": 20376,
          "time": 87.82756425000001,
          "velocity": 0.7874015748031497
        },
        {
          "duration": 0.05172412499999268,
          "durationTicks": 12,
          "midi": 49,
          "name": "C#3",
          "ticks": 20400,
          "time": 87.93101250000001,
          "velocity": 0.7874015748031497
        },
        {
          "duration": 0.05172412499999268,
          "durationTicks": 12,
          "midi": 61,
          "name": "C#4",
          "ticks": 20400,
          "time": 87.93101250000001,
          "velocity": 0.7874015748031497
        },
        {
          "duration": 0.05172412499999268,
          "durationTicks": 12,
          "midi": 49,
          "name": "C#3",
          "ticks": 20424,
          "time": 88.03446075000001,
          "velocity": 0.7874015748031497
        },
        {
          "duration": 0.05172412499999268,
          "durationTicks": 12,
          "midi": 61,
          "name": "C#4",
          "ticks": 20424,
          "time": 88.03446075000001,
          "velocity": 0.7874015748031497
        },
        {
          "duration": 0.10344824999999958,
          "durationTicks": 24,
          "midi": 52,
          "name": "E3",
          "ticks": 20448,
          "time": 88.13790900000001,
          "velocity": 0.7874015748031497
        },
        {
          "duration": 0.10344824999999958,
          "durationTicks": 24,
          "midi": 64,
          "name": "E4",
          "ticks": 20448,
          "time": 88.13790900000001,
          "velocity": 0.7874015748031497
        },
        {
          "duration": 0.10344824999999958,
          "durationTicks": 24,
          "midi": 51,
          "name": "D#3",
          "ticks": 20472,
          "time": 88.24135725000001,
          "velocity": 0.7874015748031497
        },
        {
          "duration": 0.10344824999999958,
          "durationTicks": 24,
          "midi": 63,
          "name": "D#4",
          "ticks": 20472,
          "time": 88.24135725000001,
          "velocity": 0.7874015748031497
        },
        {
          "duration": 0.20689649999999915,
          "durationTicks": 48,
          "midi": 49,
          "name": "C#3",
          "ticks": 20496,
          "time": 88.3448055,
          "velocity": 0.7874015748031497
        },
        {
          "duration": 0.20689649999999915,
          "durationTicks": 48,
          "midi": 61,
          "name": "C#4",
          "ticks": 20496,
          "time": 88.3448055,
          "velocity": 0.7874015748031497
        },
        {
          "duration": 0.6206894999999975,
          "durationTicks": 144,
          "midi": 37,
          "name": "C#2",
          "ticks": 20496,
          "time": 88.3448055,
          "velocity": 0.7165354330708661
        },
        {
          "duration": 0.33620681249999507,
          "durationTicks": 78,
          "midi": 44,
          "name": "G#2",
          "ticks": 20496,
          "time": 88.3448055,
          "velocity": 0.7165354330708661
        },
        {
          "duration": 0.10344824999999958,
          "durationTicks": 24,
          "midi": 52,
          "name": "E3",
          "ticks": 20544,
          "time": 88.551702,
          "velocity": 0.7874015748031497
        },
        {
          "duration": 0.10344824999999958,
          "durationTicks": 24,
          "midi": 64,
          "name": "E4",
          "ticks": 20544,
          "time": 88.551702,
          "velocity": 0.7874015748031497
        },
        {
          "duration": 0.10344824999999958,
          "durationTicks": 24,
          "midi": 51,
          "name": "D#3",
          "ticks": 20568,
          "time": 88.65515025,
          "velocity": 0.7874015748031497
        },
        {
          "duration": 0.10344824999999958,
          "durationTicks": 24,
          "midi": 63,
          "name": "D#4",
          "ticks": 20568,
          "time": 88.65515025,
          "velocity": 0.7874015748031497
        },
        {
          "duration": 0.20689649999999915,
          "durationTicks": 48,
          "midi": 49,
          "name": "C#3",
          "ticks": 20592,
          "time": 88.7585985,
          "velocity": 0.7874015748031497
        },
        {
          "duration": 0.20689649999999915,
          "durationTicks": 48,
          "midi": 61,
          "name": "C#4",
          "ticks": 20592,
          "time": 88.7585985,
          "velocity": 0.7874015748031497
        },
        {
          "duration": 0.05172412500000689,
          "durationTicks": 12,
          "midi": 49,
          "name": "C#3",
          "ticks": 20640,
          "time": 88.965495,
          "velocity": 0.7874015748031497
        },
        {
          "duration": 0.33620681249999507,
          "durationTicks": 78,
          "midi": 37,
          "name": "C#2",
          "ticks": 20640,
          "time": 88.965495,
          "velocity": 0.7165354330708661
        },
        {
          "duration": 0.05172412500000689,
          "durationTicks": 12,
          "midi": 61,
          "name": "C#4",
          "ticks": 20640,
          "time": 88.965495,
          "velocity": 0.7874015748031497
        },
        {
          "duration": 0.33620681249999507,
          "durationTicks": 78,
          "midi": 44,
          "name": "G#2",
          "ticks": 20640,
          "time": 88.965495,
          "velocity": 0.7165354330708661
        },
        {
          "duration": 0.05172412500000689,
          "durationTicks": 12,
          "midi": 49,
          "name": "C#3",
          "ticks": 20664,
          "time": 89.06894325,
          "velocity": 0.7874015748031497
        },
        {
          "duration": 0.05172412500000689,
          "durationTicks": 12,
          "midi": 61,
          "name": "C#4",
          "ticks": 20664,
          "time": 89.06894325,
          "velocity": 0.7874015748031497
        },
        {
          "duration": 0.05172412500000689,
          "durationTicks": 12,
          "midi": 49,
          "name": "C#3",
          "ticks": 20688,
          "time": 89.1723915,
          "velocity": 0.7874015748031497
        },
        {
          "duration": 0.05172412500000689,
          "durationTicks": 12,
          "midi": 61,
          "name": "C#4",
          "ticks": 20688,
          "time": 89.1723915,
          "velocity": 0.7874015748031497
        },
        {
          "duration": 0.05172412500000689,
          "durationTicks": 12,
          "midi": 49,
          "name": "C#3",
          "ticks": 20712,
          "time": 89.27583975,
          "velocity": 0.7874015748031497
        },
        {
          "duration": 0.05172412500000689,
          "durationTicks": 12,
          "midi": 61,
          "name": "C#4",
          "ticks": 20712,
          "time": 89.27583975,
          "velocity": 0.7874015748031497
        },
        {
          "duration": 0.05172412500000689,
          "durationTicks": 12,
          "midi": 49,
          "name": "C#3",
          "ticks": 20736,
          "time": 89.379288,
          "velocity": 0.7874015748031497
        },
        {
          "duration": 0.3362068125000093,
          "durationTicks": 78,
          "midi": 37,
          "name": "C#2",
          "ticks": 20736,
          "time": 89.379288,
          "velocity": 0.7874015748031497
        },
        {
          "duration": 0.9568963125000067,
          "durationTicks": 222,
          "midi": 37,
          "name": "C#2",
          "ticks": 20736,
          "time": 89.379288,
          "velocity": 0.7165354330708661
        },
        {
          "duration": 0.05172412500000689,
          "durationTicks": 12,
          "midi": 61,
          "name": "C#4",
          "ticks": 20736,
          "time": 89.379288,
          "velocity": 0.7874015748031497
        },
        {
          "duration": 0.3362068125000093,
          "durationTicks": 78,
          "midi": 44,
          "name": "G#2",
          "ticks": 20736,
          "time": 89.379288,
          "velocity": 0.7165354330708661
        },
        {
          "duration": 0.05172412500000689,
          "durationTicks": 12,
          "midi": 49,
          "name": "C#3",
          "ticks": 20760,
          "time": 89.48273625,
          "velocity": 0.7874015748031497
        },
        {
          "duration": 0.05172412500000689,
          "durationTicks": 12,
          "midi": 61,
          "name": "C#4",
          "ticks": 20760,
          "time": 89.48273625,
          "velocity": 0.7874015748031497
        },
        {
          "duration": 0.10344824999999958,
          "durationTicks": 24,
          "midi": 52,
          "name": "E3",
          "ticks": 20784,
          "time": 89.5861845,
          "velocity": 0.7874015748031497
        },
        {
          "duration": 0.10344824999999958,
          "durationTicks": 24,
          "midi": 64,
          "name": "E4",
          "ticks": 20784,
          "time": 89.5861845,
          "velocity": 0.7874015748031497
        },
        {
          "duration": 0.10344824999999958,
          "durationTicks": 24,
          "midi": 51,
          "name": "D#3",
          "ticks": 20808,
          "time": 89.68963275,
          "velocity": 0.7874015748031497
        },
        {
          "duration": 0.10344824999999958,
          "durationTicks": 24,
          "midi": 63,
          "name": "D#4",
          "ticks": 20808,
          "time": 89.68963275,
          "velocity": 0.7874015748031497
        },
        {
          "duration": 0.20689649999999915,
          "durationTicks": 48,
          "midi": 49,
          "name": "C#3",
          "ticks": 20832,
          "time": 89.793081,
          "velocity": 0.7874015748031497
        },
        {
          "duration": 0.20689649999999915,
          "durationTicks": 48,
          "midi": 61,
          "name": "C#4",
          "ticks": 20832,
          "time": 89.793081,
          "velocity": 0.7874015748031497
        },
        {
          "duration": 0.10344824999999958,
          "durationTicks": 24,
          "midi": 52,
          "name": "E3",
          "ticks": 20880,
          "time": 89.9999775,
          "velocity": 0.7874015748031497
        },
        {
          "duration": 0.10344824999999958,
          "durationTicks": 24,
          "midi": 64,
          "name": "E4",
          "ticks": 20880,
          "time": 89.9999775,
          "velocity": 0.7874015748031497
        },
        {
          "duration": 0.6206895000000117,
          "durationTicks": 144,
          "midi": 37,
          "name": "C#2",
          "ticks": 20880,
          "time": 89.9999775,
          "velocity": 0.7165354330708661
        },
        {
          "duration": 0.3362068125000093,
          "durationTicks": 78,
          "midi": 44,
          "name": "G#2",
          "ticks": 20880,
          "time": 89.9999775,
          "velocity": 0.7165354330708661
        },
        {
          "duration": 0.10344824999999958,
          "durationTicks": 24,
          "midi": 51,
          "name": "D#3",
          "ticks": 20904,
          "time": 90.10342575,
          "velocity": 0.7874015748031497
        },
        {
          "duration": 0.10344824999999958,
          "durationTicks": 24,
          "midi": 63,
          "name": "D#4",
          "ticks": 20904,
          "time": 90.10342575,
          "velocity": 0.7874015748031497
        },
        {
          "duration": 0.20689649999999915,
          "durationTicks": 48,
          "midi": 49,
          "name": "C#3",
          "ticks": 20928,
          "time": 90.206874,
          "velocity": 0.7874015748031497
        },
        {
          "duration": 0.20689649999999915,
          "durationTicks": 48,
          "midi": 61,
          "name": "C#4",
          "ticks": 20928,
          "time": 90.206874,
          "velocity": 0.7874015748031497
        },
        {
          "duration": 0.05172412500000689,
          "durationTicks": 12,
          "midi": 49,
          "name": "C#3",
          "ticks": 20976,
          "time": 90.4137705,
          "velocity": 0.7874015748031497
        },
        {
          "duration": 0.05172412500000689,
          "durationTicks": 12,
          "midi": 61,
          "name": "C#4",
          "ticks": 20976,
          "time": 90.4137705,
          "velocity": 0.7874015748031497
        },
        {
          "duration": 0.05172412500000689,
          "durationTicks": 12,
          "midi": 49,
          "name": "C#3",
          "ticks": 21000,
          "time": 90.51721875,
          "velocity": 0.7874015748031497
        },
        {
          "duration": 0.05172412500000689,
          "durationTicks": 12,
          "midi": 61,
          "name": "C#4",
          "ticks": 21000,
          "time": 90.51721875,
          "velocity": 0.7874015748031497
        },
        {
          "duration": 0.10344824999999958,
          "durationTicks": 24,
          "midi": 56,
          "name": "G#3",
          "ticks": 21024,
          "time": 90.62066700000001,
          "velocity": 0.7874015748031497
        },
        {
          "duration": 0.10344824999999958,
          "durationTicks": 24,
          "midi": 68,
          "name": "G#4",
          "ticks": 21024,
          "time": 90.62066700000001,
          "velocity": 0.7874015748031497
        },
        {
          "duration": 0.33620681249999507,
          "durationTicks": 78,
          "midi": 37,
          "name": "C#2",
          "ticks": 21024,
          "time": 90.62066700000001,
          "velocity": 0.7086614173228346
        },
        {
          "duration": 0.33620681249999507,
          "durationTicks": 78,
          "midi": 44,
          "name": "G#2",
          "ticks": 21024,
          "time": 90.62066700000001,
          "velocity": 0.7086614173228346
        },
        {
          "duration": 0.10344824999999958,
          "durationTicks": 24,
          "midi": 54,
          "name": "F#3",
          "ticks": 21048,
          "time": 90.72411525000001,
          "velocity": 0.7874015748031497
        },
        {
          "duration": 0.10344824999999958,
          "durationTicks": 24,
          "midi": 66,
          "name": "F#4",
          "ticks": 21048,
          "time": 90.72411525000001,
          "velocity": 0.7874015748031497
        },
        {
          "duration": 0.10344824999999958,
          "durationTicks": 24,
          "midi": 52,
          "name": "E3",
          "ticks": 21072,
          "time": 90.82756350000001,
          "velocity": 0.7874015748031497
        },
        {
          "duration": 0.10344824999999958,
          "durationTicks": 24,
          "midi": 64,
          "name": "E4",
          "ticks": 21072,
          "time": 90.82756350000001,
          "velocity": 0.7874015748031497
        },
        {
          "duration": 0.10344824999999958,
          "durationTicks": 24,
          "midi": 51,
          "name": "D#3",
          "ticks": 21096,
          "time": 90.93101175000001,
          "velocity": 0.7874015748031497
        },
        {
          "duration": 0.10344824999999958,
          "durationTicks": 24,
          "midi": 63,
          "name": "D#4",
          "ticks": 21096,
          "time": 90.93101175000001,
          "velocity": 0.7874015748031497
        },
        {
          "duration": 0.05172412499999268,
          "durationTicks": 12,
          "midi": 49,
          "name": "C#3",
          "ticks": 21120,
          "time": 91.03446000000001,
          "velocity": 0.7874015748031497
        },
        {
          "duration": 0.3620688749999914,
          "durationTicks": 84,
          "midi": 37,
          "name": "C#2",
          "ticks": 21120,
          "time": 91.03446000000001,
          "velocity": 0.7874015748031497
        },
        {
          "duration": 0.05172412499999268,
          "durationTicks": 12,
          "midi": 61,
          "name": "C#4",
          "ticks": 21120,
          "time": 91.03446000000001,
          "velocity": 0.7874015748031497
        },
        {
          "duration": 1.189654874999988,
          "durationTicks": 276,
          "midi": 37,
          "name": "C#2",
          "ticks": 21120,
          "time": 91.03446000000001,
          "velocity": 0.7086614173228346
        },
        {
          "duration": 0.3620688749999914,
          "durationTicks": 84,
          "midi": 44,
          "name": "G#2",
          "ticks": 21120,
          "time": 91.03446000000001,
          "velocity": 0.7086614173228346
        },
        {
          "duration": 0.05172412499999268,
          "durationTicks": 12,
          "midi": 49,
          "name": "C#3",
          "ticks": 21144,
          "time": 91.13790825000001,
          "velocity": 0.7874015748031497
        },
        {
          "duration": 0.05172412499999268,
          "durationTicks": 12,
          "midi": 61,
          "name": "C#4",
          "ticks": 21144,
          "time": 91.13790825000001,
          "velocity": 0.7874015748031497
        },
        {
          "duration": 0.05172412499999268,
          "durationTicks": 12,
          "midi": 49,
          "name": "C#3",
          "ticks": 21168,
          "time": 91.24135650000001,
          "velocity": 0.7874015748031497
        },
        {
          "duration": 0.05172412499999268,
          "durationTicks": 12,
          "midi": 61,
          "name": "C#4",
          "ticks": 21168,
          "time": 91.24135650000001,
          "velocity": 0.7874015748031497
        },
        {
          "duration": 0.05172412499999268,
          "durationTicks": 12,
          "midi": 49,
          "name": "C#3",
          "ticks": 21192,
          "time": 91.34480475000001,
          "velocity": 0.7874015748031497
        },
        {
          "duration": 0.05172412499999268,
          "durationTicks": 12,
          "midi": 61,
          "name": "C#4",
          "ticks": 21192,
          "time": 91.34480475000001,
          "velocity": 0.7874015748031497
        },
        {
          "duration": 0.10344824999999958,
          "durationTicks": 24,
          "midi": 52,
          "name": "E3",
          "ticks": 21216,
          "time": 91.44825300000001,
          "velocity": 0.7874015748031497
        },
        {
          "duration": 0.10344824999999958,
          "durationTicks": 24,
          "midi": 64,
          "name": "E4",
          "ticks": 21216,
          "time": 91.44825300000001,
          "velocity": 0.7874015748031497
        },
        {
          "duration": 0.10344824999999958,
          "durationTicks": 24,
          "midi": 63,
          "name": "D#4",
          "ticks": 21240,
          "time": 91.55170125000001,
          "velocity": 0.7874015748031497
        },
        {
          "duration": 0.10344824999999958,
          "durationTicks": 24,
          "midi": 51,
          "name": "D#3",
          "ticks": 21240,
          "time": 91.55170125000001,
          "velocity": 0.7874015748031497
        },
        {
          "duration": 0.10344824999999958,
          "durationTicks": 24,
          "midi": 61,
          "name": "C#4",
          "ticks": 21264,
          "time": 91.65514950000001,
          "velocity": 0.7874015748031497
        },
        {
          "duration": 0.10344824999999958,
          "durationTicks": 24,
          "midi": 49,
          "name": "C#3",
          "ticks": 21264,
          "time": 91.65514950000001,
          "velocity": 0.7874015748031497
        },
        {
          "duration": 0.05172412499999268,
          "durationTicks": 12,
          "midi": 61,
          "name": "C#4",
          "ticks": 21288,
          "time": 91.75859775,
          "velocity": 0.7874015748031497
        },
        {
          "duration": 0.05172412499999268,
          "durationTicks": 12,
          "midi": 49,
          "name": "C#3",
          "ticks": 21288,
          "time": 91.75859775,
          "velocity": 0.7874015748031497
        },
        {
          "duration": 0.3620688749999914,
          "durationTicks": 84,
          "midi": 44,
          "name": "G#2",
          "ticks": 21312,
          "time": 91.862046,
          "velocity": 0.7086614173228346
        },
        {
          "duration": 0.4137929999999983,
          "durationTicks": 96,
          "midi": 37,
          "name": "C#2",
          "ticks": 21312,
          "time": 91.862046,
          "velocity": 0.7086614173228346
        },
        {
          "duration": 0.05172412499999268,
          "durationTicks": 12,
          "midi": 61,
          "name": "C#4",
          "ticks": 21312,
          "time": 91.862046,
          "velocity": 0.7874015748031497
        },
        {
          "duration": 0.05172412499999268,
          "durationTicks": 12,
          "midi": 49,
          "name": "C#3",
          "ticks": 21312,
          "time": 91.862046,
          "velocity": 0.7874015748031497
        },
        {
          "duration": 0.05172412499999268,
          "durationTicks": 12,
          "midi": 61,
          "name": "C#4",
          "ticks": 21336,
          "time": 91.96549425,
          "velocity": 0.7874015748031497
        },
        {
          "duration": 0.05172412499999268,
          "durationTicks": 12,
          "midi": 49,
          "name": "C#3",
          "ticks": 21336,
          "time": 91.96549425,
          "velocity": 0.7874015748031497
        },
        {
          "duration": 0.05172412499999268,
          "durationTicks": 12,
          "midi": 61,
          "name": "C#4",
          "ticks": 21360,
          "time": 92.0689425,
          "velocity": 0.7874015748031497
        },
        {
          "duration": 0.05172412499999268,
          "durationTicks": 12,
          "midi": 49,
          "name": "C#3",
          "ticks": 21360,
          "time": 92.0689425,
          "velocity": 0.7874015748031497
        },
        {
          "duration": 0.05172412499999268,
          "durationTicks": 12,
          "midi": 61,
          "name": "C#4",
          "ticks": 21384,
          "time": 92.17239075,
          "velocity": 0.7874015748031497
        },
        {
          "duration": 0.05172412499999268,
          "durationTicks": 12,
          "midi": 49,
          "name": "C#3",
          "ticks": 21384,
          "time": 92.17239075,
          "velocity": 0.7874015748031497
        },
        {
          "duration": 0.10344824999999958,
          "durationTicks": 24,
          "midi": 68,
          "name": "G#4",
          "ticks": 21408,
          "time": 92.275839,
          "velocity": 0.7874015748031497
        },
        {
          "duration": 0.10344824999999958,
          "durationTicks": 24,
          "midi": 56,
          "name": "G#3",
          "ticks": 21408,
          "time": 92.275839,
          "velocity": 0.7874015748031497
        },
        {
          "duration": 0.10344824999999958,
          "durationTicks": 24,
          "midi": 66,
          "name": "F#4",
          "ticks": 21432,
          "time": 92.37928725,
          "velocity": 0.7874015748031497
        },
        {
          "duration": 0.10344824999999958,
          "durationTicks": 24,
          "midi": 54,
          "name": "F#3",
          "ticks": 21432,
          "time": 92.37928725,
          "velocity": 0.7874015748031497
        },
        {
          "duration": 0.10344824999999958,
          "durationTicks": 24,
          "midi": 64,
          "name": "E4",
          "ticks": 21456,
          "time": 92.4827355,
          "velocity": 0.7874015748031497
        },
        {
          "duration": 0.10344824999999958,
          "durationTicks": 24,
          "midi": 52,
          "name": "E3",
          "ticks": 21456,
          "time": 92.4827355,
          "velocity": 0.7874015748031497
        },
        {
          "duration": 0.10344824999999958,
          "durationTicks": 24,
          "midi": 63,
          "name": "D#4",
          "ticks": 21480,
          "time": 92.58618375,
          "velocity": 0.7874015748031497
        },
        {
          "duration": 0.10344824999999958,
          "durationTicks": 24,
          "midi": 51,
          "name": "D#3",
          "ticks": 21480,
          "time": 92.58618375,
          "velocity": 0.7874015748031497
        },
        {
          "duration": 0.05172412500000689,
          "durationTicks": 12,
          "midi": 49,
          "name": "C#3",
          "ticks": 21504,
          "time": 92.689632,
          "velocity": 0.7874015748031497
        },
        {
          "duration": 0.25862062500000604,
          "durationTicks": 60,
          "midi": 37,
          "name": "C#2",
          "ticks": 21504,
          "time": 92.689632,
          "velocity": 0.7874015748031497
        },
        {
          "duration": 0.05172412500000689,
          "durationTicks": 12,
          "midi": 61,
          "name": "C#4",
          "ticks": 21504,
          "time": 92.689632,
          "velocity": 0.7874015748031497
        },
        {
          "duration": 0.6724136250000043,
          "durationTicks": 156,
          "midi": 37,
          "name": "C#2",
          "ticks": 21504,
          "time": 92.689632,
          "velocity": 0.7086614173228346
        },
        {
          "duration": 0.25862062500000604,
          "durationTicks": 60,
          "midi": 44,
          "name": "G#2",
          "ticks": 21504,
          "time": 92.689632,
          "velocity": 0.7086614173228346
        },
        {
          "duration": 0.05172412500000689,
          "durationTicks": 12,
          "midi": 49,
          "name": "C#3",
          "ticks": 21528,
          "time": 92.79308025,
          "velocity": 0.7874015748031497
        },
        {
          "duration": 0.05172412500000689,
          "durationTicks": 12,
          "midi": 61,
          "name": "C#4",
          "ticks": 21528,
          "time": 92.79308025,
          "velocity": 0.7874015748031497
        },
        {
          "duration": 0.05172412500000689,
          "durationTicks": 12,
          "midi": 49,
          "name": "C#3",
          "ticks": 21552,
          "time": 92.8965285,
          "velocity": 0.7874015748031497
        },
        {
          "duration": 0.05172412500000689,
          "durationTicks": 12,
          "midi": 61,
          "name": "C#4",
          "ticks": 21552,
          "time": 92.8965285,
          "velocity": 0.7874015748031497
        },
        {
          "duration": 0.05172412500000689,
          "durationTicks": 12,
          "midi": 49,
          "name": "C#3",
          "ticks": 21576,
          "time": 92.99997675,
          "velocity": 0.7874015748031497
        },
        {
          "duration": 0.05172412500000689,
          "durationTicks": 12,
          "midi": 61,
          "name": "C#4",
          "ticks": 21576,
          "time": 92.99997675,
          "velocity": 0.7874015748031497
        },
        {
          "duration": 0.10344824999999958,
          "durationTicks": 24,
          "midi": 52,
          "name": "E3",
          "ticks": 21600,
          "time": 93.103425,
          "velocity": 0.7874015748031497
        },
        {
          "duration": 0.10344824999999958,
          "durationTicks": 24,
          "midi": 64,
          "name": "E4",
          "ticks": 21600,
          "time": 93.103425,
          "velocity": 0.7874015748031497
        },
        {
          "duration": 0.6724136250000043,
          "durationTicks": 156,
          "midi": 37,
          "name": "C#2",
          "ticks": 21600,
          "time": 93.103425,
          "velocity": 0.7086614173228346
        },
        {
          "duration": 0.25862062500000604,
          "durationTicks": 60,
          "midi": 44,
          "name": "G#2",
          "ticks": 21600,
          "time": 93.103425,
          "velocity": 0.7086614173228346
        },
        {
          "duration": 0.10344824999999958,
          "durationTicks": 24,
          "midi": 51,
          "name": "D#3",
          "ticks": 21624,
          "time": 93.20687325,
          "velocity": 0.7874015748031497
        },
        {
          "duration": 0.10344824999999958,
          "durationTicks": 24,
          "midi": 63,
          "name": "D#4",
          "ticks": 21624,
          "time": 93.20687325,
          "velocity": 0.7874015748031497
        },
        {
          "duration": 0.10344824999999958,
          "durationTicks": 24,
          "midi": 49,
          "name": "C#3",
          "ticks": 21648,
          "time": 93.3103215,
          "velocity": 0.7874015748031497
        },
        {
          "duration": 0.10344824999999958,
          "durationTicks": 24,
          "midi": 61,
          "name": "C#4",
          "ticks": 21648,
          "time": 93.3103215,
          "velocity": 0.7874015748031497
        },
        {
          "duration": 0.05172412500000689,
          "durationTicks": 12,
          "midi": 49,
          "name": "C#3",
          "ticks": 21672,
          "time": 93.41376975,
          "velocity": 0.7874015748031497
        },
        {
          "duration": 0.05172412500000689,
          "durationTicks": 12,
          "midi": 61,
          "name": "C#4",
          "ticks": 21672,
          "time": 93.41376975,
          "velocity": 0.7874015748031497
        },
        {
          "duration": 0.05172412500000689,
          "durationTicks": 12,
          "midi": 49,
          "name": "C#3",
          "ticks": 21696,
          "time": 93.517218,
          "velocity": 0.7874015748031497
        },
        {
          "duration": 0.05172412500000689,
          "durationTicks": 12,
          "midi": 61,
          "name": "C#4",
          "ticks": 21696,
          "time": 93.517218,
          "velocity": 0.7874015748031497
        },
        {
          "duration": 0.4137929999999983,
          "durationTicks": 96,
          "midi": 37,
          "name": "C#2",
          "ticks": 21696,
          "time": 93.517218,
          "velocity": 0.7086614173228346
        },
        {
          "duration": 0.25862062500000604,
          "durationTicks": 60,
          "midi": 44,
          "name": "G#2",
          "ticks": 21696,
          "time": 93.517218,
          "velocity": 0.7086614173228346
        },
        {
          "duration": 0.05172412500000689,
          "durationTicks": 12,
          "midi": 49,
          "name": "C#3",
          "ticks": 21720,
          "time": 93.62066625,
          "velocity": 0.7874015748031497
        },
        {
          "duration": 0.05172412500000689,
          "durationTicks": 12,
          "midi": 61,
          "name": "C#4",
          "ticks": 21720,
          "time": 93.62066625,
          "velocity": 0.7874015748031497
        },
        {
          "duration": 0.05172412500000689,
          "durationTicks": 12,
          "midi": 49,
          "name": "C#3",
          "ticks": 21744,
          "time": 93.7241145,
          "velocity": 0.7874015748031497
        },
        {
          "duration": 0.05172412500000689,
          "durationTicks": 12,
          "midi": 61,
          "name": "C#4",
          "ticks": 21744,
          "time": 93.7241145,
          "velocity": 0.7874015748031497
        },
        {
          "duration": 0.05172412500000689,
          "durationTicks": 12,
          "midi": 49,
          "name": "C#3",
          "ticks": 21768,
          "time": 93.82756275,
          "velocity": 0.7874015748031497
        },
        {
          "duration": 0.05172412500000689,
          "durationTicks": 12,
          "midi": 61,
          "name": "C#4",
          "ticks": 21768,
          "time": 93.82756275,
          "velocity": 0.7874015748031497
        },
        {
          "duration": 0.10344825000001379,
          "durationTicks": 24,
          "midi": 56,
          "name": "G#3",
          "ticks": 21792,
          "time": 93.931011,
          "velocity": 0.7874015748031497
        },
        {
          "duration": 0.10344825000001379,
          "durationTicks": 24,
          "midi": 68,
          "name": "G#4",
          "ticks": 21792,
          "time": 93.931011,
          "velocity": 0.7874015748031497
        },
        {
          "duration": 0.25862062500000604,
          "durationTicks": 60,
          "midi": 37,
          "name": "C#2",
          "ticks": 21792,
          "time": 93.931011,
          "velocity": 0.7086614173228346
        },
        {
          "duration": 0.25862062500000604,
          "durationTicks": 60,
          "midi": 44,
          "name": "G#2",
          "ticks": 21792,
          "time": 93.931011,
          "velocity": 0.7086614173228346
        },
        {
          "duration": 0.10344824999999958,
          "durationTicks": 24,
          "midi": 54,
          "name": "F#3",
          "ticks": 21816,
          "time": 94.03445925000001,
          "velocity": 0.7874015748031497
        },
        {
          "duration": 0.10344824999999958,
          "durationTicks": 24,
          "midi": 66,
          "name": "F#4",
          "ticks": 21816,
          "time": 94.03445925000001,
          "velocity": 0.7874015748031497
        },
        {
          "duration": 0.10344824999999958,
          "durationTicks": 24,
          "midi": 52,
          "name": "E3",
          "ticks": 21840,
          "time": 94.13790750000001,
          "velocity": 0.7874015748031497
        },
        {
          "duration": 0.10344824999999958,
          "durationTicks": 24,
          "midi": 64,
          "name": "E4",
          "ticks": 21840,
          "time": 94.13790750000001,
          "velocity": 0.7874015748031497
        },
        {
          "duration": 0.10344824999999958,
          "durationTicks": 24,
          "midi": 51,
          "name": "D#3",
          "ticks": 21864,
          "time": 94.24135575000001,
          "velocity": 0.7874015748031497
        },
        {
          "duration": 0.10344824999999958,
          "durationTicks": 24,
          "midi": 63,
          "name": "D#4",
          "ticks": 21864,
          "time": 94.24135575000001,
          "velocity": 0.7874015748031497
        },
        {
          "duration": 0.07758618749998902,
          "durationTicks": 18,
          "midi": 49,
          "name": "C#3",
          "ticks": 21888,
          "time": 94.34480400000001,
          "velocity": 0.7874015748031497
        },
        {
          "duration": 0.10344824999999958,
          "durationTicks": 24,
          "midi": 37,
          "name": "C#2",
          "ticks": 21888,
          "time": 94.34480400000001,
          "velocity": 0.7874015748031497
        },
        {
          "duration": 0.3103447499999987,
          "durationTicks": 72,
          "midi": 37,
          "name": "C#2",
          "ticks": 21888,
          "time": 94.34480400000001,
          "velocity": 0.7086614173228346
        },
        {
          "duration": 0.07758618749998902,
          "durationTicks": 18,
          "midi": 61,
          "name": "C#4",
          "ticks": 21888,
          "time": 94.34480400000001,
          "velocity": 0.7874015748031497
        },
        {
          "duration": 0.10344824999999958,
          "durationTicks": 24,
          "midi": 44,
          "name": "G#2",
          "ticks": 21888,
          "time": 94.34480400000001,
          "velocity": 0.7086614173228346
        },
        {
          "duration": 0.07758618749998902,
          "durationTicks": 18,
          "midi": 49,
          "name": "C#3",
          "ticks": 21912,
          "time": 94.44825225000001,
          "velocity": 0.7874015748031497
        },
        {
          "duration": 0.07758618749998902,
          "durationTicks": 18,
          "midi": 61,
          "name": "C#4",
          "ticks": 21912,
          "time": 94.44825225000001,
          "velocity": 0.7874015748031497
        },
        {
          "duration": 0.10344824999999958,
          "durationTicks": 24,
          "midi": 44,
          "name": "G#2",
          "ticks": 21936,
          "time": 94.55170050000001,
          "velocity": 0.7086614173228346
        },
        {
          "duration": 0.3103447499999987,
          "durationTicks": 72,
          "midi": 37,
          "name": "C#2",
          "ticks": 21936,
          "time": 94.55170050000001,
          "velocity": 0.7086614173228346
        },
        {
          "duration": 0.07758618749998902,
          "durationTicks": 18,
          "midi": 63,
          "name": "D#4",
          "ticks": 21936,
          "time": 94.55170050000001,
          "velocity": 0.7874015748031497
        },
        {
          "duration": 0.07758618749998902,
          "durationTicks": 18,
          "midi": 51,
          "name": "D#3",
          "ticks": 21936,
          "time": 94.55170050000001,
          "velocity": 0.7874015748031497
        },
        {
          "duration": 0.07758618749998902,
          "durationTicks": 18,
          "midi": 61,
          "name": "C#4",
          "ticks": 21960,
          "time": 94.65514875000001,
          "velocity": 0.7874015748031497
        },
        {
          "duration": 0.07758618749998902,
          "durationTicks": 18,
          "midi": 49,
          "name": "C#3",
          "ticks": 21960,
          "time": 94.65514875000001,
          "velocity": 0.7874015748031497
        },
        {
          "duration": 0.10344824999999958,
          "durationTicks": 24,
          "midi": 44,
          "name": "G#2",
          "ticks": 21984,
          "time": 94.75859700000001,
          "velocity": 0.7086614173228346
        },
        {
          "duration": 0.07758618750000323,
          "durationTicks": 18,
          "midi": 61,
          "name": "C#4",
          "ticks": 21984,
          "time": 94.75859700000001,
          "velocity": 0.7874015748031497
        },
        {
          "duration": 0.3103447499999987,
          "durationTicks": 72,
          "midi": 37,
          "name": "C#2",
          "ticks": 21984,
          "time": 94.75859700000001,
          "velocity": 0.7086614173228346
        },
        {
          "duration": 0.07758618750000323,
          "durationTicks": 18,
          "midi": 49,
          "name": "C#3",
          "ticks": 21984,
          "time": 94.75859700000001,
          "velocity": 0.7874015748031497
        },
        {
          "duration": 0.07758618750000323,
          "durationTicks": 18,
          "midi": 61,
          "name": "C#4",
          "ticks": 22008,
          "time": 94.86204525000001,
          "velocity": 0.7874015748031497
        },
        {
          "duration": 0.07758618750000323,
          "durationTicks": 18,
          "midi": 49,
          "name": "C#3",
          "ticks": 22008,
          "time": 94.86204525000001,
          "velocity": 0.7874015748031497
        },
        {
          "duration": 0.10344824999999958,
          "durationTicks": 24,
          "midi": 44,
          "name": "G#2",
          "ticks": 22032,
          "time": 94.96549350000001,
          "velocity": 0.7086614173228346
        },
        {
          "duration": 0.25862062499999183,
          "durationTicks": 60,
          "midi": 37,
          "name": "C#2",
          "ticks": 22032,
          "time": 94.96549350000001,
          "velocity": 0.7086614173228346
        },
        {
          "duration": 0.07758618750000323,
          "durationTicks": 18,
          "midi": 68,
          "name": "G#4",
          "ticks": 22032,
          "time": 94.96549350000001,
          "velocity": 0.7874015748031497
        },
        {
          "duration": 0.07758618750000323,
          "durationTicks": 18,
          "midi": 56,
          "name": "G#3",
          "ticks": 22032,
          "time": 94.96549350000001,
          "velocity": 0.7874015748031497
        },
        {
          "duration": 0.07758618750000323,
          "durationTicks": 18,
          "midi": 68,
          "name": "G#4",
          "ticks": 22056,
          "time": 95.06894175000001,
          "velocity": 0.7874015748031497
        },
        {
          "duration": 0.07758618750000323,
          "durationTicks": 18,
          "midi": 56,
          "name": "G#3",
          "ticks": 22056,
          "time": 95.06894175000001,
          "velocity": 0.7874015748031497
        },
        {
          "duration": 0.05172412499999268,
          "durationTicks": 12,
          "midi": 44,
          "name": "G#2",
          "ticks": 22080,
          "time": 95.17239000000001,
          "velocity": 0.1732283464566929
        },
        {
          "duration": 0.07758618750000323,
          "durationTicks": 18,
          "midi": 66,
          "name": "F#4",
          "ticks": 22080,
          "time": 95.17239000000001,
          "velocity": 0.7874015748031497
        },
        {
          "duration": 0.15517237499999226,
          "durationTicks": 36,
          "midi": 37,
          "name": "C#2",
          "ticks": 22080,
          "time": 95.17239000000001,
          "velocity": 0.1732283464566929
        },
        {
          "duration": 0.07758618750000323,
          "durationTicks": 18,
          "midi": 54,
          "name": "F#3",
          "ticks": 22080,
          "time": 95.17239000000001,
          "velocity": 0.7874015748031497
        },
        {
          "duration": 0.05172412499999268,
          "durationTicks": 12,
          "midi": 44,
          "name": "G#2",
          "ticks": 22104,
          "time": 95.27583825,
          "velocity": 0.23622047244094488
        },
        {
          "duration": 0.15517237499999226,
          "durationTicks": 36,
          "midi": 37,
          "name": "C#2",
          "ticks": 22104,
          "time": 95.27583825,
          "velocity": 0.23622047244094488
        },
        {
          "duration": 0.07758618750000323,
          "durationTicks": 18,
          "midi": 66,
          "name": "F#4",
          "ticks": 22104,
          "time": 95.27583825,
          "velocity": 0.7874015748031497
        },
        {
          "duration": 0.07758618750000323,
          "durationTicks": 18,
          "midi": 54,
          "name": "F#3",
          "ticks": 22104,
          "time": 95.27583825,
          "velocity": 0.7874015748031497
        },
        {
          "duration": 0.05172412499999268,
          "durationTicks": 12,
          "midi": 44,
          "name": "G#2",
          "ticks": 22128,
          "time": 95.3792865,
          "velocity": 0.2992125984251969
        },
        {
          "duration": 0.07758618750000323,
          "durationTicks": 18,
          "midi": 66,
          "name": "F#4",
          "ticks": 22128,
          "time": 95.3792865,
          "velocity": 0.7874015748031497
        },
        {
          "duration": 0.15517237499999226,
          "durationTicks": 36,
          "midi": 37,
          "name": "C#2",
          "ticks": 22128,
          "time": 95.3792865,
          "velocity": 0.2992125984251969
        },
        {
          "duration": 0.07758618750000323,
          "durationTicks": 18,
          "midi": 54,
          "name": "F#3",
          "ticks": 22128,
          "time": 95.3792865,
          "velocity": 0.7874015748031497
        },
        {
          "duration": 0.05172412499999268,
          "durationTicks": 12,
          "midi": 44,
          "name": "G#2",
          "ticks": 22152,
          "time": 95.48273475,
          "velocity": 0.3700787401574803
        },
        {
          "duration": 0.10344824999999958,
          "durationTicks": 24,
          "midi": 37,
          "name": "C#2",
          "ticks": 22152,
          "time": 95.48273475,
          "velocity": 0.3700787401574803
        },
        {
          "duration": 0.07758618750000323,
          "durationTicks": 18,
          "midi": 66,
          "name": "F#4",
          "ticks": 22152,
          "time": 95.48273475,
          "velocity": 0.7874015748031497
        },
        {
          "duration": 0.07758618750000323,
          "durationTicks": 18,
          "midi": 54,
          "name": "F#3",
          "ticks": 22152,
          "time": 95.48273475,
          "velocity": 0.7874015748031497
        },
        {
          "duration": 0.05172412499999268,
          "durationTicks": 12,
          "midi": 44,
          "name": "G#2",
          "ticks": 22176,
          "time": 95.586183,
          "velocity": 0.4330708661417323
        },
        {
          "duration": 0.05172412499999268,
          "durationTicks": 12,
          "midi": 37,
          "name": "C#2",
          "ticks": 22176,
          "time": 95.586183,
          "velocity": 0.4330708661417323
        },
        {
          "duration": 0.05172412500000689,
          "durationTicks": 12,
          "midi": 44,
          "name": "G#2",
          "ticks": 22200,
          "time": 95.68963125,
          "velocity": 0.49606299212598426
        },
        {
          "duration": 0.05172412500000689,
          "durationTicks": 12,
          "midi": 37,
          "name": "C#2",
          "ticks": 22200,
          "time": 95.68963125,
          "velocity": 0.49606299212598426
        },
        {
          "duration": 0.05172412500000689,
          "durationTicks": 12,
          "midi": 44,
          "name": "G#2",
          "ticks": 22224,
          "time": 95.7930795,
          "velocity": 0.5590551181102362
        },
        {
          "duration": 0.05172412500000689,
          "durationTicks": 12,
          "midi": 37,
          "name": "C#2",
          "ticks": 22224,
          "time": 95.7930795,
          "velocity": 0.5590551181102362
        },
        {
          "duration": 0.05172412500000689,
          "durationTicks": 12,
          "midi": 44,
          "name": "G#2",
          "ticks": 22248,
          "time": 95.89652775,
          "velocity": 0.6220472440944882
        },
        {
          "duration": 0.05172412500000689,
          "durationTicks": 12,
          "midi": 37,
          "name": "C#2",
          "ticks": 22248,
          "time": 95.89652775,
          "velocity": 0.6220472440944882
        },
        {
          "duration": 0.20689649999999915,
          "durationTicks": 48,
          "midi": 37,
          "name": "C#2",
          "ticks": 22272,
          "time": 95.999976,
          "velocity": 0.7401574803149606
        },
        {
          "duration": 0.05172412500000689,
          "durationTicks": 12,
          "midi": 61,
          "name": "C#4",
          "ticks": 22272,
          "time": 95.999976,
          "velocity": 0.7165354330708661
        },
        {
          "duration": 0.05172412500000689,
          "durationTicks": 12,
          "midi": 49,
          "name": "C#3",
          "ticks": 22272,
          "time": 95.999976,
          "velocity": 0.7165354330708661
        },
        {
          "duration": 0.05172412500000689,
          "durationTicks": 12,
          "midi": 49,
          "name": "C#3",
          "ticks": 22296,
          "time": 96.10342425,
          "velocity": 0.7165354330708661
        },
        {
          "duration": 0.05172412500000689,
          "durationTicks": 12,
          "midi": 61,
          "name": "C#4",
          "ticks": 22296,
          "time": 96.10342425,
          "velocity": 0.7165354330708661
        },
        {
          "duration": 0.05172412500000689,
          "durationTicks": 12,
          "midi": 61,
          "name": "C#4",
          "ticks": 22320,
          "time": 96.2068725,
          "velocity": 0.7165354330708661
        },
        {
          "duration": 0.20689649999999915,
          "durationTicks": 48,
          "midi": 44,
          "name": "G#2",
          "ticks": 22320,
          "time": 96.2068725,
          "velocity": 0.7401574803149606
        },
        {
          "duration": 0.05172412500000689,
          "durationTicks": 12,
          "midi": 49,
          "name": "C#3",
          "ticks": 22320,
          "time": 96.2068725,
          "velocity": 0.7165354330708661
        },
        {
          "duration": 0.05172412500000689,
          "durationTicks": 12,
          "midi": 49,
          "name": "C#3",
          "ticks": 22344,
          "time": 96.31032075,
          "velocity": 0.7165354330708661
        },
        {
          "duration": 0.05172412500000689,
          "durationTicks": 12,
          "midi": 61,
          "name": "C#4",
          "ticks": 22344,
          "time": 96.31032075,
          "velocity": 0.7165354330708661
        },
        {
          "duration": 0.20689649999999915,
          "durationTicks": 48,
          "midi": 37,
          "name": "C#2",
          "ticks": 22368,
          "time": 96.413769,
          "velocity": 0.7401574803149606
        },
        {
          "duration": 0.05172412500000689,
          "durationTicks": 12,
          "midi": 49,
          "name": "C#3",
          "ticks": 22368,
          "time": 96.413769,
          "velocity": 0.7165354330708661
        },
        {
          "duration": 0.05172412500000689,
          "durationTicks": 12,
          "midi": 61,
          "name": "C#4",
          "ticks": 22368,
          "time": 96.413769,
          "velocity": 0.7165354330708661
        },
        {
          "duration": 0.05172412500000689,
          "durationTicks": 12,
          "midi": 61,
          "name": "C#4",
          "ticks": 22392,
          "time": 96.51721725,
          "velocity": 0.7165354330708661
        },
        {
          "duration": 0.05172412500000689,
          "durationTicks": 12,
          "midi": 49,
          "name": "C#3",
          "ticks": 22392,
          "time": 96.51721725,
          "velocity": 0.7165354330708661
        },
        {
          "duration": 0.4137929999999983,
          "durationTicks": 96,
          "midi": 68,
          "name": "G#4",
          "ticks": 22416,
          "time": 96.6206655,
          "velocity": 0.7559055118110236
        },
        {
          "duration": 0.20689649999999915,
          "durationTicks": 48,
          "midi": 44,
          "name": "G#2",
          "ticks": 22416,
          "time": 96.6206655,
          "velocity": 0.7401574803149606
        },
        {
          "duration": 0.4137929999999983,
          "durationTicks": 96,
          "midi": 56,
          "name": "G#3",
          "ticks": 22416,
          "time": 96.6206655,
          "velocity": 0.7874015748031497
        },
        {
          "duration": 0.20689649999999915,
          "durationTicks": 48,
          "midi": 37,
          "name": "C#2",
          "ticks": 22464,
          "time": 96.827562,
          "velocity": 0.7401574803149606
        },
        {
          "duration": 0.4137930000000125,
          "durationTicks": 96,
          "midi": 68,
          "name": "G#4",
          "ticks": 22512,
          "time": 97.0344585,
          "velocity": 0.7559055118110236
        },
        {
          "duration": 0.4137930000000125,
          "durationTicks": 96,
          "midi": 56,
          "name": "G#3",
          "ticks": 22512,
          "time": 97.0344585,
          "velocity": 0.7874015748031497
        },
        {
          "duration": 0.20689649999999915,
          "durationTicks": 48,
          "midi": 44,
          "name": "G#2",
          "ticks": 22512,
          "time": 97.0344585,
          "velocity": 0.7401574803149606
        },
        {
          "duration": 0.20689650000001336,
          "durationTicks": 48,
          "midi": 37,
          "name": "C#2",
          "ticks": 22560,
          "time": 97.241355,
          "velocity": 0.7401574803149606
        },
        {
          "duration": 0.20689649999999915,
          "durationTicks": 48,
          "midi": 44,
          "name": "G#2",
          "ticks": 22608,
          "time": 97.44825150000001,
          "velocity": 0.7401574803149606
        },
        {
          "duration": 0.20689649999999915,
          "durationTicks": 48,
          "midi": 40,
          "name": "E2",
          "ticks": 22656,
          "time": 97.65514800000001,
          "velocity": 0.7401574803149606
        },
        {
          "duration": 0.05172412499999268,
          "durationTicks": 12,
          "midi": 52,
          "name": "E3",
          "ticks": 22656,
          "time": 97.65514800000001,
          "velocity": 0.7165354330708661
        },
        {
          "duration": 0.05172412499999268,
          "durationTicks": 12,
          "midi": 64,
          "name": "E4",
          "ticks": 22656,
          "time": 97.65514800000001,
          "velocity": 0.7165354330708661
        },
        {
          "duration": 0.05172412499999268,
          "durationTicks": 12,
          "midi": 64,
          "name": "E4",
          "ticks": 22680,
          "time": 97.75859625000001,
          "velocity": 0.7165354330708661
        },
        {
          "duration": 0.05172412499999268,
          "durationTicks": 12,
          "midi": 52,
          "name": "E3",
          "ticks": 22680,
          "time": 97.75859625000001,
          "velocity": 0.7165354330708661
        },
        {
          "duration": 0.05172412499999268,
          "durationTicks": 12,
          "midi": 64,
          "name": "E4",
          "ticks": 22704,
          "time": 97.86204450000001,
          "velocity": 0.7165354330708661
        },
        {
          "duration": 0.05172412499999268,
          "durationTicks": 12,
          "midi": 52,
          "name": "E3",
          "ticks": 22704,
          "time": 97.86204450000001,
          "velocity": 0.7165354330708661
        },
        {
          "duration": 0.20689649999999915,
          "durationTicks": 48,
          "midi": 47,
          "name": "B2",
          "ticks": 22704,
          "time": 97.86204450000001,
          "velocity": 0.7401574803149606
        },
        {
          "duration": 0.05172412499999268,
          "durationTicks": 12,
          "midi": 64,
          "name": "E4",
          "ticks": 22728,
          "time": 97.96549275000001,
          "velocity": 0.7165354330708661
        },
        {
          "duration": 0.05172412499999268,
          "durationTicks": 12,
          "midi": 52,
          "name": "E3",
          "ticks": 22728,
          "time": 97.96549275000001,
          "velocity": 0.7165354330708661
        },
        {
          "duration": 0.20689649999999915,
          "durationTicks": 48,
          "midi": 40,
          "name": "E2",
          "ticks": 22752,
          "time": 98.06894100000001,
          "velocity": 0.7401574803149606
        },
        {
          "duration": 0.05172412499999268,
          "durationTicks": 12,
          "midi": 52,
          "name": "E3",
          "ticks": 22752,
          "time": 98.06894100000001,
          "velocity": 0.7165354330708661
        },
        {
          "duration": 0.05172412499999268,
          "durationTicks": 12,
          "midi": 64,
          "name": "E4",
          "ticks": 22752,
          "time": 98.06894100000001,
          "velocity": 0.7165354330708661
        },
        {
          "duration": 0.05172412499999268,
          "durationTicks": 12,
          "midi": 64,
          "name": "E4",
          "ticks": 22776,
          "time": 98.17238925000001,
          "velocity": 0.7165354330708661
        },
        {
          "duration": 0.05172412499999268,
          "durationTicks": 12,
          "midi": 52,
          "name": "E3",
          "ticks": 22776,
          "time": 98.17238925000001,
          "velocity": 0.7165354330708661
        },
        {
          "duration": 0.20689649999999915,
          "durationTicks": 48,
          "midi": 47,
          "name": "B2",
          "ticks": 22800,
          "time": 98.27583750000001,
          "velocity": 0.7401574803149606
        },
        {
          "duration": 0.4137929999999983,
          "durationTicks": 96,
          "midi": 59,
          "name": "B3",
          "ticks": 22800,
          "time": 98.27583750000001,
          "velocity": 0.7874015748031497
        },
        {
          "duration": 0.4137929999999983,
          "durationTicks": 96,
          "midi": 71,
          "name": "B4",
          "ticks": 22800,
          "time": 98.27583750000001,
          "velocity": 0.7559055118110236
        },
        {
          "duration": 0.20689649999999915,
          "durationTicks": 48,
          "midi": 40,
          "name": "E2",
          "ticks": 22848,
          "time": 98.48273400000001,
          "velocity": 0.7401574803149606
        },
        {
          "duration": 0.4137929999999983,
          "durationTicks": 96,
          "midi": 59,
          "name": "B3",
          "ticks": 22896,
          "time": 98.6896305,
          "velocity": 0.7874015748031497
        },
        {
          "duration": 0.20689649999999915,
          "durationTicks": 48,
          "midi": 47,
          "name": "B2",
          "ticks": 22896,
          "time": 98.6896305,
          "velocity": 0.7401574803149606
        },
        {
          "duration": 0.4137929999999983,
          "durationTicks": 96,
          "midi": 71,
          "name": "B4",
          "ticks": 22896,
          "time": 98.6896305,
          "velocity": 0.7559055118110236
        },
        {
          "duration": 0.20689649999999915,
          "durationTicks": 48,
          "midi": 40,
          "name": "E2",
          "ticks": 22944,
          "time": 98.896527,
          "velocity": 0.7401574803149606
        },
        {
          "duration": 0.20689649999999915,
          "durationTicks": 48,
          "midi": 47,
          "name": "B2",
          "ticks": 22992,
          "time": 99.1034235,
          "velocity": 0.7401574803149606
        },
        {
          "duration": 0.20689649999999915,
          "durationTicks": 48,
          "midi": 42,
          "name": "F#2",
          "ticks": 23040,
          "time": 99.31032,
          "velocity": 0.7401574803149606
        },
        {
          "duration": 0.05172412500000689,
          "durationTicks": 12,
          "midi": 54,
          "name": "F#3",
          "ticks": 23040,
          "time": 99.31032,
          "velocity": 0.7165354330708661
        },
        {
          "duration": 0.05172412500000689,
          "durationTicks": 12,
          "midi": 66,
          "name": "F#4",
          "ticks": 23040,
          "time": 99.31032,
          "velocity": 0.7165354330708661
        },
        {
          "duration": 0.05172412500000689,
          "durationTicks": 12,
          "midi": 54,
          "name": "F#3",
          "ticks": 23064,
          "time": 99.41376825,
          "velocity": 0.7165354330708661
        },
        {
          "duration": 0.05172412500000689,
          "durationTicks": 12,
          "midi": 66,
          "name": "F#4",
          "ticks": 23064,
          "time": 99.41376825,
          "velocity": 0.7165354330708661
        },
        {
          "duration": 0.20689649999999915,
          "durationTicks": 48,
          "midi": 49,
          "name": "C#3",
          "ticks": 23088,
          "time": 99.5172165,
          "velocity": 0.7401574803149606
        },
        {
          "duration": 0.05172412500000689,
          "durationTicks": 12,
          "midi": 54,
          "name": "F#3",
          "ticks": 23088,
          "time": 99.5172165,
          "velocity": 0.7165354330708661
        },
        {
          "duration": 0.05172412500000689,
          "durationTicks": 12,
          "midi": 66,
          "name": "F#4",
          "ticks": 23088,
          "time": 99.5172165,
          "velocity": 0.7165354330708661
        },
        {
          "duration": 0.05172412500000689,
          "durationTicks": 12,
          "midi": 54,
          "name": "F#3",
          "ticks": 23112,
          "time": 99.62066475,
          "velocity": 0.7165354330708661
        },
        {
          "duration": 0.05172412500000689,
          "durationTicks": 12,
          "midi": 66,
          "name": "F#4",
          "ticks": 23112,
          "time": 99.62066475,
          "velocity": 0.7165354330708661
        },
        {
          "duration": 0.20689649999999915,
          "durationTicks": 48,
          "midi": 42,
          "name": "F#2",
          "ticks": 23136,
          "time": 99.724113,
          "velocity": 0.7401574803149606
        },
        {
          "duration": 0.05172412500000689,
          "durationTicks": 12,
          "midi": 54,
          "name": "F#3",
          "ticks": 23136,
          "time": 99.724113,
          "velocity": 0.7165354330708661
        },
        {
          "duration": 0.05172412500000689,
          "durationTicks": 12,
          "midi": 66,
          "name": "F#4",
          "ticks": 23136,
          "time": 99.724113,
          "velocity": 0.7165354330708661
        },
        {
          "duration": 0.05172412500000689,
          "durationTicks": 12,
          "midi": 54,
          "name": "F#3",
          "ticks": 23160,
          "time": 99.82756125,
          "velocity": 0.7165354330708661
        },
        {
          "duration": 0.05172412500000689,
          "durationTicks": 12,
          "midi": 66,
          "name": "F#4",
          "ticks": 23160,
          "time": 99.82756125,
          "velocity": 0.7165354330708661
        },
        {
          "duration": 0.4137929999999983,
          "durationTicks": 96,
          "midi": 73,
          "name": "C#5",
          "ticks": 23184,
          "time": 99.9310095,
          "velocity": 0.7559055118110236
        },
        {
          "duration": 0.4137929999999983,
          "durationTicks": 96,
          "midi": 61,
          "name": "C#4",
          "ticks": 23184,
          "time": 99.9310095,
          "velocity": 0.7874015748031497
        },
        {
          "duration": 0.20689649999999915,
          "durationTicks": 48,
          "midi": 49,
          "name": "C#3",
          "ticks": 23184,
          "time": 99.9310095,
          "velocity": 0.7401574803149606
        },
        {
          "duration": 0.20689649999999915,
          "durationTicks": 48,
          "midi": 42,
          "name": "F#2",
          "ticks": 23232,
          "time": 100.137906,
          "velocity": 0.7401574803149606
        },
        {
          "duration": 0.20689649999999915,
          "durationTicks": 48,
          "midi": 49,
          "name": "C#3",
          "ticks": 23280,
          "time": 100.3448025,
          "velocity": 0.7401574803149606
        },
        {
          "duration": 0.05172412500000689,
          "durationTicks": 12,
          "midi": 73,
          "name": "C#5",
          "ticks": 23328,
          "time": 100.551699,
          "velocity": 0.7165354330708661
        },
        {
          "duration": 0.20689649999999915,
          "durationTicks": 48,
          "midi": 42,
          "name": "F#2",
          "ticks": 23328,
          "time": 100.551699,
          "velocity": 0.7401574803149606
        },
        {
          "duration": 0.05172412500000689,
          "durationTicks": 12,
          "midi": 61,
          "name": "C#4",
          "ticks": 23328,
          "time": 100.551699,
          "velocity": 0.7165354330708661
        },
        {
          "duration": 0.05172412500000689,
          "durationTicks": 12,
          "midi": 73,
          "name": "C#5",
          "ticks": 23352,
          "time": 100.65514725,
          "velocity": 0.7165354330708661
        },
        {
          "duration": 0.05172412500000689,
          "durationTicks": 12,
          "midi": 61,
          "name": "C#4",
          "ticks": 23352,
          "time": 100.65514725,
          "velocity": 0.7165354330708661
        },
        {
          "duration": 0.05172412500000689,
          "durationTicks": 12,
          "midi": 73,
          "name": "C#5",
          "ticks": 23376,
          "time": 100.7585955,
          "velocity": 0.7165354330708661
        },
        {
          "duration": 0.05172412500000689,
          "durationTicks": 12,
          "midi": 61,
          "name": "C#4",
          "ticks": 23376,
          "time": 100.7585955,
          "velocity": 0.7165354330708661
        },
        {
          "duration": 0.20689650000001336,
          "durationTicks": 48,
          "midi": 49,
          "name": "C#3",
          "ticks": 23376,
          "time": 100.7585955,
          "velocity": 0.7401574803149606
        },
        {
          "duration": 0.05172412499999268,
          "durationTicks": 12,
          "midi": 73,
          "name": "C#5",
          "ticks": 23400,
          "time": 100.86204375000001,
          "velocity": 0.7165354330708661
        },
        {
          "duration": 0.05172412499999268,
          "durationTicks": 12,
          "midi": 61,
          "name": "C#4",
          "ticks": 23400,
          "time": 100.86204375000001,
          "velocity": 0.7165354330708661
        },
        {
          "duration": 0.3103447499999987,
          "durationTicks": 72,
          "midi": 62,
          "name": "D4",
          "ticks": 23424,
          "time": 100.96549200000001,
          "velocity": 0.7559055118110236
        },
        {
          "duration": 0.20689649999999915,
          "durationTicks": 48,
          "midi": 38,
          "name": "D2",
          "ticks": 23424,
          "time": 100.96549200000001,
          "velocity": 0.7480314960629921
        },
        {
          "duration": 0.3103447499999987,
          "durationTicks": 72,
          "midi": 50,
          "name": "D3",
          "ticks": 23424,
          "time": 100.96549200000001,
          "velocity": 0.7874015748031497
        },
        {
          "duration": 0.20689649999999915,
          "durationTicks": 48,
          "midi": 45,
          "name": "A2",
          "ticks": 23472,
          "time": 101.17238850000001,
          "velocity": 0.7480314960629921
        },
        {
          "duration": 0.3103447499999987,
          "durationTicks": 72,
          "midi": 52,
          "name": "E3",
          "ticks": 23496,
          "time": 101.27583675000001,
          "velocity": 0.7874015748031497
        },
        {
          "duration": 0.3103447499999987,
          "durationTicks": 72,
          "midi": 64,
          "name": "E4",
          "ticks": 23496,
          "time": 101.27583675000001,
          "velocity": 0.7559055118110236
        },
        {
          "duration": 0.20689649999999915,
          "durationTicks": 48,
          "midi": 38,
          "name": "D2",
          "ticks": 23520,
          "time": 101.37928500000001,
          "velocity": 0.7480314960629921
        },
        {
          "duration": 0.20689649999999915,
          "durationTicks": 48,
          "midi": 45,
          "name": "A2",
          "ticks": 23568,
          "time": 101.58618150000001,
          "velocity": 0.7480314960629921
        },
        {
          "duration": 0.4137929999999983,
          "durationTicks": 96,
          "midi": 50,
          "name": "D3",
          "ticks": 23568,
          "time": 101.58618150000001,
          "velocity": 0.7874015748031497
        },
        {
          "duration": 0.4137929999999983,
          "durationTicks": 96,
          "midi": 62,
          "name": "D4",
          "ticks": 23568,
          "time": 101.58618150000001,
          "velocity": 0.7559055118110236
        },
        {
          "duration": 0.20689649999999915,
          "durationTicks": 48,
          "midi": 38,
          "name": "D2",
          "ticks": 23616,
          "time": 101.79307800000001,
          "velocity": 0.7480314960629921
        },
        {
          "duration": 0.20689649999999915,
          "durationTicks": 48,
          "midi": 45,
          "name": "A2",
          "ticks": 23664,
          "time": 101.99997450000001,
          "velocity": 0.7480314960629921
        },
        {
          "duration": 0.20689649999999915,
          "durationTicks": 48,
          "midi": 38,
          "name": "D2",
          "ticks": 23712,
          "time": 102.206871,
          "velocity": 0.7480314960629921
        },
        {
          "duration": 0.20689649999999915,
          "durationTicks": 48,
          "midi": 45,
          "name": "A2",
          "ticks": 23760,
          "time": 102.4137675,
          "velocity": 0.7480314960629921
        },
        {
          "duration": 0.05172412500000689,
          "durationTicks": 12,
          "midi": 49,
          "name": "C#3",
          "ticks": 23808,
          "time": 102.620664,
          "velocity": 0.7165354330708661
        },
        {
          "duration": 0.20689649999999915,
          "durationTicks": 48,
          "midi": 37,
          "name": "C#2",
          "ticks": 23808,
          "time": 102.620664,
          "velocity": 0.7480314960629921
        },
        {
          "duration": 0.05172412500000689,
          "durationTicks": 12,
          "midi": 61,
          "name": "C#4",
          "ticks": 23808,
          "time": 102.620664,
          "velocity": 0.7165354330708661
        },
        {
          "duration": 0.05172412500000689,
          "durationTicks": 12,
          "midi": 49,
          "name": "C#3",
          "ticks": 23832,
          "time": 102.72411225,
          "velocity": 0.7165354330708661
        },
        {
          "duration": 0.05172412500000689,
          "durationTicks": 12,
          "midi": 61,
          "name": "C#4",
          "ticks": 23832,
          "time": 102.72411225,
          "velocity": 0.7165354330708661
        },
        {
          "duration": 0.05172412500000689,
          "durationTicks": 12,
          "midi": 49,
          "name": "C#3",
          "ticks": 23856,
          "time": 102.8275605,
          "velocity": 0.7165354330708661
        },
        {
          "duration": 0.20689649999999915,
          "durationTicks": 48,
          "midi": 44,
          "name": "G#2",
          "ticks": 23856,
          "time": 102.8275605,
          "velocity": 0.7480314960629921
        },
        {
          "duration": 0.05172412500000689,
          "durationTicks": 12,
          "midi": 61,
          "name": "C#4",
          "ticks": 23856,
          "time": 102.8275605,
          "velocity": 0.7165354330708661
        },
        {
          "duration": 0.05172412500000689,
          "durationTicks": 12,
          "midi": 61,
          "name": "C#4",
          "ticks": 23880,
          "time": 102.93100875,
          "velocity": 0.7165354330708661
        },
        {
          "duration": 0.05172412500000689,
          "durationTicks": 12,
          "midi": 49,
          "name": "C#3",
          "ticks": 23880,
          "time": 102.93100875,
          "velocity": 0.7165354330708661
        },
        {
          "duration": 0.05172412500000689,
          "durationTicks": 12,
          "midi": 61,
          "name": "C#4",
          "ticks": 23904,
          "time": 103.034457,
          "velocity": 0.7165354330708661
        },
        {
          "duration": 0.20689649999999915,
          "durationTicks": 48,
          "midi": 37,
          "name": "C#2",
          "ticks": 23904,
          "time": 103.034457,
          "velocity": 0.7480314960629921
        },
        {
          "duration": 0.05172412500000689,
          "durationTicks": 12,
          "midi": 49,
          "name": "C#3",
          "ticks": 23904,
          "time": 103.034457,
          "velocity": 0.7165354330708661
        },
        {
          "duration": 0.05172412500000689,
          "durationTicks": 12,
          "midi": 61,
          "name": "C#4",
          "ticks": 23928,
          "time": 103.13790525,
          "velocity": 0.7165354330708661
        },
        {
          "duration": 0.05172412500000689,
          "durationTicks": 12,
          "midi": 49,
          "name": "C#3",
          "ticks": 23928,
          "time": 103.13790525,
          "velocity": 0.7165354330708661
        },
        {
          "duration": 0.4137929999999983,
          "durationTicks": 96,
          "midi": 68,
          "name": "G#4",
          "ticks": 23952,
          "time": 103.2413535,
          "velocity": 0.7559055118110236
        },
        {
          "duration": 0.20689649999999915,
          "durationTicks": 48,
          "midi": 44,
          "name": "G#2",
          "ticks": 23952,
          "time": 103.2413535,
          "velocity": 0.7480314960629921
        },
        {
          "duration": 0.4137929999999983,
          "durationTicks": 96,
          "midi": 56,
          "name": "G#3",
          "ticks": 23952,
          "time": 103.2413535,
          "velocity": 0.7874015748031497
        },
        {
          "duration": 0.20689649999999915,
          "durationTicks": 48,
          "midi": 37,
          "name": "C#2",
          "ticks": 24000,
          "time": 103.44825,
          "velocity": 0.7480314960629921
        },
        {
          "duration": 0.4137929999999983,
          "durationTicks": 96,
          "midi": 68,
          "name": "G#4",
          "ticks": 24048,
          "time": 103.6551465,
          "velocity": 0.7559055118110236
        },
        {
          "duration": 0.20689649999999915,
          "durationTicks": 48,
          "midi": 44,
          "name": "G#2",
          "ticks": 24048,
          "time": 103.6551465,
          "velocity": 0.7480314960629921
        },
        {
          "duration": 0.4137929999999983,
          "durationTicks": 96,
          "midi": 56,
          "name": "G#3",
          "ticks": 24048,
          "time": 103.6551465,
          "velocity": 0.7874015748031497
        },
        {
          "duration": 0.20689649999999915,
          "durationTicks": 48,
          "midi": 37,
          "name": "C#2",
          "ticks": 24096,
          "time": 103.862043,
          "velocity": 0.7480314960629921
        },
        {
          "duration": 0.20689650000001336,
          "durationTicks": 48,
          "midi": 44,
          "name": "G#2",
          "ticks": 24144,
          "time": 104.0689395,
          "velocity": 0.7480314960629921
        },
        {
          "duration": 0.05172412499999268,
          "durationTicks": 12,
          "midi": 64,
          "name": "E4",
          "ticks": 24192,
          "time": 104.27583600000001,
          "velocity": 0.7165354330708661
        },
        {
          "duration": 0.20689649999999915,
          "durationTicks": 48,
          "midi": 40,
          "name": "E2",
          "ticks": 24192,
          "time": 104.27583600000001,
          "velocity": 0.7480314960629921
        },
        {
          "duration": 0.05172412499999268,
          "durationTicks": 12,
          "midi": 52,
          "name": "E3",
          "ticks": 24192,
          "time": 104.27583600000001,
          "velocity": 0.7165354330708661
        },
        {
          "duration": 0.05172412499999268,
          "durationTicks": 12,
          "midi": 64,
          "name": "E4",
          "ticks": 24216,
          "time": 104.37928425000001,
          "velocity": 0.7165354330708661
        },
        {
          "duration": 0.05172412499999268,
          "durationTicks": 12,
          "midi": 52,
          "name": "E3",
          "ticks": 24216,
          "time": 104.37928425000001,
          "velocity": 0.7165354330708661
        },
        {
          "duration": 0.05172412499999268,
          "durationTicks": 12,
          "midi": 64,
          "name": "E4",
          "ticks": 24240,
          "time": 104.48273250000001,
          "velocity": 0.7165354330708661
        },
        {
          "duration": 0.20689649999999915,
          "durationTicks": 48,
          "midi": 47,
          "name": "B2",
          "ticks": 24240,
          "time": 104.48273250000001,
          "velocity": 0.7480314960629921
        },
        {
          "duration": 0.05172412499999268,
          "durationTicks": 12,
          "midi": 52,
          "name": "E3",
          "ticks": 24240,
          "time": 104.48273250000001,
          "velocity": 0.7165354330708661
        },
        {
          "duration": 0.05172412499999268,
          "durationTicks": 12,
          "midi": 64,
          "name": "E4",
          "ticks": 24264,
          "time": 104.58618075000001,
          "velocity": 0.7165354330708661
        },
        {
          "duration": 0.05172412499999268,
          "durationTicks": 12,
          "midi": 52,
          "name": "E3",
          "ticks": 24264,
          "time": 104.58618075000001,
          "velocity": 0.7165354330708661
        },
        {
          "duration": 0.05172412499999268,
          "durationTicks": 12,
          "midi": 52,
          "name": "E3",
          "ticks": 24288,
          "time": 104.68962900000001,
          "velocity": 0.7165354330708661
        },
        {
          "duration": 0.20689649999999915,
          "durationTicks": 48,
          "midi": 40,
          "name": "E2",
          "ticks": 24288,
          "time": 104.68962900000001,
          "velocity": 0.7480314960629921
        },
        {
          "duration": 0.05172412499999268,
          "durationTicks": 12,
          "midi": 64,
          "name": "E4",
          "ticks": 24288,
          "time": 104.68962900000001,
          "velocity": 0.7165354330708661
        },
        {
          "duration": 0.05172412499999268,
          "durationTicks": 12,
          "midi": 52,
          "name": "E3",
          "ticks": 24312,
          "time": 104.79307725000001,
          "velocity": 0.7165354330708661
        },
        {
          "duration": 0.05172412499999268,
          "durationTicks": 12,
          "midi": 64,
          "name": "E4",
          "ticks": 24312,
          "time": 104.79307725000001,
          "velocity": 0.7165354330708661
        },
        {
          "duration": 0.4137929999999983,
          "durationTicks": 96,
          "midi": 59,
          "name": "B3",
          "ticks": 24336,
          "time": 104.89652550000001,
          "velocity": 0.7874015748031497
        },
        {
          "duration": 0.20689649999999915,
          "durationTicks": 48,
          "midi": 47,
          "name": "B2",
          "ticks": 24336,
          "time": 104.89652550000001,
          "velocity": 0.7480314960629921
        },
        {
          "duration": 0.4137929999999983,
          "durationTicks": 96,
          "midi": 71,
          "name": "B4",
          "ticks": 24336,
          "time": 104.89652550000001,
          "velocity": 0.7559055118110236
        },
        {
          "duration": 0.20689649999999915,
          "durationTicks": 48,
          "midi": 40,
          "name": "E2",
          "ticks": 24384,
          "time": 105.10342200000001,
          "velocity": 0.7480314960629921
        },
        {
          "duration": 0.4137929999999983,
          "durationTicks": 96,
          "midi": 59,
          "name": "B3",
          "ticks": 24432,
          "time": 105.31031850000001,
          "velocity": 0.7874015748031497
        },
        {
          "duration": 0.20689649999999915,
          "durationTicks": 48,
          "midi": 47,
          "name": "B2",
          "ticks": 24432,
          "time": 105.31031850000001,
          "velocity": 0.7480314960629921
        },
        {
          "duration": 0.4137929999999983,
          "durationTicks": 96,
          "midi": 71,
          "name": "B4",
          "ticks": 24432,
          "time": 105.31031850000001,
          "velocity": 0.7559055118110236
        },
        {
          "duration": 0.20689649999999915,
          "durationTicks": 48,
          "midi": 40,
          "name": "E2",
          "ticks": 24480,
          "time": 105.51721500000001,
          "velocity": 0.7480314960629921
        },
        {
          "duration": 0.20689649999999915,
          "durationTicks": 48,
          "midi": 47,
          "name": "B2",
          "ticks": 24528,
          "time": 105.7241115,
          "velocity": 0.7480314960629921
        },
        {
          "duration": 0.8275859999999966,
          "durationTicks": 192,
          "midi": 45,
          "name": "A2",
          "ticks": 24576,
          "time": 105.931008,
          "velocity": 0.7244094488188977
        },
        {
          "duration": 0.8275859999999966,
          "durationTicks": 192,
          "midi": 37,
          "name": "C#2",
          "ticks": 24576,
          "time": 105.931008,
          "velocity": 0.7244094488188977
        },
        {
          "duration": 0.05172412500000689,
          "durationTicks": 12,
          "midi": 49,
          "name": "C#3",
          "ticks": 24576,
          "time": 105.931008,
          "velocity": 0.7165354330708661
        },
        {
          "duration": 0.05172412500000689,
          "durationTicks": 12,
          "midi": 61,
          "name": "C#4",
          "ticks": 24576,
          "time": 105.931008,
          "velocity": 0.7165354330708661
        },
        {
          "duration": 0.05172412500000689,
          "durationTicks": 12,
          "midi": 61,
          "name": "C#4",
          "ticks": 24600,
          "time": 106.03445625,
          "velocity": 0.7165354330708661
        },
        {
          "duration": 0.05172412500000689,
          "durationTicks": 12,
          "midi": 49,
          "name": "C#3",
          "ticks": 24600,
          "time": 106.03445625,
          "velocity": 0.7165354330708661
        },
        {
          "duration": 0.05172412500000689,
          "durationTicks": 12,
          "midi": 61,
          "name": "C#4",
          "ticks": 24624,
          "time": 106.1379045,
          "velocity": 0.7165354330708661
        },
        {
          "duration": 0.05172412500000689,
          "durationTicks": 12,
          "midi": 49,
          "name": "C#3",
          "ticks": 24624,
          "time": 106.1379045,
          "velocity": 0.7165354330708661
        },
        {
          "duration": 0.05172412500000689,
          "durationTicks": 12,
          "midi": 61,
          "name": "C#4",
          "ticks": 24648,
          "time": 106.24135275,
          "velocity": 0.7165354330708661
        },
        {
          "duration": 0.05172412500000689,
          "durationTicks": 12,
          "midi": 49,
          "name": "C#3",
          "ticks": 24648,
          "time": 106.24135275,
          "velocity": 0.7165354330708661
        },
        {
          "duration": 0.05172412500000689,
          "durationTicks": 12,
          "midi": 61,
          "name": "C#4",
          "ticks": 24672,
          "time": 106.344801,
          "velocity": 0.7165354330708661
        },
        {
          "duration": 0.05172412500000689,
          "durationTicks": 12,
          "midi": 49,
          "name": "C#3",
          "ticks": 24672,
          "time": 106.344801,
          "velocity": 0.7165354330708661
        },
        {
          "duration": 0.05172412500000689,
          "durationTicks": 12,
          "midi": 61,
          "name": "C#4",
          "ticks": 24696,
          "time": 106.44824925,
          "velocity": 0.7165354330708661
        },
        {
          "duration": 0.05172412500000689,
          "durationTicks": 12,
          "midi": 49,
          "name": "C#3",
          "ticks": 24696,
          "time": 106.44824925,
          "velocity": 0.7165354330708661
        },
        {
          "duration": 0.4137929999999983,
          "durationTicks": 96,
          "midi": 69,
          "name": "A4",
          "ticks": 24720,
          "time": 106.5516975,
          "velocity": 0.7559055118110236
        },
        {
          "duration": 0.4137929999999983,
          "durationTicks": 96,
          "midi": 57,
          "name": "A3",
          "ticks": 24720,
          "time": 106.5516975,
          "velocity": 0.7874015748031497
        },
        {
          "duration": 0.8275859999999966,
          "durationTicks": 192,
          "midi": 37,
          "name": "C#2",
          "ticks": 24768,
          "time": 106.758594,
          "velocity": 0.7244094488188977
        },
        {
          "duration": 0.8275859999999966,
          "durationTicks": 192,
          "midi": 45,
          "name": "A2",
          "ticks": 24768,
          "time": 106.758594,
          "velocity": 0.7244094488188977
        },
        {
          "duration": 0.4137929999999983,
          "durationTicks": 96,
          "midi": 57,
          "name": "A3",
          "ticks": 24816,
          "time": 106.9654905,
          "velocity": 0.7874015748031497
        },
        {
          "duration": 0.4137929999999983,
          "durationTicks": 96,
          "midi": 69,
          "name": "A4",
          "ticks": 24816,
          "time": 106.9654905,
          "velocity": 0.7559055118110236
        },
        {
          "duration": 0.20689650000001336,
          "durationTicks": 48,
          "midi": 68,
          "name": "G#4",
          "ticks": 24960,
          "time": 107.58618,
          "velocity": 0.7559055118110236
        },
        {
          "duration": 0.20689650000001336,
          "durationTicks": 48,
          "midi": 44,
          "name": "G#2",
          "ticks": 24960,
          "time": 107.58618,
          "velocity": 0.7874015748031497
        },
        {
          "duration": 0.20689650000001336,
          "durationTicks": 48,
          "midi": 37,
          "name": "C#2",
          "ticks": 24960,
          "time": 107.58618,
          "velocity": 0.7874015748031497
        },
        {
          "duration": 0.12931031250001013,
          "durationTicks": 30,
          "midi": 56,
          "name": "G#3",
          "ticks": 24960,
          "time": 107.58618,
          "velocity": 0.7874015748031497
        },
        {
          "duration": 0.20689649999999915,
          "durationTicks": 48,
          "midi": 68,
          "name": "G#4",
          "ticks": 25032,
          "time": 107.89652475000001,
          "velocity": 0.7559055118110236
        },
        {
          "duration": 0.12931031249999592,
          "durationTicks": 30,
          "midi": 56,
          "name": "G#3",
          "ticks": 25032,
          "time": 107.89652475000001,
          "velocity": 0.7874015748031497
        },
        {
          "duration": 0.20689649999999915,
          "durationTicks": 48,
          "midi": 37,
          "name": "C#2",
          "ticks": 25032,
          "time": 107.89652475000001,
          "velocity": 0.7874015748031497
        },
        {
          "duration": 0.20689649999999915,
          "durationTicks": 48,
          "midi": 44,
          "name": "G#2",
          "ticks": 25032,
          "time": 107.89652475000001,
          "velocity": 0.7874015748031497
        },
        {
          "duration": 0.20689649999999915,
          "durationTicks": 48,
          "midi": 68,
          "name": "G#4",
          "ticks": 25104,
          "time": 108.20686950000001,
          "velocity": 0.7559055118110236
        },
        {
          "duration": 0.10344824999999958,
          "durationTicks": 24,
          "midi": 44,
          "name": "G#2",
          "ticks": 25104,
          "time": 108.20686950000001,
          "velocity": 0.7874015748031497
        },
        {
          "duration": 0.10344824999999958,
          "durationTicks": 24,
          "midi": 37,
          "name": "C#2",
          "ticks": 25104,
          "time": 108.20686950000001,
          "velocity": 0.7874015748031497
        },
        {
          "duration": 0.12931031249999592,
          "durationTicks": 30,
          "midi": 56,
          "name": "G#3",
          "ticks": 25104,
          "time": 108.20686950000001,
          "velocity": 0.7874015748031497
        },
        {
          "duration": 0.6206894999999975,
          "durationTicks": 144,
          "midi": 59,
          "name": "B3",
          "ticks": 25152,
          "time": 108.41376600000001,
          "velocity": 0.7874015748031497
        },
        {
          "duration": 0.6206894999999975,
          "durationTicks": 144,
          "midi": 52,
          "name": "E3",
          "ticks": 25152,
          "time": 108.41376600000001,
          "velocity": 0.7874015748031497
        },
        {
          "duration": 0.6206894999999975,
          "durationTicks": 144,
          "midi": 56,
          "name": "G#3",
          "ticks": 25152,
          "time": 108.41376600000001,
          "velocity": 0.7874015748031497
        },
        {
          "duration": 0.6206894999999975,
          "durationTicks": 144,
          "midi": 40,
          "name": "E2",
          "ticks": 25152,
          "time": 108.41376600000001,
          "velocity": 0.6929133858267716
        },
        {
          "duration": 0.02586206249999634,
          "durationTicks": 6,
          "midi": 47,
          "name": "B2",
          "ticks": 25152,
          "time": 108.41376600000001,
          "velocity": 0.6929133858267716
        },
        {
          "duration": 0.8275859999999966,
          "durationTicks": 192,
          "midi": 71,
          "name": "B4",
          "ticks": 25152,
          "time": 108.41376600000001,
          "velocity": 0.7716535433070866
        },
        {
          "duration": 0.07758618749998902,
          "durationTicks": 18,
          "midi": 47,
          "name": "B2",
          "ticks": 25152,
          "time": 108.41376600000001,
          "velocity": 0.1732283464566929
        },
        {
          "duration": 0.07758618750000323,
          "durationTicks": 18,
          "midi": 47,
          "name": "B2",
          "ticks": 25164,
          "time": 108.465490125,
          "velocity": 0.1968503937007874
        },
        {
          "duration": 0.07758618750000323,
          "durationTicks": 18,
          "midi": 47,
          "name": "B2",
          "ticks": 25176,
          "time": 108.51721425000001,
          "velocity": 0.2125984251968504
        },
        {
          "duration": 0.07758618750000323,
          "durationTicks": 18,
          "midi": 47,
          "name": "B2",
          "ticks": 25188,
          "time": 108.568938375,
          "velocity": 0.23622047244094488
        },
        {
          "duration": 0.07758618750000323,
          "durationTicks": 18,
          "midi": 47,
          "name": "B2",
          "ticks": 25200,
          "time": 108.62066250000001,
          "velocity": 0.25984251968503935
        },
        {
          "duration": 0.07758618750000323,
          "durationTicks": 18,
          "midi": 47,
          "name": "B2",
          "ticks": 25212,
          "time": 108.672386625,
          "velocity": 0.2755905511811024
        },
        {
          "duration": 0.07758618750000323,
          "durationTicks": 18,
          "midi": 47,
          "name": "B2",
          "ticks": 25224,
          "time": 108.72411075000001,
          "velocity": 0.2992125984251969
        },
        {
          "duration": 0.07758618750000323,
          "durationTicks": 18,
          "midi": 47,
          "name": "B2",
          "ticks": 25236,
          "time": 108.775834875,
          "velocity": 0.3228346456692913
        },
        {
          "duration": 0.07758618750000323,
          "durationTicks": 18,
          "midi": 47,
          "name": "B2",
          "ticks": 25248,
          "time": 108.82755900000001,
          "velocity": 0.33858267716535434
        },
        {
          "duration": 0.07758618750000323,
          "durationTicks": 18,
          "midi": 47,
          "name": "B2",
          "ticks": 25260,
          "time": 108.879283125,
          "velocity": 0.36220472440944884
        },
        {
          "duration": 0.07758618750000323,
          "durationTicks": 18,
          "midi": 47,
          "name": "B2",
          "ticks": 25272,
          "time": 108.93100725000001,
          "velocity": 0.3858267716535433
        },
        {
          "duration": 0.05172412500000689,
          "durationTicks": 12,
          "midi": 47,
          "name": "B2",
          "ticks": 25284,
          "time": 108.982731375,
          "velocity": 0.4015748031496063
        },
        {
          "duration": 0.02586206249999634,
          "durationTicks": 6,
          "midi": 47,
          "name": "B2",
          "ticks": 25296,
          "time": 109.0344555,
          "velocity": 0.4251968503937008
        },
        {
          "duration": 0.025862062500010552,
          "durationTicks": 6,
          "midi": 47,
          "name": "B2",
          "ticks": 25308,
          "time": 109.086179625,
          "velocity": 0.44881889763779526
        },
        {
          "duration": 0.02586206249999634,
          "durationTicks": 6,
          "midi": 47,
          "name": "B2",
          "ticks": 25320,
          "time": 109.13790375,
          "velocity": 0.4645669291338583
        },
        {
          "duration": 0.025862062500010552,
          "durationTicks": 6,
          "midi": 47,
          "name": "B2",
          "ticks": 25332,
          "time": 109.189627875,
          "velocity": 0.4881889763779528
        },
        {
          "duration": 0.6206894999999975,
          "durationTicks": 144,
          "midi": 44,
          "name": "G#2",
          "ticks": 25344,
          "time": 109.241352,
          "velocity": 0.6929133858267716
        },
        {
          "duration": 0.05172412499999268,
          "durationTicks": 12,
          "midi": 37,
          "name": "C#2",
          "ticks": 25344,
          "time": 109.241352,
          "velocity": 0.6929133858267716
        },
        {
          "duration": 0.05172412499999268,
          "durationTicks": 12,
          "midi": 49,
          "name": "C#3",
          "ticks": 25344,
          "time": 109.241352,
          "velocity": 0.7637795275590551
        },
        {
          "duration": 0.15517237500000647,
          "durationTicks": 36,
          "midi": 37,
          "name": "C#2",
          "ticks": 25344,
          "time": 109.241352,
          "velocity": 0.7007874015748031
        },
        {
          "duration": 0.15517237500000647,
          "durationTicks": 36,
          "midi": 37,
          "name": "C#2",
          "ticks": 25368,
          "time": 109.34480025,
          "velocity": 0.7007874015748031
        },
        {
          "duration": 0.05172412500000689,
          "durationTicks": 12,
          "midi": 49,
          "name": "C#3",
          "ticks": 25368,
          "time": 109.34480025,
          "velocity": 0.7637795275590551
        },
        {
          "duration": 0.05172412500000689,
          "durationTicks": 12,
          "midi": 49,
          "name": "C#3",
          "ticks": 25392,
          "time": 109.4482485,
          "velocity": 0.7637795275590551
        },
        {
          "duration": 0.15517237500000647,
          "durationTicks": 36,
          "midi": 37,
          "name": "C#2",
          "ticks": 25392,
          "time": 109.4482485,
          "velocity": 0.7007874015748031
        },
        {
          "duration": 0.05172412500000689,
          "durationTicks": 12,
          "midi": 49,
          "name": "C#3",
          "ticks": 25416,
          "time": 109.55169675,
          "velocity": 0.7637795275590551
        },
        {
          "duration": 0.3103447499999987,
          "durationTicks": 72,
          "midi": 37,
          "name": "C#2",
          "ticks": 25416,
          "time": 109.55169675,
          "velocity": 0.7007874015748031
        },
        {
          "duration": 0.10344824999999958,
          "durationTicks": 24,
          "midi": 59,
          "name": "B3",
          "ticks": 25440,
          "time": 109.655145,
          "velocity": 0.7637795275590551
        },
        {
          "duration": 0.10344824999999958,
          "durationTicks": 24,
          "midi": 47,
          "name": "B2",
          "ticks": 25440,
          "time": 109.655145,
          "velocity": 0.7007874015748031
        },
        {
          "duration": 0.025862062500010552,
          "durationTicks": 6,
          "midi": 61,
          "name": "C#4",
          "ticks": 25461,
          "time": 109.74566221875,
          "velocity": 0.7637795275590551
        },
        {
          "duration": 0.025862062500010552,
          "durationTicks": 6,
          "midi": 49,
          "name": "C#3",
          "ticks": 25461,
          "time": 109.74566221875,
          "velocity": 0.7007874015748031
        },
        {
          "duration": 0.10344824999999958,
          "durationTicks": 24,
          "midi": 59,
          "name": "B3",
          "ticks": 25536,
          "time": 110.068938,
          "velocity": 0.7637795275590551
        },
        {
          "duration": 0.10344824999999958,
          "durationTicks": 24,
          "midi": 47,
          "name": "B2",
          "ticks": 25536,
          "time": 110.068938,
          "velocity": 0.7007874015748031
        },
        {
          "duration": 0.02586206249999634,
          "durationTicks": 6,
          "midi": 61,
          "name": "C#4",
          "ticks": 25557,
          "time": 110.15945521875001,
          "velocity": 0.7637795275590551
        },
        {
          "duration": 0.02586206249999634,
          "durationTicks": 6,
          "midi": 49,
          "name": "C#3",
          "ticks": 25557,
          "time": 110.15945521875001,
          "velocity": 0.7007874015748031
        },
        {
          "duration": 0.05172412500000689,
          "durationTicks": 12,
          "midi": 37,
          "name": "C#2",
          "ticks": 25632,
          "time": 110.482731,
          "velocity": 0.6929133858267716
        },
        {
          "duration": 0.20689649999999915,
          "durationTicks": 48,
          "midi": 44,
          "name": "G#2",
          "ticks": 25632,
          "time": 110.482731,
          "velocity": 0.6929133858267716
        },
        {
          "duration": 0.05172412500000689,
          "durationTicks": 12,
          "midi": 49,
          "name": "C#3",
          "ticks": 25632,
          "time": 110.482731,
          "velocity": 0.7637795275590551
        },
        {
          "duration": 0.15517237500000647,
          "durationTicks": 36,
          "midi": 37,
          "name": "C#2",
          "ticks": 25632,
          "time": 110.482731,
          "velocity": 0.7007874015748031
        },
        {
          "duration": 0.05172412500000689,
          "durationTicks": 12,
          "midi": 49,
          "name": "C#3",
          "ticks": 25656,
          "time": 110.58617925,
          "velocity": 0.7637795275590551
        },
        {
          "duration": 0.10344824999999958,
          "durationTicks": 24,
          "midi": 37,
          "name": "C#2",
          "ticks": 25656,
          "time": 110.58617925,
          "velocity": 0.7007874015748031
        },
        {
          "duration": 0.6206895000000117,
          "durationTicks": 144,
          "midi": 47,
          "name": "B2",
          "ticks": 25680,
          "time": 110.6896275,
          "velocity": 0.6929133858267716
        },
        {
          "duration": 0.05172412500000689,
          "durationTicks": 12,
          "midi": 40,
          "name": "E2",
          "ticks": 25680,
          "time": 110.6896275,
          "velocity": 0.6929133858267716
        },
        {
          "duration": 0.05172412500000689,
          "durationTicks": 12,
          "midi": 52,
          "name": "E3",
          "ticks": 25680,
          "time": 110.6896275,
          "velocity": 0.7637795275590551
        },
        {
          "duration": 0.15517237500000647,
          "durationTicks": 36,
          "midi": 40,
          "name": "E2",
          "ticks": 25680,
          "time": 110.6896275,
          "velocity": 0.7007874015748031
        },
        {
          "duration": 0.05172412500000689,
          "durationTicks": 12,
          "midi": 52,
          "name": "E3",
          "ticks": 25704,
          "time": 110.79307575,
          "velocity": 0.7637795275590551
        },
        {
          "duration": 0.15517237500000647,
          "durationTicks": 36,
          "midi": 40,
          "name": "E2",
          "ticks": 25704,
          "time": 110.79307575,
          "velocity": 0.7007874015748031
        },
        {
          "duration": 0.05172412500000689,
          "durationTicks": 12,
          "midi": 52,
          "name": "E3",
          "ticks": 25728,
          "time": 110.896524,
          "velocity": 0.7637795275590551
        },
        {
          "duration": 0.15517237500000647,
          "durationTicks": 36,
          "midi": 40,
          "name": "E2",
          "ticks": 25728,
          "time": 110.896524,
          "velocity": 0.7007874015748031
        },
        {
          "duration": 0.05172412500000689,
          "durationTicks": 12,
          "midi": 52,
          "name": "E3",
          "ticks": 25752,
          "time": 110.99997225,
          "velocity": 0.7637795275590551
        },
        {
          "duration": 0.15517237500000647,
          "durationTicks": 36,
          "midi": 40,
          "name": "E2",
          "ticks": 25752,
          "time": 110.99997225,
          "velocity": 0.7007874015748031
        },
        {
          "duration": 0.05172412499999268,
          "durationTicks": 12,
          "midi": 52,
          "name": "E3",
          "ticks": 25776,
          "time": 111.10342050000001,
          "velocity": 0.7637795275590551
        },
        {
          "duration": 0.15517237499999226,
          "durationTicks": 36,
          "midi": 40,
          "name": "E2",
          "ticks": 25776,
          "time": 111.10342050000001,
          "velocity": 0.7007874015748031
        },
        {
          "duration": 0.05172412499999268,
          "durationTicks": 12,
          "midi": 52,
          "name": "E3",
          "ticks": 25800,
          "time": 111.20686875000001,
          "velocity": 0.7637795275590551
        },
        {
          "duration": 0.10344824999999958,
          "durationTicks": 24,
          "midi": 40,
          "name": "E2",
          "ticks": 25800,
          "time": 111.20686875000001,
          "velocity": 0.7007874015748031
        },
        {
          "duration": 0.10344824999999958,
          "durationTicks": 24,
          "midi": 59,
          "name": "B3",
          "ticks": 25824,
          "time": 111.31031700000001,
          "velocity": 0.7637795275590551
        },
        {
          "duration": 0.10344824999999958,
          "durationTicks": 24,
          "midi": 47,
          "name": "B2",
          "ticks": 25824,
          "time": 111.31031700000001,
          "velocity": 0.7007874015748031
        },
        {
          "duration": 0.02586206249999634,
          "durationTicks": 6,
          "midi": 61,
          "name": "C#4",
          "ticks": 25845,
          "time": 111.40083421875,
          "velocity": 0.7637795275590551
        },
        {
          "duration": 0.02586206249999634,
          "durationTicks": 6,
          "midi": 49,
          "name": "C#3",
          "ticks": 25845,
          "time": 111.40083421875,
          "velocity": 0.7007874015748031
        },
        {
          "duration": 0.10344824999999958,
          "durationTicks": 24,
          "midi": 59,
          "name": "B3",
          "ticks": 25920,
          "time": 111.72411000000001,
          "velocity": 0.7637795275590551
        },
        {
          "duration": 0.10344824999999958,
          "durationTicks": 24,
          "midi": 47,
          "name": "B2",
          "ticks": 25920,
          "time": 111.72411000000001,
          "velocity": 0.7086614173228346
        },
        {
          "duration": 0.02586206249999634,
          "durationTicks": 6,
          "midi": 61,
          "name": "C#4",
          "ticks": 25941,
          "time": 111.81462721875,
          "velocity": 0.7637795275590551
        },
        {
          "duration": 0.02586206249999634,
          "durationTicks": 6,
          "midi": 49,
          "name": "C#3",
          "ticks": 25941,
          "time": 111.81462721875,
          "velocity": 0.7086614173228346
        },
        {
          "duration": 0.05172412499999268,
          "durationTicks": 12,
          "midi": 42,
          "name": "F#2",
          "ticks": 26016,
          "time": 112.13790300000001,
          "velocity": 0.6929133858267716
        },
        {
          "duration": 0.20689649999999915,
          "durationTicks": 48,
          "midi": 49,
          "name": "C#3",
          "ticks": 26016,
          "time": 112.13790300000001,
          "velocity": 0.6929133858267716
        },
        {
          "duration": 0.05172412499999268,
          "durationTicks": 12,
          "midi": 54,
          "name": "F#3",
          "ticks": 26016,
          "time": 112.13790300000001,
          "velocity": 0.7637795275590551
        },
        {
          "duration": 0.15517237499999226,
          "durationTicks": 36,
          "midi": 42,
          "name": "F#2",
          "ticks": 26016,
          "time": 112.13790300000001,
          "velocity": 0.7086614173228346
        },
        {
          "duration": 0.05172412499999268,
          "durationTicks": 12,
          "midi": 54,
          "name": "F#3",
          "ticks": 26040,
          "time": 112.24135125000001,
          "velocity": 0.7637795275590551
        },
        {
          "duration": 0.10344824999999958,
          "durationTicks": 24,
          "midi": 42,
          "name": "F#2",
          "ticks": 26040,
          "time": 112.24135125000001,
          "velocity": 0.7086614173228346
        },
        {
          "duration": 0.6206894999999975,
          "durationTicks": 144,
          "midi": 40,
          "name": "E2",
          "ticks": 26064,
          "time": 112.34479950000001,
          "velocity": 0.6929133858267716
        },
        {
          "duration": 0.05172412499999268,
          "durationTicks": 12,
          "midi": 47,
          "name": "B2",
          "ticks": 26064,
          "time": 112.34479950000001,
          "velocity": 0.6929133858267716
        },
        {
          "duration": 0.15517237499999226,
          "durationTicks": 36,
          "midi": 47,
          "name": "B2",
          "ticks": 26064,
          "time": 112.34479950000001,
          "velocity": 0.7637795275590551
        },
        {
          "duration": 0.05172412499999268,
          "durationTicks": 12,
          "midi": 35,
          "name": "B1",
          "ticks": 26064,
          "time": 112.34479950000001,
          "velocity": 0.7086614173228346
        },
        {
          "duration": 0.15517237499999226,
          "durationTicks": 36,
          "midi": 47,
          "name": "B2",
          "ticks": 26088,
          "time": 112.44824775000001,
          "velocity": 0.7637795275590551
        },
        {
          "duration": 0.05172412499999268,
          "durationTicks": 12,
          "midi": 35,
          "name": "B1",
          "ticks": 26088,
          "time": 112.44824775000001,
          "velocity": 0.7086614173228346
        },
        {
          "duration": 0.15517237499999226,
          "durationTicks": 36,
          "midi": 47,
          "name": "B2",
          "ticks": 26112,
          "time": 112.551696,
          "velocity": 0.7637795275590551
        },
        {
          "duration": 0.05172412499999268,
          "durationTicks": 12,
          "midi": 35,
          "name": "B1",
          "ticks": 26112,
          "time": 112.551696,
          "velocity": 0.7086614173228346
        },
        {
          "duration": 0.15517237500000647,
          "durationTicks": 36,
          "midi": 47,
          "name": "B2",
          "ticks": 26136,
          "time": 112.65514425,
          "velocity": 0.7637795275590551
        },
        {
          "duration": 0.05172412499999268,
          "durationTicks": 12,
          "midi": 35,
          "name": "B1",
          "ticks": 26136,
          "time": 112.65514425,
          "velocity": 0.7086614173228346
        },
        {
          "duration": 0.05172412500000689,
          "durationTicks": 12,
          "midi": 35,
          "name": "B1",
          "ticks": 26160,
          "time": 112.7585925,
          "velocity": 0.7086614173228346
        },
        {
          "duration": 0.15517237500000647,
          "durationTicks": 36,
          "midi": 47,
          "name": "B2",
          "ticks": 26160,
          "time": 112.7585925,
          "velocity": 0.7637795275590551
        },
        {
          "duration": 0.10344824999999958,
          "durationTicks": 24,
          "midi": 47,
          "name": "B2",
          "ticks": 26184,
          "time": 112.86204075,
          "velocity": 0.7637795275590551
        },
        {
          "duration": 0.05172412500000689,
          "durationTicks": 12,
          "midi": 35,
          "name": "B1",
          "ticks": 26184,
          "time": 112.86204075,
          "velocity": 0.7086614173228346
        },
        {
          "duration": 0.10344824999999958,
          "durationTicks": 24,
          "midi": 59,
          "name": "B3",
          "ticks": 26208,
          "time": 112.965489,
          "velocity": 0.7637795275590551
        },
        {
          "duration": 0.10344824999999958,
          "durationTicks": 24,
          "midi": 47,
          "name": "B2",
          "ticks": 26208,
          "time": 112.965489,
          "velocity": 0.7086614173228346
        },
        {
          "duration": 0.025862062500010552,
          "durationTicks": 6,
          "midi": 61,
          "name": "C#4",
          "ticks": 26229,
          "time": 113.05600621875,
          "velocity": 0.7637795275590551
        },
        {
          "duration": 0.025862062500010552,
          "durationTicks": 6,
          "midi": 49,
          "name": "C#3",
          "ticks": 26229,
          "time": 113.05600621875,
          "velocity": 0.7086614173228346
        },
        {
          "duration": 0.10344824999999958,
          "durationTicks": 24,
          "midi": 59,
          "name": "B3",
          "ticks": 26304,
          "time": 113.379282,
          "velocity": 0.7637795275590551
        },
        {
          "duration": 0.10344824999999958,
          "durationTicks": 24,
          "midi": 47,
          "name": "B2",
          "ticks": 26304,
          "time": 113.379282,
          "velocity": 0.7086614173228346
        },
        {
          "duration": 0.02586206249999634,
          "durationTicks": 6,
          "midi": 61,
          "name": "C#4",
          "ticks": 26325,
          "time": 113.46979921875001,
          "velocity": 0.7637795275590551
        },
        {
          "duration": 0.02586206249999634,
          "durationTicks": 6,
          "midi": 49,
          "name": "C#3",
          "ticks": 26325,
          "time": 113.46979921875001,
          "velocity": 0.7086614173228346
        },
        {
          "duration": 0.20689649999999915,
          "durationTicks": 48,
          "midi": 47,
          "name": "B2",
          "ticks": 26400,
          "time": 113.793075,
          "velocity": 0.6929133858267716
        },
        {
          "duration": 0.05172412500000689,
          "durationTicks": 12,
          "midi": 40,
          "name": "E2",
          "ticks": 26400,
          "time": 113.793075,
          "velocity": 0.6929133858267716
        },
        {
          "duration": 0.05172412500000689,
          "durationTicks": 12,
          "midi": 52,
          "name": "E3",
          "ticks": 26400,
          "time": 113.793075,
          "velocity": 0.7637795275590551
        },
        {
          "duration": 0.15517237500000647,
          "durationTicks": 36,
          "midi": 40,
          "name": "E2",
          "ticks": 26400,
          "time": 113.793075,
          "velocity": 0.7086614173228346
        },
        {
          "duration": 0.05172412500000689,
          "durationTicks": 12,
          "midi": 52,
          "name": "E3",
          "ticks": 26424,
          "time": 113.89652325,
          "velocity": 0.7637795275590551
        },
        {
          "duration": 0.10344824999999958,
          "durationTicks": 24,
          "midi": 40,
          "name": "E2",
          "ticks": 26424,
          "time": 113.89652325,
          "velocity": 0.7086614173228346
        },
        {
          "duration": 0.20689649999999915,
          "durationTicks": 48,
          "midi": 49,
          "name": "C#3",
          "ticks": 26448,
          "time": 113.9999715,
          "velocity": 0.6929133858267716
        },
        {
          "duration": 0.05172412500000689,
          "durationTicks": 12,
          "midi": 42,
          "name": "F#2",
          "ticks": 26448,
          "time": 113.9999715,
          "velocity": 0.6929133858267716
        },
        {
          "duration": 0.05172412500000689,
          "durationTicks": 12,
          "midi": 54,
          "name": "F#3",
          "ticks": 26448,
          "time": 113.9999715,
          "velocity": 0.7637795275590551
        },
        {
          "duration": 0.15517237500000647,
          "durationTicks": 36,
          "midi": 42,
          "name": "F#2",
          "ticks": 26448,
          "time": 113.9999715,
          "velocity": 0.7086614173228346
        },
        {
          "duration": 0.05172412500000689,
          "durationTicks": 12,
          "midi": 54,
          "name": "F#3",
          "ticks": 26472,
          "time": 114.10341975,
          "velocity": 0.7637795275590551
        },
        {
          "duration": 0.10344824999999958,
          "durationTicks": 24,
          "midi": 42,
          "name": "F#2",
          "ticks": 26472,
          "time": 114.10341975,
          "velocity": 0.7165354330708661
        },
        {
          "duration": 0.05172412500000689,
          "durationTicks": 12,
          "midi": 61,
          "name": "C#4",
          "ticks": 26496,
          "time": 114.206868,
          "velocity": 0.7874015748031497
        },
        {
          "duration": 0.05172412500000689,
          "durationTicks": 12,
          "midi": 49,
          "name": "C#3",
          "ticks": 26496,
          "time": 114.206868,
          "velocity": 0.7165354330708661
        },
        {
          "duration": 0.20689649999999915,
          "durationTicks": 48,
          "midi": 59,
          "name": "B3",
          "ticks": 26508,
          "time": 114.258592125,
          "velocity": 0.7874015748031497
        },
        {
          "duration": 0.20689649999999915,
          "durationTicks": 48,
          "midi": 47,
          "name": "B2",
          "ticks": 26508,
          "time": 114.258592125,
          "velocity": 0.6929133858267716
        },
        {
          "duration": 0.05172412500000689,
          "durationTicks": 12,
          "midi": 56,
          "name": "G#3",
          "ticks": 26520,
          "time": 114.31031625,
          "velocity": 0.25196850393700787
        },
        {
          "duration": 0.05172412500000689,
          "durationTicks": 12,
          "midi": 44,
          "name": "G#2",
          "ticks": 26520,
          "time": 114.31031625,
          "velocity": 0.25984251968503935
        },
        {
          "duration": 0.05172412499999268,
          "durationTicks": 12,
          "midi": 54,
          "name": "F#3",
          "ticks": 26532,
          "time": 114.362040375,
          "velocity": 0.25196850393700787
        },
        {
          "duration": 0.05172412499999268,
          "durationTicks": 12,
          "midi": 42,
          "name": "F#2",
          "ticks": 26532,
          "time": 114.362040375,
          "velocity": 0.25984251968503935
        },
        {
          "duration": 0.05172412500000689,
          "durationTicks": 12,
          "midi": 52,
          "name": "E3",
          "ticks": 26544,
          "time": 114.4137645,
          "velocity": 0.25196850393700787
        },
        {
          "duration": 0.05172412500000689,
          "durationTicks": 12,
          "midi": 40,
          "name": "E2",
          "ticks": 26544,
          "time": 114.4137645,
          "velocity": 0.25984251968503935
        },
        {
          "duration": 0.05172412500000689,
          "durationTicks": 12,
          "midi": 49,
          "name": "C#3",
          "ticks": 26556,
          "time": 114.465488625,
          "velocity": 0.25984251968503935
        },
        {
          "duration": 0.05172412500000689,
          "durationTicks": 12,
          "midi": 37,
          "name": "C#2",
          "ticks": 26556,
          "time": 114.465488625,
          "velocity": 0.25984251968503935
        },
        {
          "duration": 0.05172412499999268,
          "durationTicks": 12,
          "midi": 47,
          "name": "B2",
          "ticks": 26568,
          "time": 114.51721275000001,
          "velocity": 0.25984251968503935
        },
        {
          "duration": 0.05172412499999268,
          "durationTicks": 12,
          "midi": 35,
          "name": "B1",
          "ticks": 26568,
          "time": 114.51721275000001,
          "velocity": 0.2677165354330709
        },
        {
          "duration": 0.05172412500000689,
          "durationTicks": 12,
          "midi": 44,
          "name": "G#2",
          "ticks": 26580,
          "time": 114.568936875,
          "velocity": 0.25984251968503935
        },
        {
          "duration": 0.05172412500000689,
          "durationTicks": 12,
          "midi": 32,
          "name": "G#1",
          "ticks": 26580,
          "time": 114.568936875,
          "velocity": 0.2677165354330709
        },
        {
          "duration": 0.05172412499999268,
          "durationTicks": 12,
          "midi": 56,
          "name": "G#3",
          "ticks": 26592,
          "time": 114.62066100000001,
          "velocity": 0.7874015748031497
        },
        {
          "duration": 0.05172412499999268,
          "durationTicks": 12,
          "midi": 44,
          "name": "G#2",
          "ticks": 26592,
          "time": 114.62066100000001,
          "velocity": 0.6614173228346457
        },
        {
          "duration": 0.20689649999999915,
          "durationTicks": 48,
          "midi": 54,
          "name": "F#3",
          "ticks": 26604,
          "time": 114.672385125,
          "velocity": 0.7874015748031497
        },
        {
          "duration": 0.20689649999999915,
          "durationTicks": 48,
          "midi": 42,
          "name": "F#2",
          "ticks": 26604,
          "time": 114.672385125,
          "velocity": 0.6614173228346457
        },
        {
          "duration": 0.05172412499999268,
          "durationTicks": 12,
          "midi": 52,
          "name": "E3",
          "ticks": 26616,
          "time": 114.72410925000001,
          "velocity": 0.2677165354330709
        },
        {
          "duration": 0.05172412499999268,
          "durationTicks": 12,
          "midi": 40,
          "name": "E2",
          "ticks": 26616,
          "time": 114.72410925000001,
          "velocity": 0.2755905511811024
        },
        {
          "duration": 0.05172412500000689,
          "durationTicks": 12,
          "midi": 49,
          "name": "C#3",
          "ticks": 26628,
          "time": 114.775833375,
          "velocity": 0.2677165354330709
        },
        {
          "duration": 0.05172412500000689,
          "durationTicks": 12,
          "midi": 37,
          "name": "C#2",
          "ticks": 26628,
          "time": 114.775833375,
          "velocity": 0.2755905511811024
        },
        {
          "duration": 0.05172412499999268,
          "durationTicks": 12,
          "midi": 47,
          "name": "B2",
          "ticks": 26640,
          "time": 114.82755750000001,
          "velocity": 0.2755905511811024
        },
        {
          "duration": 0.05172412499999268,
          "durationTicks": 12,
          "midi": 35,
          "name": "B1",
          "ticks": 26640,
          "time": 114.82755750000001,
          "velocity": 0.2755905511811024
        },
        {
          "duration": 0.05172412500000689,
          "durationTicks": 12,
          "midi": 44,
          "name": "G#2",
          "ticks": 26652,
          "time": 114.879281625,
          "velocity": 0.2755905511811024
        },
        {
          "duration": 0.05172412500000689,
          "durationTicks": 12,
          "midi": 32,
          "name": "G#1",
          "ticks": 26652,
          "time": 114.879281625,
          "velocity": 0.2755905511811024
        },
        {
          "duration": 0.05172412499999268,
          "durationTicks": 12,
          "midi": 42,
          "name": "F#2",
          "ticks": 26664,
          "time": 114.93100575000001,
          "velocity": 0.2755905511811024
        },
        {
          "duration": 0.05172412499999268,
          "durationTicks": 12,
          "midi": 30,
          "name": "F#1",
          "ticks": 26664,
          "time": 114.93100575000001,
          "velocity": 0.2755905511811024
        },
        {
          "duration": 0.2327585624999955,
          "durationTicks": 54,
          "midi": 52,
          "name": "E3",
          "ticks": 26688,
          "time": 115.03445400000001,
          "velocity": 0.7874015748031497
        },
        {
          "duration": 0.2327585624999955,
          "durationTicks": 54,
          "midi": 40,
          "name": "E2",
          "ticks": 26688,
          "time": 115.03445400000001,
          "velocity": 0.7165354330708661
        },
        {
          "duration": 0.2327585624999955,
          "durationTicks": 54,
          "midi": 61,
          "name": "C#4",
          "ticks": 26736,
          "time": 115.24135050000001,
          "velocity": 0.7874015748031497
        },
        {
          "duration": 0.2327585624999955,
          "durationTicks": 54,
          "midi": 49,
          "name": "C#3",
          "ticks": 26736,
          "time": 115.24135050000001,
          "velocity": 0.7165354330708661
        },
        {
          "duration": 0.2327585624999955,
          "durationTicks": 54,
          "midi": 64,
          "name": "E4",
          "ticks": 26784,
          "time": 115.44824700000001,
          "velocity": 0.7874015748031497
        },
        {
          "duration": 0.2327585624999955,
          "durationTicks": 54,
          "midi": 52,
          "name": "E3",
          "ticks": 26784,
          "time": 115.44824700000001,
          "velocity": 0.7165354330708661
        },
        {
          "duration": 0.2327585624999955,
          "durationTicks": 54,
          "midi": 61,
          "name": "C#4",
          "ticks": 26832,
          "time": 115.65514350000001,
          "velocity": 0.7874015748031497
        },
        {
          "duration": 0.2327585624999955,
          "durationTicks": 54,
          "midi": 49,
          "name": "C#3",
          "ticks": 26832,
          "time": 115.65514350000001,
          "velocity": 0.7165354330708661
        },
        {
          "duration": 0.6206894999999975,
          "durationTicks": 144,
          "midi": 44,
          "name": "G#2",
          "ticks": 26880,
          "time": 115.86204000000001,
          "velocity": 0.6929133858267716
        },
        {
          "duration": 0.05172412499999268,
          "durationTicks": 12,
          "midi": 37,
          "name": "C#2",
          "ticks": 26880,
          "time": 115.86204000000001,
          "velocity": 0.6929133858267716
        },
        {
          "duration": 0.05172412499999268,
          "durationTicks": 12,
          "midi": 49,
          "name": "C#3",
          "ticks": 26880,
          "time": 115.86204000000001,
          "velocity": 0.7401574803149606
        },
        {
          "duration": 0.15517237499999226,
          "durationTicks": 36,
          "midi": 37,
          "name": "C#2",
          "ticks": 26880,
          "time": 115.86204000000001,
          "velocity": 0.7165354330708661
        },
        {
          "duration": 0.05172412499999268,
          "durationTicks": 12,
          "midi": 49,
          "name": "C#3",
          "ticks": 26904,
          "time": 115.96548825,
          "velocity": 0.7401574803149606
        },
        {
          "duration": 0.15517237499999226,
          "durationTicks": 36,
          "midi": 37,
          "name": "C#2",
          "ticks": 26904,
          "time": 115.96548825,
          "velocity": 0.7165354330708661
        },
        {
          "duration": 0.05172412499999268,
          "durationTicks": 12,
          "midi": 49,
          "name": "C#3",
          "ticks": 26928,
          "time": 116.0689365,
          "velocity": 0.7401574803149606
        },
        {
          "duration": 0.15517237500000647,
          "durationTicks": 36,
          "midi": 37,
          "name": "C#2",
          "ticks": 26928,
          "time": 116.0689365,
          "velocity": 0.7165354330708661
        },
        {
          "duration": 0.05172412500000689,
          "durationTicks": 12,
          "midi": 49,
          "name": "C#3",
          "ticks": 26952,
          "time": 116.17238475,
          "velocity": 0.7401574803149606
        },
        {
          "duration": 0.3103447499999987,
          "durationTicks": 72,
          "midi": 37,
          "name": "C#2",
          "ticks": 26952,
          "time": 116.17238475,
          "velocity": 0.7165354330708661
        },
        {
          "duration": 0.10344824999999958,
          "durationTicks": 24,
          "midi": 59,
          "name": "B3",
          "ticks": 26976,
          "time": 116.275833,
          "velocity": 0.7637795275590551
        },
        {
          "duration": 0.10344824999999958,
          "durationTicks": 24,
          "midi": 47,
          "name": "B2",
          "ticks": 26976,
          "time": 116.275833,
          "velocity": 0.7165354330708661
        },
        {
          "duration": 0.025862062500010552,
          "durationTicks": 6,
          "midi": 61,
          "name": "C#4",
          "ticks": 26997,
          "time": 116.36635021875,
          "velocity": 0.7637795275590551
        },
        {
          "duration": 0.025862062500010552,
          "durationTicks": 6,
          "midi": 49,
          "name": "C#3",
          "ticks": 26997,
          "time": 116.36635021875,
          "velocity": 0.7165354330708661
        },
        {
          "duration": 0.10344824999999958,
          "durationTicks": 24,
          "midi": 59,
          "name": "B3",
          "ticks": 27072,
          "time": 116.689626,
          "velocity": 0.7637795275590551
        },
        {
          "duration": 0.10344824999999958,
          "durationTicks": 24,
          "midi": 47,
          "name": "B2",
          "ticks": 27072,
          "time": 116.689626,
          "velocity": 0.7244094488188977
        },
        {
          "duration": 0.02586206249999634,
          "durationTicks": 6,
          "midi": 61,
          "name": "C#4",
          "ticks": 27093,
          "time": 116.78014321875001,
          "velocity": 0.7637795275590551
        },
        {
          "duration": 0.02586206249999634,
          "durationTicks": 6,
          "midi": 49,
          "name": "C#3",
          "ticks": 27093,
          "time": 116.78014321875001,
          "velocity": 0.7244094488188977
        },
        {
          "duration": 0.6206894999999975,
          "durationTicks": 144,
          "midi": 47,
          "name": "B2",
          "ticks": 27168,
          "time": 117.103419,
          "velocity": 0.6929133858267716
        },
        {
          "duration": 0.05172412500000689,
          "durationTicks": 12,
          "midi": 40,
          "name": "E2",
          "ticks": 27168,
          "time": 117.103419,
          "velocity": 0.6929133858267716
        },
        {
          "duration": 0.05172412500000689,
          "durationTicks": 12,
          "midi": 52,
          "name": "E3",
          "ticks": 27168,
          "time": 117.103419,
          "velocity": 0.7401574803149606
        },
        {
          "duration": 0.15517237500000647,
          "durationTicks": 36,
          "midi": 40,
          "name": "E2",
          "ticks": 27168,
          "time": 117.103419,
          "velocity": 0.7244094488188977
        },
        {
          "duration": 0.05172412500000689,
          "durationTicks": 12,
          "midi": 52,
          "name": "E3",
          "ticks": 27192,
          "time": 117.20686725,
          "velocity": 0.7401574803149606
        },
        {
          "duration": 0.15517237500000647,
          "durationTicks": 36,
          "midi": 40,
          "name": "E2",
          "ticks": 27192,
          "time": 117.20686725,
          "velocity": 0.7244094488188977
        },
        {
          "duration": 0.05172412500000689,
          "durationTicks": 12,
          "midi": 52,
          "name": "E3",
          "ticks": 27216,
          "time": 117.3103155,
          "velocity": 0.7401574803149606
        },
        {
          "duration": 0.15517237500000647,
          "durationTicks": 36,
          "midi": 40,
          "name": "E2",
          "ticks": 27216,
          "time": 117.3103155,
          "velocity": 0.7244094488188977
        },
        {
          "duration": 0.05172412500000689,
          "durationTicks": 12,
          "midi": 52,
          "name": "E3",
          "ticks": 27240,
          "time": 117.41376375,
          "velocity": 0.7401574803149606
        },
        {
          "duration": 0.15517237500000647,
          "durationTicks": 36,
          "midi": 40,
          "name": "E2",
          "ticks": 27240,
          "time": 117.41376375,
          "velocity": 0.7244094488188977
        },
        {
          "duration": 0.05172412500000689,
          "durationTicks": 12,
          "midi": 52,
          "name": "E3",
          "ticks": 27264,
          "time": 117.517212,
          "velocity": 0.7401574803149606
        },
        {
          "duration": 0.15517237500000647,
          "durationTicks": 36,
          "midi": 40,
          "name": "E2",
          "ticks": 27264,
          "time": 117.517212,
          "velocity": 0.7244094488188977
        },
        {
          "duration": 0.05172412500000689,
          "durationTicks": 12,
          "midi": 52,
          "name": "E3",
          "ticks": 27288,
          "time": 117.62066025,
          "velocity": 0.7401574803149606
        },
        {
          "duration": 0.10344824999999958,
          "durationTicks": 24,
          "midi": 40,
          "name": "E2",
          "ticks": 27288,
          "time": 117.62066025,
          "velocity": 0.7244094488188977
        },
        {
          "duration": 0.05172412500000689,
          "durationTicks": 12,
          "midi": 52,
          "name": "E3",
          "ticks": 27312,
          "time": 117.7241085,
          "velocity": 0.7401574803149606
        },
        {
          "duration": 0.05172412500000689,
          "durationTicks": 12,
          "midi": 40,
          "name": "E2",
          "ticks": 27312,
          "time": 117.7241085,
          "velocity": 0.7244094488188977
        },
        {
          "duration": 0.05172412500000689,
          "durationTicks": 12,
          "midi": 52,
          "name": "E3",
          "ticks": 27336,
          "time": 117.82755675,
          "velocity": 0.7401574803149606
        },
        {
          "duration": 0.05172412500000689,
          "durationTicks": 12,
          "midi": 40,
          "name": "E2",
          "ticks": 27336,
          "time": 117.82755675,
          "velocity": 0.7244094488188977
        },
        {
          "duration": 0.10344824999999958,
          "durationTicks": 24,
          "midi": 59,
          "name": "B3",
          "ticks": 27360,
          "time": 117.93100500000001,
          "velocity": 0.7637795275590551
        },
        {
          "duration": 0.10344824999999958,
          "durationTicks": 24,
          "midi": 47,
          "name": "B2",
          "ticks": 27360,
          "time": 117.93100500000001,
          "velocity": 0.7244094488188977
        },
        {
          "duration": 0.02586206249999634,
          "durationTicks": 6,
          "midi": 61,
          "name": "C#4",
          "ticks": 27381,
          "time": 118.02152221875001,
          "velocity": 0.7637795275590551
        },
        {
          "duration": 0.02586206249999634,
          "durationTicks": 6,
          "midi": 49,
          "name": "C#3",
          "ticks": 27381,
          "time": 118.02152221875001,
          "velocity": 0.7244094488188977
        },
        {
          "duration": 0.10344824999999958,
          "durationTicks": 24,
          "midi": 59,
          "name": "B3",
          "ticks": 27456,
          "time": 118.34479800000001,
          "velocity": 0.7637795275590551
        },
        {
          "duration": 0.10344824999999958,
          "durationTicks": 24,
          "midi": 47,
          "name": "B2",
          "ticks": 27456,
          "time": 118.34479800000001,
          "velocity": 0.7244094488188977
        },
        {
          "duration": 0.02586206249999634,
          "durationTicks": 6,
          "midi": 61,
          "name": "C#4",
          "ticks": 27477,
          "time": 118.43531521875,
          "velocity": 0.7637795275590551
        },
        {
          "duration": 0.02586206249999634,
          "durationTicks": 6,
          "midi": 49,
          "name": "C#3",
          "ticks": 27477,
          "time": 118.43531521875,
          "velocity": 0.7244094488188977
        },
        {
          "duration": 0.3103447499999987,
          "durationTicks": 72,
          "midi": 35,
          "name": "B1",
          "ticks": 27552,
          "time": 118.75859100000001,
          "velocity": 0.7007874015748031
        },
        {
          "duration": 0.3103447499999987,
          "durationTicks": 72,
          "midi": 42,
          "name": "F#2",
          "ticks": 27552,
          "time": 118.75859100000001,
          "velocity": 0.7007874015748031
        },
        {
          "duration": 0.05172412499999268,
          "durationTicks": 12,
          "midi": 49,
          "name": "C#3",
          "ticks": 27552,
          "time": 118.75859100000001,
          "velocity": 0.7401574803149606
        },
        {
          "duration": 0.05172412499999268,
          "durationTicks": 12,
          "midi": 61,
          "name": "C#4",
          "ticks": 27552,
          "time": 118.75859100000001,
          "velocity": 0.7244094488188977
        },
        {
          "duration": 0.05172412499999268,
          "durationTicks": 12,
          "midi": 49,
          "name": "C#3",
          "ticks": 27576,
          "time": 118.86203925000001,
          "velocity": 0.7401574803149606
        },
        {
          "duration": 0.05172412499999268,
          "durationTicks": 12,
          "midi": 61,
          "name": "C#4",
          "ticks": 27576,
          "time": 118.86203925000001,
          "velocity": 0.7244094488188977
        },
        {
          "duration": 0.05172412499999268,
          "durationTicks": 12,
          "midi": 49,
          "name": "C#3",
          "ticks": 27600,
          "time": 118.96548750000001,
          "velocity": 0.7401574803149606
        },
        {
          "duration": 0.05172412499999268,
          "durationTicks": 12,
          "midi": 61,
          "name": "C#4",
          "ticks": 27600,
          "time": 118.96548750000001,
          "velocity": 0.7244094488188977
        },
        {
          "duration": 0.05172412499999268,
          "durationTicks": 12,
          "midi": 49,
          "name": "C#3",
          "ticks": 27624,
          "time": 119.06893575000001,
          "velocity": 0.7401574803149606
        },
        {
          "duration": 0.05172412499999268,
          "durationTicks": 12,
          "midi": 61,
          "name": "C#4",
          "ticks": 27624,
          "time": 119.06893575000001,
          "velocity": 0.7244094488188977
        },
        {
          "duration": 0.6206894999999975,
          "durationTicks": 144,
          "midi": 44,
          "name": "G#2",
          "ticks": 27648,
          "time": 119.17238400000001,
          "velocity": 0.6929133858267716
        },
        {
          "duration": 0.05172412499999268,
          "durationTicks": 12,
          "midi": 37,
          "name": "C#2",
          "ticks": 27648,
          "time": 119.17238400000001,
          "velocity": 0.7322834645669292
        },
        {
          "duration": 0.05172412499999268,
          "durationTicks": 12,
          "midi": 49,
          "name": "C#3",
          "ticks": 27648,
          "time": 119.17238400000001,
          "velocity": 0.7401574803149606
        },
        {
          "duration": 0.15517237499999226,
          "durationTicks": 36,
          "midi": 37,
          "name": "C#2",
          "ticks": 27648,
          "time": 119.17238400000001,
          "velocity": 0.6929133858267716
        },
        {
          "duration": 0.05172412499999268,
          "durationTicks": 12,
          "midi": 49,
          "name": "C#3",
          "ticks": 27672,
          "time": 119.27583225000001,
          "velocity": 0.7401574803149606
        },
        {
          "duration": 0.15517237499999226,
          "durationTicks": 36,
          "midi": 37,
          "name": "C#2",
          "ticks": 27672,
          "time": 119.27583225000001,
          "velocity": 0.7322834645669292
        },
        {
          "duration": 0.05172412499999268,
          "durationTicks": 12,
          "midi": 49,
          "name": "C#3",
          "ticks": 27696,
          "time": 119.37928050000001,
          "velocity": 0.7401574803149606
        },
        {
          "duration": 0.15517237499999226,
          "durationTicks": 36,
          "midi": 37,
          "name": "C#2",
          "ticks": 27696,
          "time": 119.37928050000001,
          "velocity": 0.7322834645669292
        },
        {
          "duration": 0.05172412499999268,
          "durationTicks": 12,
          "midi": 49,
          "name": "C#3",
          "ticks": 27720,
          "time": 119.48272875,
          "velocity": 0.7401574803149606
        },
        {
          "duration": 0.3103447499999987,
          "durationTicks": 72,
          "midi": 37,
          "name": "C#2",
          "ticks": 27720,
          "time": 119.48272875,
          "velocity": 0.7322834645669292
        },
        {
          "duration": 0.10344824999999958,
          "durationTicks": 24,
          "midi": 59,
          "name": "B3",
          "ticks": 27744,
          "time": 119.586177,
          "velocity": 0.7637795275590551
        },
        {
          "duration": 0.10344824999999958,
          "durationTicks": 24,
          "midi": 47,
          "name": "B2",
          "ticks": 27744,
          "time": 119.586177,
          "velocity": 0.7322834645669292
        },
        {
          "duration": 0.025862062500010552,
          "durationTicks": 6,
          "midi": 61,
          "name": "C#4",
          "ticks": 27765,
          "time": 119.67669421875,
          "velocity": 0.7637795275590551
        },
        {
          "duration": 0.025862062500010552,
          "durationTicks": 6,
          "midi": 49,
          "name": "C#3",
          "ticks": 27765,
          "time": 119.67669421875,
          "velocity": 0.7322834645669292
        },
        {
          "duration": 0.10344824999999958,
          "durationTicks": 24,
          "midi": 59,
          "name": "B3",
          "ticks": 27840,
          "time": 119.99997,
          "velocity": 0.7637795275590551
        },
        {
          "duration": 0.10344824999999958,
          "durationTicks": 24,
          "midi": 47,
          "name": "B2",
          "ticks": 27840,
          "time": 119.99997,
          "velocity": 0.7322834645669292
        },
        {
          "duration": 0.02586206249999634,
          "durationTicks": 6,
          "midi": 61,
          "name": "C#4",
          "ticks": 27861,
          "time": 120.09048721875001,
          "velocity": 0.7637795275590551
        },
        {
          "duration": 0.02586206249999634,
          "durationTicks": 6,
          "midi": 49,
          "name": "C#3",
          "ticks": 27861,
          "time": 120.09048721875001,
          "velocity": 0.7322834645669292
        },
        {
          "duration": 0.05172412500000689,
          "durationTicks": 12,
          "midi": 42,
          "name": "F#2",
          "ticks": 27936,
          "time": 120.413763,
          "velocity": 0.6692913385826772
        },
        {
          "duration": 0.05172412500000689,
          "durationTicks": 12,
          "midi": 54,
          "name": "F#3",
          "ticks": 27936,
          "time": 120.413763,
          "velocity": 0.6692913385826772
        },
        {
          "duration": 0.15517237500000647,
          "durationTicks": 36,
          "midi": 42,
          "name": "F#2",
          "ticks": 27936,
          "time": 120.413763,
          "velocity": 0.5748031496062992
        },
        {
          "duration": 0.8275859999999966,
          "durationTicks": 192,
          "midi": 37,
          "name": "C#2",
          "ticks": 27936,
          "time": 120.413763,
          "velocity": 0.5748031496062992
        },
        {
          "duration": 0.15517237500000647,
          "durationTicks": 36,
          "midi": 42,
          "name": "F#2",
          "ticks": 27960,
          "time": 120.51721125,
          "velocity": 0.6692913385826772
        },
        {
          "duration": 0.05172412500000689,
          "durationTicks": 12,
          "midi": 54,
          "name": "F#3",
          "ticks": 27960,
          "time": 120.51721125,
          "velocity": 0.6692913385826772
        },
        {
          "duration": 0.15517237500000647,
          "durationTicks": 36,
          "midi": 42,
          "name": "F#2",
          "ticks": 27984,
          "time": 120.6206595,
          "velocity": 0.6692913385826772
        },
        {
          "duration": 0.05172412500000689,
          "durationTicks": 12,
          "midi": 54,
          "name": "F#3",
          "ticks": 27984,
          "time": 120.6206595,
          "velocity": 0.6692913385826772
        },
        {
          "duration": 0.15517237500000647,
          "durationTicks": 36,
          "midi": 42,
          "name": "F#2",
          "ticks": 28008,
          "time": 120.72410775,
          "velocity": 0.6692913385826772
        },
        {
          "duration": 0.05172412500000689,
          "durationTicks": 12,
          "midi": 54,
          "name": "F#3",
          "ticks": 28008,
          "time": 120.72410775,
          "velocity": 0.6692913385826772
        },
        {
          "duration": 0.15517237500000647,
          "durationTicks": 36,
          "midi": 42,
          "name": "F#2",
          "ticks": 28032,
          "time": 120.827556,
          "velocity": 0.6692913385826772
        },
        {
          "duration": 0.05172412500000689,
          "durationTicks": 12,
          "midi": 54,
          "name": "F#3",
          "ticks": 28032,
          "time": 120.827556,
          "velocity": 0.6692913385826772
        },
        {
          "duration": 0.15517237500000647,
          "durationTicks": 36,
          "midi": 42,
          "name": "F#2",
          "ticks": 28056,
          "time": 120.93100425,
          "velocity": 0.6692913385826772
        },
        {
          "duration": 0.05172412500000689,
          "durationTicks": 12,
          "midi": 54,
          "name": "F#3",
          "ticks": 28056,
          "time": 120.93100425,
          "velocity": 0.6692913385826772
        },
        {
          "duration": 0.15517237500000647,
          "durationTicks": 36,
          "midi": 42,
          "name": "F#2",
          "ticks": 28080,
          "time": 121.0344525,
          "velocity": 0.6692913385826772
        },
        {
          "duration": 0.05172412500000689,
          "durationTicks": 12,
          "midi": 54,
          "name": "F#3",
          "ticks": 28080,
          "time": 121.0344525,
          "velocity": 0.6692913385826772
        },
        {
          "duration": 0.10344824999999958,
          "durationTicks": 24,
          "midi": 42,
          "name": "F#2",
          "ticks": 28104,
          "time": 121.13790075,
          "velocity": 0.6692913385826772
        },
        {
          "duration": 0.05172412500000689,
          "durationTicks": 12,
          "midi": 54,
          "name": "F#3",
          "ticks": 28104,
          "time": 121.13790075,
          "velocity": 0.6692913385826772
        },
        {
          "duration": 0.20689650000001336,
          "durationTicks": 48,
          "midi": 37,
          "name": "C#2",
          "ticks": 28128,
          "time": 121.241349,
          "velocity": 0.2283464566929134
        },
        {
          "duration": 0.05172412500000689,
          "durationTicks": 12,
          "midi": 42,
          "name": "F#2",
          "ticks": 28128,
          "time": 121.241349,
          "velocity": 0.6692913385826772
        },
        {
          "duration": 0.05172412500000689,
          "durationTicks": 12,
          "midi": 54,
          "name": "F#3",
          "ticks": 28128,
          "time": 121.241349,
          "velocity": 0.6692913385826772
        },
        {
          "duration": 0.05172412499999268,
          "durationTicks": 12,
          "midi": 42,
          "name": "F#2",
          "ticks": 28152,
          "time": 121.34479725000001,
          "velocity": 0.6692913385826772
        },
        {
          "duration": 0.05172412499999268,
          "durationTicks": 12,
          "midi": 54,
          "name": "F#3",
          "ticks": 28152,
          "time": 121.34479725000001,
          "velocity": 0.6692913385826772
        },
        {
          "duration": 0.05172412499999268,
          "durationTicks": 12,
          "midi": 42,
          "name": "F#2",
          "ticks": 28176,
          "time": 121.44824550000001,
          "velocity": 0.6692913385826772
        },
        {
          "duration": 0.05172412499999268,
          "durationTicks": 12,
          "midi": 54,
          "name": "F#3",
          "ticks": 28176,
          "time": 121.44824550000001,
          "velocity": 0.6692913385826772
        },
        {
          "duration": 0.05172412499999268,
          "durationTicks": 12,
          "midi": 42,
          "name": "F#2",
          "ticks": 28200,
          "time": 121.55169375000001,
          "velocity": 0.6692913385826772
        },
        {
          "duration": 0.05172412499999268,
          "durationTicks": 12,
          "midi": 54,
          "name": "F#3",
          "ticks": 28200,
          "time": 121.55169375000001,
          "velocity": 0.6692913385826772
        },
        {
          "duration": 0.20689649999999915,
          "durationTicks": 48,
          "midi": 37,
          "name": "C#2",
          "ticks": 28224,
          "time": 121.65514200000001,
          "velocity": 0.1968503937007874
        },
        {
          "duration": 0.02586206249999634,
          "durationTicks": 6,
          "midi": 42,
          "name": "F#2",
          "ticks": 28224,
          "time": 121.65514200000001,
          "velocity": 0.1968503937007874
        },
        {
          "duration": 0.07758618749998902,
          "durationTicks": 18,
          "midi": 42,
          "name": "F#2",
          "ticks": 28224,
          "time": 121.65514200000001,
          "velocity": 0.14960629921259844
        },
        {
          "duration": 0.02586206249999634,
          "durationTicks": 6,
          "midi": 54,
          "name": "F#3",
          "ticks": 28224,
          "time": 121.65514200000001,
          "velocity": 0.15748031496062992
        },
        {
          "duration": 0.02586206249999634,
          "durationTicks": 6,
          "midi": 54,
          "name": "F#3",
          "ticks": 28236,
          "time": 121.706866125,
          "velocity": 0.1968503937007874
        },
        {
          "duration": 0.07758618750000323,
          "durationTicks": 18,
          "midi": 42,
          "name": "F#2",
          "ticks": 28236,
          "time": 121.706866125,
          "velocity": 0.1889763779527559
        },
        {
          "duration": 0.07758618749998902,
          "durationTicks": 18,
          "midi": 42,
          "name": "F#2",
          "ticks": 28248,
          "time": 121.75859025000001,
          "velocity": 0.2283464566929134
        },
        {
          "duration": 0.02586206249999634,
          "durationTicks": 6,
          "midi": 54,
          "name": "F#3",
          "ticks": 28248,
          "time": 121.75859025000001,
          "velocity": 0.23622047244094488
        },
        {
          "duration": 0.05172412500000689,
          "durationTicks": 12,
          "midi": 42,
          "name": "F#2",
          "ticks": 28260,
          "time": 121.810314375,
          "velocity": 0.2677165354330709
        },
        {
          "duration": 0.02586206249999634,
          "durationTicks": 6,
          "midi": 54,
          "name": "F#3",
          "ticks": 28260,
          "time": 121.810314375,
          "velocity": 0.2755905511811024
        },
        {
          "duration": 0.02586206249999634,
          "durationTicks": 6,
          "midi": 42,
          "name": "F#2",
          "ticks": 28272,
          "time": 121.86203850000001,
          "velocity": 0.3700787401574803
        },
        {
          "duration": 0.20689649999999915,
          "durationTicks": 48,
          "midi": 37,
          "name": "C#2",
          "ticks": 28272,
          "time": 121.86203850000001,
          "velocity": 0.3700787401574803
        },
        {
          "duration": 0.07758618749998902,
          "durationTicks": 18,
          "midi": 42,
          "name": "F#2",
          "ticks": 28272,
          "time": 121.86203850000001,
          "velocity": 0.2992125984251969
        },
        {
          "duration": 0.02586206249999634,
          "durationTicks": 6,
          "midi": 54,
          "name": "F#3",
          "ticks": 28272,
          "time": 121.86203850000001,
          "velocity": 0.3228346456692913
        },
        {
          "duration": 0.02586206249999634,
          "durationTicks": 6,
          "midi": 54,
          "name": "F#3",
          "ticks": 28284,
          "time": 121.913762625,
          "velocity": 0.36220472440944884
        },
        {
          "duration": 0.07758618750000323,
          "durationTicks": 18,
          "midi": 42,
          "name": "F#2",
          "ticks": 28284,
          "time": 121.913762625,
          "velocity": 0.33858267716535434
        },
        {
          "duration": 0.02586206249999634,
          "durationTicks": 6,
          "midi": 54,
          "name": "F#3",
          "ticks": 28296,
          "time": 121.96548675000001,
          "velocity": 0.4015748031496063
        },
        {
          "duration": 0.07758618749998902,
          "durationTicks": 18,
          "midi": 42,
          "name": "F#2",
          "ticks": 28296,
          "time": 121.96548675000001,
          "velocity": 0.3779527559055118
        },
        {
          "duration": 0.02586206249999634,
          "durationTicks": 6,
          "midi": 54,
          "name": "F#3",
          "ticks": 28308,
          "time": 122.017210875,
          "velocity": 0.4409448818897638
        },
        {
          "duration": 0.05172412500000689,
          "durationTicks": 12,
          "midi": 42,
          "name": "F#2",
          "ticks": 28308,
          "time": 122.017210875,
          "velocity": 0.41732283464566927
        },
        {
          "duration": 0.02586206249999634,
          "durationTicks": 6,
          "midi": 54,
          "name": "F#3",
          "ticks": 28320,
          "time": 122.06893500000001,
          "velocity": 0.4881889763779528
        },
        {
          "duration": 0.02586206249999634,
          "durationTicks": 6,
          "midi": 42,
          "name": "F#2",
          "ticks": 28320,
          "time": 122.06893500000001,
          "velocity": 0.44881889763779526
        },
        {
          "duration": 0.07758618749998902,
          "durationTicks": 18,
          "midi": 42,
          "name": "F#2",
          "ticks": 28320,
          "time": 122.06893500000001,
          "velocity": 0.5354330708661418
        },
        {
          "duration": 0.20689649999999915,
          "durationTicks": 48,
          "midi": 37,
          "name": "C#2",
          "ticks": 28320,
          "time": 122.06893500000001,
          "velocity": 0.5354330708661418
        },
        {
          "duration": 0.02586206249999634,
          "durationTicks": 6,
          "midi": 54,
          "name": "F#3",
          "ticks": 28332,
          "time": 122.120659125,
          "velocity": 0.5275590551181102
        },
        {
          "duration": 0.07758618750000323,
          "durationTicks": 18,
          "midi": 42,
          "name": "F#2",
          "ticks": 28332,
          "time": 122.120659125,
          "velocity": 0.4881889763779528
        },
        {
          "duration": 0.02586206249999634,
          "durationTicks": 6,
          "midi": 54,
          "name": "F#3",
          "ticks": 28344,
          "time": 122.17238325000001,
          "velocity": 0.5669291338582677
        },
        {
          "duration": 0.07758618750000323,
          "durationTicks": 18,
          "midi": 42,
          "name": "F#2",
          "ticks": 28344,
          "time": 122.17238325000001,
          "velocity": 0.5275590551181102
        },
        {
          "duration": 0.025862062500010552,
          "durationTicks": 6,
          "midi": 54,
          "name": "F#3",
          "ticks": 28356,
          "time": 122.224107375,
          "velocity": 0.6062992125984252
        },
        {
          "duration": 0.05172412500000689,
          "durationTicks": 12,
          "midi": 42,
          "name": "F#2",
          "ticks": 28356,
          "time": 122.224107375,
          "velocity": 0.5590551181102362
        },
        {
          "duration": 0.02586206249999634,
          "durationTicks": 6,
          "midi": 42,
          "name": "F#2",
          "ticks": 28368,
          "time": 122.27583150000001,
          "velocity": 0.7007874015748031
        },
        {
          "duration": 0.20689649999999915,
          "durationTicks": 48,
          "midi": 37,
          "name": "C#2",
          "ticks": 28368,
          "time": 122.27583150000001,
          "velocity": 0.7007874015748031
        },
        {
          "duration": 0.02586206249999634,
          "durationTicks": 6,
          "midi": 54,
          "name": "F#3",
          "ticks": 28368,
          "time": 122.27583150000001,
          "velocity": 0.6535433070866141
        },
        {
          "duration": 0.07758618750000323,
          "durationTicks": 18,
          "midi": 42,
          "name": "F#2",
          "ticks": 28368,
          "time": 122.27583150000001,
          "velocity": 0.5984251968503937
        },
        {
          "duration": 0.025862062500010552,
          "durationTicks": 6,
          "midi": 54,
          "name": "F#3",
          "ticks": 28380,
          "time": 122.327555625,
          "velocity": 0.6929133858267716
        },
        {
          "duration": 0.07758618750000323,
          "durationTicks": 18,
          "midi": 42,
          "name": "F#2",
          "ticks": 28380,
          "time": 122.327555625,
          "velocity": 0.6377952755905512
        },
        {
          "duration": 0.02586206249999634,
          "durationTicks": 6,
          "midi": 54,
          "name": "F#3",
          "ticks": 28392,
          "time": 122.37927975000001,
          "velocity": 0.7322834645669292
        },
        {
          "duration": 0.07758618750000323,
          "durationTicks": 18,
          "midi": 42,
          "name": "F#2",
          "ticks": 28392,
          "time": 122.37927975000001,
          "velocity": 0.6771653543307087
        },
        {
          "duration": 0.025862062500010552,
          "durationTicks": 6,
          "midi": 54,
          "name": "F#3",
          "ticks": 28404,
          "time": 122.431003875,
          "velocity": 0.7716535433070866
        },
        {
          "duration": 0.05172412500000689,
          "durationTicks": 12,
          "midi": 42,
          "name": "F#2",
          "ticks": 28404,
          "time": 122.431003875,
          "velocity": 0.7165354330708661
        },
        {
          "duration": 0.4137929999999983,
          "durationTicks": 96,
          "midi": 47,
          "name": "B2",
          "ticks": 28416,
          "time": 122.48272800000001,
          "velocity": 0.7716535433070866
        },
        {
          "duration": 0.20689649999999915,
          "durationTicks": 48,
          "midi": 40,
          "name": "E2",
          "ticks": 28416,
          "time": 122.48272800000001,
          "velocity": 0.7716535433070866
        },
        {
          "duration": 0.20689649999999915,
          "durationTicks": 48,
          "midi": 52,
          "name": "E3",
          "ticks": 28416,
          "time": 122.48272800000001,
          "velocity": 0.7401574803149606
        },
        {
          "duration": 0.6206894999999975,
          "durationTicks": 144,
          "midi": 40,
          "name": "E2",
          "ticks": 28416,
          "time": 122.48272800000001,
          "velocity": 0.7007874015748031
        },
        {
          "duration": 0.10344824999999958,
          "durationTicks": 24,
          "midi": 56,
          "name": "G#3",
          "ticks": 28464,
          "time": 122.68962450000001,
          "velocity": 0.7401574803149606
        },
        {
          "duration": 0.6206894999999975,
          "durationTicks": 144,
          "midi": 47,
          "name": "B2",
          "ticks": 28464,
          "time": 122.68962450000001,
          "velocity": 0.7007874015748031
        },
        {
          "duration": 0.10344824999999958,
          "durationTicks": 24,
          "midi": 54,
          "name": "F#3",
          "ticks": 28488,
          "time": 122.79307275000001,
          "velocity": 0.7401574803149606
        },
        {
          "duration": 0.10344824999999958,
          "durationTicks": 24,
          "midi": 56,
          "name": "G#3",
          "ticks": 28512,
          "time": 122.896521,
          "velocity": 0.7401574803149606
        },
        {
          "duration": 0.6206894999999975,
          "durationTicks": 144,
          "midi": 40,
          "name": "E2",
          "ticks": 28512,
          "time": 122.896521,
          "velocity": 0.7007874015748031
        },
        {
          "duration": 0.10344824999999958,
          "durationTicks": 24,
          "midi": 54,
          "name": "F#3",
          "ticks": 28536,
          "time": 122.99996925,
          "velocity": 0.7401574803149606
        },
        {
          "duration": 0.20689649999999915,
          "durationTicks": 48,
          "midi": 52,
          "name": "E3",
          "ticks": 28560,
          "time": 123.1034175,
          "velocity": 0.7401574803149606
        },
        {
          "duration": 0.6206894999999975,
          "durationTicks": 144,
          "midi": 47,
          "name": "B2",
          "ticks": 28560,
          "time": 123.1034175,
          "velocity": 0.7007874015748031
        },
        {
          "duration": 0.10344824999999958,
          "durationTicks": 24,
          "midi": 54,
          "name": "F#3",
          "ticks": 28608,
          "time": 123.310314,
          "velocity": 0.7401574803149606
        },
        {
          "duration": 0.6206894999999975,
          "durationTicks": 144,
          "midi": 40,
          "name": "E2",
          "ticks": 28608,
          "time": 123.310314,
          "velocity": 0.7007874015748031
        },
        {
          "duration": 0.10344824999999958,
          "durationTicks": 24,
          "midi": 52,
          "name": "E3",
          "ticks": 28632,
          "time": 123.41376225,
          "velocity": 0.7401574803149606
        },
        {
          "duration": 0.6206894999999975,
          "durationTicks": 144,
          "midi": 47,
          "name": "B2",
          "ticks": 28656,
          "time": 123.5172105,
          "velocity": 0.7007874015748031
        },
        {
          "duration": 0.10344824999999958,
          "durationTicks": 24,
          "midi": 52,
          "name": "E3",
          "ticks": 28704,
          "time": 123.724107,
          "velocity": 0.7401574803149606
        },
        {
          "duration": 0.6206894999999975,
          "durationTicks": 144,
          "midi": 40,
          "name": "E2",
          "ticks": 28704,
          "time": 123.724107,
          "velocity": 0.7007874015748031
        },
        {
          "duration": 0.10344824999999958,
          "durationTicks": 24,
          "midi": 54,
          "name": "F#3",
          "ticks": 28752,
          "time": 123.9310035,
          "velocity": 0.7401574803149606
        },
        {
          "duration": 0.6206894999999975,
          "durationTicks": 144,
          "midi": 47,
          "name": "B2",
          "ticks": 28752,
          "time": 123.9310035,
          "velocity": 0.7007874015748031
        },
        {
          "duration": 0.6206895000000117,
          "durationTicks": 144,
          "midi": 40,
          "name": "E2",
          "ticks": 28800,
          "time": 124.1379,
          "velocity": 0.7007874015748031
        },
        {
          "duration": 0.20689649999999915,
          "durationTicks": 48,
          "midi": 52,
          "name": "E3",
          "ticks": 28800,
          "time": 124.1379,
          "velocity": 0.7401574803149606
        },
        {
          "duration": 0.10344824999999958,
          "durationTicks": 24,
          "midi": 56,
          "name": "G#3",
          "ticks": 28848,
          "time": 124.3447965,
          "velocity": 0.7401574803149606
        },
        {
          "duration": 0.6206895000000117,
          "durationTicks": 144,
          "midi": 47,
          "name": "B2",
          "ticks": 28848,
          "time": 124.3447965,
          "velocity": 0.7007874015748031
        },
        {
          "duration": 0.10344824999999958,
          "durationTicks": 24,
          "midi": 54,
          "name": "F#3",
          "ticks": 28872,
          "time": 124.44824475,
          "velocity": 0.7401574803149606
        },
        {
          "duration": 0.10344824999999958,
          "durationTicks": 24,
          "midi": 56,
          "name": "G#3",
          "ticks": 28896,
          "time": 124.551693,
          "velocity": 0.7401574803149606
        },
        {
          "duration": 0.4137930000000125,
          "durationTicks": 96,
          "midi": 40,
          "name": "E2",
          "ticks": 28896,
          "time": 124.551693,
          "velocity": 0.7007874015748031
        },
        {
          "duration": 0.10344825000001379,
          "durationTicks": 24,
          "midi": 54,
          "name": "F#3",
          "ticks": 28920,
          "time": 124.65514125,
          "velocity": 0.7401574803149606
        },
        {
          "duration": 0.20689649999999915,
          "durationTicks": 48,
          "midi": 52,
          "name": "E3",
          "ticks": 28944,
          "time": 124.75858950000001,
          "velocity": 0.7401574803149606
        },
        {
          "duration": 0.20689649999999915,
          "durationTicks": 48,
          "midi": 47,
          "name": "B2",
          "ticks": 28944,
          "time": 124.75858950000001,
          "velocity": 0.7007874015748031
        },
        {
          "duration": 0.20689649999999915,
          "durationTicks": 48,
          "midi": 40,
          "name": "E2",
          "ticks": 28992,
          "time": 124.96548600000001,
          "velocity": 0.7007874015748031
        },
        {
          "duration": 0.10344824999999958,
          "durationTicks": 24,
          "midi": 61,
          "name": "C#4",
          "ticks": 28992,
          "time": 124.96548600000001,
          "velocity": 0.7401574803149606
        },
        {
          "duration": 0.10344824999999958,
          "durationTicks": 24,
          "midi": 59,
          "name": "B3",
          "ticks": 29016,
          "time": 125.06893425000001,
          "velocity": 0.7401574803149606
        },
        {
          "duration": 0.10344824999999958,
          "durationTicks": 24,
          "midi": 56,
          "name": "G#3",
          "ticks": 29040,
          "time": 125.17238250000001,
          "velocity": 0.7401574803149606
        },
        {
          "duration": 0.20689649999999915,
          "durationTicks": 48,
          "midi": 47,
          "name": "B2",
          "ticks": 29040,
          "time": 125.17238250000001,
          "velocity": 0.7007874015748031
        },
        {
          "duration": 0.10344824999999958,
          "durationTicks": 24,
          "midi": 54,
          "name": "F#3",
          "ticks": 29064,
          "time": 125.27583075000001,
          "velocity": 0.7401574803149606
        },
        {
          "duration": 0.20689649999999915,
          "durationTicks": 48,
          "midi": 40,
          "name": "E2",
          "ticks": 29088,
          "time": 125.37927900000001,
          "velocity": 0.7007874015748031
        },
        {
          "duration": 0.10344824999999958,
          "durationTicks": 24,
          "midi": 64,
          "name": "E4",
          "ticks": 29088,
          "time": 125.37927900000001,
          "velocity": 0.7401574803149606
        },
        {
          "duration": 0.10344824999999958,
          "durationTicks": 24,
          "midi": 61,
          "name": "C#4",
          "ticks": 29112,
          "time": 125.48272725000001,
          "velocity": 0.7401574803149606
        },
        {
          "duration": 0.10344824999999958,
          "durationTicks": 24,
          "midi": 59,
          "name": "B3",
          "ticks": 29136,
          "time": 125.58617550000001,
          "velocity": 0.7401574803149606
        },
        {
          "duration": 0.20689649999999915,
          "durationTicks": 48,
          "midi": 47,
          "name": "B2",
          "ticks": 29136,
          "time": 125.58617550000001,
          "velocity": 0.7007874015748031
        },
        {
          "duration": 0.10344824999999958,
          "durationTicks": 24,
          "midi": 56,
          "name": "G#3",
          "ticks": 29160,
          "time": 125.68962375000001,
          "velocity": 0.7401574803149606
        },
        {
          "duration": 0.20689649999999915,
          "durationTicks": 48,
          "midi": 45,
          "name": "A2",
          "ticks": 29184,
          "time": 125.79307200000001,
          "velocity": 0.7716535433070866
        },
        {
          "duration": 0.3103447499999987,
          "durationTicks": 72,
          "midi": 92,
          "name": "G#6",
          "ticks": 29184,
          "time": 125.79307200000001,
          "velocity": 0.7716535433070866
        },
        {
          "duration": 0.6206894999999975,
          "durationTicks": 144,
          "midi": 45,
          "name": "A2",
          "ticks": 29184,
          "time": 125.79307200000001,
          "velocity": 0.7086614173228346
        },
        {
          "duration": 0.20689649999999915,
          "durationTicks": 48,
          "midi": 57,
          "name": "A3",
          "ticks": 29184,
          "time": 125.79307200000001,
          "velocity": 0.7401574803149606
        },
        {
          "duration": 0.20689649999999915,
          "durationTicks": 48,
          "midi": 52,
          "name": "E3",
          "ticks": 29232,
          "time": 125.99996850000001,
          "velocity": 0.7086614173228346
        },
        {
          "duration": 0.10344824999999958,
          "durationTicks": 24,
          "midi": 61,
          "name": "C#4",
          "ticks": 29232,
          "time": 125.99996850000001,
          "velocity": 0.7480314960629921
        },
        {
          "duration": 0.10344824999999958,
          "durationTicks": 24,
          "midi": 59,
          "name": "B3",
          "ticks": 29256,
          "time": 126.10341675000001,
          "velocity": 0.7480314960629921
        },
        {
          "duration": 0.3103447499999987,
          "durationTicks": 72,
          "midi": 90,
          "name": "F#6",
          "ticks": 29256,
          "time": 126.10341675000001,
          "velocity": 0.7716535433070866
        },
        {
          "duration": 0.10344824999999958,
          "durationTicks": 24,
          "midi": 61,
          "name": "C#4",
          "ticks": 29280,
          "time": 126.20686500000001,
          "velocity": 0.7480314960629921
        },
        {
          "duration": 0.6206894999999975,
          "durationTicks": 144,
          "midi": 45,
          "name": "A2",
          "ticks": 29280,
          "time": 126.20686500000001,
          "velocity": 0.7086614173228346
        },
        {
          "duration": 0.10344824999999958,
          "durationTicks": 24,
          "midi": 59,
          "name": "B3",
          "ticks": 29304,
          "time": 126.31031325000001,
          "velocity": 0.7480314960629921
        },
        {
          "duration": 0.20689649999999915,
          "durationTicks": 48,
          "midi": 57,
          "name": "A3",
          "ticks": 29328,
          "time": 126.4137615,
          "velocity": 0.7480314960629921
        },
        {
          "duration": 0.4137929999999983,
          "durationTicks": 96,
          "midi": 92,
          "name": "G#6",
          "ticks": 29328,
          "time": 126.4137615,
          "velocity": 0.7716535433070866
        },
        {
          "duration": 0.20689649999999915,
          "durationTicks": 48,
          "midi": 52,
          "name": "E3",
          "ticks": 29328,
          "time": 126.4137615,
          "velocity": 0.7086614173228346
        },
        {
          "duration": 0.6206894999999975,
          "durationTicks": 144,
          "midi": 45,
          "name": "A2",
          "ticks": 29376,
          "time": 126.620658,
          "velocity": 0.7086614173228346
        },
        {
          "duration": 0.10344824999999958,
          "durationTicks": 24,
          "midi": 59,
          "name": "B3",
          "ticks": 29376,
          "time": 126.620658,
          "velocity": 0.7480314960629921
        },
        {
          "duration": 0.10344824999999958,
          "durationTicks": 24,
          "midi": 57,
          "name": "A3",
          "ticks": 29400,
          "time": 126.72410625,
          "velocity": 0.7480314960629921
        },
        {
          "duration": 0.4137929999999983,
          "durationTicks": 96,
          "midi": 90,
          "name": "F#6",
          "ticks": 29424,
          "time": 126.8275545,
          "velocity": 0.7716535433070866
        },
        {
          "duration": 0.20689649999999915,
          "durationTicks": 48,
          "midi": 52,
          "name": "E3",
          "ticks": 29424,
          "time": 126.8275545,
          "velocity": 0.7086614173228346
        },
        {
          "duration": 0.10344824999999958,
          "durationTicks": 24,
          "midi": 57,
          "name": "A3",
          "ticks": 29472,
          "time": 127.034451,
          "velocity": 0.7480314960629921
        },
        {
          "duration": 0.6206894999999975,
          "durationTicks": 144,
          "midi": 45,
          "name": "A2",
          "ticks": 29472,
          "time": 127.034451,
          "velocity": 0.7086614173228346
        },
        {
          "duration": 0.10344824999999958,
          "durationTicks": 24,
          "midi": 59,
          "name": "B3",
          "ticks": 29520,
          "time": 127.2413475,
          "velocity": 0.7480314960629921
        },
        {
          "duration": 0.4137929999999983,
          "durationTicks": 96,
          "midi": 92,
          "name": "G#6",
          "ticks": 29520,
          "time": 127.2413475,
          "velocity": 0.7716535433070866
        },
        {
          "duration": 0.20689649999999915,
          "durationTicks": 48,
          "midi": 52,
          "name": "E3",
          "ticks": 29520,
          "time": 127.2413475,
          "velocity": 0.7086614173228346
        },
        {
          "duration": 0.20689649999999915,
          "durationTicks": 48,
          "midi": 57,
          "name": "A3",
          "ticks": 29568,
          "time": 127.448244,
          "velocity": 0.7480314960629921
        },
        {
          "duration": 0.6206895000000117,
          "durationTicks": 144,
          "midi": 45,
          "name": "A2",
          "ticks": 29568,
          "time": 127.448244,
          "velocity": 0.7086614173228346
        },
        {
          "duration": 0.10344824999999958,
          "durationTicks": 24,
          "midi": 61,
          "name": "C#4",
          "ticks": 29616,
          "time": 127.6551405,
          "velocity": 0.7480314960629921
        },
        {
          "duration": 0.4137930000000125,
          "durationTicks": 96,
          "midi": 90,
          "name": "F#6",
          "ticks": 29616,
          "time": 127.6551405,
          "velocity": 0.7716535433070866
        },
        {
          "duration": 0.20689649999999915,
          "durationTicks": 48,
          "midi": 52,
          "name": "E3",
          "ticks": 29616,
          "time": 127.6551405,
          "velocity": 0.7086614173228346
        },
        {
          "duration": 0.10344824999999958,
          "durationTicks": 24,
          "midi": 59,
          "name": "B3",
          "ticks": 29640,
          "time": 127.75858875,
          "velocity": 0.7480314960629921
        },
        {
          "duration": 0.4137930000000125,
          "durationTicks": 96,
          "midi": 45,
          "name": "A2",
          "ticks": 29664,
          "time": 127.862037,
          "velocity": 0.7086614173228346
        },
        {
          "duration": 0.10344824999999958,
          "durationTicks": 24,
          "midi": 61,
          "name": "C#4",
          "ticks": 29664,
          "time": 127.862037,
          "velocity": 0.7480314960629921
        },
        {
          "duration": 0.10344825000001379,
          "durationTicks": 24,
          "midi": 59,
          "name": "B3",
          "ticks": 29688,
          "time": 127.96548525,
          "velocity": 0.7480314960629921
        },
        {
          "duration": 0.20689649999999915,
          "durationTicks": 48,
          "midi": 57,
          "name": "A3",
          "ticks": 29712,
          "time": 128.0689335,
          "velocity": 0.7480314960629921
        },
        {
          "duration": 1.0344824999999958,
          "durationTicks": 240,
          "midi": 92,
          "name": "G#6",
          "ticks": 29712,
          "time": 128.0689335,
          "velocity": 0.7716535433070866
        },
        {
          "duration": 0.20689649999999915,
          "durationTicks": 48,
          "midi": 52,
          "name": "E3",
          "ticks": 29712,
          "time": 128.0689335,
          "velocity": 0.7086614173228346
        },
        {
          "duration": 0.15517237500000647,
          "durationTicks": 36,
          "midi": 66,
          "name": "F#4",
          "ticks": 29760,
          "time": 128.27583,
          "velocity": 0.7480314960629921
        },
        {
          "duration": 0.20689649999999915,
          "durationTicks": 48,
          "midi": 45,
          "name": "A2",
          "ticks": 29760,
          "time": 128.27583,
          "velocity": 0.7086614173228346
        },
        {
          "duration": 0.15517237500000647,
          "durationTicks": 36,
          "midi": 64,
          "name": "E4",
          "ticks": 29784,
          "time": 128.37927825,
          "velocity": 0.7480314960629921
        },
        {
          "duration": 0.15517237500000647,
          "durationTicks": 36,
          "midi": 61,
          "name": "C#4",
          "ticks": 29808,
          "time": 128.4827265,
          "velocity": 0.7480314960629921
        },
        {
          "duration": 0.20689649999999915,
          "durationTicks": 48,
          "midi": 52,
          "name": "E3",
          "ticks": 29808,
          "time": 128.4827265,
          "velocity": 0.7086614173228346
        },
        {
          "duration": 0.15517237500000647,
          "durationTicks": 36,
          "midi": 59,
          "name": "B3",
          "ticks": 29832,
          "time": 128.58617475,
          "velocity": 0.7480314960629921
        },
        {
          "duration": 0.15517237500000647,
          "durationTicks": 36,
          "midi": 69,
          "name": "A4",
          "ticks": 29856,
          "time": 128.689623,
          "velocity": 0.7480314960629921
        },
        {
          "duration": 0.20689649999999915,
          "durationTicks": 48,
          "midi": 45,
          "name": "A2",
          "ticks": 29856,
          "time": 128.689623,
          "velocity": 0.7086614173228346
        },
        {
          "duration": 0.15517237500000647,
          "durationTicks": 36,
          "midi": 66,
          "name": "F#4",
          "ticks": 29880,
          "time": 128.79307125,
          "velocity": 0.7480314960629921
        },
        {
          "duration": 0.15517237500000647,
          "durationTicks": 36,
          "midi": 64,
          "name": "E4",
          "ticks": 29904,
          "time": 128.8965195,
          "velocity": 0.7480314960629921
        },
        {
          "duration": 0.20689649999999915,
          "durationTicks": 48,
          "midi": 52,
          "name": "E3",
          "ticks": 29904,
          "time": 128.8965195,
          "velocity": 0.7086614173228346
        },
        {
          "duration": 0.15517237500000647,
          "durationTicks": 36,
          "midi": 61,
          "name": "C#4",
          "ticks": 29928,
          "time": 128.99996775,
          "velocity": 0.7480314960629921
        },
        {
          "duration": 3.3103439999999864,
          "durationTicks": 768,
          "midi": 54,
          "name": "F#3",
          "ticks": 29952,
          "time": 129.103416,
          "velocity": 0.7716535433070866
        },
        {
          "duration": 0.8275859999999966,
          "durationTicks": 192,
          "midi": 37,
          "name": "C#2",
          "ticks": 29952,
          "time": 129.103416,
          "velocity": 0.6929133858267716
        },
        {
          "duration": 0.20689649999999915,
          "durationTicks": 48,
          "midi": 42,
          "name": "F#2",
          "ticks": 29952,
          "time": 129.103416,
          "velocity": 0.7716535433070866
        },
        {
          "duration": 3.3103439999999864,
          "durationTicks": 768,
          "midi": 66,
          "name": "F#4",
          "ticks": 29952,
          "time": 129.103416,
          "velocity": 0.7716535433070866
        },
        {
          "duration": 0.20689649999999915,
          "durationTicks": 48,
          "midi": 42,
          "name": "F#2",
          "ticks": 30048,
          "time": 129.517209,
          "velocity": 0.7716535433070866
        },
        {
          "duration": 2.48275799999999,
          "durationTicks": 576,
          "midi": 56,
          "name": "G#3",
          "ticks": 30144,
          "time": 129.931002,
          "velocity": 0.7716535433070866
        },
        {
          "duration": 0.8275859999999966,
          "durationTicks": 192,
          "midi": 40,
          "name": "E2",
          "ticks": 30144,
          "time": 129.931002,
          "velocity": 0.6929133858267716
        },
        {
          "duration": 0.20689649999999915,
          "durationTicks": 48,
          "midi": 44,
          "name": "G#2",
          "ticks": 30144,
          "time": 129.931002,
          "velocity": 0.7716535433070866
        },
        {
          "duration": 2.48275799999999,
          "durationTicks": 576,
          "midi": 68,
          "name": "G#4",
          "ticks": 30144,
          "time": 129.931002,
          "velocity": 0.7716535433070866
        },
        {
          "duration": 0.20689649999999915,
          "durationTicks": 48,
          "midi": 44,
          "name": "G#2",
          "ticks": 30240,
          "time": 130.344795,
          "velocity": 0.7716535433070866
        },
        {
          "duration": 0.8275859999999966,
          "durationTicks": 192,
          "midi": 42,
          "name": "F#2",
          "ticks": 30336,
          "time": 130.758588,
          "velocity": 0.6929133858267716
        },
        {
          "duration": 1.6551719999999932,
          "durationTicks": 384,
          "midi": 59,
          "name": "B3",
          "ticks": 30336,
          "time": 130.758588,
          "velocity": 0.7716535433070866
        },
        {
          "duration": 0.20689649999999915,
          "durationTicks": 48,
          "midi": 47,
          "name": "B2",
          "ticks": 30336,
          "time": 130.758588,
          "velocity": 0.7716535433070866
        },
        {
          "duration": 1.6551719999999932,
          "durationTicks": 384,
          "midi": 71,
          "name": "B4",
          "ticks": 30336,
          "time": 130.758588,
          "velocity": 0.7716535433070866
        },
        {
          "duration": 0.31034475000001294,
          "durationTicks": 72,
          "midi": 73,
          "name": "C#5",
          "ticks": 30432,
          "time": 131.172381,
          "velocity": 0.8188976377952756
        },
        {
          "duration": 0.20689649999999915,
          "durationTicks": 48,
          "midi": 47,
          "name": "B2",
          "ticks": 30432,
          "time": 131.172381,
          "velocity": 0.7716535433070866
        },
        {
          "duration": 0.31034475000001294,
          "durationTicks": 72,
          "midi": 85,
          "name": "C#6",
          "ticks": 30432,
          "time": 131.172381,
          "velocity": 0.8188976377952756
        },
        {
          "duration": 0.8275859999999966,
          "durationTicks": 192,
          "midi": 44,
          "name": "G#2",
          "ticks": 30528,
          "time": 131.586174,
          "velocity": 0.6929133858267716
        },
        {
          "duration": 0.8275859999999966,
          "durationTicks": 192,
          "midi": 73,
          "name": "C#5",
          "ticks": 30528,
          "time": 131.586174,
          "velocity": 0.7716535433070866
        },
        {
          "duration": 0.8275859999999966,
          "durationTicks": 192,
          "midi": 49,
          "name": "C#3",
          "ticks": 30528,
          "time": 131.586174,
          "velocity": 0.7716535433070866
        },
        {
          "duration": 0.8275859999999966,
          "durationTicks": 192,
          "midi": 61,
          "name": "C#4",
          "ticks": 30528,
          "time": 131.586174,
          "velocity": 0.7716535433070866
        },
        {
          "duration": 0.31034475000001294,
          "durationTicks": 72,
          "midi": 76,
          "name": "E5",
          "ticks": 30528,
          "time": 131.586174,
          "velocity": 0.8188976377952756
        },
        {
          "duration": 0.31034475000001294,
          "durationTicks": 72,
          "midi": 88,
          "name": "E6",
          "ticks": 30528,
          "time": 131.586174,
          "velocity": 0.8188976377952756
        },
        {
          "duration": 0.31034475000001294,
          "durationTicks": 72,
          "midi": 78,
          "name": "F#5",
          "ticks": 30624,
          "time": 131.999967,
          "velocity": 0.8188976377952756
        },
        {
          "duration": 0.31034475000001294,
          "durationTicks": 72,
          "midi": 90,
          "name": "F#6",
          "ticks": 30624,
          "time": 131.999967,
          "velocity": 0.8188976377952756
        },
        {
          "duration": 0.051724125000021104,
          "durationTicks": 12,
          "midi": 49,
          "name": "C#3",
          "ticks": 30720,
          "time": 132.41376,
          "velocity": 0.7716535433070866
        },
        {
          "duration": 0.8275859999999966,
          "durationTicks": 192,
          "midi": 37,
          "name": "C#2",
          "ticks": 30720,
          "time": 132.41376,
          "velocity": 0.7716535433070866
        },
        {
          "duration": 0.8275859999999966,
          "durationTicks": 192,
          "midi": 44,
          "name": "G#2",
          "ticks": 30720,
          "time": 132.41376,
          "velocity": 0.7716535433070866
        },
        {
          "duration": 0.15517237500000647,
          "durationTicks": 36,
          "midi": 49,
          "name": "C#3",
          "ticks": 30720,
          "time": 132.41376,
          "velocity": 0.7716535433070866
        },
        {
          "duration": 0.051724125000021104,
          "durationTicks": 12,
          "midi": 61,
          "name": "C#4",
          "ticks": 30720,
          "time": 132.41376,
          "velocity": 0.7716535433070866
        },
        {
          "duration": 0.15517237500000647,
          "durationTicks": 36,
          "midi": 49,
          "name": "C#3",
          "ticks": 30744,
          "time": 132.51720825,
          "velocity": 0.7716535433070866
        },
        {
          "duration": 0.05172412499999268,
          "durationTicks": 12,
          "midi": 61,
          "name": "C#4",
          "ticks": 30744,
          "time": 132.51720825,
          "velocity": 0.7716535433070866
        },
        {
          "duration": 0.15517237500000647,
          "durationTicks": 36,
          "midi": 49,
          "name": "C#3",
          "ticks": 30768,
          "time": 132.6206565,
          "velocity": 0.7716535433070866
        },
        {
          "duration": 0.051724125000021104,
          "durationTicks": 12,
          "midi": 61,
          "name": "C#4",
          "ticks": 30768,
          "time": 132.6206565,
          "velocity": 0.7716535433070866
        },
        {
          "duration": 0.15517237500000647,
          "durationTicks": 36,
          "midi": 49,
          "name": "C#3",
          "ticks": 30792,
          "time": 132.72410475,
          "velocity": 0.7716535433070866
        },
        {
          "duration": 0.05172412499999268,
          "durationTicks": 12,
          "midi": 61,
          "name": "C#4",
          "ticks": 30792,
          "time": 132.72410475,
          "velocity": 0.7716535433070866
        },
        {
          "duration": 0.15517237500000647,
          "durationTicks": 36,
          "midi": 49,
          "name": "C#3",
          "ticks": 30816,
          "time": 132.827553,
          "velocity": 0.7716535433070866
        },
        {
          "duration": 0.051724125000021104,
          "durationTicks": 12,
          "midi": 61,
          "name": "C#4",
          "ticks": 30816,
          "time": 132.827553,
          "velocity": 0.7716535433070866
        },
        {
          "duration": 0.15517237500000647,
          "durationTicks": 36,
          "midi": 49,
          "name": "C#3",
          "ticks": 30840,
          "time": 132.93100125,
          "velocity": 0.7716535433070866
        },
        {
          "duration": 0.05172412499999268,
          "durationTicks": 12,
          "midi": 61,
          "name": "C#4",
          "ticks": 30840,
          "time": 132.93100125,
          "velocity": 0.7716535433070866
        },
        {
          "duration": 0.15517237500000647,
          "durationTicks": 36,
          "midi": 49,
          "name": "C#3",
          "ticks": 30864,
          "time": 133.0344495,
          "velocity": 0.7716535433070866
        },
        {
          "duration": 0.051724125000021104,
          "durationTicks": 12,
          "midi": 61,
          "name": "C#4",
          "ticks": 30864,
          "time": 133.0344495,
          "velocity": 0.7716535433070866
        },
        {
          "duration": 0.10344824999998536,
          "durationTicks": 24,
          "midi": 49,
          "name": "C#3",
          "ticks": 30888,
          "time": 133.13789775,
          "velocity": 0.7716535433070866
        },
        {
          "duration": 0.05172412499999268,
          "durationTicks": 12,
          "midi": 61,
          "name": "C#4",
          "ticks": 30888,
          "time": 133.13789775,
          "velocity": 0.7716535433070866
        },
        {
          "duration": 0.02586206249998213,
          "durationTicks": 6,
          "midi": 91,
          "name": "G6",
          "ticks": 30906,
          "time": 133.2154839375,
          "velocity": 0.8188976377952756
        },
        {
          "duration": 0.02586206249998213,
          "durationTicks": 6,
          "midi": 79,
          "name": "G5",
          "ticks": 30906,
          "time": 133.2154839375,
          "velocity": 0.8188976377952756
        },
        {
          "duration": 0.4137930000000267,
          "durationTicks": 96,
          "midi": 80,
          "name": "G#5",
          "ticks": 30912,
          "time": 133.241346,
          "velocity": 0.8188976377952756
        },
        {
          "duration": 0.4137930000000267,
          "durationTicks": 96,
          "midi": 56,
          "name": "G#3",
          "ticks": 30912,
          "time": 133.241346,
          "velocity": 0.7716535433070866
        },
        {
          "duration": 0.4137930000000267,
          "durationTicks": 96,
          "midi": 92,
          "name": "G#6",
          "ticks": 30912,
          "time": 133.241346,
          "velocity": 0.8188976377952756
        },
        {
          "duration": 0.4137930000000267,
          "durationTicks": 96,
          "midi": 68,
          "name": "G#4",
          "ticks": 30912,
          "time": 133.241346,
          "velocity": 0.7716535433070866
        },
        {
          "duration": 1.241378999999995,
          "durationTicks": 288,
          "midi": 78,
          "name": "F#5",
          "ticks": 31008,
          "time": 133.65513900000002,
          "velocity": 0.8188976377952756
        },
        {
          "duration": 0.05172412499999268,
          "durationTicks": 12,
          "midi": 49,
          "name": "C#3",
          "ticks": 31008,
          "time": 133.65513900000002,
          "velocity": 0.7716535433070866
        },
        {
          "duration": 1.241378999999995,
          "durationTicks": 288,
          "midi": 90,
          "name": "F#6",
          "ticks": 31008,
          "time": 133.65513900000002,
          "velocity": 0.8188976377952756
        },
        {
          "duration": 0.05172412499999268,
          "durationTicks": 12,
          "midi": 61,
          "name": "C#4",
          "ticks": 31008,
          "time": 133.65513900000002,
          "velocity": 0.7716535433070866
        },
        {
          "duration": 0.05172412499999268,
          "durationTicks": 12,
          "midi": 49,
          "name": "C#3",
          "ticks": 31032,
          "time": 133.75858725,
          "velocity": 0.7716535433070866
        },
        {
          "duration": 0.05172412499999268,
          "durationTicks": 12,
          "midi": 61,
          "name": "C#4",
          "ticks": 31032,
          "time": 133.75858725,
          "velocity": 0.7716535433070866
        },
        {
          "duration": 0.05172412499999268,
          "durationTicks": 12,
          "midi": 49,
          "name": "C#3",
          "ticks": 31056,
          "time": 133.86203550000002,
          "velocity": 0.7716535433070866
        },
        {
          "duration": 0.05172412499999268,
          "durationTicks": 12,
          "midi": 61,
          "name": "C#4",
          "ticks": 31056,
          "time": 133.86203550000002,
          "velocity": 0.7716535433070866
        },
        {
          "duration": 0.05172412499999268,
          "durationTicks": 12,
          "midi": 49,
          "name": "C#3",
          "ticks": 31080,
          "time": 133.96548375,
          "velocity": 0.7716535433070866
        },
        {
          "duration": 0.05172412499999268,
          "durationTicks": 12,
          "midi": 61,
          "name": "C#4",
          "ticks": 31080,
          "time": 133.96548375,
          "velocity": 0.7716535433070866
        },
        {
          "duration": 0.4137929999999983,
          "durationTicks": 96,
          "midi": 54,
          "name": "F#3",
          "ticks": 31104,
          "time": 134.06893200000002,
          "velocity": 0.7716535433070866
        },
        {
          "duration": 0.465517124999991,
          "durationTicks": 108,
          "midi": 49,
          "name": "C#3",
          "ticks": 31104,
          "time": 134.06893200000002,
          "velocity": 0.7716535433070866
        },
        {
          "duration": 0.8275859999999966,
          "durationTicks": 192,
          "midi": 37,
          "name": "C#2",
          "ticks": 31104,
          "time": 134.06893200000002,
          "velocity": 0.7716535433070866
        },
        {
          "duration": 2.0689649999999915,
          "durationTicks": 480,
          "midi": 42,
          "name": "F#2",
          "ticks": 31104,
          "time": 134.06893200000002,
          "velocity": 0.7716535433070866
        },
        {
          "duration": 0.4137929999999983,
          "durationTicks": 96,
          "midi": 66,
          "name": "F#4",
          "ticks": 31104,
          "time": 134.06893200000002,
          "velocity": 0.7716535433070866
        },
        {
          "duration": 0.15517237499997805,
          "durationTicks": 36,
          "midi": 49,
          "name": "C#3",
          "ticks": 31200,
          "time": 134.48272500000002,
          "velocity": 0.7716535433070866
        },
        {
          "duration": 0.05172412499999268,
          "durationTicks": 12,
          "midi": 61,
          "name": "C#4",
          "ticks": 31200,
          "time": 134.48272500000002,
          "velocity": 0.7716535433070866
        },
        {
          "duration": 0.15517237500000647,
          "durationTicks": 36,
          "midi": 49,
          "name": "C#3",
          "ticks": 31224,
          "time": 134.58617325,
          "velocity": 0.7716535433070866
        },
        {
          "duration": 0.05172412499999268,
          "durationTicks": 12,
          "midi": 61,
          "name": "C#4",
          "ticks": 31224,
          "time": 134.58617325,
          "velocity": 0.7716535433070866
        },
        {
          "duration": 0.15517237499997805,
          "durationTicks": 36,
          "midi": 49,
          "name": "C#3",
          "ticks": 31248,
          "time": 134.68962150000002,
          "velocity": 0.7716535433070866
        },
        {
          "duration": 0.05172412499999268,
          "durationTicks": 12,
          "midi": 61,
          "name": "C#4",
          "ticks": 31248,
          "time": 134.68962150000002,
          "velocity": 0.7716535433070866
        },
        {
          "duration": 0.10344825000001379,
          "durationTicks": 24,
          "midi": 49,
          "name": "C#3",
          "ticks": 31272,
          "time": 134.79306975,
          "velocity": 0.7716535433070866
        },
        {
          "duration": 0.05172412499999268,
          "durationTicks": 12,
          "midi": 61,
          "name": "C#4",
          "ticks": 31272,
          "time": 134.79306975,
          "velocity": 0.7716535433070866
        },
        {
          "duration": 1.241378999999995,
          "durationTicks": 288,
          "midi": 52,
          "name": "E3",
          "ticks": 31296,
          "time": 134.89651800000001,
          "velocity": 0.7716535433070866
        },
        {
          "duration": 1.0344824999999958,
          "durationTicks": 240,
          "midi": 64,
          "name": "E4",
          "ticks": 31296,
          "time": 134.89651800000001,
          "velocity": 0.7716535433070866
        },
        {
          "duration": 0.051724125000021104,
          "durationTicks": 12,
          "midi": 85,
          "name": "C#6",
          "ticks": 31416,
          "time": 135.41375925,
          "velocity": 0.8188976377952756
        },
        {
          "duration": 0.051724125000021104,
          "durationTicks": 12,
          "midi": 73,
          "name": "C#5",
          "ticks": 31416,
          "time": 135.41375925,
          "velocity": 0.8188976377952756
        },
        {
          "duration": 0.05172412499999268,
          "durationTicks": 12,
          "midi": 92,
          "name": "G#6",
          "ticks": 31428,
          "time": 135.46548337500002,
          "velocity": 0.8188976377952756
        },
        {
          "duration": 0.05172412499999268,
          "durationTicks": 12,
          "midi": 80,
          "name": "G#5",
          "ticks": 31428,
          "time": 135.46548337500002,
          "velocity": 0.8188976377952756
        },
        {
          "duration": 0.05172412499999268,
          "durationTicks": 12,
          "midi": 90,
          "name": "F#6",
          "ticks": 31440,
          "time": 135.5172075,
          "velocity": 0.8188976377952756
        },
        {
          "duration": 0.05172412499999268,
          "durationTicks": 12,
          "midi": 78,
          "name": "F#5",
          "ticks": 31440,
          "time": 135.5172075,
          "velocity": 0.8188976377952756
        },
        {
          "duration": 0.05172412499999268,
          "durationTicks": 12,
          "midi": 88,
          "name": "E6",
          "ticks": 31452,
          "time": 135.568931625,
          "velocity": 0.8188976377952756
        },
        {
          "duration": 0.05172412499999268,
          "durationTicks": 12,
          "midi": 76,
          "name": "E5",
          "ticks": 31452,
          "time": 135.568931625,
          "velocity": 0.8188976377952756
        },
        {
          "duration": 0.051724125000021104,
          "durationTicks": 12,
          "midi": 90,
          "name": "F#6",
          "ticks": 31464,
          "time": 135.62065575,
          "velocity": 0.8188976377952756
        },
        {
          "duration": 0.051724125000021104,
          "durationTicks": 12,
          "midi": 78,
          "name": "F#5",
          "ticks": 31464,
          "time": 135.62065575,
          "velocity": 0.8188976377952756
        },
        {
          "duration": 0.05172412499999268,
          "durationTicks": 12,
          "midi": 92,
          "name": "G#6",
          "ticks": 31476,
          "time": 135.67237987500002,
          "velocity": 0.8188976377952756
        },
        {
          "duration": 0.05172412499999268,
          "durationTicks": 12,
          "midi": 80,
          "name": "G#5",
          "ticks": 31476,
          "time": 135.67237987500002,
          "velocity": 0.8188976377952756
        },
        {
          "duration": 0.6206894999999975,
          "durationTicks": 144,
          "midi": 92,
          "name": "G#6",
          "ticks": 31488,
          "time": 135.724104,
          "velocity": 0.8188976377952756
        },
        {
          "duration": 0.6206894999999975,
          "durationTicks": 144,
          "midi": 80,
          "name": "G#5",
          "ticks": 31488,
          "time": 135.724104,
          "velocity": 0.8188976377952756
        },
        {
          "duration": 1.0344824999999958,
          "durationTicks": 240,
          "midi": 73,
          "name": "C#5",
          "ticks": 31680,
          "time": 136.55169,
          "velocity": 0.8188976377952756
        },
        {
          "duration": 2.0689649999999915,
          "durationTicks": 480,
          "midi": 68,
          "name": "G#4",
          "ticks": 31680,
          "time": 136.55169,
          "velocity": 0.7716535433070866
        },
        {
          "duration": 2.0689649999999915,
          "durationTicks": 480,
          "midi": 64,
          "name": "E4",
          "ticks": 31680,
          "time": 136.55169,
          "velocity": 0.6929133858267716
        },
        {
          "duration": 1.1379307500000095,
          "durationTicks": 264,
          "midi": 73,
          "name": "C#5",
          "ticks": 31680,
          "time": 136.55169,
          "velocity": 0.8188976377952756
        },
        {
          "duration": 1.0344824999999958,
          "durationTicks": 240,
          "midi": 85,
          "name": "C#6",
          "ticks": 31680,
          "time": 136.55169,
          "velocity": 0.8188976377952756
        },
        {
          "duration": 2.0689649999999915,
          "durationTicks": 480,
          "midi": 49,
          "name": "C#3",
          "ticks": 31680,
          "time": 136.55169,
          "velocity": 0.7716535433070866
        },
        {
          "duration": 2.0689649999999915,
          "durationTicks": 480,
          "midi": 37,
          "name": "C#2",
          "ticks": 31680,
          "time": 136.55169,
          "velocity": 0.7716535433070866
        },
        {
          "duration": 2.0689649999999915,
          "durationTicks": 480,
          "midi": 44,
          "name": "G#2",
          "ticks": 31680,
          "time": 136.55169,
          "velocity": 0.7716535433070866
        },
        {
          "duration": 2.0689649999999915,
          "durationTicks": 480,
          "midi": 40,
          "name": "E2",
          "ticks": 31680,
          "time": 136.55169,
          "velocity": 0.6929133858267716
        },
        {
          "duration": 2.0689649999999915,
          "durationTicks": 480,
          "midi": 52,
          "name": "E3",
          "ticks": 31680,
          "time": 136.55169,
          "velocity": 0.6929133858267716
        },
        {
          "duration": 2.0689649999999915,
          "durationTicks": 480,
          "midi": 56,
          "name": "G#3",
          "ticks": 31680,
          "time": 136.55169,
          "velocity": 0.7716535433070866
        },
        {
          "duration": 2.0689649999999915,
          "durationTicks": 480,
          "midi": 61,
          "name": "C#4",
          "ticks": 31680,
          "time": 136.55169,
          "velocity": 0.7716535433070866
        },
        {
          "duration": 0.10344825000001379,
          "durationTicks": 24,
          "midi": 85,
          "name": "C#6",
          "ticks": 31920,
          "time": 137.5861725,
          "velocity": 0.7322834645669292
        },
        {
          "duration": 0.31034475000001294,
          "durationTicks": 72,
          "midi": 73,
          "name": "C#5",
          "ticks": 31920,
          "time": 137.5861725,
          "velocity": 0.7322834645669292
        },
        {
          "duration": 0.10344824999998536,
          "durationTicks": 24,
          "midi": 78,
          "name": "F#5",
          "ticks": 31944,
          "time": 137.68962075000002,
          "velocity": 0.7322834645669292
        },
        {
          "duration": 0.10344824999998536,
          "durationTicks": 24,
          "midi": 66,
          "name": "F#4",
          "ticks": 31944,
          "time": 137.68962075000002,
          "velocity": 0.7322834645669292
        },
        {
          "duration": 0.10344825000001379,
          "durationTicks": 24,
          "midi": 85,
          "name": "C#6",
          "ticks": 31968,
          "time": 137.793069,
          "velocity": 0.6614173228346457
        },
        {
          "duration": 0.31034475000001294,
          "durationTicks": 72,
          "midi": 73,
          "name": "C#5",
          "ticks": 31968,
          "time": 137.793069,
          "velocity": 0.6614173228346457
        },
        {
          "duration": 0.10344825000001379,
          "durationTicks": 24,
          "midi": 78,
          "name": "F#5",
          "ticks": 31986,
          "time": 137.8706551875,
          "velocity": 0.6614173228346457
        },
        {
          "duration": 0.10344825000001379,
          "durationTicks": 24,
          "midi": 66,
          "name": "F#4",
          "ticks": 31986,
          "time": 137.8706551875,
          "velocity": 0.6614173228346457
        },
        {
          "duration": 0.10344825000001379,
          "durationTicks": 24,
          "midi": 85,
          "name": "C#6",
          "ticks": 32016,
          "time": 137.9999655,
          "velocity": 0.5984251968503937
        },
        {
          "duration": 0.31034475000001294,
          "durationTicks": 72,
          "midi": 73,
          "name": "C#5",
          "ticks": 32016,
          "time": 137.9999655,
          "velocity": 0.5984251968503937
        },
        {
          "duration": 0.10344825000001379,
          "durationTicks": 24,
          "midi": 78,
          "name": "F#5",
          "ticks": 32034,
          "time": 138.0775516875,
          "velocity": 0.5984251968503937
        },
        {
          "duration": 0.10344825000001379,
          "durationTicks": 24,
          "midi": 66,
          "name": "F#4",
          "ticks": 32034,
          "time": 138.0775516875,
          "velocity": 0.5984251968503937
        },
        {
          "duration": 0.10344825000001379,
          "durationTicks": 24,
          "midi": 85,
          "name": "C#6",
          "ticks": 32064,
          "time": 138.206862,
          "velocity": 0.5275590551181102
        },
        {
          "duration": 0.31034475000001294,
          "durationTicks": 72,
          "midi": 73,
          "name": "C#5",
          "ticks": 32064,
          "time": 138.206862,
          "velocity": 0.5275590551181102
        },
        {
          "duration": 0.10344825000001379,
          "durationTicks": 24,
          "midi": 78,
          "name": "F#5",
          "ticks": 32076,
          "time": 138.258586125,
          "velocity": 0.5275590551181102
        },
        {
          "duration": 0.10344825000001379,
          "durationTicks": 24,
          "midi": 66,
          "name": "F#4",
          "ticks": 32076,
          "time": 138.258586125,
          "velocity": 0.5275590551181102
        },
        {
          "duration": 0.10344825000001379,
          "durationTicks": 24,
          "midi": 85,
          "name": "C#6",
          "ticks": 32112,
          "time": 138.4137585,
          "velocity": 0.4566929133858268
        },
        {
          "duration": 0.20689649999999915,
          "durationTicks": 48,
          "midi": 73,
          "name": "C#5",
          "ticks": 32112,
          "time": 138.4137585,
          "velocity": 0.4566929133858268
        },
        {
          "duration": 0.10344824999998536,
          "durationTicks": 24,
          "midi": 78,
          "name": "F#5",
          "ticks": 32124,
          "time": 138.46548262500002,
          "velocity": 0.4566929133858268
        },
        {
          "duration": 0.10344824999998536,
          "durationTicks": 24,
          "midi": 66,
          "name": "F#4",
          "ticks": 32124,
          "time": 138.46548262500002,
          "velocity": 0.4566929133858268
        },
        {
          "duration": 0.10344825000001379,
          "durationTicks": 24,
          "midi": 73,
          "name": "C#5",
          "ticks": 32160,
          "time": 138.620655,
          "velocity": 0.3858267716535433
        },
        {
          "duration": 0.10344825000001379,
          "durationTicks": 24,
          "midi": 85,
          "name": "C#6",
          "ticks": 32160,
          "time": 138.620655,
          "velocity": 0.3858267716535433
        },
        {
          "duration": 0.10344824999998536,
          "durationTicks": 24,
          "midi": 78,
          "name": "F#5",
          "ticks": 32166,
          "time": 138.6465170625,
          "velocity": 0.3858267716535433
        },
        {
          "duration": 0.10344824999998536,
          "durationTicks": 24,
          "midi": 66,
          "name": "F#4",
          "ticks": 32166,
          "time": 138.6465170625,
          "velocity": 0.3858267716535433
        },
        {
          "duration": 0.4655171250000194,
          "durationTicks": 108,
          "midi": 85,
          "name": "C#6",
          "ticks": 32208,
          "time": 138.8275515,
          "velocity": 0.3228346456692913
        },
        {
          "duration": 0.4655171250000194,
          "durationTicks": 108,
          "midi": 73,
          "name": "C#5",
          "ticks": 32208,
          "time": 138.8275515,
          "velocity": 0.3228346456692913
        }
      ],
      "endOfTrackTicks": 32641
    },
    {
      "channel": 3,
      "controlChanges": {
        "6": [
          {
            "number": 6,
            "ticks": 0,
            "time": 0,
            "value": 0.09448818897637795
          },
          {
            "number": 6,
            "ticks": 0,
            "time": 0,
            "value": 0.09448818897637795
          },
          {
            "number": 6,
            "ticks": 0,
            "time": 0,
            "value": 0.09448818897637795
          },
          {
            "number": 6,
            "ticks": 32640,
            "time": 140.68962000000002,
            "value": 0.09448818897637795
          },
          {
            "number": 6,
            "ticks": 32641,
            "time": 140.69393034375003,
            "value": 0.09448818897637795
          }
        ],
        "7": [
          {
            "number": 7,
            "ticks": 0,
            "time": 0,
            "value": 0.7637795275590551
          },
          {
            "number": 7,
            "ticks": 0,
            "time": 0,
            "value": 0.7637795275590551
          },
          {
            "number": 7,
            "ticks": 0,
            "time": 0,
            "value": 0.7637795275590551
          },
          {
            "number": 7,
            "ticks": 0,
            "time": 0,
            "value": 0.7637795275590551
          },
          {
            "number": 7,
            "ticks": 32640,
            "time": 140.68962000000002,
            "value": 0.7637795275590551
          },
          {
            "number": 7,
            "ticks": 32641,
            "time": 140.69393034375003,
            "value": 0.7637795275590551
          }
        ],
        "10": [
          {
            "number": 10,
            "ticks": 0,
            "time": 0,
            "value": 0.5039370078740157
          },
          {
            "number": 10,
            "ticks": 0,
            "time": 0,
            "value": 0.5039370078740157
          },
          {
            "number": 10,
            "ticks": 0,
            "time": 0,
            "value": 0.5039370078740157
          },
          {
            "number": 10,
            "ticks": 0,
            "time": 0,
            "value": 0.5039370078740157
          },
          {
            "number": 10,
            "ticks": 32640,
            "time": 140.68962000000002,
            "value": 0.5039370078740157
          },
          {
            "number": 10,
            "ticks": 32641,
            "time": 140.69393034375003,
            "value": 0.5039370078740157
          }
        ],
        "100": [
          {
            "number": 100,
            "ticks": 0,
            "time": 0,
            "value": 0
          },
          {
            "number": 100,
            "ticks": 0,
            "time": 0,
            "value": 0
          },
          {
            "number": 100,
            "ticks": 0,
            "time": 0,
            "value": 0
          },
          {
            "number": 100,
            "ticks": 32640,
            "time": 140.68962000000002,
            "value": 0
          },
          {
            "number": 100,
            "ticks": 32641,
            "time": 140.69393034375003,
            "value": 0
          }
        ],
        "101": [
          {
            "number": 101,
            "ticks": 0,
            "time": 0,
            "value": 0
          },
          {
            "number": 101,
            "ticks": 0,
            "time": 0,
            "value": 0
          },
          {
            "number": 101,
            "ticks": 0,
            "time": 0,
            "value": 0
          },
          {
            "number": 101,
            "ticks": 32640,
            "time": 140.68962000000002,
            "value": 0
          },
          {
            "number": 101,
            "ticks": 32641,
            "time": 140.69393034375003,
            "value": 0
          }
        ]
      },
      "pitchBends": [
        {
          "ticks": 0,
          "time": 0,
          "value": 0
        },
        {
          "ticks": 0,
          "time": 0,
          "value": 0
        },
        {
          "ticks": 0,
          "time": 0,
          "value": 0
        },
        {
          "ticks": 0,
          "time": 0,
          "value": 0
        },
        {
          "ticks": 32640,
          "time": 140.68962000000002,
          "value": 0
        },
        {
          "ticks": 32641,
          "time": 140.69393034375003,
          "value": 0
        }
      ],
      "instrument": {
        "family": "piano",
        "number": 0,
        "name": "acoustic grand piano"
      },
      "name": "FL Keys #2",
      "notes": [
        {
          "duration": 0.25862062499999894,
          "durationTicks": 60,
          "midi": 56,
          "name": "G#3",
          "ticks": 6912,
          "time": 29.793096000000002,
          "velocity": 0.7874015748031497
        },
        {
          "duration": 0.25862062499999894,
          "durationTicks": 60,
          "midi": 61,
          "name": "C#4",
          "ticks": 6912,
          "time": 29.793096000000002,
          "velocity": 0.7874015748031497
        },
        {
          "duration": 0.2586206250000025,
          "durationTicks": 60,
          "midi": 56,
          "name": "G#3",
          "ticks": 6984,
          "time": 30.10344075,
          "velocity": 0.7874015748031497
        },
        {
          "duration": 0.2586206250000025,
          "durationTicks": 60,
          "midi": 61,
          "name": "C#4",
          "ticks": 6984,
          "time": 30.10344075,
          "velocity": 0.7874015748031497
        },
        {
          "duration": 0.18103443749999926,
          "durationTicks": 42,
          "midi": 56,
          "name": "G#3",
          "ticks": 7056,
          "time": 30.413785500000003,
          "velocity": 0.7874015748031497
        },
        {
          "duration": 0.18103443749999926,
          "durationTicks": 42,
          "midi": 63,
          "name": "D#4",
          "ticks": 7056,
          "time": 30.413785500000003,
          "velocity": 0.7874015748031497
        },
        {
          "duration": 0.18103443749999926,
          "durationTicks": 42,
          "midi": 61,
          "name": "C#4",
          "ticks": 7104,
          "time": 30.620682000000002,
          "velocity": 0.7874015748031497
        },
        {
          "duration": 0.18103443749999926,
          "durationTicks": 42,
          "midi": 64,
          "name": "E4",
          "ticks": 7104,
          "time": 30.620682000000002,
          "velocity": 0.7874015748031497
        },
        {
          "duration": 0.10344824999999958,
          "durationTicks": 24,
          "midi": 56,
          "name": "G#3",
          "ticks": 7176,
          "time": 30.93102675,
          "velocity": 0.7874015748031497
        },
        {
          "duration": 0.10344824999999958,
          "durationTicks": 24,
          "midi": 61,
          "name": "C#4",
          "ticks": 7176,
          "time": 30.93102675,
          "velocity": 0.7874015748031497
        },
        {
          "duration": 0.1810344375000028,
          "durationTicks": 42,
          "midi": 56,
          "name": "G#3",
          "ticks": 7200,
          "time": 31.034475,
          "velocity": 0.7874015748031497
        },
        {
          "duration": 0.1810344375000028,
          "durationTicks": 42,
          "midi": 61,
          "name": "C#4",
          "ticks": 7200,
          "time": 31.034475,
          "velocity": 0.7874015748031497
        },
        {
          "duration": 0.18103443749999926,
          "durationTicks": 42,
          "midi": 56,
          "name": "G#3",
          "ticks": 7248,
          "time": 31.241371500000003,
          "velocity": 0.7874015748031497
        },
        {
          "duration": 0.18103443749999926,
          "durationTicks": 42,
          "midi": 61,
          "name": "C#4",
          "ticks": 7248,
          "time": 31.241371500000003,
          "velocity": 0.7874015748031497
        },
        {
          "duration": 0.25862062499999894,
          "durationTicks": 60,
          "midi": 61,
          "name": "C#4",
          "ticks": 7296,
          "time": 31.448268000000002,
          "velocity": 0.7874015748031497
        },
        {
          "duration": 0.25862062499999894,
          "durationTicks": 60,
          "midi": 64,
          "name": "E4",
          "ticks": 7296,
          "time": 31.448268000000002,
          "velocity": 0.7874015748031497
        },
        {
          "duration": 0.2586206250000025,
          "durationTicks": 60,
          "midi": 61,
          "name": "C#4",
          "ticks": 7368,
          "time": 31.75861275,
          "velocity": 0.7874015748031497
        },
        {
          "duration": 0.2586206250000025,
          "durationTicks": 60,
          "midi": 64,
          "name": "E4",
          "ticks": 7368,
          "time": 31.75861275,
          "velocity": 0.7874015748031497
        },
        {
          "duration": 0.1810344374999957,
          "durationTicks": 42,
          "midi": 61,
          "name": "C#4",
          "ticks": 7440,
          "time": 32.0689575,
          "velocity": 0.7874015748031497
        },
        {
          "duration": 0.1810344374999957,
          "durationTicks": 42,
          "midi": 66,
          "name": "F#4",
          "ticks": 7440,
          "time": 32.0689575,
          "velocity": 0.7874015748031497
        },
        {
          "duration": 0.1810344374999957,
          "durationTicks": 42,
          "midi": 61,
          "name": "C#4",
          "ticks": 7488,
          "time": 32.275854,
          "velocity": 0.7874015748031497
        },
        {
          "duration": 0.1810344374999957,
          "durationTicks": 42,
          "midi": 64,
          "name": "E4",
          "ticks": 7488,
          "time": 32.275854,
          "velocity": 0.7874015748031497
        },
        {
          "duration": 0.10344824999999958,
          "durationTicks": 24,
          "midi": 61,
          "name": "C#4",
          "ticks": 7560,
          "time": 32.58619875,
          "velocity": 0.7874015748031497
        },
        {
          "duration": 0.10344824999999958,
          "durationTicks": 24,
          "midi": 56,
          "name": "G#3",
          "ticks": 7560,
          "time": 32.58619875,
          "velocity": 0.7874015748031497
        },
        {
          "duration": 0.1810344375000028,
          "durationTicks": 42,
          "midi": 61,
          "name": "C#4",
          "ticks": 7584,
          "time": 32.689647,
          "velocity": 0.7874015748031497
        },
        {
          "duration": 0.1810344375000028,
          "durationTicks": 42,
          "midi": 56,
          "name": "G#3",
          "ticks": 7584,
          "time": 32.689647,
          "velocity": 0.7874015748031497
        },
        {
          "duration": 0.1810344375000028,
          "durationTicks": 42,
          "midi": 61,
          "name": "C#4",
          "ticks": 7632,
          "time": 32.8965435,
          "velocity": 0.7874015748031497
        },
        {
          "duration": 0.1810344375000028,
          "durationTicks": 42,
          "midi": 56,
          "name": "G#3",
          "ticks": 7632,
          "time": 32.8965435,
          "velocity": 0.7874015748031497
        },
        {
          "duration": 0.20689649999999915,
          "durationTicks": 48,
          "midi": 64,
          "name": "E4",
          "ticks": 7680,
          "time": 33.10344,
          "velocity": 0.7874015748031497
        },
        {
          "duration": 0.20689649999999915,
          "durationTicks": 48,
          "midi": 68,
          "name": "G#4",
          "ticks": 7680,
          "time": 33.10344,
          "velocity": 0.7874015748031497
        },
        {
          "duration": 0.20689649999999915,
          "durationTicks": 48,
          "midi": 64,
          "name": "E4",
          "ticks": 7752,
          "time": 33.413784750000005,
          "velocity": 0.7874015748031497
        },
        {
          "duration": 0.20689649999999915,
          "durationTicks": 48,
          "midi": 68,
          "name": "G#4",
          "ticks": 7752,
          "time": 33.413784750000005,
          "velocity": 0.7874015748031497
        },
        {
          "duration": 0.1810344374999957,
          "durationTicks": 42,
          "midi": 64,
          "name": "E4",
          "ticks": 7824,
          "time": 33.724129500000004,
          "velocity": 0.7874015748031497
        },
        {
          "duration": 0.1810344374999957,
          "durationTicks": 42,
          "midi": 68,
          "name": "G#4",
          "ticks": 7824,
          "time": 33.724129500000004,
          "velocity": 0.7874015748031497
        },
        {
          "duration": 0.1810344374999957,
          "durationTicks": 42,
          "midi": 64,
          "name": "E4",
          "ticks": 7872,
          "time": 33.931026,
          "velocity": 0.7874015748031497
        },
        {
          "duration": 0.1810344374999957,
          "durationTicks": 42,
          "midi": 68,
          "name": "G#4",
          "ticks": 7872,
          "time": 33.931026,
          "velocity": 0.7874015748031497
        },
        {
          "duration": 0.10344824999999958,
          "durationTicks": 24,
          "midi": 64,
          "name": "E4",
          "ticks": 7920,
          "time": 34.1379225,
          "velocity": 0.7874015748031497
        },
        {
          "duration": 0.10344824999999958,
          "durationTicks": 24,
          "midi": 68,
          "name": "G#4",
          "ticks": 7920,
          "time": 34.1379225,
          "velocity": 0.7874015748031497
        },
        {
          "duration": 0.3103447499999987,
          "durationTicks": 72,
          "midi": 63,
          "name": "D#4",
          "ticks": 7968,
          "time": 34.344819,
          "velocity": 0.7874015748031497
        },
        {
          "duration": 0.3103447499999987,
          "durationTicks": 72,
          "midi": 66,
          "name": "F#4",
          "ticks": 7968,
          "time": 34.344819,
          "velocity": 0.7874015748031497
        },
        {
          "duration": 1.370689312500005,
          "durationTicks": 318,
          "midi": 64,
          "name": "E4",
          "ticks": 8064,
          "time": 34.758612,
          "velocity": 0.7874015748031497
        },
        {
          "duration": 1.370689312500005,
          "durationTicks": 318,
          "midi": 68,
          "name": "G#4",
          "ticks": 8064,
          "time": 34.758612,
          "velocity": 0.7874015748031497
        },
        {
          "duration": 0.15517237499999936,
          "durationTicks": 36,
          "midi": 56,
          "name": "G#3",
          "ticks": 8400,
          "time": 36.2068875,
          "velocity": 0.7874015748031497
        },
        {
          "duration": 0.15517237499999936,
          "durationTicks": 36,
          "midi": 61,
          "name": "C#4",
          "ticks": 8400,
          "time": 36.2068875,
          "velocity": 0.7874015748031497
        },
        {
          "duration": 0.15517237499999936,
          "durationTicks": 36,
          "midi": 61,
          "name": "C#4",
          "ticks": 8448,
          "time": 36.413784,
          "velocity": 0.7874015748031497
        },
        {
          "duration": 0.15517237499999936,
          "durationTicks": 36,
          "midi": 56,
          "name": "G#3",
          "ticks": 8448,
          "time": 36.413784,
          "velocity": 0.7874015748031497
        },
        {
          "duration": 0.3620688750000056,
          "durationTicks": 84,
          "midi": 61,
          "name": "C#4",
          "ticks": 8496,
          "time": 36.6206805,
          "velocity": 0.7874015748031497
        },
        {
          "duration": 0.3620688750000056,
          "durationTicks": 84,
          "midi": 56,
          "name": "G#3",
          "ticks": 8496,
          "time": 36.6206805,
          "velocity": 0.7874015748031497
        },
        {
          "duration": 0.1810344374999957,
          "durationTicks": 42,
          "midi": 56,
          "name": "G#3",
          "ticks": 8592,
          "time": 37.034473500000004,
          "velocity": 0.7874015748031497
        },
        {
          "duration": 0.1810344374999957,
          "durationTicks": 42,
          "midi": 63,
          "name": "D#4",
          "ticks": 8592,
          "time": 37.034473500000004,
          "velocity": 0.7874015748031497
        },
        {
          "duration": 0.1810344374999957,
          "durationTicks": 42,
          "midi": 61,
          "name": "C#4",
          "ticks": 8640,
          "time": 37.24137,
          "velocity": 0.7874015748031497
        },
        {
          "duration": 0.1810344374999957,
          "durationTicks": 42,
          "midi": 64,
          "name": "E4",
          "ticks": 8640,
          "time": 37.24137,
          "velocity": 0.7874015748031497
        },
        {
          "duration": 0.20689649999999915,
          "durationTicks": 48,
          "midi": 61,
          "name": "C#4",
          "ticks": 8688,
          "time": 37.4482665,
          "velocity": 0.7874015748031497
        },
        {
          "duration": 0.20689649999999915,
          "durationTicks": 48,
          "midi": 56,
          "name": "G#3",
          "ticks": 8688,
          "time": 37.4482665,
          "velocity": 0.7874015748031497
        },
        {
          "duration": 0.15517237499999936,
          "durationTicks": 36,
          "midi": 61,
          "name": "C#4",
          "ticks": 8736,
          "time": 37.655163,
          "velocity": 0.7874015748031497
        },
        {
          "duration": 0.15517237499999936,
          "durationTicks": 36,
          "midi": 56,
          "name": "G#3",
          "ticks": 8736,
          "time": 37.655163,
          "velocity": 0.7874015748031497
        },
        {
          "duration": 0.15517237499999936,
          "durationTicks": 36,
          "midi": 61,
          "name": "C#4",
          "ticks": 8784,
          "time": 37.8620595,
          "velocity": 0.7874015748031497
        },
        {
          "duration": 0.15517237499999936,
          "durationTicks": 36,
          "midi": 56,
          "name": "G#3",
          "ticks": 8784,
          "time": 37.8620595,
          "velocity": 0.7874015748031497
        },
        {
          "duration": 0.15517237499999936,
          "durationTicks": 36,
          "midi": 61,
          "name": "C#4",
          "ticks": 8832,
          "time": 38.068956,
          "velocity": 0.7874015748031497
        },
        {
          "duration": 0.15517237499999936,
          "durationTicks": 36,
          "midi": 64,
          "name": "E4",
          "ticks": 8832,
          "time": 38.068956,
          "velocity": 0.7874015748031497
        },
        {
          "duration": 0.31034475000000583,
          "durationTicks": 72,
          "midi": 61,
          "name": "C#4",
          "ticks": 8880,
          "time": 38.2758525,
          "velocity": 0.7874015748031497
        },
        {
          "duration": 0.31034475000000583,
          "durationTicks": 72,
          "midi": 64,
          "name": "E4",
          "ticks": 8880,
          "time": 38.2758525,
          "velocity": 0.7874015748031497
        },
        {
          "duration": 0.15517237499999936,
          "durationTicks": 36,
          "midi": 61,
          "name": "C#4",
          "ticks": 8976,
          "time": 38.689645500000005,
          "velocity": 0.7874015748031497
        },
        {
          "duration": 0.15517237499999936,
          "durationTicks": 36,
          "midi": 66,
          "name": "F#4",
          "ticks": 8976,
          "time": 38.689645500000005,
          "velocity": 0.7874015748031497
        },
        {
          "duration": 0.15517237499999936,
          "durationTicks": 36,
          "midi": 61,
          "name": "C#4",
          "ticks": 9024,
          "time": 38.896542000000004,
          "velocity": 0.7874015748031497
        },
        {
          "duration": 0.15517237499999936,
          "durationTicks": 36,
          "midi": 64,
          "name": "E4",
          "ticks": 9024,
          "time": 38.896542000000004,
          "velocity": 0.7874015748031497
        },
        {
          "duration": 0.15517237499999936,
          "durationTicks": 36,
          "midi": 61,
          "name": "C#4",
          "ticks": 9072,
          "time": 39.1034385,
          "velocity": 0.7874015748031497
        },
        {
          "duration": 0.15517237499999936,
          "durationTicks": 36,
          "midi": 56,
          "name": "G#3",
          "ticks": 9072,
          "time": 39.1034385,
          "velocity": 0.7874015748031497
        },
        {
          "duration": 0.15517237499999936,
          "durationTicks": 36,
          "midi": 61,
          "name": "C#4",
          "ticks": 9120,
          "time": 39.310335,
          "velocity": 0.7874015748031497
        },
        {
          "duration": 0.15517237499999936,
          "durationTicks": 36,
          "midi": 56,
          "name": "G#3",
          "ticks": 9120,
          "time": 39.310335,
          "velocity": 0.7874015748031497
        },
        {
          "duration": 0.15517237499999936,
          "durationTicks": 36,
          "midi": 61,
          "name": "C#4",
          "ticks": 9168,
          "time": 39.5172315,
          "velocity": 0.7874015748031497
        },
        {
          "duration": 0.15517237499999936,
          "durationTicks": 36,
          "midi": 56,
          "name": "G#3",
          "ticks": 9168,
          "time": 39.5172315,
          "velocity": 0.7874015748031497
        },
        {
          "duration": 0.3620688749999985,
          "durationTicks": 84,
          "midi": 64,
          "name": "E4",
          "ticks": 9216,
          "time": 39.724128,
          "velocity": 0.7874015748031497
        },
        {
          "duration": 0.3620688749999985,
          "durationTicks": 84,
          "midi": 68,
          "name": "G#4",
          "ticks": 9216,
          "time": 39.724128,
          "velocity": 0.7874015748031497
        },
        {
          "duration": 0.15517237500000647,
          "durationTicks": 36,
          "midi": 63,
          "name": "D#4",
          "ticks": 9312,
          "time": 40.137921,
          "velocity": 0.7874015748031497
        },
        {
          "duration": 0.15517237500000647,
          "durationTicks": 36,
          "midi": 66,
          "name": "F#4",
          "ticks": 9312,
          "time": 40.137921,
          "velocity": 0.7874015748031497
        },
        {
          "duration": 0.3620688749999985,
          "durationTicks": 84,
          "midi": 64,
          "name": "E4",
          "ticks": 9360,
          "time": 40.344817500000005,
          "velocity": 0.7874015748031497
        },
        {
          "duration": 0.3620688749999985,
          "durationTicks": 84,
          "midi": 68,
          "name": "G#4",
          "ticks": 9360,
          "time": 40.344817500000005,
          "velocity": 0.7874015748031497
        },
        {
          "duration": 0.3620688749999985,
          "durationTicks": 84,
          "midi": 63,
          "name": "D#4",
          "ticks": 9456,
          "time": 40.7586105,
          "velocity": 0.7874015748031497
        },
        {
          "duration": 0.3620688749999985,
          "durationTicks": 84,
          "midi": 66,
          "name": "F#4",
          "ticks": 9456,
          "time": 40.7586105,
          "velocity": 0.7874015748031497
        },
        {
          "duration": 0.15517237499999936,
          "durationTicks": 36,
          "midi": 63,
          "name": "D#4",
          "ticks": 9552,
          "time": 41.1724035,
          "velocity": 0.7874015748031497
        },
        {
          "duration": 0.15517237499999936,
          "durationTicks": 36,
          "midi": 66,
          "name": "F#4",
          "ticks": 9552,
          "time": 41.1724035,
          "velocity": 0.7874015748031497
        },
        {
          "duration": 0.7758618750000039,
          "durationTicks": 180,
          "midi": 64,
          "name": "E4",
          "ticks": 9600,
          "time": 41.3793,
          "velocity": 0.7874015748031497
        },
        {
          "duration": 0.7758618750000039,
          "durationTicks": 180,
          "midi": 68,
          "name": "G#4",
          "ticks": 9600,
          "time": 41.3793,
          "velocity": 0.7874015748031497
        },
        {
          "duration": 0.3620688749999985,
          "durationTicks": 84,
          "midi": 63,
          "name": "D#4",
          "ticks": 9792,
          "time": 42.206886000000004,
          "velocity": 0.7874015748031497
        },
        {
          "duration": 0.3620688749999985,
          "durationTicks": 84,
          "midi": 66,
          "name": "F#4",
          "ticks": 9792,
          "time": 42.206886000000004,
          "velocity": 0.7874015748031497
        },
        {
          "duration": 0.1810344375000028,
          "durationTicks": 42,
          "midi": 56,
          "name": "G#3",
          "ticks": 9936,
          "time": 42.8275755,
          "velocity": 0.7874015748031497
        },
        {
          "duration": 0.1810344375000028,
          "durationTicks": 42,
          "midi": 61,
          "name": "C#4",
          "ticks": 9936,
          "time": 42.8275755,
          "velocity": 0.7874015748031497
        },
        {
          "duration": 0.25862062499999894,
          "durationTicks": 60,
          "midi": 68,
          "name": "G#4",
          "ticks": 9984,
          "time": 43.034472,
          "velocity": 0.7874015748031497
        },
        {
          "duration": 0.25862062499999894,
          "durationTicks": 60,
          "midi": 64,
          "name": "E4",
          "ticks": 9984,
          "time": 43.034472,
          "velocity": 0.7874015748031497
        },
        {
          "duration": 0.25862062500000604,
          "durationTicks": 60,
          "midi": 68,
          "name": "G#4",
          "ticks": 10056,
          "time": 43.34481675,
          "velocity": 0.7874015748031497
        },
        {
          "duration": 0.25862062500000604,
          "durationTicks": 60,
          "midi": 64,
          "name": "E4",
          "ticks": 10056,
          "time": 43.34481675,
          "velocity": 0.7874015748031497
        },
        {
          "duration": 0.15517237499999936,
          "durationTicks": 36,
          "midi": 63,
          "name": "D#4",
          "ticks": 10128,
          "time": 43.655161500000006,
          "velocity": 0.7874015748031497
        },
        {
          "duration": 0.15517237499999936,
          "durationTicks": 36,
          "midi": 66,
          "name": "F#4",
          "ticks": 10128,
          "time": 43.655161500000006,
          "velocity": 0.7874015748031497
        },
        {
          "duration": 0.3620688749999985,
          "durationTicks": 84,
          "midi": 68,
          "name": "G#4",
          "ticks": 10176,
          "time": 43.862058000000005,
          "velocity": 0.7874015748031497
        },
        {
          "duration": 0.3620688749999985,
          "durationTicks": 84,
          "midi": 64,
          "name": "E4",
          "ticks": 10176,
          "time": 43.862058000000005,
          "velocity": 0.7874015748031497
        },
        {
          "duration": 0.3620688749999985,
          "durationTicks": 84,
          "midi": 76,
          "name": "E5",
          "ticks": 10272,
          "time": 44.275851,
          "velocity": 0.7874015748031497
        },
        {
          "duration": 0.3620688749999985,
          "durationTicks": 84,
          "midi": 71,
          "name": "B4",
          "ticks": 10272,
          "time": 44.275851,
          "velocity": 0.7874015748031497
        },
        {
          "duration": 0.15517237499999936,
          "durationTicks": 36,
          "midi": 56,
          "name": "G#3",
          "ticks": 10272,
          "time": 44.275851,
          "velocity": 0.5748031496062992
        },
        {
          "duration": 0.3620688749999985,
          "durationTicks": 84,
          "midi": 68,
          "name": "G#4",
          "ticks": 10272,
          "time": 44.275851,
          "velocity": 0.7874015748031497
        },
        {
          "duration": 0.3620688749999985,
          "durationTicks": 84,
          "midi": 80,
          "name": "G#5",
          "ticks": 10272,
          "time": 44.275851,
          "velocity": 0.7874015748031497
        },
        {
          "duration": 0.15517237499999936,
          "durationTicks": 36,
          "midi": 61,
          "name": "C#4",
          "ticks": 10320,
          "time": 44.4827475,
          "velocity": 0.5748031496062992
        },
        {
          "duration": 0.25862062499999894,
          "durationTicks": 60,
          "midi": 68,
          "name": "G#4",
          "ticks": 10368,
          "time": 44.689644,
          "velocity": 0.7874015748031497
        },
        {
          "duration": 0.25862062499999894,
          "durationTicks": 60,
          "midi": 64,
          "name": "E4",
          "ticks": 10368,
          "time": 44.689644,
          "velocity": 0.7874015748031497
        },
        {
          "duration": 0.25862062499999894,
          "durationTicks": 60,
          "midi": 68,
          "name": "G#4",
          "ticks": 10440,
          "time": 44.99998875,
          "velocity": 0.7874015748031497
        },
        {
          "duration": 0.25862062499999894,
          "durationTicks": 60,
          "midi": 64,
          "name": "E4",
          "ticks": 10440,
          "time": 44.99998875,
          "velocity": 0.7874015748031497
        },
        {
          "duration": 0.15517237499999936,
          "durationTicks": 36,
          "midi": 66,
          "name": "F#4",
          "ticks": 10512,
          "time": 45.310333500000006,
          "velocity": 0.7874015748031497
        },
        {
          "duration": 0.15517237499999936,
          "durationTicks": 36,
          "midi": 63,
          "name": "D#4",
          "ticks": 10512,
          "time": 45.310333500000006,
          "velocity": 0.7874015748031497
        },
        {
          "duration": 0.3620688749999985,
          "durationTicks": 84,
          "midi": 68,
          "name": "G#4",
          "ticks": 10560,
          "time": 45.517230000000005,
          "velocity": 0.7874015748031497
        },
        {
          "duration": 0.3620688749999985,
          "durationTicks": 84,
          "midi": 64,
          "name": "E4",
          "ticks": 10560,
          "time": 45.517230000000005,
          "velocity": 0.7874015748031497
        },
        {
          "duration": 0.3620688749999985,
          "durationTicks": 84,
          "midi": 76,
          "name": "E5",
          "ticks": 10656,
          "time": 45.931023,
          "velocity": 0.7874015748031497
        },
        {
          "duration": 0.3620688749999985,
          "durationTicks": 84,
          "midi": 73,
          "name": "C#5",
          "ticks": 10656,
          "time": 45.931023,
          "velocity": 0.7874015748031497
        },
        {
          "duration": 0.3620688749999985,
          "durationTicks": 84,
          "midi": 68,
          "name": "G#4",
          "ticks": 10656,
          "time": 45.931023,
          "velocity": 0.7874015748031497
        },
        {
          "duration": 0.15517237499999936,
          "durationTicks": 36,
          "midi": 61,
          "name": "C#4",
          "ticks": 10656,
          "time": 45.931023,
          "velocity": 0.5748031496062992
        },
        {
          "duration": 0.3620688749999985,
          "durationTicks": 84,
          "midi": 80,
          "name": "G#5",
          "ticks": 10656,
          "time": 45.931023,
          "velocity": 0.7874015748031497
        },
        {
          "duration": 0.15517237499999936,
          "durationTicks": 36,
          "midi": 56,
          "name": "G#3",
          "ticks": 10704,
          "time": 46.1379195,
          "velocity": 0.5748031496062992
        },
        {
          "duration": 0.25862062499999894,
          "durationTicks": 60,
          "midi": 68,
          "name": "G#4",
          "ticks": 10752,
          "time": 46.344816,
          "velocity": 0.7874015748031497
        },
        {
          "duration": 0.25862062499999894,
          "durationTicks": 60,
          "midi": 64,
          "name": "E4",
          "ticks": 10752,
          "time": 46.344816,
          "velocity": 0.7874015748031497
        },
        {
          "duration": 0.25862062499999894,
          "durationTicks": 60,
          "midi": 68,
          "name": "G#4",
          "ticks": 10824,
          "time": 46.65516075,
          "velocity": 0.7874015748031497
        },
        {
          "duration": 0.25862062499999894,
          "durationTicks": 60,
          "midi": 64,
          "name": "E4",
          "ticks": 10824,
          "time": 46.65516075,
          "velocity": 0.7874015748031497
        },
        {
          "duration": 0.15517237500000647,
          "durationTicks": 36,
          "midi": 68,
          "name": "G#4",
          "ticks": 10896,
          "time": 46.9655055,
          "velocity": 0.7874015748031497
        },
        {
          "duration": 0.15517237500000647,
          "durationTicks": 36,
          "midi": 64,
          "name": "E4",
          "ticks": 10896,
          "time": 46.9655055,
          "velocity": 0.7874015748031497
        },
        {
          "duration": 0.25862062499999894,
          "durationTicks": 60,
          "midi": 63,
          "name": "D#4",
          "ticks": 10944,
          "time": 47.172402000000005,
          "velocity": 0.7874015748031497
        },
        {
          "duration": 0.25862062499999894,
          "durationTicks": 60,
          "midi": 66,
          "name": "F#4",
          "ticks": 10944,
          "time": 47.172402000000005,
          "velocity": 0.7874015748031497
        },
        {
          "duration": 0.07758618749999613,
          "durationTicks": 18,
          "midi": 63,
          "name": "D#4",
          "ticks": 11016,
          "time": 47.482746750000004,
          "velocity": 0.7874015748031497
        },
        {
          "duration": 0.07758618749999613,
          "durationTicks": 18,
          "midi": 66,
          "name": "F#4",
          "ticks": 11016,
          "time": 47.482746750000004,
          "velocity": 0.7874015748031497
        },
        {
          "duration": 0.15517237499999936,
          "durationTicks": 36,
          "midi": 66,
          "name": "F#4",
          "ticks": 11040,
          "time": 47.586195000000004,
          "velocity": 0.7874015748031497
        },
        {
          "duration": 0.15517237499999936,
          "durationTicks": 36,
          "midi": 63,
          "name": "D#4",
          "ticks": 11040,
          "time": 47.586195000000004,
          "velocity": 0.7874015748031497
        },
        {
          "duration": 0.15517237499999936,
          "durationTicks": 36,
          "midi": 66,
          "name": "F#4",
          "ticks": 11088,
          "time": 47.7930915,
          "velocity": 0.7874015748031497
        },
        {
          "duration": 0.15517237499999936,
          "durationTicks": 36,
          "midi": 63,
          "name": "D#4",
          "ticks": 11088,
          "time": 47.7930915,
          "velocity": 0.7874015748031497
        },
        {
          "duration": 0.3620688749999985,
          "durationTicks": 84,
          "midi": 63,
          "name": "D#4",
          "ticks": 11136,
          "time": 47.999988,
          "velocity": 0.7874015748031497
        },
        {
          "duration": 0.3620688749999985,
          "durationTicks": 84,
          "midi": 66,
          "name": "F#4",
          "ticks": 11136,
          "time": 47.999988,
          "velocity": 0.7874015748031497
        },
        {
          "duration": 0.8534480625,
          "durationTicks": 198,
          "midi": 61,
          "name": "C#4",
          "ticks": 11232,
          "time": 48.413781,
          "velocity": 0.7874015748031497
        },
        {
          "duration": 0.8534480625,
          "durationTicks": 198,
          "midi": 64,
          "name": "E4",
          "ticks": 11232,
          "time": 48.413781,
          "velocity": 0.7874015748031497
        },
        {
          "duration": 0.15517237499999936,
          "durationTicks": 36,
          "midi": 61,
          "name": "C#4",
          "ticks": 11472,
          "time": 49.4482635,
          "velocity": 0.7874015748031497
        },
        {
          "duration": 0.15517237499999936,
          "durationTicks": 36,
          "midi": 56,
          "name": "G#3",
          "ticks": 11472,
          "time": 49.4482635,
          "velocity": 0.7874015748031497
        },
        {
          "duration": 0.15517237499999936,
          "durationTicks": 36,
          "midi": 61,
          "name": "C#4",
          "ticks": 11520,
          "time": 49.65516,
          "velocity": 0.7874015748031497
        },
        {
          "duration": 0.15517237499999936,
          "durationTicks": 36,
          "midi": 56,
          "name": "G#3",
          "ticks": 11520,
          "time": 49.65516,
          "velocity": 0.7874015748031497
        },
        {
          "duration": 0.3620688749999985,
          "durationTicks": 84,
          "midi": 61,
          "name": "C#4",
          "ticks": 11568,
          "time": 49.8620565,
          "velocity": 0.7874015748031497
        },
        {
          "duration": 0.3620688749999985,
          "durationTicks": 84,
          "midi": 56,
          "name": "G#3",
          "ticks": 11568,
          "time": 49.8620565,
          "velocity": 0.7874015748031497
        },
        {
          "duration": 0.10344824999999958,
          "durationTicks": 24,
          "midi": 61,
          "name": "C#4",
          "ticks": 11664,
          "time": 50.2758495,
          "velocity": 0.7874015748031497
        },
        {
          "duration": 0.15517237500000647,
          "durationTicks": 36,
          "midi": 63,
          "name": "D#4",
          "ticks": 11664,
          "time": 50.2758495,
          "velocity": 0.7874015748031497
        },
        {
          "duration": 0.10344824999999958,
          "durationTicks": 24,
          "midi": 61,
          "name": "C#4",
          "ticks": 11712,
          "time": 50.482746000000006,
          "velocity": 0.7874015748031497
        },
        {
          "duration": 0.15517237499999936,
          "durationTicks": 36,
          "midi": 64,
          "name": "E4",
          "ticks": 11712,
          "time": 50.482746000000006,
          "velocity": 0.7874015748031497
        },
        {
          "duration": 0.3620688749999985,
          "durationTicks": 84,
          "midi": 56,
          "name": "G#3",
          "ticks": 11760,
          "time": 50.689642500000005,
          "velocity": 0.7874015748031497
        },
        {
          "duration": 0.3620688749999985,
          "durationTicks": 84,
          "midi": 61,
          "name": "C#4",
          "ticks": 11760,
          "time": 50.689642500000005,
          "velocity": 0.7874015748031497
        },
        {
          "duration": 0.15517237499999936,
          "durationTicks": 36,
          "midi": 61,
          "name": "C#4",
          "ticks": 11856,
          "time": 51.1034355,
          "velocity": 0.7874015748031497
        },
        {
          "duration": 0.15517237499999936,
          "durationTicks": 36,
          "midi": 56,
          "name": "G#3",
          "ticks": 11856,
          "time": 51.1034355,
          "velocity": 0.7874015748031497
        },
        {
          "duration": 0.15517237499999936,
          "durationTicks": 36,
          "midi": 61,
          "name": "C#4",
          "ticks": 11904,
          "time": 51.310332,
          "velocity": 0.7874015748031497
        },
        {
          "duration": 0.15517237499999936,
          "durationTicks": 36,
          "midi": 64,
          "name": "E4",
          "ticks": 11904,
          "time": 51.310332,
          "velocity": 0.7874015748031497
        },
        {
          "duration": 0.3620688749999985,
          "durationTicks": 84,
          "midi": 64,
          "name": "E4",
          "ticks": 11952,
          "time": 51.5172285,
          "velocity": 0.7874015748031497
        },
        {
          "duration": 0.3620688749999985,
          "durationTicks": 84,
          "midi": 61,
          "name": "C#4",
          "ticks": 11952,
          "time": 51.5172285,
          "velocity": 0.7874015748031497
        },
        {
          "duration": 0.15517237499999936,
          "durationTicks": 36,
          "midi": 56,
          "name": "G#3",
          "ticks": 12048,
          "time": 51.9310215,
          "velocity": 0.7874015748031497
        },
        {
          "duration": 0.15517237499999936,
          "durationTicks": 36,
          "midi": 61,
          "name": "C#4",
          "ticks": 12048,
          "time": 51.9310215,
          "velocity": 0.7874015748031497
        },
        {
          "duration": 0.3620688749999985,
          "durationTicks": 84,
          "midi": 61,
          "name": "C#4",
          "ticks": 12096,
          "time": 52.137918000000006,
          "velocity": 0.7874015748031497
        },
        {
          "duration": 0.3620688749999985,
          "durationTicks": 84,
          "midi": 64,
          "name": "E4",
          "ticks": 12096,
          "time": 52.137918000000006,
          "velocity": 0.7874015748031497
        },
        {
          "duration": 0.15517237499999936,
          "durationTicks": 36,
          "midi": 56,
          "name": "G#3",
          "ticks": 12240,
          "time": 52.758607500000004,
          "velocity": 0.7874015748031497
        },
        {
          "duration": 0.15517237499999936,
          "durationTicks": 36,
          "midi": 61,
          "name": "C#4",
          "ticks": 12240,
          "time": 52.758607500000004,
          "velocity": 0.7874015748031497
        },
        {
          "duration": 0.25862062499999894,
          "durationTicks": 60,
          "midi": 64,
          "name": "E4",
          "ticks": 12288,
          "time": 52.965504,
          "velocity": 0.7874015748031497
        },
        {
          "duration": 0.25862062499999894,
          "durationTicks": 60,
          "midi": 61,
          "name": "C#4",
          "ticks": 12288,
          "time": 52.965504,
          "velocity": 0.7874015748031497
        },
        {
          "duration": 0.25862062499999894,
          "durationTicks": 60,
          "midi": 59,
          "name": "B3",
          "ticks": 12288,
          "time": 52.965504,
          "velocity": 0.33070866141732286
        },
        {
          "duration": 0.25862062499999894,
          "durationTicks": 60,
          "midi": 59,
          "name": "B3",
          "ticks": 12360,
          "time": 53.27584875,
          "velocity": 0.4094488188976378
        },
        {
          "duration": 0.25862062499999894,
          "durationTicks": 60,
          "midi": 64,
          "name": "E4",
          "ticks": 12360,
          "time": 53.27584875,
          "velocity": 0.7874015748031497
        },
        {
          "duration": 0.25862062499999894,
          "durationTicks": 60,
          "midi": 61,
          "name": "C#4",
          "ticks": 12360,
          "time": 53.27584875,
          "velocity": 0.7874015748031497
        },
        {
          "duration": 0.15517237499999936,
          "durationTicks": 36,
          "midi": 59,
          "name": "B3",
          "ticks": 12432,
          "time": 53.5861935,
          "velocity": 0.49606299212598426
        },
        {
          "duration": 0.15517237499999936,
          "durationTicks": 36,
          "midi": 64,
          "name": "E4",
          "ticks": 12432,
          "time": 53.5861935,
          "velocity": 0.7874015748031497
        },
        {
          "duration": 0.15517237499999936,
          "durationTicks": 36,
          "midi": 61,
          "name": "C#4",
          "ticks": 12432,
          "time": 53.5861935,
          "velocity": 0.7874015748031497
        },
        {
          "duration": 0.25862062500000604,
          "durationTicks": 60,
          "midi": 61,
          "name": "C#4",
          "ticks": 12480,
          "time": 53.79309,
          "velocity": 0.7874015748031497
        },
        {
          "duration": 0.25862062500000604,
          "durationTicks": 60,
          "midi": 64,
          "name": "E4",
          "ticks": 12480,
          "time": 53.79309,
          "velocity": 0.7874015748031497
        },
        {
          "duration": 0.25862062500000604,
          "durationTicks": 60,
          "midi": 59,
          "name": "B3",
          "ticks": 12480,
          "time": 53.79309,
          "velocity": 0.5511811023622047
        },
        {
          "duration": 0.25862062499999894,
          "durationTicks": 60,
          "midi": 59,
          "name": "B3",
          "ticks": 12552,
          "time": 54.103434750000005,
          "velocity": 0.6299212598425197
        },
        {
          "duration": 0.25862062499999894,
          "durationTicks": 60,
          "midi": 64,
          "name": "E4",
          "ticks": 12552,
          "time": 54.103434750000005,
          "velocity": 0.7874015748031497
        },
        {
          "duration": 0.25862062499999894,
          "durationTicks": 60,
          "midi": 61,
          "name": "C#4",
          "ticks": 12552,
          "time": 54.103434750000005,
          "velocity": 0.7874015748031497
        },
        {
          "duration": 0.15517237499999936,
          "durationTicks": 36,
          "midi": 59,
          "name": "B3",
          "ticks": 12624,
          "time": 54.413779500000004,
          "velocity": 0.7165354330708661
        },
        {
          "duration": 0.15517237499999936,
          "durationTicks": 36,
          "midi": 64,
          "name": "E4",
          "ticks": 12624,
          "time": 54.413779500000004,
          "velocity": 0.7874015748031497
        },
        {
          "duration": 0.15517237499999936,
          "durationTicks": 36,
          "midi": 61,
          "name": "C#4",
          "ticks": 12624,
          "time": 54.413779500000004,
          "velocity": 0.7874015748031497
        },
        {
          "duration": 0.3362068125000022,
          "durationTicks": 78,
          "midi": 71,
          "name": "B4",
          "ticks": 12672,
          "time": 54.620676,
          "velocity": 0.7716535433070866
        },
        {
          "duration": 0.3362068125000022,
          "durationTicks": 78,
          "midi": 59,
          "name": "B3",
          "ticks": 12672,
          "time": 54.620676,
          "velocity": 0.7716535433070866
        },
        {
          "duration": 0.3362068125000022,
          "durationTicks": 78,
          "midi": 64,
          "name": "E4",
          "ticks": 12672,
          "time": 54.620676,
          "velocity": 0.7874015748031497
        },
        {
          "duration": 0.3362068125000022,
          "durationTicks": 78,
          "midi": 61,
          "name": "C#4",
          "ticks": 12672,
          "time": 54.620676,
          "velocity": 0.7874015748031497
        },
        {
          "duration": 0.3362068125000022,
          "durationTicks": 78,
          "midi": 73,
          "name": "C#5",
          "ticks": 12675,
          "time": 54.63360703125,
          "velocity": 0.7165354330708661
        },
        {
          "duration": 0.3362068125000022,
          "durationTicks": 78,
          "midi": 76,
          "name": "E5",
          "ticks": 12677,
          "time": 54.64222771875001,
          "velocity": 0.7165354330708661
        },
        {
          "duration": 0.3103447499999987,
          "durationTicks": 72,
          "midi": 68,
          "name": "G#4",
          "ticks": 12768,
          "time": 55.034469,
          "velocity": 0.7874015748031497
        },
        {
          "duration": 0.3103447499999987,
          "durationTicks": 72,
          "midi": 73,
          "name": "C#5",
          "ticks": 12768,
          "time": 55.034469,
          "velocity": 0.7874015748031497
        },
        {
          "duration": 0.3103447499999987,
          "durationTicks": 72,
          "midi": 61,
          "name": "C#4",
          "ticks": 12768,
          "time": 55.034469,
          "velocity": 0.7874015748031497
        },
        {
          "duration": 0.3103447499999987,
          "durationTicks": 72,
          "midi": 64,
          "name": "E4",
          "ticks": 12768,
          "time": 55.034469,
          "velocity": 0.7874015748031497
        },
        {
          "duration": 0.3103447499999987,
          "durationTicks": 72,
          "midi": 76,
          "name": "E5",
          "ticks": 12768,
          "time": 55.034469,
          "velocity": 0.7165354330708661
        },
        {
          "duration": 0.3103447499999987,
          "durationTicks": 72,
          "midi": 80,
          "name": "G#5",
          "ticks": 12768,
          "time": 55.034469,
          "velocity": 0.7165354330708661
        },
        {
          "duration": 0.31034475000000583,
          "durationTicks": 72,
          "midi": 68,
          "name": "G#4",
          "ticks": 12864,
          "time": 55.448262,
          "velocity": 0.7874015748031497
        },
        {
          "duration": 0.31034475000000583,
          "durationTicks": 72,
          "midi": 73,
          "name": "C#5",
          "ticks": 12864,
          "time": 55.448262,
          "velocity": 0.7874015748031497
        },
        {
          "duration": 0.31034475000000583,
          "durationTicks": 72,
          "midi": 76,
          "name": "E5",
          "ticks": 12864,
          "time": 55.448262,
          "velocity": 0.7165354330708661
        },
        {
          "duration": 0.31034475000000583,
          "durationTicks": 72,
          "midi": 80,
          "name": "G#5",
          "ticks": 12864,
          "time": 55.448262,
          "velocity": 0.7165354330708661
        },
        {
          "duration": 0.31034475000000583,
          "durationTicks": 72,
          "midi": 64,
          "name": "E4",
          "ticks": 12864,
          "time": 55.448262,
          "velocity": 0.7874015748031497
        },
        {
          "duration": 0.31034475000000583,
          "durationTicks": 72,
          "midi": 61,
          "name": "C#4",
          "ticks": 12864,
          "time": 55.448262,
          "velocity": 0.7874015748031497
        },
        {
          "duration": 0.3103447499999987,
          "durationTicks": 72,
          "midi": 63,
          "name": "D#4",
          "ticks": 12960,
          "time": 55.862055000000005,
          "velocity": 0.7874015748031497
        },
        {
          "duration": 0.3103447499999987,
          "durationTicks": 72,
          "midi": 75,
          "name": "D#5",
          "ticks": 12960,
          "time": 55.862055000000005,
          "velocity": 0.7165354330708661
        },
        {
          "duration": 0.3103447499999987,
          "durationTicks": 72,
          "midi": 66,
          "name": "F#4",
          "ticks": 12960,
          "time": 55.862055000000005,
          "velocity": 0.7874015748031497
        },
        {
          "duration": 0.3103447499999987,
          "durationTicks": 72,
          "midi": 71,
          "name": "B4",
          "ticks": 12960,
          "time": 55.862055000000005,
          "velocity": 0.7874015748031497
        },
        {
          "duration": 0.3103447499999987,
          "durationTicks": 72,
          "midi": 59,
          "name": "B3",
          "ticks": 12960,
          "time": 55.862055000000005,
          "velocity": 0.7874015748031497
        },
        {
          "duration": 0.3103447499999987,
          "durationTicks": 72,
          "midi": 78,
          "name": "F#5",
          "ticks": 12960,
          "time": 55.862055000000005,
          "velocity": 0.7165354330708661
        },
        {
          "duration": 1.241379000000002,
          "durationTicks": 288,
          "midi": 80,
          "name": "G#5",
          "ticks": 13056,
          "time": 56.275848,
          "velocity": 0.6929133858267716
        },
        {
          "duration": 1.241379000000002,
          "durationTicks": 288,
          "midi": 68,
          "name": "G#4",
          "ticks": 13056,
          "time": 56.275848,
          "velocity": 0.7874015748031497
        },
        {
          "duration": 1.241379000000002,
          "durationTicks": 288,
          "midi": 73,
          "name": "C#5",
          "ticks": 13056,
          "time": 56.275848,
          "velocity": 0.6929133858267716
        },
        {
          "duration": 1.241379000000002,
          "durationTicks": 288,
          "midi": 61,
          "name": "C#4",
          "ticks": 13056,
          "time": 56.275848,
          "velocity": 0.7874015748031497
        },
        {
          "duration": 1.241379000000002,
          "durationTicks": 288,
          "midi": 80,
          "name": "G#5",
          "ticks": 13440,
          "time": 57.931020000000004,
          "velocity": 0.6929133858267716
        },
        {
          "duration": 1.241379000000002,
          "durationTicks": 288,
          "midi": 76,
          "name": "E5",
          "ticks": 13440,
          "time": 57.931020000000004,
          "velocity": 0.6929133858267716
        },
        {
          "duration": 1.241379000000002,
          "durationTicks": 288,
          "midi": 64,
          "name": "E4",
          "ticks": 13440,
          "time": 57.931020000000004,
          "velocity": 0.7874015748031497
        },
        {
          "duration": 1.241379000000002,
          "durationTicks": 288,
          "midi": 68,
          "name": "G#4",
          "ticks": 13440,
          "time": 57.931020000000004,
          "velocity": 0.7874015748031497
        },
        {
          "duration": 0.1810344374999957,
          "durationTicks": 42,
          "midi": 61,
          "name": "C#4",
          "ticks": 13776,
          "time": 59.379295500000005,
          "velocity": 0.7874015748031497
        },
        {
          "duration": 0.1810344374999957,
          "durationTicks": 42,
          "midi": 56,
          "name": "G#3",
          "ticks": 13776,
          "time": 59.379295500000005,
          "velocity": 0.7874015748031497
        },
        {
          "duration": 0.1810344374999957,
          "durationTicks": 42,
          "midi": 64,
          "name": "E4",
          "ticks": 13824,
          "time": 59.586192000000004,
          "velocity": 0.7874015748031497
        },
        {
          "duration": 0.1810344374999957,
          "durationTicks": 42,
          "midi": 68,
          "name": "G#4",
          "ticks": 13824,
          "time": 59.586192000000004,
          "velocity": 0.7874015748031497
        },
        {
          "duration": 0.1810344375000028,
          "durationTicks": 42,
          "midi": 64,
          "name": "E4",
          "ticks": 13872,
          "time": 59.7930885,
          "velocity": 0.7874015748031497
        },
        {
          "duration": 0.1810344375000028,
          "durationTicks": 42,
          "midi": 68,
          "name": "G#4",
          "ticks": 13872,
          "time": 59.7930885,
          "velocity": 0.7874015748031497
        },
        {
          "duration": 0.1810344375000028,
          "durationTicks": 42,
          "midi": 63,
          "name": "D#4",
          "ticks": 13920,
          "time": 59.999985,
          "velocity": 0.7874015748031497
        },
        {
          "duration": 0.1810344375000028,
          "durationTicks": 42,
          "midi": 66,
          "name": "F#4",
          "ticks": 13920,
          "time": 59.999985,
          "velocity": 0.7874015748031497
        },
        {
          "duration": 0.3620688749999985,
          "durationTicks": 84,
          "midi": 61,
          "name": "C#4",
          "ticks": 13968,
          "time": 60.2068815,
          "velocity": 0.7874015748031497
        },
        {
          "duration": 0.3620688749999985,
          "durationTicks": 84,
          "midi": 64,
          "name": "E4",
          "ticks": 13968,
          "time": 60.2068815,
          "velocity": 0.7874015748031497
        },
        {
          "duration": 0.3620688750000056,
          "durationTicks": 84,
          "midi": 61,
          "name": "C#4",
          "ticks": 14064,
          "time": 60.6206745,
          "velocity": 0.7874015748031497
        },
        {
          "duration": 0.3620688750000056,
          "durationTicks": 84,
          "midi": 56,
          "name": "G#3",
          "ticks": 14064,
          "time": 60.6206745,
          "velocity": 0.7874015748031497
        },
        {
          "duration": 0.38793093749999485,
          "durationTicks": 90,
          "midi": 68,
          "name": "G#4",
          "ticks": 14160,
          "time": 61.034467500000005,
          "velocity": 0.7874015748031497
        },
        {
          "duration": 0.38793093749999485,
          "durationTicks": 90,
          "midi": 64,
          "name": "E4",
          "ticks": 14160,
          "time": 61.034467500000005,
          "velocity": 0.7874015748031497
        },
        {
          "duration": 0.38793093750000196,
          "durationTicks": 90,
          "midi": 63,
          "name": "D#4",
          "ticks": 14256,
          "time": 61.4482605,
          "velocity": 0.7874015748031497
        },
        {
          "duration": 0.38793093750000196,
          "durationTicks": 90,
          "midi": 66,
          "name": "F#4",
          "ticks": 14256,
          "time": 61.4482605,
          "velocity": 0.7874015748031497
        },
        {
          "duration": 0.38793093750000196,
          "durationTicks": 90,
          "midi": 64,
          "name": "E4",
          "ticks": 14352,
          "time": 61.8620535,
          "velocity": 0.7874015748031497
        },
        {
          "duration": 0.38793093750000196,
          "durationTicks": 90,
          "midi": 61,
          "name": "C#4",
          "ticks": 14352,
          "time": 61.8620535,
          "velocity": 0.7874015748031497
        },
        {
          "duration": 0.15517237500000647,
          "durationTicks": 36,
          "midi": 64,
          "name": "E4",
          "ticks": 14448,
          "time": 62.2758465,
          "velocity": 0.7874015748031497
        },
        {
          "duration": 0.15517237500000647,
          "durationTicks": 36,
          "midi": 68,
          "name": "G#4",
          "ticks": 14448,
          "time": 62.2758465,
          "velocity": 0.7874015748031497
        },
        {
          "duration": 0.15517237499999936,
          "durationTicks": 36,
          "midi": 68,
          "name": "G#4",
          "ticks": 14496,
          "time": 62.482743000000006,
          "velocity": 0.7874015748031497
        },
        {
          "duration": 0.15517237499999936,
          "durationTicks": 36,
          "midi": 64,
          "name": "E4",
          "ticks": 14496,
          "time": 62.482743000000006,
          "velocity": 0.7874015748031497
        },
        {
          "duration": 0.15517237499999936,
          "durationTicks": 36,
          "midi": 63,
          "name": "D#4",
          "ticks": 14544,
          "time": 62.689639500000006,
          "velocity": 0.7874015748031497
        },
        {
          "duration": 0.15517237499999936,
          "durationTicks": 36,
          "midi": 66,
          "name": "F#4",
          "ticks": 14544,
          "time": 62.689639500000006,
          "velocity": 0.7874015748031497
        },
        {
          "duration": 1.4482755000000012,
          "durationTicks": 336,
          "midi": 61,
          "name": "C#4",
          "ticks": 14592,
          "time": 62.896536000000005,
          "velocity": 0.7874015748031497
        },
        {
          "duration": 1.4482755000000012,
          "durationTicks": 336,
          "midi": 68,
          "name": "G#4",
          "ticks": 14592,
          "time": 62.896536000000005,
          "velocity": 0.7874015748031497
        },
        {
          "duration": 1.4482755000000012,
          "durationTicks": 336,
          "midi": 73,
          "name": "C#5",
          "ticks": 14592,
          "time": 62.896536000000005,
          "velocity": 0.7165354330708661
        },
        {
          "duration": 1.4482755000000012,
          "durationTicks": 336,
          "midi": 80,
          "name": "G#5",
          "ticks": 14592,
          "time": 62.896536000000005,
          "velocity": 0.7165354330708661
        },
        {
          "duration": 1.241378999999995,
          "durationTicks": 288,
          "midi": 64,
          "name": "E4",
          "ticks": 14976,
          "time": 64.551708,
          "velocity": 0.7874015748031497
        },
        {
          "duration": 1.241378999999995,
          "durationTicks": 288,
          "midi": 68,
          "name": "G#4",
          "ticks": 14976,
          "time": 64.551708,
          "velocity": 0.7874015748031497
        },
        {
          "duration": 1.241378999999995,
          "durationTicks": 288,
          "midi": 76,
          "name": "E5",
          "ticks": 14976,
          "time": 64.551708,
          "velocity": 0.7322834645669292
        },
        {
          "duration": 1.241378999999995,
          "durationTicks": 288,
          "midi": 80,
          "name": "G#5",
          "ticks": 14976,
          "time": 64.551708,
          "velocity": 0.7322834645669292
        },
        {
          "duration": 0.1810344375000028,
          "durationTicks": 42,
          "midi": 56,
          "name": "G#3",
          "ticks": 15312,
          "time": 65.9999835,
          "velocity": 0.7874015748031497
        },
        {
          "duration": 0.1810344375000028,
          "durationTicks": 42,
          "midi": 61,
          "name": "C#4",
          "ticks": 15312,
          "time": 65.9999835,
          "velocity": 0.7874015748031497
        },
        {
          "duration": 0.1810344375000028,
          "durationTicks": 42,
          "midi": 64,
          "name": "E4",
          "ticks": 15360,
          "time": 66.20688,
          "velocity": 0.7874015748031497
        },
        {
          "duration": 0.1810344375000028,
          "durationTicks": 42,
          "midi": 68,
          "name": "G#4",
          "ticks": 15360,
          "time": 66.20688,
          "velocity": 0.7874015748031497
        },
        {
          "duration": 0.3362068125000093,
          "durationTicks": 78,
          "midi": 64,
          "name": "E4",
          "ticks": 15408,
          "time": 66.4137765,
          "velocity": 0.7874015748031497
        },
        {
          "duration": 0.3362068125000093,
          "durationTicks": 78,
          "midi": 66,
          "name": "F#4",
          "ticks": 15408,
          "time": 66.4137765,
          "velocity": 0.7874015748031497
        },
        {
          "duration": 0.33620681249999507,
          "durationTicks": 78,
          "midi": 61,
          "name": "C#4",
          "ticks": 15504,
          "time": 66.82756950000001,
          "velocity": 0.7874015748031497
        },
        {
          "duration": 0.33620681249999507,
          "durationTicks": 78,
          "midi": 64,
          "name": "E4",
          "ticks": 15504,
          "time": 66.82756950000001,
          "velocity": 0.7874015748031497
        },
        {
          "duration": 0.3620688749999914,
          "durationTicks": 84,
          "midi": 56,
          "name": "G#3",
          "ticks": 15600,
          "time": 67.24136250000001,
          "velocity": 0.7874015748031497
        },
        {
          "duration": 0.3620688749999914,
          "durationTicks": 84,
          "midi": 61,
          "name": "C#4",
          "ticks": 15600,
          "time": 67.24136250000001,
          "velocity": 0.7874015748031497
        },
        {
          "duration": 0.3620688749999914,
          "durationTicks": 84,
          "midi": 61,
          "name": "C#4",
          "ticks": 15696,
          "time": 67.6551555,
          "velocity": 0.7874015748031497
        },
        {
          "duration": 0.3620688749999914,
          "durationTicks": 84,
          "midi": 68,
          "name": "G#4",
          "ticks": 15696,
          "time": 67.6551555,
          "velocity": 0.7874015748031497
        },
        {
          "duration": 0.3620688750000056,
          "durationTicks": 84,
          "midi": 63,
          "name": "D#4",
          "ticks": 15792,
          "time": 68.0689485,
          "velocity": 0.7874015748031497
        },
        {
          "duration": 0.3620688750000056,
          "durationTicks": 84,
          "midi": 66,
          "name": "F#4",
          "ticks": 15792,
          "time": 68.0689485,
          "velocity": 0.7874015748031497
        },
        {
          "duration": 0.20689649999999915,
          "durationTicks": 48,
          "midi": 61,
          "name": "C#4",
          "ticks": 15888,
          "time": 68.4827415,
          "velocity": 0.7874015748031497
        },
        {
          "duration": 0.20689649999999915,
          "durationTicks": 48,
          "midi": 64,
          "name": "E4",
          "ticks": 15888,
          "time": 68.4827415,
          "velocity": 0.7874015748031497
        },
        {
          "duration": 0.02586206249999634,
          "durationTicks": 6,
          "midi": 49,
          "name": "C#3",
          "ticks": 15936,
          "time": 68.689638,
          "velocity": 0.25984251968503935
        },
        {
          "duration": 0.025862062500010552,
          "durationTicks": 6,
          "midi": 49,
          "name": "C#3",
          "ticks": 15942,
          "time": 68.7155000625,
          "velocity": 0.2677165354330709
        },
        {
          "duration": 0.02586206249999634,
          "durationTicks": 6,
          "midi": 49,
          "name": "C#3",
          "ticks": 15948,
          "time": 68.74136212500001,
          "velocity": 0.2755905511811024
        },
        {
          "duration": 0.02586206249999634,
          "durationTicks": 6,
          "midi": 49,
          "name": "C#3",
          "ticks": 15954,
          "time": 68.7672241875,
          "velocity": 0.29133858267716534
        },
        {
          "duration": 0.02586206249999634,
          "durationTicks": 6,
          "midi": 49,
          "name": "C#3",
          "ticks": 15960,
          "time": 68.79308625,
          "velocity": 0.2992125984251969
        },
        {
          "duration": 0.025862062500010552,
          "durationTicks": 6,
          "midi": 49,
          "name": "C#3",
          "ticks": 15966,
          "time": 68.8189483125,
          "velocity": 0.30708661417322836
        },
        {
          "duration": 0.02586206249999634,
          "durationTicks": 6,
          "midi": 49,
          "name": "C#3",
          "ticks": 15972,
          "time": 68.84481037500001,
          "velocity": 0.3228346456692913
        },
        {
          "duration": 0.02586206249999634,
          "durationTicks": 6,
          "midi": 49,
          "name": "C#3",
          "ticks": 15978,
          "time": 68.8706724375,
          "velocity": 0.33070866141732286
        },
        {
          "duration": 0.1810344375000028,
          "durationTicks": 42,
          "midi": 68,
          "name": "G#4",
          "ticks": 15984,
          "time": 68.8965345,
          "velocity": 0.7874015748031497
        },
        {
          "duration": 0.1810344375000028,
          "durationTicks": 42,
          "midi": 61,
          "name": "C#4",
          "ticks": 15984,
          "time": 68.8965345,
          "velocity": 0.7874015748031497
        },
        {
          "duration": 0.02586206249999634,
          "durationTicks": 6,
          "midi": 49,
          "name": "C#3",
          "ticks": 15984,
          "time": 68.8965345,
          "velocity": 0.33858267716535434
        },
        {
          "duration": 0.1810344375000028,
          "durationTicks": 42,
          "midi": 56,
          "name": "G#3",
          "ticks": 15984,
          "time": 68.8965345,
          "velocity": 0.7874015748031497
        },
        {
          "duration": 0.1810344375000028,
          "durationTicks": 42,
          "midi": 73,
          "name": "C#5",
          "ticks": 15984,
          "time": 68.8965345,
          "velocity": 0.7874015748031497
        },
        {
          "duration": 0.025862062500010552,
          "durationTicks": 6,
          "midi": 49,
          "name": "C#3",
          "ticks": 15990,
          "time": 68.9223965625,
          "velocity": 0.3543307086614173
        },
        {
          "duration": 0.02586206249999634,
          "durationTicks": 6,
          "midi": 49,
          "name": "C#3",
          "ticks": 15996,
          "time": 68.94825862500001,
          "velocity": 0.36220472440944884
        },
        {
          "duration": 0.02586206249999634,
          "durationTicks": 6,
          "midi": 49,
          "name": "C#3",
          "ticks": 16002,
          "time": 68.9741206875,
          "velocity": 0.3700787401574803
        },
        {
          "duration": 0.02586206249999634,
          "durationTicks": 6,
          "midi": 49,
          "name": "C#3",
          "ticks": 16008,
          "time": 68.99998275,
          "velocity": 0.3858267716535433
        },
        {
          "duration": 0.025862062500010552,
          "durationTicks": 6,
          "midi": 49,
          "name": "C#3",
          "ticks": 16014,
          "time": 69.0258448125,
          "velocity": 0.3937007874015748
        },
        {
          "duration": 0.02586206249999634,
          "durationTicks": 6,
          "midi": 49,
          "name": "C#3",
          "ticks": 16020,
          "time": 69.05170687500001,
          "velocity": 0.4015748031496063
        },
        {
          "duration": 0.02586206249999634,
          "durationTicks": 6,
          "midi": 49,
          "name": "C#3",
          "ticks": 16026,
          "time": 69.0775689375,
          "velocity": 0.41732283464566927
        },
        {
          "duration": 0.1810344375000028,
          "durationTicks": 42,
          "midi": 61,
          "name": "C#4",
          "ticks": 16032,
          "time": 69.103431,
          "velocity": 0.7874015748031497
        },
        {
          "duration": 0.02586206249999634,
          "durationTicks": 6,
          "midi": 49,
          "name": "C#3",
          "ticks": 16032,
          "time": 69.103431,
          "velocity": 0.4251968503937008
        },
        {
          "duration": 0.1810344375000028,
          "durationTicks": 42,
          "midi": 56,
          "name": "G#3",
          "ticks": 16032,
          "time": 69.103431,
          "velocity": 0.7874015748031497
        },
        {
          "duration": 0.1810344375000028,
          "durationTicks": 42,
          "midi": 68,
          "name": "G#4",
          "ticks": 16032,
          "time": 69.103431,
          "velocity": 0.7874015748031497
        },
        {
          "duration": 0.1810344375000028,
          "durationTicks": 42,
          "midi": 73,
          "name": "C#5",
          "ticks": 16032,
          "time": 69.103431,
          "velocity": 0.7874015748031497
        },
        {
          "duration": 0.025862062500010552,
          "durationTicks": 6,
          "midi": 49,
          "name": "C#3",
          "ticks": 16038,
          "time": 69.1292930625,
          "velocity": 0.4330708661417323
        },
        {
          "duration": 0.02586206249999634,
          "durationTicks": 6,
          "midi": 49,
          "name": "C#3",
          "ticks": 16044,
          "time": 69.15515512500001,
          "velocity": 0.44881889763779526
        },
        {
          "duration": 0.02586206249999634,
          "durationTicks": 6,
          "midi": 49,
          "name": "C#3",
          "ticks": 16050,
          "time": 69.1810171875,
          "velocity": 0.4566929133858268
        },
        {
          "duration": 0.025862062500010552,
          "durationTicks": 6,
          "midi": 49,
          "name": "C#3",
          "ticks": 16056,
          "time": 69.20687925,
          "velocity": 0.4645669291338583
        },
        {
          "duration": 0.02586206249999634,
          "durationTicks": 6,
          "midi": 49,
          "name": "C#3",
          "ticks": 16062,
          "time": 69.23274131250001,
          "velocity": 0.48031496062992124
        },
        {
          "duration": 0.02586206249999634,
          "durationTicks": 6,
          "midi": 49,
          "name": "C#3",
          "ticks": 16068,
          "time": 69.258603375,
          "velocity": 0.4881889763779528
        },
        {
          "duration": 0.02586206249999634,
          "durationTicks": 6,
          "midi": 49,
          "name": "C#3",
          "ticks": 16074,
          "time": 69.2844654375,
          "velocity": 0.49606299212598426
        },
        {
          "duration": 0.1810344375000028,
          "durationTicks": 42,
          "midi": 54,
          "name": "F#3",
          "ticks": 16080,
          "time": 69.3103275,
          "velocity": 0.7874015748031497
        },
        {
          "duration": 0.1810344375000028,
          "durationTicks": 42,
          "midi": 59,
          "name": "B3",
          "ticks": 16080,
          "time": 69.3103275,
          "velocity": 0.7874015748031497
        },
        {
          "duration": 0.1810344375000028,
          "durationTicks": 42,
          "midi": 66,
          "name": "F#4",
          "ticks": 16080,
          "time": 69.3103275,
          "velocity": 0.7874015748031497
        },
        {
          "duration": 0.1810344375000028,
          "durationTicks": 42,
          "midi": 71,
          "name": "B4",
          "ticks": 16080,
          "time": 69.3103275,
          "velocity": 0.7874015748031497
        },
        {
          "duration": 0.025862062500010552,
          "durationTicks": 6,
          "midi": 49,
          "name": "C#3",
          "ticks": 16080,
          "time": 69.3103275,
          "velocity": 0.5118110236220472
        },
        {
          "duration": 0.02586206249999634,
          "durationTicks": 6,
          "midi": 49,
          "name": "C#3",
          "ticks": 16086,
          "time": 69.33618956250001,
          "velocity": 0.5196850393700787
        },
        {
          "duration": 0.02586206249999634,
          "durationTicks": 6,
          "midi": 49,
          "name": "C#3",
          "ticks": 16092,
          "time": 69.362051625,
          "velocity": 0.5354330708661418
        },
        {
          "duration": 0.02586206249999634,
          "durationTicks": 6,
          "midi": 49,
          "name": "C#3",
          "ticks": 16098,
          "time": 69.3879136875,
          "velocity": 0.5433070866141733
        },
        {
          "duration": 0.025862062500010552,
          "durationTicks": 6,
          "midi": 49,
          "name": "C#3",
          "ticks": 16104,
          "time": 69.41377575,
          "velocity": 0.5511811023622047
        },
        {
          "duration": 0.02586206249999634,
          "durationTicks": 6,
          "midi": 49,
          "name": "C#3",
          "ticks": 16110,
          "time": 69.43963781250001,
          "velocity": 0.5669291338582677
        },
        {
          "duration": 0.02586206249999634,
          "durationTicks": 6,
          "midi": 49,
          "name": "C#3",
          "ticks": 16116,
          "time": 69.465499875,
          "velocity": 0.5748031496062992
        },
        {
          "duration": 0.02586206249999634,
          "durationTicks": 6,
          "midi": 49,
          "name": "C#3",
          "ticks": 16122,
          "time": 69.4913619375,
          "velocity": 0.5826771653543307
        },
        {
          "duration": 0.3620688750000056,
          "durationTicks": 84,
          "midi": 68,
          "name": "G#4",
          "ticks": 16128,
          "time": 69.517224,
          "velocity": 0.7874015748031497
        },
        {
          "duration": 0.3620688750000056,
          "durationTicks": 84,
          "midi": 56,
          "name": "G#3",
          "ticks": 16128,
          "time": 69.517224,
          "velocity": 0.7874015748031497
        },
        {
          "duration": 0.3620688750000056,
          "durationTicks": 84,
          "midi": 61,
          "name": "C#4",
          "ticks": 16128,
          "time": 69.517224,
          "velocity": 0.7874015748031497
        },
        {
          "duration": 0.3620688750000056,
          "durationTicks": 84,
          "midi": 73,
          "name": "C#5",
          "ticks": 16128,
          "time": 69.517224,
          "velocity": 0.7874015748031497
        },
        {
          "duration": 0.3620688750000056,
          "durationTicks": 84,
          "midi": 59,
          "name": "B3",
          "ticks": 16224,
          "time": 69.931017,
          "velocity": 0.7874015748031497
        },
        {
          "duration": 0.3620688750000056,
          "durationTicks": 84,
          "midi": 63,
          "name": "D#4",
          "ticks": 16224,
          "time": 69.931017,
          "velocity": 0.7874015748031497
        },
        {
          "duration": 0.3620688750000056,
          "durationTicks": 84,
          "midi": 71,
          "name": "B4",
          "ticks": 16224,
          "time": 69.931017,
          "velocity": 0.7874015748031497
        },
        {
          "duration": 0.3620688750000056,
          "durationTicks": 84,
          "midi": 75,
          "name": "D#5",
          "ticks": 16224,
          "time": 69.931017,
          "velocity": 0.7874015748031497
        },
        {
          "duration": 0.3620688749999914,
          "durationTicks": 84,
          "midi": 61,
          "name": "C#4",
          "ticks": 16320,
          "time": 70.34481000000001,
          "velocity": 0.7874015748031497
        },
        {
          "duration": 0.3620688749999914,
          "durationTicks": 84,
          "midi": 64,
          "name": "E4",
          "ticks": 16320,
          "time": 70.34481000000001,
          "velocity": 0.7874015748031497
        },
        {
          "duration": 0.3620688749999914,
          "durationTicks": 84,
          "midi": 73,
          "name": "C#5",
          "ticks": 16320,
          "time": 70.34481000000001,
          "velocity": 0.7874015748031497
        },
        {
          "duration": 0.3620688749999914,
          "durationTicks": 84,
          "midi": 76,
          "name": "E5",
          "ticks": 16320,
          "time": 70.34481000000001,
          "velocity": 0.7874015748031497
        },
        {
          "duration": 0.3620688749999914,
          "durationTicks": 84,
          "midi": 59,
          "name": "B3",
          "ticks": 16416,
          "time": 70.75860300000001,
          "velocity": 0.7874015748031497
        },
        {
          "duration": 0.3620688749999914,
          "durationTicks": 84,
          "midi": 63,
          "name": "D#4",
          "ticks": 16416,
          "time": 70.75860300000001,
          "velocity": 0.7874015748031497
        },
        {
          "duration": 0.3620688749999914,
          "durationTicks": 84,
          "midi": 71,
          "name": "B4",
          "ticks": 16416,
          "time": 70.75860300000001,
          "velocity": 0.7874015748031497
        },
        {
          "duration": 0.3620688749999914,
          "durationTicks": 84,
          "midi": 75,
          "name": "D#5",
          "ticks": 16416,
          "time": 70.75860300000001,
          "velocity": 0.7874015748031497
        },
        {
          "duration": 0.3620688749999914,
          "durationTicks": 84,
          "midi": 76,
          "name": "E5",
          "ticks": 16512,
          "time": 71.172396,
          "velocity": 0.7874015748031497
        },
        {
          "duration": 0.3620688749999914,
          "durationTicks": 84,
          "midi": 73,
          "name": "C#5",
          "ticks": 16512,
          "time": 71.172396,
          "velocity": 0.7874015748031497
        },
        {
          "duration": 0.3620688749999914,
          "durationTicks": 84,
          "midi": 64,
          "name": "E4",
          "ticks": 16512,
          "time": 71.172396,
          "velocity": 0.7874015748031497
        },
        {
          "duration": 0.3620688749999914,
          "durationTicks": 84,
          "midi": 61,
          "name": "C#4",
          "ticks": 16512,
          "time": 71.172396,
          "velocity": 0.7874015748031497
        },
        {
          "duration": 0.3620688750000056,
          "durationTicks": 84,
          "midi": 75,
          "name": "D#5",
          "ticks": 16608,
          "time": 71.586189,
          "velocity": 0.7874015748031497
        },
        {
          "duration": 0.3620688750000056,
          "durationTicks": 84,
          "midi": 71,
          "name": "B4",
          "ticks": 16608,
          "time": 71.586189,
          "velocity": 0.7874015748031497
        },
        {
          "duration": 0.3620688750000056,
          "durationTicks": 84,
          "midi": 63,
          "name": "D#4",
          "ticks": 16608,
          "time": 71.586189,
          "velocity": 0.7874015748031497
        },
        {
          "duration": 0.3620688750000056,
          "durationTicks": 84,
          "midi": 59,
          "name": "B3",
          "ticks": 16608,
          "time": 71.586189,
          "velocity": 0.7874015748031497
        },
        {
          "duration": 0.3620688750000056,
          "durationTicks": 84,
          "midi": 56,
          "name": "G#3",
          "ticks": 16704,
          "time": 71.999982,
          "velocity": 0.7874015748031497
        },
        {
          "duration": 0.3620688750000056,
          "durationTicks": 84,
          "midi": 61,
          "name": "C#4",
          "ticks": 16704,
          "time": 71.999982,
          "velocity": 0.7874015748031497
        },
        {
          "duration": 0.3620688750000056,
          "durationTicks": 84,
          "midi": 68,
          "name": "G#4",
          "ticks": 16704,
          "time": 71.999982,
          "velocity": 0.7874015748031497
        },
        {
          "duration": 0.3620688750000056,
          "durationTicks": 84,
          "midi": 73,
          "name": "C#5",
          "ticks": 16704,
          "time": 71.999982,
          "velocity": 0.7874015748031497
        },
        {
          "duration": 0.20689649999999915,
          "durationTicks": 48,
          "midi": 56,
          "name": "G#3",
          "ticks": 16800,
          "time": 72.413775,
          "velocity": 0.7874015748031497
        },
        {
          "duration": 0.20689649999999915,
          "durationTicks": 48,
          "midi": 61,
          "name": "C#4",
          "ticks": 16800,
          "time": 72.413775,
          "velocity": 0.7874015748031497
        },
        {
          "duration": 0.20689649999999915,
          "durationTicks": 48,
          "midi": 68,
          "name": "G#4",
          "ticks": 16800,
          "time": 72.413775,
          "velocity": 0.7874015748031497
        },
        {
          "duration": 0.20689649999999915,
          "durationTicks": 48,
          "midi": 73,
          "name": "C#5",
          "ticks": 16800,
          "time": 72.413775,
          "velocity": 0.7874015748031497
        },
        {
          "duration": 0.4137929999999983,
          "durationTicks": 96,
          "midi": 54,
          "name": "F#3",
          "ticks": 16848,
          "time": 72.6206715,
          "velocity": 0.7874015748031497
        },
        {
          "duration": 0.4137929999999983,
          "durationTicks": 96,
          "midi": 59,
          "name": "B3",
          "ticks": 16848,
          "time": 72.6206715,
          "velocity": 0.7874015748031497
        },
        {
          "duration": 0.4137929999999983,
          "durationTicks": 96,
          "midi": 66,
          "name": "F#4",
          "ticks": 16848,
          "time": 72.6206715,
          "velocity": 0.7874015748031497
        },
        {
          "duration": 0.4137929999999983,
          "durationTicks": 96,
          "midi": 71,
          "name": "B4",
          "ticks": 16848,
          "time": 72.6206715,
          "velocity": 0.7874015748031497
        },
        {
          "duration": 0.1810344374999886,
          "durationTicks": 42,
          "midi": 64,
          "name": "E4",
          "ticks": 17184,
          "time": 74.06894700000001,
          "velocity": 0.7874015748031497
        },
        {
          "duration": 0.1810344374999886,
          "durationTicks": 42,
          "midi": 59,
          "name": "B3",
          "ticks": 17184,
          "time": 74.06894700000001,
          "velocity": 0.25984251968503935
        },
        {
          "duration": 0.1810344374999886,
          "durationTicks": 42,
          "midi": 68,
          "name": "G#4",
          "ticks": 17184,
          "time": 74.06894700000001,
          "velocity": 0.7874015748031497
        },
        {
          "duration": 0.1810344374999886,
          "durationTicks": 42,
          "midi": 80,
          "name": "G#5",
          "ticks": 17184,
          "time": 74.06894700000001,
          "velocity": 0.6929133858267716
        },
        {
          "duration": 0.1810344374999886,
          "durationTicks": 42,
          "midi": 71,
          "name": "B4",
          "ticks": 17184,
          "time": 74.06894700000001,
          "velocity": 0.25984251968503935
        },
        {
          "duration": 0.1810344374999886,
          "durationTicks": 42,
          "midi": 76,
          "name": "E5",
          "ticks": 17184,
          "time": 74.06894700000001,
          "velocity": 0.6929133858267716
        },
        {
          "duration": 0.1810344375000028,
          "durationTicks": 42,
          "midi": 66,
          "name": "F#4",
          "ticks": 17232,
          "time": 74.27584350000001,
          "velocity": 0.7874015748031497
        },
        {
          "duration": 0.1810344375000028,
          "durationTicks": 42,
          "midi": 63,
          "name": "D#4",
          "ticks": 17232,
          "time": 74.27584350000001,
          "velocity": 0.7874015748031497
        },
        {
          "duration": 0.1810344375000028,
          "durationTicks": 42,
          "midi": 75,
          "name": "D#5",
          "ticks": 17232,
          "time": 74.27584350000001,
          "velocity": 0.6929133858267716
        },
        {
          "duration": 0.1810344375000028,
          "durationTicks": 42,
          "midi": 78,
          "name": "F#5",
          "ticks": 17232,
          "time": 74.27584350000001,
          "velocity": 0.6929133858267716
        },
        {
          "duration": 0.3103447499999987,
          "durationTicks": 72,
          "midi": 80,
          "name": "G#5",
          "ticks": 17280,
          "time": 74.48274,
          "velocity": 0.6929133858267716
        },
        {
          "duration": 0.3103447499999987,
          "durationTicks": 72,
          "midi": 76,
          "name": "E5",
          "ticks": 17280,
          "time": 74.48274,
          "velocity": 0.6929133858267716
        },
        {
          "duration": 0.3103447499999987,
          "durationTicks": 72,
          "midi": 71,
          "name": "B4",
          "ticks": 17280,
          "time": 74.48274,
          "velocity": 0.4094488188976378
        },
        {
          "duration": 0.3103447499999987,
          "durationTicks": 72,
          "midi": 59,
          "name": "B3",
          "ticks": 17280,
          "time": 74.48274,
          "velocity": 0.4094488188976378
        },
        {
          "duration": 0.3103447499999987,
          "durationTicks": 72,
          "midi": 64,
          "name": "E4",
          "ticks": 17280,
          "time": 74.48274,
          "velocity": 0.7874015748031497
        },
        {
          "duration": 0.3103447499999987,
          "durationTicks": 72,
          "midi": 68,
          "name": "G#4",
          "ticks": 17280,
          "time": 74.48274,
          "velocity": 0.7874015748031497
        },
        {
          "duration": 0.3103447499999987,
          "durationTicks": 72,
          "midi": 59,
          "name": "B3",
          "ticks": 17376,
          "time": 74.896533,
          "velocity": 0.5590551181102362
        },
        {
          "duration": 0.3620688750000056,
          "durationTicks": 84,
          "midi": 64,
          "name": "E4",
          "ticks": 17376,
          "time": 74.896533,
          "velocity": 0.7874015748031497
        },
        {
          "duration": 0.3620688750000056,
          "durationTicks": 84,
          "midi": 76,
          "name": "E5",
          "ticks": 17376,
          "time": 74.896533,
          "velocity": 0.6929133858267716
        },
        {
          "duration": 0.3620688750000056,
          "durationTicks": 84,
          "midi": 80,
          "name": "G#5",
          "ticks": 17376,
          "time": 74.896533,
          "velocity": 0.6929133858267716
        },
        {
          "duration": 0.3103447499999987,
          "durationTicks": 72,
          "midi": 71,
          "name": "B4",
          "ticks": 17376,
          "time": 74.896533,
          "velocity": 0.5590551181102362
        },
        {
          "duration": 0.3620688750000056,
          "durationTicks": 84,
          "midi": 68,
          "name": "G#4",
          "ticks": 17376,
          "time": 74.896533,
          "velocity": 0.7874015748031497
        },
        {
          "duration": 0.3620688750000056,
          "durationTicks": 84,
          "midi": 59,
          "name": "B3",
          "ticks": 17472,
          "time": 75.310326,
          "velocity": 0.7007874015748031
        },
        {
          "duration": 0.3620688750000056,
          "durationTicks": 84,
          "midi": 64,
          "name": "E4",
          "ticks": 17472,
          "time": 75.310326,
          "velocity": 0.7874015748031497
        },
        {
          "duration": 0.3620688750000056,
          "durationTicks": 84,
          "midi": 76,
          "name": "E5",
          "ticks": 17472,
          "time": 75.310326,
          "velocity": 0.6929133858267716
        },
        {
          "duration": 0.3620688750000056,
          "durationTicks": 84,
          "midi": 80,
          "name": "G#5",
          "ticks": 17472,
          "time": 75.310326,
          "velocity": 0.6929133858267716
        },
        {
          "duration": 0.3620688750000056,
          "durationTicks": 84,
          "midi": 71,
          "name": "B4",
          "ticks": 17472,
          "time": 75.310326,
          "velocity": 0.7007874015748031
        },
        {
          "duration": 0.3620688750000056,
          "durationTicks": 84,
          "midi": 68,
          "name": "G#4",
          "ticks": 17472,
          "time": 75.310326,
          "velocity": 0.7874015748031497
        },
        {
          "duration": 0.20689649999999915,
          "durationTicks": 48,
          "midi": 63,
          "name": "D#4",
          "ticks": 17568,
          "time": 75.724119,
          "velocity": 0.7874015748031497
        },
        {
          "duration": 0.20689649999999915,
          "durationTicks": 48,
          "midi": 75,
          "name": "D#5",
          "ticks": 17568,
          "time": 75.724119,
          "velocity": 0.6929133858267716
        },
        {
          "duration": 0.20689649999999915,
          "durationTicks": 48,
          "midi": 71,
          "name": "B4",
          "ticks": 17568,
          "time": 75.724119,
          "velocity": 0.7874015748031497
        },
        {
          "duration": 0.20689649999999915,
          "durationTicks": 48,
          "midi": 78,
          "name": "F#5",
          "ticks": 17568,
          "time": 75.724119,
          "velocity": 0.6929133858267716
        },
        {
          "duration": 0.20689649999999915,
          "durationTicks": 48,
          "midi": 66,
          "name": "F#4",
          "ticks": 17568,
          "time": 75.724119,
          "velocity": 0.7874015748031497
        },
        {
          "duration": 0.20689649999999915,
          "durationTicks": 48,
          "midi": 59,
          "name": "B3",
          "ticks": 17568,
          "time": 75.724119,
          "velocity": 0.7874015748031497
        },
        {
          "duration": 0.6206894999999975,
          "durationTicks": 144,
          "midi": 68,
          "name": "G#4",
          "ticks": 17664,
          "time": 76.137912,
          "velocity": 0.7874015748031497
        },
        {
          "duration": 0.6206894999999975,
          "durationTicks": 144,
          "midi": 49,
          "name": "C#3",
          "ticks": 17664,
          "time": 76.137912,
          "velocity": 0.6220472440944882
        },
        {
          "duration": 0.6206894999999975,
          "durationTicks": 144,
          "midi": 52,
          "name": "E3",
          "ticks": 17664,
          "time": 76.137912,
          "velocity": 0.6220472440944882
        },
        {
          "duration": 0.6206894999999975,
          "durationTicks": 144,
          "midi": 56,
          "name": "G#3",
          "ticks": 17664,
          "time": 76.137912,
          "velocity": 0.6220472440944882
        },
        {
          "duration": 0.6206894999999975,
          "durationTicks": 144,
          "midi": 61,
          "name": "C#4",
          "ticks": 17664,
          "time": 76.137912,
          "velocity": 0.7874015748031497
        },
        {
          "duration": 0.6206894999999975,
          "durationTicks": 144,
          "midi": 64,
          "name": "E4",
          "ticks": 17664,
          "time": 76.137912,
          "velocity": 0.7874015748031497
        },
        {
          "duration": 0.6206894999999975,
          "durationTicks": 144,
          "midi": 68,
          "name": "G#4",
          "ticks": 17856,
          "time": 76.96549800000001,
          "velocity": 0.7874015748031497
        },
        {
          "duration": 0.6206894999999975,
          "durationTicks": 144,
          "midi": 71,
          "name": "B4",
          "ticks": 17856,
          "time": 76.96549800000001,
          "velocity": 0.7874015748031497
        },
        {
          "duration": 0.6206894999999975,
          "durationTicks": 144,
          "midi": 76,
          "name": "E5",
          "ticks": 17856,
          "time": 76.96549800000001,
          "velocity": 0.7480314960629921
        },
        {
          "duration": 0.6206894999999975,
          "durationTicks": 144,
          "midi": 80,
          "name": "G#5",
          "ticks": 17856,
          "time": 76.96549800000001,
          "velocity": 0.7480314960629921
        },
        {
          "duration": 0.6206894999999975,
          "durationTicks": 144,
          "midi": 64,
          "name": "E4",
          "ticks": 18048,
          "time": 77.79308400000001,
          "velocity": 0.7874015748031497
        },
        {
          "duration": 0.6206894999999975,
          "durationTicks": 144,
          "midi": 68,
          "name": "G#4",
          "ticks": 18048,
          "time": 77.79308400000001,
          "velocity": 0.7874015748031497
        },
        {
          "duration": 0.6206894999999975,
          "durationTicks": 144,
          "midi": 56,
          "name": "G#3",
          "ticks": 18048,
          "time": 77.79308400000001,
          "velocity": 0.6220472440944882
        },
        {
          "duration": 0.6206894999999975,
          "durationTicks": 144,
          "midi": 52,
          "name": "E3",
          "ticks": 18048,
          "time": 77.79308400000001,
          "velocity": 0.6220472440944882
        },
        {
          "duration": 0.3103447499999987,
          "durationTicks": 72,
          "midi": 49,
          "name": "C#3",
          "ticks": 18120,
          "time": 78.10342875,
          "velocity": 0.6220472440944882
        },
        {
          "duration": 0.3103447499999987,
          "durationTicks": 72,
          "midi": 61,
          "name": "C#4",
          "ticks": 18120,
          "time": 78.10342875,
          "velocity": 0.7874015748031497
        },
        {
          "duration": 0.3620688750000056,
          "durationTicks": 84,
          "midi": 68,
          "name": "G#4",
          "ticks": 18240,
          "time": 78.62067,
          "velocity": 0.7874015748031497
        },
        {
          "duration": 0.3620688750000056,
          "durationTicks": 84,
          "midi": 73,
          "name": "C#5",
          "ticks": 18240,
          "time": 78.62067,
          "velocity": 0.7874015748031497
        },
        {
          "duration": 0.3620688749999914,
          "durationTicks": 84,
          "midi": 76,
          "name": "E5",
          "ticks": 18252,
          "time": 78.67239412500001,
          "velocity": 0.7874015748031497
        },
        {
          "duration": 0.3620688749999914,
          "durationTicks": 84,
          "midi": 80,
          "name": "G#5",
          "ticks": 18258,
          "time": 78.69825618750001,
          "velocity": 0.7165354330708661
        },
        {
          "duration": 0.15517237500000647,
          "durationTicks": 36,
          "midi": 68,
          "name": "G#4",
          "ticks": 18336,
          "time": 79.034463,
          "velocity": 0.7874015748031497
        },
        {
          "duration": 0.15517237500000647,
          "durationTicks": 36,
          "midi": 64,
          "name": "E4",
          "ticks": 18336,
          "time": 79.034463,
          "velocity": 0.7874015748031497
        },
        {
          "duration": 0.15517237500000647,
          "durationTicks": 36,
          "midi": 76,
          "name": "E5",
          "ticks": 18336,
          "time": 79.034463,
          "velocity": 0.7874015748031497
        },
        {
          "duration": 0.15517237500000647,
          "durationTicks": 36,
          "midi": 80,
          "name": "G#5",
          "ticks": 18336,
          "time": 79.034463,
          "velocity": 0.7165354330708661
        },
        {
          "duration": 0.15517237500000647,
          "durationTicks": 36,
          "midi": 68,
          "name": "G#4",
          "ticks": 18384,
          "time": 79.2413595,
          "velocity": 0.7874015748031497
        },
        {
          "duration": 0.15517237500000647,
          "durationTicks": 36,
          "midi": 64,
          "name": "E4",
          "ticks": 18384,
          "time": 79.2413595,
          "velocity": 0.7874015748031497
        },
        {
          "duration": 0.15517237500000647,
          "durationTicks": 36,
          "midi": 76,
          "name": "E5",
          "ticks": 18384,
          "time": 79.2413595,
          "velocity": 0.7874015748031497
        },
        {
          "duration": 0.15517237500000647,
          "durationTicks": 36,
          "midi": 80,
          "name": "G#5",
          "ticks": 18384,
          "time": 79.2413595,
          "velocity": 0.7165354330708661
        },
        {
          "duration": 0.38793093750000196,
          "durationTicks": 90,
          "midi": 83,
          "name": "B5",
          "ticks": 18432,
          "time": 79.448256,
          "velocity": 0.7165354330708661
        },
        {
          "duration": 0.38793093750000196,
          "durationTicks": 90,
          "midi": 80,
          "name": "G#5",
          "ticks": 18432,
          "time": 79.448256,
          "velocity": 0.7165354330708661
        },
        {
          "duration": 0.38793093750000196,
          "durationTicks": 90,
          "midi": 68,
          "name": "G#4",
          "ticks": 18432,
          "time": 79.448256,
          "velocity": 0.7874015748031497
        },
        {
          "duration": 0.38793093750000196,
          "durationTicks": 90,
          "midi": 71,
          "name": "B4",
          "ticks": 18432,
          "time": 79.448256,
          "velocity": 0.7874015748031497
        },
        {
          "duration": 0.1810344375000028,
          "durationTicks": 42,
          "midi": 80,
          "name": "G#5",
          "ticks": 18528,
          "time": 79.862049,
          "velocity": 0.7165354330708661
        },
        {
          "duration": 0.1810344375000028,
          "durationTicks": 42,
          "midi": 76,
          "name": "E5",
          "ticks": 18528,
          "time": 79.862049,
          "velocity": 0.7874015748031497
        },
        {
          "duration": 0.1810344375000028,
          "durationTicks": 42,
          "midi": 64,
          "name": "E4",
          "ticks": 18528,
          "time": 79.862049,
          "velocity": 0.7874015748031497
        },
        {
          "duration": 0.1810344375000028,
          "durationTicks": 42,
          "midi": 68,
          "name": "G#4",
          "ticks": 18528,
          "time": 79.862049,
          "velocity": 0.7874015748031497
        },
        {
          "duration": 0.31034475000001294,
          "durationTicks": 72,
          "midi": 80,
          "name": "G#5",
          "ticks": 18576,
          "time": 80.0689455,
          "velocity": 0.7165354330708661
        },
        {
          "duration": 0.31034475000001294,
          "durationTicks": 72,
          "midi": 76,
          "name": "E5",
          "ticks": 18576,
          "time": 80.0689455,
          "velocity": 0.7874015748031497
        },
        {
          "duration": 0.31034475000001294,
          "durationTicks": 72,
          "midi": 64,
          "name": "E4",
          "ticks": 18576,
          "time": 80.0689455,
          "velocity": 0.7874015748031497
        },
        {
          "duration": 0.31034475000001294,
          "durationTicks": 72,
          "midi": 68,
          "name": "G#4",
          "ticks": 18576,
          "time": 80.0689455,
          "velocity": 0.7874015748031497
        },
        {
          "duration": 0.3103447499999987,
          "durationTicks": 72,
          "midi": 80,
          "name": "G#5",
          "ticks": 18672,
          "time": 80.48273850000001,
          "velocity": 0.7165354330708661
        },
        {
          "duration": 0.3103447499999987,
          "durationTicks": 72,
          "midi": 76,
          "name": "E5",
          "ticks": 18672,
          "time": 80.48273850000001,
          "velocity": 0.7874015748031497
        },
        {
          "duration": 0.3103447499999987,
          "durationTicks": 72,
          "midi": 64,
          "name": "E4",
          "ticks": 18672,
          "time": 80.48273850000001,
          "velocity": 0.7874015748031497
        },
        {
          "duration": 0.3103447499999987,
          "durationTicks": 72,
          "midi": 68,
          "name": "G#4",
          "ticks": 18672,
          "time": 80.48273850000001,
          "velocity": 0.7874015748031497
        },
        {
          "duration": 0.3103447499999987,
          "durationTicks": 72,
          "midi": 83,
          "name": "B5",
          "ticks": 18768,
          "time": 80.89653150000001,
          "velocity": 0.7165354330708661
        },
        {
          "duration": 0.3103447499999987,
          "durationTicks": 72,
          "midi": 80,
          "name": "G#5",
          "ticks": 18768,
          "time": 80.89653150000001,
          "velocity": 0.7165354330708661
        },
        {
          "duration": 0.3103447499999987,
          "durationTicks": 72,
          "midi": 68,
          "name": "G#4",
          "ticks": 18768,
          "time": 80.89653150000001,
          "velocity": 0.7874015748031497
        },
        {
          "duration": 0.3103447499999987,
          "durationTicks": 72,
          "midi": 71,
          "name": "B4",
          "ticks": 18768,
          "time": 80.89653150000001,
          "velocity": 0.7874015748031497
        },
        {
          "duration": 0.3103447499999987,
          "durationTicks": 72,
          "midi": 71,
          "name": "B4",
          "ticks": 18864,
          "time": 81.31032450000001,
          "velocity": 0.7874015748031497
        },
        {
          "duration": 0.3103447499999987,
          "durationTicks": 72,
          "midi": 68,
          "name": "G#4",
          "ticks": 18864,
          "time": 81.31032450000001,
          "velocity": 0.7874015748031497
        },
        {
          "duration": 0.3103447499999987,
          "durationTicks": 72,
          "midi": 80,
          "name": "G#5",
          "ticks": 18864,
          "time": 81.31032450000001,
          "velocity": 0.7165354330708661
        },
        {
          "duration": 0.3103447499999987,
          "durationTicks": 72,
          "midi": 83,
          "name": "B5",
          "ticks": 18864,
          "time": 81.31032450000001,
          "velocity": 0.7165354330708661
        },
        {
          "duration": 2.689654500000003,
          "durationTicks": 624,
          "midi": 80,
          "name": "G#5",
          "ticks": 18960,
          "time": 81.7241175,
          "velocity": 0.7874015748031497
        },
        {
          "duration": 2.689654500000003,
          "durationTicks": 624,
          "midi": 85,
          "name": "C#6",
          "ticks": 18960,
          "time": 81.7241175,
          "velocity": 0.7874015748031497
        },
        {
          "duration": 2.689654500000003,
          "durationTicks": 624,
          "midi": 68,
          "name": "G#4",
          "ticks": 18960,
          "time": 81.7241175,
          "velocity": 0.7874015748031497
        },
        {
          "duration": 2.689654500000003,
          "durationTicks": 624,
          "midi": 73,
          "name": "C#5",
          "ticks": 18960,
          "time": 81.7241175,
          "velocity": 0.7874015748031497
        },
        {
          "duration": 0.4137929999999983,
          "durationTicks": 96,
          "midi": 61,
          "name": "C#4",
          "ticks": 25344,
          "time": 109.241352,
          "velocity": 0.8110236220472441
        },
        {
          "duration": 0.4137929999999983,
          "durationTicks": 96,
          "midi": 64,
          "name": "E4",
          "ticks": 25344,
          "time": 109.241352,
          "velocity": 0.8110236220472441
        },
        {
          "duration": 0.20689649999999915,
          "durationTicks": 48,
          "midi": 64,
          "name": "E4",
          "ticks": 25440,
          "time": 109.655145,
          "velocity": 0.8110236220472441
        },
        {
          "duration": 0.20689649999999915,
          "durationTicks": 48,
          "midi": 68,
          "name": "G#4",
          "ticks": 25440,
          "time": 109.655145,
          "velocity": 0.8110236220472441
        },
        {
          "duration": 0.4137929999999983,
          "durationTicks": 96,
          "midi": 61,
          "name": "C#4",
          "ticks": 25488,
          "time": 109.8620415,
          "velocity": 0.8110236220472441
        },
        {
          "duration": 0.4137929999999983,
          "durationTicks": 96,
          "midi": 63,
          "name": "D#4",
          "ticks": 25488,
          "time": 109.8620415,
          "velocity": 0.8110236220472441
        },
        {
          "duration": 0.4137929999999983,
          "durationTicks": 96,
          "midi": 61,
          "name": "C#4",
          "ticks": 25584,
          "time": 110.2758345,
          "velocity": 0.8110236220472441
        },
        {
          "duration": 0.4137929999999983,
          "durationTicks": 96,
          "midi": 63,
          "name": "D#4",
          "ticks": 25584,
          "time": 110.2758345,
          "velocity": 0.8110236220472441
        },
        {
          "duration": 0.20689649999999915,
          "durationTicks": 48,
          "midi": 61,
          "name": "C#4",
          "ticks": 25680,
          "time": 110.6896275,
          "velocity": 0.8110236220472441
        },
        {
          "duration": 0.20689649999999915,
          "durationTicks": 48,
          "midi": 64,
          "name": "E4",
          "ticks": 25680,
          "time": 110.6896275,
          "velocity": 0.8110236220472441
        },
        {
          "duration": 0.20689650000001336,
          "durationTicks": 48,
          "midi": 61,
          "name": "C#4",
          "ticks": 25728,
          "time": 110.896524,
          "velocity": 0.8110236220472441
        },
        {
          "duration": 0.20689650000001336,
          "durationTicks": 48,
          "midi": 63,
          "name": "D#4",
          "ticks": 25728,
          "time": 110.896524,
          "velocity": 0.8110236220472441
        },
        {
          "duration": 0.4137929999999983,
          "durationTicks": 96,
          "midi": 56,
          "name": "G#3",
          "ticks": 25776,
          "time": 111.10342050000001,
          "velocity": 0.8110236220472441
        },
        {
          "duration": 0.4137929999999983,
          "durationTicks": 96,
          "midi": 61,
          "name": "C#4",
          "ticks": 25776,
          "time": 111.10342050000001,
          "velocity": 0.8110236220472441
        },
        {
          "duration": 0.4137929999999983,
          "durationTicks": 96,
          "midi": 56,
          "name": "G#3",
          "ticks": 25920,
          "time": 111.72411000000001,
          "velocity": 0.8110236220472441
        },
        {
          "duration": 0.4137929999999983,
          "durationTicks": 96,
          "midi": 61,
          "name": "C#4",
          "ticks": 25920,
          "time": 111.72411000000001,
          "velocity": 0.8110236220472441
        },
        {
          "duration": 0.4137929999999983,
          "durationTicks": 96,
          "midi": 61,
          "name": "C#4",
          "ticks": 26016,
          "time": 112.13790300000001,
          "velocity": 0.8110236220472441
        },
        {
          "duration": 0.4137929999999983,
          "durationTicks": 96,
          "midi": 63,
          "name": "D#4",
          "ticks": 26016,
          "time": 112.13790300000001,
          "velocity": 0.8110236220472441
        },
        {
          "duration": 0.20689649999999915,
          "durationTicks": 48,
          "midi": 61,
          "name": "C#4",
          "ticks": 26112,
          "time": 112.551696,
          "velocity": 0.8110236220472441
        },
        {
          "duration": 0.20689649999999915,
          "durationTicks": 48,
          "midi": 64,
          "name": "E4",
          "ticks": 26112,
          "time": 112.551696,
          "velocity": 0.8110236220472441
        },
        {
          "duration": 0.33620681249999507,
          "durationTicks": 78,
          "midi": 63,
          "name": "D#4",
          "ticks": 26160,
          "time": 112.7585925,
          "velocity": 0.8110236220472441
        },
        {
          "duration": 0.33620681249999507,
          "durationTicks": 78,
          "midi": 61,
          "name": "C#4",
          "ticks": 26160,
          "time": 112.7585925,
          "velocity": 0.8110236220472441
        },
        {
          "duration": 0.33620681249999507,
          "durationTicks": 78,
          "midi": 63,
          "name": "D#4",
          "ticks": 26256,
          "time": 113.1723855,
          "velocity": 0.8031496062992126
        },
        {
          "duration": 0.33620681249999507,
          "durationTicks": 78,
          "midi": 61,
          "name": "C#4",
          "ticks": 26256,
          "time": 113.1723855,
          "velocity": 0.8031496062992126
        },
        {
          "duration": 0.3362068125000093,
          "durationTicks": 78,
          "midi": 63,
          "name": "D#4",
          "ticks": 26352,
          "time": 113.5861785,
          "velocity": 0.8031496062992126
        },
        {
          "duration": 0.3362068125000093,
          "durationTicks": 78,
          "midi": 61,
          "name": "C#4",
          "ticks": 26352,
          "time": 113.5861785,
          "velocity": 0.8031496062992126
        },
        {
          "duration": 1.03448250000001,
          "durationTicks": 240,
          "midi": 61,
          "name": "C#4",
          "ticks": 26448,
          "time": 113.9999715,
          "velocity": 0.8031496062992126
        },
        {
          "duration": 1.03448250000001,
          "durationTicks": 240,
          "midi": 64,
          "name": "E4",
          "ticks": 26448,
          "time": 113.9999715,
          "velocity": 0.8031496062992126
        },
        {
          "duration": 0.1810344375000028,
          "durationTicks": 42,
          "midi": 56,
          "name": "G#3",
          "ticks": 26832,
          "time": 115.65514350000001,
          "velocity": 0.8031496062992126
        },
        {
          "duration": 0.1810344375000028,
          "durationTicks": 42,
          "midi": 61,
          "name": "C#4",
          "ticks": 26832,
          "time": 115.65514350000001,
          "velocity": 0.8031496062992126
        },
        {
          "duration": 0.38793093750000196,
          "durationTicks": 90,
          "midi": 61,
          "name": "C#4",
          "ticks": 26880,
          "time": 115.86204000000001,
          "velocity": 0.8031496062992126
        },
        {
          "duration": 0.38793093750000196,
          "durationTicks": 90,
          "midi": 64,
          "name": "E4",
          "ticks": 26880,
          "time": 115.86204000000001,
          "velocity": 0.8031496062992126
        },
        {
          "duration": 0.20689649999999915,
          "durationTicks": 48,
          "midi": 64,
          "name": "E4",
          "ticks": 26976,
          "time": 116.275833,
          "velocity": 0.8031496062992126
        },
        {
          "duration": 0.20689649999999915,
          "durationTicks": 48,
          "midi": 68,
          "name": "G#4",
          "ticks": 26976,
          "time": 116.275833,
          "velocity": 0.8031496062992126
        },
        {
          "duration": 0.3620688750000056,
          "durationTicks": 84,
          "midi": 61,
          "name": "C#4",
          "ticks": 27024,
          "time": 116.4827295,
          "velocity": 0.8031496062992126
        },
        {
          "duration": 0.3620688750000056,
          "durationTicks": 84,
          "midi": 63,
          "name": "D#4",
          "ticks": 27024,
          "time": 116.4827295,
          "velocity": 0.8031496062992126
        },
        {
          "duration": 0.38793093750000196,
          "durationTicks": 90,
          "midi": 61,
          "name": "C#4",
          "ticks": 27120,
          "time": 116.8965225,
          "velocity": 0.8031496062992126
        },
        {
          "duration": 0.38793093750000196,
          "durationTicks": 90,
          "midi": 63,
          "name": "D#4",
          "ticks": 27120,
          "time": 116.8965225,
          "velocity": 0.8031496062992126
        },
        {
          "duration": 0.20689649999999915,
          "durationTicks": 48,
          "midi": 61,
          "name": "C#4",
          "ticks": 27216,
          "time": 117.3103155,
          "velocity": 0.7952755905511811
        },
        {
          "duration": 0.20689649999999915,
          "durationTicks": 48,
          "midi": 64,
          "name": "E4",
          "ticks": 27216,
          "time": 117.3103155,
          "velocity": 0.7952755905511811
        },
        {
          "duration": 0.20689649999999915,
          "durationTicks": 48,
          "midi": 61,
          "name": "C#4",
          "ticks": 27264,
          "time": 117.517212,
          "velocity": 0.7952755905511811
        },
        {
          "duration": 0.20689649999999915,
          "durationTicks": 48,
          "midi": 63,
          "name": "D#4",
          "ticks": 27264,
          "time": 117.517212,
          "velocity": 0.7952755905511811
        },
        {
          "duration": 0.5431033125000084,
          "durationTicks": 126,
          "midi": 56,
          "name": "G#3",
          "ticks": 27312,
          "time": 117.7241085,
          "velocity": 0.7952755905511811
        },
        {
          "duration": 0.5431033125000084,
          "durationTicks": 126,
          "midi": 61,
          "name": "C#4",
          "ticks": 27312,
          "time": 117.7241085,
          "velocity": 0.7952755905511811
        },
        {
          "duration": 0.3103447499999987,
          "durationTicks": 72,
          "midi": 56,
          "name": "G#3",
          "ticks": 27456,
          "time": 118.34479800000001,
          "velocity": 0.7952755905511811
        },
        {
          "duration": 0.3103447499999987,
          "durationTicks": 72,
          "midi": 61,
          "name": "C#4",
          "ticks": 27456,
          "time": 118.34479800000001,
          "velocity": 0.7952755905511811
        },
        {
          "duration": 0.3620688749999914,
          "durationTicks": 84,
          "midi": 61,
          "name": "C#4",
          "ticks": 27552,
          "time": 118.75859100000001,
          "velocity": 0.7952755905511811
        },
        {
          "duration": 0.3620688749999914,
          "durationTicks": 84,
          "midi": 63,
          "name": "D#4",
          "ticks": 27552,
          "time": 118.75859100000001,
          "velocity": 0.7952755905511811
        },
        {
          "duration": 0.3620688749999914,
          "durationTicks": 84,
          "midi": 61,
          "name": "C#4",
          "ticks": 27648,
          "time": 119.17238400000001,
          "velocity": 0.7952755905511811
        },
        {
          "duration": 0.3620688749999914,
          "durationTicks": 84,
          "midi": 64,
          "name": "E4",
          "ticks": 27648,
          "time": 119.17238400000001,
          "velocity": 0.7952755905511811
        },
        {
          "duration": 0.20689649999999915,
          "durationTicks": 48,
          "midi": 64,
          "name": "E4",
          "ticks": 27744,
          "time": 119.586177,
          "velocity": 0.7952755905511811
        },
        {
          "duration": 0.20689649999999915,
          "durationTicks": 48,
          "midi": 68,
          "name": "G#4",
          "ticks": 27744,
          "time": 119.586177,
          "velocity": 0.7952755905511811
        },
        {
          "duration": 0.3620688750000056,
          "durationTicks": 84,
          "midi": 61,
          "name": "C#4",
          "ticks": 27792,
          "time": 119.7930735,
          "velocity": 0.7952755905511811
        },
        {
          "duration": 0.3620688750000056,
          "durationTicks": 84,
          "midi": 63,
          "name": "D#4",
          "ticks": 27792,
          "time": 119.7930735,
          "velocity": 0.7952755905511811
        },
        {
          "duration": 0.3620688750000056,
          "durationTicks": 84,
          "midi": 61,
          "name": "C#4",
          "ticks": 27888,
          "time": 120.2068665,
          "velocity": 0.7952755905511811
        },
        {
          "duration": 0.3620688750000056,
          "durationTicks": 84,
          "midi": 63,
          "name": "D#4",
          "ticks": 27888,
          "time": 120.2068665,
          "velocity": 0.7952755905511811
        },
        {
          "duration": 0.9827583750000031,
          "durationTicks": 228,
          "midi": 61,
          "name": "C#4",
          "ticks": 27984,
          "time": 120.6206595,
          "velocity": 0.7952755905511811
        },
        {
          "duration": 0.9827583750000031,
          "durationTicks": 228,
          "midi": 64,
          "name": "E4",
          "ticks": 27984,
          "time": 120.6206595,
          "velocity": 0.7952755905511811
        },
        {
          "duration": 0.38793093749998775,
          "durationTicks": 90,
          "midi": 68,
          "name": "G#4",
          "ticks": 28224,
          "time": 121.65514200000001,
          "velocity": 0.7952755905511811
        },
        {
          "duration": 0.3620688749999914,
          "durationTicks": 84,
          "midi": 61,
          "name": "C#4",
          "ticks": 28224,
          "time": 121.65514200000001,
          "velocity": 0.7952755905511811
        },
        {
          "duration": 0.3620688749999914,
          "durationTicks": 84,
          "midi": 73,
          "name": "C#5",
          "ticks": 28224,
          "time": 121.65514200000001,
          "velocity": 0.7952755905511811
        },
        {
          "duration": 0.38793093750000196,
          "durationTicks": 90,
          "midi": 71,
          "name": "B4",
          "ticks": 28320,
          "time": 122.06893500000001,
          "velocity": 0.7952755905511811
        },
        {
          "duration": 0.38793093750000196,
          "durationTicks": 90,
          "midi": 63,
          "name": "D#4",
          "ticks": 28320,
          "time": 122.06893500000001,
          "velocity": 0.7952755905511811
        },
        {
          "duration": 0.38793093750000196,
          "durationTicks": 90,
          "midi": 75,
          "name": "D#5",
          "ticks": 28320,
          "time": 122.06893500000001,
          "velocity": 0.7952755905511811
        },
        {
          "duration": 0.20689649999999915,
          "durationTicks": 48,
          "midi": 73,
          "name": "C#5",
          "ticks": 28416,
          "time": 122.48272800000001,
          "velocity": 0.7952755905511811
        },
        {
          "duration": 0.20689649999999915,
          "durationTicks": 48,
          "midi": 76,
          "name": "E5",
          "ticks": 28416,
          "time": 122.48272800000001,
          "velocity": 0.7952755905511811
        },
        {
          "duration": 0.20689649999999915,
          "durationTicks": 48,
          "midi": 64,
          "name": "E4",
          "ticks": 28416,
          "time": 122.48272800000001,
          "velocity": 0.7952755905511811
        },
        {
          "duration": 0.38793093750000196,
          "durationTicks": 90,
          "midi": 71,
          "name": "B4",
          "ticks": 28464,
          "time": 122.68962450000001,
          "velocity": 0.7952755905511811
        },
        {
          "duration": 0.38793093750000196,
          "durationTicks": 90,
          "midi": 75,
          "name": "D#5",
          "ticks": 28464,
          "time": 122.68962450000001,
          "velocity": 0.7952755905511811
        },
        {
          "duration": 0.38793093750000196,
          "durationTicks": 90,
          "midi": 63,
          "name": "D#4",
          "ticks": 28464,
          "time": 122.68962450000001,
          "velocity": 0.7952755905511811
        },
        {
          "duration": 0.38793093750000196,
          "durationTicks": 90,
          "midi": 68,
          "name": "G#4",
          "ticks": 28560,
          "time": 123.1034175,
          "velocity": 0.7952755905511811
        },
        {
          "duration": 0.38793093750000196,
          "durationTicks": 90,
          "midi": 73,
          "name": "C#5",
          "ticks": 28560,
          "time": 123.1034175,
          "velocity": 0.7952755905511811
        },
        {
          "duration": 0.38793093750000196,
          "durationTicks": 90,
          "midi": 61,
          "name": "C#4",
          "ticks": 28560,
          "time": 123.1034175,
          "velocity": 0.7952755905511811
        },
        {
          "duration": 0.3620688750000056,
          "durationTicks": 84,
          "midi": 71,
          "name": "B4",
          "ticks": 28656,
          "time": 123.5172105,
          "velocity": 0.7952755905511811
        },
        {
          "duration": 0.3620688750000056,
          "durationTicks": 84,
          "midi": 75,
          "name": "D#5",
          "ticks": 28656,
          "time": 123.5172105,
          "velocity": 0.7952755905511811
        },
        {
          "duration": 0.3620688750000056,
          "durationTicks": 84,
          "midi": 63,
          "name": "D#4",
          "ticks": 28656,
          "time": 123.5172105,
          "velocity": 0.7952755905511811
        },
        {
          "duration": 0.38793093750000196,
          "durationTicks": 90,
          "midi": 73,
          "name": "C#5",
          "ticks": 28752,
          "time": 123.9310035,
          "velocity": 0.7952755905511811
        },
        {
          "duration": 0.38793093750000196,
          "durationTicks": 90,
          "midi": 76,
          "name": "E5",
          "ticks": 28752,
          "time": 123.9310035,
          "velocity": 0.7952755905511811
        },
        {
          "duration": 0.38793093750000196,
          "durationTicks": 90,
          "midi": 64,
          "name": "E4",
          "ticks": 28752,
          "time": 123.9310035,
          "velocity": 0.7952755905511811
        },
        {
          "duration": 0.38793093750000196,
          "durationTicks": 90,
          "midi": 71,
          "name": "B4",
          "ticks": 28848,
          "time": 124.3447965,
          "velocity": 0.7952755905511811
        },
        {
          "duration": 0.38793093750000196,
          "durationTicks": 90,
          "midi": 75,
          "name": "D#5",
          "ticks": 28848,
          "time": 124.3447965,
          "velocity": 0.7952755905511811
        },
        {
          "duration": 0.38793093750000196,
          "durationTicks": 90,
          "midi": 63,
          "name": "D#4",
          "ticks": 28848,
          "time": 124.3447965,
          "velocity": 0.7952755905511811
        },
        {
          "duration": 0.5689653749999906,
          "durationTicks": 132,
          "midi": 68,
          "name": "G#4",
          "ticks": 28944,
          "time": 124.75858950000001,
          "velocity": 0.7952755905511811
        },
        {
          "duration": 0.5689653749999906,
          "durationTicks": 132,
          "midi": 73,
          "name": "C#5",
          "ticks": 28944,
          "time": 124.75858950000001,
          "velocity": 0.7952755905511811
        },
        {
          "duration": 0.5689653749999906,
          "durationTicks": 132,
          "midi": 61,
          "name": "C#4",
          "ticks": 28944,
          "time": 124.75858950000001,
          "velocity": 0.7952755905511811
        },
        {
          "duration": 0.20689649999999915,
          "durationTicks": 48,
          "midi": 68,
          "name": "G#4",
          "ticks": 29088,
          "time": 125.37927900000001,
          "velocity": 0.7952755905511811
        },
        {
          "duration": 0.20689649999999915,
          "durationTicks": 48,
          "midi": 73,
          "name": "C#5",
          "ticks": 29088,
          "time": 125.37927900000001,
          "velocity": 0.7952755905511811
        },
        {
          "duration": 0.20689649999999915,
          "durationTicks": 48,
          "midi": 61,
          "name": "C#4",
          "ticks": 29088,
          "time": 125.37927900000001,
          "velocity": 0.7952755905511811
        },
        {
          "duration": 0.20689649999999915,
          "durationTicks": 48,
          "midi": 66,
          "name": "F#4",
          "ticks": 29136,
          "time": 125.58617550000001,
          "velocity": 0.7952755905511811
        },
        {
          "duration": 0.20689649999999915,
          "durationTicks": 48,
          "midi": 71,
          "name": "B4",
          "ticks": 29136,
          "time": 125.58617550000001,
          "velocity": 0.7952755905511811
        },
        {
          "duration": 0.20689649999999915,
          "durationTicks": 48,
          "midi": 59,
          "name": "B3",
          "ticks": 29136,
          "time": 125.58617550000001,
          "velocity": 0.7952755905511811
        },
        {
          "duration": 0.3103447499999987,
          "durationTicks": 72,
          "midi": 80,
          "name": "G#5",
          "ticks": 29184,
          "time": 125.79307200000001,
          "velocity": 0.7952755905511811
        },
        {
          "duration": 0.3103447499999987,
          "durationTicks": 72,
          "midi": 68,
          "name": "G#4",
          "ticks": 29184,
          "time": 125.79307200000001,
          "velocity": 0.7952755905511811
        },
        {
          "duration": 0.3103447499999987,
          "durationTicks": 72,
          "midi": 78,
          "name": "F#5",
          "ticks": 29256,
          "time": 126.10341675000001,
          "velocity": 0.7952755905511811
        },
        {
          "duration": 0.3103447499999987,
          "durationTicks": 72,
          "midi": 66,
          "name": "F#4",
          "ticks": 29256,
          "time": 126.10341675000001,
          "velocity": 0.7952755905511811
        },
        {
          "duration": 0.4137929999999983,
          "durationTicks": 96,
          "midi": 80,
          "name": "G#5",
          "ticks": 29328,
          "time": 126.4137615,
          "velocity": 0.7952755905511811
        },
        {
          "duration": 0.4137929999999983,
          "durationTicks": 96,
          "midi": 68,
          "name": "G#4",
          "ticks": 29328,
          "time": 126.4137615,
          "velocity": 0.7952755905511811
        },
        {
          "duration": 0.4137929999999983,
          "durationTicks": 96,
          "midi": 78,
          "name": "F#5",
          "ticks": 29424,
          "time": 126.8275545,
          "velocity": 0.7952755905511811
        },
        {
          "duration": 0.4137929999999983,
          "durationTicks": 96,
          "midi": 66,
          "name": "F#4",
          "ticks": 29424,
          "time": 126.8275545,
          "velocity": 0.7952755905511811
        },
        {
          "duration": 0.4137929999999983,
          "durationTicks": 96,
          "midi": 80,
          "name": "G#5",
          "ticks": 29520,
          "time": 127.2413475,
          "velocity": 0.7952755905511811
        },
        {
          "duration": 0.4137929999999983,
          "durationTicks": 96,
          "midi": 68,
          "name": "G#4",
          "ticks": 29520,
          "time": 127.2413475,
          "velocity": 0.7952755905511811
        },
        {
          "duration": 0.4137930000000125,
          "durationTicks": 96,
          "midi": 78,
          "name": "F#5",
          "ticks": 29616,
          "time": 127.6551405,
          "velocity": 0.7952755905511811
        },
        {
          "duration": 0.4137930000000125,
          "durationTicks": 96,
          "midi": 66,
          "name": "F#4",
          "ticks": 29616,
          "time": 127.6551405,
          "velocity": 0.7952755905511811
        },
        {
          "duration": 4.137929999999983,
          "durationTicks": 960,
          "midi": 80,
          "name": "G#5",
          "ticks": 29712,
          "time": 128.0689335,
          "velocity": 0.7952755905511811
        },
        {
          "duration": 4.137929999999983,
          "durationTicks": 960,
          "midi": 68,
          "name": "G#4",
          "ticks": 29712,
          "time": 128.0689335,
          "velocity": 0.7952755905511811
        }
      ],
      "endOfTrackTicks": 32641
    },
    {
      "channel": 4,
      "controlChanges": {
        "6": [
          {
            "number": 6,
            "ticks": 0,
            "time": 0,
            "value": 0.09448818897637795
          },
          {
            "number": 6,
            "ticks": 0,
            "time": 0,
            "value": 0.09448818897637795
          },
          {
            "number": 6,
            "ticks": 0,
            "time": 0,
            "value": 0.09448818897637795
          },
          {
            "number": 6,
            "ticks": 32640,
            "time": 140.68962000000002,
            "value": 0.09448818897637795
          },
          {
            "number": 6,
            "ticks": 32641,
            "time": 140.69393034375003,
            "value": 0.09448818897637795
          }
        ],
        "7": [
          {
            "number": 7,
            "ticks": 0,
            "time": 0,
            "value": 0.7874015748031497
          },
          {
            "number": 7,
            "ticks": 0,
            "time": 0,
            "value": 0.7874015748031497
          },
          {
            "number": 7,
            "ticks": 0,
            "time": 0,
            "value": 0.7874015748031497
          },
          {
            "number": 7,
            "ticks": 0,
            "time": 0,
            "value": 0.7874015748031497
          },
          {
            "number": 7,
            "ticks": 32640,
            "time": 140.68962000000002,
            "value": 0.7874015748031497
          },
          {
            "number": 7,
            "ticks": 32641,
            "time": 140.69393034375003,
            "value": 0.7874015748031497
          }
        ],
        "10": [
          {
            "number": 10,
            "ticks": 0,
            "time": 0,
            "value": 0.5039370078740157
          },
          {
            "number": 10,
            "ticks": 0,
            "time": 0,
            "value": 0.5039370078740157
          },
          {
            "number": 10,
            "ticks": 0,
            "time": 0,
            "value": 0.5039370078740157
          },
          {
            "number": 10,
            "ticks": 0,
            "time": 0,
            "value": 0.5039370078740157
          },
          {
            "number": 10,
            "ticks": 32640,
            "time": 140.68962000000002,
            "value": 0.5039370078740157
          },
          {
            "number": 10,
            "ticks": 32641,
            "time": 140.69393034375003,
            "value": 0.5039370078740157
          }
        ],
        "100": [
          {
            "number": 100,
            "ticks": 0,
            "time": 0,
            "value": 0
          },
          {
            "number": 100,
            "ticks": 0,
            "time": 0,
            "value": 0
          },
          {
            "number": 100,
            "ticks": 0,
            "time": 0,
            "value": 0
          },
          {
            "number": 100,
            "ticks": 32640,
            "time": 140.68962000000002,
            "value": 0
          },
          {
            "number": 100,
            "ticks": 32641,
            "time": 140.69393034375003,
            "value": 0
          }
        ],
        "101": [
          {
            "number": 101,
            "ticks": 0,
            "time": 0,
            "value": 0
          },
          {
            "number": 101,
            "ticks": 0,
            "time": 0,
            "value": 0
          },
          {
            "number": 101,
            "ticks": 0,
            "time": 0,
            "value": 0
          },
          {
            "number": 101,
            "ticks": 32640,
            "time": 140.68962000000002,
            "value": 0
          },
          {
            "number": 101,
            "ticks": 32641,
            "time": 140.69393034375003,
            "value": 0
          }
        ]
      },
      "pitchBends": [
        {
          "ticks": 0,
          "time": 0,
          "value": 0
        },
        {
          "ticks": 0,
          "time": 0,
          "value": 0
        },
        {
          "ticks": 0,
          "time": 0,
          "value": 0
        },
        {
          "ticks": 0,
          "time": 0,
          "value": 0
        },
        {
          "ticks": 32640,
          "time": 140.68962000000002,
          "value": 0
        },
        {
          "ticks": 32641,
          "time": 140.69393034375003,
          "value": 0
        }
      ],
      "instrument": {
        "family": "piano",
        "number": 0,
        "name": "acoustic grand piano"
      },
      "name": "FL Keys #5",
      "notes": [
        {
          "duration": 0.6206894999999975,
          "durationTicks": 144,
          "midi": 61,
          "name": "C#4",
          "ticks": 22272,
          "time": 95.999976,
          "velocity": 0.7401574803149606
        },
        {
          "duration": 0.6206894999999975,
          "durationTicks": 144,
          "midi": 56,
          "name": "G#3",
          "ticks": 22272,
          "time": 95.999976,
          "velocity": 0.7401574803149606
        },
        {
          "duration": 0.6206894999999975,
          "durationTicks": 144,
          "midi": 49,
          "name": "C#3",
          "ticks": 22272,
          "time": 95.999976,
          "velocity": 0.7401574803149606
        },
        {
          "duration": 0.5172412499999979,
          "durationTicks": 120,
          "midi": 85,
          "name": "C#6",
          "ticks": 22272,
          "time": 95.999976,
          "velocity": 0.7874015748031497
        },
        {
          "duration": 0.5172412499999979,
          "durationTicks": 120,
          "midi": 73,
          "name": "C#5",
          "ticks": 22272,
          "time": 95.999976,
          "velocity": 0.7874015748031497
        },
        {
          "duration": 0.10344824999999958,
          "durationTicks": 24,
          "midi": 71,
          "name": "B4",
          "ticks": 22392,
          "time": 96.51721725,
          "velocity": 0.7874015748031497
        },
        {
          "duration": 0.10344824999999958,
          "durationTicks": 24,
          "midi": 83,
          "name": "B5",
          "ticks": 22392,
          "time": 96.51721725,
          "velocity": 0.7874015748031497
        },
        {
          "duration": 0.4137929999999983,
          "durationTicks": 96,
          "midi": 85,
          "name": "C#6",
          "ticks": 22416,
          "time": 96.6206655,
          "velocity": 0.7874015748031497
        },
        {
          "duration": 0.4137929999999983,
          "durationTicks": 96,
          "midi": 73,
          "name": "C#5",
          "ticks": 22416,
          "time": 96.6206655,
          "velocity": 0.7874015748031497
        },
        {
          "duration": 0.4137930000000125,
          "durationTicks": 96,
          "midi": 85,
          "name": "C#6",
          "ticks": 22512,
          "time": 97.0344585,
          "velocity": 0.7874015748031497
        },
        {
          "duration": 0.4137930000000125,
          "durationTicks": 96,
          "midi": 73,
          "name": "C#5",
          "ticks": 22512,
          "time": 97.0344585,
          "velocity": 0.7874015748031497
        },
        {
          "duration": 0.6206894999999975,
          "durationTicks": 144,
          "midi": 56,
          "name": "G#3",
          "ticks": 22656,
          "time": 97.65514800000001,
          "velocity": 0.7480314960629921
        },
        {
          "duration": 0.6206894999999975,
          "durationTicks": 144,
          "midi": 52,
          "name": "E3",
          "ticks": 22656,
          "time": 97.65514800000001,
          "velocity": 0.7480314960629921
        },
        {
          "duration": 0.6206894999999975,
          "durationTicks": 144,
          "midi": 59,
          "name": "B3",
          "ticks": 22656,
          "time": 97.65514800000001,
          "velocity": 0.7480314960629921
        },
        {
          "duration": 0.4137929999999983,
          "durationTicks": 96,
          "midi": 71,
          "name": "B4",
          "ticks": 22656,
          "time": 97.65514800000001,
          "velocity": 0.7874015748031497
        },
        {
          "duration": 0.4137929999999983,
          "durationTicks": 96,
          "midi": 83,
          "name": "B5",
          "ticks": 22656,
          "time": 97.65514800000001,
          "velocity": 0.7874015748031497
        },
        {
          "duration": 0.20689649999999915,
          "durationTicks": 48,
          "midi": 76,
          "name": "E5",
          "ticks": 22752,
          "time": 98.06894100000001,
          "velocity": 0.7874015748031497
        },
        {
          "duration": 0.20689649999999915,
          "durationTicks": 48,
          "midi": 64,
          "name": "E4",
          "ticks": 22752,
          "time": 98.06894100000001,
          "velocity": 0.7874015748031497
        },
        {
          "duration": 0.4137929999999983,
          "durationTicks": 96,
          "midi": 78,
          "name": "F#5",
          "ticks": 22800,
          "time": 98.27583750000001,
          "velocity": 0.7874015748031497
        },
        {
          "duration": 0.4137929999999983,
          "durationTicks": 96,
          "midi": 66,
          "name": "F#4",
          "ticks": 22800,
          "time": 98.27583750000001,
          "velocity": 0.7874015748031497
        },
        {
          "duration": 0.4137929999999983,
          "durationTicks": 96,
          "midi": 78,
          "name": "F#5",
          "ticks": 22896,
          "time": 98.6896305,
          "velocity": 0.7874015748031497
        },
        {
          "duration": 0.4137929999999983,
          "durationTicks": 96,
          "midi": 66,
          "name": "F#4",
          "ticks": 22896,
          "time": 98.6896305,
          "velocity": 0.7874015748031497
        },
        {
          "duration": 0.10344824999999958,
          "durationTicks": 24,
          "midi": 61,
          "name": "C#4",
          "ticks": 23040,
          "time": 99.31032,
          "velocity": 0.7874015748031497
        },
        {
          "duration": 0.10344824999999958,
          "durationTicks": 24,
          "midi": 73,
          "name": "C#5",
          "ticks": 23040,
          "time": 99.31032,
          "velocity": 0.7874015748031497
        },
        {
          "duration": 0.10344824999999958,
          "durationTicks": 24,
          "midi": 64,
          "name": "E4",
          "ticks": 23064,
          "time": 99.41376825,
          "velocity": 0.7874015748031497
        },
        {
          "duration": 0.10344824999999958,
          "durationTicks": 24,
          "midi": 76,
          "name": "E5",
          "ticks": 23064,
          "time": 99.41376825,
          "velocity": 0.7874015748031497
        },
        {
          "duration": 0.10344824999999958,
          "durationTicks": 24,
          "midi": 66,
          "name": "F#4",
          "ticks": 23088,
          "time": 99.5172165,
          "velocity": 0.7874015748031497
        },
        {
          "duration": 0.10344824999999958,
          "durationTicks": 24,
          "midi": 78,
          "name": "F#5",
          "ticks": 23088,
          "time": 99.5172165,
          "velocity": 0.7874015748031497
        },
        {
          "duration": 0.10344824999999958,
          "durationTicks": 24,
          "midi": 80,
          "name": "G#5",
          "ticks": 23112,
          "time": 99.62066475,
          "velocity": 0.7874015748031497
        },
        {
          "duration": 0.10344824999999958,
          "durationTicks": 24,
          "midi": 68,
          "name": "G#4",
          "ticks": 23112,
          "time": 99.62066475,
          "velocity": 0.7874015748031497
        },
        {
          "duration": 0.10344824999999958,
          "durationTicks": 24,
          "midi": 66,
          "name": "F#4",
          "ticks": 23136,
          "time": 99.724113,
          "velocity": 0.7874015748031497
        },
        {
          "duration": 0.10344824999999958,
          "durationTicks": 24,
          "midi": 78,
          "name": "F#5",
          "ticks": 23136,
          "time": 99.724113,
          "velocity": 0.7874015748031497
        },
        {
          "duration": 0.10344824999999958,
          "durationTicks": 24,
          "midi": 64,
          "name": "E4",
          "ticks": 23160,
          "time": 99.82756125,
          "velocity": 0.7874015748031497
        },
        {
          "duration": 0.10344824999999958,
          "durationTicks": 24,
          "midi": 76,
          "name": "E5",
          "ticks": 23160,
          "time": 99.82756125,
          "velocity": 0.7874015748031497
        },
        {
          "duration": 0.10344824999999958,
          "durationTicks": 24,
          "midi": 73,
          "name": "C#5",
          "ticks": 23184,
          "time": 99.9310095,
          "velocity": 0.7874015748031497
        },
        {
          "duration": 0.10344824999999958,
          "durationTicks": 24,
          "midi": 61,
          "name": "C#4",
          "ticks": 23184,
          "time": 99.9310095,
          "velocity": 0.7874015748031497
        },
        {
          "duration": 0.10344824999999958,
          "durationTicks": 24,
          "midi": 59,
          "name": "B3",
          "ticks": 23208,
          "time": 100.03445775,
          "velocity": 0.7874015748031497
        },
        {
          "duration": 0.10344824999999958,
          "durationTicks": 24,
          "midi": 71,
          "name": "B4",
          "ticks": 23208,
          "time": 100.03445775,
          "velocity": 0.7874015748031497
        },
        {
          "duration": 0.10344824999999958,
          "durationTicks": 24,
          "midi": 73,
          "name": "C#5",
          "ticks": 23232,
          "time": 100.137906,
          "velocity": 0.7874015748031497
        },
        {
          "duration": 0.10344824999999958,
          "durationTicks": 24,
          "midi": 61,
          "name": "C#4",
          "ticks": 23232,
          "time": 100.137906,
          "velocity": 0.7874015748031497
        },
        {
          "duration": 0.10344824999999958,
          "durationTicks": 24,
          "midi": 66,
          "name": "F#4",
          "ticks": 23256,
          "time": 100.24135425,
          "velocity": 0.7874015748031497
        },
        {
          "duration": 0.10344824999999958,
          "durationTicks": 24,
          "midi": 78,
          "name": "F#5",
          "ticks": 23256,
          "time": 100.24135425,
          "velocity": 0.7874015748031497
        },
        {
          "duration": 0.10344824999999958,
          "durationTicks": 24,
          "midi": 80,
          "name": "G#5",
          "ticks": 23280,
          "time": 100.3448025,
          "velocity": 0.7874015748031497
        },
        {
          "duration": 0.10344824999999958,
          "durationTicks": 24,
          "midi": 68,
          "name": "G#4",
          "ticks": 23280,
          "time": 100.3448025,
          "velocity": 0.7874015748031497
        },
        {
          "duration": 0.10344824999999958,
          "durationTicks": 24,
          "midi": 83,
          "name": "B5",
          "ticks": 23304,
          "time": 100.44825075,
          "velocity": 0.7874015748031497
        },
        {
          "duration": 0.10344824999999958,
          "durationTicks": 24,
          "midi": 71,
          "name": "B4",
          "ticks": 23304,
          "time": 100.44825075,
          "velocity": 0.7874015748031497
        },
        {
          "duration": 0.10344824999999958,
          "durationTicks": 24,
          "midi": 85,
          "name": "C#6",
          "ticks": 23328,
          "time": 100.551699,
          "velocity": 0.7874015748031497
        },
        {
          "duration": 0.10344824999999958,
          "durationTicks": 24,
          "midi": 73,
          "name": "C#5",
          "ticks": 23328,
          "time": 100.551699,
          "velocity": 0.7874015748031497
        },
        {
          "duration": 0.10344824999999958,
          "durationTicks": 24,
          "midi": 71,
          "name": "B4",
          "ticks": 23352,
          "time": 100.65514725,
          "velocity": 0.7874015748031497
        },
        {
          "duration": 0.10344824999999958,
          "durationTicks": 24,
          "midi": 83,
          "name": "B5",
          "ticks": 23352,
          "time": 100.65514725,
          "velocity": 0.7874015748031497
        },
        {
          "duration": 0.10344825000001379,
          "durationTicks": 24,
          "midi": 80,
          "name": "G#5",
          "ticks": 23376,
          "time": 100.7585955,
          "velocity": 0.7874015748031497
        },
        {
          "duration": 0.10344825000001379,
          "durationTicks": 24,
          "midi": 68,
          "name": "G#4",
          "ticks": 23376,
          "time": 100.7585955,
          "velocity": 0.7874015748031497
        },
        {
          "duration": 0.10344824999999958,
          "durationTicks": 24,
          "midi": 78,
          "name": "F#5",
          "ticks": 23400,
          "time": 100.86204375000001,
          "velocity": 0.7874015748031497
        },
        {
          "duration": 0.10344824999999958,
          "durationTicks": 24,
          "midi": 66,
          "name": "F#4",
          "ticks": 23400,
          "time": 100.86204375000001,
          "velocity": 0.7874015748031497
        },
        {
          "duration": 0.10344824999999958,
          "durationTicks": 24,
          "midi": 68,
          "name": "G#4",
          "ticks": 23424,
          "time": 100.96549200000001,
          "velocity": 0.7874015748031497
        },
        {
          "duration": 0.10344824999999958,
          "durationTicks": 24,
          "midi": 80,
          "name": "G#5",
          "ticks": 23424,
          "time": 100.96549200000001,
          "velocity": 0.7874015748031497
        },
        {
          "duration": 0.10344824999999958,
          "durationTicks": 24,
          "midi": 78,
          "name": "F#5",
          "ticks": 23448,
          "time": 101.06894025000001,
          "velocity": 0.7874015748031497
        },
        {
          "duration": 0.10344824999999958,
          "durationTicks": 24,
          "midi": 66,
          "name": "F#4",
          "ticks": 23448,
          "time": 101.06894025000001,
          "velocity": 0.7874015748031497
        },
        {
          "duration": 0.10344824999999958,
          "durationTicks": 24,
          "midi": 64,
          "name": "E4",
          "ticks": 23472,
          "time": 101.17238850000001,
          "velocity": 0.7874015748031497
        },
        {
          "duration": 0.10344824999999958,
          "durationTicks": 24,
          "midi": 76,
          "name": "E5",
          "ticks": 23472,
          "time": 101.17238850000001,
          "velocity": 0.7874015748031497
        },
        {
          "duration": 0.10344824999999958,
          "durationTicks": 24,
          "midi": 78,
          "name": "F#5",
          "ticks": 23496,
          "time": 101.27583675000001,
          "velocity": 0.7874015748031497
        },
        {
          "duration": 0.10344824999999958,
          "durationTicks": 24,
          "midi": 66,
          "name": "F#4",
          "ticks": 23496,
          "time": 101.27583675000001,
          "velocity": 0.7874015748031497
        },
        {
          "duration": 0.20689649999999915,
          "durationTicks": 48,
          "midi": 80,
          "name": "G#5",
          "ticks": 23520,
          "time": 101.37928500000001,
          "velocity": 0.7874015748031497
        },
        {
          "duration": 0.20689649999999915,
          "durationTicks": 48,
          "midi": 68,
          "name": "G#4",
          "ticks": 23520,
          "time": 101.37928500000001,
          "velocity": 0.7874015748031497
        },
        {
          "duration": 0.4137929999999983,
          "durationTicks": 96,
          "midi": 85,
          "name": "C#6",
          "ticks": 23568,
          "time": 101.58618150000001,
          "velocity": 0.7874015748031497
        },
        {
          "duration": 0.4137929999999983,
          "durationTicks": 96,
          "midi": 73,
          "name": "C#5",
          "ticks": 23568,
          "time": 101.58618150000001,
          "velocity": 0.7874015748031497
        },
        {
          "duration": 0.4137929999999983,
          "durationTicks": 96,
          "midi": 73,
          "name": "C#5",
          "ticks": 23664,
          "time": 101.99997450000001,
          "velocity": 0.7874015748031497
        },
        {
          "duration": 0.4137929999999983,
          "durationTicks": 96,
          "midi": 85,
          "name": "C#6",
          "ticks": 23664,
          "time": 101.99997450000001,
          "velocity": 0.7874015748031497
        },
        {
          "duration": 0.10344824999999958,
          "durationTicks": 24,
          "midi": 61,
          "name": "C#4",
          "ticks": 23808,
          "time": 102.620664,
          "velocity": 0.7874015748031497
        },
        {
          "duration": 0.10344824999999958,
          "durationTicks": 24,
          "midi": 73,
          "name": "C#5",
          "ticks": 23808,
          "time": 102.620664,
          "velocity": 0.7874015748031497
        },
        {
          "duration": 0.10344824999999958,
          "durationTicks": 24,
          "midi": 64,
          "name": "E4",
          "ticks": 23832,
          "time": 102.72411225,
          "velocity": 0.7874015748031497
        },
        {
          "duration": 0.10344824999999958,
          "durationTicks": 24,
          "midi": 76,
          "name": "E5",
          "ticks": 23832,
          "time": 102.72411225,
          "velocity": 0.7874015748031497
        },
        {
          "duration": 0.10344824999999958,
          "durationTicks": 24,
          "midi": 66,
          "name": "F#4",
          "ticks": 23856,
          "time": 102.8275605,
          "velocity": 0.7874015748031497
        },
        {
          "duration": 0.10344824999999958,
          "durationTicks": 24,
          "midi": 78,
          "name": "F#5",
          "ticks": 23856,
          "time": 102.8275605,
          "velocity": 0.7874015748031497
        },
        {
          "duration": 0.10344824999999958,
          "durationTicks": 24,
          "midi": 68,
          "name": "G#4",
          "ticks": 23880,
          "time": 102.93100875,
          "velocity": 0.7874015748031497
        },
        {
          "duration": 0.10344824999999958,
          "durationTicks": 24,
          "midi": 80,
          "name": "G#5",
          "ticks": 23880,
          "time": 102.93100875,
          "velocity": 0.7874015748031497
        },
        {
          "duration": 0.10344824999999958,
          "durationTicks": 24,
          "midi": 66,
          "name": "F#4",
          "ticks": 23904,
          "time": 103.034457,
          "velocity": 0.7874015748031497
        },
        {
          "duration": 0.10344824999999958,
          "durationTicks": 24,
          "midi": 78,
          "name": "F#5",
          "ticks": 23904,
          "time": 103.034457,
          "velocity": 0.7874015748031497
        },
        {
          "duration": 0.10344824999999958,
          "durationTicks": 24,
          "midi": 78,
          "name": "F#5",
          "ticks": 23928,
          "time": 103.13790525,
          "velocity": 0.7874015748031497
        },
        {
          "duration": 0.10344824999999958,
          "durationTicks": 24,
          "midi": 66,
          "name": "F#4",
          "ticks": 23928,
          "time": 103.13790525,
          "velocity": 0.7874015748031497
        },
        {
          "duration": 0.10344824999999958,
          "durationTicks": 24,
          "midi": 80,
          "name": "G#5",
          "ticks": 23952,
          "time": 103.2413535,
          "velocity": 0.7874015748031497
        },
        {
          "duration": 0.10344824999999958,
          "durationTicks": 24,
          "midi": 68,
          "name": "G#4",
          "ticks": 23952,
          "time": 103.2413535,
          "velocity": 0.7874015748031497
        },
        {
          "duration": 0.10344824999999958,
          "durationTicks": 24,
          "midi": 71,
          "name": "B4",
          "ticks": 23976,
          "time": 103.34480175,
          "velocity": 0.7874015748031497
        },
        {
          "duration": 0.10344824999999958,
          "durationTicks": 24,
          "midi": 83,
          "name": "B5",
          "ticks": 23976,
          "time": 103.34480175,
          "velocity": 0.7874015748031497
        },
        {
          "duration": 0.10344824999999958,
          "durationTicks": 24,
          "midi": 68,
          "name": "G#4",
          "ticks": 24000,
          "time": 103.44825,
          "velocity": 0.7874015748031497
        },
        {
          "duration": 0.10344824999999958,
          "durationTicks": 24,
          "midi": 80,
          "name": "G#5",
          "ticks": 24000,
          "time": 103.44825,
          "velocity": 0.7874015748031497
        },
        {
          "duration": 0.10344824999999958,
          "durationTicks": 24,
          "midi": 80,
          "name": "G#5",
          "ticks": 24024,
          "time": 103.55169825,
          "velocity": 0.7874015748031497
        },
        {
          "duration": 0.10344824999999958,
          "durationTicks": 24,
          "midi": 68,
          "name": "G#4",
          "ticks": 24024,
          "time": 103.55169825,
          "velocity": 0.7874015748031497
        },
        {
          "duration": 0.10344824999999958,
          "durationTicks": 24,
          "midi": 83,
          "name": "B5",
          "ticks": 24048,
          "time": 103.6551465,
          "velocity": 0.7874015748031497
        },
        {
          "duration": 0.10344824999999958,
          "durationTicks": 24,
          "midi": 71,
          "name": "B4",
          "ticks": 24048,
          "time": 103.6551465,
          "velocity": 0.7874015748031497
        },
        {
          "duration": 0.10344824999999958,
          "durationTicks": 24,
          "midi": 73,
          "name": "C#5",
          "ticks": 24072,
          "time": 103.75859475,
          "velocity": 0.7874015748031497
        },
        {
          "duration": 0.10344824999999958,
          "durationTicks": 24,
          "midi": 85,
          "name": "C#6",
          "ticks": 24072,
          "time": 103.75859475,
          "velocity": 0.7874015748031497
        },
        {
          "duration": 0.10344824999999958,
          "durationTicks": 24,
          "midi": 83,
          "name": "B5",
          "ticks": 24096,
          "time": 103.862043,
          "velocity": 0.7874015748031497
        },
        {
          "duration": 0.10344824999999958,
          "durationTicks": 24,
          "midi": 71,
          "name": "B4",
          "ticks": 24096,
          "time": 103.862043,
          "velocity": 0.7874015748031497
        },
        {
          "duration": 0.10344824999999958,
          "durationTicks": 24,
          "midi": 83,
          "name": "B5",
          "ticks": 24120,
          "time": 103.96549125,
          "velocity": 0.7874015748031497
        },
        {
          "duration": 0.10344824999999958,
          "durationTicks": 24,
          "midi": 71,
          "name": "B4",
          "ticks": 24120,
          "time": 103.96549125,
          "velocity": 0.7874015748031497
        },
        {
          "duration": 0.10344824999999958,
          "durationTicks": 24,
          "midi": 85,
          "name": "C#6",
          "ticks": 24144,
          "time": 104.0689395,
          "velocity": 0.7874015748031497
        },
        {
          "duration": 0.10344824999999958,
          "durationTicks": 24,
          "midi": 73,
          "name": "C#5",
          "ticks": 24144,
          "time": 104.0689395,
          "velocity": 0.7874015748031497
        },
        {
          "duration": 0.10344825000001379,
          "durationTicks": 24,
          "midi": 88,
          "name": "E6",
          "ticks": 24168,
          "time": 104.17238775,
          "velocity": 0.7874015748031497
        },
        {
          "duration": 0.10344825000001379,
          "durationTicks": 24,
          "midi": 76,
          "name": "E5",
          "ticks": 24168,
          "time": 104.17238775,
          "velocity": 0.7874015748031497
        },
        {
          "duration": 0.10344824999999958,
          "durationTicks": 24,
          "midi": 73,
          "name": "C#5",
          "ticks": 24192,
          "time": 104.27583600000001,
          "velocity": 0.7874015748031497
        },
        {
          "duration": 0.10344824999999958,
          "durationTicks": 24,
          "midi": 85,
          "name": "C#6",
          "ticks": 24192,
          "time": 104.27583600000001,
          "velocity": 0.7874015748031497
        },
        {
          "duration": 0.10344824999999958,
          "durationTicks": 24,
          "midi": 73,
          "name": "C#5",
          "ticks": 24216,
          "time": 104.37928425000001,
          "velocity": 0.7874015748031497
        },
        {
          "duration": 0.10344824999999958,
          "durationTicks": 24,
          "midi": 85,
          "name": "C#6",
          "ticks": 24216,
          "time": 104.37928425000001,
          "velocity": 0.7874015748031497
        },
        {
          "duration": 0.10344824999999958,
          "durationTicks": 24,
          "midi": 76,
          "name": "E5",
          "ticks": 24240,
          "time": 104.48273250000001,
          "velocity": 0.7874015748031497
        },
        {
          "duration": 0.10344824999999958,
          "durationTicks": 24,
          "midi": 88,
          "name": "E6",
          "ticks": 24240,
          "time": 104.48273250000001,
          "velocity": 0.7874015748031497
        },
        {
          "duration": 0.10344824999999958,
          "durationTicks": 24,
          "midi": 90,
          "name": "F#6",
          "ticks": 24264,
          "time": 104.58618075000001,
          "velocity": 0.7874015748031497
        },
        {
          "duration": 0.10344824999999958,
          "durationTicks": 24,
          "midi": 78,
          "name": "F#5",
          "ticks": 24264,
          "time": 104.58618075000001,
          "velocity": 0.7874015748031497
        },
        {
          "duration": 0.10344824999999958,
          "durationTicks": 24,
          "midi": 88,
          "name": "E6",
          "ticks": 24288,
          "time": 104.68962900000001,
          "velocity": 0.7874015748031497
        },
        {
          "duration": 0.10344824999999958,
          "durationTicks": 24,
          "midi": 76,
          "name": "E5",
          "ticks": 24288,
          "time": 104.68962900000001,
          "velocity": 0.7874015748031497
        },
        {
          "duration": 0.10344824999999958,
          "durationTicks": 24,
          "midi": 88,
          "name": "E6",
          "ticks": 24312,
          "time": 104.79307725000001,
          "velocity": 0.7874015748031497
        },
        {
          "duration": 0.10344824999999958,
          "durationTicks": 24,
          "midi": 76,
          "name": "E5",
          "ticks": 24312,
          "time": 104.79307725000001,
          "velocity": 0.7874015748031497
        },
        {
          "duration": 0.10344824999999958,
          "durationTicks": 24,
          "midi": 90,
          "name": "F#6",
          "ticks": 24336,
          "time": 104.89652550000001,
          "velocity": 0.7874015748031497
        },
        {
          "duration": 0.10344824999999958,
          "durationTicks": 24,
          "midi": 78,
          "name": "F#5",
          "ticks": 24336,
          "time": 104.89652550000001,
          "velocity": 0.7874015748031497
        },
        {
          "duration": 0.10344824999999958,
          "durationTicks": 24,
          "midi": 92,
          "name": "G#6",
          "ticks": 24360,
          "time": 104.99997375000001,
          "velocity": 0.7874015748031497
        },
        {
          "duration": 0.10344824999999958,
          "durationTicks": 24,
          "midi": 80,
          "name": "G#5",
          "ticks": 24360,
          "time": 104.99997375000001,
          "velocity": 0.7874015748031497
        },
        {
          "duration": 0.10344824999999958,
          "durationTicks": 24,
          "midi": 95,
          "name": "B6",
          "ticks": 24384,
          "time": 105.10342200000001,
          "velocity": 0.7874015748031497
        },
        {
          "duration": 0.10344824999999958,
          "durationTicks": 24,
          "midi": 83,
          "name": "B5",
          "ticks": 24384,
          "time": 105.10342200000001,
          "velocity": 0.7874015748031497
        },
        {
          "duration": 0.10344824999999958,
          "durationTicks": 24,
          "midi": 80,
          "name": "G#5",
          "ticks": 24408,
          "time": 105.20687025000001,
          "velocity": 0.7874015748031497
        },
        {
          "duration": 0.10344824999999958,
          "durationTicks": 24,
          "midi": 92,
          "name": "G#6",
          "ticks": 24408,
          "time": 105.20687025000001,
          "velocity": 0.7874015748031497
        },
        {
          "duration": 0.10344824999999958,
          "durationTicks": 24,
          "midi": 90,
          "name": "F#6",
          "ticks": 24432,
          "time": 105.31031850000001,
          "velocity": 0.7874015748031497
        },
        {
          "duration": 0.10344824999999958,
          "durationTicks": 24,
          "midi": 78,
          "name": "F#5",
          "ticks": 24432,
          "time": 105.31031850000001,
          "velocity": 0.7874015748031497
        },
        {
          "duration": 0.10344824999999958,
          "durationTicks": 24,
          "midi": 76,
          "name": "E5",
          "ticks": 24456,
          "time": 105.41376675000001,
          "velocity": 0.7874015748031497
        },
        {
          "duration": 0.10344824999999958,
          "durationTicks": 24,
          "midi": 88,
          "name": "E6",
          "ticks": 24456,
          "time": 105.41376675000001,
          "velocity": 0.7874015748031497
        },
        {
          "duration": 0.10344824999999958,
          "durationTicks": 24,
          "midi": 78,
          "name": "F#5",
          "ticks": 24480,
          "time": 105.51721500000001,
          "velocity": 0.7874015748031497
        },
        {
          "duration": 0.10344824999999958,
          "durationTicks": 24,
          "midi": 90,
          "name": "F#6",
          "ticks": 24480,
          "time": 105.51721500000001,
          "velocity": 0.7874015748031497
        },
        {
          "duration": 0.10344824999999958,
          "durationTicks": 24,
          "midi": 80,
          "name": "G#5",
          "ticks": 24504,
          "time": 105.62066325,
          "velocity": 0.7874015748031497
        },
        {
          "duration": 0.10344824999999958,
          "durationTicks": 24,
          "midi": 92,
          "name": "G#6",
          "ticks": 24504,
          "time": 105.62066325,
          "velocity": 0.7874015748031497
        },
        {
          "duration": 0.10344824999999958,
          "durationTicks": 24,
          "midi": 83,
          "name": "B5",
          "ticks": 24528,
          "time": 105.7241115,
          "velocity": 0.7874015748031497
        },
        {
          "duration": 0.10344824999999958,
          "durationTicks": 24,
          "midi": 95,
          "name": "B6",
          "ticks": 24528,
          "time": 105.7241115,
          "velocity": 0.7874015748031497
        },
        {
          "duration": 0.10344824999999958,
          "durationTicks": 24,
          "midi": 97,
          "name": "C#7",
          "ticks": 24552,
          "time": 105.82755975,
          "velocity": 0.7874015748031497
        },
        {
          "duration": 0.10344824999999958,
          "durationTicks": 24,
          "midi": 85,
          "name": "C#6",
          "ticks": 24552,
          "time": 105.82755975,
          "velocity": 0.7874015748031497
        },
        {
          "duration": 0.5689653750000048,
          "durationTicks": 132,
          "midi": 97,
          "name": "C#7",
          "ticks": 24576,
          "time": 105.931008,
          "velocity": 0.7874015748031497
        },
        {
          "duration": 0.5689653750000048,
          "durationTicks": 132,
          "midi": 85,
          "name": "C#6",
          "ticks": 24576,
          "time": 105.931008,
          "velocity": 0.7874015748031497
        },
        {
          "duration": 0.10344824999999958,
          "durationTicks": 24,
          "midi": 95,
          "name": "B6",
          "ticks": 24708,
          "time": 106.49997337500001,
          "velocity": 0.7874015748031497
        },
        {
          "duration": 0.10344824999999958,
          "durationTicks": 24,
          "midi": 83,
          "name": "B5",
          "ticks": 24708,
          "time": 106.49997337500001,
          "velocity": 0.7874015748031497
        },
        {
          "duration": 0.9827583749999889,
          "durationTicks": 228,
          "midi": 97,
          "name": "C#7",
          "ticks": 24732,
          "time": 106.60342162500001,
          "velocity": 0.7874015748031497
        },
        {
          "duration": 0.9827583749999889,
          "durationTicks": 228,
          "midi": 85,
          "name": "C#6",
          "ticks": 24732,
          "time": 106.60342162500001,
          "velocity": 0.7874015748031497
        },
        {
          "duration": 1.6551720000000074,
          "durationTicks": 384,
          "midi": 64,
          "name": "E4",
          "ticks": 24960,
          "time": 107.58618,
          "velocity": 0.7874015748031497
        },
        {
          "duration": 1.6551720000000074,
          "durationTicks": 384,
          "midi": 88,
          "name": "E6",
          "ticks": 24960,
          "time": 107.58618,
          "velocity": 0.6929133858267716
        },
        {
          "duration": 1.6551720000000074,
          "durationTicks": 384,
          "midi": 76,
          "name": "E5",
          "ticks": 24960,
          "time": 107.58618,
          "velocity": 0.7874015748031497
        },
        {
          "duration": 1.6551720000000074,
          "durationTicks": 384,
          "midi": 100,
          "name": "E7",
          "ticks": 24960,
          "time": 107.58618,
          "velocity": 0.6929133858267716
        },
        {
          "duration": 1.6551719999999932,
          "durationTicks": 384,
          "midi": 61,
          "name": "C#4",
          "ticks": 25344,
          "time": 109.241352,
          "velocity": 0.7874015748031497
        },
        {
          "duration": 1.6551719999999932,
          "durationTicks": 384,
          "midi": 73,
          "name": "C#5",
          "ticks": 25344,
          "time": 109.241352,
          "velocity": 0.7874015748031497
        },
        {
          "duration": 1.6551719999999932,
          "durationTicks": 384,
          "midi": 85,
          "name": "C#6",
          "ticks": 25344,
          "time": 109.241352,
          "velocity": 0.6929133858267716
        },
        {
          "duration": 1.6551719999999932,
          "durationTicks": 384,
          "midi": 97,
          "name": "C#7",
          "ticks": 25344,
          "time": 109.241352,
          "velocity": 0.6929133858267716
        }
      ],
      "endOfTrackTicks": 32641
    }
  ]
}