{
  "header": {
    "keySignatures": [],
    "meta": [
      {
        "text": "Inicio",
        "ticks": 0,
        "type": "marker"
      }
    ],
    "name": "",
    "ppq": 1000,
    "tempos": [
      {
        "bpm": 114.0001710002565,
        "ticks": 0
      }
    ],
    "timeSignatures": [
      {
        "ticks": 0,
        "timeSignature": [
          4,
          4
        ],
        "measures": 0
      }
    ]
  },
  "tracks": [
    {
      "channel": 0,
      "controlChanges": {
        "0": [
          {
            "number": 0,
            "ticks": 0,
            "time": 0,
            "value": 0
          }
        ],
        "7": [
          {
            "number": 7,
            "ticks": 0,
            "time": 0,
            "value": 0.7480314960629921
          }
        ]
      },
      "pitchBends": [],
      "instrument": {
        "family": "piano",
        "number": 0,
        "name": "acoustic grand piano"
      },
      "name": "Old",
      "notes": [],
      "endOfTrackTicks": 403000
    },
    {
      "channel": 0,
      "controlChanges": {},
      "pitchBends": [],
      "instrument": {
        "family": "guitar",
        "number": 30,
        "name": "distortion guitar"
      },
      "name": "",
      "notes": [
        {
          "duration": 0.3947362499999998,
          "durationTicks": 750,
          "midi": 55,
          "name": "G3",
          "ticks": 4000,
          "time": 2.10526,
          "velocity": 1
        },
        {
          "duration": 0.3947362499999998,
          "durationTicks": 750,
          "midi": 43,
          "name": "G2",
          "ticks": 4000,
          "time": 2.10526,
          "velocity": 1
        },
        {
          "duration": 0.39473625000000023,
          "durationTicks": 750,
          "midi": 62,
          "name": "D4",
          "ticks": 4750,
          "time": 2.4999962499999997,
          "velocity": 1
        },
        {
          "duration": 0.39473625000000023,
          "durationTicks": 750,
          "midi": 50,
          "name": "D3",
          "ticks": 4750,
          "time": 2.4999962499999997,
          "velocity": 1
        },
        {
          "duration": 0.26315750000000016,
          "durationTicks": 500,
          "midi": 55,
          "name": "G3",
          "ticks": 5500,
          "time": 2.8947325,
          "velocity": 1
        },
        {
          "duration": 0.26315750000000016,
          "durationTicks": 500,
          "midi": 43,
          "name": "G2",
          "ticks": 5500,
          "time": 2.8947325,
          "velocity": 1
        },
        {
          "duration": 0.2631574999999997,
          "durationTicks": 500,
          "midi": 58,
          "name": "A#3",
          "ticks": 6000,
          "time": 3.15789,
          "velocity": 1
        },
        {
          "duration": 0.2631574999999997,
          "durationTicks": 500,
          "midi": 46,
          "name": "A#2",
          "ticks": 6000,
          "time": 3.15789,
          "velocity": 1
        },
        {
          "duration": 0.26315750000000016,
          "durationTicks": 500,
          "midi": 65,
          "name": "F4",
          "ticks": 6500,
          "time": 3.4210475,
          "velocity": 1
        },
        {
          "duration": 0.26315750000000016,
          "durationTicks": 500,
          "midi": 53,
          "name": "F3",
          "ticks": 6500,
          "time": 3.4210475,
          "velocity": 1
        },
        {
          "duration": 0.2631574999999997,
          "durationTicks": 500,
          "midi": 60,
          "name": "C4",
          "ticks": 7000,
          "time": 3.684205,
          "velocity": 1
        },
        {
          "duration": 0.2631574999999997,
          "durationTicks": 500,
          "midi": 48,
          "name": "C3",
          "ticks": 7000,
          "time": 3.684205,
          "velocity": 1
        },
        {
          "duration": 0.26315750000000016,
          "durationTicks": 500,
          "midi": 67,
          "name": "G4",
          "ticks": 7500,
          "time": 3.9473624999999997,
          "velocity": 1
        },
        {
          "duration": 0.26315750000000016,
          "durationTicks": 500,
          "midi": 55,
          "name": "G3",
          "ticks": 7500,
          "time": 3.9473624999999997,
          "velocity": 1
        },
        {
          "duration": 0.39473625000000023,
          "durationTicks": 750,
          "midi": 52,
          "name": "E3",
          "ticks": 8000,
          "time": 4.21052,
          "velocity": 1
        },
        {
          "duration": 0.39473625000000023,
          "durationTicks": 750,
          "midi": 40,
          "name": "E2",
          "ticks": 8000,
          "time": 4.21052,
          "velocity": 1
        },
        {
          "duration": 0.39473624999999934,
          "durationTicks": 750,
          "midi": 59,
          "name": "B3",
          "ticks": 8750,
          "time": 4.60525625,
          "velocity": 1
        },
        {
          "duration": 0.39473624999999934,
          "durationTicks": 750,
          "midi": 47,
          "name": "B2",
          "ticks": 8750,
          "time": 4.60525625,
          "velocity": 1
        },
        {
          "duration": 0.26315750000000016,
          "durationTicks": 500,
          "midi": 52,
          "name": "E3",
          "ticks": 9500,
          "time": 4.999992499999999,
          "velocity": 1
        },
        {
          "duration": 0.26315750000000016,
          "durationTicks": 500,
          "midi": 40,
          "name": "E2",
          "ticks": 9500,
          "time": 4.999992499999999,
          "velocity": 1
        },
        {
          "duration": 0.26315750000000016,
          "durationTicks": 500,
          "midi": 51,
          "name": "D#3",
          "ticks": 10000,
          "time": 5.2631499999999996,
          "velocity": 1
        },
        {
          "duration": 0.26315750000000016,
          "durationTicks": 500,
          "midi": 39,
          "name": "D#2",
          "ticks": 10000,
          "time": 5.2631499999999996,
          "velocity": 1
        },
        {
          "duration": 0.26315750000000016,
          "durationTicks": 500,
          "midi": 58,
          "name": "A#3",
          "ticks": 10500,
          "time": 5.5263075,
          "velocity": 1
        },
        {
          "duration": 0.26315750000000016,
          "durationTicks": 500,
          "midi": 46,
          "name": "A#2",
          "ticks": 10500,
          "time": 5.5263075,
          "velocity": 1
        },
        {
          "duration": 0.26315750000000016,
          "durationTicks": 500,
          "midi": 38,
          "name": "D2",
          "ticks": 11000,
          "time": 5.789465,
          "velocity": 1
        },
        {
          "duration": 0.26315750000000016,
          "durationTicks": 500,
          "midi": 50,
          "name": "D3",
          "ticks": 11000,
          "time": 5.789465,
          "velocity": 1
        },
        {
          "duration": 0.26315750000000016,
          "durationTicks": 500,
          "midi": 57,
          "name": "A3",
          "ticks": 11500,
          "time": 6.0526225,
          "velocity": 1
        },
        {
          "duration": 0.26315750000000016,
          "durationTicks": 500,
          "midi": 45,
          "name": "A2",
          "ticks": 11500,
          "time": 6.0526225,
          "velocity": 1
        },
        {
          "duration": 0.39473624999999934,
          "durationTicks": 750,
          "midi": 55,
          "name": "G3",
          "ticks": 12000,
          "time": 6.31578,
          "velocity": 1
        },
        {
          "duration": 0.39473624999999934,
          "durationTicks": 750,
          "midi": 43,
          "name": "G2",
          "ticks": 12000,
          "time": 6.31578,
          "velocity": 1
        },
        {
          "duration": 0.39473625000000023,
          "durationTicks": 750,
          "midi": 62,
          "name": "D4",
          "ticks": 12750,
          "time": 6.7105162499999995,
          "velocity": 1
        },
        {
          "duration": 0.39473625000000023,
          "durationTicks": 750,
          "midi": 50,
          "name": "D3",
          "ticks": 12750,
          "time": 6.7105162499999995,
          "velocity": 1
        },
        {
          "duration": 0.26315750000000016,
          "durationTicks": 500,
          "midi": 55,
          "name": "G3",
          "ticks": 13500,
          "time": 7.1052525,
          "velocity": 1
        },
        {
          "duration": 0.26315750000000016,
          "durationTicks": 500,
          "midi": 43,
          "name": "G2",
          "ticks": 13500,
          "time": 7.1052525,
          "velocity": 1
        },
        {
          "duration": 0.26315750000000016,
          "durationTicks": 500,
          "midi": 58,
          "name": "A#3",
          "ticks": 14000,
          "time": 7.36841,
          "velocity": 1
        },
        {
          "duration": 0.26315750000000016,
          "durationTicks": 500,
          "midi": 46,
          "name": "A#2",
          "ticks": 14000,
          "time": 7.36841,
          "velocity": 1
        },
        {
          "duration": 0.26315749999999927,
          "durationTicks": 500,
          "midi": 65,
          "name": "F4",
          "ticks": 14500,
          "time": 7.6315675,
          "velocity": 1
        },
        {
          "duration": 0.26315749999999927,
          "durationTicks": 500,
          "midi": 53,
          "name": "F3",
          "ticks": 14500,
          "time": 7.6315675,
          "velocity": 1
        },
        {
          "duration": 0.26315750000000016,
          "durationTicks": 500,
          "midi": 60,
          "name": "C4",
          "ticks": 15000,
          "time": 7.894724999999999,
          "velocity": 1
        },
        {
          "duration": 0.26315750000000016,
          "durationTicks": 500,
          "midi": 48,
          "name": "C3",
          "ticks": 15000,
          "time": 7.894724999999999,
          "velocity": 1
        },
        {
          "duration": 0.26315750000000016,
          "durationTicks": 500,
          "midi": 67,
          "name": "G4",
          "ticks": 15500,
          "time": 8.1578825,
          "velocity": 1
        },
        {
          "duration": 0.26315750000000016,
          "durationTicks": 500,
          "midi": 55,
          "name": "G3",
          "ticks": 15500,
          "time": 8.1578825,
          "velocity": 1
        },
        {
          "duration": 0.39473624999999934,
          "durationTicks": 750,
          "midi": 52,
          "name": "E3",
          "ticks": 16000,
          "time": 8.42104,
          "velocity": 1
        },
        {
          "duration": 0.39473624999999934,
          "durationTicks": 750,
          "midi": 40,
          "name": "E2",
          "ticks": 16000,
          "time": 8.42104,
          "velocity": 1
        },
        {
          "duration": 0.3947362500000011,
          "durationTicks": 750,
          "midi": 59,
          "name": "B3",
          "ticks": 16750,
          "time": 8.815776249999999,
          "velocity": 1
        },
        {
          "duration": 0.3947362500000011,
          "durationTicks": 750,
          "midi": 47,
          "name": "B2",
          "ticks": 16750,
          "time": 8.815776249999999,
          "velocity": 1
        },
        {
          "duration": 0.26315750000000016,
          "durationTicks": 500,
          "midi": 52,
          "name": "E3",
          "ticks": 17500,
          "time": 9.2105125,
          "velocity": 1
        },
        {
          "duration": 0.26315750000000016,
          "durationTicks": 500,
          "midi": 40,
          "name": "E2",
          "ticks": 17500,
          "time": 9.2105125,
          "velocity": 1
        },
        {
          "duration": 0.26315750000000016,
          "durationTicks": 500,
          "midi": 51,
          "name": "D#3",
          "ticks": 18000,
          "time": 9.47367,
          "velocity": 1
        },
        {
          "duration": 0.26315750000000016,
          "durationTicks": 500,
          "midi": 39,
          "name": "D#2",
          "ticks": 18000,
          "time": 9.47367,
          "velocity": 1
        },
        {
          "duration": 0.2631574999999984,
          "durationTicks": 500,
          "midi": 58,
          "name": "A#3",
          "ticks": 18500,
          "time": 9.7368275,
          "velocity": 1
        },
        {
          "duration": 0.2631574999999984,
          "durationTicks": 500,
          "midi": 46,
          "name": "A#2",
          "ticks": 18500,
          "time": 9.7368275,
          "velocity": 1
        },
        {
          "duration": 0.26315750000000016,
          "durationTicks": 500,
          "midi": 38,
          "name": "D2",
          "ticks": 19000,
          "time": 9.999984999999999,
          "velocity": 1
        },
        {
          "duration": 0.26315750000000016,
          "durationTicks": 500,
          "midi": 50,
          "name": "D3",
          "ticks": 19000,
          "time": 9.999984999999999,
          "velocity": 1
        },
        {
          "duration": 0.26315750000000016,
          "durationTicks": 500,
          "midi": 57,
          "name": "A3",
          "ticks": 19500,
          "time": 10.263142499999999,
          "velocity": 1
        },
        {
          "duration": 0.26315750000000016,
          "durationTicks": 500,
          "midi": 45,
          "name": "A2",
          "ticks": 19500,
          "time": 10.263142499999999,
          "velocity": 1
        },
        {
          "duration": 0.3947362500000011,
          "durationTicks": 750,
          "midi": 55,
          "name": "G3",
          "ticks": 20000,
          "time": 10.526299999999999,
          "velocity": 1
        },
        {
          "duration": 0.3947362500000011,
          "durationTicks": 750,
          "midi": 43,
          "name": "G2",
          "ticks": 20000,
          "time": 10.526299999999999,
          "velocity": 1
        },
        {
          "duration": 0.39473624999999934,
          "durationTicks": 750,
          "midi": 62,
          "name": "D4",
          "ticks": 20750,
          "time": 10.92103625,
          "velocity": 1
        },
        {
          "duration": 0.39473624999999934,
          "durationTicks": 750,
          "midi": 50,
          "name": "D3",
          "ticks": 20750,
          "time": 10.92103625,
          "velocity": 1
        },
        {
          "duration": 0.26315750000000016,
          "durationTicks": 500,
          "midi": 55,
          "name": "G3",
          "ticks": 21500,
          "time": 11.3157725,
          "velocity": 1
        },
        {
          "duration": 0.26315750000000016,
          "durationTicks": 500,
          "midi": 43,
          "name": "G2",
          "ticks": 21500,
          "time": 11.3157725,
          "velocity": 1
        },
        {
          "duration": 0.26315750000000016,
          "durationTicks": 500,
          "midi": 58,
          "name": "A#3",
          "ticks": 22000,
          "time": 11.57893,
          "velocity": 1
        },
        {
          "duration": 0.26315750000000016,
          "durationTicks": 500,
          "midi": 46,
          "name": "A#2",
          "ticks": 22000,
          "time": 11.57893,
          "velocity": 1
        },
        {
          "duration": 0.26315750000000016,
          "durationTicks": 500,
          "midi": 65,
          "name": "F4",
          "ticks": 22500,
          "time": 11.8420875,
          "velocity": 1
        },
        {
          "duration": 0.26315750000000016,
          "durationTicks": 500,
          "midi": 53,
          "name": "F3",
          "ticks": 22500,
          "time": 11.8420875,
          "velocity": 1
        },
        {
          "duration": 0.26315750000000016,
          "durationTicks": 500,
          "midi": 60,
          "name": "C4",
          "ticks": 23000,
          "time": 12.105245,
          "velocity": 1
        },
        {
          "duration": 0.26315750000000016,
          "durationTicks": 500,
          "midi": 48,
          "name": "C3",
          "ticks": 23000,
          "time": 12.105245,
          "velocity": 1
        },
        {
          "duration": 0.26315750000000016,
          "durationTicks": 500,
          "midi": 67,
          "name": "G4",
          "ticks": 23500,
          "time": 12.3684025,
          "velocity": 1
        },
        {
          "duration": 0.26315750000000016,
          "durationTicks": 500,
          "midi": 55,
          "name": "G3",
          "ticks": 23500,
          "time": 12.3684025,
          "velocity": 1
        },
        {
          "duration": 0.39473624999999934,
          "durationTicks": 750,
          "midi": 52,
          "name": "E3",
          "ticks": 24000,
          "time": 12.63156,
          "velocity": 1
        },
        {
          "duration": 0.39473624999999934,
          "durationTicks": 750,
          "midi": 40,
          "name": "E2",
          "ticks": 24000,
          "time": 12.63156,
          "velocity": 1
        },
        {
          "duration": 0.39473624999999934,
          "durationTicks": 750,
          "midi": 59,
          "name": "B3",
          "ticks": 24750,
          "time": 13.02629625,
          "velocity": 1
        },
        {
          "duration": 0.39473624999999934,
          "durationTicks": 750,
          "midi": 47,
          "name": "B2",
          "ticks": 24750,
          "time": 13.02629625,
          "velocity": 1
        },
        {
          "duration": 0.26315750000000016,
          "durationTicks": 500,
          "midi": 52,
          "name": "E3",
          "ticks": 25500,
          "time": 13.421032499999999,
          "velocity": 1
        },
        {
          "duration": 0.26315750000000016,
          "durationTicks": 500,
          "midi": 40,
          "name": "E2",
          "ticks": 25500,
          "time": 13.421032499999999,
          "velocity": 1
        },
        {
          "duration": 0.26315750000000016,
          "durationTicks": 500,
          "midi": 51,
          "name": "D#3",
          "ticks": 26000,
          "time": 13.68419,
          "velocity": 1
        },
        {
          "duration": 0.26315750000000016,
          "durationTicks": 500,
          "midi": 39,
          "name": "D#2",
          "ticks": 26000,
          "time": 13.68419,
          "velocity": 1
        },
        {
          "duration": 0.26315750000000016,
          "durationTicks": 500,
          "midi": 58,
          "name": "A#3",
          "ticks": 26500,
          "time": 13.9473475,
          "velocity": 1
        },
        {
          "duration": 0.26315750000000016,
          "durationTicks": 500,
          "midi": 46,
          "name": "A#2",
          "ticks": 26500,
          "time": 13.9473475,
          "velocity": 1
        },
        {
          "duration": 0.26315750000000016,
          "durationTicks": 500,
          "midi": 38,
          "name": "D2",
          "ticks": 27000,
          "time": 14.210505,
          "velocity": 1
        },
        {
          "duration": 0.26315750000000016,
          "durationTicks": 500,
          "midi": 50,
          "name": "D3",
          "ticks": 27000,
          "time": 14.210505,
          "velocity": 1
        },
        {
          "duration": 0.26315750000000016,
          "durationTicks": 500,
          "midi": 57,
          "name": "A3",
          "ticks": 27500,
          "time": 14.4736625,
          "velocity": 1
        },
        {
          "duration": 0.26315750000000016,
          "durationTicks": 500,
          "midi": 45,
          "name": "A2",
          "ticks": 27500,
          "time": 14.4736625,
          "velocity": 1
        },
        {
          "duration": 0.39473624999999934,
          "durationTicks": 750,
          "midi": 55,
          "name": "G3",
          "ticks": 28000,
          "time": 14.73682,
          "velocity": 1
        },
        {
          "duration": 0.39473624999999934,
          "durationTicks": 750,
          "midi": 43,
          "name": "G2",
          "ticks": 28000,
          "time": 14.73682,
          "velocity": 1
        },
        {
          "duration": 0.39473624999999934,
          "durationTicks": 750,
          "midi": 62,
          "name": "D4",
          "ticks": 28750,
          "time": 15.13155625,
          "velocity": 1
        },
        {
          "duration": 0.39473624999999934,
          "durationTicks": 750,
          "midi": 50,
          "name": "D3",
          "ticks": 28750,
          "time": 15.13155625,
          "velocity": 1
        },
        {
          "duration": 0.26315750000000016,
          "durationTicks": 500,
          "midi": 55,
          "name": "G3",
          "ticks": 29500,
          "time": 15.526292499999998,
          "velocity": 1
        },
        {
          "duration": 0.26315750000000016,
          "durationTicks": 500,
          "midi": 43,
          "name": "G2",
          "ticks": 29500,
          "time": 15.526292499999998,
          "velocity": 1
        },
        {
          "duration": 0.26315750000000193,
          "durationTicks": 500,
          "midi": 58,
          "name": "A#3",
          "ticks": 30000,
          "time": 15.789449999999999,
          "velocity": 1
        },
        {
          "duration": 0.26315750000000193,
          "durationTicks": 500,
          "midi": 46,
          "name": "A#2",
          "ticks": 30000,
          "time": 15.789449999999999,
          "velocity": 1
        },
        {
          "duration": 0.2631574999999984,
          "durationTicks": 500,
          "midi": 65,
          "name": "F4",
          "ticks": 30500,
          "time": 16.0526075,
          "velocity": 1
        },
        {
          "duration": 0.2631574999999984,
          "durationTicks": 500,
          "midi": 53,
          "name": "F3",
          "ticks": 30500,
          "time": 16.0526075,
          "velocity": 1
        },
        {
          "duration": 0.26315750000000193,
          "durationTicks": 500,
          "midi": 60,
          "name": "C4",
          "ticks": 31000,
          "time": 16.315765,
          "velocity": 1
        },
        {
          "duration": 0.26315750000000193,
          "durationTicks": 500,
          "midi": 48,
          "name": "C3",
          "ticks": 31000,
          "time": 16.315765,
          "velocity": 1
        },
        {
          "duration": 0.2631574999999984,
          "durationTicks": 500,
          "midi": 67,
          "name": "G4",
          "ticks": 31500,
          "time": 16.5789225,
          "velocity": 1
        },
        {
          "duration": 0.2631574999999984,
          "durationTicks": 500,
          "midi": 55,
          "name": "G3",
          "ticks": 31500,
          "time": 16.5789225,
          "velocity": 1
        },
        {
          "duration": 0.3947362500000011,
          "durationTicks": 750,
          "midi": 52,
          "name": "E3",
          "ticks": 32000,
          "time": 16.84208,
          "velocity": 1
        },
        {
          "duration": 0.3947362500000011,
          "durationTicks": 750,
          "midi": 40,
          "name": "E2",
          "ticks": 32000,
          "time": 16.84208,
          "velocity": 1
        },
        {
          "duration": 0.39473624999999757,
          "durationTicks": 750,
          "midi": 59,
          "name": "B3",
          "ticks": 32750,
          "time": 17.23681625,
          "velocity": 1
        },
        {
          "duration": 0.39473624999999757,
          "durationTicks": 750,
          "midi": 47,
          "name": "B2",
          "ticks": 32750,
          "time": 17.23681625,
          "velocity": 1
        },
        {
          "duration": 0.26315750000000193,
          "durationTicks": 500,
          "midi": 52,
          "name": "E3",
          "ticks": 33500,
          "time": 17.631552499999998,
          "velocity": 1
        },
        {
          "duration": 0.26315750000000193,
          "durationTicks": 500,
          "midi": 40,
          "name": "E2",
          "ticks": 33500,
          "time": 17.631552499999998,
          "velocity": 1
        },
        {
          "duration": 0.2631574999999984,
          "durationTicks": 500,
          "midi": 51,
          "name": "D#3",
          "ticks": 34000,
          "time": 17.89471,
          "velocity": 1
        },
        {
          "duration": 0.2631574999999984,
          "durationTicks": 500,
          "midi": 39,
          "name": "D#2",
          "ticks": 34000,
          "time": 17.89471,
          "velocity": 1
        },
        {
          "duration": 0.26315750000000193,
          "durationTicks": 500,
          "midi": 58,
          "name": "A#3",
          "ticks": 34500,
          "time": 18.1578675,
          "velocity": 1
        },
        {
          "duration": 0.26315750000000193,
          "durationTicks": 500,
          "midi": 46,
          "name": "A#2",
          "ticks": 34500,
          "time": 18.1578675,
          "velocity": 1
        },
        {
          "duration": 0.2631574999999984,
          "durationTicks": 500,
          "midi": 38,
          "name": "D2",
          "ticks": 35000,
          "time": 18.421025,
          "velocity": 1
        },
        {
          "duration": 0.2631574999999984,
          "durationTicks": 500,
          "midi": 50,
          "name": "D3",
          "ticks": 35000,
          "time": 18.421025,
          "velocity": 1
        },
        {
          "duration": 0.26315750000000193,
          "durationTicks": 500,
          "midi": 57,
          "name": "A3",
          "ticks": 35500,
          "time": 18.6841825,
          "velocity": 1
        },
        {
          "duration": 0.26315750000000193,
          "durationTicks": 500,
          "midi": 45,
          "name": "A2",
          "ticks": 35500,
          "time": 18.6841825,
          "velocity": 1
        },
        {
          "duration": 0.39473624999999757,
          "durationTicks": 750,
          "midi": 51,
          "name": "D#3",
          "ticks": 36000,
          "time": 18.94734,
          "velocity": 1
        },
        {
          "duration": 0.39473624999999757,
          "durationTicks": 750,
          "midi": 39,
          "name": "D#2",
          "ticks": 36000,
          "time": 18.94734,
          "velocity": 1
        },
        {
          "duration": 0.3947362500000011,
          "durationTicks": 750,
          "midi": 58,
          "name": "A#3",
          "ticks": 36750,
          "time": 19.342076249999998,
          "velocity": 1
        },
        {
          "duration": 0.3947362500000011,
          "durationTicks": 750,
          "midi": 46,
          "name": "A#2",
          "ticks": 36750,
          "time": 19.342076249999998,
          "velocity": 1
        },
        {
          "duration": 0.2631574999999984,
          "durationTicks": 500,
          "midi": 51,
          "name": "D#3",
          "ticks": 37500,
          "time": 19.7368125,
          "velocity": 1
        },
        {
          "duration": 0.2631574999999984,
          "durationTicks": 500,
          "midi": 39,
          "name": "D#2",
          "ticks": 37500,
          "time": 19.7368125,
          "velocity": 1
        },
        {
          "duration": 0.3947362500000011,
          "durationTicks": 750,
          "midi": 50,
          "name": "D3",
          "ticks": 38000,
          "time": 19.999969999999998,
          "velocity": 1
        },
        {
          "duration": 0.3947362500000011,
          "durationTicks": 750,
          "midi": 38,
          "name": "D2",
          "ticks": 38000,
          "time": 19.999969999999998,
          "velocity": 1
        },
        {
          "duration": 0.3947362500000011,
          "durationTicks": 750,
          "midi": 57,
          "name": "A3",
          "ticks": 38750,
          "time": 20.39470625,
          "velocity": 1
        },
        {
          "duration": 0.3947362500000011,
          "durationTicks": 750,
          "midi": 45,
          "name": "A2",
          "ticks": 38750,
          "time": 20.39470625,
          "velocity": 1
        },
        {
          "duration": 0.2631574999999984,
          "durationTicks": 500,
          "midi": 50,
          "name": "D3",
          "ticks": 39500,
          "time": 20.7894425,
          "velocity": 1
        },
        {
          "duration": 0.2631574999999984,
          "durationTicks": 500,
          "midi": 38,
          "name": "D2",
          "ticks": 39500,
          "time": 20.7894425,
          "velocity": 1
        },
        {
          "duration": 0.3947362500000011,
          "durationTicks": 750,
          "midi": 55,
          "name": "G3",
          "ticks": 40000,
          "time": 21.052599999999998,
          "velocity": 1
        },
        {
          "duration": 0.3947362500000011,
          "durationTicks": 750,
          "midi": 43,
          "name": "G2",
          "ticks": 40000,
          "time": 21.052599999999998,
          "velocity": 1
        },
        {
          "duration": 0.3947362500000011,
          "durationTicks": 750,
          "midi": 62,
          "name": "D4",
          "ticks": 40750,
          "time": 21.44733625,
          "velocity": 1
        },
        {
          "duration": 0.3947362500000011,
          "durationTicks": 750,
          "midi": 50,
          "name": "D3",
          "ticks": 40750,
          "time": 21.44733625,
          "velocity": 1
        },
        {
          "duration": 0.2631574999999984,
          "durationTicks": 500,
          "midi": 55,
          "name": "G3",
          "ticks": 41500,
          "time": 21.8420725,
          "velocity": 1
        },
        {
          "duration": 0.2631574999999984,
          "durationTicks": 500,
          "midi": 43,
          "name": "G2",
          "ticks": 41500,
          "time": 21.8420725,
          "velocity": 1
        },
        {
          "duration": 0.3947362500000011,
          "durationTicks": 750,
          "midi": 53,
          "name": "F3",
          "ticks": 42000,
          "time": 22.10523,
          "velocity": 1
        },
        {
          "duration": 0.3947362500000011,
          "durationTicks": 750,
          "midi": 41,
          "name": "F2",
          "ticks": 42000,
          "time": 22.10523,
          "velocity": 1
        },
        {
          "duration": 0.39473624999999757,
          "durationTicks": 750,
          "midi": 60,
          "name": "C4",
          "ticks": 42750,
          "time": 22.49996625,
          "velocity": 1
        },
        {
          "duration": 0.39473624999999757,
          "durationTicks": 750,
          "midi": 48,
          "name": "C3",
          "ticks": 42750,
          "time": 22.49996625,
          "velocity": 1
        },
        {
          "duration": 0.26315750000000193,
          "durationTicks": 500,
          "midi": 53,
          "name": "F3",
          "ticks": 43500,
          "time": 22.894702499999998,
          "velocity": 1
        },
        {
          "duration": 0.26315750000000193,
          "durationTicks": 500,
          "midi": 41,
          "name": "F2",
          "ticks": 43500,
          "time": 22.894702499999998,
          "velocity": 1
        },
        {
          "duration": 0.3947362500000011,
          "durationTicks": 750,
          "midi": 58,
          "name": "A#3",
          "ticks": 44000,
          "time": 23.15786,
          "velocity": 1
        },
        {
          "duration": 0.3947362500000011,
          "durationTicks": 750,
          "midi": 46,
          "name": "A#2",
          "ticks": 44000,
          "time": 23.15786,
          "velocity": 1
        },
        {
          "duration": 0.39473624999999757,
          "durationTicks": 750,
          "midi": 65,
          "name": "F4",
          "ticks": 44750,
          "time": 23.55259625,
          "velocity": 1
        },
        {
          "duration": 0.39473624999999757,
          "durationTicks": 750,
          "midi": 53,
          "name": "F3",
          "ticks": 44750,
          "time": 23.55259625,
          "velocity": 1
        },
        {
          "duration": 0.26315750000000193,
          "durationTicks": 500,
          "midi": 58,
          "name": "A#3",
          "ticks": 45500,
          "time": 23.947332499999998,
          "velocity": 1
        },
        {
          "duration": 0.26315750000000193,
          "durationTicks": 500,
          "midi": 46,
          "name": "A#2",
          "ticks": 45500,
          "time": 23.947332499999998,
          "velocity": 1
        },
        {
          "duration": 0.39473624999999757,
          "durationTicks": 750,
          "midi": 57,
          "name": "A3",
          "ticks": 46000,
          "time": 24.21049,
          "velocity": 1
        },
        {
          "duration": 0.39473624999999757,
          "durationTicks": 750,
          "midi": 45,
          "name": "A2",
          "ticks": 46000,
          "time": 24.21049,
          "velocity": 1
        },
        {
          "duration": 0.3947362500000011,
          "durationTicks": 750,
          "midi": 64,
          "name": "E4",
          "ticks": 46750,
          "time": 24.605226249999998,
          "velocity": 1
        },
        {
          "duration": 0.3947362500000011,
          "durationTicks": 750,
          "midi": 52,
          "name": "E3",
          "ticks": 46750,
          "time": 24.605226249999998,
          "velocity": 1
        },
        {
          "duration": 0.26315750000000193,
          "durationTicks": 500,
          "midi": 57,
          "name": "A3",
          "ticks": 47500,
          "time": 24.9999625,
          "velocity": 1
        },
        {
          "duration": 0.26315750000000193,
          "durationTicks": 500,
          "midi": 45,
          "name": "A2",
          "ticks": 47500,
          "time": 24.9999625,
          "velocity": 1
        },
        {
          "duration": 0.39473624999999757,
          "durationTicks": 750,
          "midi": 50,
          "name": "D3",
          "ticks": 48000,
          "time": 25.26312,
          "velocity": 1
        },
        {
          "duration": 0.39473624999999757,
          "durationTicks": 750,
          "midi": 38,
          "name": "D2",
          "ticks": 48000,
          "time": 25.26312,
          "velocity": 1
        },
        {
          "duration": 0.3947362500000011,
          "durationTicks": 750,
          "midi": 57,
          "name": "A3",
          "ticks": 48750,
          "time": 25.65785625,
          "velocity": 1
        },
        {
          "duration": 0.3947362500000011,
          "durationTicks": 750,
          "midi": 45,
          "name": "A2",
          "ticks": 48750,
          "time": 25.65785625,
          "velocity": 1
        },
        {
          "duration": 0.2631574999999984,
          "durationTicks": 500,
          "midi": 50,
          "name": "D3",
          "ticks": 49500,
          "time": 26.0525925,
          "velocity": 1
        },
        {
          "duration": 0.2631574999999984,
          "durationTicks": 500,
          "midi": 38,
          "name": "D2",
          "ticks": 49500,
          "time": 26.0525925,
          "velocity": 1
        },
        {
          "duration": 0.3947362500000011,
          "durationTicks": 750,
          "midi": 51,
          "name": "D#3",
          "ticks": 50000,
          "time": 26.315749999999998,
          "velocity": 1
        },
        {
          "duration": 0.3947362500000011,
          "durationTicks": 750,
          "midi": 39,
          "name": "D#2",
          "ticks": 50000,
          "time": 26.315749999999998,
          "velocity": 1
        },
        {
          "duration": 0.3947362500000011,
          "durationTicks": 750,
          "midi": 58,
          "name": "A#3",
          "ticks": 50750,
          "time": 26.71048625,
          "velocity": 1
        },
        {
          "duration": 0.3947362500000011,
          "durationTicks": 750,
          "midi": 46,
          "name": "A#2",
          "ticks": 50750,
          "time": 26.71048625,
          "velocity": 1
        },
        {
          "duration": 0.2631574999999984,
          "durationTicks": 500,
          "midi": 51,
          "name": "D#3",
          "ticks": 51500,
          "time": 27.1052225,
          "velocity": 1
        },
        {
          "duration": 0.2631574999999984,
          "durationTicks": 500,
          "midi": 39,
          "name": "D#2",
          "ticks": 51500,
          "time": 27.1052225,
          "velocity": 1
        },
        {
          "duration": 0.3947362500000011,
          "durationTicks": 750,
          "midi": 55,
          "name": "G3",
          "ticks": 52000,
          "time": 27.36838,
          "velocity": 1
        },
        {
          "duration": 0.3947362500000011,
          "durationTicks": 750,
          "midi": 43,
          "name": "G2",
          "ticks": 52000,
          "time": 27.36838,
          "velocity": 1
        },
        {
          "duration": 0.39473624999999757,
          "durationTicks": 750,
          "midi": 62,
          "name": "D4",
          "ticks": 52750,
          "time": 27.76311625,
          "velocity": 1
        },
        {
          "duration": 0.39473624999999757,
          "durationTicks": 750,
          "midi": 50,
          "name": "D3",
          "ticks": 52750,
          "time": 27.76311625,
          "velocity": 1
        },
        {
          "duration": 0.26315750000000193,
          "durationTicks": 500,
          "midi": 55,
          "name": "G3",
          "ticks": 53500,
          "time": 28.157852499999997,
          "velocity": 1
        },
        {
          "duration": 0.26315750000000193,
          "durationTicks": 500,
          "midi": 43,
          "name": "G2",
          "ticks": 53500,
          "time": 28.157852499999997,
          "velocity": 1
        },
        {
          "duration": 0.2631574999999984,
          "durationTicks": 500,
          "midi": 58,
          "name": "A#3",
          "ticks": 54000,
          "time": 28.42101,
          "velocity": 1
        },
        {
          "duration": 0.2631574999999984,
          "durationTicks": 500,
          "midi": 46,
          "name": "A#2",
          "ticks": 54000,
          "time": 28.42101,
          "velocity": 1
        },
        {
          "duration": 0.26315750000000193,
          "durationTicks": 500,
          "midi": 65,
          "name": "F4",
          "ticks": 54500,
          "time": 28.684167499999997,
          "velocity": 1
        },
        {
          "duration": 0.26315750000000193,
          "durationTicks": 500,
          "midi": 53,
          "name": "F3",
          "ticks": 54500,
          "time": 28.684167499999997,
          "velocity": 1
        },
        {
          "duration": 0.2631574999999984,
          "durationTicks": 500,
          "midi": 60,
          "name": "C4",
          "ticks": 55000,
          "time": 28.947325,
          "velocity": 1
        },
        {
          "duration": 0.2631574999999984,
          "durationTicks": 500,
          "midi": 48,
          "name": "C3",
          "ticks": 55000,
          "time": 28.947325,
          "velocity": 1
        },
        {
          "duration": 0.26315750000000193,
          "durationTicks": 500,
          "midi": 67,
          "name": "G4",
          "ticks": 55500,
          "time": 29.210482499999998,
          "velocity": 1
        },
        {
          "duration": 0.26315750000000193,
          "durationTicks": 500,
          "midi": 55,
          "name": "G3",
          "ticks": 55500,
          "time": 29.210482499999998,
          "velocity": 1
        },
        {
          "duration": 0.39473624999999757,
          "durationTicks": 750,
          "midi": 52,
          "name": "E3",
          "ticks": 56000,
          "time": 29.47364,
          "velocity": 1
        },
        {
          "duration": 0.39473624999999757,
          "durationTicks": 750,
          "midi": 40,
          "name": "E2",
          "ticks": 56000,
          "time": 29.47364,
          "velocity": 1
        },
        {
          "duration": 0.3947362500000011,
          "durationTicks": 750,
          "midi": 59,
          "name": "B3",
          "ticks": 56750,
          "time": 29.868376249999997,
          "velocity": 1
        },
        {
          "duration": 0.3947362500000011,
          "durationTicks": 750,
          "midi": 47,
          "name": "B2",
          "ticks": 56750,
          "time": 29.868376249999997,
          "velocity": 1
        },
        {
          "duration": 0.26315750000000193,
          "durationTicks": 500,
          "midi": 52,
          "name": "E3",
          "ticks": 57500,
          "time": 30.2631125,
          "velocity": 1
        },
        {
          "duration": 0.26315750000000193,
          "durationTicks": 500,
          "midi": 40,
          "name": "E2",
          "ticks": 57500,
          "time": 30.2631125,
          "velocity": 1
        },
        {
          "duration": 0.2631574999999984,
          "durationTicks": 500,
          "midi": 51,
          "name": "D#3",
          "ticks": 58000,
          "time": 30.52627,
          "velocity": 1
        },
        {
          "duration": 0.2631574999999984,
          "durationTicks": 500,
          "midi": 39,
          "name": "D#2",
          "ticks": 58000,
          "time": 30.52627,
          "velocity": 1
        },
        {
          "duration": 0.2631574999999984,
          "durationTicks": 500,
          "midi": 58,
          "name": "A#3",
          "ticks": 58500,
          "time": 30.7894275,
          "velocity": 1
        },
        {
          "duration": 0.2631574999999984,
          "durationTicks": 500,
          "midi": 46,
          "name": "A#2",
          "ticks": 58500,
          "time": 30.7894275,
          "velocity": 1
        },
        {
          "duration": 0.26315750000000193,
          "durationTicks": 500,
          "midi": 38,
          "name": "D2",
          "ticks": 59000,
          "time": 31.052584999999997,
          "velocity": 1
        },
        {
          "duration": 0.26315750000000193,
          "durationTicks": 500,
          "midi": 50,
          "name": "D3",
          "ticks": 59000,
          "time": 31.052584999999997,
          "velocity": 1
        },
        {
          "duration": 0.2631574999999984,
          "durationTicks": 500,
          "midi": 57,
          "name": "A3",
          "ticks": 59500,
          "time": 31.3157425,
          "velocity": 1
        },
        {
          "duration": 0.2631574999999984,
          "durationTicks": 500,
          "midi": 45,
          "name": "A2",
          "ticks": 59500,
          "time": 31.3157425,
          "velocity": 1
        },
        {
          "duration": 0.3947362500000011,
          "durationTicks": 750,
          "midi": 55,
          "name": "G3",
          "ticks": 60000,
          "time": 31.578899999999997,
          "velocity": 1
        },
        {
          "duration": 0.3947362500000011,
          "durationTicks": 750,
          "midi": 43,
          "name": "G2",
          "ticks": 60000,
          "time": 31.578899999999997,
          "velocity": 1
        },
        {
          "duration": 0.3947362500000011,
          "durationTicks": 750,
          "midi": 62,
          "name": "D4",
          "ticks": 60750,
          "time": 31.97363625,
          "velocity": 1
        },
        {
          "duration": 0.3947362500000011,
          "durationTicks": 750,
          "midi": 50,
          "name": "D3",
          "ticks": 60750,
          "time": 31.97363625,
          "velocity": 1
        },
        {
          "duration": 0.2631574999999984,
          "durationTicks": 500,
          "midi": 55,
          "name": "G3",
          "ticks": 61500,
          "time": 32.3683725,
          "velocity": 1
        },
        {
          "duration": 0.2631574999999984,
          "durationTicks": 500,
          "midi": 43,
          "name": "G2",
          "ticks": 61500,
          "time": 32.3683725,
          "velocity": 1
        },
        {
          "duration": 0.2631574999999984,
          "durationTicks": 500,
          "midi": 58,
          "name": "A#3",
          "ticks": 62000,
          "time": 32.63153,
          "velocity": 1
        },
        {
          "duration": 0.2631574999999984,
          "durationTicks": 500,
          "midi": 46,
          "name": "A#2",
          "ticks": 62000,
          "time": 32.63153,
          "velocity": 1
        },
        {
          "duration": 0.2631575000000055,
          "durationTicks": 500,
          "midi": 65,
          "name": "F4",
          "ticks": 62500,
          "time": 32.894687499999996,
          "velocity": 1
        },
        {
          "duration": 0.2631575000000055,
          "durationTicks": 500,
          "midi": 53,
          "name": "F3",
          "ticks": 62500,
          "time": 32.894687499999996,
          "velocity": 1
        },
        {
          "duration": 0.2631574999999984,
          "durationTicks": 500,
          "midi": 60,
          "name": "C4",
          "ticks": 63000,
          "time": 33.157845,
          "velocity": 1
        },
        {
          "duration": 0.2631574999999984,
          "durationTicks": 500,
          "midi": 48,
          "name": "C3",
          "ticks": 63000,
          "time": 33.157845,
          "velocity": 1
        },
        {
          "duration": 0.2631574999999984,
          "durationTicks": 500,
          "midi": 67,
          "name": "G4",
          "ticks": 63500,
          "time": 33.4210025,
          "velocity": 1
        },
        {
          "duration": 0.2631574999999984,
          "durationTicks": 500,
          "midi": 55,
          "name": "G3",
          "ticks": 63500,
          "time": 33.4210025,
          "velocity": 1
        },
        {
          "duration": 0.3947362500000011,
          "durationTicks": 750,
          "midi": 52,
          "name": "E3",
          "ticks": 64000,
          "time": 33.68416,
          "velocity": 1
        },
        {
          "duration": 0.3947362500000011,
          "durationTicks": 750,
          "midi": 40,
          "name": "E2",
          "ticks": 64000,
          "time": 33.68416,
          "velocity": 1
        },
        {
          "duration": 0.3947362500000011,
          "durationTicks": 750,
          "midi": 59,
          "name": "B3",
          "ticks": 64750,
          "time": 34.07889625,
          "velocity": 1
        },
        {
          "duration": 0.3947362500000011,
          "durationTicks": 750,
          "midi": 47,
          "name": "B2",
          "ticks": 64750,
          "time": 34.07889625,
          "velocity": 1
        },
        {
          "duration": 0.2631574999999984,
          "durationTicks": 500,
          "midi": 52,
          "name": "E3",
          "ticks": 65500,
          "time": 34.4736325,
          "velocity": 1
        },
        {
          "duration": 0.2631574999999984,
          "durationTicks": 500,
          "midi": 40,
          "name": "E2",
          "ticks": 65500,
          "time": 34.4736325,
          "velocity": 1
        },
        {
          "duration": 0.2631574999999984,
          "durationTicks": 500,
          "midi": 51,
          "name": "D#3",
          "ticks": 66000,
          "time": 34.73679,
          "velocity": 1
        },
        {
          "duration": 0.2631574999999984,
          "durationTicks": 500,
          "midi": 39,
          "name": "D#2",
          "ticks": 66000,
          "time": 34.73679,
          "velocity": 1
        },
        {
          "duration": 0.2631574999999984,
          "durationTicks": 500,
          "midi": 58,
          "name": "A#3",
          "ticks": 66500,
          "time": 34.9999475,
          "velocity": 1
        },
        {
          "duration": 0.2631574999999984,
          "durationTicks": 500,
          "midi": 46,
          "name": "A#2",
          "ticks": 66500,
          "time": 34.9999475,
          "velocity": 1
        },
        {
          "duration": 0.2631575000000055,
          "durationTicks": 500,
          "midi": 38,
          "name": "D2",
          "ticks": 67000,
          "time": 35.263104999999996,
          "velocity": 1
        },
        {
          "duration": 0.2631575000000055,
          "durationTicks": 500,
          "midi": 50,
          "name": "D3",
          "ticks": 67000,
          "time": 35.263104999999996,
          "velocity": 1
        },
        {
          "duration": 0.2631574999999984,
          "durationTicks": 500,
          "midi": 57,
          "name": "A3",
          "ticks": 67500,
          "time": 35.5262625,
          "velocity": 1
        },
        {
          "duration": 0.2631574999999984,
          "durationTicks": 500,
          "midi": 45,
          "name": "A2",
          "ticks": 67500,
          "time": 35.5262625,
          "velocity": 1
        },
        {
          "duration": 0.3947362500000011,
          "durationTicks": 750,
          "midi": 51,
          "name": "D#3",
          "ticks": 68000,
          "time": 35.78942,
          "velocity": 1
        },
        {
          "duration": 0.3947362500000011,
          "durationTicks": 750,
          "midi": 39,
          "name": "D#2",
          "ticks": 68000,
          "time": 35.78942,
          "velocity": 1
        },
        {
          "duration": 0.394736249999994,
          "durationTicks": 750,
          "midi": 58,
          "name": "A#3",
          "ticks": 68750,
          "time": 36.18415625,
          "velocity": 1
        },
        {
          "duration": 0.394736249999994,
          "durationTicks": 750,
          "midi": 46,
          "name": "A#2",
          "ticks": 68750,
          "time": 36.18415625,
          "velocity": 1
        },
        {
          "duration": 0.2631575000000055,
          "durationTicks": 500,
          "midi": 51,
          "name": "D#3",
          "ticks": 69500,
          "time": 36.578892499999995,
          "velocity": 1
        },
        {
          "duration": 0.2631575000000055,
          "durationTicks": 500,
          "midi": 39,
          "name": "D#2",
          "ticks": 69500,
          "time": 36.578892499999995,
          "velocity": 1
        },
        {
          "duration": 0.3947362500000011,
          "durationTicks": 750,
          "midi": 50,
          "name": "D3",
          "ticks": 70000,
          "time": 36.84205,
          "velocity": 1
        },
        {
          "duration": 0.3947362500000011,
          "durationTicks": 750,
          "midi": 38,
          "name": "D2",
          "ticks": 70000,
          "time": 36.84205,
          "velocity": 1
        },
        {
          "duration": 0.394736249999994,
          "durationTicks": 750,
          "midi": 57,
          "name": "A3",
          "ticks": 70750,
          "time": 37.23678625,
          "velocity": 1
        },
        {
          "duration": 0.394736249999994,
          "durationTicks": 750,
          "midi": 45,
          "name": "A2",
          "ticks": 70750,
          "time": 37.23678625,
          "velocity": 1
        },
        {
          "duration": 0.2631575000000055,
          "durationTicks": 500,
          "midi": 50,
          "name": "D3",
          "ticks": 71500,
          "time": 37.631522499999996,
          "velocity": 1
        },
        {
          "duration": 0.2631575000000055,
          "durationTicks": 500,
          "midi": 38,
          "name": "D2",
          "ticks": 71500,
          "time": 37.631522499999996,
          "velocity": 1
        },
        {
          "duration": 0.394736249999994,
          "durationTicks": 750,
          "midi": 55,
          "name": "G3",
          "ticks": 72000,
          "time": 37.89468,
          "velocity": 1
        },
        {
          "duration": 0.394736249999994,
          "durationTicks": 750,
          "midi": 43,
          "name": "G2",
          "ticks": 72000,
          "time": 37.89468,
          "velocity": 1
        },
        {
          "duration": 0.3947362500000011,
          "durationTicks": 750,
          "midi": 62,
          "name": "D4",
          "ticks": 72750,
          "time": 38.289416249999995,
          "velocity": 1
        },
        {
          "duration": 0.3947362500000011,
          "durationTicks": 750,
          "midi": 50,
          "name": "D3",
          "ticks": 72750,
          "time": 38.289416249999995,
          "velocity": 1
        },
        {
          "duration": 0.2631575000000055,
          "durationTicks": 500,
          "midi": 55,
          "name": "G3",
          "ticks": 73500,
          "time": 38.684152499999996,
          "velocity": 1
        },
        {
          "duration": 0.2631575000000055,
          "durationTicks": 500,
          "midi": 43,
          "name": "G2",
          "ticks": 73500,
          "time": 38.684152499999996,
          "velocity": 1
        },
        {
          "duration": 0.394736249999994,
          "durationTicks": 750,
          "midi": 53,
          "name": "F3",
          "ticks": 74000,
          "time": 38.94731,
          "velocity": 1
        },
        {
          "duration": 0.394736249999994,
          "durationTicks": 750,
          "midi": 41,
          "name": "F2",
          "ticks": 74000,
          "time": 38.94731,
          "velocity": 1
        },
        {
          "duration": 0.3947362500000011,
          "durationTicks": 750,
          "midi": 60,
          "name": "C4",
          "ticks": 74750,
          "time": 39.342046249999996,
          "velocity": 1
        },
        {
          "duration": 0.3947362500000011,
          "durationTicks": 750,
          "midi": 48,
          "name": "C3",
          "ticks": 74750,
          "time": 39.342046249999996,
          "velocity": 1
        },
        {
          "duration": 0.2631574999999984,
          "durationTicks": 500,
          "midi": 53,
          "name": "F3",
          "ticks": 75500,
          "time": 39.7367825,
          "velocity": 1
        },
        {
          "duration": 0.2631574999999984,
          "durationTicks": 500,
          "midi": 41,
          "name": "F2",
          "ticks": 75500,
          "time": 39.7367825,
          "velocity": 1
        },
        {
          "duration": 0.3947362500000011,
          "durationTicks": 750,
          "midi": 58,
          "name": "A#3",
          "ticks": 76000,
          "time": 39.999939999999995,
          "velocity": 1
        },
        {
          "duration": 0.3947362500000011,
          "durationTicks": 750,
          "midi": 46,
          "name": "A#2",
          "ticks": 76000,
          "time": 39.999939999999995,
          "velocity": 1
        },
        {
          "duration": 0.3947362500000011,
          "durationTicks": 750,
          "midi": 65,
          "name": "F4",
          "ticks": 76750,
          "time": 40.394676249999996,
          "velocity": 1
        },
        {
          "duration": 0.3947362500000011,
          "durationTicks": 750,
          "midi": 53,
          "name": "F3",
          "ticks": 76750,
          "time": 40.394676249999996,
          "velocity": 1
        },
        {
          "duration": 0.2631574999999984,
          "durationTicks": 500,
          "midi": 58,
          "name": "A#3",
          "ticks": 77500,
          "time": 40.7894125,
          "velocity": 1
        },
        {
          "duration": 0.2631574999999984,
          "durationTicks": 500,
          "midi": 46,
          "name": "A#2",
          "ticks": 77500,
          "time": 40.7894125,
          "velocity": 1
        },
        {
          "duration": 0.3947362500000011,
          "durationTicks": 750,
          "midi": 57,
          "name": "A3",
          "ticks": 78000,
          "time": 41.052569999999996,
          "velocity": 1
        },
        {
          "duration": 0.3947362500000011,
          "durationTicks": 750,
          "midi": 45,
          "name": "A2",
          "ticks": 78000,
          "time": 41.052569999999996,
          "velocity": 1
        },
        {
          "duration": 0.3947362500000011,
          "durationTicks": 750,
          "midi": 64,
          "name": "E4",
          "ticks": 78750,
          "time": 41.44730625,
          "velocity": 1
        },
        {
          "duration": 0.3947362500000011,
          "durationTicks": 750,
          "midi": 52,
          "name": "E3",
          "ticks": 78750,
          "time": 41.44730625,
          "velocity": 1
        },
        {
          "duration": 0.2631574999999984,
          "durationTicks": 500,
          "midi": 57,
          "name": "A3",
          "ticks": 79500,
          "time": 41.8420425,
          "velocity": 1
        },
        {
          "duration": 0.2631574999999984,
          "durationTicks": 500,
          "midi": 45,
          "name": "A2",
          "ticks": 79500,
          "time": 41.8420425,
          "velocity": 1
        },
        {
          "duration": 0.3947362500000011,
          "durationTicks": 750,
          "midi": 50,
          "name": "D3",
          "ticks": 80000,
          "time": 42.105199999999996,
          "velocity": 1
        },
        {
          "duration": 0.3947362500000011,
          "durationTicks": 750,
          "midi": 38,
          "name": "D2",
          "ticks": 80000,
          "time": 42.105199999999996,
          "velocity": 1
        },
        {
          "duration": 0.3947362500000011,
          "durationTicks": 750,
          "midi": 57,
          "name": "A3",
          "ticks": 80750,
          "time": 42.49993625,
          "velocity": 1
        },
        {
          "duration": 0.3947362500000011,
          "durationTicks": 750,
          "midi": 45,
          "name": "A2",
          "ticks": 80750,
          "time": 42.49993625,
          "velocity": 1
        },
        {
          "duration": 0.2631574999999984,
          "durationTicks": 500,
          "midi": 50,
          "name": "D3",
          "ticks": 81500,
          "time": 42.8946725,
          "velocity": 1
        },
        {
          "duration": 0.2631574999999984,
          "durationTicks": 500,
          "midi": 38,
          "name": "D2",
          "ticks": 81500,
          "time": 42.8946725,
          "velocity": 1
        },
        {
          "duration": 0.3947362500000011,
          "durationTicks": 750,
          "midi": 51,
          "name": "D#3",
          "ticks": 82000,
          "time": 43.15783,
          "velocity": 1
        },
        {
          "duration": 0.3947362500000011,
          "durationTicks": 750,
          "midi": 39,
          "name": "D#2",
          "ticks": 82000,
          "time": 43.15783,
          "velocity": 1
        },
        {
          "duration": 0.3947362500000011,
          "durationTicks": 750,
          "midi": 58,
          "name": "A#3",
          "ticks": 82750,
          "time": 43.55256625,
          "velocity": 1
        },
        {
          "duration": 0.3947362500000011,
          "durationTicks": 750,
          "midi": 46,
          "name": "A#2",
          "ticks": 82750,
          "time": 43.55256625,
          "velocity": 1
        },
        {
          "duration": 0.2631574999999984,
          "durationTicks": 500,
          "midi": 51,
          "name": "D#3",
          "ticks": 83500,
          "time": 43.9473025,
          "velocity": 1
        },
        {
          "duration": 0.2631574999999984,
          "durationTicks": 500,
          "midi": 39,
          "name": "D#2",
          "ticks": 83500,
          "time": 43.9473025,
          "velocity": 1
        },
        {
          "duration": 0.2631574999999984,
          "durationTicks": 500,
          "midi": 46,
          "name": "A#2",
          "ticks": 84000,
          "time": 44.21046,
          "velocity": 1
        },
        {
          "duration": 0.2631574999999984,
          "durationTicks": 500,
          "midi": 58,
          "name": "A#3",
          "ticks": 84000,
          "time": 44.21046,
          "velocity": 1
        },
        {
          "duration": 0.2631575000000055,
          "durationTicks": 500,
          "midi": 46,
          "name": "A#2",
          "ticks": 84500,
          "time": 44.473617499999996,
          "velocity": 1
        },
        {
          "duration": 0.2631575000000055,
          "durationTicks": 500,
          "midi": 58,
          "name": "A#3",
          "ticks": 84500,
          "time": 44.473617499999996,
          "velocity": 1
        },
        {
          "duration": 0.5263149999999968,
          "durationTicks": 1000,
          "midi": 46,
          "name": "A#2",
          "ticks": 85000,
          "time": 44.736775,
          "velocity": 1
        },
        {
          "duration": 0.2631574999999984,
          "durationTicks": 500,
          "midi": 58,
          "name": "A#3",
          "ticks": 85000,
          "time": 44.736775,
          "velocity": 1
        },
        {
          "duration": 0.2631574999999984,
          "durationTicks": 500,
          "midi": 58,
          "name": "A#3",
          "ticks": 85500,
          "time": 44.9999325,
          "velocity": 1
        },
        {
          "duration": 0.2631574999999984,
          "durationTicks": 500,
          "midi": 50,
          "name": "D3",
          "ticks": 86000,
          "time": 45.26309,
          "velocity": 1
        },
        {
          "duration": 0.2631574999999984,
          "durationTicks": 500,
          "midi": 62,
          "name": "D4",
          "ticks": 86000,
          "time": 45.26309,
          "velocity": 1
        },
        {
          "duration": 0.2631574999999984,
          "durationTicks": 500,
          "midi": 50,
          "name": "D3",
          "ticks": 86500,
          "time": 45.5262475,
          "velocity": 1
        },
        {
          "duration": 0.2631574999999984,
          "durationTicks": 500,
          "midi": 62,
          "name": "D4",
          "ticks": 86500,
          "time": 45.5262475,
          "velocity": 1
        },
        {
          "duration": 0.5263150000000039,
          "durationTicks": 1000,
          "midi": 50,
          "name": "D3",
          "ticks": 87000,
          "time": 45.789404999999995,
          "velocity": 1
        },
        {
          "duration": 0.2631575000000055,
          "durationTicks": 500,
          "midi": 62,
          "name": "D4",
          "ticks": 87000,
          "time": 45.789404999999995,
          "velocity": 1
        },
        {
          "duration": 0.2631574999999984,
          "durationTicks": 500,
          "midi": 62,
          "name": "D4",
          "ticks": 87500,
          "time": 46.0525625,
          "velocity": 1
        },
        {
          "duration": 0.2631574999999984,
          "durationTicks": 500,
          "midi": 55,
          "name": "G3",
          "ticks": 88000,
          "time": 46.31572,
          "velocity": 1
        },
        {
          "duration": 0.2631574999999984,
          "durationTicks": 500,
          "midi": 67,
          "name": "G4",
          "ticks": 88000,
          "time": 46.31572,
          "velocity": 1
        },
        {
          "duration": 0.2631574999999984,
          "durationTicks": 500,
          "midi": 55,
          "name": "G3",
          "ticks": 88500,
          "time": 46.5788775,
          "velocity": 1
        },
        {
          "duration": 0.2631574999999984,
          "durationTicks": 500,
          "midi": 67,
          "name": "G4",
          "ticks": 88500,
          "time": 46.5788775,
          "velocity": 1
        },
        {
          "duration": 0.5263150000000039,
          "durationTicks": 1000,
          "midi": 55,
          "name": "G3",
          "ticks": 89000,
          "time": 46.842034999999996,
          "velocity": 1
        },
        {
          "duration": 0.2631575000000055,
          "durationTicks": 500,
          "midi": 67,
          "name": "G4",
          "ticks": 89000,
          "time": 46.842034999999996,
          "velocity": 1
        },
        {
          "duration": 0.2631574999999984,
          "durationTicks": 500,
          "midi": 67,
          "name": "G4",
          "ticks": 89500,
          "time": 47.1051925,
          "velocity": 1
        },
        {
          "duration": 0.2631574999999984,
          "durationTicks": 500,
          "midi": 53,
          "name": "F3",
          "ticks": 90000,
          "time": 47.36835,
          "velocity": 1
        },
        {
          "duration": 0.2631574999999984,
          "durationTicks": 500,
          "midi": 65,
          "name": "F4",
          "ticks": 90000,
          "time": 47.36835,
          "velocity": 1
        },
        {
          "duration": 0.2631574999999984,
          "durationTicks": 500,
          "midi": 53,
          "name": "F3",
          "ticks": 90500,
          "time": 47.6315075,
          "velocity": 1
        },
        {
          "duration": 0.2631574999999984,
          "durationTicks": 500,
          "midi": 65,
          "name": "F4",
          "ticks": 90500,
          "time": 47.6315075,
          "velocity": 1
        },
        {
          "duration": 0.5263150000000039,
          "durationTicks": 1000,
          "midi": 53,
          "name": "F3",
          "ticks": 91000,
          "time": 47.894664999999996,
          "velocity": 1
        },
        {
          "duration": 0.2631574999999984,
          "durationTicks": 500,
          "midi": 65,
          "name": "F4",
          "ticks": 91000,
          "time": 47.894664999999996,
          "velocity": 1
        },
        {
          "duration": 0.2631575000000055,
          "durationTicks": 500,
          "midi": 65,
          "name": "F4",
          "ticks": 91500,
          "time": 48.157822499999995,
          "velocity": 1
        },
        {
          "duration": 0.2631574999999984,
          "durationTicks": 500,
          "midi": 46,
          "name": "A#2",
          "ticks": 92000,
          "time": 48.42098,
          "velocity": 1
        },
        {
          "duration": 0.2631574999999984,
          "durationTicks": 500,
          "midi": 58,
          "name": "A#3",
          "ticks": 92000,
          "time": 48.42098,
          "velocity": 1
        },
        {
          "duration": 0.2631574999999984,
          "durationTicks": 500,
          "midi": 46,
          "name": "A#2",
          "ticks": 92500,
          "time": 48.6841375,
          "velocity": 1
        },
        {
          "duration": 0.2631574999999984,
          "durationTicks": 500,
          "midi": 58,
          "name": "A#3",
          "ticks": 92500,
          "time": 48.6841375,
          "velocity": 1
        },
        {
          "duration": 0.5263150000000039,
          "durationTicks": 1000,
          "midi": 46,
          "name": "A#2",
          "ticks": 93000,
          "time": 48.947295,
          "velocity": 1
        },
        {
          "duration": 0.2631574999999984,
          "durationTicks": 500,
          "midi": 58,
          "name": "A#3",
          "ticks": 93000,
          "time": 48.947295,
          "velocity": 1
        },
        {
          "duration": 0.2631575000000055,
          "durationTicks": 500,
          "midi": 58,
          "name": "A#3",
          "ticks": 93500,
          "time": 49.210452499999995,
          "velocity": 1
        },
        {
          "duration": 0.2631574999999984,
          "durationTicks": 500,
          "midi": 50,
          "name": "D3",
          "ticks": 94000,
          "time": 49.47361,
          "velocity": 1
        },
        {
          "duration": 0.2631574999999984,
          "durationTicks": 500,
          "midi": 62,
          "name": "D4",
          "ticks": 94000,
          "time": 49.47361,
          "velocity": 1
        },
        {
          "duration": 0.2631574999999984,
          "durationTicks": 500,
          "midi": 50,
          "name": "D3",
          "ticks": 94500,
          "time": 49.7367675,
          "velocity": 1
        },
        {
          "duration": 0.2631574999999984,
          "durationTicks": 500,
          "midi": 62,
          "name": "D4",
          "ticks": 94500,
          "time": 49.7367675,
          "velocity": 1
        },
        {
          "duration": 0.5263150000000039,
          "durationTicks": 1000,
          "midi": 50,
          "name": "D3",
          "ticks": 95000,
          "time": 49.999925,
          "velocity": 1
        },
        {
          "duration": 0.2631574999999984,
          "durationTicks": 500,
          "midi": 62,
          "name": "D4",
          "ticks": 95000,
          "time": 49.999925,
          "velocity": 1
        },
        {
          "duration": 0.2631575000000055,
          "durationTicks": 500,
          "midi": 62,
          "name": "D4",
          "ticks": 95500,
          "time": 50.263082499999996,
          "velocity": 1
        },
        {
          "duration": 0.2631574999999984,
          "durationTicks": 500,
          "midi": 55,
          "name": "G3",
          "ticks": 96000,
          "time": 50.52624,
          "velocity": 1
        },
        {
          "duration": 0.2631574999999984,
          "durationTicks": 500,
          "midi": 67,
          "name": "G4",
          "ticks": 96000,
          "time": 50.52624,
          "velocity": 1
        },
        {
          "duration": 0.2631574999999984,
          "durationTicks": 500,
          "midi": 55,
          "name": "G3",
          "ticks": 96500,
          "time": 50.7893975,
          "velocity": 1
        },
        {
          "duration": 0.2631574999999984,
          "durationTicks": 500,
          "midi": 67,
          "name": "G4",
          "ticks": 96500,
          "time": 50.7893975,
          "velocity": 1
        },
        {
          "duration": 0.5263149999999968,
          "durationTicks": 1000,
          "midi": 55,
          "name": "G3",
          "ticks": 97000,
          "time": 51.052555,
          "velocity": 1
        },
        {
          "duration": 0.2631574999999984,
          "durationTicks": 500,
          "midi": 67,
          "name": "G4",
          "ticks": 97000,
          "time": 51.052555,
          "velocity": 1
        },
        {
          "duration": 0.2631574999999984,
          "durationTicks": 500,
          "midi": 67,
          "name": "G4",
          "ticks": 97500,
          "time": 51.3157125,
          "velocity": 1
        },
        {
          "duration": 0.2631575000000055,
          "durationTicks": 500,
          "midi": 53,
          "name": "F3",
          "ticks": 98000,
          "time": 51.578869999999995,
          "velocity": 1
        },
        {
          "duration": 0.2631575000000055,
          "durationTicks": 500,
          "midi": 65,
          "name": "F4",
          "ticks": 98000,
          "time": 51.578869999999995,
          "velocity": 1
        },
        {
          "duration": 0.2631574999999984,
          "durationTicks": 500,
          "midi": 53,
          "name": "F3",
          "ticks": 98500,
          "time": 51.8420275,
          "velocity": 1
        },
        {
          "duration": 0.2631574999999984,
          "durationTicks": 500,
          "midi": 65,
          "name": "F4",
          "ticks": 98500,
          "time": 51.8420275,
          "velocity": 1
        },
        {
          "duration": 0.5263149999999968,
          "durationTicks": 1000,
          "midi": 53,
          "name": "F3",
          "ticks": 99000,
          "time": 52.105185,
          "velocity": 1
        },
        {
          "duration": 0.2631574999999984,
          "durationTicks": 500,
          "midi": 65,
          "name": "F4",
          "ticks": 99000,
          "time": 52.105185,
          "velocity": 1
        },
        {
          "duration": 0.2631574999999984,
          "durationTicks": 500,
          "midi": 65,
          "name": "F4",
          "ticks": 99500,
          "time": 52.3683425,
          "velocity": 1
        },
        {
          "duration": 0.2631575000000055,
          "durationTicks": 500,
          "midi": 46,
          "name": "A#2",
          "ticks": 100000,
          "time": 52.631499999999996,
          "velocity": 1
        },
        {
          "duration": 0.2631575000000055,
          "durationTicks": 500,
          "midi": 58,
          "name": "A#3",
          "ticks": 100000,
          "time": 52.631499999999996,
          "velocity": 1
        },
        {
          "duration": 0.2631574999999984,
          "durationTicks": 500,
          "midi": 46,
          "name": "A#2",
          "ticks": 100500,
          "time": 52.8946575,
          "velocity": 1
        },
        {
          "duration": 0.2631574999999984,
          "durationTicks": 500,
          "midi": 58,
          "name": "A#3",
          "ticks": 100500,
          "time": 52.8946575,
          "velocity": 1
        },
        {
          "duration": 0.5263149999999968,
          "durationTicks": 1000,
          "midi": 46,
          "name": "A#2",
          "ticks": 101000,
          "time": 53.157815,
          "velocity": 1
        },
        {
          "duration": 0.2631574999999984,
          "durationTicks": 500,
          "midi": 58,
          "name": "A#3",
          "ticks": 101000,
          "time": 53.157815,
          "velocity": 1
        },
        {
          "duration": 0.2631574999999984,
          "durationTicks": 500,
          "midi": 58,
          "name": "A#3",
          "ticks": 101500,
          "time": 53.4209725,
          "velocity": 1
        },
        {
          "duration": 0.2631574999999984,
          "durationTicks": 500,
          "midi": 50,
          "name": "D3",
          "ticks": 102000,
          "time": 53.684129999999996,
          "velocity": 1
        },
        {
          "duration": 0.2631574999999984,
          "durationTicks": 500,
          "midi": 62,
          "name": "D4",
          "ticks": 102000,
          "time": 53.684129999999996,
          "velocity": 1
        },
        {
          "duration": 0.2631575000000055,
          "durationTicks": 500,
          "midi": 50,
          "name": "D3",
          "ticks": 102500,
          "time": 53.947287499999995,
          "velocity": 1
        },
        {
          "duration": 0.2631575000000055,
          "durationTicks": 500,
          "midi": 62,
          "name": "D4",
          "ticks": 102500,
          "time": 53.947287499999995,
          "velocity": 1
        },
        {
          "duration": 0.5263149999999968,
          "durationTicks": 1000,
          "midi": 50,
          "name": "D3",
          "ticks": 103000,
          "time": 54.210445,
          "velocity": 1
        },
        {
          "duration": 0.2631574999999984,
          "durationTicks": 500,
          "midi": 62,
          "name": "D4",
          "ticks": 103000,
          "time": 54.210445,
          "velocity": 1
        },
        {
          "duration": 0.2631574999999984,
          "durationTicks": 500,
          "midi": 62,
          "name": "D4",
          "ticks": 103500,
          "time": 54.4736025,
          "velocity": 1
        },
        {
          "duration": 0.2631574999999984,
          "durationTicks": 500,
          "midi": 52,
          "name": "E3",
          "ticks": 104000,
          "time": 54.73676,
          "velocity": 1
        },
        {
          "duration": 0.2631574999999984,
          "durationTicks": 500,
          "midi": 64,
          "name": "E4",
          "ticks": 104000,
          "time": 54.73676,
          "velocity": 1
        },
        {
          "duration": 0.2631575000000055,
          "durationTicks": 500,
          "midi": 52,
          "name": "E3",
          "ticks": 104500,
          "time": 54.999917499999995,
          "velocity": 1
        },
        {
          "duration": 0.2631575000000055,
          "durationTicks": 500,
          "midi": 64,
          "name": "E4",
          "ticks": 104500,
          "time": 54.999917499999995,
          "velocity": 1
        },
        {
          "duration": 0.5263149999999968,
          "durationTicks": 1000,
          "midi": 52,
          "name": "E3",
          "ticks": 105000,
          "time": 55.263075,
          "velocity": 1
        },
        {
          "duration": 0.2631574999999984,
          "durationTicks": 500,
          "midi": 64,
          "name": "E4",
          "ticks": 105000,
          "time": 55.263075,
          "velocity": 1
        },
        {
          "duration": 0.2631574999999984,
          "durationTicks": 500,
          "midi": 64,
          "name": "E4",
          "ticks": 105500,
          "time": 55.5262325,
          "velocity": 1
        },
        {
          "duration": 0.2631574999999984,
          "durationTicks": 500,
          "midi": 51,
          "name": "D#3",
          "ticks": 106000,
          "time": 55.78939,
          "velocity": 1
        },
        {
          "duration": 0.2631574999999984,
          "durationTicks": 500,
          "midi": 63,
          "name": "D#4",
          "ticks": 106000,
          "time": 55.78939,
          "velocity": 1
        },
        {
          "duration": 0.2631574999999984,
          "durationTicks": 500,
          "midi": 51,
          "name": "D#3",
          "ticks": 106500,
          "time": 56.052547499999996,
          "velocity": 1
        },
        {
          "duration": 0.2631574999999984,
          "durationTicks": 500,
          "midi": 63,
          "name": "D#4",
          "ticks": 106500,
          "time": 56.052547499999996,
          "velocity": 1
        },
        {
          "duration": 0.5263150000000039,
          "durationTicks": 1000,
          "midi": 51,
          "name": "D#3",
          "ticks": 107000,
          "time": 56.315704999999994,
          "velocity": 1
        },
        {
          "duration": 0.2631575000000055,
          "durationTicks": 500,
          "midi": 63,
          "name": "D#4",
          "ticks": 107000,
          "time": 56.315704999999994,
          "velocity": 1
        },
        {
          "duration": 0.2631574999999984,
          "durationTicks": 500,
          "midi": 63,
          "name": "D#4",
          "ticks": 107500,
          "time": 56.5788625,
          "velocity": 1
        },
        {
          "duration": 0.2631574999999984,
          "durationTicks": 500,
          "midi": 48,
          "name": "C3",
          "ticks": 108000,
          "time": 56.84202,
          "velocity": 1
        },
        {
          "duration": 0.2631574999999984,
          "durationTicks": 500,
          "midi": 60,
          "name": "C4",
          "ticks": 108500,
          "time": 57.105177499999996,
          "velocity": 1
        },
        {
          "duration": 0.2631575000000055,
          "durationTicks": 500,
          "midi": 48,
          "name": "C3",
          "ticks": 109000,
          "time": 57.368334999999995,
          "velocity": 1
        },
        {
          "duration": 0.2631574999999984,
          "durationTicks": 500,
          "midi": 60,
          "name": "C4",
          "ticks": 109500,
          "time": 57.6314925,
          "velocity": 1
        },
        {
          "duration": 0.2631574999999984,
          "durationTicks": 500,
          "midi": 50,
          "name": "D3",
          "ticks": 110000,
          "time": 57.89465,
          "velocity": 1
        },
        {
          "duration": 0.2631574999999984,
          "durationTicks": 500,
          "midi": 62,
          "name": "D4",
          "ticks": 110500,
          "time": 58.1578075,
          "velocity": 1
        },
        {
          "duration": 0.2631575000000055,
          "durationTicks": 500,
          "midi": 50,
          "name": "D3",
          "ticks": 111000,
          "time": 58.420964999999995,
          "velocity": 1
        },
        {
          "duration": 0.2631574999999984,
          "durationTicks": 500,
          "midi": 62,
          "name": "D4",
          "ticks": 111500,
          "time": 58.6841225,
          "velocity": 1
        },
        {
          "duration": 0.2631574999999984,
          "durationTicks": 500,
          "midi": 51,
          "name": "D#3",
          "ticks": 112000,
          "time": 58.94728,
          "velocity": 1
        },
        {
          "duration": 0.2631574999999984,
          "durationTicks": 500,
          "midi": 63,
          "name": "D#4",
          "ticks": 112500,
          "time": 59.2104375,
          "velocity": 1
        },
        {
          "duration": 0.2631574999999984,
          "durationTicks": 500,
          "midi": 51,
          "name": "D#3",
          "ticks": 113000,
          "time": 59.473594999999996,
          "velocity": 1
        },
        {
          "duration": 0.2631575000000055,
          "durationTicks": 500,
          "midi": 63,
          "name": "D#4",
          "ticks": 113500,
          "time": 59.736752499999994,
          "velocity": 1
        },
        {
          "duration": 0.5263149999999968,
          "durationTicks": 1000,
          "midi": 60,
          "name": "C4",
          "ticks": 114000,
          "time": 59.99991,
          "velocity": 1
        },
        {
          "duration": 0.5263149999999968,
          "durationTicks": 1000,
          "midi": 57,
          "name": "A3",
          "ticks": 114000,
          "time": 59.99991,
          "velocity": 1
        },
        {
          "duration": 0.5263149999999968,
          "durationTicks": 1000,
          "midi": 53,
          "name": "F3",
          "ticks": 114000,
          "time": 59.99991,
          "velocity": 1
        },
        {
          "duration": 0.394736249999994,
          "durationTicks": 750,
          "midi": 55,
          "name": "G3",
          "ticks": 116000,
          "time": 61.05254,
          "velocity": 1
        },
        {
          "duration": 0.394736249999994,
          "durationTicks": 750,
          "midi": 43,
          "name": "G2",
          "ticks": 116000,
          "time": 61.05254,
          "velocity": 1
        },
        {
          "duration": 0.3947362500000011,
          "durationTicks": 750,
          "midi": 62,
          "name": "D4",
          "ticks": 116750,
          "time": 61.447276249999994,
          "velocity": 1
        },
        {
          "duration": 0.3947362500000011,
          "durationTicks": 750,
          "midi": 50,
          "name": "D3",
          "ticks": 116750,
          "time": 61.447276249999994,
          "velocity": 1
        },
        {
          "duration": 0.2631574999999984,
          "durationTicks": 500,
          "midi": 55,
          "name": "G3",
          "ticks": 117500,
          "time": 61.842012499999996,
          "velocity": 1
        },
        {
          "duration": 0.2631574999999984,
          "durationTicks": 500,
          "midi": 43,
          "name": "G2",
          "ticks": 117500,
          "time": 61.842012499999996,
          "velocity": 1
        },
        {
          "duration": 0.2631575000000055,
          "durationTicks": 500,
          "midi": 58,
          "name": "A#3",
          "ticks": 118000,
          "time": 62.105169999999994,
          "velocity": 1
        },
        {
          "duration": 0.2631575000000055,
          "durationTicks": 500,
          "midi": 46,
          "name": "A#2",
          "ticks": 118000,
          "time": 62.105169999999994,
          "velocity": 1
        },
        {
          "duration": 0.2631574999999984,
          "durationTicks": 500,
          "midi": 65,
          "name": "F4",
          "ticks": 118500,
          "time": 62.3683275,
          "velocity": 1
        },
        {
          "duration": 0.2631574999999984,
          "durationTicks": 500,
          "midi": 53,
          "name": "F3",
          "ticks": 118500,
          "time": 62.3683275,
          "velocity": 1
        },
        {
          "duration": 0.2631574999999984,
          "durationTicks": 500,
          "midi": 60,
          "name": "C4",
          "ticks": 119000,
          "time": 62.631485,
          "velocity": 1
        },
        {
          "duration": 0.2631574999999984,
          "durationTicks": 500,
          "midi": 48,
          "name": "C3",
          "ticks": 119000,
          "time": 62.631485,
          "velocity": 1
        },
        {
          "duration": 0.2631574999999984,
          "durationTicks": 500,
          "midi": 67,
          "name": "G4",
          "ticks": 119500,
          "time": 62.894642499999996,
          "velocity": 1
        },
        {
          "duration": 0.2631574999999984,
          "durationTicks": 500,
          "midi": 55,
          "name": "G3",
          "ticks": 119500,
          "time": 62.894642499999996,
          "velocity": 1
        },
        {
          "duration": 0.3947362500000011,
          "durationTicks": 750,
          "midi": 52,
          "name": "E3",
          "ticks": 120000,
          "time": 63.157799999999995,
          "velocity": 1
        },
        {
          "duration": 0.3947362500000011,
          "durationTicks": 750,
          "midi": 40,
          "name": "E2",
          "ticks": 120000,
          "time": 63.157799999999995,
          "velocity": 1
        },
        {
          "duration": 0.3947362500000011,
          "durationTicks": 750,
          "midi": 59,
          "name": "B3",
          "ticks": 120750,
          "time": 63.552536249999996,
          "velocity": 1
        },
        {
          "duration": 0.3947362500000011,
          "durationTicks": 750,
          "midi": 47,
          "name": "B2",
          "ticks": 120750,
          "time": 63.552536249999996,
          "velocity": 1
        },
        {
          "duration": 0.2631575000000055,
          "durationTicks": 500,
          "midi": 52,
          "name": "E3",
          "ticks": 121500,
          "time": 63.9472725,
          "velocity": 1
        },
        {
          "duration": 0.2631575000000055,
          "durationTicks": 500,
          "midi": 40,
          "name": "E2",
          "ticks": 121500,
          "time": 63.9472725,
          "velocity": 1
        },
        {
          "duration": 0.2631574999999913,
          "durationTicks": 500,
          "midi": 51,
          "name": "D#3",
          "ticks": 122000,
          "time": 64.21043,
          "velocity": 1
        },
        {
          "duration": 0.2631574999999913,
          "durationTicks": 500,
          "midi": 39,
          "name": "D#2",
          "ticks": 122000,
          "time": 64.21043,
          "velocity": 1
        },
        {
          "duration": 0.2631575000000055,
          "durationTicks": 500,
          "midi": 58,
          "name": "A#3",
          "ticks": 122500,
          "time": 64.4735875,
          "velocity": 1
        },
        {
          "duration": 0.2631575000000055,
          "durationTicks": 500,
          "midi": 46,
          "name": "A#2",
          "ticks": 122500,
          "time": 64.4735875,
          "velocity": 1
        },
        {
          "duration": 0.2631574999999913,
          "durationTicks": 500,
          "midi": 38,
          "name": "D2",
          "ticks": 123000,
          "time": 64.736745,
          "velocity": 1
        },
        {
          "duration": 0.2631574999999913,
          "durationTicks": 500,
          "midi": 50,
          "name": "D3",
          "ticks": 123000,
          "time": 64.736745,
          "velocity": 1
        },
        {
          "duration": 0.2631575000000055,
          "durationTicks": 500,
          "midi": 57,
          "name": "A3",
          "ticks": 123500,
          "time": 64.99990249999999,
          "velocity": 1
        },
        {
          "duration": 0.2631575000000055,
          "durationTicks": 500,
          "midi": 45,
          "name": "A2",
          "ticks": 123500,
          "time": 64.99990249999999,
          "velocity": 1
        },
        {
          "duration": 0.3947362500000082,
          "durationTicks": 750,
          "midi": 55,
          "name": "G3",
          "ticks": 124000,
          "time": 65.26306,
          "velocity": 1
        },
        {
          "duration": 0.3947362500000082,
          "durationTicks": 750,
          "midi": 43,
          "name": "G2",
          "ticks": 124000,
          "time": 65.26306,
          "velocity": 1
        },
        {
          "duration": 0.394736249999994,
          "durationTicks": 750,
          "midi": 62,
          "name": "D4",
          "ticks": 124750,
          "time": 65.65779625,
          "velocity": 1
        },
        {
          "duration": 0.394736249999994,
          "durationTicks": 750,
          "midi": 50,
          "name": "D3",
          "ticks": 124750,
          "time": 65.65779625,
          "velocity": 1
        },
        {
          "duration": 0.2631575000000055,
          "durationTicks": 500,
          "midi": 55,
          "name": "G3",
          "ticks": 125500,
          "time": 66.0525325,
          "velocity": 1
        },
        {
          "duration": 0.2631575000000055,
          "durationTicks": 500,
          "midi": 43,
          "name": "G2",
          "ticks": 125500,
          "time": 66.0525325,
          "velocity": 1
        },
        {
          "duration": 0.2631574999999913,
          "durationTicks": 500,
          "midi": 58,
          "name": "A#3",
          "ticks": 126000,
          "time": 66.31569,
          "velocity": 1
        },
        {
          "duration": 0.2631574999999913,
          "durationTicks": 500,
          "midi": 46,
          "name": "A#2",
          "ticks": 126000,
          "time": 66.31569,
          "velocity": 1
        },
        {
          "duration": 0.2631575000000055,
          "durationTicks": 500,
          "midi": 65,
          "name": "F4",
          "ticks": 126500,
          "time": 66.5788475,
          "velocity": 1
        },
        {
          "duration": 0.2631575000000055,
          "durationTicks": 500,
          "midi": 53,
          "name": "F3",
          "ticks": 126500,
          "time": 66.5788475,
          "velocity": 1
        },
        {
          "duration": 0.2631574999999913,
          "durationTicks": 500,
          "midi": 60,
          "name": "C4",
          "ticks": 127000,
          "time": 66.842005,
          "velocity": 1
        },
        {
          "duration": 0.2631574999999913,
          "durationTicks": 500,
          "midi": 48,
          "name": "C3",
          "ticks": 127000,
          "time": 66.842005,
          "velocity": 1
        },
        {
          "duration": 0.2631575000000055,
          "durationTicks": 500,
          "midi": 67,
          "name": "G4",
          "ticks": 127500,
          "time": 67.10516249999999,
          "velocity": 1
        },
        {
          "duration": 0.2631575000000055,
          "durationTicks": 500,
          "midi": 55,
          "name": "G3",
          "ticks": 127500,
          "time": 67.10516249999999,
          "velocity": 1
        },
        {
          "duration": 0.394736249999994,
          "durationTicks": 750,
          "midi": 52,
          "name": "E3",
          "ticks": 128000,
          "time": 67.36832,
          "velocity": 1
        },
        {
          "duration": 0.394736249999994,
          "durationTicks": 750,
          "midi": 40,
          "name": "E2",
          "ticks": 128000,
          "time": 67.36832,
          "velocity": 1
        },
        {
          "duration": 0.3947362500000082,
          "durationTicks": 750,
          "midi": 59,
          "name": "B3",
          "ticks": 128750,
          "time": 67.76305624999999,
          "velocity": 1
        },
        {
          "duration": 0.3947362500000082,
          "durationTicks": 750,
          "midi": 47,
          "name": "B2",
          "ticks": 128750,
          "time": 67.76305624999999,
          "velocity": 1
        },
        {
          "duration": 0.2631574999999913,
          "durationTicks": 500,
          "midi": 52,
          "name": "E3",
          "ticks": 129500,
          "time": 68.1577925,
          "velocity": 1
        },
        {
          "duration": 0.2631574999999913,
          "durationTicks": 500,
          "midi": 40,
          "name": "E2",
          "ticks": 129500,
          "time": 68.1577925,
          "velocity": 1
        },
        {
          "duration": 0.2631575000000055,
          "durationTicks": 500,
          "midi": 51,
          "name": "D#3",
          "ticks": 130000,
          "time": 68.42094999999999,
          "velocity": 1
        },
        {
          "duration": 0.2631575000000055,
          "durationTicks": 500,
          "midi": 39,
          "name": "D#2",
          "ticks": 130000,
          "time": 68.42094999999999,
          "velocity": 1
        },
        {
          "duration": 0.2631575000000055,
          "durationTicks": 500,
          "midi": 58,
          "name": "A#3",
          "ticks": 130500,
          "time": 68.6841075,
          "velocity": 1
        },
        {
          "duration": 0.2631575000000055,
          "durationTicks": 500,
          "midi": 46,
          "name": "A#2",
          "ticks": 130500,
          "time": 68.6841075,
          "velocity": 1
        },
        {
          "duration": 0.2631574999999913,
          "durationTicks": 500,
          "midi": 38,
          "name": "D2",
          "ticks": 131000,
          "time": 68.947265,
          "velocity": 1
        },
        {
          "duration": 0.2631574999999913,
          "durationTicks": 500,
          "midi": 50,
          "name": "D3",
          "ticks": 131000,
          "time": 68.947265,
          "velocity": 1
        },
        {
          "duration": 0.2631575000000055,
          "durationTicks": 500,
          "midi": 57,
          "name": "A3",
          "ticks": 131500,
          "time": 69.21042249999999,
          "velocity": 1
        },
        {
          "duration": 0.2631575000000055,
          "durationTicks": 500,
          "midi": 45,
          "name": "A2",
          "ticks": 131500,
          "time": 69.21042249999999,
          "velocity": 1
        },
        {
          "duration": 0.394736249999994,
          "durationTicks": 750,
          "midi": 55,
          "name": "G3",
          "ticks": 132000,
          "time": 69.47358,
          "velocity": 1
        },
        {
          "duration": 0.394736249999994,
          "durationTicks": 750,
          "midi": 43,
          "name": "G2",
          "ticks": 132000,
          "time": 69.47358,
          "velocity": 1
        },
        {
          "duration": 0.3947362500000082,
          "durationTicks": 750,
          "midi": 62,
          "name": "D4",
          "ticks": 132750,
          "time": 69.86831624999999,
          "velocity": 1
        },
        {
          "duration": 0.3947362500000082,
          "durationTicks": 750,
          "midi": 50,
          "name": "D3",
          "ticks": 132750,
          "time": 69.86831624999999,
          "velocity": 1
        },
        {
          "duration": 0.2631574999999913,
          "durationTicks": 500,
          "midi": 55,
          "name": "G3",
          "ticks": 133500,
          "time": 70.2630525,
          "velocity": 1
        },
        {
          "duration": 0.2631574999999913,
          "durationTicks": 500,
          "midi": 43,
          "name": "G2",
          "ticks": 133500,
          "time": 70.2630525,
          "velocity": 1
        },
        {
          "duration": 0.2631575000000055,
          "durationTicks": 500,
          "midi": 58,
          "name": "A#3",
          "ticks": 134000,
          "time": 70.52620999999999,
          "velocity": 1
        },
        {
          "duration": 0.2631575000000055,
          "durationTicks": 500,
          "midi": 46,
          "name": "A#2",
          "ticks": 134000,
          "time": 70.52620999999999,
          "velocity": 1
        },
        {
          "duration": 0.2631575000000055,
          "durationTicks": 500,
          "midi": 65,
          "name": "F4",
          "ticks": 134500,
          "time": 70.7893675,
          "velocity": 1
        },
        {
          "duration": 0.2631575000000055,
          "durationTicks": 500,
          "midi": 53,
          "name": "F3",
          "ticks": 134500,
          "time": 70.7893675,
          "velocity": 1
        },
        {
          "duration": 0.2631574999999913,
          "durationTicks": 500,
          "midi": 60,
          "name": "C4",
          "ticks": 135000,
          "time": 71.052525,
          "velocity": 1
        },
        {
          "duration": 0.2631574999999913,
          "durationTicks": 500,
          "midi": 48,
          "name": "C3",
          "ticks": 135000,
          "time": 71.052525,
          "velocity": 1
        },
        {
          "duration": 0.2631575000000055,
          "durationTicks": 500,
          "midi": 67,
          "name": "G4",
          "ticks": 135500,
          "time": 71.3156825,
          "velocity": 1
        },
        {
          "duration": 0.2631575000000055,
          "durationTicks": 500,
          "midi": 55,
          "name": "G3",
          "ticks": 135500,
          "time": 71.3156825,
          "velocity": 1
        },
        {
          "duration": 0.394736249999994,
          "durationTicks": 750,
          "midi": 52,
          "name": "E3",
          "ticks": 136000,
          "time": 71.57884,
          "velocity": 1
        },
        {
          "duration": 0.394736249999994,
          "durationTicks": 750,
          "midi": 40,
          "name": "E2",
          "ticks": 136000,
          "time": 71.57884,
          "velocity": 1
        },
        {
          "duration": 0.3947362500000082,
          "durationTicks": 750,
          "midi": 59,
          "name": "B3",
          "ticks": 136750,
          "time": 71.97357625,
          "velocity": 1
        },
        {
          "duration": 0.3947362500000082,
          "durationTicks": 750,
          "midi": 47,
          "name": "B2",
          "ticks": 136750,
          "time": 71.97357625,
          "velocity": 1
        },
        {
          "duration": 0.2631574999999913,
          "durationTicks": 500,
          "midi": 52,
          "name": "E3",
          "ticks": 137500,
          "time": 72.3683125,
          "velocity": 1
        },
        {
          "duration": 0.2631574999999913,
          "durationTicks": 500,
          "midi": 40,
          "name": "E2",
          "ticks": 137500,
          "time": 72.3683125,
          "velocity": 1
        },
        {
          "duration": 0.2631575000000055,
          "durationTicks": 500,
          "midi": 51,
          "name": "D#3",
          "ticks": 138000,
          "time": 72.63147,
          "velocity": 1
        },
        {
          "duration": 0.2631575000000055,
          "durationTicks": 500,
          "midi": 39,
          "name": "D#2",
          "ticks": 138000,
          "time": 72.63147,
          "velocity": 1
        },
        {
          "duration": 0.2631574999999913,
          "durationTicks": 500,
          "midi": 58,
          "name": "A#3",
          "ticks": 138500,
          "time": 72.8946275,
          "velocity": 1
        },
        {
          "duration": 0.2631574999999913,
          "durationTicks": 500,
          "midi": 46,
          "name": "A#2",
          "ticks": 138500,
          "time": 72.8946275,
          "velocity": 1
        },
        {
          "duration": 0.2631575000000055,
          "durationTicks": 500,
          "midi": 38,
          "name": "D2",
          "ticks": 139000,
          "time": 73.15778499999999,
          "velocity": 1
        },
        {
          "duration": 0.2631575000000055,
          "durationTicks": 500,
          "midi": 50,
          "name": "D3",
          "ticks": 139000,
          "time": 73.15778499999999,
          "velocity": 1
        },
        {
          "duration": 0.2631575000000055,
          "durationTicks": 500,
          "midi": 57,
          "name": "A3",
          "ticks": 139500,
          "time": 73.4209425,
          "velocity": 1
        },
        {
          "duration": 0.2631575000000055,
          "durationTicks": 500,
          "midi": 45,
          "name": "A2",
          "ticks": 139500,
          "time": 73.4209425,
          "velocity": 1
        },
        {
          "duration": 0.394736249999994,
          "durationTicks": 750,
          "midi": 55,
          "name": "G3",
          "ticks": 140000,
          "time": 73.6841,
          "velocity": 1
        },
        {
          "duration": 0.394736249999994,
          "durationTicks": 750,
          "midi": 43,
          "name": "G2",
          "ticks": 140000,
          "time": 73.6841,
          "velocity": 1
        },
        {
          "duration": 0.3947362500000082,
          "durationTicks": 750,
          "midi": 62,
          "name": "D4",
          "ticks": 140750,
          "time": 74.07883625,
          "velocity": 1
        },
        {
          "duration": 0.3947362500000082,
          "durationTicks": 750,
          "midi": 50,
          "name": "D3",
          "ticks": 140750,
          "time": 74.07883625,
          "velocity": 1
        },
        {
          "duration": 0.2631574999999913,
          "durationTicks": 500,
          "midi": 55,
          "name": "G3",
          "ticks": 141500,
          "time": 74.4735725,
          "velocity": 1
        },
        {
          "duration": 0.2631574999999913,
          "durationTicks": 500,
          "midi": 43,
          "name": "G2",
          "ticks": 141500,
          "time": 74.4735725,
          "velocity": 1
        },
        {
          "duration": 0.2631575000000055,
          "durationTicks": 500,
          "midi": 58,
          "name": "A#3",
          "ticks": 142000,
          "time": 74.73673,
          "velocity": 1
        },
        {
          "duration": 0.2631575000000055,
          "durationTicks": 500,
          "midi": 46,
          "name": "A#2",
          "ticks": 142000,
          "time": 74.73673,
          "velocity": 1
        },
        {
          "duration": 0.2631574999999913,
          "durationTicks": 500,
          "midi": 65,
          "name": "F4",
          "ticks": 142500,
          "time": 74.9998875,
          "velocity": 1
        },
        {
          "duration": 0.2631574999999913,
          "durationTicks": 500,
          "midi": 53,
          "name": "F3",
          "ticks": 142500,
          "time": 74.9998875,
          "velocity": 1
        },
        {
          "duration": 0.2631575000000055,
          "durationTicks": 500,
          "midi": 60,
          "name": "C4",
          "ticks": 143000,
          "time": 75.26304499999999,
          "velocity": 1
        },
        {
          "duration": 0.2631575000000055,
          "durationTicks": 500,
          "midi": 48,
          "name": "C3",
          "ticks": 143000,
          "time": 75.26304499999999,
          "velocity": 1
        },
        {
          "duration": 0.2631575000000055,
          "durationTicks": 500,
          "midi": 67,
          "name": "G4",
          "ticks": 143500,
          "time": 75.5262025,
          "velocity": 1
        },
        {
          "duration": 0.2631575000000055,
          "durationTicks": 500,
          "midi": 55,
          "name": "G3",
          "ticks": 143500,
          "time": 75.5262025,
          "velocity": 1
        },
        {
          "duration": 0.394736249999994,
          "durationTicks": 750,
          "midi": 52,
          "name": "E3",
          "ticks": 144000,
          "time": 75.78936,
          "velocity": 1
        },
        {
          "duration": 0.394736249999994,
          "durationTicks": 750,
          "midi": 40,
          "name": "E2",
          "ticks": 144000,
          "time": 75.78936,
          "velocity": 1
        },
        {
          "duration": 0.394736249999994,
          "durationTicks": 750,
          "midi": 59,
          "name": "B3",
          "ticks": 144750,
          "time": 76.18409625,
          "velocity": 1
        },
        {
          "duration": 0.394736249999994,
          "durationTicks": 750,
          "midi": 47,
          "name": "B2",
          "ticks": 144750,
          "time": 76.18409625,
          "velocity": 1
        },
        {
          "duration": 0.2631575000000055,
          "durationTicks": 500,
          "midi": 52,
          "name": "E3",
          "ticks": 145500,
          "time": 76.57883249999999,
          "velocity": 1
        },
        {
          "duration": 0.2631575000000055,
          "durationTicks": 500,
          "midi": 40,
          "name": "E2",
          "ticks": 145500,
          "time": 76.57883249999999,
          "velocity": 1
        },
        {
          "duration": 0.2631575000000055,
          "durationTicks": 500,
          "midi": 51,
          "name": "D#3",
          "ticks": 146000,
          "time": 76.84199,
          "velocity": 1
        },
        {
          "duration": 0.2631575000000055,
          "durationTicks": 500,
          "midi": 39,
          "name": "D#2",
          "ticks": 146000,
          "time": 76.84199,
          "velocity": 1
        },
        {
          "duration": 0.2631574999999913,
          "durationTicks": 500,
          "midi": 58,
          "name": "A#3",
          "ticks": 146500,
          "time": 77.1051475,
          "velocity": 1
        },
        {
          "duration": 0.2631574999999913,
          "durationTicks": 500,
          "midi": 46,
          "name": "A#2",
          "ticks": 146500,
          "time": 77.1051475,
          "velocity": 1
        },
        {
          "duration": 0.2631575000000055,
          "durationTicks": 500,
          "midi": 38,
          "name": "D2",
          "ticks": 147000,
          "time": 77.36830499999999,
          "velocity": 1
        },
        {
          "duration": 0.2631575000000055,
          "durationTicks": 500,
          "midi": 50,
          "name": "D3",
          "ticks": 147000,
          "time": 77.36830499999999,
          "velocity": 1
        },
        {
          "duration": 0.2631575000000055,
          "durationTicks": 500,
          "midi": 57,
          "name": "A3",
          "ticks": 147500,
          "time": 77.6314625,
          "velocity": 1
        },
        {
          "duration": 0.2631575000000055,
          "durationTicks": 500,
          "midi": 45,
          "name": "A2",
          "ticks": 147500,
          "time": 77.6314625,
          "velocity": 1
        },
        {
          "duration": 0.394736249999994,
          "durationTicks": 750,
          "midi": 51,
          "name": "D#3",
          "ticks": 148000,
          "time": 77.89462,
          "velocity": 1
        },
        {
          "duration": 0.394736249999994,
          "durationTicks": 750,
          "midi": 39,
          "name": "D#2",
          "ticks": 148000,
          "time": 77.89462,
          "velocity": 1
        },
        {
          "duration": 0.394736249999994,
          "durationTicks": 750,
          "midi": 58,
          "name": "A#3",
          "ticks": 148750,
          "time": 78.28935625,
          "velocity": 1
        },
        {
          "duration": 0.394736249999994,
          "durationTicks": 750,
          "midi": 46,
          "name": "A#2",
          "ticks": 148750,
          "time": 78.28935625,
          "velocity": 1
        },
        {
          "duration": 0.2631575000000055,
          "durationTicks": 500,
          "midi": 51,
          "name": "D#3",
          "ticks": 149500,
          "time": 78.68409249999999,
          "velocity": 1
        },
        {
          "duration": 0.2631575000000055,
          "durationTicks": 500,
          "midi": 39,
          "name": "D#2",
          "ticks": 149500,
          "time": 78.68409249999999,
          "velocity": 1
        },
        {
          "duration": 0.394736249999994,
          "durationTicks": 750,
          "midi": 50,
          "name": "D3",
          "ticks": 150000,
          "time": 78.94725,
          "velocity": 1
        },
        {
          "duration": 0.394736249999994,
          "durationTicks": 750,
          "midi": 38,
          "name": "D2",
          "ticks": 150000,
          "time": 78.94725,
          "velocity": 1
        },
        {
          "duration": 0.3947362500000082,
          "durationTicks": 750,
          "midi": 57,
          "name": "A3",
          "ticks": 150750,
          "time": 79.34198624999999,
          "velocity": 1
        },
        {
          "duration": 0.3947362500000082,
          "durationTicks": 750,
          "midi": 45,
          "name": "A2",
          "ticks": 150750,
          "time": 79.34198624999999,
          "velocity": 1
        },
        {
          "duration": 0.2631574999999913,
          "durationTicks": 500,
          "midi": 50,
          "name": "D3",
          "ticks": 151500,
          "time": 79.7367225,
          "velocity": 1
        },
        {
          "duration": 0.2631574999999913,
          "durationTicks": 500,
          "midi": 38,
          "name": "D2",
          "ticks": 151500,
          "time": 79.7367225,
          "velocity": 1
        },
        {
          "duration": 0.3947362500000082,
          "durationTicks": 750,
          "midi": 55,
          "name": "G3",
          "ticks": 152000,
          "time": 79.99987999999999,
          "velocity": 1
        },
        {
          "duration": 0.3947362500000082,
          "durationTicks": 750,
          "midi": 43,
          "name": "G2",
          "ticks": 152000,
          "time": 79.99987999999999,
          "velocity": 1
        },
        {
          "duration": 0.394736249999994,
          "durationTicks": 750,
          "midi": 62,
          "name": "D4",
          "ticks": 152750,
          "time": 80.39461625,
          "velocity": 1
        },
        {
          "duration": 0.394736249999994,
          "durationTicks": 750,
          "midi": 50,
          "name": "D3",
          "ticks": 152750,
          "time": 80.39461625,
          "velocity": 1
        },
        {
          "duration": 0.2631575000000055,
          "durationTicks": 500,
          "midi": 55,
          "name": "G3",
          "ticks": 153500,
          "time": 80.78935249999999,
          "velocity": 1
        },
        {
          "duration": 0.2631575000000055,
          "durationTicks": 500,
          "midi": 43,
          "name": "G2",
          "ticks": 153500,
          "time": 80.78935249999999,
          "velocity": 1
        },
        {
          "duration": 0.394736249999994,
          "durationTicks": 750,
          "midi": 53,
          "name": "F3",
          "ticks": 154000,
          "time": 81.05251,
          "velocity": 1
        },
        {
          "duration": 0.394736249999994,
          "durationTicks": 750,
          "midi": 41,
          "name": "F2",
          "ticks": 154000,
          "time": 81.05251,
          "velocity": 1
        },
        {
          "duration": 0.3947362500000082,
          "durationTicks": 750,
          "midi": 60,
          "name": "C4",
          "ticks": 154750,
          "time": 81.44724624999999,
          "velocity": 1
        },
        {
          "duration": 0.3947362500000082,
          "durationTicks": 750,
          "midi": 48,
          "name": "C3",
          "ticks": 154750,
          "time": 81.44724624999999,
          "velocity": 1
        },
        {
          "duration": 0.2631574999999913,
          "durationTicks": 500,
          "midi": 53,
          "name": "F3",
          "ticks": 155500,
          "time": 81.8419825,
          "velocity": 1
        },
        {
          "duration": 0.2631574999999913,
          "durationTicks": 500,
          "midi": 41,
          "name": "F2",
          "ticks": 155500,
          "time": 81.8419825,
          "velocity": 1
        },
        {
          "duration": 0.3947362500000082,
          "durationTicks": 750,
          "midi": 58,
          "name": "A#3",
          "ticks": 156000,
          "time": 82.10513999999999,
          "velocity": 1
        },
        {
          "duration": 0.3947362500000082,
          "durationTicks": 750,
          "midi": 46,
          "name": "A#2",
          "ticks": 156000,
          "time": 82.10513999999999,
          "velocity": 1
        },
        {
          "duration": 0.394736249999994,
          "durationTicks": 750,
          "midi": 65,
          "name": "F4",
          "ticks": 156750,
          "time": 82.49987625,
          "velocity": 1
        },
        {
          "duration": 0.394736249999994,
          "durationTicks": 750,
          "midi": 53,
          "name": "F3",
          "ticks": 156750,
          "time": 82.49987625,
          "velocity": 1
        },
        {
          "duration": 0.2631575000000055,
          "durationTicks": 500,
          "midi": 58,
          "name": "A#3",
          "ticks": 157500,
          "time": 82.8946125,
          "velocity": 1
        },
        {
          "duration": 0.2631575000000055,
          "durationTicks": 500,
          "midi": 46,
          "name": "A#2",
          "ticks": 157500,
          "time": 82.8946125,
          "velocity": 1
        },
        {
          "duration": 0.394736249999994,
          "durationTicks": 750,
          "midi": 57,
          "name": "A3",
          "ticks": 158000,
          "time": 83.15777,
          "velocity": 1
        },
        {
          "duration": 0.394736249999994,
          "durationTicks": 750,
          "midi": 45,
          "name": "A2",
          "ticks": 158000,
          "time": 83.15777,
          "velocity": 1
        },
        {
          "duration": 0.3947362500000082,
          "durationTicks": 750,
          "midi": 64,
          "name": "E4",
          "ticks": 158750,
          "time": 83.55250625,
          "velocity": 1
        },
        {
          "duration": 0.3947362500000082,
          "durationTicks": 750,
          "midi": 52,
          "name": "E3",
          "ticks": 158750,
          "time": 83.55250625,
          "velocity": 1
        },
        {
          "duration": 0.2631574999999913,
          "durationTicks": 500,
          "midi": 57,
          "name": "A3",
          "ticks": 159500,
          "time": 83.9472425,
          "velocity": 1
        },
        {
          "duration": 0.2631574999999913,
          "durationTicks": 500,
          "midi": 45,
          "name": "A2",
          "ticks": 159500,
          "time": 83.9472425,
          "velocity": 1
        },
        {
          "duration": 0.3947362500000082,
          "durationTicks": 750,
          "midi": 50,
          "name": "D3",
          "ticks": 160000,
          "time": 84.21039999999999,
          "velocity": 1
        },
        {
          "duration": 0.3947362500000082,
          "durationTicks": 750,
          "midi": 38,
          "name": "D2",
          "ticks": 160000,
          "time": 84.21039999999999,
          "velocity": 1
        },
        {
          "duration": 0.394736249999994,
          "durationTicks": 750,
          "midi": 57,
          "name": "A3",
          "ticks": 160750,
          "time": 84.60513625,
          "velocity": 1
        },
        {
          "duration": 0.394736249999994,
          "durationTicks": 750,
          "midi": 45,
          "name": "A2",
          "ticks": 160750,
          "time": 84.60513625,
          "velocity": 1
        },
        {
          "duration": 0.2631575000000055,
          "durationTicks": 500,
          "midi": 50,
          "name": "D3",
          "ticks": 161500,
          "time": 84.9998725,
          "velocity": 1
        },
        {
          "duration": 0.2631575000000055,
          "durationTicks": 500,
          "midi": 38,
          "name": "D2",
          "ticks": 161500,
          "time": 84.9998725,
          "velocity": 1
        },
        {
          "duration": 0.394736249999994,
          "durationTicks": 750,
          "midi": 51,
          "name": "D#3",
          "ticks": 162000,
          "time": 85.26303,
          "velocity": 1
        },
        {
          "duration": 0.394736249999994,
          "durationTicks": 750,
          "midi": 39,
          "name": "D#2",
          "ticks": 162000,
          "time": 85.26303,
          "velocity": 1
        },
        {
          "duration": 0.3947362500000082,
          "durationTicks": 750,
          "midi": 58,
          "name": "A#3",
          "ticks": 162750,
          "time": 85.65776625,
          "velocity": 1
        },
        {
          "duration": 0.3947362500000082,
          "durationTicks": 750,
          "midi": 46,
          "name": "A#2",
          "ticks": 162750,
          "time": 85.65776625,
          "velocity": 1
        },
        {
          "duration": 0.2631574999999913,
          "durationTicks": 500,
          "midi": 51,
          "name": "D#3",
          "ticks": 163500,
          "time": 86.0525025,
          "velocity": 1
        },
        {
          "duration": 0.2631574999999913,
          "durationTicks": 500,
          "midi": 39,
          "name": "D#2",
          "ticks": 163500,
          "time": 86.0525025,
          "velocity": 1
        },
        {
          "duration": 0.3947362500000082,
          "durationTicks": 750,
          "midi": 55,
          "name": "G3",
          "ticks": 164000,
          "time": 86.31566,
          "velocity": 1
        },
        {
          "duration": 0.3947362500000082,
          "durationTicks": 750,
          "midi": 43,
          "name": "G2",
          "ticks": 164000,
          "time": 86.31566,
          "velocity": 1
        },
        {
          "duration": 0.394736249999994,
          "durationTicks": 750,
          "midi": 62,
          "name": "D4",
          "ticks": 164750,
          "time": 86.71039625,
          "velocity": 1
        },
        {
          "duration": 0.394736249999994,
          "durationTicks": 750,
          "midi": 50,
          "name": "D3",
          "ticks": 164750,
          "time": 86.71039625,
          "velocity": 1
        },
        {
          "duration": 0.2631575000000055,
          "durationTicks": 500,
          "midi": 55,
          "name": "G3",
          "ticks": 165500,
          "time": 87.1051325,
          "velocity": 1
        },
        {
          "duration": 0.2631575000000055,
          "durationTicks": 500,
          "midi": 43,
          "name": "G2",
          "ticks": 165500,
          "time": 87.1051325,
          "velocity": 1
        },
        {
          "duration": 0.2631574999999913,
          "durationTicks": 500,
          "midi": 58,
          "name": "A#3",
          "ticks": 166000,
          "time": 87.36829,
          "velocity": 1
        },
        {
          "duration": 0.2631574999999913,
          "durationTicks": 500,
          "midi": 46,
          "name": "A#2",
          "ticks": 166000,
          "time": 87.36829,
          "velocity": 1
        },
        {
          "duration": 0.2631575000000055,
          "durationTicks": 500,
          "midi": 65,
          "name": "F4",
          "ticks": 166500,
          "time": 87.6314475,
          "velocity": 1
        },
        {
          "duration": 0.2631575000000055,
          "durationTicks": 500,
          "midi": 53,
          "name": "F3",
          "ticks": 166500,
          "time": 87.6314475,
          "velocity": 1
        },
        {
          "duration": 0.2631574999999913,
          "durationTicks": 500,
          "midi": 60,
          "name": "C4",
          "ticks": 167000,
          "time": 87.894605,
          "velocity": 1
        },
        {
          "duration": 0.2631574999999913,
          "durationTicks": 500,
          "midi": 48,
          "name": "C3",
          "ticks": 167000,
          "time": 87.894605,
          "velocity": 1
        },
        {
          "duration": 0.2631575000000055,
          "durationTicks": 500,
          "midi": 67,
          "name": "G4",
          "ticks": 167500,
          "time": 88.15776249999999,
          "velocity": 1
        },
        {
          "duration": 0.2631575000000055,
          "durationTicks": 500,
          "midi": 55,
          "name": "G3",
          "ticks": 167500,
          "time": 88.15776249999999,
          "velocity": 1
        },
        {
          "duration": 0.394736249999994,
          "durationTicks": 750,
          "midi": 52,
          "name": "E3",
          "ticks": 168000,
          "time": 88.42092,
          "velocity": 1
        },
        {
          "duration": 0.394736249999994,
          "durationTicks": 750,
          "midi": 40,
          "name": "E2",
          "ticks": 168000,
          "time": 88.42092,
          "velocity": 1
        },
        {
          "duration": 0.3947362500000082,
          "durationTicks": 750,
          "midi": 59,
          "name": "B3",
          "ticks": 168750,
          "time": 88.81565624999999,
          "velocity": 1
        },
        {
          "duration": 0.3947362500000082,
          "durationTicks": 750,
          "midi": 47,
          "name": "B2",
          "ticks": 168750,
          "time": 88.81565624999999,
          "velocity": 1
        },
        {
          "duration": 0.2631575000000055,
          "durationTicks": 500,
          "midi": 52,
          "name": "E3",
          "ticks": 169500,
          "time": 89.2103925,
          "velocity": 1
        },
        {
          "duration": 0.2631575000000055,
          "durationTicks": 500,
          "midi": 40,
          "name": "E2",
          "ticks": 169500,
          "time": 89.2103925,
          "velocity": 1
        },
        {
          "duration": 0.2631574999999913,
          "durationTicks": 500,
          "midi": 51,
          "name": "D#3",
          "ticks": 170000,
          "time": 89.47355,
          "velocity": 1
        },
        {
          "duration": 0.2631574999999913,
          "durationTicks": 500,
          "midi": 39,
          "name": "D#2",
          "ticks": 170000,
          "time": 89.47355,
          "velocity": 1
        },
        {
          "duration": 0.2631575000000055,
          "durationTicks": 500,
          "midi": 58,
          "name": "A#3",
          "ticks": 170500,
          "time": 89.7367075,
          "velocity": 1
        },
        {
          "duration": 0.2631575000000055,
          "durationTicks": 500,
          "midi": 46,
          "name": "A#2",
          "ticks": 170500,
          "time": 89.7367075,
          "velocity": 1
        },
        {
          "duration": 0.2631574999999913,
          "durationTicks": 500,
          "midi": 38,
          "name": "D2",
          "ticks": 171000,
          "time": 89.999865,
          "velocity": 1
        },
        {
          "duration": 0.2631574999999913,
          "durationTicks": 500,
          "midi": 50,
          "name": "D3",
          "ticks": 171000,
          "time": 89.999865,
          "velocity": 1
        },
        {
          "duration": 0.2631575000000055,
          "durationTicks": 500,
          "midi": 57,
          "name": "A3",
          "ticks": 171500,
          "time": 90.26302249999999,
          "velocity": 1
        },
        {
          "duration": 0.2631575000000055,
          "durationTicks": 500,
          "midi": 45,
          "name": "A2",
          "ticks": 171500,
          "time": 90.26302249999999,
          "velocity": 1
        },
        {
          "duration": 0.394736249999994,
          "durationTicks": 750,
          "midi": 55,
          "name": "G3",
          "ticks": 172000,
          "time": 90.52618,
          "velocity": 1
        },
        {
          "duration": 0.394736249999994,
          "durationTicks": 750,
          "midi": 43,
          "name": "G2",
          "ticks": 172000,
          "time": 90.52618,
          "velocity": 1
        },
        {
          "duration": 0.3947362500000082,
          "durationTicks": 750,
          "midi": 62,
          "name": "D4",
          "ticks": 172750,
          "time": 90.92091624999999,
          "velocity": 1
        },
        {
          "duration": 0.3947362500000082,
          "durationTicks": 750,
          "midi": 50,
          "name": "D3",
          "ticks": 172750,
          "time": 90.92091624999999,
          "velocity": 1
        },
        {
          "duration": 0.2631574999999913,
          "durationTicks": 500,
          "midi": 55,
          "name": "G3",
          "ticks": 173500,
          "time": 91.3156525,
          "velocity": 1
        },
        {
          "duration": 0.2631574999999913,
          "durationTicks": 500,
          "midi": 43,
          "name": "G2",
          "ticks": 173500,
          "time": 91.3156525,
          "velocity": 1
        },
        {
          "duration": 0.2631575000000055,
          "durationTicks": 500,
          "midi": 58,
          "name": "A#3",
          "ticks": 174000,
          "time": 91.57880999999999,
          "velocity": 1
        },
        {
          "duration": 0.2631575000000055,
          "durationTicks": 500,
          "midi": 46,
          "name": "A#2",
          "ticks": 174000,
          "time": 91.57880999999999,
          "velocity": 1
        },
        {
          "duration": 0.2631575000000055,
          "durationTicks": 500,
          "midi": 65,
          "name": "F4",
          "ticks": 174500,
          "time": 91.8419675,
          "velocity": 1
        },
        {
          "duration": 0.2631575000000055,
          "durationTicks": 500,
          "midi": 53,
          "name": "F3",
          "ticks": 174500,
          "time": 91.8419675,
          "velocity": 1
        },
        {
          "duration": 0.2631574999999913,
          "durationTicks": 500,
          "midi": 60,
          "name": "C4",
          "ticks": 175000,
          "time": 92.105125,
          "velocity": 1
        },
        {
          "duration": 0.2631574999999913,
          "durationTicks": 500,
          "midi": 48,
          "name": "C3",
          "ticks": 175000,
          "time": 92.105125,
          "velocity": 1
        },
        {
          "duration": 0.2631575000000055,
          "durationTicks": 500,
          "midi": 67,
          "name": "G4",
          "ticks": 175500,
          "time": 92.36828249999999,
          "velocity": 1
        },
        {
          "duration": 0.2631575000000055,
          "durationTicks": 500,
          "midi": 55,
          "name": "G3",
          "ticks": 175500,
          "time": 92.36828249999999,
          "velocity": 1
        },
        {
          "duration": 0.394736249999994,
          "durationTicks": 750,
          "midi": 52,
          "name": "E3",
          "ticks": 176000,
          "time": 92.63144,
          "velocity": 1
        },
        {
          "duration": 0.394736249999994,
          "durationTicks": 750,
          "midi": 40,
          "name": "E2",
          "ticks": 176000,
          "time": 92.63144,
          "velocity": 1
        },
        {
          "duration": 0.3947362500000082,
          "durationTicks": 750,
          "midi": 59,
          "name": "B3",
          "ticks": 176750,
          "time": 93.02617624999999,
          "velocity": 1
        },
        {
          "duration": 0.3947362500000082,
          "durationTicks": 750,
          "midi": 47,
          "name": "B2",
          "ticks": 176750,
          "time": 93.02617624999999,
          "velocity": 1
        },
        {
          "duration": 0.2631574999999913,
          "durationTicks": 500,
          "midi": 52,
          "name": "E3",
          "ticks": 177500,
          "time": 93.4209125,
          "velocity": 1
        },
        {
          "duration": 0.2631574999999913,
          "durationTicks": 500,
          "midi": 40,
          "name": "E2",
          "ticks": 177500,
          "time": 93.4209125,
          "velocity": 1
        },
        {
          "duration": 0.2631575000000055,
          "durationTicks": 500,
          "midi": 51,
          "name": "D#3",
          "ticks": 178000,
          "time": 93.68406999999999,
          "velocity": 1
        },
        {
          "duration": 0.2631575000000055,
          "durationTicks": 500,
          "midi": 39,
          "name": "D#2",
          "ticks": 178000,
          "time": 93.68406999999999,
          "velocity": 1
        },
        {
          "duration": 0.2631575000000055,
          "durationTicks": 500,
          "midi": 58,
          "name": "A#3",
          "ticks": 178500,
          "time": 93.9472275,
          "velocity": 1
        },
        {
          "duration": 0.2631575000000055,
          "durationTicks": 500,
          "midi": 46,
          "name": "A#2",
          "ticks": 178500,
          "time": 93.9472275,
          "velocity": 1
        },
        {
          "duration": 0.2631574999999913,
          "durationTicks": 500,
          "midi": 38,
          "name": "D2",
          "ticks": 179000,
          "time": 94.210385,
          "velocity": 1
        },
        {
          "duration": 0.2631574999999913,
          "durationTicks": 500,
          "midi": 50,
          "name": "D3",
          "ticks": 179000,
          "time": 94.210385,
          "velocity": 1
        },
        {
          "duration": 0.2631575000000055,
          "durationTicks": 500,
          "midi": 57,
          "name": "A3",
          "ticks": 179500,
          "time": 94.4735425,
          "velocity": 1
        },
        {
          "duration": 0.2631575000000055,
          "durationTicks": 500,
          "midi": 45,
          "name": "A2",
          "ticks": 179500,
          "time": 94.4735425,
          "velocity": 1
        },
        {
          "duration": 0.394736249999994,
          "durationTicks": 750,
          "midi": 51,
          "name": "D#3",
          "ticks": 180000,
          "time": 94.7367,
          "velocity": 1
        },
        {
          "duration": 0.394736249999994,
          "durationTicks": 750,
          "midi": 39,
          "name": "D#2",
          "ticks": 180000,
          "time": 94.7367,
          "velocity": 1
        },
        {
          "duration": 0.3947362500000082,
          "durationTicks": 750,
          "midi": 58,
          "name": "A#3",
          "ticks": 180750,
          "time": 95.13143625,
          "velocity": 1
        },
        {
          "duration": 0.3947362500000082,
          "durationTicks": 750,
          "midi": 46,
          "name": "A#2",
          "ticks": 180750,
          "time": 95.13143625,
          "velocity": 1
        },
        {
          "duration": 0.2631574999999913,
          "durationTicks": 500,
          "midi": 51,
          "name": "D#3",
          "ticks": 181500,
          "time": 95.5261725,
          "velocity": 1
        },
        {
          "duration": 0.2631574999999913,
          "durationTicks": 500,
          "midi": 39,
          "name": "D#2",
          "ticks": 181500,
          "time": 95.5261725,
          "velocity": 1
        },
        {
          "duration": 0.3947362500000082,
          "durationTicks": 750,
          "midi": 50,
          "name": "D3",
          "ticks": 182000,
          "time": 95.78932999999999,
          "velocity": 1
        },
        {
          "duration": 0.3947362500000082,
          "durationTicks": 750,
          "midi": 38,
          "name": "D2",
          "ticks": 182000,
          "time": 95.78932999999999,
          "velocity": 1
        },
        {
          "duration": 0.394736249999994,
          "durationTicks": 750,
          "midi": 57,
          "name": "A3",
          "ticks": 182750,
          "time": 96.18406625,
          "velocity": 1
        },
        {
          "duration": 0.394736249999994,
          "durationTicks": 750,
          "midi": 45,
          "name": "A2",
          "ticks": 182750,
          "time": 96.18406625,
          "velocity": 1
        },
        {
          "duration": 0.2631575000000055,
          "durationTicks": 500,
          "midi": 50,
          "name": "D3",
          "ticks": 183500,
          "time": 96.5788025,
          "velocity": 1
        },
        {
          "duration": 0.2631575000000055,
          "durationTicks": 500,
          "midi": 38,
          "name": "D2",
          "ticks": 183500,
          "time": 96.5788025,
          "velocity": 1
        },
        {
          "duration": 0.394736249999994,
          "durationTicks": 750,
          "midi": 55,
          "name": "G3",
          "ticks": 184000,
          "time": 96.84196,
          "velocity": 1
        },
        {
          "duration": 0.394736249999994,
          "durationTicks": 750,
          "midi": 43,
          "name": "G2",
          "ticks": 184000,
          "time": 96.84196,
          "velocity": 1
        },
        {
          "duration": 0.3947362500000082,
          "durationTicks": 750,
          "midi": 62,
          "name": "D4",
          "ticks": 184750,
          "time": 97.23669625,
          "velocity": 1
        },
        {
          "duration": 0.3947362500000082,
          "durationTicks": 750,
          "midi": 50,
          "name": "D3",
          "ticks": 184750,
          "time": 97.23669625,
          "velocity": 1
        },
        {
          "duration": 0.2631574999999913,
          "durationTicks": 500,
          "midi": 55,
          "name": "G3",
          "ticks": 185500,
          "time": 97.6314325,
          "velocity": 1
        },
        {
          "duration": 0.2631574999999913,
          "durationTicks": 500,
          "midi": 43,
          "name": "G2",
          "ticks": 185500,
          "time": 97.6314325,
          "velocity": 1
        },
        {
          "duration": 0.3947362500000082,
          "durationTicks": 750,
          "midi": 53,
          "name": "F3",
          "ticks": 186000,
          "time": 97.89459,
          "velocity": 1
        },
        {
          "duration": 0.3947362500000082,
          "durationTicks": 750,
          "midi": 41,
          "name": "F2",
          "ticks": 186000,
          "time": 97.89459,
          "velocity": 1
        },
        {
          "duration": 0.394736249999994,
          "durationTicks": 750,
          "midi": 60,
          "name": "C4",
          "ticks": 186750,
          "time": 98.28932625,
          "velocity": 1
        },
        {
          "duration": 0.394736249999994,
          "durationTicks": 750,
          "midi": 48,
          "name": "C3",
          "ticks": 186750,
          "time": 98.28932625,
          "velocity": 1
        },
        {
          "duration": 0.2631575000000055,
          "durationTicks": 500,
          "midi": 53,
          "name": "F3",
          "ticks": 187500,
          "time": 98.6840625,
          "velocity": 1
        },
        {
          "duration": 0.2631575000000055,
          "durationTicks": 500,
          "midi": 41,
          "name": "F2",
          "ticks": 187500,
          "time": 98.6840625,
          "velocity": 1
        },
        {
          "duration": 0.394736249999994,
          "durationTicks": 750,
          "midi": 58,
          "name": "A#3",
          "ticks": 188000,
          "time": 98.94722,
          "velocity": 1
        },
        {
          "duration": 0.394736249999994,
          "durationTicks": 750,
          "midi": 46,
          "name": "A#2",
          "ticks": 188000,
          "time": 98.94722,
          "velocity": 1
        },
        {
          "duration": 0.394736249999994,
          "durationTicks": 750,
          "midi": 65,
          "name": "F4",
          "ticks": 188750,
          "time": 99.34195625,
          "velocity": 1
        },
        {
          "duration": 0.394736249999994,
          "durationTicks": 750,
          "midi": 53,
          "name": "F3",
          "ticks": 188750,
          "time": 99.34195625,
          "velocity": 1
        },
        {
          "duration": 0.2631575000000055,
          "durationTicks": 500,
          "midi": 58,
          "name": "A#3",
          "ticks": 189500,
          "time": 99.73669249999999,
          "velocity": 1
        },
        {
          "duration": 0.2631575000000055,
          "durationTicks": 500,
          "midi": 46,
          "name": "A#2",
          "ticks": 189500,
          "time": 99.73669249999999,
          "velocity": 1
        },
        {
          "duration": 0.394736249999994,
          "durationTicks": 750,
          "midi": 57,
          "name": "A3",
          "ticks": 190000,
          "time": 99.99985,
          "velocity": 1
        },
        {
          "duration": 0.394736249999994,
          "durationTicks": 750,
          "midi": 45,
          "name": "A2",
          "ticks": 190000,
          "time": 99.99985,
          "velocity": 1
        },
        {
          "duration": 0.3947362500000082,
          "durationTicks": 750,
          "midi": 64,
          "name": "E4",
          "ticks": 190750,
          "time": 100.39458624999999,
          "velocity": 1
        },
        {
          "duration": 0.3947362500000082,
          "durationTicks": 750,
          "midi": 52,
          "name": "E3",
          "ticks": 190750,
          "time": 100.39458624999999,
          "velocity": 1
        },
        {
          "duration": 0.2631575000000055,
          "durationTicks": 500,
          "midi": 57,
          "name": "A3",
          "ticks": 191500,
          "time": 100.7893225,
          "velocity": 1
        },
        {
          "duration": 0.2631575000000055,
          "durationTicks": 500,
          "midi": 45,
          "name": "A2",
          "ticks": 191500,
          "time": 100.7893225,
          "velocity": 1
        },
        {
          "duration": 0.394736249999994,
          "durationTicks": 750,
          "midi": 50,
          "name": "D3",
          "ticks": 192000,
          "time": 101.05248,
          "velocity": 1
        },
        {
          "duration": 0.394736249999994,
          "durationTicks": 750,
          "midi": 38,
          "name": "D2",
          "ticks": 192000,
          "time": 101.05248,
          "velocity": 1
        },
        {
          "duration": 0.394736249999994,
          "durationTicks": 750,
          "midi": 57,
          "name": "A3",
          "ticks": 192750,
          "time": 101.44721625,
          "velocity": 1
        },
        {
          "duration": 0.394736249999994,
          "durationTicks": 750,
          "midi": 45,
          "name": "A2",
          "ticks": 192750,
          "time": 101.44721625,
          "velocity": 1
        },
        {
          "duration": 0.2631575000000055,
          "durationTicks": 500,
          "midi": 50,
          "name": "D3",
          "ticks": 193500,
          "time": 101.84195249999999,
          "velocity": 1
        },
        {
          "duration": 0.2631575000000055,
          "durationTicks": 500,
          "midi": 38,
          "name": "D2",
          "ticks": 193500,
          "time": 101.84195249999999,
          "velocity": 1
        },
        {
          "duration": 0.394736249999994,
          "durationTicks": 750,
          "midi": 51,
          "name": "D#3",
          "ticks": 194000,
          "time": 102.10511,
          "velocity": 1
        },
        {
          "duration": 0.394736249999994,
          "durationTicks": 750,
          "midi": 39,
          "name": "D#2",
          "ticks": 194000,
          "time": 102.10511,
          "velocity": 1
        },
        {
          "duration": 0.3947362500000082,
          "durationTicks": 750,
          "midi": 58,
          "name": "A#3",
          "ticks": 194750,
          "time": 102.49984624999999,
          "velocity": 1
        },
        {
          "duration": 0.3947362500000082,
          "durationTicks": 750,
          "midi": 46,
          "name": "A#2",
          "ticks": 194750,
          "time": 102.49984624999999,
          "velocity": 1
        },
        {
          "duration": 0.2631574999999913,
          "durationTicks": 500,
          "midi": 51,
          "name": "D#3",
          "ticks": 195500,
          "time": 102.8945825,
          "velocity": 1
        },
        {
          "duration": 0.2631574999999913,
          "durationTicks": 500,
          "midi": 39,
          "name": "D#2",
          "ticks": 195500,
          "time": 102.8945825,
          "velocity": 1
        },
        {
          "duration": 0.2631575000000055,
          "durationTicks": 500,
          "midi": 46,
          "name": "A#2",
          "ticks": 196000,
          "time": 103.15773999999999,
          "velocity": 1
        },
        {
          "duration": 0.2631575000000055,
          "durationTicks": 500,
          "midi": 58,
          "name": "A#3",
          "ticks": 196000,
          "time": 103.15773999999999,
          "velocity": 1
        },
        {
          "duration": 0.2631575000000055,
          "durationTicks": 500,
          "midi": 46,
          "name": "A#2",
          "ticks": 196500,
          "time": 103.4208975,
          "velocity": 1
        },
        {
          "duration": 0.2631575000000055,
          "durationTicks": 500,
          "midi": 58,
          "name": "A#3",
          "ticks": 196500,
          "time": 103.4208975,
          "velocity": 1
        },
        {
          "duration": 0.5263149999999968,
          "durationTicks": 1000,
          "midi": 46,
          "name": "A#2",
          "ticks": 197000,
          "time": 103.684055,
          "velocity": 1
        },
        {
          "duration": 0.2631574999999913,
          "durationTicks": 500,
          "midi": 58,
          "name": "A#3",
          "ticks": 197000,
          "time": 103.684055,
          "velocity": 1
        },
        {
          "duration": 0.2631575000000055,
          "durationTicks": 500,
          "midi": 58,
          "name": "A#3",
          "ticks": 197500,
          "time": 103.94721249999999,
          "velocity": 1
        },
        {
          "duration": 0.2631574999999913,
          "durationTicks": 500,
          "midi": 50,
          "name": "D3",
          "ticks": 198000,
          "time": 104.21037,
          "velocity": 1
        },
        {
          "duration": 0.2631574999999913,
          "durationTicks": 500,
          "midi": 62,
          "name": "D4",
          "ticks": 198000,
          "time": 104.21037,
          "velocity": 1
        },
        {
          "duration": 0.2631575000000055,
          "durationTicks": 500,
          "midi": 50,
          "name": "D3",
          "ticks": 198500,
          "time": 104.47352749999999,
          "velocity": 1
        },
        {
          "duration": 0.2631575000000055,
          "durationTicks": 500,
          "midi": 62,
          "name": "D4",
          "ticks": 198500,
          "time": 104.47352749999999,
          "velocity": 1
        },
        {
          "duration": 0.5263149999999968,
          "durationTicks": 1000,
          "midi": 50,
          "name": "D3",
          "ticks": 199000,
          "time": 104.736685,
          "velocity": 1
        },
        {
          "duration": 0.2631575000000055,
          "durationTicks": 500,
          "midi": 62,
          "name": "D4",
          "ticks": 199000,
          "time": 104.736685,
          "velocity": 1
        },
        {
          "duration": 0.2631574999999913,
          "durationTicks": 500,
          "midi": 62,
          "name": "D4",
          "ticks": 199500,
          "time": 104.9998425,
          "velocity": 1
        },
        {
          "duration": 0.2631575000000055,
          "durationTicks": 500,
          "midi": 55,
          "name": "G3",
          "ticks": 200000,
          "time": 105.26299999999999,
          "velocity": 1
        },
        {
          "duration": 0.2631575000000055,
          "durationTicks": 500,
          "midi": 67,
          "name": "G4",
          "ticks": 200000,
          "time": 105.26299999999999,
          "velocity": 1
        },
        {
          "duration": 0.2631575000000055,
          "durationTicks": 500,
          "midi": 55,
          "name": "G3",
          "ticks": 200500,
          "time": 105.5261575,
          "velocity": 1
        },
        {
          "duration": 0.2631575000000055,
          "durationTicks": 500,
          "midi": 67,
          "name": "G4",
          "ticks": 200500,
          "time": 105.5261575,
          "velocity": 1
        },
        {
          "duration": 0.5263149999999968,
          "durationTicks": 1000,
          "midi": 55,
          "name": "G3",
          "ticks": 201000,
          "time": 105.789315,
          "velocity": 1
        },
        {
          "duration": 0.2631574999999913,
          "durationTicks": 500,
          "midi": 67,
          "name": "G4",
          "ticks": 201000,
          "time": 105.789315,
          "velocity": 1
        },
        {
          "duration": 0.2631575000000055,
          "durationTicks": 500,
          "midi": 67,
          "name": "G4",
          "ticks": 201500,
          "time": 106.0524725,
          "velocity": 1
        },
        {
          "duration": 0.2631574999999913,
          "durationTicks": 500,
          "midi": 53,
          "name": "F3",
          "ticks": 202000,
          "time": 106.31563,
          "velocity": 1
        },
        {
          "duration": 0.2631574999999913,
          "durationTicks": 500,
          "midi": 65,
          "name": "F4",
          "ticks": 202000,
          "time": 106.31563,
          "velocity": 1
        },
        {
          "duration": 0.2631575000000055,
          "durationTicks": 500,
          "midi": 53,
          "name": "F3",
          "ticks": 202500,
          "time": 106.57878749999999,
          "velocity": 1
        },
        {
          "duration": 0.2631575000000055,
          "durationTicks": 500,
          "midi": 65,
          "name": "F4",
          "ticks": 202500,
          "time": 106.57878749999999,
          "velocity": 1
        },
        {
          "duration": 0.5263149999999968,
          "durationTicks": 1000,
          "midi": 53,
          "name": "F3",
          "ticks": 203000,
          "time": 106.841945,
          "velocity": 1
        },
        {
          "duration": 0.2631575000000055,
          "durationTicks": 500,
          "midi": 65,
          "name": "F4",
          "ticks": 203000,
          "time": 106.841945,
          "velocity": 1
        },
        {
          "duration": 0.2631574999999913,
          "durationTicks": 500,
          "midi": 65,
          "name": "F4",
          "ticks": 203500,
          "time": 107.1051025,
          "velocity": 1
        },
        {
          "duration": 0.2631575000000055,
          "durationTicks": 500,
          "midi": 46,
          "name": "A#2",
          "ticks": 204000,
          "time": 107.36825999999999,
          "velocity": 1
        },
        {
          "duration": 0.2631575000000055,
          "durationTicks": 500,
          "midi": 58,
          "name": "A#3",
          "ticks": 204000,
          "time": 107.36825999999999,
          "velocity": 1
        },
        {
          "duration": 0.2631574999999913,
          "durationTicks": 500,
          "midi": 46,
          "name": "A#2",
          "ticks": 204500,
          "time": 107.6314175,
          "velocity": 1
        },
        {
          "duration": 0.2631574999999913,
          "durationTicks": 500,
          "midi": 58,
          "name": "A#3",
          "ticks": 204500,
          "time": 107.6314175,
          "velocity": 1
        },
        {
          "duration": 0.526315000000011,
          "durationTicks": 1000,
          "midi": 46,
          "name": "A#2",
          "ticks": 205000,
          "time": 107.89457499999999,
          "velocity": 1
        },
        {
          "duration": 0.2631575000000055,
          "durationTicks": 500,
          "midi": 58,
          "name": "A#3",
          "ticks": 205000,
          "time": 107.89457499999999,
          "velocity": 1
        },
        {
          "duration": 0.2631575000000055,
          "durationTicks": 500,
          "midi": 58,
          "name": "A#3",
          "ticks": 205500,
          "time": 108.1577325,
          "velocity": 1
        },
        {
          "duration": 0.2631574999999913,
          "durationTicks": 500,
          "midi": 50,
          "name": "D3",
          "ticks": 206000,
          "time": 108.42089,
          "velocity": 1
        },
        {
          "duration": 0.2631574999999913,
          "durationTicks": 500,
          "midi": 62,
          "name": "D4",
          "ticks": 206000,
          "time": 108.42089,
          "velocity": 1
        },
        {
          "duration": 0.2631575000000055,
          "durationTicks": 500,
          "midi": 50,
          "name": "D3",
          "ticks": 206500,
          "time": 108.68404749999999,
          "velocity": 1
        },
        {
          "duration": 0.2631575000000055,
          "durationTicks": 500,
          "midi": 62,
          "name": "D4",
          "ticks": 206500,
          "time": 108.68404749999999,
          "velocity": 1
        },
        {
          "duration": 0.5263149999999968,
          "durationTicks": 1000,
          "midi": 50,
          "name": "D3",
          "ticks": 207000,
          "time": 108.947205,
          "velocity": 1
        },
        {
          "duration": 0.2631575000000055,
          "durationTicks": 500,
          "midi": 62,
          "name": "D4",
          "ticks": 207000,
          "time": 108.947205,
          "velocity": 1
        },
        {
          "duration": 0.2631574999999913,
          "durationTicks": 500,
          "midi": 62,
          "name": "D4",
          "ticks": 207500,
          "time": 109.2103625,
          "velocity": 1
        },
        {
          "duration": 0.2631575000000055,
          "durationTicks": 500,
          "midi": 55,
          "name": "G3",
          "ticks": 208000,
          "time": 109.47352,
          "velocity": 1
        },
        {
          "duration": 0.2631575000000055,
          "durationTicks": 500,
          "midi": 67,
          "name": "G4",
          "ticks": 208000,
          "time": 109.47352,
          "velocity": 1
        },
        {
          "duration": 0.2631574999999913,
          "durationTicks": 500,
          "midi": 55,
          "name": "G3",
          "ticks": 208500,
          "time": 109.7366775,
          "velocity": 1
        },
        {
          "duration": 0.2631574999999913,
          "durationTicks": 500,
          "midi": 67,
          "name": "G4",
          "ticks": 208500,
          "time": 109.7366775,
          "velocity": 1
        },
        {
          "duration": 0.526315000000011,
          "durationTicks": 1000,
          "midi": 55,
          "name": "G3",
          "ticks": 209000,
          "time": 109.99983499999999,
          "velocity": 1
        },
        {
          "duration": 0.2631575000000055,
          "durationTicks": 500,
          "midi": 67,
          "name": "G4",
          "ticks": 209000,
          "time": 109.99983499999999,
          "velocity": 1
        },
        {
          "duration": 0.2631575000000055,
          "durationTicks": 500,
          "midi": 67,
          "name": "G4",
          "ticks": 209500,
          "time": 110.2629925,
          "velocity": 1
        },
        {
          "duration": 0.2631574999999913,
          "durationTicks": 500,
          "midi": 53,
          "name": "F3",
          "ticks": 210000,
          "time": 110.52615,
          "velocity": 1
        },
        {
          "duration": 0.2631574999999913,
          "durationTicks": 500,
          "midi": 65,
          "name": "F4",
          "ticks": 210000,
          "time": 110.52615,
          "velocity": 1
        },
        {
          "duration": 0.2631575000000055,
          "durationTicks": 500,
          "midi": 53,
          "name": "F3",
          "ticks": 210500,
          "time": 110.78930749999999,
          "velocity": 1
        },
        {
          "duration": 0.2631575000000055,
          "durationTicks": 500,
          "midi": 65,
          "name": "F4",
          "ticks": 210500,
          "time": 110.78930749999999,
          "velocity": 1
        },
        {
          "duration": 0.5263149999999968,
          "durationTicks": 1000,
          "midi": 53,
          "name": "F3",
          "ticks": 211000,
          "time": 111.052465,
          "velocity": 1
        },
        {
          "duration": 0.2631574999999913,
          "durationTicks": 500,
          "midi": 65,
          "name": "F4",
          "ticks": 211000,
          "time": 111.052465,
          "velocity": 1
        },
        {
          "duration": 0.2631575000000055,
          "durationTicks": 500,
          "midi": 65,
          "name": "F4",
          "ticks": 211500,
          "time": 111.31562249999999,
          "velocity": 1
        },
        {
          "duration": 0.2631575000000055,
          "durationTicks": 500,
          "midi": 46,
          "name": "A#2",
          "ticks": 212000,
          "time": 111.57878,
          "velocity": 1
        },
        {
          "duration": 0.2631575000000055,
          "durationTicks": 500,
          "midi": 58,
          "name": "A#3",
          "ticks": 212000,
          "time": 111.57878,
          "velocity": 1
        },
        {
          "duration": 0.2631574999999913,
          "durationTicks": 500,
          "midi": 46,
          "name": "A#2",
          "ticks": 212500,
          "time": 111.8419375,
          "velocity": 1
        },
        {
          "duration": 0.2631574999999913,
          "durationTicks": 500,
          "midi": 58,
          "name": "A#3",
          "ticks": 212500,
          "time": 111.8419375,
          "velocity": 1
        },
        {
          "duration": 0.5263149999999968,
          "durationTicks": 1000,
          "midi": 46,
          "name": "A#2",
          "ticks": 213000,
          "time": 112.10509499999999,
          "velocity": 1
        },
        {
          "duration": 0.2631575000000055,
          "durationTicks": 500,
          "midi": 58,
          "name": "A#3",
          "ticks": 213000,
          "time": 112.10509499999999,
          "velocity": 1
        },
        {
          "duration": 0.2631574999999913,
          "durationTicks": 500,
          "midi": 58,
          "name": "A#3",
          "ticks": 213500,
          "time": 112.3682525,
          "velocity": 1
        },
        {
          "duration": 0.2631575000000055,
          "durationTicks": 500,
          "midi": 50,
          "name": "D3",
          "ticks": 214000,
          "time": 112.63140999999999,
          "velocity": 1
        },
        {
          "duration": 0.2631575000000055,
          "durationTicks": 500,
          "midi": 62,
          "name": "D4",
          "ticks": 214000,
          "time": 112.63140999999999,
          "velocity": 1
        },
        {
          "duration": 0.2631575000000055,
          "durationTicks": 500,
          "midi": 50,
          "name": "D3",
          "ticks": 214500,
          "time": 112.8945675,
          "velocity": 1
        },
        {
          "duration": 0.2631575000000055,
          "durationTicks": 500,
          "midi": 62,
          "name": "D4",
          "ticks": 214500,
          "time": 112.8945675,
          "velocity": 1
        },
        {
          "duration": 0.5263149999999968,
          "durationTicks": 1000,
          "midi": 50,
          "name": "D3",
          "ticks": 215000,
          "time": 113.157725,
          "velocity": 1
        },
        {
          "duration": 0.2631574999999913,
          "durationTicks": 500,
          "midi": 62,
          "name": "D4",
          "ticks": 215000,
          "time": 113.157725,
          "velocity": 1
        },
        {
          "duration": 0.2631575000000055,
          "durationTicks": 500,
          "midi": 62,
          "name": "D4",
          "ticks": 215500,
          "time": 113.42088249999999,
          "velocity": 1
        },
        {
          "duration": 0.2631575000000055,
          "durationTicks": 500,
          "midi": 52,
          "name": "E3",
          "ticks": 216000,
          "time": 113.68404,
          "velocity": 1
        },
        {
          "duration": 0.2631575000000055,
          "durationTicks": 500,
          "midi": 64,
          "name": "E4",
          "ticks": 216000,
          "time": 113.68404,
          "velocity": 1
        },
        {
          "duration": 0.2631574999999913,
          "durationTicks": 500,
          "midi": 52,
          "name": "E3",
          "ticks": 216500,
          "time": 113.9471975,
          "velocity": 1
        },
        {
          "duration": 0.2631574999999913,
          "durationTicks": 500,
          "midi": 64,
          "name": "E4",
          "ticks": 216500,
          "time": 113.9471975,
          "velocity": 1
        },
        {
          "duration": 0.5263149999999968,
          "durationTicks": 1000,
          "midi": 52,
          "name": "E3",
          "ticks": 217000,
          "time": 114.21035499999999,
          "velocity": 1
        },
        {
          "duration": 0.2631575000000055,
          "durationTicks": 500,
          "midi": 64,
          "name": "E4",
          "ticks": 217000,
          "time": 114.21035499999999,
          "velocity": 1
        },
        {
          "duration": 0.2631574999999913,
          "durationTicks": 500,
          "midi": 64,
          "name": "E4",
          "ticks": 217500,
          "time": 114.4735125,
          "velocity": 1
        },
        {
          "duration": 0.2631575000000055,
          "durationTicks": 500,
          "midi": 51,
          "name": "D#3",
          "ticks": 218000,
          "time": 114.73666999999999,
          "velocity": 1
        },
        {
          "duration": 0.2631575000000055,
          "durationTicks": 500,
          "midi": 63,
          "name": "D#4",
          "ticks": 218000,
          "time": 114.73666999999999,
          "velocity": 1
        },
        {
          "duration": 0.2631575000000055,
          "durationTicks": 500,
          "midi": 51,
          "name": "D#3",
          "ticks": 218500,
          "time": 114.9998275,
          "velocity": 1
        },
        {
          "duration": 0.2631575000000055,
          "durationTicks": 500,
          "midi": 63,
          "name": "D#4",
          "ticks": 218500,
          "time": 114.9998275,
          "velocity": 1
        },
        {
          "duration": 0.5263149999999968,
          "durationTicks": 1000,
          "midi": 51,
          "name": "D#3",
          "ticks": 219000,
          "time": 115.262985,
          "velocity": 1
        },
        {
          "duration": 0.2631574999999913,
          "durationTicks": 500,
          "midi": 63,
          "name": "D#4",
          "ticks": 219000,
          "time": 115.262985,
          "velocity": 1
        },
        {
          "duration": 0.2631575000000055,
          "durationTicks": 500,
          "midi": 63,
          "name": "D#4",
          "ticks": 219500,
          "time": 115.52614249999999,
          "velocity": 1
        },
        {
          "duration": 0.2631574999999913,
          "durationTicks": 500,
          "midi": 48,
          "name": "C3",
          "ticks": 220000,
          "time": 115.7893,
          "velocity": 1
        },
        {
          "duration": 0.2631575000000055,
          "durationTicks": 500,
          "midi": 60,
          "name": "C4",
          "ticks": 220500,
          "time": 116.05245749999999,
          "velocity": 1
        },
        {
          "duration": 0.2631575000000055,
          "durationTicks": 500,
          "midi": 48,
          "name": "C3",
          "ticks": 221000,
          "time": 116.315615,
          "velocity": 1
        },
        {
          "duration": 0.2631574999999913,
          "durationTicks": 500,
          "midi": 60,
          "name": "C4",
          "ticks": 221500,
          "time": 116.5787725,
          "velocity": 1
        },
        {
          "duration": 0.2631575000000055,
          "durationTicks": 500,
          "midi": 50,
          "name": "D3",
          "ticks": 222000,
          "time": 116.84192999999999,
          "velocity": 1
        },
        {
          "duration": 0.2631575000000055,
          "durationTicks": 500,
          "midi": 62,
          "name": "D4",
          "ticks": 222500,
          "time": 117.1050875,
          "velocity": 1
        },
        {
          "duration": 0.2631574999999913,
          "durationTicks": 500,
          "midi": 50,
          "name": "D3",
          "ticks": 223000,
          "time": 117.368245,
          "velocity": 1
        },
        {
          "duration": 0.2631575000000055,
          "durationTicks": 500,
          "midi": 62,
          "name": "D4",
          "ticks": 223500,
          "time": 117.6314025,
          "velocity": 1
        },
        {
          "duration": 0.2631574999999913,
          "durationTicks": 500,
          "midi": 51,
          "name": "D#3",
          "ticks": 224000,
          "time": 117.89456,
          "velocity": 1
        },
        {
          "duration": 0.2631575000000055,
          "durationTicks": 500,
          "midi": 63,
          "name": "D#4",
          "ticks": 224500,
          "time": 118.15771749999999,
          "velocity": 1
        },
        {
          "duration": 0.2631575000000055,
          "durationTicks": 500,
          "midi": 51,
          "name": "D#3",
          "ticks": 225000,
          "time": 118.420875,
          "velocity": 1
        },
        {
          "duration": 0.2631574999999913,
          "durationTicks": 500,
          "midi": 63,
          "name": "D#4",
          "ticks": 225500,
          "time": 118.6840325,
          "velocity": 1
        },
        {
          "duration": 0.5263149999999968,
          "durationTicks": 1000,
          "midi": 60,
          "name": "C4",
          "ticks": 226000,
          "time": 118.94718999999999,
          "velocity": 1
        },
        {
          "duration": 0.5263149999999968,
          "durationTicks": 1000,
          "midi": 57,
          "name": "A3",
          "ticks": 226000,
          "time": 118.94718999999999,
          "velocity": 1
        },
        {
          "duration": 0.5263149999999968,
          "durationTicks": 1000,
          "midi": 53,
          "name": "F3",
          "ticks": 226000,
          "time": 118.94718999999999,
          "velocity": 1
        },
        {
          "duration": 0.394736249999994,
          "durationTicks": 750,
          "midi": 51,
          "name": "D#3",
          "ticks": 292000,
          "time": 153.68398,
          "velocity": 1
        },
        {
          "duration": 0.394736249999994,
          "durationTicks": 750,
          "midi": 39,
          "name": "D#2",
          "ticks": 292000,
          "time": 153.68398,
          "velocity": 1
        },
        {
          "duration": 0.394736249999994,
          "durationTicks": 750,
          "midi": 58,
          "name": "A#3",
          "ticks": 292750,
          "time": 154.07871624999999,
          "velocity": 1
        },
        {
          "duration": 0.394736249999994,
          "durationTicks": 750,
          "midi": 46,
          "name": "A#2",
          "ticks": 292750,
          "time": 154.07871624999999,
          "velocity": 1
        },
        {
          "duration": 0.2631575000000055,
          "durationTicks": 500,
          "midi": 51,
          "name": "D#3",
          "ticks": 293500,
          "time": 154.47345249999998,
          "velocity": 1
        },
        {
          "duration": 0.2631575000000055,
          "durationTicks": 500,
          "midi": 39,
          "name": "D#2",
          "ticks": 293500,
          "time": 154.47345249999998,
          "velocity": 1
        },
        {
          "duration": 0.39473625000002244,
          "durationTicks": 750,
          "midi": 50,
          "name": "D3",
          "ticks": 294000,
          "time": 154.73660999999998,
          "velocity": 1
        },
        {
          "duration": 0.39473625000002244,
          "durationTicks": 750,
          "midi": 38,
          "name": "D2",
          "ticks": 294000,
          "time": 154.73660999999998,
          "velocity": 1
        },
        {
          "duration": 0.394736249999994,
          "durationTicks": 750,
          "midi": 57,
          "name": "A3",
          "ticks": 294750,
          "time": 155.13134625,
          "velocity": 1
        },
        {
          "duration": 0.394736249999994,
          "durationTicks": 750,
          "midi": 45,
          "name": "A2",
          "ticks": 294750,
          "time": 155.13134625,
          "velocity": 1
        },
        {
          "duration": 0.2631575000000055,
          "durationTicks": 500,
          "midi": 50,
          "name": "D3",
          "ticks": 295500,
          "time": 155.5260825,
          "velocity": 1
        },
        {
          "duration": 0.2631575000000055,
          "durationTicks": 500,
          "midi": 38,
          "name": "D2",
          "ticks": 295500,
          "time": 155.5260825,
          "velocity": 1
        },
        {
          "duration": 0.394736249999994,
          "durationTicks": 750,
          "midi": 55,
          "name": "G3",
          "ticks": 296000,
          "time": 155.78924,
          "velocity": 1
        },
        {
          "duration": 0.394736249999994,
          "durationTicks": 750,
          "midi": 43,
          "name": "G2",
          "ticks": 296000,
          "time": 155.78924,
          "velocity": 1
        },
        {
          "duration": 0.394736249999994,
          "durationTicks": 750,
          "midi": 62,
          "name": "D4",
          "ticks": 296750,
          "time": 156.18397625,
          "velocity": 1
        },
        {
          "duration": 0.394736249999994,
          "durationTicks": 750,
          "midi": 50,
          "name": "D3",
          "ticks": 296750,
          "time": 156.18397625,
          "velocity": 1
        },
        {
          "duration": 0.2631575000000055,
          "durationTicks": 500,
          "midi": 55,
          "name": "G3",
          "ticks": 297500,
          "time": 156.5787125,
          "velocity": 1
        },
        {
          "duration": 0.2631575000000055,
          "durationTicks": 500,
          "midi": 43,
          "name": "G2",
          "ticks": 297500,
          "time": 156.5787125,
          "velocity": 1
        },
        {
          "duration": 0.394736249999994,
          "durationTicks": 750,
          "midi": 53,
          "name": "F3",
          "ticks": 298000,
          "time": 156.84187,
          "velocity": 1
        },
        {
          "duration": 0.394736249999994,
          "durationTicks": 750,
          "midi": 41,
          "name": "F2",
          "ticks": 298000,
          "time": 156.84187,
          "velocity": 1
        },
        {
          "duration": 0.394736249999994,
          "durationTicks": 750,
          "midi": 60,
          "name": "C4",
          "ticks": 298750,
          "time": 157.23660625,
          "velocity": 1
        },
        {
          "duration": 0.394736249999994,
          "durationTicks": 750,
          "midi": 48,
          "name": "C3",
          "ticks": 298750,
          "time": 157.23660625,
          "velocity": 1
        },
        {
          "duration": 0.2631575000000055,
          "durationTicks": 500,
          "midi": 53,
          "name": "F3",
          "ticks": 299500,
          "time": 157.6313425,
          "velocity": 1
        },
        {
          "duration": 0.2631575000000055,
          "durationTicks": 500,
          "midi": 41,
          "name": "F2",
          "ticks": 299500,
          "time": 157.6313425,
          "velocity": 1
        },
        {
          "duration": 0.394736249999994,
          "durationTicks": 750,
          "midi": 58,
          "name": "A#3",
          "ticks": 300000,
          "time": 157.8945,
          "velocity": 1
        },
        {
          "duration": 0.394736249999994,
          "durationTicks": 750,
          "midi": 46,
          "name": "A#2",
          "ticks": 300000,
          "time": 157.8945,
          "velocity": 1
        },
        {
          "duration": 0.394736249999994,
          "durationTicks": 750,
          "midi": 65,
          "name": "F4",
          "ticks": 300750,
          "time": 158.28923625,
          "velocity": 1
        },
        {
          "duration": 0.394736249999994,
          "durationTicks": 750,
          "midi": 53,
          "name": "F3",
          "ticks": 300750,
          "time": 158.28923625,
          "velocity": 1
        },
        {
          "duration": 0.2631575000000055,
          "durationTicks": 500,
          "midi": 58,
          "name": "A#3",
          "ticks": 301500,
          "time": 158.68397249999998,
          "velocity": 1
        },
        {
          "duration": 0.2631575000000055,
          "durationTicks": 500,
          "midi": 46,
          "name": "A#2",
          "ticks": 301500,
          "time": 158.68397249999998,
          "velocity": 1
        },
        {
          "duration": 0.394736249999994,
          "durationTicks": 750,
          "midi": 57,
          "name": "A3",
          "ticks": 302000,
          "time": 158.94713,
          "velocity": 1
        },
        {
          "duration": 0.394736249999994,
          "durationTicks": 750,
          "midi": 45,
          "name": "A2",
          "ticks": 302000,
          "time": 158.94713,
          "velocity": 1
        },
        {
          "duration": 0.39473625000002244,
          "durationTicks": 750,
          "midi": 64,
          "name": "E4",
          "ticks": 302750,
          "time": 159.34186624999998,
          "velocity": 1
        },
        {
          "duration": 0.39473625000002244,
          "durationTicks": 750,
          "midi": 52,
          "name": "E3",
          "ticks": 302750,
          "time": 159.34186624999998,
          "velocity": 1
        },
        {
          "duration": 0.26315749999997706,
          "durationTicks": 500,
          "midi": 57,
          "name": "A3",
          "ticks": 303500,
          "time": 159.7366025,
          "velocity": 1
        },
        {
          "duration": 0.26315749999997706,
          "durationTicks": 500,
          "midi": 45,
          "name": "A2",
          "ticks": 303500,
          "time": 159.7366025,
          "velocity": 1
        },
        {
          "duration": 0.39473625000002244,
          "durationTicks": 750,
          "midi": 50,
          "name": "D3",
          "ticks": 304000,
          "time": 159.99975999999998,
          "velocity": 1
        },
        {
          "duration": 0.39473625000002244,
          "durationTicks": 750,
          "midi": 38,
          "name": "D2",
          "ticks": 304000,
          "time": 159.99975999999998,
          "velocity": 1
        },
        {
          "duration": 0.394736249999994,
          "durationTicks": 750,
          "midi": 57,
          "name": "A3",
          "ticks": 304750,
          "time": 160.39449625,
          "velocity": 1
        },
        {
          "duration": 0.394736249999994,
          "durationTicks": 750,
          "midi": 45,
          "name": "A2",
          "ticks": 304750,
          "time": 160.39449625,
          "velocity": 1
        },
        {
          "duration": 0.2631575000000055,
          "durationTicks": 500,
          "midi": 50,
          "name": "D3",
          "ticks": 305500,
          "time": 160.7892325,
          "velocity": 1
        },
        {
          "duration": 0.2631575000000055,
          "durationTicks": 500,
          "midi": 38,
          "name": "D2",
          "ticks": 305500,
          "time": 160.7892325,
          "velocity": 1
        },
        {
          "duration": 0.394736249999994,
          "durationTicks": 750,
          "midi": 51,
          "name": "D#3",
          "ticks": 306000,
          "time": 161.05239,
          "velocity": 1
        },
        {
          "duration": 0.394736249999994,
          "durationTicks": 750,
          "midi": 39,
          "name": "D#2",
          "ticks": 306000,
          "time": 161.05239,
          "velocity": 1
        },
        {
          "duration": 0.394736249999994,
          "durationTicks": 750,
          "midi": 58,
          "name": "A#3",
          "ticks": 306750,
          "time": 161.44712625,
          "velocity": 1
        },
        {
          "duration": 0.394736249999994,
          "durationTicks": 750,
          "midi": 46,
          "name": "A#2",
          "ticks": 306750,
          "time": 161.44712625,
          "velocity": 1
        },
        {
          "duration": 0.2631575000000055,
          "durationTicks": 500,
          "midi": 51,
          "name": "D#3",
          "ticks": 307500,
          "time": 161.8418625,
          "velocity": 1
        },
        {
          "duration": 0.2631575000000055,
          "durationTicks": 500,
          "midi": 39,
          "name": "D#2",
          "ticks": 307500,
          "time": 161.8418625,
          "velocity": 1
        },
        {
          "duration": 0.394736249999994,
          "durationTicks": 750,
          "midi": 51,
          "name": "D#3",
          "ticks": 308000,
          "time": 162.10502,
          "velocity": 1
        },
        {
          "duration": 0.394736249999994,
          "durationTicks": 750,
          "midi": 39,
          "name": "D#2",
          "ticks": 308000,
          "time": 162.10502,
          "velocity": 1
        },
        {
          "duration": 0.394736249999994,
          "durationTicks": 750,
          "midi": 58,
          "name": "A#3",
          "ticks": 308750,
          "time": 162.49975625,
          "velocity": 1
        },
        {
          "duration": 0.394736249999994,
          "durationTicks": 750,
          "midi": 46,
          "name": "A#2",
          "ticks": 308750,
          "time": 162.49975625,
          "velocity": 1
        },
        {
          "duration": 0.2631575000000055,
          "durationTicks": 500,
          "midi": 51,
          "name": "D#3",
          "ticks": 309500,
          "time": 162.89449249999998,
          "velocity": 1
        },
        {
          "duration": 0.2631575000000055,
          "durationTicks": 500,
          "midi": 39,
          "name": "D#2",
          "ticks": 309500,
          "time": 162.89449249999998,
          "velocity": 1
        },
        {
          "duration": 0.394736249999994,
          "durationTicks": 750,
          "midi": 50,
          "name": "D3",
          "ticks": 310000,
          "time": 163.15765,
          "velocity": 1
        },
        {
          "duration": 0.394736249999994,
          "durationTicks": 750,
          "midi": 38,
          "name": "D2",
          "ticks": 310000,
          "time": 163.15765,
          "velocity": 1
        },
        {
          "duration": 0.39473625000002244,
          "durationTicks": 750,
          "midi": 57,
          "name": "A3",
          "ticks": 310750,
          "time": 163.55238624999998,
          "velocity": 1
        },
        {
          "duration": 0.39473625000002244,
          "durationTicks": 750,
          "midi": 45,
          "name": "A2",
          "ticks": 310750,
          "time": 163.55238624999998,
          "velocity": 1
        },
        {
          "duration": 0.26315749999997706,
          "durationTicks": 500,
          "midi": 50,
          "name": "D3",
          "ticks": 311500,
          "time": 163.9471225,
          "velocity": 1
        },
        {
          "duration": 0.26315749999997706,
          "durationTicks": 500,
          "midi": 38,
          "name": "D2",
          "ticks": 311500,
          "time": 163.9471225,
          "velocity": 1
        },
        {
          "duration": 0.39473625000002244,
          "durationTicks": 750,
          "midi": 55,
          "name": "G3",
          "ticks": 312000,
          "time": 164.21027999999998,
          "velocity": 1
        },
        {
          "duration": 0.39473625000002244,
          "durationTicks": 750,
          "midi": 43,
          "name": "G2",
          "ticks": 312000,
          "time": 164.21027999999998,
          "velocity": 1
        },
        {
          "duration": 0.394736249999994,
          "durationTicks": 750,
          "midi": 62,
          "name": "D4",
          "ticks": 312750,
          "time": 164.60501625,
          "velocity": 1
        },
        {
          "duration": 0.394736249999994,
          "durationTicks": 750,
          "midi": 50,
          "name": "D3",
          "ticks": 312750,
          "time": 164.60501625,
          "velocity": 1
        },
        {
          "duration": 0.2631575000000055,
          "durationTicks": 500,
          "midi": 55,
          "name": "G3",
          "ticks": 313500,
          "time": 164.9997525,
          "velocity": 1
        },
        {
          "duration": 0.2631575000000055,
          "durationTicks": 500,
          "midi": 43,
          "name": "G2",
          "ticks": 313500,
          "time": 164.9997525,
          "velocity": 1
        },
        {
          "duration": 0.394736249999994,
          "durationTicks": 750,
          "midi": 53,
          "name": "F3",
          "ticks": 314000,
          "time": 165.26291,
          "velocity": 1
        },
        {
          "duration": 0.394736249999994,
          "durationTicks": 750,
          "midi": 41,
          "name": "F2",
          "ticks": 314000,
          "time": 165.26291,
          "velocity": 1
        },
        {
          "duration": 0.394736249999994,
          "durationTicks": 750,
          "midi": 60,
          "name": "C4",
          "ticks": 314750,
          "time": 165.65764625,
          "velocity": 1
        },
        {
          "duration": 0.394736249999994,
          "durationTicks": 750,
          "midi": 48,
          "name": "C3",
          "ticks": 314750,
          "time": 165.65764625,
          "velocity": 1
        },
        {
          "duration": 0.2631575000000055,
          "durationTicks": 500,
          "midi": 53,
          "name": "F3",
          "ticks": 315500,
          "time": 166.0523825,
          "velocity": 1
        },
        {
          "duration": 0.2631575000000055,
          "durationTicks": 500,
          "midi": 41,
          "name": "F2",
          "ticks": 315500,
          "time": 166.0523825,
          "velocity": 1
        },
        {
          "duration": 0.394736249999994,
          "durationTicks": 750,
          "midi": 58,
          "name": "A#3",
          "ticks": 316000,
          "time": 166.31554,
          "velocity": 1
        },
        {
          "duration": 0.394736249999994,
          "durationTicks": 750,
          "midi": 46,
          "name": "A#2",
          "ticks": 316000,
          "time": 166.31554,
          "velocity": 1
        },
        {
          "duration": 0.394736249999994,
          "durationTicks": 750,
          "midi": 65,
          "name": "F4",
          "ticks": 316750,
          "time": 166.71027625,
          "velocity": 1
        },
        {
          "duration": 0.394736249999994,
          "durationTicks": 750,
          "midi": 53,
          "name": "F3",
          "ticks": 316750,
          "time": 166.71027625,
          "velocity": 1
        },
        {
          "duration": 0.2631575000000055,
          "durationTicks": 500,
          "midi": 58,
          "name": "A#3",
          "ticks": 317500,
          "time": 167.1050125,
          "velocity": 1
        },
        {
          "duration": 0.2631575000000055,
          "durationTicks": 500,
          "midi": 46,
          "name": "A#2",
          "ticks": 317500,
          "time": 167.1050125,
          "velocity": 1
        },
        {
          "duration": 0.394736249999994,
          "durationTicks": 750,
          "midi": 57,
          "name": "A3",
          "ticks": 318000,
          "time": 167.36817,
          "velocity": 1
        },
        {
          "duration": 0.394736249999994,
          "durationTicks": 750,
          "midi": 45,
          "name": "A2",
          "ticks": 318000,
          "time": 167.36817,
          "velocity": 1
        },
        {
          "duration": 0.394736249999994,
          "durationTicks": 750,
          "midi": 64,
          "name": "E4",
          "ticks": 318750,
          "time": 167.76290625,
          "velocity": 1
        },
        {
          "duration": 0.394736249999994,
          "durationTicks": 750,
          "midi": 52,
          "name": "E3",
          "ticks": 318750,
          "time": 167.76290625,
          "velocity": 1
        },
        {
          "duration": 0.2631575000000055,
          "durationTicks": 500,
          "midi": 57,
          "name": "A3",
          "ticks": 319500,
          "time": 168.15764249999998,
          "velocity": 1
        },
        {
          "duration": 0.2631575000000055,
          "durationTicks": 500,
          "midi": 45,
          "name": "A2",
          "ticks": 319500,
          "time": 168.15764249999998,
          "velocity": 1
        },
        {
          "duration": 0.394736249999994,
          "durationTicks": 750,
          "midi": 50,
          "name": "D3",
          "ticks": 320000,
          "time": 168.42079999999999,
          "velocity": 1
        },
        {
          "duration": 0.394736249999994,
          "durationTicks": 750,
          "midi": 38,
          "name": "D2",
          "ticks": 320000,
          "time": 168.42079999999999,
          "velocity": 1
        },
        {
          "duration": 0.39473625000002244,
          "durationTicks": 750,
          "midi": 57,
          "name": "A3",
          "ticks": 320750,
          "time": 168.81553624999998,
          "velocity": 1
        },
        {
          "duration": 0.39473625000002244,
          "durationTicks": 750,
          "midi": 45,
          "name": "A2",
          "ticks": 320750,
          "time": 168.81553624999998,
          "velocity": 1
        },
        {
          "duration": 0.26315749999997706,
          "durationTicks": 500,
          "midi": 50,
          "name": "D3",
          "ticks": 321500,
          "time": 169.2102725,
          "velocity": 1
        },
        {
          "duration": 0.26315749999997706,
          "durationTicks": 500,
          "midi": 38,
          "name": "D2",
          "ticks": 321500,
          "time": 169.2102725,
          "velocity": 1
        },
        {
          "duration": 0.39473625000002244,
          "durationTicks": 750,
          "midi": 51,
          "name": "D#3",
          "ticks": 322000,
          "time": 169.47342999999998,
          "velocity": 1
        },
        {
          "duration": 0.39473625000002244,
          "durationTicks": 750,
          "midi": 39,
          "name": "D#2",
          "ticks": 322000,
          "time": 169.47342999999998,
          "velocity": 1
        },
        {
          "duration": 0.394736249999994,
          "durationTicks": 750,
          "midi": 58,
          "name": "A#3",
          "ticks": 322750,
          "time": 169.86816625,
          "velocity": 1
        },
        {
          "duration": 0.394736249999994,
          "durationTicks": 750,
          "midi": 46,
          "name": "A#2",
          "ticks": 322750,
          "time": 169.86816625,
          "velocity": 1
        },
        {
          "duration": 0.2631575000000055,
          "durationTicks": 500,
          "midi": 51,
          "name": "D#3",
          "ticks": 323500,
          "time": 170.2629025,
          "velocity": 1
        },
        {
          "duration": 0.2631575000000055,
          "durationTicks": 500,
          "midi": 39,
          "name": "D#2",
          "ticks": 323500,
          "time": 170.2629025,
          "velocity": 1
        },
        {
          "duration": 0.394736249999994,
          "durationTicks": 750,
          "midi": 51,
          "name": "D#3",
          "ticks": 324000,
          "time": 170.52606,
          "velocity": 1
        },
        {
          "duration": 0.394736249999994,
          "durationTicks": 750,
          "midi": 39,
          "name": "D#2",
          "ticks": 324000,
          "time": 170.52606,
          "velocity": 1
        },
        {
          "duration": 0.394736249999994,
          "durationTicks": 750,
          "midi": 58,
          "name": "A#3",
          "ticks": 324750,
          "time": 170.92079625,
          "velocity": 1
        },
        {
          "duration": 0.394736249999994,
          "durationTicks": 750,
          "midi": 46,
          "name": "A#2",
          "ticks": 324750,
          "time": 170.92079625,
          "velocity": 1
        },
        {
          "duration": 0.2631575000000055,
          "durationTicks": 500,
          "midi": 51,
          "name": "D#3",
          "ticks": 325500,
          "time": 171.3155325,
          "velocity": 1
        },
        {
          "duration": 0.2631575000000055,
          "durationTicks": 500,
          "midi": 39,
          "name": "D#2",
          "ticks": 325500,
          "time": 171.3155325,
          "velocity": 1
        },
        {
          "duration": 0.394736249999994,
          "durationTicks": 750,
          "midi": 50,
          "name": "D3",
          "ticks": 326000,
          "time": 171.57869,
          "velocity": 1
        },
        {
          "duration": 0.394736249999994,
          "durationTicks": 750,
          "midi": 38,
          "name": "D2",
          "ticks": 326000,
          "time": 171.57869,
          "velocity": 1
        },
        {
          "duration": 0.394736249999994,
          "durationTicks": 750,
          "midi": 57,
          "name": "A3",
          "ticks": 326750,
          "time": 171.97342625,
          "velocity": 1
        },
        {
          "duration": 0.394736249999994,
          "durationTicks": 750,
          "midi": 45,
          "name": "A2",
          "ticks": 326750,
          "time": 171.97342625,
          "velocity": 1
        },
        {
          "duration": 0.2631575000000055,
          "durationTicks": 500,
          "midi": 50,
          "name": "D3",
          "ticks": 327500,
          "time": 172.36816249999998,
          "velocity": 1
        },
        {
          "duration": 0.2631575000000055,
          "durationTicks": 500,
          "midi": 38,
          "name": "D2",
          "ticks": 327500,
          "time": 172.36816249999998,
          "velocity": 1
        },
        {
          "duration": 0.394736249999994,
          "durationTicks": 750,
          "midi": 55,
          "name": "G3",
          "ticks": 328000,
          "time": 172.63132,
          "velocity": 1
        },
        {
          "duration": 0.394736249999994,
          "durationTicks": 750,
          "midi": 43,
          "name": "G2",
          "ticks": 328000,
          "time": 172.63132,
          "velocity": 1
        },
        {
          "duration": 0.39473625000002244,
          "durationTicks": 750,
          "midi": 62,
          "name": "D4",
          "ticks": 328750,
          "time": 173.02605624999998,
          "velocity": 1
        },
        {
          "duration": 0.39473625000002244,
          "durationTicks": 750,
          "midi": 50,
          "name": "D3",
          "ticks": 328750,
          "time": 173.02605624999998,
          "velocity": 1
        },
        {
          "duration": 0.26315749999997706,
          "durationTicks": 500,
          "midi": 55,
          "name": "G3",
          "ticks": 329500,
          "time": 173.4207925,
          "velocity": 1
        },
        {
          "duration": 0.26315749999997706,
          "durationTicks": 500,
          "midi": 43,
          "name": "G2",
          "ticks": 329500,
          "time": 173.4207925,
          "velocity": 1
        },
        {
          "duration": 0.39473625000002244,
          "durationTicks": 750,
          "midi": 53,
          "name": "F3",
          "ticks": 330000,
          "time": 173.68394999999998,
          "velocity": 1
        },
        {
          "duration": 0.39473625000002244,
          "durationTicks": 750,
          "midi": 41,
          "name": "F2",
          "ticks": 330000,
          "time": 173.68394999999998,
          "velocity": 1
        },
        {
          "duration": 0.394736249999994,
          "durationTicks": 750,
          "midi": 60,
          "name": "C4",
          "ticks": 330750,
          "time": 174.07868625,
          "velocity": 1
        },
        {
          "duration": 0.394736249999994,
          "durationTicks": 750,
          "midi": 48,
          "name": "C3",
          "ticks": 330750,
          "time": 174.07868625,
          "velocity": 1
        },
        {
          "duration": 0.2631575000000055,
          "durationTicks": 500,
          "midi": 53,
          "name": "F3",
          "ticks": 331500,
          "time": 174.4734225,
          "velocity": 1
        },
        {
          "duration": 0.2631575000000055,
          "durationTicks": 500,
          "midi": 41,
          "name": "F2",
          "ticks": 331500,
          "time": 174.4734225,
          "velocity": 1
        },
        {
          "duration": 0.394736249999994,
          "durationTicks": 750,
          "midi": 58,
          "name": "A#3",
          "ticks": 332000,
          "time": 174.73658,
          "velocity": 1
        },
        {
          "duration": 0.394736249999994,
          "durationTicks": 750,
          "midi": 46,
          "name": "A#2",
          "ticks": 332000,
          "time": 174.73658,
          "velocity": 1
        },
        {
          "duration": 0.394736249999994,
          "durationTicks": 750,
          "midi": 65,
          "name": "F4",
          "ticks": 332750,
          "time": 175.13131625,
          "velocity": 1
        },
        {
          "duration": 0.394736249999994,
          "durationTicks": 750,
          "midi": 53,
          "name": "F3",
          "ticks": 332750,
          "time": 175.13131625,
          "velocity": 1
        },
        {
          "duration": 0.2631575000000055,
          "durationTicks": 500,
          "midi": 58,
          "name": "A#3",
          "ticks": 333500,
          "time": 175.5260525,
          "velocity": 1
        },
        {
          "duration": 0.2631575000000055,
          "durationTicks": 500,
          "midi": 46,
          "name": "A#2",
          "ticks": 333500,
          "time": 175.5260525,
          "velocity": 1
        },
        {
          "duration": 0.394736249999994,
          "durationTicks": 750,
          "midi": 57,
          "name": "A3",
          "ticks": 334000,
          "time": 175.78921,
          "velocity": 1
        },
        {
          "duration": 0.394736249999994,
          "durationTicks": 750,
          "midi": 45,
          "name": "A2",
          "ticks": 334000,
          "time": 175.78921,
          "velocity": 1
        },
        {
          "duration": 0.394736249999994,
          "durationTicks": 750,
          "midi": 64,
          "name": "E4",
          "ticks": 334750,
          "time": 176.18394625,
          "velocity": 1
        },
        {
          "duration": 0.394736249999994,
          "durationTicks": 750,
          "midi": 52,
          "name": "E3",
          "ticks": 334750,
          "time": 176.18394625,
          "velocity": 1
        },
        {
          "duration": 0.2631575000000055,
          "durationTicks": 500,
          "midi": 57,
          "name": "A3",
          "ticks": 335500,
          "time": 176.57868249999999,
          "velocity": 1
        },
        {
          "duration": 0.2631575000000055,
          "durationTicks": 500,
          "midi": 45,
          "name": "A2",
          "ticks": 335500,
          "time": 176.57868249999999,
          "velocity": 1
        },
        {
          "duration": 0.394736249999994,
          "durationTicks": 750,
          "midi": 50,
          "name": "D3",
          "ticks": 336000,
          "time": 176.84184,
          "velocity": 1
        },
        {
          "duration": 0.394736249999994,
          "durationTicks": 750,
          "midi": 38,
          "name": "D2",
          "ticks": 336000,
          "time": 176.84184,
          "velocity": 1
        },
        {
          "duration": 0.394736249999994,
          "durationTicks": 750,
          "midi": 57,
          "name": "A3",
          "ticks": 336750,
          "time": 177.23657624999998,
          "velocity": 1
        },
        {
          "duration": 0.394736249999994,
          "durationTicks": 750,
          "midi": 45,
          "name": "A2",
          "ticks": 336750,
          "time": 177.23657624999998,
          "velocity": 1
        },
        {
          "duration": 0.2631575000000055,
          "durationTicks": 500,
          "midi": 50,
          "name": "D3",
          "ticks": 337500,
          "time": 177.63131249999998,
          "velocity": 1
        },
        {
          "duration": 0.2631575000000055,
          "durationTicks": 500,
          "midi": 38,
          "name": "D2",
          "ticks": 337500,
          "time": 177.63131249999998,
          "velocity": 1
        },
        {
          "duration": 0.394736249999994,
          "durationTicks": 750,
          "midi": 51,
          "name": "D#3",
          "ticks": 338000,
          "time": 177.89446999999998,
          "velocity": 1
        },
        {
          "duration": 0.394736249999994,
          "durationTicks": 750,
          "midi": 39,
          "name": "D#2",
          "ticks": 338000,
          "time": 177.89446999999998,
          "velocity": 1
        },
        {
          "duration": 0.39473625000002244,
          "durationTicks": 750,
          "midi": 58,
          "name": "A#3",
          "ticks": 338750,
          "time": 178.28920624999998,
          "velocity": 1
        },
        {
          "duration": 0.39473625000002244,
          "durationTicks": 750,
          "midi": 46,
          "name": "A#2",
          "ticks": 338750,
          "time": 178.28920624999998,
          "velocity": 1
        },
        {
          "duration": 0.2631575000000055,
          "durationTicks": 500,
          "midi": 51,
          "name": "D#3",
          "ticks": 339500,
          "time": 178.6839425,
          "velocity": 1
        },
        {
          "duration": 0.2631575000000055,
          "durationTicks": 500,
          "midi": 39,
          "name": "D#2",
          "ticks": 339500,
          "time": 178.6839425,
          "velocity": 1
        },
        {
          "duration": 0.394736249999994,
          "durationTicks": 750,
          "midi": 39,
          "name": "D#2",
          "ticks": 340000,
          "time": 178.9471,
          "velocity": 1
        },
        {
          "duration": 0.394736249999994,
          "durationTicks": 750,
          "midi": 51,
          "name": "D#3",
          "ticks": 340000,
          "time": 178.9471,
          "velocity": 1
        },
        {
          "duration": 0.394736249999994,
          "durationTicks": 750,
          "midi": 46,
          "name": "A#2",
          "ticks": 340750,
          "time": 179.34183625,
          "velocity": 1
        },
        {
          "duration": 0.394736249999994,
          "durationTicks": 750,
          "midi": 58,
          "name": "A#3",
          "ticks": 340750,
          "time": 179.34183625,
          "velocity": 1
        },
        {
          "duration": 0.2631575000000055,
          "durationTicks": 500,
          "midi": 51,
          "name": "D#3",
          "ticks": 341500,
          "time": 179.7365725,
          "velocity": 1
        },
        {
          "duration": 0.2631575000000055,
          "durationTicks": 500,
          "midi": 39,
          "name": "D#2",
          "ticks": 341500,
          "time": 179.7365725,
          "velocity": 1
        },
        {
          "duration": 0.394736249999994,
          "durationTicks": 750,
          "midi": 50,
          "name": "D3",
          "ticks": 342000,
          "time": 179.99973,
          "velocity": 1
        },
        {
          "duration": 0.394736249999994,
          "durationTicks": 750,
          "midi": 38,
          "name": "D2",
          "ticks": 342000,
          "time": 179.99973,
          "velocity": 1
        },
        {
          "duration": 0.394736249999994,
          "durationTicks": 750,
          "midi": 57,
          "name": "A3",
          "ticks": 342750,
          "time": 180.39446625,
          "velocity": 1
        },
        {
          "duration": 0.394736249999994,
          "durationTicks": 750,
          "midi": 45,
          "name": "A2",
          "ticks": 342750,
          "time": 180.39446625,
          "velocity": 1
        },
        {
          "duration": 0.2631575000000055,
          "durationTicks": 500,
          "midi": 38,
          "name": "D2",
          "ticks": 343500,
          "time": 180.7892025,
          "velocity": 1
        },
        {
          "duration": 0.2631575000000055,
          "durationTicks": 500,
          "midi": 50,
          "name": "D3",
          "ticks": 343500,
          "time": 180.7892025,
          "velocity": 1
        },
        {
          "duration": 0.394736249999994,
          "durationTicks": 750,
          "midi": 55,
          "name": "G3",
          "ticks": 344000,
          "time": 181.05236,
          "velocity": 1
        },
        {
          "duration": 0.394736249999994,
          "durationTicks": 750,
          "midi": 43,
          "name": "G2",
          "ticks": 344000,
          "time": 181.05236,
          "velocity": 1
        },
        {
          "duration": 0.394736249999994,
          "durationTicks": 750,
          "midi": 62,
          "name": "D4",
          "ticks": 344750,
          "time": 181.44709625,
          "velocity": 1
        },
        {
          "duration": 0.394736249999994,
          "durationTicks": 750,
          "midi": 50,
          "name": "D3",
          "ticks": 344750,
          "time": 181.44709625,
          "velocity": 1
        },
        {
          "duration": 0.2631575000000055,
          "durationTicks": 500,
          "midi": 43,
          "name": "G2",
          "ticks": 345500,
          "time": 181.84183249999998,
          "velocity": 1
        },
        {
          "duration": 0.2631575000000055,
          "durationTicks": 500,
          "midi": 55,
          "name": "G3",
          "ticks": 345500,
          "time": 181.84183249999998,
          "velocity": 1
        },
        {
          "duration": 0.394736249999994,
          "durationTicks": 750,
          "midi": 41,
          "name": "F2",
          "ticks": 346000,
          "time": 182.10499,
          "velocity": 1
        },
        {
          "duration": 0.394736249999994,
          "durationTicks": 750,
          "midi": 53,
          "name": "F3",
          "ticks": 346000,
          "time": 182.10499,
          "velocity": 1
        },
        {
          "duration": 0.39473625000002244,
          "durationTicks": 750,
          "midi": 60,
          "name": "C4",
          "ticks": 346750,
          "time": 182.49972624999998,
          "velocity": 1
        },
        {
          "duration": 0.39473625000002244,
          "durationTicks": 750,
          "midi": 48,
          "name": "C3",
          "ticks": 346750,
          "time": 182.49972624999998,
          "velocity": 1
        },
        {
          "duration": 0.26315749999997706,
          "durationTicks": 500,
          "midi": 41,
          "name": "F2",
          "ticks": 347500,
          "time": 182.8944625,
          "velocity": 1
        },
        {
          "duration": 0.26315749999997706,
          "durationTicks": 500,
          "midi": 53,
          "name": "F3",
          "ticks": 347500,
          "time": 182.8944625,
          "velocity": 1
        },
        {
          "duration": 0.39473625000002244,
          "durationTicks": 750,
          "midi": 46,
          "name": "A#2",
          "ticks": 348000,
          "time": 183.15761999999998,
          "velocity": 1
        },
        {
          "duration": 0.39473625000002244,
          "durationTicks": 750,
          "midi": 58,
          "name": "A#3",
          "ticks": 348000,
          "time": 183.15761999999998,
          "velocity": 1
        },
        {
          "duration": 0.394736249999994,
          "durationTicks": 750,
          "midi": 53,
          "name": "F3",
          "ticks": 348750,
          "time": 183.55235625,
          "velocity": 1
        },
        {
          "duration": 0.394736249999994,
          "durationTicks": 750,
          "midi": 65,
          "name": "F4",
          "ticks": 348750,
          "time": 183.55235625,
          "velocity": 1
        },
        {
          "duration": 0.2631575000000055,
          "durationTicks": 500,
          "midi": 46,
          "name": "A#2",
          "ticks": 349500,
          "time": 183.9470925,
          "velocity": 1
        },
        {
          "duration": 0.2631575000000055,
          "durationTicks": 500,
          "midi": 58,
          "name": "A#3",
          "ticks": 349500,
          "time": 183.9470925,
          "velocity": 1
        },
        {
          "duration": 0.394736249999994,
          "durationTicks": 750,
          "midi": 45,
          "name": "A2",
          "ticks": 350000,
          "time": 184.21025,
          "velocity": 1
        },
        {
          "duration": 0.394736249999994,
          "durationTicks": 750,
          "midi": 57,
          "name": "A3",
          "ticks": 350000,
          "time": 184.21025,
          "velocity": 1
        },
        {
          "duration": 0.394736249999994,
          "durationTicks": 750,
          "midi": 52,
          "name": "E3",
          "ticks": 350750,
          "time": 184.60498625,
          "velocity": 1
        },
        {
          "duration": 0.394736249999994,
          "durationTicks": 750,
          "midi": 64,
          "name": "E4",
          "ticks": 350750,
          "time": 184.60498625,
          "velocity": 1
        },
        {
          "duration": 0.2631575000000055,
          "durationTicks": 500,
          "midi": 45,
          "name": "A2",
          "ticks": 351500,
          "time": 184.9997225,
          "velocity": 1
        },
        {
          "duration": 0.2631575000000055,
          "durationTicks": 500,
          "midi": 57,
          "name": "A3",
          "ticks": 351500,
          "time": 184.9997225,
          "velocity": 1
        },
        {
          "duration": 0.394736249999994,
          "durationTicks": 750,
          "midi": 38,
          "name": "D2",
          "ticks": 352000,
          "time": 185.26288,
          "velocity": 1
        },
        {
          "duration": 0.394736249999994,
          "durationTicks": 750,
          "midi": 50,
          "name": "D3",
          "ticks": 352000,
          "time": 185.26288,
          "velocity": 1
        },
        {
          "duration": 0.394736249999994,
          "durationTicks": 750,
          "midi": 45,
          "name": "A2",
          "ticks": 352750,
          "time": 185.65761625,
          "velocity": 1
        },
        {
          "duration": 0.394736249999994,
          "durationTicks": 750,
          "midi": 57,
          "name": "A3",
          "ticks": 352750,
          "time": 185.65761625,
          "velocity": 1
        },
        {
          "duration": 0.2631575000000055,
          "durationTicks": 500,
          "midi": 38,
          "name": "D2",
          "ticks": 353500,
          "time": 186.05235249999998,
          "velocity": 1
        },
        {
          "duration": 0.2631575000000055,
          "durationTicks": 500,
          "midi": 50,
          "name": "D3",
          "ticks": 353500,
          "time": 186.05235249999998,
          "velocity": 1
        },
        {
          "duration": 0.394736249999994,
          "durationTicks": 750,
          "midi": 39,
          "name": "D#2",
          "ticks": 354000,
          "time": 186.31551,
          "velocity": 1
        },
        {
          "duration": 0.394736249999994,
          "durationTicks": 750,
          "midi": 51,
          "name": "D#3",
          "ticks": 354000,
          "time": 186.31551,
          "velocity": 1
        },
        {
          "duration": 0.2631575000000055,
          "durationTicks": 500,
          "midi": 46,
          "name": "A#2",
          "ticks": 356000,
          "time": 187.36813999999998,
          "velocity": 1
        },
        {
          "duration": 0.2631575000000055,
          "durationTicks": 500,
          "midi": 58,
          "name": "A#3",
          "ticks": 356000,
          "time": 187.36813999999998,
          "velocity": 1
        },
        {
          "duration": 0.2631575000000055,
          "durationTicks": 500,
          "midi": 46,
          "name": "A#2",
          "ticks": 356500,
          "time": 187.6312975,
          "velocity": 1
        },
        {
          "duration": 0.2631575000000055,
          "durationTicks": 500,
          "midi": 58,
          "name": "A#3",
          "ticks": 356500,
          "time": 187.6312975,
          "velocity": 1
        },
        {
          "duration": 0.526315000000011,
          "durationTicks": 1000,
          "midi": 46,
          "name": "A#2",
          "ticks": 357000,
          "time": 187.894455,
          "velocity": 1
        },
        {
          "duration": 0.2631575000000055,
          "durationTicks": 500,
          "midi": 58,
          "name": "A#3",
          "ticks": 357000,
          "time": 187.894455,
          "velocity": 1
        },
        {
          "duration": 0.2631575000000055,
          "durationTicks": 500,
          "midi": 58,
          "name": "A#3",
          "ticks": 357500,
          "time": 188.1576125,
          "velocity": 1
        },
        {
          "duration": 0.26315749999997706,
          "durationTicks": 500,
          "midi": 50,
          "name": "D3",
          "ticks": 358000,
          "time": 188.42077,
          "velocity": 1
        },
        {
          "duration": 0.26315749999997706,
          "durationTicks": 500,
          "midi": 62,
          "name": "D4",
          "ticks": 358000,
          "time": 188.42077,
          "velocity": 1
        },
        {
          "duration": 0.2631575000000055,
          "durationTicks": 500,
          "midi": 50,
          "name": "D3",
          "ticks": 358500,
          "time": 188.68392749999998,
          "velocity": 1
        },
        {
          "duration": 0.2631575000000055,
          "durationTicks": 500,
          "midi": 62,
          "name": "D4",
          "ticks": 358500,
          "time": 188.68392749999998,
          "velocity": 1
        },
        {
          "duration": 0.526315000000011,
          "durationTicks": 1000,
          "midi": 50,
          "name": "D3",
          "ticks": 359000,
          "time": 188.947085,
          "velocity": 1
        },
        {
          "duration": 0.2631575000000055,
          "durationTicks": 500,
          "midi": 62,
          "name": "D4",
          "ticks": 359000,
          "time": 188.947085,
          "velocity": 1
        },
        {
          "duration": 0.2631575000000055,
          "durationTicks": 500,
          "midi": 62,
          "name": "D4",
          "ticks": 359500,
          "time": 189.2102425,
          "velocity": 1
        },
        {
          "duration": 0.2631575000000055,
          "durationTicks": 500,
          "midi": 55,
          "name": "G3",
          "ticks": 360000,
          "time": 189.4734,
          "velocity": 1
        },
        {
          "duration": 0.2631575000000055,
          "durationTicks": 500,
          "midi": 67,
          "name": "G4",
          "ticks": 360000,
          "time": 189.4734,
          "velocity": 1
        },
        {
          "duration": 0.26315749999997706,
          "durationTicks": 500,
          "midi": 55,
          "name": "G3",
          "ticks": 360500,
          "time": 189.7365575,
          "velocity": 1
        },
        {
          "duration": 0.26315749999997706,
          "durationTicks": 500,
          "midi": 67,
          "name": "G4",
          "ticks": 360500,
          "time": 189.7365575,
          "velocity": 1
        },
        {
          "duration": 0.526315000000011,
          "durationTicks": 1000,
          "midi": 55,
          "name": "G3",
          "ticks": 361000,
          "time": 189.99971499999998,
          "velocity": 1
        },
        {
          "duration": 0.2631575000000055,
          "durationTicks": 500,
          "midi": 67,
          "name": "G4",
          "ticks": 361000,
          "time": 189.99971499999998,
          "velocity": 1
        },
        {
          "duration": 0.2631575000000055,
          "durationTicks": 500,
          "midi": 67,
          "name": "G4",
          "ticks": 361500,
          "time": 190.2628725,
          "velocity": 1
        },
        {
          "duration": 0.2631575000000055,
          "durationTicks": 500,
          "midi": 53,
          "name": "F3",
          "ticks": 362000,
          "time": 190.52603,
          "velocity": 1
        },
        {
          "duration": 0.2631575000000055,
          "durationTicks": 500,
          "midi": 65,
          "name": "F4",
          "ticks": 362000,
          "time": 190.52603,
          "velocity": 1
        },
        {
          "duration": 0.2631575000000055,
          "durationTicks": 500,
          "midi": 53,
          "name": "F3",
          "ticks": 362500,
          "time": 190.7891875,
          "velocity": 1
        },
        {
          "duration": 0.2631575000000055,
          "durationTicks": 500,
          "midi": 65,
          "name": "F4",
          "ticks": 362500,
          "time": 190.7891875,
          "velocity": 1
        },
        {
          "duration": 0.5263149999999825,
          "durationTicks": 1000,
          "midi": 53,
          "name": "F3",
          "ticks": 363000,
          "time": 191.052345,
          "velocity": 1
        },
        {
          "duration": 0.26315749999997706,
          "durationTicks": 500,
          "midi": 65,
          "name": "F4",
          "ticks": 363000,
          "time": 191.052345,
          "velocity": 1
        },
        {
          "duration": 0.2631575000000055,
          "durationTicks": 500,
          "midi": 65,
          "name": "F4",
          "ticks": 363500,
          "time": 191.31550249999998,
          "velocity": 1
        },
        {
          "duration": 0.2631575000000055,
          "durationTicks": 500,
          "midi": 46,
          "name": "A#2",
          "ticks": 364000,
          "time": 191.57865999999999,
          "velocity": 1
        },
        {
          "duration": 0.2631575000000055,
          "durationTicks": 500,
          "midi": 58,
          "name": "A#3",
          "ticks": 364000,
          "time": 191.57865999999999,
          "velocity": 1
        },
        {
          "duration": 0.2631575000000055,
          "durationTicks": 500,
          "midi": 46,
          "name": "A#2",
          "ticks": 364500,
          "time": 191.8418175,
          "velocity": 1
        },
        {
          "duration": 0.2631575000000055,
          "durationTicks": 500,
          "midi": 58,
          "name": "A#3",
          "ticks": 364500,
          "time": 191.8418175,
          "velocity": 1
        },
        {
          "duration": 0.5263149999999825,
          "durationTicks": 1000,
          "midi": 46,
          "name": "A#2",
          "ticks": 365000,
          "time": 192.104975,
          "velocity": 1
        },
        {
          "duration": 0.2631575000000055,
          "durationTicks": 500,
          "midi": 58,
          "name": "A#3",
          "ticks": 365000,
          "time": 192.104975,
          "velocity": 1
        },
        {
          "duration": 0.26315749999997706,
          "durationTicks": 500,
          "midi": 58,
          "name": "A#3",
          "ticks": 365500,
          "time": 192.3681325,
          "velocity": 1
        },
        {
          "duration": 0.2631575000000055,
          "durationTicks": 500,
          "midi": 50,
          "name": "D3",
          "ticks": 366000,
          "time": 192.63128999999998,
          "velocity": 1
        },
        {
          "duration": 0.2631575000000055,
          "durationTicks": 500,
          "midi": 62,
          "name": "D4",
          "ticks": 366000,
          "time": 192.63128999999998,
          "velocity": 1
        },
        {
          "duration": 0.2631575000000055,
          "durationTicks": 500,
          "midi": 50,
          "name": "D3",
          "ticks": 366500,
          "time": 192.89444749999998,
          "velocity": 1
        },
        {
          "duration": 0.2631575000000055,
          "durationTicks": 500,
          "midi": 62,
          "name": "D4",
          "ticks": 366500,
          "time": 192.89444749999998,
          "velocity": 1
        },
        {
          "duration": 0.526315000000011,
          "durationTicks": 1000,
          "midi": 50,
          "name": "D3",
          "ticks": 367000,
          "time": 193.157605,
          "velocity": 1
        },
        {
          "duration": 0.2631575000000055,
          "durationTicks": 500,
          "midi": 62,
          "name": "D4",
          "ticks": 367000,
          "time": 193.157605,
          "velocity": 1
        },
        {
          "duration": 0.2631575000000055,
          "durationTicks": 500,
          "midi": 62,
          "name": "D4",
          "ticks": 367500,
          "time": 193.4207625,
          "velocity": 1
        },
        {
          "duration": 0.26315749999997706,
          "durationTicks": 500,
          "midi": 55,
          "name": "G3",
          "ticks": 368000,
          "time": 193.68392,
          "velocity": 1
        },
        {
          "duration": 0.26315749999997706,
          "durationTicks": 500,
          "midi": 67,
          "name": "G4",
          "ticks": 368000,
          "time": 193.68392,
          "velocity": 1
        },
        {
          "duration": 0.2631575000000055,
          "durationTicks": 500,
          "midi": 55,
          "name": "G3",
          "ticks": 368500,
          "time": 193.94707749999998,
          "velocity": 1
        },
        {
          "duration": 0.2631575000000055,
          "durationTicks": 500,
          "midi": 67,
          "name": "G4",
          "ticks": 368500,
          "time": 193.94707749999998,
          "velocity": 1
        },
        {
          "duration": 0.526315000000011,
          "durationTicks": 1000,
          "midi": 55,
          "name": "G3",
          "ticks": 369000,
          "time": 194.21023499999998,
          "velocity": 1
        },
        {
          "duration": 0.2631575000000055,
          "durationTicks": 500,
          "midi": 67,
          "name": "G4",
          "ticks": 369000,
          "time": 194.21023499999998,
          "velocity": 1
        },
        {
          "duration": 0.2631575000000055,
          "durationTicks": 500,
          "midi": 67,
          "name": "G4",
          "ticks": 369500,
          "time": 194.4733925,
          "velocity": 1
        },
        {
          "duration": 0.2631575000000055,
          "durationTicks": 500,
          "midi": 53,
          "name": "F3",
          "ticks": 370000,
          "time": 194.73655,
          "velocity": 1
        },
        {
          "duration": 0.2631575000000055,
          "durationTicks": 500,
          "midi": 65,
          "name": "F4",
          "ticks": 370000,
          "time": 194.73655,
          "velocity": 1
        },
        {
          "duration": 0.2631575000000055,
          "durationTicks": 500,
          "midi": 53,
          "name": "F3",
          "ticks": 370500,
          "time": 194.9997075,
          "velocity": 1
        },
        {
          "duration": 0.2631575000000055,
          "durationTicks": 500,
          "midi": 65,
          "name": "F4",
          "ticks": 370500,
          "time": 194.9997075,
          "velocity": 1
        },
        {
          "duration": 0.5263149999999825,
          "durationTicks": 1000,
          "midi": 53,
          "name": "F3",
          "ticks": 371000,
          "time": 195.262865,
          "velocity": 1
        },
        {
          "duration": 0.26315749999997706,
          "durationTicks": 500,
          "midi": 65,
          "name": "F4",
          "ticks": 371000,
          "time": 195.262865,
          "velocity": 1
        },
        {
          "duration": 0.2631575000000055,
          "durationTicks": 500,
          "midi": 65,
          "name": "F4",
          "ticks": 371500,
          "time": 195.52602249999998,
          "velocity": 1
        },
        {
          "duration": 0.2631575000000055,
          "durationTicks": 500,
          "midi": 46,
          "name": "A#2",
          "ticks": 372000,
          "time": 195.78918,
          "velocity": 1
        },
        {
          "duration": 0.2631575000000055,
          "durationTicks": 500,
          "midi": 58,
          "name": "A#3",
          "ticks": 372000,
          "time": 195.78918,
          "velocity": 1
        },
        {
          "duration": 0.2631575000000055,
          "durationTicks": 500,
          "midi": 46,
          "name": "A#2",
          "ticks": 372500,
          "time": 196.0523375,
          "velocity": 1
        },
        {
          "duration": 0.2631575000000055,
          "durationTicks": 500,
          "midi": 58,
          "name": "A#3",
          "ticks": 372500,
          "time": 196.0523375,
          "velocity": 1
        },
        {
          "duration": 0.5263149999999825,
          "durationTicks": 1000,
          "midi": 46,
          "name": "A#2",
          "ticks": 373000,
          "time": 196.315495,
          "velocity": 1
        },
        {
          "duration": 0.2631575000000055,
          "durationTicks": 500,
          "midi": 58,
          "name": "A#3",
          "ticks": 373000,
          "time": 196.315495,
          "velocity": 1
        },
        {
          "duration": 0.26315749999997706,
          "durationTicks": 500,
          "midi": 58,
          "name": "A#3",
          "ticks": 373500,
          "time": 196.5786525,
          "velocity": 1
        },
        {
          "duration": 0.2631575000000055,
          "durationTicks": 500,
          "midi": 50,
          "name": "D3",
          "ticks": 374000,
          "time": 196.84180999999998,
          "velocity": 1
        },
        {
          "duration": 0.2631575000000055,
          "durationTicks": 500,
          "midi": 62,
          "name": "D4",
          "ticks": 374000,
          "time": 196.84180999999998,
          "velocity": 1
        },
        {
          "duration": 0.2631575000000055,
          "durationTicks": 500,
          "midi": 50,
          "name": "D3",
          "ticks": 374500,
          "time": 197.1049675,
          "velocity": 1
        },
        {
          "duration": 0.2631575000000055,
          "durationTicks": 500,
          "midi": 62,
          "name": "D4",
          "ticks": 374500,
          "time": 197.1049675,
          "velocity": 1
        },
        {
          "duration": 0.526315000000011,
          "durationTicks": 1000,
          "midi": 50,
          "name": "D3",
          "ticks": 375000,
          "time": 197.368125,
          "velocity": 1
        },
        {
          "duration": 0.2631575000000055,
          "durationTicks": 500,
          "midi": 62,
          "name": "D4",
          "ticks": 375000,
          "time": 197.368125,
          "velocity": 1
        },
        {
          "duration": 0.2631575000000055,
          "durationTicks": 500,
          "midi": 62,
          "name": "D4",
          "ticks": 375500,
          "time": 197.6312825,
          "velocity": 1
        },
        {
          "duration": 0.26315749999997706,
          "durationTicks": 500,
          "midi": 52,
          "name": "E3",
          "ticks": 376000,
          "time": 197.89444,
          "velocity": 1
        },
        {
          "duration": 0.26315749999997706,
          "durationTicks": 500,
          "midi": 64,
          "name": "E4",
          "ticks": 376000,
          "time": 197.89444,
          "velocity": 1
        },
        {
          "duration": 0.2631575000000055,
          "durationTicks": 500,
          "midi": 52,
          "name": "E3",
          "ticks": 376500,
          "time": 198.15759749999998,
          "velocity": 1
        },
        {
          "duration": 0.2631575000000055,
          "durationTicks": 500,
          "midi": 64,
          "name": "E4",
          "ticks": 376500,
          "time": 198.15759749999998,
          "velocity": 1
        },
        {
          "duration": 0.526315000000011,
          "durationTicks": 1000,
          "midi": 52,
          "name": "E3",
          "ticks": 377000,
          "time": 198.42075499999999,
          "velocity": 1
        },
        {
          "duration": 0.2631575000000055,
          "durationTicks": 500,
          "midi": 64,
          "name": "E4",
          "ticks": 377000,
          "time": 198.42075499999999,
          "velocity": 1
        },
        {
          "duration": 0.2631575000000055,
          "durationTicks": 500,
          "midi": 64,
          "name": "E4",
          "ticks": 377500,
          "time": 198.6839125,
          "velocity": 1
        },
        {
          "duration": 0.2631575000000055,
          "durationTicks": 500,
          "midi": 51,
          "name": "D#3",
          "ticks": 378000,
          "time": 198.94707,
          "velocity": 1
        },
        {
          "duration": 0.2631575000000055,
          "durationTicks": 500,
          "midi": 63,
          "name": "D#4",
          "ticks": 378000,
          "time": 198.94707,
          "velocity": 1
        },
        {
          "duration": 0.26315749999997706,
          "durationTicks": 500,
          "midi": 51,
          "name": "D#3",
          "ticks": 378500,
          "time": 199.2102275,
          "velocity": 1
        },
        {
          "duration": 0.26315749999997706,
          "durationTicks": 500,
          "midi": 63,
          "name": "D#4",
          "ticks": 378500,
          "time": 199.2102275,
          "velocity": 1
        },
        {
          "duration": 0.526315000000011,
          "durationTicks": 1000,
          "midi": 51,
          "name": "D#3",
          "ticks": 379000,
          "time": 199.47338499999998,
          "velocity": 1
        },
        {
          "duration": 0.2631575000000055,
          "durationTicks": 500,
          "midi": 63,
          "name": "D#4",
          "ticks": 379000,
          "time": 199.47338499999998,
          "velocity": 1
        },
        {
          "duration": 0.2631575000000055,
          "durationTicks": 500,
          "midi": 63,
          "name": "D#4",
          "ticks": 379500,
          "time": 199.73654249999998,
          "velocity": 1
        },
        {
          "duration": 0.2631575000000055,
          "durationTicks": 500,
          "midi": 48,
          "name": "C3",
          "ticks": 380000,
          "time": 199.9997,
          "velocity": 1
        },
        {
          "duration": 0.2631575000000055,
          "durationTicks": 500,
          "midi": 60,
          "name": "C4",
          "ticks": 380500,
          "time": 200.2628575,
          "velocity": 1
        },
        {
          "duration": 0.26315749999997706,
          "durationTicks": 500,
          "midi": 48,
          "name": "C3",
          "ticks": 381000,
          "time": 200.526015,
          "velocity": 1
        },
        {
          "duration": 0.2631575000000055,
          "durationTicks": 500,
          "midi": 60,
          "name": "C4",
          "ticks": 381500,
          "time": 200.78917249999998,
          "velocity": 1
        },
        {
          "duration": 0.2631575000000055,
          "durationTicks": 500,
          "midi": 50,
          "name": "D3",
          "ticks": 382000,
          "time": 201.05232999999998,
          "velocity": 1
        },
        {
          "duration": 0.2631575000000055,
          "durationTicks": 500,
          "midi": 62,
          "name": "D4",
          "ticks": 382500,
          "time": 201.3154875,
          "velocity": 1
        },
        {
          "duration": 0.2631575000000055,
          "durationTicks": 500,
          "midi": 50,
          "name": "D3",
          "ticks": 383000,
          "time": 201.578645,
          "velocity": 1
        },
        {
          "duration": 0.2631575000000055,
          "durationTicks": 500,
          "midi": 62,
          "name": "D4",
          "ticks": 383500,
          "time": 201.8418025,
          "velocity": 1
        },
        {
          "duration": 0.26315749999997706,
          "durationTicks": 500,
          "midi": 51,
          "name": "D#3",
          "ticks": 384000,
          "time": 202.10496,
          "velocity": 1
        },
        {
          "duration": 0.2631575000000055,
          "durationTicks": 500,
          "midi": 63,
          "name": "D#4",
          "ticks": 384500,
          "time": 202.36811749999998,
          "velocity": 1
        },
        {
          "duration": 0.2631575000000055,
          "durationTicks": 500,
          "midi": 51,
          "name": "D#3",
          "ticks": 385000,
          "time": 202.631275,
          "velocity": 1
        },
        {
          "duration": 0.2631575000000055,
          "durationTicks": 500,
          "midi": 63,
          "name": "D#4",
          "ticks": 385500,
          "time": 202.8944325,
          "velocity": 1
        },
        {
          "duration": 0.5263149999999825,
          "durationTicks": 1000,
          "midi": 60,
          "name": "C4",
          "ticks": 386000,
          "time": 203.15759,
          "velocity": 1
        },
        {
          "duration": 0.5263149999999825,
          "durationTicks": 1000,
          "midi": 57,
          "name": "A3",
          "ticks": 386000,
          "time": 203.15759,
          "velocity": 1
        },
        {
          "duration": 0.5263149999999825,
          "durationTicks": 1000,
          "midi": 53,
          "name": "F3",
          "ticks": 386000,
          "time": 203.15759,
          "velocity": 1
        },
        {
          "duration": 0.2631575000000055,
          "durationTicks": 500,
          "midi": 48,
          "name": "C3",
          "ticks": 388000,
          "time": 204.21022,
          "velocity": 1
        },
        {
          "duration": 0.2631575000000055,
          "durationTicks": 500,
          "midi": 60,
          "name": "C4",
          "ticks": 388500,
          "time": 204.4733775,
          "velocity": 1
        },
        {
          "duration": 0.26315749999997706,
          "durationTicks": 500,
          "midi": 48,
          "name": "C3",
          "ticks": 389000,
          "time": 204.736535,
          "velocity": 1
        },
        {
          "duration": 0.2631575000000055,
          "durationTicks": 500,
          "midi": 60,
          "name": "C4",
          "ticks": 389500,
          "time": 204.99969249999998,
          "velocity": 1
        },
        {
          "duration": 0.2631575000000055,
          "durationTicks": 500,
          "midi": 50,
          "name": "D3",
          "ticks": 390000,
          "time": 205.26285,
          "velocity": 1
        },
        {
          "duration": 0.2631575000000055,
          "durationTicks": 500,
          "midi": 62,
          "name": "D4",
          "ticks": 390500,
          "time": 205.5260075,
          "velocity": 1
        },
        {
          "duration": 0.2631575000000055,
          "durationTicks": 500,
          "midi": 50,
          "name": "D3",
          "ticks": 391000,
          "time": 205.789165,
          "velocity": 1
        },
        {
          "duration": 0.26315749999997706,
          "durationTicks": 500,
          "midi": 62,
          "name": "D4",
          "ticks": 391500,
          "time": 206.0523225,
          "velocity": 1
        },
        {
          "duration": 0.2631575000000055,
          "durationTicks": 500,
          "midi": 51,
          "name": "D#3",
          "ticks": 392000,
          "time": 206.31547999999998,
          "velocity": 1
        },
        {
          "duration": 0.2631575000000055,
          "durationTicks": 500,
          "midi": 63,
          "name": "D#4",
          "ticks": 392500,
          "time": 206.57863749999999,
          "velocity": 1
        },
        {
          "duration": 0.2631575000000055,
          "durationTicks": 500,
          "midi": 51,
          "name": "D#3",
          "ticks": 393000,
          "time": 206.841795,
          "velocity": 1
        },
        {
          "duration": 0.2631575000000055,
          "durationTicks": 500,
          "midi": 63,
          "name": "D#4",
          "ticks": 393500,
          "time": 207.1049525,
          "velocity": 1
        },
        {
          "duration": 0.5263149999999825,
          "durationTicks": 1000,
          "midi": 60,
          "name": "C4",
          "ticks": 394000,
          "time": 207.36811,
          "velocity": 1
        },
        {
          "duration": 0.5263149999999825,
          "durationTicks": 1000,
          "midi": 57,
          "name": "A3",
          "ticks": 394000,
          "time": 207.36811,
          "velocity": 1
        },
        {
          "duration": 0.5263149999999825,
          "durationTicks": 1000,
          "midi": 53,
          "name": "F3",
          "ticks": 394000,
          "time": 207.36811,
          "velocity": 1
        },
        {
          "duration": 0.2631575000000055,
          "durationTicks": 500,
          "midi": 48,
          "name": "C3",
          "ticks": 396000,
          "time": 208.42074,
          "velocity": 1
        },
        {
          "duration": 0.26315749999997706,
          "durationTicks": 500,
          "midi": 60,
          "name": "C4",
          "ticks": 396500,
          "time": 208.6838975,
          "velocity": 1
        },
        {
          "duration": 0.2631575000000055,
          "durationTicks": 500,
          "midi": 48,
          "name": "C3",
          "ticks": 397000,
          "time": 208.94705499999998,
          "velocity": 1
        },
        {
          "duration": 0.2631575000000055,
          "durationTicks": 500,
          "midi": 60,
          "name": "C4",
          "ticks": 397500,
          "time": 209.21021249999998,
          "velocity": 1
        },
        {
          "duration": 0.2631575000000055,
          "durationTicks": 500,
          "midi": 50,
          "name": "D3",
          "ticks": 398000,
          "time": 209.47337,
          "velocity": 1
        },
        {
          "duration": 0.2631575000000055,
          "durationTicks": 500,
          "midi": 62,
          "name": "D4",
          "ticks": 398500,
          "time": 209.7365275,
          "velocity": 1
        },
        {
          "duration": 0.2631575000000055,
          "durationTicks": 500,
          "midi": 50,
          "name": "D3",
          "ticks": 399000,
          "time": 209.999685,
          "velocity": 1
        },
        {
          "duration": 0.26315749999997706,
          "durationTicks": 500,
          "midi": 62,
          "name": "D4",
          "ticks": 399500,
          "time": 210.2628425,
          "velocity": 1
        },
        {
          "duration": 0.2631575000000055,
          "durationTicks": 500,
          "midi": 51,
          "name": "D#3",
          "ticks": 400000,
          "time": 210.52599999999998,
          "velocity": 1
        },
        {
          "duration": 0.2631575000000055,
          "durationTicks": 500,
          "midi": 63,
          "name": "D#4",
          "ticks": 400500,
          "time": 210.7891575,
          "velocity": 1
        },
        {
          "duration": 0.2631575000000055,
          "durationTicks": 500,
          "midi": 51,
          "name": "D#3",
          "ticks": 401000,
          "time": 211.052315,
          "velocity": 1
        },
        {
          "duration": 0.2631575000000055,
          "durationTicks": 500,
          "midi": 63,
          "name": "D#4",
          "ticks": 401500,
          "time": 211.3154725,
          "velocity": 1
        },
        {
          "duration": 0.5263149999999825,
          "durationTicks": 1000,
          "midi": 60,
          "name": "C4",
          "ticks": 402000,
          "time": 211.57863,
          "velocity": 1
        },
        {
          "duration": 0.5263149999999825,
          "durationTicks": 1000,
          "midi": 57,
          "name": "A3",
          "ticks": 402000,
          "time": 211.57863,
          "velocity": 1
        },
        {
          "duration": 0.5263149999999825,
          "durationTicks": 1000,
          "midi": 53,
          "name": "F3",
          "ticks": 402000,
          "time": 211.57863,
          "velocity": 1
        }
      ]
    },
    {
      "channel": 9,
      "controlChanges": {
        "7": [
          {
            "number": 7,
            "ticks": 0,
            "time": 0,
            "value": 0.905511811023622
          }
        ]
      },
      "pitchBends": [],
      "instrument": {
        "family": "drums",
        "number": 0,
        "name": "standard kit"
      },
      "name": "Godzilla",
      "notes": [
        {
          "duration": 0.13157875,
          "durationTicks": 250,
          "midi": 36,
          "name": "C2",
          "ticks": 0,
          "time": 0,
          "velocity": 1
        },
        {
          "duration": 0.13157875,
          "durationTicks": 250,
          "midi": 42,
          "name": "F#2",
          "ticks": 0,
          "time": 0,
          "velocity": 1
        },
        {
          "duration": 0.13157874999999997,
          "durationTicks": 250,
          "midi": 36,
          "name": "C2",
          "ticks": 1000,
          "time": 0.526315,
          "velocity": 1
        },
        {
          "duration": 0.13157874999999997,
          "durationTicks": 250,
          "midi": 42,
          "name": "F#2",
          "ticks": 1000,
          "time": 0.526315,
          "velocity": 1
        },
        {
          "duration": 0.13157875000000008,
          "durationTicks": 250,
          "midi": 36,
          "name": "C2",
          "ticks": 2000,
          "time": 1.05263,
          "velocity": 1
        },
        {
          "duration": 0.13157875000000008,
          "durationTicks": 250,
          "midi": 42,
          "name": "F#2",
          "ticks": 2000,
          "time": 1.05263,
          "velocity": 1
        },
        {
          "duration": 0.13157874999999986,
          "durationTicks": 250,
          "midi": 36,
          "name": "C2",
          "ticks": 3000,
          "time": 1.578945,
          "velocity": 1
        },
        {
          "duration": 0.13157874999999986,
          "durationTicks": 250,
          "midi": 42,
          "name": "F#2",
          "ticks": 3000,
          "time": 1.578945,
          "velocity": 1
        },
        {
          "duration": 0.13157875000000008,
          "durationTicks": 250,
          "midi": 36,
          "name": "C2",
          "ticks": 4000,
          "time": 2.10526,
          "velocity": 1
        },
        {
          "duration": 0.13157875000000008,
          "durationTicks": 250,
          "midi": 42,
          "name": "F#2",
          "ticks": 4000,
          "time": 2.10526,
          "velocity": 1
        },
        {
          "duration": 0.13157874999999963,
          "durationTicks": 250,
          "midi": 42,
          "name": "F#2",
          "ticks": 4500,
          "time": 2.3684175,
          "velocity": 1
        },
        {
          "duration": 0.13157875000000008,
          "durationTicks": 250,
          "midi": 44,
          "name": "G#2",
          "ticks": 5000,
          "time": 2.6315749999999998,
          "velocity": 1
        },
        {
          "duration": 0.13157875000000008,
          "durationTicks": 250,
          "midi": 36,
          "name": "C2",
          "ticks": 5000,
          "time": 2.6315749999999998,
          "velocity": 1
        },
        {
          "duration": 0.13157875000000008,
          "durationTicks": 250,
          "midi": 40,
          "name": "E2",
          "ticks": 5000,
          "time": 2.6315749999999998,
          "velocity": 1
        },
        {
          "duration": 0.13157875000000008,
          "durationTicks": 250,
          "midi": 44,
          "name": "G#2",
          "ticks": 5500,
          "time": 2.8947325,
          "velocity": 1
        },
        {
          "duration": 0.13157875000000008,
          "durationTicks": 250,
          "midi": 40,
          "name": "E2",
          "ticks": 5750,
          "time": 3.02631125,
          "velocity": 1
        },
        {
          "duration": 0.13157874999999963,
          "durationTicks": 250,
          "midi": 42,
          "name": "F#2",
          "ticks": 6000,
          "time": 3.15789,
          "velocity": 1
        },
        {
          "duration": 0.13157874999999963,
          "durationTicks": 250,
          "midi": 36,
          "name": "C2",
          "ticks": 6000,
          "time": 3.15789,
          "velocity": 1
        },
        {
          "duration": 0.13157875000000008,
          "durationTicks": 250,
          "midi": 40,
          "name": "E2",
          "ticks": 6250,
          "time": 3.2894687499999997,
          "velocity": 1
        },
        {
          "duration": 0.13157875000000008,
          "durationTicks": 250,
          "midi": 42,
          "name": "F#2",
          "ticks": 6500,
          "time": 3.4210475,
          "velocity": 1
        },
        {
          "duration": 0.13157875000000008,
          "durationTicks": 250,
          "midi": 44,
          "name": "G#2",
          "ticks": 7000,
          "time": 3.684205,
          "velocity": 1
        },
        {
          "duration": 0.13157875000000008,
          "durationTicks": 250,
          "midi": 36,
          "name": "C2",
          "ticks": 7000,
          "time": 3.684205,
          "velocity": 1
        },
        {
          "duration": 0.13157875000000008,
          "durationTicks": 250,
          "midi": 40,
          "name": "E2",
          "ticks": 7000,
          "time": 3.684205,
          "velocity": 1
        },
        {
          "duration": 0.13157875000000008,
          "durationTicks": 250,
          "midi": 44,
          "name": "G#2",
          "ticks": 7500,
          "time": 3.9473624999999997,
          "velocity": 1
        },
        {
          "duration": 0.13157875000000008,
          "durationTicks": 250,
          "midi": 36,
          "name": "C2",
          "ticks": 8000,
          "time": 4.21052,
          "velocity": 1
        },
        {
          "duration": 0.13157875000000008,
          "durationTicks": 250,
          "midi": 42,
          "name": "F#2",
          "ticks": 8000,
          "time": 4.21052,
          "velocity": 1
        },
        {
          "duration": 0.13157875000000008,
          "durationTicks": 250,
          "midi": 42,
          "name": "F#2",
          "ticks": 8500,
          "time": 4.4736775,
          "velocity": 1
        },
        {
          "duration": 0.13157875000000008,
          "durationTicks": 250,
          "midi": 44,
          "name": "G#2",
          "ticks": 9000,
          "time": 4.736835,
          "velocity": 1
        },
        {
          "duration": 0.13157875000000008,
          "durationTicks": 250,
          "midi": 36,
          "name": "C2",
          "ticks": 9000,
          "time": 4.736835,
          "velocity": 1
        },
        {
          "duration": 0.13157875000000008,
          "durationTicks": 250,
          "midi": 40,
          "name": "E2",
          "ticks": 9000,
          "time": 4.736835,
          "velocity": 1
        },
        {
          "duration": 0.13157875000000008,
          "durationTicks": 250,
          "midi": 44,
          "name": "G#2",
          "ticks": 9500,
          "time": 4.999992499999999,
          "velocity": 1
        },
        {
          "duration": 0.13157875000000008,
          "durationTicks": 250,
          "midi": 40,
          "name": "E2",
          "ticks": 9750,
          "time": 5.1315712499999995,
          "velocity": 1
        },
        {
          "duration": 0.13157875000000008,
          "durationTicks": 250,
          "midi": 42,
          "name": "F#2",
          "ticks": 10000,
          "time": 5.2631499999999996,
          "velocity": 1
        },
        {
          "duration": 0.13157875000000008,
          "durationTicks": 250,
          "midi": 36,
          "name": "C2",
          "ticks": 10000,
          "time": 5.2631499999999996,
          "velocity": 1
        },
        {
          "duration": 0.13157875000000008,
          "durationTicks": 250,
          "midi": 40,
          "name": "E2",
          "ticks": 10250,
          "time": 5.39472875,
          "velocity": 1
        },
        {
          "duration": 0.13157875000000008,
          "durationTicks": 250,
          "midi": 42,
          "name": "F#2",
          "ticks": 10500,
          "time": 5.5263075,
          "velocity": 1
        },
        {
          "duration": 0.13157875000000008,
          "durationTicks": 250,
          "midi": 44,
          "name": "G#2",
          "ticks": 11000,
          "time": 5.789465,
          "velocity": 1
        },
        {
          "duration": 0.13157875000000008,
          "durationTicks": 250,
          "midi": 36,
          "name": "C2",
          "ticks": 11000,
          "time": 5.789465,
          "velocity": 1
        },
        {
          "duration": 0.13157875000000008,
          "durationTicks": 250,
          "midi": 40,
          "name": "E2",
          "ticks": 11000,
          "time": 5.789465,
          "velocity": 1
        },
        {
          "duration": 0.13157875000000008,
          "durationTicks": 250,
          "midi": 44,
          "name": "G#2",
          "ticks": 11500,
          "time": 6.0526225,
          "velocity": 1
        },
        {
          "duration": 0.13157875000000008,
          "durationTicks": 250,
          "midi": 38,
          "name": "D2",
          "ticks": 11500,
          "time": 6.0526225,
          "velocity": 1
        },
        {
          "duration": 0.13157875000000008,
          "durationTicks": 250,
          "midi": 40,
          "name": "E2",
          "ticks": 11750,
          "time": 6.18420125,
          "velocity": 1
        },
        {
          "duration": 0.1315787499999992,
          "durationTicks": 250,
          "midi": 36,
          "name": "C2",
          "ticks": 12000,
          "time": 6.31578,
          "velocity": 1
        },
        {
          "duration": 0.1315787499999992,
          "durationTicks": 250,
          "midi": 42,
          "name": "F#2",
          "ticks": 12000,
          "time": 6.31578,
          "velocity": 1
        },
        {
          "duration": 0.13157875000000008,
          "durationTicks": 250,
          "midi": 42,
          "name": "F#2",
          "ticks": 12500,
          "time": 6.578937499999999,
          "velocity": 1
        },
        {
          "duration": 0.13157875000000008,
          "durationTicks": 250,
          "midi": 44,
          "name": "G#2",
          "ticks": 13000,
          "time": 6.842095,
          "velocity": 1
        },
        {
          "duration": 0.13157875000000008,
          "durationTicks": 250,
          "midi": 36,
          "name": "C2",
          "ticks": 13000,
          "time": 6.842095,
          "velocity": 1
        },
        {
          "duration": 0.13157875000000008,
          "durationTicks": 250,
          "midi": 40,
          "name": "E2",
          "ticks": 13000,
          "time": 6.842095,
          "velocity": 1
        },
        {
          "duration": 0.13157875000000008,
          "durationTicks": 250,
          "midi": 44,
          "name": "G#2",
          "ticks": 13500,
          "time": 7.1052525,
          "velocity": 1
        },
        {
          "duration": 0.13157875000000008,
          "durationTicks": 250,
          "midi": 40,
          "name": "E2",
          "ticks": 13750,
          "time": 7.23683125,
          "velocity": 1
        },
        {
          "duration": 0.13157875000000008,
          "durationTicks": 250,
          "midi": 42,
          "name": "F#2",
          "ticks": 14000,
          "time": 7.36841,
          "velocity": 1
        },
        {
          "duration": 0.13157875000000008,
          "durationTicks": 250,
          "midi": 36,
          "name": "C2",
          "ticks": 14000,
          "time": 7.36841,
          "velocity": 1
        },
        {
          "duration": 0.13157875000000008,
          "durationTicks": 250,
          "midi": 40,
          "name": "E2",
          "ticks": 14250,
          "time": 7.49998875,
          "velocity": 1
        },
        {
          "duration": 0.1315787499999992,
          "durationTicks": 250,
          "midi": 42,
          "name": "F#2",
          "ticks": 14500,
          "time": 7.6315675,
          "velocity": 1
        },
        {
          "duration": 0.13157875000000097,
          "durationTicks": 250,
          "midi": 44,
          "name": "G#2",
          "ticks": 15000,
          "time": 7.894724999999999,
          "velocity": 1
        },
        {
          "duration": 0.13157875000000097,
          "durationTicks": 250,
          "midi": 36,
          "name": "C2",
          "ticks": 15000,
          "time": 7.894724999999999,
          "velocity": 1
        },
        {
          "duration": 0.13157875000000097,
          "durationTicks": 250,
          "midi": 40,
          "name": "E2",
          "ticks": 15000,
          "time": 7.894724999999999,
          "velocity": 1
        },
        {
          "duration": 0.13157875000000097,
          "durationTicks": 250,
          "midi": 44,
          "name": "G#2",
          "ticks": 15500,
          "time": 8.1578825,
          "velocity": 1
        },
        {
          "duration": 0.1315787499999992,
          "durationTicks": 250,
          "midi": 36,
          "name": "C2",
          "ticks": 16000,
          "time": 8.42104,
          "velocity": 1
        },
        {
          "duration": 0.1315787499999992,
          "durationTicks": 250,
          "midi": 42,
          "name": "F#2",
          "ticks": 16000,
          "time": 8.42104,
          "velocity": 1
        },
        {
          "duration": 0.1315787499999992,
          "durationTicks": 250,
          "midi": 42,
          "name": "F#2",
          "ticks": 16500,
          "time": 8.6841975,
          "velocity": 1
        },
        {
          "duration": 0.1315787499999992,
          "durationTicks": 250,
          "midi": 44,
          "name": "G#2",
          "ticks": 17000,
          "time": 8.947355,
          "velocity": 1
        },
        {
          "duration": 0.1315787499999992,
          "durationTicks": 250,
          "midi": 36,
          "name": "C2",
          "ticks": 17000,
          "time": 8.947355,
          "velocity": 1
        },
        {
          "duration": 0.1315787499999992,
          "durationTicks": 250,
          "midi": 40,
          "name": "E2",
          "ticks": 17000,
          "time": 8.947355,
          "velocity": 1
        },
        {
          "duration": 0.1315787499999992,
          "durationTicks": 250,
          "midi": 44,
          "name": "G#2",
          "ticks": 17500,
          "time": 9.2105125,
          "velocity": 1
        },
        {
          "duration": 0.13157875000000097,
          "durationTicks": 250,
          "midi": 40,
          "name": "E2",
          "ticks": 17750,
          "time": 9.34209125,
          "velocity": 1
        },
        {
          "duration": 0.1315787499999992,
          "durationTicks": 250,
          "midi": 42,
          "name": "F#2",
          "ticks": 18000,
          "time": 9.47367,
          "velocity": 1
        },
        {
          "duration": 0.1315787499999992,
          "durationTicks": 250,
          "midi": 36,
          "name": "C2",
          "ticks": 18000,
          "time": 9.47367,
          "velocity": 1
        },
        {
          "duration": 0.13157875000000097,
          "durationTicks": 250,
          "midi": 40,
          "name": "E2",
          "ticks": 18250,
          "time": 9.60524875,
          "velocity": 1
        },
        {
          "duration": 0.1315787499999992,
          "durationTicks": 250,
          "midi": 42,
          "name": "F#2",
          "ticks": 18500,
          "time": 9.7368275,
          "velocity": 1
        },
        {
          "duration": 0.13157875000000097,
          "durationTicks": 250,
          "midi": 44,
          "name": "G#2",
          "ticks": 19000,
          "time": 9.999984999999999,
          "velocity": 1
        },
        {
          "duration": 0.13157875000000097,
          "durationTicks": 250,
          "midi": 36,
          "name": "C2",
          "ticks": 19000,
          "time": 9.999984999999999,
          "velocity": 1
        },
        {
          "duration": 0.13157875000000097,
          "durationTicks": 250,
          "midi": 40,
          "name": "E2",
          "ticks": 19000,
          "time": 9.999984999999999,
          "velocity": 1
        },
        {
          "duration": 0.13157875000000097,
          "durationTicks": 250,
          "midi": 44,
          "name": "G#2",
          "ticks": 19500,
          "time": 10.263142499999999,
          "velocity": 1
        },
        {
          "duration": 0.13157875000000097,
          "durationTicks": 250,
          "midi": 38,
          "name": "D2",
          "ticks": 19500,
          "time": 10.263142499999999,
          "velocity": 1
        },
        {
          "duration": 0.1315787499999992,
          "durationTicks": 250,
          "midi": 40,
          "name": "E2",
          "ticks": 19750,
          "time": 10.39472125,
          "velocity": 1
        },
        {
          "duration": 0.13157875000000097,
          "durationTicks": 250,
          "midi": 36,
          "name": "C2",
          "ticks": 20000,
          "time": 10.526299999999999,
          "velocity": 1
        },
        {
          "duration": 0.13157875000000097,
          "durationTicks": 250,
          "midi": 44,
          "name": "G#2",
          "ticks": 20000,
          "time": 10.526299999999999,
          "velocity": 1
        },
        {
          "duration": 0.13157875000000097,
          "durationTicks": 250,
          "midi": 42,
          "name": "F#2",
          "ticks": 20500,
          "time": 10.7894575,
          "velocity": 1
        },
        {
          "duration": 0.13157875000000097,
          "durationTicks": 250,
          "midi": 44,
          "name": "G#2",
          "ticks": 21000,
          "time": 11.052615,
          "velocity": 1
        },
        {
          "duration": 0.13157875000000097,
          "durationTicks": 250,
          "midi": 36,
          "name": "C2",
          "ticks": 21000,
          "time": 11.052615,
          "velocity": 1
        },
        {
          "duration": 0.13157875000000097,
          "durationTicks": 250,
          "midi": 40,
          "name": "E2",
          "ticks": 21000,
          "time": 11.052615,
          "velocity": 1
        },
        {
          "duration": 0.1315787499999992,
          "durationTicks": 250,
          "midi": 44,
          "name": "G#2",
          "ticks": 21500,
          "time": 11.3157725,
          "velocity": 1
        },
        {
          "duration": 0.13157875000000097,
          "durationTicks": 250,
          "midi": 40,
          "name": "E2",
          "ticks": 21750,
          "time": 11.447351249999999,
          "velocity": 1
        },
        {
          "duration": 0.1315787499999992,
          "durationTicks": 250,
          "midi": 42,
          "name": "F#2",
          "ticks": 22000,
          "time": 11.57893,
          "velocity": 1
        },
        {
          "duration": 0.1315787499999992,
          "durationTicks": 250,
          "midi": 36,
          "name": "C2",
          "ticks": 22000,
          "time": 11.57893,
          "velocity": 1
        },
        {
          "duration": 0.13157875000000097,
          "durationTicks": 250,
          "midi": 40,
          "name": "E2",
          "ticks": 22250,
          "time": 11.710508749999999,
          "velocity": 1
        },
        {
          "duration": 0.1315787499999992,
          "durationTicks": 250,
          "midi": 42,
          "name": "F#2",
          "ticks": 22500,
          "time": 11.8420875,
          "velocity": 1
        },
        {
          "duration": 0.1315787499999992,
          "durationTicks": 250,
          "midi": 44,
          "name": "G#2",
          "ticks": 23000,
          "time": 12.105245,
          "velocity": 1
        },
        {
          "duration": 0.1315787499999992,
          "durationTicks": 250,
          "midi": 36,
          "name": "C2",
          "ticks": 23000,
          "time": 12.105245,
          "velocity": 1
        },
        {
          "duration": 0.1315787499999992,
          "durationTicks": 250,
          "midi": 40,
          "name": "E2",
          "ticks": 23000,
          "time": 12.105245,
          "velocity": 1
        },
        {
          "duration": 0.1315787499999992,
          "durationTicks": 250,
          "midi": 44,
          "name": "G#2",
          "ticks": 23500,
          "time": 12.3684025,
          "velocity": 1
        },
        {
          "duration": 0.1315787499999992,
          "durationTicks": 250,
          "midi": 36,
          "name": "C2",
          "ticks": 24000,
          "time": 12.63156,
          "velocity": 1
        },
        {
          "duration": 0.1315787499999992,
          "durationTicks": 250,
          "midi": 42,
          "name": "F#2",
          "ticks": 24000,
          "time": 12.63156,
          "velocity": 1
        },
        {
          "duration": 0.13157875000000097,
          "durationTicks": 250,
          "midi": 42,
          "name": "F#2",
          "ticks": 24500,
          "time": 12.894717499999999,
          "velocity": 1
        },
        {
          "duration": 0.13157875000000097,
          "durationTicks": 250,
          "midi": 44,
          "name": "G#2",
          "ticks": 25000,
          "time": 13.157874999999999,
          "velocity": 1
        },
        {
          "duration": 0.13157875000000097,
          "durationTicks": 250,
          "midi": 36,
          "name": "C2",
          "ticks": 25000,
          "time": 13.157874999999999,
          "velocity": 1
        },
        {
          "duration": 0.13157875000000097,
          "durationTicks": 250,
          "midi": 40,
          "name": "E2",
          "ticks": 25000,
          "time": 13.157874999999999,
          "velocity": 1
        },
        {
          "duration": 0.13157875000000097,
          "durationTicks": 250,
          "midi": 44,
          "name": "G#2",
          "ticks": 25500,
          "time": 13.421032499999999,
          "velocity": 1
        },
        {
          "duration": 0.1315787499999992,
          "durationTicks": 250,
          "midi": 40,
          "name": "E2",
          "ticks": 25750,
          "time": 13.55261125,
          "velocity": 1
        },
        {
          "duration": 0.13157875000000097,
          "durationTicks": 250,
          "midi": 42,
          "name": "F#2",
          "ticks": 26000,
          "time": 13.68419,
          "velocity": 1
        },
        {
          "duration": 0.13157875000000097,
          "durationTicks": 250,
          "midi": 36,
          "name": "C2",
          "ticks": 26000,
          "time": 13.68419,
          "velocity": 1
        },
        {
          "duration": 0.1315787499999992,
          "durationTicks": 250,
          "midi": 40,
          "name": "E2",
          "ticks": 26250,
          "time": 13.81576875,
          "velocity": 1
        },
        {
          "duration": 0.1315787499999992,
          "durationTicks": 250,
          "midi": 42,
          "name": "F#2",
          "ticks": 26500,
          "time": 13.9473475,
          "velocity": 1
        },
        {
          "duration": 0.1315787499999992,
          "durationTicks": 250,
          "midi": 44,
          "name": "G#2",
          "ticks": 27000,
          "time": 14.210505,
          "velocity": 1
        },
        {
          "duration": 0.1315787499999992,
          "durationTicks": 250,
          "midi": 36,
          "name": "C2",
          "ticks": 27000,
          "time": 14.210505,
          "velocity": 1
        },
        {
          "duration": 0.1315787499999992,
          "durationTicks": 250,
          "midi": 40,
          "name": "E2",
          "ticks": 27000,
          "time": 14.210505,
          "velocity": 1
        },
        {
          "duration": 0.1315787499999992,
          "durationTicks": 250,
          "midi": 44,
          "name": "G#2",
          "ticks": 27500,
          "time": 14.4736625,
          "velocity": 1
        },
        {
          "duration": 0.1315787499999992,
          "durationTicks": 250,
          "midi": 38,
          "name": "D2",
          "ticks": 27500,
          "time": 14.4736625,
          "velocity": 1
        },
        {
          "duration": 0.13157875000000097,
          "durationTicks": 250,
          "midi": 40,
          "name": "E2",
          "ticks": 27750,
          "time": 14.605241249999999,
          "velocity": 1
        },
        {
          "duration": 0.1315787499999992,
          "durationTicks": 250,
          "midi": 36,
          "name": "C2",
          "ticks": 28000,
          "time": 14.73682,
          "velocity": 1
        },
        {
          "duration": 0.1315787499999992,
          "durationTicks": 250,
          "midi": 42,
          "name": "F#2",
          "ticks": 28000,
          "time": 14.73682,
          "velocity": 1
        },
        {
          "duration": 0.1315787499999992,
          "durationTicks": 250,
          "midi": 42,
          "name": "F#2",
          "ticks": 28500,
          "time": 14.9999775,
          "velocity": 1
        },
        {
          "duration": 0.1315787499999992,
          "durationTicks": 250,
          "midi": 44,
          "name": "G#2",
          "ticks": 29000,
          "time": 15.263135,
          "velocity": 1
        },
        {
          "duration": 0.1315787499999992,
          "durationTicks": 250,
          "midi": 36,
          "name": "C2",
          "ticks": 29000,
          "time": 15.263135,
          "velocity": 1
        },
        {
          "duration": 0.1315787499999992,
          "durationTicks": 250,
          "midi": 40,
          "name": "E2",
          "ticks": 29000,
          "time": 15.263135,
          "velocity": 1
        },
        {
          "duration": 0.13157875000000097,
          "durationTicks": 250,
          "midi": 44,
          "name": "G#2",
          "ticks": 29500,
          "time": 15.526292499999998,
          "velocity": 1
        },
        {
          "duration": 0.1315787499999992,
          "durationTicks": 250,
          "midi": 40,
          "name": "E2",
          "ticks": 29750,
          "time": 15.65787125,
          "velocity": 1
        },
        {
          "duration": 0.13157875000000097,
          "durationTicks": 250,
          "midi": 42,
          "name": "F#2",
          "ticks": 30000,
          "time": 15.789449999999999,
          "velocity": 1
        },
        {
          "duration": 0.13157875000000097,
          "durationTicks": 250,
          "midi": 36,
          "name": "C2",
          "ticks": 30000,
          "time": 15.789449999999999,
          "velocity": 1
        },
        {
          "duration": 0.13157875000000097,
          "durationTicks": 250,
          "midi": 40,
          "name": "E2",
          "ticks": 30250,
          "time": 15.92102875,
          "velocity": 1
        },
        {
          "duration": 0.1315787499999992,
          "durationTicks": 250,
          "midi": 42,
          "name": "F#2",
          "ticks": 30500,
          "time": 16.0526075,
          "velocity": 1
        },
        {
          "duration": 0.1315787499999992,
          "durationTicks": 250,
          "midi": 44,
          "name": "G#2",
          "ticks": 31000,
          "time": 16.315765,
          "velocity": 1
        },
        {
          "duration": 0.1315787499999992,
          "durationTicks": 250,
          "midi": 36,
          "name": "C2",
          "ticks": 31000,
          "time": 16.315765,
          "velocity": 1
        },
        {
          "duration": 0.1315787499999992,
          "durationTicks": 250,
          "midi": 40,
          "name": "E2",
          "ticks": 31000,
          "time": 16.315765,
          "velocity": 1
        },
        {
          "duration": 0.1315787499999992,
          "durationTicks": 250,
          "midi": 44,
          "name": "G#2",
          "ticks": 31500,
          "time": 16.5789225,
          "velocity": 1
        },
        {
          "duration": 0.1315787499999992,
          "durationTicks": 250,
          "midi": 36,
          "name": "C2",
          "ticks": 32000,
          "time": 16.84208,
          "velocity": 1
        },
        {
          "duration": 0.1315787499999992,
          "durationTicks": 250,
          "midi": 42,
          "name": "F#2",
          "ticks": 32000,
          "time": 16.84208,
          "velocity": 1
        },
        {
          "duration": 0.13157875000000274,
          "durationTicks": 250,
          "midi": 42,
          "name": "F#2",
          "ticks": 32500,
          "time": 17.105237499999998,
          "velocity": 1
        },
        {
          "duration": 0.1315787499999992,
          "durationTicks": 250,
          "midi": 44,
          "name": "G#2",
          "ticks": 33000,
          "time": 17.368395,
          "velocity": 1
        },
        {
          "duration": 0.1315787499999992,
          "durationTicks": 250,
          "midi": 36,
          "name": "C2",
          "ticks": 33000,
          "time": 17.368395,
          "velocity": 1
        },
        {
          "duration": 0.1315787499999992,
          "durationTicks": 250,
          "midi": 40,
          "name": "E2",
          "ticks": 33000,
          "time": 17.368395,
          "velocity": 1
        },
        {
          "duration": 0.13157875000000274,
          "durationTicks": 250,
          "midi": 44,
          "name": "G#2",
          "ticks": 33500,
          "time": 17.631552499999998,
          "velocity": 1
        },
        {
          "duration": 0.1315787499999992,
          "durationTicks": 250,
          "midi": 40,
          "name": "E2",
          "ticks": 33750,
          "time": 17.76313125,
          "velocity": 1
        },
        {
          "duration": 0.1315787499999992,
          "durationTicks": 250,
          "midi": 42,
          "name": "F#2",
          "ticks": 34000,
          "time": 17.89471,
          "velocity": 1
        },
        {
          "duration": 0.1315787499999992,
          "durationTicks": 250,
          "midi": 36,
          "name": "C2",
          "ticks": 34000,
          "time": 17.89471,
          "velocity": 1
        },
        {
          "duration": 0.1315787499999992,
          "durationTicks": 250,
          "midi": 40,
          "name": "E2",
          "ticks": 34250,
          "time": 18.02628875,
          "velocity": 1
        },
        {
          "duration": 0.1315787499999992,
          "durationTicks": 250,
          "midi": 42,
          "name": "F#2",
          "ticks": 34500,
          "time": 18.1578675,
          "velocity": 1
        },
        {
          "duration": 0.1315787499999992,
          "durationTicks": 250,
          "midi": 44,
          "name": "G#2",
          "ticks": 35000,
          "time": 18.421025,
          "velocity": 1
        },
        {
          "duration": 0.1315787499999992,
          "durationTicks": 250,
          "midi": 36,
          "name": "C2",
          "ticks": 35000,
          "time": 18.421025,
          "velocity": 1
        },
        {
          "duration": 0.1315787499999992,
          "durationTicks": 250,
          "midi": 40,
          "name": "E2",
          "ticks": 35000,
          "time": 18.421025,
          "velocity": 1
        },
        {
          "duration": 0.1315787499999992,
          "durationTicks": 250,
          "midi": 44,
          "name": "G#2",
          "ticks": 35500,
          "time": 18.6841825,
          "velocity": 1
        },
        {
          "duration": 0.1315787499999992,
          "durationTicks": 250,
          "midi": 38,
          "name": "D2",
          "ticks": 35500,
          "time": 18.6841825,
          "velocity": 1
        },
        {
          "duration": 0.13157875000000274,
          "durationTicks": 250,
          "midi": 40,
          "name": "E2",
          "ticks": 35750,
          "time": 18.815761249999998,
          "velocity": 1
        },
        {
          "duration": 0.1315787499999992,
          "durationTicks": 250,
          "midi": 36,
          "name": "C2",
          "ticks": 36000,
          "time": 18.94734,
          "velocity": 1
        },
        {
          "duration": 0.1315787499999992,
          "durationTicks": 250,
          "midi": 44,
          "name": "G#2",
          "ticks": 36000,
          "time": 18.94734,
          "velocity": 1
        },
        {
          "duration": 0.1315787499999992,
          "durationTicks": 250,
          "midi": 42,
          "name": "F#2",
          "ticks": 36500,
          "time": 19.2104975,
          "velocity": 1
        },
        {
          "duration": 0.1315787499999992,
          "durationTicks": 250,
          "midi": 44,
          "name": "G#2",
          "ticks": 37000,
          "time": 19.473655,
          "velocity": 1
        },
        {
          "duration": 0.1315787499999992,
          "durationTicks": 250,
          "midi": 36,
          "name": "C2",
          "ticks": 37000,
          "time": 19.473655,
          "velocity": 1
        },
        {
          "duration": 0.1315787499999992,
          "durationTicks": 250,
          "midi": 40,
          "name": "E2",
          "ticks": 37000,
          "time": 19.473655,
          "velocity": 1
        },
        {
          "duration": 0.1315787499999992,
          "durationTicks": 250,
          "midi": 44,
          "name": "G#2",
          "ticks": 37500,
          "time": 19.7368125,
          "velocity": 1
        },
        {
          "duration": 0.1315787499999992,
          "durationTicks": 250,
          "midi": 40,
          "name": "E2",
          "ticks": 37750,
          "time": 19.86839125,
          "velocity": 1
        },
        {
          "duration": 0.13157875000000274,
          "durationTicks": 250,
          "midi": 42,
          "name": "F#2",
          "ticks": 38000,
          "time": 19.999969999999998,
          "velocity": 1
        },
        {
          "duration": 0.13157875000000274,
          "durationTicks": 250,
          "midi": 36,
          "name": "C2",
          "ticks": 38000,
          "time": 19.999969999999998,
          "velocity": 1
        },
        {
          "duration": 0.1315787499999992,
          "durationTicks": 250,
          "midi": 40,
          "name": "E2",
          "ticks": 38250,
          "time": 20.13154875,
          "velocity": 1
        },
        {
          "duration": 0.1315787499999992,
          "durationTicks": 250,
          "midi": 42,
          "name": "F#2",
          "ticks": 38500,
          "time": 20.2631275,
          "velocity": 1
        },
        {
          "duration": 0.13157875000000274,
          "durationTicks": 250,
          "midi": 44,
          "name": "G#2",
          "ticks": 39000,
          "time": 20.526284999999998,
          "velocity": 1
        },
        {
          "duration": 0.13157875000000274,
          "durationTicks": 250,
          "midi": 36,
          "name": "C2",
          "ticks": 39000,
          "time": 20.526284999999998,
          "velocity": 1
        },
        {
          "duration": 0.13157875000000274,
          "durationTicks": 250,
          "midi": 40,
          "name": "E2",
          "ticks": 39000,
          "time": 20.526284999999998,
          "velocity": 1
        },
        {
          "duration": 0.1315787499999992,
          "durationTicks": 250,
          "midi": 44,
          "name": "G#2",
          "ticks": 39500,
          "time": 20.7894425,
          "velocity": 1
        },
        {
          "duration": 0.1315787499999992,
          "durationTicks": 250,
          "midi": 36,
          "name": "C2",
          "ticks": 40000,
          "time": 21.052599999999998,
          "velocity": 1
        },
        {
          "duration": 0.1315787499999992,
          "durationTicks": 250,
          "midi": 42,
          "name": "F#2",
          "ticks": 40000,
          "time": 21.052599999999998,
          "velocity": 1
        },
        {
          "duration": 0.1315787499999992,
          "durationTicks": 250,
          "midi": 42,
          "name": "F#2",
          "ticks": 40500,
          "time": 21.3157575,
          "velocity": 1
        },
        {
          "duration": 0.1315787499999992,
          "durationTicks": 250,
          "midi": 44,
          "name": "G#2",
          "ticks": 41000,
          "time": 21.578915,
          "velocity": 1
        },
        {
          "duration": 0.1315787499999992,
          "durationTicks": 250,
          "midi": 36,
          "name": "C2",
          "ticks": 41000,
          "time": 21.578915,
          "velocity": 1
        },
        {
          "duration": 0.1315787499999992,
          "durationTicks": 250,
          "midi": 40,
          "name": "E2",
          "ticks": 41000,
          "time": 21.578915,
          "velocity": 1
        },
        {
          "duration": 0.1315787499999992,
          "durationTicks": 250,
          "midi": 44,
          "name": "G#2",
          "ticks": 41500,
          "time": 21.8420725,
          "velocity": 1
        },
        {
          "duration": 0.1315787499999992,
          "durationTicks": 250,
          "midi": 40,
          "name": "E2",
          "ticks": 41750,
          "time": 21.97365125,
          "velocity": 1
        },
        {
          "duration": 0.1315787499999992,
          "durationTicks": 250,
          "midi": 42,
          "name": "F#2",
          "ticks": 42000,
          "time": 22.10523,
          "velocity": 1
        },
        {
          "duration": 0.1315787499999992,
          "durationTicks": 250,
          "midi": 36,
          "name": "C2",
          "ticks": 42000,
          "time": 22.10523,
          "velocity": 1
        },
        {
          "duration": 0.13157875000000274,
          "durationTicks": 250,
          "midi": 40,
          "name": "E2",
          "ticks": 42250,
          "time": 22.236808749999998,
          "velocity": 1
        },
        {
          "duration": 0.1315787499999992,
          "durationTicks": 250,
          "midi": 42,
          "name": "F#2",
          "ticks": 42500,
          "time": 22.3683875,
          "velocity": 1
        },
        {
          "duration": 0.1315787499999992,
          "durationTicks": 250,
          "midi": 44,
          "name": "G#2",
          "ticks": 43000,
          "time": 22.631545,
          "velocity": 1
        },
        {
          "duration": 0.1315787499999992,
          "durationTicks": 250,
          "midi": 36,
          "name": "C2",
          "ticks": 43000,
          "time": 22.631545,
          "velocity": 1
        },
        {
          "duration": 0.1315787499999992,
          "durationTicks": 250,
          "midi": 40,
          "name": "E2",
          "ticks": 43000,
          "time": 22.631545,
          "velocity": 1
        },
        {
          "duration": 0.13157875000000274,
          "durationTicks": 250,
          "midi": 44,
          "name": "G#2",
          "ticks": 43500,
          "time": 22.894702499999998,
          "velocity": 1
        },
        {
          "duration": 0.13157875000000274,
          "durationTicks": 250,
          "midi": 38,
          "name": "D2",
          "ticks": 43500,
          "time": 22.894702499999998,
          "velocity": 1
        },
        {
          "duration": 0.1315787499999992,
          "durationTicks": 250,
          "midi": 40,
          "name": "E2",
          "ticks": 43750,
          "time": 23.02628125,
          "velocity": 1
        },
        {
          "duration": 0.1315787499999992,
          "durationTicks": 250,
          "midi": 36,
          "name": "C2",
          "ticks": 44000,
          "time": 23.15786,
          "velocity": 1
        },
        {
          "duration": 0.1315787499999992,
          "durationTicks": 250,
          "midi": 42,
          "name": "F#2",
          "ticks": 44000,
          "time": 23.15786,
          "velocity": 1
        },
        {
          "duration": 0.13157875000000274,
          "durationTicks": 250,
          "midi": 42,
          "name": "F#2",
          "ticks": 44500,
          "time": 23.421017499999998,
          "velocity": 1
        },
        {
          "duration": 0.1315787499999992,
          "durationTicks": 250,
          "midi": 44,
          "name": "G#2",
          "ticks": 45000,
          "time": 23.684175,
          "velocity": 1
        },
        {
          "duration": 0.1315787499999992,
          "durationTicks": 250,
          "midi": 36,
          "name": "C2",
          "ticks": 45000,
          "time": 23.684175,
          "velocity": 1
        },
        {
          "duration": 0.1315787499999992,
          "durationTicks": 250,
          "midi": 40,
          "name": "E2",
          "ticks": 45000,
          "time": 23.684175,
          "velocity": 1
        },
        {
          "duration": 0.1315787499999992,
          "durationTicks": 250,
          "midi": 44,
          "name": "G#2",
          "ticks": 45500,
          "time": 23.947332499999998,
          "velocity": 1
        },
        {
          "duration": 0.13157875000000274,
          "durationTicks": 250,
          "midi": 40,
          "name": "E2",
          "ticks": 45750,
          "time": 24.078911249999997,
          "velocity": 1
        },
        {
          "duration": 0.1315787499999992,
          "durationTicks": 250,
          "midi": 42,
          "name": "F#2",
          "ticks": 46000,
          "time": 24.21049,
          "velocity": 1
        },
        {
          "duration": 0.1315787499999992,
          "durationTicks": 250,
          "midi": 36,
          "name": "C2",
          "ticks": 46000,
          "time": 24.21049,
          "velocity": 1
        },
        {
          "duration": 0.1315787499999992,
          "durationTicks": 250,
          "midi": 40,
          "name": "E2",
          "ticks": 46250,
          "time": 24.34206875,
          "velocity": 1
        },
        {
          "duration": 0.1315787499999992,
          "durationTicks": 250,
          "midi": 42,
          "name": "F#2",
          "ticks": 46500,
          "time": 24.4736475,
          "velocity": 1
        },
        {
          "duration": 0.1315787499999992,
          "durationTicks": 250,
          "midi": 44,
          "name": "G#2",
          "ticks": 47000,
          "time": 24.736805,
          "velocity": 1
        },
        {
          "duration": 0.1315787499999992,
          "durationTicks": 250,
          "midi": 36,
          "name": "C2",
          "ticks": 47000,
          "time": 24.736805,
          "velocity": 1
        },
        {
          "duration": 0.1315787499999992,
          "durationTicks": 250,
          "midi": 40,
          "name": "E2",
          "ticks": 47000,
          "time": 24.736805,
          "velocity": 1
        },
        {
          "duration": 0.1315787499999992,
          "durationTicks": 250,
          "midi": 44,
          "name": "G#2",
          "ticks": 47500,
          "time": 24.9999625,
          "velocity": 1
        },
        {
          "duration": 0.1315787499999992,
          "durationTicks": 250,
          "midi": 36,
          "name": "C2",
          "ticks": 48000,
          "time": 25.26312,
          "velocity": 1
        },
        {
          "duration": 0.1315787499999992,
          "durationTicks": 250,
          "midi": 42,
          "name": "F#2",
          "ticks": 48000,
          "time": 25.26312,
          "velocity": 1
        },
        {
          "duration": 0.1315787499999992,
          "durationTicks": 250,
          "midi": 42,
          "name": "F#2",
          "ticks": 48500,
          "time": 25.5262775,
          "velocity": 1
        },
        {
          "duration": 0.13157875000000274,
          "durationTicks": 250,
          "midi": 44,
          "name": "G#2",
          "ticks": 49000,
          "time": 25.789434999999997,
          "velocity": 1
        },
        {
          "duration": 0.13157875000000274,
          "durationTicks": 250,
          "midi": 36,
          "name": "C2",
          "ticks": 49000,
          "time": 25.789434999999997,
          "velocity": 1
        },
        {
          "duration": 0.13157875000000274,
          "durationTicks": 250,
          "midi": 40,
          "name": "E2",
          "ticks": 49000,
          "time": 25.789434999999997,
          "velocity": 1
        },
        {
          "duration": 0.1315787499999992,
          "durationTicks": 250,
          "midi": 44,
          "name": "G#2",
          "ticks": 49500,
          "time": 26.0525925,
          "velocity": 1
        },
        {
          "duration": 0.1315787499999992,
          "durationTicks": 250,
          "midi": 40,
          "name": "E2",
          "ticks": 49750,
          "time": 26.18417125,
          "velocity": 1
        },
        {
          "duration": 0.13157875000000274,
          "durationTicks": 250,
          "midi": 42,
          "name": "F#2",
          "ticks": 50000,
          "time": 26.315749999999998,
          "velocity": 1
        },
        {
          "duration": 0.13157875000000274,
          "durationTicks": 250,
          "midi": 36,
          "name": "C2",
          "ticks": 50000,
          "time": 26.315749999999998,
          "velocity": 1
        },
        {
          "duration": 0.1315787499999992,
          "durationTicks": 250,
          "midi": 40,
          "name": "E2",
          "ticks": 50250,
          "time": 26.44732875,
          "velocity": 1
        },
        {
          "duration": 0.1315787499999992,
          "durationTicks": 250,
          "midi": 42,
          "name": "F#2",
          "ticks": 50500,
          "time": 26.5789075,
          "velocity": 1
        },
        {
          "duration": 0.1315787499999992,
          "durationTicks": 250,
          "midi": 44,
          "name": "G#2",
          "ticks": 51000,
          "time": 26.842064999999998,
          "velocity": 1
        },
        {
          "duration": 0.1315787499999992,
          "durationTicks": 250,
          "midi": 36,
          "name": "C2",
          "ticks": 51000,
          "time": 26.842064999999998,
          "velocity": 1
        },
        {
          "duration": 0.1315787499999992,
          "durationTicks": 250,
          "midi": 40,
          "name": "E2",
          "ticks": 51000,
          "time": 26.842064999999998,
          "velocity": 1
        },
        {
          "duration": 0.1315787499999992,
          "durationTicks": 250,
          "midi": 44,
          "name": "G#2",
          "ticks": 51500,
          "time": 27.1052225,
          "velocity": 1
        },
        {
          "duration": 0.1315787499999992,
          "durationTicks": 250,
          "midi": 38,
          "name": "D2",
          "ticks": 51500,
          "time": 27.1052225,
          "velocity": 1
        },
        {
          "duration": 0.1315787499999992,
          "durationTicks": 250,
          "midi": 40,
          "name": "E2",
          "ticks": 51750,
          "time": 27.23680125,
          "velocity": 1
        },
        {
          "duration": 0.1315787499999992,
          "durationTicks": 250,
          "midi": 36,
          "name": "C2",
          "ticks": 52000,
          "time": 27.36838,
          "velocity": 1
        },
        {
          "duration": 0.1315787499999992,
          "durationTicks": 250,
          "midi": 44,
          "name": "G#2",
          "ticks": 52000,
          "time": 27.36838,
          "velocity": 1
        },
        {
          "duration": 0.1315787499999992,
          "durationTicks": 250,
          "midi": 42,
          "name": "F#2",
          "ticks": 52500,
          "time": 27.6315375,
          "velocity": 1
        },
        {
          "duration": 0.1315787499999992,
          "durationTicks": 250,
          "midi": 44,
          "name": "G#2",
          "ticks": 53000,
          "time": 27.894695,
          "velocity": 1
        },
        {
          "duration": 0.1315787499999992,
          "durationTicks": 250,
          "midi": 36,
          "name": "C2",
          "ticks": 53000,
          "time": 27.894695,
          "velocity": 1
        },
        {
          "duration": 0.1315787499999992,
          "durationTicks": 250,
          "midi": 40,
          "name": "E2",
          "ticks": 53000,
          "time": 27.894695,
          "velocity": 1
        },
        {
          "duration": 0.13157875000000274,
          "durationTicks": 250,
          "midi": 44,
          "name": "G#2",
          "ticks": 53500,
          "time": 28.157852499999997,
          "velocity": 1
        },
        {
          "duration": 0.1315787499999992,
          "durationTicks": 250,
          "midi": 40,
          "name": "E2",
          "ticks": 53750,
          "time": 28.28943125,
          "velocity": 1
        },
        {
          "duration": 0.1315787499999992,
          "durationTicks": 250,
          "midi": 42,
          "name": "F#2",
          "ticks": 54000,
          "time": 28.42101,
          "velocity": 1
        },
        {
          "duration": 0.1315787499999992,
          "durationTicks": 250,
          "midi": 36,
          "name": "C2",
          "ticks": 54000,
          "time": 28.42101,
          "velocity": 1
        },
        {
          "duration": 0.1315787499999992,
          "durationTicks": 250,
          "midi": 40,
          "name": "E2",
          "ticks": 54250,
          "time": 28.552588749999998,
          "velocity": 1
        },
        {
          "duration": 0.13157875000000274,
          "durationTicks": 250,
          "midi": 42,
          "name": "F#2",
          "ticks": 54500,
          "time": 28.684167499999997,
          "velocity": 1
        },
        {
          "duration": 0.1315787499999992,
          "durationTicks": 250,
          "midi": 44,
          "name": "G#2",
          "ticks": 55000,
          "time": 28.947325,
          "velocity": 1
        },
        {
          "duration": 0.1315787499999992,
          "durationTicks": 250,
          "midi": 36,
          "name": "C2",
          "ticks": 55000,
          "time": 28.947325,
          "velocity": 1
        },
        {
          "duration": 0.1315787499999992,
          "durationTicks": 250,
          "midi": 40,
          "name": "E2",
          "ticks": 55000,
          "time": 28.947325,
          "velocity": 1
        },
        {
          "duration": 0.13157875000000274,
          "durationTicks": 250,
          "midi": 44,
          "name": "G#2",
          "ticks": 55500,
          "time": 29.210482499999998,
          "velocity": 1
        },
        {
          "duration": 0.1315787499999992,
          "durationTicks": 250,
          "midi": 36,
          "name": "C2",
          "ticks": 56000,
          "time": 29.47364,
          "velocity": 1
        },
        {
          "duration": 0.1315787499999992,
          "durationTicks": 250,
          "midi": 42,
          "name": "F#2",
          "ticks": 56000,
          "time": 29.47364,
          "velocity": 1
        },
        {
          "duration": 0.1315787499999992,
          "durationTicks": 250,
          "midi": 42,
          "name": "F#2",
          "ticks": 56500,
          "time": 29.736797499999998,
          "velocity": 1
        },
        {
          "duration": 0.1315787499999992,
          "durationTicks": 250,
          "midi": 44,
          "name": "G#2",
          "ticks": 57000,
          "time": 29.999955,
          "velocity": 1
        },
        {
          "duration": 0.1315787499999992,
          "durationTicks": 250,
          "midi": 36,
          "name": "C2",
          "ticks": 57000,
          "time": 29.999955,
          "velocity": 1
        },
        {
          "duration": 0.1315787499999992,
          "durationTicks": 250,
          "midi": 40,
          "name": "E2",
          "ticks": 57000,
          "time": 29.999955,
          "velocity": 1
        },
        {
          "duration": 0.1315787499999992,
          "durationTicks": 250,
          "midi": 44,
          "name": "G#2",
          "ticks": 57500,
          "time": 30.2631125,
          "velocity": 1
        },
        {
          "duration": 0.13157875000000274,
          "durationTicks": 250,
          "midi": 40,
          "name": "E2",
          "ticks": 57750,
          "time": 30.394691249999997,
          "velocity": 1
        },
        {
          "duration": 0.1315787499999992,
          "durationTicks": 250,
          "midi": 42,
          "name": "F#2",
          "ticks": 58000,
          "time": 30.52627,
          "velocity": 1
        },
        {
          "duration": 0.1315787499999992,
          "durationTicks": 250,
          "midi": 36,
          "name": "C2",
          "ticks": 58000,
          "time": 30.52627,
          "velocity": 1
        },
        {
          "duration": 0.1315787499999992,
          "durationTicks": 250,
          "midi": 40,
          "name": "E2",
          "ticks": 58250,
          "time": 30.65784875,
          "velocity": 1
        },
        {
          "duration": 0.1315787499999992,
          "durationTicks": 250,
          "midi": 42,
          "name": "F#2",
          "ticks": 58500,
          "time": 30.7894275,
          "velocity": 1
        },
        {
          "duration": 0.13157875000000274,
          "durationTicks": 250,
          "midi": 44,
          "name": "G#2",
          "ticks": 59000,
          "time": 31.052584999999997,
          "velocity": 1
        },
        {
          "duration": 0.13157875000000274,
          "durationTicks": 250,
          "midi": 36,
          "name": "C2",
          "ticks": 59000,
          "time": 31.052584999999997,
          "velocity": 1
        },
        {
          "duration": 0.13157875000000274,
          "durationTicks": 250,
          "midi": 40,
          "name": "E2",
          "ticks": 59000,
          "time": 31.052584999999997,
          "velocity": 1
        },
        {
          "duration": 0.1315787499999992,
          "durationTicks": 250,
          "midi": 44,
          "name": "G#2",
          "ticks": 59500,
          "time": 31.3157425,
          "velocity": 1
        },
        {
          "duration": 0.1315787499999992,
          "durationTicks": 250,
          "midi": 38,
          "name": "D2",
          "ticks": 59500,
          "time": 31.3157425,
          "velocity": 1
        },
        {
          "duration": 0.1315787499999992,
          "durationTicks": 250,
          "midi": 40,
          "name": "E2",
          "ticks": 59750,
          "time": 31.447321249999998,
          "velocity": 1
        },
        {
          "duration": 0.13157875000000274,
          "durationTicks": 250,
          "midi": 36,
          "name": "C2",
          "ticks": 60000,
          "time": 31.578899999999997,
          "velocity": 1
        },
        {
          "duration": 0.13157875000000274,
          "durationTicks": 250,
          "midi": 42,
          "name": "F#2",
          "ticks": 60000,
          "time": 31.578899999999997,
          "velocity": 1
        },
        {
          "duration": 0.1315787499999992,
          "durationTicks": 250,
          "midi": 42,
          "name": "F#2",
          "ticks": 60500,
          "time": 31.8420575,
          "velocity": 1
        },
        {
          "duration": 0.13157874999999564,
          "durationTicks": 250,
          "midi": 44,
          "name": "G#2",
          "ticks": 61000,
          "time": 32.105215,
          "velocity": 1
        },
        {
          "duration": 0.13157874999999564,
          "durationTicks": 250,
          "midi": 36,
          "name": "C2",
          "ticks": 61000,
          "time": 32.105215,
          "velocity": 1
        },
        {
          "duration": 0.13157874999999564,
          "durationTicks": 250,
          "midi": 40,
          "name": "E2",
          "ticks": 61000,
          "time": 32.105215,
          "velocity": 1
        },
        {
          "duration": 0.13157874999999564,
          "durationTicks": 250,
          "midi": 44,
          "name": "G#2",
          "ticks": 61500,
          "time": 32.3683725,
          "velocity": 1
        },
        {
          "duration": 0.13157875000000274,
          "durationTicks": 250,
          "midi": 40,
          "name": "E2",
          "ticks": 61750,
          "time": 32.499951249999995,
          "velocity": 1
        },
        {
          "duration": 0.13157875000000274,
          "durationTicks": 250,
          "midi": 42,
          "name": "F#2",
          "ticks": 62000,
          "time": 32.63153,
          "velocity": 1
        },
        {
          "duration": 0.13157875000000274,
          "durationTicks": 250,
          "midi": 36,
          "name": "C2",
          "ticks": 62000,
          "time": 32.63153,
          "velocity": 1
        },
        {
          "duration": 0.13157874999999564,
          "durationTicks": 250,
          "midi": 40,
          "name": "E2",
          "ticks": 62250,
          "time": 32.76310875,
          "velocity": 1
        },
        {
          "duration": 0.13157875000000274,
          "durationTicks": 250,
          "midi": 42,
          "name": "F#2",
          "ticks": 62500,
          "time": 32.894687499999996,
          "velocity": 1
        },
        {
          "duration": 0.13157874999999564,
          "durationTicks": 250,
          "midi": 44,
          "name": "G#2",
          "ticks": 63000,
          "time": 33.157845,
          "velocity": 1
        },
        {
          "duration": 0.13157874999999564,
          "durationTicks": 250,
          "midi": 36,
          "name": "C2",
          "ticks": 63000,
          "time": 33.157845,
          "velocity": 1
        },
        {
          "duration": 0.13157874999999564,
          "durationTicks": 250,
          "midi": 40,
          "name": "E2",
          "ticks": 63000,
          "time": 33.157845,
          "velocity": 1
        },
        {
          "duration": 0.13157874999999564,
          "durationTicks": 250,
          "midi": 44,
          "name": "G#2",
          "ticks": 63500,
          "time": 33.4210025,
          "velocity": 1
        },
        {
          "duration": 0.13157875000000274,
          "durationTicks": 250,
          "midi": 36,
          "name": "C2",
          "ticks": 64000,
          "time": 33.68416,
          "velocity": 1
        },
        {
          "duration": 0.13157875000000274,
          "durationTicks": 250,
          "midi": 42,
          "name": "F#2",
          "ticks": 64000,
          "time": 33.68416,
          "velocity": 1
        },
        {
          "duration": 0.13157875000000274,
          "durationTicks": 250,
          "midi": 42,
          "name": "F#2",
          "ticks": 64500,
          "time": 33.9473175,
          "velocity": 1
        },
        {
          "duration": 0.13157875000000274,
          "durationTicks": 250,
          "midi": 44,
          "name": "G#2",
          "ticks": 65000,
          "time": 34.210474999999995,
          "velocity": 1
        },
        {
          "duration": 0.13157875000000274,
          "durationTicks": 250,
          "midi": 36,
          "name": "C2",
          "ticks": 65000,
          "time": 34.210474999999995,
          "velocity": 1
        },
        {
          "duration": 0.13157875000000274,
          "durationTicks": 250,
          "midi": 40,
          "name": "E2",
          "ticks": 65000,
          "time": 34.210474999999995,
          "velocity": 1
        },
        {
          "duration": 0.13157874999999564,
          "durationTicks": 250,
          "midi": 44,
          "name": "G#2",
          "ticks": 65500,
          "time": 34.4736325,
          "velocity": 1
        },
        {
          "duration": 0.13157875000000274,
          "durationTicks": 250,
          "midi": 40,
          "name": "E2",
          "ticks": 65750,
          "time": 34.605211249999996,
          "velocity": 1
        },
        {
          "duration": 0.13157875000000274,
          "durationTicks": 250,
          "midi": 42,
          "name": "F#2",
          "ticks": 66000,
          "time": 34.73679,
          "velocity": 1
        },
        {
          "duration": 0.13157875000000274,
          "durationTicks": 250,
          "midi": 36,
          "name": "C2",
          "ticks": 66000,
          "time": 34.73679,
          "velocity": 1
        },
        {
          "duration": 0.13157874999999564,
          "durationTicks": 250,
          "midi": 40,
          "name": "E2",
          "ticks": 66250,
          "time": 34.86836875,
          "velocity": 1
        },
        {
          "duration": 0.13157875000000274,
          "durationTicks": 250,
          "midi": 42,
          "name": "F#2",
          "ticks": 66500,
          "time": 34.9999475,
          "velocity": 1
        },
        {
          "duration": 0.13157875000000274,
          "durationTicks": 250,
          "midi": 44,
          "name": "G#2",
          "ticks": 67000,
          "time": 35.263104999999996,
          "velocity": 1
        },
        {
          "duration": 0.13157875000000274,
          "durationTicks": 250,
          "midi": 36,
          "name": "C2",
          "ticks": 67000,
          "time": 35.263104999999996,
          "velocity": 1
        },
        {
          "duration": 0.13157875000000274,
          "durationTicks": 250,
          "midi": 40,
          "name": "E2",
          "ticks": 67000,
          "time": 35.263104999999996,
          "velocity": 1
        },
        {
          "duration": 0.13157874999999564,
          "durationTicks": 250,
          "midi": 44,
          "name": "G#2",
          "ticks": 67500,
          "time": 35.5262625,
          "velocity": 1
        },
        {
          "duration": 0.13157874999999564,
          "durationTicks": 250,
          "midi": 38,
          "name": "D2",
          "ticks": 67500,
          "time": 35.5262625,
          "velocity": 1
        },
        {
          "duration": 0.13157875000000274,
          "durationTicks": 250,
          "midi": 40,
          "name": "E2",
          "ticks": 67750,
          "time": 35.65784125,
          "velocity": 1
        },
        {
          "duration": 0.13157874999999564,
          "durationTicks": 250,
          "midi": 36,
          "name": "C2",
          "ticks": 68000,
          "time": 35.78942,
          "velocity": 1
        },
        {
          "duration": 0.13157874999999564,
          "durationTicks": 250,
          "midi": 44,
          "name": "G#2",
          "ticks": 68000,
          "time": 35.78942,
          "velocity": 1
        },
        {
          "duration": 0.13157875000000274,
          "durationTicks": 250,
          "midi": 42,
          "name": "F#2",
          "ticks": 68500,
          "time": 36.0525775,
          "velocity": 1
        },
        {
          "duration": 0.13157875000000274,
          "durationTicks": 250,
          "midi": 44,
          "name": "G#2",
          "ticks": 69000,
          "time": 36.315735,
          "velocity": 1
        },
        {
          "duration": 0.13157875000000274,
          "durationTicks": 250,
          "midi": 36,
          "name": "C2",
          "ticks": 69000,
          "time": 36.315735,
          "velocity": 1
        },
        {
          "duration": 0.13157875000000274,
          "durationTicks": 250,
          "midi": 40,
          "name": "E2",
          "ticks": 69000,
          "time": 36.315735,
          "velocity": 1
        },
        {
          "duration": 0.13157875000000274,
          "durationTicks": 250,
          "midi": 44,
          "name": "G#2",
          "ticks": 69500,
          "time": 36.578892499999995,
          "velocity": 1
        },
        {
          "duration": 0.13157875000000274,
          "durationTicks": 250,
          "midi": 40,
          "name": "E2",
          "ticks": 69750,
          "time": 36.71047125,
          "velocity": 1
        },
        {
          "duration": 0.13157874999999564,
          "durationTicks": 250,
          "midi": 42,
          "name": "F#2",
          "ticks": 70000,
          "time": 36.84205,
          "velocity": 1
        },
        {
          "duration": 0.13157874999999564,
          "durationTicks": 250,
          "midi": 36,
          "name": "C2",
          "ticks": 70000,
          "time": 36.84205,
          "velocity": 1
        },
        {
          "duration": 0.13157875000000274,
          "durationTicks": 250,
          "midi": 40,
          "name": "E2",
          "ticks": 70250,
          "time": 36.973628749999996,
          "velocity": 1
        },
        {
          "duration": 0.13157875000000274,
          "durationTicks": 250,
          "midi": 42,
          "name": "F#2",
          "ticks": 70500,
          "time": 37.1052075,
          "velocity": 1
        },
        {
          "duration": 0.13157875000000274,
          "durationTicks": 250,
          "midi": 44,
          "name": "G#2",
          "ticks": 71000,
          "time": 37.368365,
          "velocity": 1
        },
        {
          "duration": 0.13157875000000274,
          "durationTicks": 250,
          "midi": 36,
          "name": "C2",
          "ticks": 71000,
          "time": 37.368365,
          "velocity": 1
        },
        {
          "duration": 0.13157875000000274,
          "durationTicks": 250,
          "midi": 40,
          "name": "E2",
          "ticks": 71000,
          "time": 37.368365,
          "velocity": 1
        },
        {
          "duration": 0.13157875000000274,
          "durationTicks": 250,
          "midi": 44,
          "name": "G#2",
          "ticks": 71500,
          "time": 37.631522499999996,
          "velocity": 1
        },
        {
          "duration": 0.13157874999999564,
          "durationTicks": 250,
          "midi": 36,
          "name": "C2",
          "ticks": 72000,
          "time": 37.89468,
          "velocity": 1
        },
        {
          "duration": 0.13157874999999564,
          "durationTicks": 250,
          "midi": 42,
          "name": "F#2",
          "ticks": 72000,
          "time": 37.89468,
          "velocity": 1
        },
        {
          "duration": 0.13157874999999564,
          "durationTicks": 250,
          "midi": 42,
          "name": "F#2",
          "ticks": 72500,
          "time": 38.1578375,
          "velocity": 1
        },
        {
          "duration": 0.13157875000000274,
          "durationTicks": 250,
          "midi": 44,
          "name": "G#2",
          "ticks": 73000,
          "time": 38.420995,
          "velocity": 1
        },
        {
          "duration": 0.13157875000000274,
          "durationTicks": 250,
          "midi": 36,
          "name": "C2",
          "ticks": 73000,
          "time": 38.420995,
          "velocity": 1
        },
        {
          "duration": 0.13157875000000274,
          "durationTicks": 250,
          "midi": 40,
          "name": "E2",
          "ticks": 73000,
          "time": 38.420995,
          "velocity": 1
        },
        {
          "duration": 0.13157875000000274,
          "durationTicks": 250,
          "midi": 44,
          "name": "G#2",
          "ticks": 73500,
          "time": 38.684152499999996,
          "velocity": 1
        },
        {
          "duration": 0.13157875000000274,
          "durationTicks": 250,
          "midi": 40,
          "name": "E2",
          "ticks": 73750,
          "time": 38.81573125,
          "velocity": 1
        },
        {
          "duration": 0.13157874999999564,
          "durationTicks": 250,
          "midi": 42,
          "name": "F#2",
          "ticks": 74000,
          "time": 38.94731,
          "velocity": 1
        },
        {
          "duration": 0.13157874999999564,
          "durationTicks": 250,
          "midi": 36,
          "name": "C2",
          "ticks": 74000,
          "time": 38.94731,
          "velocity": 1
        },
        {
          "duration": 0.13157875000000274,
          "durationTicks": 250,
          "midi": 40,
          "name": "E2",
          "ticks": 74250,
          "time": 39.07888875,
          "velocity": 1
        },
        {
          "duration": 0.13157874999999564,
          "durationTicks": 250,
          "midi": 42,
          "name": "F#2",
          "ticks": 74500,
          "time": 39.2104675,
          "velocity": 1
        },
        {
          "duration": 0.13157875000000274,
          "durationTicks": 250,
          "midi": 44,
          "name": "G#2",
          "ticks": 75000,
          "time": 39.473625,
          "velocity": 1
        },
        {
          "duration": 0.13157875000000274,
          "durationTicks": 250,
          "midi": 36,
          "name": "C2",
          "ticks": 75000,
          "time": 39.473625,
          "velocity": 1
        },
        {
          "duration": 0.13157875000000274,
          "durationTicks": 250,
          "midi": 40,
          "name": "E2",
          "ticks": 75000,
          "time": 39.473625,
          "velocity": 1
        },
        {
          "duration": 0.13157875000000274,
          "durationTicks": 250,
          "midi": 44,
          "name": "G#2",
          "ticks": 75500,
          "time": 39.7367825,
          "velocity": 1
        },
        {
          "duration": 0.13157875000000274,
          "durationTicks": 250,
          "midi": 38,
          "name": "D2",
          "ticks": 75500,
          "time": 39.7367825,
          "velocity": 1
        },
        {
          "duration": 0.13157874999999564,
          "durationTicks": 250,
          "midi": 40,
          "name": "E2",
          "ticks": 75750,
          "time": 39.86836125,
          "velocity": 1
        },
        {
          "duration": 0.13157875000000274,
          "durationTicks": 250,
          "midi": 36,
          "name": "C2",
          "ticks": 76000,
          "time": 39.999939999999995,
          "velocity": 1
        },
        {
          "duration": 0.13157875000000274,
          "durationTicks": 250,
          "midi": 42,
          "name": "F#2",
          "ticks": 76000,
          "time": 39.999939999999995,
          "velocity": 1
        },
        {
          "duration": 0.13157874999999564,
          "durationTicks": 250,
          "midi": 42,
          "name": "F#2",
          "ticks": 76500,
          "time": 40.2630975,
          "velocity": 1
        },
        {
          "duration": 0.13157875000000274,
          "durationTicks": 250,
          "midi": 44,
          "name": "G#2",
          "ticks": 77000,
          "time": 40.526255,
          "velocity": 1
        },
        {
          "duration": 0.13157875000000274,
          "durationTicks": 250,
          "midi": 36,
          "name": "C2",
          "ticks": 77000,
          "time": 40.526255,
          "velocity": 1
        },
        {
          "duration": 0.13157875000000274,
          "durationTicks": 250,
          "midi": 40,
          "name": "E2",
          "ticks": 77000,
          "time": 40.526255,
          "velocity": 1
        },
        {
          "duration": 0.13157875000000274,
          "durationTicks": 250,
          "midi": 44,
          "name": "G#2",
          "ticks": 77500,
          "time": 40.7894125,
          "velocity": 1
        },
        {
          "duration": 0.13157874999999564,
          "durationTicks": 250,
          "midi": 40,
          "name": "E2",
          "ticks": 77750,
          "time": 40.92099125,
          "velocity": 1
        },
        {
          "duration": 0.13157875000000274,
          "durationTicks": 250,
          "midi": 42,
          "name": "F#2",
          "ticks": 78000,
          "time": 41.052569999999996,
          "velocity": 1
        },
        {
          "duration": 0.13157875000000274,
          "durationTicks": 250,
          "midi": 36,
          "name": "C2",
          "ticks": 78000,
          "time": 41.052569999999996,
          "velocity": 1
        },
        {
          "duration": 0.13157875000000274,
          "durationTicks": 250,
          "midi": 40,
          "name": "E2",
          "ticks": 78250,
          "time": 41.18414875,
          "velocity": 1
        },
        {
          "duration": 0.13157874999999564,
          "durationTicks": 250,
          "midi": 42,
          "name": "F#2",
          "ticks": 78500,
          "time": 41.3157275,
          "velocity": 1
        },
        {
          "duration": 0.13157874999999564,
          "durationTicks": 250,
          "midi": 44,
          "name": "G#2",
          "ticks": 79000,
          "time": 41.578885,
          "velocity": 1
        },
        {
          "duration": 0.13157874999999564,
          "durationTicks": 250,
          "midi": 36,
          "name": "C2",
          "ticks": 79000,
          "time": 41.578885,
          "velocity": 1
        },
        {
          "duration": 0.13157874999999564,
          "durationTicks": 250,
          "midi": 40,
          "name": "E2",
          "ticks": 79000,
          "time": 41.578885,
          "velocity": 1
        },
        {
          "duration": 0.13157875000000274,
          "durationTicks": 250,
          "midi": 44,
          "name": "G#2",
          "ticks": 79500,
          "time": 41.8420425,
          "velocity": 1
        },
        {
          "duration": 0.13157875000000274,
          "durationTicks": 250,
          "midi": 36,
          "name": "C2",
          "ticks": 80000,
          "time": 42.105199999999996,
          "velocity": 1
        },
        {
          "duration": 0.13157875000000274,
          "durationTicks": 250,
          "midi": 42,
          "name": "F#2",
          "ticks": 80000,
          "time": 42.105199999999996,
          "velocity": 1
        },
        {
          "duration": 0.13157875000000274,
          "durationTicks": 250,
          "midi": 42,
          "name": "F#2",
          "ticks": 80500,
          "time": 42.368357499999995,
          "velocity": 1
        },
        {
          "duration": 0.13157874999999564,
          "durationTicks": 250,
          "midi": 44,
          "name": "G#2",
          "ticks": 81000,
          "time": 42.631515,
          "velocity": 1
        },
        {
          "duration": 0.13157874999999564,
          "durationTicks": 250,
          "midi": 36,
          "name": "C2",
          "ticks": 81000,
          "time": 42.631515,
          "velocity": 1
        },
        {
          "duration": 0.13157874999999564,
          "durationTicks": 250,
          "midi": 40,
          "name": "E2",
          "ticks": 81000,
          "time": 42.631515,
          "velocity": 1
        },
        {
          "duration": 0.13157875000000274,
          "durationTicks": 250,
          "midi": 44,
          "name": "G#2",
          "ticks": 81500,
          "time": 42.8946725,
          "velocity": 1
        },
        {
          "duration": 0.13157874999999564,
          "durationTicks": 250,
          "midi": 40,
          "name": "E2",
          "ticks": 81750,
          "time": 43.02625125,
          "velocity": 1
        },
        {
          "duration": 0.13157875000000274,
          "durationTicks": 250,
          "midi": 42,
          "name": "F#2",
          "ticks": 82000,
          "time": 43.15783,
          "velocity": 1
        },
        {
          "duration": 0.13157875000000274,
          "durationTicks": 250,
          "midi": 36,
          "name": "C2",
          "ticks": 82000,
          "time": 43.15783,
          "velocity": 1
        },
        {
          "duration": 0.13157874999999564,
          "durationTicks": 250,
          "midi": 40,
          "name": "E2",
          "ticks": 82250,
          "time": 43.28940875,
          "velocity": 1
        },
        {
          "duration": 0.13157875000000274,
          "durationTicks": 250,
          "midi": 42,
          "name": "F#2",
          "ticks": 82500,
          "time": 43.420987499999995,
          "velocity": 1
        },
        {
          "duration": 0.13157874999999564,
          "durationTicks": 250,
          "midi": 44,
          "name": "G#2",
          "ticks": 83000,
          "time": 43.684145,
          "velocity": 1
        },
        {
          "duration": 0.13157874999999564,
          "durationTicks": 250,
          "midi": 36,
          "name": "C2",
          "ticks": 83000,
          "time": 43.684145,
          "velocity": 1
        },
        {
          "duration": 0.13157874999999564,
          "durationTicks": 250,
          "midi": 40,
          "name": "E2",
          "ticks": 83000,
          "time": 43.684145,
          "velocity": 1
        },
        {
          "duration": 0.13157874999999564,
          "durationTicks": 250,
          "midi": 44,
          "name": "G#2",
          "ticks": 83500,
          "time": 43.9473025,
          "velocity": 1
        },
        {
          "duration": 0.13157874999999564,
          "durationTicks": 250,
          "midi": 38,
          "name": "D2",
          "ticks": 83500,
          "time": 43.9473025,
          "velocity": 1
        },
        {
          "duration": 0.13157874999999564,
          "durationTicks": 250,
          "midi": 40,
          "name": "E2",
          "ticks": 83500,
          "time": 43.9473025,
          "velocity": 1
        },
        {
          "duration": 0.13157875000000274,
          "durationTicks": 250,
          "midi": 40,
          "name": "E2",
          "ticks": 83750,
          "time": 44.078881249999995,
          "velocity": 1
        },
        {
          "duration": 0.13157875000000274,
          "durationTicks": 250,
          "midi": 38,
          "name": "D2",
          "ticks": 83750,
          "time": 44.078881249999995,
          "velocity": 1
        },
        {
          "duration": 0.13157875000000274,
          "durationTicks": 250,
          "midi": 36,
          "name": "C2",
          "ticks": 84000,
          "time": 44.21046,
          "velocity": 1
        },
        {
          "duration": 0.13157875000000274,
          "durationTicks": 250,
          "midi": 49,
          "name": "C#3",
          "ticks": 84000,
          "time": 44.21046,
          "velocity": 1
        },
        {
          "duration": 0.13157875000000274,
          "durationTicks": 250,
          "midi": 42,
          "name": "F#2",
          "ticks": 84000,
          "time": 44.21046,
          "velocity": 1
        },
        {
          "duration": 0.13157875000000274,
          "durationTicks": 250,
          "midi": 36,
          "name": "C2",
          "ticks": 84500,
          "time": 44.473617499999996,
          "velocity": 1
        },
        {
          "duration": 0.13157875000000274,
          "durationTicks": 250,
          "midi": 42,
          "name": "F#2",
          "ticks": 84500,
          "time": 44.473617499999996,
          "velocity": 1
        },
        {
          "duration": 0.13157874999999564,
          "durationTicks": 250,
          "midi": 38,
          "name": "D2",
          "ticks": 85000,
          "time": 44.736775,
          "velocity": 1
        },
        {
          "duration": 0.13157874999999564,
          "durationTicks": 250,
          "midi": 40,
          "name": "E2",
          "ticks": 85000,
          "time": 44.736775,
          "velocity": 1
        },
        {
          "duration": 0.13157874999999564,
          "durationTicks": 250,
          "midi": 36,
          "name": "C2",
          "ticks": 85000,
          "time": 44.736775,
          "velocity": 1
        },
        {
          "duration": 0.13157874999999564,
          "durationTicks": 250,
          "midi": 44,
          "name": "G#2",
          "ticks": 85000,
          "time": 44.736775,
          "velocity": 1
        },
        {
          "duration": 0.13157874999999564,
          "durationTicks": 250,
          "midi": 42,
          "name": "F#2",
          "ticks": 85500,
          "time": 44.9999325,
          "velocity": 1
        },
        {
          "duration": 0.13157875000000274,
          "durationTicks": 250,
          "midi": 36,
          "name": "C2",
          "ticks": 86000,
          "time": 45.26309,
          "velocity": 1
        },
        {
          "duration": 0.13157875000000274,
          "durationTicks": 250,
          "midi": 42,
          "name": "F#2",
          "ticks": 86000,
          "time": 45.26309,
          "velocity": 1
        },
        {
          "duration": 0.13157875000000274,
          "durationTicks": 250,
          "midi": 36,
          "name": "C2",
          "ticks": 86500,
          "time": 45.5262475,
          "velocity": 1
        },
        {
          "duration": 0.13157875000000274,
          "durationTicks": 250,
          "midi": 42,
          "name": "F#2",
          "ticks": 86500,
          "time": 45.5262475,
          "velocity": 1
        },
        {
          "duration": 0.13157875000000274,
          "durationTicks": 250,
          "midi": 36,
          "name": "C2",
          "ticks": 87000,
          "time": 45.789404999999995,
          "velocity": 1
        },
        {
          "duration": 0.13157875000000274,
          "durationTicks": 250,
          "midi": 40,
          "name": "E2",
          "ticks": 87000,
          "time": 45.789404999999995,
          "velocity": 1
        },
        {
          "duration": 0.13157875000000274,
          "durationTicks": 250,
          "midi": 38,
          "name": "D2",
          "ticks": 87000,
          "time": 45.789404999999995,
          "velocity": 1
        },
        {
          "duration": 0.13157875000000274,
          "durationTicks": 250,
          "midi": 44,
          "name": "G#2",
          "ticks": 87000,
          "time": 45.789404999999995,
          "velocity": 1
        },
        {
          "duration": 0.13157874999999564,
          "durationTicks": 250,
          "midi": 42,
          "name": "F#2",
          "ticks": 87500,
          "time": 46.0525625,
          "velocity": 1
        },
        {
          "duration": 0.13157874999999564,
          "durationTicks": 250,
          "midi": 36,
          "name": "C2",
          "ticks": 88000,
          "time": 46.31572,
          "velocity": 1
        },
        {
          "duration": 0.13157874999999564,
          "durationTicks": 250,
          "midi": 42,
          "name": "F#2",
          "ticks": 88000,
          "time": 46.31572,
          "velocity": 1
        },
        {
          "duration": 0.13157875000000274,
          "durationTicks": 250,
          "midi": 36,
          "name": "C2",
          "ticks": 88500,
          "time": 46.5788775,
          "velocity": 1
        },
        {
          "duration": 0.13157875000000274,
          "durationTicks": 250,
          "midi": 42,
          "name": "F#2",
          "ticks": 88500,
          "time": 46.5788775,
          "velocity": 1
        },
        {
          "duration": 0.13157875000000274,
          "durationTicks": 250,
          "midi": 36,
          "name": "C2",
          "ticks": 89000,
          "time": 46.842034999999996,
          "velocity": 1
        },
        {
          "duration": 0.13157875000000274,
          "durationTicks": 250,
          "midi": 38,
          "name": "D2",
          "ticks": 89000,
          "time": 46.842034999999996,
          "velocity": 1
        },
        {
          "duration": 0.13157875000000274,
          "durationTicks": 250,
          "midi": 40,
          "name": "E2",
          "ticks": 89000,
          "time": 46.842034999999996,
          "velocity": 1
        },
        {
          "duration": 0.13157875000000274,
          "durationTicks": 250,
          "midi": 44,
          "name": "G#2",
          "ticks": 89000,
          "time": 46.842034999999996,
          "velocity": 1
        },
        {
          "duration": 0.13157874999999564,
          "durationTicks": 250,
          "midi": 42,
          "name": "F#2",
          "ticks": 89500,
          "time": 47.1051925,
          "velocity": 1
        },
        {
          "duration": 0.13157874999999564,
          "durationTicks": 250,
          "midi": 36,
          "name": "C2",
          "ticks": 90000,
          "time": 47.36835,
          "velocity": 1
        },
        {
          "duration": 0.13157874999999564,
          "durationTicks": 250,
          "midi": 42,
          "name": "F#2",
          "ticks": 90000,
          "time": 47.36835,
          "velocity": 1
        },
        {
          "duration": 0.13157875000000274,
          "durationTicks": 250,
          "midi": 36,
          "name": "C2",
          "ticks": 90500,
          "time": 47.6315075,
          "velocity": 1
        },
        {
          "duration": 0.13157875000000274,
          "durationTicks": 250,
          "midi": 42,
          "name": "F#2",
          "ticks": 90500,
          "time": 47.6315075,
          "velocity": 1
        },
        {
          "duration": 0.13157875000000274,
          "durationTicks": 250,
          "midi": 36,
          "name": "C2",
          "ticks": 91000,
          "time": 47.894664999999996,
          "velocity": 1
        },
        {
          "duration": 0.13157875000000274,
          "durationTicks": 250,
          "midi": 38,
          "name": "D2",
          "ticks": 91000,
          "time": 47.894664999999996,
          "velocity": 1
        },
        {
          "duration": 0.13157875000000274,
          "durationTicks": 250,
          "midi": 40,
          "name": "E2",
          "ticks": 91000,
          "time": 47.894664999999996,
          "velocity": 1
        },
        {
          "duration": 0.13157875000000274,
          "durationTicks": 250,
          "midi": 44,
          "name": "G#2",
          "ticks": 91000,
          "time": 47.894664999999996,
          "velocity": 1
        },
        {
          "duration": 0.13157875000000274,
          "durationTicks": 250,
          "midi": 42,
          "name": "F#2",
          "ticks": 91500,
          "time": 48.157822499999995,
          "velocity": 1
        },
        {
          "duration": 0.13157874999999564,
          "durationTicks": 250,
          "midi": 36,
          "name": "C2",
          "ticks": 92000,
          "time": 48.42098,
          "velocity": 1
        },
        {
          "duration": 0.13157874999999564,
          "durationTicks": 250,
          "midi": 42,
          "name": "F#2",
          "ticks": 92000,
          "time": 48.42098,
          "velocity": 1
        },
        {
          "duration": 0.13157875000000274,
          "durationTicks": 250,
          "midi": 36,
          "name": "C2",
          "ticks": 92500,
          "time": 48.6841375,
          "velocity": 1
        },
        {
          "duration": 0.13157875000000274,
          "durationTicks": 250,
          "midi": 42,
          "name": "F#2",
          "ticks": 92500,
          "time": 48.6841375,
          "velocity": 1
        },
        {
          "duration": 0.13157875000000274,
          "durationTicks": 250,
          "midi": 36,
          "name": "C2",
          "ticks": 93000,
          "time": 48.947295,
          "velocity": 1
        },
        {
          "duration": 0.13157875000000274,
          "durationTicks": 250,
          "midi": 38,
          "name": "D2",
          "ticks": 93000,
          "time": 48.947295,
          "velocity": 1
        },
        {
          "duration": 0.13157875000000274,
          "durationTicks": 250,
          "midi": 40,
          "name": "E2",
          "ticks": 93000,
          "time": 48.947295,
          "velocity": 1
        },
        {
          "duration": 0.13157875000000274,
          "durationTicks": 250,
          "midi": 44,
          "name": "G#2",
          "ticks": 93000,
          "time": 48.947295,
          "velocity": 1
        },
        {
          "duration": 0.13157875000000274,
          "durationTicks": 250,
          "midi": 42,
          "name": "F#2",
          "ticks": 93500,
          "time": 49.210452499999995,
          "velocity": 1
        },
        {
          "duration": 0.13157874999999564,
          "durationTicks": 250,
          "midi": 36,
          "name": "C2",
          "ticks": 94000,
          "time": 49.47361,
          "velocity": 1
        },
        {
          "duration": 0.13157874999999564,
          "durationTicks": 250,
          "midi": 42,
          "name": "F#2",
          "ticks": 94000,
          "time": 49.47361,
          "velocity": 1
        },
        {
          "duration": 0.13157874999999564,
          "durationTicks": 250,
          "midi": 36,
          "name": "C2",
          "ticks": 94500,
          "time": 49.7367675,
          "velocity": 1
        },
        {
          "duration": 0.13157874999999564,
          "durationTicks": 250,
          "midi": 42,
          "name": "F#2",
          "ticks": 94500,
          "time": 49.7367675,
          "velocity": 1
        },
        {
          "duration": 0.13157875000000274,
          "durationTicks": 250,
          "midi": 36,
          "name": "C2",
          "ticks": 95000,
          "time": 49.999925,
          "velocity": 1
        },
        {
          "duration": 0.13157875000000274,
          "durationTicks": 250,
          "midi": 38,
          "name": "D2",
          "ticks": 95000,
          "time": 49.999925,
          "velocity": 1
        },
        {
          "duration": 0.13157875000000274,
          "durationTicks": 250,
          "midi": 40,
          "name": "E2",
          "ticks": 95000,
          "time": 49.999925,
          "velocity": 1
        },
        {
          "duration": 0.13157875000000274,
          "durationTicks": 250,
          "midi": 44,
          "name": "G#2",
          "ticks": 95000,
          "time": 49.999925,
          "velocity": 1
        },
        {
          "duration": 0.13157875000000274,
          "durationTicks": 250,
          "midi": 42,
          "name": "F#2",
          "ticks": 95500,
          "time": 50.263082499999996,
          "velocity": 1
        },
        {
          "duration": 0.13157874999999564,
          "durationTicks": 250,
          "midi": 36,
          "name": "C2",
          "ticks": 96000,
          "time": 50.52624,
          "velocity": 1
        },
        {
          "duration": 0.13157874999999564,
          "durationTicks": 250,
          "midi": 42,
          "name": "F#2",
          "ticks": 96000,
          "time": 50.52624,
          "velocity": 1
        },
        {
          "duration": 0.13157874999999564,
          "durationTicks": 250,
          "midi": 36,
          "name": "C2",
          "ticks": 96500,
          "time": 50.7893975,
          "velocity": 1
        },
        {
          "duration": 0.13157874999999564,
          "durationTicks": 250,
          "midi": 42,
          "name": "F#2",
          "ticks": 96500,
          "time": 50.7893975,
          "velocity": 1
        },
        {
          "duration": 0.13157875000000274,
          "durationTicks": 250,
          "midi": 36,
          "name": "C2",
          "ticks": 97000,
          "time": 51.052555,
          "velocity": 1
        },
        {
          "duration": 0.13157875000000274,
          "durationTicks": 250,
          "midi": 38,
          "name": "D2",
          "ticks": 97000,
          "time": 51.052555,
          "velocity": 1
        },
        {
          "duration": 0.13157875000000274,
          "durationTicks": 250,
          "midi": 40,
          "name": "E2",
          "ticks": 97000,
          "time": 51.052555,
          "velocity": 1
        },
        {
          "duration": 0.13157875000000274,
          "durationTicks": 250,
          "midi": 44,
          "name": "G#2",
          "ticks": 97000,
          "time": 51.052555,
          "velocity": 1
        },
        {
          "duration": 0.13157875000000274,
          "durationTicks": 250,
          "midi": 42,
          "name": "F#2",
          "ticks": 97500,
          "time": 51.3157125,
          "velocity": 1
        },
        {
          "duration": 0.13157875000000274,
          "durationTicks": 250,
          "midi": 36,
          "name": "C2",
          "ticks": 98000,
          "time": 51.578869999999995,
          "velocity": 1
        },
        {
          "duration": 0.13157875000000274,
          "durationTicks": 250,
          "midi": 42,
          "name": "F#2",
          "ticks": 98000,
          "time": 51.578869999999995,
          "velocity": 1
        },
        {
          "duration": 0.13157874999999564,
          "durationTicks": 250,
          "midi": 36,
          "name": "C2",
          "ticks": 98500,
          "time": 51.8420275,
          "velocity": 1
        },
        {
          "duration": 0.13157874999999564,
          "durationTicks": 250,
          "midi": 42,
          "name": "F#2",
          "ticks": 98500,
          "time": 51.8420275,
          "velocity": 1
        },
        {
          "duration": 0.13157874999999564,
          "durationTicks": 250,
          "midi": 36,
          "name": "C2",
          "ticks": 99000,
          "time": 52.105185,
          "velocity": 1
        },
        {
          "duration": 0.13157874999999564,
          "durationTicks": 250,
          "midi": 38,
          "name": "D2",
          "ticks": 99000,
          "time": 52.105185,
          "velocity": 1
        },
        {
          "duration": 0.13157874999999564,
          "durationTicks": 250,
          "midi": 40,
          "name": "E2",
          "ticks": 99000,
          "time": 52.105185,
          "velocity": 1
        },
        {
          "duration": 0.13157874999999564,
          "durationTicks": 250,
          "midi": 44,
          "name": "G#2",
          "ticks": 99000,
          "time": 52.105185,
          "velocity": 1
        },
        {
          "duration": 0.13157875000000274,
          "durationTicks": 250,
          "midi": 42,
          "name": "F#2",
          "ticks": 99500,
          "time": 52.3683425,
          "velocity": 1
        },
        {
          "duration": 0.13157875000000274,
          "durationTicks": 250,
          "midi": 36,
          "name": "C2",
          "ticks": 100000,
          "time": 52.631499999999996,
          "velocity": 1
        },
        {
          "duration": 0.13157875000000274,
          "durationTicks": 250,
          "midi": 42,
          "name": "F#2",
          "ticks": 100000,
          "time": 52.631499999999996,
          "velocity": 1
        },
        {
          "duration": 0.13157874999999564,
          "durationTicks": 250,
          "midi": 36,
          "name": "C2",
          "ticks": 100500,
          "time": 52.8946575,
          "velocity": 1
        },
        {
          "duration": 0.13157874999999564,
          "durationTicks": 250,
          "midi": 42,
          "name": "F#2",
          "ticks": 100500,
          "time": 52.8946575,
          "velocity": 1
        },
        {
          "duration": 0.13157874999999564,
          "durationTicks": 250,
          "midi": 36,
          "name": "C2",
          "ticks": 101000,
          "time": 53.157815,
          "velocity": 1
        },
        {
          "duration": 0.13157874999999564,
          "durationTicks": 250,
          "midi": 38,
          "name": "D2",
          "ticks": 101000,
          "time": 53.157815,
          "velocity": 1
        },
        {
          "duration": 0.13157874999999564,
          "durationTicks": 250,
          "midi": 40,
          "name": "E2",
          "ticks": 101000,
          "time": 53.157815,
          "velocity": 1
        },
        {
          "duration": 0.13157874999999564,
          "durationTicks": 250,
          "midi": 44,
          "name": "G#2",
          "ticks": 101000,
          "time": 53.157815,
          "velocity": 1
        },
        {
          "duration": 0.13157875000000274,
          "durationTicks": 250,
          "midi": 42,
          "name": "F#2",
          "ticks": 101500,
          "time": 53.4209725,
          "velocity": 1
        },
        {
          "duration": 0.13157875000000274,
          "durationTicks": 250,
          "midi": 36,
          "name": "C2",
          "ticks": 102000,
          "time": 53.684129999999996,
          "velocity": 1
        },
        {
          "duration": 0.13157875000000274,
          "durationTicks": 250,
          "midi": 42,
          "name": "F#2",
          "ticks": 102000,
          "time": 53.684129999999996,
          "velocity": 1
        },
        {
          "duration": 0.13157875000000274,
          "durationTicks": 250,
          "midi": 36,
          "name": "C2",
          "ticks": 102500,
          "time": 53.947287499999995,
          "velocity": 1
        },
        {
          "duration": 0.13157875000000274,
          "durationTicks": 250,
          "midi": 42,
          "name": "F#2",
          "ticks": 102500,
          "time": 53.947287499999995,
          "velocity": 1
        },
        {
          "duration": 0.13157874999999564,
          "durationTicks": 250,
          "midi": 36,
          "name": "C2",
          "ticks": 103000,
          "time": 54.210445,
          "velocity": 1
        },
        {
          "duration": 0.13157874999999564,
          "durationTicks": 250,
          "midi": 38,
          "name": "D2",
          "ticks": 103000,
          "time": 54.210445,
          "velocity": 1
        },
        {
          "duration": 0.13157874999999564,
          "durationTicks": 250,
          "midi": 40,
          "name": "E2",
          "ticks": 103000,
          "time": 54.210445,
          "velocity": 1
        },
        {
          "duration": 0.13157874999999564,
          "durationTicks": 250,
          "midi": 44,
          "name": "G#2",
          "ticks": 103000,
          "time": 54.210445,
          "velocity": 1
        },
        {
          "duration": 0.13157875000000274,
          "durationTicks": 250,
          "midi": 42,
          "name": "F#2",
          "ticks": 103500,
          "time": 54.4736025,
          "velocity": 1
        },
        {
          "duration": 0.13157875000000274,
          "durationTicks": 250,
          "midi": 36,
          "name": "C2",
          "ticks": 104000,
          "time": 54.73676,
          "velocity": 1
        },
        {
          "duration": 0.13157875000000274,
          "durationTicks": 250,
          "midi": 42,
          "name": "F#2",
          "ticks": 104000,
          "time": 54.73676,
          "velocity": 1
        },
        {
          "duration": 0.13157875000000274,
          "durationTicks": 250,
          "midi": 36,
          "name": "C2",
          "ticks": 104500,
          "time": 54.999917499999995,
          "velocity": 1
        },
        {
          "duration": 0.13157875000000274,
          "durationTicks": 250,
          "midi": 42,
          "name": "F#2",
          "ticks": 104500,
          "time": 54.999917499999995,
          "velocity": 1
        },
        {
          "duration": 0.13157874999999564,
          "durationTicks": 250,
          "midi": 36,
          "name": "C2",
          "ticks": 105000,
          "time": 55.263075,
          "velocity": 1
        },
        {
          "duration": 0.13157874999999564,
          "durationTicks": 250,
          "midi": 38,
          "name": "D2",
          "ticks": 105000,
          "time": 55.263075,
          "velocity": 1
        },
        {
          "duration": 0.13157874999999564,
          "durationTicks": 250,
          "midi": 40,
          "name": "E2",
          "ticks": 105000,
          "time": 55.263075,
          "velocity": 1
        },
        {
          "duration": 0.13157874999999564,
          "durationTicks": 250,
          "midi": 44,
          "name": "G#2",
          "ticks": 105000,
          "time": 55.263075,
          "velocity": 1
        },
        {
          "duration": 0.13157874999999564,
          "durationTicks": 250,
          "midi": 42,
          "name": "F#2",
          "ticks": 105500,
          "time": 55.5262325,
          "velocity": 1
        },
        {
          "duration": 0.13157875000000274,
          "durationTicks": 250,
          "midi": 36,
          "name": "C2",
          "ticks": 106000,
          "time": 55.78939,
          "velocity": 1
        },
        {
          "duration": 0.13157875000000274,
          "durationTicks": 250,
          "midi": 42,
          "name": "F#2",
          "ticks": 106000,
          "time": 55.78939,
          "velocity": 1
        },
        {
          "duration": 0.13157875000000274,
          "durationTicks": 250,
          "midi": 36,
          "name": "C2",
          "ticks": 106500,
          "time": 56.052547499999996,
          "velocity": 1
        },
        {
          "duration": 0.13157875000000274,
          "durationTicks": 250,
          "midi": 42,
          "name": "F#2",
          "ticks": 106500,
          "time": 56.052547499999996,
          "velocity": 1
        },
        {
          "duration": 0.13157875000000274,
          "durationTicks": 250,
          "midi": 36,
          "name": "C2",
          "ticks": 107000,
          "time": 56.315704999999994,
          "velocity": 1
        },
        {
          "duration": 0.13157875000000274,
          "durationTicks": 250,
          "midi": 38,
          "name": "D2",
          "ticks": 107000,
          "time": 56.315704999999994,
          "velocity": 1
        },
        {
          "duration": 0.13157875000000274,
          "durationTicks": 250,
          "midi": 40,
          "name": "E2",
          "ticks": 107000,
          "time": 56.315704999999994,
          "velocity": 1
        },
        {
          "duration": 0.13157875000000274,
          "durationTicks": 250,
          "midi": 44,
          "name": "G#2",
          "ticks": 107000,
          "time": 56.315704999999994,
          "velocity": 1
        },
        {
          "duration": 0.13157874999999564,
          "durationTicks": 250,
          "midi": 42,
          "name": "F#2",
          "ticks": 107500,
          "time": 56.5788625,
          "velocity": 1
        },
        {
          "duration": 0.13157875000000274,
          "durationTicks": 250,
          "midi": 36,
          "name": "C2",
          "ticks": 108000,
          "time": 56.84202,
          "velocity": 1
        },
        {
          "duration": 0.13157875000000274,
          "durationTicks": 250,
          "midi": 42,
          "name": "F#2",
          "ticks": 108000,
          "time": 56.84202,
          "velocity": 1
        },
        {
          "duration": 0.13157875000000274,
          "durationTicks": 250,
          "midi": 36,
          "name": "C2",
          "ticks": 108500,
          "time": 57.105177499999996,
          "velocity": 1
        },
        {
          "duration": 0.13157875000000274,
          "durationTicks": 250,
          "midi": 42,
          "name": "F#2",
          "ticks": 108500,
          "time": 57.105177499999996,
          "velocity": 1
        },
        {
          "duration": 0.13157875000000274,
          "durationTicks": 250,
          "midi": 36,
          "name": "C2",
          "ticks": 109000,
          "time": 57.368334999999995,
          "velocity": 1
        },
        {
          "duration": 0.13157875000000274,
          "durationTicks": 250,
          "midi": 38,
          "name": "D2",
          "ticks": 109000,
          "time": 57.368334999999995,
          "velocity": 1
        },
        {
          "duration": 0.13157875000000274,
          "durationTicks": 250,
          "midi": 40,
          "name": "E2",
          "ticks": 109000,
          "time": 57.368334999999995,
          "velocity": 1
        },
        {
          "duration": 0.13157875000000274,
          "durationTicks": 250,
          "midi": 44,
          "name": "G#2",
          "ticks": 109000,
          "time": 57.368334999999995,
          "velocity": 1
        },
        {
          "duration": 0.13157874999999564,
          "durationTicks": 250,
          "midi": 42,
          "name": "F#2",
          "ticks": 109500,
          "time": 57.6314925,
          "velocity": 1
        },
        {
          "duration": 0.13157874999999564,
          "durationTicks": 250,
          "midi": 36,
          "name": "C2",
          "ticks": 110000,
          "time": 57.89465,
          "velocity": 1
        },
        {
          "duration": 0.13157874999999564,
          "durationTicks": 250,
          "midi": 42,
          "name": "F#2",
          "ticks": 110000,
          "time": 57.89465,
          "velocity": 1
        },
        {
          "duration": 0.13157875000000274,
          "durationTicks": 250,
          "midi": 36,
          "name": "C2",
          "ticks": 110500,
          "time": 58.1578075,
          "velocity": 1
        },
        {
          "duration": 0.13157875000000274,
          "durationTicks": 250,
          "midi": 42,
          "name": "F#2",
          "ticks": 110500,
          "time": 58.1578075,
          "velocity": 1
        },
        {
          "duration": 0.13157875000000274,
          "durationTicks": 250,
          "midi": 36,
          "name": "C2",
          "ticks": 111000,
          "time": 58.420964999999995,
          "velocity": 1
        },
        {
          "duration": 0.13157875000000274,
          "durationTicks": 250,
          "midi": 38,
          "name": "D2",
          "ticks": 111000,
          "time": 58.420964999999995,
          "velocity": 1
        },
        {
          "duration": 0.13157875000000274,
          "durationTicks": 250,
          "midi": 40,
          "name": "E2",
          "ticks": 111000,
          "time": 58.420964999999995,
          "velocity": 1
        },
        {
          "duration": 0.13157875000000274,
          "durationTicks": 250,
          "midi": 44,
          "name": "G#2",
          "ticks": 111000,
          "time": 58.420964999999995,
          "velocity": 1
        },
        {
          "duration": 0.13157874999999564,
          "durationTicks": 250,
          "midi": 42,
          "name": "F#2",
          "ticks": 111500,
          "time": 58.6841225,
          "velocity": 1
        },
        {
          "duration": 0.13157874999999564,
          "durationTicks": 250,
          "midi": 36,
          "name": "C2",
          "ticks": 112000,
          "time": 58.94728,
          "velocity": 1
        },
        {
          "duration": 0.13157874999999564,
          "durationTicks": 250,
          "midi": 42,
          "name": "F#2",
          "ticks": 112000,
          "time": 58.94728,
          "velocity": 1
        },
        {
          "duration": 0.13157875000000274,
          "durationTicks": 250,
          "midi": 36,
          "name": "C2",
          "ticks": 112500,
          "time": 59.2104375,
          "velocity": 1
        },
        {
          "duration": 0.13157875000000274,
          "durationTicks": 250,
          "midi": 42,
          "name": "F#2",
          "ticks": 112500,
          "time": 59.2104375,
          "velocity": 1
        },
        {
          "duration": 0.13157875000000274,
          "durationTicks": 250,
          "midi": 36,
          "name": "C2",
          "ticks": 113000,
          "time": 59.473594999999996,
          "velocity": 1
        },
        {
          "duration": 0.13157875000000274,
          "durationTicks": 250,
          "midi": 38,
          "name": "D2",
          "ticks": 113000,
          "time": 59.473594999999996,
          "velocity": 1
        },
        {
          "duration": 0.13157875000000274,
          "durationTicks": 250,
          "midi": 40,
          "name": "E2",
          "ticks": 113000,
          "time": 59.473594999999996,
          "velocity": 1
        },
        {
          "duration": 0.13157875000000274,
          "durationTicks": 250,
          "midi": 44,
          "name": "G#2",
          "ticks": 113000,
          "time": 59.473594999999996,
          "velocity": 1
        },
        {
          "duration": 0.13157875000000274,
          "durationTicks": 250,
          "midi": 42,
          "name": "F#2",
          "ticks": 113500,
          "time": 59.736752499999994,
          "velocity": 1
        },
        {
          "duration": 0.13157874999999564,
          "durationTicks": 250,
          "midi": 36,
          "name": "C2",
          "ticks": 114000,
          "time": 59.99991,
          "velocity": 1
        },
        {
          "duration": 0.13157874999999564,
          "durationTicks": 250,
          "midi": 42,
          "name": "F#2",
          "ticks": 114000,
          "time": 59.99991,
          "velocity": 1
        },
        {
          "duration": 0.13157874999999564,
          "durationTicks": 250,
          "midi": 36,
          "name": "C2",
          "ticks": 114500,
          "time": 60.2630675,
          "velocity": 1
        },
        {
          "duration": 0.13157874999999564,
          "durationTicks": 250,
          "midi": 42,
          "name": "F#2",
          "ticks": 114500,
          "time": 60.2630675,
          "velocity": 1
        },
        {
          "duration": 0.13157875000000274,
          "durationTicks": 250,
          "midi": 36,
          "name": "C2",
          "ticks": 115000,
          "time": 60.526225,
          "velocity": 1
        },
        {
          "duration": 0.13157875000000274,
          "durationTicks": 250,
          "midi": 38,
          "name": "D2",
          "ticks": 115000,
          "time": 60.526225,
          "velocity": 1
        },
        {
          "duration": 0.13157875000000274,
          "durationTicks": 250,
          "midi": 40,
          "name": "E2",
          "ticks": 115000,
          "time": 60.526225,
          "velocity": 1
        },
        {
          "duration": 0.13157875000000274,
          "durationTicks": 250,
          "midi": 44,
          "name": "G#2",
          "ticks": 115000,
          "time": 60.526225,
          "velocity": 1
        },
        {
          "duration": 0.13157874999999564,
          "durationTicks": 250,
          "midi": 36,
          "name": "C2",
          "ticks": 116000,
          "time": 61.05254,
          "velocity": 1
        },
        {
          "duration": 0.13157875000000274,
          "durationTicks": 250,
          "midi": 40,
          "name": "E2",
          "ticks": 117000,
          "time": 61.578855,
          "velocity": 1
        },
        {
          "duration": 0.13157875000000274,
          "durationTicks": 250,
          "midi": 36,
          "name": "C2",
          "ticks": 117000,
          "time": 61.578855,
          "velocity": 1
        },
        {
          "duration": 0.13157875000000274,
          "durationTicks": 250,
          "midi": 36,
          "name": "C2",
          "ticks": 118000,
          "time": 62.105169999999994,
          "velocity": 1
        },
        {
          "duration": 0.13157875000000274,
          "durationTicks": 250,
          "midi": 40,
          "name": "E2",
          "ticks": 119000,
          "time": 62.631485,
          "velocity": 1
        },
        {
          "duration": 0.13157875000000274,
          "durationTicks": 250,
          "midi": 36,
          "name": "C2",
          "ticks": 119000,
          "time": 62.631485,
          "velocity": 1
        },
        {
          "duration": 0.13157875000000274,
          "durationTicks": 250,
          "midi": 36,
          "name": "C2",
          "ticks": 120000,
          "time": 63.157799999999995,
          "velocity": 1
        },
        {
          "duration": 0.13157874999999564,
          "durationTicks": 250,
          "midi": 40,
          "name": "E2",
          "ticks": 121000,
          "time": 63.684115,
          "velocity": 1
        },
        {
          "duration": 0.13157874999999564,
          "durationTicks": 250,
          "midi": 36,
          "name": "C2",
          "ticks": 121000,
          "time": 63.684115,
          "velocity": 1
        },
        {
          "duration": 0.13157874999998853,
          "durationTicks": 250,
          "midi": 36,
          "name": "C2",
          "ticks": 122000,
          "time": 64.21043,
          "velocity": 1
        },
        {
          "duration": 0.13157875000000274,
          "durationTicks": 250,
          "midi": 40,
          "name": "E2",
          "ticks": 123000,
          "time": 64.736745,
          "velocity": 1
        },
        {
          "duration": 0.13157875000000274,
          "durationTicks": 250,
          "midi": 36,
          "name": "C2",
          "ticks": 123000,
          "time": 64.736745,
          "velocity": 1
        },
        {
          "duration": 0.13157875000000274,
          "durationTicks": 250,
          "midi": 36,
          "name": "C2",
          "ticks": 124000,
          "time": 65.26306,
          "velocity": 1
        },
        {
          "duration": 0.13157875000000274,
          "durationTicks": 250,
          "midi": 40,
          "name": "E2",
          "ticks": 125000,
          "time": 65.78937499999999,
          "velocity": 1
        },
        {
          "duration": 0.13157875000000274,
          "durationTicks": 250,
          "midi": 36,
          "name": "C2",
          "ticks": 125000,
          "time": 65.78937499999999,
          "velocity": 1
        },
        {
          "duration": 0.13157874999998853,
          "durationTicks": 250,
          "midi": 36,
          "name": "C2",
          "ticks": 126000,
          "time": 66.31569,
          "velocity": 1
        },
        {
          "duration": 0.13157875000000274,
          "durationTicks": 250,
          "midi": 40,
          "name": "E2",
          "ticks": 127000,
          "time": 66.842005,
          "velocity": 1
        },
        {
          "duration": 0.13157875000000274,
          "durationTicks": 250,
          "midi": 36,
          "name": "C2",
          "ticks": 127000,
          "time": 66.842005,
          "velocity": 1
        },
        {
          "duration": 0.13157875000000274,
          "durationTicks": 250,
          "midi": 36,
          "name": "C2",
          "ticks": 128000,
          "time": 67.36832,
          "velocity": 1
        },
        {
          "duration": 0.13157875000000274,
          "durationTicks": 250,
          "midi": 40,
          "name": "E2",
          "ticks": 129000,
          "time": 67.894635,
          "velocity": 1
        },
        {
          "duration": 0.13157875000000274,
          "durationTicks": 250,
          "midi": 36,
          "name": "C2",
          "ticks": 129000,
          "time": 67.894635,
          "velocity": 1
        },
        {
          "duration": 0.13157875000000274,
          "durationTicks": 250,
          "midi": 36,
          "name": "C2",
          "ticks": 130000,
          "time": 68.42094999999999,
          "velocity": 1
        },
        {
          "duration": 0.13157875000000274,
          "durationTicks": 250,
          "midi": 38,
          "name": "D2",
          "ticks": 130500,
          "time": 68.6841075,
          "velocity": 1
        },
        {
          "duration": 0.13157875000000274,
          "durationTicks": 250,
          "midi": 40,
          "name": "E2",
          "ticks": 130750,
          "time": 68.81568625,
          "velocity": 1
        },
        {
          "duration": 0.13157874999998853,
          "durationTicks": 250,
          "midi": 40,
          "name": "E2",
          "ticks": 131000,
          "time": 68.947265,
          "velocity": 1
        },
        {
          "duration": 0.13157874999998853,
          "durationTicks": 250,
          "midi": 36,
          "name": "C2",
          "ticks": 131000,
          "time": 68.947265,
          "velocity": 1
        },
        {
          "duration": 0.13157875000000274,
          "durationTicks": 250,
          "midi": 38,
          "name": "D2",
          "ticks": 131250,
          "time": 69.07884374999999,
          "velocity": 1
        },
        {
          "duration": 0.13157875000000274,
          "durationTicks": 250,
          "midi": 40,
          "name": "E2",
          "ticks": 131500,
          "time": 69.21042249999999,
          "velocity": 1
        },
        {
          "duration": 0.13157875000000274,
          "durationTicks": 250,
          "midi": 40,
          "name": "E2",
          "ticks": 131750,
          "time": 69.34200125,
          "velocity": 1
        },
        {
          "duration": 0.13157875000000274,
          "durationTicks": 250,
          "midi": 36,
          "name": "C2",
          "ticks": 132000,
          "time": 69.47358,
          "velocity": 1
        },
        {
          "duration": 0.13157875000000274,
          "durationTicks": 250,
          "midi": 44,
          "name": "G#2",
          "ticks": 132000,
          "time": 69.47358,
          "velocity": 1
        },
        {
          "duration": 0.13157875000000274,
          "durationTicks": 250,
          "midi": 49,
          "name": "C#3",
          "ticks": 132000,
          "time": 69.47358,
          "velocity": 1
        },
        {
          "duration": 0.13157874999998853,
          "durationTicks": 250,
          "midi": 42,
          "name": "F#2",
          "ticks": 132500,
          "time": 69.7367375,
          "velocity": 1
        },
        {
          "duration": 0.13157875000000274,
          "durationTicks": 250,
          "midi": 44,
          "name": "G#2",
          "ticks": 133000,
          "time": 69.999895,
          "velocity": 1
        },
        {
          "duration": 0.13157875000000274,
          "durationTicks": 250,
          "midi": 36,
          "name": "C2",
          "ticks": 133000,
          "time": 69.999895,
          "velocity": 1
        },
        {
          "duration": 0.13157875000000274,
          "durationTicks": 250,
          "midi": 40,
          "name": "E2",
          "ticks": 133000,
          "time": 69.999895,
          "velocity": 1
        },
        {
          "duration": 0.13157875000000274,
          "durationTicks": 250,
          "midi": 44,
          "name": "G#2",
          "ticks": 133500,
          "time": 70.2630525,
          "velocity": 1
        },
        {
          "duration": 0.13157874999998853,
          "durationTicks": 250,
          "midi": 40,
          "name": "E2",
          "ticks": 133750,
          "time": 70.39463125,
          "velocity": 1
        },
        {
          "duration": 0.13157875000000274,
          "durationTicks": 250,
          "midi": 42,
          "name": "F#2",
          "ticks": 134000,
          "time": 70.52620999999999,
          "velocity": 1
        },
        {
          "duration": 0.13157875000000274,
          "durationTicks": 250,
          "midi": 36,
          "name": "C2",
          "ticks": 134000,
          "time": 70.52620999999999,
          "velocity": 1
        },
        {
          "duration": 0.13157875000000274,
          "durationTicks": 250,
          "midi": 40,
          "name": "E2",
          "ticks": 134250,
          "time": 70.65778875,
          "velocity": 1
        },
        {
          "duration": 0.13157875000000274,
          "durationTicks": 250,
          "midi": 42,
          "name": "F#2",
          "ticks": 134500,
          "time": 70.7893675,
          "velocity": 1
        },
        {
          "duration": 0.13157874999998853,
          "durationTicks": 250,
          "midi": 44,
          "name": "G#2",
          "ticks": 135000,
          "time": 71.052525,
          "velocity": 1
        },
        {
          "duration": 0.13157874999998853,
          "durationTicks": 250,
          "midi": 36,
          "name": "C2",
          "ticks": 135000,
          "time": 71.052525,
          "velocity": 1
        },
        {
          "duration": 0.13157874999998853,
          "durationTicks": 250,
          "midi": 40,
          "name": "E2",
          "ticks": 135000,
          "time": 71.052525,
          "velocity": 1
        },
        {
          "duration": 0.13157875000000274,
          "durationTicks": 250,
          "midi": 44,
          "name": "G#2",
          "ticks": 135500,
          "time": 71.3156825,
          "velocity": 1
        },
        {
          "duration": 0.13157875000000274,
          "durationTicks": 250,
          "midi": 36,
          "name": "C2",
          "ticks": 136000,
          "time": 71.57884,
          "velocity": 1
        },
        {
          "duration": 0.13157875000000274,
          "durationTicks": 250,
          "midi": 42,
          "name": "F#2",
          "ticks": 136000,
          "time": 71.57884,
          "velocity": 1
        },
        {
          "duration": 0.13157875000000274,
          "durationTicks": 250,
          "midi": 42,
          "name": "F#2",
          "ticks": 136500,
          "time": 71.84199749999999,
          "velocity": 1
        },
        {
          "duration": 0.13157875000000274,
          "durationTicks": 250,
          "midi": 44,
          "name": "G#2",
          "ticks": 137000,
          "time": 72.105155,
          "velocity": 1
        },
        {
          "duration": 0.13157875000000274,
          "durationTicks": 250,
          "midi": 36,
          "name": "C2",
          "ticks": 137000,
          "time": 72.105155,
          "velocity": 1
        },
        {
          "duration": 0.13157875000000274,
          "durationTicks": 250,
          "midi": 40,
          "name": "E2",
          "ticks": 137000,
          "time": 72.105155,
          "velocity": 1
        },
        {
          "duration": 0.13157874999998853,
          "durationTicks": 250,
          "midi": 44,
          "name": "G#2",
          "ticks": 137500,
          "time": 72.3683125,
          "velocity": 1
        },
        {
          "duration": 0.13157875000000274,
          "durationTicks": 250,
          "midi": 40,
          "name": "E2",
          "ticks": 137750,
          "time": 72.49989124999999,
          "velocity": 1
        },
        {
          "duration": 0.13157875000000274,
          "durationTicks": 250,
          "midi": 42,
          "name": "F#2",
          "ticks": 138000,
          "time": 72.63147,
          "velocity": 1
        },
        {
          "duration": 0.13157875000000274,
          "durationTicks": 250,
          "midi": 36,
          "name": "C2",
          "ticks": 138000,
          "time": 72.63147,
          "velocity": 1
        },
        {
          "duration": 0.13157875000000274,
          "durationTicks": 250,
          "midi": 40,
          "name": "E2",
          "ticks": 138250,
          "time": 72.76304875,
          "velocity": 1
        },
        {
          "duration": 0.13157875000000274,
          "durationTicks": 250,
          "midi": 42,
          "name": "F#2",
          "ticks": 138500,
          "time": 72.8946275,
          "velocity": 1
        },
        {
          "duration": 0.13157875000000274,
          "durationTicks": 250,
          "midi": 44,
          "name": "G#2",
          "ticks": 139000,
          "time": 73.15778499999999,
          "velocity": 1
        },
        {
          "duration": 0.13157875000000274,
          "durationTicks": 250,
          "midi": 36,
          "name": "C2",
          "ticks": 139000,
          "time": 73.15778499999999,
          "velocity": 1
        },
        {
          "duration": 0.13157875000000274,
          "durationTicks": 250,
          "midi": 40,
          "name": "E2",
          "ticks": 139000,
          "time": 73.15778499999999,
          "velocity": 1
        },
        {
          "duration": 0.13157875000000274,
          "durationTicks": 250,
          "midi": 44,
          "name": "G#2",
          "ticks": 139500,
          "time": 73.4209425,
          "velocity": 1
        },
        {
          "duration": 0.13157875000000274,
          "durationTicks": 250,
          "midi": 38,
          "name": "D2",
          "ticks": 139500,
          "time": 73.4209425,
          "velocity": 1
        },
        {
          "duration": 0.13157875000000274,
          "durationTicks": 250,
          "midi": 40,
          "name": "E2",
          "ticks": 139750,
          "time": 73.55252125,
          "velocity": 1
        },
        {
          "duration": 0.13157875000000274,
          "durationTicks": 250,
          "midi": 36,
          "name": "C2",
          "ticks": 140000,
          "time": 73.6841,
          "velocity": 1
        },
        {
          "duration": 0.13157875000000274,
          "durationTicks": 250,
          "midi": 42,
          "name": "F#2",
          "ticks": 140000,
          "time": 73.6841,
          "velocity": 1
        },
        {
          "duration": 0.13157875000000274,
          "durationTicks": 250,
          "midi": 42,
          "name": "F#2",
          "ticks": 140500,
          "time": 73.94725749999999,
          "velocity": 1
        },
        {
          "duration": 0.13157875000000274,
          "durationTicks": 250,
          "midi": 44,
          "name": "G#2",
          "ticks": 141000,
          "time": 74.210415,
          "velocity": 1
        },
        {
          "duration": 0.13157875000000274,
          "durationTicks": 250,
          "midi": 36,
          "name": "C2",
          "ticks": 141000,
          "time": 74.210415,
          "velocity": 1
        },
        {
          "duration": 0.13157875000000274,
          "durationTicks": 250,
          "midi": 40,
          "name": "E2",
          "ticks": 141000,
          "time": 74.210415,
          "velocity": 1
        },
        {
          "duration": 0.13157874999998853,
          "durationTicks": 250,
          "midi": 44,
          "name": "G#2",
          "ticks": 141500,
          "time": 74.4735725,
          "velocity": 1
        },
        {
          "duration": 0.13157875000000274,
          "durationTicks": 250,
          "midi": 40,
          "name": "E2",
          "ticks": 141750,
          "time": 74.60515124999999,
          "velocity": 1
        },
        {
          "duration": 0.13157875000000274,
          "durationTicks": 250,
          "midi": 42,
          "name": "F#2",
          "ticks": 142000,
          "time": 74.73673,
          "velocity": 1
        },
        {
          "duration": 0.13157875000000274,
          "durationTicks": 250,
          "midi": 36,
          "name": "C2",
          "ticks": 142000,
          "time": 74.73673,
          "velocity": 1
        },
        {
          "duration": 0.13157875000000274,
          "durationTicks": 250,
          "midi": 40,
          "name": "E2",
          "ticks": 142250,
          "time": 74.86830875,
          "velocity": 1
        },
        {
          "duration": 0.13157875000000274,
          "durationTicks": 250,
          "midi": 42,
          "name": "F#2",
          "ticks": 142500,
          "time": 74.9998875,
          "velocity": 1
        },
        {
          "duration": 0.13157875000000274,
          "durationTicks": 250,
          "midi": 44,
          "name": "G#2",
          "ticks": 143000,
          "time": 75.26304499999999,
          "velocity": 1
        },
        {
          "duration": 0.13157875000000274,
          "durationTicks": 250,
          "midi": 36,
          "name": "C2",
          "ticks": 143000,
          "time": 75.26304499999999,
          "velocity": 1
        },
        {
          "duration": 0.13157875000000274,
          "durationTicks": 250,
          "midi": 40,
          "name": "E2",
          "ticks": 143000,
          "time": 75.26304499999999,
          "velocity": 1
        },
        {
          "duration": 0.13157875000000274,
          "durationTicks": 250,
          "midi": 44,
          "name": "G#2",
          "ticks": 143500,
          "time": 75.5262025,
          "velocity": 1
        },
        {
          "duration": 0.13157874999998853,
          "durationTicks": 250,
          "midi": 36,
          "name": "C2",
          "ticks": 144000,
          "time": 75.78936,
          "velocity": 1
        },
        {
          "duration": 0.13157874999998853,
          "durationTicks": 250,
          "midi": 42,
          "name": "F#2",
          "ticks": 144000,
          "time": 75.78936,
          "velocity": 1
        },
        {
          "duration": 0.13157875000000274,
          "durationTicks": 250,
          "midi": 42,
          "name": "F#2",
          "ticks": 144500,
          "time": 76.0525175,
          "velocity": 1
        },
        {
          "duration": 0.13157875000000274,
          "durationTicks": 250,
          "midi": 44,
          "name": "G#2",
          "ticks": 145000,
          "time": 76.315675,
          "velocity": 1
        },
        {
          "duration": 0.13157875000000274,
          "durationTicks": 250,
          "midi": 36,
          "name": "C2",
          "ticks": 145000,
          "time": 76.315675,
          "velocity": 1
        },
        {
          "duration": 0.13157875000000274,
          "durationTicks": 250,
          "midi": 40,
          "name": "E2",
          "ticks": 145000,
          "time": 76.315675,
          "velocity": 1
        },
        {
          "duration": 0.13157875000000274,
          "durationTicks": 250,
          "midi": 44,
          "name": "G#2",
          "ticks": 145500,
          "time": 76.57883249999999,
          "velocity": 1
        },
        {
          "duration": 0.13157875000000274,
          "durationTicks": 250,
          "midi": 40,
          "name": "E2",
          "ticks": 145750,
          "time": 76.71041124999999,
          "velocity": 1
        },
        {
          "duration": 0.13157875000000274,
          "durationTicks": 250,
          "midi": 42,
          "name": "F#2",
          "ticks": 146000,
          "time": 76.84199,
          "velocity": 1
        },
        {
          "duration": 0.13157875000000274,
          "durationTicks": 250,
          "midi": 36,
          "name": "C2",
          "ticks": 146000,
          "time": 76.84199,
          "velocity": 1
        },
        {
          "duration": 0.13157875000000274,
          "durationTicks": 250,
          "midi": 40,
          "name": "E2",
          "ticks": 146250,
          "time": 76.97356875,
          "velocity": 1
        },
        {
          "duration": 0.13157874999998853,
          "durationTicks": 250,
          "midi": 42,
          "name": "F#2",
          "ticks": 146500,
          "time": 77.1051475,
          "velocity": 1
        },
        {
          "duration": 0.13157875000000274,
          "durationTicks": 250,
          "midi": 44,
          "name": "G#2",
          "ticks": 147000,
          "time": 77.36830499999999,
          "velocity": 1
        },
        {
          "duration": 0.13157875000000274,
          "durationTicks": 250,
          "midi": 36,
          "name": "C2",
          "ticks": 147000,
          "time": 77.36830499999999,
          "velocity": 1
        },
        {
          "duration": 0.13157875000000274,
          "durationTicks": 250,
          "midi": 40,
          "name": "E2",
          "ticks": 147000,
          "time": 77.36830499999999,
          "velocity": 1
        },
        {
          "duration": 0.13157875000000274,
          "durationTicks": 250,
          "midi": 44,
          "name": "G#2",
          "ticks": 147500,
          "time": 77.6314625,
          "velocity": 1
        },
        {
          "duration": 0.13157875000000274,
          "durationTicks": 250,
          "midi": 38,
          "name": "D2",
          "ticks": 147500,
          "time": 77.6314625,
          "velocity": 1
        },
        {
          "duration": 0.13157875000000274,
          "durationTicks": 250,
          "midi": 40,
          "name": "E2",
          "ticks": 147750,
          "time": 77.76304125,
          "velocity": 1
        },
        {
          "duration": 0.13157874999998853,
          "durationTicks": 250,
          "midi": 36,
          "name": "C2",
          "ticks": 148000,
          "time": 77.89462,
          "velocity": 1
        },
        {
          "duration": 0.13157874999998853,
          "durationTicks": 250,
          "midi": 44,
          "name": "G#2",
          "ticks": 148000,
          "time": 77.89462,
          "velocity": 1
        },
        {
          "duration": 0.13157875000000274,
          "durationTicks": 250,
          "midi": 42,
          "name": "F#2",
          "ticks": 148500,
          "time": 78.1577775,
          "velocity": 1
        },
        {
          "duration": 0.13157875000000274,
          "durationTicks": 250,
          "midi": 44,
          "name": "G#2",
          "ticks": 149000,
          "time": 78.420935,
          "velocity": 1
        },
        {
          "duration": 0.13157875000000274,
          "durationTicks": 250,
          "midi": 36,
          "name": "C2",
          "ticks": 149000,
          "time": 78.420935,
          "velocity": 1
        },
        {
          "duration": 0.13157875000000274,
          "durationTicks": 250,
          "midi": 40,
          "name": "E2",
          "ticks": 149000,
          "time": 78.420935,
          "velocity": 1
        },
        {
          "duration": 0.13157875000000274,
          "durationTicks": 250,
          "midi": 44,
          "name": "G#2",
          "ticks": 149500,
          "time": 78.68409249999999,
          "velocity": 1
        },
        {
          "duration": 0.13157875000000274,
          "durationTicks": 250,
          "midi": 40,
          "name": "E2",
          "ticks": 149750,
          "time": 78.81567125,
          "velocity": 1
        },
        {
          "duration": 0.13157875000000274,
          "durationTicks": 250,
          "midi": 42,
          "name": "F#2",
          "ticks": 150000,
          "time": 78.94725,
          "velocity": 1
        },
        {
          "duration": 0.13157875000000274,
          "durationTicks": 250,
          "midi": 36,
          "name": "C2",
          "ticks": 150000,
          "time": 78.94725,
          "velocity": 1
        },
        {
          "duration": 0.13157875000000274,
          "durationTicks": 250,
          "midi": 40,
          "name": "E2",
          "ticks": 150250,
          "time": 79.07882875,
          "velocity": 1
        },
        {
          "duration": 0.13157874999998853,
          "durationTicks": 250,
          "midi": 42,
          "name": "F#2",
          "ticks": 150500,
          "time": 79.2104075,
          "velocity": 1
        },
        {
          "duration": 0.13157875000000274,
          "durationTicks": 250,
          "midi": 44,
          "name": "G#2",
          "ticks": 151000,
          "time": 79.473565,
          "velocity": 1
        },
        {
          "duration": 0.13157875000000274,
          "durationTicks": 250,
          "midi": 36,
          "name": "C2",
          "ticks": 151000,
          "time": 79.473565,
          "velocity": 1
        },
        {
          "duration": 0.13157875000000274,
          "durationTicks": 250,
          "midi": 40,
          "name": "E2",
          "ticks": 151000,
          "time": 79.473565,
          "velocity": 1
        },
        {
          "duration": 0.13157875000000274,
          "durationTicks": 250,
          "midi": 44,
          "name": "G#2",
          "ticks": 151500,
          "time": 79.7367225,
          "velocity": 1
        },
        {
          "duration": 0.13157875000000274,
          "durationTicks": 250,
          "midi": 36,
          "name": "C2",
          "ticks": 152000,
          "time": 79.99987999999999,
          "velocity": 1
        },
        {
          "duration": 0.13157875000000274,
          "durationTicks": 250,
          "midi": 42,
          "name": "F#2",
          "ticks": 152000,
          "time": 79.99987999999999,
          "velocity": 1
        },
        {
          "duration": 0.13157875000000274,
          "durationTicks": 250,
          "midi": 42,
          "name": "F#2",
          "ticks": 152500,
          "time": 80.2630375,
          "velocity": 1
        },
        {
          "duration": 0.13157874999998853,
          "durationTicks": 250,
          "midi": 44,
          "name": "G#2",
          "ticks": 153000,
          "time": 80.526195,
          "velocity": 1
        },
        {
          "duration": 0.13157874999998853,
          "durationTicks": 250,
          "midi": 36,
          "name": "C2",
          "ticks": 153000,
          "time": 80.526195,
          "velocity": 1
        },
        {
          "duration": 0.13157874999998853,
          "durationTicks": 250,
          "midi": 40,
          "name": "E2",
          "ticks": 153000,
          "time": 80.526195,
          "velocity": 1
        },
        {
          "duration": 0.13157875000000274,
          "durationTicks": 250,
          "midi": 44,
          "name": "G#2",
          "ticks": 153500,
          "time": 80.78935249999999,
          "velocity": 1
        },
        {
          "duration": 0.13157875000000274,
          "durationTicks": 250,
          "midi": 40,
          "name": "E2",
          "ticks": 153750,
          "time": 80.92093125,
          "velocity": 1
        },
        {
          "duration": 0.13157875000000274,
          "durationTicks": 250,
          "midi": 42,
          "name": "F#2",
          "ticks": 154000,
          "time": 81.05251,
          "velocity": 1
        },
        {
          "duration": 0.13157875000000274,
          "durationTicks": 250,
          "midi": 36,
          "name": "C2",
          "ticks": 154000,
          "time": 81.05251,
          "velocity": 1
        },
        {
          "duration": 0.13157875000000274,
          "durationTicks": 250,
          "midi": 40,
          "name": "E2",
          "ticks": 154250,
          "time": 81.18408875,
          "velocity": 1
        },
        {
          "duration": 0.13157874999998853,
          "durationTicks": 250,
          "midi": 42,
          "name": "F#2",
          "ticks": 154500,
          "time": 81.3156675,
          "velocity": 1
        },
        {
          "duration": 0.13157875000000274,
          "durationTicks": 250,
          "midi": 44,
          "name": "G#2",
          "ticks": 155000,
          "time": 81.578825,
          "velocity": 1
        },
        {
          "duration": 0.13157875000000274,
          "durationTicks": 250,
          "midi": 36,
          "name": "C2",
          "ticks": 155000,
          "time": 81.578825,
          "velocity": 1
        },
        {
          "duration": 0.13157875000000274,
          "durationTicks": 250,
          "midi": 40,
          "name": "E2",
          "ticks": 155000,
          "time": 81.578825,
          "velocity": 1
        },
        {
          "duration": 0.13157875000000274,
          "durationTicks": 250,
          "midi": 44,
          "name": "G#2",
          "ticks": 155500,
          "time": 81.8419825,
          "velocity": 1
        },
        {
          "duration": 0.13157875000000274,
          "durationTicks": 250,
          "midi": 38,
          "name": "D2",
          "ticks": 155500,
          "time": 81.8419825,
          "velocity": 1
        },
        {
          "duration": 0.13157874999998853,
          "durationTicks": 250,
          "midi": 40,
          "name": "E2",
          "ticks": 155750,
          "time": 81.97356125,
          "velocity": 1
        },
        {
          "duration": 0.13157875000000274,
          "durationTicks": 250,
          "midi": 36,
          "name": "C2",
          "ticks": 156000,
          "time": 82.10513999999999,
          "velocity": 1
        },
        {
          "duration": 0.13157875000000274,
          "durationTicks": 250,
          "midi": 42,
          "name": "F#2",
          "ticks": 156000,
          "time": 82.10513999999999,
          "velocity": 1
        },
        {
          "duration": 0.13157875000000274,
          "durationTicks": 250,
          "midi": 42,
          "name": "F#2",
          "ticks": 156500,
          "time": 82.3682975,
          "velocity": 1
        },
        {
          "duration": 0.13157874999998853,
          "durationTicks": 250,
          "midi": 44,
          "name": "G#2",
          "ticks": 157000,
          "time": 82.631455,
          "velocity": 1
        },
        {
          "duration": 0.13157874999998853,
          "durationTicks": 250,
          "midi": 36,
          "name": "C2",
          "ticks": 157000,
          "time": 82.631455,
          "velocity": 1
        },
        {
          "duration": 0.13157874999998853,
          "durationTicks": 250,
          "midi": 40,
          "name": "E2",
          "ticks": 157000,
          "time": 82.631455,
          "velocity": 1
        },
        {
          "duration": 0.13157875000000274,
          "durationTicks": 250,
          "midi": 44,
          "name": "G#2",
          "ticks": 157500,
          "time": 82.8946125,
          "velocity": 1
        },
        {
          "duration": 0.13157875000000274,
          "durationTicks": 250,
          "midi": 40,
          "name": "E2",
          "ticks": 157750,
          "time": 83.02619125,
          "velocity": 1
        },
        {
          "duration": 0.13157875000000274,
          "durationTicks": 250,
          "midi": 42,
          "name": "F#2",
          "ticks": 158000,
          "time": 83.15777,
          "velocity": 1
        },
        {
          "duration": 0.13157875000000274,
          "durationTicks": 250,
          "midi": 36,
          "name": "C2",
          "ticks": 158000,
          "time": 83.15777,
          "velocity": 1
        },
        {
          "duration": 0.13157874999998853,
          "durationTicks": 250,
          "midi": 40,
          "name": "E2",
          "ticks": 158250,
          "time": 83.28934875,
          "velocity": 1
        },
        {
          "duration": 0.13157875000000274,
          "durationTicks": 250,
          "midi": 42,
          "name": "F#2",
          "ticks": 158500,
          "time": 83.42092749999999,
          "velocity": 1
        },
        {
          "duration": 0.13157875000000274,
          "durationTicks": 250,
          "midi": 44,
          "name": "G#2",
          "ticks": 159000,
          "time": 83.684085,
          "velocity": 1
        },
        {
          "duration": 0.13157875000000274,
          "durationTicks": 250,
          "midi": 36,
          "name": "C2",
          "ticks": 159000,
          "time": 83.684085,
          "velocity": 1
        },
        {
          "duration": 0.13157875000000274,
          "durationTicks": 250,
          "midi": 40,
          "name": "E2",
          "ticks": 159000,
          "time": 83.684085,
          "velocity": 1
        },
        {
          "duration": 0.13157874999998853,
          "durationTicks": 250,
          "midi": 44,
          "name": "G#2",
          "ticks": 159500,
          "time": 83.9472425,
          "velocity": 1
        },
        {
          "duration": 0.13157875000000274,
          "durationTicks": 250,
          "midi": 36,
          "name": "C2",
          "ticks": 160000,
          "time": 84.21039999999999,
          "velocity": 1
        },
        {
          "duration": 0.13157875000000274,
          "durationTicks": 250,
          "midi": 42,
          "name": "F#2",
          "ticks": 160000,
          "time": 84.21039999999999,
          "velocity": 1
        },
        {
          "duration": 0.13157875000000274,
          "durationTicks": 250,
          "midi": 42,
          "name": "F#2",
          "ticks": 160500,
          "time": 84.4735575,
          "velocity": 1
        },
        {
          "duration": 0.13157875000000274,
          "durationTicks": 250,
          "midi": 44,
          "name": "G#2",
          "ticks": 161000,
          "time": 84.73671499999999,
          "velocity": 1
        },
        {
          "duration": 0.13157875000000274,
          "durationTicks": 250,
          "midi": 36,
          "name": "C2",
          "ticks": 161000,
          "time": 84.73671499999999,
          "velocity": 1
        },
        {
          "duration": 0.13157875000000274,
          "durationTicks": 250,
          "midi": 40,
          "name": "E2",
          "ticks": 161000,
          "time": 84.73671499999999,
          "velocity": 1
        },
        {
          "duration": 0.13157875000000274,
          "durationTicks": 250,
          "midi": 44,
          "name": "G#2",
          "ticks": 161500,
          "time": 84.9998725,
          "velocity": 1
        },
        {
          "duration": 0.13157875000000274,
          "durationTicks": 250,
          "midi": 40,
          "name": "E2",
          "ticks": 161750,
          "time": 85.13145125,
          "velocity": 1
        },
        {
          "duration": 0.13157875000000274,
          "durationTicks": 250,
          "midi": 42,
          "name": "F#2",
          "ticks": 162000,
          "time": 85.26303,
          "velocity": 1
        },
        {
          "duration": 0.13157875000000274,
          "durationTicks": 250,
          "midi": 36,
          "name": "C2",
          "ticks": 162000,
          "time": 85.26303,
          "velocity": 1
        },
        {
          "duration": 0.13157874999998853,
          "durationTicks": 250,
          "midi": 40,
          "name": "E2",
          "ticks": 162250,
          "time": 85.39460875,
          "velocity": 1
        },
        {
          "duration": 0.13157875000000274,
          "durationTicks": 250,
          "midi": 42,
          "name": "F#2",
          "ticks": 162500,
          "time": 85.52618749999999,
          "velocity": 1
        },
        {
          "duration": 0.13157875000000274,
          "durationTicks": 250,
          "midi": 44,
          "name": "G#2",
          "ticks": 163000,
          "time": 85.789345,
          "velocity": 1
        },
        {
          "duration": 0.13157875000000274,
          "durationTicks": 250,
          "midi": 36,
          "name": "C2",
          "ticks": 163000,
          "time": 85.789345,
          "velocity": 1
        },
        {
          "duration": 0.13157875000000274,
          "durationTicks": 250,
          "midi": 40,
          "name": "E2",
          "ticks": 163000,
          "time": 85.789345,
          "velocity": 1
        },
        {
          "duration": 0.13157874999998853,
          "durationTicks": 250,
          "midi": 44,
          "name": "G#2",
          "ticks": 163500,
          "time": 86.0525025,
          "velocity": 1
        },
        {
          "duration": 0.13157874999998853,
          "durationTicks": 250,
          "midi": 38,
          "name": "D2",
          "ticks": 163500,
          "time": 86.0525025,
          "velocity": 1
        },
        {
          "duration": 0.13157875000000274,
          "durationTicks": 250,
          "midi": 40,
          "name": "E2",
          "ticks": 163750,
          "time": 86.18408124999999,
          "velocity": 1
        },
        {
          "duration": 0.13157875000000274,
          "durationTicks": 250,
          "midi": 36,
          "name": "C2",
          "ticks": 164000,
          "time": 86.31566,
          "velocity": 1
        },
        {
          "duration": 0.13157875000000274,
          "durationTicks": 250,
          "midi": 44,
          "name": "G#2",
          "ticks": 164000,
          "time": 86.31566,
          "velocity": 1
        },
        {
          "duration": 0.13157875000000274,
          "durationTicks": 250,
          "midi": 42,
          "name": "F#2",
          "ticks": 164500,
          "time": 86.5788175,
          "velocity": 1
        },
        {
          "duration": 0.13157875000000274,
          "durationTicks": 250,
          "midi": 44,
          "name": "G#2",
          "ticks": 165000,
          "time": 86.84197499999999,
          "velocity": 1
        },
        {
          "duration": 0.13157875000000274,
          "durationTicks": 250,
          "midi": 36,
          "name": "C2",
          "ticks": 165000,
          "time": 86.84197499999999,
          "velocity": 1
        },
        {
          "duration": 0.13157875000000274,
          "durationTicks": 250,
          "midi": 40,
          "name": "E2",
          "ticks": 165000,
          "time": 86.84197499999999,
          "velocity": 1
        },
        {
          "duration": 0.13157875000000274,
          "durationTicks": 250,
          "midi": 44,
          "name": "G#2",
          "ticks": 165500,
          "time": 87.1051325,
          "velocity": 1
        },
        {
          "duration": 0.13157875000000274,
          "durationTicks": 250,
          "midi": 40,
          "name": "E2",
          "ticks": 165750,
          "time": 87.23671125,
          "velocity": 1
        },
        {
          "duration": 0.13157874999998853,
          "durationTicks": 250,
          "midi": 42,
          "name": "F#2",
          "ticks": 166000,
          "time": 87.36829,
          "velocity": 1
        },
        {
          "duration": 0.13157874999998853,
          "durationTicks": 250,
          "midi": 36,
          "name": "C2",
          "ticks": 166000,
          "time": 87.36829,
          "velocity": 1
        },
        {
          "duration": 0.13157875000000274,
          "durationTicks": 250,
          "midi": 40,
          "name": "E2",
          "ticks": 166250,
          "time": 87.49986874999999,
          "velocity": 1
        },
        {
          "duration": 0.13157875000000274,
          "durationTicks": 250,
          "midi": 42,
          "name": "F#2",
          "ticks": 166500,
          "time": 87.6314475,
          "velocity": 1
        },
        {
          "duration": 0.13157875000000274,
          "durationTicks": 250,
          "midi": 44,
          "name": "G#2",
          "ticks": 167000,
          "time": 87.894605,
          "velocity": 1
        },
        {
          "duration": 0.13157875000000274,
          "durationTicks": 250,
          "midi": 36,
          "name": "C2",
          "ticks": 167000,
          "time": 87.894605,
          "velocity": 1
        },
        {
          "duration": 0.13157875000000274,
          "durationTicks": 250,
          "midi": 40,
          "name": "E2",
          "ticks": 167000,
          "time": 87.894605,
          "velocity": 1
        },
        {
          "duration": 0.13157875000000274,
          "durationTicks": 250,
          "midi": 44,
          "name": "G#2",
          "ticks": 167500,
          "time": 88.15776249999999,
          "velocity": 1
        },
        {
          "duration": 0.13157875000000274,
          "durationTicks": 250,
          "midi": 36,
          "name": "C2",
          "ticks": 168000,
          "time": 88.42092,
          "velocity": 1
        },
        {
          "duration": 0.13157875000000274,
          "durationTicks": 250,
          "midi": 42,
          "name": "F#2",
          "ticks": 168000,
          "time": 88.42092,
          "velocity": 1
        },
        {
          "duration": 0.13157874999998853,
          "durationTicks": 250,
          "midi": 42,
          "name": "F#2",
          "ticks": 168500,
          "time": 88.6840775,
          "velocity": 1
        },
        {
          "duration": 0.13157875000000274,
          "durationTicks": 250,
          "midi": 44,
          "name": "G#2",
          "ticks": 169000,
          "time": 88.94723499999999,
          "velocity": 1
        },
        {
          "duration": 0.13157875000000274,
          "durationTicks": 250,
          "midi": 36,
          "name": "C2",
          "ticks": 169000,
          "time": 88.94723499999999,
          "velocity": 1
        },
        {
          "duration": 0.13157875000000274,
          "durationTicks": 250,
          "midi": 40,
          "name": "E2",
          "ticks": 169000,
          "time": 88.94723499999999,
          "velocity": 1
        },
        {
          "duration": 0.13157875000000274,
          "durationTicks": 250,
          "midi": 44,
          "name": "G#2",
          "ticks": 169500,
          "time": 89.2103925,
          "velocity": 1
        },
        {
          "duration": 0.13157875000000274,
          "durationTicks": 250,
          "midi": 40,
          "name": "E2",
          "ticks": 169750,
          "time": 89.34197125,
          "velocity": 1
        },
        {
          "duration": 0.13157874999998853,
          "durationTicks": 250,
          "midi": 42,
          "name": "F#2",
          "ticks": 170000,
          "time": 89.47355,
          "velocity": 1
        },
        {
          "duration": 0.13157874999998853,
          "durationTicks": 250,
          "midi": 36,
          "name": "C2",
          "ticks": 170000,
          "time": 89.47355,
          "velocity": 1
        },
        {
          "duration": 0.13157875000000274,
          "durationTicks": 250,
          "midi": 40,
          "name": "E2",
          "ticks": 170250,
          "time": 89.60512874999999,
          "velocity": 1
        },
        {
          "duration": 0.13157875000000274,
          "durationTicks": 250,
          "midi": 42,
          "name": "F#2",
          "ticks": 170500,
          "time": 89.7367075,
          "velocity": 1
        },
        {
          "duration": 0.13157875000000274,
          "durationTicks": 250,
          "midi": 44,
          "name": "G#2",
          "ticks": 171000,
          "time": 89.999865,
          "velocity": 1
        },
        {
          "duration": 0.13157875000000274,
          "durationTicks": 250,
          "midi": 36,
          "name": "C2",
          "ticks": 171000,
          "time": 89.999865,
          "velocity": 1
        },
        {
          "duration": 0.13157875000000274,
          "durationTicks": 250,
          "midi": 40,
          "name": "E2",
          "ticks": 171000,
          "time": 89.999865,
          "velocity": 1
        },
        {
          "duration": 0.13157875000000274,
          "durationTicks": 250,
          "midi": 44,
          "name": "G#2",
          "ticks": 171500,
          "time": 90.26302249999999,
          "velocity": 1
        },
        {
          "duration": 0.13157875000000274,
          "durationTicks": 250,
          "midi": 38,
          "name": "D2",
          "ticks": 171500,
          "time": 90.26302249999999,
          "velocity": 1
        },
        {
          "duration": 0.13157875000000274,
          "durationTicks": 250,
          "midi": 40,
          "name": "E2",
          "ticks": 171750,
          "time": 90.39460125,
          "velocity": 1
        },
        {
          "duration": 0.13157875000000274,
          "durationTicks": 250,
          "midi": 36,
          "name": "C2",
          "ticks": 172000,
          "time": 90.52618,
          "velocity": 1
        },
        {
          "duration": 0.13157875000000274,
          "durationTicks": 250,
          "midi": 42,
          "name": "F#2",
          "ticks": 172000,
          "time": 90.52618,
          "velocity": 1
        },
        {
          "duration": 0.13157874999998853,
          "durationTicks": 250,
          "midi": 42,
          "name": "F#2",
          "ticks": 172500,
          "time": 90.7893375,
          "velocity": 1
        },
        {
          "duration": 0.13157875000000274,
          "durationTicks": 250,
          "midi": 44,
          "name": "G#2",
          "ticks": 173000,
          "time": 91.052495,
          "velocity": 1
        },
        {
          "duration": 0.13157875000000274,
          "durationTicks": 250,
          "midi": 36,
          "name": "C2",
          "ticks": 173000,
          "time": 91.052495,
          "velocity": 1
        },
        {
          "duration": 0.13157875000000274,
          "durationTicks": 250,
          "midi": 40,
          "name": "E2",
          "ticks": 173000,
          "time": 91.052495,
          "velocity": 1
        },
        {
          "duration": 0.13157875000000274,
          "durationTicks": 250,
          "midi": 44,
          "name": "G#2",
          "ticks": 173500,
          "time": 91.3156525,
          "velocity": 1
        },
        {
          "duration": 0.13157874999998853,
          "durationTicks": 250,
          "midi": 40,
          "name": "E2",
          "ticks": 173750,
          "time": 91.44723125,
          "velocity": 1
        },
        {
          "duration": 0.13157875000000274,
          "durationTicks": 250,
          "midi": 42,
          "name": "F#2",
          "ticks": 174000,
          "time": 91.57880999999999,
          "velocity": 1
        },
        {
          "duration": 0.13157875000000274,
          "durationTicks": 250,
          "midi": 36,
          "name": "C2",
          "ticks": 174000,
          "time": 91.57880999999999,
          "velocity": 1
        },
        {
          "duration": 0.13157875000000274,
          "durationTicks": 250,
          "midi": 40,
          "name": "E2",
          "ticks": 174250,
          "time": 91.71038874999999,
          "velocity": 1
        },
        {
          "duration": 0.13157875000000274,
          "durationTicks": 250,
          "midi": 42,
          "name": "F#2",
          "ticks": 174500,
          "time": 91.8419675,
          "velocity": 1
        },
        {
          "duration": 0.13157874999998853,
          "durationTicks": 250,
          "midi": 44,
          "name": "G#2",
          "ticks": 175000,
          "time": 92.105125,
          "velocity": 1
        },
        {
          "duration": 0.13157874999998853,
          "durationTicks": 250,
          "midi": 36,
          "name": "C2",
          "ticks": 175000,
          "time": 92.105125,
          "velocity": 1
        },
        {
          "duration": 0.13157874999998853,
          "durationTicks": 250,
          "midi": 40,
          "name": "E2",
          "ticks": 175000,
          "time": 92.105125,
          "velocity": 1
        },
        {
          "duration": 0.13157875000000274,
          "durationTicks": 250,
          "midi": 44,
          "name": "G#2",
          "ticks": 175500,
          "time": 92.36828249999999,
          "velocity": 1
        },
        {
          "duration": 0.13157875000000274,
          "durationTicks": 250,
          "midi": 36,
          "name": "C2",
          "ticks": 176000,
          "time": 92.63144,
          "velocity": 1
        },
        {
          "duration": 0.13157875000000274,
          "durationTicks": 250,
          "midi": 42,
          "name": "F#2",
          "ticks": 176000,
          "time": 92.63144,
          "velocity": 1
        },
        {
          "duration": 0.13157875000000274,
          "durationTicks": 250,
          "midi": 42,
          "name": "F#2",
          "ticks": 176500,
          "time": 92.89459749999999,
          "velocity": 1
        },
        {
          "duration": 0.13157875000000274,
          "durationTicks": 250,
          "midi": 44,
          "name": "G#2",
          "ticks": 177000,
          "time": 93.157755,
          "velocity": 1
        },
        {
          "duration": 0.13157875000000274,
          "durationTicks": 250,
          "midi": 36,
          "name": "C2",
          "ticks": 177000,
          "time": 93.157755,
          "velocity": 1
        },
        {
          "duration": 0.13157875000000274,
          "durationTicks": 250,
          "midi": 40,
          "name": "E2",
          "ticks": 177000,
          "time": 93.157755,
          "velocity": 1
        },
        {
          "duration": 0.13157875000000274,
          "durationTicks": 250,
          "midi": 44,
          "name": "G#2",
          "ticks": 177500,
          "time": 93.4209125,
          "velocity": 1
        },
        {
          "duration": 0.13157874999998853,
          "durationTicks": 250,
          "midi": 40,
          "name": "E2",
          "ticks": 177750,
          "time": 93.55249125,
          "velocity": 1
        },
        {
          "duration": 0.13157875000000274,
          "durationTicks": 250,
          "midi": 42,
          "name": "F#2",
          "ticks": 178000,
          "time": 93.68406999999999,
          "velocity": 1
        },
        {
          "duration": 0.13157875000000274,
          "durationTicks": 250,
          "midi": 36,
          "name": "C2",
          "ticks": 178000,
          "time": 93.68406999999999,
          "velocity": 1
        },
        {
          "duration": 0.13157875000000274,
          "durationTicks": 250,
          "midi": 40,
          "name": "E2",
          "ticks": 178250,
          "time": 93.81564875,
          "velocity": 1
        },
        {
          "duration": 0.13157875000000274,
          "durationTicks": 250,
          "midi": 42,
          "name": "F#2",
          "ticks": 178500,
          "time": 93.9472275,
          "velocity": 1
        },
        {
          "duration": 0.13157874999998853,
          "durationTicks": 250,
          "midi": 44,
          "name": "G#2",
          "ticks": 179000,
          "time": 94.210385,
          "velocity": 1
        },
        {
          "duration": 0.13157874999998853,
          "durationTicks": 250,
          "midi": 36,
          "name": "C2",
          "ticks": 179000,
          "time": 94.210385,
          "velocity": 1
        },
        {
          "duration": 0.13157874999998853,
          "durationTicks": 250,
          "midi": 40,
          "name": "E2",
          "ticks": 179000,
          "time": 94.210385,
          "velocity": 1
        },
        {
          "duration": 0.13157875000000274,
          "durationTicks": 250,
          "midi": 44,
          "name": "G#2",
          "ticks": 179500,
          "time": 94.4735425,
          "velocity": 1
        },
        {
          "duration": 0.13157875000000274,
          "durationTicks": 250,
          "midi": 38,
          "name": "D2",
          "ticks": 179500,
          "time": 94.4735425,
          "velocity": 1
        },
        {
          "duration": 0.13157875000000274,
          "durationTicks": 250,
          "midi": 40,
          "name": "E2",
          "ticks": 179750,
          "time": 94.60512125,
          "velocity": 1
        },
        {
          "duration": 0.13157875000000274,
          "durationTicks": 250,
          "midi": 36,
          "name": "C2",
          "ticks": 180000,
          "time": 94.7367,
          "velocity": 1
        },
        {
          "duration": 0.13157875000000274,
          "durationTicks": 250,
          "midi": 44,
          "name": "G#2",
          "ticks": 180000,
          "time": 94.7367,
          "velocity": 1
        },
        {
          "duration": 0.13157875000000274,
          "durationTicks": 250,
          "midi": 42,
          "name": "F#2",
          "ticks": 180500,
          "time": 94.99985749999999,
          "velocity": 1
        },
        {
          "duration": 0.13157875000000274,
          "durationTicks": 250,
          "midi": 44,
          "name": "G#2",
          "ticks": 181000,
          "time": 95.263015,
          "velocity": 1
        },
        {
          "duration": 0.13157875000000274,
          "durationTicks": 250,
          "midi": 36,
          "name": "C2",
          "ticks": 181000,
          "time": 95.263015,
          "velocity": 1
        },
        {
          "duration": 0.13157875000000274,
          "durationTicks": 250,
          "midi": 40,
          "name": "E2",
          "ticks": 181000,
          "time": 95.263015,
          "velocity": 1
        },
        {
          "duration": 0.13157874999998853,
          "durationTicks": 250,
          "midi": 44,
          "name": "G#2",
          "ticks": 181500,
          "time": 95.5261725,
          "velocity": 1
        },
        {
          "duration": 0.13157875000000274,
          "durationTicks": 250,
          "midi": 40,
          "name": "E2",
          "ticks": 181750,
          "time": 95.65775124999999,
          "velocity": 1
        },
        {
          "duration": 0.13157875000000274,
          "durationTicks": 250,
          "midi": 42,
          "name": "F#2",
          "ticks": 182000,
          "time": 95.78932999999999,
          "velocity": 1
        },
        {
          "duration": 0.13157875000000274,
          "durationTicks": 250,
          "midi": 36,
          "name": "C2",
          "ticks": 182000,
          "time": 95.78932999999999,
          "velocity": 1
        },
        {
          "duration": 0.13157875000000274,
          "durationTicks": 250,
          "midi": 40,
          "name": "E2",
          "ticks": 182250,
          "time": 95.92090875,
          "velocity": 1
        },
        {
          "duration": 0.13157875000000274,
          "durationTicks": 250,
          "midi": 42,
          "name": "F#2",
          "ticks": 182500,
          "time": 96.0524875,
          "velocity": 1
        },
        {
          "duration": 0.13157875000000274,
          "durationTicks": 250,
          "midi": 44,
          "name": "G#2",
          "ticks": 183000,
          "time": 96.31564499999999,
          "velocity": 1
        },
        {
          "duration": 0.13157875000000274,
          "durationTicks": 250,
          "midi": 36,
          "name": "C2",
          "ticks": 183000,
          "time": 96.31564499999999,
          "velocity": 1
        },
        {
          "duration": 0.13157875000000274,
          "durationTicks": 250,
          "midi": 40,
          "name": "E2",
          "ticks": 183000,
          "time": 96.31564499999999,
          "velocity": 1
        },
        {
          "duration": 0.13157875000000274,
          "durationTicks": 250,
          "midi": 44,
          "name": "G#2",
          "ticks": 183500,
          "time": 96.5788025,
          "velocity": 1
        },
        {
          "duration": 0.13157874999998853,
          "durationTicks": 250,
          "midi": 36,
          "name": "C2",
          "ticks": 184000,
          "time": 96.84196,
          "velocity": 1
        },
        {
          "duration": 0.13157874999998853,
          "durationTicks": 250,
          "midi": 42,
          "name": "F#2",
          "ticks": 184000,
          "time": 96.84196,
          "velocity": 1
        },
        {
          "duration": 0.13157875000000274,
          "durationTicks": 250,
          "midi": 42,
          "name": "F#2",
          "ticks": 184500,
          "time": 97.10511749999999,
          "velocity": 1
        },
        {
          "duration": 0.13157875000000274,
          "durationTicks": 250,
          "midi": 44,
          "name": "G#2",
          "ticks": 185000,
          "time": 97.368275,
          "velocity": 1
        },
        {
          "duration": 0.13157875000000274,
          "durationTicks": 250,
          "midi": 36,
          "name": "C2",
          "ticks": 185000,
          "time": 97.368275,
          "velocity": 1
        },
        {
          "duration": 0.13157875000000274,
          "durationTicks": 250,
          "midi": 40,
          "name": "E2",
          "ticks": 185000,
          "time": 97.368275,
          "velocity": 1
        },
        {
          "duration": 0.13157874999998853,
          "durationTicks": 250,
          "midi": 44,
          "name": "G#2",
          "ticks": 185500,
          "time": 97.6314325,
          "velocity": 1
        },
        {
          "duration": 0.13157875000000274,
          "durationTicks": 250,
          "midi": 40,
          "name": "E2",
          "ticks": 185750,
          "time": 97.76301124999999,
          "velocity": 1
        },
        {
          "duration": 0.13157875000000274,
          "durationTicks": 250,
          "midi": 42,
          "name": "F#2",
          "ticks": 186000,
          "time": 97.89459,
          "velocity": 1
        },
        {
          "duration": 0.13157875000000274,
          "durationTicks": 250,
          "midi": 36,
          "name": "C2",
          "ticks": 186000,
          "time": 97.89459,
          "velocity": 1
        },
        {
          "duration": 0.13157875000000274,
          "durationTicks": 250,
          "midi": 40,
          "name": "E2",
          "ticks": 186250,
          "time": 98.02616875,
          "velocity": 1
        },
        {
          "duration": 0.13157875000000274,
          "durationTicks": 250,
          "midi": 42,
          "name": "F#2",
          "ticks": 186500,
          "time": 98.1577475,
          "velocity": 1
        },
        {
          "duration": 0.13157875000000274,
          "durationTicks": 250,
          "midi": 44,
          "name": "G#2",
          "ticks": 187000,
          "time": 98.42090499999999,
          "velocity": 1
        },
        {
          "duration": 0.13157875000000274,
          "durationTicks": 250,
          "midi": 36,
          "name": "C2",
          "ticks": 187000,
          "time": 98.42090499999999,
          "velocity": 1
        },
        {
          "duration": 0.13157875000000274,
          "durationTicks": 250,
          "midi": 40,
          "name": "E2",
          "ticks": 187000,
          "time": 98.42090499999999,
          "velocity": 1
        },
        {
          "duration": 0.13157875000000274,
          "durationTicks": 250,
          "midi": 44,
          "name": "G#2",
          "ticks": 187500,
          "time": 98.6840625,
          "velocity": 1
        },
        {
          "duration": 0.13157875000000274,
          "durationTicks": 250,
          "midi": 38,
          "name": "D2",
          "ticks": 187500,
          "time": 98.6840625,
          "velocity": 1
        },
        {
          "duration": 0.13157875000000274,
          "durationTicks": 250,
          "midi": 40,
          "name": "E2",
          "ticks": 187750,
          "time": 98.81564125,
          "velocity": 1
        },
        {
          "duration": 0.13157874999998853,
          "durationTicks": 250,
          "midi": 36,
          "name": "C2",
          "ticks": 188000,
          "time": 98.94722,
          "velocity": 1
        },
        {
          "duration": 0.13157874999998853,
          "durationTicks": 250,
          "midi": 42,
          "name": "F#2",
          "ticks": 188000,
          "time": 98.94722,
          "velocity": 1
        },
        {
          "duration": 0.13157875000000274,
          "durationTicks": 250,
          "midi": 42,
          "name": "F#2",
          "ticks": 188500,
          "time": 99.21037749999999,
          "velocity": 1
        },
        {
          "duration": 0.13157875000000274,
          "durationTicks": 250,
          "midi": 44,
          "name": "G#2",
          "ticks": 189000,
          "time": 99.473535,
          "velocity": 1
        },
        {
          "duration": 0.13157875000000274,
          "durationTicks": 250,
          "midi": 36,
          "name": "C2",
          "ticks": 189000,
          "time": 99.473535,
          "velocity": 1
        },
        {
          "duration": 0.13157875000000274,
          "durationTicks": 250,
          "midi": 40,
          "name": "E2",
          "ticks": 189000,
          "time": 99.473535,
          "velocity": 1
        },
        {
          "duration": 0.13157875000000274,
          "durationTicks": 250,
          "midi": 44,
          "name": "G#2",
          "ticks": 189500,
          "time": 99.73669249999999,
          "velocity": 1
        },
        {
          "duration": 0.13157875000000274,
          "durationTicks": 250,
          "midi": 40,
          "name": "E2",
          "ticks": 189750,
          "time": 99.86827124999999,
          "velocity": 1
        },
        {
          "duration": 0.13157875000000274,
          "durationTicks": 250,
          "midi": 42,
          "name": "F#2",
          "ticks": 190000,
          "time": 99.99985,
          "velocity": 1
        },
        {
          "duration": 0.13157875000000274,
          "durationTicks": 250,
          "midi": 36,
          "name": "C2",
          "ticks": 190000,
          "time": 99.99985,
          "velocity": 1
        },
        {
          "duration": 0.13157875000000274,
          "durationTicks": 250,
          "midi": 40,
          "name": "E2",
          "ticks": 190250,
          "time": 100.13142875,
          "velocity": 1
        },
        {
          "duration": 0.13157874999998853,
          "durationTicks": 250,
          "midi": 42,
          "name": "F#2",
          "ticks": 190500,
          "time": 100.2630075,
          "velocity": 1
        },
        {
          "duration": 0.13157875000000274,
          "durationTicks": 250,
          "midi": 44,
          "name": "G#2",
          "ticks": 191000,
          "time": 100.52616499999999,
          "velocity": 1
        },
        {
          "duration": 0.13157875000000274,
          "durationTicks": 250,
          "midi": 36,
          "name": "C2",
          "ticks": 191000,
          "time": 100.52616499999999,
          "velocity": 1
        },
        {
          "duration": 0.13157875000000274,
          "durationTicks": 250,
          "midi": 40,
          "name": "E2",
          "ticks": 191000,
          "time": 100.52616499999999,
          "velocity": 1
        },
        {
          "duration": 0.13157875000000274,
          "durationTicks": 250,
          "midi": 44,
          "name": "G#2",
          "ticks": 191500,
          "time": 100.7893225,
          "velocity": 1
        },
        {
          "duration": 0.13157874999998853,
          "durationTicks": 250,
          "midi": 36,
          "name": "C2",
          "ticks": 192000,
          "time": 101.05248,
          "velocity": 1
        },
        {
          "duration": 0.13157874999998853,
          "durationTicks": 250,
          "midi": 42,
          "name": "F#2",
          "ticks": 192000,
          "time": 101.05248,
          "velocity": 1
        },
        {
          "duration": 0.13157875000000274,
          "durationTicks": 250,
          "midi": 42,
          "name": "F#2",
          "ticks": 192500,
          "time": 101.3156375,
          "velocity": 1
        },
        {
          "duration": 0.13157875000000274,
          "durationTicks": 250,
          "midi": 44,
          "name": "G#2",
          "ticks": 193000,
          "time": 101.578795,
          "velocity": 1
        },
        {
          "duration": 0.13157875000000274,
          "durationTicks": 250,
          "midi": 36,
          "name": "C2",
          "ticks": 193000,
          "time": 101.578795,
          "velocity": 1
        },
        {
          "duration": 0.13157875000000274,
          "durationTicks": 250,
          "midi": 40,
          "name": "E2",
          "ticks": 193000,
          "time": 101.578795,
          "velocity": 1
        },
        {
          "duration": 0.13157875000000274,
          "durationTicks": 250,
          "midi": 44,
          "name": "G#2",
          "ticks": 193500,
          "time": 101.84195249999999,
          "velocity": 1
        },
        {
          "duration": 0.13157875000000274,
          "durationTicks": 250,
          "midi": 40,
          "name": "E2",
          "ticks": 193750,
          "time": 101.97353125,
          "velocity": 1
        },
        {
          "duration": 0.13157875000000274,
          "durationTicks": 250,
          "midi": 42,
          "name": "F#2",
          "ticks": 194000,
          "time": 102.10511,
          "velocity": 1
        },
        {
          "duration": 0.13157875000000274,
          "durationTicks": 250,
          "midi": 36,
          "name": "C2",
          "ticks": 194000,
          "time": 102.10511,
          "velocity": 1
        },
        {
          "duration": 0.13157875000000274,
          "durationTicks": 250,
          "midi": 40,
          "name": "E2",
          "ticks": 194250,
          "time": 102.23668875,
          "velocity": 1
        },
        {
          "duration": 0.13157874999998853,
          "durationTicks": 250,
          "midi": 42,
          "name": "F#2",
          "ticks": 194500,
          "time": 102.3682675,
          "velocity": 1
        },
        {
          "duration": 0.13157875000000274,
          "durationTicks": 250,
          "midi": 44,
          "name": "G#2",
          "ticks": 195000,
          "time": 102.631425,
          "velocity": 1
        },
        {
          "duration": 0.13157875000000274,
          "durationTicks": 250,
          "midi": 36,
          "name": "C2",
          "ticks": 195000,
          "time": 102.631425,
          "velocity": 1
        },
        {
          "duration": 0.13157875000000274,
          "durationTicks": 250,
          "midi": 40,
          "name": "E2",
          "ticks": 195000,
          "time": 102.631425,
          "velocity": 1
        },
        {
          "duration": 0.13157875000000274,
          "durationTicks": 250,
          "midi": 44,
          "name": "G#2",
          "ticks": 195500,
          "time": 102.8945825,
          "velocity": 1
        },
        {
          "duration": 0.13157875000000274,
          "durationTicks": 250,
          "midi": 38,
          "name": "D2",
          "ticks": 195500,
          "time": 102.8945825,
          "velocity": 1
        },
        {
          "duration": 0.13157874999998853,
          "durationTicks": 250,
          "midi": 40,
          "name": "E2",
          "ticks": 195750,
          "time": 103.02616125,
          "velocity": 1
        },
        {
          "duration": 0.13157875000000274,
          "durationTicks": 250,
          "midi": 36,
          "name": "C2",
          "ticks": 196000,
          "time": 103.15773999999999,
          "velocity": 1
        },
        {
          "duration": 0.13157875000000274,
          "durationTicks": 250,
          "midi": 49,
          "name": "C#3",
          "ticks": 196000,
          "time": 103.15773999999999,
          "velocity": 1
        },
        {
          "duration": 0.13157875000000274,
          "durationTicks": 250,
          "midi": 42,
          "name": "F#2",
          "ticks": 196000,
          "time": 103.15773999999999,
          "velocity": 1
        },
        {
          "duration": 0.13157875000000274,
          "durationTicks": 250,
          "midi": 36,
          "name": "C2",
          "ticks": 196500,
          "time": 103.4208975,
          "velocity": 1
        },
        {
          "duration": 0.13157875000000274,
          "durationTicks": 250,
          "midi": 42,
          "name": "F#2",
          "ticks": 196500,
          "time": 103.4208975,
          "velocity": 1
        },
        {
          "duration": 0.13157874999998853,
          "durationTicks": 250,
          "midi": 38,
          "name": "D2",
          "ticks": 197000,
          "time": 103.684055,
          "velocity": 1
        },
        {
          "duration": 0.13157874999998853,
          "durationTicks": 250,
          "midi": 40,
          "name": "E2",
          "ticks": 197000,
          "time": 103.684055,
          "velocity": 1
        },
        {
          "duration": 0.13157874999998853,
          "durationTicks": 250,
          "midi": 36,
          "name": "C2",
          "ticks": 197000,
          "time": 103.684055,
          "velocity": 1
        },
        {
          "duration": 0.13157874999998853,
          "durationTicks": 250,
          "midi": 44,
          "name": "G#2",
          "ticks": 197000,
          "time": 103.684055,
          "velocity": 1
        },
        {
          "duration": 0.13157875000000274,
          "durationTicks": 250,
          "midi": 42,
          "name": "F#2",
          "ticks": 197500,
          "time": 103.94721249999999,
          "velocity": 1
        },
        {
          "duration": 0.13157875000000274,
          "durationTicks": 250,
          "midi": 36,
          "name": "C2",
          "ticks": 198000,
          "time": 104.21037,
          "velocity": 1
        },
        {
          "duration": 0.13157875000000274,
          "durationTicks": 250,
          "midi": 42,
          "name": "F#2",
          "ticks": 198000,
          "time": 104.21037,
          "velocity": 1
        },
        {
          "duration": 0.13157875000000274,
          "durationTicks": 250,
          "midi": 36,
          "name": "C2",
          "ticks": 198500,
          "time": 104.47352749999999,
          "velocity": 1
        },
        {
          "duration": 0.13157875000000274,
          "durationTicks": 250,
          "midi": 42,
          "name": "F#2",
          "ticks": 198500,
          "time": 104.47352749999999,
          "velocity": 1
        },
        {
          "duration": 0.13157875000000274,
          "durationTicks": 250,
          "midi": 36,
          "name": "C2",
          "ticks": 199000,
          "time": 104.736685,
          "velocity": 1
        },
        {
          "duration": 0.13157875000000274,
          "durationTicks": 250,
          "midi": 40,
          "name": "E2",
          "ticks": 199000,
          "time": 104.736685,
          "velocity": 1
        },
        {
          "duration": 0.13157875000000274,
          "durationTicks": 250,
          "midi": 38,
          "name": "D2",
          "ticks": 199000,
          "time": 104.736685,
          "velocity": 1
        },
        {
          "duration": 0.13157875000000274,
          "durationTicks": 250,
          "midi": 44,
          "name": "G#2",
          "ticks": 199000,
          "time": 104.736685,
          "velocity": 1
        },
        {
          "duration": 0.13157875000000274,
          "durationTicks": 250,
          "midi": 42,
          "name": "F#2",
          "ticks": 199500,
          "time": 104.9998425,
          "velocity": 1
        },
        {
          "duration": 0.13157875000000274,
          "durationTicks": 250,
          "midi": 36,
          "name": "C2",
          "ticks": 200000,
          "time": 105.26299999999999,
          "velocity": 1
        },
        {
          "duration": 0.13157875000000274,
          "durationTicks": 250,
          "midi": 42,
          "name": "F#2",
          "ticks": 200000,
          "time": 105.26299999999999,
          "velocity": 1
        },
        {
          "duration": 0.13157875000000274,
          "durationTicks": 250,
          "midi": 36,
          "name": "C2",
          "ticks": 200500,
          "time": 105.5261575,
          "velocity": 1
        },
        {
          "duration": 0.13157875000000274,
          "durationTicks": 250,
          "midi": 42,
          "name": "F#2",
          "ticks": 200500,
          "time": 105.5261575,
          "velocity": 1
        },
        {
          "duration": 0.13157874999998853,
          "durationTicks": 250,
          "midi": 36,
          "name": "C2",
          "ticks": 201000,
          "time": 105.789315,
          "velocity": 1
        },
        {
          "duration": 0.13157874999998853,
          "durationTicks": 250,
          "midi": 38,
          "name": "D2",
          "ticks": 201000,
          "time": 105.789315,
          "velocity": 1
        },
        {
          "duration": 0.13157874999998853,
          "durationTicks": 250,
          "midi": 40,
          "name": "E2",
          "ticks": 201000,
          "time": 105.789315,
          "velocity": 1
        },
        {
          "duration": 0.13157874999998853,
          "durationTicks": 250,
          "midi": 44,
          "name": "G#2",
          "ticks": 201000,
          "time": 105.789315,
          "velocity": 1
        },
        {
          "duration": 0.13157875000000274,
          "durationTicks": 250,
          "midi": 42,
          "name": "F#2",
          "ticks": 201500,
          "time": 106.0524725,
          "velocity": 1
        },
        {
          "duration": 0.13157875000000274,
          "durationTicks": 250,
          "midi": 36,
          "name": "C2",
          "ticks": 202000,
          "time": 106.31563,
          "velocity": 1
        },
        {
          "duration": 0.13157875000000274,
          "durationTicks": 250,
          "midi": 42,
          "name": "F#2",
          "ticks": 202000,
          "time": 106.31563,
          "velocity": 1
        },
        {
          "duration": 0.13157875000000274,
          "durationTicks": 250,
          "midi": 36,
          "name": "C2",
          "ticks": 202500,
          "time": 106.57878749999999,
          "velocity": 1
        },
        {
          "duration": 0.13157875000000274,
          "durationTicks": 250,
          "midi": 42,
          "name": "F#2",
          "ticks": 202500,
          "time": 106.57878749999999,
          "velocity": 1
        },
        {
          "duration": 0.13157875000000274,
          "durationTicks": 250,
          "midi": 36,
          "name": "C2",
          "ticks": 203000,
          "time": 106.841945,
          "velocity": 1
        },
        {
          "duration": 0.13157875000000274,
          "durationTicks": 250,
          "midi": 38,
          "name": "D2",
          "ticks": 203000,
          "time": 106.841945,
          "velocity": 1
        },
        {
          "duration": 0.13157875000000274,
          "durationTicks": 250,
          "midi": 40,
          "name": "E2",
          "ticks": 203000,
          "time": 106.841945,
          "velocity": 1
        },
        {
          "duration": 0.13157875000000274,
          "durationTicks": 250,
          "midi": 44,
          "name": "G#2",
          "ticks": 203000,
          "time": 106.841945,
          "velocity": 1
        },
        {
          "duration": 0.13157874999998853,
          "durationTicks": 250,
          "midi": 42,
          "name": "F#2",
          "ticks": 203500,
          "time": 107.1051025,
          "velocity": 1
        },
        {
          "duration": 0.13157875000000274,
          "durationTicks": 250,
          "midi": 36,
          "name": "C2",
          "ticks": 204000,
          "time": 107.36825999999999,
          "velocity": 1
        },
        {
          "duration": 0.13157875000000274,
          "durationTicks": 250,
          "midi": 42,
          "name": "F#2",
          "ticks": 204000,
          "time": 107.36825999999999,
          "velocity": 1
        },
        {
          "duration": 0.13157875000000274,
          "durationTicks": 250,
          "midi": 36,
          "name": "C2",
          "ticks": 204500,
          "time": 107.6314175,
          "velocity": 1
        },
        {
          "duration": 0.13157875000000274,
          "durationTicks": 250,
          "midi": 42,
          "name": "F#2",
          "ticks": 204500,
          "time": 107.6314175,
          "velocity": 1
        },
        {
          "duration": 0.13157875000000274,
          "durationTicks": 250,
          "midi": 36,
          "name": "C2",
          "ticks": 205000,
          "time": 107.89457499999999,
          "velocity": 1
        },
        {
          "duration": 0.13157875000000274,
          "durationTicks": 250,
          "midi": 38,
          "name": "D2",
          "ticks": 205000,
          "time": 107.89457499999999,
          "velocity": 1
        },
        {
          "duration": 0.13157875000000274,
          "durationTicks": 250,
          "midi": 40,
          "name": "E2",
          "ticks": 205000,
          "time": 107.89457499999999,
          "velocity": 1
        },
        {
          "duration": 0.13157875000000274,
          "durationTicks": 250,
          "midi": 44,
          "name": "G#2",
          "ticks": 205000,
          "time": 107.89457499999999,
          "velocity": 1
        },
        {
          "duration": 0.13157875000000274,
          "durationTicks": 250,
          "midi": 42,
          "name": "F#2",
          "ticks": 205500,
          "time": 108.1577325,
          "velocity": 1
        },
        {
          "duration": 0.13157874999998853,
          "durationTicks": 250,
          "midi": 36,
          "name": "C2",
          "ticks": 206000,
          "time": 108.42089,
          "velocity": 1
        },
        {
          "duration": 0.13157874999998853,
          "durationTicks": 250,
          "midi": 42,
          "name": "F#2",
          "ticks": 206000,
          "time": 108.42089,
          "velocity": 1
        },
        {
          "duration": 0.13157875000000274,
          "durationTicks": 250,
          "midi": 36,
          "name": "C2",
          "ticks": 206500,
          "time": 108.68404749999999,
          "velocity": 1
        },
        {
          "duration": 0.13157875000000274,
          "durationTicks": 250,
          "midi": 42,
          "name": "F#2",
          "ticks": 206500,
          "time": 108.68404749999999,
          "velocity": 1
        },
        {
          "duration": 0.13157875000000274,
          "durationTicks": 250,
          "midi": 36,
          "name": "C2",
          "ticks": 207000,
          "time": 108.947205,
          "velocity": 1
        },
        {
          "duration": 0.13157875000000274,
          "durationTicks": 250,
          "midi": 38,
          "name": "D2",
          "ticks": 207000,
          "time": 108.947205,
          "velocity": 1
        },
        {
          "duration": 0.13157875000000274,
          "durationTicks": 250,
          "midi": 40,
          "name": "E2",
          "ticks": 207000,
          "time": 108.947205,
          "velocity": 1
        },
        {
          "duration": 0.13157875000000274,
          "durationTicks": 250,
          "midi": 44,
          "name": "G#2",
          "ticks": 207000,
          "time": 108.947205,
          "velocity": 1
        },
        {
          "duration": 0.13157874999998853,
          "durationTicks": 250,
          "midi": 42,
          "name": "F#2",
          "ticks": 207500,
          "time": 109.2103625,
          "velocity": 1
        },
        {
          "duration": 0.13157875000000274,
          "durationTicks": 250,
          "midi": 36,
          "name": "C2",
          "ticks": 208000,
          "time": 109.47352,
          "velocity": 1
        },
        {
          "duration": 0.13157875000000274,
          "durationTicks": 250,
          "midi": 42,
          "name": "F#2",
          "ticks": 208000,
          "time": 109.47352,
          "velocity": 1
        },
        {
          "duration": 0.13157875000000274,
          "durationTicks": 250,
          "midi": 36,
          "name": "C2",
          "ticks": 208500,
          "time": 109.7366775,
          "velocity": 1
        },
        {
          "duration": 0.13157875000000274,
          "durationTicks": 250,
          "midi": 42,
          "name": "F#2",
          "ticks": 208500,
          "time": 109.7366775,
          "velocity": 1
        },
        {
          "duration": 0.13157875000000274,
          "durationTicks": 250,
          "midi": 36,
          "name": "C2",
          "ticks": 209000,
          "time": 109.99983499999999,
          "velocity": 1
        },
        {
          "duration": 0.13157875000000274,
          "durationTicks": 250,
          "midi": 38,
          "name": "D2",
          "ticks": 209000,
          "time": 109.99983499999999,
          "velocity": 1
        },
        {
          "duration": 0.13157875000000274,
          "durationTicks": 250,
          "midi": 40,
          "name": "E2",
          "ticks": 209000,
          "time": 109.99983499999999,
          "velocity": 1
        },
        {
          "duration": 0.13157875000000274,
          "durationTicks": 250,
          "midi": 44,
          "name": "G#2",
          "ticks": 209000,
          "time": 109.99983499999999,
          "velocity": 1
        },
        {
          "duration": 0.13157875000000274,
          "durationTicks": 250,
          "midi": 42,
          "name": "F#2",
          "ticks": 209500,
          "time": 110.2629925,
          "velocity": 1
        },
        {
          "duration": 0.13157874999998853,
          "durationTicks": 250,
          "midi": 36,
          "name": "C2",
          "ticks": 210000,
          "time": 110.52615,
          "velocity": 1
        },
        {
          "duration": 0.13157874999998853,
          "durationTicks": 250,
          "midi": 42,
          "name": "F#2",
          "ticks": 210000,
          "time": 110.52615,
          "velocity": 1
        },
        {
          "duration": 0.13157875000000274,
          "durationTicks": 250,
          "midi": 36,
          "name": "C2",
          "ticks": 210500,
          "time": 110.78930749999999,
          "velocity": 1
        },
        {
          "duration": 0.13157875000000274,
          "durationTicks": 250,
          "midi": 42,
          "name": "F#2",
          "ticks": 210500,
          "time": 110.78930749999999,
          "velocity": 1
        },
        {
          "duration": 0.13157875000000274,
          "durationTicks": 250,
          "midi": 36,
          "name": "C2",
          "ticks": 211000,
          "time": 111.052465,
          "velocity": 1
        },
        {
          "duration": 0.13157875000000274,
          "durationTicks": 250,
          "midi": 38,
          "name": "D2",
          "ticks": 211000,
          "time": 111.052465,
          "velocity": 1
        },
        {
          "duration": 0.13157875000000274,
          "durationTicks": 250,
          "midi": 40,
          "name": "E2",
          "ticks": 211000,
          "time": 111.052465,
          "velocity": 1
        },
        {
          "duration": 0.13157875000000274,
          "durationTicks": 250,
          "midi": 44,
          "name": "G#2",
          "ticks": 211000,
          "time": 111.052465,
          "velocity": 1
        },
        {
          "duration": 0.13157875000000274,
          "durationTicks": 250,
          "midi": 42,
          "name": "F#2",
          "ticks": 211500,
          "time": 111.31562249999999,
          "velocity": 1
        },
        {
          "duration": 0.13157875000000274,
          "durationTicks": 250,
          "midi": 36,
          "name": "C2",
          "ticks": 212000,
          "time": 111.57878,
          "velocity": 1
        },
        {
          "duration": 0.13157875000000274,
          "durationTicks": 250,
          "midi": 42,
          "name": "F#2",
          "ticks": 212000,
          "time": 111.57878,
          "velocity": 1
        },
        {
          "duration": 0.13157874999998853,
          "durationTicks": 250,
          "midi": 36,
          "name": "C2",
          "ticks": 212500,
          "time": 111.8419375,
          "velocity": 1
        },
        {
          "duration": 0.13157874999998853,
          "durationTicks": 250,
          "midi": 42,
          "name": "F#2",
          "ticks": 212500,
          "time": 111.8419375,
          "velocity": 1
        },
        {
          "duration": 0.13157875000000274,
          "durationTicks": 250,
          "midi": 36,
          "name": "C2",
          "ticks": 213000,
          "time": 112.10509499999999,
          "velocity": 1
        },
        {
          "duration": 0.13157875000000274,
          "durationTicks": 250,
          "midi": 38,
          "name": "D2",
          "ticks": 213000,
          "time": 112.10509499999999,
          "velocity": 1
        },
        {
          "duration": 0.13157875000000274,
          "durationTicks": 250,
          "midi": 40,
          "name": "E2",
          "ticks": 213000,
          "time": 112.10509499999999,
          "velocity": 1
        },
        {
          "duration": 0.13157875000000274,
          "durationTicks": 250,
          "midi": 44,
          "name": "G#2",
          "ticks": 213000,
          "time": 112.10509499999999,
          "velocity": 1
        },
        {
          "duration": 0.13157875000000274,
          "durationTicks": 250,
          "midi": 42,
          "name": "F#2",
          "ticks": 213500,
          "time": 112.3682525,
          "velocity": 1
        },
        {
          "duration": 0.13157875000000274,
          "durationTicks": 250,
          "midi": 36,
          "name": "C2",
          "ticks": 214000,
          "time": 112.63140999999999,
          "velocity": 1
        },
        {
          "duration": 0.13157875000000274,
          "durationTicks": 250,
          "midi": 42,
          "name": "F#2",
          "ticks": 214000,
          "time": 112.63140999999999,
          "velocity": 1
        },
        {
          "duration": 0.13157875000000274,
          "durationTicks": 250,
          "midi": 36,
          "name": "C2",
          "ticks": 214500,
          "time": 112.8945675,
          "velocity": 1
        },
        {
          "duration": 0.13157875000000274,
          "durationTicks": 250,
          "midi": 42,
          "name": "F#2",
          "ticks": 214500,
          "time": 112.8945675,
          "velocity": 1
        },
        {
          "duration": 0.13157875000000274,
          "durationTicks": 250,
          "midi": 36,
          "name": "C2",
          "ticks": 215000,
          "time": 113.157725,
          "velocity": 1
        },
        {
          "duration": 0.13157875000000274,
          "durationTicks": 250,
          "midi": 38,
          "name": "D2",
          "ticks": 215000,
          "time": 113.157725,
          "velocity": 1
        },
        {
          "duration": 0.13157875000000274,
          "durationTicks": 250,
          "midi": 40,
          "name": "E2",
          "ticks": 215000,
          "time": 113.157725,
          "velocity": 1
        },
        {
          "duration": 0.13157875000000274,
          "durationTicks": 250,
          "midi": 44,
          "name": "G#2",
          "ticks": 215000,
          "time": 113.157725,
          "velocity": 1
        },
        {
          "duration": 0.13157875000000274,
          "durationTicks": 250,
          "midi": 42,
          "name": "F#2",
          "ticks": 215500,
          "time": 113.42088249999999,
          "velocity": 1
        },
        {
          "duration": 0.13157875000000274,
          "durationTicks": 250,
          "midi": 36,
          "name": "C2",
          "ticks": 216000,
          "time": 113.68404,
          "velocity": 1
        },
        {
          "duration": 0.13157875000000274,
          "durationTicks": 250,
          "midi": 42,
          "name": "F#2",
          "ticks": 216000,
          "time": 113.68404,
          "velocity": 1
        },
        {
          "duration": 0.13157874999998853,
          "durationTicks": 250,
          "midi": 36,
          "name": "C2",
          "ticks": 216500,
          "time": 113.9471975,
          "velocity": 1
        },
        {
          "duration": 0.13157874999998853,
          "durationTicks": 250,
          "midi": 42,
          "name": "F#2",
          "ticks": 216500,
          "time": 113.9471975,
          "velocity": 1
        },
        {
          "duration": 0.13157875000000274,
          "durationTicks": 250,
          "midi": 36,
          "name": "C2",
          "ticks": 217000,
          "time": 114.21035499999999,
          "velocity": 1
        },
        {
          "duration": 0.13157875000000274,
          "durationTicks": 250,
          "midi": 38,
          "name": "D2",
          "ticks": 217000,
          "time": 114.21035499999999,
          "velocity": 1
        },
        {
          "duration": 0.13157875000000274,
          "durationTicks": 250,
          "midi": 40,
          "name": "E2",
          "ticks": 217000,
          "time": 114.21035499999999,
          "velocity": 1
        },
        {
          "duration": 0.13157875000000274,
          "durationTicks": 250,
          "midi": 44,
          "name": "G#2",
          "ticks": 217000,
          "time": 114.21035499999999,
          "velocity": 1
        },
        {
          "duration": 0.13157875000000274,
          "durationTicks": 250,
          "midi": 42,
          "name": "F#2",
          "ticks": 217500,
          "time": 114.4735125,
          "velocity": 1
        },
        {
          "duration": 0.13157875000000274,
          "durationTicks": 250,
          "midi": 36,
          "name": "C2",
          "ticks": 218000,
          "time": 114.73666999999999,
          "velocity": 1
        },
        {
          "duration": 0.13157875000000274,
          "durationTicks": 250,
          "midi": 42,
          "name": "F#2",
          "ticks": 218000,
          "time": 114.73666999999999,
          "velocity": 1
        },
        {
          "duration": 0.13157875000000274,
          "durationTicks": 250,
          "midi": 36,
          "name": "C2",
          "ticks": 218500,
          "time": 114.9998275,
          "velocity": 1
        },
        {
          "duration": 0.13157875000000274,
          "durationTicks": 250,
          "midi": 42,
          "name": "F#2",
          "ticks": 218500,
          "time": 114.9998275,
          "velocity": 1
        },
        {
          "duration": 0.13157874999998853,
          "durationTicks": 250,
          "midi": 36,
          "name": "C2",
          "ticks": 219000,
          "time": 115.262985,
          "velocity": 1
        },
        {
          "duration": 0.13157874999998853,
          "durationTicks": 250,
          "midi": 38,
          "name": "D2",
          "ticks": 219000,
          "time": 115.262985,
          "velocity": 1
        },
        {
          "duration": 0.13157874999998853,
          "durationTicks": 250,
          "midi": 40,
          "name": "E2",
          "ticks": 219000,
          "time": 115.262985,
          "velocity": 1
        },
        {
          "duration": 0.13157874999998853,
          "durationTicks": 250,
          "midi": 44,
          "name": "G#2",
          "ticks": 219000,
          "time": 115.262985,
          "velocity": 1
        },
        {
          "duration": 0.13157875000000274,
          "durationTicks": 250,
          "midi": 42,
          "name": "F#2",
          "ticks": 219500,
          "time": 115.52614249999999,
          "velocity": 1
        },
        {
          "duration": 0.13157875000000274,
          "durationTicks": 250,
          "midi": 36,
          "name": "C2",
          "ticks": 220000,
          "time": 115.7893,
          "velocity": 1
        },
        {
          "duration": 0.13157875000000274,
          "durationTicks": 250,
          "midi": 42,
          "name": "F#2",
          "ticks": 220000,
          "time": 115.7893,
          "velocity": 1
        },
        {
          "duration": 0.13157875000000274,
          "durationTicks": 250,
          "midi": 36,
          "name": "C2",
          "ticks": 220500,
          "time": 116.05245749999999,
          "velocity": 1
        },
        {
          "duration": 0.13157875000000274,
          "durationTicks": 250,
          "midi": 42,
          "name": "F#2",
          "ticks": 220500,
          "time": 116.05245749999999,
          "velocity": 1
        },
        {
          "duration": 0.13157875000000274,
          "durationTicks": 250,
          "midi": 36,
          "name": "C2",
          "ticks": 221000,
          "time": 116.315615,
          "velocity": 1
        },
        {
          "duration": 0.13157875000000274,
          "durationTicks": 250,
          "midi": 38,
          "name": "D2",
          "ticks": 221000,
          "time": 116.315615,
          "velocity": 1
        },
        {
          "duration": 0.13157875000000274,
          "durationTicks": 250,
          "midi": 40,
          "name": "E2",
          "ticks": 221000,
          "time": 116.315615,
          "velocity": 1
        },
        {
          "duration": 0.13157875000000274,
          "durationTicks": 250,
          "midi": 44,
          "name": "G#2",
          "ticks": 221000,
          "time": 116.315615,
          "velocity": 1
        },
        {
          "duration": 0.13157874999998853,
          "durationTicks": 250,
          "midi": 42,
          "name": "F#2",
          "ticks": 221500,
          "time": 116.5787725,
          "velocity": 1
        },
        {
          "duration": 0.13157875000000274,
          "durationTicks": 250,
          "midi": 36,
          "name": "C2",
          "ticks": 222000,
          "time": 116.84192999999999,
          "velocity": 1
        },
        {
          "duration": 0.13157875000000274,
          "durationTicks": 250,
          "midi": 42,
          "name": "F#2",
          "ticks": 222000,
          "time": 116.84192999999999,
          "velocity": 1
        },
        {
          "duration": 0.13157875000000274,
          "durationTicks": 250,
          "midi": 36,
          "name": "C2",
          "ticks": 222500,
          "time": 117.1050875,
          "velocity": 1
        },
        {
          "duration": 0.13157875000000274,
          "durationTicks": 250,
          "midi": 42,
          "name": "F#2",
          "ticks": 222500,
          "time": 117.1050875,
          "velocity": 1
        },
        {
          "duration": 0.13157874999998853,
          "durationTicks": 250,
          "midi": 36,
          "name": "C2",
          "ticks": 223000,
          "time": 117.368245,
          "velocity": 1
        },
        {
          "duration": 0.13157874999998853,
          "durationTicks": 250,
          "midi": 38,
          "name": "D2",
          "ticks": 223000,
          "time": 117.368245,
          "velocity": 1
        },
        {
          "duration": 0.13157874999998853,
          "durationTicks": 250,
          "midi": 40,
          "name": "E2",
          "ticks": 223000,
          "time": 117.368245,
          "velocity": 1
        },
        {
          "duration": 0.13157874999998853,
          "durationTicks": 250,
          "midi": 44,
          "name": "G#2",
          "ticks": 223000,
          "time": 117.368245,
          "velocity": 1
        },
        {
          "duration": 0.13157875000000274,
          "durationTicks": 250,
          "midi": 42,
          "name": "F#2",
          "ticks": 223500,
          "time": 117.6314025,
          "velocity": 1
        },
        {
          "duration": 0.13157875000000274,
          "durationTicks": 250,
          "midi": 36,
          "name": "C2",
          "ticks": 224000,
          "time": 117.89456,
          "velocity": 1
        },
        {
          "duration": 0.13157875000000274,
          "durationTicks": 250,
          "midi": 42,
          "name": "F#2",
          "ticks": 224000,
          "time": 117.89456,
          "velocity": 1
        },
        {
          "duration": 0.13157875000000274,
          "durationTicks": 250,
          "midi": 36,
          "name": "C2",
          "ticks": 224500,
          "time": 118.15771749999999,
          "velocity": 1
        },
        {
          "duration": 0.13157875000000274,
          "durationTicks": 250,
          "midi": 42,
          "name": "F#2",
          "ticks": 224500,
          "time": 118.15771749999999,
          "velocity": 1
        },
        {
          "duration": 0.13157875000000274,
          "durationTicks": 250,
          "midi": 36,
          "name": "C2",
          "ticks": 225000,
          "time": 118.420875,
          "velocity": 1
        },
        {
          "duration": 0.13157875000000274,
          "durationTicks": 250,
          "midi": 38,
          "name": "D2",
          "ticks": 225000,
          "time": 118.420875,
          "velocity": 1
        },
        {
          "duration": 0.13157875000000274,
          "durationTicks": 250,
          "midi": 40,
          "name": "E2",
          "ticks": 225000,
          "time": 118.420875,
          "velocity": 1
        },
        {
          "duration": 0.13157875000000274,
          "durationTicks": 250,
          "midi": 44,
          "name": "G#2",
          "ticks": 225000,
          "time": 118.420875,
          "velocity": 1
        },
        {
          "duration": 0.13157874999998853,
          "durationTicks": 250,
          "midi": 42,
          "name": "F#2",
          "ticks": 225500,
          "time": 118.6840325,
          "velocity": 1
        },
        {
          "duration": 0.13157875000000274,
          "durationTicks": 250,
          "midi": 36,
          "name": "C2",
          "ticks": 226000,
          "time": 118.94718999999999,
          "velocity": 1
        },
        {
          "duration": 0.13157875000000274,
          "durationTicks": 250,
          "midi": 42,
          "name": "F#2",
          "ticks": 226000,
          "time": 118.94718999999999,
          "velocity": 1
        },
        {
          "duration": 0.13157875000000274,
          "durationTicks": 250,
          "midi": 36,
          "name": "C2",
          "ticks": 226500,
          "time": 119.2103475,
          "velocity": 1
        },
        {
          "duration": 0.13157875000000274,
          "durationTicks": 250,
          "midi": 42,
          "name": "F#2",
          "ticks": 226500,
          "time": 119.2103475,
          "velocity": 1
        },
        {
          "duration": 0.13157875000000274,
          "durationTicks": 250,
          "midi": 36,
          "name": "C2",
          "ticks": 227000,
          "time": 119.47350499999999,
          "velocity": 1
        },
        {
          "duration": 0.13157875000000274,
          "durationTicks": 250,
          "midi": 38,
          "name": "D2",
          "ticks": 227000,
          "time": 119.47350499999999,
          "velocity": 1
        },
        {
          "duration": 0.13157875000000274,
          "durationTicks": 250,
          "midi": 40,
          "name": "E2",
          "ticks": 227000,
          "time": 119.47350499999999,
          "velocity": 1
        },
        {
          "duration": 0.13157875000000274,
          "durationTicks": 250,
          "midi": 44,
          "name": "G#2",
          "ticks": 227000,
          "time": 119.47350499999999,
          "velocity": 1
        },
        {
          "duration": 0.13157874999998853,
          "durationTicks": 250,
          "midi": 36,
          "name": "C2",
          "ticks": 228000,
          "time": 119.99982,
          "velocity": 1
        },
        {
          "duration": 0.13157875000000274,
          "durationTicks": 250,
          "midi": 40,
          "name": "E2",
          "ticks": 230000,
          "time": 121.05245,
          "velocity": 1
        },
        {
          "duration": 0.13157874999998853,
          "durationTicks": 250,
          "midi": 36,
          "name": "C2",
          "ticks": 232000,
          "time": 122.10508,
          "velocity": 1
        },
        {
          "duration": 0.13157875000000274,
          "durationTicks": 250,
          "midi": 40,
          "name": "E2",
          "ticks": 234000,
          "time": 123.15771,
          "velocity": 1
        },
        {
          "duration": 0.13157875000000274,
          "durationTicks": 250,
          "midi": 36,
          "name": "C2",
          "ticks": 236000,
          "time": 124.21033999999999,
          "velocity": 1
        },
        {
          "duration": 0.13157875000000274,
          "durationTicks": 250,
          "midi": 40,
          "name": "E2",
          "ticks": 238000,
          "time": 125.26297,
          "velocity": 1
        },
        {
          "duration": 0.13157875000000274,
          "durationTicks": 250,
          "midi": 36,
          "name": "C2",
          "ticks": 240000,
          "time": 126.31559999999999,
          "velocity": 1
        },
        {
          "duration": 0.13157875000000274,
          "durationTicks": 250,
          "midi": 40,
          "name": "E2",
          "ticks": 242000,
          "time": 127.36823,
          "velocity": 1
        },
        {
          "duration": 0.13157874999998853,
          "durationTicks": 250,
          "midi": 36,
          "name": "C2",
          "ticks": 244000,
          "time": 128.42086,
          "velocity": 1
        },
        {
          "duration": 0.13157874999998853,
          "durationTicks": 250,
          "midi": 40,
          "name": "E2",
          "ticks": 246000,
          "time": 129.47349,
          "velocity": 1
        },
        {
          "duration": 0.13157874999998853,
          "durationTicks": 250,
          "midi": 36,
          "name": "C2",
          "ticks": 248000,
          "time": 130.52612,
          "velocity": 1
        },
        {
          "duration": 0.13157875000001695,
          "durationTicks": 250,
          "midi": 40,
          "name": "E2",
          "ticks": 250000,
          "time": 131.57874999999999,
          "velocity": 1
        },
        {
          "duration": 0.13157874999998853,
          "durationTicks": 250,
          "midi": 36,
          "name": "C2",
          "ticks": 252000,
          "time": 132.63138,
          "velocity": 1
        },
        {
          "duration": 0.13157874999998853,
          "durationTicks": 250,
          "midi": 40,
          "name": "E2",
          "ticks": 254000,
          "time": 133.68401,
          "velocity": 1
        },
        {
          "duration": 0.13157874999998853,
          "durationTicks": 250,
          "midi": 36,
          "name": "C2",
          "ticks": 256000,
          "time": 134.73664,
          "velocity": 1
        },
        {
          "duration": 0.13157875000001695,
          "durationTicks": 250,
          "midi": 40,
          "name": "E2",
          "ticks": 258000,
          "time": 135.78927,
          "velocity": 1
        },
        {
          "duration": 0.13157875000001695,
          "durationTicks": 250,
          "midi": 36,
          "name": "C2",
          "ticks": 260000,
          "time": 136.84189999999998,
          "velocity": 1
        },
        {
          "duration": 0.13157874999998853,
          "durationTicks": 250,
          "midi": 40,
          "name": "E2",
          "ticks": 261000,
          "time": 137.368215,
          "velocity": 1
        },
        {
          "duration": 0.13157874999998853,
          "durationTicks": 250,
          "midi": 38,
          "name": "D2",
          "ticks": 261000,
          "time": 137.368215,
          "velocity": 1
        },
        {
          "duration": 0.13157874999998853,
          "durationTicks": 250,
          "midi": 36,
          "name": "C2",
          "ticks": 262000,
          "time": 137.89453,
          "velocity": 1
        },
        {
          "duration": 0.13157875000001695,
          "durationTicks": 250,
          "midi": 40,
          "name": "E2",
          "ticks": 263000,
          "time": 138.42084499999999,
          "velocity": 1
        },
        {
          "duration": 0.13157875000001695,
          "durationTicks": 250,
          "midi": 38,
          "name": "D2",
          "ticks": 263000,
          "time": 138.42084499999999,
          "velocity": 1
        },
        {
          "duration": 0.13157874999998853,
          "durationTicks": 250,
          "midi": 36,
          "name": "C2",
          "ticks": 264000,
          "time": 138.94716,
          "velocity": 1
        },
        {
          "duration": 0.13157874999998853,
          "durationTicks": 250,
          "midi": 40,
          "name": "E2",
          "ticks": 265000,
          "time": 139.473475,
          "velocity": 1
        },
        {
          "duration": 0.13157874999998853,
          "durationTicks": 250,
          "midi": 38,
          "name": "D2",
          "ticks": 265000,
          "time": 139.473475,
          "velocity": 1
        },
        {
          "duration": 0.13157875000001695,
          "durationTicks": 250,
          "midi": 36,
          "name": "C2",
          "ticks": 266000,
          "time": 139.99979,
          "velocity": 1
        },
        {
          "duration": 0.13157874999998853,
          "durationTicks": 250,
          "midi": 40,
          "name": "E2",
          "ticks": 267000,
          "time": 140.526105,
          "velocity": 1
        },
        {
          "duration": 0.13157874999998853,
          "durationTicks": 250,
          "midi": 38,
          "name": "D2",
          "ticks": 267000,
          "time": 140.526105,
          "velocity": 1
        },
        {
          "duration": 0.13157875000001695,
          "durationTicks": 250,
          "midi": 36,
          "name": "C2",
          "ticks": 268000,
          "time": 141.05241999999998,
          "velocity": 1
        },
        {
          "duration": 0.13157874999998853,
          "durationTicks": 250,
          "midi": 40,
          "name": "E2",
          "ticks": 269000,
          "time": 141.578735,
          "velocity": 1
        },
        {
          "duration": 0.13157874999998853,
          "durationTicks": 250,
          "midi": 38,
          "name": "D2",
          "ticks": 269000,
          "time": 141.578735,
          "velocity": 1
        },
        {
          "duration": 0.13157874999998853,
          "durationTicks": 250,
          "midi": 36,
          "name": "C2",
          "ticks": 270000,
          "time": 142.10505,
          "velocity": 1
        },
        {
          "duration": 0.13157875000001695,
          "durationTicks": 250,
          "midi": 40,
          "name": "E2",
          "ticks": 271000,
          "time": 142.631365,
          "velocity": 1
        },
        {
          "duration": 0.13157875000001695,
          "durationTicks": 250,
          "midi": 38,
          "name": "D2",
          "ticks": 271000,
          "time": 142.631365,
          "velocity": 1
        },
        {
          "duration": 0.13157874999998853,
          "durationTicks": 250,
          "midi": 36,
          "name": "C2",
          "ticks": 272000,
          "time": 143.15768,
          "velocity": 1
        },
        {
          "duration": 0.13157875000001695,
          "durationTicks": 250,
          "midi": 40,
          "name": "E2",
          "ticks": 273000,
          "time": 143.68399499999998,
          "velocity": 1
        },
        {
          "duration": 0.13157875000001695,
          "durationTicks": 250,
          "midi": 38,
          "name": "D2",
          "ticks": 273000,
          "time": 143.68399499999998,
          "velocity": 1
        },
        {
          "duration": 0.13157874999998853,
          "durationTicks": 250,
          "midi": 36,
          "name": "C2",
          "ticks": 274000,
          "time": 144.21031,
          "velocity": 1
        },
        {
          "duration": 0.13157874999998853,
          "durationTicks": 250,
          "midi": 40,
          "name": "E2",
          "ticks": 275000,
          "time": 144.736625,
          "velocity": 1
        },
        {
          "duration": 0.13157874999998853,
          "durationTicks": 250,
          "midi": 38,
          "name": "D2",
          "ticks": 275000,
          "time": 144.736625,
          "velocity": 1
        },
        {
          "duration": 0.13157875000001695,
          "durationTicks": 250,
          "midi": 36,
          "name": "C2",
          "ticks": 276000,
          "time": 145.26294,
          "velocity": 1
        },
        {
          "duration": 0.13157874999998853,
          "durationTicks": 250,
          "midi": 40,
          "name": "E2",
          "ticks": 277000,
          "time": 145.789255,
          "velocity": 1
        },
        {
          "duration": 0.13157874999998853,
          "durationTicks": 250,
          "midi": 38,
          "name": "D2",
          "ticks": 277000,
          "time": 145.789255,
          "velocity": 1
        },
        {
          "duration": 0.13157875000001695,
          "durationTicks": 250,
          "midi": 36,
          "name": "C2",
          "ticks": 278000,
          "time": 146.31556999999998,
          "velocity": 1
        },
        {
          "duration": 0.13157875000001695,
          "durationTicks": 250,
          "midi": 40,
          "name": "E2",
          "ticks": 279000,
          "time": 146.841885,
          "velocity": 1
        },
        {
          "duration": 0.13157875000001695,
          "durationTicks": 250,
          "midi": 38,
          "name": "D2",
          "ticks": 279000,
          "time": 146.841885,
          "velocity": 1
        },
        {
          "duration": 0.13157874999998853,
          "durationTicks": 250,
          "midi": 36,
          "name": "C2",
          "ticks": 280000,
          "time": 147.3682,
          "velocity": 1
        },
        {
          "duration": 0.13157875000001695,
          "durationTicks": 250,
          "midi": 40,
          "name": "E2",
          "ticks": 281000,
          "time": 147.89451499999998,
          "velocity": 1
        },
        {
          "duration": 0.13157875000001695,
          "durationTicks": 250,
          "midi": 38,
          "name": "D2",
          "ticks": 281000,
          "time": 147.89451499999998,
          "velocity": 1
        },
        {
          "duration": 0.13157874999998853,
          "durationTicks": 250,
          "midi": 36,
          "name": "C2",
          "ticks": 282000,
          "time": 148.42083,
          "velocity": 1
        },
        {
          "duration": 0.13157874999998853,
          "durationTicks": 250,
          "midi": 40,
          "name": "E2",
          "ticks": 283000,
          "time": 148.947145,
          "velocity": 1
        },
        {
          "duration": 0.13157874999998853,
          "durationTicks": 250,
          "midi": 38,
          "name": "D2",
          "ticks": 283000,
          "time": 148.947145,
          "velocity": 1
        },
        {
          "duration": 0.13157875000001695,
          "durationTicks": 250,
          "midi": 36,
          "name": "C2",
          "ticks": 284000,
          "time": 149.47346,
          "velocity": 1
        },
        {
          "duration": 0.13157874999998853,
          "durationTicks": 250,
          "midi": 40,
          "name": "E2",
          "ticks": 285000,
          "time": 149.999775,
          "velocity": 1
        },
        {
          "duration": 0.13157874999998853,
          "durationTicks": 250,
          "midi": 38,
          "name": "D2",
          "ticks": 285000,
          "time": 149.999775,
          "velocity": 1
        },
        {
          "duration": 0.13157875000001695,
          "durationTicks": 250,
          "midi": 36,
          "name": "C2",
          "ticks": 286000,
          "time": 150.52608999999998,
          "velocity": 1
        },
        {
          "duration": 0.13157874999998853,
          "durationTicks": 250,
          "midi": 40,
          "name": "E2",
          "ticks": 287000,
          "time": 151.052405,
          "velocity": 1
        },
        {
          "duration": 0.13157874999998853,
          "durationTicks": 250,
          "midi": 38,
          "name": "D2",
          "ticks": 287000,
          "time": 151.052405,
          "velocity": 1
        },
        {
          "duration": 0.13157874999998853,
          "durationTicks": 250,
          "midi": 36,
          "name": "C2",
          "ticks": 288000,
          "time": 151.57872,
          "velocity": 1
        },
        {
          "duration": 0.13157875000001695,
          "durationTicks": 250,
          "midi": 40,
          "name": "E2",
          "ticks": 289000,
          "time": 152.105035,
          "velocity": 1
        },
        {
          "duration": 0.13157875000001695,
          "durationTicks": 250,
          "midi": 38,
          "name": "D2",
          "ticks": 289000,
          "time": 152.105035,
          "velocity": 1
        },
        {
          "duration": 0.13157874999998853,
          "durationTicks": 250,
          "midi": 36,
          "name": "C2",
          "ticks": 290000,
          "time": 152.63135,
          "velocity": 1
        },
        {
          "duration": 0.13157875000001695,
          "durationTicks": 250,
          "midi": 40,
          "name": "E2",
          "ticks": 291000,
          "time": 153.15766499999998,
          "velocity": 1
        },
        {
          "duration": 0.13157875000001695,
          "durationTicks": 250,
          "midi": 38,
          "name": "D2",
          "ticks": 291000,
          "time": 153.15766499999998,
          "velocity": 1
        },
        {
          "duration": 0.13157874999998853,
          "durationTicks": 250,
          "midi": 36,
          "name": "C2",
          "ticks": 292000,
          "time": 153.68398,
          "velocity": 1
        },
        {
          "duration": 0.13157874999998853,
          "durationTicks": 250,
          "midi": 44,
          "name": "G#2",
          "ticks": 292000,
          "time": 153.68398,
          "velocity": 1
        },
        {
          "duration": 0.13157874999998853,
          "durationTicks": 250,
          "midi": 42,
          "name": "F#2",
          "ticks": 292500,
          "time": 153.9471375,
          "velocity": 1
        },
        {
          "duration": 0.13157874999998853,
          "durationTicks": 250,
          "midi": 44,
          "name": "G#2",
          "ticks": 293000,
          "time": 154.210295,
          "velocity": 1
        },
        {
          "duration": 0.13157874999998853,
          "durationTicks": 250,
          "midi": 36,
          "name": "C2",
          "ticks": 293000,
          "time": 154.210295,
          "velocity": 1
        },
        {
          "duration": 0.13157874999998853,
          "durationTicks": 250,
          "midi": 40,
          "name": "E2",
          "ticks": 293000,
          "time": 154.210295,
          "velocity": 1
        },
        {
          "duration": 0.13157875000001695,
          "durationTicks": 250,
          "midi": 44,
          "name": "G#2",
          "ticks": 293500,
          "time": 154.47345249999998,
          "velocity": 1
        },
        {
          "duration": 0.13157874999998853,
          "durationTicks": 250,
          "midi": 40,
          "name": "E2",
          "ticks": 293750,
          "time": 154.60503125,
          "velocity": 1
        },
        {
          "duration": 0.13157875000001695,
          "durationTicks": 250,
          "midi": 42,
          "name": "F#2",
          "ticks": 294000,
          "time": 154.73660999999998,
          "velocity": 1
        },
        {
          "duration": 0.13157875000001695,
          "durationTicks": 250,
          "midi": 36,
          "name": "C2",
          "ticks": 294000,
          "time": 154.73660999999998,
          "velocity": 1
        },
        {
          "duration": 0.13157874999998853,
          "durationTicks": 250,
          "midi": 40,
          "name": "E2",
          "ticks": 294250,
          "time": 154.86818875,
          "velocity": 1
        },
        {
          "duration": 0.13157875000001695,
          "durationTicks": 250,
          "midi": 42,
          "name": "F#2",
          "ticks": 294500,
          "time": 154.9997675,
          "velocity": 1
        },
        {
          "duration": 0.13157874999998853,
          "durationTicks": 250,
          "midi": 44,
          "name": "G#2",
          "ticks": 295000,
          "time": 155.262925,
          "velocity": 1
        },
        {
          "duration": 0.13157874999998853,
          "durationTicks": 250,
          "midi": 36,
          "name": "C2",
          "ticks": 295000,
          "time": 155.262925,
          "velocity": 1
        },
        {
          "duration": 0.13157874999998853,
          "durationTicks": 250,
          "midi": 40,
          "name": "E2",
          "ticks": 295000,
          "time": 155.262925,
          "velocity": 1
        },
        {
          "duration": 0.13157874999998853,
          "durationTicks": 250,
          "midi": 44,
          "name": "G#2",
          "ticks": 295500,
          "time": 155.5260825,
          "velocity": 1
        },
        {
          "duration": 0.13157874999998853,
          "durationTicks": 250,
          "midi": 36,
          "name": "C2",
          "ticks": 296000,
          "time": 155.78924,
          "velocity": 1
        },
        {
          "duration": 0.13157874999998853,
          "durationTicks": 250,
          "midi": 42,
          "name": "F#2",
          "ticks": 296000,
          "time": 155.78924,
          "velocity": 1
        },
        {
          "duration": 0.13157875000001695,
          "durationTicks": 250,
          "midi": 42,
          "name": "F#2",
          "ticks": 296500,
          "time": 156.05239749999998,
          "velocity": 1
        },
        {
          "duration": 0.13157875000001695,
          "durationTicks": 250,
          "midi": 44,
          "name": "G#2",
          "ticks": 297000,
          "time": 156.315555,
          "velocity": 1
        },
        {
          "duration": 0.13157875000001695,
          "durationTicks": 250,
          "midi": 36,
          "name": "C2",
          "ticks": 297000,
          "time": 156.315555,
          "velocity": 1
        },
        {
          "duration": 0.13157875000001695,
          "durationTicks": 250,
          "midi": 40,
          "name": "E2",
          "ticks": 297000,
          "time": 156.315555,
          "velocity": 1
        },
        {
          "duration": 0.13157874999998853,
          "durationTicks": 250,
          "midi": 44,
          "name": "G#2",
          "ticks": 297500,
          "time": 156.5787125,
          "velocity": 1
        },
        {
          "duration": 0.13157875000001695,
          "durationTicks": 250,
          "midi": 40,
          "name": "E2",
          "ticks": 297750,
          "time": 156.71029124999998,
          "velocity": 1
        },
        {
          "duration": 0.13157874999998853,
          "durationTicks": 250,
          "midi": 42,
          "name": "F#2",
          "ticks": 298000,
          "time": 156.84187,
          "velocity": 1
        },
        {
          "duration": 0.13157874999998853,
          "durationTicks": 250,
          "midi": 36,
          "name": "C2",
          "ticks": 298000,
          "time": 156.84187,
          "velocity": 1
        },
        {
          "duration": 0.13157875000001695,
          "durationTicks": 250,
          "midi": 40,
          "name": "E2",
          "ticks": 298250,
          "time": 156.97344875,
          "velocity": 1
        },
        {
          "duration": 0.13157874999998853,
          "durationTicks": 250,
          "midi": 42,
          "name": "F#2",
          "ticks": 298500,
          "time": 157.1050275,
          "velocity": 1
        },
        {
          "duration": 0.13157875000001695,
          "durationTicks": 250,
          "midi": 44,
          "name": "G#2",
          "ticks": 299000,
          "time": 157.36818499999998,
          "velocity": 1
        },
        {
          "duration": 0.13157875000001695,
          "durationTicks": 250,
          "midi": 36,
          "name": "C2",
          "ticks": 299000,
          "time": 157.36818499999998,
          "velocity": 1
        },
        {
          "duration": 0.13157875000001695,
          "durationTicks": 250,
          "midi": 40,
          "name": "E2",
          "ticks": 299000,
          "time": 157.36818499999998,
          "velocity": 1
        },
        {
          "duration": 0.13157875000001695,
          "durationTicks": 250,
          "midi": 44,
          "name": "G#2",
          "ticks": 299500,
          "time": 157.6313425,
          "velocity": 1
        },
        {
          "duration": 0.13157875000001695,
          "durationTicks": 250,
          "midi": 38,
          "name": "D2",
          "ticks": 299500,
          "time": 157.6313425,
          "velocity": 1
        },
        {
          "duration": 0.13157874999998853,
          "durationTicks": 250,
          "midi": 40,
          "name": "E2",
          "ticks": 299750,
          "time": 157.76292125,
          "velocity": 1
        },
        {
          "duration": 0.13157874999998853,
          "durationTicks": 250,
          "midi": 36,
          "name": "C2",
          "ticks": 300000,
          "time": 157.8945,
          "velocity": 1
        },
        {
          "duration": 0.13157874999998853,
          "durationTicks": 250,
          "midi": 42,
          "name": "F#2",
          "ticks": 300000,
          "time": 157.8945,
          "velocity": 1
        },
        {
          "duration": 0.13157874999998853,
          "durationTicks": 250,
          "midi": 42,
          "name": "F#2",
          "ticks": 300500,
          "time": 158.1576575,
          "velocity": 1
        },
        {
          "duration": 0.13157874999998853,
          "durationTicks": 250,
          "midi": 44,
          "name": "G#2",
          "ticks": 301000,
          "time": 158.420815,
          "velocity": 1
        },
        {
          "duration": 0.13157874999998853,
          "durationTicks": 250,
          "midi": 36,
          "name": "C2",
          "ticks": 301000,
          "time": 158.420815,
          "velocity": 1
        },
        {
          "duration": 0.13157874999998853,
          "durationTicks": 250,
          "midi": 40,
          "name": "E2",
          "ticks": 301000,
          "time": 158.420815,
          "velocity": 1
        },
        {
          "duration": 0.13157875000001695,
          "durationTicks": 250,
          "midi": 44,
          "name": "G#2",
          "ticks": 301500,
          "time": 158.68397249999998,
          "velocity": 1
        },
        {
          "duration": 0.13157874999998853,
          "durationTicks": 250,
          "midi": 40,
          "name": "E2",
          "ticks": 301750,
          "time": 158.81555125,
          "velocity": 1
        },
        {
          "duration": 0.13157875000001695,
          "durationTicks": 250,
          "midi": 42,
          "name": "F#2",
          "ticks": 302000,
          "time": 158.94713,
          "velocity": 1
        },
        {
          "duration": 0.13157875000001695,
          "durationTicks": 250,
          "midi": 36,
          "name": "C2",
          "ticks": 302000,
          "time": 158.94713,
          "velocity": 1
        },
        {
          "duration": 0.13157874999998853,
          "durationTicks": 250,
          "midi": 40,
          "name": "E2",
          "ticks": 302250,
          "time": 159.07870875,
          "velocity": 1
        },
        {
          "duration": 0.13157874999998853,
          "durationTicks": 250,
          "midi": 42,
          "name": "F#2",
          "ticks": 302500,
          "time": 159.2102875,
          "velocity": 1
        },
        {
          "duration": 0.13157874999998853,
          "durationTicks": 250,
          "midi": 44,
          "name": "G#2",
          "ticks": 303000,
          "time": 159.473445,
          "velocity": 1
        },
        {
          "duration": 0.13157874999998853,
          "durationTicks": 250,
          "midi": 36,
          "name": "C2",
          "ticks": 303000,
          "time": 159.473445,
          "velocity": 1
        },
        {
          "duration": 0.13157874999998853,
          "durationTicks": 250,
          "midi": 40,
          "name": "E2",
          "ticks": 303000,
          "time": 159.473445,
          "velocity": 1
        },
        {
          "duration": 0.13157874999998853,
          "durationTicks": 250,
          "midi": 44,
          "name": "G#2",
          "ticks": 303500,
          "time": 159.7366025,
          "velocity": 1
        },
        {
          "duration": 0.13157875000001695,
          "durationTicks": 250,
          "midi": 36,
          "name": "C2",
          "ticks": 304000,
          "time": 159.99975999999998,
          "velocity": 1
        },
        {
          "duration": 0.13157875000001695,
          "durationTicks": 250,
          "midi": 42,
          "name": "F#2",
          "ticks": 304000,
          "time": 159.99975999999998,
          "velocity": 1
        },
        {
          "duration": 0.13157875000001695,
          "durationTicks": 250,
          "midi": 42,
          "name": "F#2",
          "ticks": 304500,
          "time": 160.2629175,
          "velocity": 1
        },
        {
          "duration": 0.13157874999998853,
          "durationTicks": 250,
          "midi": 44,
          "name": "G#2",
          "ticks": 305000,
          "time": 160.526075,
          "velocity": 1
        },
        {
          "duration": 0.13157874999998853,
          "durationTicks": 250,
          "midi": 36,
          "name": "C2",
          "ticks": 305000,
          "time": 160.526075,
          "velocity": 1
        },
        {
          "duration": 0.13157874999998853,
          "durationTicks": 250,
          "midi": 40,
          "name": "E2",
          "ticks": 305000,
          "time": 160.526075,
          "velocity": 1
        },
        {
          "duration": 0.13157874999998853,
          "durationTicks": 250,
          "midi": 44,
          "name": "G#2",
          "ticks": 305500,
          "time": 160.7892325,
          "velocity": 1
        },
        {
          "duration": 0.13157875000001695,
          "durationTicks": 250,
          "midi": 40,
          "name": "E2",
          "ticks": 305750,
          "time": 160.92081124999999,
          "velocity": 1
        },
        {
          "duration": 0.13157874999998853,
          "durationTicks": 250,
          "midi": 42,
          "name": "F#2",
          "ticks": 306000,
          "time": 161.05239,
          "velocity": 1
        },
        {
          "duration": 0.13157874999998853,
          "durationTicks": 250,
          "midi": 36,
          "name": "C2",
          "ticks": 306000,
          "time": 161.05239,
          "velocity": 1
        },
        {
          "duration": 0.13157874999998853,
          "durationTicks": 250,
          "midi": 40,
          "name": "E2",
          "ticks": 306250,
          "time": 161.18396875,
          "velocity": 1
        },
        {
          "duration": 0.13157875000001695,
          "durationTicks": 250,
          "midi": 42,
          "name": "F#2",
          "ticks": 306500,
          "time": 161.31554749999998,
          "velocity": 1
        },
        {
          "duration": 0.13157875000001695,
          "durationTicks": 250,
          "midi": 44,
          "name": "G#2",
          "ticks": 307000,
          "time": 161.57870499999999,
          "velocity": 1
        },
        {
          "duration": 0.13157875000001695,
          "durationTicks": 250,
          "midi": 36,
          "name": "C2",
          "ticks": 307000,
          "time": 161.57870499999999,
          "velocity": 1
        },
        {
          "duration": 0.13157875000001695,
          "durationTicks": 250,
          "midi": 40,
          "name": "E2",
          "ticks": 307000,
          "time": 161.57870499999999,
          "velocity": 1
        },
        {
          "duration": 0.13157874999998853,
          "durationTicks": 250,
          "midi": 44,
          "name": "G#2",
          "ticks": 307500,
          "time": 161.8418625,
          "velocity": 1
        },
        {
          "duration": 0.13157874999998853,
          "durationTicks": 250,
          "midi": 38,
          "name": "D2",
          "ticks": 307500,
          "time": 161.8418625,
          "velocity": 1
        },
        {
          "duration": 0.13157875000001695,
          "durationTicks": 250,
          "midi": 40,
          "name": "E2",
          "ticks": 307750,
          "time": 161.97344124999998,
          "velocity": 1
        },
        {
          "duration": 0.13157874999998853,
          "durationTicks": 250,
          "midi": 36,
          "name": "C2",
          "ticks": 308000,
          "time": 162.10502,
          "velocity": 1
        },
        {
          "duration": 0.13157874999998853,
          "durationTicks": 250,
          "midi": 44,
          "name": "G#2",
          "ticks": 308000,
          "time": 162.10502,
          "velocity": 1
        },
        {
          "duration": 0.13157874999998853,
          "durationTicks": 250,
          "midi": 42,
          "name": "F#2",
          "ticks": 308500,
          "time": 162.3681775,
          "velocity": 1
        },
        {
          "duration": 0.13157874999998853,
          "durationTicks": 250,
          "midi": 44,
          "name": "G#2",
          "ticks": 309000,
          "time": 162.631335,
          "velocity": 1
        },
        {
          "duration": 0.13157874999998853,
          "durationTicks": 250,
          "midi": 36,
          "name": "C2",
          "ticks": 309000,
          "time": 162.631335,
          "velocity": 1
        },
        {
          "duration": 0.13157874999998853,
          "durationTicks": 250,
          "midi": 40,
          "name": "E2",
          "ticks": 309000,
          "time": 162.631335,
          "velocity": 1
        },
        {
          "duration": 0.13157875000001695,
          "durationTicks": 250,
          "midi": 44,
          "name": "G#2",
          "ticks": 309500,
          "time": 162.89449249999998,
          "velocity": 1
        },
        {
          "duration": 0.13157874999998853,
          "durationTicks": 250,
          "midi": 40,
          "name": "E2",
          "ticks": 309750,
          "time": 163.02607125,
          "velocity": 1
        },
        {
          "duration": 0.13157875000001695,
          "durationTicks": 250,
          "midi": 42,
          "name": "F#2",
          "ticks": 310000,
          "time": 163.15765,
          "velocity": 1
        },
        {
          "duration": 0.13157875000001695,
          "durationTicks": 250,
          "midi": 36,
          "name": "C2",
          "ticks": 310000,
          "time": 163.15765,
          "velocity": 1
        },
        {
          "duration": 0.13157874999998853,
          "durationTicks": 250,
          "midi": 40,
          "name": "E2",
          "ticks": 310250,
          "time": 163.28922875,
          "velocity": 1
        },
        {
          "duration": 0.13157874999998853,
          "durationTicks": 250,
          "midi": 42,
          "name": "F#2",
          "ticks": 310500,
          "time": 163.4208075,
          "velocity": 1
        },
        {
          "duration": 0.13157874999998853,
          "durationTicks": 250,
          "midi": 44,
          "name": "G#2",
          "ticks": 311000,
          "time": 163.683965,
          "velocity": 1
        },
        {
          "duration": 0.13157874999998853,
          "durationTicks": 250,
          "midi": 36,
          "name": "C2",
          "ticks": 311000,
          "time": 163.683965,
          "velocity": 1
        },
        {
          "duration": 0.13157874999998853,
          "durationTicks": 250,
          "midi": 40,
          "name": "E2",
          "ticks": 311000,
          "time": 163.683965,
          "velocity": 1
        },
        {
          "duration": 0.13157874999998853,
          "durationTicks": 250,
          "midi": 44,
          "name": "G#2",
          "ticks": 311500,
          "time": 163.9471225,
          "velocity": 1
        },
        {
          "duration": 0.13157875000001695,
          "durationTicks": 250,
          "midi": 36,
          "name": "C2",
          "ticks": 312000,
          "time": 164.21027999999998,
          "velocity": 1
        },
        {
          "duration": 0.13157875000001695,
          "durationTicks": 250,
          "midi": 42,
          "name": "F#2",
          "ticks": 312000,
          "time": 164.21027999999998,
          "velocity": 1
        },
        {
          "duration": 0.13157875000001695,
          "durationTicks": 250,
          "midi": 42,
          "name": "F#2",
          "ticks": 312500,
          "time": 164.4734375,
          "velocity": 1
        },
        {
          "duration": 0.13157874999998853,
          "durationTicks": 250,
          "midi": 44,
          "name": "G#2",
          "ticks": 313000,
          "time": 164.736595,
          "velocity": 1
        },
        {
          "duration": 0.13157874999998853,
          "durationTicks": 250,
          "midi": 36,
          "name": "C2",
          "ticks": 313000,
          "time": 164.736595,
          "velocity": 1
        },
        {
          "duration": 0.13157874999998853,
          "durationTicks": 250,
          "midi": 40,
          "name": "E2",
          "ticks": 313000,
          "time": 164.736595,
          "velocity": 1
        },
        {
          "duration": 0.13157874999998853,
          "durationTicks": 250,
          "midi": 44,
          "name": "G#2",
          "ticks": 313500,
          "time": 164.9997525,
          "velocity": 1
        },
        {
          "duration": 0.13157875000001695,
          "durationTicks": 250,
          "midi": 40,
          "name": "E2",
          "ticks": 313750,
          "time": 165.13133125,
          "velocity": 1
        },
        {
          "duration": 0.13157874999998853,
          "durationTicks": 250,
          "midi": 42,
          "name": "F#2",
          "ticks": 314000,
          "time": 165.26291,
          "velocity": 1
        },
        {
          "duration": 0.13157874999998853,
          "durationTicks": 250,
          "midi": 36,
          "name": "C2",
          "ticks": 314000,
          "time": 165.26291,
          "velocity": 1
        },
        {
          "duration": 0.13157874999998853,
          "durationTicks": 250,
          "midi": 40,
          "name": "E2",
          "ticks": 314250,
          "time": 165.39448875,
          "velocity": 1
        },
        {
          "duration": 0.13157875000001695,
          "durationTicks": 250,
          "midi": 42,
          "name": "F#2",
          "ticks": 314500,
          "time": 165.52606749999998,
          "velocity": 1
        },
        {
          "duration": 0.13157875000001695,
          "durationTicks": 250,
          "midi": 44,
          "name": "G#2",
          "ticks": 315000,
          "time": 165.789225,
          "velocity": 1
        },
        {
          "duration": 0.13157875000001695,
          "durationTicks": 250,
          "midi": 36,
          "name": "C2",
          "ticks": 315000,
          "time": 165.789225,
          "velocity": 1
        },
        {
          "duration": 0.13157875000001695,
          "durationTicks": 250,
          "midi": 40,
          "name": "E2",
          "ticks": 315000,
          "time": 165.789225,
          "velocity": 1
        },
        {
          "duration": 0.13157874999998853,
          "durationTicks": 250,
          "midi": 44,
          "name": "G#2",
          "ticks": 315500,
          "time": 166.0523825,
          "velocity": 1
        },
        {
          "duration": 0.13157874999998853,
          "durationTicks": 250,
          "midi": 38,
          "name": "D2",
          "ticks": 315500,
          "time": 166.0523825,
          "velocity": 1
        },
        {
          "duration": 0.13157875000001695,
          "durationTicks": 250,
          "midi": 40,
          "name": "E2",
          "ticks": 315750,
          "time": 166.18396124999998,
          "velocity": 1
        },
        {
          "duration": 0.13157874999998853,
          "durationTicks": 250,
          "midi": 36,
          "name": "C2",
          "ticks": 316000,
          "time": 166.31554,
          "velocity": 1
        },
        {
          "duration": 0.13157874999998853,
          "durationTicks": 250,
          "midi": 42,
          "name": "F#2",
          "ticks": 316000,
          "time": 166.31554,
          "velocity": 1
        },
        {
          "duration": 0.13157874999998853,
          "durationTicks": 250,
          "midi": 42,
          "name": "F#2",
          "ticks": 316500,
          "time": 166.5786975,
          "velocity": 1
        },
        {
          "duration": 0.13157875000001695,
          "durationTicks": 250,
          "midi": 44,
          "name": "G#2",
          "ticks": 317000,
          "time": 166.84185499999998,
          "velocity": 1
        },
        {
          "duration": 0.13157875000001695,
          "durationTicks": 250,
          "midi": 36,
          "name": "C2",
          "ticks": 317000,
          "time": 166.84185499999998,
          "velocity": 1
        },
        {
          "duration": 0.13157875000001695,
          "durationTicks": 250,
          "midi": 40,
          "name": "E2",
          "ticks": 317000,
          "time": 166.84185499999998,
          "velocity": 1
        },
        {
          "duration": 0.13157875000001695,
          "durationTicks": 250,
          "midi": 44,
          "name": "G#2",
          "ticks": 317500,
          "time": 167.1050125,
          "velocity": 1
        },
        {
          "duration": 0.13157874999998853,
          "durationTicks": 250,
          "midi": 40,
          "name": "E2",
          "ticks": 317750,
          "time": 167.23659125,
          "velocity": 1
        },
        {
          "duration": 0.13157874999998853,
          "durationTicks": 250,
          "midi": 42,
          "name": "F#2",
          "ticks": 318000,
          "time": 167.36817,
          "velocity": 1
        },
        {
          "duration": 0.13157874999998853,
          "durationTicks": 250,
          "midi": 36,
          "name": "C2",
          "ticks": 318000,
          "time": 167.36817,
          "velocity": 1
        },
        {
          "duration": 0.13157875000001695,
          "durationTicks": 250,
          "midi": 40,
          "name": "E2",
          "ticks": 318250,
          "time": 167.49974874999998,
          "velocity": 1
        },
        {
          "duration": 0.13157874999998853,
          "durationTicks": 250,
          "midi": 42,
          "name": "F#2",
          "ticks": 318500,
          "time": 167.6313275,
          "velocity": 1
        },
        {
          "duration": 0.13157874999998853,
          "durationTicks": 250,
          "midi": 44,
          "name": "G#2",
          "ticks": 319000,
          "time": 167.894485,
          "velocity": 1
        },
        {
          "duration": 0.13157874999998853,
          "durationTicks": 250,
          "midi": 36,
          "name": "C2",
          "ticks": 319000,
          "time": 167.894485,
          "velocity": 1
        },
        {
          "duration": 0.13157874999998853,
          "durationTicks": 250,
          "midi": 40,
          "name": "E2",
          "ticks": 319000,
          "time": 167.894485,
          "velocity": 1
        },
        {
          "duration": 0.13157875000001695,
          "durationTicks": 250,
          "midi": 44,
          "name": "G#2",
          "ticks": 319500,
          "time": 168.15764249999998,
          "velocity": 1
        },
        {
          "duration": 0.13157875000001695,
          "durationTicks": 250,
          "midi": 36,
          "name": "C2",
          "ticks": 320000,
          "time": 168.42079999999999,
          "velocity": 1
        },
        {
          "duration": 0.13157875000001695,
          "durationTicks": 250,
          "midi": 42,
          "name": "F#2",
          "ticks": 320000,
          "time": 168.42079999999999,
          "velocity": 1
        },
        {
          "duration": 0.13157874999998853,
          "durationTicks": 250,
          "midi": 42,
          "name": "F#2",
          "ticks": 320500,
          "time": 168.6839575,
          "velocity": 1
        },
        {
          "duration": 0.13157874999998853,
          "durationTicks": 250,
          "midi": 44,
          "name": "G#2",
          "ticks": 321000,
          "time": 168.947115,
          "velocity": 1
        },
        {
          "duration": 0.13157874999998853,
          "durationTicks": 250,
          "midi": 36,
          "name": "C2",
          "ticks": 321000,
          "time": 168.947115,
          "velocity": 1
        },
        {
          "duration": 0.13157874999998853,
          "durationTicks": 250,
          "midi": 40,
          "name": "E2",
          "ticks": 321000,
          "time": 168.947115,
          "velocity": 1
        },
        {
          "duration": 0.13157874999998853,
          "durationTicks": 250,
          "midi": 44,
          "name": "G#2",
          "ticks": 321500,
          "time": 169.2102725,
          "velocity": 1
        },
        {
          "duration": 0.13157874999998853,
          "durationTicks": 250,
          "midi": 40,
          "name": "E2",
          "ticks": 321750,
          "time": 169.34185125,
          "velocity": 1
        },
        {
          "duration": 0.13157875000001695,
          "durationTicks": 250,
          "midi": 42,
          "name": "F#2",
          "ticks": 322000,
          "time": 169.47342999999998,
          "velocity": 1
        },
        {
          "duration": 0.13157875000001695,
          "durationTicks": 250,
          "midi": 36,
          "name": "C2",
          "ticks": 322000,
          "time": 169.47342999999998,
          "velocity": 1
        },
        {
          "duration": 0.13157874999998853,
          "durationTicks": 250,
          "midi": 40,
          "name": "E2",
          "ticks": 322250,
          "time": 169.60500875,
          "velocity": 1
        },
        {
          "duration": 0.13157875000001695,
          "durationTicks": 250,
          "midi": 42,
          "name": "F#2",
          "ticks": 322500,
          "time": 169.73658749999998,
          "velocity": 1
        },
        {
          "duration": 0.13157874999998853,
          "durationTicks": 250,
          "midi": 44,
          "name": "G#2",
          "ticks": 323000,
          "time": 169.999745,
          "velocity": 1
        },
        {
          "duration": 0.13157874999998853,
          "durationTicks": 250,
          "midi": 36,
          "name": "C2",
          "ticks": 323000,
          "time": 169.999745,
          "velocity": 1
        },
        {
          "duration": 0.13157874999998853,
          "durationTicks": 250,
          "midi": 40,
          "name": "E2",
          "ticks": 323000,
          "time": 169.999745,
          "velocity": 1
        },
        {
          "duration": 0.13157874999998853,
          "durationTicks": 250,
          "midi": 44,
          "name": "G#2",
          "ticks": 323500,
          "time": 170.2629025,
          "velocity": 1
        },
        {
          "duration": 0.13157874999998853,
          "durationTicks": 250,
          "midi": 38,
          "name": "D2",
          "ticks": 323500,
          "time": 170.2629025,
          "velocity": 1
        },
        {
          "duration": 0.13157875000001695,
          "durationTicks": 250,
          "midi": 40,
          "name": "E2",
          "ticks": 323750,
          "time": 170.39448124999998,
          "velocity": 1
        },
        {
          "duration": 0.13157874999998853,
          "durationTicks": 250,
          "midi": 36,
          "name": "C2",
          "ticks": 324000,
          "time": 170.52606,
          "velocity": 1
        },
        {
          "duration": 0.13157874999998853,
          "durationTicks": 250,
          "midi": 44,
          "name": "G#2",
          "ticks": 324000,
          "time": 170.52606,
          "velocity": 1
        },
        {
          "duration": 0.13157874999998853,
          "durationTicks": 250,
          "midi": 42,
          "name": "F#2",
          "ticks": 324500,
          "time": 170.7892175,
          "velocity": 1
        },
        {
          "duration": 0.13157875000001695,
          "durationTicks": 250,
          "midi": 44,
          "name": "G#2",
          "ticks": 325000,
          "time": 171.05237499999998,
          "velocity": 1
        },
        {
          "duration": 0.13157875000001695,
          "durationTicks": 250,
          "midi": 36,
          "name": "C2",
          "ticks": 325000,
          "time": 171.05237499999998,
          "velocity": 1
        },
        {
          "duration": 0.13157875000001695,
          "durationTicks": 250,
          "midi": 40,
          "name": "E2",
          "ticks": 325000,
          "time": 171.05237499999998,
          "velocity": 1
        },
        {
          "duration": 0.13157875000001695,
          "durationTicks": 250,
          "midi": 44,
          "name": "G#2",
          "ticks": 325500,
          "time": 171.3155325,
          "velocity": 1
        },
        {
          "duration": 0.13157874999998853,
          "durationTicks": 250,
          "midi": 40,
          "name": "E2",
          "ticks": 325750,
          "time": 171.44711125,
          "velocity": 1
        },
        {
          "duration": 0.13157874999998853,
          "durationTicks": 250,
          "midi": 42,
          "name": "F#2",
          "ticks": 326000,
          "time": 171.57869,
          "velocity": 1
        },
        {
          "duration": 0.13157874999998853,
          "durationTicks": 250,
          "midi": 36,
          "name": "C2",
          "ticks": 326000,
          "time": 171.57869,
          "velocity": 1
        },
        {
          "duration": 0.13157875000001695,
          "durationTicks": 250,
          "midi": 40,
          "name": "E2",
          "ticks": 326250,
          "time": 171.71026874999998,
          "velocity": 1
        },
        {
          "duration": 0.13157874999998853,
          "durationTicks": 250,
          "midi": 42,
          "name": "F#2",
          "ticks": 326500,
          "time": 171.8418475,
          "velocity": 1
        },
        {
          "duration": 0.13157874999998853,
          "durationTicks": 250,
          "midi": 44,
          "name": "G#2",
          "ticks": 327000,
          "time": 172.105005,
          "velocity": 1
        },
        {
          "duration": 0.13157874999998853,
          "durationTicks": 250,
          "midi": 36,
          "name": "C2",
          "ticks": 327000,
          "time": 172.105005,
          "velocity": 1
        },
        {
          "duration": 0.13157874999998853,
          "durationTicks": 250,
          "midi": 40,
          "name": "E2",
          "ticks": 327000,
          "time": 172.105005,
          "velocity": 1
        },
        {
          "duration": 0.13157875000001695,
          "durationTicks": 250,
          "midi": 44,
          "name": "G#2",
          "ticks": 327500,
          "time": 172.36816249999998,
          "velocity": 1
        },
        {
          "duration": 0.13157875000001695,
          "durationTicks": 250,
          "midi": 36,
          "name": "C2",
          "ticks": 328000,
          "time": 172.63132,
          "velocity": 1
        },
        {
          "duration": 0.13157875000001695,
          "durationTicks": 250,
          "midi": 42,
          "name": "F#2",
          "ticks": 328000,
          "time": 172.63132,
          "velocity": 1
        },
        {
          "duration": 0.13157874999998853,
          "durationTicks": 250,
          "midi": 42,
          "name": "F#2",
          "ticks": 328500,
          "time": 172.8944775,
          "velocity": 1
        },
        {
          "duration": 0.13157874999998853,
          "durationTicks": 250,
          "midi": 44,
          "name": "G#2",
          "ticks": 329000,
          "time": 173.157635,
          "velocity": 1
        },
        {
          "duration": 0.13157874999998853,
          "durationTicks": 250,
          "midi": 36,
          "name": "C2",
          "ticks": 329000,
          "time": 173.157635,
          "velocity": 1
        },
        {
          "duration": 0.13157874999998853,
          "durationTicks": 250,
          "midi": 40,
          "name": "E2",
          "ticks": 329000,
          "time": 173.157635,
          "velocity": 1
        },
        {
          "duration": 0.13157874999998853,
          "durationTicks": 250,
          "midi": 44,
          "name": "G#2",
          "ticks": 329500,
          "time": 173.4207925,
          "velocity": 1
        },
        {
          "duration": 0.13157874999998853,
          "durationTicks": 250,
          "midi": 40,
          "name": "E2",
          "ticks": 329750,
          "time": 173.55237125,
          "velocity": 1
        },
        {
          "duration": 0.13157875000001695,
          "durationTicks": 250,
          "midi": 42,
          "name": "F#2",
          "ticks": 330000,
          "time": 173.68394999999998,
          "velocity": 1
        },
        {
          "duration": 0.13157875000001695,
          "durationTicks": 250,
          "midi": 36,
          "name": "C2",
          "ticks": 330000,
          "time": 173.68394999999998,
          "velocity": 1
        },
        {
          "duration": 0.13157874999998853,
          "durationTicks": 250,
          "midi": 40,
          "name": "E2",
          "ticks": 330250,
          "time": 173.81552875,
          "velocity": 1
        },
        {
          "duration": 0.13157875000001695,
          "durationTicks": 250,
          "midi": 42,
          "name": "F#2",
          "ticks": 330500,
          "time": 173.9471075,
          "velocity": 1
        },
        {
          "duration": 0.13157874999998853,
          "durationTicks": 250,
          "midi": 44,
          "name": "G#2",
          "ticks": 331000,
          "time": 174.210265,
          "velocity": 1
        },
        {
          "duration": 0.13157874999998853,
          "durationTicks": 250,
          "midi": 36,
          "name": "C2",
          "ticks": 331000,
          "time": 174.210265,
          "velocity": 1
        },
        {
          "duration": 0.13157874999998853,
          "durationTicks": 250,
          "midi": 40,
          "name": "E2",
          "ticks": 331000,
          "time": 174.210265,
          "velocity": 1
        },
        {
          "duration": 0.13157874999998853,
          "durationTicks": 250,
          "midi": 44,
          "name": "G#2",
          "ticks": 331500,
          "time": 174.4734225,
          "velocity": 1
        },
        {
          "duration": 0.13157874999998853,
          "durationTicks": 250,
          "midi": 38,
          "name": "D2",
          "ticks": 331500,
          "time": 174.4734225,
          "velocity": 1
        },
        {
          "duration": 0.13157875000001695,
          "durationTicks": 250,
          "midi": 40,
          "name": "E2",
          "ticks": 331750,
          "time": 174.60500125,
          "velocity": 1
        },
        {
          "duration": 0.13157874999998853,
          "durationTicks": 250,
          "midi": 36,
          "name": "C2",
          "ticks": 332000,
          "time": 174.73658,
          "velocity": 1
        },
        {
          "duration": 0.13157874999998853,
          "durationTicks": 250,
          "midi": 42,
          "name": "F#2",
          "ticks": 332000,
          "time": 174.73658,
          "velocity": 1
        },
        {
          "duration": 0.13157875000001695,
          "durationTicks": 250,
          "midi": 42,
          "name": "F#2",
          "ticks": 332500,
          "time": 174.99973749999998,
          "velocity": 1
        },
        {
          "duration": 0.13157875000001695,
          "durationTicks": 250,
          "midi": 44,
          "name": "G#2",
          "ticks": 333000,
          "time": 175.262895,
          "velocity": 1
        },
        {
          "duration": 0.13157875000001695,
          "durationTicks": 250,
          "midi": 36,
          "name": "C2",
          "ticks": 333000,
          "time": 175.262895,
          "velocity": 1
        },
        {
          "duration": 0.13157875000001695,
          "durationTicks": 250,
          "midi": 40,
          "name": "E2",
          "ticks": 333000,
          "time": 175.262895,
          "velocity": 1
        },
        {
          "duration": 0.13157874999998853,
          "durationTicks": 250,
          "midi": 44,
          "name": "G#2",
          "ticks": 333500,
          "time": 175.5260525,
          "velocity": 1
        },
        {
          "duration": 0.13157875000001695,
          "durationTicks": 250,
          "midi": 40,
          "name": "E2",
          "ticks": 333750,
          "time": 175.65763124999998,
          "velocity": 1
        },
        {
          "duration": 0.13157874999998853,
          "durationTicks": 250,
          "midi": 42,
          "name": "F#2",
          "ticks": 334000,
          "time": 175.78921,
          "velocity": 1
        },
        {
          "duration": 0.13157874999998853,
          "durationTicks": 250,
          "midi": 36,
          "name": "C2",
          "ticks": 334000,
          "time": 175.78921,
          "velocity": 1
        },
        {
          "duration": 0.13157875000001695,
          "durationTicks": 250,
          "midi": 40,
          "name": "E2",
          "ticks": 334250,
          "time": 175.92078874999999,
          "velocity": 1
        },
        {
          "duration": 0.13157874999998853,
          "durationTicks": 250,
          "midi": 42,
          "name": "F#2",
          "ticks": 334500,
          "time": 176.0523675,
          "velocity": 1
        },
        {
          "duration": 0.13157875000001695,
          "durationTicks": 250,
          "midi": 44,
          "name": "G#2",
          "ticks": 335000,
          "time": 176.31552499999998,
          "velocity": 1
        },
        {
          "duration": 0.13157875000001695,
          "durationTicks": 250,
          "midi": 36,
          "name": "C2",
          "ticks": 335000,
          "time": 176.31552499999998,
          "velocity": 1
        },
        {
          "duration": 0.13157875000001695,
          "durationTicks": 250,
          "midi": 40,
          "name": "E2",
          "ticks": 335000,
          "time": 176.31552499999998,
          "velocity": 1
        },
        {
          "duration": 0.13157875000001695,
          "durationTicks": 250,
          "midi": 44,
          "name": "G#2",
          "ticks": 335500,
          "time": 176.57868249999999,
          "velocity": 1
        },
        {
          "duration": 0.13157874999998853,
          "durationTicks": 250,
          "midi": 36,
          "name": "C2",
          "ticks": 336000,
          "time": 176.84184,
          "velocity": 1
        },
        {
          "duration": 0.13157874999998853,
          "durationTicks": 250,
          "midi": 42,
          "name": "F#2",
          "ticks": 336000,
          "time": 176.84184,
          "velocity": 1
        },
        {
          "duration": 0.13157874999998853,
          "durationTicks": 250,
          "midi": 42,
          "name": "F#2",
          "ticks": 336500,
          "time": 177.1049975,
          "velocity": 1
        },
        {
          "duration": 0.13157874999998853,
          "durationTicks": 250,
          "midi": 44,
          "name": "G#2",
          "ticks": 337000,
          "time": 177.368155,
          "velocity": 1
        },
        {
          "duration": 0.13157874999998853,
          "durationTicks": 250,
          "midi": 36,
          "name": "C2",
          "ticks": 337000,
          "time": 177.368155,
          "velocity": 1
        },
        {
          "duration": 0.13157874999998853,
          "durationTicks": 250,
          "midi": 40,
          "name": "E2",
          "ticks": 337000,
          "time": 177.368155,
          "velocity": 1
        },
        {
          "duration": 0.13157875000001695,
          "durationTicks": 250,
          "midi": 44,
          "name": "G#2",
          "ticks": 337500,
          "time": 177.63131249999998,
          "velocity": 1
        },
        {
          "duration": 0.13157874999998853,
          "durationTicks": 250,
          "midi": 40,
          "name": "E2",
          "ticks": 337750,
          "time": 177.76289125,
          "velocity": 1
        },
        {
          "duration": 0.13157875000001695,
          "durationTicks": 250,
          "midi": 42,
          "name": "F#2",
          "ticks": 338000,
          "time": 177.89446999999998,
          "velocity": 1
        },
        {
          "duration": 0.13157875000001695,
          "durationTicks": 250,
          "midi": 36,
          "name": "C2",
          "ticks": 338000,
          "time": 177.89446999999998,
          "velocity": 1
        },
        {
          "duration": 0.13157874999998853,
          "durationTicks": 250,
          "midi": 38,
          "name": "D2",
          "ticks": 338250,
          "time": 178.02604875,
          "velocity": 1
        },
        {
          "duration": 0.13157874999998853,
          "durationTicks": 250,
          "midi": 40,
          "name": "E2",
          "ticks": 338250,
          "time": 178.02604875,
          "velocity": 1
        },
        {
          "duration": 0.13157874999998853,
          "durationTicks": 250,
          "midi": 42,
          "name": "F#2",
          "ticks": 338500,
          "time": 178.1576275,
          "velocity": 1
        },
        {
          "duration": 0.13157875000001695,
          "durationTicks": 250,
          "midi": 38,
          "name": "D2",
          "ticks": 338750,
          "time": 178.28920624999998,
          "velocity": 1
        },
        {
          "duration": 0.13157875000001695,
          "durationTicks": 250,
          "midi": 40,
          "name": "E2",
          "ticks": 338750,
          "time": 178.28920624999998,
          "velocity": 1
        },
        {
          "duration": 0.13157874999998853,
          "durationTicks": 250,
          "midi": 44,
          "name": "G#2",
          "ticks": 339000,
          "time": 178.420785,
          "velocity": 1
        },
        {
          "duration": 0.13157874999998853,
          "durationTicks": 250,
          "midi": 36,
          "name": "C2",
          "ticks": 339000,
          "time": 178.420785,
          "velocity": 1
        },
        {
          "duration": 0.13157875000001695,
          "durationTicks": 250,
          "midi": 38,
          "name": "D2",
          "ticks": 339250,
          "time": 178.55236374999998,
          "velocity": 1
        },
        {
          "duration": 0.13157875000001695,
          "durationTicks": 250,
          "midi": 40,
          "name": "E2",
          "ticks": 339250,
          "time": 178.55236374999998,
          "velocity": 1
        },
        {
          "duration": 0.13157874999998853,
          "durationTicks": 250,
          "midi": 44,
          "name": "G#2",
          "ticks": 339500,
          "time": 178.6839425,
          "velocity": 1
        },
        {
          "duration": 0.13157874999998853,
          "durationTicks": 250,
          "midi": 38,
          "name": "D2",
          "ticks": 339500,
          "time": 178.6839425,
          "velocity": 1
        },
        {
          "duration": 0.13157874999998853,
          "durationTicks": 250,
          "midi": 40,
          "name": "E2",
          "ticks": 339500,
          "time": 178.6839425,
          "velocity": 1
        },
        {
          "duration": 0.13157874999998853,
          "durationTicks": 250,
          "midi": 36,
          "name": "C2",
          "ticks": 340000,
          "time": 178.9471,
          "velocity": 1
        },
        {
          "duration": 0.13157875000001695,
          "durationTicks": 250,
          "midi": 36,
          "name": "C2",
          "ticks": 341000,
          "time": 179.473415,
          "velocity": 1
        },
        {
          "duration": 0.13157875000001695,
          "durationTicks": 250,
          "midi": 40,
          "name": "E2",
          "ticks": 341000,
          "time": 179.473415,
          "velocity": 1
        },
        {
          "duration": 0.13157875000001695,
          "durationTicks": 250,
          "midi": 40,
          "name": "E2",
          "ticks": 341750,
          "time": 179.86815124999998,
          "velocity": 1
        },
        {
          "duration": 0.13157874999998853,
          "durationTicks": 250,
          "midi": 36,
          "name": "C2",
          "ticks": 342000,
          "time": 179.99973,
          "velocity": 1
        },
        {
          "duration": 0.13157875000001695,
          "durationTicks": 250,
          "midi": 40,
          "name": "E2",
          "ticks": 342250,
          "time": 180.13130875,
          "velocity": 1
        },
        {
          "duration": 0.13157875000001695,
          "durationTicks": 250,
          "midi": 36,
          "name": "C2",
          "ticks": 343000,
          "time": 180.52604499999998,
          "velocity": 1
        },
        {
          "duration": 0.13157875000001695,
          "durationTicks": 250,
          "midi": 40,
          "name": "E2",
          "ticks": 343000,
          "time": 180.52604499999998,
          "velocity": 1
        },
        {
          "duration": 0.13157874999998853,
          "durationTicks": 250,
          "midi": 36,
          "name": "C2",
          "ticks": 344000,
          "time": 181.05236,
          "velocity": 1
        },
        {
          "duration": 0.13157874999998853,
          "durationTicks": 250,
          "midi": 40,
          "name": "E2",
          "ticks": 345000,
          "time": 181.578675,
          "velocity": 1
        },
        {
          "duration": 0.13157874999998853,
          "durationTicks": 250,
          "midi": 36,
          "name": "C2",
          "ticks": 345000,
          "time": 181.578675,
          "velocity": 1
        },
        {
          "duration": 0.13157874999998853,
          "durationTicks": 250,
          "midi": 40,
          "name": "E2",
          "ticks": 345750,
          "time": 181.97341125,
          "velocity": 1
        },
        {
          "duration": 0.13157875000001695,
          "durationTicks": 250,
          "midi": 36,
          "name": "C2",
          "ticks": 346000,
          "time": 182.10499,
          "velocity": 1
        },
        {
          "duration": 0.13157874999998853,
          "durationTicks": 250,
          "midi": 40,
          "name": "E2",
          "ticks": 346250,
          "time": 182.23656875,
          "velocity": 1
        },
        {
          "duration": 0.13157874999998853,
          "durationTicks": 250,
          "midi": 36,
          "name": "C2",
          "ticks": 347000,
          "time": 182.631305,
          "velocity": 1
        },
        {
          "duration": 0.13157874999998853,
          "durationTicks": 250,
          "midi": 40,
          "name": "E2",
          "ticks": 347000,
          "time": 182.631305,
          "velocity": 1
        },
        {
          "duration": 0.13157874999998853,
          "durationTicks": 250,
          "midi": 40,
          "name": "E2",
          "ticks": 347500,
          "time": 182.8944625,
          "velocity": 1
        },
        {
          "duration": 0.13157874999998853,
          "durationTicks": 250,
          "midi": 40,
          "name": "E2",
          "ticks": 347750,
          "time": 183.02604125,
          "velocity": 1
        },
        {
          "duration": 0.13157875000001695,
          "durationTicks": 250,
          "midi": 36,
          "name": "C2",
          "ticks": 348000,
          "time": 183.15761999999998,
          "velocity": 1
        },
        {
          "duration": 0.13157874999998853,
          "durationTicks": 250,
          "midi": 36,
          "name": "C2",
          "ticks": 349000,
          "time": 183.683935,
          "velocity": 1
        },
        {
          "duration": 0.13157874999998853,
          "durationTicks": 250,
          "midi": 40,
          "name": "E2",
          "ticks": 349000,
          "time": 183.683935,
          "velocity": 1
        },
        {
          "duration": 0.13157875000001695,
          "durationTicks": 250,
          "midi": 40,
          "name": "E2",
          "ticks": 349750,
          "time": 184.07867124999999,
          "velocity": 1
        },
        {
          "duration": 0.13157874999998853,
          "durationTicks": 250,
          "midi": 36,
          "name": "C2",
          "ticks": 350000,
          "time": 184.21025,
          "velocity": 1
        },
        {
          "duration": 0.13157874999998853,
          "durationTicks": 250,
          "midi": 40,
          "name": "E2",
          "ticks": 350250,
          "time": 184.34182875,
          "velocity": 1
        },
        {
          "duration": 0.13157875000001695,
          "durationTicks": 250,
          "midi": 40,
          "name": "E2",
          "ticks": 351000,
          "time": 184.73656499999998,
          "velocity": 1
        },
        {
          "duration": 0.13157875000001695,
          "durationTicks": 250,
          "midi": 36,
          "name": "C2",
          "ticks": 351000,
          "time": 184.73656499999998,
          "velocity": 1
        },
        {
          "duration": 0.13157874999998853,
          "durationTicks": 250,
          "midi": 36,
          "name": "C2",
          "ticks": 352000,
          "time": 185.26288,
          "velocity": 1
        },
        {
          "duration": 0.13157875000001695,
          "durationTicks": 250,
          "midi": 36,
          "name": "C2",
          "ticks": 353000,
          "time": 185.78919499999998,
          "velocity": 1
        },
        {
          "duration": 0.13157875000001695,
          "durationTicks": 250,
          "midi": 40,
          "name": "E2",
          "ticks": 353000,
          "time": 185.78919499999998,
          "velocity": 1
        },
        {
          "duration": 0.13157874999998853,
          "durationTicks": 250,
          "midi": 40,
          "name": "E2",
          "ticks": 353750,
          "time": 186.18393125,
          "velocity": 1
        },
        {
          "duration": 0.13157875000001695,
          "durationTicks": 250,
          "midi": 36,
          "name": "C2",
          "ticks": 354000,
          "time": 186.31551,
          "velocity": 1
        },
        {
          "duration": 0.13157874999998853,
          "durationTicks": 250,
          "midi": 38,
          "name": "D2",
          "ticks": 355500,
          "time": 187.1049825,
          "velocity": 1
        },
        {
          "duration": 0.13157874999998853,
          "durationTicks": 250,
          "midi": 40,
          "name": "E2",
          "ticks": 355500,
          "time": 187.1049825,
          "velocity": 1
        },
        {
          "duration": 0.13157874999998853,
          "durationTicks": 250,
          "midi": 38,
          "name": "D2",
          "ticks": 355750,
          "time": 187.23656125,
          "velocity": 1
        },
        {
          "duration": 0.13157874999998853,
          "durationTicks": 250,
          "midi": 40,
          "name": "E2",
          "ticks": 355750,
          "time": 187.23656125,
          "velocity": 1
        },
        {
          "duration": 0.13157875000001695,
          "durationTicks": 250,
          "midi": 36,
          "name": "C2",
          "ticks": 356000,
          "time": 187.36813999999998,
          "velocity": 1
        },
        {
          "duration": 0.13157875000001695,
          "durationTicks": 250,
          "midi": 49,
          "name": "C#3",
          "ticks": 356000,
          "time": 187.36813999999998,
          "velocity": 1
        },
        {
          "duration": 0.13157875000001695,
          "durationTicks": 250,
          "midi": 42,
          "name": "F#2",
          "ticks": 356000,
          "time": 187.36813999999998,
          "velocity": 1
        },
        {
          "duration": 0.13157875000001695,
          "durationTicks": 250,
          "midi": 36,
          "name": "C2",
          "ticks": 356500,
          "time": 187.6312975,
          "velocity": 1
        },
        {
          "duration": 0.13157875000001695,
          "durationTicks": 250,
          "midi": 42,
          "name": "F#2",
          "ticks": 356500,
          "time": 187.6312975,
          "velocity": 1
        },
        {
          "duration": 0.13157874999998853,
          "durationTicks": 250,
          "midi": 38,
          "name": "D2",
          "ticks": 357000,
          "time": 187.894455,
          "velocity": 1
        },
        {
          "duration": 0.13157874999998853,
          "durationTicks": 250,
          "midi": 40,
          "name": "E2",
          "ticks": 357000,
          "time": 187.894455,
          "velocity": 1
        },
        {
          "duration": 0.13157874999998853,
          "durationTicks": 250,
          "midi": 36,
          "name": "C2",
          "ticks": 357000,
          "time": 187.894455,
          "velocity": 1
        },
        {
          "duration": 0.13157874999998853,
          "durationTicks": 250,
          "midi": 44,
          "name": "G#2",
          "ticks": 357000,
          "time": 187.894455,
          "velocity": 1
        },
        {
          "duration": 0.13157874999998853,
          "durationTicks": 250,
          "midi": 42,
          "name": "F#2",
          "ticks": 357500,
          "time": 188.1576125,
          "velocity": 1
        },
        {
          "duration": 0.13157874999998853,
          "durationTicks": 250,
          "midi": 36,
          "name": "C2",
          "ticks": 358000,
          "time": 188.42077,
          "velocity": 1
        },
        {
          "duration": 0.13157874999998853,
          "durationTicks": 250,
          "midi": 42,
          "name": "F#2",
          "ticks": 358000,
          "time": 188.42077,
          "velocity": 1
        },
        {
          "duration": 0.13157875000001695,
          "durationTicks": 250,
          "midi": 36,
          "name": "C2",
          "ticks": 358500,
          "time": 188.68392749999998,
          "velocity": 1
        },
        {
          "duration": 0.13157875000001695,
          "durationTicks": 250,
          "midi": 42,
          "name": "F#2",
          "ticks": 358500,
          "time": 188.68392749999998,
          "velocity": 1
        },
        {
          "duration": 0.13157875000001695,
          "durationTicks": 250,
          "midi": 36,
          "name": "C2",
          "ticks": 359000,
          "time": 188.947085,
          "velocity": 1
        },
        {
          "duration": 0.13157875000001695,
          "durationTicks": 250,
          "midi": 40,
          "name": "E2",
          "ticks": 359000,
          "time": 188.947085,
          "velocity": 1
        },
        {
          "duration": 0.13157875000001695,
          "durationTicks": 250,
          "midi": 38,
          "name": "D2",
          "ticks": 359000,
          "time": 188.947085,
          "velocity": 1
        },
        {
          "duration": 0.13157875000001695,
          "durationTicks": 250,
          "midi": 44,
          "name": "G#2",
          "ticks": 359000,
          "time": 188.947085,
          "velocity": 1
        },
        {
          "duration": 0.13157874999998853,
          "durationTicks": 250,
          "midi": 42,
          "name": "F#2",
          "ticks": 359500,
          "time": 189.2102425,
          "velocity": 1
        },
        {
          "duration": 0.13157874999998853,
          "durationTicks": 250,
          "midi": 36,
          "name": "C2",
          "ticks": 360000,
          "time": 189.4734,
          "velocity": 1
        },
        {
          "duration": 0.13157874999998853,
          "durationTicks": 250,
          "midi": 42,
          "name": "F#2",
          "ticks": 360000,
          "time": 189.4734,
          "velocity": 1
        },
        {
          "duration": 0.13157874999998853,
          "durationTicks": 250,
          "midi": 36,
          "name": "C2",
          "ticks": 360500,
          "time": 189.7365575,
          "velocity": 1
        },
        {
          "duration": 0.13157874999998853,
          "durationTicks": 250,
          "midi": 42,
          "name": "F#2",
          "ticks": 360500,
          "time": 189.7365575,
          "velocity": 1
        },
        {
          "duration": 0.13157875000001695,
          "durationTicks": 250,
          "midi": 36,
          "name": "C2",
          "ticks": 361000,
          "time": 189.99971499999998,
          "velocity": 1
        },
        {
          "duration": 0.13157875000001695,
          "durationTicks": 250,
          "midi": 38,
          "name": "D2",
          "ticks": 361000,
          "time": 189.99971499999998,
          "velocity": 1
        },
        {
          "duration": 0.13157875000001695,
          "durationTicks": 250,
          "midi": 40,
          "name": "E2",
          "ticks": 361000,
          "time": 189.99971499999998,
          "velocity": 1
        },
        {
          "duration": 0.13157875000001695,
          "durationTicks": 250,
          "midi": 44,
          "name": "G#2",
          "ticks": 361000,
          "time": 189.99971499999998,
          "velocity": 1
        },
        {
          "duration": 0.13157875000001695,
          "durationTicks": 250,
          "midi": 42,
          "name": "F#2",
          "ticks": 361500,
          "time": 190.2628725,
          "velocity": 1
        },
        {
          "duration": 0.13157874999998853,
          "durationTicks": 250,
          "midi": 36,
          "name": "C2",
          "ticks": 362000,
          "time": 190.52603,
          "velocity": 1
        },
        {
          "duration": 0.13157874999998853,
          "durationTicks": 250,
          "midi": 42,
          "name": "F#2",
          "ticks": 362000,
          "time": 190.52603,
          "velocity": 1
        },
        {
          "duration": 0.13157874999998853,
          "durationTicks": 250,
          "midi": 36,
          "name": "C2",
          "ticks": 362500,
          "time": 190.7891875,
          "velocity": 1
        },
        {
          "duration": 0.13157874999998853,
          "durationTicks": 250,
          "midi": 42,
          "name": "F#2",
          "ticks": 362500,
          "time": 190.7891875,
          "velocity": 1
        },
        {
          "duration": 0.13157874999998853,
          "durationTicks": 250,
          "midi": 36,
          "name": "C2",
          "ticks": 363000,
          "time": 191.052345,
          "velocity": 1
        },
        {
          "duration": 0.13157874999998853,
          "durationTicks": 250,
          "midi": 38,
          "name": "D2",
          "ticks": 363000,
          "time": 191.052345,
          "velocity": 1
        },
        {
          "duration": 0.13157874999998853,
          "durationTicks": 250,
          "midi": 40,
          "name": "E2",
          "ticks": 363000,
          "time": 191.052345,
          "velocity": 1
        },
        {
          "duration": 0.13157874999998853,
          "durationTicks": 250,
          "midi": 44,
          "name": "G#2",
          "ticks": 363000,
          "time": 191.052345,
          "velocity": 1
        },
        {
          "duration": 0.13157875000001695,
          "durationTicks": 250,
          "midi": 42,
          "name": "F#2",
          "ticks": 363500,
          "time": 191.31550249999998,
          "velocity": 1
        },
        {
          "duration": 0.13157875000001695,
          "durationTicks": 250,
          "midi": 36,
          "name": "C2",
          "ticks": 364000,
          "time": 191.57865999999999,
          "velocity": 1
        },
        {
          "duration": 0.13157875000001695,
          "durationTicks": 250,
          "midi": 42,
          "name": "F#2",
          "ticks": 364000,
          "time": 191.57865999999999,
          "velocity": 1
        },
        {
          "duration": 0.13157874999998853,
          "durationTicks": 250,
          "midi": 36,
          "name": "C2",
          "ticks": 364500,
          "time": 191.8418175,
          "velocity": 1
        },
        {
          "duration": 0.13157874999998853,
          "durationTicks": 250,
          "midi": 42,
          "name": "F#2",
          "ticks": 364500,
          "time": 191.8418175,
          "velocity": 1
        },
        {
          "duration": 0.13157874999998853,
          "durationTicks": 250,
          "midi": 36,
          "name": "C2",
          "ticks": 365000,
          "time": 192.104975,
          "velocity": 1
        },
        {
          "duration": 0.13157874999998853,
          "durationTicks": 250,
          "midi": 38,
          "name": "D2",
          "ticks": 365000,
          "time": 192.104975,
          "velocity": 1
        },
        {
          "duration": 0.13157874999998853,
          "durationTicks": 250,
          "midi": 40,
          "name": "E2",
          "ticks": 365000,
          "time": 192.104975,
          "velocity": 1
        },
        {
          "duration": 0.13157874999998853,
          "durationTicks": 250,
          "midi": 44,
          "name": "G#2",
          "ticks": 365000,
          "time": 192.104975,
          "velocity": 1
        },
        {
          "duration": 0.13157874999998853,
          "durationTicks": 250,
          "midi": 42,
          "name": "F#2",
          "ticks": 365500,
          "time": 192.3681325,
          "velocity": 1
        },
        {
          "duration": 0.13157875000001695,
          "durationTicks": 250,
          "midi": 36,
          "name": "C2",
          "ticks": 366000,
          "time": 192.63128999999998,
          "velocity": 1
        },
        {
          "duration": 0.13157875000001695,
          "durationTicks": 250,
          "midi": 42,
          "name": "F#2",
          "ticks": 366000,
          "time": 192.63128999999998,
          "velocity": 1
        },
        {
          "duration": 0.13157875000001695,
          "durationTicks": 250,
          "midi": 36,
          "name": "C2",
          "ticks": 366500,
          "time": 192.89444749999998,
          "velocity": 1
        },
        {
          "duration": 0.13157875000001695,
          "durationTicks": 250,
          "midi": 42,
          "name": "F#2",
          "ticks": 366500,
          "time": 192.89444749999998,
          "velocity": 1
        },
        {
          "duration": 0.13157874999998853,
          "durationTicks": 250,
          "midi": 36,
          "name": "C2",
          "ticks": 367000,
          "time": 193.157605,
          "velocity": 1
        },
        {
          "duration": 0.13157874999998853,
          "durationTicks": 250,
          "midi": 38,
          "name": "D2",
          "ticks": 367000,
          "time": 193.157605,
          "velocity": 1
        },
        {
          "duration": 0.13157874999998853,
          "durationTicks": 250,
          "midi": 40,
          "name": "E2",
          "ticks": 367000,
          "time": 193.157605,
          "velocity": 1
        },
        {
          "duration": 0.13157874999998853,
          "durationTicks": 250,
          "midi": 44,
          "name": "G#2",
          "ticks": 367000,
          "time": 193.157605,
          "velocity": 1
        },
        {
          "duration": 0.13157874999998853,
          "durationTicks": 250,
          "midi": 42,
          "name": "F#2",
          "ticks": 367500,
          "time": 193.4207625,
          "velocity": 1
        },
        {
          "duration": 0.13157874999998853,
          "durationTicks": 250,
          "midi": 36,
          "name": "C2",
          "ticks": 368000,
          "time": 193.68392,
          "velocity": 1
        },
        {
          "duration": 0.13157874999998853,
          "durationTicks": 250,
          "midi": 42,
          "name": "F#2",
          "ticks": 368000,
          "time": 193.68392,
          "velocity": 1
        },
        {
          "duration": 0.13157875000001695,
          "durationTicks": 250,
          "midi": 36,
          "name": "C2",
          "ticks": 368500,
          "time": 193.94707749999998,
          "velocity": 1
        },
        {
          "duration": 0.13157875000001695,
          "durationTicks": 250,
          "midi": 42,
          "name": "F#2",
          "ticks": 368500,
          "time": 193.94707749999998,
          "velocity": 1
        },
        {
          "duration": 0.13157875000001695,
          "durationTicks": 250,
          "midi": 36,
          "name": "C2",
          "ticks": 369000,
          "time": 194.21023499999998,
          "velocity": 1
        },
        {
          "duration": 0.13157875000001695,
          "durationTicks": 250,
          "midi": 38,
          "name": "D2",
          "ticks": 369000,
          "time": 194.21023499999998,
          "velocity": 1
        },
        {
          "duration": 0.13157875000001695,
          "durationTicks": 250,
          "midi": 40,
          "name": "E2",
          "ticks": 369000,
          "time": 194.21023499999998,
          "velocity": 1
        },
        {
          "duration": 0.13157875000001695,
          "durationTicks": 250,
          "midi": 44,
          "name": "G#2",
          "ticks": 369000,
          "time": 194.21023499999998,
          "velocity": 1
        },
        {
          "duration": 0.13157875000001695,
          "durationTicks": 250,
          "midi": 42,
          "name": "F#2",
          "ticks": 369500,
          "time": 194.4733925,
          "velocity": 1
        },
        {
          "duration": 0.13157874999998853,
          "durationTicks": 250,
          "midi": 36,
          "name": "C2",
          "ticks": 370000,
          "time": 194.73655,
          "velocity": 1
        },
        {
          "duration": 0.13157874999998853,
          "durationTicks": 250,
          "midi": 42,
          "name": "F#2",
          "ticks": 370000,
          "time": 194.73655,
          "velocity": 1
        },
        {
          "duration": 0.13157874999998853,
          "durationTicks": 250,
          "midi": 36,
          "name": "C2",
          "ticks": 370500,
          "time": 194.9997075,
          "velocity": 1
        },
        {
          "duration": 0.13157874999998853,
          "durationTicks": 250,
          "midi": 42,
          "name": "F#2",
          "ticks": 370500,
          "time": 194.9997075,
          "velocity": 1
        },
        {
          "duration": 0.13157874999998853,
          "durationTicks": 250,
          "midi": 36,
          "name": "C2",
          "ticks": 371000,
          "time": 195.262865,
          "velocity": 1
        },
        {
          "duration": 0.13157874999998853,
          "durationTicks": 250,
          "midi": 38,
          "name": "D2",
          "ticks": 371000,
          "time": 195.262865,
          "velocity": 1
        },
        {
          "duration": 0.13157874999998853,
          "durationTicks": 250,
          "midi": 40,
          "name": "E2",
          "ticks": 371000,
          "time": 195.262865,
          "velocity": 1
        },
        {
          "duration": 0.13157874999998853,
          "durationTicks": 250,
          "midi": 44,
          "name": "G#2",
          "ticks": 371000,
          "time": 195.262865,
          "velocity": 1
        },
        {
          "duration": 0.13157875000001695,
          "durationTicks": 250,
          "midi": 42,
          "name": "F#2",
          "ticks": 371500,
          "time": 195.52602249999998,
          "velocity": 1
        },
        {
          "duration": 0.13157875000001695,
          "durationTicks": 250,
          "midi": 36,
          "name": "C2",
          "ticks": 372000,
          "time": 195.78918,
          "velocity": 1
        },
        {
          "duration": 0.13157875000001695,
          "durationTicks": 250,
          "midi": 42,
          "name": "F#2",
          "ticks": 372000,
          "time": 195.78918,
          "velocity": 1
        },
        {
          "duration": 0.13157874999998853,
          "durationTicks": 250,
          "midi": 36,
          "name": "C2",
          "ticks": 372500,
          "time": 196.0523375,
          "velocity": 1
        },
        {
          "duration": 0.13157874999998853,
          "durationTicks": 250,
          "midi": 42,
          "name": "F#2",
          "ticks": 372500,
          "time": 196.0523375,
          "velocity": 1
        },
        {
          "duration": 0.13157874999998853,
          "durationTicks": 250,
          "midi": 36,
          "name": "C2",
          "ticks": 373000,
          "time": 196.315495,
          "velocity": 1
        },
        {
          "duration": 0.13157874999998853,
          "durationTicks": 250,
          "midi": 38,
          "name": "D2",
          "ticks": 373000,
          "time": 196.315495,
          "velocity": 1
        },
        {
          "duration": 0.13157874999998853,
          "durationTicks": 250,
          "midi": 40,
          "name": "E2",
          "ticks": 373000,
          "time": 196.315495,
          "velocity": 1
        },
        {
          "duration": 0.13157874999998853,
          "durationTicks": 250,
          "midi": 44,
          "name": "G#2",
          "ticks": 373000,
          "time": 196.315495,
          "velocity": 1
        },
        {
          "duration": 0.13157874999998853,
          "durationTicks": 250,
          "midi": 42,
          "name": "F#2",
          "ticks": 373500,
          "time": 196.5786525,
          "velocity": 1
        },
        {
          "duration": 0.13157875000001695,
          "durationTicks": 250,
          "midi": 36,
          "name": "C2",
          "ticks": 374000,
          "time": 196.84180999999998,
          "velocity": 1
        },
        {
          "duration": 0.13157875000001695,
          "durationTicks": 250,
          "midi": 42,
          "name": "F#2",
          "ticks": 374000,
          "time": 196.84180999999998,
          "velocity": 1
        },
        {
          "duration": 0.13157875000001695,
          "durationTicks": 250,
          "midi": 36,
          "name": "C2",
          "ticks": 374500,
          "time": 197.1049675,
          "velocity": 1
        },
        {
          "duration": 0.13157875000001695,
          "durationTicks": 250,
          "midi": 42,
          "name": "F#2",
          "ticks": 374500,
          "time": 197.1049675,
          "velocity": 1
        },
        {
          "duration": 0.13157874999998853,
          "durationTicks": 250,
          "midi": 36,
          "name": "C2",
          "ticks": 375000,
          "time": 197.368125,
          "velocity": 1
        },
        {
          "duration": 0.13157874999998853,
          "durationTicks": 250,
          "midi": 38,
          "name": "D2",
          "ticks": 375000,
          "time": 197.368125,
          "velocity": 1
        },
        {
          "duration": 0.13157874999998853,
          "durationTicks": 250,
          "midi": 40,
          "name": "E2",
          "ticks": 375000,
          "time": 197.368125,
          "velocity": 1
        },
        {
          "duration": 0.13157874999998853,
          "durationTicks": 250,
          "midi": 44,
          "name": "G#2",
          "ticks": 375000,
          "time": 197.368125,
          "velocity": 1
        },
        {
          "duration": 0.13157874999998853,
          "durationTicks": 250,
          "midi": 42,
          "name": "F#2",
          "ticks": 375500,
          "time": 197.6312825,
          "velocity": 1
        },
        {
          "duration": 0.13157874999998853,
          "durationTicks": 250,
          "midi": 36,
          "name": "C2",
          "ticks": 376000,
          "time": 197.89444,
          "velocity": 1
        },
        {
          "duration": 0.13157874999998853,
          "durationTicks": 250,
          "midi": 42,
          "name": "F#2",
          "ticks": 376000,
          "time": 197.89444,
          "velocity": 1
        },
        {
          "duration": 0.13157875000001695,
          "durationTicks": 250,
          "midi": 36,
          "name": "C2",
          "ticks": 376500,
          "time": 198.15759749999998,
          "velocity": 1
        },
        {
          "duration": 0.13157875000001695,
          "durationTicks": 250,
          "midi": 42,
          "name": "F#2",
          "ticks": 376500,
          "time": 198.15759749999998,
          "velocity": 1
        },
        {
          "duration": 0.13157875000001695,
          "durationTicks": 250,
          "midi": 36,
          "name": "C2",
          "ticks": 377000,
          "time": 198.42075499999999,
          "velocity": 1
        },
        {
          "duration": 0.13157875000001695,
          "durationTicks": 250,
          "midi": 38,
          "name": "D2",
          "ticks": 377000,
          "time": 198.42075499999999,
          "velocity": 1
        },
        {
          "duration": 0.13157875000001695,
          "durationTicks": 250,
          "midi": 40,
          "name": "E2",
          "ticks": 377000,
          "time": 198.42075499999999,
          "velocity": 1
        },
        {
          "duration": 0.13157875000001695,
          "durationTicks": 250,
          "midi": 44,
          "name": "G#2",
          "ticks": 377000,
          "time": 198.42075499999999,
          "velocity": 1
        },
        {
          "duration": 0.13157874999998853,
          "durationTicks": 250,
          "midi": 42,
          "name": "F#2",
          "ticks": 377500,
          "time": 198.6839125,
          "velocity": 1
        },
        {
          "duration": 0.13157874999998853,
          "durationTicks": 250,
          "midi": 36,
          "name": "C2",
          "ticks": 378000,
          "time": 198.94707,
          "velocity": 1
        },
        {
          "duration": 0.13157874999998853,
          "durationTicks": 250,
          "midi": 42,
          "name": "F#2",
          "ticks": 378000,
          "time": 198.94707,
          "velocity": 1
        },
        {
          "duration": 0.13157874999998853,
          "durationTicks": 250,
          "midi": 36,
          "name": "C2",
          "ticks": 378500,
          "time": 199.2102275,
          "velocity": 1
        },
        {
          "duration": 0.13157874999998853,
          "durationTicks": 250,
          "midi": 42,
          "name": "F#2",
          "ticks": 378500,
          "time": 199.2102275,
          "velocity": 1
        },
        {
          "duration": 0.13157875000001695,
          "durationTicks": 250,
          "midi": 36,
          "name": "C2",
          "ticks": 379000,
          "time": 199.47338499999998,
          "velocity": 1
        },
        {
          "duration": 0.13157875000001695,
          "durationTicks": 250,
          "midi": 38,
          "name": "D2",
          "ticks": 379000,
          "time": 199.47338499999998,
          "velocity": 1
        },
        {
          "duration": 0.13157875000001695,
          "durationTicks": 250,
          "midi": 40,
          "name": "E2",
          "ticks": 379000,
          "time": 199.47338499999998,
          "velocity": 1
        },
        {
          "duration": 0.13157875000001695,
          "durationTicks": 250,
          "midi": 44,
          "name": "G#2",
          "ticks": 379000,
          "time": 199.47338499999998,
          "velocity": 1
        },
        {
          "duration": 0.13157875000001695,
          "durationTicks": 250,
          "midi": 42,
          "name": "F#2",
          "ticks": 379500,
          "time": 199.73654249999998,
          "velocity": 1
        },
        {
          "duration": 0.13157874999998853,
          "durationTicks": 250,
          "midi": 36,
          "name": "C2",
          "ticks": 380000,
          "time": 199.9997,
          "velocity": 1
        },
        {
          "duration": 0.13157874999998853,
          "durationTicks": 250,
          "midi": 42,
          "name": "F#2",
          "ticks": 380000,
          "time": 199.9997,
          "velocity": 1
        },
        {
          "duration": 0.13157874999998853,
          "durationTicks": 250,
          "midi": 49,
          "name": "C#3",
          "ticks": 380000,
          "time": 199.9997,
          "velocity": 1
        },
        {
          "duration": 0.13157874999998853,
          "durationTicks": 250,
          "midi": 36,
          "name": "C2",
          "ticks": 380500,
          "time": 200.2628575,
          "velocity": 1
        },
        {
          "duration": 0.13157874999998853,
          "durationTicks": 250,
          "midi": 42,
          "name": "F#2",
          "ticks": 380500,
          "time": 200.2628575,
          "velocity": 1
        },
        {
          "duration": 0.13157874999998853,
          "durationTicks": 250,
          "midi": 36,
          "name": "C2",
          "ticks": 381000,
          "time": 200.526015,
          "velocity": 1
        },
        {
          "duration": 0.13157874999998853,
          "durationTicks": 250,
          "midi": 38,
          "name": "D2",
          "ticks": 381000,
          "time": 200.526015,
          "velocity": 1
        },
        {
          "duration": 0.13157874999998853,
          "durationTicks": 250,
          "midi": 40,
          "name": "E2",
          "ticks": 381000,
          "time": 200.526015,
          "velocity": 1
        },
        {
          "duration": 0.13157874999998853,
          "durationTicks": 250,
          "midi": 44,
          "name": "G#2",
          "ticks": 381000,
          "time": 200.526015,
          "velocity": 1
        },
        {
          "duration": 0.13157874999998853,
          "durationTicks": 250,
          "midi": 57,
          "name": "A3",
          "ticks": 381000,
          "time": 200.526015,
          "velocity": 1
        },
        {
          "duration": 0.13157875000001695,
          "durationTicks": 250,
          "midi": 42,
          "name": "F#2",
          "ticks": 381500,
          "time": 200.78917249999998,
          "velocity": 1
        },
        {
          "duration": 0.13157875000001695,
          "durationTicks": 250,
          "midi": 36,
          "name": "C2",
          "ticks": 382000,
          "time": 201.05232999999998,
          "velocity": 1
        },
        {
          "duration": 0.13157875000001695,
          "durationTicks": 250,
          "midi": 42,
          "name": "F#2",
          "ticks": 382000,
          "time": 201.05232999999998,
          "velocity": 1
        },
        {
          "duration": 0.13157875000001695,
          "durationTicks": 250,
          "midi": 49,
          "name": "C#3",
          "ticks": 382000,
          "time": 201.05232999999998,
          "velocity": 1
        },
        {
          "duration": 0.13157874999998853,
          "durationTicks": 250,
          "midi": 36,
          "name": "C2",
          "ticks": 382500,
          "time": 201.3154875,
          "velocity": 1
        },
        {
          "duration": 0.13157874999998853,
          "durationTicks": 250,
          "midi": 42,
          "name": "F#2",
          "ticks": 382500,
          "time": 201.3154875,
          "velocity": 1
        },
        {
          "duration": 0.13157874999998853,
          "durationTicks": 250,
          "midi": 36,
          "name": "C2",
          "ticks": 383000,
          "time": 201.578645,
          "velocity": 1
        },
        {
          "duration": 0.13157874999998853,
          "durationTicks": 250,
          "midi": 38,
          "name": "D2",
          "ticks": 383000,
          "time": 201.578645,
          "velocity": 1
        },
        {
          "duration": 0.13157874999998853,
          "durationTicks": 250,
          "midi": 40,
          "name": "E2",
          "ticks": 383000,
          "time": 201.578645,
          "velocity": 1
        },
        {
          "duration": 0.13157874999998853,
          "durationTicks": 250,
          "midi": 44,
          "name": "G#2",
          "ticks": 383000,
          "time": 201.578645,
          "velocity": 1
        },
        {
          "duration": 0.13157874999998853,
          "durationTicks": 250,
          "midi": 57,
          "name": "A3",
          "ticks": 383000,
          "time": 201.578645,
          "velocity": 1
        },
        {
          "duration": 0.13157874999998853,
          "durationTicks": 250,
          "midi": 42,
          "name": "F#2",
          "ticks": 383500,
          "time": 201.8418025,
          "velocity": 1
        },
        {
          "duration": 0.13157874999998853,
          "durationTicks": 250,
          "midi": 36,
          "name": "C2",
          "ticks": 384000,
          "time": 202.10496,
          "velocity": 1
        },
        {
          "duration": 0.13157874999998853,
          "durationTicks": 250,
          "midi": 42,
          "name": "F#2",
          "ticks": 384000,
          "time": 202.10496,
          "velocity": 1
        },
        {
          "duration": 0.13157874999998853,
          "durationTicks": 250,
          "midi": 49,
          "name": "C#3",
          "ticks": 384000,
          "time": 202.10496,
          "velocity": 1
        },
        {
          "duration": 0.13157875000001695,
          "durationTicks": 250,
          "midi": 36,
          "name": "C2",
          "ticks": 384500,
          "time": 202.36811749999998,
          "velocity": 1
        },
        {
          "duration": 0.13157875000001695,
          "durationTicks": 250,
          "midi": 42,
          "name": "F#2",
          "ticks": 384500,
          "time": 202.36811749999998,
          "velocity": 1
        },
        {
          "duration": 0.13157875000001695,
          "durationTicks": 250,
          "midi": 36,
          "name": "C2",
          "ticks": 385000,
          "time": 202.631275,
          "velocity": 1
        },
        {
          "duration": 0.13157875000001695,
          "durationTicks": 250,
          "midi": 38,
          "name": "D2",
          "ticks": 385000,
          "time": 202.631275,
          "velocity": 1
        },
        {
          "duration": 0.13157875000001695,
          "durationTicks": 250,
          "midi": 40,
          "name": "E2",
          "ticks": 385000,
          "time": 202.631275,
          "velocity": 1
        },
        {
          "duration": 0.13157875000001695,
          "durationTicks": 250,
          "midi": 44,
          "name": "G#2",
          "ticks": 385000,
          "time": 202.631275,
          "velocity": 1
        },
        {
          "duration": 0.13157875000001695,
          "durationTicks": 250,
          "midi": 57,
          "name": "A3",
          "ticks": 385000,
          "time": 202.631275,
          "velocity": 1
        },
        {
          "duration": 0.13157874999998853,
          "durationTicks": 250,
          "midi": 42,
          "name": "F#2",
          "ticks": 385500,
          "time": 202.8944325,
          "velocity": 1
        },
        {
          "duration": 0.13157874999998853,
          "durationTicks": 250,
          "midi": 36,
          "name": "C2",
          "ticks": 386000,
          "time": 203.15759,
          "velocity": 1
        },
        {
          "duration": 0.13157874999998853,
          "durationTicks": 250,
          "midi": 42,
          "name": "F#2",
          "ticks": 386000,
          "time": 203.15759,
          "velocity": 1
        },
        {
          "duration": 0.13157874999998853,
          "durationTicks": 250,
          "midi": 49,
          "name": "C#3",
          "ticks": 386000,
          "time": 203.15759,
          "velocity": 1
        },
        {
          "duration": 0.13157874999998853,
          "durationTicks": 250,
          "midi": 36,
          "name": "C2",
          "ticks": 386500,
          "time": 203.4207475,
          "velocity": 1
        },
        {
          "duration": 0.13157874999998853,
          "durationTicks": 250,
          "midi": 42,
          "name": "F#2",
          "ticks": 386500,
          "time": 203.4207475,
          "velocity": 1
        },
        {
          "duration": 0.13157875000001695,
          "durationTicks": 250,
          "midi": 36,
          "name": "C2",
          "ticks": 387000,
          "time": 203.68390499999998,
          "velocity": 1
        },
        {
          "duration": 0.13157875000001695,
          "durationTicks": 250,
          "midi": 38,
          "name": "D2",
          "ticks": 387000,
          "time": 203.68390499999998,
          "velocity": 1
        },
        {
          "duration": 0.13157875000001695,
          "durationTicks": 250,
          "midi": 40,
          "name": "E2",
          "ticks": 387000,
          "time": 203.68390499999998,
          "velocity": 1
        },
        {
          "duration": 0.13157875000001695,
          "durationTicks": 250,
          "midi": 44,
          "name": "G#2",
          "ticks": 387000,
          "time": 203.68390499999998,
          "velocity": 1
        },
        {
          "duration": 0.13157875000001695,
          "durationTicks": 250,
          "midi": 57,
          "name": "A3",
          "ticks": 387000,
          "time": 203.68390499999998,
          "velocity": 1
        },
        {
          "duration": 0.13157875000001695,
          "durationTicks": 250,
          "midi": 40,
          "name": "E2",
          "ticks": 387500,
          "time": 203.9470625,
          "velocity": 1
        },
        {
          "duration": 0.13157875000001695,
          "durationTicks": 250,
          "midi": 38,
          "name": "D2",
          "ticks": 387500,
          "time": 203.9470625,
          "velocity": 1
        },
        {
          "duration": 0.13157875000001695,
          "durationTicks": 250,
          "midi": 42,
          "name": "F#2",
          "ticks": 387500,
          "time": 203.9470625,
          "velocity": 1
        },
        {
          "duration": 0.13157874999998853,
          "durationTicks": 250,
          "midi": 38,
          "name": "D2",
          "ticks": 387750,
          "time": 204.07864125,
          "velocity": 1
        },
        {
          "duration": 0.13157874999998853,
          "durationTicks": 250,
          "midi": 40,
          "name": "E2",
          "ticks": 387750,
          "time": 204.07864125,
          "velocity": 1
        },
        {
          "duration": 0.13157874999998853,
          "durationTicks": 250,
          "midi": 36,
          "name": "C2",
          "ticks": 388000,
          "time": 204.21022,
          "velocity": 1
        },
        {
          "duration": 0.13157874999998853,
          "durationTicks": 250,
          "midi": 42,
          "name": "F#2",
          "ticks": 388000,
          "time": 204.21022,
          "velocity": 1
        },
        {
          "duration": 0.13157874999998853,
          "durationTicks": 250,
          "midi": 49,
          "name": "C#3",
          "ticks": 388000,
          "time": 204.21022,
          "velocity": 1
        },
        {
          "duration": 0.13157874999998853,
          "durationTicks": 250,
          "midi": 36,
          "name": "C2",
          "ticks": 388500,
          "time": 204.4733775,
          "velocity": 1
        },
        {
          "duration": 0.13157874999998853,
          "durationTicks": 250,
          "midi": 42,
          "name": "F#2",
          "ticks": 388500,
          "time": 204.4733775,
          "velocity": 1
        },
        {
          "duration": 0.13157874999998853,
          "durationTicks": 250,
          "midi": 36,
          "name": "C2",
          "ticks": 389000,
          "time": 204.736535,
          "velocity": 1
        },
        {
          "duration": 0.13157874999998853,
          "durationTicks": 250,
          "midi": 38,
          "name": "D2",
          "ticks": 389000,
          "time": 204.736535,
          "velocity": 1
        },
        {
          "duration": 0.13157874999998853,
          "durationTicks": 250,
          "midi": 40,
          "name": "E2",
          "ticks": 389000,
          "time": 204.736535,
          "velocity": 1
        },
        {
          "duration": 0.13157874999998853,
          "durationTicks": 250,
          "midi": 44,
          "name": "G#2",
          "ticks": 389000,
          "time": 204.736535,
          "velocity": 1
        },
        {
          "duration": 0.13157874999998853,
          "durationTicks": 250,
          "midi": 57,
          "name": "A3",
          "ticks": 389000,
          "time": 204.736535,
          "velocity": 1
        },
        {
          "duration": 0.13157875000001695,
          "durationTicks": 250,
          "midi": 42,
          "name": "F#2",
          "ticks": 389500,
          "time": 204.99969249999998,
          "velocity": 1
        },
        {
          "duration": 0.13157875000001695,
          "durationTicks": 250,
          "midi": 36,
          "name": "C2",
          "ticks": 390000,
          "time": 205.26285,
          "velocity": 1
        },
        {
          "duration": 0.13157875000001695,
          "durationTicks": 250,
          "midi": 42,
          "name": "F#2",
          "ticks": 390000,
          "time": 205.26285,
          "velocity": 1
        },
        {
          "duration": 0.13157875000001695,
          "durationTicks": 250,
          "midi": 49,
          "name": "C#3",
          "ticks": 390000,
          "time": 205.26285,
          "velocity": 1
        },
        {
          "duration": 0.13157874999998853,
          "durationTicks": 250,
          "midi": 36,
          "name": "C2",
          "ticks": 390500,
          "time": 205.5260075,
          "velocity": 1
        },
        {
          "duration": 0.13157874999998853,
          "durationTicks": 250,
          "midi": 42,
          "name": "F#2",
          "ticks": 390500,
          "time": 205.5260075,
          "velocity": 1
        },
        {
          "duration": 0.13157874999998853,
          "durationTicks": 250,
          "midi": 36,
          "name": "C2",
          "ticks": 391000,
          "time": 205.789165,
          "velocity": 1
        },
        {
          "duration": 0.13157874999998853,
          "durationTicks": 250,
          "midi": 38,
          "name": "D2",
          "ticks": 391000,
          "time": 205.789165,
          "velocity": 1
        },
        {
          "duration": 0.13157874999998853,
          "durationTicks": 250,
          "midi": 40,
          "name": "E2",
          "ticks": 391000,
          "time": 205.789165,
          "velocity": 1
        },
        {
          "duration": 0.13157874999998853,
          "durationTicks": 250,
          "midi": 44,
          "name": "G#2",
          "ticks": 391000,
          "time": 205.789165,
          "velocity": 1
        },
        {
          "duration": 0.13157874999998853,
          "durationTicks": 250,
          "midi": 57,
          "name": "A3",
          "ticks": 391000,
          "time": 205.789165,
          "velocity": 1
        },
        {
          "duration": 0.13157874999998853,
          "durationTicks": 250,
          "midi": 42,
          "name": "F#2",
          "ticks": 391500,
          "time": 206.0523225,
          "velocity": 1
        },
        {
          "duration": 0.13157875000001695,
          "durationTicks": 250,
          "midi": 36,
          "name": "C2",
          "ticks": 392000,
          "time": 206.31547999999998,
          "velocity": 1
        },
        {
          "duration": 0.13157875000001695,
          "durationTicks": 250,
          "midi": 42,
          "name": "F#2",
          "ticks": 392000,
          "time": 206.31547999999998,
          "velocity": 1
        },
        {
          "duration": 0.13157875000001695,
          "durationTicks": 250,
          "midi": 49,
          "name": "C#3",
          "ticks": 392000,
          "time": 206.31547999999998,
          "velocity": 1
        },
        {
          "duration": 0.13157875000001695,
          "durationTicks": 250,
          "midi": 36,
          "name": "C2",
          "ticks": 392500,
          "time": 206.57863749999999,
          "velocity": 1
        },
        {
          "duration": 0.13157875000001695,
          "durationTicks": 250,
          "midi": 42,
          "name": "F#2",
          "ticks": 392500,
          "time": 206.57863749999999,
          "velocity": 1
        },
        {
          "duration": 0.13157874999998853,
          "durationTicks": 250,
          "midi": 36,
          "name": "C2",
          "ticks": 393000,
          "time": 206.841795,
          "velocity": 1
        },
        {
          "duration": 0.13157874999998853,
          "durationTicks": 250,
          "midi": 38,
          "name": "D2",
          "ticks": 393000,
          "time": 206.841795,
          "velocity": 1
        },
        {
          "duration": 0.13157874999998853,
          "durationTicks": 250,
          "midi": 40,
          "name": "E2",
          "ticks": 393000,
          "time": 206.841795,
          "velocity": 1
        },
        {
          "duration": 0.13157874999998853,
          "durationTicks": 250,
          "midi": 44,
          "name": "G#2",
          "ticks": 393000,
          "time": 206.841795,
          "velocity": 1
        },
        {
          "duration": 0.13157874999998853,
          "durationTicks": 250,
          "midi": 57,
          "name": "A3",
          "ticks": 393000,
          "time": 206.841795,
          "velocity": 1
        },
        {
          "duration": 0.13157874999998853,
          "durationTicks": 250,
          "midi": 42,
          "name": "F#2",
          "ticks": 393500,
          "time": 207.1049525,
          "velocity": 1
        },
        {
          "duration": 0.13157874999998853,
          "durationTicks": 250,
          "midi": 36,
          "name": "C2",
          "ticks": 394000,
          "time": 207.36811,
          "velocity": 1
        },
        {
          "duration": 0.13157874999998853,
          "durationTicks": 250,
          "midi": 42,
          "name": "F#2",
          "ticks": 394000,
          "time": 207.36811,
          "velocity": 1
        },
        {
          "duration": 0.13157874999998853,
          "durationTicks": 250,
          "midi": 49,
          "name": "C#3",
          "ticks": 394000,
          "time": 207.36811,
          "velocity": 1
        },
        {
          "duration": 0.13157875000001695,
          "durationTicks": 250,
          "midi": 36,
          "name": "C2",
          "ticks": 394500,
          "time": 207.63126749999998,
          "velocity": 1
        },
        {
          "duration": 0.13157875000001695,
          "durationTicks": 250,
          "midi": 42,
          "name": "F#2",
          "ticks": 394500,
          "time": 207.63126749999998,
          "velocity": 1
        },
        {
          "duration": 0.13157875000001695,
          "durationTicks": 250,
          "midi": 36,
          "name": "C2",
          "ticks": 395000,
          "time": 207.89442499999998,
          "velocity": 1
        },
        {
          "duration": 0.13157875000001695,
          "durationTicks": 250,
          "midi": 38,
          "name": "D2",
          "ticks": 395000,
          "time": 207.89442499999998,
          "velocity": 1
        },
        {
          "duration": 0.13157875000001695,
          "durationTicks": 250,
          "midi": 40,
          "name": "E2",
          "ticks": 395000,
          "time": 207.89442499999998,
          "velocity": 1
        },
        {
          "duration": 0.13157875000001695,
          "durationTicks": 250,
          "midi": 44,
          "name": "G#2",
          "ticks": 395000,
          "time": 207.89442499999998,
          "velocity": 1
        },
        {
          "duration": 0.13157875000001695,
          "durationTicks": 250,
          "midi": 57,
          "name": "A3",
          "ticks": 395000,
          "time": 207.89442499999998,
          "velocity": 1
        },
        {
          "duration": 0.13157874999998853,
          "durationTicks": 250,
          "midi": 40,
          "name": "E2",
          "ticks": 395500,
          "time": 208.1575825,
          "velocity": 1
        },
        {
          "duration": 0.13157874999998853,
          "durationTicks": 250,
          "midi": 38,
          "name": "D2",
          "ticks": 395500,
          "time": 208.1575825,
          "velocity": 1
        },
        {
          "duration": 0.13157874999998853,
          "durationTicks": 250,
          "midi": 42,
          "name": "F#2",
          "ticks": 395500,
          "time": 208.1575825,
          "velocity": 1
        },
        {
          "duration": 0.13157875000001695,
          "durationTicks": 250,
          "midi": 40,
          "name": "E2",
          "ticks": 395750,
          "time": 208.28916124999998,
          "velocity": 1
        },
        {
          "duration": 0.13157875000001695,
          "durationTicks": 250,
          "midi": 38,
          "name": "D2",
          "ticks": 395750,
          "time": 208.28916124999998,
          "velocity": 1
        },
        {
          "duration": 0.13157874999998853,
          "durationTicks": 250,
          "midi": 36,
          "name": "C2",
          "ticks": 396000,
          "time": 208.42074,
          "velocity": 1
        },
        {
          "duration": 0.13157874999998853,
          "durationTicks": 250,
          "midi": 42,
          "name": "F#2",
          "ticks": 396000,
          "time": 208.42074,
          "velocity": 1
        },
        {
          "duration": 0.13157874999998853,
          "durationTicks": 250,
          "midi": 49,
          "name": "C#3",
          "ticks": 396000,
          "time": 208.42074,
          "velocity": 1
        },
        {
          "duration": 0.13157874999998853,
          "durationTicks": 250,
          "midi": 36,
          "name": "C2",
          "ticks": 396500,
          "time": 208.6838975,
          "velocity": 1
        },
        {
          "duration": 0.13157874999998853,
          "durationTicks": 250,
          "midi": 42,
          "name": "F#2",
          "ticks": 396500,
          "time": 208.6838975,
          "velocity": 1
        },
        {
          "duration": 0.13157875000001695,
          "durationTicks": 250,
          "midi": 36,
          "name": "C2",
          "ticks": 397000,
          "time": 208.94705499999998,
          "velocity": 1
        },
        {
          "duration": 0.13157875000001695,
          "durationTicks": 250,
          "midi": 38,
          "name": "D2",
          "ticks": 397000,
          "time": 208.94705499999998,
          "velocity": 1
        },
        {
          "duration": 0.13157875000001695,
          "durationTicks": 250,
          "midi": 40,
          "name": "E2",
          "ticks": 397000,
          "time": 208.94705499999998,
          "velocity": 1
        },
        {
          "duration": 0.13157875000001695,
          "durationTicks": 250,
          "midi": 44,
          "name": "G#2",
          "ticks": 397000,
          "time": 208.94705499999998,
          "velocity": 1
        },
        {
          "duration": 0.13157875000001695,
          "durationTicks": 250,
          "midi": 57,
          "name": "A3",
          "ticks": 397000,
          "time": 208.94705499999998,
          "velocity": 1
        },
        {
          "duration": 0.13157875000001695,
          "durationTicks": 250,
          "midi": 42,
          "name": "F#2",
          "ticks": 397500,
          "time": 209.21021249999998,
          "velocity": 1
        },
        {
          "duration": 0.13157874999998853,
          "durationTicks": 250,
          "midi": 36,
          "name": "C2",
          "ticks": 398000,
          "time": 209.47337,
          "velocity": 1
        },
        {
          "duration": 0.13157874999998853,
          "durationTicks": 250,
          "midi": 42,
          "name": "F#2",
          "ticks": 398000,
          "time": 209.47337,
          "velocity": 1
        },
        {
          "duration": 0.13157874999998853,
          "durationTicks": 250,
          "midi": 49,
          "name": "C#3",
          "ticks": 398000,
          "time": 209.47337,
          "velocity": 1
        },
        {
          "duration": 0.13157874999998853,
          "durationTicks": 250,
          "midi": 36,
          "name": "C2",
          "ticks": 398500,
          "time": 209.7365275,
          "velocity": 1
        },
        {
          "duration": 0.13157874999998853,
          "durationTicks": 250,
          "midi": 42,
          "name": "F#2",
          "ticks": 398500,
          "time": 209.7365275,
          "velocity": 1
        },
        {
          "duration": 0.13157874999998853,
          "durationTicks": 250,
          "midi": 36,
          "name": "C2",
          "ticks": 399000,
          "time": 209.999685,
          "velocity": 1
        },
        {
          "duration": 0.13157874999998853,
          "durationTicks": 250,
          "midi": 38,
          "name": "D2",
          "ticks": 399000,
          "time": 209.999685,
          "velocity": 1
        },
        {
          "duration": 0.13157874999998853,
          "durationTicks": 250,
          "midi": 40,
          "name": "E2",
          "ticks": 399000,
          "time": 209.999685,
          "velocity": 1
        },
        {
          "duration": 0.13157874999998853,
          "durationTicks": 250,
          "midi": 44,
          "name": "G#2",
          "ticks": 399000,
          "time": 209.999685,
          "velocity": 1
        },
        {
          "duration": 0.13157874999998853,
          "durationTicks": 250,
          "midi": 57,
          "name": "A3",
          "ticks": 399000,
          "time": 209.999685,
          "velocity": 1
        },
        {
          "duration": 0.13157874999998853,
          "durationTicks": 250,
          "midi": 42,
          "name": "F#2",
          "ticks": 399500,
          "time": 210.2628425,
          "velocity": 1
        },
        {
          "duration": 0.13157875000001695,
          "durationTicks": 250,
          "midi": 36,
          "name": "C2",
          "ticks": 400000,
          "time": 210.52599999999998,
          "velocity": 1
        },
        {
          "duration": 0.13157875000001695,
          "durationTicks": 250,
          "midi": 42,
          "name": "F#2",
          "ticks": 400000,
          "time": 210.52599999999998,
          "velocity": 1
        },
        {
          "duration": 0.13157875000001695,
          "durationTicks": 250,
          "midi": 49,
          "name": "C#3",
          "ticks": 400000,
          "time": 210.52599999999998,
          "velocity": 1
        },
        {
          "duration": 0.13157875000001695,
          "durationTicks": 250,
          "midi": 36,
          "name": "C2",
          "ticks": 400500,
          "time": 210.7891575,
          "velocity": 1
        },
        {
          "duration": 0.13157875000001695,
          "durationTicks": 250,
          "midi": 42,
          "name": "F#2",
          "ticks": 400500,
          "time": 210.7891575,
          "velocity": 1
        },
        {
          "duration": 0.13157874999998853,
          "durationTicks": 250,
          "midi": 36,
          "name": "C2",
          "ticks": 401000,
          "time": 211.052315,
          "velocity": 1
        },
        {
          "duration": 0.13157874999998853,
          "durationTicks": 250,
          "midi": 38,
          "name": "D2",
          "ticks": 401000,
          "time": 211.052315,
          "velocity": 1
        },
        {
          "duration": 0.13157874999998853,
          "durationTicks": 250,
          "midi": 40,
          "name": "E2",
          "ticks": 401000,
          "time": 211.052315,
          "velocity": 1
        },
        {
          "duration": 0.13157874999998853,
          "durationTicks": 250,
          "midi": 44,
          "name": "G#2",
          "ticks": 401000,
          "time": 211.052315,
          "velocity": 1
        },
        {
          "duration": 0.13157874999998853,
          "durationTicks": 250,
          "midi": 57,
          "name": "A3",
          "ticks": 401000,
          "time": 211.052315,
          "velocity": 1
        },
        {
          "duration": 0.13157874999998853,
          "durationTicks": 250,
          "midi": 42,
          "name": "F#2",
          "ticks": 401500,
          "time": 211.3154725,
          "velocity": 1
        },
        {
          "duration": 0.13157874999998853,
          "durationTicks": 250,
          "midi": 36,
          "name": "C2",
          "ticks": 402000,
          "time": 211.57863,
          "velocity": 1
        },
        {
          "duration": 0.13157874999998853,
          "durationTicks": 250,
          "midi": 42,
          "name": "F#2",
          "ticks": 402000,
          "time": 211.57863,
          "velocity": 1
        },
        {
          "duration": 0.13157874999998853,
          "durationTicks": 250,
          "midi": 49,
          "name": "C#3",
          "ticks": 402000,
          "time": 211.57863,
          "velocity": 1
        },
        {
          "duration": 0.13157875000001695,
          "durationTicks": 250,
          "midi": 36,
          "name": "C2",
          "ticks": 402500,
          "time": 211.84178749999998,
          "velocity": 1
        },
        {
          "duration": 0.13157875000001695,
          "durationTicks": 250,
          "midi": 42,
          "name": "F#2",
          "ticks": 402500,
          "time": 211.84178749999998,
          "velocity": 1
        },
        {
          "duration": 0.13157875000001695,
          "durationTicks": 250,
          "midi": 36,
          "name": "C2",
          "ticks": 403000,
          "time": 212.104945,
          "velocity": 1
        },
        {
          "duration": 0.13157875000001695,
          "durationTicks": 250,
          "midi": 44,
          "name": "G#2",
          "ticks": 403000,
          "time": 212.104945,
          "velocity": 1
        },
        {
          "duration": 0.13157875000001695,
          "durationTicks": 250,
          "midi": 57,
          "name": "A3",
          "ticks": 403000,
          "time": 212.104945,
          "velocity": 1
        },
        {
          "duration": 0.13157875000001695,
          "durationTicks": 250,
          "midi": 38,
          "name": "D2",
          "ticks": 403000,
          "time": 212.104945,
          "velocity": 1
        },
        {
          "duration": 0.13157875000001695,
          "durationTicks": 250,
          "midi": 40,
          "name": "E2",
          "ticks": 403000,
          "time": 212.104945,
          "velocity": 1
        },
        {
          "duration": 0.13157874999998853,
          "durationTicks": 250,
          "midi": 42,
          "name": "F#2",
          "ticks": 403500,
          "time": 212.3681025,
          "velocity": 1
        },
        {
          "duration": 0.13157874999998853,
          "durationTicks": 250,
          "midi": 40,
          "name": "E2",
          "ticks": 403500,
          "time": 212.3681025,
          "velocity": 1
        },
        {
          "duration": 0.13157874999998853,
          "durationTicks": 250,
          "midi": 38,
          "name": "D2",
          "ticks": 403500,
          "time": 212.3681025,
          "velocity": 1
        },
        {
          "duration": 0.13157875000001695,
          "durationTicks": 250,
          "midi": 40,
          "name": "E2",
          "ticks": 403750,
          "time": 212.49968124999998,
          "velocity": 1
        },
        {
          "duration": 0.13157875000001695,
          "durationTicks": 250,
          "midi": 38,
          "name": "D2",
          "ticks": 403750,
          "time": 212.49968124999998,
          "velocity": 1
        },
        {
          "duration": 0.13157874999998853,
          "durationTicks": 250,
          "midi": 36,
          "name": "C2",
          "ticks": 404000,
          "time": 212.63126,
          "velocity": 1
        },
        {
          "duration": 0.13157874999998853,
          "durationTicks": 250,
          "midi": 42,
          "name": "F#2",
          "ticks": 404000,
          "time": 212.63126,
          "velocity": 1
        }
      ],
      "endOfTrackTicks": 404250
    },
    {
      "channel": 0,
      "controlChanges": {
        "0": [
          {
            "number": 0,
            "ticks": 0,
            "time": 0,
            "value": 0
          }
        ],
        "7": [
          {
            "number": 7,
            "ticks": 0,
            "time": 0,
            "value": 0.7480314960629921
          }
        ]
      },
      "pitchBends": [],
      "instrument": {
        "family": "piano",
        "number": 0,
        "name": "acoustic grand piano"
      },
      "name": "Was",
      "notes": [],
      "endOfTrackTicks": 403000
    },
    {
      "channel": 1,
      "controlChanges": {},
      "pitchBends": [],
      "instrument": {
        "family": "bass",
        "number": 39,
        "name": "synth bass 2"
      },
      "name": "",
      "notes": [
        {
          "duration": 0.3947362499999998,
          "durationTicks": 750,
          "midi": 31,
          "name": "G1",
          "ticks": 4000,
          "time": 2.10526,
          "velocity": 1
        },
        {
          "duration": 0.39473625000000023,
          "durationTicks": 750,
          "midi": 38,
          "name": "D2",
          "ticks": 4750,
          "time": 2.4999962499999997,
          "velocity": 1
        },
        {
          "duration": 0.26315750000000016,
          "durationTicks": 500,
          "midi": 31,
          "name": "G1",
          "ticks": 5500,
          "time": 2.8947325,
          "velocity": 1
        },
        {
          "duration": 0.2631574999999997,
          "durationTicks": 500,
          "midi": 34,
          "name": "A#1",
          "ticks": 6000,
          "time": 3.15789,
          "velocity": 1
        },
        {
          "duration": 0.26315750000000016,
          "durationTicks": 500,
          "midi": 41,
          "name": "F2",
          "ticks": 6500,
          "time": 3.4210475,
          "velocity": 1
        },
        {
          "duration": 0.2631574999999997,
          "durationTicks": 500,
          "midi": 36,
          "name": "C2",
          "ticks": 7000,
          "time": 3.684205,
          "velocity": 1
        },
        {
          "duration": 0.26315750000000016,
          "durationTicks": 500,
          "midi": 43,
          "name": "G2",
          "ticks": 7500,
          "time": 3.9473624999999997,
          "velocity": 1
        },
        {
          "duration": 0.39473625000000023,
          "durationTicks": 750,
          "midi": 28,
          "name": "E1",
          "ticks": 8000,
          "time": 4.21052,
          "velocity": 1
        },
        {
          "duration": 0.39473624999999934,
          "durationTicks": 750,
          "midi": 35,
          "name": "B1",
          "ticks": 8750,
          "time": 4.60525625,
          "velocity": 1
        },
        {
          "duration": 0.26315750000000016,
          "durationTicks": 500,
          "midi": 28,
          "name": "E1",
          "ticks": 9500,
          "time": 4.999992499999999,
          "velocity": 1
        },
        {
          "duration": 0.26315750000000016,
          "durationTicks": 500,
          "midi": 27,
          "name": "D#1",
          "ticks": 10000,
          "time": 5.2631499999999996,
          "velocity": 1
        },
        {
          "duration": 0.26315750000000016,
          "durationTicks": 500,
          "midi": 34,
          "name": "A#1",
          "ticks": 10500,
          "time": 5.5263075,
          "velocity": 1
        },
        {
          "duration": 0.26315750000000016,
          "durationTicks": 500,
          "midi": 26,
          "name": "D1",
          "ticks": 11000,
          "time": 5.789465,
          "velocity": 1
        },
        {
          "duration": 0.26315750000000016,
          "durationTicks": 500,
          "midi": 33,
          "name": "A1",
          "ticks": 11500,
          "time": 6.0526225,
          "velocity": 1
        },
        {
          "duration": 0.39473624999999934,
          "durationTicks": 750,
          "midi": 31,
          "name": "G1",
          "ticks": 12000,
          "time": 6.31578,
          "velocity": 1
        },
        {
          "duration": 0.39473625000000023,
          "durationTicks": 750,
          "midi": 38,
          "name": "D2",
          "ticks": 12750,
          "time": 6.7105162499999995,
          "velocity": 1
        },
        {
          "duration": 0.26315750000000016,
          "durationTicks": 500,
          "midi": 31,
          "name": "G1",
          "ticks": 13500,
          "time": 7.1052525,
          "velocity": 1
        },
        {
          "duration": 0.26315750000000016,
          "durationTicks": 500,
          "midi": 34,
          "name": "A#1",
          "ticks": 14000,
          "time": 7.36841,
          "velocity": 1
        },
        {
          "duration": 0.26315749999999927,
          "durationTicks": 500,
          "midi": 41,
          "name": "F2",
          "ticks": 14500,
          "time": 7.6315675,
          "velocity": 1
        },
        {
          "duration": 0.26315750000000016,
          "durationTicks": 500,
          "midi": 36,
          "name": "C2",
          "ticks": 15000,
          "time": 7.894724999999999,
          "velocity": 1
        },
        {
          "duration": 0.26315750000000016,
          "durationTicks": 500,
          "midi": 43,
          "name": "G2",
          "ticks": 15500,
          "time": 8.1578825,
          "velocity": 1
        },
        {
          "duration": 0.39473624999999934,
          "durationTicks": 750,
          "midi": 28,
          "name": "E1",
          "ticks": 16000,
          "time": 8.42104,
          "velocity": 1
        },
        {
          "duration": 0.3947362500000011,
          "durationTicks": 750,
          "midi": 35,
          "name": "B1",
          "ticks": 16750,
          "time": 8.815776249999999,
          "velocity": 1
        },
        {
          "duration": 0.26315750000000016,
          "durationTicks": 500,
          "midi": 28,
          "name": "E1",
          "ticks": 17500,
          "time": 9.2105125,
          "velocity": 1
        },
        {
          "duration": 0.26315750000000016,
          "durationTicks": 500,
          "midi": 27,
          "name": "D#1",
          "ticks": 18000,
          "time": 9.47367,
          "velocity": 1
        },
        {
          "duration": 0.2631574999999984,
          "durationTicks": 500,
          "midi": 34,
          "name": "A#1",
          "ticks": 18500,
          "time": 9.7368275,
          "velocity": 1
        },
        {
          "duration": 0.26315750000000016,
          "durationTicks": 500,
          "midi": 26,
          "name": "D1",
          "ticks": 19000,
          "time": 9.999984999999999,
          "velocity": 1
        },
        {
          "duration": 0.26315750000000016,
          "durationTicks": 500,
          "midi": 33,
          "name": "A1",
          "ticks": 19500,
          "time": 10.263142499999999,
          "velocity": 1
        },
        {
          "duration": 0.3947362500000011,
          "durationTicks": 750,
          "midi": 31,
          "name": "G1",
          "ticks": 20000,
          "time": 10.526299999999999,
          "velocity": 1
        },
        {
          "duration": 0.39473624999999934,
          "durationTicks": 750,
          "midi": 38,
          "name": "D2",
          "ticks": 20750,
          "time": 10.92103625,
          "velocity": 1
        },
        {
          "duration": 0.26315750000000016,
          "durationTicks": 500,
          "midi": 31,
          "name": "G1",
          "ticks": 21500,
          "time": 11.3157725,
          "velocity": 1
        },
        {
          "duration": 0.26315750000000016,
          "durationTicks": 500,
          "midi": 34,
          "name": "A#1",
          "ticks": 22000,
          "time": 11.57893,
          "velocity": 1
        },
        {
          "duration": 0.26315750000000016,
          "durationTicks": 500,
          "midi": 41,
          "name": "F2",
          "ticks": 22500,
          "time": 11.8420875,
          "velocity": 1
        },
        {
          "duration": 0.26315750000000016,
          "durationTicks": 500,
          "midi": 36,
          "name": "C2",
          "ticks": 23000,
          "time": 12.105245,
          "velocity": 1
        },
        {
          "duration": 0.26315750000000016,
          "durationTicks": 500,
          "midi": 43,
          "name": "G2",
          "ticks": 23500,
          "time": 12.3684025,
          "velocity": 1
        },
        {
          "duration": 0.39473624999999934,
          "durationTicks": 750,
          "midi": 28,
          "name": "E1",
          "ticks": 24000,
          "time": 12.63156,
          "velocity": 1
        },
        {
          "duration": 0.39473624999999934,
          "durationTicks": 750,
          "midi": 35,
          "name": "B1",
          "ticks": 24750,
          "time": 13.02629625,
          "velocity": 1
        },
        {
          "duration": 0.26315750000000016,
          "durationTicks": 500,
          "midi": 28,
          "name": "E1",
          "ticks": 25500,
          "time": 13.421032499999999,
          "velocity": 1
        },
        {
          "duration": 0.26315750000000016,
          "durationTicks": 500,
          "midi": 27,
          "name": "D#1",
          "ticks": 26000,
          "time": 13.68419,
          "velocity": 1
        },
        {
          "duration": 0.26315750000000016,
          "durationTicks": 500,
          "midi": 34,
          "name": "A#1",
          "ticks": 26500,
          "time": 13.9473475,
          "velocity": 1
        },
        {
          "duration": 0.26315750000000016,
          "durationTicks": 500,
          "midi": 26,
          "name": "D1",
          "ticks": 27000,
          "time": 14.210505,
          "velocity": 1
        },
        {
          "duration": 0.26315750000000016,
          "durationTicks": 500,
          "midi": 33,
          "name": "A1",
          "ticks": 27500,
          "time": 14.4736625,
          "velocity": 1
        },
        {
          "duration": 0.39473624999999934,
          "durationTicks": 750,
          "midi": 31,
          "name": "G1",
          "ticks": 28000,
          "time": 14.73682,
          "velocity": 1
        },
        {
          "duration": 0.39473624999999934,
          "durationTicks": 750,
          "midi": 38,
          "name": "D2",
          "ticks": 28750,
          "time": 15.13155625,
          "velocity": 1
        },
        {
          "duration": 0.26315750000000016,
          "durationTicks": 500,
          "midi": 31,
          "name": "G1",
          "ticks": 29500,
          "time": 15.526292499999998,
          "velocity": 1
        },
        {
          "duration": 0.26315750000000193,
          "durationTicks": 500,
          "midi": 34,
          "name": "A#1",
          "ticks": 30000,
          "time": 15.789449999999999,
          "velocity": 1
        },
        {
          "duration": 0.2631574999999984,
          "durationTicks": 500,
          "midi": 41,
          "name": "F2",
          "ticks": 30500,
          "time": 16.0526075,
          "velocity": 1
        },
        {
          "duration": 0.26315750000000193,
          "durationTicks": 500,
          "midi": 36,
          "name": "C2",
          "ticks": 31000,
          "time": 16.315765,
          "velocity": 1
        },
        {
          "duration": 0.2631574999999984,
          "durationTicks": 500,
          "midi": 43,
          "name": "G2",
          "ticks": 31500,
          "time": 16.5789225,
          "velocity": 1
        },
        {
          "duration": 0.3947362500000011,
          "durationTicks": 750,
          "midi": 28,
          "name": "E1",
          "ticks": 32000,
          "time": 16.84208,
          "velocity": 1
        },
        {
          "duration": 0.39473624999999757,
          "durationTicks": 750,
          "midi": 35,
          "name": "B1",
          "ticks": 32750,
          "time": 17.23681625,
          "velocity": 1
        },
        {
          "duration": 0.26315750000000193,
          "durationTicks": 500,
          "midi": 28,
          "name": "E1",
          "ticks": 33500,
          "time": 17.631552499999998,
          "velocity": 1
        },
        {
          "duration": 0.2631574999999984,
          "durationTicks": 500,
          "midi": 27,
          "name": "D#1",
          "ticks": 34000,
          "time": 17.89471,
          "velocity": 1
        },
        {
          "duration": 0.26315750000000193,
          "durationTicks": 500,
          "midi": 34,
          "name": "A#1",
          "ticks": 34500,
          "time": 18.1578675,
          "velocity": 1
        },
        {
          "duration": 0.2631574999999984,
          "durationTicks": 500,
          "midi": 26,
          "name": "D1",
          "ticks": 35000,
          "time": 18.421025,
          "velocity": 1
        },
        {
          "duration": 0.26315750000000193,
          "durationTicks": 500,
          "midi": 33,
          "name": "A1",
          "ticks": 35500,
          "time": 18.6841825,
          "velocity": 1
        },
        {
          "duration": 0.39473624999999757,
          "durationTicks": 750,
          "midi": 27,
          "name": "D#1",
          "ticks": 36000,
          "time": 18.94734,
          "velocity": 1
        },
        {
          "duration": 0.3947362500000011,
          "durationTicks": 750,
          "midi": 34,
          "name": "A#1",
          "ticks": 36750,
          "time": 19.342076249999998,
          "velocity": 1
        },
        {
          "duration": 0.2631574999999984,
          "durationTicks": 500,
          "midi": 27,
          "name": "D#1",
          "ticks": 37500,
          "time": 19.7368125,
          "velocity": 1
        },
        {
          "duration": 0.3947362500000011,
          "durationTicks": 750,
          "midi": 24,
          "name": "C1",
          "ticks": 38000,
          "time": 19.999969999999998,
          "velocity": 1
        },
        {
          "duration": 0.3947362500000011,
          "durationTicks": 750,
          "midi": 33,
          "name": "A1",
          "ticks": 38750,
          "time": 20.39470625,
          "velocity": 1
        },
        {
          "duration": 0.2631574999999984,
          "durationTicks": 500,
          "midi": 24,
          "name": "C1",
          "ticks": 39500,
          "time": 20.7894425,
          "velocity": 1
        },
        {
          "duration": 0.3947362500000011,
          "durationTicks": 750,
          "midi": 31,
          "name": "G1",
          "ticks": 40000,
          "time": 21.052599999999998,
          "velocity": 1
        },
        {
          "duration": 0.3947362500000011,
          "durationTicks": 750,
          "midi": 38,
          "name": "D2",
          "ticks": 40750,
          "time": 21.44733625,
          "velocity": 1
        },
        {
          "duration": 0.2631574999999984,
          "durationTicks": 500,
          "midi": 31,
          "name": "G1",
          "ticks": 41500,
          "time": 21.8420725,
          "velocity": 1
        },
        {
          "duration": 0.3947362500000011,
          "durationTicks": 750,
          "midi": 29,
          "name": "F1",
          "ticks": 42000,
          "time": 22.10523,
          "velocity": 1
        },
        {
          "duration": 0.39473624999999757,
          "durationTicks": 750,
          "midi": 36,
          "name": "C2",
          "ticks": 42750,
          "time": 22.49996625,
          "velocity": 1
        },
        {
          "duration": 0.26315750000000193,
          "durationTicks": 500,
          "midi": 29,
          "name": "F1",
          "ticks": 43500,
          "time": 22.894702499999998,
          "velocity": 1
        },
        {
          "duration": 0.3947362500000011,
          "durationTicks": 750,
          "midi": 34,
          "name": "A#1",
          "ticks": 44000,
          "time": 23.15786,
          "velocity": 1
        },
        {
          "duration": 0.39473624999999757,
          "durationTicks": 750,
          "midi": 41,
          "name": "F2",
          "ticks": 44750,
          "time": 23.55259625,
          "velocity": 1
        },
        {
          "duration": 0.26315750000000193,
          "durationTicks": 500,
          "midi": 34,
          "name": "A#1",
          "ticks": 45500,
          "time": 23.947332499999998,
          "velocity": 1
        },
        {
          "duration": 0.39473624999999757,
          "durationTicks": 750,
          "midi": 33,
          "name": "A1",
          "ticks": 46000,
          "time": 24.21049,
          "velocity": 1
        },
        {
          "duration": 0.3947362500000011,
          "durationTicks": 750,
          "midi": 40,
          "name": "E2",
          "ticks": 46750,
          "time": 24.605226249999998,
          "velocity": 1
        },
        {
          "duration": 0.26315750000000193,
          "durationTicks": 500,
          "midi": 33,
          "name": "A1",
          "ticks": 47500,
          "time": 24.9999625,
          "velocity": 1
        },
        {
          "duration": 0.39473624999999757,
          "durationTicks": 750,
          "midi": 26,
          "name": "D1",
          "ticks": 48000,
          "time": 25.26312,
          "velocity": 1
        },
        {
          "duration": 0.3947362500000011,
          "durationTicks": 750,
          "midi": 33,
          "name": "A1",
          "ticks": 48750,
          "time": 25.65785625,
          "velocity": 1
        },
        {
          "duration": 0.2631574999999984,
          "durationTicks": 500,
          "midi": 26,
          "name": "D1",
          "ticks": 49500,
          "time": 26.0525925,
          "velocity": 1
        },
        {
          "duration": 0.3947362500000011,
          "durationTicks": 750,
          "midi": 27,
          "name": "D#1",
          "ticks": 50000,
          "time": 26.315749999999998,
          "velocity": 1
        },
        {
          "duration": 0.3947362500000011,
          "durationTicks": 750,
          "midi": 34,
          "name": "A#1",
          "ticks": 50750,
          "time": 26.71048625,
          "velocity": 1
        },
        {
          "duration": 0.2631574999999984,
          "durationTicks": 500,
          "midi": 27,
          "name": "D#1",
          "ticks": 51500,
          "time": 27.1052225,
          "velocity": 1
        },
        {
          "duration": 0.3947362500000011,
          "durationTicks": 750,
          "midi": 31,
          "name": "G1",
          "ticks": 52000,
          "time": 27.36838,
          "velocity": 1
        },
        {
          "duration": 0.39473624999999757,
          "durationTicks": 750,
          "midi": 38,
          "name": "D2",
          "ticks": 52750,
          "time": 27.76311625,
          "velocity": 1
        },
        {
          "duration": 0.26315750000000193,
          "durationTicks": 500,
          "midi": 31,
          "name": "G1",
          "ticks": 53500,
          "time": 28.157852499999997,
          "velocity": 1
        },
        {
          "duration": 0.2631574999999984,
          "durationTicks": 500,
          "midi": 34,
          "name": "A#1",
          "ticks": 54000,
          "time": 28.42101,
          "velocity": 1
        },
        {
          "duration": 0.26315750000000193,
          "durationTicks": 500,
          "midi": 41,
          "name": "F2",
          "ticks": 54500,
          "time": 28.684167499999997,
          "velocity": 1
        },
        {
          "duration": 0.2631574999999984,
          "durationTicks": 500,
          "midi": 36,
          "name": "C2",
          "ticks": 55000,
          "time": 28.947325,
          "velocity": 1
        },
        {
          "duration": 0.26315750000000193,
          "durationTicks": 500,
          "midi": 43,
          "name": "G2",
          "ticks": 55500,
          "time": 29.210482499999998,
          "velocity": 1
        },
        {
          "duration": 0.39473624999999757,
          "durationTicks": 750,
          "midi": 28,
          "name": "E1",
          "ticks": 56000,
          "time": 29.47364,
          "velocity": 1
        },
        {
          "duration": 0.3947362500000011,
          "durationTicks": 750,
          "midi": 35,
          "name": "B1",
          "ticks": 56750,
          "time": 29.868376249999997,
          "velocity": 1
        },
        {
          "duration": 0.26315750000000193,
          "durationTicks": 500,
          "midi": 28,
          "name": "E1",
          "ticks": 57500,
          "time": 30.2631125,
          "velocity": 1
        },
        {
          "duration": 0.2631574999999984,
          "durationTicks": 500,
          "midi": 27,
          "name": "D#1",
          "ticks": 58000,
          "time": 30.52627,
          "velocity": 1
        },
        {
          "duration": 0.2631574999999984,
          "durationTicks": 500,
          "midi": 34,
          "name": "A#1",
          "ticks": 58500,
          "time": 30.7894275,
          "velocity": 1
        },
        {
          "duration": 0.26315750000000193,
          "durationTicks": 500,
          "midi": 26,
          "name": "D1",
          "ticks": 59000,
          "time": 31.052584999999997,
          "velocity": 1
        },
        {
          "duration": 0.2631574999999984,
          "durationTicks": 500,
          "midi": 33,
          "name": "A1",
          "ticks": 59500,
          "time": 31.3157425,
          "velocity": 1
        },
        {
          "duration": 0.3947362500000011,
          "durationTicks": 750,
          "midi": 31,
          "name": "G1",
          "ticks": 60000,
          "time": 31.578899999999997,
          "velocity": 1
        },
        {
          "duration": 0.3947362500000011,
          "durationTicks": 750,
          "midi": 38,
          "name": "D2",
          "ticks": 60750,
          "time": 31.97363625,
          "velocity": 1
        },
        {
          "duration": 0.2631574999999984,
          "durationTicks": 500,
          "midi": 31,
          "name": "G1",
          "ticks": 61500,
          "time": 32.3683725,
          "velocity": 1
        },
        {
          "duration": 0.2631574999999984,
          "durationTicks": 500,
          "midi": 34,
          "name": "A#1",
          "ticks": 62000,
          "time": 32.63153,
          "velocity": 1
        },
        {
          "duration": 0.2631575000000055,
          "durationTicks": 500,
          "midi": 41,
          "name": "F2",
          "ticks": 62500,
          "time": 32.894687499999996,
          "velocity": 1
        },
        {
          "duration": 0.2631574999999984,
          "durationTicks": 500,
          "midi": 36,
          "name": "C2",
          "ticks": 63000,
          "time": 33.157845,
          "velocity": 1
        },
        {
          "duration": 0.2631574999999984,
          "durationTicks": 500,
          "midi": 43,
          "name": "G2",
          "ticks": 63500,
          "time": 33.4210025,
          "velocity": 1
        },
        {
          "duration": 0.3947362500000011,
          "durationTicks": 750,
          "midi": 28,
          "name": "E1",
          "ticks": 64000,
          "time": 33.68416,
          "velocity": 1
        },
        {
          "duration": 0.3947362500000011,
          "durationTicks": 750,
          "midi": 35,
          "name": "B1",
          "ticks": 64750,
          "time": 34.07889625,
          "velocity": 1
        },
        {
          "duration": 0.2631574999999984,
          "durationTicks": 500,
          "midi": 28,
          "name": "E1",
          "ticks": 65500,
          "time": 34.4736325,
          "velocity": 1
        },
        {
          "duration": 0.2631574999999984,
          "durationTicks": 500,
          "midi": 27,
          "name": "D#1",
          "ticks": 66000,
          "time": 34.73679,
          "velocity": 1
        },
        {
          "duration": 0.2631574999999984,
          "durationTicks": 500,
          "midi": 34,
          "name": "A#1",
          "ticks": 66500,
          "time": 34.9999475,
          "velocity": 1
        },
        {
          "duration": 0.2631575000000055,
          "durationTicks": 500,
          "midi": 26,
          "name": "D1",
          "ticks": 67000,
          "time": 35.263104999999996,
          "velocity": 1
        },
        {
          "duration": 0.2631574999999984,
          "durationTicks": 500,
          "midi": 33,
          "name": "A1",
          "ticks": 67500,
          "time": 35.5262625,
          "velocity": 1
        },
        {
          "duration": 0.3947362500000011,
          "durationTicks": 750,
          "midi": 27,
          "name": "D#1",
          "ticks": 68000,
          "time": 35.78942,
          "velocity": 1
        },
        {
          "duration": 0.394736249999994,
          "durationTicks": 750,
          "midi": 34,
          "name": "A#1",
          "ticks": 68750,
          "time": 36.18415625,
          "velocity": 1
        },
        {
          "duration": 0.2631575000000055,
          "durationTicks": 500,
          "midi": 27,
          "name": "D#1",
          "ticks": 69500,
          "time": 36.578892499999995,
          "velocity": 1
        },
        {
          "duration": 0.3947362500000011,
          "durationTicks": 750,
          "midi": 24,
          "name": "C1",
          "ticks": 70000,
          "time": 36.84205,
          "velocity": 1
        },
        {
          "duration": 0.394736249999994,
          "durationTicks": 750,
          "midi": 33,
          "name": "A1",
          "ticks": 70750,
          "time": 37.23678625,
          "velocity": 1
        },
        {
          "duration": 0.2631575000000055,
          "durationTicks": 500,
          "midi": 24,
          "name": "C1",
          "ticks": 71500,
          "time": 37.631522499999996,
          "velocity": 1
        },
        {
          "duration": 0.394736249999994,
          "durationTicks": 750,
          "midi": 31,
          "name": "G1",
          "ticks": 72000,
          "time": 37.89468,
          "velocity": 1
        },
        {
          "duration": 0.3947362500000011,
          "durationTicks": 750,
          "midi": 38,
          "name": "D2",
          "ticks": 72750,
          "time": 38.289416249999995,
          "velocity": 1
        },
        {
          "duration": 0.2631575000000055,
          "durationTicks": 500,
          "midi": 31,
          "name": "G1",
          "ticks": 73500,
          "time": 38.684152499999996,
          "velocity": 1
        },
        {
          "duration": 0.394736249999994,
          "durationTicks": 750,
          "midi": 29,
          "name": "F1",
          "ticks": 74000,
          "time": 38.94731,
          "velocity": 1
        },
        {
          "duration": 0.3947362500000011,
          "durationTicks": 750,
          "midi": 36,
          "name": "C2",
          "ticks": 74750,
          "time": 39.342046249999996,
          "velocity": 1
        },
        {
          "duration": 0.2631574999999984,
          "durationTicks": 500,
          "midi": 29,
          "name": "F1",
          "ticks": 75500,
          "time": 39.7367825,
          "velocity": 1
        },
        {
          "duration": 0.3947362500000011,
          "durationTicks": 750,
          "midi": 34,
          "name": "A#1",
          "ticks": 76000,
          "time": 39.999939999999995,
          "velocity": 1
        },
        {
          "duration": 0.3947362500000011,
          "durationTicks": 750,
          "midi": 41,
          "name": "F2",
          "ticks": 76750,
          "time": 40.394676249999996,
          "velocity": 1
        },
        {
          "duration": 0.2631574999999984,
          "durationTicks": 500,
          "midi": 34,
          "name": "A#1",
          "ticks": 77500,
          "time": 40.7894125,
          "velocity": 1
        },
        {
          "duration": 0.3947362500000011,
          "durationTicks": 750,
          "midi": 33,
          "name": "A1",
          "ticks": 78000,
          "time": 41.052569999999996,
          "velocity": 1
        },
        {
          "duration": 0.3947362500000011,
          "durationTicks": 750,
          "midi": 40,
          "name": "E2",
          "ticks": 78750,
          "time": 41.44730625,
          "velocity": 1
        },
        {
          "duration": 0.2631574999999984,
          "durationTicks": 500,
          "midi": 33,
          "name": "A1",
          "ticks": 79500,
          "time": 41.8420425,
          "velocity": 1
        },
        {
          "duration": 0.3947362500000011,
          "durationTicks": 750,
          "midi": 26,
          "name": "D1",
          "ticks": 80000,
          "time": 42.105199999999996,
          "velocity": 1
        },
        {
          "duration": 0.3947362500000011,
          "durationTicks": 750,
          "midi": 33,
          "name": "A1",
          "ticks": 80750,
          "time": 42.49993625,
          "velocity": 1
        },
        {
          "duration": 0.2631574999999984,
          "durationTicks": 500,
          "midi": 26,
          "name": "D1",
          "ticks": 81500,
          "time": 42.8946725,
          "velocity": 1
        },
        {
          "duration": 0.3947362500000011,
          "durationTicks": 750,
          "midi": 27,
          "name": "D#1",
          "ticks": 82000,
          "time": 43.15783,
          "velocity": 1
        },
        {
          "duration": 0.3947362500000011,
          "durationTicks": 750,
          "midi": 34,
          "name": "A#1",
          "ticks": 82750,
          "time": 43.55256625,
          "velocity": 1
        },
        {
          "duration": 0.2631574999999984,
          "durationTicks": 500,
          "midi": 27,
          "name": "D#1",
          "ticks": 83500,
          "time": 43.9473025,
          "velocity": 1
        },
        {
          "duration": 0.2631574999999984,
          "durationTicks": 500,
          "midi": 34,
          "name": "A#1",
          "ticks": 84000,
          "time": 44.21046,
          "velocity": 1
        },
        {
          "duration": 0.2631575000000055,
          "durationTicks": 500,
          "midi": 34,
          "name": "A#1",
          "ticks": 84500,
          "time": 44.473617499999996,
          "velocity": 1
        },
        {
          "duration": 0.5263149999999968,
          "durationTicks": 1000,
          "midi": 34,
          "name": "A#1",
          "ticks": 85000,
          "time": 44.736775,
          "velocity": 1
        },
        {
          "duration": 0.2631574999999984,
          "durationTicks": 500,
          "midi": 38,
          "name": "D2",
          "ticks": 86000,
          "time": 45.26309,
          "velocity": 1
        },
        {
          "duration": 0.2631574999999984,
          "durationTicks": 500,
          "midi": 38,
          "name": "D2",
          "ticks": 86500,
          "time": 45.5262475,
          "velocity": 1
        },
        {
          "duration": 0.5263150000000039,
          "durationTicks": 1000,
          "midi": 38,
          "name": "D2",
          "ticks": 87000,
          "time": 45.789404999999995,
          "velocity": 1
        },
        {
          "duration": 0.2631574999999984,
          "durationTicks": 500,
          "midi": 43,
          "name": "G2",
          "ticks": 88000,
          "time": 46.31572,
          "velocity": 1
        },
        {
          "duration": 0.2631574999999984,
          "durationTicks": 500,
          "midi": 43,
          "name": "G2",
          "ticks": 88500,
          "time": 46.5788775,
          "velocity": 1
        },
        {
          "duration": 0.5263150000000039,
          "durationTicks": 1000,
          "midi": 43,
          "name": "G2",
          "ticks": 89000,
          "time": 46.842034999999996,
          "velocity": 1
        },
        {
          "duration": 0.2631574999999984,
          "durationTicks": 500,
          "midi": 41,
          "name": "F2",
          "ticks": 90000,
          "time": 47.36835,
          "velocity": 1
        },
        {
          "duration": 0.2631574999999984,
          "durationTicks": 500,
          "midi": 41,
          "name": "F2",
          "ticks": 90500,
          "time": 47.6315075,
          "velocity": 1
        },
        {
          "duration": 0.5263150000000039,
          "durationTicks": 1000,
          "midi": 41,
          "name": "F2",
          "ticks": 91000,
          "time": 47.894664999999996,
          "velocity": 1
        },
        {
          "duration": 0.2631574999999984,
          "durationTicks": 500,
          "midi": 34,
          "name": "A#1",
          "ticks": 92000,
          "time": 48.42098,
          "velocity": 1
        },
        {
          "duration": 0.2631574999999984,
          "durationTicks": 500,
          "midi": 34,
          "name": "A#1",
          "ticks": 92500,
          "time": 48.6841375,
          "velocity": 1
        },
        {
          "duration": 0.5263150000000039,
          "durationTicks": 1000,
          "midi": 34,
          "name": "A#1",
          "ticks": 93000,
          "time": 48.947295,
          "velocity": 1
        },
        {
          "duration": 0.2631574999999984,
          "durationTicks": 500,
          "midi": 38,
          "name": "D2",
          "ticks": 94000,
          "time": 49.47361,
          "velocity": 1
        },
        {
          "duration": 0.2631574999999984,
          "durationTicks": 500,
          "midi": 38,
          "name": "D2",
          "ticks": 94500,
          "time": 49.7367675,
          "velocity": 1
        },
        {
          "duration": 0.5263150000000039,
          "durationTicks": 1000,
          "midi": 38,
          "name": "D2",
          "ticks": 95000,
          "time": 49.999925,
          "velocity": 1
        },
        {
          "duration": 0.2631574999999984,
          "durationTicks": 500,
          "midi": 43,
          "name": "G2",
          "ticks": 96000,
          "time": 50.52624,
          "velocity": 1
        },
        {
          "duration": 0.2631574999999984,
          "durationTicks": 500,
          "midi": 43,
          "name": "G2",
          "ticks": 96500,
          "time": 50.7893975,
          "velocity": 1
        },
        {
          "duration": 0.5263149999999968,
          "durationTicks": 1000,
          "midi": 43,
          "name": "G2",
          "ticks": 97000,
          "time": 51.052555,
          "velocity": 1
        },
        {
          "duration": 0.2631575000000055,
          "durationTicks": 500,
          "midi": 41,
          "name": "F2",
          "ticks": 98000,
          "time": 51.578869999999995,
          "velocity": 1
        },
        {
          "duration": 0.2631574999999984,
          "durationTicks": 500,
          "midi": 41,
          "name": "F2",
          "ticks": 98500,
          "time": 51.8420275,
          "velocity": 1
        },
        {
          "duration": 0.5263149999999968,
          "durationTicks": 1000,
          "midi": 41,
          "name": "F2",
          "ticks": 99000,
          "time": 52.105185,
          "velocity": 1
        },
        {
          "duration": 0.2631575000000055,
          "durationTicks": 500,
          "midi": 34,
          "name": "A#1",
          "ticks": 100000,
          "time": 52.631499999999996,
          "velocity": 1
        },
        {
          "duration": 0.2631574999999984,
          "durationTicks": 500,
          "midi": 34,
          "name": "A#1",
          "ticks": 100500,
          "time": 52.8946575,
          "velocity": 1
        },
        {
          "duration": 0.5263149999999968,
          "durationTicks": 1000,
          "midi": 34,
          "name": "A#1",
          "ticks": 101000,
          "time": 53.157815,
          "velocity": 1
        },
        {
          "duration": 0.2631574999999984,
          "durationTicks": 500,
          "midi": 38,
          "name": "D2",
          "ticks": 102000,
          "time": 53.684129999999996,
          "velocity": 1
        },
        {
          "duration": 0.2631575000000055,
          "durationTicks": 500,
          "midi": 38,
          "name": "D2",
          "ticks": 102500,
          "time": 53.947287499999995,
          "velocity": 1
        },
        {
          "duration": 0.5263149999999968,
          "durationTicks": 1000,
          "midi": 38,
          "name": "D2",
          "ticks": 103000,
          "time": 54.210445,
          "velocity": 1
        },
        {
          "duration": 0.2631574999999984,
          "durationTicks": 500,
          "midi": 40,
          "name": "E2",
          "ticks": 104000,
          "time": 54.73676,
          "velocity": 1
        },
        {
          "duration": 0.2631575000000055,
          "durationTicks": 500,
          "midi": 40,
          "name": "E2",
          "ticks": 104500,
          "time": 54.999917499999995,
          "velocity": 1
        },
        {
          "duration": 0.5263149999999968,
          "durationTicks": 1000,
          "midi": 40,
          "name": "E2",
          "ticks": 105000,
          "time": 55.263075,
          "velocity": 1
        },
        {
          "duration": 0.2631574999999984,
          "durationTicks": 500,
          "midi": 39,
          "name": "D#2",
          "ticks": 106000,
          "time": 55.78939,
          "velocity": 1
        },
        {
          "duration": 0.2631574999999984,
          "durationTicks": 500,
          "midi": 39,
          "name": "D#2",
          "ticks": 106500,
          "time": 56.052547499999996,
          "velocity": 1
        },
        {
          "duration": 0.5263150000000039,
          "durationTicks": 1000,
          "midi": 39,
          "name": "D#2",
          "ticks": 107000,
          "time": 56.315704999999994,
          "velocity": 1
        },
        {
          "duration": 0.2631574999999984,
          "durationTicks": 500,
          "midi": 36,
          "name": "C2",
          "ticks": 108000,
          "time": 56.84202,
          "velocity": 1
        },
        {
          "duration": 0.2631574999999984,
          "durationTicks": 500,
          "midi": 36,
          "name": "C2",
          "ticks": 108500,
          "time": 57.105177499999996,
          "velocity": 1
        },
        {
          "duration": 0.5263150000000039,
          "durationTicks": 1000,
          "midi": 36,
          "name": "C2",
          "ticks": 109000,
          "time": 57.368334999999995,
          "velocity": 1
        },
        {
          "duration": 0.2631574999999984,
          "durationTicks": 500,
          "midi": 38,
          "name": "D2",
          "ticks": 110000,
          "time": 57.89465,
          "velocity": 1
        },
        {
          "duration": 0.2631574999999984,
          "durationTicks": 500,
          "midi": 38,
          "name": "D2",
          "ticks": 110500,
          "time": 58.1578075,
          "velocity": 1
        },
        {
          "duration": 0.5263150000000039,
          "durationTicks": 1000,
          "midi": 38,
          "name": "D2",
          "ticks": 111000,
          "time": 58.420964999999995,
          "velocity": 1
        },
        {
          "duration": 0.2631574999999984,
          "durationTicks": 500,
          "midi": 39,
          "name": "D#2",
          "ticks": 112000,
          "time": 58.94728,
          "velocity": 1
        },
        {
          "duration": 0.2631574999999984,
          "durationTicks": 500,
          "midi": 39,
          "name": "D#2",
          "ticks": 112500,
          "time": 59.2104375,
          "velocity": 1
        },
        {
          "duration": 0.5263150000000039,
          "durationTicks": 1000,
          "midi": 39,
          "name": "D#2",
          "ticks": 113000,
          "time": 59.473594999999996,
          "velocity": 1
        },
        {
          "duration": 0.5263149999999968,
          "durationTicks": 1000,
          "midi": 36,
          "name": "C2",
          "ticks": 114000,
          "time": 59.99991,
          "velocity": 1
        },
        {
          "duration": 0.394736249999994,
          "durationTicks": 750,
          "midi": 31,
          "name": "G1",
          "ticks": 116000,
          "time": 61.05254,
          "velocity": 1
        },
        {
          "duration": 0.3947362500000011,
          "durationTicks": 750,
          "midi": 38,
          "name": "D2",
          "ticks": 116750,
          "time": 61.447276249999994,
          "velocity": 1
        },
        {
          "duration": 0.2631574999999984,
          "durationTicks": 500,
          "midi": 31,
          "name": "G1",
          "ticks": 117500,
          "time": 61.842012499999996,
          "velocity": 1
        },
        {
          "duration": 0.2631575000000055,
          "durationTicks": 500,
          "midi": 34,
          "name": "A#1",
          "ticks": 118000,
          "time": 62.105169999999994,
          "velocity": 1
        },
        {
          "duration": 0.2631574999999984,
          "durationTicks": 500,
          "midi": 41,
          "name": "F2",
          "ticks": 118500,
          "time": 62.3683275,
          "velocity": 1
        },
        {
          "duration": 0.2631574999999984,
          "durationTicks": 500,
          "midi": 36,
          "name": "C2",
          "ticks": 119000,
          "time": 62.631485,
          "velocity": 1
        },
        {
          "duration": 0.2631574999999984,
          "durationTicks": 500,
          "midi": 43,
          "name": "G2",
          "ticks": 119500,
          "time": 62.894642499999996,
          "velocity": 1
        },
        {
          "duration": 0.3947362500000011,
          "durationTicks": 750,
          "midi": 28,
          "name": "E1",
          "ticks": 120000,
          "time": 63.157799999999995,
          "velocity": 1
        },
        {
          "duration": 0.3947362500000011,
          "durationTicks": 750,
          "midi": 35,
          "name": "B1",
          "ticks": 120750,
          "time": 63.552536249999996,
          "velocity": 1
        },
        {
          "duration": 0.2631575000000055,
          "durationTicks": 500,
          "midi": 28,
          "name": "E1",
          "ticks": 121500,
          "time": 63.9472725,
          "velocity": 1
        },
        {
          "duration": 0.2631574999999913,
          "durationTicks": 500,
          "midi": 27,
          "name": "D#1",
          "ticks": 122000,
          "time": 64.21043,
          "velocity": 1
        },
        {
          "duration": 0.2631575000000055,
          "durationTicks": 500,
          "midi": 34,
          "name": "A#1",
          "ticks": 122500,
          "time": 64.4735875,
          "velocity": 1
        },
        {
          "duration": 0.2631574999999913,
          "durationTicks": 500,
          "midi": 26,
          "name": "D1",
          "ticks": 123000,
          "time": 64.736745,
          "velocity": 1
        },
        {
          "duration": 0.2631575000000055,
          "durationTicks": 500,
          "midi": 33,
          "name": "A1",
          "ticks": 123500,
          "time": 64.99990249999999,
          "velocity": 1
        },
        {
          "duration": 0.3947362500000082,
          "durationTicks": 750,
          "midi": 31,
          "name": "G1",
          "ticks": 124000,
          "time": 65.26306,
          "velocity": 1
        },
        {
          "duration": 0.394736249999994,
          "durationTicks": 750,
          "midi": 38,
          "name": "D2",
          "ticks": 124750,
          "time": 65.65779625,
          "velocity": 1
        },
        {
          "duration": 0.2631575000000055,
          "durationTicks": 500,
          "midi": 31,
          "name": "G1",
          "ticks": 125500,
          "time": 66.0525325,
          "velocity": 1
        },
        {
          "duration": 0.2631574999999913,
          "durationTicks": 500,
          "midi": 34,
          "name": "A#1",
          "ticks": 126000,
          "time": 66.31569,
          "velocity": 1
        },
        {
          "duration": 0.2631575000000055,
          "durationTicks": 500,
          "midi": 41,
          "name": "F2",
          "ticks": 126500,
          "time": 66.5788475,
          "velocity": 1
        },
        {
          "duration": 0.2631574999999913,
          "durationTicks": 500,
          "midi": 36,
          "name": "C2",
          "ticks": 127000,
          "time": 66.842005,
          "velocity": 1
        },
        {
          "duration": 0.2631575000000055,
          "durationTicks": 500,
          "midi": 43,
          "name": "G2",
          "ticks": 127500,
          "time": 67.10516249999999,
          "velocity": 1
        },
        {
          "duration": 0.394736249999994,
          "durationTicks": 750,
          "midi": 28,
          "name": "E1",
          "ticks": 128000,
          "time": 67.36832,
          "velocity": 1
        },
        {
          "duration": 0.3947362500000082,
          "durationTicks": 750,
          "midi": 35,
          "name": "B1",
          "ticks": 128750,
          "time": 67.76305624999999,
          "velocity": 1
        },
        {
          "duration": 0.2631574999999913,
          "durationTicks": 500,
          "midi": 28,
          "name": "E1",
          "ticks": 129500,
          "time": 68.1577925,
          "velocity": 1
        },
        {
          "duration": 0.2631575000000055,
          "durationTicks": 500,
          "midi": 27,
          "name": "D#1",
          "ticks": 130000,
          "time": 68.42094999999999,
          "velocity": 1
        },
        {
          "duration": 0.2631575000000055,
          "durationTicks": 500,
          "midi": 34,
          "name": "A#1",
          "ticks": 130500,
          "time": 68.6841075,
          "velocity": 1
        },
        {
          "duration": 0.2631574999999913,
          "durationTicks": 500,
          "midi": 26,
          "name": "D1",
          "ticks": 131000,
          "time": 68.947265,
          "velocity": 1
        },
        {
          "duration": 0.2631575000000055,
          "durationTicks": 500,
          "midi": 33,
          "name": "A1",
          "ticks": 131500,
          "time": 69.21042249999999,
          "velocity": 1
        },
        {
          "duration": 0.394736249999994,
          "durationTicks": 750,
          "midi": 31,
          "name": "G1",
          "ticks": 132000,
          "time": 69.47358,
          "velocity": 1
        },
        {
          "duration": 0.3947362500000082,
          "durationTicks": 750,
          "midi": 38,
          "name": "D2",
          "ticks": 132750,
          "time": 69.86831624999999,
          "velocity": 1
        },
        {
          "duration": 0.2631574999999913,
          "durationTicks": 500,
          "midi": 31,
          "name": "G1",
          "ticks": 133500,
          "time": 70.2630525,
          "velocity": 1
        },
        {
          "duration": 0.2631575000000055,
          "durationTicks": 500,
          "midi": 34,
          "name": "A#1",
          "ticks": 134000,
          "time": 70.52620999999999,
          "velocity": 1
        },
        {
          "duration": 0.2631575000000055,
          "durationTicks": 500,
          "midi": 41,
          "name": "F2",
          "ticks": 134500,
          "time": 70.7893675,
          "velocity": 1
        },
        {
          "duration": 0.2631574999999913,
          "durationTicks": 500,
          "midi": 36,
          "name": "C2",
          "ticks": 135000,
          "time": 71.052525,
          "velocity": 1
        },
        {
          "duration": 0.2631575000000055,
          "durationTicks": 500,
          "midi": 43,
          "name": "G2",
          "ticks": 135500,
          "time": 71.3156825,
          "velocity": 1
        },
        {
          "duration": 0.394736249999994,
          "durationTicks": 750,
          "midi": 28,
          "name": "E1",
          "ticks": 136000,
          "time": 71.57884,
          "velocity": 1
        },
        {
          "duration": 0.3947362500000082,
          "durationTicks": 750,
          "midi": 35,
          "name": "B1",
          "ticks": 136750,
          "time": 71.97357625,
          "velocity": 1
        },
        {
          "duration": 0.2631574999999913,
          "durationTicks": 500,
          "midi": 28,
          "name": "E1",
          "ticks": 137500,
          "time": 72.3683125,
          "velocity": 1
        },
        {
          "duration": 0.2631575000000055,
          "durationTicks": 500,
          "midi": 27,
          "name": "D#1",
          "ticks": 138000,
          "time": 72.63147,
          "velocity": 1
        },
        {
          "duration": 0.2631574999999913,
          "durationTicks": 500,
          "midi": 34,
          "name": "A#1",
          "ticks": 138500,
          "time": 72.8946275,
          "velocity": 1
        },
        {
          "duration": 0.2631575000000055,
          "durationTicks": 500,
          "midi": 26,
          "name": "D1",
          "ticks": 139000,
          "time": 73.15778499999999,
          "velocity": 1
        },
        {
          "duration": 0.2631575000000055,
          "durationTicks": 500,
          "midi": 33,
          "name": "A1",
          "ticks": 139500,
          "time": 73.4209425,
          "velocity": 1
        },
        {
          "duration": 0.394736249999994,
          "durationTicks": 750,
          "midi": 31,
          "name": "G1",
          "ticks": 140000,
          "time": 73.6841,
          "velocity": 1
        },
        {
          "duration": 0.3947362500000082,
          "durationTicks": 750,
          "midi": 38,
          "name": "D2",
          "ticks": 140750,
          "time": 74.07883625,
          "velocity": 1
        },
        {
          "duration": 0.2631574999999913,
          "durationTicks": 500,
          "midi": 31,
          "name": "G1",
          "ticks": 141500,
          "time": 74.4735725,
          "velocity": 1
        },
        {
          "duration": 0.2631575000000055,
          "durationTicks": 500,
          "midi": 34,
          "name": "A#1",
          "ticks": 142000,
          "time": 74.73673,
          "velocity": 1
        },
        {
          "duration": 0.2631574999999913,
          "durationTicks": 500,
          "midi": 41,
          "name": "F2",
          "ticks": 142500,
          "time": 74.9998875,
          "velocity": 1
        },
        {
          "duration": 0.2631575000000055,
          "durationTicks": 500,
          "midi": 36,
          "name": "C2",
          "ticks": 143000,
          "time": 75.26304499999999,
          "velocity": 1
        },
        {
          "duration": 0.2631575000000055,
          "durationTicks": 500,
          "midi": 43,
          "name": "G2",
          "ticks": 143500,
          "time": 75.5262025,
          "velocity": 1
        },
        {
          "duration": 0.394736249999994,
          "durationTicks": 750,
          "midi": 28,
          "name": "E1",
          "ticks": 144000,
          "time": 75.78936,
          "velocity": 1
        },
        {
          "duration": 0.394736249999994,
          "durationTicks": 750,
          "midi": 35,
          "name": "B1",
          "ticks": 144750,
          "time": 76.18409625,
          "velocity": 1
        },
        {
          "duration": 0.2631575000000055,
          "durationTicks": 500,
          "midi": 28,
          "name": "E1",
          "ticks": 145500,
          "time": 76.57883249999999,
          "velocity": 1
        },
        {
          "duration": 0.2631575000000055,
          "durationTicks": 500,
          "midi": 27,
          "name": "D#1",
          "ticks": 146000,
          "time": 76.84199,
          "velocity": 1
        },
        {
          "duration": 0.2631574999999913,
          "durationTicks": 500,
          "midi": 34,
          "name": "A#1",
          "ticks": 146500,
          "time": 77.1051475,
          "velocity": 1
        },
        {
          "duration": 0.2631575000000055,
          "durationTicks": 500,
          "midi": 26,
          "name": "D1",
          "ticks": 147000,
          "time": 77.36830499999999,
          "velocity": 1
        },
        {
          "duration": 0.2631575000000055,
          "durationTicks": 500,
          "midi": 33,
          "name": "A1",
          "ticks": 147500,
          "time": 77.6314625,
          "velocity": 1
        },
        {
          "duration": 0.394736249999994,
          "durationTicks": 750,
          "midi": 27,
          "name": "D#1",
          "ticks": 148000,
          "time": 77.89462,
          "velocity": 1
        },
        {
          "duration": 0.394736249999994,
          "durationTicks": 750,
          "midi": 34,
          "name": "A#1",
          "ticks": 148750,
          "time": 78.28935625,
          "velocity": 1
        },
        {
          "duration": 0.2631575000000055,
          "durationTicks": 500,
          "midi": 27,
          "name": "D#1",
          "ticks": 149500,
          "time": 78.68409249999999,
          "velocity": 1
        },
        {
          "duration": 0.394736249999994,
          "durationTicks": 750,
          "midi": 24,
          "name": "C1",
          "ticks": 150000,
          "time": 78.94725,
          "velocity": 1
        },
        {
          "duration": 0.3947362500000082,
          "durationTicks": 750,
          "midi": 33,
          "name": "A1",
          "ticks": 150750,
          "time": 79.34198624999999,
          "velocity": 1
        },
        {
          "duration": 0.2631574999999913,
          "durationTicks": 500,
          "midi": 24,
          "name": "C1",
          "ticks": 151500,
          "time": 79.7367225,
          "velocity": 1
        },
        {
          "duration": 0.3947362500000082,
          "durationTicks": 750,
          "midi": 31,
          "name": "G1",
          "ticks": 152000,
          "time": 79.99987999999999,
          "velocity": 1
        },
        {
          "duration": 0.394736249999994,
          "durationTicks": 750,
          "midi": 38,
          "name": "D2",
          "ticks": 152750,
          "time": 80.39461625,
          "velocity": 1
        },
        {
          "duration": 0.2631575000000055,
          "durationTicks": 500,
          "midi": 31,
          "name": "G1",
          "ticks": 153500,
          "time": 80.78935249999999,
          "velocity": 1
        },
        {
          "duration": 0.394736249999994,
          "durationTicks": 750,
          "midi": 29,
          "name": "F1",
          "ticks": 154000,
          "time": 81.05251,
          "velocity": 1
        },
        {
          "duration": 0.3947362500000082,
          "durationTicks": 750,
          "midi": 36,
          "name": "C2",
          "ticks": 154750,
          "time": 81.44724624999999,
          "velocity": 1
        },
        {
          "duration": 0.2631574999999913,
          "durationTicks": 500,
          "midi": 29,
          "name": "F1",
          "ticks": 155500,
          "time": 81.8419825,
          "velocity": 1
        },
        {
          "duration": 0.3947362500000082,
          "durationTicks": 750,
          "midi": 34,
          "name": "A#1",
          "ticks": 156000,
          "time": 82.10513999999999,
          "velocity": 1
        },
        {
          "duration": 0.394736249999994,
          "durationTicks": 750,
          "midi": 41,
          "name": "F2",
          "ticks": 156750,
          "time": 82.49987625,
          "velocity": 1
        },
        {
          "duration": 0.2631575000000055,
          "durationTicks": 500,
          "midi": 34,
          "name": "A#1",
          "ticks": 157500,
          "time": 82.8946125,
          "velocity": 1
        },
        {
          "duration": 0.394736249999994,
          "durationTicks": 750,
          "midi": 33,
          "name": "A1",
          "ticks": 158000,
          "time": 83.15777,
          "velocity": 1
        },
        {
          "duration": 0.3947362500000082,
          "durationTicks": 750,
          "midi": 40,
          "name": "E2",
          "ticks": 158750,
          "time": 83.55250625,
          "velocity": 1
        },
        {
          "duration": 0.2631574999999913,
          "durationTicks": 500,
          "midi": 33,
          "name": "A1",
          "ticks": 159500,
          "time": 83.9472425,
          "velocity": 1
        },
        {
          "duration": 0.3947362500000082,
          "durationTicks": 750,
          "midi": 26,
          "name": "D1",
          "ticks": 160000,
          "time": 84.21039999999999,
          "velocity": 1
        },
        {
          "duration": 0.394736249999994,
          "durationTicks": 750,
          "midi": 33,
          "name": "A1",
          "ticks": 160750,
          "time": 84.60513625,
          "velocity": 1
        },
        {
          "duration": 0.2631575000000055,
          "durationTicks": 500,
          "midi": 26,
          "name": "D1",
          "ticks": 161500,
          "time": 84.9998725,
          "velocity": 1
        },
        {
          "duration": 0.394736249999994,
          "durationTicks": 750,
          "midi": 27,
          "name": "D#1",
          "ticks": 162000,
          "time": 85.26303,
          "velocity": 1
        },
        {
          "duration": 0.3947362500000082,
          "durationTicks": 750,
          "midi": 34,
          "name": "A#1",
          "ticks": 162750,
          "time": 85.65776625,
          "velocity": 1
        },
        {
          "duration": 0.2631574999999913,
          "durationTicks": 500,
          "midi": 27,
          "name": "D#1",
          "ticks": 163500,
          "time": 86.0525025,
          "velocity": 1
        },
        {
          "duration": 0.3947362500000082,
          "durationTicks": 750,
          "midi": 31,
          "name": "G1",
          "ticks": 164000,
          "time": 86.31566,
          "velocity": 1
        },
        {
          "duration": 0.394736249999994,
          "durationTicks": 750,
          "midi": 38,
          "name": "D2",
          "ticks": 164750,
          "time": 86.71039625,
          "velocity": 1
        },
        {
          "duration": 0.2631575000000055,
          "durationTicks": 500,
          "midi": 31,
          "name": "G1",
          "ticks": 165500,
          "time": 87.1051325,
          "velocity": 1
        },
        {
          "duration": 0.2631574999999913,
          "durationTicks": 500,
          "midi": 34,
          "name": "A#1",
          "ticks": 166000,
          "time": 87.36829,
          "velocity": 1
        },
        {
          "duration": 0.2631575000000055,
          "durationTicks": 500,
          "midi": 41,
          "name": "F2",
          "ticks": 166500,
          "time": 87.6314475,
          "velocity": 1
        },
        {
          "duration": 0.2631574999999913,
          "durationTicks": 500,
          "midi": 36,
          "name": "C2",
          "ticks": 167000,
          "time": 87.894605,
          "velocity": 1
        },
        {
          "duration": 0.2631575000000055,
          "durationTicks": 500,
          "midi": 43,
          "name": "G2",
          "ticks": 167500,
          "time": 88.15776249999999,
          "velocity": 1
        },
        {
          "duration": 0.394736249999994,
          "durationTicks": 750,
          "midi": 28,
          "name": "E1",
          "ticks": 168000,
          "time": 88.42092,
          "velocity": 1
        },
        {
          "duration": 0.3947362500000082,
          "durationTicks": 750,
          "midi": 35,
          "name": "B1",
          "ticks": 168750,
          "time": 88.81565624999999,
          "velocity": 1
        },
        {
          "duration": 0.2631575000000055,
          "durationTicks": 500,
          "midi": 28,
          "name": "E1",
          "ticks": 169500,
          "time": 89.2103925,
          "velocity": 1
        },
        {
          "duration": 0.2631574999999913,
          "durationTicks": 500,
          "midi": 27,
          "name": "D#1",
          "ticks": 170000,
          "time": 89.47355,
          "velocity": 1
        },
        {
          "duration": 0.2631575000000055,
          "durationTicks": 500,
          "midi": 34,
          "name": "A#1",
          "ticks": 170500,
          "time": 89.7367075,
          "velocity": 1
        },
        {
          "duration": 0.2631574999999913,
          "durationTicks": 500,
          "midi": 26,
          "name": "D1",
          "ticks": 171000,
          "time": 89.999865,
          "velocity": 1
        },
        {
          "duration": 0.2631575000000055,
          "durationTicks": 500,
          "midi": 33,
          "name": "A1",
          "ticks": 171500,
          "time": 90.26302249999999,
          "velocity": 1
        },
        {
          "duration": 0.394736249999994,
          "durationTicks": 750,
          "midi": 31,
          "name": "G1",
          "ticks": 172000,
          "time": 90.52618,
          "velocity": 1
        },
        {
          "duration": 0.3947362500000082,
          "durationTicks": 750,
          "midi": 38,
          "name": "D2",
          "ticks": 172750,
          "time": 90.92091624999999,
          "velocity": 1
        },
        {
          "duration": 0.2631574999999913,
          "durationTicks": 500,
          "midi": 31,
          "name": "G1",
          "ticks": 173500,
          "time": 91.3156525,
          "velocity": 1
        },
        {
          "duration": 0.2631575000000055,
          "durationTicks": 500,
          "midi": 34,
          "name": "A#1",
          "ticks": 174000,
          "time": 91.57880999999999,
          "velocity": 1
        },
        {
          "duration": 0.2631575000000055,
          "durationTicks": 500,
          "midi": 41,
          "name": "F2",
          "ticks": 174500,
          "time": 91.8419675,
          "velocity": 1
        },
        {
          "duration": 0.2631574999999913,
          "durationTicks": 500,
          "midi": 36,
          "name": "C2",
          "ticks": 175000,
          "time": 92.105125,
          "velocity": 1
        },
        {
          "duration": 0.2631575000000055,
          "durationTicks": 500,
          "midi": 43,
          "name": "G2",
          "ticks": 175500,
          "time": 92.36828249999999,
          "velocity": 1
        },
        {
          "duration": 0.394736249999994,
          "durationTicks": 750,
          "midi": 28,
          "name": "E1",
          "ticks": 176000,
          "time": 92.63144,
          "velocity": 1
        },
        {
          "duration": 0.3947362500000082,
          "durationTicks": 750,
          "midi": 35,
          "name": "B1",
          "ticks": 176750,
          "time": 93.02617624999999,
          "velocity": 1
        },
        {
          "duration": 0.2631574999999913,
          "durationTicks": 500,
          "midi": 28,
          "name": "E1",
          "ticks": 177500,
          "time": 93.4209125,
          "velocity": 1
        },
        {
          "duration": 0.2631575000000055,
          "durationTicks": 500,
          "midi": 27,
          "name": "D#1",
          "ticks": 178000,
          "time": 93.68406999999999,
          "velocity": 1
        },
        {
          "duration": 0.2631575000000055,
          "durationTicks": 500,
          "midi": 34,
          "name": "A#1",
          "ticks": 178500,
          "time": 93.9472275,
          "velocity": 1
        },
        {
          "duration": 0.2631574999999913,
          "durationTicks": 500,
          "midi": 26,
          "name": "D1",
          "ticks": 179000,
          "time": 94.210385,
          "velocity": 1
        },
        {
          "duration": 0.2631575000000055,
          "durationTicks": 500,
          "midi": 33,
          "name": "A1",
          "ticks": 179500,
          "time": 94.4735425,
          "velocity": 1
        },
        {
          "duration": 0.394736249999994,
          "durationTicks": 750,
          "midi": 27,
          "name": "D#1",
          "ticks": 180000,
          "time": 94.7367,
          "velocity": 1
        },
        {
          "duration": 0.3947362500000082,
          "durationTicks": 750,
          "midi": 34,
          "name": "A#1",
          "ticks": 180750,
          "time": 95.13143625,
          "velocity": 1
        },
        {
          "duration": 0.2631574999999913,
          "durationTicks": 500,
          "midi": 27,
          "name": "D#1",
          "ticks": 181500,
          "time": 95.5261725,
          "velocity": 1
        },
        {
          "duration": 0.3947362500000082,
          "durationTicks": 750,
          "midi": 24,
          "name": "C1",
          "ticks": 182000,
          "time": 95.78932999999999,
          "velocity": 1
        },
        {
          "duration": 0.394736249999994,
          "durationTicks": 750,
          "midi": 33,
          "name": "A1",
          "ticks": 182750,
          "time": 96.18406625,
          "velocity": 1
        },
        {
          "duration": 0.2631575000000055,
          "durationTicks": 500,
          "midi": 24,
          "name": "C1",
          "ticks": 183500,
          "time": 96.5788025,
          "velocity": 1
        },
        {
          "duration": 0.394736249999994,
          "durationTicks": 750,
          "midi": 31,
          "name": "G1",
          "ticks": 184000,
          "time": 96.84196,
          "velocity": 1
        },
        {
          "duration": 0.3947362500000082,
          "durationTicks": 750,
          "midi": 38,
          "name": "D2",
          "ticks": 184750,
          "time": 97.23669625,
          "velocity": 1
        },
        {
          "duration": 0.2631574999999913,
          "durationTicks": 500,
          "midi": 31,
          "name": "G1",
          "ticks": 185500,
          "time": 97.6314325,
          "velocity": 1
        },
        {
          "duration": 0.3947362500000082,
          "durationTicks": 750,
          "midi": 29,
          "name": "F1",
          "ticks": 186000,
          "time": 97.89459,
          "velocity": 1
        },
        {
          "duration": 0.394736249999994,
          "durationTicks": 750,
          "midi": 36,
          "name": "C2",
          "ticks": 186750,
          "time": 98.28932625,
          "velocity": 1
        },
        {
          "duration": 0.2631575000000055,
          "durationTicks": 500,
          "midi": 29,
          "name": "F1",
          "ticks": 187500,
          "time": 98.6840625,
          "velocity": 1
        },
        {
          "duration": 0.394736249999994,
          "durationTicks": 750,
          "midi": 34,
          "name": "A#1",
          "ticks": 188000,
          "time": 98.94722,
          "velocity": 1
        },
        {
          "duration": 0.394736249999994,
          "durationTicks": 750,
          "midi": 41,
          "name": "F2",
          "ticks": 188750,
          "time": 99.34195625,
          "velocity": 1
        },
        {
          "duration": 0.2631575000000055,
          "durationTicks": 500,
          "midi": 34,
          "name": "A#1",
          "ticks": 189500,
          "time": 99.73669249999999,
          "velocity": 1
        },
        {
          "duration": 0.394736249999994,
          "durationTicks": 750,
          "midi": 33,
          "name": "A1",
          "ticks": 190000,
          "time": 99.99985,
          "velocity": 1
        },
        {
          "duration": 0.3947362500000082,
          "durationTicks": 750,
          "midi": 40,
          "name": "E2",
          "ticks": 190750,
          "time": 100.39458624999999,
          "velocity": 1
        },
        {
          "duration": 0.2631575000000055,
          "durationTicks": 500,
          "midi": 33,
          "name": "A1",
          "ticks": 191500,
          "time": 100.7893225,
          "velocity": 1
        },
        {
          "duration": 0.394736249999994,
          "durationTicks": 750,
          "midi": 26,
          "name": "D1",
          "ticks": 192000,
          "time": 101.05248,
          "velocity": 1
        },
        {
          "duration": 0.394736249999994,
          "durationTicks": 750,
          "midi": 33,
          "name": "A1",
          "ticks": 192750,
          "time": 101.44721625,
          "velocity": 1
        },
        {
          "duration": 0.2631575000000055,
          "durationTicks": 500,
          "midi": 26,
          "name": "D1",
          "ticks": 193500,
          "time": 101.84195249999999,
          "velocity": 1
        },
        {
          "duration": 0.394736249999994,
          "durationTicks": 750,
          "midi": 27,
          "name": "D#1",
          "ticks": 194000,
          "time": 102.10511,
          "velocity": 1
        },
        {
          "duration": 0.3947362500000082,
          "durationTicks": 750,
          "midi": 34,
          "name": "A#1",
          "ticks": 194750,
          "time": 102.49984624999999,
          "velocity": 1
        },
        {
          "duration": 0.2631574999999913,
          "durationTicks": 500,
          "midi": 27,
          "name": "D#1",
          "ticks": 195500,
          "time": 102.8945825,
          "velocity": 1
        },
        {
          "duration": 0.2631575000000055,
          "durationTicks": 500,
          "midi": 34,
          "name": "A#1",
          "ticks": 196000,
          "time": 103.15773999999999,
          "velocity": 1
        },
        {
          "duration": 0.2631575000000055,
          "durationTicks": 500,
          "midi": 34,
          "name": "A#1",
          "ticks": 196500,
          "time": 103.4208975,
          "velocity": 1
        },
        {
          "duration": 0.5263149999999968,
          "durationTicks": 1000,
          "midi": 34,
          "name": "A#1",
          "ticks": 197000,
          "time": 103.684055,
          "velocity": 1
        },
        {
          "duration": 0.2631574999999913,
          "durationTicks": 500,
          "midi": 38,
          "name": "D2",
          "ticks": 198000,
          "time": 104.21037,
          "velocity": 1
        },
        {
          "duration": 0.2631575000000055,
          "durationTicks": 500,
          "midi": 38,
          "name": "D2",
          "ticks": 198500,
          "time": 104.47352749999999,
          "velocity": 1
        },
        {
          "duration": 0.5263149999999968,
          "durationTicks": 1000,
          "midi": 38,
          "name": "D2",
          "ticks": 199000,
          "time": 104.736685,
          "velocity": 1
        },
        {
          "duration": 0.2631575000000055,
          "durationTicks": 500,
          "midi": 43,
          "name": "G2",
          "ticks": 200000,
          "time": 105.26299999999999,
          "velocity": 1
        },
        {
          "duration": 0.2631575000000055,
          "durationTicks": 500,
          "midi": 43,
          "name": "G2",
          "ticks": 200500,
          "time": 105.5261575,
          "velocity": 1
        },
        {
          "duration": 0.5263149999999968,
          "durationTicks": 1000,
          "midi": 43,
          "name": "G2",
          "ticks": 201000,
          "time": 105.789315,
          "velocity": 1
        },
        {
          "duration": 0.2631574999999913,
          "durationTicks": 500,
          "midi": 41,
          "name": "F2",
          "ticks": 202000,
          "time": 106.31563,
          "velocity": 1
        },
        {
          "duration": 0.2631575000000055,
          "durationTicks": 500,
          "midi": 41,
          "name": "F2",
          "ticks": 202500,
          "time": 106.57878749999999,
          "velocity": 1
        },
        {
          "duration": 0.5263149999999968,
          "durationTicks": 1000,
          "midi": 41,
          "name": "F2",
          "ticks": 203000,
          "time": 106.841945,
          "velocity": 1
        },
        {
          "duration": 0.2631575000000055,
          "durationTicks": 500,
          "midi": 34,
          "name": "A#1",
          "ticks": 204000,
          "time": 107.36825999999999,
          "velocity": 1
        },
        {
          "duration": 0.2631574999999913,
          "durationTicks": 500,
          "midi": 34,
          "name": "A#1",
          "ticks": 204500,
          "time": 107.6314175,
          "velocity": 1
        },
        {
          "duration": 0.526315000000011,
          "durationTicks": 1000,
          "midi": 34,
          "name": "A#1",
          "ticks": 205000,
          "time": 107.89457499999999,
          "velocity": 1
        },
        {
          "duration": 0.2631574999999913,
          "durationTicks": 500,
          "midi": 38,
          "name": "D2",
          "ticks": 206000,
          "time": 108.42089,
          "velocity": 1
        },
        {
          "duration": 0.2631575000000055,
          "durationTicks": 500,
          "midi": 38,
          "name": "D2",
          "ticks": 206500,
          "time": 108.68404749999999,
          "velocity": 1
        },
        {
          "duration": 0.5263149999999968,
          "durationTicks": 1000,
          "midi": 38,
          "name": "D2",
          "ticks": 207000,
          "time": 108.947205,
          "velocity": 1
        },
        {
          "duration": 0.2631575000000055,
          "durationTicks": 500,
          "midi": 43,
          "name": "G2",
          "ticks": 208000,
          "time": 109.47352,
          "velocity": 1
        },
        {
          "duration": 0.2631574999999913,
          "durationTicks": 500,
          "midi": 43,
          "name": "G2",
          "ticks": 208500,
          "time": 109.7366775,
          "velocity": 1
        },
        {
          "duration": 0.526315000000011,
          "durationTicks": 1000,
          "midi": 43,
          "name": "G2",
          "ticks": 209000,
          "time": 109.99983499999999,
          "velocity": 1
        },
        {
          "duration": 0.2631574999999913,
          "durationTicks": 500,
          "midi": 41,
          "name": "F2",
          "ticks": 210000,
          "time": 110.52615,
          "velocity": 1
        },
        {
          "duration": 0.2631575000000055,
          "durationTicks": 500,
          "midi": 41,
          "name": "F2",
          "ticks": 210500,
          "time": 110.78930749999999,
          "velocity": 1
        },
        {
          "duration": 0.5263149999999968,
          "durationTicks": 1000,
          "midi": 41,
          "name": "F2",
          "ticks": 211000,
          "time": 111.052465,
          "velocity": 1
        },
        {
          "duration": 0.2631575000000055,
          "durationTicks": 500,
          "midi": 34,
          "name": "A#1",
          "ticks": 212000,
          "time": 111.57878,
          "velocity": 1
        },
        {
          "duration": 0.2631574999999913,
          "durationTicks": 500,
          "midi": 34,
          "name": "A#1",
          "ticks": 212500,
          "time": 111.8419375,
          "velocity": 1
        },
        {
          "duration": 0.5263149999999968,
          "durationTicks": 1000,
          "midi": 34,
          "name": "A#1",
          "ticks": 213000,
          "time": 112.10509499999999,
          "velocity": 1
        },
        {
          "duration": 0.2631575000000055,
          "durationTicks": 500,
          "midi": 38,
          "name": "D2",
          "ticks": 214000,
          "time": 112.63140999999999,
          "velocity": 1
        },
        {
          "duration": 0.2631575000000055,
          "durationTicks": 500,
          "midi": 38,
          "name": "D2",
          "ticks": 214500,
          "time": 112.8945675,
          "velocity": 1
        },
        {
          "duration": 0.5263149999999968,
          "durationTicks": 1000,
          "midi": 38,
          "name": "D2",
          "ticks": 215000,
          "time": 113.157725,
          "velocity": 1
        },
        {
          "duration": 0.2631575000000055,
          "durationTicks": 500,
          "midi": 40,
          "name": "E2",
          "ticks": 216000,
          "time": 113.68404,
          "velocity": 1
        },
        {
          "duration": 0.2631574999999913,
          "durationTicks": 500,
          "midi": 40,
          "name": "E2",
          "ticks": 216500,
          "time": 113.9471975,
          "velocity": 1
        },
        {
          "duration": 0.5263149999999968,
          "durationTicks": 1000,
          "midi": 40,
          "name": "E2",
          "ticks": 217000,
          "time": 114.21035499999999,
          "velocity": 1
        },
        {
          "duration": 0.2631575000000055,
          "durationTicks": 500,
          "midi": 39,
          "name": "D#2",
          "ticks": 218000,
          "time": 114.73666999999999,
          "velocity": 1
        },
        {
          "duration": 0.2631575000000055,
          "durationTicks": 500,
          "midi": 39,
          "name": "D#2",
          "ticks": 218500,
          "time": 114.9998275,
          "velocity": 1
        },
        {
          "duration": 0.5263149999999968,
          "durationTicks": 1000,
          "midi": 39,
          "name": "D#2",
          "ticks": 219000,
          "time": 115.262985,
          "velocity": 1
        },
        {
          "duration": 0.2631574999999913,
          "durationTicks": 500,
          "midi": 36,
          "name": "C2",
          "ticks": 220000,
          "time": 115.7893,
          "velocity": 1
        },
        {
          "duration": 0.2631575000000055,
          "durationTicks": 500,
          "midi": 36,
          "name": "C2",
          "ticks": 220500,
          "time": 116.05245749999999,
          "velocity": 1
        },
        {
          "duration": 0.5263149999999968,
          "durationTicks": 1000,
          "midi": 36,
          "name": "C2",
          "ticks": 221000,
          "time": 116.315615,
          "velocity": 1
        },
        {
          "duration": 0.2631575000000055,
          "durationTicks": 500,
          "midi": 38,
          "name": "D2",
          "ticks": 222000,
          "time": 116.84192999999999,
          "velocity": 1
        },
        {
          "duration": 0.2631575000000055,
          "durationTicks": 500,
          "midi": 38,
          "name": "D2",
          "ticks": 222500,
          "time": 117.1050875,
          "velocity": 1
        },
        {
          "duration": 0.5263149999999968,
          "durationTicks": 1000,
          "midi": 38,
          "name": "D2",
          "ticks": 223000,
          "time": 117.368245,
          "velocity": 1
        },
        {
          "duration": 0.2631574999999913,
          "durationTicks": 500,
          "midi": 39,
          "name": "D#2",
          "ticks": 224000,
          "time": 117.89456,
          "velocity": 1
        },
        {
          "duration": 0.2631575000000055,
          "durationTicks": 500,
          "midi": 39,
          "name": "D#2",
          "ticks": 224500,
          "time": 118.15771749999999,
          "velocity": 1
        },
        {
          "duration": 0.5263149999999968,
          "durationTicks": 1000,
          "midi": 39,
          "name": "D#2",
          "ticks": 225000,
          "time": 118.420875,
          "velocity": 1
        },
        {
          "duration": 0.5263149999999968,
          "durationTicks": 1000,
          "midi": 36,
          "name": "C2",
          "ticks": 226000,
          "time": 118.94718999999999,
          "velocity": 1
        },
        {
          "duration": 0.394736249999994,
          "durationTicks": 750,
          "midi": 27,
          "name": "D#1",
          "ticks": 292000,
          "time": 153.68398,
          "velocity": 1
        },
        {
          "duration": 0.394736249999994,
          "durationTicks": 750,
          "midi": 34,
          "name": "A#1",
          "ticks": 292750,
          "time": 154.07871624999999,
          "velocity": 1
        },
        {
          "duration": 0.2631575000000055,
          "durationTicks": 500,
          "midi": 27,
          "name": "D#1",
          "ticks": 293500,
          "time": 154.47345249999998,
          "velocity": 1
        },
        {
          "duration": 0.39473625000002244,
          "durationTicks": 750,
          "midi": 24,
          "name": "C1",
          "ticks": 294000,
          "time": 154.73660999999998,
          "velocity": 1
        },
        {
          "duration": 0.394736249999994,
          "durationTicks": 750,
          "midi": 33,
          "name": "A1",
          "ticks": 294750,
          "time": 155.13134625,
          "velocity": 1
        },
        {
          "duration": 0.2631575000000055,
          "durationTicks": 500,
          "midi": 24,
          "name": "C1",
          "ticks": 295500,
          "time": 155.5260825,
          "velocity": 1
        },
        {
          "duration": 0.394736249999994,
          "durationTicks": 750,
          "midi": 31,
          "name": "G1",
          "ticks": 296000,
          "time": 155.78924,
          "velocity": 1
        },
        {
          "duration": 0.394736249999994,
          "durationTicks": 750,
          "midi": 38,
          "name": "D2",
          "ticks": 296750,
          "time": 156.18397625,
          "velocity": 1
        },
        {
          "duration": 0.2631575000000055,
          "durationTicks": 500,
          "midi": 31,
          "name": "G1",
          "ticks": 297500,
          "time": 156.5787125,
          "velocity": 1
        },
        {
          "duration": 0.394736249999994,
          "durationTicks": 750,
          "midi": 29,
          "name": "F1",
          "ticks": 298000,
          "time": 156.84187,
          "velocity": 1
        },
        {
          "duration": 0.394736249999994,
          "durationTicks": 750,
          "midi": 36,
          "name": "C2",
          "ticks": 298750,
          "time": 157.23660625,
          "velocity": 1
        },
        {
          "duration": 0.2631575000000055,
          "durationTicks": 500,
          "midi": 29,
          "name": "F1",
          "ticks": 299500,
          "time": 157.6313425,
          "velocity": 1
        },
        {
          "duration": 0.394736249999994,
          "durationTicks": 750,
          "midi": 34,
          "name": "A#1",
          "ticks": 300000,
          "time": 157.8945,
          "velocity": 1
        },
        {
          "duration": 0.394736249999994,
          "durationTicks": 750,
          "midi": 41,
          "name": "F2",
          "ticks": 300750,
          "time": 158.28923625,
          "velocity": 1
        },
        {
          "duration": 0.2631575000000055,
          "durationTicks": 500,
          "midi": 34,
          "name": "A#1",
          "ticks": 301500,
          "time": 158.68397249999998,
          "velocity": 1
        },
        {
          "duration": 0.394736249999994,
          "durationTicks": 750,
          "midi": 33,
          "name": "A1",
          "ticks": 302000,
          "time": 158.94713,
          "velocity": 1
        },
        {
          "duration": 0.39473625000002244,
          "durationTicks": 750,
          "midi": 40,
          "name": "E2",
          "ticks": 302750,
          "time": 159.34186624999998,
          "velocity": 1
        },
        {
          "duration": 0.26315749999997706,
          "durationTicks": 500,
          "midi": 33,
          "name": "A1",
          "ticks": 303500,
          "time": 159.7366025,
          "velocity": 1
        },
        {
          "duration": 0.39473625000002244,
          "durationTicks": 750,
          "midi": 26,
          "name": "D1",
          "ticks": 304000,
          "time": 159.99975999999998,
          "velocity": 1
        },
        {
          "duration": 0.394736249999994,
          "durationTicks": 750,
          "midi": 33,
          "name": "A1",
          "ticks": 304750,
          "time": 160.39449625,
          "velocity": 1
        },
        {
          "duration": 0.2631575000000055,
          "durationTicks": 500,
          "midi": 26,
          "name": "D1",
          "ticks": 305500,
          "time": 160.7892325,
          "velocity": 1
        },
        {
          "duration": 0.394736249999994,
          "durationTicks": 750,
          "midi": 27,
          "name": "D#1",
          "ticks": 306000,
          "time": 161.05239,
          "velocity": 1
        },
        {
          "duration": 0.394736249999994,
          "durationTicks": 750,
          "midi": 34,
          "name": "A#1",
          "ticks": 306750,
          "time": 161.44712625,
          "velocity": 1
        },
        {
          "duration": 0.2631575000000055,
          "durationTicks": 500,
          "midi": 27,
          "name": "D#1",
          "ticks": 307500,
          "time": 161.8418625,
          "velocity": 1
        },
        {
          "duration": 0.394736249999994,
          "durationTicks": 750,
          "midi": 27,
          "name": "D#1",
          "ticks": 308000,
          "time": 162.10502,
          "velocity": 1
        },
        {
          "duration": 0.394736249999994,
          "durationTicks": 750,
          "midi": 34,
          "name": "A#1",
          "ticks": 308750,
          "time": 162.49975625,
          "velocity": 1
        },
        {
          "duration": 0.2631575000000055,
          "durationTicks": 500,
          "midi": 27,
          "name": "D#1",
          "ticks": 309500,
          "time": 162.89449249999998,
          "velocity": 1
        },
        {
          "duration": 0.394736249999994,
          "durationTicks": 750,
          "midi": 24,
          "name": "C1",
          "ticks": 310000,
          "time": 163.15765,
          "velocity": 1
        },
        {
          "duration": 0.39473625000002244,
          "durationTicks": 750,
          "midi": 33,
          "name": "A1",
          "ticks": 310750,
          "time": 163.55238624999998,
          "velocity": 1
        },
        {
          "duration": 0.26315749999997706,
          "durationTicks": 500,
          "midi": 24,
          "name": "C1",
          "ticks": 311500,
          "time": 163.9471225,
          "velocity": 1
        },
        {
          "duration": 0.39473625000002244,
          "durationTicks": 750,
          "midi": 31,
          "name": "G1",
          "ticks": 312000,
          "time": 164.21027999999998,
          "velocity": 1
        },
        {
          "duration": 0.394736249999994,
          "durationTicks": 750,
          "midi": 38,
          "name": "D2",
          "ticks": 312750,
          "time": 164.60501625,
          "velocity": 1
        },
        {
          "duration": 0.2631575000000055,
          "durationTicks": 500,
          "midi": 31,
          "name": "G1",
          "ticks": 313500,
          "time": 164.9997525,
          "velocity": 1
        },
        {
          "duration": 0.394736249999994,
          "durationTicks": 750,
          "midi": 29,
          "name": "F1",
          "ticks": 314000,
          "time": 165.26291,
          "velocity": 1
        },
        {
          "duration": 0.394736249999994,
          "durationTicks": 750,
          "midi": 36,
          "name": "C2",
          "ticks": 314750,
          "time": 165.65764625,
          "velocity": 1
        },
        {
          "duration": 0.2631575000000055,
          "durationTicks": 500,
          "midi": 29,
          "name": "F1",
          "ticks": 315500,
          "time": 166.0523825,
          "velocity": 1
        },
        {
          "duration": 0.394736249999994,
          "durationTicks": 750,
          "midi": 34,
          "name": "A#1",
          "ticks": 316000,
          "time": 166.31554,
          "velocity": 1
        },
        {
          "duration": 0.394736249999994,
          "durationTicks": 750,
          "midi": 41,
          "name": "F2",
          "ticks": 316750,
          "time": 166.71027625,
          "velocity": 1
        },
        {
          "duration": 0.2631575000000055,
          "durationTicks": 500,
          "midi": 34,
          "name": "A#1",
          "ticks": 317500,
          "time": 167.1050125,
          "velocity": 1
        },
        {
          "duration": 0.394736249999994,
          "durationTicks": 750,
          "midi": 33,
          "name": "A1",
          "ticks": 318000,
          "time": 167.36817,
          "velocity": 1
        },
        {
          "duration": 0.394736249999994,
          "durationTicks": 750,
          "midi": 40,
          "name": "E2",
          "ticks": 318750,
          "time": 167.76290625,
          "velocity": 1
        },
        {
          "duration": 0.2631575000000055,
          "durationTicks": 500,
          "midi": 33,
          "name": "A1",
          "ticks": 319500,
          "time": 168.15764249999998,
          "velocity": 1
        },
        {
          "duration": 0.394736249999994,
          "durationTicks": 750,
          "midi": 26,
          "name": "D1",
          "ticks": 320000,
          "time": 168.42079999999999,
          "velocity": 1
        },
        {
          "duration": 0.39473625000002244,
          "durationTicks": 750,
          "midi": 33,
          "name": "A1",
          "ticks": 320750,
          "time": 168.81553624999998,
          "velocity": 1
        },
        {
          "duration": 0.26315749999997706,
          "durationTicks": 500,
          "midi": 26,
          "name": "D1",
          "ticks": 321500,
          "time": 169.2102725,
          "velocity": 1
        },
        {
          "duration": 0.39473625000002244,
          "durationTicks": 750,
          "midi": 27,
          "name": "D#1",
          "ticks": 322000,
          "time": 169.47342999999998,
          "velocity": 1
        },
        {
          "duration": 0.394736249999994,
          "durationTicks": 750,
          "midi": 34,
          "name": "A#1",
          "ticks": 322750,
          "time": 169.86816625,
          "velocity": 1
        },
        {
          "duration": 0.2631575000000055,
          "durationTicks": 500,
          "midi": 27,
          "name": "D#1",
          "ticks": 323500,
          "time": 170.2629025,
          "velocity": 1
        },
        {
          "duration": 0.394736249999994,
          "durationTicks": 750,
          "midi": 27,
          "name": "D#1",
          "ticks": 324000,
          "time": 170.52606,
          "velocity": 1
        },
        {
          "duration": 0.394736249999994,
          "durationTicks": 750,
          "midi": 34,
          "name": "A#1",
          "ticks": 324750,
          "time": 170.92079625,
          "velocity": 1
        },
        {
          "duration": 0.2631575000000055,
          "durationTicks": 500,
          "midi": 27,
          "name": "D#1",
          "ticks": 325500,
          "time": 171.3155325,
          "velocity": 1
        },
        {
          "duration": 0.394736249999994,
          "durationTicks": 750,
          "midi": 24,
          "name": "C1",
          "ticks": 326000,
          "time": 171.57869,
          "velocity": 1
        },
        {
          "duration": 0.394736249999994,
          "durationTicks": 750,
          "midi": 33,
          "name": "A1",
          "ticks": 326750,
          "time": 171.97342625,
          "velocity": 1
        },
        {
          "duration": 0.2631575000000055,
          "durationTicks": 500,
          "midi": 24,
          "name": "C1",
          "ticks": 327500,
          "time": 172.36816249999998,
          "velocity": 1
        },
        {
          "duration": 0.394736249999994,
          "durationTicks": 750,
          "midi": 31,
          "name": "G1",
          "ticks": 328000,
          "time": 172.63132,
          "velocity": 1
        },
        {
          "duration": 0.39473625000002244,
          "durationTicks": 750,
          "midi": 38,
          "name": "D2",
          "ticks": 328750,
          "time": 173.02605624999998,
          "velocity": 1
        },
        {
          "duration": 0.26315749999997706,
          "durationTicks": 500,
          "midi": 31,
          "name": "G1",
          "ticks": 329500,
          "time": 173.4207925,
          "velocity": 1
        },
        {
          "duration": 0.39473625000002244,
          "durationTicks": 750,
          "midi": 29,
          "name": "F1",
          "ticks": 330000,
          "time": 173.68394999999998,
          "velocity": 1
        },
        {
          "duration": 0.394736249999994,
          "durationTicks": 750,
          "midi": 36,
          "name": "C2",
          "ticks": 330750,
          "time": 174.07868625,
          "velocity": 1
        },
        {
          "duration": 0.2631575000000055,
          "durationTicks": 500,
          "midi": 29,
          "name": "F1",
          "ticks": 331500,
          "time": 174.4734225,
          "velocity": 1
        },
        {
          "duration": 0.394736249999994,
          "durationTicks": 750,
          "midi": 34,
          "name": "A#1",
          "ticks": 332000,
          "time": 174.73658,
          "velocity": 1
        },
        {
          "duration": 0.394736249999994,
          "durationTicks": 750,
          "midi": 41,
          "name": "F2",
          "ticks": 332750,
          "time": 175.13131625,
          "velocity": 1
        },
        {
          "duration": 0.2631575000000055,
          "durationTicks": 500,
          "midi": 34,
          "name": "A#1",
          "ticks": 333500,
          "time": 175.5260525,
          "velocity": 1
        },
        {
          "duration": 0.394736249999994,
          "durationTicks": 750,
          "midi": 33,
          "name": "A1",
          "ticks": 334000,
          "time": 175.78921,
          "velocity": 1
        },
        {
          "duration": 0.394736249999994,
          "durationTicks": 750,
          "midi": 40,
          "name": "E2",
          "ticks": 334750,
          "time": 176.18394625,
          "velocity": 1
        },
        {
          "duration": 0.2631575000000055,
          "durationTicks": 500,
          "midi": 33,
          "name": "A1",
          "ticks": 335500,
          "time": 176.57868249999999,
          "velocity": 1
        },
        {
          "duration": 0.394736249999994,
          "durationTicks": 750,
          "midi": 26,
          "name": "D1",
          "ticks": 336000,
          "time": 176.84184,
          "velocity": 1
        },
        {
          "duration": 0.394736249999994,
          "durationTicks": 750,
          "midi": 33,
          "name": "A1",
          "ticks": 336750,
          "time": 177.23657624999998,
          "velocity": 1
        },
        {
          "duration": 0.2631575000000055,
          "durationTicks": 500,
          "midi": 26,
          "name": "D1",
          "ticks": 337500,
          "time": 177.63131249999998,
          "velocity": 1
        },
        {
          "duration": 0.394736249999994,
          "durationTicks": 750,
          "midi": 27,
          "name": "D#1",
          "ticks": 338000,
          "time": 177.89446999999998,
          "velocity": 1
        },
        {
          "duration": 0.39473625000002244,
          "durationTicks": 750,
          "midi": 34,
          "name": "A#1",
          "ticks": 338750,
          "time": 178.28920624999998,
          "velocity": 1
        },
        {
          "duration": 0.2631575000000055,
          "durationTicks": 500,
          "midi": 27,
          "name": "D#1",
          "ticks": 339500,
          "time": 178.6839425,
          "velocity": 1
        },
        {
          "duration": 0.394736249999994,
          "durationTicks": 750,
          "midi": 27,
          "name": "D#1",
          "ticks": 340000,
          "time": 178.9471,
          "velocity": 1
        },
        {
          "duration": 0.394736249999994,
          "durationTicks": 750,
          "midi": 34,
          "name": "A#1",
          "ticks": 340750,
          "time": 179.34183625,
          "velocity": 1
        },
        {
          "duration": 0.2631575000000055,
          "durationTicks": 500,
          "midi": 27,
          "name": "D#1",
          "ticks": 341500,
          "time": 179.7365725,
          "velocity": 1
        },
        {
          "duration": 0.394736249999994,
          "durationTicks": 750,
          "midi": 26,
          "name": "D1",
          "ticks": 342000,
          "time": 179.99973,
          "velocity": 1
        },
        {
          "duration": 0.394736249999994,
          "durationTicks": 750,
          "midi": 33,
          "name": "A1",
          "ticks": 342750,
          "time": 180.39446625,
          "velocity": 1
        },
        {
          "duration": 0.2631575000000055,
          "durationTicks": 500,
          "midi": 26,
          "name": "D1",
          "ticks": 343500,
          "time": 180.7892025,
          "velocity": 1
        },
        {
          "duration": 0.394736249999994,
          "durationTicks": 750,
          "midi": 31,
          "name": "G1",
          "ticks": 344000,
          "time": 181.05236,
          "velocity": 1
        },
        {
          "duration": 0.394736249999994,
          "durationTicks": 750,
          "midi": 38,
          "name": "D2",
          "ticks": 344750,
          "time": 181.44709625,
          "velocity": 1
        },
        {
          "duration": 0.2631575000000055,
          "durationTicks": 500,
          "midi": 31,
          "name": "G1",
          "ticks": 345500,
          "time": 181.84183249999998,
          "velocity": 1
        },
        {
          "duration": 0.394736249999994,
          "durationTicks": 750,
          "midi": 29,
          "name": "F1",
          "ticks": 346000,
          "time": 182.10499,
          "velocity": 1
        },
        {
          "duration": 0.39473625000002244,
          "durationTicks": 750,
          "midi": 36,
          "name": "C2",
          "ticks": 346750,
          "time": 182.49972624999998,
          "velocity": 1
        },
        {
          "duration": 0.26315749999997706,
          "durationTicks": 500,
          "midi": 29,
          "name": "F1",
          "ticks": 347500,
          "time": 182.8944625,
          "velocity": 1
        },
        {
          "duration": 0.39473625000002244,
          "durationTicks": 750,
          "midi": 34,
          "name": "A#1",
          "ticks": 348000,
          "time": 183.15761999999998,
          "velocity": 1
        },
        {
          "duration": 0.394736249999994,
          "durationTicks": 750,
          "midi": 41,
          "name": "F2",
          "ticks": 348750,
          "time": 183.55235625,
          "velocity": 1
        },
        {
          "duration": 0.2631575000000055,
          "durationTicks": 500,
          "midi": 34,
          "name": "A#1",
          "ticks": 349500,
          "time": 183.9470925,
          "velocity": 1
        },
        {
          "duration": 0.394736249999994,
          "durationTicks": 750,
          "midi": 33,
          "name": "A1",
          "ticks": 350000,
          "time": 184.21025,
          "velocity": 1
        },
        {
          "duration": 0.394736249999994,
          "durationTicks": 750,
          "midi": 40,
          "name": "E2",
          "ticks": 350750,
          "time": 184.60498625,
          "velocity": 1
        },
        {
          "duration": 0.2631575000000055,
          "durationTicks": 500,
          "midi": 33,
          "name": "A1",
          "ticks": 351500,
          "time": 184.9997225,
          "velocity": 1
        },
        {
          "duration": 0.394736249999994,
          "durationTicks": 750,
          "midi": 26,
          "name": "D1",
          "ticks": 352000,
          "time": 185.26288,
          "velocity": 1
        },
        {
          "duration": 0.394736249999994,
          "durationTicks": 750,
          "midi": 33,
          "name": "A1",
          "ticks": 352750,
          "time": 185.65761625,
          "velocity": 1
        },
        {
          "duration": 0.2631575000000055,
          "durationTicks": 500,
          "midi": 26,
          "name": "D1",
          "ticks": 353500,
          "time": 186.05235249999998,
          "velocity": 1
        },
        {
          "duration": 0.394736249999994,
          "durationTicks": 750,
          "midi": 27,
          "name": "D#1",
          "ticks": 354000,
          "time": 186.31551,
          "velocity": 1
        },
        {
          "duration": 0.2631575000000055,
          "durationTicks": 500,
          "midi": 34,
          "name": "A#1",
          "ticks": 356000,
          "time": 187.36813999999998,
          "velocity": 1
        },
        {
          "duration": 0.2631575000000055,
          "durationTicks": 500,
          "midi": 34,
          "name": "A#1",
          "ticks": 356500,
          "time": 187.6312975,
          "velocity": 1
        },
        {
          "duration": 0.526315000000011,
          "durationTicks": 1000,
          "midi": 34,
          "name": "A#1",
          "ticks": 357000,
          "time": 187.894455,
          "velocity": 1
        },
        {
          "duration": 0.26315749999997706,
          "durationTicks": 500,
          "midi": 38,
          "name": "D2",
          "ticks": 358000,
          "time": 188.42077,
          "velocity": 1
        },
        {
          "duration": 0.2631575000000055,
          "durationTicks": 500,
          "midi": 38,
          "name": "D2",
          "ticks": 358500,
          "time": 188.68392749999998,
          "velocity": 1
        },
        {
          "duration": 0.526315000000011,
          "durationTicks": 1000,
          "midi": 38,
          "name": "D2",
          "ticks": 359000,
          "time": 188.947085,
          "velocity": 1
        },
        {
          "duration": 0.2631575000000055,
          "durationTicks": 500,
          "midi": 43,
          "name": "G2",
          "ticks": 360000,
          "time": 189.4734,
          "velocity": 1
        },
        {
          "duration": 0.26315749999997706,
          "durationTicks": 500,
          "midi": 43,
          "name": "G2",
          "ticks": 360500,
          "time": 189.7365575,
          "velocity": 1
        },
        {
          "duration": 0.526315000000011,
          "durationTicks": 1000,
          "midi": 43,
          "name": "G2",
          "ticks": 361000,
          "time": 189.99971499999998,
          "velocity": 1
        },
        {
          "duration": 0.2631575000000055,
          "durationTicks": 500,
          "midi": 41,
          "name": "F2",
          "ticks": 362000,
          "time": 190.52603,
          "velocity": 1
        },
        {
          "duration": 0.2631575000000055,
          "durationTicks": 500,
          "midi": 41,
          "name": "F2",
          "ticks": 362500,
          "time": 190.7891875,
          "velocity": 1
        },
        {
          "duration": 0.5263149999999825,
          "durationTicks": 1000,
          "midi": 41,
          "name": "F2",
          "ticks": 363000,
          "time": 191.052345,
          "velocity": 1
        },
        {
          "duration": 0.2631575000000055,
          "durationTicks": 500,
          "midi": 34,
          "name": "A#1",
          "ticks": 364000,
          "time": 191.57865999999999,
          "velocity": 1
        },
        {
          "duration": 0.2631575000000055,
          "durationTicks": 500,
          "midi": 34,
          "name": "A#1",
          "ticks": 364500,
          "time": 191.8418175,
          "velocity": 1
        },
        {
          "duration": 0.5263149999999825,
          "durationTicks": 1000,
          "midi": 34,
          "name": "A#1",
          "ticks": 365000,
          "time": 192.104975,
          "velocity": 1
        },
        {
          "duration": 0.2631575000000055,
          "durationTicks": 500,
          "midi": 38,
          "name": "D2",
          "ticks": 366000,
          "time": 192.63128999999998,
          "velocity": 1
        },
        {
          "duration": 0.2631575000000055,
          "durationTicks": 500,
          "midi": 38,
          "name": "D2",
          "ticks": 366500,
          "time": 192.89444749999998,
          "velocity": 1
        },
        {
          "duration": 0.526315000000011,
          "durationTicks": 1000,
          "midi": 38,
          "name": "D2",
          "ticks": 367000,
          "time": 193.157605,
          "velocity": 1
        },
        {
          "duration": 0.26315749999997706,
          "durationTicks": 500,
          "midi": 43,
          "name": "G2",
          "ticks": 368000,
          "time": 193.68392,
          "velocity": 1
        },
        {
          "duration": 0.2631575000000055,
          "durationTicks": 500,
          "midi": 43,
          "name": "G2",
          "ticks": 368500,
          "time": 193.94707749999998,
          "velocity": 1
        },
        {
          "duration": 0.526315000000011,
          "durationTicks": 1000,
          "midi": 43,
          "name": "G2",
          "ticks": 369000,
          "time": 194.21023499999998,
          "velocity": 1
        },
        {
          "duration": 0.2631575000000055,
          "durationTicks": 500,
          "midi": 41,
          "name": "F2",
          "ticks": 370000,
          "time": 194.73655,
          "velocity": 1
        },
        {
          "duration": 0.2631575000000055,
          "durationTicks": 500,
          "midi": 41,
          "name": "F2",
          "ticks": 370500,
          "time": 194.9997075,
          "velocity": 1
        },
        {
          "duration": 0.5263149999999825,
          "durationTicks": 1000,
          "midi": 41,
          "name": "F2",
          "ticks": 371000,
          "time": 195.262865,
          "velocity": 1
        },
        {
          "duration": 0.2631575000000055,
          "durationTicks": 500,
          "midi": 34,
          "name": "A#1",
          "ticks": 372000,
          "time": 195.78918,
          "velocity": 1
        },
        {
          "duration": 0.2631575000000055,
          "durationTicks": 500,
          "midi": 34,
          "name": "A#1",
          "ticks": 372500,
          "time": 196.0523375,
          "velocity": 1
        },
        {
          "duration": 0.5263149999999825,
          "durationTicks": 1000,
          "midi": 34,
          "name": "A#1",
          "ticks": 373000,
          "time": 196.315495,
          "velocity": 1
        },
        {
          "duration": 0.2631575000000055,
          "durationTicks": 500,
          "midi": 38,
          "name": "D2",
          "ticks": 374000,
          "time": 196.84180999999998,
          "velocity": 1
        },
        {
          "duration": 0.2631575000000055,
          "durationTicks": 500,
          "midi": 38,
          "name": "D2",
          "ticks": 374500,
          "time": 197.1049675,
          "velocity": 1
        },
        {
          "duration": 0.526315000000011,
          "durationTicks": 1000,
          "midi": 38,
          "name": "D2",
          "ticks": 375000,
          "time": 197.368125,
          "velocity": 1
        },
        {
          "duration": 0.26315749999997706,
          "durationTicks": 500,
          "midi": 40,
          "name": "E2",
          "ticks": 376000,
          "time": 197.89444,
          "velocity": 1
        },
        {
          "duration": 0.2631575000000055,
          "durationTicks": 500,
          "midi": 40,
          "name": "E2",
          "ticks": 376500,
          "time": 198.15759749999998,
          "velocity": 1
        },
        {
          "duration": 0.526315000000011,
          "durationTicks": 1000,
          "midi": 40,
          "name": "E2",
          "ticks": 377000,
          "time": 198.42075499999999,
          "velocity": 1
        },
        {
          "duration": 0.2631575000000055,
          "durationTicks": 500,
          "midi": 39,
          "name": "D#2",
          "ticks": 378000,
          "time": 198.94707,
          "velocity": 1
        },
        {
          "duration": 0.26315749999997706,
          "durationTicks": 500,
          "midi": 39,
          "name": "D#2",
          "ticks": 378500,
          "time": 199.2102275,
          "velocity": 1
        },
        {
          "duration": 0.526315000000011,
          "durationTicks": 1000,
          "midi": 39,
          "name": "D#2",
          "ticks": 379000,
          "time": 199.47338499999998,
          "velocity": 1
        },
        {
          "duration": 0.2631575000000055,
          "durationTicks": 500,
          "midi": 36,
          "name": "C2",
          "ticks": 380000,
          "time": 199.9997,
          "velocity": 1
        },
        {
          "duration": 0.2631575000000055,
          "durationTicks": 500,
          "midi": 36,
          "name": "C2",
          "ticks": 380500,
          "time": 200.2628575,
          "velocity": 1
        },
        {
          "duration": 0.5263149999999825,
          "durationTicks": 1000,
          "midi": 36,
          "name": "C2",
          "ticks": 381000,
          "time": 200.526015,
          "velocity": 1
        },
        {
          "duration": 0.2631575000000055,
          "durationTicks": 500,
          "midi": 38,
          "name": "D2",
          "ticks": 382000,
          "time": 201.05232999999998,
          "velocity": 1
        },
        {
          "duration": 0.2631575000000055,
          "durationTicks": 500,
          "midi": 38,
          "name": "D2",
          "ticks": 382500,
          "time": 201.3154875,
          "velocity": 1
        },
        {
          "duration": 0.526315000000011,
          "durationTicks": 1000,
          "midi": 38,
          "name": "D2",
          "ticks": 383000,
          "time": 201.578645,
          "velocity": 1
        },
        {
          "duration": 0.26315749999997706,
          "durationTicks": 500,
          "midi": 39,
          "name": "D#2",
          "ticks": 384000,
          "time": 202.10496,
          "velocity": 1
        },
        {
          "duration": 0.2631575000000055,
          "durationTicks": 500,
          "midi": 39,
          "name": "D#2",
          "ticks": 384500,
          "time": 202.36811749999998,
          "velocity": 1
        },
        {
          "duration": 0.526315000000011,
          "durationTicks": 1000,
          "midi": 39,
          "name": "D#2",
          "ticks": 385000,
          "time": 202.631275,
          "velocity": 1
        },
        {
          "duration": 0.5263149999999825,
          "durationTicks": 1000,
          "midi": 36,
          "name": "C2",
          "ticks": 386000,
          "time": 203.15759,
          "velocity": 1
        },
        {
          "duration": 0.2631575000000055,
          "durationTicks": 500,
          "midi": 36,
          "name": "C2",
          "ticks": 388000,
          "time": 204.21022,
          "velocity": 1
        },
        {
          "duration": 0.2631575000000055,
          "durationTicks": 500,
          "midi": 36,
          "name": "C2",
          "ticks": 388500,
          "time": 204.4733775,
          "velocity": 1
        },
        {
          "duration": 0.5263149999999825,
          "durationTicks": 1000,
          "midi": 36,
          "name": "C2",
          "ticks": 389000,
          "time": 204.736535,
          "velocity": 1
        },
        {
          "duration": 0.2631575000000055,
          "durationTicks": 500,
          "midi": 38,
          "name": "D2",
          "ticks": 390000,
          "time": 205.26285,
          "velocity": 1
        },
        {
          "duration": 0.2631575000000055,
          "durationTicks": 500,
          "midi": 38,
          "name": "D2",
          "ticks": 390500,
          "time": 205.5260075,
          "velocity": 1
        },
        {
          "duration": 0.5263149999999825,
          "durationTicks": 1000,
          "midi": 38,
          "name": "D2",
          "ticks": 391000,
          "time": 205.789165,
          "velocity": 1
        },
        {
          "duration": 0.2631575000000055,
          "durationTicks": 500,
          "midi": 39,
          "name": "D#2",
          "ticks": 392000,
          "time": 206.31547999999998,
          "velocity": 1
        },
        {
          "duration": 0.2631575000000055,
          "durationTicks": 500,
          "midi": 39,
          "name": "D#2",
          "ticks": 392500,
          "time": 206.57863749999999,
          "velocity": 1
        },
        {
          "duration": 0.526315000000011,
          "durationTicks": 1000,
          "midi": 39,
          "name": "D#2",
          "ticks": 393000,
          "time": 206.841795,
          "velocity": 1
        },
        {
          "duration": 0.5263149999999825,
          "durationTicks": 1000,
          "midi": 36,
          "name": "C2",
          "ticks": 394000,
          "time": 207.36811,
          "velocity": 1
        },
        {
          "duration": 0.2631575000000055,
          "durationTicks": 500,
          "midi": 36,
          "name": "C2",
          "ticks": 396000,
          "time": 208.42074,
          "velocity": 1
        },
        {
          "duration": 0.26315749999997706,
          "durationTicks": 500,
          "midi": 36,
          "name": "C2",
          "ticks": 396500,
          "time": 208.6838975,
          "velocity": 1
        },
        {
          "duration": 0.526315000000011,
          "durationTicks": 1000,
          "midi": 36,
          "name": "C2",
          "ticks": 397000,
          "time": 208.94705499999998,
          "velocity": 1
        },
        {
          "duration": 0.2631575000000055,
          "durationTicks": 500,
          "midi": 38,
          "name": "D2",
          "ticks": 398000,
          "time": 209.47337,
          "velocity": 1
        },
        {
          "duration": 0.2631575000000055,
          "durationTicks": 500,
          "midi": 38,
          "name": "D2",
          "ticks": 398500,
          "time": 209.7365275,
          "velocity": 1
        },
        {
          "duration": 0.5263149999999825,
          "durationTicks": 1000,
          "midi": 38,
          "name": "D2",
          "ticks": 399000,
          "time": 209.999685,
          "velocity": 1
        },
        {
          "duration": 0.2631575000000055,
          "durationTicks": 500,
          "midi": 39,
          "name": "D#2",
          "ticks": 400000,
          "time": 210.52599999999998,
          "velocity": 1
        },
        {
          "duration": 0.2631575000000055,
          "durationTicks": 500,
          "midi": 39,
          "name": "D#2",
          "ticks": 400500,
          "time": 210.7891575,
          "velocity": 1
        },
        {
          "duration": 0.526315000000011,
          "durationTicks": 1000,
          "midi": 39,
          "name": "D#2",
          "ticks": 401000,
          "time": 211.052315,
          "velocity": 1
        },
        {
          "duration": 0.5263149999999825,
          "durationTicks": 1000,
          "midi": 36,
          "name": "C2",
          "ticks": 402000,
          "time": 211.57863,
          "velocity": 1
        }
      ]
    },
    {
      "channel": 0,
      "controlChanges": {
        "0": [
          {
            "number": 0,
            "ticks": 0,
            "time": 0,
            "value": 0
          }
        ],
        "7": [
          {
            "number": 7,
            "ticks": 0,
            "time": 0,
            "value": 0.905511811023622
          }
        ]
      },
      "pitchBends": [],
      "instrument": {
        "family": "piano",
        "number": 0,
        "name": "acoustic grand piano"
      },
      "name": "Hoppin",
      "notes": [],
      "endOfTrackTicks": 403000
    },
    {
      "channel": 2,
      "controlChanges": {},
      "pitchBends": [],
      "instrument": {
        "family": "chromatic percussion",
        "number": 15,
        "name": "dulcimer"
      },
      "name": "",
      "notes": [
        {
          "duration": 0.26315750000000016,
          "durationTicks": 500,
          "midi": 70,
          "name": "A#4",
          "ticks": 20500,
          "time": 10.7894575,
          "velocity": 1
        },
        {
          "duration": 0.26315750000000016,
          "durationTicks": 500,
          "midi": 67,
          "name": "G4",
          "ticks": 20500,
          "time": 10.7894575,
          "velocity": 1
        },
        {
          "duration": 0.26315750000000016,
          "durationTicks": 500,
          "midi": 62,
          "name": "D4",
          "ticks": 20500,
          "time": 10.7894575,
          "velocity": 1
        },
        {
          "duration": 0.26315750000000016,
          "durationTicks": 500,
          "midi": 70,
          "name": "A#4",
          "ticks": 21500,
          "time": 11.3157725,
          "velocity": 1
        },
        {
          "duration": 0.26315750000000016,
          "durationTicks": 500,
          "midi": 67,
          "name": "G4",
          "ticks": 21500,
          "time": 11.3157725,
          "velocity": 1
        },
        {
          "duration": 0.26315750000000016,
          "durationTicks": 500,
          "midi": 62,
          "name": "D4",
          "ticks": 21500,
          "time": 11.3157725,
          "velocity": 1
        },
        {
          "duration": 0.26315750000000016,
          "durationTicks": 500,
          "midi": 70,
          "name": "A#4",
          "ticks": 22500,
          "time": 11.8420875,
          "velocity": 1
        },
        {
          "duration": 0.26315750000000016,
          "durationTicks": 500,
          "midi": 62,
          "name": "D4",
          "ticks": 22500,
          "time": 11.8420875,
          "velocity": 1
        },
        {
          "duration": 0.26315750000000016,
          "durationTicks": 500,
          "midi": 65,
          "name": "F4",
          "ticks": 22500,
          "time": 11.8420875,
          "velocity": 1
        },
        {
          "duration": 0.26315750000000016,
          "durationTicks": 500,
          "midi": 70,
          "name": "A#4",
          "ticks": 23500,
          "time": 12.3684025,
          "velocity": 1
        },
        {
          "duration": 0.26315750000000016,
          "durationTicks": 500,
          "midi": 62,
          "name": "D4",
          "ticks": 23500,
          "time": 12.3684025,
          "velocity": 1
        },
        {
          "duration": 0.26315750000000016,
          "durationTicks": 500,
          "midi": 64,
          "name": "E4",
          "ticks": 23500,
          "time": 12.3684025,
          "velocity": 1
        },
        {
          "duration": 0.26315750000000016,
          "durationTicks": 500,
          "midi": 71,
          "name": "B4",
          "ticks": 24500,
          "time": 12.894717499999999,
          "velocity": 1
        },
        {
          "duration": 0.26315750000000016,
          "durationTicks": 500,
          "midi": 67,
          "name": "G4",
          "ticks": 24500,
          "time": 12.894717499999999,
          "velocity": 1
        },
        {
          "duration": 0.26315750000000016,
          "durationTicks": 500,
          "midi": 62,
          "name": "D4",
          "ticks": 24500,
          "time": 12.894717499999999,
          "velocity": 1
        },
        {
          "duration": 0.26315750000000016,
          "durationTicks": 500,
          "midi": 71,
          "name": "B4",
          "ticks": 25500,
          "time": 13.421032499999999,
          "velocity": 1
        },
        {
          "duration": 0.26315750000000016,
          "durationTicks": 500,
          "midi": 67,
          "name": "G4",
          "ticks": 25500,
          "time": 13.421032499999999,
          "velocity": 1
        },
        {
          "duration": 0.26315750000000016,
          "durationTicks": 500,
          "midi": 62,
          "name": "D4",
          "ticks": 25500,
          "time": 13.421032499999999,
          "velocity": 1
        },
        {
          "duration": 0.26315750000000016,
          "durationTicks": 500,
          "midi": 70,
          "name": "A#4",
          "ticks": 26500,
          "time": 13.9473475,
          "velocity": 1
        },
        {
          "duration": 0.26315750000000016,
          "durationTicks": 500,
          "midi": 67,
          "name": "G4",
          "ticks": 26500,
          "time": 13.9473475,
          "velocity": 1
        },
        {
          "duration": 0.26315750000000016,
          "durationTicks": 500,
          "midi": 61,
          "name": "C#4",
          "ticks": 26500,
          "time": 13.9473475,
          "velocity": 1
        },
        {
          "duration": 0.26315750000000016,
          "durationTicks": 500,
          "midi": 69,
          "name": "A4",
          "ticks": 27500,
          "time": 14.4736625,
          "velocity": 1
        },
        {
          "duration": 0.26315750000000016,
          "durationTicks": 500,
          "midi": 60,
          "name": "C4",
          "ticks": 27500,
          "time": 14.4736625,
          "velocity": 1
        },
        {
          "duration": 0.26315750000000016,
          "durationTicks": 500,
          "midi": 66,
          "name": "F#4",
          "ticks": 27500,
          "time": 14.4736625,
          "velocity": 1
        },
        {
          "duration": 0.26315750000000016,
          "durationTicks": 500,
          "midi": 70,
          "name": "A#4",
          "ticks": 28500,
          "time": 14.9999775,
          "velocity": 1
        },
        {
          "duration": 0.26315750000000016,
          "durationTicks": 500,
          "midi": 67,
          "name": "G4",
          "ticks": 28500,
          "time": 14.9999775,
          "velocity": 1
        },
        {
          "duration": 0.26315750000000016,
          "durationTicks": 500,
          "midi": 62,
          "name": "D4",
          "ticks": 28500,
          "time": 14.9999775,
          "velocity": 1
        },
        {
          "duration": 0.26315750000000016,
          "durationTicks": 500,
          "midi": 70,
          "name": "A#4",
          "ticks": 29500,
          "time": 15.526292499999998,
          "velocity": 1
        },
        {
          "duration": 0.26315750000000016,
          "durationTicks": 500,
          "midi": 67,
          "name": "G4",
          "ticks": 29500,
          "time": 15.526292499999998,
          "velocity": 1
        },
        {
          "duration": 0.26315750000000016,
          "durationTicks": 500,
          "midi": 62,
          "name": "D4",
          "ticks": 29500,
          "time": 15.526292499999998,
          "velocity": 1
        },
        {
          "duration": 0.2631574999999984,
          "durationTicks": 500,
          "midi": 70,
          "name": "A#4",
          "ticks": 30500,
          "time": 16.0526075,
          "velocity": 1
        },
        {
          "duration": 0.2631574999999984,
          "durationTicks": 500,
          "midi": 62,
          "name": "D4",
          "ticks": 30500,
          "time": 16.0526075,
          "velocity": 1
        },
        {
          "duration": 0.2631574999999984,
          "durationTicks": 500,
          "midi": 65,
          "name": "F4",
          "ticks": 30500,
          "time": 16.0526075,
          "velocity": 1
        },
        {
          "duration": 0.2631574999999984,
          "durationTicks": 500,
          "midi": 70,
          "name": "A#4",
          "ticks": 31500,
          "time": 16.5789225,
          "velocity": 1
        },
        {
          "duration": 0.2631574999999984,
          "durationTicks": 500,
          "midi": 62,
          "name": "D4",
          "ticks": 31500,
          "time": 16.5789225,
          "velocity": 1
        },
        {
          "duration": 0.2631574999999984,
          "durationTicks": 500,
          "midi": 64,
          "name": "E4",
          "ticks": 31500,
          "time": 16.5789225,
          "velocity": 1
        },
        {
          "duration": 0.26315750000000193,
          "durationTicks": 500,
          "midi": 71,
          "name": "B4",
          "ticks": 32500,
          "time": 17.105237499999998,
          "velocity": 1
        },
        {
          "duration": 0.26315750000000193,
          "durationTicks": 500,
          "midi": 67,
          "name": "G4",
          "ticks": 32500,
          "time": 17.105237499999998,
          "velocity": 1
        },
        {
          "duration": 0.26315750000000193,
          "durationTicks": 500,
          "midi": 62,
          "name": "D4",
          "ticks": 32500,
          "time": 17.105237499999998,
          "velocity": 1
        },
        {
          "duration": 0.26315750000000193,
          "durationTicks": 500,
          "midi": 71,
          "name": "B4",
          "ticks": 33500,
          "time": 17.631552499999998,
          "velocity": 1
        },
        {
          "duration": 0.26315750000000193,
          "durationTicks": 500,
          "midi": 67,
          "name": "G4",
          "ticks": 33500,
          "time": 17.631552499999998,
          "velocity": 1
        },
        {
          "duration": 0.26315750000000193,
          "durationTicks": 500,
          "midi": 62,
          "name": "D4",
          "ticks": 33500,
          "time": 17.631552499999998,
          "velocity": 1
        },
        {
          "duration": 0.26315750000000193,
          "durationTicks": 500,
          "midi": 70,
          "name": "A#4",
          "ticks": 34500,
          "time": 18.1578675,
          "velocity": 1
        },
        {
          "duration": 0.26315750000000193,
          "durationTicks": 500,
          "midi": 67,
          "name": "G4",
          "ticks": 34500,
          "time": 18.1578675,
          "velocity": 1
        },
        {
          "duration": 0.26315750000000193,
          "durationTicks": 500,
          "midi": 61,
          "name": "C#4",
          "ticks": 34500,
          "time": 18.1578675,
          "velocity": 1
        },
        {
          "duration": 0.26315750000000193,
          "durationTicks": 500,
          "midi": 69,
          "name": "A4",
          "ticks": 35500,
          "time": 18.6841825,
          "velocity": 1
        },
        {
          "duration": 0.26315750000000193,
          "durationTicks": 500,
          "midi": 60,
          "name": "C4",
          "ticks": 35500,
          "time": 18.6841825,
          "velocity": 1
        },
        {
          "duration": 0.26315750000000193,
          "durationTicks": 500,
          "midi": 66,
          "name": "F#4",
          "ticks": 35500,
          "time": 18.6841825,
          "velocity": 1
        },
        {
          "duration": 0.2631574999999984,
          "durationTicks": 500,
          "midi": 75,
          "name": "D#5",
          "ticks": 36000,
          "time": 18.94734,
          "velocity": 1
        },
        {
          "duration": 0.26315750000000193,
          "durationTicks": 500,
          "midi": 67,
          "name": "G4",
          "ticks": 36500,
          "time": 19.2104975,
          "velocity": 1
        },
        {
          "duration": 0.2631574999999984,
          "durationTicks": 500,
          "midi": 70,
          "name": "A#4",
          "ticks": 37000,
          "time": 19.473655,
          "velocity": 1
        },
        {
          "duration": 0.2631574999999984,
          "durationTicks": 500,
          "midi": 75,
          "name": "D#5",
          "ticks": 37500,
          "time": 19.7368125,
          "velocity": 1
        },
        {
          "duration": 0.26315750000000193,
          "durationTicks": 500,
          "midi": 74,
          "name": "D5",
          "ticks": 38000,
          "time": 19.999969999999998,
          "velocity": 1
        },
        {
          "duration": 0.2631574999999984,
          "durationTicks": 500,
          "midi": 66,
          "name": "F#4",
          "ticks": 38500,
          "time": 20.2631275,
          "velocity": 1
        },
        {
          "duration": 0.26315750000000193,
          "durationTicks": 500,
          "midi": 69,
          "name": "A4",
          "ticks": 39000,
          "time": 20.526284999999998,
          "velocity": 1
        },
        {
          "duration": 0.2631574999999984,
          "durationTicks": 500,
          "midi": 74,
          "name": "D5",
          "ticks": 39500,
          "time": 20.7894425,
          "velocity": 1
        },
        {
          "duration": 0.26315750000000193,
          "durationTicks": 500,
          "midi": 70,
          "name": "A#4",
          "ticks": 40000,
          "time": 21.052599999999998,
          "velocity": 1
        },
        {
          "duration": 0.2631574999999984,
          "durationTicks": 500,
          "midi": 62,
          "name": "D4",
          "ticks": 40500,
          "time": 21.3157575,
          "velocity": 1
        },
        {
          "duration": 0.26315750000000193,
          "durationTicks": 500,
          "midi": 67,
          "name": "G4",
          "ticks": 41000,
          "time": 21.578915,
          "velocity": 1
        },
        {
          "duration": 0.2631574999999984,
          "durationTicks": 500,
          "midi": 74,
          "name": "D5",
          "ticks": 41500,
          "time": 21.8420725,
          "velocity": 1
        },
        {
          "duration": 0.26315750000000193,
          "durationTicks": 500,
          "midi": 72,
          "name": "C5",
          "ticks": 42000,
          "time": 22.10523,
          "velocity": 1
        },
        {
          "duration": 0.2631574999999984,
          "durationTicks": 500,
          "midi": 65,
          "name": "F4",
          "ticks": 42500,
          "time": 22.3683875,
          "velocity": 1
        },
        {
          "duration": 0.2631574999999984,
          "durationTicks": 500,
          "midi": 69,
          "name": "A4",
          "ticks": 43000,
          "time": 22.631545,
          "velocity": 1
        },
        {
          "duration": 0.26315750000000193,
          "durationTicks": 500,
          "midi": 77,
          "name": "F5",
          "ticks": 43500,
          "time": 22.894702499999998,
          "velocity": 1
        },
        {
          "duration": 0.2631574999999984,
          "durationTicks": 500,
          "midi": 74,
          "name": "D5",
          "ticks": 44000,
          "time": 23.15786,
          "velocity": 1
        },
        {
          "duration": 0.26315750000000193,
          "durationTicks": 500,
          "midi": 65,
          "name": "F4",
          "ticks": 44500,
          "time": 23.421017499999998,
          "velocity": 1
        },
        {
          "duration": 0.2631574999999984,
          "durationTicks": 500,
          "midi": 70,
          "name": "A#4",
          "ticks": 45000,
          "time": 23.684175,
          "velocity": 1
        },
        {
          "duration": 0.26315750000000193,
          "durationTicks": 500,
          "midi": 77,
          "name": "F5",
          "ticks": 45500,
          "time": 23.947332499999998,
          "velocity": 1
        },
        {
          "duration": 0.2631574999999984,
          "durationTicks": 500,
          "midi": 76,
          "name": "E5",
          "ticks": 46000,
          "time": 24.21049,
          "velocity": 1
        },
        {
          "duration": 0.26315750000000193,
          "durationTicks": 500,
          "midi": 67,
          "name": "G4",
          "ticks": 46500,
          "time": 24.4736475,
          "velocity": 1
        },
        {
          "duration": 0.2631574999999984,
          "durationTicks": 500,
          "midi": 69,
          "name": "A4",
          "ticks": 47000,
          "time": 24.736805,
          "velocity": 1
        },
        {
          "duration": 0.26315750000000193,
          "durationTicks": 500,
          "midi": 76,
          "name": "E5",
          "ticks": 47500,
          "time": 24.9999625,
          "velocity": 1
        },
        {
          "duration": 0.2631574999999984,
          "durationTicks": 500,
          "midi": 74,
          "name": "D5",
          "ticks": 48000,
          "time": 25.26312,
          "velocity": 1
        },
        {
          "duration": 0.2631574999999984,
          "durationTicks": 500,
          "midi": 66,
          "name": "F#4",
          "ticks": 48500,
          "time": 25.5262775,
          "velocity": 1
        },
        {
          "duration": 0.26315750000000193,
          "durationTicks": 500,
          "midi": 69,
          "name": "A4",
          "ticks": 49000,
          "time": 25.789434999999997,
          "velocity": 1
        },
        {
          "duration": 0.2631574999999984,
          "durationTicks": 500,
          "midi": 74,
          "name": "D5",
          "ticks": 49500,
          "time": 26.0525925,
          "velocity": 1
        },
        {
          "duration": 0.26315750000000193,
          "durationTicks": 500,
          "midi": 75,
          "name": "D#5",
          "ticks": 50000,
          "time": 26.315749999999998,
          "velocity": 1
        },
        {
          "duration": 0.2631574999999984,
          "durationTicks": 500,
          "midi": 67,
          "name": "G4",
          "ticks": 50500,
          "time": 26.5789075,
          "velocity": 1
        },
        {
          "duration": 0.26315750000000193,
          "durationTicks": 500,
          "midi": 70,
          "name": "A#4",
          "ticks": 51000,
          "time": 26.842064999999998,
          "velocity": 1
        },
        {
          "duration": 0.2631574999999984,
          "durationTicks": 500,
          "midi": 75,
          "name": "D#5",
          "ticks": 51500,
          "time": 27.1052225,
          "velocity": 1
        },
        {
          "duration": 0.2631574999999984,
          "durationTicks": 500,
          "midi": 70,
          "name": "A#4",
          "ticks": 52500,
          "time": 27.6315375,
          "velocity": 1
        },
        {
          "duration": 0.2631574999999984,
          "durationTicks": 500,
          "midi": 67,
          "name": "G4",
          "ticks": 52500,
          "time": 27.6315375,
          "velocity": 1
        },
        {
          "duration": 0.2631574999999984,
          "durationTicks": 500,
          "midi": 62,
          "name": "D4",
          "ticks": 52500,
          "time": 27.6315375,
          "velocity": 1
        },
        {
          "duration": 0.26315750000000193,
          "durationTicks": 500,
          "midi": 70,
          "name": "A#4",
          "ticks": 53500,
          "time": 28.157852499999997,
          "velocity": 1
        },
        {
          "duration": 0.26315750000000193,
          "durationTicks": 500,
          "midi": 67,
          "name": "G4",
          "ticks": 53500,
          "time": 28.157852499999997,
          "velocity": 1
        },
        {
          "duration": 0.26315750000000193,
          "durationTicks": 500,
          "midi": 62,
          "name": "D4",
          "ticks": 53500,
          "time": 28.157852499999997,
          "velocity": 1
        },
        {
          "duration": 0.26315750000000193,
          "durationTicks": 500,
          "midi": 70,
          "name": "A#4",
          "ticks": 54500,
          "time": 28.684167499999997,
          "velocity": 1
        },
        {
          "duration": 0.26315750000000193,
          "durationTicks": 500,
          "midi": 62,
          "name": "D4",
          "ticks": 54500,
          "time": 28.684167499999997,
          "velocity": 1
        },
        {
          "duration": 0.26315750000000193,
          "durationTicks": 500,
          "midi": 65,
          "name": "F4",
          "ticks": 54500,
          "time": 28.684167499999997,
          "velocity": 1
        },
        {
          "duration": 0.26315750000000193,
          "durationTicks": 500,
          "midi": 70,
          "name": "A#4",
          "ticks": 55500,
          "time": 29.210482499999998,
          "velocity": 1
        },
        {
          "duration": 0.26315750000000193,
          "durationTicks": 500,
          "midi": 62,
          "name": "D4",
          "ticks": 55500,
          "time": 29.210482499999998,
          "velocity": 1
        },
        {
          "duration": 0.26315750000000193,
          "durationTicks": 500,
          "midi": 64,
          "name": "E4",
          "ticks": 55500,
          "time": 29.210482499999998,
          "velocity": 1
        },
        {
          "duration": 0.26315750000000193,
          "durationTicks": 500,
          "midi": 71,
          "name": "B4",
          "ticks": 56500,
          "time": 29.736797499999998,
          "velocity": 1
        },
        {
          "duration": 0.26315750000000193,
          "durationTicks": 500,
          "midi": 67,
          "name": "G4",
          "ticks": 56500,
          "time": 29.736797499999998,
          "velocity": 1
        },
        {
          "duration": 0.26315750000000193,
          "durationTicks": 500,
          "midi": 62,
          "name": "D4",
          "ticks": 56500,
          "time": 29.736797499999998,
          "velocity": 1
        },
        {
          "duration": 0.26315750000000193,
          "durationTicks": 500,
          "midi": 71,
          "name": "B4",
          "ticks": 57500,
          "time": 30.2631125,
          "velocity": 1
        },
        {
          "duration": 0.26315750000000193,
          "durationTicks": 500,
          "midi": 67,
          "name": "G4",
          "ticks": 57500,
          "time": 30.2631125,
          "velocity": 1
        },
        {
          "duration": 0.26315750000000193,
          "durationTicks": 500,
          "midi": 62,
          "name": "D4",
          "ticks": 57500,
          "time": 30.2631125,
          "velocity": 1
        },
        {
          "duration": 0.2631574999999984,
          "durationTicks": 500,
          "midi": 70,
          "name": "A#4",
          "ticks": 58500,
          "time": 30.7894275,
          "velocity": 1
        },
        {
          "duration": 0.2631574999999984,
          "durationTicks": 500,
          "midi": 67,
          "name": "G4",
          "ticks": 58500,
          "time": 30.7894275,
          "velocity": 1
        },
        {
          "duration": 0.2631574999999984,
          "durationTicks": 500,
          "midi": 61,
          "name": "C#4",
          "ticks": 58500,
          "time": 30.7894275,
          "velocity": 1
        },
        {
          "duration": 0.2631574999999984,
          "durationTicks": 500,
          "midi": 69,
          "name": "A4",
          "ticks": 59500,
          "time": 31.3157425,
          "velocity": 1
        },
        {
          "duration": 0.2631574999999984,
          "durationTicks": 500,
          "midi": 60,
          "name": "C4",
          "ticks": 59500,
          "time": 31.3157425,
          "velocity": 1
        },
        {
          "duration": 0.2631574999999984,
          "durationTicks": 500,
          "midi": 66,
          "name": "F#4",
          "ticks": 59500,
          "time": 31.3157425,
          "velocity": 1
        },
        {
          "duration": 0.26315750000000193,
          "durationTicks": 500,
          "midi": 70,
          "name": "A#4",
          "ticks": 60500,
          "time": 31.8420575,
          "velocity": 1
        },
        {
          "duration": 0.26315750000000193,
          "durationTicks": 500,
          "midi": 67,
          "name": "G4",
          "ticks": 60500,
          "time": 31.8420575,
          "velocity": 1
        },
        {
          "duration": 0.26315750000000193,
          "durationTicks": 500,
          "midi": 62,
          "name": "D4",
          "ticks": 60500,
          "time": 31.8420575,
          "velocity": 1
        },
        {
          "duration": 0.2631574999999984,
          "durationTicks": 500,
          "midi": 70,
          "name": "A#4",
          "ticks": 61500,
          "time": 32.3683725,
          "velocity": 1
        },
        {
          "duration": 0.2631574999999984,
          "durationTicks": 500,
          "midi": 67,
          "name": "G4",
          "ticks": 61500,
          "time": 32.3683725,
          "velocity": 1
        },
        {
          "duration": 0.2631574999999984,
          "durationTicks": 500,
          "midi": 62,
          "name": "D4",
          "ticks": 61500,
          "time": 32.3683725,
          "velocity": 1
        },
        {
          "duration": 0.2631575000000055,
          "durationTicks": 500,
          "midi": 70,
          "name": "A#4",
          "ticks": 62500,
          "time": 32.894687499999996,
          "velocity": 1
        },
        {
          "duration": 0.2631575000000055,
          "durationTicks": 500,
          "midi": 62,
          "name": "D4",
          "ticks": 62500,
          "time": 32.894687499999996,
          "velocity": 1
        },
        {
          "duration": 0.2631575000000055,
          "durationTicks": 500,
          "midi": 65,
          "name": "F4",
          "ticks": 62500,
          "time": 32.894687499999996,
          "velocity": 1
        },
        {
          "duration": 0.2631574999999984,
          "durationTicks": 500,
          "midi": 70,
          "name": "A#4",
          "ticks": 63500,
          "time": 33.4210025,
          "velocity": 1
        },
        {
          "duration": 0.2631574999999984,
          "durationTicks": 500,
          "midi": 62,
          "name": "D4",
          "ticks": 63500,
          "time": 33.4210025,
          "velocity": 1
        },
        {
          "duration": 0.2631574999999984,
          "durationTicks": 500,
          "midi": 64,
          "name": "E4",
          "ticks": 63500,
          "time": 33.4210025,
          "velocity": 1
        },
        {
          "duration": 0.2631574999999984,
          "durationTicks": 500,
          "midi": 71,
          "name": "B4",
          "ticks": 64500,
          "time": 33.9473175,
          "velocity": 1
        },
        {
          "duration": 0.2631574999999984,
          "durationTicks": 500,
          "midi": 67,
          "name": "G4",
          "ticks": 64500,
          "time": 33.9473175,
          "velocity": 1
        },
        {
          "duration": 0.2631574999999984,
          "durationTicks": 500,
          "midi": 62,
          "name": "D4",
          "ticks": 64500,
          "time": 33.9473175,
          "velocity": 1
        },
        {
          "duration": 0.2631574999999984,
          "durationTicks": 500,
          "midi": 71,
          "name": "B4",
          "ticks": 65500,
          "time": 34.4736325,
          "velocity": 1
        },
        {
          "duration": 0.2631574999999984,
          "durationTicks": 500,
          "midi": 67,
          "name": "G4",
          "ticks": 65500,
          "time": 34.4736325,
          "velocity": 1
        },
        {
          "duration": 0.2631574999999984,
          "durationTicks": 500,
          "midi": 62,
          "name": "D4",
          "ticks": 65500,
          "time": 34.4736325,
          "velocity": 1
        },
        {
          "duration": 0.2631574999999984,
          "durationTicks": 500,
          "midi": 70,
          "name": "A#4",
          "ticks": 66500,
          "time": 34.9999475,
          "velocity": 1
        },
        {
          "duration": 0.2631574999999984,
          "durationTicks": 500,
          "midi": 67,
          "name": "G4",
          "ticks": 66500,
          "time": 34.9999475,
          "velocity": 1
        },
        {
          "duration": 0.2631574999999984,
          "durationTicks": 500,
          "midi": 61,
          "name": "C#4",
          "ticks": 66500,
          "time": 34.9999475,
          "velocity": 1
        },
        {
          "duration": 0.2631574999999984,
          "durationTicks": 500,
          "midi": 69,
          "name": "A4",
          "ticks": 67500,
          "time": 35.5262625,
          "velocity": 1
        },
        {
          "duration": 0.2631574999999984,
          "durationTicks": 500,
          "midi": 60,
          "name": "C4",
          "ticks": 67500,
          "time": 35.5262625,
          "velocity": 1
        },
        {
          "duration": 0.2631574999999984,
          "durationTicks": 500,
          "midi": 66,
          "name": "F#4",
          "ticks": 67500,
          "time": 35.5262625,
          "velocity": 1
        },
        {
          "duration": 0.2631574999999984,
          "durationTicks": 500,
          "midi": 75,
          "name": "D#5",
          "ticks": 68000,
          "time": 35.78942,
          "velocity": 1
        },
        {
          "duration": 0.2631574999999984,
          "durationTicks": 500,
          "midi": 67,
          "name": "G4",
          "ticks": 68500,
          "time": 36.0525775,
          "velocity": 1
        },
        {
          "duration": 0.2631574999999984,
          "durationTicks": 500,
          "midi": 70,
          "name": "A#4",
          "ticks": 69000,
          "time": 36.315735,
          "velocity": 1
        },
        {
          "duration": 0.2631575000000055,
          "durationTicks": 500,
          "midi": 75,
          "name": "D#5",
          "ticks": 69500,
          "time": 36.578892499999995,
          "velocity": 1
        },
        {
          "duration": 0.2631574999999984,
          "durationTicks": 500,
          "midi": 74,
          "name": "D5",
          "ticks": 70000,
          "time": 36.84205,
          "velocity": 1
        },
        {
          "duration": 0.2631574999999984,
          "durationTicks": 500,
          "midi": 66,
          "name": "F#4",
          "ticks": 70500,
          "time": 37.1052075,
          "velocity": 1
        },
        {
          "duration": 0.2631574999999984,
          "durationTicks": 500,
          "midi": 69,
          "name": "A4",
          "ticks": 71000,
          "time": 37.368365,
          "velocity": 1
        },
        {
          "duration": 0.2631575000000055,
          "durationTicks": 500,
          "midi": 74,
          "name": "D5",
          "ticks": 71500,
          "time": 37.631522499999996,
          "velocity": 1
        },
        {
          "duration": 0.2631574999999984,
          "durationTicks": 500,
          "midi": 70,
          "name": "A#4",
          "ticks": 72000,
          "time": 37.89468,
          "velocity": 1
        },
        {
          "duration": 0.2631574999999984,
          "durationTicks": 500,
          "midi": 62,
          "name": "D4",
          "ticks": 72500,
          "time": 38.1578375,
          "velocity": 1
        },
        {
          "duration": 0.2631574999999984,
          "durationTicks": 500,
          "midi": 67,
          "name": "G4",
          "ticks": 73000,
          "time": 38.420995,
          "velocity": 1
        },
        {
          "duration": 0.2631575000000055,
          "durationTicks": 500,
          "midi": 74,
          "name": "D5",
          "ticks": 73500,
          "time": 38.684152499999996,
          "velocity": 1
        },
        {
          "duration": 0.2631574999999984,
          "durationTicks": 500,
          "midi": 72,
          "name": "C5",
          "ticks": 74000,
          "time": 38.94731,
          "velocity": 1
        },
        {
          "duration": 0.2631574999999984,
          "durationTicks": 500,
          "midi": 65,
          "name": "F4",
          "ticks": 74500,
          "time": 39.2104675,
          "velocity": 1
        },
        {
          "duration": 0.2631574999999984,
          "durationTicks": 500,
          "midi": 69,
          "name": "A4",
          "ticks": 75000,
          "time": 39.473625,
          "velocity": 1
        },
        {
          "duration": 0.2631574999999984,
          "durationTicks": 500,
          "midi": 77,
          "name": "F5",
          "ticks": 75500,
          "time": 39.7367825,
          "velocity": 1
        },
        {
          "duration": 0.2631575000000055,
          "durationTicks": 500,
          "midi": 74,
          "name": "D5",
          "ticks": 76000,
          "time": 39.999939999999995,
          "velocity": 1
        },
        {
          "duration": 0.2631574999999984,
          "durationTicks": 500,
          "midi": 65,
          "name": "F4",
          "ticks": 76500,
          "time": 40.2630975,
          "velocity": 1
        },
        {
          "duration": 0.2631574999999984,
          "durationTicks": 500,
          "midi": 70,
          "name": "A#4",
          "ticks": 77000,
          "time": 40.526255,
          "velocity": 1
        },
        {
          "duration": 0.2631574999999984,
          "durationTicks": 500,
          "midi": 77,
          "name": "F5",
          "ticks": 77500,
          "time": 40.7894125,
          "velocity": 1
        },
        {
          "duration": 0.2631575000000055,
          "durationTicks": 500,
          "midi": 76,
          "name": "E5",
          "ticks": 78000,
          "time": 41.052569999999996,
          "velocity": 1
        },
        {
          "duration": 0.2631574999999984,
          "durationTicks": 500,
          "midi": 67,
          "name": "G4",
          "ticks": 78500,
          "time": 41.3157275,
          "velocity": 1
        },
        {
          "duration": 0.2631574999999984,
          "durationTicks": 500,
          "midi": 69,
          "name": "A4",
          "ticks": 79000,
          "time": 41.578885,
          "velocity": 1
        },
        {
          "duration": 0.2631574999999984,
          "durationTicks": 500,
          "midi": 76,
          "name": "E5",
          "ticks": 79500,
          "time": 41.8420425,
          "velocity": 1
        },
        {
          "duration": 0.2631574999999984,
          "durationTicks": 500,
          "midi": 74,
          "name": "D5",
          "ticks": 80000,
          "time": 42.105199999999996,
          "velocity": 1
        },
        {
          "duration": 0.2631575000000055,
          "durationTicks": 500,
          "midi": 66,
          "name": "F#4",
          "ticks": 80500,
          "time": 42.368357499999995,
          "velocity": 1
        },
        {
          "duration": 0.2631574999999984,
          "durationTicks": 500,
          "midi": 69,
          "name": "A4",
          "ticks": 81000,
          "time": 42.631515,
          "velocity": 1
        },
        {
          "duration": 0.2631574999999984,
          "durationTicks": 500,
          "midi": 74,
          "name": "D5",
          "ticks": 81500,
          "time": 42.8946725,
          "velocity": 1
        },
        {
          "duration": 0.2631574999999984,
          "durationTicks": 500,
          "midi": 75,
          "name": "D#5",
          "ticks": 82000,
          "time": 43.15783,
          "velocity": 1
        },
        {
          "duration": 0.2631575000000055,
          "durationTicks": 500,
          "midi": 67,
          "name": "G4",
          "ticks": 82500,
          "time": 43.420987499999995,
          "velocity": 1
        },
        {
          "duration": 0.2631574999999984,
          "durationTicks": 500,
          "midi": 70,
          "name": "A#4",
          "ticks": 83000,
          "time": 43.684145,
          "velocity": 1
        },
        {
          "duration": 0.2631574999999984,
          "durationTicks": 500,
          "midi": 75,
          "name": "D#5",
          "ticks": 83500,
          "time": 43.9473025,
          "velocity": 1
        },
        {
          "duration": 0.2631574999999984,
          "durationTicks": 500,
          "midi": 74,
          "name": "D5",
          "ticks": 84000,
          "time": 44.21046,
          "velocity": 1
        },
        {
          "duration": 0.2631574999999984,
          "durationTicks": 500,
          "midi": 70,
          "name": "A#4",
          "ticks": 84000,
          "time": 44.21046,
          "velocity": 1
        },
        {
          "duration": 0.2631574999999984,
          "durationTicks": 500,
          "midi": 65,
          "name": "F4",
          "ticks": 84000,
          "time": 44.21046,
          "velocity": 1
        },
        {
          "duration": 0.2631575000000055,
          "durationTicks": 500,
          "midi": 74,
          "name": "D5",
          "ticks": 84500,
          "time": 44.473617499999996,
          "velocity": 1
        },
        {
          "duration": 0.2631575000000055,
          "durationTicks": 500,
          "midi": 70,
          "name": "A#4",
          "ticks": 84500,
          "time": 44.473617499999996,
          "velocity": 1
        },
        {
          "duration": 0.2631575000000055,
          "durationTicks": 500,
          "midi": 65,
          "name": "F4",
          "ticks": 84500,
          "time": 44.473617499999996,
          "velocity": 1
        },
        {
          "duration": 0.2631574999999984,
          "durationTicks": 500,
          "midi": 74,
          "name": "D5",
          "ticks": 85000,
          "time": 44.736775,
          "velocity": 1
        },
        {
          "duration": 0.2631574999999984,
          "durationTicks": 500,
          "midi": 70,
          "name": "A#4",
          "ticks": 85000,
          "time": 44.736775,
          "velocity": 1
        },
        {
          "duration": 0.2631574999999984,
          "durationTicks": 500,
          "midi": 65,
          "name": "F4",
          "ticks": 85000,
          "time": 44.736775,
          "velocity": 1
        },
        {
          "duration": 0.2631574999999984,
          "durationTicks": 500,
          "midi": 74,
          "name": "D5",
          "ticks": 85500,
          "time": 44.9999325,
          "velocity": 1
        },
        {
          "duration": 0.2631574999999984,
          "durationTicks": 500,
          "midi": 70,
          "name": "A#4",
          "ticks": 85500,
          "time": 44.9999325,
          "velocity": 1
        },
        {
          "duration": 0.2631574999999984,
          "durationTicks": 500,
          "midi": 65,
          "name": "F4",
          "ticks": 85500,
          "time": 44.9999325,
          "velocity": 1
        },
        {
          "duration": 0.2631574999999984,
          "durationTicks": 500,
          "midi": 72,
          "name": "C5",
          "ticks": 86000,
          "time": 45.26309,
          "velocity": 1
        },
        {
          "duration": 0.2631574999999984,
          "durationTicks": 500,
          "midi": 69,
          "name": "A4",
          "ticks": 86000,
          "time": 45.26309,
          "velocity": 1
        },
        {
          "duration": 0.2631574999999984,
          "durationTicks": 500,
          "midi": 66,
          "name": "F#4",
          "ticks": 86000,
          "time": 45.26309,
          "velocity": 1
        },
        {
          "duration": 0.2631574999999984,
          "durationTicks": 500,
          "midi": 72,
          "name": "C5",
          "ticks": 86500,
          "time": 45.5262475,
          "velocity": 1
        },
        {
          "duration": 0.2631574999999984,
          "durationTicks": 500,
          "midi": 69,
          "name": "A4",
          "ticks": 86500,
          "time": 45.5262475,
          "velocity": 1
        },
        {
          "duration": 0.2631574999999984,
          "durationTicks": 500,
          "midi": 66,
          "name": "F#4",
          "ticks": 86500,
          "time": 45.5262475,
          "velocity": 1
        },
        {
          "duration": 0.2631575000000055,
          "durationTicks": 500,
          "midi": 72,
          "name": "C5",
          "ticks": 87000,
          "time": 45.789404999999995,
          "velocity": 1
        },
        {
          "duration": 0.2631575000000055,
          "durationTicks": 500,
          "midi": 69,
          "name": "A4",
          "ticks": 87000,
          "time": 45.789404999999995,
          "velocity": 1
        },
        {
          "duration": 0.2631575000000055,
          "durationTicks": 500,
          "midi": 66,
          "name": "F#4",
          "ticks": 87000,
          "time": 45.789404999999995,
          "velocity": 1
        },
        {
          "duration": 0.2631574999999984,
          "durationTicks": 500,
          "midi": 72,
          "name": "C5",
          "ticks": 87500,
          "time": 46.0525625,
          "velocity": 1
        },
        {
          "duration": 0.2631574999999984,
          "durationTicks": 500,
          "midi": 69,
          "name": "A4",
          "ticks": 87500,
          "time": 46.0525625,
          "velocity": 1
        },
        {
          "duration": 0.2631574999999984,
          "durationTicks": 500,
          "midi": 66,
          "name": "F#4",
          "ticks": 87500,
          "time": 46.0525625,
          "velocity": 1
        },
        {
          "duration": 0.2631574999999984,
          "durationTicks": 500,
          "midi": 67,
          "name": "G4",
          "ticks": 88000,
          "time": 46.31572,
          "velocity": 1
        },
        {
          "duration": 0.2631574999999984,
          "durationTicks": 500,
          "midi": 70,
          "name": "A#4",
          "ticks": 88000,
          "time": 46.31572,
          "velocity": 1
        },
        {
          "duration": 0.2631574999999984,
          "durationTicks": 500,
          "midi": 74,
          "name": "D5",
          "ticks": 88000,
          "time": 46.31572,
          "velocity": 1
        },
        {
          "duration": 0.2631574999999984,
          "durationTicks": 500,
          "midi": 67,
          "name": "G4",
          "ticks": 88500,
          "time": 46.5788775,
          "velocity": 1
        },
        {
          "duration": 0.2631574999999984,
          "durationTicks": 500,
          "midi": 70,
          "name": "A#4",
          "ticks": 88500,
          "time": 46.5788775,
          "velocity": 1
        },
        {
          "duration": 0.2631574999999984,
          "durationTicks": 500,
          "midi": 74,
          "name": "D5",
          "ticks": 88500,
          "time": 46.5788775,
          "velocity": 1
        },
        {
          "duration": 0.2631575000000055,
          "durationTicks": 500,
          "midi": 67,
          "name": "G4",
          "ticks": 89000,
          "time": 46.842034999999996,
          "velocity": 1
        },
        {
          "duration": 0.2631575000000055,
          "durationTicks": 500,
          "midi": 70,
          "name": "A#4",
          "ticks": 89000,
          "time": 46.842034999999996,
          "velocity": 1
        },
        {
          "duration": 0.2631575000000055,
          "durationTicks": 500,
          "midi": 74,
          "name": "D5",
          "ticks": 89000,
          "time": 46.842034999999996,
          "velocity": 1
        },
        {
          "duration": 0.2631574999999984,
          "durationTicks": 500,
          "midi": 67,
          "name": "G4",
          "ticks": 89500,
          "time": 47.1051925,
          "velocity": 1
        },
        {
          "duration": 0.2631574999999984,
          "durationTicks": 500,
          "midi": 70,
          "name": "A#4",
          "ticks": 89500,
          "time": 47.1051925,
          "velocity": 1
        },
        {
          "duration": 0.2631574999999984,
          "durationTicks": 500,
          "midi": 74,
          "name": "D5",
          "ticks": 89500,
          "time": 47.1051925,
          "velocity": 1
        },
        {
          "duration": 0.2631574999999984,
          "durationTicks": 500,
          "midi": 72,
          "name": "C5",
          "ticks": 90000,
          "time": 47.36835,
          "velocity": 1
        },
        {
          "duration": 0.2631574999999984,
          "durationTicks": 500,
          "midi": 69,
          "name": "A4",
          "ticks": 90000,
          "time": 47.36835,
          "velocity": 1
        },
        {
          "duration": 0.2631574999999984,
          "durationTicks": 500,
          "midi": 65,
          "name": "F4",
          "ticks": 90000,
          "time": 47.36835,
          "velocity": 1
        },
        {
          "duration": 0.2631574999999984,
          "durationTicks": 500,
          "midi": 72,
          "name": "C5",
          "ticks": 90500,
          "time": 47.6315075,
          "velocity": 1
        },
        {
          "duration": 0.2631574999999984,
          "durationTicks": 500,
          "midi": 69,
          "name": "A4",
          "ticks": 90500,
          "time": 47.6315075,
          "velocity": 1
        },
        {
          "duration": 0.2631574999999984,
          "durationTicks": 500,
          "midi": 65,
          "name": "F4",
          "ticks": 90500,
          "time": 47.6315075,
          "velocity": 1
        },
        {
          "duration": 0.2631574999999984,
          "durationTicks": 500,
          "midi": 72,
          "name": "C5",
          "ticks": 91000,
          "time": 47.894664999999996,
          "velocity": 1
        },
        {
          "duration": 0.2631574999999984,
          "durationTicks": 500,
          "midi": 69,
          "name": "A4",
          "ticks": 91000,
          "time": 47.894664999999996,
          "velocity": 1
        },
        {
          "duration": 0.2631574999999984,
          "durationTicks": 500,
          "midi": 65,
          "name": "F4",
          "ticks": 91000,
          "time": 47.894664999999996,
          "velocity": 1
        },
        {
          "duration": 0.2631575000000055,
          "durationTicks": 500,
          "midi": 72,
          "name": "C5",
          "ticks": 91500,
          "time": 48.157822499999995,
          "velocity": 1
        },
        {
          "duration": 0.2631575000000055,
          "durationTicks": 500,
          "midi": 69,
          "name": "A4",
          "ticks": 91500,
          "time": 48.157822499999995,
          "velocity": 1
        },
        {
          "duration": 0.2631575000000055,
          "durationTicks": 500,
          "midi": 65,
          "name": "F4",
          "ticks": 91500,
          "time": 48.157822499999995,
          "velocity": 1
        },
        {
          "duration": 0.2631574999999984,
          "durationTicks": 500,
          "midi": 74,
          "name": "D5",
          "ticks": 92000,
          "time": 48.42098,
          "velocity": 1
        },
        {
          "duration": 0.2631574999999984,
          "durationTicks": 500,
          "midi": 70,
          "name": "A#4",
          "ticks": 92000,
          "time": 48.42098,
          "velocity": 1
        },
        {
          "duration": 0.2631574999999984,
          "durationTicks": 500,
          "midi": 65,
          "name": "F4",
          "ticks": 92000,
          "time": 48.42098,
          "velocity": 1
        },
        {
          "duration": 0.2631574999999984,
          "durationTicks": 500,
          "midi": 74,
          "name": "D5",
          "ticks": 92500,
          "time": 48.6841375,
          "velocity": 1
        },
        {
          "duration": 0.2631574999999984,
          "durationTicks": 500,
          "midi": 70,
          "name": "A#4",
          "ticks": 92500,
          "time": 48.6841375,
          "velocity": 1
        },
        {
          "duration": 0.2631574999999984,
          "durationTicks": 500,
          "midi": 65,
          "name": "F4",
          "ticks": 92500,
          "time": 48.6841375,
          "velocity": 1
        },
        {
          "duration": 0.2631574999999984,
          "durationTicks": 500,
          "midi": 74,
          "name": "D5",
          "ticks": 93000,
          "time": 48.947295,
          "velocity": 1
        },
        {
          "duration": 0.2631574999999984,
          "durationTicks": 500,
          "midi": 70,
          "name": "A#4",
          "ticks": 93000,
          "time": 48.947295,
          "velocity": 1
        },
        {
          "duration": 0.2631574999999984,
          "durationTicks": 500,
          "midi": 65,
          "name": "F4",
          "ticks": 93000,
          "time": 48.947295,
          "velocity": 1
        },
        {
          "duration": 0.2631575000000055,
          "durationTicks": 500,
          "midi": 74,
          "name": "D5",
          "ticks": 93500,
          "time": 49.210452499999995,
          "velocity": 1
        },
        {
          "duration": 0.2631575000000055,
          "durationTicks": 500,
          "midi": 70,
          "name": "A#4",
          "ticks": 93500,
          "time": 49.210452499999995,
          "velocity": 1
        },
        {
          "duration": 0.2631575000000055,
          "durationTicks": 500,
          "midi": 65,
          "name": "F4",
          "ticks": 93500,
          "time": 49.210452499999995,
          "velocity": 1
        },
        {
          "duration": 0.2631574999999984,
          "durationTicks": 500,
          "midi": 72,
          "name": "C5",
          "ticks": 94000,
          "time": 49.47361,
          "velocity": 1
        },
        {
          "duration": 0.2631574999999984,
          "durationTicks": 500,
          "midi": 69,
          "name": "A4",
          "ticks": 94000,
          "time": 49.47361,
          "velocity": 1
        },
        {
          "duration": 0.2631574999999984,
          "durationTicks": 500,
          "midi": 66,
          "name": "F#4",
          "ticks": 94000,
          "time": 49.47361,
          "velocity": 1
        },
        {
          "duration": 0.2631574999999984,
          "durationTicks": 500,
          "midi": 72,
          "name": "C5",
          "ticks": 94500,
          "time": 49.7367675,
          "velocity": 1
        },
        {
          "duration": 0.2631574999999984,
          "durationTicks": 500,
          "midi": 69,
          "name": "A4",
          "ticks": 94500,
          "time": 49.7367675,
          "velocity": 1
        },
        {
          "duration": 0.2631574999999984,
          "durationTicks": 500,
          "midi": 66,
          "name": "F#4",
          "ticks": 94500,
          "time": 49.7367675,
          "velocity": 1
        },
        {
          "duration": 0.2631574999999984,
          "durationTicks": 500,
          "midi": 72,
          "name": "C5",
          "ticks": 95000,
          "time": 49.999925,
          "velocity": 1
        },
        {
          "duration": 0.2631574999999984,
          "durationTicks": 500,
          "midi": 69,
          "name": "A4",
          "ticks": 95000,
          "time": 49.999925,
          "velocity": 1
        },
        {
          "duration": 0.2631574999999984,
          "durationTicks": 500,
          "midi": 66,
          "name": "F#4",
          "ticks": 95000,
          "time": 49.999925,
          "velocity": 1
        },
        {
          "duration": 0.2631575000000055,
          "durationTicks": 500,
          "midi": 72,
          "name": "C5",
          "ticks": 95500,
          "time": 50.263082499999996,
          "velocity": 1
        },
        {
          "duration": 0.2631575000000055,
          "durationTicks": 500,
          "midi": 69,
          "name": "A4",
          "ticks": 95500,
          "time": 50.263082499999996,
          "velocity": 1
        },
        {
          "duration": 0.2631575000000055,
          "durationTicks": 500,
          "midi": 66,
          "name": "F#4",
          "ticks": 95500,
          "time": 50.263082499999996,
          "velocity": 1
        },
        {
          "duration": 0.2631574999999984,
          "durationTicks": 500,
          "midi": 67,
          "name": "G4",
          "ticks": 96000,
          "time": 50.52624,
          "velocity": 1
        },
        {
          "duration": 0.2631574999999984,
          "durationTicks": 500,
          "midi": 70,
          "name": "A#4",
          "ticks": 96000,
          "time": 50.52624,
          "velocity": 1
        },
        {
          "duration": 0.2631574999999984,
          "durationTicks": 500,
          "midi": 74,
          "name": "D5",
          "ticks": 96000,
          "time": 50.52624,
          "velocity": 1
        },
        {
          "duration": 0.2631574999999984,
          "durationTicks": 500,
          "midi": 67,
          "name": "G4",
          "ticks": 96500,
          "time": 50.7893975,
          "velocity": 1
        },
        {
          "duration": 0.2631574999999984,
          "durationTicks": 500,
          "midi": 70,
          "name": "A#4",
          "ticks": 96500,
          "time": 50.7893975,
          "velocity": 1
        },
        {
          "duration": 0.2631574999999984,
          "durationTicks": 500,
          "midi": 74,
          "name": "D5",
          "ticks": 96500,
          "time": 50.7893975,
          "velocity": 1
        },
        {
          "duration": 0.2631574999999984,
          "durationTicks": 500,
          "midi": 67,
          "name": "G4",
          "ticks": 97000,
          "time": 51.052555,
          "velocity": 1
        },
        {
          "duration": 0.2631574999999984,
          "durationTicks": 500,
          "midi": 70,
          "name": "A#4",
          "ticks": 97000,
          "time": 51.052555,
          "velocity": 1
        },
        {
          "duration": 0.2631574999999984,
          "durationTicks": 500,
          "midi": 74,
          "name": "D5",
          "ticks": 97000,
          "time": 51.052555,
          "velocity": 1
        },
        {
          "duration": 0.2631574999999984,
          "durationTicks": 500,
          "midi": 67,
          "name": "G4",
          "ticks": 97500,
          "time": 51.3157125,
          "velocity": 1
        },
        {
          "duration": 0.2631574999999984,
          "durationTicks": 500,
          "midi": 70,
          "name": "A#4",
          "ticks": 97500,
          "time": 51.3157125,
          "velocity": 1
        },
        {
          "duration": 0.2631574999999984,
          "durationTicks": 500,
          "midi": 74,
          "name": "D5",
          "ticks": 97500,
          "time": 51.3157125,
          "velocity": 1
        },
        {
          "duration": 0.2631575000000055,
          "durationTicks": 500,
          "midi": 72,
          "name": "C5",
          "ticks": 98000,
          "time": 51.578869999999995,
          "velocity": 1
        },
        {
          "duration": 0.2631575000000055,
          "durationTicks": 500,
          "midi": 69,
          "name": "A4",
          "ticks": 98000,
          "time": 51.578869999999995,
          "velocity": 1
        },
        {
          "duration": 0.2631575000000055,
          "durationTicks": 500,
          "midi": 65,
          "name": "F4",
          "ticks": 98000,
          "time": 51.578869999999995,
          "velocity": 1
        },
        {
          "duration": 0.2631574999999984,
          "durationTicks": 500,
          "midi": 72,
          "name": "C5",
          "ticks": 98500,
          "time": 51.8420275,
          "velocity": 1
        },
        {
          "duration": 0.2631574999999984,
          "durationTicks": 500,
          "midi": 69,
          "name": "A4",
          "ticks": 98500,
          "time": 51.8420275,
          "velocity": 1
        },
        {
          "duration": 0.2631574999999984,
          "durationTicks": 500,
          "midi": 65,
          "name": "F4",
          "ticks": 98500,
          "time": 51.8420275,
          "velocity": 1
        },
        {
          "duration": 0.2631574999999984,
          "durationTicks": 500,
          "midi": 72,
          "name": "C5",
          "ticks": 99000,
          "time": 52.105185,
          "velocity": 1
        },
        {
          "duration": 0.2631574999999984,
          "durationTicks": 500,
          "midi": 69,
          "name": "A4",
          "ticks": 99000,
          "time": 52.105185,
          "velocity": 1
        },
        {
          "duration": 0.2631574999999984,
          "durationTicks": 500,
          "midi": 65,
          "name": "F4",
          "ticks": 99000,
          "time": 52.105185,
          "velocity": 1
        },
        {
          "duration": 0.2631574999999984,
          "durationTicks": 500,
          "midi": 72,
          "name": "C5",
          "ticks": 99500,
          "time": 52.3683425,
          "velocity": 1
        },
        {
          "duration": 0.2631574999999984,
          "durationTicks": 500,
          "midi": 69,
          "name": "A4",
          "ticks": 99500,
          "time": 52.3683425,
          "velocity": 1
        },
        {
          "duration": 0.2631574999999984,
          "durationTicks": 500,
          "midi": 65,
          "name": "F4",
          "ticks": 99500,
          "time": 52.3683425,
          "velocity": 1
        },
        {
          "duration": 0.2631575000000055,
          "durationTicks": 500,
          "midi": 74,
          "name": "D5",
          "ticks": 100000,
          "time": 52.631499999999996,
          "velocity": 1
        },
        {
          "duration": 0.2631575000000055,
          "durationTicks": 500,
          "midi": 70,
          "name": "A#4",
          "ticks": 100000,
          "time": 52.631499999999996,
          "velocity": 1
        },
        {
          "duration": 0.2631575000000055,
          "durationTicks": 500,
          "midi": 65,
          "name": "F4",
          "ticks": 100000,
          "time": 52.631499999999996,
          "velocity": 1
        },
        {
          "duration": 0.2631574999999984,
          "durationTicks": 500,
          "midi": 74,
          "name": "D5",
          "ticks": 100500,
          "time": 52.8946575,
          "velocity": 1
        },
        {
          "duration": 0.2631574999999984,
          "durationTicks": 500,
          "midi": 70,
          "name": "A#4",
          "ticks": 100500,
          "time": 52.8946575,
          "velocity": 1
        },
        {
          "duration": 0.2631574999999984,
          "durationTicks": 500,
          "midi": 65,
          "name": "F4",
          "ticks": 100500,
          "time": 52.8946575,
          "velocity": 1
        },
        {
          "duration": 0.2631574999999984,
          "durationTicks": 500,
          "midi": 74,
          "name": "D5",
          "ticks": 101000,
          "time": 53.157815,
          "velocity": 1
        },
        {
          "duration": 0.2631574999999984,
          "durationTicks": 500,
          "midi": 70,
          "name": "A#4",
          "ticks": 101000,
          "time": 53.157815,
          "velocity": 1
        },
        {
          "duration": 0.2631574999999984,
          "durationTicks": 500,
          "midi": 65,
          "name": "F4",
          "ticks": 101000,
          "time": 53.157815,
          "velocity": 1
        },
        {
          "duration": 0.2631574999999984,
          "durationTicks": 500,
          "midi": 74,
          "name": "D5",
          "ticks": 101500,
          "time": 53.4209725,
          "velocity": 1
        },
        {
          "duration": 0.2631574999999984,
          "durationTicks": 500,
          "midi": 70,
          "name": "A#4",
          "ticks": 101500,
          "time": 53.4209725,
          "velocity": 1
        },
        {
          "duration": 0.2631574999999984,
          "durationTicks": 500,
          "midi": 65,
          "name": "F4",
          "ticks": 101500,
          "time": 53.4209725,
          "velocity": 1
        },
        {
          "duration": 0.2631574999999984,
          "durationTicks": 500,
          "midi": 72,
          "name": "C5",
          "ticks": 102000,
          "time": 53.684129999999996,
          "velocity": 1
        },
        {
          "duration": 0.2631574999999984,
          "durationTicks": 500,
          "midi": 69,
          "name": "A4",
          "ticks": 102000,
          "time": 53.684129999999996,
          "velocity": 1
        },
        {
          "duration": 0.2631574999999984,
          "durationTicks": 500,
          "midi": 66,
          "name": "F#4",
          "ticks": 102000,
          "time": 53.684129999999996,
          "velocity": 1
        },
        {
          "duration": 0.2631575000000055,
          "durationTicks": 500,
          "midi": 72,
          "name": "C5",
          "ticks": 102500,
          "time": 53.947287499999995,
          "velocity": 1
        },
        {
          "duration": 0.2631575000000055,
          "durationTicks": 500,
          "midi": 69,
          "name": "A4",
          "ticks": 102500,
          "time": 53.947287499999995,
          "velocity": 1
        },
        {
          "duration": 0.2631575000000055,
          "durationTicks": 500,
          "midi": 66,
          "name": "F#4",
          "ticks": 102500,
          "time": 53.947287499999995,
          "velocity": 1
        },
        {
          "duration": 0.2631574999999984,
          "durationTicks": 500,
          "midi": 72,
          "name": "C5",
          "ticks": 103000,
          "time": 54.210445,
          "velocity": 1
        },
        {
          "duration": 0.2631574999999984,
          "durationTicks": 500,
          "midi": 69,
          "name": "A4",
          "ticks": 103000,
          "time": 54.210445,
          "velocity": 1
        },
        {
          "duration": 0.2631574999999984,
          "durationTicks": 500,
          "midi": 66,
          "name": "F#4",
          "ticks": 103000,
          "time": 54.210445,
          "velocity": 1
        },
        {
          "duration": 0.2631574999999984,
          "durationTicks": 500,
          "midi": 72,
          "name": "C5",
          "ticks": 103500,
          "time": 54.4736025,
          "velocity": 1
        },
        {
          "duration": 0.2631574999999984,
          "durationTicks": 500,
          "midi": 69,
          "name": "A4",
          "ticks": 103500,
          "time": 54.4736025,
          "velocity": 1
        },
        {
          "duration": 0.2631574999999984,
          "durationTicks": 500,
          "midi": 66,
          "name": "F#4",
          "ticks": 103500,
          "time": 54.4736025,
          "velocity": 1
        },
        {
          "duration": 0.2631574999999984,
          "durationTicks": 500,
          "midi": 76,
          "name": "E5",
          "ticks": 104000,
          "time": 54.73676,
          "velocity": 1
        },
        {
          "duration": 0.2631574999999984,
          "durationTicks": 500,
          "midi": 71,
          "name": "B4",
          "ticks": 104000,
          "time": 54.73676,
          "velocity": 1
        },
        {
          "duration": 0.2631574999999984,
          "durationTicks": 500,
          "midi": 67,
          "name": "G4",
          "ticks": 104000,
          "time": 54.73676,
          "velocity": 1
        },
        {
          "duration": 0.2631575000000055,
          "durationTicks": 500,
          "midi": 76,
          "name": "E5",
          "ticks": 104500,
          "time": 54.999917499999995,
          "velocity": 1
        },
        {
          "duration": 0.2631575000000055,
          "durationTicks": 500,
          "midi": 71,
          "name": "B4",
          "ticks": 104500,
          "time": 54.999917499999995,
          "velocity": 1
        },
        {
          "duration": 0.2631575000000055,
          "durationTicks": 500,
          "midi": 67,
          "name": "G4",
          "ticks": 104500,
          "time": 54.999917499999995,
          "velocity": 1
        },
        {
          "duration": 0.2631574999999984,
          "durationTicks": 500,
          "midi": 76,
          "name": "E5",
          "ticks": 105000,
          "time": 55.263075,
          "velocity": 1
        },
        {
          "duration": 0.2631574999999984,
          "durationTicks": 500,
          "midi": 71,
          "name": "B4",
          "ticks": 105000,
          "time": 55.263075,
          "velocity": 1
        },
        {
          "duration": 0.2631574999999984,
          "durationTicks": 500,
          "midi": 67,
          "name": "G4",
          "ticks": 105000,
          "time": 55.263075,
          "velocity": 1
        },
        {
          "duration": 0.2631574999999984,
          "durationTicks": 500,
          "midi": 76,
          "name": "E5",
          "ticks": 105500,
          "time": 55.5262325,
          "velocity": 1
        },
        {
          "duration": 0.2631574999999984,
          "durationTicks": 500,
          "midi": 71,
          "name": "B4",
          "ticks": 105500,
          "time": 55.5262325,
          "velocity": 1
        },
        {
          "duration": 0.2631574999999984,
          "durationTicks": 500,
          "midi": 67,
          "name": "G4",
          "ticks": 105500,
          "time": 55.5262325,
          "velocity": 1
        },
        {
          "duration": 0.2631574999999984,
          "durationTicks": 500,
          "midi": 75,
          "name": "D#5",
          "ticks": 106000,
          "time": 55.78939,
          "velocity": 1
        },
        {
          "duration": 0.2631574999999984,
          "durationTicks": 500,
          "midi": 70,
          "name": "A#4",
          "ticks": 106000,
          "time": 55.78939,
          "velocity": 1
        },
        {
          "duration": 0.2631574999999984,
          "durationTicks": 500,
          "midi": 67,
          "name": "G4",
          "ticks": 106000,
          "time": 55.78939,
          "velocity": 1
        },
        {
          "duration": 0.2631574999999984,
          "durationTicks": 500,
          "midi": 75,
          "name": "D#5",
          "ticks": 106500,
          "time": 56.052547499999996,
          "velocity": 1
        },
        {
          "duration": 0.2631574999999984,
          "durationTicks": 500,
          "midi": 70,
          "name": "A#4",
          "ticks": 106500,
          "time": 56.052547499999996,
          "velocity": 1
        },
        {
          "duration": 0.2631574999999984,
          "durationTicks": 500,
          "midi": 67,
          "name": "G4",
          "ticks": 106500,
          "time": 56.052547499999996,
          "velocity": 1
        },
        {
          "duration": 0.2631575000000055,
          "durationTicks": 500,
          "midi": 75,
          "name": "D#5",
          "ticks": 107000,
          "time": 56.315704999999994,
          "velocity": 1
        },
        {
          "duration": 0.2631575000000055,
          "durationTicks": 500,
          "midi": 70,
          "name": "A#4",
          "ticks": 107000,
          "time": 56.315704999999994,
          "velocity": 1
        },
        {
          "duration": 0.2631575000000055,
          "durationTicks": 500,
          "midi": 67,
          "name": "G4",
          "ticks": 107000,
          "time": 56.315704999999994,
          "velocity": 1
        },
        {
          "duration": 0.2631574999999984,
          "durationTicks": 500,
          "midi": 75,
          "name": "D#5",
          "ticks": 107500,
          "time": 56.5788625,
          "velocity": 1
        },
        {
          "duration": 0.2631574999999984,
          "durationTicks": 500,
          "midi": 70,
          "name": "A#4",
          "ticks": 107500,
          "time": 56.5788625,
          "velocity": 1
        },
        {
          "duration": 0.2631574999999984,
          "durationTicks": 500,
          "midi": 67,
          "name": "G4",
          "ticks": 107500,
          "time": 56.5788625,
          "velocity": 1
        },
        {
          "duration": 0.13157875000000274,
          "durationTicks": 250,
          "midi": 75,
          "name": "D#5",
          "ticks": 108000,
          "time": 56.84202,
          "velocity": 1
        },
        {
          "duration": 0.13157874999999564,
          "durationTicks": 250,
          "midi": 70,
          "name": "A#4",
          "ticks": 108250,
          "time": 56.97359875,
          "velocity": 1
        },
        {
          "duration": 0.13157875000000274,
          "durationTicks": 250,
          "midi": 67,
          "name": "G4",
          "ticks": 108500,
          "time": 57.105177499999996,
          "velocity": 1
        },
        {
          "duration": 0.13157874999999564,
          "durationTicks": 250,
          "midi": 70,
          "name": "A#4",
          "ticks": 108750,
          "time": 57.23675625,
          "velocity": 1
        },
        {
          "duration": 0.13157875000000274,
          "durationTicks": 250,
          "midi": 75,
          "name": "D#5",
          "ticks": 109000,
          "time": 57.368334999999995,
          "velocity": 1
        },
        {
          "duration": 0.13157875000000274,
          "durationTicks": 250,
          "midi": 70,
          "name": "A#4",
          "ticks": 109250,
          "time": 57.49991375,
          "velocity": 1
        },
        {
          "duration": 0.13157874999999564,
          "durationTicks": 250,
          "midi": 67,
          "name": "G4",
          "ticks": 109500,
          "time": 57.6314925,
          "velocity": 1
        },
        {
          "duration": 0.13157875000000274,
          "durationTicks": 250,
          "midi": 70,
          "name": "A#4",
          "ticks": 109750,
          "time": 57.763071249999996,
          "velocity": 1
        },
        {
          "duration": 0.13157874999999564,
          "durationTicks": 250,
          "midi": 74,
          "name": "D5",
          "ticks": 110000,
          "time": 57.89465,
          "velocity": 1
        },
        {
          "duration": 0.13157875000000274,
          "durationTicks": 250,
          "midi": 69,
          "name": "A4",
          "ticks": 110250,
          "time": 58.026228749999994,
          "velocity": 1
        },
        {
          "duration": 0.13157875000000274,
          "durationTicks": 250,
          "midi": 66,
          "name": "F#4",
          "ticks": 110500,
          "time": 58.1578075,
          "velocity": 1
        },
        {
          "duration": 0.13157874999999564,
          "durationTicks": 250,
          "midi": 69,
          "name": "A4",
          "ticks": 110750,
          "time": 58.28938625,
          "velocity": 1
        },
        {
          "duration": 0.13157875000000274,
          "durationTicks": 250,
          "midi": 74,
          "name": "D5",
          "ticks": 111000,
          "time": 58.420964999999995,
          "velocity": 1
        },
        {
          "duration": 0.13157875000000274,
          "durationTicks": 250,
          "midi": 69,
          "name": "A4",
          "ticks": 111250,
          "time": 58.55254375,
          "velocity": 1
        },
        {
          "duration": 0.13157874999999564,
          "durationTicks": 250,
          "midi": 66,
          "name": "F#4",
          "ticks": 111500,
          "time": 58.6841225,
          "velocity": 1
        },
        {
          "duration": 0.13157875000000274,
          "durationTicks": 250,
          "midi": 69,
          "name": "A4",
          "ticks": 111750,
          "time": 58.81570125,
          "velocity": 1
        },
        {
          "duration": 0.13157874999999564,
          "durationTicks": 250,
          "midi": 72,
          "name": "C5",
          "ticks": 112000,
          "time": 58.94728,
          "velocity": 1
        },
        {
          "duration": 0.13157875000000274,
          "durationTicks": 250,
          "midi": 67,
          "name": "G4",
          "ticks": 112250,
          "time": 59.078858749999995,
          "velocity": 1
        },
        {
          "duration": 0.13157875000000274,
          "durationTicks": 250,
          "midi": 63,
          "name": "D#4",
          "ticks": 112500,
          "time": 59.2104375,
          "velocity": 1
        },
        {
          "duration": 0.13157874999999564,
          "durationTicks": 250,
          "midi": 67,
          "name": "G4",
          "ticks": 112750,
          "time": 59.34201625,
          "velocity": 1
        },
        {
          "duration": 0.13157875000000274,
          "durationTicks": 250,
          "midi": 72,
          "name": "C5",
          "ticks": 113000,
          "time": 59.473594999999996,
          "velocity": 1
        },
        {
          "duration": 0.13157874999999564,
          "durationTicks": 250,
          "midi": 67,
          "name": "G4",
          "ticks": 113250,
          "time": 59.60517375,
          "velocity": 1
        },
        {
          "duration": 0.13157875000000274,
          "durationTicks": 250,
          "midi": 63,
          "name": "D#4",
          "ticks": 113500,
          "time": 59.736752499999994,
          "velocity": 1
        },
        {
          "duration": 0.13157875000000274,
          "durationTicks": 250,
          "midi": 67,
          "name": "G4",
          "ticks": 113750,
          "time": 59.86833125,
          "velocity": 1
        },
        {
          "duration": 0.5263149999999968,
          "durationTicks": 1000,
          "midi": 72,
          "name": "C5",
          "ticks": 114000,
          "time": 59.99991,
          "velocity": 1
        },
        {
          "duration": 0.5263149999999968,
          "durationTicks": 1000,
          "midi": 69,
          "name": "A4",
          "ticks": 114000,
          "time": 59.99991,
          "velocity": 1
        },
        {
          "duration": 0.5263149999999968,
          "durationTicks": 1000,
          "midi": 65,
          "name": "F4",
          "ticks": 114000,
          "time": 59.99991,
          "velocity": 1
        },
        {
          "duration": 0.2631575000000055,
          "durationTicks": 500,
          "midi": 74,
          "name": "D5",
          "ticks": 196000,
          "time": 103.15773999999999,
          "velocity": 1
        },
        {
          "duration": 0.2631575000000055,
          "durationTicks": 500,
          "midi": 70,
          "name": "A#4",
          "ticks": 196000,
          "time": 103.15773999999999,
          "velocity": 1
        },
        {
          "duration": 0.2631575000000055,
          "durationTicks": 500,
          "midi": 65,
          "name": "F4",
          "ticks": 196000,
          "time": 103.15773999999999,
          "velocity": 1
        },
        {
          "duration": 0.2631575000000055,
          "durationTicks": 500,
          "midi": 74,
          "name": "D5",
          "ticks": 196500,
          "time": 103.4208975,
          "velocity": 1
        },
        {
          "duration": 0.2631575000000055,
          "durationTicks": 500,
          "midi": 70,
          "name": "A#4",
          "ticks": 196500,
          "time": 103.4208975,
          "velocity": 1
        },
        {
          "duration": 0.2631575000000055,
          "durationTicks": 500,
          "midi": 65,
          "name": "F4",
          "ticks": 196500,
          "time": 103.4208975,
          "velocity": 1
        },
        {
          "duration": 0.2631574999999913,
          "durationTicks": 500,
          "midi": 74,
          "name": "D5",
          "ticks": 197000,
          "time": 103.684055,
          "velocity": 1
        },
        {
          "duration": 0.2631574999999913,
          "durationTicks": 500,
          "midi": 70,
          "name": "A#4",
          "ticks": 197000,
          "time": 103.684055,
          "velocity": 1
        },
        {
          "duration": 0.2631574999999913,
          "durationTicks": 500,
          "midi": 65,
          "name": "F4",
          "ticks": 197000,
          "time": 103.684055,
          "velocity": 1
        },
        {
          "duration": 0.2631575000000055,
          "durationTicks": 500,
          "midi": 74,
          "name": "D5",
          "ticks": 197500,
          "time": 103.94721249999999,
          "velocity": 1
        },
        {
          "duration": 0.2631575000000055,
          "durationTicks": 500,
          "midi": 70,
          "name": "A#4",
          "ticks": 197500,
          "time": 103.94721249999999,
          "velocity": 1
        },
        {
          "duration": 0.2631575000000055,
          "durationTicks": 500,
          "midi": 65,
          "name": "F4",
          "ticks": 197500,
          "time": 103.94721249999999,
          "velocity": 1
        },
        {
          "duration": 0.2631574999999913,
          "durationTicks": 500,
          "midi": 72,
          "name": "C5",
          "ticks": 198000,
          "time": 104.21037,
          "velocity": 1
        },
        {
          "duration": 0.2631574999999913,
          "durationTicks": 500,
          "midi": 69,
          "name": "A4",
          "ticks": 198000,
          "time": 104.21037,
          "velocity": 1
        },
        {
          "duration": 0.2631574999999913,
          "durationTicks": 500,
          "midi": 66,
          "name": "F#4",
          "ticks": 198000,
          "time": 104.21037,
          "velocity": 1
        },
        {
          "duration": 0.2631575000000055,
          "durationTicks": 500,
          "midi": 72,
          "name": "C5",
          "ticks": 198500,
          "time": 104.47352749999999,
          "velocity": 1
        },
        {
          "duration": 0.2631575000000055,
          "durationTicks": 500,
          "midi": 69,
          "name": "A4",
          "ticks": 198500,
          "time": 104.47352749999999,
          "velocity": 1
        },
        {
          "duration": 0.2631575000000055,
          "durationTicks": 500,
          "midi": 66,
          "name": "F#4",
          "ticks": 198500,
          "time": 104.47352749999999,
          "velocity": 1
        },
        {
          "duration": 0.2631575000000055,
          "durationTicks": 500,
          "midi": 72,
          "name": "C5",
          "ticks": 199000,
          "time": 104.736685,
          "velocity": 1
        },
        {
          "duration": 0.2631575000000055,
          "durationTicks": 500,
          "midi": 69,
          "name": "A4",
          "ticks": 199000,
          "time": 104.736685,
          "velocity": 1
        },
        {
          "duration": 0.2631575000000055,
          "durationTicks": 500,
          "midi": 66,
          "name": "F#4",
          "ticks": 199000,
          "time": 104.736685,
          "velocity": 1
        },
        {
          "duration": 0.2631574999999913,
          "durationTicks": 500,
          "midi": 72,
          "name": "C5",
          "ticks": 199500,
          "time": 104.9998425,
          "velocity": 1
        },
        {
          "duration": 0.2631574999999913,
          "durationTicks": 500,
          "midi": 69,
          "name": "A4",
          "ticks": 199500,
          "time": 104.9998425,
          "velocity": 1
        },
        {
          "duration": 0.2631574999999913,
          "durationTicks": 500,
          "midi": 66,
          "name": "F#4",
          "ticks": 199500,
          "time": 104.9998425,
          "velocity": 1
        },
        {
          "duration": 0.2631575000000055,
          "durationTicks": 500,
          "midi": 67,
          "name": "G4",
          "ticks": 200000,
          "time": 105.26299999999999,
          "velocity": 1
        },
        {
          "duration": 0.2631575000000055,
          "durationTicks": 500,
          "midi": 70,
          "name": "A#4",
          "ticks": 200000,
          "time": 105.26299999999999,
          "velocity": 1
        },
        {
          "duration": 0.2631575000000055,
          "durationTicks": 500,
          "midi": 74,
          "name": "D5",
          "ticks": 200000,
          "time": 105.26299999999999,
          "velocity": 1
        },
        {
          "duration": 0.2631575000000055,
          "durationTicks": 500,
          "midi": 67,
          "name": "G4",
          "ticks": 200500,
          "time": 105.5261575,
          "velocity": 1
        },
        {
          "duration": 0.2631575000000055,
          "durationTicks": 500,
          "midi": 70,
          "name": "A#4",
          "ticks": 200500,
          "time": 105.5261575,
          "velocity": 1
        },
        {
          "duration": 0.2631575000000055,
          "durationTicks": 500,
          "midi": 74,
          "name": "D5",
          "ticks": 200500,
          "time": 105.5261575,
          "velocity": 1
        },
        {
          "duration": 0.2631574999999913,
          "durationTicks": 500,
          "midi": 67,
          "name": "G4",
          "ticks": 201000,
          "time": 105.789315,
          "velocity": 1
        },
        {
          "duration": 0.2631574999999913,
          "durationTicks": 500,
          "midi": 70,
          "name": "A#4",
          "ticks": 201000,
          "time": 105.789315,
          "velocity": 1
        },
        {
          "duration": 0.2631574999999913,
          "durationTicks": 500,
          "midi": 74,
          "name": "D5",
          "ticks": 201000,
          "time": 105.789315,
          "velocity": 1
        },
        {
          "duration": 0.2631575000000055,
          "durationTicks": 500,
          "midi": 67,
          "name": "G4",
          "ticks": 201500,
          "time": 106.0524725,
          "velocity": 1
        },
        {
          "duration": 0.2631575000000055,
          "durationTicks": 500,
          "midi": 70,
          "name": "A#4",
          "ticks": 201500,
          "time": 106.0524725,
          "velocity": 1
        },
        {
          "duration": 0.2631575000000055,
          "durationTicks": 500,
          "midi": 74,
          "name": "D5",
          "ticks": 201500,
          "time": 106.0524725,
          "velocity": 1
        },
        {
          "duration": 0.2631574999999913,
          "durationTicks": 500,
          "midi": 72,
          "name": "C5",
          "ticks": 202000,
          "time": 106.31563,
          "velocity": 1
        },
        {
          "duration": 0.2631574999999913,
          "durationTicks": 500,
          "midi": 69,
          "name": "A4",
          "ticks": 202000,
          "time": 106.31563,
          "velocity": 1
        },
        {
          "duration": 0.2631574999999913,
          "durationTicks": 500,
          "midi": 65,
          "name": "F4",
          "ticks": 202000,
          "time": 106.31563,
          "velocity": 1
        },
        {
          "duration": 0.2631575000000055,
          "durationTicks": 500,
          "midi": 72,
          "name": "C5",
          "ticks": 202500,
          "time": 106.57878749999999,
          "velocity": 1
        },
        {
          "duration": 0.2631575000000055,
          "durationTicks": 500,
          "midi": 69,
          "name": "A4",
          "ticks": 202500,
          "time": 106.57878749999999,
          "velocity": 1
        },
        {
          "duration": 0.2631575000000055,
          "durationTicks": 500,
          "midi": 65,
          "name": "F4",
          "ticks": 202500,
          "time": 106.57878749999999,
          "velocity": 1
        },
        {
          "duration": 0.2631575000000055,
          "durationTicks": 500,
          "midi": 72,
          "name": "C5",
          "ticks": 203000,
          "time": 106.841945,
          "velocity": 1
        },
        {
          "duration": 0.2631575000000055,
          "durationTicks": 500,
          "midi": 69,
          "name": "A4",
          "ticks": 203000,
          "time": 106.841945,
          "velocity": 1
        },
        {
          "duration": 0.2631575000000055,
          "durationTicks": 500,
          "midi": 65,
          "name": "F4",
          "ticks": 203000,
          "time": 106.841945,
          "velocity": 1
        },
        {
          "duration": 0.2631574999999913,
          "durationTicks": 500,
          "midi": 72,
          "name": "C5",
          "ticks": 203500,
          "time": 107.1051025,
          "velocity": 1
        },
        {
          "duration": 0.2631574999999913,
          "durationTicks": 500,
          "midi": 69,
          "name": "A4",
          "ticks": 203500,
          "time": 107.1051025,
          "velocity": 1
        },
        {
          "duration": 0.2631574999999913,
          "durationTicks": 500,
          "midi": 65,
          "name": "F4",
          "ticks": 203500,
          "time": 107.1051025,
          "velocity": 1
        },
        {
          "duration": 0.2631575000000055,
          "durationTicks": 500,
          "midi": 74,
          "name": "D5",
          "ticks": 204000,
          "time": 107.36825999999999,
          "velocity": 1
        },
        {
          "duration": 0.2631575000000055,
          "durationTicks": 500,
          "midi": 70,
          "name": "A#4",
          "ticks": 204000,
          "time": 107.36825999999999,
          "velocity": 1
        },
        {
          "duration": 0.2631575000000055,
          "durationTicks": 500,
          "midi": 65,
          "name": "F4",
          "ticks": 204000,
          "time": 107.36825999999999,
          "velocity": 1
        },
        {
          "duration": 0.2631574999999913,
          "durationTicks": 500,
          "midi": 74,
          "name": "D5",
          "ticks": 204500,
          "time": 107.6314175,
          "velocity": 1
        },
        {
          "duration": 0.2631574999999913,
          "durationTicks": 500,
          "midi": 70,
          "name": "A#4",
          "ticks": 204500,
          "time": 107.6314175,
          "velocity": 1
        },
        {
          "duration": 0.2631574999999913,
          "durationTicks": 500,
          "midi": 65,
          "name": "F4",
          "ticks": 204500,
          "time": 107.6314175,
          "velocity": 1
        },
        {
          "duration": 0.2631575000000055,
          "durationTicks": 500,
          "midi": 74,
          "name": "D5",
          "ticks": 205000,
          "time": 107.89457499999999,
          "velocity": 1
        },
        {
          "duration": 0.2631575000000055,
          "durationTicks": 500,
          "midi": 70,
          "name": "A#4",
          "ticks": 205000,
          "time": 107.89457499999999,
          "velocity": 1
        },
        {
          "duration": 0.2631575000000055,
          "durationTicks": 500,
          "midi": 65,
          "name": "F4",
          "ticks": 205000,
          "time": 107.89457499999999,
          "velocity": 1
        },
        {
          "duration": 0.2631575000000055,
          "durationTicks": 500,
          "midi": 74,
          "name": "D5",
          "ticks": 205500,
          "time": 108.1577325,
          "velocity": 1
        },
        {
          "duration": 0.2631575000000055,
          "durationTicks": 500,
          "midi": 70,
          "name": "A#4",
          "ticks": 205500,
          "time": 108.1577325,
          "velocity": 1
        },
        {
          "duration": 0.2631575000000055,
          "durationTicks": 500,
          "midi": 65,
          "name": "F4",
          "ticks": 205500,
          "time": 108.1577325,
          "velocity": 1
        },
        {
          "duration": 0.2631574999999913,
          "durationTicks": 500,
          "midi": 72,
          "name": "C5",
          "ticks": 206000,
          "time": 108.42089,
          "velocity": 1
        },
        {
          "duration": 0.2631574999999913,
          "durationTicks": 500,
          "midi": 69,
          "name": "A4",
          "ticks": 206000,
          "time": 108.42089,
          "velocity": 1
        },
        {
          "duration": 0.2631574999999913,
          "durationTicks": 500,
          "midi": 66,
          "name": "F#4",
          "ticks": 206000,
          "time": 108.42089,
          "velocity": 1
        },
        {
          "duration": 0.2631575000000055,
          "durationTicks": 500,
          "midi": 72,
          "name": "C5",
          "ticks": 206500,
          "time": 108.68404749999999,
          "velocity": 1
        },
        {
          "duration": 0.2631575000000055,
          "durationTicks": 500,
          "midi": 69,
          "name": "A4",
          "ticks": 206500,
          "time": 108.68404749999999,
          "velocity": 1
        },
        {
          "duration": 0.2631575000000055,
          "durationTicks": 500,
          "midi": 66,
          "name": "F#4",
          "ticks": 206500,
          "time": 108.68404749999999,
          "velocity": 1
        },
        {
          "duration": 0.2631575000000055,
          "durationTicks": 500,
          "midi": 72,
          "name": "C5",
          "ticks": 207000,
          "time": 108.947205,
          "velocity": 1
        },
        {
          "duration": 0.2631575000000055,
          "durationTicks": 500,
          "midi": 69,
          "name": "A4",
          "ticks": 207000,
          "time": 108.947205,
          "velocity": 1
        },
        {
          "duration": 0.2631575000000055,
          "durationTicks": 500,
          "midi": 66,
          "name": "F#4",
          "ticks": 207000,
          "time": 108.947205,
          "velocity": 1
        },
        {
          "duration": 0.2631574999999913,
          "durationTicks": 500,
          "midi": 72,
          "name": "C5",
          "ticks": 207500,
          "time": 109.2103625,
          "velocity": 1
        },
        {
          "duration": 0.2631574999999913,
          "durationTicks": 500,
          "midi": 69,
          "name": "A4",
          "ticks": 207500,
          "time": 109.2103625,
          "velocity": 1
        },
        {
          "duration": 0.2631574999999913,
          "durationTicks": 500,
          "midi": 66,
          "name": "F#4",
          "ticks": 207500,
          "time": 109.2103625,
          "velocity": 1
        },
        {
          "duration": 0.2631575000000055,
          "durationTicks": 500,
          "midi": 67,
          "name": "G4",
          "ticks": 208000,
          "time": 109.47352,
          "velocity": 1
        },
        {
          "duration": 0.2631575000000055,
          "durationTicks": 500,
          "midi": 70,
          "name": "A#4",
          "ticks": 208000,
          "time": 109.47352,
          "velocity": 1
        },
        {
          "duration": 0.2631575000000055,
          "durationTicks": 500,
          "midi": 74,
          "name": "D5",
          "ticks": 208000,
          "time": 109.47352,
          "velocity": 1
        },
        {
          "duration": 0.2631574999999913,
          "durationTicks": 500,
          "midi": 67,
          "name": "G4",
          "ticks": 208500,
          "time": 109.7366775,
          "velocity": 1
        },
        {
          "duration": 0.2631574999999913,
          "durationTicks": 500,
          "midi": 70,
          "name": "A#4",
          "ticks": 208500,
          "time": 109.7366775,
          "velocity": 1
        },
        {
          "duration": 0.2631574999999913,
          "durationTicks": 500,
          "midi": 74,
          "name": "D5",
          "ticks": 208500,
          "time": 109.7366775,
          "velocity": 1
        },
        {
          "duration": 0.2631575000000055,
          "durationTicks": 500,
          "midi": 67,
          "name": "G4",
          "ticks": 209000,
          "time": 109.99983499999999,
          "velocity": 1
        },
        {
          "duration": 0.2631575000000055,
          "durationTicks": 500,
          "midi": 70,
          "name": "A#4",
          "ticks": 209000,
          "time": 109.99983499999999,
          "velocity": 1
        },
        {
          "duration": 0.2631575000000055,
          "durationTicks": 500,
          "midi": 74,
          "name": "D5",
          "ticks": 209000,
          "time": 109.99983499999999,
          "velocity": 1
        },
        {
          "duration": 0.2631575000000055,
          "durationTicks": 500,
          "midi": 67,
          "name": "G4",
          "ticks": 209500,
          "time": 110.2629925,
          "velocity": 1
        },
        {
          "duration": 0.2631575000000055,
          "durationTicks": 500,
          "midi": 70,
          "name": "A#4",
          "ticks": 209500,
          "time": 110.2629925,
          "velocity": 1
        },
        {
          "duration": 0.2631575000000055,
          "durationTicks": 500,
          "midi": 74,
          "name": "D5",
          "ticks": 209500,
          "time": 110.2629925,
          "velocity": 1
        },
        {
          "duration": 0.2631574999999913,
          "durationTicks": 500,
          "midi": 72,
          "name": "C5",
          "ticks": 210000,
          "time": 110.52615,
          "velocity": 1
        },
        {
          "duration": 0.2631574999999913,
          "durationTicks": 500,
          "midi": 69,
          "name": "A4",
          "ticks": 210000,
          "time": 110.52615,
          "velocity": 1
        },
        {
          "duration": 0.2631574999999913,
          "durationTicks": 500,
          "midi": 65,
          "name": "F4",
          "ticks": 210000,
          "time": 110.52615,
          "velocity": 1
        },
        {
          "duration": 0.2631575000000055,
          "durationTicks": 500,
          "midi": 72,
          "name": "C5",
          "ticks": 210500,
          "time": 110.78930749999999,
          "velocity": 1
        },
        {
          "duration": 0.2631575000000055,
          "durationTicks": 500,
          "midi": 69,
          "name": "A4",
          "ticks": 210500,
          "time": 110.78930749999999,
          "velocity": 1
        },
        {
          "duration": 0.2631575000000055,
          "durationTicks": 500,
          "midi": 65,
          "name": "F4",
          "ticks": 210500,
          "time": 110.78930749999999,
          "velocity": 1
        },
        {
          "duration": 0.2631574999999913,
          "durationTicks": 500,
          "midi": 72,
          "name": "C5",
          "ticks": 211000,
          "time": 111.052465,
          "velocity": 1
        },
        {
          "duration": 0.2631574999999913,
          "durationTicks": 500,
          "midi": 69,
          "name": "A4",
          "ticks": 211000,
          "time": 111.052465,
          "velocity": 1
        },
        {
          "duration": 0.2631574999999913,
          "durationTicks": 500,
          "midi": 65,
          "name": "F4",
          "ticks": 211000,
          "time": 111.052465,
          "velocity": 1
        },
        {
          "duration": 0.2631575000000055,
          "durationTicks": 500,
          "midi": 72,
          "name": "C5",
          "ticks": 211500,
          "time": 111.31562249999999,
          "velocity": 1
        },
        {
          "duration": 0.2631575000000055,
          "durationTicks": 500,
          "midi": 69,
          "name": "A4",
          "ticks": 211500,
          "time": 111.31562249999999,
          "velocity": 1
        },
        {
          "duration": 0.2631575000000055,
          "durationTicks": 500,
          "midi": 65,
          "name": "F4",
          "ticks": 211500,
          "time": 111.31562249999999,
          "velocity": 1
        },
        {
          "duration": 0.2631575000000055,
          "durationTicks": 500,
          "midi": 74,
          "name": "D5",
          "ticks": 212000,
          "time": 111.57878,
          "velocity": 1
        },
        {
          "duration": 0.2631575000000055,
          "durationTicks": 500,
          "midi": 70,
          "name": "A#4",
          "ticks": 212000,
          "time": 111.57878,
          "velocity": 1
        },
        {
          "duration": 0.2631575000000055,
          "durationTicks": 500,
          "midi": 65,
          "name": "F4",
          "ticks": 212000,
          "time": 111.57878,
          "velocity": 1
        },
        {
          "duration": 0.2631574999999913,
          "durationTicks": 500,
          "midi": 74,
          "name": "D5",
          "ticks": 212500,
          "time": 111.8419375,
          "velocity": 1
        },
        {
          "duration": 0.2631574999999913,
          "durationTicks": 500,
          "midi": 70,
          "name": "A#4",
          "ticks": 212500,
          "time": 111.8419375,
          "velocity": 1
        },
        {
          "duration": 0.2631574999999913,
          "durationTicks": 500,
          "midi": 65,
          "name": "F4",
          "ticks": 212500,
          "time": 111.8419375,
          "velocity": 1
        },
        {
          "duration": 0.2631575000000055,
          "durationTicks": 500,
          "midi": 74,
          "name": "D5",
          "ticks": 213000,
          "time": 112.10509499999999,
          "velocity": 1
        },
        {
          "duration": 0.2631575000000055,
          "durationTicks": 500,
          "midi": 70,
          "name": "A#4",
          "ticks": 213000,
          "time": 112.10509499999999,
          "velocity": 1
        },
        {
          "duration": 0.2631575000000055,
          "durationTicks": 500,
          "midi": 65,
          "name": "F4",
          "ticks": 213000,
          "time": 112.10509499999999,
          "velocity": 1
        },
        {
          "duration": 0.2631574999999913,
          "durationTicks": 500,
          "midi": 74,
          "name": "D5",
          "ticks": 213500,
          "time": 112.3682525,
          "velocity": 1
        },
        {
          "duration": 0.2631574999999913,
          "durationTicks": 500,
          "midi": 70,
          "name": "A#4",
          "ticks": 213500,
          "time": 112.3682525,
          "velocity": 1
        },
        {
          "duration": 0.2631574999999913,
          "durationTicks": 500,
          "midi": 65,
          "name": "F4",
          "ticks": 213500,
          "time": 112.3682525,
          "velocity": 1
        },
        {
          "duration": 0.2631575000000055,
          "durationTicks": 500,
          "midi": 72,
          "name": "C5",
          "ticks": 214000,
          "time": 112.63140999999999,
          "velocity": 1
        },
        {
          "duration": 0.2631575000000055,
          "durationTicks": 500,
          "midi": 69,
          "name": "A4",
          "ticks": 214000,
          "time": 112.63140999999999,
          "velocity": 1
        },
        {
          "duration": 0.2631575000000055,
          "durationTicks": 500,
          "midi": 66,
          "name": "F#4",
          "ticks": 214000,
          "time": 112.63140999999999,
          "velocity": 1
        },
        {
          "duration": 0.2631575000000055,
          "durationTicks": 500,
          "midi": 72,
          "name": "C5",
          "ticks": 214500,
          "time": 112.8945675,
          "velocity": 1
        },
        {
          "duration": 0.2631575000000055,
          "durationTicks": 500,
          "midi": 69,
          "name": "A4",
          "ticks": 214500,
          "time": 112.8945675,
          "velocity": 1
        },
        {
          "duration": 0.2631575000000055,
          "durationTicks": 500,
          "midi": 66,
          "name": "F#4",
          "ticks": 214500,
          "time": 112.8945675,
          "velocity": 1
        },
        {
          "duration": 0.2631574999999913,
          "durationTicks": 500,
          "midi": 72,
          "name": "C5",
          "ticks": 215000,
          "time": 113.157725,
          "velocity": 1
        },
        {
          "duration": 0.2631574999999913,
          "durationTicks": 500,
          "midi": 69,
          "name": "A4",
          "ticks": 215000,
          "time": 113.157725,
          "velocity": 1
        },
        {
          "duration": 0.2631574999999913,
          "durationTicks": 500,
          "midi": 66,
          "name": "F#4",
          "ticks": 215000,
          "time": 113.157725,
          "velocity": 1
        },
        {
          "duration": 0.2631575000000055,
          "durationTicks": 500,
          "midi": 72,
          "name": "C5",
          "ticks": 215500,
          "time": 113.42088249999999,
          "velocity": 1
        },
        {
          "duration": 0.2631575000000055,
          "durationTicks": 500,
          "midi": 69,
          "name": "A4",
          "ticks": 215500,
          "time": 113.42088249999999,
          "velocity": 1
        },
        {
          "duration": 0.2631575000000055,
          "durationTicks": 500,
          "midi": 66,
          "name": "F#4",
          "ticks": 215500,
          "time": 113.42088249999999,
          "velocity": 1
        },
        {
          "duration": 0.2631575000000055,
          "durationTicks": 500,
          "midi": 76,
          "name": "E5",
          "ticks": 216000,
          "time": 113.68404,
          "velocity": 1
        },
        {
          "duration": 0.2631575000000055,
          "durationTicks": 500,
          "midi": 71,
          "name": "B4",
          "ticks": 216000,
          "time": 113.68404,
          "velocity": 1
        },
        {
          "duration": 0.2631575000000055,
          "durationTicks": 500,
          "midi": 67,
          "name": "G4",
          "ticks": 216000,
          "time": 113.68404,
          "velocity": 1
        },
        {
          "duration": 0.2631574999999913,
          "durationTicks": 500,
          "midi": 76,
          "name": "E5",
          "ticks": 216500,
          "time": 113.9471975,
          "velocity": 1
        },
        {
          "duration": 0.2631574999999913,
          "durationTicks": 500,
          "midi": 71,
          "name": "B4",
          "ticks": 216500,
          "time": 113.9471975,
          "velocity": 1
        },
        {
          "duration": 0.2631574999999913,
          "durationTicks": 500,
          "midi": 67,
          "name": "G4",
          "ticks": 216500,
          "time": 113.9471975,
          "velocity": 1
        },
        {
          "duration": 0.2631575000000055,
          "durationTicks": 500,
          "midi": 76,
          "name": "E5",
          "ticks": 217000,
          "time": 114.21035499999999,
          "velocity": 1
        },
        {
          "duration": 0.2631575000000055,
          "durationTicks": 500,
          "midi": 71,
          "name": "B4",
          "ticks": 217000,
          "time": 114.21035499999999,
          "velocity": 1
        },
        {
          "duration": 0.2631575000000055,
          "durationTicks": 500,
          "midi": 67,
          "name": "G4",
          "ticks": 217000,
          "time": 114.21035499999999,
          "velocity": 1
        },
        {
          "duration": 0.2631574999999913,
          "durationTicks": 500,
          "midi": 76,
          "name": "E5",
          "ticks": 217500,
          "time": 114.4735125,
          "velocity": 1
        },
        {
          "duration": 0.2631574999999913,
          "durationTicks": 500,
          "midi": 71,
          "name": "B4",
          "ticks": 217500,
          "time": 114.4735125,
          "velocity": 1
        },
        {
          "duration": 0.2631574999999913,
          "durationTicks": 500,
          "midi": 67,
          "name": "G4",
          "ticks": 217500,
          "time": 114.4735125,
          "velocity": 1
        },
        {
          "duration": 0.2631575000000055,
          "durationTicks": 500,
          "midi": 75,
          "name": "D#5",
          "ticks": 218000,
          "time": 114.73666999999999,
          "velocity": 1
        },
        {
          "duration": 0.2631575000000055,
          "durationTicks": 500,
          "midi": 70,
          "name": "A#4",
          "ticks": 218000,
          "time": 114.73666999999999,
          "velocity": 1
        },
        {
          "duration": 0.2631575000000055,
          "durationTicks": 500,
          "midi": 67,
          "name": "G4",
          "ticks": 218000,
          "time": 114.73666999999999,
          "velocity": 1
        },
        {
          "duration": 0.2631575000000055,
          "durationTicks": 500,
          "midi": 75,
          "name": "D#5",
          "ticks": 218500,
          "time": 114.9998275,
          "velocity": 1
        },
        {
          "duration": 0.2631575000000055,
          "durationTicks": 500,
          "midi": 70,
          "name": "A#4",
          "ticks": 218500,
          "time": 114.9998275,
          "velocity": 1
        },
        {
          "duration": 0.2631575000000055,
          "durationTicks": 500,
          "midi": 67,
          "name": "G4",
          "ticks": 218500,
          "time": 114.9998275,
          "velocity": 1
        },
        {
          "duration": 0.2631574999999913,
          "durationTicks": 500,
          "midi": 75,
          "name": "D#5",
          "ticks": 219000,
          "time": 115.262985,
          "velocity": 1
        },
        {
          "duration": 0.2631574999999913,
          "durationTicks": 500,
          "midi": 70,
          "name": "A#4",
          "ticks": 219000,
          "time": 115.262985,
          "velocity": 1
        },
        {
          "duration": 0.2631574999999913,
          "durationTicks": 500,
          "midi": 67,
          "name": "G4",
          "ticks": 219000,
          "time": 115.262985,
          "velocity": 1
        },
        {
          "duration": 0.2631575000000055,
          "durationTicks": 500,
          "midi": 75,
          "name": "D#5",
          "ticks": 219500,
          "time": 115.52614249999999,
          "velocity": 1
        },
        {
          "duration": 0.2631575000000055,
          "durationTicks": 500,
          "midi": 70,
          "name": "A#4",
          "ticks": 219500,
          "time": 115.52614249999999,
          "velocity": 1
        },
        {
          "duration": 0.2631575000000055,
          "durationTicks": 500,
          "midi": 67,
          "name": "G4",
          "ticks": 219500,
          "time": 115.52614249999999,
          "velocity": 1
        },
        {
          "duration": 0.13157875000000274,
          "durationTicks": 250,
          "midi": 75,
          "name": "D#5",
          "ticks": 220000,
          "time": 115.7893,
          "velocity": 1
        },
        {
          "duration": 0.13157874999998853,
          "durationTicks": 250,
          "midi": 70,
          "name": "A#4",
          "ticks": 220250,
          "time": 115.92087875,
          "velocity": 1
        },
        {
          "duration": 0.13157875000000274,
          "durationTicks": 250,
          "midi": 67,
          "name": "G4",
          "ticks": 220500,
          "time": 116.05245749999999,
          "velocity": 1
        },
        {
          "duration": 0.13157875000000274,
          "durationTicks": 250,
          "midi": 70,
          "name": "A#4",
          "ticks": 220750,
          "time": 116.18403624999999,
          "velocity": 1
        },
        {
          "duration": 0.13157875000000274,
          "durationTicks": 250,
          "midi": 75,
          "name": "D#5",
          "ticks": 221000,
          "time": 116.315615,
          "velocity": 1
        },
        {
          "duration": 0.13157875000000274,
          "durationTicks": 250,
          "midi": 70,
          "name": "A#4",
          "ticks": 221250,
          "time": 116.44719375,
          "velocity": 1
        },
        {
          "duration": 0.13157874999998853,
          "durationTicks": 250,
          "midi": 67,
          "name": "G4",
          "ticks": 221500,
          "time": 116.5787725,
          "velocity": 1
        },
        {
          "duration": 0.13157875000000274,
          "durationTicks": 250,
          "midi": 70,
          "name": "A#4",
          "ticks": 221750,
          "time": 116.71035124999999,
          "velocity": 1
        },
        {
          "duration": 0.13157875000000274,
          "durationTicks": 250,
          "midi": 74,
          "name": "D5",
          "ticks": 222000,
          "time": 116.84192999999999,
          "velocity": 1
        },
        {
          "duration": 0.13157875000000274,
          "durationTicks": 250,
          "midi": 69,
          "name": "A4",
          "ticks": 222250,
          "time": 116.97350875,
          "velocity": 1
        },
        {
          "duration": 0.13157875000000274,
          "durationTicks": 250,
          "midi": 66,
          "name": "F#4",
          "ticks": 222500,
          "time": 117.1050875,
          "velocity": 1
        },
        {
          "duration": 0.13157875000000274,
          "durationTicks": 250,
          "midi": 69,
          "name": "A4",
          "ticks": 222750,
          "time": 117.23666625,
          "velocity": 1
        },
        {
          "duration": 0.13157874999998853,
          "durationTicks": 250,
          "midi": 74,
          "name": "D5",
          "ticks": 223000,
          "time": 117.368245,
          "velocity": 1
        },
        {
          "duration": 0.13157875000000274,
          "durationTicks": 250,
          "midi": 69,
          "name": "A4",
          "ticks": 223250,
          "time": 117.49982374999999,
          "velocity": 1
        },
        {
          "duration": 0.13157875000000274,
          "durationTicks": 250,
          "midi": 66,
          "name": "F#4",
          "ticks": 223500,
          "time": 117.6314025,
          "velocity": 1
        },
        {
          "duration": 0.13157875000000274,
          "durationTicks": 250,
          "midi": 69,
          "name": "A4",
          "ticks": 223750,
          "time": 117.76298125,
          "velocity": 1
        },
        {
          "duration": 0.13157875000000274,
          "durationTicks": 250,
          "midi": 72,
          "name": "C5",
          "ticks": 224000,
          "time": 117.89456,
          "velocity": 1
        },
        {
          "duration": 0.13157874999998853,
          "durationTicks": 250,
          "midi": 67,
          "name": "G4",
          "ticks": 224250,
          "time": 118.02613875,
          "velocity": 1
        },
        {
          "duration": 0.13157875000000274,
          "durationTicks": 250,
          "midi": 63,
          "name": "D#4",
          "ticks": 224500,
          "time": 118.15771749999999,
          "velocity": 1
        },
        {
          "duration": 0.13157875000000274,
          "durationTicks": 250,
          "midi": 67,
          "name": "G4",
          "ticks": 224750,
          "time": 118.28929624999999,
          "velocity": 1
        },
        {
          "duration": 0.13157875000000274,
          "durationTicks": 250,
          "midi": 72,
          "name": "C5",
          "ticks": 225000,
          "time": 118.420875,
          "velocity": 1
        },
        {
          "duration": 0.13157875000000274,
          "durationTicks": 250,
          "midi": 67,
          "name": "G4",
          "ticks": 225250,
          "time": 118.55245375,
          "velocity": 1
        },
        {
          "duration": 0.13157874999998853,
          "durationTicks": 250,
          "midi": 63,
          "name": "D#4",
          "ticks": 225500,
          "time": 118.6840325,
          "velocity": 1
        },
        {
          "duration": 0.13157875000000274,
          "durationTicks": 250,
          "midi": 67,
          "name": "G4",
          "ticks": 225750,
          "time": 118.81561124999999,
          "velocity": 1
        },
        {
          "duration": 0.5263149999999968,
          "durationTicks": 1000,
          "midi": 72,
          "name": "C5",
          "ticks": 226000,
          "time": 118.94718999999999,
          "velocity": 1
        },
        {
          "duration": 0.5263149999999968,
          "durationTicks": 1000,
          "midi": 69,
          "name": "A4",
          "ticks": 226000,
          "time": 118.94718999999999,
          "velocity": 1
        },
        {
          "duration": 0.5263149999999968,
          "durationTicks": 1000,
          "midi": 65,
          "name": "F4",
          "ticks": 226000,
          "time": 118.94718999999999,
          "velocity": 1
        },
        {
          "duration": 0.526315000000011,
          "durationTicks": 1000,
          "midi": 70,
          "name": "A#4",
          "ticks": 260000,
          "time": 136.84189999999998,
          "velocity": 1
        },
        {
          "duration": 0.526315000000011,
          "durationTicks": 1000,
          "midi": 62,
          "name": "D4",
          "ticks": 261000,
          "time": 137.368215,
          "velocity": 1
        },
        {
          "duration": 0.5263149999999825,
          "durationTicks": 1000,
          "midi": 65,
          "name": "F4",
          "ticks": 262000,
          "time": 137.89453,
          "velocity": 1
        },
        {
          "duration": 0.526315000000011,
          "durationTicks": 1000,
          "midi": 70,
          "name": "A#4",
          "ticks": 263000,
          "time": 138.42084499999999,
          "velocity": 1
        },
        {
          "duration": 0.526315000000011,
          "durationTicks": 1000,
          "midi": 69,
          "name": "A4",
          "ticks": 264000,
          "time": 138.94716,
          "velocity": 1
        },
        {
          "duration": 0.5263149999999825,
          "durationTicks": 1000,
          "midi": 60,
          "name": "C4",
          "ticks": 265000,
          "time": 139.473475,
          "velocity": 1
        },
        {
          "duration": 0.526315000000011,
          "durationTicks": 1000,
          "midi": 65,
          "name": "F4",
          "ticks": 266000,
          "time": 139.99979,
          "velocity": 1
        },
        {
          "duration": 0.5263149999999825,
          "durationTicks": 1000,
          "midi": 69,
          "name": "A4",
          "ticks": 267000,
          "time": 140.526105,
          "velocity": 1
        },
        {
          "duration": 0.526315000000011,
          "durationTicks": 1000,
          "midi": 67,
          "name": "G4",
          "ticks": 268000,
          "time": 141.05241999999998,
          "velocity": 1
        },
        {
          "duration": 0.526315000000011,
          "durationTicks": 1000,
          "midi": 58,
          "name": "A#3",
          "ticks": 269000,
          "time": 141.578735,
          "velocity": 1
        },
        {
          "duration": 0.5263149999999825,
          "durationTicks": 1000,
          "midi": 62,
          "name": "D4",
          "ticks": 270000,
          "time": 142.10505,
          "velocity": 1
        },
        {
          "duration": 0.526315000000011,
          "durationTicks": 1000,
          "midi": 67,
          "name": "G4",
          "ticks": 271000,
          "time": 142.631365,
          "velocity": 1
        },
        {
          "duration": 0.5263149999999825,
          "durationTicks": 1000,
          "midi": 66,
          "name": "F#4",
          "ticks": 272000,
          "time": 143.15768,
          "velocity": 1
        },
        {
          "duration": 0.526315000000011,
          "durationTicks": 1000,
          "midi": 58,
          "name": "A#3",
          "ticks": 273000,
          "time": 143.68399499999998,
          "velocity": 1
        },
        {
          "duration": 0.526315000000011,
          "durationTicks": 1000,
          "midi": 62,
          "name": "D4",
          "ticks": 274000,
          "time": 144.21031,
          "velocity": 1
        },
        {
          "duration": 0.5263149999999825,
          "durationTicks": 1000,
          "midi": 66,
          "name": "F#4",
          "ticks": 275000,
          "time": 144.736625,
          "velocity": 1
        },
        {
          "duration": 0.526315000000011,
          "durationTicks": 1000,
          "midi": 67,
          "name": "G4",
          "ticks": 276000,
          "time": 145.26294,
          "velocity": 1
        },
        {
          "duration": 0.5263149999999825,
          "durationTicks": 1000,
          "midi": 58,
          "name": "A#3",
          "ticks": 277000,
          "time": 145.789255,
          "velocity": 1
        },
        {
          "duration": 0.526315000000011,
          "durationTicks": 1000,
          "midi": 70,
          "name": "A#4",
          "ticks": 278000,
          "time": 146.31556999999998,
          "velocity": 1
        },
        {
          "duration": 0.526315000000011,
          "durationTicks": 1000,
          "midi": 63,
          "name": "D#4",
          "ticks": 279000,
          "time": 146.841885,
          "velocity": 1
        },
        {
          "duration": 0.5263149999999825,
          "durationTicks": 1000,
          "midi": 65,
          "name": "F4",
          "ticks": 280000,
          "time": 147.3682,
          "velocity": 1
        },
        {
          "duration": 0.526315000000011,
          "durationTicks": 1000,
          "midi": 69,
          "name": "A4",
          "ticks": 281000,
          "time": 147.89451499999998,
          "velocity": 1
        },
        {
          "duration": 0.526315000000011,
          "durationTicks": 1000,
          "midi": 60,
          "name": "C4",
          "ticks": 282000,
          "time": 148.42083,
          "velocity": 1
        },
        {
          "duration": 0.5263149999999825,
          "durationTicks": 1000,
          "midi": 65,
          "name": "F4",
          "ticks": 283000,
          "time": 148.947145,
          "velocity": 1
        },
        {
          "duration": 0.526315000000011,
          "durationTicks": 1000,
          "midi": 66,
          "name": "F#4",
          "ticks": 284000,
          "time": 149.47346,
          "velocity": 1
        },
        {
          "duration": 0.5263149999999825,
          "durationTicks": 1000,
          "midi": 61,
          "name": "C#4",
          "ticks": 285000,
          "time": 149.999775,
          "velocity": 1
        },
        {
          "duration": 0.526315000000011,
          "durationTicks": 1000,
          "midi": 70,
          "name": "A#4",
          "ticks": 286000,
          "time": 150.52608999999998,
          "velocity": 1
        },
        {
          "duration": 0.526315000000011,
          "durationTicks": 1000,
          "midi": 68,
          "name": "G#4",
          "ticks": 287000,
          "time": 151.052405,
          "velocity": 1
        },
        {
          "duration": 0.5263149999999825,
          "durationTicks": 1000,
          "midi": 60,
          "name": "C4",
          "ticks": 288000,
          "time": 151.57872,
          "velocity": 1
        },
        {
          "duration": 0.526315000000011,
          "durationTicks": 1000,
          "midi": 63,
          "name": "D#4",
          "ticks": 289000,
          "time": 152.105035,
          "velocity": 1
        },
        {
          "duration": 0.5263149999999825,
          "durationTicks": 1000,
          "midi": 63,
          "name": "D#4",
          "ticks": 290000,
          "time": 152.63135,
          "velocity": 1
        },
        {
          "duration": 0.526315000000011,
          "durationTicks": 1000,
          "midi": 63,
          "name": "D#4",
          "ticks": 291000,
          "time": 153.15766499999998,
          "velocity": 1
        },
        {
          "duration": 0.2631575000000055,
          "durationTicks": 500,
          "midi": 75,
          "name": "D#5",
          "ticks": 292000,
          "time": 153.68398,
          "velocity": 1
        },
        {
          "duration": 0.2631575000000055,
          "durationTicks": 500,
          "midi": 67,
          "name": "G4",
          "ticks": 292500,
          "time": 153.9471375,
          "velocity": 1
        },
        {
          "duration": 0.26315749999997706,
          "durationTicks": 500,
          "midi": 70,
          "name": "A#4",
          "ticks": 293000,
          "time": 154.210295,
          "velocity": 1
        },
        {
          "duration": 0.2631575000000055,
          "durationTicks": 500,
          "midi": 75,
          "name": "D#5",
          "ticks": 293500,
          "time": 154.47345249999998,
          "velocity": 1
        },
        {
          "duration": 0.2631575000000055,
          "durationTicks": 500,
          "midi": 74,
          "name": "D5",
          "ticks": 294000,
          "time": 154.73660999999998,
          "velocity": 1
        },
        {
          "duration": 0.2631575000000055,
          "durationTicks": 500,
          "midi": 66,
          "name": "F#4",
          "ticks": 294500,
          "time": 154.9997675,
          "velocity": 1
        },
        {
          "duration": 0.2631575000000055,
          "durationTicks": 500,
          "midi": 69,
          "name": "A4",
          "ticks": 295000,
          "time": 155.262925,
          "velocity": 1
        },
        {
          "duration": 0.2631575000000055,
          "durationTicks": 500,
          "midi": 74,
          "name": "D5",
          "ticks": 295500,
          "time": 155.5260825,
          "velocity": 1
        },
        {
          "duration": 0.26315749999997706,
          "durationTicks": 500,
          "midi": 70,
          "name": "A#4",
          "ticks": 296000,
          "time": 155.78924,
          "velocity": 1
        },
        {
          "duration": 0.2631575000000055,
          "durationTicks": 500,
          "midi": 62,
          "name": "D4",
          "ticks": 296500,
          "time": 156.05239749999998,
          "velocity": 1
        },
        {
          "duration": 0.2631575000000055,
          "durationTicks": 500,
          "midi": 67,
          "name": "G4",
          "ticks": 297000,
          "time": 156.315555,
          "velocity": 1
        },
        {
          "duration": 0.2631575000000055,
          "durationTicks": 500,
          "midi": 74,
          "name": "D5",
          "ticks": 297500,
          "time": 156.5787125,
          "velocity": 1
        },
        {
          "duration": 0.2631575000000055,
          "durationTicks": 500,
          "midi": 72,
          "name": "C5",
          "ticks": 298000,
          "time": 156.84187,
          "velocity": 1
        },
        {
          "duration": 0.26315749999997706,
          "durationTicks": 500,
          "midi": 65,
          "name": "F4",
          "ticks": 298500,
          "time": 157.1050275,
          "velocity": 1
        },
        {
          "duration": 0.2631575000000055,
          "durationTicks": 500,
          "midi": 69,
          "name": "A4",
          "ticks": 299000,
          "time": 157.36818499999998,
          "velocity": 1
        },
        {
          "duration": 0.2631575000000055,
          "durationTicks": 500,
          "midi": 77,
          "name": "F5",
          "ticks": 299500,
          "time": 157.6313425,
          "velocity": 1
        },
        {
          "duration": 0.2631575000000055,
          "durationTicks": 500,
          "midi": 74,
          "name": "D5",
          "ticks": 300000,
          "time": 157.8945,
          "velocity": 1
        },
        {
          "duration": 0.2631575000000055,
          "durationTicks": 500,
          "midi": 65,
          "name": "F4",
          "ticks": 300500,
          "time": 158.1576575,
          "velocity": 1
        },
        {
          "duration": 0.26315749999997706,
          "durationTicks": 500,
          "midi": 70,
          "name": "A#4",
          "ticks": 301000,
          "time": 158.420815,
          "velocity": 1
        },
        {
          "duration": 0.2631575000000055,
          "durationTicks": 500,
          "midi": 77,
          "name": "F5",
          "ticks": 301500,
          "time": 158.68397249999998,
          "velocity": 1
        },
        {
          "duration": 0.2631575000000055,
          "durationTicks": 500,
          "midi": 76,
          "name": "E5",
          "ticks": 302000,
          "time": 158.94713,
          "velocity": 1
        },
        {
          "duration": 0.2631575000000055,
          "durationTicks": 500,
          "midi": 67,
          "name": "G4",
          "ticks": 302500,
          "time": 159.2102875,
          "velocity": 1
        },
        {
          "duration": 0.2631575000000055,
          "durationTicks": 500,
          "midi": 69,
          "name": "A4",
          "ticks": 303000,
          "time": 159.473445,
          "velocity": 1
        },
        {
          "duration": 0.26315749999997706,
          "durationTicks": 500,
          "midi": 76,
          "name": "E5",
          "ticks": 303500,
          "time": 159.7366025,
          "velocity": 1
        },
        {
          "duration": 0.2631575000000055,
          "durationTicks": 500,
          "midi": 74,
          "name": "D5",
          "ticks": 304000,
          "time": 159.99975999999998,
          "velocity": 1
        },
        {
          "duration": 0.2631575000000055,
          "durationTicks": 500,
          "midi": 66,
          "name": "F#4",
          "ticks": 304500,
          "time": 160.2629175,
          "velocity": 1
        },
        {
          "duration": 0.2631575000000055,
          "durationTicks": 500,
          "midi": 69,
          "name": "A4",
          "ticks": 305000,
          "time": 160.526075,
          "velocity": 1
        },
        {
          "duration": 0.2631575000000055,
          "durationTicks": 500,
          "midi": 74,
          "name": "D5",
          "ticks": 305500,
          "time": 160.7892325,
          "velocity": 1
        },
        {
          "duration": 0.26315749999997706,
          "durationTicks": 500,
          "midi": 75,
          "name": "D#5",
          "ticks": 306000,
          "time": 161.05239,
          "velocity": 1
        },
        {
          "duration": 0.2631575000000055,
          "durationTicks": 500,
          "midi": 67,
          "name": "G4",
          "ticks": 306500,
          "time": 161.31554749999998,
          "velocity": 1
        },
        {
          "duration": 0.2631575000000055,
          "durationTicks": 500,
          "midi": 70,
          "name": "A#4",
          "ticks": 307000,
          "time": 161.57870499999999,
          "velocity": 1
        },
        {
          "duration": 0.2631575000000055,
          "durationTicks": 500,
          "midi": 75,
          "name": "D#5",
          "ticks": 307500,
          "time": 161.8418625,
          "velocity": 1
        },
        {
          "duration": 0.2631575000000055,
          "durationTicks": 500,
          "midi": 75,
          "name": "D#5",
          "ticks": 308000,
          "time": 162.10502,
          "velocity": 1
        },
        {
          "duration": 0.2631575000000055,
          "durationTicks": 500,
          "midi": 67,
          "name": "G4",
          "ticks": 308500,
          "time": 162.3681775,
          "velocity": 1
        },
        {
          "duration": 0.26315749999997706,
          "durationTicks": 500,
          "midi": 70,
          "name": "A#4",
          "ticks": 309000,
          "time": 162.631335,
          "velocity": 1
        },
        {
          "duration": 0.2631575000000055,
          "durationTicks": 500,
          "midi": 75,
          "name": "D#5",
          "ticks": 309500,
          "time": 162.89449249999998,
          "velocity": 1
        },
        {
          "duration": 0.2631575000000055,
          "durationTicks": 500,
          "midi": 74,
          "name": "D5",
          "ticks": 310000,
          "time": 163.15765,
          "velocity": 1
        },
        {
          "duration": 0.2631575000000055,
          "durationTicks": 500,
          "midi": 66,
          "name": "F#4",
          "ticks": 310500,
          "time": 163.4208075,
          "velocity": 1
        },
        {
          "duration": 0.2631575000000055,
          "durationTicks": 500,
          "midi": 69,
          "name": "A4",
          "ticks": 311000,
          "time": 163.683965,
          "velocity": 1
        },
        {
          "duration": 0.26315749999997706,
          "durationTicks": 500,
          "midi": 74,
          "name": "D5",
          "ticks": 311500,
          "time": 163.9471225,
          "velocity": 1
        },
        {
          "duration": 0.2631575000000055,
          "durationTicks": 500,
          "midi": 70,
          "name": "A#4",
          "ticks": 312000,
          "time": 164.21027999999998,
          "velocity": 1
        },
        {
          "duration": 0.2631575000000055,
          "durationTicks": 500,
          "midi": 62,
          "name": "D4",
          "ticks": 312500,
          "time": 164.4734375,
          "velocity": 1
        },
        {
          "duration": 0.2631575000000055,
          "durationTicks": 500,
          "midi": 67,
          "name": "G4",
          "ticks": 313000,
          "time": 164.736595,
          "velocity": 1
        },
        {
          "duration": 0.2631575000000055,
          "durationTicks": 500,
          "midi": 74,
          "name": "D5",
          "ticks": 313500,
          "time": 164.9997525,
          "velocity": 1
        },
        {
          "duration": 0.26315749999997706,
          "durationTicks": 500,
          "midi": 72,
          "name": "C5",
          "ticks": 314000,
          "time": 165.26291,
          "velocity": 1
        },
        {
          "duration": 0.2631575000000055,
          "durationTicks": 500,
          "midi": 65,
          "name": "F4",
          "ticks": 314500,
          "time": 165.52606749999998,
          "velocity": 1
        },
        {
          "duration": 0.2631575000000055,
          "durationTicks": 500,
          "midi": 69,
          "name": "A4",
          "ticks": 315000,
          "time": 165.789225,
          "velocity": 1
        },
        {
          "duration": 0.2631575000000055,
          "durationTicks": 500,
          "midi": 77,
          "name": "F5",
          "ticks": 315500,
          "time": 166.0523825,
          "velocity": 1
        },
        {
          "duration": 0.2631575000000055,
          "durationTicks": 500,
          "midi": 74,
          "name": "D5",
          "ticks": 316000,
          "time": 166.31554,
          "velocity": 1
        },
        {
          "duration": 0.26315749999997706,
          "durationTicks": 500,
          "midi": 65,
          "name": "F4",
          "ticks": 316500,
          "time": 166.5786975,
          "velocity": 1
        },
        {
          "duration": 0.2631575000000055,
          "durationTicks": 500,
          "midi": 70,
          "name": "A#4",
          "ticks": 317000,
          "time": 166.84185499999998,
          "velocity": 1
        },
        {
          "duration": 0.2631575000000055,
          "durationTicks": 500,
          "midi": 77,
          "name": "F5",
          "ticks": 317500,
          "time": 167.1050125,
          "velocity": 1
        },
        {
          "duration": 0.2631575000000055,
          "durationTicks": 500,
          "midi": 76,
          "name": "E5",
          "ticks": 318000,
          "time": 167.36817,
          "velocity": 1
        },
        {
          "duration": 0.2631575000000055,
          "durationTicks": 500,
          "midi": 67,
          "name": "G4",
          "ticks": 318500,
          "time": 167.6313275,
          "velocity": 1
        },
        {
          "duration": 0.26315749999997706,
          "durationTicks": 500,
          "midi": 69,
          "name": "A4",
          "ticks": 319000,
          "time": 167.894485,
          "velocity": 1
        },
        {
          "duration": 0.2631575000000055,
          "durationTicks": 500,
          "midi": 76,
          "name": "E5",
          "ticks": 319500,
          "time": 168.15764249999998,
          "velocity": 1
        },
        {
          "duration": 0.2631575000000055,
          "durationTicks": 500,
          "midi": 74,
          "name": "D5",
          "ticks": 320000,
          "time": 168.42079999999999,
          "velocity": 1
        },
        {
          "duration": 0.2631575000000055,
          "durationTicks": 500,
          "midi": 66,
          "name": "F#4",
          "ticks": 320500,
          "time": 168.6839575,
          "velocity": 1
        },
        {
          "duration": 0.2631575000000055,
          "durationTicks": 500,
          "midi": 69,
          "name": "A4",
          "ticks": 321000,
          "time": 168.947115,
          "velocity": 1
        },
        {
          "duration": 0.26315749999997706,
          "durationTicks": 500,
          "midi": 74,
          "name": "D5",
          "ticks": 321500,
          "time": 169.2102725,
          "velocity": 1
        },
        {
          "duration": 0.2631575000000055,
          "durationTicks": 500,
          "midi": 75,
          "name": "D#5",
          "ticks": 322000,
          "time": 169.47342999999998,
          "velocity": 1
        },
        {
          "duration": 0.2631575000000055,
          "durationTicks": 500,
          "midi": 67,
          "name": "G4",
          "ticks": 322500,
          "time": 169.73658749999998,
          "velocity": 1
        },
        {
          "duration": 0.2631575000000055,
          "durationTicks": 500,
          "midi": 70,
          "name": "A#4",
          "ticks": 323000,
          "time": 169.999745,
          "velocity": 1
        },
        {
          "duration": 0.2631575000000055,
          "durationTicks": 500,
          "midi": 75,
          "name": "D#5",
          "ticks": 323500,
          "time": 170.2629025,
          "velocity": 1
        },
        {
          "duration": 0.2631575000000055,
          "durationTicks": 500,
          "midi": 75,
          "name": "D#5",
          "ticks": 324000,
          "time": 170.52606,
          "velocity": 1
        },
        {
          "duration": 0.26315749999997706,
          "durationTicks": 500,
          "midi": 67,
          "name": "G4",
          "ticks": 324500,
          "time": 170.7892175,
          "velocity": 1
        },
        {
          "duration": 0.2631575000000055,
          "durationTicks": 500,
          "midi": 70,
          "name": "A#4",
          "ticks": 325000,
          "time": 171.05237499999998,
          "velocity": 1
        },
        {
          "duration": 0.2631575000000055,
          "durationTicks": 500,
          "midi": 75,
          "name": "D#5",
          "ticks": 325500,
          "time": 171.3155325,
          "velocity": 1
        },
        {
          "duration": 0.2631575000000055,
          "durationTicks": 500,
          "midi": 74,
          "name": "D5",
          "ticks": 326000,
          "time": 171.57869,
          "velocity": 1
        },
        {
          "duration": 0.2631575000000055,
          "durationTicks": 500,
          "midi": 66,
          "name": "F#4",
          "ticks": 326500,
          "time": 171.8418475,
          "velocity": 1
        },
        {
          "duration": 0.26315749999997706,
          "durationTicks": 500,
          "midi": 69,
          "name": "A4",
          "ticks": 327000,
          "time": 172.105005,
          "velocity": 1
        },
        {
          "duration": 0.2631575000000055,
          "durationTicks": 500,
          "midi": 74,
          "name": "D5",
          "ticks": 327500,
          "time": 172.36816249999998,
          "velocity": 1
        },
        {
          "duration": 0.2631575000000055,
          "durationTicks": 500,
          "midi": 70,
          "name": "A#4",
          "ticks": 328000,
          "time": 172.63132,
          "velocity": 1
        },
        {
          "duration": 0.2631575000000055,
          "durationTicks": 500,
          "midi": 62,
          "name": "D4",
          "ticks": 328500,
          "time": 172.8944775,
          "velocity": 1
        },
        {
          "duration": 0.2631575000000055,
          "durationTicks": 500,
          "midi": 67,
          "name": "G4",
          "ticks": 329000,
          "time": 173.157635,
          "velocity": 1
        },
        {
          "duration": 0.26315749999997706,
          "durationTicks": 500,
          "midi": 74,
          "name": "D5",
          "ticks": 329500,
          "time": 173.4207925,
          "velocity": 1
        },
        {
          "duration": 0.2631575000000055,
          "durationTicks": 500,
          "midi": 72,
          "name": "C5",
          "ticks": 330000,
          "time": 173.68394999999998,
          "velocity": 1
        },
        {
          "duration": 0.2631575000000055,
          "durationTicks": 500,
          "midi": 65,
          "name": "F4",
          "ticks": 330500,
          "time": 173.9471075,
          "velocity": 1
        },
        {
          "duration": 0.2631575000000055,
          "durationTicks": 500,
          "midi": 69,
          "name": "A4",
          "ticks": 331000,
          "time": 174.210265,
          "velocity": 1
        },
        {
          "duration": 0.2631575000000055,
          "durationTicks": 500,
          "midi": 77,
          "name": "F5",
          "ticks": 331500,
          "time": 174.4734225,
          "velocity": 1
        },
        {
          "duration": 0.26315749999997706,
          "durationTicks": 500,
          "midi": 74,
          "name": "D5",
          "ticks": 332000,
          "time": 174.73658,
          "velocity": 1
        },
        {
          "duration": 0.2631575000000055,
          "durationTicks": 500,
          "midi": 65,
          "name": "F4",
          "ticks": 332500,
          "time": 174.99973749999998,
          "velocity": 1
        },
        {
          "duration": 0.2631575000000055,
          "durationTicks": 500,
          "midi": 70,
          "name": "A#4",
          "ticks": 333000,
          "time": 175.262895,
          "velocity": 1
        },
        {
          "duration": 0.2631575000000055,
          "durationTicks": 500,
          "midi": 77,
          "name": "F5",
          "ticks": 333500,
          "time": 175.5260525,
          "velocity": 1
        },
        {
          "duration": 0.2631575000000055,
          "durationTicks": 500,
          "midi": 76,
          "name": "E5",
          "ticks": 334000,
          "time": 175.78921,
          "velocity": 1
        },
        {
          "duration": 0.26315749999997706,
          "durationTicks": 500,
          "midi": 67,
          "name": "G4",
          "ticks": 334500,
          "time": 176.0523675,
          "velocity": 1
        },
        {
          "duration": 0.2631575000000055,
          "durationTicks": 500,
          "midi": 69,
          "name": "A4",
          "ticks": 335000,
          "time": 176.31552499999998,
          "velocity": 1
        },
        {
          "duration": 0.2631575000000055,
          "durationTicks": 500,
          "midi": 76,
          "name": "E5",
          "ticks": 335500,
          "time": 176.57868249999999,
          "velocity": 1
        },
        {
          "duration": 0.2631575000000055,
          "durationTicks": 500,
          "midi": 74,
          "name": "D5",
          "ticks": 336000,
          "time": 176.84184,
          "velocity": 1
        },
        {
          "duration": 0.2631575000000055,
          "durationTicks": 500,
          "midi": 66,
          "name": "F#4",
          "ticks": 336500,
          "time": 177.1049975,
          "velocity": 1
        },
        {
          "duration": 0.26315749999997706,
          "durationTicks": 500,
          "midi": 69,
          "name": "A4",
          "ticks": 337000,
          "time": 177.368155,
          "velocity": 1
        },
        {
          "duration": 0.2631575000000055,
          "durationTicks": 500,
          "midi": 74,
          "name": "D5",
          "ticks": 337500,
          "time": 177.63131249999998,
          "velocity": 1
        },
        {
          "duration": 0.2631575000000055,
          "durationTicks": 500,
          "midi": 75,
          "name": "D#5",
          "ticks": 338000,
          "time": 177.89446999999998,
          "velocity": 1
        },
        {
          "duration": 0.2631575000000055,
          "durationTicks": 500,
          "midi": 67,
          "name": "G4",
          "ticks": 338500,
          "time": 178.1576275,
          "velocity": 1
        },
        {
          "duration": 0.2631575000000055,
          "durationTicks": 500,
          "midi": 70,
          "name": "A#4",
          "ticks": 339000,
          "time": 178.420785,
          "velocity": 1
        },
        {
          "duration": 0.2631575000000055,
          "durationTicks": 500,
          "midi": 75,
          "name": "D#5",
          "ticks": 339500,
          "time": 178.6839425,
          "velocity": 1
        },
        {
          "duration": 0.2631575000000055,
          "durationTicks": 500,
          "midi": 74,
          "name": "D5",
          "ticks": 356000,
          "time": 187.36813999999998,
          "velocity": 1
        },
        {
          "duration": 0.2631575000000055,
          "durationTicks": 500,
          "midi": 70,
          "name": "A#4",
          "ticks": 356000,
          "time": 187.36813999999998,
          "velocity": 1
        },
        {
          "duration": 0.2631575000000055,
          "durationTicks": 500,
          "midi": 65,
          "name": "F4",
          "ticks": 356000,
          "time": 187.36813999999998,
          "velocity": 1
        },
        {
          "duration": 0.2631575000000055,
          "durationTicks": 500,
          "midi": 74,
          "name": "D5",
          "ticks": 356500,
          "time": 187.6312975,
          "velocity": 1
        },
        {
          "duration": 0.2631575000000055,
          "durationTicks": 500,
          "midi": 70,
          "name": "A#4",
          "ticks": 356500,
          "time": 187.6312975,
          "velocity": 1
        },
        {
          "duration": 0.2631575000000055,
          "durationTicks": 500,
          "midi": 65,
          "name": "F4",
          "ticks": 356500,
          "time": 187.6312975,
          "velocity": 1
        },
        {
          "duration": 0.2631575000000055,
          "durationTicks": 500,
          "midi": 74,
          "name": "D5",
          "ticks": 357000,
          "time": 187.894455,
          "velocity": 1
        },
        {
          "duration": 0.2631575000000055,
          "durationTicks": 500,
          "midi": 70,
          "name": "A#4",
          "ticks": 357000,
          "time": 187.894455,
          "velocity": 1
        },
        {
          "duration": 0.2631575000000055,
          "durationTicks": 500,
          "midi": 65,
          "name": "F4",
          "ticks": 357000,
          "time": 187.894455,
          "velocity": 1
        },
        {
          "duration": 0.2631575000000055,
          "durationTicks": 500,
          "midi": 74,
          "name": "D5",
          "ticks": 357500,
          "time": 188.1576125,
          "velocity": 1
        },
        {
          "duration": 0.2631575000000055,
          "durationTicks": 500,
          "midi": 70,
          "name": "A#4",
          "ticks": 357500,
          "time": 188.1576125,
          "velocity": 1
        },
        {
          "duration": 0.2631575000000055,
          "durationTicks": 500,
          "midi": 65,
          "name": "F4",
          "ticks": 357500,
          "time": 188.1576125,
          "velocity": 1
        },
        {
          "duration": 0.26315749999997706,
          "durationTicks": 500,
          "midi": 72,
          "name": "C5",
          "ticks": 358000,
          "time": 188.42077,
          "velocity": 1
        },
        {
          "duration": 0.26315749999997706,
          "durationTicks": 500,
          "midi": 69,
          "name": "A4",
          "ticks": 358000,
          "time": 188.42077,
          "velocity": 1
        },
        {
          "duration": 0.26315749999997706,
          "durationTicks": 500,
          "midi": 66,
          "name": "F#4",
          "ticks": 358000,
          "time": 188.42077,
          "velocity": 1
        },
        {
          "duration": 0.2631575000000055,
          "durationTicks": 500,
          "midi": 72,
          "name": "C5",
          "ticks": 358500,
          "time": 188.68392749999998,
          "velocity": 1
        },
        {
          "duration": 0.2631575000000055,
          "durationTicks": 500,
          "midi": 69,
          "name": "A4",
          "ticks": 358500,
          "time": 188.68392749999998,
          "velocity": 1
        },
        {
          "duration": 0.2631575000000055,
          "durationTicks": 500,
          "midi": 66,
          "name": "F#4",
          "ticks": 358500,
          "time": 188.68392749999998,
          "velocity": 1
        },
        {
          "duration": 0.2631575000000055,
          "durationTicks": 500,
          "midi": 72,
          "name": "C5",
          "ticks": 359000,
          "time": 188.947085,
          "velocity": 1
        },
        {
          "duration": 0.2631575000000055,
          "durationTicks": 500,
          "midi": 69,
          "name": "A4",
          "ticks": 359000,
          "time": 188.947085,
          "velocity": 1
        },
        {
          "duration": 0.2631575000000055,
          "durationTicks": 500,
          "midi": 66,
          "name": "F#4",
          "ticks": 359000,
          "time": 188.947085,
          "velocity": 1
        },
        {
          "duration": 0.2631575000000055,
          "durationTicks": 500,
          "midi": 72,
          "name": "C5",
          "ticks": 359500,
          "time": 189.2102425,
          "velocity": 1
        },
        {
          "duration": 0.2631575000000055,
          "durationTicks": 500,
          "midi": 69,
          "name": "A4",
          "ticks": 359500,
          "time": 189.2102425,
          "velocity": 1
        },
        {
          "duration": 0.2631575000000055,
          "durationTicks": 500,
          "midi": 66,
          "name": "F#4",
          "ticks": 359500,
          "time": 189.2102425,
          "velocity": 1
        },
        {
          "duration": 0.2631575000000055,
          "durationTicks": 500,
          "midi": 67,
          "name": "G4",
          "ticks": 360000,
          "time": 189.4734,
          "velocity": 1
        },
        {
          "duration": 0.2631575000000055,
          "durationTicks": 500,
          "midi": 70,
          "name": "A#4",
          "ticks": 360000,
          "time": 189.4734,
          "velocity": 1
        },
        {
          "duration": 0.2631575000000055,
          "durationTicks": 500,
          "midi": 74,
          "name": "D5",
          "ticks": 360000,
          "time": 189.4734,
          "velocity": 1
        },
        {
          "duration": 0.26315749999997706,
          "durationTicks": 500,
          "midi": 67,
          "name": "G4",
          "ticks": 360500,
          "time": 189.7365575,
          "velocity": 1
        },
        {
          "duration": 0.26315749999997706,
          "durationTicks": 500,
          "midi": 70,
          "name": "A#4",
          "ticks": 360500,
          "time": 189.7365575,
          "velocity": 1
        },
        {
          "duration": 0.26315749999997706,
          "durationTicks": 500,
          "midi": 74,
          "name": "D5",
          "ticks": 360500,
          "time": 189.7365575,
          "velocity": 1
        },
        {
          "duration": 0.2631575000000055,
          "durationTicks": 500,
          "midi": 67,
          "name": "G4",
          "ticks": 361000,
          "time": 189.99971499999998,
          "velocity": 1
        },
        {
          "duration": 0.2631575000000055,
          "durationTicks": 500,
          "midi": 70,
          "name": "A#4",
          "ticks": 361000,
          "time": 189.99971499999998,
          "velocity": 1
        },
        {
          "duration": 0.2631575000000055,
          "durationTicks": 500,
          "midi": 74,
          "name": "D5",
          "ticks": 361000,
          "time": 189.99971499999998,
          "velocity": 1
        },
        {
          "duration": 0.2631575000000055,
          "durationTicks": 500,
          "midi": 67,
          "name": "G4",
          "ticks": 361500,
          "time": 190.2628725,
          "velocity": 1
        },
        {
          "duration": 0.2631575000000055,
          "durationTicks": 500,
          "midi": 70,
          "name": "A#4",
          "ticks": 361500,
          "time": 190.2628725,
          "velocity": 1
        },
        {
          "duration": 0.2631575000000055,
          "durationTicks": 500,
          "midi": 74,
          "name": "D5",
          "ticks": 361500,
          "time": 190.2628725,
          "velocity": 1
        },
        {
          "duration": 0.2631575000000055,
          "durationTicks": 500,
          "midi": 72,
          "name": "C5",
          "ticks": 362000,
          "time": 190.52603,
          "velocity": 1
        },
        {
          "duration": 0.2631575000000055,
          "durationTicks": 500,
          "midi": 69,
          "name": "A4",
          "ticks": 362000,
          "time": 190.52603,
          "velocity": 1
        },
        {
          "duration": 0.2631575000000055,
          "durationTicks": 500,
          "midi": 65,
          "name": "F4",
          "ticks": 362000,
          "time": 190.52603,
          "velocity": 1
        },
        {
          "duration": 0.2631575000000055,
          "durationTicks": 500,
          "midi": 72,
          "name": "C5",
          "ticks": 362500,
          "time": 190.7891875,
          "velocity": 1
        },
        {
          "duration": 0.2631575000000055,
          "durationTicks": 500,
          "midi": 69,
          "name": "A4",
          "ticks": 362500,
          "time": 190.7891875,
          "velocity": 1
        },
        {
          "duration": 0.2631575000000055,
          "durationTicks": 500,
          "midi": 65,
          "name": "F4",
          "ticks": 362500,
          "time": 190.7891875,
          "velocity": 1
        },
        {
          "duration": 0.26315749999997706,
          "durationTicks": 500,
          "midi": 72,
          "name": "C5",
          "ticks": 363000,
          "time": 191.052345,
          "velocity": 1
        },
        {
          "duration": 0.26315749999997706,
          "durationTicks": 500,
          "midi": 69,
          "name": "A4",
          "ticks": 363000,
          "time": 191.052345,
          "velocity": 1
        },
        {
          "duration": 0.26315749999997706,
          "durationTicks": 500,
          "midi": 65,
          "name": "F4",
          "ticks": 363000,
          "time": 191.052345,
          "velocity": 1
        },
        {
          "duration": 0.2631575000000055,
          "durationTicks": 500,
          "midi": 72,
          "name": "C5",
          "ticks": 363500,
          "time": 191.31550249999998,
          "velocity": 1
        },
        {
          "duration": 0.2631575000000055,
          "durationTicks": 500,
          "midi": 69,
          "name": "A4",
          "ticks": 363500,
          "time": 191.31550249999998,
          "velocity": 1
        },
        {
          "duration": 0.2631575000000055,
          "durationTicks": 500,
          "midi": 65,
          "name": "F4",
          "ticks": 363500,
          "time": 191.31550249999998,
          "velocity": 1
        },
        {
          "duration": 0.2631575000000055,
          "durationTicks": 500,
          "midi": 74,
          "name": "D5",
          "ticks": 364000,
          "time": 191.57865999999999,
          "velocity": 1
        },
        {
          "duration": 0.2631575000000055,
          "durationTicks": 500,
          "midi": 70,
          "name": "A#4",
          "ticks": 364000,
          "time": 191.57865999999999,
          "velocity": 1
        },
        {
          "duration": 0.2631575000000055,
          "durationTicks": 500,
          "midi": 65,
          "name": "F4",
          "ticks": 364000,
          "time": 191.57865999999999,
          "velocity": 1
        },
        {
          "duration": 0.2631575000000055,
          "durationTicks": 500,
          "midi": 74,
          "name": "D5",
          "ticks": 364500,
          "time": 191.8418175,
          "velocity": 1
        },
        {
          "duration": 0.2631575000000055,
          "durationTicks": 500,
          "midi": 70,
          "name": "A#4",
          "ticks": 364500,
          "time": 191.8418175,
          "velocity": 1
        },
        {
          "duration": 0.2631575000000055,
          "durationTicks": 500,
          "midi": 65,
          "name": "F4",
          "ticks": 364500,
          "time": 191.8418175,
          "velocity": 1
        },
        {
          "duration": 0.2631575000000055,
          "durationTicks": 500,
          "midi": 74,
          "name": "D5",
          "ticks": 365000,
          "time": 192.104975,
          "velocity": 1
        },
        {
          "duration": 0.2631575000000055,
          "durationTicks": 500,
          "midi": 70,
          "name": "A#4",
          "ticks": 365000,
          "time": 192.104975,
          "velocity": 1
        },
        {
          "duration": 0.2631575000000055,
          "durationTicks": 500,
          "midi": 65,
          "name": "F4",
          "ticks": 365000,
          "time": 192.104975,
          "velocity": 1
        },
        {
          "duration": 0.26315749999997706,
          "durationTicks": 500,
          "midi": 74,
          "name": "D5",
          "ticks": 365500,
          "time": 192.3681325,
          "velocity": 1
        },
        {
          "duration": 0.26315749999997706,
          "durationTicks": 500,
          "midi": 70,
          "name": "A#4",
          "ticks": 365500,
          "time": 192.3681325,
          "velocity": 1
        },
        {
          "duration": 0.26315749999997706,
          "durationTicks": 500,
          "midi": 65,
          "name": "F4",
          "ticks": 365500,
          "time": 192.3681325,
          "velocity": 1
        },
        {
          "duration": 0.2631575000000055,
          "durationTicks": 500,
          "midi": 72,
          "name": "C5",
          "ticks": 366000,
          "time": 192.63128999999998,
          "velocity": 1
        },
        {
          "duration": 0.2631575000000055,
          "durationTicks": 500,
          "midi": 69,
          "name": "A4",
          "ticks": 366000,
          "time": 192.63128999999998,
          "velocity": 1
        },
        {
          "duration": 0.2631575000000055,
          "durationTicks": 500,
          "midi": 66,
          "name": "F#4",
          "ticks": 366000,
          "time": 192.63128999999998,
          "velocity": 1
        },
        {
          "duration": 0.2631575000000055,
          "durationTicks": 500,
          "midi": 72,
          "name": "C5",
          "ticks": 366500,
          "time": 192.89444749999998,
          "velocity": 1
        },
        {
          "duration": 0.2631575000000055,
          "durationTicks": 500,
          "midi": 69,
          "name": "A4",
          "ticks": 366500,
          "time": 192.89444749999998,
          "velocity": 1
        },
        {
          "duration": 0.2631575000000055,
          "durationTicks": 500,
          "midi": 66,
          "name": "F#4",
          "ticks": 366500,
          "time": 192.89444749999998,
          "velocity": 1
        },
        {
          "duration": 0.2631575000000055,
          "durationTicks": 500,
          "midi": 72,
          "name": "C5",
          "ticks": 367000,
          "time": 193.157605,
          "velocity": 1
        },
        {
          "duration": 0.2631575000000055,
          "durationTicks": 500,
          "midi": 69,
          "name": "A4",
          "ticks": 367000,
          "time": 193.157605,
          "velocity": 1
        },
        {
          "duration": 0.2631575000000055,
          "durationTicks": 500,
          "midi": 66,
          "name": "F#4",
          "ticks": 367000,
          "time": 193.157605,
          "velocity": 1
        },
        {
          "duration": 0.2631575000000055,
          "durationTicks": 500,
          "midi": 72,
          "name": "C5",
          "ticks": 367500,
          "time": 193.4207625,
          "velocity": 1
        },
        {
          "duration": 0.2631575000000055,
          "durationTicks": 500,
          "midi": 69,
          "name": "A4",
          "ticks": 367500,
          "time": 193.4207625,
          "velocity": 1
        },
        {
          "duration": 0.2631575000000055,
          "durationTicks": 500,
          "midi": 66,
          "name": "F#4",
          "ticks": 367500,
          "time": 193.4207625,
          "velocity": 1
        },
        {
          "duration": 0.26315749999997706,
          "durationTicks": 500,
          "midi": 67,
          "name": "G4",
          "ticks": 368000,
          "time": 193.68392,
          "velocity": 1
        },
        {
          "duration": 0.26315749999997706,
          "durationTicks": 500,
          "midi": 70,
          "name": "A#4",
          "ticks": 368000,
          "time": 193.68392,
          "velocity": 1
        },
        {
          "duration": 0.26315749999997706,
          "durationTicks": 500,
          "midi": 74,
          "name": "D5",
          "ticks": 368000,
          "time": 193.68392,
          "velocity": 1
        },
        {
          "duration": 0.2631575000000055,
          "durationTicks": 500,
          "midi": 67,
          "name": "G4",
          "ticks": 368500,
          "time": 193.94707749999998,
          "velocity": 1
        },
        {
          "duration": 0.2631575000000055,
          "durationTicks": 500,
          "midi": 70,
          "name": "A#4",
          "ticks": 368500,
          "time": 193.94707749999998,
          "velocity": 1
        },
        {
          "duration": 0.2631575000000055,
          "durationTicks": 500,
          "midi": 74,
          "name": "D5",
          "ticks": 368500,
          "time": 193.94707749999998,
          "velocity": 1
        },
        {
          "duration": 0.2631575000000055,
          "durationTicks": 500,
          "midi": 67,
          "name": "G4",
          "ticks": 369000,
          "time": 194.21023499999998,
          "velocity": 1
        },
        {
          "duration": 0.2631575000000055,
          "durationTicks": 500,
          "midi": 70,
          "name": "A#4",
          "ticks": 369000,
          "time": 194.21023499999998,
          "velocity": 1
        },
        {
          "duration": 0.2631575000000055,
          "durationTicks": 500,
          "midi": 74,
          "name": "D5",
          "ticks": 369000,
          "time": 194.21023499999998,
          "velocity": 1
        },
        {
          "duration": 0.2631575000000055,
          "durationTicks": 500,
          "midi": 67,
          "name": "G4",
          "ticks": 369500,
          "time": 194.4733925,
          "velocity": 1
        },
        {
          "duration": 0.2631575000000055,
          "durationTicks": 500,
          "midi": 70,
          "name": "A#4",
          "ticks": 369500,
          "time": 194.4733925,
          "velocity": 1
        },
        {
          "duration": 0.2631575000000055,
          "durationTicks": 500,
          "midi": 74,
          "name": "D5",
          "ticks": 369500,
          "time": 194.4733925,
          "velocity": 1
        },
        {
          "duration": 0.2631575000000055,
          "durationTicks": 500,
          "midi": 72,
          "name": "C5",
          "ticks": 370000,
          "time": 194.73655,
          "velocity": 1
        },
        {
          "duration": 0.2631575000000055,
          "durationTicks": 500,
          "midi": 69,
          "name": "A4",
          "ticks": 370000,
          "time": 194.73655,
          "velocity": 1
        },
        {
          "duration": 0.2631575000000055,
          "durationTicks": 500,
          "midi": 65,
          "name": "F4",
          "ticks": 370000,
          "time": 194.73655,
          "velocity": 1
        },
        {
          "duration": 0.2631575000000055,
          "durationTicks": 500,
          "midi": 72,
          "name": "C5",
          "ticks": 370500,
          "time": 194.9997075,
          "velocity": 1
        },
        {
          "duration": 0.2631575000000055,
          "durationTicks": 500,
          "midi": 69,
          "name": "A4",
          "ticks": 370500,
          "time": 194.9997075,
          "velocity": 1
        },
        {
          "duration": 0.2631575000000055,
          "durationTicks": 500,
          "midi": 65,
          "name": "F4",
          "ticks": 370500,
          "time": 194.9997075,
          "velocity": 1
        },
        {
          "duration": 0.26315749999997706,
          "durationTicks": 500,
          "midi": 72,
          "name": "C5",
          "ticks": 371000,
          "time": 195.262865,
          "velocity": 1
        },
        {
          "duration": 0.26315749999997706,
          "durationTicks": 500,
          "midi": 69,
          "name": "A4",
          "ticks": 371000,
          "time": 195.262865,
          "velocity": 1
        },
        {
          "duration": 0.26315749999997706,
          "durationTicks": 500,
          "midi": 65,
          "name": "F4",
          "ticks": 371000,
          "time": 195.262865,
          "velocity": 1
        },
        {
          "duration": 0.2631575000000055,
          "durationTicks": 500,
          "midi": 72,
          "name": "C5",
          "ticks": 371500,
          "time": 195.52602249999998,
          "velocity": 1
        },
        {
          "duration": 0.2631575000000055,
          "durationTicks": 500,
          "midi": 69,
          "name": "A4",
          "ticks": 371500,
          "time": 195.52602249999998,
          "velocity": 1
        },
        {
          "duration": 0.2631575000000055,
          "durationTicks": 500,
          "midi": 65,
          "name": "F4",
          "ticks": 371500,
          "time": 195.52602249999998,
          "velocity": 1
        },
        {
          "duration": 0.2631575000000055,
          "durationTicks": 500,
          "midi": 74,
          "name": "D5",
          "ticks": 372000,
          "time": 195.78918,
          "velocity": 1
        },
        {
          "duration": 0.2631575000000055,
          "durationTicks": 500,
          "midi": 70,
          "name": "A#4",
          "ticks": 372000,
          "time": 195.78918,
          "velocity": 1
        },
        {
          "duration": 0.2631575000000055,
          "durationTicks": 500,
          "midi": 65,
          "name": "F4",
          "ticks": 372000,
          "time": 195.78918,
          "velocity": 1
        },
        {
          "duration": 0.2631575000000055,
          "durationTicks": 500,
          "midi": 74,
          "name": "D5",
          "ticks": 372500,
          "time": 196.0523375,
          "velocity": 1
        },
        {
          "duration": 0.2631575000000055,
          "durationTicks": 500,
          "midi": 70,
          "name": "A#4",
          "ticks": 372500,
          "time": 196.0523375,
          "velocity": 1
        },
        {
          "duration": 0.2631575000000055,
          "durationTicks": 500,
          "midi": 65,
          "name": "F4",
          "ticks": 372500,
          "time": 196.0523375,
          "velocity": 1
        },
        {
          "duration": 0.2631575000000055,
          "durationTicks": 500,
          "midi": 74,
          "name": "D5",
          "ticks": 373000,
          "time": 196.315495,
          "velocity": 1
        },
        {
          "duration": 0.2631575000000055,
          "durationTicks": 500,
          "midi": 70,
          "name": "A#4",
          "ticks": 373000,
          "time": 196.315495,
          "velocity": 1
        },
        {
          "duration": 0.2631575000000055,
          "durationTicks": 500,
          "midi": 65,
          "name": "F4",
          "ticks": 373000,
          "time": 196.315495,
          "velocity": 1
        },
        {
          "duration": 0.26315749999997706,
          "durationTicks": 500,
          "midi": 74,
          "name": "D5",
          "ticks": 373500,
          "time": 196.5786525,
          "velocity": 1
        },
        {
          "duration": 0.26315749999997706,
          "durationTicks": 500,
          "midi": 70,
          "name": "A#4",
          "ticks": 373500,
          "time": 196.5786525,
          "velocity": 1
        },
        {
          "duration": 0.26315749999997706,
          "durationTicks": 500,
          "midi": 65,
          "name": "F4",
          "ticks": 373500,
          "time": 196.5786525,
          "velocity": 1
        },
        {
          "duration": 0.2631575000000055,
          "durationTicks": 500,
          "midi": 72,
          "name": "C5",
          "ticks": 374000,
          "time": 196.84180999999998,
          "velocity": 1
        },
        {
          "duration": 0.2631575000000055,
          "durationTicks": 500,
          "midi": 69,
          "name": "A4",
          "ticks": 374000,
          "time": 196.84180999999998,
          "velocity": 1
        },
        {
          "duration": 0.2631575000000055,
          "durationTicks": 500,
          "midi": 66,
          "name": "F#4",
          "ticks": 374000,
          "time": 196.84180999999998,
          "velocity": 1
        },
        {
          "duration": 0.2631575000000055,
          "durationTicks": 500,
          "midi": 72,
          "name": "C5",
          "ticks": 374500,
          "time": 197.1049675,
          "velocity": 1
        },
        {
          "duration": 0.2631575000000055,
          "durationTicks": 500,
          "midi": 69,
          "name": "A4",
          "ticks": 374500,
          "time": 197.1049675,
          "velocity": 1
        },
        {
          "duration": 0.2631575000000055,
          "durationTicks": 500,
          "midi": 66,
          "name": "F#4",
          "ticks": 374500,
          "time": 197.1049675,
          "velocity": 1
        },
        {
          "duration": 0.2631575000000055,
          "durationTicks": 500,
          "midi": 72,
          "name": "C5",
          "ticks": 375000,
          "time": 197.368125,
          "velocity": 1
        },
        {
          "duration": 0.2631575000000055,
          "durationTicks": 500,
          "midi": 69,
          "name": "A4",
          "ticks": 375000,
          "time": 197.368125,
          "velocity": 1
        },
        {
          "duration": 0.2631575000000055,
          "durationTicks": 500,
          "midi": 66,
          "name": "F#4",
          "ticks": 375000,
          "time": 197.368125,
          "velocity": 1
        },
        {
          "duration": 0.2631575000000055,
          "durationTicks": 500,
          "midi": 72,
          "name": "C5",
          "ticks": 375500,
          "time": 197.6312825,
          "velocity": 1
        },
        {
          "duration": 0.2631575000000055,
          "durationTicks": 500,
          "midi": 69,
          "name": "A4",
          "ticks": 375500,
          "time": 197.6312825,
          "velocity": 1
        },
        {
          "duration": 0.2631575000000055,
          "durationTicks": 500,
          "midi": 66,
          "name": "F#4",
          "ticks": 375500,
          "time": 197.6312825,
          "velocity": 1
        },
        {
          "duration": 0.26315749999997706,
          "durationTicks": 500,
          "midi": 76,
          "name": "E5",
          "ticks": 376000,
          "time": 197.89444,
          "velocity": 1
        },
        {
          "duration": 0.26315749999997706,
          "durationTicks": 500,
          "midi": 71,
          "name": "B4",
          "ticks": 376000,
          "time": 197.89444,
          "velocity": 1
        },
        {
          "duration": 0.26315749999997706,
          "durationTicks": 500,
          "midi": 67,
          "name": "G4",
          "ticks": 376000,
          "time": 197.89444,
          "velocity": 1
        },
        {
          "duration": 0.2631575000000055,
          "durationTicks": 500,
          "midi": 76,
          "name": "E5",
          "ticks": 376500,
          "time": 198.15759749999998,
          "velocity": 1
        },
        {
          "duration": 0.2631575000000055,
          "durationTicks": 500,
          "midi": 71,
          "name": "B4",
          "ticks": 376500,
          "time": 198.15759749999998,
          "velocity": 1
        },
        {
          "duration": 0.2631575000000055,
          "durationTicks": 500,
          "midi": 67,
          "name": "G4",
          "ticks": 376500,
          "time": 198.15759749999998,
          "velocity": 1
        },
        {
          "duration": 0.2631575000000055,
          "durationTicks": 500,
          "midi": 76,
          "name": "E5",
          "ticks": 377000,
          "time": 198.42075499999999,
          "velocity": 1
        },
        {
          "duration": 0.2631575000000055,
          "durationTicks": 500,
          "midi": 71,
          "name": "B4",
          "ticks": 377000,
          "time": 198.42075499999999,
          "velocity": 1
        },
        {
          "duration": 0.2631575000000055,
          "durationTicks": 500,
          "midi": 67,
          "name": "G4",
          "ticks": 377000,
          "time": 198.42075499999999,
          "velocity": 1
        },
        {
          "duration": 0.2631575000000055,
          "durationTicks": 500,
          "midi": 76,
          "name": "E5",
          "ticks": 377500,
          "time": 198.6839125,
          "velocity": 1
        },
        {
          "duration": 0.2631575000000055,
          "durationTicks": 500,
          "midi": 71,
          "name": "B4",
          "ticks": 377500,
          "time": 198.6839125,
          "velocity": 1
        },
        {
          "duration": 0.2631575000000055,
          "durationTicks": 500,
          "midi": 67,
          "name": "G4",
          "ticks": 377500,
          "time": 198.6839125,
          "velocity": 1
        },
        {
          "duration": 0.2631575000000055,
          "durationTicks": 500,
          "midi": 75,
          "name": "D#5",
          "ticks": 378000,
          "time": 198.94707,
          "velocity": 1
        },
        {
          "duration": 0.2631575000000055,
          "durationTicks": 500,
          "midi": 70,
          "name": "A#4",
          "ticks": 378000,
          "time": 198.94707,
          "velocity": 1
        },
        {
          "duration": 0.2631575000000055,
          "durationTicks": 500,
          "midi": 67,
          "name": "G4",
          "ticks": 378000,
          "time": 198.94707,
          "velocity": 1
        },
        {
          "duration": 0.26315749999997706,
          "durationTicks": 500,
          "midi": 75,
          "name": "D#5",
          "ticks": 378500,
          "time": 199.2102275,
          "velocity": 1
        },
        {
          "duration": 0.26315749999997706,
          "durationTicks": 500,
          "midi": 70,
          "name": "A#4",
          "ticks": 378500,
          "time": 199.2102275,
          "velocity": 1
        },
        {
          "duration": 0.26315749999997706,
          "durationTicks": 500,
          "midi": 67,
          "name": "G4",
          "ticks": 378500,
          "time": 199.2102275,
          "velocity": 1
        },
        {
          "duration": 0.2631575000000055,
          "durationTicks": 500,
          "midi": 75,
          "name": "D#5",
          "ticks": 379000,
          "time": 199.47338499999998,
          "velocity": 1
        },
        {
          "duration": 0.2631575000000055,
          "durationTicks": 500,
          "midi": 70,
          "name": "A#4",
          "ticks": 379000,
          "time": 199.47338499999998,
          "velocity": 1
        },
        {
          "duration": 0.2631575000000055,
          "durationTicks": 500,
          "midi": 67,
          "name": "G4",
          "ticks": 379000,
          "time": 199.47338499999998,
          "velocity": 1
        },
        {
          "duration": 0.2631575000000055,
          "durationTicks": 500,
          "midi": 75,
          "name": "D#5",
          "ticks": 379500,
          "time": 199.73654249999998,
          "velocity": 1
        },
        {
          "duration": 0.2631575000000055,
          "durationTicks": 500,
          "midi": 70,
          "name": "A#4",
          "ticks": 379500,
          "time": 199.73654249999998,
          "velocity": 1
        },
        {
          "duration": 0.2631575000000055,
          "durationTicks": 500,
          "midi": 67,
          "name": "G4",
          "ticks": 379500,
          "time": 199.73654249999998,
          "velocity": 1
        },
        {
          "duration": 0.13157874999998853,
          "durationTicks": 250,
          "midi": 75,
          "name": "D#5",
          "ticks": 380000,
          "time": 199.9997,
          "velocity": 1
        },
        {
          "duration": 0.13157875000001695,
          "durationTicks": 250,
          "midi": 70,
          "name": "A#4",
          "ticks": 380250,
          "time": 200.13127874999998,
          "velocity": 1
        },
        {
          "duration": 0.13157874999998853,
          "durationTicks": 250,
          "midi": 67,
          "name": "G4",
          "ticks": 380500,
          "time": 200.2628575,
          "velocity": 1
        },
        {
          "duration": 0.13157875000001695,
          "durationTicks": 250,
          "midi": 70,
          "name": "A#4",
          "ticks": 380750,
          "time": 200.39443624999998,
          "velocity": 1
        },
        {
          "duration": 0.13157874999998853,
          "durationTicks": 250,
          "midi": 75,
          "name": "D#5",
          "ticks": 381000,
          "time": 200.526015,
          "velocity": 1
        },
        {
          "duration": 0.13157874999998853,
          "durationTicks": 250,
          "midi": 70,
          "name": "A#4",
          "ticks": 381250,
          "time": 200.65759375,
          "velocity": 1
        },
        {
          "duration": 0.13157875000001695,
          "durationTicks": 250,
          "midi": 67,
          "name": "G4",
          "ticks": 381500,
          "time": 200.78917249999998,
          "velocity": 1
        },
        {
          "duration": 0.13157874999998853,
          "durationTicks": 250,
          "midi": 70,
          "name": "A#4",
          "ticks": 381750,
          "time": 200.92075125,
          "velocity": 1
        },
        {
          "duration": 0.13157875000001695,
          "durationTicks": 250,
          "midi": 74,
          "name": "D5",
          "ticks": 382000,
          "time": 201.05232999999998,
          "velocity": 1
        },
        {
          "duration": 0.13157874999998853,
          "durationTicks": 250,
          "midi": 69,
          "name": "A4",
          "ticks": 382250,
          "time": 201.18390875,
          "velocity": 1
        },
        {
          "duration": 0.13157874999998853,
          "durationTicks": 250,
          "midi": 66,
          "name": "F#4",
          "ticks": 382500,
          "time": 201.3154875,
          "velocity": 1
        },
        {
          "duration": 0.13157875000001695,
          "durationTicks": 250,
          "midi": 69,
          "name": "A4",
          "ticks": 382750,
          "time": 201.44706624999998,
          "velocity": 1
        },
        {
          "duration": 0.13157874999998853,
          "durationTicks": 250,
          "midi": 74,
          "name": "D5",
          "ticks": 383000,
          "time": 201.578645,
          "velocity": 1
        },
        {
          "duration": 0.13157875000001695,
          "durationTicks": 250,
          "midi": 69,
          "name": "A4",
          "ticks": 383250,
          "time": 201.71022374999998,
          "velocity": 1
        },
        {
          "duration": 0.13157874999998853,
          "durationTicks": 250,
          "midi": 66,
          "name": "F#4",
          "ticks": 383500,
          "time": 201.8418025,
          "velocity": 1
        },
        {
          "duration": 0.13157875000001695,
          "durationTicks": 250,
          "midi": 69,
          "name": "A4",
          "ticks": 383750,
          "time": 201.97338125,
          "velocity": 1
        },
        {
          "duration": 0.13157874999998853,
          "durationTicks": 250,
          "midi": 72,
          "name": "C5",
          "ticks": 384000,
          "time": 202.10496,
          "velocity": 1
        },
        {
          "duration": 0.13157874999998853,
          "durationTicks": 250,
          "midi": 67,
          "name": "G4",
          "ticks": 384250,
          "time": 202.23653875,
          "velocity": 1
        },
        {
          "duration": 0.13157875000001695,
          "durationTicks": 250,
          "midi": 63,
          "name": "D#4",
          "ticks": 384500,
          "time": 202.36811749999998,
          "velocity": 1
        },
        {
          "duration": 0.13157874999998853,
          "durationTicks": 250,
          "midi": 67,
          "name": "G4",
          "ticks": 384750,
          "time": 202.49969625,
          "velocity": 1
        },
        {
          "duration": 0.13157875000001695,
          "durationTicks": 250,
          "midi": 72,
          "name": "C5",
          "ticks": 385000,
          "time": 202.631275,
          "velocity": 1
        },
        {
          "duration": 0.13157874999998853,
          "durationTicks": 250,
          "midi": 67,
          "name": "G4",
          "ticks": 385250,
          "time": 202.76285375,
          "velocity": 1
        },
        {
          "duration": 0.13157874999998853,
          "durationTicks": 250,
          "midi": 63,
          "name": "D#4",
          "ticks": 385500,
          "time": 202.8944325,
          "velocity": 1
        },
        {
          "duration": 0.13157875000001695,
          "durationTicks": 250,
          "midi": 67,
          "name": "G4",
          "ticks": 385750,
          "time": 203.02601124999998,
          "velocity": 1
        },
        {
          "duration": 0.5263149999999825,
          "durationTicks": 1000,
          "midi": 72,
          "name": "C5",
          "ticks": 386000,
          "time": 203.15759,
          "velocity": 1
        },
        {
          "duration": 0.5263149999999825,
          "durationTicks": 1000,
          "midi": 69,
          "name": "A4",
          "ticks": 386000,
          "time": 203.15759,
          "velocity": 1
        },
        {
          "duration": 0.5263149999999825,
          "durationTicks": 1000,
          "midi": 65,
          "name": "F4",
          "ticks": 386000,
          "time": 203.15759,
          "velocity": 1
        },
        {
          "duration": 0.13157874999998853,
          "durationTicks": 250,
          "midi": 75,
          "name": "D#5",
          "ticks": 388000,
          "time": 204.21022,
          "velocity": 1
        },
        {
          "duration": 0.13157875000001695,
          "durationTicks": 250,
          "midi": 70,
          "name": "A#4",
          "ticks": 388250,
          "time": 204.34179874999998,
          "velocity": 1
        },
        {
          "duration": 0.13157874999998853,
          "durationTicks": 250,
          "midi": 67,
          "name": "G4",
          "ticks": 388500,
          "time": 204.4733775,
          "velocity": 1
        },
        {
          "duration": 0.13157875000001695,
          "durationTicks": 250,
          "midi": 70,
          "name": "A#4",
          "ticks": 388750,
          "time": 204.60495625,
          "velocity": 1
        },
        {
          "duration": 0.13157874999998853,
          "durationTicks": 250,
          "midi": 75,
          "name": "D#5",
          "ticks": 389000,
          "time": 204.736535,
          "velocity": 1
        },
        {
          "duration": 0.13157874999998853,
          "durationTicks": 250,
          "midi": 70,
          "name": "A#4",
          "ticks": 389250,
          "time": 204.86811375,
          "velocity": 1
        },
        {
          "duration": 0.13157875000001695,
          "durationTicks": 250,
          "midi": 67,
          "name": "G4",
          "ticks": 389500,
          "time": 204.99969249999998,
          "velocity": 1
        },
        {
          "duration": 0.13157874999998853,
          "durationTicks": 250,
          "midi": 70,
          "name": "A#4",
          "ticks": 389750,
          "time": 205.13127125,
          "velocity": 1
        },
        {
          "duration": 0.13157875000001695,
          "durationTicks": 250,
          "midi": 74,
          "name": "D5",
          "ticks": 390000,
          "time": 205.26285,
          "velocity": 1
        },
        {
          "duration": 0.13157874999998853,
          "durationTicks": 250,
          "midi": 69,
          "name": "A4",
          "ticks": 390250,
          "time": 205.39442875,
          "velocity": 1
        },
        {
          "duration": 0.13157874999998853,
          "durationTicks": 250,
          "midi": 66,
          "name": "F#4",
          "ticks": 390500,
          "time": 205.5260075,
          "velocity": 1
        },
        {
          "duration": 0.13157875000001695,
          "durationTicks": 250,
          "midi": 69,
          "name": "A4",
          "ticks": 390750,
          "time": 205.65758624999998,
          "velocity": 1
        },
        {
          "duration": 0.13157874999998853,
          "durationTicks": 250,
          "midi": 74,
          "name": "D5",
          "ticks": 391000,
          "time": 205.789165,
          "velocity": 1
        },
        {
          "duration": 0.13157875000001695,
          "durationTicks": 250,
          "midi": 69,
          "name": "A4",
          "ticks": 391250,
          "time": 205.92074374999999,
          "velocity": 1
        },
        {
          "duration": 0.13157874999998853,
          "durationTicks": 250,
          "midi": 66,
          "name": "F#4",
          "ticks": 391500,
          "time": 206.0523225,
          "velocity": 1
        },
        {
          "duration": 0.13157874999998853,
          "durationTicks": 250,
          "midi": 69,
          "name": "A4",
          "ticks": 391750,
          "time": 206.18390125,
          "velocity": 1
        },
        {
          "duration": 0.13157875000001695,
          "durationTicks": 250,
          "midi": 72,
          "name": "C5",
          "ticks": 392000,
          "time": 206.31547999999998,
          "velocity": 1
        },
        {
          "duration": 0.13157874999998853,
          "durationTicks": 250,
          "midi": 67,
          "name": "G4",
          "ticks": 392250,
          "time": 206.44705875,
          "velocity": 1
        },
        {
          "duration": 0.13157875000001695,
          "durationTicks": 250,
          "midi": 63,
          "name": "D#4",
          "ticks": 392500,
          "time": 206.57863749999999,
          "velocity": 1
        },
        {
          "duration": 0.13157874999998853,
          "durationTicks": 250,
          "midi": 67,
          "name": "G4",
          "ticks": 392750,
          "time": 206.71021625,
          "velocity": 1
        },
        {
          "duration": 0.13157874999998853,
          "durationTicks": 250,
          "midi": 72,
          "name": "C5",
          "ticks": 393000,
          "time": 206.841795,
          "velocity": 1
        },
        {
          "duration": 0.13157875000001695,
          "durationTicks": 250,
          "midi": 67,
          "name": "G4",
          "ticks": 393250,
          "time": 206.97337374999998,
          "velocity": 1
        },
        {
          "duration": 0.13157874999998853,
          "durationTicks": 250,
          "midi": 63,
          "name": "D#4",
          "ticks": 393500,
          "time": 207.1049525,
          "velocity": 1
        },
        {
          "duration": 0.13157875000001695,
          "durationTicks": 250,
          "midi": 67,
          "name": "G4",
          "ticks": 393750,
          "time": 207.23653124999998,
          "velocity": 1
        },
        {
          "duration": 0.5263149999999825,
          "durationTicks": 1000,
          "midi": 72,
          "name": "C5",
          "ticks": 394000,
          "time": 207.36811,
          "velocity": 1
        },
        {
          "duration": 0.5263149999999825,
          "durationTicks": 1000,
          "midi": 69,
          "name": "A4",
          "ticks": 394000,
          "time": 207.36811,
          "velocity": 1
        },
        {
          "duration": 0.5263149999999825,
          "durationTicks": 1000,
          "midi": 65,
          "name": "F4",
          "ticks": 394000,
          "time": 207.36811,
          "velocity": 1
        },
        {
          "duration": 0.13157874999998853,
          "durationTicks": 250,
          "midi": 75,
          "name": "D#5",
          "ticks": 396000,
          "time": 208.42074,
          "velocity": 1
        },
        {
          "duration": 0.13157875000001695,
          "durationTicks": 250,
          "midi": 70,
          "name": "A#4",
          "ticks": 396250,
          "time": 208.55231874999998,
          "velocity": 1
        },
        {
          "duration": 0.13157874999998853,
          "durationTicks": 250,
          "midi": 67,
          "name": "G4",
          "ticks": 396500,
          "time": 208.6838975,
          "velocity": 1
        },
        {
          "duration": 0.13157874999998853,
          "durationTicks": 250,
          "midi": 70,
          "name": "A#4",
          "ticks": 396750,
          "time": 208.81547625,
          "velocity": 1
        },
        {
          "duration": 0.13157875000001695,
          "durationTicks": 250,
          "midi": 75,
          "name": "D#5",
          "ticks": 397000,
          "time": 208.94705499999998,
          "velocity": 1
        },
        {
          "duration": 0.13157874999998853,
          "durationTicks": 250,
          "midi": 70,
          "name": "A#4",
          "ticks": 397250,
          "time": 209.07863375,
          "velocity": 1
        },
        {
          "duration": 0.13157875000001695,
          "durationTicks": 250,
          "midi": 67,
          "name": "G4",
          "ticks": 397500,
          "time": 209.21021249999998,
          "velocity": 1
        },
        {
          "duration": 0.13157874999998853,
          "durationTicks": 250,
          "midi": 70,
          "name": "A#4",
          "ticks": 397750,
          "time": 209.34179125,
          "velocity": 1
        },
        {
          "duration": 0.13157874999998853,
          "durationTicks": 250,
          "midi": 74,
          "name": "D5",
          "ticks": 398000,
          "time": 209.47337,
          "velocity": 1
        },
        {
          "duration": 0.13157875000001695,
          "durationTicks": 250,
          "midi": 69,
          "name": "A4",
          "ticks": 398250,
          "time": 209.60494874999998,
          "velocity": 1
        },
        {
          "duration": 0.13157874999998853,
          "durationTicks": 250,
          "midi": 66,
          "name": "F#4",
          "ticks": 398500,
          "time": 209.7365275,
          "velocity": 1
        },
        {
          "duration": 0.13157875000001695,
          "durationTicks": 250,
          "midi": 69,
          "name": "A4",
          "ticks": 398750,
          "time": 209.86810624999998,
          "velocity": 1
        },
        {
          "duration": 0.13157874999998853,
          "durationTicks": 250,
          "midi": 74,
          "name": "D5",
          "ticks": 399000,
          "time": 209.999685,
          "velocity": 1
        },
        {
          "duration": 0.13157875000001695,
          "durationTicks": 250,
          "midi": 69,
          "name": "A4",
          "ticks": 399250,
          "time": 210.13126375,
          "velocity": 1
        },
        {
          "duration": 0.13157874999998853,
          "durationTicks": 250,
          "midi": 66,
          "name": "F#4",
          "ticks": 399500,
          "time": 210.2628425,
          "velocity": 1
        },
        {
          "duration": 0.13157874999998853,
          "durationTicks": 250,
          "midi": 69,
          "name": "A4",
          "ticks": 399750,
          "time": 210.39442125,
          "velocity": 1
        },
        {
          "duration": 0.13157875000001695,
          "durationTicks": 250,
          "midi": 72,
          "name": "C5",
          "ticks": 400000,
          "time": 210.52599999999998,
          "velocity": 1
        },
        {
          "duration": 0.13157874999998853,
          "durationTicks": 250,
          "midi": 67,
          "name": "G4",
          "ticks": 400250,
          "time": 210.65757875,
          "velocity": 1
        },
        {
          "duration": 0.13157875000001695,
          "durationTicks": 250,
          "midi": 63,
          "name": "D#4",
          "ticks": 400500,
          "time": 210.7891575,
          "velocity": 1
        },
        {
          "duration": 0.13157874999998853,
          "durationTicks": 250,
          "midi": 67,
          "name": "G4",
          "ticks": 400750,
          "time": 210.92073625,
          "velocity": 1
        },
        {
          "duration": 0.13157874999998853,
          "durationTicks": 250,
          "midi": 72,
          "name": "C5",
          "ticks": 401000,
          "time": 211.052315,
          "velocity": 1
        },
        {
          "duration": 0.13157875000001695,
          "durationTicks": 250,
          "midi": 67,
          "name": "G4",
          "ticks": 401250,
          "time": 211.18389374999998,
          "velocity": 1
        },
        {
          "duration": 0.13157874999998853,
          "durationTicks": 250,
          "midi": 63,
          "name": "D#4",
          "ticks": 401500,
          "time": 211.3154725,
          "velocity": 1
        },
        {
          "duration": 0.13157875000001695,
          "durationTicks": 250,
          "midi": 67,
          "name": "G4",
          "ticks": 401750,
          "time": 211.44705125,
          "velocity": 1
        },
        {
          "duration": 0.5263149999999825,
          "durationTicks": 1000,
          "midi": 72,
          "name": "C5",
          "ticks": 402000,
          "time": 211.57863,
          "velocity": 1
        },
        {
          "duration": 0.5263149999999825,
          "durationTicks": 1000,
          "midi": 69,
          "name": "A4",
          "ticks": 402000,
          "time": 211.57863,
          "velocity": 1
        },
        {
          "duration": 0.5263149999999825,
          "durationTicks": 1000,
          "midi": 65,
          "name": "F4",
          "ticks": 402000,
          "time": 211.57863,
          "velocity": 1
        }
      ]
    },
    {
      "channel": 0,
      "controlChanges": {
        "0": [
          {
            "number": 0,
            "ticks": 0,
            "time": 0,
            "value": 0
          }
        ],
        "7": [
          {
            "number": 7,
            "ticks": 0,
            "time": 0,
            "value": 0.7480314960629921
          }
        ]
      },
      "pitchBends": [],
      "instrument": {
        "family": "piano",
        "number": 0,
        "name": "acoustic grand piano"
      },
      "name": "Around",
      "notes": [],
      "endOfTrackTicks": 340500
    },
    {
      "channel": 3,
      "controlChanges": {},
      "pitchBends": [],
      "instrument": {
        "family": "guitar",
        "number": 27,
        "name": "electric guitar (clean)"
      },
      "name": "",
      "notes": [
        {
          "duration": 0.5263150000000003,
          "durationTicks": 1000,
          "midi": 55,
          "name": "G3",
          "ticks": 37500,
          "time": 19.7368125,
          "velocity": 1
        },
        {
          "duration": 0.5263150000000003,
          "durationTicks": 1000,
          "midi": 55,
          "name": "G3",
          "ticks": 39500,
          "time": 20.7894425,
          "velocity": 1
        },
        {
          "duration": 0.5263150000000003,
          "durationTicks": 1000,
          "midi": 55,
          "name": "G3",
          "ticks": 41500,
          "time": 21.8420725,
          "velocity": 1
        },
        {
          "duration": 0.5263150000000003,
          "durationTicks": 1000,
          "midi": 55,
          "name": "G3",
          "ticks": 43500,
          "time": 22.894702499999998,
          "velocity": 1
        },
        {
          "duration": 0.5263150000000003,
          "durationTicks": 1000,
          "midi": 55,
          "name": "G3",
          "ticks": 45500,
          "time": 23.947332499999998,
          "velocity": 1
        },
        {
          "duration": 0.5263150000000003,
          "durationTicks": 1000,
          "midi": 55,
          "name": "G3",
          "ticks": 47500,
          "time": 24.9999625,
          "velocity": 1
        },
        {
          "duration": 0.5263150000000003,
          "durationTicks": 1000,
          "midi": 55,
          "name": "G3",
          "ticks": 49500,
          "time": 26.0525925,
          "velocity": 1
        },
        {
          "duration": 0.5263150000000003,
          "durationTicks": 1000,
          "midi": 55,
          "name": "G3",
          "ticks": 51500,
          "time": 27.1052225,
          "velocity": 1
        },
        {
          "duration": 0.5263150000000039,
          "durationTicks": 1000,
          "midi": 55,
          "name": "G3",
          "ticks": 69500,
          "time": 36.578892499999995,
          "velocity": 1
        },
        {
          "duration": 0.5263150000000039,
          "durationTicks": 1000,
          "midi": 55,
          "name": "G3",
          "ticks": 71500,
          "time": 37.631522499999996,
          "velocity": 1
        },
        {
          "duration": 0.5263150000000039,
          "durationTicks": 1000,
          "midi": 55,
          "name": "G3",
          "ticks": 73500,
          "time": 38.684152499999996,
          "velocity": 1
        },
        {
          "duration": 0.5263150000000039,
          "durationTicks": 1000,
          "midi": 55,
          "name": "G3",
          "ticks": 75500,
          "time": 39.7367825,
          "velocity": 1
        },
        {
          "duration": 0.5263150000000039,
          "durationTicks": 1000,
          "midi": 55,
          "name": "G3",
          "ticks": 77500,
          "time": 40.7894125,
          "velocity": 1
        },
        {
          "duration": 0.5263149999999968,
          "durationTicks": 1000,
          "midi": 55,
          "name": "G3",
          "ticks": 79500,
          "time": 41.8420425,
          "velocity": 1
        },
        {
          "duration": 0.5263149999999968,
          "durationTicks": 1000,
          "midi": 55,
          "name": "G3",
          "ticks": 81500,
          "time": 42.8946725,
          "velocity": 1
        },
        {
          "duration": 0.526315000000011,
          "durationTicks": 1000,
          "midi": 55,
          "name": "G3",
          "ticks": 149500,
          "time": 78.68409249999999,
          "velocity": 1
        },
        {
          "duration": 0.5263149999999968,
          "durationTicks": 1000,
          "midi": 55,
          "name": "G3",
          "ticks": 151500,
          "time": 79.7367225,
          "velocity": 1
        },
        {
          "duration": 0.526315000000011,
          "durationTicks": 1000,
          "midi": 55,
          "name": "G3",
          "ticks": 153500,
          "time": 80.78935249999999,
          "velocity": 1
        },
        {
          "duration": 0.5263149999999968,
          "durationTicks": 1000,
          "midi": 55,
          "name": "G3",
          "ticks": 155500,
          "time": 81.8419825,
          "velocity": 1
        },
        {
          "duration": 0.5263149999999968,
          "durationTicks": 1000,
          "midi": 55,
          "name": "G3",
          "ticks": 157500,
          "time": 82.8946125,
          "velocity": 1
        },
        {
          "duration": 0.5263149999999968,
          "durationTicks": 1000,
          "midi": 55,
          "name": "G3",
          "ticks": 159500,
          "time": 83.9472425,
          "velocity": 1
        },
        {
          "duration": 0.5263149999999968,
          "durationTicks": 1000,
          "midi": 55,
          "name": "G3",
          "ticks": 161500,
          "time": 84.9998725,
          "velocity": 1
        },
        {
          "duration": 0.2631575000000055,
          "durationTicks": 500,
          "midi": 55,
          "name": "G3",
          "ticks": 292000,
          "time": 153.68398,
          "velocity": 1
        },
        {
          "duration": 0.526315000000011,
          "durationTicks": 1000,
          "midi": 55,
          "name": "G3",
          "ticks": 293500,
          "time": 154.47345249999998,
          "velocity": 1
        },
        {
          "duration": 0.5263149999999825,
          "durationTicks": 1000,
          "midi": 55,
          "name": "G3",
          "ticks": 295500,
          "time": 155.5260825,
          "velocity": 1
        },
        {
          "duration": 0.526315000000011,
          "durationTicks": 1000,
          "midi": 55,
          "name": "G3",
          "ticks": 297500,
          "time": 156.5787125,
          "velocity": 1
        },
        {
          "duration": 0.526315000000011,
          "durationTicks": 1000,
          "midi": 55,
          "name": "G3",
          "ticks": 299500,
          "time": 157.6313425,
          "velocity": 1
        },
        {
          "duration": 0.526315000000011,
          "durationTicks": 1000,
          "midi": 55,
          "name": "G3",
          "ticks": 301500,
          "time": 158.68397249999998,
          "velocity": 1
        },
        {
          "duration": 0.5263149999999825,
          "durationTicks": 1000,
          "midi": 55,
          "name": "G3",
          "ticks": 303500,
          "time": 159.7366025,
          "velocity": 1
        },
        {
          "duration": 0.5263149999999825,
          "durationTicks": 1000,
          "midi": 55,
          "name": "G3",
          "ticks": 305500,
          "time": 160.7892325,
          "velocity": 1
        },
        {
          "duration": 0.526315000000011,
          "durationTicks": 1000,
          "midi": 55,
          "name": "G3",
          "ticks": 307500,
          "time": 161.8418625,
          "velocity": 1
        },
        {
          "duration": 0.526315000000011,
          "durationTicks": 1000,
          "midi": 55,
          "name": "G3",
          "ticks": 309500,
          "time": 162.89449249999998,
          "velocity": 1
        },
        {
          "duration": 0.5263149999999825,
          "durationTicks": 1000,
          "midi": 55,
          "name": "G3",
          "ticks": 311500,
          "time": 163.9471225,
          "velocity": 1
        },
        {
          "duration": 0.5263149999999825,
          "durationTicks": 1000,
          "midi": 55,
          "name": "G3",
          "ticks": 313500,
          "time": 164.9997525,
          "velocity": 1
        },
        {
          "duration": 0.526315000000011,
          "durationTicks": 1000,
          "midi": 55,
          "name": "G3",
          "ticks": 315500,
          "time": 166.0523825,
          "velocity": 1
        },
        {
          "duration": 0.526315000000011,
          "durationTicks": 1000,
          "midi": 55,
          "name": "G3",
          "ticks": 317500,
          "time": 167.1050125,
          "velocity": 1
        },
        {
          "duration": 0.526315000000011,
          "durationTicks": 1000,
          "midi": 55,
          "name": "G3",
          "ticks": 319500,
          "time": 168.15764249999998,
          "velocity": 1
        },
        {
          "duration": 0.5263149999999825,
          "durationTicks": 1000,
          "midi": 55,
          "name": "G3",
          "ticks": 321500,
          "time": 169.2102725,
          "velocity": 1
        },
        {
          "duration": 0.526315000000011,
          "durationTicks": 1000,
          "midi": 55,
          "name": "G3",
          "ticks": 323500,
          "time": 170.2629025,
          "velocity": 1
        },
        {
          "duration": 0.526315000000011,
          "durationTicks": 1000,
          "midi": 55,
          "name": "G3",
          "ticks": 325500,
          "time": 171.3155325,
          "velocity": 1
        },
        {
          "duration": 0.526315000000011,
          "durationTicks": 1000,
          "midi": 55,
          "name": "G3",
          "ticks": 327500,
          "time": 172.36816249999998,
          "velocity": 1
        },
        {
          "duration": 0.5263149999999825,
          "durationTicks": 1000,
          "midi": 55,
          "name": "G3",
          "ticks": 329500,
          "time": 173.4207925,
          "velocity": 1
        },
        {
          "duration": 0.5263149999999825,
          "durationTicks": 1000,
          "midi": 55,
          "name": "G3",
          "ticks": 331500,
          "time": 174.4734225,
          "velocity": 1
        },
        {
          "duration": 0.526315000000011,
          "durationTicks": 1000,
          "midi": 55,
          "name": "G3",
          "ticks": 333500,
          "time": 175.5260525,
          "velocity": 1
        },
        {
          "duration": 0.526315000000011,
          "durationTicks": 1000,
          "midi": 55,
          "name": "G3",
          "ticks": 335500,
          "time": 176.57868249999999,
          "velocity": 1
        },
        {
          "duration": 0.526315000000011,
          "durationTicks": 1000,
          "midi": 55,
          "name": "G3",
          "ticks": 337500,
          "time": 177.63131249999998,
          "velocity": 1
        },
        {
          "duration": 0.5263149999999825,
          "durationTicks": 1000,
          "midi": 55,
          "name": "G3",
          "ticks": 339500,
          "time": 178.6839425,
          "velocity": 1
        }
      ]
    },
    {
      "channel": 0,
      "controlChanges": {
        "0": [
          {
            "number": 0,
            "ticks": 0,
            "time": 0,
            "value": 0
          }
        ],
        "7": [
          {
            "number": 7,
            "ticks": 0,
            "time": 0,
            "value": 0.5039370078740157
          }
        ]
      },
      "pitchBends": [],
      "instrument": {
        "family": "piano",
        "number": 0,
        "name": "acoustic grand piano"
      },
      "name": "Tokyo",
      "notes": [],
      "endOfTrackTicks": 403000
    },
    {
      "channel": 4,
      "controlChanges": {},
      "pitchBends": [],
      "instrument": {
        "family": "synth lead",
        "number": 84,
        "name": "lead 5 (charang)"
      },
      "name": "",
      "notes": [
        {
          "duration": 0.2631574999999984,
          "durationTicks": 500,
          "midi": 46,
          "name": "A#2",
          "ticks": 84000,
          "time": 44.21046,
          "velocity": 1
        },
        {
          "duration": 0.2631574999999984,
          "durationTicks": 500,
          "midi": 58,
          "name": "A#3",
          "ticks": 84000,
          "time": 44.21046,
          "velocity": 1
        },
        {
          "duration": 0.2631574999999984,
          "durationTicks": 500,
          "midi": 53,
          "name": "F3",
          "ticks": 84000,
          "time": 44.21046,
          "velocity": 1
        },
        {
          "duration": 0.2631575000000055,
          "durationTicks": 500,
          "midi": 46,
          "name": "A#2",
          "ticks": 84500,
          "time": 44.473617499999996,
          "velocity": 1
        },
        {
          "duration": 0.2631575000000055,
          "durationTicks": 500,
          "midi": 58,
          "name": "A#3",
          "ticks": 84500,
          "time": 44.473617499999996,
          "velocity": 1
        },
        {
          "duration": 0.2631575000000055,
          "durationTicks": 500,
          "midi": 53,
          "name": "F3",
          "ticks": 84500,
          "time": 44.473617499999996,
          "velocity": 1
        },
        {
          "duration": 0.5263149999999968,
          "durationTicks": 1000,
          "midi": 46,
          "name": "A#2",
          "ticks": 85000,
          "time": 44.736775,
          "velocity": 1
        },
        {
          "duration": 0.2631574999999984,
          "durationTicks": 500,
          "midi": 58,
          "name": "A#3",
          "ticks": 85000,
          "time": 44.736775,
          "velocity": 1
        },
        {
          "duration": 0.2631574999999984,
          "durationTicks": 500,
          "midi": 53,
          "name": "F3",
          "ticks": 85000,
          "time": 44.736775,
          "velocity": 1
        },
        {
          "duration": 0.2631574999999984,
          "durationTicks": 500,
          "midi": 58,
          "name": "A#3",
          "ticks": 85500,
          "time": 44.9999325,
          "velocity": 1
        },
        {
          "duration": 0.2631574999999984,
          "durationTicks": 500,
          "midi": 53,
          "name": "F3",
          "ticks": 85500,
          "time": 44.9999325,
          "velocity": 1
        },
        {
          "duration": 0.2631574999999984,
          "durationTicks": 500,
          "midi": 50,
          "name": "D3",
          "ticks": 86000,
          "time": 45.26309,
          "velocity": 1
        },
        {
          "duration": 0.2631574999999984,
          "durationTicks": 500,
          "midi": 62,
          "name": "D4",
          "ticks": 86000,
          "time": 45.26309,
          "velocity": 1
        },
        {
          "duration": 0.2631574999999984,
          "durationTicks": 500,
          "midi": 57,
          "name": "A3",
          "ticks": 86000,
          "time": 45.26309,
          "velocity": 1
        },
        {
          "duration": 0.2631574999999984,
          "durationTicks": 500,
          "midi": 50,
          "name": "D3",
          "ticks": 86500,
          "time": 45.5262475,
          "velocity": 1
        },
        {
          "duration": 0.2631574999999984,
          "durationTicks": 500,
          "midi": 62,
          "name": "D4",
          "ticks": 86500,
          "time": 45.5262475,
          "velocity": 1
        },
        {
          "duration": 0.2631574999999984,
          "durationTicks": 500,
          "midi": 57,
          "name": "A3",
          "ticks": 86500,
          "time": 45.5262475,
          "velocity": 1
        },
        {
          "duration": 0.5263150000000039,
          "durationTicks": 1000,
          "midi": 50,
          "name": "D3",
          "ticks": 87000,
          "time": 45.789404999999995,
          "velocity": 1
        },
        {
          "duration": 0.2631575000000055,
          "durationTicks": 500,
          "midi": 62,
          "name": "D4",
          "ticks": 87000,
          "time": 45.789404999999995,
          "velocity": 1
        },
        {
          "duration": 0.2631575000000055,
          "durationTicks": 500,
          "midi": 57,
          "name": "A3",
          "ticks": 87000,
          "time": 45.789404999999995,
          "velocity": 1
        },
        {
          "duration": 0.2631574999999984,
          "durationTicks": 500,
          "midi": 62,
          "name": "D4",
          "ticks": 87500,
          "time": 46.0525625,
          "velocity": 1
        },
        {
          "duration": 0.2631574999999984,
          "durationTicks": 500,
          "midi": 57,
          "name": "A3",
          "ticks": 87500,
          "time": 46.0525625,
          "velocity": 1
        },
        {
          "duration": 0.2631574999999984,
          "durationTicks": 500,
          "midi": 55,
          "name": "G3",
          "ticks": 88000,
          "time": 46.31572,
          "velocity": 1
        },
        {
          "duration": 0.2631574999999984,
          "durationTicks": 500,
          "midi": 67,
          "name": "G4",
          "ticks": 88000,
          "time": 46.31572,
          "velocity": 1
        },
        {
          "duration": 0.2631574999999984,
          "durationTicks": 500,
          "midi": 62,
          "name": "D4",
          "ticks": 88000,
          "time": 46.31572,
          "velocity": 1
        },
        {
          "duration": 0.2631574999999984,
          "durationTicks": 500,
          "midi": 55,
          "name": "G3",
          "ticks": 88500,
          "time": 46.5788775,
          "velocity": 1
        },
        {
          "duration": 0.2631574999999984,
          "durationTicks": 500,
          "midi": 67,
          "name": "G4",
          "ticks": 88500,
          "time": 46.5788775,
          "velocity": 1
        },
        {
          "duration": 0.2631574999999984,
          "durationTicks": 500,
          "midi": 62,
          "name": "D4",
          "ticks": 88500,
          "time": 46.5788775,
          "velocity": 1
        },
        {
          "duration": 0.5263150000000039,
          "durationTicks": 1000,
          "midi": 55,
          "name": "G3",
          "ticks": 89000,
          "time": 46.842034999999996,
          "velocity": 1
        },
        {
          "duration": 0.2631575000000055,
          "durationTicks": 500,
          "midi": 67,
          "name": "G4",
          "ticks": 89000,
          "time": 46.842034999999996,
          "velocity": 1
        },
        {
          "duration": 0.2631575000000055,
          "durationTicks": 500,
          "midi": 62,
          "name": "D4",
          "ticks": 89000,
          "time": 46.842034999999996,
          "velocity": 1
        },
        {
          "duration": 0.2631574999999984,
          "durationTicks": 500,
          "midi": 67,
          "name": "G4",
          "ticks": 89500,
          "time": 47.1051925,
          "velocity": 1
        },
        {
          "duration": 0.2631574999999984,
          "durationTicks": 500,
          "midi": 62,
          "name": "D4",
          "ticks": 89500,
          "time": 47.1051925,
          "velocity": 1
        },
        {
          "duration": 0.2631574999999984,
          "durationTicks": 500,
          "midi": 53,
          "name": "F3",
          "ticks": 90000,
          "time": 47.36835,
          "velocity": 1
        },
        {
          "duration": 0.2631574999999984,
          "durationTicks": 500,
          "midi": 65,
          "name": "F4",
          "ticks": 90000,
          "time": 47.36835,
          "velocity": 1
        },
        {
          "duration": 0.2631574999999984,
          "durationTicks": 500,
          "midi": 60,
          "name": "C4",
          "ticks": 90000,
          "time": 47.36835,
          "velocity": 1
        },
        {
          "duration": 0.2631574999999984,
          "durationTicks": 500,
          "midi": 53,
          "name": "F3",
          "ticks": 90500,
          "time": 47.6315075,
          "velocity": 1
        },
        {
          "duration": 0.2631574999999984,
          "durationTicks": 500,
          "midi": 65,
          "name": "F4",
          "ticks": 90500,
          "time": 47.6315075,
          "velocity": 1
        },
        {
          "duration": 0.2631574999999984,
          "durationTicks": 500,
          "midi": 60,
          "name": "C4",
          "ticks": 90500,
          "time": 47.6315075,
          "velocity": 1
        },
        {
          "duration": 0.5263150000000039,
          "durationTicks": 1000,
          "midi": 53,
          "name": "F3",
          "ticks": 91000,
          "time": 47.894664999999996,
          "velocity": 1
        },
        {
          "duration": 0.2631574999999984,
          "durationTicks": 500,
          "midi": 65,
          "name": "F4",
          "ticks": 91000,
          "time": 47.894664999999996,
          "velocity": 1
        },
        {
          "duration": 0.2631574999999984,
          "durationTicks": 500,
          "midi": 60,
          "name": "C4",
          "ticks": 91000,
          "time": 47.894664999999996,
          "velocity": 1
        },
        {
          "duration": 0.2631575000000055,
          "durationTicks": 500,
          "midi": 65,
          "name": "F4",
          "ticks": 91500,
          "time": 48.157822499999995,
          "velocity": 1
        },
        {
          "duration": 0.2631575000000055,
          "durationTicks": 500,
          "midi": 60,
          "name": "C4",
          "ticks": 91500,
          "time": 48.157822499999995,
          "velocity": 1
        },
        {
          "duration": 0.2631574999999984,
          "durationTicks": 500,
          "midi": 46,
          "name": "A#2",
          "ticks": 92000,
          "time": 48.42098,
          "velocity": 1
        },
        {
          "duration": 0.2631574999999984,
          "durationTicks": 500,
          "midi": 58,
          "name": "A#3",
          "ticks": 92000,
          "time": 48.42098,
          "velocity": 1
        },
        {
          "duration": 0.2631574999999984,
          "durationTicks": 500,
          "midi": 53,
          "name": "F3",
          "ticks": 92000,
          "time": 48.42098,
          "velocity": 1
        },
        {
          "duration": 0.2631574999999984,
          "durationTicks": 500,
          "midi": 46,
          "name": "A#2",
          "ticks": 92500,
          "time": 48.6841375,
          "velocity": 1
        },
        {
          "duration": 0.2631574999999984,
          "durationTicks": 500,
          "midi": 58,
          "name": "A#3",
          "ticks": 92500,
          "time": 48.6841375,
          "velocity": 1
        },
        {
          "duration": 0.2631574999999984,
          "durationTicks": 500,
          "midi": 53,
          "name": "F3",
          "ticks": 92500,
          "time": 48.6841375,
          "velocity": 1
        },
        {
          "duration": 0.5263150000000039,
          "durationTicks": 1000,
          "midi": 46,
          "name": "A#2",
          "ticks": 93000,
          "time": 48.947295,
          "velocity": 1
        },
        {
          "duration": 0.2631574999999984,
          "durationTicks": 500,
          "midi": 58,
          "name": "A#3",
          "ticks": 93000,
          "time": 48.947295,
          "velocity": 1
        },
        {
          "duration": 0.2631574999999984,
          "durationTicks": 500,
          "midi": 53,
          "name": "F3",
          "ticks": 93000,
          "time": 48.947295,
          "velocity": 1
        },
        {
          "duration": 0.2631575000000055,
          "durationTicks": 500,
          "midi": 58,
          "name": "A#3",
          "ticks": 93500,
          "time": 49.210452499999995,
          "velocity": 1
        },
        {
          "duration": 0.2631575000000055,
          "durationTicks": 500,
          "midi": 53,
          "name": "F3",
          "ticks": 93500,
          "time": 49.210452499999995,
          "velocity": 1
        },
        {
          "duration": 0.2631574999999984,
          "durationTicks": 500,
          "midi": 50,
          "name": "D3",
          "ticks": 94000,
          "time": 49.47361,
          "velocity": 1
        },
        {
          "duration": 0.2631574999999984,
          "durationTicks": 500,
          "midi": 62,
          "name": "D4",
          "ticks": 94000,
          "time": 49.47361,
          "velocity": 1
        },
        {
          "duration": 0.2631574999999984,
          "durationTicks": 500,
          "midi": 57,
          "name": "A3",
          "ticks": 94000,
          "time": 49.47361,
          "velocity": 1
        },
        {
          "duration": 0.2631574999999984,
          "durationTicks": 500,
          "midi": 50,
          "name": "D3",
          "ticks": 94500,
          "time": 49.7367675,
          "velocity": 1
        },
        {
          "duration": 0.2631574999999984,
          "durationTicks": 500,
          "midi": 62,
          "name": "D4",
          "ticks": 94500,
          "time": 49.7367675,
          "velocity": 1
        },
        {
          "duration": 0.2631574999999984,
          "durationTicks": 500,
          "midi": 57,
          "name": "A3",
          "ticks": 94500,
          "time": 49.7367675,
          "velocity": 1
        },
        {
          "duration": 0.5263150000000039,
          "durationTicks": 1000,
          "midi": 50,
          "name": "D3",
          "ticks": 95000,
          "time": 49.999925,
          "velocity": 1
        },
        {
          "duration": 0.2631574999999984,
          "durationTicks": 500,
          "midi": 62,
          "name": "D4",
          "ticks": 95000,
          "time": 49.999925,
          "velocity": 1
        },
        {
          "duration": 0.2631574999999984,
          "durationTicks": 500,
          "midi": 57,
          "name": "A3",
          "ticks": 95000,
          "time": 49.999925,
          "velocity": 1
        },
        {
          "duration": 0.2631575000000055,
          "durationTicks": 500,
          "midi": 62,
          "name": "D4",
          "ticks": 95500,
          "time": 50.263082499999996,
          "velocity": 1
        },
        {
          "duration": 0.2631575000000055,
          "durationTicks": 500,
          "midi": 57,
          "name": "A3",
          "ticks": 95500,
          "time": 50.263082499999996,
          "velocity": 1
        },
        {
          "duration": 0.2631574999999984,
          "durationTicks": 500,
          "midi": 55,
          "name": "G3",
          "ticks": 96000,
          "time": 50.52624,
          "velocity": 1
        },
        {
          "duration": 0.2631574999999984,
          "durationTicks": 500,
          "midi": 67,
          "name": "G4",
          "ticks": 96000,
          "time": 50.52624,
          "velocity": 1
        },
        {
          "duration": 0.2631574999999984,
          "durationTicks": 500,
          "midi": 62,
          "name": "D4",
          "ticks": 96000,
          "time": 50.52624,
          "velocity": 1
        },
        {
          "duration": 0.2631574999999984,
          "durationTicks": 500,
          "midi": 55,
          "name": "G3",
          "ticks": 96500,
          "time": 50.7893975,
          "velocity": 1
        },
        {
          "duration": 0.2631574999999984,
          "durationTicks": 500,
          "midi": 67,
          "name": "G4",
          "ticks": 96500,
          "time": 50.7893975,
          "velocity": 1
        },
        {
          "duration": 0.2631574999999984,
          "durationTicks": 500,
          "midi": 62,
          "name": "D4",
          "ticks": 96500,
          "time": 50.7893975,
          "velocity": 1
        },
        {
          "duration": 0.5263149999999968,
          "durationTicks": 1000,
          "midi": 55,
          "name": "G3",
          "ticks": 97000,
          "time": 51.052555,
          "velocity": 1
        },
        {
          "duration": 0.2631574999999984,
          "durationTicks": 500,
          "midi": 67,
          "name": "G4",
          "ticks": 97000,
          "time": 51.052555,
          "velocity": 1
        },
        {
          "duration": 0.2631574999999984,
          "durationTicks": 500,
          "midi": 62,
          "name": "D4",
          "ticks": 97000,
          "time": 51.052555,
          "velocity": 1
        },
        {
          "duration": 0.2631574999999984,
          "durationTicks": 500,
          "midi": 67,
          "name": "G4",
          "ticks": 97500,
          "time": 51.3157125,
          "velocity": 1
        },
        {
          "duration": 0.2631574999999984,
          "durationTicks": 500,
          "midi": 62,
          "name": "D4",
          "ticks": 97500,
          "time": 51.3157125,
          "velocity": 1
        },
        {
          "duration": 0.2631575000000055,
          "durationTicks": 500,
          "midi": 53,
          "name": "F3",
          "ticks": 98000,
          "time": 51.578869999999995,
          "velocity": 1
        },
        {
          "duration": 0.2631575000000055,
          "durationTicks": 500,
          "midi": 65,
          "name": "F4",
          "ticks": 98000,
          "time": 51.578869999999995,
          "velocity": 1
        },
        {
          "duration": 0.2631575000000055,
          "durationTicks": 500,
          "midi": 60,
          "name": "C4",
          "ticks": 98000,
          "time": 51.578869999999995,
          "velocity": 1
        },
        {
          "duration": 0.2631574999999984,
          "durationTicks": 500,
          "midi": 53,
          "name": "F3",
          "ticks": 98500,
          "time": 51.8420275,
          "velocity": 1
        },
        {
          "duration": 0.2631574999999984,
          "durationTicks": 500,
          "midi": 65,
          "name": "F4",
          "ticks": 98500,
          "time": 51.8420275,
          "velocity": 1
        },
        {
          "duration": 0.2631574999999984,
          "durationTicks": 500,
          "midi": 60,
          "name": "C4",
          "ticks": 98500,
          "time": 51.8420275,
          "velocity": 1
        },
        {
          "duration": 0.5263149999999968,
          "durationTicks": 1000,
          "midi": 53,
          "name": "F3",
          "ticks": 99000,
          "time": 52.105185,
          "velocity": 1
        },
        {
          "duration": 0.2631574999999984,
          "durationTicks": 500,
          "midi": 65,
          "name": "F4",
          "ticks": 99000,
          "time": 52.105185,
          "velocity": 1
        },
        {
          "duration": 0.2631574999999984,
          "durationTicks": 500,
          "midi": 60,
          "name": "C4",
          "ticks": 99000,
          "time": 52.105185,
          "velocity": 1
        },
        {
          "duration": 0.2631574999999984,
          "durationTicks": 500,
          "midi": 60,
          "name": "C4",
          "ticks": 99500,
          "time": 52.3683425,
          "velocity": 1
        },
        {
          "duration": 0.2631574999999984,
          "durationTicks": 500,
          "midi": 65,
          "name": "F4",
          "ticks": 99500,
          "time": 52.3683425,
          "velocity": 1
        },
        {
          "duration": 0.2631575000000055,
          "durationTicks": 500,
          "midi": 46,
          "name": "A#2",
          "ticks": 100000,
          "time": 52.631499999999996,
          "velocity": 1
        },
        {
          "duration": 0.2631575000000055,
          "durationTicks": 500,
          "midi": 58,
          "name": "A#3",
          "ticks": 100000,
          "time": 52.631499999999996,
          "velocity": 1
        },
        {
          "duration": 0.2631575000000055,
          "durationTicks": 500,
          "midi": 53,
          "name": "F3",
          "ticks": 100000,
          "time": 52.631499999999996,
          "velocity": 1
        },
        {
          "duration": 0.2631574999999984,
          "durationTicks": 500,
          "midi": 46,
          "name": "A#2",
          "ticks": 100500,
          "time": 52.8946575,
          "velocity": 1
        },
        {
          "duration": 0.2631574999999984,
          "durationTicks": 500,
          "midi": 58,
          "name": "A#3",
          "ticks": 100500,
          "time": 52.8946575,
          "velocity": 1
        },
        {
          "duration": 0.2631574999999984,
          "durationTicks": 500,
          "midi": 53,
          "name": "F3",
          "ticks": 100500,
          "time": 52.8946575,
          "velocity": 1
        },
        {
          "duration": 0.5263149999999968,
          "durationTicks": 1000,
          "midi": 46,
          "name": "A#2",
          "ticks": 101000,
          "time": 53.157815,
          "velocity": 1
        },
        {
          "duration": 0.2631574999999984,
          "durationTicks": 500,
          "midi": 58,
          "name": "A#3",
          "ticks": 101000,
          "time": 53.157815,
          "velocity": 1
        },
        {
          "duration": 0.2631574999999984,
          "durationTicks": 500,
          "midi": 53,
          "name": "F3",
          "ticks": 101000,
          "time": 53.157815,
          "velocity": 1
        },
        {
          "duration": 0.2631574999999984,
          "durationTicks": 500,
          "midi": 58,
          "name": "A#3",
          "ticks": 101500,
          "time": 53.4209725,
          "velocity": 1
        },
        {
          "duration": 0.2631574999999984,
          "durationTicks": 500,
          "midi": 53,
          "name": "F3",
          "ticks": 101500,
          "time": 53.4209725,
          "velocity": 1
        },
        {
          "duration": 0.2631574999999984,
          "durationTicks": 500,
          "midi": 50,
          "name": "D3",
          "ticks": 102000,
          "time": 53.684129999999996,
          "velocity": 1
        },
        {
          "duration": 0.2631574999999984,
          "durationTicks": 500,
          "midi": 62,
          "name": "D4",
          "ticks": 102000,
          "time": 53.684129999999996,
          "velocity": 1
        },
        {
          "duration": 0.2631574999999984,
          "durationTicks": 500,
          "midi": 57,
          "name": "A3",
          "ticks": 102000,
          "time": 53.684129999999996,
          "velocity": 1
        },
        {
          "duration": 0.2631575000000055,
          "durationTicks": 500,
          "midi": 50,
          "name": "D3",
          "ticks": 102500,
          "time": 53.947287499999995,
          "velocity": 1
        },
        {
          "duration": 0.2631575000000055,
          "durationTicks": 500,
          "midi": 62,
          "name": "D4",
          "ticks": 102500,
          "time": 53.947287499999995,
          "velocity": 1
        },
        {
          "duration": 0.2631575000000055,
          "durationTicks": 500,
          "midi": 57,
          "name": "A3",
          "ticks": 102500,
          "time": 53.947287499999995,
          "velocity": 1
        },
        {
          "duration": 0.5263149999999968,
          "durationTicks": 1000,
          "midi": 50,
          "name": "D3",
          "ticks": 103000,
          "time": 54.210445,
          "velocity": 1
        },
        {
          "duration": 0.2631574999999984,
          "durationTicks": 500,
          "midi": 62,
          "name": "D4",
          "ticks": 103000,
          "time": 54.210445,
          "velocity": 1
        },
        {
          "duration": 0.2631574999999984,
          "durationTicks": 500,
          "midi": 57,
          "name": "A3",
          "ticks": 103000,
          "time": 54.210445,
          "velocity": 1
        },
        {
          "duration": 0.2631574999999984,
          "durationTicks": 500,
          "midi": 62,
          "name": "D4",
          "ticks": 103500,
          "time": 54.4736025,
          "velocity": 1
        },
        {
          "duration": 0.2631574999999984,
          "durationTicks": 500,
          "midi": 57,
          "name": "A3",
          "ticks": 103500,
          "time": 54.4736025,
          "velocity": 1
        },
        {
          "duration": 0.2631574999999984,
          "durationTicks": 500,
          "midi": 52,
          "name": "E3",
          "ticks": 104000,
          "time": 54.73676,
          "velocity": 1
        },
        {
          "duration": 0.2631574999999984,
          "durationTicks": 500,
          "midi": 64,
          "name": "E4",
          "ticks": 104000,
          "time": 54.73676,
          "velocity": 1
        },
        {
          "duration": 0.2631574999999984,
          "durationTicks": 500,
          "midi": 59,
          "name": "B3",
          "ticks": 104000,
          "time": 54.73676,
          "velocity": 1
        },
        {
          "duration": 0.2631575000000055,
          "durationTicks": 500,
          "midi": 52,
          "name": "E3",
          "ticks": 104500,
          "time": 54.999917499999995,
          "velocity": 1
        },
        {
          "duration": 0.2631575000000055,
          "durationTicks": 500,
          "midi": 64,
          "name": "E4",
          "ticks": 104500,
          "time": 54.999917499999995,
          "velocity": 1
        },
        {
          "duration": 0.2631575000000055,
          "durationTicks": 500,
          "midi": 59,
          "name": "B3",
          "ticks": 104500,
          "time": 54.999917499999995,
          "velocity": 1
        },
        {
          "duration": 0.5263149999999968,
          "durationTicks": 1000,
          "midi": 52,
          "name": "E3",
          "ticks": 105000,
          "time": 55.263075,
          "velocity": 1
        },
        {
          "duration": 0.2631574999999984,
          "durationTicks": 500,
          "midi": 64,
          "name": "E4",
          "ticks": 105000,
          "time": 55.263075,
          "velocity": 1
        },
        {
          "duration": 0.2631574999999984,
          "durationTicks": 500,
          "midi": 59,
          "name": "B3",
          "ticks": 105000,
          "time": 55.263075,
          "velocity": 1
        },
        {
          "duration": 0.2631574999999984,
          "durationTicks": 500,
          "midi": 64,
          "name": "E4",
          "ticks": 105500,
          "time": 55.5262325,
          "velocity": 1
        },
        {
          "duration": 0.2631574999999984,
          "durationTicks": 500,
          "midi": 59,
          "name": "B3",
          "ticks": 105500,
          "time": 55.5262325,
          "velocity": 1
        },
        {
          "duration": 0.2631574999999984,
          "durationTicks": 500,
          "midi": 51,
          "name": "D#3",
          "ticks": 106000,
          "time": 55.78939,
          "velocity": 1
        },
        {
          "duration": 0.2631574999999984,
          "durationTicks": 500,
          "midi": 63,
          "name": "D#4",
          "ticks": 106000,
          "time": 55.78939,
          "velocity": 1
        },
        {
          "duration": 0.2631574999999984,
          "durationTicks": 500,
          "midi": 58,
          "name": "A#3",
          "ticks": 106000,
          "time": 55.78939,
          "velocity": 1
        },
        {
          "duration": 0.2631574999999984,
          "durationTicks": 500,
          "midi": 51,
          "name": "D#3",
          "ticks": 106500,
          "time": 56.052547499999996,
          "velocity": 1
        },
        {
          "duration": 0.2631574999999984,
          "durationTicks": 500,
          "midi": 63,
          "name": "D#4",
          "ticks": 106500,
          "time": 56.052547499999996,
          "velocity": 1
        },
        {
          "duration": 0.2631574999999984,
          "durationTicks": 500,
          "midi": 58,
          "name": "A#3",
          "ticks": 106500,
          "time": 56.052547499999996,
          "velocity": 1
        },
        {
          "duration": 0.5263150000000039,
          "durationTicks": 1000,
          "midi": 51,
          "name": "D#3",
          "ticks": 107000,
          "time": 56.315704999999994,
          "velocity": 1
        },
        {
          "duration": 0.2631575000000055,
          "durationTicks": 500,
          "midi": 63,
          "name": "D#4",
          "ticks": 107000,
          "time": 56.315704999999994,
          "velocity": 1
        },
        {
          "duration": 0.2631575000000055,
          "durationTicks": 500,
          "midi": 58,
          "name": "A#3",
          "ticks": 107000,
          "time": 56.315704999999994,
          "velocity": 1
        },
        {
          "duration": 0.2631574999999984,
          "durationTicks": 500,
          "midi": 63,
          "name": "D#4",
          "ticks": 107500,
          "time": 56.5788625,
          "velocity": 1
        },
        {
          "duration": 0.2631574999999984,
          "durationTicks": 500,
          "midi": 58,
          "name": "A#3",
          "ticks": 107500,
          "time": 56.5788625,
          "velocity": 1
        },
        {
          "duration": 0.2631574999999984,
          "durationTicks": 500,
          "midi": 48,
          "name": "C3",
          "ticks": 108000,
          "time": 56.84202,
          "velocity": 1
        },
        {
          "duration": 0.2631574999999984,
          "durationTicks": 500,
          "midi": 60,
          "name": "C4",
          "ticks": 108000,
          "time": 56.84202,
          "velocity": 1
        },
        {
          "duration": 0.2631574999999984,
          "durationTicks": 500,
          "midi": 48,
          "name": "C3",
          "ticks": 108500,
          "time": 57.105177499999996,
          "velocity": 1
        },
        {
          "duration": 0.2631574999999984,
          "durationTicks": 500,
          "midi": 60,
          "name": "C4",
          "ticks": 108500,
          "time": 57.105177499999996,
          "velocity": 1
        },
        {
          "duration": 0.5263150000000039,
          "durationTicks": 1000,
          "midi": 48,
          "name": "C3",
          "ticks": 109000,
          "time": 57.368334999999995,
          "velocity": 1
        },
        {
          "duration": 0.2631575000000055,
          "durationTicks": 500,
          "midi": 60,
          "name": "C4",
          "ticks": 109000,
          "time": 57.368334999999995,
          "velocity": 1
        },
        {
          "duration": 0.2631574999999984,
          "durationTicks": 500,
          "midi": 60,
          "name": "C4",
          "ticks": 109500,
          "time": 57.6314925,
          "velocity": 1
        },
        {
          "duration": 0.2631574999999984,
          "durationTicks": 500,
          "midi": 50,
          "name": "D3",
          "ticks": 110000,
          "time": 57.89465,
          "velocity": 1
        },
        {
          "duration": 0.2631574999999984,
          "durationTicks": 500,
          "midi": 62,
          "name": "D4",
          "ticks": 110000,
          "time": 57.89465,
          "velocity": 1
        },
        {
          "duration": 0.2631574999999984,
          "durationTicks": 500,
          "midi": 50,
          "name": "D3",
          "ticks": 110500,
          "time": 58.1578075,
          "velocity": 1
        },
        {
          "duration": 0.2631574999999984,
          "durationTicks": 500,
          "midi": 62,
          "name": "D4",
          "ticks": 110500,
          "time": 58.1578075,
          "velocity": 1
        },
        {
          "duration": 0.5263150000000039,
          "durationTicks": 1000,
          "midi": 50,
          "name": "D3",
          "ticks": 111000,
          "time": 58.420964999999995,
          "velocity": 1
        },
        {
          "duration": 0.2631575000000055,
          "durationTicks": 500,
          "midi": 62,
          "name": "D4",
          "ticks": 111000,
          "time": 58.420964999999995,
          "velocity": 1
        },
        {
          "duration": 0.2631574999999984,
          "durationTicks": 500,
          "midi": 62,
          "name": "D4",
          "ticks": 111500,
          "time": 58.6841225,
          "velocity": 1
        },
        {
          "duration": 0.2631574999999984,
          "durationTicks": 500,
          "midi": 51,
          "name": "D#3",
          "ticks": 112000,
          "time": 58.94728,
          "velocity": 1
        },
        {
          "duration": 0.2631574999999984,
          "durationTicks": 500,
          "midi": 63,
          "name": "D#4",
          "ticks": 112000,
          "time": 58.94728,
          "velocity": 1
        },
        {
          "duration": 0.2631574999999984,
          "durationTicks": 500,
          "midi": 51,
          "name": "D#3",
          "ticks": 112500,
          "time": 59.2104375,
          "velocity": 1
        },
        {
          "duration": 0.2631574999999984,
          "durationTicks": 500,
          "midi": 63,
          "name": "D#4",
          "ticks": 112500,
          "time": 59.2104375,
          "velocity": 1
        },
        {
          "duration": 0.5263150000000039,
          "durationTicks": 1000,
          "midi": 51,
          "name": "D#3",
          "ticks": 113000,
          "time": 59.473594999999996,
          "velocity": 1
        },
        {
          "duration": 0.2631574999999984,
          "durationTicks": 500,
          "midi": 63,
          "name": "D#4",
          "ticks": 113000,
          "time": 59.473594999999996,
          "velocity": 1
        },
        {
          "duration": 0.2631575000000055,
          "durationTicks": 500,
          "midi": 63,
          "name": "D#4",
          "ticks": 113500,
          "time": 59.736752499999994,
          "velocity": 1
        },
        {
          "duration": 0.5263149999999968,
          "durationTicks": 1000,
          "midi": 60,
          "name": "C4",
          "ticks": 114000,
          "time": 59.99991,
          "velocity": 1
        },
        {
          "duration": 0.5263149999999968,
          "durationTicks": 1000,
          "midi": 57,
          "name": "A3",
          "ticks": 114000,
          "time": 59.99991,
          "velocity": 1
        },
        {
          "duration": 0.5263149999999968,
          "durationTicks": 1000,
          "midi": 53,
          "name": "F3",
          "ticks": 114000,
          "time": 59.99991,
          "velocity": 1
        },
        {
          "duration": 0.2631575000000055,
          "durationTicks": 500,
          "midi": 46,
          "name": "A#2",
          "ticks": 196000,
          "time": 103.15773999999999,
          "velocity": 1
        },
        {
          "duration": 0.2631575000000055,
          "durationTicks": 500,
          "midi": 58,
          "name": "A#3",
          "ticks": 196000,
          "time": 103.15773999999999,
          "velocity": 1
        },
        {
          "duration": 0.2631575000000055,
          "durationTicks": 500,
          "midi": 53,
          "name": "F3",
          "ticks": 196000,
          "time": 103.15773999999999,
          "velocity": 1
        },
        {
          "duration": 0.2631575000000055,
          "durationTicks": 500,
          "midi": 46,
          "name": "A#2",
          "ticks": 196500,
          "time": 103.4208975,
          "velocity": 1
        },
        {
          "duration": 0.2631575000000055,
          "durationTicks": 500,
          "midi": 58,
          "name": "A#3",
          "ticks": 196500,
          "time": 103.4208975,
          "velocity": 1
        },
        {
          "duration": 0.2631575000000055,
          "durationTicks": 500,
          "midi": 53,
          "name": "F3",
          "ticks": 196500,
          "time": 103.4208975,
          "velocity": 1
        },
        {
          "duration": 0.5263149999999968,
          "durationTicks": 1000,
          "midi": 46,
          "name": "A#2",
          "ticks": 197000,
          "time": 103.684055,
          "velocity": 1
        },
        {
          "duration": 0.2631574999999913,
          "durationTicks": 500,
          "midi": 58,
          "name": "A#3",
          "ticks": 197000,
          "time": 103.684055,
          "velocity": 1
        },
        {
          "duration": 0.2631574999999913,
          "durationTicks": 500,
          "midi": 53,
          "name": "F3",
          "ticks": 197000,
          "time": 103.684055,
          "velocity": 1
        },
        {
          "duration": 0.2631575000000055,
          "durationTicks": 500,
          "midi": 58,
          "name": "A#3",
          "ticks": 197500,
          "time": 103.94721249999999,
          "velocity": 1
        },
        {
          "duration": 0.2631575000000055,
          "durationTicks": 500,
          "midi": 53,
          "name": "F3",
          "ticks": 197500,
          "time": 103.94721249999999,
          "velocity": 1
        },
        {
          "duration": 0.2631574999999913,
          "durationTicks": 500,
          "midi": 50,
          "name": "D3",
          "ticks": 198000,
          "time": 104.21037,
          "velocity": 1
        },
        {
          "duration": 0.2631574999999913,
          "durationTicks": 500,
          "midi": 62,
          "name": "D4",
          "ticks": 198000,
          "time": 104.21037,
          "velocity": 1
        },
        {
          "duration": 0.2631574999999913,
          "durationTicks": 500,
          "midi": 57,
          "name": "A3",
          "ticks": 198000,
          "time": 104.21037,
          "velocity": 1
        },
        {
          "duration": 0.2631575000000055,
          "durationTicks": 500,
          "midi": 50,
          "name": "D3",
          "ticks": 198500,
          "time": 104.47352749999999,
          "velocity": 1
        },
        {
          "duration": 0.2631575000000055,
          "durationTicks": 500,
          "midi": 62,
          "name": "D4",
          "ticks": 198500,
          "time": 104.47352749999999,
          "velocity": 1
        },
        {
          "duration": 0.2631575000000055,
          "durationTicks": 500,
          "midi": 57,
          "name": "A3",
          "ticks": 198500,
          "time": 104.47352749999999,
          "velocity": 1
        },
        {
          "duration": 0.5263149999999968,
          "durationTicks": 1000,
          "midi": 50,
          "name": "D3",
          "ticks": 199000,
          "time": 104.736685,
          "velocity": 1
        },
        {
          "duration": 0.2631575000000055,
          "durationTicks": 500,
          "midi": 62,
          "name": "D4",
          "ticks": 199000,
          "time": 104.736685,
          "velocity": 1
        },
        {
          "duration": 0.2631575000000055,
          "durationTicks": 500,
          "midi": 57,
          "name": "A3",
          "ticks": 199000,
          "time": 104.736685,
          "velocity": 1
        },
        {
          "duration": 0.2631574999999913,
          "durationTicks": 500,
          "midi": 62,
          "name": "D4",
          "ticks": 199500,
          "time": 104.9998425,
          "velocity": 1
        },
        {
          "duration": 0.2631574999999913,
          "durationTicks": 500,
          "midi": 57,
          "name": "A3",
          "ticks": 199500,
          "time": 104.9998425,
          "velocity": 1
        },
        {
          "duration": 0.2631575000000055,
          "durationTicks": 500,
          "midi": 55,
          "name": "G3",
          "ticks": 200000,
          "time": 105.26299999999999,
          "velocity": 1
        },
        {
          "duration": 0.2631575000000055,
          "durationTicks": 500,
          "midi": 67,
          "name": "G4",
          "ticks": 200000,
          "time": 105.26299999999999,
          "velocity": 1
        },
        {
          "duration": 0.2631575000000055,
          "durationTicks": 500,
          "midi": 62,
          "name": "D4",
          "ticks": 200000,
          "time": 105.26299999999999,
          "velocity": 1
        },
        {
          "duration": 0.2631575000000055,
          "durationTicks": 500,
          "midi": 55,
          "name": "G3",
          "ticks": 200500,
          "time": 105.5261575,
          "velocity": 1
        },
        {
          "duration": 0.2631575000000055,
          "durationTicks": 500,
          "midi": 67,
          "name": "G4",
          "ticks": 200500,
          "time": 105.5261575,
          "velocity": 1
        },
        {
          "duration": 0.2631575000000055,
          "durationTicks": 500,
          "midi": 62,
          "name": "D4",
          "ticks": 200500,
          "time": 105.5261575,
          "velocity": 1
        },
        {
          "duration": 0.5263149999999968,
          "durationTicks": 1000,
          "midi": 55,
          "name": "G3",
          "ticks": 201000,
          "time": 105.789315,
          "velocity": 1
        },
        {
          "duration": 0.2631574999999913,
          "durationTicks": 500,
          "midi": 67,
          "name": "G4",
          "ticks": 201000,
          "time": 105.789315,
          "velocity": 1
        },
        {
          "duration": 0.2631574999999913,
          "durationTicks": 500,
          "midi": 62,
          "name": "D4",
          "ticks": 201000,
          "time": 105.789315,
          "velocity": 1
        },
        {
          "duration": 0.2631575000000055,
          "durationTicks": 500,
          "midi": 67,
          "name": "G4",
          "ticks": 201500,
          "time": 106.0524725,
          "velocity": 1
        },
        {
          "duration": 0.2631575000000055,
          "durationTicks": 500,
          "midi": 62,
          "name": "D4",
          "ticks": 201500,
          "time": 106.0524725,
          "velocity": 1
        },
        {
          "duration": 0.2631574999999913,
          "durationTicks": 500,
          "midi": 53,
          "name": "F3",
          "ticks": 202000,
          "time": 106.31563,
          "velocity": 1
        },
        {
          "duration": 0.2631574999999913,
          "durationTicks": 500,
          "midi": 65,
          "name": "F4",
          "ticks": 202000,
          "time": 106.31563,
          "velocity": 1
        },
        {
          "duration": 0.2631574999999913,
          "durationTicks": 500,
          "midi": 60,
          "name": "C4",
          "ticks": 202000,
          "time": 106.31563,
          "velocity": 1
        },
        {
          "duration": 0.2631575000000055,
          "durationTicks": 500,
          "midi": 53,
          "name": "F3",
          "ticks": 202500,
          "time": 106.57878749999999,
          "velocity": 1
        },
        {
          "duration": 0.2631575000000055,
          "durationTicks": 500,
          "midi": 65,
          "name": "F4",
          "ticks": 202500,
          "time": 106.57878749999999,
          "velocity": 1
        },
        {
          "duration": 0.2631575000000055,
          "durationTicks": 500,
          "midi": 60,
          "name": "C4",
          "ticks": 202500,
          "time": 106.57878749999999,
          "velocity": 1
        },
        {
          "duration": 0.5263149999999968,
          "durationTicks": 1000,
          "midi": 53,
          "name": "F3",
          "ticks": 203000,
          "time": 106.841945,
          "velocity": 1
        },
        {
          "duration": 0.2631575000000055,
          "durationTicks": 500,
          "midi": 65,
          "name": "F4",
          "ticks": 203000,
          "time": 106.841945,
          "velocity": 1
        },
        {
          "duration": 0.2631575000000055,
          "durationTicks": 500,
          "midi": 60,
          "name": "C4",
          "ticks": 203000,
          "time": 106.841945,
          "velocity": 1
        },
        {
          "duration": 0.2631574999999913,
          "durationTicks": 500,
          "midi": 65,
          "name": "F4",
          "ticks": 203500,
          "time": 107.1051025,
          "velocity": 1
        },
        {
          "duration": 0.2631574999999913,
          "durationTicks": 500,
          "midi": 60,
          "name": "C4",
          "ticks": 203500,
          "time": 107.1051025,
          "velocity": 1
        },
        {
          "duration": 0.2631575000000055,
          "durationTicks": 500,
          "midi": 46,
          "name": "A#2",
          "ticks": 204000,
          "time": 107.36825999999999,
          "velocity": 1
        },
        {
          "duration": 0.2631575000000055,
          "durationTicks": 500,
          "midi": 58,
          "name": "A#3",
          "ticks": 204000,
          "time": 107.36825999999999,
          "velocity": 1
        },
        {
          "duration": 0.2631575000000055,
          "durationTicks": 500,
          "midi": 53,
          "name": "F3",
          "ticks": 204000,
          "time": 107.36825999999999,
          "velocity": 1
        },
        {
          "duration": 0.2631574999999913,
          "durationTicks": 500,
          "midi": 46,
          "name": "A#2",
          "ticks": 204500,
          "time": 107.6314175,
          "velocity": 1
        },
        {
          "duration": 0.2631574999999913,
          "durationTicks": 500,
          "midi": 58,
          "name": "A#3",
          "ticks": 204500,
          "time": 107.6314175,
          "velocity": 1
        },
        {
          "duration": 0.2631574999999913,
          "durationTicks": 500,
          "midi": 53,
          "name": "F3",
          "ticks": 204500,
          "time": 107.6314175,
          "velocity": 1
        },
        {
          "duration": 0.526315000000011,
          "durationTicks": 1000,
          "midi": 46,
          "name": "A#2",
          "ticks": 205000,
          "time": 107.89457499999999,
          "velocity": 1
        },
        {
          "duration": 0.2631575000000055,
          "durationTicks": 500,
          "midi": 58,
          "name": "A#3",
          "ticks": 205000,
          "time": 107.89457499999999,
          "velocity": 1
        },
        {
          "duration": 0.2631575000000055,
          "durationTicks": 500,
          "midi": 53,
          "name": "F3",
          "ticks": 205000,
          "time": 107.89457499999999,
          "velocity": 1
        },
        {
          "duration": 0.2631575000000055,
          "durationTicks": 500,
          "midi": 58,
          "name": "A#3",
          "ticks": 205500,
          "time": 108.1577325,
          "velocity": 1
        },
        {
          "duration": 0.2631575000000055,
          "durationTicks": 500,
          "midi": 53,
          "name": "F3",
          "ticks": 205500,
          "time": 108.1577325,
          "velocity": 1
        },
        {
          "duration": 0.2631574999999913,
          "durationTicks": 500,
          "midi": 50,
          "name": "D3",
          "ticks": 206000,
          "time": 108.42089,
          "velocity": 1
        },
        {
          "duration": 0.2631574999999913,
          "durationTicks": 500,
          "midi": 62,
          "name": "D4",
          "ticks": 206000,
          "time": 108.42089,
          "velocity": 1
        },
        {
          "duration": 0.2631574999999913,
          "durationTicks": 500,
          "midi": 57,
          "name": "A3",
          "ticks": 206000,
          "time": 108.42089,
          "velocity": 1
        },
        {
          "duration": 0.2631575000000055,
          "durationTicks": 500,
          "midi": 50,
          "name": "D3",
          "ticks": 206500,
          "time": 108.68404749999999,
          "velocity": 1
        },
        {
          "duration": 0.2631575000000055,
          "durationTicks": 500,
          "midi": 62,
          "name": "D4",
          "ticks": 206500,
          "time": 108.68404749999999,
          "velocity": 1
        },
        {
          "duration": 0.2631575000000055,
          "durationTicks": 500,
          "midi": 57,
          "name": "A3",
          "ticks": 206500,
          "time": 108.68404749999999,
          "velocity": 1
        },
        {
          "duration": 0.5263149999999968,
          "durationTicks": 1000,
          "midi": 50,
          "name": "D3",
          "ticks": 207000,
          "time": 108.947205,
          "velocity": 1
        },
        {
          "duration": 0.2631575000000055,
          "durationTicks": 500,
          "midi": 62,
          "name": "D4",
          "ticks": 207000,
          "time": 108.947205,
          "velocity": 1
        },
        {
          "duration": 0.2631575000000055,
          "durationTicks": 500,
          "midi": 57,
          "name": "A3",
          "ticks": 207000,
          "time": 108.947205,
          "velocity": 1
        },
        {
          "duration": 0.2631574999999913,
          "durationTicks": 500,
          "midi": 62,
          "name": "D4",
          "ticks": 207500,
          "time": 109.2103625,
          "velocity": 1
        },
        {
          "duration": 0.2631574999999913,
          "durationTicks": 500,
          "midi": 57,
          "name": "A3",
          "ticks": 207500,
          "time": 109.2103625,
          "velocity": 1
        },
        {
          "duration": 0.2631575000000055,
          "durationTicks": 500,
          "midi": 55,
          "name": "G3",
          "ticks": 208000,
          "time": 109.47352,
          "velocity": 1
        },
        {
          "duration": 0.2631575000000055,
          "durationTicks": 500,
          "midi": 67,
          "name": "G4",
          "ticks": 208000,
          "time": 109.47352,
          "velocity": 1
        },
        {
          "duration": 0.2631575000000055,
          "durationTicks": 500,
          "midi": 62,
          "name": "D4",
          "ticks": 208000,
          "time": 109.47352,
          "velocity": 1
        },
        {
          "duration": 0.2631574999999913,
          "durationTicks": 500,
          "midi": 55,
          "name": "G3",
          "ticks": 208500,
          "time": 109.7366775,
          "velocity": 1
        },
        {
          "duration": 0.2631574999999913,
          "durationTicks": 500,
          "midi": 67,
          "name": "G4",
          "ticks": 208500,
          "time": 109.7366775,
          "velocity": 1
        },
        {
          "duration": 0.2631574999999913,
          "durationTicks": 500,
          "midi": 62,
          "name": "D4",
          "ticks": 208500,
          "time": 109.7366775,
          "velocity": 1
        },
        {
          "duration": 0.526315000000011,
          "durationTicks": 1000,
          "midi": 55,
          "name": "G3",
          "ticks": 209000,
          "time": 109.99983499999999,
          "velocity": 1
        },
        {
          "duration": 0.2631575000000055,
          "durationTicks": 500,
          "midi": 67,
          "name": "G4",
          "ticks": 209000,
          "time": 109.99983499999999,
          "velocity": 1
        },
        {
          "duration": 0.2631575000000055,
          "durationTicks": 500,
          "midi": 62,
          "name": "D4",
          "ticks": 209000,
          "time": 109.99983499999999,
          "velocity": 1
        },
        {
          "duration": 0.2631575000000055,
          "durationTicks": 500,
          "midi": 67,
          "name": "G4",
          "ticks": 209500,
          "time": 110.2629925,
          "velocity": 1
        },
        {
          "duration": 0.2631575000000055,
          "durationTicks": 500,
          "midi": 62,
          "name": "D4",
          "ticks": 209500,
          "time": 110.2629925,
          "velocity": 1
        },
        {
          "duration": 0.2631574999999913,
          "durationTicks": 500,
          "midi": 53,
          "name": "F3",
          "ticks": 210000,
          "time": 110.52615,
          "velocity": 1
        },
        {
          "duration": 0.2631574999999913,
          "durationTicks": 500,
          "midi": 65,
          "name": "F4",
          "ticks": 210000,
          "time": 110.52615,
          "velocity": 1
        },
        {
          "duration": 0.2631574999999913,
          "durationTicks": 500,
          "midi": 60,
          "name": "C4",
          "ticks": 210000,
          "time": 110.52615,
          "velocity": 1
        },
        {
          "duration": 0.2631575000000055,
          "durationTicks": 500,
          "midi": 53,
          "name": "F3",
          "ticks": 210500,
          "time": 110.78930749999999,
          "velocity": 1
        },
        {
          "duration": 0.2631575000000055,
          "durationTicks": 500,
          "midi": 65,
          "name": "F4",
          "ticks": 210500,
          "time": 110.78930749999999,
          "velocity": 1
        },
        {
          "duration": 0.2631575000000055,
          "durationTicks": 500,
          "midi": 60,
          "name": "C4",
          "ticks": 210500,
          "time": 110.78930749999999,
          "velocity": 1
        },
        {
          "duration": 0.5263149999999968,
          "durationTicks": 1000,
          "midi": 53,
          "name": "F3",
          "ticks": 211000,
          "time": 111.052465,
          "velocity": 1
        },
        {
          "duration": 0.2631574999999913,
          "durationTicks": 500,
          "midi": 65,
          "name": "F4",
          "ticks": 211000,
          "time": 111.052465,
          "velocity": 1
        },
        {
          "duration": 0.2631574999999913,
          "durationTicks": 500,
          "midi": 60,
          "name": "C4",
          "ticks": 211000,
          "time": 111.052465,
          "velocity": 1
        },
        {
          "duration": 0.2631575000000055,
          "durationTicks": 500,
          "midi": 60,
          "name": "C4",
          "ticks": 211500,
          "time": 111.31562249999999,
          "velocity": 1
        },
        {
          "duration": 0.2631575000000055,
          "durationTicks": 500,
          "midi": 65,
          "name": "F4",
          "ticks": 211500,
          "time": 111.31562249999999,
          "velocity": 1
        },
        {
          "duration": 0.2631575000000055,
          "durationTicks": 500,
          "midi": 46,
          "name": "A#2",
          "ticks": 212000,
          "time": 111.57878,
          "velocity": 1
        },
        {
          "duration": 0.2631575000000055,
          "durationTicks": 500,
          "midi": 58,
          "name": "A#3",
          "ticks": 212000,
          "time": 111.57878,
          "velocity": 1
        },
        {
          "duration": 0.2631575000000055,
          "durationTicks": 500,
          "midi": 53,
          "name": "F3",
          "ticks": 212000,
          "time": 111.57878,
          "velocity": 1
        },
        {
          "duration": 0.2631574999999913,
          "durationTicks": 500,
          "midi": 46,
          "name": "A#2",
          "ticks": 212500,
          "time": 111.8419375,
          "velocity": 1
        },
        {
          "duration": 0.2631574999999913,
          "durationTicks": 500,
          "midi": 58,
          "name": "A#3",
          "ticks": 212500,
          "time": 111.8419375,
          "velocity": 1
        },
        {
          "duration": 0.2631574999999913,
          "durationTicks": 500,
          "midi": 53,
          "name": "F3",
          "ticks": 212500,
          "time": 111.8419375,
          "velocity": 1
        },
        {
          "duration": 0.5263149999999968,
          "durationTicks": 1000,
          "midi": 46,
          "name": "A#2",
          "ticks": 213000,
          "time": 112.10509499999999,
          "velocity": 1
        },
        {
          "duration": 0.2631575000000055,
          "durationTicks": 500,
          "midi": 58,
          "name": "A#3",
          "ticks": 213000,
          "time": 112.10509499999999,
          "velocity": 1
        },
        {
          "duration": 0.2631575000000055,
          "durationTicks": 500,
          "midi": 53,
          "name": "F3",
          "ticks": 213000,
          "time": 112.10509499999999,
          "velocity": 1
        },
        {
          "duration": 0.2631574999999913,
          "durationTicks": 500,
          "midi": 58,
          "name": "A#3",
          "ticks": 213500,
          "time": 112.3682525,
          "velocity": 1
        },
        {
          "duration": 0.2631574999999913,
          "durationTicks": 500,
          "midi": 53,
          "name": "F3",
          "ticks": 213500,
          "time": 112.3682525,
          "velocity": 1
        },
        {
          "duration": 0.2631575000000055,
          "durationTicks": 500,
          "midi": 50,
          "name": "D3",
          "ticks": 214000,
          "time": 112.63140999999999,
          "velocity": 1
        },
        {
          "duration": 0.2631575000000055,
          "durationTicks": 500,
          "midi": 62,
          "name": "D4",
          "ticks": 214000,
          "time": 112.63140999999999,
          "velocity": 1
        },
        {
          "duration": 0.2631575000000055,
          "durationTicks": 500,
          "midi": 57,
          "name": "A3",
          "ticks": 214000,
          "time": 112.63140999999999,
          "velocity": 1
        },
        {
          "duration": 0.2631575000000055,
          "durationTicks": 500,
          "midi": 50,
          "name": "D3",
          "ticks": 214500,
          "time": 112.8945675,
          "velocity": 1
        },
        {
          "duration": 0.2631575000000055,
          "durationTicks": 500,
          "midi": 62,
          "name": "D4",
          "ticks": 214500,
          "time": 112.8945675,
          "velocity": 1
        },
        {
          "duration": 0.2631575000000055,
          "durationTicks": 500,
          "midi": 57,
          "name": "A3",
          "ticks": 214500,
          "time": 112.8945675,
          "velocity": 1
        },
        {
          "duration": 0.5263149999999968,
          "durationTicks": 1000,
          "midi": 50,
          "name": "D3",
          "ticks": 215000,
          "time": 113.157725,
          "velocity": 1
        },
        {
          "duration": 0.2631574999999913,
          "durationTicks": 500,
          "midi": 62,
          "name": "D4",
          "ticks": 215000,
          "time": 113.157725,
          "velocity": 1
        },
        {
          "duration": 0.2631574999999913,
          "durationTicks": 500,
          "midi": 57,
          "name": "A3",
          "ticks": 215000,
          "time": 113.157725,
          "velocity": 1
        },
        {
          "duration": 0.2631575000000055,
          "durationTicks": 500,
          "midi": 62,
          "name": "D4",
          "ticks": 215500,
          "time": 113.42088249999999,
          "velocity": 1
        },
        {
          "duration": 0.2631575000000055,
          "durationTicks": 500,
          "midi": 57,
          "name": "A3",
          "ticks": 215500,
          "time": 113.42088249999999,
          "velocity": 1
        },
        {
          "duration": 0.2631575000000055,
          "durationTicks": 500,
          "midi": 52,
          "name": "E3",
          "ticks": 216000,
          "time": 113.68404,
          "velocity": 1
        },
        {
          "duration": 0.2631575000000055,
          "durationTicks": 500,
          "midi": 64,
          "name": "E4",
          "ticks": 216000,
          "time": 113.68404,
          "velocity": 1
        },
        {
          "duration": 0.2631575000000055,
          "durationTicks": 500,
          "midi": 59,
          "name": "B3",
          "ticks": 216000,
          "time": 113.68404,
          "velocity": 1
        },
        {
          "duration": 0.2631574999999913,
          "durationTicks": 500,
          "midi": 52,
          "name": "E3",
          "ticks": 216500,
          "time": 113.9471975,
          "velocity": 1
        },
        {
          "duration": 0.2631574999999913,
          "durationTicks": 500,
          "midi": 64,
          "name": "E4",
          "ticks": 216500,
          "time": 113.9471975,
          "velocity": 1
        },
        {
          "duration": 0.2631574999999913,
          "durationTicks": 500,
          "midi": 59,
          "name": "B3",
          "ticks": 216500,
          "time": 113.9471975,
          "velocity": 1
        },
        {
          "duration": 0.5263149999999968,
          "durationTicks": 1000,
          "midi": 52,
          "name": "E3",
          "ticks": 217000,
          "time": 114.21035499999999,
          "velocity": 1
        },
        {
          "duration": 0.2631575000000055,
          "durationTicks": 500,
          "midi": 64,
          "name": "E4",
          "ticks": 217000,
          "time": 114.21035499999999,
          "velocity": 1
        },
        {
          "duration": 0.2631575000000055,
          "durationTicks": 500,
          "midi": 59,
          "name": "B3",
          "ticks": 217000,
          "time": 114.21035499999999,
          "velocity": 1
        },
        {
          "duration": 0.2631574999999913,
          "durationTicks": 500,
          "midi": 64,
          "name": "E4",
          "ticks": 217500,
          "time": 114.4735125,
          "velocity": 1
        },
        {
          "duration": 0.2631574999999913,
          "durationTicks": 500,
          "midi": 59,
          "name": "B3",
          "ticks": 217500,
          "time": 114.4735125,
          "velocity": 1
        },
        {
          "duration": 0.2631575000000055,
          "durationTicks": 500,
          "midi": 51,
          "name": "D#3",
          "ticks": 218000,
          "time": 114.73666999999999,
          "velocity": 1
        },
        {
          "duration": 0.2631575000000055,
          "durationTicks": 500,
          "midi": 63,
          "name": "D#4",
          "ticks": 218000,
          "time": 114.73666999999999,
          "velocity": 1
        },
        {
          "duration": 0.2631575000000055,
          "durationTicks": 500,
          "midi": 58,
          "name": "A#3",
          "ticks": 218000,
          "time": 114.73666999999999,
          "velocity": 1
        },
        {
          "duration": 0.2631575000000055,
          "durationTicks": 500,
          "midi": 51,
          "name": "D#3",
          "ticks": 218500,
          "time": 114.9998275,
          "velocity": 1
        },
        {
          "duration": 0.2631575000000055,
          "durationTicks": 500,
          "midi": 63,
          "name": "D#4",
          "ticks": 218500,
          "time": 114.9998275,
          "velocity": 1
        },
        {
          "duration": 0.2631575000000055,
          "durationTicks": 500,
          "midi": 58,
          "name": "A#3",
          "ticks": 218500,
          "time": 114.9998275,
          "velocity": 1
        },
        {
          "duration": 0.5263149999999968,
          "durationTicks": 1000,
          "midi": 51,
          "name": "D#3",
          "ticks": 219000,
          "time": 115.262985,
          "velocity": 1
        },
        {
          "duration": 0.2631574999999913,
          "durationTicks": 500,
          "midi": 63,
          "name": "D#4",
          "ticks": 219000,
          "time": 115.262985,
          "velocity": 1
        },
        {
          "duration": 0.2631574999999913,
          "durationTicks": 500,
          "midi": 58,
          "name": "A#3",
          "ticks": 219000,
          "time": 115.262985,
          "velocity": 1
        },
        {
          "duration": 0.2631575000000055,
          "durationTicks": 500,
          "midi": 63,
          "name": "D#4",
          "ticks": 219500,
          "time": 115.52614249999999,
          "velocity": 1
        },
        {
          "duration": 0.2631575000000055,
          "durationTicks": 500,
          "midi": 58,
          "name": "A#3",
          "ticks": 219500,
          "time": 115.52614249999999,
          "velocity": 1
        },
        {
          "duration": 0.2631574999999913,
          "durationTicks": 500,
          "midi": 48,
          "name": "C3",
          "ticks": 220000,
          "time": 115.7893,
          "velocity": 1
        },
        {
          "duration": 0.2631574999999913,
          "durationTicks": 500,
          "midi": 60,
          "name": "C4",
          "ticks": 220000,
          "time": 115.7893,
          "velocity": 1
        },
        {
          "duration": 0.2631575000000055,
          "durationTicks": 500,
          "midi": 48,
          "name": "C3",
          "ticks": 220500,
          "time": 116.05245749999999,
          "velocity": 1
        },
        {
          "duration": 0.2631575000000055,
          "durationTicks": 500,
          "midi": 60,
          "name": "C4",
          "ticks": 220500,
          "time": 116.05245749999999,
          "velocity": 1
        },
        {
          "duration": 0.5263149999999968,
          "durationTicks": 1000,
          "midi": 48,
          "name": "C3",
          "ticks": 221000,
          "time": 116.315615,
          "velocity": 1
        },
        {
          "duration": 0.2631575000000055,
          "durationTicks": 500,
          "midi": 60,
          "name": "C4",
          "ticks": 221000,
          "time": 116.315615,
          "velocity": 1
        },
        {
          "duration": 0.2631574999999913,
          "durationTicks": 500,
          "midi": 60,
          "name": "C4",
          "ticks": 221500,
          "time": 116.5787725,
          "velocity": 1
        },
        {
          "duration": 0.2631575000000055,
          "durationTicks": 500,
          "midi": 50,
          "name": "D3",
          "ticks": 222000,
          "time": 116.84192999999999,
          "velocity": 1
        },
        {
          "duration": 0.2631575000000055,
          "durationTicks": 500,
          "midi": 62,
          "name": "D4",
          "ticks": 222000,
          "time": 116.84192999999999,
          "velocity": 1
        },
        {
          "duration": 0.2631575000000055,
          "durationTicks": 500,
          "midi": 50,
          "name": "D3",
          "ticks": 222500,
          "time": 117.1050875,
          "velocity": 1
        },
        {
          "duration": 0.2631575000000055,
          "durationTicks": 500,
          "midi": 62,
          "name": "D4",
          "ticks": 222500,
          "time": 117.1050875,
          "velocity": 1
        },
        {
          "duration": 0.5263149999999968,
          "durationTicks": 1000,
          "midi": 50,
          "name": "D3",
          "ticks": 223000,
          "time": 117.368245,
          "velocity": 1
        },
        {
          "duration": 0.2631574999999913,
          "durationTicks": 500,
          "midi": 62,
          "name": "D4",
          "ticks": 223000,
          "time": 117.368245,
          "velocity": 1
        },
        {
          "duration": 0.2631575000000055,
          "durationTicks": 500,
          "midi": 62,
          "name": "D4",
          "ticks": 223500,
          "time": 117.6314025,
          "velocity": 1
        },
        {
          "duration": 0.2631574999999913,
          "durationTicks": 500,
          "midi": 51,
          "name": "D#3",
          "ticks": 224000,
          "time": 117.89456,
          "velocity": 1
        },
        {
          "duration": 0.2631574999999913,
          "durationTicks": 500,
          "midi": 63,
          "name": "D#4",
          "ticks": 224000,
          "time": 117.89456,
          "velocity": 1
        },
        {
          "duration": 0.2631575000000055,
          "durationTicks": 500,
          "midi": 51,
          "name": "D#3",
          "ticks": 224500,
          "time": 118.15771749999999,
          "velocity": 1
        },
        {
          "duration": 0.2631575000000055,
          "durationTicks": 500,
          "midi": 63,
          "name": "D#4",
          "ticks": 224500,
          "time": 118.15771749999999,
          "velocity": 1
        },
        {
          "duration": 0.5263149999999968,
          "durationTicks": 1000,
          "midi": 51,
          "name": "D#3",
          "ticks": 225000,
          "time": 118.420875,
          "velocity": 1
        },
        {
          "duration": 0.2631575000000055,
          "durationTicks": 500,
          "midi": 63,
          "name": "D#4",
          "ticks": 225000,
          "time": 118.420875,
          "velocity": 1
        },
        {
          "duration": 0.2631574999999913,
          "durationTicks": 500,
          "midi": 63,
          "name": "D#4",
          "ticks": 225500,
          "time": 118.6840325,
          "velocity": 1
        },
        {
          "duration": 0.5263149999999968,
          "durationTicks": 1000,
          "midi": 60,
          "name": "C4",
          "ticks": 226000,
          "time": 118.94718999999999,
          "velocity": 1
        },
        {
          "duration": 0.5263149999999968,
          "durationTicks": 1000,
          "midi": 57,
          "name": "A3",
          "ticks": 226000,
          "time": 118.94718999999999,
          "velocity": 1
        },
        {
          "duration": 0.5263149999999968,
          "durationTicks": 1000,
          "midi": 53,
          "name": "F3",
          "ticks": 226000,
          "time": 118.94718999999999,
          "velocity": 1
        },
        {
          "duration": 0.2631575000000055,
          "durationTicks": 500,
          "midi": 46,
          "name": "A#2",
          "ticks": 356000,
          "time": 187.36813999999998,
          "velocity": 1
        },
        {
          "duration": 0.2631575000000055,
          "durationTicks": 500,
          "midi": 58,
          "name": "A#3",
          "ticks": 356000,
          "time": 187.36813999999998,
          "velocity": 1
        },
        {
          "duration": 0.2631575000000055,
          "durationTicks": 500,
          "midi": 53,
          "name": "F3",
          "ticks": 356000,
          "time": 187.36813999999998,
          "velocity": 1
        },
        {
          "duration": 0.2631575000000055,
          "durationTicks": 500,
          "midi": 46,
          "name": "A#2",
          "ticks": 356500,
          "time": 187.6312975,
          "velocity": 1
        },
        {
          "duration": 0.2631575000000055,
          "durationTicks": 500,
          "midi": 58,
          "name": "A#3",
          "ticks": 356500,
          "time": 187.6312975,
          "velocity": 1
        },
        {
          "duration": 0.2631575000000055,
          "durationTicks": 500,
          "midi": 53,
          "name": "F3",
          "ticks": 356500,
          "time": 187.6312975,
          "velocity": 1
        },
        {
          "duration": 0.526315000000011,
          "durationTicks": 1000,
          "midi": 46,
          "name": "A#2",
          "ticks": 357000,
          "time": 187.894455,
          "velocity": 1
        },
        {
          "duration": 0.2631575000000055,
          "durationTicks": 500,
          "midi": 58,
          "name": "A#3",
          "ticks": 357000,
          "time": 187.894455,
          "velocity": 1
        },
        {
          "duration": 0.2631575000000055,
          "durationTicks": 500,
          "midi": 53,
          "name": "F3",
          "ticks": 357000,
          "time": 187.894455,
          "velocity": 1
        },
        {
          "duration": 0.2631575000000055,
          "durationTicks": 500,
          "midi": 58,
          "name": "A#3",
          "ticks": 357500,
          "time": 188.1576125,
          "velocity": 1
        },
        {
          "duration": 0.2631575000000055,
          "durationTicks": 500,
          "midi": 53,
          "name": "F3",
          "ticks": 357500,
          "time": 188.1576125,
          "velocity": 1
        },
        {
          "duration": 0.26315749999997706,
          "durationTicks": 500,
          "midi": 50,
          "name": "D3",
          "ticks": 358000,
          "time": 188.42077,
          "velocity": 1
        },
        {
          "duration": 0.26315749999997706,
          "durationTicks": 500,
          "midi": 62,
          "name": "D4",
          "ticks": 358000,
          "time": 188.42077,
          "velocity": 1
        },
        {
          "duration": 0.26315749999997706,
          "durationTicks": 500,
          "midi": 57,
          "name": "A3",
          "ticks": 358000,
          "time": 188.42077,
          "velocity": 1
        },
        {
          "duration": 0.2631575000000055,
          "durationTicks": 500,
          "midi": 50,
          "name": "D3",
          "ticks": 358500,
          "time": 188.68392749999998,
          "velocity": 1
        },
        {
          "duration": 0.2631575000000055,
          "durationTicks": 500,
          "midi": 62,
          "name": "D4",
          "ticks": 358500,
          "time": 188.68392749999998,
          "velocity": 1
        },
        {
          "duration": 0.2631575000000055,
          "durationTicks": 500,
          "midi": 57,
          "name": "A3",
          "ticks": 358500,
          "time": 188.68392749999998,
          "velocity": 1
        },
        {
          "duration": 0.526315000000011,
          "durationTicks": 1000,
          "midi": 50,
          "name": "D3",
          "ticks": 359000,
          "time": 188.947085,
          "velocity": 1
        },
        {
          "duration": 0.2631575000000055,
          "durationTicks": 500,
          "midi": 62,
          "name": "D4",
          "ticks": 359000,
          "time": 188.947085,
          "velocity": 1
        },
        {
          "duration": 0.2631575000000055,
          "durationTicks": 500,
          "midi": 57,
          "name": "A3",
          "ticks": 359000,
          "time": 188.947085,
          "velocity": 1
        },
        {
          "duration": 0.2631575000000055,
          "durationTicks": 500,
          "midi": 62,
          "name": "D4",
          "ticks": 359500,
          "time": 189.2102425,
          "velocity": 1
        },
        {
          "duration": 0.2631575000000055,
          "durationTicks": 500,
          "midi": 57,
          "name": "A3",
          "ticks": 359500,
          "time": 189.2102425,
          "velocity": 1
        },
        {
          "duration": 0.2631575000000055,
          "durationTicks": 500,
          "midi": 55,
          "name": "G3",
          "ticks": 360000,
          "time": 189.4734,
          "velocity": 1
        },
        {
          "duration": 0.2631575000000055,
          "durationTicks": 500,
          "midi": 67,
          "name": "G4",
          "ticks": 360000,
          "time": 189.4734,
          "velocity": 1
        },
        {
          "duration": 0.2631575000000055,
          "durationTicks": 500,
          "midi": 62,
          "name": "D4",
          "ticks": 360000,
          "time": 189.4734,
          "velocity": 1
        },
        {
          "duration": 0.26315749999997706,
          "durationTicks": 500,
          "midi": 55,
          "name": "G3",
          "ticks": 360500,
          "time": 189.7365575,
          "velocity": 1
        },
        {
          "duration": 0.26315749999997706,
          "durationTicks": 500,
          "midi": 67,
          "name": "G4",
          "ticks": 360500,
          "time": 189.7365575,
          "velocity": 1
        },
        {
          "duration": 0.26315749999997706,
          "durationTicks": 500,
          "midi": 62,
          "name": "D4",
          "ticks": 360500,
          "time": 189.7365575,
          "velocity": 1
        },
        {
          "duration": 0.526315000000011,
          "durationTicks": 1000,
          "midi": 55,
          "name": "G3",
          "ticks": 361000,
          "time": 189.99971499999998,
          "velocity": 1
        },
        {
          "duration": 0.2631575000000055,
          "durationTicks": 500,
          "midi": 67,
          "name": "G4",
          "ticks": 361000,
          "time": 189.99971499999998,
          "velocity": 1
        },
        {
          "duration": 0.2631575000000055,
          "durationTicks": 500,
          "midi": 62,
          "name": "D4",
          "ticks": 361000,
          "time": 189.99971499999998,
          "velocity": 1
        },
        {
          "duration": 0.2631575000000055,
          "durationTicks": 500,
          "midi": 67,
          "name": "G4",
          "ticks": 361500,
          "time": 190.2628725,
          "velocity": 1
        },
        {
          "duration": 0.2631575000000055,
          "durationTicks": 500,
          "midi": 62,
          "name": "D4",
          "ticks": 361500,
          "time": 190.2628725,
          "velocity": 1
        },
        {
          "duration": 0.2631575000000055,
          "durationTicks": 500,
          "midi": 53,
          "name": "F3",
          "ticks": 362000,
          "time": 190.52603,
          "velocity": 1
        },
        {
          "duration": 0.2631575000000055,
          "durationTicks": 500,
          "midi": 65,
          "name": "F4",
          "ticks": 362000,
          "time": 190.52603,
          "velocity": 1
        },
        {
          "duration": 0.2631575000000055,
          "durationTicks": 500,
          "midi": 60,
          "name": "C4",
          "ticks": 362000,
          "time": 190.52603,
          "velocity": 1
        },
        {
          "duration": 0.2631575000000055,
          "durationTicks": 500,
          "midi": 53,
          "name": "F3",
          "ticks": 362500,
          "time": 190.7891875,
          "velocity": 1
        },
        {
          "duration": 0.2631575000000055,
          "durationTicks": 500,
          "midi": 65,
          "name": "F4",
          "ticks": 362500,
          "time": 190.7891875,
          "velocity": 1
        },
        {
          "duration": 0.2631575000000055,
          "durationTicks": 500,
          "midi": 60,
          "name": "C4",
          "ticks": 362500,
          "time": 190.7891875,
          "velocity": 1
        },
        {
          "duration": 0.5263149999999825,
          "durationTicks": 1000,
          "midi": 53,
          "name": "F3",
          "ticks": 363000,
          "time": 191.052345,
          "velocity": 1
        },
        {
          "duration": 0.26315749999997706,
          "durationTicks": 500,
          "midi": 65,
          "name": "F4",
          "ticks": 363000,
          "time": 191.052345,
          "velocity": 1
        },
        {
          "duration": 0.26315749999997706,
          "durationTicks": 500,
          "midi": 60,
          "name": "C4",
          "ticks": 363000,
          "time": 191.052345,
          "velocity": 1
        },
        {
          "duration": 0.2631575000000055,
          "durationTicks": 500,
          "midi": 65,
          "name": "F4",
          "ticks": 363500,
          "time": 191.31550249999998,
          "velocity": 1
        },
        {
          "duration": 0.2631575000000055,
          "durationTicks": 500,
          "midi": 60,
          "name": "C4",
          "ticks": 363500,
          "time": 191.31550249999998,
          "velocity": 1
        },
        {
          "duration": 0.2631575000000055,
          "durationTicks": 500,
          "midi": 46,
          "name": "A#2",
          "ticks": 364000,
          "time": 191.57865999999999,
          "velocity": 1
        },
        {
          "duration": 0.2631575000000055,
          "durationTicks": 500,
          "midi": 58,
          "name": "A#3",
          "ticks": 364000,
          "time": 191.57865999999999,
          "velocity": 1
        },
        {
          "duration": 0.2631575000000055,
          "durationTicks": 500,
          "midi": 53,
          "name": "F3",
          "ticks": 364000,
          "time": 191.57865999999999,
          "velocity": 1
        },
        {
          "duration": 0.2631575000000055,
          "durationTicks": 500,
          "midi": 46,
          "name": "A#2",
          "ticks": 364500,
          "time": 191.8418175,
          "velocity": 1
        },
        {
          "duration": 0.2631575000000055,
          "durationTicks": 500,
          "midi": 58,
          "name": "A#3",
          "ticks": 364500,
          "time": 191.8418175,
          "velocity": 1
        },
        {
          "duration": 0.2631575000000055,
          "durationTicks": 500,
          "midi": 53,
          "name": "F3",
          "ticks": 364500,
          "time": 191.8418175,
          "velocity": 1
        },
        {
          "duration": 0.5263149999999825,
          "durationTicks": 1000,
          "midi": 46,
          "name": "A#2",
          "ticks": 365000,
          "time": 192.104975,
          "velocity": 1
        },
        {
          "duration": 0.2631575000000055,
          "durationTicks": 500,
          "midi": 58,
          "name": "A#3",
          "ticks": 365000,
          "time": 192.104975,
          "velocity": 1
        },
        {
          "duration": 0.2631575000000055,
          "durationTicks": 500,
          "midi": 53,
          "name": "F3",
          "ticks": 365000,
          "time": 192.104975,
          "velocity": 1
        },
        {
          "duration": 0.26315749999997706,
          "durationTicks": 500,
          "midi": 58,
          "name": "A#3",
          "ticks": 365500,
          "time": 192.3681325,
          "velocity": 1
        },
        {
          "duration": 0.26315749999997706,
          "durationTicks": 500,
          "midi": 53,
          "name": "F3",
          "ticks": 365500,
          "time": 192.3681325,
          "velocity": 1
        },
        {
          "duration": 0.2631575000000055,
          "durationTicks": 500,
          "midi": 50,
          "name": "D3",
          "ticks": 366000,
          "time": 192.63128999999998,
          "velocity": 1
        },
        {
          "duration": 0.2631575000000055,
          "durationTicks": 500,
          "midi": 62,
          "name": "D4",
          "ticks": 366000,
          "time": 192.63128999999998,
          "velocity": 1
        },
        {
          "duration": 0.2631575000000055,
          "durationTicks": 500,
          "midi": 57,
          "name": "A3",
          "ticks": 366000,
          "time": 192.63128999999998,
          "velocity": 1
        },
        {
          "duration": 0.2631575000000055,
          "durationTicks": 500,
          "midi": 50,
          "name": "D3",
          "ticks": 366500,
          "time": 192.89444749999998,
          "velocity": 1
        },
        {
          "duration": 0.2631575000000055,
          "durationTicks": 500,
          "midi": 62,
          "name": "D4",
          "ticks": 366500,
          "time": 192.89444749999998,
          "velocity": 1
        },
        {
          "duration": 0.2631575000000055,
          "durationTicks": 500,
          "midi": 57,
          "name": "A3",
          "ticks": 366500,
          "time": 192.89444749999998,
          "velocity": 1
        },
        {
          "duration": 0.526315000000011,
          "durationTicks": 1000,
          "midi": 50,
          "name": "D3",
          "ticks": 367000,
          "time": 193.157605,
          "velocity": 1
        },
        {
          "duration": 0.2631575000000055,
          "durationTicks": 500,
          "midi": 62,
          "name": "D4",
          "ticks": 367000,
          "time": 193.157605,
          "velocity": 1
        },
        {
          "duration": 0.2631575000000055,
          "durationTicks": 500,
          "midi": 57,
          "name": "A3",
          "ticks": 367000,
          "time": 193.157605,
          "velocity": 1
        },
        {
          "duration": 0.2631575000000055,
          "durationTicks": 500,
          "midi": 62,
          "name": "D4",
          "ticks": 367500,
          "time": 193.4207625,
          "velocity": 1
        },
        {
          "duration": 0.2631575000000055,
          "durationTicks": 500,
          "midi": 57,
          "name": "A3",
          "ticks": 367500,
          "time": 193.4207625,
          "velocity": 1
        },
        {
          "duration": 0.26315749999997706,
          "durationTicks": 500,
          "midi": 55,
          "name": "G3",
          "ticks": 368000,
          "time": 193.68392,
          "velocity": 1
        },
        {
          "duration": 0.26315749999997706,
          "durationTicks": 500,
          "midi": 67,
          "name": "G4",
          "ticks": 368000,
          "time": 193.68392,
          "velocity": 1
        },
        {
          "duration": 0.26315749999997706,
          "durationTicks": 500,
          "midi": 62,
          "name": "D4",
          "ticks": 368000,
          "time": 193.68392,
          "velocity": 1
        },
        {
          "duration": 0.2631575000000055,
          "durationTicks": 500,
          "midi": 55,
          "name": "G3",
          "ticks": 368500,
          "time": 193.94707749999998,
          "velocity": 1
        },
        {
          "duration": 0.2631575000000055,
          "durationTicks": 500,
          "midi": 67,
          "name": "G4",
          "ticks": 368500,
          "time": 193.94707749999998,
          "velocity": 1
        },
        {
          "duration": 0.2631575000000055,
          "durationTicks": 500,
          "midi": 62,
          "name": "D4",
          "ticks": 368500,
          "time": 193.94707749999998,
          "velocity": 1
        },
        {
          "duration": 0.526315000000011,
          "durationTicks": 1000,
          "midi": 55,
          "name": "G3",
          "ticks": 369000,
          "time": 194.21023499999998,
          "velocity": 1
        },
        {
          "duration": 0.2631575000000055,
          "durationTicks": 500,
          "midi": 67,
          "name": "G4",
          "ticks": 369000,
          "time": 194.21023499999998,
          "velocity": 1
        },
        {
          "duration": 0.2631575000000055,
          "durationTicks": 500,
          "midi": 62,
          "name": "D4",
          "ticks": 369000,
          "time": 194.21023499999998,
          "velocity": 1
        },
        {
          "duration": 0.2631575000000055,
          "durationTicks": 500,
          "midi": 67,
          "name": "G4",
          "ticks": 369500,
          "time": 194.4733925,
          "velocity": 1
        },
        {
          "duration": 0.2631575000000055,
          "durationTicks": 500,
          "midi": 62,
          "name": "D4",
          "ticks": 369500,
          "time": 194.4733925,
          "velocity": 1
        },
        {
          "duration": 0.2631575000000055,
          "durationTicks": 500,
          "midi": 53,
          "name": "F3",
          "ticks": 370000,
          "time": 194.73655,
          "velocity": 1
        },
        {
          "duration": 0.2631575000000055,
          "durationTicks": 500,
          "midi": 65,
          "name": "F4",
          "ticks": 370000,
          "time": 194.73655,
          "velocity": 1
        },
        {
          "duration": 0.2631575000000055,
          "durationTicks": 500,
          "midi": 60,
          "name": "C4",
          "ticks": 370000,
          "time": 194.73655,
          "velocity": 1
        },
        {
          "duration": 0.2631575000000055,
          "durationTicks": 500,
          "midi": 53,
          "name": "F3",
          "ticks": 370500,
          "time": 194.9997075,
          "velocity": 1
        },
        {
          "duration": 0.2631575000000055,
          "durationTicks": 500,
          "midi": 65,
          "name": "F4",
          "ticks": 370500,
          "time": 194.9997075,
          "velocity": 1
        },
        {
          "duration": 0.2631575000000055,
          "durationTicks": 500,
          "midi": 60,
          "name": "C4",
          "ticks": 370500,
          "time": 194.9997075,
          "velocity": 1
        },
        {
          "duration": 0.5263149999999825,
          "durationTicks": 1000,
          "midi": 53,
          "name": "F3",
          "ticks": 371000,
          "time": 195.262865,
          "velocity": 1
        },
        {
          "duration": 0.26315749999997706,
          "durationTicks": 500,
          "midi": 65,
          "name": "F4",
          "ticks": 371000,
          "time": 195.262865,
          "velocity": 1
        },
        {
          "duration": 0.26315749999997706,
          "durationTicks": 500,
          "midi": 60,
          "name": "C4",
          "ticks": 371000,
          "time": 195.262865,
          "velocity": 1
        },
        {
          "duration": 0.2631575000000055,
          "durationTicks": 500,
          "midi": 60,
          "name": "C4",
          "ticks": 371500,
          "time": 195.52602249999998,
          "velocity": 1
        },
        {
          "duration": 0.2631575000000055,
          "durationTicks": 500,
          "midi": 65,
          "name": "F4",
          "ticks": 371500,
          "time": 195.52602249999998,
          "velocity": 1
        },
        {
          "duration": 0.2631575000000055,
          "durationTicks": 500,
          "midi": 46,
          "name": "A#2",
          "ticks": 372000,
          "time": 195.78918,
          "velocity": 1
        },
        {
          "duration": 0.2631575000000055,
          "durationTicks": 500,
          "midi": 58,
          "name": "A#3",
          "ticks": 372000,
          "time": 195.78918,
          "velocity": 1
        },
        {
          "duration": 0.2631575000000055,
          "durationTicks": 500,
          "midi": 53,
          "name": "F3",
          "ticks": 372000,
          "time": 195.78918,
          "velocity": 1
        },
        {
          "duration": 0.2631575000000055,
          "durationTicks": 500,
          "midi": 46,
          "name": "A#2",
          "ticks": 372500,
          "time": 196.0523375,
          "velocity": 1
        },
        {
          "duration": 0.2631575000000055,
          "durationTicks": 500,
          "midi": 58,
          "name": "A#3",
          "ticks": 372500,
          "time": 196.0523375,
          "velocity": 1
        },
        {
          "duration": 0.2631575000000055,
          "durationTicks": 500,
          "midi": 53,
          "name": "F3",
          "ticks": 372500,
          "time": 196.0523375,
          "velocity": 1
        },
        {
          "duration": 0.5263149999999825,
          "durationTicks": 1000,
          "midi": 46,
          "name": "A#2",
          "ticks": 373000,
          "time": 196.315495,
          "velocity": 1
        },
        {
          "duration": 0.2631575000000055,
          "durationTicks": 500,
          "midi": 58,
          "name": "A#3",
          "ticks": 373000,
          "time": 196.315495,
          "velocity": 1
        },
        {
          "duration": 0.2631575000000055,
          "durationTicks": 500,
          "midi": 53,
          "name": "F3",
          "ticks": 373000,
          "time": 196.315495,
          "velocity": 1
        },
        {
          "duration": 0.26315749999997706,
          "durationTicks": 500,
          "midi": 58,
          "name": "A#3",
          "ticks": 373500,
          "time": 196.5786525,
          "velocity": 1
        },
        {
          "duration": 0.26315749999997706,
          "durationTicks": 500,
          "midi": 53,
          "name": "F3",
          "ticks": 373500,
          "time": 196.5786525,
          "velocity": 1
        },
        {
          "duration": 0.2631575000000055,
          "durationTicks": 500,
          "midi": 50,
          "name": "D3",
          "ticks": 374000,
          "time": 196.84180999999998,
          "velocity": 1
        },
        {
          "duration": 0.2631575000000055,
          "durationTicks": 500,
          "midi": 62,
          "name": "D4",
          "ticks": 374000,
          "time": 196.84180999999998,
          "velocity": 1
        },
        {
          "duration": 0.2631575000000055,
          "durationTicks": 500,
          "midi": 57,
          "name": "A3",
          "ticks": 374000,
          "time": 196.84180999999998,
          "velocity": 1
        },
        {
          "duration": 0.2631575000000055,
          "durationTicks": 500,
          "midi": 50,
          "name": "D3",
          "ticks": 374500,
          "time": 197.1049675,
          "velocity": 1
        },
        {
          "duration": 0.2631575000000055,
          "durationTicks": 500,
          "midi": 62,
          "name": "D4",
          "ticks": 374500,
          "time": 197.1049675,
          "velocity": 1
        },
        {
          "duration": 0.2631575000000055,
          "durationTicks": 500,
          "midi": 57,
          "name": "A3",
          "ticks": 374500,
          "time": 197.1049675,
          "velocity": 1
        },
        {
          "duration": 0.526315000000011,
          "durationTicks": 1000,
          "midi": 50,
          "name": "D3",
          "ticks": 375000,
          "time": 197.368125,
          "velocity": 1
        },
        {
          "duration": 0.2631575000000055,
          "durationTicks": 500,
          "midi": 62,
          "name": "D4",
          "ticks": 375000,
          "time": 197.368125,
          "velocity": 1
        },
        {
          "duration": 0.2631575000000055,
          "durationTicks": 500,
          "midi": 57,
          "name": "A3",
          "ticks": 375000,
          "time": 197.368125,
          "velocity": 1
        },
        {
          "duration": 0.2631575000000055,
          "durationTicks": 500,
          "midi": 62,
          "name": "D4",
          "ticks": 375500,
          "time": 197.6312825,
          "velocity": 1
        },
        {
          "duration": 0.2631575000000055,
          "durationTicks": 500,
          "midi": 57,
          "name": "A3",
          "ticks": 375500,
          "time": 197.6312825,
          "velocity": 1
        },
        {
          "duration": 0.26315749999997706,
          "durationTicks": 500,
          "midi": 52,
          "name": "E3",
          "ticks": 376000,
          "time": 197.89444,
          "velocity": 1
        },
        {
          "duration": 0.26315749999997706,
          "durationTicks": 500,
          "midi": 64,
          "name": "E4",
          "ticks": 376000,
          "time": 197.89444,
          "velocity": 1
        },
        {
          "duration": 0.26315749999997706,
          "durationTicks": 500,
          "midi": 59,
          "name": "B3",
          "ticks": 376000,
          "time": 197.89444,
          "velocity": 1
        },
        {
          "duration": 0.2631575000000055,
          "durationTicks": 500,
          "midi": 52,
          "name": "E3",
          "ticks": 376500,
          "time": 198.15759749999998,
          "velocity": 1
        },
        {
          "duration": 0.2631575000000055,
          "durationTicks": 500,
          "midi": 64,
          "name": "E4",
          "ticks": 376500,
          "time": 198.15759749999998,
          "velocity": 1
        },
        {
          "duration": 0.2631575000000055,
          "durationTicks": 500,
          "midi": 59,
          "name": "B3",
          "ticks": 376500,
          "time": 198.15759749999998,
          "velocity": 1
        },
        {
          "duration": 0.526315000000011,
          "durationTicks": 1000,
          "midi": 52,
          "name": "E3",
          "ticks": 377000,
          "time": 198.42075499999999,
          "velocity": 1
        },
        {
          "duration": 0.2631575000000055,
          "durationTicks": 500,
          "midi": 64,
          "name": "E4",
          "ticks": 377000,
          "time": 198.42075499999999,
          "velocity": 1
        },
        {
          "duration": 0.2631575000000055,
          "durationTicks": 500,
          "midi": 59,
          "name": "B3",
          "ticks": 377000,
          "time": 198.42075499999999,
          "velocity": 1
        },
        {
          "duration": 0.2631575000000055,
          "durationTicks": 500,
          "midi": 64,
          "name": "E4",
          "ticks": 377500,
          "time": 198.6839125,
          "velocity": 1
        },
        {
          "duration": 0.2631575000000055,
          "durationTicks": 500,
          "midi": 59,
          "name": "B3",
          "ticks": 377500,
          "time": 198.6839125,
          "velocity": 1
        },
        {
          "duration": 0.2631575000000055,
          "durationTicks": 500,
          "midi": 51,
          "name": "D#3",
          "ticks": 378000,
          "time": 198.94707,
          "velocity": 1
        },
        {
          "duration": 0.2631575000000055,
          "durationTicks": 500,
          "midi": 63,
          "name": "D#4",
          "ticks": 378000,
          "time": 198.94707,
          "velocity": 1
        },
        {
          "duration": 0.2631575000000055,
          "durationTicks": 500,
          "midi": 58,
          "name": "A#3",
          "ticks": 378000,
          "time": 198.94707,
          "velocity": 1
        },
        {
          "duration": 0.26315749999997706,
          "durationTicks": 500,
          "midi": 51,
          "name": "D#3",
          "ticks": 378500,
          "time": 199.2102275,
          "velocity": 1
        },
        {
          "duration": 0.26315749999997706,
          "durationTicks": 500,
          "midi": 63,
          "name": "D#4",
          "ticks": 378500,
          "time": 199.2102275,
          "velocity": 1
        },
        {
          "duration": 0.26315749999997706,
          "durationTicks": 500,
          "midi": 58,
          "name": "A#3",
          "ticks": 378500,
          "time": 199.2102275,
          "velocity": 1
        },
        {
          "duration": 0.526315000000011,
          "durationTicks": 1000,
          "midi": 51,
          "name": "D#3",
          "ticks": 379000,
          "time": 199.47338499999998,
          "velocity": 1
        },
        {
          "duration": 0.2631575000000055,
          "durationTicks": 500,
          "midi": 63,
          "name": "D#4",
          "ticks": 379000,
          "time": 199.47338499999998,
          "velocity": 1
        },
        {
          "duration": 0.2631575000000055,
          "durationTicks": 500,
          "midi": 58,
          "name": "A#3",
          "ticks": 379000,
          "time": 199.47338499999998,
          "velocity": 1
        },
        {
          "duration": 0.2631575000000055,
          "durationTicks": 500,
          "midi": 63,
          "name": "D#4",
          "ticks": 379500,
          "time": 199.73654249999998,
          "velocity": 1
        },
        {
          "duration": 0.2631575000000055,
          "durationTicks": 500,
          "midi": 58,
          "name": "A#3",
          "ticks": 379500,
          "time": 199.73654249999998,
          "velocity": 1
        },
        {
          "duration": 0.2631575000000055,
          "durationTicks": 500,
          "midi": 48,
          "name": "C3",
          "ticks": 380000,
          "time": 199.9997,
          "velocity": 1
        },
        {
          "duration": 0.2631575000000055,
          "durationTicks": 500,
          "midi": 60,
          "name": "C4",
          "ticks": 380000,
          "time": 199.9997,
          "velocity": 1
        },
        {
          "duration": 0.2631575000000055,
          "durationTicks": 500,
          "midi": 48,
          "name": "C3",
          "ticks": 380500,
          "time": 200.2628575,
          "velocity": 1
        },
        {
          "duration": 0.2631575000000055,
          "durationTicks": 500,
          "midi": 60,
          "name": "C4",
          "ticks": 380500,
          "time": 200.2628575,
          "velocity": 1
        },
        {
          "duration": 0.5263149999999825,
          "durationTicks": 1000,
          "midi": 48,
          "name": "C3",
          "ticks": 381000,
          "time": 200.526015,
          "velocity": 1
        },
        {
          "duration": 0.26315749999997706,
          "durationTicks": 500,
          "midi": 60,
          "name": "C4",
          "ticks": 381000,
          "time": 200.526015,
          "velocity": 1
        },
        {
          "duration": 0.2631575000000055,
          "durationTicks": 500,
          "midi": 60,
          "name": "C4",
          "ticks": 381500,
          "time": 200.78917249999998,
          "velocity": 1
        },
        {
          "duration": 0.2631575000000055,
          "durationTicks": 500,
          "midi": 50,
          "name": "D3",
          "ticks": 382000,
          "time": 201.05232999999998,
          "velocity": 1
        },
        {
          "duration": 0.2631575000000055,
          "durationTicks": 500,
          "midi": 62,
          "name": "D4",
          "ticks": 382000,
          "time": 201.05232999999998,
          "velocity": 1
        },
        {
          "duration": 0.2631575000000055,
          "durationTicks": 500,
          "midi": 50,
          "name": "D3",
          "ticks": 382500,
          "time": 201.3154875,
          "velocity": 1
        },
        {
          "duration": 0.2631575000000055,
          "durationTicks": 500,
          "midi": 62,
          "name": "D4",
          "ticks": 382500,
          "time": 201.3154875,
          "velocity": 1
        },
        {
          "duration": 0.526315000000011,
          "durationTicks": 1000,
          "midi": 50,
          "name": "D3",
          "ticks": 383000,
          "time": 201.578645,
          "velocity": 1
        },
        {
          "duration": 0.2631575000000055,
          "durationTicks": 500,
          "midi": 62,
          "name": "D4",
          "ticks": 383000,
          "time": 201.578645,
          "velocity": 1
        },
        {
          "duration": 0.2631575000000055,
          "durationTicks": 500,
          "midi": 62,
          "name": "D4",
          "ticks": 383500,
          "time": 201.8418025,
          "velocity": 1
        },
        {
          "duration": 0.26315749999997706,
          "durationTicks": 500,
          "midi": 51,
          "name": "D#3",
          "ticks": 384000,
          "time": 202.10496,
          "velocity": 1
        },
        {
          "duration": 0.26315749999997706,
          "durationTicks": 500,
          "midi": 63,
          "name": "D#4",
          "ticks": 384000,
          "time": 202.10496,
          "velocity": 1
        },
        {
          "duration": 0.2631575000000055,
          "durationTicks": 500,
          "midi": 51,
          "name": "D#3",
          "ticks": 384500,
          "time": 202.36811749999998,
          "velocity": 1
        },
        {
          "duration": 0.2631575000000055,
          "durationTicks": 500,
          "midi": 63,
          "name": "D#4",
          "ticks": 384500,
          "time": 202.36811749999998,
          "velocity": 1
        },
        {
          "duration": 0.526315000000011,
          "durationTicks": 1000,
          "midi": 51,
          "name": "D#3",
          "ticks": 385000,
          "time": 202.631275,
          "velocity": 1
        },
        {
          "duration": 0.2631575000000055,
          "durationTicks": 500,
          "midi": 63,
          "name": "D#4",
          "ticks": 385000,
          "time": 202.631275,
          "velocity": 1
        },
        {
          "duration": 0.2631575000000055,
          "durationTicks": 500,
          "midi": 63,
          "name": "D#4",
          "ticks": 385500,
          "time": 202.8944325,
          "velocity": 1
        },
        {
          "duration": 0.5263149999999825,
          "durationTicks": 1000,
          "midi": 60,
          "name": "C4",
          "ticks": 386000,
          "time": 203.15759,
          "velocity": 1
        },
        {
          "duration": 0.5263149999999825,
          "durationTicks": 1000,
          "midi": 57,
          "name": "A3",
          "ticks": 386000,
          "time": 203.15759,
          "velocity": 1
        },
        {
          "duration": 0.5263149999999825,
          "durationTicks": 1000,
          "midi": 53,
          "name": "F3",
          "ticks": 386000,
          "time": 203.15759,
          "velocity": 1
        },
        {
          "duration": 0.2631575000000055,
          "durationTicks": 500,
          "midi": 48,
          "name": "C3",
          "ticks": 388000,
          "time": 204.21022,
          "velocity": 1
        },
        {
          "duration": 0.2631575000000055,
          "durationTicks": 500,
          "midi": 60,
          "name": "C4",
          "ticks": 388000,
          "time": 204.21022,
          "velocity": 1
        },
        {
          "duration": 0.2631575000000055,
          "durationTicks": 500,
          "midi": 48,
          "name": "C3",
          "ticks": 388500,
          "time": 204.4733775,
          "velocity": 1
        },
        {
          "duration": 0.2631575000000055,
          "durationTicks": 500,
          "midi": 60,
          "name": "C4",
          "ticks": 388500,
          "time": 204.4733775,
          "velocity": 1
        },
        {
          "duration": 0.5263149999999825,
          "durationTicks": 1000,
          "midi": 48,
          "name": "C3",
          "ticks": 389000,
          "time": 204.736535,
          "velocity": 1
        },
        {
          "duration": 0.26315749999997706,
          "durationTicks": 500,
          "midi": 60,
          "name": "C4",
          "ticks": 389000,
          "time": 204.736535,
          "velocity": 1
        },
        {
          "duration": 0.2631575000000055,
          "durationTicks": 500,
          "midi": 60,
          "name": "C4",
          "ticks": 389500,
          "time": 204.99969249999998,
          "velocity": 1
        },
        {
          "duration": 0.2631575000000055,
          "durationTicks": 500,
          "midi": 50,
          "name": "D3",
          "ticks": 390000,
          "time": 205.26285,
          "velocity": 1
        },
        {
          "duration": 0.2631575000000055,
          "durationTicks": 500,
          "midi": 62,
          "name": "D4",
          "ticks": 390000,
          "time": 205.26285,
          "velocity": 1
        },
        {
          "duration": 0.2631575000000055,
          "durationTicks": 500,
          "midi": 50,
          "name": "D3",
          "ticks": 390500,
          "time": 205.5260075,
          "velocity": 1
        },
        {
          "duration": 0.2631575000000055,
          "durationTicks": 500,
          "midi": 62,
          "name": "D4",
          "ticks": 390500,
          "time": 205.5260075,
          "velocity": 1
        },
        {
          "duration": 0.5263149999999825,
          "durationTicks": 1000,
          "midi": 50,
          "name": "D3",
          "ticks": 391000,
          "time": 205.789165,
          "velocity": 1
        },
        {
          "duration": 0.2631575000000055,
          "durationTicks": 500,
          "midi": 62,
          "name": "D4",
          "ticks": 391000,
          "time": 205.789165,
          "velocity": 1
        },
        {
          "duration": 0.26315749999997706,
          "durationTicks": 500,
          "midi": 62,
          "name": "D4",
          "ticks": 391500,
          "time": 206.0523225,
          "velocity": 1
        },
        {
          "duration": 0.2631575000000055,
          "durationTicks": 500,
          "midi": 51,
          "name": "D#3",
          "ticks": 392000,
          "time": 206.31547999999998,
          "velocity": 1
        },
        {
          "duration": 0.2631575000000055,
          "durationTicks": 500,
          "midi": 63,
          "name": "D#4",
          "ticks": 392000,
          "time": 206.31547999999998,
          "velocity": 1
        },
        {
          "duration": 0.2631575000000055,
          "durationTicks": 500,
          "midi": 51,
          "name": "D#3",
          "ticks": 392500,
          "time": 206.57863749999999,
          "velocity": 1
        },
        {
          "duration": 0.2631575000000055,
          "durationTicks": 500,
          "midi": 63,
          "name": "D#4",
          "ticks": 392500,
          "time": 206.57863749999999,
          "velocity": 1
        },
        {
          "duration": 0.526315000000011,
          "durationTicks": 1000,
          "midi": 51,
          "name": "D#3",
          "ticks": 393000,
          "time": 206.841795,
          "velocity": 1
        },
        {
          "duration": 0.2631575000000055,
          "durationTicks": 500,
          "midi": 63,
          "name": "D#4",
          "ticks": 393000,
          "time": 206.841795,
          "velocity": 1
        },
        {
          "duration": 0.2631575000000055,
          "durationTicks": 500,
          "midi": 63,
          "name": "D#4",
          "ticks": 393500,
          "time": 207.1049525,
          "velocity": 1
        },
        {
          "duration": 0.5263149999999825,
          "durationTicks": 1000,
          "midi": 60,
          "name": "C4",
          "ticks": 394000,
          "time": 207.36811,
          "velocity": 1
        },
        {
          "duration": 0.5263149999999825,
          "durationTicks": 1000,
          "midi": 57,
          "name": "A3",
          "ticks": 394000,
          "time": 207.36811,
          "velocity": 1
        },
        {
          "duration": 0.5263149999999825,
          "durationTicks": 1000,
          "midi": 53,
          "name": "F3",
          "ticks": 394000,
          "time": 207.36811,
          "velocity": 1
        },
        {
          "duration": 0.2631575000000055,
          "durationTicks": 500,
          "midi": 48,
          "name": "C3",
          "ticks": 396000,
          "time": 208.42074,
          "velocity": 1
        },
        {
          "duration": 0.2631575000000055,
          "durationTicks": 500,
          "midi": 60,
          "name": "C4",
          "ticks": 396000,
          "time": 208.42074,
          "velocity": 1
        },
        {
          "duration": 0.26315749999997706,
          "durationTicks": 500,
          "midi": 48,
          "name": "C3",
          "ticks": 396500,
          "time": 208.6838975,
          "velocity": 1
        },
        {
          "duration": 0.26315749999997706,
          "durationTicks": 500,
          "midi": 60,
          "name": "C4",
          "ticks": 396500,
          "time": 208.6838975,
          "velocity": 1
        },
        {
          "duration": 0.526315000000011,
          "durationTicks": 1000,
          "midi": 48,
          "name": "C3",
          "ticks": 397000,
          "time": 208.94705499999998,
          "velocity": 1
        },
        {
          "duration": 0.2631575000000055,
          "durationTicks": 500,
          "midi": 60,
          "name": "C4",
          "ticks": 397000,
          "time": 208.94705499999998,
          "velocity": 1
        },
        {
          "duration": 0.2631575000000055,
          "durationTicks": 500,
          "midi": 60,
          "name": "C4",
          "ticks": 397500,
          "time": 209.21021249999998,
          "velocity": 1
        },
        {
          "duration": 0.2631575000000055,
          "durationTicks": 500,
          "midi": 50,
          "name": "D3",
          "ticks": 398000,
          "time": 209.47337,
          "velocity": 1
        },
        {
          "duration": 0.2631575000000055,
          "durationTicks": 500,
          "midi": 62,
          "name": "D4",
          "ticks": 398000,
          "time": 209.47337,
          "velocity": 1
        },
        {
          "duration": 0.2631575000000055,
          "durationTicks": 500,
          "midi": 50,
          "name": "D3",
          "ticks": 398500,
          "time": 209.7365275,
          "velocity": 1
        },
        {
          "duration": 0.2631575000000055,
          "durationTicks": 500,
          "midi": 62,
          "name": "D4",
          "ticks": 398500,
          "time": 209.7365275,
          "velocity": 1
        },
        {
          "duration": 0.5263149999999825,
          "durationTicks": 1000,
          "midi": 50,
          "name": "D3",
          "ticks": 399000,
          "time": 209.999685,
          "velocity": 1
        },
        {
          "duration": 0.2631575000000055,
          "durationTicks": 500,
          "midi": 62,
          "name": "D4",
          "ticks": 399000,
          "time": 209.999685,
          "velocity": 1
        },
        {
          "duration": 0.26315749999997706,
          "durationTicks": 500,
          "midi": 62,
          "name": "D4",
          "ticks": 399500,
          "time": 210.2628425,
          "velocity": 1
        },
        {
          "duration": 0.2631575000000055,
          "durationTicks": 500,
          "midi": 51,
          "name": "D#3",
          "ticks": 400000,
          "time": 210.52599999999998,
          "velocity": 1
        },
        {
          "duration": 0.2631575000000055,
          "durationTicks": 500,
          "midi": 63,
          "name": "D#4",
          "ticks": 400000,
          "time": 210.52599999999998,
          "velocity": 1
        },
        {
          "duration": 0.2631575000000055,
          "durationTicks": 500,
          "midi": 51,
          "name": "D#3",
          "ticks": 400500,
          "time": 210.7891575,
          "velocity": 1
        },
        {
          "duration": 0.2631575000000055,
          "durationTicks": 500,
          "midi": 63,
          "name": "D#4",
          "ticks": 400500,
          "time": 210.7891575,
          "velocity": 1
        },
        {
          "duration": 0.526315000000011,
          "durationTicks": 1000,
          "midi": 51,
          "name": "D#3",
          "ticks": 401000,
          "time": 211.052315,
          "velocity": 1
        },
        {
          "duration": 0.2631575000000055,
          "durationTicks": 500,
          "midi": 63,
          "name": "D#4",
          "ticks": 401000,
          "time": 211.052315,
          "velocity": 1
        },
        {
          "duration": 0.2631575000000055,
          "durationTicks": 500,
          "midi": 63,
          "name": "D#4",
          "ticks": 401500,
          "time": 211.3154725,
          "velocity": 1
        },
        {
          "duration": 0.5263149999999825,
          "durationTicks": 1000,
          "midi": 60,
          "name": "C4",
          "ticks": 402000,
          "time": 211.57863,
          "velocity": 1
        },
        {
          "duration": 0.5263149999999825,
          "durationTicks": 1000,
          "midi": 57,
          "name": "A3",
          "ticks": 402000,
          "time": 211.57863,
          "velocity": 1
        },
        {
          "duration": 0.5263149999999825,
          "durationTicks": 1000,
          "midi": 53,
          "name": "F3",
          "ticks": 402000,
          "time": 211.57863,
          "velocity": 1
        }
      ]
    },
    {
      "channel": 0,
      "controlChanges": {
        "0": [
          {
            "number": 0,
            "ticks": 0,
            "time": 0,
            "value": 0
          }
        ],
        "7": [
          {
            "number": 7,
            "ticks": 0,
            "time": 0,
            "value": 0.7480314960629921
          }
        ]
      },
      "pitchBends": [],
      "instrument": {
        "family": "piano",
        "number": 0,
        "name": "acoustic grand piano"
      },
      "name": "City",
      "notes": [],
      "endOfTrackTicks": 196000
    },
    {
      "channel": 5,
      "controlChanges": {},
      "pitchBends": [],
      "instrument": {
        "family": "organ",
        "number": 16,
        "name": "drawbar organ"
      },
      "name": "",
      "notes": [
        {
          "duration": 0.2631575000000055,
          "durationTicks": 500,
          "midi": 70,
          "name": "A#4",
          "ticks": 132000,
          "time": 69.47358,
          "velocity": 1
        },
        {
          "duration": 0.2631575000000055,
          "durationTicks": 500,
          "midi": 67,
          "name": "G4",
          "ticks": 132000,
          "time": 69.47358,
          "velocity": 1
        },
        {
          "duration": 0.2631574999999913,
          "durationTicks": 500,
          "midi": 70,
          "name": "A#4",
          "ticks": 132500,
          "time": 69.7367375,
          "velocity": 1
        },
        {
          "duration": 0.2631574999999913,
          "durationTicks": 500,
          "midi": 67,
          "name": "G4",
          "ticks": 132500,
          "time": 69.7367375,
          "velocity": 1
        },
        {
          "duration": 0.2631575000000055,
          "durationTicks": 500,
          "midi": 62,
          "name": "D4",
          "ticks": 133000,
          "time": 69.999895,
          "velocity": 1
        },
        {
          "duration": 0.2631574999999913,
          "durationTicks": 500,
          "midi": 67,
          "name": "G4",
          "ticks": 133500,
          "time": 70.2630525,
          "velocity": 1
        },
        {
          "duration": 0.2631574999999913,
          "durationTicks": 500,
          "midi": 70,
          "name": "A#4",
          "ticks": 133500,
          "time": 70.2630525,
          "velocity": 1
        },
        {
          "duration": 0.3947362500000082,
          "durationTicks": 750,
          "midi": 74,
          "name": "D5",
          "ticks": 134000,
          "time": 70.52620999999999,
          "velocity": 1
        },
        {
          "duration": 0.3947362500000082,
          "durationTicks": 750,
          "midi": 70,
          "name": "A#4",
          "ticks": 134000,
          "time": 70.52620999999999,
          "velocity": 1
        },
        {
          "duration": 0.6578937499999995,
          "durationTicks": 1250,
          "midi": 76,
          "name": "E5",
          "ticks": 134750,
          "time": 70.92094625,
          "velocity": 1
        },
        {
          "duration": 0.6578937499999995,
          "durationTicks": 1250,
          "midi": 72,
          "name": "C5",
          "ticks": 134750,
          "time": 70.92094625,
          "velocity": 1
        },
        {
          "duration": 0.2631574999999913,
          "durationTicks": 500,
          "midi": 71,
          "name": "B4",
          "ticks": 136000,
          "time": 71.57884,
          "velocity": 1
        },
        {
          "duration": 0.2631574999999913,
          "durationTicks": 500,
          "midi": 67,
          "name": "G4",
          "ticks": 136000,
          "time": 71.57884,
          "velocity": 1
        },
        {
          "duration": 0.2631575000000055,
          "durationTicks": 500,
          "midi": 71,
          "name": "B4",
          "ticks": 136500,
          "time": 71.84199749999999,
          "velocity": 1
        },
        {
          "duration": 0.2631575000000055,
          "durationTicks": 500,
          "midi": 67,
          "name": "G4",
          "ticks": 136500,
          "time": 71.84199749999999,
          "velocity": 1
        },
        {
          "duration": 0.2631575000000055,
          "durationTicks": 500,
          "midi": 64,
          "name": "E4",
          "ticks": 137000,
          "time": 72.105155,
          "velocity": 1
        },
        {
          "duration": 0.2631574999999913,
          "durationTicks": 500,
          "midi": 67,
          "name": "G4",
          "ticks": 137500,
          "time": 72.3683125,
          "velocity": 1
        },
        {
          "duration": 0.2631574999999913,
          "durationTicks": 500,
          "midi": 71,
          "name": "B4",
          "ticks": 137500,
          "time": 72.3683125,
          "velocity": 1
        },
        {
          "duration": 0.13157875000000274,
          "durationTicks": 250,
          "midi": 70,
          "name": "A#4",
          "ticks": 138000,
          "time": 72.63147,
          "velocity": 1
        },
        {
          "duration": 0.13157875000000274,
          "durationTicks": 250,
          "midi": 67,
          "name": "G4",
          "ticks": 138250,
          "time": 72.76304875,
          "velocity": 1
        },
        {
          "duration": 0.2631574999999913,
          "durationTicks": 500,
          "midi": 63,
          "name": "D#4",
          "ticks": 138500,
          "time": 72.8946275,
          "velocity": 1
        },
        {
          "duration": 0.13157875000000274,
          "durationTicks": 250,
          "midi": 69,
          "name": "A4",
          "ticks": 139000,
          "time": 73.15778499999999,
          "velocity": 1
        },
        {
          "duration": 0.13157875000000274,
          "durationTicks": 250,
          "midi": 66,
          "name": "F#4",
          "ticks": 139250,
          "time": 73.28936374999999,
          "velocity": 1
        },
        {
          "duration": 0.2631575000000055,
          "durationTicks": 500,
          "midi": 62,
          "name": "D4",
          "ticks": 139500,
          "time": 73.4209425,
          "velocity": 1
        },
        {
          "duration": 0.2631574999999913,
          "durationTicks": 500,
          "midi": 70,
          "name": "A#4",
          "ticks": 140000,
          "time": 73.6841,
          "velocity": 1
        },
        {
          "duration": 0.2631574999999913,
          "durationTicks": 500,
          "midi": 67,
          "name": "G4",
          "ticks": 140000,
          "time": 73.6841,
          "velocity": 1
        },
        {
          "duration": 0.2631575000000055,
          "durationTicks": 500,
          "midi": 70,
          "name": "A#4",
          "ticks": 140500,
          "time": 73.94725749999999,
          "velocity": 1
        },
        {
          "duration": 0.2631575000000055,
          "durationTicks": 500,
          "midi": 67,
          "name": "G4",
          "ticks": 140500,
          "time": 73.94725749999999,
          "velocity": 1
        },
        {
          "duration": 0.2631575000000055,
          "durationTicks": 500,
          "midi": 62,
          "name": "D4",
          "ticks": 141000,
          "time": 74.210415,
          "velocity": 1
        },
        {
          "duration": 0.2631574999999913,
          "durationTicks": 500,
          "midi": 67,
          "name": "G4",
          "ticks": 141500,
          "time": 74.4735725,
          "velocity": 1
        },
        {
          "duration": 0.2631574999999913,
          "durationTicks": 500,
          "midi": 70,
          "name": "A#4",
          "ticks": 141500,
          "time": 74.4735725,
          "velocity": 1
        },
        {
          "duration": 0.3947362500000082,
          "durationTicks": 750,
          "midi": 74,
          "name": "D5",
          "ticks": 142000,
          "time": 74.73673,
          "velocity": 1
        },
        {
          "duration": 0.3947362500000082,
          "durationTicks": 750,
          "midi": 70,
          "name": "A#4",
          "ticks": 142000,
          "time": 74.73673,
          "velocity": 1
        },
        {
          "duration": 0.6578937499999995,
          "durationTicks": 1250,
          "midi": 76,
          "name": "E5",
          "ticks": 142750,
          "time": 75.13146625,
          "velocity": 1
        },
        {
          "duration": 0.6578937499999995,
          "durationTicks": 1250,
          "midi": 72,
          "name": "C5",
          "ticks": 142750,
          "time": 75.13146625,
          "velocity": 1
        },
        {
          "duration": 0.2631574999999913,
          "durationTicks": 500,
          "midi": 71,
          "name": "B4",
          "ticks": 144000,
          "time": 75.78936,
          "velocity": 1
        },
        {
          "duration": 0.2631574999999913,
          "durationTicks": 500,
          "midi": 67,
          "name": "G4",
          "ticks": 144000,
          "time": 75.78936,
          "velocity": 1
        },
        {
          "duration": 0.2631575000000055,
          "durationTicks": 500,
          "midi": 71,
          "name": "B4",
          "ticks": 144500,
          "time": 76.0525175,
          "velocity": 1
        },
        {
          "duration": 0.2631575000000055,
          "durationTicks": 500,
          "midi": 67,
          "name": "G4",
          "ticks": 144500,
          "time": 76.0525175,
          "velocity": 1
        },
        {
          "duration": 0.2631574999999913,
          "durationTicks": 500,
          "midi": 64,
          "name": "E4",
          "ticks": 145000,
          "time": 76.315675,
          "velocity": 1
        },
        {
          "duration": 0.2631575000000055,
          "durationTicks": 500,
          "midi": 67,
          "name": "G4",
          "ticks": 145500,
          "time": 76.57883249999999,
          "velocity": 1
        },
        {
          "duration": 0.2631575000000055,
          "durationTicks": 500,
          "midi": 71,
          "name": "B4",
          "ticks": 145500,
          "time": 76.57883249999999,
          "velocity": 1
        },
        {
          "duration": 0.13157875000000274,
          "durationTicks": 250,
          "midi": 70,
          "name": "A#4",
          "ticks": 146000,
          "time": 76.84199,
          "velocity": 1
        },
        {
          "duration": 0.13157875000000274,
          "durationTicks": 250,
          "midi": 67,
          "name": "G4",
          "ticks": 146250,
          "time": 76.97356875,
          "velocity": 1
        },
        {
          "duration": 0.2631574999999913,
          "durationTicks": 500,
          "midi": 63,
          "name": "D#4",
          "ticks": 146500,
          "time": 77.1051475,
          "velocity": 1
        },
        {
          "duration": 0.13157875000000274,
          "durationTicks": 250,
          "midi": 69,
          "name": "A4",
          "ticks": 147000,
          "time": 77.36830499999999,
          "velocity": 1
        },
        {
          "duration": 0.13157875000000274,
          "durationTicks": 250,
          "midi": 66,
          "name": "F#4",
          "ticks": 147250,
          "time": 77.49988375,
          "velocity": 1
        },
        {
          "duration": 0.2631575000000055,
          "durationTicks": 500,
          "midi": 62,
          "name": "D4",
          "ticks": 147500,
          "time": 77.6314625,
          "velocity": 1
        },
        {
          "duration": 1.0526299999999935,
          "durationTicks": 2000,
          "midi": 63,
          "name": "D#4",
          "ticks": 148000,
          "time": 77.89462,
          "velocity": 1
        },
        {
          "duration": 1.0526299999999935,
          "durationTicks": 2000,
          "midi": 62,
          "name": "D4",
          "ticks": 150000,
          "time": 78.94725,
          "velocity": 1
        },
        {
          "duration": 1.0526300000000077,
          "durationTicks": 2000,
          "midi": 67,
          "name": "G4",
          "ticks": 152000,
          "time": 79.99987999999999,
          "velocity": 1
        },
        {
          "duration": 1.0526299999999935,
          "durationTicks": 2000,
          "midi": 65,
          "name": "F4",
          "ticks": 154000,
          "time": 81.05251,
          "velocity": 1
        },
        {
          "duration": 1.0526300000000077,
          "durationTicks": 2000,
          "midi": 70,
          "name": "A#4",
          "ticks": 156000,
          "time": 82.10513999999999,
          "velocity": 1
        },
        {
          "duration": 1.0526299999999935,
          "durationTicks": 2000,
          "midi": 69,
          "name": "A4",
          "ticks": 158000,
          "time": 83.15777,
          "velocity": 1
        },
        {
          "duration": 1.0526300000000077,
          "durationTicks": 2000,
          "midi": 74,
          "name": "D5",
          "ticks": 160000,
          "time": 84.21039999999999,
          "velocity": 1
        },
        {
          "duration": 1.0526299999999935,
          "durationTicks": 2000,
          "midi": 73,
          "name": "C#5",
          "ticks": 162000,
          "time": 85.26303,
          "velocity": 1
        },
        {
          "duration": 0.2631575000000055,
          "durationTicks": 500,
          "midi": 70,
          "name": "A#4",
          "ticks": 164000,
          "time": 86.31566,
          "velocity": 1
        },
        {
          "duration": 0.2631575000000055,
          "durationTicks": 500,
          "midi": 67,
          "name": "G4",
          "ticks": 164000,
          "time": 86.31566,
          "velocity": 1
        },
        {
          "duration": 0.2631574999999913,
          "durationTicks": 500,
          "midi": 70,
          "name": "A#4",
          "ticks": 164500,
          "time": 86.5788175,
          "velocity": 1
        },
        {
          "duration": 0.2631574999999913,
          "durationTicks": 500,
          "midi": 67,
          "name": "G4",
          "ticks": 164500,
          "time": 86.5788175,
          "velocity": 1
        },
        {
          "duration": 0.2631575000000055,
          "durationTicks": 500,
          "midi": 62,
          "name": "D4",
          "ticks": 165000,
          "time": 86.84197499999999,
          "velocity": 1
        },
        {
          "duration": 0.2631575000000055,
          "durationTicks": 500,
          "midi": 67,
          "name": "G4",
          "ticks": 165500,
          "time": 87.1051325,
          "velocity": 1
        },
        {
          "duration": 0.2631575000000055,
          "durationTicks": 500,
          "midi": 70,
          "name": "A#4",
          "ticks": 165500,
          "time": 87.1051325,
          "velocity": 1
        },
        {
          "duration": 0.394736249999994,
          "durationTicks": 750,
          "midi": 74,
          "name": "D5",
          "ticks": 166000,
          "time": 87.36829,
          "velocity": 1
        },
        {
          "duration": 0.394736249999994,
          "durationTicks": 750,
          "midi": 70,
          "name": "A#4",
          "ticks": 166000,
          "time": 87.36829,
          "velocity": 1
        },
        {
          "duration": 0.6578937499999995,
          "durationTicks": 1250,
          "midi": 76,
          "name": "E5",
          "ticks": 166750,
          "time": 87.76302625,
          "velocity": 1
        },
        {
          "duration": 0.6578937499999995,
          "durationTicks": 1250,
          "midi": 72,
          "name": "C5",
          "ticks": 166750,
          "time": 87.76302625,
          "velocity": 1
        },
        {
          "duration": 0.2631575000000055,
          "durationTicks": 500,
          "midi": 71,
          "name": "B4",
          "ticks": 168000,
          "time": 88.42092,
          "velocity": 1
        },
        {
          "duration": 0.2631575000000055,
          "durationTicks": 500,
          "midi": 67,
          "name": "G4",
          "ticks": 168000,
          "time": 88.42092,
          "velocity": 1
        },
        {
          "duration": 0.2631574999999913,
          "durationTicks": 500,
          "midi": 71,
          "name": "B4",
          "ticks": 168500,
          "time": 88.6840775,
          "velocity": 1
        },
        {
          "duration": 0.2631574999999913,
          "durationTicks": 500,
          "midi": 67,
          "name": "G4",
          "ticks": 168500,
          "time": 88.6840775,
          "velocity": 1
        },
        {
          "duration": 0.2631575000000055,
          "durationTicks": 500,
          "midi": 64,
          "name": "E4",
          "ticks": 169000,
          "time": 88.94723499999999,
          "velocity": 1
        },
        {
          "duration": 0.2631575000000055,
          "durationTicks": 500,
          "midi": 67,
          "name": "G4",
          "ticks": 169500,
          "time": 89.2103925,
          "velocity": 1
        },
        {
          "duration": 0.2631575000000055,
          "durationTicks": 500,
          "midi": 71,
          "name": "B4",
          "ticks": 169500,
          "time": 89.2103925,
          "velocity": 1
        },
        {
          "duration": 0.13157874999998853,
          "durationTicks": 250,
          "midi": 70,
          "name": "A#4",
          "ticks": 170000,
          "time": 89.47355,
          "velocity": 1
        },
        {
          "duration": 0.13157875000000274,
          "durationTicks": 250,
          "midi": 67,
          "name": "G4",
          "ticks": 170250,
          "time": 89.60512874999999,
          "velocity": 1
        },
        {
          "duration": 0.2631575000000055,
          "durationTicks": 500,
          "midi": 63,
          "name": "D#4",
          "ticks": 170500,
          "time": 89.7367075,
          "velocity": 1
        },
        {
          "duration": 0.13157875000000274,
          "durationTicks": 250,
          "midi": 69,
          "name": "A4",
          "ticks": 171000,
          "time": 89.999865,
          "velocity": 1
        },
        {
          "duration": 0.13157874999998853,
          "durationTicks": 250,
          "midi": 66,
          "name": "F#4",
          "ticks": 171250,
          "time": 90.13144375,
          "velocity": 1
        },
        {
          "duration": 0.2631575000000055,
          "durationTicks": 500,
          "midi": 62,
          "name": "D4",
          "ticks": 171500,
          "time": 90.26302249999999,
          "velocity": 1
        },
        {
          "duration": 0.2631575000000055,
          "durationTicks": 500,
          "midi": 70,
          "name": "A#4",
          "ticks": 172000,
          "time": 90.52618,
          "velocity": 1
        },
        {
          "duration": 0.2631575000000055,
          "durationTicks": 500,
          "midi": 67,
          "name": "G4",
          "ticks": 172000,
          "time": 90.52618,
          "velocity": 1
        },
        {
          "duration": 0.2631574999999913,
          "durationTicks": 500,
          "midi": 70,
          "name": "A#4",
          "ticks": 172500,
          "time": 90.7893375,
          "velocity": 1
        },
        {
          "duration": 0.2631574999999913,
          "durationTicks": 500,
          "midi": 67,
          "name": "G4",
          "ticks": 172500,
          "time": 90.7893375,
          "velocity": 1
        },
        {
          "duration": 0.2631575000000055,
          "durationTicks": 500,
          "midi": 62,
          "name": "D4",
          "ticks": 173000,
          "time": 91.052495,
          "velocity": 1
        },
        {
          "duration": 0.2631574999999913,
          "durationTicks": 500,
          "midi": 67,
          "name": "G4",
          "ticks": 173500,
          "time": 91.3156525,
          "velocity": 1
        },
        {
          "duration": 0.2631574999999913,
          "durationTicks": 500,
          "midi": 70,
          "name": "A#4",
          "ticks": 173500,
          "time": 91.3156525,
          "velocity": 1
        },
        {
          "duration": 0.3947362500000082,
          "durationTicks": 750,
          "midi": 74,
          "name": "D5",
          "ticks": 174000,
          "time": 91.57880999999999,
          "velocity": 1
        },
        {
          "duration": 0.3947362500000082,
          "durationTicks": 750,
          "midi": 70,
          "name": "A#4",
          "ticks": 174000,
          "time": 91.57880999999999,
          "velocity": 1
        },
        {
          "duration": 0.6578937499999995,
          "durationTicks": 1250,
          "midi": 76,
          "name": "E5",
          "ticks": 174750,
          "time": 91.97354625,
          "velocity": 1
        },
        {
          "duration": 0.6578937499999995,
          "durationTicks": 1250,
          "midi": 72,
          "name": "C5",
          "ticks": 174750,
          "time": 91.97354625,
          "velocity": 1
        },
        {
          "duration": 0.2631574999999913,
          "durationTicks": 500,
          "midi": 71,
          "name": "B4",
          "ticks": 176000,
          "time": 92.63144,
          "velocity": 1
        },
        {
          "duration": 0.2631574999999913,
          "durationTicks": 500,
          "midi": 67,
          "name": "G4",
          "ticks": 176000,
          "time": 92.63144,
          "velocity": 1
        },
        {
          "duration": 0.2631575000000055,
          "durationTicks": 500,
          "midi": 71,
          "name": "B4",
          "ticks": 176500,
          "time": 92.89459749999999,
          "velocity": 1
        },
        {
          "duration": 0.2631575000000055,
          "durationTicks": 500,
          "midi": 67,
          "name": "G4",
          "ticks": 176500,
          "time": 92.89459749999999,
          "velocity": 1
        },
        {
          "duration": 0.2631575000000055,
          "durationTicks": 500,
          "midi": 64,
          "name": "E4",
          "ticks": 177000,
          "time": 93.157755,
          "velocity": 1
        },
        {
          "duration": 0.2631574999999913,
          "durationTicks": 500,
          "midi": 67,
          "name": "G4",
          "ticks": 177500,
          "time": 93.4209125,
          "velocity": 1
        },
        {
          "duration": 0.2631574999999913,
          "durationTicks": 500,
          "midi": 71,
          "name": "B4",
          "ticks": 177500,
          "time": 93.4209125,
          "velocity": 1
        },
        {
          "duration": 0.13157875000000274,
          "durationTicks": 250,
          "midi": 70,
          "name": "A#4",
          "ticks": 178000,
          "time": 93.68406999999999,
          "velocity": 1
        },
        {
          "duration": 0.13157875000000274,
          "durationTicks": 250,
          "midi": 67,
          "name": "G4",
          "ticks": 178250,
          "time": 93.81564875,
          "velocity": 1
        },
        {
          "duration": 0.2631575000000055,
          "durationTicks": 500,
          "midi": 63,
          "name": "D#4",
          "ticks": 178500,
          "time": 93.9472275,
          "velocity": 1
        },
        {
          "duration": 0.13157874999998853,
          "durationTicks": 250,
          "midi": 69,
          "name": "A4",
          "ticks": 179000,
          "time": 94.210385,
          "velocity": 1
        },
        {
          "duration": 0.13157875000000274,
          "durationTicks": 250,
          "midi": 66,
          "name": "F#4",
          "ticks": 179250,
          "time": 94.34196374999999,
          "velocity": 1
        },
        {
          "duration": 0.2631575000000055,
          "durationTicks": 500,
          "midi": 62,
          "name": "D4",
          "ticks": 179500,
          "time": 94.4735425,
          "velocity": 1
        },
        {
          "duration": 1.0526299999999935,
          "durationTicks": 2000,
          "midi": 63,
          "name": "D#4",
          "ticks": 180000,
          "time": 94.7367,
          "velocity": 1
        },
        {
          "duration": 1.0526300000000077,
          "durationTicks": 2000,
          "midi": 62,
          "name": "D4",
          "ticks": 182000,
          "time": 95.78932999999999,
          "velocity": 1
        },
        {
          "duration": 1.0526299999999935,
          "durationTicks": 2000,
          "midi": 67,
          "name": "G4",
          "ticks": 184000,
          "time": 96.84196,
          "velocity": 1
        },
        {
          "duration": 1.0526300000000077,
          "durationTicks": 2000,
          "midi": 65,
          "name": "F4",
          "ticks": 186000,
          "time": 97.89459,
          "velocity": 1
        },
        {
          "duration": 1.0526299999999935,
          "durationTicks": 2000,
          "midi": 70,
          "name": "A#4",
          "ticks": 188000,
          "time": 98.94722,
          "velocity": 1
        },
        {
          "duration": 1.0526300000000077,
          "durationTicks": 2000,
          "midi": 69,
          "name": "A4",
          "ticks": 190000,
          "time": 99.99985,
          "velocity": 1
        },
        {
          "duration": 1.0526299999999935,
          "durationTicks": 2000,
          "midi": 74,
          "name": "D5",
          "ticks": 192000,
          "time": 101.05248,
          "velocity": 1
        },
        {
          "duration": 1.0526299999999935,
          "durationTicks": 2000,
          "midi": 75,
          "name": "D#5",
          "ticks": 194000,
          "time": 102.10511,
          "velocity": 1
        }
      ]
    },
    {
      "channel": 0,
      "controlChanges": {
        "0": [
          {
            "number": 0,
            "ticks": 0,
            "time": 0,
            "value": 0
          }
        ],
        "7": [
          {
            "number": 7,
            "ticks": 0,
            "time": 0,
            "value": 0.7086614173228346
          }
        ]
      },
      "pitchBends": [],
      "instrument": {
        "family": "piano",
        "number": 0,
        "name": "acoustic grand piano"
      },
      "name": "Like a",
      "notes": [],
      "endOfTrackTicks": 196000
    },
    {
      "channel": 6,
      "controlChanges": {},
      "pitchBends": [],
      "instrument": {
        "family": "strings",
        "number": 46,
        "name": "orchestral harp"
      },
      "name": "",
      "notes": [
        {
          "duration": 1.0526299999999935,
          "durationTicks": 2000,
          "midi": 63,
          "name": "D#4",
          "ticks": 148000,
          "time": 77.89462,
          "velocity": 1
        },
        {
          "duration": 1.0199984699999902,
          "durationTicks": 1938,
          "midi": 67,
          "name": "G4",
          "ticks": 148062,
          "time": 77.92725153,
          "velocity": 1
        },
        {
          "duration": 0.9873669400000011,
          "durationTicks": 1876,
          "midi": 70,
          "name": "A#4",
          "ticks": 148124,
          "time": 77.95988306,
          "velocity": 1
        },
        {
          "duration": 0.9536827800000083,
          "durationTicks": 1812,
          "midi": 75,
          "name": "D#5",
          "ticks": 148188,
          "time": 77.99356721999999,
          "velocity": 1
        },
        {
          "duration": 1.0526299999999935,
          "durationTicks": 2000,
          "midi": 62,
          "name": "D4",
          "ticks": 150000,
          "time": 78.94725,
          "velocity": 0.5039370078740157
        },
        {
          "duration": 1.0199984699999902,
          "durationTicks": 1938,
          "midi": 66,
          "name": "F#4",
          "ticks": 150062,
          "time": 78.97988153,
          "velocity": 1
        },
        {
          "duration": 0.9863143099999974,
          "durationTicks": 1874,
          "midi": 69,
          "name": "A4",
          "ticks": 150126,
          "time": 79.01356569,
          "velocity": 1
        },
        {
          "duration": 0.9536827799999941,
          "durationTicks": 1812,
          "midi": 74,
          "name": "D5",
          "ticks": 150188,
          "time": 79.04619722,
          "velocity": 1
        },
        {
          "duration": 1.0526300000000077,
          "durationTicks": 2000,
          "midi": 67,
          "name": "G4",
          "ticks": 152000,
          "time": 79.99987999999999,
          "velocity": 1
        },
        {
          "duration": 1.0199984699999902,
          "durationTicks": 1938,
          "midi": 70,
          "name": "A#4",
          "ticks": 152062,
          "time": 80.03251153000001,
          "velocity": 1
        },
        {
          "duration": 0.9863143099999974,
          "durationTicks": 1874,
          "midi": 74,
          "name": "D5",
          "ticks": 152126,
          "time": 80.06619569,
          "velocity": 1
        },
        {
          "duration": 0.9536827800000083,
          "durationTicks": 1812,
          "midi": 79,
          "name": "G5",
          "ticks": 152188,
          "time": 80.09882721999999,
          "velocity": 1
        },
        {
          "duration": 1.0526299999999935,
          "durationTicks": 2000,
          "midi": 65,
          "name": "F4",
          "ticks": 154000,
          "time": 81.05251,
          "velocity": 1
        },
        {
          "duration": 1.0199984699999902,
          "durationTicks": 1938,
          "midi": 69,
          "name": "A4",
          "ticks": 154062,
          "time": 81.08514153,
          "velocity": 1
        },
        {
          "duration": 0.9873669400000011,
          "durationTicks": 1876,
          "midi": 72,
          "name": "C5",
          "ticks": 154124,
          "time": 81.11777305999999,
          "velocity": 1
        },
        {
          "duration": 0.9536827800000083,
          "durationTicks": 1812,
          "midi": 77,
          "name": "F5",
          "ticks": 154188,
          "time": 81.15145721999998,
          "velocity": 1
        },
        {
          "duration": 1.0526300000000077,
          "durationTicks": 2000,
          "midi": 70,
          "name": "A#4",
          "ticks": 156000,
          "time": 82.10513999999999,
          "velocity": 0.5039370078740157
        },
        {
          "duration": 1.0199984699999902,
          "durationTicks": 1938,
          "midi": 74,
          "name": "D5",
          "ticks": 156062,
          "time": 82.13777153000001,
          "velocity": 1
        },
        {
          "duration": 0.9863143099999974,
          "durationTicks": 1874,
          "midi": 77,
          "name": "F5",
          "ticks": 156126,
          "time": 82.17145569,
          "velocity": 1
        },
        {
          "duration": 0.9536827800000083,
          "durationTicks": 1812,
          "midi": 82,
          "name": "A#5",
          "ticks": 156188,
          "time": 82.20408721999999,
          "velocity": 1
        },
        {
          "duration": 1.0526299999999935,
          "durationTicks": 2000,
          "midi": 69,
          "name": "A4",
          "ticks": 158000,
          "time": 83.15777,
          "velocity": 0.5039370078740157
        },
        {
          "duration": 1.0199984699999902,
          "durationTicks": 1938,
          "midi": 73,
          "name": "C#5",
          "ticks": 158062,
          "time": 83.19040153,
          "velocity": 1
        },
        {
          "duration": 0.9863143099999974,
          "durationTicks": 1874,
          "midi": 76,
          "name": "E5",
          "ticks": 158126,
          "time": 83.22408569,
          "velocity": 1
        },
        {
          "duration": 0.9536827800000083,
          "durationTicks": 1812,
          "midi": 81,
          "name": "A5",
          "ticks": 158188,
          "time": 83.25671721999998,
          "velocity": 1
        },
        {
          "duration": 1.0526300000000077,
          "durationTicks": 2000,
          "midi": 74,
          "name": "D5",
          "ticks": 160000,
          "time": 84.21039999999999,
          "velocity": 0.5039370078740157
        },
        {
          "duration": 1.0199984700000044,
          "durationTicks": 1938,
          "midi": 78,
          "name": "F#5",
          "ticks": 160062,
          "time": 84.24303153,
          "velocity": 1
        },
        {
          "duration": 0.9873669400000011,
          "durationTicks": 1876,
          "midi": 81,
          "name": "A5",
          "ticks": 160124,
          "time": 84.27566306,
          "velocity": 1
        },
        {
          "duration": 0.9536827800000083,
          "durationTicks": 1812,
          "midi": 86,
          "name": "D6",
          "ticks": 160188,
          "time": 84.30934721999999,
          "velocity": 1
        },
        {
          "duration": 1.0526299999999935,
          "durationTicks": 2000,
          "midi": 75,
          "name": "D#5",
          "ticks": 162000,
          "time": 85.26303,
          "velocity": 0.5039370078740157
        },
        {
          "duration": 1.0199984699999902,
          "durationTicks": 1938,
          "midi": 79,
          "name": "G5",
          "ticks": 162062,
          "time": 85.29566153,
          "velocity": 1
        },
        {
          "duration": 0.9873669400000011,
          "durationTicks": 1876,
          "midi": 82,
          "name": "A#5",
          "ticks": 162124,
          "time": 85.32829306,
          "velocity": 1
        },
        {
          "duration": 0.9536827800000083,
          "durationTicks": 1812,
          "midi": 87,
          "name": "D#6",
          "ticks": 162188,
          "time": 85.36197721999999,
          "velocity": 1
        },
        {
          "duration": 1.0526299999999935,
          "durationTicks": 2000,
          "midi": 63,
          "name": "D#4",
          "ticks": 180000,
          "time": 94.7367,
          "velocity": 1
        },
        {
          "duration": 1.0199984699999902,
          "durationTicks": 1938,
          "midi": 67,
          "name": "G4",
          "ticks": 180062,
          "time": 94.76933153,
          "velocity": 1
        },
        {
          "duration": 0.9873669400000011,
          "durationTicks": 1876,
          "midi": 70,
          "name": "A#4",
          "ticks": 180124,
          "time": 94.80196305999999,
          "velocity": 1
        },
        {
          "duration": 0.9536827800000083,
          "durationTicks": 1812,
          "midi": 75,
          "name": "D#5",
          "ticks": 180188,
          "time": 94.83564721999998,
          "velocity": 1
        },
        {
          "duration": 1.0526300000000077,
          "durationTicks": 2000,
          "midi": 62,
          "name": "D4",
          "ticks": 182000,
          "time": 95.78932999999999,
          "velocity": 0.5039370078740157
        },
        {
          "duration": 1.0199984700000044,
          "durationTicks": 1938,
          "midi": 66,
          "name": "F#4",
          "ticks": 182062,
          "time": 95.82196153,
          "velocity": 1
        },
        {
          "duration": 0.9863143099999974,
          "durationTicks": 1874,
          "midi": 69,
          "name": "A4",
          "ticks": 182126,
          "time": 95.85564569,
          "velocity": 1
        },
        {
          "duration": 0.9536827800000083,
          "durationTicks": 1812,
          "midi": 74,
          "name": "D5",
          "ticks": 182188,
          "time": 95.88827721999999,
          "velocity": 1
        },
        {
          "duration": 1.0526299999999935,
          "durationTicks": 2000,
          "midi": 67,
          "name": "G4",
          "ticks": 184000,
          "time": 96.84196,
          "velocity": 1
        },
        {
          "duration": 1.0199984699999902,
          "durationTicks": 1938,
          "midi": 70,
          "name": "A#4",
          "ticks": 184062,
          "time": 96.87459153,
          "velocity": 1
        },
        {
          "duration": 0.9863143099999974,
          "durationTicks": 1874,
          "midi": 74,
          "name": "D5",
          "ticks": 184126,
          "time": 96.90827569,
          "velocity": 1
        },
        {
          "duration": 0.9536827800000083,
          "durationTicks": 1812,
          "midi": 79,
          "name": "G5",
          "ticks": 184188,
          "time": 96.94090721999999,
          "velocity": 1
        },
        {
          "duration": 1.0526300000000077,
          "durationTicks": 2000,
          "midi": 65,
          "name": "F4",
          "ticks": 186000,
          "time": 97.89459,
          "velocity": 1
        },
        {
          "duration": 1.0199984700000044,
          "durationTicks": 1938,
          "midi": 69,
          "name": "A4",
          "ticks": 186062,
          "time": 97.92722153,
          "velocity": 1
        },
        {
          "duration": 0.9873669400000153,
          "durationTicks": 1876,
          "midi": 72,
          "name": "C5",
          "ticks": 186124,
          "time": 97.95985305999999,
          "velocity": 1
        },
        {
          "duration": 0.9536827800000083,
          "durationTicks": 1812,
          "midi": 77,
          "name": "F5",
          "ticks": 186188,
          "time": 97.99353722,
          "velocity": 1
        },
        {
          "duration": 1.0526299999999935,
          "durationTicks": 2000,
          "midi": 70,
          "name": "A#4",
          "ticks": 188000,
          "time": 98.94722,
          "velocity": 0.5039370078740157
        },
        {
          "duration": 1.0199984699999902,
          "durationTicks": 1938,
          "midi": 74,
          "name": "D5",
          "ticks": 188062,
          "time": 98.97985153,
          "velocity": 1
        },
        {
          "duration": 0.9863143099999974,
          "durationTicks": 1874,
          "midi": 77,
          "name": "F5",
          "ticks": 188126,
          "time": 99.01353569,
          "velocity": 1
        },
        {
          "duration": 0.9536827800000083,
          "durationTicks": 1812,
          "midi": 82,
          "name": "A#5",
          "ticks": 188188,
          "time": 99.04616721999999,
          "velocity": 1
        },
        {
          "duration": 1.0526300000000077,
          "durationTicks": 2000,
          "midi": 69,
          "name": "A4",
          "ticks": 190000,
          "time": 99.99985,
          "velocity": 0.5039370078740157
        },
        {
          "duration": 1.0199984700000044,
          "durationTicks": 1938,
          "midi": 73,
          "name": "C#5",
          "ticks": 190062,
          "time": 100.03248153,
          "velocity": 1
        },
        {
          "duration": 0.9863143100000116,
          "durationTicks": 1874,
          "midi": 76,
          "name": "E5",
          "ticks": 190126,
          "time": 100.06616568999999,
          "velocity": 1
        },
        {
          "duration": 0.9536827800000083,
          "durationTicks": 1812,
          "midi": 81,
          "name": "A5",
          "ticks": 190188,
          "time": 100.09879722,
          "velocity": 1
        },
        {
          "duration": 1.0526299999999935,
          "durationTicks": 2000,
          "midi": 74,
          "name": "D5",
          "ticks": 192000,
          "time": 101.05248,
          "velocity": 0.5039370078740157
        },
        {
          "duration": 1.0199984699999902,
          "durationTicks": 1938,
          "midi": 78,
          "name": "F#5",
          "ticks": 192062,
          "time": 101.08511153,
          "velocity": 1
        },
        {
          "duration": 0.9873669400000011,
          "durationTicks": 1876,
          "midi": 81,
          "name": "A5",
          "ticks": 192124,
          "time": 101.11774306,
          "velocity": 1
        },
        {
          "duration": 0.9536827800000083,
          "durationTicks": 1812,
          "midi": 86,
          "name": "D6",
          "ticks": 192188,
          "time": 101.15142721999999,
          "velocity": 1
        },
        {
          "duration": 1.0526299999999935,
          "durationTicks": 2000,
          "midi": 75,
          "name": "D#5",
          "ticks": 194000,
          "time": 102.10511,
          "velocity": 0.5039370078740157
        },
        {
          "duration": 1.0199984699999902,
          "durationTicks": 1938,
          "midi": 79,
          "name": "G5",
          "ticks": 194062,
          "time": 102.13774153,
          "velocity": 1
        },
        {
          "duration": 0.9863143099999974,
          "durationTicks": 1874,
          "midi": 82,
          "name": "A#5",
          "ticks": 194126,
          "time": 102.17142568999999,
          "velocity": 1
        },
        {
          "duration": 0.9536827799999941,
          "durationTicks": 1812,
          "midi": 87,
          "name": "D#6",
          "ticks": 194188,
          "time": 102.20405722,
          "velocity": 1
        }
      ]
    },
    {
      "channel": 0,
      "controlChanges": {
        "0": [
          {
            "number": 0,
            "ticks": 0,
            "time": 0,
            "value": 0
          }
        ],
        "7": [
          {
            "number": 7,
            "ticks": 0,
            "time": 0,
            "value": 0.5511811023622047
          }
        ]
      },
      "pitchBends": [],
      "instrument": {
        "family": "piano",
        "number": 0,
        "name": "acoustic grand piano"
      },
      "name": "Big Playground",
      "notes": [],
      "endOfTrackTicks": 292000
    },
    {
      "channel": 7,
      "controlChanges": {},
      "pitchBends": [],
      "instrument": {
        "family": "ensemble",
        "number": 52,
        "name": "choir aahs"
      },
      "name": "",
      "notes": [
        {
          "duration": 2.1052600000000012,
          "durationTicks": 4000,
          "midi": 74,
          "name": "D5",
          "ticks": 228000,
          "time": 119.99982,
          "velocity": 1
        },
        {
          "duration": 2.1052600000000012,
          "durationTicks": 4000,
          "midi": 70,
          "name": "A#4",
          "ticks": 228000,
          "time": 119.99982,
          "velocity": 1
        },
        {
          "duration": 1.0526299999999935,
          "durationTicks": 2000,
          "midi": 58,
          "name": "A#3",
          "ticks": 228000,
          "time": 119.99982,
          "velocity": 1
        },
        {
          "duration": 2.1052600000000012,
          "durationTicks": 4000,
          "midi": 77,
          "name": "F5",
          "ticks": 228000,
          "time": 119.99982,
          "velocity": 1
        },
        {
          "duration": 2.1052600000000012,
          "durationTicks": 4000,
          "midi": 65,
          "name": "F4",
          "ticks": 228000,
          "time": 119.99982,
          "velocity": 1
        },
        {
          "duration": 1.0526300000000077,
          "durationTicks": 2000,
          "midi": 50,
          "name": "D3",
          "ticks": 230000,
          "time": 121.05245,
          "velocity": 1
        },
        {
          "duration": 1.0526299999999935,
          "durationTicks": 2000,
          "midi": 57,
          "name": "A3",
          "ticks": 232000,
          "time": 122.10508,
          "velocity": 1
        },
        {
          "duration": 2.105259999999987,
          "durationTicks": 4000,
          "midi": 72,
          "name": "C5",
          "ticks": 232000,
          "time": 122.10508,
          "velocity": 1
        },
        {
          "duration": 2.105259999999987,
          "durationTicks": 4000,
          "midi": 69,
          "name": "A4",
          "ticks": 232000,
          "time": 122.10508,
          "velocity": 1
        },
        {
          "duration": 2.105259999999987,
          "durationTicks": 4000,
          "midi": 65,
          "name": "F4",
          "ticks": 232000,
          "time": 122.10508,
          "velocity": 1
        },
        {
          "duration": 1.0526299999999935,
          "durationTicks": 2000,
          "midi": 48,
          "name": "C3",
          "ticks": 234000,
          "time": 123.15771,
          "velocity": 1
        },
        {
          "duration": 1.0526300000000077,
          "durationTicks": 2000,
          "midi": 55,
          "name": "G3",
          "ticks": 236000,
          "time": 124.21033999999999,
          "velocity": 1
        },
        {
          "duration": 2.1052600000000012,
          "durationTicks": 4000,
          "midi": 62,
          "name": "D4",
          "ticks": 236000,
          "time": 124.21033999999999,
          "velocity": 1
        },
        {
          "duration": 2.1052600000000012,
          "durationTicks": 4000,
          "midi": 67,
          "name": "G4",
          "ticks": 236000,
          "time": 124.21033999999999,
          "velocity": 1
        },
        {
          "duration": 2.1052600000000012,
          "durationTicks": 4000,
          "midi": 70,
          "name": "A#4",
          "ticks": 236000,
          "time": 124.21033999999999,
          "velocity": 1
        },
        {
          "duration": 2.1052600000000012,
          "durationTicks": 4000,
          "midi": 74,
          "name": "D5",
          "ticks": 236000,
          "time": 124.21033999999999,
          "velocity": 1
        },
        {
          "duration": 1.0526299999999935,
          "durationTicks": 2000,
          "midi": 46,
          "name": "A#2",
          "ticks": 238000,
          "time": 125.26297,
          "velocity": 1
        },
        {
          "duration": 1.0526300000000077,
          "durationTicks": 2000,
          "midi": 54,
          "name": "F#3",
          "ticks": 240000,
          "time": 126.31559999999999,
          "velocity": 1
        },
        {
          "duration": 2.1052600000000155,
          "durationTicks": 4000,
          "midi": 74,
          "name": "D5",
          "ticks": 240000,
          "time": 126.31559999999999,
          "velocity": 1
        },
        {
          "duration": 2.1052600000000155,
          "durationTicks": 4000,
          "midi": 70,
          "name": "A#4",
          "ticks": 240000,
          "time": 126.31559999999999,
          "velocity": 1
        },
        {
          "duration": 2.1052600000000155,
          "durationTicks": 4000,
          "midi": 66,
          "name": "F#4",
          "ticks": 240000,
          "time": 126.31559999999999,
          "velocity": 1
        },
        {
          "duration": 2.1052600000000155,
          "durationTicks": 4000,
          "midi": 62,
          "name": "D4",
          "ticks": 240000,
          "time": 126.31559999999999,
          "velocity": 1
        },
        {
          "duration": 1.0526300000000077,
          "durationTicks": 2000,
          "midi": 54,
          "name": "F#3",
          "ticks": 242000,
          "time": 127.36823,
          "velocity": 1
        },
        {
          "duration": 1.0526299999999935,
          "durationTicks": 2000,
          "midi": 55,
          "name": "G3",
          "ticks": 244000,
          "time": 128.42086,
          "velocity": 1
        },
        {
          "duration": 2.105259999999987,
          "durationTicks": 4000,
          "midi": 67,
          "name": "G4",
          "ticks": 244000,
          "time": 128.42086,
          "velocity": 1
        },
        {
          "duration": 2.105259999999987,
          "durationTicks": 4000,
          "midi": 70,
          "name": "A#4",
          "ticks": 244000,
          "time": 128.42086,
          "velocity": 1
        },
        {
          "duration": 2.105259999999987,
          "durationTicks": 4000,
          "midi": 75,
          "name": "D#5",
          "ticks": 244000,
          "time": 128.42086,
          "velocity": 1
        },
        {
          "duration": 2.105259999999987,
          "durationTicks": 4000,
          "midi": 77,
          "name": "F5",
          "ticks": 244000,
          "time": 128.42086,
          "velocity": 1
        },
        {
          "duration": 1.0526299999999935,
          "durationTicks": 2000,
          "midi": 48,
          "name": "C3",
          "ticks": 246000,
          "time": 129.47349,
          "velocity": 1
        },
        {
          "duration": 1.0526299999999935,
          "durationTicks": 2000,
          "midi": 53,
          "name": "F3",
          "ticks": 248000,
          "time": 130.52612,
          "velocity": 1
        },
        {
          "duration": 1.0526299999999935,
          "durationTicks": 2000,
          "midi": 74,
          "name": "D5",
          "ticks": 248000,
          "time": 130.52612,
          "velocity": 1
        },
        {
          "duration": 1.0526299999999935,
          "durationTicks": 2000,
          "midi": 69,
          "name": "A4",
          "ticks": 248000,
          "time": 130.52612,
          "velocity": 1
        },
        {
          "duration": 1.0526299999999935,
          "durationTicks": 2000,
          "midi": 65,
          "name": "F4",
          "ticks": 248000,
          "time": 130.52612,
          "velocity": 1
        },
        {
          "duration": 1.0526299999999935,
          "durationTicks": 2000,
          "midi": 60,
          "name": "C4",
          "ticks": 248000,
          "time": 130.52612,
          "velocity": 1
        },
        {
          "duration": 1.052630000000022,
          "durationTicks": 2000,
          "midi": 57,
          "name": "A3",
          "ticks": 250000,
          "time": 131.57874999999999,
          "velocity": 1
        },
        {
          "duration": 1.052630000000022,
          "durationTicks": 2000,
          "midi": 72,
          "name": "C5",
          "ticks": 250000,
          "time": 131.57874999999999,
          "velocity": 1
        },
        {
          "duration": 1.052630000000022,
          "durationTicks": 2000,
          "midi": 69,
          "name": "A4",
          "ticks": 250000,
          "time": 131.57874999999999,
          "velocity": 1
        },
        {
          "duration": 1.052630000000022,
          "durationTicks": 2000,
          "midi": 65,
          "name": "F4",
          "ticks": 250000,
          "time": 131.57874999999999,
          "velocity": 1
        },
        {
          "duration": 1.052630000000022,
          "durationTicks": 2000,
          "midi": 60,
          "name": "C4",
          "ticks": 250000,
          "time": 131.57874999999999,
          "velocity": 1
        },
        {
          "duration": 1.0526299999999935,
          "durationTicks": 2000,
          "midi": 54,
          "name": "F#3",
          "ticks": 252000,
          "time": 132.63138,
          "velocity": 1
        },
        {
          "duration": 2.105259999999987,
          "durationTicks": 4000,
          "midi": 73,
          "name": "C#5",
          "ticks": 252000,
          "time": 132.63138,
          "velocity": 1
        },
        {
          "duration": 2.105259999999987,
          "durationTicks": 4000,
          "midi": 70,
          "name": "A#4",
          "ticks": 252000,
          "time": 132.63138,
          "velocity": 1
        },
        {
          "duration": 2.105259999999987,
          "durationTicks": 4000,
          "midi": 66,
          "name": "F#4",
          "ticks": 252000,
          "time": 132.63138,
          "velocity": 1
        },
        {
          "duration": 2.105259999999987,
          "durationTicks": 4000,
          "midi": 61,
          "name": "C#4",
          "ticks": 252000,
          "time": 132.63138,
          "velocity": 1
        },
        {
          "duration": 1.0526299999999935,
          "durationTicks": 2000,
          "midi": 46,
          "name": "A#2",
          "ticks": 254000,
          "time": 133.68401,
          "velocity": 1
        },
        {
          "duration": 1.0526299999999935,
          "durationTicks": 2000,
          "midi": 46,
          "name": "A#2",
          "ticks": 256000,
          "time": 134.73664,
          "velocity": 1
        },
        {
          "duration": 1.0526299999999935,
          "durationTicks": 2000,
          "midi": 75,
          "name": "D#5",
          "ticks": 256000,
          "time": 134.73664,
          "velocity": 1
        },
        {
          "duration": 1.0526299999999935,
          "durationTicks": 2000,
          "midi": 63,
          "name": "D#4",
          "ticks": 256000,
          "time": 134.73664,
          "velocity": 1
        },
        {
          "duration": 1.0526299999999935,
          "durationTicks": 2000,
          "midi": 60,
          "name": "C4",
          "ticks": 256000,
          "time": 134.73664,
          "velocity": 1
        },
        {
          "duration": 1.0526299999999935,
          "durationTicks": 2000,
          "midi": 58,
          "name": "A#3",
          "ticks": 256000,
          "time": 134.73664,
          "velocity": 1
        },
        {
          "duration": 1.0526299999999935,
          "durationTicks": 2000,
          "midi": 72,
          "name": "C5",
          "ticks": 256000,
          "time": 134.73664,
          "velocity": 1
        },
        {
          "duration": 1.0526299999999935,
          "durationTicks": 2000,
          "midi": 45,
          "name": "A2",
          "ticks": 258000,
          "time": 135.78927,
          "velocity": 1
        },
        {
          "duration": 1.0526299999999935,
          "durationTicks": 2000,
          "midi": 74,
          "name": "D5",
          "ticks": 258000,
          "time": 135.78927,
          "velocity": 1
        },
        {
          "duration": 1.0526299999999935,
          "durationTicks": 2000,
          "midi": 62,
          "name": "D4",
          "ticks": 258000,
          "time": 135.78927,
          "velocity": 1
        },
        {
          "duration": 1.0526299999999935,
          "durationTicks": 2000,
          "midi": 60,
          "name": "C4",
          "ticks": 258000,
          "time": 135.78927,
          "velocity": 1
        },
        {
          "duration": 1.0526299999999935,
          "durationTicks": 2000,
          "midi": 58,
          "name": "A#3",
          "ticks": 258000,
          "time": 135.78927,
          "velocity": 1
        },
        {
          "duration": 1.0526299999999935,
          "durationTicks": 2000,
          "midi": 72,
          "name": "C5",
          "ticks": 258000,
          "time": 135.78927,
          "velocity": 1
        },
        {
          "duration": 2.1052600000000155,
          "durationTicks": 4000,
          "midi": 70,
          "name": "A#4",
          "ticks": 260000,
          "time": 136.84189999999998,
          "velocity": 1
        },
        {
          "duration": 2.1052600000000155,
          "durationTicks": 4000,
          "midi": 65,
          "name": "F4",
          "ticks": 260000,
          "time": 136.84189999999998,
          "velocity": 1
        },
        {
          "duration": 2.1052600000000155,
          "durationTicks": 4000,
          "midi": 62,
          "name": "D4",
          "ticks": 260000,
          "time": 136.84189999999998,
          "velocity": 1
        },
        {
          "duration": 2.105259999999987,
          "durationTicks": 4000,
          "midi": 60,
          "name": "C4",
          "ticks": 264000,
          "time": 138.94716,
          "velocity": 1
        },
        {
          "duration": 2.105259999999987,
          "durationTicks": 4000,
          "midi": 69,
          "name": "A4",
          "ticks": 264000,
          "time": 138.94716,
          "velocity": 1
        },
        {
          "duration": 2.105259999999987,
          "durationTicks": 4000,
          "midi": 65,
          "name": "F4",
          "ticks": 264000,
          "time": 138.94716,
          "velocity": 1
        },
        {
          "duration": 2.1052600000000155,
          "durationTicks": 4000,
          "midi": 70,
          "name": "A#4",
          "ticks": 268000,
          "time": 141.05241999999998,
          "velocity": 1
        },
        {
          "duration": 2.1052600000000155,
          "durationTicks": 4000,
          "midi": 67,
          "name": "G4",
          "ticks": 268000,
          "time": 141.05241999999998,
          "velocity": 1
        },
        {
          "duration": 2.1052600000000155,
          "durationTicks": 4000,
          "midi": 62,
          "name": "D4",
          "ticks": 268000,
          "time": 141.05241999999998,
          "velocity": 1
        },
        {
          "duration": 1.0526299999999935,
          "durationTicks": 2000,
          "midi": 67,
          "name": "G4",
          "ticks": 272000,
          "time": 143.15768,
          "velocity": 1
        },
        {
          "duration": 1.0526299999999935,
          "durationTicks": 2000,
          "midi": 70,
          "name": "A#4",
          "ticks": 272000,
          "time": 143.15768,
          "velocity": 1
        },
        {
          "duration": 1.0526299999999935,
          "durationTicks": 2000,
          "midi": 62,
          "name": "D4",
          "ticks": 272000,
          "time": 143.15768,
          "velocity": 1
        },
        {
          "duration": 1.0526299999999935,
          "durationTicks": 2000,
          "midi": 66,
          "name": "F#4",
          "ticks": 274000,
          "time": 144.21031,
          "velocity": 1
        },
        {
          "duration": 1.0526299999999935,
          "durationTicks": 2000,
          "midi": 70,
          "name": "A#4",
          "ticks": 274000,
          "time": 144.21031,
          "velocity": 1
        },
        {
          "duration": 1.0526299999999935,
          "durationTicks": 2000,
          "midi": 62,
          "name": "D4",
          "ticks": 274000,
          "time": 144.21031,
          "velocity": 1
        },
        {
          "duration": 1.0526299999999935,
          "durationTicks": 2000,
          "midi": 74,
          "name": "D5",
          "ticks": 274000,
          "time": 144.21031,
          "velocity": 1
        },
        {
          "duration": 2.1052600000000155,
          "durationTicks": 4000,
          "midi": 70,
          "name": "A#4",
          "ticks": 276000,
          "time": 145.26294,
          "velocity": 1
        },
        {
          "duration": 2.1052600000000155,
          "durationTicks": 4000,
          "midi": 67,
          "name": "G4",
          "ticks": 276000,
          "time": 145.26294,
          "velocity": 1
        },
        {
          "duration": 2.1052600000000155,
          "durationTicks": 4000,
          "midi": 63,
          "name": "D#4",
          "ticks": 276000,
          "time": 145.26294,
          "velocity": 1
        },
        {
          "duration": 1.0526299999999935,
          "durationTicks": 2000,
          "midi": 69,
          "name": "A4",
          "ticks": 280000,
          "time": 147.3682,
          "velocity": 1
        },
        {
          "duration": 1.0526299999999935,
          "durationTicks": 2000,
          "midi": 65,
          "name": "F4",
          "ticks": 280000,
          "time": 147.3682,
          "velocity": 1
        },
        {
          "duration": 1.0526299999999935,
          "durationTicks": 2000,
          "midi": 60,
          "name": "C4",
          "ticks": 280000,
          "time": 147.3682,
          "velocity": 1
        },
        {
          "duration": 1.0526299999999935,
          "durationTicks": 2000,
          "midi": 69,
          "name": "A4",
          "ticks": 282000,
          "time": 148.42083,
          "velocity": 1
        },
        {
          "duration": 1.0526299999999935,
          "durationTicks": 2000,
          "midi": 72,
          "name": "C5",
          "ticks": 282000,
          "time": 148.42083,
          "velocity": 1
        },
        {
          "duration": 1.0526299999999935,
          "durationTicks": 2000,
          "midi": 65,
          "name": "F4",
          "ticks": 282000,
          "time": 148.42083,
          "velocity": 1
        },
        {
          "duration": 1.0526299999999935,
          "durationTicks": 2000,
          "midi": 60,
          "name": "C4",
          "ticks": 282000,
          "time": 148.42083,
          "velocity": 1
        },
        {
          "duration": 2.1052600000000155,
          "durationTicks": 4000,
          "midi": 73,
          "name": "C#5",
          "ticks": 284000,
          "time": 149.47346,
          "velocity": 1
        },
        {
          "duration": 2.1052600000000155,
          "durationTicks": 4000,
          "midi": 70,
          "name": "A#4",
          "ticks": 284000,
          "time": 149.47346,
          "velocity": 1
        },
        {
          "duration": 2.1052600000000155,
          "durationTicks": 4000,
          "midi": 66,
          "name": "F#4",
          "ticks": 284000,
          "time": 149.47346,
          "velocity": 1
        },
        {
          "duration": 2.1052600000000155,
          "durationTicks": 4000,
          "midi": 61,
          "name": "C#4",
          "ticks": 284000,
          "time": 149.47346,
          "velocity": 1
        },
        {
          "duration": 1.0526299999999935,
          "durationTicks": 2000,
          "midi": 63,
          "name": "D#4",
          "ticks": 288000,
          "time": 151.57872,
          "velocity": 1
        },
        {
          "duration": 1.0526299999999935,
          "durationTicks": 2000,
          "midi": 66,
          "name": "F#4",
          "ticks": 288000,
          "time": 151.57872,
          "velocity": 1
        },
        {
          "duration": 1.0526299999999935,
          "durationTicks": 2000,
          "midi": 72,
          "name": "C5",
          "ticks": 288000,
          "time": 151.57872,
          "velocity": 1
        },
        {
          "duration": 1.0526299999999935,
          "durationTicks": 2000,
          "midi": 70,
          "name": "A#4",
          "ticks": 290000,
          "time": 152.63135,
          "velocity": 1
        },
        {
          "duration": 1.0526299999999935,
          "durationTicks": 2000,
          "midi": 75,
          "name": "D#5",
          "ticks": 290000,
          "time": 152.63135,
          "velocity": 1
        },
        {
          "duration": 1.0526299999999935,
          "durationTicks": 2000,
          "midi": 66,
          "name": "F#4",
          "ticks": 290000,
          "time": 152.63135,
          "velocity": 1
        },
        {
          "duration": 1.0526299999999935,
          "durationTicks": 2000,
          "midi": 63,
          "name": "D#4",
          "ticks": 290000,
          "time": 152.63135,
          "velocity": 1
        }
      ]
    }
  ]
}